<svg xmlns="http://www.w3.org/2000/svg" viewBox="750 750 1500 1500"><style>/*<![CDATA[*/svg{background:rgb(11,19,43);max-width:100vw;max-height:100vh}path{stroke-width:4}.o{opacity:.75}.S{opacity:.4}.sf{stroke:none;fill:black}.sfh{stroke:none;fill:url(#hs)}.sfv{stroke:none;fill:url(#vs)}.ss{stroke:black;fill:none}.ssh{stroke:url(#hs);fill:none}.ssv{stroke:url(#vs);fill:none}.s1{fill:none;stroke:rgb(91,192,190)}.f1{stroke:none;fill:rgb(91,192,190)}.sh1{fill:none;stroke:url(#h1)}.fh1{stroke:none;fill:url(#h1)}.sv1{fill:none;stroke:url(#v1)}.fv1{stroke:none;fill:url(#v1)}.s2{fill:none;stroke:rgb(28,37,65)}.f2{stroke:none;fill:rgb(28,37,65)}.sh2{fill:none;stroke:url(#h2)}.fh2{stroke:none;fill:url(#h2)}.sv2{fill:none;stroke:url(#v2)}.fv2{stroke:none;fill:url(#v2)}.s3{fill:none;stroke:rgb(34,34,34)}.f3{stroke:none;fill:rgb(34,34,34)}.sh3{fill:none;stroke:url(#h3)}.fh3{stroke:none;fill:url(#h3)}.sv3{fill:none;stroke:url(#v3)}.fv3{stroke:none;fill:url(#v3)}.s4{fill:none;stroke:rgb(111,255,233)}.f4{stroke:none;fill:rgb(111,255,233)}.sh4{fill:none;stroke:url(#h4)}.fh4{stroke:none;fill:url(#h4)}.sv4{fill:none;stroke:url(#v4)}.fv4{stroke:none;fill:url(#v4)}.s5{fill:none;stroke:rgb(58,80,107)}.f5{stroke:none;fill:rgb(58,80,107)}.sh5{fill:none;stroke:url(#h5)}.fh5{stroke:none;fill:url(#h5)}.sv5{fill:none;stroke:url(#v5)}.fv5{stroke:none;fill:url(#v5)}.s6{fill:none;stroke:rgb(255,255,255)}.f6{stroke:none;fill:rgb(255,255,255)}.sh6{fill:none;stroke:url(#h6)}.fh6{stroke:none;fill:url(#h6)}.sv6{fill:none;stroke:url(#v6)}.fv6{stroke:none;fill:url(#v6)}.s7{fill:none;stroke:rgb(255,0,0)}.f7{stroke:none;fill:rgb(255,0,0)}.sh7{fill:none;stroke:url(#h7)}.fh7{stroke:none;fill:url(#h7)}.sv7{fill:none;stroke:url(#v7)}.fv7{stroke:none;fill:url(#v7)}/*]]>*/</style><defs><linearGradient gradientTransform="rotate(90)" id="hs"><stop offset="20%" stop-color="#000" /><stop offset="95%" stop-color="rgba(0, 0, 0, 0)" /></linearGradient><linearGradient id="vs"><stop offset="20%" stop-color="#000" /><stop offset="95%" stop-color="rgba(0, 0, 0, 0)" /></linearGradient><linearGradient gradientTransform="rotate(90)" id="h1"><stop offset="20%" stop-color="rgba(91,192,190,1)" /><stop offset="95%" stop-color="rgba(91,192,190,0)" /></linearGradient><linearGradient id="v1"><stop offset="20%" stop-color="rgba(91,192,190,1)" /><stop offset="95%" stop-color="rgba(91,192,190,0)" /></linearGradient><linearGradient gradientTransform="rotate(90)" id="h2"><stop offset="20%" stop-color="rgba(28,37,65,1)" /><stop offset="95%" stop-color="rgba(28,37,65,0)" /></linearGradient><linearGradient id="v2"><stop offset="20%" stop-color="rgba(28,37,65,1)" /><stop offset="95%" stop-color="rgba(28,37,65,0)" /></linearGradient><linearGradient gradientTransform="rotate(90)" id="h3"><stop offset="20%" stop-color="rgba(34,34,34,1)" /><stop offset="95%" stop-color="rgba(34,34,34,0)" /></linearGradient><linearGradient id="v3"><stop offset="20%" stop-color="rgba(34,34,34,1)" /><stop offset="95%" stop-color="rgba(34,34,34,0)" /></linearGradient><linearGradient gradientTransform="rotate(90)" id="h4"><stop offset="20%" stop-color="rgba(111,255,233,1)" /><stop offset="95%" stop-color="rgba(111,255,233,0)" /></linearGradient><linearGradient id="v4"><stop offset="20%" stop-color="rgba(111,255,233,1)" /><stop offset="95%" stop-color="rgba(111,255,233,0)" /></linearGradient><linearGradient gradientTransform="rotate(90)" id="h5"><stop offset="20%" stop-color="rgba(58,80,107,1)" /><stop offset="95%" stop-color="rgba(58,80,107,0)" /></linearGradient><linearGradient id="v5"><stop offset="20%" stop-color="rgba(58,80,107,1)" /><stop offset="95%" stop-color="rgba(58,80,107,0)" /></linearGradient><linearGradient gradientTransform="rotate(90)" id="h6"><stop offset="20%" stop-color="rgba(255,255,255,1)" /><stop offset="95%" stop-color="rgba(255,255,255,0)" /></linearGradient><linearGradient id="v6"><stop offset="20%" stop-color="rgba(255,255,255,1)" /><stop offset="95%" stop-color="rgba(255,255,255,0)" /></linearGradient><linearGradient gradientTransform="rotate(90)" id="h7"><stop offset="20%" stop-color="rgba(255,0,0,1)" /><stop offset="95%" stop-color="rgba(255,0,0,0)" /></linearGradient><linearGradient id="v7"><stop offset="20%" stop-color="rgba(255,0,0,1)" /><stop offset="95%" stop-color="rgba(255,0,0,0)" /></linearGradient></defs><g transform-origin="1500 1500" transform="scale(2)" opacity=".6"><g id="slashes"><g class="o"><path transform="translate(2,4)" class="S sf" d="M1059 1484 L1191 1616 L1191 1696 L1059 1564 Z"/><path class="f5" d="M1059 1484 L1191 1616 L1191 1696 L1059 1564 Z" /></g><g class="o"><path transform="translate(3,6)" class="S sf" d="M1110 1857 L1818 2565 L1866 2565 L1158 1857 Z"/><path class="f3" d="M1110 1857 L1818 2565 L1866 2565 L1158 1857 Z" /></g><g class="o"><path transform="translate(8,16)" class="S sf" d="M1025 1412 L1199 1586 L1223 1586 L1049 1412 Z"/><path class="f4" d="M1025 1412 L1199 1586 L1223 1586 L1049 1412 Z" /></g><g class="o"><path transform="translate(2,4)" class="S sf" d="M1679 1808 L2000 2129 L2016 2129 L1695 1808 Z"/><path class="f5" d="M1679 1808 L2000 2129 L2016 2129 L1695 1808 Z" /></g><g class="o"><path transform="translate(2,4)" class="S sf" d="M1006 1679 L1087 1598 L1087 1654 L1006 1735 Z"/><path class="f3" d="M1006 1679 L1087 1598 L1087 1654 L1006 1735 Z" /></g><g class="o"><path transform="translate(7,14)" class="S sf" d="M918 1820 L1164 1574 L1260 1574 L1014 1820 Z"/><path class="f7" d="M918 1820 L1164 1574 L1260 1574 L1014 1820 Z" /></g><g class="o"><path transform="translate(7,14)" class="S sf" d="M1578 1972 L1749 1801 L1749 1835 L1578 2006 Z"/><path class="f6" d="M1578 1972 L1749 1801 L1749 1835 L1578 2006 Z" /></g><g class="o"><path transform="translate(3,6)" class="S sf" d="M1541 989 L1699 831 L1699 855 L1541 1013 Z"/><path class="f4" d="M1541 989 L1699 831 L1699 855 L1541 1013 Z" /></g><g class="o"><path transform="translate(3,6)" class="S sf" d="M1956 1272 L2574 654 L2604 654 L1986 1272 Z"/><path class="f2" d="M1956 1272 L2574 654 L2604 654 L1986 1272 Z" /></g><g class="o"><path transform="translate(5,10)" class="S sf" d="M1205 1406 L1386 1587 L1386 1739 L1205 1558 Z"/><path class="f4" d="M1205 1406 L1386 1587 L1386 1739 L1205 1558 Z" /></g><g class="o"><path transform="translate(3,6)" class="S sf" d="M1222 995 L1927 1700 L1927 1728 L1222 1023 Z"/><path class="f5" d="M1222 995 L1927 1700 L1927 1728 L1222 1023 Z" /></g><g class="o"><path transform="translate(4,8)" class="S sf" d="M1879 1509 L2284 1104 L2284 1114 L1879 1519 Z"/><path class="f2" d="M1879 1509 L2284 1104 L2284 1114 L1879 1519 Z" /></g><g class="o"><path transform="translate(6,12)" class="S sf" d="M1058 1071 L1211 1224 L1267 1224 L1114 1071 Z"/><path class="f6" d="M1058 1071 L1211 1224 L1267 1224 L1114 1071 Z" /></g><g class="o"><path transform="translate(6,12)" class="S sf" d="M1271 1889 L1685 2303 L1707 2303 L1293 1889 Z"/><path class="f5" d="M1271 1889 L1685 2303 L1707 2303 L1293 1889 Z" /></g><g class="o"><path transform="translate(5,10)" class="S ss" d="M1191 1969 L1638 2416 L1646 2416 L1199 1969 Z"/><path class="s4" d="M1191 1969 L1638 2416 L1646 2416 L1199 1969 Z" /></g><g class="o"><path transform="translate(9,18)" class="S sf" d="M1802 2012 L1928 1886 L2008 1886 L1882 2012 Z"/><path class="f7" d="M1802 2012 L1928 1886 L2008 1886 L1882 2012 Z" /></g><g class="o"><path transform="translate(4,8)" class="S sf" d="M2029 1303 L2185 1147 L2203 1147 L2047 1303 Z"/><path class="f3" d="M2029 1303 L2185 1147 L2203 1147 L2047 1303 Z" /></g><g class="o"><path transform="translate(4,8)" class="S sf" d="M2022 1646 L2640 1028 L2688 1028 L2070 1646 Z"/><path class="f2" d="M2022 1646 L2640 1028 L2688 1028 L2070 1646 Z" /></g><g class="o"><path transform="translate(4,8)" class="S sf" d="M1714 1595 L1945 1364 L1981 1364 L1750 1595 Z"/><path class="f3" d="M1714 1595 L1945 1364 L1981 1364 L1750 1595 Z" /></g><g class="o"><path transform="translate(6,12)" class="S sf" d="M1447 1863 L1882 2298 L1882 2334 L1447 1899 Z"/><path class="f6" d="M1447 1863 L1882 2298 L1882 2334 L1447 1899 Z" /></g><g class="o"><path transform="translate(6,12)" class="S sf" d="M1609 1772 L1894 2057 L1894 2193 L1609 1908 Z"/><path class="f7" d="M1609 1772 L1894 2057 L1894 2193 L1609 1908 Z" /></g><g class="o"><path transform="translate(4,8)" class="S sf" d="M1307 1196 L1458 1347 L1458 1373 L1307 1222 Z"/><path class="f6" d="M1307 1196 L1458 1347 L1458 1373 L1307 1222 Z" /></g><g class="o"><path transform="translate(2,4)" class="S sf" d="M1707 1536 L2451 2280 L2451 2416 L1707 1672 Z"/><path class="f6" d="M1707 1536 L2451 2280 L2451 2416 L1707 1672 Z" /></g><g class="o"><path transform="translate(8,16)" class="S sf" d="M1396 1898 L1798 1496 L1798 1526 L1396 1928 Z"/><path class="f1" d="M1396 1898 L1798 1496 L1798 1526 L1396 1928 Z" /></g><g class="o"><path transform="translate(5,10)" class="S sf" d="M1305 1654 L1839 2188 L1839 2316 L1305 1782 Z"/><path class="f2" d="M1305 1654 L1839 2188 L1839 2316 L1305 1782 Z" /></g><g class="o"><path transform="translate(7,14)" class="S sf" d="M1731 1635 L1911 1815 L1935 1815 L1755 1635 Z"/><path class="f3" d="M1731 1635 L1911 1815 L1935 1815 L1755 1635 Z" /></g><g class="o"><path transform="translate(6,12)" class="S sf" d="M1758 1026 L1941 1209 L1959 1209 L1776 1026 Z"/><path class="f6" d="M1758 1026 L1941 1209 L1959 1209 L1776 1026 Z" /></g><g class="o"><path transform="translate(2,4)" class="S ss" d="M1735 1436 L1946 1647 L1982 1647 L1771 1436 Z"/><path class="s3" d="M1735 1436 L1946 1647 L1982 1647 L1771 1436 Z" /></g><g class="o"><path transform="translate(5,10)" class="S sf" d="M1211 1348 L1447 1112 L1447 1146 L1211 1382 Z"/><path class="f1" d="M1211 1348 L1447 1112 L1447 1146 L1211 1382 Z" /></g><g class="o"><path transform="translate(6,12)" class="S sf" d="M1505 1803 L1946 2244 L2002 2244 L1561 1803 Z"/><path class="f1" d="M1505 1803 L1946 2244 L2002 2244 L1561 1803 Z" /></g><g class="o"><path transform="translate(2,4)" class="S sf" d="M1070 1688 L1204 1822 L1222 1822 L1088 1688 Z"/><path class="f5" d="M1070 1688 L1204 1822 L1222 1822 L1088 1688 Z" /></g><g class="o"><path transform="translate(7,14)" class="S sf" d="M1938 1319 L1998 1259 L2016 1259 L1956 1319 Z"/><path class="f5" d="M1938 1319 L1998 1259 L2016 1259 L1956 1319 Z" /></g><g class="o"><path transform="translate(9,18)" class="S sf" d="M1050 1850 L1305 2105 L1305 2117 L1050 1862 Z"/><path class="f7" d="M1050 1850 L1305 2105 L1305 2117 L1050 1862 Z" /></g><g class="o"><path transform="translate(8,16)" class="S sf" d="M1168 1701 L1462 1995 L1462 2009 L1168 1715 Z"/><path class="f6" d="M1168 1701 L1462 1995 L1462 2009 L1168 1715 Z" /></g><g class="o"><path transform="translate(7,14)" class="S ss" d="M1875 1801 L2055 1621 L2095 1621 L1915 1801 Z"/><path class="s2" d="M1875 1801 L2055 1621 L2095 1621 L1915 1801 Z" /></g><g class="o"><path transform="translate(8,16)" class="S sf" d="M1680 1065 L2409 1794 L2545 1794 L1816 1065 Z"/><path class="f2" d="M1680 1065 L2409 1794 L2545 1794 L1816 1065 Z" /></g><g class="o"><path transform="translate(3,6)" class="S sf" d="M2029 1721 L2104 1796 L2104 1916 L2029 1841 Z"/><path class="f7" d="M2029 1721 L2104 1796 L2104 1916 L2029 1841 Z" /></g><g class="o"><path transform="translate(7,14)" class="S ss" d="M1167 1207 L1273 1313 L1273 1333 L1167 1227 Z"/><path class="s3" d="M1167 1207 L1273 1313 L1273 1333 L1167 1227 Z" /></g><g class="o"><path transform="translate(9,18)" class="S ss" d="M2032 1609 L2419 1996 L2419 2010 L2032 1623 Z"/><path class="s2" d="M2032 1609 L2419 1996 L2419 2010 L2032 1623 Z" /></g><g class="o"><path transform="translate(2,4)" class="S sf" d="M1322 1958 L1534 2170 L1546 2170 L1334 1958 Z"/><path class="f7" d="M1322 1958 L1534 2170 L1546 2170 L1334 1958 Z" /></g><g class="o"><path transform="translate(6,12)" class="S sf" d="M1247 1646 L1532 1931 L1532 1969 L1247 1684 Z"/><path class="f2" d="M1247 1646 L1532 1931 L1532 1969 L1247 1684 Z" /></g><g class="o"><path transform="translate(2,4)" class="S sf" d="M1725 1901 L1952 2128 L1972 2128 L1745 1901 Z"/><path class="f3" d="M1725 1901 L1952 2128 L1972 2128 L1745 1901 Z" /></g><g class="o"><path transform="translate(2,4)" class="S sf" d="M1566 1536 L1774 1328 L1870 1328 L1662 1536 Z"/><path class="f3" d="M1566 1536 L1774 1328 L1870 1328 L1662 1536 Z" /></g><g class="o"><path transform="translate(8,16)" class="S ss" d="M1440 1343 L1547 1450 L1567 1450 L1460 1343 Z"/><path class="s2" d="M1440 1343 L1547 1450 L1567 1450 L1460 1343 Z" /></g><g class="o"><path transform="translate(5,10)" class="S sf" d="M1616 1454 L2057 1895 L2169 1895 L1728 1454 Z"/><path class="f1" d="M1616 1454 L2057 1895 L2169 1895 L1728 1454 Z" /></g><g class="o"><path transform="translate(6,12)" class="S sf" d="M1922 1024 L2612 1714 L2620 1714 L1930 1024 Z"/><path class="f2" d="M1922 1024 L2612 1714 L2620 1714 L1930 1024 Z" /></g><g class="o"><path transform="translate(8,16)" class="S sf" d="M976 1070 L1423 1517 L1423 1531 L976 1084 Z"/><path class="f5" d="M976 1070 L1423 1517 L1423 1531 L976 1084 Z" /></g><g class="o"><path transform="translate(7,14)" class="S sf" d="M1871 1398 L2246 1023 L2254 1023 L1879 1398 Z"/><path class="f6" d="M1871 1398 L2246 1023 L2254 1023 L1879 1398 Z" /></g><g class="o"><path transform="translate(9,18)" class="S sf" d="M1499 1888 L1625 2014 L1649 2014 L1523 1888 Z"/><path class="f2" d="M1499 1888 L1625 2014 L1649 2014 L1523 1888 Z" /></g><g class="o"><path transform="translate(2,4)" class="S sf" d="M1038 1026 L1134 1122 L1134 1142 L1038 1046 Z"/><path class="f5" d="M1038 1026 L1134 1122 L1134 1142 L1038 1046 Z" /></g><g class="o"><path transform="translate(8,16)" class="S sf" d="M1825 1757 L2218 2150 L2218 2174 L1825 1781 Z"/><path class="f1" d="M1825 1757 L2218 2150 L2218 2174 L1825 1781 Z" /></g><g class="o"><path transform="translate(5,10)" class="S sf" d="M1179 1648 L1503 1324 L1525 1324 L1201 1648 Z"/><path class="f5" d="M1179 1648 L1503 1324 L1525 1324 L1201 1648 Z" /></g><g class="o"><path transform="translate(5,10)" class="S sf" d="M2031 2010 L2484 2463 L2484 2511 L2031 2058 Z"/><path class="f7" d="M2031 2010 L2484 2463 L2484 2511 L2031 2058 Z" /></g><g class="o"><path transform="translate(5,10)" class="S ss" d="M1473 1478 L1557 1394 L1557 1416 L1473 1500 Z"/><path class="s4" d="M1473 1478 L1557 1394 L1557 1416 L1473 1500 Z" /></g><g class="o"><path transform="translate(9,18)" class="S sf" d="M1806 1980 L2022 2196 L2022 2244 L1806 2028 Z"/><path class="f4" d="M1806 1980 L2022 2196 L2022 2244 L1806 2028 Z" /></g><g class="o"><path transform="translate(5,10)" class="S sf" d="M2028 990 L2228 1190 L2242 1190 L2042 990 Z"/><path class="f7" d="M2028 990 L2228 1190 L2242 1190 L2042 990 Z" /></g><g class="o"><path transform="translate(7,14)" class="S sf" d="M1860 1920 L2247 1533 L2255 1533 L1868 1920 Z"/><path class="f3" d="M1860 1920 L2247 1533 L2255 1533 L1868 1920 Z" /></g><g class="o"><path transform="translate(8,16)" class="S ss" d="M1773 1275 L2003 1505 L2003 1533 L1773 1303 Z"/><path class="s7" d="M1773 1275 L2003 1505 L2003 1533 L1773 1303 Z" /></g><g class="o"><path transform="translate(2,4)" class="S sf" d="M1407 1338 L1604 1535 L1604 1571 L1407 1374 Z"/><path class="f4" d="M1407 1338 L1604 1535 L1604 1571 L1407 1374 Z" /></g><g class="o"><path transform="translate(4,8)" class="S sf" d="M1961 1755 L2175 1969 L2211 1969 L1997 1755 Z"/><path class="f2" d="M1961 1755 L2175 1969 L2211 1969 L1997 1755 Z" /></g><g class="o"><path transform="translate(2,4)" class="S sf" d="M1647 1903 L2088 1462 L2122 1462 L1681 1903 Z"/><path class="f6" d="M1647 1903 L2088 1462 L2122 1462 L1681 1903 Z" /></g><g class="o"><path transform="translate(9,18)" class="S sf" d="M1153 1909 L1387 2143 L1387 2167 L1153 1933 Z"/><path class="f7" d="M1153 1909 L1387 2143 L1387 2167 L1153 1933 Z" /></g><g class="o"><path transform="translate(5,10)" class="S sf" d="M1553 2040 L1844 2331 L1858 2331 L1567 2040 Z"/><path class="f3" d="M1553 2040 L1844 2331 L1858 2331 L1567 2040 Z" /></g><g class="o"><path transform="translate(5,10)" class="S sf" d="M1072 1775 L1555 2258 L1577 2258 L1094 1775 Z"/><path class="f4" d="M1072 1775 L1555 2258 L1577 2258 L1094 1775 Z" /></g><g class="o"><path transform="translate(6,12)" class="S sf" d="M1584 1163 L1809 938 L1809 946 L1584 1171 Z"/><path class="f5" d="M1584 1163 L1809 938 L1809 946 L1584 1171 Z" /></g><g class="o"><path transform="translate(3,6)" class="S sf" d="M1417 2046 L1658 1805 L1666 1805 L1425 2046 Z"/><path class="f3" d="M1417 2046 L1658 1805 L1666 1805 L1425 2046 Z" /></g><g class="o"><path transform="translate(3,6)" class="S sf" d="M1502 1768 L1907 2173 L1925 2173 L1520 1768 Z"/><path class="f7" d="M1502 1768 L1907 2173 L1925 2173 L1520 1768 Z" /></g><g class="o"><path transform="translate(7,14)" class="S sf" d="M2008 1806 L2129 1927 L2167 1927 L2046 1806 Z"/><path class="f3" d="M2008 1806 L2129 1927 L2167 1927 L2046 1806 Z" /></g><g class="o"><path transform="translate(3,6)" class="S sf" d="M1996 1794 L2216 1574 L2252 1574 L2032 1794 Z"/><path class="f2" d="M1996 1794 L2216 1574 L2252 1574 L2032 1794 Z" /></g><g class="o"><path transform="translate(3,6)" class="S sf" d="M1583 2027 L1773 2217 L1799 2217 L1609 2027 Z"/><path class="f2" d="M1583 2027 L1773 2217 L1799 2217 L1609 2027 Z" /></g><g class="o"><path transform="translate(4,8)" class="S sf" d="M2022 1019 L2727 1724 L2727 1788 L2022 1083 Z"/><path class="f3" d="M2022 1019 L2727 1724 L2727 1788 L2022 1083 Z" /></g><g class="o"><path transform="translate(5,10)" class="S sf" d="M1863 1460 L2007 1604 L2033 1604 L1889 1460 Z"/><path class="f3" d="M1863 1460 L2007 1604 L2033 1604 L1889 1460 Z" /></g><g class="o"><path transform="translate(6,12)" class="S sf" d="M1624 1027 L1681 1084 L1717 1084 L1660 1027 Z"/><path class="f1" d="M1624 1027 L1681 1084 L1717 1084 L1660 1027 Z" /></g><g class="o"><path transform="translate(3,6)" class="S sf" d="M1053 1432 L1479 1006 L1513 1006 L1087 1432 Z"/><path class="f2" d="M1053 1432 L1479 1006 L1513 1006 L1087 1432 Z" /></g><g class="o"><path transform="translate(6,12)" class="S sf" d="M1182 1366 L1243 1427 L1243 1475 L1182 1414 Z"/><path class="f6" d="M1182 1366 L1243 1427 L1243 1475 L1182 1414 Z" /></g><g class="o"><path transform="translate(9,18)" class="S sf" d="M1227 1541 L1348 1420 L1348 1434 L1227 1555 Z"/><path class="f7" d="M1227 1541 L1348 1420 L1348 1434 L1227 1555 Z" /></g><g class="o"><path transform="translate(6,12)" class="S sf" d="M1137 1458 L1872 2193 L1872 2227 L1137 1492 Z"/><path class="f2" d="M1137 1458 L1872 2193 L1872 2227 L1137 1492 Z" /></g><g class="o"><path transform="translate(2,4)" class="S sf" d="M1865 1408 L2222 1765 L2252 1765 L1895 1408 Z"/><path class="f4" d="M1865 1408 L2222 1765 L2252 1765 L1895 1408 Z" /></g><g class="o"><path transform="translate(7,14)" class="S sf" d="M1607 1349 L2042 914 L2058 914 L1623 1349 Z"/><path class="f1" d="M1607 1349 L2042 914 L2058 914 L1623 1349 Z" /></g><g class="o"><path transform="translate(4,8)" class="S sf" d="M1811 1128 L1986 1303 L1986 1327 L1811 1152 Z"/><path class="f2" d="M1811 1128 L1986 1303 L1986 1327 L1811 1152 Z" /></g><g class="o"><path transform="translate(5,10)" class="S ss" d="M1117 1076 L1273 1232 L1401 1232 L1245 1076 Z"/><path class="s5" d="M1117 1076 L1273 1232 L1401 1232 L1245 1076 Z" /></g><g class="o"><path transform="translate(8,16)" class="S sf" d="M1739 1000 L2162 1423 L2188 1423 L1765 1000 Z"/><path class="f6" d="M1739 1000 L2162 1423 L2188 1423 L1765 1000 Z" /></g><g class="o"><path transform="translate(7,14)" class="S sf" d="M1329 2031 L1968 1392 L1968 1428 L1329 2067 Z"/><path class="f5" d="M1329 2031 L1968 1392 L1968 1428 L1329 2067 Z" /></g><g class="o"><path transform="translate(8,16)" class="S sf" d="M1657 1563 L1746 1652 L1780 1652 L1691 1563 Z"/><path class="f4" d="M1657 1563 L1746 1652 L1780 1652 L1691 1563 Z" /></g><g class="o"><path transform="translate(3,6)" class="S ss" d="M2022 1422 L2406 1806 L2406 1840 L2022 1456 Z"/><path class="s4" d="M2022 1422 L2406 1806 L2406 1840 L2022 1456 Z" /></g><g class="o"><path transform="translate(8,16)" class="S sf" d="M924 1007 L1083 848 L1163 848 L1004 1007 Z"/><path class="f1" d="M924 1007 L1083 848 L1163 848 L1004 1007 Z" /></g><g class="o"><path transform="translate(6,12)" class="S sf" d="M1095 1536 L1740 2181 L1770 2181 L1125 1536 Z"/><path class="f3" d="M1095 1536 L1740 2181 L1770 2181 L1125 1536 Z" /></g><g class="o"><path transform="translate(9,18)" class="S sf" d="M1841 1872 L2000 2031 L2000 2051 L1841 1892 Z"/><path class="f2" d="M1841 1872 L2000 2031 L2000 2051 L1841 1892 Z" /></g><g class="o"><path transform="translate(4,8)" class="S sf" d="M1090 1100 L1441 1451 L1461 1451 L1110 1100 Z"/><path class="f7" d="M1090 1100 L1441 1451 L1461 1451 L1110 1100 Z" /></g><g class="o"><path transform="translate(4,8)" class="S sf" d="M1475 1307 L1970 1802 L2114 1802 L1619 1307 Z"/><path class="f6" d="M1475 1307 L1970 1802 L2114 1802 L1619 1307 Z" /></g><g class="o"><path transform="translate(9,18)" class="S ss" d="M1713 2031 L1902 2220 L1902 2248 L1713 2059 Z"/><path class="s6" d="M1713 2031 L1902 2220 L1902 2248 L1713 2059 Z" /></g><g class="o"><path transform="translate(3,6)" class="S ss" d="M1863 1394 L2184 1715 L2192 1715 L1871 1394 Z"/><path class="s6" d="M1863 1394 L2184 1715 L2192 1715 L1871 1394 Z" /></g><g class="o"><path transform="translate(6,12)" class="S ss" d="M1402 1450 L1599 1253 L1611 1253 L1414 1450 Z"/><path class="s4" d="M1402 1450 L1599 1253 L1611 1253 L1414 1450 Z" /></g><g class="o"><path transform="translate(9,18)" class="S sf" d="M1226 1124 L1449 901 L1481 901 L1258 1124 Z"/><path class="f2" d="M1226 1124 L1449 901 L1481 901 L1258 1124 Z" /></g><g class="o"><path transform="translate(2,4)" class="S ss" d="M1420 1360 L2074 2014 L2074 2062 L1420 1408 Z"/><path class="s1" d="M1420 1360 L2074 2014 L2074 2062 L1420 1408 Z" /></g><g class="o"><path transform="translate(9,18)" class="S sf" d="M1857 961 L2010 1114 L2010 1148 L1857 995 Z"/><path class="f2" d="M1857 961 L2010 1114 L2010 1148 L1857 995 Z" /></g><g class="o"><path transform="translate(8,16)" class="S sf" d="M1741 1322 L2395 668 L2395 688 L1741 1342 Z"/><path class="f3" d="M1741 1322 L2395 668 L2395 688 L1741 1342 Z" /></g><g class="o"><path transform="translate(2,4)" class="S sf" d="M965 1439 L1514 1988 L1536 1988 L987 1439 Z"/><path class="f1" d="M965 1439 L1514 1988 L1536 1988 L987 1439 Z" /></g><g class="o"><path transform="translate(9,18)" class="S sf" d="M1632 1744 L1879 1991 L1983 1991 L1736 1744 Z"/><path class="f5" d="M1632 1744 L1879 1991 L1983 1991 L1736 1744 Z" /></g><g class="o"><path transform="translate(3,6)" class="S sf" d="M1532 1021 L1979 1468 L1979 1556 L1532 1109 Z"/><path class="f3" d="M1532 1021 L1979 1468 L1979 1556 L1532 1109 Z" /></g><g class="o"><path transform="translate(5,10)" class="S sf" d="M1988 1181 L2297 1490 L2297 1518 L1988 1209 Z"/><path class="f6" d="M1988 1181 L2297 1490 L2297 1518 L1988 1209 Z" /></g><g class="o"><path transform="translate(6,12)" class="S sf" d="M954 1439 L1182 1667 L1278 1667 L1050 1439 Z"/><path class="f4" d="M954 1439 L1182 1667 L1278 1667 L1050 1439 Z" /></g><g class="o"><path transform="translate(6,12)" class="S sf" d="M1152 1117 L1326 1291 L1352 1291 L1178 1117 Z"/><path class="f5" d="M1152 1117 L1326 1291 L1352 1291 L1178 1117 Z" /></g><g class="o"><path transform="translate(7,14)" class="S sf" d="M1905 1346 L1978 1419 L1978 1437 L1905 1364 Z"/><path class="f5" d="M1905 1346 L1978 1419 L1978 1437 L1905 1364 Z" /></g><g class="o"><path transform="translate(3,6)" class="S ss" d="M1282 2001 L1444 1839 L1500 1839 L1338 2001 Z"/><path class="s4" d="M1282 2001 L1444 1839 L1500 1839 L1338 2001 Z" /></g><g class="o"><path transform="translate(8,16)" class="S ss" d="M1809 1200 L2142 867 L2142 979 L1809 1312 Z"/><path class="s4" d="M1809 1200 L2142 867 L2142 979 L1809 1312 Z" /></g><g class="o"><path transform="translate(7,14)" class="S sf" d="M1693 1418 L1823 1548 L1975 1548 L1845 1418 Z"/><path class="f7" d="M1693 1418 L1823 1548 L1975 1548 L1845 1418 Z" /></g><g class="o"><path transform="translate(7,14)" class="S ss" d="M1052 1180 L1328 1456 L1328 1576 L1052 1300 Z"/><path class="s7" d="M1052 1180 L1328 1456 L1328 1576 L1052 1300 Z" /></g><g class="o"><path transform="translate(4,8)" class="S sf" d="M1245 1724 L1456 1935 L1592 1935 L1381 1724 Z"/><path class="f5" d="M1245 1724 L1456 1935 L1592 1935 L1381 1724 Z" /></g><g class="o"><path transform="translate(5,10)" class="S sf" d="M1135 1758 L1324 1569 L1324 1609 L1135 1798 Z"/><path class="f6" d="M1135 1758 L1324 1569 L1324 1609 L1135 1798 Z" /></g><g class="o"><path transform="translate(7,14)" class="S sf" d="M1504 1249 L1734 1479 L1734 1491 L1504 1261 Z"/><path class="f1" d="M1504 1249 L1734 1479 L1734 1491 L1504 1261 Z" /></g><g class="o"><path transform="translate(6,12)" class="S sf" d="M1201 1882 L1663 1420 L1673 1420 L1211 1882 Z"/><path class="f3" d="M1201 1882 L1663 1420 L1673 1420 L1211 1882 Z" /></g><g class="o"><path transform="translate(5,10)" class="S ss" d="M1055 1165 L1313 1423 L1313 1441 L1055 1183 Z"/><path class="s2" d="M1055 1165 L1313 1423 L1313 1441 L1055 1183 Z" /></g><g class="o"><path transform="translate(9,18)" class="S sf" d="M1122 1255 L1404 1537 L1548 1537 L1266 1255 Z"/><path class="f5" d="M1122 1255 L1404 1537 L1548 1537 L1266 1255 Z" /></g><g class="o"><path transform="translate(2,4)" class="S sf" d="M1984 1251 L2413 1680 L2541 1680 L2112 1251 Z"/><path class="f7" d="M1984 1251 L2413 1680 L2541 1680 L2112 1251 Z" /></g><g class="o"><path transform="translate(4,8)" class="S sf" d="M1991 1263 L2318 1590 L2336 1590 L2009 1263 Z"/><path class="f5" d="M1991 1263 L2318 1590 L2336 1590 L2009 1263 Z" /></g><g class="o"><path transform="translate(5,10)" class="S ss" d="M1925 1713 L2360 1278 L2488 1278 L2053 1713 Z"/><path class="s6" d="M1925 1713 L2360 1278 L2488 1278 L2053 1713 Z" /></g><g class="o"><path transform="translate(9,18)" class="S sf" d="M1707 1629 L1858 1780 L1858 1816 L1707 1665 Z"/><path class="f4" d="M1707 1629 L1858 1780 L1858 1816 L1707 1665 Z" /></g><g class="o"><path transform="translate(2,4)" class="S ss" d="M1100 1194 L1640 1734 L1720 1734 L1180 1194 Z"/><path class="s5" d="M1100 1194 L1640 1734 L1720 1734 L1180 1194 Z" /></g><g class="o"><path transform="translate(5,10)" class="S sf" d="M1819 1963 L2011 2155 L2011 2227 L1819 2035 Z"/><path class="f6" d="M1819 1963 L2011 2155 L2011 2227 L1819 2035 Z" /></g><g class="o"><path transform="translate(2,4)" class="S sf" d="M1341 1358 L1878 821 L1950 821 L1413 1358 Z"/><path class="f2" d="M1341 1358 L1878 821 L1950 821 L1413 1358 Z" /></g><g class="o"><path transform="translate(3,6)" class="S sf" d="M1466 1803 L1904 2241 L1922 2241 L1484 1803 Z"/><path class="f5" d="M1466 1803 L1904 2241 L1922 2241 L1484 1803 Z" /></g><g class="o"><path transform="translate(8,16)" class="S sf" d="M2006 1305 L2465 846 L2487 846 L2028 1305 Z"/><path class="f5" d="M2006 1305 L2465 846 L2487 846 L2028 1305 Z" /></g><g class="o"><path transform="translate(5,10)" class="S sf" d="M2007 2015 L2203 2211 L2203 2233 L2007 2037 Z"/><path class="f6" d="M2007 2015 L2203 2211 L2203 2233 L2007 2037 Z" /></g><g class="o"><path transform="translate(6,12)" class="S sf" d="M1011 1805 L1434 2228 L1434 2262 L1011 1839 Z"/><path class="f1" d="M1011 1805 L1434 2228 L1434 2262 L1011 1839 Z" /></g><g class="o"><path transform="translate(9,18)" class="S sf" d="M1281 2000 L1644 1637 L1644 1651 L1281 2014 Z"/><path class="f1" d="M1281 2000 L1644 1637 L1644 1651 L1281 2014 Z" /></g><g class="o"><path transform="translate(5,10)" class="S ss" d="M1741 1408 L1886 1263 L2038 1263 L1893 1408 Z"/><path class="s6" d="M1741 1408 L1886 1263 L2038 1263 L1893 1408 Z" /></g><g class="o"><path transform="translate(4,8)" class="S sf" d="M1914 1071 L2150 1307 L2184 1307 L1948 1071 Z"/><path class="f2" d="M1914 1071 L2150 1307 L2184 1307 L1948 1071 Z" /></g><g class="o"><path transform="translate(8,16)" class="S sf" d="M1312 1224 L1400 1312 L1400 1338 L1312 1250 Z"/><path class="f7" d="M1312 1224 L1400 1312 L1400 1338 L1312 1250 Z" /></g><g class="o"><path transform="translate(2,4)" class="S sf" d="M1202 1762 L1321 1881 L1321 1919 L1202 1800 Z"/><path class="f4" d="M1202 1762 L1321 1881 L1321 1919 L1202 1800 Z" /></g><g class="o"><path transform="translate(2,4)" class="S sf" d="M1418 1078 L1649 1309 L1649 1413 L1418 1182 Z"/><path class="f7" d="M1418 1078 L1649 1309 L1649 1413 L1418 1182 Z" /></g><g class="o"><path transform="translate(6,12)" class="S sf" d="M2007 1536 L2185 1358 L2185 1414 L2007 1592 Z"/><path class="f7" d="M2007 1536 L2185 1358 L2185 1414 L2007 1592 Z" /></g><g class="o"><path transform="translate(6,12)" class="S sf" d="M1553 1411 L1958 1816 L1990 1816 L1585 1411 Z"/><path class="f3" d="M1553 1411 L1958 1816 L1990 1816 L1585 1411 Z" /></g><g class="o"><path transform="translate(7,14)" class="S sf" d="M1666 1561 L1841 1736 L1841 1768 L1666 1593 Z"/><path class="f1" d="M1666 1561 L1841 1736 L1841 1768 L1666 1593 Z" /></g><g class="o"><path transform="translate(6,12)" class="S ss" d="M961 1311 L1264 1614 L1264 1662 L961 1359 Z"/><path class="s7" d="M961 1311 L1264 1614 L1264 1662 L961 1359 Z" /></g><g class="o"><path transform="translate(2,4)" class="S sf" d="M951 1735 L1449 2233 L1489 2233 L991 1735 Z"/><path class="f7" d="M951 1735 L1449 2233 L1489 2233 L991 1735 Z" /></g><g class="o"><path transform="translate(5,10)" class="S sf" d="M1266 1415 L1329 1478 L1365 1478 L1302 1415 Z"/><path class="f1" d="M1266 1415 L1329 1478 L1365 1478 L1302 1415 Z" /></g><g class="o"><path transform="translate(9,18)" class="S sf" d="M904 1448 L1516 2060 L1644 2060 L1032 1448 Z"/><path class="f6" d="M904 1448 L1516 2060 L1644 2060 L1032 1448 Z" /></g><g class="o"><path transform="translate(4,8)" class="S sf" d="M1102 1889 L1354 2141 L1354 2163 L1102 1911 Z"/><path class="f3" d="M1102 1889 L1354 2141 L1354 2163 L1102 1911 Z" /></g><g class="o"><path transform="translate(4,8)" class="S sf" d="M1844 1762 L1956 1650 L1956 1678 L1844 1790 Z"/><path class="f7" d="M1844 1762 L1956 1650 L1956 1678 L1844 1790 Z" /></g><g class="o"><path transform="translate(2,4)" class="S sf" d="M1210 1002 L1421 1213 L1421 1231 L1210 1020 Z"/><path class="f5" d="M1210 1002 L1421 1213 L1421 1231 L1210 1020 Z" /></g><g class="o"><path transform="translate(7,14)" class="S sf" d="M1201 1857 L1251 1907 L1251 1917 L1201 1867 Z"/><path class="f6" d="M1201 1857 L1251 1907 L1251 1917 L1201 1867 Z" /></g><g class="o"><path transform="translate(4,8)" class="S ss" d="M1383 1551 L1725 1893 L1751 1893 L1409 1551 Z"/><path class="s6" d="M1383 1551 L1725 1893 L1751 1893 L1409 1551 Z" /></g><g class="o"><path transform="translate(5,10)" class="S ss" d="M1454 1729 L1745 2020 L1745 2060 L1454 1769 Z"/><path class="s1" d="M1454 1729 L1745 2020 L1745 2060 L1454 1769 Z" /></g><g class="o"><path transform="translate(6,12)" class="S sf" d="M1278 1845 L1476 2043 L1476 2077 L1278 1879 Z"/><path class="f7" d="M1278 1845 L1476 2043 L1476 2077 L1278 1879 Z" /></g><g class="o"><path transform="translate(5,10)" class="S ss" d="M1483 1629 L1972 2118 L1972 2150 L1483 1661 Z"/><path class="s6" d="M1483 1629 L1972 2118 L1972 2150 L1483 1661 Z" /></g><g class="o"><path transform="translate(5,10)" class="S sf" d="M1948 1984 L2193 2229 L2193 2265 L1948 2020 Z"/><path class="f1" d="M1948 1984 L2193 2229 L2193 2265 L1948 2020 Z" /></g><g class="o"><path transform="translate(6,12)" class="S ss" d="M1543 1803 L1694 1652 L1732 1652 L1581 1803 Z"/><path class="s3" d="M1543 1803 L1694 1652 L1732 1652 L1581 1803 Z" /></g><g class="o"><path transform="translate(7,14)" class="S sf" d="M1964 1155 L2375 1566 L2409 1566 L1998 1155 Z"/><path class="f4" d="M1964 1155 L2375 1566 L2409 1566 L1998 1155 Z" /></g><g class="o"><path transform="translate(7,14)" class="S sf" d="M1890 1797 L2103 2010 L2135 2010 L1922 1797 Z"/><path class="f4" d="M1890 1797 L2103 2010 L2135 2010 L1922 1797 Z" /></g></g><use href="#slashes" transform-origin="1500 1500" transform="rotate(180) scale(2)"/></g><polyline points="1500,1010 1990,1500 1500,1990 1010,1500 1500,1010 1990,1500" stroke-width="20" class="o f6" /><use href="#slashes" transform-origin="1500 1500" transform="scale(.9)"/><use href="#slashes" transform-origin="1500 1500" transform="rotate(180) scale(.9)"/></svg>