<svg xmlns="http://www.w3.org/2000/svg" viewBox="750 750 1500 1500"><style>/*<![CDATA[*/svg{background:rgb(227,227,227);max-width:100vw;max-height:100vh}path{stroke-width:4}.o{opacity:.75}.S{opacity:.4}.sf{stroke:none;fill:black}.sfh{stroke:none;fill:url(#hs)}.sfv{stroke:none;fill:url(#vs)}.ss{stroke:black;fill:none}.ssh{stroke:url(#hs);fill:none}.ssv{stroke:url(#vs);fill:none}.s1{fill:none;stroke:rgb(249,196,107)}.f1{stroke:none;fill:rgb(249,196,107)}.sh1{fill:none;stroke:url(#h1)}.fh1{stroke:none;fill:url(#h1)}.sv1{fill:none;stroke:url(#v1)}.fv1{stroke:none;fill:url(#v1)}.s2{fill:none;stroke:rgb(34,34,34)}.f2{stroke:none;fill:rgb(34,34,34)}.sh2{fill:none;stroke:url(#h2)}.fh2{stroke:none;fill:url(#h2)}.sv2{fill:none;stroke:url(#v2)}.fv2{stroke:none;fill:url(#v2)}.s3{fill:none;stroke:rgb(138,0,212)}.f3{stroke:none;fill:rgb(138,0,212)}.sh3{fill:none;stroke:url(#h3)}.fh3{stroke:none;fill:url(#h3)}.sv3{fill:none;stroke:url(#v3)}.fv3{stroke:none;fill:url(#v3)}.s4{fill:none;stroke:rgb(247,130,194)}.f4{stroke:none;fill:rgb(247,130,194)}.sh4{fill:none;stroke:url(#h4)}.fh4{stroke:none;fill:url(#h4)}.sv4{fill:none;stroke:url(#v4)}.fv4{stroke:none;fill:url(#v4)}.s5{fill:none;stroke:rgb(213,39,183)}.f5{stroke:none;fill:rgb(213,39,183)}.sh5{fill:none;stroke:url(#h5)}.fh5{stroke:none;fill:url(#h5)}.sv5{fill:none;stroke:url(#v5)}.fv5{stroke:none;fill:url(#v5)}.s6{fill:none;stroke:rgb(255,255,255)}.f6{stroke:none;fill:rgb(255,255,255)}.sh6{fill:none;stroke:url(#h6)}.fh6{stroke:none;fill:url(#h6)}.sv6{fill:none;stroke:url(#v6)}.fv6{stroke:none;fill:url(#v6)}.s7{fill:none;stroke:rgb(255,255,0)}.f7{stroke:none;fill:rgb(255,255,0)}.sh7{fill:none;stroke:url(#h7)}.fh7{stroke:none;fill:url(#h7)}.sv7{fill:none;stroke:url(#v7)}.fv7{stroke:none;fill:url(#v7)}/*]]>*/</style><defs><linearGradient gradientTransform="rotate(90)" id="hs"><stop offset="20%" stop-color="#000" /><stop offset="95%" stop-color="rgba(0, 0, 0, 0)" /></linearGradient><linearGradient id="vs"><stop offset="20%" stop-color="#000" /><stop offset="95%" stop-color="rgba(0, 0, 0, 0)" /></linearGradient><linearGradient gradientTransform="rotate(90)" id="h1"><stop offset="20%" stop-color="rgba(249,196,107,1)" /><stop offset="95%" stop-color="rgba(249,196,107,0)" /></linearGradient><linearGradient id="v1"><stop offset="20%" stop-color="rgba(249,196,107,1)" /><stop offset="95%" stop-color="rgba(249,196,107,0)" /></linearGradient><linearGradient gradientTransform="rotate(90)" id="h2"><stop offset="20%" stop-color="rgba(34,34,34,1)" /><stop offset="95%" stop-color="rgba(34,34,34,0)" /></linearGradient><linearGradient id="v2"><stop offset="20%" stop-color="rgba(34,34,34,1)" /><stop offset="95%" stop-color="rgba(34,34,34,0)" /></linearGradient><linearGradient gradientTransform="rotate(90)" id="h3"><stop offset="20%" stop-color="rgba(138,0,212,1)" /><stop offset="95%" stop-color="rgba(138,0,212,0)" /></linearGradient><linearGradient id="v3"><stop offset="20%" stop-color="rgba(138,0,212,1)" /><stop offset="95%" stop-color="rgba(138,0,212,0)" /></linearGradient><linearGradient gradientTransform="rotate(90)" id="h4"><stop offset="20%" stop-color="rgba(247,130,194,1)" /><stop offset="95%" stop-color="rgba(247,130,194,0)" /></linearGradient><linearGradient id="v4"><stop offset="20%" stop-color="rgba(247,130,194,1)" /><stop offset="95%" stop-color="rgba(247,130,194,0)" /></linearGradient><linearGradient gradientTransform="rotate(90)" id="h5"><stop offset="20%" stop-color="rgba(213,39,183,1)" /><stop offset="95%" stop-color="rgba(213,39,183,0)" /></linearGradient><linearGradient id="v5"><stop offset="20%" stop-color="rgba(213,39,183,1)" /><stop offset="95%" stop-color="rgba(213,39,183,0)" /></linearGradient><linearGradient gradientTransform="rotate(90)" id="h6"><stop offset="20%" stop-color="rgba(255,255,255,1)" /><stop offset="95%" stop-color="rgba(255,255,255,0)" /></linearGradient><linearGradient id="v6"><stop offset="20%" stop-color="rgba(255,255,255,1)" /><stop offset="95%" stop-color="rgba(255,255,255,0)" /></linearGradient><linearGradient gradientTransform="rotate(90)" id="h7"><stop offset="20%" stop-color="rgba(255,255,0,1)" /><stop offset="95%" stop-color="rgba(255,255,0,0)" /></linearGradient><linearGradient id="v7"><stop offset="20%" stop-color="rgba(255,255,0,1)" /><stop offset="95%" stop-color="rgba(255,255,0,0)" /></linearGradient></defs><g transform-origin="1500 1500" transform="scale(2)" opacity=".2"><g id="slashes"><g class="o"><path transform="translate(5,10)" class="S sf" d="M1306 1537 L1148 1695 L1162 1695 L1320 1537 Z"/><path class="f4" d="M1306 1537 L1148 1695 L1162 1695 L1320 1537 Z" /></g><g class="o"><path transform="translate(9,18)" class="S sf" d="M1898 1513 L2047 1662 L2065 1662 L1916 1513 Z"/><path class="f1" d="M1898 1513 L2047 1662 L2065 1662 L1916 1513 Z" /></g><g class="o"><path transform="translate(3,6)" class="S sfh" d="M1946 1484 L1828 1602 L1844 1602 L1962 1484 Z"/><path class="fh5" d="M1946 1484 L1828 1602 L1844 1602 L1962 1484 Z" /></g><g class="o"><path transform="translate(8,16)" class="S sfv" d="M1968 1792 L2124 1948 L2124 2076 L1968 1920 Z"/><path class="fv7" d="M1968 1792 L2124 1948 L2124 2076 L1968 1920 Z" /></g><g class="o"><path transform="translate(6,12)" class="S ssh" d="M1449 1367 L1669 1587 L1805 1587 L1585 1367 Z"/><path class="sh2" d="M1449 1367 L1669 1587 L1805 1587 L1585 1367 Z" /></g><g class="o"><path transform="translate(4,8)" class="S sf" d="M1454 1237 L1859 1642 L1869 1642 L1464 1237 Z"/><path class="f5" d="M1454 1237 L1859 1642 L1869 1642 L1464 1237 Z" /></g><g class="o"><path transform="translate(3,6)" class="S ssv" d="M1871 1765 L1658 1552 L1658 1560 L1871 1773 Z"/><path class="sv4" d="M1871 1765 L1658 1552 L1658 1560 L1871 1773 Z" /></g><g class="o"><path transform="translate(7,14)" class="S ssh" d="M1846 1070 L2064 1288 L2082 1288 L1864 1070 Z"/><path class="sh5" d="M1846 1070 L2064 1288 L2082 1288 L1864 1070 Z" /></g><g class="o"><path transform="translate(6,12)" class="S ssv" d="M1139 1417 L587 865 L587 891 L1139 1443 Z"/><path class="sv7" d="M1139 1417 L587 865 L587 891 L1139 1443 Z" /></g><g class="o"><path transform="translate(6,12)" class="S sfv" d="M1775 1062 L1905 932 L1905 940 L1775 1070 Z"/><path class="fv1" d="M1775 1062 L1905 932 L1905 940 L1775 1070 Z" /></g><g class="o"><path transform="translate(8,16)" class="S ssh" d="M1486 1749 L1638 1597 L1654 1597 L1502 1749 Z"/><path class="sh5" d="M1486 1749 L1638 1597 L1654 1597 L1502 1749 Z" /></g><g class="o"><path transform="translate(9,18)" class="S sf" d="M1451 1666 L1507 1722 L1507 1736 L1451 1680 Z"/><path class="f3" d="M1451 1666 L1507 1722 L1507 1736 L1451 1680 Z" /></g><g class="o"><path transform="translate(6,12)" class="S sfh" d="M1724 1202 L1640 1118 L1668 1118 L1752 1202 Z"/><path class="fh7" d="M1724 1202 L1640 1118 L1668 1118 L1752 1202 Z" /></g><g class="o"><path transform="translate(6,12)" class="S sfv" d="M1776 1053 L1532 809 L1532 823 L1776 1067 Z"/><path class="fv3" d="M1776 1053 L1532 809 L1532 823 L1776 1067 Z" /></g><g class="o"><path transform="translate(4,8)" class="S sfv" d="M1837 2007 L1174 2670 L1174 2700 L1837 2037 Z"/><path class="fv5" d="M1837 2007 L1174 2670 L1174 2700 L1837 2037 Z" /></g><g class="o"><path transform="translate(6,12)" class="S sfv" d="M1990 1683 L1549 1242 L1549 1274 L1990 1715 Z"/><path class="fv4" d="M1990 1683 L1549 1242 L1549 1274 L1990 1715 Z" /></g><g class="o"><path transform="translate(3,6)" class="S sfv" d="M973 1716 L1210 1479 L1210 1491 L973 1728 Z"/><path class="fv1" d="M973 1716 L1210 1479 L1210 1491 L973 1728 Z" /></g><g class="o"><path transform="translate(7,14)" class="S sfh" d="M1953 997 L1866 1084 L1880 1084 L1967 997 Z"/><path class="fh1" d="M1953 997 L1866 1084 L1880 1084 L1967 997 Z" /></g><g class="o"><path transform="translate(6,12)" class="S ssv" d="M1314 1697 L1549 1462 L1549 1494 L1314 1729 Z"/><path class="sv4" d="M1314 1697 L1549 1462 L1549 1494 L1314 1729 Z" /></g><g class="o"><path transform="translate(4,8)" class="S ssh" d="M1184 1939 L1276 2031 L1348 2031 L1256 1939 Z"/><path class="sh1" d="M1184 1939 L1276 2031 L1348 2031 L1256 1939 Z" /></g><g class="o"><path transform="translate(7,14)" class="S sfv" d="M1295 2001 L1514 1782 L1514 1800 L1295 2019 Z"/><path class="fv2" d="M1295 2001 L1514 1782 L1514 1800 L1295 2019 Z" /></g><g class="o"><path transform="translate(2,4)" class="S sfh" d="M1212 1496 L1815 2099 L1839 2099 L1236 1496 Z"/><path class="fh4" d="M1212 1496 L1815 2099 L1839 2099 L1236 1496 Z" /></g><g class="o"><path transform="translate(4,8)" class="S sfv" d="M1400 1983 L1901 1482 L1901 1500 L1400 2001 Z"/><path class="fv5" d="M1400 1983 L1901 1482 L1901 1500 L1400 2001 Z" /></g><g class="o"><path transform="translate(2,4)" class="S sf" d="M1493 1715 L1647 1869 L1647 1893 L1493 1739 Z"/><path class="f5" d="M1493 1715 L1647 1869 L1647 1893 L1493 1739 Z" /></g><g class="o"><path transform="translate(4,8)" class="S sfh" d="M1216 1986 L1034 2168 L1098 2168 L1280 1986 Z"/><path class="fh6" d="M1216 1986 L1034 2168 L1098 2168 L1280 1986 Z" /></g><g class="o"><path transform="translate(9,18)" class="S sfh" d="M1681 1921 L1884 2124 L1892 2124 L1689 1921 Z"/><path class="fh6" d="M1681 1921 L1884 2124 L1892 2124 L1689 1921 Z" /></g><g class="o"><path transform="translate(6,12)" class="S sfh" d="M1584 1734 L945 1095 L969 1095 L1608 1734 Z"/><path class="fh7" d="M1584 1734 L945 1095 L969 1095 L1608 1734 Z" /></g><g class="o"><path transform="translate(8,16)" class="S ss" d="M1562 2030 L1474 2118 L1474 2126 L1562 2038 Z"/><path class="s1" d="M1562 2030 L1474 2118 L1474 2126 L1562 2038 Z" /></g><g class="o"><path transform="translate(9,18)" class="S sfh" d="M960 1394 L886 1468 L982 1468 L1056 1394 Z"/><path class="fh4" d="M960 1394 L886 1468 L982 1468 L1056 1394 Z" /></g><g class="o"><path transform="translate(6,12)" class="S sfh" d="M975 1469 L1117 1327 L1147 1327 L1005 1469 Z"/><path class="fh3" d="M975 1469 L1117 1327 L1147 1327 L1005 1469 Z" /></g><g class="o"><path transform="translate(4,8)" class="S ssh" d="M1579 1223 L1522 1166 L1530 1166 L1587 1223 Z"/><path class="sh4" d="M1579 1223 L1522 1166 L1530 1166 L1587 1223 Z" /></g><g class="o"><path transform="translate(5,10)" class="S sfv" d="M1578 2014 L1511 1947 L1511 1967 L1578 2034 Z"/><path class="fv5" d="M1578 2014 L1511 1947 L1511 1967 L1578 2034 Z" /></g><g class="o"><path transform="translate(5,10)" class="S sf" d="M977 1946 L617 1586 L645 1586 L1005 1946 Z"/><path class="f7" d="M977 1946 L617 1586 L645 1586 L1005 1946 Z" /></g><g class="o"><path transform="translate(9,18)" class="S sfh" d="M1924 1018 L2047 1141 L2055 1141 L1932 1018 Z"/><path class="fh1" d="M1924 1018 L2047 1141 L2055 1141 L1932 1018 Z" /></g><g class="o"><path transform="translate(4,8)" class="S sfv" d="M1073 1891 L1009 1955 L1009 1971 L1073 1907 Z"/><path class="fv3" d="M1073 1891 L1009 1955 L1009 1971 L1073 1907 Z" /></g><g class="o"><path transform="translate(3,6)" class="S ssv" d="M1269 1621 L1421 1469 L1421 1477 L1269 1629 Z"/><path class="sv1" d="M1269 1621 L1421 1469 L1421 1477 L1269 1629 Z" /></g><g class="o"><path transform="translate(9,18)" class="S sfv" d="M1204 1604 L1099 1499 L1099 1519 L1204 1624 Z"/><path class="fv6" d="M1204 1604 L1099 1499 L1099 1519 L1204 1624 Z" /></g><g class="o"><path transform="translate(3,6)" class="S sfh" d="M1331 1577 L1093 1339 L1117 1339 L1355 1577 Z"/><path class="fh2" d="M1331 1577 L1093 1339 L1117 1339 L1355 1577 Z" /></g><g class="o"><path transform="translate(9,18)" class="S sfh" d="M1107 1025 L1758 374 L1780 374 L1129 1025 Z"/><path class="fh4" d="M1107 1025 L1758 374 L1780 374 L1129 1025 Z" /></g><g class="o"><path transform="translate(6,12)" class="S sf" d="M1680 1353 L1436 1597 L1456 1597 L1700 1353 Z"/><path class="f7" d="M1680 1353 L1436 1597 L1456 1597 L1700 1353 Z" /></g><g class="o"><path transform="translate(2,4)" class="S sf" d="M971 1439 L1194 1216 L1194 1232 L971 1455 Z"/><path class="f7" d="M971 1439 L1194 1216 L1194 1232 L971 1455 Z" /></g><g class="o"><path transform="translate(8,16)" class="S sfv" d="M1213 1651 L1360 1504 L1360 1534 L1213 1681 Z"/><path class="fv5" d="M1213 1651 L1360 1504 L1360 1534 L1213 1681 Z" /></g><g class="o"><path transform="translate(7,14)" class="S sfv" d="M1509 1277 L1713 1481 L1713 1515 L1509 1311 Z"/><path class="fv6" d="M1509 1277 L1713 1481 L1713 1515 L1509 1311 Z" /></g><g class="o"><path transform="translate(8,16)" class="S ssv" d="M1859 1508 L2084 1733 L2084 1749 L1859 1524 Z"/><path class="sv5" d="M1859 1508 L2084 1733 L2084 1749 L1859 1524 Z" /></g><g class="o"><path transform="translate(7,14)" class="S ssv" d="M1162 1921 L1253 1830 L1253 1926 L1162 2017 Z"/><path class="sv7" d="M1162 1921 L1253 1830 L1253 1926 L1162 2017 Z" /></g><g class="o"><path transform="translate(8,16)" class="S sfv" d="M1579 1449 L1375 1653 L1375 1781 L1579 1577 Z"/><path class="fv1" d="M1579 1449 L1375 1653 L1375 1781 L1579 1577 Z" /></g><g class="o"><path transform="translate(5,10)" class="S sfh" d="M1192 1624 L946 1378 L966 1378 L1212 1624 Z"/><path class="fh2" d="M1192 1624 L946 1378 L966 1378 L1212 1624 Z" /></g><g class="o"><path transform="translate(2,4)" class="S sfv" d="M1122 1254 L932 1064 L932 1076 L1122 1266 Z"/><path class="fv6" d="M1122 1254 L932 1064 L932 1076 L1122 1266 Z" /></g><g class="o"><path transform="translate(8,16)" class="S sfh" d="M1395 1502 L1238 1659 L1260 1659 L1417 1502 Z"/><path class="fh5" d="M1395 1502 L1238 1659 L1260 1659 L1417 1502 Z" /></g><g class="o"><path transform="translate(4,8)" class="S ssv" d="M1287 1897 L1094 1704 L1094 1722 L1287 1915 Z"/><path class="sv7" d="M1287 1897 L1094 1704 L1094 1722 L1287 1915 Z" /></g><g class="o"><path transform="translate(7,14)" class="S sfv" d="M1279 1819 L1095 1635 L1095 1657 L1279 1841 Z"/><path class="fv2" d="M1279 1819 L1095 1635 L1095 1657 L1279 1841 Z" /></g><g class="o"><path transform="translate(6,12)" class="S sfh" d="M1894 1591 L1762 1459 L1842 1459 L1974 1591 Z"/><path class="fh4" d="M1894 1591 L1762 1459 L1842 1459 L1974 1591 Z" /></g><g class="o"><path transform="translate(4,8)" class="S sfh" d="M1947 2025 L2014 2092 L2024 2092 L1957 2025 Z"/><path class="fh1" d="M1947 2025 L2014 2092 L2024 2092 L1957 2025 Z" /></g><g class="o"><path transform="translate(7,14)" class="S sfv" d="M1961 1962 L1722 2201 L1722 2217 L1961 1978 Z"/><path class="fv6" d="M1961 1962 L1722 2201 L1722 2217 L1961 1978 Z" /></g><g class="o"><path transform="translate(3,6)" class="S sf" d="M1394 1474 L1085 1165 L1101 1165 L1410 1474 Z"/><path class="f7" d="M1394 1474 L1085 1165 L1101 1165 L1410 1474 Z" /></g><g class="o"><path transform="translate(5,10)" class="S sfh" d="M1327 1719 L1536 1928 L1556 1928 L1347 1719 Z"/><path class="fh4" d="M1327 1719 L1536 1928 L1556 1928 L1347 1719 Z" /></g><g class="o"><path transform="translate(9,18)" class="S ssv" d="M1881 1910 L2034 2063 L2034 2093 L1881 1940 Z"/><path class="sv3" d="M1881 1910 L2034 2063 L2034 2093 L1881 1940 Z" /></g><g class="o"><path transform="translate(4,8)" class="S ssh" d="M1922 1247 L2423 746 L2433 746 L1932 1247 Z"/><path class="sh5" d="M1922 1247 L2423 746 L2433 746 L1932 1247 Z" /></g><g class="o"><path transform="translate(9,18)" class="S sfv" d="M1766 1219 L1952 1033 L1952 1067 L1766 1253 Z"/><path class="fv3" d="M1766 1219 L1952 1033 L1952 1067 L1766 1253 Z" /></g><g class="o"><path transform="translate(3,6)" class="S sfh" d="M1975 2005 L2203 2233 L2237 2233 L2009 2005 Z"/><path class="fh6" d="M1975 2005 L2203 2233 L2237 2233 L2009 2005 Z" /></g><g class="o"><path transform="translate(8,16)" class="S sf" d="M1939 1318 L2068 1189 L2068 1199 L1939 1328 Z"/><path class="f4" d="M1939 1318 L2068 1189 L2068 1199 L1939 1328 Z" /></g><g class="o"><path transform="translate(2,4)" class="S ssv" d="M1611 2013 L903 1305 L903 1327 L1611 2035 Z"/><path class="sv7" d="M1611 2013 L903 1305 L903 1327 L1611 2035 Z" /></g><g class="o"><path transform="translate(9,18)" class="S sfv" d="M1449 1099 L1397 1047 L1397 1055 L1449 1107 Z"/><path class="fv5" d="M1449 1099 L1397 1047 L1397 1055 L1449 1107 Z" /></g><g class="o"><path transform="translate(9,18)" class="S sfh" d="M1245 1696 L1458 1909 L1498 1909 L1285 1696 Z"/><path class="fh7" d="M1245 1696 L1458 1909 L1498 1909 L1285 1696 Z" /></g><g class="o"><path transform="translate(3,6)" class="S sfv" d="M958 1583 L882 1659 L882 1673 L958 1597 Z"/><path class="fv7" d="M958 1583 L882 1659 L882 1673 L958 1597 Z" /></g><g class="o"><path transform="translate(5,10)" class="S ssv" d="M1743 1639 L1849 1533 L1849 1661 L1743 1767 Z"/><path class="sv5" d="M1743 1639 L1849 1533 L1849 1661 L1743 1767 Z" /></g><g class="o"><path transform="translate(5,10)" class="S sf" d="M1896 1090 L2181 1375 L2181 1391 L1896 1106 Z"/><path class="f5" d="M1896 1090 L2181 1375 L2181 1391 L1896 1106 Z" /></g><g class="o"><path transform="translate(8,16)" class="S sf" d="M1076 1143 L844 911 L980 911 L1212 1143 Z"/><path class="f5" d="M1076 1143 L844 911 L980 911 L1212 1143 Z" /></g><g class="o"><path transform="translate(4,8)" class="S sfh" d="M1697 1977 L1836 1838 L1844 1838 L1705 1977 Z"/><path class="fh6" d="M1697 1977 L1836 1838 L1844 1838 L1705 1977 Z" /></g><g class="o"><path transform="translate(4,8)" class="S ssh" d="M1571 1284 L1768 1481 L1804 1481 L1607 1284 Z"/><path class="sh2" d="M1571 1284 L1768 1481 L1804 1481 L1607 1284 Z" /></g><g class="o"><path transform="translate(9,18)" class="S sfv" d="M1044 2042 L854 1852 L854 1866 L1044 2056 Z"/><path class="fv2" d="M1044 2042 L854 1852 L854 1866 L1044 2056 Z" /></g><g class="o"><path transform="translate(5,10)" class="S sfv" d="M2022 1422 L1971 1473 L1971 1625 L2022 1574 Z"/><path class="fv5" d="M2022 1422 L1971 1473 L1971 1625 L2022 1574 Z" /></g><g class="o"><path transform="translate(6,12)" class="S sfh" d="M1159 2015 L1097 2077 L1169 2077 L1231 2015 Z"/><path class="fh1" d="M1159 2015 L1097 2077 L1169 2077 L1231 2015 Z" /></g><g class="o"><path transform="translate(9,18)" class="S sfv" d="M1553 1018 L1043 1528 L1043 1560 L1553 1050 Z"/><path class="fv7" d="M1553 1018 L1043 1528 L1043 1560 L1553 1050 Z" /></g><g class="o"><path transform="translate(9,18)" class="S sfv" d="M1259 1603 L1415 1759 L1415 1781 L1259 1625 Z"/><path class="fv5" d="M1259 1603 L1415 1759 L1415 1781 L1259 1625 Z" /></g><g class="o"><path transform="translate(4,8)" class="S sf" d="M1582 1511 L1727 1656 L1751 1656 L1606 1511 Z"/><path class="f5" d="M1582 1511 L1727 1656 L1751 1656 L1606 1511 Z" /></g><g class="o"><path transform="translate(8,16)" class="S sfv" d="M1983 973 L1827 817 L1827 855 L1983 1011 Z"/><path class="fv7" d="M1983 973 L1827 817 L1827 855 L1983 1011 Z" /></g><g class="o"><path transform="translate(3,6)" class="S sfh" d="M1426 1345 L1571 1490 L1601 1490 L1456 1345 Z"/><path class="fh6" d="M1426 1345 L1571 1490 L1601 1490 L1456 1345 Z" /></g><g class="o"><path transform="translate(6,12)" class="S sfh" d="M1512 1192 L1351 1353 L1373 1353 L1534 1192 Z"/><path class="fh5" d="M1512 1192 L1351 1353 L1373 1353 L1534 1192 Z" /></g><g class="o"><path transform="translate(4,8)" class="S sf" d="M1355 1661 L1541 1475 L1577 1475 L1391 1661 Z"/><path class="f7" d="M1355 1661 L1541 1475 L1577 1475 L1391 1661 Z" /></g><g class="o"><path transform="translate(4,8)" class="S ssv" d="M1010 1627 L1232 1405 L1232 1423 L1010 1645 Z"/><path class="sv2" d="M1010 1627 L1232 1405 L1232 1423 L1010 1645 Z" /></g><g class="o"><path transform="translate(9,18)" class="S sf" d="M1230 1692 L1420 1502 L1454 1502 L1264 1692 Z"/><path class="f5" d="M1230 1692 L1420 1502 L1454 1502 L1264 1692 Z" /></g><g class="o"><path transform="translate(7,14)" class="S sfv" d="M1709 1712 L1543 1546 L1543 1572 L1709 1738 Z"/><path class="fv3" d="M1709 1712 L1543 1546 L1543 1572 L1709 1738 Z" /></g><g class="o"><path transform="translate(6,12)" class="S sfv" d="M2018 1820 L1906 1708 L1906 1740 L2018 1852 Z"/><path class="fv6" d="M2018 1820 L1906 1708 L1906 1740 L2018 1852 Z" /></g><g class="o"><path transform="translate(8,16)" class="S ssh" d="M1645 1874 L1870 2099 L1896 2099 L1671 1874 Z"/><path class="sh7" d="M1645 1874 L1870 2099 L1896 2099 L1671 1874 Z" /></g><g class="o"><path transform="translate(2,4)" class="S sfv" d="M1925 1334 L2138 1547 L2138 1561 L1925 1348 Z"/><path class="fv5" d="M1925 1334 L2138 1547 L2138 1561 L1925 1348 Z" /></g><g class="o"><path transform="translate(9,18)" class="S sfh" d="M1982 1542 L2279 1245 L2303 1245 L2006 1542 Z"/><path class="fh7" d="M1982 1542 L2279 1245 L2303 1245 L2006 1542 Z" /></g><g class="o"><path transform="translate(7,14)" class="S sf" d="M2014 1903 L2569 1348 L2569 1396 L2014 1951 Z"/><path class="f5" d="M2014 1903 L2569 1348 L2569 1396 L2014 1951 Z" /></g><g class="o"><path transform="translate(8,16)" class="S ssh" d="M2003 1397 L2244 1638 L2270 1638 L2029 1397 Z"/><path class="sh6" d="M2003 1397 L2244 1638 L2270 1638 L2029 1397 Z" /></g><g class="o"><path transform="translate(2,4)" class="S ssh" d="M1296 2024 L1349 2077 L1363 2077 L1310 2024 Z"/><path class="sh7" d="M1296 2024 L1349 2077 L1363 2077 L1310 2024 Z" /></g><g class="o"><path transform="translate(9,18)" class="S sfv" d="M1375 1921 L1280 1826 L1280 1844 L1375 1939 Z"/><path class="fv2" d="M1375 1921 L1280 1826 L1280 1844 L1375 1939 Z" /></g><g class="o"><path transform="translate(8,16)" class="S ssv" d="M1327 1925 L1126 1724 L1126 1758 L1327 1959 Z"/><path class="sv2" d="M1327 1925 L1126 1724 L1126 1758 L1327 1959 Z" /></g><g class="o"><path transform="translate(7,14)" class="S sfh" d="M1501 1619 L1657 1775 L1769 1775 L1613 1619 Z"/><path class="fh4" d="M1501 1619 L1657 1775 L1769 1775 L1613 1619 Z" /></g><g class="o"><path transform="translate(4,8)" class="S sfv" d="M1204 1060 L883 1381 L883 1405 L1204 1084 Z"/><path class="fv6" d="M1204 1060 L883 1381 L883 1405 L1204 1084 Z" /></g><g class="o"><path transform="translate(8,16)" class="S ssv" d="M1502 1878 L971 1347 L971 1359 L1502 1890 Z"/><path class="sv7" d="M1502 1878 L971 1347 L971 1359 L1502 1890 Z" /></g><g class="o"><path transform="translate(4,8)" class="S sfv" d="M1504 1474 L1075 1903 L1075 1923 L1504 1494 Z"/><path class="fv6" d="M1504 1474 L1075 1903 L1075 1923 L1504 1494 Z" /></g><g class="o"><path transform="translate(5,10)" class="S sfv" d="M1306 2002 L1117 2191 L1117 2211 L1306 2022 Z"/><path class="fv2" d="M1306 2002 L1117 2191 L1117 2211 L1306 2022 Z" /></g><g class="o"><path transform="translate(8,16)" class="S ssv" d="M1263 1755 L1863 1155 L1863 1165 L1263 1765 Z"/><path class="sv5" d="M1263 1755 L1863 1155 L1863 1165 L1263 1765 Z" /></g><g class="o"><path transform="translate(7,14)" class="S sfv" d="M1387 1156 L1629 1398 L1629 1424 L1387 1182 Z"/><path class="fv4" d="M1387 1156 L1629 1398 L1629 1424 L1387 1182 Z" /></g><g class="o"><path transform="translate(6,12)" class="S sfv" d="M1898 1837 L1772 1963 L1772 1983 L1898 1857 Z"/><path class="fv7" d="M1898 1837 L1772 1963 L1772 1983 L1898 1857 Z" /></g><g class="o"><path transform="translate(2,4)" class="S sf" d="M1480 1014 L1646 1180 L1646 1208 L1480 1042 Z"/><path class="f3" d="M1480 1014 L1646 1180 L1646 1208 L1480 1042 Z" /></g><g class="o"><path transform="translate(6,12)" class="S sfv" d="M1239 1171 L1388 1320 L1388 1348 L1239 1199 Z"/><path class="fv4" d="M1239 1171 L1388 1320 L1388 1348 L1239 1199 Z" /></g><g class="o"><path transform="translate(3,6)" class="S sfh" d="M1682 1849 L1450 1617 L1472 1617 L1704 1849 Z"/><path class="fh6" d="M1682 1849 L1450 1617 L1472 1617 L1704 1849 Z" /></g><g class="o"><path transform="translate(9,18)" class="S sfh" d="M1272 1974 L1174 2072 L1212 2072 L1310 1974 Z"/><path class="fh6" d="M1272 1974 L1174 2072 L1212 2072 L1310 1974 Z" /></g><g class="o"><path transform="translate(7,14)" class="S ss" d="M1380 1526 L1186 1332 L1224 1332 L1418 1526 Z"/><path class="s6" d="M1380 1526 L1186 1332 L1224 1332 L1418 1526 Z" /></g><g class="o"><path transform="translate(2,4)" class="S sfv" d="M1154 1100 L1298 956 L1298 986 L1154 1130 Z"/><path class="fv3" d="M1154 1100 L1298 956 L1298 986 L1154 1130 Z" /></g><g class="o"><path transform="translate(6,12)" class="S sfv" d="M1720 1404 L1534 1218 L1534 1254 L1720 1440 Z"/><path class="fv2" d="M1720 1404 L1534 1218 L1534 1254 L1720 1440 Z" /></g><g class="o"><path transform="translate(7,14)" class="S sfv" d="M1067 1789 L975 1697 L975 1729 L1067 1821 Z"/><path class="fv1" d="M1067 1789 L975 1697 L975 1729 L1067 1821 Z" /></g><g class="o"><path transform="translate(5,10)" class="S ssv" d="M1417 1430 L1342 1505 L1342 1525 L1417 1450 Z"/><path class="sv6" d="M1417 1430 L1342 1505 L1342 1525 L1417 1450 Z" /></g><g class="o"><path transform="translate(8,16)" class="S sfv" d="M1936 1237 L1760 1061 L1760 1095 L1936 1271 Z"/><path class="fv4" d="M1936 1237 L1760 1061 L1760 1095 L1936 1271 Z" /></g><g class="o"><path transform="translate(9,18)" class="S sf" d="M1960 1569 L1715 1324 L1715 1476 L1960 1721 Z"/><path class="f1" d="M1960 1569 L1715 1324 L1715 1476 L1960 1721 Z" /></g><g class="o"><path transform="translate(8,16)" class="S sfv" d="M1456 1682 L1351 1577 L1351 1597 L1456 1702 Z"/><path class="fv6" d="M1456 1682 L1351 1577 L1351 1597 L1456 1702 Z" /></g><g class="o"><path transform="translate(6,12)" class="S sfv" d="M1574 991 L1456 1109 L1456 1213 L1574 1095 Z"/><path class="fv1" d="M1574 991 L1456 1109 L1456 1213 L1574 1095 Z" /></g><g class="o"><path transform="translate(7,14)" class="S ssh" d="M1874 1923 L1655 1704 L1687 1704 L1906 1923 Z"/><path class="sh6" d="M1874 1923 L1655 1704 L1687 1704 L1906 1923 Z" /></g><g class="o"><path transform="translate(5,10)" class="S ss" d="M1729 2014 L1667 1952 L1667 1982 L1729 2044 Z"/><path class="s2" d="M1729 2014 L1667 1952 L1667 1982 L1729 2044 Z" /></g><g class="o"><path transform="translate(6,12)" class="S ssv" d="M1112 1868 L1335 1645 L1335 1661 L1112 1884 Z"/><path class="sv2" d="M1112 1868 L1335 1645 L1335 1661 L1112 1884 Z" /></g><g class="o"><path transform="translate(9,18)" class="S ss" d="M1544 1507 L2270 2233 L2270 2337 L1544 1611 Z"/><path class="s5" d="M1544 1507 L2270 2233 L2270 2337 L1544 1611 Z" /></g><g class="o"><path transform="translate(9,18)" class="S sfh" d="M1364 1373 L1306 1431 L1318 1431 L1376 1373 Z"/><path class="fh1" d="M1364 1373 L1306 1431 L1318 1431 L1376 1373 Z" /></g><g class="o"><path transform="translate(6,12)" class="S sf" d="M1768 1996 L1591 2173 L1591 2211 L1768 2034 Z"/><path class="f2" d="M1768 1996 L1591 2173 L1591 2211 L1768 2034 Z" /></g><g class="o"><path transform="translate(7,14)" class="S sfv" d="M1384 1771 L1312 1699 L1312 1719 L1384 1791 Z"/><path class="fv3" d="M1384 1771 L1312 1699 L1312 1719 L1384 1791 Z" /></g><g class="o"><path transform="translate(7,14)" class="S ssh" d="M975 1269 L870 1164 L880 1164 L985 1269 Z"/><path class="sh4" d="M975 1269 L870 1164 L880 1164 L985 1269 Z" /></g><g class="o"><path transform="translate(6,12)" class="S ssv" d="M1317 996 L1165 844 L1165 878 L1317 1030 Z"/><path class="sv1" d="M1317 996 L1165 844 L1165 878 L1317 1030 Z" /></g><g class="o"><path transform="translate(4,8)" class="S sfh" d="M1308 1135 L1062 1381 L1096 1381 L1342 1135 Z"/><path class="fh5" d="M1308 1135 L1062 1381 L1096 1381 L1342 1135 Z" /></g><g class="o"><path transform="translate(3,6)" class="S sfh" d="M1600 1072 L1802 870 L1818 870 L1616 1072 Z"/><path class="fh7" d="M1600 1072 L1802 870 L1818 870 L1616 1072 Z" /></g><g class="o"><path transform="translate(6,12)" class="S sfv" d="M1732 1711 L1975 1468 L1975 1494 L1732 1737 Z"/><path class="fv6" d="M1732 1711 L1975 1468 L1975 1494 L1732 1737 Z" /></g><g class="o"><path transform="translate(3,6)" class="S sfv" d="M1748 1324 L1668 1404 L1668 1420 L1748 1340 Z"/><path class="fv7" d="M1748 1324 L1668 1404 L1668 1420 L1748 1340 Z" /></g><g class="o"><path transform="translate(7,14)" class="S sfv" d="M1058 1669 L978 1589 L978 1619 L1058 1699 Z"/><path class="fv1" d="M1058 1669 L978 1589 L978 1619 L1058 1699 Z" /></g><g class="o"><path transform="translate(5,10)" class="S sfh" d="M1324 1280 L1376 1332 L1520 1332 L1468 1280 Z"/><path class="fh6" d="M1324 1280 L1376 1332 L1520 1332 L1468 1280 Z" /></g><g class="o"><path transform="translate(4,8)" class="S ssv" d="M1829 1129 L1472 772 L1472 784 L1829 1141 Z"/><path class="sv5" d="M1829 1129 L1472 772 L1472 784 L1829 1141 Z" /></g><g class="o"><path transform="translate(2,4)" class="S sfv" d="M1012 1450 L343 2119 L343 2139 L1012 1470 Z"/><path class="fv4" d="M1012 1450 L343 2119 L343 2139 L1012 1470 Z" /></g><g class="o"><path transform="translate(6,12)" class="S ssh" d="M1760 1541 L1951 1350 L2007 1350 L1816 1541 Z"/><path class="sh3" d="M1760 1541 L1951 1350 L2007 1350 L1816 1541 Z" /></g><g class="o"><path transform="translate(9,18)" class="S sf" d="M1191 1926 L1037 1772 L1075 1772 L1229 1926 Z"/><path class="f6" d="M1191 1926 L1037 1772 L1075 1772 L1229 1926 Z" /></g><g class="o"><path transform="translate(5,10)" class="S ssv" d="M1354 1571 L1593 1810 L1593 1836 L1354 1597 Z"/><path class="sv2" d="M1354 1571 L1593 1810 L1593 1836 L1354 1597 Z" /></g><g class="o"><path transform="translate(8,16)" class="S sfh" d="M1577 991 L1426 840 L1458 840 L1609 991 Z"/><path class="fh2" d="M1577 991 L1426 840 L1458 840 L1609 991 Z" /></g><g class="o"><path transform="translate(4,8)" class="S sfh" d="M1216 1803 L1447 1572 L1479 1572 L1248 1803 Z"/><path class="fh7" d="M1216 1803 L1447 1572 L1479 1572 L1248 1803 Z" /></g><g class="o"><path transform="translate(4,8)" class="S sfh" d="M1791 1224 L2006 1009 L2094 1009 L1879 1224 Z"/><path class="fh2" d="M1791 1224 L2006 1009 L2094 1009 L1879 1224 Z" /></g><g class="o"><path transform="translate(5,10)" class="S sfh" d="M1770 1427 L2106 1091 L2114 1091 L1778 1427 Z"/><path class="fh5" d="M1770 1427 L2106 1091 L2114 1091 L1778 1427 Z" /></g><g class="o"><path transform="translate(6,12)" class="S sfh" d="M1076 1351 L870 1557 L886 1557 L1092 1351 Z"/><path class="fh1" d="M1076 1351 L870 1557 L886 1557 L1092 1351 Z" /></g><g class="o"><path transform="translate(9,18)" class="S ssv" d="M1333 1579 L1127 1373 L1127 1387 L1333 1593 Z"/><path class="sv4" d="M1333 1579 L1127 1373 L1127 1387 L1333 1593 Z" /></g><g class="o"><path transform="translate(7,14)" class="S sfh" d="M1249 1897 L1322 1824 L1340 1824 L1267 1897 Z"/><path class="fh5" d="M1249 1897 L1322 1824 L1340 1824 L1267 1897 Z" /></g><g class="o"><path transform="translate(4,8)" class="S sfv" d="M1926 1632 L1852 1706 L1852 1732 L1926 1658 Z"/><path class="fv4" d="M1926 1632 L1852 1706 L1852 1732 L1926 1658 Z" /></g><g class="o"><path transform="translate(5,10)" class="S sfv" d="M1251 1449 L1027 1225 L1027 1313 L1251 1537 Z"/><path class="fv2" d="M1251 1449 L1027 1225 L1027 1313 L1251 1537 Z" /></g><g class="o"><path transform="translate(4,8)" class="S sf" d="M1955 1251 L2177 1473 L2177 1495 L1955 1273 Z"/><path class="f2" d="M1955 1251 L2177 1473 L2177 1495 L1955 1273 Z" /></g><g class="o"><path transform="translate(6,12)" class="S sfv" d="M2009 1392 L2570 831 L2570 871 L2009 1432 Z"/><path class="fv2" d="M2009 1392 L2570 831 L2570 871 L2009 1432 Z" /></g><g class="o"><path transform="translate(9,18)" class="S ssv" d="M952 1771 L1345 1378 L1345 1394 L952 1787 Z"/><path class="sv4" d="M952 1771 L1345 1378 L1345 1394 L952 1787 Z" /></g><g class="o"><path transform="translate(4,8)" class="S sf" d="M1265 982 L1197 914 L1197 934 L1265 1002 Z"/><path class="f7" d="M1265 982 L1197 914 L1197 934 L1265 1002 Z" /></g><g class="o"><path transform="translate(5,10)" class="S sfv" d="M1178 1286 L1124 1340 L1124 1360 L1178 1306 Z"/><path class="fv6" d="M1178 1286 L1124 1340 L1124 1360 L1178 1306 Z" /></g><g class="o"><path transform="translate(9,18)" class="S ss" d="M1153 2042 L1249 1946 L1401 1946 L1305 2042 Z"/><path class="s1" d="M1153 2042 L1249 1946 L1401 1946 L1305 2042 Z" /></g><g class="o"><path transform="translate(7,14)" class="S sfh" d="M1337 1291 L1518 1110 L1550 1110 L1369 1291 Z"/><path class="fh5" d="M1337 1291 L1518 1110 L1550 1110 L1369 1291 Z" /></g><g class="o"><path transform="translate(4,8)" class="S ssh" d="M1877 1520 L1806 1449 L1826 1449 L1897 1520 Z"/><path class="sh4" d="M1877 1520 L1806 1449 L1826 1449 L1897 1520 Z" /></g></g><use href="#slashes" transform-origin="1500 1500" transform="rotate(180) scale(2)"/></g><rect x="1080" y="1080" width="840" height="840" stroke-width="10" class="o f7" /><use href="#slashes" transform-origin="1500 1500" transform="scale(.7)"/><use href="#slashes" transform-origin="1500 1500" transform="rotate(180) scale(1.3)"/></svg>