<svg xmlns="http://www.w3.org/2000/svg" viewBox="750 750 1500 1500"><style>/*<![CDATA[*/svg{background:rgb(223,229,229);max-width:100vw;max-height:100vh}path{stroke-width:4}.o{opacity:.75}.S{opacity:.4}.sf{stroke:none;fill:black}.sfh{stroke:none;fill:url(#hs)}.sfv{stroke:none;fill:url(#vs)}.ss{stroke:black;fill:none}.ssh{stroke:url(#hs);fill:none}.ssv{stroke:url(#vs);fill:none}.s1{fill:none;stroke:rgb(151,21,31)}.f1{stroke:none;fill:rgb(151,21,31)}.sh1{fill:none;stroke:url(#h1)}.fh1{stroke:none;fill:url(#h1)}.sv1{fill:none;stroke:url(#v1)}.fv1{stroke:none;fill:url(#v1)}.s2{fill:none;stroke:rgb(34,34,34)}.f2{stroke:none;fill:rgb(34,34,34)}.sh2{fill:none;stroke:url(#h2)}.fh2{stroke:none;fill:url(#h2)}.sv2{fill:none;stroke:url(#v2)}.fv2{stroke:none;fill:url(#v2)}.s3{fill:none;stroke:rgb(1,59,68)}.f3{stroke:none;fill:rgb(1,59,68)}.sh3{fill:none;stroke:url(#h3)}.fh3{stroke:none;fill:url(#h3)}.sv3{fill:none;stroke:url(#v3)}.fv3{stroke:none;fill:url(#v3)}.s4{fill:none;stroke:rgb(23,108,106)}.f4{stroke:none;fill:rgb(23,108,106)}.sh4{fill:none;stroke:url(#h4)}.fh4{stroke:none;fill:url(#h4)}.sv4{fill:none;stroke:url(#v4)}.fv4{stroke:none;fill:url(#v4)}.s5{fill:none;stroke:rgb(33,34,32)}.f5{stroke:none;fill:rgb(33,34,32)}.sh5{fill:none;stroke:url(#h5)}.fh5{stroke:none;fill:url(#h5)}.sv5{fill:none;stroke:url(#v5)}.fv5{stroke:none;fill:url(#v5)}.s6{fill:none;stroke:rgb(255,255,255)}.f6{stroke:none;fill:rgb(255,255,255)}.sh6{fill:none;stroke:url(#h6)}.fh6{stroke:none;fill:url(#h6)}.sv6{fill:none;stroke:url(#v6)}.fv6{stroke:none;fill:url(#v6)}.s7{fill:none;stroke:rgb(255,0,0)}.f7{stroke:none;fill:rgb(255,0,0)}.sh7{fill:none;stroke:url(#h7)}.fh7{stroke:none;fill:url(#h7)}.sv7{fill:none;stroke:url(#v7)}.fv7{stroke:none;fill:url(#v7)}/*]]>*/</style><defs><linearGradient gradientTransform="rotate(90)" id="hs"><stop offset="20%" stop-color="#000" /><stop offset="95%" stop-color="rgba(0, 0, 0, 0)" /></linearGradient><linearGradient id="vs"><stop offset="20%" stop-color="#000" /><stop offset="95%" stop-color="rgba(0, 0, 0, 0)" /></linearGradient><linearGradient gradientTransform="rotate(90)" id="h1"><stop offset="20%" stop-color="rgba(151,21,31,1)" /><stop offset="95%" stop-color="rgba(151,21,31,0)" /></linearGradient><linearGradient id="v1"><stop offset="20%" stop-color="rgba(151,21,31,1)" /><stop offset="95%" stop-color="rgba(151,21,31,0)" /></linearGradient><linearGradient gradientTransform="rotate(90)" id="h2"><stop offset="20%" stop-color="rgba(34,34,34,1)" /><stop offset="95%" stop-color="rgba(34,34,34,0)" /></linearGradient><linearGradient id="v2"><stop offset="20%" stop-color="rgba(34,34,34,1)" /><stop offset="95%" stop-color="rgba(34,34,34,0)" /></linearGradient><linearGradient gradientTransform="rotate(90)" id="h3"><stop offset="20%" stop-color="rgba(1,59,68,1)" /><stop offset="95%" stop-color="rgba(1,59,68,0)" /></linearGradient><linearGradient id="v3"><stop offset="20%" stop-color="rgba(1,59,68,1)" /><stop offset="95%" stop-color="rgba(1,59,68,0)" /></linearGradient><linearGradient gradientTransform="rotate(90)" id="h4"><stop offset="20%" stop-color="rgba(23,108,106,1)" /><stop offset="95%" stop-color="rgba(23,108,106,0)" /></linearGradient><linearGradient id="v4"><stop offset="20%" stop-color="rgba(23,108,106,1)" /><stop offset="95%" stop-color="rgba(23,108,106,0)" /></linearGradient><linearGradient gradientTransform="rotate(90)" id="h5"><stop offset="20%" stop-color="rgba(33,34,32,1)" /><stop offset="95%" stop-color="rgba(33,34,32,0)" /></linearGradient><linearGradient id="v5"><stop offset="20%" stop-color="rgba(33,34,32,1)" /><stop offset="95%" stop-color="rgba(33,34,32,0)" /></linearGradient><linearGradient gradientTransform="rotate(90)" id="h6"><stop offset="20%" stop-color="rgba(255,255,255,1)" /><stop offset="95%" stop-color="rgba(255,255,255,0)" /></linearGradient><linearGradient id="v6"><stop offset="20%" stop-color="rgba(255,255,255,1)" /><stop offset="95%" stop-color="rgba(255,255,255,0)" /></linearGradient><linearGradient gradientTransform="rotate(90)" id="h7"><stop offset="20%" stop-color="rgba(255,0,0,1)" /><stop offset="95%" stop-color="rgba(255,0,0,0)" /></linearGradient><linearGradient id="v7"><stop offset="20%" stop-color="rgba(255,0,0,1)" /><stop offset="95%" stop-color="rgba(255,0,0,0)" /></linearGradient></defs><g transform-origin="1500 1500" transform="scale(2)" opacity=".2"><g id="slashes"><g class="o"><path transform="translate(7,14)" class="S sfv" d="M1457 1136 L905 584 L905 728 L1457 1280 Z"/><path class="fv2" d="M1457 1136 L905 584 L905 728 L1457 1280 Z" /></g><g class="o"><path transform="translate(2,4)" class="S sfh" d="M1870 1447 L1702 1279 L1730 1279 L1898 1447 Z"/><path class="fh1" d="M1870 1447 L1702 1279 L1730 1279 L1898 1447 Z" /></g><g class="o"><path transform="translate(5,10)" class="S sfh" d="M1922 1107 L2303 726 L2323 726 L1942 1107 Z"/><path class="fh2" d="M1922 1107 L2303 726 L2323 726 L1942 1107 Z" /></g><g class="o"><path transform="translate(3,6)" class="S sfv" d="M1857 1827 L1911 1773 L1911 1791 L1857 1845 Z"/><path class="fv7" d="M1857 1827 L1911 1773 L1911 1791 L1857 1845 Z" /></g><g class="o"><path transform="translate(3,6)" class="S sfh" d="M1359 1974 L1541 1792 L1575 1792 L1393 1974 Z"/><path class="fh1" d="M1359 1974 L1541 1792 L1575 1792 L1393 1974 Z" /></g><g class="o"><path transform="translate(2,4)" class="S sfh" d="M1783 1062 L2009 836 L2025 836 L1799 1062 Z"/><path class="fh3" d="M1783 1062 L2009 836 L2025 836 L1799 1062 Z" /></g><g class="o"><path transform="translate(7,14)" class="S sfv" d="M1685 968 L1496 779 L1496 797 L1685 986 Z"/><path class="fv4" d="M1685 968 L1496 779 L1496 797 L1685 986 Z" /></g><g class="o"><path transform="translate(8,16)" class="S sfv" d="M1484 1007 L1319 842 L1319 850 L1484 1015 Z"/><path class="fv3" d="M1484 1007 L1319 842 L1319 850 L1484 1015 Z" /></g><g class="o"><path transform="translate(3,6)" class="S sfv" d="M1800 1689 L1573 1462 L1573 1486 L1800 1713 Z"/><path class="fv4" d="M1800 1689 L1573 1462 L1573 1486 L1800 1713 Z" /></g><g class="o"><path transform="translate(2,4)" class="S sfh" d="M1987 2033 L2133 1887 L2149 1887 L2003 2033 Z"/><path class="fh1" d="M1987 2033 L2133 1887 L2149 1887 L2003 2033 Z" /></g><g class="o"><path transform="translate(4,8)" class="S sfh" d="M960 1313 L1199 1074 L1233 1074 L994 1313 Z"/><path class="fh6" d="M960 1313 L1199 1074 L1233 1074 L994 1313 Z" /></g><g class="o"><path transform="translate(8,16)" class="S sfv" d="M1980 1778 L2169 1589 L2169 1607 L1980 1796 Z"/><path class="fv3" d="M1980 1778 L2169 1589 L2169 1607 L1980 1796 Z" /></g><g class="o"><path transform="translate(3,6)" class="S sfh" d="M1863 1763 L1677 1577 L1703 1577 L1889 1763 Z"/><path class="fh4" d="M1863 1763 L1677 1577 L1703 1577 L1889 1763 Z" /></g><g class="o"><path transform="translate(4,8)" class="S sfv" d="M1052 1738 L920 1606 L920 1638 L1052 1770 Z"/><path class="fv4" d="M1052 1738 L920 1606 L920 1638 L1052 1770 Z" /></g><g class="o"><path transform="translate(2,4)" class="S sfh" d="M1804 1575 L2024 1355 L2050 1355 L1830 1575 Z"/><path class="fh2" d="M1804 1575 L2024 1355 L2050 1355 L1830 1575 Z" /></g><g class="o"><path transform="translate(7,14)" class="S ssh" d="M1120 1775 L1213 1682 L1243 1682 L1150 1775 Z"/><path class="sh4" d="M1120 1775 L1213 1682 L1243 1682 L1150 1775 Z" /></g><g class="o"><path transform="translate(2,4)" class="S ssv" d="M1348 1873 L1579 1642 L1579 1656 L1348 1887 Z"/><path class="sv1" d="M1348 1873 L1579 1642 L1579 1656 L1348 1887 Z" /></g><g class="o"><path transform="translate(8,16)" class="S sfh" d="M1288 1944 L1027 1683 L1047 1683 L1308 1944 Z"/><path class="fh1" d="M1288 1944 L1027 1683 L1047 1683 L1308 1944 Z" /></g><g class="o"><path transform="translate(5,10)" class="S ssh" d="M1955 1389 L1777 1211 L1795 1211 L1973 1389 Z"/><path class="sh3" d="M1955 1389 L1777 1211 L1795 1211 L1973 1389 Z" /></g><g class="o"><path transform="translate(2,4)" class="S sf" d="M964 1065 L1024 1005 L1036 1005 L976 1065 Z"/><path class="f4" d="M964 1065 L1024 1005 L1036 1005 L976 1065 Z" /></g><g class="o"><path transform="translate(6,12)" class="S sfv" d="M1858 1258 L1956 1160 L1956 1190 L1858 1288 Z"/><path class="fv4" d="M1858 1258 L1956 1160 L1956 1190 L1858 1288 Z" /></g><g class="o"><path transform="translate(5,10)" class="S sfv" d="M1646 1678 L1698 1626 L1698 1662 L1646 1714 Z"/><path class="fv2" d="M1646 1678 L1698 1626 L1698 1662 L1646 1714 Z" /></g><g class="o"><path transform="translate(9,18)" class="S sfv" d="M1160 995 L1235 920 L1235 936 L1160 1011 Z"/><path class="fv2" d="M1160 995 L1235 920 L1235 936 L1160 1011 Z" /></g><g class="o"><path transform="translate(6,12)" class="S sfh" d="M1260 2021 L1192 1953 L1220 1953 L1288 2021 Z"/><path class="fh1" d="M1260 2021 L1192 1953 L1220 1953 L1288 2021 Z" /></g><g class="o"><path transform="translate(4,8)" class="S ssh" d="M2006 1382 L1915 1291 L1935 1291 L2026 1382 Z"/><path class="sh4" d="M2006 1382 L1915 1291 L1935 1291 L2026 1382 Z" /></g><g class="o"><path transform="translate(5,10)" class="S sfh" d="M2024 1218 L1963 1157 L1977 1157 L2038 1218 Z"/><path class="fh4" d="M2024 1218 L1963 1157 L1977 1157 L2038 1218 Z" /></g><g class="o"><path transform="translate(4,8)" class="S sfv" d="M1866 1402 L1942 1326 L1942 1360 L1866 1436 Z"/><path class="fv4" d="M1866 1402 L1942 1326 L1942 1360 L1866 1436 Z" /></g><g class="o"><path transform="translate(5,10)" class="S sfh" d="M1459 968 L1574 853 L1598 853 L1483 968 Z"/><path class="fh4" d="M1459 968 L1574 853 L1598 853 L1483 968 Z" /></g><g class="o"><path transform="translate(6,12)" class="S sfh" d="M1122 972 L941 791 L971 791 L1152 972 Z"/><path class="fh5" d="M1122 972 L941 791 L971 791 L1152 972 Z" /></g><g class="o"><path transform="translate(3,6)" class="S sfv" d="M2003 1429 L2423 1009 L2423 1021 L2003 1441 Z"/><path class="fv2" d="M2003 1429 L2423 1009 L2423 1021 L2003 1441 Z" /></g><g class="o"><path transform="translate(2,4)" class="S sf" d="M1817 1257 L1888 1186 L1888 1196 L1817 1267 Z"/><path class="f2" d="M1817 1257 L1888 1186 L1888 1196 L1817 1267 Z" /></g><g class="o"><path transform="translate(8,16)" class="S sfh" d="M1948 1263 L2102 1109 L2136 1109 L1982 1263 Z"/><path class="fh3" d="M1948 1263 L2102 1109 L2136 1109 L1982 1263 Z" /></g><g class="o"><path transform="translate(5,10)" class="S sfv" d="M1161 1556 L1246 1471 L1246 1483 L1161 1568 Z"/><path class="fv2" d="M1161 1556 L1246 1471 L1246 1483 L1161 1568 Z" /></g><g class="o"><path transform="translate(5,10)" class="S sfh" d="M1876 1580 L1747 1451 L1757 1451 L1886 1580 Z"/><path class="fh7" d="M1876 1580 L1747 1451 L1757 1451 L1886 1580 Z" /></g><g class="o"><path transform="translate(2,4)" class="S sfv" d="M1394 1831 L1313 1750 L1313 1806 L1394 1887 Z"/><path class="fv7" d="M1394 1831 L1313 1750 L1313 1806 L1394 1887 Z" /></g><g class="o"><path transform="translate(7,14)" class="S sfv" d="M1388 1860 L1841 1407 L1841 1417 L1388 1870 Z"/><path class="fv1" d="M1388 1860 L1841 1407 L1841 1417 L1388 1870 Z" /></g><g class="o"><path transform="translate(7,14)" class="S sf" d="M1227 1619 L1034 1426 L1072 1426 L1265 1619 Z"/><path class="f3" d="M1227 1619 L1034 1426 L1072 1426 L1265 1619 Z" /></g><g class="o"><path transform="translate(4,8)" class="S sfv" d="M1676 1124 L1869 931 L1869 955 L1676 1148 Z"/><path class="fv2" d="M1676 1124 L1869 931 L1869 955 L1676 1148 Z" /></g><g class="o"><path transform="translate(5,10)" class="S sfv" d="M1021 1591 L922 1492 L922 1514 L1021 1613 Z"/><path class="fv3" d="M1021 1591 L922 1492 L922 1514 L1021 1613 Z" /></g><g class="o"><path transform="translate(8,16)" class="S ssh" d="M1461 1138 L1597 1002 L1627 1002 L1491 1138 Z"/><path class="sh7" d="M1461 1138 L1597 1002 L1627 1002 L1491 1138 Z" /></g><g class="o"><path transform="translate(6,12)" class="S sfh" d="M1519 1167 L1392 1040 L1472 1040 L1599 1167 Z"/><path class="fh1" d="M1519 1167 L1392 1040 L1472 1040 L1599 1167 Z" /></g><g class="o"><path transform="translate(5,10)" class="S sf" d="M1209 1944 L1457 1696 L1457 1708 L1209 1956 Z"/><path class="f4" d="M1209 1944 L1457 1696 L1457 1708 L1209 1956 Z" /></g><g class="o"><path transform="translate(7,14)" class="S sfv" d="M1367 1341 L1049 1023 L1049 1047 L1367 1365 Z"/><path class="fv4" d="M1367 1341 L1049 1023 L1049 1047 L1367 1365 Z" /></g><g class="o"><path transform="translate(5,10)" class="S sfv" d="M1125 1595 L1022 1492 L1022 1508 L1125 1611 Z"/><path class="fv1" d="M1125 1595 L1022 1492 L1022 1508 L1125 1611 Z" /></g><g class="o"><path transform="translate(7,14)" class="S sf" d="M1897 1744 L2028 1613 L2042 1613 L1911 1744 Z"/><path class="f7" d="M1897 1744 L2028 1613 L2042 1613 L1911 1744 Z" /></g><g class="o"><path transform="translate(7,14)" class="S ssv" d="M1020 1817 L962 1759 L962 1789 L1020 1847 Z"/><path class="sv3" d="M1020 1817 L962 1759 L962 1789 L1020 1847 Z" /></g><g class="o"><path transform="translate(5,10)" class="S sfh" d="M1052 1818 L896 1662 L906 1662 L1062 1818 Z"/><path class="fh2" d="M1052 1818 L896 1662 L906 1662 L1062 1818 Z" /></g><g class="o"><path transform="translate(6,12)" class="S ssv" d="M1685 1489 L2375 799 L2375 833 L1685 1523 Z"/><path class="sv4" d="M1685 1489 L2375 799 L2375 833 L1685 1523 Z" /></g><g class="o"><path transform="translate(6,12)" class="S sf" d="M1027 983 L1089 921 L1089 933 L1027 995 Z"/><path class="f5" d="M1027 983 L1089 921 L1089 933 L1027 995 Z" /></g><g class="o"><path transform="translate(3,6)" class="S sfh" d="M1792 1322 L1873 1241 L1903 1241 L1822 1322 Z"/><path class="fh7" d="M1792 1322 L1873 1241 L1903 1241 L1822 1322 Z" /></g><g class="o"><path transform="translate(2,4)" class="S sfh" d="M952 2033 L1192 1793 L1208 1793 L968 2033 Z"/><path class="fh3" d="M952 2033 L1192 1793 L1208 1793 L968 2033 Z" /></g><g class="o"><path transform="translate(7,14)" class="S sfh" d="M1192 1910 L1130 1848 L1154 1848 L1216 1910 Z"/><path class="fh6" d="M1192 1910 L1130 1848 L1154 1848 L1216 1910 Z" /></g><g class="o"><path transform="translate(5,10)" class="S sfh" d="M1619 1808 L1812 1615 L1824 1615 L1631 1808 Z"/><path class="fh1" d="M1619 1808 L1812 1615 L1824 1615 L1631 1808 Z" /></g><g class="o"><path transform="translate(5,10)" class="S sfh" d="M1156 1651 L915 1410 L947 1410 L1188 1651 Z"/><path class="fh3" d="M1156 1651 L915 1410 L947 1410 L1188 1651 Z" /></g><g class="o"><path transform="translate(6,12)" class="S sf" d="M1136 1162 L1278 1020 L1278 1028 L1136 1170 Z"/><path class="f4" d="M1136 1162 L1278 1020 L1278 1028 L1136 1170 Z" /></g><g class="o"><path transform="translate(3,6)" class="S sfh" d="M1389 1399 L2085 703 L2229 703 L1533 1399 Z"/><path class="fh1" d="M1389 1399 L2085 703 L2229 703 L1533 1399 Z" /></g><g class="o"><path transform="translate(9,18)" class="S sfv" d="M1964 1151 L2145 970 L2145 1098 L1964 1279 Z"/><path class="fv3" d="M1964 1151 L2145 970 L2145 1098 L1964 1279 Z" /></g><g class="o"><path transform="translate(4,8)" class="S ssh" d="M1884 1059 L2034 909 L2042 909 L1892 1059 Z"/><path class="sh3" d="M1884 1059 L2034 909 L2042 909 L1892 1059 Z" /></g><g class="o"><path transform="translate(3,6)" class="S ssv" d="M1119 1176 L651 708 L651 746 L1119 1214 Z"/><path class="sv2" d="M1119 1176 L651 708 L651 746 L1119 1214 Z" /></g><g class="o"><path transform="translate(6,12)" class="S sfv" d="M1992 1187 L2207 972 L2207 1002 L1992 1217 Z"/><path class="fv3" d="M1992 1187 L2207 972 L2207 1002 L1992 1217 Z" /></g><g class="o"><path transform="translate(4,8)" class="S sfh" d="M1335 998 L1549 784 L1597 784 L1383 998 Z"/><path class="fh6" d="M1335 998 L1549 784 L1597 784 L1383 998 Z" /></g><g class="o"><path transform="translate(2,4)" class="S sfh" d="M1454 954 L1697 711 L1707 711 L1464 954 Z"/><path class="fh3" d="M1454 954 L1697 711 L1707 711 L1464 954 Z" /></g><g class="o"><path transform="translate(6,12)" class="S sfv" d="M1908 1925 L1958 1875 L1958 1893 L1908 1943 Z"/><path class="fv5" d="M1908 1925 L1958 1875 L1958 1893 L1908 1943 Z" /></g><g class="o"><path transform="translate(7,14)" class="S sfv" d="M1518 1712 L1461 1655 L1461 1663 L1518 1720 Z"/><path class="fv3" d="M1518 1712 L1461 1655 L1461 1663 L1518 1720 Z" /></g><g class="o"><path transform="translate(2,4)" class="S sfv" d="M1106 1020 L1207 919 L1207 1015 L1106 1116 Z"/><path class="fv3" d="M1106 1020 L1207 919 L1207 1015 L1106 1116 Z" /></g><g class="o"><path transform="translate(6,12)" class="S ssv" d="M1601 1427 L1728 1300 L1728 1314 L1601 1441 Z"/><path class="sv5" d="M1601 1427 L1728 1300 L1728 1314 L1601 1441 Z" /></g><g class="o"><path transform="translate(5,10)" class="S ss" d="M1482 1915 L1659 1738 L1659 1746 L1482 1923 Z"/><path class="s2" d="M1482 1915 L1659 1738 L1659 1746 L1482 1923 Z" /></g><g class="o"><path transform="translate(2,4)" class="S sfv" d="M1127 943 L1223 847 L1223 867 L1127 963 Z"/><path class="fv4" d="M1127 943 L1223 847 L1223 867 L1127 963 Z" /></g><g class="o"><path transform="translate(7,14)" class="S sfv" d="M954 1071 L1118 907 L1118 1027 L954 1191 Z"/><path class="fv4" d="M954 1071 L1118 907 L1118 1027 L954 1191 Z" /></g><g class="o"><path transform="translate(4,8)" class="S sf" d="M1975 1265 L1742 1032 L1762 1032 L1995 1265 Z"/><path class="f3" d="M1975 1265 L1742 1032 L1762 1032 L1995 1265 Z" /></g><g class="o"><path transform="translate(4,8)" class="S sfv" d="M1419 1011 L1875 555 L1875 565 L1419 1021 Z"/><path class="fv4" d="M1419 1011 L1875 555 L1875 565 L1419 1021 Z" /></g><g class="o"><path transform="translate(8,16)" class="S sfv" d="M978 986 L1160 804 L1160 900 L978 1082 Z"/><path class="fv7" d="M978 986 L1160 804 L1160 900 L978 1082 Z" /></g><g class="o"><path transform="translate(6,12)" class="S sf" d="M1811 1096 L1670 955 L1710 955 L1851 1096 Z"/><path class="f6" d="M1811 1096 L1670 955 L1710 955 L1851 1096 Z" /></g><g class="o"><path transform="translate(3,6)" class="S sfv" d="M1353 1113 L702 462 L702 482 L1353 1133 Z"/><path class="fv2" d="M1353 1113 L702 462 L702 482 L1353 1133 Z" /></g><g class="o"><path transform="translate(7,14)" class="S ssh" d="M1953 1520 L1786 1353 L1804 1353 L1971 1520 Z"/><path class="sh7" d="M1953 1520 L1786 1353 L1804 1353 L1971 1520 Z" /></g><g class="o"><path transform="translate(4,8)" class="S sf" d="M1899 1777 L1717 1595 L1747 1595 L1929 1777 Z"/><path class="f1" d="M1899 1777 L1717 1595 L1747 1595 L1929 1777 Z" /></g><g class="o"><path transform="translate(9,18)" class="S sfh" d="M1126 1237 L877 988 L897 988 L1146 1237 Z"/><path class="fh3" d="M1126 1237 L877 988 L897 988 L1146 1237 Z" /></g><g class="o"><path transform="translate(3,6)" class="S sf" d="M1501 1788 L1692 1597 L1692 1635 L1501 1826 Z"/><path class="f7" d="M1501 1788 L1692 1597 L1692 1635 L1501 1826 Z" /></g><g class="o"><path transform="translate(3,6)" class="S ss" d="M1802 1725 L1202 1125 L1222 1125 L1822 1725 Z"/><path class="s2" d="M1802 1725 L1202 1125 L1222 1125 L1822 1725 Z" /></g><g class="o"><path transform="translate(3,6)" class="S sf" d="M1881 1416 L2048 1249 L2048 1281 L1881 1448 Z"/><path class="f2" d="M1881 1416 L2048 1249 L2048 1281 L1881 1448 Z" /></g><g class="o"><path transform="translate(6,12)" class="S sfh" d="M1116 1673 L974 1531 L1004 1531 L1146 1673 Z"/><path class="fh7" d="M1116 1673 L974 1531 L1004 1531 L1146 1673 Z" /></g><g class="o"><path transform="translate(6,12)" class="S sfh" d="M1374 1025 L1812 587 L1940 587 L1502 1025 Z"/><path class="fh2" d="M1374 1025 L1812 587 L1940 587 L1502 1025 Z" /></g><g class="o"><path transform="translate(8,16)" class="S sfh" d="M1910 1243 L2048 1105 L2074 1105 L1936 1243 Z"/><path class="fh3" d="M1910 1243 L2048 1105 L2074 1105 L1936 1243 Z" /></g><g class="o"><path transform="translate(7,14)" class="S sfh" d="M1945 1844 L1824 1723 L1838 1723 L1959 1844 Z"/><path class="fh4" d="M1945 1844 L1824 1723 L1838 1723 L1959 1844 Z" /></g><g class="o"><path transform="translate(7,14)" class="S sfv" d="M1374 1775 L1481 1668 L1481 1696 L1374 1803 Z"/><path class="fv4" d="M1374 1775 L1481 1668 L1481 1696 L1374 1803 Z" /></g><g class="o"><path transform="translate(9,18)" class="S sf" d="M1268 1592 L1322 1538 L1354 1538 L1300 1592 Z"/><path class="f4" d="M1268 1592 L1322 1538 L1354 1538 L1300 1592 Z" /></g><g class="o"><path transform="translate(6,12)" class="S sf" d="M1862 1121 L2183 800 L2183 810 L1862 1131 Z"/><path class="f2" d="M1862 1121 L2183 800 L2183 810 L1862 1131 Z" /></g><g class="o"><path transform="translate(4,8)" class="S sfh" d="M1776 1870 L1690 1784 L1702 1784 L1788 1870 Z"/><path class="fh3" d="M1776 1870 L1690 1784 L1702 1784 L1788 1870 Z" /></g><g class="o"><path transform="translate(9,18)" class="S sfv" d="M1910 2018 L1783 1891 L1783 1911 L1910 2038 Z"/><path class="fv1" d="M1910 2018 L1783 1891 L1783 1911 L1910 2038 Z" /></g><g class="o"><path transform="translate(4,8)" class="S sfv" d="M1698 995 L1592 889 L1592 905 L1698 1011 Z"/><path class="fv7" d="M1698 995 L1592 889 L1592 905 L1698 1011 Z" /></g><g class="o"><path transform="translate(2,4)" class="S ssv" d="M1546 1120 L1882 784 L1882 818 L1546 1154 Z"/><path class="sv1" d="M1546 1120 L1882 784 L1882 818 L1546 1154 Z" /></g><g class="o"><path transform="translate(3,6)" class="S sfh" d="M1307 1030 L1161 884 L1179 884 L1325 1030 Z"/><path class="fh2" d="M1307 1030 L1161 884 L1179 884 L1325 1030 Z" /></g><g class="o"><path transform="translate(2,4)" class="S sf" d="M980 1323 L1172 1131 L1202 1131 L1010 1323 Z"/><path class="f5" d="M980 1323 L1172 1131 L1202 1131 L1010 1323 Z" /></g><g class="o"><path transform="translate(6,12)" class="S sfv" d="M1727 1675 L1952 1450 L1952 1482 L1727 1707 Z"/><path class="fv2" d="M1727 1675 L1952 1450 L1952 1482 L1727 1707 Z" /></g><g class="o"><path transform="translate(6,12)" class="S sfh" d="M1054 1224 L1286 992 L1318 992 L1086 1224 Z"/><path class="fh3" d="M1054 1224 L1286 992 L1318 992 L1086 1224 Z" /></g><g class="o"><path transform="translate(8,16)" class="S sfv" d="M2007 1611 L2118 1500 L2118 1628 L2007 1739 Z"/><path class="fv6" d="M2007 1611 L2118 1500 L2118 1628 L2007 1739 Z" /></g><g class="o"><path transform="translate(3,6)" class="S sfh" d="M1573 1660 L1800 1433 L1828 1433 L1601 1660 Z"/><path class="fh2" d="M1573 1660 L1800 1433 L1828 1433 L1601 1660 Z" /></g><g class="o"><path transform="translate(4,8)" class="S sfh" d="M1145 1080 L977 912 L1007 912 L1175 1080 Z"/><path class="fh4" d="M1145 1080 L977 912 L1007 912 L1175 1080 Z" /></g><g class="o"><path transform="translate(9,18)" class="S ssh" d="M1368 961 L1217 810 L1229 810 L1380 961 Z"/><path class="sh2" d="M1368 961 L1217 810 L1229 810 L1380 961 Z" /></g><g class="o"><path transform="translate(5,10)" class="S sf" d="M1838 1440 L1505 1107 L1505 1129 L1838 1462 Z"/><path class="f3" d="M1838 1440 L1505 1107 L1505 1129 L1838 1462 Z" /></g><g class="o"><path transform="translate(3,6)" class="S sfv" d="M1543 1578 L1696 1425 L1696 1459 L1543 1612 Z"/><path class="fv4" d="M1543 1578 L1696 1425 L1696 1459 L1543 1612 Z" /></g><g class="o"><path transform="translate(7,14)" class="S ssv" d="M1535 1958 L881 1304 L881 1314 L1535 1968 Z"/><path class="sv7" d="M1535 1958 L881 1304 L881 1314 L1535 1968 Z" /></g><g class="o"><path transform="translate(5,10)" class="S sf" d="M1312 1654 L1624 1342 L1624 1380 L1312 1692 Z"/><path class="f7" d="M1312 1654 L1624 1342 L1624 1380 L1312 1692 Z" /></g><g class="o"><path transform="translate(3,6)" class="S sfh" d="M1131 1245 L1272 1104 L1304 1104 L1163 1245 Z"/><path class="fh4" d="M1131 1245 L1272 1104 L1304 1104 L1163 1245 Z" /></g><g class="o"><path transform="translate(9,18)" class="S sfv" d="M1136 950 L989 803 L989 841 L1136 988 Z"/><path class="fv2" d="M1136 950 L989 803 L989 841 L1136 988 Z" /></g><g class="o"><path transform="translate(8,16)" class="S sfh" d="M1784 1087 L1702 1005 L1738 1005 L1820 1087 Z"/><path class="fh1" d="M1784 1087 L1702 1005 L1738 1005 L1820 1087 Z" /></g><g class="o"><path transform="translate(2,4)" class="S ssv" d="M1781 1292 L1841 1232 L1841 1360 L1781 1420 Z"/><path class="sv7" d="M1781 1292 L1841 1232 L1841 1360 L1781 1420 Z" /></g><g class="o"><path transform="translate(7,14)" class="S sfv" d="M2015 1120 L1875 980 L1875 1002 L2015 1142 Z"/><path class="fv6" d="M2015 1120 L1875 980 L1875 1002 L2015 1142 Z" /></g><g class="o"><path transform="translate(4,8)" class="S sfv" d="M958 1457 L1057 1358 L1057 1486 L958 1585 Z"/><path class="fv3" d="M958 1457 L1057 1358 L1057 1486 L958 1585 Z" /></g><g class="o"><path transform="translate(8,16)" class="S sf" d="M1342 1917 L1163 1738 L1163 1776 L1342 1955 Z"/><path class="f6" d="M1342 1917 L1163 1738 L1163 1776 L1342 1955 Z" /></g><g class="o"><path transform="translate(4,8)" class="S sfv" d="M1139 1334 L1311 1162 L1311 1170 L1139 1342 Z"/><path class="fv6" d="M1139 1334 L1311 1162 L1311 1170 L1139 1342 Z" /></g><g class="o"><path transform="translate(3,6)" class="S ssv" d="M1199 1670 L1428 1441 L1428 1471 L1199 1700 Z"/><path class="sv6" d="M1199 1670 L1428 1441 L1428 1471 L1199 1700 Z" /></g><g class="o"><path transform="translate(2,4)" class="S sfh" d="M1129 1007 L1009 887 L1039 887 L1159 1007 Z"/><path class="fh6" d="M1129 1007 L1009 887 L1039 887 L1159 1007 Z" /></g><g class="o"><path transform="translate(4,8)" class="S sfh" d="M1365 1588 L1447 1506 L1475 1506 L1393 1588 Z"/><path class="fh6" d="M1365 1588 L1447 1506 L1475 1506 L1393 1588 Z" /></g><g class="o"><path transform="translate(6,12)" class="S ss" d="M955 1118 L727 890 L739 890 L967 1118 Z"/><path class="s7" d="M955 1118 L727 890 L739 890 L967 1118 Z" /></g><g class="o"><path transform="translate(8,16)" class="S sfh" d="M1251 1451 L1066 1266 L1078 1266 L1263 1451 Z"/><path class="fh2" d="M1251 1451 L1066 1266 L1078 1266 L1263 1451 Z" /></g><g class="o"><path transform="translate(9,18)" class="S sfh" d="M1129 1166 L1075 1112 L1103 1112 L1157 1166 Z"/><path class="fh1" d="M1129 1166 L1075 1112 L1103 1112 L1157 1166 Z" /></g><g class="o"><path transform="translate(8,16)" class="S sfh" d="M1473 1917 L771 1215 L799 1215 L1501 1917 Z"/><path class="fh7" d="M1473 1917 L771 1215 L799 1215 L1501 1917 Z" /></g><g class="o"><path transform="translate(3,6)" class="S sf" d="M1158 1469 L1342 1285 L1342 1305 L1158 1489 Z"/><path class="f4" d="M1158 1469 L1342 1285 L1342 1305 L1158 1489 Z" /></g><g class="o"><path transform="translate(4,8)" class="S sfh" d="M1334 1344 L1158 1168 L1194 1168 L1370 1344 Z"/><path class="fh2" d="M1334 1344 L1158 1168 L1194 1168 L1370 1344 Z" /></g><g class="o"><path transform="translate(2,4)" class="S sfv" d="M1293 1048 L1215 970 L1215 986 L1293 1064 Z"/><path class="fv5" d="M1293 1048 L1215 970 L1215 986 L1293 1064 Z" /></g><g class="o"><path transform="translate(6,12)" class="S ssh" d="M2011 1733 L2398 1346 L2434 1346 L2047 1733 Z"/><path class="sh4" d="M2011 1733 L2398 1346 L2434 1346 L2047 1733 Z" /></g><g class="o"><path transform="translate(5,10)" class="S sf" d="M954 2021 L1106 1869 L1106 1897 L954 2049 Z"/><path class="f3" d="M954 2021 L1106 1869 L1106 1897 L954 2049 Z" /></g><g class="o"><path transform="translate(5,10)" class="S sfh" d="M1704 1203 L1756 1151 L1784 1151 L1732 1203 Z"/><path class="fh1" d="M1704 1203 L1756 1151 L1784 1151 L1732 1203 Z" /></g><g class="o"><path transform="translate(2,4)" class="S ssv" d="M1433 1742 L1526 1649 L1526 1669 L1433 1762 Z"/><path class="sv5" d="M1433 1742 L1526 1649 L1526 1669 L1433 1762 Z" /></g><g class="o"><path transform="translate(6,12)" class="S sfv" d="M1370 1393 L1218 1241 L1218 1273 L1370 1425 Z"/><path class="fv1" d="M1370 1393 L1218 1241 L1218 1273 L1370 1425 Z" /></g><g class="o"><path transform="translate(6,12)" class="S sfv" d="M1611 949 L918 256 L918 288 L1611 981 Z"/><path class="fv4" d="M1611 949 L918 256 L918 288 L1611 981 Z" /></g><g class="o"><path transform="translate(4,8)" class="S sfh" d="M1606 1400 L1757 1249 L1787 1249 L1636 1400 Z"/><path class="fh6" d="M1606 1400 L1757 1249 L1787 1249 L1636 1400 Z" /></g><g class="o"><path transform="translate(3,6)" class="S sfv" d="M1255 1844 L1152 1741 L1152 1775 L1255 1878 Z"/><path class="fv4" d="M1255 1844 L1152 1741 L1152 1775 L1255 1878 Z" /></g><g class="o"><path transform="translate(6,12)" class="S sfh" d="M1695 1651 L1939 1407 L1961 1407 L1717 1651 Z"/><path class="fh2" d="M1695 1651 L1939 1407 L1961 1407 L1717 1651 Z" /></g><g class="o"><path transform="translate(2,4)" class="S sfv" d="M1647 1777 L1812 1612 L1812 1624 L1647 1789 Z"/><path class="fv6" d="M1647 1777 L1812 1612 L1812 1624 L1647 1789 Z" /></g><g class="o"><path transform="translate(6,12)" class="S sfv" d="M1055 1236 L1159 1132 L1159 1158 L1055 1262 Z"/><path class="fv6" d="M1055 1236 L1159 1132 L1159 1158 L1055 1262 Z" /></g><g class="o"><path transform="translate(5,10)" class="S ssv" d="M1468 1247 L1522 1193 L1522 1205 L1468 1259 Z"/><path class="sv6" d="M1468 1247 L1522 1193 L1522 1205 L1468 1259 Z" /></g><g class="o"><path transform="translate(9,18)" class="S sfh" d="M1947 982 L1823 858 L1855 858 L1979 982 Z"/><path class="fh4" d="M1947 982 L1823 858 L1855 858 L1979 982 Z" /></g><g class="o"><path transform="translate(3,6)" class="S sfh" d="M1207 1633 L1281 1559 L1317 1559 L1243 1633 Z"/><path class="fh7" d="M1207 1633 L1281 1559 L1317 1559 L1243 1633 Z" /></g><g class="o"><path transform="translate(7,14)" class="S sfv" d="M1223 1051 L1466 808 L1466 840 L1223 1083 Z"/><path class="fv1" d="M1223 1051 L1466 808 L1466 840 L1223 1083 Z" /></g><g class="o"><path transform="translate(8,16)" class="S sf" d="M1774 1864 L1414 1504 L1446 1504 L1806 1864 Z"/><path class="f3" d="M1774 1864 L1414 1504 L1446 1504 L1806 1864 Z" /></g><g class="o"><path transform="translate(5,10)" class="S ss" d="M1728 1935 L1224 1431 L1224 1527 L1728 2031 Z"/><path class="s6" d="M1728 1935 L1224 1431 L1224 1527 L1728 2031 Z" /></g><g class="o"><path transform="translate(4,8)" class="S sf" d="M1889 1118 L1674 903 L1702 903 L1917 1118 Z"/><path class="f1" d="M1889 1118 L1674 903 L1702 903 L1917 1118 Z" /></g><g class="o"><path transform="translate(2,4)" class="S ssh" d="M1079 1325 L512 758 L534 758 L1101 1325 Z"/><path class="sh4" d="M1079 1325 L512 758 L534 758 L1101 1325 Z" /></g></g><use href="#slashes" transform-origin="1500 1500" transform="rotate(180) scale(2)"/></g><rect x="1080" y="1080" width="840" height="840" stroke-width="40" class="o ss" /><use href="#slashes" transform-origin="1500 1500" transform="scale(.9)"/><use href="#slashes" transform-origin="1500 1500" transform="rotate(180) scale(.9)"/></svg>