<svg xmlns="http://www.w3.org/2000/svg" viewBox="750 750 1500 1500"><style>/*<![CDATA[*/svg{background:rgb(107,107,107);max-width:100vw;max-height:100vh}path{stroke-width:4}.o{opacity:.75}.S{opacity:.4}.sf{stroke:none;fill:black}.sfh{stroke:none;fill:url(#hs)}.sfv{stroke:none;fill:url(#vs)}.ss{stroke:black;fill:none}.ssh{stroke:url(#hs);fill:none}.ssv{stroke:url(#vs);fill:none}.s1{fill:none;stroke:rgb(34,34,34)}.f1{stroke:none;fill:rgb(34,34,34)}.sh1{fill:none;stroke:url(#h1)}.fh1{stroke:none;fill:url(#h1)}.sv1{fill:none;stroke:url(#v1)}.fv1{stroke:none;fill:url(#v1)}.s2{fill:none;stroke:rgb(144,144,144)}.f2{stroke:none;fill:rgb(144,144,144)}.sh2{fill:none;stroke:url(#h2)}.fh2{stroke:none;fill:url(#h2)}.sv2{fill:none;stroke:url(#v2)}.fv2{stroke:none;fill:url(#v2)}.s3{fill:none;stroke:rgb(38,1,1)}.f3{stroke:none;fill:rgb(38,1,1)}.sh3{fill:none;stroke:url(#h3)}.fh3{stroke:none;fill:url(#h3)}.sv3{fill:none;stroke:url(#v3)}.fv3{stroke:none;fill:url(#v3)}.s4{fill:none;stroke:rgb(13,13,13)}.f4{stroke:none;fill:rgb(13,13,13)}.sh4{fill:none;stroke:url(#h4)}.fh4{stroke:none;fill:url(#h4)}.sv4{fill:none;stroke:url(#v4)}.fv4{stroke:none;fill:url(#v4)}.s5{fill:none;stroke:rgb(242,220,155)}.f5{stroke:none;fill:rgb(242,220,155)}.sh5{fill:none;stroke:url(#h5)}.fh5{stroke:none;fill:url(#h5)}.sv5{fill:none;stroke:url(#v5)}.fv5{stroke:none;fill:url(#v5)}.s6{fill:none;stroke:rgb(255,255,255)}.f6{stroke:none;fill:rgb(255,255,255)}.sh6{fill:none;stroke:url(#h6)}.fh6{stroke:none;fill:url(#h6)}.sv6{fill:none;stroke:url(#v6)}.fv6{stroke:none;fill:url(#v6)}.s7{fill:none;stroke:rgb(255,255,0)}.f7{stroke:none;fill:rgb(255,255,0)}.sh7{fill:none;stroke:url(#h7)}.fh7{stroke:none;fill:url(#h7)}.sv7{fill:none;stroke:url(#v7)}.fv7{stroke:none;fill:url(#v7)}/*]]>*/</style><defs><linearGradient gradientTransform="rotate(90)" id="hs"><stop offset="20%" stop-color="#000" /><stop offset="95%" stop-color="rgba(0, 0, 0, 0)" /></linearGradient><linearGradient id="vs"><stop offset="20%" stop-color="#000" /><stop offset="95%" stop-color="rgba(0, 0, 0, 0)" /></linearGradient><linearGradient gradientTransform="rotate(90)" id="h1"><stop offset="20%" stop-color="rgba(34,34,34,1)" /><stop offset="95%" stop-color="rgba(34,34,34,0)" /></linearGradient><linearGradient id="v1"><stop offset="20%" stop-color="rgba(34,34,34,1)" /><stop offset="95%" stop-color="rgba(34,34,34,0)" /></linearGradient><linearGradient gradientTransform="rotate(90)" id="h2"><stop offset="20%" stop-color="rgba(144,144,144,1)" /><stop offset="95%" stop-color="rgba(144,144,144,0)" /></linearGradient><linearGradient id="v2"><stop offset="20%" stop-color="rgba(144,144,144,1)" /><stop offset="95%" stop-color="rgba(144,144,144,0)" /></linearGradient><linearGradient gradientTransform="rotate(90)" id="h3"><stop offset="20%" stop-color="rgba(38,1,1,1)" /><stop offset="95%" stop-color="rgba(38,1,1,0)" /></linearGradient><linearGradient id="v3"><stop offset="20%" stop-color="rgba(38,1,1,1)" /><stop offset="95%" stop-color="rgba(38,1,1,0)" /></linearGradient><linearGradient gradientTransform="rotate(90)" id="h4"><stop offset="20%" stop-color="rgba(13,13,13,1)" /><stop offset="95%" stop-color="rgba(13,13,13,0)" /></linearGradient><linearGradient id="v4"><stop offset="20%" stop-color="rgba(13,13,13,1)" /><stop offset="95%" stop-color="rgba(13,13,13,0)" /></linearGradient><linearGradient gradientTransform="rotate(90)" id="h5"><stop offset="20%" stop-color="rgba(242,220,155,1)" /><stop offset="95%" stop-color="rgba(242,220,155,0)" /></linearGradient><linearGradient id="v5"><stop offset="20%" stop-color="rgba(242,220,155,1)" /><stop offset="95%" stop-color="rgba(242,220,155,0)" /></linearGradient><linearGradient gradientTransform="rotate(90)" id="h6"><stop offset="20%" stop-color="rgba(255,255,255,1)" /><stop offset="95%" stop-color="rgba(255,255,255,0)" /></linearGradient><linearGradient id="v6"><stop offset="20%" stop-color="rgba(255,255,255,1)" /><stop offset="95%" stop-color="rgba(255,255,255,0)" /></linearGradient><linearGradient gradientTransform="rotate(90)" id="h7"><stop offset="20%" stop-color="rgba(255,255,0,1)" /><stop offset="95%" stop-color="rgba(255,255,0,0)" /></linearGradient><linearGradient id="v7"><stop offset="20%" stop-color="rgba(255,255,0,1)" /><stop offset="95%" stop-color="rgba(255,255,0,0)" /></linearGradient></defs><g transform-origin="1500 1500" transform="scale(2)" opacity=".2"><g id="slashes"><g class="o"><path transform="translate(4,8)" class="S sf" d="M961 996 L1157 800 L1157 832 L961 1028 Z"/><path class="f3" d="M961 996 L1157 800 L1157 832 L961 1028 Z" /></g><g class="o"><path transform="translate(4,8)" class="S sf" d="M1585 1282 L1346 1043 L1370 1043 L1609 1282 Z"/><path class="f2" d="M1585 1282 L1346 1043 L1370 1043 L1609 1282 Z" /></g><g class="o"><path transform="translate(8,16)" class="S sf" d="M1709 1891 L1835 1765 L1865 1765 L1739 1891 Z"/><path class="f3" d="M1709 1891 L1835 1765 L1865 1765 L1739 1891 Z" /></g><g class="o"><path transform="translate(4,8)" class="S sfh" d="M1495 1939 L2233 1201 L2249 1201 L1511 1939 Z"/><path class="fh7" d="M1495 1939 L2233 1201 L2249 1201 L1511 1939 Z" /></g><g class="o"><path transform="translate(7,14)" class="S sfh" d="M2029 1612 L1895 1478 L1931 1478 L2065 1612 Z"/><path class="fh5" d="M2029 1612 L1895 1478 L1931 1478 L2065 1612 Z" /></g><g class="o"><path transform="translate(3,6)" class="S ssh" d="M954 1342 L1137 1159 L1171 1159 L988 1342 Z"/><path class="sh4" d="M954 1342 L1137 1159 L1171 1159 L988 1342 Z" /></g><g class="o"><path transform="translate(3,6)" class="S sfv" d="M1464 1133 L1546 1051 L1546 1179 L1464 1261 Z"/><path class="fv2" d="M1464 1133 L1546 1051 L1546 1179 L1464 1261 Z" /></g><g class="o"><path transform="translate(3,6)" class="S sfv" d="M1427 1329 L1754 1002 L1754 1018 L1427 1345 Z"/><path class="fv3" d="M1427 1329 L1754 1002 L1754 1018 L1427 1345 Z" /></g><g class="o"><path transform="translate(4,8)" class="S sfv" d="M1726 1035 L1937 824 L1937 976 L1726 1187 Z"/><path class="fv2" d="M1726 1035 L1937 824 L1937 976 L1726 1187 Z" /></g><g class="o"><path transform="translate(9,18)" class="S sf" d="M1038 1471 L1283 1226 L1303 1226 L1058 1471 Z"/><path class="f3" d="M1038 1471 L1283 1226 L1303 1226 L1058 1471 Z" /></g><g class="o"><path transform="translate(7,14)" class="S sfv" d="M1014 1459 L1194 1279 L1194 1313 L1014 1493 Z"/><path class="fv2" d="M1014 1459 L1194 1279 L1194 1313 L1014 1493 Z" /></g><g class="o"><path transform="translate(6,12)" class="S sfv" d="M1729 1111 L1484 866 L1484 894 L1729 1139 Z"/><path class="fv7" d="M1729 1111 L1484 866 L1484 894 L1729 1139 Z" /></g><g class="o"><path transform="translate(4,8)" class="S sf" d="M1805 1286 L1745 1226 L1783 1226 L1843 1286 Z"/><path class="f2" d="M1805 1286 L1745 1226 L1783 1226 L1843 1286 Z" /></g><g class="o"><path transform="translate(4,8)" class="S sfv" d="M1442 1122 L1547 1017 L1547 1045 L1442 1150 Z"/><path class="fv7" d="M1442 1122 L1547 1017 L1547 1045 L1442 1150 Z" /></g><g class="o"><path transform="translate(9,18)" class="S sfh" d="M956 1878 L1103 1731 L1137 1731 L990 1878 Z"/><path class="fh2" d="M956 1878 L1103 1731 L1137 1731 L990 1878 Z" /></g><g class="o"><path transform="translate(3,6)" class="S sfh" d="M1416 1965 L2031 1350 L2053 1350 L1438 1965 Z"/><path class="fh1" d="M1416 1965 L2031 1350 L2053 1350 L1438 1965 Z" /></g><g class="o"><path transform="translate(6,12)" class="S sfv" d="M1262 1618 L1372 1508 L1372 1540 L1262 1650 Z"/><path class="fv2" d="M1262 1618 L1372 1508 L1372 1540 L1262 1650 Z" /></g><g class="o"><path transform="translate(9,18)" class="S sf" d="M1825 2035 L2527 1333 L2563 1333 L1861 2035 Z"/><path class="f3" d="M1825 2035 L2527 1333 L2563 1333 L1861 2035 Z" /></g><g class="o"><path transform="translate(8,16)" class="S sf" d="M1357 1129 L1534 952 L1598 952 L1421 1129 Z"/><path class="f6" d="M1357 1129 L1534 952 L1598 952 L1421 1129 Z" /></g><g class="o"><path transform="translate(7,14)" class="S sfv" d="M1842 1462 L1975 1329 L1975 1359 L1842 1492 Z"/><path class="fv1" d="M1842 1462 L1975 1329 L1975 1359 L1842 1492 Z" /></g><g class="o"><path transform="translate(3,6)" class="S sfh" d="M1526 1707 L1745 1488 L1771 1488 L1552 1707 Z"/><path class="fh2" d="M1526 1707 L1745 1488 L1771 1488 L1552 1707 Z" /></g><g class="o"><path transform="translate(6,12)" class="S sf" d="M1998 1329 L2607 720 L2607 742 L1998 1351 Z"/><path class="f7" d="M1998 1329 L2607 720 L2607 742 L1998 1351 Z" /></g><g class="o"><path transform="translate(4,8)" class="S sfh" d="M1799 960 L1701 862 L1729 862 L1827 960 Z"/><path class="fh4" d="M1799 960 L1701 862 L1729 862 L1827 960 Z" /></g><g class="o"><path transform="translate(4,8)" class="S ssh" d="M1466 1412 L1266 1212 L1346 1212 L1546 1412 Z"/><path class="sh3" d="M1466 1412 L1266 1212 L1346 1212 L1546 1412 Z" /></g><g class="o"><path transform="translate(8,16)" class="S sfh" d="M1024 1675 L1264 1435 L1282 1435 L1042 1675 Z"/><path class="fh7" d="M1024 1675 L1264 1435 L1282 1435 L1042 1675 Z" /></g><g class="o"><path transform="translate(7,14)" class="S sfv" d="M1949 1171 L1796 1018 L1796 1050 L1949 1203 Z"/><path class="fv1" d="M1949 1171 L1796 1018 L1796 1050 L1949 1203 Z" /></g><g class="o"><path transform="translate(5,10)" class="S ssv" d="M1197 1335 L1386 1146 L1386 1298 L1197 1487 Z"/><path class="sv3" d="M1197 1335 L1386 1146 L1386 1298 L1197 1487 Z" /></g><g class="o"><path transform="translate(8,16)" class="S sfh" d="M1305 1450 L1482 1273 L1512 1273 L1335 1450 Z"/><path class="fh6" d="M1305 1450 L1482 1273 L1512 1273 L1335 1450 Z" /></g><g class="o"><path transform="translate(3,6)" class="S sfh" d="M1369 1323 L1441 1251 L1469 1251 L1397 1323 Z"/><path class="fh1" d="M1369 1323 L1441 1251 L1469 1251 L1397 1323 Z" /></g><g class="o"><path transform="translate(2,4)" class="S sf" d="M1862 1036 L1733 907 L1733 923 L1862 1052 Z"/><path class="f3" d="M1862 1036 L1733 907 L1733 923 L1862 1052 Z" /></g><g class="o"><path transform="translate(4,8)" class="S sfv" d="M1546 1825 L1752 1619 L1752 1635 L1546 1841 Z"/><path class="fv6" d="M1546 1825 L1752 1619 L1752 1635 L1546 1841 Z" /></g><g class="o"><path transform="translate(7,14)" class="S ssv" d="M1603 1780 L1757 1626 L1757 1646 L1603 1800 Z"/><path class="sv5" d="M1603 1780 L1757 1626 L1757 1646 L1603 1800 Z" /></g><g class="o"><path transform="translate(4,8)" class="S sfv" d="M1586 1297 L1713 1170 L1713 1186 L1586 1313 Z"/><path class="fv3" d="M1586 1297 L1713 1170 L1713 1186 L1586 1313 Z" /></g><g class="o"><path transform="translate(3,6)" class="S sfh" d="M1923 1335 L1632 1044 L1648 1044 L1939 1335 Z"/><path class="fh1" d="M1923 1335 L1632 1044 L1648 1044 L1939 1335 Z" /></g><g class="o"><path transform="translate(7,14)" class="S sfh" d="M1558 1912 L1999 1471 L2023 1471 L1582 1912 Z"/><path class="fh7" d="M1558 1912 L1999 1471 L2023 1471 L1582 1912 Z" /></g><g class="o"><path transform="translate(7,14)" class="S sfh" d="M1898 1121 L2255 764 L2289 764 L1932 1121 Z"/><path class="fh7" d="M1898 1121 L2255 764 L2289 764 L1932 1121 Z" /></g><g class="o"><path transform="translate(9,18)" class="S sf" d="M1488 1311 L1701 1098 L1733 1098 L1520 1311 Z"/><path class="f3" d="M1488 1311 L1701 1098 L1733 1098 L1520 1311 Z" /></g><g class="o"><path transform="translate(6,12)" class="S sfh" d="M1078 1210 L1182 1106 L1202 1106 L1098 1210 Z"/><path class="fh2" d="M1078 1210 L1182 1106 L1202 1106 L1098 1210 Z" /></g><g class="o"><path transform="translate(7,14)" class="S sf" d="M1252 2003 L1350 1905 L1350 1941 L1252 2039 Z"/><path class="f4" d="M1252 2003 L1350 1905 L1350 1941 L1252 2039 Z" /></g><g class="o"><path transform="translate(9,18)" class="S ssh" d="M1181 1868 L1115 1802 L1123 1802 L1189 1868 Z"/><path class="sh1" d="M1181 1868 L1115 1802 L1123 1802 L1189 1868 Z" /></g><g class="o"><path transform="translate(5,10)" class="S sfh" d="M1724 1170 L1905 989 L2009 989 L1828 1170 Z"/><path class="fh5" d="M1724 1170 L1905 989 L2009 989 L1828 1170 Z" /></g><g class="o"><path transform="translate(3,6)" class="S sfv" d="M1749 1649 L1525 1425 L1525 1553 L1749 1777 Z"/><path class="fv1" d="M1749 1649 L1525 1425 L1525 1553 L1749 1777 Z" /></g><g class="o"><path transform="translate(6,12)" class="S ssh" d="M995 1577 L847 1429 L881 1429 L1029 1577 Z"/><path class="sh3" d="M995 1577 L847 1429 L881 1429 L1029 1577 Z" /></g><g class="o"><path transform="translate(9,18)" class="S sfv" d="M1337 1421 L1441 1317 L1441 1351 L1337 1455 Z"/><path class="fv1" d="M1337 1421 L1441 1317 L1441 1351 L1337 1455 Z" /></g><g class="o"><path transform="translate(9,18)" class="S sfv" d="M1712 1945 L1581 1814 L1581 1846 L1712 1977 Z"/><path class="fv6" d="M1712 1945 L1581 1814 L1581 1846 L1712 1977 Z" /></g><g class="o"><path transform="translate(9,18)" class="S sfv" d="M1349 1197 L1542 1004 L1542 1028 L1349 1221 Z"/><path class="fv5" d="M1349 1197 L1542 1004 L1542 1028 L1349 1221 Z" /></g><g class="o"><path transform="translate(2,4)" class="S sf" d="M1096 1662 L1216 1542 L1360 1542 L1240 1662 Z"/><path class="f6" d="M1096 1662 L1216 1542 L1360 1542 L1240 1662 Z" /></g><g class="o"><path transform="translate(8,16)" class="S sf" d="M969 1711 L1199 1481 L1199 1507 L969 1737 Z"/><path class="f3" d="M969 1711 L1199 1481 L1199 1507 L969 1737 Z" /></g><g class="o"><path transform="translate(7,14)" class="S sfv" d="M1959 1178 L2107 1030 L2107 1052 L1959 1200 Z"/><path class="fv1" d="M1959 1178 L2107 1030 L2107 1052 L1959 1200 Z" /></g><g class="o"><path transform="translate(4,8)" class="S sfv" d="M1610 1954 L1717 1847 L1717 1881 L1610 1988 Z"/><path class="fv5" d="M1610 1954 L1717 1847 L1717 1881 L1610 1988 Z" /></g><g class="o"><path transform="translate(2,4)" class="S sfv" d="M2042 1203 L2222 1023 L2222 1039 L2042 1219 Z"/><path class="fv7" d="M2042 1203 L2222 1023 L2222 1039 L2042 1219 Z" /></g><g class="o"><path transform="translate(9,18)" class="S sf" d="M2038 1362 L2178 1222 L2178 1254 L2038 1394 Z"/><path class="f4" d="M2038 1362 L2178 1222 L2178 1254 L2038 1394 Z" /></g><g class="o"><path transform="translate(4,8)" class="S sfv" d="M1281 1485 L1436 1330 L1436 1350 L1281 1505 Z"/><path class="fv2" d="M1281 1485 L1436 1330 L1436 1350 L1281 1505 Z" /></g><g class="o"><path transform="translate(9,18)" class="S ssv" d="M1017 2018 L918 1919 L918 1943 L1017 2042 Z"/><path class="sv5" d="M1017 2018 L918 1919 L918 1943 L1017 2042 Z" /></g><g class="o"><path transform="translate(7,14)" class="S ss" d="M1327 1638 L1490 1475 L1490 1497 L1327 1660 Z"/><path class="s1" d="M1327 1638 L1490 1475 L1490 1497 L1327 1660 Z" /></g><g class="o"><path transform="translate(9,18)" class="S ssh" d="M2002 1240 L2162 1080 L2188 1080 L2028 1240 Z"/><path class="sh7" d="M2002 1240 L2162 1080 L2188 1080 L2028 1240 Z" /></g><g class="o"><path transform="translate(3,6)" class="S ssh" d="M1996 1946 L2047 1895 L2063 1895 L2012 1946 Z"/><path class="sh7" d="M1996 1946 L2047 1895 L2063 1895 L2012 1946 Z" /></g><g class="o"><path transform="translate(2,4)" class="S ssh" d="M1397 986 L1472 911 L1494 911 L1419 986 Z"/><path class="sh2" d="M1397 986 L1472 911 L1494 911 L1419 986 Z" /></g><g class="o"><path transform="translate(4,8)" class="S ss" d="M1534 1010 L1406 882 L1406 894 L1534 1022 Z"/><path class="s2" d="M1534 1010 L1406 882 L1406 894 L1534 1022 Z" /></g><g class="o"><path transform="translate(6,12)" class="S sfh" d="M1988 1165 L2047 1106 L2055 1106 L1996 1165 Z"/><path class="fh6" d="M1988 1165 L2047 1106 L2055 1106 L1996 1165 Z" /></g><g class="o"><path transform="translate(8,16)" class="S sf" d="M1009 1652 L1159 1502 L1159 1534 L1009 1684 Z"/><path class="f4" d="M1009 1652 L1159 1502 L1159 1534 L1009 1684 Z" /></g><g class="o"><path transform="translate(4,8)" class="S sfh" d="M1613 1120 L1529 1036 L1561 1036 L1645 1120 Z"/><path class="fh2" d="M1613 1120 L1529 1036 L1561 1036 L1645 1120 Z" /></g><g class="o"><path transform="translate(7,14)" class="S sfv" d="M1482 1883 L2076 1289 L2076 1299 L1482 1893 Z"/><path class="fv7" d="M1482 1883 L2076 1289 L2076 1299 L1482 1893 Z" /></g><g class="o"><path transform="translate(6,12)" class="S sfv" d="M1921 1902 L2029 1794 L2029 1828 L1921 1936 Z"/><path class="fv3" d="M1921 1902 L2029 1794 L2029 1828 L1921 1936 Z" /></g><g class="o"><path transform="translate(9,18)" class="S sfv" d="M1720 1153 L1580 1013 L1580 1045 L1720 1185 Z"/><path class="fv4" d="M1720 1153 L1580 1013 L1580 1045 L1720 1185 Z" /></g><g class="o"><path transform="translate(2,4)" class="S sfv" d="M1093 1616 L1249 1460 L1249 1492 L1093 1648 Z"/><path class="fv6" d="M1093 1616 L1249 1460 L1249 1492 L1093 1648 Z" /></g><g class="o"><path transform="translate(8,16)" class="S sf" d="M997 984 L1543 438 L1543 454 L997 1000 Z"/><path class="f3" d="M997 984 L1543 438 L1543 454 L997 1000 Z" /></g><g class="o"><path transform="translate(9,18)" class="S ssv" d="M1558 1806 L1667 1697 L1667 1729 L1558 1838 Z"/><path class="sv4" d="M1558 1806 L1667 1697 L1667 1729 L1558 1838 Z" /></g><g class="o"><path transform="translate(6,12)" class="S sfh" d="M1038 1216 L1088 1166 L1126 1166 L1076 1216 Z"/><path class="fh5" d="M1038 1216 L1088 1166 L1126 1166 L1076 1216 Z" /></g><g class="o"><path transform="translate(3,6)" class="S sfh" d="M1418 1935 L1594 1759 L1714 1759 L1538 1935 Z"/><path class="fh6" d="M1418 1935 L1594 1759 L1714 1759 L1538 1935 Z" /></g><g class="o"><path transform="translate(7,14)" class="S sfh" d="M1417 1413 L1574 1256 L1588 1256 L1431 1413 Z"/><path class="fh4" d="M1417 1413 L1574 1256 L1588 1256 L1431 1413 Z" /></g><g class="o"><path transform="translate(4,8)" class="S sfv" d="M965 1664 L1051 1578 L1051 1604 L965 1690 Z"/><path class="fv6" d="M965 1664 L1051 1578 L1051 1604 L965 1690 Z" /></g><g class="o"><path transform="translate(2,4)" class="S sfv" d="M1618 2010 L1450 1842 L1450 1866 L1618 2034 Z"/><path class="fv2" d="M1618 2010 L1450 1842 L1450 1866 L1618 2034 Z" /></g><g class="o"><path transform="translate(2,4)" class="S sfv" d="M1556 1250 L1620 1186 L1620 1224 L1556 1288 Z"/><path class="fv1" d="M1556 1250 L1620 1186 L1620 1224 L1556 1288 Z" /></g><g class="o"><path transform="translate(4,8)" class="S ssv" d="M1596 1432 L1714 1314 L1714 1326 L1596 1444 Z"/><path class="sv4" d="M1596 1432 L1714 1314 L1714 1326 L1596 1444 Z" /></g><g class="o"><path transform="translate(9,18)" class="S sfv" d="M1370 1314 L1474 1210 L1474 1266 L1370 1370 Z"/><path class="fv3" d="M1370 1314 L1474 1210 L1474 1266 L1370 1370 Z" /></g><g class="o"><path transform="translate(9,18)" class="S sfv" d="M1142 1147 L809 814 L809 966 L1142 1299 Z"/><path class="fv5" d="M1142 1147 L809 814 L809 966 L1142 1299 Z" /></g><g class="o"><path transform="translate(8,16)" class="S sfv" d="M1407 1850 L1466 1791 L1466 1815 L1407 1874 Z"/><path class="fv4" d="M1407 1850 L1466 1791 L1466 1815 L1407 1874 Z" /></g><g class="o"><path transform="translate(4,8)" class="S sfh" d="M1900 1881 L2121 1660 L2137 1660 L1916 1881 Z"/><path class="fh7" d="M1900 1881 L2121 1660 L2137 1660 L1916 1881 Z" /></g><g class="o"><path transform="translate(6,12)" class="S sfh" d="M1337 1333 L1141 1137 L1163 1137 L1359 1333 Z"/><path class="fh3" d="M1337 1333 L1141 1137 L1163 1137 L1359 1333 Z" /></g><g class="o"><path transform="translate(6,12)" class="S sfh" d="M1189 1995 L1437 1747 L1467 1747 L1219 1995 Z"/><path class="fh3" d="M1189 1995 L1437 1747 L1467 1747 L1219 1995 Z" /></g><g class="o"><path transform="translate(4,8)" class="S sfh" d="M1276 1634 L1365 1545 L1391 1545 L1302 1634 Z"/><path class="fh6" d="M1276 1634 L1365 1545 L1391 1545 L1302 1634 Z" /></g><g class="o"><path transform="translate(3,6)" class="S ssh" d="M1492 1535 L2155 872 L2193 872 L1530 1535 Z"/><path class="sh7" d="M1492 1535 L2155 872 L2193 872 L1530 1535 Z" /></g><g class="o"><path transform="translate(9,18)" class="S sfv" d="M1634 1603 L1801 1436 L1801 1470 L1634 1637 Z"/><path class="fv6" d="M1634 1603 L1801 1436 L1801 1470 L1634 1637 Z" /></g><g class="o"><path transform="translate(9,18)" class="S ssh" d="M1512 1194 L1176 858 L1192 858 L1528 1194 Z"/><path class="sh4" d="M1512 1194 L1176 858 L1192 858 L1528 1194 Z" /></g><g class="o"><path transform="translate(3,6)" class="S sfh" d="M1239 1746 L1000 1507 L1032 1507 L1271 1746 Z"/><path class="fh4" d="M1239 1746 L1000 1507 L1032 1507 L1271 1746 Z" /></g><g class="o"><path transform="translate(5,10)" class="S sfh" d="M1675 1033 L1294 652 L1314 652 L1695 1033 Z"/><path class="fh5" d="M1675 1033 L1294 652 L1314 652 L1695 1033 Z" /></g><g class="o"><path transform="translate(5,10)" class="S sf" d="M1591 1804 L1706 1689 L1722 1689 L1607 1804 Z"/><path class="f3" d="M1591 1804 L1706 1689 L1722 1689 L1607 1804 Z" /></g><g class="o"><path transform="translate(7,14)" class="S ss" d="M1236 1879 L1425 1690 L1449 1690 L1260 1879 Z"/><path class="s2" d="M1236 1879 L1425 1690 L1449 1690 L1260 1879 Z" /></g><g class="o"><path transform="translate(8,16)" class="S sfv" d="M1968 1811 L2177 1602 L2177 1634 L1968 1843 Z"/><path class="fv6" d="M1968 1811 L2177 1602 L2177 1634 L1968 1843 Z" /></g><g class="o"><path transform="translate(6,12)" class="S ssv" d="M1500 1823 L1584 1739 L1584 1749 L1500 1833 Z"/><path class="sv2" d="M1500 1823 L1584 1739 L1584 1749 L1500 1833 Z" /></g><g class="o"><path transform="translate(3,6)" class="S ss" d="M1212 1882 L1397 1697 L1397 1727 L1212 1912 Z"/><path class="s2" d="M1212 1882 L1397 1697 L1397 1727 L1212 1912 Z" /></g><g class="o"><path transform="translate(8,16)" class="S sfh" d="M1047 1530 L965 1448 L1045 1448 L1127 1530 Z"/><path class="fh7" d="M1047 1530 L965 1448 L1045 1448 L1127 1530 Z" /></g><g class="o"><path transform="translate(3,6)" class="S ssh" d="M1830 1359 L2056 1133 L2112 1133 L1886 1359 Z"/><path class="sh2" d="M1830 1359 L2056 1133 L2112 1133 L1886 1359 Z" /></g><g class="o"><path transform="translate(9,18)" class="S sf" d="M1334 1758 L1188 1612 L1188 1644 L1334 1790 Z"/><path class="f6" d="M1334 1758 L1188 1612 L1188 1644 L1334 1790 Z" /></g><g class="o"><path transform="translate(5,10)" class="S sfv" d="M1538 1756 L1413 1631 L1413 1659 L1538 1784 Z"/><path class="fv3" d="M1538 1756 L1413 1631 L1413 1659 L1538 1784 Z" /></g><g class="o"><path transform="translate(5,10)" class="S sf" d="M1266 2005 L1488 1783 L1488 1839 L1266 2061 Z"/><path class="f7" d="M1266 2005 L1488 1783 L1488 1839 L1266 2061 Z" /></g><g class="o"><path transform="translate(9,18)" class="S sf" d="M1304 1733 L1055 1484 L1199 1484 L1448 1733 Z"/><path class="f7" d="M1304 1733 L1055 1484 L1199 1484 L1448 1733 Z" /></g><g class="o"><path transform="translate(9,18)" class="S sf" d="M1515 1938 L1721 1732 L1833 1732 L1627 1938 Z"/><path class="f2" d="M1515 1938 L1721 1732 L1833 1732 L1627 1938 Z" /></g><g class="o"><path transform="translate(7,14)" class="S ssv" d="M1291 1709 L1494 1506 L1494 1516 L1291 1719 Z"/><path class="sv4" d="M1291 1709 L1494 1506 L1494 1516 L1291 1719 Z" /></g><g class="o"><path transform="translate(8,16)" class="S ssh" d="M1320 1683 L1454 1549 L1574 1549 L1440 1683 Z"/><path class="sh1" d="M1320 1683 L1454 1549 L1574 1549 L1440 1683 Z" /></g><g class="o"><path transform="translate(3,6)" class="S sf" d="M1010 1311 L1130 1191 L1154 1191 L1034 1311 Z"/><path class="f4" d="M1010 1311 L1130 1191 L1154 1191 L1034 1311 Z" /></g><g class="o"><path transform="translate(2,4)" class="S sfv" d="M1230 972 L1314 888 L1314 922 L1230 1006 Z"/><path class="fv7" d="M1230 972 L1314 888 L1314 922 L1230 1006 Z" /></g><g class="o"><path transform="translate(3,6)" class="S sf" d="M1077 2005 L1296 1786 L1328 1786 L1109 2005 Z"/><path class="f2" d="M1077 2005 L1296 1786 L1328 1786 L1109 2005 Z" /></g><g class="o"><path transform="translate(9,18)" class="S ss" d="M1497 1700 L1697 1500 L1707 1500 L1507 1700 Z"/><path class="s2" d="M1497 1700 L1697 1500 L1707 1500 L1507 1700 Z" /></g><g class="o"><path transform="translate(4,8)" class="S sf" d="M1619 1313 L1539 1233 L1539 1253 L1619 1333 Z"/><path class="f2" d="M1619 1313 L1539 1233 L1539 1253 L1619 1333 Z" /></g><g class="o"><path transform="translate(9,18)" class="S sfh" d="M1852 1191 L1950 1093 L1960 1093 L1862 1191 Z"/><path class="fh1" d="M1852 1191 L1950 1093 L1960 1093 L1862 1191 Z" /></g><g class="o"><path transform="translate(8,16)" class="S sf" d="M1068 1799 L955 1686 L989 1686 L1102 1799 Z"/><path class="f6" d="M1068 1799 L955 1686 L989 1686 L1102 1799 Z" /></g><g class="o"><path transform="translate(2,4)" class="S sfh" d="M1675 1647 L1834 1488 L1864 1488 L1705 1647 Z"/><path class="fh7" d="M1675 1647 L1834 1488 L1864 1488 L1705 1647 Z" /></g><g class="o"><path transform="translate(7,14)" class="S ssh" d="M1596 1197 L1806 987 L1934 987 L1724 1197 Z"/><path class="sh4" d="M1596 1197 L1806 987 L1934 987 L1724 1197 Z" /></g><g class="o"><path transform="translate(3,6)" class="S sfv" d="M1913 1984 L2132 1765 L2132 1779 L1913 1998 Z"/><path class="fv6" d="M1913 1984 L2132 1765 L2132 1779 L1913 1998 Z" /></g><g class="o"><path transform="translate(5,10)" class="S sf" d="M1030 1824 L838 1632 L838 1654 L1030 1846 Z"/><path class="f2" d="M1030 1824 L838 1632 L838 1654 L1030 1846 Z" /></g><g class="o"><path transform="translate(7,14)" class="S sfv" d="M2025 1852 L2197 1680 L2197 1704 L2025 1876 Z"/><path class="fv3" d="M2025 1852 L2197 1680 L2197 1704 L2025 1876 Z" /></g><g class="o"><path transform="translate(7,14)" class="S sfv" d="M1431 1184 L1494 1121 L1494 1201 L1431 1264 Z"/><path class="fv3" d="M1431 1184 L1494 1121 L1494 1201 L1431 1264 Z" /></g><g class="o"><path transform="translate(9,18)" class="S sfv" d="M1394 1497 L1543 1348 L1543 1382 L1394 1531 Z"/><path class="fv4" d="M1394 1497 L1543 1348 L1543 1382 L1394 1531 Z" /></g><g class="o"><path transform="translate(7,14)" class="S sfv" d="M1299 1954 L1851 1402 L1851 1418 L1299 1970 Z"/><path class="fv5" d="M1299 1954 L1851 1402 L1851 1418 L1299 1970 Z" /></g><g class="o"><path transform="translate(5,10)" class="S sfh" d="M1149 1910 L1380 1679 L1410 1679 L1179 1910 Z"/><path class="fh3" d="M1149 1910 L1380 1679 L1410 1679 L1179 1910 Z" /></g><g class="o"><path transform="translate(8,16)" class="S sfv" d="M1000 1067 L1522 545 L1522 565 L1000 1087 Z"/><path class="fv6" d="M1000 1067 L1522 545 L1522 565 L1000 1087 Z" /></g><g class="o"><path transform="translate(6,12)" class="S ssv" d="M1436 1869 L1205 1638 L1205 1660 L1436 1891 Z"/><path class="sv2" d="M1436 1869 L1205 1638 L1205 1660 L1436 1891 Z" /></g><g class="o"><path transform="translate(5,10)" class="S sfv" d="M1578 1962 L1808 1732 L1808 1764 L1578 1994 Z"/><path class="fv4" d="M1578 1962 L1808 1732 L1808 1764 L1578 1994 Z" /></g></g><use href="#slashes" transform-origin="1500 1500" transform="rotate(180) scale(2)"/></g><rect x="1080" y="1080" width="840" height="840" stroke-width="40" class="o s1" /><use href="#slashes" transform-origin="1500 1500" transform="scale(.9)"/><use href="#slashes" transform-origin="1500 1500" transform="rotate(180) scale(.9)"/></svg>