<svg xmlns="http://www.w3.org/2000/svg" viewBox="750 750 1500 1500"><style>/*<![CDATA[*/svg{background:rgb(50,147,111);max-width:100vw;max-height:100vh}path{stroke-width:4}.o{opacity:.75}.S{opacity:.4}.sf{stroke:none;fill:black}.sfh{stroke:none;fill:url(#hs)}.sfv{stroke:none;fill:url(#vs)}.ss{stroke:black;fill:none}.ssh{stroke:url(#hs);fill:none}.ssv{stroke:url(#vs);fill:none}.s1{fill:none;stroke:rgb(232,63,111)}.f1{stroke:none;fill:rgb(232,63,111)}.sh1{fill:none;stroke:url(#h1)}.fh1{stroke:none;fill:url(#h1)}.sv1{fill:none;stroke:url(#v1)}.fv1{stroke:none;fill:url(#v1)}.s2{fill:none;stroke:rgb(255,191,0)}.f2{stroke:none;fill:rgb(255,191,0)}.sh2{fill:none;stroke:url(#h2)}.fh2{stroke:none;fill:url(#h2)}.sv2{fill:none;stroke:url(#v2)}.fv2{stroke:none;fill:url(#v2)}.s3{fill:none;stroke:rgb(34,116,165)}.f3{stroke:none;fill:rgb(34,116,165)}.sh3{fill:none;stroke:url(#h3)}.fh3{stroke:none;fill:url(#h3)}.sv3{fill:none;stroke:url(#v3)}.fv3{stroke:none;fill:url(#v3)}.s4{fill:none;stroke:rgb(34,34,34)}.f4{stroke:none;fill:rgb(34,34,34)}.sh4{fill:none;stroke:url(#h4)}.fh4{stroke:none;fill:url(#h4)}.sv4{fill:none;stroke:url(#v4)}.fv4{stroke:none;fill:url(#v4)}.s5{fill:none;stroke:rgb(255,255,255)}.f5{stroke:none;fill:rgb(255,255,255)}.sh5{fill:none;stroke:url(#h5)}.fh5{stroke:none;fill:url(#h5)}.sv5{fill:none;stroke:url(#v5)}.fv5{stroke:none;fill:url(#v5)}.s6{fill:none;stroke:rgb(255,255,255)}.f6{stroke:none;fill:rgb(255,255,255)}.sh6{fill:none;stroke:url(#h6)}.fh6{stroke:none;fill:url(#h6)}.sv6{fill:none;stroke:url(#v6)}.fv6{stroke:none;fill:url(#v6)}.s7{fill:none;stroke:rgb(255,0,0)}.f7{stroke:none;fill:rgb(255,0,0)}.sh7{fill:none;stroke:url(#h7)}.fh7{stroke:none;fill:url(#h7)}.sv7{fill:none;stroke:url(#v7)}.fv7{stroke:none;fill:url(#v7)}/*]]>*/</style><defs><linearGradient gradientTransform="rotate(90)" id="hs"><stop offset="20%" stop-color="#000" /><stop offset="95%" stop-color="rgba(0, 0, 0, 0)" /></linearGradient><linearGradient id="vs"><stop offset="20%" stop-color="#000" /><stop offset="95%" stop-color="rgba(0, 0, 0, 0)" /></linearGradient><linearGradient gradientTransform="rotate(90)" id="h1"><stop offset="20%" stop-color="rgba(232,63,111,1)" /><stop offset="95%" stop-color="rgba(232,63,111,0)" /></linearGradient><linearGradient id="v1"><stop offset="20%" stop-color="rgba(232,63,111,1)" /><stop offset="95%" stop-color="rgba(232,63,111,0)" /></linearGradient><linearGradient gradientTransform="rotate(90)" id="h2"><stop offset="20%" stop-color="rgba(255,191,0,1)" /><stop offset="95%" stop-color="rgba(255,191,0,0)" /></linearGradient><linearGradient id="v2"><stop offset="20%" stop-color="rgba(255,191,0,1)" /><stop offset="95%" stop-color="rgba(255,191,0,0)" /></linearGradient><linearGradient gradientTransform="rotate(90)" id="h3"><stop offset="20%" stop-color="rgba(34,116,165,1)" /><stop offset="95%" stop-color="rgba(34,116,165,0)" /></linearGradient><linearGradient id="v3"><stop offset="20%" stop-color="rgba(34,116,165,1)" /><stop offset="95%" stop-color="rgba(34,116,165,0)" /></linearGradient><linearGradient gradientTransform="rotate(90)" id="h4"><stop offset="20%" stop-color="rgba(34,34,34,1)" /><stop offset="95%" stop-color="rgba(34,34,34,0)" /></linearGradient><linearGradient id="v4"><stop offset="20%" stop-color="rgba(34,34,34,1)" /><stop offset="95%" stop-color="rgba(34,34,34,0)" /></linearGradient><linearGradient gradientTransform="rotate(90)" id="h5"><stop offset="20%" stop-color="rgba(255,255,255,1)" /><stop offset="95%" stop-color="rgba(255,255,255,0)" /></linearGradient><linearGradient id="v5"><stop offset="20%" stop-color="rgba(255,255,255,1)" /><stop offset="95%" stop-color="rgba(255,255,255,0)" /></linearGradient><linearGradient gradientTransform="rotate(90)" id="h6"><stop offset="20%" stop-color="rgba(255,255,255,1)" /><stop offset="95%" stop-color="rgba(255,255,255,0)" /></linearGradient><linearGradient id="v6"><stop offset="20%" stop-color="rgba(255,255,255,1)" /><stop offset="95%" stop-color="rgba(255,255,255,0)" /></linearGradient><linearGradient gradientTransform="rotate(90)" id="h7"><stop offset="20%" stop-color="rgba(255,0,0,1)" /><stop offset="95%" stop-color="rgba(255,0,0,0)" /></linearGradient><linearGradient id="v7"><stop offset="20%" stop-color="rgba(255,0,0,1)" /><stop offset="95%" stop-color="rgba(255,0,0,0)" /></linearGradient></defs><g transform-origin="1500 1500" transform="scale(2)" opacity=".2"><g id="slashes"><g class="o"><path transform="translate(8,16)" class="S sf" d="M1088 1607 L1183 1702 L1199 1702 L1104 1607 Z"/><path class="f6" d="M1088 1607 L1183 1702 L1199 1702 L1104 1607 Z" /></g><g class="o"><path transform="translate(5,10)" class="S ss" d="M1391 1150 L1515 1026 L1529 1026 L1405 1150 Z"/><path class="s3" d="M1391 1150 L1515 1026 L1529 1026 L1405 1150 Z" /></g><g class="o"><path transform="translate(6,12)" class="S sf" d="M1523 1290 L1814 1581 L1822 1581 L1531 1290 Z"/><path class="f5" d="M1523 1290 L1814 1581 L1822 1581 L1531 1290 Z" /></g><g class="o"><path transform="translate(3,6)" class="S sf" d="M1128 942 L1854 1668 L1854 1688 L1128 962 Z"/><path class="f7" d="M1128 942 L1854 1668 L1854 1688 L1128 962 Z" /></g><g class="o"><path transform="translate(9,18)" class="S sf" d="M1747 1573 L1805 1631 L1841 1631 L1783 1573 Z"/><path class="f3" d="M1747 1573 L1805 1631 L1841 1631 L1783 1573 Z" /></g><g class="o"><path transform="translate(8,16)" class="S sf" d="M1635 1778 L1989 1424 L1989 1440 L1635 1794 Z"/><path class="f1" d="M1635 1778 L1989 1424 L1989 1440 L1635 1794 Z" /></g><g class="o"><path transform="translate(2,4)" class="S sf" d="M2028 1813 L2215 2000 L2237 2000 L2050 1813 Z"/><path class="f2" d="M2028 1813 L2215 2000 L2237 2000 L2050 1813 Z" /></g><g class="o"><path transform="translate(5,10)" class="S sf" d="M1618 1066 L2227 457 L2255 457 L1646 1066 Z"/><path class="f1" d="M1618 1066 L2227 457 L2255 457 L1646 1066 Z" /></g><g class="o"><path transform="translate(6,12)" class="S sf" d="M1876 1959 L2167 2250 L2311 2250 L2020 1959 Z"/><path class="f5" d="M1876 1959 L2167 2250 L2311 2250 L2020 1959 Z" /></g><g class="o"><path transform="translate(2,4)" class="S ss" d="M1470 1052 L1700 1282 L1736 1282 L1506 1052 Z"/><path class="s2" d="M1470 1052 L1700 1282 L1736 1282 L1506 1052 Z" /></g><g class="o"><path transform="translate(8,16)" class="S sf" d="M1080 1700 L1542 2162 L1542 2170 L1080 1708 Z"/><path class="f4" d="M1080 1700 L1542 2162 L1542 2170 L1080 1708 Z" /></g><g class="o"><path transform="translate(5,10)" class="S sf" d="M1687 1488 L2020 1155 L2020 1191 L1687 1524 Z"/><path class="f6" d="M1687 1488 L2020 1155 L2020 1191 L1687 1524 Z" /></g><g class="o"><path transform="translate(6,12)" class="S ss" d="M1135 1308 L1351 1524 L1387 1524 L1171 1308 Z"/><path class="s5" d="M1135 1308 L1351 1524 L1387 1524 L1171 1308 Z" /></g><g class="o"><path transform="translate(9,18)" class="S sf" d="M1094 1408 L1175 1489 L1175 1521 L1094 1440 Z"/><path class="f3" d="M1094 1408 L1175 1489 L1175 1521 L1094 1440 Z" /></g><g class="o"><path transform="translate(4,8)" class="S ss" d="M1226 1931 L1324 1833 L1350 1833 L1252 1931 Z"/><path class="s4" d="M1226 1931 L1324 1833 L1350 1833 L1252 1931 Z" /></g><g class="o"><path transform="translate(7,14)" class="S sf" d="M1885 1964 L2029 2108 L2093 2108 L1949 1964 Z"/><path class="f1" d="M1885 1964 L2029 2108 L2093 2108 L1949 1964 Z" /></g><g class="o"><path transform="translate(5,10)" class="S sf" d="M1065 996 L1500 1431 L1500 1445 L1065 1010 Z"/><path class="f2" d="M1065 996 L1500 1431 L1500 1445 L1065 1010 Z" /></g><g class="o"><path transform="translate(4,8)" class="S sf" d="M1772 1720 L2015 1963 L2015 1981 L1772 1738 Z"/><path class="f2" d="M1772 1720 L2015 1963 L2015 1981 L1772 1738 Z" /></g><g class="o"><path transform="translate(6,12)" class="S sf" d="M1589 1418 L1734 1273 L1734 1293 L1589 1438 Z"/><path class="f5" d="M1589 1418 L1734 1273 L1734 1293 L1589 1438 Z" /></g><g class="o"><path transform="translate(2,4)" class="S sf" d="M1342 1920 L1411 1851 L1411 1869 L1342 1938 Z"/><path class="f7" d="M1342 1920 L1411 1851 L1411 1869 L1342 1938 Z" /></g><g class="o"><path transform="translate(9,18)" class="S sf" d="M1557 1180 L1781 1404 L1797 1404 L1573 1180 Z"/><path class="f6" d="M1557 1180 L1781 1404 L1797 1404 L1573 1180 Z" /></g><g class="o"><path transform="translate(4,8)" class="S sf" d="M1581 1587 L1896 1902 L1912 1902 L1597 1587 Z"/><path class="f2" d="M1581 1587 L1896 1902 L1912 1902 L1597 1587 Z" /></g><g class="o"><path transform="translate(7,14)" class="S sf" d="M1333 1322 L1534 1523 L1534 1549 L1333 1348 Z"/><path class="f5" d="M1333 1322 L1534 1523 L1534 1549 L1333 1348 Z" /></g><g class="o"><path transform="translate(3,6)" class="S sf" d="M1068 1040 L1293 1265 L1293 1291 L1068 1066 Z"/><path class="f1" d="M1068 1040 L1293 1265 L1293 1291 L1068 1066 Z" /></g><g class="o"><path transform="translate(8,16)" class="S sf" d="M1316 1705 L1527 1494 L1527 1524 L1316 1735 Z"/><path class="f2" d="M1316 1705 L1527 1494 L1527 1524 L1316 1735 Z" /></g><g class="o"><path transform="translate(7,14)" class="S ss" d="M1694 1028 L2042 1376 L2042 1388 L1694 1040 Z"/><path class="s3" d="M1694 1028 L2042 1376 L2042 1388 L1694 1040 Z" /></g><g class="o"><path transform="translate(7,14)" class="S sf" d="M1890 2022 L2032 2164 L2032 2188 L1890 2046 Z"/><path class="f4" d="M1890 2022 L2032 2164 L2032 2188 L1890 2046 Z" /></g><g class="o"><path transform="translate(2,4)" class="S sf" d="M1124 1518 L1237 1405 L1265 1405 L1152 1518 Z"/><path class="f4" d="M1124 1518 L1237 1405 L1265 1405 L1152 1518 Z" /></g><g class="o"><path transform="translate(5,10)" class="S sf" d="M1488 1656 L1887 2055 L1887 2207 L1488 1808 Z"/><path class="f3" d="M1488 1656 L1887 2055 L1887 2207 L1488 1808 Z" /></g><g class="o"><path transform="translate(3,6)" class="S sf" d="M1841 1917 L2357 2433 L2357 2445 L1841 1929 Z"/><path class="f1" d="M1841 1917 L2357 2433 L2357 2445 L1841 1929 Z" /></g><g class="o"><path transform="translate(8,16)" class="S sf" d="M1861 1900 L2563 2602 L2563 2624 L1861 1922 Z"/><path class="f3" d="M1861 1900 L2563 2602 L2563 2624 L1861 1922 Z" /></g><g class="o"><path transform="translate(6,12)" class="S ss" d="M1124 1359 L1358 1593 L1358 1611 L1124 1377 Z"/><path class="s2" d="M1124 1359 L1358 1593 L1358 1611 L1124 1377 Z" /></g><g class="o"><path transform="translate(4,8)" class="S sf" d="M1926 1783 L2097 1954 L2097 1968 L1926 1797 Z"/><path class="f6" d="M1926 1783 L2097 1954 L2097 1968 L1926 1797 Z" /></g><g class="o"><path transform="translate(3,6)" class="S ss" d="M1674 1359 L1783 1468 L1803 1468 L1694 1359 Z"/><path class="s7" d="M1674 1359 L1783 1468 L1803 1468 L1694 1359 Z" /></g><g class="o"><path transform="translate(2,4)" class="S ss" d="M1265 1821 L1808 2364 L1808 2386 L1265 1843 Z"/><path class="s1" d="M1265 1821 L1808 2364 L1808 2386 L1265 1843 Z" /></g><g class="o"><path transform="translate(5,10)" class="S sf" d="M1355 1907 L1472 2024 L1480 2024 L1363 1907 Z"/><path class="f1" d="M1355 1907 L1472 2024 L1480 2024 L1363 1907 Z" /></g><g class="o"><path transform="translate(4,8)" class="S sf" d="M1741 1457 L2167 1883 L2167 1917 L1741 1491 Z"/><path class="f4" d="M1741 1457 L2167 1883 L2167 1917 L1741 1491 Z" /></g><g class="o"><path transform="translate(8,16)" class="S sf" d="M1898 1428 L2081 1611 L2099 1611 L1916 1428 Z"/><path class="f2" d="M1898 1428 L2081 1611 L2099 1611 L1916 1428 Z" /></g><g class="o"><path transform="translate(7,14)" class="S sf" d="M1058 907 L1167 1016 L1167 1152 L1058 1043 Z"/><path class="f2" d="M1058 907 L1167 1016 L1167 1152 L1058 1043 Z" /></g><g class="o"><path transform="translate(5,10)" class="S sf" d="M1537 1285 L1634 1382 L1662 1382 L1565 1285 Z"/><path class="f2" d="M1537 1285 L1634 1382 L1662 1382 L1565 1285 Z" /></g><g class="o"><path transform="translate(6,12)" class="S sf" d="M1852 1846 L2088 1610 L2088 1644 L1852 1880 Z"/><path class="f1" d="M1852 1846 L2088 1610 L2088 1644 L1852 1880 Z" /></g><g class="o"><path transform="translate(4,8)" class="S sf" d="M1726 1334 L1799 1407 L1829 1407 L1756 1334 Z"/><path class="f5" d="M1726 1334 L1799 1407 L1829 1407 L1756 1334 Z" /></g><g class="o"><path transform="translate(5,10)" class="S sf" d="M1973 1695 L2645 2367 L2661 2367 L1989 1695 Z"/><path class="f7" d="M1973 1695 L2645 2367 L2661 2367 L1989 1695 Z" /></g><g class="o"><path transform="translate(3,6)" class="S sf" d="M1898 1306 L2078 1486 L2114 1486 L1934 1306 Z"/><path class="f6" d="M1898 1306 L2078 1486 L2114 1486 L1934 1306 Z" /></g><g class="o"><path transform="translate(3,6)" class="S sf" d="M996 1659 L1207 1870 L1207 1880 L996 1669 Z"/><path class="f7" d="M996 1659 L1207 1870 L1207 1880 L996 1669 Z" /></g><g class="o"><path transform="translate(7,14)" class="S ss" d="M1484 1990 L1646 1828 L1646 1848 L1484 2010 Z"/><path class="s2" d="M1484 1990 L1646 1828 L1646 1848 L1484 2010 Z" /></g><g class="o"><path transform="translate(2,4)" class="S sf" d="M1825 1094 L1910 1179 L1910 1197 L1825 1112 Z"/><path class="f7" d="M1825 1094 L1910 1179 L1910 1197 L1825 1112 Z" /></g><g class="o"><path transform="translate(8,16)" class="S sf" d="M995 1250 L1184 1061 L1184 1099 L995 1288 Z"/><path class="f7" d="M995 1250 L1184 1061 L1184 1099 L995 1288 Z" /></g><g class="o"><path transform="translate(4,8)" class="S ss" d="M1336 1416 L1541 1621 L1577 1621 L1372 1416 Z"/><path class="s1" d="M1336 1416 L1541 1621 L1577 1621 L1372 1416 Z" /></g><g class="o"><path transform="translate(2,4)" class="S sf" d="M1550 941 L2258 1649 L2258 1679 L1550 971 Z"/><path class="f5" d="M1550 941 L2258 1649 L2258 1679 L1550 971 Z" /></g><g class="o"><path transform="translate(8,16)" class="S sf" d="M1540 1464 L2275 2199 L2309 2199 L1574 1464 Z"/><path class="f3" d="M1540 1464 L2275 2199 L2309 2199 L1574 1464 Z" /></g><g class="o"><path transform="translate(3,6)" class="S sf" d="M1827 1710 L2027 1910 L2035 1910 L1835 1710 Z"/><path class="f1" d="M1827 1710 L2027 1910 L2035 1910 L1835 1710 Z" /></g><g class="o"><path transform="translate(7,14)" class="S sf" d="M1713 1367 L2016 1064 L2044 1064 L1741 1367 Z"/><path class="f3" d="M1713 1367 L2016 1064 L2044 1064 L1741 1367 Z" /></g><g class="o"><path transform="translate(5,10)" class="S sf" d="M1322 1392 L1490 1224 L1512 1224 L1344 1392 Z"/><path class="f1" d="M1322 1392 L1490 1224 L1512 1224 L1344 1392 Z" /></g><g class="o"><path transform="translate(6,12)" class="S ss" d="M1097 1186 L1338 945 L1346 945 L1105 1186 Z"/><path class="s1" d="M1097 1186 L1338 945 L1346 945 L1105 1186 Z" /></g><g class="o"><path transform="translate(6,12)" class="S sf" d="M1010 1535 L1628 917 L1628 941 L1010 1559 Z"/><path class="f1" d="M1010 1535 L1628 917 L1628 941 L1010 1559 Z" /></g><g class="o"><path transform="translate(5,10)" class="S sf" d="M1223 1770 L1330 1877 L1330 1895 L1223 1788 Z"/><path class="f7" d="M1223 1770 L1330 1877 L1330 1895 L1223 1788 Z" /></g><g class="o"><path transform="translate(9,18)" class="S sf" d="M1166 1710 L1430 1974 L1452 1974 L1188 1710 Z"/><path class="f6" d="M1166 1710 L1430 1974 L1452 1974 L1188 1710 Z" /></g><g class="o"><path transform="translate(9,18)" class="S sf" d="M1493 2025 L1608 2140 L1608 2158 L1493 2043 Z"/><path class="f2" d="M1493 2025 L1608 2140 L1608 2158 L1493 2043 Z" /></g><g class="o"><path transform="translate(5,10)" class="S sf" d="M1821 1606 L2054 1373 L2090 1373 L1857 1606 Z"/><path class="f7" d="M1821 1606 L2054 1373 L2090 1373 L1857 1606 Z" /></g><g class="o"><path transform="translate(7,14)" class="S sf" d="M2049 1306 L2269 1086 L2269 1122 L2049 1342 Z"/><path class="f1" d="M2049 1306 L2269 1086 L2269 1122 L2049 1342 Z" /></g><g class="o"><path transform="translate(3,6)" class="S sf" d="M1320 1027 L1418 1125 L1428 1125 L1330 1027 Z"/><path class="f2" d="M1320 1027 L1418 1125 L1428 1125 L1330 1027 Z" /></g><g class="o"><path transform="translate(9,18)" class="S sf" d="M1438 1503 L1585 1650 L1615 1650 L1468 1503 Z"/><path class="f1" d="M1438 1503 L1585 1650 L1615 1650 L1468 1503 Z" /></g><g class="o"><path transform="translate(3,6)" class="S ss" d="M1159 1959 L1429 2229 L1459 2229 L1189 1959 Z"/><path class="s1" d="M1159 1959 L1429 2229 L1459 2229 L1189 1959 Z" /></g><g class="o"><path transform="translate(8,16)" class="S sf" d="M1863 1521 L2574 2232 L2574 2252 L1863 1541 Z"/><path class="f3" d="M1863 1521 L2574 2232 L2574 2252 L1863 1541 Z" /></g><g class="o"><path transform="translate(4,8)" class="S sf" d="M1895 2041 L2046 2192 L2074 2192 L1923 2041 Z"/><path class="f6" d="M1895 2041 L2046 2192 L2074 2192 L1923 2041 Z" /></g><g class="o"><path transform="translate(7,14)" class="S sf" d="M1101 1381 L1247 1527 L1277 1527 L1131 1381 Z"/><path class="f5" d="M1101 1381 L1247 1527 L1277 1527 L1131 1381 Z" /></g><g class="o"><path transform="translate(6,12)" class="S sf" d="M1506 1289 L1743 1526 L1779 1526 L1542 1289 Z"/><path class="f2" d="M1506 1289 L1743 1526 L1779 1526 L1542 1289 Z" /></g><g class="o"><path transform="translate(3,6)" class="S sf" d="M1754 1724 L2054 2024 L2072 2024 L1772 1724 Z"/><path class="f1" d="M1754 1724 L2054 2024 L2072 2024 L1772 1724 Z" /></g><g class="o"><path transform="translate(3,6)" class="S ss" d="M1308 1744 L1509 1543 L1539 1543 L1338 1744 Z"/><path class="s2" d="M1308 1744 L1509 1543 L1539 1543 L1338 1744 Z" /></g><g class="o"><path transform="translate(5,10)" class="S sf" d="M1792 1853 L2176 2237 L2328 2237 L1944 1853 Z"/><path class="f1" d="M1792 1853 L2176 2237 L2328 2237 L1944 1853 Z" /></g><g class="o"><path transform="translate(3,6)" class="S sf" d="M2024 1039 L2172 891 L2172 923 L2024 1071 Z"/><path class="f2" d="M2024 1039 L2172 891 L2172 923 L2024 1071 Z" /></g><g class="o"><path transform="translate(2,4)" class="S sf" d="M1785 1131 L1864 1052 L1874 1052 L1795 1131 Z"/><path class="f5" d="M1785 1131 L1864 1052 L1874 1052 L1795 1131 Z" /></g><g class="o"><path transform="translate(5,10)" class="S sf" d="M1156 1439 L1314 1597 L1314 1613 L1156 1455 Z"/><path class="f6" d="M1156 1439 L1314 1597 L1314 1613 L1156 1455 Z" /></g><g class="o"><path transform="translate(8,16)" class="S sf" d="M1902 1246 L2042 1386 L2042 1394 L1902 1254 Z"/><path class="f1" d="M1902 1246 L2042 1386 L2042 1394 L1902 1254 Z" /></g><g class="o"><path transform="translate(2,4)" class="S sf" d="M1202 1874 L1333 2005 L1361 2005 L1230 1874 Z"/><path class="f2" d="M1202 1874 L1333 2005 L1361 2005 L1230 1874 Z" /></g><g class="o"><path transform="translate(5,10)" class="S sf" d="M1648 1696 L1698 1746 L1698 1780 L1648 1730 Z"/><path class="f4" d="M1648 1696 L1698 1746 L1698 1780 L1648 1730 Z" /></g><g class="o"><path transform="translate(8,16)" class="S sf" d="M1508 1533 L1820 1845 L1858 1845 L1546 1533 Z"/><path class="f7" d="M1508 1533 L1820 1845 L1858 1845 L1546 1533 Z" /></g><g class="o"><path transform="translate(6,12)" class="S sf" d="M1233 1688 L1530 1985 L1530 1997 L1233 1700 Z"/><path class="f1" d="M1233 1688 L1530 1985 L1530 1997 L1233 1700 Z" /></g><g class="o"><path transform="translate(5,10)" class="S ss" d="M1104 1822 L1262 1980 L1276 1980 L1118 1822 Z"/><path class="s6" d="M1104 1822 L1262 1980 L1276 1980 L1118 1822 Z" /></g><g class="o"><path transform="translate(9,18)" class="S sf" d="M1434 1122 L2157 399 L2181 399 L1458 1122 Z"/><path class="f6" d="M1434 1122 L2157 399 L2181 399 L1458 1122 Z" /></g><g class="o"><path transform="translate(5,10)" class="S sf" d="M1508 1400 L1970 1862 L1990 1862 L1528 1400 Z"/><path class="f1" d="M1508 1400 L1970 1862 L1990 1862 L1528 1400 Z" /></g><g class="o"><path transform="translate(6,12)" class="S ss" d="M992 1500 L1487 1995 L1487 2031 L992 1536 Z"/><path class="s6" d="M992 1500 L1487 1995 L1487 2031 L992 1536 Z" /></g><g class="o"><path transform="translate(2,4)" class="S ss" d="M1334 1789 L2030 2485 L2060 2485 L1364 1789 Z"/><path class="s1" d="M1334 1789 L2030 2485 L2060 2485 L1364 1789 Z" /></g><g class="o"><path transform="translate(7,14)" class="S ss" d="M1096 1971 L1465 2340 L1483 2340 L1114 1971 Z"/><path class="s6" d="M1096 1971 L1465 2340 L1483 2340 L1114 1971 Z" /></g><g class="o"><path transform="translate(2,4)" class="S sf" d="M1073 1129 L1295 1351 L1295 1389 L1073 1167 Z"/><path class="f2" d="M1073 1129 L1295 1351 L1295 1389 L1073 1167 Z" /></g><g class="o"><path transform="translate(8,16)" class="S ss" d="M1421 1290 L1611 1480 L1611 1502 L1421 1312 Z"/><path class="s1" d="M1421 1290 L1611 1480 L1611 1502 L1421 1312 Z" /></g><g class="o"><path transform="translate(7,14)" class="S sf" d="M982 1834 L1099 1951 L1099 1969 L982 1852 Z"/><path class="f6" d="M982 1834 L1099 1951 L1099 1969 L982 1852 Z" /></g><g class="o"><path transform="translate(9,18)" class="S ss" d="M1036 2033 L1519 2516 L1519 2532 L1036 2049 Z"/><path class="s6" d="M1036 2033 L1519 2516 L1519 2532 L1036 2049 Z" /></g><g class="o"><path transform="translate(3,6)" class="S sf" d="M1947 1985 L2109 2147 L2143 2147 L1981 1985 Z"/><path class="f5" d="M1947 1985 L2109 2147 L2143 2147 L1981 1985 Z" /></g><g class="o"><path transform="translate(2,4)" class="S sf" d="M1995 1185 L2113 1303 L2113 1311 L1995 1193 Z"/><path class="f7" d="M1995 1185 L2113 1303 L2113 1311 L1995 1193 Z" /></g><g class="o"><path transform="translate(9,18)" class="S sf" d="M1037 1003 L1721 1687 L1721 1721 L1037 1037 Z"/><path class="f2" d="M1037 1003 L1721 1687 L1721 1721 L1037 1037 Z" /></g><g class="o"><path transform="translate(5,10)" class="S ss" d="M1063 1990 L1525 2452 L1525 2548 L1063 2086 Z"/><path class="s2" d="M1063 1990 L1525 2452 L1525 2548 L1063 2086 Z" /></g><g class="o"><path transform="translate(6,12)" class="S sf" d="M1797 1344 L2442 1989 L2456 1989 L1811 1344 Z"/><path class="f2" d="M1797 1344 L2442 1989 L2456 1989 L1811 1344 Z" /></g><g class="o"><path transform="translate(5,10)" class="S sf" d="M1566 1707 L2193 2334 L2201 2334 L1574 1707 Z"/><path class="f6" d="M1566 1707 L2193 2334 L2201 2334 L1574 1707 Z" /></g><g class="o"><path transform="translate(4,8)" class="S ss" d="M1597 1989 L1705 1881 L1705 1901 L1597 2009 Z"/><path class="s4" d="M1597 1989 L1705 1881 L1705 1901 L1597 2009 Z" /></g><g class="o"><path transform="translate(8,16)" class="S sf" d="M1967 1482 L2261 1776 L2289 1776 L1995 1482 Z"/><path class="f1" d="M1967 1482 L2261 1776 L2289 1776 L1995 1482 Z" /></g><g class="o"><path transform="translate(8,16)" class="S sf" d="M1017 1466 L1178 1627 L1178 1641 L1017 1480 Z"/><path class="f5" d="M1017 1466 L1178 1627 L1178 1641 L1017 1480 Z" /></g><g class="o"><path transform="translate(5,10)" class="S sf" d="M1528 1369 L2059 1900 L2093 1900 L1562 1369 Z"/><path class="f6" d="M1528 1369 L2059 1900 L2093 1900 L1562 1369 Z" /></g><g class="o"><path transform="translate(5,10)" class="S sf" d="M1143 2022 L1521 2400 L1577 2400 L1199 2022 Z"/><path class="f3" d="M1143 2022 L1521 2400 L1577 2400 L1199 2022 Z" /></g><g class="o"><path transform="translate(4,8)" class="S sf" d="M1659 1560 L1810 1409 L1810 1417 L1659 1568 Z"/><path class="f4" d="M1659 1560 L1810 1409 L1810 1417 L1659 1568 Z" /></g><g class="o"><path transform="translate(6,12)" class="S sf" d="M1614 1911 L1825 1700 L1825 1718 L1614 1929 Z"/><path class="f3" d="M1614 1911 L1825 1700 L1825 1718 L1614 1929 Z" /></g><g class="o"><path transform="translate(7,14)" class="S ss" d="M1550 1737 L2234 1053 L2270 1053 L1586 1737 Z"/><path class="s3" d="M1550 1737 L2234 1053 L2270 1053 L1586 1737 Z" /></g><g class="o"><path transform="translate(5,10)" class="S ss" d="M1102 1953 L1207 1848 L1225 1848 L1120 1953 Z"/><path class="s5" d="M1102 1953 L1207 1848 L1225 1848 L1120 1953 Z" /></g><g class="o"><path transform="translate(4,8)" class="S sf" d="M976 1526 L1129 1679 L1129 1693 L976 1540 Z"/><path class="f7" d="M976 1526 L1129 1679 L1129 1693 L976 1540 Z" /></g><g class="o"><path transform="translate(9,18)" class="S sf" d="M1646 1420 L1802 1576 L1834 1576 L1678 1420 Z"/><path class="f5" d="M1646 1420 L1802 1576 L1834 1576 L1678 1420 Z" /></g><g class="o"><path transform="translate(9,18)" class="S sf" d="M1962 1059 L2559 1656 L2593 1656 L1996 1059 Z"/><path class="f4" d="M1962 1059 L2559 1656 L2593 1656 L1996 1059 Z" /></g><g class="o"><path transform="translate(8,16)" class="S sf" d="M1849 1551 L2011 1713 L2075 1713 L1913 1551 Z"/><path class="f3" d="M1849 1551 L2011 1713 L2075 1713 L1913 1551 Z" /></g><g class="o"><path transform="translate(9,18)" class="S sf" d="M1078 1645 L1238 1805 L1238 1827 L1078 1667 Z"/><path class="f1" d="M1078 1645 L1238 1805 L1238 1827 L1078 1667 Z" /></g><g class="o"><path transform="translate(6,12)" class="S sf" d="M1725 1457 L1941 1241 L1941 1249 L1725 1465 Z"/><path class="f1" d="M1725 1457 L1941 1241 L1941 1249 L1725 1465 Z" /></g><g class="o"><path transform="translate(9,18)" class="S sf" d="M1514 1377 L1733 1596 L1753 1596 L1534 1377 Z"/><path class="f1" d="M1514 1377 L1733 1596 L1753 1596 L1534 1377 Z" /></g><g class="o"><path transform="translate(5,10)" class="S ss" d="M1458 1668 L1698 1908 L1708 1908 L1468 1668 Z"/><path class="s2" d="M1458 1668 L1698 1908 L1708 1908 L1468 1668 Z" /></g><g class="o"><path transform="translate(6,12)" class="S sf" d="M1318 1624 L1987 2293 L1987 2323 L1318 1654 Z"/><path class="f4" d="M1318 1624 L1987 2293 L1987 2323 L1318 1654 Z" /></g><g class="o"><path transform="translate(2,4)" class="S sf" d="M1815 1647 L2523 2355 L2523 2369 L1815 1661 Z"/><path class="f3" d="M1815 1647 L2523 2355 L2523 2369 L1815 1661 Z" /></g><g class="o"><path transform="translate(3,6)" class="S sf" d="M958 1876 L1192 1642 L1192 1674 L958 1908 Z"/><path class="f6" d="M958 1876 L1192 1642 L1192 1674 L958 1908 Z" /></g><g class="o"><path transform="translate(4,8)" class="S sf" d="M1723 1112 L2188 647 L2226 647 L1761 1112 Z"/><path class="f4" d="M1723 1112 L2188 647 L2226 647 L1761 1112 Z" /></g><g class="o"><path transform="translate(5,10)" class="S sf" d="M1445 1124 L1547 1022 L1581 1022 L1479 1124 Z"/><path class="f7" d="M1445 1124 L1547 1022 L1581 1022 L1479 1124 Z" /></g><g class="o"><path transform="translate(7,14)" class="S sf" d="M1071 2012 L1197 2138 L1217 2138 L1091 2012 Z"/><path class="f3" d="M1071 2012 L1197 2138 L1217 2138 L1091 2012 Z" /></g><g class="o"><path transform="translate(6,12)" class="S sf" d="M1460 1755 L1658 1953 L1676 1953 L1478 1755 Z"/><path class="f6" d="M1460 1755 L1658 1953 L1676 1953 L1478 1755 Z" /></g><g class="o"><path transform="translate(7,14)" class="S ss" d="M1650 1104 L1905 1359 L1939 1359 L1684 1104 Z"/><path class="s2" d="M1650 1104 L1905 1359 L1939 1359 L1684 1104 Z" /></g><g class="o"><path transform="translate(6,12)" class="S sf" d="M975 1818 L1215 1578 L1215 1590 L975 1830 Z"/><path class="f7" d="M975 1818 L1215 1578 L1215 1590 L975 1830 Z" /></g><g class="o"><path transform="translate(5,10)" class="S sf" d="M1367 1979 L1516 2128 L1548 2128 L1399 1979 Z"/><path class="f1" d="M1367 1979 L1516 2128 L1548 2128 L1399 1979 Z" /></g><g class="o"><path transform="translate(8,16)" class="S sf" d="M1958 1281 L2128 1111 L2128 1125 L1958 1295 Z"/><path class="f2" d="M1958 1281 L2128 1111 L2128 1125 L1958 1295 Z" /></g><g class="o"><path transform="translate(2,4)" class="S sf" d="M1107 1869 L1497 2259 L1509 2259 L1119 1869 Z"/><path class="f2" d="M1107 1869 L1497 2259 L1509 2259 L1119 1869 Z" /></g><g class="o"><path transform="translate(7,14)" class="S sf" d="M1256 2031 L1409 1878 L1425 1878 L1272 2031 Z"/><path class="f6" d="M1256 2031 L1409 1878 L1425 1878 L1272 2031 Z" /></g><g class="o"><path transform="translate(3,6)" class="S sf" d="M1716 1792 L2103 2179 L2103 2259 L1716 1872 Z"/><path class="f2" d="M1716 1792 L2103 2179 L2103 2259 L1716 1872 Z" /></g><g class="o"><path transform="translate(3,6)" class="S sf" d="M1349 1503 L1595 1749 L1625 1749 L1379 1503 Z"/><path class="f3" d="M1349 1503 L1595 1749 L1625 1749 L1379 1503 Z" /></g><g class="o"><path transform="translate(2,4)" class="S sf" d="M998 1519 L1059 1580 L1059 1628 L998 1567 Z"/><path class="f1" d="M998 1519 L1059 1580 L1059 1628 L998 1567 Z" /></g><g class="o"><path transform="translate(3,6)" class="S sf" d="M1007 1125 L1244 1362 L1280 1362 L1043 1125 Z"/><path class="f4" d="M1007 1125 L1244 1362 L1280 1362 L1043 1125 Z" /></g><g class="o"><path transform="translate(9,18)" class="S sf" d="M1821 1425 L2036 1640 L2064 1640 L1849 1425 Z"/><path class="f4" d="M1821 1425 L2036 1640 L2064 1640 L1849 1425 Z" /></g><g class="o"><path transform="translate(4,8)" class="S sf" d="M1639 969 L2065 1395 L2065 1413 L1639 987 Z"/><path class="f5" d="M1639 969 L2065 1395 L2065 1413 L1639 987 Z" /></g><g class="o"><path transform="translate(4,8)" class="S sf" d="M1931 1257 L2609 579 L2609 611 L1931 1289 Z"/><path class="f4" d="M1931 1257 L2609 579 L2609 611 L1931 1289 Z" /></g><g class="o"><path transform="translate(8,16)" class="S ss" d="M1109 1337 L1544 1772 L1576 1772 L1141 1337 Z"/><path class="s1" d="M1109 1337 L1544 1772 L1576 1772 L1141 1337 Z" /></g><g class="o"><path transform="translate(5,10)" class="S sf" d="M1724 1324 L2120 1720 L2140 1720 L1744 1324 Z"/><path class="f4" d="M1724 1324 L2120 1720 L2140 1720 L1744 1324 Z" /></g><g class="o"><path transform="translate(2,4)" class="S ss" d="M1117 1008 L1528 1419 L1528 1445 L1117 1034 Z"/><path class="s6" d="M1117 1008 L1528 1419 L1528 1445 L1117 1034 Z" /></g><g class="o"><path transform="translate(7,14)" class="S sf" d="M1281 1675 L1815 1141 L1815 1171 L1281 1705 Z"/><path class="f6" d="M1281 1675 L1815 1141 L1815 1171 L1281 1705 Z" /></g><g class="o"><path transform="translate(2,4)" class="S ss" d="M1953 1947 L2421 1479 L2421 1487 L1953 1955 Z"/><path class="s5" d="M1953 1947 L2421 1479 L2421 1487 L1953 1955 Z" /></g><g class="o"><path transform="translate(3,6)" class="S sf" d="M1326 1920 L1429 2023 L1429 2031 L1326 1928 Z"/><path class="f3" d="M1326 1920 L1429 2023 L1429 2031 L1326 1928 Z" /></g><g class="o"><path transform="translate(7,14)" class="S sf" d="M1015 1847 L1729 2561 L1729 2573 L1015 1859 Z"/><path class="f6" d="M1015 1847 L1729 2561 L1729 2573 L1015 1859 Z" /></g><g class="o"><path transform="translate(5,10)" class="S sf" d="M1877 1592 L2192 1907 L2224 1907 L1909 1592 Z"/><path class="f5" d="M1877 1592 L2192 1907 L2224 1907 L1909 1592 Z" /></g></g><use href="#slashes" transform-origin="1500 1500" transform="rotate(180) scale(2)"/></g><rect x="1080" y="1080" width="840" height="840" stroke-width="20" class="o s5" /><use href="#slashes" transform-origin="1500 1500" transform="scale(.6)"/><use href="#slashes" transform-origin="1500 1500" transform="rotate(180) scale(.6)"/></svg>