<svg xmlns="http://www.w3.org/2000/svg" viewBox="750 750 1500 1500"><style>/*<![CDATA[*/svg{background:rgb(251,251,255);max-width:100vw;max-height:100vh}path{stroke-width:4}.o{opacity:.75}.S{opacity:.4}.sf{stroke:none;fill:black}.sfh{stroke:none;fill:url(#hs)}.sfv{stroke:none;fill:url(#vs)}.ss{stroke:black;fill:none}.ssh{stroke:url(#hs);fill:none}.ssv{stroke:url(#vs);fill:none}.s1{fill:none;stroke:rgb(32,191,85)}.f1{stroke:none;fill:rgb(32,191,85)}.sh1{fill:none;stroke:url(#h1)}.fh1{stroke:none;fill:url(#h1)}.sv1{fill:none;stroke:url(#v1)}.fv1{stroke:none;fill:url(#v1)}.s2{fill:none;stroke:rgb(34,34,34)}.f2{stroke:none;fill:rgb(34,34,34)}.sh2{fill:none;stroke:url(#h2)}.fh2{stroke:none;fill:url(#h2)}.sv2{fill:none;stroke:url(#v2)}.fv2{stroke:none;fill:url(#v2)}.s3{fill:none;stroke:rgb(11,79,108)}.f3{stroke:none;fill:rgb(11,79,108)}.sh3{fill:none;stroke:url(#h3)}.fh3{stroke:none;fill:url(#h3)}.sv3{fill:none;stroke:url(#v3)}.fv3{stroke:none;fill:url(#v3)}.s4{fill:none;stroke:rgb(117,117,117)}.f4{stroke:none;fill:rgb(117,117,117)}.sh4{fill:none;stroke:url(#h4)}.fh4{stroke:none;fill:url(#h4)}.sv4{fill:none;stroke:url(#v4)}.fv4{stroke:none;fill:url(#v4)}.s5{fill:none;stroke:rgb(41,42,115)}.f5{stroke:none;fill:rgb(41,42,115)}.sh5{fill:none;stroke:url(#h5)}.fh5{stroke:none;fill:url(#h5)}.sv5{fill:none;stroke:url(#v5)}.fv5{stroke:none;fill:url(#v5)}.s6{fill:none;stroke:rgb(255,255,255)}.f6{stroke:none;fill:rgb(255,255,255)}.sh6{fill:none;stroke:url(#h6)}.fh6{stroke:none;fill:url(#h6)}.sv6{fill:none;stroke:url(#v6)}.fv6{stroke:none;fill:url(#v6)}.s7{fill:none;stroke:rgb(255,0,0)}.f7{stroke:none;fill:rgb(255,0,0)}.sh7{fill:none;stroke:url(#h7)}.fh7{stroke:none;fill:url(#h7)}.sv7{fill:none;stroke:url(#v7)}.fv7{stroke:none;fill:url(#v7)}/*]]>*/</style><defs><linearGradient gradientTransform="rotate(90)" id="hs"><stop offset="20%" stop-color="#000" /><stop offset="95%" stop-color="rgba(0, 0, 0, 0)" /></linearGradient><linearGradient id="vs"><stop offset="20%" stop-color="#000" /><stop offset="95%" stop-color="rgba(0, 0, 0, 0)" /></linearGradient><linearGradient gradientTransform="rotate(90)" id="h1"><stop offset="20%" stop-color="rgba(32,191,85,1)" /><stop offset="95%" stop-color="rgba(32,191,85,0)" /></linearGradient><linearGradient id="v1"><stop offset="20%" stop-color="rgba(32,191,85,1)" /><stop offset="95%" stop-color="rgba(32,191,85,0)" /></linearGradient><linearGradient gradientTransform="rotate(90)" id="h2"><stop offset="20%" stop-color="rgba(34,34,34,1)" /><stop offset="95%" stop-color="rgba(34,34,34,0)" /></linearGradient><linearGradient id="v2"><stop offset="20%" stop-color="rgba(34,34,34,1)" /><stop offset="95%" stop-color="rgba(34,34,34,0)" /></linearGradient><linearGradient gradientTransform="rotate(90)" id="h3"><stop offset="20%" stop-color="rgba(11,79,108,1)" /><stop offset="95%" stop-color="rgba(11,79,108,0)" /></linearGradient><linearGradient id="v3"><stop offset="20%" stop-color="rgba(11,79,108,1)" /><stop offset="95%" stop-color="rgba(11,79,108,0)" /></linearGradient><linearGradient gradientTransform="rotate(90)" id="h4"><stop offset="20%" stop-color="rgba(117,117,117,1)" /><stop offset="95%" stop-color="rgba(117,117,117,0)" /></linearGradient><linearGradient id="v4"><stop offset="20%" stop-color="rgba(117,117,117,1)" /><stop offset="95%" stop-color="rgba(117,117,117,0)" /></linearGradient><linearGradient gradientTransform="rotate(90)" id="h5"><stop offset="20%" stop-color="rgba(41,42,115,1)" /><stop offset="95%" stop-color="rgba(41,42,115,0)" /></linearGradient><linearGradient id="v5"><stop offset="20%" stop-color="rgba(41,42,115,1)" /><stop offset="95%" stop-color="rgba(41,42,115,0)" /></linearGradient><linearGradient gradientTransform="rotate(90)" id="h6"><stop offset="20%" stop-color="rgba(255,255,255,1)" /><stop offset="95%" stop-color="rgba(255,255,255,0)" /></linearGradient><linearGradient id="v6"><stop offset="20%" stop-color="rgba(255,255,255,1)" /><stop offset="95%" stop-color="rgba(255,255,255,0)" /></linearGradient><linearGradient gradientTransform="rotate(90)" id="h7"><stop offset="20%" stop-color="rgba(255,0,0,1)" /><stop offset="95%" stop-color="rgba(255,0,0,0)" /></linearGradient><linearGradient id="v7"><stop offset="20%" stop-color="rgba(255,0,0,1)" /><stop offset="95%" stop-color="rgba(255,0,0,0)" /></linearGradient></defs><g transform-origin="1500 1500" transform="scale(2)" opacity=".6"><g id="slashes"><g class="o"><path transform="translate(8,16)" class="S sfh" d="M1206 1391 L1452 1145 L1466 1145 L1220 1391 Z"/><path class="fh4" d="M1206 1391 L1452 1145 L1466 1145 L1220 1391 Z" /></g><g class="o"><path transform="translate(9,18)" class="S ssh" d="M948 1039 L1195 1286 L1299 1286 L1052 1039 Z"/><path class="sh5" d="M948 1039 L1195 1286 L1299 1286 L1052 1039 Z" /></g><g class="o"><path transform="translate(9,18)" class="S sfh" d="M1121 1035 L1207 949 L1231 949 L1145 1035 Z"/><path class="fh2" d="M1121 1035 L1207 949 L1231 949 L1145 1035 Z" /></g><g class="o"><path transform="translate(9,18)" class="S sfh" d="M1618 1025 L1699 944 L1725 944 L1644 1025 Z"/><path class="fh6" d="M1618 1025 L1699 944 L1725 944 L1644 1025 Z" /></g><g class="o"><path transform="translate(5,10)" class="S sfv" d="M1201 1476 L1307 1582 L1307 1620 L1201 1514 Z"/><path class="fv6" d="M1201 1476 L1307 1582 L1307 1620 L1201 1514 Z" /></g><g class="o"><path transform="translate(2,4)" class="S sfh" d="M1704 1574 L2127 1151 L2139 1151 L1716 1574 Z"/><path class="fh3" d="M1704 1574 L2127 1151 L2139 1151 L1716 1574 Z" /></g><g class="o"><path transform="translate(7,14)" class="S sfh" d="M971 1945 L1168 1748 L1204 1748 L1007 1945 Z"/><path class="fh3" d="M971 1945 L1168 1748 L1204 1748 L1007 1945 Z" /></g><g class="o"><path transform="translate(2,4)" class="S ssh" d="M2032 1930 L2270 2168 L2290 2168 L2052 1930 Z"/><path class="sh2" d="M2032 1930 L2270 2168 L2290 2168 L2052 1930 Z" /></g><g class="o"><path transform="translate(2,4)" class="S sfv" d="M1292 1391 L1958 2057 L1958 2185 L1292 1519 Z"/><path class="fv3" d="M1292 1391 L1958 2057 L1958 2185 L1292 1519 Z" /></g><g class="o"><path transform="translate(3,6)" class="S sfh" d="M1403 1314 L1509 1208 L1545 1208 L1439 1314 Z"/><path class="fh1" d="M1403 1314 L1509 1208 L1545 1208 L1439 1314 Z" /></g><g class="o"><path transform="translate(2,4)" class="S sfv" d="M1518 1357 L1667 1506 L1667 1524 L1518 1375 Z"/><path class="fv1" d="M1518 1357 L1667 1506 L1667 1524 L1518 1375 Z" /></g><g class="o"><path transform="translate(9,18)" class="S sfh" d="M1593 1015 L1683 925 L1703 925 L1613 1015 Z"/><path class="fh6" d="M1593 1015 L1683 925 L1703 925 L1613 1015 Z" /></g><g class="o"><path transform="translate(2,4)" class="S sfh" d="M1996 1046 L2230 1280 L2260 1280 L2026 1046 Z"/><path class="fh3" d="M1996 1046 L2230 1280 L2260 1280 L2026 1046 Z" /></g><g class="o"><path transform="translate(3,6)" class="S sfh" d="M1479 1847 L1665 1661 L1703 1661 L1517 1847 Z"/><path class="fh7" d="M1479 1847 L1665 1661 L1703 1661 L1517 1847 Z" /></g><g class="o"><path transform="translate(3,6)" class="S sfv" d="M1618 2030 L1771 1877 L1771 1891 L1618 2044 Z"/><path class="fv7" d="M1618 2030 L1771 1877 L1771 1891 L1618 2044 Z" /></g><g class="o"><path transform="translate(5,10)" class="S sfh" d="M985 1168 L1160 1343 L1196 1343 L1021 1168 Z"/><path class="fh1" d="M985 1168 L1160 1343 L1196 1343 L1021 1168 Z" /></g><g class="o"><path transform="translate(3,6)" class="S sfv" d="M1618 1095 L1804 909 L1804 1013 L1618 1199 Z"/><path class="fv2" d="M1618 1095 L1804 909 L1804 1013 L1618 1199 Z" /></g><g class="o"><path transform="translate(3,6)" class="S sf" d="M1472 964 L1600 1092 L1610 1092 L1482 964 Z"/><path class="f7" d="M1472 964 L1600 1092 L1610 1092 L1482 964 Z" /></g><g class="o"><path transform="translate(4,8)" class="S sfv" d="M1989 1065 L2340 1416 L2340 1444 L1989 1093 Z"/><path class="fv3" d="M1989 1065 L2340 1416 L2340 1444 L1989 1093 Z" /></g><g class="o"><path transform="translate(7,14)" class="S sfv" d="M1289 1567 L1383 1661 L1383 1687 L1289 1593 Z"/><path class="fv5" d="M1289 1567 L1383 1661 L1383 1687 L1289 1593 Z" /></g><g class="o"><path transform="translate(5,10)" class="S sfv" d="M1617 1518 L1804 1331 L1804 1359 L1617 1546 Z"/><path class="fv7" d="M1617 1518 L1804 1331 L1804 1359 L1617 1546 Z" /></g><g class="o"><path transform="translate(9,18)" class="S sfh" d="M1852 981 L2320 513 L2358 513 L1890 981 Z"/><path class="fh6" d="M1852 981 L2320 513 L2358 513 L1890 981 Z" /></g><g class="o"><path transform="translate(6,12)" class="S sfv" d="M1626 945 L1831 1150 L1831 1230 L1626 1025 Z"/><path class="fv6" d="M1626 945 L1831 1150 L1831 1230 L1626 1025 Z" /></g><g class="o"><path transform="translate(3,6)" class="S ssh" d="M1579 1435 L1804 1210 L1842 1210 L1617 1435 Z"/><path class="sh4" d="M1579 1435 L1804 1210 L1842 1210 L1617 1435 Z" /></g><g class="o"><path transform="translate(8,16)" class="S ss" d="M2025 1657 L2225 1457 L2245 1457 L2045 1657 Z"/><path class="s6" d="M2025 1657 L2225 1457 L2245 1457 L2045 1657 Z" /></g><g class="o"><path transform="translate(7,14)" class="S sfh" d="M1168 1675 L1410 1917 L1442 1917 L1200 1675 Z"/><path class="fh7" d="M1168 1675 L1410 1917 L1442 1917 L1200 1675 Z" /></g><g class="o"><path transform="translate(4,8)" class="S sfv" d="M1229 2014 L1529 2314 L1529 2340 L1229 2040 Z"/><path class="fv5" d="M1229 2014 L1529 2314 L1529 2340 L1229 2040 Z" /></g><g class="o"><path transform="translate(4,8)" class="S sfh" d="M1709 1501 L1930 1280 L1954 1280 L1733 1501 Z"/><path class="fh6" d="M1709 1501 L1930 1280 L1954 1280 L1733 1501 Z" /></g><g class="o"><path transform="translate(9,18)" class="S sfv" d="M2004 1394 L2165 1555 L2165 1667 L2004 1506 Z"/><path class="fv7" d="M2004 1394 L2165 1555 L2165 1667 L2004 1506 Z" /></g><g class="o"><path transform="translate(6,12)" class="S ssh" d="M1628 1328 L1686 1270 L1722 1270 L1664 1328 Z"/><path class="sh5" d="M1628 1328 L1686 1270 L1722 1270 L1664 1328 Z" /></g><g class="o"><path transform="translate(8,16)" class="S sfv" d="M1238 1899 L1328 1809 L1328 1839 L1238 1929 Z"/><path class="fv5" d="M1238 1899 L1328 1809 L1328 1839 L1238 1929 Z" /></g><g class="o"><path transform="translate(2,4)" class="S sf" d="M1419 1757 L1660 1998 L1660 2038 L1419 1797 Z"/><path class="f1" d="M1419 1757 L1660 1998 L1660 2038 L1419 1797 Z" /></g><g class="o"><path transform="translate(2,4)" class="S ssh" d="M1501 1507 L1724 1730 L1734 1730 L1511 1507 Z"/><path class="sh7" d="M1501 1507 L1724 1730 L1734 1730 L1511 1507 Z" /></g><g class="o"><path transform="translate(3,6)" class="S ssh" d="M1023 1407 L1109 1321 L1137 1321 L1051 1407 Z"/><path class="sh3" d="M1023 1407 L1109 1321 L1137 1321 L1051 1407 Z" /></g><g class="o"><path transform="translate(8,16)" class="S sf" d="M1442 1672 L1538 1576 L1552 1576 L1456 1672 Z"/><path class="f4" d="M1442 1672 L1538 1576 L1552 1576 L1456 1672 Z" /></g><g class="o"><path transform="translate(3,6)" class="S sfh" d="M1032 1126 L1653 1747 L1671 1747 L1050 1126 Z"/><path class="fh5" d="M1032 1126 L1653 1747 L1671 1747 L1050 1126 Z" /></g><g class="o"><path transform="translate(2,4)" class="S sf" d="M962 1643 L1056 1549 L1056 1557 L962 1651 Z"/><path class="f7" d="M962 1643 L1056 1549 L1056 1557 L962 1651 Z" /></g><g class="o"><path transform="translate(3,6)" class="S sf" d="M1192 2011 L1320 1883 L1320 1895 L1192 2023 Z"/><path class="f2" d="M1192 2011 L1320 1883 L1320 1895 L1192 2023 Z" /></g><g class="o"><path transform="translate(7,14)" class="S ssv" d="M1770 1221 L1948 1399 L1948 1429 L1770 1251 Z"/><path class="sv4" d="M1770 1221 L1948 1399 L1948 1429 L1770 1251 Z" /></g><g class="o"><path transform="translate(5,10)" class="S ssv" d="M1336 1047 L1401 982 L1401 1020 L1336 1085 Z"/><path class="sv3" d="M1336 1047 L1401 982 L1401 1020 L1336 1085 Z" /></g><g class="o"><path transform="translate(9,18)" class="S sfv" d="M1851 1021 L1997 875 L1997 931 L1851 1077 Z"/><path class="fv7" d="M1851 1021 L1997 875 L1997 931 L1851 1077 Z" /></g><g class="o"><path transform="translate(5,10)" class="S sf" d="M1725 1512 L1956 1281 L1956 1303 L1725 1534 Z"/><path class="f6" d="M1725 1512 L1956 1281 L1956 1303 L1725 1534 Z" /></g><g class="o"><path transform="translate(4,8)" class="S sf" d="M1389 1931 L1565 1755 L1613 1755 L1437 1931 Z"/><path class="f7" d="M1389 1931 L1565 1755 L1613 1755 L1437 1931 Z" /></g><g class="o"><path transform="translate(7,14)" class="S sf" d="M1974 1026 L2052 1104 L2052 1136 L1974 1058 Z"/><path class="f3" d="M1974 1026 L2052 1104 L2052 1136 L1974 1058 Z" /></g><g class="o"><path transform="translate(6,12)" class="S sfh" d="M956 1070 L1328 698 L1356 698 L984 1070 Z"/><path class="fh3" d="M956 1070 L1328 698 L1356 698 L984 1070 Z" /></g><g class="o"><path transform="translate(2,4)" class="S sfh" d="M1424 1382 L1494 1312 L1542 1312 L1472 1382 Z"/><path class="fh3" d="M1424 1382 L1494 1312 L1542 1312 L1472 1382 Z" /></g><g class="o"><path transform="translate(2,4)" class="S sfv" d="M1092 1384 L1737 2029 L1737 2043 L1092 1398 Z"/><path class="fv1" d="M1092 1384 L1737 2029 L1737 2043 L1092 1398 Z" /></g><g class="o"><path transform="translate(8,16)" class="S sfv" d="M1047 1291 L1575 1819 L1575 1849 L1047 1321 Z"/><path class="fv7" d="M1047 1291 L1575 1819 L1575 1849 L1047 1321 Z" /></g><g class="o"><path transform="translate(7,14)" class="S ssv" d="M1244 2008 L1316 1936 L1316 1966 L1244 2038 Z"/><path class="sv7" d="M1244 2008 L1316 1936 L1316 1966 L1244 2038 Z" /></g><g class="o"><path transform="translate(7,14)" class="S ss" d="M1572 1432 L1666 1338 L1688 1338 L1594 1432 Z"/><path class="s3" d="M1572 1432 L1666 1338 L1688 1338 L1594 1432 Z" /></g><g class="o"><path transform="translate(4,8)" class="S sfh" d="M1530 1970 L1599 2039 L1607 2039 L1538 1970 Z"/><path class="fh2" d="M1530 1970 L1599 2039 L1607 2039 L1538 1970 Z" /></g><g class="o"><path transform="translate(7,14)" class="S sf" d="M1711 1580 L1937 1354 L1961 1354 L1735 1580 Z"/><path class="f3" d="M1711 1580 L1937 1354 L1961 1354 L1735 1580 Z" /></g><g class="o"><path transform="translate(4,8)" class="S sfv" d="M1672 1901 L1771 1802 L1771 1810 L1672 1909 Z"/><path class="fv4" d="M1672 1901 L1771 1802 L1771 1810 L1672 1909 Z" /></g><g class="o"><path transform="translate(5,10)" class="S sfv" d="M1018 1172 L1188 1002 L1188 1090 L1018 1260 Z"/><path class="fv6" d="M1018 1172 L1188 1002 L1188 1090 L1018 1260 Z" /></g><g class="o"><path transform="translate(3,6)" class="S sfv" d="M1596 1354 L2328 622 L2328 634 L1596 1366 Z"/><path class="fv7" d="M1596 1354 L2328 622 L2328 634 L1596 1366 Z" /></g><g class="o"><path transform="translate(2,4)" class="S ssv" d="M1200 1997 L1392 1805 L1392 1827 L1200 2019 Z"/><path class="sv3" d="M1200 1997 L1392 1805 L1392 1827 L1200 2019 Z" /></g><g class="o"><path transform="translate(8,16)" class="S sfv" d="M2014 1588 L2233 1369 L2233 1389 L2014 1608 Z"/><path class="fv1" d="M2014 1588 L2233 1369 L2233 1389 L2014 1608 Z" /></g><g class="o"><path transform="translate(7,14)" class="S sfv" d="M1662 922 L1823 1083 L1823 1155 L1662 994 Z"/><path class="fv6" d="M1662 922 L1823 1083 L1823 1155 L1662 994 Z" /></g><g class="o"><path transform="translate(9,18)" class="S sfh" d="M1550 1870 L1686 2006 L1714 2006 L1578 1870 Z"/><path class="fh2" d="M1550 1870 L1686 2006 L1714 2006 L1578 1870 Z" /></g><g class="o"><path transform="translate(2,4)" class="S sfv" d="M1839 1222 L1973 1356 L1973 1382 L1839 1248 Z"/><path class="fv2" d="M1839 1222 L1973 1356 L1973 1382 L1839 1248 Z" /></g><g class="o"><path transform="translate(6,12)" class="S sfh" d="M1771 1583 L1931 1423 L1941 1423 L1781 1583 Z"/><path class="fh3" d="M1771 1583 L1931 1423 L1941 1423 L1781 1583 Z" /></g><g class="o"><path transform="translate(9,18)" class="S sf" d="M1802 1635 L1881 1556 L1911 1556 L1832 1635 Z"/><path class="f3" d="M1802 1635 L1881 1556 L1911 1556 L1832 1635 Z" /></g><g class="o"><path transform="translate(5,10)" class="S ssh" d="M1070 1527 L1162 1435 L1200 1435 L1108 1527 Z"/><path class="sh3" d="M1070 1527 L1162 1435 L1200 1435 L1108 1527 Z" /></g><g class="o"><path transform="translate(3,6)" class="S sfh" d="M1870 1092 L2077 885 L2097 885 L1890 1092 Z"/><path class="fh5" d="M1870 1092 L2077 885 L2097 885 L1890 1092 Z" /></g><g class="o"><path transform="translate(7,14)" class="S sfh" d="M1035 1002 L1172 1139 L1200 1139 L1063 1002 Z"/><path class="fh7" d="M1035 1002 L1172 1139 L1200 1139 L1063 1002 Z" /></g><g class="o"><path transform="translate(9,18)" class="S ss" d="M1341 1750 L1576 1515 L1576 1533 L1341 1768 Z"/><path class="s7" d="M1341 1750 L1576 1515 L1576 1533 L1341 1768 Z" /></g><g class="o"><path transform="translate(6,12)" class="S sfh" d="M1495 1059 L1569 1133 L1593 1133 L1519 1059 Z"/><path class="fh2" d="M1495 1059 L1569 1133 L1593 1133 L1519 1059 Z" /></g><g class="o"><path transform="translate(8,16)" class="S sfh" d="M1298 1323 L1544 1077 L1554 1077 L1308 1323 Z"/><path class="fh4" d="M1298 1323 L1544 1077 L1554 1077 L1308 1323 Z" /></g><g class="o"><path transform="translate(6,12)" class="S ssv" d="M1769 1787 L1969 1987 L1969 1999 L1769 1799 Z"/><path class="sv6" d="M1769 1787 L1969 1987 L1969 1999 L1769 1799 Z" /></g><g class="o"><path transform="translate(2,4)" class="S sfh" d="M1945 1209 L2043 1111 L2073 1111 L1975 1209 Z"/><path class="fh7" d="M1945 1209 L2043 1111 L2073 1111 L1975 1209 Z" /></g><g class="o"><path transform="translate(8,16)" class="S sfh" d="M1799 1327 L1975 1151 L1995 1151 L1819 1327 Z"/><path class="fh4" d="M1799 1327 L1975 1151 L1995 1151 L1819 1327 Z" /></g><g class="o"><path transform="translate(7,14)" class="S sfv" d="M995 1698 L1220 1923 L1220 1937 L995 1712 Z"/><path class="fv1" d="M995 1698 L1220 1923 L1220 1937 L995 1712 Z" /></g><g class="o"><path transform="translate(9,18)" class="S sf" d="M1974 1702 L2075 1601 L2089 1601 L1988 1702 Z"/><path class="f5" d="M1974 1702 L2075 1601 L2089 1601 L1988 1702 Z" /></g><g class="o"><path transform="translate(3,6)" class="S sfh" d="M1745 1650 L1797 1598 L1831 1598 L1779 1650 Z"/><path class="fh2" d="M1745 1650 L1797 1598 L1831 1598 L1779 1650 Z" /></g><g class="o"><path transform="translate(6,12)" class="S sfv" d="M1414 1012 L1645 781 L1645 811 L1414 1042 Z"/><path class="fv1" d="M1414 1012 L1645 781 L1645 811 L1414 1042 Z" /></g><g class="o"><path transform="translate(3,6)" class="S sfv" d="M1855 1827 L2087 2059 L2087 2081 L1855 1849 Z"/><path class="fv1" d="M1855 1827 L2087 2059 L2087 2081 L1855 1849 Z" /></g><g class="o"><path transform="translate(3,6)" class="S sfh" d="M1547 1440 L1675 1568 L1701 1568 L1573 1440 Z"/><path class="fh4" d="M1547 1440 L1675 1568 L1701 1568 L1573 1440 Z" /></g><g class="o"><path transform="translate(9,18)" class="S sf" d="M973 1163 L1167 969 L1167 1005 L973 1199 Z"/><path class="f7" d="M973 1163 L1167 969 L1167 1005 L973 1199 Z" /></g><g class="o"><path transform="translate(3,6)" class="S sfh" d="M1117 1473 L1219 1575 L1257 1575 L1155 1473 Z"/><path class="fh1" d="M1117 1473 L1219 1575 L1257 1575 L1155 1473 Z" /></g><g class="o"><path transform="translate(2,4)" class="S ss" d="M1737 1793 L1819 1711 L1819 1831 L1737 1913 Z"/><path class="s6" d="M1737 1793 L1819 1711 L1819 1831 L1737 1913 Z" /></g><g class="o"><path transform="translate(8,16)" class="S sfh" d="M1604 1423 L1831 1196 L1871 1196 L1644 1423 Z"/><path class="fh6" d="M1604 1423 L1831 1196 L1871 1196 L1644 1423 Z" /></g><g class="o"><path transform="translate(6,12)" class="S sfh" d="M1024 2032 L1261 1795 L1271 1795 L1034 2032 Z"/><path class="fh4" d="M1024 2032 L1261 1795 L1271 1795 L1034 2032 Z" /></g><g class="o"><path transform="translate(3,6)" class="S sfh" d="M1986 1484 L2039 1537 L2069 1537 L2016 1484 Z"/><path class="fh6" d="M1986 1484 L2039 1537 L2069 1537 L2016 1484 Z" /></g><g class="o"><path transform="translate(6,12)" class="S ss" d="M2032 1964 L2147 2079 L2147 2099 L2032 1984 Z"/><path class="s7" d="M2032 1964 L2147 2079 L2147 2099 L2032 1984 Z" /></g><g class="o"><path transform="translate(4,8)" class="S sfv" d="M1375 1313 L1426 1262 L1426 1286 L1375 1337 Z"/><path class="fv2" d="M1375 1313 L1426 1262 L1426 1286 L1375 1337 Z" /></g><g class="o"><path transform="translate(7,14)" class="S sfh" d="M1800 1205 L1897 1108 L1915 1108 L1818 1205 Z"/><path class="fh4" d="M1800 1205 L1897 1108 L1915 1108 L1818 1205 Z" /></g><g class="o"><path transform="translate(7,14)" class="S sfv" d="M1993 1672 L2215 1450 L2215 1474 L1993 1696 Z"/><path class="fv7" d="M1993 1672 L2215 1450 L2215 1474 L1993 1696 Z" /></g><g class="o"><path transform="translate(4,8)" class="S ssv" d="M1795 1756 L1916 1877 L1916 1901 L1795 1780 Z"/><path class="sv7" d="M1795 1756 L1916 1877 L1916 1901 L1795 1780 Z" /></g><g class="o"><path transform="translate(5,10)" class="S sfh" d="M1851 1112 L1956 1007 L1984 1007 L1879 1112 Z"/><path class="fh7" d="M1851 1112 L1956 1007 L1984 1007 L1879 1112 Z" /></g><g class="o"><path transform="translate(2,4)" class="S sfv" d="M1803 1282 L2007 1078 L2007 1222 L1803 1426 Z"/><path class="fv3" d="M1803 1282 L2007 1078 L2007 1222 L1803 1426 Z" /></g><g class="o"><path transform="translate(8,16)" class="S sfv" d="M1732 1241 L2008 965 L2008 1117 L1732 1393 Z"/><path class="fv3" d="M1732 1241 L2008 965 L2008 1117 L1732 1393 Z" /></g><g class="o"><path transform="translate(7,14)" class="S sfv" d="M1940 1615 L2101 1454 L2101 1462 L1940 1623 Z"/><path class="fv1" d="M1940 1615 L2101 1454 L2101 1462 L1940 1623 Z" /></g><g class="o"><path transform="translate(8,16)" class="S ssh" d="M1945 1954 L1996 1903 L2030 1903 L1979 1954 Z"/><path class="sh6" d="M1945 1954 L1996 1903 L2030 1903 L1979 1954 Z" /></g><g class="o"><path transform="translate(5,10)" class="S ssh" d="M1689 1314 L1929 1074 L1943 1074 L1703 1314 Z"/><path class="sh7" d="M1689 1314 L1929 1074 L1943 1074 L1703 1314 Z" /></g><g class="o"><path transform="translate(5,10)" class="S sfh" d="M1724 1267 L2270 1813 L2294 1813 L1748 1267 Z"/><path class="fh7" d="M1724 1267 L2270 1813 L2294 1813 L1748 1267 Z" /></g><g class="o"><path transform="translate(3,6)" class="S sfv" d="M1409 1187 L1530 1066 L1530 1100 L1409 1221 Z"/><path class="fv5" d="M1409 1187 L1530 1066 L1530 1100 L1409 1221 Z" /></g><g class="o"><path transform="translate(7,14)" class="S sfh" d="M1045 1480 L1095 1530 L1121 1530 L1071 1480 Z"/><path class="fh4" d="M1045 1480 L1095 1530 L1121 1530 L1071 1480 Z" /></g><g class="o"><path transform="translate(6,12)" class="S ssh" d="M1535 1259 L1626 1168 L1660 1168 L1569 1259 Z"/><path class="sh6" d="M1535 1259 L1626 1168 L1660 1168 L1569 1259 Z" /></g><g class="o"><path transform="translate(4,8)" class="S sfh" d="M1791 1484 L2007 1700 L2023 1700 L1807 1484 Z"/><path class="fh7" d="M1791 1484 L2007 1700 L2023 1700 L1807 1484 Z" /></g><g class="o"><path transform="translate(2,4)" class="S sfv" d="M1084 1834 L1209 1959 L1209 1979 L1084 1854 Z"/><path class="fv2" d="M1084 1834 L1209 1959 L1209 1979 L1084 1854 Z" /></g><g class="o"><path transform="translate(3,6)" class="S sfv" d="M1270 1313 L1408 1175 L1408 1201 L1270 1339 Z"/><path class="fv4" d="M1270 1313 L1408 1175 L1408 1201 L1270 1339 Z" /></g><g class="o"><path transform="translate(4,8)" class="S sfv" d="M1545 2020 L1691 2166 L1691 2202 L1545 2056 Z"/><path class="fv1" d="M1545 2020 L1691 2166 L1691 2202 L1545 2056 Z" /></g><g class="o"><path transform="translate(8,16)" class="S sfv" d="M991 1334 L1339 986 L1339 996 L991 1344 Z"/><path class="fv2" d="M991 1334 L1339 986 L1339 996 L991 1344 Z" /></g><g class="o"><path transform="translate(3,6)" class="S sfh" d="M1893 1696 L2017 1820 L2113 1820 L1989 1696 Z"/><path class="fh4" d="M1893 1696 L2017 1820 L2113 1820 L1989 1696 Z" /></g><g class="o"><path transform="translate(3,6)" class="S sfh" d="M1962 1352 L2139 1175 L2157 1175 L1980 1352 Z"/><path class="fh4" d="M1962 1352 L2139 1175 L2157 1175 L1980 1352 Z" /></g><g class="o"><path transform="translate(2,4)" class="S sfv" d="M1901 1754 L1962 1815 L1962 1841 L1901 1780 Z"/><path class="fv3" d="M1901 1754 L1962 1815 L1962 1841 L1901 1780 Z" /></g><g class="o"><path transform="translate(2,4)" class="S sfh" d="M959 1895 L1207 1647 L1229 1647 L981 1895 Z"/><path class="fh2" d="M959 1895 L1207 1647 L1229 1647 L981 1895 Z" /></g><g class="o"><path transform="translate(9,18)" class="S ssv" d="M1426 1048 L1533 941 L1533 955 L1426 1062 Z"/><path class="sv4" d="M1426 1048 L1533 941 L1533 955 L1426 1062 Z" /></g><g class="o"><path transform="translate(6,12)" class="S sfh" d="M1729 1980 L1938 1771 L1976 1771 L1767 1980 Z"/><path class="fh4" d="M1729 1980 L1938 1771 L1976 1771 L1767 1980 Z" /></g><g class="o"><path transform="translate(5,10)" class="S sfh" d="M1843 1195 L1918 1120 L1942 1120 L1867 1195 Z"/><path class="fh3" d="M1843 1195 L1918 1120 L1942 1120 L1867 1195 Z" /></g><g class="o"><path transform="translate(5,10)" class="S sfv" d="M1540 2028 L1627 1941 L1627 1971 L1540 2058 Z"/><path class="fv5" d="M1540 2028 L1627 1941 L1627 1971 L1540 2058 Z" /></g><g class="o"><path transform="translate(5,10)" class="S sfv" d="M1382 1172 L1471 1261 L1471 1279 L1382 1190 Z"/><path class="fv2" d="M1382 1172 L1471 1261 L1471 1279 L1382 1190 Z" /></g><g class="o"><path transform="translate(6,12)" class="S sfh" d="M997 1342 L1075 1420 L1089 1420 L1011 1342 Z"/><path class="fh1" d="M997 1342 L1075 1420 L1089 1420 L1011 1342 Z" /></g><g class="o"><path transform="translate(9,18)" class="S ss" d="M1161 1414 L1296 1549 L1328 1549 L1193 1414 Z"/><path class="s3" d="M1161 1414 L1296 1549 L1328 1549 L1193 1414 Z" /></g><g class="o"><path transform="translate(7,14)" class="S sfh" d="M1326 1548 L1530 1752 L1556 1752 L1352 1548 Z"/><path class="fh3" d="M1326 1548 L1530 1752 L1556 1752 L1352 1548 Z" /></g><g class="o"><path transform="translate(6,12)" class="S sf" d="M1375 1450 L1666 1741 L1666 1759 L1375 1468 Z"/><path class="f3" d="M1375 1450 L1666 1741 L1666 1759 L1375 1468 Z" /></g><g class="o"><path transform="translate(5,10)" class="S ssv" d="M958 1733 L1155 1536 L1155 1574 L958 1771 Z"/><path class="sv2" d="M958 1733 L1155 1536 L1155 1574 L958 1771 Z" /></g><g class="o"><path transform="translate(6,12)" class="S ssh" d="M1386 1988 L1616 2218 L1636 2218 L1406 1988 Z"/><path class="sh3" d="M1386 1988 L1616 2218 L1636 2218 L1406 1988 Z" /></g><g class="o"><path transform="translate(8,16)" class="S sfh" d="M1377 1199 L1509 1067 L1519 1067 L1387 1199 Z"/><path class="fh7" d="M1377 1199 L1509 1067 L1519 1067 L1387 1199 Z" /></g><g class="o"><path transform="translate(4,8)" class="S sfh" d="M1829 1709 L2071 1467 L2103 1467 L1861 1709 Z"/><path class="fh7" d="M1829 1709 L2071 1467 L2103 1467 L1861 1709 Z" /></g><g class="o"><path transform="translate(9,18)" class="S sfv" d="M974 1106 L1146 1278 L1146 1316 L974 1144 Z"/><path class="fv4" d="M974 1106 L1146 1278 L1146 1316 L974 1144 Z" /></g><g class="o"><path transform="translate(7,14)" class="S sf" d="M1084 1708 L1396 1396 L1396 1404 L1084 1716 Z"/><path class="f4" d="M1084 1708 L1396 1396 L1396 1404 L1084 1716 Z" /></g><g class="o"><path transform="translate(3,6)" class="S sfh" d="M1412 1741 L1547 1606 L1565 1606 L1430 1741 Z"/><path class="fh3" d="M1412 1741 L1547 1606 L1565 1606 L1430 1741 Z" /></g><g class="o"><path transform="translate(9,18)" class="S sf" d="M1553 1398 L1636 1315 L1636 1411 L1553 1494 Z"/><path class="f5" d="M1553 1398 L1636 1315 L1636 1411 L1553 1494 Z" /></g><g class="o"><path transform="translate(7,14)" class="S sfh" d="M1153 1196 L1307 1042 L1337 1042 L1183 1196 Z"/><path class="fh1" d="M1153 1196 L1307 1042 L1337 1042 L1183 1196 Z" /></g><g class="o"><path transform="translate(7,14)" class="S sfh" d="M1295 1193 L1946 542 L1964 542 L1313 1193 Z"/><path class="fh7" d="M1295 1193 L1946 542 L1964 542 L1313 1193 Z" /></g><g class="o"><path transform="translate(6,12)" class="S sfh" d="M1065 1774 L1533 1306 L1543 1306 L1075 1774 Z"/><path class="fh3" d="M1065 1774 L1533 1306 L1543 1306 L1075 1774 Z" /></g><g class="o"><path transform="translate(4,8)" class="S sfh" d="M1407 2023 L1558 1872 L1622 1872 L1471 2023 Z"/><path class="fh6" d="M1407 2023 L1558 1872 L1622 1872 L1471 2023 Z" /></g><g class="o"><path transform="translate(7,14)" class="S ssh" d="M2015 1676 L2141 1550 L2169 1550 L2043 1676 Z"/><path class="sh7" d="M2015 1676 L2141 1550 L2169 1550 L2043 1676 Z" /></g><g class="o"><path transform="translate(6,12)" class="S sf" d="M1464 1713 L1516 1661 L1516 1695 L1464 1747 Z"/><path class="f1" d="M1464 1713 L1516 1661 L1516 1695 L1464 1747 Z" /></g><g class="o"><path transform="translate(5,10)" class="S sfv" d="M1075 994 L1160 1079 L1160 1089 L1075 1004 Z"/><path class="fv2" d="M1075 994 L1160 1079 L1160 1089 L1075 1004 Z" /></g><g class="o"><path transform="translate(8,16)" class="S sfv" d="M1311 1684 L1537 1910 L1537 1966 L1311 1740 Z"/><path class="fv6" d="M1311 1684 L1537 1910 L1537 1966 L1311 1740 Z" /></g><g class="o"><path transform="translate(7,14)" class="S sfv" d="M1428 954 L1480 1006 L1480 1018 L1428 966 Z"/><path class="fv7" d="M1428 954 L1480 1006 L1480 1018 L1428 966 Z" /></g><g class="o"><path transform="translate(8,16)" class="S sfv" d="M1320 1587 L1851 1056 L1851 1070 L1320 1601 Z"/><path class="fv4" d="M1320 1587 L1851 1056 L1851 1070 L1320 1601 Z" /></g><g class="o"><path transform="translate(6,12)" class="S sfv" d="M2036 1435 L2114 1513 L2114 1525 L2036 1447 Z"/><path class="fv5" d="M2036 1435 L2114 1513 L2114 1525 L2036 1447 Z" /></g><g class="o"><path transform="translate(9,18)" class="S sfh" d="M1488 1215 L1730 973 L1738 973 L1496 1215 Z"/><path class="fh2" d="M1488 1215 L1730 973 L1738 973 L1496 1215 Z" /></g><g class="o"><path transform="translate(5,10)" class="S ssv" d="M1558 1342 L2122 1906 L2122 1914 L1558 1350 Z"/><path class="sv1" d="M1558 1342 L2122 1906 L2122 1914 L1558 1350 Z" /></g><g class="o"><path transform="translate(6,12)" class="S sfh" d="M1684 1152 L1741 1095 L1777 1095 L1720 1152 Z"/><path class="fh4" d="M1684 1152 L1741 1095 L1777 1095 L1720 1152 Z" /></g><g class="o"><path transform="translate(9,18)" class="S sf" d="M2042 1704 L2582 1164 L2582 1200 L2042 1740 Z"/><path class="f3" d="M2042 1704 L2582 1164 L2582 1200 L2042 1740 Z" /></g><g class="o"><path transform="translate(7,14)" class="S sfh" d="M1515 1198 L1578 1261 L1602 1261 L1539 1198 Z"/><path class="fh7" d="M1515 1198 L1578 1261 L1602 1261 L1539 1198 Z" /></g></g><use href="#slashes" transform-origin="1500 1500" transform="rotate(180) scale(2)"/></g><rect x="1080" y="1080" width="840" height="840" stroke-width="160" class="o s4" /><use href="#slashes" transform-origin="1500 1500" transform="scale(1)"/><use href="#slashes" transform-origin="1500 1500" transform="rotate(180) scale(1,-1)"/></svg>