<svg xmlns="http://www.w3.org/2000/svg" viewBox="750 750 1500 1500"><style>/*<![CDATA[*/svg{background:rgb(197,195,198);max-width:100vw;max-height:100vh}path{stroke-width:4}.o{opacity:.75}.S{opacity:.4}.sf{stroke:none;fill:black}.sfh{stroke:none;fill:url(#hs)}.sfv{stroke:none;fill:url(#vs)}.ss{stroke:black;fill:none}.ssh{stroke:url(#hs);fill:none}.ssv{stroke:url(#vs);fill:none}.s1{fill:none;stroke:rgb(76,92,104)}.f1{stroke:none;fill:rgb(76,92,104)}.sh1{fill:none;stroke:url(#h1)}.fh1{stroke:none;fill:url(#h1)}.sv1{fill:none;stroke:url(#v1)}.fv1{stroke:none;fill:url(#v1)}.s2{fill:none;stroke:rgb(16,16,16)}.f2{stroke:none;fill:rgb(16,16,16)}.sh2{fill:none;stroke:url(#h2)}.fh2{stroke:none;fill:url(#h2)}.sv2{fill:none;stroke:url(#v2)}.fv2{stroke:none;fill:url(#v2)}.s3{fill:none;stroke:rgb(25,133,161)}.f3{stroke:none;fill:rgb(25,133,161)}.sh3{fill:none;stroke:url(#h3)}.fh3{stroke:none;fill:url(#h3)}.sv3{fill:none;stroke:url(#v3)}.fv3{stroke:none;fill:url(#v3)}.s4{fill:none;stroke:rgb(70,73,76)}.f4{stroke:none;fill:rgb(70,73,76)}.sh4{fill:none;stroke:url(#h4)}.fh4{stroke:none;fill:url(#h4)}.sv4{fill:none;stroke:url(#v4)}.fv4{stroke:none;fill:url(#v4)}.s5{fill:none;stroke:rgb(34,34,34)}.f5{stroke:none;fill:rgb(34,34,34)}.sh5{fill:none;stroke:url(#h5)}.fh5{stroke:none;fill:url(#h5)}.sv5{fill:none;stroke:url(#v5)}.fv5{stroke:none;fill:url(#v5)}.s6{fill:none;stroke:rgb(255,255,255)}.f6{stroke:none;fill:rgb(255,255,255)}.sh6{fill:none;stroke:url(#h6)}.fh6{stroke:none;fill:url(#h6)}.sv6{fill:none;stroke:url(#v6)}.fv6{stroke:none;fill:url(#v6)}.s7{fill:none;stroke:rgb(255,255,0)}.f7{stroke:none;fill:rgb(255,255,0)}.sh7{fill:none;stroke:url(#h7)}.fh7{stroke:none;fill:url(#h7)}.sv7{fill:none;stroke:url(#v7)}.fv7{stroke:none;fill:url(#v7)}/*]]>*/</style><defs><linearGradient gradientTransform="rotate(90)" id="hs"><stop offset="20%" stop-color="#000" /><stop offset="95%" stop-color="rgba(0, 0, 0, 0)" /></linearGradient><linearGradient id="vs"><stop offset="20%" stop-color="#000" /><stop offset="95%" stop-color="rgba(0, 0, 0, 0)" /></linearGradient><linearGradient gradientTransform="rotate(90)" id="h1"><stop offset="20%" stop-color="rgba(76,92,104,1)" /><stop offset="95%" stop-color="rgba(76,92,104,0)" /></linearGradient><linearGradient id="v1"><stop offset="20%" stop-color="rgba(76,92,104,1)" /><stop offset="95%" stop-color="rgba(76,92,104,0)" /></linearGradient><linearGradient gradientTransform="rotate(90)" id="h2"><stop offset="20%" stop-color="rgba(16,16,16,1)" /><stop offset="95%" stop-color="rgba(16,16,16,0)" /></linearGradient><linearGradient id="v2"><stop offset="20%" stop-color="rgba(16,16,16,1)" /><stop offset="95%" stop-color="rgba(16,16,16,0)" /></linearGradient><linearGradient gradientTransform="rotate(90)" id="h3"><stop offset="20%" stop-color="rgba(25,133,161,1)" /><stop offset="95%" stop-color="rgba(25,133,161,0)" /></linearGradient><linearGradient id="v3"><stop offset="20%" stop-color="rgba(25,133,161,1)" /><stop offset="95%" stop-color="rgba(25,133,161,0)" /></linearGradient><linearGradient gradientTransform="rotate(90)" id="h4"><stop offset="20%" stop-color="rgba(70,73,76,1)" /><stop offset="95%" stop-color="rgba(70,73,76,0)" /></linearGradient><linearGradient id="v4"><stop offset="20%" stop-color="rgba(70,73,76,1)" /><stop offset="95%" stop-color="rgba(70,73,76,0)" /></linearGradient><linearGradient gradientTransform="rotate(90)" id="h5"><stop offset="20%" stop-color="rgba(34,34,34,1)" /><stop offset="95%" stop-color="rgba(34,34,34,0)" /></linearGradient><linearGradient id="v5"><stop offset="20%" stop-color="rgba(34,34,34,1)" /><stop offset="95%" stop-color="rgba(34,34,34,0)" /></linearGradient><linearGradient gradientTransform="rotate(90)" id="h6"><stop offset="20%" stop-color="rgba(255,255,255,1)" /><stop offset="95%" stop-color="rgba(255,255,255,0)" /></linearGradient><linearGradient id="v6"><stop offset="20%" stop-color="rgba(255,255,255,1)" /><stop offset="95%" stop-color="rgba(255,255,255,0)" /></linearGradient><linearGradient gradientTransform="rotate(90)" id="h7"><stop offset="20%" stop-color="rgba(255,255,0,1)" /><stop offset="95%" stop-color="rgba(255,255,0,0)" /></linearGradient><linearGradient id="v7"><stop offset="20%" stop-color="rgba(255,255,0,1)" /><stop offset="95%" stop-color="rgba(255,255,0,0)" /></linearGradient></defs><g transform-origin="1500 1500" transform="scale(2)" opacity=".6"><g id="slashes"><g class="o"><path transform="translate(9,18)" class="S sf" d="M1037 1578 L1249 1366 L1249 1380 L1037 1592 Z"/><path class="f1" d="M1037 1578 L1249 1366 L1249 1380 L1037 1592 Z" /></g><g class="o"><path transform="translate(2,4)" class="S sf" d="M1087 1559 L1006 1640 L1006 1656 L1087 1575 Z"/><path class="f5" d="M1087 1559 L1006 1640 L1006 1656 L1087 1575 Z" /></g><g class="o"><path transform="translate(8,16)" class="S ss" d="M1967 1388 L2200 1155 L2234 1155 L2001 1388 Z"/><path class="s4" d="M1967 1388 L2200 1155 L2234 1155 L2001 1388 Z" /></g><g class="o"><path transform="translate(8,16)" class="S sf" d="M2014 1116 L1831 1299 L1859 1299 L2042 1116 Z"/><path class="f6" d="M2014 1116 L1831 1299 L1859 1299 L2042 1116 Z" /></g><g class="o"><path transform="translate(5,10)" class="S sf" d="M979 1555 L1109 1685 L1109 1715 L979 1585 Z"/><path class="f5" d="M979 1555 L1109 1685 L1109 1715 L979 1585 Z" /></g><g class="o"><path transform="translate(3,6)" class="S ss" d="M1352 1298 L1168 1482 L1168 1518 L1352 1334 Z"/><path class="s5" d="M1352 1298 L1168 1482 L1168 1518 L1352 1334 Z" /></g><g class="o"><path transform="translate(6,12)" class="S sf" d="M958 1048 L1384 622 L1384 656 L958 1082 Z"/><path class="f6" d="M958 1048 L1384 622 L1384 656 L958 1082 Z" /></g><g class="o"><path transform="translate(2,4)" class="S ss" d="M1791 1400 L1999 1192 L1999 1200 L1791 1408 Z"/><path class="s3" d="M1791 1400 L1999 1192 L1999 1200 L1791 1408 Z" /></g><g class="o"><path transform="translate(5,10)" class="S sf" d="M1138 1881 L1330 2073 L1330 2087 L1138 1895 Z"/><path class="f2" d="M1138 1881 L1330 2073 L1330 2087 L1138 1895 Z" /></g><g class="o"><path transform="translate(8,16)" class="S ss" d="M1753 1918 L1653 1818 L1685 1818 L1785 1918 Z"/><path class="s5" d="M1753 1918 L1653 1818 L1685 1818 L1785 1918 Z" /></g><g class="o"><path transform="translate(6,12)" class="S sf" d="M1218 1353 L1412 1159 L1412 1171 L1218 1365 Z"/><path class="f3" d="M1218 1353 L1412 1159 L1412 1171 L1218 1365 Z" /></g><g class="o"><path transform="translate(5,10)" class="S sf" d="M1260 1297 L1746 811 L1746 845 L1260 1331 Z"/><path class="f2" d="M1260 1297 L1746 811 L1746 845 L1260 1331 Z" /></g><g class="o"><path transform="translate(8,16)" class="S sf" d="M1675 1737 L1728 1684 L1736 1684 L1683 1737 Z"/><path class="f6" d="M1675 1737 L1728 1684 L1736 1684 L1683 1737 Z" /></g><g class="o"><path transform="translate(7,14)" class="S sf" d="M1660 1219 L1444 1003 L1444 1025 L1660 1241 Z"/><path class="f4" d="M1660 1219 L1444 1003 L1444 1025 L1660 1241 Z" /></g><g class="o"><path transform="translate(4,8)" class="S ss" d="M1057 1470 L977 1550 L977 1586 L1057 1506 Z"/><path class="s3" d="M1057 1470 L977 1550 L977 1586 L1057 1506 Z" /></g><g class="o"><path transform="translate(5,10)" class="S sf" d="M1654 1060 L1455 861 L1463 861 L1662 1060 Z"/><path class="f6" d="M1654 1060 L1455 861 L1463 861 L1662 1060 Z" /></g><g class="o"><path transform="translate(3,6)" class="S ss" d="M1852 1948 L2032 1768 L2032 1782 L1852 1962 Z"/><path class="s4" d="M1852 1948 L2032 1768 L2032 1782 L1852 1962 Z" /></g><g class="o"><path transform="translate(4,8)" class="S sf" d="M1062 2020 L1232 1850 L1232 1872 L1062 2042 Z"/><path class="f1" d="M1062 2020 L1232 1850 L1232 1872 L1062 2042 Z" /></g><g class="o"><path transform="translate(2,4)" class="S ss" d="M1777 1184 L1916 1045 L1938 1045 L1799 1184 Z"/><path class="s4" d="M1777 1184 L1916 1045 L1938 1045 L1799 1184 Z" /></g><g class="o"><path transform="translate(9,18)" class="S sf" d="M2008 1064 L1778 1294 L1778 1312 L2008 1082 Z"/><path class="f1" d="M2008 1064 L1778 1294 L1778 1312 L2008 1082 Z" /></g><g class="o"><path transform="translate(2,4)" class="S sf" d="M1852 1934 L2071 2153 L2071 2169 L1852 1950 Z"/><path class="f3" d="M1852 1934 L2071 2153 L2071 2169 L1852 1950 Z" /></g><g class="o"><path transform="translate(5,10)" class="S sf" d="M1423 1284 L1547 1160 L1557 1160 L1433 1284 Z"/><path class="f1" d="M1423 1284 L1547 1160 L1557 1160 L1433 1284 Z" /></g><g class="o"><path transform="translate(4,8)" class="S ss" d="M1551 1831 L1735 1647 L1735 1677 L1551 1861 Z"/><path class="s5" d="M1551 1831 L1735 1647 L1735 1677 L1551 1861 Z" /></g><g class="o"><path transform="translate(7,14)" class="S sf" d="M1557 1154 L1789 1386 L1789 1402 L1557 1170 Z"/><path class="f4" d="M1557 1154 L1789 1386 L1789 1402 L1557 1170 Z" /></g><g class="o"><path transform="translate(6,12)" class="S ss" d="M1796 1719 L1565 1950 L1573 1950 L1804 1719 Z"/><path class="s3" d="M1796 1719 L1565 1950 L1573 1950 L1804 1719 Z" /></g><g class="o"><path transform="translate(2,4)" class="S sf" d="M1418 1371 L1181 1134 L1181 1158 L1418 1395 Z"/><path class="f5" d="M1418 1371 L1181 1134 L1181 1158 L1418 1395 Z" /></g><g class="o"><path transform="translate(6,12)" class="S sf" d="M1430 1075 L1183 828 L1217 828 L1464 1075 Z"/><path class="f7" d="M1430 1075 L1183 828 L1217 828 L1464 1075 Z" /></g><g class="o"><path transform="translate(5,10)" class="S ss" d="M1715 1045 L980 1780 L996 1780 L1731 1045 Z"/><path class="s2" d="M1715 1045 L980 1780 L996 1780 L1731 1045 Z" /></g><g class="o"><path transform="translate(3,6)" class="S ss" d="M1956 1839 L1821 1974 L1821 2008 L1956 1873 Z"/><path class="s1" d="M1956 1839 L1821 1974 L1821 2008 L1956 1873 Z" /></g><g class="o"><path transform="translate(5,10)" class="S ss" d="M975 962 L747 734 L781 734 L1009 962 Z"/><path class="s1" d="M975 962 L747 734 L781 734 L1009 962 Z" /></g><g class="o"><path transform="translate(7,14)" class="S sf" d="M1681 1026 L1442 1265 L1442 1301 L1681 1062 Z"/><path class="f5" d="M1681 1026 L1442 1265 L1442 1301 L1681 1062 Z" /></g><g class="o"><path transform="translate(8,16)" class="S sf" d="M1370 1787 L1301 1718 L1301 1732 L1370 1801 Z"/><path class="f4" d="M1370 1787 L1301 1718 L1301 1732 L1370 1801 Z" /></g><g class="o"><path transform="translate(2,4)" class="S sf" d="M1628 1503 L1328 1803 L1364 1803 L1664 1503 Z"/><path class="f2" d="M1628 1503 L1328 1803 L1364 1803 L1664 1503 Z" /></g><g class="o"><path transform="translate(3,6)" class="S sf" d="M1910 1875 L2114 1671 L2126 1671 L1922 1875 Z"/><path class="f3" d="M1910 1875 L2114 1671 L2126 1671 L1922 1875 Z" /></g><g class="o"><path transform="translate(9,18)" class="S sf" d="M1878 1939 L1749 2068 L1769 2068 L1898 1939 Z"/><path class="f5" d="M1878 1939 L1749 2068 L1769 2068 L1898 1939 Z" /></g><g class="o"><path transform="translate(4,8)" class="S sf" d="M2013 1200 L1771 1442 L1807 1442 L2049 1200 Z"/><path class="f4" d="M2013 1200 L1771 1442 L1807 1442 L2049 1200 Z" /></g><g class="o"><path transform="translate(8,16)" class="S sf" d="M1898 963 L2074 1139 L2074 1177 L1898 1001 Z"/><path class="f3" d="M1898 963 L2074 1139 L2074 1177 L1898 1001 Z" /></g><g class="o"><path transform="translate(9,18)" class="S sf" d="M1972 1349 L1829 1206 L1829 1230 L1972 1373 Z"/><path class="f4" d="M1972 1349 L1829 1206 L1829 1230 L1972 1373 Z" /></g><g class="o"><path transform="translate(5,10)" class="S sf" d="M1705 1206 L2284 1785 L2314 1785 L1735 1206 Z"/><path class="f7" d="M1705 1206 L2284 1785 L2314 1785 L1735 1206 Z" /></g><g class="o"><path transform="translate(5,10)" class="S sf" d="M1003 1898 L1174 1727 L1186 1727 L1015 1898 Z"/><path class="f1" d="M1003 1898 L1174 1727 L1186 1727 L1015 1898 Z" /></g><g class="o"><path transform="translate(2,4)" class="S sf" d="M953 1913 L1099 2059 L1099 2081 L953 1935 Z"/><path class="f1" d="M953 1913 L1099 2059 L1099 2081 L953 1935 Z" /></g><g class="o"><path transform="translate(9,18)" class="S ss" d="M1688 1197 L1744 1141 L1768 1141 L1712 1197 Z"/><path class="s2" d="M1688 1197 L1744 1141 L1768 1141 L1712 1197 Z" /></g><g class="o"><path transform="translate(3,6)" class="S sf" d="M1511 1946 L1587 2022 L1587 2042 L1511 1966 Z"/><path class="f7" d="M1511 1946 L1587 2022 L1587 2042 L1511 1966 Z" /></g><g class="o"><path transform="translate(3,6)" class="S sf" d="M970 1053 L1156 867 L1188 867 L1002 1053 Z"/><path class="f2" d="M970 1053 L1156 867 L1188 867 L1002 1053 Z" /></g><g class="o"><path transform="translate(8,16)" class="S sf" d="M1441 979 L865 403 L865 441 L1441 1017 Z"/><path class="f1" d="M1441 979 L865 403 L865 441 L1441 1017 Z" /></g><g class="o"><path transform="translate(5,10)" class="S sf" d="M1225 1630 L1092 1497 L1102 1497 L1235 1630 Z"/><path class="f3" d="M1225 1630 L1092 1497 L1102 1497 L1235 1630 Z" /></g><g class="o"><path transform="translate(6,12)" class="S sf" d="M1594 1221 L1732 1083 L1770 1083 L1632 1221 Z"/><path class="f3" d="M1594 1221 L1732 1083 L1770 1083 L1632 1221 Z" /></g><g class="o"><path transform="translate(8,16)" class="S sf" d="M1295 944 L1160 1079 L1160 1101 L1295 966 Z"/><path class="f1" d="M1295 944 L1160 1079 L1160 1101 L1295 966 Z" /></g><g class="o"><path transform="translate(2,4)" class="S sf" d="M1823 1354 L1289 1888 L1289 1926 L1823 1392 Z"/><path class="f6" d="M1823 1354 L1289 1888 L1289 1926 L1823 1392 Z" /></g><g class="o"><path transform="translate(6,12)" class="S sf" d="M1386 1708 L1270 1824 L1302 1824 L1418 1708 Z"/><path class="f6" d="M1386 1708 L1270 1824 L1302 1824 L1418 1708 Z" /></g><g class="o"><path transform="translate(7,14)" class="S sf" d="M1992 1187 L2179 1374 L2179 1382 L1992 1195 Z"/><path class="f3" d="M1992 1187 L2179 1374 L2179 1382 L1992 1195 Z" /></g><g class="o"><path transform="translate(3,6)" class="S sf" d="M1447 1198 L1501 1144 L1501 1156 L1447 1210 Z"/><path class="f6" d="M1447 1198 L1501 1144 L1501 1156 L1447 1210 Z" /></g><g class="o"><path transform="translate(6,12)" class="S ss" d="M1115 973 L1210 1068 L1210 1078 L1115 983 Z"/><path class="s4" d="M1115 973 L1210 1068 L1210 1078 L1115 983 Z" /></g><g class="o"><path transform="translate(4,8)" class="S sf" d="M1017 1090 L826 899 L826 923 L1017 1114 Z"/><path class="f7" d="M1017 1090 L826 899 L826 923 L1017 1114 Z" /></g><g class="o"><path transform="translate(2,4)" class="S ss" d="M1412 1419 L1805 1812 L1805 1844 L1412 1451 Z"/><path class="s4" d="M1412 1419 L1805 1812 L1805 1844 L1412 1451 Z" /></g><g class="o"><path transform="translate(9,18)" class="S sf" d="M1977 1983 L1744 1750 L1772 1750 L2005 1983 Z"/><path class="f2" d="M1977 1983 L1744 1750 L1772 1750 L2005 1983 Z" /></g><g class="o"><path transform="translate(5,10)" class="S sf" d="M1220 1569 L975 1814 L975 1850 L1220 1605 Z"/><path class="f6" d="M1220 1569 L975 1814 L975 1850 L1220 1605 Z" /></g><g class="o"><path transform="translate(3,6)" class="S ss" d="M1644 1574 L1562 1656 L1562 1684 L1644 1602 Z"/><path class="s5" d="M1644 1574 L1562 1656 L1562 1684 L1644 1602 Z" /></g><g class="o"><path transform="translate(9,18)" class="S sf" d="M1483 1935 L997 2421 L1031 2421 L1517 1935 Z"/><path class="f2" d="M1483 1935 L997 2421 L1031 2421 L1517 1935 Z" /></g><g class="o"><path transform="translate(9,18)" class="S sf" d="M1855 1829 L1628 1602 L1628 1616 L1855 1843 Z"/><path class="f6" d="M1855 1829 L1628 1602 L1628 1616 L1855 1843 Z" /></g><g class="o"><path transform="translate(8,16)" class="S sf" d="M1924 1548 L1829 1453 L1847 1453 L1942 1548 Z"/><path class="f3" d="M1924 1548 L1829 1453 L1847 1453 L1942 1548 Z" /></g><g class="o"><path transform="translate(7,14)" class="S sf" d="M1392 1611 L1614 1833 L1636 1833 L1414 1611 Z"/><path class="f4" d="M1392 1611 L1614 1833 L1636 1833 L1414 1611 Z" /></g><g class="o"><path transform="translate(4,8)" class="S sf" d="M951 1761 L806 1616 L806 1642 L951 1787 Z"/><path class="f1" d="M951 1761 L806 1616 L806 1642 L951 1787 Z" /></g><g class="o"><path transform="translate(3,6)" class="S sf" d="M1602 2028 L1805 2231 L1805 2265 L1602 2062 Z"/><path class="f2" d="M1602 2028 L1805 2231 L1805 2265 L1602 2062 Z" /></g><g class="o"><path transform="translate(8,16)" class="S sf" d="M1903 1133 L2047 1277 L2047 1305 L1903 1161 Z"/><path class="f3" d="M1903 1133 L2047 1277 L2047 1305 L1903 1161 Z" /></g><g class="o"><path transform="translate(4,8)" class="S sf" d="M1677 978 L1519 820 L1529 820 L1687 978 Z"/><path class="f3" d="M1677 978 L1519 820 L1529 820 L1687 978 Z" /></g><g class="o"><path transform="translate(2,4)" class="S sf" d="M1564 1636 L1706 1778 L1730 1778 L1588 1636 Z"/><path class="f6" d="M1564 1636 L1706 1778 L1730 1778 L1588 1636 Z" /></g><g class="o"><path transform="translate(7,14)" class="S sf" d="M1104 1788 L1045 1847 L1045 1855 L1104 1796 Z"/><path class="f3" d="M1104 1788 L1045 1847 L1045 1855 L1104 1796 Z" /></g><g class="o"><path transform="translate(9,18)" class="S sf" d="M1843 1450 L1754 1361 L1782 1361 L1871 1450 Z"/><path class="f2" d="M1843 1450 L1754 1361 L1782 1361 L1871 1450 Z" /></g><g class="o"><path transform="translate(6,12)" class="S sf" d="M1593 1738 L2265 2410 L2285 2410 L1613 1738 Z"/><path class="f4" d="M1593 1738 L2265 2410 L2285 2410 L1613 1738 Z" /></g><g class="o"><path transform="translate(2,4)" class="S sf" d="M1121 1074 L587 1608 L587 1640 L1121 1106 Z"/><path class="f7" d="M1121 1074 L587 1608 L587 1640 L1121 1106 Z" /></g><g class="o"><path transform="translate(9,18)" class="S sf" d="M1412 1230 L1037 855 L1051 855 L1426 1230 Z"/><path class="f5" d="M1412 1230 L1037 855 L1051 855 L1426 1230 Z" /></g><g class="o"><path transform="translate(8,16)" class="S sf" d="M1098 1731 L1365 1998 L1365 2014 L1098 1747 Z"/><path class="f2" d="M1098 1731 L1365 1998 L1365 2014 L1098 1747 Z" /></g><g class="o"><path transform="translate(6,12)" class="S sf" d="M1818 1075 L2017 876 L2017 908 L1818 1107 Z"/><path class="f2" d="M1818 1075 L2017 876 L2017 908 L1818 1107 Z" /></g><g class="o"><path transform="translate(2,4)" class="S sf" d="M1058 1955 L963 1860 L987 1860 L1082 1955 Z"/><path class="f5" d="M1058 1955 L963 1860 L987 1860 L1082 1955 Z" /></g><g class="o"><path transform="translate(7,14)" class="S sf" d="M1959 1644 L1898 1583 L1930 1583 L1991 1644 Z"/><path class="f7" d="M1959 1644 L1898 1583 L1930 1583 L1991 1644 Z" /></g><g class="o"><path transform="translate(8,16)" class="S ss" d="M1865 1378 L1683 1560 L1703 1560 L1885 1378 Z"/><path class="s1" d="M1865 1378 L1683 1560 L1703 1560 L1885 1378 Z" /></g><g class="o"><path transform="translate(4,8)" class="S sf" d="M1466 1752 L1701 1987 L1701 2009 L1466 1774 Z"/><path class="f2" d="M1466 1752 L1701 1987 L1701 2009 L1466 1774 Z" /></g><g class="o"><path transform="translate(9,18)" class="S sf" d="M1109 1598 L1216 1705 L1216 1743 L1109 1636 Z"/><path class="f5" d="M1109 1598 L1216 1705 L1216 1743 L1109 1636 Z" /></g><g class="o"><path transform="translate(8,16)" class="S sf" d="M1865 1741 L2041 1565 L2071 1565 L1895 1741 Z"/><path class="f5" d="M1865 1741 L2041 1565 L2071 1565 L1895 1741 Z" /></g><g class="o"><path transform="translate(8,16)" class="S sf" d="M1265 1169 L1042 946 L1058 946 L1281 1169 Z"/><path class="f2" d="M1265 1169 L1042 946 L1058 946 L1281 1169 Z" /></g><g class="o"><path transform="translate(9,18)" class="S sf" d="M1330 1857 L1036 1563 L1068 1563 L1362 1857 Z"/><path class="f6" d="M1330 1857 L1036 1563 L1068 1563 L1362 1857 Z" /></g><g class="o"><path transform="translate(3,6)" class="S ss" d="M1582 1158 L1532 1108 L1532 1144 L1582 1194 Z"/><path class="s6" d="M1582 1158 L1532 1108 L1532 1144 L1582 1194 Z" /></g><g class="o"><path transform="translate(7,14)" class="S sf" d="M1771 2005 L1695 1929 L1707 1929 L1783 2005 Z"/><path class="f1" d="M1771 2005 L1695 1929 L1707 1929 L1783 2005 Z" /></g><g class="o"><path transform="translate(3,6)" class="S ss" d="M1758 1635 L1869 1524 L1869 1562 L1758 1673 Z"/><path class="s1" d="M1758 1635 L1869 1524 L1869 1562 L1758 1673 Z" /></g><g class="o"><path transform="translate(5,10)" class="S sf" d="M1819 972 L1637 1154 L1637 1172 L1819 990 Z"/><path class="f7" d="M1819 972 L1637 1154 L1637 1172 L1819 990 Z" /></g><g class="o"><path transform="translate(8,16)" class="S sf" d="M1659 1804 L1527 1936 L1527 1954 L1659 1822 Z"/><path class="f1" d="M1659 1804 L1527 1936 L1527 1954 L1659 1822 Z" /></g><g class="o"><path transform="translate(5,10)" class="S sf" d="M1259 1181 L1424 1016 L1424 1038 L1259 1203 Z"/><path class="f1" d="M1259 1181 L1424 1016 L1424 1038 L1259 1203 Z" /></g><g class="o"><path transform="translate(6,12)" class="S ss" d="M1088 2033 L1235 1886 L1261 1886 L1114 2033 Z"/><path class="s7" d="M1088 2033 L1235 1886 L1261 1886 L1114 2033 Z" /></g><g class="o"><path transform="translate(9,18)" class="S sf" d="M1085 1983 L948 1846 L948 1874 L1085 2011 Z"/><path class="f2" d="M1085 1983 L948 1846 L948 1874 L1085 2011 Z" /></g><g class="o"><path transform="translate(7,14)" class="S sf" d="M1342 1744 L1232 1854 L1250 1854 L1360 1744 Z"/><path class="f1" d="M1342 1744 L1232 1854 L1250 1854 L1360 1744 Z" /></g><g class="o"><path transform="translate(4,8)" class="S sf" d="M1408 1473 L1625 1690 L1625 1720 L1408 1503 Z"/><path class="f7" d="M1408 1473 L1625 1690 L1625 1720 L1408 1503 Z" /></g><g class="o"><path transform="translate(7,14)" class="S sf" d="M1117 1671 L1265 1819 L1265 1847 L1117 1699 Z"/><path class="f4" d="M1117 1671 L1265 1819 L1265 1847 L1117 1699 Z" /></g><g class="o"><path transform="translate(5,10)" class="S sf" d="M1317 1697 L1405 1785 L1405 1799 L1317 1711 Z"/><path class="f6" d="M1317 1697 L1405 1785 L1405 1799 L1317 1711 Z" /></g><g class="o"><path transform="translate(8,16)" class="S ss" d="M1147 1929 L1339 2121 L1357 2121 L1165 1929 Z"/><path class="s1" d="M1147 1929 L1339 2121 L1357 2121 L1165 1929 Z" /></g><g class="o"><path transform="translate(4,8)" class="S sf" d="M1586 1147 L1739 1300 L1775 1300 L1622 1147 Z"/><path class="f5" d="M1586 1147 L1739 1300 L1775 1300 L1622 1147 Z" /></g><g class="o"><path transform="translate(2,4)" class="S sf" d="M1682 1842 L1572 1952 L1588 1952 L1698 1842 Z"/><path class="f4" d="M1682 1842 L1572 1952 L1588 1952 L1698 1842 Z" /></g><g class="o"><path transform="translate(9,18)" class="S sf" d="M1693 1462 L1882 1651 L1882 1675 L1693 1486 Z"/><path class="f1" d="M1693 1462 L1882 1651 L1882 1675 L1693 1486 Z" /></g><g class="o"><path transform="translate(4,8)" class="S sf" d="M1612 1773 L1831 1992 L1861 1992 L1642 1773 Z"/><path class="f3" d="M1612 1773 L1831 1992 L1861 1992 L1642 1773 Z" /></g><g class="o"><path transform="translate(7,14)" class="S ss" d="M1648 1229 L1717 1160 L1717 1198 L1648 1267 Z"/><path class="s3" d="M1648 1229 L1717 1160 L1717 1198 L1648 1267 Z" /></g><g class="o"><path transform="translate(4,8)" class="S sf" d="M1380 1208 L1142 1446 L1142 1480 L1380 1242 Z"/><path class="f3" d="M1380 1208 L1142 1446 L1142 1480 L1380 1242 Z" /></g><g class="o"><path transform="translate(5,10)" class="S sf" d="M1573 1159 L967 553 L1001 553 L1607 1159 Z"/><path class="f3" d="M1573 1159 L967 553 L1001 553 L1607 1159 Z" /></g><g class="o"><path transform="translate(6,12)" class="S sf" d="M1371 1405 L1223 1257 L1231 1257 L1379 1405 Z"/><path class="f2" d="M1371 1405 L1223 1257 L1231 1257 L1379 1405 Z" /></g><g class="o"><path transform="translate(4,8)" class="S sf" d="M1133 1003 L1589 547 L1589 577 L1133 1033 Z"/><path class="f3" d="M1133 1003 L1589 547 L1589 577 L1133 1033 Z" /></g><g class="o"><path transform="translate(2,4)" class="S ss" d="M1223 1180 L991 948 L1007 948 L1239 1180 Z"/><path class="s7" d="M1223 1180 L991 948 L1007 948 L1239 1180 Z" /></g><g class="o"><path transform="translate(9,18)" class="S sf" d="M1523 1071 L1290 838 L1290 850 L1523 1083 Z"/><path class="f2" d="M1523 1071 L1290 838 L1290 850 L1523 1083 Z" /></g><g class="o"><path transform="translate(6,12)" class="S sf" d="M1813 1004 L1698 1119 L1720 1119 L1835 1004 Z"/><path class="f3" d="M1813 1004 L1698 1119 L1720 1119 L1835 1004 Z" /></g><g class="o"><path transform="translate(5,10)" class="S sf" d="M1120 1261 L1257 1398 L1257 1436 L1120 1299 Z"/><path class="f1" d="M1120 1261 L1257 1398 L1257 1436 L1120 1299 Z" /></g><g class="o"><path transform="translate(6,12)" class="S ss" d="M1763 1007 L1694 938 L1722 938 L1791 1007 Z"/><path class="s2" d="M1763 1007 L1694 938 L1722 938 L1791 1007 Z" /></g><g class="o"><path transform="translate(5,10)" class="S sf" d="M1711 1998 L1950 2237 L1988 2237 L1749 1998 Z"/><path class="f1" d="M1711 1998 L1950 2237 L1988 2237 L1749 1998 Z" /></g><g class="o"><path transform="translate(5,10)" class="S sf" d="M1983 1978 L1560 2401 L1594 2401 L2017 1978 Z"/><path class="f1" d="M1983 1978 L1560 2401 L1594 2401 L2017 1978 Z" /></g><g class="o"><path transform="translate(9,18)" class="S sf" d="M1732 1698 L1903 1527 L1927 1527 L1756 1698 Z"/><path class="f6" d="M1732 1698 L1903 1527 L1927 1527 L1756 1698 Z" /></g><g class="o"><path transform="translate(6,12)" class="S sf" d="M1614 1740 L1746 1872 L1776 1872 L1644 1740 Z"/><path class="f5" d="M1614 1740 L1746 1872 L1776 1872 L1644 1740 Z" /></g><g class="o"><path transform="translate(4,8)" class="S sf" d="M1561 1551 L1639 1629 L1651 1629 L1573 1551 Z"/><path class="f1" d="M1561 1551 L1639 1629 L1651 1629 L1573 1551 Z" /></g><g class="o"><path transform="translate(3,6)" class="S ss" d="M2030 1822 L2106 1898 L2128 1898 L2052 1822 Z"/><path class="s3" d="M2030 1822 L2106 1898 L2128 1898 L2052 1822 Z" /></g><g class="o"><path transform="translate(7,14)" class="S sf" d="M1968 1911 L1776 2103 L1790 2103 L1982 1911 Z"/><path class="f7" d="M1968 1911 L1776 2103 L1790 2103 L1982 1911 Z" /></g><g class="o"><path transform="translate(5,10)" class="S ss" d="M1675 1301 L1795 1421 L1823 1421 L1703 1301 Z"/><path class="s4" d="M1675 1301 L1795 1421 L1823 1421 L1703 1301 Z" /></g><g class="o"><path transform="translate(3,6)" class="S ss" d="M1936 1303 L2605 1972 L2625 1972 L1956 1303 Z"/><path class="s1" d="M1936 1303 L2605 1972 L2625 1972 L1956 1303 Z" /></g><g class="o"><path transform="translate(9,18)" class="S sf" d="M1772 1782 L2000 2010 L2010 2010 L1782 1782 Z"/><path class="f2" d="M1772 1782 L2000 2010 L2010 2010 L1782 1782 Z" /></g><g class="o"><path transform="translate(5,10)" class="S sf" d="M1634 1215 L1724 1305 L1724 1337 L1634 1247 Z"/><path class="f2" d="M1634 1215 L1724 1305 L1724 1337 L1634 1247 Z" /></g><g class="o"><path transform="translate(7,14)" class="S sf" d="M1499 1371 L1389 1481 L1413 1481 L1523 1371 Z"/><path class="f7" d="M1499 1371 L1389 1481 L1413 1481 L1523 1371 Z" /></g><g class="o"><path transform="translate(3,6)" class="S sf" d="M1145 1772 L1339 1578 L1339 1616 L1145 1810 Z"/><path class="f5" d="M1145 1772 L1339 1578 L1339 1616 L1145 1810 Z" /></g><g class="o"><path transform="translate(3,6)" class="S sf" d="M1095 1135 L660 700 L688 700 L1123 1135 Z"/><path class="f7" d="M1095 1135 L660 700 L688 700 L1123 1135 Z" /></g><g class="o"><path transform="translate(9,18)" class="S sf" d="M1524 1239 L1706 1421 L1706 1439 L1524 1257 Z"/><path class="f6" d="M1524 1239 L1706 1421 L1706 1439 L1524 1257 Z" /></g><g class="o"><path transform="translate(2,4)" class="S sf" d="M2019 1674 L2078 1615 L2086 1615 L2027 1674 Z"/><path class="f3" d="M2019 1674 L2078 1615 L2086 1615 L2027 1674 Z" /></g><g class="o"><path transform="translate(2,4)" class="S sf" d="M1909 1486 L2132 1709 L2132 1743 L1909 1520 Z"/><path class="f4" d="M1909 1486 L2132 1709 L2132 1743 L1909 1520 Z" /></g><g class="o"><path transform="translate(2,4)" class="S sf" d="M1360 1132 L1281 1211 L1303 1211 L1382 1132 Z"/><path class="f5" d="M1360 1132 L1281 1211 L1303 1211 L1382 1132 Z" /></g><g class="o"><path transform="translate(4,8)" class="S sf" d="M1158 1211 L1257 1112 L1267 1112 L1168 1211 Z"/><path class="f7" d="M1158 1211 L1257 1112 L1267 1112 L1168 1211 Z" /></g><g class="o"><path transform="translate(3,6)" class="S sf" d="M999 1623 L921 1545 L945 1545 L1023 1623 Z"/><path class="f1" d="M999 1623 L921 1545 L945 1545 L1023 1623 Z" /></g><g class="o"><path transform="translate(6,12)" class="S sf" d="M1063 1797 L391 1125 L401 1125 L1073 1797 Z"/><path class="f6" d="M1063 1797 L391 1125 L401 1125 L1073 1797 Z" /></g><g class="o"><path transform="translate(9,18)" class="S sf" d="M1043 1752 L1667 2376 L1693 2376 L1069 1752 Z"/><path class="f1" d="M1043 1752 L1667 2376 L1693 2376 L1069 1752 Z" /></g><g class="o"><path transform="translate(6,12)" class="S sf" d="M1628 1049 L2276 401 L2276 427 L1628 1075 Z"/><path class="f5" d="M1628 1049 L2276 401 L2276 427 L1628 1075 Z" /></g><g class="o"><path transform="translate(4,8)" class="S sf" d="M1332 1273 L1395 1210 L1395 1230 L1332 1293 Z"/><path class="f5" d="M1332 1273 L1395 1210 L1395 1230 L1332 1293 Z" /></g><g class="o"><path transform="translate(5,10)" class="S sf" d="M1857 1522 L2105 1770 L2105 1778 L1857 1530 Z"/><path class="f3" d="M1857 1522 L2105 1770 L2105 1778 L1857 1530 Z" /></g><g class="o"><path transform="translate(3,6)" class="S sf" d="M1604 1504 L1682 1582 L1690 1582 L1612 1504 Z"/><path class="f1" d="M1604 1504 L1682 1582 L1690 1582 L1612 1504 Z" /></g><g class="o"><path transform="translate(5,10)" class="S sf" d="M1905 1845 L1985 1765 L2005 1765 L1925 1845 Z"/><path class="f2" d="M1905 1845 L1985 1765 L2005 1765 L1925 1845 Z" /></g><g class="o"><path transform="translate(2,4)" class="S sf" d="M1522 1906 L1389 2039 L1425 2039 L1558 1906 Z"/><path class="f3" d="M1522 1906 L1389 2039 L1425 2039 L1558 1906 Z" /></g><g class="o"><path transform="translate(4,8)" class="S ss" d="M1040 1940 L962 1862 L978 1862 L1056 1940 Z"/><path class="s5" d="M1040 1940 L962 1862 L978 1862 L1056 1940 Z" /></g><g class="o"><path transform="translate(9,18)" class="S sf" d="M1550 1552 L1371 1373 L1371 1391 L1550 1570 Z"/><path class="f2" d="M1550 1552 L1371 1373 L1371 1391 L1550 1570 Z" /></g><g class="o"><path transform="translate(8,16)" class="S sf" d="M1521 2020 L927 2614 L949 2614 L1543 2020 Z"/><path class="f2" d="M1521 2020 L927 2614 L949 2614 L1543 2020 Z" /></g><g class="o"><path transform="translate(4,8)" class="S sf" d="M1316 2021 L1396 1941 L1396 1957 L1316 2037 Z"/><path class="f6" d="M1316 2021 L1396 1941 L1396 1957 L1316 2037 Z" /></g><g class="o"><path transform="translate(2,4)" class="S sf" d="M1140 1273 L1713 1846 L1713 1866 L1140 1293 Z"/><path class="f6" d="M1140 1273 L1713 1846 L1713 1866 L1140 1293 Z" /></g><g class="o"><path transform="translate(8,16)" class="S sf" d="M1975 1419 L1743 1187 L1779 1187 L2011 1419 Z"/><path class="f4" d="M1975 1419 L1743 1187 L1779 1187 L2011 1419 Z" /></g><g class="o"><path transform="translate(8,16)" class="S sf" d="M1534 1347 L1293 1106 L1331 1106 L1572 1347 Z"/><path class="f4" d="M1534 1347 L1293 1106 L1331 1106 L1572 1347 Z" /></g><g class="o"><path transform="translate(6,12)" class="S sf" d="M1699 1194 L1896 997 L1896 1029 L1699 1226 Z"/><path class="f7" d="M1699 1194 L1896 997 L1896 1029 L1699 1226 Z" /></g><g class="o"><path transform="translate(2,4)" class="S sf" d="M1788 1886 L1632 2042 L1632 2050 L1788 1894 Z"/><path class="f7" d="M1788 1886 L1632 2042 L1632 2050 L1788 1894 Z" /></g><g class="o"><path transform="translate(5,10)" class="S ss" d="M1340 1413 L1091 1164 L1091 1176 L1340 1425 Z"/><path class="s3" d="M1340 1413 L1091 1164 L1091 1176 L1340 1425 Z" /></g><g class="o"><path transform="translate(9,18)" class="S sf" d="M1785 1572 L1398 1185 L1398 1205 L1785 1592 Z"/><path class="f6" d="M1785 1572 L1398 1185 L1398 1205 L1785 1592 Z" /></g><g class="o"><path transform="translate(2,4)" class="S sf" d="M1225 2006 L1420 2201 L1420 2209 L1225 2014 Z"/><path class="f5" d="M1225 2006 L1420 2201 L1420 2209 L1225 2014 Z" /></g><g class="o"><path transform="translate(9,18)" class="S sf" d="M1961 1578 L2420 1119 L2428 1119 L1969 1578 Z"/><path class="f1" d="M1961 1578 L2420 1119 L2428 1119 L1969 1578 Z" /></g></g><use href="#slashes" transform-origin="1500 1500" transform="rotate(180) scale(2)"/></g><rect x="1080" y="1080" width="840" height="840" stroke-width="40" class="o f7" /><use href="#slashes" transform-origin="1500 1500" transform="scale(.7)"/><use href="#slashes" transform-origin="1500 1500" transform="rotate(180) scale(1.3)"/></svg>