<svg xmlns="http://www.w3.org/2000/svg" viewBox="750 750 1500 1500"><style>/*<![CDATA[*/svg{background:rgb(34,34,34);max-width:100vw;max-height:100vh}path{stroke-width:4}.o{opacity:.75}.S{opacity:.4}.sf{stroke:none;fill:black}.sfh{stroke:none;fill:url(#hs)}.sfv{stroke:none;fill:url(#vs)}.ss{stroke:black;fill:none}.ssh{stroke:url(#hs);fill:none}.ssv{stroke:url(#vs);fill:none}.s1{fill:none;stroke:rgb(13,13,13)}.f1{stroke:none;fill:rgb(13,13,13)}.sh1{fill:none;stroke:url(#h1)}.fh1{stroke:none;fill:url(#h1)}.sv1{fill:none;stroke:url(#v1)}.fv1{stroke:none;fill:url(#v1)}.s2{fill:none;stroke:rgb(242,220,155)}.f2{stroke:none;fill:rgb(242,220,155)}.sh2{fill:none;stroke:url(#h2)}.fh2{stroke:none;fill:url(#h2)}.sv2{fill:none;stroke:url(#v2)}.fv2{stroke:none;fill:url(#v2)}.s3{fill:none;stroke:rgb(107,107,107)}.f3{stroke:none;fill:rgb(107,107,107)}.sh3{fill:none;stroke:url(#h3)}.fh3{stroke:none;fill:url(#h3)}.sv3{fill:none;stroke:url(#v3)}.fv3{stroke:none;fill:url(#v3)}.s4{fill:none;stroke:rgb(38,1,1)}.f4{stroke:none;fill:rgb(38,1,1)}.sh4{fill:none;stroke:url(#h4)}.fh4{stroke:none;fill:url(#h4)}.sv4{fill:none;stroke:url(#v4)}.fv4{stroke:none;fill:url(#v4)}.s5{fill:none;stroke:rgb(144,144,144)}.f5{stroke:none;fill:rgb(144,144,144)}.sh5{fill:none;stroke:url(#h5)}.fh5{stroke:none;fill:url(#h5)}.sv5{fill:none;stroke:url(#v5)}.fv5{stroke:none;fill:url(#v5)}.s6{fill:none;stroke:rgb(255,255,255)}.f6{stroke:none;fill:rgb(255,255,255)}.sh6{fill:none;stroke:url(#h6)}.fh6{stroke:none;fill:url(#h6)}.sv6{fill:none;stroke:url(#v6)}.fv6{stroke:none;fill:url(#v6)}.s7{fill:none;stroke:rgb(255,0,0)}.f7{stroke:none;fill:rgb(255,0,0)}.sh7{fill:none;stroke:url(#h7)}.fh7{stroke:none;fill:url(#h7)}.sv7{fill:none;stroke:url(#v7)}.fv7{stroke:none;fill:url(#v7)}/*]]>*/</style><defs><linearGradient gradientTransform="rotate(90)" id="hs"><stop offset="20%" stop-color="#000" /><stop offset="95%" stop-color="rgba(0, 0, 0, 0)" /></linearGradient><linearGradient id="vs"><stop offset="20%" stop-color="#000" /><stop offset="95%" stop-color="rgba(0, 0, 0, 0)" /></linearGradient><linearGradient gradientTransform="rotate(90)" id="h1"><stop offset="20%" stop-color="rgba(13,13,13,1)" /><stop offset="95%" stop-color="rgba(13,13,13,0)" /></linearGradient><linearGradient id="v1"><stop offset="20%" stop-color="rgba(13,13,13,1)" /><stop offset="95%" stop-color="rgba(13,13,13,0)" /></linearGradient><linearGradient gradientTransform="rotate(90)" id="h2"><stop offset="20%" stop-color="rgba(242,220,155,1)" /><stop offset="95%" stop-color="rgba(242,220,155,0)" /></linearGradient><linearGradient id="v2"><stop offset="20%" stop-color="rgba(242,220,155,1)" /><stop offset="95%" stop-color="rgba(242,220,155,0)" /></linearGradient><linearGradient gradientTransform="rotate(90)" id="h3"><stop offset="20%" stop-color="rgba(107,107,107,1)" /><stop offset="95%" stop-color="rgba(107,107,107,0)" /></linearGradient><linearGradient id="v3"><stop offset="20%" stop-color="rgba(107,107,107,1)" /><stop offset="95%" stop-color="rgba(107,107,107,0)" /></linearGradient><linearGradient gradientTransform="rotate(90)" id="h4"><stop offset="20%" stop-color="rgba(38,1,1,1)" /><stop offset="95%" stop-color="rgba(38,1,1,0)" /></linearGradient><linearGradient id="v4"><stop offset="20%" stop-color="rgba(38,1,1,1)" /><stop offset="95%" stop-color="rgba(38,1,1,0)" /></linearGradient><linearGradient gradientTransform="rotate(90)" id="h5"><stop offset="20%" stop-color="rgba(144,144,144,1)" /><stop offset="95%" stop-color="rgba(144,144,144,0)" /></linearGradient><linearGradient id="v5"><stop offset="20%" stop-color="rgba(144,144,144,1)" /><stop offset="95%" stop-color="rgba(144,144,144,0)" /></linearGradient><linearGradient gradientTransform="rotate(90)" id="h6"><stop offset="20%" stop-color="rgba(255,255,255,1)" /><stop offset="95%" stop-color="rgba(255,255,255,0)" /></linearGradient><linearGradient id="v6"><stop offset="20%" stop-color="rgba(255,255,255,1)" /><stop offset="95%" stop-color="rgba(255,255,255,0)" /></linearGradient><linearGradient gradientTransform="rotate(90)" id="h7"><stop offset="20%" stop-color="rgba(255,0,0,1)" /><stop offset="95%" stop-color="rgba(255,0,0,0)" /></linearGradient><linearGradient id="v7"><stop offset="20%" stop-color="rgba(255,0,0,1)" /><stop offset="95%" stop-color="rgba(255,0,0,0)" /></linearGradient></defs><g transform-origin="1500 1500" transform="scale(2)" opacity=".8"><g id="slashes"><g class="o"><path transform="translate(4,8)" class="S sfv" d="M1650 1709 L1452 1511 L1452 1529 L1650 1727 Z"/><path class="fv4" d="M1650 1709 L1452 1511 L1452 1529 L1650 1727 Z" /></g><g class="o"><path transform="translate(3,6)" class="S sfv" d="M976 1452 L843 1319 L843 1351 L976 1484 Z"/><path class="fv6" d="M976 1452 L843 1319 L843 1351 L976 1484 Z" /></g><g class="o"><path transform="translate(8,16)" class="S sfh" d="M1794 1449 L1571 1226 L1579 1226 L1802 1449 Z"/><path class="fh7" d="M1794 1449 L1571 1226 L1579 1226 L1802 1449 Z" /></g><g class="o"><path transform="translate(5,10)" class="S sf" d="M1785 1067 L1555 837 L1555 875 L1785 1105 Z"/><path class="f6" d="M1785 1067 L1555 837 L1555 875 L1785 1105 Z" /></g><g class="o"><path transform="translate(5,10)" class="S ss" d="M1775 1854 L1702 1781 L1734 1781 L1807 1854 Z"/><path class="s3" d="M1775 1854 L1702 1781 L1734 1781 L1807 1854 Z" /></g><g class="o"><path transform="translate(5,10)" class="S sfh" d="M1293 1924 L1196 1827 L1210 1827 L1307 1924 Z"/><path class="fh6" d="M1293 1924 L1196 1827 L1210 1827 L1307 1924 Z" /></g><g class="o"><path transform="translate(7,14)" class="S sfv" d="M1076 959 L1017 900 L1017 936 L1076 995 Z"/><path class="fv3" d="M1076 959 L1017 900 L1017 936 L1076 995 Z" /></g><g class="o"><path transform="translate(4,8)" class="S sfv" d="M1005 1776 L953 1724 L953 1750 L1005 1802 Z"/><path class="fv5" d="M1005 1776 L953 1724 L953 1750 L1005 1802 Z" /></g><g class="o"><path transform="translate(8,16)" class="S sf" d="M1503 1959 L1323 1779 L1323 1809 L1503 1989 Z"/><path class="f2" d="M1503 1959 L1323 1779 L1323 1809 L1503 1989 Z" /></g><g class="o"><path transform="translate(3,6)" class="S ssv" d="M1702 1628 L1472 1398 L1472 1426 L1702 1656 Z"/><path class="sv1" d="M1702 1628 L1472 1398 L1472 1426 L1702 1656 Z" /></g><g class="o"><path transform="translate(4,8)" class="S sfv" d="M1619 1946 L1371 1698 L1371 1722 L1619 1970 Z"/><path class="fv4" d="M1619 1946 L1371 1698 L1371 1722 L1619 1970 Z" /></g><g class="o"><path transform="translate(4,8)" class="S sf" d="M1423 1638 L1338 1553 L1346 1553 L1431 1638 Z"/><path class="f6" d="M1423 1638 L1338 1553 L1346 1553 L1431 1638 Z" /></g><g class="o"><path transform="translate(4,8)" class="S sfv" d="M1489 1941 L1369 1821 L1369 1843 L1489 1963 Z"/><path class="fv6" d="M1489 1941 L1369 1821 L1369 1843 L1489 1963 Z" /></g><g class="o"><path transform="translate(9,18)" class="S sfv" d="M1674 1002 L1526 854 L1526 886 L1674 1034 Z"/><path class="fv6" d="M1674 1002 L1526 854 L1526 886 L1674 1034 Z" /></g><g class="o"><path transform="translate(5,10)" class="S sfh" d="M1325 1291 L1117 1083 L1133 1083 L1341 1291 Z"/><path class="fh6" d="M1325 1291 L1117 1083 L1133 1083 L1341 1291 Z" /></g><g class="o"><path transform="translate(7,14)" class="S sfv" d="M1552 1003 L1434 885 L1434 921 L1552 1039 Z"/><path class="fv3" d="M1552 1003 L1434 885 L1434 921 L1552 1039 Z" /></g><g class="o"><path transform="translate(7,14)" class="S ssh" d="M1374 1245 L1156 1027 L1190 1027 L1408 1245 Z"/><path class="sh4" d="M1374 1245 L1156 1027 L1190 1027 L1408 1245 Z" /></g><g class="o"><path transform="translate(2,4)" class="S sf" d="M1169 1160 L1099 1090 L1099 1120 L1169 1190 Z"/><path class="f4" d="M1169 1160 L1099 1090 L1099 1120 L1169 1190 Z" /></g><g class="o"><path transform="translate(5,10)" class="S sfh" d="M1646 1248 L1569 1171 L1603 1171 L1680 1248 Z"/><path class="fh6" d="M1646 1248 L1569 1171 L1603 1171 L1680 1248 Z" /></g><g class="o"><path transform="translate(9,18)" class="S sfv" d="M1083 1407 L948 1272 L948 1282 L1083 1417 Z"/><path class="fv2" d="M1083 1407 L948 1272 L948 1282 L1083 1417 Z" /></g><g class="o"><path transform="translate(9,18)" class="S sfh" d="M953 1860 L892 1799 L926 1799 L987 1860 Z"/><path class="fh6" d="M953 1860 L892 1799 L926 1799 L987 1860 Z" /></g><g class="o"><path transform="translate(2,4)" class="S ssv" d="M1358 1974 L1134 1750 L1134 1764 L1358 1988 Z"/><path class="sv7" d="M1358 1974 L1134 1750 L1134 1764 L1358 1988 Z" /></g><g class="o"><path transform="translate(9,18)" class="S sfv" d="M1191 1686 L1092 1587 L1092 1599 L1191 1698 Z"/><path class="fv4" d="M1191 1686 L1092 1587 L1092 1599 L1191 1698 Z" /></g><g class="o"><path transform="translate(9,18)" class="S sfv" d="M1855 1187 L1805 1137 L1805 1175 L1855 1225 Z"/><path class="fv4" d="M1855 1187 L1805 1137 L1805 1175 L1855 1225 Z" /></g><g class="o"><path transform="translate(2,4)" class="S sf" d="M1302 1500 L1184 1382 L1184 1414 L1302 1532 Z"/><path class="f2" d="M1302 1500 L1184 1382 L1184 1414 L1302 1532 Z" /></g><g class="o"><path transform="translate(8,16)" class="S ssv" d="M990 938 L877 825 L877 859 L990 972 Z"/><path class="sv4" d="M990 938 L877 825 L877 859 L990 972 Z" /></g><g class="o"><path transform="translate(9,18)" class="S ssh" d="M1440 1229 L1222 1011 L1252 1011 L1470 1229 Z"/><path class="sh2" d="M1440 1229 L1222 1011 L1252 1011 L1470 1229 Z" /></g><g class="o"><path transform="translate(4,8)" class="S sfv" d="M1510 1642 L1348 1480 L1348 1488 L1510 1650 Z"/><path class="fv2" d="M1510 1642 L1348 1480 L1348 1488 L1510 1650 Z" /></g><g class="o"><path transform="translate(3,6)" class="S sfv" d="M973 1209 L854 1090 L854 1118 L973 1237 Z"/><path class="fv2" d="M973 1209 L854 1090 L854 1118 L973 1237 Z" /></g><g class="o"><path transform="translate(8,16)" class="S ss" d="M2038 1846 L1866 1674 L1866 1698 L2038 1870 Z"/><path class="s3" d="M2038 1846 L1866 1674 L1866 1698 L2038 1870 Z" /></g><g class="o"><path transform="translate(3,6)" class="S sfv" d="M1329 1572 L1169 1412 L1169 1420 L1329 1580 Z"/><path class="fv3" d="M1329 1572 L1169 1412 L1169 1420 L1329 1580 Z" /></g><g class="o"><path transform="translate(4,8)" class="S sfv" d="M1874 1820 L1798 1744 L1798 1762 L1874 1838 Z"/><path class="fv1" d="M1874 1820 L1798 1744 L1798 1762 L1874 1838 Z" /></g><g class="o"><path transform="translate(2,4)" class="S ssh" d="M1887 1477 L1663 1253 L1691 1253 L1915 1477 Z"/><path class="sh2" d="M1887 1477 L1663 1253 L1691 1253 L1915 1477 Z" /></g><g class="o"><path transform="translate(5,10)" class="S sfh" d="M1212 1068 L999 855 L1013 855 L1226 1068 Z"/><path class="fh6" d="M1212 1068 L999 855 L1013 855 L1226 1068 Z" /></g><g class="o"><path transform="translate(2,4)" class="S sfh" d="M1726 1879 L1548 1701 L1582 1701 L1760 1879 Z"/><path class="fh1" d="M1726 1879 L1548 1701 L1582 1701 L1760 1879 Z" /></g><g class="o"><path transform="translate(9,18)" class="S sfv" d="M1186 1151 L1022 987 L1022 1011 L1186 1175 Z"/><path class="fv2" d="M1186 1151 L1022 987 L1022 1011 L1186 1175 Z" /></g><g class="o"><path transform="translate(4,8)" class="S sfv" d="M1014 1609 L906 1501 L906 1515 L1014 1623 Z"/><path class="fv6" d="M1014 1609 L906 1501 L906 1515 L1014 1623 Z" /></g><g class="o"><path transform="translate(2,4)" class="S sfv" d="M1998 1865 L1899 1766 L1899 1788 L1998 1887 Z"/><path class="fv4" d="M1998 1865 L1899 1766 L1899 1788 L1998 1887 Z" /></g><g class="o"><path transform="translate(4,8)" class="S sfv" d="M2048 1042 L1985 979 L1985 991 L2048 1054 Z"/><path class="fv2" d="M2048 1042 L1985 979 L1985 991 L2048 1054 Z" /></g><g class="o"><path transform="translate(4,8)" class="S ssh" d="M1079 1896 L870 1687 L882 1687 L1091 1896 Z"/><path class="sh1" d="M1079 1896 L870 1687 L882 1687 L1091 1896 Z" /></g><g class="o"><path transform="translate(5,10)" class="S sfh" d="M1822 1107 L1573 858 L1599 858 L1848 1107 Z"/><path class="fh3" d="M1822 1107 L1573 858 L1599 858 L1848 1107 Z" /></g><g class="o"><path transform="translate(4,8)" class="S sfh" d="M1129 1776 L998 1645 L1028 1645 L1159 1776 Z"/><path class="fh7" d="M1129 1776 L998 1645 L1028 1645 L1159 1776 Z" /></g><g class="o"><path transform="translate(2,4)" class="S sf" d="M1451 1017 L1218 784 L1218 792 L1451 1025 Z"/><path class="f1" d="M1451 1017 L1218 784 L1218 792 L1451 1025 Z" /></g><g class="o"><path transform="translate(3,6)" class="S sfh" d="M1923 954 L1767 798 L1785 798 L1941 954 Z"/><path class="fh6" d="M1923 954 L1767 798 L1785 798 L1941 954 Z" /></g><g class="o"><path transform="translate(9,18)" class="S sfv" d="M1607 1268 L1455 1116 L1455 1154 L1607 1306 Z"/><path class="fv6" d="M1607 1268 L1455 1116 L1455 1154 L1607 1306 Z" /></g><g class="o"><path transform="translate(7,14)" class="S sfh" d="M1014 1635 L800 1421 L808 1421 L1022 1635 Z"/><path class="fh3" d="M1014 1635 L800 1421 L808 1421 L1022 1635 Z" /></g><g class="o"><path transform="translate(3,6)" class="S sfh" d="M1865 1665 L1665 1465 L1673 1465 L1873 1665 Z"/><path class="fh6" d="M1865 1665 L1665 1465 L1673 1465 L1873 1665 Z" /></g><g class="o"><path transform="translate(6,12)" class="S ssv" d="M1116 1863 L1021 1768 L1021 1790 L1116 1885 Z"/><path class="sv2" d="M1116 1863 L1021 1768 L1021 1790 L1116 1885 Z" /></g><g class="o"><path transform="translate(4,8)" class="S sf" d="M1881 1768 L1722 1609 L1722 1633 L1881 1792 Z"/><path class="f2" d="M1881 1768 L1722 1609 L1722 1633 L1881 1792 Z" /></g><g class="o"><path transform="translate(9,18)" class="S sfv" d="M1632 1525 L1484 1377 L1484 1397 L1632 1545 Z"/><path class="fv5" d="M1632 1525 L1484 1377 L1484 1397 L1632 1545 Z" /></g><g class="o"><path transform="translate(4,8)" class="S ssh" d="M1033 1419 L962 1348 L976 1348 L1047 1419 Z"/><path class="sh6" d="M1033 1419 L962 1348 L976 1348 L1047 1419 Z" /></g><g class="o"><path transform="translate(5,10)" class="S sfv" d="M1758 1598 L1556 1396 L1556 1412 L1758 1614 Z"/><path class="fv2" d="M1758 1598 L1556 1396 L1556 1412 L1758 1614 Z" /></g><g class="o"><path transform="translate(4,8)" class="S sfh" d="M1091 1829 L960 1698 L974 1698 L1105 1829 Z"/><path class="fh5" d="M1091 1829 L960 1698 L974 1698 L1105 1829 Z" /></g><g class="o"><path transform="translate(9,18)" class="S sfv" d="M1804 1784 L1557 1537 L1557 1569 L1804 1816 Z"/><path class="fv4" d="M1804 1784 L1557 1537 L1557 1569 L1804 1816 Z" /></g><g class="o"><path transform="translate(7,14)" class="S sf" d="M1716 1115 L1603 1002 L1603 1024 L1716 1137 Z"/><path class="f6" d="M1716 1115 L1603 1002 L1603 1024 L1716 1137 Z" /></g><g class="o"><path transform="translate(7,14)" class="S ssh" d="M1610 1350 L1519 1259 L1553 1259 L1644 1350 Z"/><path class="sh5" d="M1610 1350 L1519 1259 L1553 1259 L1644 1350 Z" /></g><g class="o"><path transform="translate(6,12)" class="S sfv" d="M1024 1765 L937 1678 L937 1698 L1024 1785 Z"/><path class="fv3" d="M1024 1765 L937 1678 L937 1698 L1024 1785 Z" /></g><g class="o"><path transform="translate(2,4)" class="S ssh" d="M1351 1856 L1221 1726 L1231 1726 L1361 1856 Z"/><path class="sh6" d="M1351 1856 L1221 1726 L1231 1726 L1361 1856 Z" /></g><g class="o"><path transform="translate(8,16)" class="S sfh" d="M1152 1797 L988 1633 L996 1633 L1160 1797 Z"/><path class="fh2" d="M1152 1797 L988 1633 L996 1633 L1160 1797 Z" /></g><g class="o"><path transform="translate(6,12)" class="S sfh" d="M1842 1502 L1758 1418 L1784 1418 L1868 1502 Z"/><path class="fh5" d="M1842 1502 L1758 1418 L1784 1418 L1868 1502 Z" /></g><g class="o"><path transform="translate(9,18)" class="S sfh" d="M1992 1290 L1746 1044 L1782 1044 L2028 1290 Z"/><path class="fh6" d="M1992 1290 L1746 1044 L1782 1044 L2028 1290 Z" /></g><g class="o"><path transform="translate(2,4)" class="S ssv" d="M1572 942 L1516 886 L1516 908 L1572 964 Z"/><path class="sv6" d="M1572 942 L1516 886 L1516 908 L1572 964 Z" /></g><g class="o"><path transform="translate(8,16)" class="S sfh" d="M1162 1844 L1020 1702 L1028 1702 L1170 1844 Z"/><path class="fh1" d="M1162 1844 L1020 1702 L1028 1702 L1170 1844 Z" /></g><g class="o"><path transform="translate(5,10)" class="S sfh" d="M1890 1128 L1774 1012 L1804 1012 L1920 1128 Z"/><path class="fh6" d="M1890 1128 L1774 1012 L1804 1012 L1920 1128 Z" /></g><g class="o"><path transform="translate(8,16)" class="S sf" d="M1575 1757 L1370 1552 L1370 1578 L1575 1783 Z"/><path class="f7" d="M1575 1757 L1370 1552 L1370 1578 L1575 1783 Z" /></g><g class="o"><path transform="translate(5,10)" class="S sf" d="M1309 1598 L1096 1385 L1110 1385 L1323 1598 Z"/><path class="f3" d="M1309 1598 L1096 1385 L1110 1385 L1323 1598 Z" /></g><g class="o"><path transform="translate(6,12)" class="S sfh" d="M1347 1141 L1282 1076 L1292 1076 L1357 1141 Z"/><path class="fh2" d="M1347 1141 L1282 1076 L1292 1076 L1357 1141 Z" /></g><g class="o"><path transform="translate(3,6)" class="S sf" d="M1552 940 L1497 885 L1497 919 L1552 974 Z"/><path class="f4" d="M1552 940 L1497 885 L1497 919 L1552 974 Z" /></g><g class="o"><path transform="translate(5,10)" class="S sfh" d="M1753 1281 L1650 1178 L1664 1178 L1767 1281 Z"/><path class="fh6" d="M1753 1281 L1650 1178 L1664 1178 L1767 1281 Z" /></g><g class="o"><path transform="translate(6,12)" class="S sfv" d="M1647 1627 L1516 1496 L1516 1508 L1647 1639 Z"/><path class="fv6" d="M1647 1627 L1516 1496 L1516 1508 L1647 1639 Z" /></g><g class="o"><path transform="translate(2,4)" class="S sfv" d="M2004 1262 L1936 1194 L1936 1204 L2004 1272 Z"/><path class="fv3" d="M2004 1262 L1936 1194 L1936 1204 L2004 1272 Z" /></g><g class="o"><path transform="translate(9,18)" class="S ssv" d="M1350 1223 L1252 1125 L1252 1153 L1350 1251 Z"/><path class="sv3" d="M1350 1223 L1252 1125 L1252 1153 L1350 1251 Z" /></g><g class="o"><path transform="translate(4,8)" class="S sfh" d="M1483 1384 L1399 1300 L1437 1300 L1521 1384 Z"/><path class="fh6" d="M1483 1384 L1399 1300 L1437 1300 L1521 1384 Z" /></g><g class="o"><path transform="translate(4,8)" class="S sf" d="M968 1133 L722 887 L722 917 L968 1163 Z"/><path class="f5" d="M968 1133 L722 887 L722 917 L968 1163 Z" /></g><g class="o"><path transform="translate(2,4)" class="S ssv" d="M1101 1804 L866 1569 L866 1589 L1101 1824 Z"/><path class="sv7" d="M1101 1804 L866 1569 L866 1589 L1101 1824 Z" /></g><g class="o"><path transform="translate(3,6)" class="S ssh" d="M1106 2043 L913 1850 L923 1850 L1116 2043 Z"/><path class="sh4" d="M1106 2043 L913 1850 L923 1850 L1116 2043 Z" /></g><g class="o"><path transform="translate(7,14)" class="S sfh" d="M1616 1119 L1418 921 L1442 921 L1640 1119 Z"/><path class="fh6" d="M1616 1119 L1418 921 L1442 921 L1640 1119 Z" /></g><g class="o"><path transform="translate(8,16)" class="S ssh" d="M1142 1356 L1085 1299 L1119 1299 L1176 1356 Z"/><path class="sh5" d="M1142 1356 L1085 1299 L1119 1299 L1176 1356 Z" /></g><g class="o"><path transform="translate(5,10)" class="S sfh" d="M1998 1393 L1909 1304 L1945 1304 L2034 1393 Z"/><path class="fh7" d="M1998 1393 L1909 1304 L1945 1304 L2034 1393 Z" /></g><g class="o"><path transform="translate(3,6)" class="S sfh" d="M1927 1871 L1703 1647 L1727 1647 L1951 1871 Z"/><path class="fh4" d="M1927 1871 L1703 1647 L1727 1647 L1951 1871 Z" /></g><g class="o"><path transform="translate(7,14)" class="S sf" d="M1361 1301 L1305 1245 L1339 1245 L1395 1301 Z"/><path class="f6" d="M1361 1301 L1305 1245 L1339 1245 L1395 1301 Z" /></g><g class="o"><path transform="translate(4,8)" class="S sfv" d="M1006 1866 L874 1734 L874 1762 L1006 1894 Z"/><path class="fv6" d="M1006 1866 L874 1734 L874 1762 L1006 1894 Z" /></g><g class="o"><path transform="translate(5,10)" class="S ssv" d="M1903 994 L1695 786 L1695 804 L1903 1012 Z"/><path class="sv2" d="M1903 994 L1695 786 L1695 804 L1903 1012 Z" /></g><g class="o"><path transform="translate(9,18)" class="S sfh" d="M1669 1620 L1556 1507 L1574 1507 L1687 1620 Z"/><path class="fh5" d="M1669 1620 L1556 1507 L1574 1507 L1687 1620 Z" /></g><g class="o"><path transform="translate(5,10)" class="S sfh" d="M2023 1297 L1789 1063 L1813 1063 L2047 1297 Z"/><path class="fh4" d="M2023 1297 L1789 1063 L1813 1063 L2047 1297 Z" /></g><g class="o"><path transform="translate(8,16)" class="S sfh" d="M1469 1831 L1296 1658 L1326 1658 L1499 1831 Z"/><path class="fh2" d="M1469 1831 L1296 1658 L1326 1658 L1499 1831 Z" /></g><g class="o"><path transform="translate(8,16)" class="S sf" d="M1455 1036 L1311 892 L1323 892 L1467 1036 Z"/><path class="f3" d="M1455 1036 L1311 892 L1323 892 L1467 1036 Z" /></g><g class="o"><path transform="translate(9,18)" class="S sfv" d="M1461 1171 L1368 1078 L1368 1102 L1461 1195 Z"/><path class="fv2" d="M1461 1171 L1368 1078 L1368 1102 L1461 1195 Z" /></g><g class="o"><path transform="translate(3,6)" class="S sfv" d="M1645 1389 L1569 1313 L1569 1347 L1645 1423 Z"/><path class="fv7" d="M1645 1389 L1569 1313 L1569 1347 L1645 1423 Z" /></g><g class="o"><path transform="translate(4,8)" class="S sfh" d="M1901 1642 L1714 1455 L1726 1455 L1913 1642 Z"/><path class="fh1" d="M1901 1642 L1714 1455 L1726 1455 L1913 1642 Z" /></g><g class="o"><path transform="translate(2,4)" class="S sfv" d="M1134 1023 L1022 911 L1022 921 L1134 1033 Z"/><path class="fv3" d="M1134 1023 L1022 911 L1022 921 L1134 1033 Z" /></g><g class="o"><path transform="translate(9,18)" class="S sf" d="M1468 1208 L1357 1097 L1357 1121 L1468 1232 Z"/><path class="f7" d="M1468 1208 L1357 1097 L1357 1121 L1468 1232 Z" /></g><g class="o"><path transform="translate(2,4)" class="S sfh" d="M1763 1241 L1561 1039 L1577 1039 L1779 1241 Z"/><path class="fh5" d="M1763 1241 L1561 1039 L1577 1039 L1779 1241 Z" /></g><g class="o"><path transform="translate(8,16)" class="S sfv" d="M2025 1987 L1960 1922 L1960 1960 L2025 2025 Z"/><path class="fv3" d="M2025 1987 L1960 1922 L1960 1960 L2025 2025 Z" /></g><g class="o"><path transform="translate(5,10)" class="S ss" d="M1990 2039 L1939 1988 L1969 1988 L2020 2039 Z"/><path class="s7" d="M1990 2039 L1939 1988 L1969 1988 L2020 2039 Z" /></g><g class="o"><path transform="translate(6,12)" class="S ssv" d="M1885 1193 L1780 1088 L1780 1110 L1885 1215 Z"/><path class="sv2" d="M1885 1193 L1780 1088 L1780 1110 L1885 1215 Z" /></g><g class="o"><path transform="translate(7,14)" class="S sfh" d="M1074 1467 L1007 1400 L1035 1400 L1102 1467 Z"/><path class="fh1" d="M1074 1467 L1007 1400 L1035 1400 L1102 1467 Z" /></g><g class="o"><path transform="translate(2,4)" class="S ssh" d="M2008 1707 L1808 1507 L1816 1507 L2016 1707 Z"/><path class="sh6" d="M2008 1707 L1808 1507 L1816 1507 L2016 1707 Z" /></g><g class="o"><path transform="translate(3,6)" class="S ssv" d="M1684 1845 L1625 1786 L1625 1812 L1684 1871 Z"/><path class="sv4" d="M1684 1845 L1625 1786 L1625 1812 L1684 1871 Z" /></g><g class="o"><path transform="translate(9,18)" class="S ssh" d="M996 1907 L820 1731 L844 1731 L1020 1907 Z"/><path class="sh1" d="M996 1907 L820 1731 L844 1731 L1020 1907 Z" /></g><g class="o"><path transform="translate(7,14)" class="S sfv" d="M1154 1987 L965 1798 L965 1822 L1154 2011 Z"/><path class="fv5" d="M1154 1987 L965 1798 L965 1822 L1154 2011 Z" /></g><g class="o"><path transform="translate(8,16)" class="S sfv" d="M1881 1911 L1799 1829 L1799 1865 L1881 1947 Z"/><path class="fv4" d="M1881 1911 L1799 1829 L1799 1865 L1881 1947 Z" /></g><g class="o"><path transform="translate(2,4)" class="S sfv" d="M1827 1835 L1771 1779 L1771 1797 L1827 1853 Z"/><path class="fv1" d="M1827 1835 L1771 1779 L1771 1797 L1827 1853 Z" /></g><g class="o"><path transform="translate(2,4)" class="S sfh" d="M1052 1254 L912 1114 L948 1114 L1088 1254 Z"/><path class="fh3" d="M1052 1254 L912 1114 L948 1114 L1088 1254 Z" /></g><g class="o"><path transform="translate(9,18)" class="S sfh" d="M1851 1368 L1766 1283 L1784 1283 L1869 1368 Z"/><path class="fh4" d="M1851 1368 L1766 1283 L1784 1283 L1869 1368 Z" /></g><g class="o"><path transform="translate(6,12)" class="S sf" d="M1935 1188 L1842 1095 L1862 1095 L1955 1188 Z"/><path class="f6" d="M1935 1188 L1842 1095 L1862 1095 L1955 1188 Z" /></g><g class="o"><path transform="translate(9,18)" class="S ssv" d="M1992 1988 L1866 1862 L1866 1896 L1992 2022 Z"/><path class="sv7" d="M1992 1988 L1866 1862 L1866 1896 L1992 2022 Z" /></g><g class="o"><path transform="translate(6,12)" class="S ss" d="M1442 1356 L1333 1247 L1333 1273 L1442 1382 Z"/><path class="s3" d="M1442 1356 L1333 1247 L1333 1273 L1442 1382 Z" /></g><g class="o"><path transform="translate(5,10)" class="S sfv" d="M1715 1045 L1657 987 L1657 1001 L1715 1059 Z"/><path class="fv1" d="M1715 1045 L1657 987 L1657 1001 L1715 1059 Z" /></g><g class="o"><path transform="translate(5,10)" class="S sfv" d="M1542 1357 L1322 1137 L1322 1165 L1542 1385 Z"/><path class="fv4" d="M1542 1357 L1322 1137 L1322 1165 L1542 1385 Z" /></g><g class="o"><path transform="translate(2,4)" class="S sfv" d="M1395 1973 L1287 1865 L1287 1901 L1395 2009 Z"/><path class="fv5" d="M1395 1973 L1287 1865 L1287 1901 L1395 2009 Z" /></g><g class="o"><path transform="translate(7,14)" class="S sfv" d="M1832 1989 L1775 1932 L1775 1970 L1832 2027 Z"/><path class="fv2" d="M1832 1989 L1775 1932 L1775 1970 L1832 2027 Z" /></g><g class="o"><path transform="translate(8,16)" class="S sfh" d="M1678 1533 L1543 1398 L1561 1398 L1696 1533 Z"/><path class="fh5" d="M1678 1533 L1543 1398 L1561 1398 L1696 1533 Z" /></g><g class="o"><path transform="translate(8,16)" class="S sfh" d="M1973 1675 L1777 1479 L1785 1479 L1981 1675 Z"/><path class="fh5" d="M1973 1675 L1777 1479 L1785 1479 L1981 1675 Z" /></g><g class="o"><path transform="translate(4,8)" class="S sfv" d="M1042 1068 L917 943 L917 971 L1042 1096 Z"/><path class="fv3" d="M1042 1068 L917 943 L917 971 L1042 1096 Z" /></g><g class="o"><path transform="translate(3,6)" class="S sfv" d="M1719 1736 L1584 1601 L1584 1623 L1719 1758 Z"/><path class="fv3" d="M1719 1736 L1584 1601 L1584 1623 L1719 1758 Z" /></g><g class="o"><path transform="translate(9,18)" class="S sfh" d="M1149 1185 L1064 1100 L1094 1100 L1179 1185 Z"/><path class="fh4" d="M1149 1185 L1064 1100 L1094 1100 L1179 1185 Z" /></g><g class="o"><path transform="translate(3,6)" class="S sfh" d="M1481 1019 L1294 832 L1322 832 L1509 1019 Z"/><path class="fh2" d="M1481 1019 L1294 832 L1322 832 L1509 1019 Z" /></g><g class="o"><path transform="translate(7,14)" class="S sfh" d="M1550 1772 L1435 1657 L1465 1657 L1580 1772 Z"/><path class="fh5" d="M1550 1772 L1435 1657 L1465 1657 L1580 1772 Z" /></g><g class="o"><path transform="translate(9,18)" class="S ssv" d="M1739 1197 L1546 1004 L1546 1014 L1739 1207 Z"/><path class="sv4" d="M1739 1197 L1546 1004 L1546 1014 L1739 1207 Z" /></g><g class="o"><path transform="translate(3,6)" class="S sf" d="M1338 1678 L1145 1485 L1177 1485 L1370 1678 Z"/><path class="f5" d="M1338 1678 L1145 1485 L1177 1485 L1370 1678 Z" /></g><g class="o"><path transform="translate(8,16)" class="S sf" d="M1651 1771 L1415 1535 L1439 1535 L1675 1771 Z"/><path class="f2" d="M1651 1771 L1415 1535 L1439 1535 L1675 1771 Z" /></g><g class="o"><path transform="translate(4,8)" class="S sfv" d="M1026 971 L875 820 L875 854 L1026 1005 Z"/><path class="fv4" d="M1026 971 L875 820 L875 854 L1026 1005 Z" /></g><g class="o"><path transform="translate(8,16)" class="S sfv" d="M1689 1504 L1579 1394 L1579 1428 L1689 1538 Z"/><path class="fv4" d="M1689 1504 L1579 1394 L1579 1428 L1689 1538 Z" /></g><g class="o"><path transform="translate(4,8)" class="S sfv" d="M1498 1707 L1368 1577 L1368 1595 L1498 1725 Z"/><path class="fv1" d="M1498 1707 L1368 1577 L1368 1595 L1498 1725 Z" /></g><g class="o"><path transform="translate(6,12)" class="S sf" d="M1337 1695 L1106 1464 L1116 1464 L1347 1695 Z"/><path class="f2" d="M1337 1695 L1106 1464 L1116 1464 L1347 1695 Z" /></g><g class="o"><path transform="translate(4,8)" class="S sfh" d="M1019 1627 L884 1492 L894 1492 L1029 1627 Z"/><path class="fh7" d="M1019 1627 L884 1492 L894 1492 L1029 1627 Z" /></g><g class="o"><path transform="translate(6,12)" class="S sfv" d="M1271 1933 L1053 1715 L1053 1731 L1271 1949 Z"/><path class="fv3" d="M1271 1933 L1053 1715 L1053 1731 L1271 1949 Z" /></g><g class="o"><path transform="translate(5,10)" class="S sfh" d="M1237 2009 L1083 1855 L1109 1855 L1263 2009 Z"/><path class="fh3" d="M1237 2009 L1083 1855 L1109 1855 L1263 2009 Z" /></g><g class="o"><path transform="translate(7,14)" class="S sfv" d="M1009 1298 L830 1119 L830 1131 L1009 1310 Z"/><path class="fv2" d="M1009 1298 L830 1119 L830 1131 L1009 1310 Z" /></g></g><use href="#slashes" transform-origin="1500 1500" transform="rotate(180) scale(2)"/></g><rect x="1080" y="1080" width="840" height="840" stroke-width="40" class="o s5" /><use href="#slashes" transform-origin="1500 1500" transform="scale(.9)"/><use href="#slashes" transform-origin="1500 1500" transform="rotate(180) scale(.9)"/></svg>