<svg xmlns="http://www.w3.org/2000/svg" viewBox="750 750 1500 1500"><style>/*<![CDATA[*/svg{background:rgb(32,191,85);max-width:100vw;max-height:100vh}path{stroke-width:4}.o{opacity:.75}.S{opacity:.4}.sf{stroke:none;fill:black}.sfh{stroke:none;fill:url(#hs)}.sfv{stroke:none;fill:url(#vs)}.ss{stroke:black;fill:none}.ssh{stroke:url(#hs);fill:none}.ssv{stroke:url(#vs);fill:none}.s1{fill:none;stroke:rgb(41,42,115)}.f1{stroke:none;fill:rgb(41,42,115)}.sh1{fill:none;stroke:url(#h1)}.fh1{stroke:none;fill:url(#h1)}.sv1{fill:none;stroke:url(#v1)}.fv1{stroke:none;fill:url(#v1)}.s2{fill:none;stroke:rgb(251,251,255)}.f2{stroke:none;fill:rgb(251,251,255)}.sh2{fill:none;stroke:url(#h2)}.fh2{stroke:none;fill:url(#h2)}.sv2{fill:none;stroke:url(#v2)}.fv2{stroke:none;fill:url(#v2)}.s3{fill:none;stroke:rgb(11,79,108)}.f3{stroke:none;fill:rgb(11,79,108)}.sh3{fill:none;stroke:url(#h3)}.fh3{stroke:none;fill:url(#h3)}.sv3{fill:none;stroke:url(#v3)}.fv3{stroke:none;fill:url(#v3)}.s4{fill:none;stroke:rgb(117,117,117)}.f4{stroke:none;fill:rgb(117,117,117)}.sh4{fill:none;stroke:url(#h4)}.fh4{stroke:none;fill:url(#h4)}.sv4{fill:none;stroke:url(#v4)}.fv4{stroke:none;fill:url(#v4)}.s5{fill:none;stroke:rgb(34,34,34)}.f5{stroke:none;fill:rgb(34,34,34)}.sh5{fill:none;stroke:url(#h5)}.fh5{stroke:none;fill:url(#h5)}.sv5{fill:none;stroke:url(#v5)}.fv5{stroke:none;fill:url(#v5)}.s6{fill:none;stroke:rgb(255,255,255)}.f6{stroke:none;fill:rgb(255,255,255)}.sh6{fill:none;stroke:url(#h6)}.fh6{stroke:none;fill:url(#h6)}.sv6{fill:none;stroke:url(#v6)}.fv6{stroke:none;fill:url(#v6)}.s7{fill:none;stroke:rgb(255,255,0)}.f7{stroke:none;fill:rgb(255,255,0)}.sh7{fill:none;stroke:url(#h7)}.fh7{stroke:none;fill:url(#h7)}.sv7{fill:none;stroke:url(#v7)}.fv7{stroke:none;fill:url(#v7)}/*]]>*/</style><defs><linearGradient gradientTransform="rotate(90)" id="hs"><stop offset="20%" stop-color="#000" /><stop offset="95%" stop-color="rgba(0, 0, 0, 0)" /></linearGradient><linearGradient id="vs"><stop offset="20%" stop-color="#000" /><stop offset="95%" stop-color="rgba(0, 0, 0, 0)" /></linearGradient><linearGradient gradientTransform="rotate(90)" id="h1"><stop offset="20%" stop-color="rgba(41,42,115,1)" /><stop offset="95%" stop-color="rgba(41,42,115,0)" /></linearGradient><linearGradient id="v1"><stop offset="20%" stop-color="rgba(41,42,115,1)" /><stop offset="95%" stop-color="rgba(41,42,115,0)" /></linearGradient><linearGradient gradientTransform="rotate(90)" id="h2"><stop offset="20%" stop-color="rgba(251,251,255,1)" /><stop offset="95%" stop-color="rgba(251,251,255,0)" /></linearGradient><linearGradient id="v2"><stop offset="20%" stop-color="rgba(251,251,255,1)" /><stop offset="95%" stop-color="rgba(251,251,255,0)" /></linearGradient><linearGradient gradientTransform="rotate(90)" id="h3"><stop offset="20%" stop-color="rgba(11,79,108,1)" /><stop offset="95%" stop-color="rgba(11,79,108,0)" /></linearGradient><linearGradient id="v3"><stop offset="20%" stop-color="rgba(11,79,108,1)" /><stop offset="95%" stop-color="rgba(11,79,108,0)" /></linearGradient><linearGradient gradientTransform="rotate(90)" id="h4"><stop offset="20%" stop-color="rgba(117,117,117,1)" /><stop offset="95%" stop-color="rgba(117,117,117,0)" /></linearGradient><linearGradient id="v4"><stop offset="20%" stop-color="rgba(117,117,117,1)" /><stop offset="95%" stop-color="rgba(117,117,117,0)" /></linearGradient><linearGradient gradientTransform="rotate(90)" id="h5"><stop offset="20%" stop-color="rgba(34,34,34,1)" /><stop offset="95%" stop-color="rgba(34,34,34,0)" /></linearGradient><linearGradient id="v5"><stop offset="20%" stop-color="rgba(34,34,34,1)" /><stop offset="95%" stop-color="rgba(34,34,34,0)" /></linearGradient><linearGradient gradientTransform="rotate(90)" id="h6"><stop offset="20%" stop-color="rgba(255,255,255,1)" /><stop offset="95%" stop-color="rgba(255,255,255,0)" /></linearGradient><linearGradient id="v6"><stop offset="20%" stop-color="rgba(255,255,255,1)" /><stop offset="95%" stop-color="rgba(255,255,255,0)" /></linearGradient><linearGradient gradientTransform="rotate(90)" id="h7"><stop offset="20%" stop-color="rgba(255,255,0,1)" /><stop offset="95%" stop-color="rgba(255,255,0,0)" /></linearGradient><linearGradient id="v7"><stop offset="20%" stop-color="rgba(255,255,0,1)" /><stop offset="95%" stop-color="rgba(255,255,0,0)" /></linearGradient></defs><g transform-origin="1500 1500" transform="scale(2)" opacity=".2"><g id="slashes"><g class="o"><path transform="translate(8,16)" class="S ssh" d="M891 997 L1139 749 L1267 749 L1019 997 Z"/><path class="sh5" d="M891 997 L1139 749 L1267 749 L1019 997 Z" /></g><g class="o"><path transform="translate(8,16)" class="S sf" d="M1479 1208 L1620 1067 L1620 1101 L1479 1242 Z"/><path class="f2" d="M1479 1208 L1620 1067 L1620 1101 L1479 1242 Z" /></g><g class="o"><path transform="translate(9,18)" class="S ssv" d="M1207 1523 L977 1293 L977 1327 L1207 1557 Z"/><path class="sv6" d="M1207 1523 L977 1293 L977 1327 L1207 1557 Z" /></g><g class="o"><path transform="translate(3,6)" class="S sfh" d="M930 1272 L995 1337 L1067 1337 L1002 1272 Z"/><path class="fh5" d="M930 1272 L995 1337 L1067 1337 L1002 1272 Z" /></g><g class="o"><path transform="translate(3,6)" class="S sfv" d="M2045 1669 L1953 1577 L1953 1713 L2045 1805 Z"/><path class="fv4" d="M2045 1669 L1953 1577 L1953 1713 L2045 1805 Z" /></g><g class="o"><path transform="translate(4,8)" class="S ssv" d="M1092 1197 L1147 1142 L1147 1166 L1092 1221 Z"/><path class="sv6" d="M1092 1197 L1147 1142 L1147 1166 L1092 1221 Z" /></g><g class="o"><path transform="translate(3,6)" class="S sfh" d="M1685 1725 L1511 1899 L1543 1899 L1717 1725 Z"/><path class="fh5" d="M1685 1725 L1511 1899 L1543 1899 L1717 1725 Z" /></g><g class="o"><path transform="translate(3,6)" class="S ssv" d="M1773 1222 L1639 1088 L1639 1208 L1773 1342 Z"/><path class="sv4" d="M1773 1222 L1639 1088 L1639 1208 L1773 1342 Z" /></g><g class="o"><path transform="translate(7,14)" class="S sfv" d="M1069 1053 L1260 1244 L1260 1268 L1069 1077 Z"/><path class="fv2" d="M1069 1053 L1260 1244 L1260 1268 L1069 1077 Z" /></g><g class="o"><path transform="translate(4,8)" class="S sfv" d="M975 1461 L1066 1552 L1066 1600 L975 1509 Z"/><path class="fv5" d="M975 1461 L1066 1552 L1066 1600 L975 1509 Z" /></g><g class="o"><path transform="translate(7,14)" class="S sf" d="M1954 1848 L1890 1784 L1922 1784 L1986 1848 Z"/><path class="f3" d="M1954 1848 L1890 1784 L1922 1784 L1986 1848 Z" /></g><g class="o"><path transform="translate(7,14)" class="S sfv" d="M1454 1464 L1324 1334 L1324 1462 L1454 1592 Z"/><path class="fv5" d="M1454 1464 L1324 1334 L1324 1462 L1454 1592 Z" /></g><g class="o"><path transform="translate(2,4)" class="S sfv" d="M1523 1535 L1429 1441 L1429 1489 L1523 1583 Z"/><path class="fv6" d="M1523 1535 L1429 1441 L1429 1489 L1523 1583 Z" /></g><g class="o"><path transform="translate(8,16)" class="S ssv" d="M1883 1724 L1701 1906 L1701 1916 L1883 1734 Z"/><path class="sv6" d="M1883 1724 L1701 1906 L1701 1916 L1883 1734 Z" /></g><g class="o"><path transform="translate(8,16)" class="S ssv" d="M1825 1398 L1886 1337 L1886 1441 L1825 1502 Z"/><path class="sv3" d="M1825 1398 L1886 1337 L1886 1441 L1825 1502 Z" /></g><g class="o"><path transform="translate(9,18)" class="S sfh" d="M1092 1324 L1180 1236 L1252 1236 L1164 1324 Z"/><path class="fh3" d="M1092 1324 L1180 1236 L1252 1236 L1164 1324 Z" /></g><g class="o"><path transform="translate(4,8)" class="S sfh" d="M1550 1858 L1673 1981 L1761 1981 L1638 1858 Z"/><path class="fh4" d="M1550 1858 L1673 1981 L1761 1981 L1638 1858 Z" /></g><g class="o"><path transform="translate(4,8)" class="S sfv" d="M1750 1132 L1586 968 L1586 1112 L1750 1276 Z"/><path class="fv2" d="M1750 1132 L1586 968 L1586 1112 L1750 1276 Z" /></g><g class="o"><path transform="translate(9,18)" class="S sf" d="M1163 1170 L1345 988 L1345 1044 L1163 1226 Z"/><path class="f4" d="M1163 1170 L1345 988 L1345 1044 L1163 1226 Z" /></g><g class="o"><path transform="translate(9,18)" class="S sfv" d="M1477 1286 L1573 1382 L1573 1534 L1477 1438 Z"/><path class="fv6" d="M1477 1286 L1573 1382 L1573 1534 L1477 1438 Z" /></g><g class="o"><path transform="translate(2,4)" class="S sfh" d="M976 1838 L794 1656 L938 1656 L1120 1838 Z"/><path class="fh4" d="M976 1838 L794 1656 L938 1656 L1120 1838 Z" /></g><g class="o"><path transform="translate(6,12)" class="S ssv" d="M1231 1607 L1054 1430 L1054 1460 L1231 1637 Z"/><path class="sv7" d="M1231 1607 L1054 1430 L1054 1460 L1231 1637 Z" /></g><g class="o"><path transform="translate(3,6)" class="S sfv" d="M1004 1649 L1057 1702 L1057 1838 L1004 1785 Z"/><path class="fv6" d="M1004 1649 L1057 1702 L1057 1838 L1004 1785 Z" /></g><g class="o"><path transform="translate(8,16)" class="S sfv" d="M1947 1181 L1719 1409 L1719 1505 L1947 1277 Z"/><path class="fv4" d="M1947 1181 L1719 1409 L1719 1505 L1947 1277 Z" /></g><g class="o"><path transform="translate(2,4)" class="S sfv" d="M1204 1328 L1282 1406 L1282 1440 L1204 1362 Z"/><path class="fv7" d="M1204 1328 L1282 1406 L1282 1440 L1204 1362 Z" /></g><g class="o"><path transform="translate(8,16)" class="S sfh" d="M1152 1290 L1307 1445 L1347 1445 L1192 1290 Z"/><path class="fh3" d="M1152 1290 L1307 1445 L1347 1445 L1192 1290 Z" /></g><g class="o"><path transform="translate(9,18)" class="S sfv" d="M1487 1966 L1432 2021 L1432 2085 L1487 2030 Z"/><path class="fv5" d="M1487 1966 L1432 2021 L1432 2085 L1487 2030 Z" /></g><g class="o"><path transform="translate(8,16)" class="S sfh" d="M896 1544 L772 1420 L908 1420 L1032 1544 Z"/><path class="fh2" d="M896 1544 L772 1420 L908 1420 L1032 1544 Z" /></g><g class="o"><path transform="translate(9,18)" class="S sfv" d="M1594 1489 L1386 1697 L1386 1725 L1594 1517 Z"/><path class="fv2" d="M1594 1489 L1386 1697 L1386 1725 L1594 1517 Z" /></g><g class="o"><path transform="translate(3,6)" class="S sf" d="M1816 1042 L1917 1143 L1929 1143 L1828 1042 Z"/><path class="f5" d="M1816 1042 L1917 1143 L1929 1143 L1828 1042 Z" /></g><g class="o"><path transform="translate(7,14)" class="S ss" d="M977 1657 L886 1566 L974 1566 L1065 1657 Z"/><path class="s2" d="M977 1657 L886 1566 L974 1566 L1065 1657 Z" /></g><g class="o"><path transform="translate(7,14)" class="S sfh" d="M1521 1816 L1684 1653 L1716 1653 L1553 1816 Z"/><path class="fh4" d="M1521 1816 L1684 1653 L1716 1653 L1553 1816 Z" /></g><g class="o"><path transform="translate(8,16)" class="S sf" d="M1781 1679 L1708 1752 L1788 1752 L1861 1679 Z"/><path class="f6" d="M1781 1679 L1708 1752 L1788 1752 L1861 1679 Z" /></g><g class="o"><path transform="translate(5,10)" class="S sfh" d="M1373 1140 L1171 1342 L1275 1342 L1477 1140 Z"/><path class="fh1" d="M1373 1140 L1171 1342 L1275 1342 L1477 1140 Z" /></g><g class="o"><path transform="translate(2,4)" class="S sf" d="M1421 1792 L1548 1665 L1644 1665 L1517 1792 Z"/><path class="f5" d="M1421 1792 L1548 1665 L1644 1665 L1517 1792 Z" /></g><g class="o"><path transform="translate(5,10)" class="S sfh" d="M1396 1015 L1495 1114 L1527 1114 L1428 1015 Z"/><path class="fh6" d="M1396 1015 L1495 1114 L1527 1114 L1428 1015 Z" /></g><g class="o"><path transform="translate(6,12)" class="S ssv" d="M1572 1908 L1808 1672 L1808 1760 L1572 1996 Z"/><path class="sv2" d="M1572 1908 L1808 1672 L1808 1760 L1572 1996 Z" /></g><g class="o"><path transform="translate(7,14)" class="S ssh" d="M1127 1583 L1250 1706 L1306 1706 L1183 1583 Z"/><path class="sh4" d="M1127 1583 L1250 1706 L1306 1706 L1183 1583 Z" /></g><g class="o"><path transform="translate(4,8)" class="S sfv" d="M1466 1287 L1323 1144 L1323 1296 L1466 1439 Z"/><path class="fv3" d="M1466 1287 L1323 1144 L1323 1296 L1466 1439 Z" /></g><g class="o"><path transform="translate(8,16)" class="S sfv" d="M1236 1078 L1397 917 L1397 949 L1236 1110 Z"/><path class="fv3" d="M1236 1078 L1397 917 L1397 949 L1236 1110 Z" /></g><g class="o"><path transform="translate(8,16)" class="S sfh" d="M1751 986 L1965 1200 L1977 1200 L1763 986 Z"/><path class="fh5" d="M1751 986 L1965 1200 L1977 1200 L1763 986 Z" /></g><g class="o"><path transform="translate(5,10)" class="S ssh" d="M1110 1586 L1294 1770 L1314 1770 L1130 1586 Z"/><path class="sh5" d="M1110 1586 L1294 1770 L1314 1770 L1130 1586 Z" /></g><g class="o"><path transform="translate(8,16)" class="S sfh" d="M1816 1375 L1924 1267 L1996 1267 L1888 1375 Z"/><path class="fh4" d="M1816 1375 L1924 1267 L1996 1267 L1888 1375 Z" /></g><g class="o"><path transform="translate(9,18)" class="S sfv" d="M1469 1614 L1386 1531 L1386 1619 L1469 1702 Z"/><path class="fv1" d="M1469 1614 L1386 1531 L1386 1619 L1469 1702 Z" /></g><g class="o"><path transform="translate(6,12)" class="S sfv" d="M1965 1428 L1820 1283 L1820 1419 L1965 1564 Z"/><path class="fv3" d="M1965 1428 L1820 1283 L1820 1419 L1965 1564 Z" /></g><g class="o"><path transform="translate(9,18)" class="S sfv" d="M1117 1599 L1208 1690 L1208 1802 L1117 1711 Z"/><path class="fv7" d="M1117 1599 L1208 1690 L1208 1802 L1117 1711 Z" /></g><g class="o"><path transform="translate(3,6)" class="S sfh" d="M1757 1394 L1899 1536 L1971 1536 L1829 1394 Z"/><path class="fh1" d="M1757 1394 L1899 1536 L1971 1536 L1829 1394 Z" /></g><g class="o"><path transform="translate(6,12)" class="S sfv" d="M1194 1442 L953 1201 L953 1229 L1194 1470 Z"/><path class="fv5" d="M1194 1442 L953 1201 L953 1229 L1194 1470 Z" /></g><g class="o"><path transform="translate(4,8)" class="S ssv" d="M1166 1497 L1402 1733 L1402 1767 L1166 1531 Z"/><path class="sv1" d="M1166 1497 L1402 1733 L1402 1767 L1166 1531 Z" /></g><g class="o"><path transform="translate(4,8)" class="S sfh" d="M1601 996 L1513 908 L1521 908 L1609 996 Z"/><path class="fh3" d="M1601 996 L1513 908 L1521 908 L1609 996 Z" /></g><g class="o"><path transform="translate(6,12)" class="S sfv" d="M1632 1062 L1792 902 L1792 934 L1632 1094 Z"/><path class="fv1" d="M1632 1062 L1792 902 L1792 934 L1632 1094 Z" /></g><g class="o"><path transform="translate(3,6)" class="S sfh" d="M1427 1808 L1292 1673 L1324 1673 L1459 1808 Z"/><path class="fh1" d="M1427 1808 L1292 1673 L1324 1673 L1459 1808 Z" /></g><g class="o"><path transform="translate(3,6)" class="S ssv" d="M1336 1071 L1564 843 L1564 979 L1336 1207 Z"/><path class="sv7" d="M1336 1071 L1564 843 L1564 979 L1336 1207 Z" /></g><g class="o"><path transform="translate(5,10)" class="S ssv" d="M1805 926 L1640 761 L1640 881 L1805 1046 Z"/><path class="sv4" d="M1805 926 L1640 761 L1640 881 L1805 1046 Z" /></g><g class="o"><path transform="translate(3,6)" class="S ssv" d="M1832 1779 L1685 1632 L1685 1642 L1832 1789 Z"/><path class="sv4" d="M1832 1779 L1685 1632 L1685 1642 L1832 1789 Z" /></g><g class="o"><path transform="translate(9,18)" class="S sfv" d="M1912 1950 L1789 1827 L1789 1857 L1912 1980 Z"/><path class="fv7" d="M1912 1950 L1789 1827 L1789 1857 L1912 1980 Z" /></g><g class="o"><path transform="translate(3,6)" class="S sfh" d="M986 1427 L1041 1482 L1137 1482 L1082 1427 Z"/><path class="fh3" d="M986 1427 L1041 1482 L1137 1482 L1082 1427 Z" /></g><g class="o"><path transform="translate(6,12)" class="S sfv" d="M1610 1599 L1826 1383 L1826 1535 L1610 1751 Z"/><path class="fv3" d="M1610 1599 L1826 1383 L1826 1535 L1610 1751 Z" /></g><g class="o"><path transform="translate(5,10)" class="S sfh" d="M1138 1704 L1013 1829 L1109 1829 L1234 1704 Z"/><path class="fh2" d="M1138 1704 L1013 1829 L1109 1829 L1234 1704 Z" /></g><g class="o"><path transform="translate(2,4)" class="S sfh" d="M1696 1725 L1537 1566 L1549 1566 L1708 1725 Z"/><path class="fh7" d="M1696 1725 L1537 1566 L1549 1566 L1708 1725 Z" /></g><g class="o"><path transform="translate(7,14)" class="S sfh" d="M1645 1205 L1801 1049 L1865 1049 L1709 1205 Z"/><path class="fh5" d="M1645 1205 L1801 1049 L1865 1049 L1709 1205 Z" /></g><g class="o"><path transform="translate(7,14)" class="S sfv" d="M1760 1458 L1811 1407 L1811 1427 L1760 1478 Z"/><path class="fv7" d="M1760 1458 L1811 1407 L1811 1427 L1760 1478 Z" /></g><g class="o"><path transform="translate(7,14)" class="S ss" d="M1805 1483 L1569 1719 L1705 1719 L1941 1483 Z"/><path class="s5" d="M1805 1483 L1569 1719 L1705 1719 L1941 1483 Z" /></g><g class="o"><path transform="translate(9,18)" class="S ssv" d="M1864 1369 L1926 1307 L1926 1371 L1864 1433 Z"/><path class="sv2" d="M1864 1369 L1926 1307 L1926 1371 L1864 1433 Z" /></g><g class="o"><path transform="translate(5,10)" class="S ss" d="M1851 1406 L2006 1251 L2006 1339 L1851 1494 Z"/><path class="s4" d="M1851 1406 L2006 1251 L2006 1339 L1851 1494 Z" /></g><g class="o"><path transform="translate(5,10)" class="S sfv" d="M1564 1661 L1809 1906 L1809 2034 L1564 1789 Z"/><path class="fv4" d="M1564 1661 L1809 1906 L1809 2034 L1564 1789 Z" /></g><g class="o"><path transform="translate(4,8)" class="S sfh" d="M1979 1208 L1822 1051 L1894 1051 L2051 1208 Z"/><path class="fh1" d="M1979 1208 L1822 1051 L1894 1051 L2051 1208 Z" /></g><g class="o"><path transform="translate(3,6)" class="S sfv" d="M1297 1399 L1152 1544 L1152 1556 L1297 1411 Z"/><path class="fv4" d="M1297 1399 L1152 1544 L1152 1556 L1297 1411 Z" /></g><g class="o"><path transform="translate(5,10)" class="S sfh" d="M1332 1705 L1385 1652 L1465 1652 L1412 1705 Z"/><path class="fh7" d="M1332 1705 L1385 1652 L1465 1652 L1412 1705 Z" /></g><g class="o"><path transform="translate(4,8)" class="S ssh" d="M1001 2007 L1054 1954 L1110 1954 L1057 2007 Z"/><path class="sh6" d="M1001 2007 L1054 1954 L1110 1954 L1057 2007 Z" /></g><g class="o"><path transform="translate(3,6)" class="S sf" d="M1257 1181 L1017 941 L1081 941 L1321 1181 Z"/><path class="f4" d="M1257 1181 L1017 941 L1081 941 L1321 1181 Z" /></g><g class="o"><path transform="translate(4,8)" class="S sfv" d="M1533 1080 L1296 1317 L1296 1381 L1533 1144 Z"/><path class="fv4" d="M1533 1080 L1296 1317 L1296 1381 L1533 1144 Z" /></g><g class="o"><path transform="translate(3,6)" class="S sf" d="M1865 1012 L2082 795 L2082 899 L1865 1116 Z"/><path class="f3" d="M1865 1012 L2082 795 L2082 899 L1865 1116 Z" /></g><g class="o"><path transform="translate(4,8)" class="S ssh" d="M1126 1529 L892 1295 L988 1295 L1222 1529 Z"/><path class="sh5" d="M1126 1529 L892 1295 L988 1295 L1222 1529 Z" /></g><g class="o"><path transform="translate(3,6)" class="S sfh" d="M1794 1556 L1599 1361 L1743 1361 L1938 1556 Z"/><path class="fh4" d="M1794 1556 L1599 1361 L1743 1361 L1938 1556 Z" /></g><g class="o"><path transform="translate(5,10)" class="S ssh" d="M1407 1439 L1333 1365 L1405 1365 L1479 1439 Z"/><path class="sh3" d="M1407 1439 L1333 1365 L1405 1365 L1479 1439 Z" /></g><g class="o"><path transform="translate(8,16)" class="S sf" d="M2040 1336 L2255 1121 L2267 1121 L2052 1336 Z"/><path class="f6" d="M2040 1336 L2255 1121 L2267 1121 L2052 1336 Z" /></g><g class="o"><path transform="translate(2,4)" class="S sf" d="M1950 1775 L2189 2014 L2245 2014 L2006 1775 Z"/><path class="f1" d="M1950 1775 L2189 2014 L2245 2014 L2006 1775 Z" /></g><g class="o"><path transform="translate(4,8)" class="S sf" d="M1345 985 L1175 815 L1279 815 L1449 985 Z"/><path class="f1" d="M1345 985 L1175 815 L1279 815 L1449 985 Z" /></g><g class="o"><path transform="translate(8,16)" class="S sf" d="M1228 1380 L1385 1223 L1385 1351 L1228 1508 Z"/><path class="f7" d="M1228 1380 L1385 1223 L1385 1351 L1228 1508 Z" /></g><g class="o"><path transform="translate(8,16)" class="S sfh" d="M1791 1829 L2026 1594 L2040 1594 L1805 1829 Z"/><path class="fh3" d="M1791 1829 L2026 1594 L2040 1594 L1805 1829 Z" /></g><g class="o"><path transform="translate(6,12)" class="S sf" d="M1993 1178 L1866 1305 L1878 1305 L2005 1178 Z"/><path class="f4" d="M1993 1178 L1866 1305 L1878 1305 L2005 1178 Z" /></g><g class="o"><path transform="translate(5,10)" class="S sfv" d="M1293 932 L1053 1172 L1053 1212 L1293 972 Z"/><path class="fv1" d="M1293 932 L1053 1172 L1053 1212 L1293 972 Z" /></g><g class="o"><path transform="translate(6,12)" class="S sf" d="M904 1027 L965 966 L1109 966 L1048 1027 Z"/><path class="f6" d="M904 1027 L965 966 L1109 966 L1048 1027 Z" /></g><g class="o"><path transform="translate(8,16)" class="S ssh" d="M1826 1428 L1653 1255 L1781 1255 L1954 1428 Z"/><path class="sh2" d="M1826 1428 L1653 1255 L1781 1255 L1954 1428 Z" /></g><g class="o"><path transform="translate(3,6)" class="S sfv" d="M1885 1411 L1654 1180 L1654 1244 L1885 1475 Z"/><path class="fv2" d="M1885 1411 L1654 1180 L1654 1244 L1885 1475 Z" /></g><g class="o"><path transform="translate(2,4)" class="S sfv" d="M1922 1655 L1683 1416 L1683 1480 L1922 1719 Z"/><path class="fv5" d="M1922 1655 L1683 1416 L1683 1480 L1922 1719 Z" /></g><g class="o"><path transform="translate(8,16)" class="S sfh" d="M1593 1147 L1692 1048 L1820 1048 L1721 1147 Z"/><path class="fh6" d="M1593 1147 L1692 1048 L1820 1048 L1721 1147 Z" /></g><g class="o"><path transform="translate(8,16)" class="S ssv" d="M1162 1723 L970 1531 L970 1563 L1162 1755 Z"/><path class="sv4" d="M1162 1723 L970 1531 L970 1563 L1162 1755 Z" /></g><g class="o"><path transform="translate(5,10)" class="S sfh" d="M1887 1169 L2133 1415 L2149 1415 L1903 1169 Z"/><path class="fh6" d="M1887 1169 L2133 1415 L2149 1415 L1903 1169 Z" /></g><g class="o"><path transform="translate(4,8)" class="S sfh" d="M1362 1617 L1242 1737 L1250 1737 L1370 1617 Z"/><path class="fh4" d="M1362 1617 L1242 1737 L1250 1737 L1370 1617 Z" /></g><g class="o"><path transform="translate(4,8)" class="S sfv" d="M1096 2026 L1183 2113 L1183 2145 L1096 2058 Z"/><path class="fv7" d="M1096 2026 L1183 2113 L1183 2145 L1096 2058 Z" /></g><g class="o"><path transform="translate(2,4)" class="S ssh" d="M1486 1665 L1315 1494 L1435 1494 L1606 1665 Z"/><path class="sh4" d="M1486 1665 L1315 1494 L1435 1494 L1606 1665 Z" /></g><g class="o"><path transform="translate(3,6)" class="S sfh" d="M1844 1961 L1612 1729 L1650 1729 L1882 1961 Z"/><path class="fh7" d="M1844 1961 L1612 1729 L1650 1729 L1882 1961 Z" /></g><g class="o"><path transform="translate(9,18)" class="S ssh" d="M1263 1379 L1397 1513 L1485 1513 L1351 1379 Z"/><path class="sh1" d="M1263 1379 L1397 1513 L1485 1513 L1351 1379 Z" /></g><g class="o"><path transform="translate(4,8)" class="S sfh" d="M1547 1738 L1648 1637 L1760 1637 L1659 1738 Z"/><path class="fh4" d="M1547 1738 L1648 1637 L1760 1637 L1659 1738 Z" /></g><g class="o"><path transform="translate(9,18)" class="S sfv" d="M1827 1845 L1732 1750 L1732 1782 L1827 1877 Z"/><path class="fv5" d="M1827 1845 L1732 1750 L1732 1782 L1827 1877 Z" /></g><g class="o"><path transform="translate(8,16)" class="S sfv" d="M1088 1076 L1330 1318 L1330 1326 L1088 1084 Z"/><path class="fv5" d="M1088 1076 L1330 1318 L1330 1326 L1088 1084 Z" /></g><g class="o"><path transform="translate(5,10)" class="S sfh" d="M937 1404 L1062 1529 L1118 1529 L993 1404 Z"/><path class="fh2" d="M937 1404 L1062 1529 L1118 1529 L993 1404 Z" /></g><g class="o"><path transform="translate(4,8)" class="S sfh" d="M1833 2037 L1978 2182 L2114 2182 L1969 2037 Z"/><path class="fh6" d="M1833 2037 L1978 2182 L2114 2182 L1969 2037 Z" /></g><g class="o"><path transform="translate(2,4)" class="S sfh" d="M1947 1642 L1707 1882 L1795 1882 L2035 1642 Z"/><path class="fh1" d="M1947 1642 L1707 1882 L1795 1882 L2035 1642 Z" /></g><g class="o"><path transform="translate(9,18)" class="S sfh" d="M1276 1403 L1168 1511 L1224 1511 L1332 1403 Z"/><path class="fh1" d="M1276 1403 L1168 1511 L1224 1511 L1332 1403 Z" /></g><g class="o"><path transform="translate(7,14)" class="S sfv" d="M1588 1042 L1676 954 L1676 1058 L1588 1146 Z"/><path class="fv3" d="M1588 1042 L1676 954 L1676 1058 L1588 1146 Z" /></g><g class="o"><path transform="translate(3,6)" class="S sfh" d="M915 2045 L1007 1953 L1119 1953 L1027 2045 Z"/><path class="fh4" d="M915 2045 L1007 1953 L1119 1953 L1027 2045 Z" /></g><g class="o"><path transform="translate(3,6)" class="S sfh" d="M1216 1020 L1119 923 L1145 923 L1242 1020 Z"/><path class="fh7" d="M1216 1020 L1119 923 L1145 923 L1242 1020 Z" /></g><g class="o"><path transform="translate(4,8)" class="S ssh" d="M1071 1632 L997 1706 L1109 1706 L1183 1632 Z"/><path class="sh6" d="M1071 1632 L997 1706 L1109 1706 L1183 1632 Z" /></g><g class="o"><path transform="translate(2,4)" class="S sfv" d="M1105 1577 L876 1806 L876 1870 L1105 1641 Z"/><path class="fv1" d="M1105 1577 L876 1806 L876 1870 L1105 1641 Z" /></g><g class="o"><path transform="translate(7,14)" class="S sfv" d="M1783 1802 L1886 1699 L1886 1851 L1783 1954 Z"/><path class="fv1" d="M1783 1802 L1886 1699 L1886 1851 L1783 1954 Z" /></g><g class="o"><path transform="translate(8,16)" class="S sfh" d="M1725 1385 L1570 1230 L1666 1230 L1821 1385 Z"/><path class="fh6" d="M1725 1385 L1570 1230 L1666 1230 L1821 1385 Z" /></g><g class="o"><path transform="translate(3,6)" class="S ssv" d="M1737 1482 L1822 1567 L1822 1647 L1737 1562 Z"/><path class="sv3" d="M1737 1482 L1822 1567 L1822 1647 L1737 1562 Z" /></g><g class="o"><path transform="translate(4,8)" class="S sfh" d="M982 2043 L806 2219 L886 2219 L1062 2043 Z"/><path class="fh4" d="M982 2043 L806 2219 L886 2219 L1062 2043 Z" /></g><g class="o"><path transform="translate(7,14)" class="S sfv" d="M1084 1185 L977 1292 L977 1324 L1084 1217 Z"/><path class="fv2" d="M1084 1185 L977 1292 L977 1324 L1084 1217 Z" /></g><g class="o"><path transform="translate(6,12)" class="S sfv" d="M1919 995 L1678 754 L1678 786 L1919 1027 Z"/><path class="fv3" d="M1919 995 L1678 754 L1678 786 L1919 1027 Z" /></g><g class="o"><path transform="translate(3,6)" class="S sf" d="M1683 1712 L1462 1933 L1542 1933 L1763 1712 Z"/><path class="f5" d="M1683 1712 L1462 1933 L1542 1933 L1763 1712 Z" /></g><g class="o"><path transform="translate(2,4)" class="S ss" d="M987 923 L1120 790 L1120 870 L987 1003 Z"/><path class="s2" d="M987 923 L1120 790 L1120 870 L987 1003 Z" /></g><g class="o"><path transform="translate(2,4)" class="S sfv" d="M1948 1192 L2043 1287 L2043 1391 L1948 1296 Z"/><path class="fv1" d="M1948 1192 L2043 1287 L2043 1391 L1948 1296 Z" /></g><g class="o"><path transform="translate(9,18)" class="S sf" d="M958 1104 L754 1308 L754 1460 L958 1256 Z"/><path class="f3" d="M958 1104 L754 1308 L754 1460 L958 1256 Z" /></g><g class="o"><path transform="translate(9,18)" class="S sfv" d="M1891 969 L2134 1212 L2134 1240 L1891 997 Z"/><path class="fv5" d="M1891 969 L2134 1212 L2134 1240 L1891 997 Z" /></g><g class="o"><path transform="translate(2,4)" class="S sf" d="M1511 1082 L1295 1298 L1295 1316 L1511 1100 Z"/><path class="f3" d="M1511 1082 L1295 1298 L1295 1316 L1511 1100 Z" /></g><g class="o"><path transform="translate(8,16)" class="S ssv" d="M2006 1871 L1801 2076 L1801 2094 L2006 1889 Z"/><path class="sv7" d="M2006 1871 L1801 2076 L1801 2094 L2006 1889 Z" /></g></g><use href="#slashes" transform-origin="1500 1500" transform="rotate(180) scale(2)"/></g><rect x="1080" y="1080" width="840" height="840" stroke-width="40" class="o s2" /><use href="#slashes" transform-origin="1500 1500" transform="scale(.9)"/><use href="#slashes" transform-origin="1500 1500" transform="rotate(180) scale(.9)"/></svg>