<svg xmlns="http://www.w3.org/2000/svg" viewBox="750 750 1500 1500"><style>/*<![CDATA[*/svg{background:rgb(8,103,136);max-width:100vw;max-height:100vh}path{stroke-width:4}.o{opacity:.75}.S{opacity:.4}.sf{stroke:none;fill:black}.sfh{stroke:none;fill:url(#hs)}.sfv{stroke:none;fill:url(#vs)}.ss{stroke:black;fill:none}.ssh{stroke:url(#hs);fill:none}.ssv{stroke:url(#vs);fill:none}.s1{fill:none;stroke:rgb(34,34,34)}.f1{stroke:none;fill:rgb(34,34,34)}.sh1{fill:none;stroke:url(#h1)}.fh1{stroke:none;fill:url(#h1)}.sv1{fill:none;stroke:url(#v1)}.fv1{stroke:none;fill:url(#v1)}.s2{fill:none;stroke:rgb(204,204,204)}.f2{stroke:none;fill:rgb(204,204,204)}.sh2{fill:none;stroke:url(#h2)}.fh2{stroke:none;fill:url(#h2)}.sv2{fill:none;stroke:url(#v2)}.fv2{stroke:none;fill:url(#v2)}.s3{fill:none;stroke:rgb(48,48,48)}.f3{stroke:none;fill:rgb(48,48,48)}.sh3{fill:none;stroke:url(#h3)}.fh3{stroke:none;fill:url(#h3)}.sv3{fill:none;stroke:url(#v3)}.fv3{stroke:none;fill:url(#v3)}.s4{fill:none;stroke:rgb(221,28,26)}.f4{stroke:none;fill:rgb(221,28,26)}.sh4{fill:none;stroke:url(#h4)}.fh4{stroke:none;fill:url(#h4)}.sv4{fill:none;stroke:url(#v4)}.fv4{stroke:none;fill:url(#v4)}.s5{fill:none;stroke:rgb(6,174,213)}.f5{stroke:none;fill:rgb(6,174,213)}.sh5{fill:none;stroke:url(#h5)}.fh5{stroke:none;fill:url(#h5)}.sv5{fill:none;stroke:url(#v5)}.fv5{stroke:none;fill:url(#v5)}.s6{fill:none;stroke:rgb(255,255,255)}.f6{stroke:none;fill:rgb(255,255,255)}.sh6{fill:none;stroke:url(#h6)}.fh6{stroke:none;fill:url(#h6)}.sv6{fill:none;stroke:url(#v6)}.fv6{stroke:none;fill:url(#v6)}.s7{fill:none;stroke:rgb(255,255,0)}.f7{stroke:none;fill:rgb(255,255,0)}.sh7{fill:none;stroke:url(#h7)}.fh7{stroke:none;fill:url(#h7)}.sv7{fill:none;stroke:url(#v7)}.fv7{stroke:none;fill:url(#v7)}/*]]>*/</style><defs><linearGradient gradientTransform="rotate(90)" id="hs"><stop offset="20%" stop-color="#000" /><stop offset="95%" stop-color="rgba(0, 0, 0, 0)" /></linearGradient><linearGradient id="vs"><stop offset="20%" stop-color="#000" /><stop offset="95%" stop-color="rgba(0, 0, 0, 0)" /></linearGradient><linearGradient gradientTransform="rotate(90)" id="h1"><stop offset="20%" stop-color="rgba(34,34,34,1)" /><stop offset="95%" stop-color="rgba(34,34,34,0)" /></linearGradient><linearGradient id="v1"><stop offset="20%" stop-color="rgba(34,34,34,1)" /><stop offset="95%" stop-color="rgba(34,34,34,0)" /></linearGradient><linearGradient gradientTransform="rotate(90)" id="h2"><stop offset="20%" stop-color="rgba(204,204,204,1)" /><stop offset="95%" stop-color="rgba(204,204,204,0)" /></linearGradient><linearGradient id="v2"><stop offset="20%" stop-color="rgba(204,204,204,1)" /><stop offset="95%" stop-color="rgba(204,204,204,0)" /></linearGradient><linearGradient gradientTransform="rotate(90)" id="h3"><stop offset="20%" stop-color="rgba(48,48,48,1)" /><stop offset="95%" stop-color="rgba(48,48,48,0)" /></linearGradient><linearGradient id="v3"><stop offset="20%" stop-color="rgba(48,48,48,1)" /><stop offset="95%" stop-color="rgba(48,48,48,0)" /></linearGradient><linearGradient gradientTransform="rotate(90)" id="h4"><stop offset="20%" stop-color="rgba(221,28,26,1)" /><stop offset="95%" stop-color="rgba(221,28,26,0)" /></linearGradient><linearGradient id="v4"><stop offset="20%" stop-color="rgba(221,28,26,1)" /><stop offset="95%" stop-color="rgba(221,28,26,0)" /></linearGradient><linearGradient gradientTransform="rotate(90)" id="h5"><stop offset="20%" stop-color="rgba(6,174,213,1)" /><stop offset="95%" stop-color="rgba(6,174,213,0)" /></linearGradient><linearGradient id="v5"><stop offset="20%" stop-color="rgba(6,174,213,1)" /><stop offset="95%" stop-color="rgba(6,174,213,0)" /></linearGradient><linearGradient gradientTransform="rotate(90)" id="h6"><stop offset="20%" stop-color="rgba(255,255,255,1)" /><stop offset="95%" stop-color="rgba(255,255,255,0)" /></linearGradient><linearGradient id="v6"><stop offset="20%" stop-color="rgba(255,255,255,1)" /><stop offset="95%" stop-color="rgba(255,255,255,0)" /></linearGradient><linearGradient gradientTransform="rotate(90)" id="h7"><stop offset="20%" stop-color="rgba(255,255,0,1)" /><stop offset="95%" stop-color="rgba(255,255,0,0)" /></linearGradient><linearGradient id="v7"><stop offset="20%" stop-color="rgba(255,255,0,1)" /><stop offset="95%" stop-color="rgba(255,255,0,0)" /></linearGradient></defs><g transform-origin="1500 1500" transform="scale(2)" opacity=".2"><g id="slashes"><g class="o"><path transform="translate(9,18)" class="S sf" d="M1424 1453 L941 970 L941 982 L1424 1465 Z"/><path class="f4" d="M1424 1453 L941 970 L941 982 L1424 1465 Z" /></g><g class="o"><path transform="translate(9,18)" class="S sfh" d="M1372 1192 L1198 1366 L1236 1366 L1410 1192 Z"/><path class="fh2" d="M1372 1192 L1198 1366 L1236 1366 L1410 1192 Z" /></g><g class="o"><path transform="translate(6,12)" class="S sfh" d="M1178 1978 L545 1345 L581 1345 L1214 1978 Z"/><path class="fh4" d="M1178 1978 L545 1345 L581 1345 L1214 1978 Z" /></g><g class="o"><path transform="translate(4,8)" class="S ss" d="M1928 1262 L1714 1476 L1726 1476 L1940 1262 Z"/><path class="s5" d="M1928 1262 L1714 1476 L1726 1476 L1940 1262 Z" /></g><g class="o"><path transform="translate(5,10)" class="S sfv" d="M951 1550 L878 1477 L878 1511 L951 1584 Z"/><path class="fv4" d="M951 1550 L878 1477 L878 1511 L951 1584 Z" /></g><g class="o"><path transform="translate(8,16)" class="S ssv" d="M1655 1031 L1283 659 L1283 687 L1655 1059 Z"/><path class="sv2" d="M1655 1031 L1283 659 L1283 687 L1655 1059 Z" /></g><g class="o"><path transform="translate(9,18)" class="S sfh" d="M1945 1329 L1783 1167 L1903 1167 L2065 1329 Z"/><path class="fh2" d="M1945 1329 L1783 1167 L1903 1167 L2065 1329 Z" /></g><g class="o"><path transform="translate(4,8)" class="S sfv" d="M1511 1713 L818 1020 L818 1046 L1511 1739 Z"/><path class="fv6" d="M1511 1713 L818 1020 L818 1046 L1511 1739 Z" /></g><g class="o"><path transform="translate(6,12)" class="S sfh" d="M1950 1827 L1861 1738 L2013 1738 L2102 1827 Z"/><path class="fh5" d="M1950 1827 L1861 1738 L2013 1738 L2102 1827 Z" /></g><g class="o"><path transform="translate(3,6)" class="S sfv" d="M1635 1326 L1536 1227 L1536 1259 L1635 1358 Z"/><path class="fv1" d="M1635 1326 L1536 1227 L1536 1259 L1635 1358 Z" /></g><g class="o"><path transform="translate(9,18)" class="S ss" d="M1788 1613 L1604 1797 L1604 1831 L1788 1647 Z"/><path class="s4" d="M1788 1613 L1604 1797 L1604 1831 L1788 1647 Z" /></g><g class="o"><path transform="translate(6,12)" class="S sfv" d="M1245 1568 L1125 1448 L1125 1482 L1245 1602 Z"/><path class="fv1" d="M1245 1568 L1125 1448 L1125 1482 L1245 1602 Z" /></g><g class="o"><path transform="translate(8,16)" class="S ssh" d="M986 1366 L437 817 L549 817 L1098 1366 Z"/><path class="sh2" d="M986 1366 L437 817 L549 817 L1098 1366 Z" /></g><g class="o"><path transform="translate(3,6)" class="S sf" d="M1521 904 L1295 678 L1295 822 L1521 1048 Z"/><path class="f6" d="M1521 904 L1295 678 L1295 822 L1521 1048 Z" /></g><g class="o"><path transform="translate(3,6)" class="S sfv" d="M1815 1684 L1104 2395 L1104 2427 L1815 1716 Z"/><path class="fv2" d="M1815 1684 L1104 2395 L1104 2427 L1815 1716 Z" /></g><g class="o"><path transform="translate(2,4)" class="S ssv" d="M1877 1354 L1694 1537 L1694 1553 L1877 1370 Z"/><path class="sv6" d="M1877 1354 L1694 1537 L1694 1553 L1877 1370 Z" /></g><g class="o"><path transform="translate(8,16)" class="S ss" d="M1858 986 L1691 1153 L1691 1161 L1858 994 Z"/><path class="s4" d="M1858 986 L1691 1153 L1691 1161 L1858 994 Z" /></g><g class="o"><path transform="translate(9,18)" class="S ss" d="M1419 1750 L1227 1942 L1227 1950 L1419 1758 Z"/><path class="s5" d="M1419 1750 L1227 1942 L1227 1950 L1419 1758 Z" /></g><g class="o"><path transform="translate(5,10)" class="S sfh" d="M1412 1586 L1282 1716 L1434 1716 L1564 1586 Z"/><path class="fh7" d="M1412 1586 L1282 1716 L1434 1716 L1564 1586 Z" /></g><g class="o"><path transform="translate(3,6)" class="S sf" d="M1902 1403 L1203 2102 L1203 2246 L1902 1547 Z"/><path class="f4" d="M1902 1403 L1203 2102 L1203 2246 L1902 1547 Z" /></g><g class="o"><path transform="translate(9,18)" class="S sfh" d="M1783 1393 L1348 958 L1388 958 L1823 1393 Z"/><path class="fh5" d="M1783 1393 L1348 958 L1388 958 L1823 1393 Z" /></g><g class="o"><path transform="translate(7,14)" class="S ssv" d="M1992 1009 L1813 1188 L1813 1208 L1992 1029 Z"/><path class="sv3" d="M1992 1009 L1813 1188 L1813 1208 L1992 1029 Z" /></g><g class="o"><path transform="translate(2,4)" class="S sfv" d="M1984 1290 L1924 1350 L1924 1368 L1984 1308 Z"/><path class="fv1" d="M1984 1290 L1924 1350 L1924 1368 L1984 1308 Z" /></g><g class="o"><path transform="translate(6,12)" class="S sfv" d="M1364 1906 L968 2302 L968 2342 L1364 1946 Z"/><path class="fv2" d="M1364 1906 L968 2302 L968 2342 L1364 1946 Z" /></g><g class="o"><path transform="translate(6,12)" class="S sfv" d="M1038 1583 L870 1415 L870 1435 L1038 1603 Z"/><path class="fv2" d="M1038 1583 L870 1415 L870 1435 L1038 1603 Z" /></g><g class="o"><path transform="translate(2,4)" class="S sfv" d="M1498 1537 L1246 1285 L1246 1341 L1498 1593 Z"/><path class="fv5" d="M1498 1537 L1246 1285 L1246 1341 L1498 1593 Z" /></g><g class="o"><path transform="translate(8,16)" class="S sfv" d="M1072 1349 L909 1186 L909 1222 L1072 1385 Z"/><path class="fv3" d="M1072 1349 L909 1186 L909 1222 L1072 1385 Z" /></g><g class="o"><path transform="translate(2,4)" class="S sf" d="M995 1006 L353 364 L353 374 L995 1016 Z"/><path class="f7" d="M995 1006 L353 364 L353 374 L995 1016 Z" /></g><g class="o"><path transform="translate(3,6)" class="S sf" d="M1575 1292 L1320 1037 L1334 1037 L1589 1292 Z"/><path class="f2" d="M1575 1292 L1320 1037 L1334 1037 L1589 1292 Z" /></g><g class="o"><path transform="translate(9,18)" class="S sfh" d="M1846 1025 L1646 1225 L1664 1225 L1864 1025 Z"/><path class="fh1" d="M1846 1025 L1646 1225 L1664 1225 L1864 1025 Z" /></g><g class="o"><path transform="translate(6,12)" class="S sfv" d="M1688 1155 L1490 1353 L1490 1449 L1688 1251 Z"/><path class="fv2" d="M1688 1155 L1490 1353 L1490 1449 L1688 1251 Z" /></g><g class="o"><path transform="translate(8,16)" class="S sfh" d="M1792 1512 L1709 1595 L1739 1595 L1822 1512 Z"/><path class="fh3" d="M1792 1512 L1709 1595 L1739 1595 L1822 1512 Z" /></g><g class="o"><path transform="translate(7,14)" class="S sfv" d="M1906 1076 L1669 1313 L1669 1341 L1906 1104 Z"/><path class="fv3" d="M1906 1076 L1669 1313 L1669 1341 L1906 1104 Z" /></g><g class="o"><path transform="translate(3,6)" class="S ssh" d="M1819 1971 L1614 2176 L1726 2176 L1931 1971 Z"/><path class="sh4" d="M1819 1971 L1614 2176 L1726 2176 L1931 1971 Z" /></g><g class="o"><path transform="translate(5,10)" class="S ssh" d="M1137 1772 L660 2249 L698 2249 L1175 1772 Z"/><path class="sh4" d="M1137 1772 L660 2249 L698 2249 L1175 1772 Z" /></g><g class="o"><path transform="translate(7,14)" class="S sfh" d="M1535 1838 L1360 2013 L1386 2013 L1561 1838 Z"/><path class="fh3" d="M1535 1838 L1360 2013 L1386 2013 L1561 1838 Z" /></g><g class="o"><path transform="translate(4,8)" class="S sfv" d="M1593 1453 L1353 1213 L1353 1269 L1593 1509 Z"/><path class="fv1" d="M1593 1453 L1353 1213 L1353 1269 L1593 1509 Z" /></g><g class="o"><path transform="translate(8,16)" class="S sfv" d="M1795 1432 L1423 1060 L1423 1074 L1795 1446 Z"/><path class="fv4" d="M1795 1432 L1423 1060 L1423 1074 L1795 1446 Z" /></g><g class="o"><path transform="translate(6,12)" class="S sfh" d="M2034 1575 L1950 1491 L1970 1491 L2054 1575 Z"/><path class="fh6" d="M2034 1575 L1950 1491 L1970 1491 L2054 1575 Z" /></g><g class="o"><path transform="translate(5,10)" class="S ssh" d="M1619 1460 L1298 1139 L1418 1139 L1739 1460 Z"/><path class="sh3" d="M1619 1460 L1298 1139 L1418 1139 L1739 1460 Z" /></g><g class="o"><path transform="translate(6,12)" class="S ssh" d="M923 1396 L284 2035 L340 2035 L979 1396 Z"/><path class="sh6" d="M923 1396 L284 2035 L340 2035 L979 1396 Z" /></g><g class="o"><path transform="translate(3,6)" class="S sf" d="M1668 1722 L1510 1564 L1510 1576 L1668 1734 Z"/><path class="f5" d="M1668 1722 L1510 1564 L1510 1576 L1668 1734 Z" /></g><g class="o"><path transform="translate(8,16)" class="S sfv" d="M1781 1321 L1100 2002 L1100 2016 L1781 1335 Z"/><path class="fv7" d="M1781 1321 L1100 2002 L1100 2016 L1781 1335 Z" /></g><g class="o"><path transform="translate(3,6)" class="S sfh" d="M1086 1625 L864 1403 L896 1403 L1118 1625 Z"/><path class="fh3" d="M1086 1625 L864 1403 L896 1403 L1118 1625 Z" /></g><g class="o"><path transform="translate(6,12)" class="S sfv" d="M1236 1851 L1041 2046 L1041 2058 L1236 1863 Z"/><path class="fv7" d="M1236 1851 L1041 2046 L1041 2058 L1236 1863 Z" /></g><g class="o"><path transform="translate(5,10)" class="S ss" d="M1464 1289 L1110 935 L1110 1039 L1464 1393 Z"/><path class="s5" d="M1464 1289 L1110 935 L1110 1039 L1464 1393 Z" /></g><g class="o"><path transform="translate(7,14)" class="S ssh" d="M1034 1644 L299 2379 L419 2379 L1154 1644 Z"/><path class="sh5" d="M1034 1644 L299 2379 L419 2379 L1154 1644 Z" /></g><g class="o"><path transform="translate(7,14)" class="S sfh" d="M1380 1029 L1219 1190 L1257 1190 L1418 1029 Z"/><path class="fh1" d="M1380 1029 L1219 1190 L1257 1190 L1418 1029 Z" /></g><g class="o"><path transform="translate(7,14)" class="S sfh" d="M1543 1334 L1348 1529 L1468 1529 L1663 1334 Z"/><path class="fh4" d="M1543 1334 L1348 1529 L1468 1529 L1663 1334 Z" /></g><g class="o"><path transform="translate(7,14)" class="S sfh" d="M1287 1254 L1055 1486 L1111 1486 L1343 1254 Z"/><path class="fh2" d="M1287 1254 L1055 1486 L1111 1486 L1343 1254 Z" /></g><g class="o"><path transform="translate(8,16)" class="S ssv" d="M999 1246 L435 682 L435 702 L999 1266 Z"/><path class="sv2" d="M999 1246 L435 682 L435 702 L999 1266 Z" /></g><g class="o"><path transform="translate(3,6)" class="S sfh" d="M1073 1891 L473 2491 L483 2491 L1083 1891 Z"/><path class="fh2" d="M1073 1891 L473 2491 L483 2491 L1083 1891 Z" /></g><g class="o"><path transform="translate(8,16)" class="S sfh" d="M1781 1107 L1508 834 L1544 834 L1817 1107 Z"/><path class="fh1" d="M1781 1107 L1508 834 L1544 834 L1817 1107 Z" /></g><g class="o"><path transform="translate(4,8)" class="S sfh" d="M1323 2003 L1104 2222 L1126 2222 L1345 2003 Z"/><path class="fh3" d="M1323 2003 L1104 2222 L1126 2222 L1345 2003 Z" /></g><g class="o"><path transform="translate(5,10)" class="S sfv" d="M1302 1614 L1032 1884 L1032 1916 L1302 1646 Z"/><path class="fv2" d="M1302 1614 L1032 1884 L1032 1916 L1302 1646 Z" /></g><g class="o"><path transform="translate(8,16)" class="S sfv" d="M1271 1761 L797 2235 L797 2323 L1271 1849 Z"/><path class="fv6" d="M1271 1761 L797 2235 L797 2323 L1271 1849 Z" /></g><g class="o"><path transform="translate(3,6)" class="S sfh" d="M1698 1072 L1491 865 L1499 865 L1706 1072 Z"/><path class="fh7" d="M1698 1072 L1491 865 L1499 865 L1706 1072 Z" /></g><g class="o"><path transform="translate(6,12)" class="S sfv" d="M1514 987 L1333 806 L1333 894 L1514 1075 Z"/><path class="fv6" d="M1514 987 L1333 806 L1333 894 L1514 1075 Z" /></g><g class="o"><path transform="translate(2,4)" class="S sfv" d="M1489 1559 L1379 1449 L1379 1545 L1489 1655 Z"/><path class="fv2" d="M1489 1559 L1379 1449 L1379 1545 L1489 1655 Z" /></g><g class="o"><path transform="translate(4,8)" class="S sfh" d="M1689 1247 L1461 1019 L1487 1019 L1715 1247 Z"/><path class="fh2" d="M1689 1247 L1461 1019 L1487 1019 L1715 1247 Z" /></g><g class="o"><path transform="translate(4,8)" class="S sfv" d="M1387 1055 L862 530 L862 658 L1387 1183 Z"/><path class="fv6" d="M1387 1055 L862 530 L862 658 L1387 1183 Z" /></g><g class="o"><path transform="translate(2,4)" class="S sfh" d="M1118 1880 L884 2114 L916 2114 L1150 1880 Z"/><path class="fh5" d="M1118 1880 L884 2114 L916 2114 L1150 1880 Z" /></g><g class="o"><path transform="translate(5,10)" class="S sfh" d="M1472 1975 L1237 2210 L1245 2210 L1480 1975 Z"/><path class="fh5" d="M1472 1975 L1237 2210 L1245 2210 L1480 1975 Z" /></g><g class="o"><path transform="translate(4,8)" class="S sf" d="M1886 1411 L1634 1159 L1690 1159 L1942 1411 Z"/><path class="f3" d="M1886 1411 L1634 1159 L1690 1159 L1942 1411 Z" /></g><g class="o"><path transform="translate(5,10)" class="S sf" d="M1375 1318 L1231 1462 L1231 1510 L1375 1366 Z"/><path class="f5" d="M1375 1318 L1231 1462 L1231 1510 L1375 1366 Z" /></g><g class="o"><path transform="translate(5,10)" class="S sfv" d="M1493 1470 L1414 1549 L1414 1637 L1493 1558 Z"/><path class="fv4" d="M1493 1470 L1414 1549 L1414 1637 L1493 1558 Z" /></g><g class="o"><path transform="translate(8,16)" class="S sf" d="M1258 964 L664 370 L664 426 L1258 1020 Z"/><path class="f7" d="M1258 964 L664 370 L664 426 L1258 1020 Z" /></g><g class="o"><path transform="translate(4,8)" class="S sfv" d="M1915 1849 L1838 1926 L1838 1948 L1915 1871 Z"/><path class="fv7" d="M1915 1849 L1838 1926 L1838 1948 L1915 1871 Z" /></g><g class="o"><path transform="translate(7,14)" class="S sf" d="M2022 1250 L1933 1339 L1933 1403 L2022 1314 Z"/><path class="f5" d="M2022 1250 L1933 1339 L1933 1403 L2022 1314 Z" /></g><g class="o"><path transform="translate(4,8)" class="S sfh" d="M1766 1921 L1595 2092 L1617 2092 L1788 1921 Z"/><path class="fh7" d="M1766 1921 L1595 2092 L1617 2092 L1788 1921 Z" /></g><g class="o"><path transform="translate(9,18)" class="S sfh" d="M1890 1291 L1722 1459 L1842 1459 L2010 1291 Z"/><path class="fh5" d="M1890 1291 L1722 1459 L1842 1459 L2010 1291 Z" /></g><g class="o"><path transform="translate(2,4)" class="S sfv" d="M1408 1425 L1030 1803 L1030 1813 L1408 1435 Z"/><path class="fv2" d="M1408 1425 L1030 1803 L1030 1813 L1408 1435 Z" /></g><g class="o"><path transform="translate(7,14)" class="S sfh" d="M1622 1628 L1489 1495 L1511 1495 L1644 1628 Z"/><path class="fh2" d="M1622 1628 L1489 1495 L1511 1495 L1644 1628 Z" /></g><g class="o"><path transform="translate(9,18)" class="S sfv" d="M1624 1480 L1390 1246 L1390 1280 L1624 1514 Z"/><path class="fv7" d="M1624 1480 L1390 1246 L1390 1280 L1624 1514 Z" /></g><g class="o"><path transform="translate(6,12)" class="S sfh" d="M1176 1509 L1099 1432 L1135 1432 L1212 1509 Z"/><path class="fh5" d="M1176 1509 L1099 1432 L1135 1432 L1212 1509 Z" /></g><g class="o"><path transform="translate(9,18)" class="S sfh" d="M1166 1572 L950 1788 L1030 1788 L1246 1572 Z"/><path class="fh5" d="M1166 1572 L950 1788 L1030 1788 L1246 1572 Z" /></g><g class="o"><path transform="translate(5,10)" class="S sfh" d="M1627 985 L1489 847 L1633 847 L1771 985 Z"/><path class="fh7" d="M1627 985 L1489 847 L1633 847 L1771 985 Z" /></g><g class="o"><path transform="translate(6,12)" class="S sfv" d="M1458 1970 L1243 1755 L1243 1827 L1458 2042 Z"/><path class="fv1" d="M1458 1970 L1243 1755 L1243 1827 L1458 2042 Z" /></g><g class="o"><path transform="translate(3,6)" class="S sf" d="M2015 1162 L1949 1228 L1949 1254 L2015 1188 Z"/><path class="f6" d="M2015 1162 L1949 1228 L1949 1254 L2015 1188 Z" /></g><g class="o"><path transform="translate(3,6)" class="S ssh" d="M2017 1803 L1793 1579 L1823 1579 L2047 1803 Z"/><path class="sh4" d="M2017 1803 L1793 1579 L1823 1579 L2047 1803 Z" /></g><g class="o"><path transform="translate(5,10)" class="S sfh" d="M1772 1924 L1624 2072 L1644 2072 L1792 1924 Z"/><path class="fh2" d="M1772 1924 L1624 2072 L1644 2072 L1792 1924 Z" /></g><g class="o"><path transform="translate(4,8)" class="S sfh" d="M1463 2021 L1305 1863 L1315 1863 L1473 2021 Z"/><path class="fh6" d="M1463 2021 L1305 1863 L1315 1863 L1473 2021 Z" /></g><g class="o"><path transform="translate(5,10)" class="S sfv" d="M1400 1056 L722 378 L722 482 L1400 1160 Z"/><path class="fv5" d="M1400 1056 L722 378 L722 482 L1400 1160 Z" /></g><g class="o"><path transform="translate(6,12)" class="S sf" d="M2043 1567 L1317 841 L1317 869 L2043 1595 Z"/><path class="f5" d="M2043 1567 L1317 841 L1317 869 L2043 1595 Z" /></g><g class="o"><path transform="translate(4,8)" class="S sfv" d="M1198 1273 L984 1487 L984 1559 L1198 1345 Z"/><path class="fv7" d="M1198 1273 L984 1487 L984 1559 L1198 1345 Z" /></g><g class="o"><path transform="translate(7,14)" class="S sfh" d="M1071 2042 L843 2270 L883 2270 L1111 2042 Z"/><path class="fh5" d="M1071 2042 L843 2270 L883 2270 L1111 2042 Z" /></g><g class="o"><path transform="translate(5,10)" class="S sfh" d="M1808 1479 L1079 2208 L1175 2208 L1904 1479 Z"/><path class="fh6" d="M1808 1479 L1079 2208 L1175 2208 L1904 1479 Z" /></g><g class="o"><path transform="translate(6,12)" class="S sfv" d="M991 978 L865 1104 L865 1232 L991 1106 Z"/><path class="fv2" d="M991 978 L865 1104 L865 1232 L991 1106 Z" /></g><g class="o"><path transform="translate(5,10)" class="S sf" d="M1659 1388 L954 2093 L954 2173 L1659 1468 Z"/><path class="f2" d="M1659 1388 L954 2093 L954 2173 L1659 1468 Z" /></g><g class="o"><path transform="translate(6,12)" class="S sfh" d="M1952 1835 L1364 2423 L1492 2423 L2080 1835 Z"/><path class="fh6" d="M1952 1835 L1364 2423 L1492 2423 L2080 1835 Z" /></g><g class="o"><path transform="translate(5,10)" class="S sfv" d="M1925 1840 L1773 1688 L1773 1702 L1925 1854 Z"/><path class="fv7" d="M1925 1840 L1773 1688 L1773 1702 L1925 1854 Z" /></g><g class="o"><path transform="translate(6,12)" class="S ssh" d="M994 1586 L745 1835 L785 1835 L1034 1586 Z"/><path class="sh6" d="M994 1586 L745 1835 L785 1835 L1034 1586 Z" /></g><g class="o"><path transform="translate(3,6)" class="S ssh" d="M1807 1517 L1240 2084 L1256 2084 L1823 1517 Z"/><path class="sh5" d="M1807 1517 L1240 2084 L1256 2084 L1823 1517 Z" /></g><g class="o"><path transform="translate(4,8)" class="S sfv" d="M1101 1637 L857 1393 L857 1407 L1101 1651 Z"/><path class="fv2" d="M1101 1637 L857 1393 L857 1407 L1101 1651 Z" /></g><g class="o"><path transform="translate(8,16)" class="S sfh" d="M1633 1049 L1219 1463 L1235 1463 L1649 1049 Z"/><path class="fh3" d="M1633 1049 L1219 1463 L1235 1463 L1649 1049 Z" /></g><g class="o"><path transform="translate(9,18)" class="S ssv" d="M1381 1689 L1249 1557 L1249 1693 L1381 1825 Z"/><path class="sv7" d="M1381 1689 L1249 1557 L1249 1693 L1381 1825 Z" /></g><g class="o"><path transform="translate(8,16)" class="S sfv" d="M2044 1832 L1830 2046 L1830 2058 L2044 1844 Z"/><path class="fv2" d="M2044 1832 L1830 2046 L1830 2058 L2044 1844 Z" /></g><g class="o"><path transform="translate(5,10)" class="S sfv" d="M1663 1976 L1493 2146 L1493 2180 L1663 2010 Z"/><path class="fv4" d="M1663 1976 L1493 2146 L1493 2180 L1663 2010 Z" /></g><g class="o"><path transform="translate(2,4)" class="S sf" d="M1982 1802 L1814 1970 L1814 2066 L1982 1898 Z"/><path class="f5" d="M1982 1802 L1814 1970 L1814 2066 L1982 1898 Z" /></g><g class="o"><path transform="translate(7,14)" class="S ssh" d="M1434 1839 L1320 1725 L1400 1725 L1514 1839 Z"/><path class="sh7" d="M1434 1839 L1320 1725 L1400 1725 L1514 1839 Z" /></g><g class="o"><path transform="translate(3,6)" class="S sfv" d="M1549 1845 L1231 1527 L1231 1535 L1549 1853 Z"/><path class="fv2" d="M1549 1845 L1231 1527 L1231 1535 L1549 1853 Z" /></g><g class="o"><path transform="translate(2,4)" class="S ssv" d="M1452 1377 L1333 1258 L1333 1294 L1452 1413 Z"/><path class="sv6" d="M1452 1377 L1333 1258 L1333 1294 L1452 1413 Z" /></g><g class="o"><path transform="translate(8,16)" class="S sfh" d="M1312 1709 L940 2081 L958 2081 L1330 1709 Z"/><path class="fh7" d="M1312 1709 L940 2081 L958 2081 L1330 1709 Z" /></g><g class="o"><path transform="translate(7,14)" class="S sfv" d="M1999 1752 L1288 1041 L1288 1051 L1999 1762 Z"/><path class="fv7" d="M1999 1752 L1288 1041 L1288 1051 L1999 1762 Z" /></g><g class="o"><path transform="translate(8,16)" class="S sfv" d="M1021 1862 L430 2453 L430 2565 L1021 1974 Z"/><path class="fv1" d="M1021 1862 L430 2453 L430 2565 L1021 1974 Z" /></g><g class="o"><path transform="translate(3,6)" class="S ss" d="M2001 1558 L1758 1801 L1758 1921 L2001 1678 Z"/><path class="s5" d="M2001 1558 L1758 1801 L1758 1921 L2001 1678 Z" /></g><g class="o"><path transform="translate(8,16)" class="S sfv" d="M1212 1516 L1046 1682 L1046 1802 L1212 1636 Z"/><path class="fv7" d="M1212 1516 L1046 1682 L1046 1802 L1212 1636 Z" /></g><g class="o"><path transform="translate(8,16)" class="S sfh" d="M1141 1541 L460 860 L492 860 L1173 1541 Z"/><path class="fh4" d="M1141 1541 L460 860 L492 860 L1173 1541 Z" /></g><g class="o"><path transform="translate(8,16)" class="S sfv" d="M1070 1442 L569 1943 L569 2063 L1070 1562 Z"/><path class="fv1" d="M1070 1442 L569 1943 L569 2063 L1070 1562 Z" /></g><g class="o"><path transform="translate(3,6)" class="S sfh" d="M1914 1313 L1851 1376 L2003 1376 L2066 1313 Z"/><path class="fh4" d="M1914 1313 L1851 1376 L2003 1376 L2066 1313 Z" /></g><g class="o"><path transform="translate(5,10)" class="S sfv" d="M1085 1405 L1022 1468 L1022 1490 L1085 1427 Z"/><path class="fv2" d="M1085 1405 L1022 1468 L1022 1490 L1085 1427 Z" /></g><g class="o"><path transform="translate(9,18)" class="S sfh" d="M1563 1824 L1356 1617 L1394 1617 L1601 1824 Z"/><path class="fh5" d="M1563 1824 L1356 1617 L1394 1617 L1601 1824 Z" /></g><g class="o"><path transform="translate(4,8)" class="S sfv" d="M1154 980 L1065 891 L1065 917 L1154 1006 Z"/><path class="fv5" d="M1154 980 L1065 891 L1065 917 L1154 1006 Z" /></g><g class="o"><path transform="translate(9,18)" class="S ssv" d="M1544 1062 L1468 1138 L1468 1156 L1544 1080 Z"/><path class="sv2" d="M1544 1062 L1468 1138 L1468 1156 L1544 1080 Z" /></g><g class="o"><path transform="translate(3,6)" class="S ssh" d="M1679 981 L1463 1197 L1511 1197 L1727 981 Z"/><path class="sh4" d="M1679 981 L1463 1197 L1511 1197 L1727 981 Z" /></g><g class="o"><path transform="translate(4,8)" class="S ssv" d="M1547 1654 L1319 1426 L1319 1434 L1547 1662 Z"/><path class="sv5" d="M1547 1654 L1319 1426 L1319 1434 L1547 1662 Z" /></g><g class="o"><path transform="translate(5,10)" class="S sfh" d="M1762 1457 L1652 1567 L1690 1567 L1800 1457 Z"/><path class="fh1" d="M1762 1457 L1652 1567 L1690 1567 L1800 1457 Z" /></g><g class="o"><path transform="translate(9,18)" class="S sfv" d="M1323 1245 L630 552 L630 572 L1323 1265 Z"/><path class="fv1" d="M1323 1245 L630 552 L630 572 L1323 1265 Z" /></g><g class="o"><path transform="translate(4,8)" class="S sfv" d="M1756 1910 L1468 1622 L1468 1648 L1756 1936 Z"/><path class="fv4" d="M1756 1910 L1468 1622 L1468 1648 L1756 1936 Z" /></g><g class="o"><path transform="translate(6,12)" class="S sf" d="M1990 1182 L1833 1025 L1833 1037 L1990 1194 Z"/><path class="f3" d="M1990 1182 L1833 1025 L1833 1037 L1990 1194 Z" /></g><g class="o"><path transform="translate(4,8)" class="S sfh" d="M1657 2020 L1563 2114 L1573 2114 L1667 2020 Z"/><path class="fh2" d="M1657 2020 L1563 2114 L1573 2114 L1667 2020 Z" /></g><g class="o"><path transform="translate(7,14)" class="S sfv" d="M1494 1209 L1323 1038 L1323 1134 L1494 1305 Z"/><path class="fv5" d="M1494 1209 L1323 1038 L1323 1134 L1494 1305 Z" /></g><g class="o"><path transform="translate(9,18)" class="S sfh" d="M1116 2041 L888 1813 L926 1813 L1154 2041 Z"/><path class="fh7" d="M1116 2041 L888 1813 L926 1813 L1154 2041 Z" /></g><g class="o"><path transform="translate(8,16)" class="S sfh" d="M1300 1349 L1036 1085 L1044 1085 L1308 1349 Z"/><path class="fh6" d="M1300 1349 L1036 1085 L1044 1085 L1308 1349 Z" /></g><g class="o"><path transform="translate(9,18)" class="S ssh" d="M1759 1104 L1545 1318 L1689 1318 L1903 1104 Z"/><path class="sh6" d="M1759 1104 L1545 1318 L1689 1318 L1903 1104 Z" /></g><g class="o"><path transform="translate(9,18)" class="S sfv" d="M2032 1112 L1880 1264 L1880 1384 L2032 1232 Z"/><path class="fv6" d="M2032 1112 L1880 1264 L1880 1384 L2032 1232 Z" /></g><g class="o"><path transform="translate(6,12)" class="S sfv" d="M1730 1667 L1574 1511 L1574 1525 L1730 1681 Z"/><path class="fv5" d="M1730 1667 L1574 1511 L1574 1525 L1730 1681 Z" /></g><g class="o"><path transform="translate(9,18)" class="S sf" d="M2013 1071 L1887 1197 L1951 1197 L2077 1071 Z"/><path class="f5" d="M2013 1071 L1887 1197 L1951 1197 L2077 1071 Z" /></g><g class="o"><path transform="translate(3,6)" class="S ssv" d="M1125 1609 L957 1777 L957 1809 L1125 1641 Z"/><path class="sv1" d="M1125 1609 L957 1777 L957 1809 L1125 1641 Z" /></g><g class="o"><path transform="translate(9,18)" class="S sfv" d="M1579 1297 L1144 1732 L1144 1752 L1579 1317 Z"/><path class="fv7" d="M1579 1297 L1144 1732 L1144 1752 L1579 1317 Z" /></g><g class="o"><path transform="translate(9,18)" class="S sfh" d="M1008 1947 L585 2370 L625 2370 L1048 1947 Z"/><path class="fh2" d="M1008 1947 L585 2370 L625 2370 L1048 1947 Z" /></g><g class="o"><path transform="translate(6,12)" class="S ssh" d="M1448 1940 L1232 1724 L1312 1724 L1528 1940 Z"/><path class="sh1" d="M1448 1940 L1232 1724 L1312 1724 L1528 1940 Z" /></g><g class="o"><path transform="translate(2,4)" class="S sfh" d="M1761 1782 L1530 1551 L1578 1551 L1809 1782 Z"/><path class="fh3" d="M1761 1782 L1530 1551 L1578 1551 L1809 1782 Z" /></g><g class="o"><path transform="translate(3,6)" class="S sf" d="M1920 966 L1782 828 L1894 828 L2032 966 Z"/><path class="f3" d="M1920 966 L1782 828 L1894 828 L2032 966 Z" /></g><g class="o"><path transform="translate(2,4)" class="S sf" d="M1239 1397 L1032 1190 L1046 1190 L1253 1397 Z"/><path class="f5" d="M1239 1397 L1032 1190 L1046 1190 L1253 1397 Z" /></g><g class="o"><path transform="translate(2,4)" class="S sf" d="M1221 1995 L597 1371 L629 1371 L1253 1995 Z"/><path class="f6" d="M1221 1995 L597 1371 L629 1371 L1253 1995 Z" /></g><g class="o"><path transform="translate(9,18)" class="S sfh" d="M1985 1643 L1741 1399 L1777 1399 L2021 1643 Z"/><path class="fh3" d="M1985 1643 L1741 1399 L1777 1399 L2021 1643 Z" /></g><g class="o"><path transform="translate(2,4)" class="S sfv" d="M1953 1339 L1767 1525 L1767 1533 L1953 1347 Z"/><path class="fv7" d="M1953 1339 L1767 1525 L1767 1533 L1953 1347 Z" /></g><g class="o"><path transform="translate(5,10)" class="S sfh" d="M1386 1452 L1323 1389 L1359 1389 L1422 1452 Z"/><path class="fh1" d="M1386 1452 L1323 1389 L1359 1389 L1422 1452 Z" /></g><g class="o"><path transform="translate(3,6)" class="S sfv" d="M1900 1188 L1786 1302 L1786 1390 L1900 1276 Z"/><path class="fv6" d="M1900 1188 L1786 1302 L1786 1390 L1900 1276 Z" /></g><g class="o"><path transform="translate(6,12)" class="S sf" d="M1899 1696 L1801 1598 L1801 1702 L1899 1800 Z"/><path class="f6" d="M1899 1696 L1801 1598 L1801 1702 L1899 1800 Z" /></g><g class="o"><path transform="translate(3,6)" class="S sfv" d="M1326 1533 L687 2172 L687 2208 L1326 1569 Z"/><path class="fv7" d="M1326 1533 L687 2172 L687 2208 L1326 1569 Z" /></g><g class="o"><path transform="translate(2,4)" class="S sf" d="M1369 1136 L1200 1305 L1304 1305 L1473 1136 Z"/><path class="f4" d="M1369 1136 L1200 1305 L1304 1305 L1473 1136 Z" /></g><g class="o"><path transform="translate(5,10)" class="S ssh" d="M1178 1014 L1087 1105 L1123 1105 L1214 1014 Z"/><path class="sh6" d="M1178 1014 L1087 1105 L1123 1105 L1214 1014 Z" /></g><g class="o"><path transform="translate(4,8)" class="S sfv" d="M1465 1192 L1072 799 L1072 817 L1465 1210 Z"/><path class="fv5" d="M1465 1192 L1072 799 L1072 817 L1465 1210 Z" /></g><g class="o"><path transform="translate(5,10)" class="S sfh" d="M1390 1704 L1277 1817 L1285 1817 L1398 1704 Z"/><path class="fh7" d="M1390 1704 L1277 1817 L1285 1817 L1398 1704 Z" /></g><g class="o"><path transform="translate(9,18)" class="S sfh" d="M1835 1403 L1463 1775 L1599 1775 L1971 1403 Z"/><path class="fh4" d="M1835 1403 L1463 1775 L1599 1775 L1971 1403 Z" /></g><g class="o"><path transform="translate(6,12)" class="S sfh" d="M1467 1660 L1152 1975 L1172 1975 L1487 1660 Z"/><path class="fh7" d="M1467 1660 L1152 1975 L1172 1975 L1487 1660 Z" /></g><g class="o"><path transform="translate(7,14)" class="S sfv" d="M1727 1310 L1627 1410 L1627 1420 L1727 1320 Z"/><path class="fv6" d="M1727 1310 L1627 1410 L1627 1420 L1727 1320 Z" /></g><g class="o"><path transform="translate(8,16)" class="S sfv" d="M1511 1034 L1351 1194 L1351 1266 L1511 1106 Z"/><path class="fv5" d="M1511 1034 L1351 1194 L1351 1266 L1511 1106 Z" /></g></g><use href="#slashes" transform-origin="1500 1500" transform="rotate(180) scale(2)"/></g><circle cx="1500" cy="1500" r="450" stroke-width="40" class="o ss" /><use href="#slashes" transform-origin="1500 1500" transform="scale(.7)"/><use href="#slashes" transform-origin="1500 1500" transform="rotate(180) scale(.3)"/></svg>