<svg xmlns="http://www.w3.org/2000/svg" viewBox="750 750 1500 1500"><style>/*<![CDATA[*/svg{background:rgb(34,34,34);max-width:100vw;max-height:100vh}path{stroke-width:4}.o{opacity:.75}.S{opacity:.4}.sf{stroke:none;fill:black}.sfh{stroke:none;fill:url(#hs)}.sfv{stroke:none;fill:url(#vs)}.ss{stroke:black;fill:none}.ssh{stroke:url(#hs);fill:none}.ssv{stroke:url(#vs);fill:none}.s1{fill:none;stroke:rgb(14,173,105)}.f1{stroke:none;fill:rgb(14,173,105)}.sh1{fill:none;stroke:url(#h1)}.fh1{stroke:none;fill:url(#h1)}.sv1{fill:none;stroke:url(#v1)}.fv1{stroke:none;fill:url(#v1)}.s2{fill:none;stroke:rgb(238,66,102)}.f2{stroke:none;fill:rgb(238,66,102)}.sh2{fill:none;stroke:url(#h2)}.fh2{stroke:none;fill:url(#h2)}.sv2{fill:none;stroke:url(#v2)}.fv2{stroke:none;fill:url(#v2)}.s3{fill:none;stroke:rgb(59,206,172)}.f3{stroke:none;fill:rgb(59,206,172)}.sh3{fill:none;stroke:url(#h3)}.fh3{stroke:none;fill:url(#h3)}.sv3{fill:none;stroke:url(#v3)}.fv3{stroke:none;fill:url(#v3)}.s4{fill:none;stroke:rgb(84,13,110)}.f4{stroke:none;fill:rgb(84,13,110)}.sh4{fill:none;stroke:url(#h4)}.fh4{stroke:none;fill:url(#h4)}.sv4{fill:none;stroke:url(#v4)}.fv4{stroke:none;fill:url(#v4)}.s5{fill:none;stroke:rgb(255,210,63)}.f5{stroke:none;fill:rgb(255,210,63)}.sh5{fill:none;stroke:url(#h5)}.fh5{stroke:none;fill:url(#h5)}.sv5{fill:none;stroke:url(#v5)}.fv5{stroke:none;fill:url(#v5)}.s6{fill:none;stroke:rgb(255,255,255)}.f6{stroke:none;fill:rgb(255,255,255)}.sh6{fill:none;stroke:url(#h6)}.fh6{stroke:none;fill:url(#h6)}.sv6{fill:none;stroke:url(#v6)}.fv6{stroke:none;fill:url(#v6)}.s7{fill:none;stroke:rgb(255,0,0)}.f7{stroke:none;fill:rgb(255,0,0)}.sh7{fill:none;stroke:url(#h7)}.fh7{stroke:none;fill:url(#h7)}.sv7{fill:none;stroke:url(#v7)}.fv7{stroke:none;fill:url(#v7)}/*]]>*/</style><defs><linearGradient gradientTransform="rotate(90)" id="hs"><stop offset="20%" stop-color="#000" /><stop offset="95%" stop-color="rgba(0, 0, 0, 0)" /></linearGradient><linearGradient id="vs"><stop offset="20%" stop-color="#000" /><stop offset="95%" stop-color="rgba(0, 0, 0, 0)" /></linearGradient><linearGradient gradientTransform="rotate(90)" id="h1"><stop offset="20%" stop-color="rgba(14,173,105,1)" /><stop offset="95%" stop-color="rgba(14,173,105,0)" /></linearGradient><linearGradient id="v1"><stop offset="20%" stop-color="rgba(14,173,105,1)" /><stop offset="95%" stop-color="rgba(14,173,105,0)" /></linearGradient><linearGradient gradientTransform="rotate(90)" id="h2"><stop offset="20%" stop-color="rgba(238,66,102,1)" /><stop offset="95%" stop-color="rgba(238,66,102,0)" /></linearGradient><linearGradient id="v2"><stop offset="20%" stop-color="rgba(238,66,102,1)" /><stop offset="95%" stop-color="rgba(238,66,102,0)" /></linearGradient><linearGradient gradientTransform="rotate(90)" id="h3"><stop offset="20%" stop-color="rgba(59,206,172,1)" /><stop offset="95%" stop-color="rgba(59,206,172,0)" /></linearGradient><linearGradient id="v3"><stop offset="20%" stop-color="rgba(59,206,172,1)" /><stop offset="95%" stop-color="rgba(59,206,172,0)" /></linearGradient><linearGradient gradientTransform="rotate(90)" id="h4"><stop offset="20%" stop-color="rgba(84,13,110,1)" /><stop offset="95%" stop-color="rgba(84,13,110,0)" /></linearGradient><linearGradient id="v4"><stop offset="20%" stop-color="rgba(84,13,110,1)" /><stop offset="95%" stop-color="rgba(84,13,110,0)" /></linearGradient><linearGradient gradientTransform="rotate(90)" id="h5"><stop offset="20%" stop-color="rgba(255,210,63,1)" /><stop offset="95%" stop-color="rgba(255,210,63,0)" /></linearGradient><linearGradient id="v5"><stop offset="20%" stop-color="rgba(255,210,63,1)" /><stop offset="95%" stop-color="rgba(255,210,63,0)" /></linearGradient><linearGradient gradientTransform="rotate(90)" id="h6"><stop offset="20%" stop-color="rgba(255,255,255,1)" /><stop offset="95%" stop-color="rgba(255,255,255,0)" /></linearGradient><linearGradient id="v6"><stop offset="20%" stop-color="rgba(255,255,255,1)" /><stop offset="95%" stop-color="rgba(255,255,255,0)" /></linearGradient><linearGradient gradientTransform="rotate(90)" id="h7"><stop offset="20%" stop-color="rgba(255,0,0,1)" /><stop offset="95%" stop-color="rgba(255,0,0,0)" /></linearGradient><linearGradient id="v7"><stop offset="20%" stop-color="rgba(255,0,0,1)" /><stop offset="95%" stop-color="rgba(255,0,0,0)" /></linearGradient></defs><g transform-origin="1500 1500" transform="scale(2)" opacity=".8"><g id="slashes"><g class="o"><path transform="translate(7,14)" class="S ssv" d="M1550 1562 L1636 1476 L1636 1496 L1550 1582 Z"/><path class="sv5" d="M1550 1562 L1636 1476 L1636 1496 L1550 1582 Z" /></g><g class="o"><path transform="translate(3,6)" class="S sfv" d="M1169 978 L1247 900 L1247 932 L1169 1010 Z"/><path class="fv4" d="M1169 978 L1247 900 L1247 932 L1169 1010 Z" /></g><g class="o"><path transform="translate(6,12)" class="S sfh" d="M1915 1000 L2106 809 L2124 809 L1933 1000 Z"/><path class="fh4" d="M1915 1000 L2106 809 L2124 809 L1933 1000 Z" /></g><g class="o"><path transform="translate(7,14)" class="S sfv" d="M1448 1287 L1293 1132 L1293 1268 L1448 1423 Z"/><path class="fv5" d="M1448 1287 L1293 1132 L1293 1268 L1448 1423 Z" /></g><g class="o"><path transform="translate(4,8)" class="S sfv" d="M1628 1914 L1787 1755 L1787 1891 L1628 2050 Z"/><path class="fv1" d="M1628 1914 L1787 1755 L1787 1891 L1628 2050 Z" /></g><g class="o"><path transform="translate(3,6)" class="S sfh" d="M1515 1161 L1618 1058 L1690 1058 L1587 1161 Z"/><path class="fh5" d="M1515 1161 L1618 1058 L1690 1058 L1587 1161 Z" /></g><g class="o"><path transform="translate(3,6)" class="S sfv" d="M1294 1137 L1490 941 L1490 973 L1294 1169 Z"/><path class="fv3" d="M1294 1137 L1490 941 L1490 973 L1294 1169 Z" /></g><g class="o"><path transform="translate(7,14)" class="S sfv" d="M1345 1535 L1417 1463 L1417 1491 L1345 1563 Z"/><path class="fv2" d="M1345 1535 L1417 1463 L1417 1491 L1345 1563 Z" /></g><g class="o"><path transform="translate(5,10)" class="S sfh" d="M1737 1999 L1519 1781 L1663 1781 L1881 1999 Z"/><path class="fh5" d="M1737 1999 L1519 1781 L1663 1781 L1881 1999 Z" /></g><g class="o"><path transform="translate(8,16)" class="S sfh" d="M1147 1890 L1094 1837 L1190 1837 L1243 1890 Z"/><path class="fh7" d="M1147 1890 L1094 1837 L1190 1837 L1243 1890 Z" /></g><g class="o"><path transform="translate(7,14)" class="S sfh" d="M1438 1575 L1530 1483 L1634 1483 L1542 1575 Z"/><path class="fh7" d="M1438 1575 L1530 1483 L1634 1483 L1542 1575 Z" /></g><g class="o"><path transform="translate(4,8)" class="S sfh" d="M1725 980 L1844 861 L1858 861 L1739 980 Z"/><path class="fh1" d="M1725 980 L1844 861 L1858 861 L1739 980 Z" /></g><g class="o"><path transform="translate(7,14)" class="S sfv" d="M1609 1784 L1539 1714 L1539 1738 L1609 1808 Z"/><path class="fv2" d="M1609 1784 L1539 1714 L1539 1738 L1609 1808 Z" /></g><g class="o"><path transform="translate(7,14)" class="S ssv" d="M1549 1757 L1306 1514 L1306 1610 L1549 1853 Z"/><path class="sv3" d="M1549 1757 L1306 1514 L1306 1610 L1549 1853 Z" /></g><g class="o"><path transform="translate(4,8)" class="S ssh" d="M1099 1306 L912 1119 L942 1119 L1129 1306 Z"/><path class="sh1" d="M1099 1306 L912 1119 L942 1119 L1129 1306 Z" /></g><g class="o"><path transform="translate(7,14)" class="S ssh" d="M1646 1590 L1500 1444 L1538 1444 L1684 1590 Z"/><path class="sh6" d="M1646 1590 L1500 1444 L1538 1444 L1684 1590 Z" /></g><g class="o"><path transform="translate(7,14)" class="S sfv" d="M2036 1734 L2232 1538 L2232 1610 L2036 1806 Z"/><path class="fv4" d="M2036 1734 L2232 1538 L2232 1610 L2036 1806 Z" /></g><g class="o"><path transform="translate(6,12)" class="S sfv" d="M1786 1129 L1897 1018 L1897 1044 L1786 1155 Z"/><path class="fv3" d="M1786 1129 L1897 1018 L1897 1044 L1786 1155 Z" /></g><g class="o"><path transform="translate(4,8)" class="S sfh" d="M1223 1714 L1064 1555 L1094 1555 L1253 1714 Z"/><path class="fh6" d="M1223 1714 L1064 1555 L1094 1555 L1253 1714 Z" /></g><g class="o"><path transform="translate(3,6)" class="S sfv" d="M999 1044 L862 907 L862 925 L999 1062 Z"/><path class="fv6" d="M999 1044 L862 907 L862 925 L999 1062 Z" /></g><g class="o"><path transform="translate(6,12)" class="S sfh" d="M1286 1382 L1515 1153 L1527 1153 L1298 1382 Z"/><path class="fh4" d="M1286 1382 L1515 1153 L1527 1153 L1298 1382 Z" /></g><g class="o"><path transform="translate(9,18)" class="S ssv" d="M2005 1410 L2184 1231 L2184 1343 L2005 1522 Z"/><path class="sv3" d="M2005 1410 L2184 1231 L2184 1343 L2005 1522 Z" /></g><g class="o"><path transform="translate(3,6)" class="S sfh" d="M1240 1785 L1103 1648 L1151 1648 L1288 1785 Z"/><path class="fh5" d="M1240 1785 L1103 1648 L1151 1648 L1288 1785 Z" /></g><g class="o"><path transform="translate(2,4)" class="S sfh" d="M1951 2014 L1830 1893 L1848 1893 L1969 2014 Z"/><path class="fh2" d="M1951 2014 L1830 1893 L1848 1893 L1969 2014 Z" /></g><g class="o"><path transform="translate(6,12)" class="S sfv" d="M1936 958 L1800 822 L1800 974 L1936 1110 Z"/><path class="fv1" d="M1936 958 L1800 822 L1800 974 L1936 1110 Z" /></g><g class="o"><path transform="translate(6,12)" class="S sfv" d="M1589 1792 L1484 1687 L1484 1721 L1589 1826 Z"/><path class="fv5" d="M1589 1792 L1484 1687 L1484 1721 L1589 1826 Z" /></g><g class="o"><path transform="translate(8,16)" class="S sfh" d="M1073 1675 L1015 1617 L1045 1617 L1103 1675 Z"/><path class="fh1" d="M1073 1675 L1015 1617 L1045 1617 L1103 1675 Z" /></g><g class="o"><path transform="translate(8,16)" class="S sfh" d="M1774 960 L1679 865 L1775 865 L1870 960 Z"/><path class="fh7" d="M1774 960 L1679 865 L1775 865 L1870 960 Z" /></g><g class="o"><path transform="translate(3,6)" class="S ssv" d="M1969 1263 L2175 1057 L2175 1089 L1969 1295 Z"/><path class="sv5" d="M1969 1263 L2175 1057 L2175 1089 L1969 1295 Z" /></g><g class="o"><path transform="translate(7,14)" class="S sfh" d="M1733 1717 L1645 1629 L1673 1629 L1761 1717 Z"/><path class="fh5" d="M1733 1717 L1645 1629 L1673 1629 L1761 1717 Z" /></g><g class="o"><path transform="translate(7,14)" class="S sfh" d="M968 1167 L728 927 L760 927 L1000 1167 Z"/><path class="fh5" d="M968 1167 L728 927 L760 927 L1000 1167 Z" /></g><g class="o"><path transform="translate(9,18)" class="S sfh" d="M1557 1582 L1760 1379 L1770 1379 L1567 1582 Z"/><path class="fh4" d="M1557 1582 L1760 1379 L1770 1379 L1567 1582 Z" /></g><g class="o"><path transform="translate(7,14)" class="S ssv" d="M1316 1187 L1236 1107 L1236 1115 L1316 1195 Z"/><path class="sv2" d="M1316 1187 L1236 1107 L1236 1115 L1316 1195 Z" /></g><g class="o"><path transform="translate(7,14)" class="S sfh" d="M1360 1457 L1536 1281 L1672 1281 L1496 1457 Z"/><path class="fh2" d="M1360 1457 L1536 1281 L1672 1281 L1496 1457 Z" /></g><g class="o"><path transform="translate(6,12)" class="S ssh" d="M955 1652 L1165 1442 L1293 1442 L1083 1652 Z"/><path class="sh3" d="M955 1652 L1165 1442 L1293 1442 L1083 1652 Z" /></g><g class="o"><path transform="translate(9,18)" class="S ssh" d="M1043 1764 L824 1545 L960 1545 L1179 1764 Z"/><path class="sh6" d="M1043 1764 L824 1545 L960 1545 L1179 1764 Z" /></g><g class="o"><path transform="translate(5,10)" class="S sfh" d="M1855 1649 L1952 1552 L1986 1552 L1889 1649 Z"/><path class="fh6" d="M1855 1649 L1952 1552 L1986 1552 L1889 1649 Z" /></g><g class="o"><path transform="translate(2,4)" class="S sfh" d="M1827 1216 L2063 980 L2103 980 L1867 1216 Z"/><path class="fh4" d="M1827 1216 L2063 980 L2103 980 L1867 1216 Z" /></g><g class="o"><path transform="translate(2,4)" class="S sfv" d="M1753 1250 L1977 1026 L1977 1044 L1753 1268 Z"/><path class="fv2" d="M1753 1250 L1977 1026 L1977 1044 L1753 1268 Z" /></g><g class="o"><path transform="translate(3,6)" class="S sfh" d="M1664 1609 L1894 1379 L1922 1379 L1692 1609 Z"/><path class="fh4" d="M1664 1609 L1894 1379 L1922 1379 L1692 1609 Z" /></g><g class="o"><path transform="translate(4,8)" class="S ssv" d="M1615 1914 L1787 1742 L1787 1838 L1615 2010 Z"/><path class="sv3" d="M1615 1914 L1787 1742 L1787 1838 L1615 2010 Z" /></g><g class="o"><path transform="translate(8,16)" class="S sfv" d="M1656 1622 L1595 1561 L1595 1583 L1656 1644 Z"/><path class="fv1" d="M1656 1622 L1595 1561 L1595 1583 L1656 1644 Z" /></g><g class="o"><path transform="translate(7,14)" class="S sfh" d="M1346 1505 L1487 1364 L1505 1364 L1364 1505 Z"/><path class="fh2" d="M1346 1505 L1487 1364 L1505 1364 L1364 1505 Z" /></g><g class="o"><path transform="translate(2,4)" class="S sfh" d="M1889 1427 L1680 1218 L1690 1218 L1899 1427 Z"/><path class="fh4" d="M1889 1427 L1680 1218 L1690 1218 L1899 1427 Z" /></g><g class="o"><path transform="translate(8,16)" class="S sfh" d="M1395 1488 L1580 1303 L1620 1303 L1435 1488 Z"/><path class="fh2" d="M1395 1488 L1580 1303 L1620 1303 L1435 1488 Z" /></g><g class="o"><path transform="translate(2,4)" class="S sfh" d="M1977 1504 L1897 1424 L1917 1424 L1997 1504 Z"/><path class="fh4" d="M1977 1504 L1897 1424 L1917 1424 L1997 1504 Z" /></g><g class="o"><path transform="translate(8,16)" class="S sfv" d="M1606 1568 L1437 1399 L1437 1433 L1606 1602 Z"/><path class="fv5" d="M1606 1568 L1437 1399 L1437 1433 L1606 1602 Z" /></g><g class="o"><path transform="translate(3,6)" class="S sfv" d="M1041 1916 L1122 1835 L1122 1843 L1041 1924 Z"/><path class="fv3" d="M1041 1916 L1122 1835 L1122 1843 L1041 1924 Z" /></g><g class="o"><path transform="translate(3,6)" class="S ssh" d="M1651 1201 L1424 974 L1560 974 L1787 1201 Z"/><path class="sh4" d="M1651 1201 L1424 974 L1560 974 L1787 1201 Z" /></g><g class="o"><path transform="translate(4,8)" class="S sfv" d="M1928 1013 L1726 811 L1726 907 L1928 1109 Z"/><path class="fv1" d="M1928 1013 L1726 811 L1726 907 L1928 1109 Z" /></g><g class="o"><path transform="translate(9,18)" class="S sfv" d="M1295 1491 L1186 1382 L1186 1518 L1295 1627 Z"/><path class="fv6" d="M1295 1491 L1186 1382 L1186 1518 L1295 1627 Z" /></g><g class="o"><path transform="translate(6,12)" class="S sfv" d="M1547 1431 L1404 1288 L1404 1310 L1547 1453 Z"/><path class="fv1" d="M1547 1431 L1404 1288 L1404 1310 L1547 1453 Z" /></g><g class="o"><path transform="translate(3,6)" class="S sfh" d="M1911 1862 L2074 1699 L2088 1699 L1925 1862 Z"/><path class="fh2" d="M1911 1862 L2074 1699 L2088 1699 L1925 1862 Z" /></g><g class="o"><path transform="translate(7,14)" class="S sfv" d="M1808 974 L1630 796 L1630 940 L1808 1118 Z"/><path class="fv4" d="M1808 974 L1630 796 L1630 940 L1808 1118 Z" /></g><g class="o"><path transform="translate(7,14)" class="S sfh" d="M1901 1959 L2108 1752 L2126 1752 L1919 1959 Z"/><path class="fh5" d="M1901 1959 L2108 1752 L2126 1752 L1919 1959 Z" /></g><g class="o"><path transform="translate(5,10)" class="S sfv" d="M1490 1414 L1416 1340 L1416 1484 L1490 1558 Z"/><path class="fv3" d="M1490 1414 L1416 1340 L1416 1484 L1490 1558 Z" /></g><g class="o"><path transform="translate(6,12)" class="S sfh" d="M1152 1448 L999 1295 L1009 1295 L1162 1448 Z"/><path class="fh7" d="M1152 1448 L999 1295 L1009 1295 L1162 1448 Z" /></g><g class="o"><path transform="translate(4,8)" class="S sfv" d="M1091 1527 L967 1403 L967 1483 L1091 1607 Z"/><path class="fv1" d="M1091 1527 L967 1403 L967 1483 L1091 1607 Z" /></g><g class="o"><path transform="translate(9,18)" class="S sfh" d="M938 1484 L1052 1370 L1084 1370 L970 1484 Z"/><path class="fh2" d="M938 1484 L1052 1370 L1084 1370 L970 1484 Z" /></g><g class="o"><path transform="translate(6,12)" class="S sfh" d="M1509 1832 L1319 1642 L1399 1642 L1589 1832 Z"/><path class="fh7" d="M1509 1832 L1319 1642 L1399 1642 L1589 1832 Z" /></g><g class="o"><path transform="translate(7,14)" class="S sfh" d="M1828 1550 L1598 1320 L1636 1320 L1866 1550 Z"/><path class="fh6" d="M1828 1550 L1598 1320 L1636 1320 L1866 1550 Z" /></g><g class="o"><path transform="translate(9,18)" class="S sfh" d="M1763 1664 L1664 1565 L1694 1565 L1793 1664 Z"/><path class="fh2" d="M1763 1664 L1664 1565 L1694 1565 L1793 1664 Z" /></g><g class="o"><path transform="translate(4,8)" class="S ssv" d="M1906 1303 L1724 1121 L1724 1157 L1906 1339 Z"/><path class="sv7" d="M1906 1303 L1724 1121 L1724 1157 L1906 1339 Z" /></g><g class="o"><path transform="translate(7,14)" class="S sfh" d="M1416 1624 L1573 1467 L1581 1467 L1424 1624 Z"/><path class="fh4" d="M1416 1624 L1573 1467 L1581 1467 L1424 1624 Z" /></g><g class="o"><path transform="translate(3,6)" class="S sfh" d="M1508 1182 L1574 1116 L1584 1116 L1518 1182 Z"/><path class="fh7" d="M1508 1182 L1574 1116 L1584 1116 L1518 1182 Z" /></g><g class="o"><path transform="translate(9,18)" class="S ssv" d="M2014 1485 L2109 1390 L2109 1422 L2014 1517 Z"/><path class="sv5" d="M2014 1485 L2109 1390 L2109 1422 L2014 1517 Z" /></g><g class="o"><path transform="translate(6,12)" class="S sfh" d="M1107 2049 L863 1805 L881 1805 L1125 2049 Z"/><path class="fh6" d="M1107 2049 L863 1805 L881 1805 L1125 2049 Z" /></g><g class="o"><path transform="translate(4,8)" class="S ssh" d="M1691 984 L1622 915 L1662 915 L1731 984 Z"/><path class="sh4" d="M1691 984 L1622 915 L1662 915 L1731 984 Z" /></g><g class="o"><path transform="translate(7,14)" class="S sfh" d="M1819 1097 L1655 933 L1673 933 L1837 1097 Z"/><path class="fh6" d="M1819 1097 L1655 933 L1673 933 L1837 1097 Z" /></g><g class="o"><path transform="translate(3,6)" class="S sfv" d="M2018 1539 L2250 1307 L2250 1345 L2018 1577 Z"/><path class="fv4" d="M2018 1539 L2250 1307 L2250 1345 L2018 1577 Z" /></g><g class="o"><path transform="translate(9,18)" class="S ssv" d="M1669 1766 L1615 1712 L1615 1776 L1669 1830 Z"/><path class="sv6" d="M1669 1766 L1615 1712 L1615 1776 L1669 1830 Z" /></g><g class="o"><path transform="translate(3,6)" class="S sfv" d="M1576 1372 L1504 1300 L1504 1444 L1576 1516 Z"/><path class="fv6" d="M1576 1372 L1504 1300 L1504 1444 L1576 1516 Z" /></g><g class="o"><path transform="translate(7,14)" class="S sfv" d="M1188 2002 L1311 1879 L1311 1911 L1188 2034 Z"/><path class="fv4" d="M1188 2002 L1311 1879 L1311 1911 L1188 2034 Z" /></g><g class="o"><path transform="translate(5,10)" class="S sfv" d="M1177 1748 L1049 1620 L1049 1652 L1177 1780 Z"/><path class="fv7" d="M1177 1748 L1049 1620 L1049 1652 L1177 1780 Z" /></g><g class="o"><path transform="translate(7,14)" class="S sfv" d="M1103 1366 L946 1209 L946 1237 L1103 1394 Z"/><path class="fv3" d="M1103 1366 L946 1209 L946 1237 L1103 1394 Z" /></g><g class="o"><path transform="translate(2,4)" class="S sfh" d="M1356 1270 L1276 1190 L1308 1190 L1388 1270 Z"/><path class="fh1" d="M1356 1270 L1276 1190 L1308 1190 L1388 1270 Z" /></g><g class="o"><path transform="translate(2,4)" class="S sfh" d="M1198 1720 L1028 1550 L1042 1550 L1212 1720 Z"/><path class="fh3" d="M1198 1720 L1028 1550 L1042 1550 L1212 1720 Z" /></g><g class="o"><path transform="translate(6,12)" class="S ssv" d="M1791 1176 L1897 1070 L1897 1102 L1791 1208 Z"/><path class="sv6" d="M1791 1176 L1897 1070 L1897 1102 L1791 1208 Z" /></g><g class="o"><path transform="translate(2,4)" class="S ssv" d="M1629 1634 L1399 1404 L1399 1484 L1629 1714 Z"/><path class="sv3" d="M1629 1634 L1399 1404 L1399 1484 L1629 1714 Z" /></g><g class="o"><path transform="translate(9,18)" class="S sfv" d="M1203 927 L1036 760 L1036 832 L1203 999 Z"/><path class="fv3" d="M1203 927 L1036 760 L1036 832 L1203 999 Z" /></g><g class="o"><path transform="translate(2,4)" class="S sfv" d="M1992 1075 L2053 1014 L2053 1040 L1992 1101 Z"/><path class="fv4" d="M1992 1075 L2053 1014 L2053 1040 L1992 1101 Z" /></g><g class="o"><path transform="translate(9,18)" class="S sfh" d="M1871 1120 L1692 941 L1726 941 L1905 1120 Z"/><path class="fh5" d="M1871 1120 L1692 941 L1726 941 L1905 1120 Z" /></g><g class="o"><path transform="translate(9,18)" class="S sfh" d="M1084 1709 L1226 1567 L1248 1567 L1106 1709 Z"/><path class="fh4" d="M1084 1709 L1226 1567 L1248 1567 L1106 1709 Z" /></g><g class="o"><path transform="translate(9,18)" class="S sfh" d="M1673 1758 L1789 1642 L1827 1642 L1711 1758 Z"/><path class="fh5" d="M1673 1758 L1789 1642 L1827 1642 L1711 1758 Z" /></g><g class="o"><path transform="translate(9,18)" class="S sfh" d="M1708 1848 L1768 1788 L1856 1788 L1796 1848 Z"/><path class="fh6" d="M1708 1848 L1768 1788 L1856 1788 L1796 1848 Z" /></g><g class="o"><path transform="translate(5,10)" class="S sfv" d="M1215 1780 L1272 1723 L1272 1859 L1215 1916 Z"/><path class="fv1" d="M1215 1780 L1272 1723 L1272 1859 L1215 1916 Z" /></g><g class="o"><path transform="translate(6,12)" class="S sfh" d="M1455 1331 L1522 1264 L1532 1264 L1465 1331 Z"/><path class="fh3" d="M1455 1331 L1522 1264 L1532 1264 L1465 1331 Z" /></g><g class="o"><path transform="translate(6,12)" class="S sfv" d="M1089 1006 L860 777 L860 813 L1089 1042 Z"/><path class="fv4" d="M1089 1006 L860 777 L860 813 L1089 1042 Z" /></g><g class="o"><path transform="translate(7,14)" class="S ssv" d="M1494 1102 L1401 1009 L1401 1047 L1494 1140 Z"/><path class="sv1" d="M1494 1102 L1401 1009 L1401 1047 L1494 1140 Z" /></g><g class="o"><path transform="translate(3,6)" class="S sfv" d="M1460 904 L1258 702 L1258 838 L1460 1040 Z"/><path class="fv5" d="M1460 904 L1258 702 L1258 838 L1460 1040 Z" /></g><g class="o"><path transform="translate(2,4)" class="S sfh" d="M1476 1515 L1320 1359 L1350 1359 L1506 1515 Z"/><path class="fh4" d="M1476 1515 L1320 1359 L1350 1359 L1506 1515 Z" /></g><g class="o"><path transform="translate(8,16)" class="S sfv" d="M1928 1937 L1857 1866 L1857 1986 L1928 2057 Z"/><path class="fv6" d="M1928 1937 L1857 1866 L1857 1986 L1928 2057 Z" /></g><g class="o"><path transform="translate(3,6)" class="S ssv" d="M1076 1685 L979 1588 L979 1676 L1076 1773 Z"/><path class="sv1" d="M1076 1685 L979 1588 L979 1676 L1076 1773 Z" /></g><g class="o"><path transform="translate(9,18)" class="S sfv" d="M1570 1134 L1721 983 L1721 1011 L1570 1162 Z"/><path class="fv4" d="M1570 1134 L1721 983 L1721 1011 L1570 1162 Z" /></g><g class="o"><path transform="translate(9,18)" class="S sfv" d="M1139 1416 L1195 1360 L1195 1372 L1139 1428 Z"/><path class="fv7" d="M1139 1416 L1195 1360 L1195 1372 L1139 1428 Z" /></g><g class="o"><path transform="translate(4,8)" class="S ssh" d="M1718 1871 L1588 1741 L1732 1741 L1862 1871 Z"/><path class="sh1" d="M1718 1871 L1588 1741 L1732 1741 L1862 1871 Z" /></g><g class="o"><path transform="translate(9,18)" class="S sfh" d="M1923 2035 L2051 1907 L2085 1907 L1957 2035 Z"/><path class="fh4" d="M1923 2035 L2051 1907 L2085 1907 L1957 2035 Z" /></g><g class="o"><path transform="translate(8,16)" class="S sfv" d="M1201 985 L1110 894 L1110 1030 L1201 1121 Z"/><path class="fv7" d="M1201 985 L1110 894 L1110 1030 L1201 1121 Z" /></g><g class="o"><path transform="translate(8,16)" class="S sfv" d="M1149 1037 L1238 948 L1238 1020 L1149 1109 Z"/><path class="fv7" d="M1149 1037 L1238 948 L1238 1020 L1149 1109 Z" /></g><g class="o"><path transform="translate(4,8)" class="S sfh" d="M1282 1904 L1060 1682 L1084 1682 L1306 1904 Z"/><path class="fh3" d="M1282 1904 L1060 1682 L1084 1682 L1306 1904 Z" /></g><g class="o"><path transform="translate(9,18)" class="S sfv" d="M2044 1153 L1836 945 L1836 1033 L2044 1241 Z"/><path class="fv7" d="M2044 1153 L1836 945 L1836 1033 L2044 1241 Z" /></g><g class="o"><path transform="translate(6,12)" class="S sfh" d="M1235 1682 L1314 1603 L1324 1603 L1245 1682 Z"/><path class="fh7" d="M1235 1682 L1314 1603 L1324 1603 L1245 1682 Z" /></g><g class="o"><path transform="translate(7,14)" class="S ssh" d="M1202 1334 L1342 1194 L1494 1194 L1354 1334 Z"/><path class="sh4" d="M1202 1334 L1342 1194 L1494 1194 L1354 1334 Z" /></g><g class="o"><path transform="translate(4,8)" class="S sfh" d="M1829 976 L1995 810 L2083 810 L1917 976 Z"/><path class="fh7" d="M1829 976 L1995 810 L2083 810 L1917 976 Z" /></g><g class="o"><path transform="translate(5,10)" class="S sfv" d="M1332 1178 L1435 1075 L1435 1107 L1332 1210 Z"/><path class="fv2" d="M1332 1178 L1435 1075 L1435 1107 L1332 1210 Z" /></g><g class="o"><path transform="translate(6,12)" class="S sfh" d="M1583 1840 L1793 1630 L1811 1630 L1601 1840 Z"/><path class="fh5" d="M1583 1840 L1793 1630 L1811 1630 L1601 1840 Z" /></g><g class="o"><path transform="translate(5,10)" class="S sfh" d="M1231 1378 L1372 1237 L1394 1237 L1253 1378 Z"/><path class="fh1" d="M1231 1378 L1372 1237 L1394 1237 L1253 1378 Z" /></g><g class="o"><path transform="translate(8,16)" class="S sfv" d="M1801 1700 L1677 1576 L1677 1614 L1801 1738 Z"/><path class="fv6" d="M1801 1700 L1677 1576 L1677 1614 L1801 1738 Z" /></g><g class="o"><path transform="translate(6,12)" class="S sfh" d="M1082 1592 L1274 1400 L1308 1400 L1116 1592 Z"/><path class="fh7" d="M1082 1592 L1274 1400 L1308 1400 L1116 1592 Z" /></g><g class="o"><path transform="translate(2,4)" class="S sfh" d="M1425 1465 L1544 1346 L1616 1346 L1497 1465 Z"/><path class="fh4" d="M1425 1465 L1544 1346 L1616 1346 L1497 1465 Z" /></g><g class="o"><path transform="translate(6,12)" class="S sfv" d="M975 1386 L1172 1189 L1172 1301 L975 1498 Z"/><path class="fv2" d="M975 1386 L1172 1189 L1172 1301 L975 1498 Z" /></g><g class="o"><path transform="translate(5,10)" class="S ssh" d="M1740 1344 L1934 1150 L1970 1150 L1776 1344 Z"/><path class="sh5" d="M1740 1344 L1934 1150 L1970 1150 L1776 1344 Z" /></g><g class="o"><path transform="translate(7,14)" class="S sfv" d="M1270 1813 L1412 1671 L1412 1709 L1270 1851 Z"/><path class="fv4" d="M1270 1813 L1412 1671 L1412 1709 L1270 1851 Z" /></g><g class="o"><path transform="translate(2,4)" class="S sfv" d="M1417 997 L1482 932 L1482 964 L1417 1029 Z"/><path class="fv2" d="M1417 997 L1482 932 L1482 964 L1417 1029 Z" /></g><g class="o"><path transform="translate(6,12)" class="S sfh" d="M1740 1548 L1520 1328 L1544 1328 L1764 1548 Z"/><path class="fh4" d="M1740 1548 L1520 1328 L1544 1328 L1764 1548 Z" /></g><g class="o"><path transform="translate(4,8)" class="S sfv" d="M1035 1282 L979 1226 L979 1322 L1035 1378 Z"/><path class="fv4" d="M1035 1282 L979 1226 L979 1322 L1035 1378 Z" /></g><g class="o"><path transform="translate(5,10)" class="S sfh" d="M1673 1378 L1480 1185 L1490 1185 L1683 1378 Z"/><path class="fh7" d="M1673 1378 L1480 1185 L1490 1185 L1683 1378 Z" /></g><g class="o"><path transform="translate(8,16)" class="S sfh" d="M1449 1634 L1608 1475 L1752 1475 L1593 1634 Z"/><path class="fh3" d="M1449 1634 L1608 1475 L1752 1475 L1593 1634 Z" /></g><g class="o"><path transform="translate(9,18)" class="S sfv" d="M1179 938 L1402 715 L1402 751 L1179 974 Z"/><path class="fv3" d="M1179 938 L1402 715 L1402 751 L1179 974 Z" /></g><g class="o"><path transform="translate(6,12)" class="S ssv" d="M2047 913 L2210 750 L2210 878 L2047 1041 Z"/><path class="sv1" d="M2047 913 L2210 750 L2210 878 L2047 1041 Z" /></g></g><use href="#slashes" transform-origin="1500 1500" transform="rotate(180) scale(2)"/></g><rect x="1080" y="1080" width="840" height="840" stroke-width="20" class="o ss" /><use href="#slashes" transform-origin="1500 1500" transform="scale(.6)"/><use href="#slashes" transform-origin="1500 1500" transform="rotate(180) scale(.6)"/></svg>