<svg xmlns="http://www.w3.org/2000/svg" viewBox="750 750 1500 1500"><style>/*<![CDATA[*/svg{background:rgb(70,73,76);max-width:100vw;max-height:100vh}path{stroke-width:4}.o{opacity:.75}.S{opacity:.4}.sf{stroke:none;fill:black}.sfh{stroke:none;fill:url(#hs)}.sfv{stroke:none;fill:url(#vs)}.ss{stroke:black;fill:none}.ssh{stroke:url(#hs);fill:none}.ssv{stroke:url(#vs);fill:none}.s1{fill:none;stroke:rgb(76,92,104)}.f1{stroke:none;fill:rgb(76,92,104)}.sh1{fill:none;stroke:url(#h1)}.fh1{stroke:none;fill:url(#h1)}.sv1{fill:none;stroke:url(#v1)}.fv1{stroke:none;fill:url(#v1)}.s2{fill:none;stroke:rgb(16,16,16)}.f2{stroke:none;fill:rgb(16,16,16)}.sh2{fill:none;stroke:url(#h2)}.fh2{stroke:none;fill:url(#h2)}.sv2{fill:none;stroke:url(#v2)}.fv2{stroke:none;fill:url(#v2)}.s3{fill:none;stroke:rgb(197,195,198)}.f3{stroke:none;fill:rgb(197,195,198)}.sh3{fill:none;stroke:url(#h3)}.fh3{stroke:none;fill:url(#h3)}.sv3{fill:none;stroke:url(#v3)}.fv3{stroke:none;fill:url(#v3)}.s4{fill:none;stroke:rgb(34,34,34)}.f4{stroke:none;fill:rgb(34,34,34)}.sh4{fill:none;stroke:url(#h4)}.fh4{stroke:none;fill:url(#h4)}.sv4{fill:none;stroke:url(#v4)}.fv4{stroke:none;fill:url(#v4)}.s5{fill:none;stroke:rgb(25,133,161)}.f5{stroke:none;fill:rgb(25,133,161)}.sh5{fill:none;stroke:url(#h5)}.fh5{stroke:none;fill:url(#h5)}.sv5{fill:none;stroke:url(#v5)}.fv5{stroke:none;fill:url(#v5)}.s6{fill:none;stroke:rgb(255,255,255)}.f6{stroke:none;fill:rgb(255,255,255)}.sh6{fill:none;stroke:url(#h6)}.fh6{stroke:none;fill:url(#h6)}.sv6{fill:none;stroke:url(#v6)}.fv6{stroke:none;fill:url(#v6)}.s7{fill:none;stroke:rgb(255,0,0)}.f7{stroke:none;fill:rgb(255,0,0)}.sh7{fill:none;stroke:url(#h7)}.fh7{stroke:none;fill:url(#h7)}.sv7{fill:none;stroke:url(#v7)}.fv7{stroke:none;fill:url(#v7)}/*]]>*/</style><defs><linearGradient gradientTransform="rotate(90)" id="hs"><stop offset="20%" stop-color="#000" /><stop offset="95%" stop-color="rgba(0, 0, 0, 0)" /></linearGradient><linearGradient id="vs"><stop offset="20%" stop-color="#000" /><stop offset="95%" stop-color="rgba(0, 0, 0, 0)" /></linearGradient><linearGradient gradientTransform="rotate(90)" id="h1"><stop offset="20%" stop-color="rgba(76,92,104,1)" /><stop offset="95%" stop-color="rgba(76,92,104,0)" /></linearGradient><linearGradient id="v1"><stop offset="20%" stop-color="rgba(76,92,104,1)" /><stop offset="95%" stop-color="rgba(76,92,104,0)" /></linearGradient><linearGradient gradientTransform="rotate(90)" id="h2"><stop offset="20%" stop-color="rgba(16,16,16,1)" /><stop offset="95%" stop-color="rgba(16,16,16,0)" /></linearGradient><linearGradient id="v2"><stop offset="20%" stop-color="rgba(16,16,16,1)" /><stop offset="95%" stop-color="rgba(16,16,16,0)" /></linearGradient><linearGradient gradientTransform="rotate(90)" id="h3"><stop offset="20%" stop-color="rgba(197,195,198,1)" /><stop offset="95%" stop-color="rgba(197,195,198,0)" /></linearGradient><linearGradient id="v3"><stop offset="20%" stop-color="rgba(197,195,198,1)" /><stop offset="95%" stop-color="rgba(197,195,198,0)" /></linearGradient><linearGradient gradientTransform="rotate(90)" id="h4"><stop offset="20%" stop-color="rgba(34,34,34,1)" /><stop offset="95%" stop-color="rgba(34,34,34,0)" /></linearGradient><linearGradient id="v4"><stop offset="20%" stop-color="rgba(34,34,34,1)" /><stop offset="95%" stop-color="rgba(34,34,34,0)" /></linearGradient><linearGradient gradientTransform="rotate(90)" id="h5"><stop offset="20%" stop-color="rgba(25,133,161,1)" /><stop offset="95%" stop-color="rgba(25,133,161,0)" /></linearGradient><linearGradient id="v5"><stop offset="20%" stop-color="rgba(25,133,161,1)" /><stop offset="95%" stop-color="rgba(25,133,161,0)" /></linearGradient><linearGradient gradientTransform="rotate(90)" id="h6"><stop offset="20%" stop-color="rgba(255,255,255,1)" /><stop offset="95%" stop-color="rgba(255,255,255,0)" /></linearGradient><linearGradient id="v6"><stop offset="20%" stop-color="rgba(255,255,255,1)" /><stop offset="95%" stop-color="rgba(255,255,255,0)" /></linearGradient><linearGradient gradientTransform="rotate(90)" id="h7"><stop offset="20%" stop-color="rgba(255,0,0,1)" /><stop offset="95%" stop-color="rgba(255,0,0,0)" /></linearGradient><linearGradient id="v7"><stop offset="20%" stop-color="rgba(255,0,0,1)" /><stop offset="95%" stop-color="rgba(255,0,0,0)" /></linearGradient></defs><g transform-origin="1500 1500" transform="scale(2)" opacity=".2"><g id="slashes"><g class="o"><path transform="translate(5,10)" class="S sfh" d="M1816 1838 L1605 2049 L1631 2049 L1842 1838 Z"/><path class="fh5" d="M1816 1838 L1605 2049 L1631 2049 L1842 1838 Z" /></g><g class="o"><path transform="translate(6,12)" class="S sfh" d="M1890 1896 L1708 2078 L1716 2078 L1898 1896 Z"/><path class="fh5" d="M1890 1896 L1708 2078 L1716 2078 L1898 1896 Z" /></g><g class="o"><path transform="translate(7,14)" class="S ss" d="M1690 1122 L1519 1293 L1549 1293 L1720 1122 Z"/><path class="s3" d="M1690 1122 L1519 1293 L1549 1293 L1720 1122 Z" /></g><g class="o"><path transform="translate(2,4)" class="S ss" d="M962 1436 L1058 1532 L1058 1556 L962 1460 Z"/><path class="s4" d="M962 1436 L1058 1532 L1058 1556 L962 1460 Z" /></g><g class="o"><path transform="translate(3,6)" class="S sfv" d="M1205 1432 L1113 1524 L1113 1560 L1205 1468 Z"/><path class="fv5" d="M1205 1432 L1113 1524 L1113 1560 L1205 1468 Z" /></g><g class="o"><path transform="translate(7,14)" class="S sfh" d="M1428 1430 L1346 1512 L1384 1512 L1466 1430 Z"/><path class="fh1" d="M1428 1430 L1346 1512 L1384 1512 L1466 1430 Z" /></g><g class="o"><path transform="translate(5,10)" class="S sf" d="M1512 977 L1435 1054 L1471 1054 L1548 977 Z"/><path class="f4" d="M1512 977 L1435 1054 L1471 1054 L1548 977 Z" /></g><g class="o"><path transform="translate(3,6)" class="S ssh" d="M1011 1219 L1124 1332 L1154 1332 L1041 1219 Z"/><path class="sh5" d="M1011 1219 L1124 1332 L1154 1332 L1041 1219 Z" /></g><g class="o"><path transform="translate(5,10)" class="S ssh" d="M1576 1071 L1723 1218 L1755 1218 L1608 1071 Z"/><path class="sh5" d="M1576 1071 L1723 1218 L1755 1218 L1608 1071 Z" /></g><g class="o"><path transform="translate(5,10)" class="S sfh" d="M2000 1185 L2160 1345 L2176 1345 L2016 1185 Z"/><path class="fh6" d="M2000 1185 L2160 1345 L2176 1345 L2016 1185 Z" /></g><g class="o"><path transform="translate(4,8)" class="S sfv" d="M1192 1511 L1039 1664 L1039 1682 L1192 1529 Z"/><path class="fv3" d="M1192 1511 L1039 1664 L1039 1682 L1192 1529 Z" /></g><g class="o"><path transform="translate(9,18)" class="S ss" d="M1106 1475 L941 1640 L967 1640 L1132 1475 Z"/><path class="s1" d="M1106 1475 L941 1640 L967 1640 L1132 1475 Z" /></g><g class="o"><path transform="translate(6,12)" class="S sfh" d="M1220 1126 L1016 1330 L1034 1330 L1238 1126 Z"/><path class="fh2" d="M1220 1126 L1016 1330 L1034 1330 L1238 1126 Z" /></g><g class="o"><path transform="translate(2,4)" class="S sfh" d="M1570 1687 L1510 1747 L1524 1747 L1584 1687 Z"/><path class="fh6" d="M1570 1687 L1510 1747 L1524 1747 L1584 1687 Z" /></g><g class="o"><path transform="translate(5,10)" class="S sfh" d="M1350 1859 L1260 1949 L1280 1949 L1370 1859 Z"/><path class="fh7" d="M1350 1859 L1260 1949 L1280 1949 L1370 1859 Z" /></g><g class="o"><path transform="translate(4,8)" class="S sf" d="M1438 1665 L1669 1896 L1699 1896 L1468 1665 Z"/><path class="f6" d="M1438 1665 L1669 1896 L1699 1896 L1468 1665 Z" /></g><g class="o"><path transform="translate(6,12)" class="S sf" d="M1058 1603 L1130 1675 L1242 1675 L1170 1603 Z"/><path class="f4" d="M1058 1603 L1130 1675 L1242 1675 L1170 1603 Z" /></g><g class="o"><path transform="translate(4,8)" class="S sfv" d="M2000 1776 L1889 1887 L1889 1901 L2000 1790 Z"/><path class="fv2" d="M2000 1776 L1889 1887 L1889 1901 L2000 1790 Z" /></g><g class="o"><path transform="translate(2,4)" class="S ssv" d="M988 1679 L753 1914 L753 1934 L988 1699 Z"/><path class="sv5" d="M988 1679 L753 1914 L753 1934 L988 1699 Z" /></g><g class="o"><path transform="translate(3,6)" class="S ssh" d="M1180 1578 L1374 1772 L1406 1772 L1212 1578 Z"/><path class="sh1" d="M1180 1578 L1374 1772 L1406 1772 L1212 1578 Z" /></g><g class="o"><path transform="translate(3,6)" class="S sfv" d="M1728 1364 L1615 1477 L1615 1491 L1728 1378 Z"/><path class="fv3" d="M1728 1364 L1615 1477 L1615 1491 L1728 1378 Z" /></g><g class="o"><path transform="translate(3,6)" class="S ssv" d="M1865 1742 L1733 1874 L1733 1910 L1865 1778 Z"/><path class="sv2" d="M1865 1742 L1733 1874 L1733 1910 L1865 1778 Z" /></g><g class="o"><path transform="translate(4,8)" class="S ssv" d="M1797 1320 L1583 1534 L1583 1542 L1797 1328 Z"/><path class="sv3" d="M1797 1320 L1583 1534 L1583 1542 L1797 1328 Z" /></g><g class="o"><path transform="translate(6,12)" class="S sfh" d="M1442 1002 L1332 1112 L1360 1112 L1470 1002 Z"/><path class="fh3" d="M1442 1002 L1332 1112 L1360 1112 L1470 1002 Z" /></g><g class="o"><path transform="translate(6,12)" class="S sfh" d="M1876 1575 L2092 1791 L2114 1791 L1898 1575 Z"/><path class="fh7" d="M1876 1575 L2092 1791 L2114 1791 L1898 1575 Z" /></g><g class="o"><path transform="translate(2,4)" class="S sf" d="M1680 1889 L1853 2062 L1853 2084 L1680 1911 Z"/><path class="f4" d="M1680 1889 L1853 2062 L1853 2084 L1680 1911 Z" /></g><g class="o"><path transform="translate(7,14)" class="S sfh" d="M1092 1983 L892 2183 L916 2183 L1116 1983 Z"/><path class="fh6" d="M1092 1983 L892 2183 L916 2183 L1116 1983 Z" /></g><g class="o"><path transform="translate(6,12)" class="S sf" d="M1549 1990 L1420 2119 L1420 2157 L1549 2028 Z"/><path class="f7" d="M1549 1990 L1420 2119 L1420 2157 L1549 2028 Z" /></g><g class="o"><path transform="translate(2,4)" class="S sf" d="M1256 1411 L1082 1585 L1082 1601 L1256 1427 Z"/><path class="f2" d="M1256 1411 L1082 1585 L1082 1601 L1256 1427 Z" /></g><g class="o"><path transform="translate(5,10)" class="S sfv" d="M1639 1290 L1463 1466 L1463 1504 L1639 1328 Z"/><path class="fv2" d="M1639 1290 L1463 1466 L1463 1504 L1639 1328 Z" /></g><g class="o"><path transform="translate(9,18)" class="S sfh" d="M1361 1131 L1279 1213 L1317 1213 L1399 1131 Z"/><path class="fh1" d="M1361 1131 L1279 1213 L1317 1213 L1399 1131 Z" /></g><g class="o"><path transform="translate(3,6)" class="S sfh" d="M1460 1652 L1630 1822 L1650 1822 L1480 1652 Z"/><path class="fh5" d="M1460 1652 L1630 1822 L1650 1822 L1480 1652 Z" /></g><g class="o"><path transform="translate(6,12)" class="S ssv" d="M1979 1129 L1851 1257 L1851 1277 L1979 1149 Z"/><path class="sv7" d="M1979 1129 L1851 1257 L1851 1277 L1979 1149 Z" /></g><g class="o"><path transform="translate(3,6)" class="S sfh" d="M962 2043 L768 2237 L806 2237 L1000 2043 Z"/><path class="fh6" d="M962 2043 L768 2237 L806 2237 L1000 2043 Z" /></g><g class="o"><path transform="translate(6,12)" class="S sf" d="M1968 1685 L1860 1793 L1888 1793 L1996 1685 Z"/><path class="f1" d="M1968 1685 L1860 1793 L1888 1793 L1996 1685 Z" /></g><g class="o"><path transform="translate(3,6)" class="S sf" d="M1621 1685 L1511 1795 L1511 1805 L1621 1695 Z"/><path class="f1" d="M1621 1685 L1511 1795 L1511 1805 L1621 1695 Z" /></g><g class="o"><path transform="translate(6,12)" class="S ss" d="M1051 1959 L1212 2120 L1212 2142 L1051 1981 Z"/><path class="s4" d="M1051 1959 L1212 2120 L1212 2142 L1051 1981 Z" /></g><g class="o"><path transform="translate(5,10)" class="S sfh" d="M933 1146 L785 1294 L823 1294 L971 1146 Z"/><path class="fh4" d="M933 1146 L785 1294 L823 1294 L971 1146 Z" /></g><g class="o"><path transform="translate(6,12)" class="S sfh" d="M1434 1890 L1270 2054 L1326 2054 L1490 1890 Z"/><path class="fh6" d="M1434 1890 L1270 2054 L1326 2054 L1490 1890 Z" /></g><g class="o"><path transform="translate(9,18)" class="S ss" d="M1830 1592 L1936 1698 L1936 1724 L1830 1618 Z"/><path class="s5" d="M1830 1592 L1936 1698 L1936 1724 L1830 1618 Z" /></g><g class="o"><path transform="translate(2,4)" class="S sfh" d="M1010 1275 L832 1453 L864 1453 L1042 1275 Z"/><path class="fh1" d="M1010 1275 L832 1453 L864 1453 L1042 1275 Z" /></g><g class="o"><path transform="translate(5,10)" class="S sfh" d="M1627 1538 L1791 1702 L1825 1702 L1661 1538 Z"/><path class="fh4" d="M1627 1538 L1791 1702 L1825 1702 L1661 1538 Z" /></g><g class="o"><path transform="translate(6,12)" class="S sf" d="M1082 1670 L980 1772 L980 1796 L1082 1694 Z"/><path class="f4" d="M1082 1670 L980 1772 L980 1796 L1082 1694 Z" /></g><g class="o"><path transform="translate(9,18)" class="S ss" d="M1739 1376 L1935 1572 L1935 1584 L1739 1388 Z"/><path class="s5" d="M1739 1376 L1935 1572 L1935 1584 L1739 1388 Z" /></g><g class="o"><path transform="translate(2,4)" class="S ssv" d="M1594 962 L1489 1067 L1489 1075 L1594 970 Z"/><path class="sv5" d="M1594 962 L1489 1067 L1489 1075 L1594 970 Z" /></g><g class="o"><path transform="translate(7,14)" class="S sfh" d="M1556 1514 L1314 1756 L1328 1756 L1570 1514 Z"/><path class="fh3" d="M1556 1514 L1314 1756 L1328 1756 L1570 1514 Z" /></g><g class="o"><path transform="translate(8,16)" class="S sfv" d="M1018 1369 L1158 1509 L1158 1517 L1018 1377 Z"/><path class="fv6" d="M1018 1369 L1158 1509 L1158 1517 L1018 1377 Z" /></g><g class="o"><path transform="translate(7,14)" class="S sfh" d="M1625 1711 L1471 1865 L1481 1865 L1635 1711 Z"/><path class="fh5" d="M1625 1711 L1471 1865 L1481 1865 L1635 1711 Z" /></g><g class="o"><path transform="translate(7,14)" class="S ssv" d="M1988 1049 L2177 1238 L2177 1276 L1988 1087 Z"/><path class="sv3" d="M1988 1049 L2177 1238 L2177 1276 L1988 1087 Z" /></g><g class="o"><path transform="translate(2,4)" class="S ssv" d="M1288 1951 L1460 2123 L1460 2157 L1288 1985 Z"/><path class="sv7" d="M1288 1951 L1460 2123 L1460 2157 L1288 1985 Z" /></g><g class="o"><path transform="translate(2,4)" class="S sfh" d="M1737 2015 L1660 2092 L1674 2092 L1751 2015 Z"/><path class="fh4" d="M1737 2015 L1660 2092 L1674 2092 L1751 2015 Z" /></g><g class="o"><path transform="translate(9,18)" class="S sfv" d="M1863 977 L1777 1063 L1777 1095 L1863 1009 Z"/><path class="fv7" d="M1863 977 L1777 1063 L1777 1095 L1863 1009 Z" /></g><g class="o"><path transform="translate(7,14)" class="S sfh" d="M2025 1517 L1790 1752 L1814 1752 L2049 1517 Z"/><path class="fh3" d="M2025 1517 L1790 1752 L1814 1752 L2049 1517 Z" /></g><g class="o"><path transform="translate(9,18)" class="S sfh" d="M1325 1189 L1462 1326 L1482 1326 L1345 1189 Z"/><path class="fh4" d="M1325 1189 L1462 1326 L1482 1326 L1345 1189 Z" /></g><g class="o"><path transform="translate(9,18)" class="S sfv" d="M1418 1326 L1589 1497 L1589 1527 L1418 1356 Z"/><path class="fv1" d="M1418 1326 L1589 1497 L1589 1527 L1418 1356 Z" /></g><g class="o"><path transform="translate(9,18)" class="S sfh" d="M1700 1320 L1510 1510 L1528 1510 L1718 1320 Z"/><path class="fh1" d="M1700 1320 L1510 1510 L1528 1510 L1718 1320 Z" /></g><g class="o"><path transform="translate(8,16)" class="S sfh" d="M1706 1824 L1943 2061 L1955 2061 L1718 1824 Z"/><path class="fh7" d="M1706 1824 L1943 2061 L1955 2061 L1718 1824 Z" /></g><g class="o"><path transform="translate(2,4)" class="S sfv" d="M1768 994 L1701 1061 L1701 1079 L1768 1012 Z"/><path class="fv3" d="M1768 994 L1701 1061 L1701 1079 L1768 1012 Z" /></g><g class="o"><path transform="translate(7,14)" class="S sfh" d="M1668 1361 L1597 1432 L1605 1432 L1676 1361 Z"/><path class="fh1" d="M1668 1361 L1597 1432 L1605 1432 L1676 1361 Z" /></g><g class="o"><path transform="translate(8,16)" class="S ssh" d="M1525 1470 L1676 1621 L1724 1621 L1573 1470 Z"/><path class="sh5" d="M1525 1470 L1676 1621 L1724 1621 L1573 1470 Z" /></g><g class="o"><path transform="translate(9,18)" class="S sf" d="M1054 1029 L1139 1114 L1139 1124 L1054 1039 Z"/><path class="f5" d="M1054 1029 L1139 1114 L1139 1124 L1054 1039 Z" /></g><g class="o"><path transform="translate(7,14)" class="S sf" d="M1307 1295 L1234 1368 L1264 1368 L1337 1295 Z"/><path class="f6" d="M1307 1295 L1234 1368 L1264 1368 L1337 1295 Z" /></g><g class="o"><path transform="translate(4,8)" class="S ssh" d="M1066 1614 L1195 1743 L1229 1743 L1100 1614 Z"/><path class="sh1" d="M1066 1614 L1195 1743 L1229 1743 L1100 1614 Z" /></g><g class="o"><path transform="translate(9,18)" class="S sf" d="M1857 1684 L1674 1867 L1706 1867 L1889 1684 Z"/><path class="f6" d="M1857 1684 L1674 1867 L1706 1867 L1889 1684 Z" /></g><g class="o"><path transform="translate(2,4)" class="S sfh" d="M1647 1175 L1788 1316 L1796 1316 L1655 1175 Z"/><path class="fh2" d="M1647 1175 L1788 1316 L1796 1316 L1655 1175 Z" /></g><g class="o"><path transform="translate(5,10)" class="S sfh" d="M1584 1641 L1742 1799 L1750 1799 L1592 1641 Z"/><path class="fh5" d="M1584 1641 L1742 1799 L1750 1799 L1592 1641 Z" /></g><g class="o"><path transform="translate(5,10)" class="S sf" d="M1921 1048 L1831 1138 L1831 1160 L1921 1070 Z"/><path class="f5" d="M1921 1048 L1831 1138 L1831 1160 L1921 1070 Z" /></g><g class="o"><path transform="translate(3,6)" class="S sfh" d="M1644 1208 L1858 1422 L1890 1422 L1676 1208 Z"/><path class="fh7" d="M1644 1208 L1858 1422 L1890 1422 L1676 1208 Z" /></g><g class="o"><path transform="translate(7,14)" class="S sf" d="M1634 1849 L1395 2088 L1395 2108 L1634 1869 Z"/><path class="f6" d="M1634 1849 L1395 2088 L1395 2108 L1634 1869 Z" /></g><g class="o"><path transform="translate(2,4)" class="S sfv" d="M1159 1183 L1252 1276 L1252 1300 L1159 1207 Z"/><path class="fv7" d="M1159 1183 L1252 1276 L1252 1300 L1159 1207 Z" /></g><g class="o"><path transform="translate(2,4)" class="S sfh" d="M1218 1205 L1405 1392 L1439 1392 L1252 1205 Z"/><path class="fh6" d="M1218 1205 L1405 1392 L1439 1392 L1252 1205 Z" /></g><g class="o"><path transform="translate(5,10)" class="S ssh" d="M1575 1458 L1510 1523 L1542 1523 L1607 1458 Z"/><path class="sh3" d="M1575 1458 L1510 1523 L1542 1523 L1607 1458 Z" /></g><g class="o"><path transform="translate(7,14)" class="S ssv" d="M1843 1302 L1909 1368 L1909 1380 L1843 1314 Z"/><path class="sv5" d="M1843 1302 L1909 1368 L1909 1380 L1843 1314 Z" /></g><g class="o"><path transform="translate(9,18)" class="S sfh" d="M1815 1878 L1593 2100 L1623 2100 L1845 1878 Z"/><path class="fh7" d="M1815 1878 L1593 2100 L1623 2100 L1845 1878 Z" /></g><g class="o"><path transform="translate(7,14)" class="S sfh" d="M1002 1098 L765 1335 L785 1335 L1022 1098 Z"/><path class="fh1" d="M1002 1098 L765 1335 L785 1335 L1022 1098 Z" /></g><g class="o"><path transform="translate(3,6)" class="S sf" d="M1524 1915 L1668 2059 L1696 2059 L1552 1915 Z"/><path class="f3" d="M1524 1915 L1668 2059 L1696 2059 L1552 1915 Z" /></g><g class="o"><path transform="translate(6,12)" class="S sfh" d="M1952 1202 L1797 1357 L1821 1357 L1976 1202 Z"/><path class="fh7" d="M1952 1202 L1797 1357 L1821 1357 L1976 1202 Z" /></g><g class="o"><path transform="translate(7,14)" class="S sfh" d="M1162 1478 L965 1675 L995 1675 L1192 1478 Z"/><path class="fh4" d="M1162 1478 L965 1675 L995 1675 L1192 1478 Z" /></g><g class="o"><path transform="translate(9,18)" class="S sfv" d="M1243 2012 L1390 2159 L1390 2175 L1243 2028 Z"/><path class="fv7" d="M1243 2012 L1390 2159 L1390 2175 L1243 2028 Z" /></g><g class="o"><path transform="translate(8,16)" class="S sfv" d="M1474 1204 L1364 1314 L1364 1352 L1474 1242 Z"/><path class="fv1" d="M1474 1204 L1364 1314 L1364 1352 L1474 1242 Z" /></g><g class="o"><path transform="translate(7,14)" class="S ss" d="M1102 1336 L1229 1463 L1229 1495 L1102 1368 Z"/><path class="s6" d="M1102 1336 L1229 1463 L1229 1495 L1102 1368 Z" /></g><g class="o"><path transform="translate(6,12)" class="S sfh" d="M1347 1319 L1500 1472 L1528 1472 L1375 1319 Z"/><path class="fh4" d="M1347 1319 L1500 1472 L1528 1472 L1375 1319 Z" /></g><g class="o"><path transform="translate(5,10)" class="S sfv" d="M1890 1048 L1832 1106 L1832 1124 L1890 1066 Z"/><path class="fv4" d="M1890 1048 L1832 1106 L1832 1124 L1890 1066 Z" /></g><g class="o"><path transform="translate(3,6)" class="S sf" d="M1309 988 L1499 1178 L1563 1178 L1373 988 Z"/><path class="f6" d="M1309 988 L1499 1178 L1563 1178 L1373 988 Z" /></g><g class="o"><path transform="translate(7,14)" class="S sfh" d="M1193 1287 L1087 1393 L1113 1393 L1219 1287 Z"/><path class="fh5" d="M1193 1287 L1087 1393 L1113 1393 L1219 1287 Z" /></g><g class="o"><path transform="translate(3,6)" class="S ssh" d="M1478 1501 L1392 1587 L1420 1587 L1506 1501 Z"/><path class="sh4" d="M1478 1501 L1392 1587 L1420 1587 L1506 1501 Z" /></g><g class="o"><path transform="translate(7,14)" class="S sfv" d="M1064 1015 L1155 1106 L1155 1136 L1064 1045 Z"/><path class="fv7" d="M1064 1015 L1155 1106 L1155 1136 L1064 1045 Z" /></g><g class="o"><path transform="translate(5,10)" class="S sfh" d="M1336 1006 L1204 1138 L1212 1138 L1344 1006 Z"/><path class="fh6" d="M1336 1006 L1204 1138 L1212 1138 L1344 1006 Z" /></g><g class="o"><path transform="translate(2,4)" class="S sfv" d="M1329 1749 L1131 1947 L1131 1971 L1329 1773 Z"/><path class="fv6" d="M1329 1749 L1131 1947 L1131 1971 L1329 1773 Z" /></g><g class="o"><path transform="translate(8,16)" class="S sf" d="M2004 1345 L2059 1400 L2059 1434 L2004 1379 Z"/><path class="f3" d="M2004 1345 L2059 1400 L2059 1434 L2004 1379 Z" /></g><g class="o"><path transform="translate(7,14)" class="S ss" d="M1057 1177 L897 1337 L897 1349 L1057 1189 Z"/><path class="s1" d="M1057 1177 L897 1337 L897 1349 L1057 1189 Z" /></g><g class="o"><path transform="translate(2,4)" class="S sfv" d="M1742 1299 L1801 1358 L1801 1376 L1742 1317 Z"/><path class="fv6" d="M1742 1299 L1801 1358 L1801 1376 L1742 1317 Z" /></g><g class="o"><path transform="translate(2,4)" class="S ssh" d="M1530 1941 L1325 2146 L1445 2146 L1650 1941 Z"/><path class="sh4" d="M1530 1941 L1325 2146 L1445 2146 L1650 1941 Z" /></g><g class="o"><path transform="translate(6,12)" class="S sf" d="M1880 1599 L1669 1810 L1681 1810 L1892 1599 Z"/><path class="f6" d="M1880 1599 L1669 1810 L1681 1810 L1892 1599 Z" /></g><g class="o"><path transform="translate(3,6)" class="S ssv" d="M1890 1623 L2064 1797 L2064 1835 L1890 1661 Z"/><path class="sv4" d="M1890 1623 L2064 1797 L2064 1835 L1890 1661 Z" /></g><g class="o"><path transform="translate(7,14)" class="S sfv" d="M1099 1034 L971 1162 L971 1170 L1099 1042 Z"/><path class="fv2" d="M1099 1034 L971 1162 L971 1170 L1099 1042 Z" /></g><g class="o"><path transform="translate(2,4)" class="S sfh" d="M1824 1132 L1582 1374 L1606 1374 L1848 1132 Z"/><path class="fh6" d="M1824 1132 L1582 1374 L1606 1374 L1848 1132 Z" /></g><g class="o"><path transform="translate(3,6)" class="S sfh" d="M1822 1366 L2034 1578 L2068 1578 L1856 1366 Z"/><path class="fh3" d="M1822 1366 L2034 1578 L2068 1578 L1856 1366 Z" /></g><g class="o"><path transform="translate(5,10)" class="S sfv" d="M1263 1391 L1141 1513 L1141 1523 L1263 1401 Z"/><path class="fv3" d="M1263 1391 L1141 1513 L1141 1523 L1263 1401 Z" /></g><g class="o"><path transform="translate(2,4)" class="S sf" d="M1252 1969 L1169 2052 L1199 2052 L1282 1969 Z"/><path class="f5" d="M1252 1969 L1169 2052 L1199 2052 L1282 1969 Z" /></g><g class="o"><path transform="translate(6,12)" class="S ssh" d="M1267 1492 L1157 1602 L1195 1602 L1305 1492 Z"/><path class="sh4" d="M1267 1492 L1157 1602 L1195 1602 L1305 1492 Z" /></g><g class="o"><path transform="translate(3,6)" class="S ssh" d="M1967 1969 L2159 2161 L2175 2161 L1983 1969 Z"/><path class="sh2" d="M1967 1969 L2159 2161 L2175 2161 L1983 1969 Z" /></g><g class="o"><path transform="translate(6,12)" class="S sf" d="M1069 959 L913 1115 L939 1115 L1095 959 Z"/><path class="f1" d="M1069 959 L913 1115 L939 1115 L1095 959 Z" /></g><g class="o"><path transform="translate(8,16)" class="S ssv" d="M1747 1431 L1605 1573 L1605 1607 L1747 1465 Z"/><path class="sv1" d="M1747 1431 L1605 1573 L1605 1607 L1747 1465 Z" /></g><g class="o"><path transform="translate(2,4)" class="S sfv" d="M1643 1552 L1699 1608 L1699 1644 L1643 1588 Z"/><path class="fv4" d="M1643 1552 L1699 1608 L1699 1644 L1643 1588 Z" /></g><g class="o"><path transform="translate(9,18)" class="S sfv" d="M1183 886 L1006 1063 L1006 1215 L1183 1038 Z"/><path class="fv6" d="M1183 886 L1006 1063 L1006 1215 L1183 1038 Z" /></g><g class="o"><path transform="translate(2,4)" class="S sfv" d="M1425 1021 L1309 1137 L1309 1149 L1425 1033 Z"/><path class="fv1" d="M1425 1021 L1309 1137 L1309 1149 L1425 1033 Z" /></g><g class="o"><path transform="translate(9,18)" class="S sfv" d="M1345 944 L1566 1165 L1566 1177 L1345 956 Z"/><path class="fv2" d="M1345 944 L1566 1165 L1566 1177 L1345 956 Z" /></g><g class="o"><path transform="translate(3,6)" class="S ssv" d="M1128 1816 L1192 1880 L1192 1918 L1128 1854 Z"/><path class="sv6" d="M1128 1816 L1192 1880 L1192 1918 L1128 1854 Z" /></g><g class="o"><path transform="translate(9,18)" class="S sfv" d="M1085 1449 L1213 1577 L1213 1607 L1085 1479 Z"/><path class="fv3" d="M1085 1449 L1213 1577 L1213 1607 L1085 1479 Z" /></g><g class="o"><path transform="translate(7,14)" class="S sfv" d="M1965 1450 L1834 1581 L1834 1617 L1965 1486 Z"/><path class="fv1" d="M1965 1450 L1834 1581 L1834 1617 L1965 1486 Z" /></g><g class="o"><path transform="translate(9,18)" class="S sf" d="M1918 1017 L1752 1183 L1784 1183 L1950 1017 Z"/><path class="f5" d="M1918 1017 L1752 1183 L1784 1183 L1950 1017 Z" /></g><g class="o"><path transform="translate(3,6)" class="S sfv" d="M1386 1563 L1581 1758 L1581 1774 L1386 1579 Z"/><path class="fv3" d="M1386 1563 L1581 1758 L1581 1774 L1386 1579 Z" /></g><g class="o"><path transform="translate(3,6)" class="S sfv" d="M1290 1092 L1189 1193 L1189 1225 L1290 1124 Z"/><path class="fv2" d="M1290 1092 L1189 1193 L1189 1225 L1290 1124 Z" /></g><g class="o"><path transform="translate(9,18)" class="S sfh" d="M1783 1015 L1854 1086 L1890 1086 L1819 1015 Z"/><path class="fh3" d="M1783 1015 L1854 1086 L1890 1086 L1819 1015 Z" /></g><g class="o"><path transform="translate(3,6)" class="S ssv" d="M1623 1150 L1812 1339 L1812 1349 L1623 1160 Z"/><path class="sv3" d="M1623 1150 L1812 1339 L1812 1349 L1623 1160 Z" /></g><g class="o"><path transform="translate(5,10)" class="S sfh" d="M1568 1452 L1644 1528 L1658 1528 L1582 1452 Z"/><path class="fh7" d="M1568 1452 L1644 1528 L1658 1528 L1582 1452 Z" /></g><g class="o"><path transform="translate(7,14)" class="S sfv" d="M1719 1056 L1632 1143 L1632 1163 L1719 1076 Z"/><path class="fv5" d="M1719 1056 L1632 1143 L1632 1163 L1719 1076 Z" /></g><g class="o"><path transform="translate(6,12)" class="S sfh" d="M1848 1242 L1651 1439 L1665 1439 L1862 1242 Z"/><path class="fh2" d="M1848 1242 L1651 1439 L1665 1439 L1862 1242 Z" /></g><g class="o"><path transform="translate(5,10)" class="S ss" d="M1147 2019 L978 2188 L998 2188 L1167 2019 Z"/><path class="s6" d="M1147 2019 L978 2188 L998 2188 L1167 2019 Z" /></g><g class="o"><path transform="translate(4,8)" class="S sfv" d="M1034 1988 L902 2120 L902 2134 L1034 2002 Z"/><path class="fv2" d="M1034 1988 L902 2120 L902 2134 L1034 2002 Z" /></g><g class="o"><path transform="translate(2,4)" class="S sfv" d="M1366 1479 L1532 1645 L1532 1653 L1366 1487 Z"/><path class="fv6" d="M1366 1479 L1532 1645 L1532 1653 L1366 1487 Z" /></g><g class="o"><path transform="translate(5,10)" class="S sf" d="M941 1147 L993 1199 L1023 1199 L971 1147 Z"/><path class="f3" d="M941 1147 L993 1199 L1023 1199 L971 1147 Z" /></g><g class="o"><path transform="translate(4,8)" class="S sfh" d="M1960 1035 L2054 1129 L2062 1129 L1968 1035 Z"/><path class="fh4" d="M1960 1035 L2054 1129 L2062 1129 L1968 1035 Z" /></g><g class="o"><path transform="translate(8,16)" class="S ssh" d="M1274 1578 L1466 1770 L1498 1770 L1306 1578 Z"/><path class="sh5" d="M1274 1578 L1466 1770 L1498 1770 L1306 1578 Z" /></g><g class="o"><path transform="translate(3,6)" class="S sfh" d="M1951 1940 L1814 2077 L1840 2077 L1977 1940 Z"/><path class="fh5" d="M1951 1940 L1814 2077 L1840 2077 L1977 1940 Z" /></g><g class="o"><path transform="translate(6,12)" class="S sfh" d="M1273 1454 L1103 1624 L1135 1624 L1305 1454 Z"/><path class="fh5" d="M1273 1454 L1103 1624 L1135 1624 L1305 1454 Z" /></g><g class="o"><path transform="translate(8,16)" class="S sfh" d="M1665 1791 L1557 1899 L1593 1899 L1701 1791 Z"/><path class="fh3" d="M1665 1791 L1557 1899 L1593 1899 L1701 1791 Z" /></g><g class="o"><path transform="translate(5,10)" class="S sf" d="M1134 1270 L1200 1336 L1200 1346 L1134 1280 Z"/><path class="f2" d="M1134 1270 L1200 1336 L1200 1346 L1134 1280 Z" /></g><g class="o"><path transform="translate(4,8)" class="S sfv" d="M1649 1673 L1720 1744 L1720 1774 L1649 1703 Z"/><path class="fv6" d="M1649 1673 L1720 1744 L1720 1774 L1649 1703 Z" /></g></g><use href="#slashes" transform-origin="1500 1500" transform="rotate(180) scale(2)"/></g><rect x="1080" y="1080" width="840" height="840" stroke-width="20" class="o s7" /><use href="#slashes" transform-origin="1500 1500" transform="scale(.3)"/><use href="#slashes" transform-origin="1500 1500" transform="rotate(180) scale(.7)"/></svg>