<svg xmlns="http://www.w3.org/2000/svg" viewBox="750 750 1500 1500"><style>/*<![CDATA[*/svg{background:rgb(27,152,224);max-width:100vw;max-height:100vh}path{stroke-width:4}.o{opacity:.75}.S{opacity:.4}.sf{stroke:none;fill:black}.sfh{stroke:none;fill:url(#hs)}.sfv{stroke:none;fill:url(#vs)}.ss{stroke:black;fill:none}.ssh{stroke:url(#hs);fill:none}.ssv{stroke:url(#vs);fill:none}.s1{fill:none;stroke:rgb(36,123,160)}.f1{stroke:none;fill:rgb(36,123,160)}.sh1{fill:none;stroke:url(#h1)}.fh1{stroke:none;fill:url(#h1)}.sv1{fill:none;stroke:url(#v1)}.fv1{stroke:none;fill:url(#v1)}.s2{fill:none;stroke:rgb(232,241,242)}.f2{stroke:none;fill:rgb(232,241,242)}.sh2{fill:none;stroke:url(#h2)}.fh2{stroke:none;fill:url(#h2)}.sv2{fill:none;stroke:url(#v2)}.fv2{stroke:none;fill:url(#v2)}.s3{fill:none;stroke:rgb(34,34,34)}.f3{stroke:none;fill:rgb(34,34,34)}.sh3{fill:none;stroke:url(#h3)}.fh3{stroke:none;fill:url(#h3)}.sv3{fill:none;stroke:url(#v3)}.fv3{stroke:none;fill:url(#v3)}.s4{fill:none;stroke:rgb(0,100,148)}.f4{stroke:none;fill:rgb(0,100,148)}.sh4{fill:none;stroke:url(#h4)}.fh4{stroke:none;fill:url(#h4)}.sv4{fill:none;stroke:url(#v4)}.fv4{stroke:none;fill:url(#v4)}.s5{fill:none;stroke:rgb(19,41,61)}.f5{stroke:none;fill:rgb(19,41,61)}.sh5{fill:none;stroke:url(#h5)}.fh5{stroke:none;fill:url(#h5)}.sv5{fill:none;stroke:url(#v5)}.fv5{stroke:none;fill:url(#v5)}.s6{fill:none;stroke:rgb(255,255,255)}.f6{stroke:none;fill:rgb(255,255,255)}.sh6{fill:none;stroke:url(#h6)}.fh6{stroke:none;fill:url(#h6)}.sv6{fill:none;stroke:url(#v6)}.fv6{stroke:none;fill:url(#v6)}.s7{fill:none;stroke:rgb(255,0,0)}.f7{stroke:none;fill:rgb(255,0,0)}.sh7{fill:none;stroke:url(#h7)}.fh7{stroke:none;fill:url(#h7)}.sv7{fill:none;stroke:url(#v7)}.fv7{stroke:none;fill:url(#v7)}/*]]>*/</style><defs><linearGradient gradientTransform="rotate(90)" id="hs"><stop offset="20%" stop-color="#000" /><stop offset="95%" stop-color="rgba(0, 0, 0, 0)" /></linearGradient><linearGradient id="vs"><stop offset="20%" stop-color="#000" /><stop offset="95%" stop-color="rgba(0, 0, 0, 0)" /></linearGradient><linearGradient gradientTransform="rotate(90)" id="h1"><stop offset="20%" stop-color="rgba(36,123,160,1)" /><stop offset="95%" stop-color="rgba(36,123,160,0)" /></linearGradient><linearGradient id="v1"><stop offset="20%" stop-color="rgba(36,123,160,1)" /><stop offset="95%" stop-color="rgba(36,123,160,0)" /></linearGradient><linearGradient gradientTransform="rotate(90)" id="h2"><stop offset="20%" stop-color="rgba(232,241,242,1)" /><stop offset="95%" stop-color="rgba(232,241,242,0)" /></linearGradient><linearGradient id="v2"><stop offset="20%" stop-color="rgba(232,241,242,1)" /><stop offset="95%" stop-color="rgba(232,241,242,0)" /></linearGradient><linearGradient gradientTransform="rotate(90)" id="h3"><stop offset="20%" stop-color="rgba(34,34,34,1)" /><stop offset="95%" stop-color="rgba(34,34,34,0)" /></linearGradient><linearGradient id="v3"><stop offset="20%" stop-color="rgba(34,34,34,1)" /><stop offset="95%" stop-color="rgba(34,34,34,0)" /></linearGradient><linearGradient gradientTransform="rotate(90)" id="h4"><stop offset="20%" stop-color="rgba(0,100,148,1)" /><stop offset="95%" stop-color="rgba(0,100,148,0)" /></linearGradient><linearGradient id="v4"><stop offset="20%" stop-color="rgba(0,100,148,1)" /><stop offset="95%" stop-color="rgba(0,100,148,0)" /></linearGradient><linearGradient gradientTransform="rotate(90)" id="h5"><stop offset="20%" stop-color="rgba(19,41,61,1)" /><stop offset="95%" stop-color="rgba(19,41,61,0)" /></linearGradient><linearGradient id="v5"><stop offset="20%" stop-color="rgba(19,41,61,1)" /><stop offset="95%" stop-color="rgba(19,41,61,0)" /></linearGradient><linearGradient gradientTransform="rotate(90)" id="h6"><stop offset="20%" stop-color="rgba(255,255,255,1)" /><stop offset="95%" stop-color="rgba(255,255,255,0)" /></linearGradient><linearGradient id="v6"><stop offset="20%" stop-color="rgba(255,255,255,1)" /><stop offset="95%" stop-color="rgba(255,255,255,0)" /></linearGradient><linearGradient gradientTransform="rotate(90)" id="h7"><stop offset="20%" stop-color="rgba(255,0,0,1)" /><stop offset="95%" stop-color="rgba(255,0,0,0)" /></linearGradient><linearGradient id="v7"><stop offset="20%" stop-color="rgba(255,0,0,1)" /><stop offset="95%" stop-color="rgba(255,0,0,0)" /></linearGradient></defs><g transform-origin="1500 1500" transform="scale(2)" opacity=".2"><g id="slashes"><g class="o"><path transform="translate(8,16)" class="S ssv" d="M1185 1738 L1356 1909 L1356 2013 L1185 1842 Z"/><path class="sv6" d="M1185 1738 L1356 1909 L1356 2013 L1185 1842 Z" /></g><g class="o"><path transform="translate(5,10)" class="S sf" d="M2012 1652 L2152 1512 L2152 1526 L2012 1666 Z"/><path class="f5" d="M2012 1652 L2152 1512 L2152 1526 L2012 1666 Z" /></g><g class="o"><path transform="translate(8,16)" class="S sf" d="M1746 1534 L2349 2137 L2387 2137 L1784 1534 Z"/><path class="f4" d="M1746 1534 L2349 2137 L2387 2137 L1784 1534 Z" /></g><g class="o"><path transform="translate(5,10)" class="S ssv" d="M1201 1882 L953 2130 L953 2168 L1201 1920 Z"/><path class="sv4" d="M1201 1882 L953 2130 L953 2168 L1201 1920 Z" /></g><g class="o"><path transform="translate(9,18)" class="S sfv" d="M1683 1168 L1469 954 L1469 968 L1683 1182 Z"/><path class="fv7" d="M1683 1168 L1469 954 L1469 968 L1683 1182 Z" /></g><g class="o"><path transform="translate(3,6)" class="S sf" d="M1962 1929 L1854 2037 L1854 2051 L1962 1943 Z"/><path class="f4" d="M1962 1929 L1854 2037 L1854 2051 L1962 1943 Z" /></g><g class="o"><path transform="translate(9,18)" class="S sfh" d="M1795 1813 L1933 1675 L1971 1675 L1833 1813 Z"/><path class="fh7" d="M1795 1813 L1933 1675 L1971 1675 L1833 1813 Z" /></g><g class="o"><path transform="translate(6,12)" class="S sfh" d="M1362 1771 L1959 2368 L1985 2368 L1388 1771 Z"/><path class="fh7" d="M1362 1771 L1959 2368 L1985 2368 L1388 1771 Z" /></g><g class="o"><path transform="translate(2,4)" class="S sfv" d="M1754 1388 L1619 1253 L1619 1365 L1754 1500 Z"/><path class="fv3" d="M1754 1388 L1619 1253 L1619 1365 L1754 1500 Z" /></g><g class="o"><path transform="translate(2,4)" class="S sfv" d="M1865 2015 L1953 1927 L1953 1957 L1865 2045 Z"/><path class="fv2" d="M1865 2015 L1953 1927 L1953 1957 L1865 2045 Z" /></g><g class="o"><path transform="translate(8,16)" class="S sfh" d="M1984 954 L1888 858 L1968 858 L2064 954 Z"/><path class="fh1" d="M1984 954 L1888 858 L1968 858 L2064 954 Z" /></g><g class="o"><path transform="translate(9,18)" class="S sfh" d="M1408 2009 L1274 2143 L1296 2143 L1430 2009 Z"/><path class="fh1" d="M1408 2009 L1274 2143 L1296 2143 L1430 2009 Z" /></g><g class="o"><path transform="translate(5,10)" class="S ssv" d="M1653 1497 L1515 1635 L1515 1643 L1653 1505 Z"/><path class="sv6" d="M1653 1497 L1515 1635 L1515 1643 L1653 1505 Z" /></g><g class="o"><path transform="translate(2,4)" class="S ss" d="M1310 1613 L1155 1768 L1155 1778 L1310 1623 Z"/><path class="s1" d="M1310 1613 L1155 1768 L1155 1778 L1310 1623 Z" /></g><g class="o"><path transform="translate(6,12)" class="S sfv" d="M1441 1408 L1540 1309 L1540 1337 L1441 1436 Z"/><path class="fv2" d="M1441 1408 L1540 1309 L1540 1337 L1441 1436 Z" /></g><g class="o"><path transform="translate(6,12)" class="S sfh" d="M1624 1140 L1413 929 L1425 929 L1636 1140 Z"/><path class="fh7" d="M1624 1140 L1413 929 L1425 929 L1636 1140 Z" /></g><g class="o"><path transform="translate(3,6)" class="S sfh" d="M1102 1136 L1486 752 L1514 752 L1130 1136 Z"/><path class="fh3" d="M1102 1136 L1486 752 L1514 752 L1130 1136 Z" /></g><g class="o"><path transform="translate(9,18)" class="S sfh" d="M1144 1187 L1197 1134 L1229 1134 L1176 1187 Z"/><path class="fh1" d="M1144 1187 L1197 1134 L1229 1134 L1176 1187 Z" /></g><g class="o"><path transform="translate(3,6)" class="S ssh" d="M1469 1570 L1363 1676 L1389 1676 L1495 1570 Z"/><path class="sh1" d="M1469 1570 L1363 1676 L1389 1676 L1495 1570 Z" /></g><g class="o"><path transform="translate(6,12)" class="S ssv" d="M1644 1423 L1846 1221 L1846 1293 L1644 1495 Z"/><path class="sv1" d="M1644 1423 L1846 1221 L1846 1293 L1644 1495 Z" /></g><g class="o"><path transform="translate(3,6)" class="S sfh" d="M2028 1829 L1849 1650 L1883 1650 L2062 1829 Z"/><path class="fh6" d="M2028 1829 L1849 1650 L1883 1650 L2062 1829 Z" /></g><g class="o"><path transform="translate(6,12)" class="S sfv" d="M1320 1588 L1471 1437 L1471 1573 L1320 1724 Z"/><path class="fv6" d="M1320 1588 L1471 1437 L1471 1573 L1320 1724 Z" /></g><g class="o"><path transform="translate(3,6)" class="S ssv" d="M987 1083 L862 958 L862 1078 L987 1203 Z"/><path class="sv4" d="M987 1083 L862 958 L862 1078 L987 1203 Z" /></g><g class="o"><path transform="translate(3,6)" class="S sf" d="M1992 1997 L1869 1874 L1869 1882 L1992 2005 Z"/><path class="f1" d="M1992 1997 L1869 1874 L1869 1882 L1992 2005 Z" /></g><g class="o"><path transform="translate(5,10)" class="S ssh" d="M1247 1159 L1189 1217 L1207 1217 L1265 1159 Z"/><path class="sh1" d="M1247 1159 L1189 1217 L1207 1217 L1265 1159 Z" /></g><g class="o"><path transform="translate(3,6)" class="S sfv" d="M1987 1873 L1906 1792 L1906 1804 L1987 1885 Z"/><path class="fv3" d="M1987 1873 L1906 1792 L1906 1804 L1987 1885 Z" /></g><g class="o"><path transform="translate(6,12)" class="S ss" d="M1783 1310 L1627 1154 L1627 1202 L1783 1358 Z"/><path class="s4" d="M1783 1310 L1627 1154 L1627 1202 L1783 1358 Z" /></g><g class="o"><path transform="translate(8,16)" class="S sfv" d="M1480 1376 L1204 1652 L1204 1670 L1480 1394 Z"/><path class="fv3" d="M1480 1376 L1204 1652 L1204 1670 L1480 1394 Z" /></g><g class="o"><path transform="translate(4,8)" class="S sfh" d="M1589 1505 L1793 1301 L1811 1301 L1607 1505 Z"/><path class="fh4" d="M1589 1505 L1793 1301 L1811 1301 L1607 1505 Z" /></g><g class="o"><path transform="translate(4,8)" class="S sfv" d="M1425 1383 L1989 819 L1989 843 L1425 1407 Z"/><path class="fv5" d="M1425 1383 L1989 819 L1989 843 L1425 1407 Z" /></g><g class="o"><path transform="translate(4,8)" class="S sfh" d="M1423 1805 L1951 1277 L2055 1277 L1527 1805 Z"/><path class="fh1" d="M1423 1805 L1951 1277 L2055 1277 L1527 1805 Z" /></g><g class="o"><path transform="translate(8,16)" class="S sfh" d="M1687 1389 L1507 1209 L1537 1209 L1717 1389 Z"/><path class="fh6" d="M1687 1389 L1507 1209 L1537 1209 L1717 1389 Z" /></g><g class="o"><path transform="translate(8,16)" class="S ssh" d="M1548 1957 L1634 2043 L1658 2043 L1572 1957 Z"/><path class="sh6" d="M1548 1957 L1634 2043 L1658 2043 L1572 1957 Z" /></g><g class="o"><path transform="translate(4,8)" class="S sf" d="M1821 1184 L1752 1115 L1752 1135 L1821 1204 Z"/><path class="f4" d="M1821 1184 L1752 1115 L1752 1135 L1821 1204 Z" /></g><g class="o"><path transform="translate(8,16)" class="S sfh" d="M1739 1681 L1850 1570 L1888 1570 L1777 1681 Z"/><path class="fh1" d="M1739 1681 L1850 1570 L1888 1570 L1777 1681 Z" /></g><g class="o"><path transform="translate(2,4)" class="S ssh" d="M1306 991 L1440 857 L1450 857 L1316 991 Z"/><path class="sh4" d="M1306 991 L1440 857 L1450 857 L1316 991 Z" /></g><g class="o"><path transform="translate(4,8)" class="S sfv" d="M1208 994 L1347 855 L1347 871 L1208 1010 Z"/><path class="fv5" d="M1208 994 L1347 855 L1347 871 L1208 1010 Z" /></g><g class="o"><path transform="translate(9,18)" class="S sfh" d="M1187 1147 L533 493 L597 493 L1251 1147 Z"/><path class="fh3" d="M1187 1147 L533 493 L597 493 L1251 1147 Z" /></g><g class="o"><path transform="translate(5,10)" class="S sfh" d="M1717 1147 L1786 1078 L1834 1078 L1765 1147 Z"/><path class="fh5" d="M1717 1147 L1786 1078 L1834 1078 L1765 1147 Z" /></g><g class="o"><path transform="translate(8,16)" class="S sfv" d="M1327 987 L1732 582 L1732 622 L1327 1027 Z"/><path class="fv1" d="M1327 987 L1732 582 L1732 622 L1327 1027 Z" /></g><g class="o"><path transform="translate(3,6)" class="S sfv" d="M1758 1123 L1657 1224 L1657 1240 L1758 1139 Z"/><path class="fv6" d="M1758 1123 L1657 1224 L1657 1240 L1758 1139 Z" /></g><g class="o"><path transform="translate(7,14)" class="S ssh" d="M1708 1806 L1838 1676 L1868 1676 L1738 1806 Z"/><path class="sh6" d="M1708 1806 L1838 1676 L1868 1676 L1738 1806 Z" /></g><g class="o"><path transform="translate(9,18)" class="S sf" d="M1188 1698 L1310 1820 L1310 1850 L1188 1728 Z"/><path class="f5" d="M1188 1698 L1310 1820 L1310 1850 L1188 1728 Z" /></g><g class="o"><path transform="translate(7,14)" class="S sfh" d="M1247 1145 L1494 898 L1590 898 L1343 1145 Z"/><path class="fh3" d="M1247 1145 L1494 898 L1590 898 L1343 1145 Z" /></g><g class="o"><path transform="translate(7,14)" class="S sfh" d="M1838 2032 L1178 1372 L1204 1372 L1864 2032 Z"/><path class="fh3" d="M1838 2032 L1178 1372 L1204 1372 L1864 2032 Z" /></g><g class="o"><path transform="translate(2,4)" class="S ssh" d="M1434 1034 L2010 458 L2146 458 L1570 1034 Z"/><path class="sh1" d="M1434 1034 L2010 458 L2146 458 L1570 1034 Z" /></g><g class="o"><path transform="translate(9,18)" class="S sfv" d="M1488 1955 L1608 1835 L1608 1855 L1488 1975 Z"/><path class="fv5" d="M1488 1955 L1608 1835 L1608 1855 L1488 1975 Z" /></g><g class="o"><path transform="translate(3,6)" class="S sfv" d="M1517 1169 L1319 1367 L1319 1407 L1517 1209 Z"/><path class="fv7" d="M1517 1169 L1319 1367 L1319 1407 L1517 1209 Z" /></g><g class="o"><path transform="translate(5,10)" class="S sfv" d="M1780 1741 L1692 1653 L1692 1681 L1780 1769 Z"/><path class="fv1" d="M1780 1741 L1692 1653 L1692 1681 L1780 1769 Z" /></g><g class="o"><path transform="translate(7,14)" class="S ssh" d="M1637 1943 L1703 2009 L1731 2009 L1665 1943 Z"/><path class="sh4" d="M1637 1943 L1703 2009 L1731 2009 L1665 1943 Z" /></g><g class="o"><path transform="translate(9,18)" class="S sfh" d="M945 972 L893 920 L1045 920 L1097 972 Z"/><path class="fh6" d="M945 972 L893 920 L1045 920 L1097 972 Z" /></g><g class="o"><path transform="translate(8,16)" class="S sf" d="M1438 1352 L1536 1450 L1672 1450 L1574 1352 Z"/><path class="f4" d="M1438 1352 L1536 1450 L1672 1450 L1574 1352 Z" /></g><g class="o"><path transform="translate(9,18)" class="S sfh" d="M1006 1689 L1229 1466 L1317 1466 L1094 1689 Z"/><path class="fh1" d="M1006 1689 L1229 1466 L1317 1466 L1094 1689 Z" /></g><g class="o"><path transform="translate(8,16)" class="S sf" d="M1929 1785 L2125 1589 L2161 1589 L1965 1785 Z"/><path class="f5" d="M1929 1785 L2125 1589 L2161 1589 L1965 1785 Z" /></g><g class="o"><path transform="translate(3,6)" class="S sfv" d="M1314 1221 L1181 1354 L1181 1378 L1314 1245 Z"/><path class="fv7" d="M1314 1221 L1181 1354 L1181 1378 L1314 1245 Z" /></g><g class="o"><path transform="translate(2,4)" class="S sfh" d="M949 1771 L1065 1655 L1169 1655 L1053 1771 Z"/><path class="fh4" d="M949 1771 L1065 1655 L1169 1655 L1053 1771 Z" /></g><g class="o"><path transform="translate(9,18)" class="S sf" d="M1468 1043 L1681 830 L1689 830 L1476 1043 Z"/><path class="f3" d="M1468 1043 L1681 830 L1689 830 L1476 1043 Z" /></g><g class="o"><path transform="translate(6,12)" class="S sfh" d="M1298 1825 L1471 1998 L1575 1998 L1402 1825 Z"/><path class="fh2" d="M1298 1825 L1471 1998 L1575 1998 L1402 1825 Z" /></g><g class="o"><path transform="translate(8,16)" class="S sf" d="M1966 1233 L1765 1434 L1777 1434 L1978 1233 Z"/><path class="f4" d="M1966 1233 L1765 1434 L1777 1434 L1978 1233 Z" /></g><g class="o"><path transform="translate(6,12)" class="S sfv" d="M1826 1226 L1651 1051 L1651 1079 L1826 1254 Z"/><path class="fv7" d="M1826 1226 L1651 1051 L1651 1079 L1826 1254 Z" /></g><g class="o"><path transform="translate(5,10)" class="S sfh" d="M1895 1234 L2097 1436 L2249 1436 L2047 1234 Z"/><path class="fh6" d="M1895 1234 L2097 1436 L2249 1436 L2047 1234 Z" /></g><g class="o"><path transform="translate(7,14)" class="S ss" d="M1797 1541 L1852 1596 L1852 1618 L1797 1563 Z"/><path class="s4" d="M1797 1541 L1852 1596 L1852 1618 L1797 1563 Z" /></g><g class="o"><path transform="translate(4,8)" class="S ssv" d="M1837 1380 L2110 1107 L2110 1119 L1837 1392 Z"/><path class="sv5" d="M1837 1380 L2110 1107 L2110 1119 L1837 1392 Z" /></g><g class="o"><path transform="translate(7,14)" class="S ssh" d="M1681 1988 L1868 1801 L1884 1801 L1697 1988 Z"/><path class="sh5" d="M1681 1988 L1868 1801 L1884 1801 L1697 1988 Z" /></g><g class="o"><path transform="translate(4,8)" class="S sfv" d="M1722 988 L1572 1138 L1572 1176 L1722 1026 Z"/><path class="fv7" d="M1722 988 L1572 1138 L1572 1176 L1722 1026 Z" /></g><g class="o"><path transform="translate(6,12)" class="S sf" d="M987 1086 L930 1143 L946 1143 L1003 1086 Z"/><path class="f3" d="M987 1086 L930 1143 L946 1143 L1003 1086 Z" /></g><g class="o"><path transform="translate(2,4)" class="S ssh" d="M1358 1878 L815 2421 L837 2421 L1380 1878 Z"/><path class="sh6" d="M1358 1878 L815 2421 L837 2421 L1380 1878 Z" /></g><g class="o"><path transform="translate(7,14)" class="S sf" d="M1823 1070 L1889 1004 L1889 1030 L1823 1096 Z"/><path class="f6" d="M1823 1070 L1889 1004 L1889 1030 L1823 1096 Z" /></g><g class="o"><path transform="translate(3,6)" class="S sfv" d="M1820 1605 L1535 1890 L1535 1898 L1820 1613 Z"/><path class="fv2" d="M1820 1605 L1535 1890 L1535 1898 L1820 1613 Z" /></g><g class="o"><path transform="translate(2,4)" class="S sfv" d="M1684 1659 L1633 1608 L1633 1618 L1684 1669 Z"/><path class="fv5" d="M1684 1659 L1633 1608 L1633 1618 L1684 1669 Z" /></g><g class="o"><path transform="translate(5,10)" class="S sf" d="M1520 1558 L1641 1437 L1777 1437 L1656 1558 Z"/><path class="f4" d="M1520 1558 L1641 1437 L1777 1437 L1656 1558 Z" /></g><g class="o"><path transform="translate(6,12)" class="S ssh" d="M1880 1321 L1743 1458 L1765 1458 L1902 1321 Z"/><path class="sh7" d="M1880 1321 L1743 1458 L1765 1458 L1902 1321 Z" /></g><g class="o"><path transform="translate(6,12)" class="S ssv" d="M1197 1409 L1397 1209 L1397 1225 L1197 1425 Z"/><path class="sv2" d="M1197 1409 L1397 1209 L1397 1225 L1197 1425 Z" /></g><g class="o"><path transform="translate(7,14)" class="S sfh" d="M1663 1546 L1427 1782 L1547 1782 L1783 1546 Z"/><path class="fh2" d="M1663 1546 L1427 1782 L1547 1782 L1783 1546 Z" /></g><g class="o"><path transform="translate(6,12)" class="S sfh" d="M1019 1261 L878 1402 L1022 1402 L1163 1261 Z"/><path class="fh5" d="M1019 1261 L878 1402 L1022 1402 L1163 1261 Z" /></g><g class="o"><path transform="translate(2,4)" class="S sfh" d="M1376 1246 L1931 1801 L1965 1801 L1410 1246 Z"/><path class="fh2" d="M1376 1246 L1931 1801 L1965 1801 L1410 1246 Z" /></g><g class="o"><path transform="translate(2,4)" class="S sfh" d="M1872 1110 L2103 1341 L2151 1341 L1920 1110 Z"/><path class="fh5" d="M1872 1110 L2103 1341 L2151 1341 L1920 1110 Z" /></g><g class="o"><path transform="translate(2,4)" class="S sfh" d="M1103 1694 L1313 1484 L1333 1484 L1123 1694 Z"/><path class="fh2" d="M1103 1694 L1313 1484 L1333 1484 L1123 1694 Z" /></g><g class="o"><path transform="translate(7,14)" class="S ssv" d="M1229 1842 L1338 1733 L1338 1745 L1229 1854 Z"/><path class="sv5" d="M1229 1842 L1338 1733 L1338 1745 L1229 1854 Z" /></g><g class="o"><path transform="translate(3,6)" class="S sf" d="M976 1400 L622 1754 L634 1754 L988 1400 Z"/><path class="f7" d="M976 1400 L622 1754 L634 1754 L988 1400 Z" /></g><g class="o"><path transform="translate(2,4)" class="S sfv" d="M1391 1264 L896 1759 L896 1911 L1391 1416 Z"/><path class="fv7" d="M1391 1264 L896 1759 L896 1911 L1391 1416 Z" /></g><g class="o"><path transform="translate(5,10)" class="S sf" d="M1072 1159 L586 673 L586 753 L1072 1239 Z"/><path class="f5" d="M1072 1159 L586 673 L586 753 L1072 1239 Z" /></g><g class="o"><path transform="translate(3,6)" class="S sfh" d="M1008 1550 L1395 1163 L1427 1163 L1040 1550 Z"/><path class="fh4" d="M1008 1550 L1395 1163 L1427 1163 L1040 1550 Z" /></g><g class="o"><path transform="translate(3,6)" class="S sfv" d="M1323 1887 L1486 1724 L1486 1736 L1323 1899 Z"/><path class="fv4" d="M1323 1887 L1486 1724 L1486 1736 L1323 1899 Z" /></g><g class="o"><path transform="translate(9,18)" class="S sfv" d="M1476 1959 L1697 2180 L1697 2218 L1476 1997 Z"/><path class="fv3" d="M1476 1959 L1697 2180 L1697 2218 L1476 1997 Z" /></g><g class="o"><path transform="translate(6,12)" class="S sfh" d="M1081 1760 L999 1842 L1013 1842 L1095 1760 Z"/><path class="fh4" d="M1081 1760 L999 1842 L1013 1842 L1095 1760 Z" /></g><g class="o"><path transform="translate(7,14)" class="S sfh" d="M1806 1235 L2045 1474 L2061 1474 L1822 1235 Z"/><path class="fh1" d="M1806 1235 L2045 1474 L2061 1474 L1822 1235 Z" /></g><g class="o"><path transform="translate(9,18)" class="S sfh" d="M1891 1864 L2077 2050 L2173 2050 L1987 1864 Z"/><path class="fh4" d="M1891 1864 L2077 2050 L2173 2050 L1987 1864 Z" /></g><g class="o"><path transform="translate(7,14)" class="S sfh" d="M1959 1893 L2134 1718 L2286 1718 L2111 1893 Z"/><path class="fh5" d="M1959 1893 L2134 1718 L2286 1718 L2111 1893 Z" /></g><g class="o"><path transform="translate(9,18)" class="S ssh" d="M915 1697 L1086 1868 L1238 1868 L1067 1697 Z"/><path class="sh5" d="M915 1697 L1086 1868 L1238 1868 L1067 1697 Z" /></g><g class="o"><path transform="translate(6,12)" class="S sfv" d="M1279 1861 L1212 1794 L1212 1804 L1279 1871 Z"/><path class="fv3" d="M1279 1861 L1212 1794 L1212 1804 L1279 1871 Z" /></g><g class="o"><path transform="translate(5,10)" class="S sf" d="M1820 1805 L1535 2090 L1563 2090 L1848 1805 Z"/><path class="f6" d="M1820 1805 L1535 2090 L1563 2090 L1848 1805 Z" /></g><g class="o"><path transform="translate(6,12)" class="S sfv" d="M1922 1622 L2027 1727 L2027 1807 L1922 1702 Z"/><path class="fv1" d="M1922 1622 L2027 1727 L2027 1807 L1922 1702 Z" /></g><g class="o"><path transform="translate(7,14)" class="S sfv" d="M1711 1680 L1581 1810 L1581 1906 L1711 1776 Z"/><path class="fv5" d="M1711 1680 L1581 1810 L1581 1906 L1711 1776 Z" /></g><g class="o"><path transform="translate(4,8)" class="S sfh" d="M1067 1604 L1250 1421 L1258 1421 L1075 1604 Z"/><path class="fh5" d="M1067 1604 L1250 1421 L1258 1421 L1075 1604 Z" /></g><g class="o"><path transform="translate(4,8)" class="S sf" d="M1147 1092 L1298 1243 L1336 1243 L1185 1092 Z"/><path class="f3" d="M1147 1092 L1298 1243 L1336 1243 L1185 1092 Z" /></g><g class="o"><path transform="translate(9,18)" class="S sf" d="M1637 1505 L1505 1373 L1505 1421 L1637 1553 Z"/><path class="f4" d="M1637 1505 L1505 1373 L1505 1421 L1637 1553 Z" /></g><g class="o"><path transform="translate(4,8)" class="S sf" d="M1603 1752 L1291 1440 L1313 1440 L1625 1752 Z"/><path class="f4" d="M1603 1752 L1291 1440 L1313 1440 L1625 1752 Z" /></g><g class="o"><path transform="translate(6,12)" class="S sfh" d="M1789 967 L1869 1047 L1887 1047 L1807 967 Z"/><path class="fh7" d="M1789 967 L1869 1047 L1887 1047 L1807 967 Z" /></g><g class="o"><path transform="translate(8,16)" class="S sfv" d="M1505 1074 L1448 1131 L1448 1243 L1505 1186 Z"/><path class="fv5" d="M1505 1074 L1448 1131 L1448 1243 L1505 1186 Z" /></g><g class="o"><path transform="translate(2,4)" class="S sf" d="M1206 1490 L1411 1695 L1459 1695 L1254 1490 Z"/><path class="f3" d="M1206 1490 L1411 1695 L1459 1695 L1254 1490 Z" /></g><g class="o"><path transform="translate(2,4)" class="S sfv" d="M1890 1711 L2078 1523 L2078 1553 L1890 1741 Z"/><path class="fv5" d="M1890 1711 L2078 1523 L2078 1553 L1890 1741 Z" /></g><g class="o"><path transform="translate(4,8)" class="S ssh" d="M1094 1842 L1168 1916 L1224 1916 L1150 1842 Z"/><path class="sh3" d="M1094 1842 L1168 1916 L1224 1916 L1150 1842 Z" /></g><g class="o"><path transform="translate(3,6)" class="S ssh" d="M1719 1827 L1470 1578 L1590 1578 L1839 1827 Z"/><path class="sh6" d="M1719 1827 L1470 1578 L1590 1578 L1839 1827 Z" /></g><g class="o"><path transform="translate(8,16)" class="S sfh" d="M1459 1277 L1299 1437 L1317 1437 L1477 1277 Z"/><path class="fh5" d="M1459 1277 L1299 1437 L1317 1437 L1477 1277 Z" /></g><g class="o"><path transform="translate(3,6)" class="S sfh" d="M1392 1478 L1470 1556 L1486 1556 L1408 1478 Z"/><path class="fh4" d="M1392 1478 L1470 1556 L1486 1556 L1408 1478 Z" /></g><g class="o"><path transform="translate(3,6)" class="S ssh" d="M1937 1220 L1832 1115 L1862 1115 L1967 1220 Z"/><path class="sh7" d="M1937 1220 L1832 1115 L1862 1115 L1967 1220 Z" /></g><g class="o"><path transform="translate(8,16)" class="S ssh" d="M1624 1571 L1813 1382 L1957 1382 L1768 1571 Z"/><path class="sh3" d="M1624 1571 L1813 1382 L1957 1382 L1768 1571 Z" /></g><g class="o"><path transform="translate(2,4)" class="S sfv" d="M1189 1948 L953 2184 L953 2222 L1189 1986 Z"/><path class="fv3" d="M1189 1948 L953 2184 L953 2222 L1189 1986 Z" /></g><g class="o"><path transform="translate(4,8)" class="S sf" d="M1848 1930 L1920 1858 L1942 1858 L1870 1930 Z"/><path class="f5" d="M1848 1930 L1920 1858 L1942 1858 L1870 1930 Z" /></g><g class="o"><path transform="translate(8,16)" class="S ss" d="M1394 1271 L761 638 L761 658 L1394 1291 Z"/><path class="s7" d="M1394 1271 L761 638 L761 658 L1394 1291 Z" /></g><g class="o"><path transform="translate(2,4)" class="S sfh" d="M1378 1555 L1000 1177 L1008 1177 L1386 1555 Z"/><path class="fh3" d="M1378 1555 L1000 1177 L1008 1177 L1386 1555 Z" /></g><g class="o"><path transform="translate(8,16)" class="S ssv" d="M1171 1052 L754 635 L754 663 L1171 1080 Z"/><path class="sv2" d="M1171 1052 L754 635 L754 663 L1171 1080 Z" /></g><g class="o"><path transform="translate(2,4)" class="S sfh" d="M1054 1350 L1137 1267 L1163 1267 L1080 1350 Z"/><path class="fh5" d="M1054 1350 L1137 1267 L1163 1267 L1080 1350 Z" /></g><g class="o"><path transform="translate(5,10)" class="S ssh" d="M991 1818 L1138 1671 L1150 1671 L1003 1818 Z"/><path class="sh7" d="M991 1818 L1138 1671 L1150 1671 L1003 1818 Z" /></g><g class="o"><path transform="translate(4,8)" class="S sf" d="M1416 2035 L1505 2124 L1649 2124 L1560 2035 Z"/><path class="f4" d="M1416 2035 L1505 2124 L1649 2124 L1560 2035 Z" /></g><g class="o"><path transform="translate(5,10)" class="S sfh" d="M1814 1634 L2042 1862 L2186 1862 L1958 1634 Z"/><path class="fh5" d="M1814 1634 L2042 1862 L2186 1862 L1958 1634 Z" /></g><g class="o"><path transform="translate(8,16)" class="S ssh" d="M1895 1079 L2132 1316 L2152 1316 L1915 1079 Z"/><path class="sh5" d="M1895 1079 L2132 1316 L2152 1316 L1915 1079 Z" /></g><g class="o"><path transform="translate(7,14)" class="S sfv" d="M1663 1312 L1509 1158 L1509 1188 L1663 1342 Z"/><path class="fv4" d="M1663 1312 L1509 1158 L1509 1188 L1663 1342 Z" /></g><g class="o"><path transform="translate(5,10)" class="S sfh" d="M1857 1941 L2055 1743 L2093 1743 L1895 1941 Z"/><path class="fh4" d="M1857 1941 L2055 1743 L2093 1743 L1895 1941 Z" /></g></g><use href="#slashes" transform-origin="1500 1500" transform="rotate(180) scale(2)"/></g><rect x="1080" y="1080" width="840" height="840" stroke-width="160" class="o ss" /><use href="#slashes" transform-origin="1500 1500" transform="scale(.7)"/><use href="#slashes" transform-origin="1500 1500" transform="rotate(180) scale(.3)"/></svg>