<svg xmlns="http://www.w3.org/2000/svg" viewBox="750 750 1500 1500"><style>/*<![CDATA[*/svg{background:rgb(6,174,213);max-width:100vw;max-height:100vh}path{stroke-width:4}.o{opacity:.75}.S{opacity:.4}.sf{stroke:none;fill:black}.sfh{stroke:none;fill:url(#hs)}.sfv{stroke:none;fill:url(#vs)}.ss{stroke:black;fill:none}.ssh{stroke:url(#hs);fill:none}.ssv{stroke:url(#vs);fill:none}.s1{fill:none;stroke:rgb(8,103,136)}.f1{stroke:none;fill:rgb(8,103,136)}.sh1{fill:none;stroke:url(#h1)}.fh1{stroke:none;fill:url(#h1)}.sv1{fill:none;stroke:url(#v1)}.fv1{stroke:none;fill:url(#v1)}.s2{fill:none;stroke:rgb(221,28,26)}.f2{stroke:none;fill:rgb(221,28,26)}.sh2{fill:none;stroke:url(#h2)}.fh2{stroke:none;fill:url(#h2)}.sv2{fill:none;stroke:url(#v2)}.fv2{stroke:none;fill:url(#v2)}.s3{fill:none;stroke:rgb(48,48,48)}.f3{stroke:none;fill:rgb(48,48,48)}.sh3{fill:none;stroke:url(#h3)}.fh3{stroke:none;fill:url(#h3)}.sv3{fill:none;stroke:url(#v3)}.fv3{stroke:none;fill:url(#v3)}.s4{fill:none;stroke:rgb(34,34,34)}.f4{stroke:none;fill:rgb(34,34,34)}.sh4{fill:none;stroke:url(#h4)}.fh4{stroke:none;fill:url(#h4)}.sv4{fill:none;stroke:url(#v4)}.fv4{stroke:none;fill:url(#v4)}.s5{fill:none;stroke:rgb(204,204,204)}.f5{stroke:none;fill:rgb(204,204,204)}.sh5{fill:none;stroke:url(#h5)}.fh5{stroke:none;fill:url(#h5)}.sv5{fill:none;stroke:url(#v5)}.fv5{stroke:none;fill:url(#v5)}.s6{fill:none;stroke:rgb(255,255,255)}.f6{stroke:none;fill:rgb(255,255,255)}.sh6{fill:none;stroke:url(#h6)}.fh6{stroke:none;fill:url(#h6)}.sv6{fill:none;stroke:url(#v6)}.fv6{stroke:none;fill:url(#v6)}.s7{fill:none;stroke:rgb(255,255,0)}.f7{stroke:none;fill:rgb(255,255,0)}.sh7{fill:none;stroke:url(#h7)}.fh7{stroke:none;fill:url(#h7)}.sv7{fill:none;stroke:url(#v7)}.fv7{stroke:none;fill:url(#v7)}/*]]>*/</style><defs><linearGradient gradientTransform="rotate(90)" id="hs"><stop offset="20%" stop-color="#000" /><stop offset="95%" stop-color="rgba(0, 0, 0, 0)" /></linearGradient><linearGradient id="vs"><stop offset="20%" stop-color="#000" /><stop offset="95%" stop-color="rgba(0, 0, 0, 0)" /></linearGradient><linearGradient gradientTransform="rotate(90)" id="h1"><stop offset="20%" stop-color="rgba(8,103,136,1)" /><stop offset="95%" stop-color="rgba(8,103,136,0)" /></linearGradient><linearGradient id="v1"><stop offset="20%" stop-color="rgba(8,103,136,1)" /><stop offset="95%" stop-color="rgba(8,103,136,0)" /></linearGradient><linearGradient gradientTransform="rotate(90)" id="h2"><stop offset="20%" stop-color="rgba(221,28,26,1)" /><stop offset="95%" stop-color="rgba(221,28,26,0)" /></linearGradient><linearGradient id="v2"><stop offset="20%" stop-color="rgba(221,28,26,1)" /><stop offset="95%" stop-color="rgba(221,28,26,0)" /></linearGradient><linearGradient gradientTransform="rotate(90)" id="h3"><stop offset="20%" stop-color="rgba(48,48,48,1)" /><stop offset="95%" stop-color="rgba(48,48,48,0)" /></linearGradient><linearGradient id="v3"><stop offset="20%" stop-color="rgba(48,48,48,1)" /><stop offset="95%" stop-color="rgba(48,48,48,0)" /></linearGradient><linearGradient gradientTransform="rotate(90)" id="h4"><stop offset="20%" stop-color="rgba(34,34,34,1)" /><stop offset="95%" stop-color="rgba(34,34,34,0)" /></linearGradient><linearGradient id="v4"><stop offset="20%" stop-color="rgba(34,34,34,1)" /><stop offset="95%" stop-color="rgba(34,34,34,0)" /></linearGradient><linearGradient gradientTransform="rotate(90)" id="h5"><stop offset="20%" stop-color="rgba(204,204,204,1)" /><stop offset="95%" stop-color="rgba(204,204,204,0)" /></linearGradient><linearGradient id="v5"><stop offset="20%" stop-color="rgba(204,204,204,1)" /><stop offset="95%" stop-color="rgba(204,204,204,0)" /></linearGradient><linearGradient gradientTransform="rotate(90)" id="h6"><stop offset="20%" stop-color="rgba(255,255,255,1)" /><stop offset="95%" stop-color="rgba(255,255,255,0)" /></linearGradient><linearGradient id="v6"><stop offset="20%" stop-color="rgba(255,255,255,1)" /><stop offset="95%" stop-color="rgba(255,255,255,0)" /></linearGradient><linearGradient gradientTransform="rotate(90)" id="h7"><stop offset="20%" stop-color="rgba(255,255,0,1)" /><stop offset="95%" stop-color="rgba(255,255,0,0)" /></linearGradient><linearGradient id="v7"><stop offset="20%" stop-color="rgba(255,255,0,1)" /><stop offset="95%" stop-color="rgba(255,255,0,0)" /></linearGradient></defs><g transform-origin="1500 1500" transform="scale(2)" opacity=".2"><g id="slashes"><g class="o"><path transform="translate(3,6)" class="S sf" d="M1344 1762 L1155 1573 L1185 1573 L1374 1762 Z"/><path class="f7" d="M1344 1762 L1155 1573 L1185 1573 L1374 1762 Z" /></g><g class="o"><path transform="translate(2,4)" class="S sf" d="M1578 1206 L1476 1104 L1476 1116 L1578 1218 Z"/><path class="f5" d="M1578 1206 L1476 1104 L1476 1116 L1578 1218 Z" /></g><g class="o"><path transform="translate(8,16)" class="S sf" d="M1236 1579 L1118 1461 L1148 1461 L1266 1579 Z"/><path class="f7" d="M1236 1579 L1118 1461 L1148 1461 L1266 1579 Z" /></g><g class="o"><path transform="translate(7,14)" class="S sfh" d="M1967 1913 L1860 2020 L1896 2020 L2003 1913 Z"/><path class="fh2" d="M1967 1913 L1860 2020 L1896 2020 L2003 1913 Z" /></g><g class="o"><path transform="translate(6,12)" class="S sfv" d="M1137 1779 L968 1610 L968 1620 L1137 1789 Z"/><path class="fv4" d="M1137 1779 L968 1610 L968 1620 L1137 1789 Z" /></g><g class="o"><path transform="translate(9,18)" class="S sfh" d="M1713 1063 L1500 850 L1516 850 L1729 1063 Z"/><path class="fh3" d="M1713 1063 L1500 850 L1516 850 L1729 1063 Z" /></g><g class="o"><path transform="translate(8,16)" class="S sfh" d="M1908 1197 L1720 1385 L1736 1385 L1924 1197 Z"/><path class="fh1" d="M1908 1197 L1720 1385 L1736 1385 L1924 1197 Z" /></g><g class="o"><path transform="translate(5,10)" class="S sfv" d="M990 1123 L495 1618 L495 1628 L990 1133 Z"/><path class="fv6" d="M990 1123 L495 1618 L495 1628 L990 1133 Z" /></g><g class="o"><path transform="translate(2,4)" class="S sfh" d="M1598 1625 L1500 1723 L1518 1723 L1616 1625 Z"/><path class="fh6" d="M1598 1625 L1500 1723 L1518 1723 L1616 1625 Z" /></g><g class="o"><path transform="translate(5,10)" class="S sfh" d="M1363 1572 L655 864 L663 864 L1371 1572 Z"/><path class="fh7" d="M1363 1572 L655 864 L663 864 L1371 1572 Z" /></g><g class="o"><path transform="translate(8,16)" class="S sf" d="M1749 1086 L1503 1332 L1503 1344 L1749 1098 Z"/><path class="f4" d="M1749 1086 L1503 1332 L1503 1344 L1749 1098 Z" /></g><g class="o"><path transform="translate(5,10)" class="S sfv" d="M1660 1587 L1357 1284 L1357 1304 L1660 1607 Z"/><path class="fv6" d="M1660 1587 L1357 1284 L1357 1304 L1660 1607 Z" /></g><g class="o"><path transform="translate(9,18)" class="S ssv" d="M2017 2009 L1759 2267 L1759 2295 L2017 2037 Z"/><path class="sv4" d="M2017 2009 L1759 2267 L1759 2295 L2017 2037 Z" /></g><g class="o"><path transform="translate(4,8)" class="S sfv" d="M1870 1726 L1294 2302 L1294 2326 L1870 1750 Z"/><path class="fv3" d="M1870 1726 L1294 2302 L1294 2326 L1870 1750 Z" /></g><g class="o"><path transform="translate(4,8)" class="S sfh" d="M1627 1783 L1471 1627 L1503 1627 L1659 1783 Z"/><path class="fh1" d="M1627 1783 L1471 1627 L1503 1627 L1659 1783 Z" /></g><g class="o"><path transform="translate(4,8)" class="S sf" d="M1493 1238 L1284 1447 L1284 1463 L1493 1254 Z"/><path class="f6" d="M1493 1238 L1284 1447 L1284 1463 L1493 1254 Z" /></g><g class="o"><path transform="translate(9,18)" class="S ssh" d="M1691 1562 L1535 1718 L1549 1718 L1705 1562 Z"/><path class="sh5" d="M1691 1562 L1535 1718 L1549 1718 L1705 1562 Z" /></g><g class="o"><path transform="translate(5,10)" class="S sfh" d="M1476 1229 L1377 1130 L1389 1130 L1488 1229 Z"/><path class="fh2" d="M1476 1229 L1377 1130 L1389 1130 L1488 1229 Z" /></g><g class="o"><path transform="translate(9,18)" class="S sfv" d="M991 1852 L310 1171 L310 1207 L991 1888 Z"/><path class="fv5" d="M991 1852 L310 1171 L310 1207 L991 1888 Z" /></g><g class="o"><path transform="translate(4,8)" class="S sfv" d="M1234 1205 L1108 1079 L1108 1087 L1234 1213 Z"/><path class="fv5" d="M1234 1205 L1108 1079 L1108 1087 L1234 1213 Z" /></g><g class="o"><path transform="translate(2,4)" class="S ssh" d="M1209 1163 L951 905 L973 905 L1231 1163 Z"/><path class="sh5" d="M1209 1163 L951 905 L973 905 L1231 1163 Z" /></g><g class="o"><path transform="translate(4,8)" class="S sfh" d="M1771 1336 L1057 2050 L1069 2050 L1783 1336 Z"/><path class="fh2" d="M1771 1336 L1057 2050 L1069 2050 L1783 1336 Z" /></g><g class="o"><path transform="translate(9,18)" class="S sfv" d="M1803 2004 L1488 2319 L1488 2337 L1803 2022 Z"/><path class="fv4" d="M1803 2004 L1488 2319 L1488 2337 L1803 2022 Z" /></g><g class="o"><path transform="translate(8,16)" class="S ssh" d="M1284 1136 L1135 987 L1145 987 L1294 1136 Z"/><path class="sh4" d="M1284 1136 L1135 987 L1145 987 L1294 1136 Z" /></g><g class="o"><path transform="translate(6,12)" class="S sfv" d="M1642 1922 L1312 1592 L1312 1602 L1642 1932 Z"/><path class="fv3" d="M1642 1922 L1312 1592 L1312 1602 L1642 1932 Z" /></g><g class="o"><path transform="translate(6,12)" class="S sfv" d="M1341 2006 L1216 2131 L1216 2159 L1341 2034 Z"/><path class="fv2" d="M1341 2006 L1216 2131 L1216 2159 L1341 2034 Z" /></g><g class="o"><path transform="translate(6,12)" class="S sfh" d="M1173 1476 L1004 1645 L1026 1645 L1195 1476 Z"/><path class="fh1" d="M1173 1476 L1004 1645 L1026 1645 L1195 1476 Z" /></g><g class="o"><path transform="translate(4,8)" class="S sfv" d="M1131 1902 L1044 1815 L1044 1825 L1131 1912 Z"/><path class="fv1" d="M1131 1902 L1044 1815 L1044 1825 L1131 1912 Z" /></g><g class="o"><path transform="translate(6,12)" class="S sfh" d="M1768 1813 L1648 1693 L1682 1693 L1802 1813 Z"/><path class="fh3" d="M1768 1813 L1648 1693 L1682 1693 L1802 1813 Z" /></g><g class="o"><path transform="translate(9,18)" class="S sfh" d="M1086 1469 L964 1591 L990 1591 L1112 1469 Z"/><path class="fh3" d="M1086 1469 L964 1591 L990 1591 L1112 1469 Z" /></g><g class="o"><path transform="translate(9,18)" class="S ssh" d="M1155 1257 L1063 1349 L1073 1349 L1165 1257 Z"/><path class="sh2" d="M1155 1257 L1063 1349 L1073 1349 L1165 1257 Z" /></g><g class="o"><path transform="translate(9,18)" class="S sfh" d="M1800 1849 L1608 2041 L1616 2041 L1808 1849 Z"/><path class="fh4" d="M1800 1849 L1608 2041 L1616 2041 L1808 1849 Z" /></g><g class="o"><path transform="translate(9,18)" class="S sfv" d="M1229 1635 L866 1272 L866 1290 L1229 1653 Z"/><path class="fv7" d="M1229 1635 L866 1272 L866 1290 L1229 1653 Z" /></g><g class="o"><path transform="translate(6,12)" class="S sfh" d="M2028 1673 L1885 1816 L1921 1816 L2064 1673 Z"/><path class="fh1" d="M2028 1673 L1885 1816 L1921 1816 L2064 1673 Z" /></g><g class="o"><path transform="translate(9,18)" class="S ssv" d="M1450 1375 L1138 1063 L1138 1095 L1450 1407 Z"/><path class="sv2" d="M1450 1375 L1138 1063 L1138 1095 L1450 1407 Z" /></g><g class="o"><path transform="translate(5,10)" class="S sfh" d="M1626 1473 L1496 1343 L1516 1343 L1646 1473 Z"/><path class="fh6" d="M1626 1473 L1496 1343 L1516 1343 L1646 1473 Z" /></g><g class="o"><path transform="translate(9,18)" class="S sf" d="M1346 1851 L1112 1617 L1112 1641 L1346 1875 Z"/><path class="f3" d="M1346 1851 L1112 1617 L1112 1641 L1346 1875 Z" /></g><g class="o"><path transform="translate(2,4)" class="S ssh" d="M1356 1437 L1032 1113 L1050 1113 L1374 1437 Z"/><path class="sh5" d="M1356 1437 L1032 1113 L1050 1113 L1374 1437 Z" /></g><g class="o"><path transform="translate(2,4)" class="S sfh" d="M938 951 L721 734 L753 734 L970 951 Z"/><path class="fh4" d="M938 951 L721 734 L753 734 L970 951 Z" /></g><g class="o"><path transform="translate(6,12)" class="S sfh" d="M1174 1097 L775 698 L795 698 L1194 1097 Z"/><path class="fh3" d="M1174 1097 L775 698 L795 698 L1194 1097 Z" /></g><g class="o"><path transform="translate(5,10)" class="S sfh" d="M1680 1446 L1519 1607 L1533 1607 L1694 1446 Z"/><path class="fh2" d="M1680 1446 L1519 1607 L1533 1607 L1694 1446 Z" /></g><g class="o"><path transform="translate(4,8)" class="S sfh" d="M1571 1216 L1052 697 L1078 697 L1597 1216 Z"/><path class="fh4" d="M1571 1216 L1052 697 L1078 697 L1597 1216 Z" /></g><g class="o"><path transform="translate(9,18)" class="S sfv" d="M1458 1458 L1292 1624 L1292 1642 L1458 1476 Z"/><path class="fv6" d="M1458 1458 L1292 1624 L1292 1642 L1458 1476 Z" /></g><g class="o"><path transform="translate(4,8)" class="S ssv" d="M1605 1632 L1368 1869 L1368 1895 L1605 1658 Z"/><path class="sv3" d="M1605 1632 L1368 1869 L1368 1895 L1605 1658 Z" /></g><g class="o"><path transform="translate(6,12)" class="S ssh" d="M1374 1015 L741 1648 L771 1648 L1404 1015 Z"/><path class="sh2" d="M1374 1015 L741 1648 L771 1648 L1404 1015 Z" /></g><g class="o"><path transform="translate(7,14)" class="S sfh" d="M1329 1717 L1171 1875 L1187 1875 L1345 1717 Z"/><path class="fh4" d="M1329 1717 L1171 1875 L1187 1875 L1345 1717 Z" /></g><g class="o"><path transform="translate(2,4)" class="S sfh" d="M1362 2025 L1214 1877 L1246 1877 L1394 2025 Z"/><path class="fh3" d="M1362 2025 L1214 1877 L1246 1877 L1394 2025 Z" /></g><g class="o"><path transform="translate(2,4)" class="S sf" d="M1264 1766 L1051 1979 L1073 1979 L1286 1766 Z"/><path class="f7" d="M1264 1766 L1051 1979 L1073 1979 L1286 1766 Z" /></g><g class="o"><path transform="translate(3,6)" class="S sfv" d="M1927 1489 L1822 1594 L1822 1622 L1927 1517 Z"/><path class="fv7" d="M1927 1489 L1822 1594 L1822 1622 L1927 1517 Z" /></g><g class="o"><path transform="translate(4,8)" class="S sf" d="M1847 1635 L1731 1751 L1731 1769 L1847 1653 Z"/><path class="f7" d="M1847 1635 L1731 1751 L1731 1769 L1847 1653 Z" /></g><g class="o"><path transform="translate(8,16)" class="S ssv" d="M1177 1783 L1001 1607 L1001 1619 L1177 1795 Z"/><path class="sv6" d="M1177 1783 L1001 1607 L1001 1619 L1177 1795 Z" /></g><g class="o"><path transform="translate(8,16)" class="S sf" d="M1702 1088 L1454 840 L1454 866 L1702 1114 Z"/><path class="f4" d="M1702 1088 L1454 840 L1454 866 L1702 1114 Z" /></g><g class="o"><path transform="translate(9,18)" class="S sf" d="M1532 1987 L1431 2088 L1431 2098 L1532 1997 Z"/><path class="f2" d="M1532 1987 L1431 2088 L1431 2098 L1532 1997 Z" /></g><g class="o"><path transform="translate(4,8)" class="S sfh" d="M1642 1904 L1404 2142 L1436 2142 L1674 1904 Z"/><path class="fh7" d="M1642 1904 L1404 2142 L1436 2142 L1674 1904 Z" /></g><g class="o"><path transform="translate(5,10)" class="S sfh" d="M1455 2039 L1405 2089 L1423 2089 L1473 2039 Z"/><path class="fh1" d="M1455 2039 L1405 2089 L1423 2089 L1473 2039 Z" /></g><g class="o"><path transform="translate(9,18)" class="S sfh" d="M1233 1284 L723 1794 L747 1794 L1257 1284 Z"/><path class="fh4" d="M1233 1284 L723 1794 L747 1794 L1257 1284 Z" /></g><g class="o"><path transform="translate(4,8)" class="S ss" d="M1340 1341 L1283 1398 L1283 1418 L1340 1361 Z"/><path class="s1" d="M1340 1341 L1283 1398 L1283 1418 L1340 1361 Z" /></g><g class="o"><path transform="translate(9,18)" class="S sfv" d="M1853 1158 L1624 929 L1624 967 L1853 1196 Z"/><path class="fv5" d="M1853 1158 L1624 929 L1624 967 L1853 1196 Z" /></g><g class="o"><path transform="translate(8,16)" class="S sfh" d="M1188 1999 L597 1408 L615 1408 L1206 1999 Z"/><path class="fh1" d="M1188 1999 L597 1408 L615 1408 L1206 1999 Z" /></g><g class="o"><path transform="translate(2,4)" class="S sfv" d="M1243 1229 L1028 1444 L1028 1482 L1243 1267 Z"/><path class="fv1" d="M1243 1229 L1028 1444 L1028 1482 L1243 1267 Z" /></g><g class="o"><path transform="translate(6,12)" class="S sfv" d="M1948 1430 L1468 1910 L1468 1946 L1948 1466 Z"/><path class="fv2" d="M1948 1430 L1468 1910 L1468 1946 L1948 1466 Z" /></g><g class="o"><path transform="translate(7,14)" class="S sfh" d="M1076 1956 L683 1563 L709 1563 L1102 1956 Z"/><path class="fh5" d="M1076 1956 L683 1563 L709 1563 L1102 1956 Z" /></g><g class="o"><path transform="translate(8,16)" class="S sfh" d="M1817 1338 L1753 1402 L1773 1402 L1837 1338 Z"/><path class="fh2" d="M1817 1338 L1753 1402 L1773 1402 L1837 1338 Z" /></g><g class="o"><path transform="translate(4,8)" class="S sfh" d="M1283 1343 L1182 1242 L1210 1242 L1311 1343 Z"/><path class="fh5" d="M1283 1343 L1182 1242 L1210 1242 L1311 1343 Z" /></g><g class="o"><path transform="translate(3,6)" class="S sfh" d="M1380 1781 L1032 1433 L1060 1433 L1408 1781 Z"/><path class="fh4" d="M1380 1781 L1032 1433 L1060 1433 L1408 1781 Z" /></g><g class="o"><path transform="translate(7,14)" class="S sfv" d="M1352 1871 L1220 1739 L1220 1761 L1352 1893 Z"/><path class="fv1" d="M1352 1871 L1220 1739 L1220 1761 L1352 1893 Z" /></g><g class="o"><path transform="translate(8,16)" class="S sf" d="M1852 1146 L1732 1266 L1732 1274 L1852 1154 Z"/><path class="f2" d="M1852 1146 L1732 1266 L1732 1274 L1852 1154 Z" /></g><g class="o"><path transform="translate(2,4)" class="S sfv" d="M2046 1376 L1813 1609 L1813 1619 L2046 1386 Z"/><path class="fv3" d="M2046 1376 L1813 1609 L1813 1619 L2046 1386 Z" /></g><g class="o"><path transform="translate(7,14)" class="S sfh" d="M1746 1575 L1685 1636 L1721 1636 L1782 1575 Z"/><path class="fh1" d="M1746 1575 L1685 1636 L1721 1636 L1782 1575 Z" /></g><g class="o"><path transform="translate(6,12)" class="S sfv" d="M1264 1574 L1019 1329 L1019 1341 L1264 1586 Z"/><path class="fv5" d="M1264 1574 L1019 1329 L1019 1341 L1264 1586 Z" /></g><g class="o"><path transform="translate(5,10)" class="S sfv" d="M1571 1371 L1460 1260 L1460 1292 L1571 1403 Z"/><path class="fv1" d="M1571 1371 L1460 1260 L1460 1292 L1571 1403 Z" /></g><g class="o"><path transform="translate(4,8)" class="S sfv" d="M1819 1204 L1730 1115 L1730 1151 L1819 1240 Z"/><path class="fv3" d="M1819 1204 L1730 1115 L1730 1151 L1819 1240 Z" /></g><g class="o"><path transform="translate(5,10)" class="S sfh" d="M1009 1058 L643 692 L673 692 L1039 1058 Z"/><path class="fh7" d="M1009 1058 L643 692 L673 692 L1039 1058 Z" /></g><g class="o"><path transform="translate(7,14)" class="S sfv" d="M1795 1799 L1703 1891 L1703 1907 L1795 1815 Z"/><path class="fv7" d="M1795 1799 L1703 1891 L1703 1907 L1795 1815 Z" /></g><g class="o"><path transform="translate(2,4)" class="S sfv" d="M1504 1393 L1361 1250 L1361 1264 L1504 1407 Z"/><path class="fv7" d="M1504 1393 L1361 1250 L1361 1264 L1504 1407 Z" /></g><g class="o"><path transform="translate(7,14)" class="S sfh" d="M1559 1505 L1342 1722 L1372 1722 L1589 1505 Z"/><path class="fh4" d="M1559 1505 L1342 1722 L1372 1722 L1589 1505 Z" /></g><g class="o"><path transform="translate(6,12)" class="S sfh" d="M1354 1424 L691 761 L701 761 L1364 1424 Z"/><path class="fh2" d="M1354 1424 L691 761 L701 761 L1364 1424 Z" /></g><g class="o"><path transform="translate(2,4)" class="S ssv" d="M2048 1649 L1843 1854 L1843 1866 L2048 1661 Z"/><path class="sv7" d="M2048 1649 L1843 1854 L1843 1866 L2048 1661 Z" /></g><g class="o"><path transform="translate(7,14)" class="S sfh" d="M1807 1856 L1129 2534 L1153 2534 L1831 1856 Z"/><path class="fh6" d="M1807 1856 L1129 2534 L1153 2534 L1831 1856 Z" /></g><g class="o"><path transform="translate(7,14)" class="S sfh" d="M1571 1729 L1355 1945 L1365 1945 L1581 1729 Z"/><path class="fh5" d="M1571 1729 L1355 1945 L1365 1945 L1581 1729 Z" /></g><g class="o"><path transform="translate(7,14)" class="S sf" d="M1052 1711 L948 1607 L948 1635 L1052 1739 Z"/><path class="f1" d="M1052 1711 L948 1607 L948 1635 L1052 1739 Z" /></g><g class="o"><path transform="translate(6,12)" class="S sfh" d="M1404 1367 L1287 1250 L1307 1250 L1424 1367 Z"/><path class="fh6" d="M1404 1367 L1287 1250 L1307 1250 L1424 1367 Z" /></g><g class="o"><path transform="translate(8,16)" class="S ssv" d="M1465 1541 L1274 1350 L1274 1380 L1465 1571 Z"/><path class="sv2" d="M1465 1541 L1274 1350 L1274 1380 L1465 1571 Z" /></g><g class="o"><path transform="translate(7,14)" class="S ss" d="M1771 1079 L1658 966 L1688 966 L1801 1079 Z"/><path class="s2" d="M1771 1079 L1658 966 L1688 966 L1801 1079 Z" /></g><g class="o"><path transform="translate(2,4)" class="S sfv" d="M1623 1774 L1393 1544 L1393 1560 L1623 1790 Z"/><path class="fv6" d="M1623 1774 L1393 1544 L1393 1560 L1623 1790 Z" /></g><g class="o"><path transform="translate(7,14)" class="S sfh" d="M1459 1325 L1275 1509 L1299 1509 L1483 1325 Z"/><path class="fh7" d="M1459 1325 L1275 1509 L1299 1509 L1483 1325 Z" /></g><g class="o"><path transform="translate(4,8)" class="S sfv" d="M1284 1072 L1226 1014 L1226 1038 L1284 1096 Z"/><path class="fv1" d="M1284 1072 L1226 1014 L1226 1038 L1284 1096 Z" /></g><g class="o"><path transform="translate(3,6)" class="S sfh" d="M1021 1863 L421 2463 L451 2463 L1051 1863 Z"/><path class="fh3" d="M1021 1863 L421 2463 L451 2463 L1051 1863 Z" /></g><g class="o"><path transform="translate(7,14)" class="S ssv" d="M1298 1011 L1163 876 L1163 894 L1298 1029 Z"/><path class="sv1" d="M1298 1011 L1163 876 L1163 894 L1298 1029 Z" /></g><g class="o"><path transform="translate(9,18)" class="S sfh" d="M1113 1906 L934 2085 L944 2085 L1123 1906 Z"/><path class="fh5" d="M1113 1906 L934 2085 L944 2085 L1123 1906 Z" /></g><g class="o"><path transform="translate(8,16)" class="S sfv" d="M1240 2019 L1060 1839 L1060 1859 L1240 2039 Z"/><path class="fv7" d="M1240 2019 L1060 1839 L1060 1859 L1240 2039 Z" /></g><g class="o"><path transform="translate(3,6)" class="S sf" d="M965 1304 L766 1503 L766 1527 L965 1328 Z"/><path class="f4" d="M965 1304 L766 1503 L766 1527 L965 1328 Z" /></g><g class="o"><path transform="translate(9,18)" class="S ssv" d="M1501 1884 L1403 1786 L1403 1820 L1501 1918 Z"/><path class="sv5" d="M1501 1884 L1403 1786 L1403 1820 L1501 1918 Z" /></g><g class="o"><path transform="translate(9,18)" class="S sfh" d="M2019 1166 L1967 1114 L1991 1114 L2043 1166 Z"/><path class="fh3" d="M2019 1166 L1967 1114 L1991 1114 L2043 1166 Z" /></g><g class="o"><path transform="translate(4,8)" class="S sfv" d="M2039 1940 L1828 1729 L1828 1745 L2039 1956 Z"/><path class="fv4" d="M2039 1940 L1828 1729 L1828 1745 L2039 1956 Z" /></g><g class="o"><path transform="translate(6,12)" class="S sfv" d="M1097 1109 L979 991 L979 1013 L1097 1131 Z"/><path class="fv5" d="M1097 1109 L979 991 L979 1013 L1097 1131 Z" /></g><g class="o"><path transform="translate(7,14)" class="S sfh" d="M1159 1170 L664 675 L672 675 L1167 1170 Z"/><path class="fh1" d="M1159 1170 L664 675 L672 675 L1167 1170 Z" /></g><g class="o"><path transform="translate(8,16)" class="S sfv" d="M1729 1816 L1512 1599 L1512 1629 L1729 1846 Z"/><path class="fv4" d="M1729 1816 L1512 1599 L1512 1629 L1729 1846 Z" /></g><g class="o"><path transform="translate(7,14)" class="S ssh" d="M1981 1911 L1261 2631 L1271 2631 L1991 1911 Z"/><path class="sh1" d="M1981 1911 L1261 2631 L1271 2631 L1991 1911 Z" /></g><g class="o"><path transform="translate(4,8)" class="S sfh" d="M967 1194 L721 948 L745 948 L991 1194 Z"/><path class="fh3" d="M967 1194 L721 948 L745 948 L991 1194 Z" /></g><g class="o"><path transform="translate(2,4)" class="S sfv" d="M1408 1219 L1294 1333 L1294 1347 L1408 1233 Z"/><path class="fv7" d="M1408 1219 L1294 1333 L1294 1347 L1408 1233 Z" /></g><g class="o"><path transform="translate(2,4)" class="S sfv" d="M1556 1352 L1352 1148 L1352 1158 L1556 1362 Z"/><path class="fv5" d="M1556 1352 L1352 1148 L1352 1158 L1556 1362 Z" /></g><g class="o"><path transform="translate(7,14)" class="S sfh" d="M1340 1590 L1151 1779 L1181 1779 L1370 1590 Z"/><path class="fh2" d="M1340 1590 L1151 1779 L1181 1779 L1370 1590 Z" /></g><g class="o"><path transform="translate(6,12)" class="S sfv" d="M1117 1286 L895 1064 L895 1096 L1117 1318 Z"/><path class="fv4" d="M1117 1286 L895 1064 L895 1096 L1117 1318 Z" /></g><g class="o"><path transform="translate(3,6)" class="S sfh" d="M1780 1250 L1547 1017 L1571 1017 L1804 1250 Z"/><path class="fh3" d="M1780 1250 L1547 1017 L1571 1017 L1804 1250 Z" /></g><g class="o"><path transform="translate(8,16)" class="S sfh" d="M1472 972 L1413 1031 L1451 1031 L1510 972 Z"/><path class="fh7" d="M1472 972 L1413 1031 L1451 1031 L1510 972 Z" /></g><g class="o"><path transform="translate(2,4)" class="S ssh" d="M1072 984 L928 840 L958 840 L1102 984 Z"/><path class="sh4" d="M1072 984 L928 840 L958 840 L1102 984 Z" /></g><g class="o"><path transform="translate(6,12)" class="S sfh" d="M1413 1993 L954 2452 L964 2452 L1423 1993 Z"/><path class="fh1" d="M1413 1993 L954 2452 L964 2452 L1423 1993 Z" /></g><g class="o"><path transform="translate(7,14)" class="S sf" d="M1106 1491 L870 1727 L898 1727 L1134 1491 Z"/><path class="f7" d="M1106 1491 L870 1727 L898 1727 L1134 1491 Z" /></g><g class="o"><path transform="translate(4,8)" class="S sf" d="M1893 1752 L1826 1819 L1826 1845 L1893 1778 Z"/><path class="f7" d="M1893 1752 L1826 1819 L1826 1845 L1893 1778 Z" /></g><g class="o"><path transform="translate(5,10)" class="S ss" d="M1104 1445 L903 1244 L913 1244 L1114 1445 Z"/><path class="s5" d="M1104 1445 L903 1244 L913 1244 L1114 1445 Z" /></g><g class="o"><path transform="translate(4,8)" class="S sfv" d="M1867 1419 L1629 1657 L1629 1677 L1867 1439 Z"/><path class="fv3" d="M1867 1419 L1629 1657 L1629 1677 L1867 1439 Z" /></g><g class="o"><path transform="translate(3,6)" class="S sfv" d="M1660 1362 L1600 1302 L1600 1310 L1660 1370 Z"/><path class="fv6" d="M1660 1362 L1600 1302 L1600 1310 L1660 1370 Z" /></g><g class="o"><path transform="translate(9,18)" class="S ssh" d="M1595 1430 L1408 1617 L1422 1617 L1609 1430 Z"/><path class="sh3" d="M1595 1430 L1408 1617 L1422 1617 L1609 1430 Z" /></g><g class="o"><path transform="translate(9,18)" class="S ssv" d="M1893 1480 L1755 1618 L1755 1652 L1893 1514 Z"/><path class="sv1" d="M1893 1480 L1755 1618 L1755 1652 L1893 1514 Z" /></g><g class="o"><path transform="translate(2,4)" class="S sfv" d="M1569 2004 L1327 2246 L1327 2280 L1569 2038 Z"/><path class="fv6" d="M1569 2004 L1327 2246 L1327 2280 L1569 2038 Z" /></g><g class="o"><path transform="translate(5,10)" class="S ssh" d="M1043 1210 L799 1454 L833 1454 L1077 1210 Z"/><path class="sh5" d="M1043 1210 L799 1454 L833 1454 L1077 1210 Z" /></g><g class="o"><path transform="translate(2,4)" class="S sfh" d="M1285 1373 L1158 1246 L1194 1246 L1321 1373 Z"/><path class="fh7" d="M1285 1373 L1158 1246 L1194 1246 L1321 1373 Z" /></g><g class="o"><path transform="translate(8,16)" class="S sfh" d="M1307 1113 L1181 987 L1213 987 L1339 1113 Z"/><path class="fh4" d="M1307 1113 L1181 987 L1213 987 L1339 1113 Z" /></g><g class="o"><path transform="translate(2,4)" class="S sfh" d="M1736 1270 L1537 1071 L1561 1071 L1760 1270 Z"/><path class="fh3" d="M1736 1270 L1537 1071 L1561 1071 L1760 1270 Z" /></g><g class="o"><path transform="translate(4,8)" class="S sfh" d="M1017 1459 L890 1332 L902 1332 L1029 1459 Z"/><path class="fh6" d="M1017 1459 L890 1332 L902 1332 L1029 1459 Z" /></g><g class="o"><path transform="translate(2,4)" class="S sf" d="M1193 1101 L848 756 L860 756 L1205 1101 Z"/><path class="f2" d="M1193 1101 L848 756 L860 756 L1205 1101 Z" /></g><g class="o"><path transform="translate(8,16)" class="S sfv" d="M1685 1893 L1490 2088 L1490 2114 L1685 1919 Z"/><path class="fv5" d="M1685 1893 L1490 2088 L1490 2114 L1685 1919 Z" /></g><g class="o"><path transform="translate(9,18)" class="S sf" d="M1414 1101 L1358 1157 L1358 1167 L1414 1111 Z"/><path class="f3" d="M1414 1101 L1358 1157 L1358 1167 L1414 1111 Z" /></g><g class="o"><path transform="translate(9,18)" class="S sfh" d="M1341 1357 L1071 1627 L1105 1627 L1375 1357 Z"/><path class="fh7" d="M1341 1357 L1071 1627 L1105 1627 L1375 1357 Z" /></g><g class="o"><path transform="translate(6,12)" class="S sfv" d="M1641 1338 L1518 1461 L1518 1493 L1641 1370 Z"/><path class="fv1" d="M1641 1338 L1518 1461 L1518 1493 L1641 1370 Z" /></g><g class="o"><path transform="translate(8,16)" class="S sfh" d="M1600 1210 L964 574 L978 574 L1614 1210 Z"/><path class="fh3" d="M1600 1210 L964 574 L978 574 L1614 1210 Z" /></g><g class="o"><path transform="translate(4,8)" class="S sfh" d="M1316 1391 L1253 1328 L1277 1328 L1340 1391 Z"/><path class="fh5" d="M1316 1391 L1253 1328 L1277 1328 L1340 1391 Z" /></g><g class="o"><path transform="translate(7,14)" class="S sfh" d="M1775 1653 L1584 1844 L1600 1844 L1791 1653 Z"/><path class="fh3" d="M1775 1653 L1584 1844 L1600 1844 L1791 1653 Z" /></g><g class="o"><path transform="translate(6,12)" class="S sf" d="M1671 1607 L1579 1515 L1579 1535 L1671 1627 Z"/><path class="f4" d="M1671 1607 L1579 1515 L1579 1535 L1671 1627 Z" /></g><g class="o"><path transform="translate(7,14)" class="S sfh" d="M1658 1500 L1487 1671 L1517 1671 L1688 1500 Z"/><path class="fh6" d="M1658 1500 L1487 1671 L1517 1671 L1688 1500 Z" /></g><g class="o"><path transform="translate(6,12)" class="S ssh" d="M1528 1258 L1315 1471 L1325 1471 L1538 1258 Z"/><path class="sh3" d="M1528 1258 L1315 1471 L1325 1471 L1538 1258 Z" /></g><g class="o"><path transform="translate(6,12)" class="S sf" d="M2008 1908 L1828 1728 L1828 1750 L2008 1930 Z"/><path class="f2" d="M2008 1908 L1828 1728 L1828 1750 L2008 1930 Z" /></g><g class="o"><path transform="translate(4,8)" class="S sfv" d="M1070 1350 L803 1083 L803 1103 L1070 1370 Z"/><path class="fv3" d="M1070 1350 L803 1083 L803 1103 L1070 1370 Z" /></g><g class="o"><path transform="translate(3,6)" class="S sfh" d="M1579 1280 L1376 1077 L1392 1077 L1595 1280 Z"/><path class="fh7" d="M1579 1280 L1376 1077 L1392 1077 L1595 1280 Z" /></g><g class="o"><path transform="translate(9,18)" class="S sfh" d="M1816 1816 L1716 1716 L1750 1716 L1850 1816 Z"/><path class="fh3" d="M1816 1816 L1716 1716 L1750 1716 L1850 1816 Z" /></g><g class="o"><path transform="translate(8,16)" class="S sfv" d="M1144 2030 L1085 1971 L1085 2009 L1144 2068 Z"/><path class="fv4" d="M1144 2030 L1085 1971 L1085 2009 L1144 2068 Z" /></g><g class="o"><path transform="translate(6,12)" class="S sfv" d="M1330 1247 L1165 1412 L1165 1442 L1330 1277 Z"/><path class="fv3" d="M1330 1247 L1165 1412 L1165 1442 L1330 1277 Z" /></g><g class="o"><path transform="translate(9,18)" class="S sf" d="M1456 1574 L1321 1709 L1321 1725 L1456 1590 Z"/><path class="f7" d="M1456 1574 L1321 1709 L1321 1725 L1456 1590 Z" /></g><g class="o"><path transform="translate(7,14)" class="S sf" d="M1461 1985 L801 1325 L801 1335 L1461 1995 Z"/><path class="f7" d="M1461 1985 L801 1325 L801 1335 L1461 1995 Z" /></g><g class="o"><path transform="translate(2,4)" class="S sfh" d="M1167 1747 L932 1512 L942 1512 L1177 1747 Z"/><path class="fh4" d="M1167 1747 L932 1512 L942 1512 L1177 1747 Z" /></g><g class="o"><path transform="translate(8,16)" class="S sfh" d="M1161 1323 L1102 1382 L1110 1382 L1169 1323 Z"/><path class="fh6" d="M1161 1323 L1102 1382 L1110 1382 L1169 1323 Z" /></g><g class="o"><path transform="translate(7,14)" class="S sfh" d="M957 1168 L724 1401 L758 1401 L991 1168 Z"/><path class="fh1" d="M957 1168 L724 1401 L758 1401 L991 1168 Z" /></g><g class="o"><path transform="translate(6,12)" class="S sfv" d="M1042 1793 L799 1550 L799 1582 L1042 1825 Z"/><path class="fv1" d="M1042 1793 L799 1550 L799 1582 L1042 1825 Z" /></g><g class="o"><path transform="translate(8,16)" class="S sfh" d="M1863 1762 L1792 1833 L1800 1833 L1871 1762 Z"/><path class="fh6" d="M1863 1762 L1792 1833 L1800 1833 L1871 1762 Z" /></g><g class="o"><path transform="translate(9,18)" class="S ssv" d="M1131 1335 L947 1151 L947 1173 L1131 1357 Z"/><path class="sv5" d="M1131 1335 L947 1151 L947 1173 L1131 1357 Z" /></g><g class="o"><path transform="translate(7,14)" class="S sfh" d="M1653 1300 L1560 1207 L1570 1207 L1663 1300 Z"/><path class="fh1" d="M1653 1300 L1560 1207 L1570 1207 L1663 1300 Z" /></g><g class="o"><path transform="translate(2,4)" class="S sf" d="M1448 949 L1237 1160 L1237 1174 L1448 963 Z"/><path class="f4" d="M1448 949 L1237 1160 L1237 1174 L1448 963 Z" /></g><g class="o"><path transform="translate(8,16)" class="S ss" d="M1329 1870 L1124 2075 L1148 2075 L1353 1870 Z"/><path class="s6" d="M1329 1870 L1124 2075 L1148 2075 L1353 1870 Z" /></g><g class="o"><path transform="translate(5,10)" class="S sfh" d="M1209 1127 L1119 1037 L1157 1037 L1247 1127 Z"/><path class="fh3" d="M1209 1127 L1119 1037 L1157 1037 L1247 1127 Z" /></g></g><use href="#slashes" transform-origin="1500 1500" transform="rotate(180) scale(2)"/></g><rect x="1080" y="1080" width="840" height="840" stroke-width="40" class="o s1" /><use href="#slashes" transform-origin="1500 1500" transform="scale(.7)"/><use href="#slashes" transform-origin="1500 1500" transform="rotate(180) scale(1.3)"/></svg>