<svg xmlns="http://www.w3.org/2000/svg" viewBox="750 750 1500 1500"><style>/*<![CDATA[*/svg{background:rgb(34,34,34);max-width:100vw;max-height:100vh}path{stroke-width:4}.o{opacity:.75}.S{opacity:.4}.sf{stroke:none;fill:black}.sfh{stroke:none;fill:url(#hs)}.sfv{stroke:none;fill:url(#vs)}.ss{stroke:black;fill:none}.ssh{stroke:url(#hs);fill:none}.ssv{stroke:url(#vs);fill:none}.s1{fill:none;stroke:rgb(188,231,132)}.f1{stroke:none;fill:rgb(188,231,132)}.sh1{fill:none;stroke:url(#h1)}.fh1{stroke:none;fill:url(#h1)}.sv1{fill:none;stroke:url(#v1)}.fv1{stroke:none;fill:url(#v1)}.s2{fill:none;stroke:rgb(81,59,86)}.f2{stroke:none;fill:rgb(81,59,86)}.sh2{fill:none;stroke:url(#h2)}.fh2{stroke:none;fill:url(#h2)}.sv2{fill:none;stroke:url(#v2)}.fv2{stroke:none;fill:url(#v2)}.s3{fill:none;stroke:rgb(93,211,158)}.f3{stroke:none;fill:rgb(93,211,158)}.sh3{fill:none;stroke:url(#h3)}.fh3{stroke:none;fill:url(#h3)}.sv3{fill:none;stroke:url(#v3)}.fv3{stroke:none;fill:url(#v3)}.s4{fill:none;stroke:rgb(82,81,116)}.f4{stroke:none;fill:rgb(82,81,116)}.sh4{fill:none;stroke:url(#h4)}.fh4{stroke:none;fill:url(#h4)}.sv4{fill:none;stroke:url(#v4)}.fv4{stroke:none;fill:url(#v4)}.s5{fill:none;stroke:rgb(52,138,167)}.f5{stroke:none;fill:rgb(52,138,167)}.sh5{fill:none;stroke:url(#h5)}.fh5{stroke:none;fill:url(#h5)}.sv5{fill:none;stroke:url(#v5)}.fv5{stroke:none;fill:url(#v5)}.s6{fill:none;stroke:rgb(255,255,255)}.f6{stroke:none;fill:rgb(255,255,255)}.sh6{fill:none;stroke:url(#h6)}.fh6{stroke:none;fill:url(#h6)}.sv6{fill:none;stroke:url(#v6)}.fv6{stroke:none;fill:url(#v6)}.s7{fill:none;stroke:rgb(255,0,0)}.f7{stroke:none;fill:rgb(255,0,0)}.sh7{fill:none;stroke:url(#h7)}.fh7{stroke:none;fill:url(#h7)}.sv7{fill:none;stroke:url(#v7)}.fv7{stroke:none;fill:url(#v7)}/*]]>*/</style><defs><linearGradient gradientTransform="rotate(90)" id="hs"><stop offset="20%" stop-color="#000" /><stop offset="95%" stop-color="rgba(0, 0, 0, 0)" /></linearGradient><linearGradient id="vs"><stop offset="20%" stop-color="#000" /><stop offset="95%" stop-color="rgba(0, 0, 0, 0)" /></linearGradient><linearGradient gradientTransform="rotate(90)" id="h1"><stop offset="20%" stop-color="rgba(188,231,132,1)" /><stop offset="95%" stop-color="rgba(188,231,132,0)" /></linearGradient><linearGradient id="v1"><stop offset="20%" stop-color="rgba(188,231,132,1)" /><stop offset="95%" stop-color="rgba(188,231,132,0)" /></linearGradient><linearGradient gradientTransform="rotate(90)" id="h2"><stop offset="20%" stop-color="rgba(81,59,86,1)" /><stop offset="95%" stop-color="rgba(81,59,86,0)" /></linearGradient><linearGradient id="v2"><stop offset="20%" stop-color="rgba(81,59,86,1)" /><stop offset="95%" stop-color="rgba(81,59,86,0)" /></linearGradient><linearGradient gradientTransform="rotate(90)" id="h3"><stop offset="20%" stop-color="rgba(93,211,158,1)" /><stop offset="95%" stop-color="rgba(93,211,158,0)" /></linearGradient><linearGradient id="v3"><stop offset="20%" stop-color="rgba(93,211,158,1)" /><stop offset="95%" stop-color="rgba(93,211,158,0)" /></linearGradient><linearGradient gradientTransform="rotate(90)" id="h4"><stop offset="20%" stop-color="rgba(82,81,116,1)" /><stop offset="95%" stop-color="rgba(82,81,116,0)" /></linearGradient><linearGradient id="v4"><stop offset="20%" stop-color="rgba(82,81,116,1)" /><stop offset="95%" stop-color="rgba(82,81,116,0)" /></linearGradient><linearGradient gradientTransform="rotate(90)" id="h5"><stop offset="20%" stop-color="rgba(52,138,167,1)" /><stop offset="95%" stop-color="rgba(52,138,167,0)" /></linearGradient><linearGradient id="v5"><stop offset="20%" stop-color="rgba(52,138,167,1)" /><stop offset="95%" stop-color="rgba(52,138,167,0)" /></linearGradient><linearGradient gradientTransform="rotate(90)" id="h6"><stop offset="20%" stop-color="rgba(255,255,255,1)" /><stop offset="95%" stop-color="rgba(255,255,255,0)" /></linearGradient><linearGradient id="v6"><stop offset="20%" stop-color="rgba(255,255,255,1)" /><stop offset="95%" stop-color="rgba(255,255,255,0)" /></linearGradient><linearGradient gradientTransform="rotate(90)" id="h7"><stop offset="20%" stop-color="rgba(255,0,0,1)" /><stop offset="95%" stop-color="rgba(255,0,0,0)" /></linearGradient><linearGradient id="v7"><stop offset="20%" stop-color="rgba(255,0,0,1)" /><stop offset="95%" stop-color="rgba(255,0,0,0)" /></linearGradient></defs><g transform-origin="1500 1500" transform="scale(2)" opacity=".2"><g id="slashes"><g class="o"><path transform="translate(9,18)" class="S sfv" d="M1807 980 L1977 1150 L1977 1188 L1807 1018 Z"/><path class="fv5" d="M1807 980 L1977 1150 L1977 1188 L1807 1018 Z" /></g><g class="o"><path transform="translate(6,12)" class="S sfh" d="M1914 1626 L2087 1799 L2107 1799 L1934 1626 Z"/><path class="fh5" d="M1914 1626 L2087 1799 L2107 1799 L1934 1626 Z" /></g><g class="o"><path transform="translate(6,12)" class="S sf" d="M1750 1972 L1932 1790 L1940 1790 L1758 1972 Z"/><path class="f2" d="M1750 1972 L1932 1790 L1940 1790 L1758 1972 Z" /></g><g class="o"><path transform="translate(6,12)" class="S sf" d="M1069 1875 L872 1678 L872 1710 L1069 1907 Z"/><path class="f4" d="M1069 1875 L872 1678 L872 1710 L1069 1907 Z" /></g><g class="o"><path transform="translate(3,6)" class="S ssh" d="M1681 1952 L1486 1757 L1502 1757 L1697 1952 Z"/><path class="sh7" d="M1681 1952 L1486 1757 L1502 1757 L1697 1952 Z" /></g><g class="o"><path transform="translate(6,12)" class="S sfh" d="M1570 1772 L1700 1902 L1716 1902 L1586 1772 Z"/><path class="fh7" d="M1570 1772 L1700 1902 L1716 1902 L1586 1772 Z" /></g><g class="o"><path transform="translate(7,14)" class="S sfv" d="M1171 1403 L1297 1529 L1297 1557 L1171 1431 Z"/><path class="fv4" d="M1171 1403 L1297 1529 L1297 1557 L1171 1431 Z" /></g><g class="o"><path transform="translate(7,14)" class="S sfv" d="M1113 1258 L1401 970 L1401 990 L1113 1278 Z"/><path class="fv3" d="M1113 1258 L1401 970 L1401 990 L1113 1278 Z" /></g><g class="o"><path transform="translate(9,18)" class="S ssh" d="M1453 1106 L1533 1026 L1543 1026 L1463 1106 Z"/><path class="sh5" d="M1453 1106 L1533 1026 L1543 1026 L1463 1106 Z" /></g><g class="o"><path transform="translate(8,16)" class="S sfh" d="M1416 1887 L1512 1791 L1530 1791 L1434 1887 Z"/><path class="fh6" d="M1416 1887 L1512 1791 L1530 1791 L1434 1887 Z" /></g><g class="o"><path transform="translate(3,6)" class="S ssv" d="M1842 1829 L1905 1766 L1905 1780 L1842 1843 Z"/><path class="sv1" d="M1842 1829 L1905 1766 L1905 1780 L1842 1843 Z" /></g><g class="o"><path transform="translate(9,18)" class="S sf" d="M1045 1119 L1169 1243 L1193 1243 L1069 1119 Z"/><path class="f5" d="M1045 1119 L1169 1243 L1193 1243 L1069 1119 Z" /></g><g class="o"><path transform="translate(4,8)" class="S sfh" d="M1313 1155 L1086 1382 L1110 1382 L1337 1155 Z"/><path class="fh2" d="M1313 1155 L1086 1382 L1110 1382 L1337 1155 Z" /></g><g class="o"><path transform="translate(5,10)" class="S sfh" d="M2030 1965 L2229 1766 L2265 1766 L2066 1965 Z"/><path class="fh2" d="M2030 1965 L2229 1766 L2265 1766 L2066 1965 Z" /></g><g class="o"><path transform="translate(9,18)" class="S ss" d="M1584 1667 L1659 1592 L1659 1602 L1584 1677 Z"/><path class="s1" d="M1584 1667 L1659 1592 L1659 1602 L1584 1677 Z" /></g><g class="o"><path transform="translate(7,14)" class="S sfh" d="M1274 1025 L1090 841 L1100 841 L1284 1025 Z"/><path class="fh3" d="M1274 1025 L1090 841 L1100 841 L1284 1025 Z" /></g><g class="o"><path transform="translate(7,14)" class="S sfv" d="M1380 1361 L1552 1189 L1552 1203 L1380 1375 Z"/><path class="fv3" d="M1380 1361 L1552 1189 L1552 1203 L1380 1375 Z" /></g><g class="o"><path transform="translate(6,12)" class="S sfh" d="M965 1584 L1424 2043 L1458 2043 L999 1584 Z"/><path class="fh4" d="M965 1584 L1424 2043 L1458 2043 L999 1584 Z" /></g><g class="o"><path transform="translate(6,12)" class="S sf" d="M1807 1949 L1908 1848 L1908 1866 L1807 1967 Z"/><path class="f5" d="M1807 1949 L1908 1848 L1908 1866 L1807 1967 Z" /></g><g class="o"><path transform="translate(9,18)" class="S sfh" d="M961 1572 L1147 1758 L1163 1758 L977 1572 Z"/><path class="fh6" d="M961 1572 L1147 1758 L1163 1758 L977 1572 Z" /></g><g class="o"><path transform="translate(2,4)" class="S sfv" d="M1853 1380 L2138 1095 L2138 1103 L1853 1388 Z"/><path class="fv7" d="M1853 1380 L2138 1095 L2138 1103 L1853 1388 Z" /></g><g class="o"><path transform="translate(7,14)" class="S sfv" d="M1928 1194 L2081 1347 L2081 1371 L1928 1218 Z"/><path class="fv2" d="M1928 1194 L2081 1347 L2081 1371 L1928 1218 Z" /></g><g class="o"><path transform="translate(9,18)" class="S sfh" d="M1960 1825 L2092 1957 L2106 1957 L1974 1825 Z"/><path class="fh6" d="M1960 1825 L2092 1957 L2106 1957 L1974 1825 Z" /></g><g class="o"><path transform="translate(9,18)" class="S sfh" d="M1396 1598 L1576 1418 L1602 1418 L1422 1598 Z"/><path class="fh6" d="M1396 1598 L1576 1418 L1602 1418 L1422 1598 Z" /></g><g class="o"><path transform="translate(9,18)" class="S ss" d="M1090 1389 L1798 681 L1798 717 L1090 1425 Z"/><path class="s3" d="M1090 1389 L1798 681 L1798 717 L1090 1425 Z" /></g><g class="o"><path transform="translate(5,10)" class="S sfh" d="M1052 2001 L842 2211 L858 2211 L1068 2001 Z"/><path class="fh5" d="M1052 2001 L842 2211 L858 2211 L1068 2001 Z" /></g><g class="o"><path transform="translate(4,8)" class="S ssh" d="M1505 1650 L1394 1761 L1426 1761 L1537 1650 Z"/><path class="sh2" d="M1505 1650 L1394 1761 L1426 1761 L1537 1650 Z" /></g><g class="o"><path transform="translate(2,4)" class="S sfh" d="M1498 1952 L2044 1406 L2070 1406 L1524 1952 Z"/><path class="fh1" d="M1498 1952 L2044 1406 L2070 1406 L1524 1952 Z" /></g><g class="o"><path transform="translate(7,14)" class="S sfv" d="M1586 1276 L1352 1042 L1352 1078 L1586 1312 Z"/><path class="fv4" d="M1586 1276 L1352 1042 L1352 1078 L1586 1312 Z" /></g><g class="o"><path transform="translate(2,4)" class="S sfv" d="M1458 1210 L1592 1344 L1592 1374 L1458 1240 Z"/><path class="fv1" d="M1458 1210 L1592 1344 L1592 1374 L1458 1240 Z" /></g><g class="o"><path transform="translate(3,6)" class="S sf" d="M1028 1198 L1111 1281 L1139 1281 L1056 1198 Z"/><path class="f1" d="M1028 1198 L1111 1281 L1139 1281 L1056 1198 Z" /></g><g class="o"><path transform="translate(9,18)" class="S sfh" d="M1809 1085 L1909 1185 L1929 1185 L1829 1085 Z"/><path class="fh5" d="M1809 1085 L1909 1185 L1929 1185 L1829 1085 Z" /></g><g class="o"><path transform="translate(8,16)" class="S sfh" d="M1629 1215 L1721 1307 L1753 1307 L1661 1215 Z"/><path class="fh3" d="M1629 1215 L1721 1307 L1753 1307 L1661 1215 Z" /></g><g class="o"><path transform="translate(2,4)" class="S ss" d="M1171 2015 L1243 1943 L1243 1963 L1171 2035 Z"/><path class="s7" d="M1171 2015 L1243 1943 L1243 1963 L1171 2035 Z" /></g><g class="o"><path transform="translate(2,4)" class="S sf" d="M1435 1661 L1292 1804 L1312 1804 L1455 1661 Z"/><path class="f7" d="M1435 1661 L1292 1804 L1312 1804 L1455 1661 Z" /></g><g class="o"><path transform="translate(4,8)" class="S ssh" d="M1433 1661 L1223 1451 L1251 1451 L1461 1661 Z"/><path class="sh1" d="M1433 1661 L1223 1451 L1251 1451 L1461 1661 Z" /></g><g class="o"><path transform="translate(3,6)" class="S sfh" d="M1377 1631 L1560 1814 L1570 1814 L1387 1631 Z"/><path class="fh4" d="M1377 1631 L1560 1814 L1570 1814 L1387 1631 Z" /></g><g class="o"><path transform="translate(2,4)" class="S sfv" d="M2012 1943 L2231 2162 L2231 2176 L2012 1957 Z"/><path class="fv3" d="M2012 1943 L2231 2162 L2231 2176 L2012 1957 Z" /></g><g class="o"><path transform="translate(7,14)" class="S sfv" d="M1066 1499 L1276 1289 L1276 1315 L1066 1525 Z"/><path class="fv1" d="M1066 1499 L1276 1289 L1276 1315 L1066 1525 Z" /></g><g class="o"><path transform="translate(5,10)" class="S sfv" d="M1770 1357 L2013 1114 L2013 1146 L1770 1389 Z"/><path class="fv1" d="M1770 1357 L2013 1114 L2013 1146 L1770 1389 Z" /></g><g class="o"><path transform="translate(2,4)" class="S sf" d="M943 1541 L890 1594 L908 1594 L961 1541 Z"/><path class="f7" d="M943 1541 L890 1594 L908 1594 L961 1541 Z" /></g><g class="o"><path transform="translate(5,10)" class="S sfv" d="M1171 1937 L1275 2041 L1275 2063 L1171 1959 Z"/><path class="fv6" d="M1171 1937 L1275 2041 L1275 2063 L1171 1959 Z" /></g><g class="o"><path transform="translate(9,18)" class="S sfv" d="M1117 1653 L1840 930 L1840 956 L1117 1679 Z"/><path class="fv1" d="M1117 1653 L1840 930 L1840 956 L1117 1679 Z" /></g><g class="o"><path transform="translate(2,4)" class="S ssv" d="M2028 1261 L2214 1447 L2214 1455 L2028 1269 Z"/><path class="sv4" d="M2028 1261 L2214 1447 L2214 1455 L2028 1269 Z" /></g><g class="o"><path transform="translate(8,16)" class="S sfh" d="M1104 1446 L1244 1586 L1280 1586 L1140 1446 Z"/><path class="fh7" d="M1104 1446 L1244 1586 L1280 1586 L1140 1446 Z" /></g><g class="o"><path transform="translate(6,12)" class="S sfh" d="M1832 1820 L2051 1601 L2085 1601 L1866 1820 Z"/><path class="fh5" d="M1832 1820 L2051 1601 L2085 1601 L1866 1820 Z" /></g><g class="o"><path transform="translate(5,10)" class="S sfv" d="M1889 1100 L1666 877 L1666 907 L1889 1130 Z"/><path class="fv2" d="M1889 1100 L1666 877 L1666 907 L1889 1130 Z" /></g><g class="o"><path transform="translate(5,10)" class="S sfv" d="M1722 1851 L1604 1969 L1604 1991 L1722 1873 Z"/><path class="fv3" d="M1722 1851 L1604 1969 L1604 1991 L1722 1873 Z" /></g><g class="o"><path transform="translate(8,16)" class="S sfv" d="M1117 1564 L1281 1400 L1281 1422 L1117 1586 Z"/><path class="fv5" d="M1117 1564 L1281 1400 L1281 1422 L1117 1586 Z" /></g><g class="o"><path transform="translate(3,6)" class="S sfh" d="M1343 1101 L1553 891 L1589 891 L1379 1101 Z"/><path class="fh4" d="M1343 1101 L1553 891 L1589 891 L1379 1101 Z" /></g><g class="o"><path transform="translate(2,4)" class="S sfv" d="M1488 988 L1568 1068 L1568 1086 L1488 1006 Z"/><path class="fv7" d="M1488 988 L1568 1068 L1568 1086 L1488 1006 Z" /></g><g class="o"><path transform="translate(8,16)" class="S sfv" d="M1141 1417 L1025 1301 L1025 1337 L1141 1453 Z"/><path class="fv5" d="M1141 1417 L1025 1301 L1025 1337 L1141 1453 Z" /></g><g class="o"><path transform="translate(5,10)" class="S sfh" d="M1348 1657 L1434 1743 L1458 1743 L1372 1657 Z"/><path class="fh1" d="M1348 1657 L1434 1743 L1458 1743 L1372 1657 Z" /></g><g class="o"><path transform="translate(7,14)" class="S sfv" d="M1476 1535 L1185 1244 L1185 1272 L1476 1563 Z"/><path class="fv4" d="M1476 1535 L1185 1244 L1185 1272 L1476 1563 Z" /></g><g class="o"><path transform="translate(5,10)" class="S sfh" d="M1874 1079 L1950 1155 L1970 1155 L1894 1079 Z"/><path class="fh5" d="M1874 1079 L1950 1155 L1970 1155 L1894 1079 Z" /></g><g class="o"><path transform="translate(9,18)" class="S sf" d="M1604 1611 L2057 2064 L2075 2064 L1622 1611 Z"/><path class="f3" d="M1604 1611 L2057 2064 L2075 2064 L1622 1611 Z" /></g><g class="o"><path transform="translate(2,4)" class="S sfh" d="M1027 1941 L1254 1714 L1280 1714 L1053 1941 Z"/><path class="fh7" d="M1027 1941 L1254 1714 L1280 1714 L1053 1941 Z" /></g><g class="o"><path transform="translate(6,12)" class="S sfv" d="M1254 1176 L1116 1314 L1116 1324 L1254 1186 Z"/><path class="fv5" d="M1254 1176 L1116 1314 L1116 1324 L1254 1186 Z" /></g><g class="o"><path transform="translate(5,10)" class="S sf" d="M1175 1282 L1361 1096 L1361 1110 L1175 1296 Z"/><path class="f4" d="M1175 1282 L1361 1096 L1361 1110 L1175 1296 Z" /></g><g class="o"><path transform="translate(8,16)" class="S sfh" d="M1821 1862 L2066 1617 L2076 1617 L1831 1862 Z"/><path class="fh2" d="M1821 1862 L2066 1617 L2076 1617 L1831 1862 Z" /></g><g class="o"><path transform="translate(3,6)" class="S sfv" d="M1681 1136 L1902 915 L1902 939 L1681 1160 Z"/><path class="fv7" d="M1681 1136 L1902 915 L1902 939 L1681 1160 Z" /></g><g class="o"><path transform="translate(3,6)" class="S ssv" d="M1171 1000 L1406 1235 L1406 1269 L1171 1034 Z"/><path class="sv2" d="M1171 1000 L1406 1235 L1406 1269 L1171 1034 Z" /></g><g class="o"><path transform="translate(3,6)" class="S sfv" d="M1593 1717 L2322 988 L2322 1004 L1593 1733 Z"/><path class="fv5" d="M1593 1717 L2322 988 L2322 1004 L1593 1733 Z" /></g><g class="o"><path transform="translate(2,4)" class="S ssv" d="M1739 1991 L1795 1935 L1795 1949 L1739 2005 Z"/><path class="sv7" d="M1739 1991 L1795 1935 L1795 1949 L1739 2005 Z" /></g><g class="o"><path transform="translate(4,8)" class="S sfv" d="M1246 1985 L1804 2543 L1804 2571 L1246 2013 Z"/><path class="fv1" d="M1246 1985 L1804 2543 L1804 2571 L1246 2013 Z" /></g><g class="o"><path transform="translate(7,14)" class="S sfh" d="M2020 1975 L2264 1731 L2272 1731 L2028 1975 Z"/><path class="fh3" d="M2020 1975 L2264 1731 L2272 1731 L2028 1975 Z" /></g><g class="o"><path transform="translate(6,12)" class="S sfv" d="M1559 1653 L1781 1875 L1781 1893 L1559 1671 Z"/><path class="fv5" d="M1559 1653 L1781 1875 L1781 1893 L1559 1671 Z" /></g><g class="o"><path transform="translate(8,16)" class="S sfh" d="M1323 1385 L1125 1583 L1161 1583 L1359 1385 Z"/><path class="fh2" d="M1323 1385 L1125 1583 L1161 1583 L1359 1385 Z" /></g><g class="o"><path transform="translate(4,8)" class="S sfh" d="M1353 1186 L1484 1317 L1518 1317 L1387 1186 Z"/><path class="fh1" d="M1353 1186 L1484 1317 L1518 1317 L1387 1186 Z" /></g><g class="o"><path transform="translate(2,4)" class="S sfv" d="M1485 1722 L1316 1553 L1316 1571 L1485 1740 Z"/><path class="fv6" d="M1485 1722 L1316 1553 L1316 1571 L1485 1740 Z" /></g><g class="o"><path transform="translate(2,4)" class="S ssh" d="M1141 1668 L1747 2274 L1763 2274 L1157 1668 Z"/><path class="sh5" d="M1141 1668 L1747 2274 L1763 2274 L1157 1668 Z" /></g><g class="o"><path transform="translate(4,8)" class="S sfv" d="M1919 1784 L1740 1605 L1740 1621 L1919 1800 Z"/><path class="fv4" d="M1919 1784 L1740 1605 L1740 1621 L1919 1800 Z" /></g><g class="o"><path transform="translate(2,4)" class="S sfh" d="M959 1981 L796 2144 L808 2144 L971 1981 Z"/><path class="fh2" d="M959 1981 L796 2144 L808 2144 L971 1981 Z" /></g><g class="o"><path transform="translate(4,8)" class="S sf" d="M1221 1514 L1304 1597 L1314 1597 L1231 1514 Z"/><path class="f3" d="M1221 1514 L1304 1597 L1314 1597 L1231 1514 Z" /></g><g class="o"><path transform="translate(9,18)" class="S ssv" d="M1519 1196 L1589 1266 L1589 1302 L1519 1232 Z"/><path class="sv5" d="M1519 1196 L1589 1266 L1589 1302 L1519 1232 Z" /></g><g class="o"><path transform="translate(6,12)" class="S sfh" d="M984 1379 L904 1299 L942 1299 L1022 1379 Z"/><path class="fh4" d="M984 1379 L904 1299 L942 1299 L1022 1379 Z" /></g><g class="o"><path transform="translate(7,14)" class="S sfv" d="M1549 1689 L1749 1489 L1749 1523 L1549 1723 Z"/><path class="fv7" d="M1549 1689 L1749 1489 L1749 1523 L1549 1723 Z" /></g><g class="o"><path transform="translate(6,12)" class="S sfh" d="M1681 1925 L1448 1692 L1472 1692 L1705 1925 Z"/><path class="fh3" d="M1681 1925 L1448 1692 L1472 1692 L1705 1925 Z" /></g><g class="o"><path transform="translate(5,10)" class="S sfv" d="M1847 2032 L2052 2237 L2052 2249 L1847 2044 Z"/><path class="fv3" d="M1847 2032 L2052 2237 L2052 2249 L1847 2044 Z" /></g><g class="o"><path transform="translate(6,12)" class="S sfv" d="M1786 1754 L2018 1522 L2018 1532 L1786 1764 Z"/><path class="fv4" d="M1786 1754 L2018 1522 L2018 1532 L1786 1764 Z" /></g><g class="o"><path transform="translate(7,14)" class="S sfh" d="M1522 1435 L1600 1357 L1612 1357 L1534 1435 Z"/><path class="fh6" d="M1522 1435 L1600 1357 L1612 1357 L1534 1435 Z" /></g><g class="o"><path transform="translate(3,6)" class="S sfh" d="M1785 2042 L1978 1849 L1996 1849 L1803 2042 Z"/><path class="fh7" d="M1785 2042 L1978 1849 L1996 1849 L1803 2042 Z" /></g><g class="o"><path transform="translate(4,8)" class="S sfh" d="M1124 1859 L1009 1974 L1023 1974 L1138 1859 Z"/><path class="fh1" d="M1124 1859 L1009 1974 L1023 1974 L1138 1859 Z" /></g><g class="o"><path transform="translate(3,6)" class="S ssh" d="M1273 1347 L1082 1538 L1116 1538 L1307 1347 Z"/><path class="sh3" d="M1273 1347 L1082 1538 L1116 1538 L1307 1347 Z" /></g><g class="o"><path transform="translate(4,8)" class="S sf" d="M1884 1847 L1822 1909 L1822 1933 L1884 1871 Z"/><path class="f1" d="M1884 1847 L1822 1909 L1822 1933 L1884 1871 Z" /></g><g class="o"><path transform="translate(9,18)" class="S sfv" d="M1394 1408 L1631 1645 L1631 1653 L1394 1416 Z"/><path class="fv7" d="M1394 1408 L1631 1645 L1631 1653 L1394 1416 Z" /></g><g class="o"><path transform="translate(9,18)" class="S ssv" d="M1748 1015 L1991 1258 L1991 1282 L1748 1039 Z"/><path class="sv2" d="M1748 1015 L1991 1258 L1991 1282 L1748 1039 Z" /></g><g class="o"><path transform="translate(8,16)" class="S ssv" d="M1273 1747 L1184 1658 L1184 1682 L1273 1771 Z"/><path class="sv6" d="M1273 1747 L1184 1658 L1184 1682 L1273 1771 Z" /></g><g class="o"><path transform="translate(3,6)" class="S sfv" d="M1432 1572 L2086 2226 L2086 2246 L1432 1592 Z"/><path class="fv3" d="M1432 1572 L2086 2226 L2086 2246 L1432 1592 Z" /></g><g class="o"><path transform="translate(2,4)" class="S sfh" d="M1101 1110 L1222 1231 L1244 1231 L1123 1110 Z"/><path class="fh5" d="M1101 1110 L1222 1231 L1244 1231 L1123 1110 Z" /></g><g class="o"><path transform="translate(7,14)" class="S sf" d="M1982 1943 L1930 1995 L1948 1995 L2000 1943 Z"/><path class="f6" d="M1982 1943 L1930 1995 L1948 1995 L2000 1943 Z" /></g><g class="o"><path transform="translate(6,12)" class="S sfv" d="M1752 1331 L1843 1422 L1843 1458 L1752 1367 Z"/><path class="fv6" d="M1752 1331 L1843 1422 L1843 1458 L1752 1367 Z" /></g><g class="o"><path transform="translate(7,14)" class="S ssh" d="M1072 1514 L703 1883 L741 1883 L1110 1514 Z"/><path class="sh1" d="M1072 1514 L703 1883 L741 1883 L1110 1514 Z" /></g><g class="o"><path transform="translate(7,14)" class="S ssh" d="M1880 1411 L2069 1222 L2101 1222 L1912 1411 Z"/><path class="sh6" d="M1880 1411 L2069 1222 L2101 1222 L1912 1411 Z" /></g><g class="o"><path transform="translate(2,4)" class="S sfv" d="M1405 1257 L1592 1070 L1592 1104 L1405 1291 Z"/><path class="fv7" d="M1405 1257 L1592 1070 L1592 1104 L1405 1291 Z" /></g><g class="o"><path transform="translate(2,4)" class="S sfh" d="M2038 1264 L2220 1446 L2232 1446 L2050 1264 Z"/><path class="fh6" d="M2038 1264 L2220 1446 L2232 1446 L2050 1264 Z" /></g><g class="o"><path transform="translate(8,16)" class="S sfh" d="M1694 1353 L1745 1302 L1759 1302 L1708 1353 Z"/><path class="fh1" d="M1694 1353 L1745 1302 L1759 1302 L1708 1353 Z" /></g><g class="o"><path transform="translate(2,4)" class="S sfv" d="M1089 1404 L904 1589 L904 1605 L1089 1420 Z"/><path class="fv3" d="M1089 1404 L904 1589 L904 1605 L1089 1420 Z" /></g><g class="o"><path transform="translate(3,6)" class="S sfh" d="M1701 1413 L1912 1624 L1940 1624 L1729 1413 Z"/><path class="fh3" d="M1701 1413 L1912 1624 L1940 1624 L1729 1413 Z" /></g><g class="o"><path transform="translate(3,6)" class="S ss" d="M2025 2026 L2703 2704 L2703 2716 L2025 2038 Z"/><path class="s7" d="M2025 2026 L2703 2704 L2703 2716 L2025 2038 Z" /></g><g class="o"><path transform="translate(3,6)" class="S sfh" d="M1873 1850 L1802 1779 L1832 1779 L1903 1850 Z"/><path class="fh4" d="M1873 1850 L1802 1779 L1832 1779 L1903 1850 Z" /></g><g class="o"><path transform="translate(3,6)" class="S sf" d="M2028 1565 L1829 1366 L1849 1366 L2048 1565 Z"/><path class="f3" d="M2028 1565 L1829 1366 L1849 1366 L2048 1565 Z" /></g><g class="o"><path transform="translate(5,10)" class="S sf" d="M1955 1338 L2285 1008 L2285 1046 L1955 1376 Z"/><path class="f7" d="M1955 1338 L2285 1008 L2285 1046 L1955 1376 Z" /></g><g class="o"><path transform="translate(8,16)" class="S sf" d="M1707 1533 L1901 1727 L1901 1739 L1707 1545 Z"/><path class="f1" d="M1707 1533 L1901 1727 L1901 1739 L1707 1545 Z" /></g><g class="o"><path transform="translate(5,10)" class="S sf" d="M1403 2022 L1583 1842 L1603 1842 L1423 2022 Z"/><path class="f7" d="M1403 2022 L1583 1842 L1603 1842 L1423 2022 Z" /></g><g class="o"><path transform="translate(2,4)" class="S sfh" d="M1164 1464 L1411 1217 L1431 1217 L1184 1464 Z"/><path class="fh3" d="M1164 1464 L1411 1217 L1431 1217 L1184 1464 Z" /></g><g class="o"><path transform="translate(9,18)" class="S sfh" d="M1900 1187 L2142 945 L2154 945 L1912 1187 Z"/><path class="fh6" d="M1900 1187 L2142 945 L2154 945 L1912 1187 Z" /></g><g class="o"><path transform="translate(8,16)" class="S sf" d="M1070 1218 L1409 879 L1409 911 L1070 1250 Z"/><path class="f5" d="M1070 1218 L1409 879 L1409 911 L1070 1250 Z" /></g><g class="o"><path transform="translate(9,18)" class="S sfh" d="M1580 1931 L1332 1683 L1344 1683 L1592 1931 Z"/><path class="fh5" d="M1580 1931 L1332 1683 L1344 1683 L1592 1931 Z" /></g><g class="o"><path transform="translate(4,8)" class="S sfh" d="M1008 1721 L1299 1430 L1307 1430 L1016 1721 Z"/><path class="fh6" d="M1008 1721 L1299 1430 L1307 1430 L1016 1721 Z" /></g><g class="o"><path transform="translate(9,18)" class="S ssv" d="M1610 1591 L1661 1642 L1661 1662 L1610 1611 Z"/><path class="sv6" d="M1610 1591 L1661 1642 L1661 1662 L1610 1611 Z" /></g><g class="o"><path transform="translate(4,8)" class="S sfv" d="M1880 2018 L2121 2259 L2121 2273 L1880 2032 Z"/><path class="fv6" d="M1880 2018 L2121 2259 L2121 2273 L1880 2032 Z" /></g><g class="o"><path transform="translate(6,12)" class="S sf" d="M1499 1995 L1639 1855 L1653 1855 L1513 1995 Z"/><path class="f4" d="M1499 1995 L1639 1855 L1653 1855 L1513 1995 Z" /></g><g class="o"><path transform="translate(9,18)" class="S sf" d="M1988 1644 L2126 1782 L2126 1806 L1988 1668 Z"/><path class="f2" d="M1988 1644 L2126 1782 L2126 1806 L1988 1668 Z" /></g><g class="o"><path transform="translate(6,12)" class="S sfv" d="M1713 1818 L1943 2048 L1943 2084 L1713 1854 Z"/><path class="fv2" d="M1713 1818 L1943 2048 L1943 2084 L1713 1854 Z" /></g><g class="o"><path transform="translate(5,10)" class="S ss" d="M1078 1349 L1008 1279 L1026 1279 L1096 1349 Z"/><path class="s1" d="M1078 1349 L1008 1279 L1026 1279 L1096 1349 Z" /></g><g class="o"><path transform="translate(9,18)" class="S sfv" d="M1609 945 L1743 811 L1743 849 L1609 983 Z"/><path class="fv3" d="M1609 945 L1743 811 L1743 849 L1609 983 Z" /></g><g class="o"><path transform="translate(8,16)" class="S sfh" d="M1331 1351 L1398 1284 L1410 1284 L1343 1351 Z"/><path class="fh1" d="M1331 1351 L1398 1284 L1410 1284 L1343 1351 Z" /></g><g class="o"><path transform="translate(2,4)" class="S ss" d="M1908 1040 L1674 1274 L1674 1312 L1908 1078 Z"/><path class="s5" d="M1908 1040 L1674 1274 L1674 1312 L1908 1078 Z" /></g><g class="o"><path transform="translate(3,6)" class="S sfv" d="M2013 1081 L2463 1531 L2463 1561 L2013 1111 Z"/><path class="fv7" d="M2013 1081 L2463 1531 L2463 1561 L2013 1111 Z" /></g></g><use href="#slashes" transform-origin="1500 1500" transform="rotate(180) scale(2)"/></g><rect x="1080" y="1080" width="840" height="840" stroke-width="20" class="o fs" /><use href="#slashes" transform-origin="1500 1500" transform="scale(.9)"/><use href="#slashes" transform-origin="1500 1500" transform="rotate(180) scale(.9)"/></svg>