<svg xmlns="http://www.w3.org/2000/svg" viewBox="750 750 1500 1500"><style>/*<![CDATA[*/svg{background:rgb(41,42,115);max-width:100vw;max-height:100vh}path{stroke-width:4}.o{opacity:.75}.S{opacity:.4}.sf{stroke:none;fill:black}.sfh{stroke:none;fill:url(#hs)}.sfv{stroke:none;fill:url(#vs)}.ss{stroke:black;fill:none}.ssh{stroke:url(#hs);fill:none}.ssv{stroke:url(#vs);fill:none}.s1{fill:none;stroke:rgb(79,93,117)}.f1{stroke:none;fill:rgb(79,93,117)}.sh1{fill:none;stroke:url(#h1)}.fh1{stroke:none;fill:url(#h1)}.sv1{fill:none;stroke:url(#v1)}.fv1{stroke:none;fill:url(#v1)}.s2{fill:none;stroke:rgb(45,49,66)}.f2{stroke:none;fill:rgb(45,49,66)}.sh2{fill:none;stroke:url(#h2)}.fh2{stroke:none;fill:url(#h2)}.sv2{fill:none;stroke:url(#v2)}.fv2{stroke:none;fill:url(#v2)}.s3{fill:none;stroke:rgb(255,255,255)}.f3{stroke:none;fill:rgb(255,255,255)}.sh3{fill:none;stroke:url(#h3)}.fh3{stroke:none;fill:url(#h3)}.sv3{fill:none;stroke:url(#v3)}.fv3{stroke:none;fill:url(#v3)}.s4{fill:none;stroke:rgb(34,34,34)}.f4{stroke:none;fill:rgb(34,34,34)}.sh4{fill:none;stroke:url(#h4)}.fh4{stroke:none;fill:url(#h4)}.sv4{fill:none;stroke:url(#v4)}.fv4{stroke:none;fill:url(#v4)}.s5{fill:none;stroke:rgb(191,192,192)}.f5{stroke:none;fill:rgb(191,192,192)}.sh5{fill:none;stroke:url(#h5)}.fh5{stroke:none;fill:url(#h5)}.sv5{fill:none;stroke:url(#v5)}.fv5{stroke:none;fill:url(#v5)}.s6{fill:none;stroke:rgb(255,255,255)}.f6{stroke:none;fill:rgb(255,255,255)}.sh6{fill:none;stroke:url(#h6)}.fh6{stroke:none;fill:url(#h6)}.sv6{fill:none;stroke:url(#v6)}.fv6{stroke:none;fill:url(#v6)}.s7{fill:none;stroke:rgb(255,0,0)}.f7{stroke:none;fill:rgb(255,0,0)}.sh7{fill:none;stroke:url(#h7)}.fh7{stroke:none;fill:url(#h7)}.sv7{fill:none;stroke:url(#v7)}.fv7{stroke:none;fill:url(#v7)}/*]]>*/</style><defs><linearGradient gradientTransform="rotate(90)" id="hs"><stop offset="20%" stop-color="#000" /><stop offset="95%" stop-color="rgba(0, 0, 0, 0)" /></linearGradient><linearGradient id="vs"><stop offset="20%" stop-color="#000" /><stop offset="95%" stop-color="rgba(0, 0, 0, 0)" /></linearGradient><linearGradient gradientTransform="rotate(90)" id="h1"><stop offset="20%" stop-color="rgba(79,93,117,1)" /><stop offset="95%" stop-color="rgba(79,93,117,0)" /></linearGradient><linearGradient id="v1"><stop offset="20%" stop-color="rgba(79,93,117,1)" /><stop offset="95%" stop-color="rgba(79,93,117,0)" /></linearGradient><linearGradient gradientTransform="rotate(90)" id="h2"><stop offset="20%" stop-color="rgba(45,49,66,1)" /><stop offset="95%" stop-color="rgba(45,49,66,0)" /></linearGradient><linearGradient id="v2"><stop offset="20%" stop-color="rgba(45,49,66,1)" /><stop offset="95%" stop-color="rgba(45,49,66,0)" /></linearGradient><linearGradient gradientTransform="rotate(90)" id="h3"><stop offset="20%" stop-color="rgba(255,255,255,1)" /><stop offset="95%" stop-color="rgba(255,255,255,0)" /></linearGradient><linearGradient id="v3"><stop offset="20%" stop-color="rgba(255,255,255,1)" /><stop offset="95%" stop-color="rgba(255,255,255,0)" /></linearGradient><linearGradient gradientTransform="rotate(90)" id="h4"><stop offset="20%" stop-color="rgba(34,34,34,1)" /><stop offset="95%" stop-color="rgba(34,34,34,0)" /></linearGradient><linearGradient id="v4"><stop offset="20%" stop-color="rgba(34,34,34,1)" /><stop offset="95%" stop-color="rgba(34,34,34,0)" /></linearGradient><linearGradient gradientTransform="rotate(90)" id="h5"><stop offset="20%" stop-color="rgba(191,192,192,1)" /><stop offset="95%" stop-color="rgba(191,192,192,0)" /></linearGradient><linearGradient id="v5"><stop offset="20%" stop-color="rgba(191,192,192,1)" /><stop offset="95%" stop-color="rgba(191,192,192,0)" /></linearGradient><linearGradient gradientTransform="rotate(90)" id="h6"><stop offset="20%" stop-color="rgba(255,255,255,1)" /><stop offset="95%" stop-color="rgba(255,255,255,0)" /></linearGradient><linearGradient id="v6"><stop offset="20%" stop-color="rgba(255,255,255,1)" /><stop offset="95%" stop-color="rgba(255,255,255,0)" /></linearGradient><linearGradient gradientTransform="rotate(90)" id="h7"><stop offset="20%" stop-color="rgba(255,0,0,1)" /><stop offset="95%" stop-color="rgba(255,0,0,0)" /></linearGradient><linearGradient id="v7"><stop offset="20%" stop-color="rgba(255,0,0,1)" /><stop offset="95%" stop-color="rgba(255,0,0,0)" /></linearGradient></defs><g transform-origin="1500 1500" transform="scale(2)" opacity=".2"><g id="slashes"><g class="o"><path transform="translate(5,10)" class="S sfv" d="M1890 1144 L2054 1308 L2054 1328 L1890 1164 Z"/><path class="fv2" d="M1890 1144 L2054 1308 L2054 1328 L1890 1164 Z" /></g><g class="o"><path transform="translate(2,4)" class="S sfh" d="M1827 1871 L2041 2085 L2105 2085 L1891 1871 Z"/><path class="fh3" d="M1827 1871 L2041 2085 L2105 2085 L1891 1871 Z" /></g><g class="o"><path transform="translate(8,16)" class="S sfh" d="M1465 1945 L1570 2050 L1722 2050 L1617 1945 Z"/><path class="fh5" d="M1465 1945 L1570 2050 L1722 2050 L1617 1945 Z" /></g><g class="o"><path transform="translate(6,12)" class="S sf" d="M1780 1016 L2016 1252 L2016 1404 L1780 1168 Z"/><path class="f1" d="M1780 1016 L2016 1252 L2016 1404 L1780 1168 Z" /></g><g class="o"><path transform="translate(3,6)" class="S ssh" d="M962 1135 L1036 1209 L1048 1209 L974 1135 Z"/><path class="sh2" d="M962 1135 L1036 1209 L1048 1209 L974 1135 Z" /></g><g class="o"><path transform="translate(4,8)" class="S sf" d="M1224 1564 L1326 1666 L1390 1666 L1288 1564 Z"/><path class="f6" d="M1224 1564 L1326 1666 L1390 1666 L1288 1564 Z" /></g><g class="o"><path transform="translate(6,12)" class="S sfh" d="M1665 1769 L1481 1953 L1505 1953 L1689 1769 Z"/><path class="fh4" d="M1665 1769 L1481 1953 L1505 1953 L1689 1769 Z" /></g><g class="o"><path transform="translate(7,14)" class="S sfh" d="M1430 1391 L1835 1796 L1853 1796 L1448 1391 Z"/><path class="fh1" d="M1430 1391 L1835 1796 L1853 1796 L1448 1391 Z" /></g><g class="o"><path transform="translate(8,16)" class="S ssv" d="M956 1984 L1670 2698 L1670 2706 L956 1992 Z"/><path class="sv7" d="M956 1984 L1670 2698 L1670 2706 L956 1992 Z" /></g><g class="o"><path transform="translate(4,8)" class="S sfv" d="M1300 1931 L1912 2543 L1912 2607 L1300 1995 Z"/><path class="fv3" d="M1300 1931 L1912 2543 L1912 2607 L1300 1995 Z" /></g><g class="o"><path transform="translate(8,16)" class="S sfh" d="M1915 2027 L2038 2150 L2118 2150 L1995 2027 Z"/><path class="fh6" d="M1915 2027 L2038 2150 L2118 2150 L1995 2027 Z" /></g><g class="o"><path transform="translate(6,12)" class="S sfh" d="M1026 1982 L591 2417 L687 2417 L1122 1982 Z"/><path class="fh5" d="M1026 1982 L591 2417 L687 2417 L1122 1982 Z" /></g><g class="o"><path transform="translate(5,10)" class="S sf" d="M1510 1113 L1657 1260 L1673 1260 L1526 1113 Z"/><path class="f5" d="M1510 1113 L1657 1260 L1673 1260 L1526 1113 Z" /></g><g class="o"><path transform="translate(6,12)" class="S sfv" d="M1954 1034 L2224 1304 L2224 1392 L1954 1122 Z"/><path class="fv7" d="M1954 1034 L2224 1304 L2224 1392 L1954 1122 Z" /></g><g class="o"><path transform="translate(8,16)" class="S sfh" d="M1264 1548 L640 2172 L674 2172 L1298 1548 Z"/><path class="fh5" d="M1264 1548 L640 2172 L674 2172 L1298 1548 Z" /></g><g class="o"><path transform="translate(2,4)" class="S sfh" d="M1913 1777 L2130 1994 L2218 1994 L2001 1777 Z"/><path class="fh6" d="M1913 1777 L2130 1994 L2218 1994 L2001 1777 Z" /></g><g class="o"><path transform="translate(5,10)" class="S sfh" d="M1112 2008 L1345 2241 L1385 2241 L1152 2008 Z"/><path class="fh5" d="M1112 2008 L1345 2241 L1385 2241 L1152 2008 Z" /></g><g class="o"><path transform="translate(4,8)" class="S sf" d="M1177 1674 L984 1867 L984 2011 L1177 1818 Z"/><path class="f5" d="M1177 1674 L984 1867 L984 2011 L1177 1818 Z" /></g><g class="o"><path transform="translate(4,8)" class="S sfv" d="M1341 1719 L1227 1833 L1227 1985 L1341 1871 Z"/><path class="fv1" d="M1341 1719 L1227 1833 L1227 1985 L1341 1871 Z" /></g><g class="o"><path transform="translate(4,8)" class="S sfh" d="M1968 1837 L2259 2128 L2279 2128 L1988 1837 Z"/><path class="fh4" d="M1968 1837 L2259 2128 L2279 2128 L1988 1837 Z" /></g><g class="o"><path transform="translate(8,16)" class="S sfv" d="M1581 1074 L1672 1165 L1672 1277 L1581 1186 Z"/><path class="fv2" d="M1581 1074 L1672 1165 L1672 1277 L1581 1186 Z" /></g><g class="o"><path transform="translate(9,18)" class="S sfh" d="M1442 1271 L1298 1415 L1434 1415 L1578 1271 Z"/><path class="fh2" d="M1442 1271 L1298 1415 L1434 1415 L1578 1271 Z" /></g><g class="o"><path transform="translate(4,8)" class="S sfh" d="M977 1424 L569 1832 L713 1832 L1121 1424 Z"/><path class="fh4" d="M977 1424 L569 1832 L713 1832 L1121 1424 Z" /></g><g class="o"><path transform="translate(3,6)" class="S sfh" d="M954 1247 L1070 1363 L1222 1363 L1106 1247 Z"/><path class="fh5" d="M954 1247 L1070 1363 L1222 1363 L1106 1247 Z" /></g><g class="o"><path transform="translate(7,14)" class="S sfh" d="M1439 1350 L1683 1594 L1795 1594 L1551 1350 Z"/><path class="fh7" d="M1439 1350 L1683 1594 L1795 1594 L1551 1350 Z" /></g><g class="o"><path transform="translate(9,18)" class="S sfh" d="M1715 1499 L1950 1734 L2054 1734 L1819 1499 Z"/><path class="fh7" d="M1715 1499 L1950 1734 L2054 1734 L1819 1499 Z" /></g><g class="o"><path transform="translate(6,12)" class="S sf" d="M1232 1385 L1131 1486 L1131 1622 L1232 1521 Z"/><path class="f1" d="M1232 1385 L1131 1486 L1131 1622 L1232 1521 Z" /></g><g class="o"><path transform="translate(6,12)" class="S sfh" d="M1402 1907 L1153 2156 L1173 2156 L1422 1907 Z"/><path class="fh1" d="M1402 1907 L1153 2156 L1173 2156 L1422 1907 Z" /></g><g class="o"><path transform="translate(3,6)" class="S sfv" d="M1540 1887 L1363 2064 L1363 2144 L1540 1967 Z"/><path class="fv6" d="M1540 1887 L1363 2064 L1363 2144 L1540 1967 Z" /></g><g class="o"><path transform="translate(2,4)" class="S sfv" d="M1875 1450 L2014 1589 L2014 1685 L1875 1546 Z"/><path class="fv2" d="M1875 1450 L2014 1589 L2014 1685 L1875 1546 Z" /></g><g class="o"><path transform="translate(6,12)" class="S ssh" d="M1184 1455 L1402 1673 L1530 1673 L1312 1455 Z"/><path class="sh4" d="M1184 1455 L1402 1673 L1530 1673 L1312 1455 Z" /></g><g class="o"><path transform="translate(5,10)" class="S sfv" d="M1375 943 L1021 1297 L1021 1329 L1375 975 Z"/><path class="fv1" d="M1375 943 L1021 1297 L1021 1329 L1375 975 Z" /></g><g class="o"><path transform="translate(6,12)" class="S sf" d="M1800 1947 L1582 2165 L1606 2165 L1824 1947 Z"/><path class="f2" d="M1800 1947 L1582 2165 L1606 2165 L1824 1947 Z" /></g><g class="o"><path transform="translate(2,4)" class="S sfv" d="M1805 1187 L1955 1337 L1955 1425 L1805 1275 Z"/><path class="fv1" d="M1805 1187 L1955 1337 L1955 1425 L1805 1275 Z" /></g><g class="o"><path transform="translate(2,4)" class="S sfv" d="M1039 1152 L1190 1303 L1190 1367 L1039 1216 Z"/><path class="fv5" d="M1039 1152 L1190 1303 L1190 1367 L1039 1216 Z" /></g><g class="o"><path transform="translate(3,6)" class="S sf" d="M1401 1404 L1510 1513 L1558 1513 L1449 1404 Z"/><path class="f6" d="M1401 1404 L1510 1513 L1558 1513 L1449 1404 Z" /></g><g class="o"><path transform="translate(3,6)" class="S sfh" d="M1047 1573 L1584 2110 L1656 2110 L1119 1573 Z"/><path class="fh4" d="M1047 1573 L1584 2110 L1656 2110 L1119 1573 Z" /></g><g class="o"><path transform="translate(2,4)" class="S ssv" d="M1521 2005 L1765 2249 L1765 2281 L1521 2037 Z"/><path class="sv5" d="M1521 2005 L1765 2249 L1765 2281 L1521 2037 Z" /></g><g class="o"><path transform="translate(6,12)" class="S sfv" d="M1181 906 L1418 1143 L1418 1231 L1181 994 Z"/><path class="fv1" d="M1181 906 L1418 1143 L1418 1231 L1181 994 Z" /></g><g class="o"><path transform="translate(7,14)" class="S sfv" d="M1487 1359 L1279 1567 L1279 1631 L1487 1423 Z"/><path class="fv6" d="M1487 1359 L1279 1567 L1279 1631 L1487 1423 Z" /></g><g class="o"><path transform="translate(6,12)" class="S sfh" d="M1153 1891 L1332 2070 L1372 2070 L1193 1891 Z"/><path class="fh1" d="M1153 1891 L1332 2070 L1372 2070 L1193 1891 Z" /></g><g class="o"><path transform="translate(2,4)" class="S sfv" d="M1548 2018 L2076 2546 L2076 2572 L1548 2044 Z"/><path class="fv6" d="M1548 2018 L2076 2546 L2076 2572 L1548 2044 Z" /></g><g class="o"><path transform="translate(6,12)" class="S sfv" d="M1586 1930 L1741 2085 L1741 2221 L1586 2066 Z"/><path class="fv4" d="M1586 1930 L1741 2085 L1741 2221 L1586 2066 Z" /></g><g class="o"><path transform="translate(9,18)" class="S sfh" d="M919 1051 L1070 1202 L1206 1202 L1055 1051 Z"/><path class="fh7" d="M919 1051 L1070 1202 L1206 1202 L1055 1051 Z" /></g><g class="o"><path transform="translate(4,8)" class="S sfv" d="M1926 1754 L2097 1925 L2097 2021 L1926 1850 Z"/><path class="fv2" d="M1926 1754 L2097 1925 L2097 2021 L1926 1850 Z" /></g><g class="o"><path transform="translate(6,12)" class="S sf" d="M1959 1840 L2156 2037 L2156 2157 L1959 1960 Z"/><path class="f1" d="M1959 1840 L2156 2037 L2156 2157 L1959 1960 Z" /></g><g class="o"><path transform="translate(3,6)" class="S sf" d="M1814 1667 L2456 2309 L2456 2365 L1814 1723 Z"/><path class="f5" d="M1814 1667 L2456 2309 L2456 2365 L1814 1723 Z" /></g><g class="o"><path transform="translate(5,10)" class="S sfh" d="M939 1139 L1176 1376 L1288 1376 L1051 1139 Z"/><path class="fh5" d="M939 1139 L1176 1376 L1288 1376 L1051 1139 Z" /></g><g class="o"><path transform="translate(7,14)" class="S ssh" d="M1323 1257 L1467 1401 L1477 1401 L1333 1257 Z"/><path class="sh5" d="M1323 1257 L1467 1401 L1477 1401 L1333 1257 Z" /></g><g class="o"><path transform="translate(3,6)" class="S ssv" d="M1180 2004 L1406 2230 L1406 2246 L1180 2020 Z"/><path class="sv4" d="M1180 2004 L1406 2230 L1406 2246 L1180 2020 Z" /></g><g class="o"><path transform="translate(3,6)" class="S ssv" d="M1118 1742 L885 1975 L885 1993 L1118 1760 Z"/><path class="sv6" d="M1118 1742 L885 1975 L885 1993 L1118 1760 Z" /></g><g class="o"><path transform="translate(9,18)" class="S ssh" d="M1841 1954 L2213 2326 L2243 2326 L1871 1954 Z"/><path class="sh2" d="M1841 1954 L2213 2326 L2243 2326 L1871 1954 Z" /></g><g class="o"><path transform="translate(4,8)" class="S sfh" d="M1873 1904 L1943 1974 L1975 1974 L1905 1904 Z"/><path class="fh5" d="M1873 1904 L1943 1974 L1975 1974 L1905 1904 Z" /></g><g class="o"><path transform="translate(3,6)" class="S ssv" d="M1186 1362 L1118 1430 L1118 1478 L1186 1410 Z"/><path class="sv1" d="M1186 1362 L1118 1430 L1118 1478 L1186 1410 Z" /></g><g class="o"><path transform="translate(3,6)" class="S sf" d="M1088 1886 L1336 2134 L1336 2214 L1088 1966 Z"/><path class="f3" d="M1088 1886 L1336 2134 L1336 2214 L1088 1966 Z" /></g><g class="o"><path transform="translate(7,14)" class="S sfh" d="M1733 1580 L1851 1698 L1883 1698 L1765 1580 Z"/><path class="fh4" d="M1733 1580 L1851 1698 L1883 1698 L1765 1580 Z" /></g><g class="o"><path transform="translate(4,8)" class="S sfv" d="M958 1327 L1067 1436 L1067 1540 L958 1431 Z"/><path class="fv2" d="M958 1327 L1067 1436 L1067 1540 L958 1431 Z" /></g><g class="o"><path transform="translate(3,6)" class="S ssh" d="M1620 1532 L1678 1590 L1806 1590 L1748 1532 Z"/><path class="sh4" d="M1620 1532 L1678 1590 L1806 1590 L1748 1532 Z" /></g><g class="o"><path transform="translate(4,8)" class="S sfh" d="M1925 1630 L2087 1792 L2127 1792 L1965 1630 Z"/><path class="fh7" d="M1925 1630 L2087 1792 L2127 1792 L1965 1630 Z" /></g><g class="o"><path transform="translate(8,16)" class="S sf" d="M2005 956 L2056 1007 L2120 1007 L2069 956 Z"/><path class="f2" d="M2005 956 L2056 1007 L2120 1007 L2069 956 Z" /></g><g class="o"><path transform="translate(6,12)" class="S sfv" d="M975 1907 L850 2032 L850 2112 L975 1987 Z"/><path class="fv1" d="M975 1907 L850 2032 L850 2112 L975 1987 Z" /></g><g class="o"><path transform="translate(2,4)" class="S sfh" d="M1909 1155 L2103 1349 L2127 1349 L1933 1155 Z"/><path class="fh3" d="M1909 1155 L2103 1349 L2127 1349 L1933 1155 Z" /></g><g class="o"><path transform="translate(6,12)" class="S sfv" d="M1711 1264 L1863 1416 L1863 1428 L1711 1276 Z"/><path class="fv7" d="M1711 1264 L1863 1416 L1863 1428 L1711 1276 Z" /></g><g class="o"><path transform="translate(3,6)" class="S sf" d="M1709 1757 L1782 1830 L1782 1974 L1709 1901 Z"/><path class="f2" d="M1709 1757 L1782 1830 L1782 1974 L1709 1901 Z" /></g><g class="o"><path transform="translate(7,14)" class="S sfv" d="M1808 1443 L1620 1631 L1620 1653 L1808 1465 Z"/><path class="fv2" d="M1808 1443 L1620 1631 L1620 1653 L1808 1465 Z" /></g><g class="o"><path transform="translate(2,4)" class="S sfh" d="M989 1996 L1216 2223 L1280 2223 L1053 1996 Z"/><path class="fh2" d="M989 1996 L1216 2223 L1280 2223 L1053 1996 Z" /></g><g class="o"><path transform="translate(5,10)" class="S sfv" d="M1120 1317 L1062 1375 L1062 1395 L1120 1337 Z"/><path class="fv7" d="M1120 1317 L1062 1375 L1062 1395 L1120 1337 Z" /></g><g class="o"><path transform="translate(9,18)" class="S sfv" d="M1740 1086 L1855 1201 L1855 1241 L1740 1126 Z"/><path class="fv6" d="M1740 1086 L1855 1201 L1855 1241 L1740 1126 Z" /></g><g class="o"><path transform="translate(7,14)" class="S ssh" d="M1158 1814 L1416 2072 L1464 2072 L1206 1814 Z"/><path class="sh2" d="M1158 1814 L1416 2072 L1464 2072 L1206 1814 Z" /></g><g class="o"><path transform="translate(4,8)" class="S sfv" d="M1987 1531 L2671 2215 L2671 2335 L1987 1651 Z"/><path class="fv2" d="M1987 1531 L2671 2215 L2671 2335 L1987 1651 Z" /></g><g class="o"><path transform="translate(6,12)" class="S sfh" d="M1509 1808 L1725 2024 L1751 2024 L1535 1808 Z"/><path class="fh2" d="M1509 1808 L1725 2024 L1751 2024 L1535 1808 Z" /></g><g class="o"><path transform="translate(8,16)" class="S sfv" d="M1864 1075 L2386 1597 L2386 1669 L1864 1147 Z"/><path class="fv1" d="M1864 1075 L2386 1597 L2386 1669 L1864 1147 Z" /></g><g class="o"><path transform="translate(4,8)" class="S sfh" d="M1829 1281 L2027 1479 L2147 1479 L1949 1281 Z"/><path class="fh5" d="M1829 1281 L2027 1479 L2147 1479 L1949 1281 Z" /></g><g class="o"><path transform="translate(4,8)" class="S sfv" d="M1554 1126 L1728 1300 L1728 1452 L1554 1278 Z"/><path class="fv1" d="M1554 1126 L1728 1300 L1728 1452 L1554 1278 Z" /></g><g class="o"><path transform="translate(4,8)" class="S sfv" d="M1231 1948 L1367 2084 L1367 2108 L1231 1972 Z"/><path class="fv2" d="M1231 1948 L1367 2084 L1367 2108 L1231 1972 Z" /></g><g class="o"><path transform="translate(2,4)" class="S sfh" d="M1077 1546 L1286 1755 L1382 1755 L1173 1546 Z"/><path class="fh5" d="M1077 1546 L1286 1755 L1382 1755 L1173 1546 Z" /></g><g class="o"><path transform="translate(5,10)" class="S sfv" d="M1436 1260 L1506 1330 L1506 1362 L1436 1292 Z"/><path class="fv4" d="M1436 1260 L1506 1330 L1506 1362 L1436 1292 Z" /></g><g class="o"><path transform="translate(4,8)" class="S sfh" d="M972 1260 L1206 1494 L1262 1494 L1028 1260 Z"/><path class="fh1" d="M972 1260 L1206 1494 L1262 1494 L1028 1260 Z" /></g><g class="o"><path transform="translate(5,10)" class="S ssv" d="M1761 1774 L1985 1998 L1985 2038 L1761 1814 Z"/><path class="sv4" d="M1761 1774 L1985 1998 L1985 2038 L1761 1814 Z" /></g><g class="o"><path transform="translate(9,18)" class="S sf" d="M1060 1409 L1363 1712 L1515 1712 L1212 1409 Z"/><path class="f7" d="M1060 1409 L1363 1712 L1515 1712 L1212 1409 Z" /></g><g class="o"><path transform="translate(5,10)" class="S ss" d="M1654 1570 L1803 1719 L1859 1719 L1710 1570 Z"/><path class="s7" d="M1654 1570 L1803 1719 L1859 1719 L1710 1570 Z" /></g><g class="o"><path transform="translate(4,8)" class="S ss" d="M1671 1964 L1757 2050 L1869 2050 L1783 1964 Z"/><path class="s3" d="M1671 1964 L1757 2050 L1869 2050 L1783 1964 Z" /></g><g class="o"><path transform="translate(3,6)" class="S ssv" d="M1497 970 L1358 1109 L1358 1181 L1497 1042 Z"/><path class="sv1" d="M1497 970 L1358 1109 L1358 1181 L1497 1042 Z" /></g><g class="o"><path transform="translate(7,14)" class="S sfv" d="M1833 1707 L1921 1795 L1921 1907 L1833 1819 Z"/><path class="fv3" d="M1833 1707 L1921 1795 L1921 1907 L1833 1819 Z" /></g><g class="o"><path transform="translate(2,4)" class="S ssh" d="M2018 1352 L2080 1414 L2108 1414 L2046 1352 Z"/><path class="sh2" d="M2018 1352 L2080 1414 L2108 1414 L2046 1352 Z" /></g><g class="o"><path transform="translate(9,18)" class="S sf" d="M977 1690 L1201 1914 L1345 1914 L1121 1690 Z"/><path class="f3" d="M977 1690 L1201 1914 L1345 1914 L1121 1690 Z" /></g><g class="o"><path transform="translate(7,14)" class="S sf" d="M1349 1555 L1526 1732 L1526 1796 L1349 1619 Z"/><path class="f7" d="M1349 1555 L1526 1732 L1526 1796 L1349 1619 Z" /></g><g class="o"><path transform="translate(2,4)" class="S sfh" d="M1478 1809 L1540 1871 L1550 1871 L1488 1809 Z"/><path class="fh2" d="M1478 1809 L1540 1871 L1550 1871 L1488 1809 Z" /></g><g class="o"><path transform="translate(7,14)" class="S ssv" d="M1750 1988 L1641 2097 L1641 2107 L1750 1998 Z"/><path class="sv4" d="M1750 1988 L1641 2097 L1641 2107 L1750 1998 Z" /></g><g class="o"><path transform="translate(7,14)" class="S ssv" d="M1497 1642 L1406 1733 L1406 1789 L1497 1698 Z"/><path class="sv1" d="M1497 1642 L1406 1733 L1406 1789 L1497 1698 Z" /></g><g class="o"><path transform="translate(7,14)" class="S ssv" d="M1038 1122 L846 1314 L846 1442 L1038 1250 Z"/><path class="sv5" d="M1038 1122 L846 1314 L846 1442 L1038 1250 Z" /></g><g class="o"><path transform="translate(8,16)" class="S sf" d="M1507 1438 L1670 1601 L1670 1623 L1507 1460 Z"/><path class="f3" d="M1507 1438 L1670 1601 L1670 1623 L1507 1460 Z" /></g><g class="o"><path transform="translate(8,16)" class="S sfv" d="M1637 1426 L1812 1601 L1812 1623 L1637 1448 Z"/><path class="fv1" d="M1637 1426 L1812 1601 L1812 1623 L1637 1448 Z" /></g><g class="o"><path transform="translate(9,18)" class="S sfh" d="M1162 1572 L784 1950 L936 1950 L1314 1572 Z"/><path class="fh2" d="M1162 1572 L784 1950 L936 1950 L1314 1572 Z" /></g><g class="o"><path transform="translate(9,18)" class="S sfv" d="M1939 1490 L1774 1655 L1774 1691 L1939 1526 Z"/><path class="fv3" d="M1939 1490 L1774 1655 L1774 1691 L1939 1526 Z" /></g><g class="o"><path transform="translate(7,14)" class="S sfh" d="M1164 1768 L1276 1880 L1396 1880 L1284 1768 Z"/><path class="fh7" d="M1164 1768 L1276 1880 L1396 1880 L1284 1768 Z" /></g><g class="o"><path transform="translate(2,4)" class="S ssv" d="M1951 1894 L2058 2001 L2058 2041 L1951 1934 Z"/><path class="sv7" d="M1951 1894 L2058 2001 L2058 2041 L1951 1934 Z" /></g><g class="o"><path transform="translate(8,16)" class="S sfv" d="M1596 1655 L2136 2195 L2136 2225 L1596 1685 Z"/><path class="fv6" d="M1596 1655 L2136 2195 L2136 2225 L1596 1685 Z" /></g><g class="o"><path transform="translate(7,14)" class="S sfh" d="M1184 1780 L1323 1919 L1411 1919 L1272 1780 Z"/><path class="fh1" d="M1184 1780 L1323 1919 L1411 1919 L1272 1780 Z" /></g><g class="o"><path transform="translate(3,6)" class="S sfv" d="M1845 1313 L2181 1649 L2181 1801 L1845 1465 Z"/><path class="fv3" d="M1845 1313 L2181 1649 L2181 1801 L1845 1465 Z" /></g><g class="o"><path transform="translate(3,6)" class="S sf" d="M1793 1265 L1860 1332 L1860 1436 L1793 1369 Z"/><path class="f7" d="M1793 1265 L1860 1332 L1860 1436 L1793 1369 Z" /></g><g class="o"><path transform="translate(8,16)" class="S ssh" d="M1815 1271 L2005 1461 L2109 1461 L1919 1271 Z"/><path class="sh4" d="M1815 1271 L2005 1461 L2109 1461 L1919 1271 Z" /></g><g class="o"><path transform="translate(3,6)" class="S sfv" d="M2020 1666 L2257 1903 L2257 2007 L2020 1770 Z"/><path class="fv1" d="M2020 1666 L2257 1903 L2257 2007 L2020 1770 Z" /></g><g class="o"><path transform="translate(3,6)" class="S ss" d="M1763 1465 L1660 1568 L1812 1568 L1915 1465 Z"/><path class="s5" d="M1763 1465 L1660 1568 L1812 1568 L1915 1465 Z" /></g><g class="o"><path transform="translate(3,6)" class="S sfh" d="M1396 1431 L1990 2025 L2142 2025 L1548 1431 Z"/><path class="fh7" d="M1396 1431 L1990 2025 L2142 2025 L1548 1431 Z" /></g><g class="o"><path transform="translate(9,18)" class="S sfh" d="M1348 1485 L1555 1692 L1587 1692 L1380 1485 Z"/><path class="fh7" d="M1348 1485 L1555 1692 L1587 1692 L1380 1485 Z" /></g><g class="o"><path transform="translate(8,16)" class="S sfv" d="M1483 1473 L1705 1695 L1705 1729 L1483 1507 Z"/><path class="fv5" d="M1483 1473 L1705 1695 L1705 1729 L1483 1507 Z" /></g><g class="o"><path transform="translate(9,18)" class="S sfv" d="M1303 1566 L1547 1810 L1547 1838 L1303 1594 Z"/><path class="fv2" d="M1303 1566 L1547 1810 L1547 1838 L1303 1594 Z" /></g><g class="o"><path transform="translate(8,16)" class="S sfh" d="M1202 967 L1360 1125 L1370 1125 L1212 967 Z"/><path class="fh3" d="M1202 967 L1360 1125 L1370 1125 L1212 967 Z" /></g><g class="o"><path transform="translate(9,18)" class="S sfh" d="M1499 1915 L1640 2056 L1760 2056 L1619 1915 Z"/><path class="fh5" d="M1499 1915 L1640 2056 L1760 2056 L1619 1915 Z" /></g><g class="o"><path transform="translate(8,16)" class="S sfh" d="M1662 1523 L1865 1726 L1993 1726 L1790 1523 Z"/><path class="fh4" d="M1662 1523 L1865 1726 L1993 1726 L1790 1523 Z" /></g><g class="o"><path transform="translate(8,16)" class="S sfv" d="M1448 1371 L1661 1584 L1661 1632 L1448 1419 Z"/><path class="fv3" d="M1448 1371 L1661 1584 L1661 1632 L1448 1419 Z" /></g><g class="o"><path transform="translate(5,10)" class="S sf" d="M1992 1836 L2649 2493 L2681 2493 L2024 1836 Z"/><path class="f3" d="M1992 1836 L2649 2493 L2681 2493 L2024 1836 Z" /></g><g class="o"><path transform="translate(4,8)" class="S sfv" d="M1221 1679 L1469 1927 L1469 1999 L1221 1751 Z"/><path class="fv4" d="M1221 1679 L1469 1927 L1469 1999 L1221 1751 Z" /></g><g class="o"><path transform="translate(2,4)" class="S ss" d="M2040 1869 L2237 2066 L2237 2218 L2040 2021 Z"/><path class="s7" d="M2040 1869 L2237 2066 L2237 2218 L2040 2021 Z" /></g><g class="o"><path transform="translate(2,4)" class="S sf" d="M1242 1190 L1377 1325 L1465 1325 L1330 1190 Z"/><path class="f4" d="M1242 1190 L1377 1325 L1465 1325 L1330 1190 Z" /></g><g class="o"><path transform="translate(5,10)" class="S ssv" d="M1851 967 L2130 1246 L2130 1258 L1851 979 Z"/><path class="sv4" d="M1851 967 L2130 1246 L2130 1258 L1851 979 Z" /></g><g class="o"><path transform="translate(7,14)" class="S sfh" d="M1887 1716 L1998 1827 L2018 1827 L1907 1716 Z"/><path class="fh6" d="M1887 1716 L1998 1827 L2018 1827 L1907 1716 Z" /></g><g class="o"><path transform="translate(8,16)" class="S sfv" d="M1792 1649 L1591 1850 L1591 1882 L1792 1681 Z"/><path class="fv1" d="M1792 1649 L1591 1850 L1591 1882 L1792 1681 Z" /></g><g class="o"><path transform="translate(8,16)" class="S sfh" d="M1115 1890 L1332 2107 L1352 2107 L1135 1890 Z"/><path class="fh3" d="M1115 1890 L1332 2107 L1352 2107 L1135 1890 Z" /></g><g class="o"><path transform="translate(4,8)" class="S sf" d="M1334 1877 L1465 2008 L1465 2044 L1334 1913 Z"/><path class="f2" d="M1334 1877 L1465 2008 L1465 2044 L1334 1913 Z" /></g><g class="o"><path transform="translate(6,12)" class="S sfh" d="M939 1440 L737 1642 L873 1642 L1075 1440 Z"/><path class="fh4" d="M939 1440 L737 1642 L873 1642 L1075 1440 Z" /></g><g class="o"><path transform="translate(7,14)" class="S ssh" d="M1325 1512 L1628 1815 L1658 1815 L1355 1512 Z"/><path class="sh3" d="M1325 1512 L1628 1815 L1658 1815 L1355 1512 Z" /></g><g class="o"><path transform="translate(3,6)" class="S sf" d="M1298 1338 L1510 1550 L1522 1550 L1310 1338 Z"/><path class="f4" d="M1298 1338 L1510 1550 L1522 1550 L1310 1338 Z" /></g><g class="o"><path transform="translate(4,8)" class="S ssv" d="M1020 1867 L1650 2497 L1650 2593 L1020 1963 Z"/><path class="sv2" d="M1020 1867 L1650 2497 L1650 2593 L1020 1963 Z" /></g><g class="o"><path transform="translate(9,18)" class="S sfv" d="M1539 1076 L1663 1200 L1663 1248 L1539 1124 Z"/><path class="fv4" d="M1539 1076 L1663 1200 L1663 1248 L1539 1124 Z" /></g><g class="o"><path transform="translate(3,6)" class="S ssh" d="M1250 1033 L1161 1122 L1193 1122 L1282 1033 Z"/><path class="sh7" d="M1250 1033 L1161 1122 L1193 1122 L1282 1033 Z" /></g><g class="o"><path transform="translate(7,14)" class="S sfh" d="M1291 1371 L1055 1607 L1143 1607 L1379 1371 Z"/><path class="fh2" d="M1291 1371 L1055 1607 L1143 1607 L1379 1371 Z" /></g><g class="o"><path transform="translate(6,12)" class="S sfh" d="M1160 1281 L1619 1740 L1639 1740 L1180 1281 Z"/><path class="fh2" d="M1160 1281 L1619 1740 L1639 1740 L1180 1281 Z" /></g><g class="o"><path transform="translate(4,8)" class="S sf" d="M1712 1165 L2414 1867 L2542 1867 L1840 1165 Z"/><path class="f3" d="M1712 1165 L2414 1867 L2542 1867 L1840 1165 Z" /></g><g class="o"><path transform="translate(3,6)" class="S sf" d="M1633 1937 L1711 2015 L1759 2015 L1681 1937 Z"/><path class="f3" d="M1633 1937 L1711 2015 L1759 2015 L1681 1937 Z" /></g><g class="o"><path transform="translate(2,4)" class="S sf" d="M1190 1459 L1400 1669 L1496 1669 L1286 1459 Z"/><path class="f6" d="M1190 1459 L1400 1669 L1496 1669 L1286 1459 Z" /></g><g class="o"><path transform="translate(4,8)" class="S sf" d="M1411 987 L1573 1149 L1701 1149 L1539 987 Z"/><path class="f4" d="M1411 987 L1573 1149 L1701 1149 L1539 987 Z" /></g><g class="o"><path transform="translate(3,6)" class="S sfh" d="M1544 2044 L1649 2149 L1679 2149 L1574 2044 Z"/><path class="fh4" d="M1544 2044 L1649 2149 L1679 2149 L1574 2044 Z" /></g><g class="o"><path transform="translate(9,18)" class="S sfv" d="M1371 951 L1500 1080 L1500 1184 L1371 1055 Z"/><path class="fv4" d="M1371 951 L1500 1080 L1500 1184 L1371 1055 Z" /></g><g class="o"><path transform="translate(8,16)" class="S sfh" d="M1780 1962 L2027 2209 L2059 2209 L1812 1962 Z"/><path class="fh7" d="M1780 1962 L2027 2209 L2059 2209 L1812 1962 Z" /></g><g class="o"><path transform="translate(3,6)" class="S sfh" d="M1394 1123 L1525 1254 L1677 1254 L1546 1123 Z"/><path class="fh1" d="M1394 1123 L1525 1254 L1677 1254 L1546 1123 Z" /></g><g class="o"><path transform="translate(3,6)" class="S sfv" d="M1779 1282 L2014 1517 L2014 1547 L1779 1312 Z"/><path class="fv4" d="M1779 1282 L2014 1517 L2014 1547 L1779 1312 Z" /></g><g class="o"><path transform="translate(8,16)" class="S sf" d="M1727 1920 L1908 2101 L1908 2165 L1727 1984 Z"/><path class="f4" d="M1727 1920 L1908 2101 L1908 2165 L1727 1984 Z" /></g><g class="o"><path transform="translate(5,10)" class="S ssh" d="M1786 1577 L1838 1629 L1894 1629 L1842 1577 Z"/><path class="sh3" d="M1786 1577 L1838 1629 L1894 1629 L1842 1577 Z" /></g><g class="o"><path transform="translate(4,8)" class="S sf" d="M1694 1426 L1602 1518 L1602 1566 L1694 1474 Z"/><path class="f6" d="M1694 1426 L1602 1518 L1602 1566 L1694 1474 Z" /></g><g class="o"><path transform="translate(3,6)" class="S ssh" d="M1086 2037 L1158 2109 L1230 2109 L1158 2037 Z"/><path class="sh6" d="M1086 2037 L1158 2109 L1230 2109 L1158 2037 Z" /></g><g class="o"><path transform="translate(6,12)" class="S sfv" d="M1232 1806 L1400 1974 L1400 2070 L1232 1902 Z"/><path class="fv2" d="M1232 1806 L1400 1974 L1400 2070 L1232 1902 Z" /></g><g class="o"><path transform="translate(9,18)" class="S ssh" d="M1865 980 L1651 1194 L1715 1194 L1929 980 Z"/><path class="sh1" d="M1865 980 L1651 1194 L1715 1194 L1929 980 Z" /></g><g class="o"><path transform="translate(7,14)" class="S sfh" d="M1448 1710 L1505 1767 L1649 1767 L1592 1710 Z"/><path class="fh7" d="M1448 1710 L1505 1767 L1649 1767 L1592 1710 Z" /></g><g class="o"><path transform="translate(5,10)" class="S sfv" d="M1062 1628 L1152 1718 L1152 1790 L1062 1700 Z"/><path class="fv7" d="M1062 1628 L1152 1718 L1152 1790 L1062 1700 Z" /></g><g class="o"><path transform="translate(2,4)" class="S sfv" d="M1195 1603 L1268 1676 L1268 1706 L1195 1633 Z"/><path class="fv3" d="M1195 1603 L1268 1676 L1268 1706 L1195 1633 Z" /></g><g class="o"><path transform="translate(7,14)" class="S ssh" d="M1652 1082 L1811 1241 L1963 1241 L1804 1082 Z"/><path class="sh3" d="M1652 1082 L1811 1241 L1963 1241 L1804 1082 Z" /></g><g class="o"><path transform="translate(6,12)" class="S ssv" d="M2005 1276 L2134 1405 L2134 1541 L2005 1412 Z"/><path class="sv7" d="M2005 1276 L2134 1405 L2134 1541 L2005 1412 Z" /></g><g class="o"><path transform="translate(8,16)" class="S sf" d="M1612 1243 L1751 1382 L1779 1382 L1640 1243 Z"/><path class="f4" d="M1612 1243 L1751 1382 L1779 1382 L1640 1243 Z" /></g></g><use href="#slashes" transform-origin="1500 1500" transform="rotate(180) scale(2)"/></g><polyline points="1500,1010 1990,1500 1500,1990 1010,1500 1500,1010 1990,1500" stroke-width="160" class="o s1" /><use href="#slashes" transform-origin="1500 1500" transform="scale(.9)"/><use href="#slashes" transform-origin="1500 1500" transform="rotate(180) scale(.9)"/></svg>