<svg xmlns="http://www.w3.org/2000/svg" viewBox="750 750 1500 1500"><style>/*<![CDATA[*/svg{background:rgb(246,81,29);max-width:100vw;max-height:100vh}path{stroke-width:4}.o{opacity:.75}.S{opacity:.4}.sf{stroke:none;fill:black}.sfh{stroke:none;fill:url(#hs)}.sfv{stroke:none;fill:url(#vs)}.ss{stroke:black;fill:none}.ssh{stroke:url(#hs);fill:none}.ssv{stroke:url(#vs);fill:none}.s1{fill:none;stroke:rgb(255,180,0)}.f1{stroke:none;fill:rgb(255,180,0)}.sh1{fill:none;stroke:url(#h1)}.fh1{stroke:none;fill:url(#h1)}.sv1{fill:none;stroke:url(#v1)}.fv1{stroke:none;fill:url(#v1)}.s2{fill:none;stroke:rgb(13,44,84)}.f2{stroke:none;fill:rgb(13,44,84)}.sh2{fill:none;stroke:url(#h2)}.fh2{stroke:none;fill:url(#h2)}.sv2{fill:none;stroke:url(#v2)}.fv2{stroke:none;fill:url(#v2)}.s3{fill:none;stroke:rgb(41,42,115)}.f3{stroke:none;fill:rgb(41,42,115)}.sh3{fill:none;stroke:url(#h3)}.fh3{stroke:none;fill:url(#h3)}.sv3{fill:none;stroke:url(#v3)}.fv3{stroke:none;fill:url(#v3)}.s4{fill:none;stroke:rgb(0,166,237)}.f4{stroke:none;fill:rgb(0,166,237)}.sh4{fill:none;stroke:url(#h4)}.fh4{stroke:none;fill:url(#h4)}.sv4{fill:none;stroke:url(#v4)}.fv4{stroke:none;fill:url(#v4)}.s5{fill:none;stroke:rgb(34,34,34)}.f5{stroke:none;fill:rgb(34,34,34)}.sh5{fill:none;stroke:url(#h5)}.fh5{stroke:none;fill:url(#h5)}.sv5{fill:none;stroke:url(#v5)}.fv5{stroke:none;fill:url(#v5)}.s6{fill:none;stroke:rgb(255,255,255)}.f6{stroke:none;fill:rgb(255,255,255)}.sh6{fill:none;stroke:url(#h6)}.fh6{stroke:none;fill:url(#h6)}.sv6{fill:none;stroke:url(#v6)}.fv6{stroke:none;fill:url(#v6)}.s7{fill:none;stroke:rgb(255,0,0)}.f7{stroke:none;fill:rgb(255,0,0)}.sh7{fill:none;stroke:url(#h7)}.fh7{stroke:none;fill:url(#h7)}.sv7{fill:none;stroke:url(#v7)}.fv7{stroke:none;fill:url(#v7)}/*]]>*/</style><defs><linearGradient gradientTransform="rotate(90)" id="hs"><stop offset="20%" stop-color="#000" /><stop offset="95%" stop-color="rgba(0, 0, 0, 0)" /></linearGradient><linearGradient id="vs"><stop offset="20%" stop-color="#000" /><stop offset="95%" stop-color="rgba(0, 0, 0, 0)" /></linearGradient><linearGradient gradientTransform="rotate(90)" id="h1"><stop offset="20%" stop-color="rgba(255,180,0,1)" /><stop offset="95%" stop-color="rgba(255,180,0,0)" /></linearGradient><linearGradient id="v1"><stop offset="20%" stop-color="rgba(255,180,0,1)" /><stop offset="95%" stop-color="rgba(255,180,0,0)" /></linearGradient><linearGradient gradientTransform="rotate(90)" id="h2"><stop offset="20%" stop-color="rgba(13,44,84,1)" /><stop offset="95%" stop-color="rgba(13,44,84,0)" /></linearGradient><linearGradient id="v2"><stop offset="20%" stop-color="rgba(13,44,84,1)" /><stop offset="95%" stop-color="rgba(13,44,84,0)" /></linearGradient><linearGradient gradientTransform="rotate(90)" id="h3"><stop offset="20%" stop-color="rgba(41,42,115,1)" /><stop offset="95%" stop-color="rgba(41,42,115,0)" /></linearGradient><linearGradient id="v3"><stop offset="20%" stop-color="rgba(41,42,115,1)" /><stop offset="95%" stop-color="rgba(41,42,115,0)" /></linearGradient><linearGradient gradientTransform="rotate(90)" id="h4"><stop offset="20%" stop-color="rgba(0,166,237,1)" /><stop offset="95%" stop-color="rgba(0,166,237,0)" /></linearGradient><linearGradient id="v4"><stop offset="20%" stop-color="rgba(0,166,237,1)" /><stop offset="95%" stop-color="rgba(0,166,237,0)" /></linearGradient><linearGradient gradientTransform="rotate(90)" id="h5"><stop offset="20%" stop-color="rgba(34,34,34,1)" /><stop offset="95%" stop-color="rgba(34,34,34,0)" /></linearGradient><linearGradient id="v5"><stop offset="20%" stop-color="rgba(34,34,34,1)" /><stop offset="95%" stop-color="rgba(34,34,34,0)" /></linearGradient><linearGradient gradientTransform="rotate(90)" id="h6"><stop offset="20%" stop-color="rgba(255,255,255,1)" /><stop offset="95%" stop-color="rgba(255,255,255,0)" /></linearGradient><linearGradient id="v6"><stop offset="20%" stop-color="rgba(255,255,255,1)" /><stop offset="95%" stop-color="rgba(255,255,255,0)" /></linearGradient><linearGradient gradientTransform="rotate(90)" id="h7"><stop offset="20%" stop-color="rgba(255,0,0,1)" /><stop offset="95%" stop-color="rgba(255,0,0,0)" /></linearGradient><linearGradient id="v7"><stop offset="20%" stop-color="rgba(255,0,0,1)" /><stop offset="95%" stop-color="rgba(255,0,0,0)" /></linearGradient></defs><g transform-origin="1500 1500" transform="scale(2)" opacity=".2"><g id="slashes"><g class="o"><path transform="translate(6,12)" class="S sfv" d="M1259 1552 L1182 1629 L1182 1757 L1259 1680 Z"/><path class="fv1" d="M1259 1552 L1182 1629 L1182 1757 L1259 1680 Z" /></g><g class="o"><path transform="translate(2,4)" class="S sfv" d="M1771 1828 L1524 2075 L1524 2095 L1771 1848 Z"/><path class="fv3" d="M1771 1828 L1524 2075 L1524 2095 L1771 1848 Z" /></g><g class="o"><path transform="translate(6,12)" class="S sf" d="M1526 1283 L1440 1369 L1448 1369 L1534 1283 Z"/><path class="f4" d="M1526 1283 L1440 1369 L1448 1369 L1534 1283 Z" /></g><g class="o"><path transform="translate(8,16)" class="S sfv" d="M1648 1175 L1416 1407 L1416 1527 L1648 1295 Z"/><path class="fv1" d="M1648 1175 L1416 1407 L1416 1527 L1648 1295 Z" /></g><g class="o"><path transform="translate(6,12)" class="S ssv" d="M974 1906 L809 2071 L809 2083 L974 1918 Z"/><path class="sv1" d="M974 1906 L809 2071 L809 2083 L974 1918 Z" /></g><g class="o"><path transform="translate(8,16)" class="S sfh" d="M1963 1400 L1839 1524 L1857 1524 L1981 1400 Z"/><path class="fh2" d="M1963 1400 L1839 1524 L1857 1524 L1981 1400 Z" /></g><g class="o"><path transform="translate(4,8)" class="S ssv" d="M1034 1366 L862 1538 L862 1552 L1034 1380 Z"/><path class="sv7" d="M1034 1366 L862 1538 L862 1552 L1034 1380 Z" /></g><g class="o"><path transform="translate(8,16)" class="S ssh" d="M1153 1988 L968 2173 L1016 2173 L1201 1988 Z"/><path class="sh4" d="M1153 1988 L968 2173 L1016 2173 L1201 1988 Z" /></g><g class="o"><path transform="translate(7,14)" class="S sfv" d="M1760 1638 L1577 1821 L1577 1845 L1760 1662 Z"/><path class="fv2" d="M1760 1638 L1577 1821 L1577 1845 L1760 1662 Z" /></g><g class="o"><path transform="translate(2,4)" class="S ssh" d="M1888 1820 L1252 2456 L1396 2456 L2032 1820 Z"/><path class="sh6" d="M1888 1820 L1252 2456 L1396 2456 L2032 1820 Z" /></g><g class="o"><path transform="translate(2,4)" class="S ssh" d="M1766 1809 L1676 1899 L1690 1899 L1780 1809 Z"/><path class="sh6" d="M1766 1809 L1676 1899 L1690 1899 L1780 1809 Z" /></g><g class="o"><path transform="translate(5,10)" class="S sfh" d="M1760 2039 L1625 2174 L1729 2174 L1864 2039 Z"/><path class="fh1" d="M1760 2039 L1625 2174 L1729 2174 L1864 2039 Z" /></g><g class="o"><path transform="translate(4,8)" class="S sf" d="M1037 1807 L801 2043 L801 2163 L1037 1927 Z"/><path class="f7" d="M1037 1807 L801 2043 L801 2163 L1037 1927 Z" /></g><g class="o"><path transform="translate(9,18)" class="S sf" d="M1584 1425 L1497 1512 L1513 1512 L1600 1425 Z"/><path class="f7" d="M1584 1425 L1497 1512 L1513 1512 L1600 1425 Z" /></g><g class="o"><path transform="translate(3,6)" class="S sfh" d="M1392 1798 L840 2350 L904 2350 L1456 1798 Z"/><path class="fh4" d="M1392 1798 L840 2350 L904 2350 L1456 1798 Z" /></g><g class="o"><path transform="translate(3,6)" class="S sfv" d="M1606 1775 L1369 2012 L1369 2092 L1606 1855 Z"/><path class="fv2" d="M1606 1775 L1369 2012 L1369 2092 L1606 1855 Z" /></g><g class="o"><path transform="translate(9,18)" class="S ssh" d="M1382 1140 L1305 1217 L1333 1217 L1410 1140 Z"/><path class="sh5" d="M1382 1140 L1305 1217 L1333 1217 L1410 1140 Z" /></g><g class="o"><path transform="translate(9,18)" class="S sfh" d="M1942 1196 L1849 1289 L1857 1289 L1950 1196 Z"/><path class="fh1" d="M1942 1196 L1849 1289 L1857 1289 L1950 1196 Z" /></g><g class="o"><path transform="translate(8,16)" class="S sfv" d="M1666 1068 L1557 1177 L1557 1207 L1666 1098 Z"/><path class="fv5" d="M1666 1068 L1557 1177 L1557 1207 L1666 1098 Z" /></g><g class="o"><path transform="translate(6,12)" class="S ssv" d="M1303 1788 L1060 2031 L1060 2049 L1303 1806 Z"/><path class="sv2" d="M1303 1788 L1060 2031 L1060 2049 L1303 1806 Z" /></g><g class="o"><path transform="translate(8,16)" class="S sf" d="M1325 1785 L1271 1839 L1399 1839 L1453 1785 Z"/><path class="f3" d="M1325 1785 L1271 1839 L1399 1839 L1453 1785 Z" /></g><g class="o"><path transform="translate(3,6)" class="S sfh" d="M1119 1921 L540 2500 L644 2500 L1223 1921 Z"/><path class="fh4" d="M1119 1921 L540 2500 L644 2500 L1223 1921 Z" /></g><g class="o"><path transform="translate(3,6)" class="S sfh" d="M2019 1006 L1876 1149 L1896 1149 L2039 1006 Z"/><path class="fh6" d="M2019 1006 L1876 1149 L1896 1149 L2039 1006 Z" /></g><g class="o"><path transform="translate(9,18)" class="S ssv" d="M1394 985 L734 1645 L734 1669 L1394 1009 Z"/><path class="sv3" d="M1394 985 L734 1645 L734 1669 L1394 1009 Z" /></g><g class="o"><path transform="translate(3,6)" class="S sfv" d="M1329 1570 L804 2095 L804 2151 L1329 1626 Z"/><path class="fv2" d="M1329 1570 L804 2095 L804 2151 L1329 1626 Z" /></g><g class="o"><path transform="translate(3,6)" class="S sfv" d="M1940 1760 L1448 2252 L1448 2280 L1940 1788 Z"/><path class="fv3" d="M1940 1760 L1448 2252 L1448 2280 L1940 1788 Z" /></g><g class="o"><path transform="translate(4,8)" class="S sfh" d="M1905 1769 L1696 1978 L1720 1978 L1929 1769 Z"/><path class="fh6" d="M1905 1769 L1696 1978 L1720 1978 L1929 1769 Z" /></g><g class="o"><path transform="translate(8,16)" class="S sfv" d="M1290 1165 L771 1684 L771 1796 L1290 1277 Z"/><path class="fv6" d="M1290 1165 L771 1684 L771 1796 L1290 1277 Z" /></g><g class="o"><path transform="translate(6,12)" class="S sfv" d="M1681 1793 L1627 1847 L1627 1999 L1681 1945 Z"/><path class="fv6" d="M1681 1793 L1627 1847 L1627 1999 L1681 1945 Z" /></g><g class="o"><path transform="translate(8,16)" class="S ssh" d="M1892 1328 L1654 1566 L1686 1566 L1924 1328 Z"/><path class="sh5" d="M1892 1328 L1654 1566 L1686 1566 L1924 1328 Z" /></g><g class="o"><path transform="translate(5,10)" class="S sfv" d="M1762 1880 L1387 2255 L1387 2391 L1762 2016 Z"/><path class="fv3" d="M1762 1880 L1387 2255 L1387 2391 L1762 2016 Z" /></g><g class="o"><path transform="translate(6,12)" class="S ssh" d="M1476 1602 L1238 1840 L1270 1840 L1508 1602 Z"/><path class="sh7" d="M1476 1602 L1238 1840 L1270 1840 L1508 1602 Z" /></g><g class="o"><path transform="translate(6,12)" class="S sfv" d="M1897 1189 L1673 1413 L1673 1445 L1897 1221 Z"/><path class="fv7" d="M1897 1189 L1673 1413 L1673 1445 L1897 1221 Z" /></g><g class="o"><path transform="translate(8,16)" class="S sfv" d="M1155 914 L1002 1067 L1002 1163 L1155 1010 Z"/><path class="fv4" d="M1155 914 L1002 1067 L1002 1163 L1155 1010 Z" /></g><g class="o"><path transform="translate(5,10)" class="S sfh" d="M1766 1164 L1583 1347 L1703 1347 L1886 1164 Z"/><path class="fh4" d="M1766 1164 L1583 1347 L1703 1347 L1886 1164 Z" /></g><g class="o"><path transform="translate(4,8)" class="S sfv" d="M1408 959 L1223 1144 L1223 1174 L1408 989 Z"/><path class="fv3" d="M1408 959 L1223 1144 L1223 1174 L1408 989 Z" /></g><g class="o"><path transform="translate(2,4)" class="S sfv" d="M1104 2029 L881 2252 L881 2292 L1104 2069 Z"/><path class="fv3" d="M1104 2029 L881 2252 L881 2292 L1104 2069 Z" /></g><g class="o"><path transform="translate(3,6)" class="S sfv" d="M1214 1858 L969 2103 L969 2141 L1214 1896 Z"/><path class="fv5" d="M1214 1858 L969 2103 L969 2141 L1214 1896 Z" /></g><g class="o"><path transform="translate(8,16)" class="S sfh" d="M1740 1162 L1562 1340 L1600 1340 L1778 1162 Z"/><path class="fh4" d="M1740 1162 L1562 1340 L1600 1340 L1778 1162 Z" /></g><g class="o"><path transform="translate(4,8)" class="S ssh" d="M1912 1910 L1758 2064 L1794 2064 L1948 1910 Z"/><path class="sh6" d="M1912 1910 L1758 2064 L1794 2064 L1948 1910 Z" /></g><g class="o"><path transform="translate(4,8)" class="S sfv" d="M1467 1196 L1074 1589 L1074 1599 L1467 1206 Z"/><path class="fv2" d="M1467 1196 L1074 1589 L1074 1599 L1467 1206 Z" /></g><g class="o"><path transform="translate(8,16)" class="S sfh" d="M987 1073 L884 1176 L902 1176 L1005 1073 Z"/><path class="fh5" d="M987 1073 L884 1176 L902 1176 L1005 1073 Z" /></g><g class="o"><path transform="translate(6,12)" class="S ssh" d="M1455 1951 L1381 2025 L1501 2025 L1575 1951 Z"/><path class="sh7" d="M1455 1951 L1381 2025 L1501 2025 L1575 1951 Z" /></g><g class="o"><path transform="translate(4,8)" class="S sfv" d="M1720 1008 L1630 1098 L1630 1118 L1720 1028 Z"/><path class="fv1" d="M1720 1008 L1630 1098 L1630 1118 L1720 1028 Z" /></g><g class="o"><path transform="translate(5,10)" class="S sfv" d="M1197 1199 L953 1443 L953 1477 L1197 1233 Z"/><path class="fv5" d="M1197 1199 L953 1443 L953 1477 L1197 1233 Z" /></g><g class="o"><path transform="translate(9,18)" class="S sfv" d="M1206 1530 L982 1754 L982 1866 L1206 1642 Z"/><path class="fv5" d="M1206 1530 L982 1754 L982 1866 L1206 1642 Z" /></g><g class="o"><path transform="translate(7,14)" class="S sf" d="M1115 1779 L998 1896 L998 1922 L1115 1805 Z"/><path class="f2" d="M1115 1779 L998 1896 L998 1922 L1115 1805 Z" /></g><g class="o"><path transform="translate(7,14)" class="S sf" d="M1196 1812 L997 2011 L1005 2011 L1204 1812 Z"/><path class="f1" d="M1196 1812 L997 2011 L1005 2011 L1204 1812 Z" /></g><g class="o"><path transform="translate(2,4)" class="S sfv" d="M1765 2006 L1545 2226 L1545 2262 L1765 2042 Z"/><path class="fv1" d="M1765 2006 L1545 2226 L1545 2262 L1765 2042 Z" /></g><g class="o"><path transform="translate(7,14)" class="S sf" d="M1990 1126 L1820 1296 L1820 1384 L1990 1214 Z"/><path class="f3" d="M1990 1126 L1820 1296 L1820 1384 L1990 1214 Z" /></g><g class="o"><path transform="translate(5,10)" class="S sfv" d="M1585 1865 L1524 1926 L1524 2054 L1585 1993 Z"/><path class="fv6" d="M1585 1865 L1524 1926 L1524 2054 L1585 1993 Z" /></g><g class="o"><path transform="translate(9,18)" class="S ssv" d="M1491 1973 L1349 2115 L1349 2243 L1491 2101 Z"/><path class="sv3" d="M1491 1973 L1349 2115 L1349 2243 L1491 2101 Z" /></g><g class="o"><path transform="translate(9,18)" class="S sfh" d="M1247 1872 L1114 2005 L1124 2005 L1257 1872 Z"/><path class="fh6" d="M1247 1872 L1114 2005 L1124 2005 L1257 1872 Z" /></g><g class="o"><path transform="translate(2,4)" class="S sfh" d="M1743 1150 L1574 1319 L1718 1319 L1887 1150 Z"/><path class="fh7" d="M1743 1150 L1574 1319 L1718 1319 L1887 1150 Z" /></g><g class="o"><path transform="translate(5,10)" class="S ssv" d="M1658 1764 L1514 1908 L1514 1924 L1658 1780 Z"/><path class="sv1" d="M1658 1764 L1514 1908 L1514 1924 L1658 1780 Z" /></g><g class="o"><path transform="translate(6,12)" class="S sfh" d="M1060 1420 L907 1573 L1003 1573 L1156 1420 Z"/><path class="fh3" d="M1060 1420 L907 1573 L1003 1573 L1156 1420 Z" /></g><g class="o"><path transform="translate(4,8)" class="S sfv" d="M1626 1019 L1503 1142 L1503 1152 L1626 1029 Z"/><path class="fv5" d="M1626 1019 L1503 1142 L1503 1152 L1626 1029 Z" /></g><g class="o"><path transform="translate(3,6)" class="S ssh" d="M1556 1988 L1333 2211 L1397 2211 L1620 1988 Z"/><path class="sh7" d="M1556 1988 L1333 2211 L1397 2211 L1620 1988 Z" /></g><g class="o"><path transform="translate(9,18)" class="S sfv" d="M1148 1666 L1001 1813 L1001 1853 L1148 1706 Z"/><path class="fv7" d="M1148 1666 L1001 1813 L1001 1853 L1148 1706 Z" /></g><g class="o"><path transform="translate(2,4)" class="S sf" d="M2037 1715 L1916 1836 L1916 1868 L2037 1747 Z"/><path class="f4" d="M2037 1715 L1916 1836 L1916 1868 L2037 1747 Z" /></g><g class="o"><path transform="translate(4,8)" class="S sfv" d="M1785 1789 L1641 1933 L1641 2077 L1785 1933 Z"/><path class="fv2" d="M1785 1789 L1641 1933 L1641 2077 L1785 1933 Z" /></g><g class="o"><path transform="translate(6,12)" class="S sfv" d="M1295 1499 L1121 1673 L1121 1809 L1295 1635 Z"/><path class="fv1" d="M1295 1499 L1121 1673 L1121 1809 L1295 1635 Z" /></g><g class="o"><path transform="translate(5,10)" class="S sf" d="M1314 1726 L1163 1877 L1163 1949 L1314 1798 Z"/><path class="f7" d="M1314 1726 L1163 1877 L1163 1949 L1314 1798 Z" /></g><g class="o"><path transform="translate(6,12)" class="S sf" d="M1759 1821 L1664 1916 L1664 1952 L1759 1857 Z"/><path class="f4" d="M1759 1821 L1664 1916 L1664 1952 L1759 1857 Z" /></g><g class="o"><path transform="translate(7,14)" class="S sfv" d="M1332 1326 L801 1857 L801 1897 L1332 1366 Z"/><path class="fv4" d="M1332 1326 L801 1857 L801 1897 L1332 1366 Z" /></g><g class="o"><path transform="translate(2,4)" class="S sfv" d="M950 1766 L308 2408 L308 2446 L950 1804 Z"/><path class="fv2" d="M950 1766 L308 2408 L308 2446 L950 1804 Z" /></g><g class="o"><path transform="translate(9,18)" class="S sfv" d="M1463 1079 L1364 1178 L1364 1242 L1463 1143 Z"/><path class="fv6" d="M1463 1079 L1364 1178 L1364 1242 L1463 1143 Z" /></g><g class="o"><path transform="translate(2,4)" class="S sf" d="M1105 1552 L858 1799 L858 1817 L1105 1570 Z"/><path class="f2" d="M1105 1552 L858 1799 L858 1817 L1105 1570 Z" /></g><g class="o"><path transform="translate(9,18)" class="S sfv" d="M1985 1372 L1910 1447 L1910 1485 L1985 1410 Z"/><path class="fv7" d="M1985 1372 L1910 1447 L1910 1485 L1985 1410 Z" /></g><g class="o"><path transform="translate(4,8)" class="S sfh" d="M1616 1505 L1178 1943 L1216 1943 L1654 1505 Z"/><path class="fh3" d="M1616 1505 L1178 1943 L1216 1943 L1654 1505 Z" /></g><g class="o"><path transform="translate(4,8)" class="S sfv" d="M1083 1746 L986 1843 L986 1881 L1083 1784 Z"/><path class="fv3" d="M1083 1746 L986 1843 L986 1881 L1083 1784 Z" /></g><g class="o"><path transform="translate(6,12)" class="S sfv" d="M1892 1423 L1829 1486 L1829 1498 L1892 1435 Z"/><path class="fv5" d="M1892 1423 L1829 1486 L1829 1498 L1892 1435 Z" /></g><g class="o"><path transform="translate(8,16)" class="S ssv" d="M1657 1832 L1496 1993 L1496 2019 L1657 1858 Z"/><path class="sv4" d="M1657 1832 L1496 1993 L1496 2019 L1657 1858 Z" /></g><g class="o"><path transform="translate(8,16)" class="S sfh" d="M1972 1323 L1798 1497 L1862 1497 L2036 1323 Z"/><path class="fh2" d="M1972 1323 L1798 1497 L1862 1497 L2036 1323 Z" /></g><g class="o"><path transform="translate(7,14)" class="S ssv" d="M1659 1865 L1464 2060 L1464 2156 L1659 1961 Z"/><path class="sv2" d="M1659 1865 L1464 2060 L1464 2156 L1659 1961 Z" /></g><g class="o"><path transform="translate(6,12)" class="S sfh" d="M1821 1679 L1717 1783 L1745 1783 L1849 1679 Z"/><path class="fh7" d="M1821 1679 L1717 1783 L1745 1783 L1849 1679 Z" /></g><g class="o"><path transform="translate(9,18)" class="S sfv" d="M2036 1857 L1457 2436 L1457 2466 L2036 1887 Z"/><path class="fv6" d="M2036 1857 L1457 2436 L1457 2466 L2036 1887 Z" /></g><g class="o"><path transform="translate(8,16)" class="S ss" d="M1580 1459 L1526 1513 L1526 1577 L1580 1523 Z"/><path class="s1" d="M1580 1459 L1526 1513 L1526 1577 L1580 1523 Z" /></g><g class="o"><path transform="translate(4,8)" class="S sfv" d="M1432 1033 L931 1534 L931 1542 L1432 1041 Z"/><path class="fv2" d="M1432 1033 L931 1534 L931 1542 L1432 1041 Z" /></g><g class="o"><path transform="translate(5,10)" class="S sfv" d="M1940 1849 L1725 2064 L1725 2208 L1940 1993 Z"/><path class="fv4" d="M1940 1849 L1725 2064 L1725 2208 L1940 1993 Z" /></g><g class="o"><path transform="translate(2,4)" class="S sf" d="M1666 1502 L1557 1611 L1557 1631 L1666 1522 Z"/><path class="f6" d="M1666 1502 L1557 1611 L1557 1631 L1666 1522 Z" /></g><g class="o"><path transform="translate(3,6)" class="S sfv" d="M1196 1541 L1032 1705 L1032 1731 L1196 1567 Z"/><path class="fv5" d="M1196 1541 L1032 1705 L1032 1731 L1196 1567 Z" /></g><g class="o"><path transform="translate(4,8)" class="S ssv" d="M1757 1146 L1632 1271 L1632 1303 L1757 1178 Z"/><path class="sv5" d="M1757 1146 L1632 1271 L1632 1303 L1757 1178 Z" /></g><g class="o"><path transform="translate(7,14)" class="S sfh" d="M1791 1217 L1675 1333 L1693 1333 L1809 1217 Z"/><path class="fh2" d="M1791 1217 L1675 1333 L1693 1333 L1809 1217 Z" /></g><g class="o"><path transform="translate(5,10)" class="S sf" d="M1316 1233 L1213 1336 L1261 1336 L1364 1233 Z"/><path class="f1" d="M1316 1233 L1213 1336 L1261 1336 L1364 1233 Z" /></g><g class="o"><path transform="translate(4,8)" class="S sfh" d="M1299 1342 L636 2005 L748 2005 L1411 1342 Z"/><path class="fh6" d="M1299 1342 L636 2005 L748 2005 L1411 1342 Z" /></g><g class="o"><path transform="translate(2,4)" class="S sfv" d="M1283 1178 L1102 1359 L1102 1455 L1283 1274 Z"/><path class="fv1" d="M1283 1178 L1102 1359 L1102 1455 L1283 1274 Z" /></g><g class="o"><path transform="translate(8,16)" class="S sfv" d="M1917 1833 L1828 1922 L1828 1970 L1917 1881 Z"/><path class="fv4" d="M1917 1833 L1828 1922 L1828 1970 L1917 1881 Z" /></g><g class="o"><path transform="translate(4,8)" class="S sfv" d="M1300 1671 L1148 1823 L1148 1845 L1300 1693 Z"/><path class="fv2" d="M1300 1671 L1148 1823 L1148 1845 L1300 1693 Z" /></g><g class="o"><path transform="translate(8,16)" class="S sfv" d="M1771 1220 L1577 1414 L1577 1446 L1771 1252 Z"/><path class="fv1" d="M1771 1220 L1577 1414 L1577 1446 L1771 1252 Z" /></g><g class="o"><path transform="translate(8,16)" class="S sfh" d="M1581 1263 L1404 1440 L1436 1440 L1613 1263 Z"/><path class="fh1" d="M1581 1263 L1404 1440 L1436 1440 L1613 1263 Z" /></g><g class="o"><path transform="translate(9,18)" class="S sf" d="M1563 993 L1451 1105 L1481 1105 L1593 993 Z"/><path class="f3" d="M1563 993 L1451 1105 L1481 1105 L1593 993 Z" /></g><g class="o"><path transform="translate(9,18)" class="S sfv" d="M1906 1273 L1713 1466 L1713 1498 L1906 1305 Z"/><path class="fv1" d="M1906 1273 L1713 1466 L1713 1498 L1906 1305 Z" /></g><g class="o"><path transform="translate(2,4)" class="S sfh" d="M1395 1408 L981 1822 L1037 1822 L1451 1408 Z"/><path class="fh4" d="M1395 1408 L981 1822 L1037 1822 L1451 1408 Z" /></g><g class="o"><path transform="translate(8,16)" class="S sfv" d="M1173 1164 L957 1380 L957 1408 L1173 1192 Z"/><path class="fv5" d="M1173 1164 L957 1380 L957 1408 L1173 1192 Z" /></g><g class="o"><path transform="translate(5,10)" class="S sfv" d="M1002 1769 L906 1865 L906 1901 L1002 1805 Z"/><path class="fv4" d="M1002 1769 L906 1865 L906 1901 L1002 1805 Z" /></g><g class="o"><path transform="translate(8,16)" class="S sfh" d="M1040 1738 L814 1964 L870 1964 L1096 1738 Z"/><path class="fh3" d="M1040 1738 L814 1964 L870 1964 L1096 1738 Z" /></g><g class="o"><path transform="translate(6,12)" class="S sfv" d="M2018 1318 L1694 1642 L1694 1666 L2018 1342 Z"/><path class="fv5" d="M2018 1318 L1694 1642 L1694 1666 L2018 1342 Z" /></g><g class="o"><path transform="translate(4,8)" class="S sfh" d="M1234 1126 L1164 1196 L1292 1196 L1362 1126 Z"/><path class="fh4" d="M1234 1126 L1164 1196 L1292 1196 L1362 1126 Z" /></g><g class="o"><path transform="translate(7,14)" class="S sfh" d="M1217 1191 L974 1434 L1070 1434 L1313 1191 Z"/><path class="fh5" d="M1217 1191 L974 1434 L1070 1434 L1313 1191 Z" /></g><g class="o"><path transform="translate(4,8)" class="S sfh" d="M1174 1524 L1088 1610 L1136 1610 L1222 1524 Z"/><path class="fh1" d="M1174 1524 L1088 1610 L1136 1610 L1222 1524 Z" /></g><g class="o"><path transform="translate(8,16)" class="S sfv" d="M2015 1102 L1814 1303 L1814 1319 L2015 1118 Z"/><path class="fv1" d="M2015 1102 L1814 1303 L1814 1319 L2015 1118 Z" /></g><g class="o"><path transform="translate(4,8)" class="S sfv" d="M1906 1070 L1833 1143 L1833 1163 L1906 1090 Z"/><path class="fv5" d="M1906 1070 L1833 1143 L1833 1163 L1906 1090 Z" /></g><g class="o"><path transform="translate(8,16)" class="S sfv" d="M1920 1168 L1672 1416 L1672 1434 L1920 1186 Z"/><path class="fv1" d="M1920 1168 L1672 1416 L1672 1434 L1920 1186 Z" /></g><g class="o"><path transform="translate(7,14)" class="S sfh" d="M1188 1076 L1090 1174 L1242 1174 L1340 1076 Z"/><path class="fh1" d="M1188 1076 L1090 1174 L1242 1174 L1340 1076 Z" /></g><g class="o"><path transform="translate(8,16)" class="S sfh" d="M1121 1624 L945 1800 L979 1800 L1155 1624 Z"/><path class="fh6" d="M1121 1624 L945 1800 L979 1800 L1155 1624 Z" /></g><g class="o"><path transform="translate(6,12)" class="S sfv" d="M1590 1448 L1431 1607 L1431 1625 L1590 1466 Z"/><path class="fv4" d="M1590 1448 L1431 1607 L1431 1625 L1590 1466 Z" /></g><g class="o"><path transform="translate(9,18)" class="S sfh" d="M1729 1243 L1561 1411 L1657 1411 L1825 1243 Z"/><path class="fh5" d="M1729 1243 L1561 1411 L1657 1411 L1825 1243 Z" /></g><g class="o"><path transform="translate(8,16)" class="S sfv" d="M1451 1999 L941 2509 L941 2573 L1451 2063 Z"/><path class="fv5" d="M1451 1999 L941 2509 L941 2573 L1451 2063 Z" /></g><g class="o"><path transform="translate(8,16)" class="S sfv" d="M1812 1698 L1455 2055 L1455 2071 L1812 1714 Z"/><path class="fv6" d="M1812 1698 L1455 2055 L1455 2071 L1812 1714 Z" /></g><g class="o"><path transform="translate(2,4)" class="S sf" d="M1925 1996 L1835 2086 L1869 2086 L1959 1996 Z"/><path class="f3" d="M1925 1996 L1835 2086 L1869 2086 L1959 1996 Z" /></g><g class="o"><path transform="translate(2,4)" class="S sfv" d="M1946 1833 L1771 2008 L1771 2072 L1946 1897 Z"/><path class="fv6" d="M1946 1833 L1771 2008 L1771 2072 L1946 1897 Z" /></g><g class="o"><path transform="translate(3,6)" class="S sfh" d="M1191 1665 L971 1885 L1075 1885 L1295 1665 Z"/><path class="fh5" d="M1191 1665 L971 1885 L1075 1885 L1295 1665 Z" /></g><g class="o"><path transform="translate(3,6)" class="S ssh" d="M1034 2021 L866 2189 L882 2189 L1050 2021 Z"/><path class="sh7" d="M1034 2021 L866 2189 L882 2189 L1050 2021 Z" /></g><g class="o"><path transform="translate(3,6)" class="S sf" d="M1641 1963 L1561 2043 L1591 2043 L1671 1963 Z"/><path class="f2" d="M1641 1963 L1561 2043 L1591 2043 L1671 1963 Z" /></g><g class="o"><path transform="translate(3,6)" class="S sfh" d="M1815 1604 L1699 1720 L1733 1720 L1849 1604 Z"/><path class="fh7" d="M1815 1604 L1699 1720 L1733 1720 L1849 1604 Z" /></g><g class="o"><path transform="translate(9,18)" class="S sfh" d="M1567 1403 L1368 1602 L1382 1602 L1581 1403 Z"/><path class="fh1" d="M1567 1403 L1368 1602 L1382 1602 L1581 1403 Z" /></g><g class="o"><path transform="translate(7,14)" class="S ssh" d="M1323 1988 L1026 2285 L1038 2285 L1335 1988 Z"/><path class="sh2" d="M1323 1988 L1026 2285 L1038 2285 L1335 1988 Z" /></g><g class="o"><path transform="translate(2,4)" class="S sfv" d="M2037 1378 L1956 1459 L1956 1497 L2037 1416 Z"/><path class="fv2" d="M2037 1378 L1956 1459 L1956 1497 L2037 1416 Z" /></g><g class="o"><path transform="translate(6,12)" class="S sfv" d="M1109 1192 L940 1361 L940 1373 L1109 1204 Z"/><path class="fv7" d="M1109 1192 L940 1361 L940 1373 L1109 1204 Z" /></g><g class="o"><path transform="translate(6,12)" class="S ss" d="M1964 1296 L1770 1490 L1770 1528 L1964 1334 Z"/><path class="s6" d="M1964 1296 L1770 1490 L1770 1528 L1964 1334 Z" /></g><g class="o"><path transform="translate(3,6)" class="S sf" d="M1913 1790 L1846 1857 L1846 1877 L1913 1810 Z"/><path class="f5" d="M1913 1790 L1846 1857 L1846 1877 L1913 1810 Z" /></g><g class="o"><path transform="translate(7,14)" class="S sf" d="M1781 1407 L1627 1561 L1627 1571 L1781 1417 Z"/><path class="f3" d="M1781 1407 L1627 1561 L1627 1571 L1781 1417 Z" /></g><g class="o"><path transform="translate(8,16)" class="S sfh" d="M1350 1327 L1213 1464 L1231 1464 L1368 1327 Z"/><path class="fh1" d="M1350 1327 L1213 1464 L1231 1464 L1368 1327 Z" /></g><g class="o"><path transform="translate(2,4)" class="S ssv" d="M2047 963 L1931 1079 L1931 1117 L2047 1001 Z"/><path class="sv1" d="M2047 963 L1931 1079 L1931 1117 L2047 1001 Z" /></g><g class="o"><path transform="translate(2,4)" class="S ssh" d="M1332 1215 L1152 1395 L1188 1395 L1368 1215 Z"/><path class="sh1" d="M1332 1215 L1152 1395 L1188 1395 L1368 1215 Z" /></g><g class="o"><path transform="translate(7,14)" class="S sfv" d="M1466 1134 L1225 1375 L1225 1401 L1466 1160 Z"/><path class="fv5" d="M1466 1134 L1225 1375 L1225 1401 L1466 1160 Z" /></g><g class="o"><path transform="translate(3,6)" class="S ssh" d="M1456 1981 L970 2467 L1106 2467 L1592 1981 Z"/><path class="sh5" d="M1456 1981 L970 2467 L1106 2467 L1592 1981 Z" /></g><g class="o"><path transform="translate(2,4)" class="S sfh" d="M1919 1094 L1184 1829 L1312 1829 L2047 1094 Z"/><path class="fh5" d="M1919 1094 L1184 1829 L1312 1829 L2047 1094 Z" /></g><g class="o"><path transform="translate(2,4)" class="S sfv" d="M1176 1823 L1055 1944 L1055 2072 L1176 1951 Z"/><path class="fv1" d="M1176 1823 L1055 1944 L1055 2072 L1176 1951 Z" /></g><g class="o"><path transform="translate(5,10)" class="S sfv" d="M1113 1055 L1001 1167 L1001 1279 L1113 1167 Z"/><path class="fv5" d="M1113 1055 L1001 1167 L1001 1279 L1113 1167 Z" /></g><g class="o"><path transform="translate(5,10)" class="S sf" d="M1787 1035 L1702 1120 L1702 1138 L1787 1053 Z"/><path class="f3" d="M1787 1035 L1702 1120 L1702 1138 L1787 1053 Z" /></g><g class="o"><path transform="translate(8,16)" class="S sfv" d="M982 1290 L789 1483 L789 1493 L982 1300 Z"/><path class="fv7" d="M982 1290 L789 1483 L789 1493 L982 1300 Z" /></g><g class="o"><path transform="translate(4,8)" class="S ssh" d="M1884 1963 L1769 2078 L1795 2078 L1910 1963 Z"/><path class="sh5" d="M1884 1963 L1769 2078 L1795 2078 L1910 1963 Z" /></g><g class="o"><path transform="translate(5,10)" class="S sfh" d="M1235 2018 L623 2630 L735 2630 L1347 2018 Z"/><path class="fh4" d="M1235 2018 L623 2630 L735 2630 L1347 2018 Z" /></g><g class="o"><path transform="translate(6,12)" class="S ssv" d="M1490 1950 L1410 2030 L1410 2050 L1490 1970 Z"/><path class="sv3" d="M1490 1950 L1410 2030 L1410 2050 L1490 1970 Z" /></g><g class="o"><path transform="translate(8,16)" class="S ssh" d="M2009 1815 L1874 1950 L1912 1950 L2047 1815 Z"/><path class="sh7" d="M2009 1815 L1874 1950 L1912 1950 L2047 1815 Z" /></g><g class="o"><path transform="translate(6,12)" class="S sfh" d="M992 1063 L776 1279 L794 1279 L1010 1063 Z"/><path class="fh6" d="M992 1063 L776 1279 L794 1279 L1010 1063 Z" /></g><g class="o"><path transform="translate(9,18)" class="S sf" d="M1993 1718 L1666 2045 L1704 2045 L2031 1718 Z"/><path class="f6" d="M1993 1718 L1666 2045 L1704 2045 L2031 1718 Z" /></g><g class="o"><path transform="translate(7,14)" class="S ssh" d="M1851 1291 L1221 1921 L1285 1921 L1915 1291 Z"/><path class="sh2" d="M1851 1291 L1221 1921 L1285 1921 L1915 1291 Z" /></g></g><use href="#slashes" transform-origin="1500 1500" transform="rotate(180) scale(2)"/></g><rect x="1080" y="1080" width="840" height="840" stroke-width="160" class="o s1" /><use href="#slashes" transform-origin="1500 1500" transform="scale(.7)"/><use href="#slashes" transform-origin="1500 1500" transform="rotate(180) scale(.3)"/></svg>