<svg xmlns="http://www.w3.org/2000/svg" viewBox="750 750 1500 1500"><style>/*<![CDATA[*/svg{background:rgb(41,42,115);max-width:100vw;max-height:100vh}path{stroke-width:4}.o{opacity:.75}.S{opacity:.4}.sf{stroke:none;fill:black}.sfh{stroke:none;fill:url(#hs)}.sfv{stroke:none;fill:url(#vs)}.ss{stroke:black;fill:none}.ssh{stroke:url(#hs);fill:none}.ssv{stroke:url(#vs);fill:none}.s1{fill:none;stroke:rgb(34,34,34)}.f1{stroke:none;fill:rgb(34,34,34)}.sh1{fill:none;stroke:url(#h1)}.fh1{stroke:none;fill:url(#h1)}.sv1{fill:none;stroke:url(#v1)}.fv1{stroke:none;fill:url(#v1)}.s2{fill:none;stroke:rgb(246,81,29)}.f2{stroke:none;fill:rgb(246,81,29)}.sh2{fill:none;stroke:url(#h2)}.fh2{stroke:none;fill:url(#h2)}.sv2{fill:none;stroke:url(#v2)}.fv2{stroke:none;fill:url(#v2)}.s3{fill:none;stroke:rgb(0,166,237)}.f3{stroke:none;fill:rgb(0,166,237)}.sh3{fill:none;stroke:url(#h3)}.fh3{stroke:none;fill:url(#h3)}.sv3{fill:none;stroke:url(#v3)}.fv3{stroke:none;fill:url(#v3)}.s4{fill:none;stroke:rgb(255,180,0)}.f4{stroke:none;fill:rgb(255,180,0)}.sh4{fill:none;stroke:url(#h4)}.fh4{stroke:none;fill:url(#h4)}.sv4{fill:none;stroke:url(#v4)}.fv4{stroke:none;fill:url(#v4)}.s5{fill:none;stroke:rgb(13,44,84)}.f5{stroke:none;fill:rgb(13,44,84)}.sh5{fill:none;stroke:url(#h5)}.fh5{stroke:none;fill:url(#h5)}.sv5{fill:none;stroke:url(#v5)}.fv5{stroke:none;fill:url(#v5)}.s6{fill:none;stroke:rgb(255,255,255)}.f6{stroke:none;fill:rgb(255,255,255)}.sh6{fill:none;stroke:url(#h6)}.fh6{stroke:none;fill:url(#h6)}.sv6{fill:none;stroke:url(#v6)}.fv6{stroke:none;fill:url(#v6)}.s7{fill:none;stroke:rgb(255,255,0)}.f7{stroke:none;fill:rgb(255,255,0)}.sh7{fill:none;stroke:url(#h7)}.fh7{stroke:none;fill:url(#h7)}.sv7{fill:none;stroke:url(#v7)}.fv7{stroke:none;fill:url(#v7)}/*]]>*/</style><defs><linearGradient gradientTransform="rotate(90)" id="hs"><stop offset="20%" stop-color="#000" /><stop offset="95%" stop-color="rgba(0, 0, 0, 0)" /></linearGradient><linearGradient id="vs"><stop offset="20%" stop-color="#000" /><stop offset="95%" stop-color="rgba(0, 0, 0, 0)" /></linearGradient><linearGradient gradientTransform="rotate(90)" id="h1"><stop offset="20%" stop-color="rgba(34,34,34,1)" /><stop offset="95%" stop-color="rgba(34,34,34,0)" /></linearGradient><linearGradient id="v1"><stop offset="20%" stop-color="rgba(34,34,34,1)" /><stop offset="95%" stop-color="rgba(34,34,34,0)" /></linearGradient><linearGradient gradientTransform="rotate(90)" id="h2"><stop offset="20%" stop-color="rgba(246,81,29,1)" /><stop offset="95%" stop-color="rgba(246,81,29,0)" /></linearGradient><linearGradient id="v2"><stop offset="20%" stop-color="rgba(246,81,29,1)" /><stop offset="95%" stop-color="rgba(246,81,29,0)" /></linearGradient><linearGradient gradientTransform="rotate(90)" id="h3"><stop offset="20%" stop-color="rgba(0,166,237,1)" /><stop offset="95%" stop-color="rgba(0,166,237,0)" /></linearGradient><linearGradient id="v3"><stop offset="20%" stop-color="rgba(0,166,237,1)" /><stop offset="95%" stop-color="rgba(0,166,237,0)" /></linearGradient><linearGradient gradientTransform="rotate(90)" id="h4"><stop offset="20%" stop-color="rgba(255,180,0,1)" /><stop offset="95%" stop-color="rgba(255,180,0,0)" /></linearGradient><linearGradient id="v4"><stop offset="20%" stop-color="rgba(255,180,0,1)" /><stop offset="95%" stop-color="rgba(255,180,0,0)" /></linearGradient><linearGradient gradientTransform="rotate(90)" id="h5"><stop offset="20%" stop-color="rgba(13,44,84,1)" /><stop offset="95%" stop-color="rgba(13,44,84,0)" /></linearGradient><linearGradient id="v5"><stop offset="20%" stop-color="rgba(13,44,84,1)" /><stop offset="95%" stop-color="rgba(13,44,84,0)" /></linearGradient><linearGradient gradientTransform="rotate(90)" id="h6"><stop offset="20%" stop-color="rgba(255,255,255,1)" /><stop offset="95%" stop-color="rgba(255,255,255,0)" /></linearGradient><linearGradient id="v6"><stop offset="20%" stop-color="rgba(255,255,255,1)" /><stop offset="95%" stop-color="rgba(255,255,255,0)" /></linearGradient><linearGradient gradientTransform="rotate(90)" id="h7"><stop offset="20%" stop-color="rgba(255,255,0,1)" /><stop offset="95%" stop-color="rgba(255,255,0,0)" /></linearGradient><linearGradient id="v7"><stop offset="20%" stop-color="rgba(255,255,0,1)" /><stop offset="95%" stop-color="rgba(255,255,0,0)" /></linearGradient></defs><g transform-origin="1500 1500" transform="scale(2)" opacity=".2"><g id="slashes"><g class="o"><path transform="translate(4,8)" class="S sfh" d="M1579 1666 L1732 1819 L1884 1819 L1731 1666 Z"/><path class="fh6" d="M1579 1666 L1732 1819 L1884 1819 L1731 1666 Z" /></g><g class="o"><path transform="translate(8,16)" class="S sfv" d="M1151 1359 L1373 1581 L1373 1615 L1151 1393 Z"/><path class="fv6" d="M1151 1359 L1373 1581 L1373 1615 L1151 1393 Z" /></g><g class="o"><path transform="translate(9,18)" class="S sfv" d="M1864 1131 L1966 1233 L1966 1271 L1864 1169 Z"/><path class="fv7" d="M1864 1131 L1966 1233 L1966 1271 L1864 1169 Z" /></g><g class="o"><path transform="translate(9,18)" class="S sfv" d="M1665 1387 L1500 1552 L1500 1580 L1665 1415 Z"/><path class="fv7" d="M1665 1387 L1500 1552 L1500 1580 L1665 1415 Z" /></g><g class="o"><path transform="translate(9,18)" class="S sfh" d="M1079 1302 L843 1538 L859 1538 L1095 1302 Z"/><path class="fh1" d="M1079 1302 L843 1538 L859 1538 L1095 1302 Z" /></g><g class="o"><path transform="translate(5,10)" class="S sfv" d="M1943 1439 L2116 1612 L2116 1648 L1943 1475 Z"/><path class="fv7" d="M1943 1439 L2116 1612 L2116 1648 L1943 1475 Z" /></g><g class="o"><path transform="translate(4,8)" class="S sfv" d="M1320 1313 L1536 1529 L1536 1561 L1320 1345 Z"/><path class="fv2" d="M1320 1313 L1536 1529 L1536 1561 L1320 1345 Z" /></g><g class="o"><path transform="translate(8,16)" class="S sfh" d="M1417 1269 L1600 1452 L1608 1452 L1425 1269 Z"/><path class="fh1" d="M1417 1269 L1600 1452 L1608 1452 L1425 1269 Z" /></g><g class="o"><path transform="translate(3,6)" class="S sfv" d="M1987 1309 L1276 2020 L1276 2038 L1987 1327 Z"/><path class="fv1" d="M1987 1309 L1276 2020 L1276 2038 L1987 1327 Z" /></g><g class="o"><path transform="translate(9,18)" class="S sf" d="M1592 1530 L1350 1772 L1378 1772 L1620 1530 Z"/><path class="f3" d="M1592 1530 L1350 1772 L1378 1772 L1620 1530 Z" /></g><g class="o"><path transform="translate(9,18)" class="S sfh" d="M1752 1263 L1606 1409 L1622 1409 L1768 1263 Z"/><path class="fh6" d="M1752 1263 L1606 1409 L1622 1409 L1768 1263 Z" /></g><g class="o"><path transform="translate(7,14)" class="S sfh" d="M1257 2043 L1596 2382 L1618 2382 L1279 2043 Z"/><path class="fh7" d="M1257 2043 L1596 2382 L1618 2382 L1279 2043 Z" /></g><g class="o"><path transform="translate(7,14)" class="S sfh" d="M1352 1088 L1587 1323 L1607 1323 L1372 1088 Z"/><path class="fh5" d="M1352 1088 L1587 1323 L1607 1323 L1372 1088 Z" /></g><g class="o"><path transform="translate(7,14)" class="S sfh" d="M1071 1730 L1280 1939 L1292 1939 L1083 1730 Z"/><path class="fh2" d="M1071 1730 L1280 1939 L1292 1939 L1083 1730 Z" /></g><g class="o"><path transform="translate(3,6)" class="S sfh" d="M2037 1357 L1848 1546 L1872 1546 L2061 1357 Z"/><path class="fh6" d="M2037 1357 L1848 1546 L1872 1546 L2061 1357 Z" /></g><g class="o"><path transform="translate(7,14)" class="S ssh" d="M1411 2041 L1517 2147 L1549 2147 L1443 2041 Z"/><path class="sh2" d="M1411 2041 L1517 2147 L1549 2147 L1443 2041 Z" /></g><g class="o"><path transform="translate(7,14)" class="S ss" d="M1974 954 L2643 1623 L2643 1643 L1974 974 Z"/><path class="s5" d="M1974 954 L2643 1623 L2643 1643 L1974 974 Z" /></g><g class="o"><path transform="translate(5,10)" class="S ssh" d="M2008 1072 L1821 1259 L1841 1259 L2028 1072 Z"/><path class="sh5" d="M2008 1072 L1821 1259 L1841 1259 L2028 1072 Z" /></g><g class="o"><path transform="translate(4,8)" class="S sf" d="M1801 1962 L1691 2072 L1721 2072 L1831 1962 Z"/><path class="f2" d="M1801 1962 L1691 2072 L1721 2072 L1831 1962 Z" /></g><g class="o"><path transform="translate(4,8)" class="S sfv" d="M1447 1022 L1284 1185 L1284 1193 L1447 1030 Z"/><path class="fv2" d="M1447 1022 L1284 1185 L1284 1193 L1447 1030 Z" /></g><g class="o"><path transform="translate(8,16)" class="S ssv" d="M1877 1018 L1823 1072 L1823 1088 L1877 1034 Z"/><path class="sv3" d="M1877 1018 L1823 1072 L1823 1088 L1877 1034 Z" /></g><g class="o"><path transform="translate(2,4)" class="S sf" d="M1455 1609 L864 2200 L886 2200 L1477 1609 Z"/><path class="f2" d="M1455 1609 L864 2200 L886 2200 L1477 1609 Z" /></g><g class="o"><path transform="translate(2,4)" class="S sfv" d="M1602 1290 L1444 1448 L1444 1458 L1602 1300 Z"/><path class="fv4" d="M1602 1290 L1444 1448 L1444 1458 L1602 1300 Z" /></g><g class="o"><path transform="translate(5,10)" class="S sf" d="M1413 1467 L1254 1626 L1268 1626 L1427 1467 Z"/><path class="f6" d="M1413 1467 L1254 1626 L1268 1626 L1427 1467 Z" /></g><g class="o"><path transform="translate(3,6)" class="S sfh" d="M1835 976 L1926 1067 L1948 1067 L1857 976 Z"/><path class="fh4" d="M1835 976 L1926 1067 L1948 1067 L1857 976 Z" /></g><g class="o"><path transform="translate(7,14)" class="S sfh" d="M1515 1406 L1626 1517 L1638 1517 L1527 1406 Z"/><path class="fh6" d="M1515 1406 L1626 1517 L1638 1517 L1527 1406 Z" /></g><g class="o"><path transform="translate(9,18)" class="S sfv" d="M1119 1114 L1010 1223 L1010 1241 L1119 1132 Z"/><path class="fv6" d="M1119 1114 L1010 1223 L1010 1241 L1119 1132 Z" /></g><g class="o"><path transform="translate(9,18)" class="S ssh" d="M1734 1153 L1619 1268 L1657 1268 L1772 1153 Z"/><path class="sh1" d="M1734 1153 L1619 1268 L1657 1268 L1772 1153 Z" /></g><g class="o"><path transform="translate(9,18)" class="S sf" d="M1307 1574 L1257 1624 L1305 1624 L1355 1574 Z"/><path class="f7" d="M1307 1574 L1257 1624 L1305 1624 L1355 1574 Z" /></g><g class="o"><path transform="translate(8,16)" class="S sf" d="M1605 1561 L1393 1773 L1393 1807 L1605 1595 Z"/><path class="f6" d="M1605 1561 L1393 1773 L1393 1807 L1605 1595 Z" /></g><g class="o"><path transform="translate(6,12)" class="S sfv" d="M1688 959 L1758 1029 L1758 1047 L1688 977 Z"/><path class="fv7" d="M1688 959 L1758 1029 L1758 1047 L1688 977 Z" /></g><g class="o"><path transform="translate(4,8)" class="S sfh" d="M1525 981 L1690 1146 L1724 1146 L1559 981 Z"/><path class="fh7" d="M1525 981 L1690 1146 L1724 1146 L1559 981 Z" /></g><g class="o"><path transform="translate(4,8)" class="S sfh" d="M1983 1176 L2221 1414 L2229 1414 L1991 1176 Z"/><path class="fh5" d="M1983 1176 L2221 1414 L2229 1414 L1991 1176 Z" /></g><g class="o"><path transform="translate(4,8)" class="S sfv" d="M1314 1577 L1166 1725 L1166 1763 L1314 1615 Z"/><path class="fv5" d="M1314 1577 L1166 1725 L1166 1763 L1314 1615 Z" /></g><g class="o"><path transform="translate(3,6)" class="S sfv" d="M1873 1028 L1426 1475 L1426 1493 L1873 1046 Z"/><path class="fv5" d="M1873 1028 L1426 1475 L1426 1493 L1873 1046 Z" /></g><g class="o"><path transform="translate(3,6)" class="S sfv" d="M1906 1211 L2263 1568 L2263 1584 L1906 1227 Z"/><path class="fv2" d="M1906 1211 L2263 1568 L2263 1584 L1906 1227 Z" /></g><g class="o"><path transform="translate(9,18)" class="S ss" d="M1704 1425 L2280 2001 L2280 2037 L1704 1461 Z"/><path class="s4" d="M1704 1425 L2280 2001 L2280 2037 L1704 1461 Z" /></g><g class="o"><path transform="translate(9,18)" class="S sfh" d="M1636 1143 L1860 1367 L1890 1367 L1666 1143 Z"/><path class="fh5" d="M1636 1143 L1860 1367 L1890 1367 L1666 1143 Z" /></g><g class="o"><path transform="translate(4,8)" class="S ss" d="M2012 954 L2199 1141 L2229 1141 L2042 954 Z"/><path class="s4" d="M2012 954 L2199 1141 L2229 1141 L2042 954 Z" /></g><g class="o"><path transform="translate(2,4)" class="S sfv" d="M1714 1681 L1959 1926 L1959 1938 L1714 1693 Z"/><path class="fv2" d="M1714 1681 L1959 1926 L1959 1938 L1714 1693 Z" /></g><g class="o"><path transform="translate(4,8)" class="S sfv" d="M1030 1884 L1277 2131 L1277 2163 L1030 1916 Z"/><path class="fv5" d="M1030 1884 L1277 2131 L1277 2163 L1030 1916 Z" /></g><g class="o"><path transform="translate(6,12)" class="S sfv" d="M968 1156 L1025 1213 L1025 1235 L968 1178 Z"/><path class="fv2" d="M968 1156 L1025 1213 L1025 1235 L968 1178 Z" /></g><g class="o"><path transform="translate(4,8)" class="S sf" d="M1774 1249 L1961 1436 L1961 1466 L1774 1279 Z"/><path class="f2" d="M1774 1249 L1961 1436 L1961 1466 L1774 1279 Z" /></g><g class="o"><path transform="translate(7,14)" class="S sf" d="M1457 1809 L1362 1904 L1388 1904 L1483 1809 Z"/><path class="f6" d="M1457 1809 L1362 1904 L1388 1904 L1483 1809 Z" /></g><g class="o"><path transform="translate(2,4)" class="S sfh" d="M1161 1200 L1037 1324 L1109 1324 L1233 1200 Z"/><path class="fh4" d="M1161 1200 L1037 1324 L1109 1324 L1233 1200 Z" /></g><g class="o"><path transform="translate(2,4)" class="S ssh" d="M1839 978 L1684 1133 L1698 1133 L1853 978 Z"/><path class="sh5" d="M1839 978 L1684 1133 L1698 1133 L1853 978 Z" /></g><g class="o"><path transform="translate(8,16)" class="S sfv" d="M1994 1854 L2212 2072 L2212 2100 L1994 1882 Z"/><path class="fv4" d="M1994 1854 L2212 2072 L2212 2100 L1994 1882 Z" /></g><g class="o"><path transform="translate(3,6)" class="S sfh" d="M1926 1640 L2111 1825 L2247 1825 L2062 1640 Z"/><path class="fh2" d="M1926 1640 L2111 1825 L2247 1825 L2062 1640 Z" /></g><g class="o"><path transform="translate(8,16)" class="S ssv" d="M1924 1380 L1318 1986 L1318 2022 L1924 1416 Z"/><path class="sv7" d="M1924 1380 L1318 1986 L1318 2022 L1924 1416 Z" /></g><g class="o"><path transform="translate(9,18)" class="S sfh" d="M1524 1300 L1722 1498 L1746 1498 L1548 1300 Z"/><path class="fh7" d="M1524 1300 L1722 1498 L1746 1498 L1548 1300 Z" /></g><g class="o"><path transform="translate(2,4)" class="S sfv" d="M2011 1629 L1805 1835 L1805 1853 L2011 1647 Z"/><path class="fv3" d="M2011 1629 L1805 1835 L1805 1853 L2011 1647 Z" /></g><g class="o"><path transform="translate(8,16)" class="S ss" d="M1699 1445 L1494 1650 L1494 1676 L1699 1471 Z"/><path class="s4" d="M1699 1445 L1494 1650 L1494 1676 L1699 1471 Z" /></g><g class="o"><path transform="translate(9,18)" class="S sfh" d="M1146 1118 L1349 1321 L1383 1321 L1180 1118 Z"/><path class="fh1" d="M1146 1118 L1349 1321 L1383 1321 L1180 1118 Z" /></g><g class="o"><path transform="translate(5,10)" class="S sfv" d="M1821 1261 L1579 1503 L1579 1521 L1821 1279 Z"/><path class="fv6" d="M1821 1261 L1579 1503 L1579 1521 L1821 1279 Z" /></g><g class="o"><path transform="translate(5,10)" class="S sfv" d="M1661 1160 L1725 1224 L1725 1254 L1661 1190 Z"/><path class="fv3" d="M1661 1160 L1725 1224 L1725 1254 L1661 1190 Z" /></g><g class="o"><path transform="translate(6,12)" class="S sfh" d="M1499 1562 L1707 1770 L1743 1770 L1535 1562 Z"/><path class="fh2" d="M1499 1562 L1707 1770 L1743 1770 L1535 1562 Z" /></g><g class="o"><path transform="translate(2,4)" class="S sf" d="M1872 1059 L2038 1225 L2038 1239 L1872 1073 Z"/><path class="f6" d="M1872 1059 L2038 1225 L2038 1239 L1872 1073 Z" /></g><g class="o"><path transform="translate(7,14)" class="S sfv" d="M1650 1614 L1411 1853 L1411 1863 L1650 1624 Z"/><path class="fv2" d="M1650 1614 L1411 1853 L1411 1863 L1650 1624 Z" /></g><g class="o"><path transform="translate(8,16)" class="S sfh" d="M1769 1399 L1894 1524 L1924 1524 L1799 1399 Z"/><path class="fh7" d="M1769 1399 L1894 1524 L1924 1524 L1799 1399 Z" /></g><g class="o"><path transform="translate(9,18)" class="S sfv" d="M1884 991 L1701 1174 L1701 1188 L1884 1005 Z"/><path class="fv3" d="M1884 991 L1701 1174 L1701 1188 L1884 1005 Z" /></g><g class="o"><path transform="translate(5,10)" class="S sfv" d="M1972 1596 L1833 1735 L1833 1751 L1972 1612 Z"/><path class="fv3" d="M1972 1596 L1833 1735 L1833 1751 L1972 1612 Z" /></g><g class="o"><path transform="translate(2,4)" class="S sfh" d="M1167 1959 L498 2628 L520 2628 L1189 1959 Z"/><path class="fh6" d="M1167 1959 L498 2628 L520 2628 L1189 1959 Z" /></g><g class="o"><path transform="translate(8,16)" class="S ssh" d="M1369 1132 L1565 1328 L1587 1328 L1391 1132 Z"/><path class="sh4" d="M1369 1132 L1565 1328 L1587 1328 L1391 1132 Z" /></g><g class="o"><path transform="translate(9,18)" class="S sf" d="M1971 1176 L2367 1572 L2367 1590 L1971 1194 Z"/><path class="f2" d="M1971 1176 L2367 1572 L2367 1590 L1971 1194 Z" /></g><g class="o"><path transform="translate(4,8)" class="S sfv" d="M1756 1749 L1908 1901 L1908 1917 L1756 1765 Z"/><path class="fv3" d="M1756 1749 L1908 1901 L1908 1917 L1756 1765 Z" /></g><g class="o"><path transform="translate(3,6)" class="S sfh" d="M1927 1643 L1585 1985 L1737 1985 L2079 1643 Z"/><path class="fh3" d="M1927 1643 L1585 1985 L1737 1985 L2079 1643 Z" /></g><g class="o"><path transform="translate(6,12)" class="S sfh" d="M1705 1999 L1632 2072 L1646 2072 L1719 1999 Z"/><path class="fh2" d="M1705 1999 L1632 2072 L1646 2072 L1719 1999 Z" /></g><g class="o"><path transform="translate(4,8)" class="S ssh" d="M1925 1666 L2126 1867 L2142 1867 L1941 1666 Z"/><path class="sh1" d="M1925 1666 L2126 1867 L2142 1867 L1941 1666 Z" /></g><g class="o"><path transform="translate(3,6)" class="S sfv" d="M1797 1104 L2088 1395 L2088 1431 L1797 1140 Z"/><path class="fv6" d="M1797 1104 L2088 1395 L2088 1431 L1797 1140 Z" /></g><g class="o"><path transform="translate(2,4)" class="S sfv" d="M1566 1696 L1462 1800 L1462 1822 L1566 1718 Z"/><path class="fv4" d="M1566 1696 L1462 1800 L1462 1822 L1566 1718 Z" /></g><g class="o"><path transform="translate(8,16)" class="S sfh" d="M1686 1899 L1811 2024 L1819 2024 L1694 1899 Z"/><path class="fh7" d="M1686 1899 L1811 2024 L1819 2024 L1694 1899 Z" /></g><g class="o"><path transform="translate(4,8)" class="S sfv" d="M1978 983 L1845 1116 L1845 1136 L1978 1003 Z"/><path class="fv1" d="M1978 983 L1845 1116 L1845 1136 L1978 1003 Z" /></g><g class="o"><path transform="translate(7,14)" class="S sfh" d="M1537 1706 L1663 1832 L1701 1832 L1575 1706 Z"/><path class="fh6" d="M1537 1706 L1663 1832 L1701 1832 L1575 1706 Z" /></g><g class="o"><path transform="translate(2,4)" class="S sf" d="M2010 1777 L2219 1986 L2219 2018 L2010 1809 Z"/><path class="f5" d="M2010 1777 L2219 1986 L2219 2018 L2010 1809 Z" /></g><g class="o"><path transform="translate(6,12)" class="S sfv" d="M2027 1389 L2263 1625 L2263 1663 L2027 1427 Z"/><path class="fv1" d="M2027 1389 L2263 1625 L2263 1663 L2027 1427 Z" /></g><g class="o"><path transform="translate(8,16)" class="S sfv" d="M1693 1337 L1624 1406 L1624 1414 L1693 1345 Z"/><path class="fv2" d="M1693 1337 L1624 1406 L1624 1414 L1693 1345 Z" /></g><g class="o"><path transform="translate(4,8)" class="S sfv" d="M1607 1371 L1551 1427 L1551 1459 L1607 1403 Z"/><path class="fv2" d="M1607 1371 L1551 1427 L1551 1459 L1607 1403 Z" /></g><g class="o"><path transform="translate(2,4)" class="S ss" d="M1494 1425 L1412 1507 L1448 1507 L1530 1425 Z"/><path class="s6" d="M1494 1425 L1412 1507 L1448 1507 L1530 1425 Z" /></g><g class="o"><path transform="translate(8,16)" class="S sfh" d="M2034 1162 L1947 1249 L1977 1249 L2064 1162 Z"/><path class="fh7" d="M2034 1162 L1947 1249 L1977 1249 L2064 1162 Z" /></g><g class="o"><path transform="translate(9,18)" class="S sf" d="M1733 1112 L1815 1194 L1823 1194 L1741 1112 Z"/><path class="f2" d="M1733 1112 L1815 1194 L1823 1194 L1741 1112 Z" /></g><g class="o"><path transform="translate(5,10)" class="S ssh" d="M1101 1130 L1262 1291 L1274 1291 L1113 1130 Z"/><path class="sh1" d="M1101 1130 L1262 1291 L1274 1291 L1113 1130 Z" /></g><g class="o"><path transform="translate(9,18)" class="S sfv" d="M1280 1434 L1348 1502 L1348 1510 L1280 1442 Z"/><path class="fv7" d="M1280 1434 L1348 1502 L1348 1510 L1280 1442 Z" /></g><g class="o"><path transform="translate(5,10)" class="S sfh" d="M1349 1729 L1478 1858 L1502 1858 L1373 1729 Z"/><path class="fh4" d="M1349 1729 L1478 1858 L1502 1858 L1373 1729 Z" /></g><g class="o"><path transform="translate(5,10)" class="S sfv" d="M1032 1722 L354 2400 L354 2420 L1032 1742 Z"/><path class="fv1" d="M1032 1722 L354 2400 L354 2420 L1032 1742 Z" /></g><g class="o"><path transform="translate(7,14)" class="S ssv" d="M1064 962 L692 1334 L692 1356 L1064 984 Z"/><path class="sv3" d="M1064 962 L692 1334 L692 1356 L1064 984 Z" /></g><g class="o"><path transform="translate(7,14)" class="S sfv" d="M1115 1035 L1188 1108 L1188 1142 L1115 1069 Z"/><path class="fv5" d="M1115 1035 L1188 1108 L1188 1142 L1115 1069 Z" /></g><g class="o"><path transform="translate(2,4)" class="S ssv" d="M1459 1454 L1222 1691 L1222 1705 L1459 1468 Z"/><path class="sv4" d="M1459 1454 L1222 1691 L1222 1705 L1459 1468 Z" /></g><g class="o"><path transform="translate(5,10)" class="S sfh" d="M1871 1764 L2067 1960 L2087 1960 L1891 1764 Z"/><path class="fh7" d="M1871 1764 L2067 1960 L2087 1960 L1891 1764 Z" /></g><g class="o"><path transform="translate(2,4)" class="S sfh" d="M1800 1546 L2001 1747 L2023 1747 L1822 1546 Z"/><path class="fh1" d="M1800 1546 L2001 1747 L2023 1747 L1822 1546 Z" /></g><g class="o"><path transform="translate(4,8)" class="S sf" d="M1037 1942 L578 2401 L612 2401 L1071 1942 Z"/><path class="f5" d="M1037 1942 L578 2401 L612 2401 L1071 1942 Z" /></g><g class="o"><path transform="translate(3,6)" class="S ssh" d="M1043 1059 L1245 1261 L1265 1261 L1063 1059 Z"/><path class="sh1" d="M1043 1059 L1245 1261 L1265 1261 L1063 1059 Z" /></g><g class="o"><path transform="translate(8,16)" class="S ssv" d="M1042 1991 L809 2224 L809 2248 L1042 2015 Z"/><path class="sv2" d="M1042 1991 L809 2224 L809 2248 L1042 2015 Z" /></g><g class="o"><path transform="translate(3,6)" class="S sfh" d="M954 1417 L1689 2152 L1713 2152 L978 1417 Z"/><path class="fh1" d="M954 1417 L1689 2152 L1713 2152 L978 1417 Z" /></g><g class="o"><path transform="translate(7,14)" class="S sfh" d="M1769 1982 L1992 2205 L2022 2205 L1799 1982 Z"/><path class="fh4" d="M1769 1982 L1992 2205 L2022 2205 L1799 1982 Z" /></g><g class="o"><path transform="translate(2,4)" class="S sfv" d="M990 1107 L1097 1214 L1097 1222 L990 1115 Z"/><path class="fv3" d="M990 1107 L1097 1214 L1097 1222 L990 1115 Z" /></g><g class="o"><path transform="translate(6,12)" class="S sf" d="M1212 1259 L1105 1366 L1127 1366 L1234 1259 Z"/><path class="f5" d="M1212 1259 L1105 1366 L1127 1366 L1234 1259 Z" /></g><g class="o"><path transform="translate(8,16)" class="S ssv" d="M1141 1916 L1386 2161 L1386 2195 L1141 1950 Z"/><path class="sv1" d="M1141 1916 L1386 2161 L1386 2195 L1141 1950 Z" /></g><g class="o"><path transform="translate(7,14)" class="S sfv" d="M991 1270 L514 1747 L514 1759 L991 1282 Z"/><path class="fv3" d="M991 1270 L514 1747 L514 1759 L991 1282 Z" /></g><g class="o"><path transform="translate(9,18)" class="S ssh" d="M1647 1564 L1845 1762 L1883 1762 L1685 1564 Z"/><path class="sh7" d="M1647 1564 L1845 1762 L1883 1762 L1685 1564 Z" /></g><g class="o"><path transform="translate(8,16)" class="S sfh" d="M1133 2025 L1321 2213 L1357 2213 L1169 2025 Z"/><path class="fh6" d="M1133 2025 L1321 2213 L1357 2213 L1169 2025 Z" /></g><g class="o"><path transform="translate(9,18)" class="S sfv" d="M1151 1706 L1220 1775 L1220 1831 L1151 1762 Z"/><path class="fv5" d="M1151 1706 L1220 1775 L1220 1831 L1151 1762 Z" /></g><g class="o"><path transform="translate(3,6)" class="S sf" d="M1581 1358 L1869 1646 L1869 1654 L1581 1366 Z"/><path class="f1" d="M1581 1358 L1869 1646 L1869 1654 L1581 1366 Z" /></g><g class="o"><path transform="translate(4,8)" class="S ssh" d="M1127 1407 L596 1938 L608 1938 L1139 1407 Z"/><path class="sh1" d="M1127 1407 L596 1938 L608 1938 L1139 1407 Z" /></g><g class="o"><path transform="translate(2,4)" class="S sfv" d="M1677 1374 L1434 1617 L1434 1653 L1677 1410 Z"/><path class="fv7" d="M1677 1374 L1434 1617 L1434 1653 L1677 1410 Z" /></g><g class="o"><path transform="translate(3,6)" class="S sfh" d="M1462 1271 L1792 1601 L1808 1601 L1478 1271 Z"/><path class="fh6" d="M1462 1271 L1792 1601 L1808 1601 L1478 1271 Z" /></g><g class="o"><path transform="translate(4,8)" class="S ss" d="M968 2032 L1216 2280 L1216 2296 L968 2048 Z"/><path class="s4" d="M968 2032 L1216 2280 L1216 2296 L968 2048 Z" /></g><g class="o"><path transform="translate(4,8)" class="S sfh" d="M1850 1942 L1442 2350 L1470 2350 L1878 1942 Z"/><path class="fh3" d="M1850 1942 L1442 2350 L1470 2350 L1878 1942 Z" /></g><g class="o"><path transform="translate(3,6)" class="S ssv" d="M1966 1064 L1756 1274 L1756 1302 L1966 1092 Z"/><path class="sv2" d="M1966 1064 L1756 1274 L1756 1302 L1966 1092 Z" /></g><g class="o"><path transform="translate(2,4)" class="S ssh" d="M1185 1345 L1276 1436 L1312 1436 L1221 1345 Z"/><path class="sh7" d="M1185 1345 L1276 1436 L1312 1436 L1221 1345 Z" /></g><g class="o"><path transform="translate(6,12)" class="S ssv" d="M1566 1433 L1379 1620 L1379 1632 L1566 1445 Z"/><path class="sv7" d="M1566 1433 L1379 1620 L1379 1632 L1566 1445 Z" /></g><g class="o"><path transform="translate(7,14)" class="S sfv" d="M1848 1579 L1933 1664 L1933 1682 L1848 1597 Z"/><path class="fv6" d="M1848 1579 L1933 1664 L1933 1682 L1848 1597 Z" /></g><g class="o"><path transform="translate(6,12)" class="S sfh" d="M2030 1051 L2477 1498 L2499 1498 L2052 1051 Z"/><path class="fh6" d="M2030 1051 L2477 1498 L2499 1498 L2052 1051 Z" /></g><g class="o"><path transform="translate(6,12)" class="S sfv" d="M1045 1097 L1173 1225 L1173 1245 L1045 1117 Z"/><path class="fv1" d="M1045 1097 L1173 1225 L1173 1245 L1045 1117 Z" /></g><g class="o"><path transform="translate(2,4)" class="S ssh" d="M1364 1876 L1173 2067 L1199 2067 L1390 1876 Z"/><path class="sh1" d="M1364 1876 L1173 2067 L1199 2067 L1390 1876 Z" /></g><g class="o"><path transform="translate(2,4)" class="S sfv" d="M986 1067 L1040 1121 L1040 1159 L986 1105 Z"/><path class="fv6" d="M986 1067 L1040 1121 L1040 1159 L986 1105 Z" /></g><g class="o"><path transform="translate(6,12)" class="S sf" d="M1106 1607 L1344 1845 L1344 1877 L1106 1639 Z"/><path class="f5" d="M1106 1607 L1344 1845 L1344 1877 L1106 1639 Z" /></g><g class="o"><path transform="translate(9,18)" class="S sfv" d="M967 1941 L790 2118 L790 2140 L967 1963 Z"/><path class="fv3" d="M967 1941 L790 2118 L790 2140 L967 1963 Z" /></g><g class="o"><path transform="translate(5,10)" class="S sfv" d="M1689 1382 L1558 1513 L1558 1541 L1689 1410 Z"/><path class="fv4" d="M1689 1382 L1558 1513 L1558 1541 L1689 1410 Z" /></g><g class="o"><path transform="translate(9,18)" class="S sfh" d="M1522 1127 L1711 1316 L1719 1316 L1530 1127 Z"/><path class="fh3" d="M1522 1127 L1711 1316 L1719 1316 L1530 1127 Z" /></g><g class="o"><path transform="translate(2,4)" class="S sfh" d="M1325 1592 L1240 1677 L1278 1677 L1363 1592 Z"/><path class="fh2" d="M1325 1592 L1240 1677 L1278 1677 L1363 1592 Z" /></g></g><use href="#slashes" transform-origin="1500 1500" transform="rotate(180) scale(2)"/></g><rect x="1080" y="1080" width="840" height="840" stroke-width="10" class="o s4" /><use href="#slashes" transform-origin="1500 1500" transform="scale(.7)"/><use href="#slashes" transform-origin="1500 1500" transform="rotate(180) scale(1.3)"/></svg>