<svg xmlns="http://www.w3.org/2000/svg" viewBox="750 750 1500 1500"><style>/*<![CDATA[*/svg{background:rgb(63,2,89);max-width:100vw;max-height:100vh}path{stroke-width:4}.o{opacity:.75}.S{opacity:.4}.sf{stroke:none;fill:black}.sfh{stroke:none;fill:url(#hs)}.sfv{stroke:none;fill:url(#vs)}.ss{stroke:black;fill:none}.ssh{stroke:url(#hs);fill:none}.ssv{stroke:url(#vs);fill:none}.s1{fill:none;stroke:rgb(242,235,220)}.f1{stroke:none;fill:rgb(242,235,220)}.sh1{fill:none;stroke:url(#h1)}.fh1{stroke:none;fill:url(#h1)}.sv1{fill:none;stroke:url(#v1)}.fv1{stroke:none;fill:url(#v1)}.s2{fill:none;stroke:rgb(246,81,29)}.f2{stroke:none;fill:rgb(246,81,29)}.sh2{fill:none;stroke:url(#h2)}.fh2{stroke:none;fill:url(#h2)}.sv2{fill:none;stroke:url(#v2)}.fv2{stroke:none;fill:url(#v2)}.s3{fill:none;stroke:rgb(242,226,5)}.f3{stroke:none;fill:rgb(242,226,5)}.sh3{fill:none;stroke:url(#h3)}.fh3{stroke:none;fill:url(#h3)}.sv3{fill:none;stroke:url(#v3)}.fv3{stroke:none;fill:url(#v3)}.s4{fill:none;stroke:rgb(34,34,34)}.f4{stroke:none;fill:rgb(34,34,34)}.sh4{fill:none;stroke:url(#h4)}.fh4{stroke:none;fill:url(#h4)}.sv4{fill:none;stroke:url(#v4)}.fv4{stroke:none;fill:url(#v4)}.s5{fill:none;stroke:rgb(96,96,96)}.f5{stroke:none;fill:rgb(96,96,96)}.sh5{fill:none;stroke:url(#h5)}.fh5{stroke:none;fill:url(#h5)}.sv5{fill:none;stroke:url(#v5)}.fv5{stroke:none;fill:url(#v5)}.s6{fill:none;stroke:rgb(255,255,255)}.f6{stroke:none;fill:rgb(255,255,255)}.sh6{fill:none;stroke:url(#h6)}.fh6{stroke:none;fill:url(#h6)}.sv6{fill:none;stroke:url(#v6)}.fv6{stroke:none;fill:url(#v6)}.s7{fill:none;stroke:rgb(255,0,0)}.f7{stroke:none;fill:rgb(255,0,0)}.sh7{fill:none;stroke:url(#h7)}.fh7{stroke:none;fill:url(#h7)}.sv7{fill:none;stroke:url(#v7)}.fv7{stroke:none;fill:url(#v7)}/*]]>*/</style><defs><linearGradient gradientTransform="rotate(90)" id="hs"><stop offset="20%" stop-color="#000" /><stop offset="95%" stop-color="rgba(0, 0, 0, 0)" /></linearGradient><linearGradient id="vs"><stop offset="20%" stop-color="#000" /><stop offset="95%" stop-color="rgba(0, 0, 0, 0)" /></linearGradient><linearGradient gradientTransform="rotate(90)" id="h1"><stop offset="20%" stop-color="rgba(242,235,220,1)" /><stop offset="95%" stop-color="rgba(242,235,220,0)" /></linearGradient><linearGradient id="v1"><stop offset="20%" stop-color="rgba(242,235,220,1)" /><stop offset="95%" stop-color="rgba(242,235,220,0)" /></linearGradient><linearGradient gradientTransform="rotate(90)" id="h2"><stop offset="20%" stop-color="rgba(246,81,29,1)" /><stop offset="95%" stop-color="rgba(246,81,29,0)" /></linearGradient><linearGradient id="v2"><stop offset="20%" stop-color="rgba(246,81,29,1)" /><stop offset="95%" stop-color="rgba(246,81,29,0)" /></linearGradient><linearGradient gradientTransform="rotate(90)" id="h3"><stop offset="20%" stop-color="rgba(242,226,5,1)" /><stop offset="95%" stop-color="rgba(242,226,5,0)" /></linearGradient><linearGradient id="v3"><stop offset="20%" stop-color="rgba(242,226,5,1)" /><stop offset="95%" stop-color="rgba(242,226,5,0)" /></linearGradient><linearGradient gradientTransform="rotate(90)" id="h4"><stop offset="20%" stop-color="rgba(34,34,34,1)" /><stop offset="95%" stop-color="rgba(34,34,34,0)" /></linearGradient><linearGradient id="v4"><stop offset="20%" stop-color="rgba(34,34,34,1)" /><stop offset="95%" stop-color="rgba(34,34,34,0)" /></linearGradient><linearGradient gradientTransform="rotate(90)" id="h5"><stop offset="20%" stop-color="rgba(96,96,96,1)" /><stop offset="95%" stop-color="rgba(96,96,96,0)" /></linearGradient><linearGradient id="v5"><stop offset="20%" stop-color="rgba(96,96,96,1)" /><stop offset="95%" stop-color="rgba(96,96,96,0)" /></linearGradient><linearGradient gradientTransform="rotate(90)" id="h6"><stop offset="20%" stop-color="rgba(255,255,255,1)" /><stop offset="95%" stop-color="rgba(255,255,255,0)" /></linearGradient><linearGradient id="v6"><stop offset="20%" stop-color="rgba(255,255,255,1)" /><stop offset="95%" stop-color="rgba(255,255,255,0)" /></linearGradient><linearGradient gradientTransform="rotate(90)" id="h7"><stop offset="20%" stop-color="rgba(255,0,0,1)" /><stop offset="95%" stop-color="rgba(255,0,0,0)" /></linearGradient><linearGradient id="v7"><stop offset="20%" stop-color="rgba(255,0,0,1)" /><stop offset="95%" stop-color="rgba(255,0,0,0)" /></linearGradient></defs><g transform-origin="1500 1500" transform="scale(2)" opacity=".2"><g id="slashes"><g class="o"><path transform="translate(6,12)" class="S sfv" d="M1646 1322 L1872 1548 L1872 1578 L1646 1352 Z"/><path class="fv4" d="M1646 1322 L1872 1548 L1872 1578 L1646 1352 Z" /></g><g class="o"><path transform="translate(9,18)" class="S sfh" d="M969 1310 L1109 1170 L1121 1170 L981 1310 Z"/><path class="fh7" d="M969 1310 L1109 1170 L1121 1170 L981 1310 Z" /></g><g class="o"><path transform="translate(3,6)" class="S sf" d="M1842 1868 L2034 1676 L2034 1686 L1842 1878 Z"/><path class="f4" d="M1842 1868 L2034 1676 L2034 1686 L1842 1878 Z" /></g><g class="o"><path transform="translate(4,8)" class="S sfv" d="M1554 1374 L1617 1437 L1617 1451 L1554 1388 Z"/><path class="fv7" d="M1554 1374 L1617 1437 L1617 1451 L1554 1388 Z" /></g><g class="o"><path transform="translate(6,12)" class="S sf" d="M2046 1748 L2244 1946 L2244 1962 L2046 1764 Z"/><path class="f7" d="M2046 1748 L2244 1946 L2244 1962 L2046 1764 Z" /></g><g class="o"><path transform="translate(4,8)" class="S ssh" d="M1169 1129 L1386 1346 L1398 1346 L1181 1129 Z"/><path class="sh6" d="M1169 1129 L1386 1346 L1398 1346 L1181 1129 Z" /></g><g class="o"><path transform="translate(7,14)" class="S sfv" d="M981 1631 L1173 1823 L1173 1835 L981 1643 Z"/><path class="fv3" d="M981 1631 L1173 1823 L1173 1835 L981 1643 Z" /></g><g class="o"><path transform="translate(9,18)" class="S ss" d="M1035 1210 L1659 1834 L1689 1834 L1065 1210 Z"/><path class="s7" d="M1035 1210 L1659 1834 L1689 1834 L1065 1210 Z" /></g><g class="o"><path transform="translate(8,16)" class="S sfv" d="M1548 1734 L1788 1974 L1788 1990 L1548 1750 Z"/><path class="fv5" d="M1548 1734 L1788 1974 L1788 1990 L1548 1750 Z" /></g><g class="o"><path transform="translate(5,10)" class="S sfv" d="M1826 1226 L2037 1437 L2037 1473 L1826 1262 Z"/><path class="fv3" d="M1826 1226 L2037 1437 L2037 1473 L1826 1262 Z" /></g><g class="o"><path transform="translate(6,12)" class="S ssh" d="M1226 1927 L1459 2160 L1493 2160 L1260 1927 Z"/><path class="sh7" d="M1226 1927 L1459 2160 L1493 2160 L1260 1927 Z" /></g><g class="o"><path transform="translate(7,14)" class="S sf" d="M1797 1044 L2043 1290 L2043 1316 L1797 1070 Z"/><path class="f7" d="M1797 1044 L2043 1290 L2043 1316 L1797 1070 Z" /></g><g class="o"><path transform="translate(4,8)" class="S ssv" d="M1653 1487 L1819 1653 L1819 1671 L1653 1505 Z"/><path class="sv3" d="M1653 1487 L1819 1653 L1819 1671 L1653 1505 Z" /></g><g class="o"><path transform="translate(5,10)" class="S ss" d="M1438 1324 L1535 1421 L1565 1421 L1468 1324 Z"/><path class="s3" d="M1438 1324 L1535 1421 L1565 1421 L1468 1324 Z" /></g><g class="o"><path transform="translate(9,18)" class="S sf" d="M2029 2000 L2217 2188 L2217 2208 L2029 2020 Z"/><path class="f3" d="M2029 2000 L2217 2188 L2217 2208 L2029 2020 Z" /></g><g class="o"><path transform="translate(8,16)" class="S sfv" d="M1825 1003 L2122 1300 L2122 1328 L1825 1031 Z"/><path class="fv2" d="M1825 1003 L2122 1300 L2122 1328 L1825 1031 Z" /></g><g class="o"><path transform="translate(6,12)" class="S sfh" d="M1391 1275 L1583 1467 L1605 1467 L1413 1275 Z"/><path class="fh5" d="M1391 1275 L1583 1467 L1605 1467 L1413 1275 Z" /></g><g class="o"><path transform="translate(7,14)" class="S sfv" d="M1356 1853 L1543 2040 L1543 2066 L1356 1879 Z"/><path class="fv5" d="M1356 1853 L1543 2040 L1543 2066 L1356 1879 Z" /></g><g class="o"><path transform="translate(3,6)" class="S sfh" d="M1358 1638 L1517 1797 L1533 1797 L1374 1638 Z"/><path class="fh1" d="M1358 1638 L1517 1797 L1533 1797 L1374 1638 Z" /></g><g class="o"><path transform="translate(9,18)" class="S sfv" d="M1044 1234 L1175 1103 L1175 1139 L1044 1270 Z"/><path class="fv5" d="M1044 1234 L1175 1103 L1175 1139 L1044 1270 Z" /></g><g class="o"><path transform="translate(7,14)" class="S sfh" d="M1327 1236 L1507 1056 L1533 1056 L1353 1236 Z"/><path class="fh5" d="M1327 1236 L1507 1056 L1533 1056 L1353 1236 Z" /></g><g class="o"><path transform="translate(5,10)" class="S sf" d="M1888 1638 L2632 2382 L2632 2418 L1888 1674 Z"/><path class="f6" d="M1888 1638 L2632 2382 L2632 2418 L1888 1674 Z" /></g><g class="o"><path transform="translate(8,16)" class="S sfh" d="M1358 1406 L1424 1472 L1432 1472 L1366 1406 Z"/><path class="fh1" d="M1358 1406 L1424 1472 L1432 1472 L1366 1406 Z" /></g><g class="o"><path transform="translate(9,18)" class="S ssv" d="M1201 1753 L1420 1972 L1420 1988 L1201 1769 Z"/><path class="sv1" d="M1201 1753 L1420 1972 L1420 1988 L1201 1769 Z" /></g><g class="o"><path transform="translate(3,6)" class="S ssv" d="M1514 1458 L1667 1611 L1667 1639 L1514 1486 Z"/><path class="sv2" d="M1514 1458 L1667 1611 L1667 1639 L1514 1486 Z" /></g><g class="o"><path transform="translate(3,6)" class="S sfh" d="M1858 1956 L2027 2125 L2045 2125 L1876 1956 Z"/><path class="fh4" d="M1858 1956 L2027 2125 L2045 2125 L1876 1956 Z" /></g><g class="o"><path transform="translate(6,12)" class="S sfh" d="M1529 1908 L1654 2033 L1680 2033 L1555 1908 Z"/><path class="fh3" d="M1529 1908 L1654 2033 L1680 2033 L1555 1908 Z" /></g><g class="o"><path transform="translate(6,12)" class="S sfh" d="M1651 1187 L2077 1613 L2099 1613 L1673 1187 Z"/><path class="fh4" d="M1651 1187 L2077 1613 L2099 1613 L1673 1187 Z" /></g><g class="o"><path transform="translate(6,12)" class="S sfh" d="M1451 1305 L1655 1509 L1673 1509 L1469 1305 Z"/><path class="fh1" d="M1451 1305 L1655 1509 L1673 1509 L1469 1305 Z" /></g><g class="o"><path transform="translate(5,10)" class="S sf" d="M1671 1383 L1881 1593 L1881 1609 L1671 1399 Z"/><path class="f5" d="M1671 1383 L1881 1593 L1881 1609 L1671 1399 Z" /></g><g class="o"><path transform="translate(4,8)" class="S sfv" d="M1769 996 L2021 1248 L2021 1270 L1769 1018 Z"/><path class="fv6" d="M1769 996 L2021 1248 L2021 1270 L1769 1018 Z" /></g><g class="o"><path transform="translate(7,14)" class="S sfh" d="M1921 1473 L2536 2088 L2552 2088 L1937 1473 Z"/><path class="fh5" d="M1921 1473 L2536 2088 L2552 2088 L1937 1473 Z" /></g><g class="o"><path transform="translate(3,6)" class="S sfv" d="M1057 1881 L1525 1413 L1525 1435 L1057 1903 Z"/><path class="fv7" d="M1057 1881 L1525 1413 L1525 1435 L1057 1903 Z" /></g><g class="o"><path transform="translate(8,16)" class="S sfv" d="M1114 1054 L1268 900 L1268 908 L1114 1062 Z"/><path class="fv4" d="M1114 1054 L1268 900 L1268 908 L1114 1062 Z" /></g><g class="o"><path transform="translate(9,18)" class="S sfh" d="M1086 997 L1299 1210 L1315 1210 L1102 997 Z"/><path class="fh2" d="M1086 997 L1299 1210 L1315 1210 L1102 997 Z" /></g><g class="o"><path transform="translate(7,14)" class="S sfh" d="M1068 1612 L1186 1730 L1206 1730 L1088 1612 Z"/><path class="fh2" d="M1068 1612 L1186 1730 L1206 1730 L1088 1612 Z" /></g><g class="o"><path transform="translate(6,12)" class="S sfh" d="M1736 1601 L1816 1681 L1836 1681 L1756 1601 Z"/><path class="fh1" d="M1736 1601 L1816 1681 L1836 1681 L1756 1601 Z" /></g><g class="o"><path transform="translate(2,4)" class="S sfv" d="M1037 1788 L1216 1967 L1216 1995 L1037 1816 Z"/><path class="fv5" d="M1037 1788 L1216 1967 L1216 1995 L1037 1816 Z" /></g><g class="o"><path transform="translate(8,16)" class="S sf" d="M1930 1670 L2046 1786 L2046 1814 L1930 1698 Z"/><path class="f3" d="M1930 1670 L2046 1786 L2046 1814 L1930 1698 Z" /></g><g class="o"><path transform="translate(4,8)" class="S sfh" d="M1336 1472 L1473 1335 L1495 1335 L1358 1472 Z"/><path class="fh2" d="M1336 1472 L1473 1335 L1495 1335 L1358 1472 Z" /></g><g class="o"><path transform="translate(8,16)" class="S sfv" d="M1465 1755 L1663 1953 L1663 1989 L1465 1791 Z"/><path class="fv7" d="M1465 1755 L1663 1953 L1663 1989 L1465 1791 Z" /></g><g class="o"><path transform="translate(2,4)" class="S sfh" d="M945 1604 L1103 1762 L1141 1762 L983 1604 Z"/><path class="fh1" d="M945 1604 L1103 1762 L1141 1762 L983 1604 Z" /></g><g class="o"><path transform="translate(3,6)" class="S sfh" d="M1621 1323 L1846 1548 L1868 1548 L1643 1323 Z"/><path class="fh7" d="M1621 1323 L1846 1548 L1868 1548 L1643 1323 Z" /></g><g class="o"><path transform="translate(4,8)" class="S sfh" d="M1823 1743 L2201 2121 L2227 2121 L1849 1743 Z"/><path class="fh2" d="M1823 1743 L2201 2121 L2227 2121 L1849 1743 Z" /></g><g class="o"><path transform="translate(3,6)" class="S sf" d="M992 1109 L1156 1273 L1156 1311 L992 1147 Z"/><path class="f4" d="M992 1109 L1156 1273 L1156 1311 L992 1147 Z" /></g><g class="o"><path transform="translate(9,18)" class="S sfv" d="M1287 1444 L1496 1235 L1496 1247 L1287 1456 Z"/><path class="fv7" d="M1287 1444 L1496 1235 L1496 1247 L1287 1456 Z" /></g><g class="o"><path transform="translate(8,16)" class="S sfh" d="M1687 1115 L1911 1339 L1929 1339 L1705 1115 Z"/><path class="fh4" d="M1687 1115 L1911 1339 L1929 1339 L1705 1115 Z" /></g><g class="o"><path transform="translate(7,14)" class="S sfv" d="M1457 2027 L1682 1802 L1682 1826 L1457 2051 Z"/><path class="fv1" d="M1457 2027 L1682 1802 L1682 1826 L1457 2051 Z" /></g><g class="o"><path transform="translate(7,14)" class="S ssh" d="M1532 1038 L1994 1500 L2020 1500 L1558 1038 Z"/><path class="sh7" d="M1532 1038 L1994 1500 L2020 1500 L1558 1038 Z" /></g><g class="o"><path transform="translate(8,16)" class="S sfv" d="M956 1950 L1673 1233 L1673 1271 L956 1988 Z"/><path class="fv7" d="M956 1950 L1673 1233 L1673 1271 L956 1988 Z" /></g><g class="o"><path transform="translate(5,10)" class="S sf" d="M1692 1835 L1754 1773 L1754 1785 L1692 1847 Z"/><path class="f5" d="M1692 1835 L1754 1773 L1754 1785 L1692 1847 Z" /></g><g class="o"><path transform="translate(9,18)" class="S sfv" d="M1122 1609 L1210 1697 L1210 1727 L1122 1639 Z"/><path class="fv6" d="M1122 1609 L1210 1697 L1210 1727 L1122 1639 Z" /></g><g class="o"><path transform="translate(2,4)" class="S sf" d="M1936 1983 L2112 2159 L2112 2195 L1936 2019 Z"/><path class="f2" d="M1936 1983 L2112 2159 L2112 2195 L1936 2019 Z" /></g><g class="o"><path transform="translate(3,6)" class="S sf" d="M1015 951 L1212 1148 L1246 1148 L1049 951 Z"/><path class="f4" d="M1015 951 L1212 1148 L1246 1148 L1049 951 Z" /></g><g class="o"><path transform="translate(8,16)" class="S sfv" d="M1548 1008 L1857 1317 L1857 1341 L1548 1032 Z"/><path class="fv6" d="M1548 1008 L1857 1317 L1857 1341 L1548 1032 Z" /></g><g class="o"><path transform="translate(5,10)" class="S ssh" d="M1479 1089 L1710 858 L1728 858 L1497 1089 Z"/><path class="sh6" d="M1479 1089 L1710 858 L1728 858 L1497 1089 Z" /></g><g class="o"><path transform="translate(3,6)" class="S ss" d="M1008 1602 L1202 1796 L1202 1810 L1008 1616 Z"/><path class="s6" d="M1008 1602 L1202 1796 L1202 1810 L1008 1616 Z" /></g><g class="o"><path transform="translate(6,12)" class="S sfh" d="M1606 1431 L1728 1553 L1738 1553 L1616 1431 Z"/><path class="fh7" d="M1606 1431 L1728 1553 L1738 1553 L1616 1431 Z" /></g><g class="o"><path transform="translate(3,6)" class="S sf" d="M1121 1358 L1216 1263 L1248 1263 L1153 1358 Z"/><path class="f7" d="M1121 1358 L1216 1263 L1248 1263 L1153 1358 Z" /></g><g class="o"><path transform="translate(5,10)" class="S ssv" d="M1884 1136 L2054 1306 L2054 1318 L1884 1148 Z"/><path class="sv7" d="M1884 1136 L2054 1306 L2054 1318 L1884 1148 Z" /></g><g class="o"><path transform="translate(8,16)" class="S sfh" d="M1383 1279 L1607 1055 L1625 1055 L1401 1279 Z"/><path class="fh5" d="M1383 1279 L1607 1055 L1625 1055 L1401 1279 Z" /></g><g class="o"><path transform="translate(9,18)" class="S sfv" d="M1026 1830 L1256 2060 L1256 2072 L1026 1842 Z"/><path class="fv3" d="M1026 1830 L1256 2060 L1256 2072 L1026 1842 Z" /></g><g class="o"><path transform="translate(5,10)" class="S sfh" d="M1976 1963 L2170 2157 L2202 2157 L2008 1963 Z"/><path class="fh5" d="M1976 1963 L2170 2157 L2202 2157 L2008 1963 Z" /></g><g class="o"><path transform="translate(7,14)" class="S sf" d="M963 1205 L1491 1733 L1507 1733 L979 1205 Z"/><path class="f5" d="M963 1205 L1491 1733 L1507 1733 L979 1205 Z" /></g><g class="o"><path transform="translate(3,6)" class="S ssv" d="M1751 1375 L1975 1599 L1975 1625 L1751 1401 Z"/><path class="sv6" d="M1751 1375 L1975 1599 L1975 1625 L1751 1401 Z" /></g><g class="o"><path transform="translate(4,8)" class="S sf" d="M1851 1221 L1986 1356 L2006 1356 L1871 1221 Z"/><path class="f4" d="M1851 1221 L1986 1356 L2006 1356 L1871 1221 Z" /></g><g class="o"><path transform="translate(6,12)" class="S ssh" d="M1127 1567 L1282 1722 L1318 1722 L1163 1567 Z"/><path class="sh6" d="M1127 1567 L1282 1722 L1318 1722 L1163 1567 Z" /></g><g class="o"><path transform="translate(6,12)" class="S ssv" d="M1916 1460 L2111 1655 L2111 1687 L1916 1492 Z"/><path class="sv6" d="M1916 1460 L2111 1655 L2111 1687 L1916 1492 Z" /></g><g class="o"><path transform="translate(6,12)" class="S sfv" d="M1050 1363 L1416 1729 L1416 1755 L1050 1389 Z"/><path class="fv4" d="M1050 1363 L1416 1729 L1416 1755 L1050 1389 Z" /></g><g class="o"><path transform="translate(2,4)" class="S sfh" d="M1958 1535 L2098 1675 L2106 1675 L1966 1535 Z"/><path class="fh6" d="M1958 1535 L2098 1675 L2106 1675 L1966 1535 Z" /></g><g class="o"><path transform="translate(2,4)" class="S sfh" d="M1894 1019 L1981 1106 L2017 1106 L1930 1019 Z"/><path class="fh2" d="M1894 1019 L1981 1106 L2017 1106 L1930 1019 Z" /></g><g class="o"><path transform="translate(7,14)" class="S sfh" d="M2030 1782 L2247 1565 L2255 1565 L2038 1782 Z"/><path class="fh2" d="M2030 1782 L2247 1565 L2255 1565 L2038 1782 Z" /></g><g class="o"><path transform="translate(7,14)" class="S ss" d="M2023 1734 L2228 1939 L2260 1939 L2055 1734 Z"/><path class="s4" d="M2023 1734 L2228 1939 L2260 1939 L2055 1734 Z" /></g><g class="o"><path transform="translate(4,8)" class="S ssv" d="M1963 1872 L2172 2081 L2172 2101 L1963 1892 Z"/><path class="sv7" d="M1963 1872 L2172 2081 L2172 2101 L1963 1892 Z" /></g><g class="o"><path transform="translate(3,6)" class="S sf" d="M1630 1449 L1877 1696 L1877 1732 L1630 1485 Z"/><path class="f3" d="M1630 1449 L1877 1696 L1877 1732 L1630 1485 Z" /></g><g class="o"><path transform="translate(8,16)" class="S sfv" d="M1066 1599 L1125 1658 L1125 1674 L1066 1615 Z"/><path class="fv5" d="M1066 1599 L1125 1658 L1125 1674 L1066 1615 Z" /></g><g class="o"><path transform="translate(6,12)" class="S sfh" d="M1853 1632 L2002 1781 L2016 1781 L1867 1632 Z"/><path class="fh5" d="M1853 1632 L2002 1781 L2016 1781 L1867 1632 Z" /></g><g class="o"><path transform="translate(2,4)" class="S sfh" d="M1566 1887 L1647 1968 L1659 1968 L1578 1887 Z"/><path class="fh7" d="M1566 1887 L1647 1968 L1659 1968 L1578 1887 Z" /></g><g class="o"><path transform="translate(5,10)" class="S sfv" d="M1085 1681 L1211 1555 L1211 1583 L1085 1709 Z"/><path class="fv4" d="M1085 1681 L1211 1555 L1211 1583 L1085 1709 Z" /></g><g class="o"><path transform="translate(8,16)" class="S ss" d="M974 1983 L1163 1794 L1199 1794 L1010 1983 Z"/><path class="s4" d="M974 1983 L1163 1794 L1199 1794 L1010 1983 Z" /></g><g class="o"><path transform="translate(7,14)" class="S sfh" d="M1216 1167 L1450 1401 L1474 1401 L1240 1167 Z"/><path class="fh6" d="M1216 1167 L1450 1401 L1474 1401 L1240 1167 Z" /></g><g class="o"><path transform="translate(5,10)" class="S sfv" d="M1318 1852 L1542 1628 L1542 1666 L1318 1890 Z"/><path class="fv5" d="M1318 1852 L1542 1628 L1542 1666 L1318 1890 Z" /></g><g class="o"><path transform="translate(6,12)" class="S sfh" d="M1564 1247 L1867 1550 L1889 1550 L1586 1247 Z"/><path class="fh4" d="M1564 1247 L1867 1550 L1889 1550 L1586 1247 Z" /></g><g class="o"><path transform="translate(6,12)" class="S sfh" d="M1896 1893 L1978 1975 L2012 1975 L1930 1893 Z"/><path class="fh6" d="M1896 1893 L1978 1975 L2012 1975 L1930 1893 Z" /></g><g class="o"><path transform="translate(6,12)" class="S sf" d="M2021 1988 L2227 1782 L2251 1782 L2045 1988 Z"/><path class="f7" d="M2021 1988 L2227 1782 L2251 1782 L2045 1988 Z" /></g><g class="o"><path transform="translate(6,12)" class="S sfv" d="M1574 1293 L1688 1407 L1688 1427 L1574 1313 Z"/><path class="fv3" d="M1574 1293 L1688 1407 L1688 1427 L1574 1313 Z" /></g><g class="o"><path transform="translate(7,14)" class="S ssv" d="M1327 1030 L1572 1275 L1572 1305 L1327 1060 Z"/><path class="sv5" d="M1327 1030 L1572 1275 L1572 1305 L1327 1060 Z" /></g><g class="o"><path transform="translate(2,4)" class="S sfv" d="M1496 1696 L1593 1599 L1593 1621 L1496 1718 Z"/><path class="fv5" d="M1496 1696 L1593 1599 L1593 1621 L1496 1718 Z" /></g><g class="o"><path transform="translate(3,6)" class="S sfv" d="M1705 1068 L1792 981 L1792 999 L1705 1086 Z"/><path class="fv3" d="M1705 1068 L1792 981 L1792 999 L1705 1086 Z" /></g><g class="o"><path transform="translate(5,10)" class="S sfv" d="M1602 1056 L1808 1262 L1808 1298 L1602 1092 Z"/><path class="fv5" d="M1602 1056 L1808 1262 L1808 1298 L1602 1092 Z" /></g><g class="o"><path transform="translate(5,10)" class="S sfh" d="M1207 1366 L1379 1538 L1413 1538 L1241 1366 Z"/><path class="fh7" d="M1207 1366 L1379 1538 L1413 1538 L1241 1366 Z" /></g><g class="o"><path transform="translate(4,8)" class="S sfh" d="M1026 1091 L1204 1269 L1214 1269 L1036 1091 Z"/><path class="fh2" d="M1026 1091 L1204 1269 L1214 1269 L1036 1091 Z" /></g><g class="o"><path transform="translate(6,12)" class="S sfv" d="M1504 1108 L1585 1189 L1585 1215 L1504 1134 Z"/><path class="fv2" d="M1504 1108 L1585 1189 L1585 1215 L1504 1134 Z" /></g><g class="o"><path transform="translate(9,18)" class="S ssh" d="M1200 1348 L1341 1489 L1355 1489 L1214 1348 Z"/><path class="sh7" d="M1200 1348 L1341 1489 L1355 1489 L1214 1348 Z" /></g><g class="o"><path transform="translate(8,16)" class="S sfh" d="M1644 1551 L1759 1436 L1787 1436 L1672 1551 Z"/><path class="fh6" d="M1644 1551 L1759 1436 L1787 1436 L1672 1551 Z" /></g><g class="o"><path transform="translate(2,4)" class="S sfv" d="M1726 1281 L1801 1356 L1801 1388 L1726 1313 Z"/><path class="fv6" d="M1726 1281 L1801 1356 L1801 1388 L1726 1313 Z" /></g><g class="o"><path transform="translate(6,12)" class="S sf" d="M1422 1577 L1505 1660 L1505 1668 L1422 1585 Z"/><path class="f1" d="M1422 1577 L1505 1660 L1505 1668 L1422 1585 Z" /></g><g class="o"><path transform="translate(2,4)" class="S sfv" d="M1988 1832 L2203 2047 L2203 2081 L1988 1866 Z"/><path class="fv2" d="M1988 1832 L2203 2047 L2203 2081 L1988 1866 Z" /></g><g class="o"><path transform="translate(2,4)" class="S sfv" d="M1653 1190 L1833 1010 L1833 1036 L1653 1216 Z"/><path class="fv5" d="M1653 1190 L1833 1010 L1833 1036 L1653 1216 Z" /></g><g class="o"><path transform="translate(7,14)" class="S ssv" d="M1091 1763 L1610 2282 L1610 2320 L1091 1801 Z"/><path class="sv2" d="M1091 1763 L1610 2282 L1610 2320 L1091 1801 Z" /></g><g class="o"><path transform="translate(3,6)" class="S ssh" d="M1358 1048 L1512 1202 L1530 1202 L1376 1048 Z"/><path class="sh7" d="M1358 1048 L1512 1202 L1530 1202 L1376 1048 Z" /></g><g class="o"><path transform="translate(5,10)" class="S sfh" d="M1867 1193 L1985 1311 L2005 1311 L1887 1193 Z"/><path class="fh4" d="M1867 1193 L1985 1311 L2005 1311 L1887 1193 Z" /></g><g class="o"><path transform="translate(6,12)" class="S sfh" d="M1837 1231 L2086 982 L2116 982 L1867 1231 Z"/><path class="fh2" d="M1837 1231 L2086 982 L2116 982 L1867 1231 Z" /></g><g class="o"><path transform="translate(4,8)" class="S ssv" d="M1533 1901 L1619 1987 L1619 2017 L1533 1931 Z"/><path class="sv5" d="M1533 1901 L1619 1987 L1619 2017 L1533 1931 Z" /></g><g class="o"><path transform="translate(5,10)" class="S sfv" d="M1207 1805 L1317 1915 L1317 1933 L1207 1823 Z"/><path class="fv2" d="M1207 1805 L1317 1915 L1317 1933 L1207 1823 Z" /></g><g class="o"><path transform="translate(3,6)" class="S sfh" d="M1605 1065 L1791 1251 L1813 1251 L1627 1065 Z"/><path class="fh2" d="M1605 1065 L1791 1251 L1813 1251 L1627 1065 Z" /></g><g class="o"><path transform="translate(8,16)" class="S sf" d="M1913 1876 L2543 2506 L2567 2506 L1937 1876 Z"/><path class="f1" d="M1913 1876 L2543 2506 L2567 2506 L1937 1876 Z" /></g><g class="o"><path transform="translate(3,6)" class="S ssv" d="M1814 1495 L1872 1553 L1872 1571 L1814 1513 Z"/><path class="sv7" d="M1814 1495 L1872 1553 L1872 1571 L1814 1513 Z" /></g><g class="o"><path transform="translate(9,18)" class="S sfv" d="M1844 1418 L1959 1533 L1959 1549 L1844 1434 Z"/><path class="fv4" d="M1844 1418 L1959 1533 L1959 1549 L1844 1434 Z" /></g><g class="o"><path transform="translate(6,12)" class="S sfv" d="M972 1166 L1542 1736 L1542 1752 L972 1182 Z"/><path class="fv2" d="M972 1166 L1542 1736 L1542 1752 L972 1182 Z" /></g><g class="o"><path transform="translate(2,4)" class="S sfh" d="M1016 1281 L1181 1446 L1203 1446 L1038 1281 Z"/><path class="fh3" d="M1016 1281 L1181 1446 L1203 1446 L1038 1281 Z" /></g><g class="o"><path transform="translate(2,4)" class="S ssv" d="M1784 1976 L2003 1757 L2003 1787 L1784 2006 Z"/><path class="sv6" d="M1784 1976 L2003 1757 L2003 1787 L1784 2006 Z" /></g><g class="o"><path transform="translate(9,18)" class="S sfh" d="M1856 1071 L2033 1248 L2057 1248 L1880 1071 Z"/><path class="fh5" d="M1856 1071 L2033 1248 L2057 1248 L1880 1071 Z" /></g><g class="o"><path transform="translate(8,16)" class="S sf" d="M1008 1541 L1062 1595 L1084 1595 L1030 1541 Z"/><path class="f1" d="M1008 1541 L1062 1595 L1084 1595 L1030 1541 Z" /></g><g class="o"><path transform="translate(3,6)" class="S sfh" d="M1308 1275 L1528 1495 L1548 1495 L1328 1275 Z"/><path class="fh3" d="M1308 1275 L1528 1495 L1548 1495 L1328 1275 Z" /></g><g class="o"><path transform="translate(8,16)" class="S sfh" d="M1390 1198 L1590 1398 L1618 1398 L1418 1198 Z"/><path class="fh5" d="M1390 1198 L1590 1398 L1618 1398 L1418 1198 Z" /></g><g class="o"><path transform="translate(9,18)" class="S sfh" d="M1654 1559 L1843 1370 L1867 1370 L1678 1559 Z"/><path class="fh5" d="M1654 1559 L1843 1370 L1867 1370 L1678 1559 Z" /></g><g class="o"><path transform="translate(5,10)" class="S ssh" d="M1800 1940 L1907 2047 L1919 2047 L1812 1940 Z"/><path class="sh2" d="M1800 1940 L1907 2047 L1919 2047 L1812 1940 Z" /></g><g class="o"><path transform="translate(5,10)" class="S sfh" d="M1058 1538 L1207 1687 L1229 1687 L1080 1538 Z"/><path class="fh5" d="M1058 1538 L1207 1687 L1229 1687 L1080 1538 Z" /></g><g class="o"><path transform="translate(7,14)" class="S sfh" d="M1454 1155 L1690 1391 L1712 1391 L1476 1155 Z"/><path class="fh1" d="M1454 1155 L1690 1391 L1712 1391 L1476 1155 Z" /></g><g class="o"><path transform="translate(3,6)" class="S sfv" d="M1015 1952 L1193 2130 L1193 2154 L1015 1976 Z"/><path class="fv1" d="M1015 1952 L1193 2130 L1193 2154 L1015 1976 Z" /></g><g class="o"><path transform="translate(7,14)" class="S sfv" d="M1162 1400 L1292 1270 L1292 1308 L1162 1438 Z"/><path class="fv4" d="M1162 1400 L1292 1270 L1292 1308 L1162 1438 Z" /></g><g class="o"><path transform="translate(5,10)" class="S ssh" d="M1950 1218 L2187 1455 L2207 1455 L1970 1218 Z"/><path class="sh3" d="M1950 1218 L2187 1455 L2207 1455 L1970 1218 Z" /></g><g class="o"><path transform="translate(8,16)" class="S sfv" d="M1139 1424 L1382 1667 L1382 1675 L1139 1432 Z"/><path class="fv1" d="M1139 1424 L1382 1667 L1382 1675 L1139 1432 Z" /></g><g class="o"><path transform="translate(8,16)" class="S sfv" d="M2008 1495 L2079 1566 L2079 1600 L2008 1529 Z"/><path class="fv5" d="M2008 1495 L2079 1566 L2079 1600 L2008 1529 Z" /></g><g class="o"><path transform="translate(9,18)" class="S ss" d="M1458 1984 L2025 1417 L2055 1417 L1488 1984 Z"/><path class="s3" d="M1458 1984 L2025 1417 L2055 1417 L1488 1984 Z" /></g><g class="o"><path transform="translate(3,6)" class="S sf" d="M1978 1680 L2192 1894 L2192 1912 L1978 1698 Z"/><path class="f6" d="M1978 1680 L2192 1894 L2192 1912 L1978 1698 Z" /></g><g class="o"><path transform="translate(8,16)" class="S sfh" d="M1302 1841 L1491 2030 L1499 2030 L1310 1841 Z"/><path class="fh2" d="M1302 1841 L1491 2030 L1499 2030 L1310 1841 Z" /></g><g class="o"><path transform="translate(2,4)" class="S sfv" d="M997 1089 L1173 913 L1173 927 L997 1103 Z"/><path class="fv5" d="M997 1089 L1173 913 L1173 927 L997 1103 Z" /></g><g class="o"><path transform="translate(4,8)" class="S sfh" d="M1528 1244 L1770 1486 L1782 1486 L1540 1244 Z"/><path class="fh2" d="M1528 1244 L1770 1486 L1782 1486 L1540 1244 Z" /></g><g class="o"><path transform="translate(6,12)" class="S ssh" d="M1233 1153 L1478 1398 L1488 1398 L1243 1153 Z"/><path class="sh6" d="M1233 1153 L1478 1398 L1488 1398 L1243 1153 Z" /></g><g class="o"><path transform="translate(4,8)" class="S sf" d="M1647 1916 L1779 2048 L1779 2060 L1647 1928 Z"/><path class="f6" d="M1647 1916 L1779 2048 L1779 2060 L1647 1928 Z" /></g><g class="o"><path transform="translate(6,12)" class="S sfh" d="M1572 1794 L1732 1954 L1764 1954 L1604 1794 Z"/><path class="fh4" d="M1572 1794 L1732 1954 L1764 1954 L1604 1794 Z" /></g><g class="o"><path transform="translate(2,4)" class="S sfh" d="M2009 1556 L2167 1398 L2181 1398 L2023 1556 Z"/><path class="fh5" d="M2009 1556 L2167 1398 L2181 1398 L2023 1556 Z" /></g><g class="o"><path transform="translate(4,8)" class="S sfh" d="M1065 1758 L1464 1359 L1498 1359 L1099 1758 Z"/><path class="fh2" d="M1065 1758 L1464 1359 L1498 1359 L1099 1758 Z" /></g><g class="o"><path transform="translate(3,6)" class="S sfv" d="M1912 1006 L2120 798 L2120 806 L1912 1014 Z"/><path class="fv7" d="M1912 1006 L2120 798 L2120 806 L1912 1014 Z" /></g><g class="o"><path transform="translate(8,16)" class="S sf" d="M1219 1552 L1465 1306 L1503 1306 L1257 1552 Z"/><path class="f7" d="M1219 1552 L1465 1306 L1503 1306 L1257 1552 Z" /></g><g class="o"><path transform="translate(4,8)" class="S sfh" d="M1900 1566 L2024 1690 L2036 1690 L1912 1566 Z"/><path class="fh1" d="M1900 1566 L2024 1690 L2036 1690 L1912 1566 Z" /></g><g class="o"><path transform="translate(5,10)" class="S sf" d="M1713 1597 L1859 1743 L1859 1767 L1713 1621 Z"/><path class="f5" d="M1713 1597 L1859 1743 L1859 1767 L1713 1621 Z" /></g><g class="o"><path transform="translate(2,4)" class="S sfh" d="M1297 1603 L1423 1729 L1437 1729 L1311 1603 Z"/><path class="fh6" d="M1297 1603 L1423 1729 L1437 1729 L1311 1603 Z" /></g><g class="o"><path transform="translate(2,4)" class="S sf" d="M1773 991 L1979 1197 L1979 1231 L1773 1025 Z"/><path class="f6" d="M1773 991 L1979 1197 L1979 1231 L1773 1025 Z" /></g><g class="o"><path transform="translate(8,16)" class="S sfh" d="M1812 1031 L1925 1144 L1941 1144 L1828 1031 Z"/><path class="fh7" d="M1812 1031 L1925 1144 L1941 1144 L1828 1031 Z" /></g><g class="o"><path transform="translate(2,4)" class="S ss" d="M1075 1972 L1279 2176 L1279 2190 L1075 1986 Z"/><path class="s6" d="M1075 1972 L1279 2176 L1279 2190 L1075 1986 Z" /></g><g class="o"><path transform="translate(4,8)" class="S sfv" d="M1046 1495 L1247 1294 L1247 1302 L1046 1503 Z"/><path class="fv5" d="M1046 1495 L1247 1294 L1247 1302 L1046 1503 Z" /></g><g class="o"><path transform="translate(9,18)" class="S ssh" d="M1690 1053 L1760 1123 L1786 1123 L1716 1053 Z"/><path class="sh6" d="M1690 1053 L1760 1123 L1786 1123 L1716 1053 Z" /></g><g class="o"><path transform="translate(8,16)" class="S ssv" d="M1854 1316 L2448 1910 L2448 1944 L1854 1350 Z"/><path class="sv7" d="M1854 1316 L2448 1910 L2448 1944 L1854 1350 Z" /></g><g class="o"><path transform="translate(2,4)" class="S sfv" d="M1245 1209 L1776 1740 L1776 1760 L1245 1229 Z"/><path class="fv1" d="M1245 1209 L1776 1740 L1776 1760 L1245 1229 Z" /></g><g class="o"><path transform="translate(3,6)" class="S sf" d="M1164 1319 L1385 1098 L1385 1134 L1164 1355 Z"/><path class="f3" d="M1164 1319 L1385 1098 L1385 1134 L1164 1355 Z" /></g><g class="o"><path transform="translate(4,8)" class="S sf" d="M1488 1202 L2148 1862 L2148 1872 L1488 1212 Z"/><path class="f4" d="M1488 1202 L2148 1862 L2148 1872 L1488 1212 Z" /></g><g class="o"><path transform="translate(9,18)" class="S sfv" d="M1598 1034 L1812 1248 L1812 1274 L1598 1060 Z"/><path class="fv4" d="M1598 1034 L1812 1248 L1812 1274 L1598 1060 Z" /></g></g><use href="#slashes" transform-origin="1500 1500" transform="rotate(180) scale(2)"/></g><circle cx="1500" cy="1500" r="450" stroke-width="10" class="o ss" /><use href="#slashes" transform-origin="1500 1500" transform="scale(.9)"/><use href="#slashes" transform-origin="1500 1500" transform="rotate(180) scale(.9)"/></svg>