<svg xmlns="http://www.w3.org/2000/svg" viewBox="750 750 1500 1500"><style>/*<![CDATA[*/svg{background:rgb(34,34,34);max-width:100vw;max-height:100vh}path{stroke-width:4}.o{opacity:.75}.S{opacity:.4}.sf{stroke:none;fill:black}.sfh{stroke:none;fill:url(#hs)}.sfv{stroke:none;fill:url(#vs)}.ss{stroke:black;fill:none}.ssh{stroke:url(#hs);fill:none}.ssv{stroke:url(#vs);fill:none}.s1{fill:none;stroke:rgb(84,60,82)}.f1{stroke:none;fill:rgb(84,60,82)}.sh1{fill:none;stroke:url(#h1)}.fh1{stroke:none;fill:url(#h1)}.sv1{fill:none;stroke:url(#v1)}.fv1{stroke:none;fill:url(#v1)}.s2{fill:none;stroke:rgb(241,232,230)}.f2{stroke:none;fill:rgb(241,232,230)}.sh2{fill:none;stroke:url(#h2)}.fh2{stroke:none;fill:url(#h2)}.sv2{fill:none;stroke:url(#v2)}.fv2{stroke:none;fill:url(#v2)}.s3{fill:none;stroke:rgb(54,29,50)}.f3{stroke:none;fill:rgb(54,29,50)}.sh3{fill:none;stroke:url(#h3)}.fh3{stroke:none;fill:url(#h3)}.sv3{fill:none;stroke:url(#v3)}.fv3{stroke:none;fill:url(#v3)}.s4{fill:none;stroke:rgb(237,210,203)}.f4{stroke:none;fill:rgb(237,210,203)}.sh4{fill:none;stroke:url(#h4)}.fh4{stroke:none;fill:url(#h4)}.sv4{fill:none;stroke:url(#v4)}.fv4{stroke:none;fill:url(#v4)}.s5{fill:none;stroke:rgb(245,89,81)}.f5{stroke:none;fill:rgb(245,89,81)}.sh5{fill:none;stroke:url(#h5)}.fh5{stroke:none;fill:url(#h5)}.sv5{fill:none;stroke:url(#v5)}.fv5{stroke:none;fill:url(#v5)}.s6{fill:none;stroke:rgb(255,255,255)}.f6{stroke:none;fill:rgb(255,255,255)}.sh6{fill:none;stroke:url(#h6)}.fh6{stroke:none;fill:url(#h6)}.sv6{fill:none;stroke:url(#v6)}.fv6{stroke:none;fill:url(#v6)}.s7{fill:none;stroke:rgb(255,255,0)}.f7{stroke:none;fill:rgb(255,255,0)}.sh7{fill:none;stroke:url(#h7)}.fh7{stroke:none;fill:url(#h7)}.sv7{fill:none;stroke:url(#v7)}.fv7{stroke:none;fill:url(#v7)}/*]]>*/</style><defs><linearGradient gradientTransform="rotate(90)" id="hs"><stop offset="20%" stop-color="#000" /><stop offset="95%" stop-color="rgba(0, 0, 0, 0)" /></linearGradient><linearGradient id="vs"><stop offset="20%" stop-color="#000" /><stop offset="95%" stop-color="rgba(0, 0, 0, 0)" /></linearGradient><linearGradient gradientTransform="rotate(90)" id="h1"><stop offset="20%" stop-color="rgba(84,60,82,1)" /><stop offset="95%" stop-color="rgba(84,60,82,0)" /></linearGradient><linearGradient id="v1"><stop offset="20%" stop-color="rgba(84,60,82,1)" /><stop offset="95%" stop-color="rgba(84,60,82,0)" /></linearGradient><linearGradient gradientTransform="rotate(90)" id="h2"><stop offset="20%" stop-color="rgba(241,232,230,1)" /><stop offset="95%" stop-color="rgba(241,232,230,0)" /></linearGradient><linearGradient id="v2"><stop offset="20%" stop-color="rgba(241,232,230,1)" /><stop offset="95%" stop-color="rgba(241,232,230,0)" /></linearGradient><linearGradient gradientTransform="rotate(90)" id="h3"><stop offset="20%" stop-color="rgba(54,29,50,1)" /><stop offset="95%" stop-color="rgba(54,29,50,0)" /></linearGradient><linearGradient id="v3"><stop offset="20%" stop-color="rgba(54,29,50,1)" /><stop offset="95%" stop-color="rgba(54,29,50,0)" /></linearGradient><linearGradient gradientTransform="rotate(90)" id="h4"><stop offset="20%" stop-color="rgba(237,210,203,1)" /><stop offset="95%" stop-color="rgba(237,210,203,0)" /></linearGradient><linearGradient id="v4"><stop offset="20%" stop-color="rgba(237,210,203,1)" /><stop offset="95%" stop-color="rgba(237,210,203,0)" /></linearGradient><linearGradient gradientTransform="rotate(90)" id="h5"><stop offset="20%" stop-color="rgba(245,89,81,1)" /><stop offset="95%" stop-color="rgba(245,89,81,0)" /></linearGradient><linearGradient id="v5"><stop offset="20%" stop-color="rgba(245,89,81,1)" /><stop offset="95%" stop-color="rgba(245,89,81,0)" /></linearGradient><linearGradient gradientTransform="rotate(90)" id="h6"><stop offset="20%" stop-color="rgba(255,255,255,1)" /><stop offset="95%" stop-color="rgba(255,255,255,0)" /></linearGradient><linearGradient id="v6"><stop offset="20%" stop-color="rgba(255,255,255,1)" /><stop offset="95%" stop-color="rgba(255,255,255,0)" /></linearGradient><linearGradient gradientTransform="rotate(90)" id="h7"><stop offset="20%" stop-color="rgba(255,255,0,1)" /><stop offset="95%" stop-color="rgba(255,255,0,0)" /></linearGradient><linearGradient id="v7"><stop offset="20%" stop-color="rgba(255,255,0,1)" /><stop offset="95%" stop-color="rgba(255,255,0,0)" /></linearGradient></defs><g transform-origin="1500 1500" transform="scale(2)" opacity=".2"><g id="slashes"><g class="o"><path transform="translate(9,18)" class="S sfv" d="M1159 1453 L1654 1948 L1654 1982 L1159 1487 Z"/><path class="fv1" d="M1159 1453 L1654 1948 L1654 1982 L1159 1487 Z" /></g><g class="o"><path transform="translate(2,4)" class="S ssv" d="M1964 1350 L2156 1542 L2156 1570 L1964 1378 Z"/><path class="sv1" d="M1964 1350 L2156 1542 L2156 1570 L1964 1378 Z" /></g><g class="o"><path transform="translate(3,6)" class="S sfv" d="M1656 1926 L1710 1980 L1710 1996 L1656 1942 Z"/><path class="fv7" d="M1656 1926 L1710 1980 L1710 1996 L1656 1942 Z" /></g><g class="o"><path transform="translate(2,4)" class="S sfh" d="M1298 1504 L1628 1834 L1654 1834 L1324 1504 Z"/><path class="fh7" d="M1298 1504 L1628 1834 L1654 1834 L1324 1504 Z" /></g><g class="o"><path transform="translate(6,12)" class="S sf" d="M1750 2040 L1891 2181 L1907 2181 L1766 2040 Z"/><path class="f6" d="M1750 2040 L1891 2181 L1907 2181 L1766 2040 Z" /></g><g class="o"><path transform="translate(6,12)" class="S sfh" d="M1112 1737 L1242 1867 L1264 1867 L1134 1737 Z"/><path class="fh1" d="M1112 1737 L1242 1867 L1264 1867 L1134 1737 Z" /></g><g class="o"><path transform="translate(8,16)" class="S ssv" d="M1099 1543 L1208 1652 L1208 1664 L1099 1555 Z"/><path class="sv7" d="M1099 1543 L1208 1652 L1208 1664 L1099 1555 Z" /></g><g class="o"><path transform="translate(3,6)" class="S sfv" d="M1517 1740 L1722 1945 L1722 1961 L1517 1756 Z"/><path class="fv1" d="M1517 1740 L1722 1945 L1722 1961 L1517 1756 Z" /></g><g class="o"><path transform="translate(3,6)" class="S sf" d="M966 1660 L1187 1881 L1187 1911 L966 1690 Z"/><path class="f6" d="M966 1660 L1187 1881 L1187 1911 L966 1690 Z" /></g><g class="o"><path transform="translate(7,14)" class="S sfv" d="M1606 952 L2170 1516 L2170 1548 L1606 984 Z"/><path class="fv6" d="M1606 952 L2170 1516 L2170 1548 L1606 984 Z" /></g><g class="o"><path transform="translate(5,10)" class="S sfh" d="M1636 1426 L1897 1687 L1913 1687 L1652 1426 Z"/><path class="fh2" d="M1636 1426 L1897 1687 L1913 1687 L1652 1426 Z" /></g><g class="o"><path transform="translate(5,10)" class="S ssh" d="M1002 1381 L1171 1550 L1201 1550 L1032 1381 Z"/><path class="sh3" d="M1002 1381 L1171 1550 L1201 1550 L1032 1381 Z" /></g><g class="o"><path transform="translate(7,14)" class="S sfh" d="M1294 1711 L1527 1944 L1559 1944 L1326 1711 Z"/><path class="fh3" d="M1294 1711 L1527 1944 L1559 1944 L1326 1711 Z" /></g><g class="o"><path transform="translate(7,14)" class="S sfv" d="M1467 1108 L1696 1337 L1696 1345 L1467 1116 Z"/><path class="fv5" d="M1467 1108 L1696 1337 L1696 1345 L1467 1116 Z" /></g><g class="o"><path transform="translate(9,18)" class="S sfh" d="M1190 1813 L1353 1976 L1383 1976 L1220 1813 Z"/><path class="fh6" d="M1190 1813 L1353 1976 L1383 1976 L1220 1813 Z" /></g><g class="o"><path transform="translate(3,6)" class="S sfh" d="M1707 1131 L1925 1349 L1949 1349 L1731 1131 Z"/><path class="fh6" d="M1707 1131 L1925 1349 L1949 1349 L1731 1131 Z" /></g><g class="o"><path transform="translate(2,4)" class="S sfh" d="M2035 1665 L2090 1720 L2102 1720 L2047 1665 Z"/><path class="fh5" d="M2035 1665 L2090 1720 L2102 1720 L2047 1665 Z" /></g><g class="o"><path transform="translate(5,10)" class="S sfh" d="M1445 1163 L1579 1297 L1615 1297 L1481 1163 Z"/><path class="fh7" d="M1445 1163 L1579 1297 L1615 1297 L1481 1163 Z" /></g><g class="o"><path transform="translate(6,12)" class="S sfh" d="M1228 1549 L1419 1740 L1445 1740 L1254 1549 Z"/><path class="fh4" d="M1228 1549 L1419 1740 L1445 1740 L1254 1549 Z" /></g><g class="o"><path transform="translate(9,18)" class="S sfv" d="M1219 1425 L1455 1661 L1455 1687 L1219 1451 Z"/><path class="fv6" d="M1219 1425 L1455 1661 L1455 1687 L1219 1451 Z" /></g><g class="o"><path transform="translate(5,10)" class="S sfh" d="M1552 1307 L1774 1529 L1786 1529 L1564 1307 Z"/><path class="fh1" d="M1552 1307 L1774 1529 L1786 1529 L1564 1307 Z" /></g><g class="o"><path transform="translate(2,4)" class="S sfh" d="M1814 1406 L2258 1850 L2266 1850 L1822 1406 Z"/><path class="fh6" d="M1814 1406 L2258 1850 L2266 1850 L1822 1406 Z" /></g><g class="o"><path transform="translate(4,8)" class="S sfh" d="M991 1252 L1172 1433 L1194 1433 L1013 1252 Z"/><path class="fh7" d="M991 1252 L1172 1433 L1194 1433 L1013 1252 Z" /></g><g class="o"><path transform="translate(3,6)" class="S ss" d="M1652 1786 L1743 1877 L1743 1915 L1652 1824 Z"/><path class="s2" d="M1652 1786 L1743 1877 L1743 1915 L1652 1824 Z" /></g><g class="o"><path transform="translate(7,14)" class="S sfh" d="M1953 1116 L2673 1836 L2693 1836 L1973 1116 Z"/><path class="fh1" d="M1953 1116 L2673 1836 L2693 1836 L1973 1116 Z" /></g><g class="o"><path transform="translate(9,18)" class="S sfh" d="M1424 1528 L1627 1731 L1657 1731 L1454 1528 Z"/><path class="fh3" d="M1424 1528 L1627 1731 L1657 1731 L1454 1528 Z" /></g><g class="o"><path transform="translate(2,4)" class="S sfh" d="M1538 1115 L1634 1211 L1658 1211 L1562 1115 Z"/><path class="fh5" d="M1538 1115 L1634 1211 L1658 1211 L1562 1115 Z" /></g><g class="o"><path transform="translate(5,10)" class="S ss" d="M1602 1782 L1708 1888 L1708 1900 L1602 1794 Z"/><path class="s4" d="M1602 1782 L1708 1888 L1708 1900 L1602 1794 Z" /></g><g class="o"><path transform="translate(6,12)" class="S sfh" d="M1572 1925 L1713 2066 L1723 2066 L1582 1925 Z"/><path class="fh2" d="M1572 1925 L1713 2066 L1723 2066 L1582 1925 Z" /></g><g class="o"><path transform="translate(8,16)" class="S sfh" d="M1599 1187 L1753 1341 L1789 1341 L1635 1187 Z"/><path class="fh7" d="M1599 1187 L1753 1341 L1789 1341 L1635 1187 Z" /></g><g class="o"><path transform="translate(9,18)" class="S sf" d="M1417 1527 L2032 2142 L2032 2166 L1417 1551 Z"/><path class="f4" d="M1417 1527 L2032 2142 L2032 2166 L1417 1551 Z" /></g><g class="o"><path transform="translate(4,8)" class="S sfh" d="M1322 1355 L1817 1850 L1839 1850 L1344 1355 Z"/><path class="fh2" d="M1322 1355 L1817 1850 L1839 1850 L1344 1355 Z" /></g><g class="o"><path transform="translate(3,6)" class="S sf" d="M1312 1860 L1552 2100 L1552 2112 L1312 1872 Z"/><path class="f7" d="M1312 1860 L1552 2100 L1552 2112 L1312 1872 Z" /></g><g class="o"><path transform="translate(2,4)" class="S sfv" d="M1364 1346 L1480 1462 L1480 1472 L1364 1356 Z"/><path class="fv7" d="M1364 1346 L1480 1462 L1480 1472 L1364 1356 Z" /></g><g class="o"><path transform="translate(9,18)" class="S sfh" d="M2034 2037 L2249 2252 L2279 2252 L2064 2037 Z"/><path class="fh5" d="M2034 2037 L2249 2252 L2279 2252 L2064 2037 Z" /></g><g class="o"><path transform="translate(4,8)" class="S sfh" d="M1329 1575 L1590 1836 L1598 1836 L1337 1575 Z"/><path class="fh7" d="M1329 1575 L1590 1836 L1598 1836 L1337 1575 Z" /></g><g class="o"><path transform="translate(3,6)" class="S sfv" d="M1962 1120 L2174 1332 L2174 1362 L1962 1150 Z"/><path class="fv3" d="M1962 1120 L2174 1332 L2174 1362 L1962 1150 Z" /></g><g class="o"><path transform="translate(3,6)" class="S sfv" d="M1063 1204 L1468 1609 L1468 1635 L1063 1230 Z"/><path class="fv5" d="M1063 1204 L1468 1609 L1468 1635 L1063 1230 Z" /></g><g class="o"><path transform="translate(6,12)" class="S sfh" d="M1305 1373 L1491 1559 L1503 1559 L1317 1373 Z"/><path class="fh5" d="M1305 1373 L1491 1559 L1503 1559 L1317 1373 Z" /></g><g class="o"><path transform="translate(3,6)" class="S sfh" d="M1412 1470 L1587 1645 L1609 1645 L1434 1470 Z"/><path class="fh2" d="M1412 1470 L1587 1645 L1609 1645 L1434 1470 Z" /></g><g class="o"><path transform="translate(3,6)" class="S sf" d="M1243 956 L1344 1057 L1352 1057 L1251 956 Z"/><path class="f2" d="M1243 956 L1344 1057 L1352 1057 L1251 956 Z" /></g><g class="o"><path transform="translate(5,10)" class="S sf" d="M1508 2025 L1741 2258 L1741 2268 L1508 2035 Z"/><path class="f6" d="M1508 2025 L1741 2258 L1741 2268 L1508 2035 Z" /></g><g class="o"><path transform="translate(3,6)" class="S sfv" d="M1419 1484 L1601 1666 L1601 1674 L1419 1492 Z"/><path class="fv1" d="M1419 1484 L1601 1666 L1601 1674 L1419 1492 Z" /></g><g class="o"><path transform="translate(3,6)" class="S sfh" d="M1676 1644 L1772 1740 L1784 1740 L1688 1644 Z"/><path class="fh6" d="M1676 1644 L1772 1740 L1784 1740 L1688 1644 Z" /></g><g class="o"><path transform="translate(4,8)" class="S ss" d="M986 1417 L1358 1789 L1396 1789 L1024 1417 Z"/><path class="s2" d="M986 1417 L1358 1789 L1396 1789 L1024 1417 Z" /></g><g class="o"><path transform="translate(4,8)" class="S ssh" d="M1070 1455 L1160 1545 L1170 1545 L1080 1455 Z"/><path class="sh6" d="M1070 1455 L1160 1545 L1170 1545 L1080 1455 Z" /></g><g class="o"><path transform="translate(5,10)" class="S sfh" d="M1942 1712 L2028 1798 L2048 1798 L1962 1712 Z"/><path class="fh1" d="M1942 1712 L2028 1798 L2048 1798 L1962 1712 Z" /></g><g class="o"><path transform="translate(5,10)" class="S sfh" d="M1112 1858 L1667 2413 L1693 2413 L1138 1858 Z"/><path class="fh2" d="M1112 1858 L1667 2413 L1693 2413 L1138 1858 Z" /></g><g class="o"><path transform="translate(9,18)" class="S ssh" d="M1749 1445 L1837 1533 L1851 1533 L1763 1445 Z"/><path class="sh3" d="M1749 1445 L1837 1533 L1851 1533 L1763 1445 Z" /></g><g class="o"><path transform="translate(2,4)" class="S sf" d="M1186 1783 L1257 1854 L1257 1880 L1186 1809 Z"/><path class="f6" d="M1186 1783 L1257 1854 L1257 1880 L1186 1809 Z" /></g><g class="o"><path transform="translate(2,4)" class="S sf" d="M1831 969 L2128 1266 L2146 1266 L1849 969 Z"/><path class="f7" d="M1831 969 L2128 1266 L2146 1266 L1849 969 Z" /></g><g class="o"><path transform="translate(2,4)" class="S ssv" d="M1280 2008 L1363 2091 L1363 2127 L1280 2044 Z"/><path class="sv2" d="M1280 2008 L1363 2091 L1363 2127 L1280 2044 Z" /></g><g class="o"><path transform="translate(8,16)" class="S sf" d="M967 1905 L1132 2070 L1142 2070 L977 1905 Z"/><path class="f2" d="M967 1905 L1132 2070 L1142 2070 L977 1905 Z" /></g><g class="o"><path transform="translate(8,16)" class="S sf" d="M1814 1496 L1914 1596 L1924 1596 L1824 1496 Z"/><path class="f7" d="M1814 1496 L1914 1596 L1924 1596 L1824 1496 Z" /></g><g class="o"><path transform="translate(5,10)" class="S sfh" d="M1846 1658 L2101 1913 L2113 1913 L1858 1658 Z"/><path class="fh1" d="M1846 1658 L2101 1913 L2113 1913 L1858 1658 Z" /></g><g class="o"><path transform="translate(4,8)" class="S ss" d="M1124 1543 L1213 1632 L1213 1658 L1124 1569 Z"/><path class="s2" d="M1124 1543 L1213 1632 L1213 1658 L1124 1569 Z" /></g><g class="o"><path transform="translate(4,8)" class="S sfv" d="M1759 1781 L1995 2017 L1995 2049 L1759 1813 Z"/><path class="fv2" d="M1759 1781 L1995 2017 L1995 2049 L1759 1813 Z" /></g><g class="o"><path transform="translate(5,10)" class="S sf" d="M1323 1687 L1974 2338 L1974 2362 L1323 1711 Z"/><path class="f1" d="M1323 1687 L1974 2338 L1974 2362 L1323 1711 Z" /></g><g class="o"><path transform="translate(2,4)" class="S ssv" d="M2046 1202 L2143 1299 L2143 1335 L2046 1238 Z"/><path class="sv7" d="M2046 1202 L2143 1299 L2143 1335 L2046 1238 Z" /></g><g class="o"><path transform="translate(2,4)" class="S ssh" d="M1872 961 L2553 1642 L2577 1642 L1896 961 Z"/><path class="sh6" d="M1872 961 L2553 1642 L2577 1642 L1896 961 Z" /></g><g class="o"><path transform="translate(9,18)" class="S sfh" d="M1451 1021 L1626 1196 L1662 1196 L1487 1021 Z"/><path class="fh2" d="M1451 1021 L1626 1196 L1662 1196 L1487 1021 Z" /></g><g class="o"><path transform="translate(4,8)" class="S sf" d="M1342 1178 L1559 1395 L1571 1395 L1354 1178 Z"/><path class="f5" d="M1342 1178 L1559 1395 L1571 1395 L1354 1178 Z" /></g><g class="o"><path transform="translate(9,18)" class="S ss" d="M954 1079 L1145 1270 L1145 1284 L954 1093 Z"/><path class="s5" d="M954 1079 L1145 1270 L1145 1284 L954 1093 Z" /></g><g class="o"><path transform="translate(8,16)" class="S sfh" d="M1268 1388 L1404 1524 L1416 1524 L1280 1388 Z"/><path class="fh2" d="M1268 1388 L1404 1524 L1416 1524 L1280 1388 Z" /></g><g class="o"><path transform="translate(2,4)" class="S ssh" d="M1257 1858 L1971 2572 L1997 2572 L1283 1858 Z"/><path class="sh3" d="M1257 1858 L1971 2572 L1997 2572 L1283 1858 Z" /></g><g class="o"><path transform="translate(6,12)" class="S ss" d="M1636 1841 L1779 1984 L1803 1984 L1660 1841 Z"/><path class="s4" d="M1636 1841 L1779 1984 L1803 1984 L1660 1841 Z" /></g><g class="o"><path transform="translate(9,18)" class="S sfh" d="M1063 1072 L1141 1150 L1163 1150 L1085 1072 Z"/><path class="fh2" d="M1063 1072 L1141 1150 L1163 1150 L1085 1072 Z" /></g><g class="o"><path transform="translate(2,4)" class="S sfv" d="M1264 1574 L1447 1757 L1447 1785 L1264 1602 Z"/><path class="fv1" d="M1264 1574 L1447 1757 L1447 1785 L1264 1602 Z" /></g><g class="o"><path transform="translate(2,4)" class="S ssh" d="M948 1207 L1084 1343 L1094 1343 L958 1207 Z"/><path class="sh7" d="M948 1207 L1084 1343 L1094 1343 L958 1207 Z" /></g><g class="o"><path transform="translate(9,18)" class="S ssh" d="M1990 1430 L2237 1677 L2269 1677 L2022 1430 Z"/><path class="sh7" d="M1990 1430 L2237 1677 L2269 1677 L2022 1430 Z" /></g><g class="o"><path transform="translate(3,6)" class="S sf" d="M1695 1189 L1825 1319 L1825 1333 L1695 1203 Z"/><path class="f6" d="M1695 1189 L1825 1319 L1825 1333 L1695 1203 Z" /></g><g class="o"><path transform="translate(8,16)" class="S sfv" d="M1965 1625 L2202 1862 L2202 1884 L1965 1647 Z"/><path class="fv1" d="M1965 1625 L2202 1862 L2202 1884 L1965 1647 Z" /></g><g class="o"><path transform="translate(3,6)" class="S sf" d="M1333 1379 L1533 1579 L1553 1579 L1353 1379 Z"/><path class="f2" d="M1333 1379 L1533 1579 L1553 1579 L1353 1379 Z" /></g><g class="o"><path transform="translate(2,4)" class="S sfv" d="M1113 1930 L1169 1986 L1169 2004 L1113 1948 Z"/><path class="fv3" d="M1113 1930 L1169 1986 L1169 2004 L1113 1948 Z" /></g><g class="o"><path transform="translate(4,8)" class="S sf" d="M1645 1326 L1832 1513 L1864 1513 L1677 1326 Z"/><path class="f5" d="M1645 1326 L1832 1513 L1864 1513 L1677 1326 Z" /></g><g class="o"><path transform="translate(5,10)" class="S sfv" d="M1149 1993 L1340 2184 L1340 2210 L1149 2019 Z"/><path class="fv3" d="M1149 1993 L1340 2184 L1340 2210 L1149 2019 Z" /></g><g class="o"><path transform="translate(4,8)" class="S ssh" d="M1603 1373 L2098 1868 L2118 1868 L1623 1373 Z"/><path class="sh3" d="M1603 1373 L2098 1868 L2118 1868 L1623 1373 Z" /></g><g class="o"><path transform="translate(7,14)" class="S ssh" d="M1254 1327 L1404 1477 L1426 1477 L1276 1327 Z"/><path class="sh3" d="M1254 1327 L1404 1477 L1426 1477 L1276 1327 Z" /></g><g class="o"><path transform="translate(9,18)" class="S sf" d="M1032 1318 L1356 1642 L1382 1642 L1058 1318 Z"/><path class="f6" d="M1032 1318 L1356 1642 L1382 1642 L1058 1318 Z" /></g><g class="o"><path transform="translate(3,6)" class="S sfh" d="M1189 1013 L1347 1171 L1377 1171 L1219 1013 Z"/><path class="fh3" d="M1189 1013 L1347 1171 L1377 1171 L1219 1013 Z" /></g><g class="o"><path transform="translate(5,10)" class="S sfh" d="M1327 1452 L1394 1519 L1406 1519 L1339 1452 Z"/><path class="fh3" d="M1327 1452 L1394 1519 L1406 1519 L1339 1452 Z" /></g><g class="o"><path transform="translate(7,14)" class="S sfh" d="M1114 1894 L1325 2105 L1359 2105 L1148 1894 Z"/><path class="fh4" d="M1114 1894 L1325 2105 L1359 2105 L1148 1894 Z" /></g><g class="o"><path transform="translate(8,16)" class="S sfv" d="M2049 2003 L2108 2062 L2108 2098 L2049 2039 Z"/><path class="fv7" d="M2049 2003 L2108 2062 L2108 2098 L2049 2039 Z" /></g><g class="o"><path transform="translate(7,14)" class="S ssv" d="M1814 1336 L2030 1552 L2030 1590 L1814 1374 Z"/><path class="sv3" d="M1814 1336 L2030 1552 L2030 1590 L1814 1374 Z" /></g><g class="o"><path transform="translate(9,18)" class="S sf" d="M1205 1631 L1334 1760 L1344 1760 L1215 1631 Z"/><path class="f3" d="M1205 1631 L1334 1760 L1344 1760 L1215 1631 Z" /></g><g class="o"><path transform="translate(9,18)" class="S sfv" d="M1086 1189 L1191 1294 L1191 1328 L1086 1223 Z"/><path class="fv5" d="M1086 1189 L1191 1294 L1191 1328 L1086 1223 Z" /></g><g class="o"><path transform="translate(8,16)" class="S sf" d="M1117 1521 L1288 1692 L1312 1692 L1141 1521 Z"/><path class="f1" d="M1117 1521 L1288 1692 L1312 1692 L1141 1521 Z" /></g><g class="o"><path transform="translate(6,12)" class="S sf" d="M1533 1698 L1758 1923 L1782 1923 L1557 1698 Z"/><path class="f6" d="M1533 1698 L1758 1923 L1782 1923 L1557 1698 Z" /></g><g class="o"><path transform="translate(8,16)" class="S sf" d="M1136 1397 L1352 1613 L1378 1613 L1162 1397 Z"/><path class="f3" d="M1136 1397 L1352 1613 L1378 1613 L1162 1397 Z" /></g><g class="o"><path transform="translate(8,16)" class="S sfh" d="M1314 1666 L1370 1722 L1390 1722 L1334 1666 Z"/><path class="fh4" d="M1314 1666 L1370 1722 L1390 1722 L1334 1666 Z" /></g><g class="o"><path transform="translate(8,16)" class="S sfv" d="M1007 1737 L1529 2259 L1529 2285 L1007 1763 Z"/><path class="fv2" d="M1007 1737 L1529 2259 L1529 2285 L1007 1763 Z" /></g><g class="o"><path transform="translate(8,16)" class="S sfv" d="M2038 1752 L2110 1824 L2110 1860 L2038 1788 Z"/><path class="fv2" d="M2038 1752 L2110 1824 L2110 1860 L2038 1788 Z" /></g><g class="o"><path transform="translate(9,18)" class="S sfh" d="M1204 1777 L1339 1912 L1353 1912 L1218 1777 Z"/><path class="fh4" d="M1204 1777 L1339 1912 L1353 1912 L1218 1777 Z" /></g><g class="o"><path transform="translate(3,6)" class="S ssv" d="M1915 1632 L2128 1845 L2128 1881 L1915 1668 Z"/><path class="sv5" d="M1915 1632 L2128 1845 L2128 1881 L1915 1668 Z" /></g><g class="o"><path transform="translate(4,8)" class="S sfh" d="M1402 1661 L1623 1882 L1633 1882 L1412 1661 Z"/><path class="fh5" d="M1402 1661 L1623 1882 L1633 1882 L1412 1661 Z" /></g><g class="o"><path transform="translate(3,6)" class="S sfh" d="M1998 1354 L2072 1428 L2090 1428 L2016 1354 Z"/><path class="fh2" d="M1998 1354 L2072 1428 L2090 1428 L2016 1354 Z" /></g><g class="o"><path transform="translate(2,4)" class="S sfv" d="M1920 1196 L2640 1916 L2640 1936 L1920 1216 Z"/><path class="fv6" d="M1920 1196 L2640 1916 L2640 1936 L1920 1216 Z" /></g><g class="o"><path transform="translate(4,8)" class="S sfh" d="M1199 1929 L1398 2128 L1414 2128 L1215 1929 Z"/><path class="fh7" d="M1199 1929 L1398 2128 L1414 2128 L1215 1929 Z" /></g><g class="o"><path transform="translate(9,18)" class="S sf" d="M1699 1441 L1799 1541 L1821 1541 L1721 1441 Z"/><path class="f7" d="M1699 1441 L1799 1541 L1821 1541 L1721 1441 Z" /></g><g class="o"><path transform="translate(2,4)" class="S sfh" d="M1539 1188 L1779 1428 L1803 1428 L1563 1188 Z"/><path class="fh6" d="M1539 1188 L1779 1428 L1803 1428 L1563 1188 Z" /></g><g class="o"><path transform="translate(5,10)" class="S sfv" d="M988 1817 L1093 1922 L1093 1932 L988 1827 Z"/><path class="fv2" d="M988 1817 L1093 1922 L1093 1932 L988 1827 Z" /></g><g class="o"><path transform="translate(7,14)" class="S sfh" d="M1209 1810 L1407 2008 L1431 2008 L1233 1810 Z"/><path class="fh5" d="M1209 1810 L1407 2008 L1431 2008 L1233 1810 Z" /></g><g class="o"><path transform="translate(9,18)" class="S sf" d="M1204 1666 L1361 1823 L1361 1831 L1204 1674 Z"/><path class="f1" d="M1204 1666 L1361 1823 L1361 1831 L1204 1674 Z" /></g><g class="o"><path transform="translate(2,4)" class="S sfh" d="M1452 1052 L1674 1274 L1710 1274 L1488 1052 Z"/><path class="fh5" d="M1452 1052 L1674 1274 L1710 1274 L1488 1052 Z" /></g><g class="o"><path transform="translate(3,6)" class="S sfh" d="M1826 2002 L1989 2165 L2009 2165 L1846 2002 Z"/><path class="fh6" d="M1826 2002 L1989 2165 L2009 2165 L1846 2002 Z" /></g><g class="o"><path transform="translate(8,16)" class="S sfh" d="M1869 1023 L1962 1116 L1994 1116 L1901 1023 Z"/><path class="fh6" d="M1869 1023 L1962 1116 L1994 1116 L1901 1023 Z" /></g><g class="o"><path transform="translate(2,4)" class="S sfh" d="M1922 1777 L2444 2299 L2480 2299 L1958 1777 Z"/><path class="fh4" d="M1922 1777 L2444 2299 L2480 2299 L1958 1777 Z" /></g><g class="o"><path transform="translate(4,8)" class="S sfh" d="M1017 1746 L1200 1929 L1238 1929 L1055 1746 Z"/><path class="fh2" d="M1017 1746 L1200 1929 L1238 1929 L1055 1746 Z" /></g><g class="o"><path transform="translate(8,16)" class="S sfh" d="M1918 1471 L2022 1575 L2056 1575 L1952 1471 Z"/><path class="fh4" d="M1918 1471 L2022 1575 L2056 1575 L1952 1471 Z" /></g><g class="o"><path transform="translate(5,10)" class="S ss" d="M1865 1800 L2519 2454 L2557 2454 L1903 1800 Z"/><path class="s6" d="M1865 1800 L2519 2454 L2557 2454 L1903 1800 Z" /></g><g class="o"><path transform="translate(6,12)" class="S ss" d="M1522 1282 L1654 1414 L1654 1438 L1522 1306 Z"/><path class="s7" d="M1522 1282 L1654 1414 L1654 1438 L1522 1306 Z" /></g><g class="o"><path transform="translate(8,16)" class="S ssh" d="M1865 1201 L1977 1313 L1991 1313 L1879 1201 Z"/><path class="sh2" d="M1865 1201 L1977 1313 L1991 1313 L1879 1201 Z" /></g><g class="o"><path transform="translate(3,6)" class="S sfh" d="M1920 1964 L2460 2504 L2472 2504 L1932 1964 Z"/><path class="fh5" d="M1920 1964 L2460 2504 L2472 2504 L1932 1964 Z" /></g><g class="o"><path transform="translate(5,10)" class="S ssv" d="M1429 1503 L1601 1675 L1601 1693 L1429 1521 Z"/><path class="sv4" d="M1429 1503 L1601 1675 L1601 1693 L1429 1521 Z" /></g><g class="o"><path transform="translate(4,8)" class="S sf" d="M1266 1469 L1488 1691 L1488 1717 L1266 1495 Z"/><path class="f3" d="M1266 1469 L1488 1691 L1488 1717 L1266 1495 Z" /></g><g class="o"><path transform="translate(4,8)" class="S ssh" d="M1130 1034 L1700 1604 L1736 1604 L1166 1034 Z"/><path class="sh1" d="M1130 1034 L1700 1604 L1736 1604 L1166 1034 Z" /></g><g class="o"><path transform="translate(5,10)" class="S sfv" d="M988 1583 L1450 2045 L1450 2071 L988 1609 Z"/><path class="fv5" d="M988 1583 L1450 2045 L1450 2071 L988 1609 Z" /></g><g class="o"><path transform="translate(4,8)" class="S sfh" d="M1345 1656 L1416 1727 L1436 1727 L1365 1656 Z"/><path class="fh3" d="M1345 1656 L1416 1727 L1436 1727 L1365 1656 Z" /></g><g class="o"><path transform="translate(4,8)" class="S sfh" d="M1798 1681 L2034 1917 L2046 1917 L1810 1681 Z"/><path class="fh1" d="M1798 1681 L2034 1917 L2046 1917 L1810 1681 Z" /></g><g class="o"><path transform="translate(3,6)" class="S ss" d="M1570 1110 L1709 1249 L1709 1281 L1570 1142 Z"/><path class="s4" d="M1570 1110 L1709 1249 L1709 1281 L1570 1142 Z" /></g><g class="o"><path transform="translate(7,14)" class="S sfv" d="M1958 1154 L2019 1215 L2019 1249 L1958 1188 Z"/><path class="fv6" d="M1958 1154 L2019 1215 L2019 1249 L1958 1188 Z" /></g><g class="o"><path transform="translate(4,8)" class="S sfh" d="M1667 1399 L1886 1618 L1912 1618 L1693 1399 Z"/><path class="fh1" d="M1667 1399 L1886 1618 L1912 1618 L1693 1399 Z" /></g><g class="o"><path transform="translate(6,12)" class="S sf" d="M1864 2018 L2107 2261 L2133 2261 L1890 2018 Z"/><path class="f7" d="M1864 2018 L2107 2261 L2133 2261 L1890 2018 Z" /></g><g class="o"><path transform="translate(6,12)" class="S sf" d="M1139 1701 L1652 2214 L1676 2214 L1163 1701 Z"/><path class="f6" d="M1139 1701 L1652 2214 L1676 2214 L1163 1701 Z" /></g><g class="o"><path transform="translate(2,4)" class="S ss" d="M1483 1549 L1672 1738 L1672 1748 L1483 1559 Z"/><path class="s3" d="M1483 1549 L1672 1738 L1672 1748 L1483 1559 Z" /></g><g class="o"><path transform="translate(6,12)" class="S sf" d="M2006 1057 L2203 1254 L2203 1292 L2006 1095 Z"/><path class="f1" d="M2006 1057 L2203 1254 L2203 1292 L2006 1095 Z" /></g><g class="o"><path transform="translate(5,10)" class="S sfh" d="M1459 1237 L1810 1588 L1848 1588 L1497 1237 Z"/><path class="fh7" d="M1459 1237 L1810 1588 L1848 1588 L1497 1237 Z" /></g><g class="o"><path transform="translate(2,4)" class="S sf" d="M1567 1465 L1675 1573 L1675 1585 L1567 1477 Z"/><path class="f5" d="M1567 1465 L1675 1573 L1675 1585 L1567 1477 Z" /></g><g class="o"><path transform="translate(4,8)" class="S ssv" d="M1236 1475 L1392 1631 L1392 1645 L1236 1489 Z"/><path class="sv7" d="M1236 1475 L1392 1631 L1392 1645 L1236 1489 Z" /></g><g class="o"><path transform="translate(5,10)" class="S ssh" d="M1621 2004 L1818 2201 L1832 2201 L1635 2004 Z"/><path class="sh6" d="M1621 2004 L1818 2201 L1832 2201 L1635 2004 Z" /></g></g><use href="#slashes" transform-origin="1500 1500" transform="rotate(180) scale(2)"/></g><polyline points="1500,1010 1990,1500 1500,1990 1010,1500 1500,1010 1990,1500" stroke-width="40" class="o f4" /><use href="#slashes" transform-origin="1500 1500" transform="scale(.7)"/><use href="#slashes" transform-origin="1500 1500" transform="rotate(180) scale(.3)"/></svg>