<svg xmlns="http://www.w3.org/2000/svg" viewBox="750 750 1500 1500"><style>/*<![CDATA[*/svg{background:rgb(34,34,34);max-width:100vw;max-height:100vh}path{stroke-width:4}.o{opacity:.75}.S{opacity:.4}.sf{stroke:none;fill:black}.sfh{stroke:none;fill:url(#hs)}.sfv{stroke:none;fill:url(#vs)}.ss{stroke:black;fill:none}.ssh{stroke:url(#hs);fill:none}.ssv{stroke:url(#vs);fill:none}.s1{fill:none;stroke:rgb(255,97,80)}.f1{stroke:none;fill:rgb(255,97,80)}.sh1{fill:none;stroke:url(#h1)}.fh1{stroke:none;fill:url(#h1)}.sv1{fill:none;stroke:url(#v1)}.fv1{stroke:none;fill:url(#v1)}.s2{fill:none;stroke:rgb(255,168,34)}.f2{stroke:none;fill:rgb(255,168,34)}.sh2{fill:none;stroke:url(#h2)}.fh2{stroke:none;fill:url(#h2)}.sv2{fill:none;stroke:url(#v2)}.fv2{stroke:none;fill:url(#v2)}.s3{fill:none;stroke:rgb(19,78,111)}.f3{stroke:none;fill:rgb(19,78,111)}.sh3{fill:none;stroke:url(#h3)}.fh3{stroke:none;fill:url(#h3)}.sv3{fill:none;stroke:url(#v3)}.fv3{stroke:none;fill:url(#v3)}.s4{fill:none;stroke:rgb(222,224,230)}.f4{stroke:none;fill:rgb(222,224,230)}.sh4{fill:none;stroke:url(#h4)}.fh4{stroke:none;fill:url(#h4)}.sv4{fill:none;stroke:url(#v4)}.fv4{stroke:none;fill:url(#v4)}.s5{fill:none;stroke:rgb(26,192,198)}.f5{stroke:none;fill:rgb(26,192,198)}.sh5{fill:none;stroke:url(#h5)}.fh5{stroke:none;fill:url(#h5)}.sv5{fill:none;stroke:url(#v5)}.fv5{stroke:none;fill:url(#v5)}.s6{fill:none;stroke:rgb(255,255,255)}.f6{stroke:none;fill:rgb(255,255,255)}.sh6{fill:none;stroke:url(#h6)}.fh6{stroke:none;fill:url(#h6)}.sv6{fill:none;stroke:url(#v6)}.fv6{stroke:none;fill:url(#v6)}.s7{fill:none;stroke:rgb(255,255,0)}.f7{stroke:none;fill:rgb(255,255,0)}.sh7{fill:none;stroke:url(#h7)}.fh7{stroke:none;fill:url(#h7)}.sv7{fill:none;stroke:url(#v7)}.fv7{stroke:none;fill:url(#v7)}/*]]>*/</style><defs><linearGradient gradientTransform="rotate(90)" id="hs"><stop offset="20%" stop-color="#000" /><stop offset="95%" stop-color="rgba(0, 0, 0, 0)" /></linearGradient><linearGradient id="vs"><stop offset="20%" stop-color="#000" /><stop offset="95%" stop-color="rgba(0, 0, 0, 0)" /></linearGradient><linearGradient gradientTransform="rotate(90)" id="h1"><stop offset="20%" stop-color="rgba(255,97,80,1)" /><stop offset="95%" stop-color="rgba(255,97,80,0)" /></linearGradient><linearGradient id="v1"><stop offset="20%" stop-color="rgba(255,97,80,1)" /><stop offset="95%" stop-color="rgba(255,97,80,0)" /></linearGradient><linearGradient gradientTransform="rotate(90)" id="h2"><stop offset="20%" stop-color="rgba(255,168,34,1)" /><stop offset="95%" stop-color="rgba(255,168,34,0)" /></linearGradient><linearGradient id="v2"><stop offset="20%" stop-color="rgba(255,168,34,1)" /><stop offset="95%" stop-color="rgba(255,168,34,0)" /></linearGradient><linearGradient gradientTransform="rotate(90)" id="h3"><stop offset="20%" stop-color="rgba(19,78,111,1)" /><stop offset="95%" stop-color="rgba(19,78,111,0)" /></linearGradient><linearGradient id="v3"><stop offset="20%" stop-color="rgba(19,78,111,1)" /><stop offset="95%" stop-color="rgba(19,78,111,0)" /></linearGradient><linearGradient gradientTransform="rotate(90)" id="h4"><stop offset="20%" stop-color="rgba(222,224,230,1)" /><stop offset="95%" stop-color="rgba(222,224,230,0)" /></linearGradient><linearGradient id="v4"><stop offset="20%" stop-color="rgba(222,224,230,1)" /><stop offset="95%" stop-color="rgba(222,224,230,0)" /></linearGradient><linearGradient gradientTransform="rotate(90)" id="h5"><stop offset="20%" stop-color="rgba(26,192,198,1)" /><stop offset="95%" stop-color="rgba(26,192,198,0)" /></linearGradient><linearGradient id="v5"><stop offset="20%" stop-color="rgba(26,192,198,1)" /><stop offset="95%" stop-color="rgba(26,192,198,0)" /></linearGradient><linearGradient gradientTransform="rotate(90)" id="h6"><stop offset="20%" stop-color="rgba(255,255,255,1)" /><stop offset="95%" stop-color="rgba(255,255,255,0)" /></linearGradient><linearGradient id="v6"><stop offset="20%" stop-color="rgba(255,255,255,1)" /><stop offset="95%" stop-color="rgba(255,255,255,0)" /></linearGradient><linearGradient gradientTransform="rotate(90)" id="h7"><stop offset="20%" stop-color="rgba(255,255,0,1)" /><stop offset="95%" stop-color="rgba(255,255,0,0)" /></linearGradient><linearGradient id="v7"><stop offset="20%" stop-color="rgba(255,255,0,1)" /><stop offset="95%" stop-color="rgba(255,255,0,0)" /></linearGradient></defs><g transform-origin="1500 1500" transform="scale(2)" opacity=".2"><g id="slashes"><g class="o"><path transform="translate(5,10)" class="S ssh" d="M1286 1912 L1350 1848 L1366 1848 L1302 1912 Z"/><path class="sh4" d="M1286 1912 L1350 1848 L1366 1848 L1302 1912 Z" /></g><g class="o"><path transform="translate(4,8)" class="S sfh" d="M1756 1232 L1986 1002 L2004 1002 L1774 1232 Z"/><path class="fh2" d="M1756 1232 L1986 1002 L2004 1002 L1774 1232 Z" /></g><g class="o"><path transform="translate(9,18)" class="S sf" d="M1459 1320 L1243 1104 L1243 1130 L1459 1346 Z"/><path class="f2" d="M1459 1320 L1243 1104 L1243 1130 L1459 1346 Z" /></g><g class="o"><path transform="translate(9,18)" class="S ss" d="M2036 1449 L1883 1296 L1883 1326 L2036 1479 Z"/><path class="s7" d="M2036 1449 L1883 1296 L1883 1326 L2036 1479 Z" /></g><g class="o"><path transform="translate(8,16)" class="S ssv" d="M1476 1992 L1281 1797 L1281 1815 L1476 2010 Z"/><path class="sv4" d="M1476 1992 L1281 1797 L1281 1815 L1476 2010 Z" /></g><g class="o"><path transform="translate(3,6)" class="S ssh" d="M1562 1081 L1627 1146 L1771 1146 L1706 1081 Z"/><path class="sh5" d="M1562 1081 L1627 1146 L1771 1146 L1706 1081 Z" /></g><g class="o"><path transform="translate(7,14)" class="S sfh" d="M1656 1065 L1870 851 L1906 851 L1692 1065 Z"/><path class="fh7" d="M1656 1065 L1870 851 L1906 851 L1692 1065 Z" /></g><g class="o"><path transform="translate(6,12)" class="S sfv" d="M1722 1463 L1821 1364 L1821 1392 L1722 1491 Z"/><path class="fv5" d="M1722 1463 L1821 1364 L1821 1392 L1722 1491 Z" /></g><g class="o"><path transform="translate(6,12)" class="S sfh" d="M1174 1423 L1281 1316 L1309 1316 L1202 1423 Z"/><path class="fh1" d="M1174 1423 L1281 1316 L1309 1316 L1202 1423 Z" /></g><g class="o"><path transform="translate(8,16)" class="S sfh" d="M2038 1649 L2164 1523 L2180 1523 L2054 1649 Z"/><path class="fh5" d="M2038 1649 L2164 1523 L2180 1523 L2054 1649 Z" /></g><g class="o"><path transform="translate(6,12)" class="S sfv" d="M1863 1644 L1755 1536 L1755 1556 L1863 1664 Z"/><path class="fv4" d="M1863 1644 L1755 1536 L1755 1556 L1863 1664 Z" /></g><g class="o"><path transform="translate(4,8)" class="S sfh" d="M956 1609 L1191 1844 L1229 1844 L994 1609 Z"/><path class="fh3" d="M956 1609 L1191 1844 L1229 1844 L994 1609 Z" /></g><g class="o"><path transform="translate(9,18)" class="S ssv" d="M1739 1718 L1881 1860 L1881 1890 L1739 1748 Z"/><path class="sv6" d="M1739 1718 L1881 1860 L1881 1890 L1739 1748 Z" /></g><g class="o"><path transform="translate(4,8)" class="S ssv" d="M1119 1394 L961 1236 L961 1248 L1119 1406 Z"/><path class="sv7" d="M1119 1394 L961 1236 L961 1248 L1119 1406 Z" /></g><g class="o"><path transform="translate(5,10)" class="S sfv" d="M1318 1854 L1385 1787 L1385 1811 L1318 1878 Z"/><path class="fv1" d="M1318 1854 L1385 1787 L1385 1811 L1318 1878 Z" /></g><g class="o"><path transform="translate(6,12)" class="S sfv" d="M1262 1121 L791 1592 L791 1610 L1262 1139 Z"/><path class="fv6" d="M1262 1121 L791 1592 L791 1610 L1262 1139 Z" /></g><g class="o"><path transform="translate(9,18)" class="S sf" d="M1682 1187 L1819 1324 L1837 1324 L1700 1187 Z"/><path class="f5" d="M1682 1187 L1819 1324 L1837 1324 L1700 1187 Z" /></g><g class="o"><path transform="translate(9,18)" class="S sf" d="M1384 1804 L1518 1938 L1534 1938 L1400 1804 Z"/><path class="f7" d="M1384 1804 L1518 1938 L1534 1938 L1400 1804 Z" /></g><g class="o"><path transform="translate(5,10)" class="S ssv" d="M1441 1937 L1672 1706 L1672 1834 L1441 2065 Z"/><path class="sv3" d="M1441 1937 L1672 1706 L1672 1834 L1441 2065 Z" /></g><g class="o"><path transform="translate(4,8)" class="S ssh" d="M1812 1890 L1984 1718 L1998 1718 L1826 1890 Z"/><path class="sh5" d="M1812 1890 L1984 1718 L1998 1718 L1826 1890 Z" /></g><g class="o"><path transform="translate(3,6)" class="S sfh" d="M1567 2033 L2107 2573 L2141 2573 L1601 2033 Z"/><path class="fh5" d="M1567 2033 L2107 2573 L2141 2573 L1601 2033 Z" /></g><g class="o"><path transform="translate(8,16)" class="S sfv" d="M1409 1636 L1359 1686 L1359 1720 L1409 1670 Z"/><path class="fv1" d="M1409 1636 L1359 1686 L1359 1720 L1409 1670 Z" /></g><g class="o"><path transform="translate(8,16)" class="S sfv" d="M1775 1587 L1625 1737 L1625 1817 L1775 1667 Z"/><path class="fv1" d="M1775 1587 L1625 1737 L1625 1817 L1775 1667 Z" /></g><g class="o"><path transform="translate(2,4)" class="S sfh" d="M1208 1446 L1374 1612 L1386 1612 L1220 1446 Z"/><path class="fh6" d="M1208 1446 L1374 1612 L1386 1612 L1220 1446 Z" /></g><g class="o"><path transform="translate(7,14)" class="S sfv" d="M1146 1145 L935 934 L935 966 L1146 1177 Z"/><path class="fv3" d="M1146 1145 L935 934 L935 966 L1146 1177 Z" /></g><g class="o"><path transform="translate(9,18)" class="S sfv" d="M1184 1217 L1065 1098 L1065 1108 L1184 1227 Z"/><path class="fv5" d="M1184 1217 L1065 1098 L1065 1108 L1184 1227 Z" /></g><g class="o"><path transform="translate(5,10)" class="S ss" d="M1143 1581 L1318 1756 L1318 1764 L1143 1589 Z"/><path class="s6" d="M1143 1581 L1318 1756 L1318 1764 L1143 1589 Z" /></g><g class="o"><path transform="translate(6,12)" class="S sfv" d="M1420 1697 L1307 1810 L1307 1822 L1420 1709 Z"/><path class="fv2" d="M1420 1697 L1307 1810 L1307 1822 L1420 1709 Z" /></g><g class="o"><path transform="translate(8,16)" class="S ssh" d="M1825 1234 L2027 1436 L2047 1436 L1845 1234 Z"/><path class="sh4" d="M1825 1234 L2027 1436 L2047 1436 L1845 1234 Z" /></g><g class="o"><path transform="translate(9,18)" class="S sf" d="M1427 966 L836 1557 L868 1557 L1459 966 Z"/><path class="f5" d="M1427 966 L836 1557 L868 1557 L1459 966 Z" /></g><g class="o"><path transform="translate(5,10)" class="S sfv" d="M1732 1449 L1499 1682 L1499 1712 L1732 1479 Z"/><path class="fv1" d="M1732 1449 L1499 1682 L1499 1712 L1732 1479 Z" /></g><g class="o"><path transform="translate(2,4)" class="S sfh" d="M1945 1086 L1669 810 L1687 810 L1963 1086 Z"/><path class="fh5" d="M1945 1086 L1669 810 L1687 810 L1963 1086 Z" /></g><g class="o"><path transform="translate(2,4)" class="S sf" d="M1652 1246 L1815 1083 L1815 1093 L1652 1256 Z"/><path class="f3" d="M1652 1246 L1815 1083 L1815 1093 L1652 1256 Z" /></g><g class="o"><path transform="translate(2,4)" class="S sfv" d="M1117 1368 L1501 984 L1501 998 L1117 1382 Z"/><path class="fv5" d="M1117 1368 L1501 984 L1501 998 L1117 1382 Z" /></g><g class="o"><path transform="translate(4,8)" class="S ssv" d="M1744 997 L1648 901 L1648 927 L1744 1023 Z"/><path class="sv7" d="M1744 997 L1648 901 L1648 927 L1744 1023 Z" /></g><g class="o"><path transform="translate(2,4)" class="S sfh" d="M1718 1261 L1803 1176 L1815 1176 L1730 1261 Z"/><path class="fh2" d="M1718 1261 L1803 1176 L1815 1176 L1730 1261 Z" /></g><g class="o"><path transform="translate(6,12)" class="S sfv" d="M1099 1282 L1240 1141 L1240 1173 L1099 1314 Z"/><path class="fv4" d="M1099 1282 L1240 1141 L1240 1173 L1099 1314 Z" /></g><g class="o"><path transform="translate(5,10)" class="S sfh" d="M1870 1435 L1962 1343 L1986 1343 L1894 1435 Z"/><path class="fh5" d="M1870 1435 L1962 1343 L1986 1343 L1894 1435 Z" /></g><g class="o"><path transform="translate(6,12)" class="S sfv" d="M1117 1575 L1314 1772 L1314 1782 L1117 1585 Z"/><path class="fv3" d="M1117 1575 L1314 1772 L1314 1782 L1117 1585 Z" /></g><g class="o"><path transform="translate(7,14)" class="S sfh" d="M1937 1834 L2414 1357 L2424 1357 L1947 1834 Z"/><path class="fh3" d="M1937 1834 L2414 1357 L2424 1357 L1947 1834 Z" /></g><g class="o"><path transform="translate(4,8)" class="S sf" d="M1316 1649 L848 2117 L862 2117 L1330 1649 Z"/><path class="f5" d="M1316 1649 L848 2117 L862 2117 L1330 1649 Z" /></g><g class="o"><path transform="translate(5,10)" class="S ssh" d="M1496 1651 L1261 1416 L1269 1416 L1504 1651 Z"/><path class="sh3" d="M1496 1651 L1261 1416 L1269 1416 L1504 1651 Z" /></g><g class="o"><path transform="translate(2,4)" class="S sfh" d="M1124 1606 L950 1780 L972 1780 L1146 1606 Z"/><path class="fh5" d="M1124 1606 L950 1780 L972 1780 L1146 1606 Z" /></g><g class="o"><path transform="translate(5,10)" class="S sfh" d="M1154 1512 L998 1356 L1012 1356 L1168 1512 Z"/><path class="fh4" d="M1154 1512 L998 1356 L1012 1356 L1168 1512 Z" /></g><g class="o"><path transform="translate(5,10)" class="S ss" d="M1535 1120 L1692 963 L1706 963 L1549 1120 Z"/><path class="s4" d="M1535 1120 L1692 963 L1706 963 L1549 1120 Z" /></g><g class="o"><path transform="translate(9,18)" class="S ssv" d="M1210 1127 L1804 1721 L1804 1759 L1210 1165 Z"/><path class="sv3" d="M1210 1127 L1804 1721 L1804 1759 L1210 1165 Z" /></g><g class="o"><path transform="translate(5,10)" class="S ssv" d="M1662 1136 L1611 1085 L1611 1119 L1662 1170 Z"/><path class="sv1" d="M1662 1136 L1611 1085 L1611 1119 L1662 1170 Z" /></g><g class="o"><path transform="translate(5,10)" class="S ssh" d="M1285 1403 L1480 1598 L1518 1598 L1323 1403 Z"/><path class="sh5" d="M1285 1403 L1480 1598 L1518 1598 L1323 1403 Z" /></g><g class="o"><path transform="translate(6,12)" class="S sfv" d="M1151 1812 L1296 1957 L1296 1983 L1151 1838 Z"/><path class="fv2" d="M1151 1812 L1296 1957 L1296 1983 L1151 1838 Z" /></g><g class="o"><path transform="translate(8,16)" class="S sfv" d="M1126 2023 L1585 1564 L1585 1586 L1126 2045 Z"/><path class="fv5" d="M1126 2023 L1585 1564 L1585 1586 L1126 2045 Z" /></g><g class="o"><path transform="translate(8,16)" class="S sfv" d="M1355 1150 L1988 517 L1988 661 L1355 1294 Z"/><path class="fv3" d="M1355 1150 L1988 517 L1988 661 L1355 1294 Z" /></g><g class="o"><path transform="translate(4,8)" class="S ssh" d="M1220 1411 L1124 1315 L1136 1315 L1232 1411 Z"/><path class="sh6" d="M1220 1411 L1124 1315 L1136 1315 L1232 1411 Z" /></g><g class="o"><path transform="translate(3,6)" class="S sf" d="M1418 1616 L1354 1552 L1354 1568 L1418 1632 Z"/><path class="f3" d="M1418 1616 L1354 1552 L1354 1568 L1418 1632 Z" /></g><g class="o"><path transform="translate(4,8)" class="S sfh" d="M1030 1958 L1087 1901 L1097 1901 L1040 1958 Z"/><path class="fh3" d="M1030 1958 L1087 1901 L1097 1901 L1040 1958 Z" /></g><g class="o"><path transform="translate(4,8)" class="S sfh" d="M1458 1195 L1295 1358 L1325 1358 L1488 1195 Z"/><path class="fh7" d="M1458 1195 L1295 1358 L1325 1358 L1488 1195 Z" /></g><g class="o"><path transform="translate(9,18)" class="S sf" d="M1207 1710 L1389 1528 L1413 1528 L1231 1710 Z"/><path class="f3" d="M1207 1710 L1389 1528 L1413 1528 L1231 1710 Z" /></g><g class="o"><path transform="translate(5,10)" class="S ssv" d="M1131 1614 L1039 1522 L1039 1554 L1131 1646 Z"/><path class="sv2" d="M1131 1614 L1039 1522 L1039 1554 L1131 1646 Z" /></g><g class="o"><path transform="translate(4,8)" class="S sfv" d="M1092 1311 L1322 1541 L1322 1565 L1092 1335 Z"/><path class="fv5" d="M1092 1311 L1322 1541 L1322 1565 L1092 1335 Z" /></g><g class="o"><path transform="translate(6,12)" class="S ss" d="M2005 1133 L2089 1217 L2089 1227 L2005 1143 Z"/><path class="s7" d="M2005 1133 L2089 1217 L2089 1227 L2005 1143 Z" /></g><g class="o"><path transform="translate(8,16)" class="S sfv" d="M1731 1393 L1128 790 L1128 808 L1731 1411 Z"/><path class="fv7" d="M1731 1393 L1128 790 L1128 808 L1731 1411 Z" /></g><g class="o"><path transform="translate(8,16)" class="S sfv" d="M1409 1761 L974 1326 L974 1358 L1409 1793 Z"/><path class="fv6" d="M1409 1761 L974 1326 L974 1358 L1409 1793 Z" /></g><g class="o"><path transform="translate(3,6)" class="S ssh" d="M1033 2032 L1264 2263 L1286 2263 L1055 2032 Z"/><path class="sh5" d="M1033 2032 L1264 2263 L1286 2263 L1055 2032 Z" /></g><g class="o"><path transform="translate(3,6)" class="S sfv" d="M2025 1784 L2165 1924 L2165 1958 L2025 1818 Z"/><path class="fv7" d="M2025 1784 L2165 1924 L2165 1958 L2025 1818 Z" /></g><g class="o"><path transform="translate(5,10)" class="S sfv" d="M1627 1412 L1509 1530 L1509 1562 L1627 1444 Z"/><path class="fv1" d="M1627 1412 L1509 1530 L1509 1562 L1627 1444 Z" /></g><g class="o"><path transform="translate(9,18)" class="S sfh" d="M1406 1120 L1494 1032 L1508 1032 L1420 1120 Z"/><path class="fh2" d="M1406 1120 L1494 1032 L1508 1032 L1420 1120 Z" /></g><g class="o"><path transform="translate(8,16)" class="S sf" d="M1201 1150 L1386 1335 L1406 1335 L1221 1150 Z"/><path class="f4" d="M1201 1150 L1386 1335 L1406 1335 L1221 1150 Z" /></g><g class="o"><path transform="translate(8,16)" class="S ssh" d="M1274 1461 L1032 1703 L1176 1703 L1418 1461 Z"/><path class="sh4" d="M1274 1461 L1032 1703 L1176 1703 L1418 1461 Z" /></g><g class="o"><path transform="translate(7,14)" class="S sfv" d="M1230 1039 L1372 897 L1372 929 L1230 1071 Z"/><path class="fv6" d="M1230 1039 L1372 897 L1372 929 L1230 1071 Z" /></g><g class="o"><path transform="translate(7,14)" class="S sfh" d="M1458 1715 L1272 1529 L1368 1529 L1554 1715 Z"/><path class="fh3" d="M1458 1715 L1272 1529 L1368 1529 L1554 1715 Z" /></g><g class="o"><path transform="translate(9,18)" class="S ss" d="M1835 1086 L1716 967 L1748 967 L1867 1086 Z"/><path class="s3" d="M1835 1086 L1716 967 L1748 967 L1867 1086 Z" /></g><g class="o"><path transform="translate(8,16)" class="S sfv" d="M1039 1465 L1093 1411 L1093 1447 L1039 1501 Z"/><path class="fv4" d="M1039 1465 L1093 1411 L1093 1447 L1039 1501 Z" /></g><g class="o"><path transform="translate(6,12)" class="S ssh" d="M963 1014 L911 1066 L939 1066 L991 1014 Z"/><path class="sh3" d="M963 1014 L911 1066 L939 1066 L991 1014 Z" /></g><g class="o"><path transform="translate(2,4)" class="S sfh" d="M1496 1741 L1607 1852 L1645 1852 L1534 1741 Z"/><path class="fh5" d="M1496 1741 L1607 1852 L1645 1852 L1534 1741 Z" /></g><g class="o"><path transform="translate(5,10)" class="S ssv" d="M1966 1950 L1816 2100 L1816 2128 L1966 1978 Z"/><path class="sv1" d="M1966 1950 L1816 2100 L1816 2128 L1966 1978 Z" /></g><g class="o"><path transform="translate(7,14)" class="S sfh" d="M1915 1138 L1706 929 L1810 929 L2019 1138 Z"/><path class="fh2" d="M1915 1138 L1706 929 L1810 929 L2019 1138 Z" /></g><g class="o"><path transform="translate(5,10)" class="S sf" d="M1923 1438 L1858 1503 L1896 1503 L1961 1438 Z"/><path class="f2" d="M1923 1438 L1858 1503 L1896 1503 L1961 1438 Z" /></g><g class="o"><path transform="translate(8,16)" class="S sfh" d="M1011 1863 L907 1967 L923 1967 L1027 1863 Z"/><path class="fh3" d="M1011 1863 L907 1967 L923 1967 L1027 1863 Z" /></g><g class="o"><path transform="translate(7,14)" class="S sfh" d="M1462 1151 L1267 1346 L1419 1346 L1614 1151 Z"/><path class="fh6" d="M1462 1151 L1267 1346 L1419 1346 L1614 1151 Z" /></g><g class="o"><path transform="translate(3,6)" class="S ssh" d="M1459 1284 L1645 1470 L1667 1470 L1481 1284 Z"/><path class="sh6" d="M1459 1284 L1645 1470 L1667 1470 L1481 1284 Z" /></g><g class="o"><path transform="translate(2,4)" class="S sfv" d="M967 1490 L1327 1130 L1327 1154 L967 1514 Z"/><path class="fv6" d="M967 1490 L1327 1130 L1327 1154 L967 1514 Z" /></g><g class="o"><path transform="translate(8,16)" class="S sfv" d="M1422 1508 L1242 1688 L1242 1724 L1422 1544 Z"/><path class="fv7" d="M1422 1508 L1242 1688 L1242 1724 L1422 1544 Z" /></g><g class="o"><path transform="translate(8,16)" class="S sfv" d="M1360 1646 L1588 1874 L1588 1902 L1360 1674 Z"/><path class="fv6" d="M1360 1646 L1588 1874 L1588 1902 L1360 1674 Z" /></g><g class="o"><path transform="translate(3,6)" class="S sfh" d="M1360 2004 L1157 1801 L1191 1801 L1394 2004 Z"/><path class="fh7" d="M1360 2004 L1157 1801 L1191 1801 L1394 2004 Z" /></g><g class="o"><path transform="translate(9,18)" class="S sfh" d="M1461 1524 L1324 1661 L1460 1661 L1597 1524 Z"/><path class="fh5" d="M1461 1524 L1324 1661 L1460 1661 L1597 1524 Z" /></g><g class="o"><path transform="translate(7,14)" class="S sfh" d="M1888 1308 L1981 1215 L1995 1215 L1902 1308 Z"/><path class="fh4" d="M1888 1308 L1981 1215 L1995 1215 L1902 1308 Z" /></g><g class="o"><path transform="translate(8,16)" class="S ssv" d="M2004 1704 L2097 1797 L2097 1805 L2004 1712 Z"/><path class="sv3" d="M2004 1704 L2097 1797 L2097 1805 L2004 1712 Z" /></g><g class="o"><path transform="translate(3,6)" class="S sfv" d="M1965 1776 L2184 1557 L2184 1583 L1965 1802 Z"/><path class="fv3" d="M1965 1776 L2184 1557 L2184 1583 L1965 1802 Z" /></g><g class="o"><path transform="translate(8,16)" class="S sfh" d="M2014 1584 L2241 1811 L2269 1811 L2042 1584 Z"/><path class="fh3" d="M2014 1584 L2241 1811 L2269 1811 L2042 1584 Z" /></g><g class="o"><path transform="translate(2,4)" class="S sfh" d="M2028 1559 L2216 1371 L2234 1371 L2046 1559 Z"/><path class="fh6" d="M2028 1559 L2216 1371 L2234 1371 L2046 1559 Z" /></g><g class="o"><path transform="translate(3,6)" class="S sfh" d="M1310 1977 L1101 1768 L1121 1768 L1330 1977 Z"/><path class="fh3" d="M1310 1977 L1101 1768 L1121 1768 L1330 1977 Z" /></g><g class="o"><path transform="translate(3,6)" class="S sfh" d="M1489 1111 L1697 903 L1723 903 L1515 1111 Z"/><path class="fh7" d="M1489 1111 L1697 903 L1723 903 L1515 1111 Z" /></g><g class="o"><path transform="translate(7,14)" class="S sfh" d="M2012 1046 L1897 1161 L1905 1161 L2020 1046 Z"/><path class="fh1" d="M2012 1046 L1897 1161 L1905 1161 L2020 1046 Z" /></g><g class="o"><path transform="translate(7,14)" class="S sf" d="M1024 1185 L1504 705 L1524 705 L1044 1185 Z"/><path class="f6" d="M1024 1185 L1504 705 L1524 705 L1044 1185 Z" /></g><g class="o"><path transform="translate(7,14)" class="S sf" d="M1843 1635 L2023 1815 L2059 1815 L1879 1635 Z"/><path class="f4" d="M1843 1635 L2023 1815 L2059 1815 L1879 1635 Z" /></g><g class="o"><path transform="translate(8,16)" class="S sf" d="M1490 1585 L1406 1669 L1406 1687 L1490 1603 Z"/><path class="f5" d="M1490 1585 L1406 1669 L1406 1687 L1490 1603 Z" /></g><g class="o"><path transform="translate(3,6)" class="S sfv" d="M1913 1578 L1809 1682 L1809 1692 L1913 1588 Z"/><path class="fv3" d="M1913 1578 L1809 1682 L1809 1692 L1913 1588 Z" /></g><g class="o"><path transform="translate(6,12)" class="S ssh" d="M1518 1755 L1634 1639 L1668 1639 L1552 1755 Z"/><path class="sh7" d="M1518 1755 L1634 1639 L1668 1639 L1552 1755 Z" /></g><g class="o"><path transform="translate(3,6)" class="S sfh" d="M1934 1822 L1998 1758 L2026 1758 L1962 1822 Z"/><path class="fh4" d="M1934 1822 L1998 1758 L2026 1758 L1962 1822 Z" /></g><g class="o"><path transform="translate(5,10)" class="S sfv" d="M1837 1958 L1624 1745 L1624 1773 L1837 1986 Z"/><path class="fv4" d="M1837 1958 L1624 1745 L1624 1773 L1837 1986 Z" /></g><g class="o"><path transform="translate(8,16)" class="S ss" d="M1584 1635 L1787 1432 L1787 1460 L1584 1663 Z"/><path class="s6" d="M1584 1635 L1787 1432 L1787 1460 L1584 1663 Z" /></g><g class="o"><path transform="translate(9,18)" class="S sfv" d="M1420 1693 L1542 1571 L1542 1591 L1420 1713 Z"/><path class="fv5" d="M1420 1693 L1542 1571 L1542 1591 L1420 1713 Z" /></g><g class="o"><path transform="translate(2,4)" class="S sfh" d="M1805 1319 L1716 1230 L1732 1230 L1821 1319 Z"/><path class="fh4" d="M1805 1319 L1716 1230 L1732 1230 L1821 1319 Z" /></g><g class="o"><path transform="translate(6,12)" class="S sfv" d="M1389 1466 L1288 1365 L1288 1375 L1389 1476 Z"/><path class="fv4" d="M1389 1466 L1288 1365 L1288 1375 L1389 1476 Z" /></g><g class="o"><path transform="translate(5,10)" class="S sfv" d="M1488 989 L1281 782 L1281 804 L1488 1011 Z"/><path class="fv1" d="M1488 989 L1281 782 L1281 804 L1488 1011 Z" /></g><g class="o"><path transform="translate(7,14)" class="S sfv" d="M1310 1824 L1194 1708 L1194 1730 L1310 1846 Z"/><path class="fv5" d="M1310 1824 L1194 1708 L1194 1730 L1310 1846 Z" /></g><g class="o"><path transform="translate(5,10)" class="S sfv" d="M981 1267 L1103 1389 L1103 1401 L981 1279 Z"/><path class="fv1" d="M981 1267 L1103 1389 L1103 1401 L981 1279 Z" /></g><g class="o"><path transform="translate(3,6)" class="S sfv" d="M962 1630 L840 1508 L840 1538 L962 1660 Z"/><path class="fv7" d="M962 1630 L840 1508 L840 1538 L962 1660 Z" /></g><g class="o"><path transform="translate(4,8)" class="S sfh" d="M1822 1498 L1901 1577 L1921 1577 L1842 1498 Z"/><path class="fh6" d="M1822 1498 L1901 1577 L1921 1577 L1842 1498 Z" /></g><g class="o"><path transform="translate(6,12)" class="S sfv" d="M1170 1620 L1322 1772 L1322 1798 L1170 1646 Z"/><path class="fv5" d="M1170 1620 L1322 1772 L1322 1798 L1170 1646 Z" /></g><g class="o"><path transform="translate(5,10)" class="S sfh" d="M1942 1117 L2166 893 L2180 893 L1956 1117 Z"/><path class="fh3" d="M1942 1117 L2166 893 L2180 893 L1956 1117 Z" /></g><g class="o"><path transform="translate(4,8)" class="S sfh" d="M1118 1627 L1304 1813 L1334 1813 L1148 1627 Z"/><path class="fh2" d="M1118 1627 L1304 1813 L1334 1813 L1148 1627 Z" /></g><g class="o"><path transform="translate(8,16)" class="S sf" d="M1205 1017 L1685 1497 L1685 1531 L1205 1051 Z"/><path class="f2" d="M1205 1017 L1685 1497 L1685 1531 L1205 1051 Z" /></g><g class="o"><path transform="translate(3,6)" class="S ss" d="M1209 1892 L1440 1661 L1460 1661 L1229 1892 Z"/><path class="s7" d="M1209 1892 L1440 1661 L1460 1661 L1229 1892 Z" /></g><g class="o"><path transform="translate(8,16)" class="S sfv" d="M1660 1937 L1366 1643 L1366 1653 L1660 1947 Z"/><path class="fv4" d="M1660 1937 L1366 1643 L1366 1653 L1660 1947 Z" /></g><g class="o"><path transform="translate(6,12)" class="S sfh" d="M971 1860 L1292 2181 L1316 2181 L995 1860 Z"/><path class="fh5" d="M971 1860 L1292 2181 L1316 2181 L995 1860 Z" /></g><g class="o"><path transform="translate(9,18)" class="S ssh" d="M1577 1284 L1094 801 L1122 801 L1605 1284 Z"/><path class="sh7" d="M1577 1284 L1094 801 L1122 801 L1605 1284 Z" /></g><g class="o"><path transform="translate(5,10)" class="S sf" d="M1286 1854 L1464 1676 L1464 1788 L1286 1966 Z"/><path class="f2" d="M1286 1854 L1464 1676 L1464 1788 L1286 1966 Z" /></g><g class="o"><path transform="translate(4,8)" class="S sf" d="M1436 1451 L1659 1674 L1659 1754 L1436 1531 Z"/><path class="f7" d="M1436 1451 L1659 1674 L1659 1754 L1436 1531 Z" /></g><g class="o"><path transform="translate(5,10)" class="S sf" d="M1833 1403 L1630 1200 L1638 1200 L1841 1403 Z"/><path class="f5" d="M1833 1403 L1630 1200 L1638 1200 L1841 1403 Z" /></g><g class="o"><path transform="translate(5,10)" class="S sfh" d="M1641 1352 L1835 1546 L1871 1546 L1677 1352 Z"/><path class="fh2" d="M1641 1352 L1835 1546 L1871 1546 L1677 1352 Z" /></g></g><use href="#slashes" transform-origin="1500 1500" transform="rotate(180) scale(2)"/></g><rect x="1080" y="1080" width="840" height="840" stroke-width="20" class="o s6" /><use href="#slashes" transform-origin="1500 1500" transform="scale(.7)"/><use href="#slashes" transform-origin="1500 1500" transform="rotate(180) scale(.3)"/></svg>