<svg xmlns="http://www.w3.org/2000/svg" viewBox="750 750 1500 1500"><style>/*<![CDATA[*/svg{background:rgb(34,34,34);max-width:100vw;max-height:100vh}path{stroke-width:4}.o{opacity:.75}.S{opacity:.4}.sf{stroke:none;fill:black}.sfh{stroke:none;fill:url(#hs)}.sfv{stroke:none;fill:url(#vs)}.ss{stroke:black;fill:none}.ssh{stroke:url(#hs);fill:none}.ssv{stroke:url(#vs);fill:none}.s1{fill:none;stroke:rgb(79,93,117)}.f1{stroke:none;fill:rgb(79,93,117)}.sh1{fill:none;stroke:url(#h1)}.fh1{stroke:none;fill:url(#h1)}.sv1{fill:none;stroke:url(#v1)}.fv1{stroke:none;fill:url(#v1)}.s2{fill:none;stroke:rgb(191,192,192)}.f2{stroke:none;fill:rgb(191,192,192)}.sh2{fill:none;stroke:url(#h2)}.fh2{stroke:none;fill:url(#h2)}.sv2{fill:none;stroke:url(#v2)}.fv2{stroke:none;fill:url(#v2)}.s3{fill:none;stroke:rgb(45,49,66)}.f3{stroke:none;fill:rgb(45,49,66)}.sh3{fill:none;stroke:url(#h3)}.fh3{stroke:none;fill:url(#h3)}.sv3{fill:none;stroke:url(#v3)}.fv3{stroke:none;fill:url(#v3)}.s4{fill:none;stroke:rgb(41,42,115)}.f4{stroke:none;fill:rgb(41,42,115)}.sh4{fill:none;stroke:url(#h4)}.fh4{stroke:none;fill:url(#h4)}.sv4{fill:none;stroke:url(#v4)}.fv4{stroke:none;fill:url(#v4)}.s5{fill:none;stroke:rgb(255,255,255)}.f5{stroke:none;fill:rgb(255,255,255)}.sh5{fill:none;stroke:url(#h5)}.fh5{stroke:none;fill:url(#h5)}.sv5{fill:none;stroke:url(#v5)}.fv5{stroke:none;fill:url(#v5)}.s6{fill:none;stroke:rgb(255,255,255)}.f6{stroke:none;fill:rgb(255,255,255)}.sh6{fill:none;stroke:url(#h6)}.fh6{stroke:none;fill:url(#h6)}.sv6{fill:none;stroke:url(#v6)}.fv6{stroke:none;fill:url(#v6)}.s7{fill:none;stroke:rgb(255,0,0)}.f7{stroke:none;fill:rgb(255,0,0)}.sh7{fill:none;stroke:url(#h7)}.fh7{stroke:none;fill:url(#h7)}.sv7{fill:none;stroke:url(#v7)}.fv7{stroke:none;fill:url(#v7)}/*]]>*/</style><defs><linearGradient gradientTransform="rotate(90)" id="hs"><stop offset="20%" stop-color="#000" /><stop offset="95%" stop-color="rgba(0, 0, 0, 0)" /></linearGradient><linearGradient id="vs"><stop offset="20%" stop-color="#000" /><stop offset="95%" stop-color="rgba(0, 0, 0, 0)" /></linearGradient><linearGradient gradientTransform="rotate(90)" id="h1"><stop offset="20%" stop-color="rgba(79,93,117,1)" /><stop offset="95%" stop-color="rgba(79,93,117,0)" /></linearGradient><linearGradient id="v1"><stop offset="20%" stop-color="rgba(79,93,117,1)" /><stop offset="95%" stop-color="rgba(79,93,117,0)" /></linearGradient><linearGradient gradientTransform="rotate(90)" id="h2"><stop offset="20%" stop-color="rgba(191,192,192,1)" /><stop offset="95%" stop-color="rgba(191,192,192,0)" /></linearGradient><linearGradient id="v2"><stop offset="20%" stop-color="rgba(191,192,192,1)" /><stop offset="95%" stop-color="rgba(191,192,192,0)" /></linearGradient><linearGradient gradientTransform="rotate(90)" id="h3"><stop offset="20%" stop-color="rgba(45,49,66,1)" /><stop offset="95%" stop-color="rgba(45,49,66,0)" /></linearGradient><linearGradient id="v3"><stop offset="20%" stop-color="rgba(45,49,66,1)" /><stop offset="95%" stop-color="rgba(45,49,66,0)" /></linearGradient><linearGradient gradientTransform="rotate(90)" id="h4"><stop offset="20%" stop-color="rgba(41,42,115,1)" /><stop offset="95%" stop-color="rgba(41,42,115,0)" /></linearGradient><linearGradient id="v4"><stop offset="20%" stop-color="rgba(41,42,115,1)" /><stop offset="95%" stop-color="rgba(41,42,115,0)" /></linearGradient><linearGradient gradientTransform="rotate(90)" id="h5"><stop offset="20%" stop-color="rgba(255,255,255,1)" /><stop offset="95%" stop-color="rgba(255,255,255,0)" /></linearGradient><linearGradient id="v5"><stop offset="20%" stop-color="rgba(255,255,255,1)" /><stop offset="95%" stop-color="rgba(255,255,255,0)" /></linearGradient><linearGradient gradientTransform="rotate(90)" id="h6"><stop offset="20%" stop-color="rgba(255,255,255,1)" /><stop offset="95%" stop-color="rgba(255,255,255,0)" /></linearGradient><linearGradient id="v6"><stop offset="20%" stop-color="rgba(255,255,255,1)" /><stop offset="95%" stop-color="rgba(255,255,255,0)" /></linearGradient><linearGradient gradientTransform="rotate(90)" id="h7"><stop offset="20%" stop-color="rgba(255,0,0,1)" /><stop offset="95%" stop-color="rgba(255,0,0,0)" /></linearGradient><linearGradient id="v7"><stop offset="20%" stop-color="rgba(255,0,0,1)" /><stop offset="95%" stop-color="rgba(255,0,0,0)" /></linearGradient></defs><g transform-origin="1500 1500" transform="scale(2)" opacity=".6"><g id="slashes"><g class="o"><path transform="translate(9,18)" class="S sf" d="M1429 1391 L1777 1739 L1777 1771 L1429 1423 Z"/><path class="f6" d="M1429 1391 L1777 1739 L1777 1771 L1429 1423 Z" /></g><g class="o"><path transform="translate(5,10)" class="S ss" d="M1566 1096 L1681 1211 L1681 1219 L1566 1104 Z"/><path class="s3" d="M1566 1096 L1681 1211 L1681 1219 L1566 1104 Z" /></g><g class="o"><path transform="translate(6,12)" class="S sf" d="M1245 1679 L1488 1922 L1522 1922 L1279 1679 Z"/><path class="f4" d="M1245 1679 L1488 1922 L1522 1922 L1279 1679 Z" /></g><g class="o"><path transform="translate(8,16)" class="S sf" d="M1814 1561 L2261 2008 L2261 2040 L1814 1593 Z"/><path class="f7" d="M1814 1561 L2261 2008 L2261 2040 L1814 1593 Z" /></g><g class="o"><path transform="translate(2,4)" class="S ss" d="M1194 1953 L1430 1717 L1430 1735 L1194 1971 Z"/><path class="s2" d="M1194 1953 L1430 1717 L1430 1735 L1194 1971 Z" /></g><g class="o"><path transform="translate(8,16)" class="S sf" d="M1198 1669 L1798 1069 L1798 1087 L1198 1687 Z"/><path class="f3" d="M1198 1669 L1798 1069 L1798 1087 L1198 1687 Z" /></g><g class="o"><path transform="translate(6,12)" class="S ss" d="M1136 1681 L1255 1800 L1281 1800 L1162 1681 Z"/><path class="s1" d="M1136 1681 L1255 1800 L1281 1800 L1162 1681 Z" /></g><g class="o"><path transform="translate(8,16)" class="S sf" d="M1923 1359 L2502 1938 L2510 1938 L1931 1359 Z"/><path class="f3" d="M1923 1359 L2502 1938 L2510 1938 L1931 1359 Z" /></g><g class="o"><path transform="translate(8,16)" class="S sf" d="M1397 1171 L1590 1364 L1616 1364 L1423 1171 Z"/><path class="f4" d="M1397 1171 L1590 1364 L1616 1364 L1423 1171 Z" /></g><g class="o"><path transform="translate(9,18)" class="S sf" d="M1475 1230 L1586 1119 L1714 1119 L1603 1230 Z"/><path class="f4" d="M1475 1230 L1586 1119 L1714 1119 L1603 1230 Z" /></g><g class="o"><path transform="translate(7,14)" class="S sf" d="M1916 2035 L1998 2117 L2024 2117 L1942 2035 Z"/><path class="f6" d="M1916 2035 L1998 2117 L2024 2117 L1942 2035 Z" /></g><g class="o"><path transform="translate(2,4)" class="S ss" d="M2026 1990 L2470 1546 L2484 1546 L2040 1990 Z"/><path class="s3" d="M2026 1990 L2470 1546 L2484 1546 L2040 1990 Z" /></g><g class="o"><path transform="translate(3,6)" class="S sf" d="M1068 1550 L1166 1452 L1166 1556 L1068 1654 Z"/><path class="f1" d="M1068 1550 L1166 1452 L1166 1556 L1068 1654 Z" /></g><g class="o"><path transform="translate(9,18)" class="S sf" d="M1864 1535 L2266 1133 L2280 1133 L1878 1535 Z"/><path class="f2" d="M1864 1535 L2266 1133 L2280 1133 L1878 1535 Z" /></g><g class="o"><path transform="translate(8,16)" class="S ss" d="M1423 1919 L1641 2137 L1657 2137 L1439 1919 Z"/><path class="s2" d="M1423 1919 L1641 2137 L1657 2137 L1439 1919 Z" /></g><g class="o"><path transform="translate(9,18)" class="S ss" d="M1752 1276 L2499 529 L2499 541 L1752 1288 Z"/><path class="s6" d="M1752 1276 L2499 529 L2499 541 L1752 1288 Z" /></g><g class="o"><path transform="translate(8,16)" class="S sf" d="M1481 1656 L1653 1484 L1679 1484 L1507 1656 Z"/><path class="f5" d="M1481 1656 L1653 1484 L1679 1484 L1507 1656 Z" /></g><g class="o"><path transform="translate(4,8)" class="S sf" d="M1168 1483 L1349 1664 L1349 1694 L1168 1513 Z"/><path class="f6" d="M1168 1483 L1349 1664 L1349 1694 L1168 1513 Z" /></g><g class="o"><path transform="translate(4,8)" class="S sf" d="M1776 1200 L1939 1037 L1975 1037 L1812 1200 Z"/><path class="f2" d="M1776 1200 L1939 1037 L1975 1037 L1812 1200 Z" /></g><g class="o"><path transform="translate(6,12)" class="S sf" d="M1166 1071 L1349 1254 L1349 1290 L1166 1107 Z"/><path class="f4" d="M1166 1071 L1349 1254 L1349 1290 L1166 1107 Z" /></g><g class="o"><path transform="translate(9,18)" class="S sf" d="M1598 1659 L1783 1844 L1807 1844 L1622 1659 Z"/><path class="f2" d="M1598 1659 L1783 1844 L1807 1844 L1622 1659 Z" /></g><g class="o"><path transform="translate(7,14)" class="S sf" d="M986 1747 L1185 1548 L1213 1548 L1014 1747 Z"/><path class="f4" d="M986 1747 L1185 1548 L1213 1548 L1014 1747 Z" /></g><g class="o"><path transform="translate(3,6)" class="S sf" d="M1295 1994 L1461 1828 L1461 1844 L1295 2010 Z"/><path class="f1" d="M1295 1994 L1461 1828 L1461 1844 L1295 2010 Z" /></g><g class="o"><path transform="translate(2,4)" class="S sf" d="M2029 1078 L2270 1319 L2270 1337 L2029 1096 Z"/><path class="f4" d="M2029 1078 L2270 1319 L2270 1337 L2029 1096 Z" /></g><g class="o"><path transform="translate(7,14)" class="S sf" d="M1577 1053 L1806 824 L1816 824 L1587 1053 Z"/><path class="f4" d="M1577 1053 L1806 824 L1816 824 L1587 1053 Z" /></g><g class="o"><path transform="translate(9,18)" class="S sf" d="M2029 1057 L2111 975 L2111 999 L2029 1081 Z"/><path class="f7" d="M2029 1057 L2111 975 L2111 999 L2029 1081 Z" /></g><g class="o"><path transform="translate(7,14)" class="S sf" d="M1823 1108 L1985 1270 L2011 1270 L1849 1108 Z"/><path class="f6" d="M1823 1108 L1985 1270 L2011 1270 L1849 1108 Z" /></g><g class="o"><path transform="translate(7,14)" class="S sf" d="M1085 1766 L1252 1933 L1252 1943 L1085 1776 Z"/><path class="f6" d="M1085 1766 L1252 1933 L1252 1943 L1085 1776 Z" /></g><g class="o"><path transform="translate(2,4)" class="S ss" d="M1940 1627 L2156 1843 L2156 1875 L1940 1659 Z"/><path class="s6" d="M1940 1627 L2156 1843 L2156 1875 L1940 1659 Z" /></g><g class="o"><path transform="translate(2,4)" class="S ss" d="M1408 1692 L1648 1932 L1676 1932 L1436 1692 Z"/><path class="s4" d="M1408 1692 L1648 1932 L1676 1932 L1436 1692 Z" /></g><g class="o"><path transform="translate(8,16)" class="S sf" d="M1894 1525 L1955 1464 L1955 1498 L1894 1559 Z"/><path class="f6" d="M1894 1525 L1955 1464 L1955 1498 L1894 1559 Z" /></g><g class="o"><path transform="translate(8,16)" class="S sf" d="M1468 1917 L1640 2089 L1654 2089 L1482 1917 Z"/><path class="f1" d="M1468 1917 L1640 2089 L1654 2089 L1482 1917 Z" /></g><g class="o"><path transform="translate(2,4)" class="S sf" d="M1992 1732 L2238 1978 L2238 1986 L1992 1740 Z"/><path class="f7" d="M1992 1732 L2238 1978 L2238 1986 L1992 1740 Z" /></g><g class="o"><path transform="translate(2,4)" class="S ss" d="M1970 1390 L2110 1530 L2110 1548 L1970 1408 Z"/><path class="s3" d="M1970 1390 L2110 1530 L2110 1548 L1970 1408 Z" /></g><g class="o"><path transform="translate(7,14)" class="S sf" d="M1286 2019 L1416 2149 L1416 2171 L1286 2041 Z"/><path class="f1" d="M1286 2019 L1416 2149 L1416 2171 L1286 2041 Z" /></g><g class="o"><path transform="translate(9,18)" class="S sf" d="M1006 1894 L1136 2024 L1154 2024 L1024 1894 Z"/><path class="f3" d="M1006 1894 L1136 2024 L1154 2024 L1024 1894 Z" /></g><g class="o"><path transform="translate(9,18)" class="S sf" d="M1166 1461 L1283 1578 L1317 1578 L1200 1461 Z"/><path class="f6" d="M1166 1461 L1283 1578 L1317 1578 L1200 1461 Z" /></g><g class="o"><path transform="translate(7,14)" class="S ss" d="M1601 1795 L2348 2542 L2348 2564 L1601 1817 Z"/><path class="s5" d="M1601 1795 L2348 2542 L2348 2564 L1601 1817 Z" /></g><g class="o"><path transform="translate(6,12)" class="S sf" d="M2019 1634 L2643 2258 L2651 2258 L2027 1634 Z"/><path class="f1" d="M2019 1634 L2643 2258 L2651 2258 L2027 1634 Z" /></g><g class="o"><path transform="translate(3,6)" class="S sf" d="M1208 1236 L1351 1379 L1351 1409 L1208 1266 Z"/><path class="f4" d="M1208 1236 L1351 1379 L1351 1409 L1208 1266 Z" /></g><g class="o"><path transform="translate(5,10)" class="S sf" d="M1236 1242 L1447 1031 L1467 1031 L1256 1242 Z"/><path class="f1" d="M1236 1242 L1447 1031 L1467 1031 L1256 1242 Z" /></g><g class="o"><path transform="translate(6,12)" class="S sf" d="M1474 1272 L1711 1509 L1747 1509 L1510 1272 Z"/><path class="f7" d="M1474 1272 L1711 1509 L1747 1509 L1510 1272 Z" /></g><g class="o"><path transform="translate(2,4)" class="S sf" d="M1004 1706 L1185 1887 L1185 1923 L1004 1742 Z"/><path class="f1" d="M1004 1706 L1185 1887 L1185 1923 L1004 1742 Z" /></g><g class="o"><path transform="translate(7,14)" class="S sf" d="M1732 1380 L2215 1863 L2231 1863 L1748 1380 Z"/><path class="f2" d="M1732 1380 L2215 1863 L2231 1863 L1748 1380 Z" /></g><g class="o"><path transform="translate(7,14)" class="S sf" d="M1914 1923 L2151 1686 L2175 1686 L1938 1923 Z"/><path class="f5" d="M1914 1923 L2151 1686 L2175 1686 L1938 1923 Z" /></g><g class="o"><path transform="translate(7,14)" class="S sf" d="M1192 1920 L1298 1814 L1298 1848 L1192 1954 Z"/><path class="f7" d="M1192 1920 L1298 1814 L1298 1848 L1192 1954 Z" /></g><g class="o"><path transform="translate(5,10)" class="S sf" d="M1211 1847 L1274 1784 L1290 1784 L1227 1847 Z"/><path class="f2" d="M1211 1847 L1274 1784 L1290 1784 L1227 1847 Z" /></g><g class="o"><path transform="translate(4,8)" class="S sf" d="M1330 1886 L1428 1984 L1428 2002 L1330 1904 Z"/><path class="f2" d="M1330 1886 L1428 1984 L1428 2002 L1330 1904 Z" /></g><g class="o"><path transform="translate(4,8)" class="S ss" d="M1646 948 L2111 1413 L2111 1421 L1646 956 Z"/><path class="s2" d="M1646 948 L2111 1413 L2111 1421 L1646 956 Z" /></g><g class="o"><path transform="translate(7,14)" class="S sf" d="M1219 1163 L1301 1081 L1301 1099 L1219 1181 Z"/><path class="f4" d="M1219 1163 L1301 1081 L1301 1099 L1219 1181 Z" /></g><g class="o"><path transform="translate(6,12)" class="S ss" d="M1958 1475 L2081 1598 L2105 1598 L1982 1475 Z"/><path class="s6" d="M1958 1475 L2081 1598 L2105 1598 L1982 1475 Z" /></g><g class="o"><path transform="translate(6,12)" class="S sf" d="M1172 1733 L1328 1577 L1328 1597 L1172 1753 Z"/><path class="f4" d="M1172 1733 L1328 1577 L1328 1597 L1172 1753 Z" /></g><g class="o"><path transform="translate(5,10)" class="S ss" d="M1864 1484 L2494 2114 L2494 2138 L1864 1508 Z"/><path class="s4" d="M1864 1484 L2494 2114 L2494 2138 L1864 1508 Z" /></g><g class="o"><path transform="translate(8,16)" class="S sf" d="M1347 1320 L1561 1534 L1569 1534 L1355 1320 Z"/><path class="f6" d="M1347 1320 L1561 1534 L1569 1534 L1355 1320 Z" /></g><g class="o"><path transform="translate(3,6)" class="S sf" d="M1247 1824 L1335 1912 L1335 1928 L1247 1840 Z"/><path class="f7" d="M1247 1824 L1335 1912 L1335 1928 L1247 1840 Z" /></g><g class="o"><path transform="translate(7,14)" class="S sf" d="M1314 2006 L1389 2081 L1389 2103 L1314 2028 Z"/><path class="f3" d="M1314 2006 L1389 2081 L1389 2103 L1314 2028 Z" /></g><g class="o"><path transform="translate(7,14)" class="S sf" d="M1450 1446 L1598 1298 L1598 1332 L1450 1480 Z"/><path class="f2" d="M1450 1446 L1598 1298 L1598 1332 L1450 1480 Z" /></g><g class="o"><path transform="translate(3,6)" class="S sf" d="M1797 1894 L1887 1984 L1909 1984 L1819 1894 Z"/><path class="f1" d="M1797 1894 L1887 1984 L1909 1984 L1819 1894 Z" /></g><g class="o"><path transform="translate(3,6)" class="S sf" d="M1009 1209 L1080 1280 L1096 1280 L1025 1209 Z"/><path class="f7" d="M1009 1209 L1080 1280 L1096 1280 L1025 1209 Z" /></g><g class="o"><path transform="translate(7,14)" class="S sf" d="M1724 1843 L1852 1715 L1866 1715 L1738 1843 Z"/><path class="f1" d="M1724 1843 L1852 1715 L1866 1715 L1738 1843 Z" /></g><g class="o"><path transform="translate(7,14)" class="S sf" d="M1343 1433 L1458 1548 L1470 1548 L1355 1433 Z"/><path class="f3" d="M1343 1433 L1458 1548 L1470 1548 L1355 1433 Z" /></g><g class="o"><path transform="translate(2,4)" class="S sf" d="M1840 1923 L2575 2658 L2575 2690 L1840 1955 Z"/><path class="f5" d="M1840 1923 L2575 2658 L2575 2690 L1840 1955 Z" /></g><g class="o"><path transform="translate(5,10)" class="S sf" d="M1833 1263 L1969 1399 L1989 1399 L1853 1263 Z"/><path class="f1" d="M1833 1263 L1969 1399 L1989 1399 L1853 1263 Z" /></g><g class="o"><path transform="translate(9,18)" class="S ss" d="M1963 1468 L2016 1415 L2050 1415 L1997 1468 Z"/><path class="s6" d="M1963 1468 L2016 1415 L2050 1415 L1997 1468 Z" /></g><g class="o"><path transform="translate(9,18)" class="S ss" d="M1539 1482 L1677 1620 L1711 1620 L1573 1482 Z"/><path class="s1" d="M1539 1482 L1677 1620 L1711 1620 L1573 1482 Z" /></g><g class="o"><path transform="translate(3,6)" class="S sf" d="M2027 1551 L2207 1731 L2207 1747 L2027 1567 Z"/><path class="f5" d="M2027 1551 L2207 1731 L2207 1747 L2027 1567 Z" /></g><g class="o"><path transform="translate(8,16)" class="S sf" d="M1465 1818 L2083 2436 L2083 2500 L1465 1882 Z"/><path class="f6" d="M1465 1818 L2083 2436 L2083 2500 L1465 1882 Z" /></g><g class="o"><path transform="translate(4,8)" class="S ss" d="M1026 1622 L1236 1412 L1270 1412 L1060 1622 Z"/><path class="s3" d="M1026 1622 L1236 1412 L1270 1412 L1060 1622 Z" /></g><g class="o"><path transform="translate(5,10)" class="S sf" d="M1094 1123 L1330 1359 L1366 1359 L1130 1123 Z"/><path class="f5" d="M1094 1123 L1330 1359 L1366 1359 L1130 1123 Z" /></g><g class="o"><path transform="translate(8,16)" class="S sf" d="M1632 1995 L1776 1851 L1904 1851 L1760 1995 Z"/><path class="f5" d="M1632 1995 L1776 1851 L1904 1851 L1760 1995 Z" /></g><g class="o"><path transform="translate(6,12)" class="S ss" d="M1427 1770 L2102 2445 L2214 2445 L1539 1770 Z"/><path class="s2" d="M1427 1770 L2102 2445 L2214 2445 L1539 1770 Z" /></g><g class="o"><path transform="translate(4,8)" class="S ss" d="M2018 1339 L2132 1225 L2168 1225 L2054 1339 Z"/><path class="s6" d="M2018 1339 L2132 1225 L2168 1225 L2054 1339 Z" /></g><g class="o"><path transform="translate(2,4)" class="S sf" d="M1522 1950 L1744 2172 L1768 2172 L1546 1950 Z"/><path class="f2" d="M1522 1950 L1744 2172 L1768 2172 L1546 1950 Z" /></g><g class="o"><path transform="translate(7,14)" class="S sf" d="M1548 1042 L2139 1633 L2175 1633 L1584 1042 Z"/><path class="f6" d="M1548 1042 L2139 1633 L2175 1633 L1584 1042 Z" /></g><g class="o"><path transform="translate(2,4)" class="S ss" d="M1162 1103 L1240 1025 L1262 1025 L1184 1103 Z"/><path class="s5" d="M1162 1103 L1240 1025 L1262 1025 L1184 1103 Z" /></g><g class="o"><path transform="translate(6,12)" class="S sf" d="M1778 1970 L2054 1694 L2074 1694 L1798 1970 Z"/><path class="f2" d="M1778 1970 L2054 1694 L2074 1694 L1798 1970 Z" /></g><g class="o"><path transform="translate(3,6)" class="S ss" d="M1525 1229 L2254 500 L2254 548 L1525 1277 Z"/><path class="s3" d="M1525 1229 L2254 500 L2254 548 L1525 1277 Z" /></g><g class="o"><path transform="translate(7,14)" class="S sf" d="M1801 975 L2041 735 L2061 735 L1821 975 Z"/><path class="f2" d="M1801 975 L2041 735 L2061 735 L1821 975 Z" /></g><g class="o"><path transform="translate(5,10)" class="S sf" d="M1895 1088 L1959 1024 L1959 1042 L1895 1106 Z"/><path class="f6" d="M1895 1088 L1959 1024 L1959 1042 L1895 1106 Z" /></g><g class="o"><path transform="translate(9,18)" class="S sf" d="M1830 1036 L1912 954 L1912 970 L1830 1052 Z"/><path class="f3" d="M1830 1036 L1912 954 L1912 970 L1830 1052 Z" /></g><g class="o"><path transform="translate(4,8)" class="S sf" d="M1511 1738 L1564 1685 L1564 1715 L1511 1768 Z"/><path class="f4" d="M1511 1738 L1564 1685 L1564 1715 L1511 1768 Z" /></g><g class="o"><path transform="translate(8,16)" class="S ss" d="M1742 1414 L1883 1273 L1883 1297 L1742 1438 Z"/><path class="s7" d="M1742 1414 L1883 1273 L1883 1297 L1742 1438 Z" /></g><g class="o"><path transform="translate(5,10)" class="S sf" d="M1943 1987 L2090 1840 L2120 1840 L1973 1987 Z"/><path class="f7" d="M1943 1987 L2090 1840 L2120 1840 L1973 1987 Z" /></g><g class="o"><path transform="translate(3,6)" class="S sf" d="M1397 1678 L1552 1523 L1552 1553 L1397 1708 Z"/><path class="f1" d="M1397 1678 L1552 1523 L1552 1553 L1397 1708 Z" /></g><g class="o"><path transform="translate(6,12)" class="S sf" d="M1480 977 L1537 1034 L1537 1050 L1480 993 Z"/><path class="f6" d="M1480 977 L1537 1034 L1537 1050 L1480 993 Z" /></g><g class="o"><path transform="translate(6,12)" class="S sf" d="M1815 1263 L1943 1135 L1957 1135 L1829 1263 Z"/><path class="f7" d="M1815 1263 L1943 1135 L1957 1135 L1829 1263 Z" /></g><g class="o"><path transform="translate(7,14)" class="S sf" d="M1701 1891 L1968 2158 L1968 2184 L1701 1917 Z"/><path class="f6" d="M1701 1891 L1968 2158 L1968 2184 L1701 1917 Z" /></g><g class="o"><path transform="translate(2,4)" class="S sf" d="M1411 1608 L2098 2295 L2098 2325 L1411 1638 Z"/><path class="f7" d="M1411 1608 L2098 2295 L2098 2325 L1411 1638 Z" /></g><g class="o"><path transform="translate(4,8)" class="S sf" d="M1978 1717 L2138 1557 L2138 1565 L1978 1725 Z"/><path class="f3" d="M1978 1717 L2138 1557 L2138 1565 L1978 1725 Z" /></g><g class="o"><path transform="translate(6,12)" class="S sf" d="M1163 1024 L1325 862 L1325 884 L1163 1046 Z"/><path class="f3" d="M1163 1024 L1325 862 L1325 884 L1163 1046 Z" /></g><g class="o"><path transform="translate(6,12)" class="S sf" d="M1832 1725 L2027 1920 L2051 1920 L1856 1725 Z"/><path class="f5" d="M1832 1725 L2027 1920 L2051 1920 L1856 1725 Z" /></g><g class="o"><path transform="translate(5,10)" class="S sf" d="M1841 1264 L1999 1106 L1999 1116 L1841 1274 Z"/><path class="f1" d="M1841 1264 L1999 1106 L1999 1116 L1841 1274 Z" /></g><g class="o"><path transform="translate(4,8)" class="S sf" d="M962 1693 L1194 1925 L1290 1925 L1058 1693 Z"/><path class="f1" d="M962 1693 L1194 1925 L1290 1925 L1058 1693 Z" /></g><g class="o"><path transform="translate(2,4)" class="S sf" d="M1789 1620 L2038 1371 L2074 1371 L1825 1620 Z"/><path class="f3" d="M1789 1620 L2038 1371 L2074 1371 L1825 1620 Z" /></g><g class="o"><path transform="translate(4,8)" class="S sf" d="M1573 1362 L1720 1215 L1720 1239 L1573 1386 Z"/><path class="f6" d="M1573 1362 L1720 1215 L1720 1239 L1573 1386 Z" /></g><g class="o"><path transform="translate(2,4)" class="S sf" d="M1819 1595 L1906 1682 L1906 1810 L1819 1723 Z"/><path class="f3" d="M1819 1595 L1906 1682 L1906 1810 L1819 1723 Z" /></g><g class="o"><path transform="translate(9,18)" class="S sf" d="M997 1015 L1189 823 L1189 895 L997 1087 Z"/><path class="f1" d="M997 1015 L1189 823 L1189 895 L997 1087 Z" /></g><g class="o"><path transform="translate(2,4)" class="S sf" d="M1742 1543 L1871 1672 L1871 1710 L1742 1581 Z"/><path class="f1" d="M1742 1543 L1871 1672 L1871 1710 L1742 1581 Z" /></g><g class="o"><path transform="translate(8,16)" class="S sf" d="M1964 1386 L2549 1971 L2549 2005 L1964 1420 Z"/><path class="f1" d="M1964 1386 L2549 1971 L2549 2005 L1964 1420 Z" /></g><g class="o"><path transform="translate(6,12)" class="S sf" d="M1449 1957 L1827 2335 L1857 2335 L1479 1957 Z"/><path class="f5" d="M1449 1957 L1827 2335 L1857 2335 L1479 1957 Z" /></g><g class="o"><path transform="translate(5,10)" class="S sf" d="M1684 1584 L1823 1445 L1853 1445 L1714 1584 Z"/><path class="f1" d="M1684 1584 L1823 1445 L1853 1445 L1714 1584 Z" /></g><g class="o"><path transform="translate(5,10)" class="S ss" d="M1148 1928 L1328 2108 L1336 2108 L1156 1928 Z"/><path class="s3" d="M1148 1928 L1328 2108 L1336 2108 L1156 1928 Z" /></g><g class="o"><path transform="translate(2,4)" class="S ss" d="M1720 1272 L2455 2007 L2469 2007 L1734 1272 Z"/><path class="s7" d="M1720 1272 L2455 2007 L2469 2007 L1734 1272 Z" /></g><g class="o"><path transform="translate(8,16)" class="S sf" d="M1353 2043 L1493 2183 L1493 2193 L1353 2053 Z"/><path class="f3" d="M1353 2043 L1493 2183 L1493 2193 L1353 2053 Z" /></g><g class="o"><path transform="translate(2,4)" class="S sf" d="M1884 1809 L2106 1587 L2106 1611 L1884 1833 Z"/><path class="f3" d="M1884 1809 L2106 1587 L2106 1611 L1884 1833 Z" /></g><g class="o"><path transform="translate(9,18)" class="S sf" d="M1011 1370 L1209 1568 L1235 1568 L1037 1370 Z"/><path class="f3" d="M1011 1370 L1209 1568 L1235 1568 L1037 1370 Z" /></g><g class="o"><path transform="translate(3,6)" class="S sf" d="M1084 1501 L1307 1278 L1307 1302 L1084 1525 Z"/><path class="f3" d="M1084 1501 L1307 1278 L1307 1302 L1084 1525 Z" /></g><g class="o"><path transform="translate(5,10)" class="S sf" d="M1663 1250 L1791 1378 L1827 1378 L1699 1250 Z"/><path class="f3" d="M1663 1250 L1791 1378 L1827 1378 L1699 1250 Z" /></g><g class="o"><path transform="translate(5,10)" class="S sf" d="M1505 1633 L1964 1174 L1964 1192 L1505 1651 Z"/><path class="f7" d="M1505 1633 L1964 1174 L1964 1192 L1505 1651 Z" /></g><g class="o"><path transform="translate(4,8)" class="S sf" d="M1850 1381 L2080 1611 L2102 1611 L1872 1381 Z"/><path class="f7" d="M1850 1381 L2080 1611 L2102 1611 L1872 1381 Z" /></g><g class="o"><path transform="translate(2,4)" class="S sf" d="M1691 996 L1884 803 L1884 837 L1691 1030 Z"/><path class="f4" d="M1691 996 L1884 803 L1884 837 L1691 1030 Z" /></g><g class="o"><path transform="translate(8,16)" class="S sf" d="M1791 1804 L1952 1965 L1952 1985 L1791 1824 Z"/><path class="f2" d="M1791 1804 L1952 1965 L1952 1985 L1791 1824 Z" /></g><g class="o"><path transform="translate(2,4)" class="S ss" d="M1612 1653 L1858 1407 L1858 1435 L1612 1681 Z"/><path class="s1" d="M1612 1653 L1858 1407 L1858 1435 L1612 1681 Z" /></g><g class="o"><path transform="translate(3,6)" class="S sf" d="M1972 1272 L2196 1496 L2340 1496 L2116 1272 Z"/><path class="f4" d="M1972 1272 L2196 1496 L2340 1496 L2116 1272 Z" /></g><g class="o"><path transform="translate(9,18)" class="S sf" d="M1800 1127 L1945 982 L1945 1004 L1800 1149 Z"/><path class="f7" d="M1800 1127 L1945 982 L1945 1004 L1800 1149 Z" /></g><g class="o"><path transform="translate(6,12)" class="S ss" d="M2034 1525 L2430 1921 L2430 1939 L2034 1543 Z"/><path class="s7" d="M2034 1525 L2430 1921 L2430 1939 L2034 1543 Z" /></g><g class="o"><path transform="translate(5,10)" class="S ss" d="M1584 1109 L2331 1856 L2331 1886 L1584 1139 Z"/><path class="s6" d="M1584 1109 L2331 1856 L2331 1886 L1584 1139 Z" /></g><g class="o"><path transform="translate(3,6)" class="S sf" d="M1507 1479 L1682 1304 L1702 1304 L1527 1479 Z"/><path class="f3" d="M1507 1479 L1682 1304 L1702 1304 L1527 1479 Z" /></g><g class="o"><path transform="translate(6,12)" class="S sf" d="M1870 1260 L2040 1430 L2040 1466 L1870 1296 Z"/><path class="f2" d="M1870 1260 L2040 1430 L2040 1466 L1870 1296 Z" /></g><g class="o"><path transform="translate(7,14)" class="S sf" d="M1748 1559 L1844 1463 L1844 1501 L1748 1597 Z"/><path class="f1" d="M1748 1559 L1844 1463 L1844 1501 L1748 1597 Z" /></g><g class="o"><path transform="translate(2,4)" class="S sf" d="M1944 1572 L2403 1113 L2429 1113 L1970 1572 Z"/><path class="f4" d="M1944 1572 L2403 1113 L2429 1113 L1970 1572 Z" /></g><g class="o"><path transform="translate(6,12)" class="S ss" d="M1228 1114 L1402 1288 L1402 1324 L1228 1150 Z"/><path class="s4" d="M1228 1114 L1402 1288 L1402 1324 L1228 1150 Z" /></g><g class="o"><path transform="translate(9,18)" class="S sf" d="M1340 1355 L1548 1563 L1548 1595 L1340 1387 Z"/><path class="f7" d="M1340 1355 L1548 1563 L1548 1595 L1340 1387 Z" /></g><g class="o"><path transform="translate(6,12)" class="S sf" d="M1574 1125 L1698 1249 L1732 1249 L1608 1125 Z"/><path class="f3" d="M1574 1125 L1698 1249 L1732 1249 L1608 1125 Z" /></g><g class="o"><path transform="translate(9,18)" class="S sf" d="M1540 1807 L1683 1950 L1683 1974 L1540 1831 Z"/><path class="f4" d="M1540 1807 L1683 1950 L1683 1974 L1540 1831 Z" /></g><g class="o"><path transform="translate(9,18)" class="S sf" d="M1576 1537 L1814 1775 L1850 1775 L1612 1537 Z"/><path class="f5" d="M1576 1537 L1814 1775 L1850 1775 L1612 1537 Z" /></g><g class="o"><path transform="translate(7,14)" class="S sf" d="M1175 1508 L1355 1328 L1373 1328 L1193 1508 Z"/><path class="f1" d="M1175 1508 L1355 1328 L1373 1328 L1193 1508 Z" /></g><g class="o"><path transform="translate(4,8)" class="S sf" d="M2008 1919 L2743 1184 L2743 1248 L2008 1983 Z"/><path class="f4" d="M2008 1919 L2743 1184 L2743 1248 L2008 1983 Z" /></g><g class="o"><path transform="translate(9,18)" class="S sf" d="M1293 2014 L1716 1591 L1716 1629 L1293 2052 Z"/><path class="f4" d="M1293 2014 L1716 1591 L1716 1629 L1293 2052 Z" /></g><g class="o"><path transform="translate(3,6)" class="S sf" d="M1257 1199 L1491 1433 L1491 1453 L1257 1219 Z"/><path class="f3" d="M1257 1199 L1491 1433 L1491 1453 L1257 1219 Z" /></g><g class="o"><path transform="translate(4,8)" class="S sf" d="M1089 1682 L1285 1486 L1285 1502 L1089 1698 Z"/><path class="f1" d="M1089 1682 L1285 1486 L1285 1502 L1089 1698 Z" /></g><g class="o"><path transform="translate(7,14)" class="S sf" d="M1421 1403 L1578 1246 L1578 1284 L1421 1441 Z"/><path class="f5" d="M1421 1403 L1578 1246 L1578 1284 L1421 1441 Z" /></g><g class="o"><path transform="translate(9,18)" class="S sf" d="M1355 1547 L1468 1434 L1476 1434 L1363 1547 Z"/><path class="f3" d="M1355 1547 L1468 1434 L1476 1434 L1363 1547 Z" /></g><g class="o"><path transform="translate(7,14)" class="S sf" d="M1057 1837 L1196 1976 L1196 2080 L1057 1941 Z"/><path class="f7" d="M1057 1837 L1196 1976 L1196 2080 L1057 1941 Z" /></g><g class="o"><path transform="translate(2,4)" class="S sf" d="M1914 962 L2107 1155 L2107 1183 L1914 990 Z"/><path class="f7" d="M1914 962 L2107 1155 L2107 1183 L1914 990 Z" /></g><g class="o"><path transform="translate(5,10)" class="S sf" d="M1349 1476 L1473 1600 L1491 1600 L1367 1476 Z"/><path class="f4" d="M1349 1476 L1473 1600 L1491 1600 L1367 1476 Z" /></g><g class="o"><path transform="translate(5,10)" class="S sf" d="M1264 957 L1354 1047 L1354 1085 L1264 995 Z"/><path class="f6" d="M1264 957 L1354 1047 L1354 1085 L1264 995 Z" /></g><g class="o"><path transform="translate(9,18)" class="S sf" d="M1048 1124 L1269 1345 L1269 1481 L1048 1260 Z"/><path class="f3" d="M1048 1124 L1269 1345 L1269 1481 L1048 1260 Z" /></g><g class="o"><path transform="translate(2,4)" class="S sf" d="M1395 1712 L1573 1890 L1573 1912 L1395 1734 Z"/><path class="f1" d="M1395 1712 L1573 1890 L1573 1912 L1395 1734 Z" /></g><g class="o"><path transform="translate(8,16)" class="S sf" d="M1921 1298 L2079 1456 L2115 1456 L1957 1298 Z"/><path class="f6" d="M1921 1298 L2079 1456 L2115 1456 L1957 1298 Z" /></g></g><use href="#slashes" transform-origin="1500 1500" transform="rotate(180) scale(2)"/></g><polyline points="1500,1010 1990,1500 1500,1990 1010,1500 1500,1010 1990,1500" stroke-width="20" class="o s7" /><use href="#slashes" transform-origin="1500 1500" transform="scale(.9)"/><use href="#slashes" transform-origin="1500 1500" transform="rotate(180) scale(.9)"/></svg>