<svg xmlns="http://www.w3.org/2000/svg" viewBox="750 750 1500 1500"><style>/*<![CDATA[*/svg{background:rgb(246,81,29);max-width:100vw;max-height:100vh}path{stroke-width:4}.o{opacity:.75}.S{opacity:.4}.sf{stroke:none;fill:black}.sfh{stroke:none;fill:url(#hs)}.sfv{stroke:none;fill:url(#vs)}.ss{stroke:black;fill:none}.ssh{stroke:url(#hs);fill:none}.ssv{stroke:url(#vs);fill:none}.s1{fill:none;stroke:rgb(63,2,89)}.f1{stroke:none;fill:rgb(63,2,89)}.sh1{fill:none;stroke:url(#h1)}.fh1{stroke:none;fill:url(#h1)}.sv1{fill:none;stroke:url(#v1)}.fv1{stroke:none;fill:url(#v1)}.s2{fill:none;stroke:rgb(242,235,220)}.f2{stroke:none;fill:rgb(242,235,220)}.sh2{fill:none;stroke:url(#h2)}.fh2{stroke:none;fill:url(#h2)}.sv2{fill:none;stroke:url(#v2)}.fv2{stroke:none;fill:url(#v2)}.s3{fill:none;stroke:rgb(34,34,34)}.f3{stroke:none;fill:rgb(34,34,34)}.sh3{fill:none;stroke:url(#h3)}.fh3{stroke:none;fill:url(#h3)}.sv3{fill:none;stroke:url(#v3)}.fv3{stroke:none;fill:url(#v3)}.s4{fill:none;stroke:rgb(242,226,5)}.f4{stroke:none;fill:rgb(242,226,5)}.sh4{fill:none;stroke:url(#h4)}.fh4{stroke:none;fill:url(#h4)}.sv4{fill:none;stroke:url(#v4)}.fv4{stroke:none;fill:url(#v4)}.s5{fill:none;stroke:rgb(96,96,96)}.f5{stroke:none;fill:rgb(96,96,96)}.sh5{fill:none;stroke:url(#h5)}.fh5{stroke:none;fill:url(#h5)}.sv5{fill:none;stroke:url(#v5)}.fv5{stroke:none;fill:url(#v5)}.s6{fill:none;stroke:rgb(255,255,255)}.f6{stroke:none;fill:rgb(255,255,255)}.sh6{fill:none;stroke:url(#h6)}.fh6{stroke:none;fill:url(#h6)}.sv6{fill:none;stroke:url(#v6)}.fv6{stroke:none;fill:url(#v6)}.s7{fill:none;stroke:rgb(255,255,0)}.f7{stroke:none;fill:rgb(255,255,0)}.sh7{fill:none;stroke:url(#h7)}.fh7{stroke:none;fill:url(#h7)}.sv7{fill:none;stroke:url(#v7)}.fv7{stroke:none;fill:url(#v7)}/*]]>*/</style><defs><linearGradient gradientTransform="rotate(90)" id="hs"><stop offset="20%" stop-color="#000" /><stop offset="95%" stop-color="rgba(0, 0, 0, 0)" /></linearGradient><linearGradient id="vs"><stop offset="20%" stop-color="#000" /><stop offset="95%" stop-color="rgba(0, 0, 0, 0)" /></linearGradient><linearGradient gradientTransform="rotate(90)" id="h1"><stop offset="20%" stop-color="rgba(63,2,89,1)" /><stop offset="95%" stop-color="rgba(63,2,89,0)" /></linearGradient><linearGradient id="v1"><stop offset="20%" stop-color="rgba(63,2,89,1)" /><stop offset="95%" stop-color="rgba(63,2,89,0)" /></linearGradient><linearGradient gradientTransform="rotate(90)" id="h2"><stop offset="20%" stop-color="rgba(242,235,220,1)" /><stop offset="95%" stop-color="rgba(242,235,220,0)" /></linearGradient><linearGradient id="v2"><stop offset="20%" stop-color="rgba(242,235,220,1)" /><stop offset="95%" stop-color="rgba(242,235,220,0)" /></linearGradient><linearGradient gradientTransform="rotate(90)" id="h3"><stop offset="20%" stop-color="rgba(34,34,34,1)" /><stop offset="95%" stop-color="rgba(34,34,34,0)" /></linearGradient><linearGradient id="v3"><stop offset="20%" stop-color="rgba(34,34,34,1)" /><stop offset="95%" stop-color="rgba(34,34,34,0)" /></linearGradient><linearGradient gradientTransform="rotate(90)" id="h4"><stop offset="20%" stop-color="rgba(242,226,5,1)" /><stop offset="95%" stop-color="rgba(242,226,5,0)" /></linearGradient><linearGradient id="v4"><stop offset="20%" stop-color="rgba(242,226,5,1)" /><stop offset="95%" stop-color="rgba(242,226,5,0)" /></linearGradient><linearGradient gradientTransform="rotate(90)" id="h5"><stop offset="20%" stop-color="rgba(96,96,96,1)" /><stop offset="95%" stop-color="rgba(96,96,96,0)" /></linearGradient><linearGradient id="v5"><stop offset="20%" stop-color="rgba(96,96,96,1)" /><stop offset="95%" stop-color="rgba(96,96,96,0)" /></linearGradient><linearGradient gradientTransform="rotate(90)" id="h6"><stop offset="20%" stop-color="rgba(255,255,255,1)" /><stop offset="95%" stop-color="rgba(255,255,255,0)" /></linearGradient><linearGradient id="v6"><stop offset="20%" stop-color="rgba(255,255,255,1)" /><stop offset="95%" stop-color="rgba(255,255,255,0)" /></linearGradient><linearGradient gradientTransform="rotate(90)" id="h7"><stop offset="20%" stop-color="rgba(255,255,0,1)" /><stop offset="95%" stop-color="rgba(255,255,0,0)" /></linearGradient><linearGradient id="v7"><stop offset="20%" stop-color="rgba(255,255,0,1)" /><stop offset="95%" stop-color="rgba(255,255,0,0)" /></linearGradient></defs><g transform-origin="1500 1500" transform="scale(2)" opacity=".2"><g id="slashes"><g class="o"><path transform="translate(4,8)" class="S ssv" d="M2042 1369 L2144 1267 L2144 1303 L2042 1405 Z"/><path class="sv3" d="M2042 1369 L2144 1267 L2144 1303 L2042 1405 Z" /></g><g class="o"><path transform="translate(6,12)" class="S sfh" d="M1407 1001 L1240 834 L1336 834 L1503 1001 Z"/><path class="fh3" d="M1407 1001 L1240 834 L1336 834 L1503 1001 Z" /></g><g class="o"><path transform="translate(6,12)" class="S sfh" d="M1072 1740 L1305 1507 L1313 1507 L1080 1740 Z"/><path class="fh7" d="M1072 1740 L1305 1507 L1313 1507 L1080 1740 Z" /></g><g class="o"><path transform="translate(5,10)" class="S sfh" d="M1565 1700 L1322 1943 L1334 1943 L1577 1700 Z"/><path class="fh6" d="M1565 1700 L1322 1943 L1334 1943 L1577 1700 Z" /></g><g class="o"><path transform="translate(9,18)" class="S sfh" d="M1050 1146 L871 1325 L889 1325 L1068 1146 Z"/><path class="fh7" d="M1050 1146 L871 1325 L889 1325 L1068 1146 Z" /></g><g class="o"><path transform="translate(2,4)" class="S sfv" d="M1146 1172 L1033 1285 L1033 1313 L1146 1200 Z"/><path class="fv4" d="M1146 1172 L1033 1285 L1033 1313 L1146 1200 Z" /></g><g class="o"><path transform="translate(7,14)" class="S ssv" d="M1267 1537 L1018 1786 L1018 1898 L1267 1649 Z"/><path class="sv5" d="M1267 1537 L1018 1786 L1018 1898 L1267 1649 Z" /></g><g class="o"><path transform="translate(2,4)" class="S sfv" d="M1141 1731 L430 1020 L430 1046 L1141 1757 Z"/><path class="fv4" d="M1141 1731 L430 1020 L430 1046 L1141 1757 Z" /></g><g class="o"><path transform="translate(4,8)" class="S ss" d="M1770 1257 L1904 1123 L1914 1123 L1780 1257 Z"/><path class="s4" d="M1770 1257 L1904 1123 L1914 1123 L1780 1257 Z" /></g><g class="o"><path transform="translate(3,6)" class="S sfh" d="M1305 954 L1546 1195 L1574 1195 L1333 954 Z"/><path class="fh7" d="M1305 954 L1546 1195 L1574 1195 L1333 954 Z" /></g><g class="o"><path transform="translate(5,10)" class="S sfh" d="M1211 1381 L1075 1245 L1113 1245 L1249 1381 Z"/><path class="fh7" d="M1211 1381 L1075 1245 L1113 1245 L1249 1381 Z" /></g><g class="o"><path transform="translate(9,18)" class="S sfv" d="M1253 1021 L1324 950 L1324 1030 L1253 1101 Z"/><path class="fv6" d="M1253 1021 L1324 950 L1324 1030 L1253 1101 Z" /></g><g class="o"><path transform="translate(7,14)" class="S sfh" d="M1821 1817 L1656 1982 L1664 1982 L1829 1817 Z"/><path class="fh1" d="M1821 1817 L1656 1982 L1664 1982 L1829 1817 Z" /></g><g class="o"><path transform="translate(3,6)" class="S sfh" d="M1872 1476 L2091 1257 L2117 1257 L1898 1476 Z"/><path class="fh4" d="M1872 1476 L2091 1257 L2117 1257 L1898 1476 Z" /></g><g class="o"><path transform="translate(9,18)" class="S ssh" d="M1693 1569 L1886 1376 L1914 1376 L1721 1569 Z"/><path class="sh5" d="M1693 1569 L1886 1376 L1914 1376 L1721 1569 Z" /></g><g class="o"><path transform="translate(4,8)" class="S sfh" d="M1642 1396 L2287 2041 L2295 2041 L1650 1396 Z"/><path class="fh2" d="M1642 1396 L2287 2041 L2295 2041 L1650 1396 Z" /></g><g class="o"><path transform="translate(4,8)" class="S sfh" d="M1973 1099 L2183 1309 L2197 1309 L1987 1099 Z"/><path class="fh5" d="M1973 1099 L2183 1309 L2197 1309 L1987 1099 Z" /></g><g class="o"><path transform="translate(3,6)" class="S sfh" d="M1409 1742 L1490 1661 L1528 1661 L1447 1742 Z"/><path class="fh1" d="M1409 1742 L1490 1661 L1528 1661 L1447 1742 Z" /></g><g class="o"><path transform="translate(7,14)" class="S sfh" d="M1662 1264 L1359 961 L1373 961 L1676 1264 Z"/><path class="fh5" d="M1662 1264 L1359 961 L1373 961 L1676 1264 Z" /></g><g class="o"><path transform="translate(6,12)" class="S sf" d="M1341 1415 L1554 1202 L1554 1228 L1341 1441 Z"/><path class="f5" d="M1341 1415 L1554 1202 L1554 1228 L1341 1441 Z" /></g><g class="o"><path transform="translate(7,14)" class="S ssh" d="M1823 1577 L2050 1804 L2060 1804 L1833 1577 Z"/><path class="sh5" d="M1823 1577 L2050 1804 L2060 1804 L1833 1577 Z" /></g><g class="o"><path transform="translate(4,8)" class="S sfv" d="M2030 1433 L1978 1381 L1978 1509 L2030 1561 Z"/><path class="fv4" d="M2030 1433 L1978 1381 L1978 1509 L2030 1561 Z" /></g><g class="o"><path transform="translate(8,16)" class="S sfh" d="M1975 1695 L2056 1614 L2176 1614 L2095 1695 Z"/><path class="fh7" d="M1975 1695 L2056 1614 L2176 1614 L2095 1695 Z" /></g><g class="o"><path transform="translate(4,8)" class="S sfv" d="M1227 1055 L1439 1267 L1439 1419 L1227 1207 Z"/><path class="fv4" d="M1227 1055 L1439 1267 L1439 1419 L1227 1207 Z" /></g><g class="o"><path transform="translate(3,6)" class="S sfv" d="M2031 1933 L2100 2002 L2100 2036 L2031 1967 Z"/><path class="fv4" d="M2031 1933 L2100 2002 L2100 2036 L2031 1967 Z" /></g><g class="o"><path transform="translate(7,14)" class="S sfv" d="M1601 1724 L1485 1840 L1485 1874 L1601 1758 Z"/><path class="fv7" d="M1601 1724 L1485 1840 L1485 1874 L1601 1758 Z" /></g><g class="o"><path transform="translate(3,6)" class="S sfh" d="M1833 1262 L1158 1937 L1180 1937 L1855 1262 Z"/><path class="fh2" d="M1833 1262 L1158 1937 L1180 1937 L1855 1262 Z" /></g><g class="o"><path transform="translate(6,12)" class="S sfv" d="M1025 1103 L1109 1019 L1109 1051 L1025 1135 Z"/><path class="fv6" d="M1025 1103 L1109 1019 L1109 1051 L1025 1135 Z" /></g><g class="o"><path transform="translate(2,4)" class="S sfh" d="M1062 1010 L1262 810 L1358 810 L1158 1010 Z"/><path class="fh1" d="M1062 1010 L1262 810 L1358 810 L1158 1010 Z" /></g><g class="o"><path transform="translate(5,10)" class="S sfv" d="M1368 1479 L1552 1663 L1552 1681 L1368 1497 Z"/><path class="fv6" d="M1368 1479 L1552 1663 L1552 1681 L1368 1497 Z" /></g><g class="o"><path transform="translate(5,10)" class="S sfv" d="M1542 955 L1724 1137 L1724 1175 L1542 993 Z"/><path class="fv4" d="M1542 955 L1724 1137 L1724 1175 L1542 993 Z" /></g><g class="o"><path transform="translate(4,8)" class="S sfv" d="M1979 1942 L1847 1810 L1847 1830 L1979 1962 Z"/><path class="fv6" d="M1979 1942 L1847 1810 L1847 1830 L1979 1962 Z" /></g><g class="o"><path transform="translate(9,18)" class="S ss" d="M1147 1695 L977 1865 L977 1895 L1147 1725 Z"/><path class="s6" d="M1147 1695 L977 1865 L977 1895 L1147 1725 Z" /></g><g class="o"><path transform="translate(4,8)" class="S ssv" d="M1120 1681 L1018 1783 L1018 1805 L1120 1703 Z"/><path class="sv6" d="M1120 1681 L1018 1783 L1018 1805 L1120 1703 Z" /></g><g class="o"><path transform="translate(7,14)" class="S sfv" d="M1141 1952 L1320 2131 L1320 2167 L1141 1988 Z"/><path class="fv4" d="M1141 1952 L1320 2131 L1320 2167 L1141 1988 Z" /></g><g class="o"><path transform="translate(6,12)" class="S sfv" d="M1423 1838 L1371 1786 L1371 1824 L1423 1876 Z"/><path class="fv1" d="M1423 1838 L1371 1786 L1371 1824 L1423 1876 Z" /></g><g class="o"><path transform="translate(5,10)" class="S ssv" d="M1399 989 L1150 740 L1150 752 L1399 1001 Z"/><path class="sv1" d="M1399 989 L1150 740 L1150 752 L1399 1001 Z" /></g><g class="o"><path transform="translate(8,16)" class="S ssh" d="M1617 1068 L1412 863 L1432 863 L1637 1068 Z"/><path class="sh5" d="M1617 1068 L1412 863 L1432 863 L1637 1068 Z" /></g><g class="o"><path transform="translate(4,8)" class="S sfv" d="M1251 1465 L1173 1387 L1173 1409 L1251 1487 Z"/><path class="fv2" d="M1251 1465 L1173 1387 L1173 1409 L1251 1487 Z" /></g><g class="o"><path transform="translate(9,18)" class="S sfv" d="M1284 1234 L1056 1006 L1056 1036 L1284 1264 Z"/><path class="fv4" d="M1284 1234 L1056 1006 L1056 1036 L1284 1264 Z" /></g><g class="o"><path transform="translate(8,16)" class="S sfv" d="M1028 1360 L914 1474 L914 1498 L1028 1384 Z"/><path class="fv3" d="M1028 1360 L914 1474 L914 1498 L1028 1384 Z" /></g><g class="o"><path transform="translate(8,16)" class="S sf" d="M2036 1693 L2148 1581 L2148 1591 L2036 1703 Z"/><path class="f5" d="M2036 1693 L2148 1581 L2148 1591 L2036 1703 Z" /></g><g class="o"><path transform="translate(9,18)" class="S sfh" d="M1879 1736 L2017 1874 L2041 1874 L1903 1736 Z"/><path class="fh2" d="M1879 1736 L2017 1874 L2041 1874 L1903 1736 Z" /></g><g class="o"><path transform="translate(7,14)" class="S sfv" d="M1739 1417 L1870 1286 L1870 1320 L1739 1451 Z"/><path class="fv6" d="M1739 1417 L1870 1286 L1870 1320 L1739 1451 Z" /></g><g class="o"><path transform="translate(8,16)" class="S sf" d="M981 1112 L784 1309 L806 1309 L1003 1112 Z"/><path class="f3" d="M981 1112 L784 1309 L806 1309 L1003 1112 Z" /></g><g class="o"><path transform="translate(2,4)" class="S sfv" d="M980 1927 L793 1740 L793 1770 L980 1957 Z"/><path class="fv7" d="M980 1927 L793 1740 L793 1770 L980 1957 Z" /></g><g class="o"><path transform="translate(9,18)" class="S sfv" d="M1475 1181 L1600 1306 L1600 1326 L1475 1201 Z"/><path class="fv6" d="M1475 1181 L1600 1306 L1600 1326 L1475 1201 Z" /></g><g class="o"><path transform="translate(2,4)" class="S ss" d="M989 1867 L931 1925 L949 1925 L1007 1867 Z"/><path class="s3" d="M989 1867 L931 1925 L949 1925 L1007 1867 Z" /></g><g class="o"><path transform="translate(6,12)" class="S sfh" d="M1691 1359 L1827 1223 L1853 1223 L1717 1359 Z"/><path class="fh5" d="M1691 1359 L1827 1223 L1853 1223 L1717 1359 Z" /></g><g class="o"><path transform="translate(9,18)" class="S sfh" d="M1430 999 L1631 1200 L1669 1200 L1468 999 Z"/><path class="fh4" d="M1430 999 L1631 1200 L1669 1200 L1468 999 Z" /></g><g class="o"><path transform="translate(3,6)" class="S sfv" d="M1018 1688 L1178 1528 L1178 1558 L1018 1718 Z"/><path class="fv1" d="M1018 1688 L1178 1528 L1178 1558 L1018 1718 Z" /></g><g class="o"><path transform="translate(8,16)" class="S sf" d="M1330 1032 L1226 1136 L1226 1162 L1330 1058 Z"/><path class="f7" d="M1330 1032 L1226 1136 L1226 1162 L1330 1058 Z" /></g><g class="o"><path transform="translate(3,6)" class="S sfv" d="M1847 1233 L1648 1034 L1648 1062 L1847 1261 Z"/><path class="fv5" d="M1847 1233 L1648 1034 L1648 1062 L1847 1261 Z" /></g><g class="o"><path transform="translate(5,10)" class="S sfh" d="M1030 2018 L1100 2088 L1116 2088 L1046 2018 Z"/><path class="fh2" d="M1030 2018 L1100 2088 L1116 2088 L1046 2018 Z" /></g><g class="o"><path transform="translate(8,16)" class="S sfh" d="M1532 1370 L1309 1147 L1347 1147 L1570 1370 Z"/><path class="fh1" d="M1532 1370 L1309 1147 L1347 1147 L1570 1370 Z" /></g><g class="o"><path transform="translate(6,12)" class="S sfh" d="M1837 1384 L1704 1251 L1824 1251 L1957 1384 Z"/><path class="fh6" d="M1837 1384 L1704 1251 L1824 1251 L1957 1384 Z" /></g><g class="o"><path transform="translate(8,16)" class="S ss" d="M1254 1642 L1444 1452 L1444 1470 L1254 1660 Z"/><path class="s6" d="M1254 1642 L1444 1452 L1444 1470 L1254 1660 Z" /></g><g class="o"><path transform="translate(2,4)" class="S sfv" d="M1673 1044 L1535 906 L1535 942 L1673 1080 Z"/><path class="fv2" d="M1673 1044 L1535 906 L1535 942 L1673 1080 Z" /></g><g class="o"><path transform="translate(2,4)" class="S sfv" d="M1773 1061 L1846 988 L1846 1008 L1773 1081 Z"/><path class="fv7" d="M1773 1061 L1846 988 L1846 1008 L1773 1081 Z" /></g><g class="o"><path transform="translate(4,8)" class="S sfv" d="M1731 1496 L1176 941 L1176 967 L1731 1522 Z"/><path class="fv7" d="M1731 1496 L1176 941 L1176 967 L1731 1522 Z" /></g><g class="o"><path transform="translate(9,18)" class="S sfv" d="M1579 1007 L1798 1226 L1798 1256 L1579 1037 Z"/><path class="fv6" d="M1579 1007 L1798 1226 L1798 1256 L1579 1037 Z" /></g><g class="o"><path transform="translate(5,10)" class="S sf" d="M1062 1112 L1758 1808 L1758 1840 L1062 1144 Z"/><path class="f7" d="M1062 1112 L1758 1808 L1758 1840 L1062 1144 Z" /></g><g class="o"><path transform="translate(9,18)" class="S ssh" d="M886 1486 L972 1400 L1116 1400 L1030 1486 Z"/><path class="sh1" d="M886 1486 L972 1400 L1116 1400 L1030 1486 Z" /></g><g class="o"><path transform="translate(2,4)" class="S sf" d="M1123 1651 L1336 1864 L1456 1864 L1243 1651 Z"/><path class="f3" d="M1123 1651 L1336 1864 L1456 1864 L1243 1651 Z" /></g><g class="o"><path transform="translate(8,16)" class="S ssh" d="M1059 1952 L1656 1355 L1688 1355 L1091 1952 Z"/><path class="sh6" d="M1059 1952 L1656 1355 L1688 1355 L1091 1952 Z" /></g><g class="o"><path transform="translate(4,8)" class="S sf" d="M1814 2016 L2002 1828 L2002 1848 L1814 2036 Z"/><path class="f5" d="M1814 2016 L2002 1828 L2002 1848 L1814 2036 Z" /></g><g class="o"><path transform="translate(3,6)" class="S ssv" d="M1394 1338 L1523 1467 L1523 1501 L1394 1372 Z"/><path class="sv2" d="M1394 1338 L1523 1467 L1523 1501 L1394 1372 Z" /></g><g class="o"><path transform="translate(8,16)" class="S sfv" d="M1491 1719 L1710 1938 L1710 1968 L1491 1749 Z"/><path class="fv5" d="M1491 1719 L1710 1938 L1710 1968 L1491 1749 Z" /></g><g class="o"><path transform="translate(9,18)" class="S sfv" d="M1015 1096 L1112 1193 L1112 1215 L1015 1118 Z"/><path class="fv2" d="M1015 1096 L1112 1193 L1112 1215 L1015 1118 Z" /></g><g class="o"><path transform="translate(8,16)" class="S sfv" d="M1740 1725 L2034 1431 L2034 1455 L1740 1749 Z"/><path class="fv7" d="M1740 1725 L2034 1431 L2034 1455 L1740 1749 Z" /></g><g class="o"><path transform="translate(6,12)" class="S sfv" d="M1419 982 L1215 778 L1215 814 L1419 1018 Z"/><path class="fv5" d="M1419 982 L1215 778 L1215 814 L1419 1018 Z" /></g><g class="o"><path transform="translate(5,10)" class="S sfh" d="M1012 1193 L1099 1280 L1115 1280 L1028 1193 Z"/><path class="fh5" d="M1012 1193 L1099 1280 L1115 1280 L1028 1193 Z" /></g><g class="o"><path transform="translate(6,12)" class="S sfv" d="M1938 1589 L2108 1759 L2108 1771 L1938 1601 Z"/><path class="fv6" d="M1938 1589 L2108 1759 L2108 1771 L1938 1601 Z" /></g><g class="o"><path transform="translate(6,12)" class="S sfv" d="M1969 1082 L1725 838 L1725 872 L1969 1116 Z"/><path class="fv3" d="M1969 1082 L1725 838 L1725 872 L1969 1116 Z" /></g><g class="o"><path transform="translate(2,4)" class="S sf" d="M1042 962 L529 1475 L547 1475 L1060 962 Z"/><path class="f1" d="M1042 962 L529 1475 L547 1475 L1060 962 Z" /></g><g class="o"><path transform="translate(2,4)" class="S sfh" d="M1811 1269 L1587 1493 L1707 1493 L1931 1269 Z"/><path class="fh7" d="M1811 1269 L1587 1493 L1707 1493 L1931 1269 Z" /></g><g class="o"><path transform="translate(9,18)" class="S sf" d="M1423 994 L1600 817 L1616 817 L1439 994 Z"/><path class="f1" d="M1423 994 L1600 817 L1616 817 L1439 994 Z" /></g><g class="o"><path transform="translate(4,8)" class="S sfv" d="M1504 1653 L1566 1715 L1566 1745 L1504 1683 Z"/><path class="fv4" d="M1504 1653 L1566 1715 L1566 1745 L1504 1683 Z" /></g><g class="o"><path transform="translate(9,18)" class="S ssv" d="M1855 1812 L1609 1566 L1609 1582 L1855 1828 Z"/><path class="sv1" d="M1855 1812 L1609 1566 L1609 1582 L1855 1828 Z" /></g><g class="o"><path transform="translate(4,8)" class="S sfh" d="M1869 1174 L2400 1705 L2440 1705 L1909 1174 Z"/><path class="fh2" d="M1869 1174 L2400 1705 L2440 1705 L1909 1174 Z" /></g><g class="o"><path transform="translate(2,4)" class="S sf" d="M1608 1885 L1522 1971 L1538 1971 L1624 1885 Z"/><path class="f1" d="M1608 1885 L1522 1971 L1538 1971 L1624 1885 Z" /></g><g class="o"><path transform="translate(3,6)" class="S sfv" d="M1402 1592 L1530 1464 L1530 1484 L1402 1612 Z"/><path class="fv7" d="M1402 1592 L1530 1464 L1530 1484 L1402 1612 Z" /></g><g class="o"><path transform="translate(7,14)" class="S sfv" d="M1179 1655 L864 1970 L864 1982 L1179 1667 Z"/><path class="fv3" d="M1179 1655 L864 1970 L864 1982 L1179 1667 Z" /></g><g class="o"><path transform="translate(4,8)" class="S sfh" d="M1128 1308 L936 1500 L970 1500 L1162 1308 Z"/><path class="fh5" d="M1128 1308 L936 1500 L970 1500 L1162 1308 Z" /></g><g class="o"><path transform="translate(8,16)" class="S sfv" d="M1757 1711 L1530 1484 L1530 1518 L1757 1745 Z"/><path class="fv2" d="M1757 1711 L1530 1484 L1530 1518 L1757 1745 Z" /></g><g class="o"><path transform="translate(9,18)" class="S sfh" d="M1321 1013 L1202 894 L1228 894 L1347 1013 Z"/><path class="fh2" d="M1321 1013 L1202 894 L1228 894 L1347 1013 Z" /></g><g class="o"><path transform="translate(7,14)" class="S sfh" d="M1493 1280 L1641 1132 L1661 1132 L1513 1280 Z"/><path class="fh1" d="M1493 1280 L1641 1132 L1661 1132 L1513 1280 Z" /></g><g class="o"><path transform="translate(6,12)" class="S sfh" d="M1597 1614 L1440 1771 L1472 1771 L1629 1614 Z"/><path class="fh1" d="M1597 1614 L1440 1771 L1472 1771 L1629 1614 Z" /></g><g class="o"><path transform="translate(9,18)" class="S sfv" d="M1269 2033 L1133 1897 L1133 1913 L1269 2049 Z"/><path class="fv3" d="M1269 2033 L1133 1897 L1133 1913 L1269 2049 Z" /></g><g class="o"><path transform="translate(9,18)" class="S ssv" d="M1985 1761 L2150 1596 L2150 1634 L1985 1799 Z"/><path class="sv2" d="M1985 1761 L2150 1596 L2150 1634 L1985 1799 Z" /></g><g class="o"><path transform="translate(9,18)" class="S sfh" d="M1619 1009 L1816 1206 L1832 1206 L1635 1009 Z"/><path class="fh7" d="M1619 1009 L1816 1206 L1832 1206 L1635 1009 Z" /></g><g class="o"><path transform="translate(2,4)" class="S sfh" d="M1730 1001 L1782 949 L1818 949 L1766 1001 Z"/><path class="fh1" d="M1730 1001 L1782 949 L1818 949 L1766 1001 Z" /></g><g class="o"><path transform="translate(7,14)" class="S ss" d="M1817 1243 L1731 1329 L1731 1341 L1817 1255 Z"/><path class="s2" d="M1817 1243 L1731 1329 L1731 1341 L1817 1255 Z" /></g><g class="o"><path transform="translate(5,10)" class="S sfv" d="M1568 1908 L1747 2087 L1747 2115 L1568 1936 Z"/><path class="fv7" d="M1568 1908 L1747 2087 L1747 2115 L1568 1936 Z" /></g><g class="o"><path transform="translate(9,18)" class="S ssh" d="M1456 1484 L2074 2102 L2112 2102 L1494 1484 Z"/><path class="sh5" d="M1456 1484 L2074 2102 L2112 2102 L1494 1484 Z" /></g><g class="o"><path transform="translate(4,8)" class="S sf" d="M1000 1707 L914 1793 L914 1811 L1000 1725 Z"/><path class="f7" d="M1000 1707 L914 1793 L914 1811 L1000 1725 Z" /></g><g class="o"><path transform="translate(5,10)" class="S ssh" d="M1481 1776 L1630 1925 L1658 1925 L1509 1776 Z"/><path class="sh6" d="M1481 1776 L1630 1925 L1658 1925 L1509 1776 Z" /></g><g class="o"><path transform="translate(3,6)" class="S sfh" d="M950 1795 L837 1908 L859 1908 L972 1795 Z"/><path class="fh6" d="M950 1795 L837 1908 L859 1908 L972 1795 Z" /></g><g class="o"><path transform="translate(7,14)" class="S ssh" d="M2005 1641 L2240 1406 L2272 1406 L2037 1641 Z"/><path class="sh2" d="M2005 1641 L2240 1406 L2272 1406 L2037 1641 Z" /></g><g class="o"><path transform="translate(9,18)" class="S sfv" d="M977 1507 L1057 1587 L1057 1605 L977 1525 Z"/><path class="fv3" d="M977 1507 L1057 1587 L1057 1605 L977 1525 Z" /></g><g class="o"><path transform="translate(8,16)" class="S sfv" d="M1320 1248 L1410 1158 L1410 1178 L1320 1268 Z"/><path class="fv4" d="M1320 1248 L1410 1158 L1410 1178 L1320 1268 Z" /></g><g class="o"><path transform="translate(7,14)" class="S sf" d="M1596 1592 L1809 1379 L1809 1391 L1596 1604 Z"/><path class="f4" d="M1596 1592 L1809 1379 L1809 1391 L1596 1604 Z" /></g><g class="o"><path transform="translate(6,12)" class="S sfv" d="M1079 1546 L973 1440 L973 1464 L1079 1570 Z"/><path class="fv5" d="M1079 1546 L973 1440 L973 1464 L1079 1570 Z" /></g><g class="o"><path transform="translate(6,12)" class="S sfv" d="M1290 1176 L1162 1048 L1162 1064 L1290 1192 Z"/><path class="fv4" d="M1290 1176 L1162 1048 L1162 1064 L1290 1192 Z" /></g><g class="o"><path transform="translate(9,18)" class="S sfv" d="M1413 1996 L1291 1874 L1291 1900 L1413 2022 Z"/><path class="fv7" d="M1413 1996 L1291 1874 L1291 1900 L1413 2022 Z" /></g><g class="o"><path transform="translate(7,14)" class="S sf" d="M1446 1463 L1272 1637 L1272 1673 L1446 1499 Z"/><path class="f7" d="M1446 1463 L1272 1637 L1272 1673 L1446 1499 Z" /></g><g class="o"><path transform="translate(6,12)" class="S sf" d="M1081 1414 L1268 1227 L1304 1227 L1117 1414 Z"/><path class="f7" d="M1081 1414 L1268 1227 L1304 1227 L1117 1414 Z" /></g><g class="o"><path transform="translate(5,10)" class="S sf" d="M1992 1339 L2092 1239 L2114 1239 L2014 1339 Z"/><path class="f4" d="M1992 1339 L2092 1239 L2114 1239 L2014 1339 Z" /></g><g class="o"><path transform="translate(3,6)" class="S sfh" d="M1578 1687 L1389 1876 L1425 1876 L1614 1687 Z"/><path class="fh6" d="M1578 1687 L1389 1876 L1425 1876 L1614 1687 Z" /></g><g class="o"><path transform="translate(3,6)" class="S sfv" d="M1673 2001 L1615 1943 L1615 1955 L1673 2013 Z"/><path class="fv3" d="M1673 2001 L1615 1943 L1615 1955 L1673 2013 Z" /></g><g class="o"><path transform="translate(7,14)" class="S sf" d="M1067 1026 L907 1186 L945 1186 L1105 1026 Z"/><path class="f7" d="M1067 1026 L907 1186 L945 1186 L1105 1026 Z" /></g><g class="o"><path transform="translate(6,12)" class="S sf" d="M1861 1177 L2602 1918 L2638 1918 L1897 1177 Z"/><path class="f5" d="M1861 1177 L2602 1918 L2638 1918 L1897 1177 Z" /></g><g class="o"><path transform="translate(4,8)" class="S sfh" d="M1662 1613 L1747 1698 L1763 1698 L1678 1613 Z"/><path class="fh1" d="M1662 1613 L1747 1698 L1763 1698 L1678 1613 Z" /></g><g class="o"><path transform="translate(8,16)" class="S sfv" d="M1354 1227 L1212 1085 L1212 1117 L1354 1259 Z"/><path class="fv1" d="M1354 1227 L1212 1085 L1212 1117 L1354 1259 Z" /></g><g class="o"><path transform="translate(2,4)" class="S sfv" d="M1748 1289 L1942 1095 L1942 1207 L1748 1401 Z"/><path class="fv7" d="M1748 1289 L1942 1095 L1942 1207 L1748 1401 Z" /></g><g class="o"><path transform="translate(2,4)" class="S sfv" d="M1778 1357 L1656 1235 L1656 1261 L1778 1383 Z"/><path class="fv3" d="M1778 1357 L1656 1235 L1656 1261 L1778 1383 Z" /></g><g class="o"><path transform="translate(9,18)" class="S sfv" d="M1059 1145 L1560 644 L1560 676 L1059 1177 Z"/><path class="fv6" d="M1059 1145 L1560 644 L1560 676 L1059 1177 Z" /></g><g class="o"><path transform="translate(3,6)" class="S ssh" d="M1052 1195 L913 1056 L941 1056 L1080 1195 Z"/><path class="sh4" d="M1052 1195 L913 1056 L941 1056 L1080 1195 Z" /></g><g class="o"><path transform="translate(4,8)" class="S sfv" d="M1505 1255 L1334 1084 L1334 1110 L1505 1281 Z"/><path class="fv5" d="M1505 1255 L1334 1084 L1334 1110 L1505 1281 Z" /></g><g class="o"><path transform="translate(3,6)" class="S sfh" d="M1692 1549 L1493 1748 L1509 1748 L1708 1549 Z"/><path class="fh3" d="M1692 1549 L1493 1748 L1509 1748 L1708 1549 Z" /></g></g><use href="#slashes" transform-origin="1500 1500" transform="rotate(180) scale(2)"/></g><rect x="1080" y="1080" width="840" height="840" stroke-width="10" class="o s6" /><use href="#slashes" transform-origin="1500 1500" transform="scale(.7)"/><use href="#slashes" transform-origin="1500 1500" transform="rotate(180) scale(.3)"/></svg>