<svg xmlns="http://www.w3.org/2000/svg" viewBox="750 750 1500 1500"><style>/*<![CDATA[*/svg{background:rgb(34,34,34);max-width:100vw;max-height:100vh}path{stroke-width:4}.o{opacity:.75}.S{opacity:.4}.sf{stroke:none;fill:black}.sfh{stroke:none;fill:url(#hs)}.sfv{stroke:none;fill:url(#vs)}.ss{stroke:black;fill:none}.ssh{stroke:url(#hs);fill:none}.ssv{stroke:url(#vs);fill:none}.s1{fill:none;stroke:rgb(62,81,140)}.f1{stroke:none;fill:rgb(62,81,140)}.sh1{fill:none;stroke:url(#h1)}.fh1{stroke:none;fill:url(#h1)}.sv1{fill:none;stroke:url(#v1)}.fv1{stroke:none;fill:url(#v1)}.s2{fill:none;stroke:rgb(128,128,128)}.f2{stroke:none;fill:rgb(128,128,128)}.sh2{fill:none;stroke:url(#h2)}.fh2{stroke:none;fill:url(#h2)}.sv2{fill:none;stroke:url(#v2)}.fv2{stroke:none;fill:url(#v2)}.s3{fill:none;stroke:rgb(48,40,64)}.f3{stroke:none;fill:rgb(48,40,64)}.sh3{fill:none;stroke:url(#h3)}.fh3{stroke:none;fill:url(#h3)}.sv3{fill:none;stroke:url(#v3)}.fv3{stroke:none;fill:url(#v3)}.s4{fill:none;stroke:rgb(31,29,89)}.f4{stroke:none;fill:rgb(31,29,89)}.sh4{fill:none;stroke:url(#h4)}.fh4{stroke:none;fill:url(#h4)}.sv4{fill:none;stroke:url(#v4)}.fv4{stroke:none;fill:url(#v4)}.s5{fill:none;stroke:rgb(221,221,221)}.f5{stroke:none;fill:rgb(221,221,221)}.sh5{fill:none;stroke:url(#h5)}.fh5{stroke:none;fill:url(#h5)}.sv5{fill:none;stroke:url(#v5)}.fv5{stroke:none;fill:url(#v5)}.s6{fill:none;stroke:rgb(255,255,255)}.f6{stroke:none;fill:rgb(255,255,255)}.sh6{fill:none;stroke:url(#h6)}.fh6{stroke:none;fill:url(#h6)}.sv6{fill:none;stroke:url(#v6)}.fv6{stroke:none;fill:url(#v6)}.s7{fill:none;stroke:rgb(255,255,0)}.f7{stroke:none;fill:rgb(255,255,0)}.sh7{fill:none;stroke:url(#h7)}.fh7{stroke:none;fill:url(#h7)}.sv7{fill:none;stroke:url(#v7)}.fv7{stroke:none;fill:url(#v7)}/*]]>*/</style><defs><linearGradient gradientTransform="rotate(90)" id="hs"><stop offset="20%" stop-color="#000" /><stop offset="95%" stop-color="rgba(0, 0, 0, 0)" /></linearGradient><linearGradient id="vs"><stop offset="20%" stop-color="#000" /><stop offset="95%" stop-color="rgba(0, 0, 0, 0)" /></linearGradient><linearGradient gradientTransform="rotate(90)" id="h1"><stop offset="20%" stop-color="rgba(62,81,140,1)" /><stop offset="95%" stop-color="rgba(62,81,140,0)" /></linearGradient><linearGradient id="v1"><stop offset="20%" stop-color="rgba(62,81,140,1)" /><stop offset="95%" stop-color="rgba(62,81,140,0)" /></linearGradient><linearGradient gradientTransform="rotate(90)" id="h2"><stop offset="20%" stop-color="rgba(128,128,128,1)" /><stop offset="95%" stop-color="rgba(128,128,128,0)" /></linearGradient><linearGradient id="v2"><stop offset="20%" stop-color="rgba(128,128,128,1)" /><stop offset="95%" stop-color="rgba(128,128,128,0)" /></linearGradient><linearGradient gradientTransform="rotate(90)" id="h3"><stop offset="20%" stop-color="rgba(48,40,64,1)" /><stop offset="95%" stop-color="rgba(48,40,64,0)" /></linearGradient><linearGradient id="v3"><stop offset="20%" stop-color="rgba(48,40,64,1)" /><stop offset="95%" stop-color="rgba(48,40,64,0)" /></linearGradient><linearGradient gradientTransform="rotate(90)" id="h4"><stop offset="20%" stop-color="rgba(31,29,89,1)" /><stop offset="95%" stop-color="rgba(31,29,89,0)" /></linearGradient><linearGradient id="v4"><stop offset="20%" stop-color="rgba(31,29,89,1)" /><stop offset="95%" stop-color="rgba(31,29,89,0)" /></linearGradient><linearGradient gradientTransform="rotate(90)" id="h5"><stop offset="20%" stop-color="rgba(221,221,221,1)" /><stop offset="95%" stop-color="rgba(221,221,221,0)" /></linearGradient><linearGradient id="v5"><stop offset="20%" stop-color="rgba(221,221,221,1)" /><stop offset="95%" stop-color="rgba(221,221,221,0)" /></linearGradient><linearGradient gradientTransform="rotate(90)" id="h6"><stop offset="20%" stop-color="rgba(255,255,255,1)" /><stop offset="95%" stop-color="rgba(255,255,255,0)" /></linearGradient><linearGradient id="v6"><stop offset="20%" stop-color="rgba(255,255,255,1)" /><stop offset="95%" stop-color="rgba(255,255,255,0)" /></linearGradient><linearGradient gradientTransform="rotate(90)" id="h7"><stop offset="20%" stop-color="rgba(255,255,0,1)" /><stop offset="95%" stop-color="rgba(255,255,0,0)" /></linearGradient><linearGradient id="v7"><stop offset="20%" stop-color="rgba(255,255,0,1)" /><stop offset="95%" stop-color="rgba(255,255,0,0)" /></linearGradient></defs><g transform-origin="1500 1500" transform="scale(2)" opacity=".6"><g id="slashes"><g class="o"><path transform="translate(5,10)" class="S sfh" d="M1532 1849 L1747 1634 L1811 1634 L1596 1849 Z"/><path class="fh2" d="M1532 1849 L1747 1634 L1811 1634 L1596 1849 Z" /></g><g class="o"><path transform="translate(7,14)" class="S sf" d="M1367 908 L1167 1108 L1167 1228 L1367 1028 Z"/><path class="f4" d="M1367 908 L1167 1108 L1167 1228 L1367 1028 Z" /></g><g class="o"><path transform="translate(4,8)" class="S sfh" d="M1045 1078 L984 1139 L1024 1139 L1085 1078 Z"/><path class="fh6" d="M1045 1078 L984 1139 L1024 1139 L1085 1078 Z" /></g><g class="o"><path transform="translate(7,14)" class="S ssh" d="M1367 1690 L1175 1882 L1319 1882 L1511 1690 Z"/><path class="sh6" d="M1367 1690 L1175 1882 L1319 1882 L1511 1690 Z" /></g><g class="o"><path transform="translate(4,8)" class="S sfv" d="M2012 1887 L1852 1727 L1852 1799 L2012 1959 Z"/><path class="fv7" d="M2012 1887 L1852 1727 L1852 1799 L2012 1959 Z" /></g><g class="o"><path transform="translate(5,10)" class="S sfv" d="M1862 958 L1997 823 L1997 951 L1862 1086 Z"/><path class="fv7" d="M1862 958 L1997 823 L1997 951 L1862 1086 Z" /></g><g class="o"><path transform="translate(4,8)" class="S sf" d="M1724 1161 L1948 937 L1948 1009 L1724 1233 Z"/><path class="f1" d="M1724 1161 L1948 937 L1948 1009 L1724 1233 Z" /></g><g class="o"><path transform="translate(2,4)" class="S ssv" d="M1032 1231 L1434 829 L1434 849 L1032 1251 Z"/><path class="sv7" d="M1032 1231 L1434 829 L1434 849 L1032 1251 Z" /></g><g class="o"><path transform="translate(2,4)" class="S sfv" d="M1632 2007 L1400 1775 L1400 1799 L1632 2031 Z"/><path class="fv6" d="M1632 2007 L1400 1775 L1400 1799 L1632 2031 Z" /></g><g class="o"><path transform="translate(9,18)" class="S sfv" d="M1979 1879 L2228 1630 L2228 1694 L1979 1943 Z"/><path class="fv3" d="M1979 1879 L2228 1630 L2228 1694 L1979 1943 Z" /></g><g class="o"><path transform="translate(8,16)" class="S sfh" d="M984 1316 L881 1213 L1009 1213 L1112 1316 Z"/><path class="fh1" d="M984 1316 L881 1213 L1009 1213 L1112 1316 Z" /></g><g class="o"><path transform="translate(8,16)" class="S sf" d="M1044 1074 L830 860 L830 948 L1044 1162 Z"/><path class="f2" d="M1044 1074 L830 860 L830 948 L1044 1162 Z" /></g><g class="o"><path transform="translate(5,10)" class="S sfv" d="M1497 1423 L1290 1630 L1290 1726 L1497 1519 Z"/><path class="fv4" d="M1497 1423 L1290 1630 L1290 1726 L1497 1519 Z" /></g><g class="o"><path transform="translate(6,12)" class="S ss" d="M1487 1823 L1550 1886 L1622 1886 L1559 1823 Z"/><path class="s5" d="M1487 1823 L1550 1886 L1622 1886 L1559 1823 Z" /></g><g class="o"><path transform="translate(4,8)" class="S sf" d="M1697 1952 L1866 2121 L1866 2161 L1697 1992 Z"/><path class="f4" d="M1697 1952 L1866 2121 L1866 2161 L1697 1992 Z" /></g><g class="o"><path transform="translate(4,8)" class="S sfh" d="M1219 1434 L1407 1622 L1559 1622 L1371 1434 Z"/><path class="fh6" d="M1219 1434 L1407 1622 L1559 1622 L1371 1434 Z" /></g><g class="o"><path transform="translate(8,16)" class="S sfv" d="M1144 1114 L937 907 L937 1035 L1144 1242 Z"/><path class="fv5" d="M1144 1114 L937 907 L937 1035 L1144 1242 Z" /></g><g class="o"><path transform="translate(8,16)" class="S sfh" d="M1077 1192 L1620 1735 L1660 1735 L1117 1192 Z"/><path class="fh5" d="M1077 1192 L1620 1735 L1660 1735 L1117 1192 Z" /></g><g class="o"><path transform="translate(3,6)" class="S sfv" d="M1994 1636 L2243 1387 L2243 1419 L1994 1668 Z"/><path class="fv2" d="M1994 1636 L2243 1387 L2243 1419 L1994 1668 Z" /></g><g class="o"><path transform="translate(9,18)" class="S ssh" d="M1565 1541 L1368 1344 L1464 1344 L1661 1541 Z"/><path class="sh3" d="M1565 1541 L1368 1344 L1464 1344 L1661 1541 Z" /></g><g class="o"><path transform="translate(6,12)" class="S sfv" d="M1636 1257 L1493 1400 L1493 1456 L1636 1313 Z"/><path class="fv6" d="M1636 1257 L1493 1400 L1493 1456 L1636 1313 Z" /></g><g class="o"><path transform="translate(5,10)" class="S sfh" d="M1643 1994 L1946 1691 L2042 1691 L1739 1994 Z"/><path class="fh6" d="M1643 1994 L1946 1691 L2042 1691 L1739 1994 Z" /></g><g class="o"><path transform="translate(7,14)" class="S sfh" d="M1887 1277 L1752 1142 L1808 1142 L1943 1277 Z"/><path class="fh2" d="M1887 1277 L1752 1142 L1808 1142 L1943 1277 Z" /></g><g class="o"><path transform="translate(2,4)" class="S sfv" d="M1744 1933 L1675 2002 L1675 2098 L1744 2029 Z"/><path class="fv2" d="M1744 1933 L1675 2002 L1675 2098 L1744 2029 Z" /></g><g class="o"><path transform="translate(7,14)" class="S sfv" d="M1865 1087 L2065 887 L2065 909 L1865 1109 Z"/><path class="fv6" d="M1865 1087 L2065 887 L2065 909 L1865 1109 Z" /></g><g class="o"><path transform="translate(9,18)" class="S sfh" d="M1755 1863 L2000 1618 L2038 1618 L1793 1863 Z"/><path class="fh2" d="M1755 1863 L2000 1618 L2038 1618 L1793 1863 Z" /></g><g class="o"><path transform="translate(2,4)" class="S sfv" d="M1582 1711 L1715 1844 L1715 1884 L1582 1751 Z"/><path class="fv7" d="M1582 1711 L1715 1844 L1715 1884 L1582 1751 Z" /></g><g class="o"><path transform="translate(9,18)" class="S sfv" d="M2003 1670 L2224 1891 L2224 1923 L2003 1702 Z"/><path class="fv4" d="M2003 1670 L2224 1891 L2224 1923 L2003 1702 Z" /></g><g class="o"><path transform="translate(4,8)" class="S sfh" d="M1093 952 L1016 1029 L1026 1029 L1103 952 Z"/><path class="fh1" d="M1093 952 L1016 1029 L1026 1029 L1103 952 Z" /></g><g class="o"><path transform="translate(3,6)" class="S sfh" d="M1349 1471 L1266 1388 L1370 1388 L1453 1471 Z"/><path class="fh2" d="M1349 1471 L1266 1388 L1370 1388 L1453 1471 Z" /></g><g class="o"><path transform="translate(4,8)" class="S sfh" d="M1105 1620 L1194 1709 L1202 1709 L1113 1620 Z"/><path class="fh3" d="M1105 1620 L1194 1709 L1202 1709 L1113 1620 Z" /></g><g class="o"><path transform="translate(6,12)" class="S ssv" d="M996 1471 L944 1419 L944 1467 L996 1519 Z"/><path class="sv5" d="M996 1471 L944 1419 L944 1467 L996 1519 Z" /></g><g class="o"><path transform="translate(9,18)" class="S sfv" d="M1232 892 L1056 1068 L1056 1220 L1232 1044 Z"/><path class="fv4" d="M1232 892 L1056 1068 L1056 1220 L1232 1044 Z" /></g><g class="o"><path transform="translate(2,4)" class="S sfv" d="M1570 1379 L1255 1694 L1255 1782 L1570 1467 Z"/><path class="fv2" d="M1570 1379 L1255 1694 L1255 1782 L1570 1467 Z" /></g><g class="o"><path transform="translate(2,4)" class="S sfh" d="M1892 1950 L2103 2161 L2175 2161 L1964 1950 Z"/><path class="fh3" d="M1892 1950 L2103 2161 L2175 2161 L1964 1950 Z" /></g><g class="o"><path transform="translate(8,16)" class="S sfv" d="M1559 1532 L2084 1007 L2084 1103 L1559 1628 Z"/><path class="fv5" d="M1559 1532 L2084 1007 L2084 1103 L1559 1628 Z" /></g><g class="o"><path transform="translate(4,8)" class="S sfh" d="M1344 1624 L1437 1531 L1589 1531 L1496 1624 Z"/><path class="fh7" d="M1344 1624 L1437 1531 L1589 1531 L1496 1624 Z" /></g><g class="o"><path transform="translate(9,18)" class="S sfh" d="M1131 2024 L654 2501 L726 2501 L1203 2024 Z"/><path class="fh5" d="M1131 2024 L654 2501 L726 2501 L1203 2024 Z" /></g><g class="o"><path transform="translate(6,12)" class="S sf" d="M1757 1688 L1976 1469 L2120 1469 L1901 1688 Z"/><path class="f5" d="M1757 1688 L1976 1469 L2120 1469 L1901 1688 Z" /></g><g class="o"><path transform="translate(6,12)" class="S sfh" d="M1717 1768 L1543 1594 L1563 1594 L1737 1768 Z"/><path class="fh4" d="M1717 1768 L1543 1594 L1563 1594 L1737 1768 Z" /></g><g class="o"><path transform="translate(6,12)" class="S sfh" d="M1270 1935 L1383 1822 L1487 1822 L1374 1935 Z"/><path class="fh4" d="M1270 1935 L1383 1822 L1487 1822 L1374 1935 Z" /></g><g class="o"><path transform="translate(6,12)" class="S sfv" d="M1484 1823 L1570 1909 L1570 1943 L1484 1857 Z"/><path class="fv5" d="M1484 1823 L1570 1909 L1570 1943 L1484 1857 Z" /></g><g class="o"><path transform="translate(9,18)" class="S ssv" d="M1820 1802 L1877 1745 L1877 1825 L1820 1882 Z"/><path class="sv5" d="M1820 1802 L1877 1745 L1877 1825 L1820 1882 Z" /></g><g class="o"><path transform="translate(9,18)" class="S sfv" d="M1219 1365 L1289 1295 L1289 1367 L1219 1437 Z"/><path class="fv1" d="M1219 1365 L1289 1295 L1289 1367 L1219 1437 Z" /></g><g class="o"><path transform="translate(8,16)" class="S sfh" d="M1346 1626 L1229 1743 L1263 1743 L1380 1626 Z"/><path class="fh7" d="M1346 1626 L1229 1743 L1263 1743 L1380 1626 Z" /></g><g class="o"><path transform="translate(5,10)" class="S sfv" d="M1174 1568 L673 1067 L673 1187 L1174 1688 Z"/><path class="fv4" d="M1174 1568 L673 1067 L673 1187 L1174 1688 Z" /></g><g class="o"><path transform="translate(5,10)" class="S sfh" d="M1816 1441 L1588 1213 L1708 1213 L1936 1441 Z"/><path class="fh2" d="M1816 1441 L1588 1213 L1708 1213 L1936 1441 Z" /></g><g class="o"><path transform="translate(4,8)" class="S sf" d="M1356 1380 L1890 846 L1890 966 L1356 1500 Z"/><path class="f5" d="M1356 1380 L1890 846 L1890 966 L1356 1500 Z" /></g><g class="o"><path transform="translate(9,18)" class="S sfh" d="M997 1179 L1209 967 L1297 967 L1085 1179 Z"/><path class="fh1" d="M997 1179 L1209 967 L1297 967 L1085 1179 Z" /></g><g class="o"><path transform="translate(5,10)" class="S sf" d="M1159 1250 L948 1039 L948 1053 L1159 1264 Z"/><path class="f4" d="M1159 1250 L948 1039 L948 1053 L1159 1264 Z" /></g><g class="o"><path transform="translate(4,8)" class="S sf" d="M1485 1722 L1673 1534 L1673 1546 L1485 1734 Z"/><path class="f2" d="M1485 1722 L1673 1534 L1673 1546 L1485 1734 Z" /></g><g class="o"><path transform="translate(8,16)" class="S sfh" d="M909 1128 L740 1297 L852 1297 L1021 1128 Z"/><path class="fh1" d="M909 1128 L740 1297 L852 1297 L1021 1128 Z" /></g><g class="o"><path transform="translate(8,16)" class="S sfv" d="M1210 1155 L883 1482 L883 1602 L1210 1275 Z"/><path class="fv5" d="M1210 1155 L883 1482 L883 1602 L1210 1275 Z" /></g><g class="o"><path transform="translate(4,8)" class="S sf" d="M1804 1782 L1975 1611 L2007 1611 L1836 1782 Z"/><path class="f1" d="M1804 1782 L1975 1611 L2007 1611 L1836 1782 Z" /></g><g class="o"><path transform="translate(2,4)" class="S ssh" d="M1900 1369 L1734 1535 L1870 1535 L2036 1369 Z"/><path class="sh6" d="M1900 1369 L1734 1535 L1870 1535 L2036 1369 Z" /></g><g class="o"><path transform="translate(5,10)" class="S ssv" d="M1409 1027 L1530 906 L1530 994 L1409 1115 Z"/><path class="sv4" d="M1409 1027 L1530 906 L1530 994 L1409 1115 Z" /></g><g class="o"><path transform="translate(9,18)" class="S ss" d="M1922 1224 L2126 1428 L2126 1572 L1922 1368 Z"/><path class="s3" d="M1922 1224 L2126 1428 L2126 1572 L1922 1368 Z" /></g><g class="o"><path transform="translate(2,4)" class="S sf" d="M1577 1478 L1268 1169 L1268 1249 L1577 1558 Z"/><path class="f5" d="M1577 1478 L1268 1169 L1268 1249 L1577 1558 Z" /></g><g class="o"><path transform="translate(7,14)" class="S sfh" d="M936 1127 L878 1069 L958 1069 L1016 1127 Z"/><path class="fh7" d="M936 1127 L878 1069 L958 1069 L1016 1127 Z" /></g><g class="o"><path transform="translate(6,12)" class="S sfh" d="M1727 1031 L1829 929 L1837 929 L1735 1031 Z"/><path class="fh2" d="M1727 1031 L1829 929 L1837 929 L1735 1031 Z" /></g><g class="o"><path transform="translate(6,12)" class="S sfh" d="M1257 2036 L1342 1951 L1406 1951 L1321 2036 Z"/><path class="fh1" d="M1257 2036 L1342 1951 L1406 1951 L1321 2036 Z" /></g><g class="o"><path transform="translate(9,18)" class="S sfh" d="M1516 1693 L1457 1634 L1497 1634 L1556 1693 Z"/><path class="fh6" d="M1516 1693 L1457 1634 L1497 1634 L1556 1693 Z" /></g><g class="o"><path transform="translate(8,16)" class="S sfv" d="M1661 1809 L1576 1724 L1576 1756 L1661 1841 Z"/><path class="fv2" d="M1661 1809 L1576 1724 L1576 1756 L1661 1841 Z" /></g><g class="o"><path transform="translate(5,10)" class="S sf" d="M1173 1661 L1408 1896 L1528 1896 L1293 1661 Z"/><path class="f5" d="M1173 1661 L1408 1896 L1528 1896 L1293 1661 Z" /></g><g class="o"><path transform="translate(8,16)" class="S sfh" d="M1655 1691 L1843 1879 L1931 1879 L1743 1691 Z"/><path class="fh7" d="M1655 1691 L1843 1879 L1931 1879 L1743 1691 Z" /></g><g class="o"><path transform="translate(5,10)" class="S sfh" d="M1723 1968 L1945 2190 L1985 2190 L1763 1968 Z"/><path class="fh5" d="M1723 1968 L1945 2190 L1985 2190 L1763 1968 Z" /></g><g class="o"><path transform="translate(7,14)" class="S ss" d="M1677 1139 L1507 1309 L1627 1309 L1797 1139 Z"/><path class="s1" d="M1677 1139 L1507 1309 L1627 1309 L1797 1139 Z" /></g><g class="o"><path transform="translate(9,18)" class="S sfh" d="M933 2036 L1084 2187 L1236 2187 L1085 2036 Z"/><path class="fh1" d="M933 2036 L1084 2187 L1236 2187 L1085 2036 Z" /></g><g class="o"><path transform="translate(2,4)" class="S ssh" d="M1657 1784 L1743 1698 L1759 1698 L1673 1784 Z"/><path class="sh1" d="M1657 1784 L1743 1698 L1759 1698 L1673 1784 Z" /></g><g class="o"><path transform="translate(8,16)" class="S sf" d="M1324 1804 L1493 1635 L1621 1635 L1452 1804 Z"/><path class="f1" d="M1324 1804 L1493 1635 L1621 1635 L1452 1804 Z" /></g><g class="o"><path transform="translate(4,8)" class="S sfv" d="M980 1074 L1129 1223 L1129 1295 L980 1146 Z"/><path class="fv7" d="M980 1074 L1129 1223 L1129 1295 L980 1146 Z" /></g><g class="o"><path transform="translate(2,4)" class="S sfh" d="M1028 1664 L500 1136 L540 1136 L1068 1664 Z"/><path class="fh2" d="M1028 1664 L500 1136 L540 1136 L1068 1664 Z" /></g><g class="o"><path transform="translate(2,4)" class="S sfv" d="M1706 1039 L1573 1172 L1573 1212 L1706 1079 Z"/><path class="fv5" d="M1706 1039 L1573 1172 L1573 1212 L1706 1079 Z" /></g><g class="o"><path transform="translate(2,4)" class="S sfh" d="M1295 1220 L1539 976 L1587 976 L1343 1220 Z"/><path class="fh4" d="M1295 1220 L1539 976 L1587 976 L1343 1220 Z" /></g><g class="o"><path transform="translate(5,10)" class="S sfh" d="M1447 2015 L1347 1915 L1411 1915 L1511 2015 Z"/><path class="fh2" d="M1447 2015 L1347 1915 L1411 1915 L1511 2015 Z" /></g><g class="o"><path transform="translate(6,12)" class="S sfh" d="M1570 1402 L1689 1521 L1817 1521 L1698 1402 Z"/><path class="fh1" d="M1570 1402 L1689 1521 L1817 1521 L1698 1402 Z" /></g><g class="o"><path transform="translate(6,12)" class="S sfh" d="M2015 1590 L1833 1772 L1865 1772 L2047 1590 Z"/><path class="fh3" d="M2015 1590 L1833 1772 L1865 1772 L2047 1590 Z" /></g><g class="o"><path transform="translate(8,16)" class="S sfv" d="M984 1831 L729 2086 L729 2222 L984 1967 Z"/><path class="fv5" d="M984 1831 L729 2086 L729 2222 L984 1967 Z" /></g><g class="o"><path transform="translate(7,14)" class="S sfv" d="M1373 1031 L1562 1220 L1562 1284 L1373 1095 Z"/><path class="fv7" d="M1373 1031 L1562 1220 L1562 1284 L1373 1095 Z" /></g><g class="o"><path transform="translate(7,14)" class="S sfv" d="M1593 1529 L861 2261 L861 2269 L1593 1537 Z"/><path class="fv6" d="M1593 1529 L861 2261 L861 2269 L1593 1537 Z" /></g><g class="o"><path transform="translate(7,14)" class="S sfh" d="M1709 1980 L1955 1734 L2043 1734 L1797 1980 Z"/><path class="fh7" d="M1709 1980 L1955 1734 L2043 1734 L1797 1980 Z" /></g><g class="o"><path transform="translate(9,18)" class="S sfh" d="M1935 1192 L2141 986 L2213 986 L2007 1192 Z"/><path class="fh2" d="M1935 1192 L2141 986 L2213 986 L2007 1192 Z" /></g><g class="o"><path transform="translate(8,16)" class="S sfv" d="M1286 1914 L1195 2005 L1195 2117 L1286 2026 Z"/><path class="fv6" d="M1286 1914 L1195 2005 L1195 2117 L1286 2026 Z" /></g><g class="o"><path transform="translate(4,8)" class="S ss" d="M1112 1810 L1332 2030 L1332 2134 L1112 1914 Z"/><path class="s4" d="M1112 1810 L1332 2030 L1332 2134 L1112 1914 Z" /></g><g class="o"><path transform="translate(4,8)" class="S sfv" d="M1065 1722 L1133 1790 L1133 1870 L1065 1802 Z"/><path class="fv7" d="M1065 1722 L1133 1790 L1133 1870 L1065 1802 Z" /></g><g class="o"><path transform="translate(5,10)" class="S sf" d="M1487 1725 L1324 1888 L1324 1968 L1487 1805 Z"/><path class="f5" d="M1487 1725 L1324 1888 L1324 1968 L1487 1805 Z" /></g><g class="o"><path transform="translate(2,4)" class="S sfh" d="M1381 1072 L1533 920 L1645 920 L1493 1072 Z"/><path class="fh2" d="M1381 1072 L1533 920 L1645 920 L1493 1072 Z" /></g><g class="o"><path transform="translate(5,10)" class="S sfv" d="M1894 1598 L1663 1829 L1663 1957 L1894 1726 Z"/><path class="fv3" d="M1894 1598 L1663 1829 L1663 1957 L1894 1726 Z" /></g><g class="o"><path transform="translate(5,10)" class="S ssh" d="M1706 1730 L1885 1551 L2005 1551 L1826 1730 Z"/><path class="sh7" d="M1706 1730 L1885 1551 L2005 1551 L1826 1730 Z" /></g><g class="o"><path transform="translate(9,18)" class="S ss" d="M1148 1346 L1263 1231 L1285 1231 L1170 1346 Z"/><path class="s2" d="M1148 1346 L1263 1231 L1285 1231 L1170 1346 Z" /></g><g class="o"><path transform="translate(2,4)" class="S ssh" d="M1227 1239 L1045 1057 L1069 1057 L1251 1239 Z"/><path class="sh3" d="M1227 1239 L1045 1057 L1069 1057 L1251 1239 Z" /></g><g class="o"><path transform="translate(4,8)" class="S sfv" d="M1666 1638 L1914 1390 L1914 1404 L1666 1652 Z"/><path class="fv1" d="M1666 1638 L1914 1390 L1914 1404 L1666 1652 Z" /></g><g class="o"><path transform="translate(9,18)" class="S ssh" d="M1877 1101 L1565 789 L1677 789 L1989 1101 Z"/><path class="sh3" d="M1877 1101 L1565 789 L1677 789 L1989 1101 Z" /></g><g class="o"><path transform="translate(6,12)" class="S ssv" d="M1753 1587 L1515 1825 L1515 1861 L1753 1623 Z"/><path class="sv2" d="M1753 1587 L1515 1825 L1515 1861 L1753 1623 Z" /></g><g class="o"><path transform="translate(8,16)" class="S sfh" d="M1745 1154 L1688 1097 L1816 1097 L1873 1154 Z"/><path class="fh6" d="M1745 1154 L1688 1097 L1816 1097 L1873 1154 Z" /></g><g class="o"><path transform="translate(9,18)" class="S ssv" d="M1725 1876 L1795 1806 L1795 1830 L1725 1900 Z"/><path class="sv4" d="M1725 1876 L1795 1806 L1795 1830 L1725 1900 Z" /></g><g class="o"><path transform="translate(4,8)" class="S ssv" d="M1712 1536 L1644 1468 L1644 1596 L1712 1664 Z"/><path class="sv3" d="M1712 1536 L1644 1468 L1644 1596 L1712 1664 Z" /></g><g class="o"><path transform="translate(9,18)" class="S sfv" d="M1383 1423 L1624 1182 L1624 1246 L1383 1487 Z"/><path class="fv5" d="M1383 1423 L1624 1182 L1624 1246 L1383 1487 Z" /></g><g class="o"><path transform="translate(4,8)" class="S sfh" d="M971 987 L1137 821 L1177 821 L1011 987 Z"/><path class="fh5" d="M971 987 L1137 821 L1177 821 L1011 987 Z" /></g><g class="o"><path transform="translate(4,8)" class="S ss" d="M1497 1250 L1248 1001 L1248 1137 L1497 1386 Z"/><path class="s4" d="M1497 1250 L1248 1001 L1248 1137 L1497 1386 Z" /></g><g class="o"><path transform="translate(9,18)" class="S ssv" d="M1978 1449 L1510 1917 L1510 1949 L1978 1481 Z"/><path class="sv5" d="M1978 1449 L1510 1917 L1510 1949 L1978 1481 Z" /></g><g class="o"><path transform="translate(8,16)" class="S ssv" d="M1744 1420 L1957 1207 L1957 1241 L1744 1454 Z"/><path class="sv2" d="M1744 1420 L1957 1207 L1957 1241 L1744 1454 Z" /></g><g class="o"><path transform="translate(7,14)" class="S sfh" d="M1880 2020 L2022 1878 L2086 1878 L1944 2020 Z"/><path class="fh3" d="M1880 2020 L2022 1878 L2086 1878 L1944 2020 Z" /></g><g class="o"><path transform="translate(3,6)" class="S ssh" d="M1162 1843 L1840 2521 L1952 2521 L1274 1843 Z"/><path class="sh6" d="M1162 1843 L1840 2521 L1952 2521 L1274 1843 Z" /></g><g class="o"><path transform="translate(6,12)" class="S sf" d="M1344 1654 L1519 1829 L1547 1829 L1372 1654 Z"/><path class="f2" d="M1344 1654 L1519 1829 L1547 1829 L1372 1654 Z" /></g><g class="o"><path transform="translate(6,12)" class="S sfv" d="M1067 1391 L840 1618 L840 1770 L1067 1543 Z"/><path class="fv6" d="M1067 1391 L840 1618 L840 1770 L1067 1543 Z" /></g><g class="o"><path transform="translate(4,8)" class="S sfh" d="M1170 1228 L1294 1352 L1366 1352 L1242 1228 Z"/><path class="fh6" d="M1170 1228 L1294 1352 L1366 1352 L1242 1228 Z" /></g><g class="o"><path transform="translate(6,12)" class="S sfv" d="M1377 966 L1153 742 L1153 814 L1377 1038 Z"/><path class="fv7" d="M1377 966 L1153 742 L1153 814 L1377 1038 Z" /></g><g class="o"><path transform="translate(3,6)" class="S sfv" d="M1993 1780 L1792 1579 L1792 1627 L1993 1828 Z"/><path class="fv1" d="M1993 1780 L1792 1579 L1792 1627 L1993 1828 Z" /></g><g class="o"><path transform="translate(3,6)" class="S sfh" d="M1911 1798 L2147 2034 L2177 2034 L1941 1798 Z"/><path class="fh4" d="M1911 1798 L2147 2034 L2177 2034 L1941 1798 Z" /></g><g class="o"><path transform="translate(8,16)" class="S sfh" d="M1286 1346 L1486 1146 L1518 1146 L1318 1346 Z"/><path class="fh6" d="M1286 1346 L1486 1146 L1518 1146 L1318 1346 Z" /></g><g class="o"><path transform="translate(8,16)" class="S sfh" d="M1108 1647 L481 1020 L513 1020 L1140 1647 Z"/><path class="fh1" d="M1108 1647 L481 1020 L513 1020 L1140 1647 Z" /></g><g class="o"><path transform="translate(2,4)" class="S ssv" d="M2005 1374 L1919 1460 L1919 1596 L2005 1510 Z"/><path class="sv3" d="M2005 1374 L1919 1460 L1919 1596 L2005 1510 Z" /></g><g class="o"><path transform="translate(7,14)" class="S sfv" d="M1175 1642 L1766 1051 L1766 1171 L1175 1762 Z"/><path class="fv5" d="M1175 1642 L1766 1051 L1766 1171 L1175 1762 Z" /></g><g class="o"><path transform="translate(3,6)" class="S sf" d="M1364 1506 L1134 1736 L1134 1756 L1364 1526 Z"/><path class="f2" d="M1364 1506 L1134 1736 L1134 1756 L1364 1526 Z" /></g><g class="o"><path transform="translate(4,8)" class="S ss" d="M1361 1631 L1211 1781 L1243 1781 L1393 1631 Z"/><path class="s6" d="M1361 1631 L1211 1781 L1243 1781 L1393 1631 Z" /></g><g class="o"><path transform="translate(5,10)" class="S sfh" d="M1814 1438 L1887 1365 L2023 1365 L1950 1438 Z"/><path class="fh4" d="M1814 1438 L1887 1365 L2023 1365 L1950 1438 Z" /></g><g class="o"><path transform="translate(2,4)" class="S sfv" d="M1598 1427 L1979 1808 L1979 1888 L1598 1507 Z"/><path class="fv7" d="M1598 1427 L1979 1808 L1979 1888 L1598 1507 Z" /></g><g class="o"><path transform="translate(6,12)" class="S sfh" d="M1887 1000 L2024 1137 L2056 1137 L1919 1000 Z"/><path class="fh6" d="M1887 1000 L2024 1137 L2056 1137 L1919 1000 Z" /></g><g class="o"><path transform="translate(9,18)" class="S sf" d="M1821 1957 L1670 1806 L1702 1806 L1853 1957 Z"/><path class="f6" d="M1821 1957 L1670 1806 L1702 1806 L1853 1957 Z" /></g></g><use href="#slashes" transform-origin="1500 1500" transform="rotate(180) scale(2)"/></g><rect x="1080" y="1080" width="840" height="840" stroke-width="80" class="o s7" /><use href="#slashes" transform-origin="1500 1500" transform="scale(.9)"/><use href="#slashes" transform-origin="1500 1500" transform="rotate(180) scale(.9)"/></svg>