<svg xmlns="http://www.w3.org/2000/svg" viewBox="750 750 1500 1500"><style>/*<![CDATA[*/svg{background:rgb(115,115,115);max-width:100vw;max-height:100vh}path{stroke-width:4}.o{opacity:.75}.S{opacity:.4}.sf{stroke:none;fill:black}.sfh{stroke:none;fill:url(#hs)}.sfv{stroke:none;fill:url(#vs)}.ss{stroke:black;fill:none}.ssh{stroke:url(#hs);fill:none}.ssv{stroke:url(#vs);fill:none}.s1{fill:none;stroke:rgb(64,64,64)}.f1{stroke:none;fill:rgb(64,64,64)}.sh1{fill:none;stroke:url(#h1)}.fh1{stroke:none;fill:url(#h1)}.sv1{fill:none;stroke:url(#v1)}.fv1{stroke:none;fill:url(#v1)}.s2{fill:none;stroke:rgb(34,34,34)}.f2{stroke:none;fill:rgb(34,34,34)}.sh2{fill:none;stroke:url(#h2)}.fh2{stroke:none;fill:url(#h2)}.sv2{fill:none;stroke:url(#v2)}.fv2{stroke:none;fill:url(#v2)}.s3{fill:none;stroke:rgb(13,13,13)}.f3{stroke:none;fill:rgb(13,13,13)}.sh3{fill:none;stroke:url(#h3)}.fh3{stroke:none;fill:url(#h3)}.sv3{fill:none;stroke:url(#v3)}.fv3{stroke:none;fill:url(#v3)}.s4{fill:none;stroke:rgb(166,166,166)}.f4{stroke:none;fill:rgb(166,166,166)}.sh4{fill:none;stroke:url(#h4)}.fh4{stroke:none;fill:url(#h4)}.sv4{fill:none;stroke:url(#v4)}.fv4{stroke:none;fill:url(#v4)}.s5{fill:none;stroke:rgb(38,38,38)}.f5{stroke:none;fill:rgb(38,38,38)}.sh5{fill:none;stroke:url(#h5)}.fh5{stroke:none;fill:url(#h5)}.sv5{fill:none;stroke:url(#v5)}.fv5{stroke:none;fill:url(#v5)}.s6{fill:none;stroke:rgb(255,255,255)}.f6{stroke:none;fill:rgb(255,255,255)}.sh6{fill:none;stroke:url(#h6)}.fh6{stroke:none;fill:url(#h6)}.sv6{fill:none;stroke:url(#v6)}.fv6{stroke:none;fill:url(#v6)}.s7{fill:none;stroke:rgb(255,0,0)}.f7{stroke:none;fill:rgb(255,0,0)}.sh7{fill:none;stroke:url(#h7)}.fh7{stroke:none;fill:url(#h7)}.sv7{fill:none;stroke:url(#v7)}.fv7{stroke:none;fill:url(#v7)}/*]]>*/</style><defs><linearGradient gradientTransform="rotate(90)" id="hs"><stop offset="20%" stop-color="#000" /><stop offset="95%" stop-color="rgba(0, 0, 0, 0)" /></linearGradient><linearGradient id="vs"><stop offset="20%" stop-color="#000" /><stop offset="95%" stop-color="rgba(0, 0, 0, 0)" /></linearGradient><linearGradient gradientTransform="rotate(90)" id="h1"><stop offset="20%" stop-color="rgba(64,64,64,1)" /><stop offset="95%" stop-color="rgba(64,64,64,0)" /></linearGradient><linearGradient id="v1"><stop offset="20%" stop-color="rgba(64,64,64,1)" /><stop offset="95%" stop-color="rgba(64,64,64,0)" /></linearGradient><linearGradient gradientTransform="rotate(90)" id="h2"><stop offset="20%" stop-color="rgba(34,34,34,1)" /><stop offset="95%" stop-color="rgba(34,34,34,0)" /></linearGradient><linearGradient id="v2"><stop offset="20%" stop-color="rgba(34,34,34,1)" /><stop offset="95%" stop-color="rgba(34,34,34,0)" /></linearGradient><linearGradient gradientTransform="rotate(90)" id="h3"><stop offset="20%" stop-color="rgba(13,13,13,1)" /><stop offset="95%" stop-color="rgba(13,13,13,0)" /></linearGradient><linearGradient id="v3"><stop offset="20%" stop-color="rgba(13,13,13,1)" /><stop offset="95%" stop-color="rgba(13,13,13,0)" /></linearGradient><linearGradient gradientTransform="rotate(90)" id="h4"><stop offset="20%" stop-color="rgba(166,166,166,1)" /><stop offset="95%" stop-color="rgba(166,166,166,0)" /></linearGradient><linearGradient id="v4"><stop offset="20%" stop-color="rgba(166,166,166,1)" /><stop offset="95%" stop-color="rgba(166,166,166,0)" /></linearGradient><linearGradient gradientTransform="rotate(90)" id="h5"><stop offset="20%" stop-color="rgba(38,38,38,1)" /><stop offset="95%" stop-color="rgba(38,38,38,0)" /></linearGradient><linearGradient id="v5"><stop offset="20%" stop-color="rgba(38,38,38,1)" /><stop offset="95%" stop-color="rgba(38,38,38,0)" /></linearGradient><linearGradient gradientTransform="rotate(90)" id="h6"><stop offset="20%" stop-color="rgba(255,255,255,1)" /><stop offset="95%" stop-color="rgba(255,255,255,0)" /></linearGradient><linearGradient id="v6"><stop offset="20%" stop-color="rgba(255,255,255,1)" /><stop offset="95%" stop-color="rgba(255,255,255,0)" /></linearGradient><linearGradient gradientTransform="rotate(90)" id="h7"><stop offset="20%" stop-color="rgba(255,0,0,1)" /><stop offset="95%" stop-color="rgba(255,0,0,0)" /></linearGradient><linearGradient id="v7"><stop offset="20%" stop-color="rgba(255,0,0,1)" /><stop offset="95%" stop-color="rgba(255,0,0,0)" /></linearGradient></defs><g transform-origin="1500 1500" transform="scale(2)" opacity=".2"><g id="slashes"><g class="o"><path transform="translate(7,14)" class="S sfv" d="M1203 943 L1282 1022 L1282 1126 L1203 1047 Z"/><path class="fv6" d="M1203 943 L1282 1022 L1282 1126 L1203 1047 Z" /></g><g class="o"><path transform="translate(3,6)" class="S sfh" d="M1026 1924 L1182 1768 L1198 1768 L1042 1924 Z"/><path class="fh6" d="M1026 1924 L1182 1768 L1198 1768 L1042 1924 Z" /></g><g class="o"><path transform="translate(4,8)" class="S sf" d="M1700 1261 L1931 1492 L2051 1492 L1820 1261 Z"/><path class="f2" d="M1700 1261 L1931 1492 L2051 1492 L1820 1261 Z" /></g><g class="o"><path transform="translate(7,14)" class="S sfh" d="M1734 1753 L1914 1933 L2066 1933 L1886 1753 Z"/><path class="fh6" d="M1734 1753 L1914 1933 L2066 1933 L1886 1753 Z" /></g><g class="o"><path transform="translate(2,4)" class="S sfh" d="M1261 1675 L1450 1864 L1530 1864 L1341 1675 Z"/><path class="fh2" d="M1261 1675 L1450 1864 L1530 1864 L1341 1675 Z" /></g><g class="o"><path transform="translate(3,6)" class="S sfh" d="M1537 1746 L1764 1519 L1796 1519 L1569 1746 Z"/><path class="fh5" d="M1537 1746 L1764 1519 L1796 1519 L1569 1746 Z" /></g><g class="o"><path transform="translate(8,16)" class="S sfv" d="M1131 1989 L1353 2211 L1353 2299 L1131 2077 Z"/><path class="fv6" d="M1131 1989 L1353 2211 L1353 2299 L1131 2077 Z" /></g><g class="o"><path transform="translate(8,16)" class="S sfh" d="M1164 1296 L1336 1124 L1368 1124 L1196 1296 Z"/><path class="fh4" d="M1164 1296 L1336 1124 L1368 1124 L1196 1296 Z" /></g><g class="o"><path transform="translate(5,10)" class="S sfv" d="M1780 1105 L1882 1207 L1882 1351 L1780 1249 Z"/><path class="fv6" d="M1780 1105 L1882 1207 L1882 1351 L1780 1249 Z" /></g><g class="o"><path transform="translate(9,18)" class="S sfh" d="M1454 1083 L1587 1216 L1623 1216 L1490 1083 Z"/><path class="fh5" d="M1454 1083 L1587 1216 L1623 1216 L1490 1083 Z" /></g><g class="o"><path transform="translate(4,8)" class="S sf" d="M1079 1707 L1297 1925 L1441 1925 L1223 1707 Z"/><path class="f5" d="M1079 1707 L1297 1925 L1441 1925 L1223 1707 Z" /></g><g class="o"><path transform="translate(5,10)" class="S ssv" d="M1851 1933 L1987 2069 L1987 2077 L1851 1941 Z"/><path class="sv5" d="M1851 1933 L1987 2069 L1987 2077 L1851 1941 Z" /></g><g class="o"><path transform="translate(7,14)" class="S ssv" d="M1721 1000 L1882 1161 L1882 1193 L1721 1032 Z"/><path class="sv4" d="M1721 1000 L1882 1161 L1882 1193 L1721 1032 Z" /></g><g class="o"><path transform="translate(3,6)" class="S sf" d="M1718 1457 L1930 1669 L1930 1741 L1718 1529 Z"/><path class="f3" d="M1718 1457 L1930 1669 L1930 1741 L1718 1529 Z" /></g><g class="o"><path transform="translate(6,12)" class="S sfv" d="M966 1208 L1213 1455 L1213 1495 L966 1248 Z"/><path class="fv6" d="M966 1208 L1213 1455 L1213 1495 L966 1248 Z" /></g><g class="o"><path transform="translate(4,8)" class="S sfv" d="M977 1575 L1169 1383 L1169 1479 L977 1671 Z"/><path class="fv2" d="M977 1575 L1169 1383 L1169 1479 L977 1671 Z" /></g><g class="o"><path transform="translate(2,4)" class="S sfh" d="M1901 1401 L2022 1522 L2142 1522 L2021 1401 Z"/><path class="fh5" d="M1901 1401 L2022 1522 L2142 1522 L2021 1401 Z" /></g><g class="o"><path transform="translate(3,6)" class="S sfh" d="M1552 1924 L1680 2052 L1718 2052 L1590 1924 Z"/><path class="fh6" d="M1552 1924 L1680 2052 L1718 2052 L1590 1924 Z" /></g><g class="o"><path transform="translate(4,8)" class="S sfv" d="M1619 1675 L1835 1459 L1835 1491 L1619 1707 Z"/><path class="fv3" d="M1619 1675 L1835 1459 L1835 1491 L1619 1707 Z" /></g><g class="o"><path transform="translate(9,18)" class="S sfh" d="M1970 1305 L2129 1464 L2159 1464 L2000 1305 Z"/><path class="fh6" d="M1970 1305 L2129 1464 L2159 1464 L2000 1305 Z" /></g><g class="o"><path transform="translate(9,18)" class="S sfh" d="M1275 1192 L1344 1261 L1480 1261 L1411 1192 Z"/><path class="fh1" d="M1275 1192 L1344 1261 L1480 1261 L1411 1192 Z" /></g><g class="o"><path transform="translate(4,8)" class="S sfh" d="M1566 2038 L2028 2500 L2164 2500 L1702 2038 Z"/><path class="fh6" d="M1566 2038 L2028 2500 L2164 2500 L1702 2038 Z" /></g><g class="o"><path transform="translate(4,8)" class="S sfv" d="M988 1565 L1115 1692 L1115 1780 L988 1653 Z"/><path class="fv5" d="M988 1565 L1115 1692 L1115 1780 L988 1653 Z" /></g><g class="o"><path transform="translate(8,16)" class="S sfh" d="M1494 1960 L1570 2036 L1658 2036 L1582 1960 Z"/><path class="fh3" d="M1494 1960 L1570 2036 L1658 2036 L1582 1960 Z" /></g><g class="o"><path transform="translate(3,6)" class="S sfh" d="M1105 1283 L1272 1450 L1392 1450 L1225 1283 Z"/><path class="fh5" d="M1105 1283 L1272 1450 L1392 1450 L1225 1283 Z" /></g><g class="o"><path transform="translate(3,6)" class="S ssv" d="M1437 1661 L1537 1761 L1537 1797 L1437 1697 Z"/><path class="sv1" d="M1437 1661 L1537 1761 L1537 1797 L1437 1697 Z" /></g><g class="o"><path transform="translate(6,12)" class="S sfv" d="M1606 1077 L1805 1276 L1805 1308 L1606 1109 Z"/><path class="fv7" d="M1606 1077 L1805 1276 L1805 1308 L1606 1109 Z" /></g><g class="o"><path transform="translate(6,12)" class="S sfh" d="M1646 1136 L1865 1355 L1913 1355 L1694 1136 Z"/><path class="fh4" d="M1646 1136 L1865 1355 L1913 1355 L1694 1136 Z" /></g><g class="o"><path transform="translate(3,6)" class="S ssh" d="M1562 1559 L2108 1013 L2188 1013 L1642 1559 Z"/><path class="sh6" d="M1562 1559 L2108 1013 L2188 1013 L1642 1559 Z" /></g><g class="o"><path transform="translate(3,6)" class="S sfv" d="M1239 1911 L1354 1796 L1354 1892 L1239 2007 Z"/><path class="fv1" d="M1239 1911 L1354 1796 L1354 1892 L1239 2007 Z" /></g><g class="o"><path transform="translate(3,6)" class="S sfh" d="M1144 1016 L1300 1172 L1318 1172 L1162 1016 Z"/><path class="fh4" d="M1144 1016 L1300 1172 L1318 1172 L1162 1016 Z" /></g><g class="o"><path transform="translate(4,8)" class="S sfv" d="M1255 1548 L1792 2085 L1792 2189 L1255 1652 Z"/><path class="fv3" d="M1255 1548 L1792 2085 L1792 2189 L1255 1652 Z" /></g><g class="o"><path transform="translate(8,16)" class="S ssh" d="M1046 1196 L1147 1297 L1155 1297 L1054 1196 Z"/><path class="sh1" d="M1046 1196 L1147 1297 L1155 1297 L1054 1196 Z" /></g><g class="o"><path transform="translate(8,16)" class="S sfv" d="M1526 1138 L1658 1006 L1658 1134 L1526 1266 Z"/><path class="fv2" d="M1526 1138 L1658 1006 L1658 1134 L1526 1266 Z" /></g><g class="o"><path transform="translate(3,6)" class="S sf" d="M1646 1871 L1757 1982 L1757 2086 L1646 1975 Z"/><path class="f4" d="M1646 1871 L1757 1982 L1757 2086 L1646 1975 Z" /></g><g class="o"><path transform="translate(7,14)" class="S sf" d="M1377 1459 L1518 1600 L1518 1620 L1377 1479 Z"/><path class="f5" d="M1377 1459 L1518 1600 L1518 1620 L1377 1479 Z" /></g><g class="o"><path transform="translate(9,18)" class="S ssh" d="M1694 1326 L1783 1415 L1919 1415 L1830 1326 Z"/><path class="sh1" d="M1694 1326 L1783 1415 L1919 1415 L1830 1326 Z" /></g><g class="o"><path transform="translate(5,10)" class="S sfh" d="M1374 1216 L1601 1443 L1649 1443 L1422 1216 Z"/><path class="fh5" d="M1374 1216 L1601 1443 L1649 1443 L1422 1216 Z" /></g><g class="o"><path transform="translate(8,16)" class="S sfh" d="M1834 1061 L2063 832 L2127 832 L1898 1061 Z"/><path class="fh4" d="M1834 1061 L2063 832 L2127 832 L1898 1061 Z" /></g><g class="o"><path transform="translate(3,6)" class="S sf" d="M1802 1879 L1890 1967 L1890 2039 L1802 1951 Z"/><path class="f6" d="M1802 1879 L1890 1967 L1890 2039 L1802 1951 Z" /></g><g class="o"><path transform="translate(7,14)" class="S ssv" d="M1615 1515 L1790 1690 L1790 1722 L1615 1547 Z"/><path class="sv3" d="M1615 1515 L1790 1690 L1790 1722 L1615 1547 Z" /></g><g class="o"><path transform="translate(5,10)" class="S sf" d="M2016 1188 L2080 1252 L2080 1324 L2016 1260 Z"/><path class="f5" d="M2016 1188 L2080 1252 L2080 1324 L2016 1260 Z" /></g><g class="o"><path transform="translate(8,16)" class="S ssv" d="M1334 2011 L1859 2536 L1859 2576 L1334 2051 Z"/><path class="sv1" d="M1334 2011 L1859 2536 L1859 2576 L1334 2051 Z" /></g><g class="o"><path transform="translate(8,16)" class="S ssh" d="M1934 1104 L2161 877 L2313 877 L2086 1104 Z"/><path class="sh6" d="M1934 1104 L2161 877 L2313 877 L2086 1104 Z" /></g><g class="o"><path transform="translate(3,6)" class="S sfv" d="M1708 1486 L1905 1683 L1905 1803 L1708 1606 Z"/><path class="fv6" d="M1708 1486 L1905 1683 L1905 1803 L1708 1606 Z" /></g><g class="o"><path transform="translate(5,10)" class="S sfh" d="M1598 1643 L1808 1853 L1888 1853 L1678 1643 Z"/><path class="fh2" d="M1598 1643 L1808 1853 L1888 1853 L1678 1643 Z" /></g><g class="o"><path transform="translate(2,4)" class="S sfh" d="M1468 1826 L1529 1765 L1681 1765 L1620 1826 Z"/><path class="fh7" d="M1468 1826 L1529 1765 L1681 1765 L1620 1826 Z" /></g><g class="o"><path transform="translate(6,12)" class="S sfh" d="M1750 1050 L1961 1261 L1993 1261 L1782 1050 Z"/><path class="fh1" d="M1750 1050 L1961 1261 L1993 1261 L1782 1050 Z" /></g><g class="o"><path transform="translate(7,14)" class="S sfv" d="M1215 1582 L1539 1258 L1539 1306 L1215 1630 Z"/><path class="fv4" d="M1215 1582 L1539 1258 L1539 1306 L1215 1630 Z" /></g><g class="o"><path transform="translate(5,10)" class="S sfv" d="M2002 1967 L2168 1801 L2168 1849 L2002 2015 Z"/><path class="fv2" d="M2002 1967 L2168 1801 L2168 1849 L2002 2015 Z" /></g><g class="o"><path transform="translate(2,4)" class="S ss" d="M1869 1159 L2109 919 L2229 919 L1989 1159 Z"/><path class="s2" d="M1869 1159 L2109 919 L2229 919 L1989 1159 Z" /></g><g class="o"><path transform="translate(5,10)" class="S sfv" d="M1592 1057 L1699 1164 L1699 1212 L1592 1105 Z"/><path class="fv3" d="M1592 1057 L1699 1164 L1699 1212 L1592 1105 Z" /></g><g class="o"><path transform="translate(9,18)" class="S sfh" d="M1306 1721 L1476 1891 L1488 1891 L1318 1721 Z"/><path class="fh7" d="M1306 1721 L1476 1891 L1488 1891 L1318 1721 Z" /></g><g class="o"><path transform="translate(4,8)" class="S sfh" d="M1917 1523 L2475 2081 L2603 2081 L2045 1523 Z"/><path class="fh5" d="M1917 1523 L2475 2081 L2603 2081 L2045 1523 Z" /></g><g class="o"><path transform="translate(9,18)" class="S sfh" d="M1865 1236 L1930 1301 L2066 1301 L2001 1236 Z"/><path class="fh3" d="M1865 1236 L1930 1301 L2066 1301 L2001 1236 Z" /></g><g class="o"><path transform="translate(8,16)" class="S sfv" d="M1111 1352 L1396 1067 L1396 1107 L1111 1392 Z"/><path class="fv4" d="M1111 1352 L1396 1067 L1396 1107 L1111 1392 Z" /></g><g class="o"><path transform="translate(4,8)" class="S sfh" d="M984 1860 L1374 2250 L1462 2250 L1072 1860 Z"/><path class="fh6" d="M984 1860 L1374 2250 L1462 2250 L1072 1860 Z" /></g><g class="o"><path transform="translate(7,14)" class="S sfv" d="M1966 1154 L2060 1248 L2060 1384 L1966 1290 Z"/><path class="fv1" d="M1966 1154 L2060 1248 L2060 1384 L1966 1290 Z" /></g><g class="o"><path transform="translate(5,10)" class="S sfh" d="M1286 1966 L1350 1902 L1478 1902 L1414 1966 Z"/><path class="fh6" d="M1286 1966 L1350 1902 L1478 1902 L1414 1966 Z" /></g><g class="o"><path transform="translate(5,10)" class="S ssh" d="M1550 1435 L1910 1795 L1966 1795 L1606 1435 Z"/><path class="sh6" d="M1550 1435 L1910 1795 L1966 1795 L1606 1435 Z" /></g><g class="o"><path transform="translate(2,4)" class="S sfh" d="M1810 1262 L2542 530 L2574 530 L1842 1262 Z"/><path class="fh3" d="M1810 1262 L2542 530 L2574 530 L1842 1262 Z" /></g><g class="o"><path transform="translate(3,6)" class="S sf" d="M1402 1750 L1469 1683 L1469 1715 L1402 1782 Z"/><path class="f5" d="M1402 1750 L1469 1683 L1469 1715 L1402 1782 Z" /></g><g class="o"><path transform="translate(3,6)" class="S sfh" d="M1013 1394 L1242 1165 L1322 1165 L1093 1394 Z"/><path class="fh4" d="M1013 1394 L1242 1165 L1322 1165 L1093 1394 Z" /></g><g class="o"><path transform="translate(8,16)" class="S ssh" d="M1953 1904 L2174 2125 L2246 2125 L2025 1904 Z"/><path class="sh3" d="M1953 1904 L2174 2125 L2246 2125 L2025 1904 Z" /></g><g class="o"><path transform="translate(6,12)" class="S sfh" d="M1320 1054 L1444 1178 L1516 1178 L1392 1054 Z"/><path class="fh6" d="M1320 1054 L1444 1178 L1516 1178 L1392 1054 Z" /></g><g class="o"><path transform="translate(3,6)" class="S sfh" d="M903 1475 L1149 1721 L1245 1721 L999 1475 Z"/><path class="fh6" d="M903 1475 L1149 1721 L1245 1721 L999 1475 Z" /></g><g class="o"><path transform="translate(9,18)" class="S sfv" d="M1371 1691 L1510 1830 L1510 1850 L1371 1711 Z"/><path class="fv4" d="M1371 1691 L1510 1830 L1510 1850 L1371 1711 Z" /></g><g class="o"><path transform="translate(5,10)" class="S sfh" d="M1362 1425 L1638 1701 L1726 1701 L1450 1425 Z"/><path class="fh6" d="M1362 1425 L1638 1701 L1726 1701 L1450 1425 Z" /></g><g class="o"><path transform="translate(6,12)" class="S ssv" d="M1374 1205 L1596 1427 L1596 1571 L1374 1349 Z"/><path class="sv5" d="M1374 1205 L1596 1427 L1596 1571 L1374 1349 Z" /></g><g class="o"><path transform="translate(6,12)" class="S sf" d="M1826 1178 L2010 1362 L2010 1372 L1826 1188 Z"/><path class="f6" d="M1826 1178 L2010 1362 L2010 1372 L1826 1188 Z" /></g><g class="o"><path transform="translate(5,10)" class="S sfh" d="M1401 1794 L1526 1919 L1582 1919 L1457 1794 Z"/><path class="fh4" d="M1401 1794 L1526 1919 L1582 1919 L1457 1794 Z" /></g><g class="o"><path transform="translate(5,10)" class="S sfh" d="M958 1532 L1053 1437 L1125 1437 L1030 1532 Z"/><path class="fh5" d="M958 1532 L1053 1437 L1125 1437 L1030 1532 Z" /></g><g class="o"><path transform="translate(5,10)" class="S ssv" d="M1665 1078 L1736 1007 L1736 1039 L1665 1110 Z"/><path class="sv4" d="M1665 1078 L1736 1007 L1736 1039 L1665 1110 Z" /></g><g class="o"><path transform="translate(5,10)" class="S ssv" d="M1122 1528 L1307 1713 L1307 1745 L1122 1560 Z"/><path class="sv7" d="M1122 1528 L1307 1713 L1307 1745 L1122 1560 Z" /></g><g class="o"><path transform="translate(6,12)" class="S sfh" d="M1190 1745 L1310 1865 L1462 1865 L1342 1745 Z"/><path class="fh3" d="M1190 1745 L1310 1865 L1462 1865 L1342 1745 Z" /></g><g class="o"><path transform="translate(4,8)" class="S sfv" d="M1883 1286 L1998 1401 L1998 1521 L1883 1406 Z"/><path class="fv2" d="M1883 1286 L1998 1401 L1998 1521 L1883 1406 Z" /></g><g class="o"><path transform="translate(9,18)" class="S sfv" d="M1443 922 L1626 1105 L1626 1193 L1443 1010 Z"/><path class="fv4" d="M1443 922 L1626 1105 L1626 1193 L1443 1010 Z" /></g><g class="o"><path transform="translate(5,10)" class="S sfh" d="M938 1778 L1136 1580 L1280 1580 L1082 1778 Z"/><path class="fh6" d="M938 1778 L1136 1580 L1280 1580 L1082 1778 Z" /></g><g class="o"><path transform="translate(3,6)" class="S sfh" d="M1878 1032 L1966 944 L1998 944 L1910 1032 Z"/><path class="fh6" d="M1878 1032 L1966 944 L1998 944 L1910 1032 Z" /></g><g class="o"><path transform="translate(9,18)" class="S sfv" d="M1923 965 L2169 1211 L2169 1233 L1923 987 Z"/><path class="fv3" d="M1923 965 L2169 1211 L2169 1233 L1923 987 Z" /></g><g class="o"><path transform="translate(2,4)" class="S sfv" d="M968 1244 L1403 1679 L1403 1743 L968 1308 Z"/><path class="fv7" d="M968 1244 L1403 1679 L1403 1743 L968 1308 Z" /></g><g class="o"><path transform="translate(8,16)" class="S sfh" d="M1028 1567 L1670 2209 L1822 2209 L1180 1567 Z"/><path class="fh1" d="M1028 1567 L1670 2209 L1822 2209 L1180 1567 Z" /></g><g class="o"><path transform="translate(5,10)" class="S sfh" d="M1379 1145 L1544 1310 L1696 1310 L1531 1145 Z"/><path class="fh2" d="M1379 1145 L1544 1310 L1696 1310 L1531 1145 Z" /></g><g class="o"><path transform="translate(8,16)" class="S sfv" d="M1762 1638 L2155 2031 L2155 2063 L1762 1670 Z"/><path class="fv1" d="M1762 1638 L2155 2031 L2155 2063 L1762 1670 Z" /></g><g class="o"><path transform="translate(4,8)" class="S ssv" d="M1896 1924 L2133 1687 L2133 1727 L1896 1964 Z"/><path class="sv2" d="M1896 1924 L2133 1687 L2133 1727 L1896 1964 Z" /></g><g class="o"><path transform="translate(5,10)" class="S sf" d="M1228 1321 L1411 1138 L1507 1138 L1324 1321 Z"/><path class="f3" d="M1228 1321 L1411 1138 L1507 1138 L1324 1321 Z" /></g><g class="o"><path transform="translate(3,6)" class="S sfh" d="M980 1247 L1168 1059 L1200 1059 L1012 1247 Z"/><path class="fh2" d="M980 1247 L1168 1059 L1200 1059 L1012 1247 Z" /></g><g class="o"><path transform="translate(8,16)" class="S sfv" d="M1094 1466 L1280 1652 L1280 1684 L1094 1498 Z"/><path class="fv6" d="M1094 1466 L1280 1652 L1280 1684 L1094 1498 Z" /></g><g class="o"><path transform="translate(5,10)" class="S sfv" d="M1992 1691 L2158 1525 L2158 1629 L1992 1795 Z"/><path class="fv6" d="M1992 1691 L2158 1525 L2158 1629 L1992 1795 Z" /></g><g class="o"><path transform="translate(9,18)" class="S sfh" d="M1405 1228 L1576 1399 L1616 1399 L1445 1228 Z"/><path class="fh7" d="M1405 1228 L1576 1399 L1616 1399 L1445 1228 Z" /></g><g class="o"><path transform="translate(9,18)" class="S sf" d="M1632 1291 L1820 1479 L1932 1479 L1744 1291 Z"/><path class="f2" d="M1632 1291 L1820 1479 L1932 1479 L1744 1291 Z" /></g><g class="o"><path transform="translate(3,6)" class="S sfh" d="M1484 1635 L1614 1765 L1726 1765 L1596 1635 Z"/><path class="fh7" d="M1484 1635 L1614 1765 L1726 1765 L1596 1635 Z" /></g><g class="o"><path transform="translate(4,8)" class="S ss" d="M1042 1816 L1108 1882 L1132 1882 L1066 1816 Z"/><path class="s1" d="M1042 1816 L1108 1882 L1132 1882 L1066 1816 Z" /></g><g class="o"><path transform="translate(6,12)" class="S ssv" d="M1830 1391 L1905 1466 L1905 1506 L1830 1431 Z"/><path class="sv2" d="M1830 1391 L1905 1466 L1905 1506 L1830 1431 Z" /></g><g class="o"><path transform="translate(7,14)" class="S sfh" d="M1189 1637 L1423 1403 L1463 1403 L1229 1637 Z"/><path class="fh2" d="M1189 1637 L1423 1403 L1463 1403 L1229 1637 Z" /></g><g class="o"><path transform="translate(6,12)" class="S sf" d="M1315 1088 L1382 1021 L1382 1069 L1315 1136 Z"/><path class="f1" d="M1315 1088 L1382 1021 L1382 1069 L1315 1136 Z" /></g><g class="o"><path transform="translate(2,4)" class="S sfh" d="M938 1422 L1355 1839 L1491 1839 L1074 1422 Z"/><path class="fh2" d="M938 1422 L1355 1839 L1491 1839 L1074 1422 Z" /></g><g class="o"><path transform="translate(5,10)" class="S ss" d="M1224 1848 L1323 1947 L1355 1947 L1256 1848 Z"/><path class="s6" d="M1224 1848 L1323 1947 L1355 1947 L1256 1848 Z" /></g><g class="o"><path transform="translate(8,16)" class="S ssh" d="M1098 1395 L1290 1587 L1418 1587 L1226 1395 Z"/><path class="sh1" d="M1098 1395 L1290 1587 L1418 1587 L1226 1395 Z" /></g><g class="o"><path transform="translate(4,8)" class="S sfh" d="M1878 2042 L1942 2106 L2046 2106 L1982 2042 Z"/><path class="fh4" d="M1878 2042 L1942 2106 L2046 2106 L1982 2042 Z" /></g><g class="o"><path transform="translate(9,18)" class="S sf" d="M966 1434 L1175 1643 L1231 1643 L1022 1434 Z"/><path class="f5" d="M966 1434 L1175 1643 L1231 1643 L1022 1434 Z" /></g><g class="o"><path transform="translate(7,14)" class="S sfv" d="M1823 1374 L2474 2025 L2474 2065 L1823 1414 Z"/><path class="fv5" d="M1823 1374 L2474 2025 L2474 2065 L1823 1414 Z" /></g><g class="o"><path transform="translate(9,18)" class="S sf" d="M1221 956 L1287 1022 L1287 1078 L1221 1012 Z"/><path class="f6" d="M1221 956 L1287 1022 L1287 1078 L1221 1012 Z" /></g><g class="o"><path transform="translate(5,10)" class="S sfh" d="M1175 1451 L1365 1641 L1379 1641 L1189 1451 Z"/><path class="fh7" d="M1175 1451 L1365 1641 L1379 1641 L1189 1451 Z" /></g><g class="o"><path transform="translate(9,18)" class="S sfh" d="M977 1118 L1158 1299 L1294 1299 L1113 1118 Z"/><path class="fh7" d="M977 1118 L1158 1299 L1294 1299 L1113 1118 Z" /></g><g class="o"><path transform="translate(6,12)" class="S sfv" d="M1080 1782 L1383 2085 L1383 2121 L1080 1818 Z"/><path class="fv3" d="M1080 1782 L1383 2085 L1383 2121 L1080 1818 Z" /></g><g class="o"><path transform="translate(3,6)" class="S ssv" d="M1404 1991 L1467 2054 L1467 2134 L1404 2071 Z"/><path class="sv3" d="M1404 1991 L1467 2054 L1467 2134 L1404 2071 Z" /></g><g class="o"><path transform="translate(7,14)" class="S sfh" d="M1238 1422 L1517 1701 L1527 1701 L1248 1422 Z"/><path class="fh4" d="M1238 1422 L1517 1701 L1527 1701 L1248 1422 Z" /></g><g class="o"><path transform="translate(7,14)" class="S sfv" d="M1960 924 L2146 1110 L2146 1246 L1960 1060 Z"/><path class="fv7" d="M1960 924 L2146 1110 L2146 1246 L1960 1060 Z" /></g><g class="o"><path transform="translate(2,4)" class="S sfv" d="M1209 1307 L1282 1380 L1282 1412 L1209 1339 Z"/><path class="fv7" d="M1209 1307 L1282 1380 L1282 1412 L1209 1339 Z" /></g><g class="o"><path transform="translate(6,12)" class="S sfh" d="M1494 1385 L1642 1533 L1722 1533 L1574 1385 Z"/><path class="fh1" d="M1494 1385 L1642 1533 L1722 1533 L1574 1385 Z" /></g><g class="o"><path transform="translate(2,4)" class="S sfh" d="M1501 1630 L1674 1803 L1754 1803 L1581 1630 Z"/><path class="fh4" d="M1501 1630 L1674 1803 L1754 1803 L1581 1630 Z" /></g><g class="o"><path transform="translate(7,14)" class="S sfv" d="M1079 1059 L1268 1248 L1268 1384 L1079 1195 Z"/><path class="fv2" d="M1079 1059 L1268 1248 L1268 1384 L1079 1195 Z" /></g><g class="o"><path transform="translate(4,8)" class="S sf" d="M1426 1768 L1530 1872 L1594 1872 L1490 1768 Z"/><path class="f1" d="M1426 1768 L1530 1872 L1594 1872 L1490 1768 Z" /></g><g class="o"><path transform="translate(7,14)" class="S sf" d="M1285 1190 L1368 1107 L1520 1107 L1437 1190 Z"/><path class="f1" d="M1285 1190 L1368 1107 L1520 1107 L1437 1190 Z" /></g><g class="o"><path transform="translate(7,14)" class="S sfv" d="M1709 1224 L1782 1297 L1782 1433 L1709 1360 Z"/><path class="fv2" d="M1709 1224 L1782 1297 L1782 1433 L1709 1360 Z" /></g><g class="o"><path transform="translate(9,18)" class="S sfh" d="M1250 1396 L1371 1275 L1379 1275 L1258 1396 Z"/><path class="fh3" d="M1250 1396 L1371 1275 L1379 1275 L1258 1396 Z" /></g><g class="o"><path transform="translate(9,18)" class="S sfv" d="M1345 1691 L1564 1910 L1564 1958 L1345 1739 Z"/><path class="fv3" d="M1345 1691 L1564 1910 L1564 1958 L1345 1739 Z" /></g><g class="o"><path transform="translate(2,4)" class="S ss" d="M1050 1276 L1503 1729 L1631 1729 L1178 1276 Z"/><path class="s1" d="M1050 1276 L1503 1729 L1631 1729 L1178 1276 Z" /></g><g class="o"><path transform="translate(4,8)" class="S sfh" d="M1980 1717 L2040 1657 L2078 1657 L2018 1717 Z"/><path class="fh7" d="M1980 1717 L2040 1657 L2078 1657 L2018 1717 Z" /></g></g><use href="#slashes" transform-origin="1500 1500" transform="rotate(180) scale(2)"/></g><polyline points="1500,1010 1990,1500 1500,1990 1010,1500 1500,1010 1990,1500" stroke-width="10" class="o s1" /><use href="#slashes" transform-origin="1500 1500" transform="scale(.6)"/><use href="#slashes" transform-origin="1500 1500" transform="rotate(180) scale(.6)"/></svg>