<svg xmlns="http://www.w3.org/2000/svg" viewBox="750 750 1500 1500"><style>/*<![CDATA[*/svg{background:rgb(221,221,221);max-width:100vw;max-height:100vh}path{stroke-width:4}.o{opacity:.75}.S{opacity:.4}.sf{stroke:none;fill:black}.sfh{stroke:none;fill:url(#hs)}.sfv{stroke:none;fill:url(#vs)}.ss{stroke:black;fill:none}.ssh{stroke:url(#hs);fill:none}.ssv{stroke:url(#vs);fill:none}.s1{fill:none;stroke:rgb(34,34,34)}.f1{stroke:none;fill:rgb(34,34,34)}.sh1{fill:none;stroke:url(#h1)}.fh1{stroke:none;fill:url(#h1)}.sv1{fill:none;stroke:url(#v1)}.fv1{stroke:none;fill:url(#v1)}.s2{fill:none;stroke:rgb(146,155,172)}.f2{stroke:none;fill:rgb(146,155,172)}.sh2{fill:none;stroke:url(#h2)}.fh2{stroke:none;fill:url(#h2)}.sv2{fill:none;stroke:url(#v2)}.fv2{stroke:none;fill:url(#v2)}.s3{fill:none;stroke:rgb(7,30,68)}.f3{stroke:none;fill:rgb(7,30,68)}.sh3{fill:none;stroke:url(#h3)}.fh3{stroke:none;fill:url(#h3)}.sv3{fill:none;stroke:url(#v3)}.fv3{stroke:none;fill:url(#v3)}.s4{fill:none;stroke:rgb(64,64,153)}.f4{stroke:none;fill:rgb(64,64,153)}.sh4{fill:none;stroke:url(#h4)}.fh4{stroke:none;fill:url(#h4)}.sv4{fill:none;stroke:url(#v4)}.fv4{stroke:none;fill:url(#v4)}.s5{fill:none;stroke:rgb(1,61,111)}.f5{stroke:none;fill:rgb(1,61,111)}.sh5{fill:none;stroke:url(#h5)}.fh5{stroke:none;fill:url(#h5)}.sv5{fill:none;stroke:url(#v5)}.fv5{stroke:none;fill:url(#v5)}.s6{fill:none;stroke:rgb(255,255,255)}.f6{stroke:none;fill:rgb(255,255,255)}.sh6{fill:none;stroke:url(#h6)}.fh6{stroke:none;fill:url(#h6)}.sv6{fill:none;stroke:url(#v6)}.fv6{stroke:none;fill:url(#v6)}.s7{fill:none;stroke:rgb(255,0,0)}.f7{stroke:none;fill:rgb(255,0,0)}.sh7{fill:none;stroke:url(#h7)}.fh7{stroke:none;fill:url(#h7)}.sv7{fill:none;stroke:url(#v7)}.fv7{stroke:none;fill:url(#v7)}/*]]>*/</style><defs><linearGradient gradientTransform="rotate(90)" id="hs"><stop offset="20%" stop-color="#000" /><stop offset="95%" stop-color="rgba(0, 0, 0, 0)" /></linearGradient><linearGradient id="vs"><stop offset="20%" stop-color="#000" /><stop offset="95%" stop-color="rgba(0, 0, 0, 0)" /></linearGradient><linearGradient gradientTransform="rotate(90)" id="h1"><stop offset="20%" stop-color="rgba(34,34,34,1)" /><stop offset="95%" stop-color="rgba(34,34,34,0)" /></linearGradient><linearGradient id="v1"><stop offset="20%" stop-color="rgba(34,34,34,1)" /><stop offset="95%" stop-color="rgba(34,34,34,0)" /></linearGradient><linearGradient gradientTransform="rotate(90)" id="h2"><stop offset="20%" stop-color="rgba(146,155,172,1)" /><stop offset="95%" stop-color="rgba(146,155,172,0)" /></linearGradient><linearGradient id="v2"><stop offset="20%" stop-color="rgba(146,155,172,1)" /><stop offset="95%" stop-color="rgba(146,155,172,0)" /></linearGradient><linearGradient gradientTransform="rotate(90)" id="h3"><stop offset="20%" stop-color="rgba(7,30,68,1)" /><stop offset="95%" stop-color="rgba(7,30,68,0)" /></linearGradient><linearGradient id="v3"><stop offset="20%" stop-color="rgba(7,30,68,1)" /><stop offset="95%" stop-color="rgba(7,30,68,0)" /></linearGradient><linearGradient gradientTransform="rotate(90)" id="h4"><stop offset="20%" stop-color="rgba(64,64,153,1)" /><stop offset="95%" stop-color="rgba(64,64,153,0)" /></linearGradient><linearGradient id="v4"><stop offset="20%" stop-color="rgba(64,64,153,1)" /><stop offset="95%" stop-color="rgba(64,64,153,0)" /></linearGradient><linearGradient gradientTransform="rotate(90)" id="h5"><stop offset="20%" stop-color="rgba(1,61,111,1)" /><stop offset="95%" stop-color="rgba(1,61,111,0)" /></linearGradient><linearGradient id="v5"><stop offset="20%" stop-color="rgba(1,61,111,1)" /><stop offset="95%" stop-color="rgba(1,61,111,0)" /></linearGradient><linearGradient gradientTransform="rotate(90)" id="h6"><stop offset="20%" stop-color="rgba(255,255,255,1)" /><stop offset="95%" stop-color="rgba(255,255,255,0)" /></linearGradient><linearGradient id="v6"><stop offset="20%" stop-color="rgba(255,255,255,1)" /><stop offset="95%" stop-color="rgba(255,255,255,0)" /></linearGradient><linearGradient gradientTransform="rotate(90)" id="h7"><stop offset="20%" stop-color="rgba(255,0,0,1)" /><stop offset="95%" stop-color="rgba(255,0,0,0)" /></linearGradient><linearGradient id="v7"><stop offset="20%" stop-color="rgba(255,0,0,1)" /><stop offset="95%" stop-color="rgba(255,0,0,0)" /></linearGradient></defs><g transform-origin="1500 1500" transform="scale(2)" opacity=".2"><g id="slashes"><g class="o"><path transform="translate(2,4)" class="S ssv" d="M1816 1113 L1751 1178 L1751 1208 L1816 1143 Z"/><path class="sv3" d="M1816 1113 L1751 1178 L1751 1208 L1816 1143 Z" /></g><g class="o"><path transform="translate(4,8)" class="S ssv" d="M1870 1809 L2078 2017 L2078 2049 L1870 1841 Z"/><path class="sv6" d="M1870 1809 L2078 2017 L2078 2049 L1870 1841 Z" /></g><g class="o"><path transform="translate(4,8)" class="S sfh" d="M1556 1322 L893 1985 L929 1985 L1592 1322 Z"/><path class="fh5" d="M1556 1322 L893 1985 L929 1985 L1592 1322 Z" /></g><g class="o"><path transform="translate(4,8)" class="S ssv" d="M1567 1844 L886 2525 L886 2589 L1567 1908 Z"/><path class="sv6" d="M1567 1844 L886 2525 L886 2589 L1567 1908 Z" /></g><g class="o"><path transform="translate(2,4)" class="S sfh" d="M1156 1806 L1288 1938 L1308 1938 L1176 1806 Z"/><path class="fh1" d="M1156 1806 L1288 1938 L1308 1938 L1176 1806 Z" /></g><g class="o"><path transform="translate(4,8)" class="S ssh" d="M1496 1254 L1916 1674 L1926 1674 L1506 1254 Z"/><path class="sh7" d="M1496 1254 L1916 1674 L1926 1674 L1506 1254 Z" /></g><g class="o"><path transform="translate(9,18)" class="S sfv" d="M1249 1933 L1063 2119 L1063 2143 L1249 1957 Z"/><path class="fv3" d="M1249 1933 L1063 2119 L1063 2143 L1249 1957 Z" /></g><g class="o"><path transform="translate(9,18)" class="S sfh" d="M1634 1834 L1418 2050 L1444 2050 L1660 1834 Z"/><path class="fh6" d="M1634 1834 L1418 2050 L1444 2050 L1660 1834 Z" /></g><g class="o"><path transform="translate(9,18)" class="S sf" d="M1198 1101 L1108 1191 L1108 1209 L1198 1119 Z"/><path class="f7" d="M1198 1101 L1108 1191 L1108 1209 L1198 1119 Z" /></g><g class="o"><path transform="translate(3,6)" class="S sfv" d="M1252 1891 L1142 2001 L1142 2033 L1252 1923 Z"/><path class="fv1" d="M1252 1891 L1142 2001 L1142 2033 L1252 1923 Z" /></g><g class="o"><path transform="translate(2,4)" class="S ssh" d="M1544 1053 L1616 1125 L1632 1125 L1560 1053 Z"/><path class="sh7" d="M1544 1053 L1616 1125 L1632 1125 L1560 1053 Z" /></g><g class="o"><path transform="translate(4,8)" class="S sfh" d="M2011 1008 L2070 1067 L2084 1067 L2025 1008 Z"/><path class="fh2" d="M2011 1008 L2070 1067 L2084 1067 L2025 1008 Z" /></g><g class="o"><path transform="translate(3,6)" class="S sfv" d="M1531 1224 L1303 1452 L1303 1466 L1531 1238 Z"/><path class="fv4" d="M1531 1224 L1303 1452 L1303 1466 L1531 1238 Z" /></g><g class="o"><path transform="translate(5,10)" class="S sfv" d="M1732 1420 L1635 1517 L1635 1545 L1732 1448 Z"/><path class="fv5" d="M1732 1420 L1635 1517 L1635 1545 L1732 1448 Z" /></g><g class="o"><path transform="translate(7,14)" class="S sfh" d="M1079 1031 L857 1253 L877 1253 L1099 1031 Z"/><path class="fh2" d="M1079 1031 L857 1253 L877 1253 L1099 1031 Z" /></g><g class="o"><path transform="translate(6,12)" class="S sfh" d="M1961 1737 L2072 1848 L2092 1848 L1981 1737 Z"/><path class="fh5" d="M1961 1737 L2072 1848 L2092 1848 L1981 1737 Z" /></g><g class="o"><path transform="translate(5,10)" class="S sfh" d="M1490 1791 L1649 1950 L1669 1950 L1510 1791 Z"/><path class="fh5" d="M1490 1791 L1649 1950 L1669 1950 L1510 1791 Z" /></g><g class="o"><path transform="translate(2,4)" class="S sfv" d="M1678 1213 L1753 1288 L1753 1304 L1678 1229 Z"/><path class="fv2" d="M1678 1213 L1753 1288 L1753 1304 L1678 1229 Z" /></g><g class="o"><path transform="translate(8,16)" class="S sfh" d="M1484 1602 L1946 2064 L1966 2064 L1504 1602 Z"/><path class="fh6" d="M1484 1602 L1946 2064 L1966 2064 L1504 1602 Z" /></g><g class="o"><path transform="translate(9,18)" class="S sfv" d="M1060 1634 L1171 1745 L1171 1765 L1060 1654 Z"/><path class="fv7" d="M1060 1634 L1171 1745 L1171 1765 L1060 1654 Z" /></g><g class="o"><path transform="translate(8,16)" class="S ssh" d="M1552 1110 L1663 1221 L1681 1221 L1570 1110 Z"/><path class="sh4" d="M1552 1110 L1663 1221 L1681 1221 L1570 1110 Z" /></g><g class="o"><path transform="translate(9,18)" class="S ss" d="M1564 1616 L1402 1778 L1402 1816 L1564 1654 Z"/><path class="s6" d="M1564 1616 L1402 1778 L1402 1816 L1564 1654 Z" /></g><g class="o"><path transform="translate(9,18)" class="S sfv" d="M1728 1284 L1970 1526 L1970 1562 L1728 1320 Z"/><path class="fv4" d="M1728 1284 L1970 1526 L1970 1562 L1728 1320 Z" /></g><g class="o"><path transform="translate(9,18)" class="S sfh" d="M1816 2004 L1910 2098 L1950 2098 L1856 2004 Z"/><path class="fh3" d="M1816 2004 L1910 2098 L1950 2098 L1856 2004 Z" /></g><g class="o"><path transform="translate(7,14)" class="S sfv" d="M1767 1068 L1974 1275 L1974 1299 L1767 1092 Z"/><path class="fv4" d="M1767 1068 L1974 1275 L1974 1299 L1767 1092 Z" /></g><g class="o"><path transform="translate(9,18)" class="S sf" d="M1956 1244 L1822 1378 L1822 1392 L1956 1258 Z"/><path class="f1" d="M1956 1244 L1822 1378 L1822 1392 L1956 1258 Z" /></g><g class="o"><path transform="translate(2,4)" class="S sfv" d="M1614 1232 L1444 1402 L1444 1432 L1614 1262 Z"/><path class="fv3" d="M1614 1232 L1444 1402 L1444 1432 L1614 1262 Z" /></g><g class="o"><path transform="translate(5,10)" class="S sfh" d="M1439 1584 L1303 1720 L1339 1720 L1475 1584 Z"/><path class="fh4" d="M1439 1584 L1303 1720 L1339 1720 L1475 1584 Z" /></g><g class="o"><path transform="translate(2,4)" class="S sfh" d="M1713 1079 L2211 1577 L2223 1577 L1725 1079 Z"/><path class="fh1" d="M1713 1079 L2211 1577 L2223 1577 L1725 1079 Z" /></g><g class="o"><path transform="translate(6,12)" class="S sfh" d="M1178 1755 L1355 1932 L1369 1932 L1192 1755 Z"/><path class="fh4" d="M1178 1755 L1355 1932 L1369 1932 L1192 1755 Z" /></g><g class="o"><path transform="translate(7,14)" class="S sfh" d="M1890 1548 L2409 2067 L2431 2067 L1912 1548 Z"/><path class="fh2" d="M1890 1548 L2409 2067 L2431 2067 L1912 1548 Z" /></g><g class="o"><path transform="translate(9,18)" class="S sfh" d="M1743 1635 L1326 2052 L1358 2052 L1775 1635 Z"/><path class="fh7" d="M1743 1635 L1326 2052 L1358 2052 L1775 1635 Z" /></g><g class="o"><path transform="translate(7,14)" class="S sfv" d="M1305 1155 L1080 1380 L1080 1410 L1305 1185 Z"/><path class="fv1" d="M1305 1155 L1080 1380 L1080 1410 L1305 1185 Z" /></g><g class="o"><path transform="translate(2,4)" class="S sfv" d="M1929 1478 L2023 1572 L2023 1606 L1929 1512 Z"/><path class="fv4" d="M1929 1478 L2023 1572 L2023 1606 L1929 1512 Z" /></g><g class="o"><path transform="translate(3,6)" class="S ssv" d="M1654 1859 L1174 2339 L1174 2347 L1654 1867 Z"/><path class="sv7" d="M1654 1859 L1174 2339 L1174 2347 L1654 1867 Z" /></g><g class="o"><path transform="translate(4,8)" class="S ss" d="M1781 1432 L1844 1495 L1852 1495 L1789 1432 Z"/><path class="s3" d="M1781 1432 L1844 1495 L1852 1495 L1789 1432 Z" /></g><g class="o"><path transform="translate(5,10)" class="S ssh" d="M1972 1960 L1798 2134 L1810 2134 L1984 1960 Z"/><path class="sh3" d="M1972 1960 L1798 2134 L1810 2134 L1984 1960 Z" /></g><g class="o"><path transform="translate(6,12)" class="S ssv" d="M1424 1726 L875 2275 L875 2285 L1424 1736 Z"/><path class="sv5" d="M1424 1726 L875 2275 L875 2285 L1424 1736 Z" /></g><g class="o"><path transform="translate(6,12)" class="S sfh" d="M1187 2003 L1088 2102 L1208 2102 L1307 2003 Z"/><path class="fh6" d="M1187 2003 L1088 2102 L1208 2102 L1307 2003 Z" /></g><g class="o"><path transform="translate(2,4)" class="S sfv" d="M1878 1905 L1752 2031 L1752 2047 L1878 1921 Z"/><path class="fv6" d="M1878 1905 L1752 2031 L1752 2047 L1878 1921 Z" /></g><g class="o"><path transform="translate(9,18)" class="S sfh" d="M1373 1814 L1607 2048 L1655 2048 L1421 1814 Z"/><path class="fh6" d="M1373 1814 L1607 2048 L1655 2048 L1421 1814 Z" /></g><g class="o"><path transform="translate(7,14)" class="S sfv" d="M1460 1638 L1599 1777 L1599 1801 L1460 1662 Z"/><path class="fv3" d="M1460 1638 L1599 1777 L1599 1801 L1460 1662 Z" /></g><g class="o"><path transform="translate(7,14)" class="S ss" d="M1106 2043 L974 2175 L1004 2175 L1136 2043 Z"/><path class="s1" d="M1106 2043 L974 2175 L1004 2175 L1136 2043 Z" /></g><g class="o"><path transform="translate(7,14)" class="S sf" d="M1844 1005 L1647 1202 L1671 1202 L1868 1005 Z"/><path class="f3" d="M1844 1005 L1647 1202 L1671 1202 L1868 1005 Z" /></g><g class="o"><path transform="translate(5,10)" class="S sfh" d="M1706 1835 L1596 1945 L1626 1945 L1736 1835 Z"/><path class="fh4" d="M1706 1835 L1596 1945 L1626 1945 L1736 1835 Z" /></g><g class="o"><path transform="translate(7,14)" class="S sfh" d="M1264 1648 L991 1921 L1009 1921 L1282 1648 Z"/><path class="fh2" d="M1264 1648 L991 1921 L1009 1921 L1282 1648 Z" /></g><g class="o"><path transform="translate(6,12)" class="S sf" d="M1800 1166 L1677 1289 L1677 1297 L1800 1174 Z"/><path class="f4" d="M1800 1166 L1677 1289 L1677 1297 L1800 1174 Z" /></g><g class="o"><path transform="translate(4,8)" class="S sfv" d="M1434 1005 L1558 1129 L1558 1163 L1434 1039 Z"/><path class="fv2" d="M1434 1005 L1558 1129 L1558 1163 L1434 1039 Z" /></g><g class="o"><path transform="translate(9,18)" class="S sf" d="M1411 2013 L1322 2102 L1352 2102 L1441 2013 Z"/><path class="f7" d="M1411 2013 L1322 2102 L1352 2102 L1441 2013 Z" /></g><g class="o"><path transform="translate(7,14)" class="S ss" d="M1115 1818 L1313 2016 L1347 2016 L1149 1818 Z"/><path class="s1" d="M1115 1818 L1313 2016 L1347 2016 L1149 1818 Z" /></g><g class="o"><path transform="translate(6,12)" class="S sf" d="M959 1387 L882 1464 L918 1464 L995 1387 Z"/><path class="f4" d="M959 1387 L882 1464 L918 1464 L995 1387 Z" /></g><g class="o"><path transform="translate(6,12)" class="S sfv" d="M1903 1321 L2005 1423 L2005 1441 L1903 1339 Z"/><path class="fv6" d="M1903 1321 L2005 1423 L2005 1441 L1903 1339 Z" /></g><g class="o"><path transform="translate(7,14)" class="S sf" d="M1439 1625 L1645 1831 L1663 1831 L1457 1625 Z"/><path class="f7" d="M1439 1625 L1645 1831 L1663 1831 L1457 1625 Z" /></g><g class="o"><path transform="translate(9,18)" class="S ssh" d="M1649 1121 L1738 1210 L1776 1210 L1687 1121 Z"/><path class="sh2" d="M1649 1121 L1738 1210 L1776 1210 L1687 1121 Z" /></g><g class="o"><path transform="translate(6,12)" class="S sf" d="M1137 2015 L1384 2262 L1384 2286 L1137 2039 Z"/><path class="f5" d="M1137 2015 L1384 2262 L1384 2286 L1137 2039 Z" /></g><g class="o"><path transform="translate(6,12)" class="S sfh" d="M1685 1686 L1226 2145 L1244 2145 L1703 1686 Z"/><path class="fh7" d="M1685 1686 L1226 2145 L1244 2145 L1703 1686 Z" /></g><g class="o"><path transform="translate(5,10)" class="S sf" d="M1913 2048 L1397 2564 L1435 2564 L1951 2048 Z"/><path class="f3" d="M1913 2048 L1397 2564 L1435 2564 L1951 2048 Z" /></g><g class="o"><path transform="translate(6,12)" class="S sfv" d="M1831 1329 L1642 1518 L1642 1534 L1831 1345 Z"/><path class="fv2" d="M1831 1329 L1642 1518 L1642 1534 L1831 1345 Z" /></g><g class="o"><path transform="translate(4,8)" class="S sfv" d="M1006 1963 L1225 2182 L1225 2218 L1006 1999 Z"/><path class="fv6" d="M1006 1963 L1225 2182 L1225 2218 L1006 1999 Z" /></g><g class="o"><path transform="translate(2,4)" class="S sf" d="M1565 1254 L1388 1431 L1414 1431 L1591 1254 Z"/><path class="f5" d="M1565 1254 L1388 1431 L1414 1431 L1591 1254 Z" /></g><g class="o"><path transform="translate(4,8)" class="S sfh" d="M943 1951 L1091 2099 L1117 2099 L969 1951 Z"/><path class="fh7" d="M943 1951 L1091 2099 L1117 2099 L969 1951 Z" /></g><g class="o"><path transform="translate(6,12)" class="S sfh" d="M1720 1108 L1666 1162 L1674 1162 L1728 1108 Z"/><path class="fh7" d="M1720 1108 L1666 1162 L1674 1162 L1728 1108 Z" /></g><g class="o"><path transform="translate(6,12)" class="S sfv" d="M1268 1392 L1089 1571 L1089 1715 L1268 1536 Z"/><path class="fv5" d="M1268 1392 L1089 1571 L1089 1715 L1268 1536 Z" /></g><g class="o"><path transform="translate(2,4)" class="S sfv" d="M1192 1927 L1735 2470 L1735 2484 L1192 1941 Z"/><path class="fv7" d="M1192 1927 L1735 2470 L1735 2484 L1192 1941 Z" /></g><g class="o"><path transform="translate(5,10)" class="S sfh" d="M1967 1524 L2522 2079 L2538 2079 L1983 1524 Z"/><path class="fh4" d="M1967 1524 L2522 2079 L2538 2079 L1983 1524 Z" /></g><g class="o"><path transform="translate(4,8)" class="S sfh" d="M1824 995 L1925 1096 L1953 1096 L1852 995 Z"/><path class="fh6" d="M1824 995 L1925 1096 L1953 1096 L1852 995 Z" /></g><g class="o"><path transform="translate(5,10)" class="S sfv" d="M1300 1187 L1238 1249 L1238 1287 L1300 1225 Z"/><path class="fv7" d="M1300 1187 L1238 1249 L1238 1287 L1300 1225 Z" /></g><g class="o"><path transform="translate(9,18)" class="S sfv" d="M1854 1529 L1590 1793 L1590 1809 L1854 1545 Z"/><path class="fv1" d="M1854 1529 L1590 1793 L1590 1809 L1854 1545 Z" /></g><g class="o"><path transform="translate(2,4)" class="S sf" d="M1277 1097 L1513 1333 L1513 1355 L1277 1119 Z"/><path class="f2" d="M1277 1097 L1513 1333 L1513 1355 L1277 1119 Z" /></g><g class="o"><path transform="translate(6,12)" class="S sfh" d="M1853 1078 L1991 1216 L2025 1216 L1887 1078 Z"/><path class="fh1" d="M1853 1078 L1991 1216 L2025 1216 L1887 1078 Z" /></g><g class="o"><path transform="translate(5,10)" class="S sf" d="M1200 1971 L1032 2139 L1056 2139 L1224 1971 Z"/><path class="f7" d="M1200 1971 L1032 2139 L1056 2139 L1224 1971 Z" /></g><g class="o"><path transform="translate(5,10)" class="S sfv" d="M1078 1475 L963 1590 L963 1718 L1078 1603 Z"/><path class="fv3" d="M1078 1475 L963 1590 L963 1718 L1078 1603 Z" /></g><g class="o"><path transform="translate(9,18)" class="S sfh" d="M1901 1839 L2099 2037 L2129 2037 L1931 1839 Z"/><path class="fh2" d="M1901 1839 L2099 2037 L2129 2037 L1931 1839 Z" /></g><g class="o"><path transform="translate(3,6)" class="S sf" d="M1525 1597 L1293 1829 L1293 1837 L1525 1605 Z"/><path class="f4" d="M1525 1597 L1293 1829 L1293 1837 L1525 1605 Z" /></g><g class="o"><path transform="translate(6,12)" class="S sfh" d="M1280 1757 L641 2396 L675 2396 L1314 1757 Z"/><path class="fh5" d="M1280 1757 L641 2396 L675 2396 L1314 1757 Z" /></g><g class="o"><path transform="translate(8,16)" class="S sfv" d="M1966 1741 L1719 1988 L1719 1996 L1966 1749 Z"/><path class="fv7" d="M1966 1741 L1719 1988 L1719 1996 L1966 1749 Z" /></g><g class="o"><path transform="translate(8,16)" class="S sfh" d="M1293 1960 L1094 2159 L1206 2159 L1405 1960 Z"/><path class="fh2" d="M1293 1960 L1094 2159 L1206 2159 L1405 1960 Z" /></g><g class="o"><path transform="translate(9,18)" class="S sfv" d="M1803 1364 L1736 1431 L1736 1445 L1803 1378 Z"/><path class="fv1" d="M1803 1364 L1736 1431 L1736 1445 L1803 1378 Z" /></g><g class="o"><path transform="translate(6,12)" class="S sfv" d="M1701 1736 L1924 1959 L1924 1997 L1701 1774 Z"/><path class="fv1" d="M1701 1736 L1924 1959 L1924 1997 L1701 1774 Z" /></g><g class="o"><path transform="translate(4,8)" class="S sfv" d="M1035 1098 L905 1228 L905 1244 L1035 1114 Z"/><path class="fv2" d="M1035 1098 L905 1228 L905 1244 L1035 1114 Z" /></g><g class="o"><path transform="translate(8,16)" class="S ssh" d="M1056 1408 L878 1586 L912 1586 L1090 1408 Z"/><path class="sh4" d="M1056 1408 L878 1586 L912 1586 L1090 1408 Z" /></g><g class="o"><path transform="translate(3,6)" class="S ssv" d="M1864 1726 L1663 1927 L1663 1961 L1864 1760 Z"/><path class="sv7" d="M1864 1726 L1663 1927 L1663 1961 L1864 1760 Z" /></g><g class="o"><path transform="translate(7,14)" class="S sfv" d="M1776 1909 L1899 2032 L1899 2052 L1776 1929 Z"/><path class="fv6" d="M1776 1909 L1899 2032 L1899 2052 L1776 1929 Z" /></g><g class="o"><path transform="translate(9,18)" class="S sfv" d="M1510 1263 L1678 1431 L1678 1443 L1510 1275 Z"/><path class="fv5" d="M1510 1263 L1678 1431 L1678 1443 L1510 1275 Z" /></g><g class="o"><path transform="translate(7,14)" class="S ssv" d="M1073 1726 L866 1933 L866 1961 L1073 1754 Z"/><path class="sv5" d="M1073 1726 L866 1933 L866 1961 L1073 1754 Z" /></g><g class="o"><path transform="translate(8,16)" class="S sf" d="M2041 1205 L2215 1379 L2215 1417 L2041 1243 Z"/><path class="f5" d="M2041 1205 L2215 1379 L2215 1417 L2041 1243 Z" /></g><g class="o"><path transform="translate(4,8)" class="S ssv" d="M1898 1707 L1698 1907 L1698 1939 L1898 1739 Z"/><path class="sv4" d="M1898 1707 L1698 1907 L1698 1939 L1898 1739 Z" /></g><g class="o"><path transform="translate(4,8)" class="S sfh" d="M1138 1473 L948 1663 L958 1663 L1148 1473 Z"/><path class="fh1" d="M1138 1473 L948 1663 L958 1663 L1148 1473 Z" /></g><g class="o"><path transform="translate(3,6)" class="S sfh" d="M1419 963 L1134 1248 L1168 1248 L1453 963 Z"/><path class="fh5" d="M1419 963 L1134 1248 L1168 1248 L1453 963 Z" /></g><g class="o"><path transform="translate(3,6)" class="S sfv" d="M994 1960 L1516 2482 L1516 2508 L994 1986 Z"/><path class="fv6" d="M994 1960 L1516 2482 L1516 2508 L994 1986 Z" /></g><g class="o"><path transform="translate(4,8)" class="S sfh" d="M1461 1675 L1271 1865 L1291 1865 L1481 1675 Z"/><path class="fh4" d="M1461 1675 L1271 1865 L1291 1865 L1481 1675 Z" /></g><g class="o"><path transform="translate(8,16)" class="S sfh" d="M1436 1367 L2108 2039 L2130 2039 L1458 1367 Z"/><path class="fh7" d="M1436 1367 L2108 2039 L2130 2039 L1458 1367 Z" /></g><g class="o"><path transform="translate(8,16)" class="S sfh" d="M1702 1372 L1582 1492 L1594 1492 L1714 1372 Z"/><path class="fh2" d="M1702 1372 L1582 1492 L1594 1492 L1714 1372 Z" /></g><g class="o"><path transform="translate(9,18)" class="S ssv" d="M1591 1543 L1796 1748 L1796 1782 L1591 1577 Z"/><path class="sv6" d="M1591 1543 L1796 1748 L1796 1782 L1591 1577 Z" /></g><g class="o"><path transform="translate(3,6)" class="S ss" d="M958 1735 L865 1828 L865 1852 L958 1759 Z"/><path class="s1" d="M958 1735 L865 1828 L865 1852 L958 1759 Z" /></g><g class="o"><path transform="translate(7,14)" class="S sfv" d="M1596 1154 L1530 1220 L1530 1250 L1596 1184 Z"/><path class="fv5" d="M1596 1154 L1530 1220 L1530 1250 L1596 1184 Z" /></g><g class="o"><path transform="translate(6,12)" class="S sf" d="M1345 1047 L1249 1143 L1261 1143 L1357 1047 Z"/><path class="f6" d="M1345 1047 L1249 1143 L1261 1143 L1357 1047 Z" /></g><g class="o"><path transform="translate(6,12)" class="S sfv" d="M1559 974 L1795 1210 L1795 1224 L1559 988 Z"/><path class="fv4" d="M1559 974 L1795 1210 L1795 1224 L1559 988 Z" /></g><g class="o"><path transform="translate(6,12)" class="S sfv" d="M1219 1619 L1451 1851 L1451 1879 L1219 1647 Z"/><path class="fv2" d="M1219 1619 L1451 1851 L1451 1879 L1219 1647 Z" /></g><g class="o"><path transform="translate(7,14)" class="S sfv" d="M1290 1424 L636 2078 L636 2126 L1290 1472 Z"/><path class="fv2" d="M1290 1424 L636 2078 L636 2126 L1290 1472 Z" /></g><g class="o"><path transform="translate(4,8)" class="S sfv" d="M1715 1090 L1555 1250 L1555 1286 L1715 1126 Z"/><path class="fv7" d="M1715 1090 L1555 1250 L1555 1286 L1715 1126 Z" /></g><g class="o"><path transform="translate(9,18)" class="S ssh" d="M1161 2011 L1064 2108 L1076 2108 L1173 2011 Z"/><path class="sh6" d="M1161 2011 L1064 2108 L1076 2108 L1173 2011 Z" /></g><g class="o"><path transform="translate(4,8)" class="S sfh" d="M1661 1423 L1487 1597 L1511 1597 L1685 1423 Z"/><path class="fh4" d="M1661 1423 L1487 1597 L1511 1597 L1685 1423 Z" /></g><g class="o"><path transform="translate(3,6)" class="S sfh" d="M1108 1687 L1286 1865 L1308 1865 L1130 1687 Z"/><path class="fh7" d="M1108 1687 L1286 1865 L1308 1865 L1130 1687 Z" /></g><g class="o"><path transform="translate(8,16)" class="S sf" d="M1809 1306 L1575 1540 L1611 1540 L1845 1306 Z"/><path class="f4" d="M1809 1306 L1575 1540 L1611 1540 L1845 1306 Z" /></g><g class="o"><path transform="translate(4,8)" class="S sf" d="M1474 1911 L1682 2119 L1738 2119 L1530 1911 Z"/><path class="f6" d="M1474 1911 L1682 2119 L1738 2119 L1530 1911 Z" /></g><g class="o"><path transform="translate(6,12)" class="S sfh" d="M1403 1932 L1329 2006 L1361 2006 L1435 1932 Z"/><path class="fh7" d="M1403 1932 L1329 2006 L1361 2006 L1435 1932 Z" /></g><g class="o"><path transform="translate(7,14)" class="S sf" d="M1565 1496 L1783 1714 L1783 1744 L1565 1526 Z"/><path class="f5" d="M1565 1496 L1783 1714 L1783 1744 L1565 1526 Z" /></g><g class="o"><path transform="translate(6,12)" class="S ssv" d="M1898 997 L1800 1095 L1800 1175 L1898 1077 Z"/><path class="sv6" d="M1898 997 L1800 1095 L1800 1175 L1898 1077 Z" /></g><g class="o"><path transform="translate(9,18)" class="S sfv" d="M1021 1938 L1122 2039 L1122 2061 L1021 1960 Z"/><path class="fv3" d="M1021 1938 L1122 2039 L1122 2061 L1021 1960 Z" /></g><g class="o"><path transform="translate(3,6)" class="S sf" d="M2018 1398 L2363 1743 L2385 1743 L2040 1398 Z"/><path class="f4" d="M2018 1398 L2363 1743 L2385 1743 L2040 1398 Z" /></g><g class="o"><path transform="translate(8,16)" class="S sfv" d="M1629 1922 L1688 1981 L1688 2017 L1629 1958 Z"/><path class="fv1" d="M1629 1922 L1688 1981 L1688 2017 L1629 1958 Z" /></g><g class="o"><path transform="translate(8,16)" class="S sfv" d="M1137 1061 L1329 1253 L1329 1277 L1137 1085 Z"/><path class="fv1" d="M1137 1061 L1329 1253 L1329 1277 L1137 1085 Z" /></g><g class="o"><path transform="translate(9,18)" class="S sf" d="M2021 1734 L2243 1956 L2243 1966 L2021 1744 Z"/><path class="f5" d="M2021 1734 L2243 1956 L2243 1966 L2021 1744 Z" /></g><g class="o"><path transform="translate(9,18)" class="S sfh" d="M1456 1397 L1541 1482 L1553 1482 L1468 1397 Z"/><path class="fh1" d="M1456 1397 L1541 1482 L1553 1482 L1468 1397 Z" /></g><g class="o"><path transform="translate(3,6)" class="S ss" d="M1448 1128 L1385 1191 L1395 1191 L1458 1128 Z"/><path class="s5" d="M1448 1128 L1385 1191 L1395 1191 L1458 1128 Z" /></g><g class="o"><path transform="translate(5,10)" class="S sf" d="M1676 1264 L1437 1503 L1437 1535 L1676 1296 Z"/><path class="f3" d="M1676 1264 L1437 1503 L1437 1535 L1676 1296 Z" /></g><g class="o"><path transform="translate(9,18)" class="S sf" d="M1984 1431 L1801 1614 L1821 1614 L2004 1431 Z"/><path class="f4" d="M1984 1431 L1801 1614 L1821 1614 L2004 1431 Z" /></g><g class="o"><path transform="translate(9,18)" class="S sfh" d="M1839 1419 L1601 1657 L1621 1657 L1859 1419 Z"/><path class="fh4" d="M1839 1419 L1601 1657 L1621 1657 L1859 1419 Z" /></g><g class="o"><path transform="translate(8,16)" class="S sfv" d="M1004 1527 L515 2016 L515 2032 L1004 1543 Z"/><path class="fv2" d="M1004 1527 L515 2016 L515 2032 L1004 1543 Z" /></g><g class="o"><path transform="translate(7,14)" class="S sfh" d="M1002 1121 L865 1258 L877 1258 L1014 1121 Z"/><path class="fh6" d="M1002 1121 L865 1258 L877 1258 L1014 1121 Z" /></g><g class="o"><path transform="translate(2,4)" class="S sf" d="M1412 1851 L1175 2088 L1199 2088 L1436 1851 Z"/><path class="f4" d="M1412 1851 L1175 2088 L1199 2088 L1436 1851 Z" /></g><g class="o"><path transform="translate(7,14)" class="S sfh" d="M1499 1177 L1226 1450 L1266 1450 L1539 1177 Z"/><path class="fh7" d="M1499 1177 L1226 1450 L1266 1450 L1539 1177 Z" /></g><g class="o"><path transform="translate(6,12)" class="S sfv" d="M1371 1213 L1601 1443 L1601 1469 L1371 1239 Z"/><path class="fv3" d="M1371 1213 L1601 1443 L1601 1469 L1371 1239 Z" /></g><g class="o"><path transform="translate(8,16)" class="S sfv" d="M1501 1239 L1207 1533 L1207 1553 L1501 1259 Z"/><path class="fv1" d="M1501 1239 L1207 1533 L1207 1553 L1501 1259 Z" /></g><g class="o"><path transform="translate(9,18)" class="S sfh" d="M1810 1359 L1643 1526 L1763 1526 L1930 1359 Z"/><path class="fh7" d="M1810 1359 L1643 1526 L1763 1526 L1930 1359 Z" /></g><g class="o"><path transform="translate(4,8)" class="S sf" d="M1537 950 L1078 1409 L1090 1409 L1549 950 Z"/><path class="f1" d="M1537 950 L1078 1409 L1090 1409 L1549 950 Z" /></g><g class="o"><path transform="translate(9,18)" class="S sfv" d="M1943 1954 L1727 2170 L1727 2190 L1943 1974 Z"/><path class="fv1" d="M1943 1954 L1727 2170 L1727 2190 L1943 1974 Z" /></g><g class="o"><path transform="translate(9,18)" class="S sfv" d="M1254 1995 L1182 2067 L1182 2147 L1254 2075 Z"/><path class="fv4" d="M1254 1995 L1182 2067 L1182 2147 L1254 2075 Z" /></g><g class="o"><path transform="translate(5,10)" class="S sfh" d="M1752 1666 L1907 1821 L1939 1821 L1784 1666 Z"/><path class="fh4" d="M1752 1666 L1907 1821 L1939 1821 L1784 1666 Z" /></g><g class="o"><path transform="translate(5,10)" class="S sfv" d="M1061 1870 L1190 1999 L1190 2029 L1061 1900 Z"/><path class="fv3" d="M1061 1870 L1190 1999 L1190 2029 L1061 1900 Z" /></g><g class="o"><path transform="translate(7,14)" class="S sfv" d="M1281 1184 L810 1655 L810 1687 L1281 1216 Z"/><path class="fv1" d="M1281 1184 L810 1655 L810 1687 L1281 1216 Z" /></g><g class="o"><path transform="translate(7,14)" class="S sf" d="M1797 2046 L1670 2173 L1700 2173 L1827 2046 Z"/><path class="f1" d="M1797 2046 L1670 2173 L1700 2173 L1827 2046 Z" /></g><g class="o"><path transform="translate(5,10)" class="S sfv" d="M1176 1322 L1405 1551 L1405 1565 L1176 1336 Z"/><path class="fv7" d="M1176 1322 L1405 1551 L1405 1565 L1176 1336 Z" /></g><g class="o"><path transform="translate(9,18)" class="S sfh" d="M1689 1816 L1811 1938 L1843 1938 L1721 1816 Z"/><path class="fh5" d="M1689 1816 L1811 1938 L1843 1938 L1721 1816 Z" /></g><g class="o"><path transform="translate(2,4)" class="S sf" d="M1762 1626 L1606 1782 L1642 1782 L1798 1626 Z"/><path class="f2" d="M1762 1626 L1606 1782 L1642 1782 L1798 1626 Z" /></g><g class="o"><path transform="translate(5,10)" class="S sfv" d="M1727 1794 L1881 1948 L1881 1986 L1727 1832 Z"/><path class="fv6" d="M1727 1794 L1881 1948 L1881 1986 L1727 1832 Z" /></g><g class="o"><path transform="translate(6,12)" class="S sf" d="M1939 1695 L2068 1824 L2096 1824 L1967 1695 Z"/><path class="f5" d="M1939 1695 L2068 1824 L2096 1824 L1967 1695 Z" /></g><g class="o"><path transform="translate(6,12)" class="S sfh" d="M1092 1614 L1030 1676 L1038 1676 L1100 1614 Z"/><path class="fh7" d="M1092 1614 L1030 1676 L1038 1676 L1100 1614 Z" /></g><g class="o"><path transform="translate(4,8)" class="S sfh" d="M1342 1610 L1268 1684 L1304 1684 L1378 1610 Z"/><path class="fh2" d="M1342 1610 L1268 1684 L1304 1684 L1378 1610 Z" /></g></g><use href="#slashes" transform-origin="1500 1500" transform="rotate(180) scale(2)"/></g><rect x="1080" y="1080" width="840" height="840" stroke-width="80" class="o f6" /><use href="#slashes" transform-origin="1500 1500" transform="scale(.7)"/><use href="#slashes" transform-origin="1500 1500" transform="rotate(180) scale(.3)"/></svg>