<svg xmlns="http://www.w3.org/2000/svg" viewBox="750 750 1500 1500"><style>/*<![CDATA[*/svg{background:rgb(240,200,8);max-width:100vw;max-height:100vh}path{stroke-width:4}.o{opacity:.75}.S{opacity:.4}.sf{stroke:none;fill:black}.sfh{stroke:none;fill:url(#hs)}.sfv{stroke:none;fill:url(#vs)}.ss{stroke:black;fill:none}.ssh{stroke:url(#hs);fill:none}.ssv{stroke:url(#vs);fill:none}.s1{fill:none;stroke:rgb(221,28,26)}.f1{stroke:none;fill:rgb(221,28,26)}.sh1{fill:none;stroke:url(#h1)}.fh1{stroke:none;fill:url(#h1)}.sv1{fill:none;stroke:url(#v1)}.fv1{stroke:none;fill:url(#v1)}.s2{fill:none;stroke:rgb(6,174,213)}.f2{stroke:none;fill:rgb(6,174,213)}.sh2{fill:none;stroke:url(#h2)}.fh2{stroke:none;fill:url(#h2)}.sv2{fill:none;stroke:url(#v2)}.fv2{stroke:none;fill:url(#v2)}.s3{fill:none;stroke:rgb(34,34,34)}.f3{stroke:none;fill:rgb(34,34,34)}.sh3{fill:none;stroke:url(#h3)}.fh3{stroke:none;fill:url(#h3)}.sv3{fill:none;stroke:url(#v3)}.fv3{stroke:none;fill:url(#v3)}.s4{fill:none;stroke:rgb(255,241,208)}.f4{stroke:none;fill:rgb(255,241,208)}.sh4{fill:none;stroke:url(#h4)}.fh4{stroke:none;fill:url(#h4)}.sv4{fill:none;stroke:url(#v4)}.fv4{stroke:none;fill:url(#v4)}.s5{fill:none;stroke:rgb(8,103,136)}.f5{stroke:none;fill:rgb(8,103,136)}.sh5{fill:none;stroke:url(#h5)}.fh5{stroke:none;fill:url(#h5)}.sv5{fill:none;stroke:url(#v5)}.fv5{stroke:none;fill:url(#v5)}.s6{fill:none;stroke:rgb(255,255,255)}.f6{stroke:none;fill:rgb(255,255,255)}.sh6{fill:none;stroke:url(#h6)}.fh6{stroke:none;fill:url(#h6)}.sv6{fill:none;stroke:url(#v6)}.fv6{stroke:none;fill:url(#v6)}.s7{fill:none;stroke:rgb(255,255,0)}.f7{stroke:none;fill:rgb(255,255,0)}.sh7{fill:none;stroke:url(#h7)}.fh7{stroke:none;fill:url(#h7)}.sv7{fill:none;stroke:url(#v7)}.fv7{stroke:none;fill:url(#v7)}/*]]>*/</style><defs><linearGradient gradientTransform="rotate(90)" id="hs"><stop offset="20%" stop-color="#000" /><stop offset="95%" stop-color="rgba(0, 0, 0, 0)" /></linearGradient><linearGradient id="vs"><stop offset="20%" stop-color="#000" /><stop offset="95%" stop-color="rgba(0, 0, 0, 0)" /></linearGradient><linearGradient gradientTransform="rotate(90)" id="h1"><stop offset="20%" stop-color="rgba(221,28,26,1)" /><stop offset="95%" stop-color="rgba(221,28,26,0)" /></linearGradient><linearGradient id="v1"><stop offset="20%" stop-color="rgba(221,28,26,1)" /><stop offset="95%" stop-color="rgba(221,28,26,0)" /></linearGradient><linearGradient gradientTransform="rotate(90)" id="h2"><stop offset="20%" stop-color="rgba(6,174,213,1)" /><stop offset="95%" stop-color="rgba(6,174,213,0)" /></linearGradient><linearGradient id="v2"><stop offset="20%" stop-color="rgba(6,174,213,1)" /><stop offset="95%" stop-color="rgba(6,174,213,0)" /></linearGradient><linearGradient gradientTransform="rotate(90)" id="h3"><stop offset="20%" stop-color="rgba(34,34,34,1)" /><stop offset="95%" stop-color="rgba(34,34,34,0)" /></linearGradient><linearGradient id="v3"><stop offset="20%" stop-color="rgba(34,34,34,1)" /><stop offset="95%" stop-color="rgba(34,34,34,0)" /></linearGradient><linearGradient gradientTransform="rotate(90)" id="h4"><stop offset="20%" stop-color="rgba(255,241,208,1)" /><stop offset="95%" stop-color="rgba(255,241,208,0)" /></linearGradient><linearGradient id="v4"><stop offset="20%" stop-color="rgba(255,241,208,1)" /><stop offset="95%" stop-color="rgba(255,241,208,0)" /></linearGradient><linearGradient gradientTransform="rotate(90)" id="h5"><stop offset="20%" stop-color="rgba(8,103,136,1)" /><stop offset="95%" stop-color="rgba(8,103,136,0)" /></linearGradient><linearGradient id="v5"><stop offset="20%" stop-color="rgba(8,103,136,1)" /><stop offset="95%" stop-color="rgba(8,103,136,0)" /></linearGradient><linearGradient gradientTransform="rotate(90)" id="h6"><stop offset="20%" stop-color="rgba(255,255,255,1)" /><stop offset="95%" stop-color="rgba(255,255,255,0)" /></linearGradient><linearGradient id="v6"><stop offset="20%" stop-color="rgba(255,255,255,1)" /><stop offset="95%" stop-color="rgba(255,255,255,0)" /></linearGradient><linearGradient gradientTransform="rotate(90)" id="h7"><stop offset="20%" stop-color="rgba(255,255,0,1)" /><stop offset="95%" stop-color="rgba(255,255,0,0)" /></linearGradient><linearGradient id="v7"><stop offset="20%" stop-color="rgba(255,255,0,1)" /><stop offset="95%" stop-color="rgba(255,255,0,0)" /></linearGradient></defs><g transform-origin="1500 1500" transform="scale(2)" opacity=".8"><g id="slashes"><g class="o"><path transform="translate(7,14)" class="S sfh" d="M1926 1265 L1641 1550 L1655 1550 L1940 1265 Z"/><path class="fh5" d="M1926 1265 L1641 1550 L1655 1550 L1940 1265 Z" /></g><g class="o"><path transform="translate(8,16)" class="S ssv" d="M1702 1388 L1471 1157 L1471 1237 L1702 1468 Z"/><path class="sv6" d="M1702 1388 L1471 1157 L1471 1237 L1702 1468 Z" /></g><g class="o"><path transform="translate(6,12)" class="S sfh" d="M1525 994 L1363 1156 L1383 1156 L1545 994 Z"/><path class="fh2" d="M1525 994 L1363 1156 L1383 1156 L1545 994 Z" /></g><g class="o"><path transform="translate(9,18)" class="S sfh" d="M1673 1984 L1582 2075 L1602 2075 L1693 1984 Z"/><path class="fh4" d="M1673 1984 L1582 2075 L1602 2075 L1693 1984 Z" /></g><g class="o"><path transform="translate(2,4)" class="S sfv" d="M1266 1412 L1023 1169 L1023 1185 L1266 1428 Z"/><path class="fv4" d="M1266 1412 L1023 1169 L1023 1185 L1266 1428 Z" /></g><g class="o"><path transform="translate(2,4)" class="S sfh" d="M1302 1888 L1193 1997 L1231 1997 L1340 1888 Z"/><path class="fh3" d="M1302 1888 L1193 1997 L1231 1997 L1340 1888 Z" /></g><g class="o"><path transform="translate(9,18)" class="S sfv" d="M1407 1181 L1247 1021 L1247 1141 L1407 1301 Z"/><path class="fv5" d="M1407 1181 L1247 1021 L1247 1141 L1407 1301 Z" /></g><g class="o"><path transform="translate(3,6)" class="S ssh" d="M2035 2038 L1898 2175 L1922 2175 L2059 2038 Z"/><path class="sh6" d="M2035 2038 L1898 2175 L1922 2175 L2059 2038 Z" /></g><g class="o"><path transform="translate(8,16)" class="S ssh" d="M1237 1125 L1075 1287 L1083 1287 L1245 1125 Z"/><path class="sh5" d="M1237 1125 L1075 1287 L1083 1287 L1245 1125 Z" /></g><g class="o"><path transform="translate(5,10)" class="S ssh" d="M1133 1182 L930 1385 L940 1385 L1143 1182 Z"/><path class="sh4" d="M1133 1182 L930 1385 L940 1385 L1143 1182 Z" /></g><g class="o"><path transform="translate(8,16)" class="S sfh" d="M1525 1781 L1354 1952 L1392 1952 L1563 1781 Z"/><path class="fh4" d="M1525 1781 L1354 1952 L1392 1952 L1563 1781 Z" /></g><g class="o"><path transform="translate(6,12)" class="S sfv" d="M1697 1444 L1574 1321 L1574 1355 L1697 1478 Z"/><path class="fv4" d="M1697 1444 L1574 1321 L1574 1355 L1697 1478 Z" /></g><g class="o"><path transform="translate(3,6)" class="S ssv" d="M1892 1575 L1778 1461 L1778 1481 L1892 1595 Z"/><path class="sv2" d="M1892 1575 L1778 1461 L1778 1481 L1892 1595 Z" /></g><g class="o"><path transform="translate(8,16)" class="S sfv" d="M976 1835 L760 2051 L760 2075 L976 1859 Z"/><path class="fv5" d="M976 1835 L760 2051 L760 2075 L976 1859 Z" /></g><g class="o"><path transform="translate(3,6)" class="S sfh" d="M1814 1278 L1636 1100 L1668 1100 L1846 1278 Z"/><path class="fh7" d="M1814 1278 L1636 1100 L1668 1100 L1846 1278 Z" /></g><g class="o"><path transform="translate(3,6)" class="S sfh" d="M1050 1253 L843 1046 L877 1046 L1084 1253 Z"/><path class="fh3" d="M1050 1253 L843 1046 L877 1046 L1084 1253 Z" /></g><g class="o"><path transform="translate(6,12)" class="S sfh" d="M1546 1048 L1345 1249 L1369 1249 L1570 1048 Z"/><path class="fh3" d="M1546 1048 L1345 1249 L1369 1249 L1570 1048 Z" /></g><g class="o"><path transform="translate(3,6)" class="S sf" d="M1152 972 L552 372 L640 372 L1240 972 Z"/><path class="f3" d="M1152 972 L552 372 L640 372 L1240 972 Z" /></g><g class="o"><path transform="translate(5,10)" class="S sfh" d="M1552 1933 L1422 2063 L1432 2063 L1562 1933 Z"/><path class="fh3" d="M1552 1933 L1422 2063 L1432 2063 L1562 1933 Z" /></g><g class="o"><path transform="translate(9,18)" class="S sfv" d="M1166 982 L923 739 L923 769 L1166 1012 Z"/><path class="fv1" d="M1166 982 L923 739 L923 769 L1166 1012 Z" /></g><g class="o"><path transform="translate(7,14)" class="S ssh" d="M1184 1373 L1005 1194 L1015 1194 L1194 1373 Z"/><path class="sh6" d="M1184 1373 L1005 1194 L1015 1194 L1194 1373 Z" /></g><g class="o"><path transform="translate(9,18)" class="S sfv" d="M1941 1484 L1788 1637 L1788 1669 L1941 1516 Z"/><path class="fv2" d="M1941 1484 L1788 1637 L1788 1669 L1941 1516 Z" /></g><g class="o"><path transform="translate(2,4)" class="S ssh" d="M1395 1211 L1186 1420 L1196 1420 L1405 1211 Z"/><path class="sh3" d="M1395 1211 L1186 1420 L1196 1420 L1405 1211 Z" /></g><g class="o"><path transform="translate(5,10)" class="S ssh" d="M1988 1686 L1340 2334 L1374 2334 L2022 1686 Z"/><path class="sh6" d="M1988 1686 L1340 2334 L1374 2334 L2022 1686 Z" /></g><g class="o"><path transform="translate(9,18)" class="S sfv" d="M1041 1937 L925 1821 L925 1843 L1041 1959 Z"/><path class="fv2" d="M1041 1937 L925 1821 L925 1843 L1041 1959 Z" /></g><g class="o"><path transform="translate(9,18)" class="S sfh" d="M1133 1145 L440 1838 L476 1838 L1169 1145 Z"/><path class="fh5" d="M1133 1145 L440 1838 L476 1838 L1169 1145 Z" /></g><g class="o"><path transform="translate(4,8)" class="S sfh" d="M1371 1011 L1165 805 L1191 805 L1397 1011 Z"/><path class="fh7" d="M1371 1011 L1165 805 L1191 805 L1397 1011 Z" /></g><g class="o"><path transform="translate(8,16)" class="S sfv" d="M1238 1882 L1175 1945 L1175 1983 L1238 1920 Z"/><path class="fv1" d="M1238 1882 L1175 1945 L1175 1983 L1238 1920 Z" /></g><g class="o"><path transform="translate(6,12)" class="S sf" d="M1973 1424 L1771 1222 L1771 1242 L1973 1444 Z"/><path class="f7" d="M1973 1424 L1771 1222 L1771 1242 L1973 1444 Z" /></g><g class="o"><path transform="translate(8,16)" class="S sfv" d="M1350 1913 L1175 1738 L1175 1746 L1350 1921 Z"/><path class="fv5" d="M1350 1913 L1175 1738 L1175 1746 L1350 1921 Z" /></g><g class="o"><path transform="translate(4,8)" class="S sfh" d="M1421 1315 L1046 940 L1080 940 L1455 1315 Z"/><path class="fh4" d="M1421 1315 L1046 940 L1080 940 L1455 1315 Z" /></g><g class="o"><path transform="translate(3,6)" class="S sfh" d="M1712 1155 L1645 1222 L1675 1222 L1742 1155 Z"/><path class="fh6" d="M1712 1155 L1645 1222 L1675 1222 L1742 1155 Z" /></g><g class="o"><path transform="translate(7,14)" class="S sfh" d="M1049 1316 L770 1595 L782 1595 L1061 1316 Z"/><path class="fh2" d="M1049 1316 L770 1595 L782 1595 L1061 1316 Z" /></g><g class="o"><path transform="translate(6,12)" class="S sf" d="M1824 1498 L1581 1255 L1581 1281 L1824 1524 Z"/><path class="f5" d="M1824 1498 L1581 1255 L1581 1281 L1824 1524 Z" /></g><g class="o"><path transform="translate(3,6)" class="S sfh" d="M1301 1541 L1107 1347 L1121 1347 L1315 1541 Z"/><path class="fh5" d="M1301 1541 L1107 1347 L1121 1347 L1315 1541 Z" /></g><g class="o"><path transform="translate(6,12)" class="S sfv" d="M1010 1569 L848 1407 L848 1443 L1010 1605 Z"/><path class="fv3" d="M1010 1569 L848 1407 L848 1443 L1010 1605 Z" /></g><g class="o"><path transform="translate(3,6)" class="S sfh" d="M1646 1799 L1399 1552 L1429 1552 L1676 1799 Z"/><path class="fh2" d="M1646 1799 L1399 1552 L1429 1552 L1676 1799 Z" /></g><g class="o"><path transform="translate(4,8)" class="S sfh" d="M958 1880 L827 2011 L839 2011 L970 1880 Z"/><path class="fh3" d="M958 1880 L827 2011 L839 2011 L970 1880 Z" /></g><g class="o"><path transform="translate(3,6)" class="S sfh" d="M1863 1043 L1713 893 L1737 893 L1887 1043 Z"/><path class="fh5" d="M1863 1043 L1713 893 L1737 893 L1887 1043 Z" /></g><g class="o"><path transform="translate(2,4)" class="S sfh" d="M1907 1522 L1750 1365 L1780 1365 L1937 1522 Z"/><path class="fh2" d="M1907 1522 L1750 1365 L1780 1365 L1937 1522 Z" /></g><g class="o"><path transform="translate(7,14)" class="S sfh" d="M1450 1954 L1273 1777 L1299 1777 L1476 1954 Z"/><path class="fh5" d="M1450 1954 L1273 1777 L1299 1777 L1476 1954 Z" /></g><g class="o"><path transform="translate(2,4)" class="S sfv" d="M1159 1837 L952 2044 L952 2076 L1159 1869 Z"/><path class="fv1" d="M1159 1837 L952 2044 L952 2076 L1159 1869 Z" /></g><g class="o"><path transform="translate(8,16)" class="S sf" d="M1884 1843 L1729 1998 L1849 1998 L2004 1843 Z"/><path class="f3" d="M1884 1843 L1729 1998 L1849 1998 L2004 1843 Z" /></g><g class="o"><path transform="translate(9,18)" class="S sfv" d="M1720 1062 L1547 889 L1547 899 L1720 1072 Z"/><path class="fv5" d="M1720 1062 L1547 889 L1547 899 L1720 1072 Z" /></g><g class="o"><path transform="translate(2,4)" class="S ssv" d="M1301 2007 L1121 2187 L1121 2221 L1301 2041 Z"/><path class="sv2" d="M1301 2007 L1121 2187 L1121 2221 L1301 2041 Z" /></g><g class="o"><path transform="translate(3,6)" class="S sfv" d="M1272 1816 L1091 1635 L1091 1663 L1272 1844 Z"/><path class="fv4" d="M1272 1816 L1091 1635 L1091 1663 L1272 1844 Z" /></g><g class="o"><path transform="translate(5,10)" class="S sfv" d="M1301 1038 L1107 1232 L1107 1268 L1301 1074 Z"/><path class="fv3" d="M1301 1038 L1107 1232 L1107 1268 L1301 1074 Z" /></g><g class="o"><path transform="translate(9,18)" class="S sfv" d="M1211 1641 L973 1403 L973 1427 L1211 1665 Z"/><path class="fv5" d="M1211 1641 L973 1403 L973 1427 L1211 1665 Z" /></g><g class="o"><path transform="translate(4,8)" class="S sfh" d="M1219 1442 L1140 1521 L1168 1521 L1247 1442 Z"/><path class="fh4" d="M1219 1442 L1140 1521 L1168 1521 L1247 1442 Z" /></g><g class="o"><path transform="translate(8,16)" class="S sfh" d="M1814 2008 L1634 1828 L1648 1828 L1828 2008 Z"/><path class="fh2" d="M1814 2008 L1634 1828 L1648 1828 L1828 2008 Z" /></g><g class="o"><path transform="translate(3,6)" class="S ssh" d="M1769 1453 L1521 1205 L1551 1205 L1799 1453 Z"/><path class="sh4" d="M1769 1453 L1521 1205 L1551 1205 L1799 1453 Z" /></g><g class="o"><path transform="translate(3,6)" class="S sfv" d="M1610 979 L1504 1085 L1504 1099 L1610 993 Z"/><path class="fv5" d="M1610 979 L1504 1085 L1504 1099 L1610 993 Z" /></g><g class="o"><path transform="translate(9,18)" class="S ssh" d="M1462 1312 L1304 1470 L1338 1470 L1496 1312 Z"/><path class="sh2" d="M1462 1312 L1304 1470 L1338 1470 L1496 1312 Z" /></g><g class="o"><path transform="translate(9,18)" class="S ss" d="M997 1692 L941 1636 L953 1636 L1009 1692 Z"/><path class="s4" d="M997 1692 L941 1636 L953 1636 L1009 1692 Z" /></g><g class="o"><path transform="translate(7,14)" class="S sfh" d="M1377 1561 L1184 1368 L1214 1368 L1407 1561 Z"/><path class="fh1" d="M1377 1561 L1184 1368 L1214 1368 L1407 1561 Z" /></g><g class="o"><path transform="translate(6,12)" class="S sf" d="M1663 1292 L1596 1225 L1628 1225 L1695 1292 Z"/><path class="f1" d="M1663 1292 L1596 1225 L1628 1225 L1695 1292 Z" /></g><g class="o"><path transform="translate(4,8)" class="S sfh" d="M1539 1217 L1428 1106 L1540 1106 L1651 1217 Z"/><path class="fh7" d="M1539 1217 L1428 1106 L1540 1106 L1651 1217 Z" /></g><g class="o"><path transform="translate(4,8)" class="S sfv" d="M1931 1560 L1850 1479 L1850 1487 L1931 1568 Z"/><path class="fv7" d="M1931 1560 L1850 1479 L1850 1487 L1931 1568 Z" /></g><g class="o"><path transform="translate(4,8)" class="S sfh" d="M1729 1166 L1586 1023 L1608 1023 L1751 1166 Z"/><path class="fh4" d="M1729 1166 L1586 1023 L1608 1023 L1751 1166 Z" /></g><g class="o"><path transform="translate(2,4)" class="S ssh" d="M1809 1500 L1603 1706 L1637 1706 L1843 1500 Z"/><path class="sh7" d="M1809 1500 L1603 1706 L1637 1706 L1843 1500 Z" /></g><g class="o"><path transform="translate(5,10)" class="S sfv" d="M1041 1718 L965 1794 L965 1822 L1041 1746 Z"/><path class="fv6" d="M1041 1718 L965 1794 L965 1822 L1041 1746 Z" /></g><g class="o"><path transform="translate(9,18)" class="S sfv" d="M1662 1732 L1606 1788 L1606 1820 L1662 1764 Z"/><path class="fv6" d="M1662 1732 L1606 1788 L1606 1820 L1662 1764 Z" /></g><g class="o"><path transform="translate(2,4)" class="S ss" d="M1863 1071 L1673 1261 L1687 1261 L1877 1071 Z"/><path class="s7" d="M1863 1071 L1673 1261 L1687 1261 L1877 1071 Z" /></g><g class="o"><path transform="translate(4,8)" class="S sf" d="M1245 1092 L1163 1010 L1163 1048 L1245 1130 Z"/><path class="f1" d="M1245 1092 L1163 1010 L1163 1048 L1245 1130 Z" /></g><g class="o"><path transform="translate(3,6)" class="S sfv" d="M1384 1826 L1323 1765 L1323 1791 L1384 1852 Z"/><path class="fv3" d="M1384 1826 L1323 1765 L1323 1791 L1384 1852 Z" /></g><g class="o"><path transform="translate(3,6)" class="S sf" d="M1598 1954 L1277 1633 L1277 1649 L1598 1970 Z"/><path class="f4" d="M1598 1954 L1277 1633 L1277 1649 L1598 1970 Z" /></g><g class="o"><path transform="translate(5,10)" class="S ssh" d="M1406 1619 L1338 1687 L1360 1687 L1428 1619 Z"/><path class="sh4" d="M1406 1619 L1338 1687 L1360 1687 L1428 1619 Z" /></g><g class="o"><path transform="translate(8,16)" class="S sfv" d="M1137 1750 L947 1560 L947 1584 L1137 1774 Z"/><path class="fv6" d="M1137 1750 L947 1560 L947 1584 L1137 1774 Z" /></g><g class="o"><path transform="translate(4,8)" class="S sf" d="M1176 1929 L970 2135 L970 2173 L1176 1967 Z"/><path class="f2" d="M1176 1929 L970 2135 L970 2173 L1176 1967 Z" /></g><g class="o"><path transform="translate(9,18)" class="S sfh" d="M1708 1215 L1478 1445 L1514 1445 L1744 1215 Z"/><path class="fh3" d="M1708 1215 L1478 1445 L1514 1445 L1744 1215 Z" /></g><g class="o"><path transform="translate(3,6)" class="S sfh" d="M1743 1075 L1608 1210 L1752 1210 L1887 1075 Z"/><path class="fh5" d="M1743 1075 L1608 1210 L1752 1210 L1887 1075 Z" /></g><g class="o"><path transform="translate(5,10)" class="S sfv" d="M1934 1633 L1762 1461 L1762 1501 L1934 1673 Z"/><path class="fv1" d="M1934 1633 L1762 1461 L1762 1501 L1934 1673 Z" /></g><g class="o"><path transform="translate(9,18)" class="S sfh" d="M1609 1271 L1503 1377 L1525 1377 L1631 1271 Z"/><path class="fh3" d="M1609 1271 L1503 1377 L1525 1377 L1631 1271 Z" /></g><g class="o"><path transform="translate(8,16)" class="S sf" d="M1879 1762 L1702 1585 L1702 1623 L1879 1800 Z"/><path class="f3" d="M1879 1762 L1702 1585 L1702 1623 L1879 1800 Z" /></g><g class="o"><path transform="translate(2,4)" class="S ssh" d="M1414 1085 L1311 982 L1339 982 L1442 1085 Z"/><path class="sh4" d="M1414 1085 L1311 982 L1339 982 L1442 1085 Z" /></g><g class="o"><path transform="translate(7,14)" class="S ssv" d="M1322 1065 L1178 921 L1178 945 L1322 1089 Z"/><path class="sv7" d="M1322 1065 L1178 921 L1178 945 L1322 1089 Z" /></g><g class="o"><path transform="translate(4,8)" class="S sfv" d="M1208 1317 L976 1085 L976 1133 L1208 1365 Z"/><path class="fv3" d="M1208 1317 L976 1085 L976 1133 L1208 1365 Z" /></g><g class="o"><path transform="translate(7,14)" class="S sfh" d="M1072 1111 L948 987 L962 987 L1086 1111 Z"/><path class="fh7" d="M1072 1111 L948 987 L962 987 L1086 1111 Z" /></g><g class="o"><path transform="translate(5,10)" class="S sfh" d="M1442 1284 L1273 1115 L1311 1115 L1480 1284 Z"/><path class="fh7" d="M1442 1284 L1273 1115 L1311 1115 L1480 1284 Z" /></g><g class="o"><path transform="translate(5,10)" class="S ssv" d="M1904 1057 L1379 1582 L1379 1612 L1904 1087 Z"/><path class="sv2" d="M1904 1057 L1379 1582 L1379 1612 L1904 1087 Z" /></g><g class="o"><path transform="translate(4,8)" class="S sfv" d="M1738 1690 L1547 1881 L1547 1899 L1738 1708 Z"/><path class="fv1" d="M1738 1690 L1547 1881 L1547 1899 L1738 1708 Z" /></g><g class="o"><path transform="translate(8,16)" class="S sfv" d="M1114 1136 L900 1350 L900 1360 L1114 1146 Z"/><path class="fv6" d="M1114 1136 L900 1350 L900 1360 L1114 1146 Z" /></g><g class="o"><path transform="translate(8,16)" class="S sfh" d="M1921 1207 L1690 976 L1700 976 L1931 1207 Z"/><path class="fh7" d="M1921 1207 L1690 976 L1700 976 L1931 1207 Z" /></g><g class="o"><path transform="translate(6,12)" class="S sf" d="M2039 1518 L1974 1453 L1974 1465 L2039 1530 Z"/><path class="f4" d="M2039 1518 L1974 1453 L1974 1465 L2039 1530 Z" /></g><g class="o"><path transform="translate(2,4)" class="S sf" d="M1338 1284 L1014 960 L1014 988 L1338 1312 Z"/><path class="f7" d="M1338 1284 L1014 960 L1014 988 L1338 1312 Z" /></g><g class="o"><path transform="translate(7,14)" class="S sfv" d="M1518 1001 L1410 1109 L1410 1237 L1518 1129 Z"/><path class="fv4" d="M1518 1001 L1410 1109 L1410 1237 L1518 1129 Z" /></g><g class="o"><path transform="translate(2,4)" class="S sfh" d="M1332 1979 L1265 1912 L1305 1912 L1372 1979 Z"/><path class="fh6" d="M1332 1979 L1265 1912 L1305 1912 L1372 1979 Z" /></g><g class="o"><path transform="translate(7,14)" class="S sfv" d="M1371 1727 L1179 1919 L1179 1947 L1371 1755 Z"/><path class="fv2" d="M1371 1727 L1179 1919 L1179 1947 L1371 1755 Z" /></g><g class="o"><path transform="translate(6,12)" class="S sfh" d="M1248 1275 L1125 1152 L1163 1152 L1286 1275 Z"/><path class="fh2" d="M1248 1275 L1125 1152 L1163 1152 L1286 1275 Z" /></g><g class="o"><path transform="translate(7,14)" class="S sfv" d="M1656 1488 L1529 1615 L1529 1639 L1656 1512 Z"/><path class="fv4" d="M1656 1488 L1529 1615 L1529 1639 L1656 1512 Z" /></g><g class="o"><path transform="translate(4,8)" class="S sfv" d="M1557 1748 L1501 1804 L1501 1836 L1557 1780 Z"/><path class="fv3" d="M1557 1748 L1501 1804 L1501 1836 L1557 1780 Z" /></g><g class="o"><path transform="translate(8,16)" class="S sfh" d="M1553 1760 L1474 1681 L1500 1681 L1579 1760 Z"/><path class="fh5" d="M1553 1760 L1474 1681 L1500 1681 L1579 1760 Z" /></g><g class="o"><path transform="translate(7,14)" class="S ssh" d="M1446 1726 L894 1174 L906 1174 L1458 1726 Z"/><path class="sh4" d="M1446 1726 L894 1174 L906 1174 L1458 1726 Z" /></g><g class="o"><path transform="translate(5,10)" class="S sfh" d="M1257 2015 L510 2762 L526 2762 L1273 2015 Z"/><path class="fh1" d="M1257 2015 L510 2762 L526 2762 L1273 2015 Z" /></g><g class="o"><path transform="translate(4,8)" class="S ssh" d="M996 1647 L891 1752 L1011 1752 L1116 1647 Z"/><path class="sh4" d="M996 1647 L891 1752 L1011 1752 L1116 1647 Z" /></g><g class="o"><path transform="translate(5,10)" class="S ss" d="M1353 1371 L1173 1551 L1173 1565 L1353 1385 Z"/><path class="s7" d="M1353 1371 L1173 1551 L1173 1565 L1353 1385 Z" /></g><g class="o"><path transform="translate(9,18)" class="S sfh" d="M1578 1550 L1413 1715 L1451 1715 L1616 1550 Z"/><path class="fh3" d="M1578 1550 L1413 1715 L1451 1715 L1616 1550 Z" /></g><g class="o"><path transform="translate(5,10)" class="S ssv" d="M1727 1693 L1621 1799 L1621 1863 L1727 1757 Z"/><path class="sv6" d="M1727 1693 L1621 1799 L1621 1863 L1727 1757 Z" /></g><g class="o"><path transform="translate(8,16)" class="S sf" d="M1971 1736 L1727 1980 L1749 1980 L1993 1736 Z"/><path class="f6" d="M1971 1736 L1727 1980 L1749 1980 L1993 1736 Z" /></g><g class="o"><path transform="translate(8,16)" class="S sf" d="M1998 988 L1911 901 L1911 919 L1998 1006 Z"/><path class="f2" d="M1998 988 L1911 901 L1911 919 L1998 1006 Z" /></g><g class="o"><path transform="translate(9,18)" class="S sf" d="M1283 1039 L1110 866 L1110 878 L1283 1051 Z"/><path class="f2" d="M1283 1039 L1110 866 L1110 878 L1283 1051 Z" /></g><g class="o"><path transform="translate(8,16)" class="S sfv" d="M1673 1840 L1561 1728 L1561 1752 L1673 1864 Z"/><path class="fv5" d="M1673 1840 L1561 1728 L1561 1752 L1673 1864 Z" /></g><g class="o"><path transform="translate(4,8)" class="S sfv" d="M1759 969 L1633 843 L1633 869 L1759 995 Z"/><path class="fv4" d="M1759 969 L1633 843 L1633 869 L1759 995 Z" /></g><g class="o"><path transform="translate(5,10)" class="S sf" d="M1722 1858 L1212 2368 L1236 2368 L1746 1858 Z"/><path class="f2" d="M1722 1858 L1212 2368 L1236 2368 L1746 1858 Z" /></g><g class="o"><path transform="translate(2,4)" class="S sfh" d="M1559 1298 L1393 1464 L1417 1464 L1583 1298 Z"/><path class="fh1" d="M1559 1298 L1393 1464 L1417 1464 L1583 1298 Z" /></g><g class="o"><path transform="translate(5,10)" class="S ssh" d="M1846 1686 L1632 1900 L1670 1900 L1884 1686 Z"/><path class="sh3" d="M1846 1686 L1632 1900 L1670 1900 L1884 1686 Z" /></g><g class="o"><path transform="translate(6,12)" class="S sfh" d="M972 1936 L802 1766 L836 1766 L1006 1936 Z"/><path class="fh7" d="M972 1936 L802 1766 L836 1766 L1006 1936 Z" /></g><g class="o"><path transform="translate(9,18)" class="S sfv" d="M1714 1393 L1504 1603 L1504 1641 L1714 1431 Z"/><path class="fv1" d="M1714 1393 L1504 1603 L1504 1641 L1714 1431 Z" /></g><g class="o"><path transform="translate(7,14)" class="S ss" d="M1606 1074 L1533 1147 L1551 1147 L1624 1074 Z"/><path class="s4" d="M1606 1074 L1533 1147 L1551 1147 L1624 1074 Z" /></g><g class="o"><path transform="translate(3,6)" class="S ss" d="M1583 1710 L1477 1816 L1477 1836 L1583 1730 Z"/><path class="s6" d="M1583 1710 L1477 1816 L1477 1836 L1583 1730 Z" /></g><g class="o"><path transform="translate(2,4)" class="S sfv" d="M1347 1613 L1162 1428 L1162 1456 L1347 1641 Z"/><path class="fv5" d="M1347 1613 L1162 1428 L1162 1456 L1347 1641 Z" /></g><g class="o"><path transform="translate(8,16)" class="S sf" d="M956 1693 L317 2332 L317 2342 L956 1703 Z"/><path class="f6" d="M956 1693 L317 2332 L317 2342 L956 1703 Z" /></g><g class="o"><path transform="translate(9,18)" class="S sfh" d="M1609 1734 L1030 2313 L1056 2313 L1635 1734 Z"/><path class="fh3" d="M1609 1734 L1030 2313 L1056 2313 L1635 1734 Z" /></g><g class="o"><path transform="translate(2,4)" class="S sf" d="M1861 1744 L1339 1222 L1339 1236 L1861 1758 Z"/><path class="f2" d="M1861 1744 L1339 1222 L1339 1236 L1861 1758 Z" /></g><g class="o"><path transform="translate(9,18)" class="S sf" d="M1762 1295 L1528 1529 L1528 1545 L1762 1311 Z"/><path class="f2" d="M1762 1295 L1528 1529 L1528 1545 L1762 1311 Z" /></g><g class="o"><path transform="translate(5,10)" class="S sfh" d="M1658 1021 L1608 1071 L1642 1071 L1692 1021 Z"/><path class="fh7" d="M1658 1021 L1608 1071 L1642 1071 L1692 1021 Z" /></g><g class="o"><path transform="translate(9,18)" class="S sf" d="M1506 1981 L1289 2198 L1289 2206 L1506 1989 Z"/><path class="f2" d="M1506 1981 L1289 2198 L1289 2206 L1506 1989 Z" /></g><g class="o"><path transform="translate(7,14)" class="S sfv" d="M1535 1674 L1340 1869 L1340 1981 L1535 1786 Z"/><path class="fv3" d="M1535 1674 L1340 1869 L1340 1981 L1535 1786 Z" /></g><g class="o"><path transform="translate(7,14)" class="S sfv" d="M1484 1184 L1001 701 L1001 717 L1484 1200 Z"/><path class="fv4" d="M1484 1184 L1001 701 L1001 717 L1484 1200 Z" /></g><g class="o"><path transform="translate(3,6)" class="S sfh" d="M961 1038 L805 882 L823 882 L979 1038 Z"/><path class="fh5" d="M961 1038 L805 882 L823 882 L979 1038 Z" /></g><g class="o"><path transform="translate(3,6)" class="S sfh" d="M1671 1700 L1591 1620 L1619 1620 L1699 1700 Z"/><path class="fh6" d="M1671 1700 L1591 1620 L1619 1620 L1699 1700 Z" /></g><g class="o"><path transform="translate(2,4)" class="S sfv" d="M1153 1253 L1033 1373 L1033 1445 L1153 1325 Z"/><path class="fv7" d="M1153 1253 L1033 1373 L1033 1445 L1153 1325 Z" /></g><g class="o"><path transform="translate(5,10)" class="S sfv" d="M1179 1244 L949 1014 L949 1042 L1179 1272 Z"/><path class="fv7" d="M1179 1244 L949 1014 L949 1042 L1179 1272 Z" /></g><g class="o"><path transform="translate(6,12)" class="S ssh" d="M1608 2007 L1481 1880 L1509 1880 L1636 2007 Z"/><path class="sh2" d="M1608 2007 L1481 1880 L1509 1880 L1636 2007 Z" /></g><g class="o"><path transform="translate(3,6)" class="S sf" d="M1344 1200 L1166 1378 L1166 1398 L1344 1220 Z"/><path class="f7" d="M1344 1200 L1166 1378 L1166 1398 L1344 1220 Z" /></g><g class="o"><path transform="translate(4,8)" class="S sfv" d="M1024 1467 L298 2193 L298 2227 L1024 1501 Z"/><path class="fv5" d="M1024 1467 L298 2193 L298 2227 L1024 1501 Z" /></g><g class="o"><path transform="translate(8,16)" class="S sfv" d="M1423 1450 L1361 1512 L1361 1522 L1423 1460 Z"/><path class="fv4" d="M1423 1450 L1361 1512 L1361 1522 L1423 1460 Z" /></g><g class="o"><path transform="translate(7,14)" class="S sfh" d="M1588 1301 L1444 1445 L1478 1445 L1622 1301 Z"/><path class="fh3" d="M1588 1301 L1444 1445 L1478 1445 L1622 1301 Z" /></g><g class="o"><path transform="translate(6,12)" class="S sf" d="M1168 1800 L978 1990 L1016 1990 L1206 1800 Z"/><path class="f5" d="M1168 1800 L978 1990 L1016 1990 L1206 1800 Z" /></g><g class="o"><path transform="translate(3,6)" class="S ssv" d="M1772 1624 L1376 1228 L1376 1242 L1772 1638 Z"/><path class="sv2" d="M1772 1624 L1376 1228 L1376 1242 L1772 1638 Z" /></g></g><use href="#slashes" transform-origin="1500 1500" transform="rotate(180) scale(2)"/></g><circle cx="1500" cy="1500" r="450" stroke-width="160" class="o s7" /><use href="#slashes" transform-origin="1500 1500" transform="scale(.9)"/><use href="#slashes" transform-origin="1500 1500" transform="rotate(180) scale(.9)"/></svg>