<svg xmlns="http://www.w3.org/2000/svg" viewBox="750 750 1500 1500"><style>/*<![CDATA[*/svg{background:rgb(4,178,217);max-width:100vw;max-height:100vh}path{stroke-width:4}.o{opacity:.75}.S{opacity:.4}.sf{stroke:none;fill:black}.sfh{stroke:none;fill:url(#hs)}.sfv{stroke:none;fill:url(#vs)}.ss{stroke:black;fill:none}.ssh{stroke:url(#hs);fill:none}.ssv{stroke:url(#vs);fill:none}.s1{fill:none;stroke:rgb(34,34,34)}.f1{stroke:none;fill:rgb(34,34,34)}.sh1{fill:none;stroke:url(#h1)}.fh1{stroke:none;fill:url(#h1)}.sv1{fill:none;stroke:url(#v1)}.fv1{stroke:none;fill:url(#v1)}.s2{fill:none;stroke:rgb(5,219,242)}.f2{stroke:none;fill:rgb(5,219,242)}.sh2{fill:none;stroke:url(#h2)}.fh2{stroke:none;fill:url(#h2)}.sv2{fill:none;stroke:url(#v2)}.fv2{stroke:none;fill:url(#v2)}.s3{fill:none;stroke:rgb(3,90,166)}.f3{stroke:none;fill:rgb(3,90,166)}.sh3{fill:none;stroke:url(#h3)}.fh3{stroke:none;fill:url(#h3)}.sv3{fill:none;stroke:url(#v3)}.fv3{stroke:none;fill:url(#v3)}.s4{fill:none;stroke:rgb(166,3,47)}.f4{stroke:none;fill:rgb(166,3,47)}.sh4{fill:none;stroke:url(#h4)}.fh4{stroke:none;fill:url(#h4)}.sv4{fill:none;stroke:url(#v4)}.fv4{stroke:none;fill:url(#v4)}.s5{fill:none;stroke:rgb(2,40,115)}.f5{stroke:none;fill:rgb(2,40,115)}.sh5{fill:none;stroke:url(#h5)}.fh5{stroke:none;fill:url(#h5)}.sv5{fill:none;stroke:url(#v5)}.fv5{stroke:none;fill:url(#v5)}.s6{fill:none;stroke:rgb(255,255,255)}.f6{stroke:none;fill:rgb(255,255,255)}.sh6{fill:none;stroke:url(#h6)}.fh6{stroke:none;fill:url(#h6)}.sv6{fill:none;stroke:url(#v6)}.fv6{stroke:none;fill:url(#v6)}.s7{fill:none;stroke:rgb(255,255,0)}.f7{stroke:none;fill:rgb(255,255,0)}.sh7{fill:none;stroke:url(#h7)}.fh7{stroke:none;fill:url(#h7)}.sv7{fill:none;stroke:url(#v7)}.fv7{stroke:none;fill:url(#v7)}/*]]>*/</style><defs><linearGradient gradientTransform="rotate(90)" id="hs"><stop offset="20%" stop-color="#000" /><stop offset="95%" stop-color="rgba(0, 0, 0, 0)" /></linearGradient><linearGradient id="vs"><stop offset="20%" stop-color="#000" /><stop offset="95%" stop-color="rgba(0, 0, 0, 0)" /></linearGradient><linearGradient gradientTransform="rotate(90)" id="h1"><stop offset="20%" stop-color="rgba(34,34,34,1)" /><stop offset="95%" stop-color="rgba(34,34,34,0)" /></linearGradient><linearGradient id="v1"><stop offset="20%" stop-color="rgba(34,34,34,1)" /><stop offset="95%" stop-color="rgba(34,34,34,0)" /></linearGradient><linearGradient gradientTransform="rotate(90)" id="h2"><stop offset="20%" stop-color="rgba(5,219,242,1)" /><stop offset="95%" stop-color="rgba(5,219,242,0)" /></linearGradient><linearGradient id="v2"><stop offset="20%" stop-color="rgba(5,219,242,1)" /><stop offset="95%" stop-color="rgba(5,219,242,0)" /></linearGradient><linearGradient gradientTransform="rotate(90)" id="h3"><stop offset="20%" stop-color="rgba(3,90,166,1)" /><stop offset="95%" stop-color="rgba(3,90,166,0)" /></linearGradient><linearGradient id="v3"><stop offset="20%" stop-color="rgba(3,90,166,1)" /><stop offset="95%" stop-color="rgba(3,90,166,0)" /></linearGradient><linearGradient gradientTransform="rotate(90)" id="h4"><stop offset="20%" stop-color="rgba(166,3,47,1)" /><stop offset="95%" stop-color="rgba(166,3,47,0)" /></linearGradient><linearGradient id="v4"><stop offset="20%" stop-color="rgba(166,3,47,1)" /><stop offset="95%" stop-color="rgba(166,3,47,0)" /></linearGradient><linearGradient gradientTransform="rotate(90)" id="h5"><stop offset="20%" stop-color="rgba(2,40,115,1)" /><stop offset="95%" stop-color="rgba(2,40,115,0)" /></linearGradient><linearGradient id="v5"><stop offset="20%" stop-color="rgba(2,40,115,1)" /><stop offset="95%" stop-color="rgba(2,40,115,0)" /></linearGradient><linearGradient gradientTransform="rotate(90)" id="h6"><stop offset="20%" stop-color="rgba(255,255,255,1)" /><stop offset="95%" stop-color="rgba(255,255,255,0)" /></linearGradient><linearGradient id="v6"><stop offset="20%" stop-color="rgba(255,255,255,1)" /><stop offset="95%" stop-color="rgba(255,255,255,0)" /></linearGradient><linearGradient gradientTransform="rotate(90)" id="h7"><stop offset="20%" stop-color="rgba(255,255,0,1)" /><stop offset="95%" stop-color="rgba(255,255,0,0)" /></linearGradient><linearGradient id="v7"><stop offset="20%" stop-color="rgba(255,255,0,1)" /><stop offset="95%" stop-color="rgba(255,255,0,0)" /></linearGradient></defs><g transform-origin="1500 1500" transform="scale(2)" opacity=".8"><g id="slashes"><g class="o"><path transform="translate(4,8)" class="S sf" d="M967 1836 L1209 1594 L1229 1594 L987 1836 Z"/><path class="f6" d="M967 1836 L1209 1594 L1229 1594 L987 1836 Z" /></g><g class="o"><path transform="translate(8,16)" class="S sf" d="M1449 1484 L1646 1681 L1646 1703 L1449 1506 Z"/><path class="f2" d="M1449 1484 L1646 1681 L1646 1703 L1449 1506 Z" /></g><g class="o"><path transform="translate(2,4)" class="S sf" d="M1158 1777 L1377 1558 L1377 1584 L1158 1803 Z"/><path class="f6" d="M1158 1777 L1377 1558 L1377 1584 L1158 1803 Z" /></g><g class="o"><path transform="translate(6,12)" class="S sf" d="M1954 1929 L2118 2093 L2128 2093 L1964 1929 Z"/><path class="f5" d="M1954 1929 L2118 2093 L2128 2093 L1964 1929 Z" /></g><g class="o"><path transform="translate(3,6)" class="S sf" d="M1561 1224 L1750 1413 L1750 1435 L1561 1246 Z"/><path class="f3" d="M1561 1224 L1750 1413 L1750 1435 L1561 1246 Z" /></g><g class="o"><path transform="translate(5,10)" class="S sf" d="M961 1960 L1015 1906 L1015 1920 L961 1974 Z"/><path class="f7" d="M961 1960 L1015 1906 L1015 1920 L961 1974 Z" /></g><g class="o"><path transform="translate(2,4)" class="S sf" d="M960 1277 L1085 1152 L1085 1168 L960 1293 Z"/><path class="f5" d="M960 1277 L1085 1152 L1085 1168 L960 1293 Z" /></g><g class="o"><path transform="translate(7,14)" class="S sf" d="M1686 1382 L1837 1533 L1837 1541 L1686 1390 Z"/><path class="f6" d="M1686 1382 L1837 1533 L1837 1541 L1686 1390 Z" /></g><g class="o"><path transform="translate(3,6)" class="S sf" d="M1203 1023 L1377 849 L1377 863 L1203 1037 Z"/><path class="f2" d="M1203 1023 L1377 849 L1377 863 L1203 1037 Z" /></g><g class="o"><path transform="translate(9,18)" class="S sf" d="M1405 1879 L1607 2081 L1607 2089 L1405 1887 Z"/><path class="f6" d="M1405 1879 L1607 2081 L1607 2089 L1405 1887 Z" /></g><g class="o"><path transform="translate(9,18)" class="S sf" d="M1313 1379 L1467 1225 L1481 1225 L1327 1379 Z"/><path class="f5" d="M1313 1379 L1467 1225 L1481 1225 L1327 1379 Z" /></g><g class="o"><path transform="translate(7,14)" class="S ss" d="M1499 1884 L1670 1713 L1704 1713 L1533 1884 Z"/><path class="s1" d="M1499 1884 L1670 1713 L1704 1713 L1533 1884 Z" /></g><g class="o"><path transform="translate(4,8)" class="S sf" d="M1423 1530 L1636 1743 L1644 1743 L1431 1530 Z"/><path class="f7" d="M1423 1530 L1636 1743 L1644 1743 L1431 1530 Z" /></g><g class="o"><path transform="translate(6,12)" class="S sf" d="M1402 1451 L1492 1541 L1512 1541 L1422 1451 Z"/><path class="f4" d="M1402 1451 L1492 1541 L1512 1541 L1422 1451 Z" /></g><g class="o"><path transform="translate(4,8)" class="S sf" d="M1583 1637 L1659 1713 L1695 1713 L1619 1637 Z"/><path class="f2" d="M1583 1637 L1659 1713 L1695 1713 L1619 1637 Z" /></g><g class="o"><path transform="translate(6,12)" class="S sf" d="M1284 1964 L1419 1829 L1455 1829 L1320 1964 Z"/><path class="f5" d="M1284 1964 L1419 1829 L1455 1829 L1320 1964 Z" /></g><g class="o"><path transform="translate(4,8)" class="S sf" d="M1310 1146 L1380 1216 L1416 1216 L1346 1146 Z"/><path class="f6" d="M1310 1146 L1380 1216 L1416 1216 L1346 1146 Z" /></g><g class="o"><path transform="translate(2,4)" class="S sf" d="M1813 1403 L1935 1525 L1951 1525 L1829 1403 Z"/><path class="f7" d="M1813 1403 L1935 1525 L1951 1525 L1829 1403 Z" /></g><g class="o"><path transform="translate(5,10)" class="S ss" d="M1444 2022 L1513 2091 L1513 2105 L1444 2036 Z"/><path class="s4" d="M1444 2022 L1513 2091 L1513 2105 L1444 2036 Z" /></g><g class="o"><path transform="translate(4,8)" class="S sf" d="M1704 1509 L1808 1613 L1808 1637 L1704 1533 Z"/><path class="f1" d="M1704 1509 L1808 1613 L1808 1637 L1704 1533 Z" /></g><g class="o"><path transform="translate(2,4)" class="S ss" d="M2023 1820 L2176 1667 L2176 1677 L2023 1830 Z"/><path class="s7" d="M2023 1820 L2176 1667 L2176 1677 L2023 1830 Z" /></g><g class="o"><path transform="translate(9,18)" class="S sf" d="M1168 1071 L1324 1227 L1324 1237 L1168 1081 Z"/><path class="f1" d="M1168 1071 L1324 1227 L1324 1237 L1168 1081 Z" /></g><g class="o"><path transform="translate(5,10)" class="S sf" d="M1781 1202 L1869 1114 L1869 1142 L1781 1230 Z"/><path class="f2" d="M1781 1202 L1869 1114 L1869 1142 L1781 1230 Z" /></g><g class="o"><path transform="translate(5,10)" class="S ss" d="M1047 1720 L1205 1562 L1205 1588 L1047 1746 Z"/><path class="s1" d="M1047 1720 L1205 1562 L1205 1588 L1047 1746 Z" /></g><g class="o"><path transform="translate(7,14)" class="S sf" d="M1991 1513 L2096 1408 L2116 1408 L2011 1513 Z"/><path class="f5" d="M1991 1513 L2096 1408 L2116 1408 L2011 1513 Z" /></g><g class="o"><path transform="translate(5,10)" class="S sf" d="M1945 1181 L2063 1299 L2063 1315 L1945 1197 Z"/><path class="f3" d="M1945 1181 L2063 1299 L2063 1315 L1945 1197 Z" /></g><g class="o"><path transform="translate(4,8)" class="S ss" d="M1219 1078 L1651 646 L1659 646 L1227 1078 Z"/><path class="s1" d="M1219 1078 L1651 646 L1659 646 L1227 1078 Z" /></g><g class="o"><path transform="translate(4,8)" class="S sf" d="M994 1601 L1065 1530 L1081 1530 L1010 1601 Z"/><path class="f2" d="M994 1601 L1065 1530 L1081 1530 L1010 1601 Z" /></g><g class="o"><path transform="translate(4,8)" class="S ss" d="M1260 1475 L1408 1327 L1416 1327 L1268 1475 Z"/><path class="s6" d="M1260 1475 L1408 1327 L1416 1327 L1268 1475 Z" /></g><g class="o"><path transform="translate(5,10)" class="S ss" d="M1046 1126 L1189 1269 L1209 1269 L1066 1126 Z"/><path class="s6" d="M1046 1126 L1189 1269 L1209 1269 L1066 1126 Z" /></g><g class="o"><path transform="translate(5,10)" class="S sf" d="M1342 1590 L2071 2319 L2105 2319 L1376 1590 Z"/><path class="f2" d="M1342 1590 L2071 2319 L2105 2319 L1376 1590 Z" /></g><g class="o"><path transform="translate(8,16)" class="S sf" d="M1188 1279 L1374 1465 L1374 1473 L1188 1287 Z"/><path class="f4" d="M1188 1279 L1374 1465 L1374 1473 L1188 1287 Z" /></g><g class="o"><path transform="translate(6,12)" class="S sf" d="M1055 1752 L1211 1596 L1211 1604 L1055 1760 Z"/><path class="f3" d="M1055 1752 L1211 1596 L1211 1604 L1055 1760 Z" /></g><g class="o"><path transform="translate(6,12)" class="S sf" d="M1082 999 L1206 875 L1206 887 L1082 1011 Z"/><path class="f7" d="M1082 999 L1206 875 L1206 887 L1082 1011 Z" /></g><g class="o"><path transform="translate(6,12)" class="S sf" d="M1059 1801 L1151 1893 L1151 1923 L1059 1831 Z"/><path class="f7" d="M1059 1801 L1151 1893 L1151 1923 L1059 1831 Z" /></g><g class="o"><path transform="translate(4,8)" class="S sf" d="M1728 1044 L1880 892 L1902 892 L1750 1044 Z"/><path class="f7" d="M1728 1044 L1880 892 L1902 892 L1750 1044 Z" /></g><g class="o"><path transform="translate(9,18)" class="S sf" d="M1241 1327 L1455 1541 L1455 1575 L1241 1361 Z"/><path class="f3" d="M1241 1327 L1455 1541 L1455 1575 L1241 1361 Z" /></g><g class="o"><path transform="translate(3,6)" class="S ss" d="M1195 1861 L1247 1913 L1247 1949 L1195 1897 Z"/><path class="s6" d="M1195 1861 L1247 1913 L1247 1949 L1195 1897 Z" /></g><g class="o"><path transform="translate(2,4)" class="S sf" d="M1709 1728 L1859 1578 L1859 1604 L1709 1754 Z"/><path class="f1" d="M1709 1728 L1859 1578 L1859 1604 L1709 1754 Z" /></g><g class="o"><path transform="translate(4,8)" class="S sf" d="M1278 1326 L1511 1093 L1547 1093 L1314 1326 Z"/><path class="f1" d="M1278 1326 L1511 1093 L1547 1093 L1314 1326 Z" /></g><g class="o"><path transform="translate(8,16)" class="S sf" d="M1970 1820 L2109 1959 L2137 1959 L1998 1820 Z"/><path class="f6" d="M1970 1820 L2109 1959 L2137 1959 L1998 1820 Z" /></g><g class="o"><path transform="translate(5,10)" class="S sf" d="M1424 1176 L2156 1908 L2188 1908 L1456 1176 Z"/><path class="f3" d="M1424 1176 L2156 1908 L2188 1908 L1456 1176 Z" /></g><g class="o"><path transform="translate(5,10)" class="S sf" d="M1656 1238 L1778 1360 L1794 1360 L1672 1238 Z"/><path class="f7" d="M1656 1238 L1778 1360 L1794 1360 L1672 1238 Z" /></g><g class="o"><path transform="translate(8,16)" class="S sf" d="M1180 1761 L1273 1668 L1273 1696 L1180 1789 Z"/><path class="f2" d="M1180 1761 L1273 1668 L1273 1696 L1180 1789 Z" /></g><g class="o"><path transform="translate(8,16)" class="S ss" d="M1337 998 L1447 888 L1447 924 L1337 1034 Z"/><path class="s1" d="M1337 998 L1447 888 L1447 924 L1337 1034 Z" /></g><g class="o"><path transform="translate(2,4)" class="S sf" d="M1931 1345 L2045 1459 L2045 1467 L1931 1353 Z"/><path class="f5" d="M1931 1345 L2045 1459 L2045 1467 L1931 1353 Z" /></g><g class="o"><path transform="translate(7,14)" class="S sf" d="M2008 1805 L2067 1746 L2095 1746 L2036 1805 Z"/><path class="f5" d="M2008 1805 L2067 1746 L2095 1746 L2036 1805 Z" /></g><g class="o"><path transform="translate(7,14)" class="S ss" d="M2041 1458 L2272 1689 L2288 1689 L2057 1458 Z"/><path class="s7" d="M2041 1458 L2272 1689 L2288 1689 L2057 1458 Z" /></g><g class="o"><path transform="translate(2,4)" class="S sf" d="M2037 1152 L2220 1335 L2220 1351 L2037 1168 Z"/><path class="f6" d="M2037 1152 L2220 1335 L2220 1351 L2037 1168 Z" /></g><g class="o"><path transform="translate(3,6)" class="S ss" d="M1666 1863 L1763 1960 L1801 1960 L1704 1863 Z"/><path class="s6" d="M1666 1863 L1763 1960 L1801 1960 L1704 1863 Z" /></g><g class="o"><path transform="translate(6,12)" class="S sf" d="M1870 996 L2027 1153 L2063 1153 L1906 996 Z"/><path class="f5" d="M1870 996 L2027 1153 L2063 1153 L1906 996 Z" /></g><g class="o"><path transform="translate(3,6)" class="S sf" d="M1046 1366 L1104 1424 L1142 1424 L1084 1366 Z"/><path class="f3" d="M1046 1366 L1104 1424 L1142 1424 L1084 1366 Z" /></g><g class="o"><path transform="translate(5,10)" class="S sf" d="M1996 999 L2173 822 L2207 822 L2030 999 Z"/><path class="f2" d="M1996 999 L2173 822 L2207 822 L2030 999 Z" /></g><g class="o"><path transform="translate(7,14)" class="S ss" d="M1511 1715 L1669 1557 L1669 1579 L1511 1737 Z"/><path class="s5" d="M1511 1715 L1669 1557 L1669 1579 L1511 1737 Z" /></g><g class="o"><path transform="translate(7,14)" class="S sf" d="M1519 1883 L1761 2125 L1761 2145 L1519 1903 Z"/><path class="f7" d="M1519 1883 L1761 2125 L1761 2145 L1519 1903 Z" /></g><g class="o"><path transform="translate(9,18)" class="S ss" d="M1840 1674 L2002 1836 L2032 1836 L1870 1674 Z"/><path class="s5" d="M1840 1674 L2002 1836 L2032 1836 L1870 1674 Z" /></g><g class="o"><path transform="translate(9,18)" class="S sf" d="M1854 1157 L1966 1269 L1976 1269 L1864 1157 Z"/><path class="f3" d="M1854 1157 L1966 1269 L1976 1269 L1864 1157 Z" /></g><g class="o"><path transform="translate(3,6)" class="S ss" d="M1024 1491 L1169 1346 L1169 1358 L1024 1503 Z"/><path class="s1" d="M1024 1491 L1169 1346 L1169 1358 L1024 1503 Z" /></g><g class="o"><path transform="translate(7,14)" class="S sf" d="M1674 1776 L2304 2406 L2322 2406 L1692 1776 Z"/><path class="f6" d="M1674 1776 L2304 2406 L2322 2406 L1692 1776 Z" /></g><g class="o"><path transform="translate(2,4)" class="S sf" d="M1418 1180 L1613 1375 L1627 1375 L1432 1180 Z"/><path class="f3" d="M1418 1180 L1613 1375 L1627 1375 L1432 1180 Z" /></g><g class="o"><path transform="translate(5,10)" class="S sf" d="M1203 1074 L1376 1247 L1376 1281 L1203 1108 Z"/><path class="f3" d="M1203 1074 L1376 1247 L1376 1281 L1203 1108 Z" /></g><g class="o"><path transform="translate(3,6)" class="S sf" d="M1902 1746 L1991 1657 L2009 1657 L1920 1746 Z"/><path class="f4" d="M1902 1746 L1991 1657 L2009 1657 L1920 1746 Z" /></g><g class="o"><path transform="translate(8,16)" class="S ss" d="M1516 1362 L1638 1240 L1638 1260 L1516 1382 Z"/><path class="s1" d="M1516 1362 L1638 1240 L1638 1260 L1516 1382 Z" /></g><g class="o"><path transform="translate(8,16)" class="S sf" d="M1998 1070 L2187 1259 L2187 1293 L1998 1104 Z"/><path class="f7" d="M1998 1070 L2187 1259 L2187 1293 L1998 1104 Z" /></g><g class="o"><path transform="translate(3,6)" class="S ss" d="M1139 1726 L1249 1836 L1283 1836 L1173 1726 Z"/><path class="s4" d="M1139 1726 L1249 1836 L1283 1836 L1173 1726 Z" /></g><g class="o"><path transform="translate(2,4)" class="S sf" d="M1128 1375 L1605 1852 L1605 1884 L1128 1407 Z"/><path class="f7" d="M1128 1375 L1605 1852 L1605 1884 L1128 1407 Z" /></g><g class="o"><path transform="translate(3,6)" class="S sf" d="M1277 1694 L1349 1766 L1349 1788 L1277 1716 Z"/><path class="f1" d="M1277 1694 L1349 1766 L1349 1788 L1277 1716 Z" /></g><g class="o"><path transform="translate(6,12)" class="S sf" d="M1611 1228 L1772 1389 L1782 1389 L1621 1228 Z"/><path class="f2" d="M1611 1228 L1772 1389 L1782 1389 L1621 1228 Z" /></g><g class="o"><path transform="translate(8,16)" class="S sf" d="M1617 1431 L1825 1639 L1863 1639 L1655 1431 Z"/><path class="f4" d="M1617 1431 L1825 1639 L1863 1639 L1655 1431 Z" /></g><g class="o"><path transform="translate(5,10)" class="S sf" d="M1956 1461 L2180 1685 L2180 1705 L1956 1481 Z"/><path class="f7" d="M1956 1461 L2180 1685 L2180 1705 L1956 1481 Z" /></g><g class="o"><path transform="translate(3,6)" class="S sf" d="M1358 1818 L1583 1593 L1617 1593 L1392 1818 Z"/><path class="f6" d="M1358 1818 L1583 1593 L1617 1593 L1392 1818 Z" /></g><g class="o"><path transform="translate(5,10)" class="S ss" d="M1205 1862 L1328 1985 L1328 2017 L1205 1894 Z"/><path class="s3" d="M1205 1862 L1328 1985 L1328 2017 L1205 1894 Z" /></g><g class="o"><path transform="translate(9,18)" class="S sf" d="M1643 1478 L1763 1598 L1763 1624 L1643 1504 Z"/><path class="f7" d="M1643 1478 L1763 1598 L1763 1624 L1643 1504 Z" /></g><g class="o"><path transform="translate(2,4)" class="S sf" d="M1772 1893 L1945 2066 L1957 2066 L1784 1893 Z"/><path class="f2" d="M1772 1893 L1945 2066 L1957 2066 L1784 1893 Z" /></g><g class="o"><path transform="translate(2,4)" class="S ss" d="M1348 1440 L1510 1278 L1532 1278 L1370 1440 Z"/><path class="s7" d="M1348 1440 L1510 1278 L1532 1278 L1370 1440 Z" /></g><g class="o"><path transform="translate(2,4)" class="S sf" d="M1978 1971 L2116 2109 L2116 2117 L1978 1979 Z"/><path class="f2" d="M1978 1971 L2116 2109 L2116 2117 L1978 1979 Z" /></g><g class="o"><path transform="translate(7,14)" class="S sf" d="M1497 1932 L1667 1762 L1701 1762 L1531 1932 Z"/><path class="f5" d="M1497 1932 L1667 1762 L1701 1762 L1531 1932 Z" /></g><g class="o"><path transform="translate(2,4)" class="S sf" d="M1309 1318 L1512 1115 L1512 1135 L1309 1338 Z"/><path class="f2" d="M1309 1318 L1512 1115 L1512 1135 L1309 1338 Z" /></g><g class="o"><path transform="translate(8,16)" class="S sf" d="M1893 952 L1958 887 L1958 917 L1893 982 Z"/><path class="f5" d="M1893 952 L1958 887 L1958 917 L1893 982 Z" /></g><g class="o"><path transform="translate(9,18)" class="S sf" d="M1069 1994 L1304 1759 L1304 1787 L1069 2022 Z"/><path class="f4" d="M1069 1994 L1304 1759 L1304 1787 L1069 2022 Z" /></g><g class="o"><path transform="translate(8,16)" class="S sf" d="M1356 1899 L1593 1662 L1625 1662 L1388 1899 Z"/><path class="f2" d="M1356 1899 L1593 1662 L1625 1662 L1388 1899 Z" /></g><g class="o"><path transform="translate(8,16)" class="S sf" d="M1555 1708 L2275 988 L2297 988 L1577 1708 Z"/><path class="f1" d="M1555 1708 L2275 988 L2297 988 L1577 1708 Z" /></g><g class="o"><path transform="translate(6,12)" class="S ss" d="M945 1403 L1081 1539 L1095 1539 L959 1403 Z"/><path class="s5" d="M945 1403 L1081 1539 L1095 1539 L959 1403 Z" /></g><g class="o"><path transform="translate(5,10)" class="S sf" d="M1018 1615 L1078 1675 L1096 1675 L1036 1615 Z"/><path class="f1" d="M1018 1615 L1078 1675 L1096 1675 L1036 1615 Z" /></g><g class="o"><path transform="translate(2,4)" class="S sf" d="M1212 1939 L1429 2156 L1429 2190 L1212 1973 Z"/><path class="f5" d="M1212 1939 L1429 2156 L1429 2190 L1212 1973 Z" /></g><g class="o"><path transform="translate(5,10)" class="S sf" d="M1983 1514 L2221 1752 L2221 1788 L1983 1550 Z"/><path class="f6" d="M1983 1514 L2221 1752 L2221 1788 L1983 1550 Z" /></g><g class="o"><path transform="translate(8,16)" class="S sf" d="M1228 1690 L1468 1450 L1488 1450 L1248 1690 Z"/><path class="f4" d="M1228 1690 L1468 1450 L1488 1450 L1248 1690 Z" /></g><g class="o"><path transform="translate(6,12)" class="S sf" d="M1724 1486 L1819 1391 L1819 1407 L1724 1502 Z"/><path class="f6" d="M1724 1486 L1819 1391 L1819 1407 L1724 1502 Z" /></g><g class="o"><path transform="translate(7,14)" class="S sf" d="M1059 1759 L1184 1884 L1184 1896 L1059 1771 Z"/><path class="f1" d="M1059 1759 L1184 1884 L1184 1896 L1059 1771 Z" /></g><g class="o"><path transform="translate(3,6)" class="S sf" d="M1534 1407 L1667 1274 L1667 1302 L1534 1435 Z"/><path class="f4" d="M1534 1407 L1667 1274 L1667 1302 L1534 1435 Z" /></g><g class="o"><path transform="translate(4,8)" class="S sf" d="M1532 1940 L1760 2168 L1760 2202 L1532 1974 Z"/><path class="f6" d="M1532 1940 L1760 2168 L1760 2202 L1532 1974 Z" /></g><g class="o"><path transform="translate(8,16)" class="S sf" d="M1086 1047 L1141 1102 L1141 1116 L1086 1061 Z"/><path class="f7" d="M1086 1047 L1141 1102 L1141 1116 L1086 1061 Z" /></g><g class="o"><path transform="translate(5,10)" class="S sf" d="M2034 992 L2193 833 L2215 833 L2056 992 Z"/><path class="f7" d="M2034 992 L2193 833 L2215 833 L2056 992 Z" /></g><g class="o"><path transform="translate(2,4)" class="S sf" d="M2006 1040 L2107 939 L2107 957 L2006 1058 Z"/><path class="f1" d="M2006 1040 L2107 939 L2107 957 L2006 1058 Z" /></g><g class="o"><path transform="translate(9,18)" class="S sf" d="M1779 1747 L1900 1626 L1926 1626 L1805 1747 Z"/><path class="f5" d="M1779 1747 L1900 1626 L1926 1626 L1805 1747 Z" /></g><g class="o"><path transform="translate(9,18)" class="S sf" d="M1899 1512 L1993 1418 L2017 1418 L1923 1512 Z"/><path class="f6" d="M1899 1512 L1993 1418 L2017 1418 L1923 1512 Z" /></g><g class="o"><path transform="translate(3,6)" class="S sf" d="M1953 1793 L2670 1076 L2688 1076 L1971 1793 Z"/><path class="f2" d="M1953 1793 L2670 1076 L2688 1076 L1971 1793 Z" /></g><g class="o"><path transform="translate(8,16)" class="S sf" d="M1991 1022 L2060 1091 L2060 1115 L1991 1046 Z"/><path class="f5" d="M1991 1022 L2060 1091 L2060 1115 L1991 1046 Z" /></g><g class="o"><path transform="translate(7,14)" class="S sf" d="M1460 1373 L1649 1184 L1649 1212 L1460 1401 Z"/><path class="f2" d="M1460 1373 L1649 1184 L1649 1212 L1460 1401 Z" /></g><g class="o"><path transform="translate(2,4)" class="S ss" d="M1286 1974 L1892 1368 L1912 1368 L1306 1974 Z"/><path class="s4" d="M1286 1974 L1892 1368 L1912 1368 L1306 1974 Z" /></g><g class="o"><path transform="translate(5,10)" class="S sf" d="M1375 1437 L1501 1563 L1529 1563 L1403 1437 Z"/><path class="f1" d="M1375 1437 L1501 1563 L1529 1563 L1403 1437 Z" /></g><g class="o"><path transform="translate(9,18)" class="S sf" d="M1389 1807 L1692 2110 L1702 2110 L1399 1807 Z"/><path class="f7" d="M1389 1807 L1692 2110 L1702 2110 L1399 1807 Z" /></g><g class="o"><path transform="translate(7,14)" class="S sf" d="M1815 1942 L1949 2076 L1949 2090 L1815 1956 Z"/><path class="f4" d="M1815 1942 L1949 2076 L1949 2090 L1815 1956 Z" /></g><g class="o"><path transform="translate(3,6)" class="S sf" d="M1948 1954 L2668 1234 L2688 1234 L1968 1954 Z"/><path class="f3" d="M1948 1954 L2668 1234 L2688 1234 L1968 1954 Z" /></g><g class="o"><path transform="translate(8,16)" class="S ss" d="M1459 1663 L1552 1756 L1552 1766 L1459 1673 Z"/><path class="s4" d="M1459 1663 L1552 1756 L1552 1766 L1459 1673 Z" /></g><g class="o"><path transform="translate(3,6)" class="S sf" d="M1136 1123 L1340 1327 L1340 1341 L1136 1137 Z"/><path class="f2" d="M1136 1123 L1340 1327 L1340 1341 L1136 1137 Z" /></g><g class="o"><path transform="translate(3,6)" class="S sf" d="M1716 1602 L1866 1752 L1882 1752 L1732 1602 Z"/><path class="f3" d="M1716 1602 L1866 1752 L1882 1752 L1732 1602 Z" /></g><g class="o"><path transform="translate(9,18)" class="S sf" d="M949 1594 L1160 1383 L1178 1383 L967 1594 Z"/><path class="f5" d="M949 1594 L1160 1383 L1178 1383 L967 1594 Z" /></g><g class="o"><path transform="translate(2,4)" class="S ss" d="M1162 1281 L1333 1452 L1333 1468 L1162 1297 Z"/><path class="s6" d="M1162 1281 L1333 1452 L1333 1468 L1162 1297 Z" /></g><g class="o"><path transform="translate(8,16)" class="S ss" d="M1657 1260 L1773 1144 L1773 1154 L1657 1270 Z"/><path class="s7" d="M1657 1260 L1773 1144 L1773 1154 L1657 1270 Z" /></g><g class="o"><path transform="translate(2,4)" class="S sf" d="M1359 1757 L1415 1813 L1451 1813 L1395 1757 Z"/><path class="f6" d="M1359 1757 L1415 1813 L1451 1813 L1395 1757 Z" /></g><g class="o"><path transform="translate(4,8)" class="S sf" d="M1281 1293 L1513 1061 L1533 1061 L1301 1293 Z"/><path class="f7" d="M1281 1293 L1513 1061 L1533 1061 L1301 1293 Z" /></g><g class="o"><path transform="translate(3,6)" class="S sf" d="M1641 1687 L1737 1783 L1747 1783 L1651 1687 Z"/><path class="f2" d="M1641 1687 L1737 1783 L1747 1783 L1651 1687 Z" /></g><g class="o"><path transform="translate(5,10)" class="S sf" d="M1012 1164 L1196 980 L1222 980 L1038 1164 Z"/><path class="f5" d="M1012 1164 L1196 980 L1222 980 L1038 1164 Z" /></g><g class="o"><path transform="translate(6,12)" class="S sf" d="M1075 1231 L1249 1057 L1249 1079 L1075 1253 Z"/><path class="f3" d="M1075 1231 L1249 1057 L1249 1079 L1075 1253 Z" /></g><g class="o"><path transform="translate(8,16)" class="S sf" d="M1375 1050 L1589 1264 L1607 1264 L1393 1050 Z"/><path class="f3" d="M1375 1050 L1589 1264 L1607 1264 L1393 1050 Z" /></g><g class="o"><path transform="translate(5,10)" class="S sf" d="M1871 1660 L2064 1467 L2064 1483 L1871 1676 Z"/><path class="f7" d="M1871 1660 L2064 1467 L2064 1483 L1871 1676 Z" /></g><g class="o"><path transform="translate(7,14)" class="S ss" d="M1020 1780 L1083 1843 L1083 1879 L1020 1816 Z"/><path class="s2" d="M1020 1780 L1083 1843 L1083 1879 L1020 1816 Z" /></g><g class="o"><path transform="translate(7,14)" class="S sf" d="M1292 1427 L1471 1606 L1497 1606 L1318 1427 Z"/><path class="f7" d="M1292 1427 L1471 1606 L1497 1606 L1318 1427 Z" /></g><g class="o"><path transform="translate(2,4)" class="S sf" d="M1150 1699 L1374 1475 L1374 1483 L1150 1707 Z"/><path class="f6" d="M1150 1699 L1374 1475 L1374 1483 L1150 1707 Z" /></g><g class="o"><path transform="translate(4,8)" class="S sf" d="M1320 1303 L1522 1505 L1522 1517 L1320 1315 Z"/><path class="f5" d="M1320 1303 L1522 1505 L1522 1517 L1320 1315 Z" /></g><g class="o"><path transform="translate(4,8)" class="S sf" d="M1666 1357 L1835 1526 L1871 1526 L1702 1357 Z"/><path class="f2" d="M1666 1357 L1835 1526 L1871 1526 L1702 1357 Z" /></g><g class="o"><path transform="translate(2,4)" class="S ss" d="M1707 1430 L1869 1268 L1877 1268 L1715 1430 Z"/><path class="s5" d="M1707 1430 L1869 1268 L1877 1268 L1715 1430 Z" /></g><g class="o"><path transform="translate(8,16)" class="S ss" d="M1921 2026 L2620 1327 L2620 1343 L1921 2042 Z"/><path class="s7" d="M1921 2026 L2620 1327 L2620 1343 L1921 2042 Z" /></g><g class="o"><path transform="translate(3,6)" class="S sf" d="M1106 1528 L1170 1592 L1170 1620 L1106 1556 Z"/><path class="f1" d="M1106 1528 L1170 1592 L1170 1620 L1106 1556 Z" /></g><g class="o"><path transform="translate(7,14)" class="S sf" d="M2027 1891 L2408 1510 L2408 1522 L2027 1903 Z"/><path class="f6" d="M2027 1891 L2408 1510 L2408 1522 L2027 1903 Z" /></g><g class="o"><path transform="translate(5,10)" class="S sf" d="M1649 1589 L1816 1422 L1816 1448 L1649 1615 Z"/><path class="f5" d="M1649 1589 L1816 1422 L1816 1448 L1649 1615 Z" /></g><g class="o"><path transform="translate(2,4)" class="S sf" d="M1356 1456 L1464 1348 L1464 1364 L1356 1472 Z"/><path class="f6" d="M1356 1456 L1464 1348 L1464 1364 L1356 1472 Z" /></g><g class="o"><path transform="translate(4,8)" class="S sf" d="M1837 1096 L1982 951 L1982 983 L1837 1128 Z"/><path class="f6" d="M1837 1096 L1982 951 L1982 983 L1837 1128 Z" /></g><g class="o"><path transform="translate(6,12)" class="S sf" d="M991 2005 L1204 1792 L1204 1800 L991 2013 Z"/><path class="f5" d="M991 2005 L1204 1792 L1204 1800 L991 2013 Z" /></g></g><use href="#slashes" transform-origin="1500 1500" transform="rotate(180) scale(2)"/></g><circle cx="1500" cy="1500" r="450" stroke-width="20" class="o s6" /><use href="#slashes" transform-origin="1500 1500" transform="scale(.6)"/><use href="#slashes" transform-origin="1500 1500" transform="rotate(180) scale(.6)"/></svg>