<svg xmlns="http://www.w3.org/2000/svg" viewBox="750 750 1500 1500"><style>/*<![CDATA[*/svg{background:rgb(34,34,34);max-width:100vw;max-height:100vh}path{stroke-width:4}.o{opacity:.75}.S{opacity:.4}.sf{stroke:none;fill:black}.sfh{stroke:none;fill:url(#hs)}.sfv{stroke:none;fill:url(#vs)}.ss{stroke:black;fill:none}.ssh{stroke:url(#hs);fill:none}.ssv{stroke:url(#vs);fill:none}.s1{fill:none;stroke:rgb(38,38,38)}.f1{stroke:none;fill:rgb(38,38,38)}.sh1{fill:none;stroke:url(#h1)}.fh1{stroke:none;fill:url(#h1)}.sv1{fill:none;stroke:url(#v1)}.fv1{stroke:none;fill:url(#v1)}.s2{fill:none;stroke:rgb(13,13,13)}.f2{stroke:none;fill:rgb(13,13,13)}.sh2{fill:none;stroke:url(#h2)}.fh2{stroke:none;fill:url(#h2)}.sv2{fill:none;stroke:url(#v2)}.fv2{stroke:none;fill:url(#v2)}.s3{fill:none;stroke:rgb(64,64,64)}.f3{stroke:none;fill:rgb(64,64,64)}.sh3{fill:none;stroke:url(#h3)}.fh3{stroke:none;fill:url(#h3)}.sv3{fill:none;stroke:url(#v3)}.fv3{stroke:none;fill:url(#v3)}.s4{fill:none;stroke:rgb(166,166,166)}.f4{stroke:none;fill:rgb(166,166,166)}.sh4{fill:none;stroke:url(#h4)}.fh4{stroke:none;fill:url(#h4)}.sv4{fill:none;stroke:url(#v4)}.fv4{stroke:none;fill:url(#v4)}.s5{fill:none;stroke:rgb(115,115,115)}.f5{stroke:none;fill:rgb(115,115,115)}.sh5{fill:none;stroke:url(#h5)}.fh5{stroke:none;fill:url(#h5)}.sv5{fill:none;stroke:url(#v5)}.fv5{stroke:none;fill:url(#v5)}.s6{fill:none;stroke:rgb(255,255,255)}.f6{stroke:none;fill:rgb(255,255,255)}.sh6{fill:none;stroke:url(#h6)}.fh6{stroke:none;fill:url(#h6)}.sv6{fill:none;stroke:url(#v6)}.fv6{stroke:none;fill:url(#v6)}.s7{fill:none;stroke:rgb(255,255,0)}.f7{stroke:none;fill:rgb(255,255,0)}.sh7{fill:none;stroke:url(#h7)}.fh7{stroke:none;fill:url(#h7)}.sv7{fill:none;stroke:url(#v7)}.fv7{stroke:none;fill:url(#v7)}/*]]>*/</style><defs><linearGradient gradientTransform="rotate(90)" id="hs"><stop offset="20%" stop-color="#000" /><stop offset="95%" stop-color="rgba(0, 0, 0, 0)" /></linearGradient><linearGradient id="vs"><stop offset="20%" stop-color="#000" /><stop offset="95%" stop-color="rgba(0, 0, 0, 0)" /></linearGradient><linearGradient gradientTransform="rotate(90)" id="h1"><stop offset="20%" stop-color="rgba(38,38,38,1)" /><stop offset="95%" stop-color="rgba(38,38,38,0)" /></linearGradient><linearGradient id="v1"><stop offset="20%" stop-color="rgba(38,38,38,1)" /><stop offset="95%" stop-color="rgba(38,38,38,0)" /></linearGradient><linearGradient gradientTransform="rotate(90)" id="h2"><stop offset="20%" stop-color="rgba(13,13,13,1)" /><stop offset="95%" stop-color="rgba(13,13,13,0)" /></linearGradient><linearGradient id="v2"><stop offset="20%" stop-color="rgba(13,13,13,1)" /><stop offset="95%" stop-color="rgba(13,13,13,0)" /></linearGradient><linearGradient gradientTransform="rotate(90)" id="h3"><stop offset="20%" stop-color="rgba(64,64,64,1)" /><stop offset="95%" stop-color="rgba(64,64,64,0)" /></linearGradient><linearGradient id="v3"><stop offset="20%" stop-color="rgba(64,64,64,1)" /><stop offset="95%" stop-color="rgba(64,64,64,0)" /></linearGradient><linearGradient gradientTransform="rotate(90)" id="h4"><stop offset="20%" stop-color="rgba(166,166,166,1)" /><stop offset="95%" stop-color="rgba(166,166,166,0)" /></linearGradient><linearGradient id="v4"><stop offset="20%" stop-color="rgba(166,166,166,1)" /><stop offset="95%" stop-color="rgba(166,166,166,0)" /></linearGradient><linearGradient gradientTransform="rotate(90)" id="h5"><stop offset="20%" stop-color="rgba(115,115,115,1)" /><stop offset="95%" stop-color="rgba(115,115,115,0)" /></linearGradient><linearGradient id="v5"><stop offset="20%" stop-color="rgba(115,115,115,1)" /><stop offset="95%" stop-color="rgba(115,115,115,0)" /></linearGradient><linearGradient gradientTransform="rotate(90)" id="h6"><stop offset="20%" stop-color="rgba(255,255,255,1)" /><stop offset="95%" stop-color="rgba(255,255,255,0)" /></linearGradient><linearGradient id="v6"><stop offset="20%" stop-color="rgba(255,255,255,1)" /><stop offset="95%" stop-color="rgba(255,255,255,0)" /></linearGradient><linearGradient gradientTransform="rotate(90)" id="h7"><stop offset="20%" stop-color="rgba(255,255,0,1)" /><stop offset="95%" stop-color="rgba(255,255,0,0)" /></linearGradient><linearGradient id="v7"><stop offset="20%" stop-color="rgba(255,255,0,1)" /><stop offset="95%" stop-color="rgba(255,255,0,0)" /></linearGradient></defs><g transform-origin="1500 1500" transform="scale(2)" opacity=".2"><g id="slashes"><g class="o"><path transform="translate(5,10)" class="S sfv" d="M1446 1134 L1601 979 L1601 1107 L1446 1262 Z"/><path class="fv5" d="M1446 1134 L1601 979 L1601 1107 L1446 1262 Z" /></g><g class="o"><path transform="translate(8,16)" class="S sfh" d="M1347 1462 L1530 1279 L1558 1279 L1375 1462 Z"/><path class="fh2" d="M1347 1462 L1530 1279 L1558 1279 L1375 1462 Z" /></g><g class="o"><path transform="translate(7,14)" class="S sfh" d="M938 1128 L1538 528 L1650 528 L1050 1128 Z"/><path class="fh5" d="M938 1128 L1538 528 L1650 528 L1050 1128 Z" /></g><g class="o"><path transform="translate(8,16)" class="S sf" d="M1755 972 L1868 1085 L2012 1085 L1899 972 Z"/><path class="f5" d="M1755 972 L1868 1085 L2012 1085 L1899 972 Z" /></g><g class="o"><path transform="translate(5,10)" class="S sf" d="M1414 1968 L1244 1798 L1244 1886 L1414 2056 Z"/><path class="f2" d="M1414 1968 L1244 1798 L1244 1886 L1414 2056 Z" /></g><g class="o"><path transform="translate(9,18)" class="S sfv" d="M1677 1767 L1601 1691 L1601 1763 L1677 1839 Z"/><path class="fv3" d="M1677 1767 L1601 1691 L1601 1763 L1677 1839 Z" /></g><g class="o"><path transform="translate(7,14)" class="S sf" d="M1417 1913 L1304 2026 L1304 2178 L1417 2065 Z"/><path class="f1" d="M1417 1913 L1304 2026 L1304 2178 L1417 2065 Z" /></g><g class="o"><path transform="translate(8,16)" class="S sf" d="M1424 1762 L1672 2010 L1672 2146 L1424 1898 Z"/><path class="f2" d="M1424 1762 L1672 2010 L1672 2146 L1424 1898 Z" /></g><g class="o"><path transform="translate(9,18)" class="S sf" d="M1947 1792 L1744 1995 L1864 1995 L2067 1792 Z"/><path class="f5" d="M1947 1792 L1744 1995 L1864 1995 L2067 1792 Z" /></g><g class="o"><path transform="translate(7,14)" class="S ssh" d="M909 1893 L746 1730 L858 1730 L1021 1893 Z"/><path class="sh2" d="M909 1893 L746 1730 L858 1730 L1021 1893 Z" /></g><g class="o"><path transform="translate(3,6)" class="S ssh" d="M1062 1161 L941 1040 L1093 1040 L1214 1161 Z"/><path class="sh5" d="M1062 1161 L941 1040 L1093 1040 L1214 1161 Z" /></g><g class="o"><path transform="translate(7,14)" class="S sfh" d="M1082 1941 L921 1780 L1065 1780 L1226 1941 Z"/><path class="fh4" d="M1082 1941 L921 1780 L1065 1780 L1226 1941 Z" /></g><g class="o"><path transform="translate(2,4)" class="S sfv" d="M2046 1140 L1933 1253 L1933 1341 L2046 1228 Z"/><path class="fv2" d="M2046 1140 L1933 1253 L1933 1341 L2046 1228 Z" /></g><g class="o"><path transform="translate(9,18)" class="S sfh" d="M1043 1798 L1177 1664 L1191 1664 L1057 1798 Z"/><path class="fh4" d="M1043 1798 L1177 1664 L1191 1664 L1057 1798 Z" /></g><g class="o"><path transform="translate(6,12)" class="S sfh" d="M1555 1887 L1503 1835 L1575 1835 L1627 1887 Z"/><path class="fh1" d="M1555 1887 L1503 1835 L1575 1835 L1627 1887 Z" /></g><g class="o"><path transform="translate(7,14)" class="S sfh" d="M879 2002 L771 1894 L915 1894 L1023 2002 Z"/><path class="fh2" d="M879 2002 L771 1894 L915 1894 L1023 2002 Z" /></g><g class="o"><path transform="translate(7,14)" class="S sfh" d="M1548 1225 L1615 1292 L1703 1292 L1636 1225 Z"/><path class="fh6" d="M1548 1225 L1615 1292 L1703 1292 L1636 1225 Z" /></g><g class="o"><path transform="translate(7,14)" class="S sfv" d="M1490 1764 L1268 1986 L1268 2058 L1490 1836 Z"/><path class="fv3" d="M1490 1764 L1268 1986 L1268 2058 L1490 1836 Z" /></g><g class="o"><path transform="translate(9,18)" class="S ssh" d="M1753 1317 L1817 1381 L1849 1381 L1785 1317 Z"/><path class="sh7" d="M1753 1317 L1817 1381 L1849 1381 L1785 1317 Z" /></g><g class="o"><path transform="translate(6,12)" class="S ssv" d="M1029 1624 L1270 1865 L1270 1885 L1029 1644 Z"/><path class="sv6" d="M1029 1624 L1270 1865 L1270 1885 L1029 1644 Z" /></g><g class="o"><path transform="translate(2,4)" class="S sfv" d="M1831 1348 L1947 1464 L1947 1528 L1831 1412 Z"/><path class="fv1" d="M1831 1348 L1947 1464 L1947 1528 L1831 1412 Z" /></g><g class="o"><path transform="translate(3,6)" class="S sfv" d="M1929 1662 L2403 2136 L2403 2264 L1929 1790 Z"/><path class="fv3" d="M1929 1662 L2403 2136 L2403 2264 L1929 1790 Z" /></g><g class="o"><path transform="translate(4,8)" class="S sfv" d="M1661 1721 L1803 1863 L1803 1911 L1661 1769 Z"/><path class="fv4" d="M1661 1721 L1803 1863 L1803 1911 L1661 1769 Z" /></g><g class="o"><path transform="translate(3,6)" class="S ss" d="M1564 1306 L1349 1091 L1349 1139 L1564 1354 Z"/><path class="s6" d="M1564 1306 L1349 1091 L1349 1139 L1564 1354 Z" /></g><g class="o"><path transform="translate(3,6)" class="S ssh" d="M1759 1761 L1676 1844 L1828 1844 L1911 1761 Z"/><path class="sh7" d="M1759 1761 L1676 1844 L1828 1844 L1911 1761 Z" /></g><g class="o"><path transform="translate(7,14)" class="S sfh" d="M978 1464 L1225 1711 L1305 1711 L1058 1464 Z"/><path class="fh5" d="M978 1464 L1225 1711 L1305 1711 L1058 1464 Z" /></g><g class="o"><path transform="translate(3,6)" class="S ssh" d="M1852 1547 L1904 1495 L2016 1495 L1964 1547 Z"/><path class="sh6" d="M1852 1547 L1904 1495 L2016 1495 L1964 1547 Z" /></g><g class="o"><path transform="translate(6,12)" class="S sfv" d="M1033 1056 L1194 1217 L1194 1241 L1033 1080 Z"/><path class="fv7" d="M1033 1056 L1194 1217 L1194 1241 L1033 1080 Z" /></g><g class="o"><path transform="translate(6,12)" class="S sfv" d="M1252 1365 L1927 2040 L1927 2144 L1252 1469 Z"/><path class="fv7" d="M1252 1365 L1927 2040 L1927 2144 L1252 1469 Z" /></g><g class="o"><path transform="translate(3,6)" class="S sfv" d="M2036 1057 L2125 968 L2125 1072 L2036 1161 Z"/><path class="fv2" d="M2036 1057 L2125 968 L2125 1072 L2036 1161 Z" /></g><g class="o"><path transform="translate(4,8)" class="S ssh" d="M1954 1136 L2104 986 L2248 986 L2098 1136 Z"/><path class="sh2" d="M1954 1136 L2104 986 L2248 986 L2098 1136 Z" /></g><g class="o"><path transform="translate(9,18)" class="S sfh" d="M1245 979 L1139 873 L1259 873 L1365 979 Z"/><path class="fh3" d="M1245 979 L1139 873 L1259 873 L1365 979 Z" /></g><g class="o"><path transform="translate(6,12)" class="S sfv" d="M1140 1006 L1485 661 L1485 677 L1140 1022 Z"/><path class="fv7" d="M1140 1006 L1485 661 L1485 677 L1140 1022 Z" /></g><g class="o"><path transform="translate(4,8)" class="S sfv" d="M1532 1808 L1151 1427 L1151 1483 L1532 1864 Z"/><path class="fv3" d="M1532 1808 L1151 1427 L1151 1483 L1532 1864 Z" /></g><g class="o"><path transform="translate(9,18)" class="S ssh" d="M1818 1796 L1942 1672 L1998 1672 L1874 1796 Z"/><path class="sh6" d="M1818 1796 L1942 1672 L1998 1672 L1874 1796 Z" /></g><g class="o"><path transform="translate(6,12)" class="S ssv" d="M1875 1710 L1950 1785 L1950 1793 L1875 1718 Z"/><path class="sv3" d="M1875 1710 L1950 1785 L1950 1793 L1875 1718 Z" /></g><g class="o"><path transform="translate(8,16)" class="S sf" d="M1262 1806 L1320 1864 L1320 1892 L1262 1834 Z"/><path class="f1" d="M1262 1806 L1320 1864 L1320 1892 L1262 1834 Z" /></g><g class="o"><path transform="translate(3,6)" class="S sfh" d="M1763 1582 L1604 1423 L1748 1423 L1907 1582 Z"/><path class="fh6" d="M1763 1582 L1604 1423 L1748 1423 L1907 1582 Z" /></g><g class="o"><path transform="translate(4,8)" class="S ss" d="M1187 1937 L1425 1699 L1425 1731 L1187 1969 Z"/><path class="s4" d="M1187 1937 L1425 1699 L1425 1731 L1187 1969 Z" /></g><g class="o"><path transform="translate(9,18)" class="S sfh" d="M1538 1692 L1717 1513 L1813 1513 L1634 1692 Z"/><path class="fh1" d="M1538 1692 L1717 1513 L1813 1513 L1634 1692 Z" /></g><g class="o"><path transform="translate(6,12)" class="S ssv" d="M1178 1074 L1040 936 L1040 1048 L1178 1186 Z"/><path class="sv7" d="M1178 1074 L1040 936 L1040 1048 L1178 1186 Z" /></g><g class="o"><path transform="translate(3,6)" class="S sfh" d="M1977 1318 L2631 664 L2653 664 L1999 1318 Z"/><path class="fh3" d="M1977 1318 L2631 664 L2653 664 L1999 1318 Z" /></g><g class="o"><path transform="translate(5,10)" class="S sfv" d="M1593 1320 L1352 1079 L1352 1127 L1593 1368 Z"/><path class="fv3" d="M1593 1320 L1352 1079 L1352 1127 L1593 1368 Z" /></g><g class="o"><path transform="translate(3,6)" class="S sfv" d="M1913 1718 L1681 1486 L1681 1534 L1913 1766 Z"/><path class="fv4" d="M1913 1718 L1681 1486 L1681 1534 L1913 1766 Z" /></g><g class="o"><path transform="translate(9,18)" class="S sf" d="M1680 1530 L1450 1760 L1506 1760 L1736 1530 Z"/><path class="f5" d="M1680 1530 L1450 1760 L1506 1760 L1736 1530 Z" /></g><g class="o"><path transform="translate(5,10)" class="S sfv" d="M1178 959 L1319 1100 L1319 1252 L1178 1111 Z"/><path class="fv2" d="M1178 959 L1319 1100 L1319 1252 L1178 1111 Z" /></g><g class="o"><path transform="translate(3,6)" class="S sfh" d="M1247 1902 L1085 2064 L1237 2064 L1399 1902 Z"/><path class="fh2" d="M1247 1902 L1085 2064 L1237 2064 L1399 1902 Z" /></g><g class="o"><path transform="translate(9,18)" class="S sfv" d="M1307 975 L1504 1172 L1504 1284 L1307 1087 Z"/><path class="fv3" d="M1307 975 L1504 1172 L1504 1284 L1307 1087 Z" /></g><g class="o"><path transform="translate(6,12)" class="S sfv" d="M1374 956 L1237 819 L1237 867 L1374 1004 Z"/><path class="fv3" d="M1374 956 L1237 819 L1237 867 L1374 1004 Z" /></g><g class="o"><path transform="translate(6,12)" class="S sfh" d="M1367 1021 L1173 1215 L1229 1215 L1423 1021 Z"/><path class="fh6" d="M1367 1021 L1173 1215 L1229 1215 L1423 1021 Z" /></g><g class="o"><path transform="translate(7,14)" class="S ss" d="M1223 1021 L1038 1206 L1102 1206 L1287 1021 Z"/><path class="s6" d="M1223 1021 L1038 1206 L1102 1206 L1287 1021 Z" /></g><g class="o"><path transform="translate(4,8)" class="S sfv" d="M1800 1433 L1677 1310 L1677 1342 L1800 1465 Z"/><path class="fv4" d="M1800 1433 L1677 1310 L1677 1342 L1800 1465 Z" /></g><g class="o"><path transform="translate(9,18)" class="S sf" d="M1223 949 L1463 709 L1463 745 L1223 985 Z"/><path class="f2" d="M1223 949 L1463 709 L1463 745 L1223 985 Z" /></g><g class="o"><path transform="translate(6,12)" class="S sfh" d="M1033 1490 L974 1431 L988 1431 L1047 1490 Z"/><path class="fh4" d="M1033 1490 L974 1431 L988 1431 L1047 1490 Z" /></g><g class="o"><path transform="translate(9,18)" class="S sf" d="M1936 1731 L1751 1546 L1751 1562 L1936 1747 Z"/><path class="f5" d="M1936 1731 L1751 1546 L1751 1562 L1936 1747 Z" /></g><g class="o"><path transform="translate(8,16)" class="S sfv" d="M1367 1503 L1170 1306 L1170 1328 L1367 1525 Z"/><path class="fv4" d="M1367 1503 L1170 1306 L1170 1328 L1367 1525 Z" /></g><g class="o"><path transform="translate(2,4)" class="S sf" d="M1414 955 L1540 1081 L1566 1081 L1440 955 Z"/><path class="f7" d="M1414 955 L1540 1081 L1566 1081 L1440 955 Z" /></g><g class="o"><path transform="translate(2,4)" class="S sfv" d="M1081 1897 L1411 2227 L1411 2339 L1081 2009 Z"/><path class="fv3" d="M1081 1897 L1411 2227 L1411 2339 L1081 2009 Z" /></g><g class="o"><path transform="translate(4,8)" class="S sfv" d="M1986 1792 L1791 1987 L1791 2067 L1986 1872 Z"/><path class="fv6" d="M1986 1792 L1791 1987 L1791 2067 L1986 1872 Z" /></g><g class="o"><path transform="translate(4,8)" class="S sfv" d="M1425 1899 L1560 2034 L1560 2146 L1425 2011 Z"/><path class="fv5" d="M1425 1899 L1560 2034 L1560 2146 L1425 2011 Z" /></g><g class="o"><path transform="translate(3,6)" class="S sfh" d="M1973 1005 L2690 1722 L2770 1722 L2053 1005 Z"/><path class="fh4" d="M1973 1005 L2690 1722 L2770 1722 L2053 1005 Z" /></g><g class="o"><path transform="translate(7,14)" class="S sfh" d="M1229 1058 L1113 942 L1225 942 L1341 1058 Z"/><path class="fh2" d="M1229 1058 L1113 942 L1225 942 L1341 1058 Z" /></g><g class="o"><path transform="translate(6,12)" class="S ssv" d="M1119 1816 L1341 2038 L1341 2134 L1119 1912 Z"/><path class="sv1" d="M1119 1816 L1341 2038 L1341 2134 L1119 1912 Z" /></g><g class="o"><path transform="translate(3,6)" class="S sfv" d="M1101 1029 L1159 1087 L1159 1223 L1101 1165 Z"/><path class="fv2" d="M1101 1029 L1159 1087 L1159 1223 L1101 1165 Z" /></g><g class="o"><path transform="translate(2,4)" class="S sf" d="M1780 1570 L1681 1669 L1681 1765 L1780 1666 Z"/><path class="f6" d="M1780 1570 L1681 1669 L1681 1765 L1780 1666 Z" /></g><g class="o"><path transform="translate(3,6)" class="S sfh" d="M1956 1180 L1810 1326 L1906 1326 L2052 1180 Z"/><path class="fh7" d="M1956 1180 L1810 1326 L1906 1326 L2052 1180 Z" /></g><g class="o"><path transform="translate(7,14)" class="S sfh" d="M1584 1489 L1245 1150 L1317 1150 L1656 1489 Z"/><path class="fh7" d="M1584 1489 L1245 1150 L1317 1150 L1656 1489 Z" /></g><g class="o"><path transform="translate(7,14)" class="S sfv" d="M981 1521 L1260 1800 L1260 1818 L981 1539 Z"/><path class="fv5" d="M981 1521 L1260 1800 L1260 1818 L981 1539 Z" /></g><g class="o"><path transform="translate(9,18)" class="S ssv" d="M1186 944 L1383 1141 L1383 1269 L1186 1072 Z"/><path class="sv3" d="M1186 944 L1383 1141 L1383 1269 L1186 1072 Z" /></g><g class="o"><path transform="translate(4,8)" class="S ss" d="M1590 1385 L1448 1527 L1476 1527 L1618 1385 Z"/><path class="s1" d="M1590 1385 L1448 1527 L1476 1527 L1618 1385 Z" /></g><g class="o"><path transform="translate(9,18)" class="S ssh" d="M2004 1775 L1686 2093 L1750 2093 L2068 1775 Z"/><path class="sh7" d="M2004 1775 L1686 2093 L1750 2093 L2068 1775 Z" /></g><g class="o"><path transform="translate(3,6)" class="S ssv" d="M1080 1044 L915 879 L915 983 L1080 1148 Z"/><path class="sv7" d="M1080 1044 L915 879 L915 983 L1080 1148 Z" /></g><g class="o"><path transform="translate(5,10)" class="S sfv" d="M1411 911 L1328 994 L1328 1082 L1411 999 Z"/><path class="fv6" d="M1411 911 L1328 994 L1328 1082 L1411 999 Z" /></g><g class="o"><path transform="translate(7,14)" class="S sf" d="M1281 1813 L1501 2033 L1501 2129 L1281 1909 Z"/><path class="f3" d="M1281 1813 L1501 2033 L1501 2129 L1281 1909 Z" /></g><g class="o"><path transform="translate(5,10)" class="S ssh" d="M1747 1393 L2479 2125 L2559 2125 L1827 1393 Z"/><path class="sh1" d="M1747 1393 L2479 2125 L2559 2125 L1827 1393 Z" /></g><g class="o"><path transform="translate(6,12)" class="S sf" d="M1717 1008 L1484 775 L1532 775 L1765 1008 Z"/><path class="f4" d="M1717 1008 L1484 775 L1532 775 L1765 1008 Z" /></g><g class="o"><path transform="translate(4,8)" class="S sfv" d="M1014 1533 L1107 1626 L1107 1722 L1014 1629 Z"/><path class="fv7" d="M1014 1533 L1107 1626 L1107 1722 L1014 1629 Z" /></g><g class="o"><path transform="translate(6,12)" class="S sfv" d="M1889 1515 L2567 2193 L2567 2281 L1889 1603 Z"/><path class="fv3" d="M1889 1515 L2567 2193 L2567 2281 L1889 1603 Z" /></g><g class="o"><path transform="translate(7,14)" class="S sfv" d="M1411 1097 L1203 889 L1203 1009 L1411 1217 Z"/><path class="fv3" d="M1411 1097 L1203 889 L1203 1009 L1411 1217 Z" /></g><g class="o"><path transform="translate(4,8)" class="S sfh" d="M1707 1267 L1558 1118 L1584 1118 L1733 1267 Z"/><path class="fh1" d="M1707 1267 L1558 1118 L1584 1118 L1733 1267 Z" /></g><g class="o"><path transform="translate(5,10)" class="S sfv" d="M1356 1990 L1553 1793 L1553 1801 L1356 1998 Z"/><path class="fv2" d="M1356 1990 L1553 1793 L1553 1801 L1356 1998 Z" /></g><g class="o"><path transform="translate(6,12)" class="S sf" d="M995 1298 L1113 1416 L1193 1416 L1075 1298 Z"/><path class="f3" d="M995 1298 L1113 1416 L1193 1416 L1075 1298 Z" /></g><g class="o"><path transform="translate(6,12)" class="S ss" d="M1059 1503 L1181 1625 L1181 1737 L1059 1615 Z"/><path class="s1" d="M1059 1503 L1181 1625 L1181 1737 L1059 1615 Z" /></g><g class="o"><path transform="translate(6,12)" class="S sfv" d="M1941 1053 L2182 812 L2182 844 L1941 1085 Z"/><path class="fv7" d="M1941 1053 L2182 812 L2182 844 L1941 1085 Z" /></g><g class="o"><path transform="translate(6,12)" class="S sfv" d="M1620 1797 L1446 1623 L1446 1703 L1620 1877 Z"/><path class="fv4" d="M1620 1797 L1446 1623 L1446 1703 L1620 1877 Z" /></g><g class="o"><path transform="translate(8,16)" class="S sfv" d="M1189 1124 L1424 889 L1424 1009 L1189 1244 Z"/><path class="fv2" d="M1189 1124 L1424 889 L1424 1009 L1189 1244 Z" /></g><g class="o"><path transform="translate(3,6)" class="S sfh" d="M1157 1482 L1401 1726 L1431 1726 L1187 1482 Z"/><path class="fh5" d="M1157 1482 L1401 1726 L1431 1726 L1187 1482 Z" /></g><g class="o"><path transform="translate(4,8)" class="S ssh" d="M1026 1389 L1195 1220 L1259 1220 L1090 1389 Z"/><path class="sh2" d="M1026 1389 L1195 1220 L1259 1220 L1090 1389 Z" /></g><g class="o"><path transform="translate(4,8)" class="S sfv" d="M1556 1555 L1724 1723 L1724 1827 L1556 1659 Z"/><path class="fv5" d="M1556 1555 L1724 1723 L1724 1827 L1556 1659 Z" /></g><g class="o"><path transform="translate(4,8)" class="S sfv" d="M1808 1928 L1891 1845 L1891 1857 L1808 1940 Z"/><path class="fv4" d="M1808 1928 L1891 1845 L1891 1857 L1808 1940 Z" /></g><g class="o"><path transform="translate(5,10)" class="S sfh" d="M1139 1087 L926 874 L936 874 L1149 1087 Z"/><path class="fh2" d="M1139 1087 L926 874 L936 874 L1149 1087 Z" /></g><g class="o"><path transform="translate(9,18)" class="S sfv" d="M1004 1501 L953 1552 L953 1640 L1004 1589 Z"/><path class="fv7" d="M1004 1501 L953 1552 L953 1640 L1004 1589 Z" /></g><g class="o"><path transform="translate(6,12)" class="S sf" d="M1214 1940 L1143 2011 L1143 2019 L1214 1948 Z"/><path class="f1" d="M1214 1940 L1143 2011 L1143 2019 L1214 1948 Z" /></g><g class="o"><path transform="translate(3,6)" class="S sfv" d="M1091 1780 L978 1893 L978 1997 L1091 1884 Z"/><path class="fv2" d="M1091 1780 L978 1893 L978 1997 L1091 1884 Z" /></g><g class="o"><path transform="translate(8,16)" class="S sfh" d="M986 1417 L1111 1292 L1191 1292 L1066 1417 Z"/><path class="fh7" d="M986 1417 L1111 1292 L1191 1292 L1066 1417 Z" /></g><g class="o"><path transform="translate(7,14)" class="S sfh" d="M1521 1531 L1599 1453 L1629 1453 L1551 1531 Z"/><path class="fh3" d="M1521 1531 L1599 1453 L1629 1453 L1551 1531 Z" /></g><g class="o"><path transform="translate(9,18)" class="S sf" d="M1079 1577 L921 1419 L921 1499 L1079 1657 Z"/><path class="f6" d="M1079 1577 L921 1419 L921 1499 L1079 1657 Z" /></g><g class="o"><path transform="translate(6,12)" class="S ssv" d="M1313 1907 L1116 2104 L1116 2184 L1313 1987 Z"/><path class="sv4" d="M1313 1907 L1116 2104 L1116 2184 L1313 1987 Z" /></g><g class="o"><path transform="translate(4,8)" class="S sfv" d="M1530 1757 L1170 1397 L1170 1549 L1530 1909 Z"/><path class="fv4" d="M1530 1757 L1170 1397 L1170 1549 L1530 1909 Z" /></g><g class="o"><path transform="translate(6,12)" class="S sf" d="M1816 1700 L2329 2213 L2329 2365 L1816 1852 Z"/><path class="f5" d="M1816 1700 L2329 2213 L2329 2365 L1816 1852 Z" /></g><g class="o"><path transform="translate(6,12)" class="S ssv" d="M2047 1612 L1902 1467 L1902 1531 L2047 1676 Z"/><path class="sv2" d="M2047 1612 L1902 1467 L1902 1531 L2047 1676 Z" /></g><g class="o"><path transform="translate(2,4)" class="S sf" d="M1478 1646 L1366 1534 L1494 1534 L1606 1646 Z"/><path class="f5" d="M1478 1646 L1366 1534 L1494 1534 L1606 1646 Z" /></g><g class="o"><path transform="translate(8,16)" class="S ssh" d="M1529 1311 L1359 1481 L1397 1481 L1567 1311 Z"/><path class="sh2" d="M1529 1311 L1359 1481 L1397 1481 L1567 1311 Z" /></g><g class="o"><path transform="translate(7,14)" class="S ssv" d="M1886 1602 L1701 1417 L1701 1545 L1886 1730 Z"/><path class="sv6" d="M1886 1602 L1701 1417 L1701 1545 L1886 1730 Z" /></g><g class="o"><path transform="translate(5,10)" class="S sfv" d="M1404 1289 L1211 1096 L1211 1144 L1404 1337 Z"/><path class="fv5" d="M1404 1289 L1211 1096 L1211 1144 L1404 1337 Z" /></g><g class="o"><path transform="translate(2,4)" class="S ssh" d="M2002 1116 L1829 943 L1845 943 L2018 1116 Z"/><path class="sh1" d="M2002 1116 L1829 943 L1845 943 L2018 1116 Z" /></g><g class="o"><path transform="translate(9,18)" class="S sfh" d="M1618 1569 L1357 1308 L1477 1308 L1738 1569 Z"/><path class="fh2" d="M1618 1569 L1357 1308 L1477 1308 L1738 1569 Z" /></g><g class="o"><path transform="translate(9,18)" class="S ss" d="M1432 1229 L1567 1094 L1567 1150 L1432 1285 Z"/><path class="s1" d="M1432 1229 L1567 1094 L1567 1150 L1432 1285 Z" /></g><g class="o"><path transform="translate(2,4)" class="S sf" d="M1559 1209 L1742 1026 L1742 1114 L1559 1297 Z"/><path class="f1" d="M1559 1209 L1742 1026 L1742 1114 L1559 1297 Z" /></g><g class="o"><path transform="translate(7,14)" class="S sfh" d="M1854 1209 L1995 1068 L2107 1068 L1966 1209 Z"/><path class="fh1" d="M1854 1209 L1995 1068 L2107 1068 L1966 1209 Z" /></g><g class="o"><path transform="translate(3,6)" class="S sfh" d="M1575 1130 L1671 1034 L1707 1034 L1611 1130 Z"/><path class="fh5" d="M1575 1130 L1671 1034 L1707 1034 L1611 1130 Z" /></g><g class="o"><path transform="translate(5,10)" class="S sfv" d="M1636 1711 L1783 1858 L1783 1962 L1636 1815 Z"/><path class="fv4" d="M1636 1711 L1783 1858 L1783 1962 L1636 1815 Z" /></g><g class="o"><path transform="translate(9,18)" class="S ssv" d="M1981 1613 L2272 1904 L2272 2016 L1981 1725 Z"/><path class="sv4" d="M1981 1613 L2272 1904 L2272 2016 L1981 1725 Z" /></g><g class="o"><path transform="translate(4,8)" class="S sfv" d="M1946 1575 L1754 1767 L1754 1863 L1946 1671 Z"/><path class="fv2" d="M1946 1575 L1754 1767 L1754 1863 L1946 1671 Z" /></g><g class="o"><path transform="translate(7,14)" class="S sfh" d="M1767 1260 L1710 1317 L1758 1317 L1815 1260 Z"/><path class="fh5" d="M1767 1260 L1710 1317 L1758 1317 L1815 1260 Z" /></g><g class="o"><path transform="translate(2,4)" class="S sfv" d="M983 1400 L1178 1205 L1178 1333 L983 1528 Z"/><path class="fv7" d="M983 1400 L1178 1205 L1178 1333 L983 1528 Z" /></g><g class="o"><path transform="translate(9,18)" class="S sf" d="M1747 1913 L1450 1616 L1450 1680 L1747 1977 Z"/><path class="f5" d="M1747 1913 L1450 1616 L1450 1680 L1747 1977 Z" /></g><g class="o"><path transform="translate(7,14)" class="S sfh" d="M1649 970 L1496 817 L1608 817 L1761 970 Z"/><path class="fh5" d="M1649 970 L1496 817 L1608 817 L1761 970 Z" /></g><g class="o"><path transform="translate(9,18)" class="S sf" d="M1533 1006 L1592 947 L1626 947 L1567 1006 Z"/><path class="f1" d="M1533 1006 L1592 947 L1626 947 L1567 1006 Z" /></g><g class="o"><path transform="translate(8,16)" class="S sfh" d="M1118 1011 L942 1187 L974 1187 L1150 1011 Z"/><path class="fh2" d="M1118 1011 L942 1187 L974 1187 L1150 1011 Z" /></g><g class="o"><path transform="translate(6,12)" class="S sfv" d="M1950 1648 L2015 1713 L2015 1769 L1950 1704 Z"/><path class="fv2" d="M1950 1648 L2015 1713 L2015 1769 L1950 1704 Z" /></g><g class="o"><path transform="translate(9,18)" class="S sfh" d="M1446 1717 L1680 1483 L1768 1483 L1534 1717 Z"/><path class="fh4" d="M1446 1717 L1680 1483 L1768 1483 L1534 1717 Z" /></g><g class="o"><path transform="translate(3,6)" class="S sf" d="M1999 1286 L2214 1501 L2214 1589 L1999 1374 Z"/><path class="f4" d="M1999 1286 L2214 1501 L2214 1589 L1999 1374 Z" /></g><g class="o"><path transform="translate(5,10)" class="S sf" d="M1976 1983 L1818 2141 L1818 2221 L1976 2063 Z"/><path class="f4" d="M1976 1983 L1818 2141 L1818 2221 L1976 2063 Z" /></g><g class="o"><path transform="translate(9,18)" class="S sfh" d="M1013 1556 L843 1386 L883 1386 L1053 1556 Z"/><path class="fh1" d="M1013 1556 L843 1386 L883 1386 L1053 1556 Z" /></g><g class="o"><path transform="translate(9,18)" class="S ssv" d="M1838 1787 L1775 1850 L1775 1994 L1838 1931 Z"/><path class="sv3" d="M1838 1787 L1775 1850 L1775 1994 L1838 1931 Z" /></g><g class="o"><path transform="translate(8,16)" class="S sfh" d="M1825 1716 L1944 1835 L1992 1835 L1873 1716 Z"/><path class="fh3" d="M1825 1716 L1944 1835 L1992 1835 L1873 1716 Z" /></g><g class="o"><path transform="translate(6,12)" class="S ssv" d="M1545 918 L1464 999 L1464 1111 L1545 1030 Z"/><path class="sv3" d="M1545 918 L1464 999 L1464 1111 L1545 1030 Z" /></g><g class="o"><path transform="translate(8,16)" class="S sf" d="M1526 2025 L1289 1788 L1337 1788 L1574 2025 Z"/><path class="f2" d="M1526 2025 L1289 1788 L1337 1788 L1574 2025 Z" /></g><g class="o"><path transform="translate(4,8)" class="S sfv" d="M1491 1462 L1638 1315 L1638 1347 L1491 1494 Z"/><path class="fv4" d="M1491 1462 L1638 1315 L1638 1347 L1491 1494 Z" /></g></g><use href="#slashes" transform-origin="1500 1500" transform="rotate(180) scale(2)"/></g><polyline points="1500,1010 1990,1500 1500,1990 1010,1500 1500,1010 1990,1500" stroke-width="20" class="o fs" /><use href="#slashes" transform-origin="1500 1500" transform="scale(.9)"/><use href="#slashes" transform-origin="1500 1500" transform="rotate(180) scale(.9)"/></svg>