<svg xmlns="http://www.w3.org/2000/svg" viewBox="750 750 1500 1500"><style>/*<![CDATA[*/svg{background:rgb(222,224,230);max-width:100vw;max-height:100vh}path{stroke-width:4}.o{opacity:.75}.S{opacity:.4}.sf{stroke:none;fill:black}.sfh{stroke:none;fill:url(#hs)}.sfv{stroke:none;fill:url(#vs)}.ss{stroke:black;fill:none}.ssh{stroke:url(#hs);fill:none}.ssv{stroke:url(#vs);fill:none}.s1{fill:none;stroke:rgb(19,78,111)}.f1{stroke:none;fill:rgb(19,78,111)}.sh1{fill:none;stroke:url(#h1)}.fh1{stroke:none;fill:url(#h1)}.sv1{fill:none;stroke:url(#v1)}.fv1{stroke:none;fill:url(#v1)}.s2{fill:none;stroke:rgb(255,97,80)}.f2{stroke:none;fill:rgb(255,97,80)}.sh2{fill:none;stroke:url(#h2)}.fh2{stroke:none;fill:url(#h2)}.sv2{fill:none;stroke:url(#v2)}.fv2{stroke:none;fill:url(#v2)}.s3{fill:none;stroke:rgb(26,192,198)}.f3{stroke:none;fill:rgb(26,192,198)}.sh3{fill:none;stroke:url(#h3)}.fh3{stroke:none;fill:url(#h3)}.sv3{fill:none;stroke:url(#v3)}.fv3{stroke:none;fill:url(#v3)}.s4{fill:none;stroke:rgb(255,168,34)}.f4{stroke:none;fill:rgb(255,168,34)}.sh4{fill:none;stroke:url(#h4)}.fh4{stroke:none;fill:url(#h4)}.sv4{fill:none;stroke:url(#v4)}.fv4{stroke:none;fill:url(#v4)}.s5{fill:none;stroke:rgb(34,34,34)}.f5{stroke:none;fill:rgb(34,34,34)}.sh5{fill:none;stroke:url(#h5)}.fh5{stroke:none;fill:url(#h5)}.sv5{fill:none;stroke:url(#v5)}.fv5{stroke:none;fill:url(#v5)}.s6{fill:none;stroke:rgb(255,255,255)}.f6{stroke:none;fill:rgb(255,255,255)}.sh6{fill:none;stroke:url(#h6)}.fh6{stroke:none;fill:url(#h6)}.sv6{fill:none;stroke:url(#v6)}.fv6{stroke:none;fill:url(#v6)}.s7{fill:none;stroke:rgb(255,0,0)}.f7{stroke:none;fill:rgb(255,0,0)}.sh7{fill:none;stroke:url(#h7)}.fh7{stroke:none;fill:url(#h7)}.sv7{fill:none;stroke:url(#v7)}.fv7{stroke:none;fill:url(#v7)}/*]]>*/</style><defs><linearGradient gradientTransform="rotate(90)" id="hs"><stop offset="20%" stop-color="#000" /><stop offset="95%" stop-color="rgba(0, 0, 0, 0)" /></linearGradient><linearGradient id="vs"><stop offset="20%" stop-color="#000" /><stop offset="95%" stop-color="rgba(0, 0, 0, 0)" /></linearGradient><linearGradient gradientTransform="rotate(90)" id="h1"><stop offset="20%" stop-color="rgba(19,78,111,1)" /><stop offset="95%" stop-color="rgba(19,78,111,0)" /></linearGradient><linearGradient id="v1"><stop offset="20%" stop-color="rgba(19,78,111,1)" /><stop offset="95%" stop-color="rgba(19,78,111,0)" /></linearGradient><linearGradient gradientTransform="rotate(90)" id="h2"><stop offset="20%" stop-color="rgba(255,97,80,1)" /><stop offset="95%" stop-color="rgba(255,97,80,0)" /></linearGradient><linearGradient id="v2"><stop offset="20%" stop-color="rgba(255,97,80,1)" /><stop offset="95%" stop-color="rgba(255,97,80,0)" /></linearGradient><linearGradient gradientTransform="rotate(90)" id="h3"><stop offset="20%" stop-color="rgba(26,192,198,1)" /><stop offset="95%" stop-color="rgba(26,192,198,0)" /></linearGradient><linearGradient id="v3"><stop offset="20%" stop-color="rgba(26,192,198,1)" /><stop offset="95%" stop-color="rgba(26,192,198,0)" /></linearGradient><linearGradient gradientTransform="rotate(90)" id="h4"><stop offset="20%" stop-color="rgba(255,168,34,1)" /><stop offset="95%" stop-color="rgba(255,168,34,0)" /></linearGradient><linearGradient id="v4"><stop offset="20%" stop-color="rgba(255,168,34,1)" /><stop offset="95%" stop-color="rgba(255,168,34,0)" /></linearGradient><linearGradient gradientTransform="rotate(90)" id="h5"><stop offset="20%" stop-color="rgba(34,34,34,1)" /><stop offset="95%" stop-color="rgba(34,34,34,0)" /></linearGradient><linearGradient id="v5"><stop offset="20%" stop-color="rgba(34,34,34,1)" /><stop offset="95%" stop-color="rgba(34,34,34,0)" /></linearGradient><linearGradient gradientTransform="rotate(90)" id="h6"><stop offset="20%" stop-color="rgba(255,255,255,1)" /><stop offset="95%" stop-color="rgba(255,255,255,0)" /></linearGradient><linearGradient id="v6"><stop offset="20%" stop-color="rgba(255,255,255,1)" /><stop offset="95%" stop-color="rgba(255,255,255,0)" /></linearGradient><linearGradient gradientTransform="rotate(90)" id="h7"><stop offset="20%" stop-color="rgba(255,0,0,1)" /><stop offset="95%" stop-color="rgba(255,0,0,0)" /></linearGradient><linearGradient id="v7"><stop offset="20%" stop-color="rgba(255,0,0,1)" /><stop offset="95%" stop-color="rgba(255,0,0,0)" /></linearGradient></defs><g transform-origin="1500 1500" transform="scale(2)" opacity=".2"><g id="slashes"><g class="o"><path transform="translate(8,16)" class="S sfv" d="M1229 1098 L1321 1190 L1321 1224 L1229 1132 Z"/><path class="fv7" d="M1229 1098 L1321 1190 L1321 1224 L1229 1132 Z" /></g><g class="o"><path transform="translate(5,10)" class="S sfv" d="M1952 1240 L2157 1445 L2157 1469 L1952 1264 Z"/><path class="fv5" d="M1952 1240 L2157 1445 L2157 1469 L1952 1264 Z" /></g><g class="o"><path transform="translate(2,4)" class="S sfv" d="M1667 1994 L2204 1457 L2204 1537 L1667 2074 Z"/><path class="fv5" d="M1667 1994 L2204 1457 L2204 1537 L1667 2074 Z" /></g><g class="o"><path transform="translate(3,6)" class="S sfv" d="M987 1004 L1186 805 L1186 827 L987 1026 Z"/><path class="fv4" d="M987 1004 L1186 805 L1186 827 L987 1026 Z" /></g><g class="o"><path transform="translate(9,18)" class="S sfh" d="M1767 1118 L1975 910 L2071 910 L1863 1118 Z"/><path class="fh4" d="M1767 1118 L1975 910 L2071 910 L1863 1118 Z" /></g><g class="o"><path transform="translate(5,10)" class="S sfv" d="M1700 1087 L1759 1146 L1759 1170 L1700 1111 Z"/><path class="fv7" d="M1700 1087 L1759 1146 L1759 1170 L1700 1111 Z" /></g><g class="o"><path transform="translate(6,12)" class="S sfh" d="M1574 2033 L1814 1793 L1836 1793 L1596 2033 Z"/><path class="fh7" d="M1574 2033 L1814 1793 L1836 1793 L1596 2033 Z" /></g><g class="o"><path transform="translate(6,12)" class="S ssh" d="M1195 1979 L1275 2059 L1287 2059 L1207 1979 Z"/><path class="sh5" d="M1195 1979 L1275 2059 L1287 2059 L1207 1979 Z" /></g><g class="o"><path transform="translate(2,4)" class="S ssh" d="M1865 1221 L2213 873 L2221 873 L1873 1221 Z"/><path class="sh3" d="M1865 1221 L2213 873 L2221 873 L1873 1221 Z" /></g><g class="o"><path transform="translate(3,6)" class="S sfv" d="M1778 1867 L1841 1930 L1841 1954 L1778 1891 Z"/><path class="fv3" d="M1778 1867 L1841 1930 L1841 1954 L1778 1891 Z" /></g><g class="o"><path transform="translate(4,8)" class="S sfh" d="M1809 1269 L1979 1439 L2009 1439 L1839 1269 Z"/><path class="fh4" d="M1809 1269 L1979 1439 L2009 1439 L1839 1269 Z" /></g><g class="o"><path transform="translate(2,4)" class="S sfh" d="M1491 1621 L1707 1837 L1811 1837 L1595 1621 Z"/><path class="fh7" d="M1491 1621 L1707 1837 L1811 1837 L1595 1621 Z" /></g><g class="o"><path transform="translate(2,4)" class="S sfh" d="M1401 1290 L2136 555 L2256 555 L1521 1290 Z"/><path class="fh7" d="M1401 1290 L2136 555 L2256 555 L1521 1290 Z" /></g><g class="o"><path transform="translate(5,10)" class="S ssv" d="M1468 1046 L1344 1170 L1344 1202 L1468 1078 Z"/><path class="sv4" d="M1468 1046 L1344 1170 L1344 1202 L1468 1078 Z" /></g><g class="o"><path transform="translate(6,12)" class="S sfv" d="M993 1789 L864 1918 L864 1932 L993 1803 Z"/><path class="fv7" d="M993 1789 L864 1918 L864 1932 L993 1803 Z" /></g><g class="o"><path transform="translate(8,16)" class="S sfv" d="M1978 1158 L1873 1053 L1873 1071 L1978 1176 Z"/><path class="fv5" d="M1978 1158 L1873 1053 L1873 1071 L1978 1176 Z" /></g><g class="o"><path transform="translate(9,18)" class="S sfv" d="M1684 1747 L1906 1969 L1906 1993 L1684 1771 Z"/><path class="fv6" d="M1684 1747 L1906 1969 L1906 1993 L1684 1771 Z" /></g><g class="o"><path transform="translate(5,10)" class="S sfv" d="M1302 1422 L1518 1638 L1518 1658 L1302 1442 Z"/><path class="fv4" d="M1302 1422 L1518 1638 L1518 1658 L1302 1442 Z" /></g><g class="o"><path transform="translate(9,18)" class="S sfh" d="M2030 1032 L2204 1206 L2232 1206 L2058 1032 Z"/><path class="fh1" d="M2030 1032 L2204 1206 L2232 1206 L2058 1032 Z" /></g><g class="o"><path transform="translate(4,8)" class="S sfv" d="M1151 1461 L1805 2115 L1805 2135 L1151 1481 Z"/><path class="fv6" d="M1151 1461 L1805 2115 L1805 2135 L1151 1481 Z" /></g><g class="o"><path transform="translate(4,8)" class="S sfh" d="M1941 1650 L2062 1771 L2076 1771 L1955 1650 Z"/><path class="fh5" d="M1941 1650 L2062 1771 L2076 1771 L1955 1650 Z" /></g><g class="o"><path transform="translate(5,10)" class="S sfh" d="M1029 1817 L1138 1708 L1162 1708 L1053 1817 Z"/><path class="fh1" d="M1029 1817 L1138 1708 L1162 1708 L1053 1817 Z" /></g><g class="o"><path transform="translate(7,14)" class="S sfv" d="M1594 1231 L1399 1036 L1399 1056 L1594 1251 Z"/><path class="fv4" d="M1594 1231 L1399 1036 L1399 1056 L1594 1251 Z" /></g><g class="o"><path transform="translate(4,8)" class="S sfh" d="M1132 1756 L1315 1573 L1329 1573 L1146 1756 Z"/><path class="fh2" d="M1132 1756 L1315 1573 L1329 1573 L1146 1756 Z" /></g><g class="o"><path transform="translate(7,14)" class="S sfv" d="M1903 1485 L2015 1373 L2015 1393 L1903 1505 Z"/><path class="fv3" d="M1903 1485 L2015 1373 L2015 1393 L1903 1505 Z" /></g><g class="o"><path transform="translate(5,10)" class="S sfh" d="M1014 1677 L1174 1837 L1200 1837 L1040 1677 Z"/><path class="fh2" d="M1014 1677 L1174 1837 L1200 1837 L1040 1677 Z" /></g><g class="o"><path transform="translate(4,8)" class="S sfh" d="M1242 1847 L1785 1304 L1811 1304 L1268 1847 Z"/><path class="fh3" d="M1242 1847 L1785 1304 L1811 1304 L1268 1847 Z" /></g><g class="o"><path transform="translate(8,16)" class="S ssh" d="M1532 1499 L1718 1685 L1766 1685 L1580 1499 Z"/><path class="sh2" d="M1532 1499 L1718 1685 L1766 1685 L1580 1499 Z" /></g><g class="o"><path transform="translate(2,4)" class="S ssv" d="M1885 1598 L2122 1835 L2122 1843 L1885 1606 Z"/><path class="sv5" d="M1885 1598 L2122 1835 L2122 1843 L1885 1606 Z" /></g><g class="o"><path transform="translate(8,16)" class="S sfh" d="M1936 1410 L2055 1529 L2063 1529 L1944 1410 Z"/><path class="fh1" d="M1936 1410 L2055 1529 L2063 1529 L1944 1410 Z" /></g><g class="o"><path transform="translate(8,16)" class="S sfh" d="M1043 1671 L1170 1798 L1186 1798 L1059 1671 Z"/><path class="fh1" d="M1043 1671 L1170 1798 L1186 1798 L1059 1671 Z" /></g><g class="o"><path transform="translate(2,4)" class="S ssh" d="M1937 1423 L2010 1496 L2038 1496 L1965 1423 Z"/><path class="sh7" d="M1937 1423 L2010 1496 L2038 1496 L1965 1423 Z" /></g><g class="o"><path transform="translate(4,8)" class="S ssv" d="M975 1941 L1131 2097 L1131 2131 L975 1975 Z"/><path class="sv7" d="M975 1941 L1131 2097 L1131 2131 L975 1975 Z" /></g><g class="o"><path transform="translate(6,12)" class="S sfv" d="M1288 1065 L1401 952 L1401 976 L1288 1089 Z"/><path class="fv2" d="M1288 1065 L1401 952 L1401 976 L1288 1089 Z" /></g><g class="o"><path transform="translate(7,14)" class="S sfv" d="M1885 1536 L1973 1448 L1973 1528 L1885 1616 Z"/><path class="fv4" d="M1885 1536 L1973 1448 L1973 1528 L1885 1616 Z" /></g><g class="o"><path transform="translate(8,16)" class="S sfh" d="M1793 1996 L2033 2236 L2071 2236 L1831 1996 Z"/><path class="fh4" d="M1793 1996 L2033 2236 L2071 2236 L1831 1996 Z" /></g><g class="o"><path transform="translate(2,4)" class="S sfh" d="M1794 1680 L1889 1585 L1899 1585 L1804 1680 Z"/><path class="fh6" d="M1794 1680 L1889 1585 L1899 1585 L1804 1680 Z" /></g><g class="o"><path transform="translate(8,16)" class="S sfv" d="M1299 1572 L1375 1496 L1375 1524 L1299 1600 Z"/><path class="fv6" d="M1299 1572 L1375 1496 L1375 1524 L1299 1600 Z" /></g><g class="o"><path transform="translate(2,4)" class="S sfv" d="M1127 946 L1257 1076 L1257 1096 L1127 966 Z"/><path class="fv1" d="M1127 946 L1257 1076 L1257 1096 L1127 966 Z" /></g><g class="o"><path transform="translate(8,16)" class="S sfh" d="M1431 1624 L876 1069 L908 1069 L1463 1624 Z"/><path class="fh3" d="M1431 1624 L876 1069 L908 1069 L1463 1624 Z" /></g><g class="o"><path transform="translate(3,6)" class="S sfh" d="M1899 1699 L2050 1548 L2064 1548 L1913 1699 Z"/><path class="fh1" d="M1899 1699 L2050 1548 L2064 1548 L1913 1699 Z" /></g><g class="o"><path transform="translate(6,12)" class="S ssv" d="M1569 975 L1666 878 L1666 900 L1569 997 Z"/><path class="sv2" d="M1569 975 L1666 878 L1666 900 L1569 997 Z" /></g><g class="o"><path transform="translate(3,6)" class="S sfh" d="M951 1592 L754 1789 L782 1789 L979 1592 Z"/><path class="fh4" d="M951 1592 L754 1789 L782 1789 L979 1592 Z" /></g><g class="o"><path transform="translate(6,12)" class="S sfh" d="M1800 1532 L2020 1752 L2054 1752 L1834 1532 Z"/><path class="fh5" d="M1800 1532 L2020 1752 L2054 1752 L1834 1532 Z" /></g><g class="o"><path transform="translate(5,10)" class="S sfv" d="M1695 1209 L1798 1106 L1798 1138 L1695 1241 Z"/><path class="fv5" d="M1695 1209 L1798 1106 L1798 1138 L1695 1241 Z" /></g><g class="o"><path transform="translate(4,8)" class="S ssv" d="M1083 1508 L845 1746 L845 1774 L1083 1536 Z"/><path class="sv2" d="M1083 1508 L845 1746 L845 1774 L1083 1536 Z" /></g><g class="o"><path transform="translate(8,16)" class="S sfv" d="M1946 1515 L1745 1314 L1745 1352 L1946 1553 Z"/><path class="fv7" d="M1946 1515 L1745 1314 L1745 1352 L1946 1553 Z" /></g><g class="o"><path transform="translate(7,14)" class="S sfv" d="M1180 1947 L970 1737 L970 1817 L1180 2027 Z"/><path class="fv4" d="M1180 1947 L970 1737 L970 1817 L1180 2027 Z" /></g><g class="o"><path transform="translate(2,4)" class="S sfv" d="M1322 1981 L1460 2119 L1460 2145 L1322 2007 Z"/><path class="fv5" d="M1322 1981 L1460 2119 L1460 2145 L1322 2007 Z" /></g><g class="o"><path transform="translate(5,10)" class="S sfv" d="M1658 1311 L1895 1548 L1895 1574 L1658 1337 Z"/><path class="fv3" d="M1658 1311 L1895 1548 L1895 1574 L1658 1337 Z" /></g><g class="o"><path transform="translate(8,16)" class="S sfh" d="M1518 1755 L1764 1509 L1794 1509 L1548 1755 Z"/><path class="fh7" d="M1518 1755 L1764 1509 L1794 1509 L1548 1755 Z" /></g><g class="o"><path transform="translate(9,18)" class="S sfv" d="M1850 1707 L2041 1516 L2041 1544 L1850 1735 Z"/><path class="fv2" d="M1850 1707 L2041 1516 L2041 1544 L1850 1735 Z" /></g><g class="o"><path transform="translate(4,8)" class="S sfv" d="M1151 1365 L1373 1587 L1373 1675 L1151 1453 Z"/><path class="fv5" d="M1151 1365 L1373 1587 L1373 1675 L1151 1453 Z" /></g><g class="o"><path transform="translate(4,8)" class="S sfv" d="M1512 2002 L1588 2078 L1588 2098 L1512 2022 Z"/><path class="fv6" d="M1512 2002 L1588 2078 L1588 2098 L1512 2022 Z" /></g><g class="o"><path transform="translate(4,8)" class="S ssv" d="M1635 1446 L1266 1815 L1266 1825 L1635 1456 Z"/><path class="sv6" d="M1635 1446 L1266 1815 L1266 1825 L1635 1456 Z" /></g><g class="o"><path transform="translate(2,4)" class="S sfh" d="M1027 1189 L1221 1383 L1247 1383 L1053 1189 Z"/><path class="fh1" d="M1027 1189 L1221 1383 L1247 1383 L1053 1189 Z" /></g><g class="o"><path transform="translate(6,12)" class="S sfh" d="M1862 1909 L1782 1829 L1796 1829 L1876 1909 Z"/><path class="fh4" d="M1862 1909 L1782 1829 L1796 1829 L1876 1909 Z" /></g><g class="o"><path transform="translate(7,14)" class="S sfh" d="M1274 1316 L1352 1238 L1360 1238 L1282 1316 Z"/><path class="fh4" d="M1274 1316 L1352 1238 L1360 1238 L1282 1316 Z" /></g><g class="o"><path transform="translate(4,8)" class="S sfh" d="M1696 1530 L1525 1701 L1559 1701 L1730 1530 Z"/><path class="fh6" d="M1696 1530 L1525 1701 L1559 1701 L1730 1530 Z" /></g><g class="o"><path transform="translate(6,12)" class="S sfv" d="M1272 1388 L1412 1248 L1412 1278 L1272 1418 Z"/><path class="fv6" d="M1272 1388 L1412 1248 L1412 1278 L1272 1418 Z" /></g><g class="o"><path transform="translate(2,4)" class="S sfh" d="M1964 1006 L2047 1089 L2059 1089 L1976 1006 Z"/><path class="fh2" d="M1964 1006 L2047 1089 L2059 1089 L1976 1006 Z" /></g><g class="o"><path transform="translate(8,16)" class="S sfh" d="M991 1008 L860 877 L876 877 L1007 1008 Z"/><path class="fh5" d="M991 1008 L860 877 L876 877 L1007 1008 Z" /></g><g class="o"><path transform="translate(6,12)" class="S sfv" d="M1123 1004 L1771 1652 L1771 1666 L1123 1018 Z"/><path class="fv4" d="M1123 1004 L1771 1652 L1771 1666 L1123 1018 Z" /></g><g class="o"><path transform="translate(5,10)" class="S sfv" d="M1957 1350 L1869 1262 L1869 1282 L1957 1370 Z"/><path class="fv3" d="M1957 1350 L1869 1262 L1869 1282 L1957 1370 Z" /></g><g class="o"><path transform="translate(8,16)" class="S sfh" d="M1417 1559 L1477 1499 L1507 1499 L1447 1559 Z"/><path class="fh1" d="M1417 1559 L1477 1499 L1507 1499 L1447 1559 Z" /></g><g class="o"><path transform="translate(2,4)" class="S sfv" d="M1223 1509 L985 1271 L985 1289 L1223 1527 Z"/><path class="fv1" d="M1223 1509 L985 1271 L985 1289 L1223 1527 Z" /></g><g class="o"><path transform="translate(9,18)" class="S sfv" d="M1787 1757 L1951 1593 L1951 1623 L1787 1787 Z"/><path class="fv7" d="M1787 1757 L1951 1593 L1951 1623 L1787 1787 Z" /></g><g class="o"><path transform="translate(5,10)" class="S sfv" d="M1361 1666 L1655 1372 L1655 1392 L1361 1686 Z"/><path class="fv2" d="M1361 1666 L1655 1372 L1655 1392 L1361 1686 Z" /></g><g class="o"><path transform="translate(8,16)" class="S ssh" d="M1242 1855 L1084 2013 L1096 2013 L1254 1855 Z"/><path class="sh5" d="M1242 1855 L1084 2013 L1096 2013 L1254 1855 Z" /></g><g class="o"><path transform="translate(3,6)" class="S ssv" d="M1338 1835 L1192 1689 L1192 1709 L1338 1855 Z"/><path class="sv1" d="M1338 1835 L1192 1689 L1192 1709 L1338 1855 Z" /></g><g class="o"><path transform="translate(4,8)" class="S sfh" d="M1756 1579 L2000 1823 L2008 1823 L1764 1579 Z"/><path class="fh6" d="M1756 1579 L2000 1823 L2008 1823 L1764 1579 Z" /></g><g class="o"><path transform="translate(8,16)" class="S sfv" d="M1235 1742 L1297 1680 L1297 1702 L1235 1764 Z"/><path class="fv4" d="M1235 1742 L1297 1680 L1297 1702 L1235 1764 Z" /></g><g class="o"><path transform="translate(8,16)" class="S sfh" d="M1999 1171 L1946 1118 L1960 1118 L2013 1171 Z"/><path class="fh3" d="M1999 1171 L1946 1118 L1960 1118 L2013 1171 Z" /></g><g class="o"><path transform="translate(2,4)" class="S ssv" d="M1984 1170 L2145 1331 L2145 1339 L1984 1178 Z"/><path class="sv2" d="M1984 1170 L2145 1331 L2145 1339 L1984 1178 Z" /></g><g class="o"><path transform="translate(3,6)" class="S ssh" d="M1158 1029 L1233 954 L1271 954 L1196 1029 Z"/><path class="sh4" d="M1158 1029 L1233 954 L1271 954 L1196 1029 Z" /></g><g class="o"><path transform="translate(3,6)" class="S ssv" d="M1363 1363 L1297 1429 L1297 1445 L1363 1379 Z"/><path class="sv1" d="M1363 1363 L1297 1429 L1297 1445 L1363 1379 Z" /></g><g class="o"><path transform="translate(9,18)" class="S sfv" d="M1932 1191 L1371 1752 L1371 1774 L1932 1213 Z"/><path class="fv4" d="M1932 1191 L1371 1752 L1371 1774 L1932 1213 Z" /></g><g class="o"><path transform="translate(4,8)" class="S sfh" d="M1012 1900 L1150 1762 L1182 1762 L1044 1900 Z"/><path class="fh5" d="M1012 1900 L1150 1762 L1182 1762 L1044 1900 Z" /></g><g class="o"><path transform="translate(7,14)" class="S sfv" d="M1121 1772 L1267 1918 L1267 1998 L1121 1852 Z"/><path class="fv6" d="M1121 1772 L1267 1918 L1267 1998 L1121 1852 Z" /></g><g class="o"><path transform="translate(5,10)" class="S sfh" d="M1440 1428 L1944 1932 L1980 1932 L1476 1428 Z"/><path class="fh7" d="M1440 1428 L1944 1932 L1980 1932 L1476 1428 Z" /></g><g class="o"><path transform="translate(2,4)" class="S sfh" d="M1786 1327 L2002 1111 L2014 1111 L1798 1327 Z"/><path class="fh6" d="M1786 1327 L2002 1111 L2014 1111 L1798 1327 Z" /></g><g class="o"><path transform="translate(2,4)" class="S ssh" d="M1287 1006 L1522 771 L1560 771 L1325 1006 Z"/><path class="sh6" d="M1287 1006 L1522 771 L1560 771 L1325 1006 Z" /></g><g class="o"><path transform="translate(5,10)" class="S sfh" d="M1423 1352 L1255 1520 L1293 1520 L1461 1352 Z"/><path class="fh4" d="M1423 1352 L1255 1520 L1293 1520 L1461 1352 Z" /></g><g class="o"><path transform="translate(2,4)" class="S sfv" d="M1425 1003 L1264 1164 L1264 1202 L1425 1041 Z"/><path class="fv2" d="M1425 1003 L1264 1164 L1264 1202 L1425 1041 Z" /></g><g class="o"><path transform="translate(5,10)" class="S sfv" d="M1067 1928 L911 1772 L911 1784 L1067 1940 Z"/><path class="fv3" d="M1067 1928 L911 1772 L911 1784 L1067 1940 Z" /></g><g class="o"><path transform="translate(8,16)" class="S sfh" d="M1426 991 L1675 742 L1697 742 L1448 991 Z"/><path class="fh5" d="M1426 991 L1675 742 L1697 742 L1448 991 Z" /></g><g class="o"><path transform="translate(2,4)" class="S sfh" d="M1533 1241 L1668 1106 L1694 1106 L1559 1241 Z"/><path class="fh6" d="M1533 1241 L1668 1106 L1694 1106 L1559 1241 Z" /></g><g class="o"><path transform="translate(5,10)" class="S ssh" d="M961 1305 L1062 1204 L1086 1204 L985 1305 Z"/><path class="sh3" d="M961 1305 L1062 1204 L1086 1204 L985 1305 Z" /></g><g class="o"><path transform="translate(4,8)" class="S sfv" d="M1676 990 L1764 1078 L1764 1094 L1676 1006 Z"/><path class="fv5" d="M1676 990 L1764 1078 L1764 1094 L1676 1006 Z" /></g><g class="o"><path transform="translate(5,10)" class="S ssv" d="M1369 2032 L1945 1456 L1945 1488 L1369 2064 Z"/><path class="sv2" d="M1369 2032 L1945 1456 L1945 1488 L1369 2064 Z" /></g><g class="o"><path transform="translate(6,12)" class="S sfh" d="M1749 1446 L1985 1210 L2015 1210 L1779 1446 Z"/><path class="fh7" d="M1749 1446 L1985 1210 L2015 1210 L1779 1446 Z" /></g><g class="o"><path transform="translate(3,6)" class="S sfh" d="M1803 1876 L2034 2107 L2056 2107 L1825 1876 Z"/><path class="fh6" d="M1803 1876 L2034 2107 L2056 2107 L1825 1876 Z" /></g><g class="o"><path transform="translate(4,8)" class="S sfh" d="M1801 1416 L1870 1485 L1908 1485 L1839 1416 Z"/><path class="fh6" d="M1801 1416 L1870 1485 L1908 1485 L1839 1416 Z" /></g><g class="o"><path transform="translate(5,10)" class="S sfv" d="M1691 996 L1759 928 L1759 944 L1691 1012 Z"/><path class="fv5" d="M1691 996 L1759 928 L1759 944 L1691 1012 Z" /></g><g class="o"><path transform="translate(5,10)" class="S ssh" d="M2032 1240 L2189 1083 L2207 1083 L2050 1240 Z"/><path class="sh7" d="M2032 1240 L2189 1083 L2207 1083 L2050 1240 Z" /></g><g class="o"><path transform="translate(7,14)" class="S ssv" d="M1629 2031 L1539 2121 L1539 2151 L1629 2061 Z"/><path class="sv1" d="M1629 2031 L1539 2121 L1539 2151 L1629 2061 Z" /></g><g class="o"><path transform="translate(5,10)" class="S sfv" d="M1754 1027 L1687 1094 L1687 1214 L1754 1147 Z"/><path class="fv6" d="M1754 1027 L1687 1094 L1687 1214 L1754 1147 Z" /></g><g class="o"><path transform="translate(6,12)" class="S sfh" d="M1055 1660 L944 1549 L968 1549 L1079 1660 Z"/><path class="fh4" d="M1055 1660 L944 1549 L968 1549 L1079 1660 Z" /></g><g class="o"><path transform="translate(2,4)" class="S sfv" d="M1841 2025 L1896 1970 L1896 1986 L1841 2041 Z"/><path class="fv7" d="M1841 2025 L1896 1970 L1896 1986 L1841 2041 Z" /></g><g class="o"><path transform="translate(4,8)" class="S sfh" d="M1029 1004 L1200 833 L1320 833 L1149 1004 Z"/><path class="fh2" d="M1029 1004 L1200 833 L1320 833 L1149 1004 Z" /></g><g class="o"><path transform="translate(8,16)" class="S sfv" d="M1279 1067 L1669 677 L1669 703 L1279 1093 Z"/><path class="fv4" d="M1279 1067 L1669 677 L1669 703 L1279 1093 Z" /></g><g class="o"><path transform="translate(2,4)" class="S sfv" d="M1917 1423 L2091 1249 L2091 1271 L1917 1445 Z"/><path class="fv3" d="M1917 1423 L2091 1249 L2091 1271 L1917 1445 Z" /></g><g class="o"><path transform="translate(5,10)" class="S sfv" d="M1423 1341 L1589 1175 L1589 1197 L1423 1363 Z"/><path class="fv6" d="M1423 1341 L1589 1175 L1589 1197 L1423 1363 Z" /></g><g class="o"><path transform="translate(3,6)" class="S sfv" d="M1706 1792 L1514 1984 L1514 1996 L1706 1804 Z"/><path class="fv5" d="M1706 1792 L1514 1984 L1514 1996 L1706 1804 Z" /></g><g class="o"><path transform="translate(2,4)" class="S sfv" d="M1928 1310 L2080 1462 L2080 1482 L1928 1330 Z"/><path class="fv6" d="M1928 1310 L2080 1462 L2080 1482 L1928 1330 Z" /></g><g class="o"><path transform="translate(9,18)" class="S ssh" d="M1408 1574 L1223 1759 L1243 1759 L1428 1574 Z"/><path class="sh2" d="M1408 1574 L1223 1759 L1243 1759 L1428 1574 Z" /></g><g class="o"><path transform="translate(4,8)" class="S sfh" d="M1922 1053 L2081 1212 L2111 1212 L1952 1053 Z"/><path class="fh4" d="M1922 1053 L2081 1212 L2111 1212 L1952 1053 Z" /></g><g class="o"><path transform="translate(3,6)" class="S sfh" d="M1131 1950 L1336 1745 L1366 1745 L1161 1950 Z"/><path class="fh3" d="M1131 1950 L1336 1745 L1366 1745 L1161 1950 Z" /></g><g class="o"><path transform="translate(5,10)" class="S sfv" d="M1220 1609 L999 1830 L999 1856 L1220 1635 Z"/><path class="fv4" d="M1220 1609 L999 1830 L999 1856 L1220 1635 Z" /></g><g class="o"><path transform="translate(6,12)" class="S sfv" d="M1852 1399 L1671 1218 L1671 1252 L1852 1433 Z"/><path class="fv6" d="M1852 1399 L1671 1218 L1671 1252 L1852 1433 Z" /></g><g class="o"><path transform="translate(4,8)" class="S sfv" d="M1004 1800 L1128 1924 L1128 1942 L1004 1818 Z"/><path class="fv5" d="M1004 1800 L1128 1924 L1128 1942 L1004 1818 Z" /></g><g class="o"><path transform="translate(3,6)" class="S sfh" d="M1636 1739 L1718 1657 L1732 1657 L1650 1739 Z"/><path class="fh7" d="M1636 1739 L1718 1657 L1732 1657 L1650 1739 Z" /></g><g class="o"><path transform="translate(2,4)" class="S sfh" d="M1862 1165 L2064 963 L2096 963 L1894 1165 Z"/><path class="fh7" d="M1862 1165 L2064 963 L2096 963 L1894 1165 Z" /></g><g class="o"><path transform="translate(7,14)" class="S sfh" d="M1867 1354 L2076 1145 L2084 1145 L1875 1354 Z"/><path class="fh6" d="M1867 1354 L2076 1145 L2084 1145 L1875 1354 Z" /></g><g class="o"><path transform="translate(4,8)" class="S ssh" d="M1166 1123 L1395 1352 L1409 1352 L1180 1123 Z"/><path class="sh2" d="M1166 1123 L1395 1352 L1409 1352 L1180 1123 Z" /></g><g class="o"><path transform="translate(8,16)" class="S sfh" d="M1603 1647 L1476 1520 L1496 1520 L1623 1647 Z"/><path class="fh2" d="M1603 1647 L1476 1520 L1496 1520 L1623 1647 Z" /></g><g class="o"><path transform="translate(5,10)" class="S sfv" d="M1665 1499 L2001 1163 L2001 1185 L1665 1521 Z"/><path class="fv6" d="M1665 1499 L2001 1163 L2001 1185 L1665 1521 Z" /></g><g class="o"><path transform="translate(5,10)" class="S ssh" d="M1398 1762 L1279 1881 L1315 1881 L1434 1762 Z"/><path class="sh6" d="M1398 1762 L1279 1881 L1315 1881 L1434 1762 Z" /></g><g class="o"><path transform="translate(9,18)" class="S sfv" d="M1404 1685 L1484 1605 L1484 1621 L1404 1701 Z"/><path class="fv5" d="M1404 1685 L1484 1605 L1484 1621 L1404 1701 Z" /></g><g class="o"><path transform="translate(8,16)" class="S sfh" d="M1409 1434 L701 726 L717 726 L1425 1434 Z"/><path class="fh2" d="M1409 1434 L701 726 L717 726 L1425 1434 Z" /></g></g><use href="#slashes" transform-origin="1500 1500" transform="rotate(180) scale(2)"/></g><polyline points="1500,1010 1990,1500 1500,1990 1010,1500 1500,1010 1990,1500" stroke-width="40" class="o s4" /><use href="#slashes" transform-origin="1500 1500" transform="scale(.6)"/><use href="#slashes" transform-origin="1500 1500" transform="rotate(180) scale(.6)"/></svg>