<svg xmlns="http://www.w3.org/2000/svg" viewBox="750 750 1500 1500"><style>/*<![CDATA[*/svg{background:rgb(91,192,190);max-width:100vw;max-height:100vh}path{stroke-width:4}.o{opacity:.75}.S{opacity:.4}.sf{stroke:none;fill:black}.sfh{stroke:none;fill:url(#hs)}.sfv{stroke:none;fill:url(#vs)}.ss{stroke:black;fill:none}.ssh{stroke:url(#hs);fill:none}.ssv{stroke:url(#vs);fill:none}.s1{fill:none;stroke:rgb(111,255,233)}.f1{stroke:none;fill:rgb(111,255,233)}.sh1{fill:none;stroke:url(#h1)}.fh1{stroke:none;fill:url(#h1)}.sv1{fill:none;stroke:url(#v1)}.fv1{stroke:none;fill:url(#v1)}.s2{fill:none;stroke:rgb(34,34,34)}.f2{stroke:none;fill:rgb(34,34,34)}.sh2{fill:none;stroke:url(#h2)}.fh2{stroke:none;fill:url(#h2)}.sv2{fill:none;stroke:url(#v2)}.fv2{stroke:none;fill:url(#v2)}.s3{fill:none;stroke:rgb(11,19,43)}.f3{stroke:none;fill:rgb(11,19,43)}.sh3{fill:none;stroke:url(#h3)}.fh3{stroke:none;fill:url(#h3)}.sv3{fill:none;stroke:url(#v3)}.fv3{stroke:none;fill:url(#v3)}.s4{fill:none;stroke:rgb(28,37,65)}.f4{stroke:none;fill:rgb(28,37,65)}.sh4{fill:none;stroke:url(#h4)}.fh4{stroke:none;fill:url(#h4)}.sv4{fill:none;stroke:url(#v4)}.fv4{stroke:none;fill:url(#v4)}.s5{fill:none;stroke:rgb(58,80,107)}.f5{stroke:none;fill:rgb(58,80,107)}.sh5{fill:none;stroke:url(#h5)}.fh5{stroke:none;fill:url(#h5)}.sv5{fill:none;stroke:url(#v5)}.fv5{stroke:none;fill:url(#v5)}.s6{fill:none;stroke:rgb(255,255,255)}.f6{stroke:none;fill:rgb(255,255,255)}.sh6{fill:none;stroke:url(#h6)}.fh6{stroke:none;fill:url(#h6)}.sv6{fill:none;stroke:url(#v6)}.fv6{stroke:none;fill:url(#v6)}.s7{fill:none;stroke:rgb(255,0,0)}.f7{stroke:none;fill:rgb(255,0,0)}.sh7{fill:none;stroke:url(#h7)}.fh7{stroke:none;fill:url(#h7)}.sv7{fill:none;stroke:url(#v7)}.fv7{stroke:none;fill:url(#v7)}/*]]>*/</style><defs><linearGradient gradientTransform="rotate(90)" id="hs"><stop offset="20%" stop-color="#000" /><stop offset="95%" stop-color="rgba(0, 0, 0, 0)" /></linearGradient><linearGradient id="vs"><stop offset="20%" stop-color="#000" /><stop offset="95%" stop-color="rgba(0, 0, 0, 0)" /></linearGradient><linearGradient gradientTransform="rotate(90)" id="h1"><stop offset="20%" stop-color="rgba(111,255,233,1)" /><stop offset="95%" stop-color="rgba(111,255,233,0)" /></linearGradient><linearGradient id="v1"><stop offset="20%" stop-color="rgba(111,255,233,1)" /><stop offset="95%" stop-color="rgba(111,255,233,0)" /></linearGradient><linearGradient gradientTransform="rotate(90)" id="h2"><stop offset="20%" stop-color="rgba(34,34,34,1)" /><stop offset="95%" stop-color="rgba(34,34,34,0)" /></linearGradient><linearGradient id="v2"><stop offset="20%" stop-color="rgba(34,34,34,1)" /><stop offset="95%" stop-color="rgba(34,34,34,0)" /></linearGradient><linearGradient gradientTransform="rotate(90)" id="h3"><stop offset="20%" stop-color="rgba(11,19,43,1)" /><stop offset="95%" stop-color="rgba(11,19,43,0)" /></linearGradient><linearGradient id="v3"><stop offset="20%" stop-color="rgba(11,19,43,1)" /><stop offset="95%" stop-color="rgba(11,19,43,0)" /></linearGradient><linearGradient gradientTransform="rotate(90)" id="h4"><stop offset="20%" stop-color="rgba(28,37,65,1)" /><stop offset="95%" stop-color="rgba(28,37,65,0)" /></linearGradient><linearGradient id="v4"><stop offset="20%" stop-color="rgba(28,37,65,1)" /><stop offset="95%" stop-color="rgba(28,37,65,0)" /></linearGradient><linearGradient gradientTransform="rotate(90)" id="h5"><stop offset="20%" stop-color="rgba(58,80,107,1)" /><stop offset="95%" stop-color="rgba(58,80,107,0)" /></linearGradient><linearGradient id="v5"><stop offset="20%" stop-color="rgba(58,80,107,1)" /><stop offset="95%" stop-color="rgba(58,80,107,0)" /></linearGradient><linearGradient gradientTransform="rotate(90)" id="h6"><stop offset="20%" stop-color="rgba(255,255,255,1)" /><stop offset="95%" stop-color="rgba(255,255,255,0)" /></linearGradient><linearGradient id="v6"><stop offset="20%" stop-color="rgba(255,255,255,1)" /><stop offset="95%" stop-color="rgba(255,255,255,0)" /></linearGradient><linearGradient gradientTransform="rotate(90)" id="h7"><stop offset="20%" stop-color="rgba(255,0,0,1)" /><stop offset="95%" stop-color="rgba(255,0,0,0)" /></linearGradient><linearGradient id="v7"><stop offset="20%" stop-color="rgba(255,0,0,1)" /><stop offset="95%" stop-color="rgba(255,0,0,0)" /></linearGradient></defs><g transform-origin="1500 1500" transform="scale(2)" opacity=".8"><g id="slashes"><g class="o"><path transform="translate(3,6)" class="S sfh" d="M1883 1032 L1654 1261 L1806 1261 L2035 1032 Z"/><path class="fh2" d="M1883 1032 L1654 1261 L1806 1261 L2035 1032 Z" /></g><g class="o"><path transform="translate(2,4)" class="S ssh" d="M1403 1989 L1223 2169 L1303 2169 L1483 1989 Z"/><path class="sh7" d="M1403 1989 L1223 2169 L1303 2169 L1483 1989 Z" /></g><g class="o"><path transform="translate(5,10)" class="S sf" d="M1087 1820 L929 1978 L929 2018 L1087 1860 Z"/><path class="f5" d="M1087 1820 L929 1978 L929 2018 L1087 1860 Z" /></g><g class="o"><path transform="translate(6,12)" class="S ss" d="M1247 1207 L1162 1292 L1162 1300 L1247 1215 Z"/><path class="s4" d="M1247 1207 L1162 1292 L1162 1300 L1247 1215 Z" /></g><g class="o"><path transform="translate(4,8)" class="S sf" d="M963 1311 L764 1510 L764 1536 L963 1337 Z"/><path class="f5" d="M963 1311 L764 1510 L764 1536 L963 1337 Z" /></g><g class="o"><path transform="translate(9,18)" class="S ssv" d="M1723 1633 L1528 1828 L1528 1858 L1723 1663 Z"/><path class="sv3" d="M1723 1633 L1528 1828 L1528 1858 L1723 1663 Z" /></g><g class="o"><path transform="translate(4,8)" class="S sf" d="M1753 901 L1539 1115 L1539 1267 L1753 1053 Z"/><path class="f5" d="M1753 901 L1539 1115 L1539 1267 L1753 1053 Z" /></g><g class="o"><path transform="translate(5,10)" class="S sf" d="M978 1964 L866 2076 L866 2098 L978 1986 Z"/><path class="f1" d="M978 1964 L866 2076 L866 2098 L978 1986 Z" /></g><g class="o"><path transform="translate(2,4)" class="S sfh" d="M1542 1903 L1360 2085 L1432 2085 L1614 1903 Z"/><path class="fh1" d="M1542 1903 L1360 2085 L1432 2085 L1614 1903 Z" /></g><g class="o"><path transform="translate(6,12)" class="S sfv" d="M1491 1825 L1375 1941 L1375 2021 L1491 1905 Z"/><path class="fv4" d="M1491 1825 L1375 1941 L1375 2021 L1491 1905 Z" /></g><g class="o"><path transform="translate(4,8)" class="S sfv" d="M1410 1184 L1238 1356 L1238 1436 L1410 1264 Z"/><path class="fv2" d="M1410 1184 L1238 1356 L1238 1436 L1410 1264 Z" /></g><g class="o"><path transform="translate(6,12)" class="S sf" d="M1779 1446 L1661 1564 L1661 1580 L1779 1462 Z"/><path class="f3" d="M1779 1446 L1661 1564 L1661 1580 L1779 1462 Z" /></g><g class="o"><path transform="translate(9,18)" class="S sfh" d="M1957 1243 L1780 1420 L1818 1420 L1995 1243 Z"/><path class="fh6" d="M1957 1243 L1780 1420 L1818 1420 L1995 1243 Z" /></g><g class="o"><path transform="translate(8,16)" class="S sfh" d="M2031 1426 L1870 1587 L1886 1587 L2047 1426 Z"/><path class="fh3" d="M2031 1426 L1870 1587 L1886 1587 L2047 1426 Z" /></g><g class="o"><path transform="translate(6,12)" class="S sfh" d="M1489 1705 L1330 1864 L1342 1864 L1501 1705 Z"/><path class="fh6" d="M1489 1705 L1330 1864 L1342 1864 L1501 1705 Z" /></g><g class="o"><path transform="translate(9,18)" class="S sfh" d="M890 1432 L835 1487 L971 1487 L1026 1432 Z"/><path class="fh2" d="M890 1432 L835 1487 L971 1487 L1026 1432 Z" /></g><g class="o"><path transform="translate(3,6)" class="S ssh" d="M1724 1193 L1594 1323 L1698 1323 L1828 1193 Z"/><path class="sh6" d="M1724 1193 L1594 1323 L1698 1323 L1828 1193 Z" /></g><g class="o"><path transform="translate(2,4)" class="S sfv" d="M1114 1963 L951 2126 L951 2222 L1114 2059 Z"/><path class="fv5" d="M1114 1963 L951 2126 L951 2222 L1114 2059 Z" /></g><g class="o"><path transform="translate(2,4)" class="S sfh" d="M1212 1847 L1128 1931 L1142 1931 L1226 1847 Z"/><path class="fh2" d="M1212 1847 L1128 1931 L1142 1931 L1226 1847 Z" /></g><g class="o"><path transform="translate(9,18)" class="S sf" d="M1120 1421 L972 1569 L972 1649 L1120 1501 Z"/><path class="f5" d="M1120 1421 L972 1569 L972 1649 L1120 1501 Z" /></g><g class="o"><path transform="translate(5,10)" class="S sf" d="M1118 967 L992 1093 L992 1105 L1118 979 Z"/><path class="f2" d="M1118 967 L992 1093 L992 1105 L1118 979 Z" /></g><g class="o"><path transform="translate(7,14)" class="S sfh" d="M1370 1908 L1157 2121 L1229 2121 L1442 1908 Z"/><path class="fh5" d="M1370 1908 L1157 2121 L1229 2121 L1442 1908 Z" /></g><g class="o"><path transform="translate(2,4)" class="S sfh" d="M1513 1684 L1418 1779 L1446 1779 L1541 1684 Z"/><path class="fh4" d="M1513 1684 L1418 1779 L1446 1779 L1541 1684 Z" /></g><g class="o"><path transform="translate(6,12)" class="S sf" d="M1960 1082 L1856 1186 L1870 1186 L1974 1082 Z"/><path class="f4" d="M1960 1082 L1856 1186 L1870 1186 L1974 1082 Z" /></g><g class="o"><path transform="translate(3,6)" class="S sfh" d="M1899 1076 L1758 1217 L1902 1217 L2043 1076 Z"/><path class="fh6" d="M1899 1076 L1758 1217 L1902 1217 L2043 1076 Z" /></g><g class="o"><path transform="translate(2,4)" class="S sfh" d="M1174 1890 L1101 1963 L1131 1963 L1204 1890 Z"/><path class="fh5" d="M1174 1890 L1101 1963 L1131 1963 L1204 1890 Z" /></g><g class="o"><path transform="translate(4,8)" class="S sfh" d="M1536 1994 L1426 2104 L1452 2104 L1562 1994 Z"/><path class="fh7" d="M1536 1994 L1426 2104 L1452 2104 L1562 1994 Z" /></g><g class="o"><path transform="translate(2,4)" class="S sfv" d="M979 919 L768 1130 L768 1258 L979 1047 Z"/><path class="fv5" d="M979 919 L768 1130 L768 1258 L979 1047 Z" /></g><g class="o"><path transform="translate(6,12)" class="S sfv" d="M1265 1896 L1169 1992 L1169 2080 L1265 1984 Z"/><path class="fv4" d="M1265 1896 L1169 1992 L1169 2080 L1265 1984 Z" /></g><g class="o"><path transform="translate(5,10)" class="S sfv" d="M1691 1853 L1542 2002 L1542 2024 L1691 1875 Z"/><path class="fv6" d="M1691 1853 L1542 2002 L1542 2024 L1691 1875 Z" /></g><g class="o"><path transform="translate(4,8)" class="S sfv" d="M1329 1244 L1225 1348 L1225 1378 L1329 1274 Z"/><path class="fv1" d="M1329 1244 L1225 1348 L1225 1378 L1329 1274 Z" /></g><g class="o"><path transform="translate(3,6)" class="S ss" d="M1497 1854 L1257 2094 L1257 2120 L1497 1880 Z"/><path class="s3" d="M1497 1854 L1257 2094 L1257 2120 L1497 1880 Z" /></g><g class="o"><path transform="translate(2,4)" class="S sf" d="M1910 1792 L1768 1934 L1768 1954 L1910 1812 Z"/><path class="f6" d="M1910 1792 L1768 1934 L1768 1954 L1910 1812 Z" /></g><g class="o"><path transform="translate(8,16)" class="S sfv" d="M1044 1401 L945 1500 L945 1534 L1044 1435 Z"/><path class="fv1" d="M1044 1401 L945 1500 L945 1534 L1044 1435 Z" /></g><g class="o"><path transform="translate(6,12)" class="S sfh" d="M964 1509 L759 1714 L785 1714 L990 1509 Z"/><path class="fh3" d="M964 1509 L759 1714 L785 1714 L990 1509 Z" /></g><g class="o"><path transform="translate(2,4)" class="S ssv" d="M1902 1102 L1850 1154 L1850 1306 L1902 1254 Z"/><path class="sv5" d="M1902 1102 L1850 1154 L1850 1306 L1902 1254 Z" /></g><g class="o"><path transform="translate(5,10)" class="S ssv" d="M1236 1528 L1057 1707 L1057 1731 L1236 1552 Z"/><path class="sv4" d="M1236 1528 L1057 1707 L1057 1731 L1236 1552 Z" /></g><g class="o"><path transform="translate(5,10)" class="S sfv" d="M1863 1426 L1764 1525 L1764 1547 L1863 1448 Z"/><path class="fv6" d="M1863 1426 L1764 1525 L1764 1547 L1863 1448 Z" /></g><g class="o"><path transform="translate(8,16)" class="S sf" d="M1205 2006 L1136 2075 L1166 2075 L1235 2006 Z"/><path class="f6" d="M1205 2006 L1136 2075 L1166 2075 L1235 2006 Z" /></g><g class="o"><path transform="translate(6,12)" class="S ssh" d="M1288 1403 L1050 1641 L1090 1641 L1328 1403 Z"/><path class="sh5" d="M1288 1403 L1050 1641 L1090 1641 L1328 1403 Z" /></g><g class="o"><path transform="translate(8,16)" class="S sfv" d="M1687 1153 L1523 1317 L1523 1347 L1687 1183 Z"/><path class="fv2" d="M1687 1153 L1523 1317 L1523 1347 L1687 1183 Z" /></g><g class="o"><path transform="translate(9,18)" class="S sfh" d="M986 1754 L810 1930 L832 1930 L1008 1754 Z"/><path class="fh2" d="M986 1754 L810 1930 L832 1930 L1008 1754 Z" /></g><g class="o"><path transform="translate(2,4)" class="S ssv" d="M1437 1988 L1284 2141 L1284 2151 L1437 1998 Z"/><path class="sv5" d="M1437 1988 L1284 2141 L1284 2151 L1437 1998 Z" /></g><g class="o"><path transform="translate(2,4)" class="S sfv" d="M1721 1158 L1666 1213 L1666 1235 L1721 1180 Z"/><path class="fv5" d="M1721 1158 L1666 1213 L1666 1235 L1721 1180 Z" /></g><g class="o"><path transform="translate(9,18)" class="S sfv" d="M1682 2011 L1459 2234 L1459 2252 L1682 2029 Z"/><path class="fv6" d="M1682 2011 L1459 2234 L1459 2252 L1682 2029 Z" /></g><g class="o"><path transform="translate(2,4)" class="S ssh" d="M1927 2009 L1839 2097 L1855 2097 L1943 2009 Z"/><path class="sh3" d="M1927 2009 L1839 2097 L1855 2097 L1943 2009 Z" /></g><g class="o"><path transform="translate(4,8)" class="S ssh" d="M1298 1166 L1058 1406 L1094 1406 L1334 1166 Z"/><path class="sh5" d="M1298 1166 L1058 1406 L1094 1406 L1334 1166 Z" /></g><g class="o"><path transform="translate(5,10)" class="S sf" d="M1993 1996 L1850 2139 L1864 2139 L2007 1996 Z"/><path class="f5" d="M1993 1996 L1850 2139 L1864 2139 L2007 1996 Z" /></g><g class="o"><path transform="translate(7,14)" class="S sfh" d="M1404 1908 L1218 2094 L1256 2094 L1442 1908 Z"/><path class="fh7" d="M1404 1908 L1218 2094 L1256 2094 L1442 1908 Z" /></g><g class="o"><path transform="translate(4,8)" class="S sfh" d="M1902 1474 L1822 1554 L1860 1554 L1940 1474 Z"/><path class="fh1" d="M1902 1474 L1822 1554 L1860 1554 L1940 1474 Z" /></g><g class="o"><path transform="translate(9,18)" class="S sf" d="M1791 1389 L1684 1496 L1724 1496 L1831 1389 Z"/><path class="f2" d="M1791 1389 L1684 1496 L1724 1496 L1831 1389 Z" /></g><g class="o"><path transform="translate(6,12)" class="S sfv" d="M1900 1831 L1688 2043 L1688 2061 L1900 1849 Z"/><path class="fv6" d="M1900 1831 L1688 2043 L1688 2061 L1900 1849 Z" /></g><g class="o"><path transform="translate(7,14)" class="S ssv" d="M1079 1846 L971 1954 L971 1964 L1079 1856 Z"/><path class="sv7" d="M1079 1846 L971 1954 L971 1964 L1079 1856 Z" /></g><g class="o"><path transform="translate(9,18)" class="S sf" d="M1831 1421 L1585 1667 L1585 1693 L1831 1447 Z"/><path class="f1" d="M1831 1421 L1585 1667 L1585 1693 L1831 1447 Z" /></g><g class="o"><path transform="translate(7,14)" class="S sf" d="M1487 1298 L1426 1359 L1426 1395 L1487 1334 Z"/><path class="f6" d="M1487 1298 L1426 1359 L1426 1395 L1487 1334 Z" /></g><g class="o"><path transform="translate(4,8)" class="S ss" d="M1906 1017 L1668 1255 L1788 1255 L2026 1017 Z"/><path class="s5" d="M1906 1017 L1668 1255 L1788 1255 L2026 1017 Z" /></g><g class="o"><path transform="translate(3,6)" class="S sf" d="M1348 1916 L1114 2150 L1146 2150 L1380 1916 Z"/><path class="f1" d="M1348 1916 L1114 2150 L1146 2150 L1380 1916 Z" /></g><g class="o"><path transform="translate(4,8)" class="S ssh" d="M1618 1932 L1419 2131 L1439 2131 L1638 1932 Z"/><path class="sh6" d="M1618 1932 L1419 2131 L1439 2131 L1638 1932 Z" /></g><g class="o"><path transform="translate(4,8)" class="S sfh" d="M1584 1381 L1437 1528 L1455 1528 L1602 1381 Z"/><path class="fh6" d="M1584 1381 L1437 1528 L1455 1528 L1602 1381 Z" /></g><g class="o"><path transform="translate(9,18)" class="S sfh" d="M1103 1951 L1005 2049 L1037 2049 L1135 1951 Z"/><path class="fh7" d="M1103 1951 L1005 2049 L1037 2049 L1135 1951 Z" /></g><g class="o"><path transform="translate(2,4)" class="S sfv" d="M1927 988 L1753 1162 L1753 1200 L1927 1026 Z"/><path class="fv7" d="M1927 988 L1753 1162 L1753 1200 L1927 1026 Z" /></g><g class="o"><path transform="translate(9,18)" class="S sfh" d="M1795 1111 L1649 1257 L1685 1257 L1831 1111 Z"/><path class="fh1" d="M1795 1111 L1649 1257 L1685 1257 L1831 1111 Z" /></g><g class="o"><path transform="translate(6,12)" class="S sfv" d="M974 1339 L863 1450 L863 1594 L974 1483 Z"/><path class="fv7" d="M974 1339 L863 1450 L863 1594 L974 1483 Z" /></g><g class="o"><path transform="translate(6,12)" class="S sf" d="M1790 1776 L1625 1941 L1777 1941 L1942 1776 Z"/><path class="f4" d="M1790 1776 L1625 1941 L1777 1941 L1942 1776 Z" /></g><g class="o"><path transform="translate(5,10)" class="S sf" d="M1237 1581 L1016 1802 L1016 1946 L1237 1725 Z"/><path class="f3" d="M1237 1581 L1016 1802 L1016 1946 L1237 1725 Z" /></g><g class="o"><path transform="translate(8,16)" class="S sfv" d="M1389 1696 L1306 1779 L1306 1793 L1389 1710 Z"/><path class="fv1" d="M1389 1696 L1306 1779 L1306 1793 L1389 1710 Z" /></g><g class="o"><path transform="translate(3,6)" class="S sf" d="M987 1902 L819 2070 L859 2070 L1027 1902 Z"/><path class="f7" d="M987 1902 L819 2070 L859 2070 L1027 1902 Z" /></g><g class="o"><path transform="translate(3,6)" class="S sfv" d="M1741 1811 L1685 1867 L1685 1889 L1741 1833 Z"/><path class="fv5" d="M1741 1811 L1685 1867 L1685 1889 L1741 1833 Z" /></g><g class="o"><path transform="translate(7,14)" class="S sfv" d="M1310 1744 L1238 1816 L1238 1838 L1310 1766 Z"/><path class="fv7" d="M1310 1744 L1238 1816 L1238 1838 L1310 1766 Z" /></g><g class="o"><path transform="translate(9,18)" class="S sfv" d="M1072 1177 L875 1374 L875 1430 L1072 1233 Z"/><path class="fv1" d="M1072 1177 L875 1374 L875 1430 L1072 1233 Z" /></g><g class="o"><path transform="translate(8,16)" class="S sf" d="M1315 1383 L1133 1565 L1165 1565 L1347 1383 Z"/><path class="f6" d="M1315 1383 L1133 1565 L1165 1565 L1347 1383 Z" /></g><g class="o"><path transform="translate(5,10)" class="S sfv" d="M1237 1302 L1125 1414 L1125 1430 L1237 1318 Z"/><path class="fv1" d="M1237 1302 L1125 1414 L1125 1430 L1237 1318 Z" /></g><g class="o"><path transform="translate(3,6)" class="S sf" d="M1272 1387 L1202 1457 L1354 1457 L1424 1387 Z"/><path class="f1" d="M1272 1387 L1202 1457 L1354 1457 L1424 1387 Z" /></g><g class="o"><path transform="translate(6,12)" class="S sfv" d="M1740 1539 L1591 1688 L1591 1784 L1740 1635 Z"/><path class="fv1" d="M1740 1539 L1591 1688 L1591 1784 L1740 1635 Z" /></g><g class="o"><path transform="translate(2,4)" class="S sf" d="M1820 1717 L1714 1823 L1714 1919 L1820 1813 Z"/><path class="f6" d="M1820 1717 L1714 1823 L1714 1919 L1820 1813 Z" /></g><g class="o"><path transform="translate(9,18)" class="S sfh" d="M949 1581 L897 1633 L969 1633 L1021 1581 Z"/><path class="fh5" d="M949 1581 L897 1633 L969 1633 L1021 1581 Z" /></g><g class="o"><path transform="translate(6,12)" class="S sf" d="M1588 1923 L1354 2157 L1372 2157 L1606 1923 Z"/><path class="f2" d="M1588 1923 L1354 2157 L1372 2157 L1606 1923 Z" /></g><g class="o"><path transform="translate(9,18)" class="S sf" d="M1251 988 L1154 1085 L1186 1085 L1283 988 Z"/><path class="f6" d="M1251 988 L1154 1085 L1186 1085 L1283 988 Z" /></g><g class="o"><path transform="translate(7,14)" class="S sfv" d="M984 1190 L900 1274 L900 1322 L984 1238 Z"/><path class="fv1" d="M984 1190 L900 1274 L900 1322 L984 1238 Z" /></g><g class="o"><path transform="translate(6,12)" class="S sfv" d="M1196 1561 L1056 1701 L1056 1757 L1196 1617 Z"/><path class="fv6" d="M1196 1561 L1056 1701 L1056 1757 L1196 1617 Z" /></g><g class="o"><path transform="translate(7,14)" class="S sfv" d="M1128 1877 L940 2065 L940 2137 L1128 1949 Z"/><path class="fv4" d="M1128 1877 L940 2065 L940 2137 L1128 1949 Z" /></g><g class="o"><path transform="translate(6,12)" class="S sfh" d="M1565 1814 L1413 1966 L1437 1966 L1589 1814 Z"/><path class="fh2" d="M1565 1814 L1413 1966 L1437 1966 L1589 1814 Z" /></g><g class="o"><path transform="translate(4,8)" class="S sf" d="M1665 992 L1451 1206 L1465 1206 L1679 992 Z"/><path class="f7" d="M1665 992 L1451 1206 L1465 1206 L1679 992 Z" /></g><g class="o"><path transform="translate(7,14)" class="S sfh" d="M1839 975 L1758 1056 L1792 1056 L1873 975 Z"/><path class="fh5" d="M1839 975 L1758 1056 L1792 1056 L1873 975 Z" /></g><g class="o"><path transform="translate(4,8)" class="S sf" d="M1767 1959 L1713 2013 L1713 2157 L1767 2103 Z"/><path class="f2" d="M1767 1959 L1713 2013 L1713 2157 L1767 2103 Z" /></g><g class="o"><path transform="translate(8,16)" class="S sfv" d="M1532 923 L1422 1033 L1422 1089 L1532 979 Z"/><path class="fv2" d="M1532 923 L1422 1033 L1422 1089 L1532 979 Z" /></g><g class="o"><path transform="translate(9,18)" class="S ssv" d="M1920 1109 L1741 1288 L1741 1376 L1920 1197 Z"/><path class="sv7" d="M1920 1109 L1741 1288 L1741 1376 L1920 1197 Z" /></g><g class="o"><path transform="translate(5,10)" class="S sfh" d="M1972 1374 L1739 1607 L1771 1607 L2004 1374 Z"/><path class="fh5" d="M1972 1374 L1739 1607 L1771 1607 L2004 1374 Z" /></g><g class="o"><path transform="translate(5,10)" class="S sfv" d="M1796 1566 L1635 1727 L1635 1879 L1796 1718 Z"/><path class="fv6" d="M1796 1566 L1635 1727 L1635 1879 L1796 1718 Z" /></g><g class="o"><path transform="translate(6,12)" class="S sfv" d="M2030 2000 L1882 2148 L1882 2166 L2030 2018 Z"/><path class="fv7" d="M2030 2000 L1882 2148 L1882 2166 L2030 2018 Z" /></g><g class="o"><path transform="translate(7,14)" class="S sfh" d="M1274 1805 L1062 2017 L1082 2017 L1294 1805 Z"/><path class="fh5" d="M1274 1805 L1062 2017 L1082 2017 L1294 1805 Z" /></g><g class="o"><path transform="translate(5,10)" class="S sfh" d="M1480 954 L1422 1012 L1510 1012 L1568 954 Z"/><path class="fh5" d="M1480 954 L1422 1012 L1510 1012 L1568 954 Z" /></g><g class="o"><path transform="translate(2,4)" class="S ssv" d="M1326 1920 L1259 1987 L1259 2123 L1326 2056 Z"/><path class="sv5" d="M1326 1920 L1259 1987 L1259 2123 L1326 2056 Z" /></g><g class="o"><path transform="translate(6,12)" class="S sfv" d="M1344 1257 L1168 1433 L1168 1471 L1344 1295 Z"/><path class="fv1" d="M1344 1257 L1168 1433 L1168 1471 L1344 1295 Z" /></g><g class="o"><path transform="translate(9,18)" class="S sfh" d="M1002 2010 L813 2199 L827 2199 L1016 2010 Z"/><path class="fh6" d="M1002 2010 L813 2199 L827 2199 L1016 2010 Z" /></g><g class="o"><path transform="translate(7,14)" class="S ssh" d="M1707 1308 L1652 1363 L1682 1363 L1737 1308 Z"/><path class="sh5" d="M1707 1308 L1652 1363 L1682 1363 L1737 1308 Z" /></g><g class="o"><path transform="translate(8,16)" class="S sfv" d="M1329 1581 L1153 1757 L1153 1909 L1329 1733 Z"/><path class="fv6" d="M1329 1581 L1153 1757 L1153 1909 L1329 1733 Z" /></g><g class="o"><path transform="translate(5,10)" class="S sfv" d="M1921 1512 L1696 1737 L1696 1765 L1921 1540 Z"/><path class="fv3" d="M1921 1512 L1696 1737 L1696 1765 L1921 1540 Z" /></g><g class="o"><path transform="translate(8,16)" class="S sf" d="M1951 1133 L1761 1323 L1857 1323 L2047 1133 Z"/><path class="f2" d="M1951 1133 L1761 1323 L1857 1323 L2047 1133 Z" /></g><g class="o"><path transform="translate(3,6)" class="S sfh" d="M1414 1332 L1290 1456 L1386 1456 L1510 1332 Z"/><path class="fh5" d="M1414 1332 L1290 1456 L1386 1456 L1510 1332 Z" /></g><g class="o"><path transform="translate(2,4)" class="S sfh" d="M1593 1463 L1478 1578 L1514 1578 L1629 1463 Z"/><path class="fh5" d="M1593 1463 L1478 1578 L1514 1578 L1629 1463 Z" /></g><g class="o"><path transform="translate(2,4)" class="S sf" d="M1192 1064 L1003 1253 L1003 1263 L1192 1074 Z"/><path class="f2" d="M1192 1064 L1003 1253 L1003 1263 L1192 1074 Z" /></g><g class="o"><path transform="translate(9,18)" class="S sfv" d="M1451 1221 L1289 1383 L1289 1421 L1451 1259 Z"/><path class="fv3" d="M1451 1221 L1289 1383 L1289 1421 L1451 1259 Z" /></g><g class="o"><path transform="translate(7,14)" class="S sfv" d="M1526 1765 L1327 1964 L1327 1988 L1526 1789 Z"/><path class="fv3" d="M1526 1765 L1327 1964 L1327 1988 L1526 1789 Z" /></g><g class="o"><path transform="translate(8,16)" class="S sfh" d="M1449 1327 L1338 1438 L1450 1438 L1561 1327 Z"/><path class="fh7" d="M1449 1327 L1338 1438 L1450 1438 L1561 1327 Z" /></g><g class="o"><path transform="translate(8,16)" class="S sfv" d="M979 1831 L829 1981 L829 2077 L979 1927 Z"/><path class="fv4" d="M979 1831 L829 1981 L829 2077 L979 1927 Z" /></g><g class="o"><path transform="translate(8,16)" class="S sfv" d="M1096 1776 L1030 1842 L1030 1870 L1096 1804 Z"/><path class="fv6" d="M1096 1776 L1030 1842 L1030 1870 L1096 1804 Z" /></g><g class="o"><path transform="translate(4,8)" class="S ssh" d="M985 1696 L910 1771 L966 1771 L1041 1696 Z"/><path class="sh6" d="M985 1696 L910 1771 L966 1771 L1041 1696 Z" /></g><g class="o"><path transform="translate(9,18)" class="S sfv" d="M1981 1935 L1875 2041 L1875 2153 L1981 2047 Z"/><path class="fv6" d="M1981 1935 L1875 2041 L1875 2153 L1981 2047 Z" /></g><g class="o"><path transform="translate(4,8)" class="S sfh" d="M1625 1776 L1404 1997 L1436 1997 L1657 1776 Z"/><path class="fh3" d="M1625 1776 L1404 1997 L1436 1997 L1657 1776 Z" /></g><g class="o"><path transform="translate(5,10)" class="S sfv" d="M1668 1525 L1516 1677 L1516 1709 L1668 1557 Z"/><path class="fv5" d="M1668 1525 L1516 1677 L1516 1709 L1668 1557 Z" /></g><g class="o"><path transform="translate(9,18)" class="S sfh" d="M1578 1562 L1408 1732 L1552 1732 L1722 1562 Z"/><path class="fh3" d="M1578 1562 L1408 1732 L1552 1732 L1722 1562 Z" /></g><g class="o"><path transform="translate(3,6)" class="S ssh" d="M1604 1761 L1497 1868 L1533 1868 L1640 1761 Z"/><path class="sh4" d="M1604 1761 L1497 1868 L1533 1868 L1640 1761 Z" /></g><g class="o"><path transform="translate(2,4)" class="S sf" d="M1796 1041 L1570 1267 L1570 1355 L1796 1129 Z"/><path class="f3" d="M1796 1041 L1570 1267 L1570 1355 L1796 1129 Z" /></g><g class="o"><path transform="translate(2,4)" class="S sfh" d="M1494 986 L1293 1187 L1309 1187 L1510 986 Z"/><path class="fh6" d="M1494 986 L1293 1187 L1309 1187 L1510 986 Z" /></g><g class="o"><path transform="translate(6,12)" class="S ssv" d="M1143 1963 L1084 2022 L1084 2062 L1143 2003 Z"/><path class="sv4" d="M1143 1963 L1084 2022 L1084 2062 L1143 2003 Z" /></g><g class="o"><path transform="translate(9,18)" class="S sfh" d="M1568 1075 L1396 1247 L1426 1247 L1598 1075 Z"/><path class="fh1" d="M1568 1075 L1396 1247 L1426 1247 L1598 1075 Z" /></g><g class="o"><path transform="translate(3,6)" class="S ssh" d="M1121 1301 L934 1488 L946 1488 L1133 1301 Z"/><path class="sh7" d="M1121 1301 L934 1488 L946 1488 L1133 1301 Z" /></g><g class="o"><path transform="translate(9,18)" class="S ssh" d="M1049 1433 L995 1487 L1107 1487 L1161 1433 Z"/><path class="sh2" d="M1049 1433 L995 1487 L1107 1487 L1161 1433 Z" /></g><g class="o"><path transform="translate(8,16)" class="S ssv" d="M1700 1793 L1451 2042 L1451 2170 L1700 1921 Z"/><path class="sv1" d="M1700 1793 L1451 2042 L1451 2170 L1700 1921 Z" /></g><g class="o"><path transform="translate(3,6)" class="S ss" d="M1787 1799 L1572 2014 L1572 2094 L1787 1879 Z"/><path class="s1" d="M1787 1799 L1572 2014 L1572 2094 L1787 1879 Z" /></g><g class="o"><path transform="translate(6,12)" class="S ssv" d="M1775 1417 L1700 1492 L1700 1556 L1775 1481 Z"/><path class="sv4" d="M1775 1417 L1700 1492 L1700 1556 L1775 1481 Z" /></g><g class="o"><path transform="translate(3,6)" class="S sfv" d="M1065 1630 L955 1740 L955 1752 L1065 1642 Z"/><path class="fv6" d="M1065 1630 L955 1740 L955 1752 L1065 1642 Z" /></g><g class="o"><path transform="translate(2,4)" class="S sfv" d="M986 1411 L819 1578 L819 1590 L986 1423 Z"/><path class="fv7" d="M986 1411 L819 1578 L819 1590 L986 1423 Z" /></g><g class="o"><path transform="translate(3,6)" class="S sf" d="M1149 1223 L1035 1337 L1131 1337 L1245 1223 Z"/><path class="f7" d="M1149 1223 L1035 1337 L1131 1337 L1245 1223 Z" /></g><g class="o"><path transform="translate(9,18)" class="S ss" d="M980 1888 L819 2049 L819 2097 L980 1936 Z"/><path class="s1" d="M980 1888 L819 2049 L819 2097 L980 1936 Z" /></g><g class="o"><path transform="translate(8,16)" class="S sfv" d="M1514 1173 L1463 1224 L1463 1280 L1514 1229 Z"/><path class="fv7" d="M1514 1173 L1463 1224 L1463 1280 L1514 1229 Z" /></g><g class="o"><path transform="translate(7,14)" class="S sfh" d="M1672 1194 L1573 1293 L1621 1293 L1720 1194 Z"/><path class="fh6" d="M1672 1194 L1573 1293 L1621 1293 L1720 1194 Z" /></g><g class="o"><path transform="translate(5,10)" class="S sfv" d="M1042 1838 L969 1911 L969 1939 L1042 1866 Z"/><path class="fv7" d="M1042 1838 L969 1911 L969 1939 L1042 1866 Z" /></g><g class="o"><path transform="translate(8,16)" class="S sfv" d="M1884 1207 L1753 1338 L1753 1434 L1884 1303 Z"/><path class="fv5" d="M1884 1207 L1753 1338 L1753 1434 L1884 1303 Z" /></g><g class="o"><path transform="translate(8,16)" class="S ssv" d="M1714 1268 L1532 1450 L1532 1506 L1714 1324 Z"/><path class="sv7" d="M1714 1268 L1532 1450 L1532 1506 L1714 1324 Z" /></g><g class="o"><path transform="translate(8,16)" class="S sfv" d="M1550 1409 L1424 1535 L1424 1599 L1550 1473 Z"/><path class="fv4" d="M1550 1409 L1424 1535 L1424 1599 L1550 1473 Z" /></g><g class="o"><path transform="translate(7,14)" class="S ssh" d="M1267 999 L1175 1091 L1197 1091 L1289 999 Z"/><path class="sh6" d="M1267 999 L1175 1091 L1197 1091 L1289 999 Z" /></g><g class="o"><path transform="translate(3,6)" class="S sfh" d="M1567 1381 L1395 1553 L1459 1553 L1631 1381 Z"/><path class="fh7" d="M1567 1381 L1395 1553 L1459 1553 L1631 1381 Z" /></g><g class="o"><path transform="translate(4,8)" class="S sf" d="M1054 1357 L952 1459 L952 1473 L1054 1371 Z"/><path class="f7" d="M1054 1357 L952 1459 L952 1473 L1054 1371 Z" /></g><g class="o"><path transform="translate(9,18)" class="S sfv" d="M1371 1908 L1124 2155 L1124 2187 L1371 1940 Z"/><path class="fv1" d="M1371 1908 L1124 2155 L1124 2187 L1371 1940 Z" /></g><g class="o"><path transform="translate(2,4)" class="S sf" d="M1939 1032 L1806 1165 L1844 1165 L1977 1032 Z"/><path class="f5" d="M1939 1032 L1806 1165 L1844 1165 L1977 1032 Z" /></g><g class="o"><path transform="translate(5,10)" class="S ss" d="M1732 1503 L1559 1676 L1559 1710 L1732 1537 Z"/><path class="s5" d="M1732 1503 L1559 1676 L1559 1710 L1732 1537 Z" /></g><g class="o"><path transform="translate(7,14)" class="S ss" d="M2018 1009 L1907 1120 L1943 1120 L2054 1009 Z"/><path class="s1" d="M2018 1009 L1907 1120 L1943 1120 L2054 1009 Z" /></g><g class="o"><path transform="translate(4,8)" class="S sfv" d="M1218 1776 L1154 1840 L1154 1878 L1218 1814 Z"/><path class="fv2" d="M1218 1776 L1154 1840 L1154 1878 L1218 1814 Z" /></g><g class="o"><path transform="translate(8,16)" class="S ss" d="M1721 1799 L1521 1999 L1521 2021 L1721 1821 Z"/><path class="s6" d="M1721 1799 L1521 1999 L1521 2021 L1721 1821 Z" /></g><g class="o"><path transform="translate(8,16)" class="S sfv" d="M1616 1502 L1444 1674 L1444 1704 L1616 1532 Z"/><path class="fv5" d="M1616 1502 L1444 1674 L1444 1704 L1616 1532 Z" /></g><g class="o"><path transform="translate(6,12)" class="S sfv" d="M1986 1577 L1783 1780 L1783 1820 L1986 1617 Z"/><path class="fv3" d="M1986 1577 L1783 1780 L1783 1820 L1986 1617 Z" /></g><g class="o"><path transform="translate(9,18)" class="S sfh" d="M1703 1312 L1532 1483 L1620 1483 L1791 1312 Z"/><path class="fh7" d="M1703 1312 L1532 1483 L1620 1483 L1791 1312 Z" /></g><g class="o"><path transform="translate(4,8)" class="S sf" d="M1581 1562 L1385 1758 L1433 1758 L1629 1562 Z"/><path class="f1" d="M1581 1562 L1385 1758 L1433 1758 L1629 1562 Z" /></g><g class="o"><path transform="translate(7,14)" class="S sfv" d="M1675 1287 L1500 1462 L1500 1474 L1675 1299 Z"/><path class="fv7" d="M1675 1287 L1500 1462 L1500 1474 L1675 1299 Z" /></g><g class="o"><path transform="translate(3,6)" class="S sfh" d="M1605 1434 L1479 1560 L1543 1560 L1669 1434 Z"/><path class="fh6" d="M1605 1434 L1479 1560 L1543 1560 L1669 1434 Z" /></g><g class="o"><path transform="translate(4,8)" class="S sfh" d="M1371 1859 L1296 1934 L1384 1934 L1459 1859 Z"/><path class="fh7" d="M1371 1859 L1296 1934 L1384 1934 L1459 1859 Z" /></g><g class="o"><path transform="translate(4,8)" class="S sfv" d="M1919 1168 L1670 1417 L1670 1553 L1919 1304 Z"/><path class="fv5" d="M1919 1168 L1670 1417 L1670 1553 L1919 1304 Z" /></g><g class="o"><path transform="translate(2,4)" class="S sfv" d="M1866 1148 L1720 1294 L1720 1438 L1866 1292 Z"/><path class="fv3" d="M1866 1148 L1720 1294 L1720 1438 L1866 1292 Z" /></g></g><use href="#slashes" transform-origin="1500 1500" transform="rotate(180) scale(2)"/></g><rect x="1080" y="1080" width="840" height="840" stroke-width="40" class="o s7" /><use href="#slashes" transform-origin="1500 1500" transform="scale(.6)"/><use href="#slashes" transform-origin="1500 1500" transform="rotate(180) scale(.6)"/></svg>