<svg xmlns="http://www.w3.org/2000/svg" viewBox="750 750 1500 1500"><style>/*<![CDATA[*/svg{background:rgb(62,81,140);max-width:100vw;max-height:100vh}path{stroke-width:4}.o{opacity:.75}.S{opacity:.4}.sf{stroke:none;fill:black}.sfh{stroke:none;fill:url(#hs)}.sfv{stroke:none;fill:url(#vs)}.ss{stroke:black;fill:none}.ssh{stroke:url(#hs);fill:none}.ssv{stroke:url(#vs);fill:none}.s1{fill:none;stroke:rgb(48,40,64)}.f1{stroke:none;fill:rgb(48,40,64)}.sh1{fill:none;stroke:url(#h1)}.fh1{stroke:none;fill:url(#h1)}.sv1{fill:none;stroke:url(#v1)}.fv1{stroke:none;fill:url(#v1)}.s2{fill:none;stroke:rgb(128,128,128)}.f2{stroke:none;fill:rgb(128,128,128)}.sh2{fill:none;stroke:url(#h2)}.fh2{stroke:none;fill:url(#h2)}.sv2{fill:none;stroke:url(#v2)}.fv2{stroke:none;fill:url(#v2)}.s3{fill:none;stroke:rgb(34,34,34)}.f3{stroke:none;fill:rgb(34,34,34)}.sh3{fill:none;stroke:url(#h3)}.fh3{stroke:none;fill:url(#h3)}.sv3{fill:none;stroke:url(#v3)}.fv3{stroke:none;fill:url(#v3)}.s4{fill:none;stroke:rgb(31,29,89)}.f4{stroke:none;fill:rgb(31,29,89)}.sh4{fill:none;stroke:url(#h4)}.fh4{stroke:none;fill:url(#h4)}.sv4{fill:none;stroke:url(#v4)}.fv4{stroke:none;fill:url(#v4)}.s5{fill:none;stroke:rgb(221,221,221)}.f5{stroke:none;fill:rgb(221,221,221)}.sh5{fill:none;stroke:url(#h5)}.fh5{stroke:none;fill:url(#h5)}.sv5{fill:none;stroke:url(#v5)}.fv5{stroke:none;fill:url(#v5)}.s6{fill:none;stroke:rgb(255,255,255)}.f6{stroke:none;fill:rgb(255,255,255)}.sh6{fill:none;stroke:url(#h6)}.fh6{stroke:none;fill:url(#h6)}.sv6{fill:none;stroke:url(#v6)}.fv6{stroke:none;fill:url(#v6)}.s7{fill:none;stroke:rgb(255,255,0)}.f7{stroke:none;fill:rgb(255,255,0)}.sh7{fill:none;stroke:url(#h7)}.fh7{stroke:none;fill:url(#h7)}.sv7{fill:none;stroke:url(#v7)}.fv7{stroke:none;fill:url(#v7)}/*]]>*/</style><defs><linearGradient gradientTransform="rotate(90)" id="hs"><stop offset="20%" stop-color="#000" /><stop offset="95%" stop-color="rgba(0, 0, 0, 0)" /></linearGradient><linearGradient id="vs"><stop offset="20%" stop-color="#000" /><stop offset="95%" stop-color="rgba(0, 0, 0, 0)" /></linearGradient><linearGradient gradientTransform="rotate(90)" id="h1"><stop offset="20%" stop-color="rgba(48,40,64,1)" /><stop offset="95%" stop-color="rgba(48,40,64,0)" /></linearGradient><linearGradient id="v1"><stop offset="20%" stop-color="rgba(48,40,64,1)" /><stop offset="95%" stop-color="rgba(48,40,64,0)" /></linearGradient><linearGradient gradientTransform="rotate(90)" id="h2"><stop offset="20%" stop-color="rgba(128,128,128,1)" /><stop offset="95%" stop-color="rgba(128,128,128,0)" /></linearGradient><linearGradient id="v2"><stop offset="20%" stop-color="rgba(128,128,128,1)" /><stop offset="95%" stop-color="rgba(128,128,128,0)" /></linearGradient><linearGradient gradientTransform="rotate(90)" id="h3"><stop offset="20%" stop-color="rgba(34,34,34,1)" /><stop offset="95%" stop-color="rgba(34,34,34,0)" /></linearGradient><linearGradient id="v3"><stop offset="20%" stop-color="rgba(34,34,34,1)" /><stop offset="95%" stop-color="rgba(34,34,34,0)" /></linearGradient><linearGradient gradientTransform="rotate(90)" id="h4"><stop offset="20%" stop-color="rgba(31,29,89,1)" /><stop offset="95%" stop-color="rgba(31,29,89,0)" /></linearGradient><linearGradient id="v4"><stop offset="20%" stop-color="rgba(31,29,89,1)" /><stop offset="95%" stop-color="rgba(31,29,89,0)" /></linearGradient><linearGradient gradientTransform="rotate(90)" id="h5"><stop offset="20%" stop-color="rgba(221,221,221,1)" /><stop offset="95%" stop-color="rgba(221,221,221,0)" /></linearGradient><linearGradient id="v5"><stop offset="20%" stop-color="rgba(221,221,221,1)" /><stop offset="95%" stop-color="rgba(221,221,221,0)" /></linearGradient><linearGradient gradientTransform="rotate(90)" id="h6"><stop offset="20%" stop-color="rgba(255,255,255,1)" /><stop offset="95%" stop-color="rgba(255,255,255,0)" /></linearGradient><linearGradient id="v6"><stop offset="20%" stop-color="rgba(255,255,255,1)" /><stop offset="95%" stop-color="rgba(255,255,255,0)" /></linearGradient><linearGradient gradientTransform="rotate(90)" id="h7"><stop offset="20%" stop-color="rgba(255,255,0,1)" /><stop offset="95%" stop-color="rgba(255,255,0,0)" /></linearGradient><linearGradient id="v7"><stop offset="20%" stop-color="rgba(255,255,0,1)" /><stop offset="95%" stop-color="rgba(255,255,0,0)" /></linearGradient></defs><g transform-origin="1500 1500" transform="scale(2)" opacity=".2"><g id="slashes"><g class="o"><path transform="translate(6,12)" class="S ssv" d="M1742 1098 L1908 1264 L1908 1272 L1742 1106 Z"/><path class="sv4" d="M1742 1098 L1908 1264 L1908 1272 L1742 1106 Z" /></g><g class="o"><path transform="translate(6,12)" class="S sf" d="M2002 1779 L2157 1624 L2221 1624 L2066 1779 Z"/><path class="f3" d="M2002 1779 L2157 1624 L2221 1624 L2066 1779 Z" /></g><g class="o"><path transform="translate(8,16)" class="S sfh" d="M1590 1646 L2001 2057 L2035 2057 L1624 1646 Z"/><path class="fh5" d="M1590 1646 L2001 2057 L2035 2057 L1624 1646 Z" /></g><g class="o"><path transform="translate(2,4)" class="S sfh" d="M1451 1407 L1622 1236 L1734 1236 L1563 1407 Z"/><path class="fh3" d="M1451 1407 L1622 1236 L1734 1236 L1563 1407 Z" /></g><g class="o"><path transform="translate(8,16)" class="S sf" d="M1350 1530 L1587 1767 L1615 1767 L1378 1530 Z"/><path class="f7" d="M1350 1530 L1587 1767 L1615 1767 L1378 1530 Z" /></g><g class="o"><path transform="translate(5,10)" class="S sfv" d="M1899 1078 L2077 1256 L2077 1294 L1899 1116 Z"/><path class="fv7" d="M1899 1078 L2077 1256 L2077 1294 L1899 1116 Z" /></g><g class="o"><path transform="translate(3,6)" class="S sfh" d="M1877 1021 L2018 880 L2106 880 L1965 1021 Z"/><path class="fh3" d="M1877 1021 L2018 880 L2106 880 L1965 1021 Z" /></g><g class="o"><path transform="translate(3,6)" class="S sfh" d="M1839 1024 L1936 927 L1968 927 L1871 1024 Z"/><path class="fh4" d="M1839 1024 L1936 927 L1968 927 L1871 1024 Z" /></g><g class="o"><path transform="translate(2,4)" class="S ssv" d="M1440 1318 L1725 1033 L1725 1061 L1440 1346 Z"/><path class="sv6" d="M1440 1318 L1725 1033 L1725 1061 L1440 1346 Z" /></g><g class="o"><path transform="translate(2,4)" class="S sfh" d="M1196 1851 L1412 1635 L1428 1635 L1212 1851 Z"/><path class="fh5" d="M1196 1851 L1412 1635 L1428 1635 L1212 1851 Z" /></g><g class="o"><path transform="translate(5,10)" class="S sfv" d="M1149 1326 L1370 1547 L1370 1559 L1149 1338 Z"/><path class="fv1" d="M1149 1326 L1370 1547 L1370 1559 L1149 1338 Z" /></g><g class="o"><path transform="translate(9,18)" class="S ss" d="M2015 1269 L2188 1096 L2188 1132 L2015 1305 Z"/><path class="s6" d="M2015 1269 L2188 1096 L2188 1132 L2015 1305 Z" /></g><g class="o"><path transform="translate(8,16)" class="S ss" d="M1537 1349 L1599 1411 L1613 1411 L1551 1349 Z"/><path class="s4" d="M1537 1349 L1599 1411 L1613 1411 L1551 1349 Z" /></g><g class="o"><path transform="translate(4,8)" class="S ss" d="M1289 1790 L1440 1941 L1576 1941 L1425 1790 Z"/><path class="s3" d="M1289 1790 L1440 1941 L1576 1941 L1425 1790 Z" /></g><g class="o"><path transform="translate(6,12)" class="S sfh" d="M1993 1614 L2182 1425 L2190 1425 L2001 1614 Z"/><path class="fh5" d="M1993 1614 L2182 1425 L2190 1425 L2001 1614 Z" /></g><g class="o"><path transform="translate(2,4)" class="S sf" d="M1949 1697 L2001 1645 L2073 1645 L2021 1697 Z"/><path class="f5" d="M1949 1697 L2001 1645 L2073 1645 L2021 1697 Z" /></g><g class="o"><path transform="translate(5,10)" class="S sf" d="M1868 1671 L1953 1586 L1953 1698 L1868 1783 Z"/><path class="f6" d="M1868 1671 L1953 1586 L1953 1698 L1868 1783 Z" /></g><g class="o"><path transform="translate(7,14)" class="S sfh" d="M1974 1643 L2304 1973 L2408 1973 L2078 1643 Z"/><path class="fh6" d="M1974 1643 L2304 1973 L2408 1973 L2078 1643 Z" /></g><g class="o"><path transform="translate(3,6)" class="S sfh" d="M1579 1409 L1773 1215 L1909 1215 L1715 1409 Z"/><path class="fh4" d="M1579 1409 L1773 1215 L1909 1215 L1715 1409 Z" /></g><g class="o"><path transform="translate(6,12)" class="S sfh" d="M1202 1451 L1327 1326 L1407 1326 L1282 1451 Z"/><path class="fh4" d="M1202 1451 L1327 1326 L1407 1326 L1282 1451 Z" /></g><g class="o"><path transform="translate(7,14)" class="S sfh" d="M1368 1243 L1499 1112 L1539 1112 L1408 1243 Z"/><path class="fh6" d="M1368 1243 L1499 1112 L1539 1112 L1408 1243 Z" /></g><g class="o"><path transform="translate(9,18)" class="S sf" d="M1618 1994 L1969 2345 L1969 2355 L1618 2004 Z"/><path class="f3" d="M1618 1994 L1969 2345 L1969 2355 L1618 2004 Z" /></g><g class="o"><path transform="translate(5,10)" class="S sfv" d="M1460 1162 L1655 1357 L1655 1393 L1460 1198 Z"/><path class="fv5" d="M1460 1162 L1655 1357 L1655 1393 L1460 1198 Z" /></g><g class="o"><path transform="translate(7,14)" class="S sfv" d="M1695 1500 L1767 1572 L1767 1588 L1695 1516 Z"/><path class="fv7" d="M1695 1500 L1767 1572 L1767 1588 L1695 1516 Z" /></g><g class="o"><path transform="translate(8,16)" class="S sf" d="M2039 1874 L2256 1657 L2256 1729 L2039 1946 Z"/><path class="f2" d="M2039 1874 L2256 1657 L2256 1729 L2039 1946 Z" /></g><g class="o"><path transform="translate(8,16)" class="S sfv" d="M1198 985 L1431 1218 L1431 1254 L1198 1021 Z"/><path class="fv2" d="M1198 985 L1431 1218 L1431 1254 L1198 1021 Z" /></g><g class="o"><path transform="translate(5,10)" class="S sf" d="M1948 1194 L2140 1386 L2236 1386 L2044 1194 Z"/><path class="f4" d="M1948 1194 L2140 1386 L2236 1386 L2044 1194 Z" /></g><g class="o"><path transform="translate(3,6)" class="S sf" d="M1645 1414 L2353 706 L2373 706 L1665 1414 Z"/><path class="f7" d="M1645 1414 L2353 706 L2373 706 L1665 1414 Z" /></g><g class="o"><path transform="translate(2,4)" class="S ssv" d="M1898 1106 L2053 951 L2053 1095 L1898 1250 Z"/><path class="sv3" d="M1898 1106 L2053 951 L2053 1095 L1898 1250 Z" /></g><g class="o"><path transform="translate(3,6)" class="S sfh" d="M1374 1065 L1553 886 L1689 886 L1510 1065 Z"/><path class="fh5" d="M1374 1065 L1553 886 L1689 886 L1510 1065 Z" /></g><g class="o"><path transform="translate(9,18)" class="S sf" d="M1430 1794 L1558 1922 L1606 1922 L1478 1794 Z"/><path class="f1" d="M1430 1794 L1558 1922 L1606 1922 L1478 1794 Z" /></g><g class="o"><path transform="translate(4,8)" class="S sfv" d="M1043 1199 L1250 992 L1250 1016 L1043 1223 Z"/><path class="fv6" d="M1043 1199 L1250 992 L1250 1016 L1043 1223 Z" /></g><g class="o"><path transform="translate(8,16)" class="S sfv" d="M1898 1421 L2130 1189 L2130 1333 L1898 1565 Z"/><path class="fv6" d="M1898 1421 L2130 1189 L2130 1333 L1898 1565 Z" /></g><g class="o"><path transform="translate(9,18)" class="S sfv" d="M1900 1752 L1985 1837 L1985 1851 L1900 1766 Z"/><path class="fv7" d="M1900 1752 L1985 1837 L1985 1851 L1900 1766 Z" /></g><g class="o"><path transform="translate(4,8)" class="S sfv" d="M1169 1426 L1338 1257 L1338 1289 L1169 1458 Z"/><path class="fv2" d="M1169 1426 L1338 1257 L1338 1289 L1169 1458 Z" /></g><g class="o"><path transform="translate(5,10)" class="S sfh" d="M1920 1613 L2137 1830 L2281 1830 L2064 1613 Z"/><path class="fh6" d="M1920 1613 L2137 1830 L2281 1830 L2064 1613 Z" /></g><g class="o"><path transform="translate(7,14)" class="S sfh" d="M1697 1400 L1913 1184 L2065 1184 L1849 1400 Z"/><path class="fh2" d="M1697 1400 L1913 1184 L2065 1184 L1849 1400 Z" /></g><g class="o"><path transform="translate(2,4)" class="S sfh" d="M1146 1288 L1315 1457 L1371 1457 L1202 1288 Z"/><path class="fh6" d="M1146 1288 L1315 1457 L1371 1457 L1202 1288 Z" /></g><g class="o"><path transform="translate(6,12)" class="S sfv" d="M1160 1940 L1321 1779 L1321 1811 L1160 1972 Z"/><path class="fv3" d="M1160 1940 L1321 1779 L1321 1811 L1160 1972 Z" /></g><g class="o"><path transform="translate(5,10)" class="S sfh" d="M1160 1335 L1404 1579 L1422 1579 L1178 1335 Z"/><path class="fh6" d="M1160 1335 L1404 1579 L1422 1579 L1178 1335 Z" /></g><g class="o"><path transform="translate(5,10)" class="S ssh" d="M1460 1584 L1684 1808 L1700 1808 L1476 1584 Z"/><path class="sh3" d="M1460 1584 L1684 1808 L1700 1808 L1476 1584 Z" /></g><g class="o"><path transform="translate(5,10)" class="S sfv" d="M1525 1382 L1627 1484 L1627 1564 L1525 1462 Z"/><path class="fv1" d="M1525 1382 L1627 1484 L1627 1564 L1525 1462 Z" /></g><g class="o"><path transform="translate(8,16)" class="S sfv" d="M1909 1089 L2018 980 L2018 1084 L1909 1193 Z"/><path class="fv6" d="M1909 1089 L2018 980 L2018 1084 L1909 1193 Z" /></g><g class="o"><path transform="translate(5,10)" class="S ssh" d="M1772 959 L2015 1202 L2027 1202 L1784 959 Z"/><path class="sh6" d="M1772 959 L2015 1202 L2027 1202 L1784 959 Z" /></g><g class="o"><path transform="translate(5,10)" class="S ss" d="M1498 1868 L1594 1772 L1630 1772 L1534 1868 Z"/><path class="s7" d="M1498 1868 L1594 1772 L1630 1772 L1534 1868 Z" /></g><g class="o"><path transform="translate(8,16)" class="S sfv" d="M1840 1320 L1978 1182 L1978 1334 L1840 1472 Z"/><path class="fv3" d="M1840 1320 L1978 1182 L1978 1334 L1840 1472 Z" /></g><g class="o"><path transform="translate(9,18)" class="S sfh" d="M1871 1898 L2103 2130 L2239 2130 L2007 1898 Z"/><path class="fh2" d="M1871 1898 L2103 2130 L2239 2130 L2007 1898 Z" /></g><g class="o"><path transform="translate(2,4)" class="S ssv" d="M1873 2001 L2089 2217 L2089 2225 L1873 2009 Z"/><path class="sv6" d="M1873 2001 L2089 2217 L2089 2225 L1873 2009 Z" /></g><g class="o"><path transform="translate(3,6)" class="S ssv" d="M1371 1812 L1605 1578 L1605 1598 L1371 1832 Z"/><path class="sv3" d="M1371 1812 L1605 1578 L1605 1598 L1371 1832 Z" /></g><g class="o"><path transform="translate(3,6)" class="S sf" d="M1075 1777 L1444 1408 L1462 1408 L1093 1777 Z"/><path class="f5" d="M1075 1777 L1444 1408 L1462 1408 L1093 1777 Z" /></g><g class="o"><path transform="translate(2,4)" class="S ss" d="M1925 1023 L2093 1191 L2115 1191 L1947 1023 Z"/><path class="s3" d="M1925 1023 L2093 1191 L2115 1191 L1947 1023 Z" /></g><g class="o"><path transform="translate(4,8)" class="S sf" d="M1797 1943 L1877 1863 L1877 1895 L1797 1975 Z"/><path class="f4" d="M1797 1943 L1877 1863 L1877 1895 L1797 1975 Z" /></g><g class="o"><path transform="translate(9,18)" class="S sfh" d="M1898 1193 L2040 1335 L2152 1335 L2010 1193 Z"/><path class="fh2" d="M1898 1193 L2040 1335 L2152 1335 L2010 1193 Z" /></g><g class="o"><path transform="translate(7,14)" class="S sfh" d="M1187 1803 L1250 1740 L1282 1740 L1219 1803 Z"/><path class="fh3" d="M1187 1803 L1250 1740 L1282 1740 L1219 1803 Z" /></g><g class="o"><path transform="translate(9,18)" class="S sf" d="M1186 972 L1385 773 L1385 885 L1186 1084 Z"/><path class="f7" d="M1186 972 L1385 773 L1385 885 L1186 1084 Z" /></g><g class="o"><path transform="translate(6,12)" class="S sfh" d="M1622 1792 L1857 1557 L1891 1557 L1656 1792 Z"/><path class="fh2" d="M1622 1792 L1857 1557 L1891 1557 L1656 1792 Z" /></g><g class="o"><path transform="translate(7,14)" class="S sf" d="M1796 1770 L1984 1582 L2004 1582 L1816 1770 Z"/><path class="f4" d="M1796 1770 L1984 1582 L2004 1582 L1816 1770 Z" /></g><g class="o"><path transform="translate(8,16)" class="S sfh" d="M1962 1295 L2322 935 L2354 935 L1994 1295 Z"/><path class="fh7" d="M1962 1295 L2322 935 L2354 935 L1994 1295 Z" /></g><g class="o"><path transform="translate(4,8)" class="S sfh" d="M1304 1232 L1673 863 L1705 863 L1336 1232 Z"/><path class="fh5" d="M1304 1232 L1673 863 L1705 863 L1336 1232 Z" /></g><g class="o"><path transform="translate(3,6)" class="S ssv" d="M966 1534 L1069 1637 L1069 1673 L966 1570 Z"/><path class="sv7" d="M966 1534 L1069 1637 L1069 1673 L966 1570 Z" /></g><g class="o"><path transform="translate(9,18)" class="S ssv" d="M1884 944 L2102 1162 L2102 1290 L1884 1072 Z"/><path class="sv5" d="M1884 944 L2102 1162 L2102 1290 L1884 1072 Z" /></g><g class="o"><path transform="translate(2,4)" class="S sfv" d="M1527 1013 L2010 1496 L2010 1592 L1527 1109 Z"/><path class="fv3" d="M1527 1013 L2010 1496 L2010 1592 L1527 1109 Z" /></g><g class="o"><path transform="translate(6,12)" class="S sfv" d="M1925 1606 L2543 2224 L2543 2328 L1925 1710 Z"/><path class="fv3" d="M1925 1606 L2543 2224 L2543 2328 L1925 1710 Z" /></g><g class="o"><path transform="translate(8,16)" class="S ssh" d="M1727 2039 L1969 1797 L2065 1797 L1823 2039 Z"/><path class="sh5" d="M1727 2039 L1969 1797 L2065 1797 L1823 2039 Z" /></g><g class="o"><path transform="translate(3,6)" class="S sfv" d="M1042 1588 L1177 1453 L1177 1465 L1042 1600 Z"/><path class="fv5" d="M1042 1588 L1177 1453 L1177 1465 L1042 1600 Z" /></g><g class="o"><path transform="translate(7,14)" class="S ssh" d="M1539 2041 L1667 2169 L1699 2169 L1571 2041 Z"/><path class="sh2" d="M1539 2041 L1667 2169 L1699 2169 L1571 2041 Z" /></g><g class="o"><path transform="translate(5,10)" class="S sfh" d="M1316 1085 L1535 866 L1557 866 L1338 1085 Z"/><path class="fh7" d="M1316 1085 L1535 866 L1557 866 L1338 1085 Z" /></g><g class="o"><path transform="translate(9,18)" class="S sf" d="M1957 1968 L2018 1907 L2040 1907 L1979 1968 Z"/><path class="f2" d="M1957 1968 L2018 1907 L2040 1907 L1979 1968 Z" /></g><g class="o"><path transform="translate(6,12)" class="S sf" d="M1219 1639 L1452 1406 L1452 1438 L1219 1671 Z"/><path class="f1" d="M1219 1639 L1452 1406 L1452 1438 L1219 1671 Z" /></g><g class="o"><path transform="translate(8,16)" class="S ssv" d="M1753 1649 L1954 1448 L1954 1480 L1753 1681 Z"/><path class="sv1" d="M1753 1649 L1954 1448 L1954 1480 L1753 1681 Z" /></g><g class="o"><path transform="translate(4,8)" class="S sfh" d="M1043 1187 L1116 1260 L1140 1260 L1067 1187 Z"/><path class="fh5" d="M1043 1187 L1116 1260 L1140 1260 L1067 1187 Z" /></g><g class="o"><path transform="translate(2,4)" class="S sfh" d="M1386 1967 L2013 2594 L2025 2594 L1398 1967 Z"/><path class="fh5" d="M1386 1967 L2013 2594 L2025 2594 L1398 1967 Z" /></g><g class="o"><path transform="translate(7,14)" class="S sfh" d="M1928 1450 L2189 1189 L2219 1189 L1958 1450 Z"/><path class="fh5" d="M1928 1450 L2189 1189 L2219 1189 L1958 1450 Z" /></g><g class="o"><path transform="translate(2,4)" class="S sfv" d="M1496 1843 L1586 1753 L1586 1761 L1496 1851 Z"/><path class="fv7" d="M1496 1843 L1586 1753 L1586 1761 L1496 1851 Z" /></g><g class="o"><path transform="translate(8,16)" class="S sf" d="M1210 1534 L1347 1671 L1347 1711 L1210 1574 Z"/><path class="f2" d="M1210 1534 L1347 1671 L1347 1711 L1210 1574 Z" /></g><g class="o"><path transform="translate(6,12)" class="S ssv" d="M1860 1933 L2115 1678 L2115 1700 L1860 1955 Z"/><path class="sv2" d="M1860 1933 L2115 1678 L2115 1700 L1860 1955 Z" /></g><g class="o"><path transform="translate(2,4)" class="S ssh" d="M1254 1544 L1382 1416 L1398 1416 L1270 1544 Z"/><path class="sh7" d="M1254 1544 L1382 1416 L1398 1416 L1270 1544 Z" /></g><g class="o"><path transform="translate(6,12)" class="S sfh" d="M1345 1329 L1401 1273 L1417 1273 L1361 1329 Z"/><path class="fh1" d="M1345 1329 L1401 1273 L1417 1273 L1361 1329 Z" /></g><g class="o"><path transform="translate(8,16)" class="S sfv" d="M1794 1699 L1863 1768 L1863 1802 L1794 1733 Z"/><path class="fv4" d="M1794 1699 L1863 1768 L1863 1802 L1794 1733 Z" /></g><g class="o"><path transform="translate(7,14)" class="S ss" d="M2022 1750 L2181 1909 L2205 1909 L2046 1750 Z"/><path class="s5" d="M2022 1750 L2181 1909 L2205 1909 L2046 1750 Z" /></g><g class="o"><path transform="translate(3,6)" class="S sfh" d="M1400 1399 L2021 778 L2043 778 L1422 1399 Z"/><path class="fh1" d="M1400 1399 L2021 778 L2043 778 L1422 1399 Z" /></g><g class="o"><path transform="translate(9,18)" class="S ssv" d="M2001 1365 L2070 1434 L2070 1442 L2001 1373 Z"/><path class="sv4" d="M2001 1365 L2070 1434 L2070 1442 L2001 1373 Z" /></g><g class="o"><path transform="translate(3,6)" class="S sf" d="M911 1732 L971 1792 L1059 1792 L999 1732 Z"/><path class="f3" d="M911 1732 L971 1792 L1059 1792 L999 1732 Z" /></g><g class="o"><path transform="translate(4,8)" class="S ss" d="M1187 1860 L1388 1659 L1388 1689 L1187 1890 Z"/><path class="s7" d="M1187 1860 L1388 1659 L1388 1689 L1187 1890 Z" /></g><g class="o"><path transform="translate(4,8)" class="S sfh" d="M1200 1028 L1305 923 L1333 923 L1228 1028 Z"/><path class="fh1" d="M1200 1028 L1305 923 L1333 923 L1228 1028 Z" /></g><g class="o"><path transform="translate(8,16)" class="S sfh" d="M1761 1858 L1885 1734 L1923 1734 L1799 1858 Z"/><path class="fh6" d="M1761 1858 L1885 1734 L1923 1734 L1799 1858 Z" /></g><g class="o"><path transform="translate(9,18)" class="S sfv" d="M1194 2003 L1417 1780 L1417 1798 L1194 2021 Z"/><path class="fv1" d="M1194 2003 L1417 1780 L1417 1798 L1194 2021 Z" /></g><g class="o"><path transform="translate(6,12)" class="S sfv" d="M1903 1274 L2068 1439 L2068 1471 L1903 1306 Z"/><path class="fv6" d="M1903 1274 L2068 1439 L2068 1471 L1903 1306 Z" /></g><g class="o"><path transform="translate(6,12)" class="S sfh" d="M913 1186 L994 1267 L1106 1267 L1025 1186 Z"/><path class="fh6" d="M913 1186 L994 1267 L1106 1267 L1025 1186 Z" /></g><g class="o"><path transform="translate(7,14)" class="S sf" d="M1725 1023 L1782 1080 L1820 1080 L1763 1023 Z"/><path class="f5" d="M1725 1023 L1782 1080 L1820 1080 L1763 1023 Z" /></g><g class="o"><path transform="translate(8,16)" class="S sf" d="M953 1217 L1188 1452 L1196 1452 L961 1217 Z"/><path class="f3" d="M953 1217 L1188 1452 L1196 1452 L961 1217 Z" /></g><g class="o"><path transform="translate(7,14)" class="S sf" d="M1190 1285 L1445 1540 L1533 1540 L1278 1285 Z"/><path class="f5" d="M1190 1285 L1445 1540 L1533 1540 L1278 1285 Z" /></g><g class="o"><path transform="translate(8,16)" class="S sf" d="M1916 1460 L2134 1242 L2166 1242 L1948 1460 Z"/><path class="f4" d="M1916 1460 L2134 1242 L2166 1242 L1948 1460 Z" /></g><g class="o"><path transform="translate(8,16)" class="S sf" d="M1884 1548 L1968 1464 L2088 1464 L2004 1548 Z"/><path class="f3" d="M1884 1548 L1968 1464 L2088 1464 L2004 1548 Z" /></g><g class="o"><path transform="translate(6,12)" class="S sfh" d="M2018 1833 L2681 1170 L2693 1170 L2030 1833 Z"/><path class="fh6" d="M2018 1833 L2681 1170 L2693 1170 L2030 1833 Z" /></g><g class="o"><path transform="translate(8,16)" class="S sfv" d="M1815 1614 L1882 1681 L1882 1793 L1815 1726 Z"/><path class="fv3" d="M1815 1614 L1882 1681 L1882 1793 L1815 1726 Z" /></g><g class="o"><path transform="translate(3,6)" class="S sfh" d="M1976 1127 L2061 1212 L2117 1212 L2032 1127 Z"/><path class="fh6" d="M1976 1127 L2061 1212 L2117 1212 L2032 1127 Z" /></g><g class="o"><path transform="translate(5,10)" class="S ssv" d="M1675 1376 L2092 1793 L2092 1825 L1675 1408 Z"/><path class="sv3" d="M1675 1376 L2092 1793 L2092 1825 L1675 1408 Z" /></g><g class="o"><path transform="translate(5,10)" class="S ssv" d="M1210 1265 L1288 1187 L1288 1323 L1210 1401 Z"/><path class="sv4" d="M1210 1265 L1288 1187 L1288 1323 L1210 1401 Z" /></g><g class="o"><path transform="translate(2,4)" class="S sfv" d="M1988 1498 L2112 1622 L2112 1640 L1988 1516 Z"/><path class="fv1" d="M1988 1498 L2112 1622 L2112 1640 L1988 1516 Z" /></g><g class="o"><path transform="translate(5,10)" class="S sfh" d="M1782 1999 L1882 1899 L1898 1899 L1798 1999 Z"/><path class="fh7" d="M1782 1999 L1882 1899 L1898 1899 L1798 1999 Z" /></g><g class="o"><path transform="translate(3,6)" class="S sfv" d="M1567 1744 L1771 1948 L1771 2068 L1567 1864 Z"/><path class="fv1" d="M1567 1744 L1771 1948 L1771 2068 L1567 1864 Z" /></g><g class="o"><path transform="translate(5,10)" class="S sf" d="M1326 1271 L1659 1604 L1659 1624 L1326 1291 Z"/><path class="f1" d="M1326 1271 L1659 1604 L1659 1624 L1326 1291 Z" /></g><g class="o"><path transform="translate(3,6)" class="S sf" d="M1274 1756 L1480 1550 L1624 1550 L1418 1756 Z"/><path class="f2" d="M1274 1756 L1480 1550 L1624 1550 L1418 1756 Z" /></g><g class="o"><path transform="translate(5,10)" class="S ssh" d="M1065 1334 L1275 1124 L1309 1124 L1099 1334 Z"/><path class="sh1" d="M1065 1334 L1275 1124 L1309 1124 L1099 1334 Z" /></g><g class="o"><path transform="translate(7,14)" class="S sf" d="M1487 1224 L1649 1386 L1649 1412 L1487 1250 Z"/><path class="f5" d="M1487 1224 L1649 1386 L1649 1412 L1487 1250 Z" /></g><g class="o"><path transform="translate(3,6)" class="S sf" d="M1508 1260 L1587 1339 L1587 1367 L1508 1288 Z"/><path class="f1" d="M1508 1260 L1587 1339 L1587 1367 L1508 1288 Z" /></g><g class="o"><path transform="translate(6,12)" class="S sf" d="M1812 1442 L2004 1634 L2034 1634 L1842 1442 Z"/><path class="f1" d="M1812 1442 L2004 1634 L2034 1634 L1842 1442 Z" /></g><g class="o"><path transform="translate(5,10)" class="S ssv" d="M1642 1047 L1833 1238 L1833 1358 L1642 1167 Z"/><path class="sv2" d="M1642 1047 L1833 1238 L1833 1358 L1642 1167 Z" /></g><g class="o"><path transform="translate(2,4)" class="S ssh" d="M1576 1983 L1637 1922 L1651 1922 L1590 1983 Z"/><path class="sh1" d="M1576 1983 L1637 1922 L1651 1922 L1590 1983 Z" /></g><g class="o"><path transform="translate(5,10)" class="S sfh" d="M1225 1273 L1405 1093 L1419 1093 L1239 1273 Z"/><path class="fh5" d="M1225 1273 L1405 1093 L1419 1093 L1239 1273 Z" /></g><g class="o"><path transform="translate(7,14)" class="S sf" d="M1605 1385 L1710 1490 L1814 1490 L1709 1385 Z"/><path class="f6" d="M1605 1385 L1710 1490 L1814 1490 L1709 1385 Z" /></g><g class="o"><path transform="translate(3,6)" class="S sfv" d="M1366 1394 L1578 1182 L1578 1214 L1366 1426 Z"/><path class="fv7" d="M1366 1394 L1578 1182 L1578 1214 L1366 1426 Z" /></g><g class="o"><path transform="translate(6,12)" class="S sfv" d="M1721 1844 L1917 1648 L1917 1792 L1721 1988 Z"/><path class="fv6" d="M1721 1844 L1917 1648 L1917 1792 L1721 1988 Z" /></g><g class="o"><path transform="translate(8,16)" class="S ss" d="M1984 1941 L2503 1422 L2503 1438 L1984 1957 Z"/><path class="s3" d="M1984 1941 L2503 1422 L2503 1438 L1984 1957 Z" /></g><g class="o"><path transform="translate(5,10)" class="S sfv" d="M1773 1050 L1964 859 L1964 891 L1773 1082 Z"/><path class="fv6" d="M1773 1050 L1964 859 L1964 891 L1773 1082 Z" /></g><g class="o"><path transform="translate(5,10)" class="S sf" d="M1654 1668 L1839 1853 L1839 1997 L1654 1812 Z"/><path class="f3" d="M1654 1668 L1839 1853 L1839 1997 L1654 1812 Z" /></g><g class="o"><path transform="translate(2,4)" class="S sf" d="M1928 993 L1983 1048 L2003 1048 L1948 993 Z"/><path class="f1" d="M1928 993 L1983 1048 L2003 1048 L1948 993 Z" /></g><g class="o"><path transform="translate(9,18)" class="S sfh" d="M1886 1020 L1961 1095 L2001 1095 L1926 1020 Z"/><path class="fh6" d="M1886 1020 L1961 1095 L2001 1095 L1926 1020 Z" /></g><g class="o"><path transform="translate(8,16)" class="S sfv" d="M1830 1326 L1939 1435 L1939 1449 L1830 1340 Z"/><path class="fv1" d="M1830 1326 L1939 1435 L1939 1449 L1830 1340 Z" /></g><g class="o"><path transform="translate(2,4)" class="S sf" d="M1629 1436 L1772 1293 L1772 1315 L1629 1458 Z"/><path class="f4" d="M1629 1436 L1772 1293 L1772 1315 L1629 1458 Z" /></g><g class="o"><path transform="translate(5,10)" class="S ssv" d="M1841 1287 L1913 1359 L1913 1415 L1841 1343 Z"/><path class="sv4" d="M1841 1287 L1913 1359 L1913 1415 L1841 1343 Z" /></g><g class="o"><path transform="translate(7,14)" class="S sfh" d="M1501 1942 L1744 1699 L1832 1699 L1589 1942 Z"/><path class="fh4" d="M1501 1942 L1744 1699 L1832 1699 L1589 1942 Z" /></g><g class="o"><path transform="translate(9,18)" class="S sfv" d="M1591 1038 L1686 943 L1686 1095 L1591 1190 Z"/><path class="fv1" d="M1591 1038 L1686 943 L1686 1095 L1591 1190 Z" /></g><g class="o"><path transform="translate(5,10)" class="S ssv" d="M1829 1523 L2015 1709 L2015 1723 L1829 1537 Z"/><path class="sv7" d="M1829 1523 L2015 1709 L2015 1723 L1829 1537 Z" /></g><g class="o"><path transform="translate(9,18)" class="S ssv" d="M2048 1429 L2678 799 L2678 871 L2048 1501 Z"/><path class="sv3" d="M2048 1429 L2678 799 L2678 871 L2048 1501 Z" /></g><g class="o"><path transform="translate(4,8)" class="S sfv" d="M1820 1960 L2037 2177 L2037 2191 L1820 1974 Z"/><path class="fv2" d="M1820 1960 L2037 2177 L2037 2191 L1820 1974 Z" /></g><g class="o"><path transform="translate(3,6)" class="S sfv" d="M1298 1264 L1406 1372 L1406 1452 L1298 1344 Z"/><path class="fv1" d="M1298 1264 L1406 1372 L1406 1452 L1298 1344 Z" /></g><g class="o"><path transform="translate(4,8)" class="S sfv" d="M1491 1680 L1729 1918 L1729 1936 L1491 1698 Z"/><path class="fv5" d="M1491 1680 L1729 1918 L1729 1936 L1491 1698 Z" /></g><g class="o"><path transform="translate(6,12)" class="S sfv" d="M1607 1051 L1683 1127 L1683 1159 L1607 1083 Z"/><path class="fv5" d="M1607 1051 L1683 1127 L1683 1159 L1607 1083 Z" /></g><g class="o"><path transform="translate(6,12)" class="S sfh" d="M1556 1833 L1689 1966 L1707 1966 L1574 1833 Z"/><path class="fh2" d="M1556 1833 L1689 1966 L1707 1966 L1574 1833 Z" /></g><g class="o"><path transform="translate(4,8)" class="S ssv" d="M1324 1883 L1475 1732 L1475 1742 L1324 1893 Z"/><path class="sv3" d="M1324 1883 L1475 1732 L1475 1742 L1324 1893 Z" /></g><g class="o"><path transform="translate(2,4)" class="S ssv" d="M1049 1838 L1294 2083 L1294 2111 L1049 1866 Z"/><path class="sv5" d="M1049 1838 L1294 2083 L1294 2111 L1049 1866 Z" /></g><g class="o"><path transform="translate(7,14)" class="S ss" d="M1740 1700 L1893 1547 L1893 1575 L1740 1728 Z"/><path class="s2" d="M1740 1700 L1893 1547 L1893 1575 L1740 1728 Z" /></g><g class="o"><path transform="translate(2,4)" class="S sfh" d="M2035 1529 L2150 1644 L2158 1644 L2043 1529 Z"/><path class="fh6" d="M2035 1529 L2150 1644 L2158 1644 L2043 1529 Z" /></g><g class="o"><path transform="translate(4,8)" class="S sf" d="M1912 1290 L2122 1080 L2132 1080 L1922 1290 Z"/><path class="f5" d="M1912 1290 L2122 1080 L2132 1080 L1922 1290 Z" /></g><g class="o"><path transform="translate(6,12)" class="S sfv" d="M1984 1384 L2656 2056 L2656 2094 L1984 1422 Z"/><path class="fv4" d="M1984 1384 L2656 2056 L2656 2094 L1984 1422 Z" /></g><g class="o"><path transform="translate(9,18)" class="S sfv" d="M1027 1098 L1250 875 L1250 971 L1027 1194 Z"/><path class="fv7" d="M1027 1098 L1250 875 L1250 971 L1027 1194 Z" /></g><g class="o"><path transform="translate(5,10)" class="S ssh" d="M1650 1123 L1793 980 L1929 980 L1786 1123 Z"/><path class="sh4" d="M1650 1123 L1793 980 L1929 980 L1786 1123 Z" /></g><g class="o"><path transform="translate(2,4)" class="S sfv" d="M1853 1629 L2141 1341 L2141 1369 L1853 1657 Z"/><path class="fv2" d="M1853 1629 L2141 1341 L2141 1369 L1853 1657 Z" /></g></g><use href="#slashes" transform-origin="1500 1500" transform="rotate(180) scale(2)"/></g><rect x="1080" y="1080" width="840" height="840" stroke-width="40" class="o s5" /><use href="#slashes" transform-origin="1500 1500" transform="scale(.6)"/><use href="#slashes" transform-origin="1500 1500" transform="rotate(180) scale(.6)"/></svg>