<svg xmlns="http://www.w3.org/2000/svg" viewBox="750 750 1500 1500"><style>/*<![CDATA[*/svg{background:rgb(34,34,34);max-width:100vw;max-height:100vh}path{stroke-width:4}.o{opacity:.75}.S{opacity:.4}.sf{stroke:none;fill:black}.sfh{stroke:none;fill:url(#hs)}.sfv{stroke:none;fill:url(#vs)}.ss{stroke:black;fill:none}.ssh{stroke:url(#hs);fill:none}.ssv{stroke:url(#vs);fill:none}.s1{fill:none;stroke:rgb(238,108,77)}.f1{stroke:none;fill:rgb(238,108,77)}.sh1{fill:none;stroke:url(#h1)}.fh1{stroke:none;fill:url(#h1)}.sv1{fill:none;stroke:url(#v1)}.fv1{stroke:none;fill:url(#v1)}.s2{fill:none;stroke:rgb(224,251,252)}.f2{stroke:none;fill:rgb(224,251,252)}.sh2{fill:none;stroke:url(#h2)}.fh2{stroke:none;fill:url(#h2)}.sv2{fill:none;stroke:url(#v2)}.fv2{stroke:none;fill:url(#v2)}.s3{fill:none;stroke:rgb(61,90,128)}.f3{stroke:none;fill:rgb(61,90,128)}.sh3{fill:none;stroke:url(#h3)}.fh3{stroke:none;fill:url(#h3)}.sv3{fill:none;stroke:url(#v3)}.fv3{stroke:none;fill:url(#v3)}.s4{fill:none;stroke:rgb(41,50,65)}.f4{stroke:none;fill:rgb(41,50,65)}.sh4{fill:none;stroke:url(#h4)}.fh4{stroke:none;fill:url(#h4)}.sv4{fill:none;stroke:url(#v4)}.fv4{stroke:none;fill:url(#v4)}.s5{fill:none;stroke:rgb(152,193,217)}.f5{stroke:none;fill:rgb(152,193,217)}.sh5{fill:none;stroke:url(#h5)}.fh5{stroke:none;fill:url(#h5)}.sv5{fill:none;stroke:url(#v5)}.fv5{stroke:none;fill:url(#v5)}.s6{fill:none;stroke:rgb(255,255,255)}.f6{stroke:none;fill:rgb(255,255,255)}.sh6{fill:none;stroke:url(#h6)}.fh6{stroke:none;fill:url(#h6)}.sv6{fill:none;stroke:url(#v6)}.fv6{stroke:none;fill:url(#v6)}.s7{fill:none;stroke:rgb(255,255,0)}.f7{stroke:none;fill:rgb(255,255,0)}.sh7{fill:none;stroke:url(#h7)}.fh7{stroke:none;fill:url(#h7)}.sv7{fill:none;stroke:url(#v7)}.fv7{stroke:none;fill:url(#v7)}/*]]>*/</style><defs><linearGradient gradientTransform="rotate(90)" id="hs"><stop offset="20%" stop-color="#000" /><stop offset="95%" stop-color="rgba(0, 0, 0, 0)" /></linearGradient><linearGradient id="vs"><stop offset="20%" stop-color="#000" /><stop offset="95%" stop-color="rgba(0, 0, 0, 0)" /></linearGradient><linearGradient gradientTransform="rotate(90)" id="h1"><stop offset="20%" stop-color="rgba(238,108,77,1)" /><stop offset="95%" stop-color="rgba(238,108,77,0)" /></linearGradient><linearGradient id="v1"><stop offset="20%" stop-color="rgba(238,108,77,1)" /><stop offset="95%" stop-color="rgba(238,108,77,0)" /></linearGradient><linearGradient gradientTransform="rotate(90)" id="h2"><stop offset="20%" stop-color="rgba(224,251,252,1)" /><stop offset="95%" stop-color="rgba(224,251,252,0)" /></linearGradient><linearGradient id="v2"><stop offset="20%" stop-color="rgba(224,251,252,1)" /><stop offset="95%" stop-color="rgba(224,251,252,0)" /></linearGradient><linearGradient gradientTransform="rotate(90)" id="h3"><stop offset="20%" stop-color="rgba(61,90,128,1)" /><stop offset="95%" stop-color="rgba(61,90,128,0)" /></linearGradient><linearGradient id="v3"><stop offset="20%" stop-color="rgba(61,90,128,1)" /><stop offset="95%" stop-color="rgba(61,90,128,0)" /></linearGradient><linearGradient gradientTransform="rotate(90)" id="h4"><stop offset="20%" stop-color="rgba(41,50,65,1)" /><stop offset="95%" stop-color="rgba(41,50,65,0)" /></linearGradient><linearGradient id="v4"><stop offset="20%" stop-color="rgba(41,50,65,1)" /><stop offset="95%" stop-color="rgba(41,50,65,0)" /></linearGradient><linearGradient gradientTransform="rotate(90)" id="h5"><stop offset="20%" stop-color="rgba(152,193,217,1)" /><stop offset="95%" stop-color="rgba(152,193,217,0)" /></linearGradient><linearGradient id="v5"><stop offset="20%" stop-color="rgba(152,193,217,1)" /><stop offset="95%" stop-color="rgba(152,193,217,0)" /></linearGradient><linearGradient gradientTransform="rotate(90)" id="h6"><stop offset="20%" stop-color="rgba(255,255,255,1)" /><stop offset="95%" stop-color="rgba(255,255,255,0)" /></linearGradient><linearGradient id="v6"><stop offset="20%" stop-color="rgba(255,255,255,1)" /><stop offset="95%" stop-color="rgba(255,255,255,0)" /></linearGradient><linearGradient gradientTransform="rotate(90)" id="h7"><stop offset="20%" stop-color="rgba(255,255,0,1)" /><stop offset="95%" stop-color="rgba(255,255,0,0)" /></linearGradient><linearGradient id="v7"><stop offset="20%" stop-color="rgba(255,255,0,1)" /><stop offset="95%" stop-color="rgba(255,255,0,0)" /></linearGradient></defs><g transform-origin="1500 1500" transform="scale(2)" opacity=".2"><g id="slashes"><g class="o"><path transform="translate(4,8)" class="S sf" d="M1038 1145 L796 1387 L796 1401 L1038 1159 Z"/><path class="f2" d="M1038 1145 L796 1387 L796 1401 L1038 1159 Z" /></g><g class="o"><path transform="translate(4,8)" class="S sfh" d="M1399 1317 L1628 1546 L1658 1546 L1429 1317 Z"/><path class="fh7" d="M1399 1317 L1628 1546 L1658 1546 L1429 1317 Z" /></g><g class="o"><path transform="translate(3,6)" class="S sfv" d="M994 1650 L1147 1803 L1147 1835 L994 1682 Z"/><path class="fv1" d="M994 1650 L1147 1803 L1147 1835 L994 1682 Z" /></g><g class="o"><path transform="translate(3,6)" class="S sf" d="M1524 1561 L1675 1410 L1675 1434 L1524 1585 Z"/><path class="f2" d="M1524 1561 L1675 1410 L1675 1434 L1524 1585 Z" /></g><g class="o"><path transform="translate(3,6)" class="S sfh" d="M1461 2020 L1290 1849 L1322 1849 L1493 2020 Z"/><path class="fh7" d="M1461 2020 L1290 1849 L1322 1849 L1493 2020 Z" /></g><g class="o"><path transform="translate(3,6)" class="S ssh" d="M1859 1001 L1632 1228 L1654 1228 L1881 1001 Z"/><path class="sh5" d="M1859 1001 L1632 1228 L1654 1228 L1881 1001 Z" /></g><g class="o"><path transform="translate(3,6)" class="S ssv" d="M1107 958 L1339 726 L1339 764 L1107 996 Z"/><path class="sv5" d="M1107 958 L1339 726 L1339 764 L1107 996 Z" /></g><g class="o"><path transform="translate(4,8)" class="S sfh" d="M985 1558 L1158 1385 L1186 1385 L1013 1558 Z"/><path class="fh2" d="M985 1558 L1158 1385 L1186 1385 L1013 1558 Z" /></g><g class="o"><path transform="translate(6,12)" class="S sfh" d="M1503 1000 L1699 804 L1721 804 L1525 1000 Z"/><path class="fh4" d="M1503 1000 L1699 804 L1721 804 L1525 1000 Z" /></g><g class="o"><path transform="translate(8,16)" class="S ss" d="M1781 1561 L1535 1315 L1567 1315 L1813 1561 Z"/><path class="s3" d="M1781 1561 L1535 1315 L1567 1315 L1813 1561 Z" /></g><g class="o"><path transform="translate(4,8)" class="S ssv" d="M1136 1879 L1012 1755 L1012 1769 L1136 1893 Z"/><path class="sv1" d="M1136 1879 L1012 1755 L1012 1769 L1136 1893 Z" /></g><g class="o"><path transform="translate(4,8)" class="S sf" d="M1471 1275 L1273 1077 L1273 1109 L1471 1307 Z"/><path class="f5" d="M1471 1275 L1273 1077 L1273 1109 L1471 1307 Z" /></g><g class="o"><path transform="translate(3,6)" class="S sfh" d="M1698 1517 L1759 1578 L1795 1578 L1734 1517 Z"/><path class="fh2" d="M1698 1517 L1759 1578 L1795 1578 L1734 1517 Z" /></g><g class="o"><path transform="translate(9,18)" class="S sfv" d="M1789 1927 L1862 1854 L1862 1884 L1789 1957 Z"/><path class="fv4" d="M1789 1927 L1862 1854 L1862 1884 L1789 1957 Z" /></g><g class="o"><path transform="translate(6,12)" class="S sfh" d="M1667 1173 L1473 979 L1489 979 L1683 1173 Z"/><path class="fh7" d="M1667 1173 L1473 979 L1489 979 L1683 1173 Z" /></g><g class="o"><path transform="translate(5,10)" class="S ssv" d="M1959 1909 L2127 1741 L2127 1769 L1959 1937 Z"/><path class="sv5" d="M1959 1909 L2127 1741 L2127 1769 L1959 1937 Z" /></g><g class="o"><path transform="translate(3,6)" class="S sfv" d="M1346 1541 L1115 1772 L1115 1792 L1346 1561 Z"/><path class="fv6" d="M1346 1541 L1115 1772 L1115 1792 L1346 1561 Z" /></g><g class="o"><path transform="translate(3,6)" class="S sfh" d="M979 1519 L775 1315 L813 1315 L1017 1519 Z"/><path class="fh3" d="M979 1519 L775 1315 L813 1315 L1017 1519 Z" /></g><g class="o"><path transform="translate(7,14)" class="S sf" d="M1797 1171 L1602 976 L1602 1010 L1797 1205 Z"/><path class="f1" d="M1797 1171 L1602 976 L1602 1010 L1797 1205 Z" /></g><g class="o"><path transform="translate(4,8)" class="S sfh" d="M1380 1627 L1587 1420 L1599 1420 L1392 1627 Z"/><path class="fh4" d="M1380 1627 L1587 1420 L1599 1420 L1392 1627 Z" /></g><g class="o"><path transform="translate(8,16)" class="S sfh" d="M1864 1431 L2042 1609 L2066 1609 L1888 1431 Z"/><path class="fh6" d="M1864 1431 L2042 1609 L2066 1609 L1888 1431 Z" /></g><g class="o"><path transform="translate(7,14)" class="S sfh" d="M1909 1687 L2077 1519 L2085 1519 L1917 1687 Z"/><path class="fh7" d="M1909 1687 L2077 1519 L2085 1519 L1917 1687 Z" /></g><g class="o"><path transform="translate(5,10)" class="S sfv" d="M1033 1303 L1243 1513 L1243 1539 L1033 1329 Z"/><path class="fv3" d="M1033 1303 L1243 1513 L1243 1539 L1033 1329 Z" /></g><g class="o"><path transform="translate(3,6)" class="S sfv" d="M1568 1959 L1357 1748 L1357 1786 L1568 1997 Z"/><path class="fv3" d="M1568 1959 L1357 1748 L1357 1786 L1568 1997 Z" /></g><g class="o"><path transform="translate(8,16)" class="S ssv" d="M1456 1275 L1542 1189 L1542 1215 L1456 1301 Z"/><path class="sv4" d="M1456 1275 L1542 1189 L1542 1215 L1456 1301 Z" /></g><g class="o"><path transform="translate(4,8)" class="S sfh" d="M1869 1888 L1736 1755 L1756 1755 L1889 1888 Z"/><path class="fh6" d="M1869 1888 L1736 1755 L1756 1755 L1889 1888 Z" /></g><g class="o"><path transform="translate(2,4)" class="S sfv" d="M1198 1639 L1443 1394 L1443 1412 L1198 1657 Z"/><path class="fv3" d="M1198 1639 L1443 1394 L1443 1412 L1198 1657 Z" /></g><g class="o"><path transform="translate(4,8)" class="S sfh" d="M1950 1346 L1772 1524 L1802 1524 L1980 1346 Z"/><path class="fh3" d="M1950 1346 L1772 1524 L1802 1524 L1980 1346 Z" /></g><g class="o"><path transform="translate(5,10)" class="S sfh" d="M1543 1036 L1694 1187 L1704 1187 L1553 1036 Z"/><path class="fh3" d="M1543 1036 L1694 1187 L1704 1187 L1553 1036 Z" /></g><g class="o"><path transform="translate(2,4)" class="S ss" d="M1292 1143 L1398 1037 L1398 1075 L1292 1181 Z"/><path class="s6" d="M1292 1143 L1398 1037 L1398 1075 L1292 1181 Z" /></g><g class="o"><path transform="translate(2,4)" class="S sfh" d="M1213 1914 L987 1688 L1015 1688 L1241 1914 Z"/><path class="fh5" d="M1213 1914 L987 1688 L1015 1688 L1241 1914 Z" /></g><g class="o"><path transform="translate(2,4)" class="S sf" d="M1093 1676 L959 1810 L959 1838 L1093 1704 Z"/><path class="f7" d="M1093 1676 L959 1810 L959 1838 L1093 1704 Z" /></g><g class="o"><path transform="translate(6,12)" class="S sf" d="M1964 1464 L1718 1710 L1766 1710 L2012 1464 Z"/><path class="f5" d="M1964 1464 L1718 1710 L1766 1710 L2012 1464 Z" /></g><g class="o"><path transform="translate(5,10)" class="S sfv" d="M1906 1279 L1826 1199 L1826 1227 L1906 1307 Z"/><path class="fv2" d="M1906 1279 L1826 1199 L1826 1227 L1906 1307 Z" /></g><g class="o"><path transform="translate(2,4)" class="S sfh" d="M1207 1315 L1025 1133 L1043 1133 L1225 1315 Z"/><path class="fh4" d="M1207 1315 L1025 1133 L1043 1133 L1225 1315 Z" /></g><g class="o"><path transform="translate(4,8)" class="S sfh" d="M1378 1858 L1529 2009 L1553 2009 L1402 1858 Z"/><path class="fh5" d="M1378 1858 L1529 2009 L1553 2009 L1402 1858 Z" /></g><g class="o"><path transform="translate(6,12)" class="S sfv" d="M1273 1879 L1088 1694 L1088 1724 L1273 1909 Z"/><path class="fv3" d="M1273 1879 L1088 1694 L1088 1724 L1273 1909 Z" /></g><g class="o"><path transform="translate(8,16)" class="S sf" d="M1745 1654 L1597 1802 L1635 1802 L1783 1654 Z"/><path class="f6" d="M1745 1654 L1597 1802 L1635 1802 L1783 1654 Z" /></g><g class="o"><path transform="translate(2,4)" class="S ssh" d="M1565 1901 L1395 2071 L1427 2071 L1597 1901 Z"/><path class="sh3" d="M1565 1901 L1395 2071 L1427 2071 L1597 1901 Z" /></g><g class="o"><path transform="translate(3,6)" class="S sf" d="M953 1064 L1088 929 L1088 1025 L953 1160 Z"/><path class="f2" d="M953 1064 L1088 929 L1088 1025 L953 1160 Z" /></g><g class="o"><path transform="translate(4,8)" class="S sfh" d="M1013 1336 L873 1476 L909 1476 L1049 1336 Z"/><path class="fh6" d="M1013 1336 L873 1476 L909 1476 L1049 1336 Z" /></g><g class="o"><path transform="translate(2,4)" class="S sfh" d="M1484 1669 L1540 1613 L1566 1613 L1510 1669 Z"/><path class="fh5" d="M1484 1669 L1540 1613 L1566 1613 L1510 1669 Z" /></g><g class="o"><path transform="translate(6,12)" class="S sfh" d="M1055 1554 L833 1332 L859 1332 L1081 1554 Z"/><path class="fh1" d="M1055 1554 L833 1332 L859 1332 L1081 1554 Z" /></g><g class="o"><path transform="translate(8,16)" class="S sfv" d="M1528 1588 L1280 1340 L1280 1358 L1528 1606 Z"/><path class="fv4" d="M1528 1588 L1280 1340 L1280 1358 L1528 1606 Z" /></g><g class="o"><path transform="translate(2,4)" class="S sfv" d="M1669 1842 L1845 1666 L1845 1686 L1669 1862 Z"/><path class="fv5" d="M1669 1842 L1845 1666 L1845 1686 L1669 1862 Z" /></g><g class="o"><path transform="translate(9,18)" class="S sfh" d="M1369 1888 L1485 1772 L1507 1772 L1391 1888 Z"/><path class="fh3" d="M1369 1888 L1485 1772 L1507 1772 L1391 1888 Z" /></g><g class="o"><path transform="translate(2,4)" class="S sfv" d="M1565 1957 L1432 1824 L1432 1858 L1565 1991 Z"/><path class="fv4" d="M1565 1957 L1432 1824 L1432 1858 L1565 1991 Z" /></g><g class="o"><path transform="translate(6,12)" class="S sfh" d="M1550 1833 L1752 1631 L1786 1631 L1584 1833 Z"/><path class="fh7" d="M1550 1833 L1752 1631 L1786 1631 L1584 1833 Z" /></g><g class="o"><path transform="translate(2,4)" class="S sf" d="M1530 1186 L1314 970 L1314 990 L1530 1206 Z"/><path class="f1" d="M1530 1186 L1314 970 L1314 990 L1530 1206 Z" /></g><g class="o"><path transform="translate(4,8)" class="S ssv" d="M1577 1897 L1728 1746 L1728 1766 L1577 1917 Z"/><path class="sv2" d="M1577 1897 L1728 1746 L1728 1766 L1577 1917 Z" /></g><g class="o"><path transform="translate(7,14)" class="S sfv" d="M1262 1828 L1375 1715 L1375 1723 L1262 1836 Z"/><path class="fv7" d="M1262 1828 L1375 1715 L1375 1723 L1262 1836 Z" /></g><g class="o"><path transform="translate(3,6)" class="S sfv" d="M2005 1210 L2101 1306 L2101 1340 L2005 1244 Z"/><path class="fv5" d="M2005 1210 L2101 1306 L2101 1340 L2005 1244 Z" /></g><g class="o"><path transform="translate(2,4)" class="S sfv" d="M1865 1530 L2077 1318 L2077 1336 L1865 1548 Z"/><path class="fv5" d="M1865 1530 L2077 1318 L2077 1336 L1865 1548 Z" /></g><g class="o"><path transform="translate(2,4)" class="S ssv" d="M1362 1895 L1226 1759 L1226 1815 L1362 1951 Z"/><path class="sv2" d="M1362 1895 L1226 1759 L1226 1815 L1362 1951 Z" /></g><g class="o"><path transform="translate(9,18)" class="S sfh" d="M1184 1531 L1065 1412 L1075 1412 L1194 1531 Z"/><path class="fh2" d="M1184 1531 L1065 1412 L1075 1412 L1194 1531 Z" /></g><g class="o"><path transform="translate(6,12)" class="S sfv" d="M1895 981 L1805 891 L1805 903 L1895 993 Z"/><path class="fv2" d="M1895 981 L1805 891 L1805 903 L1895 993 Z" /></g><g class="o"><path transform="translate(5,10)" class="S sfv" d="M952 1800 L768 1984 L768 2008 L952 1824 Z"/><path class="fv5" d="M952 1800 L768 1984 L768 2008 L952 1824 Z" /></g><g class="o"><path transform="translate(4,8)" class="S sf" d="M2026 2026 L2162 1890 L2190 1890 L2054 2026 Z"/><path class="f2" d="M2026 2026 L2162 1890 L2190 1890 L2054 2026 Z" /></g><g class="o"><path transform="translate(4,8)" class="S ssh" d="M1946 2045 L1845 2146 L1865 2146 L1966 2045 Z"/><path class="sh5" d="M1946 2045 L1845 2146 L1865 2146 L1966 2045 Z" /></g><g class="o"><path transform="translate(3,6)" class="S sfh" d="M1877 1919 L2042 2084 L2114 2084 L1949 1919 Z"/><path class="fh7" d="M1877 1919 L2042 2084 L2114 2084 L1949 1919 Z" /></g><g class="o"><path transform="translate(2,4)" class="S sfv" d="M971 1845 L1184 1632 L1184 1644 L971 1857 Z"/><path class="fv6" d="M971 1845 L1184 1632 L1184 1644 L971 1857 Z" /></g><g class="o"><path transform="translate(6,12)" class="S sf" d="M1404 1453 L1194 1663 L1206 1663 L1416 1453 Z"/><path class="f1" d="M1404 1453 L1194 1663 L1206 1663 L1416 1453 Z" /></g><g class="o"><path transform="translate(2,4)" class="S sfh" d="M1976 1028 L1878 1126 L1908 1126 L2006 1028 Z"/><path class="fh7" d="M1976 1028 L1878 1126 L1908 1126 L2006 1028 Z" /></g><g class="o"><path transform="translate(3,6)" class="S sfh" d="M1830 1232 L1909 1153 L1917 1153 L1838 1232 Z"/><path class="fh4" d="M1830 1232 L1909 1153 L1917 1153 L1838 1232 Z" /></g><g class="o"><path transform="translate(8,16)" class="S sf" d="M1457 1058 L1614 1215 L1632 1215 L1475 1058 Z"/><path class="f5" d="M1457 1058 L1614 1215 L1632 1215 L1475 1058 Z" /></g><g class="o"><path transform="translate(7,14)" class="S sfh" d="M1657 1746 L1885 1974 L1893 1974 L1665 1746 Z"/><path class="fh3" d="M1657 1746 L1885 1974 L1893 1974 L1665 1746 Z" /></g><g class="o"><path transform="translate(3,6)" class="S sfv" d="M1576 1963 L1769 1770 L1769 1790 L1576 1983 Z"/><path class="fv3" d="M1576 1963 L1769 1770 L1769 1790 L1576 1983 Z" /></g><g class="o"><path transform="translate(3,6)" class="S sfh" d="M1686 1126 L1624 1064 L1644 1064 L1706 1126 Z"/><path class="fh1" d="M1686 1126 L1624 1064 L1644 1064 L1706 1126 Z" /></g><g class="o"><path transform="translate(8,16)" class="S sfv" d="M1184 1219 L1392 1427 L1392 1455 L1184 1247 Z"/><path class="fv7" d="M1184 1219 L1392 1427 L1392 1455 L1184 1247 Z" /></g><g class="o"><path transform="translate(6,12)" class="S sf" d="M1684 1855 L1843 2014 L1843 2038 L1684 1879 Z"/><path class="f2" d="M1684 1855 L1843 2014 L1843 2038 L1684 1879 Z" /></g><g class="o"><path transform="translate(7,14)" class="S sfv" d="M1662 1273 L1561 1374 L1561 1470 L1662 1369 Z"/><path class="fv2" d="M1662 1273 L1561 1374 L1561 1470 L1662 1369 Z" /></g><g class="o"><path transform="translate(8,16)" class="S sf" d="M1468 1531 L1389 1452 L1409 1452 L1488 1531 Z"/><path class="f1" d="M1468 1531 L1389 1452 L1409 1452 L1488 1531 Z" /></g><g class="o"><path transform="translate(6,12)" class="S sfv" d="M1689 1305 L1788 1404 L1788 1416 L1689 1317 Z"/><path class="fv7" d="M1689 1305 L1788 1404 L1788 1416 L1689 1317 Z" /></g><g class="o"><path transform="translate(4,8)" class="S sfh" d="M1491 1217 L1366 1092 L1388 1092 L1513 1217 Z"/><path class="fh3" d="M1491 1217 L1366 1092 L1388 1092 L1513 1217 Z" /></g><g class="o"><path transform="translate(7,14)" class="S ss" d="M1731 1036 L1792 1097 L1792 1123 L1731 1062 Z"/><path class="s7" d="M1731 1036 L1792 1097 L1792 1123 L1731 1062 Z" /></g><g class="o"><path transform="translate(8,16)" class="S ss" d="M1565 1588 L1362 1385 L1362 1421 L1565 1624 Z"/><path class="s4" d="M1565 1588 L1362 1385 L1362 1421 L1565 1624 Z" /></g><g class="o"><path transform="translate(6,12)" class="S sfh" d="M1924 2006 L2162 1768 L2180 1768 L1942 2006 Z"/><path class="fh3" d="M1924 2006 L2162 1768 L2180 1768 L1942 2006 Z" /></g><g class="o"><path transform="translate(8,16)" class="S sfh" d="M1267 1110 L1504 873 L1540 873 L1303 1110 Z"/><path class="fh6" d="M1267 1110 L1504 873 L1540 873 L1303 1110 Z" /></g><g class="o"><path transform="translate(4,8)" class="S sfh" d="M1299 1841 L1488 1652 L1512 1652 L1323 1841 Z"/><path class="fh2" d="M1299 1841 L1488 1652 L1512 1652 L1323 1841 Z" /></g><g class="o"><path transform="translate(2,4)" class="S sfh" d="M1817 1094 L2043 868 L2071 868 L1845 1094 Z"/><path class="fh3" d="M1817 1094 L2043 868 L2071 868 L1845 1094 Z" /></g><g class="o"><path transform="translate(7,14)" class="S sfh" d="M1924 1964 L1983 1905 L2039 1905 L1980 1964 Z"/><path class="fh3" d="M1924 1964 L1983 1905 L2039 1905 L1980 1964 Z" /></g><g class="o"><path transform="translate(7,14)" class="S sfh" d="M1921 1253 L1748 1080 L1770 1080 L1943 1253 Z"/><path class="fh7" d="M1921 1253 L1748 1080 L1770 1080 L1943 1253 Z" /></g><g class="o"><path transform="translate(4,8)" class="S sf" d="M1652 1199 L1716 1135 L1730 1135 L1666 1199 Z"/><path class="f2" d="M1652 1199 L1716 1135 L1730 1135 L1666 1199 Z" /></g><g class="o"><path transform="translate(9,18)" class="S sfv" d="M1519 1275 L1677 1433 L1677 1463 L1519 1305 Z"/><path class="fv6" d="M1519 1275 L1677 1433 L1677 1463 L1519 1305 Z" /></g><g class="o"><path transform="translate(5,10)" class="S sf" d="M2038 1849 L2164 1723 L2164 1761 L2038 1887 Z"/><path class="f2" d="M2038 1849 L2164 1723 L2164 1761 L2038 1887 Z" /></g><g class="o"><path transform="translate(3,6)" class="S sfh" d="M1687 1721 L1511 1545 L1523 1545 L1699 1721 Z"/><path class="fh5" d="M1687 1721 L1511 1545 L1523 1545 L1699 1721 Z" /></g><g class="o"><path transform="translate(8,16)" class="S ssv" d="M1523 1143 L1397 1269 L1397 1277 L1523 1151 Z"/><path class="sv4" d="M1523 1143 L1397 1269 L1397 1277 L1523 1151 Z" /></g><g class="o"><path transform="translate(2,4)" class="S sfv" d="M1867 1188 L2092 963 L2092 981 L1867 1206 Z"/><path class="fv2" d="M1867 1188 L2092 963 L2092 981 L1867 1206 Z" /></g><g class="o"><path transform="translate(4,8)" class="S sfv" d="M1480 1983 L1563 1900 L1563 1928 L1480 2011 Z"/><path class="fv5" d="M1480 1983 L1563 1900 L1563 1928 L1480 2011 Z" /></g><g class="o"><path transform="translate(3,6)" class="S sfv" d="M1027 1725 L1196 1556 L1196 1564 L1027 1733 Z"/><path class="fv2" d="M1027 1725 L1196 1556 L1196 1564 L1027 1733 Z" /></g><g class="o"><path transform="translate(4,8)" class="S sfh" d="M1316 1960 L1376 1900 L1464 1900 L1404 1960 Z"/><path class="fh3" d="M1316 1960 L1376 1900 L1464 1900 L1404 1960 Z" /></g><g class="o"><path transform="translate(6,12)" class="S sfh" d="M1942 1195 L2101 1354 L2119 1354 L1960 1195 Z"/><path class="fh4" d="M1942 1195 L2101 1354 L2119 1354 L1960 1195 Z" /></g><g class="o"><path transform="translate(2,4)" class="S sfv" d="M992 1580 L922 1650 L922 1666 L992 1596 Z"/><path class="fv4" d="M992 1580 L922 1650 L922 1666 L992 1596 Z" /></g><g class="o"><path transform="translate(5,10)" class="S sfv" d="M1205 1016 L1036 1185 L1036 1197 L1205 1028 Z"/><path class="fv4" d="M1205 1016 L1036 1185 L1036 1197 L1205 1028 Z" /></g><g class="o"><path transform="translate(7,14)" class="S ssh" d="M1830 1766 L1942 1654 L1964 1654 L1852 1766 Z"/><path class="sh4" d="M1830 1766 L1942 1654 L1964 1654 L1852 1766 Z" /></g><g class="o"><path transform="translate(9,18)" class="S sfh" d="M2029 1142 L2260 911 L2274 911 L2043 1142 Z"/><path class="fh5" d="M2029 1142 L2260 911 L2274 911 L2043 1142 Z" /></g><g class="o"><path transform="translate(2,4)" class="S sfv" d="M977 1305 L873 1409 L873 1443 L977 1339 Z"/><path class="fv3" d="M977 1305 L873 1409 L873 1443 L977 1339 Z" /></g><g class="o"><path transform="translate(6,12)" class="S ss" d="M1748 1328 L1511 1565 L1511 1585 L1748 1348 Z"/><path class="s7" d="M1748 1328 L1511 1565 L1511 1585 L1748 1348 Z" /></g><g class="o"><path transform="translate(2,4)" class="S sfh" d="M1574 1771 L1780 1977 L1788 1977 L1582 1771 Z"/><path class="fh7" d="M1574 1771 L1780 1977 L1788 1977 L1582 1771 Z" /></g><g class="o"><path transform="translate(4,8)" class="S sfh" d="M1706 1394 L1937 1163 L1967 1163 L1736 1394 Z"/><path class="fh2" d="M1706 1394 L1937 1163 L1967 1163 L1736 1394 Z" /></g><g class="o"><path transform="translate(2,4)" class="S sfv" d="M1743 1100 L1507 1336 L1507 1354 L1743 1118 Z"/><path class="fv4" d="M1743 1100 L1507 1336 L1507 1354 L1743 1118 Z" /></g><g class="o"><path transform="translate(5,10)" class="S sf" d="M1122 1109 L1221 1010 L1243 1010 L1144 1109 Z"/><path class="f1" d="M1122 1109 L1221 1010 L1243 1010 L1144 1109 Z" /></g><g class="o"><path transform="translate(5,10)" class="S ssv" d="M1653 1601 L1868 1816 L1868 1830 L1653 1615 Z"/><path class="sv4" d="M1653 1601 L1868 1816 L1868 1830 L1653 1615 Z" /></g><g class="o"><path transform="translate(6,12)" class="S sfv" d="M950 1923 L702 2171 L702 2267 L950 2019 Z"/><path class="fv1" d="M950 1923 L702 2171 L702 2267 L950 2019 Z" /></g><g class="o"><path transform="translate(9,18)" class="S sf" d="M1282 1529 L1364 1611 L1376 1611 L1294 1529 Z"/><path class="f7" d="M1282 1529 L1364 1611 L1376 1611 L1294 1529 Z" /></g><g class="o"><path transform="translate(3,6)" class="S sfh" d="M1313 1653 L1079 1419 L1087 1419 L1321 1653 Z"/><path class="fh4" d="M1313 1653 L1079 1419 L1087 1419 L1321 1653 Z" /></g><g class="o"><path transform="translate(9,18)" class="S sf" d="M1782 1893 L1726 1949 L1726 1987 L1782 1931 Z"/><path class="f7" d="M1782 1893 L1726 1949 L1726 1987 L1782 1931 Z" /></g><g class="o"><path transform="translate(8,16)" class="S sfh" d="M1999 1277 L2233 1043 L2267 1043 L2033 1277 Z"/><path class="fh5" d="M1999 1277 L2233 1043 L2267 1043 L2033 1277 Z" /></g><g class="o"><path transform="translate(7,14)" class="S sfv" d="M1241 1511 L1306 1576 L1306 1596 L1241 1531 Z"/><path class="fv4" d="M1241 1511 L1306 1576 L1306 1596 L1241 1531 Z" /></g><g class="o"><path transform="translate(8,16)" class="S sfh" d="M1179 1716 L1308 1845 L1318 1845 L1189 1716 Z"/><path class="fh2" d="M1179 1716 L1308 1845 L1318 1845 L1189 1716 Z" /></g><g class="o"><path transform="translate(2,4)" class="S sfv" d="M1138 1949 L963 1774 L963 1806 L1138 1981 Z"/><path class="fv1" d="M1138 1949 L963 1774 L963 1806 L1138 1981 Z" /></g><g class="o"><path transform="translate(3,6)" class="S sfv" d="M1905 1655 L1984 1734 L1984 1766 L1905 1687 Z"/><path class="fv5" d="M1905 1655 L1984 1734 L1984 1766 L1905 1687 Z" /></g><g class="o"><path transform="translate(6,12)" class="S ss" d="M1168 1782 L1048 1902 L1048 1936 L1168 1816 Z"/><path class="s2" d="M1168 1782 L1048 1902 L1048 1936 L1168 1816 Z" /></g><g class="o"><path transform="translate(5,10)" class="S sfv" d="M956 1743 L825 1612 L825 1668 L956 1799 Z"/><path class="fv7" d="M956 1743 L825 1612 L825 1668 L956 1799 Z" /></g><g class="o"><path transform="translate(7,14)" class="S sf" d="M1314 1060 L1167 1207 L1167 1231 L1314 1084 Z"/><path class="f6" d="M1314 1060 L1167 1207 L1167 1231 L1314 1084 Z" /></g><g class="o"><path transform="translate(7,14)" class="S ssh" d="M1032 1238 L919 1351 L949 1351 L1062 1238 Z"/><path class="sh4" d="M1032 1238 L919 1351 L949 1351 L1062 1238 Z" /></g><g class="o"><path transform="translate(5,10)" class="S sfh" d="M1040 1189 L1203 1352 L1217 1352 L1054 1189 Z"/><path class="fh4" d="M1040 1189 L1203 1352 L1217 1352 L1054 1189 Z" /></g><g class="o"><path transform="translate(8,16)" class="S sf" d="M1279 1348 L1366 1261 L1510 1261 L1423 1348 Z"/><path class="f3" d="M1279 1348 L1366 1261 L1510 1261 L1423 1348 Z" /></g><g class="o"><path transform="translate(8,16)" class="S sfv" d="M1395 1844 L1212 2027 L1212 2039 L1395 1856 Z"/><path class="fv6" d="M1395 1844 L1212 2027 L1212 2039 L1395 1856 Z" /></g><g class="o"><path transform="translate(4,8)" class="S ss" d="M1118 1723 L893 1498 L893 1506 L1118 1731 Z"/><path class="s3" d="M1118 1723 L893 1498 L893 1506 L1118 1731 Z" /></g><g class="o"><path transform="translate(4,8)" class="S sfh" d="M1450 1209 L1296 1363 L1330 1363 L1484 1209 Z"/><path class="fh5" d="M1450 1209 L1296 1363 L1330 1363 L1484 1209 Z" /></g><g class="o"><path transform="translate(9,18)" class="S sfh" d="M1463 1161 L1621 1319 L1651 1319 L1493 1161 Z"/><path class="fh7" d="M1463 1161 L1621 1319 L1651 1319 L1493 1161 Z" /></g><g class="o"><path transform="translate(4,8)" class="S sfv" d="M995 1791 L784 2002 L784 2010 L995 1799 Z"/><path class="fv5" d="M995 1791 L784 2002 L784 2010 L995 1799 Z" /></g><g class="o"><path transform="translate(6,12)" class="S ssv" d="M1261 1075 L1110 1226 L1110 1244 L1261 1093 Z"/><path class="sv7" d="M1261 1075 L1110 1226 L1110 1244 L1261 1093 Z" /></g><g class="o"><path transform="translate(7,14)" class="S sfh" d="M1929 2032 L2058 2161 L2072 2161 L1943 2032 Z"/><path class="fh5" d="M1929 2032 L2058 2161 L2072 2161 L1943 2032 Z" /></g><g class="o"><path transform="translate(5,10)" class="S sfh" d="M1587 1057 L1473 943 L1503 943 L1617 1057 Z"/><path class="fh4" d="M1587 1057 L1473 943 L1503 943 L1617 1057 Z" /></g><g class="o"><path transform="translate(2,4)" class="S sf" d="M1779 1010 L1693 1096 L1693 1132 L1779 1046 Z"/><path class="f6" d="M1779 1010 L1693 1096 L1693 1132 L1779 1046 Z" /></g><g class="o"><path transform="translate(9,18)" class="S sfv" d="M1008 1027 L1197 838 L1197 872 L1008 1061 Z"/><path class="fv5" d="M1008 1027 L1197 838 L1197 872 L1008 1061 Z" /></g><g class="o"><path transform="translate(5,10)" class="S sfv" d="M2026 1112 L2258 880 L2258 892 L2026 1124 Z"/><path class="fv6" d="M2026 1112 L2258 880 L2258 892 L2026 1124 Z" /></g><g class="o"><path transform="translate(6,12)" class="S sfh" d="M1266 1639 L1043 1416 L1053 1416 L1276 1639 Z"/><path class="fh1" d="M1266 1639 L1043 1416 L1053 1416 L1276 1639 Z" /></g><g class="o"><path transform="translate(2,4)" class="S sfv" d="M1831 1615 L1586 1370 L1586 1406 L1831 1651 Z"/><path class="fv1" d="M1831 1615 L1586 1370 L1586 1406 L1831 1651 Z" /></g><g class="o"><path transform="translate(6,12)" class="S sfh" d="M1331 1396 L1532 1597 L1548 1597 L1347 1396 Z"/><path class="fh5" d="M1331 1396 L1532 1597 L1548 1597 L1347 1396 Z" /></g><g class="o"><path transform="translate(9,18)" class="S sf" d="M1541 1518 L1344 1321 L1344 1449 L1541 1646 Z"/><path class="f4" d="M1541 1518 L1344 1321 L1344 1449 L1541 1646 Z" /></g><g class="o"><path transform="translate(5,10)" class="S sfh" d="M1323 1163 L1253 1233 L1279 1233 L1349 1163 Z"/><path class="fh7" d="M1323 1163 L1253 1233 L1279 1233 L1349 1163 Z" /></g><g class="o"><path transform="translate(2,4)" class="S ssv" d="M1684 1588 L1931 1835 L1931 1843 L1684 1596 Z"/><path class="sv4" d="M1684 1588 L1931 1835 L1931 1843 L1684 1596 Z" /></g><g class="o"><path transform="translate(6,12)" class="S sfh" d="M1689 1597 L1617 1525 L1635 1525 L1707 1597 Z"/><path class="fh4" d="M1689 1597 L1617 1525 L1635 1525 L1707 1597 Z" /></g><g class="o"><path transform="translate(3,6)" class="S sfh" d="M1312 1956 L1392 2036 L1430 2036 L1350 1956 Z"/><path class="fh7" d="M1312 1956 L1392 2036 L1430 2036 L1350 1956 Z" /></g><g class="o"><path transform="translate(8,16)" class="S ssh" d="M1130 1017 L914 801 L924 801 L1140 1017 Z"/><path class="sh4" d="M1130 1017 L914 801 L924 801 L1140 1017 Z" /></g><g class="o"><path transform="translate(6,12)" class="S sfh" d="M984 1635 L1202 1417 L1238 1417 L1020 1635 Z"/><path class="fh6" d="M984 1635 L1202 1417 L1238 1417 L1020 1635 Z" /></g><g class="o"><path transform="translate(3,6)" class="S ssv" d="M1289 1415 L1385 1511 L1385 1535 L1289 1439 Z"/><path class="sv7" d="M1289 1415 L1385 1511 L1385 1535 L1289 1439 Z" /></g><g class="o"><path transform="translate(6,12)" class="S sfv" d="M2015 1119 L2085 1189 L2085 1253 L2015 1183 Z"/><path class="fv3" d="M2015 1119 L2085 1189 L2085 1253 L2015 1183 Z" /></g><g class="o"><path transform="translate(6,12)" class="S sfh" d="M1785 1195 L2009 971 L2153 971 L1929 1195 Z"/><path class="fh3" d="M1785 1195 L2009 971 L2153 971 L1929 1195 Z" /></g><g class="o"><path transform="translate(7,14)" class="S ssh" d="M1529 1657 L1713 1473 L1741 1473 L1557 1657 Z"/><path class="sh4" d="M1529 1657 L1713 1473 L1741 1473 L1557 1657 Z" /></g><g class="o"><path transform="translate(6,12)" class="S sfh" d="M1178 1588 L995 1405 L1021 1405 L1204 1588 Z"/><path class="fh5" d="M1178 1588 L995 1405 L1021 1405 L1204 1588 Z" /></g><g class="o"><path transform="translate(6,12)" class="S sfh" d="M1818 1527 L1695 1650 L1707 1650 L1830 1527 Z"/><path class="fh2" d="M1818 1527 L1695 1650 L1707 1650 L1830 1527 Z" /></g><g class="o"><path transform="translate(8,16)" class="S ssv" d="M1720 1260 L1582 1122 L1582 1134 L1720 1272 Z"/><path class="sv4" d="M1720 1260 L1582 1122 L1582 1134 L1720 1272 Z" /></g><g class="o"><path transform="translate(8,16)" class="S sfv" d="M1495 1560 L1304 1369 L1304 1403 L1495 1594 Z"/><path class="fv5" d="M1495 1560 L1304 1369 L1304 1403 L1495 1594 Z" /></g><g class="o"><path transform="translate(4,8)" class="S sfh" d="M1941 2000 L1869 1928 L1887 1928 L1959 2000 Z"/><path class="fh3" d="M1941 2000 L1869 1928 L1887 1928 L1959 2000 Z" /></g><g class="o"><path transform="translate(8,16)" class="S sfh" d="M1098 1775 L1314 1559 L1324 1559 L1108 1775 Z"/><path class="fh2" d="M1098 1775 L1314 1559 L1324 1559 L1108 1775 Z" /></g><g class="o"><path transform="translate(6,12)" class="S sfv" d="M1458 1307 L1210 1059 L1210 1085 L1458 1333 Z"/><path class="fv1" d="M1458 1307 L1210 1059 L1210 1085 L1458 1333 Z" /></g></g><use href="#slashes" transform-origin="1500 1500" transform="rotate(180) scale(2)"/></g><rect x="1080" y="1080" width="840" height="840" stroke-width="80" class="o ss" /><use href="#slashes" transform-origin="1500 1500" transform="scale(.7)"/><use href="#slashes" transform-origin="1500 1500" transform="rotate(180) scale(.3)"/></svg>