<svg xmlns="http://www.w3.org/2000/svg" viewBox="750 750 1500 1500"><style>/*<![CDATA[*/svg{background:rgb(228,253,225);max-width:100vw;max-height:100vh}path{stroke-width:4}.o{opacity:.75}.S{opacity:.4}.sf{stroke:none;fill:black}.sfh{stroke:none;fill:url(#hs)}.sfv{stroke:none;fill:url(#vs)}.ss{stroke:black;fill:none}.ssh{stroke:url(#hs);fill:none}.ssv{stroke:url(#vs);fill:none}.s1{fill:none;stroke:rgb(17,75,95)}.f1{stroke:none;fill:rgb(17,75,95)}.sh1{fill:none;stroke:url(#h1)}.fh1{stroke:none;fill:url(#h1)}.sv1{fill:none;stroke:url(#v1)}.fv1{stroke:none;fill:url(#v1)}.s2{fill:none;stroke:rgb(244,91,105)}.f2{stroke:none;fill:rgb(244,91,105)}.sh2{fill:none;stroke:url(#h2)}.fh2{stroke:none;fill:url(#h2)}.sv2{fill:none;stroke:url(#v2)}.fv2{stroke:none;fill:url(#v2)}.s3{fill:none;stroke:rgb(2,128,144)}.f3{stroke:none;fill:rgb(2,128,144)}.sh3{fill:none;stroke:url(#h3)}.fh3{stroke:none;fill:url(#h3)}.sv3{fill:none;stroke:url(#v3)}.fv3{stroke:none;fill:url(#v3)}.s4{fill:none;stroke:rgb(34,34,34)}.f4{stroke:none;fill:rgb(34,34,34)}.sh4{fill:none;stroke:url(#h4)}.fh4{stroke:none;fill:url(#h4)}.sv4{fill:none;stroke:url(#v4)}.fv4{stroke:none;fill:url(#v4)}.s5{fill:none;stroke:rgb(69,105,144)}.f5{stroke:none;fill:rgb(69,105,144)}.sh5{fill:none;stroke:url(#h5)}.fh5{stroke:none;fill:url(#h5)}.sv5{fill:none;stroke:url(#v5)}.fv5{stroke:none;fill:url(#v5)}.s6{fill:none;stroke:rgb(255,255,255)}.f6{stroke:none;fill:rgb(255,255,255)}.sh6{fill:none;stroke:url(#h6)}.fh6{stroke:none;fill:url(#h6)}.sv6{fill:none;stroke:url(#v6)}.fv6{stroke:none;fill:url(#v6)}.s7{fill:none;stroke:rgb(255,0,0)}.f7{stroke:none;fill:rgb(255,0,0)}.sh7{fill:none;stroke:url(#h7)}.fh7{stroke:none;fill:url(#h7)}.sv7{fill:none;stroke:url(#v7)}.fv7{stroke:none;fill:url(#v7)}/*]]>*/</style><defs><linearGradient gradientTransform="rotate(90)" id="hs"><stop offset="20%" stop-color="#000" /><stop offset="95%" stop-color="rgba(0, 0, 0, 0)" /></linearGradient><linearGradient id="vs"><stop offset="20%" stop-color="#000" /><stop offset="95%" stop-color="rgba(0, 0, 0, 0)" /></linearGradient><linearGradient gradientTransform="rotate(90)" id="h1"><stop offset="20%" stop-color="rgba(17,75,95,1)" /><stop offset="95%" stop-color="rgba(17,75,95,0)" /></linearGradient><linearGradient id="v1"><stop offset="20%" stop-color="rgba(17,75,95,1)" /><stop offset="95%" stop-color="rgba(17,75,95,0)" /></linearGradient><linearGradient gradientTransform="rotate(90)" id="h2"><stop offset="20%" stop-color="rgba(244,91,105,1)" /><stop offset="95%" stop-color="rgba(244,91,105,0)" /></linearGradient><linearGradient id="v2"><stop offset="20%" stop-color="rgba(244,91,105,1)" /><stop offset="95%" stop-color="rgba(244,91,105,0)" /></linearGradient><linearGradient gradientTransform="rotate(90)" id="h3"><stop offset="20%" stop-color="rgba(2,128,144,1)" /><stop offset="95%" stop-color="rgba(2,128,144,0)" /></linearGradient><linearGradient id="v3"><stop offset="20%" stop-color="rgba(2,128,144,1)" /><stop offset="95%" stop-color="rgba(2,128,144,0)" /></linearGradient><linearGradient gradientTransform="rotate(90)" id="h4"><stop offset="20%" stop-color="rgba(34,34,34,1)" /><stop offset="95%" stop-color="rgba(34,34,34,0)" /></linearGradient><linearGradient id="v4"><stop offset="20%" stop-color="rgba(34,34,34,1)" /><stop offset="95%" stop-color="rgba(34,34,34,0)" /></linearGradient><linearGradient gradientTransform="rotate(90)" id="h5"><stop offset="20%" stop-color="rgba(69,105,144,1)" /><stop offset="95%" stop-color="rgba(69,105,144,0)" /></linearGradient><linearGradient id="v5"><stop offset="20%" stop-color="rgba(69,105,144,1)" /><stop offset="95%" stop-color="rgba(69,105,144,0)" /></linearGradient><linearGradient gradientTransform="rotate(90)" id="h6"><stop offset="20%" stop-color="rgba(255,255,255,1)" /><stop offset="95%" stop-color="rgba(255,255,255,0)" /></linearGradient><linearGradient id="v6"><stop offset="20%" stop-color="rgba(255,255,255,1)" /><stop offset="95%" stop-color="rgba(255,255,255,0)" /></linearGradient><linearGradient gradientTransform="rotate(90)" id="h7"><stop offset="20%" stop-color="rgba(255,0,0,1)" /><stop offset="95%" stop-color="rgba(255,0,0,0)" /></linearGradient><linearGradient id="v7"><stop offset="20%" stop-color="rgba(255,0,0,1)" /><stop offset="95%" stop-color="rgba(255,0,0,0)" /></linearGradient></defs><g transform-origin="1500 1500" transform="scale(2)" opacity=".2"><g id="slashes"><g class="o"><path transform="translate(2,4)" class="S sf" d="M1164 1374 L1331 1207 L1331 1295 L1164 1462 Z"/><path class="f3" d="M1164 1374 L1331 1207 L1331 1295 L1164 1462 Z" /></g><g class="o"><path transform="translate(7,14)" class="S sfh" d="M1024 1272 L1157 1139 L1187 1139 L1054 1272 Z"/><path class="fh1" d="M1024 1272 L1157 1139 L1187 1139 L1054 1272 Z" /></g><g class="o"><path transform="translate(4,8)" class="S sfv" d="M1722 1760 L1855 1893 L1855 1949 L1722 1816 Z"/><path class="fv7" d="M1722 1760 L1855 1893 L1855 1949 L1722 1816 Z" /></g><g class="o"><path transform="translate(5,10)" class="S sf" d="M1031 1666 L1276 1911 L1290 1911 L1045 1666 Z"/><path class="f2" d="M1031 1666 L1276 1911 L1290 1911 L1045 1666 Z" /></g><g class="o"><path transform="translate(2,4)" class="S sfh" d="M1038 1335 L934 1231 L966 1231 L1070 1335 Z"/><path class="fh4" d="M1038 1335 L934 1231 L966 1231 L1070 1335 Z" /></g><g class="o"><path transform="translate(6,12)" class="S sf" d="M1766 1246 L1972 1040 L1972 1088 L1766 1294 Z"/><path class="f2" d="M1766 1246 L1972 1040 L1972 1088 L1766 1294 Z" /></g><g class="o"><path transform="translate(5,10)" class="S ssh" d="M1327 1901 L1214 2014 L1246 2014 L1359 1901 Z"/><path class="sh6" d="M1327 1901 L1214 2014 L1246 2014 L1359 1901 Z" /></g><g class="o"><path transform="translate(7,14)" class="S sfh" d="M1720 1228 L1934 1014 L2054 1014 L1840 1228 Z"/><path class="fh4" d="M1720 1228 L1934 1014 L2054 1014 L1840 1228 Z" /></g><g class="o"><path transform="translate(6,12)" class="S sfv" d="M1297 1163 L1219 1085 L1219 1103 L1297 1181 Z"/><path class="fv5" d="M1297 1163 L1219 1085 L1219 1103 L1297 1181 Z" /></g><g class="o"><path transform="translate(5,10)" class="S sfv" d="M1510 1940 L1663 2093 L1663 2125 L1510 1972 Z"/><path class="fv1" d="M1510 1940 L1663 2093 L1663 2125 L1510 1972 Z" /></g><g class="o"><path transform="translate(2,4)" class="S sf" d="M1862 1831 L2047 1646 L2199 1646 L2014 1831 Z"/><path class="f4" d="M1862 1831 L2047 1646 L2199 1646 L2014 1831 Z" /></g><g class="o"><path transform="translate(9,18)" class="S sf" d="M1958 1762 L2155 1959 L2155 2007 L1958 1810 Z"/><path class="f4" d="M1958 1762 L2155 1959 L2155 2007 L1958 1810 Z" /></g><g class="o"><path transform="translate(2,4)" class="S sfv" d="M1336 1931 L1188 1783 L1188 1815 L1336 1963 Z"/><path class="fv2" d="M1336 1931 L1188 1783 L1188 1815 L1336 1963 Z" /></g><g class="o"><path transform="translate(5,10)" class="S sfh" d="M1781 1824 L1871 1914 L1943 1914 L1853 1824 Z"/><path class="fh7" d="M1781 1824 L1871 1914 L1943 1914 L1853 1824 Z" /></g><g class="o"><path transform="translate(7,14)" class="S ssh" d="M1902 1879 L2046 1735 L2084 1735 L1940 1879 Z"/><path class="sh6" d="M1902 1879 L2046 1735 L2084 1735 L1940 1879 Z" /></g><g class="o"><path transform="translate(2,4)" class="S sfv" d="M1747 1011 L1541 805 L1541 885 L1747 1091 Z"/><path class="fv5" d="M1747 1011 L1541 805 L1541 885 L1747 1091 Z" /></g><g class="o"><path transform="translate(2,4)" class="S sfv" d="M1524 1324 L1631 1431 L1631 1551 L1524 1444 Z"/><path class="fv6" d="M1524 1324 L1631 1431 L1631 1551 L1524 1444 Z" /></g><g class="o"><path transform="translate(8,16)" class="S ssh" d="M1352 2007 L1301 1956 L1327 1956 L1378 2007 Z"/><path class="sh1" d="M1352 2007 L1301 1956 L1327 1956 L1378 2007 Z" /></g><g class="o"><path transform="translate(5,10)" class="S sfv" d="M1547 1151 L1771 1375 L1771 1399 L1547 1175 Z"/><path class="fv6" d="M1547 1151 L1771 1375 L1771 1399 L1547 1175 Z" /></g><g class="o"><path transform="translate(4,8)" class="S sfv" d="M1583 1192 L1519 1256 L1519 1282 L1583 1218 Z"/><path class="fv6" d="M1583 1192 L1519 1256 L1519 1282 L1583 1218 Z" /></g><g class="o"><path transform="translate(4,8)" class="S ssh" d="M1313 1420 L1375 1358 L1479 1358 L1417 1420 Z"/><path class="sh5" d="M1313 1420 L1375 1358 L1479 1358 L1417 1420 Z" /></g><g class="o"><path transform="translate(9,18)" class="S sfv" d="M1926 1002 L1805 881 L1805 945 L1926 1066 Z"/><path class="fv7" d="M1926 1002 L1805 881 L1805 945 L1926 1066 Z" /></g><g class="o"><path transform="translate(6,12)" class="S sfh" d="M1526 1955 L1286 1715 L1366 1715 L1606 1955 Z"/><path class="fh1" d="M1526 1955 L1286 1715 L1366 1715 L1606 1955 Z" /></g><g class="o"><path transform="translate(6,12)" class="S sfv" d="M1064 938 L864 1138 L864 1194 L1064 994 Z"/><path class="fv4" d="M1064 938 L864 1138 L864 1194 L1064 994 Z" /></g><g class="o"><path transform="translate(8,16)" class="S sfv" d="M1407 1671 L1194 1458 L1194 1468 L1407 1681 Z"/><path class="fv3" d="M1407 1671 L1194 1458 L1194 1468 L1407 1681 Z" /></g><g class="o"><path transform="translate(8,16)" class="S sf" d="M1966 1979 L2167 2180 L2175 2180 L1974 1979 Z"/><path class="f5" d="M1966 1979 L2167 2180 L2175 2180 L1974 1979 Z" /></g><g class="o"><path transform="translate(2,4)" class="S sfv" d="M1214 1950 L1401 2137 L1401 2149 L1214 1962 Z"/><path class="fv1" d="M1214 1950 L1401 2137 L1401 2149 L1214 1962 Z" /></g><g class="o"><path transform="translate(2,4)" class="S ssh" d="M1686 1295 L1745 1236 L1757 1236 L1698 1295 Z"/><path class="sh3" d="M1686 1295 L1745 1236 L1757 1236 L1698 1295 Z" /></g><g class="o"><path transform="translate(4,8)" class="S sf" d="M1921 1023 L2040 1142 L2068 1142 L1949 1023 Z"/><path class="f6" d="M1921 1023 L2040 1142 L2068 1142 L1949 1023 Z" /></g><g class="o"><path transform="translate(8,16)" class="S sfv" d="M1184 1975 L1378 2169 L1378 2233 L1184 2039 Z"/><path class="fv3" d="M1184 1975 L1378 2169 L1378 2233 L1184 2039 Z" /></g><g class="o"><path transform="translate(4,8)" class="S sfv" d="M1623 1860 L1691 1928 L1691 1964 L1623 1896 Z"/><path class="fv1" d="M1623 1860 L1691 1928 L1691 1964 L1623 1896 Z" /></g><g class="o"><path transform="translate(3,6)" class="S sf" d="M1001 1741 L1102 1842 L1102 1880 L1001 1779 Z"/><path class="f1" d="M1001 1741 L1102 1842 L1102 1880 L1001 1779 Z" /></g><g class="o"><path transform="translate(5,10)" class="S ssv" d="M1398 1552 L1304 1458 L1304 1484 L1398 1578 Z"/><path class="sv3" d="M1398 1552 L1304 1458 L1304 1484 L1398 1578 Z" /></g><g class="o"><path transform="translate(9,18)" class="S sfh" d="M1544 1879 L1595 1930 L1731 1930 L1680 1879 Z"/><path class="fh6" d="M1544 1879 L1595 1930 L1731 1930 L1680 1879 Z" /></g><g class="o"><path transform="translate(3,6)" class="S sfh" d="M1051 1195 L1284 1428 L1340 1428 L1107 1195 Z"/><path class="fh2" d="M1051 1195 L1284 1428 L1340 1428 L1107 1195 Z" /></g><g class="o"><path transform="translate(6,12)" class="S sfv" d="M953 1768 L758 1573 L758 1605 L953 1800 Z"/><path class="fv7" d="M953 1768 L758 1573 L758 1605 L953 1800 Z" /></g><g class="o"><path transform="translate(7,14)" class="S sfh" d="M1543 1115 L1792 866 L1810 866 L1561 1115 Z"/><path class="fh1" d="M1543 1115 L1792 866 L1810 866 L1561 1115 Z" /></g><g class="o"><path transform="translate(3,6)" class="S sfh" d="M1748 1584 L1688 1524 L1824 1524 L1884 1584 Z"/><path class="fh6" d="M1748 1584 L1688 1524 L1824 1524 L1884 1584 Z" /></g><g class="o"><path transform="translate(6,12)" class="S sfv" d="M1290 1372 L1400 1482 L1400 1602 L1290 1492 Z"/><path class="fv7" d="M1290 1372 L1400 1482 L1400 1602 L1290 1492 Z" /></g><g class="o"><path transform="translate(8,16)" class="S sfh" d="M1093 1261 L1304 1472 L1328 1472 L1117 1261 Z"/><path class="fh3" d="M1093 1261 L1304 1472 L1328 1472 L1117 1261 Z" /></g><g class="o"><path transform="translate(2,4)" class="S sfh" d="M1514 1749 L1660 1603 L1716 1603 L1570 1749 Z"/><path class="fh4" d="M1514 1749 L1660 1603 L1716 1603 L1570 1749 Z" /></g><g class="o"><path transform="translate(7,14)" class="S ssh" d="M1467 1574 L1626 1733 L1662 1733 L1503 1574 Z"/><path class="sh1" d="M1467 1574 L1626 1733 L1662 1733 L1503 1574 Z" /></g><g class="o"><path transform="translate(5,10)" class="S sf" d="M1742 1667 L1878 1531 L1878 1659 L1742 1795 Z"/><path class="f2" d="M1742 1667 L1878 1531 L1878 1659 L1742 1795 Z" /></g><g class="o"><path transform="translate(7,14)" class="S sfh" d="M1363 1399 L1598 1164 L1618 1164 L1383 1399 Z"/><path class="fh5" d="M1363 1399 L1598 1164 L1618 1164 L1383 1399 Z" /></g><g class="o"><path transform="translate(4,8)" class="S sfh" d="M1839 1330 L2088 1081 L2106 1081 L1857 1330 Z"/><path class="fh7" d="M1839 1330 L2088 1081 L2106 1081 L1857 1330 Z" /></g><g class="o"><path transform="translate(6,12)" class="S sfv" d="M1903 1890 L2134 1659 L2134 1675 L1903 1906 Z"/><path class="fv2" d="M1903 1890 L2134 1659 L2134 1675 L1903 1906 Z" /></g><g class="o"><path transform="translate(2,4)" class="S ssv" d="M977 1911 L1081 1807 L1081 1815 L977 1919 Z"/><path class="sv5" d="M977 1911 L1081 1807 L1081 1815 L977 1919 Z" /></g><g class="o"><path transform="translate(2,4)" class="S sfv" d="M1056 1606 L934 1728 L934 1764 L1056 1642 Z"/><path class="fv2" d="M1056 1606 L934 1728 L934 1764 L1056 1642 Z" /></g><g class="o"><path transform="translate(6,12)" class="S sfv" d="M1646 1051 L1468 873 L1468 897 L1646 1075 Z"/><path class="fv7" d="M1646 1051 L1468 873 L1468 897 L1646 1075 Z" /></g><g class="o"><path transform="translate(2,4)" class="S sf" d="M2037 1546 L1916 1667 L1916 1697 L2037 1576 Z"/><path class="f1" d="M2037 1546 L1916 1667 L1916 1697 L2037 1576 Z" /></g><g class="o"><path transform="translate(8,16)" class="S sfv" d="M1711 1177 L1945 943 L1945 965 L1711 1199 Z"/><path class="fv4" d="M1711 1177 L1945 943 L1945 965 L1711 1199 Z" /></g><g class="o"><path transform="translate(6,12)" class="S sf" d="M1367 1878 L1606 1639 L1620 1639 L1381 1878 Z"/><path class="f4" d="M1367 1878 L1606 1639 L1620 1639 L1381 1878 Z" /></g><g class="o"><path transform="translate(6,12)" class="S sfh" d="M1970 1194 L2207 957 L2235 957 L1998 1194 Z"/><path class="fh6" d="M1970 1194 L2207 957 L2235 957 L1998 1194 Z" /></g><g class="o"><path transform="translate(4,8)" class="S sfh" d="M1776 966 L2024 718 L2144 718 L1896 966 Z"/><path class="fh2" d="M1776 966 L2024 718 L2144 718 L1896 966 Z" /></g><g class="o"><path transform="translate(4,8)" class="S sfh" d="M1786 1860 L1869 1943 L1891 1943 L1808 1860 Z"/><path class="fh5" d="M1786 1860 L1869 1943 L1891 1943 L1808 1860 Z" /></g><g class="o"><path transform="translate(3,6)" class="S sfv" d="M1014 1755 L1220 1961 L1220 1987 L1014 1781 Z"/><path class="fv6" d="M1014 1755 L1220 1961 L1220 1987 L1014 1781 Z" /></g><g class="o"><path transform="translate(7,14)" class="S sfh" d="M1647 1088 L1579 1156 L1605 1156 L1673 1088 Z"/><path class="fh5" d="M1647 1088 L1579 1156 L1605 1156 L1673 1088 Z" /></g><g class="o"><path transform="translate(2,4)" class="S sfh" d="M1565 1462 L1644 1541 L1748 1541 L1669 1462 Z"/><path class="fh4" d="M1565 1462 L1644 1541 L1748 1541 L1669 1462 Z" /></g><g class="o"><path transform="translate(2,4)" class="S sfh" d="M1365 1922 L1423 1980 L1535 1980 L1477 1922 Z"/><path class="fh5" d="M1365 1922 L1423 1980 L1535 1980 L1477 1922 Z" /></g><g class="o"><path transform="translate(5,10)" class="S ssv" d="M1913 1384 L1834 1463 L1834 1503 L1913 1424 Z"/><path class="sv5" d="M1913 1384 L1834 1463 L1834 1503 L1913 1424 Z" /></g><g class="o"><path transform="translate(4,8)" class="S sfh" d="M1423 1335 L1355 1267 L1371 1267 L1439 1335 Z"/><path class="fh6" d="M1423 1335 L1355 1267 L1371 1267 L1439 1335 Z" /></g><g class="o"><path transform="translate(4,8)" class="S sfh" d="M930 1237 L1114 1053 L1162 1053 L978 1237 Z"/><path class="fh5" d="M930 1237 L1114 1053 L1162 1053 L978 1237 Z" /></g><g class="o"><path transform="translate(9,18)" class="S sfv" d="M1321 1460 L1566 1705 L1566 1733 L1321 1488 Z"/><path class="fv1" d="M1321 1460 L1566 1705 L1566 1733 L1321 1488 Z" /></g><g class="o"><path transform="translate(5,10)" class="S sf" d="M1340 1429 L1445 1324 L1445 1356 L1340 1461 Z"/><path class="f5" d="M1340 1429 L1445 1324 L1445 1356 L1340 1461 Z" /></g><g class="o"><path transform="translate(6,12)" class="S sfh" d="M1596 1998 L1828 1766 L1844 1766 L1612 1998 Z"/><path class="fh6" d="M1596 1998 L1828 1766 L1844 1766 L1612 1998 Z" /></g><g class="o"><path transform="translate(3,6)" class="S sf" d="M1046 1886 L1290 1642 L1362 1642 L1118 1886 Z"/><path class="f4" d="M1046 1886 L1290 1642 L1362 1642 L1118 1886 Z" /></g><g class="o"><path transform="translate(9,18)" class="S sfh" d="M1269 1930 L1508 2169 L1532 2169 L1293 1930 Z"/><path class="fh2" d="M1269 1930 L1508 2169 L1532 2169 L1293 1930 Z" /></g><g class="o"><path transform="translate(3,6)" class="S sf" d="M1492 1346 L1285 1139 L1285 1147 L1492 1354 Z"/><path class="f4" d="M1492 1346 L1285 1139 L1285 1147 L1492 1354 Z" /></g><g class="o"><path transform="translate(8,16)" class="S ssh" d="M974 1048 L1057 1131 L1089 1131 L1006 1048 Z"/><path class="sh7" d="M974 1048 L1057 1131 L1089 1131 L1006 1048 Z" /></g><g class="o"><path transform="translate(5,10)" class="S sfv" d="M1925 1484 L2145 1264 L2145 1304 L1925 1524 Z"/><path class="fv6" d="M1925 1484 L2145 1264 L2145 1304 L1925 1524 Z" /></g><g class="o"><path transform="translate(8,16)" class="S sfh" d="M1204 1828 L1391 2015 L1439 2015 L1252 1828 Z"/><path class="fh2" d="M1204 1828 L1391 2015 L1439 2015 L1252 1828 Z" /></g><g class="o"><path transform="translate(2,4)" class="S sfh" d="M1486 1545 L1711 1320 L1725 1320 L1500 1545 Z"/><path class="fh5" d="M1486 1545 L1711 1320 L1725 1320 L1500 1545 Z" /></g><g class="o"><path transform="translate(5,10)" class="S ssh" d="M1386 1701 L1628 1943 L1650 1943 L1408 1701 Z"/><path class="sh1" d="M1386 1701 L1628 1943 L1650 1943 L1408 1701 Z" /></g><g class="o"><path transform="translate(8,16)" class="S sfv" d="M1055 1291 L1274 1510 L1274 1590 L1055 1371 Z"/><path class="fv3" d="M1055 1291 L1274 1510 L1274 1590 L1055 1371 Z" /></g><g class="o"><path transform="translate(7,14)" class="S sf" d="M1631 2020 L1772 1879 L1790 1879 L1649 2020 Z"/><path class="f5" d="M1631 2020 L1772 1879 L1790 1879 L1649 2020 Z" /></g><g class="o"><path transform="translate(9,18)" class="S sfh" d="M1719 1304 L1786 1237 L1810 1237 L1743 1304 Z"/><path class="fh7" d="M1719 1304 L1786 1237 L1810 1237 L1743 1304 Z" /></g><g class="o"><path transform="translate(2,4)" class="S sfv" d="M1592 1627 L1662 1557 L1662 1585 L1592 1655 Z"/><path class="fv6" d="M1592 1627 L1662 1557 L1662 1585 L1592 1655 Z" /></g><g class="o"><path transform="translate(8,16)" class="S sfv" d="M1618 1383 L1746 1255 L1746 1281 L1618 1409 Z"/><path class="fv3" d="M1618 1383 L1746 1255 L1746 1281 L1618 1409 Z" /></g><g class="o"><path transform="translate(3,6)" class="S sfh" d="M1989 1240 L2095 1346 L2167 1346 L2061 1240 Z"/><path class="fh6" d="M1989 1240 L2095 1346 L2167 1346 L2061 1240 Z" /></g><g class="o"><path transform="translate(8,16)" class="S sfh" d="M970 1354 L1186 1138 L1250 1138 L1034 1354 Z"/><path class="fh1" d="M970 1354 L1186 1138 L1250 1138 L1034 1354 Z" /></g><g class="o"><path transform="translate(3,6)" class="S sfh" d="M1052 1281 L1177 1156 L1197 1156 L1072 1281 Z"/><path class="fh5" d="M1052 1281 L1177 1156 L1197 1156 L1072 1281 Z" /></g><g class="o"><path transform="translate(4,8)" class="S sfv" d="M1252 1445 L1446 1251 L1446 1265 L1252 1459 Z"/><path class="fv6" d="M1252 1445 L1446 1251 L1446 1265 L1252 1459 Z" /></g><g class="o"><path transform="translate(8,16)" class="S ss" d="M1334 1647 L1514 1827 L1554 1827 L1374 1647 Z"/><path class="s2" d="M1334 1647 L1514 1827 L1554 1827 L1374 1647 Z" /></g><g class="o"><path transform="translate(4,8)" class="S sfv" d="M1168 1616 L1400 1384 L1400 1392 L1168 1624 Z"/><path class="fv6" d="M1168 1616 L1400 1384 L1400 1392 L1168 1624 Z" /></g><g class="o"><path transform="translate(3,6)" class="S ss" d="M1472 1307 L1691 1088 L1731 1088 L1512 1307 Z"/><path class="s1" d="M1472 1307 L1691 1088 L1731 1088 L1512 1307 Z" /></g><g class="o"><path transform="translate(8,16)" class="S sfv" d="M1817 1356 L2022 1151 L2022 1187 L1817 1392 Z"/><path class="fv1" d="M1817 1356 L2022 1151 L2022 1187 L1817 1392 Z" /></g><g class="o"><path transform="translate(9,18)" class="S sfv" d="M1127 1933 L977 2083 L977 2109 L1127 1959 Z"/><path class="fv1" d="M1127 1933 L977 2083 L977 2109 L1127 1959 Z" /></g><g class="o"><path transform="translate(2,4)" class="S sfh" d="M974 1026 L1102 1154 L1190 1154 L1062 1026 Z"/><path class="fh4" d="M974 1026 L1102 1154 L1190 1154 L1062 1026 Z" /></g><g class="o"><path transform="translate(7,14)" class="S sfh" d="M1287 1690 L1428 1549 L1484 1549 L1343 1690 Z"/><path class="fh4" d="M1287 1690 L1428 1549 L1484 1549 L1343 1690 Z" /></g><g class="o"><path transform="translate(8,16)" class="S sfv" d="M1571 999 L1793 777 L1793 817 L1571 1039 Z"/><path class="fv1" d="M1571 999 L1793 777 L1793 817 L1571 1039 Z" /></g><g class="o"><path transform="translate(9,18)" class="S sfh" d="M2008 1628 L2072 1564 L2108 1564 L2044 1628 Z"/><path class="fh7" d="M2008 1628 L2072 1564 L2108 1564 L2044 1628 Z" /></g><g class="o"><path transform="translate(8,16)" class="S sfv" d="M1765 1530 L1618 1383 L1618 1535 L1765 1682 Z"/><path class="fv3" d="M1765 1530 L1618 1383 L1618 1535 L1765 1682 Z" /></g><g class="o"><path transform="translate(2,4)" class="S sfh" d="M1458 1800 L1280 1978 L1376 1978 L1554 1800 Z"/><path class="fh7" d="M1458 1800 L1280 1978 L1376 1978 L1554 1800 Z" /></g><g class="o"><path transform="translate(2,4)" class="S ssh" d="M1618 1626 L1847 1397 L1959 1397 L1730 1626 Z"/><path class="sh6" d="M1618 1626 L1847 1397 L1959 1397 L1730 1626 Z" /></g><g class="o"><path transform="translate(9,18)" class="S sfh" d="M1456 1986 L1686 2216 L1758 2216 L1528 1986 Z"/><path class="fh1" d="M1456 1986 L1686 2216 L1758 2216 L1528 1986 Z" /></g><g class="o"><path transform="translate(4,8)" class="S sfv" d="M1345 1400 L1574 1171 L1574 1189 L1345 1418 Z"/><path class="fv5" d="M1345 1400 L1574 1171 L1574 1189 L1345 1418 Z" /></g><g class="o"><path transform="translate(3,6)" class="S sfh" d="M1961 1519 L2179 1301 L2203 1301 L1985 1519 Z"/><path class="fh5" d="M1961 1519 L2179 1301 L2203 1301 L1985 1519 Z" /></g><g class="o"><path transform="translate(8,16)" class="S sfv" d="M1286 1641 L1444 1483 L1444 1503 L1286 1661 Z"/><path class="fv3" d="M1286 1641 L1444 1483 L1444 1503 L1286 1661 Z" /></g><g class="o"><path transform="translate(7,14)" class="S sf" d="M1624 994 L1863 755 L1999 755 L1760 994 Z"/><path class="f2" d="M1624 994 L1863 755 L1999 755 L1760 994 Z" /></g><g class="o"><path transform="translate(9,18)" class="S sfv" d="M1694 1442 L1602 1534 L1602 1568 L1694 1476 Z"/><path class="fv4" d="M1694 1442 L1602 1534 L1602 1568 L1694 1476 Z" /></g><g class="o"><path transform="translate(7,14)" class="S sfh" d="M1122 1404 L1260 1542 L1292 1542 L1154 1404 Z"/><path class="fh2" d="M1122 1404 L1260 1542 L1292 1542 L1154 1404 Z" /></g><g class="o"><path transform="translate(2,4)" class="S sfv" d="M2021 1340 L2233 1552 L2233 1664 L2021 1452 Z"/><path class="fv3" d="M2021 1340 L2233 1552 L2233 1664 L2021 1452 Z" /></g><g class="o"><path transform="translate(4,8)" class="S sfv" d="M1610 1216 L1841 1447 L1841 1481 L1610 1250 Z"/><path class="fv1" d="M1610 1216 L1841 1447 L1841 1481 L1610 1250 Z" /></g><g class="o"><path transform="translate(2,4)" class="S ssv" d="M977 1271 L800 1094 L800 1238 L977 1415 Z"/><path class="sv1" d="M977 1271 L800 1094 L800 1238 L977 1415 Z" /></g><g class="o"><path transform="translate(6,12)" class="S ss" d="M1591 1905 L1403 1717 L1419 1717 L1607 1905 Z"/><path class="s1" d="M1591 1905 L1403 1717 L1419 1717 L1607 1905 Z" /></g><g class="o"><path transform="translate(6,12)" class="S sfh" d="M1956 1875 L1708 2123 L1812 2123 L2060 1875 Z"/><path class="fh4" d="M1956 1875 L1708 2123 L1812 2123 L2060 1875 Z" /></g><g class="o"><path transform="translate(6,12)" class="S sfh" d="M1950 1714 L2181 1945 L2211 1945 L1980 1714 Z"/><path class="fh7" d="M1950 1714 L2181 1945 L2211 1945 L1980 1714 Z" /></g><g class="o"><path transform="translate(9,18)" class="S sf" d="M1544 1455 L1675 1586 L1707 1586 L1576 1455 Z"/><path class="f1" d="M1544 1455 L1675 1586 L1707 1586 L1576 1455 Z" /></g><g class="o"><path transform="translate(5,10)" class="S sfv" d="M1270 1599 L1407 1736 L1407 1760 L1270 1623 Z"/><path class="fv2" d="M1270 1599 L1407 1736 L1407 1760 L1270 1623 Z" /></g><g class="o"><path transform="translate(7,14)" class="S sfv" d="M1755 1824 L1893 1962 L1893 2050 L1755 1912 Z"/><path class="fv2" d="M1755 1824 L1893 1962 L1893 2050 L1755 1912 Z" /></g><g class="o"><path transform="translate(3,6)" class="S sfv" d="M1028 1915 L1137 1806 L1137 1958 L1028 2067 Z"/><path class="fv1" d="M1028 1915 L1137 1806 L1137 1958 L1028 2067 Z" /></g><g class="o"><path transform="translate(7,14)" class="S ssv" d="M981 1330 L1185 1534 L1185 1562 L981 1358 Z"/><path class="sv5" d="M981 1330 L1185 1534 L1185 1562 L981 1358 Z" /></g><g class="o"><path transform="translate(9,18)" class="S ss" d="M1284 1531 L1111 1358 L1111 1372 L1284 1545 Z"/><path class="s1" d="M1284 1531 L1111 1358 L1111 1372 L1284 1545 Z" /></g><g class="o"><path transform="translate(6,12)" class="S sfv" d="M1929 1695 L2049 1575 L2049 1611 L1929 1731 Z"/><path class="fv7" d="M1929 1695 L2049 1575 L2049 1611 L1929 1731 Z" /></g><g class="o"><path transform="translate(2,4)" class="S sfv" d="M1210 1468 L1059 1619 L1059 1655 L1210 1504 Z"/><path class="fv6" d="M1210 1468 L1059 1619 L1059 1655 L1210 1504 Z" /></g><g class="o"><path transform="translate(7,14)" class="S sfv" d="M1635 2003 L1542 1910 L1542 1924 L1635 2017 Z"/><path class="fv3" d="M1635 2003 L1542 1910 L1542 1924 L1635 2017 Z" /></g><g class="o"><path transform="translate(5,10)" class="S ss" d="M2044 1101 L2290 1347 L2290 1365 L2044 1119 Z"/><path class="s4" d="M2044 1101 L2290 1347 L2290 1365 L2044 1119 Z" /></g><g class="o"><path transform="translate(7,14)" class="S sfh" d="M1356 1880 L1141 2095 L1221 2095 L1436 1880 Z"/><path class="fh5" d="M1356 1880 L1141 2095 L1221 2095 L1436 1880 Z" /></g><g class="o"><path transform="translate(5,10)" class="S sfv" d="M1918 992 L2028 1102 L2028 1190 L1918 1080 Z"/><path class="fv6" d="M1918 992 L2028 1102 L2028 1190 L1918 1080 Z" /></g><g class="o"><path transform="translate(4,8)" class="S sfh" d="M1119 1516 L888 1747 L1000 1747 L1231 1516 Z"/><path class="fh1" d="M1119 1516 L888 1747 L1000 1747 L1231 1516 Z" /></g></g><use href="#slashes" transform-origin="1500 1500" transform="rotate(180) scale(2)"/></g><rect x="1080" y="1080" width="840" height="840" stroke-width="20" class="o s2" /><use href="#slashes" transform-origin="1500 1500" transform="scale(.3)"/><use href="#slashes" transform-origin="1500 1500" transform="rotate(180) scale(.7)"/></svg>