<svg xmlns="http://www.w3.org/2000/svg" viewBox="750 750 1500 1500"><style>/*<![CDATA[*/svg{background:rgb(74,78,105);max-width:100vw;max-height:100vh}path{stroke-width:4}.o{opacity:.75}.S{opacity:.4}.sf{stroke:none;fill:black}.sfh{stroke:none;fill:url(#hs)}.sfv{stroke:none;fill:url(#vs)}.ss{stroke:black;fill:none}.ssh{stroke:url(#hs);fill:none}.ssv{stroke:url(#vs);fill:none}.s1{fill:none;stroke:rgb(242,233,228)}.f1{stroke:none;fill:rgb(242,233,228)}.sh1{fill:none;stroke:url(#h1)}.fh1{stroke:none;fill:url(#h1)}.sv1{fill:none;stroke:url(#v1)}.fv1{stroke:none;fill:url(#v1)}.s2{fill:none;stroke:rgb(34,34,34)}.f2{stroke:none;fill:rgb(34,34,34)}.sh2{fill:none;stroke:url(#h2)}.fh2{stroke:none;fill:url(#h2)}.sv2{fill:none;stroke:url(#v2)}.fv2{stroke:none;fill:url(#v2)}.s3{fill:none;stroke:rgb(34,34,59)}.f3{stroke:none;fill:rgb(34,34,59)}.sh3{fill:none;stroke:url(#h3)}.fh3{stroke:none;fill:url(#h3)}.sv3{fill:none;stroke:url(#v3)}.fv3{stroke:none;fill:url(#v3)}.s4{fill:none;stroke:rgb(154,140,152)}.f4{stroke:none;fill:rgb(154,140,152)}.sh4{fill:none;stroke:url(#h4)}.fh4{stroke:none;fill:url(#h4)}.sv4{fill:none;stroke:url(#v4)}.fv4{stroke:none;fill:url(#v4)}.s5{fill:none;stroke:rgb(201,173,167)}.f5{stroke:none;fill:rgb(201,173,167)}.sh5{fill:none;stroke:url(#h5)}.fh5{stroke:none;fill:url(#h5)}.sv5{fill:none;stroke:url(#v5)}.fv5{stroke:none;fill:url(#v5)}.s6{fill:none;stroke:rgb(255,255,255)}.f6{stroke:none;fill:rgb(255,255,255)}.sh6{fill:none;stroke:url(#h6)}.fh6{stroke:none;fill:url(#h6)}.sv6{fill:none;stroke:url(#v6)}.fv6{stroke:none;fill:url(#v6)}.s7{fill:none;stroke:rgb(255,0,0)}.f7{stroke:none;fill:rgb(255,0,0)}.sh7{fill:none;stroke:url(#h7)}.fh7{stroke:none;fill:url(#h7)}.sv7{fill:none;stroke:url(#v7)}.fv7{stroke:none;fill:url(#v7)}/*]]>*/</style><defs><linearGradient gradientTransform="rotate(90)" id="hs"><stop offset="20%" stop-color="#000" /><stop offset="95%" stop-color="rgba(0, 0, 0, 0)" /></linearGradient><linearGradient id="vs"><stop offset="20%" stop-color="#000" /><stop offset="95%" stop-color="rgba(0, 0, 0, 0)" /></linearGradient><linearGradient gradientTransform="rotate(90)" id="h1"><stop offset="20%" stop-color="rgba(242,233,228,1)" /><stop offset="95%" stop-color="rgba(242,233,228,0)" /></linearGradient><linearGradient id="v1"><stop offset="20%" stop-color="rgba(242,233,228,1)" /><stop offset="95%" stop-color="rgba(242,233,228,0)" /></linearGradient><linearGradient gradientTransform="rotate(90)" id="h2"><stop offset="20%" stop-color="rgba(34,34,34,1)" /><stop offset="95%" stop-color="rgba(34,34,34,0)" /></linearGradient><linearGradient id="v2"><stop offset="20%" stop-color="rgba(34,34,34,1)" /><stop offset="95%" stop-color="rgba(34,34,34,0)" /></linearGradient><linearGradient gradientTransform="rotate(90)" id="h3"><stop offset="20%" stop-color="rgba(34,34,59,1)" /><stop offset="95%" stop-color="rgba(34,34,59,0)" /></linearGradient><linearGradient id="v3"><stop offset="20%" stop-color="rgba(34,34,59,1)" /><stop offset="95%" stop-color="rgba(34,34,59,0)" /></linearGradient><linearGradient gradientTransform="rotate(90)" id="h4"><stop offset="20%" stop-color="rgba(154,140,152,1)" /><stop offset="95%" stop-color="rgba(154,140,152,0)" /></linearGradient><linearGradient id="v4"><stop offset="20%" stop-color="rgba(154,140,152,1)" /><stop offset="95%" stop-color="rgba(154,140,152,0)" /></linearGradient><linearGradient gradientTransform="rotate(90)" id="h5"><stop offset="20%" stop-color="rgba(201,173,167,1)" /><stop offset="95%" stop-color="rgba(201,173,167,0)" /></linearGradient><linearGradient id="v5"><stop offset="20%" stop-color="rgba(201,173,167,1)" /><stop offset="95%" stop-color="rgba(201,173,167,0)" /></linearGradient><linearGradient gradientTransform="rotate(90)" id="h6"><stop offset="20%" stop-color="rgba(255,255,255,1)" /><stop offset="95%" stop-color="rgba(255,255,255,0)" /></linearGradient><linearGradient id="v6"><stop offset="20%" stop-color="rgba(255,255,255,1)" /><stop offset="95%" stop-color="rgba(255,255,255,0)" /></linearGradient><linearGradient gradientTransform="rotate(90)" id="h7"><stop offset="20%" stop-color="rgba(255,0,0,1)" /><stop offset="95%" stop-color="rgba(255,0,0,0)" /></linearGradient><linearGradient id="v7"><stop offset="20%" stop-color="rgba(255,0,0,1)" /><stop offset="95%" stop-color="rgba(255,0,0,0)" /></linearGradient></defs><g transform-origin="1500 1500" transform="scale(2)" opacity=".8"><g id="slashes"><g class="o"><path transform="translate(9,18)" class="S sfh" d="M1908 1993 L2113 1788 L2121 1788 L1916 1993 Z"/><path class="fh2" d="M1908 1993 L2113 1788 L2121 1788 L1916 1993 Z" /></g><g class="o"><path transform="translate(9,18)" class="S sfv" d="M1829 1023 L1759 953 L1759 989 L1829 1059 Z"/><path class="fv3" d="M1829 1023 L1759 953 L1759 989 L1829 1059 Z" /></g><g class="o"><path transform="translate(9,18)" class="S sfv" d="M1339 1081 L1433 987 L1433 1015 L1339 1109 Z"/><path class="fv6" d="M1339 1081 L1433 987 L1433 1015 L1339 1109 Z" /></g><g class="o"><path transform="translate(2,4)" class="S sfv" d="M1673 1887 L1808 1752 L1808 1782 L1673 1917 Z"/><path class="fv1" d="M1673 1887 L1808 1752 L1808 1782 L1673 1917 Z" /></g><g class="o"><path transform="translate(3,6)" class="S sfv" d="M1584 1563 L1755 1392 L1755 1426 L1584 1597 Z"/><path class="fv7" d="M1584 1563 L1755 1392 L1755 1426 L1584 1597 Z" /></g><g class="o"><path transform="translate(5,10)" class="S sfh" d="M1053 1222 L1107 1168 L1251 1168 L1197 1222 Z"/><path class="fh1" d="M1053 1222 L1107 1168 L1251 1168 L1197 1222 Z" /></g><g class="o"><path transform="translate(5,10)" class="S sfv" d="M2036 1312 L2171 1177 L2171 1211 L2036 1346 Z"/><path class="fv3" d="M2036 1312 L2171 1177 L2171 1211 L2036 1346 Z" /></g><g class="o"><path transform="translate(3,6)" class="S ssh" d="M1338 1495 L1186 1343 L1214 1343 L1366 1495 Z"/><path class="sh3" d="M1338 1495 L1186 1343 L1214 1343 L1366 1495 Z" /></g><g class="o"><path transform="translate(4,8)" class="S sfv" d="M2037 1938 L1932 1833 L1932 1863 L2037 1968 Z"/><path class="fv7" d="M2037 1938 L1932 1833 L1932 1863 L2037 1968 Z" /></g><g class="o"><path transform="translate(9,18)" class="S sfh" d="M1877 1261 L1945 1193 L1957 1193 L1889 1261 Z"/><path class="fh3" d="M1877 1261 L1945 1193 L1957 1193 L1889 1261 Z" /></g><g class="o"><path transform="translate(9,18)" class="S sfh" d="M1293 1558 L1353 1498 L1377 1498 L1317 1558 Z"/><path class="fh7" d="M1293 1558 L1353 1498 L1377 1498 L1317 1558 Z" /></g><g class="o"><path transform="translate(6,12)" class="S sfh" d="M1123 1238 L1309 1052 L1335 1052 L1149 1238 Z"/><path class="fh1" d="M1123 1238 L1309 1052 L1335 1052 L1149 1238 Z" /></g><g class="o"><path transform="translate(8,16)" class="S sfv" d="M1422 1079 L1546 955 L1546 965 L1422 1089 Z"/><path class="fv5" d="M1422 1079 L1546 955 L1546 965 L1422 1089 Z" /></g><g class="o"><path transform="translate(4,8)" class="S sfh" d="M1620 1900 L1771 1749 L1803 1749 L1652 1900 Z"/><path class="fh5" d="M1620 1900 L1771 1749 L1803 1749 L1652 1900 Z" /></g><g class="o"><path transform="translate(4,8)" class="S ssv" d="M1057 1730 L1280 1507 L1280 1517 L1057 1740 Z"/><path class="sv4" d="M1057 1730 L1280 1507 L1280 1517 L1057 1740 Z" /></g><g class="o"><path transform="translate(7,14)" class="S ssh" d="M1026 1164 L1090 1100 L1100 1100 L1036 1164 Z"/><path class="sh2" d="M1026 1164 L1090 1100 L1100 1100 L1036 1164 Z" /></g><g class="o"><path transform="translate(4,8)" class="S sfv" d="M1966 1284 L1786 1104 L1786 1128 L1966 1308 Z"/><path class="fv6" d="M1966 1284 L1786 1104 L1786 1128 L1966 1308 Z" /></g><g class="o"><path transform="translate(2,4)" class="S sfv" d="M1248 1937 L1050 1739 L1050 1755 L1248 1953 Z"/><path class="fv3" d="M1248 1937 L1050 1739 L1050 1755 L1248 1953 Z" /></g><g class="o"><path transform="translate(7,14)" class="S sf" d="M1603 1526 L1355 1278 L1393 1278 L1641 1526 Z"/><path class="f1" d="M1603 1526 L1355 1278 L1393 1278 L1641 1526 Z" /></g><g class="o"><path transform="translate(6,12)" class="S sfh" d="M1029 1843 L1134 1738 L1286 1738 L1181 1843 Z"/><path class="fh6" d="M1029 1843 L1134 1738 L1286 1738 L1181 1843 Z" /></g><g class="o"><path transform="translate(8,16)" class="S sfv" d="M1609 948 L1671 886 L1671 918 L1609 980 Z"/><path class="fv5" d="M1609 948 L1671 886 L1671 918 L1609 980 Z" /></g><g class="o"><path transform="translate(5,10)" class="S sfh" d="M1440 1978 L1317 1855 L1331 1855 L1454 1978 Z"/><path class="fh3" d="M1440 1978 L1317 1855 L1331 1855 L1454 1978 Z" /></g><g class="o"><path transform="translate(6,12)" class="S sfv" d="M1826 2007 L1655 1836 L1655 1868 L1826 2039 Z"/><path class="fv7" d="M1826 2007 L1655 1836 L1655 1868 L1826 2039 Z" /></g><g class="o"><path transform="translate(8,16)" class="S sfv" d="M1077 1746 L831 1500 L831 1510 L1077 1756 Z"/><path class="fv2" d="M1077 1746 L831 1500 L831 1510 L1077 1756 Z" /></g><g class="o"><path transform="translate(4,8)" class="S sfv" d="M1192 1358 L1263 1287 L1263 1301 L1192 1372 Z"/><path class="fv4" d="M1192 1358 L1263 1287 L1263 1301 L1192 1372 Z" /></g><g class="o"><path transform="translate(6,12)" class="S sfh" d="M1271 1398 L1120 1247 L1152 1247 L1303 1398 Z"/><path class="fh7" d="M1271 1398 L1120 1247 L1152 1247 L1303 1398 Z" /></g><g class="o"><path transform="translate(9,18)" class="S sfh" d="M1902 1633 L2139 1396 L2165 1396 L1928 1633 Z"/><path class="fh4" d="M1902 1633 L2139 1396 L2165 1396 L1928 1633 Z" /></g><g class="o"><path transform="translate(2,4)" class="S sf" d="M1433 1811 L1663 1581 L1697 1581 L1467 1811 Z"/><path class="f1" d="M1433 1811 L1663 1581 L1697 1581 L1467 1811 Z" /></g><g class="o"><path transform="translate(6,12)" class="S sfv" d="M1210 937 L1327 820 L1327 850 L1210 967 Z"/><path class="fv3" d="M1210 937 L1327 820 L1327 850 L1210 967 Z" /></g><g class="o"><path transform="translate(4,8)" class="S sfh" d="M1093 1429 L912 1248 L944 1248 L1125 1429 Z"/><path class="fh3" d="M1093 1429 L912 1248 L944 1248 L1125 1429 Z" /></g><g class="o"><path transform="translate(4,8)" class="S sfv" d="M1586 1382 L1803 1165 L1803 1177 L1586 1394 Z"/><path class="fv3" d="M1586 1382 L1803 1165 L1803 1177 L1586 1394 Z" /></g><g class="o"><path transform="translate(6,12)" class="S sfv" d="M1026 1510 L1167 1369 L1167 1401 L1026 1542 Z"/><path class="fv1" d="M1026 1510 L1167 1369 L1167 1401 L1026 1542 Z" /></g><g class="o"><path transform="translate(4,8)" class="S sfv" d="M1993 2018 L1892 1917 L1892 1929 L1993 2030 Z"/><path class="fv6" d="M1993 2018 L1892 1917 L1892 1929 L1993 2030 Z" /></g><g class="o"><path transform="translate(3,6)" class="S sfh" d="M1611 1249 L1683 1177 L1691 1177 L1619 1249 Z"/><path class="fh7" d="M1611 1249 L1683 1177 L1691 1177 L1619 1249 Z" /></g><g class="o"><path transform="translate(6,12)" class="S sfv" d="M1729 1197 L1613 1081 L1613 1103 L1729 1219 Z"/><path class="fv7" d="M1729 1197 L1613 1081 L1613 1103 L1729 1219 Z" /></g><g class="o"><path transform="translate(9,18)" class="S ssv" d="M1599 1420 L1437 1258 L1437 1284 L1599 1446 Z"/><path class="sv6" d="M1599 1420 L1437 1258 L1437 1284 L1599 1446 Z" /></g><g class="o"><path transform="translate(6,12)" class="S sfv" d="M1852 1897 L2009 1740 L2009 1770 L1852 1927 Z"/><path class="fv5" d="M1852 1897 L2009 1740 L2009 1770 L1852 1927 Z" /></g><g class="o"><path transform="translate(6,12)" class="S sf" d="M1546 1217 L1373 1044 L1403 1044 L1576 1217 Z"/><path class="f6" d="M1546 1217 L1373 1044 L1403 1044 L1576 1217 Z" /></g><g class="o"><path transform="translate(4,8)" class="S sf" d="M1419 1328 L1228 1137 L1238 1137 L1429 1328 Z"/><path class="f6" d="M1419 1328 L1228 1137 L1238 1137 L1429 1328 Z" /></g><g class="o"><path transform="translate(3,6)" class="S sfv" d="M1547 1770 L1780 1537 L1780 1549 L1547 1782 Z"/><path class="fv4" d="M1547 1770 L1780 1537 L1780 1549 L1547 1782 Z" /></g><g class="o"><path transform="translate(6,12)" class="S sfv" d="M1247 1613 L1143 1509 L1143 1533 L1247 1637 Z"/><path class="fv2" d="M1247 1613 L1143 1509 L1143 1533 L1247 1637 Z" /></g><g class="o"><path transform="translate(2,4)" class="S sfv" d="M2021 1602 L1785 1366 L1785 1404 L2021 1640 Z"/><path class="fv3" d="M2021 1602 L1785 1366 L1785 1404 L2021 1640 Z" /></g><g class="o"><path transform="translate(3,6)" class="S sf" d="M1398 1998 L1567 1829 L1567 1861 L1398 2030 Z"/><path class="f7" d="M1398 1998 L1567 1829 L1567 1861 L1398 2030 Z" /></g><g class="o"><path transform="translate(9,18)" class="S sfh" d="M1782 1321 L1668 1207 L1700 1207 L1814 1321 Z"/><path class="fh1" d="M1782 1321 L1668 1207 L1700 1207 L1814 1321 Z" /></g><g class="o"><path transform="translate(7,14)" class="S sfv" d="M1298 1462 L1387 1373 L1387 1399 L1298 1488 Z"/><path class="fv6" d="M1298 1462 L1387 1373 L1387 1399 L1298 1488 Z" /></g><g class="o"><path transform="translate(7,14)" class="S sfv" d="M1826 1742 L1606 1522 L1606 1532 L1826 1752 Z"/><path class="fv5" d="M1826 1742 L1606 1522 L1606 1532 L1826 1752 Z" /></g><g class="o"><path transform="translate(7,14)" class="S ssv" d="M2043 1941 L1865 1763 L1865 1787 L2043 1965 Z"/><path class="sv2" d="M2043 1941 L1865 1763 L1865 1787 L2043 1965 Z" /></g><g class="o"><path transform="translate(7,14)" class="S sf" d="M1850 979 L1965 864 L1965 882 L1850 997 Z"/><path class="f7" d="M1850 979 L1965 864 L1965 882 L1850 997 Z" /></g><g class="o"><path transform="translate(5,10)" class="S sf" d="M1240 1850 L1071 1681 L1095 1681 L1264 1850 Z"/><path class="f3" d="M1240 1850 L1071 1681 L1095 1681 L1264 1850 Z" /></g><g class="o"><path transform="translate(3,6)" class="S sfv" d="M1260 1619 L1025 1384 L1025 1398 L1260 1633 Z"/><path class="fv7" d="M1260 1619 L1025 1384 L1025 1398 L1260 1633 Z" /></g><g class="o"><path transform="translate(3,6)" class="S ss" d="M1374 1662 L1144 1432 L1144 1446 L1374 1676 Z"/><path class="s3" d="M1374 1662 L1144 1432 L1144 1446 L1374 1676 Z" /></g><g class="o"><path transform="translate(9,18)" class="S ssv" d="M1478 1651 L1231 1404 L1231 1432 L1478 1679 Z"/><path class="sv4" d="M1478 1651 L1231 1404 L1231 1432 L1478 1679 Z" /></g><g class="o"><path transform="translate(6,12)" class="S ssv" d="M1466 1760 L1638 1588 L1638 1596 L1466 1768 Z"/><path class="sv7" d="M1466 1760 L1638 1588 L1638 1596 L1466 1768 Z" /></g><g class="o"><path transform="translate(5,10)" class="S sfh" d="M1920 1973 L1812 1865 L1956 1865 L2064 1973 Z"/><path class="fh2" d="M1920 1973 L1812 1865 L1956 1865 L2064 1973 Z" /></g><g class="o"><path transform="translate(7,14)" class="S ssv" d="M1875 2021 L2018 1878 L2018 1906 L1875 2049 Z"/><path class="sv6" d="M1875 2021 L2018 1878 L2018 1906 L1875 2049 Z" /></g><g class="o"><path transform="translate(7,14)" class="S sfv" d="M1692 1273 L1535 1116 L1535 1148 L1692 1305 Z"/><path class="fv3" d="M1692 1273 L1535 1116 L1535 1148 L1692 1305 Z" /></g><g class="o"><path transform="translate(2,4)" class="S sf" d="M1783 1103 L1949 937 L1949 949 L1783 1115 Z"/><path class="f2" d="M1783 1103 L1949 937 L1949 949 L1783 1115 Z" /></g><g class="o"><path transform="translate(8,16)" class="S sfh" d="M1079 1354 L1266 1167 L1304 1167 L1117 1354 Z"/><path class="fh2" d="M1079 1354 L1266 1167 L1304 1167 L1117 1354 Z" /></g><g class="o"><path transform="translate(6,12)" class="S sfv" d="M1189 1837 L942 1590 L942 1626 L1189 1873 Z"/><path class="fv5" d="M1189 1837 L942 1590 L942 1626 L1189 1873 Z" /></g><g class="o"><path transform="translate(8,16)" class="S sfh" d="M1751 1664 L1641 1554 L1659 1554 L1769 1664 Z"/><path class="fh5" d="M1751 1664 L1641 1554 L1659 1554 L1769 1664 Z" /></g><g class="o"><path transform="translate(5,10)" class="S ssv" d="M1448 1814 L1259 1625 L1259 1663 L1448 1852 Z"/><path class="sv6" d="M1448 1814 L1259 1625 L1259 1663 L1448 1852 Z" /></g><g class="o"><path transform="translate(6,12)" class="S sfv" d="M972 1422 L740 1190 L740 1212 L972 1444 Z"/><path class="fv7" d="M972 1422 L740 1190 L740 1212 L972 1444 Z" /></g><g class="o"><path transform="translate(7,14)" class="S sf" d="M1339 1159 L1148 968 L1178 968 L1369 1159 Z"/><path class="f3" d="M1339 1159 L1148 968 L1178 968 L1369 1159 Z" /></g><g class="o"><path transform="translate(2,4)" class="S sfv" d="M1843 1657 L2043 1457 L2043 1479 L1843 1679 Z"/><path class="fv1" d="M1843 1657 L2043 1457 L2043 1479 L1843 1679 Z" /></g><g class="o"><path transform="translate(5,10)" class="S ssv" d="M1266 1713 L1362 1617 L1362 1651 L1266 1747 Z"/><path class="sv3" d="M1266 1713 L1362 1617 L1362 1651 L1266 1747 Z" /></g><g class="o"><path transform="translate(7,14)" class="S sf" d="M1685 1653 L1779 1559 L1779 1577 L1685 1671 Z"/><path class="f4" d="M1685 1653 L1779 1559 L1779 1577 L1685 1671 Z" /></g><g class="o"><path transform="translate(4,8)" class="S sf" d="M1470 1824 L1344 1698 L1368 1698 L1494 1824 Z"/><path class="f7" d="M1470 1824 L1344 1698 L1368 1698 L1494 1824 Z" /></g><g class="o"><path transform="translate(4,8)" class="S sfh" d="M1887 2029 L1803 1945 L1841 1945 L1925 2029 Z"/><path class="fh4" d="M1887 2029 L1803 1945 L1841 1945 L1925 2029 Z" /></g><g class="o"><path transform="translate(2,4)" class="S ssh" d="M1431 1387 L1237 1193 L1267 1193 L1461 1387 Z"/><path class="sh6" d="M1431 1387 L1237 1193 L1267 1193 L1461 1387 Z" /></g><g class="o"><path transform="translate(4,8)" class="S sfh" d="M1797 1055 L1996 856 L2030 856 L1831 1055 Z"/><path class="fh3" d="M1797 1055 L1996 856 L2030 856 L1831 1055 Z" /></g><g class="o"><path transform="translate(6,12)" class="S sfh" d="M1602 1192 L1803 991 L1815 991 L1614 1192 Z"/><path class="fh4" d="M1602 1192 L1803 991 L1815 991 L1614 1192 Z" /></g><g class="o"><path transform="translate(9,18)" class="S sfv" d="M1536 1860 L1476 1800 L1476 1834 L1536 1894 Z"/><path class="fv7" d="M1536 1860 L1476 1800 L1476 1834 L1536 1894 Z" /></g><g class="o"><path transform="translate(9,18)" class="S sfv" d="M1820 1541 L1968 1393 L1968 1421 L1820 1569 Z"/><path class="fv2" d="M1820 1541 L1968 1393 L1968 1421 L1820 1569 Z" /></g><g class="o"><path transform="translate(9,18)" class="S sfv" d="M1058 1553 L945 1440 L945 1466 L1058 1579 Z"/><path class="fv4" d="M1058 1553 L945 1440 L945 1466 L1058 1579 Z" /></g><g class="o"><path transform="translate(3,6)" class="S sfv" d="M1824 1839 L1927 1736 L1927 1746 L1824 1849 Z"/><path class="fv5" d="M1824 1839 L1927 1736 L1927 1746 L1824 1849 Z" /></g><g class="o"><path transform="translate(6,12)" class="S sf" d="M1660 1128 L1733 1055 L1733 1069 L1660 1142 Z"/><path class="f4" d="M1660 1128 L1733 1055 L1733 1069 L1660 1142 Z" /></g><g class="o"><path transform="translate(4,8)" class="S sfh" d="M1837 1872 L2015 1694 L2043 1694 L1865 1872 Z"/><path class="fh4" d="M1837 1872 L2015 1694 L2043 1694 L1865 1872 Z" /></g><g class="o"><path transform="translate(5,10)" class="S sf" d="M1584 1904 L1826 1662 L1826 1680 L1584 1922 Z"/><path class="f2" d="M1584 1904 L1826 1662 L1826 1680 L1584 1922 Z" /></g><g class="o"><path transform="translate(9,18)" class="S sfv" d="M1310 1769 L1476 1603 L1476 1617 L1310 1783 Z"/><path class="fv1" d="M1310 1769 L1476 1603 L1476 1617 L1310 1783 Z" /></g><g class="o"><path transform="translate(2,4)" class="S sfh" d="M1907 1973 L1681 1747 L1715 1747 L1941 1973 Z"/><path class="fh3" d="M1907 1973 L1681 1747 L1715 1747 L1941 1973 Z" /></g><g class="o"><path transform="translate(5,10)" class="S sfv" d="M1256 1471 L1407 1320 L1407 1352 L1256 1503 Z"/><path class="fv6" d="M1256 1471 L1407 1320 L1407 1352 L1256 1503 Z" /></g><g class="o"><path transform="translate(7,14)" class="S ssv" d="M1294 1222 L1540 976 L1540 1014 L1294 1260 Z"/><path class="sv7" d="M1294 1222 L1540 976 L1540 1014 L1294 1260 Z" /></g><g class="o"><path transform="translate(4,8)" class="S sfh" d="M1146 1457 L1064 1375 L1084 1375 L1166 1457 Z"/><path class="fh5" d="M1146 1457 L1064 1375 L1084 1375 L1166 1457 Z" /></g><g class="o"><path transform="translate(7,14)" class="S sf" d="M1884 1247 L1971 1160 L1971 1168 L1884 1255 Z"/><path class="f6" d="M1884 1247 L1971 1160 L1971 1168 L1884 1255 Z" /></g><g class="o"><path transform="translate(4,8)" class="S sfv" d="M1354 1865 L1460 1759 L1460 1789 L1354 1895 Z"/><path class="fv6" d="M1354 1865 L1460 1759 L1460 1789 L1354 1895 Z" /></g><g class="o"><path transform="translate(2,4)" class="S sf" d="M1147 1767 L916 1536 L916 1560 L1147 1791 Z"/><path class="f7" d="M1147 1767 L916 1536 L916 1560 L1147 1791 Z" /></g><g class="o"><path transform="translate(5,10)" class="S sfv" d="M1765 1580 L1587 1402 L1587 1422 L1765 1600 Z"/><path class="fv6" d="M1765 1580 L1587 1402 L1587 1422 L1765 1600 Z" /></g><g class="o"><path transform="translate(8,16)" class="S sfv" d="M1550 1043 L1608 985 L1608 1011 L1550 1069 Z"/><path class="fv2" d="M1550 1043 L1608 985 L1608 1011 L1550 1069 Z" /></g><g class="o"><path transform="translate(6,12)" class="S sfh" d="M1640 1072 L1729 983 L1743 983 L1654 1072 Z"/><path class="fh1" d="M1640 1072 L1729 983 L1743 983 L1654 1072 Z" /></g><g class="o"><path transform="translate(5,10)" class="S sf" d="M1136 1908 L958 1730 L958 1758 L1136 1936 Z"/><path class="f6" d="M1136 1908 L958 1730 L958 1758 L1136 1936 Z" /></g><g class="o"><path transform="translate(7,14)" class="S sfh" d="M1152 1526 L1099 1473 L1203 1473 L1256 1526 Z"/><path class="fh7" d="M1152 1526 L1099 1473 L1203 1473 L1256 1526 Z" /></g><g class="o"><path transform="translate(3,6)" class="S sfv" d="M1650 1544 L1781 1413 L1781 1447 L1650 1578 Z"/><path class="fv3" d="M1650 1544 L1781 1413 L1781 1447 L1650 1578 Z" /></g><g class="o"><path transform="translate(3,6)" class="S sfv" d="M1036 1856 L979 1799 L979 1815 L1036 1872 Z"/><path class="fv4" d="M1036 1856 L979 1799 L979 1815 L1036 1872 Z" /></g><g class="o"><path transform="translate(8,16)" class="S sf" d="M1228 1904 L1423 1709 L1423 1727 L1228 1922 Z"/><path class="f2" d="M1228 1904 L1423 1709 L1423 1727 L1228 1922 Z" /></g><g class="o"><path transform="translate(2,4)" class="S ss" d="M1324 1872 L1125 1673 L1125 1681 L1324 1880 Z"/><path class="s7" d="M1324 1872 L1125 1673 L1125 1681 L1324 1880 Z" /></g><g class="o"><path transform="translate(5,10)" class="S sfv" d="M1532 1529 L1590 1471 L1590 1497 L1532 1555 Z"/><path class="fv3" d="M1532 1529 L1590 1471 L1590 1497 L1532 1555 Z" /></g><g class="o"><path transform="translate(3,6)" class="S sf" d="M1933 1684 L1882 1633 L1882 1651 L1933 1702 Z"/><path class="f4" d="M1933 1684 L1882 1633 L1882 1651 L1933 1702 Z" /></g><g class="o"><path transform="translate(9,18)" class="S sfv" d="M1246 1617 L1086 1457 L1086 1471 L1246 1631 Z"/><path class="fv6" d="M1246 1617 L1086 1457 L1086 1471 L1246 1631 Z" /></g><g class="o"><path transform="translate(9,18)" class="S sfh" d="M1858 1763 L1655 1560 L1691 1560 L1894 1763 Z"/><path class="fh1" d="M1858 1763 L1655 1560 L1691 1560 L1894 1763 Z" /></g><g class="o"><path transform="translate(2,4)" class="S sfh" d="M1075 1326 L906 1157 L930 1157 L1099 1326 Z"/><path class="fh1" d="M1075 1326 L906 1157 L930 1157 L1099 1326 Z" /></g><g class="o"><path transform="translate(6,12)" class="S sfv" d="M1191 943 L1085 837 L1085 869 L1191 975 Z"/><path class="fv7" d="M1191 943 L1085 837 L1085 869 L1191 975 Z" /></g><g class="o"><path transform="translate(7,14)" class="S ssh" d="M1793 1522 L1976 1339 L1998 1339 L1815 1522 Z"/><path class="sh2" d="M1793 1522 L1976 1339 L1998 1339 L1815 1522 Z" /></g><g class="o"><path transform="translate(3,6)" class="S sfh" d="M1140 1320 L1057 1237 L1071 1237 L1154 1320 Z"/><path class="fh2" d="M1140 1320 L1057 1237 L1071 1237 L1154 1320 Z" /></g><g class="o"><path transform="translate(3,6)" class="S sf" d="M1879 1513 L1977 1415 L1977 1443 L1879 1541 Z"/><path class="f4" d="M1879 1513 L1977 1415 L1977 1443 L1879 1541 Z" /></g><g class="o"><path transform="translate(8,16)" class="S ssh" d="M1691 1926 L1885 1732 L1907 1732 L1713 1926 Z"/><path class="sh4" d="M1691 1926 L1885 1732 L1907 1732 L1713 1926 Z" /></g><g class="o"><path transform="translate(8,16)" class="S sfv" d="M1373 974 L1189 790 L1189 808 L1373 992 Z"/><path class="fv3" d="M1373 974 L1189 790 L1189 808 L1373 992 Z" /></g><g class="o"><path transform="translate(8,16)" class="S sfh" d="M985 1330 L1128 1187 L1162 1187 L1019 1330 Z"/><path class="fh7" d="M985 1330 L1128 1187 L1162 1187 L1019 1330 Z" /></g><g class="o"><path transform="translate(2,4)" class="S sfh" d="M1726 1296 L1878 1144 L1888 1144 L1736 1296 Z"/><path class="fh6" d="M1726 1296 L1878 1144 L1888 1144 L1736 1296 Z" /></g><g class="o"><path transform="translate(2,4)" class="S sf" d="M1696 1801 L1870 1627 L1870 1661 L1696 1835 Z"/><path class="f3" d="M1696 1801 L1870 1627 L1870 1661 L1696 1835 Z" /></g><g class="o"><path transform="translate(6,12)" class="S sfh" d="M1622 1658 L1794 1486 L1814 1486 L1642 1658 Z"/><path class="fh2" d="M1622 1658 L1794 1486 L1814 1486 L1642 1658 Z" /></g><g class="o"><path transform="translate(6,12)" class="S sfv" d="M981 1382 L898 1299 L898 1315 L981 1398 Z"/><path class="fv6" d="M981 1382 L898 1299 L898 1315 L981 1398 Z" /></g><g class="o"><path transform="translate(5,10)" class="S sfv" d="M1655 1472 L1746 1381 L1746 1411 L1655 1502 Z"/><path class="fv1" d="M1655 1472 L1746 1381 L1746 1411 L1655 1502 Z" /></g><g class="o"><path transform="translate(2,4)" class="S sfv" d="M1735 1254 L1809 1180 L1809 1190 L1735 1264 Z"/><path class="fv3" d="M1735 1254 L1809 1180 L1809 1190 L1735 1264 Z" /></g><g class="o"><path transform="translate(6,12)" class="S sfv" d="M1623 1155 L1787 991 L1787 1015 L1623 1179 Z"/><path class="fv4" d="M1623 1155 L1787 991 L1787 1015 L1623 1179 Z" /></g><g class="o"><path transform="translate(6,12)" class="S sfh" d="M1971 1124 L1733 886 L1741 886 L1979 1124 Z"/><path class="fh1" d="M1971 1124 L1733 886 L1741 886 L1979 1124 Z" /></g><g class="o"><path transform="translate(8,16)" class="S ssh" d="M1815 996 L1761 942 L1775 942 L1829 996 Z"/><path class="sh6" d="M1815 996 L1761 942 L1775 942 L1829 996 Z" /></g><g class="o"><path transform="translate(9,18)" class="S sfv" d="M1664 1450 L1899 1215 L1899 1237 L1664 1472 Z"/><path class="fv1" d="M1664 1450 L1899 1215 L1899 1237 L1664 1472 Z" /></g><g class="o"><path transform="translate(6,12)" class="S ss" d="M1026 1570 L895 1439 L895 1467 L1026 1598 Z"/><path class="s3" d="M1026 1570 L895 1439 L895 1467 L1026 1598 Z" /></g><g class="o"><path transform="translate(5,10)" class="S ss" d="M1582 2001 L1746 1837 L1754 1837 L1590 2001 Z"/><path class="s6" d="M1582 2001 L1746 1837 L1754 1837 L1590 2001 Z" /></g><g class="o"><path transform="translate(9,18)" class="S ssh" d="M1365 1713 L1129 1477 L1137 1477 L1373 1713 Z"/><path class="sh2" d="M1365 1713 L1129 1477 L1137 1477 L1373 1713 Z" /></g><g class="o"><path transform="translate(5,10)" class="S sfh" d="M1602 1704 L1704 1602 L1744 1602 L1642 1704 Z"/><path class="fh2" d="M1602 1704 L1704 1602 L1744 1602 L1642 1704 Z" /></g><g class="o"><path transform="translate(8,16)" class="S sfv" d="M1156 1732 L977 1553 L977 1583 L1156 1762 Z"/><path class="fv3" d="M1156 1732 L977 1553 L977 1583 L1156 1762 Z" /></g><g class="o"><path transform="translate(9,18)" class="S ssh" d="M1251 1901 L1339 1813 L1351 1813 L1263 1901 Z"/><path class="sh1" d="M1251 1901 L1339 1813 L1351 1813 L1263 1901 Z" /></g><g class="o"><path transform="translate(7,14)" class="S sfh" d="M1964 2012 L2046 1930 L2070 1930 L1988 2012 Z"/><path class="fh2" d="M1964 2012 L2046 1930 L2070 1930 L1988 2012 Z" /></g><g class="o"><path transform="translate(4,8)" class="S sfh" d="M1306 1420 L1093 1207 L1125 1207 L1338 1420 Z"/><path class="fh3" d="M1306 1420 L1093 1207 L1125 1207 L1338 1420 Z" /></g><g class="o"><path transform="translate(8,16)" class="S sfh" d="M1336 1787 L1571 1552 L1589 1552 L1354 1787 Z"/><path class="fh1" d="M1336 1787 L1571 1552 L1589 1552 L1354 1787 Z" /></g><g class="o"><path transform="translate(5,10)" class="S sfv" d="M1385 1071 L1541 915 L1541 923 L1385 1079 Z"/><path class="fv5" d="M1385 1071 L1541 915 L1541 923 L1385 1079 Z" /></g><g class="o"><path transform="translate(5,10)" class="S sfh" d="M1765 1274 L1621 1130 L1655 1130 L1799 1274 Z"/><path class="fh7" d="M1765 1274 L1621 1130 L1655 1130 L1799 1274 Z" /></g><g class="o"><path transform="translate(3,6)" class="S sf" d="M1736 1681 L1870 1547 L1894 1547 L1760 1681 Z"/><path class="f4" d="M1736 1681 L1870 1547 L1894 1547 L1760 1681 Z" /></g><g class="o"><path transform="translate(7,14)" class="S sfv" d="M1688 1479 L1499 1290 L1499 1310 L1688 1499 Z"/><path class="fv6" d="M1688 1479 L1499 1290 L1499 1310 L1688 1499 Z" /></g></g><use href="#slashes" transform-origin="1500 1500" transform="rotate(180) scale(2)"/></g><circle cx="1500" cy="1500" r="450" stroke-width="20" class="o s4" /><use href="#slashes" transform-origin="1500 1500" transform="scale(.6)"/><use href="#slashes" transform-origin="1500 1500" transform="rotate(180) scale(.6)"/></svg>