<svg xmlns="http://www.w3.org/2000/svg" viewBox="750 750 1500 1500"><style>/*<![CDATA[*/svg{background:rgb(28,37,65);max-width:100vw;max-height:100vh}path{stroke-width:4}.o{opacity:.75}.S{opacity:.4}.sf{stroke:none;fill:black}.sfh{stroke:none;fill:url(#hs)}.sfv{stroke:none;fill:url(#vs)}.ss{stroke:black;fill:none}.ssh{stroke:url(#hs);fill:none}.ssv{stroke:url(#vs);fill:none}.s1{fill:none;stroke:rgb(34,34,34)}.f1{stroke:none;fill:rgb(34,34,34)}.sh1{fill:none;stroke:url(#h1)}.fh1{stroke:none;fill:url(#h1)}.sv1{fill:none;stroke:url(#v1)}.fv1{stroke:none;fill:url(#v1)}.s2{fill:none;stroke:rgb(58,80,107)}.f2{stroke:none;fill:rgb(58,80,107)}.sh2{fill:none;stroke:url(#h2)}.fh2{stroke:none;fill:url(#h2)}.sv2{fill:none;stroke:url(#v2)}.fv2{stroke:none;fill:url(#v2)}.s3{fill:none;stroke:rgb(111,255,233)}.f3{stroke:none;fill:rgb(111,255,233)}.sh3{fill:none;stroke:url(#h3)}.fh3{stroke:none;fill:url(#h3)}.sv3{fill:none;stroke:url(#v3)}.fv3{stroke:none;fill:url(#v3)}.s4{fill:none;stroke:rgb(91,192,190)}.f4{stroke:none;fill:rgb(91,192,190)}.sh4{fill:none;stroke:url(#h4)}.fh4{stroke:none;fill:url(#h4)}.sv4{fill:none;stroke:url(#v4)}.fv4{stroke:none;fill:url(#v4)}.s5{fill:none;stroke:rgb(11,19,43)}.f5{stroke:none;fill:rgb(11,19,43)}.sh5{fill:none;stroke:url(#h5)}.fh5{stroke:none;fill:url(#h5)}.sv5{fill:none;stroke:url(#v5)}.fv5{stroke:none;fill:url(#v5)}.s6{fill:none;stroke:rgb(255,255,255)}.f6{stroke:none;fill:rgb(255,255,255)}.sh6{fill:none;stroke:url(#h6)}.fh6{stroke:none;fill:url(#h6)}.sv6{fill:none;stroke:url(#v6)}.fv6{stroke:none;fill:url(#v6)}.s7{fill:none;stroke:rgb(255,255,0)}.f7{stroke:none;fill:rgb(255,255,0)}.sh7{fill:none;stroke:url(#h7)}.fh7{stroke:none;fill:url(#h7)}.sv7{fill:none;stroke:url(#v7)}.fv7{stroke:none;fill:url(#v7)}/*]]>*/</style><defs><linearGradient gradientTransform="rotate(90)" id="hs"><stop offset="20%" stop-color="#000" /><stop offset="95%" stop-color="rgba(0, 0, 0, 0)" /></linearGradient><linearGradient id="vs"><stop offset="20%" stop-color="#000" /><stop offset="95%" stop-color="rgba(0, 0, 0, 0)" /></linearGradient><linearGradient gradientTransform="rotate(90)" id="h1"><stop offset="20%" stop-color="rgba(34,34,34,1)" /><stop offset="95%" stop-color="rgba(34,34,34,0)" /></linearGradient><linearGradient id="v1"><stop offset="20%" stop-color="rgba(34,34,34,1)" /><stop offset="95%" stop-color="rgba(34,34,34,0)" /></linearGradient><linearGradient gradientTransform="rotate(90)" id="h2"><stop offset="20%" stop-color="rgba(58,80,107,1)" /><stop offset="95%" stop-color="rgba(58,80,107,0)" /></linearGradient><linearGradient id="v2"><stop offset="20%" stop-color="rgba(58,80,107,1)" /><stop offset="95%" stop-color="rgba(58,80,107,0)" /></linearGradient><linearGradient gradientTransform="rotate(90)" id="h3"><stop offset="20%" stop-color="rgba(111,255,233,1)" /><stop offset="95%" stop-color="rgba(111,255,233,0)" /></linearGradient><linearGradient id="v3"><stop offset="20%" stop-color="rgba(111,255,233,1)" /><stop offset="95%" stop-color="rgba(111,255,233,0)" /></linearGradient><linearGradient gradientTransform="rotate(90)" id="h4"><stop offset="20%" stop-color="rgba(91,192,190,1)" /><stop offset="95%" stop-color="rgba(91,192,190,0)" /></linearGradient><linearGradient id="v4"><stop offset="20%" stop-color="rgba(91,192,190,1)" /><stop offset="95%" stop-color="rgba(91,192,190,0)" /></linearGradient><linearGradient gradientTransform="rotate(90)" id="h5"><stop offset="20%" stop-color="rgba(11,19,43,1)" /><stop offset="95%" stop-color="rgba(11,19,43,0)" /></linearGradient><linearGradient id="v5"><stop offset="20%" stop-color="rgba(11,19,43,1)" /><stop offset="95%" stop-color="rgba(11,19,43,0)" /></linearGradient><linearGradient gradientTransform="rotate(90)" id="h6"><stop offset="20%" stop-color="rgba(255,255,255,1)" /><stop offset="95%" stop-color="rgba(255,255,255,0)" /></linearGradient><linearGradient id="v6"><stop offset="20%" stop-color="rgba(255,255,255,1)" /><stop offset="95%" stop-color="rgba(255,255,255,0)" /></linearGradient><linearGradient gradientTransform="rotate(90)" id="h7"><stop offset="20%" stop-color="rgba(255,255,0,1)" /><stop offset="95%" stop-color="rgba(255,255,0,0)" /></linearGradient><linearGradient id="v7"><stop offset="20%" stop-color="rgba(255,255,0,1)" /><stop offset="95%" stop-color="rgba(255,255,0,0)" /></linearGradient></defs><g transform-origin="1500 1500" transform="scale(2)" opacity=".2"><g id="slashes"><g class="o"><path transform="translate(5,10)" class="S sfh" d="M1882 1335 L1825 1278 L1849 1278 L1906 1335 Z"/><path class="fh5" d="M1882 1335 L1825 1278 L1849 1278 L1906 1335 Z" /></g><g class="o"><path transform="translate(3,6)" class="S sfv" d="M1630 1996 L1522 1888 L1522 1914 L1630 2022 Z"/><path class="fv4" d="M1630 1996 L1522 1888 L1522 1914 L1630 2022 Z" /></g><g class="o"><path transform="translate(7,14)" class="S ssv" d="M1142 1576 L1030 1464 L1030 1500 L1142 1612 Z"/><path class="sv7" d="M1142 1576 L1030 1464 L1030 1500 L1142 1612 Z" /></g><g class="o"><path transform="translate(9,18)" class="S sfh" d="M1281 1862 L1103 1684 L1137 1684 L1315 1862 Z"/><path class="fh1" d="M1281 1862 L1103 1684 L1137 1684 L1315 1862 Z" /></g><g class="o"><path transform="translate(5,10)" class="S ssh" d="M1285 1541 L1190 1446 L1224 1446 L1319 1541 Z"/><path class="sh5" d="M1285 1541 L1190 1446 L1224 1446 L1319 1541 Z" /></g><g class="o"><path transform="translate(2,4)" class="S sfh" d="M1780 1666 L1591 1477 L1609 1477 L1798 1666 Z"/><path class="fh5" d="M1780 1666 L1591 1477 L1609 1477 L1798 1666 Z" /></g><g class="o"><path transform="translate(3,6)" class="S ssh" d="M1499 1945 L1259 1705 L1283 1705 L1523 1945 Z"/><path class="sh4" d="M1499 1945 L1259 1705 L1283 1705 L1523 1945 Z" /></g><g class="o"><path transform="translate(6,12)" class="S sfv" d="M1557 1361 L1311 1115 L1311 1147 L1557 1393 Z"/><path class="fv1" d="M1557 1361 L1311 1115 L1311 1147 L1557 1393 Z" /></g><g class="o"><path transform="translate(6,12)" class="S ssh" d="M1145 1701 L954 1510 L982 1510 L1173 1701 Z"/><path class="sh3" d="M1145 1701 L954 1510 L982 1510 L1173 1701 Z" /></g><g class="o"><path transform="translate(9,18)" class="S ssh" d="M1209 1942 L1156 1889 L1184 1889 L1237 1942 Z"/><path class="sh2" d="M1209 1942 L1156 1889 L1184 1889 L1237 1942 Z" /></g><g class="o"><path transform="translate(2,4)" class="S sfh" d="M1509 1939 L1275 1705 L1305 1705 L1539 1939 Z"/><path class="fh2" d="M1509 1939 L1275 1705 L1305 1705 L1539 1939 Z" /></g><g class="o"><path transform="translate(5,10)" class="S sfh" d="M1026 1466 L927 1367 L1063 1367 L1162 1466 Z"/><path class="fh7" d="M1026 1466 L927 1367 L1063 1367 L1162 1466 Z" /></g><g class="o"><path transform="translate(2,4)" class="S sfv" d="M1851 949 L1618 716 L1618 724 L1851 957 Z"/><path class="fv1" d="M1851 949 L1618 716 L1618 724 L1851 957 Z" /></g><g class="o"><path transform="translate(9,18)" class="S sfh" d="M1270 2035 L1143 1908 L1179 1908 L1306 2035 Z"/><path class="fh7" d="M1270 2035 L1143 1908 L1179 1908 L1306 2035 Z" /></g><g class="o"><path transform="translate(7,14)" class="S sfv" d="M1323 1770 L1149 1596 L1149 1632 L1323 1806 Z"/><path class="fv6" d="M1323 1770 L1149 1596 L1149 1632 L1323 1806 Z" /></g><g class="o"><path transform="translate(3,6)" class="S sf" d="M1656 1316 L1453 1113 L1489 1113 L1692 1316 Z"/><path class="f1" d="M1656 1316 L1453 1113 L1489 1113 L1692 1316 Z" /></g><g class="o"><path transform="translate(4,8)" class="S sfh" d="M1600 1765 L1385 1550 L1417 1550 L1632 1765 Z"/><path class="fh6" d="M1600 1765 L1385 1550 L1417 1550 L1632 1765 Z" /></g><g class="o"><path transform="translate(6,12)" class="S sf" d="M1163 1639 L965 1441 L993 1441 L1191 1639 Z"/><path class="f2" d="M1163 1639 L965 1441 L993 1441 L1191 1639 Z" /></g><g class="o"><path transform="translate(6,12)" class="S sfh" d="M1817 1978 L1683 1844 L1693 1844 L1827 1978 Z"/><path class="fh7" d="M1817 1978 L1683 1844 L1693 1844 L1827 1978 Z" /></g><g class="o"><path transform="translate(9,18)" class="S sfv" d="M1705 1029 L1464 788 L1464 814 L1705 1055 Z"/><path class="fv5" d="M1705 1029 L1464 788 L1464 814 L1705 1055 Z" /></g><g class="o"><path transform="translate(6,12)" class="S sfv" d="M1635 1678 L1568 1611 L1568 1635 L1635 1702 Z"/><path class="fv2" d="M1635 1678 L1568 1611 L1568 1635 L1635 1702 Z" /></g><g class="o"><path transform="translate(3,6)" class="S sf" d="M1038 1121 L966 1049 L966 1057 L1038 1129 Z"/><path class="f5" d="M1038 1121 L966 1049 L966 1057 L1038 1129 Z" /></g><g class="o"><path transform="translate(9,18)" class="S sf" d="M1290 1298 L1150 1158 L1262 1158 L1402 1298 Z"/><path class="f1" d="M1290 1298 L1150 1158 L1262 1158 L1402 1298 Z" /></g><g class="o"><path transform="translate(8,16)" class="S sfh" d="M1884 1392 L1763 1271 L1779 1271 L1900 1392 Z"/><path class="fh7" d="M1884 1392 L1763 1271 L1779 1271 L1900 1392 Z" /></g><g class="o"><path transform="translate(4,8)" class="S sfv" d="M1475 1398 L1233 1156 L1233 1180 L1475 1422 Z"/><path class="fv6" d="M1475 1398 L1233 1156 L1233 1180 L1475 1422 Z" /></g><g class="o"><path transform="translate(6,12)" class="S sf" d="M1026 1092 L912 978 L924 978 L1038 1092 Z"/><path class="f2" d="M1026 1092 L912 978 L924 978 L1038 1092 Z" /></g><g class="o"><path transform="translate(3,6)" class="S sfv" d="M1508 1136 L1439 1067 L1439 1107 L1508 1176 Z"/><path class="fv5" d="M1508 1136 L1439 1067 L1439 1107 L1508 1176 Z" /></g><g class="o"><path transform="translate(3,6)" class="S sf" d="M1268 1863 L1031 1626 L1031 1658 L1268 1895 Z"/><path class="f5" d="M1268 1863 L1031 1626 L1031 1658 L1268 1895 Z" /></g><g class="o"><path transform="translate(8,16)" class="S ss" d="M1463 1361 L1332 1230 L1342 1230 L1473 1361 Z"/><path class="s5" d="M1463 1361 L1332 1230 L1342 1230 L1473 1361 Z" /></g><g class="o"><path transform="translate(5,10)" class="S sfh" d="M2021 1208 L1797 984 L1825 984 L2049 1208 Z"/><path class="fh2" d="M2021 1208 L1797 984 L1825 984 L2049 1208 Z" /></g><g class="o"><path transform="translate(8,16)" class="S sfv" d="M1748 1458 L1503 1213 L1503 1229 L1748 1474 Z"/><path class="fv1" d="M1748 1458 L1503 1213 L1503 1229 L1748 1474 Z" /></g><g class="o"><path transform="translate(4,8)" class="S sfh" d="M1629 1104 L1408 883 L1444 883 L1665 1104 Z"/><path class="fh4" d="M1629 1104 L1408 883 L1444 883 L1665 1104 Z" /></g><g class="o"><path transform="translate(4,8)" class="S sfv" d="M1233 1251 L1049 1067 L1049 1077 L1233 1261 Z"/><path class="fv3" d="M1233 1251 L1049 1067 L1049 1077 L1233 1261 Z" /></g><g class="o"><path transform="translate(3,6)" class="S ssh" d="M1209 1273 L972 1036 L984 1036 L1221 1273 Z"/><path class="sh5" d="M1209 1273 L972 1036 L984 1036 L1221 1273 Z" /></g><g class="o"><path transform="translate(9,18)" class="S sfv" d="M1271 1119 L1074 922 L1074 940 L1271 1137 Z"/><path class="fv1" d="M1271 1119 L1074 922 L1074 940 L1271 1137 Z" /></g><g class="o"><path transform="translate(8,16)" class="S sfv" d="M1043 902 L836 695 L836 823 L1043 1030 Z"/><path class="fv1" d="M1043 902 L836 695 L836 823 L1043 1030 Z" /></g><g class="o"><path transform="translate(9,18)" class="S ssv" d="M989 958 L856 825 L856 859 L989 992 Z"/><path class="sv6" d="M989 958 L856 825 L856 859 L989 992 Z" /></g><g class="o"><path transform="translate(8,16)" class="S sfh" d="M1266 1435 L1183 1352 L1211 1352 L1294 1435 Z"/><path class="fh6" d="M1266 1435 L1183 1352 L1211 1352 L1294 1435 Z" /></g><g class="o"><path transform="translate(4,8)" class="S sf" d="M1226 1382 L1024 1180 L1032 1180 L1234 1382 Z"/><path class="f4" d="M1226 1382 L1024 1180 L1032 1180 L1234 1382 Z" /></g><g class="o"><path transform="translate(7,14)" class="S sfh" d="M1897 1040 L1833 976 L1865 976 L1929 1040 Z"/><path class="fh4" d="M1897 1040 L1833 976 L1865 976 L1929 1040 Z" /></g><g class="o"><path transform="translate(7,14)" class="S sfv" d="M1323 1203 L1164 1044 L1164 1074 L1323 1233 Z"/><path class="fv5" d="M1323 1203 L1164 1044 L1164 1074 L1323 1233 Z" /></g><g class="o"><path transform="translate(2,4)" class="S ssv" d="M2013 1224 L1775 986 L1775 1022 L2013 1260 Z"/><path class="sv1" d="M2013 1224 L1775 986 L1775 1022 L2013 1260 Z" /></g><g class="o"><path transform="translate(3,6)" class="S sf" d="M1114 1004 L1022 912 L1022 968 L1114 1060 Z"/><path class="f3" d="M1114 1004 L1022 912 L1022 968 L1114 1060 Z" /></g><g class="o"><path transform="translate(3,6)" class="S sf" d="M1272 1189 L1202 1119 L1212 1119 L1282 1189 Z"/><path class="f6" d="M1272 1189 L1202 1119 L1212 1119 L1282 1189 Z" /></g><g class="o"><path transform="translate(8,16)" class="S sf" d="M1835 1160 L1666 991 L1666 1027 L1835 1196 Z"/><path class="f1" d="M1835 1160 L1666 991 L1666 1027 L1835 1196 Z" /></g><g class="o"><path transform="translate(4,8)" class="S sfv" d="M1808 1266 L1680 1138 L1680 1176 L1808 1304 Z"/><path class="fv2" d="M1808 1266 L1680 1138 L1680 1176 L1808 1304 Z" /></g><g class="o"><path transform="translate(7,14)" class="S sfh" d="M1581 1547 L1438 1404 L1476 1404 L1619 1547 Z"/><path class="fh3" d="M1581 1547 L1438 1404 L1476 1404 L1619 1547 Z" /></g><g class="o"><path transform="translate(7,14)" class="S sfv" d="M2029 1618 L1834 1423 L1834 1453 L2029 1648 Z"/><path class="fv3" d="M2029 1618 L1834 1423 L1834 1453 L2029 1648 Z" /></g><g class="o"><path transform="translate(3,6)" class="S sfh" d="M1728 977 L1502 751 L1540 751 L1766 977 Z"/><path class="fh3" d="M1728 977 L1502 751 L1540 751 L1766 977 Z" /></g><g class="o"><path transform="translate(9,18)" class="S sfv" d="M1200 1859 L1036 1695 L1036 1705 L1200 1869 Z"/><path class="fv6" d="M1200 1859 L1036 1695 L1036 1705 L1200 1869 Z" /></g><g class="o"><path transform="translate(9,18)" class="S sfv" d="M1989 1905 L1894 1810 L1894 1844 L1989 1939 Z"/><path class="fv6" d="M1989 1905 L1894 1810 L1894 1844 L1989 1939 Z" /></g><g class="o"><path transform="translate(3,6)" class="S ssh" d="M1254 1997 L1147 1890 L1181 1890 L1288 1997 Z"/><path class="sh1" d="M1254 1997 L1147 1890 L1181 1890 L1288 1997 Z" /></g><g class="o"><path transform="translate(8,16)" class="S sfh" d="M1904 1636 L1833 1565 L1849 1565 L1920 1636 Z"/><path class="fh1" d="M1904 1636 L1833 1565 L1849 1565 L1920 1636 Z" /></g><g class="o"><path transform="translate(9,18)" class="S ssh" d="M1190 1488 L1125 1423 L1161 1423 L1226 1488 Z"/><path class="sh4" d="M1190 1488 L1125 1423 L1161 1423 L1226 1488 Z" /></g><g class="o"><path transform="translate(6,12)" class="S sf" d="M1489 1572 L1268 1351 L1282 1351 L1503 1572 Z"/><path class="f5" d="M1489 1572 L1268 1351 L1282 1351 L1503 1572 Z" /></g><g class="o"><path transform="translate(5,10)" class="S ssh" d="M1772 1596 L1722 1546 L1752 1546 L1802 1596 Z"/><path class="sh4" d="M1772 1596 L1722 1546 L1752 1546 L1802 1596 Z" /></g><g class="o"><path transform="translate(4,8)" class="S sfv" d="M1002 1089 L780 867 L780 879 L1002 1101 Z"/><path class="fv2" d="M1002 1089 L780 867 L780 879 L1002 1101 Z" /></g><g class="o"><path transform="translate(7,14)" class="S sfv" d="M1967 1906 L1767 1706 L1767 1744 L1967 1944 Z"/><path class="fv5" d="M1967 1906 L1767 1706 L1767 1744 L1967 1944 Z" /></g><g class="o"><path transform="translate(2,4)" class="S sf" d="M1296 1773 L1062 1539 L1072 1539 L1306 1773 Z"/><path class="f5" d="M1296 1773 L1062 1539 L1072 1539 L1306 1773 Z" /></g><g class="o"><path transform="translate(7,14)" class="S sfh" d="M1754 1005 L1670 921 L1682 921 L1766 1005 Z"/><path class="fh6" d="M1754 1005 L1670 921 L1682 921 L1766 1005 Z" /></g><g class="o"><path transform="translate(4,8)" class="S ssh" d="M1383 1336 L1224 1177 L1234 1177 L1393 1336 Z"/><path class="sh4" d="M1383 1336 L1224 1177 L1234 1177 L1393 1336 Z" /></g><g class="o"><path transform="translate(5,10)" class="S sf" d="M1768 1171 L1522 925 L1522 957 L1768 1203 Z"/><path class="f1" d="M1768 1171 L1522 925 L1522 957 L1768 1203 Z" /></g><g class="o"><path transform="translate(9,18)" class="S sfv" d="M1172 1712 L985 1525 L985 1543 L1172 1730 Z"/><path class="fv4" d="M1172 1712 L985 1525 L985 1543 L1172 1730 Z" /></g><g class="o"><path transform="translate(7,14)" class="S sfv" d="M1096 1699 L914 1517 L914 1535 L1096 1717 Z"/><path class="fv7" d="M1096 1699 L914 1517 L914 1535 L1096 1717 Z" /></g><g class="o"><path transform="translate(4,8)" class="S sf" d="M1245 992 L1052 799 L1074 799 L1267 992 Z"/><path class="f2" d="M1245 992 L1052 799 L1074 799 L1267 992 Z" /></g><g class="o"><path transform="translate(2,4)" class="S ss" d="M1401 965 L1265 829 L1265 841 L1401 977 Z"/><path class="s5" d="M1401 965 L1265 829 L1265 841 L1401 977 Z" /></g><g class="o"><path transform="translate(4,8)" class="S sf" d="M1601 1095 L1511 1005 L1511 1041 L1601 1131 Z"/><path class="f2" d="M1601 1095 L1511 1005 L1511 1041 L1601 1131 Z" /></g><g class="o"><path transform="translate(9,18)" class="S ssh" d="M1867 1343 L1655 1131 L1665 1131 L1877 1343 Z"/><path class="sh1" d="M1867 1343 L1655 1131 L1665 1131 L1877 1343 Z" /></g><g class="o"><path transform="translate(7,14)" class="S ssh" d="M1047 1895 L803 1651 L813 1651 L1057 1895 Z"/><path class="sh2" d="M1047 1895 L803 1651 L813 1651 L1057 1895 Z" /></g><g class="o"><path transform="translate(4,8)" class="S ssv" d="M1506 1947 L1435 1876 L1435 1910 L1506 1981 Z"/><path class="sv6" d="M1506 1947 L1435 1876 L1435 1910 L1506 1981 Z" /></g><g class="o"><path transform="translate(4,8)" class="S ssh" d="M884 1632 L759 1507 L895 1507 L1020 1632 Z"/><path class="sh2" d="M884 1632 L759 1507 L895 1507 L1020 1632 Z" /></g><g class="o"><path transform="translate(7,14)" class="S sfv" d="M1648 1097 L1526 975 L1526 985 L1648 1107 Z"/><path class="fv2" d="M1648 1097 L1526 975 L1526 985 L1648 1107 Z" /></g><g class="o"><path transform="translate(9,18)" class="S ssv" d="M1839 1910 L1780 1851 L1780 1865 L1839 1924 Z"/><path class="sv6" d="M1839 1910 L1780 1851 L1780 1865 L1839 1924 Z" /></g><g class="o"><path transform="translate(4,8)" class="S sfv" d="M1911 1726 L1751 1566 L1751 1602 L1911 1762 Z"/><path class="fv2" d="M1911 1726 L1751 1566 L1751 1602 L1911 1762 Z" /></g><g class="o"><path transform="translate(6,12)" class="S sf" d="M1012 1656 L840 1484 L876 1484 L1048 1656 Z"/><path class="f1" d="M1012 1656 L840 1484 L876 1484 L1048 1656 Z" /></g><g class="o"><path transform="translate(7,14)" class="S sfh" d="M1492 1514 L1392 1414 L1420 1414 L1520 1514 Z"/><path class="fh4" d="M1492 1514 L1392 1414 L1420 1414 L1520 1514 Z" /></g><g class="o"><path transform="translate(7,14)" class="S sf" d="M1257 1250 L1140 1133 L1140 1157 L1257 1274 Z"/><path class="f4" d="M1257 1250 L1140 1133 L1140 1157 L1257 1274 Z" /></g><g class="o"><path transform="translate(5,10)" class="S sf" d="M1840 1737 L1753 1650 L1787 1650 L1874 1737 Z"/><path class="f5" d="M1840 1737 L1753 1650 L1787 1650 L1874 1737 Z" /></g><g class="o"><path transform="translate(4,8)" class="S ss" d="M1735 1737 L1491 1493 L1491 1503 L1735 1747 Z"/><path class="s1" d="M1735 1737 L1491 1493 L1491 1503 L1735 1747 Z" /></g><g class="o"><path transform="translate(9,18)" class="S sfv" d="M1687 1502 L1499 1314 L1499 1340 L1687 1528 Z"/><path class="fv7" d="M1687 1502 L1499 1314 L1499 1340 L1687 1528 Z" /></g><g class="o"><path transform="translate(8,16)" class="S sfh" d="M1485 1714 L1341 1570 L1367 1570 L1511 1714 Z"/><path class="fh3" d="M1485 1714 L1341 1570 L1367 1570 L1511 1714 Z" /></g><g class="o"><path transform="translate(8,16)" class="S sf" d="M1507 1007 L1396 896 L1428 896 L1539 1007 Z"/><path class="f2" d="M1507 1007 L1396 896 L1428 896 L1539 1007 Z" /></g><g class="o"><path transform="translate(7,14)" class="S sfv" d="M1737 1431 L1511 1205 L1511 1223 L1737 1449 Z"/><path class="fv4" d="M1737 1431 L1511 1205 L1511 1223 L1737 1449 Z" /></g><g class="o"><path transform="translate(8,16)" class="S ssh" d="M1581 1420 L1429 1268 L1465 1268 L1617 1420 Z"/><path class="sh1" d="M1581 1420 L1429 1268 L1465 1268 L1617 1420 Z" /></g><g class="o"><path transform="translate(2,4)" class="S sfv" d="M2039 1387 L1969 1317 L1969 1351 L2039 1421 Z"/><path class="fv7" d="M2039 1387 L1969 1317 L1969 1351 L2039 1421 Z" /></g><g class="o"><path transform="translate(8,16)" class="S sfh" d="M950 1334 L731 1115 L761 1115 L980 1334 Z"/><path class="fh5" d="M950 1334 L731 1115 L761 1115 L980 1334 Z" /></g><g class="o"><path transform="translate(8,16)" class="S sfv" d="M1501 1694 L1307 1500 L1307 1522 L1501 1716 Z"/><path class="fv2" d="M1501 1694 L1307 1500 L1307 1522 L1501 1716 Z" /></g><g class="o"><path transform="translate(2,4)" class="S sfh" d="M1973 1095 L1913 1035 L2033 1035 L2093 1095 Z"/><path class="fh5" d="M1973 1095 L1913 1035 L2033 1035 L2093 1095 Z" /></g><g class="o"><path transform="translate(8,16)" class="S sf" d="M1435 1216 L1374 1155 L1374 1191 L1435 1252 Z"/><path class="f4" d="M1435 1216 L1374 1155 L1374 1191 L1435 1252 Z" /></g><g class="o"><path transform="translate(9,18)" class="S sfv" d="M1132 966 L1001 835 L1001 863 L1132 994 Z"/><path class="fv6" d="M1132 966 L1001 835 L1001 863 L1132 994 Z" /></g><g class="o"><path transform="translate(2,4)" class="S sfv" d="M1699 1028 L1459 788 L1459 812 L1699 1052 Z"/><path class="fv5" d="M1699 1028 L1459 788 L1459 812 L1699 1052 Z" /></g><g class="o"><path transform="translate(2,4)" class="S sfv" d="M1475 1765 L1301 1591 L1301 1629 L1475 1803 Z"/><path class="fv3" d="M1475 1765 L1301 1591 L1301 1629 L1475 1803 Z" /></g><g class="o"><path transform="translate(8,16)" class="S sfh" d="M1002 1272 L873 1143 L893 1143 L1022 1272 Z"/><path class="fh6" d="M1002 1272 L873 1143 L893 1143 L1022 1272 Z" /></g><g class="o"><path transform="translate(4,8)" class="S sfh" d="M1165 1898 L981 1714 L999 1714 L1183 1898 Z"/><path class="fh2" d="M1165 1898 L981 1714 L999 1714 L1183 1898 Z" /></g><g class="o"><path transform="translate(6,12)" class="S sfv" d="M1560 1648 L1498 1586 L1498 1602 L1560 1664 Z"/><path class="fv7" d="M1560 1648 L1498 1586 L1498 1602 L1560 1664 Z" /></g><g class="o"><path transform="translate(4,8)" class="S sfh" d="M1430 1771 L1189 1530 L1205 1530 L1446 1771 Z"/><path class="fh3" d="M1430 1771 L1189 1530 L1205 1530 L1446 1771 Z" /></g><g class="o"><path transform="translate(7,14)" class="S sf" d="M1548 1125 L1421 998 L1421 1032 L1548 1159 Z"/><path class="f5" d="M1548 1125 L1421 998 L1421 1032 L1548 1159 Z" /></g><g class="o"><path transform="translate(8,16)" class="S sfv" d="M1040 1505 L968 1433 L968 1457 L1040 1529 Z"/><path class="fv3" d="M1040 1505 L968 1433 L968 1457 L1040 1529 Z" /></g><g class="o"><path transform="translate(5,10)" class="S sfv" d="M2003 1188 L1829 1014 L1829 1026 L2003 1200 Z"/><path class="fv4" d="M2003 1188 L1829 1014 L1829 1026 L2003 1200 Z" /></g><g class="o"><path transform="translate(8,16)" class="S ssv" d="M967 1620 L875 1528 L875 1556 L967 1648 Z"/><path class="sv1" d="M967 1620 L875 1528 L875 1556 L967 1648 Z" /></g><g class="o"><path transform="translate(9,18)" class="S sf" d="M1465 1940 L1342 1817 L1352 1817 L1475 1940 Z"/><path class="f3" d="M1465 1940 L1342 1817 L1352 1817 L1475 1940 Z" /></g><g class="o"><path transform="translate(2,4)" class="S sfv" d="M1296 1023 L1222 949 L1222 965 L1296 1039 Z"/><path class="fv1" d="M1296 1023 L1222 949 L1222 965 L1296 1039 Z" /></g><g class="o"><path transform="translate(8,16)" class="S sf" d="M1485 1112 L1258 885 L1258 903 L1485 1130 Z"/><path class="f5" d="M1485 1112 L1258 885 L1258 903 L1485 1130 Z" /></g><g class="o"><path transform="translate(6,12)" class="S sfh" d="M1736 1322 L1505 1091 L1521 1091 L1752 1322 Z"/><path class="fh7" d="M1736 1322 L1505 1091 L1521 1091 L1752 1322 Z" /></g><g class="o"><path transform="translate(3,6)" class="S sfv" d="M1023 1900 L876 1753 L876 1777 L1023 1924 Z"/><path class="fv2" d="M1023 1900 L876 1753 L876 1777 L1023 1924 Z" /></g><g class="o"><path transform="translate(5,10)" class="S sfh" d="M1554 1233 L1341 1020 L1371 1020 L1584 1233 Z"/><path class="fh5" d="M1554 1233 L1341 1020 L1371 1020 L1584 1233 Z" /></g><g class="o"><path transform="translate(9,18)" class="S sfh" d="M1110 1198 L866 954 L894 954 L1138 1198 Z"/><path class="fh2" d="M1110 1198 L866 954 L894 954 L1138 1198 Z" /></g><g class="o"><path transform="translate(3,6)" class="S sfh" d="M1415 1201 L1214 1000 L1238 1000 L1439 1201 Z"/><path class="fh3" d="M1415 1201 L1214 1000 L1238 1000 L1439 1201 Z" /></g><g class="o"><path transform="translate(8,16)" class="S sfh" d="M2018 1980 L1796 1758 L1822 1758 L2044 1980 Z"/><path class="fh5" d="M2018 1980 L1796 1758 L1822 1758 L2044 1980 Z" /></g><g class="o"><path transform="translate(5,10)" class="S ssv" d="M1697 961 L1519 783 L1519 811 L1697 989 Z"/><path class="sv6" d="M1697 961 L1519 783 L1519 811 L1697 989 Z" /></g><g class="o"><path transform="translate(4,8)" class="S sfv" d="M1692 1713 L1555 1576 L1555 1596 L1692 1733 Z"/><path class="fv1" d="M1692 1713 L1555 1576 L1555 1596 L1692 1733 Z" /></g><g class="o"><path transform="translate(5,10)" class="S sfv" d="M988 1158 L849 1019 L849 1037 L988 1176 Z"/><path class="fv1" d="M988 1158 L849 1019 L849 1037 L988 1176 Z" /></g><g class="o"><path transform="translate(2,4)" class="S sfh" d="M1019 1187 L941 1109 L959 1109 L1037 1187 Z"/><path class="fh4" d="M1019 1187 L941 1109 L959 1109 L1037 1187 Z" /></g><g class="o"><path transform="translate(2,4)" class="S sf" d="M1845 1444 L1708 1307 L1726 1307 L1863 1444 Z"/><path class="f4" d="M1845 1444 L1708 1307 L1726 1307 L1863 1444 Z" /></g><g class="o"><path transform="translate(8,16)" class="S ssv" d="M1692 1484 L1569 1361 L1569 1397 L1692 1520 Z"/><path class="sv3" d="M1692 1484 L1569 1361 L1569 1397 L1692 1520 Z" /></g><g class="o"><path transform="translate(5,10)" class="S ssh" d="M1147 1246 L922 1021 L958 1021 L1183 1246 Z"/><path class="sh5" d="M1147 1246 L922 1021 L958 1021 L1183 1246 Z" /></g><g class="o"><path transform="translate(9,18)" class="S sfv" d="M1962 1763 L1856 1657 L1856 1681 L1962 1787 Z"/><path class="fv5" d="M1962 1763 L1856 1657 L1856 1681 L1962 1787 Z" /></g><g class="o"><path transform="translate(5,10)" class="S ssh" d="M1051 1572 L968 1489 L1080 1489 L1163 1572 Z"/><path class="sh6" d="M1051 1572 L968 1489 L1080 1489 L1163 1572 Z" /></g><g class="o"><path transform="translate(6,12)" class="S sfh" d="M1601 1723 L1470 1592 L1506 1592 L1637 1723 Z"/><path class="fh3" d="M1601 1723 L1470 1592 L1506 1592 L1637 1723 Z" /></g><g class="o"><path transform="translate(4,8)" class="S sfv" d="M1458 1933 L1367 1842 L1367 1854 L1458 1945 Z"/><path class="fv1" d="M1458 1933 L1367 1842 L1367 1854 L1458 1945 Z" /></g><g class="o"><path transform="translate(3,6)" class="S sfv" d="M1148 1267 L900 1019 L900 1041 L1148 1289 Z"/><path class="fv4" d="M1148 1267 L900 1019 L900 1041 L1148 1289 Z" /></g><g class="o"><path transform="translate(9,18)" class="S sfv" d="M1480 1122 L1347 989 L1347 1025 L1480 1158 Z"/><path class="fv1" d="M1480 1122 L1347 989 L1347 1025 L1480 1158 Z" /></g><g class="o"><path transform="translate(2,4)" class="S ssh" d="M1447 1501 L1300 1354 L1330 1354 L1477 1501 Z"/><path class="sh5" d="M1447 1501 L1300 1354 L1330 1354 L1477 1501 Z" /></g><g class="o"><path transform="translate(3,6)" class="S ssh" d="M1068 1174 L886 992 L942 992 L1124 1174 Z"/><path class="sh4" d="M1068 1174 L886 992 L942 992 L1124 1174 Z" /></g><g class="o"><path transform="translate(4,8)" class="S sfh" d="M1813 1476 L1623 1286 L1645 1286 L1835 1476 Z"/><path class="fh1" d="M1813 1476 L1623 1286 L1645 1286 L1835 1476 Z" /></g><g class="o"><path transform="translate(6,12)" class="S sfv" d="M1689 1933 L1510 1754 L1510 1770 L1689 1949 Z"/><path class="fv3" d="M1689 1933 L1510 1754 L1510 1770 L1689 1949 Z" /></g><g class="o"><path transform="translate(2,4)" class="S sfh" d="M1231 1837 L1020 1626 L1034 1626 L1245 1837 Z"/><path class="fh5" d="M1231 1837 L1020 1626 L1034 1626 L1245 1837 Z" /></g><g class="o"><path transform="translate(2,4)" class="S sfv" d="M979 1504 L790 1315 L790 1335 L979 1524 Z"/><path class="fv6" d="M979 1504 L790 1315 L790 1335 L979 1524 Z" /></g><g class="o"><path transform="translate(9,18)" class="S sf" d="M1682 1880 L1627 1825 L1663 1825 L1718 1880 Z"/><path class="f2" d="M1682 1880 L1627 1825 L1663 1825 L1718 1880 Z" /></g><g class="o"><path transform="translate(6,12)" class="S sfh" d="M1018 1565 L787 1334 L809 1334 L1040 1565 Z"/><path class="fh1" d="M1018 1565 L787 1334 L809 1334 L1040 1565 Z" /></g><g class="o"><path transform="translate(5,10)" class="S sfv" d="M1259 1881 L1047 1669 L1047 1805 L1259 2017 Z"/><path class="fv4" d="M1259 1881 L1047 1669 L1047 1805 L1259 2017 Z" /></g><g class="o"><path transform="translate(8,16)" class="S sfh" d="M1676 1859 L1553 1736 L1697 1736 L1820 1859 Z"/><path class="fh5" d="M1676 1859 L1553 1736 L1697 1736 L1820 1859 Z" /></g><g class="o"><path transform="translate(3,6)" class="S sfv" d="M1501 1273 L1306 1078 L1306 1110 L1501 1305 Z"/><path class="fv5" d="M1501 1273 L1306 1078 L1306 1110 L1501 1305 Z" /></g><g class="o"><path transform="translate(3,6)" class="S sfv" d="M1640 1771 L1517 1648 L1517 1656 L1640 1779 Z"/><path class="fv7" d="M1640 1771 L1517 1648 L1517 1656 L1640 1779 Z" /></g><g class="o"><path transform="translate(5,10)" class="S sfh" d="M1387 1247 L1289 1149 L1305 1149 L1403 1247 Z"/><path class="fh1" d="M1387 1247 L1289 1149 L1305 1149 L1403 1247 Z" /></g><g class="o"><path transform="translate(8,16)" class="S sfv" d="M1967 1732 L1781 1546 L1781 1572 L1967 1758 Z"/><path class="fv4" d="M1967 1732 L1781 1546 L1781 1572 L1967 1758 Z" /></g><g class="o"><path transform="translate(8,16)" class="S sfv" d="M1099 1266 L951 1118 L951 1156 L1099 1304 Z"/><path class="fv5" d="M1099 1266 L951 1118 L951 1156 L1099 1304 Z" /></g><g class="o"><path transform="translate(9,18)" class="S sfv" d="M1262 1274 L1110 1122 L1110 1146 L1262 1298 Z"/><path class="fv1" d="M1262 1274 L1110 1122 L1110 1146 L1262 1298 Z" /></g><g class="o"><path transform="translate(4,8)" class="S ssv" d="M988 1132 L805 949 L805 963 L988 1146 Z"/><path class="sv7" d="M988 1132 L805 949 L805 963 L988 1146 Z" /></g><g class="o"><path transform="translate(8,16)" class="S sf" d="M1726 1440 L1556 1270 L1556 1296 L1726 1466 Z"/><path class="f3" d="M1726 1440 L1556 1270 L1556 1296 L1726 1466 Z" /></g><g class="o"><path transform="translate(4,8)" class="S sfh" d="M975 1809 L791 1625 L829 1625 L1013 1809 Z"/><path class="fh4" d="M975 1809 L791 1625 L829 1625 L1013 1809 Z" /></g><g class="o"><path transform="translate(4,8)" class="S sfh" d="M1438 1136 L1373 1071 L1407 1071 L1472 1136 Z"/><path class="fh4" d="M1438 1136 L1373 1071 L1407 1071 L1472 1136 Z" /></g><g class="o"><path transform="translate(3,6)" class="S sfv" d="M1539 1746 L1319 1526 L1319 1598 L1539 1818 Z"/><path class="fv7" d="M1539 1746 L1319 1526 L1319 1598 L1539 1818 Z" /></g><g class="o"><path transform="translate(2,4)" class="S sfv" d="M1440 998 L1270 828 L1270 846 L1440 1016 Z"/><path class="fv2" d="M1440 998 L1270 828 L1270 846 L1440 1016 Z" /></g><g class="o"><path transform="translate(8,16)" class="S sf" d="M2007 1006 L1871 870 L1871 904 L2007 1040 Z"/><path class="f2" d="M2007 1006 L1871 870 L1871 904 L2007 1040 Z" /></g><g class="o"><path transform="translate(3,6)" class="S sfv" d="M1412 2022 L1166 1776 L1166 1802 L1412 2048 Z"/><path class="fv5" d="M1412 2022 L1166 1776 L1166 1802 L1412 2048 Z" /></g><g class="o"><path transform="translate(8,16)" class="S sfh" d="M1380 1178 L1285 1083 L1309 1083 L1404 1178 Z"/><path class="fh3" d="M1380 1178 L1285 1083 L1309 1083 L1404 1178 Z" /></g><g class="o"><path transform="translate(8,16)" class="S ssv" d="M1386 1147 L1252 1013 L1252 1029 L1386 1163 Z"/><path class="sv3" d="M1386 1147 L1252 1013 L1252 1029 L1386 1163 Z" /></g><g class="o"><path transform="translate(5,10)" class="S sf" d="M1533 1759 L1379 1605 L1379 1669 L1533 1823 Z"/><path class="f5" d="M1533 1759 L1379 1605 L1379 1669 L1533 1823 Z" /></g><g class="o"><path transform="translate(7,14)" class="S sf" d="M1418 1124 L1342 1048 L1366 1048 L1442 1124 Z"/><path class="f7" d="M1418 1124 L1342 1048 L1366 1048 L1442 1124 Z" /></g></g><use href="#slashes" transform-origin="1500 1500" transform="rotate(180) scale(2)"/></g><polyline points="1500,1010 1990,1500 1500,1990 1010,1500 1500,1010 1990,1500" stroke-width="160" class="o s5" /><use href="#slashes" transform-origin="1500 1500" transform="scale(.7)"/><use href="#slashes" transform-origin="1500 1500" transform="rotate(180) scale(.3)"/></svg>