<svg xmlns="http://www.w3.org/2000/svg" viewBox="750 750 1500 1500"><style>/*<![CDATA[*/svg{background:rgb(82,81,116);max-width:100vw;max-height:100vh}path{stroke-width:4}.o{opacity:.75}.S{opacity:.4}.sf{stroke:none;fill:black}.sfh{stroke:none;fill:url(#hs)}.sfv{stroke:none;fill:url(#vs)}.ss{stroke:black;fill:none}.ssh{stroke:url(#hs);fill:none}.ssv{stroke:url(#vs);fill:none}.s1{fill:none;stroke:rgb(188,231,132)}.f1{stroke:none;fill:rgb(188,231,132)}.sh1{fill:none;stroke:url(#h1)}.fh1{stroke:none;fill:url(#h1)}.sv1{fill:none;stroke:url(#v1)}.fv1{stroke:none;fill:url(#v1)}.s2{fill:none;stroke:rgb(52,138,167)}.f2{stroke:none;fill:rgb(52,138,167)}.sh2{fill:none;stroke:url(#h2)}.fh2{stroke:none;fill:url(#h2)}.sv2{fill:none;stroke:url(#v2)}.fv2{stroke:none;fill:url(#v2)}.s3{fill:none;stroke:rgb(81,59,86)}.f3{stroke:none;fill:rgb(81,59,86)}.sh3{fill:none;stroke:url(#h3)}.fh3{stroke:none;fill:url(#h3)}.sv3{fill:none;stroke:url(#v3)}.fv3{stroke:none;fill:url(#v3)}.s4{fill:none;stroke:rgb(34,34,34)}.f4{stroke:none;fill:rgb(34,34,34)}.sh4{fill:none;stroke:url(#h4)}.fh4{stroke:none;fill:url(#h4)}.sv4{fill:none;stroke:url(#v4)}.fv4{stroke:none;fill:url(#v4)}.s5{fill:none;stroke:rgb(93,211,158)}.f5{stroke:none;fill:rgb(93,211,158)}.sh5{fill:none;stroke:url(#h5)}.fh5{stroke:none;fill:url(#h5)}.sv5{fill:none;stroke:url(#v5)}.fv5{stroke:none;fill:url(#v5)}.s6{fill:none;stroke:rgb(255,255,255)}.f6{stroke:none;fill:rgb(255,255,255)}.sh6{fill:none;stroke:url(#h6)}.fh6{stroke:none;fill:url(#h6)}.sv6{fill:none;stroke:url(#v6)}.fv6{stroke:none;fill:url(#v6)}.s7{fill:none;stroke:rgb(255,255,0)}.f7{stroke:none;fill:rgb(255,255,0)}.sh7{fill:none;stroke:url(#h7)}.fh7{stroke:none;fill:url(#h7)}.sv7{fill:none;stroke:url(#v7)}.fv7{stroke:none;fill:url(#v7)}/*]]>*/</style><defs><linearGradient gradientTransform="rotate(90)" id="hs"><stop offset="20%" stop-color="#000" /><stop offset="95%" stop-color="rgba(0, 0, 0, 0)" /></linearGradient><linearGradient id="vs"><stop offset="20%" stop-color="#000" /><stop offset="95%" stop-color="rgba(0, 0, 0, 0)" /></linearGradient><linearGradient gradientTransform="rotate(90)" id="h1"><stop offset="20%" stop-color="rgba(188,231,132,1)" /><stop offset="95%" stop-color="rgba(188,231,132,0)" /></linearGradient><linearGradient id="v1"><stop offset="20%" stop-color="rgba(188,231,132,1)" /><stop offset="95%" stop-color="rgba(188,231,132,0)" /></linearGradient><linearGradient gradientTransform="rotate(90)" id="h2"><stop offset="20%" stop-color="rgba(52,138,167,1)" /><stop offset="95%" stop-color="rgba(52,138,167,0)" /></linearGradient><linearGradient id="v2"><stop offset="20%" stop-color="rgba(52,138,167,1)" /><stop offset="95%" stop-color="rgba(52,138,167,0)" /></linearGradient><linearGradient gradientTransform="rotate(90)" id="h3"><stop offset="20%" stop-color="rgba(81,59,86,1)" /><stop offset="95%" stop-color="rgba(81,59,86,0)" /></linearGradient><linearGradient id="v3"><stop offset="20%" stop-color="rgba(81,59,86,1)" /><stop offset="95%" stop-color="rgba(81,59,86,0)" /></linearGradient><linearGradient gradientTransform="rotate(90)" id="h4"><stop offset="20%" stop-color="rgba(34,34,34,1)" /><stop offset="95%" stop-color="rgba(34,34,34,0)" /></linearGradient><linearGradient id="v4"><stop offset="20%" stop-color="rgba(34,34,34,1)" /><stop offset="95%" stop-color="rgba(34,34,34,0)" /></linearGradient><linearGradient gradientTransform="rotate(90)" id="h5"><stop offset="20%" stop-color="rgba(93,211,158,1)" /><stop offset="95%" stop-color="rgba(93,211,158,0)" /></linearGradient><linearGradient id="v5"><stop offset="20%" stop-color="rgba(93,211,158,1)" /><stop offset="95%" stop-color="rgba(93,211,158,0)" /></linearGradient><linearGradient gradientTransform="rotate(90)" id="h6"><stop offset="20%" stop-color="rgba(255,255,255,1)" /><stop offset="95%" stop-color="rgba(255,255,255,0)" /></linearGradient><linearGradient id="v6"><stop offset="20%" stop-color="rgba(255,255,255,1)" /><stop offset="95%" stop-color="rgba(255,255,255,0)" /></linearGradient><linearGradient gradientTransform="rotate(90)" id="h7"><stop offset="20%" stop-color="rgba(255,255,0,1)" /><stop offset="95%" stop-color="rgba(255,255,0,0)" /></linearGradient><linearGradient id="v7"><stop offset="20%" stop-color="rgba(255,255,0,1)" /><stop offset="95%" stop-color="rgba(255,255,0,0)" /></linearGradient></defs><g transform-origin="1500 1500" transform="scale(2)" opacity=".8"><g id="slashes"><g class="o"><path transform="translate(6,12)" class="S sfh" d="M1398 1797 L1908 1287 L1944 1287 L1434 1797 Z"/><path class="fh4" d="M1398 1797 L1908 1287 L1944 1287 L1434 1797 Z" /></g><g class="o"><path transform="translate(4,8)" class="S sfh" d="M1526 1976 L1949 1553 L1981 1553 L1558 1976 Z"/><path class="fh4" d="M1526 1976 L1949 1553 L1981 1553 L1558 1976 Z" /></g><g class="o"><path transform="translate(4,8)" class="S ssv" d="M1131 1875 L1410 1596 L1410 1604 L1131 1883 Z"/><path class="sv6" d="M1131 1875 L1410 1596 L1410 1604 L1131 1883 Z" /></g><g class="o"><path transform="translate(2,4)" class="S ss" d="M1319 1839 L1700 1458 L1700 1484 L1319 1865 Z"/><path class="s1" d="M1319 1839 L1700 1458 L1700 1484 L1319 1865 Z" /></g><g class="o"><path transform="translate(8,16)" class="S sfv" d="M1308 1354 L1536 1126 L1536 1160 L1308 1388 Z"/><path class="fv5" d="M1308 1354 L1536 1126 L1536 1160 L1308 1388 Z" /></g><g class="o"><path transform="translate(6,12)" class="S sf" d="M1394 1502 L1605 1291 L1627 1291 L1416 1502 Z"/><path class="f1" d="M1394 1502 L1605 1291 L1627 1291 L1416 1502 Z" /></g><g class="o"><path transform="translate(9,18)" class="S sfv" d="M1968 1542 L2652 858 L2652 872 L1968 1556 Z"/><path class="fv1" d="M1968 1542 L2652 858 L2652 872 L1968 1556 Z" /></g><g class="o"><path transform="translate(6,12)" class="S sfv" d="M1295 1804 L1391 1708 L1391 1742 L1295 1838 Z"/><path class="fv3" d="M1295 1804 L1391 1708 L1391 1742 L1295 1838 Z" /></g><g class="o"><path transform="translate(5,10)" class="S sfv" d="M1963 1357 L2099 1221 L2099 1233 L1963 1369 Z"/><path class="fv5" d="M1963 1357 L2099 1221 L2099 1233 L1963 1369 Z" /></g><g class="o"><path transform="translate(7,14)" class="S sfh" d="M1875 1952 L2089 1738 L2105 1738 L1891 1952 Z"/><path class="fh6" d="M1875 1952 L2089 1738 L2105 1738 L1891 1952 Z" /></g><g class="o"><path transform="translate(5,10)" class="S ssv" d="M1189 1709 L1792 1106 L1792 1130 L1189 1733 Z"/><path class="sv3" d="M1189 1709 L1792 1106 L1792 1130 L1189 1733 Z" /></g><g class="o"><path transform="translate(4,8)" class="S sfh" d="M1967 1523 L2693 797 L2729 797 L2003 1523 Z"/><path class="fh4" d="M1967 1523 L2693 797 L2729 797 L2003 1523 Z" /></g><g class="o"><path transform="translate(8,16)" class="S sfv" d="M1370 1663 L1736 1297 L1736 1385 L1370 1751 Z"/><path class="fv3" d="M1370 1663 L1736 1297 L1736 1385 L1370 1751 Z" /></g><g class="o"><path transform="translate(4,8)" class="S sfv" d="M2026 1267 L2539 754 L2539 784 L2026 1297 Z"/><path class="fv1" d="M2026 1267 L2539 754 L2539 784 L2026 1297 Z" /></g><g class="o"><path transform="translate(2,4)" class="S ssv" d="M1313 2029 L1763 1579 L1763 1597 L1313 2047 Z"/><path class="sv4" d="M1313 2029 L1763 1579 L1763 1597 L1313 2047 Z" /></g><g class="o"><path transform="translate(4,8)" class="S sf" d="M1323 1337 L1499 1161 L1499 1195 L1323 1371 Z"/><path class="f5" d="M1323 1337 L1499 1161 L1499 1195 L1323 1371 Z" /></g><g class="o"><path transform="translate(7,14)" class="S sfh" d="M1872 1997 L2049 1820 L2065 1820 L1888 1997 Z"/><path class="fh6" d="M1872 1997 L2049 1820 L2065 1820 L1888 1997 Z" /></g><g class="o"><path transform="translate(3,6)" class="S ss" d="M1946 2020 L2240 1726 L2240 1758 L1946 2052 Z"/><path class="s5" d="M1946 2020 L2240 1726 L2240 1758 L1946 2052 Z" /></g><g class="o"><path transform="translate(2,4)" class="S sfh" d="M975 1266 L1362 879 L1506 879 L1119 1266 Z"/><path class="fh4" d="M975 1266 L1362 879 L1506 879 L1119 1266 Z" /></g><g class="o"><path transform="translate(4,8)" class="S sfv" d="M1030 1143 L1564 609 L1564 633 L1030 1167 Z"/><path class="fv3" d="M1030 1143 L1564 609 L1564 633 L1030 1167 Z" /></g><g class="o"><path transform="translate(6,12)" class="S sfh" d="M1276 1398 L1459 1215 L1487 1215 L1304 1398 Z"/><path class="fh3" d="M1276 1398 L1459 1215 L1487 1215 L1304 1398 Z" /></g><g class="o"><path transform="translate(5,10)" class="S sfv" d="M1799 1606 L1873 1532 L1873 1564 L1799 1638 Z"/><path class="fv7" d="M1799 1606 L1873 1532 L1873 1564 L1799 1638 Z" /></g><g class="o"><path transform="translate(8,16)" class="S sfv" d="M1379 1974 L1573 1780 L1573 1792 L1379 1986 Z"/><path class="fv3" d="M1379 1974 L1573 1780 L1573 1792 L1379 1986 Z" /></g><g class="o"><path transform="translate(6,12)" class="S sf" d="M1309 1125 L1843 591 L1843 625 L1309 1159 Z"/><path class="f4" d="M1309 1125 L1843 591 L1843 625 L1309 1159 Z" /></g><g class="o"><path transform="translate(8,16)" class="S sfv" d="M1309 1634 L1969 974 L1969 1022 L1309 1682 Z"/><path class="fv1" d="M1309 1634 L1969 974 L1969 1022 L1309 1682 Z" /></g><g class="o"><path transform="translate(8,16)" class="S sfv" d="M1205 1359 L1448 1116 L1448 1132 L1205 1375 Z"/><path class="fv4" d="M1205 1359 L1448 1116 L1448 1132 L1205 1375 Z" /></g><g class="o"><path transform="translate(2,4)" class="S ssh" d="M1230 1625 L1454 1401 L1486 1401 L1262 1625 Z"/><path class="sh3" d="M1230 1625 L1454 1401 L1486 1401 L1262 1625 Z" /></g><g class="o"><path transform="translate(6,12)" class="S sfh" d="M1142 1346 L1664 824 L1672 824 L1150 1346 Z"/><path class="fh3" d="M1142 1346 L1664 824 L1672 824 L1150 1346 Z" /></g><g class="o"><path transform="translate(3,6)" class="S sfv" d="M1456 1136 L2080 512 L2080 540 L1456 1164 Z"/><path class="fv6" d="M1456 1136 L2080 512 L2080 540 L1456 1164 Z" /></g><g class="o"><path transform="translate(3,6)" class="S ssv" d="M968 1173 L1337 804 L1337 840 L968 1209 Z"/><path class="sv5" d="M968 1173 L1337 804 L1337 840 L968 1209 Z" /></g><g class="o"><path transform="translate(7,14)" class="S sf" d="M1315 1950 L1467 1798 L1467 1816 L1315 1968 Z"/><path class="f7" d="M1315 1950 L1467 1798 L1467 1816 L1315 1968 Z" /></g><g class="o"><path transform="translate(6,12)" class="S ssh" d="M1750 1900 L2173 1477 L2201 1477 L1778 1900 Z"/><path class="sh3" d="M1750 1900 L2173 1477 L2201 1477 L1778 1900 Z" /></g><g class="o"><path transform="translate(3,6)" class="S sf" d="M1309 1614 L1452 1471 L1470 1471 L1327 1614 Z"/><path class="f7" d="M1309 1614 L1452 1471 L1470 1471 L1327 1614 Z" /></g><g class="o"><path transform="translate(9,18)" class="S sfv" d="M1818 976 L2538 256 L2538 312 L1818 1032 Z"/><path class="fv1" d="M1818 976 L2538 256 L2538 312 L1818 1032 Z" /></g><g class="o"><path transform="translate(4,8)" class="S sfh" d="M1888 1108 L2070 926 L2104 926 L1922 1108 Z"/><path class="fh7" d="M1888 1108 L2070 926 L2104 926 L1922 1108 Z" /></g><g class="o"><path transform="translate(2,4)" class="S sfh" d="M1147 1636 L1537 1246 L1601 1246 L1211 1636 Z"/><path class="fh5" d="M1147 1636 L1537 1246 L1601 1246 L1211 1636 Z" /></g><g class="o"><path transform="translate(8,16)" class="S sfh" d="M997 1451 L1174 1274 L1200 1274 L1023 1451 Z"/><path class="fh5" d="M997 1451 L1174 1274 L1200 1274 L1023 1451 Z" /></g><g class="o"><path transform="translate(8,16)" class="S sf" d="M973 1278 L1057 1194 L1057 1220 L973 1304 Z"/><path class="f6" d="M973 1278 L1057 1194 L1057 1220 L973 1304 Z" /></g><g class="o"><path transform="translate(6,12)" class="S sf" d="M1796 1747 L1986 1557 L2010 1557 L1820 1747 Z"/><path class="f7" d="M1796 1747 L1986 1557 L2010 1557 L1820 1747 Z" /></g><g class="o"><path transform="translate(4,8)" class="S sfv" d="M1256 1549 L1886 919 L1886 939 L1256 1569 Z"/><path class="fv5" d="M1256 1549 L1886 919 L1886 939 L1256 1569 Z" /></g><g class="o"><path transform="translate(5,10)" class="S ssh" d="M1601 1628 L1934 1295 L1966 1295 L1633 1628 Z"/><path class="sh5" d="M1601 1628 L1934 1295 L1966 1295 L1633 1628 Z" /></g><g class="o"><path transform="translate(8,16)" class="S sf" d="M1461 1332 L2097 696 L2097 800 L1461 1436 Z"/><path class="f7" d="M1461 1332 L2097 696 L2097 800 L1461 1436 Z" /></g><g class="o"><path transform="translate(3,6)" class="S ssh" d="M1038 985 L1671 352 L1681 352 L1048 985 Z"/><path class="sh6" d="M1038 985 L1671 352 L1681 352 L1048 985 Z" /></g><g class="o"><path transform="translate(5,10)" class="S ss" d="M2010 1143 L2172 981 L2172 1007 L2010 1169 Z"/><path class="s7" d="M2010 1143 L2172 981 L2172 1007 L2010 1169 Z" /></g><g class="o"><path transform="translate(9,18)" class="S ssh" d="M1099 1539 L1188 1450 L1202 1450 L1113 1539 Z"/><path class="sh5" d="M1099 1539 L1188 1450 L1202 1450 L1113 1539 Z" /></g><g class="o"><path transform="translate(8,16)" class="S ssh" d="M1037 971 L1502 506 L1538 506 L1073 971 Z"/><path class="sh6" d="M1037 971 L1502 506 L1538 506 L1073 971 Z" /></g><g class="o"><path transform="translate(3,6)" class="S sfh" d="M1992 1644 L2238 1398 L2256 1398 L2010 1644 Z"/><path class="fh7" d="M1992 1644 L2238 1398 L2256 1398 L2010 1644 Z" /></g><g class="o"><path transform="translate(9,18)" class="S sfv" d="M1134 1190 L1338 986 L1338 1018 L1134 1222 Z"/><path class="fv6" d="M1134 1190 L1338 986 L1338 1018 L1134 1222 Z" /></g><g class="o"><path transform="translate(6,12)" class="S sfh" d="M2014 1897 L2069 1842 L2103 1842 L2048 1897 Z"/><path class="fh6" d="M2014 1897 L2069 1842 L2103 1842 L2048 1897 Z" /></g><g class="o"><path transform="translate(4,8)" class="S sf" d="M2001 1022 L2325 698 L2343 698 L2019 1022 Z"/><path class="f6" d="M2001 1022 L2325 698 L2343 698 L2019 1022 Z" /></g><g class="o"><path transform="translate(2,4)" class="S ssh" d="M1196 1947 L1319 1824 L1333 1824 L1210 1947 Z"/><path class="sh7" d="M1196 1947 L1319 1824 L1333 1824 L1210 1947 Z" /></g><g class="o"><path transform="translate(3,6)" class="S ssh" d="M1041 1133 L1166 1008 L1202 1008 L1077 1133 Z"/><path class="sh3" d="M1041 1133 L1166 1008 L1202 1008 L1077 1133 Z" /></g><g class="o"><path transform="translate(5,10)" class="S sfv" d="M1275 1443 L1818 900 L1818 916 L1275 1459 Z"/><path class="fv1" d="M1275 1443 L1818 900 L1818 916 L1275 1459 Z" /></g><g class="o"><path transform="translate(8,16)" class="S sf" d="M1823 1252 L1989 1086 L2017 1086 L1851 1252 Z"/><path class="f3" d="M1823 1252 L1989 1086 L2017 1086 L1851 1252 Z" /></g><g class="o"><path transform="translate(8,16)" class="S sfh" d="M942 1418 L1059 1301 L1107 1301 L990 1418 Z"/><path class="fh3" d="M942 1418 L1059 1301 L1107 1301 L990 1418 Z" /></g><g class="o"><path transform="translate(4,8)" class="S sf" d="M1299 1272 L1537 1034 L1537 1056 L1299 1294 Z"/><path class="f2" d="M1299 1272 L1537 1034 L1537 1056 L1299 1294 Z" /></g><g class="o"><path transform="translate(4,8)" class="S sfv" d="M1670 1825 L2378 1117 L2378 1147 L1670 1855 Z"/><path class="fv5" d="M1670 1825 L2378 1117 L2378 1147 L1670 1855 Z" /></g><g class="o"><path transform="translate(6,12)" class="S sfv" d="M1871 1270 L2366 775 L2366 797 L1871 1292 Z"/><path class="fv1" d="M1871 1270 L2366 775 L2366 797 L1871 1292 Z" /></g><g class="o"><path transform="translate(8,16)" class="S sfv" d="M1604 1670 L1823 1451 L1823 1463 L1604 1682 Z"/><path class="fv5" d="M1604 1670 L1823 1451 L1823 1463 L1604 1682 Z" /></g><g class="o"><path transform="translate(9,18)" class="S sfv" d="M1760 1613 L1914 1459 L1914 1487 L1760 1641 Z"/><path class="fv1" d="M1760 1613 L1914 1459 L1914 1487 L1760 1641 Z" /></g><g class="o"><path transform="translate(2,4)" class="S sfh" d="M1042 1250 L1576 716 L1688 716 L1154 1250 Z"/><path class="fh5" d="M1042 1250 L1576 716 L1688 716 L1154 1250 Z" /></g><g class="o"><path transform="translate(9,18)" class="S sf" d="M1137 1599 L1363 1373 L1373 1373 L1147 1599 Z"/><path class="f6" d="M1137 1599 L1363 1373 L1373 1373 L1147 1599 Z" /></g><g class="o"><path transform="translate(8,16)" class="S sfv" d="M1875 1102 L2433 544 L2433 566 L1875 1124 Z"/><path class="fv4" d="M1875 1102 L2433 544 L2433 566 L1875 1124 Z" /></g><g class="o"><path transform="translate(2,4)" class="S sfv" d="M1146 1710 L1197 1659 L1197 1675 L1146 1726 Z"/><path class="fv1" d="M1146 1710 L1197 1659 L1197 1675 L1146 1726 Z" /></g><g class="o"><path transform="translate(4,8)" class="S ssh" d="M1875 1831 L2057 1649 L2067 1649 L1885 1831 Z"/><path class="sh3" d="M1875 1831 L2057 1649 L2067 1649 L1885 1831 Z" /></g><g class="o"><path transform="translate(2,4)" class="S ssh" d="M1159 1860 L1282 1737 L1318 1737 L1195 1860 Z"/><path class="sh5" d="M1159 1860 L1282 1737 L1318 1737 L1195 1860 Z" /></g><g class="o"><path transform="translate(7,14)" class="S sfh" d="M1880 1997 L2273 1604 L2401 1604 L2008 1997 Z"/><path class="fh1" d="M1880 1997 L2273 1604 L2401 1604 L2008 1997 Z" /></g><g class="o"><path transform="translate(2,4)" class="S ssv" d="M1237 1789 L1669 1357 L1669 1375 L1237 1807 Z"/><path class="sv4" d="M1237 1789 L1669 1357 L1669 1375 L1237 1807 Z" /></g><g class="o"><path transform="translate(9,18)" class="S sf" d="M1683 1472 L1763 1392 L1801 1392 L1721 1472 Z"/><path class="f1" d="M1683 1472 L1763 1392 L1801 1392 L1721 1472 Z" /></g><g class="o"><path transform="translate(4,8)" class="S sfv" d="M1307 1872 L1449 1730 L1449 1742 L1307 1884 Z"/><path class="fv6" d="M1307 1872 L1449 1730 L1449 1742 L1307 1884 Z" /></g><g class="o"><path transform="translate(9,18)" class="S sfv" d="M1613 1581 L1819 1375 L1819 1391 L1613 1597 Z"/><path class="fv3" d="M1613 1581 L1819 1375 L1819 1391 L1613 1597 Z" /></g><g class="o"><path transform="translate(5,10)" class="S sfv" d="M1523 1402 L1687 1238 L1687 1274 L1523 1438 Z"/><path class="fv7" d="M1523 1402 L1687 1238 L1687 1274 L1523 1438 Z" /></g><g class="o"><path transform="translate(5,10)" class="S sfv" d="M1607 1376 L2132 851 L2132 861 L1607 1386 Z"/><path class="fv5" d="M1607 1376 L2132 851 L2132 861 L1607 1386 Z" /></g><g class="o"><path transform="translate(9,18)" class="S sfh" d="M1254 1712 L1461 1505 L1475 1505 L1268 1712 Z"/><path class="fh3" d="M1254 1712 L1461 1505 L1475 1505 L1268 1712 Z" /></g><g class="o"><path transform="translate(9,18)" class="S sfh" d="M1440 1609 L1602 1447 L1638 1447 L1476 1609 Z"/><path class="fh2" d="M1440 1609 L1602 1447 L1638 1447 L1476 1609 Z" /></g><g class="o"><path transform="translate(3,6)" class="S sfv" d="M1116 1631 L1311 1436 L1311 1468 L1116 1663 Z"/><path class="fv6" d="M1116 1631 L1311 1436 L1311 1468 L1116 1663 Z" /></g><g class="o"><path transform="translate(4,8)" class="S sfh" d="M2002 1858 L2263 1597 L2279 1597 L2018 1858 Z"/><path class="fh5" d="M2002 1858 L2263 1597 L2279 1597 L2018 1858 Z" /></g><g class="o"><path transform="translate(2,4)" class="S sfv" d="M1337 1949 L1667 1619 L1667 1657 L1337 1987 Z"/><path class="fv6" d="M1337 1949 L1667 1619 L1667 1657 L1337 1987 Z" /></g><g class="o"><path transform="translate(2,4)" class="S sfv" d="M1253 1927 L1440 1740 L1440 1750 L1253 1937 Z"/><path class="fv7" d="M1253 1927 L1440 1740 L1440 1750 L1253 1937 Z" /></g><g class="o"><path transform="translate(5,10)" class="S sfh" d="M1379 1874 L1481 1772 L1505 1772 L1403 1874 Z"/><path class="fh4" d="M1379 1874 L1481 1772 L1505 1772 L1403 1874 Z" /></g><g class="o"><path transform="translate(5,10)" class="S sfv" d="M1482 1793 L1794 1481 L1794 1513 L1482 1825 Z"/><path class="fv2" d="M1482 1793 L1794 1481 L1794 1513 L1482 1825 Z" /></g><g class="o"><path transform="translate(6,12)" class="S sfv" d="M1145 1835 L1334 1646 L1334 1676 L1145 1865 Z"/><path class="fv4" d="M1145 1835 L1334 1646 L1334 1676 L1145 1865 Z" /></g><g class="o"><path transform="translate(7,14)" class="S sf" d="M1844 1579 L2480 943 L2480 977 L1844 1613 Z"/><path class="f1" d="M1844 1579 L2480 943 L2480 977 L1844 1613 Z" /></g><g class="o"><path transform="translate(9,18)" class="S sfh" d="M1552 1027 L1685 894 L1713 894 L1580 1027 Z"/><path class="fh7" d="M1552 1027 L1685 894 L1713 894 L1580 1027 Z" /></g><g class="o"><path transform="translate(6,12)" class="S ssh" d="M1338 1285 L1496 1127 L1514 1127 L1356 1285 Z"/><path class="sh6" d="M1338 1285 L1496 1127 L1514 1127 L1356 1285 Z" /></g><g class="o"><path transform="translate(4,8)" class="S sfv" d="M1271 1922 L1460 1733 L1460 1755 L1271 1944 Z"/><path class="fv1" d="M1271 1922 L1460 1733 L1460 1755 L1271 1944 Z" /></g><g class="o"><path transform="translate(3,6)" class="S sf" d="M1420 1497 L2014 903 L2044 903 L1450 1497 Z"/><path class="f3" d="M1420 1497 L2014 903 L2044 903 L1450 1497 Z" /></g><g class="o"><path transform="translate(9,18)" class="S sfv" d="M1367 975 L1501 841 L1501 871 L1367 1005 Z"/><path class="fv1" d="M1367 975 L1501 841 L1501 871 L1367 1005 Z" /></g><g class="o"><path transform="translate(4,8)" class="S sfv" d="M1932 2014 L2036 1910 L2036 1928 L1932 2032 Z"/><path class="fv2" d="M1932 2014 L2036 1910 L2036 1928 L1932 2032 Z" /></g><g class="o"><path transform="translate(9,18)" class="S sfv" d="M1406 1639 L1649 1396 L1649 1410 L1406 1653 Z"/><path class="fv5" d="M1406 1639 L1649 1396 L1649 1410 L1406 1653 Z" /></g><g class="o"><path transform="translate(3,6)" class="S sfv" d="M1158 1101 L1230 1029 L1230 1061 L1158 1133 Z"/><path class="fv1" d="M1158 1101 L1230 1029 L1230 1061 L1158 1133 Z" /></g><g class="o"><path transform="translate(3,6)" class="S sfv" d="M1393 1321 L1563 1151 L1563 1165 L1393 1335 Z"/><path class="fv3" d="M1393 1321 L1563 1151 L1563 1165 L1393 1335 Z" /></g><g class="o"><path transform="translate(9,18)" class="S ssh" d="M1109 1124 L1550 683 L1588 683 L1147 1124 Z"/><path class="sh6" d="M1109 1124 L1550 683 L1588 683 L1147 1124 Z" /></g><g class="o"><path transform="translate(5,10)" class="S ss" d="M1359 1568 L1555 1372 L1555 1398 L1359 1594 Z"/><path class="s3" d="M1359 1568 L1555 1372 L1555 1398 L1359 1594 Z" /></g><g class="o"><path transform="translate(5,10)" class="S sfv" d="M1741 1321 L1807 1255 L1807 1265 L1741 1331 Z"/><path class="fv2" d="M1741 1321 L1807 1255 L1807 1265 L1741 1331 Z" /></g><g class="o"><path transform="translate(2,4)" class="S sfv" d="M1216 1779 L1441 1554 L1441 1576 L1216 1801 Z"/><path class="fv7" d="M1216 1779 L1441 1554 L1441 1576 L1216 1801 Z" /></g><g class="o"><path transform="translate(5,10)" class="S sfh" d="M1746 966 L1992 720 L2030 720 L1784 966 Z"/><path class="fh2" d="M1746 966 L1992 720 L2030 720 L1784 966 Z" /></g><g class="o"><path transform="translate(6,12)" class="S sfh" d="M1452 1177 L1652 977 L1672 977 L1472 1177 Z"/><path class="fh2" d="M1452 1177 L1652 977 L1672 977 L1472 1177 Z" /></g><g class="o"><path transform="translate(2,4)" class="S sfv" d="M1920 1630 L2235 1315 L2235 1335 L1920 1650 Z"/><path class="fv7" d="M1920 1630 L2235 1315 L2235 1335 L1920 1650 Z" /></g><g class="o"><path transform="translate(3,6)" class="S sf" d="M1640 1565 L1701 1504 L1701 1552 L1640 1613 Z"/><path class="f2" d="M1640 1565 L1701 1504 L1701 1552 L1640 1613 Z" /></g><g class="o"><path transform="translate(2,4)" class="S ssv" d="M1028 1186 L1595 619 L1595 647 L1028 1214 Z"/><path class="sv4" d="M1028 1186 L1595 619 L1595 647 L1028 1214 Z" /></g><g class="o"><path transform="translate(3,6)" class="S sf" d="M1425 1970 L1680 1715 L1718 1715 L1463 1970 Z"/><path class="f6" d="M1425 1970 L1680 1715 L1718 1715 L1463 1970 Z" /></g><g class="o"><path transform="translate(9,18)" class="S ss" d="M1218 1578 L1281 1515 L1281 1525 L1218 1588 Z"/><path class="s2" d="M1218 1578 L1281 1515 L1281 1525 L1218 1588 Z" /></g><g class="o"><path transform="translate(3,6)" class="S sfv" d="M1825 1020 L1954 891 L1954 919 L1825 1048 Z"/><path class="fv3" d="M1825 1020 L1954 891 L1954 919 L1825 1048 Z" /></g><g class="o"><path transform="translate(8,16)" class="S sfh" d="M955 1557 L1202 1310 L1228 1310 L981 1557 Z"/><path class="fh3" d="M955 1557 L1202 1310 L1228 1310 L981 1557 Z" /></g><g class="o"><path transform="translate(4,8)" class="S sfh" d="M1326 1219 L1872 673 L1906 673 L1360 1219 Z"/><path class="fh4" d="M1326 1219 L1872 673 L1906 673 L1360 1219 Z" /></g><g class="o"><path transform="translate(7,14)" class="S sfh" d="M1073 1165 L1254 984 L1264 984 L1083 1165 Z"/><path class="fh1" d="M1073 1165 L1254 984 L1264 984 L1083 1165 Z" /></g><g class="o"><path transform="translate(3,6)" class="S sfv" d="M1901 1954 L2026 1829 L2026 1849 L1901 1974 Z"/><path class="fv6" d="M1901 1954 L2026 1829 L2026 1849 L1901 1974 Z" /></g><g class="o"><path transform="translate(8,16)" class="S sf" d="M1328 1880 L1889 1319 L1889 1447 L1328 2008 Z"/><path class="f7" d="M1328 1880 L1889 1319 L1889 1447 L1328 2008 Z" /></g><g class="o"><path transform="translate(5,10)" class="S sfh" d="M1943 1866 L2146 1663 L2160 1663 L1957 1866 Z"/><path class="fh7" d="M1943 1866 L2146 1663 L2160 1663 L1957 1866 Z" /></g><g class="o"><path transform="translate(6,12)" class="S sfv" d="M1755 2032 L1932 1855 L1932 1877 L1755 2054 Z"/><path class="fv7" d="M1755 2032 L1932 1855 L1932 1877 L1755 2054 Z" /></g><g class="o"><path transform="translate(7,14)" class="S sfh" d="M1321 1637 L1624 1334 L1648 1334 L1345 1637 Z"/><path class="fh5" d="M1321 1637 L1624 1334 L1648 1334 L1345 1637 Z" /></g><g class="o"><path transform="translate(8,16)" class="S ssh" d="M1498 1169 L1624 1043 L1660 1043 L1534 1169 Z"/><path class="sh7" d="M1498 1169 L1624 1043 L1660 1043 L1534 1169 Z" /></g><g class="o"><path transform="translate(9,18)" class="S sfh" d="M1667 1903 L2102 1468 L2118 1468 L1683 1903 Z"/><path class="fh7" d="M1667 1903 L2102 1468 L2118 1468 L1683 1903 Z" /></g><g class="o"><path transform="translate(8,16)" class="S sf" d="M1308 1506 L1926 888 L1926 916 L1308 1534 Z"/><path class="f5" d="M1308 1506 L1926 888 L1926 916 L1308 1534 Z" /></g><g class="o"><path transform="translate(6,12)" class="S sfv" d="M1864 1498 L2482 880 L2482 898 L1864 1516 Z"/><path class="fv2" d="M1864 1498 L2482 880 L2482 898 L1864 1516 Z" /></g><g class="o"><path transform="translate(5,10)" class="S sfv" d="M1838 1092 L2050 880 L2050 906 L1838 1118 Z"/><path class="fv3" d="M1838 1092 L2050 880 L2050 906 L1838 1118 Z" /></g><g class="o"><path transform="translate(5,10)" class="S sfv" d="M1792 1834 L2005 1621 L2005 1641 L1792 1854 Z"/><path class="fv2" d="M1792 1834 L2005 1621 L2005 1641 L1792 1854 Z" /></g><g class="o"><path transform="translate(8,16)" class="S sfh" d="M1859 1455 L2070 1244 L2080 1244 L1869 1455 Z"/><path class="fh4" d="M1859 1455 L2070 1244 L2080 1244 L1869 1455 Z" /></g><g class="o"><path transform="translate(2,4)" class="S sfv" d="M1442 1229 L1685 986 L1685 1022 L1442 1265 Z"/><path class="fv4" d="M1442 1229 L1685 986 L1685 1022 L1442 1265 Z" /></g><g class="o"><path transform="translate(4,8)" class="S sfv" d="M1778 1632 L2111 1299 L2111 1325 L1778 1658 Z"/><path class="fv1" d="M1778 1632 L2111 1299 L2111 1325 L1778 1658 Z" /></g><g class="o"><path transform="translate(5,10)" class="S sfv" d="M1286 1490 L2021 755 L2021 775 L1286 1510 Z"/><path class="fv2" d="M1286 1490 L2021 755 L2021 775 L1286 1510 Z" /></g><g class="o"><path transform="translate(2,4)" class="S sfv" d="M1903 1377 L2150 1130 L2150 1178 L1903 1425 Z"/><path class="fv4" d="M1903 1377 L2150 1130 L2150 1178 L1903 1425 Z" /></g><g class="o"><path transform="translate(8,16)" class="S sfh" d="M1141 1316 L1248 1209 L1268 1209 L1161 1316 Z"/><path class="fh1" d="M1141 1316 L1248 1209 L1268 1209 L1161 1316 Z" /></g><g class="o"><path transform="translate(2,4)" class="S sfh" d="M1526 1490 L1622 1394 L1766 1394 L1670 1490 Z"/><path class="fh7" d="M1526 1490 L1622 1394 L1766 1394 L1670 1490 Z" /></g><g class="o"><path transform="translate(8,16)" class="S sfv" d="M1500 952 L1704 748 L1704 756 L1500 960 Z"/><path class="fv7" d="M1500 952 L1704 748 L1704 756 L1500 960 Z" /></g><g class="o"><path transform="translate(5,10)" class="S sf" d="M1438 1936 L1601 1773 L1601 1803 L1438 1966 Z"/><path class="f3" d="M1438 1936 L1601 1773 L1601 1803 L1438 1966 Z" /></g><g class="o"><path transform="translate(5,10)" class="S ssv" d="M1015 1008 L1501 522 L1501 554 L1015 1040 Z"/><path class="sv2" d="M1015 1008 L1501 522 L1501 554 L1015 1040 Z" /></g><g class="o"><path transform="translate(4,8)" class="S sfh" d="M1558 1693 L1999 1252 L2015 1252 L1574 1693 Z"/><path class="fh5" d="M1558 1693 L1999 1252 L2015 1252 L1574 1693 Z" /></g><g class="o"><path transform="translate(3,6)" class="S sfh" d="M1365 1187 L1719 833 L1741 833 L1387 1187 Z"/><path class="fh7" d="M1365 1187 L1719 833 L1741 833 L1387 1187 Z" /></g><g class="o"><path transform="translate(7,14)" class="S sfv" d="M1815 962 L2014 763 L2014 779 L1815 978 Z"/><path class="fv5" d="M1815 962 L2014 763 L2014 779 L1815 978 Z" /></g><g class="o"><path transform="translate(3,6)" class="S sfv" d="M1044 1582 L1242 1384 L1242 1414 L1044 1612 Z"/><path class="fv2" d="M1044 1582 L1242 1384 L1242 1414 L1044 1612 Z" /></g><g class="o"><path transform="translate(7,14)" class="S sfh" d="M1003 1750 L1229 1524 L1239 1524 L1013 1750 Z"/><path class="fh7" d="M1003 1750 L1229 1524 L1239 1524 L1013 1750 Z" /></g><g class="o"><path transform="translate(4,8)" class="S ssv" d="M1978 1676 L2064 1590 L2064 1626 L1978 1712 Z"/><path class="sv1" d="M1978 1676 L2064 1590 L2064 1626 L1978 1712 Z" /></g><g class="o"><path transform="translate(8,16)" class="S ssv" d="M1468 1153 L1641 980 L1641 998 L1468 1171 Z"/><path class="sv1" d="M1468 1153 L1641 980 L1641 998 L1468 1171 Z" /></g><g class="o"><path transform="translate(5,10)" class="S sf" d="M1653 1743 L1872 1524 L1888 1524 L1669 1743 Z"/><path class="f7" d="M1653 1743 L1872 1524 L1888 1524 L1669 1743 Z" /></g><g class="o"><path transform="translate(6,12)" class="S sfv" d="M1657 1011 L2113 555 L2113 593 L1657 1049 Z"/><path class="fv4" d="M1657 1011 L2113 555 L2113 593 L1657 1049 Z" /></g><g class="o"><path transform="translate(5,10)" class="S ssh" d="M1578 1052 L1836 794 L1848 794 L1590 1052 Z"/><path class="sh4" d="M1578 1052 L1836 794 L1848 794 L1590 1052 Z" /></g><g class="o"><path transform="translate(5,10)" class="S sfh" d="M1255 2005 L1447 1813 L1483 1813 L1291 2005 Z"/><path class="fh2" d="M1255 2005 L1447 1813 L1483 1813 L1291 2005 Z" /></g><g class="o"><path transform="translate(9,18)" class="S sf" d="M1642 1000 L2026 616 L2026 644 L1642 1028 Z"/><path class="f3" d="M1642 1000 L2026 616 L2026 644 L1642 1028 Z" /></g></g><use href="#slashes" transform-origin="1500 1500" transform="rotate(180) scale(2)"/></g><rect x="1080" y="1080" width="840" height="840" stroke-width="80" class="o s2" /><use href="#slashes" transform-origin="1500 1500" transform="scale(.7)"/><use href="#slashes" transform-origin="1500 1500" transform="rotate(180) scale(.3)"/></svg>