<svg xmlns="http://www.w3.org/2000/svg" viewBox="750 750 1500 1500"><style>/*<![CDATA[*/svg{background:rgb(70,73,76);max-width:100vw;max-height:100vh}path{stroke-width:4}.o{opacity:.75}.S{opacity:.4}.sf{stroke:none;fill:black}.sfh{stroke:none;fill:url(#hs)}.sfv{stroke:none;fill:url(#vs)}.ss{stroke:black;fill:none}.ssh{stroke:url(#hs);fill:none}.ssv{stroke:url(#vs);fill:none}.s1{fill:none;stroke:rgb(197,195,198)}.f1{stroke:none;fill:rgb(197,195,198)}.sh1{fill:none;stroke:url(#h1)}.fh1{stroke:none;fill:url(#h1)}.sv1{fill:none;stroke:url(#v1)}.fv1{stroke:none;fill:url(#v1)}.s2{fill:none;stroke:rgb(76,92,104)}.f2{stroke:none;fill:rgb(76,92,104)}.sh2{fill:none;stroke:url(#h2)}.fh2{stroke:none;fill:url(#h2)}.sv2{fill:none;stroke:url(#v2)}.fv2{stroke:none;fill:url(#v2)}.s3{fill:none;stroke:rgb(25,133,161)}.f3{stroke:none;fill:rgb(25,133,161)}.sh3{fill:none;stroke:url(#h3)}.fh3{stroke:none;fill:url(#h3)}.sv3{fill:none;stroke:url(#v3)}.fv3{stroke:none;fill:url(#v3)}.s4{fill:none;stroke:rgb(34,34,34)}.f4{stroke:none;fill:rgb(34,34,34)}.sh4{fill:none;stroke:url(#h4)}.fh4{stroke:none;fill:url(#h4)}.sv4{fill:none;stroke:url(#v4)}.fv4{stroke:none;fill:url(#v4)}.s5{fill:none;stroke:rgb(220,220,221)}.f5{stroke:none;fill:rgb(220,220,221)}.sh5{fill:none;stroke:url(#h5)}.fh5{stroke:none;fill:url(#h5)}.sv5{fill:none;stroke:url(#v5)}.fv5{stroke:none;fill:url(#v5)}.s6{fill:none;stroke:rgb(255,255,255)}.f6{stroke:none;fill:rgb(255,255,255)}.sh6{fill:none;stroke:url(#h6)}.fh6{stroke:none;fill:url(#h6)}.sv6{fill:none;stroke:url(#v6)}.fv6{stroke:none;fill:url(#v6)}.s7{fill:none;stroke:rgb(255,0,0)}.f7{stroke:none;fill:rgb(255,0,0)}.sh7{fill:none;stroke:url(#h7)}.fh7{stroke:none;fill:url(#h7)}.sv7{fill:none;stroke:url(#v7)}.fv7{stroke:none;fill:url(#v7)}/*]]>*/</style><defs><linearGradient gradientTransform="rotate(90)" id="hs"><stop offset="20%" stop-color="#000" /><stop offset="95%" stop-color="rgba(0, 0, 0, 0)" /></linearGradient><linearGradient id="vs"><stop offset="20%" stop-color="#000" /><stop offset="95%" stop-color="rgba(0, 0, 0, 0)" /></linearGradient><linearGradient gradientTransform="rotate(90)" id="h1"><stop offset="20%" stop-color="rgba(197,195,198,1)" /><stop offset="95%" stop-color="rgba(197,195,198,0)" /></linearGradient><linearGradient id="v1"><stop offset="20%" stop-color="rgba(197,195,198,1)" /><stop offset="95%" stop-color="rgba(197,195,198,0)" /></linearGradient><linearGradient gradientTransform="rotate(90)" id="h2"><stop offset="20%" stop-color="rgba(76,92,104,1)" /><stop offset="95%" stop-color="rgba(76,92,104,0)" /></linearGradient><linearGradient id="v2"><stop offset="20%" stop-color="rgba(76,92,104,1)" /><stop offset="95%" stop-color="rgba(76,92,104,0)" /></linearGradient><linearGradient gradientTransform="rotate(90)" id="h3"><stop offset="20%" stop-color="rgba(25,133,161,1)" /><stop offset="95%" stop-color="rgba(25,133,161,0)" /></linearGradient><linearGradient id="v3"><stop offset="20%" stop-color="rgba(25,133,161,1)" /><stop offset="95%" stop-color="rgba(25,133,161,0)" /></linearGradient><linearGradient gradientTransform="rotate(90)" id="h4"><stop offset="20%" stop-color="rgba(34,34,34,1)" /><stop offset="95%" stop-color="rgba(34,34,34,0)" /></linearGradient><linearGradient id="v4"><stop offset="20%" stop-color="rgba(34,34,34,1)" /><stop offset="95%" stop-color="rgba(34,34,34,0)" /></linearGradient><linearGradient gradientTransform="rotate(90)" id="h5"><stop offset="20%" stop-color="rgba(220,220,221,1)" /><stop offset="95%" stop-color="rgba(220,220,221,0)" /></linearGradient><linearGradient id="v5"><stop offset="20%" stop-color="rgba(220,220,221,1)" /><stop offset="95%" stop-color="rgba(220,220,221,0)" /></linearGradient><linearGradient gradientTransform="rotate(90)" id="h6"><stop offset="20%" stop-color="rgba(255,255,255,1)" /><stop offset="95%" stop-color="rgba(255,255,255,0)" /></linearGradient><linearGradient id="v6"><stop offset="20%" stop-color="rgba(255,255,255,1)" /><stop offset="95%" stop-color="rgba(255,255,255,0)" /></linearGradient><linearGradient gradientTransform="rotate(90)" id="h7"><stop offset="20%" stop-color="rgba(255,0,0,1)" /><stop offset="95%" stop-color="rgba(255,0,0,0)" /></linearGradient><linearGradient id="v7"><stop offset="20%" stop-color="rgba(255,0,0,1)" /><stop offset="95%" stop-color="rgba(255,0,0,0)" /></linearGradient></defs><g transform-origin="1500 1500" transform="scale(2)" opacity=".2"><g id="slashes"><g class="o"><path transform="translate(9,18)" class="S sfh" d="M2010 1930 L2166 2086 L2204 2086 L2048 1930 Z"/><path class="fh7" d="M2010 1930 L2166 2086 L2204 2086 L2048 1930 Z" /></g><g class="o"><path transform="translate(5,10)" class="S sfv" d="M1431 1869 L1624 2062 L1624 2078 L1431 1885 Z"/><path class="fv5" d="M1431 1869 L1624 2062 L1624 2078 L1431 1885 Z" /></g><g class="o"><path transform="translate(4,8)" class="S sfv" d="M2045 1933 L1962 2016 L1962 2030 L2045 1947 Z"/><path class="fv2" d="M2045 1933 L1962 2016 L1962 2030 L2045 1947 Z" /></g><g class="o"><path transform="translate(8,16)" class="S sfh" d="M1057 1975 L1231 2149 L1269 2149 L1095 1975 Z"/><path class="fh1" d="M1057 1975 L1231 2149 L1269 2149 L1095 1975 Z" /></g><g class="o"><path transform="translate(7,14)" class="S ssh" d="M1002 1502 L1068 1436 L1104 1436 L1038 1502 Z"/><path class="sh3" d="M1002 1502 L1068 1436 L1104 1436 L1038 1502 Z" /></g><g class="o"><path transform="translate(7,14)" class="S sfv" d="M1353 994 L1229 1118 L1229 1150 L1353 1026 Z"/><path class="fv3" d="M1353 994 L1229 1118 L1229 1150 L1353 1026 Z" /></g><g class="o"><path transform="translate(2,4)" class="S sf" d="M986 1453 L1131 1308 L1131 1324 L986 1469 Z"/><path class="f5" d="M986 1453 L1131 1308 L1131 1324 L986 1469 Z" /></g><g class="o"><path transform="translate(8,16)" class="S sfh" d="M1752 1106 L1892 966 L1912 966 L1772 1106 Z"/><path class="fh5" d="M1752 1106 L1892 966 L1912 966 L1772 1106 Z" /></g><g class="o"><path transform="translate(8,16)" class="S sfv" d="M1381 1436 L1458 1513 L1458 1539 L1381 1462 Z"/><path class="fv5" d="M1381 1436 L1458 1513 L1458 1539 L1381 1462 Z" /></g><g class="o"><path transform="translate(2,4)" class="S sfh" d="M1657 1523 L1848 1714 L1860 1714 L1669 1523 Z"/><path class="fh2" d="M1657 1523 L1848 1714 L1860 1714 L1669 1523 Z" /></g><g class="o"><path transform="translate(3,6)" class="S ssh" d="M1572 1067 L1627 1122 L1663 1122 L1608 1067 Z"/><path class="sh4" d="M1572 1067 L1627 1122 L1663 1122 L1608 1067 Z" /></g><g class="o"><path transform="translate(3,6)" class="S sfh" d="M1047 1847 L1212 2012 L1222 2012 L1057 1847 Z"/><path class="fh7" d="M1047 1847 L1212 2012 L1222 2012 L1057 1847 Z" /></g><g class="o"><path transform="translate(3,6)" class="S ssh" d="M1162 1922 L973 2111 L1009 2111 L1198 1922 Z"/><path class="sh3" d="M1162 1922 L973 2111 L1009 2111 L1198 1922 Z" /></g><g class="o"><path transform="translate(6,12)" class="S sfv" d="M2040 1219 L1984 1275 L1984 1283 L2040 1227 Z"/><path class="fv2" d="M2040 1219 L1984 1275 L1984 1283 L2040 1227 Z" /></g><g class="o"><path transform="translate(3,6)" class="S ss" d="M1380 1841 L1505 1966 L1617 1966 L1492 1841 Z"/><path class="s7" d="M1380 1841 L1505 1966 L1617 1966 L1492 1841 Z" /></g><g class="o"><path transform="translate(6,12)" class="S sfh" d="M1157 1315 L1062 1410 L1182 1410 L1277 1315 Z"/><path class="fh1" d="M1157 1315 L1062 1410 L1182 1410 L1277 1315 Z" /></g><g class="o"><path transform="translate(3,6)" class="S sfh" d="M1400 1287 L1497 1190 L1535 1190 L1438 1287 Z"/><path class="fh6" d="M1400 1287 L1497 1190 L1535 1190 L1438 1287 Z" /></g><g class="o"><path transform="translate(9,18)" class="S sfv" d="M953 1176 L1198 931 L1198 939 L953 1184 Z"/><path class="fv1" d="M953 1176 L1198 931 L1198 939 L953 1184 Z" /></g><g class="o"><path transform="translate(5,10)" class="S sf" d="M2022 1169 L2242 1389 L2242 1405 L2022 1185 Z"/><path class="f7" d="M2022 1169 L2242 1389 L2242 1405 L2022 1185 Z" /></g><g class="o"><path transform="translate(4,8)" class="S sfh" d="M1045 1494 L915 1624 L929 1624 L1059 1494 Z"/><path class="fh4" d="M1045 1494 L915 1624 L929 1624 L1059 1494 Z" /></g><g class="o"><path transform="translate(4,8)" class="S ssh" d="M1654 1316 L1879 1091 L1893 1091 L1668 1316 Z"/><path class="sh6" d="M1654 1316 L1879 1091 L1893 1091 L1668 1316 Z" /></g><g class="o"><path transform="translate(2,4)" class="S ss" d="M1864 1372 L2038 1546 L2074 1546 L1900 1372 Z"/><path class="s7" d="M1864 1372 L2038 1546 L2074 1546 L1900 1372 Z" /></g><g class="o"><path transform="translate(5,10)" class="S sfh" d="M967 1673 L858 1782 L962 1782 L1071 1673 Z"/><path class="fh2" d="M967 1673 L858 1782 L962 1782 L1071 1673 Z" /></g><g class="o"><path transform="translate(8,16)" class="S sfv" d="M1607 989 L1803 1185 L1803 1273 L1607 1077 Z"/><path class="fv4" d="M1607 989 L1803 1185 L1803 1273 L1607 1077 Z" /></g><g class="o"><path transform="translate(4,8)" class="S ss" d="M1893 1302 L1953 1362 L1989 1362 L1929 1302 Z"/><path class="s1" d="M1893 1302 L1953 1362 L1989 1362 L1929 1302 Z" /></g><g class="o"><path transform="translate(6,12)" class="S sfv" d="M1877 2026 L1954 2103 L1954 2129 L1877 2052 Z"/><path class="fv4" d="M1877 2026 L1954 2103 L1954 2129 L1877 2052 Z" /></g><g class="o"><path transform="translate(6,12)" class="S sfh" d="M1198 1779 L1346 1927 L1458 1927 L1310 1779 Z"/><path class="fh6" d="M1198 1779 L1346 1927 L1458 1927 L1310 1779 Z" /></g><g class="o"><path transform="translate(5,10)" class="S sfv" d="M1086 1779 L1177 1870 L1177 1900 L1086 1809 Z"/><path class="fv3" d="M1086 1779 L1177 1870 L1177 1900 L1086 1809 Z" /></g><g class="o"><path transform="translate(2,4)" class="S sf" d="M1563 1770 L1371 1962 L1391 1962 L1583 1770 Z"/><path class="f7" d="M1563 1770 L1371 1962 L1391 1962 L1583 1770 Z" /></g><g class="o"><path transform="translate(6,12)" class="S ssv" d="M2014 975 L1947 1042 L1947 1066 L2014 999 Z"/><path class="sv7" d="M2014 975 L1947 1042 L1947 1066 L2014 999 Z" /></g><g class="o"><path transform="translate(4,8)" class="S ssv" d="M963 1380 L1036 1453 L1036 1475 L963 1402 Z"/><path class="sv5" d="M963 1380 L1036 1453 L1036 1475 L963 1402 Z" /></g><g class="o"><path transform="translate(2,4)" class="S sfv" d="M1168 1919 L1020 2067 L1020 2099 L1168 1951 Z"/><path class="fv7" d="M1168 1919 L1020 2067 L1020 2099 L1168 1951 Z" /></g><g class="o"><path transform="translate(3,6)" class="S sfv" d="M1573 1725 L1640 1792 L1640 1824 L1573 1757 Z"/><path class="fv7" d="M1573 1725 L1640 1792 L1640 1824 L1573 1757 Z" /></g><g class="o"><path transform="translate(3,6)" class="S sfv" d="M968 1289 L719 1538 L719 1554 L968 1305 Z"/><path class="fv4" d="M968 1289 L719 1538 L719 1554 L968 1305 Z" /></g><g class="o"><path transform="translate(4,8)" class="S ssh" d="M1881 1048 L2112 1279 L2176 1279 L1945 1048 Z"/><path class="sh2" d="M1881 1048 L2112 1279 L2176 1279 L1945 1048 Z" /></g><g class="o"><path transform="translate(7,14)" class="S sfh" d="M1416 1752 L1364 1700 L1400 1700 L1452 1752 Z"/><path class="fh2" d="M1416 1752 L1364 1700 L1400 1700 L1452 1752 Z" /></g><g class="o"><path transform="translate(4,8)" class="S sf" d="M1055 1138 L993 1200 L1029 1200 L1091 1138 Z"/><path class="f7" d="M1055 1138 L993 1200 L1029 1200 L1091 1138 Z" /></g><g class="o"><path transform="translate(9,18)" class="S sfv" d="M999 1641 L1239 1401 L1239 1425 L999 1665 Z"/><path class="fv7" d="M999 1641 L1239 1401 L1239 1425 L999 1665 Z" /></g><g class="o"><path transform="translate(4,8)" class="S sfv" d="M1036 1570 L1096 1630 L1096 1668 L1036 1608 Z"/><path class="fv2" d="M1036 1570 L1096 1630 L1096 1668 L1036 1608 Z" /></g><g class="o"><path transform="translate(3,6)" class="S sfh" d="M1322 1557 L1570 1805 L1590 1805 L1342 1557 Z"/><path class="fh5" d="M1322 1557 L1570 1805 L1590 1805 L1342 1557 Z" /></g><g class="o"><path transform="translate(8,16)" class="S sfh" d="M1327 1911 L1541 2125 L1685 2125 L1471 1911 Z"/><path class="fh1" d="M1327 1911 L1541 2125 L1685 2125 L1471 1911 Z" /></g><g class="o"><path transform="translate(3,6)" class="S sfh" d="M1989 1810 L2229 2050 L2261 2050 L2021 1810 Z"/><path class="fh5" d="M1989 1810 L2229 2050 L2261 2050 L2021 1810 Z" /></g><g class="o"><path transform="translate(2,4)" class="S ssv" d="M1930 982 L1762 1150 L1762 1180 L1930 1012 Z"/><path class="sv7" d="M1930 982 L1762 1150 L1762 1180 L1930 1012 Z" /></g><g class="o"><path transform="translate(5,10)" class="S sfv" d="M1856 1051 L1677 872 L1677 884 L1856 1063 Z"/><path class="fv4" d="M1856 1051 L1677 872 L1677 884 L1856 1063 Z" /></g><g class="o"><path transform="translate(2,4)" class="S sf" d="M1119 1975 L870 2224 L870 2236 L1119 1987 Z"/><path class="f2" d="M1119 1975 L870 2224 L870 2236 L1119 1987 Z" /></g><g class="o"><path transform="translate(2,4)" class="S ssv" d="M1790 959 L2026 1195 L2026 1229 L1790 993 Z"/><path class="sv6" d="M1790 959 L2026 1195 L2026 1229 L1790 993 Z" /></g><g class="o"><path transform="translate(7,14)" class="S sfv" d="M1157 978 L1049 1086 L1049 1106 L1157 998 Z"/><path class="fv3" d="M1157 978 L1049 1086 L1049 1106 L1157 998 Z" /></g><g class="o"><path transform="translate(7,14)" class="S sfv" d="M955 1173 L727 1401 L727 1411 L955 1183 Z"/><path class="fv7" d="M955 1173 L727 1401 L727 1411 L955 1183 Z" /></g><g class="o"><path transform="translate(8,16)" class="S sfh" d="M1102 1204 L866 1440 L946 1440 L1182 1204 Z"/><path class="fh2" d="M1102 1204 L866 1440 L946 1440 L1182 1204 Z" /></g><g class="o"><path transform="translate(7,14)" class="S sfv" d="M1293 983 L1386 1076 L1386 1114 L1293 1021 Z"/><path class="fv5" d="M1293 983 L1386 1076 L1386 1114 L1293 1021 Z" /></g><g class="o"><path transform="translate(7,14)" class="S sfv" d="M1351 1065 L1144 1272 L1144 1292 L1351 1085 Z"/><path class="fv2" d="M1351 1065 L1144 1272 L1144 1292 L1351 1085 Z" /></g><g class="o"><path transform="translate(5,10)" class="S ssv" d="M1217 1377 L1337 1497 L1337 1507 L1217 1387 Z"/><path class="sv6" d="M1217 1377 L1337 1497 L1337 1507 L1217 1387 Z" /></g><g class="o"><path transform="translate(3,6)" class="S sfh" d="M1247 1355 L1464 1572 L1486 1572 L1269 1355 Z"/><path class="fh2" d="M1247 1355 L1464 1572 L1486 1572 L1269 1355 Z" /></g><g class="o"><path transform="translate(6,12)" class="S sfh" d="M1506 1950 L1728 2172 L1764 2172 L1542 1950 Z"/><path class="fh7" d="M1506 1950 L1728 2172 L1764 2172 L1542 1950 Z" /></g><g class="o"><path transform="translate(5,10)" class="S sf" d="M1254 1109 L1353 1010 L1385 1010 L1286 1109 Z"/><path class="f5" d="M1254 1109 L1353 1010 L1385 1010 L1286 1109 Z" /></g><g class="o"><path transform="translate(2,4)" class="S sfh" d="M1822 1750 L1726 1846 L1846 1846 L1942 1750 Z"/><path class="fh4" d="M1822 1750 L1726 1846 L1846 1846 L1942 1750 Z" /></g><g class="o"><path transform="translate(5,10)" class="S ssv" d="M1474 2021 L1396 2099 L1396 2113 L1474 2035 Z"/><path class="sv2" d="M1474 2021 L1396 2099 L1396 2113 L1474 2035 Z" /></g><g class="o"><path transform="translate(5,10)" class="S sfv" d="M1583 1531 L1523 1591 L1523 1627 L1583 1567 Z"/><path class="fv2" d="M1583 1531 L1523 1591 L1523 1627 L1583 1567 Z" /></g><g class="o"><path transform="translate(7,14)" class="S sfh" d="M1252 1691 L1031 1470 L1047 1470 L1268 1691 Z"/><path class="fh5" d="M1252 1691 L1031 1470 L1047 1470 L1268 1691 Z" /></g><g class="o"><path transform="translate(6,12)" class="S sfv" d="M1607 1442 L1396 1653 L1396 1661 L1607 1450 Z"/><path class="fv7" d="M1607 1442 L1396 1653 L1396 1661 L1607 1450 Z" /></g><g class="o"><path transform="translate(3,6)" class="S sfh" d="M1321 992 L1403 1074 L1417 1074 L1335 992 Z"/><path class="fh1" d="M1321 992 L1403 1074 L1417 1074 L1335 992 Z" /></g><g class="o"><path transform="translate(4,8)" class="S sfh" d="M1459 2041 L1672 2254 L1682 2254 L1469 2041 Z"/><path class="fh1" d="M1459 2041 L1672 2254 L1682 2254 L1469 2041 Z" /></g><g class="o"><path transform="translate(4,8)" class="S ss" d="M972 1336 L836 1472 L872 1472 L1008 1336 Z"/><path class="s5" d="M972 1336 L836 1472 L872 1472 L1008 1336 Z" /></g><g class="o"><path transform="translate(3,6)" class="S sf" d="M1449 1894 L1613 2058 L1613 2072 L1449 1908 Z"/><path class="f5" d="M1449 1894 L1613 2058 L1613 2072 L1449 1908 Z" /></g><g class="o"><path transform="translate(3,6)" class="S ssh" d="M1394 1201 L1637 1444 L1647 1444 L1404 1201 Z"/><path class="sh7" d="M1394 1201 L1637 1444 L1647 1444 L1404 1201 Z" /></g><g class="o"><path transform="translate(4,8)" class="S sf" d="M960 1380 L829 1511 L837 1511 L968 1380 Z"/><path class="f5" d="M960 1380 L829 1511 L837 1511 L968 1380 Z" /></g><g class="o"><path transform="translate(3,6)" class="S sfh" d="M1864 1502 L1918 1556 L1936 1556 L1882 1502 Z"/><path class="fh4" d="M1864 1502 L1918 1556 L1936 1556 L1882 1502 Z" /></g><g class="o"><path transform="translate(6,12)" class="S sf" d="M1831 1910 L1971 2050 L1985 2050 L1845 1910 Z"/><path class="f6" d="M1831 1910 L1971 2050 L1985 2050 L1845 1910 Z" /></g><g class="o"><path transform="translate(5,10)" class="S sfv" d="M1605 1445 L1511 1539 L1511 1561 L1605 1467 Z"/><path class="fv4" d="M1605 1445 L1511 1539 L1511 1561 L1605 1467 Z" /></g><g class="o"><path transform="translate(3,6)" class="S sf" d="M1351 1602 L1447 1698 L1447 1734 L1351 1638 Z"/><path class="f1" d="M1351 1602 L1447 1698 L1447 1734 L1351 1638 Z" /></g><g class="o"><path transform="translate(9,18)" class="S sfv" d="M1396 1906 L1645 2155 L1645 2181 L1396 1932 Z"/><path class="fv7" d="M1396 1906 L1645 2155 L1645 2181 L1396 1932 Z" /></g><g class="o"><path transform="translate(5,10)" class="S sfv" d="M1607 1419 L1744 1282 L1744 1298 L1607 1435 Z"/><path class="fv5" d="M1607 1419 L1744 1282 L1744 1298 L1607 1435 Z" /></g><g class="o"><path transform="translate(8,16)" class="S sf" d="M1995 1026 L2165 1196 L2197 1196 L2027 1026 Z"/><path class="f2" d="M1995 1026 L2165 1196 L2197 1196 L2027 1026 Z" /></g><g class="o"><path transform="translate(7,14)" class="S sfv" d="M1664 1916 L1610 1970 L1610 1982 L1664 1928 Z"/><path class="fv7" d="M1664 1916 L1610 1970 L1610 1982 L1664 1928 Z" /></g><g class="o"><path transform="translate(9,18)" class="S sfv" d="M1336 1605 L1142 1799 L1142 1831 L1336 1637 Z"/><path class="fv5" d="M1336 1605 L1142 1799 L1142 1831 L1336 1637 Z" /></g><g class="o"><path transform="translate(7,14)" class="S sfv" d="M1199 2042 L1326 2169 L1326 2177 L1199 2050 Z"/><path class="fv3" d="M1199 2042 L1326 2169 L1326 2177 L1199 2050 Z" /></g><g class="o"><path transform="translate(2,4)" class="S ssv" d="M1763 1589 L1707 1645 L1707 1665 L1763 1609 Z"/><path class="sv3" d="M1763 1589 L1707 1645 L1707 1665 L1763 1609 Z" /></g><g class="o"><path transform="translate(6,12)" class="S sfh" d="M1022 1561 L1154 1429 L1170 1429 L1038 1561 Z"/><path class="fh1" d="M1022 1561 L1154 1429 L1170 1429 L1038 1561 Z" /></g><g class="o"><path transform="translate(6,12)" class="S sfh" d="M1041 1555 L1163 1433 L1201 1433 L1079 1555 Z"/><path class="fh2" d="M1041 1555 L1163 1433 L1201 1433 L1079 1555 Z" /></g><g class="o"><path transform="translate(8,16)" class="S ssv" d="M1450 1968 L1300 2118 L1300 2190 L1450 2040 Z"/><path class="sv3" d="M1450 1968 L1300 2118 L1300 2190 L1450 2040 Z" /></g><g class="o"><path transform="translate(3,6)" class="S sf" d="M1587 1932 L1450 2069 L1450 2087 L1587 1950 Z"/><path class="f6" d="M1587 1932 L1450 2069 L1450 2087 L1587 1950 Z" /></g><g class="o"><path transform="translate(8,16)" class="S sfh" d="M1892 1873 L2068 1697 L2094 1697 L1918 1873 Z"/><path class="fh3" d="M1892 1873 L2068 1697 L2094 1697 L1918 1873 Z" /></g><g class="o"><path transform="translate(9,18)" class="S sf" d="M1218 1415 L1388 1585 L1388 1601 L1218 1431 Z"/><path class="f4" d="M1218 1415 L1388 1585 L1388 1601 L1218 1431 Z" /></g><g class="o"><path transform="translate(2,4)" class="S sfh" d="M1451 1589 L1281 1759 L1313 1759 L1483 1589 Z"/><path class="fh4" d="M1451 1589 L1281 1759 L1313 1759 L1483 1589 Z" /></g><g class="o"><path transform="translate(8,16)" class="S ssh" d="M1606 1081 L1525 1000 L1561 1000 L1642 1081 Z"/><path class="sh2" d="M1606 1081 L1525 1000 L1561 1000 L1642 1081 Z" /></g><g class="o"><path transform="translate(7,14)" class="S sfv" d="M1883 1818 L1937 1872 L1937 1908 L1883 1854 Z"/><path class="fv2" d="M1883 1818 L1937 1872 L1937 1908 L1883 1854 Z" /></g><g class="o"><path transform="translate(4,8)" class="S ssv" d="M1237 1925 L1447 1715 L1447 1811 L1237 2021 Z"/><path class="sv5" d="M1237 1925 L1447 1715 L1447 1811 L1237 2021 Z" /></g><g class="o"><path transform="translate(4,8)" class="S ss" d="M1400 981 L1462 1043 L1494 1043 L1432 981 Z"/><path class="s2" d="M1400 981 L1462 1043 L1494 1043 L1432 981 Z" /></g><g class="o"><path transform="translate(2,4)" class="S sfh" d="M1363 1243 L1596 1476 L1622 1476 L1389 1243 Z"/><path class="fh1" d="M1363 1243 L1596 1476 L1622 1476 L1389 1243 Z" /></g><g class="o"><path transform="translate(4,8)" class="S sfv" d="M1128 1276 L1212 1360 L1212 1390 L1128 1306 Z"/><path class="fv5" d="M1128 1276 L1212 1360 L1212 1390 L1128 1306 Z" /></g><g class="o"><path transform="translate(6,12)" class="S sfv" d="M2041 1489 L2115 1563 L2115 1587 L2041 1513 Z"/><path class="fv3" d="M2041 1489 L2115 1563 L2115 1587 L2041 1513 Z" /></g><g class="o"><path transform="translate(8,16)" class="S sfv" d="M1300 1056 L1236 992 L1236 1000 L1300 1064 Z"/><path class="fv2" d="M1300 1056 L1236 992 L1236 1000 L1300 1064 Z" /></g><g class="o"><path transform="translate(5,10)" class="S sfv" d="M1935 1768 L1734 1969 L1734 1993 L1935 1792 Z"/><path class="fv1" d="M1935 1768 L1734 1969 L1734 1993 L1935 1792 Z" /></g><g class="o"><path transform="translate(8,16)" class="S ssh" d="M1084 1883 L1257 1710 L1329 1710 L1156 1883 Z"/><path class="sh1" d="M1084 1883 L1257 1710 L1329 1710 L1156 1883 Z" /></g><g class="o"><path transform="translate(9,18)" class="S sfh" d="M1631 1589 L1506 1464 L1530 1464 L1655 1589 Z"/><path class="fh1" d="M1631 1589 L1506 1464 L1530 1464 L1655 1589 Z" /></g><g class="o"><path transform="translate(3,6)" class="S sfv" d="M1344 1843 L1568 2067 L1568 2075 L1344 1851 Z"/><path class="fv4" d="M1344 1843 L1568 2067 L1568 2075 L1344 1851 Z" /></g><g class="o"><path transform="translate(2,4)" class="S sfh" d="M1155 1538 L1358 1335 L1374 1335 L1171 1538 Z"/><path class="fh7" d="M1155 1538 L1358 1335 L1374 1335 L1171 1538 Z" /></g><g class="o"><path transform="translate(7,14)" class="S sfv" d="M1781 1185 L1918 1322 L1918 1466 L1781 1329 Z"/><path class="fv7" d="M1781 1185 L1918 1322 L1918 1466 L1781 1329 Z" /></g><g class="o"><path transform="translate(8,16)" class="S sfh" d="M1021 1878 L1119 1976 L1137 1976 L1039 1878 Z"/><path class="fh1" d="M1021 1878 L1119 1976 L1137 1976 L1039 1878 Z" /></g><g class="o"><path transform="translate(6,12)" class="S sfh" d="M984 995 L1199 1210 L1231 1210 L1016 995 Z"/><path class="fh7" d="M984 995 L1199 1210 L1231 1210 L1016 995 Z" /></g><g class="o"><path transform="translate(5,10)" class="S sfv" d="M1749 1811 L1889 1951 L1889 1971 L1749 1831 Z"/><path class="fv7" d="M1749 1811 L1889 1951 L1889 1971 L1749 1831 Z" /></g><g class="o"><path transform="translate(6,12)" class="S ssv" d="M1735 1636 L1570 1801 L1570 1809 L1735 1644 Z"/><path class="sv7" d="M1735 1636 L1570 1801 L1570 1809 L1735 1644 Z" /></g><g class="o"><path transform="translate(4,8)" class="S sfh" d="M1660 2022 L1489 2193 L1509 2193 L1680 2022 Z"/><path class="fh1" d="M1660 2022 L1489 2193 L1509 2193 L1680 2022 Z" /></g><g class="o"><path transform="translate(9,18)" class="S ss" d="M1745 1270 L1862 1387 L1896 1387 L1779 1270 Z"/><path class="s3" d="M1745 1270 L1862 1387 L1896 1387 L1779 1270 Z" /></g><g class="o"><path transform="translate(6,12)" class="S sfh" d="M1583 1745 L1483 1645 L1511 1645 L1611 1745 Z"/><path class="fh1" d="M1583 1745 L1483 1645 L1511 1645 L1611 1745 Z" /></g><g class="o"><path transform="translate(9,18)" class="S ss" d="M1612 1324 L1523 1413 L1523 1425 L1612 1336 Z"/><path class="s1" d="M1612 1324 L1523 1413 L1523 1425 L1612 1336 Z" /></g><g class="o"><path transform="translate(9,18)" class="S sfv" d="M1246 1055 L1391 910 L1391 932 L1246 1077 Z"/><path class="fv5" d="M1246 1055 L1391 910 L1391 932 L1246 1077 Z" /></g><g class="o"><path transform="translate(3,6)" class="S sfh" d="M1104 953 L1007 1050 L1045 1050 L1142 953 Z"/><path class="fh7" d="M1104 953 L1007 1050 L1045 1050 L1142 953 Z" /></g><g class="o"><path transform="translate(7,14)" class="S sfv" d="M1419 1033 L1642 1256 L1642 1274 L1419 1051 Z"/><path class="fv6" d="M1419 1033 L1642 1256 L1642 1274 L1419 1051 Z" /></g><g class="o"><path transform="translate(4,8)" class="S sfv" d="M1762 1320 L1946 1504 L1946 1648 L1762 1464 Z"/><path class="fv4" d="M1762 1320 L1946 1504 L1946 1648 L1762 1464 Z" /></g><g class="o"><path transform="translate(2,4)" class="S sfh" d="M1137 956 L993 1100 L1019 1100 L1163 956 Z"/><path class="fh3" d="M1137 956 L993 1100 L1019 1100 L1163 956 Z" /></g><g class="o"><path transform="translate(5,10)" class="S sfv" d="M1574 981 L1714 841 L1714 879 L1574 1019 Z"/><path class="fv1" d="M1574 981 L1714 841 L1714 879 L1574 1019 Z" /></g><g class="o"><path transform="translate(9,18)" class="S sf" d="M1562 962 L1433 1091 L1457 1091 L1586 962 Z"/><path class="f6" d="M1562 962 L1433 1091 L1457 1091 L1586 962 Z" /></g><g class="o"><path transform="translate(5,10)" class="S sfv" d="M985 1868 L1048 1931 L1048 1943 L985 1880 Z"/><path class="fv4" d="M985 1868 L1048 1931 L1048 1943 L985 1880 Z" /></g><g class="o"><path transform="translate(2,4)" class="S sfh" d="M1392 1727 L1184 1935 L1218 1935 L1426 1727 Z"/><path class="fh5" d="M1392 1727 L1184 1935 L1218 1935 L1426 1727 Z" /></g><g class="o"><path transform="translate(2,4)" class="S ssv" d="M1608 1330 L1804 1526 L1804 1552 L1608 1356 Z"/><path class="sv5" d="M1608 1330 L1804 1526 L1804 1552 L1608 1356 Z" /></g><g class="o"><path transform="translate(9,18)" class="S sfv" d="M1160 975 L1030 1105 L1030 1133 L1160 1003 Z"/><path class="fv3" d="M1160 975 L1030 1105 L1030 1133 L1160 1003 Z" /></g><g class="o"><path transform="translate(4,8)" class="S sfv" d="M1341 1546 L1106 1781 L1106 1809 L1341 1574 Z"/><path class="fv3" d="M1341 1546 L1106 1781 L1106 1809 L1341 1574 Z" /></g><g class="o"><path transform="translate(6,12)" class="S ssh" d="M1636 1445 L1538 1543 L1570 1543 L1668 1445 Z"/><path class="sh7" d="M1636 1445 L1538 1543 L1570 1543 L1668 1445 Z" /></g><g class="o"><path transform="translate(6,12)" class="S sfh" d="M1540 1218 L1686 1072 L1700 1072 L1554 1218 Z"/><path class="fh7" d="M1540 1218 L1686 1072 L1700 1072 L1554 1218 Z" /></g><g class="o"><path transform="translate(8,16)" class="S sf" d="M1621 1935 L1427 2129 L1427 2163 L1621 1969 Z"/><path class="f6" d="M1621 1935 L1427 2129 L1427 2163 L1621 1969 Z" /></g><g class="o"><path transform="translate(2,4)" class="S sf" d="M1804 1629 L1891 1716 L1891 1724 L1804 1637 Z"/><path class="f6" d="M1804 1629 L1891 1716 L1891 1724 L1804 1637 Z" /></g><g class="o"><path transform="translate(4,8)" class="S sfh" d="M1811 1101 L1758 1154 L1776 1154 L1829 1101 Z"/><path class="fh1" d="M1811 1101 L1758 1154 L1776 1154 L1829 1101 Z" /></g><g class="o"><path transform="translate(7,14)" class="S ss" d="M1316 1418 L1081 1183 L1081 1219 L1316 1454 Z"/><path class="s6" d="M1316 1418 L1081 1183 L1081 1219 L1316 1454 Z" /></g><g class="o"><path transform="translate(4,8)" class="S sfh" d="M1220 1685 L1387 1852 L1399 1852 L1232 1685 Z"/><path class="fh5" d="M1220 1685 L1387 1852 L1399 1852 L1232 1685 Z" /></g><g class="o"><path transform="translate(4,8)" class="S sf" d="M2033 1140 L1957 1216 L1957 1232 L2033 1156 Z"/><path class="f5" d="M2033 1140 L1957 1216 L1957 1232 L2033 1156 Z" /></g><g class="o"><path transform="translate(7,14)" class="S sfv" d="M1091 1336 L1157 1270 L1157 1290 L1091 1356 Z"/><path class="fv5" d="M1091 1336 L1157 1270 L1157 1290 L1091 1356 Z" /></g><g class="o"><path transform="translate(7,14)" class="S sfh" d="M1258 1754 L1339 1673 L1375 1673 L1294 1754 Z"/><path class="fh5" d="M1258 1754 L1339 1673 L1375 1673 L1294 1754 Z" /></g><g class="o"><path transform="translate(7,14)" class="S sfh" d="M1797 1132 L1574 1355 L1590 1355 L1813 1132 Z"/><path class="fh7" d="M1797 1132 L1574 1355 L1590 1355 L1813 1132 Z" /></g><g class="o"><path transform="translate(4,8)" class="S sfv" d="M1470 1782 L1543 1855 L1543 1879 L1470 1806 Z"/><path class="fv3" d="M1470 1782 L1543 1855 L1543 1879 L1470 1806 Z" /></g></g><use href="#slashes" transform-origin="1500 1500" transform="rotate(180) scale(2)"/></g><circle cx="1500" cy="1500" r="450" stroke-width="20" class="o s1" /><use href="#slashes" transform-origin="1500 1500" transform="scale(.6)"/><use href="#slashes" transform-origin="1500 1500" transform="rotate(180) scale(.6)"/></svg>