<svg xmlns="http://www.w3.org/2000/svg" viewBox="750 750 1500 1500"><style>/*<![CDATA[*/svg{background:rgb(34,34,34);max-width:100vw;max-height:100vh}path{stroke-width:4}.o{opacity:.75}.S{opacity:.4}.sf{stroke:none;fill:black}.sfh{stroke:none;fill:url(#hs)}.sfv{stroke:none;fill:url(#vs)}.ss{stroke:black;fill:none}.ssh{stroke:url(#hs);fill:none}.ssv{stroke:url(#vs);fill:none}.s1{fill:none;stroke:rgb(41,50,65)}.f1{stroke:none;fill:rgb(41,50,65)}.sh1{fill:none;stroke:url(#h1)}.fh1{stroke:none;fill:url(#h1)}.sv1{fill:none;stroke:url(#v1)}.fv1{stroke:none;fill:url(#v1)}.s2{fill:none;stroke:rgb(238,108,77)}.f2{stroke:none;fill:rgb(238,108,77)}.sh2{fill:none;stroke:url(#h2)}.fh2{stroke:none;fill:url(#h2)}.sv2{fill:none;stroke:url(#v2)}.fv2{stroke:none;fill:url(#v2)}.s3{fill:none;stroke:rgb(224,251,252)}.f3{stroke:none;fill:rgb(224,251,252)}.sh3{fill:none;stroke:url(#h3)}.fh3{stroke:none;fill:url(#h3)}.sv3{fill:none;stroke:url(#v3)}.fv3{stroke:none;fill:url(#v3)}.s4{fill:none;stroke:rgb(152,193,217)}.f4{stroke:none;fill:rgb(152,193,217)}.sh4{fill:none;stroke:url(#h4)}.fh4{stroke:none;fill:url(#h4)}.sv4{fill:none;stroke:url(#v4)}.fv4{stroke:none;fill:url(#v4)}.s5{fill:none;stroke:rgb(61,90,128)}.f5{stroke:none;fill:rgb(61,90,128)}.sh5{fill:none;stroke:url(#h5)}.fh5{stroke:none;fill:url(#h5)}.sv5{fill:none;stroke:url(#v5)}.fv5{stroke:none;fill:url(#v5)}.s6{fill:none;stroke:rgb(255,255,255)}.f6{stroke:none;fill:rgb(255,255,255)}.sh6{fill:none;stroke:url(#h6)}.fh6{stroke:none;fill:url(#h6)}.sv6{fill:none;stroke:url(#v6)}.fv6{stroke:none;fill:url(#v6)}.s7{fill:none;stroke:rgb(255,0,0)}.f7{stroke:none;fill:rgb(255,0,0)}.sh7{fill:none;stroke:url(#h7)}.fh7{stroke:none;fill:url(#h7)}.sv7{fill:none;stroke:url(#v7)}.fv7{stroke:none;fill:url(#v7)}/*]]>*/</style><defs><linearGradient gradientTransform="rotate(90)" id="hs"><stop offset="20%" stop-color="#000" /><stop offset="95%" stop-color="rgba(0, 0, 0, 0)" /></linearGradient><linearGradient id="vs"><stop offset="20%" stop-color="#000" /><stop offset="95%" stop-color="rgba(0, 0, 0, 0)" /></linearGradient><linearGradient gradientTransform="rotate(90)" id="h1"><stop offset="20%" stop-color="rgba(41,50,65,1)" /><stop offset="95%" stop-color="rgba(41,50,65,0)" /></linearGradient><linearGradient id="v1"><stop offset="20%" stop-color="rgba(41,50,65,1)" /><stop offset="95%" stop-color="rgba(41,50,65,0)" /></linearGradient><linearGradient gradientTransform="rotate(90)" id="h2"><stop offset="20%" stop-color="rgba(238,108,77,1)" /><stop offset="95%" stop-color="rgba(238,108,77,0)" /></linearGradient><linearGradient id="v2"><stop offset="20%" stop-color="rgba(238,108,77,1)" /><stop offset="95%" stop-color="rgba(238,108,77,0)" /></linearGradient><linearGradient gradientTransform="rotate(90)" id="h3"><stop offset="20%" stop-color="rgba(224,251,252,1)" /><stop offset="95%" stop-color="rgba(224,251,252,0)" /></linearGradient><linearGradient id="v3"><stop offset="20%" stop-color="rgba(224,251,252,1)" /><stop offset="95%" stop-color="rgba(224,251,252,0)" /></linearGradient><linearGradient gradientTransform="rotate(90)" id="h4"><stop offset="20%" stop-color="rgba(152,193,217,1)" /><stop offset="95%" stop-color="rgba(152,193,217,0)" /></linearGradient><linearGradient id="v4"><stop offset="20%" stop-color="rgba(152,193,217,1)" /><stop offset="95%" stop-color="rgba(152,193,217,0)" /></linearGradient><linearGradient gradientTransform="rotate(90)" id="h5"><stop offset="20%" stop-color="rgba(61,90,128,1)" /><stop offset="95%" stop-color="rgba(61,90,128,0)" /></linearGradient><linearGradient id="v5"><stop offset="20%" stop-color="rgba(61,90,128,1)" /><stop offset="95%" stop-color="rgba(61,90,128,0)" /></linearGradient><linearGradient gradientTransform="rotate(90)" id="h6"><stop offset="20%" stop-color="rgba(255,255,255,1)" /><stop offset="95%" stop-color="rgba(255,255,255,0)" /></linearGradient><linearGradient id="v6"><stop offset="20%" stop-color="rgba(255,255,255,1)" /><stop offset="95%" stop-color="rgba(255,255,255,0)" /></linearGradient><linearGradient gradientTransform="rotate(90)" id="h7"><stop offset="20%" stop-color="rgba(255,0,0,1)" /><stop offset="95%" stop-color="rgba(255,0,0,0)" /></linearGradient><linearGradient id="v7"><stop offset="20%" stop-color="rgba(255,0,0,1)" /><stop offset="95%" stop-color="rgba(255,0,0,0)" /></linearGradient></defs><g transform-origin="1500 1500" transform="scale(2)" opacity=".2"><g id="slashes"><g class="o"><path transform="translate(3,6)" class="S ssh" d="M2005 1601 L2187 1783 L2217 1783 L2035 1601 Z"/><path class="sh5" d="M2005 1601 L2187 1783 L2217 1783 L2035 1601 Z" /></g><g class="o"><path transform="translate(6,12)" class="S sfv" d="M1408 1950 L1620 2162 L1620 2190 L1408 1978 Z"/><path class="fv5" d="M1408 1950 L1620 2162 L1620 2190 L1408 1978 Z" /></g><g class="o"><path transform="translate(7,14)" class="S sfv" d="M2023 1707 L2115 1799 L2115 1817 L2023 1725 Z"/><path class="fv7" d="M2023 1707 L2115 1799 L2115 1817 L2023 1725 Z" /></g><g class="o"><path transform="translate(3,6)" class="S sfv" d="M965 1943 L1037 2015 L1037 2039 L965 1967 Z"/><path class="fv1" d="M965 1943 L1037 2015 L1037 2039 L965 1967 Z" /></g><g class="o"><path transform="translate(4,8)" class="S sfh" d="M1961 1009 L2189 1237 L2225 1237 L1997 1009 Z"/><path class="fh2" d="M1961 1009 L2189 1237 L2225 1237 L1997 1009 Z" /></g><g class="o"><path transform="translate(6,12)" class="S sf" d="M1685 1778 L1853 1946 L1853 1954 L1685 1786 Z"/><path class="f1" d="M1685 1778 L1853 1946 L1853 1954 L1685 1786 Z" /></g><g class="o"><path transform="translate(5,10)" class="S sfv" d="M1900 1755 L2021 1876 L2021 1904 L1900 1783 Z"/><path class="fv5" d="M1900 1755 L2021 1876 L2021 1904 L1900 1783 Z" /></g><g class="o"><path transform="translate(9,18)" class="S sfv" d="M1391 1027 L1478 1114 L1478 1154 L1391 1067 Z"/><path class="fv3" d="M1391 1027 L1478 1114 L1478 1154 L1391 1067 Z" /></g><g class="o"><path transform="translate(5,10)" class="S sfv" d="M2042 1821 L2162 1941 L2162 2045 L2042 1925 Z"/><path class="fv3" d="M2042 1821 L2162 1941 L2162 2045 L2042 1925 Z" /></g><g class="o"><path transform="translate(6,12)" class="S sf" d="M2036 1380 L2196 1540 L2196 1560 L2036 1400 Z"/><path class="f1" d="M2036 1380 L2196 1540 L2196 1560 L2036 1400 Z" /></g><g class="o"><path transform="translate(8,16)" class="S ssh" d="M1215 1884 L1357 2026 L1379 2026 L1237 1884 Z"/><path class="sh5" d="M1215 1884 L1357 2026 L1379 2026 L1237 1884 Z" /></g><g class="o"><path transform="translate(2,4)" class="S ssh" d="M1574 1961 L1672 2059 L1686 2059 L1588 1961 Z"/><path class="sh7" d="M1574 1961 L1672 2059 L1686 2059 L1588 1961 Z" /></g><g class="o"><path transform="translate(8,16)" class="S sf" d="M1301 1383 L1468 1550 L1502 1550 L1335 1383 Z"/><path class="f1" d="M1301 1383 L1468 1550 L1502 1550 L1335 1383 Z" /></g><g class="o"><path transform="translate(4,8)" class="S sfv" d="M1316 1904 L1460 2048 L1460 2074 L1316 1930 Z"/><path class="fv3" d="M1316 1904 L1460 2048 L1460 2074 L1316 1930 Z" /></g><g class="o"><path transform="translate(8,16)" class="S sfv" d="M1569 1229 L1646 1306 L1646 1330 L1569 1253 Z"/><path class="fv4" d="M1569 1229 L1646 1306 L1646 1330 L1569 1253 Z" /></g><g class="o"><path transform="translate(8,16)" class="S sfv" d="M1462 1378 L1550 1466 L1550 1492 L1462 1404 Z"/><path class="fv1" d="M1462 1378 L1550 1466 L1550 1492 L1462 1404 Z" /></g><g class="o"><path transform="translate(3,6)" class="S sf" d="M1794 1593 L1885 1684 L1885 1694 L1794 1603 Z"/><path class="f6" d="M1794 1593 L1885 1684 L1885 1694 L1794 1603 Z" /></g><g class="o"><path transform="translate(3,6)" class="S sfh" d="M1383 1027 L1628 1272 L1644 1272 L1399 1027 Z"/><path class="fh1" d="M1383 1027 L1628 1272 L1644 1272 L1399 1027 Z" /></g><g class="o"><path transform="translate(5,10)" class="S sf" d="M1555 1953 L1718 2116 L1752 2116 L1589 1953 Z"/><path class="f6" d="M1555 1953 L1718 2116 L1752 2116 L1589 1953 Z" /></g><g class="o"><path transform="translate(9,18)" class="S ssv" d="M1902 1716 L2000 1814 L2000 1822 L1902 1724 Z"/><path class="sv7" d="M1902 1716 L2000 1814 L2000 1822 L1902 1724 Z" /></g><g class="o"><path transform="translate(3,6)" class="S sfh" d="M958 1679 L1062 1783 L1088 1783 L984 1679 Z"/><path class="fh1" d="M958 1679 L1062 1783 L1088 1783 L984 1679 Z" /></g><g class="o"><path transform="translate(5,10)" class="S sfv" d="M1051 1411 L1276 1636 L1276 1652 L1051 1427 Z"/><path class="fv5" d="M1051 1411 L1276 1636 L1276 1652 L1051 1427 Z" /></g><g class="o"><path transform="translate(2,4)" class="S sfh" d="M1867 1937 L2084 2154 L2108 2154 L1891 1937 Z"/><path class="fh6" d="M1867 1937 L2084 2154 L2108 2154 L1891 1937 Z" /></g><g class="o"><path transform="translate(3,6)" class="S sfh" d="M1376 1480 L1533 1637 L1557 1637 L1400 1480 Z"/><path class="fh7" d="M1376 1480 L1533 1637 L1557 1637 L1400 1480 Z" /></g><g class="o"><path transform="translate(4,8)" class="S sf" d="M1406 1951 L1575 2120 L1615 2120 L1446 1951 Z"/><path class="f5" d="M1406 1951 L1575 2120 L1615 2120 L1446 1951 Z" /></g><g class="o"><path transform="translate(2,4)" class="S sfh" d="M1106 1336 L1241 1471 L1275 1471 L1140 1336 Z"/><path class="fh1" d="M1106 1336 L1241 1471 L1275 1471 L1140 1336 Z" /></g><g class="o"><path transform="translate(3,6)" class="S sfv" d="M1524 1446 L1735 1657 L1735 1693 L1524 1482 Z"/><path class="fv3" d="M1524 1446 L1735 1657 L1735 1693 L1524 1482 Z" /></g><g class="o"><path transform="translate(9,18)" class="S sf" d="M988 1828 L1106 1946 L1120 1946 L1002 1828 Z"/><path class="f6" d="M988 1828 L1106 1946 L1120 1946 L1002 1828 Z" /></g><g class="o"><path transform="translate(7,14)" class="S sfv" d="M1702 1488 L1801 1587 L1801 1613 L1702 1514 Z"/><path class="fv1" d="M1702 1488 L1801 1587 L1801 1613 L1702 1514 Z" /></g><g class="o"><path transform="translate(3,6)" class="S sfv" d="M1927 1824 L2039 1936 L2039 2088 L1927 1976 Z"/><path class="fv6" d="M1927 1824 L2039 1936 L2039 2088 L1927 1976 Z" /></g><g class="o"><path transform="translate(2,4)" class="S sfv" d="M1044 1418 L1131 1505 L1131 1529 L1044 1442 Z"/><path class="fv4" d="M1044 1418 L1131 1505 L1131 1529 L1044 1442 Z" /></g><g class="o"><path transform="translate(5,10)" class="S sfh" d="M1374 1174 L1562 1362 L1618 1362 L1430 1174 Z"/><path class="fh5" d="M1374 1174 L1562 1362 L1618 1362 L1430 1174 Z" /></g><g class="o"><path transform="translate(3,6)" class="S sfh" d="M1731 1357 L1963 1589 L1987 1589 L1755 1357 Z"/><path class="fh1" d="M1731 1357 L1963 1589 L1987 1589 L1755 1357 Z" /></g><g class="o"><path transform="translate(7,14)" class="S sfh" d="M1859 1859 L1914 1914 L1932 1914 L1877 1859 Z"/><path class="fh3" d="M1859 1859 L1914 1914 L1932 1914 L1877 1859 Z" /></g><g class="o"><path transform="translate(9,18)" class="S sf" d="M1134 1001 L1229 1096 L1229 1110 L1134 1015 Z"/><path class="f7" d="M1134 1001 L1229 1096 L1229 1110 L1134 1015 Z" /></g><g class="o"><path transform="translate(2,4)" class="S sfv" d="M1706 1988 L1757 2039 L1757 2047 L1706 1996 Z"/><path class="fv3" d="M1706 1988 L1757 2039 L1757 2047 L1706 1996 Z" /></g><g class="o"><path transform="translate(2,4)" class="S sfv" d="M1268 1133 L1418 1283 L1418 1303 L1268 1153 Z"/><path class="fv4" d="M1268 1133 L1418 1283 L1418 1303 L1268 1153 Z" /></g><g class="o"><path transform="translate(2,4)" class="S sfh" d="M1320 1365 L1515 1560 L1539 1560 L1344 1365 Z"/><path class="fh7" d="M1320 1365 L1515 1560 L1539 1560 L1344 1365 Z" /></g><g class="o"><path transform="translate(8,16)" class="S sfv" d="M2039 1048 L2181 1190 L2181 1226 L2039 1084 Z"/><path class="fv1" d="M2039 1048 L2181 1190 L2181 1226 L2039 1084 Z" /></g><g class="o"><path transform="translate(5,10)" class="S sf" d="M965 1129 L1105 1269 L1105 1389 L965 1249 Z"/><path class="f5" d="M965 1129 L1105 1269 L1105 1389 L965 1249 Z" /></g><g class="o"><path transform="translate(4,8)" class="S sfv" d="M1834 1627 L1999 1792 L1999 1800 L1834 1635 Z"/><path class="fv2" d="M1834 1627 L1999 1792 L1999 1800 L1834 1635 Z" /></g><g class="o"><path transform="translate(7,14)" class="S sfh" d="M1994 1147 L2182 1335 L2196 1335 L2008 1147 Z"/><path class="fh4" d="M1994 1147 L2182 1335 L2196 1335 L2008 1147 Z" /></g><g class="o"><path transform="translate(2,4)" class="S sfh" d="M1931 1056 L2137 1262 L2157 1262 L1951 1056 Z"/><path class="fh5" d="M1931 1056 L2137 1262 L2157 1262 L1951 1056 Z" /></g><g class="o"><path transform="translate(2,4)" class="S sfv" d="M1122 985 L1332 1195 L1332 1207 L1122 997 Z"/><path class="fv7" d="M1122 985 L1332 1195 L1332 1207 L1122 997 Z" /></g><g class="o"><path transform="translate(3,6)" class="S ss" d="M1950 1756 L2039 1845 L2167 1845 L2078 1756 Z"/><path class="s3" d="M1950 1756 L2039 1845 L2167 1845 L2078 1756 Z" /></g><g class="o"><path transform="translate(9,18)" class="S sfv" d="M1384 1432 L1627 1675 L1627 1707 L1384 1464 Z"/><path class="fv1" d="M1384 1432 L1627 1675 L1627 1707 L1384 1464 Z" /></g><g class="o"><path transform="translate(7,14)" class="S sfv" d="M1012 1315 L1126 1429 L1126 1469 L1012 1355 Z"/><path class="fv4" d="M1012 1315 L1126 1429 L1126 1469 L1012 1355 Z" /></g><g class="o"><path transform="translate(3,6)" class="S ssh" d="M1454 1424 L1522 1492 L1650 1492 L1582 1424 Z"/><path class="sh5" d="M1454 1424 L1522 1492 L1650 1492 L1582 1424 Z" /></g><g class="o"><path transform="translate(6,12)" class="S sfv" d="M1863 1939 L2051 2127 L2051 2137 L1863 1949 Z"/><path class="fv2" d="M1863 1939 L2051 2127 L2051 2137 L1863 1949 Z" /></g><g class="o"><path transform="translate(6,12)" class="S ssv" d="M1813 1508 L1947 1642 L1947 1662 L1813 1528 Z"/><path class="sv4" d="M1813 1508 L1947 1642 L1947 1662 L1813 1528 Z" /></g><g class="o"><path transform="translate(2,4)" class="S sfv" d="M1185 1118 L1248 1181 L1248 1195 L1185 1132 Z"/><path class="fv4" d="M1185 1118 L1248 1181 L1248 1195 L1185 1132 Z" /></g><g class="o"><path transform="translate(6,12)" class="S ssh" d="M1733 1701 L1783 1751 L1797 1751 L1747 1701 Z"/><path class="sh1" d="M1733 1701 L1783 1751 L1797 1751 L1747 1701 Z" /></g><g class="o"><path transform="translate(4,8)" class="S sf" d="M1979 1291 L2122 1434 L2226 1434 L2083 1291 Z"/><path class="f2" d="M1979 1291 L2122 1434 L2226 1434 L2083 1291 Z" /></g><g class="o"><path transform="translate(4,8)" class="S sf" d="M1682 1621 L1906 1845 L1906 1865 L1682 1641 Z"/><path class="f5" d="M1682 1621 L1906 1845 L1906 1865 L1682 1641 Z" /></g><g class="o"><path transform="translate(9,18)" class="S ss" d="M1157 1888 L1295 2026 L1295 2052 L1157 1914 Z"/><path class="s1" d="M1157 1888 L1295 2026 L1295 2052 L1157 1914 Z" /></g><g class="o"><path transform="translate(9,18)" class="S ssv" d="M2006 1271 L2172 1437 L2172 1449 L2006 1283 Z"/><path class="sv1" d="M2006 1271 L2172 1437 L2172 1449 L2006 1283 Z" /></g><g class="o"><path transform="translate(6,12)" class="S ssv" d="M1557 1311 L1663 1417 L1663 1431 L1557 1325 Z"/><path class="sv2" d="M1557 1311 L1663 1417 L1663 1431 L1557 1325 Z" /></g><g class="o"><path transform="translate(5,10)" class="S sfv" d="M1544 1343 L1687 1486 L1687 1522 L1544 1379 Z"/><path class="fv7" d="M1544 1343 L1687 1486 L1687 1522 L1544 1379 Z" /></g><g class="o"><path transform="translate(9,18)" class="S sfh" d="M1857 1650 L2095 1888 L2113 1888 L1875 1650 Z"/><path class="fh4" d="M1857 1650 L2095 1888 L2113 1888 L1875 1650 Z" /></g><g class="o"><path transform="translate(9,18)" class="S ssh" d="M1588 1590 L1786 1788 L1824 1788 L1626 1590 Z"/><path class="sh4" d="M1588 1590 L1786 1788 L1824 1788 L1626 1590 Z" /></g><g class="o"><path transform="translate(6,12)" class="S ssv" d="M1848 1912 L2015 2079 L2015 2095 L1848 1928 Z"/><path class="sv3" d="M1848 1912 L2015 2079 L2015 2095 L1848 1928 Z" /></g><g class="o"><path transform="translate(3,6)" class="S sfv" d="M1312 1903 L1532 2123 L1532 2153 L1312 1933 Z"/><path class="fv5" d="M1312 1903 L1532 2123 L1532 2153 L1312 1933 Z" /></g><g class="o"><path transform="translate(9,18)" class="S sfh" d="M1442 1067 L1576 1201 L1590 1201 L1456 1067 Z"/><path class="fh6" d="M1442 1067 L1576 1201 L1590 1201 L1456 1067 Z" /></g><g class="o"><path transform="translate(9,18)" class="S sf" d="M1702 1916 L1757 1971 L1757 1981 L1702 1926 Z"/><path class="f1" d="M1702 1916 L1757 1971 L1757 1981 L1702 1926 Z" /></g><g class="o"><path transform="translate(2,4)" class="S sf" d="M1537 1932 L1605 2000 L1625 2000 L1557 1932 Z"/><path class="f3" d="M1537 1932 L1605 2000 L1625 2000 L1557 1932 Z" /></g><g class="o"><path transform="translate(5,10)" class="S sfh" d="M1911 1111 L2063 1263 L2085 1263 L1933 1111 Z"/><path class="fh5" d="M1911 1111 L2063 1263 L2085 1263 L1933 1111 Z" /></g><g class="o"><path transform="translate(2,4)" class="S ssh" d="M1455 1070 L1591 1206 L1599 1206 L1463 1070 Z"/><path class="sh2" d="M1455 1070 L1591 1206 L1599 1206 L1463 1070 Z" /></g><g class="o"><path transform="translate(8,16)" class="S sfv" d="M1821 1704 L1978 1861 L1978 1893 L1821 1736 Z"/><path class="fv5" d="M1821 1704 L1978 1861 L1978 1893 L1821 1736 Z" /></g><g class="o"><path transform="translate(7,14)" class="S sf" d="M1958 1703 L2077 1822 L2077 1836 L1958 1717 Z"/><path class="f2" d="M1958 1703 L2077 1822 L2077 1836 L1958 1717 Z" /></g><g class="o"><path transform="translate(3,6)" class="S sfv" d="M1747 1438 L1879 1570 L1879 1590 L1747 1458 Z"/><path class="fv2" d="M1747 1438 L1879 1570 L1879 1590 L1747 1458 Z" /></g><g class="o"><path transform="translate(4,8)" class="S sfv" d="M1618 1975 L1829 2186 L1829 2208 L1618 1997 Z"/><path class="fv2" d="M1618 1975 L1829 2186 L1829 2208 L1618 1997 Z" /></g><g class="o"><path transform="translate(9,18)" class="S sfh" d="M1645 1116 L1713 1184 L1749 1184 L1681 1116 Z"/><path class="fh6" d="M1645 1116 L1713 1184 L1749 1184 L1681 1116 Z" /></g><g class="o"><path transform="translate(8,16)" class="S sfh" d="M1535 1207 L1784 1456 L1808 1456 L1559 1207 Z"/><path class="fh7" d="M1535 1207 L1784 1456 L1808 1456 L1559 1207 Z" /></g><g class="o"><path transform="translate(8,16)" class="S sfv" d="M1464 1995 L1518 2049 L1518 2081 L1464 2027 Z"/><path class="fv2" d="M1464 1995 L1518 2049 L1518 2081 L1464 2027 Z" /></g><g class="o"><path transform="translate(7,14)" class="S sfh" d="M2025 1527 L2230 1732 L2258 1732 L2053 1527 Z"/><path class="fh6" d="M2025 1527 L2230 1732 L2258 1732 L2053 1527 Z" /></g><g class="o"><path transform="translate(8,16)" class="S sfh" d="M1664 1212 L1828 1376 L1844 1376 L1680 1212 Z"/><path class="fh7" d="M1664 1212 L1828 1376 L1844 1376 L1680 1212 Z" /></g><g class="o"><path transform="translate(4,8)" class="S sf" d="M1999 1844 L2148 1993 L2182 1993 L2033 1844 Z"/><path class="f7" d="M1999 1844 L2148 1993 L2182 1993 L2033 1844 Z" /></g><g class="o"><path transform="translate(6,12)" class="S sf" d="M1090 2011 L1268 2189 L1268 2213 L1090 2035 Z"/><path class="f3" d="M1090 2011 L1268 2189 L1268 2213 L1090 2035 Z" /></g><g class="o"><path transform="translate(3,6)" class="S sfv" d="M1349 912 L1557 1120 L1557 1272 L1349 1064 Z"/><path class="fv5" d="M1349 912 L1557 1120 L1557 1272 L1349 1064 Z" /></g><g class="o"><path transform="translate(7,14)" class="S sfv" d="M1958 1768 L2089 1899 L2089 1913 L1958 1782 Z"/><path class="fv5" d="M1958 1768 L2089 1899 L2089 1913 L1958 1782 Z" /></g><g class="o"><path transform="translate(5,10)" class="S sfv" d="M1708 1962 L1918 2172 L1918 2204 L1708 1994 Z"/><path class="fv5" d="M1708 1962 L1918 2172 L1918 2204 L1708 1994 Z" /></g><g class="o"><path transform="translate(4,8)" class="S sfh" d="M984 1206 L1069 1291 L1093 1291 L1008 1206 Z"/><path class="fh1" d="M984 1206 L1069 1291 L1093 1291 L1008 1206 Z" /></g><g class="o"><path transform="translate(3,6)" class="S sf" d="M1425 1888 L1567 2030 L1581 2030 L1439 1888 Z"/><path class="f4" d="M1425 1888 L1567 2030 L1581 2030 L1439 1888 Z" /></g><g class="o"><path transform="translate(3,6)" class="S sfh" d="M1241 1750 L1420 1929 L1434 1929 L1255 1750 Z"/><path class="fh2" d="M1241 1750 L1420 1929 L1434 1929 L1255 1750 Z" /></g><g class="o"><path transform="translate(7,14)" class="S sfv" d="M1493 1924 L1656 2087 L1656 2125 L1493 1962 Z"/><path class="fv6" d="M1493 1924 L1656 2087 L1656 2125 L1493 1962 Z" /></g><g class="o"><path transform="translate(6,12)" class="S sf" d="M1242 976 L1490 1224 L1490 1246 L1242 998 Z"/><path class="f1" d="M1242 976 L1490 1224 L1490 1246 L1242 998 Z" /></g><g class="o"><path transform="translate(9,18)" class="S sfh" d="M1101 1557 L1166 1622 L1174 1622 L1109 1557 Z"/><path class="fh6" d="M1101 1557 L1166 1622 L1174 1622 L1109 1557 Z" /></g><g class="o"><path transform="translate(2,4)" class="S sfv" d="M1031 2007 L1194 2170 L1194 2204 L1031 2041 Z"/><path class="fv7" d="M1031 2007 L1194 2170 L1194 2204 L1031 2041 Z" /></g><g class="o"><path transform="translate(3,6)" class="S sfv" d="M1270 1863 L1389 1982 L1389 2004 L1270 1885 Z"/><path class="fv3" d="M1270 1863 L1389 1982 L1389 2004 L1270 1885 Z" /></g><g class="o"><path transform="translate(6,12)" class="S sf" d="M1676 1355 L1860 1539 L1860 1569 L1676 1385 Z"/><path class="f4" d="M1676 1355 L1860 1539 L1860 1569 L1676 1385 Z" /></g><g class="o"><path transform="translate(7,14)" class="S sfv" d="M1265 1792 L1509 2036 L1509 2068 L1265 1824 Z"/><path class="fv2" d="M1265 1792 L1509 2036 L1509 2068 L1265 1824 Z" /></g><g class="o"><path transform="translate(3,6)" class="S ss" d="M1276 1095 L1438 1257 L1464 1257 L1302 1095 Z"/><path class="s2" d="M1276 1095 L1438 1257 L1464 1257 L1302 1095 Z" /></g><g class="o"><path transform="translate(8,16)" class="S sf" d="M1359 1484 L1596 1721 L1624 1721 L1387 1484 Z"/><path class="f2" d="M1359 1484 L1596 1721 L1624 1721 L1387 1484 Z" /></g><g class="o"><path transform="translate(9,18)" class="S sfv" d="M1643 1385 L1887 1629 L1887 1663 L1643 1419 Z"/><path class="fv4" d="M1643 1385 L1887 1629 L1887 1663 L1643 1419 Z" /></g><g class="o"><path transform="translate(7,14)" class="S sfh" d="M1052 2029 L1232 2209 L1244 2209 L1064 2029 Z"/><path class="fh5" d="M1052 2029 L1232 2209 L1244 2209 L1064 2029 Z" /></g><g class="o"><path transform="translate(7,14)" class="S sfh" d="M1837 2038 L2076 2277 L2096 2277 L1857 2038 Z"/><path class="fh4" d="M1837 2038 L2076 2277 L2096 2277 L1857 2038 Z" /></g><g class="o"><path transform="translate(8,16)" class="S sfh" d="M1396 1339 L1637 1580 L1733 1580 L1492 1339 Z"/><path class="fh7" d="M1396 1339 L1637 1580 L1733 1580 L1492 1339 Z" /></g><g class="o"><path transform="translate(3,6)" class="S sf" d="M1678 1818 L1871 2011 L1871 2035 L1678 1842 Z"/><path class="f6" d="M1678 1818 L1871 2011 L1871 2035 L1678 1842 Z" /></g><g class="o"><path transform="translate(2,4)" class="S sf" d="M1017 1499 L1224 1706 L1224 1742 L1017 1535 Z"/><path class="f7" d="M1017 1499 L1224 1706 L1224 1742 L1017 1535 Z" /></g><g class="o"><path transform="translate(5,10)" class="S sfv" d="M2040 1682 L2193 1835 L2193 1869 L2040 1716 Z"/><path class="fv3" d="M2040 1682 L2193 1835 L2193 1869 L2040 1716 Z" /></g><g class="o"><path transform="translate(7,14)" class="S sfv" d="M1965 1275 L2190 1500 L2190 1526 L1965 1301 Z"/><path class="fv1" d="M1965 1275 L2190 1500 L2190 1526 L1965 1301 Z" /></g><g class="o"><path transform="translate(7,14)" class="S sfv" d="M2031 1308 L2218 1495 L2218 1515 L2031 1328 Z"/><path class="fv3" d="M2031 1308 L2218 1495 L2218 1515 L2031 1328 Z" /></g><g class="o"><path transform="translate(6,12)" class="S sf" d="M1289 1827 L1532 2070 L1532 2108 L1289 1865 Z"/><path class="f3" d="M1289 1827 L1532 2070 L1532 2108 L1289 1865 Z" /></g><g class="o"><path transform="translate(2,4)" class="S sfh" d="M1604 1794 L1764 1954 L1792 1954 L1632 1794 Z"/><path class="fh1" d="M1604 1794 L1764 1954 L1792 1954 L1632 1794 Z" /></g><g class="o"><path transform="translate(8,16)" class="S sfv" d="M1334 1174 L1387 1227 L1387 1255 L1334 1202 Z"/><path class="fv3" d="M1334 1174 L1387 1227 L1387 1255 L1334 1202 Z" /></g><g class="o"><path transform="translate(8,16)" class="S sfh" d="M1151 1455 L1331 1635 L1349 1635 L1169 1455 Z"/><path class="fh6" d="M1151 1455 L1331 1635 L1349 1635 L1169 1455 Z" /></g><g class="o"><path transform="translate(6,12)" class="S sfv" d="M1154 990 L1373 1209 L1373 1229 L1154 1010 Z"/><path class="fv3" d="M1154 990 L1373 1209 L1373 1229 L1154 1010 Z" /></g><g class="o"><path transform="translate(4,8)" class="S sfh" d="M956 1379 L1101 1524 L1131 1524 L986 1379 Z"/><path class="fh6" d="M956 1379 L1101 1524 L1131 1524 L986 1379 Z" /></g><g class="o"><path transform="translate(6,12)" class="S ss" d="M945 970 L1192 1217 L1222 1217 L975 970 Z"/><path class="s4" d="M945 970 L1192 1217 L1222 1217 L975 970 Z" /></g><g class="o"><path transform="translate(4,8)" class="S sfh" d="M1164 1127 L1398 1361 L1406 1361 L1172 1127 Z"/><path class="fh6" d="M1164 1127 L1398 1361 L1406 1361 L1172 1127 Z" /></g><g class="o"><path transform="translate(5,10)" class="S sfv" d="M1429 1735 L1500 1806 L1500 1834 L1429 1763 Z"/><path class="fv7" d="M1429 1735 L1500 1806 L1500 1834 L1429 1763 Z" /></g><g class="o"><path transform="translate(9,18)" class="S sf" d="M1164 1932 L1228 1996 L1228 2012 L1164 1948 Z"/><path class="f1" d="M1164 1932 L1228 1996 L1228 2012 L1164 1948 Z" /></g><g class="o"><path transform="translate(5,10)" class="S sfv" d="M1144 2012 L1275 2143 L1275 2171 L1144 2040 Z"/><path class="fv4" d="M1144 2012 L1275 2143 L1275 2171 L1144 2040 Z" /></g><g class="o"><path transform="translate(3,6)" class="S sfh" d="M1711 1539 L1837 1665 L1869 1665 L1743 1539 Z"/><path class="fh4" d="M1711 1539 L1837 1665 L1869 1665 L1743 1539 Z" /></g><g class="o"><path transform="translate(3,6)" class="S ssv" d="M1741 1907 L1868 2034 L1868 2052 L1741 1925 Z"/><path class="sv2" d="M1741 1907 L1868 2034 L1868 2052 L1741 1925 Z" /></g><g class="o"><path transform="translate(5,10)" class="S sf" d="M1742 2018 L1900 2176 L1922 2176 L1764 2018 Z"/><path class="f5" d="M1742 2018 L1900 2176 L1922 2176 L1764 2018 Z" /></g><g class="o"><path transform="translate(9,18)" class="S sfv" d="M1859 1682 L2048 1871 L2048 1899 L1859 1710 Z"/><path class="fv5" d="M1859 1682 L2048 1871 L2048 1899 L1859 1710 Z" /></g><g class="o"><path transform="translate(4,8)" class="S sfv" d="M1305 998 L1516 1209 L1516 1221 L1305 1010 Z"/><path class="fv1" d="M1305 998 L1516 1209 L1516 1221 L1305 1010 Z" /></g><g class="o"><path transform="translate(3,6)" class="S ssh" d="M1035 1856 L1140 1961 L1154 1961 L1049 1856 Z"/><path class="sh2" d="M1035 1856 L1140 1961 L1154 1961 L1049 1856 Z" /></g><g class="o"><path transform="translate(3,6)" class="S sfh" d="M1652 1881 L1749 1978 L1781 1978 L1684 1881 Z"/><path class="fh6" d="M1652 1881 L1749 1978 L1781 1978 L1684 1881 Z" /></g></g><use href="#slashes" transform-origin="1500 1500" transform="rotate(180) scale(2)"/></g><rect x="1080" y="1080" width="840" height="840" stroke-width="40" class="o s4" /><use href="#slashes" transform-origin="1500 1500" transform="scale(1.3)"/><use href="#slashes" transform-origin="1500 1500" transform="rotate(180) scale(.7)"/></svg>