<svg xmlns="http://www.w3.org/2000/svg" viewBox="750 750 1500 1500"><style>/*<![CDATA[*/svg{background:rgb(58,80,107);max-width:100vw;max-height:100vh}path{stroke-width:4}.o{opacity:.75}.S{opacity:.4}.sf{stroke:none;fill:black}.sfh{stroke:none;fill:url(#hs)}.sfv{stroke:none;fill:url(#vs)}.ss{stroke:black;fill:none}.ssh{stroke:url(#hs);fill:none}.ssv{stroke:url(#vs);fill:none}.s1{fill:none;stroke:rgb(11,19,43)}.f1{stroke:none;fill:rgb(11,19,43)}.sh1{fill:none;stroke:url(#h1)}.fh1{stroke:none;fill:url(#h1)}.sv1{fill:none;stroke:url(#v1)}.fv1{stroke:none;fill:url(#v1)}.s2{fill:none;stroke:rgb(111,255,233)}.f2{stroke:none;fill:rgb(111,255,233)}.sh2{fill:none;stroke:url(#h2)}.fh2{stroke:none;fill:url(#h2)}.sv2{fill:none;stroke:url(#v2)}.fv2{stroke:none;fill:url(#v2)}.s3{fill:none;stroke:rgb(91,192,190)}.f3{stroke:none;fill:rgb(91,192,190)}.sh3{fill:none;stroke:url(#h3)}.fh3{stroke:none;fill:url(#h3)}.sv3{fill:none;stroke:url(#v3)}.fv3{stroke:none;fill:url(#v3)}.s4{fill:none;stroke:rgb(34,34,34)}.f4{stroke:none;fill:rgb(34,34,34)}.sh4{fill:none;stroke:url(#h4)}.fh4{stroke:none;fill:url(#h4)}.sv4{fill:none;stroke:url(#v4)}.fv4{stroke:none;fill:url(#v4)}.s5{fill:none;stroke:rgb(28,37,65)}.f5{stroke:none;fill:rgb(28,37,65)}.sh5{fill:none;stroke:url(#h5)}.fh5{stroke:none;fill:url(#h5)}.sv5{fill:none;stroke:url(#v5)}.fv5{stroke:none;fill:url(#v5)}.s6{fill:none;stroke:rgb(255,255,255)}.f6{stroke:none;fill:rgb(255,255,255)}.sh6{fill:none;stroke:url(#h6)}.fh6{stroke:none;fill:url(#h6)}.sv6{fill:none;stroke:url(#v6)}.fv6{stroke:none;fill:url(#v6)}.s7{fill:none;stroke:rgb(255,255,0)}.f7{stroke:none;fill:rgb(255,255,0)}.sh7{fill:none;stroke:url(#h7)}.fh7{stroke:none;fill:url(#h7)}.sv7{fill:none;stroke:url(#v7)}.fv7{stroke:none;fill:url(#v7)}/*]]>*/</style><defs><linearGradient gradientTransform="rotate(90)" id="hs"><stop offset="20%" stop-color="#000" /><stop offset="95%" stop-color="rgba(0, 0, 0, 0)" /></linearGradient><linearGradient id="vs"><stop offset="20%" stop-color="#000" /><stop offset="95%" stop-color="rgba(0, 0, 0, 0)" /></linearGradient><linearGradient gradientTransform="rotate(90)" id="h1"><stop offset="20%" stop-color="rgba(11,19,43,1)" /><stop offset="95%" stop-color="rgba(11,19,43,0)" /></linearGradient><linearGradient id="v1"><stop offset="20%" stop-color="rgba(11,19,43,1)" /><stop offset="95%" stop-color="rgba(11,19,43,0)" /></linearGradient><linearGradient gradientTransform="rotate(90)" id="h2"><stop offset="20%" stop-color="rgba(111,255,233,1)" /><stop offset="95%" stop-color="rgba(111,255,233,0)" /></linearGradient><linearGradient id="v2"><stop offset="20%" stop-color="rgba(111,255,233,1)" /><stop offset="95%" stop-color="rgba(111,255,233,0)" /></linearGradient><linearGradient gradientTransform="rotate(90)" id="h3"><stop offset="20%" stop-color="rgba(91,192,190,1)" /><stop offset="95%" stop-color="rgba(91,192,190,0)" /></linearGradient><linearGradient id="v3"><stop offset="20%" stop-color="rgba(91,192,190,1)" /><stop offset="95%" stop-color="rgba(91,192,190,0)" /></linearGradient><linearGradient gradientTransform="rotate(90)" id="h4"><stop offset="20%" stop-color="rgba(34,34,34,1)" /><stop offset="95%" stop-color="rgba(34,34,34,0)" /></linearGradient><linearGradient id="v4"><stop offset="20%" stop-color="rgba(34,34,34,1)" /><stop offset="95%" stop-color="rgba(34,34,34,0)" /></linearGradient><linearGradient gradientTransform="rotate(90)" id="h5"><stop offset="20%" stop-color="rgba(28,37,65,1)" /><stop offset="95%" stop-color="rgba(28,37,65,0)" /></linearGradient><linearGradient id="v5"><stop offset="20%" stop-color="rgba(28,37,65,1)" /><stop offset="95%" stop-color="rgba(28,37,65,0)" /></linearGradient><linearGradient gradientTransform="rotate(90)" id="h6"><stop offset="20%" stop-color="rgba(255,255,255,1)" /><stop offset="95%" stop-color="rgba(255,255,255,0)" /></linearGradient><linearGradient id="v6"><stop offset="20%" stop-color="rgba(255,255,255,1)" /><stop offset="95%" stop-color="rgba(255,255,255,0)" /></linearGradient><linearGradient gradientTransform="rotate(90)" id="h7"><stop offset="20%" stop-color="rgba(255,255,0,1)" /><stop offset="95%" stop-color="rgba(255,255,0,0)" /></linearGradient><linearGradient id="v7"><stop offset="20%" stop-color="rgba(255,255,0,1)" /><stop offset="95%" stop-color="rgba(255,255,0,0)" /></linearGradient></defs><g transform-origin="1500 1500" transform="scale(2)" opacity=".2"><g id="slashes"><g class="o"><path transform="translate(5,10)" class="S ss" d="M1064 1261 L1009 1316 L1009 1338 L1064 1283 Z"/><path class="s3" d="M1064 1261 L1009 1316 L1009 1338 L1064 1283 Z" /></g><g class="o"><path transform="translate(6,12)" class="S sf" d="M1232 1879 L1310 1801 L1310 1839 L1232 1917 Z"/><path class="f6" d="M1232 1879 L1310 1801 L1310 1839 L1232 1917 Z" /></g><g class="o"><path transform="translate(2,4)" class="S sf" d="M2001 1328 L2102 1227 L2102 1249 L2001 1350 Z"/><path class="f4" d="M2001 1328 L2102 1227 L2102 1249 L2001 1350 Z" /></g><g class="o"><path transform="translate(7,14)" class="S sf" d="M1796 988 L1966 818 L1976 818 L1806 988 Z"/><path class="f1" d="M1796 988 L1966 818 L1976 818 L1806 988 Z" /></g><g class="o"><path transform="translate(9,18)" class="S sf" d="M1838 1598 L1648 1408 L1648 1444 L1838 1634 Z"/><path class="f1" d="M1838 1598 L1648 1408 L1648 1444 L1838 1634 Z" /></g><g class="o"><path transform="translate(4,8)" class="S sf" d="M1864 1447 L1923 1388 L1923 1402 L1864 1461 Z"/><path class="f7" d="M1864 1447 L1923 1388 L1923 1402 L1864 1461 Z" /></g><g class="o"><path transform="translate(9,18)" class="S ss" d="M1542 977 L1592 927 L1630 927 L1580 977 Z"/><path class="s5" d="M1542 977 L1592 927 L1630 927 L1580 977 Z" /></g><g class="o"><path transform="translate(2,4)" class="S sf" d="M1967 972 L2201 1206 L2201 1238 L1967 1004 Z"/><path class="f2" d="M1967 972 L2201 1206 L2201 1238 L1967 1004 Z" /></g><g class="o"><path transform="translate(3,6)" class="S sf" d="M1591 1197 L1754 1034 L1778 1034 L1615 1197 Z"/><path class="f1" d="M1591 1197 L1754 1034 L1778 1034 L1615 1197 Z" /></g><g class="o"><path transform="translate(2,4)" class="S ss" d="M1156 1090 L1332 1266 L1332 1294 L1156 1118 Z"/><path class="s1" d="M1156 1090 L1332 1266 L1332 1294 L1156 1118 Z" /></g><g class="o"><path transform="translate(4,8)" class="S sf" d="M1805 1448 L1576 1219 L1584 1219 L1813 1448 Z"/><path class="f6" d="M1805 1448 L1576 1219 L1584 1219 L1813 1448 Z" /></g><g class="o"><path transform="translate(9,18)" class="S sf" d="M1163 966 L1394 735 L1394 753 L1163 984 Z"/><path class="f7" d="M1163 966 L1394 735 L1394 753 L1163 984 Z" /></g><g class="o"><path transform="translate(5,10)" class="S sf" d="M1456 1774 L1358 1676 L1358 1710 L1456 1808 Z"/><path class="f6" d="M1456 1774 L1358 1676 L1358 1710 L1456 1808 Z" /></g><g class="o"><path transform="translate(3,6)" class="S sf" d="M1692 1505 L1460 1273 L1460 1285 L1692 1517 Z"/><path class="f5" d="M1692 1505 L1460 1273 L1460 1285 L1692 1517 Z" /></g><g class="o"><path transform="translate(6,12)" class="S ss" d="M1691 1894 L1615 1970 L1637 1970 L1713 1894 Z"/><path class="s2" d="M1691 1894 L1615 1970 L1637 1970 L1713 1894 Z" /></g><g class="o"><path transform="translate(9,18)" class="S sf" d="M1860 1455 L1626 1221 L1626 1245 L1860 1479 Z"/><path class="f1" d="M1860 1455 L1626 1221 L1626 1245 L1860 1479 Z" /></g><g class="o"><path transform="translate(2,4)" class="S sf" d="M1063 1909 L1195 1777 L1207 1777 L1075 1909 Z"/><path class="f6" d="M1063 1909 L1195 1777 L1207 1777 L1075 1909 Z" /></g><g class="o"><path transform="translate(5,10)" class="S sf" d="M1982 1963 L2227 1718 L2227 1740 L1982 1985 Z"/><path class="f7" d="M1982 1963 L2227 1718 L2227 1740 L1982 1985 Z" /></g><g class="o"><path transform="translate(4,8)" class="S ss" d="M1112 1629 L1218 1735 L1238 1735 L1132 1629 Z"/><path class="s6" d="M1112 1629 L1218 1735 L1238 1735 L1132 1629 Z" /></g><g class="o"><path transform="translate(6,12)" class="S sf" d="M1652 1929 L1871 2148 L1871 2182 L1652 1963 Z"/><path class="f3" d="M1652 1929 L1871 2148 L1871 2182 L1652 1963 Z" /></g><g class="o"><path transform="translate(2,4)" class="S ss" d="M1516 2042 L1746 2272 L1782 2272 L1552 2042 Z"/><path class="s3" d="M1516 2042 L1746 2272 L1782 2272 L1552 2042 Z" /></g><g class="o"><path transform="translate(8,16)" class="S sf" d="M1473 1604 L1549 1680 L1549 1710 L1473 1634 Z"/><path class="f2" d="M1473 1604 L1549 1680 L1549 1710 L1473 1634 Z" /></g><g class="o"><path transform="translate(8,16)" class="S sf" d="M1639 2037 L1717 1959 L1717 1981 L1639 2059 Z"/><path class="f2" d="M1639 2037 L1717 1959 L1717 1981 L1639 2059 Z" /></g><g class="o"><path transform="translate(7,14)" class="S ss" d="M1308 1927 L1379 1998 L1407 1998 L1336 1927 Z"/><path class="s2" d="M1308 1927 L1379 1998 L1407 1998 L1336 1927 Z" /></g><g class="o"><path transform="translate(4,8)" class="S sf" d="M1094 1339 L863 1108 L863 1124 L1094 1355 Z"/><path class="f2" d="M1094 1339 L863 1108 L863 1124 L1094 1355 Z" /></g><g class="o"><path transform="translate(6,12)" class="S ss" d="M1622 1882 L1382 2122 L1382 2130 L1622 1890 Z"/><path class="s6" d="M1622 1882 L1382 2122 L1382 2130 L1622 1890 Z" /></g><g class="o"><path transform="translate(8,16)" class="S sf" d="M1941 1149 L2168 1376 L2180 1376 L1953 1149 Z"/><path class="f7" d="M1941 1149 L2168 1376 L2180 1376 L1953 1149 Z" /></g><g class="o"><path transform="translate(6,12)" class="S sf" d="M1990 1862 L1845 1717 L1873 1717 L2018 1862 Z"/><path class="f1" d="M1990 1862 L1845 1717 L1873 1717 L2018 1862 Z" /></g><g class="o"><path transform="translate(4,8)" class="S sf" d="M1831 1063 L1625 1269 L1625 1301 L1831 1095 Z"/><path class="f2" d="M1831 1063 L1625 1269 L1625 1301 L1831 1095 Z" /></g><g class="o"><path transform="translate(7,14)" class="S sf" d="M1993 1703 L2103 1813 L2103 1833 L1993 1723 Z"/><path class="f5" d="M1993 1703 L2103 1813 L2103 1833 L1993 1723 Z" /></g><g class="o"><path transform="translate(7,14)" class="S sf" d="M1278 1456 L1379 1355 L1379 1381 L1278 1482 Z"/><path class="f2" d="M1278 1456 L1379 1355 L1379 1381 L1278 1482 Z" /></g><g class="o"><path transform="translate(8,16)" class="S sf" d="M1775 1513 L1547 1285 L1575 1285 L1803 1513 Z"/><path class="f3" d="M1775 1513 L1547 1285 L1575 1285 L1803 1513 Z" /></g><g class="o"><path transform="translate(2,4)" class="S sf" d="M1913 1107 L1763 1257 L1763 1295 L1913 1145 Z"/><path class="f3" d="M1913 1107 L1763 1257 L1763 1295 L1913 1145 Z" /></g><g class="o"><path transform="translate(3,6)" class="S sf" d="M1821 1311 L1760 1372 L1760 1392 L1821 1331 Z"/><path class="f2" d="M1821 1311 L1760 1372 L1760 1392 L1821 1331 Z" /></g><g class="o"><path transform="translate(7,14)" class="S sf" d="M1455 962 L1343 1074 L1343 1086 L1455 974 Z"/><path class="f4" d="M1455 962 L1343 1074 L1343 1086 L1455 974 Z" /></g><g class="o"><path transform="translate(5,10)" class="S sf" d="M1825 1280 L1875 1230 L1875 1240 L1825 1290 Z"/><path class="f4" d="M1825 1280 L1875 1230 L1875 1240 L1825 1290 Z" /></g><g class="o"><path transform="translate(8,16)" class="S sf" d="M1310 1129 L1548 1367 L1548 1405 L1310 1167 Z"/><path class="f1" d="M1310 1129 L1548 1367 L1548 1405 L1310 1167 Z" /></g><g class="o"><path transform="translate(3,6)" class="S sf" d="M1665 2013 L1862 1816 L1862 1838 L1665 2035 Z"/><path class="f7" d="M1665 2013 L1862 1816 L1862 1838 L1665 2035 Z" /></g><g class="o"><path transform="translate(4,8)" class="S ss" d="M1924 1643 L1995 1572 L2031 1572 L1960 1643 Z"/><path class="s7" d="M1924 1643 L1995 1572 L2031 1572 L1960 1643 Z" /></g><g class="o"><path transform="translate(7,14)" class="S ss" d="M1694 1921 L1926 2153 L1934 2153 L1702 1921 Z"/><path class="s6" d="M1694 1921 L1926 2153 L1934 2153 L1702 1921 Z" /></g><g class="o"><path transform="translate(9,18)" class="S sf" d="M1322 1499 L1206 1383 L1206 1393 L1322 1509 Z"/><path class="f4" d="M1322 1499 L1206 1383 L1206 1393 L1322 1509 Z" /></g><g class="o"><path transform="translate(3,6)" class="S sf" d="M1982 1431 L2071 1520 L2101 1520 L2012 1431 Z"/><path class="f2" d="M1982 1431 L2071 1520 L2101 1520 L2012 1431 Z" /></g><g class="o"><path transform="translate(9,18)" class="S sf" d="M1793 1115 L1549 871 L1561 871 L1805 1115 Z"/><path class="f4" d="M1793 1115 L1549 871 L1561 871 L1805 1115 Z" /></g><g class="o"><path transform="translate(7,14)" class="S sf" d="M1335 2018 L1423 2106 L1423 2120 L1335 2032 Z"/><path class="f3" d="M1335 2018 L1423 2106 L1423 2120 L1335 2032 Z" /></g><g class="o"><path transform="translate(3,6)" class="S ss" d="M1656 1673 L1574 1591 L1574 1613 L1656 1695 Z"/><path class="s4" d="M1656 1673 L1574 1591 L1574 1613 L1656 1695 Z" /></g><g class="o"><path transform="translate(8,16)" class="S sf" d="M1910 1767 L1813 1670 L1843 1670 L1940 1767 Z"/><path class="f3" d="M1910 1767 L1813 1670 L1843 1670 L1940 1767 Z" /></g><g class="o"><path transform="translate(8,16)" class="S sf" d="M1950 1682 L2023 1755 L2057 1755 L1984 1682 Z"/><path class="f4" d="M1950 1682 L2023 1755 L2057 1755 L1984 1682 Z" /></g><g class="o"><path transform="translate(7,14)" class="S sf" d="M981 1659 L1089 1767 L1089 1789 L981 1681 Z"/><path class="f3" d="M981 1659 L1089 1767 L1089 1789 L981 1681 Z" /></g><g class="o"><path transform="translate(5,10)" class="S sf" d="M1637 1568 L1730 1475 L1730 1507 L1637 1600 Z"/><path class="f2" d="M1637 1568 L1730 1475 L1730 1507 L1637 1600 Z" /></g><g class="o"><path transform="translate(5,10)" class="S sf" d="M1233 1070 L1455 1292 L1455 1326 L1233 1104 Z"/><path class="f4" d="M1233 1070 L1455 1292 L1455 1326 L1233 1104 Z" /></g><g class="o"><path transform="translate(5,10)" class="S sf" d="M1966 1324 L2085 1205 L2085 1213 L1966 1332 Z"/><path class="f5" d="M1966 1324 L2085 1205 L2085 1213 L1966 1332 Z" /></g><g class="o"><path transform="translate(7,14)" class="S sf" d="M1154 1867 L974 1687 L992 1687 L1172 1867 Z"/><path class="f3" d="M1154 1867 L974 1687 L992 1687 L1172 1867 Z" /></g><g class="o"><path transform="translate(5,10)" class="S sf" d="M1690 1074 L1574 958 L1602 958 L1718 1074 Z"/><path class="f3" d="M1690 1074 L1574 958 L1602 958 L1718 1074 Z" /></g><g class="o"><path transform="translate(2,4)" class="S sf" d="M1823 1312 L1644 1133 L1678 1133 L1857 1312 Z"/><path class="f3" d="M1823 1312 L1644 1133 L1678 1133 L1857 1312 Z" /></g><g class="o"><path transform="translate(4,8)" class="S sf" d="M1991 1737 L2168 1914 L2168 1932 L1991 1755 Z"/><path class="f4" d="M1991 1737 L2168 1914 L2168 1932 L1991 1755 Z" /></g><g class="o"><path transform="translate(8,16)" class="S sf" d="M1977 1890 L1788 1701 L1788 1729 L1977 1918 Z"/><path class="f5" d="M1977 1890 L1788 1701 L1788 1729 L1977 1918 Z" /></g><g class="o"><path transform="translate(7,14)" class="S sf" d="M1793 1853 L1659 1987 L1659 2003 L1793 1869 Z"/><path class="f2" d="M1793 1853 L1659 1987 L1659 2003 L1793 1869 Z" /></g><g class="o"><path transform="translate(4,8)" class="S sf" d="M1352 1156 L1279 1083 L1279 1117 L1352 1190 Z"/><path class="f5" d="M1352 1156 L1279 1083 L1279 1117 L1352 1190 Z" /></g><g class="o"><path transform="translate(3,6)" class="S ss" d="M1362 1609 L1570 1401 L1590 1401 L1382 1609 Z"/><path class="s4" d="M1362 1609 L1570 1401 L1590 1401 L1382 1609 Z" /></g><g class="o"><path transform="translate(4,8)" class="S ss" d="M1607 1870 L1422 1685 L1422 1719 L1607 1904 Z"/><path class="s7" d="M1607 1870 L1422 1685 L1422 1719 L1607 1904 Z" /></g><g class="o"><path transform="translate(2,4)" class="S sf" d="M1106 1748 L1054 1696 L1072 1696 L1124 1748 Z"/><path class="f5" d="M1106 1748 L1054 1696 L1072 1696 L1124 1748 Z" /></g><g class="o"><path transform="translate(3,6)" class="S sf" d="M1160 1938 L1387 1711 L1387 1731 L1160 1958 Z"/><path class="f1" d="M1160 1938 L1387 1711 L1387 1731 L1160 1958 Z" /></g><g class="o"><path transform="translate(6,12)" class="S sf" d="M1896 1898 L2028 1766 L2052 1766 L1920 1898 Z"/><path class="f6" d="M1896 1898 L2028 1766 L2052 1766 L1920 1898 Z" /></g><g class="o"><path transform="translate(7,14)" class="S sf" d="M1798 1941 L1652 2087 L1660 2087 L1806 1941 Z"/><path class="f4" d="M1798 1941 L1652 2087 L1660 2087 L1806 1941 Z" /></g><g class="o"><path transform="translate(2,4)" class="S sf" d="M1527 1563 L1620 1470 L1650 1470 L1557 1563 Z"/><path class="f6" d="M1527 1563 L1620 1470 L1650 1470 L1557 1563 Z" /></g><g class="o"><path transform="translate(7,14)" class="S sf" d="M1762 1789 L1935 1962 L1971 1962 L1798 1789 Z"/><path class="f5" d="M1762 1789 L1935 1962 L1971 1962 L1798 1789 Z" /></g><g class="o"><path transform="translate(2,4)" class="S sf" d="M1992 1875 L1774 1657 L1774 1689 L1992 1907 Z"/><path class="f6" d="M1992 1875 L1774 1657 L1774 1689 L1992 1907 Z" /></g><g class="o"><path transform="translate(3,6)" class="S sf" d="M1643 1377 L1422 1156 L1438 1156 L1659 1377 Z"/><path class="f3" d="M1643 1377 L1422 1156 L1438 1156 L1659 1377 Z" /></g><g class="o"><path transform="translate(2,4)" class="S sf" d="M1058 1946 L1202 1802 L1202 1838 L1058 1982 Z"/><path class="f7" d="M1058 1946 L1202 1802 L1202 1838 L1058 1982 Z" /></g><g class="o"><path transform="translate(3,6)" class="S sf" d="M1196 1411 L1317 1532 L1317 1568 L1196 1447 Z"/><path class="f4" d="M1196 1411 L1317 1532 L1317 1568 L1196 1447 Z" /></g><g class="o"><path transform="translate(7,14)" class="S sf" d="M1831 1106 L1611 886 L1629 886 L1849 1106 Z"/><path class="f4" d="M1831 1106 L1611 886 L1629 886 L1849 1106 Z" /></g><g class="o"><path transform="translate(4,8)" class="S sf" d="M1719 1740 L1520 1939 L1520 1963 L1719 1764 Z"/><path class="f1" d="M1719 1740 L1520 1939 L1520 1963 L1719 1764 Z" /></g><g class="o"><path transform="translate(8,16)" class="S sf" d="M2021 1235 L1940 1316 L1958 1316 L2039 1235 Z"/><path class="f6" d="M2021 1235 L1940 1316 L1958 1316 L2039 1235 Z" /></g><g class="o"><path transform="translate(2,4)" class="S ss" d="M1264 1936 L1365 1835 L1365 1857 L1264 1958 Z"/><path class="s4" d="M1264 1936 L1365 1835 L1365 1857 L1264 1958 Z" /></g><g class="o"><path transform="translate(4,8)" class="S sf" d="M1629 1433 L1566 1496 L1592 1496 L1655 1433 Z"/><path class="f1" d="M1629 1433 L1566 1496 L1592 1496 L1655 1433 Z" /></g><g class="o"><path transform="translate(8,16)" class="S sf" d="M1045 1467 L891 1621 L891 1643 L1045 1489 Z"/><path class="f3" d="M1045 1467 L891 1621 L891 1643 L1045 1489 Z" /></g><g class="o"><path transform="translate(5,10)" class="S sf" d="M1161 989 L1356 794 L1372 794 L1177 989 Z"/><path class="f3" d="M1161 989 L1356 794 L1372 794 L1177 989 Z" /></g><g class="o"><path transform="translate(6,12)" class="S sf" d="M1150 1217 L973 1040 L973 1070 L1150 1247 Z"/><path class="f5" d="M1150 1217 L973 1040 L973 1070 L1150 1247 Z" /></g><g class="o"><path transform="translate(8,16)" class="S sf" d="M1638 1503 L1391 1750 L1391 1786 L1638 1539 Z"/><path class="f2" d="M1638 1503 L1391 1750 L1391 1786 L1638 1539 Z" /></g><g class="o"><path transform="translate(7,14)" class="S sf" d="M1366 1541 L1254 1429 L1254 1439 L1366 1551 Z"/><path class="f7" d="M1366 1541 L1254 1429 L1254 1439 L1366 1551 Z" /></g><g class="o"><path transform="translate(7,14)" class="S sf" d="M1670 1068 L1540 938 L1552 938 L1682 1068 Z"/><path class="f3" d="M1670 1068 L1540 938 L1552 938 L1682 1068 Z" /></g><g class="o"><path transform="translate(9,18)" class="S sf" d="M1034 1628 L1275 1387 L1275 1409 L1034 1650 Z"/><path class="f5" d="M1034 1628 L1275 1387 L1275 1409 L1034 1650 Z" /></g><g class="o"><path transform="translate(4,8)" class="S sf" d="M1640 1406 L1754 1520 L1766 1520 L1652 1406 Z"/><path class="f4" d="M1640 1406 L1754 1520 L1766 1520 L1652 1406 Z" /></g><g class="o"><path transform="translate(4,8)" class="S ss" d="M1182 1744 L947 1979 L947 2007 L1182 1772 Z"/><path class="s7" d="M1182 1744 L947 1979 L947 2007 L1182 1772 Z" /></g><g class="o"><path transform="translate(7,14)" class="S ss" d="M1205 1858 L1450 1613 L1458 1613 L1213 1858 Z"/><path class="s3" d="M1205 1858 L1450 1613 L1458 1613 L1213 1858 Z" /></g><g class="o"><path transform="translate(5,10)" class="S sf" d="M1696 1391 L1938 1633 L1948 1633 L1706 1391 Z"/><path class="f7" d="M1696 1391 L1938 1633 L1948 1633 L1706 1391 Z" /></g><g class="o"><path transform="translate(7,14)" class="S sf" d="M973 1128 L900 1201 L900 1227 L973 1154 Z"/><path class="f1" d="M973 1128 L900 1201 L900 1227 L973 1154 Z" /></g><g class="o"><path transform="translate(7,14)" class="S ss" d="M1881 1020 L1945 956 L1981 956 L1917 1020 Z"/><path class="s6" d="M1881 1020 L1945 956 L1981 956 L1917 1020 Z" /></g><g class="o"><path transform="translate(3,6)" class="S sf" d="M1155 1405 L950 1200 L968 1200 L1173 1405 Z"/><path class="f5" d="M1155 1405 L950 1200 L968 1200 L1173 1405 Z" /></g><g class="o"><path transform="translate(7,14)" class="S sf" d="M956 1449 L1193 1212 L1223 1212 L986 1449 Z"/><path class="f4" d="M956 1449 L1193 1212 L1223 1212 L986 1449 Z" /></g><g class="o"><path transform="translate(9,18)" class="S sf" d="M1436 1004 L1497 1065 L1497 1087 L1436 1026 Z"/><path class="f1" d="M1436 1004 L1497 1065 L1497 1087 L1436 1026 Z" /></g><g class="o"><path transform="translate(7,14)" class="S ss" d="M1278 1277 L1385 1170 L1385 1182 L1278 1289 Z"/><path class="s2" d="M1278 1277 L1385 1170 L1385 1182 L1278 1289 Z" /></g><g class="o"><path transform="translate(2,4)" class="S ss" d="M1911 1173 L1838 1100 L1838 1130 L1911 1203 Z"/><path class="s3" d="M1911 1173 L1838 1100 L1838 1130 L1911 1203 Z" /></g><g class="o"><path transform="translate(3,6)" class="S sf" d="M1066 1859 L1228 2021 L1228 2039 L1066 1877 Z"/><path class="f7" d="M1066 1859 L1228 2021 L1228 2039 L1066 1877 Z" /></g><g class="o"><path transform="translate(5,10)" class="S ss" d="M1726 1354 L1491 1119 L1491 1149 L1726 1384 Z"/><path class="s1" d="M1726 1354 L1491 1119 L1491 1149 L1726 1384 Z" /></g><g class="o"><path transform="translate(3,6)" class="S sf" d="M1250 960 L1196 1014 L1196 1046 L1250 992 Z"/><path class="f4" d="M1250 960 L1196 1014 L1196 1046 L1250 992 Z" /></g><g class="o"><path transform="translate(5,10)" class="S sf" d="M1725 971 L1804 892 L1804 924 L1725 1003 Z"/><path class="f1" d="M1725 971 L1804 892 L1804 924 L1725 1003 Z" /></g><g class="o"><path transform="translate(6,12)" class="S sf" d="M1415 1150 L1617 1352 L1631 1352 L1429 1150 Z"/><path class="f5" d="M1415 1150 L1617 1352 L1631 1352 L1429 1150 Z" /></g><g class="o"><path transform="translate(4,8)" class="S sf" d="M992 1309 L1061 1240 L1085 1240 L1016 1309 Z"/><path class="f5" d="M992 1309 L1061 1240 L1085 1240 L1016 1309 Z" /></g><g class="o"><path transform="translate(4,8)" class="S sf" d="M1980 1439 L1842 1577 L1842 1611 L1980 1473 Z"/><path class="f6" d="M1980 1439 L1842 1577 L1842 1611 L1980 1473 Z" /></g><g class="o"><path transform="translate(9,18)" class="S ss" d="M2013 1702 L2170 1545 L2200 1545 L2043 1702 Z"/><path class="s3" d="M2013 1702 L2170 1545 L2200 1545 L2043 1702 Z" /></g><g class="o"><path transform="translate(9,18)" class="S ss" d="M1227 1132 L1018 923 L1018 957 L1227 1166 Z"/><path class="s6" d="M1227 1132 L1018 923 L1018 957 L1227 1166 Z" /></g><g class="o"><path transform="translate(9,18)" class="S sf" d="M1997 1823 L2112 1938 L2134 1938 L2019 1823 Z"/><path class="f4" d="M1997 1823 L2112 1938 L2134 1938 L2019 1823 Z" /></g><g class="o"><path transform="translate(4,8)" class="S sf" d="M1627 1207 L1677 1257 L1677 1279 L1627 1229 Z"/><path class="f6" d="M1627 1207 L1677 1257 L1677 1279 L1627 1229 Z" /></g><g class="o"><path transform="translate(2,4)" class="S sf" d="M1056 1578 L1003 1525 L1033 1525 L1086 1578 Z"/><path class="f6" d="M1056 1578 L1003 1525 L1033 1525 L1086 1578 Z" /></g><g class="o"><path transform="translate(6,12)" class="S sf" d="M1796 1427 L1914 1309 L1938 1309 L1820 1427 Z"/><path class="f3" d="M1796 1427 L1914 1309 L1938 1309 L1820 1427 Z" /></g><g class="o"><path transform="translate(2,4)" class="S sf" d="M1207 2034 L1453 2280 L1469 2280 L1223 2034 Z"/><path class="f1" d="M1207 2034 L1453 2280 L1469 2280 L1223 2034 Z" /></g><g class="o"><path transform="translate(4,8)" class="S sf" d="M1908 1805 L1762 1659 L1784 1659 L1930 1805 Z"/><path class="f4" d="M1908 1805 L1762 1659 L1784 1659 L1930 1805 Z" /></g><g class="o"><path transform="translate(5,10)" class="S ss" d="M1748 1051 L1819 1122 L1831 1122 L1760 1051 Z"/><path class="s1" d="M1748 1051 L1819 1122 L1831 1122 L1760 1051 Z" /></g><g class="o"><path transform="translate(4,8)" class="S ss" d="M1668 1809 L1905 1572 L1917 1572 L1680 1809 Z"/><path class="s1" d="M1668 1809 L1905 1572 L1917 1572 L1680 1809 Z" /></g><g class="o"><path transform="translate(8,16)" class="S sf" d="M1708 1427 L1557 1578 L1557 1608 L1708 1457 Z"/><path class="f5" d="M1708 1427 L1557 1578 L1557 1608 L1708 1457 Z" /></g><g class="o"><path transform="translate(5,10)" class="S ss" d="M1994 1780 L2182 1592 L2208 1592 L2020 1780 Z"/><path class="s1" d="M1994 1780 L2182 1592 L2208 1592 L2020 1780 Z" /></g><g class="o"><path transform="translate(9,18)" class="S sf" d="M1967 1821 L2147 1641 L2147 1673 L1967 1853 Z"/><path class="f1" d="M1967 1821 L2147 1641 L2147 1673 L1967 1853 Z" /></g><g class="o"><path transform="translate(8,16)" class="S sf" d="M1216 1186 L1452 1422 L1452 1458 L1216 1222 Z"/><path class="f4" d="M1216 1186 L1452 1422 L1452 1458 L1216 1222 Z" /></g><g class="o"><path transform="translate(4,8)" class="S sf" d="M973 989 L1066 896 L1066 928 L973 1021 Z"/><path class="f7" d="M973 989 L1066 896 L1066 928 L973 1021 Z" /></g><g class="o"><path transform="translate(8,16)" class="S ss" d="M951 1585 L1118 1418 L1118 1434 L951 1601 Z"/><path class="s4" d="M951 1585 L1118 1418 L1118 1434 L951 1601 Z" /></g><g class="o"><path transform="translate(9,18)" class="S ss" d="M1443 1303 L1242 1504 L1272 1504 L1473 1303 Z"/><path class="s7" d="M1443 1303 L1242 1504 L1272 1504 L1473 1303 Z" /></g><g class="o"><path transform="translate(4,8)" class="S sf" d="M1408 1395 L1221 1582 L1249 1582 L1436 1395 Z"/><path class="f7" d="M1408 1395 L1221 1582 L1249 1582 L1436 1395 Z" /></g><g class="o"><path transform="translate(7,14)" class="S sf" d="M1685 1306 L1750 1241 L1750 1269 L1685 1334 Z"/><path class="f4" d="M1685 1306 L1750 1241 L1750 1269 L1685 1334 Z" /></g><g class="o"><path transform="translate(8,16)" class="S sf" d="M1636 1436 L1837 1235 L1837 1251 L1636 1452 Z"/><path class="f5" d="M1636 1436 L1837 1235 L1837 1251 L1636 1452 Z" /></g><g class="o"><path transform="translate(5,10)" class="S sf" d="M1140 1679 L1280 1539 L1294 1539 L1154 1679 Z"/><path class="f1" d="M1140 1679 L1280 1539 L1294 1539 L1154 1679 Z" /></g><g class="o"><path transform="translate(3,6)" class="S sf" d="M1021 1973 L933 2061 L947 2061 L1035 1973 Z"/><path class="f4" d="M1021 1973 L933 2061 L947 2061 L1035 1973 Z" /></g><g class="o"><path transform="translate(5,10)" class="S sf" d="M1060 1954 L948 2066 L984 2066 L1096 1954 Z"/><path class="f5" d="M1060 1954 L948 2066 L984 2066 L1096 1954 Z" /></g><g class="o"><path transform="translate(3,6)" class="S sf" d="M1523 1851 L1388 1716 L1414 1716 L1549 1851 Z"/><path class="f1" d="M1523 1851 L1388 1716 L1414 1716 L1549 1851 Z" /></g><g class="o"><path transform="translate(3,6)" class="S sf" d="M1710 1741 L1566 1597 L1602 1597 L1746 1741 Z"/><path class="f2" d="M1710 1741 L1566 1597 L1602 1597 L1746 1741 Z" /></g><g class="o"><path transform="translate(2,4)" class="S sf" d="M1117 1302 L897 1082 L911 1082 L1131 1302 Z"/><path class="f7" d="M1117 1302 L897 1082 L911 1082 L1131 1302 Z" /></g><g class="o"><path transform="translate(4,8)" class="S ss" d="M2044 995 L2165 1116 L2165 1142 L2044 1021 Z"/><path class="s5" d="M2044 995 L2165 1116 L2165 1142 L2044 1021 Z" /></g><g class="o"><path transform="translate(4,8)" class="S sf" d="M1420 1983 L1294 2109 L1294 2131 L1420 2005 Z"/><path class="f5" d="M1420 1983 L1294 2109 L1294 2131 L1420 2005 Z" /></g><g class="o"><path transform="translate(5,10)" class="S sf" d="M1743 1331 L1599 1475 L1627 1475 L1771 1331 Z"/><path class="f6" d="M1743 1331 L1599 1475 L1627 1475 L1771 1331 Z" /></g><g class="o"><path transform="translate(3,6)" class="S sf" d="M1758 1856 L1873 1971 L1873 1999 L1758 1884 Z"/><path class="f5" d="M1758 1856 L1873 1971 L1873 1999 L1758 1884 Z" /></g><g class="o"><path transform="translate(5,10)" class="S sf" d="M1935 1970 L1780 1815 L1806 1815 L1961 1970 Z"/><path class="f1" d="M1935 1970 L1780 1815 L1806 1815 L1961 1970 Z" /></g><g class="o"><path transform="translate(4,8)" class="S sf" d="M1119 1198 L1242 1321 L1260 1321 L1137 1198 Z"/><path class="f7" d="M1119 1198 L1242 1321 L1260 1321 L1137 1198 Z" /></g><g class="o"><path transform="translate(2,4)" class="S sf" d="M1798 1065 L1900 963 L1912 963 L1810 1065 Z"/><path class="f3" d="M1798 1065 L1900 963 L1912 963 L1810 1065 Z" /></g><g class="o"><path transform="translate(7,14)" class="S sf" d="M1226 2028 L1347 1907 L1347 1941 L1226 2062 Z"/><path class="f7" d="M1226 2028 L1347 1907 L1347 1941 L1226 2062 Z" /></g><g class="o"><path transform="translate(8,16)" class="S sf" d="M1367 1803 L1128 2042 L1128 2076 L1367 1837 Z"/><path class="f7" d="M1367 1803 L1128 2042 L1128 2076 L1367 1837 Z" /></g><g class="o"><path transform="translate(3,6)" class="S sf" d="M1078 1252 L1028 1202 L1028 1238 L1078 1288 Z"/><path class="f7" d="M1078 1252 L1028 1202 L1028 1238 L1078 1288 Z" /></g><g class="o"><path transform="translate(4,8)" class="S sf" d="M1957 1761 L1730 1534 L1730 1572 L1957 1799 Z"/><path class="f2" d="M1957 1761 L1730 1534 L1730 1572 L1957 1799 Z" /></g><g class="o"><path transform="translate(4,8)" class="S sf" d="M1638 1604 L1744 1710 L1744 1730 L1638 1624 Z"/><path class="f2" d="M1638 1604 L1744 1710 L1744 1730 L1638 1624 Z" /></g><g class="o"><path transform="translate(6,12)" class="S sf" d="M2015 989 L1890 864 L1890 902 L2015 1027 Z"/><path class="f3" d="M2015 989 L1890 864 L1890 902 L2015 1027 Z" /></g><g class="o"><path transform="translate(2,4)" class="S sf" d="M1360 1055 L1488 927 L1488 935 L1360 1063 Z"/><path class="f5" d="M1360 1055 L1488 927 L1488 935 L1360 1063 Z" /></g><g class="o"><path transform="translate(5,10)" class="S sf" d="M1362 1740 L1269 1833 L1269 1843 L1362 1750 Z"/><path class="f1" d="M1362 1740 L1269 1833 L1269 1843 L1362 1750 Z" /></g><g class="o"><path transform="translate(4,8)" class="S sf" d="M993 1820 L1069 1896 L1079 1896 L1003 1820 Z"/><path class="f1" d="M993 1820 L1069 1896 L1079 1896 L1003 1820 Z" /></g><g class="o"><path transform="translate(8,16)" class="S sf" d="M1246 1564 L1034 1352 L1048 1352 L1260 1564 Z"/><path class="f4" d="M1246 1564 L1034 1352 L1048 1352 L1260 1564 Z" /></g><g class="o"><path transform="translate(4,8)" class="S sf" d="M1888 1848 L1693 2043 L1693 2075 L1888 1880 Z"/><path class="f3" d="M1888 1848 L1693 2043 L1693 2075 L1888 1880 Z" /></g><g class="o"><path transform="translate(8,16)" class="S ss" d="M1885 1492 L2088 1695 L2098 1695 L1895 1492 Z"/><path class="s4" d="M1885 1492 L2088 1695 L2098 1695 L1895 1492 Z" /></g><g class="o"><path transform="translate(8,16)" class="S sf" d="M1765 1387 L1913 1239 L1913 1249 L1765 1397 Z"/><path class="f2" d="M1765 1387 L1913 1239 L1913 1249 L1765 1397 Z" /></g><g class="o"><path transform="translate(6,12)" class="S sf" d="M1200 1710 L1256 1766 L1256 1786 L1200 1730 Z"/><path class="f4" d="M1200 1710 L1256 1766 L1256 1786 L1200 1730 Z" /></g><g class="o"><path transform="translate(3,6)" class="S sf" d="M1232 1186 L1010 964 L1010 980 L1232 1202 Z"/><path class="f7" d="M1232 1186 L1010 964 L1010 980 L1232 1202 Z" /></g><g class="o"><path transform="translate(4,8)" class="S sf" d="M1234 1358 L1051 1541 L1051 1559 L1234 1376 Z"/><path class="f6" d="M1234 1358 L1051 1541 L1051 1559 L1234 1376 Z" /></g><g class="o"><path transform="translate(2,4)" class="S sf" d="M1203 1413 L1306 1516 L1306 1530 L1203 1427 Z"/><path class="f6" d="M1203 1413 L1306 1516 L1306 1530 L1203 1427 Z" /></g></g><use href="#slashes" transform-origin="1500 1500" transform="rotate(180) scale(2)"/></g><rect x="1080" y="1080" width="840" height="840" stroke-width="160" class="o s7" /><use href="#slashes" transform-origin="1500 1500" transform="scale(.9)"/><use href="#slashes" transform-origin="1500 1500" transform="rotate(180) scale(.9)"/></svg>