<svg xmlns="http://www.w3.org/2000/svg" viewBox="750 750 1500 1500"><style>/*<![CDATA[*/svg{background:rgb(34,34,34);max-width:100vw;max-height:100vh}path{stroke-width:4}.o{opacity:.75}.S{opacity:.4}.sf{stroke:none;fill:black}.sfh{stroke:none;fill:url(#hs)}.sfv{stroke:none;fill:url(#vs)}.ss{stroke:black;fill:none}.ssh{stroke:url(#hs);fill:none}.ssv{stroke:url(#vs);fill:none}.s1{fill:none;stroke:rgb(220,220,221)}.f1{stroke:none;fill:rgb(220,220,221)}.sh1{fill:none;stroke:url(#h1)}.fh1{stroke:none;fill:url(#h1)}.sv1{fill:none;stroke:url(#v1)}.fv1{stroke:none;fill:url(#v1)}.s2{fill:none;stroke:rgb(70,73,76)}.f2{stroke:none;fill:rgb(70,73,76)}.sh2{fill:none;stroke:url(#h2)}.fh2{stroke:none;fill:url(#h2)}.sv2{fill:none;stroke:url(#v2)}.fv2{stroke:none;fill:url(#v2)}.s3{fill:none;stroke:rgb(76,92,104)}.f3{stroke:none;fill:rgb(76,92,104)}.sh3{fill:none;stroke:url(#h3)}.fh3{stroke:none;fill:url(#h3)}.sv3{fill:none;stroke:url(#v3)}.fv3{stroke:none;fill:url(#v3)}.s4{fill:none;stroke:rgb(25,133,161)}.f4{stroke:none;fill:rgb(25,133,161)}.sh4{fill:none;stroke:url(#h4)}.fh4{stroke:none;fill:url(#h4)}.sv4{fill:none;stroke:url(#v4)}.fv4{stroke:none;fill:url(#v4)}.s5{fill:none;stroke:rgb(197,195,198)}.f5{stroke:none;fill:rgb(197,195,198)}.sh5{fill:none;stroke:url(#h5)}.fh5{stroke:none;fill:url(#h5)}.sv5{fill:none;stroke:url(#v5)}.fv5{stroke:none;fill:url(#v5)}.s6{fill:none;stroke:rgb(255,255,255)}.f6{stroke:none;fill:rgb(255,255,255)}.sh6{fill:none;stroke:url(#h6)}.fh6{stroke:none;fill:url(#h6)}.sv6{fill:none;stroke:url(#v6)}.fv6{stroke:none;fill:url(#v6)}.s7{fill:none;stroke:rgb(255,255,0)}.f7{stroke:none;fill:rgb(255,255,0)}.sh7{fill:none;stroke:url(#h7)}.fh7{stroke:none;fill:url(#h7)}.sv7{fill:none;stroke:url(#v7)}.fv7{stroke:none;fill:url(#v7)}/*]]>*/</style><defs><linearGradient gradientTransform="rotate(90)" id="hs"><stop offset="20%" stop-color="#000" /><stop offset="95%" stop-color="rgba(0, 0, 0, 0)" /></linearGradient><linearGradient id="vs"><stop offset="20%" stop-color="#000" /><stop offset="95%" stop-color="rgba(0, 0, 0, 0)" /></linearGradient><linearGradient gradientTransform="rotate(90)" id="h1"><stop offset="20%" stop-color="rgba(220,220,221,1)" /><stop offset="95%" stop-color="rgba(220,220,221,0)" /></linearGradient><linearGradient id="v1"><stop offset="20%" stop-color="rgba(220,220,221,1)" /><stop offset="95%" stop-color="rgba(220,220,221,0)" /></linearGradient><linearGradient gradientTransform="rotate(90)" id="h2"><stop offset="20%" stop-color="rgba(70,73,76,1)" /><stop offset="95%" stop-color="rgba(70,73,76,0)" /></linearGradient><linearGradient id="v2"><stop offset="20%" stop-color="rgba(70,73,76,1)" /><stop offset="95%" stop-color="rgba(70,73,76,0)" /></linearGradient><linearGradient gradientTransform="rotate(90)" id="h3"><stop offset="20%" stop-color="rgba(76,92,104,1)" /><stop offset="95%" stop-color="rgba(76,92,104,0)" /></linearGradient><linearGradient id="v3"><stop offset="20%" stop-color="rgba(76,92,104,1)" /><stop offset="95%" stop-color="rgba(76,92,104,0)" /></linearGradient><linearGradient gradientTransform="rotate(90)" id="h4"><stop offset="20%" stop-color="rgba(25,133,161,1)" /><stop offset="95%" stop-color="rgba(25,133,161,0)" /></linearGradient><linearGradient id="v4"><stop offset="20%" stop-color="rgba(25,133,161,1)" /><stop offset="95%" stop-color="rgba(25,133,161,0)" /></linearGradient><linearGradient gradientTransform="rotate(90)" id="h5"><stop offset="20%" stop-color="rgba(197,195,198,1)" /><stop offset="95%" stop-color="rgba(197,195,198,0)" /></linearGradient><linearGradient id="v5"><stop offset="20%" stop-color="rgba(197,195,198,1)" /><stop offset="95%" stop-color="rgba(197,195,198,0)" /></linearGradient><linearGradient gradientTransform="rotate(90)" id="h6"><stop offset="20%" stop-color="rgba(255,255,255,1)" /><stop offset="95%" stop-color="rgba(255,255,255,0)" /></linearGradient><linearGradient id="v6"><stop offset="20%" stop-color="rgba(255,255,255,1)" /><stop offset="95%" stop-color="rgba(255,255,255,0)" /></linearGradient><linearGradient gradientTransform="rotate(90)" id="h7"><stop offset="20%" stop-color="rgba(255,255,0,1)" /><stop offset="95%" stop-color="rgba(255,255,0,0)" /></linearGradient><linearGradient id="v7"><stop offset="20%" stop-color="rgba(255,255,0,1)" /><stop offset="95%" stop-color="rgba(255,255,0,0)" /></linearGradient></defs><g transform-origin="1500 1500" transform="scale(2)" opacity=".2"><g id="slashes"><g class="o"><path transform="translate(7,14)" class="S sfh" d="M1319 1980 L1551 1748 L1563 1748 L1331 1980 Z"/><path class="fh6" d="M1319 1980 L1551 1748 L1563 1748 L1331 1980 Z" /></g><g class="o"><path transform="translate(3,6)" class="S sfv" d="M1911 1554 L2131 1334 L2131 1362 L1911 1582 Z"/><path class="fv1" d="M1911 1554 L2131 1334 L2131 1362 L1911 1582 Z" /></g><g class="o"><path transform="translate(7,14)" class="S sfh" d="M1426 1807 L1478 1859 L1490 1859 L1438 1807 Z"/><path class="fh6" d="M1426 1807 L1478 1859 L1490 1859 L1438 1807 Z" /></g><g class="o"><path transform="translate(8,16)" class="S sfh" d="M1075 1041 L754 1362 L790 1362 L1111 1041 Z"/><path class="fh7" d="M1075 1041 L754 1362 L790 1362 L1111 1041 Z" /></g><g class="o"><path transform="translate(3,6)" class="S sfv" d="M1133 1973 L1333 2173 L1333 2211 L1133 2011 Z"/><path class="fv3" d="M1133 1973 L1333 2173 L1333 2211 L1133 2011 Z" /></g><g class="o"><path transform="translate(5,10)" class="S ss" d="M1315 1067 L1488 1240 L1506 1240 L1333 1067 Z"/><path class="s1" d="M1315 1067 L1488 1240 L1506 1240 L1333 1067 Z" /></g><g class="o"><path transform="translate(2,4)" class="S sfh" d="M1256 1417 L1492 1653 L1524 1653 L1288 1417 Z"/><path class="fh7" d="M1256 1417 L1492 1653 L1524 1653 L1288 1417 Z" /></g><g class="o"><path transform="translate(8,16)" class="S sfh" d="M1998 1640 L2167 1809 L2183 1809 L2014 1640 Z"/><path class="fh2" d="M1998 1640 L2167 1809 L2183 1809 L2014 1640 Z" /></g><g class="o"><path transform="translate(4,8)" class="S sfv" d="M1608 954 L2001 1347 L2001 1367 L1608 974 Z"/><path class="fv3" d="M1608 954 L2001 1347 L2001 1367 L1608 974 Z" /></g><g class="o"><path transform="translate(8,16)" class="S sfh" d="M1291 1233 L1070 1454 L1106 1454 L1327 1233 Z"/><path class="fh6" d="M1291 1233 L1070 1454 L1106 1454 L1327 1233 Z" /></g><g class="o"><path transform="translate(3,6)" class="S sfh" d="M1711 1621 L1822 1732 L1860 1732 L1749 1621 Z"/><path class="fh4" d="M1711 1621 L1822 1732 L1860 1732 L1749 1621 Z" /></g><g class="o"><path transform="translate(5,10)" class="S sf" d="M1608 1832 L2037 1403 L2037 1441 L1608 1870 Z"/><path class="f6" d="M1608 1832 L2037 1403 L2037 1441 L1608 1870 Z" /></g><g class="o"><path transform="translate(6,12)" class="S sfh" d="M1339 1143 L1480 1284 L1506 1284 L1365 1143 Z"/><path class="fh1" d="M1339 1143 L1480 1284 L1506 1284 L1365 1143 Z" /></g><g class="o"><path transform="translate(3,6)" class="S ssh" d="M1354 1528 L1176 1706 L1212 1706 L1390 1528 Z"/><path class="sh4" d="M1354 1528 L1176 1706 L1212 1706 L1390 1528 Z" /></g><g class="o"><path transform="translate(3,6)" class="S ssh" d="M889 1400 L1019 1530 L1163 1530 L1033 1400 Z"/><path class="sh2" d="M889 1400 L1019 1530 L1163 1530 L1033 1400 Z" /></g><g class="o"><path transform="translate(9,18)" class="S sfv" d="M1038 1690 L1671 2323 L1671 2331 L1038 1698 Z"/><path class="fv1" d="M1038 1690 L1671 2323 L1671 2331 L1038 1698 Z" /></g><g class="o"><path transform="translate(8,16)" class="S sfv" d="M1050 1097 L1293 854 L1293 882 L1050 1125 Z"/><path class="fv7" d="M1050 1097 L1293 854 L1293 882 L1050 1125 Z" /></g><g class="o"><path transform="translate(5,10)" class="S sfv" d="M1025 1046 L1301 1322 L1301 1342 L1025 1066 Z"/><path class="fv5" d="M1025 1046 L1301 1322 L1301 1342 L1025 1066 Z" /></g><g class="o"><path transform="translate(9,18)" class="S sfv" d="M1225 949 L1293 1017 L1293 1031 L1225 963 Z"/><path class="fv4" d="M1225 949 L1293 1017 L1293 1031 L1225 963 Z" /></g><g class="o"><path transform="translate(9,18)" class="S sfh" d="M1177 1823 L1389 2035 L1427 2035 L1215 1823 Z"/><path class="fh4" d="M1177 1823 L1389 2035 L1427 2035 L1215 1823 Z" /></g><g class="o"><path transform="translate(4,8)" class="S sfv" d="M1049 1643 L1121 1715 L1121 1743 L1049 1671 Z"/><path class="fv6" d="M1049 1643 L1121 1715 L1121 1743 L1049 1671 Z" /></g><g class="o"><path transform="translate(8,16)" class="S sfh" d="M1960 1060 L2138 1238 L2266 1238 L2088 1060 Z"/><path class="fh5" d="M1960 1060 L2138 1238 L2266 1238 L2088 1060 Z" /></g><g class="o"><path transform="translate(4,8)" class="S sf" d="M1684 1962 L2056 1590 L2072 1590 L1700 1962 Z"/><path class="f1" d="M1684 1962 L2056 1590 L2072 1590 L1700 1962 Z" /></g><g class="o"><path transform="translate(3,6)" class="S ssh" d="M1609 1503 L1744 1638 L1792 1638 L1657 1503 Z"/><path class="sh1" d="M1609 1503 L1744 1638 L1792 1638 L1657 1503 Z" /></g><g class="o"><path transform="translate(4,8)" class="S sfv" d="M1328 1774 L1199 1903 L1199 1915 L1328 1786 Z"/><path class="fv3" d="M1328 1774 L1199 1903 L1199 1915 L1328 1786 Z" /></g><g class="o"><path transform="translate(2,4)" class="S sfv" d="M1458 1819 L2130 2491 L2130 2501 L1458 1829 Z"/><path class="fv7" d="M1458 1819 L2130 2491 L2130 2501 L1458 1829 Z" /></g><g class="o"><path transform="translate(2,4)" class="S ssv" d="M1556 968 L2300 1712 L2300 1736 L1556 992 Z"/><path class="sv5" d="M1556 968 L2300 1712 L2300 1736 L1556 992 Z" /></g><g class="o"><path transform="translate(5,10)" class="S sf" d="M1392 1726 L2091 1027 L2099 1027 L1400 1726 Z"/><path class="f6" d="M1392 1726 L2091 1027 L2099 1027 L1400 1726 Z" /></g><g class="o"><path transform="translate(6,12)" class="S sfv" d="M1223 1615 L1411 1803 L1411 1829 L1223 1641 Z"/><path class="fv7" d="M1223 1615 L1411 1803 L1411 1829 L1223 1641 Z" /></g><g class="o"><path transform="translate(6,12)" class="S ssh" d="M1655 1084 L1896 1325 L2008 1325 L1767 1084 Z"/><path class="sh1" d="M1655 1084 L1896 1325 L2008 1325 L1767 1084 Z" /></g><g class="o"><path transform="translate(5,10)" class="S sfv" d="M1836 1492 L2007 1663 L2007 1701 L1836 1530 Z"/><path class="fv3" d="M1836 1492 L2007 1663 L2007 1701 L1836 1530 Z" /></g><g class="o"><path transform="translate(8,16)" class="S ssv" d="M1218 1296 L993 1071 L993 1107 L1218 1332 Z"/><path class="sv1" d="M1218 1296 L993 1071 L993 1107 L1218 1332 Z" /></g><g class="o"><path transform="translate(9,18)" class="S ssv" d="M1816 1551 L1897 1632 L1897 1648 L1816 1567 Z"/><path class="sv5" d="M1816 1551 L1897 1632 L1897 1648 L1816 1567 Z" /></g><g class="o"><path transform="translate(7,14)" class="S sfh" d="M959 1931 L1691 2663 L1721 2663 L989 1931 Z"/><path class="fh5" d="M959 1931 L1691 2663 L1721 2663 L989 1931 Z" /></g><g class="o"><path transform="translate(2,4)" class="S sfv" d="M1960 2004 L2692 2736 L2692 2770 L1960 2038 Z"/><path class="fv4" d="M1960 2004 L2692 2736 L2692 2770 L1960 2038 Z" /></g><g class="o"><path transform="translate(6,12)" class="S sf" d="M1779 1949 L1640 1810 L1640 1906 L1779 2045 Z"/><path class="f1" d="M1779 1949 L1640 1810 L1640 1906 L1779 2045 Z" /></g><g class="o"><path transform="translate(3,6)" class="S sfv" d="M1826 1618 L2060 1852 L2060 1880 L1826 1646 Z"/><path class="fv1" d="M1826 1618 L2060 1852 L2060 1880 L1826 1646 Z" /></g><g class="o"><path transform="translate(8,16)" class="S ssv" d="M1436 1064 L1502 998 L1502 1014 L1436 1080 Z"/><path class="sv7" d="M1436 1064 L1502 998 L1502 1014 L1436 1080 Z" /></g><g class="o"><path transform="translate(8,16)" class="S sf" d="M1457 1366 L2123 2032 L2123 2062 L1457 1396 Z"/><path class="f2" d="M1457 1366 L2123 2032 L2123 2062 L1457 1396 Z" /></g><g class="o"><path transform="translate(9,18)" class="S sf" d="M1102 1487 L1194 1579 L1222 1579 L1130 1487 Z"/><path class="f7" d="M1102 1487 L1194 1579 L1222 1579 L1130 1487 Z" /></g><g class="o"><path transform="translate(7,14)" class="S ssv" d="M1909 1497 L1732 1674 L1732 1700 L1909 1523 Z"/><path class="sv4" d="M1909 1497 L1732 1674 L1732 1700 L1909 1523 Z" /></g><g class="o"><path transform="translate(8,16)" class="S sf" d="M1958 957 L2152 1151 L2190 1151 L1996 957 Z"/><path class="f2" d="M1958 957 L2152 1151 L2190 1151 L1996 957 Z" /></g><g class="o"><path transform="translate(8,16)" class="S ssh" d="M1227 1410 L1308 1491 L1338 1491 L1257 1410 Z"/><path class="sh2" d="M1227 1410 L1308 1491 L1338 1491 L1257 1410 Z" /></g><g class="o"><path transform="translate(8,16)" class="S sfh" d="M1750 1695 L1934 1879 L1952 1879 L1768 1695 Z"/><path class="fh2" d="M1750 1695 L1934 1879 L1952 1879 L1768 1695 Z" /></g><g class="o"><path transform="translate(7,14)" class="S sfh" d="M1258 1965 L1340 1883 L1368 1883 L1286 1965 Z"/><path class="fh7" d="M1258 1965 L1340 1883 L1368 1883 L1286 1965 Z" /></g><g class="o"><path transform="translate(3,6)" class="S sf" d="M1473 1468 L1640 1635 L1660 1635 L1493 1468 Z"/><path class="f6" d="M1473 1468 L1640 1635 L1660 1635 L1493 1468 Z" /></g><g class="o"><path transform="translate(8,16)" class="S sfv" d="M2036 1207 L2663 580 L2663 600 L2036 1227 Z"/><path class="fv5" d="M2036 1207 L2663 580 L2663 600 L2036 1227 Z" /></g><g class="o"><path transform="translate(3,6)" class="S sfh" d="M1578 1006 L1639 1067 L1675 1067 L1614 1006 Z"/><path class="fh1" d="M1578 1006 L1639 1067 L1675 1067 L1614 1006 Z" /></g><g class="o"><path transform="translate(6,12)" class="S sfh" d="M1139 1678 L1074 1743 L1092 1743 L1157 1678 Z"/><path class="fh1" d="M1139 1678 L1074 1743 L1092 1743 L1157 1678 Z" /></g><g class="o"><path transform="translate(8,16)" class="S sfh" d="M1782 1132 L1661 1253 L1669 1253 L1790 1132 Z"/><path class="fh2" d="M1782 1132 L1661 1253 L1669 1253 L1790 1132 Z" /></g><g class="o"><path transform="translate(4,8)" class="S sfv" d="M1777 2033 L1929 1881 L1929 1889 L1777 2041 Z"/><path class="fv6" d="M1777 2033 L1929 1881 L1929 1889 L1777 2041 Z" /></g><g class="o"><path transform="translate(4,8)" class="S ssv" d="M1425 1827 L1561 1691 L1561 1843 L1425 1979 Z"/><path class="sv6" d="M1425 1827 L1561 1691 L1561 1843 L1425 1979 Z" /></g><g class="o"><path transform="translate(3,6)" class="S sfv" d="M1169 1694 L1409 1454 L1409 1468 L1169 1708 Z"/><path class="fv5" d="M1169 1694 L1409 1454 L1409 1468 L1169 1708 Z" /></g><g class="o"><path transform="translate(8,16)" class="S sfv" d="M1683 1881 L1588 1976 L1588 2048 L1683 1953 Z"/><path class="fv6" d="M1683 1881 L1588 1976 L1588 2048 L1683 1953 Z" /></g><g class="o"><path transform="translate(5,10)" class="S sfv" d="M1273 1604 L1492 1823 L1492 1839 L1273 1620 Z"/><path class="fv7" d="M1273 1604 L1492 1823 L1492 1839 L1273 1620 Z" /></g><g class="o"><path transform="translate(3,6)" class="S sfv" d="M1191 1888 L1389 2086 L1389 2094 L1191 1896 Z"/><path class="fv4" d="M1191 1888 L1389 2086 L1389 2094 L1191 1896 Z" /></g><g class="o"><path transform="translate(3,6)" class="S ssv" d="M1720 961 L1794 1035 L1794 1053 L1720 979 Z"/><path class="sv2" d="M1720 961 L1794 1035 L1794 1053 L1720 979 Z" /></g><g class="o"><path transform="translate(9,18)" class="S sfv" d="M1798 1165 L2026 937 L2026 967 L1798 1195 Z"/><path class="fv4" d="M1798 1165 L2026 937 L2026 967 L1798 1195 Z" /></g><g class="o"><path transform="translate(6,12)" class="S sfv" d="M1896 1387 L2095 1586 L2095 1620 L1896 1421 Z"/><path class="fv4" d="M1896 1387 L2095 1586 L2095 1620 L1896 1421 Z" /></g><g class="o"><path transform="translate(5,10)" class="S sf" d="M1443 1813 L1516 1886 L1538 1886 L1465 1813 Z"/><path class="f6" d="M1443 1813 L1516 1886 L1538 1886 L1465 1813 Z" /></g><g class="o"><path transform="translate(4,8)" class="S ssh" d="M1502 1835 L1579 1912 L1605 1912 L1528 1835 Z"/><path class="sh2" d="M1502 1835 L1579 1912 L1605 1912 L1528 1835 Z" /></g><g class="o"><path transform="translate(8,16)" class="S sf" d="M1347 1318 L1409 1380 L1409 1410 L1347 1348 Z"/><path class="f6" d="M1347 1318 L1409 1380 L1409 1410 L1347 1348 Z" /></g><g class="o"><path transform="translate(7,14)" class="S sfh" d="M1051 1806 L1279 2034 L1289 2034 L1061 1806 Z"/><path class="fh2" d="M1051 1806 L1279 2034 L1289 2034 L1061 1806 Z" /></g><g class="o"><path transform="translate(5,10)" class="S sfh" d="M1647 1094 L1801 1248 L1829 1248 L1675 1094 Z"/><path class="fh4" d="M1647 1094 L1801 1248 L1829 1248 L1675 1094 Z" /></g><g class="o"><path transform="translate(8,16)" class="S ss" d="M1823 1757 L2041 1539 L2041 1555 L1823 1773 Z"/><path class="s7" d="M1823 1757 L2041 1539 L2041 1555 L1823 1773 Z" /></g><g class="o"><path transform="translate(5,10)" class="S sf" d="M2017 1081 L1786 1312 L1786 1320 L2017 1089 Z"/><path class="f6" d="M2017 1081 L1786 1312 L1786 1320 L2017 1089 Z" /></g><g class="o"><path transform="translate(8,16)" class="S sfv" d="M1969 1129 L2197 1357 L2197 1373 L1969 1145 Z"/><path class="fv7" d="M1969 1129 L2197 1357 L2197 1373 L1969 1145 Z" /></g><g class="o"><path transform="translate(8,16)" class="S sfh" d="M1561 1068 L1655 1162 L1665 1162 L1571 1068 Z"/><path class="fh4" d="M1561 1068 L1655 1162 L1665 1162 L1571 1068 Z" /></g><g class="o"><path transform="translate(7,14)" class="S sfh" d="M1561 1034 L1630 1103 L1648 1103 L1579 1034 Z"/><path class="fh3" d="M1561 1034 L1630 1103 L1648 1103 L1579 1034 Z" /></g><g class="o"><path transform="translate(9,18)" class="S sfh" d="M1118 1822 L1280 1984 L1302 1984 L1140 1822 Z"/><path class="fh3" d="M1118 1822 L1280 1984 L1302 1984 L1140 1822 Z" /></g><g class="o"><path transform="translate(5,10)" class="S ssh" d="M1989 1900 L2219 1670 L2247 1670 L2017 1900 Z"/><path class="sh3" d="M1989 1900 L2219 1670 L2247 1670 L2017 1900 Z" /></g><g class="o"><path transform="translate(3,6)" class="S sfv" d="M1693 979 L1900 1186 L1900 1210 L1693 1003 Z"/><path class="fv1" d="M1693 979 L1900 1186 L1900 1210 L1693 1003 Z" /></g><g class="o"><path transform="translate(8,16)" class="S sfv" d="M1757 1980 L1939 2162 L1939 2176 L1757 1994 Z"/><path class="fv4" d="M1757 1980 L1939 2162 L1939 2176 L1757 1994 Z" /></g><g class="o"><path transform="translate(9,18)" class="S sf" d="M1670 1279 L1912 1521 L1912 1547 L1670 1305 Z"/><path class="f2" d="M1670 1279 L1912 1521 L1912 1547 L1670 1305 Z" /></g><g class="o"><path transform="translate(8,16)" class="S sfh" d="M1850 1116 L1355 621 L1369 621 L1864 1116 Z"/><path class="fh3" d="M1850 1116 L1355 621 L1369 621 L1864 1116 Z" /></g><g class="o"><path transform="translate(9,18)" class="S sfh" d="M1046 1708 L1138 1800 L1160 1800 L1068 1708 Z"/><path class="fh5" d="M1046 1708 L1138 1800 L1160 1800 L1068 1708 Z" /></g><g class="o"><path transform="translate(5,10)" class="S sfh" d="M1323 1114 L1821 1612 L1843 1612 L1345 1114 Z"/><path class="fh6" d="M1323 1114 L1821 1612 L1843 1612 L1345 1114 Z" /></g><g class="o"><path transform="translate(7,14)" class="S sfh" d="M1891 1342 L2004 1229 L2040 1229 L1927 1342 Z"/><path class="fh6" d="M1891 1342 L2004 1229 L2040 1229 L1927 1342 Z" /></g><g class="o"><path transform="translate(2,4)" class="S sf" d="M1830 1819 L2072 2061 L2072 2089 L1830 1847 Z"/><path class="f6" d="M1830 1819 L2072 2061 L2072 2089 L1830 1847 Z" /></g><g class="o"><path transform="translate(4,8)" class="S sfv" d="M1400 1336 L1464 1272 L1464 1296 L1400 1360 Z"/><path class="fv1" d="M1400 1336 L1464 1272 L1464 1296 L1400 1360 Z" /></g><g class="o"><path transform="translate(7,14)" class="S ssv" d="M1028 1554 L461 2121 L461 2131 L1028 1564 Z"/><path class="sv2" d="M1028 1554 L461 2121 L461 2131 L1028 1564 Z" /></g><g class="o"><path transform="translate(6,12)" class="S ss" d="M1832 1757 L2072 1997 L2080 1997 L1840 1757 Z"/><path class="s6" d="M1832 1757 L2072 1997 L2080 1997 L1840 1757 Z" /></g><g class="o"><path transform="translate(2,4)" class="S sfv" d="M1922 1761 L2303 2142 L2303 2294 L1922 1913 Z"/><path class="fv3" d="M1922 1761 L2303 2142 L2303 2294 L1922 1913 Z" /></g><g class="o"><path transform="translate(8,16)" class="S sfh" d="M1782 1004 L1909 1131 L1943 1131 L1816 1004 Z"/><path class="fh3" d="M1782 1004 L1909 1131 L1943 1131 L1816 1004 Z" /></g><g class="o"><path transform="translate(2,4)" class="S sf" d="M1341 974 L1443 1076 L1457 1076 L1355 974 Z"/><path class="f4" d="M1341 974 L1443 1076 L1457 1076 L1355 974 Z" /></g><g class="o"><path transform="translate(2,4)" class="S sfh" d="M1639 1699 L1745 1805 L1753 1805 L1647 1699 Z"/><path class="fh1" d="M1639 1699 L1745 1805 L1753 1805 L1647 1699 Z" /></g><g class="o"><path transform="translate(3,6)" class="S sfv" d="M1413 1101 L1752 762 L1752 776 L1413 1115 Z"/><path class="fv1" d="M1413 1101 L1752 762 L1752 776 L1413 1115 Z" /></g><g class="o"><path transform="translate(9,18)" class="S ssh" d="M1375 1988 L1544 2157 L1554 2157 L1385 1988 Z"/><path class="sh4" d="M1375 1988 L1544 2157 L1554 2157 L1385 1988 Z" /></g><g class="o"><path transform="translate(8,16)" class="S sfv" d="M1887 1094 L1969 1176 L1969 1202 L1887 1120 Z"/><path class="fv1" d="M1887 1094 L1969 1176 L1969 1202 L1887 1120 Z" /></g><g class="o"><path transform="translate(7,14)" class="S sfh" d="M1494 1997 L1737 1754 L1771 1754 L1528 1997 Z"/><path class="fh2" d="M1494 1997 L1737 1754 L1771 1754 L1528 1997 Z" /></g><g class="o"><path transform="translate(9,18)" class="S sf" d="M1479 1297 L1531 1349 L1567 1349 L1515 1297 Z"/><path class="f3" d="M1479 1297 L1531 1349 L1567 1349 L1515 1297 Z" /></g><g class="o"><path transform="translate(7,14)" class="S sfv" d="M2017 1899 L2155 2037 L2155 2073 L2017 1935 Z"/><path class="fv2" d="M2017 1899 L2155 2037 L2155 2073 L2017 1935 Z" /></g><g class="o"><path transform="translate(7,14)" class="S sf" d="M1143 1908 L1302 2067 L1312 2067 L1153 1908 Z"/><path class="f1" d="M1143 1908 L1302 2067 L1312 2067 L1153 1908 Z" /></g><g class="o"><path transform="translate(4,8)" class="S sfh" d="M1465 1357 L1676 1568 L1708 1568 L1497 1357 Z"/><path class="fh1" d="M1465 1357 L1676 1568 L1708 1568 L1497 1357 Z" /></g><g class="o"><path transform="translate(3,6)" class="S ssv" d="M1460 1352 L1523 1289 L1523 1323 L1460 1386 Z"/><path class="sv6" d="M1460 1352 L1523 1289 L1523 1323 L1460 1386 Z" /></g><g class="o"><path transform="translate(5,10)" class="S sf" d="M1705 1319 L1000 2024 L1026 2024 L1731 1319 Z"/><path class="f5" d="M1705 1319 L1000 2024 L1026 2024 L1731 1319 Z" /></g><g class="o"><path transform="translate(2,4)" class="S sfh" d="M1218 1733 L1287 1664 L1323 1664 L1254 1733 Z"/><path class="fh4" d="M1218 1733 L1287 1664 L1323 1664 L1254 1733 Z" /></g><g class="o"><path transform="translate(8,16)" class="S sf" d="M1842 1356 L2077 1591 L2101 1591 L1866 1356 Z"/><path class="f5" d="M1842 1356 L2077 1591 L2101 1591 L1866 1356 Z" /></g><g class="o"><path transform="translate(5,10)" class="S ssv" d="M1245 1051 L1464 1270 L1464 1294 L1245 1075 Z"/><path class="sv5" d="M1245 1051 L1464 1270 L1464 1294 L1245 1075 Z" /></g><g class="o"><path transform="translate(7,14)" class="S sfv" d="M1986 1823 L1864 1701 L1864 1713 L1986 1835 Z"/><path class="fv1" d="M1986 1823 L1864 1701 L1864 1713 L1986 1835 Z" /></g><g class="o"><path transform="translate(2,4)" class="S sfh" d="M1691 2031 L1767 2107 L1789 2107 L1713 2031 Z"/><path class="fh4" d="M1691 2031 L1767 2107 L1789 2107 L1713 2031 Z" /></g><g class="o"><path transform="translate(8,16)" class="S sfh" d="M1438 2045 L1498 2105 L1530 2105 L1470 2045 Z"/><path class="fh7" d="M1438 2045 L1498 2105 L1530 2105 L1470 2045 Z" /></g><g class="o"><path transform="translate(4,8)" class="S ssv" d="M1050 1242 L975 1317 L975 1331 L1050 1256 Z"/><path class="sv4" d="M1050 1242 L975 1317 L975 1331 L1050 1256 Z" /></g><g class="o"><path transform="translate(3,6)" class="S sfh" d="M1509 1485 L1621 1373 L1641 1373 L1529 1485 Z"/><path class="fh2" d="M1509 1485 L1621 1373 L1641 1373 L1529 1485 Z" /></g><g class="o"><path transform="translate(2,4)" class="S sf" d="M1803 1868 L1915 1980 L1915 2124 L1803 2012 Z"/><path class="f6" d="M1803 1868 L1915 1980 L1915 2124 L1803 2012 Z" /></g><g class="o"><path transform="translate(5,10)" class="S sfh" d="M1430 1746 L1913 1263 L1937 1263 L1454 1746 Z"/><path class="fh6" d="M1430 1746 L1913 1263 L1937 1263 L1454 1746 Z" /></g><g class="o"><path transform="translate(7,14)" class="S sfv" d="M1520 1688 L1154 2054 L1154 2086 L1520 1720 Z"/><path class="fv4" d="M1520 1688 L1154 2054 L1154 2086 L1520 1720 Z" /></g><g class="o"><path transform="translate(6,12)" class="S sfv" d="M1312 1883 L1729 2300 L1729 2310 L1312 1893 Z"/><path class="fv4" d="M1312 1883 L1729 2300 L1729 2310 L1312 1893 Z" /></g><g class="o"><path transform="translate(9,18)" class="S sf" d="M1018 1287 L1162 1143 L1162 1175 L1018 1319 Z"/><path class="f1" d="M1018 1287 L1162 1143 L1162 1175 L1018 1319 Z" /></g><g class="o"><path transform="translate(2,4)" class="S sf" d="M1347 1125 L1399 1177 L1431 1177 L1379 1125 Z"/><path class="f4" d="M1347 1125 L1399 1177 L1431 1177 L1379 1125 Z" /></g><g class="o"><path transform="translate(7,14)" class="S sfh" d="M1051 1801 L1190 1940 L1200 1940 L1061 1801 Z"/><path class="fh6" d="M1051 1801 L1190 1940 L1200 1940 L1061 1801 Z" /></g><g class="o"><path transform="translate(8,16)" class="S sfh" d="M1649 1133 L1763 1247 L1803 1247 L1689 1133 Z"/><path class="fh7" d="M1649 1133 L1763 1247 L1803 1247 L1689 1133 Z" /></g><g class="o"><path transform="translate(4,8)" class="S sf" d="M1367 1504 L1604 1267 L1622 1267 L1385 1504 Z"/><path class="f2" d="M1367 1504 L1604 1267 L1622 1267 L1385 1504 Z" /></g><g class="o"><path transform="translate(5,10)" class="S sf" d="M1463 1729 L1661 1927 L1681 1927 L1483 1729 Z"/><path class="f5" d="M1463 1729 L1661 1927 L1681 1927 L1483 1729 Z" /></g><g class="o"><path transform="translate(9,18)" class="S sf" d="M1686 1945 L1868 2127 L1868 2137 L1686 1955 Z"/><path class="f1" d="M1686 1945 L1868 2127 L1868 2137 L1686 1955 Z" /></g><g class="o"><path transform="translate(5,10)" class="S sfv" d="M1982 1503 L1864 1621 L1864 1645 L1982 1527 Z"/><path class="fv3" d="M1982 1503 L1864 1621 L1864 1645 L1982 1527 Z" /></g><g class="o"><path transform="translate(9,18)" class="S sfh" d="M1581 1691 L1473 1799 L1617 1799 L1725 1691 Z"/><path class="fh4" d="M1581 1691 L1473 1799 L1617 1799 L1725 1691 Z" /></g><g class="o"><path transform="translate(2,4)" class="S sfv" d="M1701 1909 L1634 1976 L1634 1988 L1701 1921 Z"/><path class="fv5" d="M1701 1909 L1634 1976 L1634 1988 L1701 1921 Z" /></g><g class="o"><path transform="translate(5,10)" class="S sfv" d="M1141 1158 L1347 1364 L1347 1398 L1141 1192 Z"/><path class="fv7" d="M1141 1158 L1347 1364 L1347 1398 L1141 1192 Z" /></g><g class="o"><path transform="translate(2,4)" class="S ssv" d="M1782 1608 L1673 1717 L1673 1725 L1782 1616 Z"/><path class="sv2" d="M1782 1608 L1673 1717 L1673 1725 L1782 1616 Z" /></g><g class="o"><path transform="translate(3,6)" class="S sfv" d="M1459 1707 L1664 1912 L1664 1926 L1459 1721 Z"/><path class="fv7" d="M1459 1707 L1664 1912 L1664 1926 L1459 1721 Z" /></g><g class="o"><path transform="translate(6,12)" class="S ssh" d="M1275 1479 L1448 1652 L1474 1652 L1301 1479 Z"/><path class="sh3" d="M1275 1479 L1448 1652 L1474 1652 L1301 1479 Z" /></g><g class="o"><path transform="translate(9,18)" class="S ssh" d="M1253 1107 L1436 1290 L1470 1290 L1287 1107 Z"/><path class="sh3" d="M1253 1107 L1436 1290 L1470 1290 L1287 1107 Z" /></g><g class="o"><path transform="translate(4,8)" class="S sfv" d="M986 1374 L1077 1465 L1077 1529 L986 1438 Z"/><path class="fv5" d="M986 1374 L1077 1465 L1077 1529 L986 1438 Z" /></g><g class="o"><path transform="translate(7,14)" class="S ssh" d="M1480 1087 L1810 1417 L1822 1417 L1492 1087 Z"/><path class="sh3" d="M1480 1087 L1810 1417 L1822 1417 L1492 1087 Z" /></g><g class="o"><path transform="translate(8,16)" class="S sfv" d="M1434 1827 L1567 1960 L1567 1986 L1434 1853 Z"/><path class="fv6" d="M1434 1827 L1567 1960 L1567 1986 L1434 1853 Z" /></g><g class="o"><path transform="translate(5,10)" class="S ssh" d="M1046 1660 L1134 1572 L1142 1572 L1054 1660 Z"/><path class="sh2" d="M1046 1660 L1134 1572 L1142 1572 L1054 1660 Z" /></g><g class="o"><path transform="translate(5,10)" class="S sfv" d="M986 1485 L1472 999 L1472 1017 L986 1503 Z"/><path class="fv3" d="M986 1485 L1472 999 L1472 1017 L986 1503 Z" /></g><g class="o"><path transform="translate(8,16)" class="S sfh" d="M1236 1508 L1746 2018 L1754 2018 L1244 1508 Z"/><path class="fh1" d="M1236 1508 L1746 2018 L1754 2018 L1244 1508 Z" /></g><g class="o"><path transform="translate(4,8)" class="S sfv" d="M1134 1041 L1307 1214 L1307 1358 L1134 1185 Z"/><path class="fv7" d="M1134 1041 L1307 1214 L1307 1358 L1134 1185 Z" /></g><g class="o"><path transform="translate(9,18)" class="S sf" d="M1243 1278 L1362 1159 L1362 1175 L1243 1294 Z"/><path class="f1" d="M1243 1278 L1362 1159 L1362 1175 L1243 1294 Z" /></g><g class="o"><path transform="translate(5,10)" class="S sfv" d="M1453 951 L1333 831 L1333 849 L1453 969 Z"/><path class="fv2" d="M1453 951 L1333 831 L1333 849 L1453 969 Z" /></g><g class="o"><path transform="translate(9,18)" class="S sfh" d="M1116 1457 L1340 1681 L1350 1681 L1126 1457 Z"/><path class="fh7" d="M1116 1457 L1340 1681 L1350 1681 L1126 1457 Z" /></g><g class="o"><path transform="translate(3,6)" class="S sfh" d="M1173 1206 L1312 1345 L1330 1345 L1191 1206 Z"/><path class="fh1" d="M1173 1206 L1312 1345 L1330 1345 L1191 1206 Z" /></g><g class="o"><path transform="translate(3,6)" class="S ssh" d="M1166 970 L1390 1194 L1416 1194 L1192 970 Z"/><path class="sh6" d="M1166 970 L1390 1194 L1416 1194 L1192 970 Z" /></g><g class="o"><path transform="translate(8,16)" class="S sfv" d="M1930 1879 L2329 2278 L2329 2302 L1930 1903 Z"/><path class="fv1" d="M1930 1879 L2329 2278 L2329 2302 L1930 1903 Z" /></g><g class="o"><path transform="translate(3,6)" class="S sfh" d="M1406 1459 L1607 1660 L1645 1660 L1444 1459 Z"/><path class="fh2" d="M1406 1459 L1607 1660 L1645 1660 L1444 1459 Z" /></g><g class="o"><path transform="translate(6,12)" class="S ssv" d="M1711 1462 L1933 1684 L1933 1708 L1711 1486 Z"/><path class="sv2" d="M1711 1462 L1933 1684 L1933 1708 L1711 1486 Z" /></g><g class="o"><path transform="translate(2,4)" class="S sfv" d="M1412 1502 L1183 1731 L1183 1745 L1412 1516 Z"/><path class="fv4" d="M1412 1502 L1183 1731 L1183 1745 L1412 1516 Z" /></g><g class="o"><path transform="translate(6,12)" class="S sfv" d="M979 1026 L1181 1228 L1181 1256 L979 1054 Z"/><path class="fv6" d="M979 1026 L1181 1228 L1181 1256 L979 1054 Z" /></g></g><use href="#slashes" transform-origin="1500 1500" transform="rotate(180) scale(2)"/></g><rect x="1080" y="1080" width="840" height="840" stroke-width="40" class="o ss" /><use href="#slashes" transform-origin="1500 1500" transform="scale(.6)"/><use href="#slashes" transform-origin="1500 1500" transform="rotate(180) scale(.6)"/></svg>