<svg xmlns="http://www.w3.org/2000/svg" viewBox="750 750 1500 1500"><style>/*<![CDATA[*/svg{background:rgb(27,152,224);max-width:100vw;max-height:100vh}path{stroke-width:4}.o{opacity:.75}.S{opacity:.4}.sf{stroke:none;fill:black}.sfh{stroke:none;fill:url(#hs)}.sfv{stroke:none;fill:url(#vs)}.ss{stroke:black;fill:none}.ssh{stroke:url(#hs);fill:none}.ssv{stroke:url(#vs);fill:none}.s1{fill:none;stroke:rgb(34,34,34)}.f1{stroke:none;fill:rgb(34,34,34)}.sh1{fill:none;stroke:url(#h1)}.fh1{stroke:none;fill:url(#h1)}.sv1{fill:none;stroke:url(#v1)}.fv1{stroke:none;fill:url(#v1)}.s2{fill:none;stroke:rgb(232,241,242)}.f2{stroke:none;fill:rgb(232,241,242)}.sh2{fill:none;stroke:url(#h2)}.fh2{stroke:none;fill:url(#h2)}.sv2{fill:none;stroke:url(#v2)}.fv2{stroke:none;fill:url(#v2)}.s3{fill:none;stroke:rgb(0,100,148)}.f3{stroke:none;fill:rgb(0,100,148)}.sh3{fill:none;stroke:url(#h3)}.fh3{stroke:none;fill:url(#h3)}.sv3{fill:none;stroke:url(#v3)}.fv3{stroke:none;fill:url(#v3)}.s4{fill:none;stroke:rgb(19,41,61)}.f4{stroke:none;fill:rgb(19,41,61)}.sh4{fill:none;stroke:url(#h4)}.fh4{stroke:none;fill:url(#h4)}.sv4{fill:none;stroke:url(#v4)}.fv4{stroke:none;fill:url(#v4)}.s5{fill:none;stroke:rgb(36,123,160)}.f5{stroke:none;fill:rgb(36,123,160)}.sh5{fill:none;stroke:url(#h5)}.fh5{stroke:none;fill:url(#h5)}.sv5{fill:none;stroke:url(#v5)}.fv5{stroke:none;fill:url(#v5)}.s6{fill:none;stroke:rgb(255,255,255)}.f6{stroke:none;fill:rgb(255,255,255)}.sh6{fill:none;stroke:url(#h6)}.fh6{stroke:none;fill:url(#h6)}.sv6{fill:none;stroke:url(#v6)}.fv6{stroke:none;fill:url(#v6)}.s7{fill:none;stroke:rgb(255,0,0)}.f7{stroke:none;fill:rgb(255,0,0)}.sh7{fill:none;stroke:url(#h7)}.fh7{stroke:none;fill:url(#h7)}.sv7{fill:none;stroke:url(#v7)}.fv7{stroke:none;fill:url(#v7)}/*]]>*/</style><defs><linearGradient gradientTransform="rotate(90)" id="hs"><stop offset="20%" stop-color="#000" /><stop offset="95%" stop-color="rgba(0, 0, 0, 0)" /></linearGradient><linearGradient id="vs"><stop offset="20%" stop-color="#000" /><stop offset="95%" stop-color="rgba(0, 0, 0, 0)" /></linearGradient><linearGradient gradientTransform="rotate(90)" id="h1"><stop offset="20%" stop-color="rgba(34,34,34,1)" /><stop offset="95%" stop-color="rgba(34,34,34,0)" /></linearGradient><linearGradient id="v1"><stop offset="20%" stop-color="rgba(34,34,34,1)" /><stop offset="95%" stop-color="rgba(34,34,34,0)" /></linearGradient><linearGradient gradientTransform="rotate(90)" id="h2"><stop offset="20%" stop-color="rgba(232,241,242,1)" /><stop offset="95%" stop-color="rgba(232,241,242,0)" /></linearGradient><linearGradient id="v2"><stop offset="20%" stop-color="rgba(232,241,242,1)" /><stop offset="95%" stop-color="rgba(232,241,242,0)" /></linearGradient><linearGradient gradientTransform="rotate(90)" id="h3"><stop offset="20%" stop-color="rgba(0,100,148,1)" /><stop offset="95%" stop-color="rgba(0,100,148,0)" /></linearGradient><linearGradient id="v3"><stop offset="20%" stop-color="rgba(0,100,148,1)" /><stop offset="95%" stop-color="rgba(0,100,148,0)" /></linearGradient><linearGradient gradientTransform="rotate(90)" id="h4"><stop offset="20%" stop-color="rgba(19,41,61,1)" /><stop offset="95%" stop-color="rgba(19,41,61,0)" /></linearGradient><linearGradient id="v4"><stop offset="20%" stop-color="rgba(19,41,61,1)" /><stop offset="95%" stop-color="rgba(19,41,61,0)" /></linearGradient><linearGradient gradientTransform="rotate(90)" id="h5"><stop offset="20%" stop-color="rgba(36,123,160,1)" /><stop offset="95%" stop-color="rgba(36,123,160,0)" /></linearGradient><linearGradient id="v5"><stop offset="20%" stop-color="rgba(36,123,160,1)" /><stop offset="95%" stop-color="rgba(36,123,160,0)" /></linearGradient><linearGradient gradientTransform="rotate(90)" id="h6"><stop offset="20%" stop-color="rgba(255,255,255,1)" /><stop offset="95%" stop-color="rgba(255,255,255,0)" /></linearGradient><linearGradient id="v6"><stop offset="20%" stop-color="rgba(255,255,255,1)" /><stop offset="95%" stop-color="rgba(255,255,255,0)" /></linearGradient><linearGradient gradientTransform="rotate(90)" id="h7"><stop offset="20%" stop-color="rgba(255,0,0,1)" /><stop offset="95%" stop-color="rgba(255,0,0,0)" /></linearGradient><linearGradient id="v7"><stop offset="20%" stop-color="rgba(255,0,0,1)" /><stop offset="95%" stop-color="rgba(255,0,0,0)" /></linearGradient></defs><g transform-origin="1500 1500" transform="scale(2)" opacity=".2"><g id="slashes"><g class="o"><path transform="translate(9,18)" class="S ssh" d="M1568 1588 L1736 1756 L1772 1756 L1604 1588 Z"/><path class="sh2" d="M1568 1588 L1736 1756 L1772 1756 L1604 1588 Z" /></g><g class="o"><path transform="translate(7,14)" class="S sfv" d="M1337 1381 L1546 1172 L1546 1192 L1337 1401 Z"/><path class="fv4" d="M1337 1381 L1546 1172 L1546 1192 L1337 1401 Z" /></g><g class="o"><path transform="translate(5,10)" class="S sf" d="M1000 1328 L1050 1378 L1082 1378 L1032 1328 Z"/><path class="f7" d="M1000 1328 L1050 1378 L1082 1378 L1032 1328 Z" /></g><g class="o"><path transform="translate(2,4)" class="S sfv" d="M1332 1233 L2064 1965 L2064 1993 L1332 1261 Z"/><path class="fv6" d="M1332 1233 L2064 1965 L2064 1993 L1332 1261 Z" /></g><g class="o"><path transform="translate(4,8)" class="S ss" d="M1524 1421 L1695 1592 L1703 1592 L1532 1421 Z"/><path class="s5" d="M1524 1421 L1695 1592 L1703 1592 L1532 1421 Z" /></g><g class="o"><path transform="translate(6,12)" class="S sfv" d="M1731 1616 L1992 1877 L1992 1899 L1731 1638 Z"/><path class="fv2" d="M1731 1616 L1992 1877 L1992 1899 L1731 1638 Z" /></g><g class="o"><path transform="translate(3,6)" class="S sfv" d="M1136 1844 L470 2510 L470 2536 L1136 1870 Z"/><path class="fv1" d="M1136 1844 L470 2510 L470 2536 L1136 1870 Z" /></g><g class="o"><path transform="translate(6,12)" class="S sfv" d="M2045 1177 L1592 1630 L1592 1660 L2045 1207 Z"/><path class="fv3" d="M2045 1177 L1592 1630 L1592 1660 L2045 1207 Z" /></g><g class="o"><path transform="translate(6,12)" class="S sfv" d="M1613 1977 L2051 2415 L2051 2429 L1613 1991 Z"/><path class="fv6" d="M1613 1977 L2051 2415 L2051 2429 L1613 1991 Z" /></g><g class="o"><path transform="translate(6,12)" class="S sfh" d="M1456 1362 L1343 1475 L1355 1475 L1468 1362 Z"/><path class="fh4" d="M1456 1362 L1343 1475 L1355 1475 L1468 1362 Z" /></g><g class="o"><path transform="translate(9,18)" class="S sfv" d="M1498 1929 L1305 2122 L1305 2158 L1498 1965 Z"/><path class="fv2" d="M1498 1929 L1305 2122 L1305 2158 L1498 1965 Z" /></g><g class="o"><path transform="translate(9,18)" class="S sfv" d="M1106 1462 L1271 1627 L1271 1651 L1106 1486 Z"/><path class="fv5" d="M1106 1462 L1271 1627 L1271 1651 L1106 1486 Z" /></g><g class="o"><path transform="translate(7,14)" class="S sf" d="M1248 1433 L696 1985 L696 2003 L1248 1451 Z"/><path class="f4" d="M1248 1433 L696 1985 L696 2003 L1248 1451 Z" /></g><g class="o"><path transform="translate(4,8)" class="S sfh" d="M1191 1545 L1020 1716 L1048 1716 L1219 1545 Z"/><path class="fh2" d="M1191 1545 L1020 1716 L1048 1716 L1219 1545 Z" /></g><g class="o"><path transform="translate(8,16)" class="S sfh" d="M1464 1059 L912 1611 L930 1611 L1482 1059 Z"/><path class="fh3" d="M1464 1059 L912 1611 L930 1611 L1482 1059 Z" /></g><g class="o"><path transform="translate(9,18)" class="S sfh" d="M1456 1921 L751 2626 L777 2626 L1482 1921 Z"/><path class="fh1" d="M1456 1921 L751 2626 L777 2626 L1482 1921 Z" /></g><g class="o"><path transform="translate(7,14)" class="S sfv" d="M1978 1559 L2132 1713 L2132 1727 L1978 1573 Z"/><path class="fv7" d="M1978 1559 L2132 1713 L2132 1727 L1978 1573 Z" /></g><g class="o"><path transform="translate(6,12)" class="S sf" d="M1158 1238 L1716 1796 L1736 1796 L1178 1238 Z"/><path class="f3" d="M1158 1238 L1716 1796 L1736 1796 L1178 1238 Z" /></g><g class="o"><path transform="translate(6,12)" class="S sf" d="M1175 1379 L992 1562 L992 1570 L1175 1387 Z"/><path class="f2" d="M1175 1379 L992 1562 L992 1570 L1175 1387 Z" /></g><g class="o"><path transform="translate(4,8)" class="S sfh" d="M1989 1547 L2194 1342 L2202 1342 L1997 1547 Z"/><path class="fh5" d="M1989 1547 L2194 1342 L2202 1342 L1997 1547 Z" /></g><g class="o"><path transform="translate(7,14)" class="S ssh" d="M1501 1119 L1159 1461 L1179 1461 L1521 1119 Z"/><path class="sh2" d="M1501 1119 L1159 1461 L1179 1461 L1521 1119 Z" /></g><g class="o"><path transform="translate(9,18)" class="S sfh" d="M1611 1601 L1691 1681 L1725 1681 L1645 1601 Z"/><path class="fh7" d="M1611 1601 L1691 1681 L1725 1681 L1645 1601 Z" /></g><g class="o"><path transform="translate(9,18)" class="S sfh" d="M1741 1876 L1231 2386 L1239 2386 L1749 1876 Z"/><path class="fh6" d="M1741 1876 L1231 2386 L1239 2386 L1749 1876 Z" /></g><g class="o"><path transform="translate(6,12)" class="S sfv" d="M1791 1219 L1990 1020 L1990 1046 L1791 1245 Z"/><path class="fv6" d="M1791 1219 L1990 1020 L1990 1046 L1791 1245 Z" /></g><g class="o"><path transform="translate(4,8)" class="S sfh" d="M1558 1266 L877 1947 L885 1947 L1566 1266 Z"/><path class="fh4" d="M1558 1266 L877 1947 L885 1947 L1566 1266 Z" /></g><g class="o"><path transform="translate(6,12)" class="S sfh" d="M1288 1762 L1080 1970 L1092 1970 L1300 1762 Z"/><path class="fh2" d="M1288 1762 L1080 1970 L1092 1970 L1300 1762 Z" /></g><g class="o"><path transform="translate(5,10)" class="S sfh" d="M1148 1911 L926 2133 L960 2133 L1182 1911 Z"/><path class="fh4" d="M1148 1911 L926 2133 L960 2133 L1182 1911 Z" /></g><g class="o"><path transform="translate(5,10)" class="S sfh" d="M2030 1743 L2534 1239 L2556 1239 L2052 1743 Z"/><path class="fh4" d="M2030 1743 L2534 1239 L2556 1239 L2052 1743 Z" /></g><g class="o"><path transform="translate(7,14)" class="S sf" d="M1868 2013 L1698 2183 L1698 2205 L1868 2035 Z"/><path class="f6" d="M1868 2013 L1698 2183 L1698 2205 L1868 2035 Z" /></g><g class="o"><path transform="translate(5,10)" class="S sfv" d="M1582 1538 L1410 1710 L1410 1744 L1582 1572 Z"/><path class="fv3" d="M1582 1538 L1410 1710 L1410 1744 L1582 1572 Z" /></g><g class="o"><path transform="translate(2,4)" class="S ssh" d="M1438 1553 L1197 1794 L1215 1794 L1456 1553 Z"/><path class="sh3" d="M1438 1553 L1197 1794 L1215 1794 L1456 1553 Z" /></g><g class="o"><path transform="translate(7,14)" class="S sf" d="M1589 962 L1711 840 L1721 840 L1599 962 Z"/><path class="f5" d="M1589 962 L1711 840 L1721 840 L1599 962 Z" /></g><g class="o"><path transform="translate(7,14)" class="S ssh" d="M1553 1045 L2189 1681 L2215 1681 L1579 1045 Z"/><path class="sh1" d="M1553 1045 L2189 1681 L2215 1681 L1579 1045 Z" /></g><g class="o"><path transform="translate(3,6)" class="S sfh" d="M1376 1441 L1149 1214 L1157 1214 L1384 1441 Z"/><path class="fh1" d="M1376 1441 L1149 1214 L1157 1214 L1384 1441 Z" /></g><g class="o"><path transform="translate(6,12)" class="S sfh" d="M1352 1974 L1176 2150 L1202 2150 L1378 1974 Z"/><path class="fh4" d="M1352 1974 L1176 2150 L1202 2150 L1378 1974 Z" /></g><g class="o"><path transform="translate(6,12)" class="S sfh" d="M1867 1456 L2095 1228 L2133 1228 L1905 1456 Z"/><path class="fh5" d="M1867 1456 L2095 1228 L2133 1228 L1905 1456 Z" /></g><g class="o"><path transform="translate(7,14)" class="S sfh" d="M1080 1963 L1009 2034 L1027 2034 L1098 1963 Z"/><path class="fh7" d="M1080 1963 L1009 2034 L1027 2034 L1098 1963 Z" /></g><g class="o"><path transform="translate(4,8)" class="S sfv" d="M1207 1062 L1119 1150 L1119 1160 L1207 1072 Z"/><path class="fv7" d="M1207 1062 L1119 1150 L1119 1160 L1207 1072 Z" /></g><g class="o"><path transform="translate(4,8)" class="S sfv" d="M972 954 L799 1127 L799 1151 L972 978 Z"/><path class="fv3" d="M972 954 L799 1127 L799 1151 L972 978 Z" /></g><g class="o"><path transform="translate(2,4)" class="S sfh" d="M1627 2000 L1030 2597 L1044 2597 L1641 2000 Z"/><path class="fh2" d="M1627 2000 L1030 2597 L1044 2597 L1641 2000 Z" /></g><g class="o"><path transform="translate(6,12)" class="S ssh" d="M1392 1669 L2106 2383 L2114 2383 L1400 1669 Z"/><path class="sh4" d="M1392 1669 L2106 2383 L2114 2383 L1400 1669 Z" /></g><g class="o"><path transform="translate(5,10)" class="S sf" d="M1957 1576 L1811 1722 L1811 1736 L1957 1590 Z"/><path class="f2" d="M1957 1576 L1811 1722 L1811 1736 L1957 1590 Z" /></g><g class="o"><path transform="translate(6,12)" class="S sfh" d="M1623 1705 L1505 1823 L1523 1823 L1641 1705 Z"/><path class="fh7" d="M1623 1705 L1505 1823 L1523 1823 L1641 1705 Z" /></g><g class="o"><path transform="translate(9,18)" class="S sf" d="M2030 1507 L2729 808 L2729 830 L2030 1529 Z"/><path class="f2" d="M2030 1507 L2729 808 L2729 830 L2030 1529 Z" /></g><g class="o"><path transform="translate(3,6)" class="S sfv" d="M1835 1281 L2081 1035 L2081 1071 L1835 1317 Z"/><path class="fv4" d="M1835 1281 L2081 1035 L2081 1071 L1835 1317 Z" /></g><g class="o"><path transform="translate(6,12)" class="S ss" d="M1041 1317 L1611 1887 L1611 1897 L1041 1327 Z"/><path class="s1" d="M1041 1317 L1611 1887 L1611 1897 L1041 1327 Z" /></g><g class="o"><path transform="translate(9,18)" class="S ssh" d="M1001 1699 L856 1844 L864 1844 L1009 1699 Z"/><path class="sh6" d="M1001 1699 L856 1844 L864 1844 L1009 1699 Z" /></g><g class="o"><path transform="translate(6,12)" class="S ssv" d="M1111 1280 L469 638 L469 656 L1111 1298 Z"/><path class="sv7" d="M1111 1280 L469 638 L469 656 L1111 1298 Z" /></g><g class="o"><path transform="translate(8,16)" class="S ssh" d="M1894 1772 L2131 2009 L2167 2009 L1930 1772 Z"/><path class="sh7" d="M1894 1772 L2131 2009 L2167 2009 L1930 1772 Z" /></g><g class="o"><path transform="translate(4,8)" class="S sfv" d="M1239 1018 L1459 1238 L1459 1250 L1239 1030 Z"/><path class="fv7" d="M1239 1018 L1459 1238 L1459 1250 L1239 1030 Z" /></g><g class="o"><path transform="translate(4,8)" class="S ssv" d="M1588 1489 L2143 2044 L2143 2052 L1588 1497 Z"/><path class="sv6" d="M1588 1489 L2143 2044 L2143 2052 L1588 1497 Z" /></g><g class="o"><path transform="translate(9,18)" class="S ssh" d="M1675 1939 L2092 2356 L2116 2356 L1699 1939 Z"/><path class="sh3" d="M1675 1939 L2092 2356 L2116 2356 L1699 1939 Z" /></g><g class="o"><path transform="translate(9,18)" class="S sf" d="M1719 1075 L2352 1708 L2382 1708 L1749 1075 Z"/><path class="f7" d="M1719 1075 L2352 1708 L2382 1708 L1749 1075 Z" /></g><g class="o"><path transform="translate(7,14)" class="S sf" d="M1510 1422 L877 2055 L909 2055 L1542 1422 Z"/><path class="f2" d="M1510 1422 L877 2055 L909 2055 L1542 1422 Z" /></g><g class="o"><path transform="translate(6,12)" class="S sfh" d="M1649 1478 L1466 1661 L1478 1661 L1661 1478 Z"/><path class="fh2" d="M1649 1478 L1466 1661 L1478 1661 L1661 1478 Z" /></g><g class="o"><path transform="translate(5,10)" class="S sfv" d="M1352 1870 L1559 2077 L1559 2097 L1352 1890 Z"/><path class="fv3" d="M1352 1870 L1559 2077 L1559 2097 L1352 1890 Z" /></g><g class="o"><path transform="translate(7,14)" class="S sfv" d="M1494 1168 L1280 1382 L1280 1404 L1494 1190 Z"/><path class="fv3" d="M1494 1168 L1280 1382 L1280 1404 L1494 1190 Z" /></g><g class="o"><path transform="translate(6,12)" class="S sfv" d="M991 1326 L295 2022 L295 2050 L991 1354 Z"/><path class="fv3" d="M991 1326 L295 2022 L295 2050 L991 1354 Z" /></g><g class="o"><path transform="translate(9,18)" class="S sfh" d="M1465 1199 L1894 770 L1910 770 L1481 1199 Z"/><path class="fh4" d="M1465 1199 L1894 770 L1910 770 L1481 1199 Z" /></g><g class="o"><path transform="translate(6,12)" class="S ssh" d="M1449 1739 L1610 1900 L1620 1900 L1459 1739 Z"/><path class="sh5" d="M1449 1739 L1610 1900 L1620 1900 L1459 1739 Z" /></g><g class="o"><path transform="translate(5,10)" class="S sfv" d="M1762 1905 L1864 2007 L1864 2041 L1762 1939 Z"/><path class="fv6" d="M1762 1905 L1864 2007 L1864 2041 L1762 1939 Z" /></g><g class="o"><path transform="translate(5,10)" class="S sf" d="M1668 1971 L1377 2262 L1415 2262 L1706 1971 Z"/><path class="f3" d="M1668 1971 L1377 2262 L1415 2262 L1706 1971 Z" /></g><g class="o"><path transform="translate(9,18)" class="S ssh" d="M1291 1714 L1804 2227 L1830 2227 L1317 1714 Z"/><path class="sh5" d="M1291 1714 L1804 2227 L1830 2227 L1317 1714 Z" /></g><g class="o"><path transform="translate(4,8)" class="S sfh" d="M1359 1347 L1986 720 L2002 720 L1375 1347 Z"/><path class="fh3" d="M1359 1347 L1986 720 L2002 720 L1375 1347 Z" /></g><g class="o"><path transform="translate(5,10)" class="S sfv" d="M1004 1950 L861 2093 L861 2127 L1004 1984 Z"/><path class="fv1" d="M1004 1950 L861 2093 L861 2127 L1004 1984 Z" /></g><g class="o"><path transform="translate(3,6)" class="S sfh" d="M1301 1634 L1034 1901 L1046 1901 L1313 1634 Z"/><path class="fh7" d="M1301 1634 L1034 1901 L1046 1901 L1313 1634 Z" /></g><g class="o"><path transform="translate(6,12)" class="S sf" d="M1946 1619 L2184 1381 L2184 1415 L1946 1653 Z"/><path class="f2" d="M1946 1619 L2184 1381 L2184 1415 L1946 1653 Z" /></g><g class="o"><path transform="translate(5,10)" class="S sf" d="M1328 1842 L827 2343 L827 2377 L1328 1876 Z"/><path class="f5" d="M1328 1842 L827 2343 L827 2377 L1328 1876 Z" /></g><g class="o"><path transform="translate(5,10)" class="S sfh" d="M1912 1357 L1330 1939 L1364 1939 L1946 1357 Z"/><path class="fh6" d="M1912 1357 L1330 1939 L1364 1939 L1946 1357 Z" /></g><g class="o"><path transform="translate(8,16)" class="S ssh" d="M1196 1268 L1056 1128 L1094 1128 L1234 1268 Z"/><path class="sh2" d="M1196 1268 L1056 1128 L1094 1128 L1234 1268 Z" /></g><g class="o"><path transform="translate(4,8)" class="S ssv" d="M1066 1575 L1327 1836 L1327 1874 L1066 1613 Z"/><path class="sv1" d="M1066 1575 L1327 1836 L1327 1874 L1066 1613 Z" /></g><g class="o"><path transform="translate(3,6)" class="S sfv" d="M1820 1317 L1175 672 L1175 698 L1820 1343 Z"/><path class="fv1" d="M1820 1317 L1175 672 L1175 698 L1820 1343 Z" /></g><g class="o"><path transform="translate(7,14)" class="S sf" d="M1480 1486 L772 2194 L780 2194 L1488 1486 Z"/><path class="f2" d="M1480 1486 L772 2194 L780 2194 L1488 1486 Z" /></g><g class="o"><path transform="translate(8,16)" class="S sfv" d="M1923 1568 L1233 2258 L1233 2290 L1923 1600 Z"/><path class="fv7" d="M1923 1568 L1233 2258 L1233 2290 L1923 1600 Z" /></g><g class="o"><path transform="translate(3,6)" class="S sf" d="M955 1899 L1022 1966 L1056 1966 L989 1899 Z"/><path class="f5" d="M955 1899 L1022 1966 L1056 1966 L989 1899 Z" /></g><g class="o"><path transform="translate(3,6)" class="S sfh" d="M1058 1938 L1607 2487 L1629 2487 L1080 1938 Z"/><path class="fh1" d="M1058 1938 L1607 2487 L1629 2487 L1080 1938 Z" /></g><g class="o"><path transform="translate(5,10)" class="S sfh" d="M1485 1086 L1074 675 L1102 675 L1513 1086 Z"/><path class="fh2" d="M1485 1086 L1074 675 L1102 675 L1513 1086 Z" /></g><g class="o"><path transform="translate(8,16)" class="S sfh" d="M1411 1452 L1660 1701 L1668 1701 L1419 1452 Z"/><path class="fh7" d="M1411 1452 L1660 1701 L1668 1701 L1419 1452 Z" /></g><g class="o"><path transform="translate(4,8)" class="S sfv" d="M1869 1035 L1785 1119 L1785 1139 L1869 1055 Z"/><path class="fv4" d="M1869 1035 L1785 1119 L1785 1139 L1869 1055 Z" /></g><g class="o"><path transform="translate(9,18)" class="S sf" d="M1281 979 L1450 1148 L1450 1184 L1281 1015 Z"/><path class="f3" d="M1281 979 L1450 1148 L1450 1184 L1281 1015 Z" /></g><g class="o"><path transform="translate(7,14)" class="S sfv" d="M1327 945 L1575 1193 L1575 1203 L1327 955 Z"/><path class="fv7" d="M1327 945 L1575 1193 L1575 1203 L1327 955 Z" /></g><g class="o"><path transform="translate(4,8)" class="S sfh" d="M1524 1722 L1690 1888 L1718 1888 L1552 1722 Z"/><path class="fh6" d="M1524 1722 L1690 1888 L1718 1888 L1552 1722 Z" /></g><g class="o"><path transform="translate(9,18)" class="S sfv" d="M2045 1305 L2232 1492 L2232 1524 L2045 1337 Z"/><path class="fv3" d="M2045 1305 L2232 1492 L2232 1524 L2045 1337 Z" /></g><g class="o"><path transform="translate(4,8)" class="S sfh" d="M1144 1503 L487 2160 L525 2160 L1182 1503 Z"/><path class="fh6" d="M1144 1503 L487 2160 L525 2160 L1182 1503 Z" /></g><g class="o"><path transform="translate(6,12)" class="S sfh" d="M1476 1037 L1364 1149 L1386 1149 L1498 1037 Z"/><path class="fh4" d="M1476 1037 L1364 1149 L1386 1149 L1498 1037 Z" /></g><g class="o"><path transform="translate(6,12)" class="S sf" d="M1734 2007 L2103 2376 L2111 2376 L1742 2007 Z"/><path class="f2" d="M1734 2007 L2103 2376 L2111 2376 L1742 2007 Z" /></g><g class="o"><path transform="translate(8,16)" class="S sfh" d="M1990 1075 L2449 1534 L2481 1534 L2022 1075 Z"/><path class="fh1" d="M1990 1075 L2449 1534 L2481 1534 L2022 1075 Z" /></g><g class="o"><path transform="translate(3,6)" class="S sfh" d="M1952 2009 L1725 2236 L1743 2236 L1970 2009 Z"/><path class="fh3" d="M1952 2009 L1725 2236 L1743 2236 L1970 2009 Z" /></g><g class="o"><path transform="translate(4,8)" class="S sfv" d="M1663 1892 L1327 2228 L1327 2262 L1663 1926 Z"/><path class="fv4" d="M1663 1892 L1327 2228 L1327 2262 L1663 1926 Z" /></g><g class="o"><path transform="translate(8,16)" class="S sfh" d="M1880 1445 L2486 2051 L2522 2051 L1916 1445 Z"/><path class="fh7" d="M1880 1445 L2486 2051 L2522 2051 L1916 1445 Z" /></g><g class="o"><path transform="translate(2,4)" class="S sfv" d="M1405 1570 L1135 1300 L1135 1318 L1405 1588 Z"/><path class="fv5" d="M1405 1570 L1135 1300 L1135 1318 L1405 1588 Z" /></g><g class="o"><path transform="translate(7,14)" class="S sfv" d="M1809 1591 L1161 2239 L1161 2265 L1809 1617 Z"/><path class="fv1" d="M1809 1591 L1161 2239 L1161 2265 L1809 1617 Z" /></g><g class="o"><path transform="translate(4,8)" class="S sfv" d="M1485 1517 L1299 1703 L1299 1725 L1485 1539 Z"/><path class="fv6" d="M1485 1517 L1299 1703 L1299 1725 L1485 1539 Z" /></g><g class="o"><path transform="translate(5,10)" class="S sfh" d="M1735 1946 L1842 2053 L1858 2053 L1751 1946 Z"/><path class="fh2" d="M1735 1946 L1842 2053 L1858 2053 L1751 1946 Z" /></g><g class="o"><path transform="translate(9,18)" class="S sf" d="M1022 1522 L1754 790 L1792 790 L1060 1522 Z"/><path class="f4" d="M1022 1522 L1754 790 L1792 790 L1060 1522 Z" /></g><g class="o"><path transform="translate(7,14)" class="S sf" d="M2033 1652 L2249 1868 L2249 1888 L2033 1672 Z"/><path class="f6" d="M2033 1652 L2249 1868 L2249 1888 L2033 1672 Z" /></g><g class="o"><path transform="translate(6,12)" class="S sfv" d="M1694 1374 L2330 2010 L2330 2020 L1694 1384 Z"/><path class="fv7" d="M1694 1374 L2330 2010 L2330 2020 L1694 1384 Z" /></g><g class="o"><path transform="translate(2,4)" class="S sfv" d="M1033 1392 L1696 729 L1696 763 L1033 1426 Z"/><path class="fv5" d="M1033 1392 L1696 729 L1696 763 L1033 1426 Z" /></g><g class="o"><path transform="translate(6,12)" class="S ss" d="M1474 970 L1244 1200 L1268 1200 L1498 970 Z"/><path class="s4" d="M1474 970 L1244 1200 L1268 1200 L1498 970 Z" /></g><g class="o"><path transform="translate(3,6)" class="S sf" d="M1829 1255 L1935 1361 L1955 1361 L1849 1255 Z"/><path class="f2" d="M1829 1255 L1935 1361 L1955 1361 L1849 1255 Z" /></g><g class="o"><path transform="translate(3,6)" class="S sfh" d="M1369 1260 L1954 1845 L1968 1845 L1383 1260 Z"/><path class="fh5" d="M1369 1260 L1954 1845 L1968 1845 L1383 1260 Z" /></g><g class="o"><path transform="translate(8,16)" class="S sfv" d="M1681 1826 L1617 1890 L1617 1920 L1681 1856 Z"/><path class="fv1" d="M1681 1826 L1617 1890 L1617 1920 L1681 1856 Z" /></g><g class="o"><path transform="translate(7,14)" class="S sfh" d="M1021 1775 L457 2339 L493 2339 L1057 1775 Z"/><path class="fh4" d="M1021 1775 L457 2339 L493 2339 L1057 1775 Z" /></g><g class="o"><path transform="translate(2,4)" class="S sfh" d="M1248 1905 L1469 2126 L1489 2126 L1268 1905 Z"/><path class="fh5" d="M1248 1905 L1469 2126 L1489 2126 L1268 1905 Z" /></g><g class="o"><path transform="translate(3,6)" class="S sfh" d="M1582 1202 L1753 1373 L1765 1373 L1594 1202 Z"/><path class="fh6" d="M1582 1202 L1753 1373 L1765 1373 L1594 1202 Z" /></g><g class="o"><path transform="translate(5,10)" class="S sfh" d="M1217 965 L605 353 L629 353 L1241 965 Z"/><path class="fh2" d="M1217 965 L605 353 L629 353 L1241 965 Z" /></g><g class="o"><path transform="translate(4,8)" class="S sfv" d="M1825 1212 L2419 618 L2419 636 L1825 1230 Z"/><path class="fv7" d="M1825 1212 L2419 618 L2419 636 L1825 1230 Z" /></g><g class="o"><path transform="translate(7,14)" class="S sfv" d="M1652 1803 L1784 1671 L1784 1701 L1652 1833 Z"/><path class="fv4" d="M1652 1803 L1784 1671 L1784 1701 L1652 1833 Z" /></g><g class="o"><path transform="translate(5,10)" class="S sfh" d="M1364 1555 L1581 1338 L1617 1338 L1400 1555 Z"/><path class="fh2" d="M1364 1555 L1581 1338 L1617 1338 L1400 1555 Z" /></g><g class="o"><path transform="translate(8,16)" class="S sfh" d="M1989 1694 L1875 1580 L1895 1580 L2009 1694 Z"/><path class="fh1" d="M1989 1694 L1875 1580 L1895 1580 L2009 1694 Z" /></g><g class="o"><path transform="translate(7,14)" class="S sf" d="M1645 1060 L1565 1140 L1589 1140 L1669 1060 Z"/><path class="f1" d="M1645 1060 L1565 1140 L1589 1140 L1669 1060 Z" /></g><g class="o"><path transform="translate(4,8)" class="S sfv" d="M1331 1725 L1592 1986 L1592 2014 L1331 1753 Z"/><path class="fv7" d="M1331 1725 L1592 1986 L1592 2014 L1331 1753 Z" /></g><g class="o"><path transform="translate(7,14)" class="S sfh" d="M1867 1018 L1726 877 L1762 877 L1903 1018 Z"/><path class="fh3" d="M1867 1018 L1726 877 L1762 877 L1903 1018 Z" /></g><g class="o"><path transform="translate(9,18)" class="S sfv" d="M1577 1136 L1737 976 L1737 1012 L1577 1172 Z"/><path class="fv5" d="M1577 1136 L1737 976 L1737 1012 L1577 1172 Z" /></g><g class="o"><path transform="translate(6,12)" class="S sfv" d="M1452 1632 L1239 1845 L1239 1865 L1452 1652 Z"/><path class="fv3" d="M1452 1632 L1239 1845 L1239 1865 L1452 1652 Z" /></g><g class="o"><path transform="translate(2,4)" class="S sfv" d="M1913 1421 L1691 1643 L1691 1675 L1913 1453 Z"/><path class="fv2" d="M1913 1421 L1691 1643 L1691 1675 L1913 1453 Z" /></g><g class="o"><path transform="translate(9,18)" class="S sfh" d="M1843 1926 L1905 1988 L1915 1988 L1853 1926 Z"/><path class="fh1" d="M1843 1926 L1905 1988 L1915 1988 L1853 1926 Z" /></g><g class="o"><path transform="translate(9,18)" class="S ss" d="M1980 1321 L2127 1468 L2127 1496 L1980 1349 Z"/><path class="s4" d="M1980 1321 L2127 1468 L2127 1496 L1980 1349 Z" /></g><g class="o"><path transform="translate(3,6)" class="S sfh" d="M1693 1183 L1793 1283 L1801 1283 L1701 1183 Z"/><path class="fh3" d="M1693 1183 L1793 1283 L1801 1283 L1701 1183 Z" /></g><g class="o"><path transform="translate(3,6)" class="S sfv" d="M981 1612 L811 1782 L811 1812 L981 1642 Z"/><path class="fv5" d="M981 1612 L811 1782 L811 1812 L981 1642 Z" /></g><g class="o"><path transform="translate(8,16)" class="S sfh" d="M1764 1902 L1974 2112 L1988 2112 L1778 1902 Z"/><path class="fh6" d="M1764 1902 L1974 2112 L1988 2112 L1778 1902 Z" /></g><g class="o"><path transform="translate(8,16)" class="S sfh" d="M1682 985 L1367 1300 L1405 1300 L1720 985 Z"/><path class="fh1" d="M1682 985 L1367 1300 L1405 1300 L1720 985 Z" /></g><g class="o"><path transform="translate(4,8)" class="S ssh" d="M1445 1360 L1607 1522 L1641 1522 L1479 1360 Z"/><path class="sh1" d="M1445 1360 L1607 1522 L1641 1522 L1479 1360 Z" /></g><g class="o"><path transform="translate(6,12)" class="S sfv" d="M1383 1095 L1289 1001 L1289 1039 L1383 1133 Z"/><path class="fv2" d="M1383 1095 L1289 1001 L1289 1039 L1383 1133 Z" /></g><g class="o"><path transform="translate(2,4)" class="S sfv" d="M1091 1369 L1167 1445 L1167 1467 L1091 1391 Z"/><path class="fv3" d="M1091 1369 L1167 1445 L1167 1467 L1091 1391 Z" /></g><g class="o"><path transform="translate(7,14)" class="S sf" d="M1740 1278 L1833 1371 L1841 1371 L1748 1278 Z"/><path class="f4" d="M1740 1278 L1833 1371 L1841 1371 L1748 1278 Z" /></g><g class="o"><path transform="translate(6,12)" class="S ssh" d="M991 1212 L889 1314 L913 1314 L1015 1212 Z"/><path class="sh6" d="M991 1212 L889 1314 L913 1314 L1015 1212 Z" /></g><g class="o"><path transform="translate(7,14)" class="S sfv" d="M1652 987 L1454 1185 L1454 1199 L1652 1001 Z"/><path class="fv1" d="M1652 987 L1454 1185 L1454 1199 L1652 1001 Z" /></g><g class="o"><path transform="translate(3,6)" class="S sfh" d="M1812 1685 L2541 2414 L2563 2414 L1834 1685 Z"/><path class="fh4" d="M1812 1685 L2541 2414 L2563 2414 L1834 1685 Z" /></g><g class="o"><path transform="translate(4,8)" class="S ssv" d="M1610 1451 L917 758 L917 768 L1610 1461 Z"/><path class="sv1" d="M1610 1451 L917 758 L917 768 L1610 1461 Z" /></g><g class="o"><path transform="translate(6,12)" class="S sfv" d="M1791 1683 L1874 1600 L1874 1638 L1791 1721 Z"/><path class="fv2" d="M1791 1683 L1874 1600 L1874 1638 L1791 1721 Z" /></g><g class="o"><path transform="translate(5,10)" class="S sf" d="M1778 1812 L1988 1602 L1988 1622 L1778 1832 Z"/><path class="f4" d="M1778 1812 L1988 1602 L1988 1622 L1778 1832 Z" /></g><g class="o"><path transform="translate(8,16)" class="S sfv" d="M1385 1845 L1823 2283 L1823 2291 L1385 1853 Z"/><path class="fv4" d="M1385 1845 L1823 2283 L1823 2291 L1385 1853 Z" /></g><g class="o"><path transform="translate(7,14)" class="S sfv" d="M1138 1602 L808 1932 L808 1968 L1138 1638 Z"/><path class="fv3" d="M1138 1602 L808 1932 L808 1968 L1138 1638 Z" /></g><g class="o"><path transform="translate(5,10)" class="S sfh" d="M983 1220 L1145 1382 L1161 1382 L999 1220 Z"/><path class="fh4" d="M983 1220 L1145 1382 L1161 1382 L999 1220 Z" /></g><g class="o"><path transform="translate(5,10)" class="S sfh" d="M1523 1259 L1334 1448 L1346 1448 L1535 1259 Z"/><path class="fh2" d="M1523 1259 L1334 1448 L1346 1448 L1535 1259 Z" /></g><g class="o"><path transform="translate(2,4)" class="S ssh" d="M1027 1291 L706 1612 L744 1612 L1065 1291 Z"/><path class="sh3" d="M1027 1291 L706 1612 L744 1612 L1065 1291 Z" /></g><g class="o"><path transform="translate(7,14)" class="S sf" d="M1617 1181 L1344 1454 L1372 1454 L1645 1181 Z"/><path class="f1" d="M1617 1181 L1344 1454 L1372 1454 L1645 1181 Z" /></g><g class="o"><path transform="translate(6,12)" class="S sfh" d="M1745 2010 L2285 2550 L2307 2550 L1767 2010 Z"/><path class="fh4" d="M1745 2010 L2285 2550 L2307 2550 L1767 2010 Z" /></g><g class="o"><path transform="translate(3,6)" class="S ss" d="M1698 1166 L1622 1242 L1622 1258 L1698 1182 Z"/><path class="s6" d="M1698 1166 L1622 1242 L1622 1258 L1698 1182 Z" /></g></g><use href="#slashes" transform-origin="1500 1500" transform="rotate(180) scale(2)"/></g><rect x="1080" y="1080" width="840" height="840" stroke-width="10" class="o s1" /><use href="#slashes" transform-origin="1500 1500" transform="scale(.9)"/><use href="#slashes" transform-origin="1500 1500" transform="rotate(180) scale(.9)"/></svg>