<svg xmlns="http://www.w3.org/2000/svg" viewBox="750 750 1500 1500"><style>/*<![CDATA[*/svg{background:rgb(0,0,0);max-width:100vw;max-height:100vh}path{stroke-width:4}.o{opacity:.75}.S{opacity:.4}.sf{stroke:none;fill:black}.sfh{stroke:none;fill:url(#hs)}.sfv{stroke:none;fill:url(#vs)}.ss{stroke:black;fill:none}.ssh{stroke:url(#hs);fill:none}.ssv{stroke:url(#vs);fill:none}.s1{fill:none;stroke:rgb(229,229,229)}.f1{stroke:none;fill:rgb(229,229,229)}.sh1{fill:none;stroke:url(#h1)}.fh1{stroke:none;fill:url(#h1)}.sv1{fill:none;stroke:url(#v1)}.fv1{stroke:none;fill:url(#v1)}.s2{fill:none;stroke:rgb(34,34,34)}.f2{stroke:none;fill:rgb(34,34,34)}.sh2{fill:none;stroke:url(#h2)}.fh2{stroke:none;fill:url(#h2)}.sv2{fill:none;stroke:url(#v2)}.fv2{stroke:none;fill:url(#v2)}.s3{fill:none;stroke:rgb(252,163,17)}.f3{stroke:none;fill:rgb(252,163,17)}.sh3{fill:none;stroke:url(#h3)}.fh3{stroke:none;fill:url(#h3)}.sv3{fill:none;stroke:url(#v3)}.fv3{stroke:none;fill:url(#v3)}.s4{fill:none;stroke:rgb(255,255,255)}.f4{stroke:none;fill:rgb(255,255,255)}.sh4{fill:none;stroke:url(#h4)}.fh4{stroke:none;fill:url(#h4)}.sv4{fill:none;stroke:url(#v4)}.fv4{stroke:none;fill:url(#v4)}.s5{fill:none;stroke:rgb(20,33,61)}.f5{stroke:none;fill:rgb(20,33,61)}.sh5{fill:none;stroke:url(#h5)}.fh5{stroke:none;fill:url(#h5)}.sv5{fill:none;stroke:url(#v5)}.fv5{stroke:none;fill:url(#v5)}.s6{fill:none;stroke:rgb(255,255,255)}.f6{stroke:none;fill:rgb(255,255,255)}.sh6{fill:none;stroke:url(#h6)}.fh6{stroke:none;fill:url(#h6)}.sv6{fill:none;stroke:url(#v6)}.fv6{stroke:none;fill:url(#v6)}.s7{fill:none;stroke:rgb(255,0,0)}.f7{stroke:none;fill:rgb(255,0,0)}.sh7{fill:none;stroke:url(#h7)}.fh7{stroke:none;fill:url(#h7)}.sv7{fill:none;stroke:url(#v7)}.fv7{stroke:none;fill:url(#v7)}/*]]>*/</style><defs><linearGradient gradientTransform="rotate(90)" id="hs"><stop offset="20%" stop-color="#000" /><stop offset="95%" stop-color="rgba(0, 0, 0, 0)" /></linearGradient><linearGradient id="vs"><stop offset="20%" stop-color="#000" /><stop offset="95%" stop-color="rgba(0, 0, 0, 0)" /></linearGradient><linearGradient gradientTransform="rotate(90)" id="h1"><stop offset="20%" stop-color="rgba(229,229,229,1)" /><stop offset="95%" stop-color="rgba(229,229,229,0)" /></linearGradient><linearGradient id="v1"><stop offset="20%" stop-color="rgba(229,229,229,1)" /><stop offset="95%" stop-color="rgba(229,229,229,0)" /></linearGradient><linearGradient gradientTransform="rotate(90)" id="h2"><stop offset="20%" stop-color="rgba(34,34,34,1)" /><stop offset="95%" stop-color="rgba(34,34,34,0)" /></linearGradient><linearGradient id="v2"><stop offset="20%" stop-color="rgba(34,34,34,1)" /><stop offset="95%" stop-color="rgba(34,34,34,0)" /></linearGradient><linearGradient gradientTransform="rotate(90)" id="h3"><stop offset="20%" stop-color="rgba(252,163,17,1)" /><stop offset="95%" stop-color="rgba(252,163,17,0)" /></linearGradient><linearGradient id="v3"><stop offset="20%" stop-color="rgba(252,163,17,1)" /><stop offset="95%" stop-color="rgba(252,163,17,0)" /></linearGradient><linearGradient gradientTransform="rotate(90)" id="h4"><stop offset="20%" stop-color="rgba(255,255,255,1)" /><stop offset="95%" stop-color="rgba(255,255,255,0)" /></linearGradient><linearGradient id="v4"><stop offset="20%" stop-color="rgba(255,255,255,1)" /><stop offset="95%" stop-color="rgba(255,255,255,0)" /></linearGradient><linearGradient gradientTransform="rotate(90)" id="h5"><stop offset="20%" stop-color="rgba(20,33,61,1)" /><stop offset="95%" stop-color="rgba(20,33,61,0)" /></linearGradient><linearGradient id="v5"><stop offset="20%" stop-color="rgba(20,33,61,1)" /><stop offset="95%" stop-color="rgba(20,33,61,0)" /></linearGradient><linearGradient gradientTransform="rotate(90)" id="h6"><stop offset="20%" stop-color="rgba(255,255,255,1)" /><stop offset="95%" stop-color="rgba(255,255,255,0)" /></linearGradient><linearGradient id="v6"><stop offset="20%" stop-color="rgba(255,255,255,1)" /><stop offset="95%" stop-color="rgba(255,255,255,0)" /></linearGradient><linearGradient gradientTransform="rotate(90)" id="h7"><stop offset="20%" stop-color="rgba(255,0,0,1)" /><stop offset="95%" stop-color="rgba(255,0,0,0)" /></linearGradient><linearGradient id="v7"><stop offset="20%" stop-color="rgba(255,0,0,1)" /><stop offset="95%" stop-color="rgba(255,0,0,0)" /></linearGradient></defs><g transform-origin="1500 1500" transform="scale(2)" opacity=".2"><g id="slashes"><g class="o"><path transform="translate(3,6)" class="S sfv" d="M1577 1203 L1659 1285 L1659 1397 L1577 1315 Z"/><path class="fv7" d="M1577 1203 L1659 1285 L1659 1397 L1577 1315 Z" /></g><g class="o"><path transform="translate(8,16)" class="S sfv" d="M1314 1265 L1998 581 L1998 701 L1314 1385 Z"/><path class="fv4" d="M1314 1265 L1998 581 L1998 701 L1314 1385 Z" /></g><g class="o"><path transform="translate(8,16)" class="S ssh" d="M1922 951 L2099 1128 L2137 1128 L1960 951 Z"/><path class="sh4" d="M1922 951 L2099 1128 L2137 1128 L1960 951 Z" /></g><g class="o"><path transform="translate(6,12)" class="S sfv" d="M1221 1199 L1410 1388 L1410 1444 L1221 1255 Z"/><path class="fv6" d="M1221 1199 L1410 1388 L1410 1444 L1221 1255 Z" /></g><g class="o"><path transform="translate(9,18)" class="S sfv" d="M1387 1871 L2044 2528 L2044 2536 L1387 1879 Z"/><path class="fv4" d="M1387 1871 L2044 2528 L2044 2536 L1387 1879 Z" /></g><g class="o"><path transform="translate(5,10)" class="S sf" d="M963 1438 L1141 1260 L1141 1288 L963 1466 Z"/><path class="f7" d="M963 1438 L1141 1260 L1141 1288 L963 1466 Z" /></g><g class="o"><path transform="translate(6,12)" class="S sfv" d="M1897 989 L2350 1442 L2350 1594 L1897 1141 Z"/><path class="fv1" d="M1897 989 L2350 1442 L2350 1594 L1897 1141 Z" /></g><g class="o"><path transform="translate(7,14)" class="S sfv" d="M1521 1123 L1815 1417 L1815 1437 L1521 1143 Z"/><path class="fv1" d="M1521 1123 L1815 1417 L1815 1437 L1521 1143 Z" /></g><g class="o"><path transform="translate(3,6)" class="S sfh" d="M1167 1308 L1734 741 L1748 741 L1181 1308 Z"/><path class="fh4" d="M1167 1308 L1734 741 L1748 741 L1181 1308 Z" /></g><g class="o"><path transform="translate(2,4)" class="S sfv" d="M1682 1219 L1928 1465 L1928 1485 L1682 1239 Z"/><path class="fv3" d="M1682 1219 L1928 1465 L1928 1485 L1682 1239 Z" /></g><g class="o"><path transform="translate(6,12)" class="S sfh" d="M970 1511 L1050 1431 L1072 1431 L992 1511 Z"/><path class="fh3" d="M970 1511 L1050 1431 L1072 1431 L992 1511 Z" /></g><g class="o"><path transform="translate(8,16)" class="S sfh" d="M1621 1741 L2185 2305 L2213 2305 L1649 1741 Z"/><path class="fh5" d="M1621 1741 L2185 2305 L2213 2305 L1649 1741 Z" /></g><g class="o"><path transform="translate(4,8)" class="S sfv" d="M1539 1842 L1701 1680 L1701 1696 L1539 1858 Z"/><path class="fv2" d="M1539 1842 L1701 1680 L1701 1696 L1539 1858 Z" /></g><g class="o"><path transform="translate(2,4)" class="S ss" d="M1574 1139 L1786 927 L1800 927 L1588 1139 Z"/><path class="s4" d="M1574 1139 L1786 927 L1800 927 L1588 1139 Z" /></g><g class="o"><path transform="translate(6,12)" class="S ss" d="M1606 1551 L1789 1368 L1789 1384 L1606 1567 Z"/><path class="s7" d="M1606 1551 L1789 1368 L1789 1384 L1606 1567 Z" /></g><g class="o"><path transform="translate(3,6)" class="S sf" d="M1867 1953 L2048 1772 L2048 1860 L1867 2041 Z"/><path class="f1" d="M1867 1953 L2048 1772 L2048 1860 L1867 2041 Z" /></g><g class="o"><path transform="translate(6,12)" class="S ssh" d="M1221 1877 L1806 1292 L1870 1292 L1285 1877 Z"/><path class="sh7" d="M1221 1877 L1806 1292 L1870 1292 L1285 1877 Z" /></g><g class="o"><path transform="translate(7,14)" class="S ssv" d="M1606 1072 L2164 1630 L2164 1656 L1606 1098 Z"/><path class="sv2" d="M1606 1072 L2164 1630 L2164 1656 L1606 1098 Z" /></g><g class="o"><path transform="translate(6,12)" class="S sf" d="M1812 1059 L1938 933 L1964 933 L1838 1059 Z"/><path class="f1" d="M1812 1059 L1938 933 L1964 933 L1838 1059 Z" /></g><g class="o"><path transform="translate(9,18)" class="S sfh" d="M1726 1773 L2104 2151 L2138 2151 L1760 1773 Z"/><path class="fh1" d="M1726 1773 L2104 2151 L2138 2151 L1760 1773 Z" /></g><g class="o"><path transform="translate(6,12)" class="S sf" d="M974 1466 L1694 746 L1694 778 L974 1498 Z"/><path class="f4" d="M974 1466 L1694 746 L1694 778 L974 1498 Z" /></g><g class="o"><path transform="translate(4,8)" class="S sfh" d="M918 1801 L1049 1670 L1113 1670 L982 1801 Z"/><path class="fh4" d="M918 1801 L1049 1670 L1113 1670 L982 1801 Z" /></g><g class="o"><path transform="translate(6,12)" class="S sf" d="M1505 1968 L1739 2202 L1739 2240 L1505 2006 Z"/><path class="f3" d="M1505 1968 L1739 2202 L1739 2240 L1505 2006 Z" /></g><g class="o"><path transform="translate(2,4)" class="S sfv" d="M1725 1619 L2205 1139 L2205 1259 L1725 1739 Z"/><path class="fv1" d="M1725 1619 L2205 1139 L2205 1259 L1725 1739 Z" /></g><g class="o"><path transform="translate(4,8)" class="S ss" d="M1230 1756 L1638 2164 L1638 2176 L1230 1768 Z"/><path class="s1" d="M1230 1756 L1638 2164 L1638 2176 L1230 1768 Z" /></g><g class="o"><path transform="translate(2,4)" class="S ssh" d="M1604 1212 L1670 1278 L1742 1278 L1676 1212 Z"/><path class="sh6" d="M1604 1212 L1670 1278 L1742 1278 L1676 1212 Z" /></g><g class="o"><path transform="translate(2,4)" class="S sfv" d="M1588 1744 L1843 1999 L1843 2009 L1588 1754 Z"/><path class="fv7" d="M1588 1744 L1843 1999 L1843 2009 L1588 1754 Z" /></g><g class="o"><path transform="translate(9,18)" class="S sfv" d="M1950 1759 L2535 2344 L2535 2380 L1950 1795 Z"/><path class="fv6" d="M1950 1759 L2535 2344 L2535 2380 L1950 1795 Z" /></g><g class="o"><path transform="translate(4,8)" class="S ssv" d="M1844 1741 L1968 1617 L1968 1645 L1844 1769 Z"/><path class="sv7" d="M1844 1741 L1968 1617 L1968 1645 L1844 1769 Z" /></g><g class="o"><path transform="translate(2,4)" class="S sfv" d="M1495 1360 L1665 1190 L1665 1206 L1495 1376 Z"/><path class="fv2" d="M1495 1360 L1665 1190 L1665 1206 L1495 1376 Z" /></g><g class="o"><path transform="translate(8,16)" class="S sfh" d="M1484 1592 L1649 1757 L1737 1757 L1572 1592 Z"/><path class="fh2" d="M1484 1592 L1649 1757 L1737 1757 L1572 1592 Z" /></g><g class="o"><path transform="translate(2,4)" class="S sfv" d="M1981 1289 L2143 1451 L2143 1475 L1981 1313 Z"/><path class="fv3" d="M1981 1289 L2143 1451 L2143 1475 L1981 1313 Z" /></g><g class="o"><path transform="translate(7,14)" class="S sfv" d="M1736 1756 L1913 1579 L1913 1589 L1736 1766 Z"/><path class="fv2" d="M1736 1756 L1913 1579 L1913 1589 L1736 1766 Z" /></g><g class="o"><path transform="translate(7,14)" class="S ssh" d="M1328 2003 L1561 1770 L1571 1770 L1338 2003 Z"/><path class="sh7" d="M1328 2003 L1561 1770 L1571 1770 L1338 2003 Z" /></g><g class="o"><path transform="translate(3,6)" class="S ss" d="M1686 1922 L1879 1729 L1879 1753 L1686 1946 Z"/><path class="s1" d="M1686 1922 L1879 1729 L1879 1753 L1686 1946 Z" /></g><g class="o"><path transform="translate(2,4)" class="S sfh" d="M1989 1849 L2211 1627 L2243 1627 L2021 1849 Z"/><path class="fh6" d="M1989 1849 L2211 1627 L2243 1627 L2021 1849 Z" /></g><g class="o"><path transform="translate(5,10)" class="S sfv" d="M1284 1900 L1761 2377 L1761 2513 L1284 2036 Z"/><path class="fv4" d="M1284 1900 L1761 2377 L1761 2513 L1284 2036 Z" /></g><g class="o"><path transform="translate(5,10)" class="S sfv" d="M1693 1722 L1963 1992 L1963 2000 L1693 1730 Z"/><path class="fv7" d="M1693 1722 L1963 1992 L1963 2000 L1693 1730 Z" /></g><g class="o"><path transform="translate(8,16)" class="S sfv" d="M1975 1684 L2281 1990 L2281 2014 L1975 1708 Z"/><path class="fv2" d="M1975 1684 L2281 1990 L2281 2014 L1975 1708 Z" /></g><g class="o"><path transform="translate(4,8)" class="S sfv" d="M1420 1620 L1693 1347 L1693 1371 L1420 1644 Z"/><path class="fv2" d="M1420 1620 L1693 1347 L1693 1371 L1420 1644 Z" /></g><g class="o"><path transform="translate(3,6)" class="S sfh" d="M1960 1389 L2102 1247 L2150 1247 L2008 1389 Z"/><path class="fh6" d="M1960 1389 L2102 1247 L2150 1247 L2008 1389 Z" /></g><g class="o"><path transform="translate(2,4)" class="S sfh" d="M1939 1867 L2680 1126 L2708 1126 L1967 1867 Z"/><path class="fh1" d="M1939 1867 L2680 1126 L2708 1126 L1967 1867 Z" /></g><g class="o"><path transform="translate(6,12)" class="S sfh" d="M1470 1764 L1626 1920 L1666 1920 L1510 1764 Z"/><path class="fh6" d="M1470 1764 L1626 1920 L1666 1920 L1510 1764 Z" /></g><g class="o"><path transform="translate(6,12)" class="S sf" d="M1296 1440 L1629 1773 L1629 1797 L1296 1464 Z"/><path class="f4" d="M1296 1440 L1629 1773 L1629 1797 L1296 1464 Z" /></g><g class="o"><path transform="translate(4,8)" class="S sfh" d="M1465 1074 L1690 1299 L1714 1299 L1489 1074 Z"/><path class="fh5" d="M1465 1074 L1690 1299 L1714 1299 L1489 1074 Z" /></g><g class="o"><path transform="translate(5,10)" class="S sf" d="M1582 1637 L1826 1881 L1826 1889 L1582 1645 Z"/><path class="f3" d="M1582 1637 L1826 1881 L1826 1889 L1582 1645 Z" /></g><g class="o"><path transform="translate(9,18)" class="S sfv" d="M1960 1986 L2413 1533 L2413 1653 L1960 2106 Z"/><path class="fv7" d="M1960 1986 L2413 1533 L2413 1653 L1960 2106 Z" /></g><g class="o"><path transform="translate(2,4)" class="S sfv" d="M1674 1672 L1881 1465 L1881 1497 L1674 1704 Z"/><path class="fv5" d="M1674 1672 L1881 1465 L1881 1497 L1674 1704 Z" /></g><g class="o"><path transform="translate(6,12)" class="S ssh" d="M1477 1412 L1903 986 L2015 986 L1589 1412 Z"/><path class="sh7" d="M1477 1412 L1903 986 L2015 986 L1589 1412 Z" /></g><g class="o"><path transform="translate(3,6)" class="S sfh" d="M1707 1693 L1768 1632 L1872 1632 L1811 1693 Z"/><path class="fh6" d="M1707 1693 L1768 1632 L1872 1632 L1811 1693 Z" /></g><g class="o"><path transform="translate(7,14)" class="S sfv" d="M1422 1680 L2145 2403 L2145 2435 L1422 1712 Z"/><path class="fv1" d="M1422 1680 L2145 2403 L2145 2435 L1422 1712 Z" /></g><g class="o"><path transform="translate(2,4)" class="S sfh" d="M1096 1005 L1303 798 L1331 798 L1124 1005 Z"/><path class="fh5" d="M1096 1005 L1303 798 L1331 798 L1124 1005 Z" /></g><g class="o"><path transform="translate(2,4)" class="S sfh" d="M1390 1958 L1942 1406 L1976 1406 L1424 1958 Z"/><path class="fh7" d="M1390 1958 L1942 1406 L1976 1406 L1424 1958 Z" /></g><g class="o"><path transform="translate(5,10)" class="S sfv" d="M1684 1095 L1850 929 L1850 945 L1684 1111 Z"/><path class="fv7" d="M1684 1095 L1850 929 L1850 945 L1684 1111 Z" /></g><g class="o"><path transform="translate(9,18)" class="S ssv" d="M1542 1098 L1642 1198 L1642 1342 L1542 1242 Z"/><path class="sv5" d="M1542 1098 L1642 1198 L1642 1342 L1542 1242 Z" /></g><g class="o"><path transform="translate(4,8)" class="S sfh" d="M1404 1407 L1634 1637 L1778 1637 L1548 1407 Z"/><path class="fh6" d="M1404 1407 L1634 1637 L1778 1637 L1548 1407 Z" /></g><g class="o"><path transform="translate(8,16)" class="S sfv" d="M1730 1711 L1972 1469 L1972 1491 L1730 1733 Z"/><path class="fv3" d="M1730 1711 L1972 1469 L1972 1491 L1730 1733 Z" /></g><g class="o"><path transform="translate(5,10)" class="S ssv" d="M952 1139 L1114 977 L1114 1003 L952 1165 Z"/><path class="sv1" d="M952 1139 L1114 977 L1114 1003 L952 1165 Z" /></g><g class="o"><path transform="translate(3,6)" class="S sf" d="M1917 1158 L2077 1318 L2095 1318 L1935 1158 Z"/><path class="f4" d="M1917 1158 L2077 1318 L2095 1318 L1935 1158 Z" /></g><g class="o"><path transform="translate(9,18)" class="S sfv" d="M1301 1879 L1449 1731 L1449 1739 L1301 1887 Z"/><path class="fv2" d="M1301 1879 L1449 1731 L1449 1739 L1301 1887 Z" /></g><g class="o"><path transform="translate(9,18)" class="S sf" d="M1110 1750 L1297 1937 L1441 1937 L1254 1750 Z"/><path class="f1" d="M1110 1750 L1297 1937 L1441 1937 L1254 1750 Z" /></g><g class="o"><path transform="translate(5,10)" class="S ssv" d="M1535 1834 L1847 2146 L1847 2174 L1535 1862 Z"/><path class="sv7" d="M1535 1834 L1847 2146 L1847 2174 L1535 1862 Z" /></g><g class="o"><path transform="translate(6,12)" class="S sfh" d="M1691 1445 L2057 1079 L2201 1079 L1835 1445 Z"/><path class="fh5" d="M1691 1445 L2057 1079 L2201 1079 L1835 1445 Z" /></g><g class="o"><path transform="translate(2,4)" class="S sfv" d="M1620 1360 L1720 1460 L1720 1474 L1620 1374 Z"/><path class="fv6" d="M1620 1360 L1720 1460 L1720 1474 L1620 1374 Z" /></g><g class="o"><path transform="translate(5,10)" class="S sfv" d="M999 1592 L1167 1760 L1167 1772 L999 1604 Z"/><path class="fv4" d="M999 1592 L1167 1760 L1167 1772 L999 1604 Z" /></g><g class="o"><path transform="translate(4,8)" class="S sfh" d="M1113 1212 L1443 1542 L1547 1542 L1217 1212 Z"/><path class="fh7" d="M1113 1212 L1443 1542 L1547 1542 L1217 1212 Z" /></g><g class="o"><path transform="translate(6,12)" class="S sfv" d="M1532 1156 L1652 1036 L1652 1132 L1532 1252 Z"/><path class="fv6" d="M1532 1156 L1652 1036 L1652 1132 L1532 1252 Z" /></g><g class="o"><path transform="translate(7,14)" class="S sfh" d="M1271 1669 L1502 1900 L1582 1900 L1351 1669 Z"/><path class="fh4" d="M1271 1669 L1502 1900 L1582 1900 L1351 1669 Z" /></g><g class="o"><path transform="translate(8,16)" class="S ssv" d="M1182 1599 L1839 2256 L1839 2280 L1182 1623 Z"/><path class="sv3" d="M1182 1599 L1839 2256 L1839 2280 L1182 1623 Z" /></g><g class="o"><path transform="translate(8,16)" class="S ss" d="M1600 1096 L1776 1272 L1798 1272 L1622 1096 Z"/><path class="s3" d="M1600 1096 L1776 1272 L1798 1272 L1622 1096 Z" /></g><g class="o"><path transform="translate(6,12)" class="S ssv" d="M1288 1798 L1537 2047 L1537 2079 L1288 1830 Z"/><path class="sv4" d="M1288 1798 L1537 2047 L1537 2079 L1288 1830 Z" /></g><g class="o"><path transform="translate(6,12)" class="S ss" d="M1716 1966 L1862 1820 L1876 1820 L1730 1966 Z"/><path class="s2" d="M1716 1966 L1862 1820 L1876 1820 L1730 1966 Z" /></g><g class="o"><path transform="translate(7,14)" class="S sf" d="M1003 1667 L1118 1552 L1152 1552 L1037 1667 Z"/><path class="f7" d="M1003 1667 L1118 1552 L1152 1552 L1037 1667 Z" /></g><g class="o"><path transform="translate(9,18)" class="S sfh" d="M1832 1673 L2062 1903 L2150 1903 L1920 1673 Z"/><path class="fh3" d="M1832 1673 L2062 1903 L2150 1903 L1920 1673 Z" /></g><g class="o"><path transform="translate(9,18)" class="S ssv" d="M1675 1790 L1753 1868 L1753 1898 L1675 1820 Z"/><path class="sv6" d="M1675 1790 L1753 1868 L1753 1898 L1675 1820 Z" /></g><g class="o"><path transform="translate(3,6)" class="S sfv" d="M1389 1089 L1562 916 L1562 946 L1389 1119 Z"/><path class="fv4" d="M1389 1089 L1562 916 L1562 946 L1389 1119 Z" /></g><g class="o"><path transform="translate(7,14)" class="S ssv" d="M1752 1326 L1935 1509 L1935 1519 L1752 1336 Z"/><path class="sv6" d="M1752 1326 L1935 1509 L1935 1519 L1752 1336 Z" /></g><g class="o"><path transform="translate(9,18)" class="S sfh" d="M1620 1914 L1715 2009 L1731 2009 L1636 1914 Z"/><path class="fh1" d="M1620 1914 L1715 2009 L1731 2009 L1636 1914 Z" /></g><g class="o"><path transform="translate(9,18)" class="S sfv" d="M1058 1389 L1181 1512 L1181 1584 L1058 1461 Z"/><path class="fv7" d="M1058 1389 L1181 1512 L1181 1584 L1058 1461 Z" /></g><g class="o"><path transform="translate(8,16)" class="S ss" d="M1789 1852 L1939 2002 L1939 2034 L1789 1884 Z"/><path class="s4" d="M1789 1852 L1939 2002 L1939 2034 L1789 1884 Z" /></g><g class="o"><path transform="translate(8,16)" class="S sfh" d="M1437 987 L1800 624 L1822 624 L1459 987 Z"/><path class="fh5" d="M1437 987 L1800 624 L1822 624 L1459 987 Z" /></g><g class="o"><path transform="translate(8,16)" class="S ssh" d="M1681 1055 L1906 1280 L2002 1280 L1777 1055 Z"/><path class="sh4" d="M1681 1055 L1906 1280 L2002 1280 L1777 1055 Z" /></g><g class="o"><path transform="translate(2,4)" class="S sfv" d="M1312 1771 L1471 1612 L1471 1642 L1312 1801 Z"/><path class="fv3" d="M1312 1771 L1471 1612 L1471 1642 L1312 1801 Z" /></g><g class="o"><path transform="translate(5,10)" class="S sfh" d="M1087 1511 L1315 1283 L1335 1283 L1107 1511 Z"/><path class="fh4" d="M1087 1511 L1315 1283 L1335 1283 L1107 1511 Z" /></g><g class="o"><path transform="translate(5,10)" class="S sf" d="M1345 952 L1927 370 L1949 370 L1367 952 Z"/><path class="f1" d="M1345 952 L1927 370 L1949 370 L1367 952 Z" /></g><g class="o"><path transform="translate(5,10)" class="S sfh" d="M2031 1158 L2382 1509 L2408 1509 L2057 1158 Z"/><path class="fh1" d="M2031 1158 L2382 1509 L2408 1509 L2057 1158 Z" /></g><g class="o"><path transform="translate(5,10)" class="S sf" d="M1874 1750 L2357 2233 L2357 2251 L1874 1768 Z"/><path class="f3" d="M1874 1750 L2357 2233 L2357 2251 L1874 1768 Z" /></g><g class="o"><path transform="translate(8,16)" class="S sf" d="M1729 1943 L1857 2071 L1857 2089 L1729 1961 Z"/><path class="f2" d="M1729 1943 L1857 2071 L1857 2089 L1729 1961 Z" /></g><g class="o"><path transform="translate(5,10)" class="S sfv" d="M1557 1425 L2151 2019 L2151 2049 L1557 1455 Z"/><path class="fv6" d="M1557 1425 L2151 2019 L2151 2049 L1557 1455 Z" /></g><g class="o"><path transform="translate(9,18)" class="S ssh" d="M1274 1524 L1580 1830 L1724 1830 L1418 1524 Z"/><path class="sh7" d="M1274 1524 L1580 1830 L1724 1830 L1418 1524 Z" /></g><g class="o"><path transform="translate(3,6)" class="S sfv" d="M1729 1717 L1909 1537 L1909 1569 L1729 1749 Z"/><path class="fv4" d="M1729 1717 L1909 1537 L1909 1569 L1729 1749 Z" /></g><g class="o"><path transform="translate(3,6)" class="S ssh" d="M1792 1792 L2134 2134 L2146 2134 L1804 1792 Z"/><path class="sh1" d="M1792 1792 L2134 2134 L2146 2134 L1804 1792 Z" /></g><g class="o"><path transform="translate(6,12)" class="S sfh" d="M1822 1232 L2044 1010 L2140 1010 L1918 1232 Z"/><path class="fh7" d="M1822 1232 L2044 1010 L2140 1010 L1918 1232 Z" /></g><g class="o"><path transform="translate(7,14)" class="S sfh" d="M1102 1312 L1636 1846 L1764 1846 L1230 1312 Z"/><path class="fh5" d="M1102 1312 L1636 1846 L1764 1846 L1230 1312 Z" /></g><g class="o"><path transform="translate(6,12)" class="S sfh" d="M1696 1962 L1993 1665 L2019 1665 L1722 1962 Z"/><path class="fh7" d="M1696 1962 L1993 1665 L2019 1665 L1722 1962 Z" /></g><g class="o"><path transform="translate(3,6)" class="S ssh" d="M1420 1700 L2113 2393 L2145 2393 L1452 1700 Z"/><path class="sh6" d="M1420 1700 L2113 2393 L2145 2393 L1452 1700 Z" /></g><g class="o"><path transform="translate(3,6)" class="S sfv" d="M1028 1172 L1178 1322 L1178 1338 L1028 1188 Z"/><path class="fv1" d="M1028 1172 L1178 1322 L1178 1338 L1028 1188 Z" /></g><g class="o"><path transform="translate(5,10)" class="S ssh" d="M2019 1829 L2250 2060 L2272 2060 L2041 1829 Z"/><path class="sh4" d="M2019 1829 L2250 2060 L2272 2060 L2041 1829 Z" /></g><g class="o"><path transform="translate(7,14)" class="S sfh" d="M1621 1709 L1897 1433 L1907 1433 L1631 1709 Z"/><path class="fh3" d="M1621 1709 L1897 1433 L1907 1433 L1631 1709 Z" /></g><g class="o"><path transform="translate(2,4)" class="S ss" d="M1768 1959 L2041 2232 L2063 2232 L1790 1959 Z"/><path class="s5" d="M1768 1959 L2041 2232 L2063 2232 L1790 1959 Z" /></g><g class="o"><path transform="translate(5,10)" class="S ssv" d="M1592 1634 L1973 2015 L1973 2095 L1592 1714 Z"/><path class="sv6" d="M1592 1634 L1973 2015 L1973 2095 L1592 1714 Z" /></g><g class="o"><path transform="translate(9,18)" class="S sfv" d="M1977 1514 L2235 1772 L2235 1782 L1977 1524 Z"/><path class="fv4" d="M1977 1514 L2235 1772 L2235 1782 L1977 1524 Z" /></g><g class="o"><path transform="translate(9,18)" class="S sfv" d="M1758 1708 L1818 1768 L1818 1856 L1758 1796 Z"/><path class="fv6" d="M1758 1708 L1818 1768 L1818 1856 L1758 1796 Z" /></g><g class="o"><path transform="translate(4,8)" class="S sfh" d="M1239 1329 L1303 1265 L1359 1265 L1295 1329 Z"/><path class="fh3" d="M1239 1329 L1303 1265 L1359 1265 L1295 1329 Z" /></g><g class="o"><path transform="translate(4,8)" class="S sf" d="M1172 1585 L1296 1461 L1296 1475 L1172 1599 Z"/><path class="f1" d="M1172 1585 L1296 1461 L1296 1475 L1172 1599 Z" /></g><g class="o"><path transform="translate(3,6)" class="S sfv" d="M1724 1030 L2009 745 L2009 865 L1724 1150 Z"/><path class="fv6" d="M1724 1030 L2009 745 L2009 865 L1724 1150 Z" /></g><g class="o"><path transform="translate(9,18)" class="S sfv" d="M1886 1148 L2102 1364 L2102 1378 L1886 1162 Z"/><path class="fv5" d="M1886 1148 L2102 1364 L2102 1378 L1886 1162 Z" /></g><g class="o"><path transform="translate(7,14)" class="S sfv" d="M1500 1100 L1633 967 L1633 1055 L1500 1188 Z"/><path class="fv2" d="M1500 1100 L1633 967 L1633 1055 L1500 1188 Z" /></g><g class="o"><path transform="translate(4,8)" class="S sfh" d="M1068 1636 L1262 1442 L1278 1442 L1084 1636 Z"/><path class="fh6" d="M1068 1636 L1262 1442 L1278 1442 L1084 1636 Z" /></g><g class="o"><path transform="translate(8,16)" class="S sfh" d="M1393 1276 L1510 1393 L1534 1393 L1417 1276 Z"/><path class="fh3" d="M1393 1276 L1510 1393 L1534 1393 L1417 1276 Z" /></g><g class="o"><path transform="translate(2,4)" class="S sfh" d="M1923 1853 L2130 1646 L2156 1646 L1949 1853 Z"/><path class="fh5" d="M1923 1853 L2130 1646 L2156 1646 L1949 1853 Z" /></g><g class="o"><path transform="translate(8,16)" class="S sfh" d="M2002 1579 L2635 2212 L2673 2212 L2040 1579 Z"/><path class="fh7" d="M2002 1579 L2635 2212 L2673 2212 L2040 1579 Z" /></g><g class="o"><path transform="translate(2,4)" class="S sfh" d="M1451 982 L1641 792 L1649 792 L1459 982 Z"/><path class="fh7" d="M1451 982 L1641 792 L1649 792 L1459 982 Z" /></g><g class="o"><path transform="translate(7,14)" class="S sfh" d="M1049 1919 L1272 1696 L1306 1696 L1083 1919 Z"/><path class="fh5" d="M1049 1919 L1272 1696 L1306 1696 L1083 1919 Z" /></g><g class="o"><path transform="translate(7,14)" class="S sf" d="M1784 1814 L2021 2051 L2021 2085 L1784 1848 Z"/><path class="f7" d="M1784 1814 L2021 2051 L2021 2085 L1784 1848 Z" /></g><g class="o"><path transform="translate(4,8)" class="S sfv" d="M1111 998 L1804 305 L1804 333 L1111 1026 Z"/><path class="fv1" d="M1111 998 L1804 305 L1804 333 L1111 1026 Z" /></g><g class="o"><path transform="translate(9,18)" class="S sfv" d="M1447 1509 L1669 1731 L1669 1779 L1447 1557 Z"/><path class="fv3" d="M1447 1509 L1669 1731 L1669 1779 L1447 1557 Z" /></g><g class="o"><path transform="translate(8,16)" class="S ss" d="M1938 1879 L2307 2248 L2319 2248 L1950 1879 Z"/><path class="s2" d="M1938 1879 L2307 2248 L2319 2248 L1950 1879 Z" /></g><g class="o"><path transform="translate(8,16)" class="S sfh" d="M1076 1594 L1183 1487 L1205 1487 L1098 1594 Z"/><path class="fh5" d="M1076 1594 L1183 1487 L1205 1487 L1098 1594 Z" /></g><g class="o"><path transform="translate(8,16)" class="S ssh" d="M2041 1343 L2263 1565 L2279 1565 L2057 1343 Z"/><path class="sh5" d="M2041 1343 L2263 1565 L2279 1565 L2057 1343 Z" /></g><g class="o"><path transform="translate(3,6)" class="S ssv" d="M984 1649 L1713 920 L1713 1000 L984 1729 Z"/><path class="sv7" d="M984 1649 L1713 920 L1713 1000 L984 1729 Z" /></g><g class="o"><path transform="translate(9,18)" class="S sfv" d="M1313 1701 L1559 1455 L1559 1463 L1313 1709 Z"/><path class="fv4" d="M1313 1701 L1559 1455 L1559 1463 L1313 1709 Z" /></g><g class="o"><path transform="translate(5,10)" class="S sfh" d="M1039 1160 L1246 953 L1350 953 L1143 1160 Z"/><path class="fh6" d="M1039 1160 L1246 953 L1350 953 L1143 1160 Z" /></g><g class="o"><path transform="translate(8,16)" class="S sf" d="M1493 1237 L1925 1669 L1925 1685 L1493 1253 Z"/><path class="f3" d="M1493 1237 L1925 1669 L1925 1685 L1493 1253 Z" /></g><g class="o"><path transform="translate(6,12)" class="S sfh" d="M1884 1408 L2148 1144 L2164 1144 L1900 1408 Z"/><path class="fh2" d="M1884 1408 L2148 1144 L2164 1144 L1900 1408 Z" /></g><g class="o"><path transform="translate(2,4)" class="S sf" d="M1366 1343 L1861 848 L1861 872 L1366 1367 Z"/><path class="f5" d="M1366 1343 L1861 848 L1861 872 L1366 1367 Z" /></g><g class="o"><path transform="translate(4,8)" class="S sfh" d="M1543 1440 L1702 1599 L1728 1599 L1569 1440 Z"/><path class="fh2" d="M1543 1440 L1702 1599 L1728 1599 L1569 1440 Z" /></g><g class="o"><path transform="translate(5,10)" class="S ss" d="M1724 1095 L1868 1239 L1868 1277 L1724 1133 Z"/><path class="s1" d="M1724 1095 L1868 1239 L1868 1277 L1724 1133 Z" /></g><g class="o"><path transform="translate(2,4)" class="S sfh" d="M1225 1311 L1452 1084 L1500 1084 L1273 1311 Z"/><path class="fh3" d="M1225 1311 L1452 1084 L1500 1084 L1273 1311 Z" /></g><g class="o"><path transform="translate(8,16)" class="S sfv" d="M1204 1641 L1256 1693 L1256 1705 L1204 1653 Z"/><path class="fv6" d="M1204 1641 L1256 1693 L1256 1705 L1204 1653 Z" /></g></g><use href="#slashes" transform-origin="1500 1500" transform="rotate(180) scale(2)"/></g><rect x="1080" y="1080" width="840" height="840" stroke-width="20" class="o s6" /><use href="#slashes" transform-origin="1500 1500" transform="scale(.3)"/><use href="#slashes" transform-origin="1500 1500" transform="rotate(180) scale(.7)"/></svg>