<svg xmlns="http://www.w3.org/2000/svg" viewBox="750 750 1500 1500"><style>/*<![CDATA[*/svg{background:rgb(232,241,242);max-width:100vw;max-height:100vh}path{stroke-width:4}.o{opacity:.75}.S{opacity:.4}.sf{stroke:none;fill:black}.sfh{stroke:none;fill:url(#hs)}.sfv{stroke:none;fill:url(#vs)}.ss{stroke:black;fill:none}.ssh{stroke:url(#hs);fill:none}.ssv{stroke:url(#vs);fill:none}.s1{fill:none;stroke:rgb(34,34,34)}.f1{stroke:none;fill:rgb(34,34,34)}.sh1{fill:none;stroke:url(#h1)}.fh1{stroke:none;fill:url(#h1)}.sv1{fill:none;stroke:url(#v1)}.fv1{stroke:none;fill:url(#v1)}.s2{fill:none;stroke:rgb(36,123,160)}.f2{stroke:none;fill:rgb(36,123,160)}.sh2{fill:none;stroke:url(#h2)}.fh2{stroke:none;fill:url(#h2)}.sv2{fill:none;stroke:url(#v2)}.fv2{stroke:none;fill:url(#v2)}.s3{fill:none;stroke:rgb(0,100,148)}.f3{stroke:none;fill:rgb(0,100,148)}.sh3{fill:none;stroke:url(#h3)}.fh3{stroke:none;fill:url(#h3)}.sv3{fill:none;stroke:url(#v3)}.fv3{stroke:none;fill:url(#v3)}.s4{fill:none;stroke:rgb(27,152,224)}.f4{stroke:none;fill:rgb(27,152,224)}.sh4{fill:none;stroke:url(#h4)}.fh4{stroke:none;fill:url(#h4)}.sv4{fill:none;stroke:url(#v4)}.fv4{stroke:none;fill:url(#v4)}.s5{fill:none;stroke:rgb(19,41,61)}.f5{stroke:none;fill:rgb(19,41,61)}.sh5{fill:none;stroke:url(#h5)}.fh5{stroke:none;fill:url(#h5)}.sv5{fill:none;stroke:url(#v5)}.fv5{stroke:none;fill:url(#v5)}.s6{fill:none;stroke:rgb(255,255,255)}.f6{stroke:none;fill:rgb(255,255,255)}.sh6{fill:none;stroke:url(#h6)}.fh6{stroke:none;fill:url(#h6)}.sv6{fill:none;stroke:url(#v6)}.fv6{stroke:none;fill:url(#v6)}.s7{fill:none;stroke:rgb(255,0,0)}.f7{stroke:none;fill:rgb(255,0,0)}.sh7{fill:none;stroke:url(#h7)}.fh7{stroke:none;fill:url(#h7)}.sv7{fill:none;stroke:url(#v7)}.fv7{stroke:none;fill:url(#v7)}/*]]>*/</style><defs><linearGradient gradientTransform="rotate(90)" id="hs"><stop offset="20%" stop-color="#000" /><stop offset="95%" stop-color="rgba(0, 0, 0, 0)" /></linearGradient><linearGradient id="vs"><stop offset="20%" stop-color="#000" /><stop offset="95%" stop-color="rgba(0, 0, 0, 0)" /></linearGradient><linearGradient gradientTransform="rotate(90)" id="h1"><stop offset="20%" stop-color="rgba(34,34,34,1)" /><stop offset="95%" stop-color="rgba(34,34,34,0)" /></linearGradient><linearGradient id="v1"><stop offset="20%" stop-color="rgba(34,34,34,1)" /><stop offset="95%" stop-color="rgba(34,34,34,0)" /></linearGradient><linearGradient gradientTransform="rotate(90)" id="h2"><stop offset="20%" stop-color="rgba(36,123,160,1)" /><stop offset="95%" stop-color="rgba(36,123,160,0)" /></linearGradient><linearGradient id="v2"><stop offset="20%" stop-color="rgba(36,123,160,1)" /><stop offset="95%" stop-color="rgba(36,123,160,0)" /></linearGradient><linearGradient gradientTransform="rotate(90)" id="h3"><stop offset="20%" stop-color="rgba(0,100,148,1)" /><stop offset="95%" stop-color="rgba(0,100,148,0)" /></linearGradient><linearGradient id="v3"><stop offset="20%" stop-color="rgba(0,100,148,1)" /><stop offset="95%" stop-color="rgba(0,100,148,0)" /></linearGradient><linearGradient gradientTransform="rotate(90)" id="h4"><stop offset="20%" stop-color="rgba(27,152,224,1)" /><stop offset="95%" stop-color="rgba(27,152,224,0)" /></linearGradient><linearGradient id="v4"><stop offset="20%" stop-color="rgba(27,152,224,1)" /><stop offset="95%" stop-color="rgba(27,152,224,0)" /></linearGradient><linearGradient gradientTransform="rotate(90)" id="h5"><stop offset="20%" stop-color="rgba(19,41,61,1)" /><stop offset="95%" stop-color="rgba(19,41,61,0)" /></linearGradient><linearGradient id="v5"><stop offset="20%" stop-color="rgba(19,41,61,1)" /><stop offset="95%" stop-color="rgba(19,41,61,0)" /></linearGradient><linearGradient gradientTransform="rotate(90)" id="h6"><stop offset="20%" stop-color="rgba(255,255,255,1)" /><stop offset="95%" stop-color="rgba(255,255,255,0)" /></linearGradient><linearGradient id="v6"><stop offset="20%" stop-color="rgba(255,255,255,1)" /><stop offset="95%" stop-color="rgba(255,255,255,0)" /></linearGradient><linearGradient gradientTransform="rotate(90)" id="h7"><stop offset="20%" stop-color="rgba(255,0,0,1)" /><stop offset="95%" stop-color="rgba(255,0,0,0)" /></linearGradient><linearGradient id="v7"><stop offset="20%" stop-color="rgba(255,0,0,1)" /><stop offset="95%" stop-color="rgba(255,0,0,0)" /></linearGradient></defs><g transform-origin="1500 1500" transform="scale(2)" opacity=".2"><g id="slashes"><g class="o"><path transform="translate(2,4)" class="S sfh" d="M1218 1834 L1098 1954 L1112 1954 L1232 1834 Z"/><path class="fh6" d="M1218 1834 L1098 1954 L1112 1954 L1232 1834 Z" /></g><g class="o"><path transform="translate(2,4)" class="S ssv" d="M1004 1076 L839 911 L839 947 L1004 1112 Z"/><path class="sv6" d="M1004 1076 L839 911 L839 947 L1004 1112 Z" /></g><g class="o"><path transform="translate(5,10)" class="S sfv" d="M1558 1501 L1778 1721 L1778 1741 L1558 1521 Z"/><path class="fv2" d="M1558 1501 L1778 1721 L1778 1741 L1558 1521 Z" /></g><g class="o"><path transform="translate(2,4)" class="S sfh" d="M1841 1310 L2073 1078 L2103 1078 L1871 1310 Z"/><path class="fh6" d="M1841 1310 L2073 1078 L2103 1078 L1871 1310 Z" /></g><g class="o"><path transform="translate(2,4)" class="S sfv" d="M1917 1015 L1831 1101 L1831 1111 L1917 1025 Z"/><path class="fv1" d="M1917 1015 L1831 1101 L1831 1111 L1917 1025 Z" /></g><g class="o"><path transform="translate(3,6)" class="S sfh" d="M1565 1404 L1386 1225 L1406 1225 L1585 1404 Z"/><path class="fh7" d="M1565 1404 L1386 1225 L1406 1225 L1585 1404 Z" /></g><g class="o"><path transform="translate(6,12)" class="S sfh" d="M1475 1593 L1994 1074 L2024 1074 L1505 1593 Z"/><path class="fh6" d="M1475 1593 L1994 1074 L2024 1074 L1505 1593 Z" /></g><g class="o"><path transform="translate(4,8)" class="S sfv" d="M1093 1391 L1329 1627 L1329 1645 L1093 1409 Z"/><path class="fv7" d="M1093 1391 L1329 1627 L1329 1645 L1093 1409 Z" /></g><g class="o"><path transform="translate(9,18)" class="S ssh" d="M1748 989 L1964 773 L1990 773 L1774 989 Z"/><path class="sh7" d="M1748 989 L1964 773 L1990 773 L1774 989 Z" /></g><g class="o"><path transform="translate(5,10)" class="S ssh" d="M1886 1481 L1642 1237 L1674 1237 L1918 1481 Z"/><path class="sh5" d="M1886 1481 L1642 1237 L1674 1237 L1918 1481 Z" /></g><g class="o"><path transform="translate(5,10)" class="S sf" d="M1597 1238 L1752 1083 L1760 1083 L1605 1238 Z"/><path class="f7" d="M1597 1238 L1752 1083 L1760 1083 L1605 1238 Z" /></g><g class="o"><path transform="translate(5,10)" class="S ssv" d="M1913 1188 L2090 1011 L2090 1021 L1913 1198 Z"/><path class="sv1" d="M1913 1188 L2090 1011 L2090 1021 L1913 1198 Z" /></g><g class="o"><path transform="translate(2,4)" class="S sfv" d="M1625 973 L1211 559 L1211 587 L1625 1001 Z"/><path class="fv5" d="M1625 973 L1211 559 L1211 587 L1625 1001 Z" /></g><g class="o"><path transform="translate(9,18)" class="S ssh" d="M1233 1215 L1306 1288 L1334 1288 L1261 1215 Z"/><path class="sh1" d="M1233 1215 L1306 1288 L1334 1288 L1261 1215 Z" /></g><g class="o"><path transform="translate(2,4)" class="S ss" d="M1832 1415 L1770 1353 L1790 1353 L1852 1415 Z"/><path class="s5" d="M1832 1415 L1770 1353 L1790 1353 L1852 1415 Z" /></g><g class="o"><path transform="translate(9,18)" class="S sfv" d="M1151 1004 L1390 765 L1390 777 L1151 1016 Z"/><path class="fv5" d="M1151 1004 L1390 765 L1390 777 L1151 1016 Z" /></g><g class="o"><path transform="translate(9,18)" class="S sfh" d="M1689 1789 L1621 1857 L1633 1857 L1701 1789 Z"/><path class="fh7" d="M1689 1789 L1621 1857 L1633 1857 L1701 1789 Z" /></g><g class="o"><path transform="translate(9,18)" class="S sf" d="M1642 1015 L1243 1414 L1243 1430 L1642 1031 Z"/><path class="f4" d="M1642 1015 L1243 1414 L1243 1430 L1642 1031 Z" /></g><g class="o"><path transform="translate(8,16)" class="S ssv" d="M1900 1417 L1750 1567 L1750 1577 L1900 1427 Z"/><path class="sv3" d="M1900 1417 L1750 1567 L1750 1577 L1900 1427 Z" /></g><g class="o"><path transform="translate(4,8)" class="S ssh" d="M1258 1311 L1091 1478 L1105 1478 L1272 1311 Z"/><path class="sh1" d="M1258 1311 L1091 1478 L1105 1478 L1272 1311 Z" /></g><g class="o"><path transform="translate(2,4)" class="S ssv" d="M1218 1010 L1938 290 L1938 322 L1218 1042 Z"/><path class="sv4" d="M1218 1010 L1938 290 L1938 322 L1218 1042 Z" /></g><g class="o"><path transform="translate(7,14)" class="S sfh" d="M1564 1645 L1697 1778 L1711 1778 L1578 1645 Z"/><path class="fh7" d="M1564 1645 L1697 1778 L1711 1778 L1578 1645 Z" /></g><g class="o"><path transform="translate(6,12)" class="S sfh" d="M1909 1108 L1747 946 L1765 946 L1927 1108 Z"/><path class="fh2" d="M1909 1108 L1747 946 L1765 946 L1927 1108 Z" /></g><g class="o"><path transform="translate(4,8)" class="S sf" d="M1738 1352 L1532 1558 L1532 1582 L1738 1376 Z"/><path class="f6" d="M1738 1352 L1532 1558 L1532 1582 L1738 1376 Z" /></g><g class="o"><path transform="translate(8,16)" class="S sfv" d="M1015 1443 L821 1637 L821 1653 L1015 1459 Z"/><path class="fv2" d="M1015 1443 L821 1637 L821 1653 L1015 1459 Z" /></g><g class="o"><path transform="translate(7,14)" class="S sfv" d="M957 1573 L1020 1510 L1020 1520 L957 1583 Z"/><path class="fv1" d="M957 1573 L1020 1510 L1020 1520 L957 1583 Z" /></g><g class="o"><path transform="translate(9,18)" class="S sfh" d="M1141 1426 L1053 1514 L1149 1514 L1237 1426 Z"/><path class="fh4" d="M1141 1426 L1053 1514 L1149 1514 L1237 1426 Z" /></g><g class="o"><path transform="translate(2,4)" class="S sf" d="M1708 1180 L1874 1346 L1874 1372 L1708 1206 Z"/><path class="f4" d="M1708 1180 L1874 1346 L1874 1372 L1708 1206 Z" /></g><g class="o"><path transform="translate(6,12)" class="S sfh" d="M1104 1684 L1226 1562 L1256 1562 L1134 1684 Z"/><path class="fh3" d="M1104 1684 L1226 1562 L1256 1562 L1134 1684 Z" /></g><g class="o"><path transform="translate(6,12)" class="S sfh" d="M1404 2043 L933 2514 L965 2514 L1436 2043 Z"/><path class="fh3" d="M1404 2043 L933 2514 L965 2514 L1436 2043 Z" /></g><g class="o"><path transform="translate(9,18)" class="S sfh" d="M1431 2049 L1635 1845 L1755 1845 L1551 2049 Z"/><path class="fh4" d="M1431 2049 L1635 1845 L1755 1845 L1551 2049 Z" /></g><g class="o"><path transform="translate(5,10)" class="S sfv" d="M2006 1015 L1804 813 L1804 917 L2006 1119 Z"/><path class="fv3" d="M2006 1015 L1804 813 L1804 917 L2006 1119 Z" /></g><g class="o"><path transform="translate(6,12)" class="S sfv" d="M1231 1106 L679 554 L679 582 L1231 1134 Z"/><path class="fv5" d="M1231 1106 L679 554 L679 582 L1231 1134 Z" /></g><g class="o"><path transform="translate(9,18)" class="S sfh" d="M1327 1220 L1120 1427 L1138 1427 L1345 1220 Z"/><path class="fh1" d="M1327 1220 L1120 1427 L1138 1427 L1345 1220 Z" /></g><g class="o"><path transform="translate(7,14)" class="S sf" d="M1236 1777 L1312 1853 L1312 1887 L1236 1811 Z"/><path class="f6" d="M1236 1777 L1312 1853 L1312 1887 L1236 1811 Z" /></g><g class="o"><path transform="translate(5,10)" class="S sfh" d="M1687 1498 L1881 1304 L1915 1304 L1721 1498 Z"/><path class="fh5" d="M1687 1498 L1881 1304 L1915 1304 L1721 1498 Z" /></g><g class="o"><path transform="translate(4,8)" class="S sfv" d="M1584 1633 L1383 1432 L1383 1496 L1584 1697 Z"/><path class="fv1" d="M1584 1633 L1383 1432 L1383 1496 L1584 1697 Z" /></g><g class="o"><path transform="translate(8,16)" class="S sfv" d="M1438 1494 L1282 1650 L1282 1686 L1438 1530 Z"/><path class="fv7" d="M1438 1494 L1282 1650 L1282 1686 L1438 1530 Z" /></g><g class="o"><path transform="translate(6,12)" class="S sfv" d="M1009 1520 L826 1703 L826 1847 L1009 1664 Z"/><path class="fv2" d="M1009 1520 L826 1703 L826 1847 L1009 1664 Z" /></g><g class="o"><path transform="translate(7,14)" class="S ssh" d="M1856 1047 L1743 934 L1755 934 L1868 1047 Z"/><path class="sh3" d="M1856 1047 L1743 934 L1755 934 L1868 1047 Z" /></g><g class="o"><path transform="translate(6,12)" class="S sfv" d="M1689 1254 L1389 1554 L1389 1576 L1689 1276 Z"/><path class="fv4" d="M1689 1254 L1389 1554 L1389 1576 L1689 1276 Z" /></g><g class="o"><path transform="translate(4,8)" class="S ssh" d="M1374 1914 L1746 1542 L1776 1542 L1404 1914 Z"/><path class="sh3" d="M1374 1914 L1746 1542 L1776 1542 L1404 1914 Z" /></g><g class="o"><path transform="translate(5,10)" class="S sfv" d="M1146 2042 L957 2231 L957 2241 L1146 2052 Z"/><path class="fv3" d="M1146 2042 L957 2231 L957 2241 L1146 2052 Z" /></g><g class="o"><path transform="translate(7,14)" class="S ssv" d="M1721 1216 L1911 1026 L1911 1036 L1721 1226 Z"/><path class="sv7" d="M1721 1216 L1911 1026 L1911 1036 L1721 1226 Z" /></g><g class="o"><path transform="translate(6,12)" class="S ssv" d="M1080 1050 L965 935 L965 967 L1080 1082 Z"/><path class="sv4" d="M1080 1050 L965 935 L965 967 L1080 1082 Z" /></g><g class="o"><path transform="translate(5,10)" class="S sfh" d="M1336 1337 L1103 1570 L1135 1570 L1368 1337 Z"/><path class="fh7" d="M1336 1337 L1103 1570 L1135 1570 L1368 1337 Z" /></g><g class="o"><path transform="translate(5,10)" class="S sfh" d="M1766 984 L1588 1162 L1602 1162 L1780 984 Z"/><path class="fh4" d="M1766 984 L1588 1162 L1602 1162 L1780 984 Z" /></g><g class="o"><path transform="translate(8,16)" class="S sfv" d="M1521 1041 L1274 794 L1274 816 L1521 1063 Z"/><path class="fv2" d="M1521 1041 L1274 794 L1274 816 L1521 1063 Z" /></g><g class="o"><path transform="translate(6,12)" class="S sfv" d="M1139 1085 L1272 952 L1272 980 L1139 1113 Z"/><path class="fv2" d="M1139 1085 L1272 952 L1272 980 L1139 1113 Z" /></g><g class="o"><path transform="translate(4,8)" class="S ssh" d="M1923 1758 L2098 1933 L2110 1933 L1935 1758 Z"/><path class="sh5" d="M1923 1758 L2098 1933 L2110 1933 L1935 1758 Z" /></g><g class="o"><path transform="translate(9,18)" class="S sfv" d="M1085 1064 L895 1254 L895 1280 L1085 1090 Z"/><path class="fv6" d="M1085 1064 L895 1254 L895 1280 L1085 1090 Z" /></g><g class="o"><path transform="translate(5,10)" class="S ssv" d="M1214 1734 L1291 1657 L1291 1667 L1214 1744 Z"/><path class="sv5" d="M1214 1734 L1291 1657 L1291 1667 L1214 1744 Z" /></g><g class="o"><path transform="translate(3,6)" class="S ss" d="M1989 1575 L1870 1694 L1870 1706 L1989 1587 Z"/><path class="s1" d="M1989 1575 L1870 1694 L1870 1706 L1989 1587 Z" /></g><g class="o"><path transform="translate(6,12)" class="S sfh" d="M1676 1163 L1902 1389 L1924 1389 L1698 1163 Z"/><path class="fh6" d="M1676 1163 L1902 1389 L1924 1389 L1698 1163 Z" /></g><g class="o"><path transform="translate(5,10)" class="S sf" d="M1461 1345 L1621 1185 L1633 1185 L1473 1345 Z"/><path class="f6" d="M1461 1345 L1621 1185 L1633 1185 L1473 1345 Z" /></g><g class="o"><path transform="translate(8,16)" class="S sfh" d="M1049 1081 L1592 538 L1602 538 L1059 1081 Z"/><path class="fh3" d="M1049 1081 L1592 538 L1602 538 L1059 1081 Z" /></g><g class="o"><path transform="translate(3,6)" class="S sfh" d="M1849 1743 L1989 1603 L1997 1603 L1857 1743 Z"/><path class="fh7" d="M1849 1743 L1989 1603 L1997 1603 L1857 1743 Z" /></g><g class="o"><path transform="translate(3,6)" class="S ssv" d="M1533 1987 L1603 2057 L1603 2065 L1533 1995 Z"/><path class="sv5" d="M1533 1987 L1603 2057 L1603 2065 L1533 1995 Z" /></g><g class="o"><path transform="translate(7,14)" class="S ssv" d="M1694 1077 L1545 928 L1545 956 L1694 1105 Z"/><path class="sv4" d="M1694 1077 L1545 928 L1545 956 L1694 1105 Z" /></g><g class="o"><path transform="translate(5,10)" class="S ssv" d="M1301 1036 L1480 857 L1480 871 L1301 1050 Z"/><path class="sv2" d="M1301 1036 L1480 857 L1480 871 L1301 1050 Z" /></g><g class="o"><path transform="translate(9,18)" class="S sf" d="M1199 1135 L1091 1243 L1091 1269 L1199 1161 Z"/><path class="f2" d="M1199 1135 L1091 1243 L1091 1269 L1199 1161 Z" /></g><g class="o"><path transform="translate(7,14)" class="S sfh" d="M1534 2044 L1639 2149 L1677 2149 L1572 2044 Z"/><path class="fh2" d="M1534 2044 L1639 2149 L1677 2149 L1572 2044 Z" /></g><g class="o"><path transform="translate(4,8)" class="S sf" d="M1777 1130 L1981 1334 L2019 1334 L1815 1130 Z"/><path class="f7" d="M1777 1130 L1981 1334 L2019 1334 L1815 1130 Z" /></g><g class="o"><path transform="translate(7,14)" class="S sfv" d="M1023 1572 L1218 1767 L1218 1803 L1023 1608 Z"/><path class="fv2" d="M1023 1572 L1218 1767 L1218 1803 L1023 1608 Z" /></g><g class="o"><path transform="translate(3,6)" class="S sfh" d="M1746 1330 L1825 1251 L1855 1251 L1776 1330 Z"/><path class="fh7" d="M1746 1330 L1825 1251 L1855 1251 L1776 1330 Z" /></g><g class="o"><path transform="translate(8,16)" class="S sfv" d="M1615 1128 L1455 1288 L1455 1314 L1615 1154 Z"/><path class="fv1" d="M1615 1128 L1455 1288 L1455 1314 L1615 1154 Z" /></g><g class="o"><path transform="translate(9,18)" class="S sfv" d="M1580 1086 L1787 879 L1787 903 L1580 1110 Z"/><path class="fv4" d="M1580 1086 L1787 879 L1787 903 L1580 1110 Z" /></g><g class="o"><path transform="translate(8,16)" class="S sf" d="M1563 1095 L1455 1203 L1473 1203 L1581 1095 Z"/><path class="f4" d="M1563 1095 L1455 1203 L1473 1203 L1581 1095 Z" /></g><g class="o"><path transform="translate(9,18)" class="S sfv" d="M1638 1939 L1768 1809 L1768 1831 L1638 1961 Z"/><path class="fv3" d="M1638 1939 L1768 1809 L1768 1831 L1638 1961 Z" /></g><g class="o"><path transform="translate(7,14)" class="S sfv" d="M1500 1739 L1655 1584 L1655 1600 L1500 1755 Z"/><path class="fv1" d="M1500 1739 L1655 1584 L1655 1600 L1500 1755 Z" /></g><g class="o"><path transform="translate(4,8)" class="S sfh" d="M1498 1331 L1561 1394 L1595 1394 L1532 1331 Z"/><path class="fh5" d="M1498 1331 L1561 1394 L1595 1394 L1532 1331 Z" /></g><g class="o"><path transform="translate(5,10)" class="S sf" d="M1766 1181 L1947 1362 L1947 1396 L1766 1215 Z"/><path class="f3" d="M1766 1181 L1947 1362 L1947 1396 L1766 1215 Z" /></g><g class="o"><path transform="translate(2,4)" class="S sfh" d="M1439 1521 L776 2184 L784 2184 L1447 1521 Z"/><path class="fh1" d="M1439 1521 L776 2184 L784 2184 L1447 1521 Z" /></g><g class="o"><path transform="translate(2,4)" class="S sfh" d="M1865 1755 L2036 1584 L2064 1584 L1893 1755 Z"/><path class="fh4" d="M1865 1755 L2036 1584 L2064 1584 L1893 1755 Z" /></g><g class="o"><path transform="translate(4,8)" class="S ssh" d="M1848 1629 L1761 1716 L1783 1716 L1870 1629 Z"/><path class="sh6" d="M1848 1629 L1761 1716 L1783 1716 L1870 1629 Z" /></g><g class="o"><path transform="translate(8,16)" class="S sf" d="M1308 2035 L1487 2214 L1507 2214 L1328 2035 Z"/><path class="f2" d="M1308 2035 L1487 2214 L1507 2214 L1328 2035 Z" /></g><g class="o"><path transform="translate(8,16)" class="S sfv" d="M2011 1556 L2425 1142 L2425 1154 L2011 1568 Z"/><path class="fv3" d="M2011 1556 L2425 1142 L2425 1154 L2011 1568 Z" /></g><g class="o"><path transform="translate(5,10)" class="S sfv" d="M1441 1158 L1650 1367 L1650 1407 L1441 1198 Z"/><path class="fv7" d="M1441 1158 L1650 1367 L1650 1407 L1441 1198 Z" /></g><g class="o"><path transform="translate(7,14)" class="S sfh" d="M1419 1014 L1602 831 L1650 831 L1467 1014 Z"/><path class="fh2" d="M1419 1014 L1602 831 L1650 831 L1467 1014 Z" /></g><g class="o"><path transform="translate(2,4)" class="S sfv" d="M1764 1531 L1971 1324 L1971 1342 L1764 1549 Z"/><path class="fv7" d="M1764 1531 L1971 1324 L1971 1342 L1764 1549 Z" /></g><g class="o"><path transform="translate(2,4)" class="S sfv" d="M1642 1329 L1495 1182 L1495 1216 L1642 1363 Z"/><path class="fv6" d="M1642 1329 L1495 1182 L1495 1216 L1642 1363 Z" /></g><g class="o"><path transform="translate(3,6)" class="S sfh" d="M1763 1944 L1382 1563 L1398 1563 L1779 1944 Z"/><path class="fh5" d="M1763 1944 L1382 1563 L1398 1563 L1779 1944 Z" /></g><g class="o"><path transform="translate(6,12)" class="S sfv" d="M1114 1591 L931 1408 L931 1418 L1114 1601 Z"/><path class="fv6" d="M1114 1591 L931 1408 L931 1418 L1114 1601 Z" /></g><g class="o"><path transform="translate(8,16)" class="S sfh" d="M1773 1295 L1643 1425 L1723 1425 L1853 1295 Z"/><path class="fh4" d="M1773 1295 L1643 1425 L1723 1425 L1853 1295 Z" /></g><g class="o"><path transform="translate(6,12)" class="S sfh" d="M1212 1372 L1340 1244 L1352 1244 L1224 1372 Z"/><path class="fh6" d="M1212 1372 L1340 1244 L1352 1244 L1224 1372 Z" /></g><g class="o"><path transform="translate(7,14)" class="S ssv" d="M1527 1557 L1384 1414 L1384 1426 L1527 1569 Z"/><path class="sv7" d="M1527 1557 L1384 1414 L1384 1426 L1527 1569 Z" /></g><g class="o"><path transform="translate(9,18)" class="S ss" d="M1412 1244 L1648 1008 L1648 1020 L1412 1256 Z"/><path class="s1" d="M1412 1244 L1648 1008 L1648 1020 L1412 1256 Z" /></g><g class="o"><path transform="translate(6,12)" class="S sfh" d="M1149 1829 L834 1514 L858 1514 L1173 1829 Z"/><path class="fh6" d="M1149 1829 L834 1514 L858 1514 L1173 1829 Z" /></g><g class="o"><path transform="translate(4,8)" class="S sfv" d="M1889 1907 L1790 1808 L1790 1838 L1889 1937 Z"/><path class="fv2" d="M1889 1907 L1790 1808 L1790 1838 L1889 1937 Z" /></g><g class="o"><path transform="translate(7,14)" class="S sfv" d="M1064 1469 L1122 1527 L1122 1549 L1064 1491 Z"/><path class="fv5" d="M1064 1469 L1122 1527 L1122 1549 L1064 1491 Z" /></g><g class="o"><path transform="translate(9,18)" class="S sfv" d="M1854 1619 L1758 1715 L1758 1739 L1854 1643 Z"/><path class="fv4" d="M1854 1619 L1758 1715 L1758 1739 L1854 1643 Z" /></g><g class="o"><path transform="translate(6,12)" class="S ssv" d="M1530 1742 L1432 1840 L1432 1850 L1530 1752 Z"/><path class="sv1" d="M1530 1742 L1432 1840 L1432 1850 L1530 1752 Z" /></g><g class="o"><path transform="translate(7,14)" class="S sfv" d="M1553 1264 L1997 1708 L1997 1772 L1553 1328 Z"/><path class="fv4" d="M1553 1264 L1997 1708 L1997 1772 L1553 1328 Z" /></g><g class="o"><path transform="translate(5,10)" class="S sfh" d="M1962 1599 L2106 1743 L2128 1743 L1984 1599 Z"/><path class="fh2" d="M1962 1599 L2106 1743 L2128 1743 L1984 1599 Z" /></g><g class="o"><path transform="translate(7,14)" class="S sfh" d="M1687 1852 L1908 2073 L1922 2073 L1701 1852 Z"/><path class="fh6" d="M1687 1852 L1908 2073 L1922 2073 L1701 1852 Z" /></g><g class="o"><path transform="translate(4,8)" class="S sfh" d="M1619 1986 L1406 1773 L1414 1773 L1627 1986 Z"/><path class="fh4" d="M1619 1986 L1406 1773 L1414 1773 L1627 1986 Z" /></g><g class="o"><path transform="translate(3,6)" class="S ssv" d="M988 1196 L1071 1279 L1071 1289 L988 1206 Z"/><path class="sv6" d="M988 1196 L1071 1279 L1071 1289 L988 1206 Z" /></g><g class="o"><path transform="translate(6,12)" class="S sfv" d="M1043 1794 L665 1416 L665 1432 L1043 1810 Z"/><path class="fv6" d="M1043 1794 L665 1416 L665 1432 L1043 1810 Z" /></g><g class="o"><path transform="translate(2,4)" class="S sf" d="M1810 1350 L1866 1294 L1866 1350 L1810 1406 Z"/><path class="f1" d="M1810 1350 L1866 1294 L1866 1350 L1810 1406 Z" /></g><g class="o"><path transform="translate(2,4)" class="S sfv" d="M1172 1973 L1051 2094 L1051 2106 L1172 1985 Z"/><path class="fv2" d="M1172 1973 L1051 2094 L1051 2106 L1172 1985 Z" /></g><g class="o"><path transform="translate(4,8)" class="S ssh" d="M1482 1229 L1577 1134 L1597 1134 L1502 1229 Z"/><path class="sh5" d="M1482 1229 L1577 1134 L1597 1134 L1502 1229 Z" /></g><g class="o"><path transform="translate(7,14)" class="S sfh" d="M1741 1645 L1531 1435 L1569 1435 L1779 1645 Z"/><path class="fh4" d="M1741 1645 L1531 1435 L1569 1435 L1779 1645 Z" /></g><g class="o"><path transform="translate(9,18)" class="S sf" d="M1448 1822 L1336 1710 L1336 1744 L1448 1856 Z"/><path class="f7" d="M1448 1822 L1336 1710 L1336 1744 L1448 1856 Z" /></g><g class="o"><path transform="translate(5,10)" class="S sfh" d="M1050 1360 L865 1545 L903 1545 L1088 1360 Z"/><path class="fh6" d="M1050 1360 L865 1545 L903 1545 L1088 1360 Z" /></g><g class="o"><path transform="translate(6,12)" class="S sfv" d="M1428 1757 L1558 1627 L1558 1645 L1428 1775 Z"/><path class="fv4" d="M1428 1757 L1558 1627 L1558 1645 L1428 1775 Z" /></g><g class="o"><path transform="translate(5,10)" class="S sfh" d="M1078 1298 L1000 1220 L1022 1220 L1100 1298 Z"/><path class="fh5" d="M1078 1298 L1000 1220 L1022 1220 L1100 1298 Z" /></g><g class="o"><path transform="translate(4,8)" class="S sfh" d="M2013 2024 L1829 1840 L1849 1840 L2033 2024 Z"/><path class="fh4" d="M2013 2024 L1829 1840 L1849 1840 L2033 2024 Z" /></g><g class="o"><path transform="translate(8,16)" class="S ssv" d="M1518 1126 L1672 972 L1672 996 L1518 1150 Z"/><path class="sv1" d="M1518 1126 L1672 972 L1672 996 L1518 1150 Z" /></g><g class="o"><path transform="translate(9,18)" class="S ssh" d="M1336 1843 L1258 1765 L1284 1765 L1362 1843 Z"/><path class="sh7" d="M1336 1843 L1258 1765 L1284 1765 L1362 1843 Z" /></g><g class="o"><path transform="translate(7,14)" class="S sfv" d="M1282 1208 L1131 1057 L1131 1079 L1282 1230 Z"/><path class="fv4" d="M1282 1208 L1131 1057 L1131 1079 L1282 1230 Z" /></g><g class="o"><path transform="translate(4,8)" class="S sfh" d="M1872 1099 L1329 556 L1363 556 L1906 1099 Z"/><path class="fh3" d="M1872 1099 L1329 556 L1363 556 L1906 1099 Z" /></g><g class="o"><path transform="translate(6,12)" class="S sfv" d="M1595 1718 L1693 1620 L1693 1628 L1595 1726 Z"/><path class="fv3" d="M1595 1718 L1693 1620 L1693 1628 L1595 1726 Z" /></g><g class="o"><path transform="translate(4,8)" class="S sf" d="M941 1803 L1185 2047 L1221 2047 L977 1803 Z"/><path class="f1" d="M941 1803 L1185 2047 L1221 2047 L977 1803 Z" /></g><g class="o"><path transform="translate(7,14)" class="S sfh" d="M1849 1220 L1782 1153 L1804 1153 L1871 1220 Z"/><path class="fh2" d="M1849 1220 L1782 1153 L1804 1153 L1871 1220 Z" /></g><g class="o"><path transform="translate(3,6)" class="S ssv" d="M1449 1450 L1325 1326 L1325 1364 L1449 1488 Z"/><path class="sv2" d="M1449 1450 L1325 1326 L1325 1364 L1449 1488 Z" /></g><g class="o"><path transform="translate(5,10)" class="S sfv" d="M1298 1085 L1106 893 L1106 919 L1298 1111 Z"/><path class="fv4" d="M1298 1085 L1106 893 L1106 919 L1298 1111 Z" /></g><g class="o"><path transform="translate(5,10)" class="S ss" d="M1067 1876 L878 2065 L878 2081 L1067 1892 Z"/><path class="s7" d="M1067 1876 L878 2065 L878 2081 L1067 1892 Z" /></g><g class="o"><path transform="translate(7,14)" class="S sfv" d="M1574 1420 L857 703 L857 723 L1574 1440 Z"/><path class="fv6" d="M1574 1420 L857 703 L857 723 L1574 1440 Z" /></g><g class="o"><path transform="translate(7,14)" class="S sfh" d="M2004 1459 L2346 1117 L2354 1117 L2012 1459 Z"/><path class="fh5" d="M2004 1459 L2346 1117 L2354 1117 L2012 1459 Z" /></g><g class="o"><path transform="translate(6,12)" class="S ssh" d="M1129 1540 L1208 1461 L1236 1461 L1157 1540 Z"/><path class="sh6" d="M1129 1540 L1208 1461 L1236 1461 L1157 1540 Z" /></g><g class="o"><path transform="translate(4,8)" class="S sfh" d="M1448 1723 L1376 1795 L1386 1795 L1458 1723 Z"/><path class="fh1" d="M1448 1723 L1376 1795 L1386 1795 L1458 1723 Z" /></g><g class="o"><path transform="translate(6,12)" class="S sfh" d="M1039 1078 L1164 1203 L1196 1203 L1071 1078 Z"/><path class="fh6" d="M1039 1078 L1164 1203 L1196 1203 L1071 1078 Z" /></g><g class="o"><path transform="translate(8,16)" class="S sfv" d="M1366 1703 L1294 1775 L1294 1795 L1366 1723 Z"/><path class="fv7" d="M1366 1703 L1294 1775 L1294 1795 L1366 1723 Z" /></g><g class="o"><path transform="translate(3,6)" class="S sfh" d="M1867 1780 L2039 1952 L2061 1952 L1889 1780 Z"/><path class="fh3" d="M1867 1780 L2039 1952 L2061 1952 L1889 1780 Z" /></g><g class="o"><path transform="translate(7,14)" class="S sfv" d="M2022 1651 L2205 1468 L2205 1484 L2022 1667 Z"/><path class="fv4" d="M2022 1651 L2205 1468 L2205 1484 L2022 1667 Z" /></g><g class="o"><path transform="translate(4,8)" class="S sfv" d="M1143 1839 L1213 1909 L1213 1939 L1143 1869 Z"/><path class="fv6" d="M1143 1839 L1213 1909 L1213 1939 L1143 1869 Z" /></g><g class="o"><path transform="translate(3,6)" class="S sfh" d="M1965 1597 L1473 1105 L1561 1105 L2053 1597 Z"/><path class="fh4" d="M1965 1597 L1473 1105 L1561 1105 L2053 1597 Z" /></g><g class="o"><path transform="translate(4,8)" class="S sfh" d="M1015 984 L907 876 L935 876 L1043 984 Z"/><path class="fh3" d="M1015 984 L907 876 L935 876 L1043 984 Z" /></g><g class="o"><path transform="translate(3,6)" class="S sfv" d="M1593 2037 L1369 1813 L1369 1837 L1593 2061 Z"/><path class="fv3" d="M1593 2037 L1369 1813 L1369 1837 L1593 2061 Z" /></g><g class="o"><path transform="translate(7,14)" class="S sf" d="M1578 1230 L2184 624 L2200 624 L1594 1230 Z"/><path class="f4" d="M1578 1230 L2184 624 L2200 624 L1594 1230 Z" /></g><g class="o"><path transform="translate(8,16)" class="S sf" d="M1777 1844 L1564 1631 L1576 1631 L1789 1844 Z"/><path class="f7" d="M1777 1844 L1564 1631 L1576 1631 L1789 1844 Z" /></g><g class="o"><path transform="translate(4,8)" class="S ssh" d="M1694 1846 L1549 1701 L1575 1701 L1720 1846 Z"/><path class="sh2" d="M1694 1846 L1549 1701 L1575 1701 L1720 1846 Z" /></g><g class="o"><path transform="translate(3,6)" class="S sf" d="M1027 1933 L790 1696 L820 1696 L1057 1933 Z"/><path class="f5" d="M1027 1933 L790 1696 L820 1696 L1057 1933 Z" /></g><g class="o"><path transform="translate(2,4)" class="S sf" d="M1856 1950 L1691 2115 L1691 2139 L1856 1974 Z"/><path class="f3" d="M1856 1950 L1691 2115 L1691 2139 L1856 1974 Z" /></g><g class="o"><path transform="translate(4,8)" class="S sfh" d="M1811 1708 L1586 1933 L1624 1933 L1849 1708 Z"/><path class="fh3" d="M1811 1708 L1586 1933 L1624 1933 L1849 1708 Z" /></g><g class="o"><path transform="translate(5,10)" class="S sfh" d="M1563 1882 L1676 1995 L1724 1995 L1611 1882 Z"/><path class="fh7" d="M1563 1882 L1676 1995 L1724 1995 L1611 1882 Z" /></g><g class="o"><path transform="translate(4,8)" class="S sfh" d="M1190 1378 L761 1807 L799 1807 L1228 1378 Z"/><path class="fh5" d="M1190 1378 L761 1807 L799 1807 L1228 1378 Z" /></g><g class="o"><path transform="translate(5,10)" class="S sfv" d="M1382 1269 L1309 1196 L1309 1208 L1382 1281 Z"/><path class="fv5" d="M1382 1269 L1309 1196 L1309 1208 L1382 1281 Z" /></g><g class="o"><path transform="translate(2,4)" class="S sfv" d="M1968 1626 L1765 1829 L1765 1867 L1968 1664 Z"/><path class="fv3" d="M1968 1626 L1765 1829 L1765 1867 L1968 1664 Z" /></g><g class="o"><path transform="translate(6,12)" class="S ssv" d="M1401 1424 L1593 1616 L1593 1650 L1401 1458 Z"/><path class="sv1" d="M1401 1424 L1593 1616 L1593 1650 L1401 1458 Z" /></g></g><use href="#slashes" transform-origin="1500 1500" transform="rotate(180) scale(2)"/></g><rect x="1080" y="1080" width="840" height="840" stroke-width="80" class="o ss" /><use href="#slashes" transform-origin="1500 1500" transform="scale(.6)"/><use href="#slashes" transform-origin="1500 1500" transform="rotate(180) scale(.6)"/></svg>