<svg xmlns="http://www.w3.org/2000/svg" viewBox="750 750 1500 1500"><style>/*<![CDATA[*/svg{background:rgb(34,34,34);max-width:100vw;max-height:100vh}path{stroke-width:4}.o{opacity:.75}.S{opacity:.4}.sf{stroke:none;fill:black}.sfh{stroke:none;fill:url(#hs)}.sfv{stroke:none;fill:url(#vs)}.ss{stroke:black;fill:none}.ssh{stroke:url(#hs);fill:none}.ssv{stroke:url(#vs);fill:none}.s1{fill:none;stroke:rgb(169,188,208)}.f1{stroke:none;fill:rgb(169,188,208)}.sh1{fill:none;stroke:url(#h1)}.fh1{stroke:none;fill:url(#h1)}.sv1{fill:none;stroke:url(#v1)}.fv1{stroke:none;fill:url(#v1)}.s2{fill:none;stroke:rgb(55,63,81)}.f2{stroke:none;fill:rgb(55,63,81)}.sh2{fill:none;stroke:url(#h2)}.fh2{stroke:none;fill:url(#h2)}.sv2{fill:none;stroke:url(#v2)}.fv2{stroke:none;fill:url(#v2)}.s3{fill:none;stroke:rgb(216,219,226)}.f3{stroke:none;fill:rgb(216,219,226)}.sh3{fill:none;stroke:url(#h3)}.fh3{stroke:none;fill:url(#h3)}.sv3{fill:none;stroke:url(#v3)}.fv3{stroke:none;fill:url(#v3)}.s4{fill:none;stroke:rgb(27,27,30)}.f4{stroke:none;fill:rgb(27,27,30)}.sh4{fill:none;stroke:url(#h4)}.fh4{stroke:none;fill:url(#h4)}.sv4{fill:none;stroke:url(#v4)}.fv4{stroke:none;fill:url(#v4)}.s5{fill:none;stroke:rgb(88,164,176)}.f5{stroke:none;fill:rgb(88,164,176)}.sh5{fill:none;stroke:url(#h5)}.fh5{stroke:none;fill:url(#h5)}.sv5{fill:none;stroke:url(#v5)}.fv5{stroke:none;fill:url(#v5)}.s6{fill:none;stroke:rgb(255,255,255)}.f6{stroke:none;fill:rgb(255,255,255)}.sh6{fill:none;stroke:url(#h6)}.fh6{stroke:none;fill:url(#h6)}.sv6{fill:none;stroke:url(#v6)}.fv6{stroke:none;fill:url(#v6)}.s7{fill:none;stroke:rgb(255,255,0)}.f7{stroke:none;fill:rgb(255,255,0)}.sh7{fill:none;stroke:url(#h7)}.fh7{stroke:none;fill:url(#h7)}.sv7{fill:none;stroke:url(#v7)}.fv7{stroke:none;fill:url(#v7)}/*]]>*/</style><defs><linearGradient gradientTransform="rotate(90)" id="hs"><stop offset="20%" stop-color="#000" /><stop offset="95%" stop-color="rgba(0, 0, 0, 0)" /></linearGradient><linearGradient id="vs"><stop offset="20%" stop-color="#000" /><stop offset="95%" stop-color="rgba(0, 0, 0, 0)" /></linearGradient><linearGradient gradientTransform="rotate(90)" id="h1"><stop offset="20%" stop-color="rgba(169,188,208,1)" /><stop offset="95%" stop-color="rgba(169,188,208,0)" /></linearGradient><linearGradient id="v1"><stop offset="20%" stop-color="rgba(169,188,208,1)" /><stop offset="95%" stop-color="rgba(169,188,208,0)" /></linearGradient><linearGradient gradientTransform="rotate(90)" id="h2"><stop offset="20%" stop-color="rgba(55,63,81,1)" /><stop offset="95%" stop-color="rgba(55,63,81,0)" /></linearGradient><linearGradient id="v2"><stop offset="20%" stop-color="rgba(55,63,81,1)" /><stop offset="95%" stop-color="rgba(55,63,81,0)" /></linearGradient><linearGradient gradientTransform="rotate(90)" id="h3"><stop offset="20%" stop-color="rgba(216,219,226,1)" /><stop offset="95%" stop-color="rgba(216,219,226,0)" /></linearGradient><linearGradient id="v3"><stop offset="20%" stop-color="rgba(216,219,226,1)" /><stop offset="95%" stop-color="rgba(216,219,226,0)" /></linearGradient><linearGradient gradientTransform="rotate(90)" id="h4"><stop offset="20%" stop-color="rgba(27,27,30,1)" /><stop offset="95%" stop-color="rgba(27,27,30,0)" /></linearGradient><linearGradient id="v4"><stop offset="20%" stop-color="rgba(27,27,30,1)" /><stop offset="95%" stop-color="rgba(27,27,30,0)" /></linearGradient><linearGradient gradientTransform="rotate(90)" id="h5"><stop offset="20%" stop-color="rgba(88,164,176,1)" /><stop offset="95%" stop-color="rgba(88,164,176,0)" /></linearGradient><linearGradient id="v5"><stop offset="20%" stop-color="rgba(88,164,176,1)" /><stop offset="95%" stop-color="rgba(88,164,176,0)" /></linearGradient><linearGradient gradientTransform="rotate(90)" id="h6"><stop offset="20%" stop-color="rgba(255,255,255,1)" /><stop offset="95%" stop-color="rgba(255,255,255,0)" /></linearGradient><linearGradient id="v6"><stop offset="20%" stop-color="rgba(255,255,255,1)" /><stop offset="95%" stop-color="rgba(255,255,255,0)" /></linearGradient><linearGradient gradientTransform="rotate(90)" id="h7"><stop offset="20%" stop-color="rgba(255,255,0,1)" /><stop offset="95%" stop-color="rgba(255,255,0,0)" /></linearGradient><linearGradient id="v7"><stop offset="20%" stop-color="rgba(255,255,0,1)" /><stop offset="95%" stop-color="rgba(255,255,0,0)" /></linearGradient></defs><g transform-origin="1500 1500" transform="scale(2)" opacity=".2"><g id="slashes"><g class="o"><path transform="translate(6,12)" class="S sfv" d="M1207 1161 L1864 504 L1864 534 L1207 1191 Z"/><path class="fv2" d="M1207 1161 L1864 504 L1864 534 L1207 1191 Z" /></g><g class="o"><path transform="translate(4,8)" class="S ssh" d="M1853 962 L1803 1012 L1907 1012 L1957 962 Z"/><path class="sh7" d="M1853 962 L1803 1012 L1907 1012 L1957 962 Z" /></g><g class="o"><path transform="translate(3,6)" class="S sfv" d="M1361 1843 L1599 2081 L1599 2109 L1361 1871 Z"/><path class="fv4" d="M1361 1843 L1599 2081 L1599 2109 L1361 1871 Z" /></g><g class="o"><path transform="translate(9,18)" class="S sfh" d="M1464 1423 L1539 1498 L1573 1498 L1498 1423 Z"/><path class="fh6" d="M1464 1423 L1539 1498 L1573 1498 L1498 1423 Z" /></g><g class="o"><path transform="translate(4,8)" class="S sfh" d="M1630 981 L1420 1191 L1430 1191 L1640 981 Z"/><path class="fh6" d="M1630 981 L1420 1191 L1430 1191 L1640 981 Z" /></g><g class="o"><path transform="translate(9,18)" class="S sfh" d="M969 1848 L1083 1962 L1117 1962 L1003 1848 Z"/><path class="fh4" d="M969 1848 L1083 1962 L1117 1962 L1003 1848 Z" /></g><g class="o"><path transform="translate(5,10)" class="S sfh" d="M921 1109 L796 1234 L884 1234 L1009 1109 Z"/><path class="fh7" d="M921 1109 L796 1234 L884 1234 L1009 1109 Z" /></g><g class="o"><path transform="translate(6,12)" class="S sfh" d="M1283 1282 L893 892 L923 892 L1313 1282 Z"/><path class="fh4" d="M1283 1282 L893 892 L923 892 L1313 1282 Z" /></g><g class="o"><path transform="translate(3,6)" class="S sfv" d="M1983 1825 L1928 1880 L1928 1904 L1983 1849 Z"/><path class="fv2" d="M1983 1825 L1928 1880 L1928 1904 L1983 1849 Z" /></g><g class="o"><path transform="translate(6,12)" class="S sfh" d="M1387 1215 L1569 1033 L1585 1033 L1403 1215 Z"/><path class="fh4" d="M1387 1215 L1569 1033 L1585 1033 L1403 1215 Z" /></g><g class="o"><path transform="translate(6,12)" class="S sfh" d="M1813 1619 L1942 1748 L1956 1748 L1827 1619 Z"/><path class="fh2" d="M1813 1619 L1942 1748 L1956 1748 L1827 1619 Z" /></g><g class="o"><path transform="translate(4,8)" class="S sfv" d="M1871 1412 L1961 1502 L1961 1520 L1871 1430 Z"/><path class="fv1" d="M1871 1412 L1961 1502 L1961 1520 L1871 1430 Z" /></g><g class="o"><path transform="translate(4,8)" class="S sfh" d="M942 1956 L1189 2203 L1213 2203 L966 1956 Z"/><path class="fh7" d="M942 1956 L1189 2203 L1213 2203 L966 1956 Z" /></g><g class="o"><path transform="translate(6,12)" class="S sfv" d="M1999 1334 L1252 2081 L1252 2113 L1999 1366 Z"/><path class="fv3" d="M1999 1334 L1252 2081 L1252 2113 L1999 1366 Z" /></g><g class="o"><path transform="translate(5,10)" class="S sfv" d="M1008 1462 L1221 1675 L1221 1687 L1008 1474 Z"/><path class="fv6" d="M1008 1462 L1221 1675 L1221 1687 L1008 1474 Z" /></g><g class="o"><path transform="translate(4,8)" class="S sfv" d="M1794 1143 L1616 1321 L1616 1359 L1794 1181 Z"/><path class="fv5" d="M1794 1143 L1616 1321 L1616 1359 L1794 1181 Z" /></g><g class="o"><path transform="translate(8,16)" class="S sfh" d="M1309 1158 L1412 1055 L1484 1055 L1381 1158 Z"/><path class="fh7" d="M1309 1158 L1412 1055 L1484 1055 L1381 1158 Z" /></g><g class="o"><path transform="translate(5,10)" class="S sfv" d="M1418 1802 L1285 1935 L1285 1965 L1418 1832 Z"/><path class="fv3" d="M1418 1802 L1285 1935 L1285 1965 L1418 1832 Z" /></g><g class="o"><path transform="translate(7,14)" class="S sfh" d="M993 1721 L757 1957 L771 1957 L1007 1721 Z"/><path class="fh2" d="M993 1721 L757 1957 L771 1957 L1007 1721 Z" /></g><g class="o"><path transform="translate(6,12)" class="S sfv" d="M1712 1746 L1815 1849 L1815 1883 L1712 1780 Z"/><path class="fv1" d="M1712 1746 L1815 1849 L1815 1883 L1712 1780 Z" /></g><g class="o"><path transform="translate(7,14)" class="S ssv" d="M1244 1737 L999 1982 L999 2012 L1244 1767 Z"/><path class="sv1" d="M1244 1737 L999 1982 L999 2012 L1244 1767 Z" /></g><g class="o"><path transform="translate(6,12)" class="S sfh" d="M1158 1892 L1393 2127 L1401 2127 L1166 1892 Z"/><path class="fh2" d="M1158 1892 L1393 2127 L1401 2127 L1166 1892 Z" /></g><g class="o"><path transform="translate(2,4)" class="S sfv" d="M1438 1476 L1831 1083 L1831 1097 L1438 1490 Z"/><path class="fv3" d="M1438 1476 L1831 1083 L1831 1097 L1438 1490 Z" /></g><g class="o"><path transform="translate(4,8)" class="S sfh" d="M1284 1005 L1365 1086 L1397 1086 L1316 1005 Z"/><path class="fh4" d="M1284 1005 L1365 1086 L1397 1086 L1316 1005 Z" /></g><g class="o"><path transform="translate(8,16)" class="S sfh" d="M1284 1343 L789 848 L817 848 L1312 1343 Z"/><path class="fh4" d="M1284 1343 L789 848 L817 848 L1312 1343 Z" /></g><g class="o"><path transform="translate(7,14)" class="S ssv" d="M1802 1413 L1981 1592 L1981 1616 L1802 1437 Z"/><path class="sv3" d="M1802 1413 L1981 1592 L1981 1616 L1802 1437 Z" /></g><g class="o"><path transform="translate(3,6)" class="S sfv" d="M2035 2045 L1534 1544 L1534 1552 L2035 2053 Z"/><path class="fv4" d="M2035 2045 L1534 1544 L1534 1552 L2035 2053 Z" /></g><g class="o"><path transform="translate(3,6)" class="S ssv" d="M1526 1096 L1306 876 L1306 900 L1526 1120 Z"/><path class="sv2" d="M1526 1096 L1306 876 L1306 900 L1526 1120 Z" /></g><g class="o"><path transform="translate(8,16)" class="S sfh" d="M1372 993 L964 1401 L974 1401 L1382 993 Z"/><path class="fh6" d="M1372 993 L964 1401 L974 1401 L1382 993 Z" /></g><g class="o"><path transform="translate(7,14)" class="S sfh" d="M1385 1822 L1585 1622 L1613 1622 L1413 1822 Z"/><path class="fh1" d="M1385 1822 L1585 1622 L1613 1622 L1413 1822 Z" /></g><g class="o"><path transform="translate(5,10)" class="S ssv" d="M1806 1010 L1727 1089 L1727 1123 L1806 1044 Z"/><path class="sv1" d="M1806 1010 L1727 1089 L1727 1123 L1806 1044 Z" /></g><g class="o"><path transform="translate(3,6)" class="S sfh" d="M1516 1745 L1645 1874 L1667 1874 L1538 1745 Z"/><path class="fh6" d="M1516 1745 L1645 1874 L1667 1874 L1538 1745 Z" /></g><g class="o"><path transform="translate(5,10)" class="S sfv" d="M1571 1592 L1638 1525 L1638 1551 L1571 1618 Z"/><path class="fv2" d="M1571 1592 L1638 1525 L1638 1551 L1571 1618 Z" /></g><g class="o"><path transform="translate(9,18)" class="S sfh" d="M2025 1244 L2244 1025 L2266 1025 L2047 1244 Z"/><path class="fh6" d="M2025 1244 L2244 1025 L2266 1025 L2047 1244 Z" /></g><g class="o"><path transform="translate(2,4)" class="S ssh" d="M1863 1867 L2020 1710 L2050 1710 L1893 1867 Z"/><path class="sh7" d="M1863 1867 L2020 1710 L2050 1710 L1893 1867 Z" /></g><g class="o"><path transform="translate(4,8)" class="S sfv" d="M995 1027 L756 788 L756 796 L995 1035 Z"/><path class="fv7" d="M995 1027 L756 788 L756 796 L995 1035 Z" /></g><g class="o"><path transform="translate(7,14)" class="S sfv" d="M1668 1819 L1911 2062 L1911 2080 L1668 1837 Z"/><path class="fv2" d="M1668 1819 L1911 2062 L1911 2080 L1668 1837 Z" /></g><g class="o"><path transform="translate(2,4)" class="S ssv" d="M1004 1714 L891 1601 L891 1633 L1004 1746 Z"/><path class="sv7" d="M1004 1714 L891 1601 L891 1633 L1004 1746 Z" /></g><g class="o"><path transform="translate(6,12)" class="S ssh" d="M1898 1646 L1704 1840 L1738 1840 L1932 1646 Z"/><path class="sh7" d="M1898 1646 L1704 1840 L1738 1840 L1932 1646 Z" /></g><g class="o"><path transform="translate(3,6)" class="S sfh" d="M1112 1564 L1015 1467 L1047 1467 L1144 1564 Z"/><path class="fh4" d="M1112 1564 L1015 1467 L1047 1467 L1144 1564 Z" /></g><g class="o"><path transform="translate(7,14)" class="S sfh" d="M1751 1958 L1953 2160 L1981 2160 L1779 1958 Z"/><path class="fh7" d="M1751 1958 L1953 2160 L1981 2160 L1779 1958 Z" /></g><g class="o"><path transform="translate(5,10)" class="S sfv" d="M1381 1522 L1255 1648 L1255 1674 L1381 1548 Z"/><path class="fv1" d="M1381 1522 L1255 1648 L1255 1674 L1381 1548 Z" /></g><g class="o"><path transform="translate(4,8)" class="S sfh" d="M1950 1065 L2015 1000 L2039 1000 L1974 1065 Z"/><path class="fh7" d="M1950 1065 L2015 1000 L2039 1000 L1974 1065 Z" /></g><g class="o"><path transform="translate(9,18)" class="S sfh" d="M1194 1089 L1095 990 L1107 990 L1206 1089 Z"/><path class="fh5" d="M1194 1089 L1095 990 L1107 990 L1206 1089 Z" /></g><g class="o"><path transform="translate(8,16)" class="S sfv" d="M1464 1864 L1269 2059 L1269 2069 L1464 1874 Z"/><path class="fv6" d="M1464 1864 L1269 2059 L1269 2069 L1464 1874 Z" /></g><g class="o"><path transform="translate(3,6)" class="S sfh" d="M1320 1028 L897 1451 L925 1451 L1348 1028 Z"/><path class="fh4" d="M1320 1028 L897 1451 L925 1451 L1348 1028 Z" /></g><g class="o"><path transform="translate(6,12)" class="S sfv" d="M1330 1664 L1473 1807 L1473 1835 L1330 1692 Z"/><path class="fv5" d="M1330 1664 L1473 1807 L1473 1835 L1330 1692 Z" /></g><g class="o"><path transform="translate(8,16)" class="S sfv" d="M1547 1527 L1627 1447 L1627 1481 L1547 1561 Z"/><path class="fv6" d="M1547 1527 L1627 1447 L1627 1481 L1547 1561 Z" /></g><g class="o"><path transform="translate(3,6)" class="S ssh" d="M1630 1326 L1440 1136 L1448 1136 L1638 1326 Z"/><path class="sh2" d="M1630 1326 L1440 1136 L1448 1136 L1638 1326 Z" /></g><g class="o"><path transform="translate(2,4)" class="S ssh" d="M2003 1843 L1691 1531 L1729 1531 L2041 1843 Z"/><path class="sh4" d="M2003 1843 L1691 1531 L1729 1531 L2041 1843 Z" /></g><g class="o"><path transform="translate(8,16)" class="S sfv" d="M1700 1323 L1598 1221 L1598 1235 L1700 1337 Z"/><path class="fv2" d="M1700 1323 L1598 1221 L1598 1235 L1700 1337 Z" /></g><g class="o"><path transform="translate(7,14)" class="S sfh" d="M1151 1124 L1241 1214 L1259 1214 L1169 1124 Z"/><path class="fh3" d="M1151 1124 L1241 1214 L1259 1214 L1169 1124 Z" /></g><g class="o"><path transform="translate(5,10)" class="S sfv" d="M1335 1413 L1553 1631 L1553 1711 L1335 1493 Z"/><path class="fv2" d="M1335 1413 L1553 1631 L1553 1711 L1335 1493 Z" /></g><g class="o"><path transform="translate(2,4)" class="S sfv" d="M2003 1614 L1820 1797 L1820 1819 L2003 1636 Z"/><path class="fv2" d="M2003 1614 L1820 1797 L1820 1819 L2003 1636 Z" /></g><g class="o"><path transform="translate(4,8)" class="S sfv" d="M1241 1967 L1479 1729 L1479 1759 L1241 1997 Z"/><path class="fv6" d="M1241 1967 L1479 1729 L1479 1759 L1241 1997 Z" /></g><g class="o"><path transform="translate(6,12)" class="S sfv" d="M1149 1231 L1376 1458 L1376 1466 L1149 1239 Z"/><path class="fv4" d="M1149 1231 L1376 1458 L1376 1466 L1149 1239 Z" /></g><g class="o"><path transform="translate(4,8)" class="S ssh" d="M1205 1576 L1009 1772 L1049 1772 L1245 1576 Z"/><path class="sh7" d="M1205 1576 L1009 1772 L1049 1772 L1245 1576 Z" /></g><g class="o"><path transform="translate(2,4)" class="S sfh" d="M1130 1615 L881 1864 L919 1864 L1168 1615 Z"/><path class="fh2" d="M1130 1615 L881 1864 L919 1864 L1168 1615 Z" /></g><g class="o"><path transform="translate(3,6)" class="S ssh" d="M1789 1009 L2197 1417 L2231 1417 L1823 1009 Z"/><path class="sh4" d="M1789 1009 L2197 1417 L2231 1417 L1823 1009 Z" /></g><g class="o"><path transform="translate(4,8)" class="S sfh" d="M1296 1484 L1143 1637 L1153 1637 L1306 1484 Z"/><path class="fh3" d="M1296 1484 L1143 1637 L1153 1637 L1306 1484 Z" /></g><g class="o"><path transform="translate(8,16)" class="S sfh" d="M1124 1751 L1202 1673 L1232 1673 L1154 1751 Z"/><path class="fh6" d="M1124 1751 L1202 1673 L1232 1673 L1154 1751 Z" /></g><g class="o"><path transform="translate(6,12)" class="S sfv" d="M1249 1790 L1368 1671 L1368 1687 L1249 1806 Z"/><path class="fv2" d="M1249 1790 L1368 1671 L1368 1687 L1249 1806 Z" /></g><g class="o"><path transform="translate(6,12)" class="S sfh" d="M1601 1845 L1665 1781 L1691 1781 L1627 1845 Z"/><path class="fh1" d="M1601 1845 L1665 1781 L1691 1781 L1627 1845 Z" /></g><g class="o"><path transform="translate(4,8)" class="S ssv" d="M1376 1767 L1199 1944 L1199 1976 L1376 1799 Z"/><path class="sv7" d="M1376 1767 L1199 1944 L1199 1976 L1376 1799 Z" /></g><g class="o"><path transform="translate(2,4)" class="S sfv" d="M1904 1683 L1775 1554 L1775 1572 L1904 1701 Z"/><path class="fv6" d="M1904 1683 L1775 1554 L1775 1572 L1904 1701 Z" /></g><g class="o"><path transform="translate(3,6)" class="S sfv" d="M1331 1540 L1486 1695 L1486 1715 L1331 1560 Z"/><path class="fv1" d="M1331 1540 L1486 1695 L1486 1715 L1331 1560 Z" /></g><g class="o"><path transform="translate(8,16)" class="S sfh" d="M1834 1487 L2005 1316 L2041 1316 L1870 1487 Z"/><path class="fh6" d="M1834 1487 L2005 1316 L2041 1316 L1870 1487 Z" /></g><g class="o"><path transform="translate(5,10)" class="S sfh" d="M1527 1662 L1763 1426 L1785 1426 L1549 1662 Z"/><path class="fh1" d="M1527 1662 L1763 1426 L1785 1426 L1549 1662 Z" /></g><g class="o"><path transform="translate(6,12)" class="S sfv" d="M1091 1493 L1271 1673 L1271 1709 L1091 1529 Z"/><path class="fv5" d="M1091 1493 L1271 1673 L1271 1709 L1091 1529 Z" /></g><g class="o"><path transform="translate(6,12)" class="S sfv" d="M1345 1548 L1165 1368 L1165 1384 L1345 1564 Z"/><path class="fv3" d="M1345 1548 L1165 1368 L1165 1384 L1345 1564 Z" /></g><g class="o"><path transform="translate(2,4)" class="S sfv" d="M1959 1570 L2146 1757 L2146 1853 L1959 1666 Z"/><path class="fv3" d="M1959 1570 L2146 1757 L2146 1853 L1959 1666 Z" /></g><g class="o"><path transform="translate(4,8)" class="S sfv" d="M1878 1519 L1149 2248 L1149 2256 L1878 1527 Z"/><path class="fv6" d="M1878 1519 L1149 2248 L1149 2256 L1878 1527 Z" /></g><g class="o"><path transform="translate(2,4)" class="S sfv" d="M1462 1831 L1858 2227 L1858 2331 L1462 1935 Z"/><path class="fv5" d="M1462 1831 L1858 2227 L1858 2331 L1462 1935 Z" /></g><g class="o"><path transform="translate(5,10)" class="S ssh" d="M1613 1933 L1395 2151 L1433 2151 L1651 1933 Z"/><path class="sh2" d="M1613 1933 L1395 2151 L1433 2151 L1651 1933 Z" /></g><g class="o"><path transform="translate(7,14)" class="S ssh" d="M1056 1594 L1165 1703 L1183 1703 L1074 1594 Z"/><path class="sh2" d="M1056 1594 L1165 1703 L1183 1703 L1074 1594 Z" /></g><g class="o"><path transform="translate(9,18)" class="S ssv" d="M1164 1297 L958 1503 L958 1537 L1164 1331 Z"/><path class="sv1" d="M1164 1297 L958 1503 L958 1537 L1164 1331 Z" /></g><g class="o"><path transform="translate(4,8)" class="S ssh" d="M1413 952 L1490 1029 L1498 1029 L1421 952 Z"/><path class="sh3" d="M1413 952 L1490 1029 L1498 1029 L1421 952 Z" /></g><g class="o"><path transform="translate(6,12)" class="S sfh" d="M1702 1002 L1540 840 L1564 840 L1726 1002 Z"/><path class="fh3" d="M1702 1002 L1540 840 L1564 840 L1726 1002 Z" /></g><g class="o"><path transform="translate(9,18)" class="S sfh" d="M1863 980 L1755 872 L1765 872 L1873 980 Z"/><path class="fh3" d="M1863 980 L1755 872 L1765 872 L1873 980 Z" /></g><g class="o"><path transform="translate(9,18)" class="S sfh" d="M1522 2029 L1015 2536 L1025 2536 L1532 2029 Z"/><path class="fh3" d="M1522 2029 L1015 2536 L1025 2536 L1532 2029 Z" /></g><g class="o"><path transform="translate(5,10)" class="S sfh" d="M1870 1573 L1730 1713 L1758 1713 L1898 1573 Z"/><path class="fh3" d="M1870 1573 L1730 1713 L1758 1713 L1898 1573 Z" /></g><g class="o"><path transform="translate(4,8)" class="S sfh" d="M1995 1863 L1803 1671 L1813 1671 L2005 1863 Z"/><path class="fh6" d="M1995 1863 L1803 1671 L1813 1671 L2005 1863 Z" /></g><g class="o"><path transform="translate(9,18)" class="S sfv" d="M1542 1503 L927 2118 L927 2270 L1542 1655 Z"/><path class="fv5" d="M1542 1503 L927 2118 L927 2270 L1542 1655 Z" /></g><g class="o"><path transform="translate(9,18)" class="S sfh" d="M1520 1464 L1668 1612 L1684 1612 L1536 1464 Z"/><path class="fh6" d="M1520 1464 L1668 1612 L1684 1612 L1536 1464 Z" /></g><g class="o"><path transform="translate(4,8)" class="S sfh" d="M1896 1049 L1804 1141 L1818 1141 L1910 1049 Z"/><path class="fh7" d="M1896 1049 L1804 1141 L1818 1141 L1910 1049 Z" /></g><g class="o"><path transform="translate(5,10)" class="S sfv" d="M1192 956 L1370 778 L1370 796 L1192 974 Z"/><path class="fv5" d="M1192 956 L1370 778 L1370 796 L1192 974 Z" /></g><g class="o"><path transform="translate(5,10)" class="S ssh" d="M1141 1518 L1193 1466 L1207 1466 L1155 1518 Z"/><path class="sh3" d="M1141 1518 L1193 1466 L1207 1466 L1155 1518 Z" /></g><g class="o"><path transform="translate(8,16)" class="S sfv" d="M1644 1855 L1704 1915 L1704 1941 L1644 1881 Z"/><path class="fv3" d="M1644 1855 L1704 1915 L1704 1941 L1644 1881 Z" /></g><g class="o"><path transform="translate(6,12)" class="S sfv" d="M1677 944 L1890 731 L1890 811 L1677 1024 Z"/><path class="fv6" d="M1677 944 L1890 731 L1890 811 L1677 1024 Z" /></g><g class="o"><path transform="translate(2,4)" class="S sfh" d="M1048 1638 L1259 1849 L1283 1849 L1072 1638 Z"/><path class="fh5" d="M1048 1638 L1259 1849 L1283 1849 L1072 1638 Z" /></g><g class="o"><path transform="translate(5,10)" class="S sfv" d="M1249 1134 L1166 1051 L1166 1073 L1249 1156 Z"/><path class="fv2" d="M1249 1134 L1166 1051 L1166 1073 L1249 1156 Z" /></g><g class="o"><path transform="translate(4,8)" class="S sfh" d="M1349 1970 L926 1547 L938 1547 L1361 1970 Z"/><path class="fh7" d="M1349 1970 L926 1547 L938 1547 L1361 1970 Z" /></g><g class="o"><path transform="translate(5,10)" class="S sfv" d="M1376 1764 L1156 1544 L1156 1624 L1376 1844 Z"/><path class="fv6" d="M1376 1764 L1156 1544 L1156 1624 L1376 1844 Z" /></g><g class="o"><path transform="translate(9,18)" class="S sfh" d="M1908 1584 L2041 1451 L2063 1451 L1930 1584 Z"/><path class="fh1" d="M1908 1584 L2041 1451 L2063 1451 L1930 1584 Z" /></g><g class="o"><path transform="translate(3,6)" class="S ssv" d="M1777 1774 L1908 1643 L1908 1665 L1777 1796 Z"/><path class="sv7" d="M1777 1774 L1908 1643 L1908 1665 L1777 1796 Z" /></g><g class="o"><path transform="translate(3,6)" class="S sfv" d="M1529 1100 L1772 857 L1772 887 L1529 1130 Z"/><path class="fv4" d="M1529 1100 L1772 857 L1772 887 L1529 1130 Z" /></g><g class="o"><path transform="translate(7,14)" class="S sfh" d="M1690 1750 L1531 1909 L1557 1909 L1716 1750 Z"/><path class="fh1" d="M1690 1750 L1531 1909 L1557 1909 L1716 1750 Z" /></g><g class="o"><path transform="translate(5,10)" class="S sfh" d="M1771 1695 L1198 1122 L1224 1122 L1797 1695 Z"/><path class="fh4" d="M1771 1695 L1198 1122 L1224 1122 L1797 1695 Z" /></g><g class="o"><path transform="translate(5,10)" class="S sfh" d="M1774 1909 L1093 2590 L1113 2590 L1794 1909 Z"/><path class="fh5" d="M1774 1909 L1093 2590 L1113 2590 L1794 1909 Z" /></g><g class="o"><path transform="translate(9,18)" class="S sfh" d="M1045 1187 L801 1431 L815 1431 L1059 1187 Z"/><path class="fh2" d="M1045 1187 L801 1431 L815 1431 L1059 1187 Z" /></g><g class="o"><path transform="translate(8,16)" class="S sfv" d="M1771 1095 L1883 983 L1883 1013 L1771 1125 Z"/><path class="fv1" d="M1771 1095 L1883 983 L1883 1013 L1771 1125 Z" /></g><g class="o"><path transform="translate(2,4)" class="S sfv" d="M1252 1139 L949 1442 L949 1472 L1252 1169 Z"/><path class="fv3" d="M1252 1139 L949 1442 L949 1472 L1252 1169 Z" /></g><g class="o"><path transform="translate(5,10)" class="S sfv" d="M1633 1622 L1577 1678 L1577 1714 L1633 1658 Z"/><path class="fv3" d="M1633 1622 L1577 1678 L1577 1714 L1633 1658 Z" /></g><g class="o"><path transform="translate(8,16)" class="S sfv" d="M2034 1295 L1963 1366 L1963 1392 L2034 1321 Z"/><path class="fv2" d="M2034 1295 L1963 1366 L1963 1392 L2034 1321 Z" /></g><g class="o"><path transform="translate(2,4)" class="S ssv" d="M1849 1589 L2098 1838 L2098 1858 L1849 1609 Z"/><path class="sv2" d="M1849 1589 L2098 1838 L2098 1858 L1849 1609 Z" /></g><g class="o"><path transform="translate(2,4)" class="S sfv" d="M1285 1531 L1392 1638 L1392 1672 L1285 1565 Z"/><path class="fv1" d="M1285 1531 L1392 1638 L1392 1672 L1285 1565 Z" /></g><g class="o"><path transform="translate(4,8)" class="S sfh" d="M1038 1892 L953 1807 L967 1807 L1052 1892 Z"/><path class="fh7" d="M1038 1892 L953 1807 L967 1807 L1052 1892 Z" /></g><g class="o"><path transform="translate(9,18)" class="S sfh" d="M1348 1990 L1398 1940 L1436 1940 L1386 1990 Z"/><path class="fh5" d="M1348 1990 L1398 1940 L1436 1940 L1386 1990 Z" /></g><g class="o"><path transform="translate(8,16)" class="S sfh" d="M1827 2005 L1906 1926 L1926 1926 L1847 2005 Z"/><path class="fh1" d="M1827 2005 L1906 1926 L1926 1926 L1847 2005 Z" /></g><g class="o"><path transform="translate(6,12)" class="S sfh" d="M1332 1636 L1489 1793 L1519 1793 L1362 1636 Z"/><path class="fh1" d="M1332 1636 L1489 1793 L1519 1793 L1362 1636 Z" /></g><g class="o"><path transform="translate(2,4)" class="S sfh" d="M1496 1585 L1261 1820 L1269 1820 L1504 1585 Z"/><path class="fh5" d="M1496 1585 L1261 1820 L1269 1820 L1504 1585 Z" /></g><g class="o"><path transform="translate(6,12)" class="S sfh" d="M2014 1402 L1915 1303 L1943 1303 L2042 1402 Z"/><path class="fh3" d="M2014 1402 L1915 1303 L1943 1303 L2042 1402 Z" /></g><g class="o"><path transform="translate(3,6)" class="S sfh" d="M1346 1578 L1098 1330 L1110 1330 L1358 1578 Z"/><path class="fh3" d="M1346 1578 L1098 1330 L1110 1330 L1358 1578 Z" /></g><g class="o"><path transform="translate(2,4)" class="S sfv" d="M991 1642 L1570 2221 L1570 2237 L991 1658 Z"/><path class="fv2" d="M991 1642 L1570 2221 L1570 2237 L991 1658 Z" /></g><g class="o"><path transform="translate(5,10)" class="S sfh" d="M1148 1694 L939 1903 L975 1903 L1184 1694 Z"/><path class="fh4" d="M1148 1694 L939 1903 L975 1903 L1184 1694 Z" /></g><g class="o"><path transform="translate(3,6)" class="S sfh" d="M1733 1195 L1570 1032 L1586 1032 L1749 1195 Z"/><path class="fh3" d="M1733 1195 L1570 1032 L1586 1032 L1749 1195 Z" /></g><g class="o"><path transform="translate(5,10)" class="S sfv" d="M1365 1089 L1231 955 L1231 973 L1365 1107 Z"/><path class="fv5" d="M1365 1089 L1231 955 L1231 973 L1365 1107 Z" /></g><g class="o"><path transform="translate(7,14)" class="S sfh" d="M1645 1418 L1454 1227 L1474 1227 L1665 1418 Z"/><path class="fh3" d="M1645 1418 L1454 1227 L1474 1227 L1665 1418 Z" /></g><g class="o"><path transform="translate(8,16)" class="S sfv" d="M1888 1316 L1807 1235 L1807 1271 L1888 1352 Z"/><path class="fv2" d="M1888 1316 L1807 1235 L1807 1271 L1888 1352 Z" /></g><g class="o"><path transform="translate(8,16)" class="S sfv" d="M1232 1751 L1098 1617 L1098 1647 L1232 1781 Z"/><path class="fv4" d="M1232 1751 L1098 1617 L1098 1647 L1232 1781 Z" /></g></g><use href="#slashes" transform-origin="1500 1500" transform="rotate(180) scale(2)"/></g><rect x="1080" y="1080" width="840" height="840" stroke-width="20" class="o s1" /><use href="#slashes" transform-origin="1500 1500" transform="scale(.9)"/><use href="#slashes" transform-origin="1500 1500" transform="rotate(180) scale(.9)"/></svg>