<svg xmlns="http://www.w3.org/2000/svg" viewBox="750 750 1500 1500"><style>/*<![CDATA[*/svg{background:rgb(19,41,61);max-width:100vw;max-height:100vh}path{stroke-width:4}.o{opacity:.75}.S{opacity:.4}.sf{stroke:none;fill:black}.sfh{stroke:none;fill:url(#hs)}.sfv{stroke:none;fill:url(#vs)}.ss{stroke:black;fill:none}.ssh{stroke:url(#hs);fill:none}.ssv{stroke:url(#vs);fill:none}.s1{fill:none;stroke:rgb(0,100,148)}.f1{stroke:none;fill:rgb(0,100,148)}.sh1{fill:none;stroke:url(#h1)}.fh1{stroke:none;fill:url(#h1)}.sv1{fill:none;stroke:url(#v1)}.fv1{stroke:none;fill:url(#v1)}.s2{fill:none;stroke:rgb(27,152,224)}.f2{stroke:none;fill:rgb(27,152,224)}.sh2{fill:none;stroke:url(#h2)}.fh2{stroke:none;fill:url(#h2)}.sv2{fill:none;stroke:url(#v2)}.fv2{stroke:none;fill:url(#v2)}.s3{fill:none;stroke:rgb(34,34,34)}.f3{stroke:none;fill:rgb(34,34,34)}.sh3{fill:none;stroke:url(#h3)}.fh3{stroke:none;fill:url(#h3)}.sv3{fill:none;stroke:url(#v3)}.fv3{stroke:none;fill:url(#v3)}.s4{fill:none;stroke:rgb(36,123,160)}.f4{stroke:none;fill:rgb(36,123,160)}.sh4{fill:none;stroke:url(#h4)}.fh4{stroke:none;fill:url(#h4)}.sv4{fill:none;stroke:url(#v4)}.fv4{stroke:none;fill:url(#v4)}.s5{fill:none;stroke:rgb(232,241,242)}.f5{stroke:none;fill:rgb(232,241,242)}.sh5{fill:none;stroke:url(#h5)}.fh5{stroke:none;fill:url(#h5)}.sv5{fill:none;stroke:url(#v5)}.fv5{stroke:none;fill:url(#v5)}.s6{fill:none;stroke:rgb(255,255,255)}.f6{stroke:none;fill:rgb(255,255,255)}.sh6{fill:none;stroke:url(#h6)}.fh6{stroke:none;fill:url(#h6)}.sv6{fill:none;stroke:url(#v6)}.fv6{stroke:none;fill:url(#v6)}.s7{fill:none;stroke:rgb(255,255,0)}.f7{stroke:none;fill:rgb(255,255,0)}.sh7{fill:none;stroke:url(#h7)}.fh7{stroke:none;fill:url(#h7)}.sv7{fill:none;stroke:url(#v7)}.fv7{stroke:none;fill:url(#v7)}/*]]>*/</style><defs><linearGradient gradientTransform="rotate(90)" id="hs"><stop offset="20%" stop-color="#000" /><stop offset="95%" stop-color="rgba(0, 0, 0, 0)" /></linearGradient><linearGradient id="vs"><stop offset="20%" stop-color="#000" /><stop offset="95%" stop-color="rgba(0, 0, 0, 0)" /></linearGradient><linearGradient gradientTransform="rotate(90)" id="h1"><stop offset="20%" stop-color="rgba(0,100,148,1)" /><stop offset="95%" stop-color="rgba(0,100,148,0)" /></linearGradient><linearGradient id="v1"><stop offset="20%" stop-color="rgba(0,100,148,1)" /><stop offset="95%" stop-color="rgba(0,100,148,0)" /></linearGradient><linearGradient gradientTransform="rotate(90)" id="h2"><stop offset="20%" stop-color="rgba(27,152,224,1)" /><stop offset="95%" stop-color="rgba(27,152,224,0)" /></linearGradient><linearGradient id="v2"><stop offset="20%" stop-color="rgba(27,152,224,1)" /><stop offset="95%" stop-color="rgba(27,152,224,0)" /></linearGradient><linearGradient gradientTransform="rotate(90)" id="h3"><stop offset="20%" stop-color="rgba(34,34,34,1)" /><stop offset="95%" stop-color="rgba(34,34,34,0)" /></linearGradient><linearGradient id="v3"><stop offset="20%" stop-color="rgba(34,34,34,1)" /><stop offset="95%" stop-color="rgba(34,34,34,0)" /></linearGradient><linearGradient gradientTransform="rotate(90)" id="h4"><stop offset="20%" stop-color="rgba(36,123,160,1)" /><stop offset="95%" stop-color="rgba(36,123,160,0)" /></linearGradient><linearGradient id="v4"><stop offset="20%" stop-color="rgba(36,123,160,1)" /><stop offset="95%" stop-color="rgba(36,123,160,0)" /></linearGradient><linearGradient gradientTransform="rotate(90)" id="h5"><stop offset="20%" stop-color="rgba(232,241,242,1)" /><stop offset="95%" stop-color="rgba(232,241,242,0)" /></linearGradient><linearGradient id="v5"><stop offset="20%" stop-color="rgba(232,241,242,1)" /><stop offset="95%" stop-color="rgba(232,241,242,0)" /></linearGradient><linearGradient gradientTransform="rotate(90)" id="h6"><stop offset="20%" stop-color="rgba(255,255,255,1)" /><stop offset="95%" stop-color="rgba(255,255,255,0)" /></linearGradient><linearGradient id="v6"><stop offset="20%" stop-color="rgba(255,255,255,1)" /><stop offset="95%" stop-color="rgba(255,255,255,0)" /></linearGradient><linearGradient gradientTransform="rotate(90)" id="h7"><stop offset="20%" stop-color="rgba(255,255,0,1)" /><stop offset="95%" stop-color="rgba(255,255,0,0)" /></linearGradient><linearGradient id="v7"><stop offset="20%" stop-color="rgba(255,255,0,1)" /><stop offset="95%" stop-color="rgba(255,255,0,0)" /></linearGradient></defs><g transform-origin="1500 1500" transform="scale(2)" opacity=".2"><g id="slashes"><g class="o"><path transform="translate(7,14)" class="S sfh" d="M1824 1638 L1428 1242 L1438 1242 L1834 1638 Z"/><path class="fh1" d="M1824 1638 L1428 1242 L1438 1242 L1834 1638 Z" /></g><g class="o"><path transform="translate(5,10)" class="S sfv" d="M1817 2013 L1568 1764 L1568 1796 L1817 2045 Z"/><path class="fv7" d="M1817 2013 L1568 1764 L1568 1796 L1817 2045 Z" /></g><g class="o"><path transform="translate(8,16)" class="S sfv" d="M1350 1180 L1131 961 L1131 991 L1350 1210 Z"/><path class="fv3" d="M1350 1180 L1131 961 L1131 991 L1350 1210 Z" /></g><g class="o"><path transform="translate(3,6)" class="S sf" d="M1336 1413 L2008 2085 L2034 2085 L1362 1413 Z"/><path class="f6" d="M1336 1413 L2008 2085 L2034 2085 L1362 1413 Z" /></g><g class="o"><path transform="translate(7,14)" class="S sfh" d="M1636 1911 L1398 2149 L1408 2149 L1646 1911 Z"/><path class="fh5" d="M1636 1911 L1398 2149 L1408 2149 L1646 1911 Z" /></g><g class="o"><path transform="translate(4,8)" class="S sf" d="M1683 1684 L1134 2233 L1172 2233 L1721 1684 Z"/><path class="f7" d="M1683 1684 L1134 2233 L1172 2233 L1721 1684 Z" /></g><g class="o"><path transform="translate(2,4)" class="S sfh" d="M1416 1813 L1350 1747 L1362 1747 L1428 1813 Z"/><path class="fh3" d="M1416 1813 L1350 1747 L1362 1747 L1428 1813 Z" /></g><g class="o"><path transform="translate(6,12)" class="S ssh" d="M1177 1726 L1357 1546 L1381 1546 L1201 1726 Z"/><path class="sh7" d="M1177 1726 L1357 1546 L1381 1546 L1201 1726 Z" /></g><g class="o"><path transform="translate(2,4)" class="S ssv" d="M1840 1495 L2040 1695 L2040 1703 L1840 1503 Z"/><path class="sv4" d="M1840 1495 L2040 1695 L2040 1703 L1840 1503 Z" /></g><g class="o"><path transform="translate(4,8)" class="S sfh" d="M883 1072 L454 643 L598 643 L1027 1072 Z"/><path class="fh1" d="M883 1072 L454 643 L598 643 L1027 1072 Z" /></g><g class="o"><path transform="translate(8,16)" class="S ssh" d="M1481 1401 L1577 1497 L1585 1497 L1489 1401 Z"/><path class="sh2" d="M1481 1401 L1577 1497 L1585 1497 L1489 1401 Z" /></g><g class="o"><path transform="translate(3,6)" class="S sfv" d="M1509 1621 L1276 1388 L1276 1408 L1509 1641 Z"/><path class="fv5" d="M1509 1621 L1276 1388 L1276 1408 L1509 1641 Z" /></g><g class="o"><path transform="translate(2,4)" class="S sf" d="M1573 1606 L1437 1470 L1437 1478 L1573 1614 Z"/><path class="f2" d="M1573 1606 L1437 1470 L1437 1478 L1573 1614 Z" /></g><g class="o"><path transform="translate(9,18)" class="S ssv" d="M1637 1685 L1916 1406 L1916 1430 L1637 1709 Z"/><path class="sv4" d="M1637 1685 L1916 1406 L1916 1430 L1637 1709 Z" /></g><g class="o"><path transform="translate(8,16)" class="S sfh" d="M985 1718 L1174 1529 L1200 1529 L1011 1718 Z"/><path class="fh5" d="M985 1718 L1174 1529 L1200 1529 L1011 1718 Z" /></g><g class="o"><path transform="translate(5,10)" class="S sfh" d="M1425 1200 L1576 1351 L1612 1351 L1461 1200 Z"/><path class="fh1" d="M1425 1200 L1576 1351 L1612 1351 L1461 1200 Z" /></g><g class="o"><path transform="translate(4,8)" class="S sf" d="M1609 1372 L1509 1272 L1509 1308 L1609 1408 Z"/><path class="f7" d="M1609 1372 L1509 1272 L1509 1308 L1609 1408 Z" /></g><g class="o"><path transform="translate(9,18)" class="S ssv" d="M1087 1098 L854 1331 L854 1363 L1087 1130 Z"/><path class="sv7" d="M1087 1098 L854 1331 L854 1363 L1087 1130 Z" /></g><g class="o"><path transform="translate(2,4)" class="S sfv" d="M1325 933 L1094 1164 L1094 1316 L1325 1085 Z"/><path class="fv6" d="M1325 933 L1094 1164 L1094 1316 L1325 1085 Z" /></g><g class="o"><path transform="translate(9,18)" class="S sf" d="M1021 1876 L1108 1789 L1140 1789 L1053 1876 Z"/><path class="f6" d="M1021 1876 L1108 1789 L1140 1789 L1053 1876 Z" /></g><g class="o"><path transform="translate(7,14)" class="S sfh" d="M1927 1460 L2088 1621 L2232 1621 L2071 1460 Z"/><path class="fh2" d="M1927 1460 L2088 1621 L2232 1621 L2071 1460 Z" /></g><g class="o"><path transform="translate(8,16)" class="S ss" d="M1907 1289 L1991 1373 L2023 1373 L1939 1289 Z"/><path class="s4" d="M1907 1289 L1991 1373 L2023 1373 L1939 1289 Z" /></g><g class="o"><path transform="translate(8,16)" class="S sfv" d="M1318 1997 L763 2552 L763 2582 L1318 2027 Z"/><path class="fv5" d="M1318 1997 L763 2552 L763 2582 L1318 2027 Z" /></g><g class="o"><path transform="translate(2,4)" class="S sfh" d="M1809 1702 L1947 1840 L1963 1840 L1825 1702 Z"/><path class="fh2" d="M1809 1702 L1947 1840 L1963 1840 L1825 1702 Z" /></g><g class="o"><path transform="translate(4,8)" class="S sfh" d="M1125 1744 L1268 1601 L1282 1601 L1139 1744 Z"/><path class="fh6" d="M1125 1744 L1268 1601 L1282 1601 L1139 1744 Z" /></g><g class="o"><path transform="translate(9,18)" class="S sfh" d="M1919 1547 L1454 2012 L1566 2012 L2031 1547 Z"/><path class="fh5" d="M1919 1547 L1454 2012 L1566 2012 L2031 1547 Z" /></g><g class="o"><path transform="translate(2,4)" class="S sfh" d="M1606 1265 L1681 1340 L1709 1340 L1634 1265 Z"/><path class="fh3" d="M1606 1265 L1681 1340 L1709 1340 L1634 1265 Z" /></g><g class="o"><path transform="translate(5,10)" class="S sfv" d="M1404 1611 L1514 1501 L1514 1629 L1404 1739 Z"/><path class="fv6" d="M1404 1611 L1514 1501 L1514 1629 L1404 1739 Z" /></g><g class="o"><path transform="translate(2,4)" class="S ssh" d="M1504 1882 L1717 2095 L1745 2095 L1532 1882 Z"/><path class="sh6" d="M1504 1882 L1717 2095 L1745 2095 L1532 1882 Z" /></g><g class="o"><path transform="translate(5,10)" class="S sfh" d="M1261 1652 L1162 1751 L1198 1751 L1297 1652 Z"/><path class="fh4" d="M1261 1652 L1162 1751 L1198 1751 L1297 1652 Z" /></g><g class="o"><path transform="translate(3,6)" class="S sfh" d="M1202 1520 L1760 2078 L1796 2078 L1238 1520 Z"/><path class="fh1" d="M1202 1520 L1760 2078 L1796 2078 L1238 1520 Z" /></g><g class="o"><path transform="translate(5,10)" class="S ssh" d="M1637 1441 L1886 1192 L1900 1192 L1651 1441 Z"/><path class="sh5" d="M1637 1441 L1886 1192 L1900 1192 L1651 1441 Z" /></g><g class="o"><path transform="translate(5,10)" class="S sfv" d="M1656 1946 L1430 2172 L1430 2206 L1656 1980 Z"/><path class="fv6" d="M1656 1946 L1430 2172 L1430 2206 L1656 1980 Z" /></g><g class="o"><path transform="translate(7,14)" class="S sfh" d="M1528 975 L1750 753 L1772 753 L1550 975 Z"/><path class="fh2" d="M1528 975 L1750 753 L1772 753 L1550 975 Z" /></g><g class="o"><path transform="translate(4,8)" class="S sfv" d="M1565 1841 L1376 1652 L1376 1664 L1565 1853 Z"/><path class="fv6" d="M1565 1841 L1376 1652 L1376 1664 L1565 1853 Z" /></g><g class="o"><path transform="translate(6,12)" class="S sfv" d="M1131 1842 L1293 2004 L1293 2028 L1131 1866 Z"/><path class="fv3" d="M1131 1842 L1293 2004 L1293 2028 L1131 1866 Z" /></g><g class="o"><path transform="translate(6,12)" class="S sfh" d="M1669 1357 L1909 1597 L1949 1597 L1709 1357 Z"/><path class="fh1" d="M1669 1357 L1909 1597 L1949 1597 L1709 1357 Z" /></g><g class="o"><path transform="translate(2,4)" class="S sfh" d="M1781 1433 L1667 1547 L1699 1547 L1813 1433 Z"/><path class="fh7" d="M1781 1433 L1667 1547 L1699 1547 L1813 1433 Z" /></g><g class="o"><path transform="translate(8,16)" class="S sf" d="M1393 2002 L1211 2184 L1211 2202 L1393 2020 Z"/><path class="f3" d="M1393 2002 L1211 2184 L1211 2202 L1393 2020 Z" /></g><g class="o"><path transform="translate(8,16)" class="S ssh" d="M1560 1930 L1803 1687 L1825 1687 L1582 1930 Z"/><path class="sh4" d="M1560 1930 L1803 1687 L1825 1687 L1582 1930 Z" /></g><g class="o"><path transform="translate(6,12)" class="S sfh" d="M944 1268 L482 806 L512 806 L974 1268 Z"/><path class="fh1" d="M944 1268 L482 806 L512 806 L974 1268 Z" /></g><g class="o"><path transform="translate(3,6)" class="S ssv" d="M1929 1668 L2029 1568 L2029 1586 L1929 1686 Z"/><path class="sv7" d="M1929 1668 L2029 1568 L2029 1586 L1929 1686 Z" /></g><g class="o"><path transform="translate(4,8)" class="S sfv" d="M1891 1008 L2075 824 L2075 844 L1891 1028 Z"/><path class="fv2" d="M1891 1008 L2075 824 L2075 844 L1891 1028 Z" /></g><g class="o"><path transform="translate(4,8)" class="S sfh" d="M1919 1056 L1681 818 L1709 818 L1947 1056 Z"/><path class="fh7" d="M1919 1056 L1681 818 L1709 818 L1947 1056 Z" /></g><g class="o"><path transform="translate(8,16)" class="S ss" d="M1825 1283 L1940 1168 L1960 1168 L1845 1283 Z"/><path class="s2" d="M1825 1283 L1940 1168 L1960 1168 L1845 1283 Z" /></g><g class="o"><path transform="translate(7,14)" class="S sfh" d="M1667 1814 L1835 1646 L1863 1646 L1695 1814 Z"/><path class="fh1" d="M1667 1814 L1835 1646 L1863 1646 L1695 1814 Z" /></g><g class="o"><path transform="translate(2,4)" class="S ssh" d="M1880 1775 L1634 1529 L1642 1529 L1888 1775 Z"/><path class="sh1" d="M1880 1775 L1634 1529 L1642 1529 L1888 1775 Z" /></g><g class="o"><path transform="translate(2,4)" class="S sfv" d="M1905 1263 L2105 1063 L2105 1077 L1905 1277 Z"/><path class="fv2" d="M1905 1263 L2105 1063 L2105 1077 L1905 1277 Z" /></g><g class="o"><path transform="translate(6,12)" class="S sfv" d="M1918 1128 L2137 909 L2137 945 L1918 1164 Z"/><path class="fv5" d="M1918 1128 L2137 909 L2137 945 L1918 1164 Z" /></g><g class="o"><path transform="translate(5,10)" class="S sf" d="M1732 1147 L1980 1395 L1980 1409 L1732 1161 Z"/><path class="f4" d="M1732 1147 L1980 1395 L1980 1409 L1732 1161 Z" /></g><g class="o"><path transform="translate(9,18)" class="S ssv" d="M2014 1342 L1884 1212 L1884 1238 L2014 1368 Z"/><path class="sv3" d="M2014 1342 L1884 1212 L1884 1238 L2014 1368 Z" /></g><g class="o"><path transform="translate(8,16)" class="S sfh" d="M1885 1207 L2350 742 L2370 742 L1905 1207 Z"/><path class="fh4" d="M1885 1207 L2350 742 L2370 742 L1905 1207 Z" /></g><g class="o"><path transform="translate(2,4)" class="S sfv" d="M1645 1257 L1726 1176 L1726 1198 L1645 1279 Z"/><path class="fv2" d="M1645 1257 L1726 1176 L1726 1198 L1645 1279 Z" /></g><g class="o"><path transform="translate(9,18)" class="S sf" d="M1532 1382 L1616 1298 L1616 1312 L1532 1396 Z"/><path class="f1" d="M1532 1382 L1616 1298 L1616 1312 L1532 1396 Z" /></g><g class="o"><path transform="translate(6,12)" class="S sf" d="M1658 1815 L2201 2358 L2201 2384 L1658 1841 Z"/><path class="f4" d="M1658 1815 L2201 2358 L2201 2384 L1658 1841 Z" /></g><g class="o"><path transform="translate(5,10)" class="S ssv" d="M1761 1059 L1947 1245 L1947 1277 L1761 1091 Z"/><path class="sv2" d="M1761 1059 L1947 1245 L1947 1277 L1761 1091 Z" /></g><g class="o"><path transform="translate(5,10)" class="S sf" d="M1841 1374 L1631 1164 L1735 1164 L1945 1374 Z"/><path class="f3" d="M1841 1374 L1631 1164 L1735 1164 L1945 1374 Z" /></g><g class="o"><path transform="translate(2,4)" class="S sf" d="M1053 960 L1301 1208 L1301 1230 L1053 982 Z"/><path class="f5" d="M1053 960 L1301 1208 L1301 1230 L1053 982 Z" /></g><g class="o"><path transform="translate(9,18)" class="S sf" d="M1009 1995 L888 2116 L888 2150 L1009 2029 Z"/><path class="f4" d="M1009 1995 L888 2116 L888 2150 L1009 2029 Z" /></g><g class="o"><path transform="translate(5,10)" class="S sfv" d="M1148 994 L1817 1663 L1817 1687 L1148 1018 Z"/><path class="fv5" d="M1148 994 L1817 1663 L1817 1687 L1148 1018 Z" /></g><g class="o"><path transform="translate(6,12)" class="S sfh" d="M1942 1665 L2039 1568 L2053 1568 L1956 1665 Z"/><path class="fh7" d="M1942 1665 L2039 1568 L2053 1568 L1956 1665 Z" /></g><g class="o"><path transform="translate(9,18)" class="S sfv" d="M1723 1250 L1426 1547 L1426 1573 L1723 1276 Z"/><path class="fv1" d="M1723 1250 L1426 1547 L1426 1573 L1723 1276 Z" /></g><g class="o"><path transform="translate(4,8)" class="S sfh" d="M1310 1084 L1526 1300 L1646 1300 L1430 1084 Z"/><path class="fh1" d="M1310 1084 L1526 1300 L1646 1300 L1430 1084 Z" /></g><g class="o"><path transform="translate(7,14)" class="S sfh" d="M1411 1793 L1212 1594 L1242 1594 L1441 1793 Z"/><path class="fh2" d="M1411 1793 L1212 1594 L1242 1594 L1441 1793 Z" /></g><g class="o"><path transform="translate(2,4)" class="S sfv" d="M1428 1412 L1074 1766 L1074 1804 L1428 1450 Z"/><path class="fv7" d="M1428 1412 L1074 1766 L1074 1804 L1428 1450 Z" /></g><g class="o"><path transform="translate(3,6)" class="S sfh" d="M1254 1339 L687 772 L699 772 L1266 1339 Z"/><path class="fh1" d="M1254 1339 L687 772 L699 772 L1266 1339 Z" /></g><g class="o"><path transform="translate(4,8)" class="S sfh" d="M1079 1271 L443 635 L475 635 L1111 1271 Z"/><path class="fh5" d="M1079 1271 L443 635 L475 635 L1111 1271 Z" /></g><g class="o"><path transform="translate(6,12)" class="S sfh" d="M1041 1017 L920 896 L950 896 L1071 1017 Z"/><path class="fh4" d="M1041 1017 L920 896 L950 896 L1071 1017 Z" /></g><g class="o"><path transform="translate(8,16)" class="S sfv" d="M1894 1073 L2542 1721 L2542 1751 L1894 1103 Z"/><path class="fv4" d="M1894 1073 L2542 1721 L2542 1751 L1894 1103 Z" /></g><g class="o"><path transform="translate(6,12)" class="S sfh" d="M981 1470 L1079 1568 L1103 1568 L1005 1470 Z"/><path class="fh4" d="M981 1470 L1079 1568 L1103 1568 L1005 1470 Z" /></g><g class="o"><path transform="translate(8,16)" class="S sfv" d="M1520 1709 L1724 1505 L1724 1543 L1520 1747 Z"/><path class="fv4" d="M1520 1709 L1724 1505 L1724 1543 L1520 1747 Z" /></g><g class="o"><path transform="translate(9,18)" class="S sfv" d="M1906 1824 L2161 1569 L2161 1603 L1906 1858 Z"/><path class="fv3" d="M1906 1824 L2161 1569 L2161 1603 L1906 1858 Z" /></g><g class="o"><path transform="translate(6,12)" class="S sfv" d="M1230 1336 L982 1584 L982 1606 L1230 1358 Z"/><path class="fv4" d="M1230 1336 L982 1584 L982 1606 L1230 1358 Z" /></g><g class="o"><path transform="translate(2,4)" class="S sfh" d="M974 954 L756 1172 L772 1172 L990 954 Z"/><path class="fh3" d="M974 954 L756 1172 L772 1172 L990 954 Z" /></g><g class="o"><path transform="translate(2,4)" class="S sfh" d="M1332 1547 L618 2261 L634 2261 L1348 1547 Z"/><path class="fh3" d="M1332 1547 L618 2261 L634 2261 L1348 1547 Z" /></g><g class="o"><path transform="translate(5,10)" class="S sfh" d="M1856 1447 L1957 1346 L1993 1346 L1892 1447 Z"/><path class="fh3" d="M1856 1447 L1957 1346 L1993 1346 L1892 1447 Z" /></g><g class="o"><path transform="translate(8,16)" class="S sfv" d="M2017 1686 L1817 1486 L1817 1516 L2017 1716 Z"/><path class="fv5" d="M2017 1686 L1817 1486 L1817 1516 L2017 1716 Z" /></g><g class="o"><path transform="translate(2,4)" class="S sfv" d="M1347 1219 L1424 1142 L1424 1170 L1347 1247 Z"/><path class="fv4" d="M1347 1219 L1424 1142 L1424 1170 L1347 1247 Z" /></g><g class="o"><path transform="translate(8,16)" class="S sfh" d="M1382 1170 L1586 966 L1594 966 L1390 1170 Z"/><path class="fh1" d="M1382 1170 L1586 966 L1594 966 L1390 1170 Z" /></g><g class="o"><path transform="translate(4,8)" class="S sfv" d="M1231 1437 L1939 2145 L1939 2153 L1231 1445 Z"/><path class="fv1" d="M1231 1437 L1939 2145 L1939 2153 L1231 1445 Z" /></g><g class="o"><path transform="translate(2,4)" class="S sfh" d="M1851 1515 L1951 1415 L1985 1415 L1885 1515 Z"/><path class="fh2" d="M1851 1515 L1951 1415 L1985 1415 L1885 1515 Z" /></g><g class="o"><path transform="translate(2,4)" class="S sfv" d="M1469 1448 L1539 1378 L1539 1388 L1469 1458 Z"/><path class="fv2" d="M1469 1448 L1539 1378 L1539 1388 L1469 1458 Z" /></g><g class="o"><path transform="translate(2,4)" class="S sfv" d="M1802 1724 L1993 1533 L1993 1555 L1802 1746 Z"/><path class="fv2" d="M1802 1724 L1993 1533 L1993 1555 L1802 1746 Z" /></g><g class="o"><path transform="translate(2,4)" class="S sfv" d="M1495 2014 L1319 1838 L1319 1846 L1495 2022 Z"/><path class="fv5" d="M1495 2014 L1319 1838 L1319 1846 L1495 2022 Z" /></g><g class="o"><path transform="translate(8,16)" class="S ssv" d="M1211 2014 L1344 2147 L1344 2179 L1211 2046 Z"/><path class="sv6" d="M1211 2014 L1344 2147 L1344 2179 L1211 2046 Z" /></g><g class="o"><path transform="translate(9,18)" class="S sfv" d="M1498 1711 L1673 1886 L1673 1898 L1498 1723 Z"/><path class="fv7" d="M1498 1711 L1673 1886 L1673 1898 L1498 1723 Z" /></g><g class="o"><path transform="translate(7,14)" class="S sfh" d="M1071 1310 L1015 1254 L1037 1254 L1093 1310 Z"/><path class="fh4" d="M1071 1310 L1015 1254 L1037 1254 L1093 1310 Z" /></g><g class="o"><path transform="translate(7,14)" class="S sfh" d="M1911 1916 L1777 2050 L1805 2050 L1939 1916 Z"/><path class="fh6" d="M1911 1916 L1777 2050 L1805 2050 L1939 1916 Z" /></g><g class="o"><path transform="translate(2,4)" class="S ss" d="M1074 1705 L960 1591 L960 1727 L1074 1841 Z"/><path class="s3" d="M1074 1705 L960 1591 L960 1727 L1074 1841 Z" /></g><g class="o"><path transform="translate(3,6)" class="S ss" d="M1334 1200 L1495 1039 L1495 1047 L1334 1208 Z"/><path class="s4" d="M1334 1200 L1495 1039 L1495 1047 L1334 1208 Z" /></g><g class="o"><path transform="translate(5,10)" class="S sfv" d="M1961 1207 L1893 1275 L1893 1305 L1961 1237 Z"/><path class="fv5" d="M1961 1207 L1893 1275 L1893 1305 L1961 1237 Z" /></g><g class="o"><path transform="translate(6,12)" class="S sf" d="M1426 1504 L1516 1594 L1516 1614 L1426 1524 Z"/><path class="f7" d="M1426 1504 L1516 1594 L1516 1614 L1426 1524 Z" /></g><g class="o"><path transform="translate(6,12)" class="S sfv" d="M1645 1637 L2359 2351 L2359 2389 L1645 1675 Z"/><path class="fv6" d="M1645 1637 L2359 2351 L2359 2389 L1645 1675 Z" /></g><g class="o"><path transform="translate(2,4)" class="S sfv" d="M1004 1252 L1149 1107 L1149 1137 L1004 1282 Z"/><path class="fv2" d="M1004 1252 L1149 1107 L1149 1137 L1004 1282 Z" /></g><g class="o"><path transform="translate(2,4)" class="S sf" d="M1958 1447 L2363 1042 L2363 1058 L1958 1463 Z"/><path class="f2" d="M1958 1447 L2363 1042 L2363 1058 L1958 1463 Z" /></g><g class="o"><path transform="translate(9,18)" class="S sfh" d="M1136 1134 L1817 453 L1853 453 L1172 1134 Z"/><path class="fh1" d="M1136 1134 L1817 453 L1853 453 L1172 1134 Z" /></g><g class="o"><path transform="translate(5,10)" class="S ss" d="M1767 1560 L1845 1638 L1845 1666 L1767 1588 Z"/><path class="s4" d="M1767 1560 L1845 1638 L1845 1666 L1767 1588 Z" /></g><g class="o"><path transform="translate(3,6)" class="S sfh" d="M1095 1355 L738 1712 L760 1712 L1117 1355 Z"/><path class="fh3" d="M1095 1355 L738 1712 L760 1712 L1117 1355 Z" /></g><g class="o"><path transform="translate(2,4)" class="S sfh" d="M1839 1255 L1681 1413 L1711 1413 L1869 1255 Z"/><path class="fh7" d="M1839 1255 L1681 1413 L1711 1413 L1869 1255 Z" /></g><g class="o"><path transform="translate(4,8)" class="S sfh" d="M1709 989 L1922 776 L1954 776 L1741 989 Z"/><path class="fh3" d="M1709 989 L1922 776 L1954 776 L1741 989 Z" /></g><g class="o"><path transform="translate(8,16)" class="S sfh" d="M1321 1317 L1190 1186 L1206 1186 L1337 1317 Z"/><path class="fh2" d="M1321 1317 L1190 1186 L1206 1186 L1337 1317 Z" /></g><g class="o"><path transform="translate(3,6)" class="S sfh" d="M1389 993 L1548 1152 L1570 1152 L1411 993 Z"/><path class="fh1" d="M1389 993 L1548 1152 L1570 1152 L1411 993 Z" /></g><g class="o"><path transform="translate(7,14)" class="S sfv" d="M1519 987 L1611 1079 L1611 1109 L1519 1017 Z"/><path class="fv7" d="M1519 987 L1611 1079 L1611 1109 L1519 1017 Z" /></g><g class="o"><path transform="translate(5,10)" class="S ssh" d="M996 1020 L780 804 L818 804 L1034 1020 Z"/><path class="sh4" d="M996 1020 L780 804 L818 804 L1034 1020 Z" /></g><g class="o"><path transform="translate(6,12)" class="S sfh" d="M1783 1244 L1600 1061 L1622 1061 L1805 1244 Z"/><path class="fh4" d="M1783 1244 L1600 1061 L1622 1061 L1805 1244 Z" /></g><g class="o"><path transform="translate(9,18)" class="S sfh" d="M1040 1534 L1116 1458 L1154 1458 L1078 1534 Z"/><path class="fh7" d="M1040 1534 L1116 1458 L1154 1458 L1078 1534 Z" /></g><g class="o"><path transform="translate(2,4)" class="S sfv" d="M999 1845 L1221 2067 L1221 2095 L999 1873 Z"/><path class="fv6" d="M999 1845 L1221 2067 L1221 2095 L999 1873 Z" /></g><g class="o"><path transform="translate(9,18)" class="S sfh" d="M1824 1653 L1998 1827 L2032 1827 L1858 1653 Z"/><path class="fh1" d="M1824 1653 L1998 1827 L2032 1827 L1858 1653 Z" /></g><g class="o"><path transform="translate(7,14)" class="S sfv" d="M981 1956 L1254 2229 L1254 2255 L981 1982 Z"/><path class="fv4" d="M981 1956 L1254 2229 L1254 2255 L981 1982 Z" /></g><g class="o"><path transform="translate(6,12)" class="S ssv" d="M1600 1419 L1465 1554 L1465 1570 L1600 1435 Z"/><path class="sv2" d="M1600 1419 L1465 1554 L1465 1570 L1600 1435 Z" /></g><g class="o"><path transform="translate(4,8)" class="S sf" d="M1559 1905 L1634 1830 L1642 1830 L1567 1905 Z"/><path class="f4" d="M1559 1905 L1634 1830 L1642 1830 L1567 1905 Z" /></g><g class="o"><path transform="translate(8,16)" class="S sfh" d="M1410 1872 L1349 1933 L1381 1933 L1442 1872 Z"/><path class="fh6" d="M1410 1872 L1349 1933 L1381 1933 L1442 1872 Z" /></g><g class="o"><path transform="translate(9,18)" class="S sf" d="M1687 1545 L1783 1449 L1783 1479 L1687 1575 Z"/><path class="f5" d="M1687 1545 L1783 1449 L1783 1479 L1687 1575 Z" /></g><g class="o"><path transform="translate(9,18)" class="S sfh" d="M1905 1956 L2153 2204 L2167 2204 L1919 1956 Z"/><path class="fh5" d="M1905 1956 L2153 2204 L2167 2204 L1919 1956 Z" /></g><g class="o"><path transform="translate(5,10)" class="S ssh" d="M1869 1865 L1624 2110 L1650 2110 L1895 1865 Z"/><path class="sh7" d="M1869 1865 L1624 2110 L1650 2110 L1895 1865 Z" /></g><g class="o"><path transform="translate(4,8)" class="S sfh" d="M1172 1609 L1316 1753 L1346 1753 L1202 1609 Z"/><path class="fh7" d="M1172 1609 L1316 1753 L1346 1753 L1202 1609 Z" /></g><g class="o"><path transform="translate(9,18)" class="S ss" d="M1241 1365 L521 2085 L521 2105 L1241 1385 Z"/><path class="s2" d="M1241 1365 L521 2085 L521 2105 L1241 1385 Z" /></g><g class="o"><path transform="translate(7,14)" class="S ss" d="M1240 1684 L1777 2221 L1777 2233 L1240 1696 Z"/><path class="s6" d="M1240 1684 L1777 2221 L1777 2233 L1240 1696 Z" /></g><g class="o"><path transform="translate(2,4)" class="S sfh" d="M1181 2013 L973 2221 L983 2221 L1191 2013 Z"/><path class="fh3" d="M1181 2013 L973 2221 L983 2221 L1191 2013 Z" /></g><g class="o"><path transform="translate(7,14)" class="S sfv" d="M1216 1973 L1474 2231 L1474 2327 L1216 2069 Z"/><path class="fv7" d="M1216 1973 L1474 2231 L1474 2327 L1216 2069 Z" /></g><g class="o"><path transform="translate(3,6)" class="S sfh" d="M1597 1664 L1516 1745 L1540 1745 L1621 1664 Z"/><path class="fh7" d="M1597 1664 L1516 1745 L1540 1745 L1621 1664 Z" /></g><g class="o"><path transform="translate(4,8)" class="S sfh" d="M1174 1931 L1747 1358 L1769 1358 L1196 1931 Z"/><path class="fh5" d="M1174 1931 L1747 1358 L1769 1358 L1196 1931 Z" /></g><g class="o"><path transform="translate(9,18)" class="S sfh" d="M2003 1366 L2234 1135 L2252 1135 L2021 1366 Z"/><path class="fh3" d="M2003 1366 L2234 1135 L2252 1135 L2021 1366 Z" /></g><g class="o"><path transform="translate(4,8)" class="S ssv" d="M1053 2023 L1203 2173 L1203 2189 L1053 2039 Z"/><path class="sv2" d="M1053 2023 L1203 2173 L1203 2189 L1053 2039 Z" /></g><g class="o"><path transform="translate(5,10)" class="S sfv" d="M1351 1871 L1285 1805 L1285 1827 L1351 1893 Z"/><path class="fv1" d="M1351 1871 L1285 1805 L1285 1827 L1351 1893 Z" /></g><g class="o"><path transform="translate(3,6)" class="S sfh" d="M1288 1023 L1138 873 L1158 873 L1308 1023 Z"/><path class="fh5" d="M1288 1023 L1138 873 L1158 873 L1308 1023 Z" /></g><g class="o"><path transform="translate(4,8)" class="S sfv" d="M962 1367 L791 1196 L791 1208 L962 1379 Z"/><path class="fv3" d="M962 1367 L791 1196 L791 1208 L962 1379 Z" /></g><g class="o"><path transform="translate(5,10)" class="S sfv" d="M1362 1821 L1488 1695 L1488 1721 L1362 1847 Z"/><path class="fv6" d="M1362 1821 L1488 1695 L1488 1721 L1362 1847 Z" /></g><g class="o"><path transform="translate(4,8)" class="S sfh" d="M1251 961 L1014 1198 L1028 1198 L1265 961 Z"/><path class="fh5" d="M1251 961 L1014 1198 L1028 1198 L1265 961 Z" /></g><g class="o"><path transform="translate(4,8)" class="S ssv" d="M1274 2018 L1143 1887 L1143 1907 L1274 2038 Z"/><path class="sv5" d="M1274 2018 L1143 1887 L1143 1907 L1274 2038 Z" /></g><g class="o"><path transform="translate(2,4)" class="S sfv" d="M1904 1491 L2099 1296 L2099 1318 L1904 1513 Z"/><path class="fv7" d="M1904 1491 L2099 1296 L2099 1318 L1904 1513 Z" /></g><g class="o"><path transform="translate(8,16)" class="S sfv" d="M1793 1164 L1913 1044 L1913 1070 L1793 1190 Z"/><path class="fv7" d="M1793 1164 L1913 1044 L1913 1070 L1793 1190 Z" /></g><g class="o"><path transform="translate(6,12)" class="S sfh" d="M1871 1579 L1773 1677 L1785 1677 L1883 1579 Z"/><path class="fh3" d="M1871 1579 L1773 1677 L1785 1677 L1883 1579 Z" /></g><g class="o"><path transform="translate(4,8)" class="S sf" d="M1834 2000 L2515 2681 L2515 2713 L1834 2032 Z"/><path class="f1" d="M1834 2000 L2515 2681 L2515 2713 L1834 2032 Z" /></g><g class="o"><path transform="translate(6,12)" class="S sfv" d="M1736 1247 L1830 1341 L1830 1413 L1736 1319 Z"/><path class="fv2" d="M1736 1247 L1830 1341 L1830 1413 L1736 1319 Z" /></g><g class="o"><path transform="translate(7,14)" class="S sfv" d="M1463 1555 L1229 1789 L1229 1811 L1463 1577 Z"/><path class="fv1" d="M1463 1555 L1229 1789 L1229 1811 L1463 1577 Z" /></g><g class="o"><path transform="translate(7,14)" class="S ssh" d="M1474 1691 L1684 1901 L1722 1901 L1512 1691 Z"/><path class="sh6" d="M1474 1691 L1684 1901 L1722 1901 L1512 1691 Z" /></g><g class="o"><path transform="translate(6,12)" class="S sfh" d="M1885 1205 L1801 1121 L1815 1121 L1899 1205 Z"/><path class="fh5" d="M1885 1205 L1801 1121 L1815 1121 L1899 1205 Z" /></g><g class="o"><path transform="translate(8,16)" class="S ssh" d="M1028 1269 L973 1324 L997 1324 L1052 1269 Z"/><path class="sh6" d="M1028 1269 L973 1324 L997 1324 L1052 1269 Z" /></g><g class="o"><path transform="translate(4,8)" class="S sfv" d="M1287 952 L1516 1181 L1516 1193 L1287 964 Z"/><path class="fv4" d="M1287 952 L1516 1181 L1516 1193 L1287 964 Z" /></g><g class="o"><path transform="translate(8,16)" class="S ssv" d="M1367 1950 L1199 2118 L1199 2140 L1367 1972 Z"/><path class="sv2" d="M1367 1950 L1199 2118 L1199 2140 L1367 1972 Z" /></g><g class="o"><path transform="translate(8,16)" class="S sfv" d="M1294 1989 L1405 1878 L1405 1916 L1294 2027 Z"/><path class="fv3" d="M1294 1989 L1405 1878 L1405 1916 L1294 2027 Z" /></g><g class="o"><path transform="translate(8,16)" class="S sfh" d="M2026 1814 L2278 2066 L2304 2066 L2052 1814 Z"/><path class="fh4" d="M2026 1814 L2278 2066 L2304 2066 L2052 1814 Z" /></g><g class="o"><path transform="translate(3,6)" class="S sf" d="M1279 1802 L1786 2309 L1800 2309 L1293 1802 Z"/><path class="f4" d="M1279 1802 L1786 2309 L1800 2309 L1293 1802 Z" /></g><g class="o"><path transform="translate(4,8)" class="S sfh" d="M1297 1584 L1174 1707 L1198 1707 L1321 1584 Z"/><path class="fh3" d="M1297 1584 L1174 1707 L1198 1707 L1321 1584 Z" /></g><g class="o"><path transform="translate(7,14)" class="S sf" d="M1298 1677 L1462 1513 L1470 1513 L1306 1677 Z"/><path class="f3" d="M1298 1677 L1462 1513 L1470 1513 L1306 1677 Z" /></g><g class="o"><path transform="translate(5,10)" class="S sfv" d="M1300 2007 L1236 2071 L1236 2101 L1300 2037 Z"/><path class="fv7" d="M1300 2007 L1236 2071 L1236 2101 L1300 2037 Z" /></g><g class="o"><path transform="translate(5,10)" class="S sf" d="M1204 1546 L1397 1353 L1397 1363 L1204 1556 Z"/><path class="f7" d="M1204 1546 L1397 1353 L1397 1363 L1204 1556 Z" /></g><g class="o"><path transform="translate(7,14)" class="S sfv" d="M1300 1078 L1088 866 L1088 896 L1300 1108 Z"/><path class="fv6" d="M1300 1078 L1088 866 L1088 896 L1300 1108 Z" /></g><g class="o"><path transform="translate(4,8)" class="S sfv" d="M1147 1175 L941 969 L941 981 L1147 1187 Z"/><path class="fv4" d="M1147 1175 L941 969 L941 981 L1147 1187 Z" /></g></g><use href="#slashes" transform-origin="1500 1500" transform="rotate(180) scale(2)"/></g><circle cx="1500" cy="1500" r="450" stroke-width="20" class="o ss" /><use href="#slashes" transform-origin="1500 1500" transform="scale(.7)"/><use href="#slashes" transform-origin="1500 1500" transform="rotate(180) scale(1.3)"/></svg>