<svg xmlns="http://www.w3.org/2000/svg" viewBox="750 750 1500 1500"><style>/*<![CDATA[*/svg{background:rgb(238,108,77);max-width:100vw;max-height:100vh}path{stroke-width:4}.o{opacity:.75}.S{opacity:.4}.sf{stroke:none;fill:black}.sfh{stroke:none;fill:url(#hs)}.sfv{stroke:none;fill:url(#vs)}.ss{stroke:black;fill:none}.ssh{stroke:url(#hs);fill:none}.ssv{stroke:url(#vs);fill:none}.s1{fill:none;stroke:rgb(61,90,128)}.f1{stroke:none;fill:rgb(61,90,128)}.sh1{fill:none;stroke:url(#h1)}.fh1{stroke:none;fill:url(#h1)}.sv1{fill:none;stroke:url(#v1)}.fv1{stroke:none;fill:url(#v1)}.s2{fill:none;stroke:rgb(34,34,34)}.f2{stroke:none;fill:rgb(34,34,34)}.sh2{fill:none;stroke:url(#h2)}.fh2{stroke:none;fill:url(#h2)}.sv2{fill:none;stroke:url(#v2)}.fv2{stroke:none;fill:url(#v2)}.s3{fill:none;stroke:rgb(224,251,252)}.f3{stroke:none;fill:rgb(224,251,252)}.sh3{fill:none;stroke:url(#h3)}.fh3{stroke:none;fill:url(#h3)}.sv3{fill:none;stroke:url(#v3)}.fv3{stroke:none;fill:url(#v3)}.s4{fill:none;stroke:rgb(152,193,217)}.f4{stroke:none;fill:rgb(152,193,217)}.sh4{fill:none;stroke:url(#h4)}.fh4{stroke:none;fill:url(#h4)}.sv4{fill:none;stroke:url(#v4)}.fv4{stroke:none;fill:url(#v4)}.s5{fill:none;stroke:rgb(41,50,65)}.f5{stroke:none;fill:rgb(41,50,65)}.sh5{fill:none;stroke:url(#h5)}.fh5{stroke:none;fill:url(#h5)}.sv5{fill:none;stroke:url(#v5)}.fv5{stroke:none;fill:url(#v5)}.s6{fill:none;stroke:rgb(255,255,255)}.f6{stroke:none;fill:rgb(255,255,255)}.sh6{fill:none;stroke:url(#h6)}.fh6{stroke:none;fill:url(#h6)}.sv6{fill:none;stroke:url(#v6)}.fv6{stroke:none;fill:url(#v6)}.s7{fill:none;stroke:rgb(255,0,0)}.f7{stroke:none;fill:rgb(255,0,0)}.sh7{fill:none;stroke:url(#h7)}.fh7{stroke:none;fill:url(#h7)}.sv7{fill:none;stroke:url(#v7)}.fv7{stroke:none;fill:url(#v7)}/*]]>*/</style><defs><linearGradient gradientTransform="rotate(90)" id="hs"><stop offset="20%" stop-color="#000" /><stop offset="95%" stop-color="rgba(0, 0, 0, 0)" /></linearGradient><linearGradient id="vs"><stop offset="20%" stop-color="#000" /><stop offset="95%" stop-color="rgba(0, 0, 0, 0)" /></linearGradient><linearGradient gradientTransform="rotate(90)" id="h1"><stop offset="20%" stop-color="rgba(61,90,128,1)" /><stop offset="95%" stop-color="rgba(61,90,128,0)" /></linearGradient><linearGradient id="v1"><stop offset="20%" stop-color="rgba(61,90,128,1)" /><stop offset="95%" stop-color="rgba(61,90,128,0)" /></linearGradient><linearGradient gradientTransform="rotate(90)" id="h2"><stop offset="20%" stop-color="rgba(34,34,34,1)" /><stop offset="95%" stop-color="rgba(34,34,34,0)" /></linearGradient><linearGradient id="v2"><stop offset="20%" stop-color="rgba(34,34,34,1)" /><stop offset="95%" stop-color="rgba(34,34,34,0)" /></linearGradient><linearGradient gradientTransform="rotate(90)" id="h3"><stop offset="20%" stop-color="rgba(224,251,252,1)" /><stop offset="95%" stop-color="rgba(224,251,252,0)" /></linearGradient><linearGradient id="v3"><stop offset="20%" stop-color="rgba(224,251,252,1)" /><stop offset="95%" stop-color="rgba(224,251,252,0)" /></linearGradient><linearGradient gradientTransform="rotate(90)" id="h4"><stop offset="20%" stop-color="rgba(152,193,217,1)" /><stop offset="95%" stop-color="rgba(152,193,217,0)" /></linearGradient><linearGradient id="v4"><stop offset="20%" stop-color="rgba(152,193,217,1)" /><stop offset="95%" stop-color="rgba(152,193,217,0)" /></linearGradient><linearGradient gradientTransform="rotate(90)" id="h5"><stop offset="20%" stop-color="rgba(41,50,65,1)" /><stop offset="95%" stop-color="rgba(41,50,65,0)" /></linearGradient><linearGradient id="v5"><stop offset="20%" stop-color="rgba(41,50,65,1)" /><stop offset="95%" stop-color="rgba(41,50,65,0)" /></linearGradient><linearGradient gradientTransform="rotate(90)" id="h6"><stop offset="20%" stop-color="rgba(255,255,255,1)" /><stop offset="95%" stop-color="rgba(255,255,255,0)" /></linearGradient><linearGradient id="v6"><stop offset="20%" stop-color="rgba(255,255,255,1)" /><stop offset="95%" stop-color="rgba(255,255,255,0)" /></linearGradient><linearGradient gradientTransform="rotate(90)" id="h7"><stop offset="20%" stop-color="rgba(255,0,0,1)" /><stop offset="95%" stop-color="rgba(255,0,0,0)" /></linearGradient><linearGradient id="v7"><stop offset="20%" stop-color="rgba(255,0,0,1)" /><stop offset="95%" stop-color="rgba(255,0,0,0)" /></linearGradient></defs><g transform-origin="1500 1500" transform="scale(2)" opacity=".2"><g id="slashes"><g class="o"><path transform="translate(5,10)" class="S sfh" d="M1947 1751 L2004 1694 L2020 1694 L1963 1751 Z"/><path class="fh1" d="M1947 1751 L2004 1694 L2020 1694 L1963 1751 Z" /></g><g class="o"><path transform="translate(7,14)" class="S sfh" d="M1578 1984 L1765 1797 L1799 1797 L1612 1984 Z"/><path class="fh1" d="M1578 1984 L1765 1797 L1799 1797 L1612 1984 Z" /></g><g class="o"><path transform="translate(8,16)" class="S sf" d="M1131 1311 L1377 1557 L1377 1569 L1131 1323 Z"/><path class="f2" d="M1131 1311 L1377 1557 L1377 1569 L1131 1323 Z" /></g><g class="o"><path transform="translate(5,10)" class="S ssv" d="M1016 1498 L851 1333 L851 1349 L1016 1514 Z"/><path class="sv5" d="M1016 1498 L851 1333 L851 1349 L1016 1514 Z" /></g><g class="o"><path transform="translate(6,12)" class="S sfh" d="M1212 1226 L1336 1102 L1348 1102 L1224 1226 Z"/><path class="fh2" d="M1212 1226 L1336 1102 L1348 1102 L1224 1226 Z" /></g><g class="o"><path transform="translate(8,16)" class="S sfv" d="M1598 1786 L1760 1948 L1760 1976 L1598 1814 Z"/><path class="fv3" d="M1598 1786 L1760 1948 L1760 1976 L1598 1814 Z" /></g><g class="o"><path transform="translate(4,8)" class="S sf" d="M1651 1637 L1798 1490 L1812 1490 L1665 1637 Z"/><path class="f4" d="M1651 1637 L1798 1490 L1812 1490 L1665 1637 Z" /></g><g class="o"><path transform="translate(2,4)" class="S sfh" d="M1956 1549 L2177 1770 L2205 1770 L1984 1549 Z"/><path class="fh3" d="M1956 1549 L2177 1770 L2205 1770 L1984 1549 Z" /></g><g class="o"><path transform="translate(9,18)" class="S sfv" d="M1623 1653 L1494 1782 L1494 1818 L1623 1689 Z"/><path class="fv5" d="M1623 1653 L1494 1782 L1494 1818 L1623 1689 Z" /></g><g class="o"><path transform="translate(9,18)" class="S sf" d="M1615 1453 L1712 1550 L1712 1578 L1615 1481 Z"/><path class="f6" d="M1615 1453 L1712 1550 L1712 1578 L1615 1481 Z" /></g><g class="o"><path transform="translate(6,12)" class="S sfh" d="M1171 1346 L1375 1550 L1407 1550 L1203 1346 Z"/><path class="fh5" d="M1171 1346 L1375 1550 L1407 1550 L1203 1346 Z" /></g><g class="o"><path transform="translate(9,18)" class="S sfh" d="M1033 1973 L1112 2052 L1144 2052 L1065 1973 Z"/><path class="fh4" d="M1033 1973 L1112 2052 L1144 2052 L1065 1973 Z" /></g><g class="o"><path transform="translate(9,18)" class="S sfv" d="M1040 2022 L817 2245 L817 2281 L1040 2058 Z"/><path class="fv3" d="M1040 2022 L817 2245 L817 2281 L1040 2058 Z" /></g><g class="o"><path transform="translate(5,10)" class="S sf" d="M1665 1572 L1555 1682 L1555 1696 L1665 1586 Z"/><path class="f7" d="M1665 1572 L1555 1682 L1555 1696 L1665 1586 Z" /></g><g class="o"><path transform="translate(2,4)" class="S sfh" d="M1236 1324 L1144 1232 L1160 1232 L1252 1324 Z"/><path class="fh4" d="M1236 1324 L1144 1232 L1160 1232 L1252 1324 Z" /></g><g class="o"><path transform="translate(2,4)" class="S sfv" d="M1231 1261 L1467 1497 L1467 1525 L1231 1289 Z"/><path class="fv1" d="M1231 1261 L1467 1497 L1467 1525 L1231 1289 Z" /></g><g class="o"><path transform="translate(3,6)" class="S sfv" d="M1787 1216 L1611 1392 L1611 1406 L1787 1230 Z"/><path class="fv7" d="M1787 1216 L1611 1392 L1611 1406 L1787 1230 Z" /></g><g class="o"><path transform="translate(7,14)" class="S sf" d="M1454 1745 L1374 1665 L1374 1685 L1454 1765 Z"/><path class="f5" d="M1454 1745 L1374 1665 L1374 1685 L1454 1765 Z" /></g><g class="o"><path transform="translate(9,18)" class="S sfh" d="M1060 984 L1120 1044 L1150 1044 L1090 984 Z"/><path class="fh4" d="M1060 984 L1120 1044 L1150 1044 L1090 984 Z" /></g><g class="o"><path transform="translate(9,18)" class="S sfv" d="M1234 1294 L1090 1438 L1090 1452 L1234 1308 Z"/><path class="fv1" d="M1234 1294 L1090 1438 L1090 1452 L1234 1308 Z" /></g><g class="o"><path transform="translate(4,8)" class="S sfh" d="M1470 1449 L1715 1694 L1751 1694 L1506 1449 Z"/><path class="fh1" d="M1470 1449 L1715 1694 L1751 1694 L1506 1449 Z" /></g><g class="o"><path transform="translate(9,18)" class="S ss" d="M1932 1736 L1695 1499 L1703 1499 L1940 1736 Z"/><path class="s4" d="M1932 1736 L1695 1499 L1703 1499 L1940 1736 Z" /></g><g class="o"><path transform="translate(9,18)" class="S sf" d="M1685 1551 L1623 1613 L1649 1613 L1711 1551 Z"/><path class="f2" d="M1685 1551 L1623 1613 L1649 1613 L1711 1551 Z" /></g><g class="o"><path transform="translate(5,10)" class="S sfv" d="M1313 1777 L1487 1951 L1487 1977 L1313 1803 Z"/><path class="fv2" d="M1313 1777 L1487 1951 L1487 1977 L1313 1803 Z" /></g><g class="o"><path transform="translate(5,10)" class="S sfh" d="M1067 1032 L1290 809 L1322 809 L1099 1032 Z"/><path class="fh5" d="M1067 1032 L1290 809 L1322 809 L1099 1032 Z" /></g><g class="o"><path transform="translate(5,10)" class="S sfv" d="M966 1783 L1142 1607 L1142 1623 L966 1799 Z"/><path class="fv5" d="M966 1783 L1142 1607 L1142 1623 L966 1799 Z" /></g><g class="o"><path transform="translate(9,18)" class="S ss" d="M1625 1573 L1842 1356 L1864 1356 L1647 1573 Z"/><path class="s7" d="M1625 1573 L1842 1356 L1864 1356 L1647 1573 Z" /></g><g class="o"><path transform="translate(3,6)" class="S sfh" d="M1124 1624 L1315 1815 L1329 1815 L1138 1624 Z"/><path class="fh6" d="M1124 1624 L1315 1815 L1329 1815 L1138 1624 Z" /></g><g class="o"><path transform="translate(9,18)" class="S sfh" d="M1746 2022 L1927 2203 L1939 2203 L1758 2022 Z"/><path class="fh2" d="M1746 2022 L1927 2203 L1939 2203 L1758 2022 Z" /></g><g class="o"><path transform="translate(3,6)" class="S sfv" d="M1171 1237 L984 1050 L984 1064 L1171 1251 Z"/><path class="fv1" d="M1171 1237 L984 1050 L984 1064 L1171 1251 Z" /></g><g class="o"><path transform="translate(5,10)" class="S ss" d="M1616 1632 L1388 1860 L1388 1870 L1616 1642 Z"/><path class="s4" d="M1616 1632 L1388 1860 L1388 1870 L1616 1642 Z" /></g><g class="o"><path transform="translate(6,12)" class="S sf" d="M1540 1511 L1709 1680 L1733 1680 L1564 1511 Z"/><path class="f7" d="M1540 1511 L1709 1680 L1733 1680 L1564 1511 Z" /></g><g class="o"><path transform="translate(4,8)" class="S sfh" d="M1059 964 L985 1038 L999 1038 L1073 964 Z"/><path class="fh5" d="M1059 964 L985 1038 L999 1038 L1073 964 Z" /></g><g class="o"><path transform="translate(3,6)" class="S ssh" d="M1078 1561 L838 1321 L866 1321 L1106 1561 Z"/><path class="sh7" d="M1078 1561 L838 1321 L866 1321 L1106 1561 Z" /></g><g class="o"><path transform="translate(5,10)" class="S sfv" d="M1428 1723 L1188 1483 L1188 1491 L1428 1731 Z"/><path class="fv4" d="M1428 1723 L1188 1483 L1188 1491 L1428 1731 Z" /></g><g class="o"><path transform="translate(8,16)" class="S sfv" d="M1794 1763 L2000 1557 L2000 1591 L1794 1797 Z"/><path class="fv6" d="M1794 1763 L2000 1557 L2000 1591 L1794 1797 Z" /></g><g class="o"><path transform="translate(7,14)" class="S sfh" d="M1953 1525 L2057 1629 L2087 1629 L1983 1525 Z"/><path class="fh6" d="M1953 1525 L2057 1629 L2087 1629 L1983 1525 Z" /></g><g class="o"><path transform="translate(5,10)" class="S sfh" d="M1835 1363 L2061 1137 L2089 1137 L1863 1363 Z"/><path class="fh7" d="M1835 1363 L2061 1137 L2089 1137 L1863 1363 Z" /></g><g class="o"><path transform="translate(4,8)" class="S sfh" d="M1095 1542 L973 1664 L987 1664 L1109 1542 Z"/><path class="fh7" d="M1095 1542 L973 1664 L987 1664 L1109 1542 Z" /></g><g class="o"><path transform="translate(6,12)" class="S sf" d="M1723 969 L1889 803 L1889 823 L1723 989 Z"/><path class="f5" d="M1723 969 L1889 803 L1889 823 L1723 989 Z" /></g><g class="o"><path transform="translate(3,6)" class="S ssv" d="M1470 1830 L1310 1990 L1310 1998 L1470 1838 Z"/><path class="sv5" d="M1470 1830 L1310 1990 L1310 1998 L1470 1838 Z" /></g><g class="o"><path transform="translate(8,16)" class="S sfh" d="M1857 1582 L2060 1379 L2180 1379 L1977 1582 Z"/><path class="fh3" d="M1857 1582 L2060 1379 L2180 1379 L1977 1582 Z" /></g><g class="o"><path transform="translate(3,6)" class="S sfh" d="M1606 1195 L1461 1340 L1485 1340 L1630 1195 Z"/><path class="fh4" d="M1606 1195 L1461 1340 L1485 1340 L1630 1195 Z" /></g><g class="o"><path transform="translate(3,6)" class="S sfv" d="M1625 995 L1850 1220 L1850 1252 L1625 1027 Z"/><path class="fv1" d="M1625 995 L1850 1220 L1850 1252 L1625 1027 Z" /></g><g class="o"><path transform="translate(2,4)" class="S sfv" d="M2014 1852 L1779 1617 L1779 1635 L2014 1870 Z"/><path class="fv5" d="M2014 1852 L1779 1617 L1779 1635 L2014 1870 Z" /></g><g class="o"><path transform="translate(4,8)" class="S sfv" d="M1104 1813 L1187 1896 L1187 1918 L1104 1835 Z"/><path class="fv7" d="M1104 1813 L1187 1896 L1187 1918 L1104 1835 Z" /></g><g class="o"><path transform="translate(2,4)" class="S ssv" d="M1296 1688 L1079 1905 L1079 1961 L1296 1744 Z"/><path class="sv2" d="M1296 1688 L1079 1905 L1079 1961 L1296 1744 Z" /></g><g class="o"><path transform="translate(5,10)" class="S sfh" d="M1386 1061 L1313 1134 L1329 1134 L1402 1061 Z"/><path class="fh3" d="M1386 1061 L1313 1134 L1329 1134 L1402 1061 Z" /></g><g class="o"><path transform="translate(2,4)" class="S ss" d="M1087 1009 L1268 1190 L1268 1198 L1087 1017 Z"/><path class="s5" d="M1087 1009 L1268 1190 L1268 1198 L1087 1017 Z" /></g><g class="o"><path transform="translate(3,6)" class="S sfh" d="M1044 1908 L826 2126 L922 2126 L1140 1908 Z"/><path class="fh2" d="M1044 1908 L826 2126 L922 2126 L1140 1908 Z" /></g><g class="o"><path transform="translate(2,4)" class="S sfv" d="M1363 1639 L1312 1690 L1312 1728 L1363 1677 Z"/><path class="fv1" d="M1363 1639 L1312 1690 L1312 1728 L1363 1677 Z" /></g><g class="o"><path transform="translate(3,6)" class="S sf" d="M1264 1842 L1362 1940 L1362 1972 L1264 1874 Z"/><path class="f3" d="M1264 1842 L1362 1940 L1362 1972 L1264 1874 Z" /></g><g class="o"><path transform="translate(5,10)" class="S sf" d="M1901 2023 L2054 1870 L2086 1870 L1933 2023 Z"/><path class="f3" d="M1901 2023 L2054 1870 L2086 1870 L1933 2023 Z" /></g><g class="o"><path transform="translate(4,8)" class="S ssh" d="M1044 1532 L848 1336 L878 1336 L1074 1532 Z"/><path class="sh1" d="M1044 1532 L848 1336 L878 1336 L1074 1532 Z" /></g><g class="o"><path transform="translate(8,16)" class="S sf" d="M1300 1210 L1202 1308 L1240 1308 L1338 1210 Z"/><path class="f7" d="M1300 1210 L1202 1308 L1240 1308 L1338 1210 Z" /></g><g class="o"><path transform="translate(2,4)" class="S ssh" d="M1820 1856 L1998 1678 L2012 1678 L1834 1856 Z"/><path class="sh7" d="M1820 1856 L1998 1678 L2012 1678 L1834 1856 Z" /></g><g class="o"><path transform="translate(7,14)" class="S ssv" d="M1348 1736 L1442 1642 L1442 1670 L1348 1764 Z"/><path class="sv3" d="M1348 1736 L1442 1642 L1442 1670 L1348 1764 Z" /></g><g class="o"><path transform="translate(8,16)" class="S sf" d="M1720 1507 L1529 1316 L1549 1316 L1740 1507 Z"/><path class="f7" d="M1720 1507 L1529 1316 L1549 1316 L1740 1507 Z" /></g><g class="o"><path transform="translate(7,14)" class="S sfv" d="M1574 1884 L1449 1759 L1449 1769 L1574 1894 Z"/><path class="fv4" d="M1574 1884 L1449 1759 L1449 1769 L1574 1894 Z" /></g><g class="o"><path transform="translate(7,14)" class="S sfh" d="M1112 1591 L928 1407 L1000 1407 L1184 1591 Z"/><path class="fh2" d="M1112 1591 L928 1407 L1000 1407 L1184 1591 Z" /></g><g class="o"><path transform="translate(8,16)" class="S sfv" d="M1156 1139 L1004 1291 L1004 1311 L1156 1159 Z"/><path class="fv6" d="M1156 1139 L1004 1291 L1004 1311 L1156 1159 Z" /></g><g class="o"><path transform="translate(8,16)" class="S sfv" d="M1267 1942 L1387 2062 L1387 2166 L1267 2046 Z"/><path class="fv5" d="M1267 1942 L1387 2062 L1387 2166 L1267 2046 Z" /></g><g class="o"><path transform="translate(4,8)" class="S sfv" d="M1647 1516 L1484 1679 L1484 1707 L1647 1544 Z"/><path class="fv3" d="M1647 1516 L1484 1679 L1484 1707 L1647 1544 Z" /></g><g class="o"><path transform="translate(9,18)" class="S sfh" d="M2021 1853 L1949 1925 L1971 1925 L2043 1853 Z"/><path class="fh3" d="M2021 1853 L1949 1925 L1971 1925 L2043 1853 Z" /></g><g class="o"><path transform="translate(9,18)" class="S sfv" d="M1566 1253 L1326 1493 L1326 1529 L1566 1289 Z"/><path class="fv2" d="M1566 1253 L1326 1493 L1326 1529 L1566 1289 Z" /></g><g class="o"><path transform="translate(7,14)" class="S sfh" d="M1924 1326 L1719 1121 L1739 1121 L1944 1326 Z"/><path class="fh2" d="M1924 1326 L1719 1121 L1739 1121 L1944 1326 Z" /></g><g class="o"><path transform="translate(3,6)" class="S ssv" d="M1900 1363 L1958 1305 L1958 1341 L1900 1399 Z"/><path class="sv4" d="M1900 1363 L1958 1305 L1958 1341 L1900 1399 Z" /></g><g class="o"><path transform="translate(6,12)" class="S ssv" d="M1952 1201 L2065 1314 L2065 1394 L1952 1281 Z"/><path class="sv7" d="M1952 1201 L2065 1314 L2065 1394 L1952 1281 Z" /></g><g class="o"><path transform="translate(8,16)" class="S sfv" d="M1700 1833 L1609 1742 L1609 1776 L1700 1867 Z"/><path class="fv4" d="M1700 1833 L1609 1742 L1609 1776 L1700 1867 Z" /></g><g class="o"><path transform="translate(5,10)" class="S ssv" d="M1234 1091 L1393 932 L1393 964 L1234 1123 Z"/><path class="sv7" d="M1234 1091 L1393 932 L1393 964 L1234 1123 Z" /></g><g class="o"><path transform="translate(8,16)" class="S ss" d="M1227 1135 L1026 1336 L1050 1336 L1251 1135 Z"/><path class="s5" d="M1227 1135 L1026 1336 L1050 1336 L1251 1135 Z" /></g><g class="o"><path transform="translate(3,6)" class="S sf" d="M1907 1855 L1676 1624 L1704 1624 L1935 1855 Z"/><path class="f7" d="M1907 1855 L1676 1624 L1704 1624 L1935 1855 Z" /></g><g class="o"><path transform="translate(6,12)" class="S sfh" d="M1869 1737 L2060 1928 L2092 1928 L1901 1737 Z"/><path class="fh5" d="M1869 1737 L2060 1928 L2092 1928 L1901 1737 Z" /></g><g class="o"><path transform="translate(6,12)" class="S sf" d="M1629 1068 L1741 956 L1753 956 L1641 1068 Z"/><path class="f3" d="M1629 1068 L1741 956 L1753 956 L1641 1068 Z" /></g><g class="o"><path transform="translate(3,6)" class="S sf" d="M1249 1414 L1320 1343 L1320 1351 L1249 1422 Z"/><path class="f1" d="M1249 1414 L1320 1343 L1320 1351 L1249 1422 Z" /></g><g class="o"><path transform="translate(6,12)" class="S sfv" d="M2040 1133 L2205 968 L2205 992 L2040 1157 Z"/><path class="fv6" d="M2040 1133 L2205 968 L2205 992 L2040 1157 Z" /></g><g class="o"><path transform="translate(5,10)" class="S sfh" d="M1660 1183 L1428 951 L1460 951 L1692 1183 Z"/><path class="fh1" d="M1660 1183 L1428 951 L1460 951 L1692 1183 Z" /></g><g class="o"><path transform="translate(3,6)" class="S sf" d="M1680 1510 L1801 1631 L1801 1649 L1680 1528 Z"/><path class="f2" d="M1680 1510 L1801 1631 L1801 1649 L1680 1528 Z" /></g><g class="o"><path transform="translate(7,14)" class="S sfh" d="M1135 1516 L1303 1684 L1339 1684 L1171 1516 Z"/><path class="fh5" d="M1135 1516 L1303 1684 L1339 1684 L1171 1516 Z" /></g><g class="o"><path transform="translate(3,6)" class="S ssv" d="M1349 1687 L1528 1508 L1528 1536 L1349 1715 Z"/><path class="sv6" d="M1349 1687 L1528 1508 L1528 1536 L1349 1715 Z" /></g><g class="o"><path transform="translate(7,14)" class="S sf" d="M962 1779 L1128 1945 L1160 1945 L994 1779 Z"/><path class="f4" d="M962 1779 L1128 1945 L1160 1945 L994 1779 Z" /></g><g class="o"><path transform="translate(7,14)" class="S sfh" d="M2025 1652 L1781 1896 L1815 1896 L2059 1652 Z"/><path class="fh1" d="M2025 1652 L1781 1896 L1815 1896 L2059 1652 Z" /></g><g class="o"><path transform="translate(5,10)" class="S ssv" d="M1344 1227 L1237 1120 L1237 1138 L1344 1245 Z"/><path class="sv2" d="M1344 1227 L1237 1120 L1237 1138 L1344 1245 Z" /></g><g class="o"><path transform="translate(4,8)" class="S sf" d="M1112 1095 L1162 1045 L1226 1045 L1176 1095 Z"/><path class="f6" d="M1112 1095 L1162 1045 L1226 1045 L1176 1095 Z" /></g><g class="o"><path transform="translate(5,10)" class="S sfv" d="M1765 1451 L1991 1225 L1991 1261 L1765 1487 Z"/><path class="fv4" d="M1765 1451 L1991 1225 L1991 1261 L1765 1487 Z" /></g><g class="o"><path transform="translate(7,14)" class="S ssh" d="M1603 1370 L1399 1574 L1437 1574 L1641 1370 Z"/><path class="sh4" d="M1603 1370 L1399 1574 L1437 1574 L1641 1370 Z" /></g><g class="o"><path transform="translate(8,16)" class="S sfh" d="M1782 1009 L1862 929 L1870 929 L1790 1009 Z"/><path class="fh2" d="M1782 1009 L1862 929 L1870 929 L1790 1009 Z" /></g><g class="o"><path transform="translate(6,12)" class="S sf" d="M1076 1729 L839 1966 L839 1998 L1076 1761 Z"/><path class="f1" d="M1076 1729 L839 1966 L839 1998 L1076 1761 Z" /></g><g class="o"><path transform="translate(5,10)" class="S sf" d="M2009 1456 L1790 1237 L1790 1257 L2009 1476 Z"/><path class="f2" d="M2009 1456 L1790 1237 L1790 1257 L2009 1476 Z" /></g><g class="o"><path transform="translate(8,16)" class="S sfv" d="M1725 1425 L1892 1258 L1892 1290 L1725 1457 Z"/><path class="fv3" d="M1725 1425 L1892 1258 L1892 1290 L1725 1457 Z" /></g><g class="o"><path transform="translate(2,4)" class="S sfv" d="M1527 1984 L1455 1912 L1455 1924 L1527 1996 Z"/><path class="fv2" d="M1527 1984 L1455 1912 L1455 1924 L1527 1996 Z" /></g><g class="o"><path transform="translate(8,16)" class="S sfv" d="M1240 1905 L1318 1827 L1318 1867 L1240 1945 Z"/><path class="fv7" d="M1240 1905 L1318 1827 L1318 1867 L1240 1945 Z" /></g><g class="o"><path transform="translate(6,12)" class="S sfh" d="M1052 1868 L1198 2014 L1212 2014 L1066 1868 Z"/><path class="fh2" d="M1052 1868 L1198 2014 L1212 2014 L1066 1868 Z" /></g><g class="o"><path transform="translate(7,14)" class="S sfh" d="M1466 1871 L1414 1923 L1428 1923 L1480 1871 Z"/><path class="fh5" d="M1466 1871 L1414 1923 L1428 1923 L1480 1871 Z" /></g><g class="o"><path transform="translate(4,8)" class="S sf" d="M1609 1669 L1556 1722 L1556 1734 L1609 1681 Z"/><path class="f6" d="M1609 1669 L1556 1722 L1556 1734 L1609 1681 Z" /></g><g class="o"><path transform="translate(4,8)" class="S sfv" d="M1563 1397 L1788 1172 L1788 1180 L1563 1405 Z"/><path class="fv2" d="M1563 1397 L1788 1172 L1788 1180 L1563 1405 Z" /></g><g class="o"><path transform="translate(6,12)" class="S ss" d="M1663 1761 L1855 1569 L1855 1589 L1663 1781 Z"/><path class="s6" d="M1663 1761 L1855 1569 L1855 1589 L1663 1781 Z" /></g><g class="o"><path transform="translate(5,10)" class="S sfv" d="M1744 1658 L1984 1898 L1984 1918 L1744 1678 Z"/><path class="fv6" d="M1744 1658 L1984 1898 L1984 1918 L1744 1678 Z" /></g><g class="o"><path transform="translate(7,14)" class="S sfh" d="M1956 1578 L1765 1769 L1789 1769 L1980 1578 Z"/><path class="fh3" d="M1956 1578 L1765 1769 L1789 1769 L1980 1578 Z" /></g><g class="o"><path transform="translate(9,18)" class="S sfh" d="M1527 1054 L1406 933 L1442 933 L1563 1054 Z"/><path class="fh6" d="M1527 1054 L1406 933 L1442 933 L1563 1054 Z" /></g><g class="o"><path transform="translate(6,12)" class="S sfv" d="M1824 1749 L1744 1669 L1744 1701 L1824 1781 Z"/><path class="fv7" d="M1824 1749 L1744 1669 L1744 1701 L1824 1781 Z" /></g><g class="o"><path transform="translate(7,14)" class="S ssh" d="M983 1433 L1055 1361 L1159 1361 L1087 1433 Z"/><path class="sh2" d="M983 1433 L1055 1361 L1159 1361 L1087 1433 Z" /></g><g class="o"><path transform="translate(5,10)" class="S sfv" d="M1323 1871 L1431 1979 L1431 1997 L1323 1889 Z"/><path class="fv5" d="M1323 1871 L1431 1979 L1431 1997 L1323 1889 Z" /></g><g class="o"><path transform="translate(9,18)" class="S sfh" d="M1980 1492 L1788 1300 L1806 1300 L1998 1492 Z"/><path class="fh5" d="M1980 1492 L1788 1300 L1806 1300 L1998 1492 Z" /></g><g class="o"><path transform="translate(4,8)" class="S sfh" d="M1939 1773 L2028 1862 L2054 1862 L1965 1773 Z"/><path class="fh5" d="M1939 1773 L2028 1862 L2054 1862 L1965 1773 Z" /></g><g class="o"><path transform="translate(4,8)" class="S sf" d="M1750 1744 L1507 1987 L1507 2011 L1750 1768 Z"/><path class="f7" d="M1750 1744 L1507 1987 L1507 2011 L1750 1768 Z" /></g><g class="o"><path transform="translate(7,14)" class="S sfh" d="M1173 1661 L1323 1811 L1341 1811 L1191 1661 Z"/><path class="fh7" d="M1173 1661 L1323 1811 L1341 1811 L1191 1661 Z" /></g><g class="o"><path transform="translate(2,4)" class="S sfh" d="M1381 1831 L1452 1902 L1460 1902 L1389 1831 Z"/><path class="fh3" d="M1381 1831 L1452 1902 L1460 1902 L1389 1831 Z" /></g><g class="o"><path transform="translate(5,10)" class="S sf" d="M995 1112 L1111 1228 L1141 1228 L1025 1112 Z"/><path class="f2" d="M995 1112 L1111 1228 L1141 1228 L1025 1112 Z" /></g><g class="o"><path transform="translate(5,10)" class="S sfv" d="M1071 1412 L880 1603 L880 1631 L1071 1440 Z"/><path class="fv1" d="M1071 1412 L880 1603 L880 1631 L1071 1440 Z" /></g><g class="o"><path transform="translate(5,10)" class="S sf" d="M1445 1931 L1236 1722 L1252 1722 L1461 1931 Z"/><path class="f4" d="M1445 1931 L1236 1722 L1252 1722 L1461 1931 Z" /></g><g class="o"><path transform="translate(4,8)" class="S sfh" d="M1587 1545 L1773 1731 L1803 1731 L1617 1545 Z"/><path class="fh6" d="M1587 1545 L1773 1731 L1803 1731 L1617 1545 Z" /></g><g class="o"><path transform="translate(4,8)" class="S ssh" d="M1798 1299 L1649 1448 L1659 1448 L1808 1299 Z"/><path class="sh4" d="M1798 1299 L1649 1448 L1659 1448 L1808 1299 Z" /></g><g class="o"><path transform="translate(2,4)" class="S ssh" d="M1767 951 L2004 1188 L2040 1188 L1803 951 Z"/><path class="sh6" d="M1767 951 L2004 1188 L2040 1188 L1803 951 Z" /></g><g class="o"><path transform="translate(8,16)" class="S ss" d="M1927 1332 L1831 1236 L1839 1236 L1935 1332 Z"/><path class="s6" d="M1927 1332 L1831 1236 L1839 1236 L1935 1332 Z" /></g><g class="o"><path transform="translate(4,8)" class="S sfv" d="M1928 1273 L1804 1149 L1804 1165 L1928 1289 Z"/><path class="fv6" d="M1928 1273 L1804 1149 L1804 1165 L1928 1289 Z" /></g><g class="o"><path transform="translate(9,18)" class="S sfh" d="M1126 1449 L1003 1572 L1027 1572 L1150 1449 Z"/><path class="fh2" d="M1126 1449 L1003 1572 L1027 1572 L1150 1449 Z" /></g><g class="o"><path transform="translate(6,12)" class="S sfv" d="M1438 1108 L1331 1001 L1331 1029 L1438 1136 Z"/><path class="fv1" d="M1438 1108 L1331 1001 L1331 1029 L1438 1136 Z" /></g><g class="o"><path transform="translate(7,14)" class="S sf" d="M1709 1188 L1844 1053 L1844 1075 L1709 1210 Z"/><path class="f2" d="M1709 1188 L1844 1053 L1844 1075 L1709 1210 Z" /></g><g class="o"><path transform="translate(6,12)" class="S sfh" d="M1420 1963 L1512 2055 L1524 2055 L1432 1963 Z"/><path class="fh5" d="M1420 1963 L1512 2055 L1524 2055 L1432 1963 Z" /></g></g><use href="#slashes" transform-origin="1500 1500" transform="rotate(180) scale(2)"/></g><rect x="1080" y="1080" width="840" height="840" stroke-width="40" class="o s2" /><use href="#slashes" transform-origin="1500 1500" transform="scale(.9)"/><use href="#slashes" transform-origin="1500 1500" transform="rotate(180) scale(.9)"/></svg>