<svg xmlns="http://www.w3.org/2000/svg" viewBox="750 750 1500 1500"><style>/*<![CDATA[*/svg{background:rgb(34,34,34);max-width:100vw;max-height:100vh}path{stroke-width:4}.o{opacity:.75}.S{opacity:.4}.sf{stroke:none;fill:black}.sfh{stroke:none;fill:url(#hs)}.sfv{stroke:none;fill:url(#vs)}.ss{stroke:black;fill:none}.ssh{stroke:url(#hs);fill:none}.ssv{stroke:url(#vs);fill:none}.s1{fill:none;stroke:rgb(41,50,65)}.f1{stroke:none;fill:rgb(41,50,65)}.sh1{fill:none;stroke:url(#h1)}.fh1{stroke:none;fill:url(#h1)}.sv1{fill:none;stroke:url(#v1)}.fv1{stroke:none;fill:url(#v1)}.s2{fill:none;stroke:rgb(224,251,252)}.f2{stroke:none;fill:rgb(224,251,252)}.sh2{fill:none;stroke:url(#h2)}.fh2{stroke:none;fill:url(#h2)}.sv2{fill:none;stroke:url(#v2)}.fv2{stroke:none;fill:url(#v2)}.s3{fill:none;stroke:rgb(152,193,217)}.f3{stroke:none;fill:rgb(152,193,217)}.sh3{fill:none;stroke:url(#h3)}.fh3{stroke:none;fill:url(#h3)}.sv3{fill:none;stroke:url(#v3)}.fv3{stroke:none;fill:url(#v3)}.s4{fill:none;stroke:rgb(238,108,77)}.f4{stroke:none;fill:rgb(238,108,77)}.sh4{fill:none;stroke:url(#h4)}.fh4{stroke:none;fill:url(#h4)}.sv4{fill:none;stroke:url(#v4)}.fv4{stroke:none;fill:url(#v4)}.s5{fill:none;stroke:rgb(61,90,128)}.f5{stroke:none;fill:rgb(61,90,128)}.sh5{fill:none;stroke:url(#h5)}.fh5{stroke:none;fill:url(#h5)}.sv5{fill:none;stroke:url(#v5)}.fv5{stroke:none;fill:url(#v5)}.s6{fill:none;stroke:rgb(255,255,255)}.f6{stroke:none;fill:rgb(255,255,255)}.sh6{fill:none;stroke:url(#h6)}.fh6{stroke:none;fill:url(#h6)}.sv6{fill:none;stroke:url(#v6)}.fv6{stroke:none;fill:url(#v6)}.s7{fill:none;stroke:rgb(255,0,0)}.f7{stroke:none;fill:rgb(255,0,0)}.sh7{fill:none;stroke:url(#h7)}.fh7{stroke:none;fill:url(#h7)}.sv7{fill:none;stroke:url(#v7)}.fv7{stroke:none;fill:url(#v7)}/*]]>*/</style><defs><linearGradient gradientTransform="rotate(90)" id="hs"><stop offset="20%" stop-color="#000" /><stop offset="95%" stop-color="rgba(0, 0, 0, 0)" /></linearGradient><linearGradient id="vs"><stop offset="20%" stop-color="#000" /><stop offset="95%" stop-color="rgba(0, 0, 0, 0)" /></linearGradient><linearGradient gradientTransform="rotate(90)" id="h1"><stop offset="20%" stop-color="rgba(41,50,65,1)" /><stop offset="95%" stop-color="rgba(41,50,65,0)" /></linearGradient><linearGradient id="v1"><stop offset="20%" stop-color="rgba(41,50,65,1)" /><stop offset="95%" stop-color="rgba(41,50,65,0)" /></linearGradient><linearGradient gradientTransform="rotate(90)" id="h2"><stop offset="20%" stop-color="rgba(224,251,252,1)" /><stop offset="95%" stop-color="rgba(224,251,252,0)" /></linearGradient><linearGradient id="v2"><stop offset="20%" stop-color="rgba(224,251,252,1)" /><stop offset="95%" stop-color="rgba(224,251,252,0)" /></linearGradient><linearGradient gradientTransform="rotate(90)" id="h3"><stop offset="20%" stop-color="rgba(152,193,217,1)" /><stop offset="95%" stop-color="rgba(152,193,217,0)" /></linearGradient><linearGradient id="v3"><stop offset="20%" stop-color="rgba(152,193,217,1)" /><stop offset="95%" stop-color="rgba(152,193,217,0)" /></linearGradient><linearGradient gradientTransform="rotate(90)" id="h4"><stop offset="20%" stop-color="rgba(238,108,77,1)" /><stop offset="95%" stop-color="rgba(238,108,77,0)" /></linearGradient><linearGradient id="v4"><stop offset="20%" stop-color="rgba(238,108,77,1)" /><stop offset="95%" stop-color="rgba(238,108,77,0)" /></linearGradient><linearGradient gradientTransform="rotate(90)" id="h5"><stop offset="20%" stop-color="rgba(61,90,128,1)" /><stop offset="95%" stop-color="rgba(61,90,128,0)" /></linearGradient><linearGradient id="v5"><stop offset="20%" stop-color="rgba(61,90,128,1)" /><stop offset="95%" stop-color="rgba(61,90,128,0)" /></linearGradient><linearGradient gradientTransform="rotate(90)" id="h6"><stop offset="20%" stop-color="rgba(255,255,255,1)" /><stop offset="95%" stop-color="rgba(255,255,255,0)" /></linearGradient><linearGradient id="v6"><stop offset="20%" stop-color="rgba(255,255,255,1)" /><stop offset="95%" stop-color="rgba(255,255,255,0)" /></linearGradient><linearGradient gradientTransform="rotate(90)" id="h7"><stop offset="20%" stop-color="rgba(255,0,0,1)" /><stop offset="95%" stop-color="rgba(255,0,0,0)" /></linearGradient><linearGradient id="v7"><stop offset="20%" stop-color="rgba(255,0,0,1)" /><stop offset="95%" stop-color="rgba(255,0,0,0)" /></linearGradient></defs><g transform-origin="1500 1500" transform="scale(2)" opacity=".2"><g id="slashes"><g class="o"><path transform="translate(3,6)" class="S sfh" d="M1606 1555 L1384 1333 L1396 1333 L1618 1555 Z"/><path class="fh3" d="M1606 1555 L1384 1333 L1396 1333 L1618 1555 Z" /></g><g class="o"><path transform="translate(9,18)" class="S sfh" d="M1294 1819 L1236 1761 L1264 1761 L1322 1819 Z"/><path class="fh3" d="M1294 1819 L1236 1761 L1264 1761 L1322 1819 Z" /></g><g class="o"><path transform="translate(3,6)" class="S sfv" d="M1870 990 L1672 792 L1672 814 L1870 1012 Z"/><path class="fv3" d="M1870 990 L1672 792 L1672 814 L1870 1012 Z" /></g><g class="o"><path transform="translate(6,12)" class="S sfv" d="M1609 1602 L1499 1492 L1499 1506 L1609 1616 Z"/><path class="fv5" d="M1609 1602 L1499 1492 L1499 1506 L1609 1616 Z" /></g><g class="o"><path transform="translate(2,4)" class="S sfv" d="M1889 1958 L1202 1271 L1202 1283 L1889 1970 Z"/><path class="fv7" d="M1889 1958 L1202 1271 L1202 1283 L1889 1970 Z" /></g><g class="o"><path transform="translate(8,16)" class="S ssh" d="M1871 1133 L1752 1014 L1766 1014 L1885 1133 Z"/><path class="sh4" d="M1871 1133 L1752 1014 L1766 1014 L1885 1133 Z" /></g><g class="o"><path transform="translate(9,18)" class="S sf" d="M1577 1857 L857 1137 L883 1137 L1603 1857 Z"/><path class="f1" d="M1577 1857 L857 1137 L883 1137 L1603 1857 Z" /></g><g class="o"><path transform="translate(5,10)" class="S sf" d="M1896 1875 L1684 1663 L1718 1663 L1930 1875 Z"/><path class="f3" d="M1896 1875 L1684 1663 L1718 1663 L1930 1875 Z" /></g><g class="o"><path transform="translate(2,4)" class="S sf" d="M1549 1072 L1436 959 L1436 977 L1549 1090 Z"/><path class="f3" d="M1549 1072 L1436 959 L1436 977 L1549 1090 Z" /></g><g class="o"><path transform="translate(8,16)" class="S sfv" d="M1768 1042 L1525 799 L1525 831 L1768 1074 Z"/><path class="fv2" d="M1768 1042 L1525 799 L1525 831 L1768 1074 Z" /></g><g class="o"><path transform="translate(9,18)" class="S sfv" d="M1071 1494 L636 1059 L636 1089 L1071 1524 Z"/><path class="fv1" d="M1071 1494 L636 1059 L636 1089 L1071 1524 Z" /></g><g class="o"><path transform="translate(7,14)" class="S ssh" d="M1878 1311 L1743 1176 L1783 1176 L1918 1311 Z"/><path class="sh7" d="M1878 1311 L1743 1176 L1783 1176 L1918 1311 Z" /></g><g class="o"><path transform="translate(9,18)" class="S sfv" d="M988 1708 L920 1640 L920 1656 L988 1724 Z"/><path class="fv1" d="M988 1708 L920 1640 L920 1656 L988 1724 Z" /></g><g class="o"><path transform="translate(5,10)" class="S sfh" d="M950 961 L701 712 L711 712 L960 961 Z"/><path class="fh3" d="M950 961 L701 712 L711 712 L960 961 Z" /></g><g class="o"><path transform="translate(8,16)" class="S sfh" d="M1488 1627 L1422 1561 L1446 1561 L1512 1627 Z"/><path class="fh4" d="M1488 1627 L1422 1561 L1446 1561 L1512 1627 Z" /></g><g class="o"><path transform="translate(6,12)" class="S sfv" d="M1370 1455 L1269 1354 L1269 1374 L1370 1475 Z"/><path class="fv5" d="M1370 1455 L1269 1354 L1269 1374 L1370 1475 Z" /></g><g class="o"><path transform="translate(6,12)" class="S ss" d="M1701 1905 L1646 1850 L1646 1888 L1701 1943 Z"/><path class="s7" d="M1701 1905 L1646 1850 L1646 1888 L1701 1943 Z" /></g><g class="o"><path transform="translate(7,14)" class="S sfv" d="M1999 1774 L1772 1547 L1772 1691 L1999 1918 Z"/><path class="fv1" d="M1999 1774 L1772 1547 L1772 1691 L1999 1918 Z" /></g><g class="o"><path transform="translate(3,6)" class="S sfv" d="M1600 1811 L1459 1670 L1459 1696 L1600 1837 Z"/><path class="fv7" d="M1600 1811 L1459 1670 L1459 1696 L1600 1837 Z" /></g><g class="o"><path transform="translate(6,12)" class="S sfh" d="M1143 1866 L926 1649 L958 1649 L1175 1866 Z"/><path class="fh5" d="M1143 1866 L926 1649 L958 1649 L1175 1866 Z" /></g><g class="o"><path transform="translate(9,18)" class="S sf" d="M1169 1714 L1003 1548 L1003 1580 L1169 1746 Z"/><path class="f6" d="M1169 1714 L1003 1548 L1003 1580 L1169 1746 Z" /></g><g class="o"><path transform="translate(2,4)" class="S sfv" d="M1035 1368 L847 1180 L847 1204 L1035 1392 Z"/><path class="fv2" d="M1035 1368 L847 1180 L847 1204 L1035 1392 Z" /></g><g class="o"><path transform="translate(4,8)" class="S sfh" d="M1232 1508 L1147 1423 L1185 1423 L1270 1508 Z"/><path class="fh5" d="M1232 1508 L1147 1423 L1185 1423 L1270 1508 Z" /></g><g class="o"><path transform="translate(3,6)" class="S sfh" d="M1536 1028 L1430 922 L1448 922 L1554 1028 Z"/><path class="fh5" d="M1536 1028 L1430 922 L1448 922 L1554 1028 Z" /></g><g class="o"><path transform="translate(9,18)" class="S ssh" d="M1185 1325 L669 809 L699 809 L1215 1325 Z"/><path class="sh2" d="M1185 1325 L669 809 L699 809 L1215 1325 Z" /></g><g class="o"><path transform="translate(7,14)" class="S sfh" d="M1968 1760 L1900 1692 L1932 1692 L2000 1760 Z"/><path class="fh2" d="M1968 1760 L1900 1692 L1932 1692 L2000 1760 Z" /></g><g class="o"><path transform="translate(3,6)" class="S sf" d="M1914 1551 L1302 939 L1302 967 L1914 1579 Z"/><path class="f7" d="M1914 1551 L1302 939 L1302 967 L1914 1579 Z" /></g><g class="o"><path transform="translate(7,14)" class="S sfv" d="M1927 996 L1792 861 L1792 881 L1927 1016 Z"/><path class="fv2" d="M1927 996 L1792 861 L1792 881 L1927 1016 Z" /></g><g class="o"><path transform="translate(6,12)" class="S sfh" d="M1993 1120 L1777 904 L1787 904 L2003 1120 Z"/><path class="fh5" d="M1993 1120 L1777 904 L1787 904 L2003 1120 Z" /></g><g class="o"><path transform="translate(2,4)" class="S sf" d="M1183 998 L796 611 L796 627 L1183 1014 Z"/><path class="f3" d="M1183 998 L796 611 L796 627 L1183 1014 Z" /></g><g class="o"><path transform="translate(8,16)" class="S sfv" d="M1498 1099 L1335 936 L1335 954 L1498 1117 Z"/><path class="fv7" d="M1498 1099 L1335 936 L1335 954 L1498 1117 Z" /></g><g class="o"><path transform="translate(6,12)" class="S sf" d="M1190 1879 L542 1231 L542 1243 L1190 1891 Z"/><path class="f2" d="M1190 1879 L542 1231 L542 1243 L1190 1891 Z" /></g><g class="o"><path transform="translate(3,6)" class="S ssv" d="M1491 1797 L1328 1634 L1328 1654 L1491 1817 Z"/><path class="sv6" d="M1491 1797 L1328 1634 L1328 1654 L1491 1817 Z" /></g><g class="o"><path transform="translate(9,18)" class="S sfh" d="M1125 1316 L917 1108 L951 1108 L1159 1316 Z"/><path class="fh1" d="M1125 1316 L917 1108 L951 1108 L1159 1316 Z" /></g><g class="o"><path transform="translate(2,4)" class="S sfh" d="M1595 1627 L1489 1521 L1507 1521 L1613 1627 Z"/><path class="fh5" d="M1595 1627 L1489 1521 L1507 1521 L1613 1627 Z" /></g><g class="o"><path transform="translate(8,16)" class="S sfh" d="M1209 1036 L1082 909 L1106 909 L1233 1036 Z"/><path class="fh4" d="M1209 1036 L1082 909 L1106 909 L1233 1036 Z" /></g><g class="o"><path transform="translate(8,16)" class="S ssv" d="M1126 1205 L1002 1081 L1002 1105 L1126 1229 Z"/><path class="sv6" d="M1126 1205 L1002 1081 L1002 1105 L1126 1229 Z" /></g><g class="o"><path transform="translate(7,14)" class="S sf" d="M1248 1437 L1111 1300 L1137 1300 L1274 1437 Z"/><path class="f7" d="M1248 1437 L1111 1300 L1137 1300 L1274 1437 Z" /></g><g class="o"><path transform="translate(6,12)" class="S sfv" d="M1333 1947 L1259 1873 L1259 1901 L1333 1975 Z"/><path class="fv7" d="M1333 1947 L1259 1873 L1259 1901 L1333 1975 Z" /></g><g class="o"><path transform="translate(7,14)" class="S sfv" d="M1432 1694 L1336 1598 L1336 1628 L1432 1724 Z"/><path class="fv6" d="M1432 1694 L1336 1598 L1336 1628 L1432 1724 Z" /></g><g class="o"><path transform="translate(2,4)" class="S sfh" d="M1833 1837 L1666 1670 L1680 1670 L1847 1837 Z"/><path class="fh2" d="M1833 1837 L1666 1670 L1680 1670 L1847 1837 Z" /></g><g class="o"><path transform="translate(6,12)" class="S sfv" d="M1357 1336 L820 799 L820 817 L1357 1354 Z"/><path class="fv6" d="M1357 1336 L820 799 L820 817 L1357 1354 Z" /></g><g class="o"><path transform="translate(2,4)" class="S sfh" d="M1246 1419 L1106 1279 L1140 1279 L1280 1419 Z"/><path class="fh3" d="M1246 1419 L1106 1279 L1140 1279 L1280 1419 Z" /></g><g class="o"><path transform="translate(7,14)" class="S sfv" d="M1837 1937 L1764 1864 L1764 1882 L1837 1955 Z"/><path class="fv7" d="M1837 1937 L1764 1864 L1764 1882 L1837 1955 Z" /></g><g class="o"><path transform="translate(4,8)" class="S sfv" d="M1822 959 L1258 395 L1258 433 L1822 997 Z"/><path class="fv3" d="M1822 959 L1258 395 L1258 433 L1822 997 Z" /></g><g class="o"><path transform="translate(5,10)" class="S sf" d="M1433 1193 L1215 975 L1215 991 L1433 1209 Z"/><path class="f1" d="M1433 1193 L1215 975 L1215 991 L1433 1209 Z" /></g><g class="o"><path transform="translate(7,14)" class="S sf" d="M1254 1388 L1169 1303 L1169 1341 L1254 1426 Z"/><path class="f6" d="M1254 1388 L1169 1303 L1169 1341 L1254 1426 Z" /></g><g class="o"><path transform="translate(7,14)" class="S sfv" d="M1625 1107 L1552 1034 L1552 1072 L1625 1145 Z"/><path class="fv3" d="M1625 1107 L1552 1034 L1552 1072 L1625 1145 Z" /></g><g class="o"><path transform="translate(3,6)" class="S sf" d="M2019 1051 L1952 984 L1952 1002 L2019 1069 Z"/><path class="f1" d="M2019 1051 L1952 984 L1952 1002 L2019 1069 Z" /></g><g class="o"><path transform="translate(4,8)" class="S sfv" d="M1995 1291 L1722 1018 L1722 1044 L1995 1317 Z"/><path class="fv1" d="M1995 1291 L1722 1018 L1722 1044 L1995 1317 Z" /></g><g class="o"><path transform="translate(2,4)" class="S sfv" d="M1192 970 L1001 779 L1001 817 L1192 1008 Z"/><path class="fv5" d="M1192 970 L1001 779 L1001 817 L1192 1008 Z" /></g><g class="o"><path transform="translate(5,10)" class="S sfh" d="M1941 1326 L1718 1103 L1726 1103 L1949 1326 Z"/><path class="fh1" d="M1941 1326 L1718 1103 L1726 1103 L1949 1326 Z" /></g><g class="o"><path transform="translate(4,8)" class="S sfh" d="M1569 1710 L1454 1595 L1462 1595 L1577 1710 Z"/><path class="fh4" d="M1569 1710 L1454 1595 L1462 1595 L1577 1710 Z" /></g><g class="o"><path transform="translate(7,14)" class="S sfv" d="M2004 1901 L1842 1739 L1842 1759 L2004 1921 Z"/><path class="fv3" d="M2004 1901 L1842 1739 L1842 1759 L2004 1921 Z" /></g><g class="o"><path transform="translate(9,18)" class="S sfv" d="M1357 1683 L1238 1564 L1238 1584 L1357 1703 Z"/><path class="fv5" d="M1357 1683 L1238 1564 L1238 1584 L1357 1703 Z" /></g><g class="o"><path transform="translate(7,14)" class="S sfh" d="M1416 1850 L1239 1673 L1275 1673 L1452 1850 Z"/><path class="fh6" d="M1416 1850 L1239 1673 L1275 1673 L1452 1850 Z" /></g><g class="o"><path transform="translate(9,18)" class="S ssv" d="M1235 1222 L1071 1058 L1071 1070 L1235 1234 Z"/><path class="sv7" d="M1235 1222 L1071 1058 L1071 1070 L1235 1234 Z" /></g><g class="o"><path transform="translate(6,12)" class="S ssh" d="M1386 1434 L1217 1265 L1251 1265 L1420 1434 Z"/><path class="sh6" d="M1386 1434 L1217 1265 L1251 1265 L1420 1434 Z" /></g><g class="o"><path transform="translate(9,18)" class="S sf" d="M1836 1854 L1739 1757 L1739 1775 L1836 1872 Z"/><path class="f3" d="M1836 1854 L1739 1757 L1739 1775 L1836 1872 Z" /></g><g class="o"><path transform="translate(8,16)" class="S sfv" d="M1148 1693 L920 1465 L920 1493 L1148 1721 Z"/><path class="fv5" d="M1148 1693 L920 1465 L920 1493 L1148 1721 Z" /></g><g class="o"><path transform="translate(5,10)" class="S sf" d="M1902 1666 L1714 1478 L1722 1478 L1910 1666 Z"/><path class="f5" d="M1902 1666 L1714 1478 L1722 1478 L1910 1666 Z" /></g><g class="o"><path transform="translate(2,4)" class="S sfv" d="M1437 1206 L1323 1092 L1323 1106 L1437 1220 Z"/><path class="fv3" d="M1437 1206 L1323 1092 L1323 1106 L1437 1220 Z" /></g><g class="o"><path transform="translate(4,8)" class="S sfh" d="M1211 1484 L1053 1326 L1073 1326 L1231 1484 Z"/><path class="fh4" d="M1211 1484 L1053 1326 L1073 1326 L1231 1484 Z" /></g><g class="o"><path transform="translate(8,16)" class="S ss" d="M1327 956 L1251 880 L1267 880 L1343 956 Z"/><path class="s3" d="M1327 956 L1251 880 L1267 880 L1343 956 Z" /></g><g class="o"><path transform="translate(8,16)" class="S sfv" d="M1080 1365 L843 1128 L843 1142 L1080 1379 Z"/><path class="fv2" d="M1080 1365 L843 1128 L843 1142 L1080 1379 Z" /></g><g class="o"><path transform="translate(2,4)" class="S sfh" d="M1407 1677 L1173 1443 L1211 1443 L1445 1677 Z"/><path class="fh2" d="M1407 1677 L1173 1443 L1211 1443 L1445 1677 Z" /></g><g class="o"><path transform="translate(6,12)" class="S sfv" d="M1415 1548 L1226 1359 L1226 1371 L1415 1560 Z"/><path class="fv5" d="M1415 1548 L1226 1359 L1226 1371 L1415 1560 Z" /></g><g class="o"><path transform="translate(5,10)" class="S sfh" d="M1267 1163 L1141 1037 L1173 1037 L1299 1163 Z"/><path class="fh1" d="M1267 1163 L1141 1037 L1173 1037 L1299 1163 Z" /></g><g class="o"><path transform="translate(6,12)" class="S sfh" d="M1799 1935 L1669 1805 L1677 1805 L1807 1935 Z"/><path class="fh6" d="M1799 1935 L1669 1805 L1677 1805 L1807 1935 Z" /></g><g class="o"><path transform="translate(5,10)" class="S sfv" d="M1827 1921 L1678 1772 L1678 1790 L1827 1939 Z"/><path class="fv4" d="M1827 1921 L1678 1772 L1678 1790 L1827 1939 Z" /></g><g class="o"><path transform="translate(3,6)" class="S sfv" d="M1244 1472 L1038 1266 L1038 1386 L1244 1592 Z"/><path class="fv4" d="M1244 1472 L1038 1266 L1038 1386 L1244 1592 Z" /></g><g class="o"><path transform="translate(7,14)" class="S sfh" d="M1893 1551 L1711 1369 L1741 1369 L1923 1551 Z"/><path class="fh7" d="M1893 1551 L1711 1369 L1741 1369 L1923 1551 Z" /></g><g class="o"><path transform="translate(9,18)" class="S sfh" d="M1818 1563 L1753 1498 L1767 1498 L1832 1563 Z"/><path class="fh1" d="M1818 1563 L1753 1498 L1767 1498 L1832 1563 Z" /></g><g class="o"><path transform="translate(6,12)" class="S sfv" d="M1685 1198 L1479 992 L1479 1024 L1685 1230 Z"/><path class="fv2" d="M1685 1198 L1479 992 L1479 1024 L1685 1230 Z" /></g><g class="o"><path transform="translate(9,18)" class="S ssh" d="M1966 1183 L1744 961 L1778 961 L2000 1183 Z"/><path class="sh6" d="M1966 1183 L1744 961 L1778 961 L2000 1183 Z" /></g><g class="o"><path transform="translate(2,4)" class="S ss" d="M1496 1794 L1362 1660 L1362 1692 L1496 1826 Z"/><path class="s7" d="M1496 1794 L1362 1660 L1362 1692 L1496 1826 Z" /></g><g class="o"><path transform="translate(5,10)" class="S ssh" d="M1821 1169 L1727 1075 L1755 1075 L1849 1169 Z"/><path class="sh3" d="M1821 1169 L1727 1075 L1755 1075 L1849 1169 Z" /></g><g class="o"><path transform="translate(7,14)" class="S sfh" d="M1415 1574 L848 1007 L884 1007 L1451 1574 Z"/><path class="fh6" d="M1415 1574 L848 1007 L884 1007 L1451 1574 Z" /></g><g class="o"><path transform="translate(8,16)" class="S sf" d="M1080 1672 L938 1530 L970 1530 L1112 1672 Z"/><path class="f4" d="M1080 1672 L938 1530 L970 1530 L1112 1672 Z" /></g><g class="o"><path transform="translate(5,10)" class="S sfv" d="M1916 1593 L1861 1538 L1861 1556 L1916 1611 Z"/><path class="fv6" d="M1916 1593 L1861 1538 L1861 1556 L1916 1611 Z" /></g><g class="o"><path transform="translate(7,14)" class="S sfv" d="M1204 997 L1085 878 L1085 886 L1204 1005 Z"/><path class="fv7" d="M1204 997 L1085 878 L1085 886 L1204 1005 Z" /></g><g class="o"><path transform="translate(5,10)" class="S sf" d="M1880 1161 L1693 974 L1719 974 L1906 1161 Z"/><path class="f4" d="M1880 1161 L1693 974 L1719 974 L1906 1161 Z" /></g><g class="o"><path transform="translate(8,16)" class="S sfh" d="M2017 1528 L1780 1291 L1810 1291 L2047 1528 Z"/><path class="fh5" d="M2017 1528 L1780 1291 L1810 1291 L2047 1528 Z" /></g><g class="o"><path transform="translate(6,12)" class="S sfh" d="M1908 1971 L1620 1683 L1656 1683 L1944 1971 Z"/><path class="fh1" d="M1908 1971 L1620 1683 L1656 1683 L1944 1971 Z" /></g><g class="o"><path transform="translate(7,14)" class="S ssh" d="M1746 1027 L1053 334 L1077 334 L1770 1027 Z"/><path class="sh5" d="M1746 1027 L1053 334 L1077 334 L1770 1027 Z" /></g><g class="o"><path transform="translate(9,18)" class="S sfh" d="M1728 1524 L1492 1288 L1528 1288 L1764 1524 Z"/><path class="fh4" d="M1728 1524 L1492 1288 L1528 1288 L1764 1524 Z" /></g><g class="o"><path transform="translate(7,14)" class="S sf" d="M1456 1060 L1356 960 L1356 978 L1456 1078 Z"/><path class="f5" d="M1456 1060 L1356 960 L1356 978 L1456 1078 Z" /></g><g class="o"><path transform="translate(7,14)" class="S sfv" d="M1993 1815 L1927 1749 L1927 1783 L1993 1849 Z"/><path class="fv7" d="M1993 1815 L1927 1749 L1927 1783 L1993 1849 Z" /></g><g class="o"><path transform="translate(3,6)" class="S sfh" d="M1335 1317 L1101 1083 L1125 1083 L1359 1317 Z"/><path class="fh4" d="M1335 1317 L1101 1083 L1125 1083 L1359 1317 Z" /></g><g class="o"><path transform="translate(4,8)" class="S sfh" d="M1943 1165 L1733 955 L1837 955 L2047 1165 Z"/><path class="fh2" d="M1943 1165 L1733 955 L1837 955 L2047 1165 Z" /></g><g class="o"><path transform="translate(7,14)" class="S sfv" d="M1481 1541 L1390 1450 L1390 1530 L1481 1621 Z"/><path class="fv3" d="M1481 1541 L1390 1450 L1390 1530 L1481 1621 Z" /></g><g class="o"><path transform="translate(8,16)" class="S sfh" d="M1125 1692 L1008 1575 L1030 1575 L1147 1692 Z"/><path class="fh7" d="M1125 1692 L1008 1575 L1030 1575 L1147 1692 Z" /></g><g class="o"><path transform="translate(4,8)" class="S sfh" d="M1133 1128 L897 892 L933 892 L1169 1128 Z"/><path class="fh5" d="M1133 1128 L897 892 L933 892 L1169 1128 Z" /></g><g class="o"><path transform="translate(3,6)" class="S sfh" d="M1594 1539 L1494 1439 L1514 1439 L1614 1539 Z"/><path class="fh5" d="M1594 1539 L1494 1439 L1514 1439 L1614 1539 Z" /></g><g class="o"><path transform="translate(7,14)" class="S sf" d="M2019 1125 L1852 958 L1866 958 L2033 1125 Z"/><path class="f1" d="M2019 1125 L1852 958 L1866 958 L2033 1125 Z" /></g><g class="o"><path transform="translate(9,18)" class="S sfh" d="M1229 1496 L990 1257 L1026 1257 L1265 1496 Z"/><path class="fh6" d="M1229 1496 L990 1257 L1026 1257 L1265 1496 Z" /></g><g class="o"><path transform="translate(9,18)" class="S ssh" d="M1323 1044 L762 483 L800 483 L1361 1044 Z"/><path class="sh4" d="M1323 1044 L762 483 L800 483 L1361 1044 Z" /></g><g class="o"><path transform="translate(2,4)" class="S sfh" d="M1947 1221 L1714 988 L1740 988 L1973 1221 Z"/><path class="fh3" d="M1947 1221 L1714 988 L1740 988 L1973 1221 Z" /></g><g class="o"><path transform="translate(8,16)" class="S sfh" d="M1046 1455 L953 1362 L991 1362 L1084 1455 Z"/><path class="fh2" d="M1046 1455 L953 1362 L991 1362 L1084 1455 Z" /></g><g class="o"><path transform="translate(3,6)" class="S sfh" d="M985 1317 L772 1104 L798 1104 L1011 1317 Z"/><path class="fh7" d="M985 1317 L772 1104 L798 1104 L1011 1317 Z" /></g><g class="o"><path transform="translate(3,6)" class="S ssv" d="M1661 1839 L1545 1723 L1545 1751 L1661 1867 Z"/><path class="sv3" d="M1661 1839 L1545 1723 L1545 1751 L1661 1867 Z" /></g><g class="o"><path transform="translate(3,6)" class="S sfh" d="M1770 1881 L1596 1707 L1606 1707 L1780 1881 Z"/><path class="fh6" d="M1770 1881 L1596 1707 L1606 1707 L1780 1881 Z" /></g><g class="o"><path transform="translate(3,6)" class="S ss" d="M1394 1037 L1306 949 L1306 961 L1394 1049 Z"/><path class="s5" d="M1394 1037 L1306 949 L1306 961 L1394 1049 Z" /></g><g class="o"><path transform="translate(9,18)" class="S sfh" d="M1926 999 L1703 776 L1721 776 L1944 999 Z"/><path class="fh3" d="M1926 999 L1703 776 L1721 776 L1944 999 Z" /></g><g class="o"><path transform="translate(4,8)" class="S sfh" d="M1158 1251 L1016 1109 L1136 1109 L1278 1251 Z"/><path class="fh5" d="M1158 1251 L1016 1109 L1136 1109 L1278 1251 Z" /></g><g class="o"><path transform="translate(8,16)" class="S sfh" d="M1563 1839 L1475 1751 L1483 1751 L1571 1839 Z"/><path class="fh1" d="M1563 1839 L1475 1751 L1483 1751 L1571 1839 Z" /></g><g class="o"><path transform="translate(6,12)" class="S sfh" d="M1244 1343 L1056 1155 L1084 1155 L1272 1343 Z"/><path class="fh1" d="M1244 1343 L1056 1155 L1084 1155 L1272 1343 Z" /></g><g class="o"><path transform="translate(3,6)" class="S ssh" d="M1546 1399 L814 667 L832 667 L1564 1399 Z"/><path class="sh3" d="M1546 1399 L814 667 L832 667 L1564 1399 Z" /></g><g class="o"><path transform="translate(3,6)" class="S ss" d="M1728 1238 L1552 1062 L1580 1062 L1756 1238 Z"/><path class="s6" d="M1728 1238 L1552 1062 L1580 1062 L1756 1238 Z" /></g><g class="o"><path transform="translate(4,8)" class="S ssv" d="M1389 1623 L1214 1448 L1214 1470 L1389 1645 Z"/><path class="sv7" d="M1389 1623 L1214 1448 L1214 1470 L1389 1645 Z" /></g><g class="o"><path transform="translate(4,8)" class="S ss" d="M1127 1473 L1024 1370 L1024 1392 L1127 1495 Z"/><path class="s4" d="M1127 1473 L1024 1370 L1024 1392 L1127 1495 Z" /></g><g class="o"><path transform="translate(6,12)" class="S sf" d="M1422 1848 L1273 1699 L1295 1699 L1444 1848 Z"/><path class="f2" d="M1422 1848 L1273 1699 L1295 1699 L1444 1848 Z" /></g><g class="o"><path transform="translate(2,4)" class="S sfv" d="M1431 1039 L1277 885 L1277 919 L1431 1073 Z"/><path class="fv1" d="M1431 1039 L1277 885 L1277 919 L1431 1073 Z" /></g><g class="o"><path transform="translate(4,8)" class="S ss" d="M1837 1673 L1619 1455 L1619 1483 L1837 1701 Z"/><path class="s2" d="M1837 1673 L1619 1455 L1619 1483 L1837 1701 Z" /></g><g class="o"><path transform="translate(3,6)" class="S sfh" d="M1097 1728 L880 1511 L908 1511 L1125 1728 Z"/><path class="fh3" d="M1097 1728 L880 1511 L908 1511 L1125 1728 Z" /></g><g class="o"><path transform="translate(2,4)" class="S ssh" d="M1777 1792 L1701 1716 L1781 1716 L1857 1792 Z"/><path class="sh2" d="M1777 1792 L1701 1716 L1781 1716 L1857 1792 Z" /></g><g class="o"><path transform="translate(5,10)" class="S sf" d="M1146 2040 L1093 1987 L1119 1987 L1172 2040 Z"/><path class="f4" d="M1146 2040 L1093 1987 L1119 1987 L1172 2040 Z" /></g><g class="o"><path transform="translate(5,10)" class="S ssv" d="M951 1372 L704 1125 L704 1145 L951 1392 Z"/><path class="sv7" d="M951 1372 L704 1125 L704 1145 L951 1392 Z" /></g><g class="o"><path transform="translate(2,4)" class="S sfv" d="M1987 1588 L1805 1406 L1805 1430 L1987 1612 Z"/><path class="fv7" d="M1987 1588 L1805 1406 L1805 1430 L1987 1612 Z" /></g><g class="o"><path transform="translate(7,14)" class="S sfh" d="M1480 1497 L1334 1351 L1372 1351 L1518 1497 Z"/><path class="fh7" d="M1480 1497 L1334 1351 L1372 1351 L1518 1497 Z" /></g><g class="o"><path transform="translate(9,18)" class="S sfv" d="M1451 1259 L1395 1203 L1395 1229 L1451 1285 Z"/><path class="fv3" d="M1451 1259 L1395 1203 L1395 1229 L1451 1285 Z" /></g><g class="o"><path transform="translate(3,6)" class="S sfh" d="M1241 1797 L1006 1562 L1026 1562 L1261 1797 Z"/><path class="fh5" d="M1241 1797 L1006 1562 L1026 1562 L1261 1797 Z" /></g><g class="o"><path transform="translate(5,10)" class="S sf" d="M1392 1504 L1237 1349 L1237 1379 L1392 1534 Z"/><path class="f7" d="M1392 1504 L1237 1349 L1237 1379 L1392 1534 Z" /></g><g class="o"><path transform="translate(3,6)" class="S sf" d="M1658 1722 L1424 1488 L1424 1500 L1658 1734 Z"/><path class="f3" d="M1658 1722 L1424 1488 L1424 1500 L1658 1734 Z" /></g><g class="o"><path transform="translate(6,12)" class="S sfv" d="M1983 1083 L1845 945 L1845 957 L1983 1095 Z"/><path class="fv1" d="M1983 1083 L1845 945 L1845 957 L1983 1095 Z" /></g><g class="o"><path transform="translate(3,6)" class="S sfv" d="M1266 1511 L1067 1312 L1067 1336 L1266 1535 Z"/><path class="fv1" d="M1266 1511 L1067 1312 L1067 1336 L1266 1535 Z" /></g><g class="o"><path transform="translate(8,16)" class="S sfh" d="M1261 1039 L1124 902 L1138 902 L1275 1039 Z"/><path class="fh5" d="M1261 1039 L1124 902 L1138 902 L1275 1039 Z" /></g><g class="o"><path transform="translate(9,18)" class="S sfh" d="M947 1944 L812 1809 L846 1809 L981 1944 Z"/><path class="fh1" d="M947 1944 L812 1809 L846 1809 L981 1944 Z" /></g><g class="o"><path transform="translate(3,6)" class="S sfv" d="M1554 932 L1089 467 L1089 505 L1554 970 Z"/><path class="fv3" d="M1554 932 L1089 467 L1089 505 L1554 970 Z" /></g><g class="o"><path transform="translate(2,4)" class="S ssv" d="M997 1826 L874 1703 L874 1731 L997 1854 Z"/><path class="sv5" d="M997 1826 L874 1703 L874 1731 L997 1854 Z" /></g><g class="o"><path transform="translate(8,16)" class="S sf" d="M1755 2025 L1609 1879 L1609 1907 L1755 2053 Z"/><path class="f2" d="M1755 2025 L1609 1879 L1609 1907 L1755 2053 Z" /></g><g class="o"><path transform="translate(3,6)" class="S sfh" d="M1557 1624 L1365 1432 L1385 1432 L1577 1624 Z"/><path class="fh5" d="M1557 1624 L1365 1432 L1385 1432 L1577 1624 Z" /></g><g class="o"><path transform="translate(9,18)" class="S sfv" d="M1648 1322 L1597 1271 L1597 1291 L1648 1342 Z"/><path class="fv3" d="M1648 1322 L1597 1271 L1597 1291 L1648 1342 Z" /></g><g class="o"><path transform="translate(9,18)" class="S sfh" d="M1969 1402 L1761 1194 L1773 1194 L1981 1402 Z"/><path class="fh3" d="M1969 1402 L1761 1194 L1773 1194 L1981 1402 Z" /></g><g class="o"><path transform="translate(4,8)" class="S sf" d="M1615 1448 L1461 1294 L1473 1294 L1627 1448 Z"/><path class="f1" d="M1615 1448 L1461 1294 L1473 1294 L1627 1448 Z" /></g><g class="o"><path transform="translate(9,18)" class="S sfh" d="M1994 2032 L1753 1791 L1783 1791 L2024 2032 Z"/><path class="fh5" d="M1994 2032 L1753 1791 L1783 1791 L2024 2032 Z" /></g><g class="o"><path transform="translate(3,6)" class="S sfv" d="M1519 1096 L1465 1042 L1465 1080 L1519 1134 Z"/><path class="fv5" d="M1519 1096 L1465 1042 L1465 1080 L1519 1134 Z" /></g><g class="o"><path transform="translate(3,6)" class="S sfv" d="M1034 1760 L853 1579 L853 1615 L1034 1796 Z"/><path class="fv7" d="M1034 1760 L853 1579 L853 1615 L1034 1796 Z" /></g><g class="o"><path transform="translate(5,10)" class="S sfh" d="M1658 1383 L1397 1122 L1419 1122 L1680 1383 Z"/><path class="fh2" d="M1658 1383 L1397 1122 L1419 1122 L1680 1383 Z" /></g><g class="o"><path transform="translate(2,4)" class="S sf" d="M1922 1736 L1814 1628 L1814 1662 L1922 1770 Z"/><path class="f4" d="M1922 1736 L1814 1628 L1814 1662 L1922 1770 Z" /></g></g><use href="#slashes" transform-origin="1500 1500" transform="rotate(180) scale(2)"/></g><rect x="1080" y="1080" width="840" height="840" stroke-width="40" class="o s1" /><use href="#slashes" transform-origin="1500 1500" transform="scale(.7)"/><use href="#slashes" transform-origin="1500 1500" transform="rotate(180) scale(.3)"/></svg>