<svg xmlns="http://www.w3.org/2000/svg" viewBox="750 750 1500 1500"><style>/*<![CDATA[*/svg{background:rgb(251,0,2);max-width:100vw;max-height:100vh}path{stroke-width:4}.o{opacity:.75}.S{opacity:.4}.sf{stroke:none;fill:black}.sfh{stroke:none;fill:url(#hs)}.sfv{stroke:none;fill:url(#vs)}.ss{stroke:black;fill:none}.ssh{stroke:url(#hs);fill:none}.ssv{stroke:url(#vs);fill:none}.s1{fill:none;stroke:rgb(254,240,0)}.f1{stroke:none;fill:rgb(254,240,0)}.sh1{fill:none;stroke:url(#h1)}.fh1{stroke:none;fill:url(#h1)}.sv1{fill:none;stroke:url(#v1)}.fv1{stroke:none;fill:url(#v1)}.s2{fill:none;stroke:rgb(28,130,235)}.f2{stroke:none;fill:rgb(28,130,235)}.sh2{fill:none;stroke:url(#h2)}.fh2{stroke:none;fill:url(#h2)}.sv2{fill:none;stroke:url(#v2)}.fv2{stroke:none;fill:url(#v2)}.s3{fill:none;stroke:rgb(25,12,40)}.f3{stroke:none;fill:rgb(25,12,40)}.sh3{fill:none;stroke:url(#h3)}.fh3{stroke:none;fill:url(#h3)}.sv3{fill:none;stroke:url(#v3)}.fv3{stroke:none;fill:url(#v3)}.s4{fill:none;stroke:rgb(254,247,238)}.f4{stroke:none;fill:rgb(254,247,238)}.sh4{fill:none;stroke:url(#h4)}.fh4{stroke:none;fill:url(#h4)}.sv4{fill:none;stroke:url(#v4)}.fv4{stroke:none;fill:url(#v4)}.s5{fill:none;stroke:rgb(34,34,34)}.f5{stroke:none;fill:rgb(34,34,34)}.sh5{fill:none;stroke:url(#h5)}.fh5{stroke:none;fill:url(#h5)}.sv5{fill:none;stroke:url(#v5)}.fv5{stroke:none;fill:url(#v5)}.s6{fill:none;stroke:rgb(255,255,255)}.f6{stroke:none;fill:rgb(255,255,255)}.sh6{fill:none;stroke:url(#h6)}.fh6{stroke:none;fill:url(#h6)}.sv6{fill:none;stroke:url(#v6)}.fv6{stroke:none;fill:url(#v6)}.s7{fill:none;stroke:rgb(255,255,0)}.f7{stroke:none;fill:rgb(255,255,0)}.sh7{fill:none;stroke:url(#h7)}.fh7{stroke:none;fill:url(#h7)}.sv7{fill:none;stroke:url(#v7)}.fv7{stroke:none;fill:url(#v7)}/*]]>*/</style><defs><linearGradient gradientTransform="rotate(90)" id="hs"><stop offset="20%" stop-color="#000" /><stop offset="95%" stop-color="rgba(0, 0, 0, 0)" /></linearGradient><linearGradient id="vs"><stop offset="20%" stop-color="#000" /><stop offset="95%" stop-color="rgba(0, 0, 0, 0)" /></linearGradient><linearGradient gradientTransform="rotate(90)" id="h1"><stop offset="20%" stop-color="rgba(254,240,0,1)" /><stop offset="95%" stop-color="rgba(254,240,0,0)" /></linearGradient><linearGradient id="v1"><stop offset="20%" stop-color="rgba(254,240,0,1)" /><stop offset="95%" stop-color="rgba(254,240,0,0)" /></linearGradient><linearGradient gradientTransform="rotate(90)" id="h2"><stop offset="20%" stop-color="rgba(28,130,235,1)" /><stop offset="95%" stop-color="rgba(28,130,235,0)" /></linearGradient><linearGradient id="v2"><stop offset="20%" stop-color="rgba(28,130,235,1)" /><stop offset="95%" stop-color="rgba(28,130,235,0)" /></linearGradient><linearGradient gradientTransform="rotate(90)" id="h3"><stop offset="20%" stop-color="rgba(25,12,40,1)" /><stop offset="95%" stop-color="rgba(25,12,40,0)" /></linearGradient><linearGradient id="v3"><stop offset="20%" stop-color="rgba(25,12,40,1)" /><stop offset="95%" stop-color="rgba(25,12,40,0)" /></linearGradient><linearGradient gradientTransform="rotate(90)" id="h4"><stop offset="20%" stop-color="rgba(254,247,238,1)" /><stop offset="95%" stop-color="rgba(254,247,238,0)" /></linearGradient><linearGradient id="v4"><stop offset="20%" stop-color="rgba(254,247,238,1)" /><stop offset="95%" stop-color="rgba(254,247,238,0)" /></linearGradient><linearGradient gradientTransform="rotate(90)" id="h5"><stop offset="20%" stop-color="rgba(34,34,34,1)" /><stop offset="95%" stop-color="rgba(34,34,34,0)" /></linearGradient><linearGradient id="v5"><stop offset="20%" stop-color="rgba(34,34,34,1)" /><stop offset="95%" stop-color="rgba(34,34,34,0)" /></linearGradient><linearGradient gradientTransform="rotate(90)" id="h6"><stop offset="20%" stop-color="rgba(255,255,255,1)" /><stop offset="95%" stop-color="rgba(255,255,255,0)" /></linearGradient><linearGradient id="v6"><stop offset="20%" stop-color="rgba(255,255,255,1)" /><stop offset="95%" stop-color="rgba(255,255,255,0)" /></linearGradient><linearGradient gradientTransform="rotate(90)" id="h7"><stop offset="20%" stop-color="rgba(255,255,0,1)" /><stop offset="95%" stop-color="rgba(255,255,0,0)" /></linearGradient><linearGradient id="v7"><stop offset="20%" stop-color="rgba(255,255,0,1)" /><stop offset="95%" stop-color="rgba(255,255,0,0)" /></linearGradient></defs><g transform-origin="1500 1500" transform="scale(2)" opacity=".6"><g id="slashes"><g class="o"><path transform="translate(9,18)" class="S sf" d="M1738 1811 L1885 1958 L1885 1978 L1738 1831 Z"/><path class="f3" d="M1738 1811 L1885 1958 L1885 1978 L1738 1831 Z" /></g><g class="o"><path transform="translate(4,8)" class="S sfv" d="M2033 1606 L2195 1768 L2195 1798 L2033 1636 Z"/><path class="fv4" d="M2033 1606 L2195 1768 L2195 1798 L2033 1636 Z" /></g><g class="o"><path transform="translate(3,6)" class="S sfv" d="M1651 1105 L1876 880 L1876 916 L1651 1141 Z"/><path class="fv2" d="M1651 1105 L1876 880 L1876 916 L1651 1141 Z" /></g><g class="o"><path transform="translate(9,18)" class="S sfv" d="M1276 1685 L1327 1634 L1327 1668 L1276 1719 Z"/><path class="fv5" d="M1276 1685 L1327 1634 L1327 1668 L1276 1719 Z" /></g><g class="o"><path transform="translate(9,18)" class="S sfv" d="M1466 1425 L1581 1310 L1581 1324 L1466 1439 Z"/><path class="fv4" d="M1466 1425 L1581 1310 L1581 1324 L1466 1439 Z" /></g><g class="o"><path transform="translate(4,8)" class="S sfh" d="M1604 1249 L1702 1151 L1736 1151 L1638 1249 Z"/><path class="fh7" d="M1604 1249 L1702 1151 L1736 1151 L1638 1249 Z" /></g><g class="o"><path transform="translate(3,6)" class="S sf" d="M1826 1666 L2048 1444 L2048 1474 L1826 1696 Z"/><path class="f2" d="M1826 1666 L2048 1444 L2048 1474 L1826 1696 Z" /></g><g class="o"><path transform="translate(9,18)" class="S sfv" d="M1747 1526 L1800 1473 L1800 1511 L1747 1564 Z"/><path class="fv6" d="M1747 1526 L1800 1473 L1800 1511 L1747 1564 Z" /></g><g class="o"><path transform="translate(2,4)" class="S sfh" d="M1324 1100 L1519 905 L1535 905 L1340 1100 Z"/><path class="fh3" d="M1324 1100 L1519 905 L1535 905 L1340 1100 Z" /></g><g class="o"><path transform="translate(5,10)" class="S sf" d="M1316 1453 L1466 1603 L1490 1603 L1340 1453 Z"/><path class="f1" d="M1316 1453 L1466 1603 L1490 1603 L1340 1453 Z" /></g><g class="o"><path transform="translate(7,14)" class="S sfh" d="M1862 1301 L2068 1095 L2090 1095 L1884 1301 Z"/><path class="fh4" d="M1862 1301 L2068 1095 L2090 1095 L1884 1301 Z" /></g><g class="o"><path transform="translate(4,8)" class="S sf" d="M1274 1806 L1408 1672 L1430 1672 L1296 1806 Z"/><path class="f7" d="M1274 1806 L1408 1672 L1430 1672 L1296 1806 Z" /></g><g class="o"><path transform="translate(8,16)" class="S ssh" d="M1684 1046 L1839 1201 L1887 1201 L1732 1046 Z"/><path class="sh1" d="M1684 1046 L1839 1201 L1887 1201 L1732 1046 Z" /></g><g class="o"><path transform="translate(8,16)" class="S sfv" d="M983 1928 L1083 2028 L1083 2058 L983 1958 Z"/><path class="fv7" d="M983 1928 L1083 2028 L1083 2058 L983 1958 Z" /></g><g class="o"><path transform="translate(9,18)" class="S ssv" d="M1746 1226 L2253 1733 L2253 1747 L1746 1240 Z"/><path class="sv3" d="M1746 1226 L2253 1733 L2253 1747 L1746 1240 Z" /></g><g class="o"><path transform="translate(2,4)" class="S sfh" d="M1153 1540 L1339 1354 L1349 1354 L1163 1540 Z"/><path class="fh5" d="M1153 1540 L1339 1354 L1349 1354 L1163 1540 Z" /></g><g class="o"><path transform="translate(5,10)" class="S sfh" d="M1847 1604 L1978 1473 L2042 1473 L1911 1604 Z"/><path class="fh7" d="M1847 1604 L1978 1473 L2042 1473 L1911 1604 Z" /></g><g class="o"><path transform="translate(4,8)" class="S sfv" d="M1266 1223 L1947 542 L1947 564 L1266 1245 Z"/><path class="fv6" d="M1266 1223 L1947 542 L1947 564 L1266 1245 Z" /></g><g class="o"><path transform="translate(2,4)" class="S sf" d="M1342 1799 L1512 1629 L1528 1629 L1358 1799 Z"/><path class="f5" d="M1342 1799 L1512 1629 L1528 1629 L1358 1799 Z" /></g><g class="o"><path transform="translate(6,12)" class="S sfv" d="M1356 1284 L1578 1506 L1578 1520 L1356 1298 Z"/><path class="fv7" d="M1356 1284 L1578 1506 L1578 1520 L1356 1298 Z" /></g><g class="o"><path transform="translate(5,10)" class="S sfv" d="M1758 1702 L1808 1652 L1808 1686 L1758 1736 Z"/><path class="fv5" d="M1758 1702 L1808 1652 L1808 1686 L1758 1736 Z" /></g><g class="o"><path transform="translate(3,6)" class="S sfv" d="M1048 1811 L1236 1999 L1236 2031 L1048 1843 Z"/><path class="fv2" d="M1048 1811 L1236 1999 L1236 2031 L1048 1843 Z" /></g><g class="o"><path transform="translate(5,10)" class="S sfv" d="M1631 1977 L2117 1491 L2117 1525 L1631 2011 Z"/><path class="fv2" d="M1631 1977 L2117 1491 L2117 1525 L1631 2011 Z" /></g><g class="o"><path transform="translate(7,14)" class="S ss" d="M1027 1116 L1122 1021 L1150 1021 L1055 1116 Z"/><path class="s5" d="M1027 1116 L1122 1021 L1150 1021 L1055 1116 Z" /></g><g class="o"><path transform="translate(9,18)" class="S sf" d="M1144 1866 L1243 1965 L1257 1965 L1158 1866 Z"/><path class="f1" d="M1144 1866 L1243 1965 L1257 1965 L1158 1866 Z" /></g><g class="o"><path transform="translate(3,6)" class="S sf" d="M1117 2004 L1384 2271 L1406 2271 L1139 2004 Z"/><path class="f1" d="M1117 2004 L1384 2271 L1406 2271 L1139 2004 Z" /></g><g class="o"><path transform="translate(2,4)" class="S sfh" d="M1920 1873 L2019 1972 L2039 1972 L1940 1873 Z"/><path class="fh4" d="M1920 1873 L2019 1972 L2039 1972 L1940 1873 Z" /></g><g class="o"><path transform="translate(5,10)" class="S sfv" d="M1654 1091 L2302 443 L2302 477 L1654 1125 Z"/><path class="fv2" d="M1654 1091 L2302 443 L2302 477 L1654 1125 Z" /></g><g class="o"><path transform="translate(5,10)" class="S sfh" d="M1272 1107 L1465 914 L1491 914 L1298 1107 Z"/><path class="fh1" d="M1272 1107 L1465 914 L1491 914 L1298 1107 Z" /></g><g class="o"><path transform="translate(8,16)" class="S sf" d="M1061 1698 L1278 1915 L1306 1915 L1089 1698 Z"/><path class="f7" d="M1061 1698 L1278 1915 L1306 1915 L1089 1698 Z" /></g><g class="o"><path transform="translate(9,18)" class="S sfv" d="M1741 1060 L2356 445 L2356 469 L1741 1084 Z"/><path class="fv3" d="M1741 1060 L2356 445 L2356 469 L1741 1084 Z" /></g><g class="o"><path transform="translate(7,14)" class="S ssv" d="M1098 1944 L1506 1536 L1506 1558 L1098 1966 Z"/><path class="sv3" d="M1098 1944 L1506 1536 L1506 1558 L1098 1966 Z" /></g><g class="o"><path transform="translate(2,4)" class="S ssh" d="M990 1908 L1154 2072 L1282 2072 L1118 1908 Z"/><path class="sh5" d="M990 1908 L1154 2072 L1282 2072 L1118 1908 Z" /></g><g class="o"><path transform="translate(5,10)" class="S sfh" d="M1779 1902 L2005 1676 L2037 1676 L1811 1902 Z"/><path class="fh6" d="M1779 1902 L2005 1676 L2037 1676 L1811 1902 Z" /></g><g class="o"><path transform="translate(3,6)" class="S sfh" d="M1460 1660 L1664 1864 L1678 1864 L1474 1660 Z"/><path class="fh3" d="M1460 1660 L1664 1864 L1678 1864 L1474 1660 Z" /></g><g class="o"><path transform="translate(2,4)" class="S sfh" d="M1868 962 L2086 744 L2118 744 L1900 962 Z"/><path class="fh7" d="M1868 962 L2086 744 L2118 744 L1900 962 Z" /></g><g class="o"><path transform="translate(9,18)" class="S sfv" d="M1405 1379 L1593 1191 L1593 1203 L1405 1391 Z"/><path class="fv4" d="M1405 1379 L1593 1191 L1593 1203 L1405 1391 Z" /></g><g class="o"><path transform="translate(2,4)" class="S sfh" d="M1302 1214 L1551 965 L1573 965 L1324 1214 Z"/><path class="fh7" d="M1302 1214 L1551 965 L1573 965 L1324 1214 Z" /></g><g class="o"><path transform="translate(2,4)" class="S sf" d="M1030 1492 L1244 1278 L1268 1278 L1054 1492 Z"/><path class="f4" d="M1030 1492 L1244 1278 L1268 1278 L1054 1492 Z" /></g><g class="o"><path transform="translate(5,10)" class="S ssv" d="M1431 1802 L1603 1974 L1603 2086 L1431 1914 Z"/><path class="sv7" d="M1431 1802 L1603 1974 L1603 2086 L1431 1914 Z" /></g><g class="o"><path transform="translate(8,16)" class="S sfv" d="M1251 1138 L1424 1311 L1424 1335 L1251 1162 Z"/><path class="fv6" d="M1251 1138 L1424 1311 L1424 1335 L1251 1162 Z" /></g><g class="o"><path transform="translate(3,6)" class="S sfh" d="M1331 1250 L1460 1379 L1488 1379 L1359 1250 Z"/><path class="fh2" d="M1331 1250 L1460 1379 L1488 1379 L1359 1250 Z" /></g><g class="o"><path transform="translate(9,18)" class="S sf" d="M990 1592 L1293 1289 L1293 1297 L990 1600 Z"/><path class="f5" d="M990 1592 L1293 1289 L1293 1297 L990 1600 Z" /></g><g class="o"><path transform="translate(6,12)" class="S sfh" d="M1672 1748 L1885 1535 L1905 1535 L1692 1748 Z"/><path class="fh2" d="M1672 1748 L1885 1535 L1905 1535 L1692 1748 Z" /></g><g class="o"><path transform="translate(6,12)" class="S sfh" d="M1983 1709 L2091 1817 L2127 1817 L2019 1709 Z"/><path class="fh5" d="M1983 1709 L2091 1817 L2127 1817 L2019 1709 Z" /></g><g class="o"><path transform="translate(2,4)" class="S sfv" d="M1009 1206 L1189 1386 L1189 1396 L1009 1216 Z"/><path class="fv7" d="M1009 1206 L1189 1386 L1189 1396 L1009 1216 Z" /></g><g class="o"><path transform="translate(7,14)" class="S ss" d="M1766 1342 L1822 1286 L1822 1298 L1766 1354 Z"/><path class="s7" d="M1766 1342 L1822 1286 L1822 1298 L1766 1354 Z" /></g><g class="o"><path transform="translate(3,6)" class="S sfh" d="M1263 2017 L1409 2163 L1417 2163 L1271 2017 Z"/><path class="fh4" d="M1263 2017 L1409 2163 L1417 2163 L1271 2017 Z" /></g><g class="o"><path transform="translate(7,14)" class="S sfh" d="M1024 2027 L1253 2256 L1275 2256 L1046 2027 Z"/><path class="fh7" d="M1024 2027 L1253 2256 L1275 2256 L1046 2027 Z" /></g><g class="o"><path transform="translate(9,18)" class="S sfv" d="M1355 1093 L1416 1032 L1416 1068 L1355 1129 Z"/><path class="fv7" d="M1355 1093 L1416 1032 L1416 1068 L1355 1129 Z" /></g><g class="o"><path transform="translate(3,6)" class="S sfv" d="M1641 1283 L1800 1124 L1800 1142 L1641 1301 Z"/><path class="fv2" d="M1641 1283 L1800 1124 L1800 1142 L1641 1301 Z" /></g><g class="o"><path transform="translate(8,16)" class="S sfv" d="M1161 1967 L1327 1801 L1327 1821 L1161 1987 Z"/><path class="fv1" d="M1161 1967 L1327 1801 L1327 1821 L1161 1987 Z" /></g><g class="o"><path transform="translate(8,16)" class="S sf" d="M1683 1365 L2244 1926 L2262 1926 L1701 1365 Z"/><path class="f6" d="M1683 1365 L2244 1926 L2262 1926 L1701 1365 Z" /></g><g class="o"><path transform="translate(9,18)" class="S sfh" d="M1513 954 L1726 1167 L1762 1167 L1549 954 Z"/><path class="fh3" d="M1513 954 L1726 1167 L1762 1167 L1549 954 Z" /></g><g class="o"><path transform="translate(3,6)" class="S sfv" d="M1018 2007 L1726 2715 L1726 2745 L1018 2037 Z"/><path class="fv7" d="M1018 2007 L1726 2715 L1726 2745 L1018 2037 Z" /></g><g class="o"><path transform="translate(4,8)" class="S sfv" d="M1653 1675 L2178 2200 L2178 2218 L1653 1693 Z"/><path class="fv4" d="M1653 1675 L2178 2200 L2178 2218 L1653 1693 Z" /></g><g class="o"><path transform="translate(4,8)" class="S sfh" d="M1783 1604 L2031 1852 L2045 1852 L1797 1604 Z"/><path class="fh7" d="M1783 1604 L2031 1852 L2045 1852 L1797 1604 Z" /></g><g class="o"><path transform="translate(4,8)" class="S ssh" d="M964 1970 L1076 2082 L1108 2082 L996 1970 Z"/><path class="sh1" d="M964 1970 L1076 2082 L1108 2082 L996 1970 Z" /></g><g class="o"><path transform="translate(7,14)" class="S sfv" d="M1301 1727 L1402 1626 L1402 1652 L1301 1753 Z"/><path class="fv3" d="M1301 1727 L1402 1626 L1402 1652 L1301 1753 Z" /></g><g class="o"><path transform="translate(2,4)" class="S sfv" d="M995 1152 L1421 1578 L1421 1658 L995 1232 Z"/><path class="fv3" d="M995 1152 L1421 1578 L1421 1658 L995 1232 Z" /></g><g class="o"><path transform="translate(8,16)" class="S sfv" d="M1266 1143 L1509 900 L1509 914 L1266 1157 Z"/><path class="fv4" d="M1266 1143 L1509 900 L1509 914 L1266 1157 Z" /></g><g class="o"><path transform="translate(9,18)" class="S sfv" d="M1928 990 L2063 1125 L2063 1139 L1928 1004 Z"/><path class="fv7" d="M1928 990 L2063 1125 L2063 1139 L1928 1004 Z" /></g><g class="o"><path transform="translate(4,8)" class="S sf" d="M1642 1777 L1747 1882 L1765 1882 L1660 1777 Z"/><path class="f6" d="M1642 1777 L1747 1882 L1765 1882 L1660 1777 Z" /></g><g class="o"><path transform="translate(3,6)" class="S sfh" d="M1936 1016 L2085 867 L2095 867 L1946 1016 Z"/><path class="fh4" d="M1936 1016 L2085 867 L2095 867 L1946 1016 Z" /></g><g class="o"><path transform="translate(6,12)" class="S sfv" d="M1218 1359 L1680 897 L1680 909 L1218 1371 Z"/><path class="fv4" d="M1218 1359 L1680 897 L1680 909 L1218 1371 Z" /></g><g class="o"><path transform="translate(5,10)" class="S sfh" d="M992 1664 L1283 1373 L1299 1373 L1008 1664 Z"/><path class="fh2" d="M992 1664 L1283 1373 L1299 1373 L1008 1664 Z" /></g><g class="o"><path transform="translate(5,10)" class="S sfh" d="M1112 1664 L1221 1555 L1237 1555 L1128 1664 Z"/><path class="fh4" d="M1112 1664 L1221 1555 L1237 1555 L1128 1664 Z" /></g><g class="o"><path transform="translate(4,8)" class="S sfh" d="M1221 1387 L1339 1505 L1361 1505 L1243 1387 Z"/><path class="fh4" d="M1221 1387 L1339 1505 L1361 1505 L1243 1387 Z" /></g><g class="o"><path transform="translate(7,14)" class="S sfv" d="M1609 1744 L1814 1949 L1814 1961 L1609 1756 Z"/><path class="fv6" d="M1609 1744 L1814 1949 L1814 1961 L1609 1756 Z" /></g><g class="o"><path transform="translate(4,8)" class="S ss" d="M951 1567 L1161 1777 L1195 1777 L985 1567 Z"/><path class="s7" d="M951 1567 L1161 1777 L1195 1777 L985 1567 Z" /></g><g class="o"><path transform="translate(4,8)" class="S sfh" d="M1902 2039 L2319 2456 L2335 2456 L1918 2039 Z"/><path class="fh4" d="M1902 2039 L2319 2456 L2335 2456 L1918 2039 Z" /></g><g class="o"><path transform="translate(8,16)" class="S sf" d="M1923 1400 L2051 1272 L2051 1296 L1923 1424 Z"/><path class="f4" d="M1923 1400 L2051 1272 L2051 1296 L1923 1424 Z" /></g><g class="o"><path transform="translate(9,18)" class="S sf" d="M1368 1953 L1576 2161 L1600 2161 L1392 1953 Z"/><path class="f3" d="M1368 1953 L1576 2161 L1600 2161 L1392 1953 Z" /></g><g class="o"><path transform="translate(2,4)" class="S ss" d="M1224 1481 L1324 1381 L1352 1381 L1252 1481 Z"/><path class="s2" d="M1224 1481 L1324 1381 L1352 1381 L1252 1481 Z" /></g><g class="o"><path transform="translate(9,18)" class="S sf" d="M1892 1041 L1994 1143 L1994 1169 L1892 1067 Z"/><path class="f4" d="M1892 1041 L1994 1143 L1994 1169 L1892 1067 Z" /></g><g class="o"><path transform="translate(3,6)" class="S ssv" d="M1815 1452 L2013 1650 L2013 1762 L1815 1564 Z"/><path class="sv3" d="M1815 1452 L2013 1650 L2013 1762 L1815 1564 Z" /></g><g class="o"><path transform="translate(2,4)" class="S ss" d="M1494 1885 L1620 1759 L1620 1797 L1494 1923 Z"/><path class="s6" d="M1494 1885 L1620 1759 L1620 1797 L1494 1923 Z" /></g><g class="o"><path transform="translate(8,16)" class="S ssh" d="M1906 1860 L2146 2100 L2172 2100 L1932 1860 Z"/><path class="sh4" d="M1906 1860 L2146 2100 L2172 2100 L1932 1860 Z" /></g><g class="o"><path transform="translate(8,16)" class="S sfh" d="M1950 2018 L2056 2124 L2082 2124 L1976 2018 Z"/><path class="fh1" d="M1950 2018 L2056 2124 L2082 2124 L1976 2018 Z" /></g><g class="o"><path transform="translate(3,6)" class="S sfh" d="M1068 1862 L1662 1268 L1700 1268 L1106 1862 Z"/><path class="fh5" d="M1068 1862 L1662 1268 L1700 1268 L1106 1862 Z" /></g><g class="o"><path transform="translate(3,6)" class="S sf" d="M1408 1265 L1593 1450 L1605 1450 L1420 1265 Z"/><path class="f2" d="M1408 1265 L1593 1450 L1605 1450 L1420 1265 Z" /></g><g class="o"><path transform="translate(2,4)" class="S sfv" d="M1213 1351 L1374 1190 L1374 1208 L1213 1369 Z"/><path class="fv3" d="M1213 1351 L1374 1190 L1374 1208 L1213 1369 Z" /></g><g class="o"><path transform="translate(4,8)" class="S sfh" d="M1714 1976 L1867 2129 L1893 2129 L1740 1976 Z"/><path class="fh4" d="M1714 1976 L1867 2129 L1893 2129 L1740 1976 Z" /></g><g class="o"><path transform="translate(9,18)" class="S sfv" d="M1575 1041 L1698 1164 L1698 1178 L1575 1055 Z"/><path class="fv1" d="M1575 1041 L1698 1164 L1698 1178 L1575 1055 Z" /></g><g class="o"><path transform="translate(4,8)" class="S sf" d="M1212 1552 L1443 1321 L1443 1349 L1212 1580 Z"/><path class="f3" d="M1212 1552 L1443 1321 L1443 1349 L1212 1580 Z" /></g><g class="o"><path transform="translate(6,12)" class="S ssh" d="M1855 1330 L2073 1112 L2103 1112 L1885 1330 Z"/><path class="sh1" d="M1855 1330 L2073 1112 L2103 1112 L1885 1330 Z" /></g><g class="o"><path transform="translate(8,16)" class="S sfv" d="M1060 2002 L1184 2126 L1184 2164 L1060 2040 Z"/><path class="fv2" d="M1060 2002 L1184 2126 L1184 2164 L1060 2040 Z" /></g><g class="o"><path transform="translate(7,14)" class="S sfv" d="M991 1642 L1160 1811 L1160 1849 L991 1680 Z"/><path class="fv2" d="M991 1642 L1160 1811 L1160 1849 L991 1680 Z" /></g><g class="o"><path transform="translate(6,12)" class="S sfv" d="M1029 1937 L1121 2029 L1121 2069 L1029 1977 Z"/><path class="fv2" d="M1029 1937 L1121 2029 L1121 2069 L1029 1977 Z" /></g><g class="o"><path transform="translate(9,18)" class="S ss" d="M1439 1541 L1808 1910 L1808 1938 L1439 1569 Z"/><path class="s1" d="M1439 1541 L1808 1910 L1808 1938 L1439 1569 Z" /></g><g class="o"><path transform="translate(4,8)" class="S sfv" d="M1047 1385 L1332 1100 L1332 1134 L1047 1419 Z"/><path class="fv7" d="M1047 1385 L1332 1100 L1332 1134 L1047 1419 Z" /></g><g class="o"><path transform="translate(2,4)" class="S ssh" d="M945 1156 L1050 1051 L1060 1051 L955 1156 Z"/><path class="sh6" d="M945 1156 L1050 1051 L1060 1051 L955 1156 Z" /></g><g class="o"><path transform="translate(4,8)" class="S ssv" d="M1512 1182 L1803 891 L1803 901 L1512 1192 Z"/><path class="sv1" d="M1512 1182 L1803 891 L1803 901 L1512 1192 Z" /></g><g class="o"><path transform="translate(9,18)" class="S ssv" d="M973 1025 L1133 1185 L1133 1221 L973 1061 Z"/><path class="sv7" d="M973 1025 L1133 1185 L1133 1221 L973 1061 Z" /></g><g class="o"><path transform="translate(8,16)" class="S ss" d="M1673 1345 L1758 1260 L1766 1260 L1681 1345 Z"/><path class="s5" d="M1673 1345 L1758 1260 L1766 1260 L1681 1345 Z" /></g><g class="o"><path transform="translate(4,8)" class="S sfv" d="M1656 1759 L1893 1522 L1893 1530 L1656 1767 Z"/><path class="fv6" d="M1656 1759 L1893 1522 L1893 1530 L1656 1767 Z" /></g><g class="o"><path transform="translate(2,4)" class="S ssh" d="M1182 1394 L1283 1293 L1395 1293 L1294 1394 Z"/><path class="sh6" d="M1182 1394 L1283 1293 L1395 1293 L1294 1394 Z" /></g><g class="o"><path transform="translate(5,10)" class="S sfh" d="M1485 1534 L1639 1688 L1665 1688 L1511 1534 Z"/><path class="fh5" d="M1485 1534 L1639 1688 L1665 1688 L1511 1534 Z" /></g><g class="o"><path transform="translate(5,10)" class="S ss" d="M1179 1762 L1305 1636 L1305 1668 L1179 1794 Z"/><path class="s5" d="M1179 1762 L1305 1636 L1305 1668 L1179 1794 Z" /></g><g class="o"><path transform="translate(8,16)" class="S sf" d="M956 1382 L1030 1456 L1060 1456 L986 1382 Z"/><path class="f2" d="M956 1382 L1030 1456 L1060 1456 L986 1382 Z" /></g><g class="o"><path transform="translate(8,16)" class="S ss" d="M1056 1043 L1251 1238 L1251 1248 L1056 1053 Z"/><path class="s1" d="M1056 1043 L1251 1238 L1251 1248 L1056 1053 Z" /></g><g class="o"><path transform="translate(8,16)" class="S sfh" d="M1402 1068 L1489 1155 L1505 1155 L1418 1068 Z"/><path class="fh1" d="M1402 1068 L1489 1155 L1505 1155 L1418 1068 Z" /></g><g class="o"><path transform="translate(2,4)" class="S sf" d="M1198 1752 L1302 1648 L1302 1680 L1198 1784 Z"/><path class="f2" d="M1198 1752 L1302 1648 L1302 1680 L1198 1784 Z" /></g><g class="o"><path transform="translate(5,10)" class="S sfv" d="M1809 1456 L2008 1257 L2008 1287 L1809 1486 Z"/><path class="fv3" d="M1809 1456 L2008 1257 L2008 1287 L1809 1486 Z" /></g><g class="o"><path transform="translate(9,18)" class="S sfh" d="M1512 1627 L2256 883 L2290 883 L1546 1627 Z"/><path class="fh6" d="M1512 1627 L2256 883 L2290 883 L1546 1627 Z" /></g><g class="o"><path transform="translate(3,6)" class="S sfv" d="M1158 947 L1213 1002 L1213 1030 L1158 975 Z"/><path class="fv2" d="M1158 947 L1213 1002 L1213 1030 L1158 975 Z" /></g><g class="o"><path transform="translate(2,4)" class="S sfh" d="M1432 1145 L1595 982 L1613 982 L1450 1145 Z"/><path class="fh2" d="M1432 1145 L1595 982 L1613 982 L1450 1145 Z" /></g><g class="o"><path transform="translate(4,8)" class="S ss" d="M1087 1577 L1228 1718 L1252 1718 L1111 1577 Z"/><path class="s6" d="M1087 1577 L1228 1718 L1252 1718 L1111 1577 Z" /></g><g class="o"><path transform="translate(9,18)" class="S sfh" d="M1755 1328 L1956 1127 L1988 1127 L1787 1328 Z"/><path class="fh5" d="M1755 1328 L1956 1127 L1988 1127 L1787 1328 Z" /></g><g class="o"><path transform="translate(3,6)" class="S sfh" d="M996 1786 L1227 1555 L1261 1555 L1030 1786 Z"/><path class="fh6" d="M996 1786 L1227 1555 L1261 1555 L1030 1786 Z" /></g><g class="o"><path transform="translate(5,10)" class="S sfv" d="M1964 1495 L2675 2206 L2675 2236 L1964 1525 Z"/><path class="fv4" d="M1964 1495 L2675 2206 L2675 2236 L1964 1525 Z" /></g><g class="o"><path transform="translate(2,4)" class="S ssh" d="M1599 1368 L1720 1247 L1740 1247 L1619 1368 Z"/><path class="sh2" d="M1599 1368 L1720 1247 L1740 1247 L1619 1368 Z" /></g><g class="o"><path transform="translate(5,10)" class="S sfv" d="M1547 1888 L1709 2050 L1709 2064 L1547 1902 Z"/><path class="fv7" d="M1547 1888 L1709 2050 L1709 2064 L1547 1902 Z" /></g><g class="o"><path transform="translate(5,10)" class="S ssv" d="M1710 1746 L1764 1692 L1764 1764 L1710 1818 Z"/><path class="sv2" d="M1710 1746 L1764 1692 L1764 1764 L1710 1818 Z" /></g><g class="o"><path transform="translate(6,12)" class="S sfh" d="M1156 1195 L1224 1263 L1232 1263 L1164 1195 Z"/><path class="fh3" d="M1156 1195 L1224 1263 L1232 1263 L1164 1195 Z" /></g><g class="o"><path transform="translate(2,4)" class="S ss" d="M1287 1617 L1343 1561 L1379 1561 L1323 1617 Z"/><path class="s1" d="M1287 1617 L1343 1561 L1379 1561 L1323 1617 Z" /></g><g class="o"><path transform="translate(5,10)" class="S sfh" d="M1041 1961 L1177 1825 L1207 1825 L1071 1961 Z"/><path class="fh4" d="M1041 1961 L1177 1825 L1207 1825 L1071 1961 Z" /></g><g class="o"><path transform="translate(4,8)" class="S sfv" d="M1149 1896 L1324 2071 L1324 2107 L1149 1932 Z"/><path class="fv2" d="M1149 1896 L1324 2071 L1324 2107 L1149 1932 Z" /></g><g class="o"><path transform="translate(7,14)" class="S sfh" d="M1393 1886 L1549 2042 L1583 2042 L1427 1886 Z"/><path class="fh6" d="M1393 1886 L1549 2042 L1583 2042 L1427 1886 Z" /></g><g class="o"><path transform="translate(6,12)" class="S sfv" d="M1709 1273 L1861 1121 L1861 1147 L1709 1299 Z"/><path class="fv5" d="M1709 1273 L1861 1121 L1861 1147 L1709 1299 Z" /></g><g class="o"><path transform="translate(9,18)" class="S sfv" d="M1290 1726 L1465 1551 L1465 1565 L1290 1740 Z"/><path class="fv6" d="M1290 1726 L1465 1551 L1465 1565 L1290 1740 Z" /></g><g class="o"><path transform="translate(4,8)" class="S sf" d="M1131 1910 L1629 2408 L1741 2408 L1243 1910 Z"/><path class="f6" d="M1131 1910 L1629 2408 L1741 2408 L1243 1910 Z" /></g><g class="o"><path transform="translate(8,16)" class="S sfv" d="M1379 1067 L1546 1234 L1546 1244 L1379 1077 Z"/><path class="fv2" d="M1379 1067 L1546 1234 L1546 1244 L1379 1077 Z" /></g><g class="o"><path transform="translate(8,16)" class="S ss" d="M1982 1174 L2163 993 L2175 993 L1994 1174 Z"/><path class="s6" d="M1982 1174 L2163 993 L2175 993 L1994 1174 Z" /></g><g class="o"><path transform="translate(9,18)" class="S sfv" d="M1086 1311 L1213 1184 L1213 1214 L1086 1341 Z"/><path class="fv4" d="M1086 1311 L1213 1184 L1213 1214 L1086 1341 Z" /></g><g class="o"><path transform="translate(4,8)" class="S sf" d="M1213 1907 L1858 2552 L1896 2552 L1251 1907 Z"/><path class="f4" d="M1213 1907 L1858 2552 L1896 2552 L1251 1907 Z" /></g><g class="o"><path transform="translate(4,8)" class="S sf" d="M1663 2029 L1759 2125 L1781 2125 L1685 2029 Z"/><path class="f1" d="M1663 2029 L1759 2125 L1781 2125 L1685 2029 Z" /></g><g class="o"><path transform="translate(5,10)" class="S ssv" d="M1333 1198 L1459 1324 L1459 1336 L1333 1210 Z"/><path class="sv7" d="M1333 1198 L1459 1324 L1459 1336 L1333 1210 Z" /></g><g class="o"><path transform="translate(8,16)" class="S sfh" d="M1009 1876 L1189 1696 L1341 1696 L1161 1876 Z"/><path class="fh1" d="M1009 1876 L1189 1696 L1341 1696 L1161 1876 Z" /></g><g class="o"><path transform="translate(4,8)" class="S sfh" d="M968 1007 L1154 821 L1282 821 L1096 1007 Z"/><path class="fh5" d="M968 1007 L1154 821 L1282 821 L1096 1007 Z" /></g><g class="o"><path transform="translate(5,10)" class="S ss" d="M1485 1807 L1600 1922 L1600 1944 L1485 1829 Z"/><path class="s3" d="M1485 1807 L1600 1922 L1600 1944 L1485 1829 Z" /></g><g class="o"><path transform="translate(2,4)" class="S ssv" d="M1102 1786 L1828 1060 L1828 1074 L1102 1800 Z"/><path class="sv7" d="M1102 1786 L1828 1060 L1828 1074 L1102 1800 Z" /></g><g class="o"><path transform="translate(8,16)" class="S sfh" d="M1831 1286 L1927 1190 L1939 1190 L1843 1286 Z"/><path class="fh4" d="M1831 1286 L1927 1190 L1939 1190 L1843 1286 Z" /></g><g class="o"><path transform="translate(3,6)" class="S ss" d="M1038 1520 L1118 1440 L1118 1456 L1038 1536 Z"/><path class="s1" d="M1038 1520 L1118 1440 L1118 1456 L1038 1536 Z" /></g><g class="o"><path transform="translate(8,16)" class="S sf" d="M1434 2038 L1532 1940 L1558 1940 L1460 2038 Z"/><path class="f7" d="M1434 2038 L1532 1940 L1558 1940 L1460 2038 Z" /></g><g class="o"><path transform="translate(9,18)" class="S sf" d="M1564 1714 L1803 1953 L1833 1953 L1594 1714 Z"/><path class="f2" d="M1564 1714 L1803 1953 L1833 1953 L1594 1714 Z" /></g><g class="o"><path transform="translate(4,8)" class="S sfh" d="M1242 1173 L1320 1251 L1358 1251 L1280 1173 Z"/><path class="fh4" d="M1242 1173 L1320 1251 L1358 1251 L1280 1173 Z" /></g><g class="o"><path transform="translate(7,14)" class="S sf" d="M2019 1461 L2239 1681 L2239 1707 L2019 1487 Z"/><path class="f2" d="M2019 1461 L2239 1681 L2239 1707 L2019 1487 Z" /></g><g class="o"><path transform="translate(5,10)" class="S sfv" d="M1026 1856 L1246 1636 L1246 1670 L1026 1890 Z"/><path class="fv1" d="M1026 1856 L1246 1636 L1246 1670 L1026 1890 Z" /></g><g class="o"><path transform="translate(9,18)" class="S sfv" d="M1724 956 L1827 1059 L1827 1115 L1724 1012 Z"/><path class="fv7" d="M1724 956 L1827 1059 L1827 1115 L1724 1012 Z" /></g><g class="o"><path transform="translate(6,12)" class="S sfv" d="M1446 1513 L1528 1595 L1528 1607 L1446 1525 Z"/><path class="fv3" d="M1446 1513 L1528 1595 L1528 1607 L1446 1525 Z" /></g><g class="o"><path transform="translate(6,12)" class="S ssv" d="M1839 1877 L1991 2029 L1991 2173 L1839 2021 Z"/><path class="sv4" d="M1839 1877 L1991 2029 L1991 2173 L1839 2021 Z" /></g><g class="o"><path transform="translate(4,8)" class="S sfh" d="M1874 1939 L2234 2299 L2250 2299 L1890 1939 Z"/><path class="fh1" d="M1874 1939 L2234 2299 L2250 2299 L1890 1939 Z" /></g><g class="o"><path transform="translate(7,14)" class="S sfv" d="M1535 1145 L2003 1613 L2003 1765 L1535 1297 Z"/><path class="fv1" d="M1535 1145 L2003 1613 L2003 1765 L1535 1297 Z" /></g><g class="o"><path transform="translate(7,14)" class="S sfh" d="M1485 2027 L1621 2163 L1635 2163 L1499 2027 Z"/><path class="fh2" d="M1485 2027 L1621 2163 L1635 2163 L1499 2027 Z" /></g><g class="o"><path transform="translate(2,4)" class="S ssv" d="M994 1182 L1066 1254 L1066 1276 L994 1204 Z"/><path class="sv4" d="M994 1182 L1066 1254 L1066 1276 L994 1204 Z" /></g><g class="o"><path transform="translate(5,10)" class="S ssh" d="M1187 1623 L1402 1838 L1422 1838 L1207 1623 Z"/><path class="sh5" d="M1187 1623 L1402 1838 L1422 1838 L1207 1623 Z" /></g><g class="o"><path transform="translate(2,4)" class="S sf" d="M1893 1634 L1995 1532 L1995 1570 L1893 1672 Z"/><path class="f7" d="M1893 1634 L1995 1532 L1995 1570 L1893 1672 Z" /></g><g class="o"><path transform="translate(4,8)" class="S sf" d="M1883 1091 L2033 941 L2033 977 L1883 1127 Z"/><path class="f3" d="M1883 1091 L2033 941 L2033 977 L1883 1127 Z" /></g><g class="o"><path transform="translate(5,10)" class="S sf" d="M1113 985 L1347 751 L1359 751 L1125 985 Z"/><path class="f4" d="M1113 985 L1347 751 L1359 751 L1125 985 Z" /></g></g><use href="#slashes" transform-origin="1500 1500" transform="rotate(180) scale(2)"/></g><circle cx="1500" cy="1500" r="450" stroke-width="40" class="o s4" /><use href="#slashes" transform-origin="1500 1500" transform="scale(.7)"/><use href="#slashes" transform-origin="1500 1500" transform="rotate(180) scale(1.3)"/></svg>