<svg xmlns="http://www.w3.org/2000/svg" viewBox="750 750 1500 1500"><style>/*<![CDATA[*/svg{background:rgb(41,50,65);max-width:100vw;max-height:100vh}path{stroke-width:4}.o{opacity:.75}.S{opacity:.4}.sf{stroke:none;fill:black}.sfh{stroke:none;fill:url(#hs)}.sfv{stroke:none;fill:url(#vs)}.ss{stroke:black;fill:none}.ssh{stroke:url(#hs);fill:none}.ssv{stroke:url(#vs);fill:none}.s1{fill:none;stroke:rgb(34,34,34)}.f1{stroke:none;fill:rgb(34,34,34)}.sh1{fill:none;stroke:url(#h1)}.fh1{stroke:none;fill:url(#h1)}.sv1{fill:none;stroke:url(#v1)}.fv1{stroke:none;fill:url(#v1)}.s2{fill:none;stroke:rgb(61,90,128)}.f2{stroke:none;fill:rgb(61,90,128)}.sh2{fill:none;stroke:url(#h2)}.fh2{stroke:none;fill:url(#h2)}.sv2{fill:none;stroke:url(#v2)}.fv2{stroke:none;fill:url(#v2)}.s3{fill:none;stroke:rgb(224,251,252)}.f3{stroke:none;fill:rgb(224,251,252)}.sh3{fill:none;stroke:url(#h3)}.fh3{stroke:none;fill:url(#h3)}.sv3{fill:none;stroke:url(#v3)}.fv3{stroke:none;fill:url(#v3)}.s4{fill:none;stroke:rgb(152,193,217)}.f4{stroke:none;fill:rgb(152,193,217)}.sh4{fill:none;stroke:url(#h4)}.fh4{stroke:none;fill:url(#h4)}.sv4{fill:none;stroke:url(#v4)}.fv4{stroke:none;fill:url(#v4)}.s5{fill:none;stroke:rgb(238,108,77)}.f5{stroke:none;fill:rgb(238,108,77)}.sh5{fill:none;stroke:url(#h5)}.fh5{stroke:none;fill:url(#h5)}.sv5{fill:none;stroke:url(#v5)}.fv5{stroke:none;fill:url(#v5)}.s6{fill:none;stroke:rgb(255,255,255)}.f6{stroke:none;fill:rgb(255,255,255)}.sh6{fill:none;stroke:url(#h6)}.fh6{stroke:none;fill:url(#h6)}.sv6{fill:none;stroke:url(#v6)}.fv6{stroke:none;fill:url(#v6)}.s7{fill:none;stroke:rgb(255,0,0)}.f7{stroke:none;fill:rgb(255,0,0)}.sh7{fill:none;stroke:url(#h7)}.fh7{stroke:none;fill:url(#h7)}.sv7{fill:none;stroke:url(#v7)}.fv7{stroke:none;fill:url(#v7)}/*]]>*/</style><defs><linearGradient gradientTransform="rotate(90)" id="hs"><stop offset="20%" stop-color="#000" /><stop offset="95%" stop-color="rgba(0, 0, 0, 0)" /></linearGradient><linearGradient id="vs"><stop offset="20%" stop-color="#000" /><stop offset="95%" stop-color="rgba(0, 0, 0, 0)" /></linearGradient><linearGradient gradientTransform="rotate(90)" id="h1"><stop offset="20%" stop-color="rgba(34,34,34,1)" /><stop offset="95%" stop-color="rgba(34,34,34,0)" /></linearGradient><linearGradient id="v1"><stop offset="20%" stop-color="rgba(34,34,34,1)" /><stop offset="95%" stop-color="rgba(34,34,34,0)" /></linearGradient><linearGradient gradientTransform="rotate(90)" id="h2"><stop offset="20%" stop-color="rgba(61,90,128,1)" /><stop offset="95%" stop-color="rgba(61,90,128,0)" /></linearGradient><linearGradient id="v2"><stop offset="20%" stop-color="rgba(61,90,128,1)" /><stop offset="95%" stop-color="rgba(61,90,128,0)" /></linearGradient><linearGradient gradientTransform="rotate(90)" id="h3"><stop offset="20%" stop-color="rgba(224,251,252,1)" /><stop offset="95%" stop-color="rgba(224,251,252,0)" /></linearGradient><linearGradient id="v3"><stop offset="20%" stop-color="rgba(224,251,252,1)" /><stop offset="95%" stop-color="rgba(224,251,252,0)" /></linearGradient><linearGradient gradientTransform="rotate(90)" id="h4"><stop offset="20%" stop-color="rgba(152,193,217,1)" /><stop offset="95%" stop-color="rgba(152,193,217,0)" /></linearGradient><linearGradient id="v4"><stop offset="20%" stop-color="rgba(152,193,217,1)" /><stop offset="95%" stop-color="rgba(152,193,217,0)" /></linearGradient><linearGradient gradientTransform="rotate(90)" id="h5"><stop offset="20%" stop-color="rgba(238,108,77,1)" /><stop offset="95%" stop-color="rgba(238,108,77,0)" /></linearGradient><linearGradient id="v5"><stop offset="20%" stop-color="rgba(238,108,77,1)" /><stop offset="95%" stop-color="rgba(238,108,77,0)" /></linearGradient><linearGradient gradientTransform="rotate(90)" id="h6"><stop offset="20%" stop-color="rgba(255,255,255,1)" /><stop offset="95%" stop-color="rgba(255,255,255,0)" /></linearGradient><linearGradient id="v6"><stop offset="20%" stop-color="rgba(255,255,255,1)" /><stop offset="95%" stop-color="rgba(255,255,255,0)" /></linearGradient><linearGradient gradientTransform="rotate(90)" id="h7"><stop offset="20%" stop-color="rgba(255,0,0,1)" /><stop offset="95%" stop-color="rgba(255,0,0,0)" /></linearGradient><linearGradient id="v7"><stop offset="20%" stop-color="rgba(255,0,0,1)" /><stop offset="95%" stop-color="rgba(255,0,0,0)" /></linearGradient></defs><g transform-origin="1500 1500" transform="scale(2)" opacity=".2"><g id="slashes"><g class="o"><path transform="translate(4,8)" class="S ss" d="M1703 1953 L1645 1895 L1653 1895 L1711 1953 Z"/><path class="s5" d="M1703 1953 L1645 1895 L1653 1895 L1711 1953 Z" /></g><g class="o"><path transform="translate(6,12)" class="S sf" d="M1003 1152 L885 1034 L913 1034 L1031 1152 Z"/><path class="f3" d="M1003 1152 L885 1034 L913 1034 L1031 1152 Z" /></g><g class="o"><path transform="translate(4,8)" class="S sf" d="M1880 1515 L1730 1665 L1730 1681 L1880 1531 Z"/><path class="f6" d="M1880 1515 L1730 1665 L1730 1681 L1880 1531 Z" /></g><g class="o"><path transform="translate(8,16)" class="S ss" d="M1832 1047 L1710 1169 L1710 1195 L1832 1073 Z"/><path class="s3" d="M1832 1047 L1710 1169 L1710 1195 L1832 1073 Z" /></g><g class="o"><path transform="translate(3,6)" class="S sf" d="M1373 971 L1292 1052 L1292 1070 L1373 989 Z"/><path class="f4" d="M1373 971 L1292 1052 L1292 1070 L1373 989 Z" /></g><g class="o"><path transform="translate(4,8)" class="S sf" d="M1666 1009 L1530 1145 L1550 1145 L1686 1009 Z"/><path class="f5" d="M1666 1009 L1530 1145 L1550 1145 L1686 1009 Z" /></g><g class="o"><path transform="translate(3,6)" class="S sf" d="M1223 1593 L1034 1782 L1060 1782 L1249 1593 Z"/><path class="f3" d="M1223 1593 L1034 1782 L1060 1782 L1249 1593 Z" /></g><g class="o"><path transform="translate(2,4)" class="S sf" d="M1288 1975 L1172 2091 L1196 2091 L1312 1975 Z"/><path class="f7" d="M1288 1975 L1172 2091 L1196 2091 L1312 1975 Z" /></g><g class="o"><path transform="translate(6,12)" class="S sf" d="M1764 1122 L1646 1240 L1646 1258 L1764 1140 Z"/><path class="f1" d="M1764 1122 L1646 1240 L1646 1258 L1764 1140 Z" /></g><g class="o"><path transform="translate(5,10)" class="S sf" d="M1064 1035 L992 1107 L1006 1107 L1078 1035 Z"/><path class="f5" d="M1064 1035 L992 1107 L1006 1107 L1078 1035 Z" /></g><g class="o"><path transform="translate(5,10)" class="S sf" d="M1681 1453 L1574 1560 L1638 1560 L1745 1453 Z"/><path class="f4" d="M1681 1453 L1574 1560 L1638 1560 L1745 1453 Z" /></g><g class="o"><path transform="translate(9,18)" class="S sf" d="M1348 1408 L1190 1250 L1218 1250 L1376 1408 Z"/><path class="f7" d="M1348 1408 L1190 1250 L1218 1250 L1376 1408 Z" /></g><g class="o"><path transform="translate(7,14)" class="S sf" d="M1445 986 L1221 1210 L1221 1236 L1445 1012 Z"/><path class="f5" d="M1445 986 L1221 1210 L1221 1236 L1445 1012 Z" /></g><g class="o"><path transform="translate(2,4)" class="S sf" d="M1756 1652 L1662 1558 L1690 1558 L1784 1652 Z"/><path class="f6" d="M1756 1652 L1662 1558 L1690 1558 L1784 1652 Z" /></g><g class="o"><path transform="translate(8,16)" class="S sf" d="M1365 1674 L1158 1467 L1158 1493 L1365 1700 Z"/><path class="f3" d="M1365 1674 L1158 1467 L1158 1493 L1365 1700 Z" /></g><g class="o"><path transform="translate(6,12)" class="S sf" d="M1239 1566 L1074 1401 L1074 1457 L1239 1622 Z"/><path class="f7" d="M1239 1566 L1074 1401 L1074 1457 L1239 1622 Z" /></g><g class="o"><path transform="translate(8,16)" class="S sf" d="M2010 1893 L1860 2043 L1890 2043 L2040 1893 Z"/><path class="f3" d="M2010 1893 L1860 2043 L1890 2043 L2040 1893 Z" /></g><g class="o"><path transform="translate(2,4)" class="S sf" d="M1446 1536 L864 2118 L864 2148 L1446 1566 Z"/><path class="f3" d="M1446 1536 L864 2118 L864 2148 L1446 1566 Z" /></g><g class="o"><path transform="translate(5,10)" class="S sf" d="M1382 1317 L1199 1500 L1199 1514 L1382 1331 Z"/><path class="f4" d="M1382 1317 L1199 1500 L1199 1514 L1382 1331 Z" /></g><g class="o"><path transform="translate(3,6)" class="S sf" d="M1973 1060 L1832 919 L1856 919 L1997 1060 Z"/><path class="f3" d="M1973 1060 L1832 919 L1856 919 L1997 1060 Z" /></g><g class="o"><path transform="translate(8,16)" class="S sf" d="M2012 2006 L1902 2116 L1922 2116 L2032 2006 Z"/><path class="f5" d="M2012 2006 L1902 2116 L1922 2116 L2032 2006 Z" /></g><g class="o"><path transform="translate(6,12)" class="S sf" d="M1475 1619 L1367 1511 L1367 1549 L1475 1657 Z"/><path class="f4" d="M1475 1619 L1367 1511 L1367 1549 L1475 1657 Z" /></g><g class="o"><path transform="translate(3,6)" class="S ss" d="M1085 1918 L915 2088 L931 2088 L1101 1918 Z"/><path class="s7" d="M1085 1918 L915 2088 L931 2088 L1101 1918 Z" /></g><g class="o"><path transform="translate(2,4)" class="S ss" d="M1514 1440 L1463 1491 L1463 1529 L1514 1478 Z"/><path class="s5" d="M1514 1440 L1463 1491 L1463 1529 L1514 1478 Z" /></g><g class="o"><path transform="translate(5,10)" class="S ss" d="M1872 1078 L1818 1132 L1828 1132 L1882 1078 Z"/><path class="s2" d="M1872 1078 L1818 1132 L1828 1132 L1882 1078 Z" /></g><g class="o"><path transform="translate(3,6)" class="S sf" d="M1659 1900 L1410 1651 L1410 1667 L1659 1916 Z"/><path class="f6" d="M1659 1900 L1410 1651 L1410 1667 L1659 1916 Z" /></g><g class="o"><path transform="translate(3,6)" class="S sf" d="M1154 979 L701 526 L701 560 L1154 1013 Z"/><path class="f1" d="M1154 979 L701 526 L701 560 L1154 1013 Z" /></g><g class="o"><path transform="translate(7,14)" class="S sf" d="M1670 1414 L1555 1529 L1555 1539 L1670 1424 Z"/><path class="f6" d="M1670 1414 L1555 1529 L1555 1539 L1670 1424 Z" /></g><g class="o"><path transform="translate(7,14)" class="S ss" d="M1478 1350 L974 846 L982 846 L1486 1350 Z"/><path class="s7" d="M1478 1350 L974 846 L982 846 L1486 1350 Z" /></g><g class="o"><path transform="translate(2,4)" class="S sf" d="M1149 1084 L999 1234 L1035 1234 L1185 1084 Z"/><path class="f3" d="M1149 1084 L999 1234 L1035 1234 L1185 1084 Z" /></g><g class="o"><path transform="translate(7,14)" class="S sf" d="M1797 1880 L1681 1764 L1681 1782 L1797 1898 Z"/><path class="f2" d="M1797 1880 L1681 1764 L1681 1782 L1797 1898 Z" /></g><g class="o"><path transform="translate(7,14)" class="S sf" d="M1655 1938 L1581 2012 L1591 2012 L1665 1938 Z"/><path class="f7" d="M1655 1938 L1581 2012 L1591 2012 L1665 1938 Z" /></g><g class="o"><path transform="translate(5,10)" class="S sf" d="M1054 1876 L906 1728 L918 1728 L1066 1876 Z"/><path class="f3" d="M1054 1876 L906 1728 L918 1728 L1066 1876 Z" /></g><g class="o"><path transform="translate(3,6)" class="S sf" d="M1380 1298 L1145 1063 L1145 1095 L1380 1330 Z"/><path class="f3" d="M1380 1298 L1145 1063 L1145 1095 L1380 1330 Z" /></g><g class="o"><path transform="translate(7,14)" class="S ss" d="M1659 1434 L1484 1259 L1502 1259 L1677 1434 Z"/><path class="s1" d="M1659 1434 L1484 1259 L1502 1259 L1677 1434 Z" /></g><g class="o"><path transform="translate(4,8)" class="S sf" d="M1200 1162 L1135 1097 L1173 1097 L1238 1162 Z"/><path class="f5" d="M1200 1162 L1135 1097 L1173 1097 L1238 1162 Z" /></g><g class="o"><path transform="translate(3,6)" class="S sf" d="M1084 1664 L912 1492 L1024 1492 L1196 1664 Z"/><path class="f4" d="M1084 1664 L912 1492 L1024 1492 L1196 1664 Z" /></g><g class="o"><path transform="translate(2,4)" class="S ss" d="M1844 1290 L1688 1134 L1722 1134 L1878 1290 Z"/><path class="s3" d="M1844 1290 L1688 1134 L1722 1134 L1878 1290 Z" /></g><g class="o"><path transform="translate(5,10)" class="S sf" d="M1871 1707 L1700 1536 L1700 1568 L1871 1739 Z"/><path class="f2" d="M1871 1707 L1700 1536 L1700 1568 L1871 1739 Z" /></g><g class="o"><path transform="translate(3,6)" class="S sf" d="M1408 2033 L1243 2198 L1259 2198 L1424 2033 Z"/><path class="f4" d="M1408 2033 L1243 2198 L1259 2198 L1424 2033 Z" /></g><g class="o"><path transform="translate(9,18)" class="S sf" d="M1832 1289 L1609 1512 L1609 1526 L1832 1303 Z"/><path class="f7" d="M1832 1289 L1609 1512 L1609 1526 L1832 1303 Z" /></g><g class="o"><path transform="translate(2,4)" class="S sf" d="M1683 1798 L1449 1564 L1449 1578 L1683 1812 Z"/><path class="f7" d="M1683 1798 L1449 1564 L1449 1578 L1683 1812 Z" /></g><g class="o"><path transform="translate(6,12)" class="S ss" d="M1102 1203 L953 1054 L1097 1054 L1246 1203 Z"/><path class="s2" d="M1102 1203 L953 1054 L1097 1054 L1246 1203 Z" /></g><g class="o"><path transform="translate(9,18)" class="S sf" d="M1974 1738 L1257 1021 L1289 1021 L2006 1738 Z"/><path class="f2" d="M1974 1738 L1257 1021 L1289 1021 L2006 1738 Z" /></g><g class="o"><path transform="translate(7,14)" class="S sf" d="M2030 1642 L1857 1469 L1857 1479 L2030 1652 Z"/><path class="f4" d="M2030 1642 L1857 1469 L1857 1479 L2030 1652 Z" /></g><g class="o"><path transform="translate(8,16)" class="S sf" d="M1718 1682 L1463 1937 L1463 1951 L1718 1696 Z"/><path class="f6" d="M1718 1682 L1463 1937 L1463 1951 L1718 1696 Z" /></g><g class="o"><path transform="translate(2,4)" class="S sf" d="M1614 1982 L1422 2174 L1446 2174 L1638 1982 Z"/><path class="f1" d="M1614 1982 L1422 2174 L1446 2174 L1638 1982 Z" /></g><g class="o"><path transform="translate(2,4)" class="S ss" d="M1647 1904 L1335 1592 L1335 1600 L1647 1912 Z"/><path class="s4" d="M1647 1904 L1335 1592 L1335 1600 L1647 1912 Z" /></g><g class="o"><path transform="translate(7,14)" class="S sf" d="M939 996 L707 764 L739 764 L971 996 Z"/><path class="f6" d="M939 996 L707 764 L739 764 L971 996 Z" /></g><g class="o"><path transform="translate(6,12)" class="S sf" d="M1504 1723 L1440 1787 L1440 1795 L1504 1731 Z"/><path class="f7" d="M1504 1723 L1440 1787 L1440 1795 L1504 1731 Z" /></g><g class="o"><path transform="translate(7,14)" class="S sf" d="M1743 1119 L1578 1284 L1578 1320 L1743 1155 Z"/><path class="f7" d="M1743 1119 L1578 1284 L1578 1320 L1743 1155 Z" /></g><g class="o"><path transform="translate(2,4)" class="S ss" d="M1083 1267 L1026 1324 L1026 1332 L1083 1275 Z"/><path class="s4" d="M1083 1267 L1026 1324 L1026 1332 L1083 1275 Z" /></g><g class="o"><path transform="translate(5,10)" class="S sf" d="M1068 1537 L950 1655 L974 1655 L1092 1537 Z"/><path class="f5" d="M1068 1537 L950 1655 L974 1655 L1092 1537 Z" /></g><g class="o"><path transform="translate(4,8)" class="S sf" d="M1633 1878 L1405 2106 L1405 2140 L1633 1912 Z"/><path class="f4" d="M1633 1878 L1405 2106 L1405 2140 L1633 1912 Z" /></g><g class="o"><path transform="translate(6,12)" class="S ss" d="M978 957 L761 740 L761 756 L978 973 Z"/><path class="s5" d="M978 957 L761 740 L761 756 L978 973 Z" /></g><g class="o"><path transform="translate(7,14)" class="S sf" d="M1476 1707 L1215 1446 L1215 1526 L1476 1787 Z"/><path class="f2" d="M1476 1707 L1215 1446 L1215 1526 L1476 1787 Z" /></g><g class="o"><path transform="translate(2,4)" class="S sf" d="M1173 1607 L1080 1700 L1080 1714 L1173 1621 Z"/><path class="f4" d="M1173 1607 L1080 1700 L1080 1714 L1173 1621 Z" /></g><g class="o"><path transform="translate(8,16)" class="S sf" d="M989 1982 L857 1850 L857 1870 L989 2002 Z"/><path class="f7" d="M989 1982 L857 1850 L857 1870 L989 2002 Z" /></g><g class="o"><path transform="translate(6,12)" class="S ss" d="M973 972 L837 1108 L837 1116 L973 980 Z"/><path class="s4" d="M973 972 L837 1108 L837 1116 L973 980 Z" /></g><g class="o"><path transform="translate(8,16)" class="S sf" d="M1656 1092 L1505 941 L1539 941 L1690 1092 Z"/><path class="f5" d="M1656 1092 L1505 941 L1539 941 L1690 1092 Z" /></g><g class="o"><path transform="translate(8,16)" class="S sf" d="M1506 1561 L1454 1509 L1478 1509 L1530 1561 Z"/><path class="f6" d="M1506 1561 L1454 1509 L1478 1509 L1530 1561 Z" /></g><g class="o"><path transform="translate(2,4)" class="S ss" d="M1219 1728 L1141 1806 L1151 1806 L1229 1728 Z"/><path class="s5" d="M1219 1728 L1141 1806 L1151 1806 L1229 1728 Z" /></g><g class="o"><path transform="translate(7,14)" class="S sf" d="M1073 1202 L683 812 L697 812 L1087 1202 Z"/><path class="f3" d="M1073 1202 L683 812 L697 812 L1087 1202 Z" /></g><g class="o"><path transform="translate(4,8)" class="S sf" d="M1243 1394 L1093 1244 L1115 1244 L1265 1394 Z"/><path class="f5" d="M1243 1394 L1093 1244 L1115 1244 L1265 1394 Z" /></g><g class="o"><path transform="translate(8,16)" class="S sf" d="M1184 1559 L443 2300 L443 2310 L1184 1569 Z"/><path class="f1" d="M1184 1559 L443 2300 L443 2310 L1184 1569 Z" /></g><g class="o"><path transform="translate(2,4)" class="S sf" d="M1610 1878 L1437 1705 L1461 1705 L1634 1878 Z"/><path class="f5" d="M1610 1878 L1437 1705 L1461 1705 L1634 1878 Z" /></g><g class="o"><path transform="translate(7,14)" class="S ss" d="M1323 1611 L1122 1410 L1122 1434 L1323 1635 Z"/><path class="s2" d="M1323 1611 L1122 1410 L1122 1434 L1323 1635 Z" /></g><g class="o"><path transform="translate(8,16)" class="S ss" d="M1494 1565 L1282 1777 L1294 1777 L1506 1565 Z"/><path class="s1" d="M1494 1565 L1282 1777 L1294 1777 L1506 1565 Z" /></g><g class="o"><path transform="translate(6,12)" class="S sf" d="M1572 1002 L1380 810 L1418 810 L1610 1002 Z"/><path class="f1" d="M1572 1002 L1380 810 L1418 810 L1610 1002 Z" /></g><g class="o"><path transform="translate(7,14)" class="S sf" d="M1856 1650 L1786 1720 L1786 1732 L1856 1662 Z"/><path class="f4" d="M1856 1650 L1786 1720 L1786 1732 L1856 1662 Z" /></g><g class="o"><path transform="translate(9,18)" class="S sf" d="M1761 2035 L1526 1800 L1526 1822 L1761 2057 Z"/><path class="f7" d="M1761 2035 L1526 1800 L1526 1822 L1761 2057 Z" /></g><g class="o"><path transform="translate(6,12)" class="S sf" d="M1992 1987 L1839 1834 L1839 1858 L1992 2011 Z"/><path class="f7" d="M1992 1987 L1839 1834 L1839 1858 L1992 2011 Z" /></g><g class="o"><path transform="translate(4,8)" class="S sf" d="M1751 1649 L1596 1494 L1596 1532 L1751 1687 Z"/><path class="f6" d="M1751 1649 L1596 1494 L1596 1532 L1751 1687 Z" /></g><g class="o"><path transform="translate(5,10)" class="S sf" d="M1435 1025 L1270 860 L1270 870 L1435 1035 Z"/><path class="f5" d="M1435 1025 L1270 860 L1270 870 L1435 1035 Z" /></g><g class="o"><path transform="translate(6,12)" class="S sf" d="M1521 1721 L1376 1576 L1376 1588 L1521 1733 Z"/><path class="f1" d="M1521 1721 L1376 1576 L1376 1588 L1521 1733 Z" /></g><g class="o"><path transform="translate(5,10)" class="S sf" d="M1417 1688 L1250 1855 L1250 1891 L1417 1724 Z"/><path class="f7" d="M1417 1688 L1250 1855 L1250 1891 L1417 1724 Z" /></g><g class="o"><path transform="translate(2,4)" class="S ss" d="M1126 1195 L954 1367 L954 1391 L1126 1219 Z"/><path class="s4" d="M1126 1195 L954 1367 L954 1391 L1126 1219 Z" /></g><g class="o"><path transform="translate(4,8)" class="S sf" d="M1363 1761 L1281 1843 L1311 1843 L1393 1761 Z"/><path class="f4" d="M1363 1761 L1281 1843 L1311 1843 L1393 1761 Z" /></g><g class="o"><path transform="translate(2,4)" class="S ss" d="M1404 1219 L1258 1073 L1370 1073 L1516 1219 Z"/><path class="s7" d="M1404 1219 L1258 1073 L1370 1073 L1516 1219 Z" /></g><g class="o"><path transform="translate(5,10)" class="S sf" d="M1032 1951 L904 1823 L940 1823 L1068 1951 Z"/><path class="f3" d="M1032 1951 L904 1823 L940 1823 L1068 1951 Z" /></g><g class="o"><path transform="translate(2,4)" class="S ss" d="M1042 1204 L959 1121 L959 1157 L1042 1240 Z"/><path class="s4" d="M1042 1204 L959 1121 L959 1157 L1042 1240 Z" /></g><g class="o"><path transform="translate(8,16)" class="S sf" d="M1576 1117 L1336 877 L1336 901 L1576 1141 Z"/><path class="f6" d="M1576 1117 L1336 877 L1336 901 L1576 1141 Z" /></g><g class="o"><path transform="translate(8,16)" class="S sf" d="M1414 1465 L1165 1714 L1183 1714 L1432 1465 Z"/><path class="f3" d="M1414 1465 L1165 1714 L1183 1714 L1432 1465 Z" /></g><g class="o"><path transform="translate(3,6)" class="S sf" d="M1304 1474 L1110 1280 L1110 1302 L1304 1496 Z"/><path class="f4" d="M1304 1474 L1110 1280 L1110 1302 L1304 1496 Z" /></g><g class="o"><path transform="translate(8,16)" class="S ss" d="M1754 1299 L1490 1563 L1490 1585 L1754 1321 Z"/><path class="s3" d="M1754 1299 L1490 1563 L1490 1585 L1754 1321 Z" /></g><g class="o"><path transform="translate(6,12)" class="S sf" d="M1119 1276 L956 1439 L968 1439 L1131 1276 Z"/><path class="f6" d="M1119 1276 L956 1439 L968 1439 L1131 1276 Z" /></g><g class="o"><path transform="translate(7,14)" class="S sf" d="M1546 1322 L1048 824 L1144 824 L1642 1322 Z"/><path class="f1" d="M1546 1322 L1048 824 L1144 824 L1642 1322 Z" /></g><g class="o"><path transform="translate(5,10)" class="S sf" d="M1035 1600 L810 1825 L848 1825 L1073 1600 Z"/><path class="f1" d="M1035 1600 L810 1825 L848 1825 L1073 1600 Z" /></g><g class="o"><path transform="translate(8,16)" class="S ss" d="M1434 1249 L1352 1331 L1352 1427 L1434 1345 Z"/><path class="s4" d="M1434 1249 L1352 1331 L1352 1427 L1434 1345 Z" /></g><g class="o"><path transform="translate(9,18)" class="S sf" d="M1760 1693 L1624 1557 L1634 1557 L1770 1693 Z"/><path class="f1" d="M1760 1693 L1624 1557 L1634 1557 L1770 1693 Z" /></g><g class="o"><path transform="translate(6,12)" class="S ss" d="M1401 1312 L1305 1408 L1305 1444 L1401 1348 Z"/><path class="s7" d="M1401 1312 L1305 1408 L1305 1444 L1401 1348 Z" /></g><g class="o"><path transform="translate(5,10)" class="S ss" d="M1260 1026 L1056 822 L1066 822 L1270 1026 Z"/><path class="s5" d="M1260 1026 L1056 822 L1066 822 L1270 1026 Z" /></g><g class="o"><path transform="translate(8,16)" class="S sf" d="M1490 2002 L836 1348 L848 1348 L1502 2002 Z"/><path class="f4" d="M1490 2002 L836 1348 L848 1348 L1502 2002 Z" /></g><g class="o"><path transform="translate(8,16)" class="S sf" d="M1277 1653 L1202 1578 L1224 1578 L1299 1653 Z"/><path class="f7" d="M1277 1653 L1202 1578 L1224 1578 L1299 1653 Z" /></g><g class="o"><path transform="translate(7,14)" class="S ss" d="M1632 1757 L1440 1565 L1454 1565 L1646 1757 Z"/><path class="s1" d="M1632 1757 L1440 1565 L1454 1565 L1646 1757 Z" /></g><g class="o"><path transform="translate(8,16)" class="S sf" d="M1936 1931 L1776 2091 L1802 2091 L1962 1931 Z"/><path class="f5" d="M1936 1931 L1776 2091 L1802 2091 L1962 1931 Z" /></g><g class="o"><path transform="translate(2,4)" class="S sf" d="M1606 1910 L1494 2022 L1494 2044 L1606 1932 Z"/><path class="f4" d="M1606 1910 L1494 2022 L1494 2044 L1606 1932 Z" /></g><g class="o"><path transform="translate(8,16)" class="S ss" d="M1220 2011 L992 1783 L1002 1783 L1230 2011 Z"/><path class="s5" d="M1220 2011 L992 1783 L1002 1783 L1230 2011 Z" /></g><g class="o"><path transform="translate(8,16)" class="S sf" d="M1171 1728 L930 1487 L948 1487 L1189 1728 Z"/><path class="f6" d="M1171 1728 L930 1487 L948 1487 L1189 1728 Z" /></g><g class="o"><path transform="translate(6,12)" class="S sf" d="M1211 2023 L536 2698 L536 2710 L1211 2035 Z"/><path class="f2" d="M1211 2023 L536 2698 L536 2710 L1211 2035 Z" /></g><g class="o"><path transform="translate(5,10)" class="S sf" d="M1678 1034 L1435 1277 L1435 1305 L1678 1062 Z"/><path class="f5" d="M1678 1034 L1435 1277 L1435 1305 L1678 1062 Z" /></g><g class="o"><path transform="translate(2,4)" class="S sf" d="M1244 1305 L1048 1109 L1048 1135 L1244 1331 Z"/><path class="f7" d="M1244 1305 L1048 1109 L1048 1135 L1244 1331 Z" /></g><g class="o"><path transform="translate(3,6)" class="S ss" d="M1253 1891 L1059 2085 L1059 2197 L1253 2003 Z"/><path class="s3" d="M1253 1891 L1059 2085 L1059 2197 L1253 2003 Z" /></g><g class="o"><path transform="translate(2,4)" class="S ss" d="M1410 1400 L1190 1620 L1190 1648 L1410 1428 Z"/><path class="s6" d="M1410 1400 L1190 1620 L1190 1648 L1410 1428 Z" /></g><g class="o"><path transform="translate(9,18)" class="S sf" d="M1969 1848 L1844 1723 L1876 1723 L2001 1848 Z"/><path class="f5" d="M1969 1848 L1844 1723 L1876 1723 L2001 1848 Z" /></g><g class="o"><path transform="translate(2,4)" class="S sf" d="M1913 1016 L1796 899 L1812 899 L1929 1016 Z"/><path class="f2" d="M1913 1016 L1796 899 L1812 899 L1929 1016 Z" /></g><g class="o"><path transform="translate(6,12)" class="S sf" d="M1309 1491 L1252 1434 L1252 1466 L1309 1523 Z"/><path class="f7" d="M1309 1491 L1252 1434 L1252 1466 L1309 1523 Z" /></g><g class="o"><path transform="translate(3,6)" class="S sf" d="M1422 1584 L1247 1759 L1261 1759 L1436 1584 Z"/><path class="f2" d="M1422 1584 L1247 1759 L1261 1759 L1436 1584 Z" /></g><g class="o"><path transform="translate(2,4)" class="S sf" d="M970 1355 L788 1537 L788 1569 L970 1387 Z"/><path class="f4" d="M970 1355 L788 1537 L788 1569 L970 1387 Z" /></g><g class="o"><path transform="translate(8,16)" class="S sf" d="M2016 1662 L1867 1811 L1897 1811 L2046 1662 Z"/><path class="f6" d="M2016 1662 L1867 1811 L1897 1811 L2046 1662 Z" /></g><g class="o"><path transform="translate(6,12)" class="S sf" d="M1184 1052 L1091 959 L1103 959 L1196 1052 Z"/><path class="f3" d="M1184 1052 L1091 959 L1103 959 L1196 1052 Z" /></g><g class="o"><path transform="translate(2,4)" class="S sf" d="M1801 1361 L1576 1586 L1586 1586 L1811 1361 Z"/><path class="f2" d="M1801 1361 L1576 1586 L1586 1586 L1811 1361 Z" /></g><g class="o"><path transform="translate(6,12)" class="S sf" d="M1089 1177 L789 1477 L789 1511 L1089 1211 Z"/><path class="f3" d="M1089 1177 L789 1477 L789 1511 L1089 1211 Z" /></g><g class="o"><path transform="translate(3,6)" class="S sf" d="M1275 1134 L1068 1341 L1068 1367 L1275 1160 Z"/><path class="f6" d="M1275 1134 L1068 1341 L1068 1367 L1275 1160 Z" /></g><g class="o"><path transform="translate(8,16)" class="S sf" d="M1460 1355 L1085 1730 L1117 1730 L1492 1355 Z"/><path class="f3" d="M1460 1355 L1085 1730 L1117 1730 L1492 1355 Z" /></g><g class="o"><path transform="translate(6,12)" class="S sf" d="M1340 1879 L1149 2070 L1169 2070 L1360 1879 Z"/><path class="f2" d="M1340 1879 L1149 2070 L1169 2070 L1360 1879 Z" /></g><g class="o"><path transform="translate(5,10)" class="S sf" d="M1167 1157 L925 915 L943 915 L1185 1157 Z"/><path class="f6" d="M1167 1157 L925 915 L943 915 L1185 1157 Z" /></g><g class="o"><path transform="translate(5,10)" class="S sf" d="M1353 1966 L1114 2205 L1134 2205 L1373 1966 Z"/><path class="f2" d="M1353 1966 L1114 2205 L1134 2205 L1373 1966 Z" /></g><g class="o"><path transform="translate(3,6)" class="S ss" d="M1669 1343 L1480 1154 L1492 1154 L1681 1343 Z"/><path class="s3" d="M1669 1343 L1480 1154 L1492 1154 L1681 1343 Z" /></g><g class="o"><path transform="translate(8,16)" class="S sf" d="M1221 1014 L1101 894 L1101 914 L1221 1034 Z"/><path class="f4" d="M1221 1014 L1101 894 L1101 914 L1221 1034 Z" /></g><g class="o"><path transform="translate(4,8)" class="S sf" d="M1840 1077 L1612 1305 L1612 1341 L1840 1113 Z"/><path class="f3" d="M1840 1077 L1612 1305 L1612 1341 L1840 1113 Z" /></g><g class="o"><path transform="translate(9,18)" class="S sf" d="M975 1875 L552 2298 L570 2298 L993 1875 Z"/><path class="f3" d="M975 1875 L552 2298 L570 2298 L993 1875 Z" /></g><g class="o"><path transform="translate(2,4)" class="S sf" d="M1288 1348 L967 1669 L967 1701 L1288 1380 Z"/><path class="f3" d="M1288 1348 L967 1669 L967 1701 L1288 1380 Z" /></g><g class="o"><path transform="translate(7,14)" class="S sf" d="M1169 1835 L1111 1893 L1247 1893 L1305 1835 Z"/><path class="f4" d="M1169 1835 L1111 1893 L1247 1893 L1305 1835 Z" /></g><g class="o"><path transform="translate(8,16)" class="S sf" d="M1677 1679 L1615 1741 L1615 1779 L1677 1717 Z"/><path class="f5" d="M1677 1679 L1615 1741 L1615 1779 L1677 1717 Z" /></g><g class="o"><path transform="translate(7,14)" class="S sf" d="M1867 1103 L1378 1592 L1378 1614 L1867 1125 Z"/><path class="f2" d="M1867 1103 L1378 1592 L1378 1614 L1867 1125 Z" /></g><g class="o"><path transform="translate(3,6)" class="S ss" d="M1175 1502 L1043 1634 L1057 1634 L1189 1502 Z"/><path class="s3" d="M1175 1502 L1043 1634 L1057 1634 L1189 1502 Z" /></g><g class="o"><path transform="translate(2,4)" class="S sf" d="M1415 1531 L1316 1630 L1350 1630 L1449 1531 Z"/><path class="f5" d="M1415 1531 L1316 1630 L1350 1630 L1449 1531 Z" /></g><g class="o"><path transform="translate(4,8)" class="S sf" d="M1999 1416 L1907 1508 L1927 1508 L2019 1416 Z"/><path class="f3" d="M1999 1416 L1907 1508 L1927 1508 L2019 1416 Z" /></g><g class="o"><path transform="translate(5,10)" class="S sf" d="M1077 1634 L932 1489 L956 1489 L1101 1634 Z"/><path class="f7" d="M1077 1634 L932 1489 L956 1489 L1101 1634 Z" /></g><g class="o"><path transform="translate(7,14)" class="S ss" d="M1922 1741 L1538 2125 L1570 2125 L1954 1741 Z"/><path class="s2" d="M1922 1741 L1538 2125 L1570 2125 L1954 1741 Z" /></g><g class="o"><path transform="translate(6,12)" class="S ss" d="M1240 1104 L1065 1279 L1075 1279 L1250 1104 Z"/><path class="s6" d="M1240 1104 L1065 1279 L1075 1279 L1250 1104 Z" /></g><g class="o"><path transform="translate(4,8)" class="S sf" d="M1329 1202 L1258 1273 L1278 1273 L1349 1202 Z"/><path class="f5" d="M1329 1202 L1258 1273 L1278 1273 L1349 1202 Z" /></g><g class="o"><path transform="translate(9,18)" class="S ss" d="M1741 1425 L1505 1189 L1505 1201 L1741 1437 Z"/><path class="s2" d="M1741 1425 L1505 1189 L1505 1201 L1741 1437 Z" /></g><g class="o"><path transform="translate(8,16)" class="S sf" d="M1659 1478 L1491 1646 L1501 1646 L1669 1478 Z"/><path class="f3" d="M1659 1478 L1491 1646 L1501 1646 L1669 1478 Z" /></g><g class="o"><path transform="translate(4,8)" class="S sf" d="M1136 1406 L959 1229 L977 1229 L1154 1406 Z"/><path class="f6" d="M1136 1406 L959 1229 L977 1229 L1154 1406 Z" /></g><g class="o"><path transform="translate(4,8)" class="S sf" d="M1215 912 L1048 745 L1048 889 L1215 1056 Z"/><path class="f2" d="M1215 912 L1048 745 L1048 889 L1215 1056 Z" /></g><g class="o"><path transform="translate(8,16)" class="S sf" d="M1779 1811 L1704 1736 L1732 1736 L1807 1811 Z"/><path class="f7" d="M1779 1811 L1704 1736 L1732 1736 L1807 1811 Z" /></g><g class="o"><path transform="translate(5,10)" class="S sf" d="M1293 1192 L1077 1408 L1091 1408 L1307 1192 Z"/><path class="f3" d="M1293 1192 L1077 1408 L1091 1408 L1307 1192 Z" /></g><g class="o"><path transform="translate(4,8)" class="S sf" d="M1831 1114 L1729 1012 L1729 1028 L1831 1130 Z"/><path class="f4" d="M1831 1114 L1729 1012 L1729 1028 L1831 1130 Z" /></g><g class="o"><path transform="translate(5,10)" class="S sf" d="M1000 1396 L870 1266 L870 1362 L1000 1492 Z"/><path class="f3" d="M1000 1396 L870 1266 L870 1362 L1000 1492 Z" /></g><g class="o"><path transform="translate(3,6)" class="S ss" d="M1741 1213 L1667 1139 L1787 1139 L1861 1213 Z"/><path class="s3" d="M1741 1213 L1667 1139 L1787 1139 L1861 1213 Z" /></g><g class="o"><path transform="translate(8,16)" class="S sf" d="M1362 2019 L639 2742 L651 2742 L1374 2019 Z"/><path class="f3" d="M1362 2019 L639 2742 L651 2742 L1374 2019 Z" /></g><g class="o"><path transform="translate(2,4)" class="S sf" d="M1652 1624 L1559 1531 L1569 1531 L1662 1624 Z"/><path class="f2" d="M1652 1624 L1559 1531 L1569 1531 L1662 1624 Z" /></g><g class="o"><path transform="translate(4,8)" class="S sf" d="M1914 1160 L1710 1364 L1710 1402 L1914 1198 Z"/><path class="f3" d="M1914 1160 L1710 1364 L1710 1402 L1914 1198 Z" /></g><g class="o"><path transform="translate(6,12)" class="S sf" d="M1761 1320 L1637 1444 L1649 1444 L1773 1320 Z"/><path class="f4" d="M1761 1320 L1637 1444 L1649 1444 L1773 1320 Z" /></g><g class="o"><path transform="translate(7,14)" class="S ss" d="M1293 1905 L735 1347 L735 1367 L1293 1925 Z"/><path class="s3" d="M1293 1905 L735 1347 L735 1367 L1293 1925 Z" /></g><g class="o"><path transform="translate(5,10)" class="S ss" d="M1624 1968 L1437 1781 L1565 1781 L1752 1968 Z"/><path class="s6" d="M1624 1968 L1437 1781 L1565 1781 L1752 1968 Z" /></g><g class="o"><path transform="translate(4,8)" class="S sf" d="M1246 1298 L1109 1161 L1109 1175 L1246 1312 Z"/><path class="f4" d="M1246 1298 L1109 1161 L1109 1175 L1246 1312 Z" /></g><g class="o"><path transform="translate(6,12)" class="S sf" d="M972 1109 L825 962 L835 962 L982 1109 Z"/><path class="f4" d="M972 1109 L825 962 L835 962 L982 1109 Z" /></g></g><use href="#slashes" transform-origin="1500 1500" transform="rotate(180) scale(2)"/></g><polyline points="1500,1010 1990,1500 1500,1990 1010,1500 1500,1010 1990,1500" stroke-width="80" class="o f1" /><use href="#slashes" transform-origin="1500 1500" transform="scale(.6)"/><use href="#slashes" transform-origin="1500 1500" transform="rotate(180) scale(.6)"/></svg>