<svg xmlns="http://www.w3.org/2000/svg" viewBox="750 750 1500 1500"><style>/*<![CDATA[*/svg{background:rgb(19,41,61);max-width:100vw;max-height:100vh}path{stroke-width:4}.o{opacity:.75}.S{opacity:.4}.sf{stroke:none;fill:black}.sfh{stroke:none;fill:url(#hs)}.sfv{stroke:none;fill:url(#vs)}.ss{stroke:black;fill:none}.ssh{stroke:url(#hs);fill:none}.ssv{stroke:url(#vs);fill:none}.s1{fill:none;stroke:rgb(34,34,34)}.f1{stroke:none;fill:rgb(34,34,34)}.sh1{fill:none;stroke:url(#h1)}.fh1{stroke:none;fill:url(#h1)}.sv1{fill:none;stroke:url(#v1)}.fv1{stroke:none;fill:url(#v1)}.s2{fill:none;stroke:rgb(232,241,242)}.f2{stroke:none;fill:rgb(232,241,242)}.sh2{fill:none;stroke:url(#h2)}.fh2{stroke:none;fill:url(#h2)}.sv2{fill:none;stroke:url(#v2)}.fv2{stroke:none;fill:url(#v2)}.s3{fill:none;stroke:rgb(36,123,160)}.f3{stroke:none;fill:rgb(36,123,160)}.sh3{fill:none;stroke:url(#h3)}.fh3{stroke:none;fill:url(#h3)}.sv3{fill:none;stroke:url(#v3)}.fv3{stroke:none;fill:url(#v3)}.s4{fill:none;stroke:rgb(27,152,224)}.f4{stroke:none;fill:rgb(27,152,224)}.sh4{fill:none;stroke:url(#h4)}.fh4{stroke:none;fill:url(#h4)}.sv4{fill:none;stroke:url(#v4)}.fv4{stroke:none;fill:url(#v4)}.s5{fill:none;stroke:rgb(0,100,148)}.f5{stroke:none;fill:rgb(0,100,148)}.sh5{fill:none;stroke:url(#h5)}.fh5{stroke:none;fill:url(#h5)}.sv5{fill:none;stroke:url(#v5)}.fv5{stroke:none;fill:url(#v5)}.s6{fill:none;stroke:rgb(255,255,255)}.f6{stroke:none;fill:rgb(255,255,255)}.sh6{fill:none;stroke:url(#h6)}.fh6{stroke:none;fill:url(#h6)}.sv6{fill:none;stroke:url(#v6)}.fv6{stroke:none;fill:url(#v6)}.s7{fill:none;stroke:rgb(255,255,0)}.f7{stroke:none;fill:rgb(255,255,0)}.sh7{fill:none;stroke:url(#h7)}.fh7{stroke:none;fill:url(#h7)}.sv7{fill:none;stroke:url(#v7)}.fv7{stroke:none;fill:url(#v7)}/*]]>*/</style><defs><linearGradient gradientTransform="rotate(90)" id="hs"><stop offset="20%" stop-color="#000" /><stop offset="95%" stop-color="rgba(0, 0, 0, 0)" /></linearGradient><linearGradient id="vs"><stop offset="20%" stop-color="#000" /><stop offset="95%" stop-color="rgba(0, 0, 0, 0)" /></linearGradient><linearGradient gradientTransform="rotate(90)" id="h1"><stop offset="20%" stop-color="rgba(34,34,34,1)" /><stop offset="95%" stop-color="rgba(34,34,34,0)" /></linearGradient><linearGradient id="v1"><stop offset="20%" stop-color="rgba(34,34,34,1)" /><stop offset="95%" stop-color="rgba(34,34,34,0)" /></linearGradient><linearGradient gradientTransform="rotate(90)" id="h2"><stop offset="20%" stop-color="rgba(232,241,242,1)" /><stop offset="95%" stop-color="rgba(232,241,242,0)" /></linearGradient><linearGradient id="v2"><stop offset="20%" stop-color="rgba(232,241,242,1)" /><stop offset="95%" stop-color="rgba(232,241,242,0)" /></linearGradient><linearGradient gradientTransform="rotate(90)" id="h3"><stop offset="20%" stop-color="rgba(36,123,160,1)" /><stop offset="95%" stop-color="rgba(36,123,160,0)" /></linearGradient><linearGradient id="v3"><stop offset="20%" stop-color="rgba(36,123,160,1)" /><stop offset="95%" stop-color="rgba(36,123,160,0)" /></linearGradient><linearGradient gradientTransform="rotate(90)" id="h4"><stop offset="20%" stop-color="rgba(27,152,224,1)" /><stop offset="95%" stop-color="rgba(27,152,224,0)" /></linearGradient><linearGradient id="v4"><stop offset="20%" stop-color="rgba(27,152,224,1)" /><stop offset="95%" stop-color="rgba(27,152,224,0)" /></linearGradient><linearGradient gradientTransform="rotate(90)" id="h5"><stop offset="20%" stop-color="rgba(0,100,148,1)" /><stop offset="95%" stop-color="rgba(0,100,148,0)" /></linearGradient><linearGradient id="v5"><stop offset="20%" stop-color="rgba(0,100,148,1)" /><stop offset="95%" stop-color="rgba(0,100,148,0)" /></linearGradient><linearGradient gradientTransform="rotate(90)" id="h6"><stop offset="20%" stop-color="rgba(255,255,255,1)" /><stop offset="95%" stop-color="rgba(255,255,255,0)" /></linearGradient><linearGradient id="v6"><stop offset="20%" stop-color="rgba(255,255,255,1)" /><stop offset="95%" stop-color="rgba(255,255,255,0)" /></linearGradient><linearGradient gradientTransform="rotate(90)" id="h7"><stop offset="20%" stop-color="rgba(255,255,0,1)" /><stop offset="95%" stop-color="rgba(255,255,0,0)" /></linearGradient><linearGradient id="v7"><stop offset="20%" stop-color="rgba(255,255,0,1)" /><stop offset="95%" stop-color="rgba(255,255,0,0)" /></linearGradient></defs><g transform-origin="1500 1500" transform="scale(2)" opacity=".2"><g id="slashes"><g class="o"><path transform="translate(7,14)" class="S ssv" d="M1864 1882 L2080 1666 L2080 1770 L1864 1986 Z"/><path class="sv4" d="M1864 1882 L2080 1666 L2080 1770 L1864 1986 Z" /></g><g class="o"><path transform="translate(6,12)" class="S sfh" d="M1796 1423 L1730 1489 L1760 1489 L1826 1423 Z"/><path class="fh6" d="M1796 1423 L1730 1489 L1760 1489 L1826 1423 Z" /></g><g class="o"><path transform="translate(3,6)" class="S sf" d="M1279 1237 L1894 1852 L1894 1868 L1279 1253 Z"/><path class="f2" d="M1279 1237 L1894 1852 L1894 1868 L1279 1253 Z" /></g><g class="o"><path transform="translate(3,6)" class="S sfh" d="M1878 1795 L1443 1360 L1467 1360 L1902 1795 Z"/><path class="fh4" d="M1878 1795 L1443 1360 L1467 1360 L1902 1795 Z" /></g><g class="o"><path transform="translate(8,16)" class="S sf" d="M1015 2000 L1263 1752 L1319 1752 L1071 2000 Z"/><path class="f1" d="M1015 2000 L1263 1752 L1319 1752 L1071 2000 Z" /></g><g class="o"><path transform="translate(7,14)" class="S sfv" d="M1517 1317 L1641 1193 L1641 1289 L1517 1413 Z"/><path class="fv3" d="M1517 1317 L1641 1193 L1641 1289 L1517 1413 Z" /></g><g class="o"><path transform="translate(5,10)" class="S sfh" d="M946 1505 L1101 1660 L1133 1660 L978 1505 Z"/><path class="fh3" d="M946 1505 L1101 1660 L1133 1660 L978 1505 Z" /></g><g class="o"><path transform="translate(4,8)" class="S sfv" d="M1581 1364 L1487 1458 L1487 1466 L1581 1372 Z"/><path class="fv2" d="M1581 1364 L1487 1458 L1487 1466 L1581 1372 Z" /></g><g class="o"><path transform="translate(9,18)" class="S sfv" d="M1115 1248 L1239 1124 L1239 1172 L1115 1296 Z"/><path class="fv3" d="M1115 1248 L1239 1124 L1239 1172 L1115 1296 Z" /></g><g class="o"><path transform="translate(2,4)" class="S sfv" d="M1041 1993 L937 1889 L937 1905 L1041 2009 Z"/><path class="fv6" d="M1041 1993 L937 1889 L937 1905 L1041 2009 Z" /></g><g class="o"><path transform="translate(4,8)" class="S sf" d="M1575 1218 L1917 1560 L1917 1616 L1575 1274 Z"/><path class="f7" d="M1575 1218 L1917 1560 L1917 1616 L1575 1274 Z" /></g><g class="o"><path transform="translate(2,4)" class="S sfh" d="M1755 1201 L1575 1021 L1609 1021 L1789 1201 Z"/><path class="fh7" d="M1755 1201 L1575 1021 L1609 1021 L1789 1201 Z" /></g><g class="o"><path transform="translate(7,14)" class="S sf" d="M1175 1457 L1417 1699 L1417 1737 L1175 1495 Z"/><path class="f1" d="M1175 1457 L1417 1699 L1417 1737 L1175 1495 Z" /></g><g class="o"><path transform="translate(4,8)" class="S sfv" d="M1164 1662 L1047 1545 L1047 1565 L1164 1682 Z"/><path class="fv3" d="M1164 1662 L1047 1545 L1047 1565 L1164 1682 Z" /></g><g class="o"><path transform="translate(3,6)" class="S sfv" d="M1992 1769 L1920 1841 L1920 1875 L1992 1803 Z"/><path class="fv2" d="M1992 1769 L1920 1841 L1920 1875 L1992 1803 Z" /></g><g class="o"><path transform="translate(7,14)" class="S sfv" d="M2046 1700 L1833 1487 L1833 1623 L2046 1836 Z"/><path class="fv5" d="M2046 1700 L1833 1487 L1833 1623 L2046 1836 Z" /></g><g class="o"><path transform="translate(4,8)" class="S sfv" d="M1904 1424 L2064 1264 L2064 1290 L1904 1450 Z"/><path class="fv7" d="M1904 1424 L2064 1264 L2064 1290 L1904 1450 Z" /></g><g class="o"><path transform="translate(9,18)" class="S sfv" d="M1480 1855 L1554 1929 L1554 1969 L1480 1895 Z"/><path class="fv5" d="M1480 1855 L1554 1929 L1554 1969 L1480 1895 Z" /></g><g class="o"><path transform="translate(8,16)" class="S ssh" d="M1096 1927 L897 1728 L905 1728 L1104 1927 Z"/><path class="sh4" d="M1096 1927 L897 1728 L905 1728 L1104 1927 Z" /></g><g class="o"><path transform="translate(6,12)" class="S sfh" d="M1539 1816 L1670 1685 L1698 1685 L1567 1816 Z"/><path class="fh2" d="M1539 1816 L1670 1685 L1698 1685 L1567 1816 Z" /></g><g class="o"><path transform="translate(2,4)" class="S sfh" d="M1022 1708 L1156 1574 L1300 1574 L1166 1708 Z"/><path class="fh4" d="M1022 1708 L1156 1574 L1300 1574 L1166 1708 Z" /></g><g class="o"><path transform="translate(5,10)" class="S sfv" d="M1061 1017 L920 1158 L920 1166 L1061 1025 Z"/><path class="fv2" d="M1061 1017 L920 1158 L920 1166 L1061 1025 Z" /></g><g class="o"><path transform="translate(6,12)" class="S sfh" d="M1008 1533 L1584 957 L1696 957 L1120 1533 Z"/><path class="fh7" d="M1008 1533 L1584 957 L1696 957 L1120 1533 Z" /></g><g class="o"><path transform="translate(3,6)" class="S sfh" d="M1565 1204 L1481 1288 L1625 1288 L1709 1204 Z"/><path class="fh5" d="M1565 1204 L1481 1288 L1625 1288 L1709 1204 Z" /></g><g class="o"><path transform="translate(9,18)" class="S sfv" d="M1102 1292 L565 1829 L565 1859 L1102 1322 Z"/><path class="fv7" d="M1102 1292 L565 1829 L565 1859 L1102 1322 Z" /></g><g class="o"><path transform="translate(7,14)" class="S sfv" d="M1219 1143 L1329 1253 L1329 1263 L1219 1153 Z"/><path class="fv1" d="M1219 1143 L1329 1253 L1329 1263 L1219 1153 Z" /></g><g class="o"><path transform="translate(2,4)" class="S sfv" d="M1946 1053 L1223 330 L1223 386 L1946 1109 Z"/><path class="fv2" d="M1946 1053 L1223 330 L1223 386 L1946 1109 Z" /></g><g class="o"><path transform="translate(3,6)" class="S sfh" d="M1373 1057 L1523 907 L1539 907 L1389 1057 Z"/><path class="fh2" d="M1373 1057 L1523 907 L1539 907 L1389 1057 Z" /></g><g class="o"><path transform="translate(4,8)" class="S sfv" d="M1672 1241 L1833 1402 L1833 1414 L1672 1253 Z"/><path class="fv4" d="M1672 1241 L1833 1402 L1833 1414 L1672 1253 Z" /></g><g class="o"><path transform="translate(5,10)" class="S sfh" d="M891 1290 L786 1185 L938 1185 L1043 1290 Z"/><path class="fh4" d="M891 1290 L786 1185 L938 1185 L1043 1290 Z" /></g><g class="o"><path transform="translate(3,6)" class="S ssv" d="M1037 1125 L1284 1372 L1284 1500 L1037 1253 Z"/><path class="sv6" d="M1037 1125 L1284 1372 L1284 1500 L1037 1253 Z" /></g><g class="o"><path transform="translate(8,16)" class="S sfv" d="M1006 1957 L903 1854 L903 1990 L1006 2093 Z"/><path class="fv4" d="M1006 1957 L903 1854 L903 1990 L1006 2093 Z" /></g><g class="o"><path transform="translate(9,18)" class="S sfv" d="M1564 1985 L1352 1773 L1352 1821 L1564 2033 Z"/><path class="fv3" d="M1564 1985 L1352 1773 L1352 1821 L1564 2033 Z" /></g><g class="o"><path transform="translate(9,18)" class="S sfh" d="M1495 1388 L2086 797 L2098 797 L1507 1388 Z"/><path class="fh4" d="M1495 1388 L2086 797 L2098 797 L1507 1388 Z" /></g><g class="o"><path transform="translate(3,6)" class="S sfh" d="M1314 1540 L1212 1642 L1244 1642 L1346 1540 Z"/><path class="fh2" d="M1314 1540 L1212 1642 L1244 1642 L1346 1540 Z" /></g><g class="o"><path transform="translate(4,8)" class="S sfh" d="M1431 1988 L1493 2050 L1525 2050 L1463 1988 Z"/><path class="fh2" d="M1431 1988 L1493 2050 L1525 2050 L1463 1988 Z" /></g><g class="o"><path transform="translate(2,4)" class="S sfv" d="M1684 1642 L1889 1847 L1889 1975 L1684 1770 Z"/><path class="fv2" d="M1684 1642 L1889 1847 L1889 1975 L1684 1770 Z" /></g><g class="o"><path transform="translate(5,10)" class="S sfh" d="M1356 1144 L1517 1305 L1535 1305 L1374 1144 Z"/><path class="fh7" d="M1356 1144 L1517 1305 L1535 1305 L1374 1144 Z" /></g><g class="o"><path transform="translate(6,12)" class="S sf" d="M1851 1165 L2005 1011 L2005 1033 L1851 1187 Z"/><path class="f1" d="M1851 1165 L2005 1011 L2005 1033 L1851 1187 Z" /></g><g class="o"><path transform="translate(2,4)" class="S sfh" d="M1569 2007 L1474 1912 L1502 1912 L1597 2007 Z"/><path class="fh1" d="M1569 2007 L1474 1912 L1502 1912 L1597 2007 Z" /></g><g class="o"><path transform="translate(6,12)" class="S sfh" d="M1745 1716 L2282 1179 L2316 1179 L1779 1716 Z"/><path class="fh4" d="M1745 1716 L2282 1179 L2316 1179 L1779 1716 Z" /></g><g class="o"><path transform="translate(8,16)" class="S sfh" d="M1329 1155 L1561 1387 L1569 1387 L1337 1155 Z"/><path class="fh5" d="M1329 1155 L1561 1387 L1569 1387 L1337 1155 Z" /></g><g class="o"><path transform="translate(8,16)" class="S sfh" d="M1636 1773 L991 2418 L1047 2418 L1692 1773 Z"/><path class="fh7" d="M1636 1773 L991 2418 L1047 2418 L1692 1773 Z" /></g><g class="o"><path transform="translate(5,10)" class="S sfh" d="M1326 1550 L1526 1350 L1622 1350 L1422 1550 Z"/><path class="fh3" d="M1326 1550 L1526 1350 L1622 1350 L1422 1550 Z" /></g><g class="o"><path transform="translate(9,18)" class="S sfh" d="M1012 1187 L784 1415 L920 1415 L1148 1187 Z"/><path class="fh1" d="M1012 1187 L784 1415 L920 1415 L1148 1187 Z" /></g><g class="o"><path transform="translate(7,14)" class="S ss" d="M1685 1149 L1780 1244 L1780 1388 L1685 1293 Z"/><path class="s6" d="M1685 1149 L1780 1244 L1780 1388 L1685 1293 Z" /></g><g class="o"><path transform="translate(7,14)" class="S sfh" d="M1170 1289 L1851 608 L1867 608 L1186 1289 Z"/><path class="fh1" d="M1170 1289 L1851 608 L1867 608 L1186 1289 Z" /></g><g class="o"><path transform="translate(7,14)" class="S sf" d="M1856 1784 L1790 1850 L1790 1898 L1856 1832 Z"/><path class="f6" d="M1856 1784 L1790 1850 L1790 1898 L1856 1832 Z" /></g><g class="o"><path transform="translate(3,6)" class="S sfv" d="M1304 1881 L1113 1690 L1113 1716 L1304 1907 Z"/><path class="fv6" d="M1304 1881 L1113 1690 L1113 1716 L1304 1907 Z" /></g><g class="o"><path transform="translate(7,14)" class="S sfv" d="M1968 1858 L2199 1627 L2199 1641 L1968 1872 Z"/><path class="fv6" d="M1968 1858 L2199 1627 L2199 1641 L1968 1872 Z" /></g><g class="o"><path transform="translate(4,8)" class="S sfv" d="M1937 1732 L2017 1812 L2017 1844 L1937 1764 Z"/><path class="fv7" d="M1937 1732 L2017 1812 L2017 1844 L1937 1764 Z" /></g><g class="o"><path transform="translate(3,6)" class="S sfv" d="M1630 1617 L1957 1944 L1957 2072 L1630 1745 Z"/><path class="fv7" d="M1630 1617 L1957 1944 L1957 2072 L1630 1745 Z" /></g><g class="o"><path transform="translate(4,8)" class="S sfv" d="M1811 1006 L2447 1642 L2447 1670 L1811 1034 Z"/><path class="fv7" d="M1811 1006 L2447 1642 L2447 1670 L1811 1034 Z" /></g><g class="o"><path transform="translate(3,6)" class="S sfv" d="M2005 1061 L2177 1233 L2177 1305 L2005 1133 Z"/><path class="fv4" d="M2005 1061 L2177 1233 L2177 1305 L2005 1133 Z" /></g><g class="o"><path transform="translate(5,10)" class="S sfh" d="M1622 1251 L2222 651 L2230 651 L1630 1251 Z"/><path class="fh3" d="M1622 1251 L2222 651 L2230 651 L1630 1251 Z" /></g><g class="o"><path transform="translate(9,18)" class="S sfh" d="M1703 1365 L1794 1456 L1826 1456 L1735 1365 Z"/><path class="fh2" d="M1703 1365 L1794 1456 L1826 1456 L1735 1365 Z" /></g><g class="o"><path transform="translate(6,12)" class="S sfh" d="M1390 1980 L994 2376 L1010 2376 L1406 1980 Z"/><path class="fh7" d="M1390 1980 L994 2376 L1010 2376 L1406 1980 Z" /></g><g class="o"><path transform="translate(3,6)" class="S sfh" d="M1642 1406 L1587 1351 L1617 1351 L1672 1406 Z"/><path class="fh3" d="M1642 1406 L1587 1351 L1617 1351 L1672 1406 Z" /></g><g class="o"><path transform="translate(6,12)" class="S sfh" d="M1798 1617 L1740 1675 L1876 1675 L1934 1617 Z"/><path class="fh3" d="M1798 1617 L1740 1675 L1876 1675 L1934 1617 Z" /></g><g class="o"><path transform="translate(4,8)" class="S sfv" d="M995 1753 L686 1444 L686 1492 L995 1801 Z"/><path class="fv1" d="M995 1753 L686 1444 L686 1492 L995 1801 Z" /></g><g class="o"><path transform="translate(2,4)" class="S sfh" d="M1564 1734 L1662 1636 L1680 1636 L1582 1734 Z"/><path class="fh4" d="M1564 1734 L1662 1636 L1680 1636 L1582 1734 Z" /></g><g class="o"><path transform="translate(7,14)" class="S sfh" d="M1466 1728 L998 2196 L1010 2196 L1478 1728 Z"/><path class="fh4" d="M1466 1728 L998 2196 L1010 2196 L1478 1728 Z" /></g><g class="o"><path transform="translate(3,6)" class="S sfv" d="M1928 1116 L1876 1064 L1876 1078 L1928 1130 Z"/><path class="fv1" d="M1928 1116 L1876 1064 L1876 1078 L1928 1130 Z" /></g><g class="o"><path transform="translate(5,10)" class="S sfv" d="M1294 1161 L1469 986 L1469 1122 L1294 1297 Z"/><path class="fv6" d="M1294 1161 L1469 986 L1469 1122 L1294 1297 Z" /></g><g class="o"><path transform="translate(5,10)" class="S ssh" d="M1504 1205 L2191 1892 L2201 1892 L1514 1205 Z"/><path class="sh6" d="M1504 1205 L2191 1892 L2201 1892 L1514 1205 Z" /></g><g class="o"><path transform="translate(9,18)" class="S sfv" d="M1521 1603 L1860 1264 L1860 1360 L1521 1699 Z"/><path class="fv3" d="M1521 1603 L1860 1264 L1860 1360 L1521 1699 Z" /></g><g class="o"><path transform="translate(4,8)" class="S sfh" d="M968 1621 L813 1776 L833 1776 L988 1621 Z"/><path class="fh3" d="M968 1621 L813 1776 L833 1776 L988 1621 Z" /></g><g class="o"><path transform="translate(4,8)" class="S sfh" d="M1008 1611 L1071 1548 L1111 1548 L1048 1611 Z"/><path class="fh1" d="M1008 1611 L1071 1548 L1111 1548 L1048 1611 Z" /></g><g class="o"><path transform="translate(7,14)" class="S sfh" d="M1408 1412 L1488 1492 L1502 1492 L1422 1412 Z"/><path class="fh6" d="M1408 1412 L1488 1492 L1502 1492 L1422 1412 Z" /></g><g class="o"><path transform="translate(3,6)" class="S sfh" d="M1173 1204 L1244 1133 L1316 1133 L1245 1204 Z"/><path class="fh4" d="M1173 1204 L1244 1133 L1316 1133 L1245 1204 Z" /></g><g class="o"><path transform="translate(4,8)" class="S sfv" d="M1629 1374 L1404 1149 L1404 1293 L1629 1518 Z"/><path class="fv5" d="M1629 1374 L1404 1149 L1404 1293 L1629 1518 Z" /></g><g class="o"><path transform="translate(9,18)" class="S sf" d="M991 1417 L1065 1491 L1065 1509 L991 1435 Z"/><path class="f2" d="M991 1417 L1065 1491 L1065 1509 L991 1435 Z" /></g><g class="o"><path transform="translate(9,18)" class="S ssv" d="M2035 1175 L2233 1373 L2233 1509 L2035 1311 Z"/><path class="sv4" d="M2035 1175 L2233 1373 L2233 1509 L2035 1311 Z" /></g><g class="o"><path transform="translate(6,12)" class="S ssh" d="M1839 1595 L1645 1789 L1749 1789 L1943 1595 Z"/><path class="sh2" d="M1839 1595 L1645 1789 L1749 1789 L1943 1595 Z" /></g><g class="o"><path transform="translate(2,4)" class="S sfv" d="M1801 1862 L1983 1680 L1983 1700 L1801 1882 Z"/><path class="fv2" d="M1801 1862 L1983 1680 L1983 1700 L1801 1882 Z" /></g><g class="o"><path transform="translate(4,8)" class="S ssv" d="M1981 1174 L1919 1112 L1919 1176 L1981 1238 Z"/><path class="sv5" d="M1981 1174 L1919 1112 L1919 1176 L1981 1238 Z" /></g><g class="o"><path transform="translate(7,14)" class="S ssv" d="M1153 1507 L1264 1396 L1264 1460 L1153 1571 Z"/><path class="sv2" d="M1153 1507 L1264 1396 L1264 1460 L1153 1571 Z" /></g><g class="o"><path transform="translate(9,18)" class="S sf" d="M1120 1993 L949 1822 L1013 1822 L1184 1993 Z"/><path class="f1" d="M1120 1993 L949 1822 L1013 1822 L1184 1993 Z" /></g><g class="o"><path transform="translate(7,14)" class="S sf" d="M1566 1417 L1789 1194 L1811 1194 L1588 1417 Z"/><path class="f5" d="M1566 1417 L1789 1194 L1811 1194 L1588 1417 Z" /></g><g class="o"><path transform="translate(2,4)" class="S sfh" d="M1306 1022 L1447 881 L1551 881 L1410 1022 Z"/><path class="fh3" d="M1306 1022 L1447 881 L1551 881 L1410 1022 Z" /></g><g class="o"><path transform="translate(8,16)" class="S sfh" d="M1588 1529 L1639 1580 L1711 1580 L1660 1529 Z"/><path class="fh3" d="M1588 1529 L1639 1580 L1711 1580 L1660 1529 Z" /></g><g class="o"><path transform="translate(7,14)" class="S sfv" d="M1633 1539 L1451 1721 L1451 1761 L1633 1579 Z"/><path class="fv2" d="M1633 1539 L1451 1721 L1451 1761 L1633 1579 Z" /></g><g class="o"><path transform="translate(8,16)" class="S ssv" d="M1422 1466 L1215 1259 L1215 1281 L1422 1488 Z"/><path class="sv4" d="M1422 1466 L1215 1259 L1215 1281 L1422 1488 Z" /></g><g class="o"><path transform="translate(3,6)" class="S sf" d="M1180 1225 L589 634 L677 634 L1268 1225 Z"/><path class="f2" d="M1180 1225 L589 634 L677 634 L1268 1225 Z" /></g><g class="o"><path transform="translate(2,4)" class="S ss" d="M1766 989 L1936 819 L1936 851 L1766 1021 Z"/><path class="s2" d="M1766 989 L1936 819 L1936 851 L1766 1021 Z" /></g><g class="o"><path transform="translate(4,8)" class="S sfh" d="M1036 1136 L789 889 L811 889 L1058 1136 Z"/><path class="fh4" d="M1036 1136 L789 889 L811 889 L1058 1136 Z" /></g><g class="o"><path transform="translate(9,18)" class="S sfh" d="M1752 1720 L1900 1868 L1924 1868 L1776 1720 Z"/><path class="fh7" d="M1752 1720 L1900 1868 L1924 1868 L1776 1720 Z" /></g><g class="o"><path transform="translate(6,12)" class="S ss" d="M1083 1643 L1155 1715 L1167 1715 L1095 1643 Z"/><path class="s4" d="M1083 1643 L1155 1715 L1167 1715 L1095 1643 Z" /></g><g class="o"><path transform="translate(9,18)" class="S sfv" d="M1964 1636 L1814 1786 L1814 1814 L1964 1664 Z"/><path class="fv1" d="M1964 1636 L1814 1786 L1814 1814 L1964 1664 Z" /></g><g class="o"><path transform="translate(6,12)" class="S sfv" d="M1830 1732 L1701 1861 L1701 1981 L1830 1852 Z"/><path class="fv7" d="M1830 1732 L1701 1861 L1701 1981 L1830 1852 Z" /></g><g class="o"><path transform="translate(9,18)" class="S sf" d="M1705 1070 L1804 1169 L1820 1169 L1721 1070 Z"/><path class="f4" d="M1705 1070 L1804 1169 L1820 1169 L1721 1070 Z" /></g><g class="o"><path transform="translate(4,8)" class="S ssv" d="M1864 1552 L1771 1459 L1771 1489 L1864 1582 Z"/><path class="sv6" d="M1864 1552 L1771 1459 L1771 1489 L1864 1582 Z" /></g><g class="o"><path transform="translate(3,6)" class="S ssh" d="M1990 1399 L2195 1194 L2267 1194 L2062 1399 Z"/><path class="sh4" d="M1990 1399 L2195 1194 L2267 1194 L2062 1399 Z" /></g><g class="o"><path transform="translate(6,12)" class="S sfh" d="M1432 1647 L1499 1580 L1519 1580 L1452 1647 Z"/><path class="fh3" d="M1432 1647 L1499 1580 L1519 1580 L1452 1647 Z" /></g><g class="o"><path transform="translate(2,4)" class="S sf" d="M1175 1646 L1784 1037 L1784 1181 L1175 1790 Z"/><path class="f3" d="M1175 1646 L1784 1037 L1784 1181 L1175 1790 Z" /></g><g class="o"><path transform="translate(7,14)" class="S sf" d="M960 2030 L725 2265 L735 2265 L970 2030 Z"/><path class="f7" d="M960 2030 L725 2265 L735 2265 L970 2030 Z" /></g><g class="o"><path transform="translate(3,6)" class="S sfh" d="M1125 1591 L957 1423 L975 1423 L1143 1591 Z"/><path class="fh1" d="M1125 1591 L957 1423 L975 1423 L1143 1591 Z" /></g><g class="o"><path transform="translate(8,16)" class="S sfv" d="M1036 1835 L961 1760 L961 1784 L1036 1859 Z"/><path class="fv1" d="M1036 1835 L961 1760 L961 1784 L1036 1859 Z" /></g><g class="o"><path transform="translate(3,6)" class="S sfv" d="M1293 1102 L1134 1261 L1134 1365 L1293 1206 Z"/><path class="fv7" d="M1293 1102 L1134 1261 L1134 1365 L1293 1206 Z" /></g><g class="o"><path transform="translate(5,10)" class="S sf" d="M1891 1429 L1709 1247 L1709 1283 L1891 1465 Z"/><path class="f4" d="M1891 1429 L1709 1247 L1709 1283 L1891 1465 Z" /></g><g class="o"><path transform="translate(6,12)" class="S sfh" d="M1386 1496 L1553 1663 L1577 1663 L1410 1496 Z"/><path class="fh6" d="M1386 1496 L1553 1663 L1577 1663 L1410 1496 Z" /></g><g class="o"><path transform="translate(4,8)" class="S sfh" d="M1158 1355 L1358 1555 L1438 1555 L1238 1355 Z"/><path class="fh3" d="M1158 1355 L1358 1555 L1438 1555 L1238 1355 Z" /></g><g class="o"><path transform="translate(8,16)" class="S sfv" d="M1155 1383 L795 1023 L795 1043 L1155 1403 Z"/><path class="fv6" d="M1155 1383 L795 1023 L795 1043 L1155 1403 Z" /></g><g class="o"><path transform="translate(9,18)" class="S sfh" d="M1678 1943 L1503 2118 L1513 2118 L1688 1943 Z"/><path class="fh4" d="M1678 1943 L1503 2118 L1513 2118 L1688 1943 Z" /></g><g class="o"><path transform="translate(6,12)" class="S ssh" d="M1821 1056 L1975 1210 L2013 1210 L1859 1056 Z"/><path class="sh7" d="M1821 1056 L1975 1210 L2013 1210 L1859 1056 Z" /></g><g class="o"><path transform="translate(6,12)" class="S sfv" d="M1849 1175 L2071 953 L2071 969 L1849 1191 Z"/><path class="fv2" d="M1849 1175 L2071 953 L2071 969 L1849 1191 Z" /></g><g class="o"><path transform="translate(7,14)" class="S ssh" d="M1608 2047 L1470 1909 L1502 1909 L1640 2047 Z"/><path class="sh2" d="M1608 2047 L1470 1909 L1502 1909 L1640 2047 Z" /></g><g class="o"><path transform="translate(5,10)" class="S ssh" d="M1836 1908 L1598 1670 L1718 1670 L1956 1908 Z"/><path class="sh1" d="M1836 1908 L1598 1670 L1718 1670 L1956 1908 Z" /></g><g class="o"><path transform="translate(6,12)" class="S sfv" d="M1800 1553 L1727 1626 L1727 1662 L1800 1589 Z"/><path class="fv4" d="M1800 1553 L1727 1626 L1727 1662 L1800 1589 Z" /></g><g class="o"><path transform="translate(2,4)" class="S sfh" d="M1577 1785 L857 2505 L871 2505 L1591 1785 Z"/><path class="fh6" d="M1577 1785 L857 2505 L871 2505 L1591 1785 Z" /></g><g class="o"><path transform="translate(6,12)" class="S sfh" d="M1835 1536 L1664 1365 L1702 1365 L1873 1536 Z"/><path class="fh3" d="M1835 1536 L1664 1365 L1702 1365 L1873 1536 Z" /></g><g class="o"><path transform="translate(6,12)" class="S sfv" d="M1938 1033 L1692 787 L1692 803 L1938 1049 Z"/><path class="fv2" d="M1938 1033 L1692 787 L1692 803 L1938 1049 Z" /></g><g class="o"><path transform="translate(8,16)" class="S sfv" d="M1663 1622 L1770 1729 L1770 1753 L1663 1646 Z"/><path class="fv7" d="M1663 1622 L1770 1729 L1770 1753 L1663 1646 Z" /></g><g class="o"><path transform="translate(6,12)" class="S sfv" d="M1583 1873 L1673 1783 L1673 1791 L1583 1881 Z"/><path class="fv3" d="M1583 1873 L1673 1783 L1673 1791 L1583 1881 Z" /></g><g class="o"><path transform="translate(9,18)" class="S sfv" d="M1209 1569 L1137 1641 L1137 1721 L1209 1649 Z"/><path class="fv3" d="M1209 1569 L1137 1641 L1137 1721 L1209 1649 Z" /></g><g class="o"><path transform="translate(2,4)" class="S sfh" d="M2035 1289 L2743 581 L2765 581 L2057 1289 Z"/><path class="fh7" d="M2035 1289 L2743 581 L2765 581 L2057 1289 Z" /></g><g class="o"><path transform="translate(5,10)" class="S ssh" d="M936 2035 L1593 1378 L1627 1378 L970 2035 Z"/><path class="sh3" d="M936 2035 L1593 1378 L1627 1378 L970 2035 Z" /></g><g class="o"><path transform="translate(3,6)" class="S ssh" d="M1184 1193 L1493 884 L1513 884 L1204 1193 Z"/><path class="sh4" d="M1184 1193 L1493 884 L1513 884 L1204 1193 Z" /></g><g class="o"><path transform="translate(5,10)" class="S sf" d="M1927 2019 L1844 1936 L1856 1936 L1939 2019 Z"/><path class="f5" d="M1927 2019 L1844 1936 L1856 1936 L1939 2019 Z" /></g><g class="o"><path transform="translate(6,12)" class="S sf" d="M1738 1228 L1896 1070 L1952 1070 L1794 1228 Z"/><path class="f3" d="M1738 1228 L1896 1070 L1952 1070 L1794 1228 Z" /></g></g><use href="#slashes" transform-origin="1500 1500" transform="rotate(180) scale(2)"/></g><rect x="1080" y="1080" width="840" height="840" stroke-width="20" class="o s4" /><use href="#slashes" transform-origin="1500 1500" transform="scale(.6)"/><use href="#slashes" transform-origin="1500 1500" transform="rotate(180) scale(.6)"/></svg>