<svg xmlns="http://www.w3.org/2000/svg" viewBox="750 750 1500 1500"><style>/*<![CDATA[*/svg{background:rgb(232,237,223);max-width:100vw;max-height:100vh}path{stroke-width:4}.o{opacity:.75}.S{opacity:.4}.sf{stroke:none;fill:black}.sfh{stroke:none;fill:url(#hs)}.sfv{stroke:none;fill:url(#vs)}.ss{stroke:black;fill:none}.ssh{stroke:url(#hs);fill:none}.ssv{stroke:url(#vs);fill:none}.s1{fill:none;stroke:rgb(34,34,34)}.f1{stroke:none;fill:rgb(34,34,34)}.sh1{fill:none;stroke:url(#h1)}.fh1{stroke:none;fill:url(#h1)}.sv1{fill:none;stroke:url(#v1)}.fv1{stroke:none;fill:url(#v1)}.s2{fill:none;stroke:rgb(207,219,213)}.f2{stroke:none;fill:rgb(207,219,213)}.sh2{fill:none;stroke:url(#h2)}.fh2{stroke:none;fill:url(#h2)}.sv2{fill:none;stroke:url(#v2)}.fv2{stroke:none;fill:url(#v2)}.s3{fill:none;stroke:rgb(51,53,51)}.f3{stroke:none;fill:rgb(51,53,51)}.sh3{fill:none;stroke:url(#h3)}.fh3{stroke:none;fill:url(#h3)}.sv3{fill:none;stroke:url(#v3)}.fv3{stroke:none;fill:url(#v3)}.s4{fill:none;stroke:rgb(245,203,92)}.f4{stroke:none;fill:rgb(245,203,92)}.sh4{fill:none;stroke:url(#h4)}.fh4{stroke:none;fill:url(#h4)}.sv4{fill:none;stroke:url(#v4)}.fv4{stroke:none;fill:url(#v4)}.s5{fill:none;stroke:rgb(36,36,35)}.f5{stroke:none;fill:rgb(36,36,35)}.sh5{fill:none;stroke:url(#h5)}.fh5{stroke:none;fill:url(#h5)}.sv5{fill:none;stroke:url(#v5)}.fv5{stroke:none;fill:url(#v5)}.s6{fill:none;stroke:rgb(255,255,255)}.f6{stroke:none;fill:rgb(255,255,255)}.sh6{fill:none;stroke:url(#h6)}.fh6{stroke:none;fill:url(#h6)}.sv6{fill:none;stroke:url(#v6)}.fv6{stroke:none;fill:url(#v6)}.s7{fill:none;stroke:rgb(255,255,0)}.f7{stroke:none;fill:rgb(255,255,0)}.sh7{fill:none;stroke:url(#h7)}.fh7{stroke:none;fill:url(#h7)}.sv7{fill:none;stroke:url(#v7)}.fv7{stroke:none;fill:url(#v7)}/*]]>*/</style><defs><linearGradient gradientTransform="rotate(90)" id="hs"><stop offset="20%" stop-color="#000" /><stop offset="95%" stop-color="rgba(0, 0, 0, 0)" /></linearGradient><linearGradient id="vs"><stop offset="20%" stop-color="#000" /><stop offset="95%" stop-color="rgba(0, 0, 0, 0)" /></linearGradient><linearGradient gradientTransform="rotate(90)" id="h1"><stop offset="20%" stop-color="rgba(34,34,34,1)" /><stop offset="95%" stop-color="rgba(34,34,34,0)" /></linearGradient><linearGradient id="v1"><stop offset="20%" stop-color="rgba(34,34,34,1)" /><stop offset="95%" stop-color="rgba(34,34,34,0)" /></linearGradient><linearGradient gradientTransform="rotate(90)" id="h2"><stop offset="20%" stop-color="rgba(207,219,213,1)" /><stop offset="95%" stop-color="rgba(207,219,213,0)" /></linearGradient><linearGradient id="v2"><stop offset="20%" stop-color="rgba(207,219,213,1)" /><stop offset="95%" stop-color="rgba(207,219,213,0)" /></linearGradient><linearGradient gradientTransform="rotate(90)" id="h3"><stop offset="20%" stop-color="rgba(51,53,51,1)" /><stop offset="95%" stop-color="rgba(51,53,51,0)" /></linearGradient><linearGradient id="v3"><stop offset="20%" stop-color="rgba(51,53,51,1)" /><stop offset="95%" stop-color="rgba(51,53,51,0)" /></linearGradient><linearGradient gradientTransform="rotate(90)" id="h4"><stop offset="20%" stop-color="rgba(245,203,92,1)" /><stop offset="95%" stop-color="rgba(245,203,92,0)" /></linearGradient><linearGradient id="v4"><stop offset="20%" stop-color="rgba(245,203,92,1)" /><stop offset="95%" stop-color="rgba(245,203,92,0)" /></linearGradient><linearGradient gradientTransform="rotate(90)" id="h5"><stop offset="20%" stop-color="rgba(36,36,35,1)" /><stop offset="95%" stop-color="rgba(36,36,35,0)" /></linearGradient><linearGradient id="v5"><stop offset="20%" stop-color="rgba(36,36,35,1)" /><stop offset="95%" stop-color="rgba(36,36,35,0)" /></linearGradient><linearGradient gradientTransform="rotate(90)" id="h6"><stop offset="20%" stop-color="rgba(255,255,255,1)" /><stop offset="95%" stop-color="rgba(255,255,255,0)" /></linearGradient><linearGradient id="v6"><stop offset="20%" stop-color="rgba(255,255,255,1)" /><stop offset="95%" stop-color="rgba(255,255,255,0)" /></linearGradient><linearGradient gradientTransform="rotate(90)" id="h7"><stop offset="20%" stop-color="rgba(255,255,0,1)" /><stop offset="95%" stop-color="rgba(255,255,0,0)" /></linearGradient><linearGradient id="v7"><stop offset="20%" stop-color="rgba(255,255,0,1)" /><stop offset="95%" stop-color="rgba(255,255,0,0)" /></linearGradient></defs><g transform-origin="1500 1500" transform="scale(2)" opacity=".8"><g id="slashes"><g class="o"><path transform="translate(8,16)" class="S sf" d="M1386 1277 L1201 1092 L1201 1130 L1386 1315 Z"/><path class="f3" d="M1386 1277 L1201 1092 L1201 1130 L1386 1315 Z" /></g><g class="o"><path transform="translate(7,14)" class="S sfv" d="M1723 1372 L1426 1075 L1426 1111 L1723 1408 Z"/><path class="fv6" d="M1723 1372 L1426 1075 L1426 1111 L1723 1408 Z" /></g><g class="o"><path transform="translate(9,18)" class="S sfv" d="M1268 1674 L1082 1488 L1082 1506 L1268 1692 Z"/><path class="fv7" d="M1268 1674 L1082 1488 L1082 1506 L1268 1692 Z" /></g><g class="o"><path transform="translate(5,10)" class="S sfh" d="M1749 1785 L1655 1691 L1673 1691 L1767 1785 Z"/><path class="fh4" d="M1749 1785 L1655 1691 L1673 1691 L1767 1785 Z" /></g><g class="o"><path transform="translate(3,6)" class="S sf" d="M1049 1670 L1278 1899 L1278 1913 L1049 1684 Z"/><path class="f7" d="M1049 1670 L1278 1899 L1278 1913 L1049 1684 Z" /></g><g class="o"><path transform="translate(3,6)" class="S sfv" d="M1133 1187 L987 1041 L987 1069 L1133 1215 Z"/><path class="fv6" d="M1133 1187 L987 1041 L987 1069 L1133 1215 Z" /></g><g class="o"><path transform="translate(3,6)" class="S sf" d="M1419 1098 L1276 955 L1276 977 L1419 1120 Z"/><path class="f7" d="M1419 1098 L1276 955 L1276 977 L1419 1120 Z" /></g><g class="o"><path transform="translate(5,10)" class="S sfv" d="M1319 1795 L1128 1604 L1128 1638 L1319 1829 Z"/><path class="fv5" d="M1319 1795 L1128 1604 L1128 1638 L1319 1829 Z" /></g><g class="o"><path transform="translate(8,16)" class="S sfh" d="M958 2034 L751 1827 L779 1827 L986 2034 Z"/><path class="fh5" d="M958 2034 L751 1827 L779 1827 L986 2034 Z" /></g><g class="o"><path transform="translate(8,16)" class="S sfv" d="M1701 1840 L1766 1775 L1766 1811 L1701 1876 Z"/><path class="fv3" d="M1701 1840 L1766 1775 L1766 1811 L1701 1876 Z" /></g><g class="o"><path transform="translate(6,12)" class="S sf" d="M1393 1177 L1474 1258 L1474 1266 L1393 1185 Z"/><path class="f7" d="M1393 1177 L1474 1258 L1474 1266 L1393 1185 Z" /></g><g class="o"><path transform="translate(9,18)" class="S ssv" d="M1563 1240 L1733 1070 L1733 1106 L1563 1276 Z"/><path class="sv3" d="M1563 1240 L1733 1070 L1733 1106 L1563 1276 Z" /></g><g class="o"><path transform="translate(6,12)" class="S ssh" d="M1783 1130 L1914 1261 L1936 1261 L1805 1130 Z"/><path class="sh4" d="M1783 1130 L1914 1261 L1936 1261 L1805 1130 Z" /></g><g class="o"><path transform="translate(7,14)" class="S sfv" d="M1902 2013 L2063 2174 L2063 2186 L1902 2025 Z"/><path class="fv4" d="M1902 2013 L2063 2174 L2063 2186 L1902 2025 Z" /></g><g class="o"><path transform="translate(6,12)" class="S ssh" d="M1026 2036 L778 2284 L796 2284 L1044 2036 Z"/><path class="sh7" d="M1026 2036 L778 2284 L796 2284 L1044 2036 Z" /></g><g class="o"><path transform="translate(8,16)" class="S ssv" d="M1695 1790 L1451 1546 L1451 1578 L1695 1822 Z"/><path class="sv1" d="M1695 1790 L1451 1546 L1451 1578 L1695 1822 Z" /></g><g class="o"><path transform="translate(8,16)" class="S ssv" d="M1068 1510 L864 1714 L864 1726 L1068 1522 Z"/><path class="sv7" d="M1068 1510 L864 1714 L864 1726 L1068 1522 Z" /></g><g class="o"><path transform="translate(6,12)" class="S sfh" d="M1296 1172 L1818 650 L1830 650 L1308 1172 Z"/><path class="fh1" d="M1296 1172 L1818 650 L1830 650 L1308 1172 Z" /></g><g class="o"><path transform="translate(4,8)" class="S ssv" d="M1578 1046 L1384 852 L1384 884 L1578 1078 Z"/><path class="sv7" d="M1578 1046 L1384 852 L1384 884 L1578 1078 Z" /></g><g class="o"><path transform="translate(9,18)" class="S sf" d="M1965 1929 L2080 2044 L2106 2044 L1991 1929 Z"/><path class="f7" d="M1965 1929 L2080 2044 L2106 2044 L1991 1929 Z" /></g><g class="o"><path transform="translate(2,4)" class="S sfh" d="M1997 1263 L1847 1113 L1857 1113 L2007 1263 Z"/><path class="fh5" d="M1997 1263 L1847 1113 L1857 1113 L2007 1263 Z" /></g><g class="o"><path transform="translate(7,14)" class="S ssv" d="M1822 1656 L2012 1846 L2012 1876 L1822 1686 Z"/><path class="sv4" d="M1822 1656 L2012 1846 L2012 1876 L1822 1686 Z" /></g><g class="o"><path transform="translate(5,10)" class="S sfh" d="M2038 1115 L1300 377 L1312 377 L2050 1115 Z"/><path class="fh2" d="M2038 1115 L1300 377 L1312 377 L2050 1115 Z" /></g><g class="o"><path transform="translate(9,18)" class="S sf" d="M1054 1890 L913 2031 L913 2053 L1054 1912 Z"/><path class="f3" d="M1054 1890 L913 2031 L913 2053 L1054 1912 Z" /></g><g class="o"><path transform="translate(5,10)" class="S sfh" d="M1874 1555 L1764 1445 L1782 1445 L1892 1555 Z"/><path class="fh2" d="M1874 1555 L1764 1445 L1782 1445 L1892 1555 Z" /></g><g class="o"><path transform="translate(9,18)" class="S sfh" d="M1386 1270 L1147 1031 L1159 1031 L1398 1270 Z"/><path class="fh3" d="M1386 1270 L1147 1031 L1159 1031 L1398 1270 Z" /></g><g class="o"><path transform="translate(9,18)" class="S sfv" d="M1531 1533 L1382 1682 L1382 1716 L1531 1567 Z"/><path class="fv7" d="M1531 1533 L1382 1682 L1382 1716 L1531 1567 Z" /></g><g class="o"><path transform="translate(5,10)" class="S sfv" d="M1412 1612 L1599 1799 L1599 1823 L1412 1636 Z"/><path class="fv7" d="M1412 1612 L1599 1799 L1599 1823 L1412 1636 Z" /></g><g class="o"><path transform="translate(7,14)" class="S sfh" d="M1645 1036 L1836 845 L1866 845 L1675 1036 Z"/><path class="fh5" d="M1645 1036 L1836 845 L1866 845 L1675 1036 Z" /></g><g class="o"><path transform="translate(4,8)" class="S sfv" d="M1000 1267 L1204 1471 L1204 1483 L1000 1279 Z"/><path class="fv7" d="M1000 1267 L1204 1471 L1204 1483 L1000 1279 Z" /></g><g class="o"><path transform="translate(2,4)" class="S sfv" d="M1704 1666 L1242 1204 L1242 1236 L1704 1698 Z"/><path class="fv6" d="M1704 1666 L1242 1204 L1242 1236 L1704 1698 Z" /></g><g class="o"><path transform="translate(2,4)" class="S sfv" d="M1123 1709 L1346 1932 L1346 1956 L1123 1733 Z"/><path class="fv3" d="M1123 1709 L1346 1932 L1346 1956 L1123 1733 Z" /></g><g class="o"><path transform="translate(9,18)" class="S sfh" d="M1639 1267 L1468 1096 L1488 1096 L1659 1267 Z"/><path class="fh7" d="M1639 1267 L1468 1096 L1488 1096 L1659 1267 Z" /></g><g class="o"><path transform="translate(7,14)" class="S sfh" d="M1944 1119 L2144 919 L2158 919 L1958 1119 Z"/><path class="fh7" d="M1944 1119 L2144 919 L2158 919 L1958 1119 Z" /></g><g class="o"><path transform="translate(6,12)" class="S sfh" d="M1006 1520 L919 1433 L941 1433 L1028 1520 Z"/><path class="fh1" d="M1006 1520 L919 1433 L941 1433 L1028 1520 Z" /></g><g class="o"><path transform="translate(5,10)" class="S sf" d="M1583 1698 L1721 1836 L1721 1862 L1583 1724 Z"/><path class="f6" d="M1583 1698 L1721 1836 L1721 1862 L1583 1724 Z" /></g><g class="o"><path transform="translate(9,18)" class="S sfh" d="M1693 1082 L1444 833 L1468 833 L1717 1082 Z"/><path class="fh1" d="M1693 1082 L1444 833 L1468 833 L1717 1082 Z" /></g><g class="o"><path transform="translate(5,10)" class="S ss" d="M1058 1938 L1220 1776 L1220 1794 L1058 1956 Z"/><path class="s7" d="M1058 1938 L1220 1776 L1220 1794 L1058 1956 Z" /></g><g class="o"><path transform="translate(8,16)" class="S sfh" d="M1310 1388 L1405 1293 L1443 1293 L1348 1388 Z"/><path class="fh4" d="M1310 1388 L1405 1293 L1443 1293 L1348 1388 Z" /></g><g class="o"><path transform="translate(7,14)" class="S sfh" d="M1865 1273 L1624 1514 L1640 1514 L1881 1273 Z"/><path class="fh1" d="M1865 1273 L1624 1514 L1640 1514 L1881 1273 Z" /></g><g class="o"><path transform="translate(4,8)" class="S sfh" d="M939 1026 L808 1157 L842 1157 L973 1026 Z"/><path class="fh4" d="M939 1026 L808 1157 L842 1157 L973 1026 Z" /></g><g class="o"><path transform="translate(6,12)" class="S sfv" d="M1881 1282 L1675 1076 L1675 1106 L1881 1312 Z"/><path class="fv4" d="M1881 1282 L1675 1076 L1675 1106 L1881 1312 Z" /></g><g class="o"><path transform="translate(8,16)" class="S sf" d="M1589 1726 L1455 1592 L1463 1592 L1597 1726 Z"/><path class="f3" d="M1589 1726 L1455 1592 L1463 1592 L1597 1726 Z" /></g><g class="o"><path transform="translate(8,16)" class="S sfh" d="M1003 1517 L1142 1378 L1150 1378 L1011 1517 Z"/><path class="fh4" d="M1003 1517 L1142 1378 L1150 1378 L1011 1517 Z" /></g><g class="o"><path transform="translate(9,18)" class="S sfv" d="M1451 1695 L1599 1547 L1599 1559 L1451 1707 Z"/><path class="fv4" d="M1451 1695 L1599 1547 L1599 1559 L1451 1707 Z" /></g><g class="o"><path transform="translate(2,4)" class="S sfh" d="M1861 2007 L1983 1885 L2019 1885 L1897 2007 Z"/><path class="fh4" d="M1861 2007 L1983 1885 L2019 1885 L1897 2007 Z" /></g><g class="o"><path transform="translate(3,6)" class="S ssv" d="M1732 1372 L1649 1455 L1649 1483 L1732 1400 Z"/><path class="sv4" d="M1732 1372 L1649 1455 L1649 1483 L1732 1400 Z" /></g><g class="o"><path transform="translate(9,18)" class="S ss" d="M950 1381 L1136 1567 L1158 1567 L972 1381 Z"/><path class="s2" d="M950 1381 L1136 1567 L1158 1567 L972 1381 Z" /></g><g class="o"><path transform="translate(6,12)" class="S sfv" d="M1741 1703 L1521 1923 L1521 1945 L1741 1725 Z"/><path class="fv3" d="M1741 1703 L1521 1923 L1521 1945 L1741 1725 Z" /></g><g class="o"><path transform="translate(2,4)" class="S sfh" d="M1668 1176 L1143 651 L1163 651 L1688 1176 Z"/><path class="fh5" d="M1668 1176 L1143 651 L1163 651 L1688 1176 Z" /></g><g class="o"><path transform="translate(6,12)" class="S ssv" d="M1304 1767 L1412 1875 L1412 1887 L1304 1779 Z"/><path class="sv1" d="M1304 1767 L1412 1875 L1412 1887 L1304 1779 Z" /></g><g class="o"><path transform="translate(3,6)" class="S sfh" d="M1248 1764 L1422 1590 L1456 1590 L1282 1764 Z"/><path class="fh1" d="M1248 1764 L1422 1590 L1456 1590 L1282 1764 Z" /></g><g class="o"><path transform="translate(8,16)" class="S sfv" d="M1174 973 L1099 1048 L1099 1078 L1174 1003 Z"/><path class="fv7" d="M1174 973 L1099 1048 L1099 1078 L1174 1003 Z" /></g><g class="o"><path transform="translate(2,4)" class="S sfv" d="M1534 1009 L1308 1235 L1308 1245 L1534 1019 Z"/><path class="fv3" d="M1534 1009 L1308 1235 L1308 1245 L1534 1019 Z" /></g><g class="o"><path transform="translate(7,14)" class="S sfh" d="M2024 1097 L2312 809 L2350 809 L2062 1097 Z"/><path class="fh1" d="M2024 1097 L2312 809 L2350 809 L2062 1097 Z" /></g><g class="o"><path transform="translate(8,16)" class="S sf" d="M1231 1193 L1357 1319 L1357 1343 L1231 1217 Z"/><path class="f7" d="M1231 1193 L1357 1319 L1357 1343 L1231 1217 Z" /></g><g class="o"><path transform="translate(6,12)" class="S sfh" d="M1897 1625 L2335 2063 L2367 2063 L1929 1625 Z"/><path class="fh4" d="M1897 1625 L2335 2063 L2367 2063 L1929 1625 Z" /></g><g class="o"><path transform="translate(2,4)" class="S sfh" d="M1554 1862 L1334 2082 L1348 2082 L1568 1862 Z"/><path class="fh5" d="M1554 1862 L1334 2082 L1348 2082 L1568 1862 Z" /></g><g class="o"><path transform="translate(3,6)" class="S sf" d="M1069 1655 L1312 1898 L1312 1934 L1069 1691 Z"/><path class="f3" d="M1069 1655 L1312 1898 L1312 1934 L1069 1691 Z" /></g><g class="o"><path transform="translate(5,10)" class="S sfv" d="M995 1286 L1168 1113 L1168 1139 L995 1312 Z"/><path class="fv3" d="M995 1286 L1168 1113 L1168 1139 L995 1312 Z" /></g><g class="o"><path transform="translate(8,16)" class="S sfv" d="M1283 1630 L1634 1279 L1634 1315 L1283 1666 Z"/><path class="fv5" d="M1283 1630 L1634 1279 L1634 1315 L1283 1666 Z" /></g><g class="o"><path transform="translate(3,6)" class="S sfh" d="M1934 1193 L2117 1010 L2141 1010 L1958 1193 Z"/><path class="fh3" d="M1934 1193 L2117 1010 L2141 1010 L1958 1193 Z" /></g><g class="o"><path transform="translate(2,4)" class="S sfv" d="M1684 1452 L1633 1503 L1633 1523 L1684 1472 Z"/><path class="fv1" d="M1684 1452 L1633 1503 L1633 1523 L1684 1472 Z" /></g><g class="o"><path transform="translate(8,16)" class="S sfv" d="M1344 1223 L1100 979 L1100 1011 L1344 1255 Z"/><path class="fv7" d="M1344 1223 L1100 979 L1100 1011 L1344 1255 Z" /></g><g class="o"><path transform="translate(5,10)" class="S sfv" d="M1980 1082 L2175 1277 L2175 1307 L1980 1112 Z"/><path class="fv7" d="M1980 1082 L2175 1277 L2175 1307 L1980 1112 Z" /></g><g class="o"><path transform="translate(2,4)" class="S sfv" d="M1450 1586 L1550 1686 L1550 1700 L1450 1600 Z"/><path class="fv3" d="M1450 1586 L1550 1686 L1550 1700 L1450 1600 Z" /></g><g class="o"><path transform="translate(8,16)" class="S ssv" d="M1321 1398 L1517 1202 L1517 1216 L1321 1412 Z"/><path class="sv2" d="M1321 1398 L1517 1202 L1517 1216 L1321 1412 Z" /></g><g class="o"><path transform="translate(5,10)" class="S sfv" d="M1646 956 L2231 1541 L2231 1561 L1646 976 Z"/><path class="fv4" d="M1646 956 L2231 1541 L2231 1561 L1646 976 Z" /></g><g class="o"><path transform="translate(8,16)" class="S sf" d="M965 984 L1081 868 L1081 878 L965 994 Z"/><path class="f5" d="M965 984 L1081 868 L1081 878 L965 994 Z" /></g><g class="o"><path transform="translate(3,6)" class="S sfv" d="M1957 1105 L1768 916 L1768 942 L1957 1131 Z"/><path class="fv5" d="M1957 1105 L1768 916 L1768 942 L1957 1131 Z" /></g><g class="o"><path transform="translate(2,4)" class="S ssh" d="M1181 1403 L863 1721 L881 1721 L1199 1403 Z"/><path class="sh6" d="M1181 1403 L863 1721 L881 1721 L1199 1403 Z" /></g><g class="o"><path transform="translate(7,14)" class="S ss" d="M1966 1738 L1803 1575 L1803 1587 L1966 1750 Z"/><path class="s6" d="M1966 1738 L1803 1575 L1803 1587 L1966 1750 Z" /></g><g class="o"><path transform="translate(5,10)" class="S sfv" d="M1803 1791 L1917 1905 L1917 1937 L1803 1823 Z"/><path class="fv4" d="M1803 1791 L1917 1905 L1917 1937 L1803 1823 Z" /></g><g class="o"><path transform="translate(3,6)" class="S ssv" d="M1394 1698 L1588 1892 L1588 1928 L1394 1734 Z"/><path class="sv3" d="M1394 1698 L1588 1892 L1588 1928 L1394 1734 Z" /></g><g class="o"><path transform="translate(5,10)" class="S sfv" d="M976 1969 L912 2033 L912 2051 L976 1987 Z"/><path class="fv3" d="M976 1969 L912 2033 L912 2051 L976 1987 Z" /></g><g class="o"><path transform="translate(8,16)" class="S sfv" d="M1591 1330 L1748 1487 L1748 1505 L1591 1348 Z"/><path class="fv7" d="M1591 1330 L1748 1487 L1748 1505 L1591 1348 Z" /></g><g class="o"><path transform="translate(4,8)" class="S sfh" d="M1734 1035 L1968 1269 L2006 1269 L1772 1035 Z"/><path class="fh4" d="M1734 1035 L1968 1269 L2006 1269 L1772 1035 Z" /></g><g class="o"><path transform="translate(5,10)" class="S sfh" d="M1722 1124 L1916 1318 L1936 1318 L1742 1124 Z"/><path class="fh2" d="M1722 1124 L1916 1318 L1936 1318 L1742 1124 Z" /></g><g class="o"><path transform="translate(6,12)" class="S sfh" d="M1084 1607 L1250 1773 L1272 1773 L1106 1607 Z"/><path class="fh3" d="M1084 1607 L1250 1773 L1272 1773 L1106 1607 Z" /></g><g class="o"><path transform="translate(5,10)" class="S sfv" d="M1062 1522 L1117 1467 L1117 1491 L1062 1546 Z"/><path class="fv7" d="M1062 1522 L1117 1467 L1117 1491 L1062 1546 Z" /></g><g class="o"><path transform="translate(5,10)" class="S sf" d="M1596 1624 L2229 2257 L2253 2257 L1620 1624 Z"/><path class="f3" d="M1596 1624 L2229 2257 L2253 2257 L1620 1624 Z" /></g><g class="o"><path transform="translate(5,10)" class="S sfh" d="M1250 1149 L1310 1209 L1320 1209 L1260 1149 Z"/><path class="fh5" d="M1250 1149 L1310 1209 L1320 1209 L1260 1149 Z" /></g><g class="o"><path transform="translate(9,18)" class="S ssv" d="M1529 1767 L1584 1712 L1584 1750 L1529 1805 Z"/><path class="sv7" d="M1529 1767 L1584 1712 L1584 1750 L1529 1805 Z" /></g><g class="o"><path transform="translate(4,8)" class="S sfh" d="M1184 1932 L509 1257 L523 1257 L1198 1932 Z"/><path class="fh1" d="M1184 1932 L509 1257 L523 1257 L1198 1932 Z" /></g><g class="o"><path transform="translate(5,10)" class="S sfv" d="M1074 1978 L441 2611 L441 2627 L1074 1994 Z"/><path class="fv1" d="M1074 1978 L441 2611 L441 2627 L1074 1994 Z" /></g><g class="o"><path transform="translate(8,16)" class="S sfh" d="M1345 1735 L613 2467 L629 2467 L1361 1735 Z"/><path class="fh7" d="M1345 1735 L613 2467 L629 2467 L1361 1735 Z" /></g><g class="o"><path transform="translate(3,6)" class="S ssv" d="M1698 1496 L1850 1344 L1850 1376 L1698 1528 Z"/><path class="sv7" d="M1698 1496 L1850 1344 L1850 1376 L1698 1528 Z" /></g><g class="o"><path transform="translate(5,10)" class="S sfh" d="M1517 1691 L1220 1394 L1232 1394 L1529 1691 Z"/><path class="fh7" d="M1517 1691 L1220 1394 L1232 1394 L1529 1691 Z" /></g><g class="o"><path transform="translate(5,10)" class="S sf" d="M1361 1334 L1554 1141 L1554 1151 L1361 1344 Z"/><path class="f6" d="M1361 1334 L1554 1141 L1554 1151 L1361 1344 Z" /></g><g class="o"><path transform="translate(7,14)" class="S sfv" d="M1004 1351 L925 1430 L925 1444 L1004 1365 Z"/><path class="fv7" d="M1004 1351 L925 1430 L925 1444 L1004 1365 Z" /></g><g class="o"><path transform="translate(2,4)" class="S sfv" d="M1325 1135 L1241 1219 L1241 1243 L1325 1159 Z"/><path class="fv7" d="M1325 1135 L1241 1219 L1241 1243 L1325 1159 Z" /></g><g class="o"><path transform="translate(5,10)" class="S sfh" d="M1763 1111 L1674 1022 L1712 1022 L1801 1111 Z"/><path class="fh6" d="M1763 1111 L1674 1022 L1712 1022 L1801 1111 Z" /></g><g class="o"><path transform="translate(5,10)" class="S ssh" d="M1178 1251 L955 1474 L989 1474 L1212 1251 Z"/><path class="sh4" d="M1178 1251 L955 1474 L989 1474 L1212 1251 Z" /></g><g class="o"><path transform="translate(7,14)" class="S sfh" d="M1766 1330 L1892 1204 L1920 1204 L1794 1330 Z"/><path class="fh4" d="M1766 1330 L1892 1204 L1920 1204 L1794 1330 Z" /></g><g class="o"><path transform="translate(9,18)" class="S sfh" d="M1494 1388 L1440 1334 L1470 1334 L1524 1388 Z"/><path class="fh4" d="M1494 1388 L1440 1334 L1470 1334 L1524 1388 Z" /></g><g class="o"><path transform="translate(5,10)" class="S sfv" d="M1843 2041 L1186 2698 L1186 2714 L1843 2057 Z"/><path class="fv4" d="M1843 2041 L1186 2698 L1186 2714 L1843 2057 Z" /></g><g class="o"><path transform="translate(9,18)" class="S ssv" d="M1351 1404 L1438 1491 L1438 1513 L1351 1426 Z"/><path class="sv5" d="M1351 1404 L1438 1491 L1438 1513 L1351 1426 Z" /></g><g class="o"><path transform="translate(5,10)" class="S sfv" d="M1611 1497 L1408 1700 L1408 1720 L1611 1517 Z"/><path class="fv1" d="M1611 1497 L1408 1700 L1408 1720 L1611 1517 Z" /></g><g class="o"><path transform="translate(7,14)" class="S sfh" d="M1345 1447 L1075 1177 L1111 1177 L1381 1447 Z"/><path class="fh3" d="M1345 1447 L1075 1177 L1111 1177 L1381 1447 Z" /></g><g class="o"><path transform="translate(9,18)" class="S sfh" d="M1454 1249 L1605 1098 L1625 1098 L1474 1249 Z"/><path class="fh6" d="M1454 1249 L1605 1098 L1625 1098 L1474 1249 Z" /></g><g class="o"><path transform="translate(7,14)" class="S ss" d="M956 1698 L1189 1465 L1189 1475 L956 1708 Z"/><path class="s7" d="M956 1698 L1189 1465 L1189 1475 L956 1708 Z" /></g><g class="o"><path transform="translate(5,10)" class="S sfh" d="M1341 1194 L1399 1136 L1409 1136 L1351 1194 Z"/><path class="fh1" d="M1341 1194 L1399 1136 L1409 1136 L1351 1194 Z" /></g><g class="o"><path transform="translate(9,18)" class="S sfv" d="M1988 1848 L1832 2004 L1832 2018 L1988 1862 Z"/><path class="fv3" d="M1988 1848 L1832 2004 L1832 2018 L1988 1862 Z" /></g><g class="o"><path transform="translate(6,12)" class="S sfv" d="M1611 1643 L1538 1570 L1538 1594 L1611 1667 Z"/><path class="fv6" d="M1611 1643 L1538 1570 L1538 1594 L1611 1667 Z" /></g><g class="o"><path transform="translate(3,6)" class="S sfh" d="M1613 1801 L1451 1963 L1489 1963 L1651 1801 Z"/><path class="fh2" d="M1613 1801 L1451 1963 L1489 1963 L1651 1801 Z" /></g><g class="o"><path transform="translate(5,10)" class="S sfh" d="M1614 1169 L1041 1742 L1059 1742 L1632 1169 Z"/><path class="fh1" d="M1614 1169 L1041 1742 L1059 1742 L1632 1169 Z" /></g><g class="o"><path transform="translate(5,10)" class="S ssv" d="M1578 2002 L1353 2227 L1353 2251 L1578 2026 Z"/><path class="sv1" d="M1578 2002 L1353 2227 L1353 2251 L1578 2026 Z" /></g><g class="o"><path transform="translate(5,10)" class="S sfv" d="M1270 1558 L784 1072 L784 1098 L1270 1584 Z"/><path class="fv4" d="M1270 1558 L784 1072 L784 1098 L1270 1584 Z" /></g><g class="o"><path transform="translate(6,12)" class="S sfh" d="M1092 1535 L1330 1297 L1340 1297 L1102 1535 Z"/><path class="fh6" d="M1092 1535 L1330 1297 L1340 1297 L1102 1535 Z" /></g><g class="o"><path transform="translate(2,4)" class="S sfv" d="M1837 1560 L1902 1625 L1902 1657 L1837 1592 Z"/><path class="fv7" d="M1837 1560 L1902 1625 L1902 1657 L1837 1592 Z" /></g><g class="o"><path transform="translate(8,16)" class="S sfh" d="M951 2009 L740 2220 L778 2220 L989 2009 Z"/><path class="fh2" d="M951 2009 L740 2220 L778 2220 L989 2009 Z" /></g><g class="o"><path transform="translate(8,16)" class="S sfh" d="M1172 1511 L964 1303 L986 1303 L1194 1511 Z"/><path class="fh5" d="M1172 1511 L964 1303 L986 1303 L1194 1511 Z" /></g><g class="o"><path transform="translate(6,12)" class="S sf" d="M1993 1616 L1669 1940 L1679 1940 L2003 1616 Z"/><path class="f2" d="M1993 1616 L1669 1940 L1679 1940 L2003 1616 Z" /></g><g class="o"><path transform="translate(5,10)" class="S sfv" d="M1404 1079 L1698 785 L1698 793 L1404 1087 Z"/><path class="fv6" d="M1404 1079 L1698 785 L1698 793 L1404 1087 Z" /></g><g class="o"><path transform="translate(2,4)" class="S ssv" d="M1925 1774 L1770 1619 L1770 1631 L1925 1786 Z"/><path class="sv5" d="M1925 1774 L1770 1619 L1770 1631 L1925 1786 Z" /></g><g class="o"><path transform="translate(3,6)" class="S sfv" d="M1492 1685 L1275 1902 L1275 1938 L1492 1721 Z"/><path class="fv4" d="M1492 1685 L1275 1902 L1275 1938 L1492 1721 Z" /></g><g class="o"><path transform="translate(9,18)" class="S sfv" d="M1929 1195 L2054 1070 L2054 1104 L1929 1229 Z"/><path class="fv1" d="M1929 1195 L2054 1070 L2054 1104 L1929 1229 Z" /></g><g class="o"><path transform="translate(3,6)" class="S sfh" d="M1873 1465 L1964 1374 L1976 1374 L1885 1465 Z"/><path class="fh6" d="M1873 1465 L1964 1374 L1976 1374 L1885 1465 Z" /></g><g class="o"><path transform="translate(7,14)" class="S sfh" d="M1221 1751 L1431 1961 L1451 1961 L1241 1751 Z"/><path class="fh6" d="M1221 1751 L1431 1961 L1451 1961 L1241 1751 Z" /></g><g class="o"><path transform="translate(4,8)" class="S sfv" d="M1750 1479 L1860 1589 L1860 1597 L1750 1487 Z"/><path class="fv6" d="M1750 1479 L1860 1589 L1860 1597 L1750 1487 Z" /></g></g><use href="#slashes" transform-origin="1500 1500" transform="rotate(180) scale(2)"/></g><rect x="1080" y="1080" width="840" height="840" stroke-width="160" class="o s4" /><use href="#slashes" transform-origin="1500 1500" transform="scale(1.3)"/><use href="#slashes" transform-origin="1500 1500" transform="rotate(180) scale(.7)"/></svg>