<svg xmlns="http://www.w3.org/2000/svg" viewBox="750 750 1500 1500"><style>/*<![CDATA[*/svg{background:rgb(33,34,32);max-width:100vw;max-height:100vh}path{stroke-width:4}.o{opacity:.75}.S{opacity:.4}.sf{stroke:none;fill:black}.sfh{stroke:none;fill:url(#hs)}.sfv{stroke:none;fill:url(#vs)}.ss{stroke:black;fill:none}.ssh{stroke:url(#hs);fill:none}.ssv{stroke:url(#vs);fill:none}.s1{fill:none;stroke:rgb(151,21,31)}.f1{stroke:none;fill:rgb(151,21,31)}.sh1{fill:none;stroke:url(#h1)}.fh1{stroke:none;fill:url(#h1)}.sv1{fill:none;stroke:url(#v1)}.fv1{stroke:none;fill:url(#v1)}.s2{fill:none;stroke:rgb(23,108,106)}.f2{stroke:none;fill:rgb(23,108,106)}.sh2{fill:none;stroke:url(#h2)}.fh2{stroke:none;fill:url(#h2)}.sv2{fill:none;stroke:url(#v2)}.fv2{stroke:none;fill:url(#v2)}.s3{fill:none;stroke:rgb(1,59,68)}.f3{stroke:none;fill:rgb(1,59,68)}.sh3{fill:none;stroke:url(#h3)}.fh3{stroke:none;fill:url(#h3)}.sv3{fill:none;stroke:url(#v3)}.fv3{stroke:none;fill:url(#v3)}.s4{fill:none;stroke:rgb(34,34,34)}.f4{stroke:none;fill:rgb(34,34,34)}.sh4{fill:none;stroke:url(#h4)}.fh4{stroke:none;fill:url(#h4)}.sv4{fill:none;stroke:url(#v4)}.fv4{stroke:none;fill:url(#v4)}.s5{fill:none;stroke:rgb(223,229,229)}.f5{stroke:none;fill:rgb(223,229,229)}.sh5{fill:none;stroke:url(#h5)}.fh5{stroke:none;fill:url(#h5)}.sv5{fill:none;stroke:url(#v5)}.fv5{stroke:none;fill:url(#v5)}.s6{fill:none;stroke:rgb(255,255,255)}.f6{stroke:none;fill:rgb(255,255,255)}.sh6{fill:none;stroke:url(#h6)}.fh6{stroke:none;fill:url(#h6)}.sv6{fill:none;stroke:url(#v6)}.fv6{stroke:none;fill:url(#v6)}.s7{fill:none;stroke:rgb(255,0,0)}.f7{stroke:none;fill:rgb(255,0,0)}.sh7{fill:none;stroke:url(#h7)}.fh7{stroke:none;fill:url(#h7)}.sv7{fill:none;stroke:url(#v7)}.fv7{stroke:none;fill:url(#v7)}/*]]>*/</style><defs><linearGradient gradientTransform="rotate(90)" id="hs"><stop offset="20%" stop-color="#000" /><stop offset="95%" stop-color="rgba(0, 0, 0, 0)" /></linearGradient><linearGradient id="vs"><stop offset="20%" stop-color="#000" /><stop offset="95%" stop-color="rgba(0, 0, 0, 0)" /></linearGradient><linearGradient gradientTransform="rotate(90)" id="h1"><stop offset="20%" stop-color="rgba(151,21,31,1)" /><stop offset="95%" stop-color="rgba(151,21,31,0)" /></linearGradient><linearGradient id="v1"><stop offset="20%" stop-color="rgba(151,21,31,1)" /><stop offset="95%" stop-color="rgba(151,21,31,0)" /></linearGradient><linearGradient gradientTransform="rotate(90)" id="h2"><stop offset="20%" stop-color="rgba(23,108,106,1)" /><stop offset="95%" stop-color="rgba(23,108,106,0)" /></linearGradient><linearGradient id="v2"><stop offset="20%" stop-color="rgba(23,108,106,1)" /><stop offset="95%" stop-color="rgba(23,108,106,0)" /></linearGradient><linearGradient gradientTransform="rotate(90)" id="h3"><stop offset="20%" stop-color="rgba(1,59,68,1)" /><stop offset="95%" stop-color="rgba(1,59,68,0)" /></linearGradient><linearGradient id="v3"><stop offset="20%" stop-color="rgba(1,59,68,1)" /><stop offset="95%" stop-color="rgba(1,59,68,0)" /></linearGradient><linearGradient gradientTransform="rotate(90)" id="h4"><stop offset="20%" stop-color="rgba(34,34,34,1)" /><stop offset="95%" stop-color="rgba(34,34,34,0)" /></linearGradient><linearGradient id="v4"><stop offset="20%" stop-color="rgba(34,34,34,1)" /><stop offset="95%" stop-color="rgba(34,34,34,0)" /></linearGradient><linearGradient gradientTransform="rotate(90)" id="h5"><stop offset="20%" stop-color="rgba(223,229,229,1)" /><stop offset="95%" stop-color="rgba(223,229,229,0)" /></linearGradient><linearGradient id="v5"><stop offset="20%" stop-color="rgba(223,229,229,1)" /><stop offset="95%" stop-color="rgba(223,229,229,0)" /></linearGradient><linearGradient gradientTransform="rotate(90)" id="h6"><stop offset="20%" stop-color="rgba(255,255,255,1)" /><stop offset="95%" stop-color="rgba(255,255,255,0)" /></linearGradient><linearGradient id="v6"><stop offset="20%" stop-color="rgba(255,255,255,1)" /><stop offset="95%" stop-color="rgba(255,255,255,0)" /></linearGradient><linearGradient gradientTransform="rotate(90)" id="h7"><stop offset="20%" stop-color="rgba(255,0,0,1)" /><stop offset="95%" stop-color="rgba(255,0,0,0)" /></linearGradient><linearGradient id="v7"><stop offset="20%" stop-color="rgba(255,0,0,1)" /><stop offset="95%" stop-color="rgba(255,0,0,0)" /></linearGradient></defs><g transform-origin="1500 1500" transform="scale(2)" opacity=".2"><g id="slashes"><g class="o"><path transform="translate(6,12)" class="S ssh" d="M1505 1562 L1835 1232 L1849 1232 L1519 1562 Z"/><path class="sh3" d="M1505 1562 L1835 1232 L1849 1232 L1519 1562 Z" /></g><g class="o"><path transform="translate(9,18)" class="S sfh" d="M1483 1345 L1280 1142 L1316 1142 L1519 1345 Z"/><path class="fh7" d="M1483 1345 L1280 1142 L1316 1142 L1519 1345 Z" /></g><g class="o"><path transform="translate(9,18)" class="S sfh" d="M1033 1805 L1199 1971 L1231 1971 L1065 1805 Z"/><path class="fh7" d="M1033 1805 L1199 1971 L1231 1971 L1065 1805 Z" /></g><g class="o"><path transform="translate(8,16)" class="S sfh" d="M1268 1878 L1033 2113 L1041 2113 L1276 1878 Z"/><path class="fh4" d="M1268 1878 L1033 2113 L1041 2113 L1276 1878 Z" /></g><g class="o"><path transform="translate(2,4)" class="S ssh" d="M1718 1145 L1833 1260 L1849 1260 L1734 1145 Z"/><path class="sh4" d="M1718 1145 L1833 1260 L1849 1260 L1734 1145 Z" /></g><g class="o"><path transform="translate(6,12)" class="S sfh" d="M1021 1470 L1146 1345 L1162 1345 L1037 1470 Z"/><path class="fh2" d="M1021 1470 L1146 1345 L1162 1345 L1037 1470 Z" /></g><g class="o"><path transform="translate(5,10)" class="S sfh" d="M1643 2033 L1820 1856 L1844 1856 L1667 2033 Z"/><path class="fh1" d="M1643 2033 L1820 1856 L1844 1856 L1667 2033 Z" /></g><g class="o"><path transform="translate(8,16)" class="S sfv" d="M1153 1616 L1849 2312 L1849 2350 L1153 1654 Z"/><path class="fv1" d="M1153 1616 L1849 2312 L1849 2350 L1153 1654 Z" /></g><g class="o"><path transform="translate(7,14)" class="S sfv" d="M1855 1094 L2006 943 L2006 967 L1855 1118 Z"/><path class="fv6" d="M1855 1094 L2006 943 L2006 967 L1855 1118 Z" /></g><g class="o"><path transform="translate(5,10)" class="S ssh" d="M1400 1306 L1619 1525 L1647 1525 L1428 1306 Z"/><path class="sh1" d="M1400 1306 L1619 1525 L1647 1525 L1428 1306 Z" /></g><g class="o"><path transform="translate(4,8)" class="S sfh" d="M1079 973 L1221 1115 L1253 1115 L1111 973 Z"/><path class="fh3" d="M1079 973 L1221 1115 L1253 1115 L1111 973 Z" /></g><g class="o"><path transform="translate(7,14)" class="S sfv" d="M950 1745 L781 1914 L781 1930 L950 1761 Z"/><path class="fv3" d="M950 1745 L781 1914 L781 1930 L950 1761 Z" /></g><g class="o"><path transform="translate(5,10)" class="S sfh" d="M1252 1560 L1470 1778 L1488 1778 L1270 1560 Z"/><path class="fh4" d="M1252 1560 L1470 1778 L1488 1778 L1270 1560 Z" /></g><g class="o"><path transform="translate(3,6)" class="S sfv" d="M1930 1731 L1396 2265 L1396 2299 L1930 1765 Z"/><path class="fv7" d="M1930 1731 L1396 2265 L1396 2299 L1930 1765 Z" /></g><g class="o"><path transform="translate(7,14)" class="S sfh" d="M1205 1642 L1403 1840 L1555 1840 L1357 1642 Z"/><path class="fh6" d="M1205 1642 L1403 1840 L1555 1840 L1357 1642 Z" /></g><g class="o"><path transform="translate(5,10)" class="S sfh" d="M1471 1881 L1084 1494 L1108 1494 L1495 1881 Z"/><path class="fh1" d="M1471 1881 L1084 1494 L1108 1494 L1495 1881 Z" /></g><g class="o"><path transform="translate(7,14)" class="S sfv" d="M1246 1338 L1326 1418 L1326 1440 L1246 1360 Z"/><path class="fv7" d="M1246 1338 L1326 1418 L1326 1440 L1246 1360 Z" /></g><g class="o"><path transform="translate(3,6)" class="S ssh" d="M1500 1813 L2163 1150 L2195 1150 L1532 1813 Z"/><path class="sh7" d="M1500 1813 L2163 1150 L2195 1150 L1532 1813 Z" /></g><g class="o"><path transform="translate(2,4)" class="S sfh" d="M1317 1190 L1094 967 L1116 967 L1339 1190 Z"/><path class="fh6" d="M1317 1190 L1094 967 L1116 967 L1339 1190 Z" /></g><g class="o"><path transform="translate(9,18)" class="S sfh" d="M1071 1507 L899 1335 L907 1335 L1079 1507 Z"/><path class="fh2" d="M1071 1507 L899 1335 L907 1335 L1079 1507 Z" /></g><g class="o"><path transform="translate(6,12)" class="S ssh" d="M1332 1252 L1198 1118 L1210 1118 L1344 1252 Z"/><path class="sh4" d="M1332 1252 L1198 1118 L1210 1118 L1344 1252 Z" /></g><g class="o"><path transform="translate(9,18)" class="S ssv" d="M1682 1946 L1539 2089 L1539 2127 L1682 1984 Z"/><path class="sv4" d="M1682 1946 L1539 2089 L1539 2127 L1682 1984 Z" /></g><g class="o"><path transform="translate(6,12)" class="S sfv" d="M1324 1597 L1201 1720 L1201 1728 L1324 1605 Z"/><path class="fv6" d="M1324 1597 L1201 1720 L1201 1728 L1324 1605 Z" /></g><g class="o"><path transform="translate(4,8)" class="S sfv" d="M1650 1973 L1473 2150 L1473 2182 L1650 2005 Z"/><path class="fv3" d="M1650 1973 L1473 2150 L1473 2182 L1650 2005 Z" /></g><g class="o"><path transform="translate(5,10)" class="S ssv" d="M1834 979 L2545 268 L2545 302 L1834 1013 Z"/><path class="sv1" d="M1834 979 L2545 268 L2545 302 L1834 1013 Z" /></g><g class="o"><path transform="translate(5,10)" class="S sfh" d="M1619 1514 L1512 1407 L1546 1407 L1653 1514 Z"/><path class="fh3" d="M1619 1514 L1512 1407 L1546 1407 L1653 1514 Z" /></g><g class="o"><path transform="translate(9,18)" class="S sfh" d="M1533 1858 L1260 1585 L1288 1585 L1561 1858 Z"/><path class="fh5" d="M1533 1858 L1260 1585 L1288 1585 L1561 1858 Z" /></g><g class="o"><path transform="translate(3,6)" class="S sfh" d="M1067 1573 L846 1352 L990 1352 L1211 1573 Z"/><path class="fh7" d="M1067 1573 L846 1352 L990 1352 L1211 1573 Z" /></g><g class="o"><path transform="translate(6,12)" class="S ssv" d="M2047 1169 L2206 1010 L2206 1024 L2047 1183 Z"/><path class="sv1" d="M2047 1169 L2206 1010 L2206 1024 L2047 1183 Z" /></g><g class="o"><path transform="translate(9,18)" class="S sfv" d="M1992 1954 L2268 2230 L2268 2252 L1992 1976 Z"/><path class="fv5" d="M1992 1954 L2268 2230 L2268 2252 L1992 1976 Z" /></g><g class="o"><path transform="translate(4,8)" class="S ssh" d="M984 1646 L1180 1842 L1212 1842 L1016 1646 Z"/><path class="sh2" d="M984 1646 L1180 1842 L1212 1842 L1016 1646 Z" /></g><g class="o"><path transform="translate(3,6)" class="S sfv" d="M1978 1621 L2121 1478 L2121 1512 L1978 1655 Z"/><path class="fv4" d="M1978 1621 L2121 1478 L2121 1512 L1978 1655 Z" /></g><g class="o"><path transform="translate(8,16)" class="S sfv" d="M1059 1352 L1716 695 L1716 727 L1059 1384 Z"/><path class="fv6" d="M1059 1352 L1716 695 L1716 727 L1059 1384 Z" /></g><g class="o"><path transform="translate(3,6)" class="S sfh" d="M1494 1705 L1276 1487 L1296 1487 L1514 1705 Z"/><path class="fh4" d="M1494 1705 L1276 1487 L1296 1487 L1514 1705 Z" /></g><g class="o"><path transform="translate(7,14)" class="S ssh" d="M1971 1553 L2156 1738 L2174 1738 L1989 1553 Z"/><path class="sh6" d="M1971 1553 L2156 1738 L2174 1738 L1989 1553 Z" /></g><g class="o"><path transform="translate(7,14)" class="S sfv" d="M993 1620 L1175 1802 L1175 1836 L993 1654 Z"/><path class="fv1" d="M993 1620 L1175 1802 L1175 1836 L993 1654 Z" /></g><g class="o"><path transform="translate(9,18)" class="S sfv" d="M1984 1397 L2097 1284 L2097 1296 L1984 1409 Z"/><path class="fv6" d="M1984 1397 L2097 1284 L2097 1296 L1984 1409 Z" /></g><g class="o"><path transform="translate(8,16)" class="S sfh" d="M1103 1877 L1029 1951 L1043 1951 L1117 1877 Z"/><path class="fh7" d="M1103 1877 L1029 1951 L1043 1951 L1117 1877 Z" /></g><g class="o"><path transform="translate(4,8)" class="S ssv" d="M1038 1055 L803 820 L803 854 L1038 1089 Z"/><path class="sv1" d="M1038 1055 L803 820 L803 854 L1038 1089 Z" /></g><g class="o"><path transform="translate(5,10)" class="S sfv" d="M2025 1414 L1908 1297 L1908 1313 L2025 1430 Z"/><path class="fv2" d="M2025 1414 L1908 1297 L1908 1313 L2025 1430 Z" /></g><g class="o"><path transform="translate(9,18)" class="S sfv" d="M1620 1586 L1757 1449 L1757 1461 L1620 1598 Z"/><path class="fv2" d="M1620 1586 L1757 1449 L1757 1461 L1620 1598 Z" /></g><g class="o"><path transform="translate(3,6)" class="S sfv" d="M1869 1197 L1760 1306 L1760 1316 L1869 1207 Z"/><path class="fv7" d="M1869 1197 L1760 1306 L1760 1316 L1869 1207 Z" /></g><g class="o"><path transform="translate(7,14)" class="S sfv" d="M1320 1896 L1568 2144 L1568 2158 L1320 1910 Z"/><path class="fv5" d="M1320 1896 L1568 2144 L1568 2158 L1320 1910 Z" /></g><g class="o"><path transform="translate(7,14)" class="S sfv" d="M1952 1314 L2078 1188 L2078 1198 L1952 1324 Z"/><path class="fv5" d="M1952 1314 L2078 1188 L2078 1198 L1952 1324 Z" /></g><g class="o"><path transform="translate(3,6)" class="S sfv" d="M1630 1174 L1851 953 L1851 963 L1630 1184 Z"/><path class="fv7" d="M1630 1174 L1851 953 L1851 963 L1630 1184 Z" /></g><g class="o"><path transform="translate(7,14)" class="S sfh" d="M1440 2017 L1356 2101 L1386 2101 L1470 2017 Z"/><path class="fh3" d="M1440 2017 L1356 2101 L1386 2101 L1470 2017 Z" /></g><g class="o"><path transform="translate(4,8)" class="S sfh" d="M1128 1327 L1182 1273 L1214 1273 L1160 1327 Z"/><path class="fh5" d="M1128 1327 L1182 1273 L1214 1273 L1160 1327 Z" /></g><g class="o"><path transform="translate(5,10)" class="S sfv" d="M1550 1160 L1491 1101 L1491 1125 L1550 1184 Z"/><path class="fv4" d="M1550 1160 L1491 1101 L1491 1125 L1550 1184 Z" /></g><g class="o"><path transform="translate(2,4)" class="S sfh" d="M1844 1581 L2026 1763 L2052 1763 L1870 1581 Z"/><path class="fh2" d="M1844 1581 L2026 1763 L2052 1763 L1870 1581 Z" /></g><g class="o"><path transform="translate(8,16)" class="S sfh" d="M978 1930 L1123 2075 L1243 2075 L1098 1930 Z"/><path class="fh4" d="M978 1930 L1123 2075 L1243 2075 L1098 1930 Z" /></g><g class="o"><path transform="translate(7,14)" class="S sfh" d="M1588 1129 L1664 1205 L1688 1205 L1612 1129 Z"/><path class="fh5" d="M1588 1129 L1664 1205 L1688 1205 L1612 1129 Z" /></g><g class="o"><path transform="translate(6,12)" class="S sfh" d="M1727 1315 L1844 1432 L1858 1432 L1741 1315 Z"/><path class="fh7" d="M1727 1315 L1844 1432 L1858 1432 L1741 1315 Z" /></g><g class="o"><path transform="translate(4,8)" class="S sfv" d="M1293 1739 L1146 1886 L1146 1894 L1293 1747 Z"/><path class="fv1" d="M1293 1739 L1146 1886 L1146 1894 L1293 1747 Z" /></g><g class="o"><path transform="translate(5,10)" class="S sfh" d="M1995 1157 L2180 1342 L2206 1342 L2021 1157 Z"/><path class="fh3" d="M1995 1157 L2180 1342 L2206 1342 L2021 1157 Z" /></g><g class="o"><path transform="translate(9,18)" class="S sfh" d="M1696 1579 L1876 1759 L1892 1759 L1712 1579 Z"/><path class="fh4" d="M1696 1579 L1876 1759 L1892 1759 L1712 1579 Z" /></g><g class="o"><path transform="translate(5,10)" class="S sfv" d="M1450 1967 L1692 1725 L1692 1763 L1450 2005 Z"/><path class="fv5" d="M1450 1967 L1692 1725 L1692 1763 L1450 2005 Z" /></g><g class="o"><path transform="translate(9,18)" class="S sfh" d="M1504 2001 L2194 2691 L2228 2691 L1538 2001 Z"/><path class="fh4" d="M1504 2001 L2194 2691 L2228 2691 L1538 2001 Z" /></g><g class="o"><path transform="translate(8,16)" class="S sfh" d="M1132 1145 L1295 1308 L1307 1308 L1144 1145 Z"/><path class="fh7" d="M1132 1145 L1295 1308 L1307 1308 L1144 1145 Z" /></g><g class="o"><path transform="translate(9,18)" class="S sfh" d="M1628 1550 L2369 2291 L2381 2291 L1640 1550 Z"/><path class="fh3" d="M1628 1550 L2369 2291 L2381 2291 L1640 1550 Z" /></g><g class="o"><path transform="translate(7,14)" class="S sfh" d="M1932 2037 L1798 2171 L1818 2171 L1952 2037 Z"/><path class="fh1" d="M1932 2037 L1798 2171 L1818 2171 L1952 2037 Z" /></g><g class="o"><path transform="translate(3,6)" class="S sfh" d="M1727 979 L1555 1151 L1587 1151 L1759 979 Z"/><path class="fh4" d="M1727 979 L1555 1151 L1587 1151 L1759 979 Z" /></g><g class="o"><path transform="translate(9,18)" class="S sfv" d="M1490 1913 L1647 1756 L1647 1778 L1490 1935 Z"/><path class="fv7" d="M1490 1913 L1647 1756 L1647 1778 L1490 1935 Z" /></g><g class="o"><path transform="translate(9,18)" class="S sfh" d="M1929 1908 L1731 1710 L1795 1710 L1993 1908 Z"/><path class="fh2" d="M1929 1908 L1731 1710 L1795 1710 L1993 1908 Z" /></g><g class="o"><path transform="translate(2,4)" class="S sfv" d="M1950 1439 L2020 1369 L2020 1395 L1950 1465 Z"/><path class="fv2" d="M1950 1439 L2020 1369 L2020 1395 L1950 1465 Z" /></g><g class="o"><path transform="translate(3,6)" class="S sfv" d="M1171 2023 L1591 2443 L1591 2471 L1171 2051 Z"/><path class="fv2" d="M1171 2023 L1591 2443 L1591 2471 L1171 2051 Z" /></g><g class="o"><path transform="translate(5,10)" class="S sfh" d="M1012 1580 L1175 1743 L1199 1743 L1036 1580 Z"/><path class="fh4" d="M1012 1580 L1175 1743 L1199 1743 L1036 1580 Z" /></g><g class="o"><path transform="translate(7,14)" class="S sfh" d="M1017 1515 L1259 1757 L1277 1757 L1035 1515 Z"/><path class="fh1" d="M1017 1515 L1259 1757 L1277 1757 L1035 1515 Z" /></g><g class="o"><path transform="translate(5,10)" class="S sfh" d="M1438 1190 L1578 1330 L1586 1330 L1446 1190 Z"/><path class="fh7" d="M1438 1190 L1578 1330 L1586 1330 L1446 1190 Z" /></g><g class="o"><path transform="translate(8,16)" class="S sfh" d="M1865 1751 L1674 1942 L1686 1942 L1877 1751 Z"/><path class="fh6" d="M1865 1751 L1674 1942 L1686 1942 L1877 1751 Z" /></g><g class="o"><path transform="translate(2,4)" class="S sfv" d="M1098 1849 L1048 1899 L1048 1911 L1098 1861 Z"/><path class="fv1" d="M1098 1849 L1048 1899 L1048 1911 L1098 1861 Z" /></g><g class="o"><path transform="translate(2,4)" class="S sfv" d="M1856 1892 L1617 1653 L1617 1689 L1856 1928 Z"/><path class="fv6" d="M1856 1892 L1617 1653 L1617 1689 L1856 1928 Z" /></g><g class="o"><path transform="translate(8,16)" class="S sfh" d="M958 1758 L1285 1431 L1437 1431 L1110 1758 Z"/><path class="fh3" d="M958 1758 L1285 1431 L1437 1431 L1110 1758 Z" /></g><g class="o"><path transform="translate(4,8)" class="S sfh" d="M1506 1097 L1818 1409 L1828 1409 L1516 1097 Z"/><path class="fh5" d="M1506 1097 L1818 1409 L1828 1409 L1516 1097 Z" /></g><g class="o"><path transform="translate(7,14)" class="S sfv" d="M2047 1813 L1783 1549 L1783 1583 L2047 1847 Z"/><path class="fv3" d="M2047 1813 L1783 1549 L1783 1583 L2047 1847 Z" /></g><g class="o"><path transform="translate(5,10)" class="S ssh" d="M1980 1696 L2124 1840 L2134 1840 L1990 1696 Z"/><path class="sh1" d="M1980 1696 L2124 1840 L2134 1840 L1990 1696 Z" /></g><g class="o"><path transform="translate(9,18)" class="S sfv" d="M1910 1018 L2131 1239 L2131 1277 L1910 1056 Z"/><path class="fv3" d="M1910 1018 L2131 1239 L2131 1277 L1910 1056 Z" /></g><g class="o"><path transform="translate(8,16)" class="S sfv" d="M1412 1738 L1478 1804 L1478 1868 L1412 1802 Z"/><path class="fv7" d="M1412 1738 L1478 1804 L1478 1868 L1412 1802 Z" /></g><g class="o"><path transform="translate(5,10)" class="S sfv" d="M1118 1405 L1033 1490 L1033 1500 L1118 1415 Z"/><path class="fv7" d="M1118 1405 L1033 1490 L1033 1500 L1118 1415 Z" /></g><g class="o"><path transform="translate(5,10)" class="S sfv" d="M1809 1945 L1892 2028 L1892 2044 L1809 1961 Z"/><path class="fv7" d="M1809 1945 L1892 2028 L1892 2044 L1809 1961 Z" /></g><g class="o"><path transform="translate(3,6)" class="S ssh" d="M1174 1794 L1372 1596 L1384 1596 L1186 1794 Z"/><path class="sh5" d="M1174 1794 L1372 1596 L1384 1596 L1186 1794 Z" /></g><g class="o"><path transform="translate(2,4)" class="S sfv" d="M1818 1828 L1895 1905 L1895 2025 L1818 1948 Z"/><path class="fv4" d="M1818 1828 L1895 1905 L1895 2025 L1818 1948 Z" /></g><g class="o"><path transform="translate(2,4)" class="S sfv" d="M1675 1484 L1441 1718 L1441 1752 L1675 1518 Z"/><path class="fv4" d="M1675 1484 L1441 1718 L1441 1752 L1675 1518 Z" /></g><g class="o"><path transform="translate(5,10)" class="S sfv" d="M1224 1117 L1053 946 L1053 980 L1224 1151 Z"/><path class="fv7" d="M1224 1117 L1053 946 L1053 980 L1224 1151 Z" /></g><g class="o"><path transform="translate(6,12)" class="S sfv" d="M1940 997 L1643 1294 L1643 1318 L1940 1021 Z"/><path class="fv1" d="M1940 997 L1643 1294 L1643 1318 L1940 1021 Z" /></g><g class="o"><path transform="translate(3,6)" class="S ssv" d="M1628 1415 L1457 1586 L1457 1606 L1628 1435 Z"/><path class="sv7" d="M1628 1415 L1457 1586 L1457 1606 L1628 1435 Z" /></g><g class="o"><path transform="translate(6,12)" class="S sfv" d="M1477 1536 L1550 1463 L1550 1473 L1477 1546 Z"/><path class="fv3" d="M1477 1536 L1550 1463 L1550 1473 L1477 1546 Z" /></g><g class="o"><path transform="translate(4,8)" class="S sfv" d="M1302 1355 L1079 1132 L1079 1150 L1302 1373 Z"/><path class="fv5" d="M1302 1355 L1079 1132 L1079 1150 L1302 1373 Z" /></g><g class="o"><path transform="translate(5,10)" class="S ssv" d="M1621 1665 L1419 1463 L1419 1479 L1621 1681 Z"/><path class="sv2" d="M1621 1665 L1419 1463 L1419 1479 L1621 1681 Z" /></g><g class="o"><path transform="translate(8,16)" class="S sfv" d="M1196 1965 L1490 1671 L1490 1699 L1196 1993 Z"/><path class="fv5" d="M1196 1965 L1490 1671 L1490 1699 L1196 1993 Z" /></g><g class="o"><path transform="translate(4,8)" class="S sfh" d="M1540 1595 L1672 1727 L1688 1727 L1556 1595 Z"/><path class="fh6" d="M1540 1595 L1672 1727 L1688 1727 L1556 1595 Z" /></g><g class="o"><path transform="translate(7,14)" class="S ssv" d="M1991 949 L1903 861 L1903 899 L1991 987 Z"/><path class="sv4" d="M1991 949 L1903 861 L1903 899 L1991 987 Z" /></g><g class="o"><path transform="translate(7,14)" class="S sfv" d="M1596 1508 L1519 1585 L1519 1613 L1596 1536 Z"/><path class="fv5" d="M1596 1508 L1519 1585 L1519 1613 L1596 1536 Z" /></g><g class="o"><path transform="translate(4,8)" class="S ssv" d="M1556 1458 L1163 1065 L1163 1075 L1556 1468 Z"/><path class="sv1" d="M1556 1458 L1163 1065 L1163 1075 L1556 1468 Z" /></g><g class="o"><path transform="translate(4,8)" class="S sfv" d="M1149 1776 L963 1590 L963 1600 L1149 1786 Z"/><path class="fv6" d="M1149 1776 L963 1590 L963 1600 L1149 1786 Z" /></g><g class="o"><path transform="translate(3,6)" class="S sfh" d="M1147 1608 L975 1780 L1001 1780 L1173 1608 Z"/><path class="fh2" d="M1147 1608 L975 1780 L1001 1780 L1173 1608 Z" /></g><g class="o"><path transform="translate(7,14)" class="S ssh" d="M1143 1063 L1794 1714 L1812 1714 L1161 1063 Z"/><path class="sh4" d="M1143 1063 L1794 1714 L1812 1714 L1161 1063 Z" /></g><g class="o"><path transform="translate(2,4)" class="S ssv" d="M1247 1606 L1046 1405 L1046 1417 L1247 1618 Z"/><path class="sv7" d="M1247 1606 L1046 1405 L1046 1417 L1247 1618 Z" /></g><g class="o"><path transform="translate(8,16)" class="S sfv" d="M1149 1784 L1025 1660 L1025 1732 L1149 1856 Z"/><path class="fv4" d="M1149 1784 L1025 1660 L1025 1732 L1149 1856 Z" /></g><g class="o"><path transform="translate(5,10)" class="S sfh" d="M1462 1770 L1585 1893 L1615 1893 L1492 1770 Z"/><path class="fh5" d="M1462 1770 L1585 1893 L1615 1893 L1492 1770 Z" /></g><g class="o"><path transform="translate(6,12)" class="S sfh" d="M1271 1314 L1059 1526 L1085 1526 L1297 1314 Z"/><path class="fh1" d="M1271 1314 L1059 1526 L1085 1526 L1297 1314 Z" /></g><g class="o"><path transform="translate(4,8)" class="S sfv" d="M1451 1038 L1586 1173 L1586 1199 L1451 1064 Z"/><path class="fv5" d="M1451 1038 L1586 1173 L1586 1199 L1451 1064 Z" /></g><g class="o"><path transform="translate(9,18)" class="S sfh" d="M973 1481 L802 1652 L818 1652 L989 1481 Z"/><path class="fh3" d="M973 1481 L802 1652 L818 1652 L989 1481 Z" /></g><g class="o"><path transform="translate(8,16)" class="S sfh" d="M1775 1633 L1603 1461 L1637 1461 L1809 1633 Z"/><path class="fh1" d="M1775 1633 L1603 1461 L1637 1461 L1809 1633 Z" /></g><g class="o"><path transform="translate(3,6)" class="S ssh" d="M1467 1974 L1218 1725 L1254 1725 L1503 1974 Z"/><path class="sh7" d="M1467 1974 L1218 1725 L1254 1725 L1503 1974 Z" /></g><g class="o"><path transform="translate(8,16)" class="S sfh" d="M1938 1077 L2559 1698 L2569 1698 L1948 1077 Z"/><path class="fh3" d="M1938 1077 L2559 1698 L2569 1698 L1948 1077 Z" /></g><g class="o"><path transform="translate(8,16)" class="S sfh" d="M1195 1391 L721 917 L759 917 L1233 1391 Z"/><path class="fh1" d="M1195 1391 L721 917 L759 917 L1233 1391 Z" /></g><g class="o"><path transform="translate(2,4)" class="S sfh" d="M1754 1816 L1804 1766 L1818 1766 L1768 1816 Z"/><path class="fh2" d="M1754 1816 L1804 1766 L1818 1766 L1768 1816 Z" /></g><g class="o"><path transform="translate(6,12)" class="S sfv" d="M1914 1733 L1973 1674 L1973 1706 L1914 1765 Z"/><path class="fv7" d="M1914 1733 L1973 1674 L1973 1706 L1914 1765 Z" /></g><g class="o"><path transform="translate(3,6)" class="S sfv" d="M1126 1770 L1236 1880 L1236 1896 L1126 1786 Z"/><path class="fv5" d="M1126 1770 L1236 1880 L1236 1896 L1126 1786 Z" /></g><g class="o"><path transform="translate(9,18)" class="S sfv" d="M1461 1722 L1535 1796 L1535 1808 L1461 1734 Z"/><path class="fv6" d="M1461 1722 L1535 1796 L1535 1808 L1461 1734 Z" /></g><g class="o"><path transform="translate(9,18)" class="S sfh" d="M1800 2035 L1945 1890 L1959 1890 L1814 2035 Z"/><path class="fh1" d="M1800 2035 L1945 1890 L1959 1890 L1814 2035 Z" /></g><g class="o"><path transform="translate(4,8)" class="S sfv" d="M1359 1174 L1492 1307 L1492 1327 L1359 1194 Z"/><path class="fv5" d="M1359 1174 L1492 1307 L1492 1327 L1359 1194 Z" /></g><g class="o"><path transform="translate(2,4)" class="S sfv" d="M1014 1315 L853 1154 L853 1234 L1014 1395 Z"/><path class="fv1" d="M1014 1315 L853 1154 L853 1234 L1014 1395 Z" /></g><g class="o"><path transform="translate(6,12)" class="S ssv" d="M1277 1163 L1411 1297 L1411 1327 L1277 1193 Z"/><path class="sv6" d="M1277 1163 L1411 1297 L1411 1327 L1277 1193 Z" /></g><g class="o"><path transform="translate(5,10)" class="S ssv" d="M1974 1235 L1815 1394 L1815 1418 L1974 1259 Z"/><path class="sv4" d="M1974 1235 L1815 1394 L1815 1418 L1974 1259 Z" /></g><g class="o"><path transform="translate(3,6)" class="S sfh" d="M1122 1375 L1319 1178 L1341 1178 L1144 1375 Z"/><path class="fh3" d="M1122 1375 L1319 1178 L1341 1178 L1144 1375 Z" /></g><g class="o"><path transform="translate(9,18)" class="S sfv" d="M1826 1114 L1618 1322 L1618 1360 L1826 1152 Z"/><path class="fv7" d="M1826 1114 L1618 1322 L1618 1360 L1826 1152 Z" /></g><g class="o"><path transform="translate(2,4)" class="S ssv" d="M977 1983 L1196 2202 L1196 2230 L977 2011 Z"/><path class="sv1" d="M977 1983 L1196 2202 L1196 2230 L977 2011 Z" /></g><g class="o"><path transform="translate(4,8)" class="S sfh" d="M1739 1884 L1602 1747 L1632 1747 L1769 1884 Z"/><path class="fh5" d="M1739 1884 L1602 1747 L1632 1747 L1769 1884 Z" /></g><g class="o"><path transform="translate(4,8)" class="S sfh" d="M1946 1425 L2294 1077 L2322 1077 L1974 1425 Z"/><path class="fh4" d="M1946 1425 L2294 1077 L2322 1077 L1974 1425 Z" /></g><g class="o"><path transform="translate(3,6)" class="S sfv" d="M1445 1117 L1217 1345 L1217 1367 L1445 1139 Z"/><path class="fv3" d="M1445 1117 L1217 1345 L1217 1367 L1445 1139 Z" /></g><g class="o"><path transform="translate(3,6)" class="S sfv" d="M1018 1382 L1205 1195 L1205 1223 L1018 1410 Z"/><path class="fv1" d="M1018 1382 L1205 1195 L1205 1223 L1018 1410 Z" /></g><g class="o"><path transform="translate(4,8)" class="S sfh" d="M1481 1025 L1237 781 L1251 781 L1495 1025 Z"/><path class="fh5" d="M1481 1025 L1237 781 L1251 781 L1495 1025 Z" /></g><g class="o"><path transform="translate(9,18)" class="S sfh" d="M1594 1002 L1435 1161 L1453 1161 L1612 1002 Z"/><path class="fh1" d="M1594 1002 L1435 1161 L1453 1161 L1612 1002 Z" /></g><g class="o"><path transform="translate(6,12)" class="S sfv" d="M1419 1653 L1583 1489 L1583 1505 L1419 1669 Z"/><path class="fv2" d="M1419 1653 L1583 1489 L1583 1505 L1419 1669 Z" /></g><g class="o"><path transform="translate(7,14)" class="S sfv" d="M975 1523 L567 1115 L567 1143 L975 1551 Z"/><path class="fv1" d="M975 1523 L567 1115 L567 1143 L975 1551 Z" /></g><g class="o"><path transform="translate(6,12)" class="S ssv" d="M1280 963 L1114 1129 L1114 1155 L1280 989 Z"/><path class="sv7" d="M1280 963 L1114 1129 L1114 1155 L1280 989 Z" /></g><g class="o"><path transform="translate(8,16)" class="S sfv" d="M1007 1428 L1241 1194 L1241 1206 L1007 1440 Z"/><path class="fv1" d="M1007 1428 L1241 1194 L1241 1206 L1007 1440 Z" /></g><g class="o"><path transform="translate(6,12)" class="S sfv" d="M1907 1329 L1698 1120 L1698 1140 L1907 1349 Z"/><path class="fv5" d="M1907 1329 L1698 1120 L1698 1140 L1907 1349 Z" /></g><g class="o"><path transform="translate(5,10)" class="S sfh" d="M1444 1957 L1245 1758 L1255 1758 L1454 1957 Z"/><path class="fh3" d="M1444 1957 L1245 1758 L1255 1758 L1454 1957 Z" /></g></g><use href="#slashes" transform-origin="1500 1500" transform="rotate(180) scale(2)"/></g><rect x="1080" y="1080" width="840" height="840" stroke-width="160" class="o s5" /><use href="#slashes" transform-origin="1500 1500" transform="scale(.9)"/><use href="#slashes" transform-origin="1500 1500" transform="rotate(180) scale(.9)"/></svg>