<svg xmlns="http://www.w3.org/2000/svg" viewBox="750 750 1500 1500"><style>/*<![CDATA[*/svg{background:rgb(254,247,238);max-width:100vw;max-height:100vh}path{stroke-width:4}.o{opacity:.75}.S{opacity:.4}.sf{stroke:none;fill:black}.sfh{stroke:none;fill:url(#hs)}.sfv{stroke:none;fill:url(#vs)}.ss{stroke:black;fill:none}.ssh{stroke:url(#hs);fill:none}.ssv{stroke:url(#vs);fill:none}.s1{fill:none;stroke:rgb(251,0,2)}.f1{stroke:none;fill:rgb(251,0,2)}.sh1{fill:none;stroke:url(#h1)}.fh1{stroke:none;fill:url(#h1)}.sv1{fill:none;stroke:url(#v1)}.fv1{stroke:none;fill:url(#v1)}.s2{fill:none;stroke:rgb(254,240,0)}.f2{stroke:none;fill:rgb(254,240,0)}.sh2{fill:none;stroke:url(#h2)}.fh2{stroke:none;fill:url(#h2)}.sv2{fill:none;stroke:url(#v2)}.fv2{stroke:none;fill:url(#v2)}.s3{fill:none;stroke:rgb(28,130,235)}.f3{stroke:none;fill:rgb(28,130,235)}.sh3{fill:none;stroke:url(#h3)}.fh3{stroke:none;fill:url(#h3)}.sv3{fill:none;stroke:url(#v3)}.fv3{stroke:none;fill:url(#v3)}.s4{fill:none;stroke:rgb(25,12,40)}.f4{stroke:none;fill:rgb(25,12,40)}.sh4{fill:none;stroke:url(#h4)}.fh4{stroke:none;fill:url(#h4)}.sv4{fill:none;stroke:url(#v4)}.fv4{stroke:none;fill:url(#v4)}.s5{fill:none;stroke:rgb(34,34,34)}.f5{stroke:none;fill:rgb(34,34,34)}.sh5{fill:none;stroke:url(#h5)}.fh5{stroke:none;fill:url(#h5)}.sv5{fill:none;stroke:url(#v5)}.fv5{stroke:none;fill:url(#v5)}.s6{fill:none;stroke:rgb(255,255,255)}.f6{stroke:none;fill:rgb(255,255,255)}.sh6{fill:none;stroke:url(#h6)}.fh6{stroke:none;fill:url(#h6)}.sv6{fill:none;stroke:url(#v6)}.fv6{stroke:none;fill:url(#v6)}.s7{fill:none;stroke:rgb(255,255,0)}.f7{stroke:none;fill:rgb(255,255,0)}.sh7{fill:none;stroke:url(#h7)}.fh7{stroke:none;fill:url(#h7)}.sv7{fill:none;stroke:url(#v7)}.fv7{stroke:none;fill:url(#v7)}/*]]>*/</style><defs><linearGradient gradientTransform="rotate(90)" id="hs"><stop offset="20%" stop-color="#000" /><stop offset="95%" stop-color="rgba(0, 0, 0, 0)" /></linearGradient><linearGradient id="vs"><stop offset="20%" stop-color="#000" /><stop offset="95%" stop-color="rgba(0, 0, 0, 0)" /></linearGradient><linearGradient gradientTransform="rotate(90)" id="h1"><stop offset="20%" stop-color="rgba(251,0,2,1)" /><stop offset="95%" stop-color="rgba(251,0,2,0)" /></linearGradient><linearGradient id="v1"><stop offset="20%" stop-color="rgba(251,0,2,1)" /><stop offset="95%" stop-color="rgba(251,0,2,0)" /></linearGradient><linearGradient gradientTransform="rotate(90)" id="h2"><stop offset="20%" stop-color="rgba(254,240,0,1)" /><stop offset="95%" stop-color="rgba(254,240,0,0)" /></linearGradient><linearGradient id="v2"><stop offset="20%" stop-color="rgba(254,240,0,1)" /><stop offset="95%" stop-color="rgba(254,240,0,0)" /></linearGradient><linearGradient gradientTransform="rotate(90)" id="h3"><stop offset="20%" stop-color="rgba(28,130,235,1)" /><stop offset="95%" stop-color="rgba(28,130,235,0)" /></linearGradient><linearGradient id="v3"><stop offset="20%" stop-color="rgba(28,130,235,1)" /><stop offset="95%" stop-color="rgba(28,130,235,0)" /></linearGradient><linearGradient gradientTransform="rotate(90)" id="h4"><stop offset="20%" stop-color="rgba(25,12,40,1)" /><stop offset="95%" stop-color="rgba(25,12,40,0)" /></linearGradient><linearGradient id="v4"><stop offset="20%" stop-color="rgba(25,12,40,1)" /><stop offset="95%" stop-color="rgba(25,12,40,0)" /></linearGradient><linearGradient gradientTransform="rotate(90)" id="h5"><stop offset="20%" stop-color="rgba(34,34,34,1)" /><stop offset="95%" stop-color="rgba(34,34,34,0)" /></linearGradient><linearGradient id="v5"><stop offset="20%" stop-color="rgba(34,34,34,1)" /><stop offset="95%" stop-color="rgba(34,34,34,0)" /></linearGradient><linearGradient gradientTransform="rotate(90)" id="h6"><stop offset="20%" stop-color="rgba(255,255,255,1)" /><stop offset="95%" stop-color="rgba(255,255,255,0)" /></linearGradient><linearGradient id="v6"><stop offset="20%" stop-color="rgba(255,255,255,1)" /><stop offset="95%" stop-color="rgba(255,255,255,0)" /></linearGradient><linearGradient gradientTransform="rotate(90)" id="h7"><stop offset="20%" stop-color="rgba(255,255,0,1)" /><stop offset="95%" stop-color="rgba(255,255,0,0)" /></linearGradient><linearGradient id="v7"><stop offset="20%" stop-color="rgba(255,255,0,1)" /><stop offset="95%" stop-color="rgba(255,255,0,0)" /></linearGradient></defs><g transform-origin="1500 1500" transform="scale(2)" opacity=".6"><g id="slashes"><g class="o"><path transform="translate(7,14)" class="S sf" d="M1981 1819 L2051 1749 L2051 1853 L1981 1923 Z"/><path class="f2" d="M1981 1819 L2051 1749 L2051 1853 L1981 1923 Z" /></g><g class="o"><path transform="translate(9,18)" class="S sfv" d="M1413 1307 L1602 1118 L1602 1128 L1413 1317 Z"/><path class="fv7" d="M1413 1307 L1602 1118 L1602 1128 L1413 1317 Z" /></g><g class="o"><path transform="translate(6,12)" class="S sfh" d="M1917 990 L2111 796 L2247 796 L2053 990 Z"/><path class="fh6" d="M1917 990 L2111 796 L2247 796 L2053 990 Z" /></g><g class="o"><path transform="translate(2,4)" class="S sf" d="M1293 1852 L1845 1300 L1845 1332 L1293 1884 Z"/><path class="f4" d="M1293 1852 L1845 1300 L1845 1332 L1293 1884 Z" /></g><g class="o"><path transform="translate(4,8)" class="S ss" d="M1579 1914 L1675 1818 L1675 1834 L1579 1930 Z"/><path class="s4" d="M1579 1914 L1675 1818 L1675 1834 L1579 1930 Z" /></g><g class="o"><path transform="translate(9,18)" class="S sfv" d="M1745 1296 L1939 1102 L1939 1122 L1745 1316 Z"/><path class="fv5" d="M1745 1296 L1939 1102 L1939 1122 L1745 1316 Z" /></g><g class="o"><path transform="translate(3,6)" class="S sfv" d="M1012 1630 L1177 1465 L1177 1479 L1012 1644 Z"/><path class="fv4" d="M1012 1630 L1177 1465 L1177 1479 L1012 1644 Z" /></g><g class="o"><path transform="translate(9,18)" class="S ssv" d="M1991 963 L2378 576 L2378 608 L1991 995 Z"/><path class="sv3" d="M1991 963 L2378 576 L2378 608 L1991 995 Z" /></g><g class="o"><path transform="translate(6,12)" class="S ssh" d="M1555 1868 L1651 1772 L1659 1772 L1563 1868 Z"/><path class="sh1" d="M1555 1868 L1651 1772 L1659 1772 L1563 1868 Z" /></g><g class="o"><path transform="translate(3,6)" class="S sfh" d="M966 1163 L1193 936 L1209 936 L982 1163 Z"/><path class="fh5" d="M966 1163 L1193 936 L1209 936 L982 1163 Z" /></g><g class="o"><path transform="translate(6,12)" class="S sfh" d="M1847 2008 L1738 1899 L1764 1899 L1873 2008 Z"/><path class="fh4" d="M1847 2008 L1738 1899 L1764 1899 L1873 2008 Z" /></g><g class="o"><path transform="translate(6,12)" class="S sfv" d="M1841 1801 L2000 1642 L2000 1660 L1841 1819 Z"/><path class="fv6" d="M1841 1801 L2000 1642 L2000 1660 L1841 1819 Z" /></g><g class="o"><path transform="translate(3,6)" class="S ssv" d="M1880 1197 L1987 1090 L1987 1124 L1880 1231 Z"/><path class="sv6" d="M1880 1197 L1987 1090 L1987 1124 L1880 1231 Z" /></g><g class="o"><path transform="translate(6,12)" class="S sfh" d="M1555 995 L1777 773 L1803 773 L1581 995 Z"/><path class="fh1" d="M1555 995 L1777 773 L1803 773 L1581 995 Z" /></g><g class="o"><path transform="translate(2,4)" class="S sf" d="M1261 1892 L1435 1718 L1455 1718 L1281 1892 Z"/><path class="f5" d="M1261 1892 L1435 1718 L1455 1718 L1281 1892 Z" /></g><g class="o"><path transform="translate(6,12)" class="S ssh" d="M1121 1919 L1223 1817 L1245 1817 L1143 1919 Z"/><path class="sh5" d="M1121 1919 L1223 1817 L1245 1817 L1143 1919 Z" /></g><g class="o"><path transform="translate(2,4)" class="S sfh" d="M1353 1428 L1430 1351 L1438 1351 L1361 1428 Z"/><path class="fh7" d="M1353 1428 L1430 1351 L1438 1351 L1361 1428 Z" /></g><g class="o"><path transform="translate(8,16)" class="S sfh" d="M1117 1110 L1480 747 L1616 747 L1253 1110 Z"/><path class="fh3" d="M1117 1110 L1480 747 L1616 747 L1253 1110 Z" /></g><g class="o"><path transform="translate(6,12)" class="S sfh" d="M1645 1578 L1816 1407 L1832 1407 L1661 1578 Z"/><path class="fh2" d="M1645 1578 L1816 1407 L1832 1407 L1661 1578 Z" /></g><g class="o"><path transform="translate(4,8)" class="S sf" d="M1500 1448 L1656 1292 L1656 1330 L1500 1486 Z"/><path class="f7" d="M1500 1448 L1656 1292 L1656 1330 L1500 1486 Z" /></g><g class="o"><path transform="translate(6,12)" class="S sf" d="M1146 1898 L1243 1801 L1243 1819 L1146 1916 Z"/><path class="f5" d="M1146 1898 L1243 1801 L1243 1819 L1146 1916 Z" /></g><g class="o"><path transform="translate(2,4)" class="S ss" d="M1328 1515 L1520 1323 L1550 1323 L1358 1515 Z"/><path class="s6" d="M1328 1515 L1520 1323 L1550 1323 L1358 1515 Z" /></g><g class="o"><path transform="translate(4,8)" class="S sf" d="M1204 1172 L1381 995 L1381 1017 L1204 1194 Z"/><path class="f1" d="M1204 1172 L1381 995 L1381 1017 L1204 1194 Z" /></g><g class="o"><path transform="translate(2,4)" class="S sfh" d="M1059 1586 L1293 1352 L1309 1352 L1075 1586 Z"/><path class="fh1" d="M1059 1586 L1293 1352 L1309 1352 L1075 1586 Z" /></g><g class="o"><path transform="translate(9,18)" class="S sfv" d="M1668 1233 L1500 1065 L1500 1087 L1668 1255 Z"/><path class="fv4" d="M1668 1233 L1500 1065 L1500 1087 L1668 1255 Z" /></g><g class="o"><path transform="translate(7,14)" class="S ssh" d="M1791 1789 L1555 1553 L1591 1553 L1827 1789 Z"/><path class="sh5" d="M1791 1789 L1555 1553 L1591 1553 L1827 1789 Z" /></g><g class="o"><path transform="translate(7,14)" class="S sfv" d="M1285 1219 L1484 1020 L1484 1036 L1285 1235 Z"/><path class="fv4" d="M1285 1219 L1484 1020 L1484 1036 L1285 1235 Z" /></g><g class="o"><path transform="translate(5,10)" class="S sfh" d="M1011 1040 L1169 882 L1181 882 L1023 1040 Z"/><path class="fh4" d="M1011 1040 L1169 882 L1181 882 L1023 1040 Z" /></g><g class="o"><path transform="translate(9,18)" class="S sfv" d="M2035 948 L2271 712 L2271 746 L2035 982 Z"/><path class="fv1" d="M2035 948 L2271 712 L2271 746 L2035 982 Z" /></g><g class="o"><path transform="translate(8,16)" class="S sfv" d="M1872 1780 L2063 1589 L2063 1619 L1872 1810 Z"/><path class="fv1" d="M1872 1780 L2063 1589 L2063 1619 L1872 1810 Z" /></g><g class="o"><path transform="translate(3,6)" class="S sfv" d="M1667 1187 L1358 878 L1358 888 L1667 1197 Z"/><path class="fv1" d="M1667 1187 L1358 878 L1358 888 L1667 1197 Z" /></g><g class="o"><path transform="translate(5,10)" class="S ssv" d="M1148 1321 L1211 1258 L1211 1284 L1148 1347 Z"/><path class="sv3" d="M1148 1321 L1211 1258 L1211 1284 L1148 1347 Z" /></g><g class="o"><path transform="translate(8,16)" class="S sfh" d="M1140 1726 L1318 1548 L1326 1548 L1148 1726 Z"/><path class="fh3" d="M1140 1726 L1318 1548 L1326 1548 L1148 1726 Z" /></g><g class="o"><path transform="translate(9,18)" class="S ss" d="M1944 1436 L2165 1215 L2185 1215 L1964 1436 Z"/><path class="s7" d="M1944 1436 L2165 1215 L2185 1215 L1964 1436 Z" /></g><g class="o"><path transform="translate(9,18)" class="S sfv" d="M1667 1517 L1497 1347 L1497 1379 L1667 1549 Z"/><path class="fv5" d="M1667 1517 L1497 1347 L1497 1379 L1667 1549 Z" /></g><g class="o"><path transform="translate(9,18)" class="S sf" d="M1119 1207 L1014 1102 L1034 1102 L1139 1207 Z"/><path class="f5" d="M1119 1207 L1014 1102 L1034 1102 L1139 1207 Z" /></g><g class="o"><path transform="translate(8,16)" class="S ssh" d="M1933 1879 L2090 1722 L2234 1722 L2077 1879 Z"/><path class="sh5" d="M1933 1879 L2090 1722 L2234 1722 L2077 1879 Z" /></g><g class="o"><path transform="translate(8,16)" class="S sfv" d="M1903 1574 L1675 1346 L1675 1358 L1903 1586 Z"/><path class="fv7" d="M1903 1574 L1675 1346 L1675 1358 L1903 1586 Z" /></g><g class="o"><path transform="translate(6,12)" class="S sfv" d="M1463 1275 L1686 1052 L1686 1070 L1463 1293 Z"/><path class="fv4" d="M1463 1275 L1686 1052 L1686 1070 L1463 1293 Z" /></g><g class="o"><path transform="translate(2,4)" class="S sfh" d="M1350 1788 L1413 1725 L1449 1725 L1386 1788 Z"/><path class="fh2" d="M1350 1788 L1413 1725 L1449 1725 L1386 1788 Z" /></g><g class="o"><path transform="translate(8,16)" class="S sfv" d="M1914 1995 L1825 1906 L1825 1920 L1914 2009 Z"/><path class="fv3" d="M1914 1995 L1825 1906 L1825 1920 L1914 2009 Z" /></g><g class="o"><path transform="translate(9,18)" class="S sfv" d="M1317 1480 L1400 1397 L1400 1431 L1317 1514 Z"/><path class="fv7" d="M1317 1480 L1400 1397 L1400 1431 L1317 1514 Z" /></g><g class="o"><path transform="translate(7,14)" class="S sfv" d="M1249 1989 L1416 1822 L1416 1862 L1249 2029 Z"/><path class="fv7" d="M1249 1989 L1416 1822 L1416 1862 L1249 2029 Z" /></g><g class="o"><path transform="translate(9,18)" class="S sfv" d="M1432 1272 L2086 618 L2086 646 L1432 1300 Z"/><path class="fv6" d="M1432 1272 L2086 618 L2086 646 L1432 1300 Z" /></g><g class="o"><path transform="translate(4,8)" class="S sf" d="M1054 1683 L1195 1542 L1195 1562 L1054 1703 Z"/><path class="f4" d="M1054 1683 L1195 1542 L1195 1562 L1054 1703 Z" /></g><g class="o"><path transform="translate(3,6)" class="S sfh" d="M1635 1703 L1524 1592 L1552 1592 L1663 1703 Z"/><path class="fh7" d="M1635 1703 L1524 1592 L1552 1592 L1663 1703 Z" /></g><g class="o"><path transform="translate(8,16)" class="S sfv" d="M1545 1418 L1702 1261 L1702 1273 L1545 1430 Z"/><path class="fv2" d="M1545 1418 L1702 1261 L1702 1273 L1545 1430 Z" /></g><g class="o"><path transform="translate(7,14)" class="S ssv" d="M1908 1980 L1729 1801 L1729 1837 L1908 2016 Z"/><path class="sv6" d="M1908 1980 L1729 1801 L1729 1837 L1908 2016 Z" /></g><g class="o"><path transform="translate(5,10)" class="S sfh" d="M1183 1401 L1394 1190 L1416 1190 L1205 1401 Z"/><path class="fh6" d="M1183 1401 L1394 1190 L1416 1190 L1205 1401 Z" /></g><g class="o"><path transform="translate(3,6)" class="S sf" d="M1829 1241 L2096 974 L2134 974 L1867 1241 Z"/><path class="f4" d="M1829 1241 L2096 974 L2134 974 L1867 1241 Z" /></g><g class="o"><path transform="translate(8,16)" class="S sfv" d="M1914 1135 L1857 1078 L1857 1116 L1914 1173 Z"/><path class="fv6" d="M1914 1135 L1857 1078 L1857 1116 L1914 1173 Z" /></g><g class="o"><path transform="translate(7,14)" class="S sfv" d="M1369 1390 L1551 1208 L1551 1224 L1369 1406 Z"/><path class="fv1" d="M1369 1390 L1551 1208 L1551 1224 L1369 1406 Z" /></g><g class="o"><path transform="translate(8,16)" class="S sfh" d="M1599 1711 L1809 1501 L1817 1501 L1607 1711 Z"/><path class="fh1" d="M1599 1711 L1809 1501 L1817 1501 L1607 1711 Z" /></g><g class="o"><path transform="translate(4,8)" class="S ssv" d="M1537 2012 L1623 1926 L1623 1944 L1537 2030 Z"/><path class="sv2" d="M1537 2012 L1623 1926 L1623 1944 L1537 2030 Z" /></g><g class="o"><path transform="translate(3,6)" class="S sfv" d="M1021 1419 L1177 1263 L1177 1275 L1021 1431 Z"/><path class="fv2" d="M1021 1419 L1177 1263 L1177 1275 L1021 1431 Z" /></g><g class="o"><path transform="translate(4,8)" class="S sfv" d="M1909 1812 L1986 1735 L1986 1763 L1909 1840 Z"/><path class="fv3" d="M1909 1812 L1986 1735 L1986 1763 L1909 1840 Z" /></g><g class="o"><path transform="translate(9,18)" class="S sfh" d="M2027 1646 L2759 914 L2777 914 L2045 1646 Z"/><path class="fh1" d="M2027 1646 L2759 914 L2777 914 L2045 1646 Z" /></g><g class="o"><path transform="translate(8,16)" class="S sfh" d="M1028 1601 L1156 1473 L1184 1473 L1056 1601 Z"/><path class="fh3" d="M1028 1601 L1156 1473 L1184 1473 L1056 1601 Z" /></g><g class="o"><path transform="translate(6,12)" class="S sfv" d="M1937 1447 L1705 1215 L1705 1227 L1937 1459 Z"/><path class="fv3" d="M1937 1447 L1705 1215 L1705 1227 L1937 1459 Z" /></g><g class="o"><path transform="translate(9,18)" class="S sfh" d="M1925 1559 L2129 1355 L2163 1355 L1959 1559 Z"/><path class="fh3" d="M1925 1559 L2129 1355 L2163 1355 L1959 1559 Z" /></g><g class="o"><path transform="translate(8,16)" class="S sfh" d="M1440 1993 L1678 1755 L1704 1755 L1466 1993 Z"/><path class="fh5" d="M1440 1993 L1678 1755 L1704 1755 L1466 1993 Z" /></g><g class="o"><path transform="translate(5,10)" class="S ssh" d="M1947 1389 L2131 1205 L2165 1205 L1981 1389 Z"/><path class="sh5" d="M1947 1389 L2131 1205 L2165 1205 L1981 1389 Z" /></g><g class="o"><path transform="translate(7,14)" class="S ssh" d="M1706 1147 L1903 950 L1925 950 L1728 1147 Z"/><path class="sh3" d="M1706 1147 L1903 950 L1925 950 L1728 1147 Z" /></g><g class="o"><path transform="translate(5,10)" class="S sfh" d="M1988 1462 L1571 1045 L1595 1045 L2012 1462 Z"/><path class="fh3" d="M1988 1462 L1571 1045 L1595 1045 L2012 1462 Z" /></g><g class="o"><path transform="translate(3,6)" class="S sfh" d="M1634 1929 L1810 1753 L1826 1753 L1650 1929 Z"/><path class="fh4" d="M1634 1929 L1810 1753 L1826 1753 L1650 1929 Z" /></g><g class="o"><path transform="translate(6,12)" class="S ssv" d="M953 1362 L1103 1212 L1103 1226 L953 1376 Z"/><path class="sv4" d="M953 1362 L1103 1212 L1103 1226 L953 1376 Z" /></g><g class="o"><path transform="translate(2,4)" class="S sf" d="M1369 1292 L1286 1209 L1286 1223 L1369 1306 Z"/><path class="f7" d="M1369 1292 L1286 1209 L1286 1223 L1369 1306 Z" /></g><g class="o"><path transform="translate(6,12)" class="S sfh" d="M1898 1645 L1970 1573 L1988 1573 L1916 1645 Z"/><path class="fh3" d="M1898 1645 L1970 1573 L1988 1573 L1916 1645 Z" /></g><g class="o"><path transform="translate(9,18)" class="S sf" d="M1574 1324 L1801 1097 L1801 1105 L1574 1332 Z"/><path class="f5" d="M1574 1324 L1801 1097 L1801 1105 L1574 1332 Z" /></g><g class="o"><path transform="translate(2,4)" class="S sfv" d="M1846 1759 L2014 1591 L2014 1611 L1846 1779 Z"/><path class="fv2" d="M1846 1759 L2014 1591 L2014 1611 L1846 1779 Z" /></g><g class="o"><path transform="translate(8,16)" class="S sfh" d="M1408 2020 L1528 1900 L1546 1900 L1426 2020 Z"/><path class="fh7" d="M1408 2020 L1528 1900 L1546 1900 L1426 2020 Z" /></g><g class="o"><path transform="translate(6,12)" class="S sfh" d="M1046 976 L1244 778 L1276 778 L1078 976 Z"/><path class="fh7" d="M1046 976 L1244 778 L1276 778 L1078 976 Z" /></g><g class="o"><path transform="translate(8,16)" class="S sfv" d="M1279 1642 L1499 1422 L1499 1460 L1279 1680 Z"/><path class="fv4" d="M1279 1642 L1499 1422 L1499 1460 L1279 1680 Z" /></g><g class="o"><path transform="translate(4,8)" class="S sfv" d="M1397 1792 L1485 1704 L1485 1716 L1397 1804 Z"/><path class="fv5" d="M1397 1792 L1485 1704 L1485 1716 L1397 1804 Z" /></g><g class="o"><path transform="translate(8,16)" class="S ssv" d="M1313 1644 L1386 1571 L1386 1581 L1313 1654 Z"/><path class="sv2" d="M1313 1644 L1386 1571 L1386 1581 L1313 1654 Z" /></g><g class="o"><path transform="translate(5,10)" class="S sfh" d="M1515 1170 L1631 1054 L1641 1054 L1525 1170 Z"/><path class="fh4" d="M1515 1170 L1631 1054 L1641 1054 L1525 1170 Z" /></g><g class="o"><path transform="translate(5,10)" class="S sfh" d="M2008 1266 L2197 1077 L2205 1077 L2016 1266 Z"/><path class="fh2" d="M2008 1266 L2197 1077 L2205 1077 L2016 1266 Z" /></g><g class="o"><path transform="translate(9,18)" class="S ssv" d="M1698 1634 L1881 1451 L1881 1465 L1698 1648 Z"/><path class="sv1" d="M1698 1634 L1881 1451 L1881 1465 L1698 1648 Z" /></g><g class="o"><path transform="translate(4,8)" class="S sfv" d="M1480 1188 L1706 962 L1706 978 L1480 1204 Z"/><path class="fv5" d="M1480 1188 L1706 962 L1706 978 L1480 1204 Z" /></g><g class="o"><path transform="translate(7,14)" class="S sfv" d="M1984 1048 L1919 983 L1919 993 L1984 1058 Z"/><path class="fv3" d="M1984 1048 L1919 983 L1919 993 L1984 1058 Z" /></g><g class="o"><path transform="translate(7,14)" class="S sfh" d="M1784 1983 L2021 1746 L2057 1746 L1820 1983 Z"/><path class="fh4" d="M1784 1983 L2021 1746 L2057 1746 L1820 1983 Z" /></g><g class="o"><path transform="translate(8,16)" class="S ssh" d="M1128 1091 L1240 979 L1272 979 L1160 1091 Z"/><path class="sh6" d="M1128 1091 L1240 979 L1272 979 L1160 1091 Z" /></g><g class="o"><path transform="translate(5,10)" class="S sfv" d="M1331 1434 L1488 1277 L1488 1295 L1331 1452 Z"/><path class="fv4" d="M1331 1434 L1488 1277 L1488 1295 L1331 1452 Z" /></g><g class="o"><path transform="translate(7,14)" class="S sfh" d="M1900 1563 L1980 1483 L1994 1483 L1914 1563 Z"/><path class="fh7" d="M1900 1563 L1980 1483 L1994 1483 L1914 1563 Z" /></g><g class="o"><path transform="translate(6,12)" class="S sfh" d="M2017 1459 L2115 1361 L2153 1361 L2055 1459 Z"/><path class="fh5" d="M2017 1459 L2115 1361 L2153 1361 L2055 1459 Z" /></g><g class="o"><path transform="translate(9,18)" class="S sfh" d="M1766 1040 L1976 830 L2010 830 L1800 1040 Z"/><path class="fh6" d="M1766 1040 L1976 830 L2010 830 L1800 1040 Z" /></g><g class="o"><path transform="translate(7,14)" class="S sf" d="M1236 990 L1463 763 L1463 789 L1236 1016 Z"/><path class="f6" d="M1236 990 L1463 763 L1463 789 L1236 1016 Z" /></g><g class="o"><path transform="translate(3,6)" class="S sfv" d="M955 1560 L1184 1331 L1184 1347 L955 1576 Z"/><path class="fv5" d="M955 1560 L1184 1331 L1184 1347 L955 1576 Z" /></g><g class="o"><path transform="translate(4,8)" class="S sf" d="M1693 1816 L1552 1675 L1552 1685 L1693 1826 Z"/><path class="f2" d="M1693 1816 L1552 1675 L1552 1685 L1693 1826 Z" /></g><g class="o"><path transform="translate(4,8)" class="S sfh" d="M1806 1161 L2041 926 L2073 926 L1838 1161 Z"/><path class="fh5" d="M1806 1161 L2041 926 L2073 926 L1838 1161 Z" /></g><g class="o"><path transform="translate(7,14)" class="S sfv" d="M1603 1038 L1243 678 L1243 692 L1603 1052 Z"/><path class="fv7" d="M1603 1038 L1243 678 L1243 692 L1603 1052 Z" /></g><g class="o"><path transform="translate(9,18)" class="S sfv" d="M1667 1048 L1893 822 L1893 858 L1667 1084 Z"/><path class="fv5" d="M1667 1048 L1893 822 L1893 858 L1667 1084 Z" /></g><g class="o"><path transform="translate(5,10)" class="S sfh" d="M1812 1315 L1961 1166 L1987 1166 L1838 1315 Z"/><path class="fh1" d="M1812 1315 L1961 1166 L1987 1166 L1838 1315 Z" /></g><g class="o"><path transform="translate(5,10)" class="S sf" d="M1325 1617 L2060 882 L2078 882 L1343 1617 Z"/><path class="f1" d="M1325 1617 L2060 882 L2078 882 L1343 1617 Z" /></g><g class="o"><path transform="translate(2,4)" class="S sf" d="M1484 1278 L1660 1102 L1680 1102 L1504 1278 Z"/><path class="f3" d="M1484 1278 L1660 1102 L1680 1102 L1504 1278 Z" /></g><g class="o"><path transform="translate(5,10)" class="S sf" d="M1877 1223 L1676 1022 L1676 1046 L1877 1247 Z"/><path class="f1" d="M1877 1223 L1676 1022 L1676 1046 L1877 1247 Z" /></g><g class="o"><path transform="translate(9,18)" class="S sf" d="M1303 1436 L1183 1316 L1199 1316 L1319 1436 Z"/><path class="f4" d="M1303 1436 L1183 1316 L1199 1316 L1319 1436 Z" /></g><g class="o"><path transform="translate(6,12)" class="S sf" d="M1564 1480 L1769 1275 L1783 1275 L1578 1480 Z"/><path class="f3" d="M1564 1480 L1769 1275 L1783 1275 L1578 1480 Z" /></g><g class="o"><path transform="translate(2,4)" class="S sfh" d="M1471 1116 L1525 1062 L1677 1062 L1623 1116 Z"/><path class="fh1" d="M1471 1116 L1525 1062 L1677 1062 L1623 1116 Z" /></g><g class="o"><path transform="translate(2,4)" class="S sf" d="M1799 1116 L1980 935 L1990 935 L1809 1116 Z"/><path class="f3" d="M1799 1116 L1980 935 L1990 935 L1809 1116 Z" /></g><g class="o"><path transform="translate(5,10)" class="S ss" d="M1003 1258 L802 1057 L814 1057 L1015 1258 Z"/><path class="s5" d="M1003 1258 L802 1057 L814 1057 L1015 1258 Z" /></g><g class="o"><path transform="translate(2,4)" class="S sfh" d="M1110 1473 L1656 927 L1694 927 L1148 1473 Z"/><path class="fh1" d="M1110 1473 L1656 927 L1694 927 L1148 1473 Z" /></g><g class="o"><path transform="translate(9,18)" class="S ssh" d="M1665 995 L1873 787 L1899 787 L1691 995 Z"/><path class="sh5" d="M1665 995 L1873 787 L1899 787 L1691 995 Z" /></g><g class="o"><path transform="translate(7,14)" class="S sfv" d="M1413 1678 L1995 1096 L1995 1112 L1413 1694 Z"/><path class="fv2" d="M1413 1678 L1995 1096 L1995 1112 L1413 1694 Z" /></g><g class="o"><path transform="translate(5,10)" class="S sfv" d="M1735 1816 L1675 1756 L1675 1768 L1735 1828 Z"/><path class="fv4" d="M1735 1816 L1675 1756 L1675 1768 L1735 1828 Z" /></g><g class="o"><path transform="translate(7,14)" class="S sfh" d="M983 1530 L1110 1403 L1120 1403 L993 1530 Z"/><path class="fh7" d="M983 1530 L1110 1403 L1120 1403 L993 1530 Z" /></g><g class="o"><path transform="translate(8,16)" class="S sfh" d="M1701 1783 L1841 1643 L1869 1643 L1729 1783 Z"/><path class="fh7" d="M1701 1783 L1841 1643 L1869 1643 L1729 1783 Z" /></g><g class="o"><path transform="translate(6,12)" class="S sf" d="M1288 1398 L1471 1215 L1471 1243 L1288 1426 Z"/><path class="f3" d="M1288 1398 L1471 1215 L1471 1243 L1288 1426 Z" /></g><g class="o"><path transform="translate(3,6)" class="S sfh" d="M1512 1742 L1634 1620 L1656 1620 L1534 1742 Z"/><path class="fh7" d="M1512 1742 L1634 1620 L1656 1620 L1534 1742 Z" /></g><g class="o"><path transform="translate(9,18)" class="S ssh" d="M1699 1519 L1996 1222 L2026 1222 L1729 1519 Z"/><path class="sh7" d="M1699 1519 L1996 1222 L2026 1222 L1729 1519 Z" /></g><g class="o"><path transform="translate(3,6)" class="S ssh" d="M2015 1255 L2247 1023 L2263 1023 L2031 1255 Z"/><path class="sh7" d="M2015 1255 L2247 1023 L2263 1023 L2031 1255 Z" /></g><g class="o"><path transform="translate(6,12)" class="S ssv" d="M1857 1642 L1762 1547 L1762 1571 L1857 1666 Z"/><path class="sv2" d="M1857 1642 L1762 1547 L1762 1571 L1857 1666 Z" /></g><g class="o"><path transform="translate(8,16)" class="S sfv" d="M1349 1318 L1835 832 L1835 870 L1349 1356 Z"/><path class="fv3" d="M1349 1318 L1835 832 L1835 870 L1349 1356 Z" /></g><g class="o"><path transform="translate(5,10)" class="S ssv" d="M2045 1623 L2187 1481 L2187 1509 L2045 1651 Z"/><path class="sv3" d="M2045 1623 L2187 1481 L2187 1509 L2045 1651 Z" /></g><g class="o"><path transform="translate(5,10)" class="S sfv" d="M1590 1257 L1832 1015 L1832 1031 L1590 1273 Z"/><path class="fv7" d="M1590 1257 L1832 1015 L1832 1031 L1590 1273 Z" /></g><g class="o"><path transform="translate(4,8)" class="S sfv" d="M1832 1772 L2366 1238 L2366 1272 L1832 1806 Z"/><path class="fv6" d="M1832 1772 L2366 1238 L2366 1272 L1832 1806 Z" /></g><g class="o"><path transform="translate(5,10)" class="S sf" d="M1545 1563 L1659 1449 L1667 1449 L1553 1563 Z"/><path class="f5" d="M1545 1563 L1659 1449 L1667 1449 L1553 1563 Z" /></g><g class="o"><path transform="translate(2,4)" class="S sfv" d="M1509 1159 L2130 538 L2130 558 L1509 1179 Z"/><path class="fv4" d="M1509 1159 L2130 538 L2130 558 L1509 1179 Z" /></g><g class="o"><path transform="translate(6,12)" class="S sf" d="M1999 1598 L1782 1381 L1782 1417 L1999 1634 Z"/><path class="f6" d="M1999 1598 L1782 1381 L1782 1417 L1999 1634 Z" /></g><g class="o"><path transform="translate(2,4)" class="S sfh" d="M1934 1680 L2002 1612 L2022 1612 L1954 1680 Z"/><path class="fh7" d="M1934 1680 L2002 1612 L2022 1612 L1954 1680 Z" /></g><g class="o"><path transform="translate(4,8)" class="S sfh" d="M962 1648 L776 1462 L802 1462 L988 1648 Z"/><path class="fh7" d="M962 1648 L776 1462 L802 1462 L988 1648 Z" /></g><g class="o"><path transform="translate(8,16)" class="S sfv" d="M1924 1903 L2080 1747 L2080 1759 L1924 1915 Z"/><path class="fv3" d="M1924 1903 L2080 1747 L2080 1759 L1924 1915 Z" /></g><g class="o"><path transform="translate(5,10)" class="S sfv" d="M1929 2012 L2026 1915 L2026 1941 L1929 2038 Z"/><path class="fv4" d="M1929 2012 L2026 1915 L2026 1941 L1929 2038 Z" /></g><g class="o"><path transform="translate(6,12)" class="S sf" d="M1646 991 L1883 754 L1907 754 L1670 991 Z"/><path class="f5" d="M1646 991 L1883 754 L1907 754 L1670 991 Z" /></g><g class="o"><path transform="translate(4,8)" class="S sfv" d="M1346 1660 L1276 1590 L1276 1620 L1346 1690 Z"/><path class="fv2" d="M1346 1660 L1276 1590 L1276 1620 L1346 1690 Z" /></g><g class="o"><path transform="translate(9,18)" class="S sfh" d="M1877 1499 L1805 1427 L1823 1427 L1895 1499 Z"/><path class="fh5" d="M1877 1499 L1805 1427 L1823 1427 L1895 1499 Z" /></g><g class="o"><path transform="translate(2,4)" class="S sfh" d="M1474 1243 L1639 1078 L1651 1078 L1486 1243 Z"/><path class="fh5" d="M1474 1243 L1639 1078 L1651 1078 L1486 1243 Z" /></g><g class="o"><path transform="translate(4,8)" class="S sfh" d="M1030 2044 L409 1423 L435 1423 L1056 2044 Z"/><path class="fh4" d="M1030 2044 L409 1423 L435 1423 L1056 2044 Z" /></g><g class="o"><path transform="translate(2,4)" class="S ssh" d="M1604 1152 L1442 990 L1474 990 L1636 1152 Z"/><path class="sh1" d="M1604 1152 L1442 990 L1474 990 L1636 1152 Z" /></g><g class="o"><path transform="translate(3,6)" class="S sfh" d="M1791 1426 L1533 1168 L1543 1168 L1801 1426 Z"/><path class="fh1" d="M1791 1426 L1533 1168 L1543 1168 L1801 1426 Z" /></g></g><use href="#slashes" transform-origin="1500 1500" transform="rotate(180) scale(2)"/></g><rect x="1080" y="1080" width="840" height="840" stroke-width="80" class="o s2" /><use href="#slashes" transform-origin="1500 1500" transform="scale(.6)"/><use href="#slashes" transform-origin="1500 1500" transform="rotate(180) scale(.6)"/></svg>