<svg xmlns="http://www.w3.org/2000/svg" viewBox="750 750 1500 1500"><style>/*<![CDATA[*/svg{background:rgb(27,152,224);max-width:100vw;max-height:100vh}path{stroke-width:4}.o{opacity:.75}.S{opacity:.4}.sf{stroke:none;fill:black}.sfh{stroke:none;fill:url(#hs)}.sfv{stroke:none;fill:url(#vs)}.ss{stroke:black;fill:none}.ssh{stroke:url(#hs);fill:none}.ssv{stroke:url(#vs);fill:none}.s1{fill:none;stroke:rgb(0,100,148)}.f1{stroke:none;fill:rgb(0,100,148)}.sh1{fill:none;stroke:url(#h1)}.fh1{stroke:none;fill:url(#h1)}.sv1{fill:none;stroke:url(#v1)}.fv1{stroke:none;fill:url(#v1)}.s2{fill:none;stroke:rgb(19,41,61)}.f2{stroke:none;fill:rgb(19,41,61)}.sh2{fill:none;stroke:url(#h2)}.fh2{stroke:none;fill:url(#h2)}.sv2{fill:none;stroke:url(#v2)}.fv2{stroke:none;fill:url(#v2)}.s3{fill:none;stroke:rgb(36,123,160)}.f3{stroke:none;fill:rgb(36,123,160)}.sh3{fill:none;stroke:url(#h3)}.fh3{stroke:none;fill:url(#h3)}.sv3{fill:none;stroke:url(#v3)}.fv3{stroke:none;fill:url(#v3)}.s4{fill:none;stroke:rgb(232,241,242)}.f4{stroke:none;fill:rgb(232,241,242)}.sh4{fill:none;stroke:url(#h4)}.fh4{stroke:none;fill:url(#h4)}.sv4{fill:none;stroke:url(#v4)}.fv4{stroke:none;fill:url(#v4)}.s5{fill:none;stroke:rgb(34,34,34)}.f5{stroke:none;fill:rgb(34,34,34)}.sh5{fill:none;stroke:url(#h5)}.fh5{stroke:none;fill:url(#h5)}.sv5{fill:none;stroke:url(#v5)}.fv5{stroke:none;fill:url(#v5)}.s6{fill:none;stroke:rgb(255,255,255)}.f6{stroke:none;fill:rgb(255,255,255)}.sh6{fill:none;stroke:url(#h6)}.fh6{stroke:none;fill:url(#h6)}.sv6{fill:none;stroke:url(#v6)}.fv6{stroke:none;fill:url(#v6)}.s7{fill:none;stroke:rgb(255,0,0)}.f7{stroke:none;fill:rgb(255,0,0)}.sh7{fill:none;stroke:url(#h7)}.fh7{stroke:none;fill:url(#h7)}.sv7{fill:none;stroke:url(#v7)}.fv7{stroke:none;fill:url(#v7)}/*]]>*/</style><defs><linearGradient gradientTransform="rotate(90)" id="hs"><stop offset="20%" stop-color="#000" /><stop offset="95%" stop-color="rgba(0, 0, 0, 0)" /></linearGradient><linearGradient id="vs"><stop offset="20%" stop-color="#000" /><stop offset="95%" stop-color="rgba(0, 0, 0, 0)" /></linearGradient><linearGradient gradientTransform="rotate(90)" id="h1"><stop offset="20%" stop-color="rgba(0,100,148,1)" /><stop offset="95%" stop-color="rgba(0,100,148,0)" /></linearGradient><linearGradient id="v1"><stop offset="20%" stop-color="rgba(0,100,148,1)" /><stop offset="95%" stop-color="rgba(0,100,148,0)" /></linearGradient><linearGradient gradientTransform="rotate(90)" id="h2"><stop offset="20%" stop-color="rgba(19,41,61,1)" /><stop offset="95%" stop-color="rgba(19,41,61,0)" /></linearGradient><linearGradient id="v2"><stop offset="20%" stop-color="rgba(19,41,61,1)" /><stop offset="95%" stop-color="rgba(19,41,61,0)" /></linearGradient><linearGradient gradientTransform="rotate(90)" id="h3"><stop offset="20%" stop-color="rgba(36,123,160,1)" /><stop offset="95%" stop-color="rgba(36,123,160,0)" /></linearGradient><linearGradient id="v3"><stop offset="20%" stop-color="rgba(36,123,160,1)" /><stop offset="95%" stop-color="rgba(36,123,160,0)" /></linearGradient><linearGradient gradientTransform="rotate(90)" id="h4"><stop offset="20%" stop-color="rgba(232,241,242,1)" /><stop offset="95%" stop-color="rgba(232,241,242,0)" /></linearGradient><linearGradient id="v4"><stop offset="20%" stop-color="rgba(232,241,242,1)" /><stop offset="95%" stop-color="rgba(232,241,242,0)" /></linearGradient><linearGradient gradientTransform="rotate(90)" id="h5"><stop offset="20%" stop-color="rgba(34,34,34,1)" /><stop offset="95%" stop-color="rgba(34,34,34,0)" /></linearGradient><linearGradient id="v5"><stop offset="20%" stop-color="rgba(34,34,34,1)" /><stop offset="95%" stop-color="rgba(34,34,34,0)" /></linearGradient><linearGradient gradientTransform="rotate(90)" id="h6"><stop offset="20%" stop-color="rgba(255,255,255,1)" /><stop offset="95%" stop-color="rgba(255,255,255,0)" /></linearGradient><linearGradient id="v6"><stop offset="20%" stop-color="rgba(255,255,255,1)" /><stop offset="95%" stop-color="rgba(255,255,255,0)" /></linearGradient><linearGradient gradientTransform="rotate(90)" id="h7"><stop offset="20%" stop-color="rgba(255,0,0,1)" /><stop offset="95%" stop-color="rgba(255,0,0,0)" /></linearGradient><linearGradient id="v7"><stop offset="20%" stop-color="rgba(255,0,0,1)" /><stop offset="95%" stop-color="rgba(255,0,0,0)" /></linearGradient></defs><g transform-origin="1500 1500" transform="scale(2)" opacity=".2"><g id="slashes"><g class="o"><path transform="translate(5,10)" class="S sfv" d="M1160 1021 L716 1465 L716 1497 L1160 1053 Z"/><path class="fv3" d="M1160 1021 L716 1465 L716 1497 L1160 1053 Z" /></g><g class="o"><path transform="translate(4,8)" class="S sf" d="M1186 1114 L907 1393 L917 1393 L1196 1114 Z"/><path class="f2" d="M1186 1114 L907 1393 L917 1393 L1196 1114 Z" /></g><g class="o"><path transform="translate(6,12)" class="S sfh" d="M1759 1112 L1585 1286 L1599 1286 L1773 1112 Z"/><path class="fh5" d="M1759 1112 L1585 1286 L1599 1286 L1773 1112 Z" /></g><g class="o"><path transform="translate(4,8)" class="S ss" d="M1896 1961 L1521 2336 L1543 2336 L1918 1961 Z"/><path class="s3" d="M1896 1961 L1521 2336 L1543 2336 L1918 1961 Z" /></g><g class="o"><path transform="translate(3,6)" class="S sfh" d="M1124 1237 L942 1419 L1006 1419 L1188 1237 Z"/><path class="fh1" d="M1124 1237 L942 1419 L1006 1419 L1188 1237 Z" /></g><g class="o"><path transform="translate(5,10)" class="S ssv" d="M1488 1418 L969 1937 L969 1945 L1488 1426 Z"/><path class="sv1" d="M1488 1418 L969 1937 L969 1945 L1488 1426 Z" /></g><g class="o"><path transform="translate(5,10)" class="S ssh" d="M1369 1461 L631 2199 L695 2199 L1433 1461 Z"/><path class="sh5" d="M1369 1461 L631 2199 L695 2199 L1433 1461 Z" /></g><g class="o"><path transform="translate(4,8)" class="S sfv" d="M1672 1732 L1502 1902 L1502 1936 L1672 1766 Z"/><path class="fv6" d="M1672 1732 L1502 1902 L1502 1936 L1672 1766 Z" /></g><g class="o"><path transform="translate(5,10)" class="S sf" d="M1342 1964 L1164 2142 L1164 2294 L1342 2116 Z"/><path class="f1" d="M1342 1964 L1164 2142 L1164 2294 L1342 2116 Z" /></g><g class="o"><path transform="translate(8,16)" class="S sfv" d="M1634 1695 L1500 1829 L1500 1861 L1634 1727 Z"/><path class="fv3" d="M1634 1695 L1500 1829 L1500 1861 L1634 1727 Z" /></g><g class="o"><path transform="translate(3,6)" class="S sfv" d="M1562 1944 L1345 2161 L1345 2179 L1562 1962 Z"/><path class="fv7" d="M1562 1944 L1345 2161 L1345 2179 L1562 1962 Z" /></g><g class="o"><path transform="translate(4,8)" class="S ss" d="M1214 1205 L740 1679 L768 1679 L1242 1205 Z"/><path class="s6" d="M1214 1205 L740 1679 L768 1679 L1242 1205 Z" /></g><g class="o"><path transform="translate(2,4)" class="S sf" d="M1500 1630 L1306 1824 L1306 1852 L1500 1658 Z"/><path class="f6" d="M1500 1630 L1306 1824 L1306 1852 L1500 1658 Z" /></g><g class="o"><path transform="translate(9,18)" class="S ss" d="M1596 1969 L1357 2208 L1357 2224 L1596 1985 Z"/><path class="s5" d="M1596 1969 L1357 2208 L1357 2224 L1596 1985 Z" /></g><g class="o"><path transform="translate(3,6)" class="S sfv" d="M1670 1493 L1593 1570 L1593 1580 L1670 1503 Z"/><path class="fv4" d="M1670 1493 L1593 1570 L1593 1580 L1670 1503 Z" /></g><g class="o"><path transform="translate(3,6)" class="S ssv" d="M2020 1023 L1459 1584 L1459 1632 L2020 1071 Z"/><path class="sv5" d="M2020 1023 L1459 1584 L1459 1632 L2020 1071 Z" /></g><g class="o"><path transform="translate(9,18)" class="S sf" d="M1535 1225 L1382 1378 L1382 1450 L1535 1297 Z"/><path class="f7" d="M1535 1225 L1382 1378 L1382 1450 L1535 1297 Z" /></g><g class="o"><path transform="translate(5,10)" class="S ssv" d="M1552 1587 L1048 2091 L1048 2113 L1552 1609 Z"/><path class="sv2" d="M1552 1587 L1048 2091 L1048 2113 L1552 1609 Z" /></g><g class="o"><path transform="translate(4,8)" class="S sfv" d="M1403 1477 L1156 1724 L1156 1876 L1403 1629 Z"/><path class="fv1" d="M1403 1477 L1156 1724 L1156 1876 L1403 1629 Z" /></g><g class="o"><path transform="translate(4,8)" class="S sfh" d="M1687 1045 L1627 1105 L1647 1105 L1707 1045 Z"/><path class="fh2" d="M1687 1045 L1627 1105 L1647 1105 L1707 1045 Z" /></g><g class="o"><path transform="translate(2,4)" class="S sfh" d="M1726 1896 L1545 2077 L1563 2077 L1744 1896 Z"/><path class="fh4" d="M1726 1896 L1545 2077 L1563 2077 L1744 1896 Z" /></g><g class="o"><path transform="translate(4,8)" class="S ssv" d="M1356 1790 L1164 1982 L1164 2020 L1356 1828 Z"/><path class="sv6" d="M1356 1790 L1164 1982 L1164 2020 L1356 1828 Z" /></g><g class="o"><path transform="translate(5,10)" class="S sfh" d="M1701 1822 L1494 2029 L1566 2029 L1773 1822 Z"/><path class="fh6" d="M1701 1822 L1494 2029 L1566 2029 L1773 1822 Z" /></g><g class="o"><path transform="translate(6,12)" class="S sfh" d="M1611 1674 L1388 1897 L1492 1897 L1715 1674 Z"/><path class="fh1" d="M1611 1674 L1388 1897 L1492 1897 L1715 1674 Z" /></g><g class="o"><path transform="translate(9,18)" class="S ssv" d="M1619 1709 L1524 1804 L1524 1956 L1619 1861 Z"/><path class="sv3" d="M1619 1709 L1524 1804 L1524 1956 L1619 1861 Z" /></g><g class="o"><path transform="translate(3,6)" class="S ssh" d="M1852 2033 L1795 2090 L1891 2090 L1948 2033 Z"/><path class="sh4" d="M1852 2033 L1795 2090 L1891 2090 L1948 2033 Z" /></g><g class="o"><path transform="translate(7,14)" class="S sfv" d="M1301 1530 L1207 1624 L1207 1634 L1301 1540 Z"/><path class="fv1" d="M1301 1530 L1207 1624 L1207 1634 L1301 1540 Z" /></g><g class="o"><path transform="translate(3,6)" class="S sfv" d="M1844 976 L1268 1552 L1268 1578 L1844 1002 Z"/><path class="fv5" d="M1844 976 L1268 1552 L1268 1578 L1844 1002 Z" /></g><g class="o"><path transform="translate(8,16)" class="S sfv" d="M1322 1096 L1165 1253 L1165 1271 L1322 1114 Z"/><path class="fv4" d="M1322 1096 L1165 1253 L1165 1271 L1322 1114 Z" /></g><g class="o"><path transform="translate(5,10)" class="S sfh" d="M1748 1387 L1516 1619 L1548 1619 L1780 1387 Z"/><path class="fh5" d="M1748 1387 L1516 1619 L1548 1619 L1780 1387 Z" /></g><g class="o"><path transform="translate(4,8)" class="S sfh" d="M931 1156 L786 1301 L850 1301 L995 1156 Z"/><path class="fh4" d="M931 1156 L786 1301 L850 1301 L995 1156 Z" /></g><g class="o"><path transform="translate(6,12)" class="S sf" d="M2003 1386 L1773 1616 L1773 1652 L2003 1422 Z"/><path class="f5" d="M2003 1386 L1773 1616 L1773 1652 L2003 1422 Z" /></g><g class="o"><path transform="translate(7,14)" class="S sf" d="M1654 1787 L1428 2013 L1428 2093 L1654 1867 Z"/><path class="f2" d="M1654 1787 L1428 2013 L1428 2093 L1654 1867 Z" /></g><g class="o"><path transform="translate(5,10)" class="S sfv" d="M1507 2009 L1315 2201 L1315 2227 L1507 2035 Z"/><path class="fv5" d="M1507 2009 L1315 2201 L1315 2227 L1507 2035 Z" /></g><g class="o"><path transform="translate(2,4)" class="S sfh" d="M1478 1413 L1410 1481 L1514 1481 L1582 1413 Z"/><path class="fh4" d="M1478 1413 L1410 1481 L1514 1481 L1582 1413 Z" /></g><g class="o"><path transform="translate(3,6)" class="S sfh" d="M1736 1133 L1587 1282 L1699 1282 L1848 1133 Z"/><path class="fh1" d="M1736 1133 L1587 1282 L1699 1282 L1848 1133 Z" /></g><g class="o"><path transform="translate(9,18)" class="S sf" d="M1172 1100 L951 1321 L975 1321 L1196 1100 Z"/><path class="f3" d="M1172 1100 L951 1321 L975 1321 L1196 1100 Z" /></g><g class="o"><path transform="translate(3,6)" class="S ss" d="M1951 1510 L1811 1650 L1819 1650 L1959 1510 Z"/><path class="s7" d="M1951 1510 L1811 1650 L1819 1650 L1959 1510 Z" /></g><g class="o"><path transform="translate(2,4)" class="S sf" d="M1165 968 L1002 1131 L1016 1131 L1179 968 Z"/><path class="f7" d="M1165 968 L1002 1131 L1016 1131 L1179 968 Z" /></g><g class="o"><path transform="translate(8,16)" class="S sfh" d="M1299 1784 L1160 1923 L1296 1923 L1435 1784 Z"/><path class="fh3" d="M1299 1784 L1160 1923 L1296 1923 L1435 1784 Z" /></g><g class="o"><path transform="translate(5,10)" class="S sfh" d="M1281 1315 L1186 1410 L1274 1410 L1369 1315 Z"/><path class="fh7" d="M1281 1315 L1186 1410 L1274 1410 L1369 1315 Z" /></g><g class="o"><path transform="translate(5,10)" class="S ssv" d="M1305 1378 L1119 1564 L1119 1612 L1305 1426 Z"/><path class="sv2" d="M1305 1378 L1119 1564 L1119 1612 L1305 1426 Z" /></g><g class="o"><path transform="translate(6,12)" class="S sfh" d="M1916 1086 L1532 1470 L1546 1470 L1930 1086 Z"/><path class="fh2" d="M1916 1086 L1532 1470 L1546 1470 L1930 1086 Z" /></g><g class="o"><path transform="translate(8,16)" class="S sfv" d="M1277 1181 L662 1796 L662 1916 L1277 1301 Z"/><path class="fv7" d="M1277 1181 L662 1796 L662 1916 L1277 1301 Z" /></g><g class="o"><path transform="translate(6,12)" class="S sfh" d="M1224 1171 L1163 1232 L1181 1232 L1242 1171 Z"/><path class="fh6" d="M1224 1171 L1163 1232 L1181 1232 L1242 1171 Z" /></g><g class="o"><path transform="translate(8,16)" class="S sfv" d="M1225 1669 L1152 1742 L1152 1830 L1225 1757 Z"/><path class="fv6" d="M1225 1669 L1152 1742 L1152 1830 L1225 1757 Z" /></g><g class="o"><path transform="translate(8,16)" class="S sfh" d="M948 1365 L820 1493 L838 1493 L966 1365 Z"/><path class="fh2" d="M948 1365 L820 1493 L838 1493 L966 1365 Z" /></g><g class="o"><path transform="translate(2,4)" class="S sfv" d="M1397 1770 L1241 1926 L1241 1964 L1397 1808 Z"/><path class="fv1" d="M1397 1770 L1241 1926 L1241 1964 L1397 1808 Z" /></g><g class="o"><path transform="translate(9,18)" class="S sfv" d="M1463 1255 L1290 1428 L1290 1454 L1463 1281 Z"/><path class="fv5" d="M1463 1255 L1290 1428 L1290 1454 L1463 1281 Z" /></g><g class="o"><path transform="translate(8,16)" class="S sfh" d="M1354 1995 L1295 2054 L1309 2054 L1368 1995 Z"/><path class="fh3" d="M1354 1995 L1295 2054 L1309 2054 L1368 1995 Z" /></g><g class="o"><path transform="translate(2,4)" class="S sfh" d="M1227 1610 L1002 1835 L1074 1835 L1299 1610 Z"/><path class="fh4" d="M1227 1610 L1002 1835 L1074 1835 L1299 1610 Z" /></g><g class="o"><path transform="translate(2,4)" class="S sfv" d="M1838 2035 L1713 2160 L1713 2188 L1838 2063 Z"/><path class="fv1" d="M1838 2035 L1713 2160 L1713 2188 L1838 2063 Z" /></g><g class="o"><path transform="translate(4,8)" class="S sf" d="M1686 1366 L1604 1448 L1676 1448 L1758 1366 Z"/><path class="f3" d="M1686 1366 L1604 1448 L1676 1448 L1758 1366 Z" /></g><g class="o"><path transform="translate(6,12)" class="S sfh" d="M1048 1217 L803 1462 L835 1462 L1080 1217 Z"/><path class="fh2" d="M1048 1217 L803 1462 L835 1462 L1080 1217 Z" /></g><g class="o"><path transform="translate(5,10)" class="S ss" d="M1629 1706 L1556 1779 L1556 1875 L1629 1802 Z"/><path class="s5" d="M1629 1706 L1556 1779 L1556 1875 L1629 1802 Z" /></g><g class="o"><path transform="translate(9,18)" class="S sfh" d="M1008 1507 L815 1700 L855 1700 L1048 1507 Z"/><path class="fh1" d="M1008 1507 L815 1700 L855 1700 L1048 1507 Z" /></g><g class="o"><path transform="translate(4,8)" class="S sfh" d="M1634 2022 L1506 2150 L1526 2150 L1654 2022 Z"/><path class="fh1" d="M1634 2022 L1506 2150 L1526 2150 L1654 2022 Z" /></g><g class="o"><path transform="translate(6,12)" class="S sfh" d="M1667 1037 L1596 1108 L1700 1108 L1771 1037 Z"/><path class="fh5" d="M1667 1037 L1596 1108 L1700 1108 L1771 1037 Z" /></g><g class="o"><path transform="translate(5,10)" class="S sfh" d="M1362 1330 L654 2038 L734 2038 L1442 1330 Z"/><path class="fh3" d="M1362 1330 L654 2038 L734 2038 L1442 1330 Z" /></g><g class="o"><path transform="translate(3,6)" class="S sfh" d="M1890 1044 L1725 1209 L1829 1209 L1994 1044 Z"/><path class="fh1" d="M1890 1044 L1725 1209 L1829 1209 L1994 1044 Z" /></g><g class="o"><path transform="translate(3,6)" class="S sfh" d="M1700 1477 L1607 1570 L1727 1570 L1820 1477 Z"/><path class="fh5" d="M1700 1477 L1607 1570 L1727 1570 L1820 1477 Z" /></g><g class="o"><path transform="translate(3,6)" class="S sf" d="M1492 1020 L1287 1225 L1319 1225 L1524 1020 Z"/><path class="f2" d="M1492 1020 L1287 1225 L1319 1225 L1524 1020 Z" /></g><g class="o"><path transform="translate(7,14)" class="S sfv" d="M1994 1584 L1850 1728 L1850 1746 L1994 1602 Z"/><path class="fv4" d="M1994 1584 L1850 1728 L1850 1746 L1994 1602 Z" /></g><g class="o"><path transform="translate(8,16)" class="S sfv" d="M1506 1667 L870 2303 L870 2319 L1506 1683 Z"/><path class="fv4" d="M1506 1667 L870 2303 L870 2319 L1506 1683 Z" /></g><g class="o"><path transform="translate(2,4)" class="S ssh" d="M1773 1769 L1620 1922 L1634 1922 L1787 1769 Z"/><path class="sh5" d="M1773 1769 L1620 1922 L1634 1922 L1787 1769 Z" /></g><g class="o"><path transform="translate(2,4)" class="S sfh" d="M1615 1509 L1402 1722 L1426 1722 L1639 1509 Z"/><path class="fh4" d="M1615 1509 L1402 1722 L1426 1722 L1639 1509 Z" /></g><g class="o"><path transform="translate(9,18)" class="S sfh" d="M1065 1409 L936 1538 L954 1538 L1083 1409 Z"/><path class="fh6" d="M1065 1409 L936 1538 L954 1538 L1083 1409 Z" /></g><g class="o"><path transform="translate(6,12)" class="S sfv" d="M1856 1793 L1205 2444 L1205 2596 L1856 1945 Z"/><path class="fv6" d="M1856 1793 L1205 2444 L1205 2596 L1856 1945 Z" /></g><g class="o"><path transform="translate(9,18)" class="S sfh" d="M1375 1143 L1273 1245 L1283 1245 L1385 1143 Z"/><path class="fh5" d="M1375 1143 L1273 1245 L1283 1245 L1385 1143 Z" /></g><g class="o"><path transform="translate(9,18)" class="S ssv" d="M987 1334 L300 2021 L300 2165 L987 1478 Z"/><path class="sv6" d="M987 1334 L300 2021 L300 2165 L987 1478 Z" /></g><g class="o"><path transform="translate(8,16)" class="S ssv" d="M1136 1355 L930 1561 L930 1705 L1136 1499 Z"/><path class="sv1" d="M1136 1355 L930 1561 L930 1705 L1136 1499 Z" /></g><g class="o"><path transform="translate(7,14)" class="S sfv" d="M1077 938 L933 1082 L933 1186 L1077 1042 Z"/><path class="fv4" d="M1077 938 L933 1082 L933 1186 L1077 1042 Z" /></g><g class="o"><path transform="translate(8,16)" class="S sfh" d="M1902 951 L1739 1114 L1803 1114 L1966 951 Z"/><path class="fh6" d="M1902 951 L1739 1114 L1803 1114 L1966 951 Z" /></g><g class="o"><path transform="translate(8,16)" class="S sfv" d="M950 961 L768 1143 L768 1151 L950 969 Z"/><path class="fv5" d="M950 961 L768 1143 L768 1151 L950 969 Z" /></g><g class="o"><path transform="translate(9,18)" class="S sfh" d="M1052 1520 L946 1626 L980 1626 L1086 1520 Z"/><path class="fh1" d="M1052 1520 L946 1626 L980 1626 L1086 1520 Z" /></g><g class="o"><path transform="translate(6,12)" class="S ssh" d="M1824 1968 L1284 2508 L1314 2508 L1854 1968 Z"/><path class="sh7" d="M1824 1968 L1284 2508 L1314 2508 L1854 1968 Z" /></g><g class="o"><path transform="translate(2,4)" class="S ss" d="M1635 2001 L1414 2222 L1486 2222 L1707 2001 Z"/><path class="s5" d="M1635 2001 L1414 2222 L1486 2222 L1707 2001 Z" /></g><g class="o"><path transform="translate(2,4)" class="S sf" d="M2031 1855 L1879 2007 L1879 2151 L2031 1999 Z"/><path class="f6" d="M2031 1855 L1879 2007 L1879 2151 L2031 1999 Z" /></g><g class="o"><path transform="translate(3,6)" class="S sfh" d="M1074 1542 L931 1685 L971 1685 L1114 1542 Z"/><path class="fh2" d="M1074 1542 L931 1685 L971 1685 L1114 1542 Z" /></g><g class="o"><path transform="translate(5,10)" class="S sfh" d="M1095 1313 L887 1521 L1007 1521 L1215 1313 Z"/><path class="fh1" d="M1095 1313 L887 1521 L1007 1521 L1215 1313 Z" /></g><g class="o"><path transform="translate(3,6)" class="S sfv" d="M2012 1142 L1703 1451 L1703 1461 L2012 1152 Z"/><path class="fv5" d="M2012 1142 L1703 1451 L1703 1461 L2012 1152 Z" /></g><g class="o"><path transform="translate(5,10)" class="S sfv" d="M1717 1278 L1631 1364 L1631 1388 L1717 1302 Z"/><path class="fv5" d="M1717 1278 L1631 1364 L1631 1388 L1717 1302 Z" /></g><g class="o"><path transform="translate(9,18)" class="S sfv" d="M1026 1863 L807 2082 L807 2138 L1026 1919 Z"/><path class="fv3" d="M1026 1863 L807 2082 L807 2138 L1026 1919 Z" /></g><g class="o"><path transform="translate(9,18)" class="S sfv" d="M1556 1881 L1402 2035 L1402 2059 L1556 1905 Z"/><path class="fv1" d="M1556 1881 L1402 2035 L1402 2059 L1556 1905 Z" /></g><g class="o"><path transform="translate(4,8)" class="S sfh" d="M1470 1998 L897 2571 L937 2571 L1510 1998 Z"/><path class="fh4" d="M1470 1998 L897 2571 L937 2571 L1510 1998 Z" /></g><g class="o"><path transform="translate(7,14)" class="S sfh" d="M1893 1946 L1794 2045 L1822 2045 L1921 1946 Z"/><path class="fh3" d="M1893 1946 L1794 2045 L1822 2045 L1921 1946 Z" /></g><g class="o"><path transform="translate(8,16)" class="S sfv" d="M993 1931 L942 1982 L942 2030 L993 1979 Z"/><path class="fv3" d="M993 1931 L942 1982 L942 2030 L993 1979 Z" /></g><g class="o"><path transform="translate(3,6)" class="S ssh" d="M1043 1550 L911 1682 L931 1682 L1063 1550 Z"/><path class="sh7" d="M1043 1550 L911 1682 L931 1682 L1063 1550 Z" /></g><g class="o"><path transform="translate(7,14)" class="S sfh" d="M1514 1361 L917 1958 L945 1958 L1542 1361 Z"/><path class="fh1" d="M1514 1361 L917 1958 L945 1958 L1542 1361 Z" /></g><g class="o"><path transform="translate(9,18)" class="S sf" d="M1097 1551 L1009 1639 L1041 1639 L1129 1551 Z"/><path class="f4" d="M1097 1551 L1009 1639 L1041 1639 L1129 1551 Z" /></g><g class="o"><path transform="translate(4,8)" class="S sf" d="M1169 1910 L1092 1987 L1092 2099 L1169 2022 Z"/><path class="f4" d="M1169 1910 L1092 1987 L1092 2099 L1169 2022 Z" /></g><g class="o"><path transform="translate(2,4)" class="S sf" d="M1469 1477 L1255 1691 L1279 1691 L1493 1477 Z"/><path class="f5" d="M1469 1477 L1255 1691 L1279 1691 L1493 1477 Z" /></g><g class="o"><path transform="translate(5,10)" class="S sfv" d="M1086 1459 L1029 1516 L1029 1652 L1086 1595 Z"/><path class="fv4" d="M1086 1459 L1029 1516 L1029 1652 L1086 1595 Z" /></g><g class="o"><path transform="translate(3,6)" class="S sfv" d="M1803 951 L1698 1056 L1698 1090 L1803 985 Z"/><path class="fv3" d="M1803 951 L1698 1056 L1698 1090 L1803 985 Z" /></g><g class="o"><path transform="translate(4,8)" class="S ss" d="M992 1490 L898 1584 L898 1600 L992 1506 Z"/><path class="s1" d="M992 1490 L898 1584 L898 1600 L992 1506 Z" /></g><g class="o"><path transform="translate(8,16)" class="S sfv" d="M1339 1335 L1140 1534 L1140 1562 L1339 1363 Z"/><path class="fv2" d="M1339 1335 L1140 1534 L1140 1562 L1339 1363 Z" /></g><g class="o"><path transform="translate(2,4)" class="S sfv" d="M1207 1710 L973 1944 L973 2096 L1207 1862 Z"/><path class="fv5" d="M1207 1710 L973 1944 L973 2096 L1207 1862 Z" /></g><g class="o"><path transform="translate(9,18)" class="S sf" d="M1103 1793 L977 1919 L989 1919 L1115 1793 Z"/><path class="f6" d="M1103 1793 L977 1919 L989 1919 L1115 1793 Z" /></g><g class="o"><path transform="translate(7,14)" class="S sfh" d="M1597 1439 L1510 1526 L1638 1526 L1725 1439 Z"/><path class="fh4" d="M1597 1439 L1510 1526 L1638 1526 L1725 1439 Z" /></g><g class="o"><path transform="translate(7,14)" class="S sf" d="M1745 1181 L1478 1448 L1542 1448 L1809 1181 Z"/><path class="f5" d="M1745 1181 L1478 1448 L1542 1448 L1809 1181 Z" /></g><g class="o"><path transform="translate(3,6)" class="S sf" d="M1351 1693 L1248 1796 L1248 1822 L1351 1719 Z"/><path class="f3" d="M1351 1693 L1248 1796 L1248 1822 L1351 1719 Z" /></g><g class="o"><path transform="translate(7,14)" class="S ss" d="M1840 1760 L1745 1855 L1793 1855 L1888 1760 Z"/><path class="s3" d="M1840 1760 L1745 1855 L1793 1855 L1888 1760 Z" /></g><g class="o"><path transform="translate(8,16)" class="S sfh" d="M1454 1720 L1230 1944 L1286 1944 L1510 1720 Z"/><path class="fh2" d="M1454 1720 L1230 1944 L1286 1944 L1510 1720 Z" /></g><g class="o"><path transform="translate(4,8)" class="S ssh" d="M1231 1058 L1061 1228 L1173 1228 L1343 1058 Z"/><path class="sh3" d="M1231 1058 L1061 1228 L1173 1228 L1343 1058 Z" /></g><g class="o"><path transform="translate(2,4)" class="S sfv" d="M2046 1219 L1833 1432 L1833 1496 L2046 1283 Z"/><path class="fv6" d="M2046 1219 L1833 1432 L1833 1496 L2046 1283 Z" /></g><g class="o"><path transform="translate(2,4)" class="S ssv" d="M1679 1585 L1585 1679 L1585 1707 L1679 1613 Z"/><path class="sv7" d="M1679 1585 L1585 1679 L1585 1707 L1679 1613 Z" /></g><g class="o"><path transform="translate(5,10)" class="S ss" d="M1898 1392 L1553 1737 L1553 1817 L1898 1472 Z"/><path class="s1" d="M1898 1392 L1553 1737 L1553 1817 L1898 1472 Z" /></g><g class="o"><path transform="translate(7,14)" class="S sfv" d="M1932 1573 L1692 1813 L1692 1847 L1932 1607 Z"/><path class="fv5" d="M1932 1573 L1692 1813 L1692 1847 L1932 1607 Z" /></g><g class="o"><path transform="translate(9,18)" class="S ss" d="M1347 1985 L1200 2132 L1304 2132 L1451 1985 Z"/><path class="s5" d="M1347 1985 L1200 2132 L1304 2132 L1451 1985 Z" /></g><g class="o"><path transform="translate(8,16)" class="S sfh" d="M1165 1518 L1057 1626 L1097 1626 L1205 1518 Z"/><path class="fh7" d="M1165 1518 L1057 1626 L1097 1626 L1205 1518 Z" /></g><g class="o"><path transform="translate(4,8)" class="S sfh" d="M1901 1281 L1735 1447 L1759 1447 L1925 1281 Z"/><path class="fh6" d="M1901 1281 L1735 1447 L1759 1447 L1925 1281 Z" /></g><g class="o"><path transform="translate(2,4)" class="S sfv" d="M2033 1316 L1813 1536 L1813 1558 L2033 1338 Z"/><path class="fv1" d="M2033 1316 L1813 1536 L1813 1558 L2033 1338 Z" /></g><g class="o"><path transform="translate(3,6)" class="S sfv" d="M1465 1067 L1250 1282 L1250 1300 L1465 1085 Z"/><path class="fv2" d="M1465 1067 L1250 1282 L1250 1300 L1465 1085 Z" /></g><g class="o"><path transform="translate(6,12)" class="S sfv" d="M1918 1570 L1384 2104 L1384 2122 L1918 1588 Z"/><path class="fv3" d="M1918 1570 L1384 2104 L1384 2122 L1918 1588 Z" /></g><g class="o"><path transform="translate(9,18)" class="S ss" d="M1639 1818 L901 2556 L901 2584 L1639 1846 Z"/><path class="s6" d="M1639 1818 L901 2556 L901 2584 L1639 1846 Z" /></g><g class="o"><path transform="translate(4,8)" class="S sfv" d="M1320 1451 L1162 1609 L1162 1629 L1320 1471 Z"/><path class="fv5" d="M1320 1451 L1162 1609 L1162 1629 L1320 1471 Z" /></g><g class="o"><path transform="translate(5,10)" class="S ssh" d="M1422 1484 L1225 1681 L1273 1681 L1470 1484 Z"/><path class="sh5" d="M1422 1484 L1225 1681 L1273 1681 L1470 1484 Z" /></g><g class="o"><path transform="translate(9,18)" class="S sfh" d="M1689 1701 L1554 1836 L1590 1836 L1725 1701 Z"/><path class="fh6" d="M1689 1701 L1554 1836 L1590 1836 L1725 1701 Z" /></g><g class="o"><path transform="translate(3,6)" class="S ss" d="M1422 1721 L1231 1912 L1231 1968 L1422 1777 Z"/><path class="s5" d="M1422 1721 L1231 1912 L1231 1968 L1422 1777 Z" /></g><g class="o"><path transform="translate(2,4)" class="S sfh" d="M1038 1622 L964 1696 L996 1696 L1070 1622 Z"/><path class="fh5" d="M1038 1622 L964 1696 L996 1696 L1070 1622 Z" /></g><g class="o"><path transform="translate(4,8)" class="S sfh" d="M1908 1009 L1803 1114 L1815 1114 L1920 1009 Z"/><path class="fh4" d="M1908 1009 L1803 1114 L1815 1114 L1920 1009 Z" /></g><g class="o"><path transform="translate(9,18)" class="S sfh" d="M1850 2022 L1160 2712 L1180 2712 L1870 2022 Z"/><path class="fh3" d="M1850 2022 L1160 2712 L1180 2712 L1870 2022 Z" /></g><g class="o"><path transform="translate(7,14)" class="S ssv" d="M1763 1502 L1654 1611 L1654 1763 L1763 1654 Z"/><path class="sv6" d="M1763 1502 L1654 1611 L1654 1763 L1763 1654 Z" /></g><g class="o"><path transform="translate(4,8)" class="S sf" d="M1988 1489 L1801 1676 L1801 1772 L1988 1585 Z"/><path class="f7" d="M1988 1489 L1801 1676 L1801 1772 L1988 1585 Z" /></g><g class="o"><path transform="translate(8,16)" class="S sfv" d="M1549 1904 L1372 2081 L1372 2097 L1549 1920 Z"/><path class="fv5" d="M1549 1904 L1372 2081 L1372 2097 L1549 1920 Z" /></g><g class="o"><path transform="translate(9,18)" class="S ss" d="M1852 1867 L1764 1955 L1764 1987 L1852 1899 Z"/><path class="s1" d="M1852 1867 L1764 1955 L1764 1987 L1852 1899 Z" /></g><g class="o"><path transform="translate(5,10)" class="S sfv" d="M1886 1122 L1514 1494 L1514 1516 L1886 1144 Z"/><path class="fv2" d="M1886 1122 L1514 1494 L1514 1516 L1886 1144 Z" /></g><g class="o"><path transform="translate(8,16)" class="S sfv" d="M1412 1232 L1214 1430 L1214 1574 L1412 1376 Z"/><path class="fv3" d="M1412 1232 L1214 1430 L1214 1574 L1412 1376 Z" /></g><g class="o"><path transform="translate(7,14)" class="S sf" d="M1135 977 L976 1136 L1008 1136 L1167 977 Z"/><path class="f6" d="M1135 977 L976 1136 L1008 1136 L1167 977 Z" /></g><g class="o"><path transform="translate(5,10)" class="S sfh" d="M1823 1693 L1674 1842 L1690 1842 L1839 1693 Z"/><path class="fh1" d="M1823 1693 L1674 1842 L1690 1842 L1839 1693 Z" /></g><g class="o"><path transform="translate(5,10)" class="S sfh" d="M1312 1550 L583 2279 L615 2279 L1344 1550 Z"/><path class="fh4" d="M1312 1550 L583 2279 L615 2279 L1344 1550 Z" /></g><g class="o"><path transform="translate(3,6)" class="S ssv" d="M1752 1156 L1563 1345 L1563 1361 L1752 1172 Z"/><path class="sv3" d="M1752 1156 L1563 1345 L1563 1361 L1752 1172 Z" /></g><g class="o"><path transform="translate(6,12)" class="S ssv" d="M1418 1107 L1278 1247 L1278 1279 L1418 1139 Z"/><path class="sv4" d="M1418 1107 L1278 1247 L1278 1279 L1418 1139 Z" /></g><g class="o"><path transform="translate(3,6)" class="S ssh" d="M942 1103 L826 1219 L842 1219 L958 1103 Z"/><path class="sh4" d="M942 1103 L826 1219 L842 1219 L958 1103 Z" /></g><g class="o"><path transform="translate(6,12)" class="S sf" d="M1224 1587 L1003 1808 L1003 1816 L1224 1595 Z"/><path class="f4" d="M1224 1587 L1003 1808 L1003 1816 L1224 1595 Z" /></g><g class="o"><path transform="translate(4,8)" class="S sfv" d="M1083 1627 L927 1783 L927 1935 L1083 1779 Z"/><path class="fv4" d="M1083 1627 L927 1783 L927 1935 L1083 1779 Z" /></g><g class="o"><path transform="translate(2,4)" class="S sfv" d="M1450 1555 L1245 1760 L1245 1912 L1450 1707 Z"/><path class="fv6" d="M1450 1555 L1245 1760 L1245 1912 L1450 1707 Z" /></g><g class="o"><path transform="translate(2,4)" class="S sfh" d="M1791 1041 L1176 1656 L1312 1656 L1927 1041 Z"/><path class="fh1" d="M1791 1041 L1176 1656 L1312 1656 L1927 1041 Z" /></g><g class="o"><path transform="translate(6,12)" class="S ssh" d="M1988 1775 L1913 1850 L1977 1850 L2052 1775 Z"/><path class="sh2" d="M1988 1775 L1913 1850 L1977 1850 L2052 1775 Z" /></g><g class="o"><path transform="translate(2,4)" class="S ss" d="M962 1055 L864 1153 L864 1241 L962 1143 Z"/><path class="s2" d="M962 1055 L864 1153 L864 1241 L962 1143 Z" /></g></g><use href="#slashes" transform-origin="1500 1500" transform="rotate(180) scale(2)"/></g><circle cx="1500" cy="1500" r="450" stroke-width="80" class="o s4" /><use href="#slashes" transform-origin="1500 1500" transform="scale(.9)"/><use href="#slashes" transform-origin="1500 1500" transform="rotate(180) scale(.9)"/></svg>