<svg xmlns="http://www.w3.org/2000/svg" viewBox="750 750 1500 1500"><style>/*<![CDATA[*/svg{background:rgb(11,79,108);max-width:100vw;max-height:100vh}path{stroke-width:4}.o{opacity:.75}.S{opacity:.4}.sf{stroke:none;fill:black}.sfh{stroke:none;fill:url(#hs)}.sfv{stroke:none;fill:url(#vs)}.ss{stroke:black;fill:none}.ssh{stroke:url(#hs);fill:none}.ssv{stroke:url(#vs);fill:none}.s1{fill:none;stroke:rgb(117,117,117)}.f1{stroke:none;fill:rgb(117,117,117)}.sh1{fill:none;stroke:url(#h1)}.fh1{stroke:none;fill:url(#h1)}.sv1{fill:none;stroke:url(#v1)}.fv1{stroke:none;fill:url(#v1)}.s2{fill:none;stroke:rgb(41,42,115)}.f2{stroke:none;fill:rgb(41,42,115)}.sh2{fill:none;stroke:url(#h2)}.fh2{stroke:none;fill:url(#h2)}.sv2{fill:none;stroke:url(#v2)}.fv2{stroke:none;fill:url(#v2)}.s3{fill:none;stroke:rgb(251,251,255)}.f3{stroke:none;fill:rgb(251,251,255)}.sh3{fill:none;stroke:url(#h3)}.fh3{stroke:none;fill:url(#h3)}.sv3{fill:none;stroke:url(#v3)}.fv3{stroke:none;fill:url(#v3)}.s4{fill:none;stroke:rgb(32,191,85)}.f4{stroke:none;fill:rgb(32,191,85)}.sh4{fill:none;stroke:url(#h4)}.fh4{stroke:none;fill:url(#h4)}.sv4{fill:none;stroke:url(#v4)}.fv4{stroke:none;fill:url(#v4)}.s5{fill:none;stroke:rgb(34,34,34)}.f5{stroke:none;fill:rgb(34,34,34)}.sh5{fill:none;stroke:url(#h5)}.fh5{stroke:none;fill:url(#h5)}.sv5{fill:none;stroke:url(#v5)}.fv5{stroke:none;fill:url(#v5)}.s6{fill:none;stroke:rgb(255,255,255)}.f6{stroke:none;fill:rgb(255,255,255)}.sh6{fill:none;stroke:url(#h6)}.fh6{stroke:none;fill:url(#h6)}.sv6{fill:none;stroke:url(#v6)}.fv6{stroke:none;fill:url(#v6)}.s7{fill:none;stroke:rgb(255,0,0)}.f7{stroke:none;fill:rgb(255,0,0)}.sh7{fill:none;stroke:url(#h7)}.fh7{stroke:none;fill:url(#h7)}.sv7{fill:none;stroke:url(#v7)}.fv7{stroke:none;fill:url(#v7)}/*]]>*/</style><defs><linearGradient gradientTransform="rotate(90)" id="hs"><stop offset="20%" stop-color="#000" /><stop offset="95%" stop-color="rgba(0, 0, 0, 0)" /></linearGradient><linearGradient id="vs"><stop offset="20%" stop-color="#000" /><stop offset="95%" stop-color="rgba(0, 0, 0, 0)" /></linearGradient><linearGradient gradientTransform="rotate(90)" id="h1"><stop offset="20%" stop-color="rgba(117,117,117,1)" /><stop offset="95%" stop-color="rgba(117,117,117,0)" /></linearGradient><linearGradient id="v1"><stop offset="20%" stop-color="rgba(117,117,117,1)" /><stop offset="95%" stop-color="rgba(117,117,117,0)" /></linearGradient><linearGradient gradientTransform="rotate(90)" id="h2"><stop offset="20%" stop-color="rgba(41,42,115,1)" /><stop offset="95%" stop-color="rgba(41,42,115,0)" /></linearGradient><linearGradient id="v2"><stop offset="20%" stop-color="rgba(41,42,115,1)" /><stop offset="95%" stop-color="rgba(41,42,115,0)" /></linearGradient><linearGradient gradientTransform="rotate(90)" id="h3"><stop offset="20%" stop-color="rgba(251,251,255,1)" /><stop offset="95%" stop-color="rgba(251,251,255,0)" /></linearGradient><linearGradient id="v3"><stop offset="20%" stop-color="rgba(251,251,255,1)" /><stop offset="95%" stop-color="rgba(251,251,255,0)" /></linearGradient><linearGradient gradientTransform="rotate(90)" id="h4"><stop offset="20%" stop-color="rgba(32,191,85,1)" /><stop offset="95%" stop-color="rgba(32,191,85,0)" /></linearGradient><linearGradient id="v4"><stop offset="20%" stop-color="rgba(32,191,85,1)" /><stop offset="95%" stop-color="rgba(32,191,85,0)" /></linearGradient><linearGradient gradientTransform="rotate(90)" id="h5"><stop offset="20%" stop-color="rgba(34,34,34,1)" /><stop offset="95%" stop-color="rgba(34,34,34,0)" /></linearGradient><linearGradient id="v5"><stop offset="20%" stop-color="rgba(34,34,34,1)" /><stop offset="95%" stop-color="rgba(34,34,34,0)" /></linearGradient><linearGradient gradientTransform="rotate(90)" id="h6"><stop offset="20%" stop-color="rgba(255,255,255,1)" /><stop offset="95%" stop-color="rgba(255,255,255,0)" /></linearGradient><linearGradient id="v6"><stop offset="20%" stop-color="rgba(255,255,255,1)" /><stop offset="95%" stop-color="rgba(255,255,255,0)" /></linearGradient><linearGradient gradientTransform="rotate(90)" id="h7"><stop offset="20%" stop-color="rgba(255,0,0,1)" /><stop offset="95%" stop-color="rgba(255,0,0,0)" /></linearGradient><linearGradient id="v7"><stop offset="20%" stop-color="rgba(255,0,0,1)" /><stop offset="95%" stop-color="rgba(255,0,0,0)" /></linearGradient></defs><g transform-origin="1500 1500" transform="scale(2)" opacity=".2"><g id="slashes"><g class="o"><path transform="translate(7,14)" class="S sfh" d="M1256 1745 L1428 1573 L1452 1573 L1280 1745 Z"/><path class="fh6" d="M1256 1745 L1428 1573 L1452 1573 L1280 1745 Z" /></g><g class="o"><path transform="translate(8,16)" class="S sfh" d="M1700 1884 L1782 1802 L1816 1802 L1734 1884 Z"/><path class="fh4" d="M1700 1884 L1782 1802 L1816 1802 L1734 1884 Z" /></g><g class="o"><path transform="translate(4,8)" class="S sfh" d="M1332 1733 L1504 1905 L1540 1905 L1368 1733 Z"/><path class="fh6" d="M1332 1733 L1504 1905 L1540 1905 L1368 1733 Z" /></g><g class="o"><path transform="translate(6,12)" class="S ssh" d="M1038 1067 L1100 1005 L1116 1005 L1054 1067 Z"/><path class="sh3" d="M1038 1067 L1100 1005 L1116 1005 L1054 1067 Z" /></g><g class="o"><path transform="translate(4,8)" class="S sfv" d="M1551 1757 L1312 1996 L1312 2014 L1551 1775 Z"/><path class="fv3" d="M1551 1757 L1312 1996 L1312 2014 L1551 1775 Z" /></g><g class="o"><path transform="translate(6,12)" class="S sfv" d="M2048 1029 L2135 942 L2135 954 L2048 1041 Z"/><path class="fv2" d="M2048 1029 L2135 942 L2135 954 L2048 1041 Z" /></g><g class="o"><path transform="translate(6,12)" class="S sf" d="M1107 1901 L1662 2456 L1672 2456 L1117 1901 Z"/><path class="f7" d="M1107 1901 L1662 2456 L1672 2456 L1117 1901 Z" /></g><g class="o"><path transform="translate(2,4)" class="S ss" d="M1702 1454 L1807 1559 L1825 1559 L1720 1454 Z"/><path class="s7" d="M1702 1454 L1807 1559 L1825 1559 L1720 1454 Z" /></g><g class="o"><path transform="translate(7,14)" class="S sfv" d="M1347 1743 L1154 1936 L1154 2064 L1347 1871 Z"/><path class="fv4" d="M1347 1743 L1154 1936 L1154 2064 L1347 1871 Z" /></g><g class="o"><path transform="translate(5,10)" class="S ssv" d="M1787 1808 L1109 2486 L1109 2550 L1787 1872 Z"/><path class="sv1" d="M1787 1808 L1109 2486 L1109 2550 L1787 1872 Z" /></g><g class="o"><path transform="translate(2,4)" class="S sf" d="M1483 1018 L1582 1117 L1582 1133 L1483 1034 Z"/><path class="f5" d="M1483 1018 L1582 1117 L1582 1133 L1483 1034 Z" /></g><g class="o"><path transform="translate(8,16)" class="S sfh" d="M1818 1928 L1888 1998 L1904 1998 L1834 1928 Z"/><path class="fh5" d="M1818 1928 L1888 1998 L1904 1998 L1834 1928 Z" /></g><g class="o"><path transform="translate(3,6)" class="S sfh" d="M1385 1943 L1622 2180 L1644 2180 L1407 1943 Z"/><path class="fh2" d="M1385 1943 L1622 2180 L1644 2180 L1407 1943 Z" /></g><g class="o"><path transform="translate(2,4)" class="S sfv" d="M1276 1990 L1972 1294 L1972 1302 L1276 1998 Z"/><path class="fv3" d="M1276 1990 L1972 1294 L1972 1302 L1276 1998 Z" /></g><g class="o"><path transform="translate(8,16)" class="S sfv" d="M2029 991 L2160 860 L2160 886 L2029 1017 Z"/><path class="fv4" d="M2029 991 L2160 860 L2160 886 L2029 1017 Z" /></g><g class="o"><path transform="translate(3,6)" class="S ssv" d="M1351 1259 L1187 1423 L1187 1453 L1351 1289 Z"/><path class="sv4" d="M1351 1259 L1187 1423 L1187 1453 L1351 1289 Z" /></g><g class="o"><path transform="translate(7,14)" class="S sf" d="M1346 1716 L1410 1652 L1444 1652 L1380 1716 Z"/><path class="f1" d="M1346 1716 L1410 1652 L1444 1652 L1380 1716 Z" /></g><g class="o"><path transform="translate(5,10)" class="S sfh" d="M1655 1933 L1440 1718 L1520 1718 L1735 1933 Z"/><path class="fh6" d="M1655 1933 L1440 1718 L1520 1718 L1735 1933 Z" /></g><g class="o"><path transform="translate(9,18)" class="S sfh" d="M1337 1980 L1823 2466 L1855 2466 L1369 1980 Z"/><path class="fh6" d="M1337 1980 L1823 2466 L1855 2466 L1369 1980 Z" /></g><g class="o"><path transform="translate(6,12)" class="S sfv" d="M1394 2011 L1600 2217 L1600 2239 L1394 2033 Z"/><path class="fv3" d="M1394 2011 L1600 2217 L1600 2239 L1394 2033 Z" /></g><g class="o"><path transform="translate(5,10)" class="S sfh" d="M1092 1511 L1315 1734 L1325 1734 L1102 1511 Z"/><path class="fh7" d="M1092 1511 L1315 1734 L1325 1734 L1102 1511 Z" /></g><g class="o"><path transform="translate(4,8)" class="S sfv" d="M1907 1246 L2154 999 L2154 1007 L1907 1254 Z"/><path class="fv1" d="M1907 1246 L2154 999 L2154 1007 L1907 1254 Z" /></g><g class="o"><path transform="translate(2,4)" class="S sfv" d="M1790 1578 L1843 1631 L1843 1641 L1790 1588 Z"/><path class="fv4" d="M1790 1578 L1843 1631 L1843 1641 L1790 1588 Z" /></g><g class="o"><path transform="translate(2,4)" class="S sfv" d="M1974 1398 L1887 1485 L1887 1495 L1974 1408 Z"/><path class="fv6" d="M1974 1398 L1887 1485 L1887 1495 L1974 1408 Z" /></g><g class="o"><path transform="translate(9,18)" class="S sfh" d="M1785 1118 L2364 1697 L2500 1697 L1921 1118 Z"/><path class="fh3" d="M1785 1118 L2364 1697 L2500 1697 L1921 1118 Z" /></g><g class="o"><path transform="translate(7,14)" class="S ss" d="M1723 1971 L1482 1730 L1508 1730 L1749 1971 Z"/><path class="s6" d="M1723 1971 L1482 1730 L1508 1730 L1749 1971 Z" /></g><g class="o"><path transform="translate(9,18)" class="S sfh" d="M2000 1366 L2115 1481 L2135 1481 L2020 1366 Z"/><path class="fh7" d="M2000 1366 L2115 1481 L2135 1481 L2020 1366 Z" /></g><g class="o"><path transform="translate(3,6)" class="S sfh" d="M1370 1953 L1497 1826 L1535 1826 L1408 1953 Z"/><path class="fh2" d="M1370 1953 L1497 1826 L1535 1826 L1408 1953 Z" /></g><g class="o"><path transform="translate(9,18)" class="S sfv" d="M1814 1494 L1675 1355 L1675 1369 L1814 1508 Z"/><path class="fv3" d="M1814 1494 L1675 1355 L1675 1369 L1814 1508 Z" /></g><g class="o"><path transform="translate(4,8)" class="S sfh" d="M1628 1858 L1465 2021 L1479 2021 L1642 1858 Z"/><path class="fh1" d="M1628 1858 L1465 2021 L1479 2021 L1642 1858 Z" /></g><g class="o"><path transform="translate(2,4)" class="S sf" d="M1507 1198 L1722 983 L1750 983 L1535 1198 Z"/><path class="f4" d="M1507 1198 L1722 983 L1750 983 L1535 1198 Z" /></g><g class="o"><path transform="translate(5,10)" class="S sfh" d="M1408 1052 L1331 1129 L1379 1129 L1456 1052 Z"/><path class="fh2" d="M1408 1052 L1331 1129 L1379 1129 L1456 1052 Z" /></g><g class="o"><path transform="translate(6,12)" class="S sfh" d="M1389 1313 L1546 1470 L1576 1470 L1419 1313 Z"/><path class="fh4" d="M1389 1313 L1546 1470 L1576 1470 L1419 1313 Z" /></g><g class="o"><path transform="translate(8,16)" class="S sfv" d="M1913 1514 L2088 1339 L2088 1375 L1913 1550 Z"/><path class="fv1" d="M1913 1514 L2088 1339 L2088 1375 L1913 1550 Z" /></g><g class="o"><path transform="translate(5,10)" class="S ssh" d="M1999 1366 L1399 766 L1471 766 L2071 1366 Z"/><path class="sh4" d="M1999 1366 L1399 766 L1471 766 L2071 1366 Z" /></g><g class="o"><path transform="translate(4,8)" class="S ssh" d="M1741 1845 L1979 2083 L1989 2083 L1751 1845 Z"/><path class="sh5" d="M1741 1845 L1979 2083 L1989 2083 L1751 1845 Z" /></g><g class="o"><path transform="translate(4,8)" class="S ssh" d="M1693 1431 L1907 1217 L1921 1217 L1707 1431 Z"/><path class="sh2" d="M1693 1431 L1907 1217 L1921 1217 L1707 1431 Z" /></g><g class="o"><path transform="translate(7,14)" class="S sf" d="M1709 1658 L1918 1867 L1952 1867 L1743 1658 Z"/><path class="f1" d="M1709 1658 L1918 1867 L1952 1867 L1743 1658 Z" /></g><g class="o"><path transform="translate(6,12)" class="S sfv" d="M1787 1801 L2129 2143 L2129 2153 L1787 1811 Z"/><path class="fv2" d="M1787 1801 L2129 2143 L2129 2153 L1787 1811 Z" /></g><g class="o"><path transform="translate(2,4)" class="S ssh" d="M1874 1350 L2120 1596 L2142 1596 L1896 1350 Z"/><path class="sh5" d="M1874 1350 L2120 1596 L2142 1596 L1896 1350 Z" /></g><g class="o"><path transform="translate(4,8)" class="S sfv" d="M1912 1455 L2068 1611 L2068 1649 L1912 1493 Z"/><path class="fv7" d="M1912 1455 L2068 1611 L2068 1649 L1912 1493 Z" /></g><g class="o"><path transform="translate(3,6)" class="S sfh" d="M1275 1875 L1137 1737 L1157 1737 L1295 1875 Z"/><path class="fh3" d="M1275 1875 L1137 1737 L1157 1737 L1295 1875 Z" /></g><g class="o"><path transform="translate(4,8)" class="S ssh" d="M1349 1228 L1184 1063 L1218 1063 L1383 1228 Z"/><path class="sh7" d="M1349 1228 L1184 1063 L1218 1063 L1383 1228 Z" /></g><g class="o"><path transform="translate(9,18)" class="S sfv" d="M1701 1994 L1600 1893 L1600 1927 L1701 2028 Z"/><path class="fv7" d="M1701 1994 L1600 1893 L1600 1927 L1701 2028 Z" /></g><g class="o"><path transform="translate(2,4)" class="S sfv" d="M1796 1592 L1857 1653 L1857 1679 L1796 1618 Z"/><path class="fv3" d="M1796 1592 L1857 1653 L1857 1679 L1796 1618 Z" /></g><g class="o"><path transform="translate(3,6)" class="S ssv" d="M1883 1543 L1979 1639 L1979 1687 L1883 1591 Z"/><path class="sv2" d="M1883 1543 L1979 1639 L1979 1687 L1883 1591 Z" /></g><g class="o"><path transform="translate(9,18)" class="S sfv" d="M1026 1829 L962 1765 L962 1801 L1026 1865 Z"/><path class="fv4" d="M1026 1829 L962 1765 L962 1801 L1026 1865 Z" /></g><g class="o"><path transform="translate(6,12)" class="S sfh" d="M1972 972 L1767 1177 L1847 1177 L2052 972 Z"/><path class="fh6" d="M1972 972 L1767 1177 L1847 1177 L2052 972 Z" /></g><g class="o"><path transform="translate(3,6)" class="S sfh" d="M968 1515 L823 1370 L835 1370 L980 1515 Z"/><path class="fh4" d="M968 1515 L823 1370 L835 1370 L980 1515 Z" /></g><g class="o"><path transform="translate(4,8)" class="S ssh" d="M1904 1887 L1746 1729 L1766 1729 L1924 1887 Z"/><path class="sh1" d="M1904 1887 L1746 1729 L1766 1729 L1924 1887 Z" /></g><g class="o"><path transform="translate(9,18)" class="S sfh" d="M1065 1066 L1007 1124 L1025 1124 L1083 1066 Z"/><path class="fh4" d="M1065 1066 L1007 1124 L1025 1124 L1083 1066 Z" /></g><g class="o"><path transform="translate(7,14)" class="S sfv" d="M1000 978 L1128 1106 L1128 1120 L1000 992 Z"/><path class="fv4" d="M1000 978 L1128 1106 L1128 1120 L1000 992 Z" /></g><g class="o"><path transform="translate(2,4)" class="S sfh" d="M1169 1840 L1116 1787 L1152 1787 L1205 1840 Z"/><path class="fh5" d="M1169 1840 L1116 1787 L1152 1787 L1205 1840 Z" /></g><g class="o"><path transform="translate(4,8)" class="S sfv" d="M1854 1814 L1968 1700 L1968 1716 L1854 1830 Z"/><path class="fv6" d="M1854 1814 L1968 1700 L1968 1716 L1854 1830 Z" /></g><g class="o"><path transform="translate(6,12)" class="S ssh" d="M2001 1620 L2346 1965 L2366 1965 L2021 1620 Z"/><path class="sh1" d="M2001 1620 L2346 1965 L2366 1965 L2021 1620 Z" /></g><g class="o"><path transform="translate(3,6)" class="S sfv" d="M1189 1483 L1344 1638 L1344 1662 L1189 1507 Z"/><path class="fv7" d="M1189 1483 L1344 1638 L1344 1662 L1189 1507 Z" /></g><g class="o"><path transform="translate(8,16)" class="S sfh" d="M1406 1131 L1474 1063 L1498 1063 L1430 1131 Z"/><path class="fh1" d="M1406 1131 L1474 1063 L1498 1063 L1430 1131 Z" /></g><g class="o"><path transform="translate(3,6)" class="S sfv" d="M1065 1186 L1139 1260 L1139 1282 L1065 1208 Z"/><path class="fv4" d="M1065 1186 L1139 1260 L1139 1282 L1065 1208 Z" /></g><g class="o"><path transform="translate(8,16)" class="S ss" d="M979 1261 L799 1441 L799 1475 L979 1295 Z"/><path class="s3" d="M979 1261 L799 1441 L799 1475 L979 1295 Z" /></g><g class="o"><path transform="translate(4,8)" class="S sfh" d="M1782 1123 L1835 1176 L1849 1176 L1796 1123 Z"/><path class="fh6" d="M1782 1123 L1835 1176 L1849 1176 L1796 1123 Z" /></g><g class="o"><path transform="translate(5,10)" class="S sfv" d="M2007 1545 L2220 1758 L2220 1796 L2007 1583 Z"/><path class="fv2" d="M2007 1545 L2220 1758 L2220 1796 L2007 1583 Z" /></g><g class="o"><path transform="translate(8,16)" class="S sf" d="M1843 1658 L2036 1465 L2046 1465 L1853 1658 Z"/><path class="f6" d="M1843 1658 L2036 1465 L2046 1465 L1853 1658 Z" /></g><g class="o"><path transform="translate(8,16)" class="S ssv" d="M1142 1483 L1382 1723 L1382 1759 L1142 1519 Z"/><path class="sv7" d="M1142 1483 L1382 1723 L1382 1759 L1142 1519 Z" /></g><g class="o"><path transform="translate(6,12)" class="S sfh" d="M1194 1928 L974 1708 L1010 1708 L1230 1928 Z"/><path class="fh4" d="M1194 1928 L974 1708 L1010 1708 L1230 1928 Z" /></g><g class="o"><path transform="translate(8,16)" class="S sfh" d="M945 1971 L1473 2499 L1505 2499 L977 1971 Z"/><path class="fh6" d="M945 1971 L1473 2499 L1505 2499 L977 1971 Z" /></g><g class="o"><path transform="translate(8,16)" class="S ssh" d="M1850 1905 L1921 1976 L1949 1976 L1878 1905 Z"/><path class="sh5" d="M1850 1905 L1921 1976 L1949 1976 L1878 1905 Z" /></g><g class="o"><path transform="translate(8,16)" class="S ssh" d="M1034 1755 L1173 1616 L1207 1616 L1068 1755 Z"/><path class="sh1" d="M1034 1755 L1173 1616 L1207 1616 L1068 1755 Z" /></g><g class="o"><path transform="translate(3,6)" class="S sfv" d="M1618 1544 L1708 1454 L1708 1486 L1618 1576 Z"/><path class="fv7" d="M1618 1544 L1708 1454 L1708 1486 L1618 1576 Z" /></g><g class="o"><path transform="translate(7,14)" class="S sfh" d="M1726 1313 L1953 1540 L1979 1540 L1752 1313 Z"/><path class="fh1" d="M1726 1313 L1953 1540 L1979 1540 L1752 1313 Z" /></g><g class="o"><path transform="translate(8,16)" class="S sfv" d="M1073 1941 L728 2286 L728 2308 L1073 1963 Z"/><path class="fv5" d="M1073 1941 L728 2286 L728 2308 L1073 1963 Z" /></g><g class="o"><path transform="translate(6,12)" class="S sf" d="M1139 1121 L1076 1058 L1090 1058 L1153 1121 Z"/><path class="f6" d="M1139 1121 L1076 1058 L1090 1058 L1153 1121 Z" /></g><g class="o"><path transform="translate(7,14)" class="S sfv" d="M1051 1315 L1203 1163 L1203 1191 L1051 1343 Z"/><path class="fv4" d="M1051 1315 L1203 1163 L1203 1191 L1051 1343 Z" /></g><g class="o"><path transform="translate(7,14)" class="S ss" d="M1661 1697 L1853 1505 L1853 1517 L1661 1709 Z"/><path class="s4" d="M1661 1697 L1853 1505 L1853 1517 L1661 1709 Z" /></g><g class="o"><path transform="translate(7,14)" class="S sfh" d="M1196 1257 L1073 1134 L1087 1134 L1210 1257 Z"/><path class="fh3" d="M1196 1257 L1073 1134 L1087 1134 L1210 1257 Z" /></g><g class="o"><path transform="translate(4,8)" class="S sfh" d="M1273 1203 L1108 1368 L1130 1368 L1295 1203 Z"/><path class="fh2" d="M1273 1203 L1108 1368 L1130 1368 L1295 1203 Z" /></g><g class="o"><path transform="translate(8,16)" class="S sfh" d="M1683 2045 L1896 1832 L1926 1832 L1713 2045 Z"/><path class="fh3" d="M1683 2045 L1896 1832 L1926 1832 L1713 2045 Z" /></g><g class="o"><path transform="translate(2,4)" class="S sfv" d="M1836 1014 L2271 1449 L2271 1473 L1836 1038 Z"/><path class="fv1" d="M1836 1014 L2271 1449 L2271 1473 L1836 1038 Z" /></g><g class="o"><path transform="translate(3,6)" class="S sfh" d="M1686 2037 L1598 1949 L1606 1949 L1694 2037 Z"/><path class="fh7" d="M1686 2037 L1598 1949 L1606 1949 L1694 2037 Z" /></g><g class="o"><path transform="translate(5,10)" class="S sf" d="M1286 1837 L1101 1652 L1101 1686 L1286 1871 Z"/><path class="f7" d="M1286 1837 L1101 1652 L1101 1686 L1286 1871 Z" /></g><g class="o"><path transform="translate(2,4)" class="S ssh" d="M1184 1115 L1344 1275 L1354 1275 L1194 1115 Z"/><path class="sh2" d="M1184 1115 L1344 1275 L1354 1275 L1194 1115 Z" /></g><g class="o"><path transform="translate(3,6)" class="S sf" d="M1364 1633 L1526 1471 L1526 1481 L1364 1643 Z"/><path class="f4" d="M1364 1633 L1526 1471 L1526 1481 L1364 1643 Z" /></g><g class="o"><path transform="translate(2,4)" class="S ss" d="M1260 1255 L1135 1130 L1147 1130 L1272 1255 Z"/><path class="s5" d="M1260 1255 L1135 1130 L1147 1130 L1272 1255 Z" /></g><g class="o"><path transform="translate(7,14)" class="S sfh" d="M1283 1375 L1150 1508 L1188 1508 L1321 1375 Z"/><path class="fh3" d="M1283 1375 L1150 1508 L1188 1508 L1321 1375 Z" /></g><g class="o"><path transform="translate(5,10)" class="S ssh" d="M2005 1139 L1759 1385 L1789 1385 L2035 1139 Z"/><path class="sh4" d="M2005 1139 L1759 1385 L1789 1385 L2035 1139 Z" /></g><g class="o"><path transform="translate(7,14)" class="S sfh" d="M1621 961 L1822 760 L1838 760 L1637 961 Z"/><path class="fh4" d="M1621 961 L1822 760 L1838 760 L1637 961 Z" /></g><g class="o"><path transform="translate(3,6)" class="S sfh" d="M1950 1154 L1834 1038 L1938 1038 L2054 1154 Z"/><path class="fh4" d="M1950 1154 L1834 1038 L1938 1038 L2054 1154 Z" /></g><g class="o"><path transform="translate(5,10)" class="S sfv" d="M1433 1906 L1524 1815 L1524 1847 L1433 1938 Z"/><path class="fv3" d="M1433 1906 L1524 1815 L1524 1847 L1433 1938 Z" /></g><g class="o"><path transform="translate(5,10)" class="S sfh" d="M1773 1571 L2010 1334 L2038 1334 L1801 1571 Z"/><path class="fh5" d="M1773 1571 L2010 1334 L2038 1334 L1801 1571 Z" /></g><g class="o"><path transform="translate(3,6)" class="S sfv" d="M1151 1197 L1380 1426 L1380 1464 L1151 1235 Z"/><path class="fv4" d="M1151 1197 L1380 1426 L1380 1464 L1151 1235 Z" /></g><g class="o"><path transform="translate(9,18)" class="S sfh" d="M1635 999 L1882 752 L1918 752 L1671 999 Z"/><path class="fh2" d="M1635 999 L1882 752 L1918 752 L1671 999 Z" /></g><g class="o"><path transform="translate(5,10)" class="S sf" d="M1057 1148 L712 1493 L752 1493 L1097 1148 Z"/><path class="f6" d="M1057 1148 L712 1493 L752 1493 L1097 1148 Z" /></g><g class="o"><path transform="translate(3,6)" class="S sf" d="M1112 1011 L1357 1256 L1373 1256 L1128 1011 Z"/><path class="f4" d="M1112 1011 L1357 1256 L1373 1256 L1128 1011 Z" /></g><g class="o"><path transform="translate(2,4)" class="S sf" d="M1423 1140 L1233 950 L1233 964 L1423 1154 Z"/><path class="f2" d="M1423 1140 L1233 950 L1233 964 L1423 1154 Z" /></g><g class="o"><path transform="translate(4,8)" class="S sfh" d="M1086 1557 L1689 954 L1753 954 L1150 1557 Z"/><path class="fh4" d="M1086 1557 L1689 954 L1753 954 L1150 1557 Z" /></g><g class="o"><path transform="translate(9,18)" class="S sfh" d="M1817 1651 L1695 1773 L1713 1773 L1835 1651 Z"/><path class="fh5" d="M1817 1651 L1695 1773 L1713 1773 L1835 1651 Z" /></g><g class="o"><path transform="translate(2,4)" class="S sfh" d="M1643 1692 L1870 1465 L1892 1465 L1665 1692 Z"/><path class="fh3" d="M1643 1692 L1870 1465 L1892 1465 L1665 1692 Z" /></g><g class="o"><path transform="translate(7,14)" class="S sfv" d="M1818 1427 L2490 2099 L2490 2109 L1818 1437 Z"/><path class="fv2" d="M1818 1427 L2490 2099 L2490 2109 L1818 1437 Z" /></g><g class="o"><path transform="translate(2,4)" class="S sfh" d="M1530 1999 L1689 1840 L1711 1840 L1552 1999 Z"/><path class="fh6" d="M1530 1999 L1689 1840 L1711 1840 L1552 1999 Z" /></g><g class="o"><path transform="translate(8,16)" class="S sfv" d="M1902 1330 L2634 598 L2634 630 L1902 1362 Z"/><path class="fv3" d="M1902 1330 L2634 598 L2634 630 L1902 1362 Z" /></g><g class="o"><path transform="translate(2,4)" class="S sfv" d="M1630 1695 L1849 1914 L1849 1938 L1630 1719 Z"/><path class="fv7" d="M1630 1695 L1849 1914 L1849 1938 L1630 1719 Z" /></g><g class="o"><path transform="translate(4,8)" class="S ssh" d="M1016 1882 L350 1216 L368 1216 L1034 1882 Z"/><path class="sh4" d="M1016 1882 L350 1216 L368 1216 L1034 1882 Z" /></g><g class="o"><path transform="translate(6,12)" class="S sfh" d="M1139 1556 L1040 1655 L1050 1655 L1149 1556 Z"/><path class="fh4" d="M1139 1556 L1040 1655 L1050 1655 L1149 1556 Z" /></g><g class="o"><path transform="translate(3,6)" class="S sfv" d="M1624 1128 L1213 1539 L1213 1575 L1624 1164 Z"/><path class="fv2" d="M1624 1128 L1213 1539 L1213 1575 L1624 1164 Z" /></g><g class="o"><path transform="translate(3,6)" class="S ss" d="M1179 1311 L947 1543 L947 1571 L1179 1339 Z"/><path class="s6" d="M1179 1311 L947 1543 L947 1571 L1179 1339 Z" /></g><g class="o"><path transform="translate(2,4)" class="S sfh" d="M1667 1460 L1451 1676 L1473 1676 L1689 1460 Z"/><path class="fh5" d="M1667 1460 L1451 1676 L1473 1676 L1689 1460 Z" /></g><g class="o"><path transform="translate(2,4)" class="S ssh" d="M1452 971 L1589 1108 L1617 1108 L1480 971 Z"/><path class="sh3" d="M1452 971 L1589 1108 L1617 1108 L1480 971 Z" /></g><g class="o"><path transform="translate(2,4)" class="S sfh" d="M1085 1102 L512 529 L548 529 L1121 1102 Z"/><path class="fh4" d="M1085 1102 L512 529 L548 529 L1121 1102 Z" /></g><g class="o"><path transform="translate(8,16)" class="S sfv" d="M1325 1662 L1398 1589 L1398 1611 L1325 1684 Z"/><path class="fv5" d="M1325 1662 L1398 1589 L1398 1611 L1325 1684 Z" /></g><g class="o"><path transform="translate(5,10)" class="S ssh" d="M1905 1137 L1685 917 L1707 917 L1927 1137 Z"/><path class="sh6" d="M1905 1137 L1685 917 L1707 917 L1927 1137 Z" /></g><g class="o"><path transform="translate(6,12)" class="S ssh" d="M1806 1934 L1929 1811 L1959 1811 L1836 1934 Z"/><path class="sh3" d="M1806 1934 L1929 1811 L1959 1811 L1836 1934 Z" /></g><g class="o"><path transform="translate(3,6)" class="S sfv" d="M1261 1622 L1154 1729 L1154 1765 L1261 1658 Z"/><path class="fv1" d="M1261 1622 L1154 1729 L1154 1765 L1261 1658 Z" /></g><g class="o"><path transform="translate(6,12)" class="S sfv" d="M1695 1704 L1549 1850 L1549 2002 L1695 1856 Z"/><path class="fv1" d="M1695 1704 L1549 1850 L1549 2002 L1695 1856 Z" /></g><g class="o"><path transform="translate(6,12)" class="S sfv" d="M1974 1825 L1855 1944 L1855 1980 L1974 1861 Z"/><path class="fv3" d="M1974 1825 L1855 1944 L1855 1980 L1974 1861 Z" /></g><g class="o"><path transform="translate(2,4)" class="S sf" d="M2005 1004 L1585 584 L1619 584 L2039 1004 Z"/><path class="f3" d="M2005 1004 L1585 584 L1619 584 L2039 1004 Z" /></g><g class="o"><path transform="translate(6,12)" class="S sfv" d="M1252 1505 L1657 1910 L1657 1948 L1252 1543 Z"/><path class="fv1" d="M1252 1505 L1657 1910 L1657 1948 L1252 1543 Z" /></g><g class="o"><path transform="translate(9,18)" class="S sfv" d="M1251 1327 L1065 1141 L1065 1253 L1251 1439 Z"/><path class="fv4" d="M1251 1327 L1065 1141 L1065 1253 L1251 1439 Z" /></g><g class="o"><path transform="translate(5,10)" class="S sf" d="M1605 1719 L1501 1615 L1573 1615 L1677 1719 Z"/><path class="f2" d="M1605 1719 L1501 1615 L1573 1615 L1677 1719 Z" /></g><g class="o"><path transform="translate(7,14)" class="S sfh" d="M1976 968 L1761 1183 L1781 1183 L1996 968 Z"/><path class="fh4" d="M1976 968 L1761 1183 L1781 1183 L1996 968 Z" /></g><g class="o"><path transform="translate(9,18)" class="S sfh" d="M1967 1757 L2052 1672 L2074 1672 L1989 1757 Z"/><path class="fh2" d="M1967 1757 L2052 1672 L2074 1672 L1989 1757 Z" /></g><g class="o"><path transform="translate(3,6)" class="S sfh" d="M1185 1637 L780 2042 L810 2042 L1215 1637 Z"/><path class="fh2" d="M1185 1637 L780 2042 L810 2042 L1215 1637 Z" /></g><g class="o"><path transform="translate(9,18)" class="S sfh" d="M1121 1197 L951 1367 L961 1367 L1131 1197 Z"/><path class="fh3" d="M1121 1197 L951 1367 L961 1367 L1131 1197 Z" /></g><g class="o"><path transform="translate(4,8)" class="S sfh" d="M1004 1375 L659 1720 L691 1720 L1036 1375 Z"/><path class="fh2" d="M1004 1375 L659 1720 L691 1720 L1036 1375 Z" /></g><g class="o"><path transform="translate(3,6)" class="S sfv" d="M1955 1813 L1775 1633 L1775 1669 L1955 1849 Z"/><path class="fv4" d="M1955 1813 L1775 1633 L1775 1669 L1955 1849 Z" /></g><g class="o"><path transform="translate(6,12)" class="S sfv" d="M1438 1085 L1581 1228 L1581 1242 L1438 1099 Z"/><path class="fv5" d="M1438 1085 L1581 1228 L1581 1242 L1438 1099 Z" /></g><g class="o"><path transform="translate(3,6)" class="S sfv" d="M1307 1093 L1082 1318 L1082 1342 L1307 1117 Z"/><path class="fv5" d="M1307 1093 L1082 1318 L1082 1342 L1307 1117 Z" /></g><g class="o"><path transform="translate(8,16)" class="S sfv" d="M2009 1314 L1808 1113 L1808 1127 L2009 1328 Z"/><path class="fv6" d="M2009 1314 L1808 1113 L1808 1127 L2009 1328 Z" /></g><g class="o"><path transform="translate(6,12)" class="S sfh" d="M1974 1785 L2112 1647 L2148 1647 L2010 1785 Z"/><path class="fh6" d="M1974 1785 L2112 1647 L2148 1647 L2010 1785 Z" /></g><g class="o"><path transform="translate(9,18)" class="S sf" d="M963 1904 L1197 1670 L1227 1670 L993 1904 Z"/><path class="f2" d="M963 1904 L1197 1670 L1227 1670 L993 1904 Z" /></g><g class="o"><path transform="translate(2,4)" class="S sfh" d="M1727 1154 L2423 1850 L2437 1850 L1741 1154 Z"/><path class="fh1" d="M1727 1154 L2423 1850 L2437 1850 L1741 1154 Z" /></g><g class="o"><path transform="translate(6,12)" class="S ssh" d="M1196 2036 L1403 1829 L1425 1829 L1218 2036 Z"/><path class="sh2" d="M1196 2036 L1403 1829 L1425 1829 L1218 2036 Z" /></g></g><use href="#slashes" transform-origin="1500 1500" transform="rotate(180) scale(2)"/></g><rect x="1080" y="1080" width="840" height="840" stroke-width="80" class="o fs" /><use href="#slashes" transform-origin="1500 1500" transform="scale(.9)"/><use href="#slashes" transform-origin="1500 1500" transform="rotate(180) scale(.9)"/></svg>