<svg xmlns="http://www.w3.org/2000/svg" viewBox="750 750 1500 1500"><style>/*<![CDATA[*/svg{background:rgb(0,100,148);max-width:100vw;max-height:100vh}path{stroke-width:4}.o{opacity:.75}.S{opacity:.4}.sf{stroke:none;fill:black}.sfh{stroke:none;fill:url(#hs)}.sfv{stroke:none;fill:url(#vs)}.ss{stroke:black;fill:none}.ssh{stroke:url(#hs);fill:none}.ssv{stroke:url(#vs);fill:none}.s1{fill:none;stroke:rgb(34,34,34)}.f1{stroke:none;fill:rgb(34,34,34)}.sh1{fill:none;stroke:url(#h1)}.fh1{stroke:none;fill:url(#h1)}.sv1{fill:none;stroke:url(#v1)}.fv1{stroke:none;fill:url(#v1)}.s2{fill:none;stroke:rgb(36,123,160)}.f2{stroke:none;fill:rgb(36,123,160)}.sh2{fill:none;stroke:url(#h2)}.fh2{stroke:none;fill:url(#h2)}.sv2{fill:none;stroke:url(#v2)}.fv2{stroke:none;fill:url(#v2)}.s3{fill:none;stroke:rgb(19,41,61)}.f3{stroke:none;fill:rgb(19,41,61)}.sh3{fill:none;stroke:url(#h3)}.fh3{stroke:none;fill:url(#h3)}.sv3{fill:none;stroke:url(#v3)}.fv3{stroke:none;fill:url(#v3)}.s4{fill:none;stroke:rgb(27,152,224)}.f4{stroke:none;fill:rgb(27,152,224)}.sh4{fill:none;stroke:url(#h4)}.fh4{stroke:none;fill:url(#h4)}.sv4{fill:none;stroke:url(#v4)}.fv4{stroke:none;fill:url(#v4)}.s5{fill:none;stroke:rgb(232,241,242)}.f5{stroke:none;fill:rgb(232,241,242)}.sh5{fill:none;stroke:url(#h5)}.fh5{stroke:none;fill:url(#h5)}.sv5{fill:none;stroke:url(#v5)}.fv5{stroke:none;fill:url(#v5)}.s6{fill:none;stroke:rgb(255,255,255)}.f6{stroke:none;fill:rgb(255,255,255)}.sh6{fill:none;stroke:url(#h6)}.fh6{stroke:none;fill:url(#h6)}.sv6{fill:none;stroke:url(#v6)}.fv6{stroke:none;fill:url(#v6)}.s7{fill:none;stroke:rgb(255,255,0)}.f7{stroke:none;fill:rgb(255,255,0)}.sh7{fill:none;stroke:url(#h7)}.fh7{stroke:none;fill:url(#h7)}.sv7{fill:none;stroke:url(#v7)}.fv7{stroke:none;fill:url(#v7)}/*]]>*/</style><defs><linearGradient gradientTransform="rotate(90)" id="hs"><stop offset="20%" stop-color="#000" /><stop offset="95%" stop-color="rgba(0, 0, 0, 0)" /></linearGradient><linearGradient id="vs"><stop offset="20%" stop-color="#000" /><stop offset="95%" stop-color="rgba(0, 0, 0, 0)" /></linearGradient><linearGradient gradientTransform="rotate(90)" id="h1"><stop offset="20%" stop-color="rgba(34,34,34,1)" /><stop offset="95%" stop-color="rgba(34,34,34,0)" /></linearGradient><linearGradient id="v1"><stop offset="20%" stop-color="rgba(34,34,34,1)" /><stop offset="95%" stop-color="rgba(34,34,34,0)" /></linearGradient><linearGradient gradientTransform="rotate(90)" id="h2"><stop offset="20%" stop-color="rgba(36,123,160,1)" /><stop offset="95%" stop-color="rgba(36,123,160,0)" /></linearGradient><linearGradient id="v2"><stop offset="20%" stop-color="rgba(36,123,160,1)" /><stop offset="95%" stop-color="rgba(36,123,160,0)" /></linearGradient><linearGradient gradientTransform="rotate(90)" id="h3"><stop offset="20%" stop-color="rgba(19,41,61,1)" /><stop offset="95%" stop-color="rgba(19,41,61,0)" /></linearGradient><linearGradient id="v3"><stop offset="20%" stop-color="rgba(19,41,61,1)" /><stop offset="95%" stop-color="rgba(19,41,61,0)" /></linearGradient><linearGradient gradientTransform="rotate(90)" id="h4"><stop offset="20%" stop-color="rgba(27,152,224,1)" /><stop offset="95%" stop-color="rgba(27,152,224,0)" /></linearGradient><linearGradient id="v4"><stop offset="20%" stop-color="rgba(27,152,224,1)" /><stop offset="95%" stop-color="rgba(27,152,224,0)" /></linearGradient><linearGradient gradientTransform="rotate(90)" id="h5"><stop offset="20%" stop-color="rgba(232,241,242,1)" /><stop offset="95%" stop-color="rgba(232,241,242,0)" /></linearGradient><linearGradient id="v5"><stop offset="20%" stop-color="rgba(232,241,242,1)" /><stop offset="95%" stop-color="rgba(232,241,242,0)" /></linearGradient><linearGradient gradientTransform="rotate(90)" id="h6"><stop offset="20%" stop-color="rgba(255,255,255,1)" /><stop offset="95%" stop-color="rgba(255,255,255,0)" /></linearGradient><linearGradient id="v6"><stop offset="20%" stop-color="rgba(255,255,255,1)" /><stop offset="95%" stop-color="rgba(255,255,255,0)" /></linearGradient><linearGradient gradientTransform="rotate(90)" id="h7"><stop offset="20%" stop-color="rgba(255,255,0,1)" /><stop offset="95%" stop-color="rgba(255,255,0,0)" /></linearGradient><linearGradient id="v7"><stop offset="20%" stop-color="rgba(255,255,0,1)" /><stop offset="95%" stop-color="rgba(255,255,0,0)" /></linearGradient></defs><g transform-origin="1500 1500" transform="scale(2)" opacity=".2"><g id="slashes"><g class="o"><path transform="translate(3,6)" class="S sfv" d="M1403 1068 L1474 1139 L1474 1177 L1403 1106 Z"/><path class="fv1" d="M1403 1068 L1474 1139 L1474 1177 L1403 1106 Z" /></g><g class="o"><path transform="translate(2,4)" class="S sfv" d="M1518 1893 L1685 2060 L1685 2084 L1518 1917 Z"/><path class="fv5" d="M1518 1893 L1685 2060 L1685 2084 L1518 1917 Z" /></g><g class="o"><path transform="translate(2,4)" class="S sfv" d="M1153 973 L1296 1116 L1296 1128 L1153 985 Z"/><path class="fv1" d="M1153 973 L1296 1116 L1296 1128 L1153 985 Z" /></g><g class="o"><path transform="translate(5,10)" class="S ssv" d="M1924 1170 L1982 1228 L1982 1248 L1924 1190 Z"/><path class="sv3" d="M1924 1170 L1982 1228 L1982 1248 L1924 1190 Z" /></g><g class="o"><path transform="translate(6,12)" class="S sfh" d="M1259 1727 L1422 1890 L1442 1890 L1279 1727 Z"/><path class="fh1" d="M1259 1727 L1422 1890 L1442 1890 L1279 1727 Z" /></g><g class="o"><path transform="translate(3,6)" class="S sfh" d="M1446 1479 L1668 1701 L1694 1701 L1472 1479 Z"/><path class="fh7" d="M1446 1479 L1668 1701 L1694 1701 L1472 1479 Z" /></g><g class="o"><path transform="translate(4,8)" class="S sfh" d="M1670 1417 L1760 1507 L1794 1507 L1704 1417 Z"/><path class="fh7" d="M1670 1417 L1760 1507 L1794 1507 L1704 1417 Z" /></g><g class="o"><path transform="translate(5,10)" class="S sfv" d="M1916 1168 L2115 1367 L2115 1397 L1916 1198 Z"/><path class="fv4" d="M1916 1168 L2115 1367 L2115 1397 L1916 1198 Z" /></g><g class="o"><path transform="translate(9,18)" class="S sfh" d="M1509 1555 L1588 1634 L1708 1634 L1629 1555 Z"/><path class="fh7" d="M1509 1555 L1588 1634 L1708 1634 L1629 1555 Z" /></g><g class="o"><path transform="translate(6,12)" class="S sfv" d="M1127 1405 L1291 1569 L1291 1601 L1127 1437 Z"/><path class="fv7" d="M1127 1405 L1291 1569 L1291 1601 L1127 1437 Z" /></g><g class="o"><path transform="translate(3,6)" class="S sfv" d="M1549 1397 L1622 1470 L1622 1490 L1549 1417 Z"/><path class="fv7" d="M1549 1397 L1622 1470 L1622 1490 L1549 1417 Z" /></g><g class="o"><path transform="translate(6,12)" class="S sfv" d="M1784 1197 L1967 1380 L1967 1404 L1784 1221 Z"/><path class="fv5" d="M1784 1197 L1967 1380 L1967 1404 L1784 1221 Z" /></g><g class="o"><path transform="translate(5,10)" class="S sfh" d="M1636 1965 L1829 2158 L1901 2158 L1708 1965 Z"/><path class="fh5" d="M1636 1965 L1829 2158 L1901 2158 L1708 1965 Z" /></g><g class="o"><path transform="translate(7,14)" class="S ssh" d="M2022 1029 L2183 1190 L2195 1190 L2034 1029 Z"/><path class="sh6" d="M2022 1029 L2183 1190 L2195 1190 L2034 1029 Z" /></g><g class="o"><path transform="translate(3,6)" class="S sfv" d="M1195 1048 L1277 1130 L1277 1148 L1195 1066 Z"/><path class="fv6" d="M1195 1048 L1277 1130 L1277 1148 L1195 1066 Z" /></g><g class="o"><path transform="translate(6,12)" class="S sfv" d="M1841 1261 L1944 1364 L1944 1388 L1841 1285 Z"/><path class="fv4" d="M1841 1261 L1944 1364 L1944 1388 L1841 1285 Z" /></g><g class="o"><path transform="translate(7,14)" class="S sfh" d="M1150 1085 L1249 1184 L1281 1184 L1182 1085 Z"/><path class="fh1" d="M1150 1085 L1249 1184 L1281 1184 L1182 1085 Z" /></g><g class="o"><path transform="translate(9,18)" class="S sfh" d="M1454 1474 L1640 1660 L1674 1660 L1488 1474 Z"/><path class="fh5" d="M1454 1474 L1640 1660 L1674 1660 L1488 1474 Z" /></g><g class="o"><path transform="translate(8,16)" class="S ssv" d="M1553 1161 L1801 1409 L1801 1445 L1553 1197 Z"/><path class="sv5" d="M1553 1161 L1801 1409 L1801 1445 L1553 1197 Z" /></g><g class="o"><path transform="translate(9,18)" class="S ssh" d="M1835 1221 L1977 1363 L1989 1363 L1847 1221 Z"/><path class="sh2" d="M1835 1221 L1977 1363 L1989 1363 L1847 1221 Z" /></g><g class="o"><path transform="translate(3,6)" class="S sfh" d="M1106 1137 L1790 1821 L1824 1821 L1140 1137 Z"/><path class="fh4" d="M1106 1137 L1790 1821 L1824 1821 L1140 1137 Z" /></g><g class="o"><path transform="translate(3,6)" class="S sfh" d="M1481 1497 L1677 1693 L1711 1693 L1515 1497 Z"/><path class="fh4" d="M1481 1497 L1677 1693 L1711 1693 L1515 1497 Z" /></g><g class="o"><path transform="translate(5,10)" class="S sfh" d="M1306 1958 L1528 2180 L1536 2180 L1314 1958 Z"/><path class="fh4" d="M1306 1958 L1528 2180 L1536 2180 L1314 1958 Z" /></g><g class="o"><path transform="translate(9,18)" class="S ssv" d="M1536 1036 L1698 1198 L1698 1214 L1536 1052 Z"/><path class="sv4" d="M1536 1036 L1698 1198 L1698 1214 L1536 1052 Z" /></g><g class="o"><path transform="translate(9,18)" class="S sfv" d="M1036 1157 L1200 1321 L1200 1333 L1036 1169 Z"/><path class="fv5" d="M1036 1157 L1200 1321 L1200 1333 L1036 1169 Z" /></g><g class="o"><path transform="translate(7,14)" class="S sfh" d="M1477 1818 L1681 2022 L1689 2022 L1485 1818 Z"/><path class="fh1" d="M1477 1818 L1681 2022 L1689 2022 L1485 1818 Z" /></g><g class="o"><path transform="translate(4,8)" class="S ssv" d="M1603 1971 L1797 2165 L1797 2201 L1603 2007 Z"/><path class="sv1" d="M1603 1971 L1797 2165 L1797 2201 L1603 2007 Z" /></g><g class="o"><path transform="translate(4,8)" class="S sfv" d="M1207 2003 L1388 2184 L1388 2220 L1207 2039 Z"/><path class="fv7" d="M1207 2003 L1388 2184 L1388 2220 L1207 2039 Z" /></g><g class="o"><path transform="translate(3,6)" class="S sfh" d="M960 1910 L1160 2110 L1184 2110 L984 1910 Z"/><path class="fh5" d="M960 1910 L1160 2110 L1184 2110 L984 1910 Z" /></g><g class="o"><path transform="translate(5,10)" class="S sfv" d="M1614 1617 L2232 2235 L2232 2275 L1614 1657 Z"/><path class="fv6" d="M1614 1617 L2232 2235 L2232 2275 L1614 1657 Z" /></g><g class="o"><path transform="translate(5,10)" class="S sfv" d="M1836 1259 L2565 1988 L2565 2022 L1836 1293 Z"/><path class="fv1" d="M1836 1259 L2565 1988 L2565 2022 L1836 1293 Z" /></g><g class="o"><path transform="translate(4,8)" class="S sfh" d="M949 1883 L1106 2040 L1114 2040 L957 1883 Z"/><path class="fh5" d="M949 1883 L1106 2040 L1114 2040 L957 1883 Z" /></g><g class="o"><path transform="translate(5,10)" class="S sfh" d="M1688 1645 L1928 1885 L2040 1885 L1800 1645 Z"/><path class="fh1" d="M1688 1645 L1928 1885 L2040 1885 L1800 1645 Z" /></g><g class="o"><path transform="translate(8,16)" class="S ssv" d="M1513 1540 L1700 1727 L1700 1759 L1513 1572 Z"/><path class="sv6" d="M1513 1540 L1700 1727 L1700 1759 L1513 1572 Z" /></g><g class="o"><path transform="translate(8,16)" class="S sfv" d="M1577 1279 L1658 1360 L1658 1374 L1577 1293 Z"/><path class="fv5" d="M1577 1279 L1658 1360 L1658 1374 L1577 1293 Z" /></g><g class="o"><path transform="translate(2,4)" class="S sfv" d="M1190 1503 L1439 1752 L1439 1808 L1190 1559 Z"/><path class="fv6" d="M1190 1503 L1439 1752 L1439 1808 L1190 1559 Z" /></g><g class="o"><path transform="translate(7,14)" class="S sfv" d="M1937 1586 L2127 1776 L2127 1792 L1937 1602 Z"/><path class="fv4" d="M1937 1586 L2127 1776 L2127 1792 L1937 1602 Z" /></g><g class="o"><path transform="translate(9,18)" class="S sfv" d="M1445 1860 L1943 2358 L1943 2390 L1445 1892 Z"/><path class="fv1" d="M1445 1860 L1943 2358 L1943 2390 L1445 1892 Z" /></g><g class="o"><path transform="translate(6,12)" class="S sfv" d="M1593 1841 L1718 1966 L1718 2004 L1593 1879 Z"/><path class="fv7" d="M1593 1841 L1718 1966 L1718 2004 L1593 1879 Z" /></g><g class="o"><path transform="translate(6,12)" class="S sfv" d="M1304 1709 L1534 1939 L1534 1949 L1304 1719 Z"/><path class="fv5" d="M1304 1709 L1534 1939 L1534 1949 L1304 1719 Z" /></g><g class="o"><path transform="translate(5,10)" class="S sfh" d="M1982 1067 L2040 1125 L2052 1125 L1994 1067 Z"/><path class="fh3" d="M1982 1067 L2040 1125 L2052 1125 L1994 1067 Z" /></g><g class="o"><path transform="translate(3,6)" class="S sfh" d="M1268 1496 L1688 1916 L1706 1916 L1286 1496 Z"/><path class="fh7" d="M1268 1496 L1688 1916 L1706 1916 L1286 1496 Z" /></g><g class="o"><path transform="translate(3,6)" class="S sfh" d="M1203 1346 L1444 1587 L1508 1587 L1267 1346 Z"/><path class="fh4" d="M1203 1346 L1444 1587 L1508 1587 L1267 1346 Z" /></g><g class="o"><path transform="translate(3,6)" class="S sfv" d="M1180 1861 L1390 2071 L1390 2107 L1180 1897 Z"/><path class="fv5" d="M1180 1861 L1390 2071 L1390 2107 L1180 1897 Z" /></g><g class="o"><path transform="translate(3,6)" class="S sfv" d="M1233 1291 L1327 1385 L1327 1419 L1233 1325 Z"/><path class="fv4" d="M1233 1291 L1327 1385 L1327 1419 L1233 1325 Z" /></g><g class="o"><path transform="translate(8,16)" class="S sfh" d="M1861 1258 L2473 1870 L2481 1870 L1869 1258 Z"/><path class="fh6" d="M1861 1258 L2473 1870 L2481 1870 L1869 1258 Z" /></g><g class="o"><path transform="translate(9,18)" class="S sfh" d="M1827 1441 L2514 2128 L2532 2128 L1845 1441 Z"/><path class="fh4" d="M1827 1441 L2514 2128 L2532 2128 L1845 1441 Z" /></g><g class="o"><path transform="translate(6,12)" class="S sfh" d="M1075 1617 L1160 1702 L1192 1702 L1107 1617 Z"/><path class="fh3" d="M1075 1617 L1160 1702 L1192 1702 L1107 1617 Z" /></g><g class="o"><path transform="translate(8,16)" class="S sfv" d="M1469 1729 L1671 1931 L1671 1957 L1469 1755 Z"/><path class="fv3" d="M1469 1729 L1671 1931 L1671 1957 L1469 1755 Z" /></g><g class="o"><path transform="translate(2,4)" class="S sfv" d="M1854 1017 L2115 1278 L2115 1294 L1854 1033 Z"/><path class="fv7" d="M1854 1017 L2115 1278 L2115 1294 L1854 1033 Z" /></g><g class="o"><path transform="translate(7,14)" class="S ssh" d="M1617 1319 L1787 1489 L1931 1489 L1761 1319 Z"/><path class="sh7" d="M1617 1319 L1787 1489 L1931 1489 L1761 1319 Z" /></g><g class="o"><path transform="translate(9,18)" class="S sfv" d="M2046 1426 L2187 1567 L2187 1655 L2046 1514 Z"/><path class="fv2" d="M2046 1426 L2187 1567 L2187 1655 L2046 1514 Z" /></g><g class="o"><path transform="translate(5,10)" class="S sfh" d="M1628 1559 L2084 2015 L2094 2015 L1638 1559 Z"/><path class="fh5" d="M1628 1559 L2084 2015 L2094 2015 L1638 1559 Z" /></g><g class="o"><path transform="translate(9,18)" class="S sfv" d="M1223 1177 L1294 1248 L1294 1262 L1223 1191 Z"/><path class="fv1" d="M1223 1177 L1294 1248 L1294 1262 L1223 1191 Z" /></g><g class="o"><path transform="translate(5,10)" class="S ssh" d="M1766 1157 L1959 1350 L1997 1350 L1804 1157 Z"/><path class="sh7" d="M1766 1157 L1959 1350 L1997 1350 L1804 1157 Z" /></g><g class="o"><path transform="translate(9,18)" class="S ssv" d="M1284 1791 L1532 2039 L1532 2061 L1284 1813 Z"/><path class="sv1" d="M1284 1791 L1532 2039 L1532 2061 L1284 1813 Z" /></g><g class="o"><path transform="translate(9,18)" class="S sfh" d="M1878 1117 L2002 1241 L2026 1241 L1902 1117 Z"/><path class="fh1" d="M1878 1117 L2002 1241 L2026 1241 L1902 1117 Z" /></g><g class="o"><path transform="translate(2,4)" class="S sfv" d="M1934 1758 L2021 1845 L2021 1865 L1934 1778 Z"/><path class="fv7" d="M1934 1758 L2021 1845 L2021 1865 L1934 1778 Z" /></g><g class="o"><path transform="translate(4,8)" class="S sfh" d="M2034 1196 L2201 1363 L2209 1363 L2042 1196 Z"/><path class="fh3" d="M2034 1196 L2201 1363 L2209 1363 L2042 1196 Z" /></g><g class="o"><path transform="translate(2,4)" class="S sfh" d="M1631 1411 L1811 1591 L1821 1591 L1641 1411 Z"/><path class="fh7" d="M1631 1411 L1811 1591 L1821 1591 L1641 1411 Z" /></g><g class="o"><path transform="translate(4,8)" class="S sfv" d="M1947 1215 L2188 1456 L2188 1466 L1947 1225 Z"/><path class="fv6" d="M1947 1215 L2188 1456 L2188 1466 L1947 1225 Z" /></g><g class="o"><path transform="translate(7,14)" class="S sfv" d="M1544 1402 L1751 1609 L1751 1629 L1544 1422 Z"/><path class="fv7" d="M1544 1402 L1751 1609 L1751 1629 L1544 1422 Z" /></g><g class="o"><path transform="translate(2,4)" class="S sfh" d="M948 963 L1184 1199 L1208 1199 L972 963 Z"/><path class="fh1" d="M948 963 L1184 1199 L1208 1199 L972 963 Z" /></g><g class="o"><path transform="translate(2,4)" class="S sfh" d="M1549 1968 L1751 2170 L1783 2170 L1581 1968 Z"/><path class="fh3" d="M1549 1968 L1751 2170 L1783 2170 L1581 1968 Z" /></g><g class="o"><path transform="translate(7,14)" class="S ssh" d="M1094 1233 L1772 1911 L1792 1911 L1114 1233 Z"/><path class="sh5" d="M1094 1233 L1772 1911 L1792 1911 L1114 1233 Z" /></g><g class="o"><path transform="translate(2,4)" class="S sfv" d="M1580 1202 L1646 1268 L1646 1292 L1580 1226 Z"/><path class="fv5" d="M1580 1202 L1646 1268 L1646 1292 L1580 1226 Z" /></g><g class="o"><path transform="translate(7,14)" class="S sfv" d="M1323 1036 L1426 1139 L1426 1155 L1323 1052 Z"/><path class="fv3" d="M1323 1036 L1426 1139 L1426 1155 L1323 1052 Z" /></g><g class="o"><path transform="translate(8,16)" class="S ssv" d="M1584 955 L2238 1609 L2238 1753 L1584 1099 Z"/><path class="sv5" d="M1584 955 L2238 1609 L2238 1753 L1584 1099 Z" /></g><g class="o"><path transform="translate(4,8)" class="S sfh" d="M1173 1974 L1250 2051 L1288 2051 L1211 1974 Z"/><path class="fh3" d="M1173 1974 L1250 2051 L1288 2051 L1211 1974 Z" /></g><g class="o"><path transform="translate(7,14)" class="S sfv" d="M1865 1564 L2052 1751 L2052 1839 L1865 1652 Z"/><path class="fv7" d="M1865 1564 L2052 1751 L2052 1839 L1865 1652 Z" /></g><g class="o"><path transform="translate(4,8)" class="S sfh" d="M1724 1408 L1911 1595 L1949 1595 L1762 1408 Z"/><path class="fh4" d="M1724 1408 L1911 1595 L1949 1595 L1762 1408 Z" /></g><g class="o"><path transform="translate(5,10)" class="S ssv" d="M1163 1582 L1377 1796 L1377 1940 L1163 1726 Z"/><path class="sv7" d="M1163 1582 L1377 1796 L1377 1940 L1163 1726 Z" /></g><g class="o"><path transform="translate(7,14)" class="S sfv" d="M1680 1897 L1855 2072 L1855 2102 L1680 1927 Z"/><path class="fv1" d="M1680 1897 L1855 2072 L1855 2102 L1680 1927 Z" /></g><g class="o"><path transform="translate(2,4)" class="S sfv" d="M956 1423 L1173 1640 L1173 1664 L956 1447 Z"/><path class="fv7" d="M956 1423 L1173 1640 L1173 1664 L956 1447 Z" /></g><g class="o"><path transform="translate(7,14)" class="S sfv" d="M1590 1160 L1821 1391 L1821 1407 L1590 1176 Z"/><path class="fv6" d="M1590 1160 L1821 1391 L1821 1407 L1590 1176 Z" /></g><g class="o"><path transform="translate(8,16)" class="S ssv" d="M1544 1472 L1642 1570 L1642 1580 L1544 1482 Z"/><path class="sv2" d="M1544 1472 L1642 1570 L1642 1580 L1544 1482 Z" /></g><g class="o"><path transform="translate(5,10)" class="S sfv" d="M1242 1353 L1326 1437 L1326 1457 L1242 1373 Z"/><path class="fv1" d="M1242 1353 L1326 1437 L1326 1457 L1242 1373 Z" /></g><g class="o"><path transform="translate(4,8)" class="S sfv" d="M1963 1697 L2143 1877 L2143 1899 L1963 1719 Z"/><path class="fv3" d="M1963 1697 L2143 1877 L2143 1899 L1963 1719 Z" /></g><g class="o"><path transform="translate(7,14)" class="S sfv" d="M1711 1651 L1900 1840 L1900 1872 L1711 1683 Z"/><path class="fv7" d="M1711 1651 L1900 1840 L1900 1872 L1711 1683 Z" /></g><g class="o"><path transform="translate(9,18)" class="S sfv" d="M952 1740 L1318 2106 L1318 2140 L952 1774 Z"/><path class="fv6" d="M952 1740 L1318 2106 L1318 2140 L952 1774 Z" /></g><g class="o"><path transform="translate(7,14)" class="S sfv" d="M1453 1848 L1608 2003 L1608 2037 L1453 1882 Z"/><path class="fv7" d="M1453 1848 L1608 2003 L1608 2037 L1453 1882 Z" /></g><g class="o"><path transform="translate(3,6)" class="S sfv" d="M1648 945 L1838 1135 L1838 1287 L1648 1097 Z"/><path class="fv7" d="M1648 945 L1838 1135 L1838 1287 L1648 1097 Z" /></g><g class="o"><path transform="translate(2,4)" class="S sfv" d="M1730 1286 L1961 1517 L1961 1661 L1730 1430 Z"/><path class="fv2" d="M1730 1286 L1961 1517 L1961 1661 L1730 1430 Z" /></g><g class="o"><path transform="translate(7,14)" class="S sfv" d="M1888 1296 L1999 1407 L1999 1431 L1888 1320 Z"/><path class="fv7" d="M1888 1296 L1999 1407 L1999 1431 L1888 1320 Z" /></g><g class="o"><path transform="translate(6,12)" class="S sfh" d="M1204 1738 L1416 1950 L1436 1950 L1224 1738 Z"/><path class="fh6" d="M1204 1738 L1416 1950 L1436 1950 L1224 1738 Z" /></g><g class="o"><path transform="translate(2,4)" class="S sfh" d="M1804 1656 L1955 1807 L1987 1807 L1836 1656 Z"/><path class="fh1" d="M1804 1656 L1955 1807 L1987 1807 L1836 1656 Z" /></g><g class="o"><path transform="translate(8,16)" class="S ssv" d="M1169 1073 L1276 1180 L1276 1214 L1169 1107 Z"/><path class="sv6" d="M1169 1073 L1276 1180 L1276 1214 L1169 1107 Z" /></g><g class="o"><path transform="translate(7,14)" class="S sfh" d="M1155 1457 L1394 1696 L1424 1696 L1185 1457 Z"/><path class="fh2" d="M1155 1457 L1394 1696 L1424 1696 L1185 1457 Z" /></g><g class="o"><path transform="translate(5,10)" class="S sfv" d="M2039 1211 L2240 1412 L2240 1440 L2039 1239 Z"/><path class="fv1" d="M2039 1211 L2240 1412 L2240 1440 L2039 1239 Z" /></g><g class="o"><path transform="translate(5,10)" class="S sfh" d="M1631 1157 L1831 1357 L1867 1357 L1667 1157 Z"/><path class="fh1" d="M1631 1157 L1831 1357 L1867 1357 L1667 1157 Z" /></g><g class="o"><path transform="translate(8,16)" class="S ssv" d="M1572 1605 L1674 1707 L1674 1715 L1572 1613 Z"/><path class="sv4" d="M1572 1605 L1674 1707 L1674 1715 L1572 1613 Z" /></g><g class="o"><path transform="translate(9,18)" class="S ssh" d="M1089 1387 L1224 1522 L1242 1522 L1107 1387 Z"/><path class="sh4" d="M1089 1387 L1224 1522 L1242 1522 L1107 1387 Z" /></g><g class="o"><path transform="translate(7,14)" class="S sfv" d="M1399 1646 L1461 1708 L1461 1726 L1399 1664 Z"/><path class="fv4" d="M1399 1646 L1461 1708 L1461 1726 L1399 1664 Z" /></g><g class="o"><path transform="translate(7,14)" class="S sfv" d="M1064 1534 L1634 2104 L1634 2120 L1064 1550 Z"/><path class="fv3" d="M1064 1534 L1634 2104 L1634 2120 L1064 1550 Z" /></g><g class="o"><path transform="translate(5,10)" class="S sfv" d="M1909 1418 L2094 1603 L2094 1629 L1909 1444 Z"/><path class="fv6" d="M1909 1418 L2094 1603 L2094 1629 L1909 1444 Z" /></g><g class="o"><path transform="translate(2,4)" class="S sfv" d="M1560 1897 L2190 2527 L2190 2575 L1560 1945 Z"/><path class="fv3" d="M1560 1897 L2190 2527 L2190 2575 L1560 1945 Z" /></g><g class="o"><path transform="translate(2,4)" class="S sfh" d="M1267 1828 L1367 1928 L1393 1928 L1293 1828 Z"/><path class="fh3" d="M1267 1828 L1367 1928 L1393 1928 L1293 1828 Z" /></g><g class="o"><path transform="translate(9,18)" class="S sfv" d="M1182 1722 L1406 1946 L1406 1980 L1182 1756 Z"/><path class="fv4" d="M1182 1722 L1406 1946 L1406 1980 L1182 1756 Z" /></g><g class="o"><path transform="translate(3,6)" class="S ssv" d="M2029 1801 L2244 2016 L2244 2168 L2029 1953 Z"/><path class="sv7" d="M2029 1801 L2244 2016 L2244 2168 L2029 1953 Z" /></g><g class="o"><path transform="translate(8,16)" class="S sfh" d="M1649 1068 L1845 1264 L1873 1264 L1677 1068 Z"/><path class="fh6" d="M1649 1068 L1845 1264 L1873 1264 L1677 1068 Z" /></g><g class="o"><path transform="translate(8,16)" class="S sfv" d="M1457 1749 L1696 1988 L1696 2016 L1457 1777 Z"/><path class="fv7" d="M1457 1749 L1696 1988 L1696 2016 L1457 1777 Z" /></g><g class="o"><path transform="translate(2,4)" class="S sfv" d="M1583 1995 L1773 2185 L1773 2219 L1583 2029 Z"/><path class="fv3" d="M1583 1995 L1773 2185 L1773 2219 L1583 2029 Z" /></g><g class="o"><path transform="translate(7,14)" class="S ssv" d="M1809 2043 L2052 2286 L2052 2294 L1809 2051 Z"/><path class="sv5" d="M1809 2043 L2052 2286 L2052 2294 L1809 2051 Z" /></g><g class="o"><path transform="translate(6,12)" class="S sfh" d="M1037 1273 L1202 1438 L1216 1438 L1051 1273 Z"/><path class="fh2" d="M1037 1273 L1202 1438 L1216 1438 L1051 1273 Z" /></g><g class="o"><path transform="translate(5,10)" class="S sfv" d="M1152 1280 L1377 1505 L1377 1531 L1152 1306 Z"/><path class="fv4" d="M1152 1280 L1377 1505 L1377 1531 L1152 1306 Z" /></g><g class="o"><path transform="translate(6,12)" class="S sfv" d="M1509 1063 L1675 1229 L1675 1239 L1509 1073 Z"/><path class="fv5" d="M1509 1063 L1675 1229 L1675 1239 L1509 1073 Z" /></g><g class="o"><path transform="translate(3,6)" class="S sfv" d="M1072 955 L1211 1094 L1211 1124 L1072 985 Z"/><path class="fv7" d="M1072 955 L1211 1094 L1211 1124 L1072 985 Z" /></g><g class="o"><path transform="translate(9,18)" class="S ssv" d="M1021 1407 L1143 1529 L1143 1565 L1021 1443 Z"/><path class="sv2" d="M1021 1407 L1143 1529 L1143 1565 L1021 1443 Z" /></g><g class="o"><path transform="translate(3,6)" class="S sfh" d="M1144 1146 L1212 1214 L1226 1214 L1158 1146 Z"/><path class="fh7" d="M1144 1146 L1212 1214 L1226 1214 L1158 1146 Z" /></g><g class="o"><path transform="translate(5,10)" class="S sfv" d="M1886 1232 L2062 1408 L2062 1446 L1886 1270 Z"/><path class="fv7" d="M1886 1232 L2062 1408 L2062 1446 L1886 1270 Z" /></g><g class="o"><path transform="translate(9,18)" class="S ssv" d="M1819 1010 L1980 1171 L1980 1203 L1819 1042 Z"/><path class="sv3" d="M1819 1010 L1980 1171 L1980 1203 L1819 1042 Z" /></g><g class="o"><path transform="translate(5,10)" class="S sfh" d="M1015 1460 L1597 2042 L1623 2042 L1041 1460 Z"/><path class="fh1" d="M1015 1460 L1597 2042 L1623 2042 L1041 1460 Z" /></g><g class="o"><path transform="translate(5,10)" class="S sfh" d="M1261 1618 L1630 1987 L1642 1987 L1273 1618 Z"/><path class="fh5" d="M1261 1618 L1630 1987 L1642 1987 L1273 1618 Z" /></g><g class="o"><path transform="translate(6,12)" class="S sfv" d="M1306 1420 L1372 1486 L1372 1514 L1306 1448 Z"/><path class="fv4" d="M1306 1420 L1372 1486 L1372 1514 L1306 1448 Z" /></g><g class="o"><path transform="translate(8,16)" class="S ssv" d="M969 1830 L1629 2490 L1629 2634 L969 1974 Z"/><path class="sv3" d="M969 1830 L1629 2490 L1629 2634 L969 1974 Z" /></g><g class="o"><path transform="translate(6,12)" class="S sfv" d="M1694 1597 L1774 1677 L1774 1749 L1694 1669 Z"/><path class="fv3" d="M1694 1597 L1774 1677 L1774 1749 L1694 1669 Z" /></g><g class="o"><path transform="translate(5,10)" class="S ssh" d="M1929 2033 L2104 2208 L2124 2208 L1949 2033 Z"/><path class="sh6" d="M1929 2033 L2104 2208 L2124 2208 L1949 2033 Z" /></g><g class="o"><path transform="translate(7,14)" class="S ssv" d="M967 946 L1134 1113 L1134 1133 L967 966 Z"/><path class="sv1" d="M967 946 L1134 1113 L1134 1133 L967 966 Z" /></g><g class="o"><path transform="translate(2,4)" class="S sfh" d="M2002 1479 L2054 1531 L2072 1531 L2020 1479 Z"/><path class="fh6" d="M2002 1479 L2054 1531 L2072 1531 L2020 1479 Z" /></g><g class="o"><path transform="translate(5,10)" class="S ssv" d="M1289 1999 L1526 2236 L1526 2270 L1289 2033 Z"/><path class="sv7" d="M1289 1999 L1526 2236 L1526 2270 L1289 2033 Z" /></g><g class="o"><path transform="translate(7,14)" class="S sfh" d="M1587 1871 L1703 1987 L1727 1987 L1611 1871 Z"/><path class="fh5" d="M1587 1871 L1703 1987 L1727 1987 L1611 1871 Z" /></g><g class="o"><path transform="translate(5,10)" class="S sfh" d="M1326 1868 L1674 2216 L1710 2216 L1362 1868 Z"/><path class="fh7" d="M1326 1868 L1674 2216 L1710 2216 L1362 1868 Z" /></g><g class="o"><path transform="translate(4,8)" class="S sfh" d="M1201 1431 L1287 1517 L1311 1517 L1225 1431 Z"/><path class="fh1" d="M1201 1431 L1287 1517 L1311 1517 L1225 1431 Z" /></g><g class="o"><path transform="translate(2,4)" class="S ssh" d="M1640 1354 L1883 1597 L1919 1597 L1676 1354 Z"/><path class="sh7" d="M1640 1354 L1883 1597 L1919 1597 L1676 1354 Z" /></g><g class="o"><path transform="translate(2,4)" class="S sfv" d="M1809 1306 L2011 1508 L2011 1524 L1809 1322 Z"/><path class="fv3" d="M1809 1306 L2011 1508 L2011 1524 L1809 1322 Z" /></g><g class="o"><path transform="translate(6,12)" class="S sfh" d="M1247 1475 L1392 1620 L1404 1620 L1259 1475 Z"/><path class="fh2" d="M1247 1475 L1392 1620 L1404 1620 L1259 1475 Z" /></g><g class="o"><path transform="translate(3,6)" class="S sfv" d="M1692 1427 L1838 1573 L1838 1613 L1692 1467 Z"/><path class="fv6" d="M1692 1427 L1838 1573 L1838 1613 L1692 1467 Z" /></g><g class="o"><path transform="translate(6,12)" class="S sfv" d="M1275 1036 L1401 1162 L1401 1178 L1275 1052 Z"/><path class="fv1" d="M1275 1036 L1401 1162 L1401 1178 L1275 1052 Z" /></g><g class="o"><path transform="translate(8,16)" class="S sfv" d="M1686 1340 L1839 1493 L1839 1519 L1686 1366 Z"/><path class="fv7" d="M1686 1340 L1839 1493 L1839 1519 L1686 1366 Z" /></g><g class="o"><path transform="translate(4,8)" class="S sfv" d="M1648 1152 L1897 1401 L1897 1427 L1648 1178 Z"/><path class="fv4" d="M1648 1152 L1897 1401 L1897 1427 L1648 1178 Z" /></g><g class="o"><path transform="translate(2,4)" class="S sfv" d="M1441 1341 L1643 1543 L1643 1561 L1441 1359 Z"/><path class="fv3" d="M1441 1341 L1643 1543 L1643 1561 L1441 1359 Z" /></g><g class="o"><path transform="translate(6,12)" class="S sfv" d="M1767 1761 L2484 2478 L2484 2500 L1767 1783 Z"/><path class="fv6" d="M1767 1761 L2484 2478 L2484 2500 L1767 1783 Z" /></g><g class="o"><path transform="translate(5,10)" class="S sfh" d="M1751 1953 L1843 2045 L1855 2045 L1763 1953 Z"/><path class="fh4" d="M1751 1953 L1843 2045 L1855 2045 L1763 1953 Z" /></g><g class="o"><path transform="translate(9,18)" class="S sfv" d="M1799 1645 L2032 1878 L2032 1892 L1799 1659 Z"/><path class="fv2" d="M1799 1645 L2032 1878 L2032 1892 L1799 1659 Z" /></g><g class="o"><path transform="translate(6,12)" class="S sfh" d="M1965 1501 L2118 1654 L2126 1654 L1973 1501 Z"/><path class="fh2" d="M1965 1501 L2118 1654 L2126 1654 L1973 1501 Z" /></g><g class="o"><path transform="translate(6,12)" class="S sfh" d="M1956 2010 L2023 2077 L2039 2077 L1972 2010 Z"/><path class="fh3" d="M1956 2010 L2023 2077 L2039 2077 L1972 2010 Z" /></g><g class="o"><path transform="translate(7,14)" class="S sfv" d="M950 1065 L1011 1126 L1011 1164 L950 1103 Z"/><path class="fv2" d="M950 1065 L1011 1126 L1011 1164 L950 1103 Z" /></g><g class="o"><path transform="translate(9,18)" class="S ssv" d="M1020 1055 L1614 1649 L1614 1669 L1020 1075 Z"/><path class="sv5" d="M1020 1055 L1614 1649 L1614 1669 L1020 1075 Z" /></g><g class="o"><path transform="translate(7,14)" class="S sfh" d="M1141 1034 L1338 1231 L1358 1231 L1161 1034 Z"/><path class="fh4" d="M1141 1034 L1338 1231 L1358 1231 L1161 1034 Z" /></g><g class="o"><path transform="translate(3,6)" class="S sfv" d="M1498 1974 L1549 2025 L1549 2043 L1498 1992 Z"/><path class="fv7" d="M1498 1974 L1549 2025 L1549 2043 L1498 1992 Z" /></g><g class="o"><path transform="translate(2,4)" class="S sfv" d="M1604 1876 L1761 2033 L1761 2057 L1604 1900 Z"/><path class="fv4" d="M1604 1876 L1761 2033 L1761 2057 L1604 1900 Z" /></g><g class="o"><path transform="translate(2,4)" class="S ssh" d="M975 1984 L1536 2545 L1656 2545 L1095 1984 Z"/><path class="sh5" d="M975 1984 L1536 2545 L1656 2545 L1095 1984 Z" /></g><g class="o"><path transform="translate(4,8)" class="S sfh" d="M1707 1242 L1946 1481 L1974 1481 L1735 1242 Z"/><path class="fh2" d="M1707 1242 L1946 1481 L1974 1481 L1735 1242 Z" /></g><g class="o"><path transform="translate(6,12)" class="S sfv" d="M2033 996 L2423 1386 L2423 1406 L2033 1016 Z"/><path class="fv3" d="M2033 996 L2423 1386 L2423 1406 L2033 1016 Z" /></g><g class="o"><path transform="translate(4,8)" class="S sfv" d="M2011 1952 L2067 2008 L2067 2036 L2011 1980 Z"/><path class="fv1" d="M2011 1952 L2067 2008 L2067 2036 L2011 1980 Z" /></g><g class="o"><path transform="translate(8,16)" class="S sfh" d="M1621 1478 L1709 1566 L1729 1566 L1641 1478 Z"/><path class="fh6" d="M1621 1478 L1709 1566 L1729 1566 L1641 1478 Z" /></g><g class="o"><path transform="translate(4,8)" class="S ssh" d="M1233 978 L1456 1201 L1584 1201 L1361 978 Z"/><path class="sh1" d="M1233 978 L1456 1201 L1584 1201 L1361 978 Z" /></g><g class="o"><path transform="translate(3,6)" class="S sfv" d="M1865 1994 L2091 2220 L2091 2252 L1865 2026 Z"/><path class="fv7" d="M1865 1994 L2091 2220 L2091 2252 L1865 2026 Z" /></g><g class="o"><path transform="translate(7,14)" class="S sfh" d="M1940 1935 L2119 2114 L2137 2114 L1958 1935 Z"/><path class="fh4" d="M1940 1935 L2119 2114 L2137 2114 L1958 1935 Z" /></g><g class="o"><path transform="translate(7,14)" class="S sfh" d="M1057 1693 L1194 1830 L1206 1830 L1069 1693 Z"/><path class="fh2" d="M1057 1693 L1194 1830 L1206 1830 L1069 1693 Z" /></g></g><use href="#slashes" transform-origin="1500 1500" transform="rotate(180) scale(2)"/></g><rect x="1080" y="1080" width="840" height="840" stroke-width="40" class="o s7" /><use href="#slashes" transform-origin="1500 1500" transform="scale(.6)"/><use href="#slashes" transform-origin="1500 1500" transform="rotate(180) scale(.6)"/></svg>