<svg xmlns="http://www.w3.org/2000/svg" viewBox="750 750 1500 1500"><style>/*<![CDATA[*/svg{background:rgb(250,243,221);max-width:100vw;max-height:100vh}path{stroke-width:4}.o{opacity:.75}.S{opacity:.4}.sf{stroke:none;fill:black}.sfh{stroke:none;fill:url(#hs)}.sfv{stroke:none;fill:url(#vs)}.ss{stroke:black;fill:none}.ssh{stroke:url(#hs);fill:none}.ssv{stroke:url(#vs);fill:none}.s1{fill:none;stroke:rgb(255,166,158)}.f1{stroke:none;fill:rgb(255,166,158)}.sh1{fill:none;stroke:url(#h1)}.fh1{stroke:none;fill:url(#h1)}.sv1{fill:none;stroke:url(#v1)}.fv1{stroke:none;fill:url(#v1)}.s2{fill:none;stroke:rgb(174,217,224)}.f2{stroke:none;fill:rgb(174,217,224)}.sh2{fill:none;stroke:url(#h2)}.fh2{stroke:none;fill:url(#h2)}.sv2{fill:none;stroke:url(#v2)}.fv2{stroke:none;fill:url(#v2)}.s3{fill:none;stroke:rgb(34,34,34)}.f3{stroke:none;fill:rgb(34,34,34)}.sh3{fill:none;stroke:url(#h3)}.fh3{stroke:none;fill:url(#h3)}.sv3{fill:none;stroke:url(#v3)}.fv3{stroke:none;fill:url(#v3)}.s4{fill:none;stroke:rgb(94,100,114)}.f4{stroke:none;fill:rgb(94,100,114)}.sh4{fill:none;stroke:url(#h4)}.fh4{stroke:none;fill:url(#h4)}.sv4{fill:none;stroke:url(#v4)}.fv4{stroke:none;fill:url(#v4)}.s5{fill:none;stroke:rgb(184,242,230)}.f5{stroke:none;fill:rgb(184,242,230)}.sh5{fill:none;stroke:url(#h5)}.fh5{stroke:none;fill:url(#h5)}.sv5{fill:none;stroke:url(#v5)}.fv5{stroke:none;fill:url(#v5)}.s6{fill:none;stroke:rgb(255,255,255)}.f6{stroke:none;fill:rgb(255,255,255)}.sh6{fill:none;stroke:url(#h6)}.fh6{stroke:none;fill:url(#h6)}.sv6{fill:none;stroke:url(#v6)}.fv6{stroke:none;fill:url(#v6)}.s7{fill:none;stroke:rgb(255,0,0)}.f7{stroke:none;fill:rgb(255,0,0)}.sh7{fill:none;stroke:url(#h7)}.fh7{stroke:none;fill:url(#h7)}.sv7{fill:none;stroke:url(#v7)}.fv7{stroke:none;fill:url(#v7)}/*]]>*/</style><defs><linearGradient gradientTransform="rotate(90)" id="hs"><stop offset="20%" stop-color="#000" /><stop offset="95%" stop-color="rgba(0, 0, 0, 0)" /></linearGradient><linearGradient id="vs"><stop offset="20%" stop-color="#000" /><stop offset="95%" stop-color="rgba(0, 0, 0, 0)" /></linearGradient><linearGradient gradientTransform="rotate(90)" id="h1"><stop offset="20%" stop-color="rgba(255,166,158,1)" /><stop offset="95%" stop-color="rgba(255,166,158,0)" /></linearGradient><linearGradient id="v1"><stop offset="20%" stop-color="rgba(255,166,158,1)" /><stop offset="95%" stop-color="rgba(255,166,158,0)" /></linearGradient><linearGradient gradientTransform="rotate(90)" id="h2"><stop offset="20%" stop-color="rgba(174,217,224,1)" /><stop offset="95%" stop-color="rgba(174,217,224,0)" /></linearGradient><linearGradient id="v2"><stop offset="20%" stop-color="rgba(174,217,224,1)" /><stop offset="95%" stop-color="rgba(174,217,224,0)" /></linearGradient><linearGradient gradientTransform="rotate(90)" id="h3"><stop offset="20%" stop-color="rgba(34,34,34,1)" /><stop offset="95%" stop-color="rgba(34,34,34,0)" /></linearGradient><linearGradient id="v3"><stop offset="20%" stop-color="rgba(34,34,34,1)" /><stop offset="95%" stop-color="rgba(34,34,34,0)" /></linearGradient><linearGradient gradientTransform="rotate(90)" id="h4"><stop offset="20%" stop-color="rgba(94,100,114,1)" /><stop offset="95%" stop-color="rgba(94,100,114,0)" /></linearGradient><linearGradient id="v4"><stop offset="20%" stop-color="rgba(94,100,114,1)" /><stop offset="95%" stop-color="rgba(94,100,114,0)" /></linearGradient><linearGradient gradientTransform="rotate(90)" id="h5"><stop offset="20%" stop-color="rgba(184,242,230,1)" /><stop offset="95%" stop-color="rgba(184,242,230,0)" /></linearGradient><linearGradient id="v5"><stop offset="20%" stop-color="rgba(184,242,230,1)" /><stop offset="95%" stop-color="rgba(184,242,230,0)" /></linearGradient><linearGradient gradientTransform="rotate(90)" id="h6"><stop offset="20%" stop-color="rgba(255,255,255,1)" /><stop offset="95%" stop-color="rgba(255,255,255,0)" /></linearGradient><linearGradient id="v6"><stop offset="20%" stop-color="rgba(255,255,255,1)" /><stop offset="95%" stop-color="rgba(255,255,255,0)" /></linearGradient><linearGradient gradientTransform="rotate(90)" id="h7"><stop offset="20%" stop-color="rgba(255,0,0,1)" /><stop offset="95%" stop-color="rgba(255,0,0,0)" /></linearGradient><linearGradient id="v7"><stop offset="20%" stop-color="rgba(255,0,0,1)" /><stop offset="95%" stop-color="rgba(255,0,0,0)" /></linearGradient></defs><g transform-origin="1500 1500" transform="scale(2)" opacity=".2"><g id="slashes"><g class="o"><path transform="translate(7,14)" class="S sf" d="M1527 1529 L1650 1406 L1672 1406 L1549 1529 Z"/><path class="f4" d="M1527 1529 L1650 1406 L1672 1406 L1549 1529 Z" /></g><g class="o"><path transform="translate(3,6)" class="S sf" d="M1319 1766 L1524 1561 L1524 1575 L1319 1780 Z"/><path class="f6" d="M1319 1766 L1524 1561 L1524 1575 L1319 1780 Z" /></g><g class="o"><path transform="translate(7,14)" class="S ss" d="M956 1468 L1117 1307 L1117 1327 L956 1488 Z"/><path class="s3" d="M956 1468 L1117 1307 L1117 1327 L956 1488 Z" /></g><g class="o"><path transform="translate(4,8)" class="S sf" d="M1549 1092 L1650 991 L1650 1087 L1549 1188 Z"/><path class="f2" d="M1549 1092 L1650 991 L1650 1087 L1549 1188 Z" /></g><g class="o"><path transform="translate(8,16)" class="S sf" d="M987 1678 L1248 1417 L1248 1437 L987 1698 Z"/><path class="f6" d="M987 1678 L1248 1417 L1248 1437 L987 1698 Z" /></g><g class="o"><path transform="translate(8,16)" class="S ss" d="M1019 1923 L1490 1452 L1498 1452 L1027 1923 Z"/><path class="s4" d="M1019 1923 L1490 1452 L1498 1452 L1027 1923 Z" /></g><g class="o"><path transform="translate(3,6)" class="S sf" d="M1162 1985 L967 1790 L967 1886 L1162 2081 Z"/><path class="f1" d="M1162 1985 L967 1790 L967 1886 L1162 2081 Z" /></g><g class="o"><path transform="translate(7,14)" class="S sf" d="M1021 1060 L1114 967 L1114 977 L1021 1070 Z"/><path class="f1" d="M1021 1060 L1114 967 L1114 977 L1021 1070 Z" /></g><g class="o"><path transform="translate(3,6)" class="S sf" d="M1791 1247 L1673 1129 L1673 1241 L1791 1359 Z"/><path class="f2" d="M1791 1247 L1673 1129 L1673 1241 L1791 1359 Z" /></g><g class="o"><path transform="translate(7,14)" class="S ss" d="M1720 994 L1571 845 L1571 861 L1720 1010 Z"/><path class="s7" d="M1720 994 L1571 845 L1571 861 L1720 1010 Z" /></g><g class="o"><path transform="translate(4,8)" class="S sf" d="M1768 1622 L1862 1528 L1862 1554 L1768 1648 Z"/><path class="f2" d="M1768 1622 L1862 1528 L1862 1554 L1768 1648 Z" /></g><g class="o"><path transform="translate(5,10)" class="S sf" d="M1742 1574 L1493 1325 L1493 1357 L1742 1606 Z"/><path class="f4" d="M1742 1574 L1493 1325 L1493 1357 L1742 1606 Z" /></g><g class="o"><path transform="translate(7,14)" class="S sf" d="M993 1834 L1095 1732 L1111 1732 L1009 1834 Z"/><path class="f7" d="M993 1834 L1095 1732 L1111 1732 L1009 1834 Z" /></g><g class="o"><path transform="translate(4,8)" class="S sf" d="M1672 1317 L1809 1180 L1825 1180 L1688 1317 Z"/><path class="f1" d="M1672 1317 L1809 1180 L1825 1180 L1688 1317 Z" /></g><g class="o"><path transform="translate(7,14)" class="S sf" d="M1302 1110 L1535 877 L1547 877 L1314 1110 Z"/><path class="f1" d="M1302 1110 L1535 877 L1547 877 L1314 1110 Z" /></g><g class="o"><path transform="translate(9,18)" class="S sf" d="M1348 1425 L1543 1230 L1615 1230 L1420 1425 Z"/><path class="f4" d="M1348 1425 L1543 1230 L1615 1230 L1420 1425 Z" /></g><g class="o"><path transform="translate(6,12)" class="S sf" d="M961 1707 L827 1573 L843 1573 L977 1707 Z"/><path class="f1" d="M961 1707 L827 1573 L843 1573 L977 1707 Z" /></g><g class="o"><path transform="translate(4,8)" class="S sf" d="M1400 1161 L1462 1099 L1462 1113 L1400 1175 Z"/><path class="f4" d="M1400 1161 L1462 1099 L1462 1113 L1400 1175 Z" /></g><g class="o"><path transform="translate(7,14)" class="S ss" d="M1737 1631 L1871 1497 L1903 1497 L1769 1631 Z"/><path class="s4" d="M1737 1631 L1871 1497 L1903 1497 L1769 1631 Z" /></g><g class="o"><path transform="translate(4,8)" class="S sf" d="M1341 1657 L2034 964 L2034 996 L1341 1689 Z"/><path class="f1" d="M1341 1657 L2034 964 L2034 996 L1341 1689 Z" /></g><g class="o"><path transform="translate(8,16)" class="S ss" d="M996 1851 L810 1665 L810 1689 L996 1875 Z"/><path class="s1" d="M996 1851 L810 1665 L810 1689 L996 1875 Z" /></g><g class="o"><path transform="translate(9,18)" class="S ss" d="M1089 1730 L991 1632 L991 1660 L1089 1758 Z"/><path class="s6" d="M1089 1730 L991 1632 L991 1660 L1089 1758 Z" /></g><g class="o"><path transform="translate(8,16)" class="S sf" d="M1930 1215 L2121 1024 L2121 1060 L1930 1251 Z"/><path class="f5" d="M1930 1215 L2121 1024 L2121 1060 L1930 1251 Z" /></g><g class="o"><path transform="translate(9,18)" class="S sf" d="M1240 1785 L1951 1074 L1973 1074 L1262 1785 Z"/><path class="f2" d="M1240 1785 L1951 1074 L1973 1074 L1262 1785 Z" /></g><g class="o"><path transform="translate(9,18)" class="S ss" d="M1460 1055 L1642 873 L1666 873 L1484 1055 Z"/><path class="s7" d="M1460 1055 L1642 873 L1666 873 L1484 1055 Z" /></g><g class="o"><path transform="translate(7,14)" class="S sf" d="M1226 1501 L1393 1334 L1393 1356 L1226 1523 Z"/><path class="f3" d="M1226 1501 L1393 1334 L1393 1356 L1226 1523 Z" /></g><g class="o"><path transform="translate(7,14)" class="S sf" d="M1185 1512 L1258 1439 L1280 1439 L1207 1512 Z"/><path class="f1" d="M1185 1512 L1258 1439 L1280 1439 L1207 1512 Z" /></g><g class="o"><path transform="translate(5,10)" class="S sf" d="M1007 1936 L1195 1748 L1231 1748 L1043 1936 Z"/><path class="f5" d="M1007 1936 L1195 1748 L1231 1748 L1043 1936 Z" /></g><g class="o"><path transform="translate(5,10)" class="S sf" d="M1077 1201 L863 987 L863 1023 L1077 1237 Z"/><path class="f7" d="M1077 1201 L863 987 L863 1023 L1077 1237 Z" /></g><g class="o"><path transform="translate(6,12)" class="S sf" d="M1440 1397 L1689 1148 L1689 1186 L1440 1435 Z"/><path class="f4" d="M1440 1397 L1689 1148 L1689 1186 L1440 1435 Z" /></g><g class="o"><path transform="translate(9,18)" class="S sf" d="M1051 1335 L1264 1122 L1264 1160 L1051 1373 Z"/><path class="f6" d="M1051 1335 L1264 1122 L1264 1160 L1051 1373 Z" /></g><g class="o"><path transform="translate(2,4)" class="S sf" d="M1556 1461 L2267 750 L2303 750 L1592 1461 Z"/><path class="f1" d="M1556 1461 L2267 750 L2303 750 L1592 1461 Z" /></g><g class="o"><path transform="translate(4,8)" class="S sf" d="M984 1017 L1107 894 L1107 920 L984 1043 Z"/><path class="f4" d="M984 1017 L1107 894 L1107 920 L984 1043 Z" /></g><g class="o"><path transform="translate(8,16)" class="S sf" d="M1260 1580 L1061 1381 L1073 1381 L1272 1580 Z"/><path class="f5" d="M1260 1580 L1061 1381 L1073 1381 L1272 1580 Z" /></g><g class="o"><path transform="translate(3,6)" class="S sf" d="M1114 1206 L1229 1091 L1239 1091 L1124 1206 Z"/><path class="f7" d="M1114 1206 L1229 1091 L1239 1091 L1124 1206 Z" /></g><g class="o"><path transform="translate(9,18)" class="S ss" d="M1571 1064 L1699 936 L1719 936 L1591 1064 Z"/><path class="s1" d="M1571 1064 L1699 936 L1719 936 L1591 1064 Z" /></g><g class="o"><path transform="translate(3,6)" class="S sf" d="M2021 1748 L2187 1582 L2187 1600 L2021 1766 Z"/><path class="f5" d="M2021 1748 L2187 1582 L2187 1600 L2021 1766 Z" /></g><g class="o"><path transform="translate(3,6)" class="S sf" d="M1011 979 L1239 751 L1239 781 L1011 1009 Z"/><path class="f1" d="M1011 979 L1239 751 L1239 781 L1011 1009 Z" /></g><g class="o"><path transform="translate(6,12)" class="S sf" d="M1381 1914 L1245 1778 L1281 1778 L1417 1914 Z"/><path class="f5" d="M1381 1914 L1245 1778 L1281 1778 L1417 1914 Z" /></g><g class="o"><path transform="translate(2,4)" class="S sf" d="M1610 1131 L1824 917 L1944 917 L1730 1131 Z"/><path class="f6" d="M1610 1131 L1824 917 L1944 917 L1730 1131 Z" /></g><g class="o"><path transform="translate(6,12)" class="S ss" d="M1911 1751 L2024 1638 L2024 1656 L1911 1769 Z"/><path class="s6" d="M1911 1751 L2024 1638 L2024 1656 L1911 1769 Z" /></g><g class="o"><path transform="translate(3,6)" class="S sf" d="M1269 1110 L1411 968 L1411 982 L1269 1124 Z"/><path class="f4" d="M1269 1110 L1411 968 L1411 982 L1269 1124 Z" /></g><g class="o"><path transform="translate(3,6)" class="S sf" d="M951 1449 L1302 1098 L1302 1128 L951 1479 Z"/><path class="f1" d="M951 1449 L1302 1098 L1302 1128 L951 1479 Z" /></g><g class="o"><path transform="translate(5,10)" class="S sf" d="M1759 1728 L1640 1609 L1640 1647 L1759 1766 Z"/><path class="f4" d="M1759 1728 L1640 1609 L1640 1647 L1759 1766 Z" /></g><g class="o"><path transform="translate(5,10)" class="S sf" d="M1770 1005 L2292 483 L2292 495 L1770 1017 Z"/><path class="f6" d="M1770 1005 L2292 483 L2292 495 L1770 1017 Z" /></g><g class="o"><path transform="translate(6,12)" class="S sf" d="M2000 1878 L2112 1766 L2112 1802 L2000 1914 Z"/><path class="f3" d="M2000 1878 L2112 1766 L2112 1802 L2000 1914 Z" /></g><g class="o"><path transform="translate(9,18)" class="S sf" d="M1393 1019 L1587 825 L1587 857 L1393 1051 Z"/><path class="f5" d="M1393 1019 L1587 825 L1587 857 L1393 1051 Z" /></g><g class="o"><path transform="translate(6,12)" class="S sf" d="M1117 1003 L1235 885 L1235 897 L1117 1015 Z"/><path class="f6" d="M1117 1003 L1235 885 L1235 897 L1117 1015 Z" /></g><g class="o"><path transform="translate(5,10)" class="S sf" d="M1964 1965 L2176 1753 L2176 1761 L1964 1973 Z"/><path class="f3" d="M1964 1965 L2176 1753 L2176 1761 L1964 1973 Z" /></g><g class="o"><path transform="translate(8,16)" class="S sf" d="M1794 1257 L2010 1041 L2010 1053 L1794 1269 Z"/><path class="f6" d="M1794 1257 L2010 1041 L2010 1053 L1794 1269 Z" /></g><g class="o"><path transform="translate(5,10)" class="S sf" d="M1192 1572 L1897 867 L1921 867 L1216 1572 Z"/><path class="f3" d="M1192 1572 L1897 867 L1921 867 L1216 1572 Z" /></g><g class="o"><path transform="translate(3,6)" class="S sf" d="M1977 1955 L2580 1352 L2610 1352 L2007 1955 Z"/><path class="f6" d="M1977 1955 L2580 1352 L2610 1352 L2007 1955 Z" /></g><g class="o"><path transform="translate(7,14)" class="S sf" d="M1100 1431 L1253 1278 L1317 1278 L1164 1431 Z"/><path class="f6" d="M1100 1431 L1253 1278 L1317 1278 L1164 1431 Z" /></g><g class="o"><path transform="translate(5,10)" class="S sf" d="M1539 1639 L1464 1564 L1464 1578 L1539 1653 Z"/><path class="f4" d="M1539 1639 L1464 1564 L1464 1578 L1539 1653 Z" /></g><g class="o"><path transform="translate(4,8)" class="S sf" d="M1406 1782 L1524 1664 L1524 1688 L1406 1806 Z"/><path class="f7" d="M1406 1782 L1524 1664 L1524 1688 L1406 1806 Z" /></g><g class="o"><path transform="translate(7,14)" class="S sf" d="M1369 1956 L1228 1815 L1248 1815 L1389 1956 Z"/><path class="f2" d="M1369 1956 L1228 1815 L1248 1815 L1389 1956 Z" /></g><g class="o"><path transform="translate(3,6)" class="S sf" d="M1109 937 L1289 757 L1289 783 L1109 963 Z"/><path class="f1" d="M1109 937 L1289 757 L1289 783 L1109 963 Z" /></g><g class="o"><path transform="translate(9,18)" class="S sf" d="M1550 1383 L1850 1083 L1850 1101 L1550 1401 Z"/><path class="f4" d="M1550 1383 L1850 1083 L1850 1101 L1550 1401 Z" /></g><g class="o"><path transform="translate(9,18)" class="S sf" d="M1044 1114 L843 913 L855 913 L1056 1114 Z"/><path class="f2" d="M1044 1114 L843 913 L855 913 L1056 1114 Z" /></g><g class="o"><path transform="translate(9,18)" class="S ss" d="M1636 1834 L1482 1680 L1482 1716 L1636 1870 Z"/><path class="s1" d="M1636 1834 L1482 1680 L1482 1716 L1636 1870 Z" /></g><g class="o"><path transform="translate(3,6)" class="S sf" d="M1887 1816 L2520 1183 L2520 1197 L1887 1830 Z"/><path class="f3" d="M1887 1816 L2520 1183 L2520 1197 L1887 1830 Z" /></g><g class="o"><path transform="translate(6,12)" class="S sf" d="M1225 1319 L1004 1098 L1034 1098 L1255 1319 Z"/><path class="f7" d="M1225 1319 L1004 1098 L1034 1098 L1255 1319 Z" /></g><g class="o"><path transform="translate(5,10)" class="S sf" d="M1878 1673 L1323 1118 L1323 1128 L1878 1683 Z"/><path class="f2" d="M1878 1673 L1323 1118 L1323 1128 L1878 1683 Z" /></g><g class="o"><path transform="translate(7,14)" class="S sf" d="M1918 1048 L2102 864 L2102 890 L1918 1074 Z"/><path class="f1" d="M1918 1048 L2102 864 L2102 890 L1918 1074 Z" /></g><g class="o"><path transform="translate(6,12)" class="S sf" d="M1243 1442 L1319 1366 L1327 1366 L1251 1442 Z"/><path class="f4" d="M1243 1442 L1319 1366 L1327 1366 L1251 1442 Z" /></g><g class="o"><path transform="translate(4,8)" class="S sf" d="M1287 1623 L1179 1515 L1197 1515 L1305 1623 Z"/><path class="f6" d="M1287 1623 L1179 1515 L1197 1515 L1305 1623 Z" /></g><g class="o"><path transform="translate(6,12)" class="S sf" d="M1427 1433 L1494 1366 L1524 1366 L1457 1433 Z"/><path class="f5" d="M1427 1433 L1494 1366 L1524 1366 L1457 1433 Z" /></g><g class="o"><path transform="translate(5,10)" class="S sf" d="M1397 1575 L1496 1476 L1496 1514 L1397 1613 Z"/><path class="f3" d="M1397 1575 L1496 1476 L1496 1514 L1397 1613 Z" /></g><g class="o"><path transform="translate(2,4)" class="S sf" d="M1888 1382 L2015 1255 L2035 1255 L1908 1382 Z"/><path class="f6" d="M1888 1382 L2015 1255 L2035 1255 L1908 1382 Z" /></g><g class="o"><path transform="translate(7,14)" class="S sf" d="M1699 1417 L1911 1205 L1933 1205 L1721 1417 Z"/><path class="f3" d="M1699 1417 L1911 1205 L1933 1205 L1721 1417 Z" /></g><g class="o"><path transform="translate(2,4)" class="S ss" d="M1073 1848 L915 1690 L943 1690 L1101 1848 Z"/><path class="s2" d="M1073 1848 L915 1690 L943 1690 L1101 1848 Z" /></g><g class="o"><path transform="translate(4,8)" class="S ss" d="M1117 1979 L1193 1903 L1203 1903 L1127 1979 Z"/><path class="s3" d="M1117 1979 L1193 1903 L1203 1903 L1127 1979 Z" /></g><g class="o"><path transform="translate(7,14)" class="S sf" d="M1852 1166 L1938 1080 L1938 1096 L1852 1182 Z"/><path class="f4" d="M1852 1166 L1938 1080 L1938 1096 L1852 1182 Z" /></g><g class="o"><path transform="translate(5,10)" class="S sf" d="M1809 1444 L1873 1380 L1873 1412 L1809 1476 Z"/><path class="f5" d="M1809 1444 L1873 1380 L1873 1412 L1809 1476 Z" /></g><g class="o"><path transform="translate(3,6)" class="S sf" d="M1872 980 L2018 834 L2066 834 L1920 980 Z"/><path class="f2" d="M1872 980 L2018 834 L2066 834 L1920 980 Z" /></g><g class="o"><path transform="translate(9,18)" class="S sf" d="M1378 2009 L1550 1837 L1574 1837 L1402 2009 Z"/><path class="f2" d="M1378 2009 L1550 1837 L1574 1837 L1402 2009 Z" /></g><g class="o"><path transform="translate(8,16)" class="S sf" d="M1748 1846 L1818 1776 L1818 1790 L1748 1860 Z"/><path class="f7" d="M1748 1846 L1818 1776 L1818 1790 L1748 1860 Z" /></g><g class="o"><path transform="translate(4,8)" class="S ss" d="M1136 1513 L1361 1288 L1361 1326 L1136 1551 Z"/><path class="s6" d="M1136 1513 L1361 1288 L1361 1326 L1136 1551 Z" /></g><g class="o"><path transform="translate(9,18)" class="S sf" d="M1133 1633 L1321 1445 L1433 1445 L1245 1633 Z"/><path class="f7" d="M1133 1633 L1321 1445 L1433 1445 L1245 1633 Z" /></g><g class="o"><path transform="translate(8,16)" class="S ss" d="M1815 1133 L1899 1049 L1899 1075 L1815 1159 Z"/><path class="s2" d="M1815 1133 L1899 1049 L1899 1075 L1815 1159 Z" /></g><g class="o"><path transform="translate(2,4)" class="S sf" d="M1528 1939 L1084 1495 L1112 1495 L1556 1939 Z"/><path class="f4" d="M1528 1939 L1084 1495 L1112 1495 L1556 1939 Z" /></g><g class="o"><path transform="translate(4,8)" class="S sf" d="M1877 1871 L1932 1816 L1932 1848 L1877 1903 Z"/><path class="f2" d="M1877 1871 L1932 1816 L1932 1848 L1877 1903 Z" /></g><g class="o"><path transform="translate(4,8)" class="S sf" d="M1194 1341 L1857 678 L1891 678 L1228 1341 Z"/><path class="f2" d="M1194 1341 L1857 678 L1891 678 L1228 1341 Z" /></g><g class="o"><path transform="translate(9,18)" class="S sf" d="M1603 1467 L1474 1338 L1474 1358 L1603 1487 Z"/><path class="f2" d="M1603 1467 L1474 1338 L1474 1358 L1603 1487 Z" /></g><g class="o"><path transform="translate(4,8)" class="S sf" d="M1899 1404 L2075 1228 L2075 1250 L1899 1426 Z"/><path class="f7" d="M1899 1404 L2075 1228 L2075 1250 L1899 1426 Z" /></g><g class="o"><path transform="translate(8,16)" class="S ss" d="M1485 1192 L1671 1006 L1671 1044 L1485 1230 Z"/><path class="s6" d="M1485 1192 L1671 1006 L1671 1044 L1485 1230 Z" /></g><g class="o"><path transform="translate(3,6)" class="S sf" d="M2005 1340 L2128 1217 L2128 1253 L2005 1376 Z"/><path class="f2" d="M2005 1340 L2128 1217 L2128 1253 L2005 1376 Z" /></g><g class="o"><path transform="translate(9,18)" class="S ss" d="M1636 1496 L1054 914 L1088 914 L1670 1496 Z"/><path class="s6" d="M1636 1496 L1054 914 L1088 914 L1670 1496 Z" /></g><g class="o"><path transform="translate(7,14)" class="S ss" d="M1971 1387 L2490 868 L2508 868 L1989 1387 Z"/><path class="s4" d="M1971 1387 L2490 868 L2508 868 L1989 1387 Z" /></g><g class="o"><path transform="translate(8,16)" class="S sf" d="M1492 1296 L1645 1143 L1645 1181 L1492 1334 Z"/><path class="f1" d="M1492 1296 L1645 1143 L1645 1181 L1492 1334 Z" /></g><g class="o"><path transform="translate(3,6)" class="S sf" d="M967 1119 L1056 1030 L1056 1038 L967 1127 Z"/><path class="f2" d="M967 1119 L1056 1030 L1056 1038 L967 1127 Z" /></g><g class="o"><path transform="translate(8,16)" class="S sf" d="M2023 1599 L1489 1065 L1489 1087 L2023 1621 Z"/><path class="f4" d="M2023 1599 L1489 1065 L1489 1087 L2023 1621 Z" /></g><g class="o"><path transform="translate(4,8)" class="S sf" d="M1375 1051 L1509 917 L1509 941 L1375 1075 Z"/><path class="f6" d="M1375 1051 L1509 917 L1509 941 L1375 1075 Z" /></g><g class="o"><path transform="translate(3,6)" class="S sf" d="M1010 1495 L1547 958 L1547 1022 L1010 1559 Z"/><path class="f2" d="M1010 1495 L1547 958 L1547 1022 L1010 1559 Z" /></g><g class="o"><path transform="translate(9,18)" class="S sf" d="M1975 1211 L2070 1116 L2104 1116 L2009 1211 Z"/><path class="f6" d="M1975 1211 L2070 1116 L2104 1116 L2009 1211 Z" /></g><g class="o"><path transform="translate(9,18)" class="S ss" d="M1448 1997 L1255 1804 L1291 1804 L1484 1997 Z"/><path class="s4" d="M1448 1997 L1255 1804 L1291 1804 L1484 1997 Z" /></g><g class="o"><path transform="translate(5,10)" class="S sf" d="M1995 1261 L2171 1085 L2171 1117 L1995 1293 Z"/><path class="f4" d="M1995 1261 L2171 1085 L2171 1117 L1995 1293 Z" /></g><g class="o"><path transform="translate(9,18)" class="S sf" d="M976 1626 L1065 1537 L1065 1549 L976 1638 Z"/><path class="f1" d="M976 1626 L1065 1537 L1065 1549 L976 1638 Z" /></g><g class="o"><path transform="translate(7,14)" class="S sf" d="M1056 1302 L1242 1116 L1242 1128 L1056 1314 Z"/><path class="f4" d="M1056 1302 L1242 1116 L1242 1128 L1056 1314 Z" /></g><g class="o"><path transform="translate(6,12)" class="S sf" d="M1528 1376 L1885 1019 L1915 1019 L1558 1376 Z"/><path class="f5" d="M1528 1376 L1885 1019 L1915 1019 L1558 1376 Z" /></g><g class="o"><path transform="translate(4,8)" class="S sf" d="M1717 1644 L1773 1588 L1811 1588 L1755 1644 Z"/><path class="f3" d="M1717 1644 L1773 1588 L1811 1588 L1755 1644 Z" /></g><g class="o"><path transform="translate(5,10)" class="S sf" d="M1075 1507 L1318 1264 L1318 1292 L1075 1535 Z"/><path class="f2" d="M1075 1507 L1318 1264 L1318 1292 L1075 1535 Z" /></g><g class="o"><path transform="translate(4,8)" class="S sf" d="M1042 1848 L817 1623 L827 1623 L1052 1848 Z"/><path class="f1" d="M1042 1848 L817 1623 L827 1623 L1052 1848 Z" /></g><g class="o"><path transform="translate(9,18)" class="S sf" d="M1045 1221 L1096 1170 L1130 1170 L1079 1221 Z"/><path class="f5" d="M1045 1221 L1096 1170 L1130 1170 L1079 1221 Z" /></g><g class="o"><path transform="translate(9,18)" class="S sf" d="M1712 1279 L1843 1148 L1871 1148 L1740 1279 Z"/><path class="f2" d="M1712 1279 L1843 1148 L1871 1148 L1740 1279 Z" /></g><g class="o"><path transform="translate(3,6)" class="S sf" d="M1694 1165 L1936 923 L1958 923 L1716 1165 Z"/><path class="f7" d="M1694 1165 L1936 923 L1958 923 L1716 1165 Z" /></g><g class="o"><path transform="translate(3,6)" class="S sf" d="M1182 1938 L1422 1698 L1446 1698 L1206 1938 Z"/><path class="f3" d="M1182 1938 L1422 1698 L1446 1698 L1206 1938 Z" /></g><g class="o"><path transform="translate(2,4)" class="S sf" d="M1817 1168 L2035 950 L2035 968 L1817 1186 Z"/><path class="f6" d="M1817 1168 L2035 950 L2035 968 L1817 1186 Z" /></g><g class="o"><path transform="translate(9,18)" class="S ss" d="M1467 1308 L1536 1239 L1574 1239 L1505 1308 Z"/><path class="s2" d="M1467 1308 L1536 1239 L1574 1239 L1505 1308 Z" /></g><g class="o"><path transform="translate(5,10)" class="S sf" d="M1951 1661 L2133 1479 L2133 1493 L1951 1675 Z"/><path class="f5" d="M1951 1661 L2133 1479 L2133 1493 L1951 1675 Z" /></g><g class="o"><path transform="translate(7,14)" class="S sf" d="M1423 1359 L919 855 L933 855 L1437 1359 Z"/><path class="f5" d="M1423 1359 L919 855 L933 855 L1437 1359 Z" /></g><g class="o"><path transform="translate(5,10)" class="S sf" d="M1614 1286 L1809 1091 L1809 1105 L1614 1300 Z"/><path class="f1" d="M1614 1286 L1809 1091 L1809 1105 L1614 1300 Z" /></g><g class="o"><path transform="translate(5,10)" class="S sf" d="M1804 1393 L1978 1219 L1996 1219 L1822 1393 Z"/><path class="f7" d="M1804 1393 L1978 1219 L1996 1219 L1822 1393 Z" /></g><g class="o"><path transform="translate(9,18)" class="S sf" d="M1526 1864 L2243 1147 L2265 1147 L1548 1864 Z"/><path class="f4" d="M1526 1864 L2243 1147 L2265 1147 L1548 1864 Z" /></g><g class="o"><path transform="translate(2,4)" class="S sf" d="M1617 1180 L1722 1075 L1754 1075 L1649 1180 Z"/><path class="f5" d="M1617 1180 L1722 1075 L1754 1075 L1649 1180 Z" /></g><g class="o"><path transform="translate(4,8)" class="S sf" d="M1037 1714 L986 1663 L986 1695 L1037 1746 Z"/><path class="f3" d="M1037 1714 L986 1663 L986 1695 L1037 1746 Z" /></g><g class="o"><path transform="translate(5,10)" class="S ss" d="M1137 1236 L1875 498 L1875 520 L1137 1258 Z"/><path class="s3" d="M1137 1236 L1875 498 L1875 520 L1137 1258 Z" /></g><g class="o"><path transform="translate(6,12)" class="S ss" d="M1048 2034 L1167 1915 L1167 1935 L1048 2054 Z"/><path class="s5" d="M1048 2034 L1167 1915 L1167 1935 L1048 2054 Z" /></g><g class="o"><path transform="translate(3,6)" class="S sf" d="M2037 1354 L2103 1288 L2117 1288 L2051 1354 Z"/><path class="f3" d="M2037 1354 L2103 1288 L2117 1288 L2051 1354 Z" /></g><g class="o"><path transform="translate(7,14)" class="S sf" d="M1360 1142 L1636 866 L1672 866 L1396 1142 Z"/><path class="f6" d="M1360 1142 L1636 866 L1672 866 L1396 1142 Z" /></g><g class="o"><path transform="translate(4,8)" class="S sf" d="M1125 1580 L1311 1394 L1311 1430 L1125 1616 Z"/><path class="f7" d="M1125 1580 L1311 1394 L1311 1430 L1125 1616 Z" /></g><g class="o"><path transform="translate(6,12)" class="S sf" d="M1668 1256 L1738 1186 L1738 1196 L1668 1266 Z"/><path class="f5" d="M1668 1256 L1738 1186 L1738 1196 L1668 1266 Z" /></g><g class="o"><path transform="translate(6,12)" class="S ss" d="M1571 1179 L1716 1034 L1716 1044 L1571 1189 Z"/><path class="s4" d="M1571 1179 L1716 1034 L1716 1044 L1571 1189 Z" /></g><g class="o"><path transform="translate(5,10)" class="S sf" d="M1878 1756 L1590 1468 L1590 1494 L1878 1782 Z"/><path class="f1" d="M1878 1756 L1590 1468 L1590 1494 L1878 1782 Z" /></g><g class="o"><path transform="translate(2,4)" class="S sf" d="M1211 1351 L1748 814 L1748 852 L1211 1389 Z"/><path class="f7" d="M1211 1351 L1748 814 L1748 852 L1211 1389 Z" /></g><g class="o"><path transform="translate(4,8)" class="S sf" d="M1591 1629 L2317 903 L2329 903 L1603 1629 Z"/><path class="f4" d="M1591 1629 L2317 903 L2329 903 L1603 1629 Z" /></g><g class="o"><path transform="translate(8,16)" class="S ss" d="M1545 948 L1746 747 L1746 763 L1545 964 Z"/><path class="s6" d="M1545 948 L1746 747 L1746 763 L1545 964 Z" /></g><g class="o"><path transform="translate(3,6)" class="S sf" d="M1402 1284 L1573 1113 L1607 1113 L1436 1284 Z"/><path class="f7" d="M1402 1284 L1573 1113 L1607 1113 L1436 1284 Z" /></g><g class="o"><path transform="translate(6,12)" class="S sf" d="M1638 1687 L1759 1566 L1759 1602 L1638 1723 Z"/><path class="f5" d="M1638 1687 L1759 1566 L1759 1602 L1638 1723 Z" /></g><g class="o"><path transform="translate(3,6)" class="S sf" d="M1936 1227 L2027 1136 L2027 1164 L1936 1255 Z"/><path class="f7" d="M1936 1227 L2027 1136 L2027 1164 L1936 1255 Z" /></g></g><use href="#slashes" transform-origin="1500 1500" transform="rotate(180) scale(2)"/></g><circle cx="1500" cy="1500" r="450" stroke-width="80" class="o s6" /><use href="#slashes" transform-origin="1500 1500" transform="scale(.7)"/><use href="#slashes" transform-origin="1500 1500" transform="rotate(180) scale(1.3)"/></svg>