<svg xmlns="http://www.w3.org/2000/svg" viewBox="750 750 1500 1500"><style>/*<![CDATA[*/svg{background:rgb(242,233,228);max-width:100vw;max-height:100vh}path{stroke-width:4}.o{opacity:.75}.S{opacity:.4}.sf{stroke:none;fill:black}.sfh{stroke:none;fill:url(#hs)}.sfv{stroke:none;fill:url(#vs)}.ss{stroke:black;fill:none}.ssh{stroke:url(#hs);fill:none}.ssv{stroke:url(#vs);fill:none}.s1{fill:none;stroke:rgb(74,78,105)}.f1{stroke:none;fill:rgb(74,78,105)}.sh1{fill:none;stroke:url(#h1)}.fh1{stroke:none;fill:url(#h1)}.sv1{fill:none;stroke:url(#v1)}.fv1{stroke:none;fill:url(#v1)}.s2{fill:none;stroke:rgb(34,34,34)}.f2{stroke:none;fill:rgb(34,34,34)}.sh2{fill:none;stroke:url(#h2)}.fh2{stroke:none;fill:url(#h2)}.sv2{fill:none;stroke:url(#v2)}.fv2{stroke:none;fill:url(#v2)}.s3{fill:none;stroke:rgb(34,34,59)}.f3{stroke:none;fill:rgb(34,34,59)}.sh3{fill:none;stroke:url(#h3)}.fh3{stroke:none;fill:url(#h3)}.sv3{fill:none;stroke:url(#v3)}.fv3{stroke:none;fill:url(#v3)}.s4{fill:none;stroke:rgb(201,173,167)}.f4{stroke:none;fill:rgb(201,173,167)}.sh4{fill:none;stroke:url(#h4)}.fh4{stroke:none;fill:url(#h4)}.sv4{fill:none;stroke:url(#v4)}.fv4{stroke:none;fill:url(#v4)}.s5{fill:none;stroke:rgb(154,140,152)}.f5{stroke:none;fill:rgb(154,140,152)}.sh5{fill:none;stroke:url(#h5)}.fh5{stroke:none;fill:url(#h5)}.sv5{fill:none;stroke:url(#v5)}.fv5{stroke:none;fill:url(#v5)}.s6{fill:none;stroke:rgb(255,255,255)}.f6{stroke:none;fill:rgb(255,255,255)}.sh6{fill:none;stroke:url(#h6)}.fh6{stroke:none;fill:url(#h6)}.sv6{fill:none;stroke:url(#v6)}.fv6{stroke:none;fill:url(#v6)}.s7{fill:none;stroke:rgb(255,255,0)}.f7{stroke:none;fill:rgb(255,255,0)}.sh7{fill:none;stroke:url(#h7)}.fh7{stroke:none;fill:url(#h7)}.sv7{fill:none;stroke:url(#v7)}.fv7{stroke:none;fill:url(#v7)}/*]]>*/</style><defs><linearGradient gradientTransform="rotate(90)" id="hs"><stop offset="20%" stop-color="#000" /><stop offset="95%" stop-color="rgba(0, 0, 0, 0)" /></linearGradient><linearGradient id="vs"><stop offset="20%" stop-color="#000" /><stop offset="95%" stop-color="rgba(0, 0, 0, 0)" /></linearGradient><linearGradient gradientTransform="rotate(90)" id="h1"><stop offset="20%" stop-color="rgba(74,78,105,1)" /><stop offset="95%" stop-color="rgba(74,78,105,0)" /></linearGradient><linearGradient id="v1"><stop offset="20%" stop-color="rgba(74,78,105,1)" /><stop offset="95%" stop-color="rgba(74,78,105,0)" /></linearGradient><linearGradient gradientTransform="rotate(90)" id="h2"><stop offset="20%" stop-color="rgba(34,34,34,1)" /><stop offset="95%" stop-color="rgba(34,34,34,0)" /></linearGradient><linearGradient id="v2"><stop offset="20%" stop-color="rgba(34,34,34,1)" /><stop offset="95%" stop-color="rgba(34,34,34,0)" /></linearGradient><linearGradient gradientTransform="rotate(90)" id="h3"><stop offset="20%" stop-color="rgba(34,34,59,1)" /><stop offset="95%" stop-color="rgba(34,34,59,0)" /></linearGradient><linearGradient id="v3"><stop offset="20%" stop-color="rgba(34,34,59,1)" /><stop offset="95%" stop-color="rgba(34,34,59,0)" /></linearGradient><linearGradient gradientTransform="rotate(90)" id="h4"><stop offset="20%" stop-color="rgba(201,173,167,1)" /><stop offset="95%" stop-color="rgba(201,173,167,0)" /></linearGradient><linearGradient id="v4"><stop offset="20%" stop-color="rgba(201,173,167,1)" /><stop offset="95%" stop-color="rgba(201,173,167,0)" /></linearGradient><linearGradient gradientTransform="rotate(90)" id="h5"><stop offset="20%" stop-color="rgba(154,140,152,1)" /><stop offset="95%" stop-color="rgba(154,140,152,0)" /></linearGradient><linearGradient id="v5"><stop offset="20%" stop-color="rgba(154,140,152,1)" /><stop offset="95%" stop-color="rgba(154,140,152,0)" /></linearGradient><linearGradient gradientTransform="rotate(90)" id="h6"><stop offset="20%" stop-color="rgba(255,255,255,1)" /><stop offset="95%" stop-color="rgba(255,255,255,0)" /></linearGradient><linearGradient id="v6"><stop offset="20%" stop-color="rgba(255,255,255,1)" /><stop offset="95%" stop-color="rgba(255,255,255,0)" /></linearGradient><linearGradient gradientTransform="rotate(90)" id="h7"><stop offset="20%" stop-color="rgba(255,255,0,1)" /><stop offset="95%" stop-color="rgba(255,255,0,0)" /></linearGradient><linearGradient id="v7"><stop offset="20%" stop-color="rgba(255,255,0,1)" /><stop offset="95%" stop-color="rgba(255,255,0,0)" /></linearGradient></defs><g transform-origin="1500 1500" transform="scale(2)" opacity=".2"><g id="slashes"><g class="o"><path transform="translate(8,16)" class="S sfv" d="M1689 1436 L1579 1546 L1579 1570 L1689 1460 Z"/><path class="fv1" d="M1689 1436 L1579 1546 L1579 1570 L1689 1460 Z" /></g><g class="o"><path transform="translate(7,14)" class="S sf" d="M1918 1011 L2074 855 L2074 873 L1918 1029 Z"/><path class="f4" d="M1918 1011 L2074 855 L2074 873 L1918 1029 Z" /></g><g class="o"><path transform="translate(9,18)" class="S sfv" d="M1683 2009 L1562 2130 L1562 2156 L1683 2035 Z"/><path class="fv1" d="M1683 2009 L1562 2130 L1562 2156 L1683 2035 Z" /></g><g class="o"><path transform="translate(7,14)" class="S ssv" d="M1457 1158 L1575 1276 L1575 1306 L1457 1188 Z"/><path class="sv3" d="M1457 1158 L1575 1276 L1575 1306 L1457 1188 Z" /></g><g class="o"><path transform="translate(5,10)" class="S ssh" d="M1081 2041 L876 2246 L896 2246 L1101 2041 Z"/><path class="sh2" d="M1081 2041 L876 2246 L896 2246 L1101 2041 Z" /></g><g class="o"><path transform="translate(9,18)" class="S sf" d="M1240 1436 L1311 1365 L1311 1399 L1240 1470 Z"/><path class="f3" d="M1240 1436 L1311 1365 L1311 1399 L1240 1470 Z" /></g><g class="o"><path transform="translate(2,4)" class="S sfh" d="M1803 1109 L2307 605 L2323 605 L1819 1109 Z"/><path class="fh4" d="M1803 1109 L2307 605 L2323 605 L1819 1109 Z" /></g><g class="o"><path transform="translate(5,10)" class="S sfv" d="M1505 1839 L1295 2049 L1295 2085 L1505 1875 Z"/><path class="fv5" d="M1505 1839 L1295 2049 L1295 2085 L1505 1875 Z" /></g><g class="o"><path transform="translate(8,16)" class="S sfv" d="M1986 1971 L2190 2175 L2190 2191 L1986 1987 Z"/><path class="fv4" d="M1986 1971 L2190 2175 L2190 2191 L1986 1987 Z" /></g><g class="o"><path transform="translate(6,12)" class="S ssh" d="M1496 1716 L1706 1926 L1736 1926 L1526 1716 Z"/><path class="sh4" d="M1496 1716 L1706 1926 L1736 1926 L1526 1716 Z" /></g><g class="o"><path transform="translate(6,12)" class="S sfv" d="M1932 1823 L2013 1742 L2013 1764 L1932 1845 Z"/><path class="fv6" d="M1932 1823 L2013 1742 L2013 1764 L1932 1845 Z" /></g><g class="o"><path transform="translate(7,14)" class="S sfh" d="M1302 1789 L1526 2013 L1562 2013 L1338 1789 Z"/><path class="fh7" d="M1302 1789 L1526 2013 L1562 2013 L1338 1789 Z" /></g><g class="o"><path transform="translate(9,18)" class="S sf" d="M1862 1968 L1729 1835 L1753 1835 L1886 1968 Z"/><path class="f1" d="M1862 1968 L1729 1835 L1753 1835 L1886 1968 Z" /></g><g class="o"><path transform="translate(7,14)" class="S sf" d="M1422 1924 L753 1255 L753 1287 L1422 1956 Z"/><path class="f1" d="M1422 1924 L753 1255 L753 1287 L1422 1956 Z" /></g><g class="o"><path transform="translate(4,8)" class="S sf" d="M1478 1730 L1004 1256 L1004 1276 L1478 1750 Z"/><path class="f5" d="M1478 1730 L1004 1256 L1004 1276 L1478 1750 Z" /></g><g class="o"><path transform="translate(9,18)" class="S sfh" d="M1878 1593 L1774 1697 L1782 1697 L1886 1593 Z"/><path class="fh7" d="M1878 1593 L1774 1697 L1782 1697 L1886 1593 Z" /></g><g class="o"><path transform="translate(7,14)" class="S sfv" d="M1675 1397 L1443 1165 L1443 1201 L1675 1433 Z"/><path class="fv3" d="M1675 1397 L1443 1165 L1443 1201 L1675 1433 Z" /></g><g class="o"><path transform="translate(5,10)" class="S sfh" d="M1351 1092 L1157 898 L1205 898 L1399 1092 Z"/><path class="fh2" d="M1351 1092 L1157 898 L1205 898 L1399 1092 Z" /></g><g class="o"><path transform="translate(4,8)" class="S ss" d="M1573 1623 L1780 1416 L1798 1416 L1591 1623 Z"/><path class="s3" d="M1573 1623 L1780 1416 L1798 1416 L1591 1623 Z" /></g><g class="o"><path transform="translate(6,12)" class="S sf" d="M1485 1488 L1562 1565 L1562 1613 L1485 1536 Z"/><path class="f2" d="M1485 1488 L1562 1565 L1562 1613 L1485 1536 Z" /></g><g class="o"><path transform="translate(6,12)" class="S sfh" d="M2043 1632 L1839 1836 L1849 1836 L2053 1632 Z"/><path class="fh2" d="M2043 1632 L1839 1836 L1849 1836 L2053 1632 Z" /></g><g class="o"><path transform="translate(5,10)" class="S sfh" d="M1049 1885 L992 1828 L1026 1828 L1083 1885 Z"/><path class="fh6" d="M1049 1885 L992 1828 L1026 1828 L1083 1885 Z" /></g><g class="o"><path transform="translate(7,14)" class="S sfv" d="M1713 1187 L1527 1001 L1527 1013 L1713 1199 Z"/><path class="fv1" d="M1713 1187 L1527 1001 L1527 1013 L1713 1199 Z" /></g><g class="o"><path transform="translate(2,4)" class="S sfv" d="M1229 1093 L851 1471 L851 1485 L1229 1107 Z"/><path class="fv3" d="M1229 1093 L851 1471 L851 1485 L1229 1107 Z" /></g><g class="o"><path transform="translate(5,10)" class="S sfh" d="M1050 970 L1122 1042 L1142 1042 L1070 970 Z"/><path class="fh4" d="M1050 970 L1122 1042 L1142 1042 L1070 970 Z" /></g><g class="o"><path transform="translate(3,6)" class="S sfh" d="M1389 1602 L1177 1814 L1207 1814 L1419 1602 Z"/><path class="fh1" d="M1389 1602 L1177 1814 L1207 1814 L1419 1602 Z" /></g><g class="o"><path transform="translate(5,10)" class="S sfh" d="M1838 1619 L2068 1389 L2086 1389 L1856 1619 Z"/><path class="fh2" d="M1838 1619 L2068 1389 L2086 1389 L1856 1619 Z" /></g><g class="o"><path transform="translate(8,16)" class="S sfh" d="M1472 1334 L1641 1503 L1673 1503 L1504 1334 Z"/><path class="fh3" d="M1472 1334 L1641 1503 L1673 1503 L1504 1334 Z" /></g><g class="o"><path transform="translate(9,18)" class="S sfv" d="M1740 1749 L1922 1567 L1922 1587 L1740 1769 Z"/><path class="fv2" d="M1740 1749 L1922 1567 L1922 1587 L1740 1769 Z" /></g><g class="o"><path transform="translate(3,6)" class="S sf" d="M993 1947 L900 1854 L900 1886 L993 1979 Z"/><path class="f1" d="M993 1947 L900 1854 L900 1886 L993 1979 Z" /></g><g class="o"><path transform="translate(2,4)" class="S sfv" d="M1959 1802 L2391 2234 L2391 2258 L1959 1826 Z"/><path class="fv6" d="M1959 1802 L2391 2234 L2391 2258 L1959 1826 Z" /></g><g class="o"><path transform="translate(5,10)" class="S sfv" d="M1181 1665 L1027 1511 L1027 1519 L1181 1673 Z"/><path class="fv3" d="M1181 1665 L1027 1511 L1027 1519 L1181 1673 Z" /></g><g class="o"><path transform="translate(4,8)" class="S sfh" d="M1548 1261 L2241 568 L2251 568 L1558 1261 Z"/><path class="fh7" d="M1548 1261 L2241 568 L2251 568 L1558 1261 Z" /></g><g class="o"><path transform="translate(3,6)" class="S sfv" d="M1133 1332 L392 2073 L392 2085 L1133 1344 Z"/><path class="fv1" d="M1133 1332 L392 2073 L392 2085 L1133 1344 Z" /></g><g class="o"><path transform="translate(2,4)" class="S sfv" d="M1210 1499 L1154 1555 L1154 1571 L1210 1515 Z"/><path class="fv3" d="M1210 1499 L1154 1555 L1154 1571 L1210 1515 Z" /></g><g class="o"><path transform="translate(2,4)" class="S sfh" d="M1604 1948 L1274 1618 L1286 1618 L1616 1948 Z"/><path class="fh7" d="M1604 1948 L1274 1618 L1286 1618 L1616 1948 Z" /></g><g class="o"><path transform="translate(6,12)" class="S ssv" d="M1224 1811 L1372 1959 L1372 1991 L1224 1843 Z"/><path class="sv5" d="M1224 1811 L1372 1959 L1372 1991 L1224 1843 Z" /></g><g class="o"><path transform="translate(4,8)" class="S sfh" d="M1516 1661 L1582 1727 L1710 1727 L1644 1661 Z"/><path class="fh3" d="M1516 1661 L1582 1727 L1710 1727 L1644 1661 Z" /></g><g class="o"><path transform="translate(5,10)" class="S sfh" d="M1509 1777 L1327 1959 L1357 1959 L1539 1777 Z"/><path class="fh6" d="M1509 1777 L1327 1959 L1357 1959 L1539 1777 Z" /></g><g class="o"><path transform="translate(7,14)" class="S sfv" d="M1782 1431 L1696 1345 L1696 1383 L1782 1469 Z"/><path class="fv4" d="M1782 1431 L1696 1345 L1696 1383 L1782 1469 Z" /></g><g class="o"><path transform="translate(2,4)" class="S sfv" d="M1755 1979 L1677 2057 L1677 2077 L1755 1999 Z"/><path class="fv3" d="M1755 1979 L1677 2057 L1677 2077 L1755 1999 Z" /></g><g class="o"><path transform="translate(2,4)" class="S sfh" d="M1669 1426 L1433 1190 L1445 1190 L1681 1426 Z"/><path class="fh4" d="M1669 1426 L1433 1190 L1445 1190 L1681 1426 Z" /></g><g class="o"><path transform="translate(5,10)" class="S sfv" d="M1990 1159 L2062 1087 L2062 1105 L1990 1177 Z"/><path class="fv6" d="M1990 1159 L2062 1087 L2062 1105 L1990 1177 Z" /></g><g class="o"><path transform="translate(3,6)" class="S sfh" d="M1452 1606 L1304 1754 L1338 1754 L1486 1606 Z"/><path class="fh7" d="M1452 1606 L1304 1754 L1338 1754 L1486 1606 Z" /></g><g class="o"><path transform="translate(8,16)" class="S sfv" d="M1467 1341 L1520 1288 L1520 1306 L1467 1359 Z"/><path class="fv5" d="M1467 1341 L1520 1288 L1520 1306 L1467 1359 Z" /></g><g class="o"><path transform="translate(6,12)" class="S ssh" d="M1680 1227 L1873 1420 L1913 1420 L1720 1227 Z"/><path class="sh3" d="M1680 1227 L1873 1420 L1913 1420 L1720 1227 Z" /></g><g class="o"><path transform="translate(2,4)" class="S sfv" d="M1336 1557 L1179 1400 L1179 1438 L1336 1595 Z"/><path class="fv1" d="M1336 1557 L1179 1400 L1179 1438 L1336 1595 Z" /></g><g class="o"><path transform="translate(2,4)" class="S ssh" d="M1663 1300 L1479 1116 L1499 1116 L1683 1300 Z"/><path class="sh1" d="M1663 1300 L1479 1116 L1499 1116 L1683 1300 Z" /></g><g class="o"><path transform="translate(5,10)" class="S sfv" d="M1450 1216 L1361 1127 L1361 1141 L1450 1230 Z"/><path class="fv6" d="M1450 1216 L1361 1127 L1361 1141 L1450 1230 Z" /></g><g class="o"><path transform="translate(4,8)" class="S sf" d="M1579 1965 L2158 2544 L2194 2544 L1615 1965 Z"/><path class="f6" d="M1579 1965 L2158 2544 L2194 2544 L1615 1965 Z" /></g><g class="o"><path transform="translate(5,10)" class="S sfh" d="M1246 1543 L1476 1313 L1500 1313 L1270 1543 Z"/><path class="fh3" d="M1246 1543 L1476 1313 L1500 1313 L1270 1543 Z" /></g><g class="o"><path transform="translate(4,8)" class="S ss" d="M1968 1756 L1898 1826 L1914 1826 L1984 1756 Z"/><path class="s2" d="M1968 1756 L1898 1826 L1914 1826 L1984 1756 Z" /></g><g class="o"><path transform="translate(7,14)" class="S ssv" d="M1526 1394 L1590 1458 L1590 1488 L1526 1424 Z"/><path class="sv6" d="M1526 1394 L1590 1458 L1590 1488 L1526 1424 Z" /></g><g class="o"><path transform="translate(9,18)" class="S sfv" d="M1949 1241 L2134 1426 L2134 1458 L1949 1273 Z"/><path class="fv7" d="M1949 1241 L2134 1426 L2134 1458 L1949 1273 Z" /></g><g class="o"><path transform="translate(4,8)" class="S sfh" d="M1682 1602 L1587 1507 L1621 1507 L1716 1602 Z"/><path class="fh4" d="M1682 1602 L1587 1507 L1621 1507 L1716 1602 Z" /></g><g class="o"><path transform="translate(5,10)" class="S sfh" d="M1562 1901 L1742 2081 L1760 2081 L1580 1901 Z"/><path class="fh3" d="M1562 1901 L1742 2081 L1760 2081 L1580 1901 Z" /></g><g class="o"><path transform="translate(3,6)" class="S sfv" d="M1492 1439 L1343 1588 L1343 1604 L1492 1455 Z"/><path class="fv4" d="M1492 1439 L1343 1588 L1343 1604 L1492 1455 Z" /></g><g class="o"><path transform="translate(7,14)" class="S sfv" d="M1858 1607 L2050 1415 L2050 1433 L1858 1625 Z"/><path class="fv3" d="M1858 1607 L2050 1415 L2050 1433 L1858 1625 Z" /></g><g class="o"><path transform="translate(2,4)" class="S sf" d="M1085 1988 L1208 1865 L1208 1877 L1085 2000 Z"/><path class="f4" d="M1085 1988 L1208 1865 L1208 1877 L1085 2000 Z" /></g><g class="o"><path transform="translate(6,12)" class="S sfv" d="M1520 1518 L1645 1643 L1645 1673 L1520 1548 Z"/><path class="fv5" d="M1520 1518 L1645 1643 L1645 1673 L1520 1548 Z" /></g><g class="o"><path transform="translate(7,14)" class="S sf" d="M1305 1050 L1083 1272 L1083 1300 L1305 1078 Z"/><path class="f4" d="M1305 1050 L1083 1272 L1083 1300 L1305 1078 Z" /></g><g class="o"><path transform="translate(9,18)" class="S sfv" d="M2020 1472 L1744 1196 L1744 1216 L2020 1492 Z"/><path class="fv6" d="M2020 1472 L1744 1196 L1744 1216 L2020 1492 Z" /></g><g class="o"><path transform="translate(9,18)" class="S ssv" d="M1051 1748 L1130 1827 L1130 1859 L1051 1780 Z"/><path class="sv4" d="M1051 1748 L1130 1827 L1130 1859 L1051 1780 Z" /></g><g class="o"><path transform="translate(8,16)" class="S sf" d="M1607 1425 L1375 1657 L1375 1675 L1607 1443 Z"/><path class="f4" d="M1607 1425 L1375 1657 L1375 1675 L1607 1443 Z" /></g><g class="o"><path transform="translate(7,14)" class="S sfv" d="M1327 1713 L1424 1810 L1424 1930 L1327 1833 Z"/><path class="fv7" d="M1327 1713 L1424 1810 L1424 1930 L1327 1833 Z" /></g><g class="o"><path transform="translate(5,10)" class="S ssh" d="M1328 1187 L1543 972 L1563 972 L1348 1187 Z"/><path class="sh5" d="M1328 1187 L1543 972 L1563 972 L1348 1187 Z" /></g><g class="o"><path transform="translate(6,12)" class="S sf" d="M1423 2012 L1258 1847 L1296 1847 L1461 2012 Z"/><path class="f4" d="M1423 2012 L1258 1847 L1296 1847 L1461 2012 Z" /></g><g class="o"><path transform="translate(6,12)" class="S sf" d="M1281 1032 L1141 1172 L1205 1172 L1345 1032 Z"/><path class="f6" d="M1281 1032 L1141 1172 L1205 1172 L1345 1032 Z" /></g><g class="o"><path transform="translate(3,6)" class="S sfh" d="M1034 1510 L792 1752 L812 1752 L1054 1510 Z"/><path class="fh4" d="M1034 1510 L792 1752 L812 1752 L1054 1510 Z" /></g><g class="o"><path transform="translate(7,14)" class="S ssh" d="M1541 1312 L1636 1407 L1650 1407 L1555 1312 Z"/><path class="sh6" d="M1541 1312 L1636 1407 L1650 1407 L1555 1312 Z" /></g><g class="o"><path transform="translate(7,14)" class="S sfv" d="M1105 1358 L946 1199 L946 1255 L1105 1414 Z"/><path class="fv5" d="M1105 1358 L946 1199 L946 1255 L1105 1414 Z" /></g><g class="o"><path transform="translate(4,8)" class="S sf" d="M1935 1224 L2150 1439 L2182 1439 L1967 1224 Z"/><path class="f3" d="M1935 1224 L2150 1439 L2182 1439 L1967 1224 Z" /></g><g class="o"><path transform="translate(4,8)" class="S sf" d="M1770 1865 L1836 1799 L1836 1823 L1770 1889 Z"/><path class="f2" d="M1770 1865 L1836 1799 L1836 1823 L1770 1889 Z" /></g><g class="o"><path transform="translate(8,16)" class="S sfv" d="M1035 1168 L1247 956 L1247 1036 L1035 1248 Z"/><path class="fv3" d="M1035 1168 L1247 956 L1247 1036 L1035 1248 Z" /></g><g class="o"><path transform="translate(9,18)" class="S sf" d="M1827 1673 L1613 1459 L1613 1497 L1827 1711 Z"/><path class="f5" d="M1827 1673 L1613 1459 L1613 1497 L1827 1711 Z" /></g><g class="o"><path transform="translate(6,12)" class="S sf" d="M1102 1138 L1296 1332 L1312 1332 L1118 1138 Z"/><path class="f7" d="M1102 1138 L1296 1332 L1312 1332 L1118 1138 Z" /></g><g class="o"><path transform="translate(5,10)" class="S sf" d="M1632 1687 L1743 1576 L1743 1596 L1632 1707 Z"/><path class="f4" d="M1632 1687 L1743 1576 L1743 1596 L1632 1707 Z" /></g><g class="o"><path transform="translate(5,10)" class="S sf" d="M1645 1585 L1772 1458 L1784 1458 L1657 1585 Z"/><path class="f7" d="M1645 1585 L1772 1458 L1784 1458 L1657 1585 Z" /></g><g class="o"><path transform="translate(4,8)" class="S ssh" d="M2026 1185 L2698 1857 L2722 1857 L2050 1185 Z"/><path class="sh7" d="M2026 1185 L2698 1857 L2722 1857 L2050 1185 Z" /></g><g class="o"><path transform="translate(3,6)" class="S ssh" d="M1899 1493 L1488 1904 L1516 1904 L1927 1493 Z"/><path class="sh6" d="M1899 1493 L1488 1904 L1516 1904 L1927 1493 Z" /></g><g class="o"><path transform="translate(5,10)" class="S sf" d="M1131 1435 L1207 1359 L1207 1387 L1131 1463 Z"/><path class="f7" d="M1131 1435 L1207 1359 L1207 1387 L1131 1463 Z" /></g><g class="o"><path transform="translate(8,16)" class="S sfh" d="M1918 1048 L1813 1153 L1893 1153 L1998 1048 Z"/><path class="fh1" d="M1918 1048 L1813 1153 L1893 1153 L1998 1048 Z" /></g><g class="o"><path transform="translate(2,4)" class="S sfv" d="M2004 1440 L2197 1633 L2197 1649 L2004 1456 Z"/><path class="fv3" d="M2004 1440 L2197 1633 L2197 1649 L2004 1456 Z" /></g><g class="o"><path transform="translate(5,10)" class="S sf" d="M1010 1654 L798 1866 L816 1866 L1028 1654 Z"/><path class="f7" d="M1010 1654 L798 1866 L816 1866 L1028 1654 Z" /></g><g class="o"><path transform="translate(6,12)" class="S ssh" d="M1327 1934 L1379 1986 L1403 1986 L1351 1934 Z"/><path class="sh5" d="M1327 1934 L1379 1986 L1403 1986 L1351 1934 Z" /></g><g class="o"><path transform="translate(5,10)" class="S ssv" d="M2043 1895 L1892 1744 L1892 1816 L2043 1967 Z"/><path class="sv4" d="M2043 1895 L1892 1744 L1892 1816 L2043 1967 Z" /></g><g class="o"><path transform="translate(3,6)" class="S sfv" d="M1330 1577 L784 2123 L784 2149 L1330 1603 Z"/><path class="fv4" d="M1330 1577 L784 2123 L784 2149 L1330 1603 Z" /></g><g class="o"><path transform="translate(7,14)" class="S sfh" d="M1533 1639 L1760 1412 L1768 1412 L1541 1639 Z"/><path class="fh5" d="M1533 1639 L1760 1412 L1768 1412 L1541 1639 Z" /></g><g class="o"><path transform="translate(9,18)" class="S ssh" d="M1215 1459 L1053 1297 L1067 1297 L1229 1459 Z"/><path class="sh1" d="M1215 1459 L1053 1297 L1067 1297 L1229 1459 Z" /></g><g class="o"><path transform="translate(5,10)" class="S sf" d="M1761 1845 L1850 1934 L1850 1946 L1761 1857 Z"/><path class="f7" d="M1761 1845 L1850 1934 L1850 1946 L1761 1857 Z" /></g><g class="o"><path transform="translate(2,4)" class="S sfv" d="M1896 1719 L1813 1636 L1813 1780 L1896 1863 Z"/><path class="fv5" d="M1896 1719 L1813 1636 L1813 1780 L1896 1863 Z" /></g><g class="o"><path transform="translate(4,8)" class="S sfh" d="M1083 1402 L836 1649 L850 1649 L1097 1402 Z"/><path class="fh4" d="M1083 1402 L836 1649 L850 1649 L1097 1402 Z" /></g><g class="o"><path transform="translate(5,10)" class="S sfh" d="M1311 1410 L1401 1500 L1417 1500 L1327 1410 Z"/><path class="fh6" d="M1311 1410 L1401 1500 L1417 1500 L1327 1410 Z" /></g><g class="o"><path transform="translate(4,8)" class="S sf" d="M1223 1638 L1159 1702 L1181 1702 L1245 1638 Z"/><path class="f6" d="M1223 1638 L1159 1702 L1181 1702 L1245 1638 Z" /></g><g class="o"><path transform="translate(3,6)" class="S sfv" d="M1722 1526 L1777 1471 L1777 1493 L1722 1548 Z"/><path class="fv1" d="M1722 1526 L1777 1471 L1777 1493 L1722 1548 Z" /></g><g class="o"><path transform="translate(8,16)" class="S ssh" d="M1846 2007 L1703 2150 L1721 2150 L1864 2007 Z"/><path class="sh5" d="M1846 2007 L1703 2150 L1721 2150 L1864 2007 Z" /></g><g class="o"><path transform="translate(5,10)" class="S sfh" d="M1050 1370 L862 1182 L898 1182 L1086 1370 Z"/><path class="fh5" d="M1050 1370 L862 1182 L898 1182 L1086 1370 Z" /></g><g class="o"><path transform="translate(7,14)" class="S sfv" d="M1019 1894 L1207 1706 L1207 1726 L1019 1914 Z"/><path class="fv2" d="M1019 1894 L1207 1706 L1207 1726 L1019 1914 Z" /></g><g class="o"><path transform="translate(3,6)" class="S ssh" d="M1295 1159 L1083 1371 L1107 1371 L1319 1159 Z"/><path class="sh3" d="M1295 1159 L1083 1371 L1107 1371 L1319 1159 Z" /></g><g class="o"><path transform="translate(5,10)" class="S sfh" d="M1212 1390 L1064 1242 L1128 1242 L1276 1390 Z"/><path class="fh1" d="M1212 1390 L1064 1242 L1128 1242 L1276 1390 Z" /></g><g class="o"><path transform="translate(9,18)" class="S sfh" d="M991 2029 L931 2089 L969 2089 L1029 2029 Z"/><path class="fh1" d="M991 2029 L931 2089 L969 2089 L1029 2029 Z" /></g><g class="o"><path transform="translate(5,10)" class="S sfv" d="M1836 1918 L1923 2005 L1923 2023 L1836 1936 Z"/><path class="fv6" d="M1836 1918 L1923 2005 L1923 2023 L1836 1936 Z" /></g><g class="o"><path transform="translate(7,14)" class="S sfh" d="M1576 1595 L1438 1457 L1468 1457 L1606 1595 Z"/><path class="fh6" d="M1576 1595 L1438 1457 L1468 1457 L1606 1595 Z" /></g><g class="o"><path transform="translate(5,10)" class="S sfh" d="M1267 1209 L1420 1056 L1436 1056 L1283 1209 Z"/><path class="fh1" d="M1267 1209 L1420 1056 L1436 1056 L1283 1209 Z" /></g><g class="o"><path transform="translate(4,8)" class="S sf" d="M1459 1609 L1225 1843 L1225 1987 L1459 1753 Z"/><path class="f3" d="M1459 1609 L1225 1843 L1225 1987 L1459 1753 Z" /></g><g class="o"><path transform="translate(7,14)" class="S sfv" d="M1964 1098 L2157 905 L2157 935 L1964 1128 Z"/><path class="fv5" d="M1964 1098 L2157 905 L2157 935 L1964 1128 Z" /></g><g class="o"><path transform="translate(6,12)" class="S sfh" d="M1419 1375 L1261 1533 L1285 1533 L1443 1375 Z"/><path class="fh2" d="M1419 1375 L1261 1533 L1285 1533 L1443 1375 Z" /></g><g class="o"><path transform="translate(3,6)" class="S ssv" d="M1125 1322 L901 1098 L901 1126 L1125 1350 Z"/><path class="sv6" d="M1125 1322 L901 1098 L901 1126 L1125 1350 Z" /></g><g class="o"><path transform="translate(8,16)" class="S sfh" d="M1293 1533 L1523 1303 L1547 1303 L1317 1533 Z"/><path class="fh6" d="M1293 1533 L1523 1303 L1547 1303 L1317 1533 Z" /></g><g class="o"><path transform="translate(8,16)" class="S sfh" d="M977 979 L512 514 L550 514 L1015 979 Z"/><path class="fh3" d="M977 979 L512 514 L550 514 L1015 979 Z" /></g><g class="o"><path transform="translate(4,8)" class="S sf" d="M1901 1376 L2048 1523 L2048 1541 L1901 1394 Z"/><path class="f5" d="M1901 1376 L2048 1523 L2048 1541 L1901 1394 Z" /></g><g class="o"><path transform="translate(2,4)" class="S sfv" d="M1139 1134 L913 1360 L913 1480 L1139 1254 Z"/><path class="fv2" d="M1139 1134 L913 1360 L913 1480 L1139 1254 Z" /></g><g class="o"><path transform="translate(5,10)" class="S sfv" d="M1482 1106 L1331 955 L1331 987 L1482 1138 Z"/><path class="fv5" d="M1482 1106 L1331 955 L1331 987 L1482 1138 Z" /></g><g class="o"><path transform="translate(6,12)" class="S sfv" d="M1659 1567 L1479 1747 L1479 1767 L1659 1587 Z"/><path class="fv6" d="M1659 1567 L1479 1747 L1479 1767 L1659 1587 Z" /></g><g class="o"><path transform="translate(2,4)" class="S ss" d="M1193 1718 L1823 1088 L1823 1118 L1193 1748 Z"/><path class="s5" d="M1193 1718 L1823 1088 L1823 1118 L1193 1748 Z" /></g><g class="o"><path transform="translate(3,6)" class="S sfv" d="M1793 1024 L1631 1186 L1631 1196 L1793 1034 Z"/><path class="fv1" d="M1793 1024 L1631 1186 L1631 1196 L1793 1034 Z" /></g><g class="o"><path transform="translate(5,10)" class="S sfh" d="M1464 1471 L1351 1358 L1371 1358 L1484 1471 Z"/><path class="fh4" d="M1464 1471 L1351 1358 L1371 1358 L1484 1471 Z" /></g><g class="o"><path transform="translate(5,10)" class="S sf" d="M1444 1944 L1253 2135 L1253 2155 L1444 1964 Z"/><path class="f6" d="M1444 1944 L1253 2135 L1253 2155 L1444 1964 Z" /></g><g class="o"><path transform="translate(4,8)" class="S sf" d="M1704 1065 L1548 909 L1556 909 L1712 1065 Z"/><path class="f7" d="M1704 1065 L1548 909 L1556 909 L1712 1065 Z" /></g><g class="o"><path transform="translate(2,4)" class="S sfv" d="M1310 1239 L1532 1461 L1532 1483 L1310 1261 Z"/><path class="fv3" d="M1310 1239 L1532 1461 L1532 1483 L1310 1261 Z" /></g><g class="o"><path transform="translate(2,4)" class="S sfh" d="M1205 1769 L1379 1595 L1395 1595 L1221 1769 Z"/><path class="fh5" d="M1205 1769 L1379 1595 L1395 1595 L1221 1769 Z" /></g><g class="o"><path transform="translate(3,6)" class="S ssv" d="M1308 1257 L1213 1162 L1213 1184 L1308 1279 Z"/><path class="sv1" d="M1308 1257 L1213 1162 L1213 1184 L1308 1279 Z" /></g><g class="o"><path transform="translate(3,6)" class="S sfh" d="M1637 964 L2276 1603 L2294 1603 L1655 964 Z"/><path class="fh6" d="M1637 964 L2276 1603 L2294 1603 L1655 964 Z" /></g><g class="o"><path transform="translate(3,6)" class="S sfh" d="M1445 997 L1603 1155 L1627 1155 L1469 997 Z"/><path class="fh6" d="M1445 997 L1603 1155 L1627 1155 L1469 997 Z" /></g><g class="o"><path transform="translate(7,14)" class="S sfv" d="M1079 1740 L840 1501 L840 1529 L1079 1768 Z"/><path class="fv3" d="M1079 1740 L840 1501 L840 1529 L1079 1768 Z" /></g><g class="o"><path transform="translate(5,10)" class="S sfh" d="M1101 1421 L1422 1100 L1442 1100 L1121 1421 Z"/><path class="fh4" d="M1101 1421 L1422 1100 L1442 1100 L1121 1421 Z" /></g><g class="o"><path transform="translate(8,16)" class="S sfh" d="M1972 1011 L2159 824 L2179 824 L1992 1011 Z"/><path class="fh3" d="M1972 1011 L2159 824 L2179 824 L1992 1011 Z" /></g><g class="o"><path transform="translate(7,14)" class="S sfh" d="M1566 1771 L1710 1627 L1730 1627 L1586 1771 Z"/><path class="fh4" d="M1566 1771 L1710 1627 L1730 1627 L1586 1771 Z" /></g><g class="o"><path transform="translate(2,4)" class="S sfh" d="M1945 1615 L1306 976 L1338 976 L1977 1615 Z"/><path class="fh1" d="M1945 1615 L1306 976 L1338 976 L1977 1615 Z" /></g><g class="o"><path transform="translate(4,8)" class="S sf" d="M1377 1697 L1237 1557 L1237 1583 L1377 1723 Z"/><path class="f2" d="M1377 1697 L1237 1557 L1237 1583 L1377 1723 Z" /></g></g><use href="#slashes" transform-origin="1500 1500" transform="rotate(180) scale(2)"/></g><rect x="1080" y="1080" width="840" height="840" stroke-width="80" class="o s5" /><use href="#slashes" transform-origin="1500 1500" transform="scale(1.3)"/><use href="#slashes" transform-origin="1500 1500" transform="rotate(180) scale(.7)"/></svg>