<svg xmlns="http://www.w3.org/2000/svg" viewBox="750 750 1500 1500"><style>/*<![CDATA[*/svg{background:rgb(16,16,16);max-width:100vw;max-height:100vh}path{stroke-width:4}.o{opacity:.75}.S{opacity:.4}.sf{stroke:none;fill:black}.sfh{stroke:none;fill:url(#hs)}.sfv{stroke:none;fill:url(#vs)}.ss{stroke:black;fill:none}.ssh{stroke:url(#hs);fill:none}.ssv{stroke:url(#vs);fill:none}.s1{fill:none;stroke:rgb(197,195,198)}.f1{stroke:none;fill:rgb(197,195,198)}.sh1{fill:none;stroke:url(#h1)}.fh1{stroke:none;fill:url(#h1)}.sv1{fill:none;stroke:url(#v1)}.fv1{stroke:none;fill:url(#v1)}.s2{fill:none;stroke:rgb(76,92,104)}.f2{stroke:none;fill:rgb(76,92,104)}.sh2{fill:none;stroke:url(#h2)}.fh2{stroke:none;fill:url(#h2)}.sv2{fill:none;stroke:url(#v2)}.fv2{stroke:none;fill:url(#v2)}.s3{fill:none;stroke:rgb(25,133,161)}.f3{stroke:none;fill:rgb(25,133,161)}.sh3{fill:none;stroke:url(#h3)}.fh3{stroke:none;fill:url(#h3)}.sv3{fill:none;stroke:url(#v3)}.fv3{stroke:none;fill:url(#v3)}.s4{fill:none;stroke:rgb(34,34,34)}.f4{stroke:none;fill:rgb(34,34,34)}.sh4{fill:none;stroke:url(#h4)}.fh4{stroke:none;fill:url(#h4)}.sv4{fill:none;stroke:url(#v4)}.fv4{stroke:none;fill:url(#v4)}.s5{fill:none;stroke:rgb(70,73,76)}.f5{stroke:none;fill:rgb(70,73,76)}.sh5{fill:none;stroke:url(#h5)}.fh5{stroke:none;fill:url(#h5)}.sv5{fill:none;stroke:url(#v5)}.fv5{stroke:none;fill:url(#v5)}.s6{fill:none;stroke:rgb(255,255,255)}.f6{stroke:none;fill:rgb(255,255,255)}.sh6{fill:none;stroke:url(#h6)}.fh6{stroke:none;fill:url(#h6)}.sv6{fill:none;stroke:url(#v6)}.fv6{stroke:none;fill:url(#v6)}.s7{fill:none;stroke:rgb(255,255,0)}.f7{stroke:none;fill:rgb(255,255,0)}.sh7{fill:none;stroke:url(#h7)}.fh7{stroke:none;fill:url(#h7)}.sv7{fill:none;stroke:url(#v7)}.fv7{stroke:none;fill:url(#v7)}/*]]>*/</style><defs><linearGradient gradientTransform="rotate(90)" id="hs"><stop offset="20%" stop-color="#000" /><stop offset="95%" stop-color="rgba(0, 0, 0, 0)" /></linearGradient><linearGradient id="vs"><stop offset="20%" stop-color="#000" /><stop offset="95%" stop-color="rgba(0, 0, 0, 0)" /></linearGradient><linearGradient gradientTransform="rotate(90)" id="h1"><stop offset="20%" stop-color="rgba(197,195,198,1)" /><stop offset="95%" stop-color="rgba(197,195,198,0)" /></linearGradient><linearGradient id="v1"><stop offset="20%" stop-color="rgba(197,195,198,1)" /><stop offset="95%" stop-color="rgba(197,195,198,0)" /></linearGradient><linearGradient gradientTransform="rotate(90)" id="h2"><stop offset="20%" stop-color="rgba(76,92,104,1)" /><stop offset="95%" stop-color="rgba(76,92,104,0)" /></linearGradient><linearGradient id="v2"><stop offset="20%" stop-color="rgba(76,92,104,1)" /><stop offset="95%" stop-color="rgba(76,92,104,0)" /></linearGradient><linearGradient gradientTransform="rotate(90)" id="h3"><stop offset="20%" stop-color="rgba(25,133,161,1)" /><stop offset="95%" stop-color="rgba(25,133,161,0)" /></linearGradient><linearGradient id="v3"><stop offset="20%" stop-color="rgba(25,133,161,1)" /><stop offset="95%" stop-color="rgba(25,133,161,0)" /></linearGradient><linearGradient gradientTransform="rotate(90)" id="h4"><stop offset="20%" stop-color="rgba(34,34,34,1)" /><stop offset="95%" stop-color="rgba(34,34,34,0)" /></linearGradient><linearGradient id="v4"><stop offset="20%" stop-color="rgba(34,34,34,1)" /><stop offset="95%" stop-color="rgba(34,34,34,0)" /></linearGradient><linearGradient gradientTransform="rotate(90)" id="h5"><stop offset="20%" stop-color="rgba(70,73,76,1)" /><stop offset="95%" stop-color="rgba(70,73,76,0)" /></linearGradient><linearGradient id="v5"><stop offset="20%" stop-color="rgba(70,73,76,1)" /><stop offset="95%" stop-color="rgba(70,73,76,0)" /></linearGradient><linearGradient gradientTransform="rotate(90)" id="h6"><stop offset="20%" stop-color="rgba(255,255,255,1)" /><stop offset="95%" stop-color="rgba(255,255,255,0)" /></linearGradient><linearGradient id="v6"><stop offset="20%" stop-color="rgba(255,255,255,1)" /><stop offset="95%" stop-color="rgba(255,255,255,0)" /></linearGradient><linearGradient gradientTransform="rotate(90)" id="h7"><stop offset="20%" stop-color="rgba(255,255,0,1)" /><stop offset="95%" stop-color="rgba(255,255,0,0)" /></linearGradient><linearGradient id="v7"><stop offset="20%" stop-color="rgba(255,255,0,1)" /><stop offset="95%" stop-color="rgba(255,255,0,0)" /></linearGradient></defs><g transform-origin="1500 1500" transform="scale(2)" opacity=".2"><g id="slashes"><g class="o"><path transform="translate(2,4)" class="S sfh" d="M1426 1536 L1215 1325 L1239 1325 L1450 1536 Z"/><path class="fh4" d="M1426 1536 L1215 1325 L1239 1325 L1450 1536 Z" /></g><g class="o"><path transform="translate(3,6)" class="S sfv" d="M1512 1288 L1362 1138 L1362 1160 L1512 1310 Z"/><path class="fv4" d="M1512 1288 L1362 1138 L1362 1160 L1512 1310 Z" /></g><g class="o"><path transform="translate(5,10)" class="S sfv" d="M1082 1014 L695 627 L695 657 L1082 1044 Z"/><path class="fv7" d="M1082 1014 L695 627 L695 657 L1082 1044 Z" /></g><g class="o"><path transform="translate(6,12)" class="S sf" d="M1212 1553 L1033 1374 L1033 1392 L1212 1571 Z"/><path class="f1" d="M1212 1553 L1033 1374 L1033 1392 L1212 1571 Z" /></g><g class="o"><path transform="translate(8,16)" class="S sfh" d="M1759 1816 L1586 1643 L1610 1643 L1783 1816 Z"/><path class="fh3" d="M1759 1816 L1586 1643 L1610 1643 L1783 1816 Z" /></g><g class="o"><path transform="translate(6,12)" class="S sfh" d="M1268 1160 L1058 950 L1070 950 L1280 1160 Z"/><path class="fh3" d="M1268 1160 L1058 950 L1070 950 L1280 1160 Z" /></g><g class="o"><path transform="translate(7,14)" class="S sf" d="M1216 1109 L1037 930 L1059 930 L1238 1109 Z"/><path class="f7" d="M1216 1109 L1037 930 L1059 930 L1238 1109 Z" /></g><g class="o"><path transform="translate(2,4)" class="S sfv" d="M1208 1901 L1048 1741 L1048 1789 L1208 1949 Z"/><path class="fv6" d="M1208 1901 L1048 1741 L1048 1789 L1208 1949 Z" /></g><g class="o"><path transform="translate(8,16)" class="S sf" d="M997 1311 L388 702 L388 736 L997 1345 Z"/><path class="f5" d="M997 1311 L388 702 L388 736 L997 1345 Z" /></g><g class="o"><path transform="translate(4,8)" class="S sf" d="M1366 1226 L1241 1101 L1241 1149 L1366 1274 Z"/><path class="f6" d="M1366 1226 L1241 1101 L1241 1149 L1366 1274 Z" /></g><g class="o"><path transform="translate(6,12)" class="S sfh" d="M1583 1252 L1492 1161 L1604 1161 L1695 1252 Z"/><path class="fh4" d="M1583 1252 L1492 1161 L1604 1161 L1695 1252 Z" /></g><g class="o"><path transform="translate(5,10)" class="S ssh" d="M2028 1879 L1945 1796 L1983 1796 L2066 1879 Z"/><path class="sh7" d="M2028 1879 L1945 1796 L1983 1796 L2066 1879 Z" /></g><g class="o"><path transform="translate(2,4)" class="S sf" d="M1265 1678 L1166 1579 L1184 1579 L1283 1678 Z"/><path class="f3" d="M1265 1678 L1166 1579 L1184 1579 L1283 1678 Z" /></g><g class="o"><path transform="translate(9,18)" class="S sf" d="M1551 1004 L1319 772 L1327 772 L1559 1004 Z"/><path class="f5" d="M1551 1004 L1319 772 L1327 772 L1559 1004 Z" /></g><g class="o"><path transform="translate(6,12)" class="S sfh" d="M1076 1125 L911 960 L937 960 L1102 1125 Z"/><path class="fh3" d="M1076 1125 L911 960 L937 960 L1102 1125 Z" /></g><g class="o"><path transform="translate(9,18)" class="S ssv" d="M1497 1830 L1274 1607 L1274 1629 L1497 1852 Z"/><path class="sv1" d="M1497 1830 L1274 1607 L1274 1629 L1497 1852 Z" /></g><g class="o"><path transform="translate(6,12)" class="S sf" d="M1599 1132 L1440 973 L1470 973 L1629 1132 Z"/><path class="f1" d="M1599 1132 L1440 973 L1470 973 L1629 1132 Z" /></g><g class="o"><path transform="translate(8,16)" class="S sfh" d="M2012 1135 L1844 967 L1854 967 L2022 1135 Z"/><path class="fh4" d="M2012 1135 L1844 967 L1854 967 L2022 1135 Z" /></g><g class="o"><path transform="translate(5,10)" class="S sfh" d="M1256 997 L1040 781 L1184 781 L1400 997 Z"/><path class="fh4" d="M1256 997 L1040 781 L1184 781 L1400 997 Z" /></g><g class="o"><path transform="translate(6,12)" class="S ssv" d="M1257 1310 L1071 1124 L1071 1132 L1257 1318 Z"/><path class="sv5" d="M1257 1310 L1071 1124 L1071 1132 L1257 1318 Z" /></g><g class="o"><path transform="translate(6,12)" class="S sfv" d="M1318 1215 L1164 1061 L1164 1095 L1318 1249 Z"/><path class="fv6" d="M1318 1215 L1164 1061 L1164 1095 L1318 1249 Z" /></g><g class="o"><path transform="translate(8,16)" class="S sfv" d="M1736 1224 L1683 1171 L1683 1181 L1736 1234 Z"/><path class="fv1" d="M1736 1224 L1683 1171 L1683 1181 L1736 1234 Z" /></g><g class="o"><path transform="translate(2,4)" class="S sfv" d="M1056 1460 L827 1231 L827 1269 L1056 1498 Z"/><path class="fv7" d="M1056 1460 L827 1231 L827 1269 L1056 1498 Z" /></g><g class="o"><path transform="translate(2,4)" class="S sf" d="M1338 1493 L1230 1385 L1266 1385 L1374 1493 Z"/><path class="f1" d="M1338 1493 L1230 1385 L1266 1385 L1374 1493 Z" /></g><g class="o"><path transform="translate(5,10)" class="S ssh" d="M991 1826 L791 1626 L821 1626 L1021 1826 Z"/><path class="sh6" d="M991 1826 L791 1626 L821 1626 L1021 1826 Z" /></g><g class="o"><path transform="translate(4,8)" class="S ssv" d="M1825 1255 L1619 1049 L1619 1071 L1825 1277 Z"/><path class="sv3" d="M1825 1255 L1619 1049 L1619 1071 L1825 1277 Z" /></g><g class="o"><path transform="translate(5,10)" class="S sfv" d="M1929 1794 L1816 1681 L1816 1703 L1929 1816 Z"/><path class="fv7" d="M1929 1794 L1816 1681 L1816 1703 L1929 1816 Z" /></g><g class="o"><path transform="translate(2,4)" class="S sfh" d="M1174 1403 L1053 1282 L1073 1282 L1194 1403 Z"/><path class="fh3" d="M1174 1403 L1053 1282 L1073 1282 L1194 1403 Z" /></g><g class="o"><path transform="translate(5,10)" class="S sfv" d="M1126 1259 L682 815 L682 847 L1126 1291 Z"/><path class="fv3" d="M1126 1259 L682 815 L682 847 L1126 1291 Z" /></g><g class="o"><path transform="translate(6,12)" class="S ssv" d="M1149 1116 L937 904 L937 916 L1149 1128 Z"/><path class="sv6" d="M1149 1116 L937 904 L937 916 L1149 1128 Z" /></g><g class="o"><path transform="translate(5,10)" class="S sfv" d="M1653 1877 L1200 1424 L1200 1454 L1653 1907 Z"/><path class="fv7" d="M1653 1877 L1200 1424 L1200 1454 L1653 1907 Z" /></g><g class="o"><path transform="translate(7,14)" class="S sfv" d="M1415 1354 L1204 1143 L1204 1169 L1415 1380 Z"/><path class="fv4" d="M1415 1354 L1204 1143 L1204 1169 L1415 1380 Z" /></g><g class="o"><path transform="translate(9,18)" class="S sfh" d="M1633 1691 L1407 1465 L1445 1465 L1671 1691 Z"/><path class="fh4" d="M1633 1691 L1407 1465 L1445 1465 L1671 1691 Z" /></g><g class="o"><path transform="translate(2,4)" class="S ssh" d="M1459 1969 L1297 1807 L1329 1807 L1491 1969 Z"/><path class="sh7" d="M1459 1969 L1297 1807 L1329 1807 L1491 1969 Z" /></g><g class="o"><path transform="translate(8,16)" class="S sfh" d="M1475 1132 L893 550 L933 550 L1515 1132 Z"/><path class="fh1" d="M1475 1132 L893 550 L933 550 L1515 1132 Z" /></g><g class="o"><path transform="translate(8,16)" class="S sfv" d="M1353 1650 L804 1101 L804 1131 L1353 1680 Z"/><path class="fv5" d="M1353 1650 L804 1101 L804 1131 L1353 1680 Z" /></g><g class="o"><path transform="translate(3,6)" class="S ssh" d="M1760 1943 L1605 1788 L1643 1788 L1798 1943 Z"/><path class="sh5" d="M1760 1943 L1605 1788 L1643 1788 L1798 1943 Z" /></g><g class="o"><path transform="translate(3,6)" class="S sfh" d="M1004 1434 L791 1221 L809 1221 L1022 1434 Z"/><path class="fh1" d="M1004 1434 L791 1221 L809 1221 L1022 1434 Z" /></g><g class="o"><path transform="translate(4,8)" class="S ssh" d="M946 1025 L655 734 L665 734 L956 1025 Z"/><path class="sh5" d="M946 1025 L655 734 L665 734 L956 1025 Z" /></g><g class="o"><path transform="translate(8,16)" class="S ssv" d="M1316 1783 L611 1078 L611 1094 L1316 1799 Z"/><path class="sv2" d="M1316 1783 L611 1078 L611 1094 L1316 1799 Z" /></g><g class="o"><path transform="translate(5,10)" class="S sfh" d="M1684 1362 L1601 1279 L1615 1279 L1698 1362 Z"/><path class="fh6" d="M1684 1362 L1601 1279 L1615 1279 L1698 1362 Z" /></g><g class="o"><path transform="translate(8,16)" class="S sfv" d="M1934 955 L1718 739 L1718 777 L1934 993 Z"/><path class="fv5" d="M1934 955 L1718 739 L1718 777 L1934 993 Z" /></g><g class="o"><path transform="translate(8,16)" class="S sf" d="M1950 1001 L1725 776 L1735 776 L1960 1001 Z"/><path class="f2" d="M1950 1001 L1725 776 L1735 776 L1960 1001 Z" /></g><g class="o"><path transform="translate(5,10)" class="S sfh" d="M1705 1273 L1533 1101 L1565 1101 L1737 1273 Z"/><path class="fh1" d="M1705 1273 L1533 1101 L1565 1101 L1737 1273 Z" /></g><g class="o"><path transform="translate(4,8)" class="S sfv" d="M1578 1204 L1371 997 L1371 1013 L1578 1220 Z"/><path class="fv2" d="M1578 1204 L1371 997 L1371 1013 L1578 1220 Z" /></g><g class="o"><path transform="translate(9,18)" class="S sfv" d="M1869 1756 L1691 1578 L1691 1596 L1869 1774 Z"/><path class="fv4" d="M1869 1756 L1691 1578 L1691 1596 L1869 1774 Z" /></g><g class="o"><path transform="translate(7,14)" class="S sfv" d="M1130 1889 L967 1726 L967 1752 L1130 1915 Z"/><path class="fv4" d="M1130 1889 L967 1726 L967 1752 L1130 1915 Z" /></g><g class="o"><path transform="translate(3,6)" class="S sfh" d="M982 1055 L670 743 L790 743 L1102 1055 Z"/><path class="fh7" d="M982 1055 L670 743 L790 743 L1102 1055 Z" /></g><g class="o"><path transform="translate(4,8)" class="S sfv" d="M1955 1382 L1828 1255 L1828 1271 L1955 1398 Z"/><path class="fv5" d="M1955 1382 L1828 1255 L1828 1271 L1955 1398 Z" /></g><g class="o"><path transform="translate(3,6)" class="S sf" d="M990 1881 L920 1811 L920 1827 L990 1897 Z"/><path class="f2" d="M990 1881 L920 1811 L920 1827 L990 1897 Z" /></g><g class="o"><path transform="translate(2,4)" class="S ssh" d="M1454 1712 L1094 1352 L1104 1352 L1464 1712 Z"/><path class="sh4" d="M1454 1712 L1094 1352 L1104 1352 L1464 1712 Z" /></g><g class="o"><path transform="translate(4,8)" class="S sfh" d="M1764 1791 L1669 1696 L1703 1696 L1798 1791 Z"/><path class="fh5" d="M1764 1791 L1669 1696 L1703 1696 L1798 1791 Z" /></g><g class="o"><path transform="translate(7,14)" class="S sfv" d="M1799 1303 L1716 1220 L1716 1236 L1799 1319 Z"/><path class="fv3" d="M1799 1303 L1716 1220 L1716 1236 L1799 1319 Z" /></g><g class="o"><path transform="translate(3,6)" class="S sf" d="M1503 1992 L1344 1833 L1424 1833 L1583 1992 Z"/><path class="f4" d="M1503 1992 L1344 1833 L1424 1833 L1583 1992 Z" /></g><g class="o"><path transform="translate(4,8)" class="S sfh" d="M1590 1527 L1378 1315 L1398 1315 L1610 1527 Z"/><path class="fh6" d="M1590 1527 L1378 1315 L1398 1315 L1610 1527 Z" /></g><g class="o"><path transform="translate(4,8)" class="S sf" d="M1395 981 L1271 857 L1271 879 L1395 1003 Z"/><path class="f7" d="M1395 981 L1271 857 L1271 879 L1395 1003 Z" /></g><g class="o"><path transform="translate(3,6)" class="S sf" d="M1395 1715 L1149 1469 L1149 1485 L1395 1731 Z"/><path class="f6" d="M1395 1715 L1149 1469 L1149 1485 L1395 1731 Z" /></g><g class="o"><path transform="translate(3,6)" class="S sfv" d="M1285 1047 L1191 953 L1191 1065 L1285 1159 Z"/><path class="fv5" d="M1285 1047 L1191 953 L1191 1065 L1285 1159 Z" /></g><g class="o"><path transform="translate(2,4)" class="S ssv" d="M1948 1882 L1797 1731 L1797 1769 L1948 1920 Z"/><path class="sv2" d="M1948 1882 L1797 1731 L1797 1769 L1948 1920 Z" /></g><g class="o"><path transform="translate(9,18)" class="S ssv" d="M1483 1068 L1423 1008 L1423 1036 L1483 1096 Z"/><path class="sv4" d="M1483 1068 L1423 1008 L1423 1036 L1483 1096 Z" /></g><g class="o"><path transform="translate(8,16)" class="S sfv" d="M1571 1129 L845 403 L845 417 L1571 1143 Z"/><path class="fv3" d="M1571 1129 L845 403 L845 417 L1571 1143 Z" /></g><g class="o"><path transform="translate(5,10)" class="S ss" d="M1274 2030 L1210 1966 L1248 1966 L1312 2030 Z"/><path class="s3" d="M1274 2030 L1210 1966 L1248 1966 L1312 2030 Z" /></g><g class="o"><path transform="translate(9,18)" class="S sf" d="M1514 1002 L1289 777 L1297 777 L1522 1002 Z"/><path class="f7" d="M1514 1002 L1289 777 L1297 777 L1522 1002 Z" /></g><g class="o"><path transform="translate(9,18)" class="S sfv" d="M1433 1540 L1255 1362 L1255 1396 L1433 1574 Z"/><path class="fv7" d="M1433 1540 L1255 1362 L1255 1396 L1433 1574 Z" /></g><g class="o"><path transform="translate(9,18)" class="S sfv" d="M1185 963 L1048 826 L1048 914 L1185 1051 Z"/><path class="fv4" d="M1185 963 L1048 826 L1048 914 L1185 1051 Z" /></g><g class="o"><path transform="translate(8,16)" class="S ssh" d="M1823 1526 L1586 1289 L1622 1289 L1859 1526 Z"/><path class="sh7" d="M1823 1526 L1586 1289 L1622 1289 L1859 1526 Z" /></g><g class="o"><path transform="translate(7,14)" class="S sfv" d="M1053 1376 L807 1130 L807 1166 L1053 1412 Z"/><path class="fv1" d="M1053 1376 L807 1130 L807 1166 L1053 1412 Z" /></g><g class="o"><path transform="translate(5,10)" class="S sfv" d="M1556 1613 L1443 1500 L1443 1516 L1556 1629 Z"/><path class="fv2" d="M1556 1613 L1443 1500 L1443 1516 L1556 1629 Z" /></g><g class="o"><path transform="translate(3,6)" class="S sfh" d="M1954 1198 L1766 1010 L1790 1010 L1978 1198 Z"/><path class="fh6" d="M1954 1198 L1766 1010 L1790 1010 L1978 1198 Z" /></g><g class="o"><path transform="translate(4,8)" class="S sfh" d="M973 1342 L860 1229 L876 1229 L989 1342 Z"/><path class="fh1" d="M973 1342 L860 1229 L876 1229 L989 1342 Z" /></g><g class="o"><path transform="translate(9,18)" class="S sfv" d="M1699 1108 L1555 964 L1555 1000 L1699 1144 Z"/><path class="fv4" d="M1699 1108 L1555 964 L1555 1000 L1699 1144 Z" /></g><g class="o"><path transform="translate(6,12)" class="S sfv" d="M1348 1076 L1298 1026 L1298 1046 L1348 1096 Z"/><path class="fv5" d="M1348 1076 L1298 1026 L1298 1046 L1348 1096 Z" /></g><g class="o"><path transform="translate(2,4)" class="S ssh" d="M1365 1808 L990 1433 L1030 1433 L1405 1808 Z"/><path class="sh2" d="M1365 1808 L990 1433 L1030 1433 L1405 1808 Z" /></g><g class="o"><path transform="translate(6,12)" class="S sfh" d="M2001 976 L1855 830 L1889 830 L2035 976 Z"/><path class="fh7" d="M2001 976 L1855 830 L1889 830 L2035 976 Z" /></g><g class="o"><path transform="translate(7,14)" class="S sf" d="M1858 1493 L1637 1272 L1717 1272 L1938 1493 Z"/><path class="f5" d="M1858 1493 L1637 1272 L1717 1272 L1938 1493 Z" /></g><g class="o"><path transform="translate(7,14)" class="S sfh" d="M1640 1236 L1581 1177 L1603 1177 L1662 1236 Z"/><path class="fh5" d="M1640 1236 L1581 1177 L1603 1177 L1662 1236 Z" /></g><g class="o"><path transform="translate(3,6)" class="S sfh" d="M1307 1354 L722 769 L758 769 L1343 1354 Z"/><path class="fh5" d="M1307 1354 L722 769 L758 769 L1343 1354 Z" /></g><g class="o"><path transform="translate(2,4)" class="S sfv" d="M1768 1516 L1546 1294 L1546 1304 L1768 1526 Z"/><path class="fv7" d="M1768 1516 L1546 1294 L1546 1304 L1768 1526 Z" /></g><g class="o"><path transform="translate(6,12)" class="S sf" d="M1902 1907 L1820 1825 L1820 1839 L1902 1921 Z"/><path class="f4" d="M1902 1907 L1820 1825 L1820 1839 L1902 1921 Z" /></g><g class="o"><path transform="translate(6,12)" class="S ss" d="M1068 1338 L841 1111 L863 1111 L1090 1338 Z"/><path class="s1" d="M1068 1338 L841 1111 L863 1111 L1090 1338 Z" /></g><g class="o"><path transform="translate(5,10)" class="S sfv" d="M1209 1869 L1103 1763 L1103 1783 L1209 1889 Z"/><path class="fv2" d="M1209 1869 L1103 1763 L1103 1783 L1209 1889 Z" /></g><g class="o"><path transform="translate(8,16)" class="S sfv" d="M1812 1123 L1710 1021 L1710 1029 L1812 1131 Z"/><path class="fv1" d="M1812 1123 L1710 1021 L1710 1029 L1812 1131 Z" /></g><g class="o"><path transform="translate(8,16)" class="S sfv" d="M1503 2029 L1395 1921 L1395 1957 L1503 2065 Z"/><path class="fv4" d="M1503 2029 L1395 1921 L1395 1957 L1503 2065 Z" /></g><g class="o"><path transform="translate(9,18)" class="S sfv" d="M1617 1611 L1485 1479 L1485 1487 L1617 1619 Z"/><path class="fv3" d="M1617 1611 L1485 1479 L1485 1487 L1617 1619 Z" /></g><g class="o"><path transform="translate(8,16)" class="S sfh" d="M1759 1813 L1153 1207 L1173 1207 L1779 1813 Z"/><path class="fh2" d="M1759 1813 L1153 1207 L1173 1207 L1779 1813 Z" /></g><g class="o"><path transform="translate(5,10)" class="S sf" d="M1364 1075 L1141 852 L1151 852 L1374 1075 Z"/><path class="f5" d="M1364 1075 L1141 852 L1151 852 L1374 1075 Z" /></g><g class="o"><path transform="translate(9,18)" class="S sfv" d="M1851 1482 L1605 1236 L1605 1272 L1851 1518 Z"/><path class="fv2" d="M1851 1482 L1605 1236 L1605 1272 L1851 1518 Z" /></g><g class="o"><path transform="translate(7,14)" class="S sfh" d="M1427 1337 L1297 1207 L1311 1207 L1441 1337 Z"/><path class="fh1" d="M1427 1337 L1297 1207 L1311 1207 L1441 1337 Z" /></g><g class="o"><path transform="translate(3,6)" class="S sf" d="M1818 1102 L1107 391 L1129 391 L1840 1102 Z"/><path class="f5" d="M1818 1102 L1107 391 L1129 391 L1840 1102 Z" /></g><g class="o"><path transform="translate(8,16)" class="S sfh" d="M1032 1898 L387 1253 L413 1253 L1058 1898 Z"/><path class="fh4" d="M1032 1898 L387 1253 L413 1253 L1058 1898 Z" /></g><g class="o"><path transform="translate(3,6)" class="S sfh" d="M1311 1457 L1178 1324 L1204 1324 L1337 1457 Z"/><path class="fh3" d="M1311 1457 L1178 1324 L1204 1324 L1337 1457 Z" /></g><g class="o"><path transform="translate(7,14)" class="S sf" d="M1536 1231 L1445 1140 L1445 1252 L1536 1343 Z"/><path class="f3" d="M1536 1231 L1445 1140 L1445 1252 L1536 1343 Z" /></g><g class="o"><path transform="translate(5,10)" class="S ssh" d="M1765 1551 L1536 1322 L1566 1322 L1795 1551 Z"/><path class="sh2" d="M1765 1551 L1536 1322 L1566 1322 L1795 1551 Z" /></g><g class="o"><path transform="translate(4,8)" class="S sfv" d="M1502 1750 L1437 1685 L1437 1723 L1502 1788 Z"/><path class="fv3" d="M1502 1750 L1437 1685 L1437 1723 L1502 1788 Z" /></g><g class="o"><path transform="translate(5,10)" class="S sf" d="M1126 1687 L1026 1587 L1026 1601 L1126 1701 Z"/><path class="f7" d="M1126 1687 L1026 1587 L1026 1601 L1126 1701 Z" /></g><g class="o"><path transform="translate(8,16)" class="S ss" d="M1371 1681 L1200 1510 L1200 1582 L1371 1753 Z"/><path class="s2" d="M1371 1681 L1200 1510 L1200 1582 L1371 1753 Z" /></g><g class="o"><path transform="translate(7,14)" class="S sfh" d="M1740 1845 L1550 1655 L1564 1655 L1754 1845 Z"/><path class="fh6" d="M1740 1845 L1550 1655 L1564 1655 L1754 1845 Z" /></g><g class="o"><path transform="translate(6,12)" class="S sfv" d="M1112 1113 L932 933 L932 969 L1112 1149 Z"/><path class="fv2" d="M1112 1113 L932 933 L932 969 L1112 1149 Z" /></g><g class="o"><path transform="translate(4,8)" class="S ss" d="M1451 1623 L944 1116 L978 1116 L1485 1623 Z"/><path class="s7" d="M1451 1623 L944 1116 L978 1116 L1485 1623 Z" /></g><g class="o"><path transform="translate(2,4)" class="S sf" d="M1967 1526 L1613 1172 L1643 1172 L1997 1526 Z"/><path class="f7" d="M1967 1526 L1613 1172 L1643 1172 L1997 1526 Z" /></g><g class="o"><path transform="translate(5,10)" class="S sfv" d="M1526 1924 L1298 1696 L1298 1732 L1526 1960 Z"/><path class="fv4" d="M1526 1924 L1298 1696 L1298 1732 L1526 1960 Z" /></g><g class="o"><path transform="translate(3,6)" class="S sfh" d="M1364 1274 L1286 1196 L1320 1196 L1398 1274 Z"/><path class="fh5" d="M1364 1274 L1286 1196 L1320 1196 L1398 1274 Z" /></g><g class="o"><path transform="translate(9,18)" class="S sfv" d="M1445 1323 L1336 1214 L1336 1244 L1445 1353 Z"/><path class="fv4" d="M1445 1323 L1336 1214 L1336 1244 L1445 1353 Z" /></g><g class="o"><path transform="translate(3,6)" class="S sfh" d="M1702 1096 L1578 972 L1598 972 L1722 1096 Z"/><path class="fh2" d="M1702 1096 L1578 972 L1598 972 L1722 1096 Z" /></g><g class="o"><path transform="translate(5,10)" class="S sfh" d="M1193 1105 L997 909 L1007 909 L1203 1105 Z"/><path class="fh7" d="M1193 1105 L997 909 L1007 909 L1203 1105 Z" /></g><g class="o"><path transform="translate(3,6)" class="S sfh" d="M1342 1817 L1183 1658 L1203 1658 L1362 1817 Z"/><path class="fh7" d="M1342 1817 L1183 1658 L1203 1658 L1362 1817 Z" /></g><g class="o"><path transform="translate(8,16)" class="S sfv" d="M1697 1153 L1642 1098 L1642 1108 L1697 1163 Z"/><path class="fv3" d="M1697 1153 L1642 1098 L1642 1108 L1697 1163 Z" /></g><g class="o"><path transform="translate(5,10)" class="S sf" d="M1076 1664 L843 1431 L843 1463 L1076 1696 Z"/><path class="f3" d="M1076 1664 L843 1431 L843 1463 L1076 1696 Z" /></g><g class="o"><path transform="translate(2,4)" class="S ssv" d="M1817 1835 L1614 1632 L1614 1658 L1817 1861 Z"/><path class="sv7" d="M1817 1835 L1614 1632 L1614 1658 L1817 1861 Z" /></g><g class="o"><path transform="translate(2,4)" class="S sf" d="M2023 1690 L1789 1456 L1789 1600 L2023 1834 Z"/><path class="f4" d="M2023 1690 L1789 1456 L1789 1600 L2023 1834 Z" /></g><g class="o"><path transform="translate(4,8)" class="S sfh" d="M934 1757 L877 1700 L1029 1700 L1086 1757 Z"/><path class="fh2" d="M934 1757 L877 1700 L1029 1700 L1086 1757 Z" /></g><g class="o"><path transform="translate(3,6)" class="S sfv" d="M1540 1709 L1361 1530 L1361 1570 L1540 1749 Z"/><path class="fv3" d="M1540 1709 L1361 1530 L1361 1570 L1540 1749 Z" /></g><g class="o"><path transform="translate(5,10)" class="S sfv" d="M1243 1673 L1109 1539 L1109 1577 L1243 1711 Z"/><path class="fv6" d="M1243 1673 L1109 1539 L1109 1577 L1243 1711 Z" /></g><g class="o"><path transform="translate(3,6)" class="S sfh" d="M1913 1355 L1805 1247 L1827 1247 L1935 1355 Z"/><path class="fh1" d="M1913 1355 L1805 1247 L1827 1247 L1935 1355 Z" /></g><g class="o"><path transform="translate(4,8)" class="S ssv" d="M1396 1785 L1149 1538 L1149 1566 L1396 1813 Z"/><path class="sv6" d="M1396 1785 L1149 1538 L1149 1566 L1396 1813 Z" /></g><g class="o"><path transform="translate(4,8)" class="S ss" d="M1300 1308 L1175 1183 L1175 1193 L1300 1318 Z"/><path class="s4" d="M1300 1308 L1175 1183 L1175 1193 L1300 1318 Z" /></g><g class="o"><path transform="translate(9,18)" class="S sfv" d="M1651 1576 L1497 1422 L1497 1456 L1651 1610 Z"/><path class="fv7" d="M1651 1576 L1497 1422 L1497 1456 L1651 1610 Z" /></g><g class="o"><path transform="translate(3,6)" class="S ssv" d="M2021 1545 L1930 1454 L1930 1482 L2021 1573 Z"/><path class="sv6" d="M2021 1545 L1930 1454 L1930 1482 L2021 1573 Z" /></g><g class="o"><path transform="translate(5,10)" class="S sfv" d="M1811 1629 L1637 1455 L1637 1473 L1811 1647 Z"/><path class="fv1" d="M1811 1629 L1637 1455 L1637 1473 L1811 1647 Z" /></g><g class="o"><path transform="translate(4,8)" class="S sf" d="M1839 1022 L1777 960 L1777 1056 L1839 1118 Z"/><path class="f3" d="M1839 1022 L1777 960 L1777 1056 L1839 1118 Z" /></g></g><use href="#slashes" transform-origin="1500 1500" transform="rotate(180) scale(2)"/></g><polyline points="1500,1010 1990,1500 1500,1990 1010,1500 1500,1010 1990,1500" stroke-width="40" class="o s4" /><use href="#slashes" transform-origin="1500 1500" transform="scale(.9)"/><use href="#slashes" transform-origin="1500 1500" transform="rotate(180) scale(.9)"/></svg>