<svg xmlns="http://www.w3.org/2000/svg" viewBox="750 750 1500 1500"><style>/*<![CDATA[*/svg{background:rgb(41,42,115);max-width:100vw;max-height:100vh}path{stroke-width:4}.o{opacity:.75}.S{opacity:.4}.sf{stroke:none;fill:black}.sfh{stroke:none;fill:url(#hs)}.sfv{stroke:none;fill:url(#vs)}.ss{stroke:black;fill:none}.ssh{stroke:url(#hs);fill:none}.ssv{stroke:url(#vs);fill:none}.s1{fill:none;stroke:rgb(11,79,108)}.f1{stroke:none;fill:rgb(11,79,108)}.sh1{fill:none;stroke:url(#h1)}.fh1{stroke:none;fill:url(#h1)}.sv1{fill:none;stroke:url(#v1)}.fv1{stroke:none;fill:url(#v1)}.s2{fill:none;stroke:rgb(117,117,117)}.f2{stroke:none;fill:rgb(117,117,117)}.sh2{fill:none;stroke:url(#h2)}.fh2{stroke:none;fill:url(#h2)}.sv2{fill:none;stroke:url(#v2)}.fv2{stroke:none;fill:url(#v2)}.s3{fill:none;stroke:rgb(32,191,85)}.f3{stroke:none;fill:rgb(32,191,85)}.sh3{fill:none;stroke:url(#h3)}.fh3{stroke:none;fill:url(#h3)}.sv3{fill:none;stroke:url(#v3)}.fv3{stroke:none;fill:url(#v3)}.s4{fill:none;stroke:rgb(34,34,34)}.f4{stroke:none;fill:rgb(34,34,34)}.sh4{fill:none;stroke:url(#h4)}.fh4{stroke:none;fill:url(#h4)}.sv4{fill:none;stroke:url(#v4)}.fv4{stroke:none;fill:url(#v4)}.s5{fill:none;stroke:rgb(251,251,255)}.f5{stroke:none;fill:rgb(251,251,255)}.sh5{fill:none;stroke:url(#h5)}.fh5{stroke:none;fill:url(#h5)}.sv5{fill:none;stroke:url(#v5)}.fv5{stroke:none;fill:url(#v5)}.s6{fill:none;stroke:rgb(255,255,255)}.f6{stroke:none;fill:rgb(255,255,255)}.sh6{fill:none;stroke:url(#h6)}.fh6{stroke:none;fill:url(#h6)}.sv6{fill:none;stroke:url(#v6)}.fv6{stroke:none;fill:url(#v6)}.s7{fill:none;stroke:rgb(255,255,0)}.f7{stroke:none;fill:rgb(255,255,0)}.sh7{fill:none;stroke:url(#h7)}.fh7{stroke:none;fill:url(#h7)}.sv7{fill:none;stroke:url(#v7)}.fv7{stroke:none;fill:url(#v7)}/*]]>*/</style><defs><linearGradient gradientTransform="rotate(90)" id="hs"><stop offset="20%" stop-color="#000" /><stop offset="95%" stop-color="rgba(0, 0, 0, 0)" /></linearGradient><linearGradient id="vs"><stop offset="20%" stop-color="#000" /><stop offset="95%" stop-color="rgba(0, 0, 0, 0)" /></linearGradient><linearGradient gradientTransform="rotate(90)" id="h1"><stop offset="20%" stop-color="rgba(11,79,108,1)" /><stop offset="95%" stop-color="rgba(11,79,108,0)" /></linearGradient><linearGradient id="v1"><stop offset="20%" stop-color="rgba(11,79,108,1)" /><stop offset="95%" stop-color="rgba(11,79,108,0)" /></linearGradient><linearGradient gradientTransform="rotate(90)" id="h2"><stop offset="20%" stop-color="rgba(117,117,117,1)" /><stop offset="95%" stop-color="rgba(117,117,117,0)" /></linearGradient><linearGradient id="v2"><stop offset="20%" stop-color="rgba(117,117,117,1)" /><stop offset="95%" stop-color="rgba(117,117,117,0)" /></linearGradient><linearGradient gradientTransform="rotate(90)" id="h3"><stop offset="20%" stop-color="rgba(32,191,85,1)" /><stop offset="95%" stop-color="rgba(32,191,85,0)" /></linearGradient><linearGradient id="v3"><stop offset="20%" stop-color="rgba(32,191,85,1)" /><stop offset="95%" stop-color="rgba(32,191,85,0)" /></linearGradient><linearGradient gradientTransform="rotate(90)" id="h4"><stop offset="20%" stop-color="rgba(34,34,34,1)" /><stop offset="95%" stop-color="rgba(34,34,34,0)" /></linearGradient><linearGradient id="v4"><stop offset="20%" stop-color="rgba(34,34,34,1)" /><stop offset="95%" stop-color="rgba(34,34,34,0)" /></linearGradient><linearGradient gradientTransform="rotate(90)" id="h5"><stop offset="20%" stop-color="rgba(251,251,255,1)" /><stop offset="95%" stop-color="rgba(251,251,255,0)" /></linearGradient><linearGradient id="v5"><stop offset="20%" stop-color="rgba(251,251,255,1)" /><stop offset="95%" stop-color="rgba(251,251,255,0)" /></linearGradient><linearGradient gradientTransform="rotate(90)" id="h6"><stop offset="20%" stop-color="rgba(255,255,255,1)" /><stop offset="95%" stop-color="rgba(255,255,255,0)" /></linearGradient><linearGradient id="v6"><stop offset="20%" stop-color="rgba(255,255,255,1)" /><stop offset="95%" stop-color="rgba(255,255,255,0)" /></linearGradient><linearGradient gradientTransform="rotate(90)" id="h7"><stop offset="20%" stop-color="rgba(255,255,0,1)" /><stop offset="95%" stop-color="rgba(255,255,0,0)" /></linearGradient><linearGradient id="v7"><stop offset="20%" stop-color="rgba(255,255,0,1)" /><stop offset="95%" stop-color="rgba(255,255,0,0)" /></linearGradient></defs><g transform-origin="1500 1500" transform="scale(2)" opacity=".2"><g id="slashes"><g class="o"><path transform="translate(3,6)" class="S sfv" d="M960 1827 L836 1951 L836 1987 L960 1863 Z"/><path class="fv3" d="M960 1827 L836 1951 L836 1987 L960 1863 Z" /></g><g class="o"><path transform="translate(4,8)" class="S sfh" d="M1564 1266 L1747 1449 L1773 1449 L1590 1266 Z"/><path class="fh4" d="M1564 1266 L1747 1449 L1773 1449 L1590 1266 Z" /></g><g class="o"><path transform="translate(2,4)" class="S sfv" d="M1071 1451 L1181 1561 L1181 1593 L1071 1483 Z"/><path class="fv6" d="M1071 1451 L1181 1561 L1181 1593 L1071 1483 Z" /></g><g class="o"><path transform="translate(7,14)" class="S sf" d="M1056 1552 L1231 1727 L1279 1727 L1104 1552 Z"/><path class="f1" d="M1056 1552 L1231 1727 L1279 1727 L1104 1552 Z" /></g><g class="o"><path transform="translate(2,4)" class="S sfv" d="M1777 1598 L1931 1752 L1931 1848 L1777 1694 Z"/><path class="fv3" d="M1777 1598 L1931 1752 L1931 1848 L1777 1694 Z" /></g><g class="o"><path transform="translate(2,4)" class="S sf" d="M1983 996 L2215 1228 L2229 1228 L1997 996 Z"/><path class="f6" d="M1983 996 L2215 1228 L2229 1228 L1997 996 Z" /></g><g class="o"><path transform="translate(5,10)" class="S sf" d="M1660 1813 L1827 1980 L1875 1980 L1708 1813 Z"/><path class="f4" d="M1660 1813 L1827 1980 L1875 1980 L1708 1813 Z" /></g><g class="o"><path transform="translate(3,6)" class="S sfv" d="M1099 1265 L1309 1475 L1309 1483 L1099 1273 Z"/><path class="fv2" d="M1099 1265 L1309 1475 L1309 1483 L1099 1273 Z" /></g><g class="o"><path transform="translate(7,14)" class="S sfh" d="M1792 990 L1893 1091 L1911 1091 L1810 990 Z"/><path class="fh1" d="M1792 990 L1893 1091 L1911 1091 L1810 990 Z" /></g><g class="o"><path transform="translate(2,4)" class="S sfv" d="M2026 1091 L2112 1177 L2112 1209 L2026 1123 Z"/><path class="fv2" d="M2026 1091 L2112 1177 L2112 1209 L2026 1123 Z" /></g><g class="o"><path transform="translate(8,16)" class="S sfv" d="M1457 990 L1283 1164 L1283 1252 L1457 1078 Z"/><path class="fv5" d="M1457 990 L1283 1164 L1283 1252 L1457 1078 Z" /></g><g class="o"><path transform="translate(4,8)" class="S sfv" d="M1685 985 L1758 1058 L1758 1066 L1685 993 Z"/><path class="fv3" d="M1685 985 L1758 1058 L1758 1066 L1685 993 Z" /></g><g class="o"><path transform="translate(9,18)" class="S sfv" d="M1893 1316 L1705 1504 L1705 1536 L1893 1348 Z"/><path class="fv6" d="M1893 1316 L1705 1504 L1705 1536 L1893 1348 Z" /></g><g class="o"><path transform="translate(5,10)" class="S sfh" d="M1177 1351 L1253 1427 L1285 1427 L1209 1351 Z"/><path class="fh6" d="M1177 1351 L1253 1427 L1285 1427 L1209 1351 Z" /></g><g class="o"><path transform="translate(9,18)" class="S ssv" d="M1079 1359 L1220 1500 L1220 1532 L1079 1391 Z"/><path class="sv2" d="M1079 1359 L1220 1500 L1220 1532 L1079 1391 Z" /></g><g class="o"><path transform="translate(9,18)" class="S sfv" d="M1146 1839 L950 2035 L950 2115 L1146 1919 Z"/><path class="fv4" d="M1146 1839 L950 2035 L950 2115 L1146 1919 Z" /></g><g class="o"><path transform="translate(2,4)" class="S sf" d="M1725 1356 L1522 1559 L1522 1575 L1725 1372 Z"/><path class="f1" d="M1725 1356 L1522 1559 L1522 1575 L1725 1372 Z" /></g><g class="o"><path transform="translate(5,10)" class="S sfh" d="M1679 1532 L1835 1688 L1849 1688 L1693 1532 Z"/><path class="fh7" d="M1679 1532 L1835 1688 L1849 1688 L1693 1532 Z" /></g><g class="o"><path transform="translate(9,18)" class="S sf" d="M1653 1325 L1864 1536 L1864 1656 L1653 1445 Z"/><path class="f7" d="M1653 1325 L1864 1536 L1864 1656 L1653 1445 Z" /></g><g class="o"><path transform="translate(9,18)" class="S sfh" d="M1663 1427 L1493 1597 L1531 1597 L1701 1427 Z"/><path class="fh3" d="M1663 1427 L1493 1597 L1531 1597 L1701 1427 Z" /></g><g class="o"><path transform="translate(5,10)" class="S sfv" d="M973 2024 L1090 2141 L1090 2173 L973 2056 Z"/><path class="fv7" d="M973 2024 L1090 2141 L1090 2173 L973 2056 Z" /></g><g class="o"><path transform="translate(2,4)" class="S sfv" d="M1397 1862 L1295 1964 L1295 1998 L1397 1896 Z"/><path class="fv3" d="M1397 1862 L1295 1964 L1295 1998 L1397 1896 Z" /></g><g class="o"><path transform="translate(9,18)" class="S sfv" d="M2036 1017 L1953 1100 L1953 1188 L2036 1105 Z"/><path class="fv2" d="M2036 1017 L1953 1100 L1953 1188 L2036 1105 Z" /></g><g class="o"><path transform="translate(8,16)" class="S sfh" d="M1829 1090 L2041 1302 L2129 1302 L1917 1090 Z"/><path class="fh6" d="M1829 1090 L2041 1302 L2129 1302 L1917 1090 Z" /></g><g class="o"><path transform="translate(9,18)" class="S ss" d="M1932 974 L2110 1152 L2126 1152 L1948 974 Z"/><path class="s1" d="M1932 974 L2110 1152 L2126 1152 L1948 974 Z" /></g><g class="o"><path transform="translate(6,12)" class="S ss" d="M999 1541 L1134 1676 L1238 1676 L1103 1541 Z"/><path class="s6" d="M999 1541 L1134 1676 L1238 1676 L1103 1541 Z" /></g><g class="o"><path transform="translate(3,6)" class="S sf" d="M1667 1154 L1888 1375 L1888 1415 L1667 1194 Z"/><path class="f5" d="M1667 1154 L1888 1375 L1888 1415 L1667 1194 Z" /></g><g class="o"><path transform="translate(4,8)" class="S sfv" d="M1062 1956 L851 2167 L851 2195 L1062 1984 Z"/><path class="fv1" d="M1062 1956 L851 2167 L851 2195 L1062 1984 Z" /></g><g class="o"><path transform="translate(8,16)" class="S sfv" d="M1114 1051 L1292 1229 L1292 1255 L1114 1077 Z"/><path class="fv3" d="M1114 1051 L1292 1229 L1292 1255 L1114 1077 Z" /></g><g class="o"><path transform="translate(4,8)" class="S sfv" d="M1182 1069 L1071 1180 L1071 1252 L1182 1141 Z"/><path class="fv2" d="M1182 1069 L1071 1180 L1071 1252 L1182 1141 Z" /></g><g class="o"><path transform="translate(4,8)" class="S sfh" d="M1205 1438 L1147 1496 L1177 1496 L1235 1438 Z"/><path class="fh6" d="M1205 1438 L1147 1496 L1177 1496 L1235 1438 Z" /></g><g class="o"><path transform="translate(9,18)" class="S ssh" d="M1496 2010 L1627 2141 L1699 2141 L1568 2010 Z"/><path class="sh3" d="M1496 2010 L1627 2141 L1699 2141 L1568 2010 Z" /></g><g class="o"><path transform="translate(9,18)" class="S sfv" d="M1737 2021 L1552 2206 L1552 2262 L1737 2077 Z"/><path class="fv2" d="M1737 2021 L1552 2206 L1552 2262 L1737 2077 Z" /></g><g class="o"><path transform="translate(8,16)" class="S sfv" d="M1925 1684 L2420 2179 L2420 2211 L1925 1716 Z"/><path class="fv4" d="M1925 1684 L2420 2179 L2420 2211 L1925 1716 Z" /></g><g class="o"><path transform="translate(2,4)" class="S sfv" d="M1029 1100 L850 1279 L850 1303 L1029 1124 Z"/><path class="fv7" d="M1029 1100 L850 1279 L850 1303 L1029 1124 Z" /></g><g class="o"><path transform="translate(2,4)" class="S sf" d="M1481 1388 L1375 1494 L1391 1494 L1497 1388 Z"/><path class="f2" d="M1481 1388 L1375 1494 L1391 1494 L1497 1388 Z" /></g><g class="o"><path transform="translate(2,4)" class="S sfh" d="M1740 1319 L1541 1518 L1661 1518 L1860 1319 Z"/><path class="fh4" d="M1740 1319 L1541 1518 L1661 1518 L1860 1319 Z" /></g><g class="o"><path transform="translate(4,8)" class="S sfv" d="M1653 1282 L1011 1924 L1011 1940 L1653 1298 Z"/><path class="fv1" d="M1653 1282 L1011 1924 L1011 1940 L1653 1298 Z" /></g><g class="o"><path transform="translate(6,12)" class="S sfh" d="M1516 1390 L1431 1475 L1457 1475 L1542 1390 Z"/><path class="fh1" d="M1516 1390 L1431 1475 L1457 1475 L1542 1390 Z" /></g><g class="o"><path transform="translate(5,10)" class="S sf" d="M1606 985 L2149 1528 L2149 1672 L1606 1129 Z"/><path class="f2" d="M1606 985 L2149 1528 L2149 1672 L1606 1129 Z" /></g><g class="o"><path transform="translate(3,6)" class="S sfv" d="M1985 1917 L2220 2152 L2220 2168 L1985 1933 Z"/><path class="fv7" d="M1985 1917 L2220 2152 L2220 2168 L1985 1933 Z" /></g><g class="o"><path transform="translate(6,12)" class="S sfh" d="M1322 1116 L1076 1362 L1196 1362 L1442 1116 Z"/><path class="fh4" d="M1322 1116 L1076 1362 L1196 1362 L1442 1116 Z" /></g><g class="o"><path transform="translate(8,16)" class="S sfh" d="M1808 954 L2240 1386 L2392 1386 L1960 954 Z"/><path class="fh4" d="M1808 954 L2240 1386 L2392 1386 L1960 954 Z" /></g><g class="o"><path transform="translate(7,14)" class="S sfv" d="M1354 1232 L1465 1343 L1465 1359 L1354 1248 Z"/><path class="fv3" d="M1354 1232 L1465 1343 L1465 1359 L1354 1248 Z" /></g><g class="o"><path transform="translate(4,8)" class="S ssv" d="M1949 1674 L2076 1801 L2076 1905 L1949 1778 Z"/><path class="sv6" d="M1949 1674 L2076 1801 L2076 1905 L1949 1778 Z" /></g><g class="o"><path transform="translate(4,8)" class="S sfv" d="M963 1419 L758 1624 L758 1688 L963 1483 Z"/><path class="fv1" d="M963 1419 L758 1624 L758 1688 L963 1483 Z" /></g><g class="o"><path transform="translate(3,6)" class="S sfv" d="M1684 1033 L1750 1099 L1750 1137 L1684 1071 Z"/><path class="fv7" d="M1684 1033 L1750 1099 L1750 1137 L1684 1071 Z" /></g><g class="o"><path transform="translate(5,10)" class="S sfv" d="M1247 1877 L1023 2101 L1023 2109 L1247 1885 Z"/><path class="fv3" d="M1247 1877 L1023 2101 L1023 2109 L1247 1885 Z" /></g><g class="o"><path transform="translate(8,16)" class="S sfh" d="M1115 1210 L1271 1366 L1319 1366 L1163 1210 Z"/><path class="fh1" d="M1115 1210 L1271 1366 L1319 1366 L1163 1210 Z" /></g><g class="o"><path transform="translate(7,14)" class="S sf" d="M1789 1047 L2003 1261 L2025 1261 L1811 1047 Z"/><path class="f1" d="M1789 1047 L2003 1261 L2025 1261 L1811 1047 Z" /></g><g class="o"><path transform="translate(4,8)" class="S sfh" d="M1914 1890 L2358 2334 L2382 2334 L1938 1890 Z"/><path class="fh5" d="M1914 1890 L2358 2334 L2382 2334 L1938 1890 Z" /></g><g class="o"><path transform="translate(4,8)" class="S sf" d="M1416 1802 L1576 1962 L1576 2106 L1416 1946 Z"/><path class="f6" d="M1416 1802 L1576 1962 L1576 2106 L1416 1946 Z" /></g><g class="o"><path transform="translate(3,6)" class="S sfh" d="M1153 1279 L1007 1425 L1025 1425 L1171 1279 Z"/><path class="fh3" d="M1153 1279 L1007 1425 L1025 1425 L1171 1279 Z" /></g><g class="o"><path transform="translate(2,4)" class="S ssv" d="M1072 1750 L892 1930 L892 1942 L1072 1762 Z"/><path class="sv3" d="M1072 1750 L892 1930 L892 1942 L1072 1762 Z" /></g><g class="o"><path transform="translate(6,12)" class="S ssv" d="M1070 1517 L1225 1672 L1225 1690 L1070 1535 Z"/><path class="sv5" d="M1070 1517 L1225 1672 L1225 1690 L1070 1535 Z" /></g><g class="o"><path transform="translate(4,8)" class="S sfv" d="M1854 1925 L1742 2037 L1742 2051 L1854 1939 Z"/><path class="fv6" d="M1854 1925 L1742 2037 L1742 2051 L1854 1939 Z" /></g><g class="o"><path transform="translate(3,6)" class="S sf" d="M963 1304 L1023 1364 L1023 1492 L963 1432 Z"/><path class="f2" d="M963 1304 L1023 1364 L1023 1492 L963 1432 Z" /></g><g class="o"><path transform="translate(3,6)" class="S sf" d="M1189 1535 L1130 1594 L1130 1642 L1189 1583 Z"/><path class="f1" d="M1189 1535 L1130 1594 L1130 1642 L1189 1583 Z" /></g><g class="o"><path transform="translate(7,14)" class="S ssh" d="M1147 1804 L1011 1940 L1019 1940 L1155 1804 Z"/><path class="sh2" d="M1147 1804 L1011 1940 L1019 1940 L1155 1804 Z" /></g><g class="o"><path transform="translate(3,6)" class="S sf" d="M1477 1857 L1347 1987 L1359 1987 L1489 1857 Z"/><path class="f6" d="M1477 1857 L1347 1987 L1359 1987 L1489 1857 Z" /></g><g class="o"><path transform="translate(6,12)" class="S sfh" d="M1266 1050 L1083 1233 L1113 1233 L1296 1050 Z"/><path class="fh4" d="M1266 1050 L1083 1233 L1113 1233 L1296 1050 Z" /></g><g class="o"><path transform="translate(9,18)" class="S sfv" d="M1767 1333 L2499 2065 L2499 2083 L1767 1351 Z"/><path class="fv2" d="M1767 1333 L2499 2065 L2499 2083 L1767 1351 Z" /></g><g class="o"><path transform="translate(8,16)" class="S sfh" d="M1250 1341 L578 2013 L626 2013 L1298 1341 Z"/><path class="fh7" d="M1250 1341 L578 2013 L626 2013 L1298 1341 Z" /></g><g class="o"><path transform="translate(4,8)" class="S sfh" d="M1466 1567 L1219 1814 L1253 1814 L1500 1567 Z"/><path class="fh1" d="M1466 1567 L1219 1814 L1253 1814 L1500 1567 Z" /></g><g class="o"><path transform="translate(9,18)" class="S sfh" d="M1803 1846 L1929 1972 L1941 1972 L1815 1846 Z"/><path class="fh5" d="M1803 1846 L1929 1972 L1941 1972 L1815 1846 Z" /></g><g class="o"><path transform="translate(9,18)" class="S sfv" d="M1770 1454 L1546 1678 L1546 1706 L1770 1482 Z"/><path class="fv7" d="M1770 1454 L1546 1678 L1546 1706 L1770 1482 Z" /></g><g class="o"><path transform="translate(3,6)" class="S sf" d="M1332 1178 L1245 1265 L1373 1265 L1460 1178 Z"/><path class="f7" d="M1332 1178 L1245 1265 L1373 1265 L1460 1178 Z" /></g><g class="o"><path transform="translate(6,12)" class="S sfv" d="M1074 928 L339 1663 L339 1759 L1074 1024 Z"/><path class="fv5" d="M1074 928 L339 1663 L339 1759 L1074 1024 Z" /></g><g class="o"><path transform="translate(5,10)" class="S sf" d="M1516 1839 L1693 2016 L1693 2088 L1516 1911 Z"/><path class="f5" d="M1516 1839 L1693 2016 L1693 2088 L1516 1911 Z" /></g><g class="o"><path transform="translate(4,8)" class="S sfh" d="M1717 1256 L1024 1949 L1048 1949 L1741 1256 Z"/><path class="fh1" d="M1717 1256 L1024 1949 L1048 1949 L1741 1256 Z" /></g><g class="o"><path transform="translate(6,12)" class="S sfv" d="M1260 1228 L1485 1453 L1485 1469 L1260 1244 Z"/><path class="fv6" d="M1260 1228 L1485 1453 L1485 1469 L1260 1244 Z" /></g><g class="o"><path transform="translate(3,6)" class="S sfv" d="M1223 1380 L1315 1472 L1315 1520 L1223 1428 Z"/><path class="fv2" d="M1223 1380 L1315 1472 L1315 1520 L1223 1428 Z" /></g><g class="o"><path transform="translate(6,12)" class="S sf" d="M1153 1253 L912 1494 L912 1532 L1153 1291 Z"/><path class="f1" d="M1153 1253 L912 1494 L912 1532 L1153 1291 Z" /></g><g class="o"><path transform="translate(3,6)" class="S sfv" d="M1368 1091 L1175 1284 L1175 1296 L1368 1103 Z"/><path class="fv1" d="M1368 1091 L1175 1284 L1175 1296 L1368 1103 Z" /></g><g class="o"><path transform="translate(2,4)" class="S sf" d="M1217 1446 L767 1896 L785 1896 L1235 1446 Z"/><path class="f6" d="M1217 1446 L767 1896 L785 1896 L1235 1446 Z" /></g><g class="o"><path transform="translate(4,8)" class="S ssv" d="M1261 1321 L1107 1475 L1107 1571 L1261 1417 Z"/><path class="sv7" d="M1261 1321 L1107 1475 L1107 1571 L1261 1417 Z" /></g><g class="o"><path transform="translate(8,16)" class="S sfv" d="M978 1937 L813 2102 L813 2128 L978 1963 Z"/><path class="fv6" d="M978 1937 L813 2102 L813 2128 L978 1963 Z" /></g><g class="o"><path transform="translate(6,12)" class="S sf" d="M1241 1599 L1338 1696 L1352 1696 L1255 1599 Z"/><path class="f1" d="M1241 1599 L1338 1696 L1352 1696 L1255 1599 Z" /></g><g class="o"><path transform="translate(5,10)" class="S sfh" d="M1414 1157 L1189 1382 L1201 1382 L1426 1157 Z"/><path class="fh2" d="M1414 1157 L1189 1382 L1201 1382 L1426 1157 Z" /></g><g class="o"><path transform="translate(2,4)" class="S sfv" d="M1883 1810 L1977 1904 L1977 1984 L1883 1890 Z"/><path class="fv5" d="M1883 1810 L1977 1904 L1977 1984 L1883 1890 Z" /></g><g class="o"><path transform="translate(2,4)" class="S sfh" d="M1180 1821 L1114 1887 L1140 1887 L1206 1821 Z"/><path class="fh1" d="M1180 1821 L1114 1887 L1140 1887 L1206 1821 Z" /></g><g class="o"><path transform="translate(6,12)" class="S ssh" d="M1262 1970 L1442 2150 L1480 2150 L1300 1970 Z"/><path class="sh3" d="M1262 1970 L1442 2150 L1480 2150 L1300 1970 Z" /></g><g class="o"><path transform="translate(9,18)" class="S ssv" d="M1610 1246 L1516 1340 L1516 1360 L1610 1266 Z"/><path class="sv1" d="M1610 1246 L1516 1340 L1516 1360 L1610 1266 Z" /></g><g class="o"><path transform="translate(9,18)" class="S sf" d="M1520 1069 L1360 1229 L1488 1229 L1648 1069 Z"/><path class="f2" d="M1520 1069 L1360 1229 L1488 1229 L1648 1069 Z" /></g><g class="o"><path transform="translate(3,6)" class="S ssv" d="M1077 1676 L834 1919 L834 1955 L1077 1712 Z"/><path class="sv1" d="M1077 1676 L834 1919 L834 1955 L1077 1712 Z" /></g><g class="o"><path transform="translate(9,18)" class="S sfv" d="M1522 1809 L862 2469 L862 2505 L1522 1845 Z"/><path class="fv1" d="M1522 1809 L862 2469 L862 2505 L1522 1845 Z" /></g><g class="o"><path transform="translate(4,8)" class="S sfh" d="M1761 1292 L1711 1342 L1759 1342 L1809 1292 Z"/><path class="fh2" d="M1761 1292 L1711 1342 L1759 1342 L1809 1292 Z" /></g><g class="o"><path transform="translate(5,10)" class="S sf" d="M1715 1353 L2327 1965 L2327 2029 L1715 1417 Z"/><path class="f3" d="M1715 1353 L2327 1965 L2327 2029 L1715 1417 Z" /></g><g class="o"><path transform="translate(8,16)" class="S sfh" d="M1208 1891 L1128 1971 L1164 1971 L1244 1891 Z"/><path class="fh3" d="M1208 1891 L1128 1971 L1164 1971 L1244 1891 Z" /></g><g class="o"><path transform="translate(8,16)" class="S sfh" d="M1299 1311 L1417 1429 L1457 1429 L1339 1311 Z"/><path class="fh4" d="M1299 1311 L1417 1429 L1457 1429 L1339 1311 Z" /></g><g class="o"><path transform="translate(4,8)" class="S sfv" d="M2036 1466 L1918 1584 L1918 1720 L2036 1602 Z"/><path class="fv6" d="M2036 1466 L1918 1584 L1918 1720 L2036 1602 Z" /></g><g class="o"><path transform="translate(8,16)" class="S sf" d="M1436 1931 L1523 2018 L1559 2018 L1472 1931 Z"/><path class="f3" d="M1436 1931 L1523 2018 L1559 2018 L1472 1931 Z" /></g><g class="o"><path transform="translate(6,12)" class="S sfv" d="M2049 1395 L2296 1642 L2296 1658 L2049 1411 Z"/><path class="fv3" d="M2049 1395 L2296 1642 L2296 1658 L2049 1411 Z" /></g><g class="o"><path transform="translate(5,10)" class="S sfv" d="M1687 1577 L1315 1949 L1315 2005 L1687 1633 Z"/><path class="fv5" d="M1687 1577 L1315 1949 L1315 2005 L1687 1633 Z" /></g><g class="o"><path transform="translate(4,8)" class="S sf" d="M1460 1348 L1564 1452 L1564 1484 L1460 1380 Z"/><path class="f1" d="M1460 1348 L1564 1452 L1564 1484 L1460 1380 Z" /></g><g class="o"><path transform="translate(6,12)" class="S ss" d="M1101 1736 L495 2342 L591 2342 L1197 1736 Z"/><path class="s6" d="M1101 1736 L495 2342 L591 2342 L1197 1736 Z" /></g><g class="o"><path transform="translate(6,12)" class="S sf" d="M1964 1633 L1637 1960 L1637 2032 L1964 1705 Z"/><path class="f3" d="M1964 1633 L1637 1960 L1637 2032 L1964 1705 Z" /></g><g class="o"><path transform="translate(4,8)" class="S sfh" d="M1623 1891 L1515 1999 L1643 1999 L1751 1891 Z"/><path class="fh2" d="M1623 1891 L1515 1999 L1643 1999 L1751 1891 Z" /></g><g class="o"><path transform="translate(9,18)" class="S sf" d="M1532 969 L1385 1116 L1397 1116 L1544 969 Z"/><path class="f3" d="M1532 969 L1385 1116 L1397 1116 L1544 969 Z" /></g><g class="o"><path transform="translate(5,10)" class="S ssh" d="M1394 1328 L1133 1589 L1149 1589 L1410 1328 Z"/><path class="sh2" d="M1394 1328 L1133 1589 L1149 1589 L1410 1328 Z" /></g><g class="o"><path transform="translate(6,12)" class="S sfh" d="M1073 1049 L979 1143 L1001 1143 L1095 1049 Z"/><path class="fh5" d="M1073 1049 L979 1143 L1001 1143 L1095 1049 Z" /></g><g class="o"><path transform="translate(4,8)" class="S sfv" d="M1529 1065 L1618 1154 L1618 1250 L1529 1161 Z"/><path class="fv3" d="M1529 1065 L1618 1154 L1618 1250 L1529 1161 Z" /></g><g class="o"><path transform="translate(2,4)" class="S sfv" d="M1331 1756 L1476 1901 L1476 1989 L1331 1844 Z"/><path class="fv1" d="M1331 1756 L1476 1901 L1476 1989 L1331 1844 Z" /></g><g class="o"><path transform="translate(7,14)" class="S ssv" d="M1793 1844 L2459 2510 L2459 2638 L1793 1972 Z"/><path class="sv4" d="M1793 1844 L2459 2510 L2459 2638 L1793 1972 Z" /></g><g class="o"><path transform="translate(2,4)" class="S ssv" d="M990 1830 L894 1926 L894 1966 L990 1870 Z"/><path class="sv2" d="M990 1830 L894 1926 L894 1966 L990 1870 Z" /></g><g class="o"><path transform="translate(2,4)" class="S sfh" d="M1115 1803 L1034 1884 L1056 1884 L1137 1803 Z"/><path class="fh6" d="M1115 1803 L1034 1884 L1056 1884 L1137 1803 Z" /></g><g class="o"><path transform="translate(6,12)" class="S sfv" d="M1651 1112 L1459 1304 L1459 1330 L1651 1138 Z"/><path class="fv2" d="M1651 1112 L1459 1304 L1459 1330 L1651 1138 Z" /></g><g class="o"><path transform="translate(5,10)" class="S sfh" d="M1494 1343 L1965 1814 L2077 1814 L1606 1343 Z"/><path class="fh6" d="M1494 1343 L1965 1814 L2077 1814 L1606 1343 Z" /></g><g class="o"><path transform="translate(9,18)" class="S sfh" d="M1098 1812 L883 2027 L915 2027 L1130 1812 Z"/><path class="fh2" d="M1098 1812 L883 2027 L915 2027 L1130 1812 Z" /></g><g class="o"><path transform="translate(9,18)" class="S sfv" d="M1176 1509 L1353 1686 L1353 1774 L1176 1597 Z"/><path class="fv5" d="M1176 1509 L1353 1686 L1353 1774 L1176 1597 Z" /></g><g class="o"><path transform="translate(5,10)" class="S sfh" d="M1207 1130 L1110 1227 L1148 1227 L1245 1130 Z"/><path class="fh1" d="M1207 1130 L1110 1227 L1148 1227 L1245 1130 Z" /></g><g class="o"><path transform="translate(5,10)" class="S ssv" d="M1885 1091 L1744 1232 L1744 1248 L1885 1107 Z"/><path class="sv7" d="M1885 1091 L1744 1232 L1744 1248 L1885 1107 Z" /></g><g class="o"><path transform="translate(3,6)" class="S sf" d="M1566 1674 L1020 2220 L1044 2220 L1590 1674 Z"/><path class="f1" d="M1566 1674 L1020 2220 L1044 2220 L1590 1674 Z" /></g><g class="o"><path transform="translate(2,4)" class="S sfv" d="M1745 1650 L2234 2139 L2234 2161 L1745 1672 Z"/><path class="fv4" d="M1745 1650 L2234 2139 L2234 2161 L1745 1672 Z" /></g><g class="o"><path transform="translate(4,8)" class="S ssh" d="M1002 1817 L1251 2066 L1271 2066 L1022 1817 Z"/><path class="sh1" d="M1002 1817 L1251 2066 L1271 2066 L1022 1817 Z" /></g><g class="o"><path transform="translate(6,12)" class="S sf" d="M1999 1679 L2105 1785 L2105 1881 L1999 1775 Z"/><path class="f7" d="M1999 1679 L2105 1785 L2105 1881 L1999 1775 Z" /></g><g class="o"><path transform="translate(5,10)" class="S sfv" d="M1527 1798 L1467 1858 L1467 2002 L1527 1942 Z"/><path class="fv4" d="M1527 1798 L1467 1858 L1467 2002 L1527 1942 Z" /></g><g class="o"><path transform="translate(3,6)" class="S sf" d="M1606 1821 L1685 1900 L1685 1920 L1606 1841 Z"/><path class="f2" d="M1606 1821 L1685 1900 L1685 1920 L1606 1841 Z" /></g><g class="o"><path transform="translate(7,14)" class="S sf" d="M956 1165 L1259 1468 L1259 1572 L956 1269 Z"/><path class="f2" d="M956 1165 L1259 1468 L1259 1572 L956 1269 Z" /></g><g class="o"><path transform="translate(3,6)" class="S sfv" d="M1823 1316 L1609 1530 L1609 1548 L1823 1334 Z"/><path class="fv6" d="M1823 1316 L1609 1530 L1609 1548 L1823 1334 Z" /></g></g><use href="#slashes" transform-origin="1500 1500" transform="rotate(180) scale(2)"/></g><rect x="1080" y="1080" width="840" height="840" stroke-width="20" class="o s4" /><use href="#slashes" transform-origin="1500 1500" transform="scale(1)"/><use href="#slashes" transform-origin="1500 1500" transform="rotate(180) scale(1,-1)"/></svg>