<svg xmlns="http://www.w3.org/2000/svg" viewBox="750 750 1500 1500"><style>/*<![CDATA[*/svg{background:rgb(34,34,34);max-width:100vw;max-height:100vh}path{stroke-width:4}.o{opacity:.75}.S{opacity:.4}.sf{stroke:none;fill:black}.sfh{stroke:none;fill:url(#hs)}.sfv{stroke:none;fill:url(#vs)}.ss{stroke:black;fill:none}.ssh{stroke:url(#hs);fill:none}.ssv{stroke:url(#vs);fill:none}.s1{fill:none;stroke:rgb(50,147,111)}.f1{stroke:none;fill:rgb(50,147,111)}.sh1{fill:none;stroke:url(#h1)}.fh1{stroke:none;fill:url(#h1)}.sv1{fill:none;stroke:url(#v1)}.fv1{stroke:none;fill:url(#v1)}.s2{fill:none;stroke:rgb(255,191,0)}.f2{stroke:none;fill:rgb(255,191,0)}.sh2{fill:none;stroke:url(#h2)}.fh2{stroke:none;fill:url(#h2)}.sv2{fill:none;stroke:url(#v2)}.fv2{stroke:none;fill:url(#v2)}.s3{fill:none;stroke:rgb(255,255,255)}.f3{stroke:none;fill:rgb(255,255,255)}.sh3{fill:none;stroke:url(#h3)}.fh3{stroke:none;fill:url(#h3)}.sv3{fill:none;stroke:url(#v3)}.fv3{stroke:none;fill:url(#v3)}.s4{fill:none;stroke:rgb(232,63,111)}.f4{stroke:none;fill:rgb(232,63,111)}.sh4{fill:none;stroke:url(#h4)}.fh4{stroke:none;fill:url(#h4)}.sv4{fill:none;stroke:url(#v4)}.fv4{stroke:none;fill:url(#v4)}.s5{fill:none;stroke:rgb(34,116,165)}.f5{stroke:none;fill:rgb(34,116,165)}.sh5{fill:none;stroke:url(#h5)}.fh5{stroke:none;fill:url(#h5)}.sv5{fill:none;stroke:url(#v5)}.fv5{stroke:none;fill:url(#v5)}.s6{fill:none;stroke:rgb(255,255,255)}.f6{stroke:none;fill:rgb(255,255,255)}.sh6{fill:none;stroke:url(#h6)}.fh6{stroke:none;fill:url(#h6)}.sv6{fill:none;stroke:url(#v6)}.fv6{stroke:none;fill:url(#v6)}.s7{fill:none;stroke:rgb(255,255,0)}.f7{stroke:none;fill:rgb(255,255,0)}.sh7{fill:none;stroke:url(#h7)}.fh7{stroke:none;fill:url(#h7)}.sv7{fill:none;stroke:url(#v7)}.fv7{stroke:none;fill:url(#v7)}/*]]>*/</style><defs><linearGradient gradientTransform="rotate(90)" id="hs"><stop offset="20%" stop-color="#000" /><stop offset="95%" stop-color="rgba(0, 0, 0, 0)" /></linearGradient><linearGradient id="vs"><stop offset="20%" stop-color="#000" /><stop offset="95%" stop-color="rgba(0, 0, 0, 0)" /></linearGradient><linearGradient gradientTransform="rotate(90)" id="h1"><stop offset="20%" stop-color="rgba(50,147,111,1)" /><stop offset="95%" stop-color="rgba(50,147,111,0)" /></linearGradient><linearGradient id="v1"><stop offset="20%" stop-color="rgba(50,147,111,1)" /><stop offset="95%" stop-color="rgba(50,147,111,0)" /></linearGradient><linearGradient gradientTransform="rotate(90)" id="h2"><stop offset="20%" stop-color="rgba(255,191,0,1)" /><stop offset="95%" stop-color="rgba(255,191,0,0)" /></linearGradient><linearGradient id="v2"><stop offset="20%" stop-color="rgba(255,191,0,1)" /><stop offset="95%" stop-color="rgba(255,191,0,0)" /></linearGradient><linearGradient gradientTransform="rotate(90)" id="h3"><stop offset="20%" stop-color="rgba(255,255,255,1)" /><stop offset="95%" stop-color="rgba(255,255,255,0)" /></linearGradient><linearGradient id="v3"><stop offset="20%" stop-color="rgba(255,255,255,1)" /><stop offset="95%" stop-color="rgba(255,255,255,0)" /></linearGradient><linearGradient gradientTransform="rotate(90)" id="h4"><stop offset="20%" stop-color="rgba(232,63,111,1)" /><stop offset="95%" stop-color="rgba(232,63,111,0)" /></linearGradient><linearGradient id="v4"><stop offset="20%" stop-color="rgba(232,63,111,1)" /><stop offset="95%" stop-color="rgba(232,63,111,0)" /></linearGradient><linearGradient gradientTransform="rotate(90)" id="h5"><stop offset="20%" stop-color="rgba(34,116,165,1)" /><stop offset="95%" stop-color="rgba(34,116,165,0)" /></linearGradient><linearGradient id="v5"><stop offset="20%" stop-color="rgba(34,116,165,1)" /><stop offset="95%" stop-color="rgba(34,116,165,0)" /></linearGradient><linearGradient gradientTransform="rotate(90)" id="h6"><stop offset="20%" stop-color="rgba(255,255,255,1)" /><stop offset="95%" stop-color="rgba(255,255,255,0)" /></linearGradient><linearGradient id="v6"><stop offset="20%" stop-color="rgba(255,255,255,1)" /><stop offset="95%" stop-color="rgba(255,255,255,0)" /></linearGradient><linearGradient gradientTransform="rotate(90)" id="h7"><stop offset="20%" stop-color="rgba(255,255,0,1)" /><stop offset="95%" stop-color="rgba(255,255,0,0)" /></linearGradient><linearGradient id="v7"><stop offset="20%" stop-color="rgba(255,255,0,1)" /><stop offset="95%" stop-color="rgba(255,255,0,0)" /></linearGradient></defs><g transform-origin="1500 1500" transform="scale(2)" opacity=".8"><g id="slashes"><g class="o"><path transform="translate(9,18)" class="S sf" d="M1086 991 L1335 742 L1335 782 L1086 1031 Z"/><path class="f3" d="M1086 991 L1335 742 L1335 782 L1086 1031 Z" /></g><g class="o"><path transform="translate(6,12)" class="S ss" d="M1146 1068 L1233 981 L1345 981 L1258 1068 Z"/><path class="s6" d="M1146 1068 L1233 981 L1345 981 L1258 1068 Z" /></g><g class="o"><path transform="translate(3,6)" class="S sf" d="M1799 1565 L1709 1655 L1709 1703 L1799 1613 Z"/><path class="f5" d="M1799 1565 L1709 1655 L1709 1703 L1799 1613 Z" /></g><g class="o"><path transform="translate(2,4)" class="S sf" d="M1830 1645 L1899 1714 L1933 1714 L1864 1645 Z"/><path class="f1" d="M1830 1645 L1899 1714 L1933 1714 L1864 1645 Z" /></g><g class="o"><path transform="translate(2,4)" class="S ss" d="M1342 961 L1429 1048 L1453 1048 L1366 961 Z"/><path class="s7" d="M1342 961 L1429 1048 L1453 1048 L1366 961 Z" /></g><g class="o"><path transform="translate(5,10)" class="S sf" d="M1886 1040 L1675 1251 L1675 1395 L1886 1184 Z"/><path class="f2" d="M1886 1040 L1675 1251 L1675 1395 L1886 1184 Z" /></g><g class="o"><path transform="translate(7,14)" class="S ss" d="M1888 1637 L1687 1436 L1751 1436 L1952 1637 Z"/><path class="s5" d="M1888 1637 L1687 1436 L1751 1436 L1952 1637 Z" /></g><g class="o"><path transform="translate(6,12)" class="S ss" d="M1880 1087 L1931 1036 L1931 1046 L1880 1097 Z"/><path class="s5" d="M1880 1087 L1931 1036 L1931 1046 L1880 1097 Z" /></g><g class="o"><path transform="translate(6,12)" class="S sf" d="M1577 1162 L1347 1392 L1361 1392 L1591 1162 Z"/><path class="f1" d="M1577 1162 L1347 1392 L1361 1392 L1591 1162 Z" /></g><g class="o"><path transform="translate(7,14)" class="S sf" d="M1538 1655 L1298 1415 L1394 1415 L1634 1655 Z"/><path class="f1" d="M1538 1655 L1298 1415 L1394 1415 L1634 1655 Z" /></g><g class="o"><path transform="translate(6,12)" class="S ss" d="M1152 979 L986 813 L1000 813 L1166 979 Z"/><path class="s1" d="M1152 979 L986 813 L1000 813 L1166 979 Z" /></g><g class="o"><path transform="translate(2,4)" class="S sf" d="M1072 1474 L1000 1402 L1000 1422 L1072 1494 Z"/><path class="f3" d="M1072 1474 L1000 1402 L1000 1422 L1072 1494 Z" /></g><g class="o"><path transform="translate(8,16)" class="S sf" d="M1346 1762 L1271 1837 L1299 1837 L1374 1762 Z"/><path class="f6" d="M1346 1762 L1271 1837 L1299 1837 L1374 1762 Z" /></g><g class="o"><path transform="translate(8,16)" class="S sf" d="M1221 1036 L1314 1129 L1314 1217 L1221 1124 Z"/><path class="f2" d="M1221 1036 L1314 1129 L1314 1217 L1221 1124 Z" /></g><g class="o"><path transform="translate(2,4)" class="S sf" d="M1478 966 L1387 875 L1387 905 L1478 996 Z"/><path class="f1" d="M1478 966 L1387 875 L1387 905 L1478 996 Z" /></g><g class="o"><path transform="translate(6,12)" class="S sf" d="M2034 987 L1791 1230 L1791 1270 L2034 1027 Z"/><path class="f4" d="M2034 987 L1791 1230 L1791 1270 L2034 1027 Z" /></g><g class="o"><path transform="translate(9,18)" class="S sf" d="M1890 1044 L1811 1123 L1837 1123 L1916 1044 Z"/><path class="f1" d="M1890 1044 L1811 1123 L1837 1123 L1916 1044 Z" /></g><g class="o"><path transform="translate(2,4)" class="S sf" d="M1884 1073 L2087 870 L2119 870 L1916 1073 Z"/><path class="f5" d="M1884 1073 L2087 870 L2119 870 L1916 1073 Z" /></g><g class="o"><path transform="translate(7,14)" class="S ss" d="M1546 1360 L1786 1120 L1806 1120 L1566 1360 Z"/><path class="s6" d="M1546 1360 L1786 1120 L1806 1120 L1566 1360 Z" /></g><g class="o"><path transform="translate(9,18)" class="S sf" d="M1879 1912 L2560 2593 L2560 2673 L1879 1992 Z"/><path class="f5" d="M1879 1912 L2560 2593 L2560 2673 L1879 1992 Z" /></g><g class="o"><path transform="translate(2,4)" class="S sf" d="M1557 2029 L1356 2230 L1366 2230 L1567 2029 Z"/><path class="f6" d="M1557 2029 L1356 2230 L1366 2230 L1567 2029 Z" /></g><g class="o"><path transform="translate(4,8)" class="S sf" d="M1410 1068 L1465 1013 L1465 1023 L1410 1078 Z"/><path class="f3" d="M1410 1068 L1465 1013 L1465 1023 L1410 1078 Z" /></g><g class="o"><path transform="translate(2,4)" class="S sf" d="M1433 1547 L1593 1707 L1665 1707 L1505 1547 Z"/><path class="f6" d="M1433 1547 L1593 1707 L1665 1707 L1505 1547 Z" /></g><g class="o"><path transform="translate(4,8)" class="S sf" d="M1369 1163 L1168 962 L1168 992 L1369 1193 Z"/><path class="f6" d="M1369 1163 L1168 962 L1168 992 L1369 1193 Z" /></g><g class="o"><path transform="translate(9,18)" class="S sf" d="M1875 1515 L1933 1573 L1965 1573 L1907 1515 Z"/><path class="f7" d="M1875 1515 L1933 1573 L1965 1573 L1907 1515 Z" /></g><g class="o"><path transform="translate(2,4)" class="S sf" d="M1135 1785 L979 1629 L993 1629 L1149 1785 Z"/><path class="f5" d="M1135 1785 L979 1629 L993 1629 L1149 1785 Z" /></g><g class="o"><path transform="translate(3,6)" class="S sf" d="M1665 1482 L1502 1645 L1538 1645 L1701 1482 Z"/><path class="f3" d="M1665 1482 L1502 1645 L1538 1645 L1701 1482 Z" /></g><g class="o"><path transform="translate(2,4)" class="S sf" d="M1884 1919 L1608 1643 L1618 1643 L1894 1919 Z"/><path class="f1" d="M1884 1919 L1608 1643 L1618 1643 L1894 1919 Z" /></g><g class="o"><path transform="translate(7,14)" class="S sf" d="M1496 1204 L1350 1350 L1360 1350 L1506 1204 Z"/><path class="f7" d="M1496 1204 L1350 1350 L1360 1350 L1506 1204 Z" /></g><g class="o"><path transform="translate(2,4)" class="S ss" d="M1060 1797 L908 1645 L936 1645 L1088 1797 Z"/><path class="s6" d="M1060 1797 L908 1645 L936 1645 L1088 1797 Z" /></g><g class="o"><path transform="translate(6,12)" class="S sf" d="M1540 1402 L1240 1102 L1392 1102 L1692 1402 Z"/><path class="f2" d="M1540 1402 L1240 1102 L1392 1102 L1692 1402 Z" /></g><g class="o"><path transform="translate(2,4)" class="S sf" d="M1273 980 L1371 1078 L1399 1078 L1301 980 Z"/><path class="f4" d="M1273 980 L1371 1078 L1399 1078 L1301 980 Z" /></g><g class="o"><path transform="translate(8,16)" class="S sf" d="M1095 1050 L1328 1283 L1432 1283 L1199 1050 Z"/><path class="f7" d="M1095 1050 L1328 1283 L1432 1283 L1199 1050 Z" /></g><g class="o"><path transform="translate(4,8)" class="S ss" d="M1478 1167 L1295 984 L1295 1022 L1478 1205 Z"/><path class="s1" d="M1478 1167 L1295 984 L1295 1022 L1478 1205 Z" /></g><g class="o"><path transform="translate(3,6)" class="S sf" d="M1009 992 L778 761 L850 761 L1081 992 Z"/><path class="f6" d="M1009 992 L778 761 L850 761 L1081 992 Z" /></g><g class="o"><path transform="translate(4,8)" class="S sf" d="M1040 1314 L1190 1164 L1214 1164 L1064 1314 Z"/><path class="f4" d="M1040 1314 L1190 1164 L1214 1164 L1064 1314 Z" /></g><g class="o"><path transform="translate(3,6)" class="S sf" d="M970 1640 L754 1424 L772 1424 L988 1640 Z"/><path class="f2" d="M970 1640 L754 1424 L772 1424 L988 1640 Z" /></g><g class="o"><path transform="translate(6,12)" class="S sf" d="M1681 1067 L1807 1193 L1855 1193 L1729 1067 Z"/><path class="f1" d="M1681 1067 L1807 1193 L1855 1193 L1729 1067 Z" /></g><g class="o"><path transform="translate(2,4)" class="S sf" d="M1190 2021 L965 1796 L1061 1796 L1286 2021 Z"/><path class="f5" d="M1190 2021 L965 1796 L1061 1796 L1286 2021 Z" /></g><g class="o"><path transform="translate(3,6)" class="S sf" d="M1740 1206 L1797 1149 L1833 1149 L1776 1206 Z"/><path class="f3" d="M1740 1206 L1797 1149 L1833 1149 L1776 1206 Z" /></g><g class="o"><path transform="translate(9,18)" class="S ss" d="M1549 1225 L1308 1466 L1308 1492 L1549 1251 Z"/><path class="s4" d="M1549 1225 L1308 1466 L1308 1492 L1549 1251 Z" /></g><g class="o"><path transform="translate(3,6)" class="S sf" d="M1370 1016 L1221 867 L1221 877 L1370 1026 Z"/><path class="f7" d="M1370 1016 L1221 867 L1221 877 L1370 1026 Z" /></g><g class="o"><path transform="translate(7,14)" class="S sf" d="M1611 1126 L1506 1231 L1506 1241 L1611 1136 Z"/><path class="f6" d="M1611 1126 L1506 1231 L1506 1241 L1611 1136 Z" /></g><g class="o"><path transform="translate(6,12)" class="S sf" d="M1046 1006 L1199 1159 L1199 1231 L1046 1078 Z"/><path class="f4" d="M1046 1006 L1199 1159 L1199 1231 L1046 1078 Z" /></g><g class="o"><path transform="translate(6,12)" class="S sf" d="M980 1204 L1227 1451 L1323 1451 L1076 1204 Z"/><path class="f1" d="M980 1204 L1227 1451 L1323 1451 L1076 1204 Z" /></g><g class="o"><path transform="translate(9,18)" class="S sf" d="M1639 1456 L1759 1336 L1759 1346 L1639 1466 Z"/><path class="f7" d="M1639 1456 L1759 1336 L1759 1346 L1639 1466 Z" /></g><g class="o"><path transform="translate(3,6)" class="S sf" d="M2043 973 L1806 736 L1806 776 L2043 1013 Z"/><path class="f1" d="M2043 973 L1806 736 L1806 776 L2043 1013 Z" /></g><g class="o"><path transform="translate(9,18)" class="S sf" d="M1830 1672 L2262 2104 L2274 2104 L1842 1672 Z"/><path class="f5" d="M1830 1672 L2262 2104 L2274 2104 L1842 1672 Z" /></g><g class="o"><path transform="translate(4,8)" class="S sf" d="M1376 1077 L1494 959 L1558 959 L1440 1077 Z"/><path class="f7" d="M1376 1077 L1494 959 L1558 959 L1440 1077 Z" /></g><g class="o"><path transform="translate(4,8)" class="S sf" d="M1249 1954 L1433 1770 L1561 1770 L1377 1954 Z"/><path class="f7" d="M1249 1954 L1433 1770 L1561 1770 L1377 1954 Z" /></g><g class="o"><path transform="translate(5,10)" class="S sf" d="M1104 1093 L1173 1162 L1209 1162 L1140 1093 Z"/><path class="f2" d="M1104 1093 L1173 1162 L1209 1162 L1140 1093 Z" /></g><g class="o"><path transform="translate(7,14)" class="S ss" d="M1885 1417 L2194 1726 L2194 1742 L1885 1433 Z"/><path class="s5" d="M1885 1417 L2194 1726 L2194 1742 L1885 1433 Z" /></g><g class="o"><path transform="translate(7,14)" class="S sf" d="M1267 2034 L1921 1380 L1949 1380 L1295 2034 Z"/><path class="f4" d="M1267 2034 L1921 1380 L1949 1380 L1295 2034 Z" /></g><g class="o"><path transform="translate(4,8)" class="S sf" d="M1494 1899 L1275 1680 L1379 1680 L1598 1899 Z"/><path class="f4" d="M1494 1899 L1275 1680 L1379 1680 L1598 1899 Z" /></g><g class="o"><path transform="translate(8,16)" class="S ss" d="M1678 1841 L1750 1769 L1750 1797 L1678 1869 Z"/><path class="s7" d="M1678 1841 L1750 1769 L1750 1797 L1678 1869 Z" /></g><g class="o"><path transform="translate(8,16)" class="S sf" d="M959 1613 L731 1841 L759 1841 L987 1613 Z"/><path class="f4" d="M959 1613 L731 1841 L759 1841 L987 1613 Z" /></g><g class="o"><path transform="translate(5,10)" class="S sf" d="M1518 1676 L1374 1820 L1374 1956 L1518 1812 Z"/><path class="f2" d="M1518 1676 L1374 1820 L1374 1956 L1518 1812 Z" /></g><g class="o"><path transform="translate(9,18)" class="S sf" d="M1861 995 L1659 793 L1669 793 L1871 995 Z"/><path class="f3" d="M1861 995 L1659 793 L1669 793 L1871 995 Z" /></g><g class="o"><path transform="translate(5,10)" class="S ss" d="M1684 1681 L1591 1588 L1655 1588 L1748 1681 Z"/><path class="s2" d="M1684 1681 L1591 1588 L1655 1588 L1748 1681 Z" /></g><g class="o"><path transform="translate(5,10)" class="S ss" d="M1330 1324 L1421 1415 L1421 1451 L1330 1360 Z"/><path class="s3" d="M1330 1324 L1421 1415 L1421 1451 L1330 1360 Z" /></g><g class="o"><path transform="translate(9,18)" class="S sf" d="M1669 1634 L1785 1750 L1929 1750 L1813 1634 Z"/><path class="f3" d="M1669 1634 L1785 1750 L1929 1750 L1813 1634 Z" /></g><g class="o"><path transform="translate(7,14)" class="S sf" d="M1311 1094 L1376 1159 L1376 1223 L1311 1158 Z"/><path class="f6" d="M1311 1094 L1376 1159 L1376 1223 L1311 1158 Z" /></g><g class="o"><path transform="translate(7,14)" class="S sf" d="M1551 1782 L1380 1611 L1380 1621 L1551 1792 Z"/><path class="f2" d="M1551 1782 L1380 1611 L1380 1621 L1551 1792 Z" /></g><g class="o"><path transform="translate(6,12)" class="S sf" d="M1884 1627 L1957 1554 L2061 1554 L1988 1627 Z"/><path class="f2" d="M1884 1627 L1957 1554 L2061 1554 L1988 1627 Z" /></g><g class="o"><path transform="translate(8,16)" class="S sf" d="M1947 1819 L2691 1075 L2691 1115 L1947 1859 Z"/><path class="f7" d="M1947 1819 L2691 1075 L2691 1115 L1947 1859 Z" /></g><g class="o"><path transform="translate(4,8)" class="S sf" d="M1326 1455 L1086 1695 L1122 1695 L1362 1455 Z"/><path class="f1" d="M1326 1455 L1086 1695 L1122 1695 L1362 1455 Z" /></g><g class="o"><path transform="translate(2,4)" class="S sf" d="M1254 1270 L1387 1403 L1387 1439 L1254 1306 Z"/><path class="f6" d="M1254 1270 L1387 1403 L1387 1439 L1254 1306 Z" /></g><g class="o"><path transform="translate(6,12)" class="S sf" d="M1963 1200 L1252 489 L1266 489 L1977 1200 Z"/><path class="f1" d="M1963 1200 L1252 489 L1266 489 L1977 1200 Z" /></g><g class="o"><path transform="translate(5,10)" class="S sf" d="M1322 1493 L1478 1337 L1478 1425 L1322 1581 Z"/><path class="f5" d="M1322 1493 L1478 1337 L1478 1425 L1322 1581 Z" /></g><g class="o"><path transform="translate(3,6)" class="S sf" d="M1950 1993 L1674 2269 L1714 2269 L1990 1993 Z"/><path class="f5" d="M1950 1993 L1674 2269 L1714 2269 L1990 1993 Z" /></g><g class="o"><path transform="translate(7,14)" class="S sf" d="M1908 1743 L2066 1585 L2102 1585 L1944 1743 Z"/><path class="f6" d="M1908 1743 L2066 1585 L2102 1585 L1944 1743 Z" /></g><g class="o"><path transform="translate(5,10)" class="S ss" d="M1391 1402 L1153 1164 L1153 1196 L1391 1434 Z"/><path class="s6" d="M1391 1402 L1153 1164 L1153 1196 L1391 1434 Z" /></g><g class="o"><path transform="translate(5,10)" class="S sf" d="M1953 1662 L2184 1893 L2200 1893 L1969 1662 Z"/><path class="f2" d="M1953 1662 L2184 1893 L2200 1893 L1969 1662 Z" /></g><g class="o"><path transform="translate(7,14)" class="S sf" d="M2001 1211 L1761 1451 L1801 1451 L2041 1211 Z"/><path class="f1" d="M2001 1211 L1761 1451 L1801 1451 L2041 1211 Z" /></g><g class="o"><path transform="translate(3,6)" class="S sf" d="M1111 1317 L1341 1087 L1389 1087 L1159 1317 Z"/><path class="f4" d="M1111 1317 L1341 1087 L1389 1087 L1159 1317 Z" /></g><g class="o"><path transform="translate(4,8)" class="S sf" d="M1580 2008 L1362 2226 L1362 2238 L1580 2020 Z"/><path class="f2" d="M1580 2008 L1362 2226 L1362 2238 L1580 2020 Z" /></g><g class="o"><path transform="translate(5,10)" class="S sf" d="M1665 1585 L1815 1735 L1959 1735 L1809 1585 Z"/><path class="f3" d="M1665 1585 L1815 1735 L1959 1735 L1809 1585 Z" /></g><g class="o"><path transform="translate(7,14)" class="S ss" d="M1734 1867 L1922 1679 L1922 1715 L1734 1903 Z"/><path class="s6" d="M1734 1867 L1922 1679 L1922 1715 L1734 1903 Z" /></g><g class="o"><path transform="translate(4,8)" class="S sf" d="M1018 1503 L876 1361 L908 1361 L1050 1503 Z"/><path class="f6" d="M1018 1503 L876 1361 L908 1361 L1050 1503 Z" /></g><g class="o"><path transform="translate(8,16)" class="S sf" d="M1054 1006 L1291 1243 L1291 1251 L1054 1014 Z"/><path class="f3" d="M1054 1006 L1291 1243 L1291 1251 L1054 1014 Z" /></g><g class="o"><path transform="translate(7,14)" class="S sf" d="M1403 1122 L1271 990 L1271 1022 L1403 1154 Z"/><path class="f3" d="M1403 1122 L1271 990 L1271 1022 L1403 1154 Z" /></g><g class="o"><path transform="translate(3,6)" class="S ss" d="M1641 1069 L2103 1531 L2223 1531 L1761 1069 Z"/><path class="s2" d="M1641 1069 L2103 1531 L2223 1531 L1761 1069 Z" /></g><g class="o"><path transform="translate(5,10)" class="S ss" d="M1305 1849 L1515 1639 L1515 1655 L1305 1865 Z"/><path class="s7" d="M1305 1849 L1515 1639 L1515 1655 L1305 1865 Z" /></g><g class="o"><path transform="translate(4,8)" class="S sf" d="M1233 1395 L531 693 L531 701 L1233 1403 Z"/><path class="f2" d="M1233 1395 L531 693 L531 701 L1233 1403 Z" /></g><g class="o"><path transform="translate(9,18)" class="S sf" d="M1631 1266 L1495 1402 L1495 1442 L1631 1306 Z"/><path class="f7" d="M1631 1266 L1495 1402 L1495 1442 L1631 1306 Z" /></g><g class="o"><path transform="translate(7,14)" class="S sf" d="M1799 1465 L1550 1714 L1550 1744 L1799 1495 Z"/><path class="f4" d="M1799 1465 L1550 1714 L1550 1744 L1799 1495 Z" /></g><g class="o"><path transform="translate(5,10)" class="S sf" d="M1389 1129 L1463 1203 L1463 1233 L1389 1159 Z"/><path class="f7" d="M1389 1129 L1463 1203 L1463 1233 L1389 1159 Z" /></g><g class="o"><path transform="translate(5,10)" class="S ss" d="M1966 1327 L2073 1220 L2073 1300 L1966 1407 Z"/><path class="s5" d="M1966 1327 L2073 1220 L2073 1300 L1966 1407 Z" /></g><g class="o"><path transform="translate(2,4)" class="S sf" d="M1050 1584 L1188 1722 L1210 1722 L1072 1584 Z"/><path class="f2" d="M1050 1584 L1188 1722 L1210 1722 L1072 1584 Z" /></g><g class="o"><path transform="translate(5,10)" class="S sf" d="M1863 1677 L2034 1506 L2034 1554 L1863 1725 Z"/><path class="f3" d="M1863 1677 L2034 1506 L2034 1554 L1863 1725 Z" /></g><g class="o"><path transform="translate(9,18)" class="S sf" d="M1602 1319 L1480 1441 L1480 1513 L1602 1391 Z"/><path class="f3" d="M1602 1319 L1480 1441 L1480 1513 L1602 1391 Z" /></g><g class="o"><path transform="translate(2,4)" class="S sf" d="M1268 1229 L1343 1304 L1343 1330 L1268 1255 Z"/><path class="f2" d="M1268 1229 L1343 1304 L1343 1330 L1268 1255 Z" /></g><g class="o"><path transform="translate(5,10)" class="S ss" d="M1310 1604 L1465 1449 L1465 1471 L1310 1626 Z"/><path class="s6" d="M1310 1604 L1465 1449 L1465 1471 L1310 1626 Z" /></g><g class="o"><path transform="translate(2,4)" class="S ss" d="M996 956 L765 1187 L885 1187 L1116 956 Z"/><path class="s7" d="M996 956 L765 1187 L885 1187 L1116 956 Z" /></g><g class="o"><path transform="translate(6,12)" class="S sf" d="M1111 1719 L889 1497 L889 1533 L1111 1755 Z"/><path class="f6" d="M1111 1719 L889 1497 L889 1533 L1111 1755 Z" /></g><g class="o"><path transform="translate(9,18)" class="S sf" d="M1558 1836 L2158 2436 L2158 2464 L1558 1864 Z"/><path class="f7" d="M1558 1836 L2158 2436 L2158 2464 L1558 1864 Z" /></g><g class="o"><path transform="translate(7,14)" class="S sf" d="M1860 1850 L1191 1181 L1191 1213 L1860 1882 Z"/><path class="f5" d="M1860 1850 L1191 1181 L1191 1213 L1860 1882 Z" /></g><g class="o"><path transform="translate(7,14)" class="S sf" d="M1165 1104 L1852 1791 L1972 1791 L1285 1104 Z"/><path class="f5" d="M1165 1104 L1852 1791 L1972 1791 L1285 1104 Z" /></g><g class="o"><path transform="translate(6,12)" class="S sf" d="M1576 1292 L1709 1425 L1861 1425 L1728 1292 Z"/><path class="f5" d="M1576 1292 L1709 1425 L1861 1425 L1728 1292 Z" /></g><g class="o"><path transform="translate(2,4)" class="S sf" d="M1365 1393 L1950 808 L1970 808 L1385 1393 Z"/><path class="f4" d="M1365 1393 L1950 808 L1970 808 L1385 1393 Z" /></g><g class="o"><path transform="translate(4,8)" class="S sf" d="M1350 1497 L1938 2085 L2090 2085 L1502 1497 Z"/><path class="f3" d="M1350 1497 L1938 2085 L2090 2085 L1502 1497 Z" /></g><g class="o"><path transform="translate(8,16)" class="S sf" d="M1164 1340 L558 734 L558 854 L1164 1460 Z"/><path class="f5" d="M1164 1340 L558 734 L558 854 L1164 1460 Z" /></g><g class="o"><path transform="translate(9,18)" class="S ss" d="M1135 1558 L652 2041 L652 2081 L1135 1598 Z"/><path class="s6" d="M1135 1558 L652 2041 L652 2081 L1135 1598 Z" /></g><g class="o"><path transform="translate(4,8)" class="S sf" d="M1643 1127 L1445 1325 L1493 1325 L1691 1127 Z"/><path class="f5" d="M1643 1127 L1445 1325 L1493 1325 L1691 1127 Z" /></g><g class="o"><path transform="translate(7,14)" class="S sf" d="M1301 1119 L1503 1321 L1503 1335 L1301 1133 Z"/><path class="f3" d="M1301 1119 L1503 1321 L1503 1335 L1301 1133 Z" /></g><g class="o"><path transform="translate(5,10)" class="S sf" d="M1817 2020 L1722 2115 L1722 2125 L1817 2030 Z"/><path class="f6" d="M1817 2020 L1722 2115 L1722 2125 L1817 2030 Z" /></g><g class="o"><path transform="translate(2,4)" class="S sf" d="M1826 2027 L1659 1860 L1675 1860 L1842 2027 Z"/><path class="f2" d="M1826 2027 L1659 1860 L1675 1860 L1842 2027 Z" /></g><g class="o"><path transform="translate(6,12)" class="S sf" d="M1094 1453 L1040 1399 L1040 1535 L1094 1589 Z"/><path class="f1" d="M1094 1453 L1040 1399 L1040 1535 L1094 1589 Z" /></g><g class="o"><path transform="translate(7,14)" class="S sf" d="M1143 937 L903 697 L903 733 L1143 973 Z"/><path class="f1" d="M1143 937 L903 697 L903 733 L1143 973 Z" /></g><g class="o"><path transform="translate(8,16)" class="S ss" d="M1679 1552 L1611 1620 L1747 1620 L1815 1552 Z"/><path class="s4" d="M1679 1552 L1611 1620 L1747 1620 L1815 1552 Z" /></g><g class="o"><path transform="translate(6,12)" class="S sf" d="M956 1156 L725 1387 L739 1387 L970 1156 Z"/><path class="f7" d="M956 1156 L725 1387 L739 1387 L970 1156 Z" /></g><g class="o"><path transform="translate(9,18)" class="S sf" d="M961 1866 L895 1800 L895 1812 L961 1878 Z"/><path class="f6" d="M961 1866 L895 1800 L895 1812 L961 1878 Z" /></g><g class="o"><path transform="translate(6,12)" class="S sf" d="M1626 1413 L1391 1648 L1527 1648 L1762 1413 Z"/><path class="f7" d="M1626 1413 L1391 1648 L1527 1648 L1762 1413 Z" /></g><g class="o"><path transform="translate(3,6)" class="S sf" d="M1618 1750 L1770 1598 L1770 1610 L1618 1762 Z"/><path class="f4" d="M1618 1750 L1770 1598 L1770 1610 L1618 1762 Z" /></g><g class="o"><path transform="translate(7,14)" class="S sf" d="M1061 1268 L927 1402 L927 1434 L1061 1300 Z"/><path class="f1" d="M1061 1268 L927 1402 L927 1434 L1061 1300 Z" /></g><g class="o"><path transform="translate(6,12)" class="S sf" d="M1487 1394 L1401 1480 L1401 1490 L1487 1404 Z"/><path class="f6" d="M1487 1394 L1401 1480 L1401 1490 L1487 1404 Z" /></g><g class="o"><path transform="translate(5,10)" class="S sf" d="M1424 1775 L995 1346 L995 1378 L1424 1807 Z"/><path class="f4" d="M1424 1775 L995 1346 L995 1378 L1424 1807 Z" /></g><g class="o"><path transform="translate(2,4)" class="S sf" d="M1633 1263 L1426 1056 L1462 1056 L1669 1263 Z"/><path class="f3" d="M1633 1263 L1426 1056 L1462 1056 L1669 1263 Z" /></g><g class="o"><path transform="translate(4,8)" class="S sf" d="M1479 1485 L1251 1257 L1251 1293 L1479 1521 Z"/><path class="f1" d="M1479 1485 L1251 1257 L1251 1293 L1479 1521 Z" /></g><g class="o"><path transform="translate(2,4)" class="S sf" d="M1880 1191 L2100 971 L2100 1123 L1880 1343 Z"/><path class="f4" d="M1880 1191 L2100 971 L2100 1123 L1880 1343 Z" /></g><g class="o"><path transform="translate(7,14)" class="S sf" d="M1435 1295 L1324 1184 L1324 1264 L1435 1375 Z"/><path class="f1" d="M1435 1295 L1324 1184 L1324 1264 L1435 1375 Z" /></g><g class="o"><path transform="translate(4,8)" class="S sf" d="M1177 1313 L1372 1118 L1372 1158 L1177 1353 Z"/><path class="f3" d="M1177 1313 L1372 1118 L1372 1158 L1177 1353 Z" /></g><g class="o"><path transform="translate(7,14)" class="S sf" d="M1942 1234 L2041 1135 L2041 1153 L1942 1252 Z"/><path class="f2" d="M1942 1234 L2041 1135 L2041 1153 L1942 1252 Z" /></g><g class="o"><path transform="translate(7,14)" class="S sf" d="M1108 1406 L903 1611 L903 1649 L1108 1444 Z"/><path class="f6" d="M1108 1406 L903 1611 L903 1649 L1108 1444 Z" /></g><g class="o"><path transform="translate(4,8)" class="S ss" d="M1877 1241 L1777 1341 L1777 1351 L1877 1251 Z"/><path class="s4" d="M1877 1241 L1777 1341 L1777 1351 L1877 1251 Z" /></g><g class="o"><path transform="translate(9,18)" class="S sf" d="M2020 1989 L2151 1858 L2171 1858 L2040 1989 Z"/><path class="f4" d="M2020 1989 L2151 1858 L2171 1858 L2040 1989 Z" /></g><g class="o"><path transform="translate(6,12)" class="S sf" d="M2010 1002 L2198 814 L2198 910 L2010 1098 Z"/><path class="f3" d="M2010 1002 L2198 814 L2198 910 L2010 1098 Z" /></g><g class="o"><path transform="translate(9,18)" class="S sf" d="M2020 1727 L2254 1961 L2254 1995 L2020 1761 Z"/><path class="f3" d="M2020 1727 L2254 1961 L2254 1995 L2020 1761 Z" /></g><g class="o"><path transform="translate(9,18)" class="S ss" d="M1235 1868 L860 1493 L860 1525 L1235 1900 Z"/><path class="s7" d="M1235 1868 L860 1493 L860 1525 L1235 1900 Z" /></g><g class="o"><path transform="translate(6,12)" class="S sf" d="M1823 1087 L1893 1017 L1893 1031 L1823 1101 Z"/><path class="f2" d="M1823 1087 L1893 1017 L1893 1031 L1823 1101 Z" /></g></g><use href="#slashes" transform-origin="1500 1500" transform="rotate(180) scale(2)"/></g><rect x="1080" y="1080" width="840" height="840" stroke-width="20" class="o s5" /><use href="#slashes" transform-origin="1500 1500" transform="scale(.7)"/><use href="#slashes" transform-origin="1500 1500" transform="rotate(180) scale(.3)"/></svg>