<svg xmlns="http://www.w3.org/2000/svg" viewBox="750 750 1500 1500"><style>/*<![CDATA[*/svg{background:rgb(14,173,105);max-width:100vw;max-height:100vh}path{stroke-width:4}.o{opacity:.75}.S{opacity:.4}.sf{stroke:none;fill:black}.sfh{stroke:none;fill:url(#hs)}.sfv{stroke:none;fill:url(#vs)}.ss{stroke:black;fill:none}.ssh{stroke:url(#hs);fill:none}.ssv{stroke:url(#vs);fill:none}.s1{fill:none;stroke:rgb(255,210,63)}.f1{stroke:none;fill:rgb(255,210,63)}.sh1{fill:none;stroke:url(#h1)}.fh1{stroke:none;fill:url(#h1)}.sv1{fill:none;stroke:url(#v1)}.fv1{stroke:none;fill:url(#v1)}.s2{fill:none;stroke:rgb(84,13,110)}.f2{stroke:none;fill:rgb(84,13,110)}.sh2{fill:none;stroke:url(#h2)}.fh2{stroke:none;fill:url(#h2)}.sv2{fill:none;stroke:url(#v2)}.fv2{stroke:none;fill:url(#v2)}.s3{fill:none;stroke:rgb(59,206,172)}.f3{stroke:none;fill:rgb(59,206,172)}.sh3{fill:none;stroke:url(#h3)}.fh3{stroke:none;fill:url(#h3)}.sv3{fill:none;stroke:url(#v3)}.fv3{stroke:none;fill:url(#v3)}.s4{fill:none;stroke:rgb(238,66,102)}.f4{stroke:none;fill:rgb(238,66,102)}.sh4{fill:none;stroke:url(#h4)}.fh4{stroke:none;fill:url(#h4)}.sv4{fill:none;stroke:url(#v4)}.fv4{stroke:none;fill:url(#v4)}.s5{fill:none;stroke:rgb(34,34,34)}.f5{stroke:none;fill:rgb(34,34,34)}.sh5{fill:none;stroke:url(#h5)}.fh5{stroke:none;fill:url(#h5)}.sv5{fill:none;stroke:url(#v5)}.fv5{stroke:none;fill:url(#v5)}.s6{fill:none;stroke:rgb(255,255,255)}.f6{stroke:none;fill:rgb(255,255,255)}.sh6{fill:none;stroke:url(#h6)}.fh6{stroke:none;fill:url(#h6)}.sv6{fill:none;stroke:url(#v6)}.fv6{stroke:none;fill:url(#v6)}.s7{fill:none;stroke:rgb(255,0,0)}.f7{stroke:none;fill:rgb(255,0,0)}.sh7{fill:none;stroke:url(#h7)}.fh7{stroke:none;fill:url(#h7)}.sv7{fill:none;stroke:url(#v7)}.fv7{stroke:none;fill:url(#v7)}/*]]>*/</style><defs><linearGradient gradientTransform="rotate(90)" id="hs"><stop offset="20%" stop-color="#000" /><stop offset="95%" stop-color="rgba(0, 0, 0, 0)" /></linearGradient><linearGradient id="vs"><stop offset="20%" stop-color="#000" /><stop offset="95%" stop-color="rgba(0, 0, 0, 0)" /></linearGradient><linearGradient gradientTransform="rotate(90)" id="h1"><stop offset="20%" stop-color="rgba(255,210,63,1)" /><stop offset="95%" stop-color="rgba(255,210,63,0)" /></linearGradient><linearGradient id="v1"><stop offset="20%" stop-color="rgba(255,210,63,1)" /><stop offset="95%" stop-color="rgba(255,210,63,0)" /></linearGradient><linearGradient gradientTransform="rotate(90)" id="h2"><stop offset="20%" stop-color="rgba(84,13,110,1)" /><stop offset="95%" stop-color="rgba(84,13,110,0)" /></linearGradient><linearGradient id="v2"><stop offset="20%" stop-color="rgba(84,13,110,1)" /><stop offset="95%" stop-color="rgba(84,13,110,0)" /></linearGradient><linearGradient gradientTransform="rotate(90)" id="h3"><stop offset="20%" stop-color="rgba(59,206,172,1)" /><stop offset="95%" stop-color="rgba(59,206,172,0)" /></linearGradient><linearGradient id="v3"><stop offset="20%" stop-color="rgba(59,206,172,1)" /><stop offset="95%" stop-color="rgba(59,206,172,0)" /></linearGradient><linearGradient gradientTransform="rotate(90)" id="h4"><stop offset="20%" stop-color="rgba(238,66,102,1)" /><stop offset="95%" stop-color="rgba(238,66,102,0)" /></linearGradient><linearGradient id="v4"><stop offset="20%" stop-color="rgba(238,66,102,1)" /><stop offset="95%" stop-color="rgba(238,66,102,0)" /></linearGradient><linearGradient gradientTransform="rotate(90)" id="h5"><stop offset="20%" stop-color="rgba(34,34,34,1)" /><stop offset="95%" stop-color="rgba(34,34,34,0)" /></linearGradient><linearGradient id="v5"><stop offset="20%" stop-color="rgba(34,34,34,1)" /><stop offset="95%" stop-color="rgba(34,34,34,0)" /></linearGradient><linearGradient gradientTransform="rotate(90)" id="h6"><stop offset="20%" stop-color="rgba(255,255,255,1)" /><stop offset="95%" stop-color="rgba(255,255,255,0)" /></linearGradient><linearGradient id="v6"><stop offset="20%" stop-color="rgba(255,255,255,1)" /><stop offset="95%" stop-color="rgba(255,255,255,0)" /></linearGradient><linearGradient gradientTransform="rotate(90)" id="h7"><stop offset="20%" stop-color="rgba(255,0,0,1)" /><stop offset="95%" stop-color="rgba(255,0,0,0)" /></linearGradient><linearGradient id="v7"><stop offset="20%" stop-color="rgba(255,0,0,1)" /><stop offset="95%" stop-color="rgba(255,0,0,0)" /></linearGradient></defs><g transform-origin="1500 1500" transform="scale(2)" opacity=".2"><g id="slashes"><g class="o"><path transform="translate(8,16)" class="S sfh" d="M1937 1370 L2022 1285 L2050 1285 L1965 1370 Z"/><path class="fh1" d="M1937 1370 L2022 1285 L2050 1285 L1965 1370 Z" /></g><g class="o"><path transform="translate(4,8)" class="S sfv" d="M1594 1819 L2035 1378 L2035 1392 L1594 1833 Z"/><path class="fv2" d="M1594 1819 L2035 1378 L2035 1392 L1594 1833 Z" /></g><g class="o"><path transform="translate(3,6)" class="S sfh" d="M1016 1894 L755 2155 L767 2155 L1028 1894 Z"/><path class="fh7" d="M1016 1894 L755 2155 L767 2155 L1028 1894 Z" /></g><g class="o"><path transform="translate(4,8)" class="S sfh" d="M1720 1801 L1522 1999 L1546 1999 L1744 1801 Z"/><path class="fh7" d="M1720 1801 L1522 1999 L1546 1999 L1744 1801 Z" /></g><g class="o"><path transform="translate(7,14)" class="S sfv" d="M1320 1114 L1071 865 L1071 893 L1320 1142 Z"/><path class="fv6" d="M1320 1114 L1071 865 L1071 893 L1320 1142 Z" /></g><g class="o"><path transform="translate(6,12)" class="S ss" d="M1461 1005 L1590 876 L1614 876 L1485 1005 Z"/><path class="s3" d="M1461 1005 L1590 876 L1614 876 L1485 1005 Z" /></g><g class="o"><path transform="translate(4,8)" class="S sfv" d="M1563 1186 L1643 1266 L1643 1288 L1563 1208 Z"/><path class="fv4" d="M1563 1186 L1643 1266 L1643 1288 L1563 1208 Z" /></g><g class="o"><path transform="translate(7,14)" class="S ssv" d="M1862 954 L1685 1131 L1685 1163 L1862 986 Z"/><path class="sv5" d="M1862 954 L1685 1131 L1685 1163 L1862 986 Z" /></g><g class="o"><path transform="translate(9,18)" class="S sf" d="M1668 1427 L1439 1656 L1439 1680 L1668 1451 Z"/><path class="f1" d="M1668 1427 L1439 1656 L1439 1680 L1668 1451 Z" /></g><g class="o"><path transform="translate(3,6)" class="S sfv" d="M1892 1203 L1970 1125 L1970 1163 L1892 1241 Z"/><path class="fv1" d="M1892 1203 L1970 1125 L1970 1163 L1892 1241 Z" /></g><g class="o"><path transform="translate(7,14)" class="S sf" d="M964 1310 L1153 1121 L1153 1131 L964 1320 Z"/><path class="f1" d="M964 1310 L1153 1121 L1153 1131 L964 1320 Z" /></g><g class="o"><path transform="translate(4,8)" class="S sfv" d="M1419 1536 L699 2256 L699 2274 L1419 1554 Z"/><path class="fv5" d="M1419 1536 L699 2256 L699 2274 L1419 1554 Z" /></g><g class="o"><path transform="translate(9,18)" class="S sfv" d="M1204 1721 L1320 1837 L1320 1869 L1204 1753 Z"/><path class="fv7" d="M1204 1721 L1320 1837 L1320 1869 L1204 1753 Z" /></g><g class="o"><path transform="translate(9,18)" class="S sfh" d="M1439 1732 L1262 1909 L1272 1909 L1449 1732 Z"/><path class="fh4" d="M1439 1732 L1262 1909 L1272 1909 L1449 1732 Z" /></g><g class="o"><path transform="translate(5,10)" class="S sfv" d="M993 2033 L921 1961 L921 1981 L993 2053 Z"/><path class="fv1" d="M993 2033 L921 1961 L921 1981 L993 2053 Z" /></g><g class="o"><path transform="translate(2,4)" class="S sf" d="M1504 1261 L1674 1431 L1674 1451 L1504 1281 Z"/><path class="f1" d="M1504 1261 L1674 1431 L1674 1451 L1504 1281 Z" /></g><g class="o"><path transform="translate(2,4)" class="S sfv" d="M1645 1083 L979 1749 L979 1783 L1645 1117 Z"/><path class="fv1" d="M1645 1083 L979 1749 L979 1783 L1645 1117 Z" /></g><g class="o"><path transform="translate(3,6)" class="S sfh" d="M1633 1346 L1436 1149 L1452 1149 L1649 1346 Z"/><path class="fh5" d="M1633 1346 L1436 1149 L1452 1149 L1649 1346 Z" /></g><g class="o"><path transform="translate(7,14)" class="S sf" d="M2031 1368 L2267 1132 L2267 1144 L2031 1380 Z"/><path class="f6" d="M2031 1368 L2267 1132 L2267 1144 L2031 1380 Z" /></g><g class="o"><path transform="translate(9,18)" class="S sf" d="M1344 1141 L1437 1048 L1445 1048 L1352 1141 Z"/><path class="f4" d="M1344 1141 L1437 1048 L1445 1048 L1352 1141 Z" /></g><g class="o"><path transform="translate(2,4)" class="S sf" d="M1705 1910 L1869 1746 L1869 1776 L1705 1940 Z"/><path class="f7" d="M1705 1910 L1869 1746 L1869 1776 L1705 1940 Z" /></g><g class="o"><path transform="translate(4,8)" class="S sfh" d="M1199 1411 L1307 1519 L1335 1519 L1227 1411 Z"/><path class="fh3" d="M1199 1411 L1307 1519 L1335 1519 L1227 1411 Z" /></g><g class="o"><path transform="translate(9,18)" class="S ssh" d="M2011 1418 L2240 1189 L2262 1189 L2033 1418 Z"/><path class="sh7" d="M2011 1418 L2240 1189 L2262 1189 L2033 1418 Z" /></g><g class="o"><path transform="translate(5,10)" class="S sfh" d="M1893 1245 L1696 1442 L1734 1442 L1931 1245 Z"/><path class="fh7" d="M1893 1245 L1696 1442 L1734 1442 L1931 1245 Z" /></g><g class="o"><path transform="translate(6,12)" class="S ss" d="M1129 1141 L1024 1246 L1050 1246 L1155 1141 Z"/><path class="s5" d="M1129 1141 L1024 1246 L1050 1246 L1155 1141 Z" /></g><g class="o"><path transform="translate(8,16)" class="S sfh" d="M1979 1692 L2675 996 L2709 996 L2013 1692 Z"/><path class="fh4" d="M1979 1692 L2675 996 L2709 996 L2013 1692 Z" /></g><g class="o"><path transform="translate(7,14)" class="S sfh" d="M1560 1152 L1436 1276 L1456 1276 L1580 1152 Z"/><path class="fh1" d="M1560 1152 L1436 1276 L1456 1276 L1580 1152 Z" /></g><g class="o"><path transform="translate(5,10)" class="S ss" d="M1269 1318 L1440 1489 L1468 1489 L1297 1318 Z"/><path class="s1" d="M1269 1318 L1440 1489 L1468 1489 L1297 1318 Z" /></g><g class="o"><path transform="translate(5,10)" class="S sfh" d="M1121 1951 L902 1732 L938 1732 L1157 1951 Z"/><path class="fh7" d="M1121 1951 L902 1732 L938 1732 L1157 1951 Z" /></g><g class="o"><path transform="translate(8,16)" class="S sf" d="M1904 1858 L2129 2083 L2129 2121 L1904 1896 Z"/><path class="f3" d="M1904 1858 L2129 2083 L2129 2121 L1904 1896 Z" /></g><g class="o"><path transform="translate(6,12)" class="S ssh" d="M944 2015 L839 1910 L863 1910 L968 2015 Z"/><path class="sh6" d="M944 2015 L839 1910 L863 1910 L968 2015 Z" /></g><g class="o"><path transform="translate(9,18)" class="S sfh" d="M1596 1155 L1451 1300 L1473 1300 L1618 1155 Z"/><path class="fh3" d="M1596 1155 L1451 1300 L1473 1300 L1618 1155 Z" /></g><g class="o"><path transform="translate(6,12)" class="S ssh" d="M1317 1379 L1111 1173 L1121 1173 L1327 1379 Z"/><path class="sh3" d="M1317 1379 L1111 1173 L1121 1173 L1327 1379 Z" /></g><g class="o"><path transform="translate(6,12)" class="S ssv" d="M987 1540 L1389 1138 L1389 1160 L987 1562 Z"/><path class="sv6" d="M987 1540 L1389 1138 L1389 1160 L987 1562 Z" /></g><g class="o"><path transform="translate(4,8)" class="S sf" d="M1715 1945 L1790 2020 L1812 2020 L1737 1945 Z"/><path class="f6" d="M1715 1945 L1790 2020 L1812 2020 L1737 1945 Z" /></g><g class="o"><path transform="translate(5,10)" class="S sfv" d="M1533 1115 L1693 955 L1693 983 L1533 1143 Z"/><path class="fv6" d="M1533 1115 L1693 955 L1693 983 L1533 1143 Z" /></g><g class="o"><path transform="translate(8,16)" class="S ssh" d="M1735 1663 L1811 1587 L1847 1587 L1771 1663 Z"/><path class="sh1" d="M1735 1663 L1811 1587 L1847 1587 L1771 1663 Z" /></g><g class="o"><path transform="translate(5,10)" class="S sfh" d="M1970 1289 L1864 1183 L1900 1183 L2006 1289 Z"/><path class="fh1" d="M1970 1289 L1864 1183 L1900 1183 L2006 1289 Z" /></g><g class="o"><path transform="translate(8,16)" class="S sfh" d="M968 1078 L1143 1253 L1175 1253 L1000 1078 Z"/><path class="fh7" d="M968 1078 L1143 1253 L1175 1253 L1000 1078 Z" /></g><g class="o"><path transform="translate(5,10)" class="S ssh" d="M1969 1502 L1875 1596 L1907 1596 L2001 1502 Z"/><path class="sh6" d="M1969 1502 L1875 1596 L1907 1596 L2001 1502 Z" /></g><g class="o"><path transform="translate(7,14)" class="S sfv" d="M1253 1392 L1362 1501 L1362 1517 L1253 1408 Z"/><path class="fv1" d="M1253 1392 L1362 1501 L1362 1517 L1253 1408 Z" /></g><g class="o"><path transform="translate(6,12)" class="S sfh" d="M1871 1410 L1794 1333 L1832 1333 L1909 1410 Z"/><path class="fh4" d="M1871 1410 L1794 1333 L1832 1333 L1909 1410 Z" /></g><g class="o"><path transform="translate(4,8)" class="S sf" d="M1795 1650 L1658 1513 L1666 1513 L1803 1650 Z"/><path class="f4" d="M1795 1650 L1658 1513 L1666 1513 L1803 1650 Z" /></g><g class="o"><path transform="translate(4,8)" class="S sfv" d="M1682 1795 L1097 2380 L1097 2390 L1682 1805 Z"/><path class="fv3" d="M1682 1795 L1097 2380 L1097 2390 L1682 1805 Z" /></g><g class="o"><path transform="translate(4,8)" class="S sf" d="M1399 1692 L1599 1492 L1599 1512 L1399 1712 Z"/><path class="f4" d="M1399 1692 L1599 1492 L1599 1512 L1399 1712 Z" /></g><g class="o"><path transform="translate(5,10)" class="S sfv" d="M1526 1626 L1448 1548 L1448 1574 L1526 1652 Z"/><path class="fv4" d="M1526 1626 L1448 1548 L1448 1574 L1526 1652 Z" /></g><g class="o"><path transform="translate(8,16)" class="S sfh" d="M1111 1166 L1352 925 L1376 925 L1135 1166 Z"/><path class="fh6" d="M1111 1166 L1352 925 L1376 925 L1135 1166 Z" /></g><g class="o"><path transform="translate(6,12)" class="S sfh" d="M1727 1073 L1677 1023 L1693 1023 L1743 1073 Z"/><path class="fh2" d="M1727 1073 L1677 1023 L1693 1023 L1743 1073 Z" /></g><g class="o"><path transform="translate(6,12)" class="S sfv" d="M1851 1366 L1675 1542 L1675 1552 L1851 1376 Z"/><path class="fv2" d="M1851 1366 L1675 1542 L1675 1552 L1851 1376 Z" /></g><g class="o"><path transform="translate(9,18)" class="S ss" d="M1512 1242 L1044 774 L1052 774 L1520 1242 Z"/><path class="s4" d="M1512 1242 L1044 774 L1052 774 L1520 1242 Z" /></g><g class="o"><path transform="translate(4,8)" class="S sfh" d="M1997 980 L2239 738 L2275 738 L2033 980 Z"/><path class="fh7" d="M1997 980 L2239 738 L2275 738 L2033 980 Z" /></g><g class="o"><path transform="translate(7,14)" class="S sfh" d="M1722 2029 L1906 1845 L1918 1845 L1734 2029 Z"/><path class="fh7" d="M1722 2029 L1906 1845 L1918 1845 L1734 2029 Z" /></g><g class="o"><path transform="translate(4,8)" class="S sfh" d="M1491 1248 L1642 1097 L1664 1097 L1513 1248 Z"/><path class="fh7" d="M1491 1248 L1642 1097 L1664 1097 L1513 1248 Z" /></g><g class="o"><path transform="translate(6,12)" class="S ss" d="M1218 1783 L1025 1590 L1057 1590 L1250 1783 Z"/><path class="s1" d="M1218 1783 L1025 1590 L1057 1590 L1250 1783 Z" /></g><g class="o"><path transform="translate(2,4)" class="S sfh" d="M1132 1104 L727 1509 L765 1509 L1170 1104 Z"/><path class="fh7" d="M1132 1104 L727 1509 L765 1509 L1170 1104 Z" /></g><g class="o"><path transform="translate(8,16)" class="S ssv" d="M1841 1580 L1723 1698 L1723 1728 L1841 1610 Z"/><path class="sv2" d="M1841 1580 L1723 1698 L1723 1728 L1841 1610 Z" /></g><g class="o"><path transform="translate(3,6)" class="S sf" d="M1332 1573 L870 2035 L870 2057 L1332 1595 Z"/><path class="f6" d="M1332 1573 L870 2035 L870 2057 L1332 1595 Z" /></g><g class="o"><path transform="translate(4,8)" class="S sfv" d="M1985 1072 L2168 1255 L2168 1275 L1985 1092 Z"/><path class="fv1" d="M1985 1072 L2168 1255 L2168 1275 L1985 1092 Z" /></g><g class="o"><path transform="translate(2,4)" class="S sfh" d="M1537 1450 L1481 1394 L1517 1394 L1573 1450 Z"/><path class="fh1" d="M1537 1450 L1481 1394 L1517 1394 L1573 1450 Z" /></g><g class="o"><path transform="translate(6,12)" class="S sfv" d="M1177 1214 L954 991 L954 1025 L1177 1248 Z"/><path class="fv5" d="M1177 1214 L954 991 L954 1025 L1177 1248 Z" /></g><g class="o"><path transform="translate(7,14)" class="S sfv" d="M1638 1274 L1461 1451 L1461 1485 L1638 1308 Z"/><path class="fv6" d="M1638 1274 L1461 1451 L1461 1485 L1638 1308 Z" /></g><g class="o"><path transform="translate(7,14)" class="S sfv" d="M1821 1923 L1539 1641 L1539 1655 L1821 1937 Z"/><path class="fv2" d="M1821 1923 L1539 1641 L1539 1655 L1821 1937 Z" /></g><g class="o"><path transform="translate(9,18)" class="S sfh" d="M1363 1649 L1177 1463 L1197 1463 L1383 1649 Z"/><path class="fh6" d="M1363 1649 L1177 1463 L1197 1463 L1383 1649 Z" /></g><g class="o"><path transform="translate(4,8)" class="S sfh" d="M1094 983 L962 1115 L970 1115 L1102 983 Z"/><path class="fh2" d="M1094 983 L962 1115 L970 1115 L1102 983 Z" /></g><g class="o"><path transform="translate(4,8)" class="S sf" d="M1895 1024 L2107 1236 L2107 1272 L1895 1060 Z"/><path class="f1" d="M1895 1024 L2107 1236 L2107 1272 L1895 1060 Z" /></g><g class="o"><path transform="translate(5,10)" class="S sfh" d="M1213 1102 L1340 975 L1366 975 L1239 1102 Z"/><path class="fh2" d="M1213 1102 L1340 975 L1366 975 L1239 1102 Z" /></g><g class="o"><path transform="translate(3,6)" class="S sfh" d="M1679 1960 L1827 1812 L1855 1812 L1707 1960 Z"/><path class="fh1" d="M1679 1960 L1827 1812 L1855 1812 L1707 1960 Z" /></g><g class="o"><path transform="translate(9,18)" class="S sfh" d="M1207 1760 L1330 1637 L1348 1637 L1225 1760 Z"/><path class="fh2" d="M1207 1760 L1330 1637 L1348 1637 L1225 1760 Z" /></g><g class="o"><path transform="translate(9,18)" class="S sfv" d="M1937 1939 L1748 1750 L1748 1762 L1937 1951 Z"/><path class="fv2" d="M1937 1939 L1748 1750 L1748 1762 L1937 1951 Z" /></g><g class="o"><path transform="translate(9,18)" class="S sf" d="M1532 1162 L1700 994 L1734 994 L1566 1162 Z"/><path class="f7" d="M1532 1162 L1700 994 L1734 994 L1566 1162 Z" /></g><g class="o"><path transform="translate(8,16)" class="S sfh" d="M985 1834 L325 2494 L343 2494 L1003 1834 Z"/><path class="fh3" d="M985 1834 L325 2494 L343 2494 L1003 1834 Z" /></g><g class="o"><path transform="translate(8,16)" class="S ssh" d="M1500 1300 L1303 1103 L1313 1103 L1510 1300 Z"/><path class="sh6" d="M1500 1300 L1303 1103 L1313 1103 L1510 1300 Z" /></g><g class="o"><path transform="translate(8,16)" class="S ss" d="M1462 987 L1350 875 L1376 875 L1488 987 Z"/><path class="s3" d="M1462 987 L1350 875 L1376 875 L1488 987 Z" /></g><g class="o"><path transform="translate(6,12)" class="S sf" d="M1360 1802 L1285 1877 L1319 1877 L1394 1802 Z"/><path class="f5" d="M1360 1802 L1285 1877 L1319 1877 L1394 1802 Z" /></g><g class="o"><path transform="translate(4,8)" class="S sfv" d="M1931 2006 L2014 2089 L2014 2113 L1931 2030 Z"/><path class="fv3" d="M1931 2006 L2014 2089 L2014 2113 L1931 2030 Z" /></g><g class="o"><path transform="translate(3,6)" class="S sfv" d="M1048 1794 L970 1716 L970 1746 L1048 1824 Z"/><path class="fv6" d="M1048 1794 L970 1716 L970 1746 L1048 1824 Z" /></g><g class="o"><path transform="translate(5,10)" class="S sf" d="M1893 1696 L2076 1879 L2106 1879 L1923 1696 Z"/><path class="f7" d="M1893 1696 L2076 1879 L2106 1879 L1923 1696 Z" /></g><g class="o"><path transform="translate(5,10)" class="S sfv" d="M993 936 L801 744 L801 772 L993 964 Z"/><path class="fv4" d="M993 936 L801 744 L801 772 L993 964 Z" /></g><g class="o"><path transform="translate(7,14)" class="S sfv" d="M1322 1957 L707 2572 L707 2600 L1322 1985 Z"/><path class="fv2" d="M1322 1957 L707 2572 L707 2600 L1322 1985 Z" /></g><g class="o"><path transform="translate(8,16)" class="S sfh" d="M1650 1813 L1432 1595 L1442 1595 L1660 1813 Z"/><path class="fh5" d="M1650 1813 L1432 1595 L1442 1595 L1660 1813 Z" /></g><g class="o"><path transform="translate(7,14)" class="S ssh" d="M1913 1798 L2057 1942 L2087 1942 L1943 1798 Z"/><path class="sh4" d="M1913 1798 L2057 1942 L2087 1942 L1943 1798 Z" /></g><g class="o"><path transform="translate(7,14)" class="S sfv" d="M1254 1637 L1437 1820 L1437 1832 L1254 1649 Z"/><path class="fv7" d="M1254 1637 L1437 1820 L1437 1832 L1254 1649 Z" /></g><g class="o"><path transform="translate(6,12)" class="S sfh" d="M1005 1480 L805 1280 L827 1280 L1027 1480 Z"/><path class="fh3" d="M1005 1480 L805 1280 L827 1280 L1027 1480 Z" /></g><g class="o"><path transform="translate(2,4)" class="S sfh" d="M1516 1368 L1688 1196 L1720 1196 L1548 1368 Z"/><path class="fh7" d="M1516 1368 L1688 1196 L1720 1196 L1548 1368 Z" /></g><g class="o"><path transform="translate(6,12)" class="S sfh" d="M1745 2007 L1943 1809 L1979 1809 L1781 2007 Z"/><path class="fh7" d="M1745 2007 L1943 1809 L1979 1809 L1781 2007 Z" /></g><g class="o"><path transform="translate(5,10)" class="S sfv" d="M1865 1928 L1963 1830 L1963 1858 L1865 1956 Z"/><path class="fv5" d="M1865 1928 L1963 1830 L1963 1858 L1865 1956 Z" /></g><g class="o"><path transform="translate(7,14)" class="S sfv" d="M1652 1004 L2195 461 L2195 489 L1652 1032 Z"/><path class="fv3" d="M1652 1004 L2195 461 L2195 489 L1652 1032 Z" /></g><g class="o"><path transform="translate(8,16)" class="S sfv" d="M1264 1154 L1505 1395 L1505 1425 L1264 1184 Z"/><path class="fv4" d="M1264 1154 L1505 1395 L1505 1425 L1264 1184 Z" /></g><g class="o"><path transform="translate(5,10)" class="S sfv" d="M1122 1120 L1352 1350 L1352 1384 L1122 1154 Z"/><path class="fv6" d="M1122 1120 L1352 1350 L1352 1384 L1122 1154 Z" /></g><g class="o"><path transform="translate(2,4)" class="S sfh" d="M1404 1973 L705 2672 L737 2672 L1436 1973 Z"/><path class="fh7" d="M1404 1973 L705 2672 L737 2672 L1436 1973 Z" /></g><g class="o"><path transform="translate(6,12)" class="S sfh" d="M1598 1228 L1466 1096 L1504 1096 L1636 1228 Z"/><path class="fh6" d="M1598 1228 L1466 1096 L1504 1096 L1636 1228 Z" /></g><g class="o"><path transform="translate(2,4)" class="S sfv" d="M1903 1782 L2048 1637 L2048 1665 L1903 1810 Z"/><path class="fv1" d="M1903 1782 L2048 1637 L2048 1665 L1903 1810 Z" /></g><g class="o"><path transform="translate(9,18)" class="S sfv" d="M1739 1583 L1964 1808 L1964 1832 L1739 1607 Z"/><path class="fv6" d="M1739 1583 L1964 1808 L1964 1832 L1739 1607 Z" /></g><g class="o"><path transform="translate(8,16)" class="S ss" d="M1602 1203 L1730 1075 L1730 1095 L1602 1223 Z"/><path class="s2" d="M1602 1203 L1730 1075 L1730 1095 L1602 1223 Z" /></g><g class="o"><path transform="translate(6,12)" class="S ssv" d="M1262 1183 L1098 1019 L1098 1027 L1262 1191 Z"/><path class="sv6" d="M1262 1183 L1098 1019 L1098 1027 L1262 1191 Z" /></g><g class="o"><path transform="translate(8,16)" class="S sfv" d="M1557 1332 L2142 1917 L2142 1935 L1557 1350 Z"/><path class="fv5" d="M1557 1332 L2142 1917 L2142 1935 L1557 1350 Z" /></g><g class="o"><path transform="translate(5,10)" class="S sf" d="M1050 1869 L1258 2077 L1258 2109 L1050 1901 Z"/><path class="f6" d="M1050 1869 L1258 2077 L1258 2109 L1050 1901 Z" /></g><g class="o"><path transform="translate(6,12)" class="S sfh" d="M1713 1810 L2337 2434 L2351 2434 L1727 1810 Z"/><path class="fh1" d="M1713 1810 L2337 2434 L2351 2434 L1727 1810 Z" /></g><g class="o"><path transform="translate(7,14)" class="S sfh" d="M1926 2023 L1687 2262 L1709 2262 L1948 2023 Z"/><path class="fh4" d="M1926 2023 L1687 2262 L1709 2262 L1948 2023 Z" /></g><g class="o"><path transform="translate(7,14)" class="S sf" d="M1628 2020 L1557 1949 L1557 1967 L1628 2038 Z"/><path class="f7" d="M1628 2020 L1557 1949 L1557 1967 L1628 2038 Z" /></g><g class="o"><path transform="translate(2,4)" class="S ssh" d="M2024 1914 L2222 1716 L2248 1716 L2050 1914 Z"/><path class="sh1" d="M2024 1914 L2222 1716 L2248 1716 L2050 1914 Z" /></g><g class="o"><path transform="translate(4,8)" class="S ssv" d="M1031 1638 L876 1793 L876 1805 L1031 1650 Z"/><path class="sv3" d="M1031 1638 L876 1793 L876 1805 L1031 1650 Z" /></g><g class="o"><path transform="translate(2,4)" class="S sfh" d="M1334 1267 L1496 1105 L1524 1105 L1362 1267 Z"/><path class="fh6" d="M1334 1267 L1496 1105 L1524 1105 L1362 1267 Z" /></g><g class="o"><path transform="translate(3,6)" class="S sf" d="M1352 1048 L1214 1186 L1214 1198 L1352 1060 Z"/><path class="f6" d="M1352 1048 L1214 1186 L1214 1198 L1352 1060 Z" /></g><g class="o"><path transform="translate(7,14)" class="S sfv" d="M1299 954 L1413 1068 L1413 1092 L1299 978 Z"/><path class="fv3" d="M1299 954 L1413 1068 L1413 1092 L1299 978 Z" /></g><g class="o"><path transform="translate(8,16)" class="S sfh" d="M1408 1480 L1272 1616 L1298 1616 L1434 1480 Z"/><path class="fh3" d="M1408 1480 L1272 1616 L1298 1616 L1434 1480 Z" /></g><g class="o"><path transform="translate(6,12)" class="S sfh" d="M1110 1379 L1029 1298 L1039 1298 L1120 1379 Z"/><path class="fh7" d="M1110 1379 L1029 1298 L1039 1298 L1120 1379 Z" /></g><g class="o"><path transform="translate(8,16)" class="S ssh" d="M1740 1019 L1520 1239 L1554 1239 L1774 1019 Z"/><path class="sh1" d="M1740 1019 L1520 1239 L1554 1239 L1774 1019 Z" /></g><g class="o"><path transform="translate(9,18)" class="S sfv" d="M1139 1317 L966 1144 L966 1176 L1139 1349 Z"/><path class="fv5" d="M1139 1317 L966 1144 L966 1176 L1139 1349 Z" /></g><g class="o"><path transform="translate(6,12)" class="S sf" d="M1601 1221 L1487 1335 L1487 1351 L1601 1237 Z"/><path class="f6" d="M1601 1221 L1487 1335 L1487 1351 L1601 1237 Z" /></g><g class="o"><path transform="translate(5,10)" class="S ssv" d="M1238 1205 L1172 1139 L1172 1171 L1238 1237 Z"/><path class="sv2" d="M1238 1205 L1172 1139 L1172 1171 L1238 1237 Z" /></g><g class="o"><path transform="translate(7,14)" class="S ssv" d="M1554 1517 L1352 1719 L1352 1741 L1554 1539 Z"/><path class="sv2" d="M1554 1517 L1352 1719 L1352 1741 L1554 1539 Z" /></g><g class="o"><path transform="translate(6,12)" class="S sf" d="M1977 1937 L1833 1793 L1847 1793 L1991 1937 Z"/><path class="f5" d="M1977 1937 L1833 1793 L1847 1793 L1991 1937 Z" /></g><g class="o"><path transform="translate(2,4)" class="S sfv" d="M1774 1907 L1679 2002 L1679 2022 L1774 1927 Z"/><path class="fv1" d="M1774 1907 L1679 2002 L1679 2022 L1774 1927 Z" /></g><g class="o"><path transform="translate(7,14)" class="S ssv" d="M1107 1509 L534 2082 L534 2114 L1107 1541 Z"/><path class="sv7" d="M1107 1509 L534 2082 L534 2114 L1107 1541 Z" /></g><g class="o"><path transform="translate(9,18)" class="S sf" d="M1460 1822 L1271 2011 L1271 2031 L1460 1842 Z"/><path class="f1" d="M1460 1822 L1271 2011 L1271 2031 L1460 1842 Z" /></g><g class="o"><path transform="translate(9,18)" class="S sfv" d="M1640 1662 L1867 1889 L1867 1905 L1640 1678 Z"/><path class="fv3" d="M1640 1662 L1867 1889 L1867 1905 L1640 1678 Z" /></g><g class="o"><path transform="translate(8,16)" class="S sfv" d="M1596 2037 L1823 2264 L1823 2276 L1596 2049 Z"/><path class="fv1" d="M1596 2037 L1823 2264 L1823 2276 L1596 2049 Z" /></g><g class="o"><path transform="translate(5,10)" class="S sfh" d="M1206 1912 L1422 1696 L1436 1696 L1220 1912 Z"/><path class="fh2" d="M1206 1912 L1422 1696 L1436 1696 L1220 1912 Z" /></g><g class="o"><path transform="translate(4,8)" class="S sfh" d="M1140 1916 L1005 1781 L1029 1781 L1164 1916 Z"/><path class="fh2" d="M1140 1916 L1005 1781 L1029 1781 L1164 1916 Z" /></g><g class="o"><path transform="translate(3,6)" class="S sf" d="M1885 1617 L2117 1385 L2153 1385 L1921 1617 Z"/><path class="f6" d="M1885 1617 L2117 1385 L2153 1385 L1921 1617 Z" /></g><g class="o"><path transform="translate(4,8)" class="S sfv" d="M1567 1686 L1630 1623 L1630 1635 L1567 1698 Z"/><path class="fv1" d="M1567 1686 L1630 1623 L1630 1635 L1567 1698 Z" /></g><g class="o"><path transform="translate(5,10)" class="S sf" d="M1680 988 L1551 859 L1551 875 L1680 1004 Z"/><path class="f3" d="M1680 988 L1551 859 L1551 875 L1680 1004 Z" /></g><g class="o"><path transform="translate(9,18)" class="S sfv" d="M1933 1373 L1747 1559 L1747 1581 L1933 1395 Z"/><path class="fv2" d="M1933 1373 L1747 1559 L1747 1581 L1933 1395 Z" /></g><g class="o"><path transform="translate(5,10)" class="S sfh" d="M952 1609 L1148 1805 L1172 1805 L976 1609 Z"/><path class="fh1" d="M952 1609 L1148 1805 L1172 1805 L976 1609 Z" /></g><g class="o"><path transform="translate(7,14)" class="S sfv" d="M1395 1684 L1767 2056 L1767 2080 L1395 1708 Z"/><path class="fv2" d="M1395 1684 L1767 2056 L1767 2080 L1395 1708 Z" /></g><g class="o"><path transform="translate(7,14)" class="S sfv" d="M1069 1463 L860 1254 L860 1284 L1069 1493 Z"/><path class="fv5" d="M1069 1463 L860 1254 L860 1284 L1069 1493 Z" /></g><g class="o"><path transform="translate(3,6)" class="S ssv" d="M1766 980 L1901 1115 L1901 1143 L1766 1008 Z"/><path class="sv4" d="M1766 980 L1901 1115 L1901 1143 L1766 1008 Z" /></g><g class="o"><path transform="translate(6,12)" class="S sfh" d="M1465 973 L2098 340 L2134 340 L1501 973 Z"/><path class="fh4" d="M1465 973 L2098 340 L2134 340 L1501 973 Z" /></g><g class="o"><path transform="translate(3,6)" class="S sf" d="M1821 982 L1925 1086 L1951 1086 L1847 982 Z"/><path class="f4" d="M1821 982 L1925 1086 L1951 1086 L1847 982 Z" /></g><g class="o"><path transform="translate(5,10)" class="S sf" d="M1391 1419 L1970 840 L1990 840 L1411 1419 Z"/><path class="f3" d="M1391 1419 L1970 840 L1990 840 L1411 1419 Z" /></g><g class="o"><path transform="translate(5,10)" class="S sfh" d="M1093 1098 L1201 1206 L1227 1206 L1119 1098 Z"/><path class="fh5" d="M1093 1098 L1201 1206 L1227 1206 L1119 1098 Z" /></g><g class="o"><path transform="translate(4,8)" class="S sfh" d="M1591 1120 L1832 879 L1852 879 L1611 1120 Z"/><path class="fh3" d="M1591 1120 L1832 879 L1852 879 L1611 1120 Z" /></g><g class="o"><path transform="translate(3,6)" class="S sfv" d="M1448 997 L1568 1117 L1568 1141 L1448 1021 Z"/><path class="fv5" d="M1448 997 L1568 1117 L1568 1141 L1448 1021 Z" /></g><g class="o"><path transform="translate(9,18)" class="S sfv" d="M1276 1273 L1480 1477 L1480 1495 L1276 1291 Z"/><path class="fv3" d="M1276 1273 L1480 1477 L1480 1495 L1276 1291 Z" /></g><g class="o"><path transform="translate(5,10)" class="S sfv" d="M1795 1667 L1900 1562 L1900 1572 L1795 1677 Z"/><path class="fv2" d="M1795 1667 L1900 1562 L1900 1572 L1795 1677 Z" /></g><g class="o"><path transform="translate(6,12)" class="S sfh" d="M1593 1366 L1505 1454 L1543 1454 L1631 1366 Z"/><path class="fh5" d="M1593 1366 L1505 1454 L1543 1454 L1631 1366 Z" /></g><g class="o"><path transform="translate(7,14)" class="S sfh" d="M1498 1229 L1571 1302 L1607 1302 L1534 1229 Z"/><path class="fh2" d="M1498 1229 L1571 1302 L1607 1302 L1534 1229 Z" /></g><g class="o"><path transform="translate(7,14)" class="S sfv" d="M958 1391 L799 1550 L799 1586 L958 1427 Z"/><path class="fv2" d="M958 1391 L799 1550 L799 1586 L958 1427 Z" /></g><g class="o"><path transform="translate(2,4)" class="S ssh" d="M1902 1730 L1668 1496 L1678 1496 L1912 1730 Z"/><path class="sh6" d="M1902 1730 L1668 1496 L1678 1496 L1912 1730 Z" /></g></g><use href="#slashes" transform-origin="1500 1500" transform="rotate(180) scale(2)"/></g><rect x="1080" y="1080" width="840" height="840" stroke-width="20" class="o s7" /><use href="#slashes" transform-origin="1500 1500" transform="scale(.7)"/><use href="#slashes" transform-origin="1500 1500" transform="rotate(180) scale(1.3)"/></svg>