<svg xmlns="http://www.w3.org/2000/svg" viewBox="750 750 1500 1500"><style>/*<![CDATA[*/svg{background:rgb(213,39,183);max-width:100vw;max-height:100vh}path{stroke-width:4}.o{opacity:.75}.S{opacity:.4}.sf{stroke:none;fill:black}.sfh{stroke:none;fill:url(#hs)}.sfv{stroke:none;fill:url(#vs)}.ss{stroke:black;fill:none}.ssh{stroke:url(#hs);fill:none}.ssv{stroke:url(#vs);fill:none}.s1{fill:none;stroke:rgb(34,34,34)}.f1{stroke:none;fill:rgb(34,34,34)}.sh1{fill:none;stroke:url(#h1)}.fh1{stroke:none;fill:url(#h1)}.sv1{fill:none;stroke:url(#v1)}.fv1{stroke:none;fill:url(#v1)}.s2{fill:none;stroke:rgb(138,0,212)}.f2{stroke:none;fill:rgb(138,0,212)}.sh2{fill:none;stroke:url(#h2)}.fh2{stroke:none;fill:url(#h2)}.sv2{fill:none;stroke:url(#v2)}.fv2{stroke:none;fill:url(#v2)}.s3{fill:none;stroke:rgb(249,196,107)}.f3{stroke:none;fill:rgb(249,196,107)}.sh3{fill:none;stroke:url(#h3)}.fh3{stroke:none;fill:url(#h3)}.sv3{fill:none;stroke:url(#v3)}.fv3{stroke:none;fill:url(#v3)}.s4{fill:none;stroke:rgb(247,130,194)}.f4{stroke:none;fill:rgb(247,130,194)}.sh4{fill:none;stroke:url(#h4)}.fh4{stroke:none;fill:url(#h4)}.sv4{fill:none;stroke:url(#v4)}.fv4{stroke:none;fill:url(#v4)}.s5{fill:none;stroke:rgb(227,227,227)}.f5{stroke:none;fill:rgb(227,227,227)}.sh5{fill:none;stroke:url(#h5)}.fh5{stroke:none;fill:url(#h5)}.sv5{fill:none;stroke:url(#v5)}.fv5{stroke:none;fill:url(#v5)}.s6{fill:none;stroke:rgb(255,255,255)}.f6{stroke:none;fill:rgb(255,255,255)}.sh6{fill:none;stroke:url(#h6)}.fh6{stroke:none;fill:url(#h6)}.sv6{fill:none;stroke:url(#v6)}.fv6{stroke:none;fill:url(#v6)}.s7{fill:none;stroke:rgb(255,255,0)}.f7{stroke:none;fill:rgb(255,255,0)}.sh7{fill:none;stroke:url(#h7)}.fh7{stroke:none;fill:url(#h7)}.sv7{fill:none;stroke:url(#v7)}.fv7{stroke:none;fill:url(#v7)}/*]]>*/</style><defs><linearGradient gradientTransform="rotate(90)" id="hs"><stop offset="20%" stop-color="#000" /><stop offset="95%" stop-color="rgba(0, 0, 0, 0)" /></linearGradient><linearGradient id="vs"><stop offset="20%" stop-color="#000" /><stop offset="95%" stop-color="rgba(0, 0, 0, 0)" /></linearGradient><linearGradient gradientTransform="rotate(90)" id="h1"><stop offset="20%" stop-color="rgba(34,34,34,1)" /><stop offset="95%" stop-color="rgba(34,34,34,0)" /></linearGradient><linearGradient id="v1"><stop offset="20%" stop-color="rgba(34,34,34,1)" /><stop offset="95%" stop-color="rgba(34,34,34,0)" /></linearGradient><linearGradient gradientTransform="rotate(90)" id="h2"><stop offset="20%" stop-color="rgba(138,0,212,1)" /><stop offset="95%" stop-color="rgba(138,0,212,0)" /></linearGradient><linearGradient id="v2"><stop offset="20%" stop-color="rgba(138,0,212,1)" /><stop offset="95%" stop-color="rgba(138,0,212,0)" /></linearGradient><linearGradient gradientTransform="rotate(90)" id="h3"><stop offset="20%" stop-color="rgba(249,196,107,1)" /><stop offset="95%" stop-color="rgba(249,196,107,0)" /></linearGradient><linearGradient id="v3"><stop offset="20%" stop-color="rgba(249,196,107,1)" /><stop offset="95%" stop-color="rgba(249,196,107,0)" /></linearGradient><linearGradient gradientTransform="rotate(90)" id="h4"><stop offset="20%" stop-color="rgba(247,130,194,1)" /><stop offset="95%" stop-color="rgba(247,130,194,0)" /></linearGradient><linearGradient id="v4"><stop offset="20%" stop-color="rgba(247,130,194,1)" /><stop offset="95%" stop-color="rgba(247,130,194,0)" /></linearGradient><linearGradient gradientTransform="rotate(90)" id="h5"><stop offset="20%" stop-color="rgba(227,227,227,1)" /><stop offset="95%" stop-color="rgba(227,227,227,0)" /></linearGradient><linearGradient id="v5"><stop offset="20%" stop-color="rgba(227,227,227,1)" /><stop offset="95%" stop-color="rgba(227,227,227,0)" /></linearGradient><linearGradient gradientTransform="rotate(90)" id="h6"><stop offset="20%" stop-color="rgba(255,255,255,1)" /><stop offset="95%" stop-color="rgba(255,255,255,0)" /></linearGradient><linearGradient id="v6"><stop offset="20%" stop-color="rgba(255,255,255,1)" /><stop offset="95%" stop-color="rgba(255,255,255,0)" /></linearGradient><linearGradient gradientTransform="rotate(90)" id="h7"><stop offset="20%" stop-color="rgba(255,255,0,1)" /><stop offset="95%" stop-color="rgba(255,255,0,0)" /></linearGradient><linearGradient id="v7"><stop offset="20%" stop-color="rgba(255,255,0,1)" /><stop offset="95%" stop-color="rgba(255,255,0,0)" /></linearGradient></defs><g transform-origin="1500 1500" transform="scale(2)" opacity=".2"><g id="slashes"><g class="o"><path transform="translate(2,4)" class="S sfv" d="M1942 1184 L1831 1073 L1831 1093 L1942 1204 Z"/><path class="fv6" d="M1942 1184 L1831 1073 L1831 1093 L1942 1204 Z" /></g><g class="o"><path transform="translate(5,10)" class="S sfv" d="M1571 1712 L1405 1546 L1405 1642 L1571 1808 Z"/><path class="fv3" d="M1571 1712 L1405 1546 L1405 1642 L1571 1808 Z" /></g><g class="o"><path transform="translate(6,12)" class="S sfh" d="M991 1517 L244 770 L262 770 L1009 1517 Z"/><path class="fh4" d="M991 1517 L244 770 L262 770 L1009 1517 Z" /></g><g class="o"><path transform="translate(8,16)" class="S ssv" d="M1621 1929 L1525 1833 L1525 1843 L1621 1939 Z"/><path class="sv7" d="M1621 1929 L1525 1833 L1525 1843 L1621 1939 Z" /></g><g class="o"><path transform="translate(4,8)" class="S sfv" d="M1179 1679 L968 1468 L968 1580 L1179 1791 Z"/><path class="fv5" d="M1179 1679 L968 1468 L968 1580 L1179 1791 Z" /></g><g class="o"><path transform="translate(5,10)" class="S sfv" d="M1805 1713 L1632 1540 L1632 1668 L1805 1841 Z"/><path class="fv2" d="M1805 1713 L1632 1540 L1632 1668 L1805 1841 Z" /></g><g class="o"><path transform="translate(8,16)" class="S sfh" d="M1360 1505 L1151 1296 L1185 1296 L1394 1505 Z"/><path class="fh4" d="M1360 1505 L1151 1296 L1185 1296 L1394 1505 Z" /></g><g class="o"><path transform="translate(8,16)" class="S sfh" d="M1480 2011 L1356 1887 L1378 1887 L1502 2011 Z"/><path class="fh4" d="M1480 2011 L1356 1887 L1378 1887 L1502 2011 Z" /></g><g class="o"><path transform="translate(6,12)" class="S sfv" d="M1229 1819 L1157 1747 L1157 1835 L1229 1907 Z"/><path class="fv6" d="M1229 1819 L1157 1747 L1157 1835 L1229 1907 Z" /></g><g class="o"><path transform="translate(8,16)" class="S sfv" d="M1012 1082 L765 835 L765 849 L1012 1096 Z"/><path class="fv1" d="M1012 1082 L765 835 L765 849 L1012 1096 Z" /></g><g class="o"><path transform="translate(4,8)" class="S sfh" d="M1491 1032 L1415 956 L1527 956 L1603 1032 Z"/><path class="fh2" d="M1491 1032 L1415 956 L1527 956 L1603 1032 Z" /></g><g class="o"><path transform="translate(3,6)" class="S sfh" d="M1938 1659 L1419 1140 L1439 1140 L1958 1659 Z"/><path class="fh5" d="M1938 1659 L1419 1140 L1439 1140 L1958 1659 Z" /></g><g class="o"><path transform="translate(6,12)" class="S sfv" d="M1495 1134 L1401 1040 L1401 1168 L1495 1262 Z"/><path class="fv5" d="M1495 1134 L1401 1040 L1401 1168 L1495 1262 Z" /></g><g class="o"><path transform="translate(7,14)" class="S ssh" d="M1806 1326 L1659 1179 L1687 1179 L1834 1326 Z"/><path class="sh5" d="M1806 1326 L1659 1179 L1687 1179 L1834 1326 Z" /></g><g class="o"><path transform="translate(3,6)" class="S sfh" d="M1117 1443 L445 771 L463 771 L1135 1443 Z"/><path class="fh6" d="M1117 1443 L445 771 L463 771 L1135 1443 Z" /></g><g class="o"><path transform="translate(4,8)" class="S sfv" d="M1749 1338 L1633 1222 L1633 1240 L1749 1356 Z"/><path class="fv1" d="M1749 1338 L1633 1222 L1633 1240 L1749 1356 Z" /></g><g class="o"><path transform="translate(2,4)" class="S sfh" d="M997 1411 L808 1222 L960 1222 L1149 1411 Z"/><path class="fh1" d="M997 1411 L808 1222 L960 1222 L1149 1411 Z" /></g><g class="o"><path transform="translate(5,10)" class="S sfh" d="M968 1193 L771 996 L793 996 L990 1193 Z"/><path class="fh5" d="M968 1193 L771 996 L793 996 L990 1193 Z" /></g><g class="o"><path transform="translate(6,12)" class="S sfh" d="M1566 1050 L1387 871 L1417 871 L1596 1050 Z"/><path class="fh6" d="M1566 1050 L1387 871 L1417 871 L1596 1050 Z" /></g><g class="o"><path transform="translate(6,12)" class="S sfh" d="M1030 1367 L969 1306 L1105 1306 L1166 1367 Z"/><path class="fh7" d="M1030 1367 L969 1306 L1105 1306 L1166 1367 Z" /></g><g class="o"><path transform="translate(9,18)" class="S ssv" d="M1168 1183 L925 940 L925 950 L1168 1193 Z"/><path class="sv2" d="M1168 1183 L925 940 L925 950 L1168 1193 Z" /></g><g class="o"><path transform="translate(7,14)" class="S sfv" d="M1635 1591 L1476 1432 L1476 1472 L1635 1631 Z"/><path class="fv1" d="M1635 1591 L1476 1432 L1476 1472 L1635 1631 Z" /></g><g class="o"><path transform="translate(6,12)" class="S sfv" d="M1782 1518 L1692 1428 L1692 1450 L1782 1540 Z"/><path class="fv4" d="M1782 1518 L1692 1428 L1692 1450 L1782 1540 Z" /></g><g class="o"><path transform="translate(9,18)" class="S ssv" d="M1693 1676 L1582 1565 L1582 1597 L1693 1708 Z"/><path class="sv2" d="M1693 1676 L1582 1565 L1582 1597 L1693 1708 Z" /></g><g class="o"><path transform="translate(6,12)" class="S sfh" d="M1894 1637 L1680 1423 L1712 1423 L1926 1637 Z"/><path class="fh2" d="M1894 1637 L1680 1423 L1712 1423 L1926 1637 Z" /></g><g class="o"><path transform="translate(4,8)" class="S sfh" d="M1391 989 L1254 852 L1262 852 L1399 989 Z"/><path class="fh1" d="M1391 989 L1254 852 L1262 852 L1399 989 Z" /></g><g class="o"><path transform="translate(4,8)" class="S sfv" d="M1993 976 L1806 789 L1806 817 L1993 1004 Z"/><path class="fv4" d="M1993 976 L1806 789 L1806 817 L1993 1004 Z" /></g><g class="o"><path transform="translate(2,4)" class="S sfv" d="M1192 1193 L994 995 L994 1007 L1192 1205 Z"/><path class="fv3" d="M1192 1193 L994 995 L994 1007 L1192 1205 Z" /></g><g class="o"><path transform="translate(2,4)" class="S sfh" d="M1264 1529 L1138 1403 L1146 1403 L1272 1529 Z"/><path class="fh1" d="M1264 1529 L1138 1403 L1146 1403 L1272 1529 Z" /></g><g class="o"><path transform="translate(4,8)" class="S ssv" d="M1817 1803 L1747 1733 L1747 1813 L1817 1883 Z"/><path class="sv2" d="M1817 1803 L1747 1733 L1747 1813 L1817 1883 Z" /></g><g class="o"><path transform="translate(4,8)" class="S sfh" d="M985 954 L628 597 L732 597 L1089 954 Z"/><path class="fh5" d="M985 954 L628 597 L732 597 L1089 954 Z" /></g><g class="o"><path transform="translate(4,8)" class="S sfh" d="M1765 1494 L1580 1309 L1732 1309 L1917 1494 Z"/><path class="fh1" d="M1765 1494 L1580 1309 L1732 1309 L1917 1494 Z" /></g><g class="o"><path transform="translate(6,12)" class="S sfv" d="M1492 947 L1321 776 L1321 872 L1492 1043 Z"/><path class="fv5" d="M1492 947 L1321 776 L1321 872 L1492 1043 Z" /></g><g class="o"><path transform="translate(2,4)" class="S sfh" d="M1839 1013 L1699 873 L1795 873 L1935 1013 Z"/><path class="fh5" d="M1839 1013 L1699 873 L1795 873 L1935 1013 Z" /></g><g class="o"><path transform="translate(9,18)" class="S sfh" d="M2037 1905 L1945 1813 L1965 1813 L2057 1905 Z"/><path class="fh3" d="M2037 1905 L1945 1813 L1965 1813 L2057 1905 Z" /></g><g class="o"><path transform="translate(8,16)" class="S sfv" d="M1805 1506 L1646 1347 L1646 1379 L1805 1538 Z"/><path class="fv7" d="M1805 1506 L1646 1347 L1646 1379 L1805 1538 Z" /></g><g class="o"><path transform="translate(6,12)" class="S sfv" d="M1795 1658 L1631 1494 L1631 1514 L1795 1678 Z"/><path class="fv5" d="M1795 1658 L1631 1494 L1631 1514 L1795 1678 Z" /></g><g class="o"><path transform="translate(6,12)" class="S sfv" d="M1221 1931 L1160 1870 L1160 1904 L1221 1965 Z"/><path class="fv1" d="M1221 1931 L1160 1870 L1160 1904 L1221 1965 Z" /></g><g class="o"><path transform="translate(4,8)" class="S sfh" d="M1972 1655 L1915 1598 L1945 1598 L2002 1655 Z"/><path class="fh6" d="M1972 1655 L1915 1598 L1945 1598 L2002 1655 Z" /></g><g class="o"><path transform="translate(7,14)" class="S sfv" d="M1618 1114 L1432 928 L1432 968 L1618 1154 Z"/><path class="fv6" d="M1618 1114 L1432 928 L1432 968 L1618 1154 Z" /></g><g class="o"><path transform="translate(3,6)" class="S ssh" d="M1831 1120 L1771 1060 L1791 1060 L1851 1120 Z"/><path class="sh3" d="M1831 1120 L1771 1060 L1791 1060 L1851 1120 Z" /></g><g class="o"><path transform="translate(3,6)" class="S ssh" d="M1876 1694 L1698 1516 L1718 1516 L1896 1694 Z"/><path class="sh2" d="M1876 1694 L1698 1516 L1718 1516 L1896 1694 Z" /></g><g class="o"><path transform="translate(4,8)" class="S ssv" d="M1657 1694 L1482 1519 L1482 1549 L1657 1724 Z"/><path class="sv2" d="M1657 1694 L1482 1519 L1482 1549 L1657 1724 Z" /></g><g class="o"><path transform="translate(9,18)" class="S sfh" d="M1890 1734 L1664 1508 L1674 1508 L1900 1734 Z"/><path class="fh6" d="M1890 1734 L1664 1508 L1674 1508 L1900 1734 Z" /></g><g class="o"><path transform="translate(4,8)" class="S sfh" d="M1190 1630 L950 1390 L958 1390 L1198 1630 Z"/><path class="fh4" d="M1190 1630 L950 1390 L958 1390 L1198 1630 Z" /></g><g class="o"><path transform="translate(4,8)" class="S sfv" d="M967 1946 L571 1550 L571 1574 L967 1970 Z"/><path class="fv6" d="M967 1946 L571 1550 L571 1574 L967 1970 Z" /></g><g class="o"><path transform="translate(8,16)" class="S sfv" d="M978 1506 L778 1306 L778 1320 L978 1520 Z"/><path class="fv7" d="M978 1506 L778 1306 L778 1320 L978 1520 Z" /></g><g class="o"><path transform="translate(2,4)" class="S ssv" d="M1198 1243 L928 973 L928 1125 L1198 1395 Z"/><path class="sv1" d="M1198 1243 L928 973 L928 1125 L1198 1395 Z" /></g><g class="o"><path transform="translate(4,8)" class="S sfv" d="M1625 1941 L1544 1860 L1544 1894 L1625 1975 Z"/><path class="fv2" d="M1625 1941 L1544 1860 L1544 1894 L1625 1975 Z" /></g><g class="o"><path transform="translate(8,16)" class="S sfh" d="M2025 1911 L1828 1714 L1850 1714 L2047 1911 Z"/><path class="fh3" d="M2025 1911 L1828 1714 L1850 1714 L2047 1911 Z" /></g><g class="o"><path transform="translate(7,14)" class="S sfh" d="M1682 1183 L1584 1085 L1612 1085 L1710 1183 Z"/><path class="fh1" d="M1682 1183 L1584 1085 L1612 1085 L1710 1183 Z" /></g><g class="o"><path transform="translate(8,16)" class="S ssh" d="M1119 1248 L1005 1134 L1069 1134 L1183 1248 Z"/><path class="sh2" d="M1119 1248 L1005 1134 L1069 1134 L1183 1248 Z" /></g><g class="o"><path transform="translate(5,10)" class="S sfv" d="M1175 1019 L1051 895 L1051 919 L1175 1043 Z"/><path class="fv1" d="M1175 1019 L1051 895 L1051 919 L1175 1043 Z" /></g><g class="o"><path transform="translate(4,8)" class="S sfv" d="M1545 1432 L1397 1284 L1397 1348 L1545 1496 Z"/><path class="fv6" d="M1545 1432 L1397 1284 L1397 1348 L1545 1496 Z" /></g><g class="o"><path transform="translate(5,10)" class="S sfv" d="M1985 1880 L1811 1706 L1811 1738 L1985 1912 Z"/><path class="fv4" d="M1985 1880 L1811 1706 L1811 1738 L1985 1912 Z" /></g><g class="o"><path transform="translate(7,14)" class="S sfv" d="M1965 1247 L1777 1059 L1777 1115 L1965 1303 Z"/><path class="fv5" d="M1965 1247 L1777 1059 L1777 1115 L1965 1303 Z" /></g><g class="o"><path transform="translate(4,8)" class="S ssv" d="M1568 1963 L1022 1417 L1022 1439 L1568 1985 Z"/><path class="sv6" d="M1568 1963 L1022 1417 L1022 1439 L1568 1985 Z" /></g><g class="o"><path transform="translate(3,6)" class="S sfv" d="M1793 1984 L1454 1645 L1454 1665 L1793 2004 Z"/><path class="fv6" d="M1793 1984 L1454 1645 L1454 1665 L1793 2004 Z" /></g><g class="o"><path transform="translate(4,8)" class="S sfh" d="M1042 1409 L823 1190 L861 1190 L1080 1409 Z"/><path class="fh1" d="M1042 1409 L823 1190 L861 1190 L1080 1409 Z" /></g><g class="o"><path transform="translate(9,18)" class="S sfh" d="M1113 1528 L903 1318 L1031 1318 L1241 1528 Z"/><path class="fh2" d="M1113 1528 L903 1318 L1031 1318 L1241 1528 Z" /></g><g class="o"><path transform="translate(3,6)" class="S ssh" d="M990 966 L928 904 L1064 904 L1126 966 Z"/><path class="sh1" d="M990 966 L928 904 L1064 904 L1126 966 Z" /></g><g class="o"><path transform="translate(6,12)" class="S sfh" d="M1651 1807 L1550 1706 L1586 1706 L1687 1807 Z"/><path class="fh5" d="M1651 1807 L1550 1706 L1586 1706 L1687 1807 Z" /></g><g class="o"><path transform="translate(6,12)" class="S sfv" d="M1832 1366 L1772 1306 L1772 1334 L1832 1394 Z"/><path class="fv7" d="M1832 1366 L1772 1306 L1772 1334 L1832 1394 Z" /></g><g class="o"><path transform="translate(2,4)" class="S sfh" d="M1275 1003 L1052 780 L1204 780 L1427 1003 Z"/><path class="fh5" d="M1275 1003 L1052 780 L1204 780 L1427 1003 Z" /></g><g class="o"><path transform="translate(4,8)" class="S sfv" d="M1890 1745 L1653 1508 L1653 1564 L1890 1801 Z"/><path class="fv4" d="M1890 1745 L1653 1508 L1653 1564 L1890 1801 Z" /></g><g class="o"><path transform="translate(7,14)" class="S sfv" d="M1084 1776 L936 1628 L936 1636 L1084 1784 Z"/><path class="fv2" d="M1084 1776 L936 1628 L936 1636 L1084 1784 Z" /></g><g class="o"><path transform="translate(2,4)" class="S sfh" d="M1239 1528 L1009 1298 L1089 1298 L1319 1528 Z"/><path class="fh6" d="M1239 1528 L1009 1298 L1089 1298 L1319 1528 Z" /></g><g class="o"><path transform="translate(4,8)" class="S ssv" d="M1046 1552 L859 1365 L859 1401 L1046 1588 Z"/><path class="sv1" d="M1046 1552 L859 1365 L859 1401 L1046 1588 Z" /></g><g class="o"><path transform="translate(3,6)" class="S sfh" d="M1173 1099 L909 835 L943 835 L1207 1099 Z"/><path class="fh7" d="M1173 1099 L909 835 L943 835 L1207 1099 Z" /></g><g class="o"><path transform="translate(9,18)" class="S ssh" d="M1905 990 L1701 786 L1781 786 L1985 990 Z"/><path class="sh1" d="M1905 990 L1701 786 L1781 786 L1985 990 Z" /></g><g class="o"><path transform="translate(3,6)" class="S ssv" d="M1216 947 L1034 765 L1034 779 L1216 961 Z"/><path class="sv6" d="M1216 947 L1034 765 L1034 779 L1216 961 Z" /></g><g class="o"><path transform="translate(3,6)" class="S sfv" d="M1408 933 L1327 852 L1327 964 L1408 1045 Z"/><path class="fv1" d="M1408 933 L1327 852 L1327 964 L1408 1045 Z" /></g><g class="o"><path transform="translate(8,16)" class="S ssh" d="M1001 1168 L810 977 L830 977 L1021 1168 Z"/><path class="sh2" d="M1001 1168 L810 977 L830 977 L1021 1168 Z" /></g><g class="o"><path transform="translate(7,14)" class="S sfh" d="M1133 1738 L1011 1616 L1099 1616 L1221 1738 Z"/><path class="fh7" d="M1133 1738 L1011 1616 L1099 1616 L1221 1738 Z" /></g><g class="o"><path transform="translate(2,4)" class="S sfh" d="M1490 1924 L1396 1830 L1484 1830 L1578 1924 Z"/><path class="fh5" d="M1490 1924 L1396 1830 L1484 1830 L1578 1924 Z" /></g><g class="o"><path transform="translate(3,6)" class="S sfh" d="M1296 975 L1228 907 L1372 907 L1440 975 Z"/><path class="fh2" d="M1296 975 L1228 907 L1372 907 L1440 975 Z" /></g><g class="o"><path transform="translate(6,12)" class="S sfv" d="M1061 1935 L833 1707 L833 1719 L1061 1947 Z"/><path class="fv4" d="M1061 1935 L833 1707 L833 1719 L1061 1947 Z" /></g><g class="o"><path transform="translate(5,10)" class="S sfv" d="M1206 1344 L1015 1153 L1015 1289 L1206 1480 Z"/><path class="fv6" d="M1206 1344 L1015 1153 L1015 1289 L1206 1480 Z" /></g><g class="o"><path transform="translate(4,8)" class="S sfh" d="M1598 1251 L1354 1007 L1380 1007 L1624 1251 Z"/><path class="fh5" d="M1598 1251 L1354 1007 L1380 1007 L1624 1251 Z" /></g><g class="o"><path transform="translate(7,14)" class="S sfh" d="M1934 1431 L1735 1232 L1887 1232 L2086 1431 Z"/><path class="fh7" d="M1934 1431 L1735 1232 L1887 1232 L2086 1431 Z" /></g><g class="o"><path transform="translate(8,16)" class="S sfv" d="M2049 1830 L1832 1613 L1832 1623 L2049 1840 Z"/><path class="fv2" d="M2049 1830 L1832 1613 L1832 1623 L2049 1840 Z" /></g><g class="o"><path transform="translate(4,8)" class="S sfh" d="M1441 976 L1349 884 L1357 884 L1449 976 Z"/><path class="fh4" d="M1441 976 L1349 884 L1357 884 L1449 976 Z" /></g><g class="o"><path transform="translate(8,16)" class="S sfv" d="M1383 1935 L1211 1763 L1211 1783 L1383 1955 Z"/><path class="fv3" d="M1383 1935 L1211 1763 L1211 1783 L1383 1955 Z" /></g><g class="o"><path transform="translate(3,6)" class="S ssh" d="M1306 1529 L763 986 L777 986 L1320 1529 Z"/><path class="sh5" d="M1306 1529 L763 986 L777 986 L1320 1529 Z" /></g><g class="o"><path transform="translate(5,10)" class="S ssv" d="M1632 1903 L1552 1823 L1552 1861 L1632 1941 Z"/><path class="sv5" d="M1632 1903 L1552 1823 L1552 1861 L1632 1941 Z" /></g><g class="o"><path transform="translate(4,8)" class="S ssh" d="M1064 1093 L972 1001 L986 1001 L1078 1093 Z"/><path class="sh4" d="M1064 1093 L972 1001 L986 1001 L1078 1093 Z" /></g><g class="o"><path transform="translate(5,10)" class="S sfh" d="M1496 1702 L929 1135 L977 1135 L1544 1702 Z"/><path class="fh5" d="M1496 1702 L929 1135 L977 1135 L1544 1702 Z" /></g><g class="o"><path transform="translate(5,10)" class="S sfh" d="M1915 1265 L1820 1170 L1948 1170 L2043 1265 Z"/><path class="fh2" d="M1915 1265 L1820 1170 L1948 1170 L2043 1265 Z" /></g><g class="o"><path transform="translate(6,12)" class="S sfh" d="M956 1768 L840 1652 L960 1652 L1076 1768 Z"/><path class="fh1" d="M956 1768 L840 1652 L960 1652 L1076 1768 Z" /></g><g class="o"><path transform="translate(3,6)" class="S sfv" d="M1968 888 L1569 489 L1569 617 L1968 1016 Z"/><path class="fv6" d="M1968 888 L1569 489 L1569 617 L1968 1016 Z" /></g><g class="o"><path transform="translate(7,14)" class="S sfh" d="M1901 1382 L1752 1233 L1832 1233 L1981 1382 Z"/><path class="fh5" d="M1901 1382 L1752 1233 L1832 1233 L1981 1382 Z" /></g><g class="o"><path transform="translate(6,12)" class="S ssh" d="M1885 1984 L1795 1894 L1809 1894 L1899 1984 Z"/><path class="sh1" d="M1885 1984 L1795 1894 L1809 1894 L1899 1984 Z" /></g><g class="o"><path transform="translate(3,6)" class="S sfv" d="M1177 1286 L1116 1225 L1116 1251 L1177 1312 Z"/><path class="fv7" d="M1177 1286 L1116 1225 L1116 1251 L1177 1312 Z" /></g><g class="o"><path transform="translate(9,18)" class="S sfv" d="M1025 1814 L826 1615 L826 1651 L1025 1850 Z"/><path class="fv5" d="M1025 1814 L826 1615 L826 1651 L1025 1850 Z" /></g><g class="o"><path transform="translate(4,8)" class="S ssv" d="M1777 1613 L1605 1441 L1605 1469 L1777 1641 Z"/><path class="sv2" d="M1777 1613 L1605 1441 L1605 1469 L1777 1641 Z" /></g><g class="o"><path transform="translate(4,8)" class="S sfv" d="M960 1319 L797 1156 L797 1276 L960 1439 Z"/><path class="fv5" d="M960 1319 L797 1156 L797 1276 L960 1439 Z" /></g><g class="o"><path transform="translate(3,6)" class="S sfv" d="M1331 1682 L1085 1436 L1085 1444 L1331 1690 Z"/><path class="fv7" d="M1331 1682 L1085 1436 L1085 1444 L1331 1690 Z" /></g><g class="o"><path transform="translate(9,18)" class="S sfh" d="M1600 1283 L1408 1091 L1442 1091 L1634 1283 Z"/><path class="fh7" d="M1600 1283 L1408 1091 L1442 1091 L1634 1283 Z" /></g><g class="o"><path transform="translate(9,18)" class="S ssv" d="M977 1799 L876 1698 L876 1730 L977 1831 Z"/><path class="sv2" d="M977 1799 L876 1698 L876 1730 L977 1831 Z" /></g><g class="o"><path transform="translate(6,12)" class="S sfv" d="M1721 1597 L1665 1541 L1665 1613 L1721 1669 Z"/><path class="fv3" d="M1721 1597 L1665 1541 L1665 1613 L1721 1669 Z" /></g><g class="o"><path transform="translate(4,8)" class="S sfv" d="M1153 1213 L1023 1083 L1023 1113 L1153 1243 Z"/><path class="fv2" d="M1153 1213 L1023 1083 L1023 1113 L1153 1243 Z" /></g><g class="o"><path transform="translate(5,10)" class="S sfh" d="M1279 1475 L748 944 L844 944 L1375 1475 Z"/><path class="fh6" d="M1279 1475 L748 944 L844 944 L1375 1475 Z" /></g><g class="o"><path transform="translate(4,8)" class="S sfv" d="M1914 1063 L1788 937 L1788 993 L1914 1119 Z"/><path class="fv7" d="M1914 1063 L1788 937 L1788 993 L1914 1119 Z" /></g><g class="o"><path transform="translate(4,8)" class="S sfh" d="M1190 1578 L1009 1397 L1045 1397 L1226 1578 Z"/><path class="fh4" d="M1190 1578 L1009 1397 L1045 1397 L1226 1578 Z" /></g><g class="o"><path transform="translate(9,18)" class="S sfv" d="M1036 1496 L969 1429 L969 1455 L1036 1522 Z"/><path class="fv5" d="M1036 1496 L969 1429 L969 1455 L1036 1522 Z" /></g><g class="o"><path transform="translate(7,14)" class="S sfv" d="M1916 1541 L1842 1467 L1842 1595 L1916 1669 Z"/><path class="fv1" d="M1916 1541 L1842 1467 L1842 1595 L1916 1669 Z" /></g><g class="o"><path transform="translate(3,6)" class="S sfv" d="M1176 1294 L852 970 L852 1008 L1176 1332 Z"/><path class="fv5" d="M1176 1294 L852 970 L852 1008 L1176 1332 Z" /></g><g class="o"><path transform="translate(8,16)" class="S sfh" d="M1593 1445 L1525 1377 L1549 1377 L1617 1445 Z"/><path class="fh6" d="M1593 1445 L1525 1377 L1549 1377 L1617 1445 Z" /></g><g class="o"><path transform="translate(8,16)" class="S sfh" d="M1927 1414 L1777 1264 L1789 1264 L1939 1414 Z"/><path class="fh3" d="M1927 1414 L1777 1264 L1789 1264 L1939 1414 Z" /></g><g class="o"><path transform="translate(6,12)" class="S sfv" d="M1160 1901 L996 1737 L996 1757 L1160 1921 Z"/><path class="fv2" d="M1160 1901 L996 1737 L996 1757 L1160 1921 Z" /></g><g class="o"><path transform="translate(8,16)" class="S sfh" d="M1499 1861 L1306 1668 L1342 1668 L1535 1861 Z"/><path class="fh7" d="M1499 1861 L1306 1668 L1342 1668 L1535 1861 Z" /></g><g class="o"><path transform="translate(3,6)" class="S sfv" d="M1297 1304 L1218 1225 L1218 1353 L1297 1432 Z"/><path class="fv2" d="M1297 1304 L1218 1225 L1218 1353 L1297 1432 Z" /></g><g class="o"><path transform="translate(2,4)" class="S sfh" d="M1545 1901 L1399 1755 L1417 1755 L1563 1901 Z"/><path class="fh3" d="M1545 1901 L1399 1755 L1417 1755 L1563 1901 Z" /></g><g class="o"><path transform="translate(7,14)" class="S sfh" d="M1408 1582 L793 967 L809 967 L1424 1582 Z"/><path class="fh2" d="M1408 1582 L793 967 L809 967 L1424 1582 Z" /></g><g class="o"><path transform="translate(8,16)" class="S ssv" d="M1439 1686 L1329 1576 L1329 1632 L1439 1742 Z"/><path class="sv4" d="M1439 1686 L1329 1576 L1329 1632 L1439 1742 Z" /></g><g class="o"><path transform="translate(4,8)" class="S sfh" d="M1750 1407 L1552 1209 L1568 1209 L1766 1407 Z"/><path class="fh1" d="M1750 1407 L1552 1209 L1568 1209 L1766 1407 Z" /></g><g class="o"><path transform="translate(9,18)" class="S sfh" d="M1230 1277 L1144 1191 L1162 1191 L1248 1277 Z"/><path class="fh5" d="M1230 1277 L1144 1191 L1162 1191 L1248 1277 Z" /></g><g class="o"><path transform="translate(8,16)" class="S sfv" d="M1560 1320 L951 711 L951 739 L1560 1348 Z"/><path class="fv6" d="M1560 1320 L951 711 L951 739 L1560 1348 Z" /></g><g class="o"><path transform="translate(2,4)" class="S sfh" d="M1647 1376 L1471 1200 L1583 1200 L1759 1376 Z"/><path class="fh4" d="M1647 1376 L1471 1200 L1583 1200 L1759 1376 Z" /></g><g class="o"><path transform="translate(9,18)" class="S sfh" d="M1269 1479 L1183 1393 L1191 1393 L1277 1479 Z"/><path class="fh2" d="M1269 1479 L1183 1393 L1191 1393 L1277 1479 Z" /></g><g class="o"><path transform="translate(5,10)" class="S sfv" d="M1116 1384 L911 1179 L911 1219 L1116 1424 Z"/><path class="fv7" d="M1116 1384 L911 1179 L911 1219 L1116 1424 Z" /></g><g class="o"><path transform="translate(5,10)" class="S sfh" d="M1151 1312 L911 1072 L967 1072 L1207 1312 Z"/><path class="fh4" d="M1151 1312 L911 1072 L967 1072 L1207 1312 Z" /></g><g class="o"><path transform="translate(5,10)" class="S sfv" d="M1309 2029 L1074 1794 L1074 1834 L1309 2069 Z"/><path class="fv2" d="M1309 2029 L1074 1794 L1074 1834 L1309 2069 Z" /></g><g class="o"><path transform="translate(3,6)" class="S sfh" d="M2026 1515 L1790 1279 L1824 1279 L2060 1515 Z"/><path class="fh3" d="M2026 1515 L1790 1279 L1824 1279 L2060 1515 Z" /></g><g class="o"><path transform="translate(9,18)" class="S ssv" d="M1765 1780 L1604 1619 L1604 1639 L1765 1800 Z"/><path class="sv7" d="M1765 1780 L1604 1619 L1604 1639 L1765 1800 Z" /></g><g class="o"><path transform="translate(2,4)" class="S sfh" d="M998 1773 L802 1577 L840 1577 L1036 1773 Z"/><path class="fh3" d="M998 1773 L802 1577 L840 1577 L1036 1773 Z" /></g><g class="o"><path transform="translate(5,10)" class="S ssv" d="M1622 1842 L1509 1729 L1509 1763 L1622 1876 Z"/><path class="sv2" d="M1622 1842 L1509 1729 L1509 1763 L1622 1876 Z" /></g><g class="o"><path transform="translate(2,4)" class="S sfv" d="M1838 1074 L1604 840 L1604 920 L1838 1154 Z"/><path class="fv3" d="M1838 1074 L1604 840 L1604 920 L1838 1154 Z" /></g><g class="o"><path transform="translate(5,10)" class="S ssh" d="M1049 1546 L901 1398 L927 1398 L1075 1546 Z"/><path class="sh3" d="M1049 1546 L901 1398 L927 1398 L1075 1546 Z" /></g><g class="o"><path transform="translate(6,12)" class="S ssv" d="M1428 1117 L1350 1039 L1350 1151 L1428 1229 Z"/><path class="sv2" d="M1428 1117 L1350 1039 L1350 1151 L1428 1229 Z" /></g></g><use href="#slashes" transform-origin="1500 1500" transform="rotate(180) scale(2)"/></g><circle cx="1500" cy="1500" r="450" stroke-width="40" class="o f2" /><use href="#slashes" transform-origin="1500 1500" transform="scale(1.3)"/><use href="#slashes" transform-origin="1500 1500" transform="rotate(180) scale(.7)"/></svg>