<svg xmlns="http://www.w3.org/2000/svg" viewBox="750 750 1500 1500"><style>/*<![CDATA[*/svg{background:rgb(241,232,230);max-width:100vw;max-height:100vh}path{stroke-width:4}.o{opacity:.75}.S{opacity:.4}.sf{stroke:none;fill:black}.sfh{stroke:none;fill:url(#hs)}.sfv{stroke:none;fill:url(#vs)}.ss{stroke:black;fill:none}.ssh{stroke:url(#hs);fill:none}.ssv{stroke:url(#vs);fill:none}.s1{fill:none;stroke:rgb(237,210,203)}.f1{stroke:none;fill:rgb(237,210,203)}.sh1{fill:none;stroke:url(#h1)}.fh1{stroke:none;fill:url(#h1)}.sv1{fill:none;stroke:url(#v1)}.fv1{stroke:none;fill:url(#v1)}.s2{fill:none;stroke:rgb(34,34,34)}.f2{stroke:none;fill:rgb(34,34,34)}.sh2{fill:none;stroke:url(#h2)}.fh2{stroke:none;fill:url(#h2)}.sv2{fill:none;stroke:url(#v2)}.fv2{stroke:none;fill:url(#v2)}.s3{fill:none;stroke:rgb(84,60,82)}.f3{stroke:none;fill:rgb(84,60,82)}.sh3{fill:none;stroke:url(#h3)}.fh3{stroke:none;fill:url(#h3)}.sv3{fill:none;stroke:url(#v3)}.fv3{stroke:none;fill:url(#v3)}.s4{fill:none;stroke:rgb(54,29,50)}.f4{stroke:none;fill:rgb(54,29,50)}.sh4{fill:none;stroke:url(#h4)}.fh4{stroke:none;fill:url(#h4)}.sv4{fill:none;stroke:url(#v4)}.fv4{stroke:none;fill:url(#v4)}.s5{fill:none;stroke:rgb(245,89,81)}.f5{stroke:none;fill:rgb(245,89,81)}.sh5{fill:none;stroke:url(#h5)}.fh5{stroke:none;fill:url(#h5)}.sv5{fill:none;stroke:url(#v5)}.fv5{stroke:none;fill:url(#v5)}.s6{fill:none;stroke:rgb(255,255,255)}.f6{stroke:none;fill:rgb(255,255,255)}.sh6{fill:none;stroke:url(#h6)}.fh6{stroke:none;fill:url(#h6)}.sv6{fill:none;stroke:url(#v6)}.fv6{stroke:none;fill:url(#v6)}.s7{fill:none;stroke:rgb(255,255,0)}.f7{stroke:none;fill:rgb(255,255,0)}.sh7{fill:none;stroke:url(#h7)}.fh7{stroke:none;fill:url(#h7)}.sv7{fill:none;stroke:url(#v7)}.fv7{stroke:none;fill:url(#v7)}/*]]>*/</style><defs><linearGradient gradientTransform="rotate(90)" id="hs"><stop offset="20%" stop-color="#000" /><stop offset="95%" stop-color="rgba(0, 0, 0, 0)" /></linearGradient><linearGradient id="vs"><stop offset="20%" stop-color="#000" /><stop offset="95%" stop-color="rgba(0, 0, 0, 0)" /></linearGradient><linearGradient gradientTransform="rotate(90)" id="h1"><stop offset="20%" stop-color="rgba(237,210,203,1)" /><stop offset="95%" stop-color="rgba(237,210,203,0)" /></linearGradient><linearGradient id="v1"><stop offset="20%" stop-color="rgba(237,210,203,1)" /><stop offset="95%" stop-color="rgba(237,210,203,0)" /></linearGradient><linearGradient gradientTransform="rotate(90)" id="h2"><stop offset="20%" stop-color="rgba(34,34,34,1)" /><stop offset="95%" stop-color="rgba(34,34,34,0)" /></linearGradient><linearGradient id="v2"><stop offset="20%" stop-color="rgba(34,34,34,1)" /><stop offset="95%" stop-color="rgba(34,34,34,0)" /></linearGradient><linearGradient gradientTransform="rotate(90)" id="h3"><stop offset="20%" stop-color="rgba(84,60,82,1)" /><stop offset="95%" stop-color="rgba(84,60,82,0)" /></linearGradient><linearGradient id="v3"><stop offset="20%" stop-color="rgba(84,60,82,1)" /><stop offset="95%" stop-color="rgba(84,60,82,0)" /></linearGradient><linearGradient gradientTransform="rotate(90)" id="h4"><stop offset="20%" stop-color="rgba(54,29,50,1)" /><stop offset="95%" stop-color="rgba(54,29,50,0)" /></linearGradient><linearGradient id="v4"><stop offset="20%" stop-color="rgba(54,29,50,1)" /><stop offset="95%" stop-color="rgba(54,29,50,0)" /></linearGradient><linearGradient gradientTransform="rotate(90)" id="h5"><stop offset="20%" stop-color="rgba(245,89,81,1)" /><stop offset="95%" stop-color="rgba(245,89,81,0)" /></linearGradient><linearGradient id="v5"><stop offset="20%" stop-color="rgba(245,89,81,1)" /><stop offset="95%" stop-color="rgba(245,89,81,0)" /></linearGradient><linearGradient gradientTransform="rotate(90)" id="h6"><stop offset="20%" stop-color="rgba(255,255,255,1)" /><stop offset="95%" stop-color="rgba(255,255,255,0)" /></linearGradient><linearGradient id="v6"><stop offset="20%" stop-color="rgba(255,255,255,1)" /><stop offset="95%" stop-color="rgba(255,255,255,0)" /></linearGradient><linearGradient gradientTransform="rotate(90)" id="h7"><stop offset="20%" stop-color="rgba(255,255,0,1)" /><stop offset="95%" stop-color="rgba(255,255,0,0)" /></linearGradient><linearGradient id="v7"><stop offset="20%" stop-color="rgba(255,255,0,1)" /><stop offset="95%" stop-color="rgba(255,255,0,0)" /></linearGradient></defs><g transform-origin="1500 1500" transform="scale(2)" opacity=".2"><g id="slashes"><g class="o"><path transform="translate(4,8)" class="S sf" d="M986 1959 L575 1548 L575 1560 L986 1971 Z"/><path class="f4" d="M986 1959 L575 1548 L575 1560 L986 1971 Z" /></g><g class="o"><path transform="translate(6,12)" class="S sfv" d="M1395 1676 L1163 1444 L1163 1480 L1395 1712 Z"/><path class="fv3" d="M1395 1676 L1163 1444 L1163 1480 L1395 1712 Z" /></g><g class="o"><path transform="translate(9,18)" class="S ss" d="M1914 1140 L1740 1314 L1762 1314 L1936 1140 Z"/><path class="s2" d="M1914 1140 L1740 1314 L1762 1314 L1936 1140 Z" /></g><g class="o"><path transform="translate(3,6)" class="S ssh" d="M1343 1914 L1149 1720 L1177 1720 L1371 1914 Z"/><path class="sh7" d="M1343 1914 L1149 1720 L1177 1720 L1371 1914 Z" /></g><g class="o"><path transform="translate(9,18)" class="S sfh" d="M1024 1089 L505 1608 L533 1608 L1052 1089 Z"/><path class="fh4" d="M1024 1089 L505 1608 L533 1608 L1052 1089 Z" /></g><g class="o"><path transform="translate(4,8)" class="S sfv" d="M1037 1430 L820 1647 L820 1685 L1037 1468 Z"/><path class="fv7" d="M1037 1430 L820 1647 L820 1685 L1037 1468 Z" /></g><g class="o"><path transform="translate(3,6)" class="S ssh" d="M1032 1813 L847 1628 L859 1628 L1044 1813 Z"/><path class="sh4" d="M1032 1813 L847 1628 L859 1628 L1044 1813 Z" /></g><g class="o"><path transform="translate(2,4)" class="S sf" d="M961 1952 L890 1881 L902 1881 L973 1952 Z"/><path class="f2" d="M961 1952 L890 1881 L902 1881 L973 1952 Z" /></g><g class="o"><path transform="translate(3,6)" class="S sfh" d="M1879 1187 L1811 1119 L1833 1119 L1901 1187 Z"/><path class="fh4" d="M1879 1187 L1811 1119 L1833 1119 L1901 1187 Z" /></g><g class="o"><path transform="translate(4,8)" class="S sfv" d="M1232 1892 L1016 2108 L1016 2130 L1232 1914 Z"/><path class="fv1" d="M1232 1892 L1016 2108 L1016 2130 L1232 1914 Z" /></g><g class="o"><path transform="translate(8,16)" class="S sfv" d="M1030 1688 L867 1851 L867 1867 L1030 1704 Z"/><path class="fv3" d="M1030 1688 L867 1851 L867 1867 L1030 1704 Z" /></g><g class="o"><path transform="translate(2,4)" class="S ssv" d="M1377 1761 L1224 1608 L1224 1632 L1377 1785 Z"/><path class="sv5" d="M1377 1761 L1224 1608 L1224 1632 L1377 1785 Z" /></g><g class="o"><path transform="translate(3,6)" class="S sfv" d="M1633 1591 L1408 1366 L1408 1396 L1633 1621 Z"/><path class="fv2" d="M1633 1591 L1408 1366 L1408 1396 L1633 1621 Z" /></g><g class="o"><path transform="translate(6,12)" class="S ssh" d="M1089 2020 L901 1832 L915 1832 L1103 2020 Z"/><path class="sh7" d="M1089 2020 L901 1832 L915 1832 L1103 2020 Z" /></g><g class="o"><path transform="translate(9,18)" class="S sfv" d="M1259 989 L1036 1212 L1036 1226 L1259 1003 Z"/><path class="fv3" d="M1259 989 L1036 1212 L1036 1226 L1259 1003 Z" /></g><g class="o"><path transform="translate(6,12)" class="S sfv" d="M1047 1416 L938 1307 L938 1321 L1047 1430 Z"/><path class="fv1" d="M1047 1416 L938 1307 L938 1321 L1047 1430 Z" /></g><g class="o"><path transform="translate(2,4)" class="S ssv" d="M1448 1702 L1391 1645 L1391 1685 L1448 1742 Z"/><path class="sv1" d="M1448 1702 L1391 1645 L1391 1685 L1448 1742 Z" /></g><g class="o"><path transform="translate(7,14)" class="S sfv" d="M1417 1026 L1173 1270 L1173 1298 L1417 1054 Z"/><path class="fv5" d="M1417 1026 L1173 1270 L1173 1298 L1417 1054 Z" /></g><g class="o"><path transform="translate(6,12)" class="S sfv" d="M1131 1818 L1009 1940 L1009 1956 L1131 1834 Z"/><path class="fv5" d="M1131 1818 L1009 1940 L1009 1956 L1131 1834 Z" /></g><g class="o"><path transform="translate(4,8)" class="S ssv" d="M1948 1579 L1719 1808 L1719 1836 L1948 1607 Z"/><path class="sv3" d="M1948 1579 L1719 1808 L1719 1836 L1948 1607 Z" /></g><g class="o"><path transform="translate(8,16)" class="S sf" d="M1731 1541 L1562 1372 L1562 1392 L1731 1561 Z"/><path class="f4" d="M1731 1541 L1562 1372 L1562 1392 L1731 1561 Z" /></g><g class="o"><path transform="translate(3,6)" class="S sfv" d="M1904 1646 L1694 1856 L1694 1880 L1904 1670 Z"/><path class="fv5" d="M1904 1646 L1694 1856 L1694 1880 L1904 1670 Z" /></g><g class="o"><path transform="translate(4,8)" class="S sfv" d="M1542 1783 L1344 1585 L1344 1605 L1542 1803 Z"/><path class="fv1" d="M1542 1783 L1344 1585 L1344 1605 L1542 1803 Z" /></g><g class="o"><path transform="translate(5,10)" class="S sfh" d="M1468 1039 L1396 1111 L1408 1111 L1480 1039 Z"/><path class="fh5" d="M1468 1039 L1396 1111 L1408 1111 L1480 1039 Z" /></g><g class="o"><path transform="translate(6,12)" class="S sfv" d="M1578 1014 L1455 891 L1455 929 L1578 1052 Z"/><path class="fv6" d="M1578 1014 L1455 891 L1455 929 L1578 1052 Z" /></g><g class="o"><path transform="translate(8,16)" class="S sfv" d="M1741 1532 L1546 1337 L1546 1351 L1741 1546 Z"/><path class="fv6" d="M1741 1532 L1546 1337 L1546 1351 L1741 1546 Z" /></g><g class="o"><path transform="translate(9,18)" class="S sfv" d="M1316 1757 L1113 1554 L1113 1590 L1316 1793 Z"/><path class="fv1" d="M1316 1757 L1113 1554 L1113 1590 L1316 1793 Z" /></g><g class="o"><path transform="translate(6,12)" class="S ssv" d="M1101 1220 L923 1042 L923 1068 L1101 1246 Z"/><path class="sv6" d="M1101 1220 L923 1042 L923 1068 L1101 1246 Z" /></g><g class="o"><path transform="translate(7,14)" class="S ssv" d="M1397 1253 L1317 1173 L1317 1187 L1397 1267 Z"/><path class="sv2" d="M1397 1253 L1317 1173 L1317 1187 L1397 1267 Z" /></g><g class="o"><path transform="translate(9,18)" class="S sfv" d="M1883 1639 L1768 1754 L1768 1788 L1883 1673 Z"/><path class="fv2" d="M1883 1639 L1768 1754 L1768 1788 L1883 1673 Z" /></g><g class="o"><path transform="translate(9,18)" class="S sf" d="M1104 993 L971 860 L999 860 L1132 993 Z"/><path class="f4" d="M1104 993 L971 860 L999 860 L1132 993 Z" /></g><g class="o"><path transform="translate(7,14)" class="S sfv" d="M1128 1823 L453 1148 L453 1168 L1128 1843 Z"/><path class="fv6" d="M1128 1823 L453 1148 L453 1168 L1128 1843 Z" /></g><g class="o"><path transform="translate(5,10)" class="S sfh" d="M1658 1711 L1522 1847 L1530 1847 L1666 1711 Z"/><path class="fh7" d="M1658 1711 L1522 1847 L1530 1847 L1666 1711 Z" /></g><g class="o"><path transform="translate(6,12)" class="S sfv" d="M1840 1562 L1694 1708 L1694 1734 L1840 1588 Z"/><path class="fv4" d="M1840 1562 L1694 1708 L1694 1734 L1840 1588 Z" /></g><g class="o"><path transform="translate(7,14)" class="S sfv" d="M1268 1856 L1112 2012 L1112 2030 L1268 1874 Z"/><path class="fv7" d="M1268 1856 L1112 2012 L1112 2030 L1268 1874 Z" /></g><g class="o"><path transform="translate(4,8)" class="S sfv" d="M977 1898 L772 1693 L772 1727 L977 1932 Z"/><path class="fv1" d="M977 1898 L772 1693 L772 1727 L977 1932 Z" /></g><g class="o"><path transform="translate(3,6)" class="S sfh" d="M1761 1673 L1556 1468 L1708 1468 L1913 1673 Z"/><path class="fh2" d="M1761 1673 L1556 1468 L1708 1468 L1913 1673 Z" /></g><g class="o"><path transform="translate(7,14)" class="S sfh" d="M1691 1507 L1475 1723 L1507 1723 L1723 1507 Z"/><path class="fh1" d="M1691 1507 L1475 1723 L1507 1723 L1723 1507 Z" /></g><g class="o"><path transform="translate(8,16)" class="S sfh" d="M1875 1132 L1689 1318 L1719 1318 L1905 1132 Z"/><path class="fh5" d="M1875 1132 L1689 1318 L1719 1318 L1905 1132 Z" /></g><g class="o"><path transform="translate(9,18)" class="S sfh" d="M1394 1866 L1316 1788 L1336 1788 L1414 1866 Z"/><path class="fh6" d="M1394 1866 L1316 1788 L1336 1788 L1414 1866 Z" /></g><g class="o"><path transform="translate(8,16)" class="S sfh" d="M1318 993 L1154 1157 L1176 1157 L1340 993 Z"/><path class="fh4" d="M1318 993 L1154 1157 L1176 1157 L1340 993 Z" /></g><g class="o"><path transform="translate(7,14)" class="S sfv" d="M1882 1014 L1803 935 L1803 969 L1882 1048 Z"/><path class="fv1" d="M1882 1014 L1803 935 L1803 969 L1882 1048 Z" /></g><g class="o"><path transform="translate(3,6)" class="S sfv" d="M1515 1757 L1302 1544 L1302 1566 L1515 1779 Z"/><path class="fv7" d="M1515 1757 L1302 1544 L1302 1566 L1515 1779 Z" /></g><g class="o"><path transform="translate(6,12)" class="S sf" d="M1161 1662 L1057 1558 L1057 1570 L1161 1674 Z"/><path class="f1" d="M1161 1662 L1057 1558 L1057 1570 L1161 1674 Z" /></g><g class="o"><path transform="translate(5,10)" class="S ssv" d="M1936 1391 L1856 1311 L1856 1339 L1936 1419 Z"/><path class="sv5" d="M1936 1391 L1856 1311 L1856 1339 L1936 1419 Z" /></g><g class="o"><path transform="translate(3,6)" class="S sfv" d="M1508 1319 L1322 1505 L1322 1527 L1508 1341 Z"/><path class="fv1" d="M1508 1319 L1322 1505 L1322 1527 L1508 1341 Z" /></g><g class="o"><path transform="translate(8,16)" class="S sfh" d="M1915 1860 L1709 1654 L1745 1654 L1951 1860 Z"/><path class="fh7" d="M1915 1860 L1709 1654 L1745 1654 L1951 1860 Z" /></g><g class="o"><path transform="translate(6,12)" class="S sfh" d="M1747 1718 L1617 1588 L1645 1588 L1775 1718 Z"/><path class="fh6" d="M1747 1718 L1617 1588 L1645 1588 L1775 1718 Z" /></g><g class="o"><path transform="translate(3,6)" class="S sf" d="M1246 1586 L1013 1819 L1013 1843 L1246 1610 Z"/><path class="f2" d="M1246 1586 L1013 1819 L1013 1843 L1246 1610 Z" /></g><g class="o"><path transform="translate(7,14)" class="S sfh" d="M1438 1480 L1353 1395 L1389 1395 L1474 1480 Z"/><path class="fh3" d="M1438 1480 L1353 1395 L1389 1395 L1474 1480 Z" /></g><g class="o"><path transform="translate(2,4)" class="S sfv" d="M1530 1222 L1376 1376 L1376 1398 L1530 1244 Z"/><path class="fv3" d="M1530 1222 L1376 1376 L1376 1398 L1530 1244 Z" /></g><g class="o"><path transform="translate(9,18)" class="S ssv" d="M1674 1404 L942 2136 L942 2156 L1674 1424 Z"/><path class="sv4" d="M1674 1404 L942 2136 L942 2156 L1674 1424 Z" /></g><g class="o"><path transform="translate(6,12)" class="S sfh" d="M1892 967 L1842 917 L1954 917 L2004 967 Z"/><path class="fh1" d="M1892 967 L1842 917 L1954 917 L2004 967 Z" /></g><g class="o"><path transform="translate(2,4)" class="S sf" d="M1703 1129 L1553 979 L1553 1011 L1703 1161 Z"/><path class="f4" d="M1703 1129 L1553 979 L1553 1011 L1703 1161 Z" /></g><g class="o"><path transform="translate(9,18)" class="S sfv" d="M1872 1729 L1659 1942 L1659 1966 L1872 1753 Z"/><path class="fv7" d="M1872 1729 L1659 1942 L1659 1966 L1872 1753 Z" /></g><g class="o"><path transform="translate(6,12)" class="S sfv" d="M1936 1888 L1303 1255 L1303 1283 L1936 1916 Z"/><path class="fv2" d="M1936 1888 L1303 1255 L1303 1283 L1936 1916 Z" /></g><g class="o"><path transform="translate(5,10)" class="S sf" d="M1651 1405 L1021 2035 L1021 2059 L1651 1429 Z"/><path class="f6" d="M1651 1405 L1021 2035 L1021 2059 L1651 1429 Z" /></g><g class="o"><path transform="translate(3,6)" class="S sfh" d="M1592 1806 L1396 2002 L1414 2002 L1610 1806 Z"/><path class="fh4" d="M1592 1806 L1396 2002 L1414 2002 L1610 1806 Z" /></g><g class="o"><path transform="translate(6,12)" class="S sf" d="M1514 1363 L1271 1120 L1271 1130 L1514 1373 Z"/><path class="f1" d="M1514 1363 L1271 1120 L1271 1130 L1514 1373 Z" /></g><g class="o"><path transform="translate(4,8)" class="S ssv" d="M1177 1658 L980 1855 L980 1883 L1177 1686 Z"/><path class="sv6" d="M1177 1658 L980 1855 L980 1883 L1177 1686 Z" /></g><g class="o"><path transform="translate(6,12)" class="S sfv" d="M1425 1876 L1278 1729 L1278 1765 L1425 1912 Z"/><path class="fv3" d="M1425 1876 L1278 1729 L1278 1765 L1425 1912 Z" /></g><g class="o"><path transform="translate(6,12)" class="S sfh" d="M1352 1684 L1244 1792 L1268 1792 L1376 1684 Z"/><path class="fh2" d="M1352 1684 L1244 1792 L1268 1792 L1376 1684 Z" /></g><g class="o"><path transform="translate(3,6)" class="S ssv" d="M1191 1092 L980 1303 L980 1341 L1191 1130 Z"/><path class="sv7" d="M1191 1092 L980 1303 L980 1341 L1191 1130 Z" /></g><g class="o"><path transform="translate(8,16)" class="S ssv" d="M1451 1006 L1337 892 L1337 926 L1451 1040 Z"/><path class="sv1" d="M1451 1006 L1337 892 L1337 926 L1451 1040 Z" /></g><g class="o"><path transform="translate(3,6)" class="S sfv" d="M1885 1392 L1823 1454 L1823 1478 L1885 1416 Z"/><path class="fv7" d="M1885 1392 L1823 1454 L1823 1478 L1885 1416 Z" /></g><g class="o"><path transform="translate(8,16)" class="S sfh" d="M2031 1511 L1862 1342 L1884 1342 L2053 1511 Z"/><path class="fh2" d="M2031 1511 L1862 1342 L1884 1342 L2053 1511 Z" /></g><g class="o"><path transform="translate(2,4)" class="S sfv" d="M1965 1244 L1853 1132 L1853 1142 L1965 1254 Z"/><path class="fv3" d="M1965 1244 L1853 1132 L1853 1142 L1965 1254 Z" /></g><g class="o"><path transform="translate(6,12)" class="S sfh" d="M1018 1227 L967 1176 L989 1176 L1040 1227 Z"/><path class="fh7" d="M1018 1227 L967 1176 L989 1176 L1040 1227 Z" /></g><g class="o"><path transform="translate(6,12)" class="S sf" d="M1543 1301 L1204 1640 L1204 1744 L1543 1405 Z"/><path class="f5" d="M1543 1301 L1204 1640 L1204 1744 L1543 1405 Z" /></g><g class="o"><path transform="translate(9,18)" class="S ssh" d="M1223 1918 L1030 1725 L1066 1725 L1259 1918 Z"/><path class="sh3" d="M1223 1918 L1030 1725 L1066 1725 L1259 1918 Z" /></g><g class="o"><path transform="translate(6,12)" class="S ssv" d="M1438 1016 L1294 1160 L1294 1170 L1438 1026 Z"/><path class="sv1" d="M1438 1016 L1294 1160 L1294 1170 L1438 1026 Z" /></g><g class="o"><path transform="translate(6,12)" class="S ss" d="M1456 1625 L1244 1413 L1260 1413 L1472 1625 Z"/><path class="s2" d="M1456 1625 L1244 1413 L1260 1413 L1472 1625 Z" /></g><g class="o"><path transform="translate(8,16)" class="S sfh" d="M1488 1349 L819 2018 L831 2018 L1500 1349 Z"/><path class="fh7" d="M1488 1349 L819 2018 L831 2018 L1500 1349 Z" /></g><g class="o"><path transform="translate(9,18)" class="S sf" d="M1125 1827 L956 1658 L966 1658 L1135 1827 Z"/><path class="f3" d="M1125 1827 L956 1658 L966 1658 L1135 1827 Z" /></g><g class="o"><path transform="translate(7,14)" class="S ss" d="M1127 1830 L1022 1935 L1042 1935 L1147 1830 Z"/><path class="s7" d="M1127 1830 L1022 1935 L1042 1935 L1147 1830 Z" /></g><g class="o"><path transform="translate(3,6)" class="S sfh" d="M1836 1241 L1731 1136 L1741 1136 L1846 1241 Z"/><path class="fh5" d="M1836 1241 L1731 1136 L1741 1136 L1846 1241 Z" /></g><g class="o"><path transform="translate(8,16)" class="S sfv" d="M1314 1073 L1192 951 L1192 977 L1314 1099 Z"/><path class="fv7" d="M1314 1073 L1192 951 L1192 977 L1314 1099 Z" /></g><g class="o"><path transform="translate(5,10)" class="S ssh" d="M1261 1874 L1024 2111 L1034 2111 L1271 1874 Z"/><path class="sh7" d="M1261 1874 L1024 2111 L1034 2111 L1271 1874 Z" /></g><g class="o"><path transform="translate(9,18)" class="S sfv" d="M1747 1736 L1664 1653 L1664 1749 L1747 1832 Z"/><path class="fv2" d="M1747 1736 L1664 1653 L1664 1749 L1747 1832 Z" /></g><g class="o"><path transform="translate(6,12)" class="S ssh" d="M1401 1202 L1221 1382 L1255 1382 L1435 1202 Z"/><path class="sh2" d="M1401 1202 L1221 1382 L1255 1382 L1435 1202 Z" /></g><g class="o"><path transform="translate(2,4)" class="S sfv" d="M2017 2014 L1880 1877 L1880 1899 L2017 2036 Z"/><path class="fv1" d="M2017 2014 L1880 1877 L1880 1899 L2017 2036 Z" /></g><g class="o"><path transform="translate(8,16)" class="S sfh" d="M1617 1409 L1014 2012 L1052 2012 L1655 1409 Z"/><path class="fh1" d="M1617 1409 L1014 2012 L1052 2012 L1655 1409 Z" /></g><g class="o"><path transform="translate(9,18)" class="S sf" d="M1597 1453 L1453 1309 L1453 1329 L1597 1473 Z"/><path class="f3" d="M1597 1453 L1453 1309 L1453 1329 L1597 1473 Z" /></g><g class="o"><path transform="translate(3,6)" class="S sfh" d="M1233 1537 L1043 1727 L1071 1727 L1261 1537 Z"/><path class="fh3" d="M1233 1537 L1043 1727 L1071 1727 L1261 1537 Z" /></g><g class="o"><path transform="translate(4,8)" class="S sfh" d="M1482 1684 L996 2170 L1034 2170 L1520 1684 Z"/><path class="fh2" d="M1482 1684 L996 2170 L1034 2170 L1520 1684 Z" /></g><g class="o"><path transform="translate(4,8)" class="S sfv" d="M1530 1327 L1397 1194 L1397 1228 L1530 1361 Z"/><path class="fv3" d="M1530 1327 L1397 1194 L1397 1228 L1530 1361 Z" /></g><g class="o"><path transform="translate(3,6)" class="S sfh" d="M1373 1286 L782 1877 L812 1877 L1403 1286 Z"/><path class="fh6" d="M1373 1286 L782 1877 L812 1877 L1403 1286 Z" /></g><g class="o"><path transform="translate(2,4)" class="S sfh" d="M1731 1208 L1535 1404 L1567 1404 L1763 1208 Z"/><path class="fh7" d="M1731 1208 L1535 1404 L1567 1404 L1763 1208 Z" /></g><g class="o"><path transform="translate(7,14)" class="S ssv" d="M2010 1286 L1808 1488 L1808 1514 L2010 1312 Z"/><path class="sv3" d="M2010 1286 L1808 1488 L1808 1514 L2010 1312 Z" /></g><g class="o"><path transform="translate(5,10)" class="S ss" d="M1416 1015 L1230 1201 L1230 1233 L1416 1047 Z"/><path class="s6" d="M1416 1015 L1230 1201 L1230 1233 L1416 1047 Z" /></g><g class="o"><path transform="translate(9,18)" class="S sfh" d="M994 1689 L875 1570 L911 1570 L1030 1689 Z"/><path class="fh4" d="M994 1689 L875 1570 L911 1570 L1030 1689 Z" /></g><g class="o"><path transform="translate(9,18)" class="S sfv" d="M1881 1008 L1693 820 L1693 948 L1881 1136 Z"/><path class="fv1" d="M1881 1008 L1693 820 L1693 948 L1881 1136 Z" /></g><g class="o"><path transform="translate(6,12)" class="S sfv" d="M1715 989 L1424 698 L1424 726 L1715 1017 Z"/><path class="fv1" d="M1715 989 L1424 698 L1424 726 L1715 1017 Z" /></g><g class="o"><path transform="translate(3,6)" class="S sfv" d="M1548 1341 L1431 1458 L1431 1478 L1548 1361 Z"/><path class="fv1" d="M1548 1341 L1431 1458 L1431 1478 L1548 1361 Z" /></g><g class="o"><path transform="translate(2,4)" class="S sf" d="M1337 1120 L1110 893 L1126 893 L1353 1120 Z"/><path class="f6" d="M1337 1120 L1110 893 L1126 893 L1353 1120 Z" /></g><g class="o"><path transform="translate(7,14)" class="S sf" d="M1458 1570 L1280 1748 L1290 1748 L1468 1570 Z"/><path class="f5" d="M1458 1570 L1280 1748 L1290 1748 L1468 1570 Z" /></g><g class="o"><path transform="translate(9,18)" class="S sfh" d="M1605 1334 L1353 1082 L1367 1082 L1619 1334 Z"/><path class="fh1" d="M1605 1334 L1353 1082 L1367 1082 L1619 1334 Z" /></g><g class="o"><path transform="translate(5,10)" class="S sfh" d="M1349 1703 L1229 1823 L1253 1823 L1373 1703 Z"/><path class="fh6" d="M1349 1703 L1229 1823 L1253 1823 L1373 1703 Z" /></g><g class="o"><path transform="translate(3,6)" class="S ss" d="M950 1607 L787 1444 L815 1444 L978 1607 Z"/><path class="s1" d="M950 1607 L787 1444 L815 1444 L978 1607 Z" /></g><g class="o"><path transform="translate(5,10)" class="S ssh" d="M1651 1390 L1069 1972 L1089 1972 L1671 1390 Z"/><path class="sh6" d="M1651 1390 L1069 1972 L1089 1972 L1671 1390 Z" /></g><g class="o"><path transform="translate(5,10)" class="S sfv" d="M1216 1777 L1001 1562 L1001 1598 L1216 1813 Z"/><path class="fv4" d="M1216 1777 L1001 1562 L1001 1598 L1216 1813 Z" /></g><g class="o"><path transform="translate(7,14)" class="S sfh" d="M1605 1153 L1406 1352 L1442 1352 L1641 1153 Z"/><path class="fh2" d="M1605 1153 L1406 1352 L1442 1352 L1641 1153 Z" /></g><g class="o"><path transform="translate(6,12)" class="S sfh" d="M1469 1068 L1271 1266 L1399 1266 L1597 1068 Z"/><path class="fh2" d="M1469 1068 L1271 1266 L1399 1266 L1597 1068 Z" /></g><g class="o"><path transform="translate(6,12)" class="S ssh" d="M1202 1002 L1131 931 L1161 931 L1232 1002 Z"/><path class="sh2" d="M1202 1002 L1131 931 L1161 931 L1232 1002 Z" /></g><g class="o"><path transform="translate(3,6)" class="S sfh" d="M1859 952 L1792 885 L1820 885 L1887 952 Z"/><path class="fh1" d="M1859 952 L1792 885 L1820 885 L1887 952 Z" /></g><g class="o"><path transform="translate(5,10)" class="S ssv" d="M1464 1573 L969 2068 L969 2076 L1464 1581 Z"/><path class="sv5" d="M1464 1573 L969 2068 L969 2076 L1464 1581 Z" /></g><g class="o"><path transform="translate(7,14)" class="S sfv" d="M1237 1229 L691 683 L691 719 L1237 1265 Z"/><path class="fv3" d="M1237 1229 L691 683 L691 719 L1237 1265 Z" /></g><g class="o"><path transform="translate(9,18)" class="S sfv" d="M1453 1863 L1384 1794 L1384 1810 L1453 1879 Z"/><path class="fv5" d="M1453 1863 L1384 1794 L1384 1810 L1453 1879 Z" /></g><g class="o"><path transform="translate(7,14)" class="S sfh" d="M1615 1495 L1093 2017 L1117 2017 L1639 1495 Z"/><path class="fh7" d="M1615 1495 L1093 2017 L1117 2017 L1639 1495 Z" /></g><g class="o"><path transform="translate(5,10)" class="S sfv" d="M1666 1634 L1499 1801 L1499 1825 L1666 1658 Z"/><path class="fv4" d="M1666 1634 L1499 1801 L1499 1825 L1666 1658 Z" /></g><g class="o"><path transform="translate(3,6)" class="S sfv" d="M1796 1535 L1676 1655 L1676 1693 L1796 1573 Z"/><path class="fv4" d="M1796 1535 L1676 1655 L1676 1693 L1796 1573 Z" /></g><g class="o"><path transform="translate(7,14)" class="S sf" d="M1035 1208 L832 1411 L842 1411 L1045 1208 Z"/><path class="f2" d="M1035 1208 L832 1411 L842 1411 L1045 1208 Z" /></g><g class="o"><path transform="translate(6,12)" class="S sfv" d="M1277 1702 L1082 1897 L1082 1917 L1277 1722 Z"/><path class="fv7" d="M1277 1702 L1082 1897 L1082 1917 L1277 1722 Z" /></g><g class="o"><path transform="translate(5,10)" class="S sfv" d="M1058 1241 L854 1037 L854 1049 L1058 1253 Z"/><path class="fv2" d="M1058 1241 L854 1037 L854 1049 L1058 1253 Z" /></g><g class="o"><path transform="translate(9,18)" class="S sfh" d="M1757 1903 L1528 1674 L1556 1674 L1785 1903 Z"/><path class="fh2" d="M1757 1903 L1528 1674 L1556 1674 L1785 1903 Z" /></g><g class="o"><path transform="translate(6,12)" class="S sfv" d="M1903 976 L1743 1136 L1743 1148 L1903 988 Z"/><path class="fv7" d="M1903 976 L1743 1136 L1743 1148 L1903 988 Z" /></g><g class="o"><path transform="translate(9,18)" class="S sf" d="M1938 1974 L1840 1876 L1840 1896 L1938 1994 Z"/><path class="f7" d="M1938 1974 L1840 1876 L1840 1896 L1938 1994 Z" /></g><g class="o"><path transform="translate(7,14)" class="S sfh" d="M1671 1878 L1492 1699 L1504 1699 L1683 1878 Z"/><path class="fh5" d="M1671 1878 L1492 1699 L1504 1699 L1683 1878 Z" /></g><g class="o"><path transform="translate(6,12)" class="S ss" d="M1246 1782 L1063 1599 L1063 1609 L1246 1792 Z"/><path class="s6" d="M1246 1782 L1063 1599 L1063 1609 L1246 1792 Z" /></g><g class="o"><path transform="translate(6,12)" class="S sf" d="M1241 1182 L1051 1372 L1051 1398 L1241 1208 Z"/><path class="f1" d="M1241 1182 L1051 1372 L1051 1398 L1241 1208 Z" /></g></g><use href="#slashes" transform-origin="1500 1500" transform="rotate(180) scale(2)"/></g><circle cx="1500" cy="1500" r="450" stroke-width="40" class="o s7" /><use href="#slashes" transform-origin="1500 1500" transform="scale(.6)"/><use href="#slashes" transform-origin="1500 1500" transform="rotate(180) scale(.6)"/></svg>