<svg xmlns="http://www.w3.org/2000/svg" viewBox="750 750 1500 1500"><style>/*<![CDATA[*/svg{background:rgb(197,195,198);max-width:100vw;max-height:100vh}path{stroke-width:4}.o{opacity:.75}.S{opacity:.4}.sf{stroke:none;fill:black}.sfh{stroke:none;fill:url(#hs)}.sfv{stroke:none;fill:url(#vs)}.ss{stroke:black;fill:none}.ssh{stroke:url(#hs);fill:none}.ssv{stroke:url(#vs);fill:none}.s1{fill:none;stroke:rgb(16,16,16)}.f1{stroke:none;fill:rgb(16,16,16)}.sh1{fill:none;stroke:url(#h1)}.fh1{stroke:none;fill:url(#h1)}.sv1{fill:none;stroke:url(#v1)}.fv1{stroke:none;fill:url(#v1)}.s2{fill:none;stroke:rgb(70,73,76)}.f2{stroke:none;fill:rgb(70,73,76)}.sh2{fill:none;stroke:url(#h2)}.fh2{stroke:none;fill:url(#h2)}.sv2{fill:none;stroke:url(#v2)}.fv2{stroke:none;fill:url(#v2)}.s3{fill:none;stroke:rgb(76,92,104)}.f3{stroke:none;fill:rgb(76,92,104)}.sh3{fill:none;stroke:url(#h3)}.fh3{stroke:none;fill:url(#h3)}.sv3{fill:none;stroke:url(#v3)}.fv3{stroke:none;fill:url(#v3)}.s4{fill:none;stroke:rgb(25,133,161)}.f4{stroke:none;fill:rgb(25,133,161)}.sh4{fill:none;stroke:url(#h4)}.fh4{stroke:none;fill:url(#h4)}.sv4{fill:none;stroke:url(#v4)}.fv4{stroke:none;fill:url(#v4)}.s5{fill:none;stroke:rgb(34,34,34)}.f5{stroke:none;fill:rgb(34,34,34)}.sh5{fill:none;stroke:url(#h5)}.fh5{stroke:none;fill:url(#h5)}.sv5{fill:none;stroke:url(#v5)}.fv5{stroke:none;fill:url(#v5)}.s6{fill:none;stroke:rgb(255,255,255)}.f6{stroke:none;fill:rgb(255,255,255)}.sh6{fill:none;stroke:url(#h6)}.fh6{stroke:none;fill:url(#h6)}.sv6{fill:none;stroke:url(#v6)}.fv6{stroke:none;fill:url(#v6)}.s7{fill:none;stroke:rgb(255,0,0)}.f7{stroke:none;fill:rgb(255,0,0)}.sh7{fill:none;stroke:url(#h7)}.fh7{stroke:none;fill:url(#h7)}.sv7{fill:none;stroke:url(#v7)}.fv7{stroke:none;fill:url(#v7)}/*]]>*/</style><defs><linearGradient gradientTransform="rotate(90)" id="hs"><stop offset="20%" stop-color="#000" /><stop offset="95%" stop-color="rgba(0, 0, 0, 0)" /></linearGradient><linearGradient id="vs"><stop offset="20%" stop-color="#000" /><stop offset="95%" stop-color="rgba(0, 0, 0, 0)" /></linearGradient><linearGradient gradientTransform="rotate(90)" id="h1"><stop offset="20%" stop-color="rgba(16,16,16,1)" /><stop offset="95%" stop-color="rgba(16,16,16,0)" /></linearGradient><linearGradient id="v1"><stop offset="20%" stop-color="rgba(16,16,16,1)" /><stop offset="95%" stop-color="rgba(16,16,16,0)" /></linearGradient><linearGradient gradientTransform="rotate(90)" id="h2"><stop offset="20%" stop-color="rgba(70,73,76,1)" /><stop offset="95%" stop-color="rgba(70,73,76,0)" /></linearGradient><linearGradient id="v2"><stop offset="20%" stop-color="rgba(70,73,76,1)" /><stop offset="95%" stop-color="rgba(70,73,76,0)" /></linearGradient><linearGradient gradientTransform="rotate(90)" id="h3"><stop offset="20%" stop-color="rgba(76,92,104,1)" /><stop offset="95%" stop-color="rgba(76,92,104,0)" /></linearGradient><linearGradient id="v3"><stop offset="20%" stop-color="rgba(76,92,104,1)" /><stop offset="95%" stop-color="rgba(76,92,104,0)" /></linearGradient><linearGradient gradientTransform="rotate(90)" id="h4"><stop offset="20%" stop-color="rgba(25,133,161,1)" /><stop offset="95%" stop-color="rgba(25,133,161,0)" /></linearGradient><linearGradient id="v4"><stop offset="20%" stop-color="rgba(25,133,161,1)" /><stop offset="95%" stop-color="rgba(25,133,161,0)" /></linearGradient><linearGradient gradientTransform="rotate(90)" id="h5"><stop offset="20%" stop-color="rgba(34,34,34,1)" /><stop offset="95%" stop-color="rgba(34,34,34,0)" /></linearGradient><linearGradient id="v5"><stop offset="20%" stop-color="rgba(34,34,34,1)" /><stop offset="95%" stop-color="rgba(34,34,34,0)" /></linearGradient><linearGradient gradientTransform="rotate(90)" id="h6"><stop offset="20%" stop-color="rgba(255,255,255,1)" /><stop offset="95%" stop-color="rgba(255,255,255,0)" /></linearGradient><linearGradient id="v6"><stop offset="20%" stop-color="rgba(255,255,255,1)" /><stop offset="95%" stop-color="rgba(255,255,255,0)" /></linearGradient><linearGradient gradientTransform="rotate(90)" id="h7"><stop offset="20%" stop-color="rgba(255,0,0,1)" /><stop offset="95%" stop-color="rgba(255,0,0,0)" /></linearGradient><linearGradient id="v7"><stop offset="20%" stop-color="rgba(255,0,0,1)" /><stop offset="95%" stop-color="rgba(255,0,0,0)" /></linearGradient></defs><g transform-origin="1500 1500" transform="scale(2)" opacity=".2"><g id="slashes"><g class="o"><path transform="translate(6,12)" class="S sf" d="M959 1636 L796 1799 L832 1799 L995 1636 Z"/><path class="f2" d="M959 1636 L796 1799 L832 1799 L995 1636 Z" /></g><g class="o"><path transform="translate(7,14)" class="S sfh" d="M1365 1628 L1416 1679 L1430 1679 L1379 1628 Z"/><path class="fh4" d="M1365 1628 L1416 1679 L1430 1679 L1379 1628 Z" /></g><g class="o"><path transform="translate(3,6)" class="S sf" d="M1890 1863 L1823 1930 L1849 1930 L1916 1863 Z"/><path class="f6" d="M1890 1863 L1823 1930 L1849 1930 L1916 1863 Z" /></g><g class="o"><path transform="translate(7,14)" class="S ssv" d="M1246 1866 L1338 1774 L1338 1830 L1246 1922 Z"/><path class="sv6" d="M1246 1866 L1338 1774 L1338 1830 L1246 1922 Z" /></g><g class="o"><path transform="translate(6,12)" class="S sf" d="M1983 1696 L2118 1831 L2146 1831 L2011 1696 Z"/><path class="f3" d="M1983 1696 L2118 1831 L2146 1831 L2011 1696 Z" /></g><g class="o"><path transform="translate(2,4)" class="S sfv" d="M1216 1114 L1324 1222 L1324 1236 L1216 1128 Z"/><path class="fv6" d="M1216 1114 L1324 1222 L1324 1236 L1216 1128 Z" /></g><g class="o"><path transform="translate(6,12)" class="S sf" d="M1940 1021 L1826 1135 L1850 1135 L1964 1021 Z"/><path class="f4" d="M1940 1021 L1826 1135 L1850 1135 L1964 1021 Z" /></g><g class="o"><path transform="translate(3,6)" class="S sfv" d="M1696 1723 L1914 1941 L1914 1975 L1696 1757 Z"/><path class="fv1" d="M1696 1723 L1914 1941 L1914 1975 L1696 1757 Z" /></g><g class="o"><path transform="translate(8,16)" class="S sfh" d="M1441 1611 L1552 1722 L1572 1722 L1461 1611 Z"/><path class="fh2" d="M1441 1611 L1552 1722 L1572 1722 L1461 1611 Z" /></g><g class="o"><path transform="translate(8,16)" class="S ssv" d="M1452 1710 L1637 1895 L1637 2015 L1452 1830 Z"/><path class="sv7" d="M1452 1710 L1637 1895 L1637 2015 L1452 1830 Z" /></g><g class="o"><path transform="translate(5,10)" class="S sfh" d="M1749 1260 L1846 1357 L1880 1357 L1783 1260 Z"/><path class="fh4" d="M1749 1260 L1846 1357 L1880 1357 L1783 1260 Z" /></g><g class="o"><path transform="translate(9,18)" class="S sf" d="M1892 2040 L1978 2126 L2006 2126 L1920 2040 Z"/><path class="f5" d="M1892 2040 L1978 2126 L2006 2126 L1920 2040 Z" /></g><g class="o"><path transform="translate(8,16)" class="S sfv" d="M1924 1053 L2127 1256 L2127 1284 L1924 1081 Z"/><path class="fv7" d="M1924 1053 L2127 1256 L2127 1284 L1924 1081 Z" /></g><g class="o"><path transform="translate(4,8)" class="S sfh" d="M1456 1461 L1380 1537 L1412 1537 L1488 1461 Z"/><path class="fh1" d="M1456 1461 L1380 1537 L1412 1537 L1488 1461 Z" /></g><g class="o"><path transform="translate(7,14)" class="S ssh" d="M1219 1496 L1394 1671 L1434 1671 L1259 1496 Z"/><path class="sh7" d="M1219 1496 L1394 1671 L1434 1671 L1259 1496 Z" /></g><g class="o"><path transform="translate(7,14)" class="S sf" d="M1292 1493 L1347 1548 L1347 1560 L1292 1505 Z"/><path class="f1" d="M1292 1493 L1347 1548 L1347 1560 L1292 1505 Z" /></g><g class="o"><path transform="translate(9,18)" class="S sfv" d="M1823 2027 L1921 2125 L1921 2137 L1823 2039 Z"/><path class="fv1" d="M1823 2027 L1921 2125 L1921 2137 L1823 2039 Z" /></g><g class="o"><path transform="translate(8,16)" class="S sf" d="M1991 1834 L2235 2078 L2269 2078 L2025 1834 Z"/><path class="f4" d="M1991 1834 L2235 2078 L2269 2078 L2025 1834 Z" /></g><g class="o"><path transform="translate(5,10)" class="S sfv" d="M1781 1485 L1846 1550 L1846 1584 L1781 1519 Z"/><path class="fv5" d="M1781 1485 L1846 1550 L1846 1584 L1781 1519 Z" /></g><g class="o"><path transform="translate(9,18)" class="S sfv" d="M1545 1808 L1695 1958 L1695 1980 L1545 1830 Z"/><path class="fv6" d="M1545 1808 L1695 1958 L1695 1980 L1545 1830 Z" /></g><g class="o"><path transform="translate(6,12)" class="S ssh" d="M1178 1914 L1426 2162 L1458 2162 L1210 1914 Z"/><path class="sh6" d="M1178 1914 L1426 2162 L1458 2162 L1210 1914 Z" /></g><g class="o"><path transform="translate(6,12)" class="S sf" d="M1208 1705 L1269 1766 L1305 1766 L1244 1705 Z"/><path class="f3" d="M1208 1705 L1269 1766 L1305 1766 L1244 1705 Z" /></g><g class="o"><path transform="translate(2,4)" class="S sfv" d="M1302 1895 L1243 1954 L1243 1972 L1302 1913 Z"/><path class="fv4" d="M1302 1895 L1243 1954 L1243 1972 L1302 1913 Z" /></g><g class="o"><path transform="translate(9,18)" class="S sfv" d="M1408 1325 L1594 1139 L1594 1155 L1408 1341 Z"/><path class="fv7" d="M1408 1325 L1594 1139 L1594 1155 L1408 1341 Z" /></g><g class="o"><path transform="translate(6,12)" class="S sf" d="M1087 1529 L1319 1761 L1331 1761 L1099 1529 Z"/><path class="f4" d="M1087 1529 L1319 1761 L1331 1761 L1099 1529 Z" /></g><g class="o"><path transform="translate(4,8)" class="S ssh" d="M976 1936 L1029 1989 L1051 1989 L998 1936 Z"/><path class="sh3" d="M976 1936 L1029 1989 L1051 1989 L998 1936 Z" /></g><g class="o"><path transform="translate(6,12)" class="S ssh" d="M1580 1613 L1646 1679 L1658 1679 L1592 1613 Z"/><path class="sh5" d="M1580 1613 L1646 1679 L1658 1679 L1592 1613 Z" /></g><g class="o"><path transform="translate(3,6)" class="S sf" d="M1010 1262 L1215 1467 L1215 1477 L1010 1272 Z"/><path class="f1" d="M1010 1262 L1215 1467 L1215 1477 L1010 1272 Z" /></g><g class="o"><path transform="translate(4,8)" class="S sf" d="M1526 1928 L1713 2115 L1713 2135 L1526 1948 Z"/><path class="f4" d="M1526 1928 L1713 2115 L1713 2135 L1526 1948 Z" /></g><g class="o"><path transform="translate(5,10)" class="S sfh" d="M1788 1469 L1901 1582 L1917 1582 L1804 1469 Z"/><path class="fh1" d="M1788 1469 L1901 1582 L1917 1582 L1804 1469 Z" /></g><g class="o"><path transform="translate(7,14)" class="S ssh" d="M1336 1979 L1483 2126 L1515 2126 L1368 1979 Z"/><path class="sh2" d="M1336 1979 L1483 2126 L1515 2126 L1368 1979 Z" /></g><g class="o"><path transform="translate(2,4)" class="S sf" d="M1362 1208 L1297 1273 L1297 1307 L1362 1242 Z"/><path class="f4" d="M1362 1208 L1297 1273 L1297 1307 L1362 1242 Z" /></g><g class="o"><path transform="translate(5,10)" class="S ssv" d="M1832 1316 L1886 1370 L1886 1392 L1832 1338 Z"/><path class="sv2" d="M1832 1316 L1886 1370 L1886 1392 L1832 1338 Z" /></g><g class="o"><path transform="translate(2,4)" class="S sfv" d="M1640 1023 L1488 1175 L1488 1203 L1640 1051 Z"/><path class="fv3" d="M1640 1023 L1488 1175 L1488 1203 L1640 1051 Z" /></g><g class="o"><path transform="translate(4,8)" class="S sf" d="M1581 1978 L1408 2151 L1424 2151 L1597 1978 Z"/><path class="f4" d="M1581 1978 L1408 2151 L1424 2151 L1597 1978 Z" /></g><g class="o"><path transform="translate(7,14)" class="S ssv" d="M1096 1190 L1300 1394 L1300 1430 L1096 1226 Z"/><path class="sv2" d="M1096 1190 L1300 1394 L1300 1430 L1096 1226 Z" /></g><g class="o"><path transform="translate(9,18)" class="S sfv" d="M2032 1820 L2125 1913 L2125 1935 L2032 1842 Z"/><path class="fv6" d="M2032 1820 L2125 1913 L2125 1935 L2032 1842 Z" /></g><g class="o"><path transform="translate(8,16)" class="S sf" d="M2040 1050 L1822 1268 L1822 1300 L2040 1082 Z"/><path class="f1" d="M2040 1050 L1822 1268 L1822 1300 L2040 1082 Z" /></g><g class="o"><path transform="translate(4,8)" class="S ssv" d="M1793 1695 L1861 1763 L1861 1791 L1793 1723 Z"/><path class="sv4" d="M1793 1695 L1861 1763 L1861 1791 L1793 1723 Z" /></g><g class="o"><path transform="translate(3,6)" class="S sf" d="M1022 1651 L1192 1821 L1222 1821 L1052 1651 Z"/><path class="f7" d="M1022 1651 L1192 1821 L1222 1821 L1052 1651 Z" /></g><g class="o"><path transform="translate(4,8)" class="S sfh" d="M1751 1813 L1866 1928 L1892 1928 L1777 1813 Z"/><path class="fh6" d="M1751 1813 L1866 1928 L1892 1928 L1777 1813 Z" /></g><g class="o"><path transform="translate(3,6)" class="S sf" d="M1878 1307 L1698 1487 L1698 1503 L1878 1323 Z"/><path class="f7" d="M1878 1307 L1698 1487 L1698 1503 L1878 1323 Z" /></g><g class="o"><path transform="translate(3,6)" class="S sfh" d="M1520 1827 L1571 1878 L1583 1878 L1532 1827 Z"/><path class="fh6" d="M1520 1827 L1571 1878 L1583 1878 L1532 1827 Z" /></g><g class="o"><path transform="translate(3,6)" class="S sfv" d="M1374 1596 L1556 1778 L1556 1790 L1374 1608 Z"/><path class="fv4" d="M1374 1596 L1556 1778 L1556 1790 L1374 1608 Z" /></g><g class="o"><path transform="translate(6,12)" class="S ss" d="M1569 1333 L1689 1453 L1707 1453 L1587 1333 Z"/><path class="s6" d="M1569 1333 L1689 1453 L1707 1453 L1587 1333 Z" /></g><g class="o"><path transform="translate(2,4)" class="S sf" d="M2049 1639 L2289 1399 L2289 1419 L2049 1659 Z"/><path class="f3" d="M2049 1639 L2289 1399 L2289 1419 L2049 1659 Z" /></g><g class="o"><path transform="translate(8,16)" class="S sfv" d="M1635 1093 L1800 1258 L1800 1286 L1635 1121 Z"/><path class="fv7" d="M1635 1093 L1800 1258 L1800 1286 L1635 1121 Z" /></g><g class="o"><path transform="translate(2,4)" class="S ssv" d="M1224 1955 L1347 2078 L1347 2096 L1224 1973 Z"/><path class="sv4" d="M1224 1955 L1347 2078 L1347 2096 L1224 1973 Z" /></g><g class="o"><path transform="translate(2,4)" class="S sfv" d="M1020 1230 L1158 1092 L1158 1108 L1020 1246 Z"/><path class="fv2" d="M1020 1230 L1158 1092 L1158 1108 L1020 1246 Z" /></g><g class="o"><path transform="translate(6,12)" class="S sfh" d="M1967 1049 L1841 1175 L1859 1175 L1985 1049 Z"/><path class="fh3" d="M1967 1049 L1841 1175 L1859 1175 L1985 1049 Z" /></g><g class="o"><path transform="translate(5,10)" class="S sfv" d="M1211 1428 L1421 1218 L1421 1234 L1211 1444 Z"/><path class="fv4" d="M1211 1428 L1421 1218 L1421 1234 L1211 1444 Z" /></g><g class="o"><path transform="translate(2,4)" class="S sfv" d="M1097 1568 L1224 1695 L1224 1719 L1097 1592 Z"/><path class="fv6" d="M1097 1568 L1224 1695 L1224 1719 L1097 1592 Z" /></g><g class="o"><path transform="translate(8,16)" class="S sfh" d="M1605 2003 L1828 2226 L1860 2226 L1637 2003 Z"/><path class="fh1" d="M1605 2003 L1828 2226 L1860 2226 L1637 2003 Z" /></g><g class="o"><path transform="translate(8,16)" class="S sfv" d="M1861 1918 L1966 2023 L1966 2039 L1861 1934 Z"/><path class="fv2" d="M1861 1918 L1966 2023 L1966 2039 L1861 1934 Z" /></g><g class="o"><path transform="translate(4,8)" class="S sfv" d="M1759 1424 L1707 1476 L1707 1494 L1759 1442 Z"/><path class="fv3" d="M1759 1424 L1707 1476 L1707 1494 L1759 1442 Z" /></g><g class="o"><path transform="translate(5,10)" class="S ssh" d="M954 1429 L1188 1663 L1200 1663 L966 1429 Z"/><path class="sh6" d="M954 1429 L1188 1663 L1200 1663 L966 1429 Z" /></g><g class="o"><path transform="translate(6,12)" class="S sf" d="M1887 1795 L1649 2033 L1649 2057 L1887 1819 Z"/><path class="f6" d="M1887 1795 L1649 2033 L1649 2057 L1887 1819 Z" /></g><g class="o"><path transform="translate(2,4)" class="S sfh" d="M1553 1465 L1679 1591 L1697 1591 L1571 1465 Z"/><path class="fh3" d="M1553 1465 L1679 1591 L1697 1591 L1571 1465 Z" /></g><g class="o"><path transform="translate(8,16)" class="S ssv" d="M1020 1321 L1080 1261 L1080 1273 L1020 1333 Z"/><path class="sv1" d="M1020 1321 L1080 1261 L1080 1273 L1020 1333 Z" /></g><g class="o"><path transform="translate(8,16)" class="S ssh" d="M1011 1969 L874 2106 L900 2106 L1037 1969 Z"/><path class="sh3" d="M1011 1969 L874 2106 L900 2106 L1037 1969 Z" /></g><g class="o"><path transform="translate(2,4)" class="S ssh" d="M1926 1722 L2158 1954 L2196 1954 L1964 1722 Z"/><path class="sh5" d="M1926 1722 L2158 1954 L2196 1954 L1964 1722 Z" /></g><g class="o"><path transform="translate(5,10)" class="S ssv" d="M1212 1707 L1327 1822 L1327 1836 L1212 1721 Z"/><path class="sv6" d="M1212 1707 L1327 1822 L1327 1836 L1212 1721 Z" /></g><g class="o"><path transform="translate(8,16)" class="S sfv" d="M1650 1934 L1859 2143 L1859 2159 L1650 1950 Z"/><path class="fv1" d="M1650 1934 L1859 2143 L1859 2159 L1650 1950 Z" /></g><g class="o"><path transform="translate(6,12)" class="S sfh" d="M1640 1196 L1435 1401 L1563 1401 L1768 1196 Z"/><path class="fh4" d="M1640 1196 L1435 1401 L1563 1401 L1768 1196 Z" /></g><g class="o"><path transform="translate(3,6)" class="S sf" d="M2033 1965 L2120 2052 L2120 2086 L2033 1999 Z"/><path class="f3" d="M2033 1965 L2120 2052 L2120 2086 L2033 1999 Z" /></g><g class="o"><path transform="translate(9,18)" class="S sf" d="M1882 1089 L2072 1279 L2108 1279 L1918 1089 Z"/><path class="f2" d="M1882 1089 L2072 1279 L2108 1279 L1918 1089 Z" /></g><g class="o"><path transform="translate(2,4)" class="S sfv" d="M1551 1901 L1745 1707 L1745 1739 L1551 1933 Z"/><path class="fv1" d="M1551 1901 L1745 1707 L1745 1739 L1551 1933 Z" /></g><g class="o"><path transform="translate(9,18)" class="S sfv" d="M1012 1033 L1080 1101 L1080 1109 L1012 1041 Z"/><path class="fv6" d="M1012 1033 L1080 1101 L1080 1109 L1012 1041 Z" /></g><g class="o"><path transform="translate(9,18)" class="S sfh" d="M1735 1607 L1597 1745 L1613 1745 L1751 1607 Z"/><path class="fh2" d="M1735 1607 L1597 1745 L1613 1745 L1751 1607 Z" /></g><g class="o"><path transform="translate(8,16)" class="S ssh" d="M1780 1899 L1551 2128 L1571 2128 L1800 1899 Z"/><path class="sh4" d="M1780 1899 L1551 2128 L1571 2128 L1800 1899 Z" /></g><g class="o"><path transform="translate(9,18)" class="S sfh" d="M1794 1241 L1641 1088 L1679 1088 L1832 1241 Z"/><path class="fh4" d="M1794 1241 L1641 1088 L1679 1088 L1832 1241 Z" /></g><g class="o"><path transform="translate(2,4)" class="S sfh" d="M1502 1314 L1645 1457 L1681 1457 L1538 1314 Z"/><path class="fh3" d="M1502 1314 L1645 1457 L1681 1457 L1538 1314 Z" /></g><g class="o"><path transform="translate(8,16)" class="S sf" d="M1030 1359 L1132 1461 L1132 1497 L1030 1395 Z"/><path class="f5" d="M1030 1359 L1132 1461 L1132 1497 L1030 1395 Z" /></g><g class="o"><path transform="translate(2,4)" class="S ss" d="M2014 1916 L2183 1747 L2215 1747 L2046 1916 Z"/><path class="s5" d="M2014 1916 L2183 1747 L2215 1747 L2046 1916 Z" /></g><g class="o"><path transform="translate(5,10)" class="S sfh" d="M1831 1736 L1994 1899 L2012 1899 L1849 1736 Z"/><path class="fh2" d="M1831 1736 L1994 1899 L2012 1899 L1849 1736 Z" /></g><g class="o"><path transform="translate(3,6)" class="S sfv" d="M1214 1499 L1356 1641 L1356 1657 L1214 1515 Z"/><path class="fv2" d="M1214 1499 L1356 1641 L1356 1657 L1214 1515 Z" /></g><g class="o"><path transform="translate(9,18)" class="S sfv" d="M1567 1174 L1782 1389 L1782 1397 L1567 1182 Z"/><path class="fv3" d="M1567 1174 L1782 1389 L1782 1397 L1567 1182 Z" /></g><g class="o"><path transform="translate(5,10)" class="S sfv" d="M1479 1074 L1715 1310 L1715 1328 L1479 1092 Z"/><path class="fv2" d="M1479 1074 L1715 1310 L1715 1328 L1479 1092 Z" /></g><g class="o"><path transform="translate(6,12)" class="S ssh" d="M2025 1217 L2147 1095 L2169 1095 L2047 1217 Z"/><path class="sh6" d="M2025 1217 L2147 1095 L2169 1095 L2047 1217 Z" /></g><g class="o"><path transform="translate(6,12)" class="S sfv" d="M1773 958 L1612 1119 L1612 1149 L1773 988 Z"/><path class="fv4" d="M1773 958 L1612 1119 L1612 1149 L1773 988 Z" /></g><g class="o"><path transform="translate(3,6)" class="S sf" d="M1020 962 L1230 752 L1266 752 L1056 962 Z"/><path class="f6" d="M1020 962 L1230 752 L1266 752 L1056 962 Z" /></g><g class="o"><path transform="translate(4,8)" class="S sfh" d="M1656 1842 L1499 1999 L1535 1999 L1692 1842 Z"/><path class="fh6" d="M1656 1842 L1499 1999 L1535 1999 L1692 1842 Z" /></g><g class="o"><path transform="translate(2,4)" class="S sf" d="M1802 981 L1686 1097 L1704 1097 L1820 981 Z"/><path class="f3" d="M1802 981 L1686 1097 L1704 1097 L1820 981 Z" /></g><g class="o"><path transform="translate(4,8)" class="S sf" d="M1181 1693 L1427 1447 L1427 1457 L1181 1703 Z"/><path class="f1" d="M1181 1693 L1427 1447 L1427 1457 L1181 1703 Z" /></g><g class="o"><path transform="translate(4,8)" class="S sfv" d="M1217 1442 L973 1686 L973 1694 L1217 1450 Z"/><path class="fv6" d="M1217 1442 L973 1686 L973 1694 L1217 1450 Z" /></g><g class="o"><path transform="translate(3,6)" class="S sf" d="M1979 1748 L2106 1875 L2126 1875 L1999 1748 Z"/><path class="f2" d="M1979 1748 L2106 1875 L2126 1875 L1999 1748 Z" /></g><g class="o"><path transform="translate(8,16)" class="S sfv" d="M1256 1963 L1461 1758 L1461 1772 L1256 1977 Z"/><path class="fv1" d="M1256 1963 L1461 1758 L1461 1772 L1256 1977 Z" /></g><g class="o"><path transform="translate(7,14)" class="S ssv" d="M1362 1134 L1459 1231 L1459 1265 L1362 1168 Z"/><path class="sv6" d="M1362 1134 L1459 1231 L1459 1265 L1362 1168 Z" /></g><g class="o"><path transform="translate(8,16)" class="S sfh" d="M1893 1777 L1805 1865 L1827 1865 L1915 1777 Z"/><path class="fh5" d="M1893 1777 L1805 1865 L1827 1865 L1915 1777 Z" /></g><g class="o"><path transform="translate(6,12)" class="S sfv" d="M1964 1093 L2050 1179 L2050 1213 L1964 1127 Z"/><path class="fv5" d="M1964 1093 L2050 1179 L2050 1213 L1964 1127 Z" /></g><g class="o"><path transform="translate(3,6)" class="S sfh" d="M1173 1996 L1037 2132 L1057 2132 L1193 1996 Z"/><path class="fh3" d="M1173 1996 L1037 2132 L1057 2132 L1193 1996 Z" /></g><g class="o"><path transform="translate(4,8)" class="S sf" d="M1870 1099 L1737 1232 L1737 1248 L1870 1115 Z"/><path class="f1" d="M1870 1099 L1737 1232 L1737 1248 L1870 1115 Z" /></g><g class="o"><path transform="translate(8,16)" class="S sfh" d="M1137 1807 L1270 1940 L1302 1940 L1169 1807 Z"/><path class="fh2" d="M1137 1807 L1270 1940 L1302 1940 L1169 1807 Z" /></g><g class="o"><path transform="translate(5,10)" class="S sfh" d="M899 1817 L1087 2005 L1231 2005 L1043 1817 Z"/><path class="fh4" d="M899 1817 L1087 2005 L1231 2005 L1043 1817 Z" /></g><g class="o"><path transform="translate(8,16)" class="S sfh" d="M1842 1560 L1924 1642 L1960 1642 L1878 1560 Z"/><path class="fh3" d="M1842 1560 L1924 1642 L1960 1642 L1878 1560 Z" /></g><g class="o"><path transform="translate(3,6)" class="S ssh" d="M1956 1608 L1763 1801 L1783 1801 L1976 1608 Z"/><path class="sh5" d="M1956 1608 L1763 1801 L1783 1801 L1976 1608 Z" /></g><g class="o"><path transform="translate(6,12)" class="S sf" d="M1882 1135 L2004 1257 L2026 1257 L1904 1135 Z"/><path class="f1" d="M1882 1135 L2004 1257 L2026 1257 L1904 1135 Z" /></g><g class="o"><path transform="translate(8,16)" class="S sfh" d="M1252 1023 L1381 1152 L1393 1152 L1264 1023 Z"/><path class="fh4" d="M1252 1023 L1381 1152 L1393 1152 L1264 1023 Z" /></g><g class="o"><path transform="translate(5,10)" class="S ssh" d="M919 1246 L991 1318 L1055 1318 L983 1246 Z"/><path class="sh6" d="M919 1246 L991 1318 L1055 1318 L983 1246 Z" /></g><g class="o"><path transform="translate(5,10)" class="S sfh" d="M1590 994 L1769 1173 L1791 1173 L1612 994 Z"/><path class="fh2" d="M1590 994 L1769 1173 L1791 1173 L1612 994 Z" /></g><g class="o"><path transform="translate(7,14)" class="S sfv" d="M1432 1105 L1532 1205 L1532 1213 L1432 1113 Z"/><path class="fv6" d="M1432 1105 L1532 1205 L1532 1213 L1432 1113 Z" /></g><g class="o"><path transform="translate(8,16)" class="S sf" d="M1734 984 L1802 1052 L1866 1052 L1798 984 Z"/><path class="f5" d="M1734 984 L1802 1052 L1866 1052 L1798 984 Z" /></g><g class="o"><path transform="translate(8,16)" class="S sfh" d="M1144 1992 L1214 2062 L1230 2062 L1160 1992 Z"/><path class="fh3" d="M1144 1992 L1214 2062 L1230 2062 L1160 1992 Z" /></g><g class="o"><path transform="translate(7,14)" class="S sfh" d="M1214 1526 L1328 1640 L1352 1640 L1238 1526 Z"/><path class="fh7" d="M1214 1526 L1328 1640 L1352 1640 L1238 1526 Z" /></g><g class="o"><path transform="translate(5,10)" class="S ssv" d="M1610 1328 L1830 1548 L1830 1576 L1610 1356 Z"/><path class="sv4" d="M1610 1328 L1830 1548 L1830 1576 L1610 1356 Z" /></g><g class="o"><path transform="translate(3,6)" class="S sfh" d="M1005 1702 L1108 1599 L1122 1599 L1019 1702 Z"/><path class="fh3" d="M1005 1702 L1108 1599 L1122 1599 L1019 1702 Z" /></g><g class="o"><path transform="translate(3,6)" class="S sfh" d="M1282 1181 L1491 1390 L1523 1390 L1314 1181 Z"/><path class="fh1" d="M1282 1181 L1491 1390 L1523 1390 L1314 1181 Z" /></g><g class="o"><path transform="translate(9,18)" class="S sfv" d="M1301 1178 L1184 1061 L1184 1099 L1301 1216 Z"/><path class="fv3" d="M1301 1178 L1184 1061 L1184 1099 L1301 1216 Z" /></g><g class="o"><path transform="translate(6,12)" class="S ss" d="M1150 1423 L1348 1621 L1384 1621 L1186 1423 Z"/><path class="s4" d="M1150 1423 L1348 1621 L1384 1621 L1186 1423 Z" /></g><g class="o"><path transform="translate(5,10)" class="S sfv" d="M1225 1172 L1395 1342 L1395 1454 L1225 1284 Z"/><path class="fv6" d="M1225 1172 L1395 1342 L1395 1454 L1225 1284 Z" /></g><g class="o"><path transform="translate(6,12)" class="S sfv" d="M975 1243 L1175 1443 L1175 1451 L975 1251 Z"/><path class="fv2" d="M975 1243 L1175 1443 L1175 1451 L975 1251 Z" /></g><g class="o"><path transform="translate(3,6)" class="S sfv" d="M1730 1191 L1603 1318 L1603 1338 L1730 1211 Z"/><path class="fv2" d="M1730 1191 L1603 1318 L1603 1338 L1730 1211 Z" /></g><g class="o"><path transform="translate(9,18)" class="S sf" d="M952 1676 L755 1873 L851 1873 L1048 1676 Z"/><path class="f4" d="M952 1676 L755 1873 L851 1873 L1048 1676 Z" /></g><g class="o"><path transform="translate(3,6)" class="S sfv" d="M1647 1992 L1778 1861 L1778 1901 L1647 2032 Z"/><path class="fv2" d="M1647 1992 L1778 1861 L1778 1901 L1647 2032 Z" /></g><g class="o"><path transform="translate(2,4)" class="S sfv" d="M1156 986 L1351 1181 L1351 1193 L1156 998 Z"/><path class="fv6" d="M1156 986 L1351 1181 L1351 1193 L1156 998 Z" /></g><g class="o"><path transform="translate(9,18)" class="S sfh" d="M2029 1657 L2198 1488 L2236 1488 L2067 1657 Z"/><path class="fh7" d="M2029 1657 L2198 1488 L2236 1488 L2067 1657 Z" /></g><g class="o"><path transform="translate(9,18)" class="S sfh" d="M1527 1591 L1637 1701 L1657 1701 L1547 1591 Z"/><path class="fh3" d="M1527 1591 L1637 1701 L1657 1701 L1547 1591 Z" /></g><g class="o"><path transform="translate(7,14)" class="S sfh" d="M1780 1322 L1625 1167 L1653 1167 L1808 1322 Z"/><path class="fh3" d="M1780 1322 L1625 1167 L1653 1167 L1808 1322 Z" /></g><g class="o"><path transform="translate(2,4)" class="S ssv" d="M1736 1086 L1593 943 L1593 967 L1736 1110 Z"/><path class="sv1" d="M1736 1086 L1593 943 L1593 967 L1736 1110 Z" /></g><g class="o"><path transform="translate(4,8)" class="S sfh" d="M1356 1858 L1497 1717 L1509 1717 L1368 1858 Z"/><path class="fh7" d="M1356 1858 L1497 1717 L1509 1717 L1368 1858 Z" /></g><g class="o"><path transform="translate(3,6)" class="S sfh" d="M1731 978 L1882 1129 L1904 1129 L1753 978 Z"/><path class="fh3" d="M1731 978 L1882 1129 L1904 1129 L1753 978 Z" /></g><g class="o"><path transform="translate(6,12)" class="S sf" d="M1656 1795 L1462 1601 L1462 1621 L1656 1815 Z"/><path class="f2" d="M1656 1795 L1462 1601 L1462 1621 L1656 1815 Z" /></g><g class="o"><path transform="translate(7,14)" class="S sfh" d="M1500 1649 L1641 1790 L1669 1790 L1528 1649 Z"/><path class="fh5" d="M1500 1649 L1641 1790 L1669 1790 L1528 1649 Z" /></g><g class="o"><path transform="translate(7,14)" class="S sfh" d="M1151 1777 L1240 1688 L1264 1688 L1175 1777 Z"/><path class="fh5" d="M1151 1777 L1240 1688 L1264 1688 L1175 1777 Z" /></g><g class="o"><path transform="translate(8,16)" class="S sfh" d="M1162 1846 L1300 1984 L1310 1984 L1172 1846 Z"/><path class="fh4" d="M1162 1846 L1300 1984 L1310 1984 L1172 1846 Z" /></g><g class="o"><path transform="translate(8,16)" class="S sf" d="M1361 961 L1454 1054 L1454 1092 L1361 999 Z"/><path class="f5" d="M1361 961 L1454 1054 L1454 1092 L1361 999 Z" /></g><g class="o"><path transform="translate(3,6)" class="S sfh" d="M1471 1368 L1303 1536 L1311 1536 L1479 1368 Z"/><path class="fh2" d="M1471 1368 L1303 1536 L1311 1536 L1479 1368 Z" /></g><g class="o"><path transform="translate(7,14)" class="S sfv" d="M1035 1278 L1161 1404 L1161 1556 L1035 1430 Z"/><path class="fv3" d="M1035 1278 L1161 1404 L1161 1556 L1035 1430 Z" /></g><g class="o"><path transform="translate(3,6)" class="S ss" d="M996 1898 L880 1782 L916 1782 L1032 1898 Z"/><path class="s2" d="M996 1898 L880 1782 L916 1782 L1032 1898 Z" /></g><g class="o"><path transform="translate(5,10)" class="S sfh" d="M1854 1249 L1734 1369 L1764 1369 L1884 1249 Z"/><path class="fh4" d="M1854 1249 L1734 1369 L1764 1369 L1884 1249 Z" /></g><g class="o"><path transform="translate(9,18)" class="S sfv" d="M978 1191 L1140 1353 L1140 1367 L978 1205 Z"/><path class="fv5" d="M978 1191 L1140 1353 L1140 1367 L978 1205 Z" /></g><g class="o"><path transform="translate(4,8)" class="S ssh" d="M1731 1114 L1573 1272 L1593 1272 L1751 1114 Z"/><path class="sh6" d="M1731 1114 L1573 1272 L1593 1272 L1751 1114 Z" /></g><g class="o"><path transform="translate(3,6)" class="S ssv" d="M1790 1050 L1923 1183 L1923 1231 L1790 1098 Z"/><path class="sv4" d="M1790 1050 L1923 1183 L1923 1231 L1790 1098 Z" /></g><g class="o"><path transform="translate(6,12)" class="S sfh" d="M1555 1288 L1747 1480 L1859 1480 L1667 1288 Z"/><path class="fh3" d="M1555 1288 L1747 1480 L1859 1480 L1667 1288 Z" /></g><g class="o"><path transform="translate(6,12)" class="S sf" d="M1102 1856 L1314 2068 L1314 2100 L1102 1888 Z"/><path class="f2" d="M1102 1856 L1314 2068 L1314 2100 L1102 1888 Z" /></g><g class="o"><path transform="translate(5,10)" class="S sfv" d="M1365 1338 L1309 1394 L1309 1426 L1365 1370 Z"/><path class="fv5" d="M1365 1338 L1309 1394 L1309 1426 L1365 1370 Z" /></g><g class="o"><path transform="translate(7,14)" class="S ssh" d="M1335 1424 L1447 1536 L1485 1536 L1373 1424 Z"/><path class="sh4" d="M1335 1424 L1447 1536 L1485 1536 L1373 1424 Z" /></g><g class="o"><path transform="translate(4,8)" class="S sfv" d="M1248 2012 L1136 2124 L1136 2150 L1248 2038 Z"/><path class="fv5" d="M1248 2012 L1136 2124 L1136 2150 L1248 2038 Z" /></g><g class="o"><path transform="translate(7,14)" class="S sfh" d="M1408 1899 L1500 1991 L1514 1991 L1422 1899 Z"/><path class="fh1" d="M1408 1899 L1500 1991 L1514 1991 L1422 1899 Z" /></g><g class="o"><path transform="translate(2,4)" class="S sfh" d="M1698 1908 L1771 1835 L1793 1835 L1720 1908 Z"/><path class="fh2" d="M1698 1908 L1771 1835 L1793 1835 L1720 1908 Z" /></g><g class="o"><path transform="translate(3,6)" class="S sf" d="M1675 1815 L1774 1914 L1800 1914 L1701 1815 Z"/><path class="f7" d="M1675 1815 L1774 1914 L1800 1914 L1701 1815 Z" /></g><g class="o"><path transform="translate(4,8)" class="S sfv" d="M1876 1001 L1813 1064 L1813 1088 L1876 1025 Z"/><path class="fv7" d="M1876 1001 L1813 1064 L1813 1088 L1876 1025 Z" /></g><g class="o"><path transform="translate(9,18)" class="S sfv" d="M1250 1602 L1397 1749 L1397 1779 L1250 1632 Z"/><path class="fv6" d="M1250 1602 L1397 1749 L1397 1779 L1250 1632 Z" /></g><g class="o"><path transform="translate(9,18)" class="S sfv" d="M1833 1298 L1924 1389 L1924 1413 L1833 1322 Z"/><path class="fv1" d="M1833 1298 L1924 1389 L1924 1413 L1833 1322 Z" /></g><g class="o"><path transform="translate(3,6)" class="S sfh" d="M1597 1401 L1408 1590 L1440 1590 L1629 1401 Z"/><path class="fh6" d="M1597 1401 L1408 1590 L1440 1590 L1629 1401 Z" /></g><g class="o"><path transform="translate(2,4)" class="S sfh" d="M1944 1279 L2156 1491 L2188 1491 L1976 1279 Z"/><path class="fh1" d="M1944 1279 L2156 1491 L2188 1491 L1976 1279 Z" /></g><g class="o"><path transform="translate(3,6)" class="S sfv" d="M1447 1964 L1218 2193 L1218 2227 L1447 1998 Z"/><path class="fv3" d="M1447 1964 L1218 2193 L1218 2227 L1447 1998 Z" /></g><g class="o"><path transform="translate(2,4)" class="S ssv" d="M1426 1325 L1320 1219 L1320 1307 L1426 1413 Z"/><path class="sv7" d="M1426 1325 L1320 1219 L1320 1307 L1426 1413 Z" /></g><g class="o"><path transform="translate(8,16)" class="S ssh" d="M1326 1677 L1180 1823 L1218 1823 L1364 1677 Z"/><path class="sh1" d="M1326 1677 L1180 1823 L1218 1823 L1364 1677 Z" /></g><g class="o"><path transform="translate(2,4)" class="S sfv" d="M979 1253 L1047 1321 L1047 1331 L979 1263 Z"/><path class="fv1" d="M979 1253 L1047 1321 L1047 1331 L979 1263 Z" /></g></g><use href="#slashes" transform-origin="1500 1500" transform="rotate(180) scale(2)"/></g><polyline points="1500,1010 1990,1500 1500,1990 1010,1500 1500,1010 1990,1500" stroke-width="10" class="o s5" /><use href="#slashes" transform-origin="1500 1500" transform="scale(.9)"/><use href="#slashes" transform-origin="1500 1500" transform="rotate(180) scale(.9)"/></svg>