<svg xmlns="http://www.w3.org/2000/svg" viewBox="750 750 1500 1500"><style>/*<![CDATA[*/svg{background:rgb(62,68,145);max-width:100vw;max-height:100vh}path{stroke-width:4}.o{opacity:.75}.S{opacity:.4}.sf{stroke:none;fill:black}.sfh{stroke:none;fill:url(#hs)}.sfv{stroke:none;fill:url(#vs)}.ss{stroke:black;fill:none}.ssh{stroke:url(#hs);fill:none}.ssv{stroke:url(#vs);fill:none}.s1{fill:none;stroke:rgb(255,168,34)}.f1{stroke:none;fill:rgb(255,168,34)}.sh1{fill:none;stroke:url(#h1)}.fh1{stroke:none;fill:url(#h1)}.sv1{fill:none;stroke:url(#v1)}.fv1{stroke:none;fill:url(#v1)}.s2{fill:none;stroke:rgb(58,158,253)}.f2{stroke:none;fill:rgb(58,158,253)}.sh2{fill:none;stroke:url(#h2)}.fh2{stroke:none;fill:url(#h2)}.sv2{fill:none;stroke:url(#v2)}.fv2{stroke:none;fill:url(#v2)}.s3{fill:none;stroke:rgb(41,42,115)}.f3{stroke:none;fill:rgb(41,42,115)}.sh3{fill:none;stroke:url(#h3)}.fh3{stroke:none;fill:url(#h3)}.sv3{fill:none;stroke:url(#v3)}.fv3{stroke:none;fill:url(#v3)}.s4{fill:none;stroke:rgb(26,27,75)}.f4{stroke:none;fill:rgb(26,27,75)}.sh4{fill:none;stroke:url(#h4)}.fh4{stroke:none;fill:url(#h4)}.sv4{fill:none;stroke:url(#v4)}.fv4{stroke:none;fill:url(#v4)}.s5{fill:none;stroke:rgb(34,34,34)}.f5{stroke:none;fill:rgb(34,34,34)}.sh5{fill:none;stroke:url(#h5)}.fh5{stroke:none;fill:url(#h5)}.sv5{fill:none;stroke:url(#v5)}.fv5{stroke:none;fill:url(#v5)}.s6{fill:none;stroke:rgb(255,255,255)}.f6{stroke:none;fill:rgb(255,255,255)}.sh6{fill:none;stroke:url(#h6)}.fh6{stroke:none;fill:url(#h6)}.sv6{fill:none;stroke:url(#v6)}.fv6{stroke:none;fill:url(#v6)}.s7{fill:none;stroke:rgb(255,255,0)}.f7{stroke:none;fill:rgb(255,255,0)}.sh7{fill:none;stroke:url(#h7)}.fh7{stroke:none;fill:url(#h7)}.sv7{fill:none;stroke:url(#v7)}.fv7{stroke:none;fill:url(#v7)}/*]]>*/</style><defs><linearGradient gradientTransform="rotate(90)" id="hs"><stop offset="20%" stop-color="#000" /><stop offset="95%" stop-color="rgba(0, 0, 0, 0)" /></linearGradient><linearGradient id="vs"><stop offset="20%" stop-color="#000" /><stop offset="95%" stop-color="rgba(0, 0, 0, 0)" /></linearGradient><linearGradient gradientTransform="rotate(90)" id="h1"><stop offset="20%" stop-color="rgba(255,168,34,1)" /><stop offset="95%" stop-color="rgba(255,168,34,0)" /></linearGradient><linearGradient id="v1"><stop offset="20%" stop-color="rgba(255,168,34,1)" /><stop offset="95%" stop-color="rgba(255,168,34,0)" /></linearGradient><linearGradient gradientTransform="rotate(90)" id="h2"><stop offset="20%" stop-color="rgba(58,158,253,1)" /><stop offset="95%" stop-color="rgba(58,158,253,0)" /></linearGradient><linearGradient id="v2"><stop offset="20%" stop-color="rgba(58,158,253,1)" /><stop offset="95%" stop-color="rgba(58,158,253,0)" /></linearGradient><linearGradient gradientTransform="rotate(90)" id="h3"><stop offset="20%" stop-color="rgba(41,42,115,1)" /><stop offset="95%" stop-color="rgba(41,42,115,0)" /></linearGradient><linearGradient id="v3"><stop offset="20%" stop-color="rgba(41,42,115,1)" /><stop offset="95%" stop-color="rgba(41,42,115,0)" /></linearGradient><linearGradient gradientTransform="rotate(90)" id="h4"><stop offset="20%" stop-color="rgba(26,27,75,1)" /><stop offset="95%" stop-color="rgba(26,27,75,0)" /></linearGradient><linearGradient id="v4"><stop offset="20%" stop-color="rgba(26,27,75,1)" /><stop offset="95%" stop-color="rgba(26,27,75,0)" /></linearGradient><linearGradient gradientTransform="rotate(90)" id="h5"><stop offset="20%" stop-color="rgba(34,34,34,1)" /><stop offset="95%" stop-color="rgba(34,34,34,0)" /></linearGradient><linearGradient id="v5"><stop offset="20%" stop-color="rgba(34,34,34,1)" /><stop offset="95%" stop-color="rgba(34,34,34,0)" /></linearGradient><linearGradient gradientTransform="rotate(90)" id="h6"><stop offset="20%" stop-color="rgba(255,255,255,1)" /><stop offset="95%" stop-color="rgba(255,255,255,0)" /></linearGradient><linearGradient id="v6"><stop offset="20%" stop-color="rgba(255,255,255,1)" /><stop offset="95%" stop-color="rgba(255,255,255,0)" /></linearGradient><linearGradient gradientTransform="rotate(90)" id="h7"><stop offset="20%" stop-color="rgba(255,255,0,1)" /><stop offset="95%" stop-color="rgba(255,255,0,0)" /></linearGradient><linearGradient id="v7"><stop offset="20%" stop-color="rgba(255,255,0,1)" /><stop offset="95%" stop-color="rgba(255,255,0,0)" /></linearGradient></defs><g transform-origin="1500 1500" transform="scale(2)" opacity=".6"><g id="slashes"><g class="o"><path transform="translate(2,4)" class="S ssv" d="M1112 969 L1174 907 L1174 925 L1112 987 Z"/><path class="sv4" d="M1112 969 L1174 907 L1174 925 L1112 987 Z" /></g><g class="o"><path transform="translate(9,18)" class="S sf" d="M1173 1478 L1309 1342 L1309 1378 L1173 1514 Z"/><path class="f5" d="M1173 1478 L1309 1342 L1309 1378 L1173 1514 Z" /></g><g class="o"><path transform="translate(9,18)" class="S sfv" d="M1706 1245 L1944 1483 L1944 1517 L1706 1279 Z"/><path class="fv1" d="M1706 1245 L1944 1483 L1944 1517 L1706 1279 Z" /></g><g class="o"><path transform="translate(6,12)" class="S sfh" d="M1015 2007 L1150 2142 L1168 2142 L1033 2007 Z"/><path class="fh6" d="M1015 2007 L1150 2142 L1168 2142 L1033 2007 Z" /></g><g class="o"><path transform="translate(8,16)" class="S sfv" d="M1715 1642 L1774 1701 L1774 1731 L1715 1672 Z"/><path class="fv1" d="M1715 1642 L1774 1701 L1774 1731 L1715 1672 Z" /></g><g class="o"><path transform="translate(7,14)" class="S sfv" d="M1880 1551 L2123 1308 L2123 1336 L1880 1579 Z"/><path class="fv4" d="M1880 1551 L2123 1308 L2123 1336 L1880 1579 Z" /></g><g class="o"><path transform="translate(5,10)" class="S sfv" d="M1427 1629 L1493 1563 L1493 1579 L1427 1645 Z"/><path class="fv5" d="M1427 1629 L1493 1563 L1493 1579 L1427 1645 Z" /></g><g class="o"><path transform="translate(5,10)" class="S sf" d="M1873 1622 L2032 1781 L2088 1781 L1929 1622 Z"/><path class="f5" d="M1873 1622 L2032 1781 L2088 1781 L1929 1622 Z" /></g><g class="o"><path transform="translate(3,6)" class="S sfv" d="M1673 1197 L1870 1000 L1870 1018 L1673 1215 Z"/><path class="fv4" d="M1673 1197 L1870 1000 L1870 1018 L1673 1215 Z" /></g><g class="o"><path transform="translate(9,18)" class="S sfv" d="M1892 1344 L2062 1514 L2062 1528 L1892 1358 Z"/><path class="fv6" d="M1892 1344 L2062 1514 L2062 1528 L1892 1358 Z" /></g><g class="o"><path transform="translate(6,12)" class="S ssv" d="M1832 1625 L1903 1554 L1903 1586 L1832 1657 Z"/><path class="sv6" d="M1832 1625 L1903 1554 L1903 1586 L1832 1657 Z" /></g><g class="o"><path transform="translate(7,14)" class="S sfh" d="M1846 1168 L1998 1016 L2034 1016 L1882 1168 Z"/><path class="fh5" d="M1846 1168 L1998 1016 L2034 1016 L1882 1168 Z" /></g><g class="o"><path transform="translate(2,4)" class="S ssh" d="M1087 2036 L1246 2195 L1272 2195 L1113 2036 Z"/><path class="sh3" d="M1087 2036 L1246 2195 L1272 2195 L1113 2036 Z" /></g><g class="o"><path transform="translate(9,18)" class="S sfv" d="M1124 1732 L1176 1680 L1176 1714 L1124 1766 Z"/><path class="fv3" d="M1124 1732 L1176 1680 L1176 1714 L1124 1766 Z" /></g><g class="o"><path transform="translate(2,4)" class="S sfv" d="M1505 1477 L1631 1603 L1631 1747 L1505 1621 Z"/><path class="fv2" d="M1505 1477 L1631 1603 L1631 1747 L1505 1621 Z" /></g><g class="o"><path transform="translate(2,4)" class="S ssv" d="M1935 1479 L2129 1285 L2129 1323 L1935 1517 Z"/><path class="sv1" d="M1935 1479 L2129 1285 L2129 1323 L1935 1517 Z" /></g><g class="o"><path transform="translate(9,18)" class="S sfv" d="M1626 1392 L1759 1259 L1759 1279 L1626 1412 Z"/><path class="fv1" d="M1626 1392 L1759 1259 L1759 1279 L1626 1412 Z" /></g><g class="o"><path transform="translate(4,8)" class="S sfh" d="M1777 1528 L2021 1772 L2035 1772 L1791 1528 Z"/><path class="fh3" d="M1777 1528 L2021 1772 L2035 1772 L1791 1528 Z" /></g><g class="o"><path transform="translate(4,8)" class="S sfh" d="M1962 1801 L2160 1999 L2198 1999 L2000 1801 Z"/><path class="fh4" d="M1962 1801 L2160 1999 L2198 1999 L2000 1801 Z" /></g><g class="o"><path transform="translate(4,8)" class="S sfv" d="M1045 1012 L1131 1098 L1131 1110 L1045 1024 Z"/><path class="fv5" d="M1045 1012 L1131 1098 L1131 1110 L1045 1024 Z" /></g><g class="o"><path transform="translate(4,8)" class="S sfh" d="M1209 1387 L1415 1593 L1437 1593 L1231 1387 Z"/><path class="fh3" d="M1209 1387 L1415 1593 L1437 1593 L1231 1387 Z" /></g><g class="o"><path transform="translate(4,8)" class="S sf" d="M1917 1936 L2127 2146 L2127 2178 L1917 1968 Z"/><path class="f5" d="M1917 1936 L2127 2146 L2127 2178 L1917 1968 Z" /></g><g class="o"><path transform="translate(5,10)" class="S ss" d="M975 1171 L1203 943 L1203 959 L975 1187 Z"/><path class="s5" d="M975 1171 L1203 943 L1203 959 L975 1187 Z" /></g><g class="o"><path transform="translate(9,18)" class="S sfh" d="M1112 974 L1173 913 L1195 913 L1134 974 Z"/><path class="fh5" d="M1112 974 L1173 913 L1195 913 L1134 974 Z" /></g><g class="o"><path transform="translate(6,12)" class="S sfv" d="M1529 1530 L1732 1733 L1732 1821 L1529 1618 Z"/><path class="fv6" d="M1529 1530 L1732 1733 L1732 1821 L1529 1618 Z" /></g><g class="o"><path transform="translate(4,8)" class="S sfv" d="M1832 1613 L2048 1829 L2048 1863 L1832 1647 Z"/><path class="fv5" d="M1832 1613 L2048 1829 L2048 1863 L1832 1647 Z" /></g><g class="o"><path transform="translate(9,18)" class="S sfv" d="M1332 968 L1477 1113 L1477 1143 L1332 998 Z"/><path class="fv6" d="M1332 968 L1477 1113 L1477 1143 L1332 998 Z" /></g><g class="o"><path transform="translate(4,8)" class="S sfh" d="M1771 1182 L1830 1241 L1838 1241 L1779 1182 Z"/><path class="fh6" d="M1771 1182 L1830 1241 L1838 1241 L1779 1182 Z" /></g><g class="o"><path transform="translate(6,12)" class="S sf" d="M1631 1232 L1832 1031 L1832 1061 L1631 1262 Z"/><path class="f6" d="M1631 1232 L1832 1031 L1832 1061 L1631 1262 Z" /></g><g class="o"><path transform="translate(7,14)" class="S sf" d="M1769 1248 L1925 1092 L1937 1092 L1781 1248 Z"/><path class="f6" d="M1769 1248 L1925 1092 L1937 1092 L1781 1248 Z" /></g><g class="o"><path transform="translate(3,6)" class="S sfv" d="M1514 939 L1689 1114 L1689 1150 L1514 975 Z"/><path class="fv7" d="M1514 939 L1689 1114 L1689 1150 L1514 975 Z" /></g><g class="o"><path transform="translate(8,16)" class="S ssv" d="M1983 1843 L2175 2035 L2175 2155 L1983 1963 Z"/><path class="sv1" d="M1983 1843 L2175 2035 L2175 2155 L1983 1963 Z" /></g><g class="o"><path transform="translate(4,8)" class="S ssv" d="M1225 1802 L1362 1939 L1362 1959 L1225 1822 Z"/><path class="sv6" d="M1225 1802 L1362 1939 L1362 1959 L1225 1822 Z" /></g><g class="o"><path transform="translate(2,4)" class="S sfv" d="M1393 1045 L1557 1209 L1557 1241 L1393 1077 Z"/><path class="fv2" d="M1393 1045 L1557 1209 L1557 1241 L1393 1077 Z" /></g><g class="o"><path transform="translate(7,14)" class="S sfv" d="M1284 1892 L1491 2099 L1491 2111 L1284 1904 Z"/><path class="fv6" d="M1284 1892 L1491 2099 L1491 2111 L1284 1904 Z" /></g><g class="o"><path transform="translate(5,10)" class="S ssv" d="M1487 1836 L1736 1587 L1736 1597 L1487 1846 Z"/><path class="sv3" d="M1487 1836 L1736 1587 L1736 1597 L1487 1846 Z" /></g><g class="o"><path transform="translate(4,8)" class="S ssh" d="M1004 1994 L1073 2063 L1097 2063 L1028 1994 Z"/><path class="sh7" d="M1004 1994 L1073 2063 L1097 2063 L1028 1994 Z" /></g><g class="o"><path transform="translate(2,4)" class="S ssh" d="M1703 1437 L1831 1309 L1943 1309 L1815 1437 Z"/><path class="sh1" d="M1703 1437 L1831 1309 L1943 1309 L1815 1437 Z" /></g><g class="o"><path transform="translate(4,8)" class="S sfv" d="M1599 1903 L1725 2029 L1725 2055 L1599 1929 Z"/><path class="fv2" d="M1599 1903 L1725 2029 L1725 2055 L1599 1929 Z" /></g><g class="o"><path transform="translate(7,14)" class="S ssv" d="M1403 2005 L1557 2159 L1557 2179 L1403 2025 Z"/><path class="sv7" d="M1403 2005 L1557 2159 L1557 2179 L1403 2025 Z" /></g><g class="o"><path transform="translate(5,10)" class="S sfh" d="M1824 1406 L1994 1236 L2026 1236 L1856 1406 Z"/><path class="fh2" d="M1824 1406 L1994 1236 L2026 1236 L1856 1406 Z" /></g><g class="o"><path transform="translate(3,6)" class="S sfv" d="M1870 2030 L2052 2212 L2052 2224 L1870 2042 Z"/><path class="fv4" d="M1870 2030 L2052 2212 L2052 2224 L1870 2042 Z" /></g><g class="o"><path transform="translate(2,4)" class="S sf" d="M1242 1932 L1369 2059 L1369 2085 L1242 1958 Z"/><path class="f2" d="M1242 1932 L1369 2059 L1369 2085 L1242 1958 Z" /></g><g class="o"><path transform="translate(5,10)" class="S sfv" d="M1953 1463 L2044 1372 L2044 1386 L1953 1477 Z"/><path class="fv2" d="M1953 1463 L2044 1372 L2044 1386 L1953 1477 Z" /></g><g class="o"><path transform="translate(7,14)" class="S ssh" d="M1002 1036 L1202 1236 L1228 1236 L1028 1036 Z"/><path class="sh7" d="M1002 1036 L1202 1236 L1228 1236 L1028 1036 Z" /></g><g class="o"><path transform="translate(8,16)" class="S sf" d="M1084 1332 L1232 1184 L1232 1200 L1084 1348 Z"/><path class="f7" d="M1084 1332 L1232 1184 L1232 1200 L1084 1348 Z" /></g><g class="o"><path transform="translate(9,18)" class="S sfh" d="M1340 1801 L1517 1624 L1527 1624 L1350 1801 Z"/><path class="fh1" d="M1340 1801 L1517 1624 L1527 1624 L1350 1801 Z" /></g><g class="o"><path transform="translate(2,4)" class="S sfv" d="M1250 1494 L1453 1291 L1453 1321 L1250 1524 Z"/><path class="fv1" d="M1250 1494 L1453 1291 L1453 1321 L1250 1524 Z" /></g><g class="o"><path transform="translate(7,14)" class="S sf" d="M1501 1465 L1649 1613 L1677 1613 L1529 1465 Z"/><path class="f1" d="M1501 1465 L1649 1613 L1677 1613 L1529 1465 Z" /></g><g class="o"><path transform="translate(5,10)" class="S ss" d="M969 1127 L1024 1072 L1024 1086 L969 1141 Z"/><path class="s2" d="M969 1127 L1024 1072 L1024 1086 L969 1141 Z" /></g><g class="o"><path transform="translate(3,6)" class="S ssh" d="M1808 1689 L1883 1764 L1919 1764 L1844 1689 Z"/><path class="sh7" d="M1808 1689 L1883 1764 L1919 1764 L1844 1689 Z" /></g><g class="o"><path transform="translate(4,8)" class="S sfh" d="M1974 965 L2161 1152 L2193 1152 L2006 965 Z"/><path class="fh3" d="M1974 965 L2161 1152 L2193 1152 L2006 965 Z" /></g><g class="o"><path transform="translate(2,4)" class="S sfh" d="M948 1722 L1070 1600 L1108 1600 L986 1722 Z"/><path class="fh2" d="M948 1722 L1070 1600 L1108 1600 L986 1722 Z" /></g><g class="o"><path transform="translate(4,8)" class="S ssh" d="M1069 1288 L1131 1226 L1147 1226 L1085 1288 Z"/><path class="sh4" d="M1069 1288 L1131 1226 L1147 1226 L1085 1288 Z" /></g><g class="o"><path transform="translate(3,6)" class="S sfh" d="M1362 970 L1492 1100 L1528 1100 L1398 970 Z"/><path class="fh3" d="M1362 970 L1492 1100 L1528 1100 L1398 970 Z" /></g><g class="o"><path transform="translate(2,4)" class="S sfh" d="M1050 1583 L1177 1710 L1187 1710 L1060 1583 Z"/><path class="fh7" d="M1050 1583 L1177 1710 L1187 1710 L1060 1583 Z" /></g><g class="o"><path transform="translate(7,14)" class="S sfv" d="M1259 1781 L1353 1687 L1353 1711 L1259 1805 Z"/><path class="fv7" d="M1259 1781 L1353 1687 L1353 1711 L1259 1805 Z" /></g><g class="o"><path transform="translate(9,18)" class="S sfh" d="M1170 1089 L1309 950 L1325 950 L1186 1089 Z"/><path class="fh6" d="M1170 1089 L1309 950 L1325 950 L1186 1089 Z" /></g><g class="o"><path transform="translate(5,10)" class="S ssv" d="M1132 1236 L1379 1483 L1379 1501 L1132 1254 Z"/><path class="sv1" d="M1132 1236 L1379 1483 L1379 1501 L1132 1254 Z" /></g><g class="o"><path transform="translate(6,12)" class="S sfv" d="M1024 1299 L1135 1410 L1135 1432 L1024 1321 Z"/><path class="fv4" d="M1024 1299 L1135 1410 L1135 1432 L1024 1321 Z" /></g><g class="o"><path transform="translate(9,18)" class="S sfh" d="M1880 1378 L2082 1176 L2092 1176 L1890 1378 Z"/><path class="fh3" d="M1880 1378 L2082 1176 L2092 1176 L1890 1378 Z" /></g><g class="o"><path transform="translate(4,8)" class="S sfh" d="M1996 1468 L2125 1339 L2149 1339 L2020 1468 Z"/><path class="fh6" d="M1996 1468 L2125 1339 L2149 1339 L2020 1468 Z" /></g><g class="o"><path transform="translate(3,6)" class="S sfh" d="M1450 1557 L1608 1399 L1644 1399 L1486 1557 Z"/><path class="fh2" d="M1450 1557 L1608 1399 L1644 1399 L1486 1557 Z" /></g><g class="o"><path transform="translate(2,4)" class="S sfh" d="M1890 1236 L2077 1049 L2105 1049 L1918 1236 Z"/><path class="fh2" d="M1890 1236 L2077 1049 L2105 1049 L1918 1236 Z" /></g><g class="o"><path transform="translate(2,4)" class="S sfv" d="M1076 1233 L1260 1049 L1260 1071 L1076 1255 Z"/><path class="fv2" d="M1076 1233 L1260 1049 L1260 1071 L1076 1255 Z" /></g><g class="o"><path transform="translate(3,6)" class="S sf" d="M1448 1498 L1633 1313 L1663 1313 L1478 1498 Z"/><path class="f3" d="M1448 1498 L1633 1313 L1663 1313 L1478 1498 Z" /></g><g class="o"><path transform="translate(9,18)" class="S ssh" d="M1663 1206 L1821 1364 L1835 1364 L1677 1206 Z"/><path class="sh2" d="M1663 1206 L1821 1364 L1835 1364 L1677 1206 Z" /></g><g class="o"><path transform="translate(6,12)" class="S sf" d="M978 1445 L1174 1249 L1174 1261 L978 1457 Z"/><path class="f3" d="M978 1445 L1174 1249 L1174 1261 L978 1457 Z" /></g><g class="o"><path transform="translate(6,12)" class="S sfh" d="M1335 1168 L1523 1356 L1551 1356 L1363 1168 Z"/><path class="fh5" d="M1335 1168 L1523 1356 L1551 1356 L1363 1168 Z" /></g><g class="o"><path transform="translate(8,16)" class="S sfh" d="M1472 1555 L1526 1609 L1546 1609 L1492 1555 Z"/><path class="fh6" d="M1472 1555 L1526 1609 L1546 1609 L1492 1555 Z" /></g><g class="o"><path transform="translate(6,12)" class="S sfh" d="M1143 1528 L1220 1451 L1248 1451 L1171 1528 Z"/><path class="fh2" d="M1143 1528 L1220 1451 L1248 1451 L1171 1528 Z" /></g><g class="o"><path transform="translate(8,16)" class="S sfh" d="M1474 1639 L1679 1434 L1689 1434 L1484 1639 Z"/><path class="fh6" d="M1474 1639 L1679 1434 L1689 1434 L1484 1639 Z" /></g><g class="o"><path transform="translate(8,16)" class="S sfv" d="M1202 1728 L1415 1941 L1415 1963 L1202 1750 Z"/><path class="fv2" d="M1202 1728 L1415 1941 L1415 1963 L1202 1750 Z" /></g><g class="o"><path transform="translate(5,10)" class="S sfv" d="M1783 990 L1846 1053 L1846 1061 L1783 998 Z"/><path class="fv3" d="M1783 990 L1846 1053 L1846 1061 L1783 998 Z" /></g><g class="o"><path transform="translate(8,16)" class="S sf" d="M1040 1701 L1225 1516 L1237 1516 L1052 1701 Z"/><path class="f5" d="M1040 1701 L1225 1516 L1237 1516 L1052 1701 Z" /></g><g class="o"><path transform="translate(4,8)" class="S sfv" d="M2007 2024 L2176 1855 L2176 1885 L2007 2054 Z"/><path class="fv1" d="M2007 2024 L2176 1855 L2176 1885 L2007 2054 Z" /></g><g class="o"><path transform="translate(5,10)" class="S sfv" d="M973 1650 L1127 1496 L1127 1532 L973 1686 Z"/><path class="fv3" d="M973 1650 L1127 1496 L1127 1532 L973 1686 Z" /></g><g class="o"><path transform="translate(6,12)" class="S sfh" d="M1736 2007 L1864 1879 L1896 1879 L1768 2007 Z"/><path class="fh5" d="M1736 2007 L1864 1879 L1896 1879 L1768 2007 Z" /></g><g class="o"><path transform="translate(9,18)" class="S sfv" d="M1361 1020 L1608 1267 L1608 1287 L1361 1040 Z"/><path class="fv6" d="M1361 1020 L1608 1267 L1608 1287 L1361 1040 Z" /></g><g class="o"><path transform="translate(4,8)" class="S sfv" d="M1689 1451 L1812 1328 L1812 1350 L1689 1473 Z"/><path class="fv7" d="M1689 1451 L1812 1328 L1812 1350 L1689 1473 Z" /></g><g class="o"><path transform="translate(7,14)" class="S sfv" d="M1127 1175 L1330 972 L1330 1000 L1127 1203 Z"/><path class="fv2" d="M1127 1175 L1330 972 L1330 1000 L1127 1203 Z" /></g><g class="o"><path transform="translate(5,10)" class="S sfv" d="M956 1548 L1178 1326 L1178 1446 L956 1668 Z"/><path class="fv7" d="M956 1548 L1178 1326 L1178 1446 L956 1668 Z" /></g><g class="o"><path transform="translate(5,10)" class="S sfv" d="M1292 956 L1352 896 L1352 912 L1292 972 Z"/><path class="fv2" d="M1292 956 L1352 896 L1352 912 L1292 972 Z" /></g><g class="o"><path transform="translate(6,12)" class="S sfv" d="M1996 1848 L2060 1912 L2060 1950 L1996 1886 Z"/><path class="fv4" d="M1996 1848 L2060 1912 L2060 1950 L1996 1886 Z" /></g><g class="o"><path transform="translate(2,4)" class="S sfh" d="M1878 1123 L2086 1331 L2134 1331 L1926 1123 Z"/><path class="fh1" d="M1878 1123 L2086 1331 L2134 1331 L1926 1123 Z" /></g><g class="o"><path transform="translate(9,18)" class="S sf" d="M1807 1098 L1922 983 L1922 1087 L1807 1202 Z"/><path class="f6" d="M1807 1098 L1922 983 L1922 1087 L1807 1202 Z" /></g><g class="o"><path transform="translate(4,8)" class="S sfh" d="M984 1138 L1205 1359 L1221 1359 L1000 1138 Z"/><path class="fh4" d="M984 1138 L1205 1359 L1221 1359 L1000 1138 Z" /></g><g class="o"><path transform="translate(9,18)" class="S ssv" d="M1845 1171 L1944 1270 L1944 1308 L1845 1209 Z"/><path class="sv2" d="M1845 1171 L1944 1270 L1944 1308 L1845 1209 Z" /></g><g class="o"><path transform="translate(9,18)" class="S sfv" d="M1845 1933 L1905 1993 L1905 2005 L1845 1945 Z"/><path class="fv2" d="M1845 1933 L1905 1993 L1905 2005 L1845 1945 Z" /></g><g class="o"><path transform="translate(2,4)" class="S sfh" d="M1790 1421 L2029 1660 L2063 1660 L1824 1421 Z"/><path class="fh5" d="M1790 1421 L2029 1660 L2063 1660 L1824 1421 Z" /></g><g class="o"><path transform="translate(6,12)" class="S sfv" d="M1678 1474 L1801 1351 L1801 1423 L1678 1546 Z"/><path class="fv1" d="M1678 1474 L1801 1351 L1801 1423 L1678 1546 Z" /></g><g class="o"><path transform="translate(3,6)" class="S sfv" d="M1695 1473 L1871 1649 L1871 1669 L1695 1493 Z"/><path class="fv1" d="M1695 1473 L1871 1649 L1871 1669 L1695 1493 Z" /></g><g class="o"><path transform="translate(5,10)" class="S sfh" d="M958 1215 L1116 1373 L1152 1373 L994 1215 Z"/><path class="fh5" d="M958 1215 L1116 1373 L1152 1373 L994 1215 Z" /></g><g class="o"><path transform="translate(9,18)" class="S sf" d="M2000 1802 L2177 1979 L2211 1979 L2034 1802 Z"/><path class="f3" d="M2000 1802 L2177 1979 L2211 1979 L2034 1802 Z" /></g><g class="o"><path transform="translate(4,8)" class="S ssv" d="M1943 1334 L2088 1479 L2088 1491 L1943 1346 Z"/><path class="sv3" d="M1943 1334 L2088 1479 L2088 1491 L1943 1346 Z" /></g><g class="o"><path transform="translate(2,4)" class="S sfv" d="M1872 1678 L2048 1502 L2048 1514 L1872 1690 Z"/><path class="fv6" d="M1872 1678 L2048 1502 L2048 1514 L1872 1690 Z" /></g><g class="o"><path transform="translate(2,4)" class="S sf" d="M1490 1531 L1688 1333 L1724 1333 L1526 1531 Z"/><path class="f2" d="M1490 1531 L1688 1333 L1724 1333 L1526 1531 Z" /></g><g class="o"><path transform="translate(7,14)" class="S sfh" d="M1040 2016 L1281 1775 L1305 1775 L1064 2016 Z"/><path class="fh2" d="M1040 2016 L1281 1775 L1305 1775 L1064 2016 Z" /></g><g class="o"><path transform="translate(8,16)" class="S sfh" d="M1067 1930 L1263 1734 L1285 1734 L1089 1930 Z"/><path class="fh3" d="M1067 1930 L1263 1734 L1285 1734 L1089 1930 Z" /></g><g class="o"><path transform="translate(3,6)" class="S sfh" d="M1621 1455 L1723 1557 L1749 1557 L1647 1455 Z"/><path class="fh1" d="M1621 1455 L1723 1557 L1749 1557 L1647 1455 Z" /></g><g class="o"><path transform="translate(3,6)" class="S sfh" d="M1702 990 L1819 1107 L1837 1107 L1720 990 Z"/><path class="fh2" d="M1702 990 L1819 1107 L1837 1107 L1720 990 Z" /></g><g class="o"><path transform="translate(4,8)" class="S sfh" d="M1253 1440 L1412 1281 L1422 1281 L1263 1440 Z"/><path class="fh4" d="M1253 1440 L1412 1281 L1422 1281 L1263 1440 Z" /></g><g class="o"><path transform="translate(5,10)" class="S sfh" d="M1327 1793 L1541 2007 L1561 2007 L1347 1793 Z"/><path class="fh6" d="M1327 1793 L1541 2007 L1561 2007 L1347 1793 Z" /></g><g class="o"><path transform="translate(2,4)" class="S ssv" d="M1091 1454 L1291 1654 L1291 1694 L1091 1494 Z"/><path class="sv3" d="M1091 1454 L1291 1654 L1291 1694 L1091 1494 Z" /></g><g class="o"><path transform="translate(8,16)" class="S sfh" d="M1068 1328 L1241 1155 L1273 1155 L1100 1328 Z"/><path class="fh2" d="M1068 1328 L1241 1155 L1273 1155 L1100 1328 Z" /></g><g class="o"><path transform="translate(8,16)" class="S sfv" d="M1055 1747 L1234 1926 L1234 2030 L1055 1851 Z"/><path class="fv6" d="M1055 1747 L1234 1926 L1234 2030 L1055 1851 Z" /></g><g class="o"><path transform="translate(4,8)" class="S sf" d="M1407 1049 L1564 892 L1590 892 L1433 1049 Z"/><path class="f3" d="M1407 1049 L1564 892 L1590 892 L1433 1049 Z" /></g><g class="o"><path transform="translate(9,18)" class="S sfv" d="M997 1091 L1210 878 L1210 900 L997 1113 Z"/><path class="fv7" d="M997 1091 L1210 878 L1210 900 L997 1113 Z" /></g><g class="o"><path transform="translate(5,10)" class="S sfv" d="M1503 1571 L1749 1325 L1749 1353 L1503 1599 Z"/><path class="fv6" d="M1503 1571 L1749 1325 L1749 1353 L1503 1599 Z" /></g><g class="o"><path transform="translate(4,8)" class="S sf" d="M1290 1627 L1466 1451 L1466 1487 L1290 1663 Z"/><path class="f3" d="M1290 1627 L1466 1451 L1466 1487 L1290 1663 Z" /></g><g class="o"><path transform="translate(4,8)" class="S ssh" d="M1679 1580 L1733 1634 L1747 1634 L1693 1580 Z"/><path class="sh4" d="M1679 1580 L1733 1634 L1747 1634 L1693 1580 Z" /></g><g class="o"><path transform="translate(3,6)" class="S sfh" d="M1212 1981 L1340 2109 L1348 2109 L1220 1981 Z"/><path class="fh2" d="M1212 1981 L1340 2109 L1348 2109 L1220 1981 Z" /></g><g class="o"><path transform="translate(9,18)" class="S sfv" d="M1393 1435 L1641 1187 L1641 1219 L1393 1467 Z"/><path class="fv6" d="M1393 1435 L1641 1187 L1641 1219 L1393 1467 Z" /></g><g class="o"><path transform="translate(6,12)" class="S sfv" d="M2031 1324 L2088 1267 L2088 1303 L2031 1360 Z"/><path class="fv2" d="M2031 1324 L2088 1267 L2088 1303 L2031 1360 Z" /></g><g class="o"><path transform="translate(4,8)" class="S ssh" d="M1804 1217 L1884 1297 L1916 1297 L1836 1217 Z"/><path class="sh1" d="M1804 1217 L1884 1297 L1916 1297 L1836 1217 Z" /></g><g class="o"><path transform="translate(6,12)" class="S sfv" d="M1391 1740 L1531 1600 L1531 1628 L1391 1768 Z"/><path class="fv7" d="M1391 1740 L1531 1600 L1531 1628 L1391 1768 Z" /></g><g class="o"><path transform="translate(9,18)" class="S sfh" d="M1824 1905 L2005 2086 L2027 2086 L1846 1905 Z"/><path class="fh7" d="M1824 1905 L2005 2086 L2027 2086 L1846 1905 Z" /></g><g class="o"><path transform="translate(6,12)" class="S sfv" d="M1875 1296 L1982 1403 L1982 1431 L1875 1324 Z"/><path class="fv7" d="M1875 1296 L1982 1403 L1982 1431 L1875 1324 Z" /></g><g class="o"><path transform="translate(3,6)" class="S sf" d="M1769 1910 L1879 1800 L1879 1820 L1769 1930 Z"/><path class="f5" d="M1769 1910 L1879 1800 L1879 1820 L1769 1930 Z" /></g><g class="o"><path transform="translate(6,12)" class="S sfh" d="M1444 984 L1640 1180 L1654 1180 L1458 984 Z"/><path class="fh6" d="M1444 984 L1640 1180 L1654 1180 L1458 984 Z" /></g><g class="o"><path transform="translate(8,16)" class="S ssh" d="M1098 1652 L1195 1749 L1229 1749 L1132 1652 Z"/><path class="sh5" d="M1098 1652 L1195 1749 L1229 1749 L1132 1652 Z" /></g><g class="o"><path transform="translate(7,14)" class="S sfv" d="M1980 1033 L2128 885 L2128 909 L1980 1057 Z"/><path class="fv7" d="M1980 1033 L2128 885 L2128 909 L1980 1057 Z" /></g><g class="o"><path transform="translate(8,16)" class="S ssv" d="M1872 1241 L2072 1441 L2072 1457 L1872 1257 Z"/><path class="sv2" d="M1872 1241 L2072 1441 L2072 1457 L1872 1257 Z" /></g><g class="o"><path transform="translate(3,6)" class="S ssv" d="M1383 1086 L1572 1275 L1572 1287 L1383 1098 Z"/><path class="sv6" d="M1383 1086 L1572 1275 L1572 1287 L1383 1098 Z" /></g><g class="o"><path transform="translate(8,16)" class="S sf" d="M1653 955 L1815 793 L1847 793 L1685 955 Z"/><path class="f2" d="M1653 955 L1815 793 L1847 793 L1685 955 Z" /></g><g class="o"><path transform="translate(6,12)" class="S sfv" d="M1705 1116 L1942 879 L1942 915 L1705 1152 Z"/><path class="fv7" d="M1705 1116 L1942 879 L1942 915 L1705 1152 Z" /></g><g class="o"><path transform="translate(8,16)" class="S sfv" d="M1175 1023 L1398 1246 L1398 1260 L1175 1037 Z"/><path class="fv2" d="M1175 1023 L1398 1246 L1398 1260 L1175 1037 Z" /></g><g class="o"><path transform="translate(4,8)" class="S sf" d="M1284 1594 L1455 1765 L1551 1765 L1380 1594 Z"/><path class="f2" d="M1284 1594 L1455 1765 L1551 1765 L1380 1594 Z" /></g><g class="o"><path transform="translate(9,18)" class="S sfh" d="M958 997 L1195 1234 L1211 1234 L974 997 Z"/><path class="fh7" d="M958 997 L1195 1234 L1211 1234 L974 997 Z" /></g><g class="o"><path transform="translate(4,8)" class="S sfh" d="M1194 1478 L1356 1640 L1388 1640 L1226 1478 Z"/><path class="fh6" d="M1194 1478 L1356 1640 L1388 1640 L1226 1478 Z" /></g></g><use href="#slashes" transform-origin="1500 1500" transform="rotate(180) scale(2)"/></g><circle cx="1500" cy="1500" r="450" stroke-width="40" class="o s6" /><use href="#slashes" transform-origin="1500 1500" transform="scale(.9)"/><use href="#slashes" transform-origin="1500 1500" transform="rotate(180) scale(.9)"/></svg>