<svg xmlns="http://www.w3.org/2000/svg" viewBox="750 750 1500 1500"><style>/*<![CDATA[*/svg{background:rgb(174,217,224);max-width:100vw;max-height:100vh}path{stroke-width:4}.o{opacity:.75}.S{opacity:.4}.sf{stroke:none;fill:black}.sfh{stroke:none;fill:url(#hs)}.sfv{stroke:none;fill:url(#vs)}.ss{stroke:black;fill:none}.ssh{stroke:url(#hs);fill:none}.ssv{stroke:url(#vs);fill:none}.s1{fill:none;stroke:rgb(250,243,221)}.f1{stroke:none;fill:rgb(250,243,221)}.sh1{fill:none;stroke:url(#h1)}.fh1{stroke:none;fill:url(#h1)}.sv1{fill:none;stroke:url(#v1)}.fv1{stroke:none;fill:url(#v1)}.s2{fill:none;stroke:rgb(94,100,114)}.f2{stroke:none;fill:rgb(94,100,114)}.sh2{fill:none;stroke:url(#h2)}.fh2{stroke:none;fill:url(#h2)}.sv2{fill:none;stroke:url(#v2)}.fv2{stroke:none;fill:url(#v2)}.s3{fill:none;stroke:rgb(255,166,158)}.f3{stroke:none;fill:rgb(255,166,158)}.sh3{fill:none;stroke:url(#h3)}.fh3{stroke:none;fill:url(#h3)}.sv3{fill:none;stroke:url(#v3)}.fv3{stroke:none;fill:url(#v3)}.s4{fill:none;stroke:rgb(184,242,230)}.f4{stroke:none;fill:rgb(184,242,230)}.sh4{fill:none;stroke:url(#h4)}.fh4{stroke:none;fill:url(#h4)}.sv4{fill:none;stroke:url(#v4)}.fv4{stroke:none;fill:url(#v4)}.s5{fill:none;stroke:rgb(34,34,34)}.f5{stroke:none;fill:rgb(34,34,34)}.sh5{fill:none;stroke:url(#h5)}.fh5{stroke:none;fill:url(#h5)}.sv5{fill:none;stroke:url(#v5)}.fv5{stroke:none;fill:url(#v5)}.s6{fill:none;stroke:rgb(255,255,255)}.f6{stroke:none;fill:rgb(255,255,255)}.sh6{fill:none;stroke:url(#h6)}.fh6{stroke:none;fill:url(#h6)}.sv6{fill:none;stroke:url(#v6)}.fv6{stroke:none;fill:url(#v6)}.s7{fill:none;stroke:rgb(255,0,0)}.f7{stroke:none;fill:rgb(255,0,0)}.sh7{fill:none;stroke:url(#h7)}.fh7{stroke:none;fill:url(#h7)}.sv7{fill:none;stroke:url(#v7)}.fv7{stroke:none;fill:url(#v7)}/*]]>*/</style><defs><linearGradient gradientTransform="rotate(90)" id="hs"><stop offset="20%" stop-color="#000" /><stop offset="95%" stop-color="rgba(0, 0, 0, 0)" /></linearGradient><linearGradient id="vs"><stop offset="20%" stop-color="#000" /><stop offset="95%" stop-color="rgba(0, 0, 0, 0)" /></linearGradient><linearGradient gradientTransform="rotate(90)" id="h1"><stop offset="20%" stop-color="rgba(250,243,221,1)" /><stop offset="95%" stop-color="rgba(250,243,221,0)" /></linearGradient><linearGradient id="v1"><stop offset="20%" stop-color="rgba(250,243,221,1)" /><stop offset="95%" stop-color="rgba(250,243,221,0)" /></linearGradient><linearGradient gradientTransform="rotate(90)" id="h2"><stop offset="20%" stop-color="rgba(94,100,114,1)" /><stop offset="95%" stop-color="rgba(94,100,114,0)" /></linearGradient><linearGradient id="v2"><stop offset="20%" stop-color="rgba(94,100,114,1)" /><stop offset="95%" stop-color="rgba(94,100,114,0)" /></linearGradient><linearGradient gradientTransform="rotate(90)" id="h3"><stop offset="20%" stop-color="rgba(255,166,158,1)" /><stop offset="95%" stop-color="rgba(255,166,158,0)" /></linearGradient><linearGradient id="v3"><stop offset="20%" stop-color="rgba(255,166,158,1)" /><stop offset="95%" stop-color="rgba(255,166,158,0)" /></linearGradient><linearGradient gradientTransform="rotate(90)" id="h4"><stop offset="20%" stop-color="rgba(184,242,230,1)" /><stop offset="95%" stop-color="rgba(184,242,230,0)" /></linearGradient><linearGradient id="v4"><stop offset="20%" stop-color="rgba(184,242,230,1)" /><stop offset="95%" stop-color="rgba(184,242,230,0)" /></linearGradient><linearGradient gradientTransform="rotate(90)" id="h5"><stop offset="20%" stop-color="rgba(34,34,34,1)" /><stop offset="95%" stop-color="rgba(34,34,34,0)" /></linearGradient><linearGradient id="v5"><stop offset="20%" stop-color="rgba(34,34,34,1)" /><stop offset="95%" stop-color="rgba(34,34,34,0)" /></linearGradient><linearGradient gradientTransform="rotate(90)" id="h6"><stop offset="20%" stop-color="rgba(255,255,255,1)" /><stop offset="95%" stop-color="rgba(255,255,255,0)" /></linearGradient><linearGradient id="v6"><stop offset="20%" stop-color="rgba(255,255,255,1)" /><stop offset="95%" stop-color="rgba(255,255,255,0)" /></linearGradient><linearGradient gradientTransform="rotate(90)" id="h7"><stop offset="20%" stop-color="rgba(255,0,0,1)" /><stop offset="95%" stop-color="rgba(255,0,0,0)" /></linearGradient><linearGradient id="v7"><stop offset="20%" stop-color="rgba(255,0,0,1)" /><stop offset="95%" stop-color="rgba(255,0,0,0)" /></linearGradient></defs><g transform-origin="1500 1500" transform="scale(2)" opacity=".6"><g id="slashes"><g class="o"><path transform="translate(7,14)" class="S sfv" d="M1716 1875 L1494 2097 L1494 2111 L1716 1889 Z"/><path class="fv6" d="M1716 1875 L1494 2097 L1494 2111 L1716 1889 Z" /></g><g class="o"><path transform="translate(3,6)" class="S ssh" d="M1970 1331 L1349 1952 L1381 1952 L2002 1331 Z"/><path class="sh6" d="M1970 1331 L1349 1952 L1381 1952 L2002 1331 Z" /></g><g class="o"><path transform="translate(4,8)" class="S sfv" d="M1498 2039 L1261 2276 L1261 2290 L1498 2053 Z"/><path class="fv2" d="M1498 2039 L1261 2276 L1261 2290 L1498 2053 Z" /></g><g class="o"><path transform="translate(7,14)" class="S sfh" d="M1610 1010 L1370 770 L1384 770 L1624 1010 Z"/><path class="fh6" d="M1610 1010 L1370 770 L1384 770 L1624 1010 Z" /></g><g class="o"><path transform="translate(5,10)" class="S sfh" d="M1424 1295 L1260 1459 L1290 1459 L1454 1295 Z"/><path class="fh6" d="M1424 1295 L1260 1459 L1290 1459 L1454 1295 Z" /></g><g class="o"><path transform="translate(8,16)" class="S sfh" d="M1053 1998 L853 2198 L867 2198 L1067 1998 Z"/><path class="fh4" d="M1053 1998 L853 2198 L867 2198 L1067 1998 Z" /></g><g class="o"><path transform="translate(2,4)" class="S ssv" d="M1206 1843 L870 1507 L870 1535 L1206 1871 Z"/><path class="sv2" d="M1206 1843 L870 1507 L870 1535 L1206 1871 Z" /></g><g class="o"><path transform="translate(8,16)" class="S ssv" d="M1844 1937 L1535 2246 L1535 2268 L1844 1959 Z"/><path class="sv5" d="M1844 1937 L1535 2246 L1535 2268 L1844 1959 Z" /></g><g class="o"><path transform="translate(3,6)" class="S sfv" d="M1599 1700 L1056 2243 L1056 2275 L1599 1732 Z"/><path class="fv2" d="M1599 1700 L1056 2243 L1056 2275 L1599 1732 Z" /></g><g class="o"><path transform="translate(8,16)" class="S sfh" d="M2036 1889 L1829 1682 L1847 1682 L2054 1889 Z"/><path class="fh2" d="M2036 1889 L1829 1682 L1847 1682 L2054 1889 Z" /></g><g class="o"><path transform="translate(9,18)" class="S sfh" d="M1850 1804 L1638 1592 L1676 1592 L1888 1804 Z"/><path class="fh2" d="M1850 1804 L1638 1592 L1676 1592 L1888 1804 Z" /></g><g class="o"><path transform="translate(5,10)" class="S sf" d="M1606 1606 L982 2230 L996 2230 L1620 1606 Z"/><path class="f1" d="M1606 1606 L982 2230 L996 2230 L1620 1606 Z" /></g><g class="o"><path transform="translate(2,4)" class="S ss" d="M1048 1693 L891 1850 L891 1888 L1048 1731 Z"/><path class="s7" d="M1048 1693 L891 1850 L891 1888 L1048 1731 Z" /></g><g class="o"><path transform="translate(2,4)" class="S sfh" d="M1499 1131 L824 1806 L854 1806 L1529 1131 Z"/><path class="fh6" d="M1499 1131 L824 1806 L854 1806 L1529 1131 Z" /></g><g class="o"><path transform="translate(9,18)" class="S sf" d="M1761 1847 L1708 1900 L1708 1910 L1761 1857 Z"/><path class="f2" d="M1761 1847 L1708 1900 L1708 1910 L1761 1857 Z" /></g><g class="o"><path transform="translate(6,12)" class="S ss" d="M959 1688 L900 1747 L930 1747 L989 1688 Z"/><path class="s4" d="M959 1688 L900 1747 L930 1747 L989 1688 Z" /></g><g class="o"><path transform="translate(4,8)" class="S sf" d="M1534 1156 L898 1792 L910 1792 L1546 1156 Z"/><path class="f1" d="M1534 1156 L898 1792 L910 1792 L1546 1156 Z" /></g><g class="o"><path transform="translate(4,8)" class="S sfv" d="M1382 1604 L1191 1795 L1191 1825 L1382 1634 Z"/><path class="fv6" d="M1382 1604 L1191 1795 L1191 1825 L1382 1634 Z" /></g><g class="o"><path transform="translate(7,14)" class="S sfh" d="M1388 1388 L692 2084 L728 2084 L1424 1388 Z"/><path class="fh6" d="M1388 1388 L692 2084 L728 2084 L1424 1388 Z" /></g><g class="o"><path transform="translate(9,18)" class="S ssv" d="M1917 1569 L1440 2046 L1440 2074 L1917 1597 Z"/><path class="sv2" d="M1917 1569 L1440 2046 L1440 2074 L1917 1597 Z" /></g><g class="o"><path transform="translate(9,18)" class="S ssh" d="M1992 1821 L1818 1995 L1836 1995 L2010 1821 Z"/><path class="sh1" d="M1992 1821 L1818 1995 L1836 1995 L2010 1821 Z" /></g><g class="o"><path transform="translate(5,10)" class="S ssv" d="M1169 1741 L686 2224 L686 2240 L1169 1757 Z"/><path class="sv3" d="M1169 1741 L686 2224 L686 2240 L1169 1757 Z" /></g><g class="o"><path transform="translate(7,14)" class="S ssh" d="M1461 1136 L1410 1187 L1438 1187 L1489 1136 Z"/><path class="sh1" d="M1461 1136 L1410 1187 L1438 1187 L1489 1136 Z" /></g><g class="o"><path transform="translate(6,12)" class="S sfh" d="M1195 1465 L616 2044 L630 2044 L1209 1465 Z"/><path class="fh7" d="M1195 1465 L616 2044 L630 2044 L1209 1465 Z" /></g><g class="o"><path transform="translate(2,4)" class="S sfh" d="M1606 1867 L1150 2323 L1230 2323 L1686 1867 Z"/><path class="fh2" d="M1606 1867 L1150 2323 L1230 2323 L1686 1867 Z" /></g><g class="o"><path transform="translate(6,12)" class="S sf" d="M1710 1752 L1386 2076 L1466 2076 L1790 1752 Z"/><path class="f3" d="M1710 1752 L1386 2076 L1466 2076 L1790 1752 Z" /></g><g class="o"><path transform="translate(2,4)" class="S sfv" d="M1610 958 L1214 562 L1214 596 L1610 992 Z"/><path class="fv5" d="M1610 958 L1214 562 L1214 596 L1610 992 Z" /></g><g class="o"><path transform="translate(8,16)" class="S sfh" d="M1617 1817 L1008 1208 L1022 1208 L1631 1817 Z"/><path class="fh1" d="M1617 1817 L1008 1208 L1022 1208 L1631 1817 Z" /></g><g class="o"><path transform="translate(3,6)" class="S sfh" d="M1863 1598 L1771 1690 L1799 1690 L1891 1598 Z"/><path class="fh1" d="M1863 1598 L1771 1690 L1799 1690 L1891 1598 Z" /></g><g class="o"><path transform="translate(6,12)" class="S sfh" d="M1626 1957 L1191 1522 L1207 1522 L1642 1957 Z"/><path class="fh7" d="M1626 1957 L1191 1522 L1207 1522 L1642 1957 Z" /></g><g class="o"><path transform="translate(6,12)" class="S sfv" d="M1396 1523 L1066 1853 L1066 1863 L1396 1533 Z"/><path class="fv3" d="M1396 1523 L1066 1853 L1066 1863 L1396 1533 Z" /></g><g class="o"><path transform="translate(8,16)" class="S sfh" d="M1765 1177 L1189 1753 L1207 1753 L1783 1177 Z"/><path class="fh3" d="M1765 1177 L1189 1753 L1207 1753 L1783 1177 Z" /></g><g class="o"><path transform="translate(4,8)" class="S sf" d="M1638 1555 L960 2233 L984 2233 L1662 1555 Z"/><path class="f7" d="M1638 1555 L960 2233 L984 2233 L1662 1555 Z" /></g><g class="o"><path transform="translate(8,16)" class="S sf" d="M1596 1898 L1200 2294 L1200 2330 L1596 1934 Z"/><path class="f3" d="M1596 1898 L1200 2294 L1200 2330 L1596 1934 Z" /></g><g class="o"><path transform="translate(5,10)" class="S sf" d="M1448 1798 L1229 2017 L1253 2017 L1472 1798 Z"/><path class="f6" d="M1448 1798 L1229 2017 L1253 2017 L1472 1798 Z" /></g><g class="o"><path transform="translate(6,12)" class="S sfh" d="M1050 1097 L540 587 L574 587 L1084 1097 Z"/><path class="fh2" d="M1050 1097 L540 587 L574 587 L1084 1097 Z" /></g><g class="o"><path transform="translate(6,12)" class="S sfv" d="M1274 1523 L1007 1790 L1007 1810 L1274 1543 Z"/><path class="fv7" d="M1274 1523 L1007 1790 L1007 1810 L1274 1543 Z" /></g><g class="o"><path transform="translate(4,8)" class="S sfv" d="M1018 1498 L760 1756 L760 1782 L1018 1524 Z"/><path class="fv1" d="M1018 1498 L760 1756 L760 1782 L1018 1524 Z" /></g><g class="o"><path transform="translate(6,12)" class="S sfh" d="M1826 1082 L1592 1316 L1600 1316 L1834 1082 Z"/><path class="fh3" d="M1826 1082 L1592 1316 L1600 1316 L1834 1082 Z" /></g><g class="o"><path transform="translate(8,16)" class="S sfv" d="M1112 1784 L719 2177 L719 2205 L1112 1812 Z"/><path class="fv1" d="M1112 1784 L719 2177 L719 2205 L1112 1812 Z" /></g><g class="o"><path transform="translate(4,8)" class="S sfv" d="M957 1393 L733 1617 L733 1649 L957 1425 Z"/><path class="fv5" d="M957 1393 L733 1617 L733 1649 L957 1425 Z" /></g><g class="o"><path transform="translate(2,4)" class="S sfv" d="M1310 1735 L1152 1893 L1152 2021 L1310 1863 Z"/><path class="fv1" d="M1310 1735 L1152 1893 L1152 2021 L1310 1863 Z" /></g><g class="o"><path transform="translate(2,4)" class="S sfv" d="M1987 1998 L1818 2167 L1818 2203 L1987 2034 Z"/><path class="fv1" d="M1987 1998 L1818 2167 L1818 2203 L1987 2034 Z" /></g><g class="o"><path transform="translate(9,18)" class="S ssh" d="M1001 1305 L584 1722 L712 1722 L1129 1305 Z"/><path class="sh2" d="M1001 1305 L584 1722 L712 1722 L1129 1305 Z" /></g><g class="o"><path transform="translate(9,18)" class="S ssv" d="M1923 1246 L1723 1046 L1723 1060 L1923 1260 Z"/><path class="sv6" d="M1923 1246 L1723 1046 L1723 1060 L1923 1260 Z" /></g><g class="o"><path transform="translate(2,4)" class="S sfh" d="M1407 1817 L1324 1734 L1336 1734 L1419 1817 Z"/><path class="fh2" d="M1407 1817 L1324 1734 L1336 1734 L1419 1817 Z" /></g><g class="o"><path transform="translate(5,10)" class="S ss" d="M1303 1420 L1105 1618 L1105 1762 L1303 1564 Z"/><path class="s5" d="M1303 1420 L1105 1618 L1105 1762 L1303 1564 Z" /></g><g class="o"><path transform="translate(4,8)" class="S sfh" d="M1623 1574 L1155 2042 L1177 2042 L1645 1574 Z"/><path class="fh7" d="M1623 1574 L1155 2042 L1177 2042 L1645 1574 Z" /></g><g class="o"><path transform="translate(8,16)" class="S sfv" d="M1347 1493 L1113 1727 L1113 1765 L1347 1531 Z"/><path class="fv4" d="M1347 1493 L1113 1727 L1113 1765 L1347 1531 Z" /></g><g class="o"><path transform="translate(6,12)" class="S ssh" d="M1711 1630 L1583 1758 L1599 1758 L1727 1630 Z"/><path class="sh1" d="M1711 1630 L1583 1758 L1599 1758 L1727 1630 Z" /></g><g class="o"><path transform="translate(3,6)" class="S ssv" d="M1655 1950 L1010 1305 L1010 1339 L1655 1984 Z"/><path class="sv4" d="M1655 1950 L1010 1305 L1010 1339 L1655 1984 Z" /></g><g class="o"><path transform="translate(6,12)" class="S sf" d="M1571 1528 L1376 1723 L1376 1733 L1571 1538 Z"/><path class="f2" d="M1571 1528 L1376 1723 L1376 1733 L1571 1538 Z" /></g><g class="o"><path transform="translate(9,18)" class="S sfh" d="M1869 1409 L1617 1661 L1631 1661 L1883 1409 Z"/><path class="fh3" d="M1869 1409 L1617 1661 L1631 1661 L1883 1409 Z" /></g><g class="o"><path transform="translate(7,14)" class="S ssv" d="M2022 1648 L1902 1768 L1902 1806 L2022 1686 Z"/><path class="sv6" d="M2022 1648 L1902 1768 L1902 1806 L2022 1686 Z" /></g><g class="o"><path transform="translate(3,6)" class="S sfh" d="M1562 1453 L1411 1604 L1429 1604 L1580 1453 Z"/><path class="fh1" d="M1562 1453 L1411 1604 L1429 1604 L1580 1453 Z" /></g><g class="o"><path transform="translate(8,16)" class="S ssh" d="M1746 1577 L1122 2201 L1154 2201 L1778 1577 Z"/><path class="sh7" d="M1746 1577 L1122 2201 L1154 2201 L1778 1577 Z" /></g><g class="o"><path transform="translate(9,18)" class="S ssv" d="M1146 1251 L654 759 L654 799 L1146 1291 Z"/><path class="sv3" d="M1146 1251 L654 759 L654 799 L1146 1291 Z" /></g><g class="o"><path transform="translate(7,14)" class="S sfh" d="M1936 1169 L1772 1333 L1802 1333 L1966 1169 Z"/><path class="fh6" d="M1936 1169 L1772 1333 L1802 1333 L1966 1169 Z" /></g><g class="o"><path transform="translate(6,12)" class="S sfv" d="M1394 1207 L1175 1426 L1175 1450 L1394 1231 Z"/><path class="fv1" d="M1394 1207 L1175 1426 L1175 1450 L1394 1231 Z" /></g><g class="o"><path transform="translate(7,14)" class="S sf" d="M1008 1273 L543 1738 L575 1738 L1040 1273 Z"/><path class="f7" d="M1008 1273 L543 1738 L575 1738 L1040 1273 Z" /></g><g class="o"><path transform="translate(5,10)" class="S ss" d="M1535 1880 L962 2453 L962 2483 L1535 1910 Z"/><path class="s1" d="M1535 1880 L962 2453 L962 2483 L1535 1910 Z" /></g><g class="o"><path transform="translate(7,14)" class="S sfv" d="M1078 1781 L709 1412 L709 1424 L1078 1793 Z"/><path class="fv5" d="M1078 1781 L709 1412 L709 1424 L1078 1793 Z" /></g><g class="o"><path transform="translate(3,6)" class="S sfv" d="M1042 1497 L889 1650 L889 1678 L1042 1525 Z"/><path class="fv3" d="M1042 1497 L889 1650 L889 1678 L1042 1525 Z" /></g><g class="o"><path transform="translate(9,18)" class="S sfv" d="M1360 1395 L787 1968 L787 2056 L1360 1483 Z"/><path class="fv2" d="M1360 1395 L787 1968 L787 2056 L1360 1483 Z" /></g><g class="o"><path transform="translate(9,18)" class="S sfh" d="M1630 1345 L1407 1568 L1527 1568 L1750 1345 Z"/><path class="fh2" d="M1630 1345 L1407 1568 L1527 1568 L1750 1345 Z" /></g><g class="o"><path transform="translate(6,12)" class="S sfh" d="M1100 1696 L886 1910 L902 1910 L1116 1696 Z"/><path class="fh3" d="M1100 1696 L886 1910 L902 1910 L1116 1696 Z" /></g><g class="o"><path transform="translate(4,8)" class="S sf" d="M1174 1379 L685 1868 L707 1868 L1196 1379 Z"/><path class="f3" d="M1174 1379 L685 1868 L707 1868 L1196 1379 Z" /></g><g class="o"><path transform="translate(4,8)" class="S sfh" d="M1397 1373 L1188 1582 L1212 1582 L1421 1373 Z"/><path class="fh4" d="M1397 1373 L1188 1582 L1212 1582 L1421 1373 Z" /></g><g class="o"><path transform="translate(5,10)" class="S sfv" d="M1452 1235 L1230 1457 L1230 1493 L1452 1271 Z"/><path class="fv6" d="M1452 1235 L1230 1457 L1230 1493 L1452 1271 Z" /></g><g class="o"><path transform="translate(7,14)" class="S sfh" d="M961 1278 L717 1522 L745 1522 L989 1278 Z"/><path class="fh2" d="M961 1278 L717 1522 L745 1522 L989 1278 Z" /></g><g class="o"><path transform="translate(2,4)" class="S sfv" d="M1162 1908 L916 1662 L916 1696 L1162 1942 Z"/><path class="fv1" d="M1162 1908 L916 1662 L916 1696 L1162 1942 Z" /></g><g class="o"><path transform="translate(4,8)" class="S sfh" d="M1460 1182 L1133 1509 L1145 1509 L1472 1182 Z"/><path class="fh6" d="M1460 1182 L1133 1509 L1145 1509 L1472 1182 Z" /></g><g class="o"><path transform="translate(3,6)" class="S sfv" d="M989 1394 L749 1634 L749 1670 L989 1430 Z"/><path class="fv4" d="M989 1394 L749 1634 L749 1670 L989 1430 Z" /></g><g class="o"><path transform="translate(5,10)" class="S sfh" d="M1973 1140 L1643 1470 L1669 1470 L1999 1140 Z"/><path class="fh2" d="M1973 1140 L1643 1470 L1669 1470 L1999 1140 Z" /></g><g class="o"><path transform="translate(6,12)" class="S sfh" d="M1608 1466 L1472 1330 L1510 1330 L1646 1466 Z"/><path class="fh2" d="M1608 1466 L1472 1330 L1510 1330 L1646 1466 Z" /></g><g class="o"><path transform="translate(9,18)" class="S sfv" d="M1463 1597 L1049 2011 L1049 2025 L1463 1611 Z"/><path class="fv2" d="M1463 1597 L1049 2011 L1049 2025 L1463 1611 Z" /></g><g class="o"><path transform="translate(5,10)" class="S sf" d="M968 1807 L320 1159 L342 1159 L990 1807 Z"/><path class="f5" d="M968 1807 L320 1159 L342 1159 L990 1807 Z" /></g><g class="o"><path transform="translate(2,4)" class="S sfh" d="M1496 962 L908 1550 L926 1550 L1514 962 Z"/><path class="fh2" d="M1496 962 L908 1550 L926 1550 L1514 962 Z" /></g><g class="o"><path transform="translate(2,4)" class="S sfh" d="M1449 1186 L1228 1407 L1244 1407 L1465 1186 Z"/><path class="fh5" d="M1449 1186 L1228 1407 L1244 1407 L1465 1186 Z" /></g><g class="o"><path transform="translate(7,14)" class="S sfv" d="M1156 1357 L559 1954 L559 1966 L1156 1369 Z"/><path class="fv1" d="M1156 1357 L559 1954 L559 1966 L1156 1369 Z" /></g><g class="o"><path transform="translate(7,14)" class="S ssh" d="M1339 1358 L1183 1202 L1211 1202 L1367 1358 Z"/><path class="sh5" d="M1339 1358 L1183 1202 L1211 1202 L1367 1358 Z" /></g><g class="o"><path transform="translate(4,8)" class="S sf" d="M1895 964 L1730 1129 L1754 1129 L1919 964 Z"/><path class="f4" d="M1895 964 L1730 1129 L1754 1129 L1919 964 Z" /></g><g class="o"><path transform="translate(8,16)" class="S sfv" d="M1980 1089 L1790 899 L1790 927 L1980 1117 Z"/><path class="fv6" d="M1980 1089 L1790 899 L1790 927 L1980 1117 Z" /></g><g class="o"><path transform="translate(8,16)" class="S ssv" d="M1678 1478 L1348 1808 L1348 1832 L1678 1502 Z"/><path class="sv5" d="M1678 1478 L1348 1808 L1348 1832 L1678 1502 Z" /></g><g class="o"><path transform="translate(4,8)" class="S sfv" d="M2048 1766 L1988 1826 L1988 1856 L2048 1796 Z"/><path class="fv1" d="M2048 1766 L1988 1826 L1988 1856 L2048 1796 Z" /></g><g class="o"><path transform="translate(3,6)" class="S sfv" d="M1778 1291 L1631 1438 L1631 1464 L1778 1317 Z"/><path class="fv7" d="M1778 1291 L1631 1438 L1631 1464 L1778 1317 Z" /></g><g class="o"><path transform="translate(2,4)" class="S ss" d="M1762 1032 L1039 1755 L1039 1781 L1762 1058 Z"/><path class="s7" d="M1762 1032 L1039 1755 L1039 1781 L1762 1058 Z" /></g><g class="o"><path transform="translate(2,4)" class="S sfh" d="M1658 1124 L1133 1649 L1141 1649 L1666 1124 Z"/><path class="fh2" d="M1658 1124 L1133 1649 L1141 1649 L1666 1124 Z" /></g><g class="o"><path transform="translate(8,16)" class="S sfh" d="M1022 1790 L900 1912 L916 1912 L1038 1790 Z"/><path class="fh3" d="M1022 1790 L900 1912 L916 1912 L1038 1790 Z" /></g><g class="o"><path transform="translate(6,12)" class="S sf" d="M977 1135 L551 1561 L551 1581 L977 1155 Z"/><path class="f4" d="M977 1135 L551 1561 L551 1581 L977 1155 Z" /></g><g class="o"><path transform="translate(2,4)" class="S sfv" d="M1632 1088 L1490 1230 L1490 1256 L1632 1114 Z"/><path class="fv2" d="M1632 1088 L1490 1230 L1490 1256 L1632 1114 Z" /></g><g class="o"><path transform="translate(3,6)" class="S sf" d="M1575 1250 L930 1895 L962 1895 L1607 1250 Z"/><path class="f1" d="M1575 1250 L930 1895 L962 1895 L1607 1250 Z" /></g><g class="o"><path transform="translate(4,8)" class="S ssh" d="M1208 1575 L464 2319 L490 2319 L1234 1575 Z"/><path class="sh7" d="M1208 1575 L464 2319 L490 2319 L1234 1575 Z" /></g><g class="o"><path transform="translate(5,10)" class="S sf" d="M1201 1618 L976 1393 L976 1403 L1201 1628 Z"/><path class="f4" d="M1201 1618 L976 1393 L976 1403 L1201 1628 Z" /></g><g class="o"><path transform="translate(7,14)" class="S ssh" d="M1253 1890 L1076 2067 L1090 2067 L1267 1890 Z"/><path class="sh6" d="M1253 1890 L1076 2067 L1090 2067 L1267 1890 Z" /></g><g class="o"><path transform="translate(7,14)" class="S sf" d="M1556 1927 L986 1357 L986 1367 L1556 1937 Z"/><path class="f3" d="M1556 1927 L986 1357 L986 1367 L1556 1937 Z" /></g><g class="o"><path transform="translate(4,8)" class="S sfv" d="M1187 1892 L749 1454 L749 1478 L1187 1916 Z"/><path class="fv7" d="M1187 1892 L749 1454 L749 1478 L1187 1916 Z" /></g><g class="o"><path transform="translate(4,8)" class="S sfv" d="M1115 1513 L881 1747 L881 1859 L1115 1625 Z"/><path class="fv5" d="M1115 1513 L881 1747 L881 1859 L1115 1625 Z" /></g><g class="o"><path transform="translate(9,18)" class="S sfv" d="M1275 1788 L1177 1886 L1177 1924 L1275 1826 Z"/><path class="fv3" d="M1275 1788 L1177 1886 L1177 1924 L1275 1826 Z" /></g><g class="o"><path transform="translate(4,8)" class="S sf" d="M2034 1711 L1840 1905 L1840 1919 L2034 1725 Z"/><path class="f2" d="M2034 1711 L1840 1905 L1840 1919 L2034 1725 Z" /></g><g class="o"><path transform="translate(8,16)" class="S sfv" d="M1548 1224 L1348 1024 L1348 1038 L1548 1238 Z"/><path class="fv6" d="M1548 1224 L1348 1024 L1348 1038 L1548 1238 Z" /></g><g class="o"><path transform="translate(7,14)" class="S sfh" d="M1986 1888 L1803 1705 L1827 1705 L2010 1888 Z"/><path class="fh1" d="M1986 1888 L1803 1705 L1827 1705 L2010 1888 Z" /></g><g class="o"><path transform="translate(2,4)" class="S sf" d="M1401 956 L1207 1150 L1221 1150 L1415 956 Z"/><path class="f6" d="M1401 956 L1207 1150 L1221 1150 L1415 956 Z" /></g><g class="o"><path transform="translate(2,4)" class="S ssh" d="M1017 1134 L939 1212 L979 1212 L1057 1134 Z"/><path class="sh1" d="M1017 1134 L939 1212 L979 1212 L1057 1134 Z" /></g><g class="o"><path transform="translate(8,16)" class="S ssh" d="M1432 959 L1206 1185 L1242 1185 L1468 959 Z"/><path class="sh2" d="M1432 959 L1206 1185 L1242 1185 L1468 959 Z" /></g><g class="o"><path transform="translate(4,8)" class="S ssh" d="M1967 2035 L1790 2212 L1800 2212 L1977 2035 Z"/><path class="sh7" d="M1967 2035 L1790 2212 L1800 2212 L1977 2035 Z" /></g><g class="o"><path transform="translate(2,4)" class="S sfv" d="M1496 1967 L1301 2162 L1301 2196 L1496 2001 Z"/><path class="fv5" d="M1496 1967 L1301 2162 L1301 2196 L1496 2001 Z" /></g><g class="o"><path transform="translate(2,4)" class="S sfh" d="M1304 1617 L1118 1803 L1150 1803 L1336 1617 Z"/><path class="fh7" d="M1304 1617 L1118 1803 L1150 1803 L1336 1617 Z" /></g><g class="o"><path transform="translate(3,6)" class="S sfh" d="M1275 1711 L1098 1888 L1124 1888 L1301 1711 Z"/><path class="fh2" d="M1275 1711 L1098 1888 L1124 1888 L1301 1711 Z" /></g><g class="o"><path transform="translate(4,8)" class="S sfh" d="M1593 1853 L1386 2060 L1416 2060 L1623 1853 Z"/><path class="fh1" d="M1593 1853 L1386 2060 L1416 2060 L1623 1853 Z" /></g><g class="o"><path transform="translate(4,8)" class="S sfh" d="M1350 1286 L1249 1387 L1269 1387 L1370 1286 Z"/><path class="fh4" d="M1350 1286 L1249 1387 L1269 1387 L1370 1286 Z" /></g><g class="o"><path transform="translate(5,10)" class="S sf" d="M1047 1168 L909 1306 L909 1338 L1047 1200 Z"/><path class="f5" d="M1047 1168 L909 1306 L909 1338 L1047 1200 Z" /></g><g class="o"><path transform="translate(6,12)" class="S sfh" d="M1009 1208 L709 1508 L733 1508 L1033 1208 Z"/><path class="fh3" d="M1009 1208 L709 1508 L733 1508 L1033 1208 Z" /></g><g class="o"><path transform="translate(8,16)" class="S sfh" d="M969 978 L731 1216 L759 1216 L997 978 Z"/><path class="fh5" d="M969 978 L731 1216 L759 1216 L997 978 Z" /></g><g class="o"><path transform="translate(7,14)" class="S ssh" d="M1138 1766 L535 2369 L565 2369 L1168 1766 Z"/><path class="sh5" d="M1138 1766 L535 2369 L565 2369 L1168 1766 Z" /></g><g class="o"><path transform="translate(5,10)" class="S ssh" d="M1417 1165 L1325 1257 L1357 1257 L1449 1165 Z"/><path class="sh2" d="M1417 1165 L1325 1257 L1357 1257 L1449 1165 Z" /></g><g class="o"><path transform="translate(5,10)" class="S sfh" d="M1843 1549 L1685 1707 L1711 1707 L1869 1549 Z"/><path class="fh2" d="M1843 1549 L1685 1707 L1711 1707 L1869 1549 Z" /></g><g class="o"><path transform="translate(6,12)" class="S ssh" d="M1378 1570 L637 2311 L657 2311 L1398 1570 Z"/><path class="sh6" d="M1378 1570 L637 2311 L657 2311 L1398 1570 Z" /></g><g class="o"><path transform="translate(6,12)" class="S ssv" d="M2047 1363 L1435 1975 L1435 1997 L2047 1385 Z"/><path class="sv3" d="M2047 1363 L1435 1975 L1435 1997 L2047 1385 Z" /></g><g class="o"><path transform="translate(7,14)" class="S sfh" d="M1519 1618 L1469 1668 L1479 1668 L1529 1618 Z"/><path class="fh1" d="M1519 1618 L1469 1668 L1479 1668 L1529 1618 Z" /></g><g class="o"><path transform="translate(7,14)" class="S sfv" d="M1271 1737 L1165 1631 L1165 1649 L1271 1755 Z"/><path class="fv4" d="M1271 1737 L1165 1631 L1165 1649 L1271 1755 Z" /></g><g class="o"><path transform="translate(4,8)" class="S sfv" d="M1010 1891 L796 2105 L796 2119 L1010 1905 Z"/><path class="fv6" d="M1010 1891 L796 2105 L796 2119 L1010 1905 Z" /></g><g class="o"><path transform="translate(2,4)" class="S sfv" d="M1418 1995 L1082 2331 L1082 2345 L1418 2009 Z"/><path class="fv4" d="M1418 1995 L1082 2331 L1082 2345 L1418 2009 Z" /></g><g class="o"><path transform="translate(4,8)" class="S sfh" d="M1654 1343 L1153 1844 L1161 1844 L1662 1343 Z"/><path class="fh5" d="M1654 1343 L1153 1844 L1161 1844 L1662 1343 Z" /></g><g class="o"><path transform="translate(5,10)" class="S sfh" d="M979 1025 L244 1760 L282 1760 L1017 1025 Z"/><path class="fh5" d="M979 1025 L244 1760 L282 1760 L1017 1025 Z" /></g><g class="o"><path transform="translate(5,10)" class="S sfh" d="M1846 1403 L1495 1052 L1523 1052 L1874 1403 Z"/><path class="fh7" d="M1846 1403 L1495 1052 L1523 1052 L1874 1403 Z" /></g><g class="o"><path transform="translate(8,16)" class="S sfh" d="M1152 1906 L969 2089 L1121 2089 L1304 1906 Z"/><path class="fh1" d="M1152 1906 L969 2089 L1121 2089 L1304 1906 Z" /></g><g class="o"><path transform="translate(5,10)" class="S ss" d="M1665 1333 L1476 1522 L1476 1544 L1665 1355 Z"/><path class="s5" d="M1665 1333 L1476 1522 L1476 1544 L1665 1355 Z" /></g><g class="o"><path transform="translate(3,6)" class="S ssh" d="M1865 1162 L1574 1453 L1612 1453 L1903 1162 Z"/><path class="sh1" d="M1865 1162 L1574 1453 L1612 1453 L1903 1162 Z" /></g><g class="o"><path transform="translate(8,16)" class="S ssv" d="M1845 1005 L1754 1096 L1754 1132 L1845 1041 Z"/><path class="sv7" d="M1845 1005 L1754 1096 L1754 1132 L1845 1041 Z" /></g><g class="o"><path transform="translate(3,6)" class="S sfh" d="M959 1340 L820 1479 L842 1479 L981 1340 Z"/><path class="fh4" d="M959 1340 L820 1479 L842 1479 L981 1340 Z" /></g><g class="o"><path transform="translate(2,4)" class="S sf" d="M1670 1086 L1437 853 L1437 957 L1670 1190 Z"/><path class="f4" d="M1670 1086 L1437 853 L1437 957 L1670 1190 Z" /></g><g class="o"><path transform="translate(6,12)" class="S sf" d="M1583 1158 L911 1830 L945 1830 L1617 1158 Z"/><path class="f5" d="M1583 1158 L911 1830 L945 1830 L1617 1158 Z" /></g><g class="o"><path transform="translate(9,18)" class="S sf" d="M1374 1477 L1174 1677 L1190 1677 L1390 1477 Z"/><path class="f3" d="M1374 1477 L1174 1677 L1190 1677 L1390 1477 Z" /></g><g class="o"><path transform="translate(5,10)" class="S sf" d="M994 1097 L769 1322 L769 1342 L994 1117 Z"/><path class="f1" d="M994 1097 L769 1322 L769 1342 L994 1117 Z" /></g><g class="o"><path transform="translate(4,8)" class="S sfv" d="M1423 1820 L964 2279 L964 2287 L1423 1828 Z"/><path class="fv3" d="M1423 1820 L964 2279 L964 2287 L1423 1828 Z" /></g><g class="o"><path transform="translate(9,18)" class="S sfv" d="M1517 1492 L932 907 L932 945 L1517 1530 Z"/><path class="fv6" d="M1517 1492 L932 907 L932 945 L1517 1530 Z" /></g><g class="o"><path transform="translate(2,4)" class="S ssv" d="M999 1961 L752 2208 L752 2218 L999 1971 Z"/><path class="sv1" d="M999 1961 L752 2208 L752 2218 L999 1971 Z" /></g><g class="o"><path transform="translate(2,4)" class="S sf" d="M1627 1474 L1512 1589 L1512 1709 L1627 1594 Z"/><path class="f7" d="M1627 1474 L1512 1589 L1512 1709 L1627 1594 Z" /></g><g class="o"><path transform="translate(5,10)" class="S sf" d="M1396 1228 L829 1795 L861 1795 L1428 1228 Z"/><path class="f3" d="M1396 1228 L829 1795 L861 1795 L1428 1228 Z" /></g><g class="o"><path transform="translate(8,16)" class="S sfv" d="M1552 1584 L1099 1131 L1099 1143 L1552 1596 Z"/><path class="fv4" d="M1552 1584 L1099 1131 L1099 1143 L1552 1596 Z" /></g><g class="o"><path transform="translate(9,18)" class="S sfh" d="M1925 1370 L1187 2108 L1199 2108 L1937 1370 Z"/><path class="fh3" d="M1925 1370 L1187 2108 L1199 2108 L1937 1370 Z" /></g><g class="o"><path transform="translate(8,16)" class="S sfh" d="M1366 1960 L793 2533 L819 2533 L1392 1960 Z"/><path class="fh6" d="M1366 1960 L793 2533 L819 2533 L1392 1960 Z" /></g><g class="o"><path transform="translate(2,4)" class="S ssv" d="M1634 1903 L1534 2003 L1534 2035 L1634 1935 Z"/><path class="sv5" d="M1634 1903 L1534 2003 L1534 2035 L1634 1935 Z" /></g><g class="o"><path transform="translate(7,14)" class="S sfh" d="M1906 1375 L1501 970 L1515 970 L1920 1375 Z"/><path class="fh2" d="M1906 1375 L1501 970 L1515 970 L1920 1375 Z" /></g><g class="o"><path transform="translate(8,16)" class="S sfv" d="M1299 1423 L1104 1228 L1104 1258 L1299 1453 Z"/><path class="fv5" d="M1299 1423 L1104 1228 L1104 1258 L1299 1453 Z" /></g><g class="o"><path transform="translate(5,10)" class="S ssv" d="M1842 1026 L1623 1245 L1623 1273 L1842 1054 Z"/><path class="sv7" d="M1842 1026 L1623 1245 L1623 1273 L1842 1054 Z" /></g><g class="o"><path transform="translate(4,8)" class="S sfv" d="M1016 1423 L936 1503 L936 1521 L1016 1441 Z"/><path class="fv4" d="M1016 1423 L936 1503 L936 1521 L1016 1441 Z" /></g><g class="o"><path transform="translate(7,14)" class="S sfh" d="M1122 1964 L498 2588 L508 2588 L1132 1964 Z"/><path class="fh5" d="M1122 1964 L498 2588 L508 2588 L1132 1964 Z" /></g><g class="o"><path transform="translate(8,16)" class="S sfv" d="M1331 1855 L1215 1971 L1215 1993 L1331 1877 Z"/><path class="fv2" d="M1331 1855 L1215 1971 L1215 1993 L1331 1877 Z" /></g></g><use href="#slashes" transform-origin="1500 1500" transform="rotate(180) scale(2)"/></g><rect x="1080" y="1080" width="840" height="840" stroke-width="20" class="o f5" /><use href="#slashes" transform-origin="1500 1500" transform="scale(.6)"/><use href="#slashes" transform-origin="1500 1500" transform="rotate(180) scale(.6)"/></svg>