<svg xmlns="http://www.w3.org/2000/svg" viewBox="750 750 1500 1500"><style>/*<![CDATA[*/svg{background:rgb(34,34,59);max-width:100vw;max-height:100vh}path{stroke-width:4}.o{opacity:.75}.S{opacity:.4}.sf{stroke:none;fill:black}.sfh{stroke:none;fill:url(#hs)}.sfv{stroke:none;fill:url(#vs)}.ss{stroke:black;fill:none}.ssh{stroke:url(#hs);fill:none}.ssv{stroke:url(#vs);fill:none}.s1{fill:none;stroke:rgb(74,78,105)}.f1{stroke:none;fill:rgb(74,78,105)}.sh1{fill:none;stroke:url(#h1)}.fh1{stroke:none;fill:url(#h1)}.sv1{fill:none;stroke:url(#v1)}.fv1{stroke:none;fill:url(#v1)}.s2{fill:none;stroke:rgb(201,173,167)}.f2{stroke:none;fill:rgb(201,173,167)}.sh2{fill:none;stroke:url(#h2)}.fh2{stroke:none;fill:url(#h2)}.sv2{fill:none;stroke:url(#v2)}.fv2{stroke:none;fill:url(#v2)}.s3{fill:none;stroke:rgb(242,233,228)}.f3{stroke:none;fill:rgb(242,233,228)}.sh3{fill:none;stroke:url(#h3)}.fh3{stroke:none;fill:url(#h3)}.sv3{fill:none;stroke:url(#v3)}.fv3{stroke:none;fill:url(#v3)}.s4{fill:none;stroke:rgb(154,140,152)}.f4{stroke:none;fill:rgb(154,140,152)}.sh4{fill:none;stroke:url(#h4)}.fh4{stroke:none;fill:url(#h4)}.sv4{fill:none;stroke:url(#v4)}.fv4{stroke:none;fill:url(#v4)}.s5{fill:none;stroke:rgb(34,34,34)}.f5{stroke:none;fill:rgb(34,34,34)}.sh5{fill:none;stroke:url(#h5)}.fh5{stroke:none;fill:url(#h5)}.sv5{fill:none;stroke:url(#v5)}.fv5{stroke:none;fill:url(#v5)}.s6{fill:none;stroke:rgb(255,255,255)}.f6{stroke:none;fill:rgb(255,255,255)}.sh6{fill:none;stroke:url(#h6)}.fh6{stroke:none;fill:url(#h6)}.sv6{fill:none;stroke:url(#v6)}.fv6{stroke:none;fill:url(#v6)}.s7{fill:none;stroke:rgb(255,0,0)}.f7{stroke:none;fill:rgb(255,0,0)}.sh7{fill:none;stroke:url(#h7)}.fh7{stroke:none;fill:url(#h7)}.sv7{fill:none;stroke:url(#v7)}.fv7{stroke:none;fill:url(#v7)}/*]]>*/</style><defs><linearGradient gradientTransform="rotate(90)" id="hs"><stop offset="20%" stop-color="#000" /><stop offset="95%" stop-color="rgba(0, 0, 0, 0)" /></linearGradient><linearGradient id="vs"><stop offset="20%" stop-color="#000" /><stop offset="95%" stop-color="rgba(0, 0, 0, 0)" /></linearGradient><linearGradient gradientTransform="rotate(90)" id="h1"><stop offset="20%" stop-color="rgba(74,78,105,1)" /><stop offset="95%" stop-color="rgba(74,78,105,0)" /></linearGradient><linearGradient id="v1"><stop offset="20%" stop-color="rgba(74,78,105,1)" /><stop offset="95%" stop-color="rgba(74,78,105,0)" /></linearGradient><linearGradient gradientTransform="rotate(90)" id="h2"><stop offset="20%" stop-color="rgba(201,173,167,1)" /><stop offset="95%" stop-color="rgba(201,173,167,0)" /></linearGradient><linearGradient id="v2"><stop offset="20%" stop-color="rgba(201,173,167,1)" /><stop offset="95%" stop-color="rgba(201,173,167,0)" /></linearGradient><linearGradient gradientTransform="rotate(90)" id="h3"><stop offset="20%" stop-color="rgba(242,233,228,1)" /><stop offset="95%" stop-color="rgba(242,233,228,0)" /></linearGradient><linearGradient id="v3"><stop offset="20%" stop-color="rgba(242,233,228,1)" /><stop offset="95%" stop-color="rgba(242,233,228,0)" /></linearGradient><linearGradient gradientTransform="rotate(90)" id="h4"><stop offset="20%" stop-color="rgba(154,140,152,1)" /><stop offset="95%" stop-color="rgba(154,140,152,0)" /></linearGradient><linearGradient id="v4"><stop offset="20%" stop-color="rgba(154,140,152,1)" /><stop offset="95%" stop-color="rgba(154,140,152,0)" /></linearGradient><linearGradient gradientTransform="rotate(90)" id="h5"><stop offset="20%" stop-color="rgba(34,34,34,1)" /><stop offset="95%" stop-color="rgba(34,34,34,0)" /></linearGradient><linearGradient id="v5"><stop offset="20%" stop-color="rgba(34,34,34,1)" /><stop offset="95%" stop-color="rgba(34,34,34,0)" /></linearGradient><linearGradient gradientTransform="rotate(90)" id="h6"><stop offset="20%" stop-color="rgba(255,255,255,1)" /><stop offset="95%" stop-color="rgba(255,255,255,0)" /></linearGradient><linearGradient id="v6"><stop offset="20%" stop-color="rgba(255,255,255,1)" /><stop offset="95%" stop-color="rgba(255,255,255,0)" /></linearGradient><linearGradient gradientTransform="rotate(90)" id="h7"><stop offset="20%" stop-color="rgba(255,0,0,1)" /><stop offset="95%" stop-color="rgba(255,0,0,0)" /></linearGradient><linearGradient id="v7"><stop offset="20%" stop-color="rgba(255,0,0,1)" /><stop offset="95%" stop-color="rgba(255,0,0,0)" /></linearGradient></defs><g transform-origin="1500 1500" transform="scale(2)" opacity=".2"><g id="slashes"><g class="o"><path transform="translate(9,18)" class="S sfv" d="M1481 1677 L1260 1456 L1260 1490 L1481 1711 Z"/><path class="fv5" d="M1481 1677 L1260 1456 L1260 1490 L1481 1711 Z" /></g><g class="o"><path transform="translate(3,6)" class="S sfv" d="M1432 1806 L1544 1694 L1544 1728 L1432 1840 Z"/><path class="fv6" d="M1432 1806 L1544 1694 L1544 1728 L1432 1840 Z" /></g><g class="o"><path transform="translate(9,18)" class="S sfh" d="M1272 1105 L1686 691 L1698 691 L1284 1105 Z"/><path class="fh4" d="M1272 1105 L1686 691 L1698 691 L1284 1105 Z" /></g><g class="o"><path transform="translate(7,14)" class="S sfv" d="M1981 1374 L2087 1268 L2087 1298 L1981 1404 Z"/><path class="fv2" d="M1981 1374 L2087 1268 L2087 1298 L1981 1404 Z" /></g><g class="o"><path transform="translate(3,6)" class="S sf" d="M1633 1783 L1867 1549 L1867 1569 L1633 1803 Z"/><path class="f5" d="M1633 1783 L1867 1549 L1867 1569 L1633 1803 Z" /></g><g class="o"><path transform="translate(7,14)" class="S sf" d="M1067 1230 L904 1067 L938 1067 L1101 1230 Z"/><path class="f1" d="M1067 1230 L904 1067 L938 1067 L1101 1230 Z" /></g><g class="o"><path transform="translate(5,10)" class="S sfv" d="M1218 1935 L1052 1769 L1052 1789 L1218 1955 Z"/><path class="fv2" d="M1218 1935 L1052 1769 L1052 1789 L1218 1955 Z" /></g><g class="o"><path transform="translate(2,4)" class="S sfv" d="M1806 953 L2091 668 L2091 692 L1806 977 Z"/><path class="fv2" d="M1806 953 L2091 668 L2091 692 L1806 977 Z" /></g><g class="o"><path transform="translate(3,6)" class="S ssh" d="M1021 984 L1095 910 L1121 910 L1047 984 Z"/><path class="sh4" d="M1021 984 L1095 910 L1121 910 L1047 984 Z" /></g><g class="o"><path transform="translate(5,10)" class="S sfh" d="M995 1988 L713 1706 L731 1706 L1013 1988 Z"/><path class="fh6" d="M995 1988 L713 1706 L731 1706 L1013 1988 Z" /></g><g class="o"><path transform="translate(2,4)" class="S sf" d="M2022 1125 L1779 882 L1805 882 L2048 1125 Z"/><path class="f3" d="M2022 1125 L1779 882 L1805 882 L2048 1125 Z" /></g><g class="o"><path transform="translate(4,8)" class="S sfv" d="M1027 1344 L1220 1151 L1220 1173 L1027 1366 Z"/><path class="fv3" d="M1027 1344 L1220 1151 L1220 1173 L1027 1366 Z" /></g><g class="o"><path transform="translate(3,6)" class="S sfh" d="M1135 1513 L1048 1426 L1080 1426 L1167 1513 Z"/><path class="fh1" d="M1135 1513 L1048 1426 L1080 1426 L1167 1513 Z" /></g><g class="o"><path transform="translate(5,10)" class="S sf" d="M1601 1610 L2117 1094 L2149 1094 L1633 1610 Z"/><path class="f7" d="M1601 1610 L2117 1094 L2149 1094 L1633 1610 Z" /></g><g class="o"><path transform="translate(6,12)" class="S ssh" d="M1837 996 L1129 288 L1149 288 L1857 996 Z"/><path class="sh7" d="M1837 996 L1129 288 L1149 288 L1857 996 Z" /></g><g class="o"><path transform="translate(8,16)" class="S ss" d="M1564 1922 L1240 1598 L1240 1624 L1564 1948 Z"/><path class="s3" d="M1564 1922 L1240 1598 L1240 1624 L1564 1948 Z" /></g><g class="o"><path transform="translate(9,18)" class="S ssh" d="M1375 1638 L1521 1492 L1555 1492 L1409 1638 Z"/><path class="sh3" d="M1375 1638 L1521 1492 L1555 1492 L1409 1638 Z" /></g><g class="o"><path transform="translate(9,18)" class="S sfh" d="M1845 1977 L1704 1836 L1712 1836 L1853 1977 Z"/><path class="fh4" d="M1845 1977 L1704 1836 L1712 1836 L1853 1977 Z" /></g><g class="o"><path transform="translate(5,10)" class="S sfv" d="M1207 1652 L1443 1416 L1443 1436 L1207 1672 Z"/><path class="fv5" d="M1207 1652 L1443 1416 L1443 1436 L1207 1672 Z" /></g><g class="o"><path transform="translate(6,12)" class="S sfh" d="M1695 1276 L1934 1037 L1952 1037 L1713 1276 Z"/><path class="fh5" d="M1695 1276 L1934 1037 L1952 1037 L1713 1276 Z" /></g><g class="o"><path transform="translate(9,18)" class="S sfv" d="M1755 1525 L1561 1331 L1561 1359 L1755 1553 Z"/><path class="fv4" d="M1755 1525 L1561 1331 L1561 1359 L1755 1553 Z" /></g><g class="o"><path transform="translate(3,6)" class="S sfv" d="M1009 1922 L899 1812 L899 1826 L1009 1936 Z"/><path class="fv6" d="M1009 1922 L899 1812 L899 1826 L1009 1936 Z" /></g><g class="o"><path transform="translate(4,8)" class="S ssh" d="M1875 1525 L1341 991 L1363 991 L1897 1525 Z"/><path class="sh4" d="M1875 1525 L1341 991 L1363 991 L1897 1525 Z" /></g><g class="o"><path transform="translate(8,16)" class="S sfh" d="M1017 1079 L884 946 L896 946 L1029 1079 Z"/><path class="fh3" d="M1017 1079 L884 946 L896 946 L1029 1079 Z" /></g><g class="o"><path transform="translate(9,18)" class="S sfh" d="M1445 1308 L1637 1116 L1667 1116 L1475 1308 Z"/><path class="fh2" d="M1445 1308 L1637 1116 L1667 1116 L1475 1308 Z" /></g><g class="o"><path transform="translate(5,10)" class="S sfv" d="M1067 1404 L1134 1337 L1134 1365 L1067 1432 Z"/><path class="fv7" d="M1067 1404 L1134 1337 L1134 1365 L1067 1432 Z" /></g><g class="o"><path transform="translate(9,18)" class="S sfv" d="M1871 977 L1967 881 L1967 889 L1871 985 Z"/><path class="fv2" d="M1871 977 L1967 881 L1967 889 L1871 985 Z" /></g><g class="o"><path transform="translate(5,10)" class="S sfv" d="M1002 1877 L1169 1710 L1169 1724 L1002 1891 Z"/><path class="fv3" d="M1002 1877 L1169 1710 L1169 1724 L1002 1891 Z" /></g><g class="o"><path transform="translate(8,16)" class="S ssh" d="M1130 1266 L996 1132 L1024 1132 L1158 1266 Z"/><path class="sh7" d="M1130 1266 L996 1132 L1024 1132 L1158 1266 Z" /></g><g class="o"><path transform="translate(3,6)" class="S sf" d="M1915 1351 L1837 1273 L1869 1273 L1947 1351 Z"/><path class="f1" d="M1915 1351 L1837 1273 L1869 1273 L1947 1351 Z" /></g><g class="o"><path transform="translate(9,18)" class="S sfv" d="M2003 1346 L1541 884 L1541 918 L2003 1380 Z"/><path class="fv7" d="M2003 1346 L1541 884 L1541 918 L2003 1380 Z" /></g><g class="o"><path transform="translate(3,6)" class="S sfh" d="M1428 1621 L1185 1378 L1209 1378 L1452 1621 Z"/><path class="fh2" d="M1428 1621 L1185 1378 L1209 1378 L1452 1621 Z" /></g><g class="o"><path transform="translate(3,6)" class="S sfv" d="M1218 1329 L1015 1126 L1015 1140 L1218 1343 Z"/><path class="fv4" d="M1218 1329 L1015 1126 L1015 1140 L1218 1343 Z" /></g><g class="o"><path transform="translate(9,18)" class="S sfv" d="M1089 1107 L862 880 L862 900 L1089 1127 Z"/><path class="fv1" d="M1089 1107 L862 880 L862 900 L1089 1127 Z" /></g><g class="o"><path transform="translate(2,4)" class="S sfv" d="M1081 1316 L925 1160 L925 1182 L1081 1338 Z"/><path class="fv4" d="M1081 1316 L925 1160 L925 1182 L1081 1338 Z" /></g><g class="o"><path transform="translate(9,18)" class="S sfv" d="M1581 1833 L1505 1757 L1505 1765 L1581 1841 Z"/><path class="fv7" d="M1581 1833 L1505 1757 L1505 1765 L1581 1841 Z" /></g><g class="o"><path transform="translate(3,6)" class="S sfh" d="M1705 1682 L1996 1391 L2024 1391 L1733 1682 Z"/><path class="fh6" d="M1705 1682 L1996 1391 L2024 1391 L1733 1682 Z" /></g><g class="o"><path transform="translate(8,16)" class="S ssh" d="M1645 1953 L1779 1819 L1805 1819 L1671 1953 Z"/><path class="sh3" d="M1645 1953 L1779 1819 L1805 1819 L1671 1953 Z" /></g><g class="o"><path transform="translate(7,14)" class="S sfh" d="M1709 1150 L1517 958 L1527 958 L1719 1150 Z"/><path class="fh5" d="M1709 1150 L1517 958 L1527 958 L1719 1150 Z" /></g><g class="o"><path transform="translate(4,8)" class="S sfv" d="M1857 1579 L1657 1379 L1657 1415 L1857 1615 Z"/><path class="fv6" d="M1857 1579 L1657 1379 L1657 1415 L1857 1615 Z" /></g><g class="o"><path transform="translate(2,4)" class="S sfh" d="M1084 1585 L1645 1024 L1679 1024 L1118 1585 Z"/><path class="fh3" d="M1084 1585 L1645 1024 L1679 1024 L1118 1585 Z" /></g><g class="o"><path transform="translate(9,18)" class="S sfh" d="M1093 1910 L879 1696 L907 1696 L1121 1910 Z"/><path class="fh5" d="M1093 1910 L879 1696 L907 1696 L1121 1910 Z" /></g><g class="o"><path transform="translate(4,8)" class="S sfv" d="M1504 1505 L1933 1076 L1933 1086 L1504 1515 Z"/><path class="fv1" d="M1504 1505 L1933 1076 L1933 1086 L1504 1515 Z" /></g><g class="o"><path transform="translate(2,4)" class="S ss" d="M1160 1451 L1055 1346 L1055 1368 L1160 1473 Z"/><path class="s5" d="M1160 1451 L1055 1346 L1055 1368 L1160 1473 Z" /></g><g class="o"><path transform="translate(4,8)" class="S sfh" d="M1651 1270 L1518 1137 L1534 1137 L1667 1270 Z"/><path class="fh5" d="M1651 1270 L1518 1137 L1534 1137 L1667 1270 Z" /></g><g class="o"><path transform="translate(5,10)" class="S sfh" d="M1047 1395 L480 828 L514 828 L1081 1395 Z"/><path class="fh2" d="M1047 1395 L480 828 L514 828 L1081 1395 Z" /></g><g class="o"><path transform="translate(7,14)" class="S sfh" d="M997 1961 L1567 1391 L1581 1391 L1011 1961 Z"/><path class="fh6" d="M997 1961 L1567 1391 L1581 1391 L1011 1961 Z" /></g><g class="o"><path transform="translate(4,8)" class="S sf" d="M972 1063 L755 846 L777 846 L994 1063 Z"/><path class="f3" d="M972 1063 L755 846 L777 846 L994 1063 Z" /></g><g class="o"><path transform="translate(3,6)" class="S sfh" d="M1759 1650 L1574 1465 L1610 1465 L1795 1650 Z"/><path class="fh1" d="M1759 1650 L1574 1465 L1610 1465 L1795 1650 Z" /></g><g class="o"><path transform="translate(4,8)" class="S sfh" d="M1323 1599 L1471 1451 L1505 1451 L1357 1599 Z"/><path class="fh4" d="M1323 1599 L1471 1451 L1505 1451 L1357 1599 Z" /></g><g class="o"><path transform="translate(3,6)" class="S sfh" d="M1850 974 L1768 892 L1778 892 L1860 974 Z"/><path class="fh3" d="M1850 974 L1768 892 L1778 892 L1860 974 Z" /></g><g class="o"><path transform="translate(8,16)" class="S ssh" d="M1486 1709 L1694 1501 L1728 1501 L1520 1709 Z"/><path class="sh4" d="M1486 1709 L1694 1501 L1728 1501 L1520 1709 Z" /></g><g class="o"><path transform="translate(9,18)" class="S sfv" d="M1781 1908 L1906 1783 L1906 1797 L1781 1922 Z"/><path class="fv1" d="M1781 1908 L1906 1783 L1906 1797 L1781 1922 Z" /></g><g class="o"><path transform="translate(8,16)" class="S sf" d="M1010 986 L810 786 L810 810 L1010 1010 Z"/><path class="f4" d="M1010 986 L810 786 L810 810 L1010 1010 Z" /></g><g class="o"><path transform="translate(4,8)" class="S sfh" d="M1647 1622 L1841 1428 L1875 1428 L1681 1622 Z"/><path class="fh2" d="M1647 1622 L1841 1428 L1875 1428 L1681 1622 Z" /></g><g class="o"><path transform="translate(8,16)" class="S sfh" d="M1269 1102 L1423 948 L1431 948 L1277 1102 Z"/><path class="fh3" d="M1269 1102 L1423 948 L1431 948 L1277 1102 Z" /></g><g class="o"><path transform="translate(7,14)" class="S ssh" d="M1834 2011 L1609 1786 L1643 1786 L1868 2011 Z"/><path class="sh1" d="M1834 2011 L1609 1786 L1643 1786 L1868 2011 Z" /></g><g class="o"><path transform="translate(4,8)" class="S sfh" d="M1132 1167 L949 984 L979 984 L1162 1167 Z"/><path class="fh6" d="M1132 1167 L949 984 L979 984 L1162 1167 Z" /></g><g class="o"><path transform="translate(8,16)" class="S sf" d="M1306 1721 L1388 1639 L1388 1663 L1306 1745 Z"/><path class="f3" d="M1306 1721 L1388 1639 L1388 1663 L1306 1745 Z" /></g><g class="o"><path transform="translate(5,10)" class="S sfh" d="M1503 1937 L1599 1841 L1633 1841 L1537 1937 Z"/><path class="fh2" d="M1503 1937 L1599 1841 L1633 1841 L1537 1937 Z" /></g><g class="o"><path transform="translate(3,6)" class="S sfv" d="M1995 1380 L2176 1199 L2176 1219 L1995 1400 Z"/><path class="fv6" d="M1995 1380 L2176 1199 L2176 1219 L1995 1400 Z" /></g><g class="o"><path transform="translate(2,4)" class="S sfv" d="M1886 1546 L1786 1446 L1786 1464 L1886 1564 Z"/><path class="fv5" d="M1886 1546 L1786 1446 L1786 1464 L1886 1564 Z" /></g><g class="o"><path transform="translate(4,8)" class="S sfv" d="M1543 1174 L874 505 L874 517 L1543 1186 Z"/><path class="fv7" d="M1543 1174 L874 505 L874 517 L1543 1186 Z" /></g><g class="o"><path transform="translate(4,8)" class="S sfv" d="M1263 1658 L1917 1004 L1917 1042 L1263 1696 Z"/><path class="fv2" d="M1263 1658 L1917 1004 L1917 1042 L1263 1696 Z" /></g><g class="o"><path transform="translate(5,10)" class="S sfh" d="M971 1136 L1670 437 L1696 437 L997 1136 Z"/><path class="fh6" d="M971 1136 L1670 437 L1696 437 L997 1136 Z" /></g><g class="o"><path transform="translate(2,4)" class="S sf" d="M1646 1777 L1885 1538 L1885 1572 L1646 1811 Z"/><path class="f6" d="M1646 1777 L1885 1538 L1885 1572 L1646 1811 Z" /></g><g class="o"><path transform="translate(8,16)" class="S sfv" d="M1076 1460 L942 1326 L942 1354 L1076 1488 Z"/><path class="fv6" d="M1076 1460 L942 1326 L942 1354 L1076 1488 Z" /></g><g class="o"><path transform="translate(9,18)" class="S ssh" d="M1694 1368 L1775 1287 L1807 1287 L1726 1368 Z"/><path class="sh4" d="M1694 1368 L1775 1287 L1807 1287 L1726 1368 Z" /></g><g class="o"><path transform="translate(7,14)" class="S sfv" d="M1853 1152 L1984 1021 L1984 1029 L1853 1160 Z"/><path class="fv1" d="M1853 1152 L1984 1021 L1984 1029 L1853 1160 Z" /></g><g class="o"><path transform="translate(6,12)" class="S sf" d="M1986 1933 L1876 1823 L1876 1845 L1986 1955 Z"/><path class="f5" d="M1986 1933 L1876 1823 L1876 1845 L1986 1955 Z" /></g><g class="o"><path transform="translate(8,16)" class="S sfh" d="M1702 970 L1297 565 L1307 565 L1712 970 Z"/><path class="fh2" d="M1702 970 L1297 565 L1307 565 L1712 970 Z" /></g><g class="o"><path transform="translate(6,12)" class="S sfh" d="M931 1245 L797 1111 L835 1111 L969 1245 Z"/><path class="fh5" d="M931 1245 L797 1111 L835 1111 L969 1245 Z" /></g><g class="o"><path transform="translate(8,16)" class="S ssv" d="M1729 1900 L1780 1849 L1780 1873 L1729 1924 Z"/><path class="sv1" d="M1729 1900 L1780 1849 L1780 1873 L1729 1924 Z" /></g><g class="o"><path transform="translate(2,4)" class="S sfv" d="M991 1524 L838 1371 L838 1387 L991 1540 Z"/><path class="fv6" d="M991 1524 L838 1371 L838 1387 L991 1540 Z" /></g><g class="o"><path transform="translate(2,4)" class="S sfh" d="M1600 1422 L1787 1235 L1815 1235 L1628 1422 Z"/><path class="fh6" d="M1600 1422 L1787 1235 L1815 1235 L1628 1422 Z" /></g><g class="o"><path transform="translate(3,6)" class="S sfv" d="M1512 1075 L1322 885 L1322 899 L1512 1089 Z"/><path class="fv1" d="M1512 1075 L1322 885 L1322 899 L1512 1089 Z" /></g><g class="o"><path transform="translate(9,18)" class="S ss" d="M1027 1073 L868 914 L902 914 L1061 1073 Z"/><path class="s6" d="M1027 1073 L868 914 L902 914 L1061 1073 Z" /></g><g class="o"><path transform="translate(2,4)" class="S sfv" d="M1677 1458 L1917 1218 L1917 1230 L1677 1470 Z"/><path class="fv7" d="M1677 1458 L1917 1218 L1917 1230 L1677 1470 Z" /></g><g class="o"><path transform="translate(8,16)" class="S sfv" d="M1459 1145 L1629 975 L1629 993 L1459 1163 Z"/><path class="fv6" d="M1459 1145 L1629 975 L1629 993 L1459 1163 Z" /></g><g class="o"><path transform="translate(5,10)" class="S ssh" d="M1138 1883 L1010 1755 L1020 1755 L1148 1883 Z"/><path class="sh3" d="M1138 1883 L1010 1755 L1020 1755 L1148 1883 Z" /></g><g class="o"><path transform="translate(8,16)" class="S ssh" d="M1435 1845 L1260 1670 L1282 1670 L1457 1845 Z"/><path class="sh7" d="M1435 1845 L1260 1670 L1282 1670 L1457 1845 Z" /></g><g class="o"><path transform="translate(8,16)" class="S sfh" d="M2034 1270 L1921 1157 L1929 1157 L2042 1270 Z"/><path class="fh6" d="M2034 1270 L1921 1157 L1929 1157 L2042 1270 Z" /></g><g class="o"><path transform="translate(8,16)" class="S ss" d="M2007 1723 L1806 1522 L1832 1522 L2033 1723 Z"/><path class="s6" d="M2007 1723 L1806 1522 L1832 1522 L2033 1723 Z" /></g><g class="o"><path transform="translate(9,18)" class="S sfv" d="M1669 1430 L1792 1307 L1792 1339 L1669 1462 Z"/><path class="fv4" d="M1669 1430 L1792 1307 L1792 1339 L1669 1462 Z" /></g><g class="o"><path transform="translate(7,14)" class="S sf" d="M1070 1162 L866 958 L866 972 L1070 1176 Z"/><path class="f6" d="M1070 1162 L866 958 L866 972 L1070 1176 Z" /></g><g class="o"><path transform="translate(5,10)" class="S sfh" d="M1820 1487 L1649 1316 L1673 1316 L1844 1487 Z"/><path class="fh2" d="M1820 1487 L1649 1316 L1673 1316 L1844 1487 Z" /></g><g class="o"><path transform="translate(4,8)" class="S sfh" d="M1818 1765 L1164 1111 L1200 1111 L1854 1765 Z"/><path class="fh4" d="M1818 1765 L1164 1111 L1200 1111 L1854 1765 Z" /></g><g class="o"><path transform="translate(2,4)" class="S sfv" d="M1684 1605 L1742 1547 L1742 1561 L1684 1619 Z"/><path class="fv1" d="M1684 1605 L1742 1547 L1742 1561 L1684 1619 Z" /></g><g class="o"><path transform="translate(9,18)" class="S sfv" d="M1448 1467 L1207 1226 L1207 1236 L1448 1477 Z"/><path class="fv6" d="M1448 1467 L1207 1226 L1207 1236 L1448 1477 Z" /></g><g class="o"><path transform="translate(4,8)" class="S sf" d="M2012 1733 L2157 1588 L2187 1588 L2042 1733 Z"/><path class="f6" d="M2012 1733 L2157 1588 L2187 1588 L2042 1733 Z" /></g><g class="o"><path transform="translate(9,18)" class="S sfv" d="M1245 1991 L978 1724 L978 1734 L1245 2001 Z"/><path class="fv4" d="M1245 1991 L978 1724 L978 1734 L1245 2001 Z" /></g><g class="o"><path transform="translate(2,4)" class="S sfv" d="M1911 1378 L1735 1202 L1735 1230 L1911 1406 Z"/><path class="fv4" d="M1911 1378 L1735 1202 L1735 1230 L1911 1406 Z" /></g><g class="o"><path transform="translate(8,16)" class="S sfv" d="M1387 1172 L1335 1120 L1335 1132 L1387 1184 Z"/><path class="fv3" d="M1387 1172 L1335 1120 L1335 1132 L1387 1184 Z" /></g><g class="o"><path transform="translate(4,8)" class="S sfh" d="M1297 1444 L1196 1343 L1224 1343 L1325 1444 Z"/><path class="fh6" d="M1297 1444 L1196 1343 L1224 1343 L1325 1444 Z" /></g><g class="o"><path transform="translate(9,18)" class="S sfv" d="M1122 2004 L1354 1772 L1354 1804 L1122 2036 Z"/><path class="fv4" d="M1122 2004 L1354 1772 L1354 1804 L1122 2036 Z" /></g><g class="o"><path transform="translate(4,8)" class="S sfh" d="M1273 1231 L1133 1091 L1171 1091 L1311 1231 Z"/><path class="fh3" d="M1273 1231 L1133 1091 L1171 1091 L1311 1231 Z" /></g><g class="o"><path transform="translate(3,6)" class="S sfh" d="M1443 1039 L1502 980 L1540 980 L1481 1039 Z"/><path class="fh4" d="M1443 1039 L1502 980 L1540 980 L1481 1039 Z" /></g><g class="o"><path transform="translate(3,6)" class="S sfv" d="M1976 1180 L2222 934 L2222 968 L1976 1214 Z"/><path class="fv3" d="M1976 1180 L2222 934 L2222 968 L1976 1214 Z" /></g><g class="o"><path transform="translate(7,14)" class="S sfv" d="M1478 1712 L2192 998 L2192 1014 L1478 1728 Z"/><path class="fv7" d="M1478 1712 L2192 998 L2192 1014 L1478 1728 Z" /></g><g class="o"><path transform="translate(4,8)" class="S sfv" d="M1677 1957 L1514 1794 L1514 1802 L1677 1965 Z"/><path class="fv1" d="M1677 1957 L1514 1794 L1514 1802 L1677 1965 Z" /></g><g class="o"><path transform="translate(9,18)" class="S sfv" d="M1126 1992 L966 1832 L966 1844 L1126 2004 Z"/><path class="fv2" d="M1126 1992 L966 1832 L966 1844 L1126 2004 Z" /></g><g class="o"><path transform="translate(3,6)" class="S ss" d="M1915 1871 L1995 1791 L1995 1817 L1915 1897 Z"/><path class="s2" d="M1915 1871 L1995 1791 L1995 1817 L1915 1897 Z" /></g><g class="o"><path transform="translate(9,18)" class="S ssv" d="M1847 1645 L2062 1430 L2062 1458 L1847 1673 Z"/><path class="sv2" d="M1847 1645 L2062 1430 L2062 1458 L1847 1673 Z" /></g><g class="o"><path transform="translate(8,16)" class="S sfh" d="M1069 1917 L1420 1566 L1454 1566 L1103 1917 Z"/><path class="fh2" d="M1069 1917 L1420 1566 L1454 1566 L1103 1917 Z" /></g><g class="o"><path transform="translate(8,16)" class="S sfh" d="M1294 1298 L1057 1061 L1067 1061 L1304 1298 Z"/><path class="fh2" d="M1294 1298 L1057 1061 L1067 1061 L1304 1298 Z" /></g><g class="o"><path transform="translate(7,14)" class="S sfv" d="M1977 1433 L1776 1232 L1776 1258 L1977 1459 Z"/><path class="fv2" d="M1977 1433 L1776 1232 L1776 1258 L1977 1459 Z" /></g><g class="o"><path transform="translate(5,10)" class="S sfh" d="M1615 2025 L1712 1928 L1740 1928 L1643 2025 Z"/><path class="fh7" d="M1615 2025 L1712 1928 L1740 1928 L1643 2025 Z" /></g><g class="o"><path transform="translate(5,10)" class="S sfh" d="M980 1756 L887 1663 L909 1663 L1002 1756 Z"/><path class="fh3" d="M980 1756 L887 1663 L909 1663 L1002 1756 Z" /></g><g class="o"><path transform="translate(4,8)" class="S ss" d="M1272 1661 L1363 1570 L1363 1584 L1272 1675 Z"/><path class="s4" d="M1272 1661 L1363 1570 L1363 1584 L1272 1675 Z" /></g><g class="o"><path transform="translate(6,12)" class="S ssv" d="M1379 1600 L1571 1408 L1571 1416 L1379 1608 Z"/><path class="sv5" d="M1379 1600 L1571 1408 L1571 1416 L1379 1608 Z" /></g><g class="o"><path transform="translate(2,4)" class="S sfh" d="M1019 1424 L1267 1176 L1295 1176 L1047 1424 Z"/><path class="fh1" d="M1019 1424 L1267 1176 L1295 1176 L1047 1424 Z" /></g><g class="o"><path transform="translate(4,8)" class="S sf" d="M1551 1177 L1788 940 L1798 940 L1561 1177 Z"/><path class="f5" d="M1551 1177 L1788 940 L1798 940 L1561 1177 Z" /></g><g class="o"><path transform="translate(2,4)" class="S ssv" d="M1656 1750 L1863 1543 L1863 1551 L1656 1758 Z"/><path class="sv4" d="M1656 1750 L1863 1543 L1863 1551 L1656 1758 Z" /></g><g class="o"><path transform="translate(4,8)" class="S sfh" d="M1924 1643 L1837 1556 L1873 1556 L1960 1643 Z"/><path class="fh3" d="M1924 1643 L1837 1556 L1873 1556 L1960 1643 Z" /></g><g class="o"><path transform="translate(6,12)" class="S sf" d="M1182 1407 L1371 1218 L1387 1218 L1198 1407 Z"/><path class="f5" d="M1182 1407 L1371 1218 L1387 1218 L1198 1407 Z" /></g><g class="o"><path transform="translate(7,14)" class="S sf" d="M1160 1790 L1245 1705 L1281 1705 L1196 1790 Z"/><path class="f4" d="M1160 1790 L1245 1705 L1281 1705 L1196 1790 Z" /></g><g class="o"><path transform="translate(9,18)" class="S sfh" d="M1780 1429 L1666 1315 L1692 1315 L1806 1429 Z"/><path class="fh3" d="M1780 1429 L1666 1315 L1692 1315 L1806 1429 Z" /></g><g class="o"><path transform="translate(3,6)" class="S ssh" d="M1032 2049 L1115 1966 L1127 1966 L1044 2049 Z"/><path class="sh2" d="M1032 2049 L1115 1966 L1127 1966 L1044 2049 Z" /></g><g class="o"><path transform="translate(8,16)" class="S sfv" d="M2019 1322 L1849 1152 L1849 1190 L2019 1360 Z"/><path class="fv2" d="M2019 1322 L1849 1152 L1849 1190 L2019 1360 Z" /></g><g class="o"><path transform="translate(5,10)" class="S sfv" d="M1472 1000 L1603 869 L1603 889 L1472 1020 Z"/><path class="fv3" d="M1472 1000 L1603 869 L1603 889 L1472 1020 Z" /></g><g class="o"><path transform="translate(6,12)" class="S sfh" d="M1989 1590 L2118 1461 L2130 1461 L2001 1590 Z"/><path class="fh7" d="M1989 1590 L2118 1461 L2130 1461 L2001 1590 Z" /></g><g class="o"><path transform="translate(9,18)" class="S sfv" d="M1762 1352 L1417 1007 L1417 1025 L1762 1370 Z"/><path class="fv5" d="M1762 1352 L1417 1007 L1417 1025 L1762 1370 Z" /></g><g class="o"><path transform="translate(7,14)" class="S sfh" d="M1532 1317 L2225 624 L2261 624 L1568 1317 Z"/><path class="fh6" d="M1532 1317 L2225 624 L2261 624 L1568 1317 Z" /></g><g class="o"><path transform="translate(7,14)" class="S sfh" d="M1948 1663 L1712 1427 L1720 1427 L1956 1663 Z"/><path class="fh6" d="M1948 1663 L1712 1427 L1720 1427 L1956 1663 Z" /></g><g class="o"><path transform="translate(5,10)" class="S sfv" d="M2010 2021 L2109 1922 L2109 1946 L2010 2045 Z"/><path class="fv4" d="M2010 2021 L2109 1922 L2109 1946 L2010 2045 Z" /></g><g class="o"><path transform="translate(2,4)" class="S sfv" d="M1457 1839 L1205 1587 L1205 1597 L1457 1849 Z"/><path class="fv5" d="M1457 1839 L1205 1587 L1205 1597 L1457 1849 Z" /></g><g class="o"><path transform="translate(5,10)" class="S sfh" d="M1879 1549 L2128 1300 L2146 1300 L1897 1549 Z"/><path class="fh1" d="M1879 1549 L2128 1300 L2146 1300 L1897 1549 Z" /></g><g class="o"><path transform="translate(5,10)" class="S sfv" d="M1106 1743 L1160 1689 L1160 1725 L1106 1779 Z"/><path class="fv6" d="M1106 1743 L1160 1689 L1160 1725 L1106 1779 Z" /></g><g class="o"><path transform="translate(9,18)" class="S sf" d="M1731 1962 L1925 1768 L1925 1802 L1731 1996 Z"/><path class="f1" d="M1731 1962 L1925 1768 L1925 1802 L1731 1996 Z" /></g><g class="o"><path transform="translate(7,14)" class="S sf" d="M1489 1484 L1378 1373 L1412 1373 L1523 1484 Z"/><path class="f5" d="M1489 1484 L1378 1373 L1412 1373 L1523 1484 Z" /></g></g><use href="#slashes" transform-origin="1500 1500" transform="rotate(180) scale(2)"/></g><rect x="1080" y="1080" width="840" height="840" stroke-width="40" class="o s6" /><use href="#slashes" transform-origin="1500 1500" transform="scale(.6)"/><use href="#slashes" transform-origin="1500 1500" transform="rotate(180) scale(.6)"/></svg>