<svg xmlns="http://www.w3.org/2000/svg" viewBox="750 750 1500 1500"><style>/*<![CDATA[*/svg{background:rgb(35,114,217);max-width:100vw;max-height:100vh}path{stroke-width:4}.o{opacity:.75}.S{opacity:.4}.sf{stroke:none;fill:black}.sfh{stroke:none;fill:url(#hs)}.sfv{stroke:none;fill:url(#vs)}.ss{stroke:black;fill:none}.ssh{stroke:url(#hs);fill:none}.ssv{stroke:url(#vs);fill:none}.s1{fill:none;stroke:rgb(38,72,140)}.f1{stroke:none;fill:rgb(38,72,140)}.sh1{fill:none;stroke:url(#h1)}.fh1{stroke:none;fill:url(#h1)}.sv1{fill:none;stroke:url(#v1)}.fv1{stroke:none;fill:url(#v1)}.s2{fill:none;stroke:rgb(242,245,87)}.f2{stroke:none;fill:rgb(242,245,87)}.sh2{fill:none;stroke:url(#h2)}.fh2{stroke:none;fill:url(#h2)}.sv2{fill:none;stroke:url(#v2)}.fv2{stroke:none;fill:url(#v2)}.s3{fill:none;stroke:rgb(27,61,166)}.f3{stroke:none;fill:rgb(27,61,166)}.sh3{fill:none;stroke:url(#h3)}.fh3{stroke:none;fill:url(#h3)}.sv3{fill:none;stroke:url(#v3)}.fv3{stroke:none;fill:url(#v3)}.s4{fill:none;stroke:rgb(98,171,217)}.f4{stroke:none;fill:rgb(98,171,217)}.sh4{fill:none;stroke:url(#h4)}.fh4{stroke:none;fill:url(#h4)}.sv4{fill:none;stroke:url(#v4)}.fv4{stroke:none;fill:url(#v4)}.s5{fill:none;stroke:rgb(34,34,34)}.f5{stroke:none;fill:rgb(34,34,34)}.sh5{fill:none;stroke:url(#h5)}.fh5{stroke:none;fill:url(#h5)}.sv5{fill:none;stroke:url(#v5)}.fv5{stroke:none;fill:url(#v5)}.s6{fill:none;stroke:rgb(255,255,255)}.f6{stroke:none;fill:rgb(255,255,255)}.sh6{fill:none;stroke:url(#h6)}.fh6{stroke:none;fill:url(#h6)}.sv6{fill:none;stroke:url(#v6)}.fv6{stroke:none;fill:url(#v6)}.s7{fill:none;stroke:rgb(255,255,0)}.f7{stroke:none;fill:rgb(255,255,0)}.sh7{fill:none;stroke:url(#h7)}.fh7{stroke:none;fill:url(#h7)}.sv7{fill:none;stroke:url(#v7)}.fv7{stroke:none;fill:url(#v7)}/*]]>*/</style><defs><linearGradient gradientTransform="rotate(90)" id="hs"><stop offset="20%" stop-color="#000" /><stop offset="95%" stop-color="rgba(0, 0, 0, 0)" /></linearGradient><linearGradient id="vs"><stop offset="20%" stop-color="#000" /><stop offset="95%" stop-color="rgba(0, 0, 0, 0)" /></linearGradient><linearGradient gradientTransform="rotate(90)" id="h1"><stop offset="20%" stop-color="rgba(38,72,140,1)" /><stop offset="95%" stop-color="rgba(38,72,140,0)" /></linearGradient><linearGradient id="v1"><stop offset="20%" stop-color="rgba(38,72,140,1)" /><stop offset="95%" stop-color="rgba(38,72,140,0)" /></linearGradient><linearGradient gradientTransform="rotate(90)" id="h2"><stop offset="20%" stop-color="rgba(242,245,87,1)" /><stop offset="95%" stop-color="rgba(242,245,87,0)" /></linearGradient><linearGradient id="v2"><stop offset="20%" stop-color="rgba(242,245,87,1)" /><stop offset="95%" stop-color="rgba(242,245,87,0)" /></linearGradient><linearGradient gradientTransform="rotate(90)" id="h3"><stop offset="20%" stop-color="rgba(27,61,166,1)" /><stop offset="95%" stop-color="rgba(27,61,166,0)" /></linearGradient><linearGradient id="v3"><stop offset="20%" stop-color="rgba(27,61,166,1)" /><stop offset="95%" stop-color="rgba(27,61,166,0)" /></linearGradient><linearGradient gradientTransform="rotate(90)" id="h4"><stop offset="20%" stop-color="rgba(98,171,217,1)" /><stop offset="95%" stop-color="rgba(98,171,217,0)" /></linearGradient><linearGradient id="v4"><stop offset="20%" stop-color="rgba(98,171,217,1)" /><stop offset="95%" stop-color="rgba(98,171,217,0)" /></linearGradient><linearGradient gradientTransform="rotate(90)" id="h5"><stop offset="20%" stop-color="rgba(34,34,34,1)" /><stop offset="95%" stop-color="rgba(34,34,34,0)" /></linearGradient><linearGradient id="v5"><stop offset="20%" stop-color="rgba(34,34,34,1)" /><stop offset="95%" stop-color="rgba(34,34,34,0)" /></linearGradient><linearGradient gradientTransform="rotate(90)" id="h6"><stop offset="20%" stop-color="rgba(255,255,255,1)" /><stop offset="95%" stop-color="rgba(255,255,255,0)" /></linearGradient><linearGradient id="v6"><stop offset="20%" stop-color="rgba(255,255,255,1)" /><stop offset="95%" stop-color="rgba(255,255,255,0)" /></linearGradient><linearGradient gradientTransform="rotate(90)" id="h7"><stop offset="20%" stop-color="rgba(255,255,0,1)" /><stop offset="95%" stop-color="rgba(255,255,0,0)" /></linearGradient><linearGradient id="v7"><stop offset="20%" stop-color="rgba(255,255,0,1)" /><stop offset="95%" stop-color="rgba(255,255,0,0)" /></linearGradient></defs><g transform-origin="1500 1500" transform="scale(2)" opacity=".2"><g id="slashes"><g class="o"><path transform="translate(6,12)" class="S sf" d="M1516 1735 L1366 1585 L1366 1601 L1516 1751 Z"/><path class="f6" d="M1516 1735 L1366 1585 L1366 1601 L1516 1751 Z" /></g><g class="o"><path transform="translate(3,6)" class="S sf" d="M1272 1475 L1369 1572 L1369 1588 L1272 1491 Z"/><path class="f1" d="M1272 1475 L1369 1572 L1369 1588 L1272 1491 Z" /></g><g class="o"><path transform="translate(7,14)" class="S sfh" d="M1735 1301 L2254 782 L2284 782 L1765 1301 Z"/><path class="fh2" d="M1735 1301 L2254 782 L2284 782 L1765 1301 Z" /></g><g class="o"><path transform="translate(2,4)" class="S sfh" d="M2025 1548 L2155 1418 L2191 1418 L2061 1548 Z"/><path class="fh4" d="M2025 1548 L2155 1418 L2191 1418 L2061 1548 Z" /></g><g class="o"><path transform="translate(4,8)" class="S sfv" d="M1907 1533 L1771 1397 L1771 1433 L1907 1569 Z"/><path class="fv1" d="M1907 1533 L1771 1397 L1771 1433 L1907 1569 Z" /></g><g class="o"><path transform="translate(4,8)" class="S ss" d="M1552 1572 L1375 1749 L1395 1749 L1572 1572 Z"/><path class="s1" d="M1552 1572 L1375 1749 L1395 1749 L1572 1572 Z" /></g><g class="o"><path transform="translate(2,4)" class="S sfv" d="M1642 1097 L1402 857 L1402 881 L1642 1121 Z"/><path class="fv1" d="M1642 1097 L1402 857 L1402 881 L1642 1121 Z" /></g><g class="o"><path transform="translate(7,14)" class="S sfh" d="M1258 1468 L1401 1325 L1427 1325 L1284 1468 Z"/><path class="fh7" d="M1258 1468 L1401 1325 L1427 1325 L1284 1468 Z" /></g><g class="o"><path transform="translate(5,10)" class="S sfh" d="M952 1919 L848 1815 L860 1815 L964 1919 Z"/><path class="fh1" d="M952 1919 L848 1815 L860 1815 L964 1919 Z" /></g><g class="o"><path transform="translate(2,4)" class="S sfh" d="M1179 1438 L1247 1506 L1257 1506 L1189 1438 Z"/><path class="fh1" d="M1179 1438 L1247 1506 L1257 1506 L1189 1438 Z" /></g><g class="o"><path transform="translate(6,12)" class="S sfv" d="M1611 1980 L1452 1821 L1452 1831 L1611 1990 Z"/><path class="fv7" d="M1611 1980 L1452 1821 L1452 1831 L1611 1990 Z" /></g><g class="o"><path transform="translate(6,12)" class="S sfv" d="M970 1338 L601 969 L601 1073 L970 1442 Z"/><path class="fv5" d="M970 1338 L601 969 L601 1073 L970 1442 Z" /></g><g class="o"><path transform="translate(9,18)" class="S sfv" d="M1594 1395 L1698 1291 L1698 1301 L1594 1405 Z"/><path class="fv7" d="M1594 1395 L1698 1291 L1698 1301 L1594 1405 Z" /></g><g class="o"><path transform="translate(5,10)" class="S sfv" d="M1111 1750 L925 1564 L925 1580 L1111 1766 Z"/><path class="fv1" d="M1111 1750 L925 1564 L925 1580 L1111 1766 Z" /></g><g class="o"><path transform="translate(6,12)" class="S sfv" d="M1323 1878 L1674 2229 L1674 2237 L1323 1886 Z"/><path class="fv7" d="M1323 1878 L1674 2229 L1674 2237 L1323 1886 Z" /></g><g class="o"><path transform="translate(5,10)" class="S sfh" d="M1182 1420 L837 1765 L873 1765 L1218 1420 Z"/><path class="fh4" d="M1182 1420 L837 1765 L873 1765 L1218 1420 Z" /></g><g class="o"><path transform="translate(5,10)" class="S sf" d="M1725 1106 L1663 1044 L1673 1044 L1735 1106 Z"/><path class="f2" d="M1725 1106 L1663 1044 L1673 1044 L1735 1106 Z" /></g><g class="o"><path transform="translate(4,8)" class="S sfv" d="M1363 1542 L1137 1768 L1137 1790 L1363 1564 Z"/><path class="fv4" d="M1363 1542 L1137 1768 L1137 1790 L1363 1564 Z" /></g><g class="o"><path transform="translate(4,8)" class="S sfv" d="M1809 1206 L1080 1935 L1080 1963 L1809 1234 Z"/><path class="fv5" d="M1809 1206 L1080 1935 L1080 1963 L1809 1234 Z" /></g><g class="o"><path transform="translate(7,14)" class="S ssh" d="M1895 1812 L1547 2160 L1561 2160 L1909 1812 Z"/><path class="sh3" d="M1895 1812 L1547 2160 L1561 2160 L1909 1812 Z" /></g><g class="o"><path transform="translate(4,8)" class="S sfh" d="M1388 1812 L1718 2142 L1726 2142 L1396 1812 Z"/><path class="fh4" d="M1388 1812 L1718 2142 L1726 2142 L1396 1812 Z" /></g><g class="o"><path transform="translate(3,6)" class="S sfh" d="M1204 1819 L991 1606 L1003 1606 L1216 1819 Z"/><path class="fh7" d="M1204 1819 L991 1606 L1003 1606 L1216 1819 Z" /></g><g class="o"><path transform="translate(3,6)" class="S ssv" d="M1774 1459 L1393 1840 L1393 1872 L1774 1491 Z"/><path class="sv4" d="M1774 1459 L1393 1840 L1393 1872 L1774 1491 Z" /></g><g class="o"><path transform="translate(9,18)" class="S sfh" d="M1408 1981 L1813 1576 L1821 1576 L1416 1981 Z"/><path class="fh5" d="M1408 1981 L1813 1576 L1821 1576 L1416 1981 Z" /></g><g class="o"><path transform="translate(2,4)" class="S sfv" d="M1967 1041 L1732 1276 L1732 1306 L1967 1071 Z"/><path class="fv1" d="M1967 1041 L1732 1276 L1732 1306 L1967 1071 Z" /></g><g class="o"><path transform="translate(2,4)" class="S sfh" d="M1991 1260 L2549 702 L2569 702 L2011 1260 Z"/><path class="fh4" d="M1991 1260 L2549 702 L2569 702 L2011 1260 Z" /></g><g class="o"><path transform="translate(6,12)" class="S sf" d="M1976 1543 L1917 1602 L1917 1638 L1976 1579 Z"/><path class="f2" d="M1976 1543 L1917 1602 L1917 1638 L1976 1579 Z" /></g><g class="o"><path transform="translate(8,16)" class="S sfv" d="M1942 1537 L1720 1759 L1720 1775 L1942 1553 Z"/><path class="fv4" d="M1942 1537 L1720 1759 L1720 1775 L1942 1553 Z" /></g><g class="o"><path transform="translate(3,6)" class="S sfv" d="M1822 1638 L2161 1977 L2161 2121 L1822 1782 Z"/><path class="fv7" d="M1822 1638 L2161 1977 L2161 2121 L1822 1782 Z" /></g><g class="o"><path transform="translate(5,10)" class="S sfh" d="M1039 1675 L1216 1498 L1242 1498 L1065 1675 Z"/><path class="fh4" d="M1039 1675 L1216 1498 L1242 1498 L1065 1675 Z" /></g><g class="o"><path transform="translate(6,12)" class="S sfh" d="M1641 1657 L1864 1434 L1888 1434 L1665 1657 Z"/><path class="fh6" d="M1641 1657 L1864 1434 L1888 1434 L1665 1657 Z" /></g><g class="o"><path transform="translate(3,6)" class="S sfv" d="M1150 1921 L1429 1642 L1429 1672 L1150 1951 Z"/><path class="fv1" d="M1150 1921 L1429 1642 L1429 1672 L1150 1951 Z" /></g><g class="o"><path transform="translate(6,12)" class="S sfh" d="M1724 1777 L2279 2332 L2297 2332 L1742 1777 Z"/><path class="fh7" d="M1724 1777 L2279 2332 L2297 2332 L1742 1777 Z" /></g><g class="o"><path transform="translate(4,8)" class="S ssv" d="M2014 1589 L2329 1904 L2329 1914 L2014 1599 Z"/><path class="sv2" d="M2014 1589 L2329 1904 L2329 1914 L2014 1599 Z" /></g><g class="o"><path transform="translate(6,12)" class="S sfv" d="M1112 1457 L560 905 L560 985 L1112 1537 Z"/><path class="fv2" d="M1112 1457 L560 905 L560 985 L1112 1537 Z" /></g><g class="o"><path transform="translate(5,10)" class="S sfh" d="M1853 1199 L1472 1580 L1494 1580 L1875 1199 Z"/><path class="fh3" d="M1853 1199 L1472 1580 L1494 1580 L1875 1199 Z" /></g><g class="o"><path transform="translate(8,16)" class="S ss" d="M1890 1853 L2091 1652 L2091 1756 L1890 1957 Z"/><path class="s1" d="M1890 1853 L2091 1652 L2091 1756 L1890 1957 Z" /></g><g class="o"><path transform="translate(5,10)" class="S sfh" d="M1952 1291 L1613 1630 L1647 1630 L1986 1291 Z"/><path class="fh2" d="M1952 1291 L1613 1630 L1647 1630 L1986 1291 Z" /></g><g class="o"><path transform="translate(2,4)" class="S sfh" d="M1077 1504 L1324 1751 L1344 1751 L1097 1504 Z"/><path class="fh3" d="M1077 1504 L1324 1751 L1344 1751 L1097 1504 Z" /></g><g class="o"><path transform="translate(5,10)" class="S sfh" d="M1336 1071 L958 1449 L988 1449 L1366 1071 Z"/><path class="fh7" d="M1336 1071 L958 1449 L988 1449 L1366 1071 Z" /></g><g class="o"><path transform="translate(2,4)" class="S sfv" d="M1770 2003 L1887 2120 L1887 2152 L1770 2035 Z"/><path class="fv5" d="M1770 2003 L1887 2120 L1887 2152 L1770 2035 Z" /></g><g class="o"><path transform="translate(2,4)" class="S sfh" d="M1225 1513 L1879 859 L1897 859 L1243 1513 Z"/><path class="fh2" d="M1225 1513 L1879 859 L1897 859 L1243 1513 Z" /></g><g class="o"><path transform="translate(3,6)" class="S ssv" d="M1948 1985 L2133 1800 L2133 1904 L1948 2089 Z"/><path class="sv4" d="M1948 1985 L2133 1800 L2133 1904 L1948 2089 Z" /></g><g class="o"><path transform="translate(8,16)" class="S ssv" d="M1142 1448 L1736 2042 L1736 2060 L1142 1466 Z"/><path class="sv4" d="M1142 1448 L1736 2042 L1736 2060 L1142 1466 Z" /></g><g class="o"><path transform="translate(7,14)" class="S sfv" d="M1539 1644 L1605 1578 L1605 1600 L1539 1666 Z"/><path class="fv6" d="M1539 1644 L1605 1578 L1605 1600 L1539 1666 Z" /></g><g class="o"><path transform="translate(6,12)" class="S sfh" d="M1132 1402 L1347 1617 L1385 1617 L1170 1402 Z"/><path class="fh4" d="M1132 1402 L1347 1617 L1385 1617 L1170 1402 Z" /></g><g class="o"><path transform="translate(8,16)" class="S sfh" d="M1982 1179 L1433 1728 L1529 1728 L2078 1179 Z"/><path class="fh3" d="M1982 1179 L1433 1728 L1529 1728 L2078 1179 Z" /></g><g class="o"><path transform="translate(6,12)" class="S sfh" d="M1471 1666 L1343 1538 L1369 1538 L1497 1666 Z"/><path class="fh2" d="M1471 1666 L1343 1538 L1369 1538 L1497 1666 Z" /></g><g class="o"><path transform="translate(6,12)" class="S sfh" d="M1012 1454 L948 1518 L970 1518 L1034 1454 Z"/><path class="fh7" d="M1012 1454 L948 1518 L970 1518 L1034 1454 Z" /></g><g class="o"><path transform="translate(5,10)" class="S ssh" d="M1046 1782 L963 1699 L987 1699 L1070 1782 Z"/><path class="sh6" d="M1046 1782 L963 1699 L987 1699 L1070 1782 Z" /></g><g class="o"><path transform="translate(5,10)" class="S sfv" d="M1218 1143 L1632 1557 L1632 1565 L1218 1151 Z"/><path class="fv5" d="M1218 1143 L1632 1557 L1632 1565 L1218 1151 Z" /></g><g class="o"><path transform="translate(9,18)" class="S sfv" d="M1302 1349 L1602 1049 L1602 1067 L1302 1367 Z"/><path class="fv7" d="M1302 1349 L1602 1049 L1602 1067 L1302 1367 Z" /></g><g class="o"><path transform="translate(8,16)" class="S ss" d="M1163 1315 L968 1510 L968 1524 L1163 1329 Z"/><path class="s4" d="M1163 1315 L968 1510 L968 1524 L1163 1329 Z" /></g><g class="o"><path transform="translate(3,6)" class="S sfv" d="M1083 1250 L1265 1068 L1265 1086 L1083 1268 Z"/><path class="fv6" d="M1083 1250 L1265 1068 L1265 1086 L1083 1268 Z" /></g><g class="o"><path transform="translate(4,8)" class="S sfv" d="M1012 1066 L1245 833 L1245 845 L1012 1078 Z"/><path class="fv7" d="M1012 1066 L1245 833 L1245 845 L1012 1078 Z" /></g><g class="o"><path transform="translate(3,6)" class="S sfv" d="M1488 1984 L2010 1462 L2010 1498 L1488 2020 Z"/><path class="fv4" d="M1488 1984 L2010 1462 L2010 1498 L1488 2020 Z" /></g><g class="o"><path transform="translate(9,18)" class="S sfh" d="M1554 1717 L1650 1813 L1672 1813 L1576 1717 Z"/><path class="fh4" d="M1554 1717 L1650 1813 L1672 1813 L1576 1717 Z" /></g><g class="o"><path transform="translate(4,8)" class="S sfv" d="M1421 1682 L1269 1834 L1269 1852 L1421 1700 Z"/><path class="fv2" d="M1421 1682 L1269 1834 L1269 1852 L1421 1700 Z" /></g><g class="o"><path transform="translate(8,16)" class="S sfv" d="M990 1534 L1347 1177 L1347 1189 L990 1546 Z"/><path class="fv7" d="M990 1534 L1347 1177 L1347 1189 L990 1546 Z" /></g><g class="o"><path transform="translate(6,12)" class="S sfh" d="M1657 1933 L2158 1432 L2174 1432 L1673 1933 Z"/><path class="fh5" d="M1657 1933 L2158 1432 L2174 1432 L1673 1933 Z" /></g><g class="o"><path transform="translate(8,16)" class="S sf" d="M1056 1606 L850 1400 L850 1430 L1056 1636 Z"/><path class="f7" d="M1056 1606 L850 1400 L850 1430 L1056 1636 Z" /></g><g class="o"><path transform="translate(4,8)" class="S sfh" d="M1322 1009 L1113 800 L1143 800 L1352 1009 Z"/><path class="fh4" d="M1322 1009 L1113 800 L1143 800 L1352 1009 Z" /></g><g class="o"><path transform="translate(4,8)" class="S sfh" d="M1411 1259 L712 560 L734 560 L1433 1259 Z"/><path class="fh6" d="M1411 1259 L712 560 L734 560 L1433 1259 Z" /></g><g class="o"><path transform="translate(5,10)" class="S sfv" d="M1337 1312 L1563 1086 L1563 1124 L1337 1350 Z"/><path class="fv6" d="M1337 1312 L1563 1086 L1563 1124 L1337 1350 Z" /></g><g class="o"><path transform="translate(8,16)" class="S ssh" d="M1705 1575 L1850 1430 L1878 1430 L1733 1575 Z"/><path class="sh2" d="M1705 1575 L1850 1430 L1878 1430 L1733 1575 Z" /></g><g class="o"><path transform="translate(5,10)" class="S sfh" d="M1394 1655 L1178 1439 L1198 1439 L1414 1655 Z"/><path class="fh6" d="M1394 1655 L1178 1439 L1198 1439 L1414 1655 Z" /></g><g class="o"><path transform="translate(5,10)" class="S sfh" d="M1489 1301 L1267 1079 L1303 1079 L1525 1301 Z"/><path class="fh4" d="M1489 1301 L1267 1079 L1303 1079 L1525 1301 Z" /></g><g class="o"><path transform="translate(5,10)" class="S sfh" d="M1723 1580 L1960 1343 L1968 1343 L1731 1580 Z"/><path class="fh2" d="M1723 1580 L1960 1343 L1968 1343 L1731 1580 Z" /></g><g class="o"><path transform="translate(8,16)" class="S sfh" d="M1717 1985 L1270 1538 L1318 1538 L1765 1985 Z"/><path class="fh6" d="M1717 1985 L1270 1538 L1318 1538 L1765 1985 Z" /></g><g class="o"><path transform="translate(2,4)" class="S ssv" d="M1717 1120 L1471 1366 L1471 1382 L1717 1136 Z"/><path class="sv5" d="M1717 1120 L1471 1366 L1471 1382 L1717 1136 Z" /></g><g class="o"><path transform="translate(8,16)" class="S ssv" d="M1286 1727 L1387 1626 L1387 1640 L1286 1741 Z"/><path class="sv6" d="M1286 1727 L1387 1626 L1387 1640 L1286 1741 Z" /></g><g class="o"><path transform="translate(8,16)" class="S sfv" d="M1765 1734 L1708 1677 L1708 1707 L1765 1764 Z"/><path class="fv4" d="M1765 1734 L1708 1677 L1708 1707 L1765 1764 Z" /></g><g class="o"><path transform="translate(9,18)" class="S sfh" d="M1256 1733 L902 2087 L1006 2087 L1360 1733 Z"/><path class="fh6" d="M1256 1733 L902 2087 L1006 2087 L1360 1733 Z" /></g><g class="o"><path transform="translate(8,16)" class="S sfh" d="M1289 1272 L926 1635 L956 1635 L1319 1272 Z"/><path class="fh5" d="M1289 1272 L926 1635 L956 1635 L1319 1272 Z" /></g><g class="o"><path transform="translate(7,14)" class="S sfv" d="M1784 1534 L1244 994 L1244 1016 L1784 1556 Z"/><path class="fv1" d="M1784 1534 L1244 994 L1244 1016 L1784 1556 Z" /></g><g class="o"><path transform="translate(6,12)" class="S sfv" d="M1038 1000 L702 664 L702 674 L1038 1010 Z"/><path class="fv2" d="M1038 1000 L702 664 L702 674 L1038 1010 Z" /></g><g class="o"><path transform="translate(3,6)" class="S ss" d="M1370 1756 L890 1276 L922 1276 L1402 1756 Z"/><path class="s6" d="M1370 1756 L890 1276 L922 1276 L1402 1756 Z" /></g><g class="o"><path transform="translate(6,12)" class="S sfv" d="M1822 1872 L2104 2154 L2104 2184 L1822 1902 Z"/><path class="fv5" d="M1822 1872 L2104 2154 L2104 2184 L1822 1902 Z" /></g><g class="o"><path transform="translate(4,8)" class="S ssh" d="M1774 1901 L1671 2004 L1689 2004 L1792 1901 Z"/><path class="sh4" d="M1774 1901 L1671 2004 L1689 2004 L1792 1901 Z" /></g><g class="o"><path transform="translate(4,8)" class="S sfv" d="M1884 1731 L1799 1816 L1799 1848 L1884 1763 Z"/><path class="fv5" d="M1884 1731 L1799 1816 L1799 1848 L1884 1763 Z" /></g><g class="o"><path transform="translate(5,10)" class="S ssv" d="M1634 1079 L1753 960 L1753 972 L1634 1091 Z"/><path class="sv1" d="M1634 1079 L1753 960 L1753 972 L1634 1091 Z" /></g><g class="o"><path transform="translate(5,10)" class="S sfh" d="M1452 1644 L1629 1821 L1667 1821 L1490 1644 Z"/><path class="fh2" d="M1452 1644 L1629 1821 L1667 1821 L1490 1644 Z" /></g><g class="o"><path transform="translate(8,16)" class="S sf" d="M1464 1551 L1253 1762 L1253 1796 L1464 1585 Z"/><path class="f3" d="M1464 1551 L1253 1762 L1253 1796 L1464 1585 Z" /></g><g class="o"><path transform="translate(8,16)" class="S sfh" d="M1690 1919 L1342 1571 L1374 1571 L1722 1919 Z"/><path class="fh6" d="M1690 1919 L1342 1571 L1374 1571 L1722 1919 Z" /></g><g class="o"><path transform="translate(3,6)" class="S sf" d="M1635 1578 L1971 1914 L1971 2018 L1635 1682 Z"/><path class="f5" d="M1635 1578 L1971 1914 L1971 2018 L1635 1682 Z" /></g><g class="o"><path transform="translate(5,10)" class="S ssv" d="M1393 1167 L1325 1235 L1325 1271 L1393 1203 Z"/><path class="sv5" d="M1393 1167 L1325 1235 L1325 1271 L1393 1203 Z" /></g><g class="o"><path transform="translate(6,12)" class="S sfh" d="M1595 1482 L1508 1395 L1532 1395 L1619 1482 Z"/><path class="fh7" d="M1595 1482 L1508 1395 L1532 1395 L1619 1482 Z" /></g><g class="o"><path transform="translate(5,10)" class="S ssv" d="M1071 1888 L871 1688 L871 1724 L1071 1924 Z"/><path class="sv5" d="M1071 1888 L871 1688 L871 1724 L1071 1924 Z" /></g><g class="o"><path transform="translate(8,16)" class="S sfv" d="M1981 1208 L1372 599 L1372 623 L1981 1232 Z"/><path class="fv5" d="M1981 1208 L1372 599 L1372 623 L1981 1232 Z" /></g><g class="o"><path transform="translate(5,10)" class="S sfh" d="M1123 2005 L1639 1489 L1759 1489 L1243 2005 Z"/><path class="fh3" d="M1123 2005 L1639 1489 L1759 1489 L1243 2005 Z" /></g><g class="o"><path transform="translate(2,4)" class="S sfv" d="M1552 1753 L1369 1936 L1369 1968 L1552 1785 Z"/><path class="fv4" d="M1552 1753 L1369 1936 L1369 1968 L1552 1785 Z" /></g><g class="o"><path transform="translate(9,18)" class="S sfv" d="M1564 1698 L1828 1962 L1828 1974 L1564 1710 Z"/><path class="fv5" d="M1564 1698 L1828 1962 L1828 1974 L1564 1710 Z" /></g><g class="o"><path transform="translate(4,8)" class="S sfh" d="M2027 1298 L2282 1553 L2290 1553 L2035 1298 Z"/><path class="fh6" d="M2027 1298 L2282 1553 L2290 1553 L2035 1298 Z" /></g><g class="o"><path transform="translate(7,14)" class="S sfv" d="M1085 996 L1817 264 L1817 286 L1085 1018 Z"/><path class="fv5" d="M1085 996 L1817 264 L1817 286 L1085 1018 Z" /></g><g class="o"><path transform="translate(7,14)" class="S sfh" d="M1709 1756 L1916 1549 L1954 1549 L1747 1756 Z"/><path class="fh6" d="M1709 1756 L1916 1549 L1954 1549 L1747 1756 Z" /></g><g class="o"><path transform="translate(5,10)" class="S sfh" d="M1347 1219 L1201 1365 L1239 1365 L1385 1219 Z"/><path class="fh7" d="M1347 1219 L1201 1365 L1239 1365 L1385 1219 Z" /></g><g class="o"><path transform="translate(7,14)" class="S ssh" d="M1926 1940 L1994 1872 L2030 1872 L1962 1940 Z"/><path class="sh5" d="M1926 1940 L1994 1872 L2030 1872 L1962 1940 Z" /></g><g class="o"><path transform="translate(8,16)" class="S ssv" d="M1693 1660 L1524 1491 L1524 1505 L1693 1674 Z"/><path class="sv1" d="M1693 1660 L1524 1491 L1524 1505 L1693 1674 Z" /></g><g class="o"><path transform="translate(2,4)" class="S ss" d="M999 1328 L841 1170 L841 1188 L999 1346 Z"/><path class="s2" d="M999 1328 L841 1170 L841 1188 L999 1346 Z" /></g><g class="o"><path transform="translate(3,6)" class="S sfv" d="M1659 1705 L1851 1897 L1851 1911 L1659 1719 Z"/><path class="fv6" d="M1659 1705 L1851 1897 L1851 1911 L1659 1719 Z" /></g><g class="o"><path transform="translate(3,6)" class="S sf" d="M1108 1674 L1299 1865 L1339 1865 L1148 1674 Z"/><path class="f1" d="M1108 1674 L1299 1865 L1339 1865 L1148 1674 Z" /></g><g class="o"><path transform="translate(4,8)" class="S sfv" d="M1510 1375 L1345 1540 L1345 1578 L1510 1413 Z"/><path class="fv1" d="M1510 1375 L1345 1540 L1345 1578 L1510 1413 Z" /></g><g class="o"><path transform="translate(5,10)" class="S sfv" d="M1257 1024 L1095 862 L1095 886 L1257 1048 Z"/><path class="fv5" d="M1257 1024 L1095 862 L1095 886 L1257 1048 Z" /></g><g class="o"><path transform="translate(5,10)" class="S sfh" d="M1383 1831 L993 1441 L1007 1441 L1397 1831 Z"/><path class="fh2" d="M1383 1831 L993 1441 L1007 1441 L1397 1831 Z" /></g><g class="o"><path transform="translate(8,16)" class="S sfh" d="M1587 1558 L1696 1667 L1816 1667 L1707 1558 Z"/><path class="fh5" d="M1587 1558 L1696 1667 L1816 1667 L1707 1558 Z" /></g><g class="o"><path transform="translate(4,8)" class="S sf" d="M1401 1139 L1237 975 L1273 975 L1437 1139 Z"/><path class="f6" d="M1401 1139 L1237 975 L1273 975 L1437 1139 Z" /></g><g class="o"><path transform="translate(3,6)" class="S ssv" d="M1249 1520 L1024 1295 L1024 1303 L1249 1528 Z"/><path class="sv6" d="M1249 1520 L1024 1295 L1024 1303 L1249 1528 Z" /></g><g class="o"><path transform="translate(8,16)" class="S sf" d="M1872 1217 L1935 1154 L1961 1154 L1898 1217 Z"/><path class="f1" d="M1872 1217 L1935 1154 L1961 1154 L1898 1217 Z" /></g><g class="o"><path transform="translate(4,8)" class="S ssh" d="M1934 1691 L2061 1564 L2093 1564 L1966 1691 Z"/><path class="sh6" d="M1934 1691 L2061 1564 L2093 1564 L1966 1691 Z" /></g><g class="o"><path transform="translate(5,10)" class="S ssv" d="M1446 1883 L972 1409 L972 1419 L1446 1893 Z"/><path class="sv7" d="M1446 1883 L972 1409 L972 1419 L1446 1893 Z" /></g><g class="o"><path transform="translate(5,10)" class="S sfh" d="M1756 982 L1993 745 L2027 745 L1790 982 Z"/><path class="fh5" d="M1756 982 L1993 745 L2027 745 L1790 982 Z" /></g><g class="o"><path transform="translate(8,16)" class="S ssv" d="M1999 943 L2635 307 L2635 333 L1999 969 Z"/><path class="sv4" d="M1999 943 L2635 307 L2635 333 L1999 969 Z" /></g><g class="o"><path transform="translate(6,12)" class="S sfh" d="M1272 1806 L1052 2026 L1082 2026 L1302 1806 Z"/><path class="fh2" d="M1272 1806 L1052 2026 L1082 2026 L1302 1806 Z" /></g><g class="o"><path transform="translate(4,8)" class="S sf" d="M1895 1060 L1672 837 L1702 837 L1925 1060 Z"/><path class="f7" d="M1895 1060 L1672 837 L1702 837 L1925 1060 Z" /></g><g class="o"><path transform="translate(3,6)" class="S ssh" d="M1615 1751 L1700 1666 L1722 1666 L1637 1751 Z"/><path class="sh7" d="M1615 1751 L1700 1666 L1722 1666 L1637 1751 Z" /></g><g class="o"><path transform="translate(6,12)" class="S ss" d="M1012 1359 L751 1098 L751 1242 L1012 1503 Z"/><path class="s4" d="M1012 1359 L751 1098 L751 1242 L1012 1503 Z" /></g><g class="o"><path transform="translate(5,10)" class="S sfv" d="M1937 1926 L1274 2589 L1274 2607 L1937 1944 Z"/><path class="fv2" d="M1937 1926 L1274 2589 L1274 2607 L1937 1944 Z" /></g><g class="o"><path transform="translate(8,16)" class="S sfh" d="M1269 1853 L1078 2044 L1114 2044 L1305 1853 Z"/><path class="fh2" d="M1269 1853 L1078 2044 L1114 2044 L1305 1853 Z" /></g><g class="o"><path transform="translate(2,4)" class="S sfh" d="M1564 1942 L1765 2143 L1799 2143 L1598 1942 Z"/><path class="fh7" d="M1564 1942 L1765 2143 L1799 2143 L1598 1942 Z" /></g><g class="o"><path transform="translate(8,16)" class="S sf" d="M1193 1465 L623 2035 L623 2053 L1193 1483 Z"/><path class="f2" d="M1193 1465 L623 2035 L623 2053 L1193 1483 Z" /></g><g class="o"><path transform="translate(9,18)" class="S sfv" d="M1259 1607 L680 1028 L680 1036 L1259 1615 Z"/><path class="fv5" d="M1259 1607 L680 1028 L680 1036 L1259 1615 Z" /></g><g class="o"><path transform="translate(6,12)" class="S sfh" d="M1477 1249 L1831 1603 L1859 1603 L1505 1249 Z"/><path class="fh5" d="M1477 1249 L1831 1603 L1859 1603 L1505 1249 Z" /></g><g class="o"><path transform="translate(8,16)" class="S sf" d="M1602 1014 L1332 1284 L1348 1284 L1618 1014 Z"/><path class="f6" d="M1602 1014 L1332 1284 L1348 1284 L1618 1014 Z" /></g><g class="o"><path transform="translate(9,18)" class="S sf" d="M1395 1928 L1149 1682 L1149 1702 L1395 1948 Z"/><path class="f1" d="M1395 1928 L1149 1682 L1149 1702 L1395 1948 Z" /></g><g class="o"><path transform="translate(6,12)" class="S sfh" d="M1116 1222 L1019 1125 L1033 1125 L1130 1222 Z"/><path class="fh1" d="M1116 1222 L1019 1125 L1033 1125 L1130 1222 Z" /></g><g class="o"><path transform="translate(5,10)" class="S sf" d="M908 1278 L335 1851 L463 1851 L1036 1278 Z"/><path class="f7" d="M908 1278 L335 1851 L463 1851 L1036 1278 Z" /></g><g class="o"><path transform="translate(5,10)" class="S sfv" d="M1252 1764 L847 2169 L847 2201 L1252 1796 Z"/><path class="fv5" d="M1252 1764 L847 2169 L847 2201 L1252 1796 Z" /></g><g class="o"><path transform="translate(3,6)" class="S sfh" d="M1746 1577 L1980 1343 L1990 1343 L1756 1577 Z"/><path class="fh5" d="M1746 1577 L1980 1343 L1990 1343 L1756 1577 Z" /></g><g class="o"><path transform="translate(9,18)" class="S sfv" d="M1337 973 L1226 1084 L1226 1120 L1337 1009 Z"/><path class="fv5" d="M1337 973 L1226 1084 L1226 1120 L1337 1009 Z" /></g><g class="o"><path transform="translate(7,14)" class="S sfh" d="M1786 1257 L2374 1845 L2406 1845 L1818 1257 Z"/><path class="fh1" d="M1786 1257 L2374 1845 L2406 1845 L1818 1257 Z" /></g></g><use href="#slashes" transform-origin="1500 1500" transform="rotate(180) scale(2)"/></g><rect x="1080" y="1080" width="840" height="840" stroke-width="160" class="o s2" /><use href="#slashes" transform-origin="1500 1500" transform="scale(.6)"/><use href="#slashes" transform-origin="1500 1500" transform="rotate(180) scale(.6)"/></svg>