<svg xmlns="http://www.w3.org/2000/svg" viewBox="750 750 1500 1500"><style>/*<![CDATA[*/svg{background:rgb(96,96,96);max-width:100vw;max-height:100vh}path{stroke-width:4}.o{opacity:.75}.S{opacity:.4}.sf{stroke:none;fill:black}.sfh{stroke:none;fill:url(#hs)}.sfv{stroke:none;fill:url(#vs)}.ss{stroke:black;fill:none}.ssh{stroke:url(#hs);fill:none}.ssv{stroke:url(#vs);fill:none}.s1{fill:none;stroke:rgb(63,2,89)}.f1{stroke:none;fill:rgb(63,2,89)}.sh1{fill:none;stroke:url(#h1)}.fh1{stroke:none;fill:url(#h1)}.sv1{fill:none;stroke:url(#v1)}.fv1{stroke:none;fill:url(#v1)}.s2{fill:none;stroke:rgb(34,34,34)}.f2{stroke:none;fill:rgb(34,34,34)}.sh2{fill:none;stroke:url(#h2)}.fh2{stroke:none;fill:url(#h2)}.sv2{fill:none;stroke:url(#v2)}.fv2{stroke:none;fill:url(#v2)}.s3{fill:none;stroke:rgb(246,81,29)}.f3{stroke:none;fill:rgb(246,81,29)}.sh3{fill:none;stroke:url(#h3)}.fh3{stroke:none;fill:url(#h3)}.sv3{fill:none;stroke:url(#v3)}.fv3{stroke:none;fill:url(#v3)}.s4{fill:none;stroke:rgb(242,235,220)}.f4{stroke:none;fill:rgb(242,235,220)}.sh4{fill:none;stroke:url(#h4)}.fh4{stroke:none;fill:url(#h4)}.sv4{fill:none;stroke:url(#v4)}.fv4{stroke:none;fill:url(#v4)}.s5{fill:none;stroke:rgb(242,226,5)}.f5{stroke:none;fill:rgb(242,226,5)}.sh5{fill:none;stroke:url(#h5)}.fh5{stroke:none;fill:url(#h5)}.sv5{fill:none;stroke:url(#v5)}.fv5{stroke:none;fill:url(#v5)}.s6{fill:none;stroke:rgb(255,255,255)}.f6{stroke:none;fill:rgb(255,255,255)}.sh6{fill:none;stroke:url(#h6)}.fh6{stroke:none;fill:url(#h6)}.sv6{fill:none;stroke:url(#v6)}.fv6{stroke:none;fill:url(#v6)}.s7{fill:none;stroke:rgb(255,0,0)}.f7{stroke:none;fill:rgb(255,0,0)}.sh7{fill:none;stroke:url(#h7)}.fh7{stroke:none;fill:url(#h7)}.sv7{fill:none;stroke:url(#v7)}.fv7{stroke:none;fill:url(#v7)}/*]]>*/</style><defs><linearGradient gradientTransform="rotate(90)" id="hs"><stop offset="20%" stop-color="#000" /><stop offset="95%" stop-color="rgba(0, 0, 0, 0)" /></linearGradient><linearGradient id="vs"><stop offset="20%" stop-color="#000" /><stop offset="95%" stop-color="rgba(0, 0, 0, 0)" /></linearGradient><linearGradient gradientTransform="rotate(90)" id="h1"><stop offset="20%" stop-color="rgba(63,2,89,1)" /><stop offset="95%" stop-color="rgba(63,2,89,0)" /></linearGradient><linearGradient id="v1"><stop offset="20%" stop-color="rgba(63,2,89,1)" /><stop offset="95%" stop-color="rgba(63,2,89,0)" /></linearGradient><linearGradient gradientTransform="rotate(90)" id="h2"><stop offset="20%" stop-color="rgba(34,34,34,1)" /><stop offset="95%" stop-color="rgba(34,34,34,0)" /></linearGradient><linearGradient id="v2"><stop offset="20%" stop-color="rgba(34,34,34,1)" /><stop offset="95%" stop-color="rgba(34,34,34,0)" /></linearGradient><linearGradient gradientTransform="rotate(90)" id="h3"><stop offset="20%" stop-color="rgba(246,81,29,1)" /><stop offset="95%" stop-color="rgba(246,81,29,0)" /></linearGradient><linearGradient id="v3"><stop offset="20%" stop-color="rgba(246,81,29,1)" /><stop offset="95%" stop-color="rgba(246,81,29,0)" /></linearGradient><linearGradient gradientTransform="rotate(90)" id="h4"><stop offset="20%" stop-color="rgba(242,235,220,1)" /><stop offset="95%" stop-color="rgba(242,235,220,0)" /></linearGradient><linearGradient id="v4"><stop offset="20%" stop-color="rgba(242,235,220,1)" /><stop offset="95%" stop-color="rgba(242,235,220,0)" /></linearGradient><linearGradient gradientTransform="rotate(90)" id="h5"><stop offset="20%" stop-color="rgba(242,226,5,1)" /><stop offset="95%" stop-color="rgba(242,226,5,0)" /></linearGradient><linearGradient id="v5"><stop offset="20%" stop-color="rgba(242,226,5,1)" /><stop offset="95%" stop-color="rgba(242,226,5,0)" /></linearGradient><linearGradient gradientTransform="rotate(90)" id="h6"><stop offset="20%" stop-color="rgba(255,255,255,1)" /><stop offset="95%" stop-color="rgba(255,255,255,0)" /></linearGradient><linearGradient id="v6"><stop offset="20%" stop-color="rgba(255,255,255,1)" /><stop offset="95%" stop-color="rgba(255,255,255,0)" /></linearGradient><linearGradient gradientTransform="rotate(90)" id="h7"><stop offset="20%" stop-color="rgba(255,0,0,1)" /><stop offset="95%" stop-color="rgba(255,0,0,0)" /></linearGradient><linearGradient id="v7"><stop offset="20%" stop-color="rgba(255,0,0,1)" /><stop offset="95%" stop-color="rgba(255,0,0,0)" /></linearGradient></defs><g transform-origin="1500 1500" transform="scale(2)" opacity=".6"><g id="slashes"><g class="o"><path transform="translate(2,4)" class="S sf" d="M1587 1085 L1689 983 L1817 983 L1715 1085 Z"/><path class="f2" d="M1587 1085 L1689 983 L1817 983 L1715 1085 Z" /></g><g class="o"><path transform="translate(4,8)" class="S sfv" d="M1073 1275 L938 1140 L938 1292 L1073 1427 Z"/><path class="fv2" d="M1073 1275 L938 1140 L938 1292 L1073 1427 Z" /></g><g class="o"><path transform="translate(5,10)" class="S ss" d="M1537 1800 L1728 1991 L1760 1991 L1569 1800 Z"/><path class="s4" d="M1537 1800 L1728 1991 L1760 1991 L1569 1800 Z" /></g><g class="o"><path transform="translate(9,18)" class="S ssh" d="M1652 1661 L1825 1488 L1857 1488 L1684 1661 Z"/><path class="sh3" d="M1652 1661 L1825 1488 L1857 1488 L1684 1661 Z" /></g><g class="o"><path transform="translate(6,12)" class="S ssh" d="M1549 1512 L1656 1619 L1808 1619 L1701 1512 Z"/><path class="sh6" d="M1549 1512 L1656 1619 L1808 1619 L1701 1512 Z" /></g><g class="o"><path transform="translate(9,18)" class="S sfh" d="M905 2016 L1487 2598 L1623 2598 L1041 2016 Z"/><path class="fh6" d="M905 2016 L1487 2598 L1623 2598 L1041 2016 Z" /></g><g class="o"><path transform="translate(9,18)" class="S sfv" d="M1117 1718 L1302 1533 L1302 1547 L1117 1732 Z"/><path class="fv2" d="M1117 1718 L1302 1533 L1302 1547 L1117 1732 Z" /></g><g class="o"><path transform="translate(9,18)" class="S sfv" d="M1476 1346 L1560 1262 L1560 1270 L1476 1354 Z"/><path class="fv5" d="M1476 1346 L1560 1262 L1560 1270 L1476 1354 Z" /></g><g class="o"><path transform="translate(7,14)" class="S sfh" d="M1175 1514 L985 1324 L995 1324 L1185 1514 Z"/><path class="fh4" d="M1175 1514 L985 1324 L995 1324 L1185 1514 Z" /></g><g class="o"><path transform="translate(2,4)" class="S ssh" d="M1725 1019 L1519 1225 L1623 1225 L1829 1019 Z"/><path class="sh7" d="M1725 1019 L1519 1225 L1623 1225 L1829 1019 Z" /></g><g class="o"><path transform="translate(7,14)" class="S sfh" d="M1822 1266 L1600 1488 L1616 1488 L1838 1266 Z"/><path class="fh2" d="M1822 1266 L1600 1488 L1616 1488 L1838 1266 Z" /></g><g class="o"><path transform="translate(4,8)" class="S sfv" d="M1081 1601 L1648 2168 L1648 2202 L1081 1635 Z"/><path class="fv5" d="M1081 1601 L1648 2168 L1648 2202 L1081 1635 Z" /></g><g class="o"><path transform="translate(3,6)" class="S sfv" d="M2023 1193 L2083 1133 L2083 1285 L2023 1345 Z"/><path class="fv2" d="M2023 1193 L2083 1133 L2083 1285 L2023 1345 Z" /></g><g class="o"><path transform="translate(2,4)" class="S sf" d="M1854 1893 L1663 1702 L1681 1702 L1872 1893 Z"/><path class="f3" d="M1854 1893 L1663 1702 L1681 1702 L1872 1893 Z" /></g><g class="o"><path transform="translate(2,4)" class="S ssh" d="M1419 1935 L1351 1867 L1385 1867 L1453 1935 Z"/><path class="sh1" d="M1419 1935 L1351 1867 L1385 1867 L1453 1935 Z" /></g><g class="o"><path transform="translate(8,16)" class="S sfh" d="M1828 1572 L1207 951 L1237 951 L1858 1572 Z"/><path class="fh4" d="M1828 1572 L1207 951 L1237 951 L1858 1572 Z" /></g><g class="o"><path transform="translate(4,8)" class="S sfh" d="M1501 1728 L1404 1825 L1468 1825 L1565 1728 Z"/><path class="fh2" d="M1501 1728 L1404 1825 L1468 1825 L1565 1728 Z" /></g><g class="o"><path transform="translate(8,16)" class="S sf" d="M1292 1076 L1066 1302 L1066 1338 L1292 1112 Z"/><path class="f3" d="M1292 1076 L1066 1302 L1066 1338 L1292 1112 Z" /></g><g class="o"><path transform="translate(3,6)" class="S ss" d="M2009 1656 L1880 1785 L1880 1817 L2009 1688 Z"/><path class="s4" d="M2009 1656 L1880 1785 L1880 1817 L2009 1688 Z" /></g><g class="o"><path transform="translate(9,18)" class="S sfv" d="M1402 1147 L1607 942 L1607 976 L1402 1181 Z"/><path class="fv2" d="M1402 1147 L1607 942 L1607 976 L1402 1181 Z" /></g><g class="o"><path transform="translate(2,4)" class="S sfv" d="M1418 1423 L1486 1355 L1486 1385 L1418 1453 Z"/><path class="fv1" d="M1418 1423 L1486 1355 L1486 1385 L1418 1453 Z" /></g><g class="o"><path transform="translate(9,18)" class="S ssh" d="M1897 966 L2416 447 L2424 447 L1905 966 Z"/><path class="sh2" d="M1897 966 L2416 447 L2424 447 L1905 966 Z" /></g><g class="o"><path transform="translate(6,12)" class="S sfh" d="M1280 1850 L1568 1562 L1596 1562 L1308 1850 Z"/><path class="fh4" d="M1280 1850 L1568 1562 L1596 1562 L1308 1850 Z" /></g><g class="o"><path transform="translate(8,16)" class="S sfh" d="M1099 1775 L469 1145 L525 1145 L1155 1775 Z"/><path class="fh3" d="M1099 1775 L469 1145 L525 1145 L1155 1775 Z" /></g><g class="o"><path transform="translate(2,4)" class="S sfh" d="M1145 2048 L1092 1995 L1102 1995 L1155 2048 Z"/><path class="fh3" d="M1145 2048 L1092 1995 L1102 1995 L1155 2048 Z" /></g><g class="o"><path transform="translate(2,4)" class="S sfh" d="M1678 954 L2125 507 L2261 507 L1814 954 Z"/><path class="fh6" d="M1678 954 L2125 507 L2261 507 L1814 954 Z" /></g><g class="o"><path transform="translate(9,18)" class="S sfv" d="M1722 1044 L1308 1458 L1308 1538 L1722 1124 Z"/><path class="fv3" d="M1722 1044 L1308 1458 L1308 1538 L1722 1124 Z" /></g><g class="o"><path transform="translate(2,4)" class="S sfh" d="M1732 1613 L1960 1841 L2016 1841 L1788 1613 Z"/><path class="fh2" d="M1732 1613 L1960 1841 L2016 1841 L1788 1613 Z" /></g><g class="o"><path transform="translate(5,10)" class="S sf" d="M948 1019 L1470 497 L1534 497 L1012 1019 Z"/><path class="f2" d="M948 1019 L1470 497 L1534 497 L1012 1019 Z" /></g><g class="o"><path transform="translate(6,12)" class="S sfh" d="M1967 1454 L1747 1234 L1769 1234 L1989 1454 Z"/><path class="fh2" d="M1967 1454 L1747 1234 L1769 1234 L1989 1454 Z" /></g><g class="o"><path transform="translate(9,18)" class="S ssv" d="M1815 1720 L1866 1771 L1866 1801 L1815 1750 Z"/><path class="sv3" d="M1815 1720 L1866 1771 L1866 1801 L1815 1750 Z" /></g><g class="o"><path transform="translate(9,18)" class="S sfh" d="M1757 1514 L1584 1687 L1612 1687 L1785 1514 Z"/><path class="fh4" d="M1757 1514 L1584 1687 L1612 1687 L1785 1514 Z" /></g><g class="o"><path transform="translate(5,10)" class="S sfh" d="M941 1162 L1009 1094 L1073 1094 L1005 1162 Z"/><path class="fh3" d="M941 1162 L1009 1094 L1073 1094 L1005 1162 Z" /></g><g class="o"><path transform="translate(4,8)" class="S sfv" d="M1767 1590 L1416 1239 L1416 1295 L1767 1646 Z"/><path class="fv7" d="M1767 1590 L1416 1239 L1416 1295 L1767 1646 Z" /></g><g class="o"><path transform="translate(8,16)" class="S sf" d="M1754 1408 L1819 1473 L1819 1491 L1754 1426 Z"/><path class="f4" d="M1754 1408 L1819 1473 L1819 1491 L1754 1426 Z" /></g><g class="o"><path transform="translate(3,6)" class="S ssh" d="M1142 1985 L767 1610 L793 1610 L1168 1985 Z"/><path class="sh5" d="M1142 1985 L767 1610 L793 1610 L1168 1985 Z" /></g><g class="o"><path transform="translate(3,6)" class="S sfh" d="M1013 968 L284 1697 L312 1697 L1041 968 Z"/><path class="fh2" d="M1013 968 L284 1697 L312 1697 L1041 968 Z" /></g><g class="o"><path transform="translate(7,14)" class="S ss" d="M1475 1509 L1545 1439 L1665 1439 L1595 1509 Z"/><path class="s2" d="M1475 1509 L1545 1439 L1665 1439 L1595 1509 Z" /></g><g class="o"><path transform="translate(2,4)" class="S sfv" d="M1993 1675 L1819 1501 L1819 1573 L1993 1747 Z"/><path class="fv1" d="M1993 1675 L1819 1501 L1819 1573 L1993 1747 Z" /></g><g class="o"><path transform="translate(9,18)" class="S sfv" d="M1870 1425 L2027 1582 L2027 1602 L1870 1445 Z"/><path class="fv1" d="M1870 1425 L2027 1582 L2027 1602 L1870 1445 Z" /></g><g class="o"><path transform="translate(3,6)" class="S ssv" d="M1693 1593 L1474 1812 L1474 1850 L1693 1631 Z"/><path class="sv1" d="M1693 1593 L1474 1812 L1474 1850 L1693 1631 Z" /></g><g class="o"><path transform="translate(3,6)" class="S sfv" d="M1226 1126 L1446 1346 L1446 1362 L1226 1142 Z"/><path class="fv7" d="M1226 1126 L1446 1346 L1446 1362 L1226 1142 Z" /></g><g class="o"><path transform="translate(3,6)" class="S sfv" d="M1817 1035 L1493 1359 L1493 1399 L1817 1075 Z"/><path class="fv7" d="M1817 1035 L1493 1359 L1493 1399 L1817 1075 Z" /></g><g class="o"><path transform="translate(2,4)" class="S sf" d="M1721 1285 L2042 964 L2042 1044 L1721 1365 Z"/><path class="f3" d="M1721 1285 L2042 964 L2042 1044 L1721 1365 Z" /></g><g class="o"><path transform="translate(9,18)" class="S sfv" d="M976 1342 L1414 904 L1414 936 L976 1374 Z"/><path class="fv7" d="M976 1342 L1414 904 L1414 936 L976 1374 Z" /></g><g class="o"><path transform="translate(4,8)" class="S sfh" d="M1269 1093 L1193 1169 L1227 1169 L1303 1093 Z"/><path class="fh1" d="M1269 1093 L1193 1169 L1227 1169 L1303 1093 Z" /></g><g class="o"><path transform="translate(8,16)" class="S sf" d="M1587 1854 L2031 2298 L2031 2336 L1587 1892 Z"/><path class="f3" d="M1587 1854 L2031 2298 L2031 2336 L1587 1892 Z" /></g><g class="o"><path transform="translate(6,12)" class="S sfh" d="M1434 1211 L1226 1003 L1378 1003 L1586 1211 Z"/><path class="fh5" d="M1434 1211 L1226 1003 L1378 1003 L1586 1211 Z" /></g><g class="o"><path transform="translate(3,6)" class="S sfv" d="M1518 1609 L1296 1831 L1296 1975 L1518 1753 Z"/><path class="fv7" d="M1518 1609 L1296 1831 L1296 1975 L1518 1753 Z" /></g><g class="o"><path transform="translate(3,6)" class="S sfh" d="M1141 2020 L1306 1855 L1326 1855 L1161 2020 Z"/><path class="fh6" d="M1141 2020 L1306 1855 L1326 1855 L1161 2020 Z" /></g><g class="o"><path transform="translate(3,6)" class="S sfv" d="M1833 1387 L1983 1537 L1983 1563 L1833 1413 Z"/><path class="fv2" d="M1833 1387 L1983 1537 L1983 1563 L1833 1413 Z" /></g><g class="o"><path transform="translate(3,6)" class="S sfh" d="M1082 1843 L1195 1956 L1221 1956 L1108 1843 Z"/><path class="fh4" d="M1082 1843 L1195 1956 L1221 1956 L1108 1843 Z" /></g><g class="o"><path transform="translate(2,4)" class="S sf" d="M1609 1184 L1703 1090 L1703 1110 L1609 1204 Z"/><path class="f5" d="M1609 1184 L1703 1090 L1703 1110 L1609 1204 Z" /></g><g class="o"><path transform="translate(7,14)" class="S sfh" d="M1367 1721 L1784 1304 L1848 1304 L1431 1721 Z"/><path class="fh2" d="M1367 1721 L1784 1304 L1848 1304 L1431 1721 Z" /></g><g class="o"><path transform="translate(3,6)" class="S ssv" d="M1733 1649 L1622 1538 L1622 1658 L1733 1769 Z"/><path class="sv6" d="M1733 1649 L1622 1538 L1622 1658 L1733 1769 Z" /></g><g class="o"><path transform="translate(8,16)" class="S ssv" d="M1583 988 L1650 1055 L1650 1191 L1583 1124 Z"/><path class="sv5" d="M1583 988 L1650 1055 L1650 1191 L1583 1124 Z" /></g><g class="o"><path transform="translate(2,4)" class="S ssh" d="M1840 1550 L1992 1702 L2080 1702 L1928 1550 Z"/><path class="sh5" d="M1840 1550 L1992 1702 L2080 1702 L1928 1550 Z" /></g><g class="o"><path transform="translate(2,4)" class="S sf" d="M1190 1307 L1685 1802 L1685 1818 L1190 1323 Z"/><path class="f5" d="M1190 1307 L1685 1802 L1685 1818 L1190 1323 Z" /></g><g class="o"><path transform="translate(4,8)" class="S sfh" d="M1093 1458 L775 1140 L793 1140 L1111 1458 Z"/><path class="fh7" d="M1093 1458 L775 1140 L793 1140 L1111 1458 Z" /></g><g class="o"><path transform="translate(5,10)" class="S sfh" d="M1507 1274 L1930 851 L1940 851 L1517 1274 Z"/><path class="fh6" d="M1507 1274 L1930 851 L1940 851 L1517 1274 Z" /></g><g class="o"><path transform="translate(7,14)" class="S sfv" d="M996 1209 L1524 681 L1524 817 L996 1345 Z"/><path class="fv4" d="M996 1209 L1524 681 L1524 817 L996 1345 Z" /></g><g class="o"><path transform="translate(3,6)" class="S sf" d="M1033 1847 L810 2070 L810 2102 L1033 1879 Z"/><path class="f5" d="M1033 1847 L810 2070 L810 2102 L1033 1879 Z" /></g><g class="o"><path transform="translate(6,12)" class="S sf" d="M1235 1821 L1053 2003 L1063 2003 L1245 1821 Z"/><path class="f7" d="M1235 1821 L1053 2003 L1063 2003 L1245 1821 Z" /></g><g class="o"><path transform="translate(2,4)" class="S sf" d="M1690 1354 L2314 1978 L2314 2012 L1690 1388 Z"/><path class="f4" d="M1690 1354 L2314 1978 L2314 2012 L1690 1388 Z" /></g><g class="o"><path transform="translate(7,14)" class="S sfh" d="M1677 1784 L1872 1979 L1936 1979 L1741 1784 Z"/><path class="fh7" d="M1677 1784 L1872 1979 L1936 1979 L1741 1784 Z" /></g><g class="o"><path transform="translate(8,16)" class="S sf" d="M967 932 L766 731 L766 795 L967 996 Z"/><path class="f6" d="M967 932 L766 731 L766 795 L967 996 Z" /></g><g class="o"><path transform="translate(5,10)" class="S sfh" d="M1747 1690 L1509 1928 L1573 1928 L1811 1690 Z"/><path class="fh6" d="M1747 1690 L1509 1928 L1573 1928 L1811 1690 Z" /></g><g class="o"><path transform="translate(2,4)" class="S sfh" d="M1516 1994 L1681 1829 L1729 1829 L1564 1994 Z"/><path class="fh7" d="M1516 1994 L1681 1829 L1729 1829 L1564 1994 Z" /></g><g class="o"><path transform="translate(5,10)" class="S sf" d="M1182 1393 L1381 1592 L1405 1592 L1206 1393 Z"/><path class="f2" d="M1182 1393 L1381 1592 L1405 1592 L1206 1393 Z" /></g><g class="o"><path transform="translate(9,18)" class="S ssh" d="M1553 2037 L1766 2250 L1784 2250 L1571 2037 Z"/><path class="sh7" d="M1553 2037 L1766 2250 L1784 2250 L1571 2037 Z" /></g><g class="o"><path transform="translate(5,10)" class="S sf" d="M1883 1949 L2099 1733 L2099 1877 L1883 2093 Z"/><path class="f3" d="M1883 1949 L2099 1733 L2099 1877 L1883 2093 Z" /></g><g class="o"><path transform="translate(6,12)" class="S sfh" d="M1859 974 L1931 902 L1967 902 L1895 974 Z"/><path class="fh7" d="M1859 974 L1931 902 L1967 902 L1895 974 Z" /></g><g class="o"><path transform="translate(9,18)" class="S sf" d="M1456 995 L1227 1224 L1275 1224 L1504 995 Z"/><path class="f2" d="M1456 995 L1227 1224 L1275 1224 L1504 995 Z" /></g><g class="o"><path transform="translate(2,4)" class="S sfh" d="M1988 1297 L2156 1129 L2188 1129 L2020 1297 Z"/><path class="fh2" d="M1988 1297 L2156 1129 L2188 1129 L2020 1297 Z" /></g><g class="o"><path transform="translate(2,4)" class="S sfh" d="M981 1357 L375 751 L393 751 L999 1357 Z"/><path class="fh4" d="M981 1357 L375 751 L393 751 L999 1357 Z" /></g><g class="o"><path transform="translate(7,14)" class="S sfh" d="M1972 1537 L1833 1398 L1857 1398 L1996 1537 Z"/><path class="fh1" d="M1972 1537 L1833 1398 L1857 1398 L1996 1537 Z" /></g><g class="o"><path transform="translate(6,12)" class="S sfv" d="M1892 937 L1991 1036 L1991 1148 L1892 1049 Z"/><path class="fv6" d="M1892 937 L1991 1036 L1991 1148 L1892 1049 Z" /></g><g class="o"><path transform="translate(7,14)" class="S sfv" d="M995 1705 L1412 1288 L1412 1300 L995 1717 Z"/><path class="fv1" d="M995 1705 L1412 1288 L1412 1300 L995 1717 Z" /></g><g class="o"><path transform="translate(6,12)" class="S ssh" d="M1233 1714 L1776 1171 L1832 1171 L1289 1714 Z"/><path class="sh5" d="M1233 1714 L1776 1171 L1832 1171 L1289 1714 Z" /></g><g class="o"><path transform="translate(2,4)" class="S ssv" d="M1647 1241 L906 500 L906 596 L1647 1337 Z"/><path class="sv2" d="M1647 1241 L906 500 L906 596 L1647 1337 Z" /></g><g class="o"><path transform="translate(8,16)" class="S sfh" d="M1705 1159 L1900 1354 L1936 1354 L1741 1159 Z"/><path class="fh4" d="M1705 1159 L1900 1354 L1936 1354 L1741 1159 Z" /></g><g class="o"><path transform="translate(6,12)" class="S ssh" d="M1837 1410 L1760 1487 L1792 1487 L1869 1410 Z"/><path class="sh4" d="M1837 1410 L1760 1487 L1792 1487 L1869 1410 Z" /></g><g class="o"><path transform="translate(3,6)" class="S sf" d="M1828 1551 L1983 1706 L2111 1706 L1956 1551 Z"/><path class="f3" d="M1828 1551 L1983 1706 L2111 1706 L1956 1551 Z" /></g><g class="o"><path transform="translate(9,18)" class="S sfv" d="M1574 1879 L1755 2060 L1755 2172 L1574 1991 Z"/><path class="fv2" d="M1574 1879 L1755 2060 L1755 2172 L1574 1991 Z" /></g><g class="o"><path transform="translate(9,18)" class="S sfv" d="M1220 1293 L992 1521 L992 1549 L1220 1321 Z"/><path class="fv6" d="M1220 1293 L992 1521 L992 1549 L1220 1321 Z" /></g><g class="o"><path transform="translate(4,8)" class="S sfh" d="M1206 1687 L1309 1790 L1319 1790 L1216 1687 Z"/><path class="fh2" d="M1206 1687 L1309 1790 L1319 1790 L1216 1687 Z" /></g><g class="o"><path transform="translate(9,18)" class="S sfh" d="M1330 1750 L1227 1853 L1253 1853 L1356 1750 Z"/><path class="fh3" d="M1330 1750 L1227 1853 L1253 1853 L1356 1750 Z" /></g><g class="o"><path transform="translate(7,14)" class="S ss" d="M1535 1945 L2141 2551 L2179 2551 L1573 1945 Z"/><path class="s2" d="M1535 1945 L2141 2551 L2179 2551 L1573 1945 Z" /></g><g class="o"><path transform="translate(2,4)" class="S sfv" d="M1769 1354 L1244 829 L1244 885 L1769 1410 Z"/><path class="fv2" d="M1769 1354 L1244 829 L1244 885 L1769 1410 Z" /></g><g class="o"><path transform="translate(8,16)" class="S sfv" d="M1179 1201 L804 826 L804 856 L1179 1231 Z"/><path class="fv2" d="M1179 1201 L804 826 L804 856 L1179 1231 Z" /></g><g class="o"><path transform="translate(5,10)" class="S sfv" d="M2047 1223 L1537 713 L1537 833 L2047 1343 Z"/><path class="fv2" d="M2047 1223 L1537 713 L1537 833 L2047 1343 Z" /></g><g class="o"><path transform="translate(7,14)" class="S sfv" d="M1389 973 L996 1366 L996 1380 L1389 987 Z"/><path class="fv5" d="M1389 973 L996 1366 L996 1380 L1389 987 Z" /></g><g class="o"><path transform="translate(2,4)" class="S ss" d="M1848 1806 L2005 1649 L2017 1649 L1860 1806 Z"/><path class="s1" d="M1848 1806 L2005 1649 L2017 1649 L1860 1806 Z" /></g><g class="o"><path transform="translate(3,6)" class="S sfh" d="M987 992 L1686 1691 L1774 1691 L1075 992 Z"/><path class="fh5" d="M987 992 L1686 1691 L1774 1691 L1075 992 Z" /></g><g class="o"><path transform="translate(3,6)" class="S sfv" d="M1811 1529 L2207 1925 L2207 1939 L1811 1543 Z"/><path class="fv7" d="M1811 1529 L2207 1925 L2207 1939 L1811 1543 Z" /></g><g class="o"><path transform="translate(4,8)" class="S sfv" d="M1272 1280 L744 752 L744 782 L1272 1310 Z"/><path class="fv1" d="M1272 1280 L744 752 L744 782 L1272 1310 Z" /></g><g class="o"><path transform="translate(3,6)" class="S sfh" d="M1397 1389 L1253 1533 L1271 1533 L1415 1389 Z"/><path class="fh7" d="M1397 1389 L1253 1533 L1271 1533 L1415 1389 Z" /></g><g class="o"><path transform="translate(7,14)" class="S sf" d="M1334 1359 L1091 1602 L1091 1698 L1334 1455 Z"/><path class="f5" d="M1334 1359 L1091 1602 L1091 1698 L1334 1455 Z" /></g><g class="o"><path transform="translate(6,12)" class="S sfv" d="M1126 1856 L1044 1938 L1044 1962 L1126 1880 Z"/><path class="fv6" d="M1126 1856 L1044 1938 L1044 1962 L1126 1880 Z" /></g><g class="o"><path transform="translate(9,18)" class="S sfv" d="M1539 1064 L1194 719 L1194 737 L1539 1082 Z"/><path class="fv5" d="M1539 1064 L1194 719 L1194 737 L1539 1082 Z" /></g><g class="o"><path transform="translate(7,14)" class="S sfv" d="M1407 1698 L1199 1906 L1199 1926 L1407 1718 Z"/><path class="fv4" d="M1407 1698 L1199 1906 L1199 1926 L1407 1718 Z" /></g><g class="o"><path transform="translate(7,14)" class="S sfv" d="M1002 1988 L1101 1889 L1101 1919 L1002 2018 Z"/><path class="fv7" d="M1002 1988 L1101 1889 L1101 1919 L1002 2018 Z" /></g><g class="o"><path transform="translate(9,18)" class="S ss" d="M1429 1937 L1370 1996 L1396 1996 L1455 1937 Z"/><path class="s1" d="M1429 1937 L1370 1996 L1396 1996 L1455 1937 Z" /></g><g class="o"><path transform="translate(8,16)" class="S ssh" d="M1191 1779 L1380 1590 L1508 1590 L1319 1779 Z"/><path class="sh5" d="M1191 1779 L1380 1590 L1508 1590 L1319 1779 Z" /></g><g class="o"><path transform="translate(4,8)" class="S ss" d="M904 1391 L718 1205 L846 1205 L1032 1391 Z"/><path class="s4" d="M904 1391 L718 1205 L846 1205 L1032 1391 Z" /></g><g class="o"><path transform="translate(8,16)" class="S sfv" d="M1462 1227 L1702 987 L1702 1005 L1462 1245 Z"/><path class="fv1" d="M1462 1227 L1702 987 L1702 1005 L1462 1245 Z" /></g><g class="o"><path transform="translate(4,8)" class="S sfh" d="M1303 1392 L925 1014 L1061 1014 L1439 1392 Z"/><path class="fh2" d="M1303 1392 L925 1014 L1061 1014 L1439 1392 Z" /></g><g class="o"><path transform="translate(9,18)" class="S sfh" d="M1729 969 L2065 1305 L2075 1305 L1739 969 Z"/><path class="fh5" d="M1729 969 L2065 1305 L2075 1305 L1739 969 Z" /></g><g class="o"><path transform="translate(2,4)" class="S sfh" d="M1326 1853 L1151 1678 L1175 1678 L1350 1853 Z"/><path class="fh1" d="M1326 1853 L1151 1678 L1175 1678 L1350 1853 Z" /></g><g class="o"><path transform="translate(5,10)" class="S sf" d="M1511 1169 L1675 1333 L1675 1405 L1511 1241 Z"/><path class="f4" d="M1511 1169 L1675 1333 L1675 1405 L1511 1241 Z" /></g><g class="o"><path transform="translate(3,6)" class="S sfv" d="M1231 1464 L973 1722 L973 1730 L1231 1472 Z"/><path class="fv7" d="M1231 1464 L973 1722 L973 1730 L1231 1472 Z" /></g><g class="o"><path transform="translate(8,16)" class="S sfh" d="M1457 1889 L1637 2069 L1693 2069 L1513 1889 Z"/><path class="fh3" d="M1457 1889 L1637 2069 L1693 2069 L1513 1889 Z" /></g><g class="o"><path transform="translate(6,12)" class="S sf" d="M1680 1658 L1893 1445 L1893 1597 L1680 1810 Z"/><path class="f4" d="M1680 1658 L1893 1445 L1893 1597 L1680 1810 Z" /></g><g class="o"><path transform="translate(7,14)" class="S sfv" d="M1041 1478 L594 1925 L594 1949 L1041 1502 Z"/><path class="fv7" d="M1041 1478 L594 1925 L594 1949 L1041 1502 Z" /></g><g class="o"><path transform="translate(5,10)" class="S sfh" d="M1333 1029 L1503 1199 L1523 1199 L1353 1029 Z"/><path class="fh2" d="M1333 1029 L1503 1199 L1523 1199 L1353 1029 Z" /></g><g class="o"><path transform="translate(3,6)" class="S ss" d="M1455 1476 L1281 1650 L1281 1754 L1455 1580 Z"/><path class="s4" d="M1455 1476 L1281 1650 L1281 1754 L1455 1580 Z" /></g><g class="o"><path transform="translate(5,10)" class="S sf" d="M1095 1149 L819 1425 L899 1425 L1175 1149 Z"/><path class="f6" d="M1095 1149 L819 1425 L899 1425 L1175 1149 Z" /></g><g class="o"><path transform="translate(7,14)" class="S ssv" d="M1521 1670 L1092 2099 L1092 2135 L1521 1706 Z"/><path class="sv5" d="M1521 1670 L1092 2099 L1092 2135 L1521 1706 Z" /></g><g class="o"><path transform="translate(2,4)" class="S sfh" d="M1554 1664 L852 2366 L972 2366 L1674 1664 Z"/><path class="fh4" d="M1554 1664 L852 2366 L972 2366 L1674 1664 Z" /></g><g class="o"><path transform="translate(2,4)" class="S sf" d="M1271 1700 L1026 1455 L1048 1455 L1293 1700 Z"/><path class="f7" d="M1271 1700 L1026 1455 L1048 1455 L1293 1700 Z" /></g><g class="o"><path transform="translate(7,14)" class="S sfv" d="M1732 1145 L1315 728 L1315 808 L1732 1225 Z"/><path class="fv7" d="M1732 1145 L1315 728 L1315 808 L1732 1225 Z" /></g><g class="o"><path transform="translate(7,14)" class="S sf" d="M1798 1589 L1726 1661 L1760 1661 L1832 1589 Z"/><path class="f3" d="M1798 1589 L1726 1661 L1760 1661 L1832 1589 Z" /></g><g class="o"><path transform="translate(9,18)" class="S sfh" d="M1900 1867 L2488 2455 L2624 2455 L2036 1867 Z"/><path class="fh3" d="M1900 1867 L2488 2455 L2624 2455 L2036 1867 Z" /></g><g class="o"><path transform="translate(5,10)" class="S sfv" d="M1615 1095 L2161 549 L2161 559 L1615 1105 Z"/><path class="fv3" d="M1615 1095 L2161 549 L2161 559 L1615 1105 Z" /></g><g class="o"><path transform="translate(6,12)" class="S sfh" d="M1553 1431 L1432 1552 L1576 1552 L1697 1431 Z"/><path class="fh6" d="M1553 1431 L1432 1552 L1576 1552 L1697 1431 Z" /></g><g class="o"><path transform="translate(2,4)" class="S sfh" d="M1301 1432 L1037 1168 L1067 1168 L1331 1432 Z"/><path class="fh2" d="M1301 1432 L1037 1168 L1067 1168 L1331 1432 Z" /></g><g class="o"><path transform="translate(2,4)" class="S sfh" d="M1086 1442 L657 1871 L695 1871 L1124 1442 Z"/><path class="fh5" d="M1086 1442 L657 1871 L695 1871 L1124 1442 Z" /></g><g class="o"><path transform="translate(8,16)" class="S sfh" d="M1881 1817 L1755 1691 L1783 1691 L1909 1817 Z"/><path class="fh5" d="M1881 1817 L1755 1691 L1783 1691 L1909 1817 Z" /></g><g class="o"><path transform="translate(7,14)" class="S sfv" d="M1442 1182 L1674 950 L1674 966 L1442 1198 Z"/><path class="fv3" d="M1442 1182 L1674 950 L1674 966 L1442 1198 Z" /></g><g class="o"><path transform="translate(6,12)" class="S sfh" d="M973 1486 L1687 2200 L1721 2200 L1007 1486 Z"/><path class="fh3" d="M973 1486 L1687 2200 L1721 2200 L1007 1486 Z" /></g><g class="o"><path transform="translate(9,18)" class="S sf" d="M1610 1046 L2117 539 L2127 539 L1620 1046 Z"/><path class="f7" d="M1610 1046 L2117 539 L2127 539 L1620 1046 Z" /></g><g class="o"><path transform="translate(2,4)" class="S sf" d="M1868 1548 L2558 858 L2558 874 L1868 1564 Z"/><path class="f6" d="M1868 1548 L2558 858 L2558 874 L1868 1564 Z" /></g><g class="o"><path transform="translate(9,18)" class="S sf" d="M1795 1448 L2176 1067 L2232 1067 L1851 1448 Z"/><path class="f4" d="M1795 1448 L2176 1067 L2232 1067 L1851 1448 Z" /></g><g class="o"><path transform="translate(2,4)" class="S sf" d="M1576 1867 L1123 1414 L1123 1422 L1576 1875 Z"/><path class="f4" d="M1576 1867 L1123 1414 L1123 1422 L1576 1875 Z" /></g><g class="o"><path transform="translate(6,12)" class="S ssh" d="M1291 990 L1409 872 L1497 872 L1379 990 Z"/><path class="sh2" d="M1291 990 L1409 872 L1497 872 L1379 990 Z" /></g><g class="o"><path transform="translate(3,6)" class="S sf" d="M2002 1645 L1726 1921 L1760 1921 L2036 1645 Z"/><path class="f7" d="M2002 1645 L1726 1921 L1760 1921 L2036 1645 Z" /></g><g class="o"><path transform="translate(7,14)" class="S sfv" d="M1911 1898 L2121 2108 L2121 2146 L1911 1936 Z"/><path class="fv7" d="M1911 1898 L2121 2108 L2121 2146 L1911 1936 Z" /></g><g class="o"><path transform="translate(6,12)" class="S sfv" d="M1476 1869 L1250 1643 L1250 1675 L1476 1901 Z"/><path class="fv5" d="M1476 1869 L1250 1643 L1250 1675 L1476 1901 Z" /></g><g class="o"><path transform="translate(6,12)" class="S sf" d="M1521 1817 L1334 1630 L1344 1630 L1531 1817 Z"/><path class="f6" d="M1521 1817 L1334 1630 L1344 1630 L1531 1817 Z" /></g><g class="o"><path transform="translate(9,18)" class="S sfv" d="M1920 1777 L2015 1872 L2015 1984 L1920 1889 Z"/><path class="fv4" d="M1920 1777 L2015 1872 L2015 1984 L1920 1889 Z" /></g><g class="o"><path transform="translate(4,8)" class="S sfh" d="M1869 1742 L2133 2006 L2245 2006 L1981 1742 Z"/><path class="fh2" d="M1869 1742 L2133 2006 L2245 2006 L1981 1742 Z" /></g><g class="o"><path transform="translate(6,12)" class="S sfv" d="M1770 981 L2187 1398 L2187 1414 L1770 997 Z"/><path class="fv2" d="M1770 981 L2187 1398 L2187 1414 L1770 997 Z" /></g><g class="o"><path transform="translate(5,10)" class="S sfv" d="M2032 1976 L1867 1811 L1867 1843 L2032 2008 Z"/><path class="fv3" d="M2032 1976 L1867 1811 L1867 1843 L2032 2008 Z" /></g><g class="o"><path transform="translate(4,8)" class="S ssv" d="M1480 1599 L1579 1500 L1579 1530 L1480 1629 Z"/><path class="sv7" d="M1480 1599 L1579 1500 L1579 1530 L1480 1629 Z" /></g><g class="o"><path transform="translate(3,6)" class="S sfh" d="M1197 1936 L1075 1814 L1111 1814 L1233 1936 Z"/><path class="fh3" d="M1197 1936 L1075 1814 L1111 1814 L1233 1936 Z" /></g><g class="o"><path transform="translate(3,6)" class="S sf" d="M1183 1080 L775 1488 L787 1488 L1195 1080 Z"/><path class="f3" d="M1183 1080 L775 1488 L787 1488 L1195 1080 Z" /></g><g class="o"><path transform="translate(2,4)" class="S ssh" d="M1579 2037 L1767 2225 L1803 2225 L1615 2037 Z"/><path class="sh4" d="M1579 2037 L1767 2225 L1803 2225 L1615 2037 Z" /></g><g class="o"><path transform="translate(8,16)" class="S sfh" d="M1928 1828 L1511 1411 L1523 1411 L1940 1828 Z"/><path class="fh7" d="M1928 1828 L1511 1411 L1523 1411 L1940 1828 Z" /></g><g class="o"><path transform="translate(8,16)" class="S sfh" d="M1946 1419 L2144 1617 L2240 1617 L2042 1419 Z"/><path class="fh6" d="M1946 1419 L2144 1617 L2240 1617 L2042 1419 Z" /></g><g class="o"><path transform="translate(5,10)" class="S sfv" d="M1995 1766 L1749 2012 L1749 2020 L1995 1774 Z"/><path class="fv6" d="M1995 1766 L1749 2012 L1749 2020 L1995 1774 Z" /></g></g><use href="#slashes" transform-origin="1500 1500" transform="rotate(180) scale(2)"/></g><polyline points="1500,1010 1990,1500 1500,1990 1010,1500 1500,1010 1990,1500" stroke-width="20" class="o fs" /><use href="#slashes" transform-origin="1500 1500" transform="scale(.6)"/><use href="#slashes" transform-origin="1500 1500" transform="rotate(180) scale(.6)"/></svg>