<svg xmlns="http://www.w3.org/2000/svg" viewBox="750 750 1500 1500"><style>/*<![CDATA[*/svg{background:rgb(117,232,231);max-width:100vw;max-height:100vh}path{stroke-width:4}.o{opacity:.75}.S{opacity:.4}.sf{stroke:none;fill:black}.sfh{stroke:none;fill:url(#hs)}.sfv{stroke:none;fill:url(#vs)}.ss{stroke:black;fill:none}.ssh{stroke:url(#hs);fill:none}.ssv{stroke:url(#vs);fill:none}.s1{fill:none;stroke:rgb(100,55,159)}.f1{stroke:none;fill:rgb(100,55,159)}.sh1{fill:none;stroke:url(#h1)}.fh1{stroke:none;fill:url(#h1)}.sv1{fill:none;stroke:url(#v1)}.fv1{stroke:none;fill:url(#v1)}.s2{fill:none;stroke:rgb(152,84,203)}.f2{stroke:none;fill:rgb(152,84,203)}.sh2{fill:none;stroke:url(#h2)}.fh2{stroke:none;fill:url(#h2)}.sv2{fill:none;stroke:url(#v2)}.fv2{stroke:none;fill:url(#v2)}.s3{fill:none;stroke:rgb(221,172,245)}.f3{stroke:none;fill:rgb(221,172,245)}.sh3{fill:none;stroke:url(#h3)}.fh3{stroke:none;fill:url(#h3)}.sv3{fill:none;stroke:url(#v3)}.fv3{stroke:none;fill:url(#v3)}.s4{fill:none;stroke:rgb(39,16,78)}.f4{stroke:none;fill:rgb(39,16,78)}.sh4{fill:none;stroke:url(#h4)}.fh4{stroke:none;fill:url(#h4)}.sv4{fill:none;stroke:url(#v4)}.fv4{stroke:none;fill:url(#v4)}.s5{fill:none;stroke:rgb(34,34,34)}.f5{stroke:none;fill:rgb(34,34,34)}.sh5{fill:none;stroke:url(#h5)}.fh5{stroke:none;fill:url(#h5)}.sv5{fill:none;stroke:url(#v5)}.fv5{stroke:none;fill:url(#v5)}.s6{fill:none;stroke:rgb(255,255,255)}.f6{stroke:none;fill:rgb(255,255,255)}.sh6{fill:none;stroke:url(#h6)}.fh6{stroke:none;fill:url(#h6)}.sv6{fill:none;stroke:url(#v6)}.fv6{stroke:none;fill:url(#v6)}.s7{fill:none;stroke:rgb(255,0,0)}.f7{stroke:none;fill:rgb(255,0,0)}.sh7{fill:none;stroke:url(#h7)}.fh7{stroke:none;fill:url(#h7)}.sv7{fill:none;stroke:url(#v7)}.fv7{stroke:none;fill:url(#v7)}/*]]>*/</style><defs><linearGradient gradientTransform="rotate(90)" id="hs"><stop offset="20%" stop-color="#000" /><stop offset="95%" stop-color="rgba(0, 0, 0, 0)" /></linearGradient><linearGradient id="vs"><stop offset="20%" stop-color="#000" /><stop offset="95%" stop-color="rgba(0, 0, 0, 0)" /></linearGradient><linearGradient gradientTransform="rotate(90)" id="h1"><stop offset="20%" stop-color="rgba(100,55,159,1)" /><stop offset="95%" stop-color="rgba(100,55,159,0)" /></linearGradient><linearGradient id="v1"><stop offset="20%" stop-color="rgba(100,55,159,1)" /><stop offset="95%" stop-color="rgba(100,55,159,0)" /></linearGradient><linearGradient gradientTransform="rotate(90)" id="h2"><stop offset="20%" stop-color="rgba(152,84,203,1)" /><stop offset="95%" stop-color="rgba(152,84,203,0)" /></linearGradient><linearGradient id="v2"><stop offset="20%" stop-color="rgba(152,84,203,1)" /><stop offset="95%" stop-color="rgba(152,84,203,0)" /></linearGradient><linearGradient gradientTransform="rotate(90)" id="h3"><stop offset="20%" stop-color="rgba(221,172,245,1)" /><stop offset="95%" stop-color="rgba(221,172,245,0)" /></linearGradient><linearGradient id="v3"><stop offset="20%" stop-color="rgba(221,172,245,1)" /><stop offset="95%" stop-color="rgba(221,172,245,0)" /></linearGradient><linearGradient gradientTransform="rotate(90)" id="h4"><stop offset="20%" stop-color="rgba(39,16,78,1)" /><stop offset="95%" stop-color="rgba(39,16,78,0)" /></linearGradient><linearGradient id="v4"><stop offset="20%" stop-color="rgba(39,16,78,1)" /><stop offset="95%" stop-color="rgba(39,16,78,0)" /></linearGradient><linearGradient gradientTransform="rotate(90)" id="h5"><stop offset="20%" stop-color="rgba(34,34,34,1)" /><stop offset="95%" stop-color="rgba(34,34,34,0)" /></linearGradient><linearGradient id="v5"><stop offset="20%" stop-color="rgba(34,34,34,1)" /><stop offset="95%" stop-color="rgba(34,34,34,0)" /></linearGradient><linearGradient gradientTransform="rotate(90)" id="h6"><stop offset="20%" stop-color="rgba(255,255,255,1)" /><stop offset="95%" stop-color="rgba(255,255,255,0)" /></linearGradient><linearGradient id="v6"><stop offset="20%" stop-color="rgba(255,255,255,1)" /><stop offset="95%" stop-color="rgba(255,255,255,0)" /></linearGradient><linearGradient gradientTransform="rotate(90)" id="h7"><stop offset="20%" stop-color="rgba(255,0,0,1)" /><stop offset="95%" stop-color="rgba(255,0,0,0)" /></linearGradient><linearGradient id="v7"><stop offset="20%" stop-color="rgba(255,0,0,1)" /><stop offset="95%" stop-color="rgba(255,0,0,0)" /></linearGradient></defs><g transform-origin="1500 1500" transform="scale(2)" opacity=".6"><g id="slashes"><g class="o"><path transform="translate(7,14)" class="S sfv" d="M1308 1975 L1422 1861 L1422 1889 L1308 2003 Z"/><path class="fv3" d="M1308 1975 L1422 1861 L1422 1889 L1308 2003 Z" /></g><g class="o"><path transform="translate(6,12)" class="S ssv" d="M1886 1323 L1833 1270 L1833 1302 L1886 1355 Z"/><path class="sv3" d="M1886 1323 L1833 1270 L1833 1302 L1886 1355 Z" /></g><g class="o"><path transform="translate(8,16)" class="S sfv" d="M1345 1475 L1155 1665 L1155 1683 L1345 1493 Z"/><path class="fv5" d="M1345 1475 L1155 1665 L1155 1683 L1345 1493 Z" /></g><g class="o"><path transform="translate(2,4)" class="S sf" d="M1296 1764 L1178 1882 L1214 1882 L1332 1764 Z"/><path class="f3" d="M1296 1764 L1178 1882 L1214 1882 L1332 1764 Z" /></g><g class="o"><path transform="translate(2,4)" class="S sf" d="M1349 1284 L1137 1072 L1137 1110 L1349 1322 Z"/><path class="f3" d="M1349 1284 L1137 1072 L1137 1110 L1349 1322 Z" /></g><g class="o"><path transform="translate(2,4)" class="S sf" d="M1253 1186 L1404 1337 L1404 1357 L1253 1206 Z"/><path class="f6" d="M1253 1186 L1404 1337 L1404 1357 L1253 1206 Z" /></g><g class="o"><path transform="translate(5,10)" class="S sfv" d="M1996 1931 L1303 2624 L1303 2652 L1996 1959 Z"/><path class="fv6" d="M1996 1931 L1303 2624 L1303 2652 L1996 1959 Z" /></g><g class="o"><path transform="translate(4,8)" class="S ss" d="M1412 1676 L728 2360 L742 2360 L1426 1676 Z"/><path class="s5" d="M1412 1676 L728 2360 L742 2360 L1426 1676 Z" /></g><g class="o"><path transform="translate(8,16)" class="S sfh" d="M1211 2024 L1385 2198 L1481 2198 L1307 2024 Z"/><path class="fh2" d="M1211 2024 L1385 2198 L1481 2198 L1307 2024 Z" /></g><g class="o"><path transform="translate(9,18)" class="S sfh" d="M1762 1557 L1610 1709 L1640 1709 L1792 1557 Z"/><path class="fh2" d="M1762 1557 L1610 1709 L1640 1709 L1792 1557 Z" /></g><g class="o"><path transform="translate(2,4)" class="S sfv" d="M1714 1422 L1499 1207 L1499 1221 L1714 1436 Z"/><path class="fv4" d="M1714 1422 L1499 1207 L1499 1221 L1714 1436 Z" /></g><g class="o"><path transform="translate(2,4)" class="S sf" d="M1777 951 L1532 706 L1532 716 L1777 961 Z"/><path class="f1" d="M1777 951 L1532 706 L1532 716 L1777 961 Z" /></g><g class="o"><path transform="translate(3,6)" class="S ssh" d="M1962 2045 L2020 2103 L2038 2103 L1980 2045 Z"/><path class="sh7" d="M1962 2045 L2020 2103 L2038 2103 L1980 2045 Z" /></g><g class="o"><path transform="translate(2,4)" class="S sfv" d="M1153 1421 L1317 1585 L1317 1599 L1153 1435 Z"/><path class="fv6" d="M1153 1421 L1317 1585 L1317 1599 L1153 1435 Z" /></g><g class="o"><path transform="translate(8,16)" class="S sfh" d="M1687 1138 L2272 553 L2282 553 L1697 1138 Z"/><path class="fh2" d="M1687 1138 L2272 553 L2282 553 L1697 1138 Z" /></g><g class="o"><path transform="translate(4,8)" class="S sfh" d="M1970 1762 L2089 1643 L2113 1643 L1994 1762 Z"/><path class="fh7" d="M1970 1762 L2089 1643 L2113 1643 L1994 1762 Z" /></g><g class="o"><path transform="translate(7,14)" class="S ssh" d="M1442 1329 L1313 1458 L1323 1458 L1452 1329 Z"/><path class="sh2" d="M1442 1329 L1313 1458 L1323 1458 L1452 1329 Z" /></g><g class="o"><path transform="translate(8,16)" class="S sfv" d="M1837 1302 L1664 1129 L1664 1201 L1837 1374 Z"/><path class="fv5" d="M1837 1302 L1664 1129 L1664 1201 L1837 1374 Z" /></g><g class="o"><path transform="translate(5,10)" class="S sfv" d="M1434 1245 L1271 1408 L1271 1436 L1434 1273 Z"/><path class="fv7" d="M1434 1245 L1271 1408 L1271 1436 L1434 1273 Z" /></g><g class="o"><path transform="translate(7,14)" class="S sfh" d="M1164 1576 L1039 1451 L1059 1451 L1184 1576 Z"/><path class="fh6" d="M1164 1576 L1039 1451 L1059 1451 L1184 1576 Z" /></g><g class="o"><path transform="translate(7,14)" class="S ss" d="M1099 1859 L1288 1670 L1288 1696 L1099 1885 Z"/><path class="s6" d="M1099 1859 L1288 1670 L1288 1696 L1099 1885 Z" /></g><g class="o"><path transform="translate(9,18)" class="S sfv" d="M1153 1662 L1525 2034 L1525 2130 L1153 1758 Z"/><path class="fv7" d="M1153 1662 L1525 2034 L1525 2130 L1153 1758 Z" /></g><g class="o"><path transform="translate(9,18)" class="S sfh" d="M1943 1807 L1824 1926 L1832 1926 L1951 1807 Z"/><path class="fh7" d="M1943 1807 L1824 1926 L1832 1926 L1951 1807 Z" /></g><g class="o"><path transform="translate(6,12)" class="S sfv" d="M1359 994 L1501 852 L1501 890 L1359 1032 Z"/><path class="fv5" d="M1359 994 L1501 852 L1501 890 L1359 1032 Z" /></g><g class="o"><path transform="translate(6,12)" class="S sfh" d="M1263 1241 L1061 1039 L1069 1039 L1271 1241 Z"/><path class="fh6" d="M1263 1241 L1061 1039 L1069 1039 L1271 1241 Z" /></g><g class="o"><path transform="translate(3,6)" class="S sfh" d="M1624 2023 L1383 2264 L1463 2264 L1704 2023 Z"/><path class="fh3" d="M1624 2023 L1383 2264 L1463 2264 L1704 2023 Z" /></g><g class="o"><path transform="translate(2,4)" class="S sf" d="M2000 1063 L1875 1188 L1875 1214 L2000 1089 Z"/><path class="f2" d="M2000 1063 L1875 1188 L1875 1214 L2000 1089 Z" /></g><g class="o"><path transform="translate(5,10)" class="S sfh" d="M1599 995 L1819 775 L1839 775 L1619 995 Z"/><path class="fh4" d="M1599 995 L1819 775 L1839 775 L1619 995 Z" /></g><g class="o"><path transform="translate(2,4)" class="S sfh" d="M1219 1217 L1284 1282 L1298 1282 L1233 1217 Z"/><path class="fh5" d="M1219 1217 L1284 1282 L1298 1282 L1233 1217 Z" /></g><g class="o"><path transform="translate(5,10)" class="S ssh" d="M1977 1063 L1491 577 L1517 577 L2003 1063 Z"/><path class="sh4" d="M1977 1063 L1491 577 L1517 577 L2003 1063 Z" /></g><g class="o"><path transform="translate(4,8)" class="S sfv" d="M1697 1188 L1139 1746 L1139 1782 L1697 1224 Z"/><path class="fv7" d="M1697 1188 L1139 1746 L1139 1782 L1697 1224 Z" /></g><g class="o"><path transform="translate(8,16)" class="S sfh" d="M1555 2041 L1775 2261 L1789 2261 L1569 2041 Z"/><path class="fh6" d="M1555 2041 L1775 2261 L1789 2261 L1569 2041 Z" /></g><g class="o"><path transform="translate(4,8)" class="S sfh" d="M1354 1852 L1244 1742 L1332 1742 L1442 1852 Z"/><path class="fh4" d="M1354 1852 L1244 1742 L1332 1742 L1442 1852 Z" /></g><g class="o"><path transform="translate(9,18)" class="S sf" d="M1961 1373 L2046 1288 L2064 1288 L1979 1373 Z"/><path class="f2" d="M1961 1373 L2046 1288 L2064 1288 L1979 1373 Z" /></g><g class="o"><path transform="translate(6,12)" class="S sfh" d="M1916 1317 L1785 1186 L1813 1186 L1944 1317 Z"/><path class="fh4" d="M1916 1317 L1785 1186 L1813 1186 L1944 1317 Z" /></g><g class="o"><path transform="translate(4,8)" class="S sfv" d="M1682 1079 L1403 1358 L1403 1376 L1682 1097 Z"/><path class="fv3" d="M1682 1079 L1403 1358 L1403 1376 L1682 1097 Z" /></g><g class="o"><path transform="translate(4,8)" class="S sfv" d="M1285 1595 L1501 1379 L1501 1403 L1285 1619 Z"/><path class="fv2" d="M1285 1595 L1501 1379 L1501 1403 L1285 1619 Z" /></g><g class="o"><path transform="translate(9,18)" class="S sfv" d="M2047 1569 L1866 1750 L1866 1778 L2047 1597 Z"/><path class="fv2" d="M2047 1569 L1866 1750 L1866 1778 L2047 1597 Z" /></g><g class="o"><path transform="translate(4,8)" class="S ssv" d="M1124 1014 L1334 804 L1334 836 L1124 1046 Z"/><path class="sv2" d="M1124 1014 L1334 804 L1334 836 L1124 1046 Z" /></g><g class="o"><path transform="translate(2,4)" class="S sfh" d="M1565 1218 L1478 1131 L1506 1131 L1593 1218 Z"/><path class="fh2" d="M1565 1218 L1478 1131 L1506 1131 L1593 1218 Z" /></g><g class="o"><path transform="translate(3,6)" class="S sf" d="M956 1615 L1634 2293 L1648 2293 L970 1615 Z"/><path class="f5" d="M956 1615 L1634 2293 L1648 2293 L970 1615 Z" /></g><g class="o"><path transform="translate(9,18)" class="S sfh" d="M1694 1997 L1890 2193 L2034 2193 L1838 1997 Z"/><path class="fh3" d="M1694 1997 L1890 2193 L2034 2193 L1838 1997 Z" /></g><g class="o"><path transform="translate(2,4)" class="S sfv" d="M1462 1117 L1771 1426 L1771 1444 L1462 1135 Z"/><path class="fv7" d="M1462 1117 L1771 1426 L1771 1444 L1462 1135 Z" /></g><g class="o"><path transform="translate(7,14)" class="S sfh" d="M1914 1160 L2069 1005 L2107 1005 L1952 1160 Z"/><path class="fh2" d="M1914 1160 L2069 1005 L2107 1005 L1952 1160 Z" /></g><g class="o"><path transform="translate(3,6)" class="S sfh" d="M1875 1422 L1776 1521 L1794 1521 L1893 1422 Z"/><path class="fh6" d="M1875 1422 L1776 1521 L1794 1521 L1893 1422 Z" /></g><g class="o"><path transform="translate(5,10)" class="S sfv" d="M1615 1556 L1404 1345 L1404 1373 L1615 1584 Z"/><path class="fv2" d="M1615 1556 L1404 1345 L1404 1373 L1615 1584 Z" /></g><g class="o"><path transform="translate(4,8)" class="S sfh" d="M1682 1564 L1898 1348 L1930 1348 L1714 1564 Z"/><path class="fh7" d="M1682 1564 L1898 1348 L1930 1348 L1714 1564 Z" /></g><g class="o"><path transform="translate(8,16)" class="S sfv" d="M1894 1415 L2055 1254 L2055 1282 L1894 1443 Z"/><path class="fv4" d="M1894 1415 L2055 1254 L2055 1282 L1894 1443 Z" /></g><g class="o"><path transform="translate(4,8)" class="S sf" d="M1350 1721 L1510 1881 L1510 1895 L1350 1735 Z"/><path class="f3" d="M1350 1721 L1510 1881 L1510 1895 L1350 1735 Z" /></g><g class="o"><path transform="translate(5,10)" class="S sfv" d="M1901 1404 L1663 1642 L1663 1666 L1901 1428 Z"/><path class="fv4" d="M1901 1404 L1663 1642 L1663 1666 L1901 1428 Z" /></g><g class="o"><path transform="translate(2,4)" class="S sfv" d="M1815 1818 L1958 1961 L1958 1987 L1815 1844 Z"/><path class="fv5" d="M1815 1818 L1958 1961 L1958 1987 L1815 1844 Z" /></g><g class="o"><path transform="translate(5,10)" class="S sfh" d="M1758 1311 L1044 2025 L1080 2025 L1794 1311 Z"/><path class="fh2" d="M1758 1311 L1044 2025 L1080 2025 L1794 1311 Z" /></g><g class="o"><path transform="translate(9,18)" class="S sfv" d="M1418 1967 L1474 2023 L1474 2051 L1418 1995 Z"/><path class="fv6" d="M1418 1967 L1474 2023 L1474 2051 L1418 1995 Z" /></g><g class="o"><path transform="translate(2,4)" class="S sfv" d="M1244 1943 L1441 2140 L1441 2148 L1244 1951 Z"/><path class="fv4" d="M1244 1943 L1441 2140 L1441 2148 L1244 1951 Z" /></g><g class="o"><path transform="translate(4,8)" class="S ss" d="M1918 1092 L1786 960 L1798 960 L1930 1092 Z"/><path class="s4" d="M1918 1092 L1786 960 L1798 960 L1930 1092 Z" /></g><g class="o"><path transform="translate(6,12)" class="S sfv" d="M1190 1038 L1338 890 L1338 914 L1190 1062 Z"/><path class="fv4" d="M1190 1038 L1338 890 L1338 914 L1190 1062 Z" /></g><g class="o"><path transform="translate(4,8)" class="S sf" d="M1920 1181 L1698 1403 L1706 1403 L1928 1181 Z"/><path class="f1" d="M1920 1181 L1698 1403 L1706 1403 L1928 1181 Z" /></g><g class="o"><path transform="translate(9,18)" class="S sfv" d="M1963 1227 L2106 1084 L2106 1114 L1963 1257 Z"/><path class="fv4" d="M1963 1227 L2106 1084 L2106 1114 L1963 1257 Z" /></g><g class="o"><path transform="translate(6,12)" class="S sf" d="M1364 1420 L1239 1295 L1239 1319 L1364 1444 Z"/><path class="f7" d="M1364 1420 L1239 1295 L1239 1319 L1364 1444 Z" /></g><g class="o"><path transform="translate(5,10)" class="S sf" d="M1512 1227 L1697 1042 L1697 1062 L1512 1247 Z"/><path class="f1" d="M1512 1227 L1697 1042 L1697 1062 L1512 1247 Z" /></g><g class="o"><path transform="translate(4,8)" class="S sfv" d="M1593 1783 L1428 1618 L1428 1640 L1593 1805 Z"/><path class="fv3" d="M1593 1783 L1428 1618 L1428 1640 L1593 1805 Z" /></g><g class="o"><path transform="translate(6,12)" class="S sfv" d="M1203 1026 L1854 375 L1854 487 L1203 1138 Z"/><path class="fv3" d="M1203 1026 L1854 375 L1854 487 L1203 1138 Z" /></g><g class="o"><path transform="translate(7,14)" class="S sfh" d="M1897 1775 L2074 1598 L2108 1598 L1931 1775 Z"/><path class="fh2" d="M1897 1775 L2074 1598 L2108 1598 L1931 1775 Z" /></g><g class="o"><path transform="translate(9,18)" class="S sfh" d="M979 1574 L1191 1786 L1219 1786 L1007 1574 Z"/><path class="fh4" d="M979 1574 L1191 1786 L1219 1786 L1007 1574 Z" /></g><g class="o"><path transform="translate(6,12)" class="S sfv" d="M1376 1873 L1457 1954 L1457 1978 L1376 1897 Z"/><path class="fv1" d="M1376 1873 L1457 1954 L1457 1978 L1376 1897 Z" /></g><g class="o"><path transform="translate(3,6)" class="S sfh" d="M1695 1162 L1599 1066 L1633 1066 L1729 1162 Z"/><path class="fh7" d="M1695 1162 L1599 1066 L1633 1066 L1729 1162 Z" /></g><g class="o"><path transform="translate(8,16)" class="S sf" d="M1128 1863 L399 1134 L425 1134 L1154 1863 Z"/><path class="f6" d="M1128 1863 L399 1134 L425 1134 L1154 1863 Z" /></g><g class="o"><path transform="translate(9,18)" class="S sfv" d="M1971 1904 L2149 2082 L2149 2106 L1971 1928 Z"/><path class="fv7" d="M1971 1904 L2149 2082 L2149 2106 L1971 1928 Z" /></g><g class="o"><path transform="translate(4,8)" class="S sf" d="M1450 1615 L1535 1530 L1535 1562 L1450 1647 Z"/><path class="f3" d="M1450 1615 L1535 1530 L1535 1562 L1450 1647 Z" /></g><g class="o"><path transform="translate(9,18)" class="S sfh" d="M1042 1607 L981 1668 L1007 1668 L1068 1607 Z"/><path class="fh4" d="M1042 1607 L981 1668 L1007 1668 L1068 1607 Z" /></g><g class="o"><path transform="translate(9,18)" class="S sfh" d="M1883 1318 L1806 1241 L1816 1241 L1893 1318 Z"/><path class="fh3" d="M1883 1318 L1806 1241 L1816 1241 L1893 1318 Z" /></g><g class="o"><path transform="translate(2,4)" class="S sfh" d="M1845 1617 L2373 1089 L2411 1089 L1883 1617 Z"/><path class="fh7" d="M1845 1617 L2373 1089 L2411 1089 L1883 1617 Z" /></g><g class="o"><path transform="translate(5,10)" class="S sfv" d="M1267 1755 L1211 1811 L1211 1837 L1267 1781 Z"/><path class="fv5" d="M1267 1755 L1211 1811 L1211 1837 L1267 1781 Z" /></g><g class="o"><path transform="translate(2,4)" class="S sfv" d="M1107 1430 L1169 1492 L1169 1518 L1107 1456 Z"/><path class="fv1" d="M1107 1430 L1169 1492 L1169 1518 L1107 1456 Z" /></g><g class="o"><path transform="translate(8,16)" class="S ssv" d="M1571 1269 L1418 1422 L1418 1434 L1571 1281 Z"/><path class="sv2" d="M1571 1269 L1418 1422 L1418 1434 L1571 1281 Z" /></g><g class="o"><path transform="translate(3,6)" class="S sf" d="M1436 1102 L1544 994 L1552 994 L1444 1102 Z"/><path class="f2" d="M1436 1102 L1544 994 L1552 994 L1444 1102 Z" /></g><g class="o"><path transform="translate(6,12)" class="S ssv" d="M1898 1124 L2381 1607 L2381 1623 L1898 1140 Z"/><path class="sv1" d="M1898 1124 L2381 1607 L2381 1623 L1898 1140 Z" /></g><g class="o"><path transform="translate(3,6)" class="S sfv" d="M1848 1598 L2055 1805 L2055 1835 L1848 1628 Z"/><path class="fv5" d="M1848 1598 L2055 1805 L2055 1835 L1848 1628 Z" /></g><g class="o"><path transform="translate(7,14)" class="S sfh" d="M1352 1870 L1150 1668 L1160 1668 L1362 1870 Z"/><path class="fh3" d="M1352 1870 L1150 1668 L1160 1668 L1362 1870 Z" /></g><g class="o"><path transform="translate(5,10)" class="S sf" d="M1107 1190 L1183 1266 L1197 1266 L1121 1190 Z"/><path class="f2" d="M1107 1190 L1183 1266 L1197 1266 L1121 1190 Z" /></g><g class="o"><path transform="translate(8,16)" class="S sf" d="M1931 1481 L1713 1263 L1749 1263 L1967 1481 Z"/><path class="f7" d="M1931 1481 L1713 1263 L1749 1263 L1967 1481 Z" /></g><g class="o"><path transform="translate(4,8)" class="S sfh" d="M1691 2019 L1471 1799 L1497 1799 L1717 2019 Z"/><path class="fh1" d="M1691 2019 L1471 1799 L1497 1799 L1717 2019 Z" /></g><g class="o"><path transform="translate(6,12)" class="S sfh" d="M1456 1843 L1371 1928 L1419 1928 L1504 1843 Z"/><path class="fh6" d="M1456 1843 L1371 1928 L1419 1928 L1504 1843 Z" /></g><g class="o"><path transform="translate(4,8)" class="S sf" d="M1228 1711 L1001 1938 L1057 1938 L1284 1711 Z"/><path class="f4" d="M1228 1711 L1001 1938 L1057 1938 L1284 1711 Z" /></g><g class="o"><path transform="translate(3,6)" class="S sfh" d="M1358 1965 L1230 1837 L1246 1837 L1374 1965 Z"/><path class="fh6" d="M1358 1965 L1230 1837 L1246 1837 L1374 1965 Z" /></g><g class="o"><path transform="translate(6,12)" class="S ssh" d="M1178 1841 L1043 1706 L1051 1706 L1186 1841 Z"/><path class="sh3" d="M1178 1841 L1043 1706 L1051 1706 L1186 1841 Z" /></g><g class="o"><path transform="translate(7,14)" class="S sf" d="M1013 1792 L890 1915 L890 1951 L1013 1828 Z"/><path class="f6" d="M1013 1792 L890 1915 L890 1951 L1013 1828 Z" /></g><g class="o"><path transform="translate(8,16)" class="S sfh" d="M1366 1879 L1135 1648 L1145 1648 L1376 1879 Z"/><path class="fh2" d="M1366 1879 L1135 1648 L1145 1648 L1376 1879 Z" /></g><g class="o"><path transform="translate(8,16)" class="S ssh" d="M1098 1233 L908 1043 L926 1043 L1116 1233 Z"/><path class="sh3" d="M1098 1233 L908 1043 L926 1043 L1116 1233 Z" /></g><g class="o"><path transform="translate(4,8)" class="S sfv" d="M1296 2032 L1524 2260 L1524 2276 L1296 2048 Z"/><path class="fv1" d="M1296 2032 L1524 2260 L1524 2276 L1296 2048 Z" /></g><g class="o"><path transform="translate(2,4)" class="S ssh" d="M1982 1974 L2171 1785 L2209 1785 L2020 1974 Z"/><path class="sh3" d="M1982 1974 L2171 1785 L2209 1785 L2020 1974 Z" /></g><g class="o"><path transform="translate(7,14)" class="S ssh" d="M1272 1847 L1442 1677 L1468 1677 L1298 1847 Z"/><path class="sh5" d="M1272 1847 L1442 1677 L1468 1677 L1298 1847 Z" /></g><g class="o"><path transform="translate(8,16)" class="S sfh" d="M982 1066 L1229 819 L1263 819 L1016 1066 Z"/><path class="fh3" d="M982 1066 L1229 819 L1263 819 L1016 1066 Z" /></g><g class="o"><path transform="translate(7,14)" class="S sfh" d="M1147 1760 L1228 1679 L1258 1679 L1177 1760 Z"/><path class="fh5" d="M1147 1760 L1228 1679 L1258 1679 L1177 1760 Z" /></g><g class="o"><path transform="translate(6,12)" class="S sfv" d="M1128 1131 L882 885 L882 901 L1128 1147 Z"/><path class="fv2" d="M1128 1131 L882 885 L882 901 L1128 1147 Z" /></g><g class="o"><path transform="translate(9,18)" class="S sfv" d="M1903 1530 L2046 1387 L2046 1413 L1903 1556 Z"/><path class="fv5" d="M1903 1530 L2046 1387 L2046 1413 L1903 1556 Z" /></g><g class="o"><path transform="translate(5,10)" class="S sf" d="M1219 1762 L1311 1854 L1349 1854 L1257 1762 Z"/><path class="f5" d="M1219 1762 L1311 1854 L1349 1854 L1257 1762 Z" /></g><g class="o"><path transform="translate(4,8)" class="S sfh" d="M1535 960 L1461 1034 L1491 1034 L1565 960 Z"/><path class="fh2" d="M1535 960 L1461 1034 L1491 1034 L1565 960 Z" /></g><g class="o"><path transform="translate(6,12)" class="S sf" d="M1319 1745 L1871 1193 L1879 1193 L1327 1745 Z"/><path class="f6" d="M1319 1745 L1871 1193 L1879 1193 L1327 1745 Z" /></g><g class="o"><path transform="translate(2,4)" class="S sfh" d="M973 1183 L766 976 L804 976 L1011 1183 Z"/><path class="fh6" d="M973 1183 L766 976 L804 976 L1011 1183 Z" /></g><g class="o"><path transform="translate(3,6)" class="S sfv" d="M1244 1788 L1335 1697 L1335 1713 L1244 1804 Z"/><path class="fv1" d="M1244 1788 L1335 1697 L1335 1713 L1244 1804 Z" /></g><g class="o"><path transform="translate(3,6)" class="S sfv" d="M1589 1344 L2333 600 L2333 614 L1589 1358 Z"/><path class="fv4" d="M1589 1344 L2333 600 L2333 614 L1589 1358 Z" /></g><g class="o"><path transform="translate(7,14)" class="S ssh" d="M1502 1100 L1741 1339 L1763 1339 L1524 1100 Z"/><path class="sh1" d="M1502 1100 L1741 1339 L1763 1339 L1524 1100 Z" /></g><g class="o"><path transform="translate(8,16)" class="S sfh" d="M1185 1439 L1091 1345 L1123 1345 L1217 1439 Z"/><path class="fh3" d="M1185 1439 L1091 1345 L1123 1345 L1217 1439 Z" /></g><g class="o"><path transform="translate(4,8)" class="S sfh" d="M1316 1022 L1384 954 L1420 954 L1352 1022 Z"/><path class="fh4" d="M1316 1022 L1384 954 L1420 954 L1352 1022 Z" /></g><g class="o"><path transform="translate(4,8)" class="S sf" d="M1364 1472 L650 2186 L786 2186 L1500 1472 Z"/><path class="f3" d="M1364 1472 L650 2186 L786 2186 L1500 1472 Z" /></g><g class="o"><path transform="translate(2,4)" class="S ssv" d="M1600 1222 L1436 1058 L1436 1068 L1600 1232 Z"/><path class="sv3" d="M1600 1222 L1436 1058 L1436 1068 L1600 1232 Z" /></g><g class="o"><path transform="translate(9,18)" class="S ss" d="M1904 1627 L1819 1542 L1819 1562 L1904 1647 Z"/><path class="s5" d="M1904 1627 L1819 1542 L1819 1562 L1904 1647 Z" /></g><g class="o"><path transform="translate(8,16)" class="S sfh" d="M958 1979 L1146 1791 L1170 1791 L982 1979 Z"/><path class="fh5" d="M958 1979 L1146 1791 L1170 1791 L982 1979 Z" /></g><g class="o"><path transform="translate(4,8)" class="S sfh" d="M1823 1413 L1628 1608 L1640 1608 L1835 1413 Z"/><path class="fh3" d="M1823 1413 L1628 1608 L1640 1608 L1835 1413 Z" /></g><g class="o"><path transform="translate(3,6)" class="S sfv" d="M2005 1014 L2185 834 L2185 848 L2005 1028 Z"/><path class="fv1" d="M2005 1014 L2185 834 L2185 848 L2005 1028 Z" /></g><g class="o"><path transform="translate(2,4)" class="S ss" d="M1163 2020 L1386 2243 L1386 2281 L1163 2058 Z"/><path class="s7" d="M1163 2020 L1386 2243 L1386 2281 L1163 2058 Z" /></g><g class="o"><path transform="translate(3,6)" class="S sf" d="M1293 1491 L1170 1614 L1200 1614 L1323 1491 Z"/><path class="f1" d="M1293 1491 L1170 1614 L1200 1614 L1323 1491 Z" /></g><g class="o"><path transform="translate(2,4)" class="S sf" d="M1061 1126 L1191 1256 L1255 1256 L1125 1126 Z"/><path class="f4" d="M1061 1126 L1191 1256 L1255 1256 L1125 1126 Z" /></g><g class="o"><path transform="translate(7,14)" class="S sf" d="M1623 1421 L1714 1330 L1714 1338 L1623 1429 Z"/><path class="f7" d="M1623 1421 L1714 1330 L1714 1338 L1623 1429 Z" /></g><g class="o"><path transform="translate(2,4)" class="S sfh" d="M1482 2039 L1692 2249 L1722 2249 L1512 2039 Z"/><path class="fh7" d="M1482 2039 L1692 2249 L1722 2249 L1512 2039 Z" /></g><g class="o"><path transform="translate(9,18)" class="S sfh" d="M1297 1893 L1519 2115 L1543 2115 L1321 1893 Z"/><path class="fh1" d="M1297 1893 L1519 2115 L1543 2115 L1321 1893 Z" /></g><g class="o"><path transform="translate(6,12)" class="S sfh" d="M1020 1948 L937 2031 L965 2031 L1048 1948 Z"/><path class="fh4" d="M1020 1948 L937 2031 L965 2031 L1048 1948 Z" /></g><g class="o"><path transform="translate(5,10)" class="S sf" d="M1875 1118 L1956 1037 L1990 1037 L1909 1118 Z"/><path class="f2" d="M1875 1118 L1956 1037 L1990 1037 L1909 1118 Z" /></g><g class="o"><path transform="translate(3,6)" class="S ssv" d="M1355 1202 L1454 1103 L1454 1167 L1355 1266 Z"/><path class="sv2" d="M1355 1202 L1454 1103 L1454 1167 L1355 1266 Z" /></g><g class="o"><path transform="translate(5,10)" class="S sfv" d="M1888 1261 L1693 1456 L1693 1492 L1888 1297 Z"/><path class="fv7" d="M1888 1261 L1693 1456 L1693 1492 L1888 1297 Z" /></g><g class="o"><path transform="translate(4,8)" class="S sfv" d="M1945 1330 L1807 1468 L1807 1492 L1945 1354 Z"/><path class="fv3" d="M1945 1330 L1807 1468 L1807 1492 L1945 1354 Z" /></g><g class="o"><path transform="translate(3,6)" class="S sfv" d="M1514 1350 L1406 1242 L1406 1276 L1514 1384 Z"/><path class="fv5" d="M1514 1350 L1406 1242 L1406 1276 L1514 1384 Z" /></g><g class="o"><path transform="translate(6,12)" class="S sf" d="M1814 1504 L1974 1344 L2126 1344 L1966 1504 Z"/><path class="f1" d="M1814 1504 L1974 1344 L2126 1344 L1966 1504 Z" /></g><g class="o"><path transform="translate(4,8)" class="S sfh" d="M950 1501 L1154 1297 L1162 1297 L958 1501 Z"/><path class="fh2" d="M950 1501 L1154 1297 L1162 1297 L958 1501 Z" /></g><g class="o"><path transform="translate(2,4)" class="S sfv" d="M1471 1657 L967 2161 L967 2249 L1471 1745 Z"/><path class="fv1" d="M1471 1657 L967 2161 L967 2249 L1471 1745 Z" /></g><g class="o"><path transform="translate(2,4)" class="S sfv" d="M1158 1204 L1308 1354 L1308 1382 L1158 1232 Z"/><path class="fv4" d="M1158 1204 L1308 1354 L1308 1382 L1158 1232 Z" /></g><g class="o"><path transform="translate(9,18)" class="S sf" d="M1128 1554 L984 1410 L984 1436 L1128 1580 Z"/><path class="f7" d="M1128 1554 L984 1410 L984 1436 L1128 1580 Z" /></g><g class="o"><path transform="translate(8,16)" class="S sfh" d="M1088 1355 L812 1631 L850 1631 L1126 1355 Z"/><path class="fh5" d="M1088 1355 L812 1631 L850 1631 L1126 1355 Z" /></g><g class="o"><path transform="translate(2,4)" class="S sfh" d="M1759 1031 L1258 1532 L1296 1532 L1797 1031 Z"/><path class="fh4" d="M1759 1031 L1258 1532 L1296 1532 L1797 1031 Z" /></g></g><use href="#slashes" transform-origin="1500 1500" transform="rotate(180) scale(2)"/></g><rect x="1080" y="1080" width="840" height="840" stroke-width="80" class="o fs" /><use href="#slashes" transform-origin="1500 1500" transform="scale(1)"/><use href="#slashes" transform-origin="1500 1500" transform="rotate(180) scale(1,-1)"/></svg>