<svg xmlns="http://www.w3.org/2000/svg" viewBox="750 750 1500 1500"><style>/*<![CDATA[*/svg{background:rgb(0,166,237);max-width:100vw;max-height:100vh}path{stroke-width:4}.o{opacity:.75}.S{opacity:.4}.sf{stroke:none;fill:black}.sfh{stroke:none;fill:url(#hs)}.sfv{stroke:none;fill:url(#vs)}.ss{stroke:black;fill:none}.ssh{stroke:url(#hs);fill:none}.ssv{stroke:url(#vs);fill:none}.s1{fill:none;stroke:rgb(34,34,34)}.f1{stroke:none;fill:rgb(34,34,34)}.sh1{fill:none;stroke:url(#h1)}.fh1{stroke:none;fill:url(#h1)}.sv1{fill:none;stroke:url(#v1)}.fv1{stroke:none;fill:url(#v1)}.s2{fill:none;stroke:rgb(41,42,115)}.f2{stroke:none;fill:rgb(41,42,115)}.sh2{fill:none;stroke:url(#h2)}.fh2{stroke:none;fill:url(#h2)}.sv2{fill:none;stroke:url(#v2)}.fv2{stroke:none;fill:url(#v2)}.s3{fill:none;stroke:rgb(246,81,29)}.f3{stroke:none;fill:rgb(246,81,29)}.sh3{fill:none;stroke:url(#h3)}.fh3{stroke:none;fill:url(#h3)}.sv3{fill:none;stroke:url(#v3)}.fv3{stroke:none;fill:url(#v3)}.s4{fill:none;stroke:rgb(255,180,0)}.f4{stroke:none;fill:rgb(255,180,0)}.sh4{fill:none;stroke:url(#h4)}.fh4{stroke:none;fill:url(#h4)}.sv4{fill:none;stroke:url(#v4)}.fv4{stroke:none;fill:url(#v4)}.s5{fill:none;stroke:rgb(13,44,84)}.f5{stroke:none;fill:rgb(13,44,84)}.sh5{fill:none;stroke:url(#h5)}.fh5{stroke:none;fill:url(#h5)}.sv5{fill:none;stroke:url(#v5)}.fv5{stroke:none;fill:url(#v5)}.s6{fill:none;stroke:rgb(255,255,255)}.f6{stroke:none;fill:rgb(255,255,255)}.sh6{fill:none;stroke:url(#h6)}.fh6{stroke:none;fill:url(#h6)}.sv6{fill:none;stroke:url(#v6)}.fv6{stroke:none;fill:url(#v6)}.s7{fill:none;stroke:rgb(255,255,0)}.f7{stroke:none;fill:rgb(255,255,0)}.sh7{fill:none;stroke:url(#h7)}.fh7{stroke:none;fill:url(#h7)}.sv7{fill:none;stroke:url(#v7)}.fv7{stroke:none;fill:url(#v7)}/*]]>*/</style><defs><linearGradient gradientTransform="rotate(90)" id="hs"><stop offset="20%" stop-color="#000" /><stop offset="95%" stop-color="rgba(0, 0, 0, 0)" /></linearGradient><linearGradient id="vs"><stop offset="20%" stop-color="#000" /><stop offset="95%" stop-color="rgba(0, 0, 0, 0)" /></linearGradient><linearGradient gradientTransform="rotate(90)" id="h1"><stop offset="20%" stop-color="rgba(34,34,34,1)" /><stop offset="95%" stop-color="rgba(34,34,34,0)" /></linearGradient><linearGradient id="v1"><stop offset="20%" stop-color="rgba(34,34,34,1)" /><stop offset="95%" stop-color="rgba(34,34,34,0)" /></linearGradient><linearGradient gradientTransform="rotate(90)" id="h2"><stop offset="20%" stop-color="rgba(41,42,115,1)" /><stop offset="95%" stop-color="rgba(41,42,115,0)" /></linearGradient><linearGradient id="v2"><stop offset="20%" stop-color="rgba(41,42,115,1)" /><stop offset="95%" stop-color="rgba(41,42,115,0)" /></linearGradient><linearGradient gradientTransform="rotate(90)" id="h3"><stop offset="20%" stop-color="rgba(246,81,29,1)" /><stop offset="95%" stop-color="rgba(246,81,29,0)" /></linearGradient><linearGradient id="v3"><stop offset="20%" stop-color="rgba(246,81,29,1)" /><stop offset="95%" stop-color="rgba(246,81,29,0)" /></linearGradient><linearGradient gradientTransform="rotate(90)" id="h4"><stop offset="20%" stop-color="rgba(255,180,0,1)" /><stop offset="95%" stop-color="rgba(255,180,0,0)" /></linearGradient><linearGradient id="v4"><stop offset="20%" stop-color="rgba(255,180,0,1)" /><stop offset="95%" stop-color="rgba(255,180,0,0)" /></linearGradient><linearGradient gradientTransform="rotate(90)" id="h5"><stop offset="20%" stop-color="rgba(13,44,84,1)" /><stop offset="95%" stop-color="rgba(13,44,84,0)" /></linearGradient><linearGradient id="v5"><stop offset="20%" stop-color="rgba(13,44,84,1)" /><stop offset="95%" stop-color="rgba(13,44,84,0)" /></linearGradient><linearGradient gradientTransform="rotate(90)" id="h6"><stop offset="20%" stop-color="rgba(255,255,255,1)" /><stop offset="95%" stop-color="rgba(255,255,255,0)" /></linearGradient><linearGradient id="v6"><stop offset="20%" stop-color="rgba(255,255,255,1)" /><stop offset="95%" stop-color="rgba(255,255,255,0)" /></linearGradient><linearGradient gradientTransform="rotate(90)" id="h7"><stop offset="20%" stop-color="rgba(255,255,0,1)" /><stop offset="95%" stop-color="rgba(255,255,0,0)" /></linearGradient><linearGradient id="v7"><stop offset="20%" stop-color="rgba(255,255,0,1)" /><stop offset="95%" stop-color="rgba(255,255,0,0)" /></linearGradient></defs><g transform-origin="1500 1500" transform="scale(2)" opacity=".8"><g id="slashes"><g class="o"><path transform="translate(6,12)" class="S sfh" d="M1896 1464 L2048 1312 L2062 1312 L1910 1464 Z"/><path class="fh3" d="M1896 1464 L2048 1312 L2062 1312 L1910 1464 Z" /></g><g class="o"><path transform="translate(9,18)" class="S sfv" d="M1576 1104 L1719 961 L1719 969 L1576 1112 Z"/><path class="fv5" d="M1576 1104 L1719 961 L1719 969 L1576 1112 Z" /></g><g class="o"><path transform="translate(5,10)" class="S sfv" d="M962 1980 L1113 1829 L1113 1957 L962 2108 Z"/><path class="fv3" d="M962 1980 L1113 1829 L1113 1957 L962 2108 Z" /></g><g class="o"><path transform="translate(6,12)" class="S ss" d="M1949 1838 L1741 1630 L1741 1648 L1949 1856 Z"/><path class="s3" d="M1949 1838 L1741 1630 L1741 1648 L1949 1856 Z" /></g><g class="o"><path transform="translate(4,8)" class="S sfh" d="M1875 1395 L1796 1316 L1804 1316 L1883 1395 Z"/><path class="fh7" d="M1875 1395 L1796 1316 L1804 1316 L1883 1395 Z" /></g><g class="o"><path transform="translate(9,18)" class="S sfv" d="M1865 1142 L2017 990 L2017 1002 L1865 1154 Z"/><path class="fv5" d="M1865 1142 L2017 990 L2017 1002 L1865 1154 Z" /></g><g class="o"><path transform="translate(5,10)" class="S sf" d="M1579 1373 L1679 1273 L1699 1273 L1599 1373 Z"/><path class="f3" d="M1579 1373 L1679 1273 L1699 1273 L1599 1373 Z" /></g><g class="o"><path transform="translate(8,16)" class="S sfh" d="M985 1943 L819 1777 L831 1777 L997 1943 Z"/><path class="fh4" d="M985 1943 L819 1777 L831 1777 L997 1943 Z" /></g><g class="o"><path transform="translate(6,12)" class="S sf" d="M1846 1840 L1645 1639 L1645 1675 L1846 1876 Z"/><path class="f4" d="M1846 1840 L1645 1639 L1645 1675 L1846 1876 Z" /></g><g class="o"><path transform="translate(4,8)" class="S sfv" d="M1050 1957 L1117 1890 L1117 1900 L1050 1967 Z"/><path class="fv5" d="M1050 1957 L1117 1890 L1117 1900 L1050 1967 Z" /></g><g class="o"><path transform="translate(2,4)" class="S sf" d="M1218 1156 L1461 913 L1493 913 L1250 1156 Z"/><path class="f1" d="M1218 1156 L1461 913 L1493 913 L1250 1156 Z" /></g><g class="o"><path transform="translate(7,14)" class="S sfh" d="M943 1508 L709 1274 L733 1274 L967 1508 Z"/><path class="fh4" d="M943 1508 L709 1274 L733 1274 L967 1508 Z" /></g><g class="o"><path transform="translate(9,18)" class="S ssv" d="M957 1014 L723 780 L723 810 L957 1044 Z"/><path class="sv3" d="M957 1014 L723 780 L723 810 L957 1044 Z" /></g><g class="o"><path transform="translate(9,18)" class="S sfv" d="M972 1490 L1197 1265 L1197 1293 L972 1518 Z"/><path class="fv3" d="M972 1490 L1197 1265 L1197 1293 L972 1518 Z" /></g><g class="o"><path transform="translate(4,8)" class="S sfv" d="M1928 987 L1807 866 L1807 880 L1928 1001 Z"/><path class="fv6" d="M1928 987 L1807 866 L1807 880 L1928 1001 Z" /></g><g class="o"><path transform="translate(2,4)" class="S sfv" d="M1419 1869 L1242 1692 L1242 1704 L1419 1881 Z"/><path class="fv4" d="M1419 1869 L1242 1692 L1242 1704 L1419 1881 Z" /></g><g class="o"><path transform="translate(2,4)" class="S sfv" d="M1736 1223 L1985 974 L1985 1010 L1736 1259 Z"/><path class="fv2" d="M1736 1223 L1985 974 L1985 1010 L1736 1259 Z" /></g><g class="o"><path transform="translate(2,4)" class="S sfv" d="M1873 1119 L1753 999 L1753 1007 L1873 1127 Z"/><path class="fv7" d="M1873 1119 L1753 999 L1753 1007 L1873 1127 Z" /></g><g class="o"><path transform="translate(7,14)" class="S sfh" d="M1503 1622 L1690 1435 L1702 1435 L1515 1622 Z"/><path class="fh2" d="M1503 1622 L1690 1435 L1702 1435 L1515 1622 Z" /></g><g class="o"><path transform="translate(9,18)" class="S sfv" d="M1796 1251 L1962 1085 L1962 1117 L1796 1283 Z"/><path class="fv6" d="M1796 1251 L1962 1085 L1962 1117 L1796 1283 Z" /></g><g class="o"><path transform="translate(4,8)" class="S sf" d="M1326 1416 L1562 1180 L1596 1180 L1360 1416 Z"/><path class="f6" d="M1326 1416 L1562 1180 L1596 1180 L1360 1416 Z" /></g><g class="o"><path transform="translate(5,10)" class="S ssv" d="M1927 1543 L1549 1165 L1549 1187 L1927 1565 Z"/><path class="sv2" d="M1927 1543 L1549 1165 L1549 1187 L1927 1565 Z" /></g><g class="o"><path transform="translate(8,16)" class="S sfv" d="M1107 1865 L1157 1815 L1157 1835 L1107 1885 Z"/><path class="fv6" d="M1107 1865 L1157 1815 L1157 1835 L1107 1885 Z" /></g><g class="o"><path transform="translate(8,16)" class="S sf" d="M1202 1798 L1437 1563 L1471 1563 L1236 1798 Z"/><path class="f3" d="M1202 1798 L1437 1563 L1471 1563 L1236 1798 Z" /></g><g class="o"><path transform="translate(2,4)" class="S sfh" d="M1046 2030 L1106 1970 L1118 1970 L1058 2030 Z"/><path class="fh1" d="M1046 2030 L1106 1970 L1118 1970 L1058 2030 Z" /></g><g class="o"><path transform="translate(9,18)" class="S sf" d="M1928 1436 L1737 1245 L1737 1257 L1928 1448 Z"/><path class="f5" d="M1928 1436 L1737 1245 L1737 1257 L1928 1448 Z" /></g><g class="o"><path transform="translate(8,16)" class="S sfv" d="M1601 1849 L1426 1674 L1426 1682 L1601 1857 Z"/><path class="fv5" d="M1601 1849 L1426 1674 L1426 1682 L1601 1857 Z" /></g><g class="o"><path transform="translate(6,12)" class="S sfh" d="M1209 1511 L1400 1320 L1410 1320 L1219 1511 Z"/><path class="fh2" d="M1209 1511 L1400 1320 L1410 1320 L1219 1511 Z" /></g><g class="o"><path transform="translate(3,6)" class="S ssh" d="M1593 1146 L1530 1083 L1546 1083 L1609 1146 Z"/><path class="sh2" d="M1593 1146 L1530 1083 L1546 1083 L1609 1146 Z" /></g><g class="o"><path transform="translate(9,18)" class="S sf" d="M1762 1732 L1911 1583 L1911 1595 L1762 1744 Z"/><path class="f4" d="M1762 1732 L1911 1583 L1911 1595 L1762 1744 Z" /></g><g class="o"><path transform="translate(5,10)" class="S sfv" d="M1507 1810 L1102 1405 L1102 1417 L1507 1822 Z"/><path class="fv2" d="M1507 1810 L1102 1405 L1102 1417 L1507 1822 Z" /></g><g class="o"><path transform="translate(3,6)" class="S sfh" d="M1555 1654 L1615 1594 L1679 1594 L1619 1654 Z"/><path class="fh6" d="M1555 1654 L1615 1594 L1679 1594 L1619 1654 Z" /></g><g class="o"><path transform="translate(3,6)" class="S sf" d="M1993 1344 L1829 1180 L1829 1220 L1993 1384 Z"/><path class="f7" d="M1993 1344 L1829 1180 L1829 1220 L1993 1384 Z" /></g><g class="o"><path transform="translate(3,6)" class="S sf" d="M1960 1690 L2066 1584 L2092 1584 L1986 1690 Z"/><path class="f2" d="M1960 1690 L2066 1584 L2092 1584 L1986 1690 Z" /></g><g class="o"><path transform="translate(9,18)" class="S sfv" d="M1480 1311 L1694 1097 L1694 1135 L1480 1349 Z"/><path class="fv1" d="M1480 1311 L1694 1097 L1694 1135 L1480 1349 Z" /></g><g class="o"><path transform="translate(7,14)" class="S ss" d="M1375 1837 L1435 1777 L1447 1777 L1387 1837 Z"/><path class="s2" d="M1375 1837 L1435 1777 L1447 1777 L1387 1837 Z" /></g><g class="o"><path transform="translate(4,8)" class="S sfh" d="M1567 1304 L1691 1180 L1727 1180 L1603 1304 Z"/><path class="fh5" d="M1567 1304 L1691 1180 L1727 1180 L1603 1304 Z" /></g><g class="o"><path transform="translate(4,8)" class="S sfv" d="M1792 1168 L1886 1074 L1886 1170 L1792 1264 Z"/><path class="fv2" d="M1792 1168 L1886 1074 L1886 1170 L1792 1264 Z" /></g><g class="o"><path transform="translate(2,4)" class="S sfv" d="M1411 2020 L1273 1882 L1273 1894 L1411 2032 Z"/><path class="fv2" d="M1411 2020 L1273 1882 L1273 1894 L1411 2032 Z" /></g><g class="o"><path transform="translate(5,10)" class="S sfh" d="M2013 1733 L2122 1624 L2138 1624 L2029 1733 Z"/><path class="fh3" d="M2013 1733 L2122 1624 L2138 1624 L2029 1733 Z" /></g><g class="o"><path transform="translate(6,12)" class="S sfv" d="M1768 1478 L1952 1294 L1952 1320 L1768 1504 Z"/><path class="fv3" d="M1768 1478 L1952 1294 L1952 1320 L1768 1504 Z" /></g><g class="o"><path transform="translate(4,8)" class="S sfv" d="M1202 2025 L1129 1952 L1129 1990 L1202 2063 Z"/><path class="fv5" d="M1202 2025 L1129 1952 L1129 1990 L1202 2063 Z" /></g><g class="o"><path transform="translate(9,18)" class="S sfh" d="M1108 1409 L1244 1273 L1264 1273 L1128 1409 Z"/><path class="fh4" d="M1108 1409 L1244 1273 L1264 1273 L1128 1409 Z" /></g><g class="o"><path transform="translate(8,16)" class="S sfh" d="M1245 2029 L1164 1948 L1190 1948 L1271 2029 Z"/><path class="fh5" d="M1245 2029 L1164 1948 L1190 1948 L1271 2029 Z" /></g><g class="o"><path transform="translate(5,10)" class="S sf" d="M1334 1553 L1751 1136 L1751 1164 L1334 1581 Z"/><path class="f5" d="M1334 1553 L1751 1136 L1751 1164 L1334 1581 Z" /></g><g class="o"><path transform="translate(6,12)" class="S ssv" d="M1385 1255 L1585 1055 L1585 1077 L1385 1277 Z"/><path class="sv5" d="M1385 1255 L1585 1055 L1585 1077 L1385 1277 Z" /></g><g class="o"><path transform="translate(9,18)" class="S sfh" d="M1503 1602 L1260 1359 L1276 1359 L1519 1602 Z"/><path class="fh5" d="M1503 1602 L1260 1359 L1276 1359 L1519 1602 Z" /></g><g class="o"><path transform="translate(6,12)" class="S sfv" d="M1741 1888 L1540 1687 L1540 1697 L1741 1898 Z"/><path class="fv2" d="M1741 1888 L1540 1687 L1540 1697 L1741 1898 Z" /></g><g class="o"><path transform="translate(3,6)" class="S sfh" d="M949 1415 L1100 1264 L1114 1264 L963 1415 Z"/><path class="fh5" d="M949 1415 L1100 1264 L1114 1264 L963 1415 Z" /></g><g class="o"><path transform="translate(5,10)" class="S sfh" d="M1108 1481 L956 1329 L988 1329 L1140 1481 Z"/><path class="fh3" d="M1108 1481 L956 1329 L988 1329 L1140 1481 Z" /></g><g class="o"><path transform="translate(5,10)" class="S sfv" d="M1478 1049 L1895 632 L1895 652 L1478 1069 Z"/><path class="fv4" d="M1478 1049 L1895 632 L1895 652 L1478 1069 Z" /></g><g class="o"><path transform="translate(9,18)" class="S sfv" d="M1880 2036 L1634 1790 L1634 1808 L1880 2054 Z"/><path class="fv3" d="M1880 2036 L1634 1790 L1634 1808 L1880 2054 Z" /></g><g class="o"><path transform="translate(2,4)" class="S sfh" d="M1996 1604 L1805 1413 L1813 1413 L2004 1604 Z"/><path class="fh7" d="M1996 1604 L1805 1413 L1813 1413 L2004 1604 Z" /></g><g class="o"><path transform="translate(4,8)" class="S sfh" d="M1393 2007 L763 1377 L777 1377 L1407 2007 Z"/><path class="fh3" d="M1393 2007 L763 1377 L777 1377 L1407 2007 Z" /></g><g class="o"><path transform="translate(8,16)" class="S sf" d="M2002 1410 L1426 834 L1426 854 L2002 1430 Z"/><path class="f5" d="M2002 1410 L1426 834 L1426 854 L2002 1430 Z" /></g><g class="o"><path transform="translate(2,4)" class="S sfv" d="M1868 1656 L1967 1557 L1967 1587 L1868 1686 Z"/><path class="fv1" d="M1868 1656 L1967 1557 L1967 1587 L1868 1686 Z" /></g><g class="o"><path transform="translate(7,14)" class="S sfh" d="M2034 1202 L2394 842 L2420 842 L2060 1202 Z"/><path class="fh5" d="M2034 1202 L2394 842 L2420 842 L2060 1202 Z" /></g><g class="o"><path transform="translate(7,14)" class="S ssv" d="M1444 1128 L1495 1077 L1495 1089 L1444 1140 Z"/><path class="sv2" d="M1444 1128 L1495 1077 L1495 1089 L1444 1140 Z" /></g><g class="o"><path transform="translate(9,18)" class="S sfv" d="M1132 1348 L1065 1281 L1065 1315 L1132 1382 Z"/><path class="fv7" d="M1132 1348 L1065 1281 L1065 1315 L1132 1382 Z" /></g><g class="o"><path transform="translate(9,18)" class="S sf" d="M1345 1497 L1561 1281 L1589 1281 L1373 1497 Z"/><path class="f1" d="M1345 1497 L1561 1281 L1589 1281 L1373 1497 Z" /></g><g class="o"><path transform="translate(5,10)" class="S sfv" d="M1763 1168 L1849 1082 L1849 1130 L1763 1216 Z"/><path class="fv3" d="M1763 1168 L1849 1082 L1849 1130 L1763 1216 Z" /></g><g class="o"><path transform="translate(8,16)" class="S sfv" d="M1221 1259 L1156 1194 L1156 1232 L1221 1297 Z"/><path class="fv6" d="M1221 1259 L1156 1194 L1156 1232 L1221 1297 Z" /></g><g class="o"><path transform="translate(5,10)" class="S sfh" d="M1929 1460 L2157 1232 L2193 1232 L1965 1460 Z"/><path class="fh4" d="M1929 1460 L2157 1232 L2193 1232 L1965 1460 Z" /></g><g class="o"><path transform="translate(6,12)" class="S sfv" d="M1649 1635 L1756 1528 L1756 1546 L1649 1653 Z"/><path class="fv7" d="M1649 1635 L1756 1528 L1756 1546 L1649 1653 Z" /></g><g class="o"><path transform="translate(5,10)" class="S sfv" d="M1038 1611 L1183 1466 L1183 1478 L1038 1623 Z"/><path class="fv4" d="M1038 1611 L1183 1466 L1183 1478 L1038 1623 Z" /></g><g class="o"><path transform="translate(7,14)" class="S sfh" d="M1198 1091 L1344 945 L1378 945 L1232 1091 Z"/><path class="fh7" d="M1198 1091 L1344 945 L1378 945 L1232 1091 Z" /></g><g class="o"><path transform="translate(2,4)" class="S sf" d="M1189 1745 L1059 1615 L1059 1639 L1189 1769 Z"/><path class="f4" d="M1189 1745 L1059 1615 L1059 1639 L1189 1769 Z" /></g><g class="o"><path transform="translate(2,4)" class="S ssv" d="M1285 1484 L1183 1382 L1183 1404 L1285 1506 Z"/><path class="sv7" d="M1285 1484 L1183 1382 L1183 1404 L1285 1506 Z" /></g><g class="o"><path transform="translate(6,12)" class="S sf" d="M1906 1955 L1710 1759 L1710 1789 L1906 1985 Z"/><path class="f2" d="M1906 1955 L1710 1759 L1710 1789 L1906 1985 Z" /></g><g class="o"><path transform="translate(8,16)" class="S sf" d="M2035 1311 L2275 1071 L2293 1071 L2053 1311 Z"/><path class="f1" d="M2035 1311 L2275 1071 L2293 1071 L2053 1311 Z" /></g><g class="o"><path transform="translate(6,12)" class="S sfh" d="M1010 1935 L1101 1844 L1111 1844 L1020 1935 Z"/><path class="fh4" d="M1010 1935 L1101 1844 L1111 1844 L1020 1935 Z" /></g><g class="o"><path transform="translate(9,18)" class="S sf" d="M1894 1949 L2105 1738 L2131 1738 L1920 1949 Z"/><path class="f1" d="M1894 1949 L2105 1738 L2131 1738 L1920 1949 Z" /></g><g class="o"><path transform="translate(8,16)" class="S ssv" d="M1843 1759 L1681 1597 L1681 1629 L1843 1791 Z"/><path class="sv6" d="M1843 1759 L1681 1597 L1681 1629 L1843 1791 Z" /></g><g class="o"><path transform="translate(3,6)" class="S sfv" d="M1110 1661 L954 1505 L954 1539 L1110 1695 Z"/><path class="fv3" d="M1110 1661 L954 1505 L954 1539 L1110 1695 Z" /></g><g class="o"><path transform="translate(3,6)" class="S sf" d="M1908 2029 L2070 1867 L2070 1901 L1908 2063 Z"/><path class="f1" d="M1908 2029 L2070 1867 L2070 1901 L1908 2063 Z" /></g><g class="o"><path transform="translate(8,16)" class="S sfh" d="M1354 1880 L1421 1813 L1451 1813 L1384 1880 Z"/><path class="fh7" d="M1354 1880 L1421 1813 L1451 1813 L1384 1880 Z" /></g><g class="o"><path transform="translate(7,14)" class="S sfv" d="M1057 1355 L1173 1239 L1173 1255 L1057 1371 Z"/><path class="fv5" d="M1057 1355 L1173 1239 L1173 1255 L1057 1371 Z" /></g><g class="o"><path transform="translate(8,16)" class="S sf" d="M1802 1030 L1923 909 L1947 909 L1826 1030 Z"/><path class="f4" d="M1802 1030 L1923 909 L1947 909 L1826 1030 Z" /></g><g class="o"><path transform="translate(5,10)" class="S sfv" d="M1589 1441 L1403 1255 L1403 1291 L1589 1477 Z"/><path class="fv6" d="M1589 1441 L1403 1255 L1403 1291 L1589 1477 Z" /></g><g class="o"><path transform="translate(7,14)" class="S sfh" d="M2020 1809 L2153 1676 L2185 1676 L2052 1809 Z"/><path class="fh5" d="M2020 1809 L2153 1676 L2185 1676 L2052 1809 Z" /></g><g class="o"><path transform="translate(2,4)" class="S ss" d="M1035 1840 L1279 1596 L1295 1596 L1051 1840 Z"/><path class="s1" d="M1035 1840 L1279 1596 L1295 1596 L1051 1840 Z" /></g><g class="o"><path transform="translate(7,14)" class="S sf" d="M1738 1808 L1666 1736 L1682 1736 L1754 1808 Z"/><path class="f2" d="M1738 1808 L1666 1736 L1682 1736 L1754 1808 Z" /></g><g class="o"><path transform="translate(2,4)" class="S sf" d="M1270 1500 L1083 1313 L1107 1313 L1294 1500 Z"/><path class="f2" d="M1270 1500 L1083 1313 L1107 1313 L1294 1500 Z" /></g><g class="o"><path transform="translate(6,12)" class="S sfh" d="M1965 1342 L1883 1260 L1897 1260 L1979 1342 Z"/><path class="fh3" d="M1965 1342 L1883 1260 L1897 1260 L1979 1342 Z" /></g><g class="o"><path transform="translate(4,8)" class="S sf" d="M1228 1209 L1443 994 L1443 1146 L1228 1361 Z"/><path class="f4" d="M1228 1209 L1443 994 L1443 1146 L1228 1361 Z" /></g><g class="o"><path transform="translate(7,14)" class="S sfh" d="M1598 1146 L1759 985 L1787 985 L1626 1146 Z"/><path class="fh2" d="M1598 1146 L1759 985 L1787 985 L1626 1146 Z" /></g><g class="o"><path transform="translate(3,6)" class="S ss" d="M1651 1286 L1500 1135 L1500 1165 L1651 1316 Z"/><path class="s4" d="M1651 1286 L1500 1135 L1500 1165 L1651 1316 Z" /></g><g class="o"><path transform="translate(6,12)" class="S sfv" d="M1903 1902 L2111 1694 L2111 1708 L1903 1916 Z"/><path class="fv6" d="M1903 1902 L2111 1694 L2111 1708 L1903 1916 Z" /></g><g class="o"><path transform="translate(7,14)" class="S sfh" d="M1430 1715 L1844 1301 L1862 1301 L1448 1715 Z"/><path class="fh7" d="M1430 1715 L1844 1301 L1862 1301 L1448 1715 Z" /></g><g class="o"><path transform="translate(2,4)" class="S sfv" d="M1014 1826 L830 1642 L830 1676 L1014 1860 Z"/><path class="fv7" d="M1014 1826 L830 1642 L830 1676 L1014 1860 Z" /></g><g class="o"><path transform="translate(7,14)" class="S sf" d="M1165 1872 L987 1694 L1015 1694 L1193 1872 Z"/><path class="f3" d="M1165 1872 L987 1694 L1015 1694 L1193 1872 Z" /></g><g class="o"><path transform="translate(3,6)" class="S sf" d="M1122 1802 L1015 1695 L1111 1695 L1218 1802 Z"/><path class="f4" d="M1122 1802 L1015 1695 L1111 1695 L1218 1802 Z" /></g><g class="o"><path transform="translate(9,18)" class="S sfv" d="M1629 1117 L1503 991 L1503 1017 L1629 1143 Z"/><path class="fv7" d="M1629 1117 L1503 991 L1503 1017 L1629 1143 Z" /></g><g class="o"><path transform="translate(5,10)" class="S sfh" d="M1959 2047 L1359 1447 L1379 1447 L1979 2047 Z"/><path class="fh2" d="M1959 2047 L1359 1447 L1379 1447 L1979 2047 Z" /></g><g class="o"><path transform="translate(7,14)" class="S sf" d="M1113 1010 L1281 842 L1281 880 L1113 1048 Z"/><path class="f1" d="M1113 1010 L1281 842 L1281 880 L1113 1048 Z" /></g><g class="o"><path transform="translate(2,4)" class="S sfv" d="M990 1659 L474 1143 L474 1177 L990 1693 Z"/><path class="fv2" d="M990 1659 L474 1143 L474 1177 L990 1693 Z" /></g><g class="o"><path transform="translate(5,10)" class="S ssv" d="M1198 1768 L1073 1643 L1073 1673 L1198 1798 Z"/><path class="sv3" d="M1198 1768 L1073 1643 L1073 1673 L1198 1798 Z" /></g><g class="o"><path transform="translate(4,8)" class="S sf" d="M1510 2021 L1141 1652 L1141 1676 L1510 2045 Z"/><path class="f4" d="M1510 2021 L1141 1652 L1141 1676 L1510 2045 Z" /></g><g class="o"><path transform="translate(8,16)" class="S sfh" d="M1502 1414 L1650 1266 L1660 1266 L1512 1414 Z"/><path class="fh4" d="M1502 1414 L1650 1266 L1660 1266 L1512 1414 Z" /></g><g class="o"><path transform="translate(3,6)" class="S ssh" d="M1471 1203 L1387 1119 L1415 1119 L1499 1203 Z"/><path class="sh3" d="M1471 1203 L1387 1119 L1415 1119 L1499 1203 Z" /></g><g class="o"><path transform="translate(2,4)" class="S sfv" d="M1297 1342 L1474 1165 L1474 1183 L1297 1360 Z"/><path class="fv6" d="M1297 1342 L1474 1165 L1474 1183 L1297 1360 Z" /></g><g class="o"><path transform="translate(9,18)" class="S sfh" d="M1521 1477 L1005 961 L1013 961 L1529 1477 Z"/><path class="fh4" d="M1521 1477 L1005 961 L1013 961 L1529 1477 Z" /></g><g class="o"><path transform="translate(7,14)" class="S sfh" d="M1186 1340 L1277 1249 L1311 1249 L1220 1340 Z"/><path class="fh3" d="M1186 1340 L1277 1249 L1311 1249 L1220 1340 Z" /></g><g class="o"><path transform="translate(9,18)" class="S sfh" d="M990 1470 L1635 825 L1661 825 L1016 1470 Z"/><path class="fh6" d="M990 1470 L1635 825 L1661 825 L1016 1470 Z" /></g><g class="o"><path transform="translate(6,12)" class="S sfv" d="M1590 1192 L1227 829 L1227 837 L1590 1200 Z"/><path class="fv6" d="M1590 1192 L1227 829 L1227 837 L1590 1200 Z" /></g><g class="o"><path transform="translate(6,12)" class="S sf" d="M1849 1680 L2023 1506 L2119 1506 L1945 1680 Z"/><path class="f2" d="M1849 1680 L2023 1506 L2119 1506 L1945 1680 Z" /></g><g class="o"><path transform="translate(5,10)" class="S sfh" d="M1729 996 L1805 920 L1821 920 L1745 996 Z"/><path class="fh3" d="M1729 996 L1805 920 L1821 920 L1745 996 Z" /></g><g class="o"><path transform="translate(2,4)" class="S sfh" d="M1911 1478 L2017 1372 L2039 1372 L1933 1478 Z"/><path class="fh3" d="M1911 1478 L2017 1372 L2039 1372 L1933 1478 Z" /></g><g class="o"><path transform="translate(5,10)" class="S ssh" d="M1226 1086 L1001 861 L1035 861 L1260 1086 Z"/><path class="sh5" d="M1226 1086 L1001 861 L1035 861 L1260 1086 Z" /></g><g class="o"><path transform="translate(3,6)" class="S sfh" d="M1701 1203 L1930 974 L1940 974 L1711 1203 Z"/><path class="fh3" d="M1701 1203 L1930 974 L1940 974 L1711 1203 Z" /></g><g class="o"><path transform="translate(5,10)" class="S ssh" d="M1000 1520 L538 1058 L560 1058 L1022 1520 Z"/><path class="sh6" d="M1000 1520 L538 1058 L560 1058 L1022 1520 Z" /></g><g class="o"><path transform="translate(8,16)" class="S sfv" d="M1837 1078 L1947 968 L1947 976 L1837 1086 Z"/><path class="fv3" d="M1837 1078 L1947 968 L1947 976 L1837 1086 Z" /></g><g class="o"><path transform="translate(4,8)" class="S sfh" d="M1745 1212 L1568 1035 L1596 1035 L1773 1212 Z"/><path class="fh2" d="M1745 1212 L1568 1035 L1596 1035 L1773 1212 Z" /></g><g class="o"><path transform="translate(2,4)" class="S sfv" d="M1887 1509 L2108 1288 L2108 1324 L1887 1545 Z"/><path class="fv7" d="M1887 1509 L2108 1288 L2108 1324 L1887 1545 Z" /></g><g class="o"><path transform="translate(3,6)" class="S sfh" d="M1282 2010 L1104 1832 L1116 1832 L1294 2010 Z"/><path class="fh1" d="M1282 2010 L1104 1832 L1116 1832 L1294 2010 Z" /></g><g class="o"><path transform="translate(3,6)" class="S ssv" d="M1684 1010 L1855 839 L1855 869 L1684 1040 Z"/><path class="sv2" d="M1684 1010 L1855 839 L1855 869 L1684 1040 Z" /></g><g class="o"><path transform="translate(5,10)" class="S sfv" d="M2029 1130 L2240 919 L2240 947 L2029 1158 Z"/><path class="fv6" d="M2029 1130 L2240 919 L2240 947 L2029 1158 Z" /></g><g class="o"><path transform="translate(5,10)" class="S sfh" d="M1692 1652 L1095 1055 L1239 1055 L1836 1652 Z"/><path class="fh2" d="M1692 1652 L1095 1055 L1239 1055 L1836 1652 Z" /></g><g class="o"><path transform="translate(5,10)" class="S ssv" d="M1560 974 L1425 839 L1425 857 L1560 992 Z"/><path class="sv2" d="M1560 974 L1425 839 L1425 857 L1560 992 Z" /></g><g class="o"><path transform="translate(9,18)" class="S sfv" d="M1549 1416 L1492 1359 L1492 1389 L1549 1446 Z"/><path class="fv3" d="M1549 1416 L1492 1359 L1492 1389 L1549 1446 Z" /></g><g class="o"><path transform="translate(7,14)" class="S sfv" d="M1257 1147 L1929 475 L1929 501 L1257 1173 Z"/><path class="fv7" d="M1257 1147 L1929 475 L1929 501 L1257 1173 Z" /></g><g class="o"><path transform="translate(2,4)" class="S sfh" d="M1679 1968 L1498 1787 L1514 1787 L1695 1968 Z"/><path class="fh5" d="M1679 1968 L1498 1787 L1514 1787 L1695 1968 Z" /></g><g class="o"><path transform="translate(6,12)" class="S sfh" d="M1776 1920 L1603 1747 L1629 1747 L1802 1920 Z"/><path class="fh6" d="M1776 1920 L1603 1747 L1629 1747 L1802 1920 Z" /></g><g class="o"><path transform="translate(9,18)" class="S sfv" d="M1175 2033 L987 1845 L987 1857 L1175 2045 Z"/><path class="fv1" d="M1175 2033 L987 1845 L987 1857 L1175 2045 Z" /></g><g class="o"><path transform="translate(5,10)" class="S sf" d="M2015 1752 L2067 1700 L2099 1700 L2047 1752 Z"/><path class="f5" d="M2015 1752 L2067 1700 L2099 1700 L2047 1752 Z" /></g><g class="o"><path transform="translate(4,8)" class="S sfh" d="M1192 2047 L1312 1927 L1424 1927 L1304 2047 Z"/><path class="fh1" d="M1192 2047 L1312 1927 L1424 1927 L1304 2047 Z" /></g><g class="o"><path transform="translate(9,18)" class="S sfv" d="M1611 1210 L1719 1102 L1719 1126 L1611 1234 Z"/><path class="fv6" d="M1611 1210 L1719 1102 L1719 1126 L1611 1234 Z" /></g><g class="o"><path transform="translate(8,16)" class="S ss" d="M1525 1437 L1586 1376 L1602 1376 L1541 1437 Z"/><path class="s3" d="M1525 1437 L1586 1376 L1602 1376 L1541 1437 Z" /></g><g class="o"><path transform="translate(9,18)" class="S ssv" d="M1451 957 L1718 690 L1718 762 L1451 1029 Z"/><path class="sv5" d="M1451 957 L1718 690 L1718 762 L1451 1029 Z" /></g><g class="o"><path transform="translate(2,4)" class="S sf" d="M1054 1867 L937 1750 L949 1750 L1066 1867 Z"/><path class="f3" d="M1054 1867 L937 1750 L949 1750 L1066 1867 Z" /></g><g class="o"><path transform="translate(9,18)" class="S ssv" d="M2022 1689 L2129 1582 L2129 1612 L2022 1719 Z"/><path class="sv3" d="M2022 1689 L2129 1582 L2129 1612 L2022 1719 Z" /></g><g class="o"><path transform="translate(8,16)" class="S sfh" d="M2020 1741 L1489 1210 L1525 1210 L2056 1741 Z"/><path class="fh1" d="M2020 1741 L1489 1210 L1525 1210 L2056 1741 Z" /></g><g class="o"><path transform="translate(8,16)" class="S ssh" d="M1086 1509 L1022 1445 L1052 1445 L1116 1509 Z"/><path class="sh6" d="M1086 1509 L1022 1445 L1052 1445 L1116 1509 Z" /></g><g class="o"><path transform="translate(7,14)" class="S sf" d="M1902 1168 L1997 1073 L1997 1089 L1902 1184 Z"/><path class="f7" d="M1902 1168 L1997 1073 L1997 1089 L1902 1184 Z" /></g><g class="o"><path transform="translate(8,16)" class="S sfv" d="M1140 1214 L1193 1161 L1193 1179 L1140 1232 Z"/><path class="fv7" d="M1140 1214 L1193 1161 L1193 1179 L1140 1232 Z" /></g><g class="o"><path transform="translate(3,6)" class="S sfv" d="M1159 993 L918 752 L918 784 L1159 1025 Z"/><path class="fv7" d="M1159 993 L918 752 L918 784 L1159 1025 Z" /></g><g class="o"><path transform="translate(9,18)" class="S sfv" d="M1395 2014 L1221 1840 L1221 1878 L1395 2052 Z"/><path class="fv5" d="M1395 2014 L1221 1840 L1221 1878 L1395 2052 Z" /></g><g class="o"><path transform="translate(7,14)" class="S ssh" d="M1073 1124 L1244 953 L1284 953 L1113 1124 Z"/><path class="sh3" d="M1073 1124 L1244 953 L1284 953 L1113 1124 Z" /></g><g class="o"><path transform="translate(5,10)" class="S sfv" d="M1493 1682 L1593 1582 L1593 1612 L1493 1712 Z"/><path class="fv4" d="M1493 1682 L1593 1582 L1593 1612 L1493 1712 Z" /></g><g class="o"><path transform="translate(8,16)" class="S sf" d="M1524 1232 L1392 1100 L1392 1120 L1524 1252 Z"/><path class="f3" d="M1524 1232 L1392 1100 L1392 1120 L1524 1252 Z" /></g></g><use href="#slashes" transform-origin="1500 1500" transform="rotate(180) scale(2)"/></g><rect x="1080" y="1080" width="840" height="840" stroke-width="40" class="o s7" /><use href="#slashes" transform-origin="1500 1500" transform="scale(.6)"/><use href="#slashes" transform-origin="1500 1500" transform="rotate(180) scale(.6)"/></svg>