<svg xmlns="http://www.w3.org/2000/svg" viewBox="750 750 1500 1500"><style>/*<![CDATA[*/svg{background:rgb(7,30,68);max-width:100vw;max-height:100vh}path{stroke-width:4}.o{opacity:.75}.S{opacity:.4}.sf{stroke:none;fill:black}.sfh{stroke:none;fill:url(#hs)}.sfv{stroke:none;fill:url(#vs)}.ss{stroke:black;fill:none}.ssh{stroke:url(#hs);fill:none}.ssv{stroke:url(#vs);fill:none}.s1{fill:none;stroke:rgb(1,61,111)}.f1{stroke:none;fill:rgb(1,61,111)}.sh1{fill:none;stroke:url(#h1)}.fh1{stroke:none;fill:url(#h1)}.sv1{fill:none;stroke:url(#v1)}.fv1{stroke:none;fill:url(#v1)}.s2{fill:none;stroke:rgb(221,221,221)}.f2{stroke:none;fill:rgb(221,221,221)}.sh2{fill:none;stroke:url(#h2)}.fh2{stroke:none;fill:url(#h2)}.sv2{fill:none;stroke:url(#v2)}.fv2{stroke:none;fill:url(#v2)}.s3{fill:none;stroke:rgb(64,64,153)}.f3{stroke:none;fill:rgb(64,64,153)}.sh3{fill:none;stroke:url(#h3)}.fh3{stroke:none;fill:url(#h3)}.sv3{fill:none;stroke:url(#v3)}.fv3{stroke:none;fill:url(#v3)}.s4{fill:none;stroke:rgb(34,34,34)}.f4{stroke:none;fill:rgb(34,34,34)}.sh4{fill:none;stroke:url(#h4)}.fh4{stroke:none;fill:url(#h4)}.sv4{fill:none;stroke:url(#v4)}.fv4{stroke:none;fill:url(#v4)}.s5{fill:none;stroke:rgb(146,155,172)}.f5{stroke:none;fill:rgb(146,155,172)}.sh5{fill:none;stroke:url(#h5)}.fh5{stroke:none;fill:url(#h5)}.sv5{fill:none;stroke:url(#v5)}.fv5{stroke:none;fill:url(#v5)}.s6{fill:none;stroke:rgb(255,255,255)}.f6{stroke:none;fill:rgb(255,255,255)}.sh6{fill:none;stroke:url(#h6)}.fh6{stroke:none;fill:url(#h6)}.sv6{fill:none;stroke:url(#v6)}.fv6{stroke:none;fill:url(#v6)}.s7{fill:none;stroke:rgb(255,0,0)}.f7{stroke:none;fill:rgb(255,0,0)}.sh7{fill:none;stroke:url(#h7)}.fh7{stroke:none;fill:url(#h7)}.sv7{fill:none;stroke:url(#v7)}.fv7{stroke:none;fill:url(#v7)}/*]]>*/</style><defs><linearGradient gradientTransform="rotate(90)" id="hs"><stop offset="20%" stop-color="#000" /><stop offset="95%" stop-color="rgba(0, 0, 0, 0)" /></linearGradient><linearGradient id="vs"><stop offset="20%" stop-color="#000" /><stop offset="95%" stop-color="rgba(0, 0, 0, 0)" /></linearGradient><linearGradient gradientTransform="rotate(90)" id="h1"><stop offset="20%" stop-color="rgba(1,61,111,1)" /><stop offset="95%" stop-color="rgba(1,61,111,0)" /></linearGradient><linearGradient id="v1"><stop offset="20%" stop-color="rgba(1,61,111,1)" /><stop offset="95%" stop-color="rgba(1,61,111,0)" /></linearGradient><linearGradient gradientTransform="rotate(90)" id="h2"><stop offset="20%" stop-color="rgba(221,221,221,1)" /><stop offset="95%" stop-color="rgba(221,221,221,0)" /></linearGradient><linearGradient id="v2"><stop offset="20%" stop-color="rgba(221,221,221,1)" /><stop offset="95%" stop-color="rgba(221,221,221,0)" /></linearGradient><linearGradient gradientTransform="rotate(90)" id="h3"><stop offset="20%" stop-color="rgba(64,64,153,1)" /><stop offset="95%" stop-color="rgba(64,64,153,0)" /></linearGradient><linearGradient id="v3"><stop offset="20%" stop-color="rgba(64,64,153,1)" /><stop offset="95%" stop-color="rgba(64,64,153,0)" /></linearGradient><linearGradient gradientTransform="rotate(90)" id="h4"><stop offset="20%" stop-color="rgba(34,34,34,1)" /><stop offset="95%" stop-color="rgba(34,34,34,0)" /></linearGradient><linearGradient id="v4"><stop offset="20%" stop-color="rgba(34,34,34,1)" /><stop offset="95%" stop-color="rgba(34,34,34,0)" /></linearGradient><linearGradient gradientTransform="rotate(90)" id="h5"><stop offset="20%" stop-color="rgba(146,155,172,1)" /><stop offset="95%" stop-color="rgba(146,155,172,0)" /></linearGradient><linearGradient id="v5"><stop offset="20%" stop-color="rgba(146,155,172,1)" /><stop offset="95%" stop-color="rgba(146,155,172,0)" /></linearGradient><linearGradient gradientTransform="rotate(90)" id="h6"><stop offset="20%" stop-color="rgba(255,255,255,1)" /><stop offset="95%" stop-color="rgba(255,255,255,0)" /></linearGradient><linearGradient id="v6"><stop offset="20%" stop-color="rgba(255,255,255,1)" /><stop offset="95%" stop-color="rgba(255,255,255,0)" /></linearGradient><linearGradient gradientTransform="rotate(90)" id="h7"><stop offset="20%" stop-color="rgba(255,0,0,1)" /><stop offset="95%" stop-color="rgba(255,0,0,0)" /></linearGradient><linearGradient id="v7"><stop offset="20%" stop-color="rgba(255,0,0,1)" /><stop offset="95%" stop-color="rgba(255,0,0,0)" /></linearGradient></defs><g transform-origin="1500 1500" transform="scale(2)" opacity=".2"><g id="slashes"><g class="o"><path transform="translate(7,14)" class="S sfv" d="M1425 1913 L1360 1848 L1360 1874 L1425 1939 Z"/><path class="fv2" d="M1425 1913 L1360 1848 L1360 1874 L1425 1939 Z" /></g><g class="o"><path transform="translate(2,4)" class="S ss" d="M1635 1075 L1459 899 L1471 899 L1647 1075 Z"/><path class="s5" d="M1635 1075 L1459 899 L1471 899 L1647 1075 Z" /></g><g class="o"><path transform="translate(3,6)" class="S sfv" d="M951 1211 L819 1079 L819 1115 L951 1247 Z"/><path class="fv2" d="M951 1211 L819 1079 L819 1115 L951 1247 Z" /></g><g class="o"><path transform="translate(8,16)" class="S sfv" d="M1817 1831 L1660 1674 L1660 1686 L1817 1843 Z"/><path class="fv3" d="M1817 1831 L1660 1674 L1660 1686 L1817 1843 Z" /></g><g class="o"><path transform="translate(6,12)" class="S sfh" d="M1869 1225 L1809 1165 L1841 1165 L1901 1225 Z"/><path class="fh6" d="M1869 1225 L1809 1165 L1841 1165 L1901 1225 Z" /></g><g class="o"><path transform="translate(4,8)" class="S sfh" d="M1473 984 L1252 763 L1268 763 L1489 984 Z"/><path class="fh1" d="M1473 984 L1252 763 L1268 763 L1489 984 Z" /></g><g class="o"><path transform="translate(2,4)" class="S sfv" d="M2046 972 L1782 708 L1782 718 L2046 982 Z"/><path class="fv7" d="M2046 972 L1782 708 L1782 718 L2046 982 Z" /></g><g class="o"><path transform="translate(9,18)" class="S sf" d="M1829 1283 L1766 1220 L1766 1228 L1829 1291 Z"/><path class="f6" d="M1829 1283 L1766 1220 L1766 1228 L1829 1291 Z" /></g><g class="o"><path transform="translate(5,10)" class="S sfh" d="M1693 1520 L1547 1374 L1567 1374 L1713 1520 Z"/><path class="fh7" d="M1693 1520 L1547 1374 L1567 1374 L1713 1520 Z" /></g><g class="o"><path transform="translate(2,4)" class="S sfh" d="M1650 1819 L1575 1744 L1695 1744 L1770 1819 Z"/><path class="fh1" d="M1650 1819 L1575 1744 L1695 1744 L1770 1819 Z" /></g><g class="o"><path transform="translate(4,8)" class="S sf" d="M1986 2038 L1356 1408 L1382 1408 L2012 2038 Z"/><path class="f1" d="M1986 2038 L1356 1408 L1382 1408 L2012 2038 Z" /></g><g class="o"><path transform="translate(7,14)" class="S sfh" d="M1833 1565 L1609 1341 L1635 1341 L1859 1565 Z"/><path class="fh1" d="M1833 1565 L1609 1341 L1635 1341 L1859 1565 Z" /></g><g class="o"><path transform="translate(7,14)" class="S sfh" d="M1552 1783 L1429 1660 L1477 1660 L1600 1783 Z"/><path class="fh5" d="M1552 1783 L1429 1660 L1477 1660 L1600 1783 Z" /></g><g class="o"><path transform="translate(4,8)" class="S ss" d="M1710 1840 L1641 1771 L1641 1793 L1710 1862 Z"/><path class="s4" d="M1710 1840 L1641 1771 L1641 1793 L1710 1862 Z" /></g><g class="o"><path transform="translate(7,14)" class="S sfh" d="M957 1244 L860 1147 L888 1147 L985 1244 Z"/><path class="fh5" d="M957 1244 L860 1147 L888 1147 L985 1244 Z" /></g><g class="o"><path transform="translate(3,6)" class="S sfh" d="M1044 1913 L894 1763 L942 1763 L1092 1913 Z"/><path class="fh7" d="M1044 1913 L894 1763 L942 1763 L1092 1913 Z" /></g><g class="o"><path transform="translate(6,12)" class="S sfh" d="M1989 1473 L1251 735 L1273 735 L2011 1473 Z"/><path class="fh2" d="M1989 1473 L1251 735 L1273 735 L2011 1473 Z" /></g><g class="o"><path transform="translate(7,14)" class="S sf" d="M1542 1667 L1322 1447 L1322 1459 L1542 1679 Z"/><path class="f3" d="M1542 1667 L1322 1447 L1322 1459 L1542 1679 Z" /></g><g class="o"><path transform="translate(3,6)" class="S sfv" d="M1834 1991 L1652 1809 L1652 1847 L1834 2029 Z"/><path class="fv5" d="M1834 1991 L1652 1809 L1652 1847 L1834 2029 Z" /></g><g class="o"><path transform="translate(4,8)" class="S sfh" d="M1107 1380 L957 1230 L985 1230 L1135 1380 Z"/><path class="fh4" d="M1107 1380 L957 1230 L985 1230 L1135 1380 Z" /></g><g class="o"><path transform="translate(3,6)" class="S sfh" d="M979 971 L780 772 L818 772 L1017 971 Z"/><path class="fh7" d="M979 971 L780 772 L818 772 L1017 971 Z" /></g><g class="o"><path transform="translate(6,12)" class="S ss" d="M1428 1104 L1253 929 L1267 929 L1442 1104 Z"/><path class="s4" d="M1428 1104 L1253 929 L1267 929 L1442 1104 Z" /></g><g class="o"><path transform="translate(7,14)" class="S sfh" d="M970 1457 L866 1353 L900 1353 L1004 1457 Z"/><path class="fh1" d="M970 1457 L866 1353 L900 1353 L1004 1457 Z" /></g><g class="o"><path transform="translate(6,12)" class="S sf" d="M1736 1359 L1460 1083 L1460 1155 L1736 1431 Z"/><path class="f1" d="M1736 1359 L1460 1083 L1460 1155 L1736 1431 Z" /></g><g class="o"><path transform="translate(6,12)" class="S sfh" d="M1971 1178 L1780 987 L1810 987 L2001 1178 Z"/><path class="fh3" d="M1971 1178 L1780 987 L1810 987 L2001 1178 Z" /></g><g class="o"><path transform="translate(3,6)" class="S sfh" d="M1147 1717 L980 1550 L994 1550 L1161 1717 Z"/><path class="fh7" d="M1147 1717 L980 1550 L994 1550 L1161 1717 Z" /></g><g class="o"><path transform="translate(7,14)" class="S sfh" d="M1325 1069 L1242 986 L1270 986 L1353 1069 Z"/><path class="fh4" d="M1325 1069 L1242 986 L1270 986 L1353 1069 Z" /></g><g class="o"><path transform="translate(8,16)" class="S sf" d="M1245 969 L1117 841 L1117 859 L1245 987 Z"/><path class="f7" d="M1245 969 L1117 841 L1117 859 L1245 987 Z" /></g><g class="o"><path transform="translate(6,12)" class="S sfv" d="M1589 2017 L1449 1877 L1449 1913 L1589 2053 Z"/><path class="fv2" d="M1589 2017 L1449 1877 L1449 1913 L1589 2053 Z" /></g><g class="o"><path transform="translate(7,14)" class="S sfv" d="M1795 1712 L1547 1464 L1547 1482 L1795 1730 Z"/><path class="fv7" d="M1795 1712 L1547 1464 L1547 1482 L1795 1730 Z" /></g><g class="o"><path transform="translate(4,8)" class="S sfv" d="M1074 1203 L832 961 L832 973 L1074 1215 Z"/><path class="fv1" d="M1074 1203 L832 961 L832 973 L1074 1215 Z" /></g><g class="o"><path transform="translate(5,10)" class="S sf" d="M1700 1350 L1520 1170 L1528 1170 L1708 1350 Z"/><path class="f5" d="M1700 1350 L1520 1170 L1528 1170 L1708 1350 Z" /></g><g class="o"><path transform="translate(3,6)" class="S sfv" d="M978 1714 L855 1591 L855 1607 L978 1730 Z"/><path class="fv5" d="M978 1714 L855 1591 L855 1607 L978 1730 Z" /></g><g class="o"><path transform="translate(9,18)" class="S sfv" d="M1323 1408 L996 1081 L996 1107 L1323 1434 Z"/><path class="fv5" d="M1323 1408 L996 1081 L996 1107 L1323 1434 Z" /></g><g class="o"><path transform="translate(4,8)" class="S sfh" d="M1156 1310 L910 1064 L932 1064 L1178 1310 Z"/><path class="fh7" d="M1156 1310 L910 1064 L932 1064 L1178 1310 Z" /></g><g class="o"><path transform="translate(9,18)" class="S sf" d="M1364 1393 L1228 1257 L1228 1285 L1364 1421 Z"/><path class="f6" d="M1364 1393 L1228 1257 L1228 1285 L1364 1421 Z" /></g><g class="o"><path transform="translate(3,6)" class="S ssh" d="M1592 1933 L1424 1765 L1452 1765 L1620 1933 Z"/><path class="sh4" d="M1592 1933 L1424 1765 L1452 1765 L1620 1933 Z" /></g><g class="o"><path transform="translate(4,8)" class="S sf" d="M1474 2019 L1379 1924 L1401 1924 L1496 2019 Z"/><path class="f2" d="M1474 2019 L1379 1924 L1401 1924 L1496 2019 Z" /></g><g class="o"><path transform="translate(4,8)" class="S ssh" d="M1823 1138 L1744 1059 L1770 1059 L1849 1138 Z"/><path class="sh5" d="M1823 1138 L1744 1059 L1770 1059 L1849 1138 Z" /></g><g class="o"><path transform="translate(2,4)" class="S sfh" d="M1345 999 L1290 944 L1328 944 L1383 999 Z"/><path class="fh3" d="M1345 999 L1290 944 L1328 944 L1383 999 Z" /></g><g class="o"><path transform="translate(5,10)" class="S sf" d="M949 1901 L766 1718 L792 1718 L975 1901 Z"/><path class="f4" d="M949 1901 L766 1718 L792 1718 L975 1901 Z" /></g><g class="o"><path transform="translate(2,4)" class="S sfh" d="M1694 1086 L1494 886 L1606 886 L1806 1086 Z"/><path class="fh5" d="M1694 1086 L1494 886 L1606 886 L1806 1086 Z" /></g><g class="o"><path transform="translate(9,18)" class="S sf" d="M1047 1354 L992 1299 L992 1315 L1047 1370 Z"/><path class="f7" d="M1047 1354 L992 1299 L992 1315 L1047 1370 Z" /></g><g class="o"><path transform="translate(3,6)" class="S sfv" d="M1991 1976 L1818 1803 L1818 1843 L1991 2016 Z"/><path class="fv6" d="M1991 1976 L1818 1803 L1818 1843 L1991 2016 Z" /></g><g class="o"><path transform="translate(6,12)" class="S sf" d="M1686 1928 L1627 1869 L1665 1869 L1724 1928 Z"/><path class="f2" d="M1686 1928 L1627 1869 L1665 1869 L1724 1928 Z" /></g><g class="o"><path transform="translate(9,18)" class="S sf" d="M1579 942 L1352 715 L1352 735 L1579 962 Z"/><path class="f3" d="M1579 942 L1352 715 L1352 735 L1579 962 Z" /></g><g class="o"><path transform="translate(5,10)" class="S sfh" d="M1898 1699 L1752 1553 L1780 1553 L1926 1699 Z"/><path class="fh1" d="M1898 1699 L1752 1553 L1780 1553 L1926 1699 Z" /></g><g class="o"><path transform="translate(8,16)" class="S sfv" d="M1946 1455 L1825 1334 L1825 1356 L1946 1477 Z"/><path class="fv4" d="M1946 1455 L1825 1334 L1825 1356 L1946 1477 Z" /></g><g class="o"><path transform="translate(7,14)" class="S sf" d="M1236 1235 L1009 1008 L1017 1008 L1244 1235 Z"/><path class="f2" d="M1236 1235 L1009 1008 L1017 1008 L1244 1235 Z" /></g><g class="o"><path transform="translate(9,18)" class="S sfh" d="M1927 1892 L1831 1796 L1845 1796 L1941 1892 Z"/><path class="fh3" d="M1927 1892 L1831 1796 L1845 1796 L1941 1892 Z" /></g><g class="o"><path transform="translate(7,14)" class="S ssh" d="M1929 1237 L1809 1117 L1841 1117 L1961 1237 Z"/><path class="sh4" d="M1929 1237 L1809 1117 L1841 1117 L1961 1237 Z" /></g><g class="o"><path transform="translate(9,18)" class="S sfv" d="M1668 1018 L1557 907 L1557 927 L1668 1038 Z"/><path class="fv4" d="M1668 1018 L1557 907 L1557 927 L1668 1038 Z" /></g><g class="o"><path transform="translate(6,12)" class="S sfh" d="M1205 1419 L1151 1365 L1161 1365 L1215 1419 Z"/><path class="fh7" d="M1205 1419 L1151 1365 L1161 1365 L1215 1419 Z" /></g><g class="o"><path transform="translate(3,6)" class="S sfv" d="M2029 1905 L1918 1794 L1918 1832 L2029 1943 Z"/><path class="fv2" d="M2029 1905 L1918 1794 L1918 1832 L2029 1943 Z" /></g><g class="o"><path transform="translate(9,18)" class="S sfv" d="M1319 1258 L1055 994 L1055 1010 L1319 1274 Z"/><path class="fv3" d="M1319 1258 L1055 994 L1055 1010 L1319 1274 Z" /></g><g class="o"><path transform="translate(9,18)" class="S sfh" d="M1369 1511 L1282 1424 L1304 1424 L1391 1511 Z"/><path class="fh6" d="M1369 1511 L1282 1424 L1304 1424 L1391 1511 Z" /></g><g class="o"><path transform="translate(8,16)" class="S sfh" d="M1610 1947 L1208 1545 L1218 1545 L1620 1947 Z"/><path class="fh1" d="M1610 1947 L1208 1545 L1218 1545 L1620 1947 Z" /></g><g class="o"><path transform="translate(6,12)" class="S ss" d="M1348 1576 L1132 1360 L1132 1388 L1348 1604 Z"/><path class="s5" d="M1348 1576 L1132 1360 L1132 1388 L1348 1604 Z" /></g><g class="o"><path transform="translate(7,14)" class="S sfh" d="M1418 1268 L1319 1169 L1353 1169 L1452 1268 Z"/><path class="fh7" d="M1418 1268 L1319 1169 L1353 1169 L1452 1268 Z" /></g><g class="o"><path transform="translate(3,6)" class="S sfv" d="M1359 1014 L1101 756 L1101 766 L1359 1024 Z"/><path class="fv3" d="M1359 1014 L1101 756 L1101 766 L1359 1024 Z" /></g><g class="o"><path transform="translate(2,4)" class="S sfh" d="M1458 1106 L1353 1001 L1383 1001 L1488 1106 Z"/><path class="fh4" d="M1458 1106 L1353 1001 L1383 1001 L1488 1106 Z" /></g><g class="o"><path transform="translate(4,8)" class="S ssh" d="M1686 1690 L1441 1445 L1459 1445 L1704 1690 Z"/><path class="sh4" d="M1686 1690 L1441 1445 L1459 1445 L1704 1690 Z" /></g><g class="o"><path transform="translate(3,6)" class="S sfv" d="M1703 1948 L1628 1873 L1628 1881 L1703 1956 Z"/><path class="fv4" d="M1703 1948 L1628 1873 L1628 1881 L1703 1956 Z" /></g><g class="o"><path transform="translate(9,18)" class="S sfh" d="M1690 1654 L1561 1525 L1579 1525 L1708 1654 Z"/><path class="fh1" d="M1690 1654 L1561 1525 L1579 1525 L1708 1654 Z" /></g><g class="o"><path transform="translate(4,8)" class="S sfv" d="M1509 1493 L1328 1312 L1328 1344 L1509 1525 Z"/><path class="fv5" d="M1509 1493 L1328 1312 L1328 1344 L1509 1525 Z" /></g><g class="o"><path transform="translate(8,16)" class="S sfh" d="M1132 1980 L592 1440 L616 1440 L1156 1980 Z"/><path class="fh7" d="M1132 1980 L592 1440 L616 1440 L1156 1980 Z" /></g><g class="o"><path transform="translate(6,12)" class="S sfh" d="M1522 1541 L1351 1370 L1371 1370 L1542 1541 Z"/><path class="fh3" d="M1522 1541 L1351 1370 L1371 1370 L1542 1541 Z" /></g><g class="o"><path transform="translate(3,6)" class="S sfv" d="M1903 1934 L1669 1700 L1669 1732 L1903 1966 Z"/><path class="fv2" d="M1903 1934 L1669 1700 L1669 1732 L1903 1966 Z" /></g><g class="o"><path transform="translate(7,14)" class="S sfv" d="M1456 1535 L1271 1350 L1271 1374 L1456 1559 Z"/><path class="fv1" d="M1456 1535 L1271 1350 L1271 1374 L1456 1559 Z" /></g><g class="o"><path transform="translate(8,16)" class="S ssv" d="M1692 1212 L1581 1101 L1581 1127 L1692 1238 Z"/><path class="sv2" d="M1692 1212 L1581 1101 L1581 1127 L1692 1238 Z" /></g><g class="o"><path transform="translate(4,8)" class="S sfh" d="M1664 2045 L1492 1873 L1516 1873 L1688 2045 Z"/><path class="fh5" d="M1664 2045 L1492 1873 L1516 1873 L1688 2045 Z" /></g><g class="o"><path transform="translate(6,12)" class="S sfh" d="M1925 1320 L1825 1220 L1845 1220 L1945 1320 Z"/><path class="fh5" d="M1925 1320 L1825 1220 L1845 1220 L1945 1320 Z" /></g><g class="o"><path transform="translate(4,8)" class="S sfv" d="M1458 1224 L1224 990 L1224 1020 L1458 1254 Z"/><path class="fv5" d="M1458 1224 L1224 990 L1224 1020 L1458 1254 Z" /></g><g class="o"><path transform="translate(8,16)" class="S sfh" d="M1536 1799 L1380 1643 L1428 1643 L1584 1799 Z"/><path class="fh4" d="M1536 1799 L1380 1643 L1428 1643 L1584 1799 Z" /></g><g class="o"><path transform="translate(6,12)" class="S sfv" d="M1083 1035 L839 791 L839 825 L1083 1069 Z"/><path class="fv2" d="M1083 1035 L839 791 L839 825 L1083 1069 Z" /></g><g class="o"><path transform="translate(5,10)" class="S sfv" d="M979 1996 L817 1834 L817 1868 L979 2030 Z"/><path class="fv2" d="M979 1996 L817 1834 L817 1868 L979 2030 Z" /></g><g class="o"><path transform="translate(4,8)" class="S sf" d="M1806 1959 L1089 1242 L1097 1242 L1814 1959 Z"/><path class="f7" d="M1806 1959 L1089 1242 L1097 1242 L1814 1959 Z" /></g><g class="o"><path transform="translate(4,8)" class="S ssh" d="M1280 1261 L1136 1117 L1164 1117 L1308 1261 Z"/><path class="sh4" d="M1280 1261 L1136 1117 L1164 1117 L1308 1261 Z" /></g><g class="o"><path transform="translate(3,6)" class="S sf" d="M1260 1631 L1055 1426 L1055 1462 L1260 1667 Z"/><path class="f4" d="M1260 1631 L1055 1426 L1055 1462 L1260 1667 Z" /></g><g class="o"><path transform="translate(2,4)" class="S sfv" d="M1740 1206 L1493 959 L1493 989 L1740 1236 Z"/><path class="fv2" d="M1740 1206 L1493 959 L1493 989 L1740 1236 Z" /></g><g class="o"><path transform="translate(6,12)" class="S sfv" d="M1027 1771 L823 1567 L823 1589 L1027 1793 Z"/><path class="fv7" d="M1027 1771 L823 1567 L823 1589 L1027 1793 Z" /></g><g class="o"><path transform="translate(6,12)" class="S sfv" d="M1215 1543 L1065 1393 L1065 1409 L1215 1559 Z"/><path class="fv4" d="M1215 1543 L1065 1393 L1065 1409 L1215 1559 Z" /></g><g class="o"><path transform="translate(3,6)" class="S sf" d="M1385 1809 L866 1290 L874 1290 L1393 1809 Z"/><path class="f6" d="M1385 1809 L866 1290 L874 1290 L1393 1809 Z" /></g><g class="o"><path transform="translate(7,14)" class="S ssv" d="M1786 2030 L1676 1920 L1676 1958 L1786 2068 Z"/><path class="sv2" d="M1786 2030 L1676 1920 L1676 1958 L1786 2068 Z" /></g><g class="o"><path transform="translate(8,16)" class="S sfv" d="M1636 1155 L1468 987 L1468 1009 L1636 1177 Z"/><path class="fv2" d="M1636 1155 L1468 987 L1468 1009 L1636 1177 Z" /></g><g class="o"><path transform="translate(3,6)" class="S sf" d="M1918 1888 L1760 1730 L1760 1750 L1918 1908 Z"/><path class="f5" d="M1918 1888 L1760 1730 L1760 1750 L1918 1908 Z" /></g><g class="o"><path transform="translate(6,12)" class="S sfh" d="M1581 1093 L1426 938 L1434 938 L1589 1093 Z"/><path class="fh5" d="M1581 1093 L1426 938 L1434 938 L1589 1093 Z" /></g><g class="o"><path transform="translate(5,10)" class="S sfv" d="M1237 1796 L1002 1561 L1002 1577 L1237 1812 Z"/><path class="fv2" d="M1237 1796 L1002 1561 L1002 1577 L1237 1812 Z" /></g><g class="o"><path transform="translate(4,8)" class="S sfv" d="M1936 1388 L1755 1207 L1755 1239 L1936 1420 Z"/><path class="fv4" d="M1936 1388 L1755 1207 L1755 1239 L1936 1420 Z" /></g><g class="o"><path transform="translate(3,6)" class="S sf" d="M1279 1409 L1145 1275 L1163 1275 L1297 1409 Z"/><path class="f7" d="M1279 1409 L1145 1275 L1163 1275 L1297 1409 Z" /></g><g class="o"><path transform="translate(8,16)" class="S sfv" d="M1738 1931 L1575 1768 L1575 1804 L1738 1967 Z"/><path class="fv6" d="M1738 1931 L1575 1768 L1575 1804 L1738 1967 Z" /></g><g class="o"><path transform="translate(4,8)" class="S sf" d="M1072 1346 L969 1243 L1001 1243 L1104 1346 Z"/><path class="f4" d="M1072 1346 L969 1243 L1001 1243 L1104 1346 Z" /></g><g class="o"><path transform="translate(2,4)" class="S sf" d="M1892 982 L1748 838 L1760 838 L1904 982 Z"/><path class="f7" d="M1892 982 L1748 838 L1760 838 L1904 982 Z" /></g><g class="o"><path transform="translate(6,12)" class="S sfh" d="M1040 1883 L981 1824 L1009 1824 L1068 1883 Z"/><path class="fh3" d="M1040 1883 L981 1824 L1009 1824 L1068 1883 Z" /></g><g class="o"><path transform="translate(6,12)" class="S sf" d="M1294 1784 L637 1127 L637 1157 L1294 1814 Z"/><path class="f3" d="M1294 1784 L637 1127 L637 1157 L1294 1814 Z" /></g><g class="o"><path transform="translate(8,16)" class="S ssh" d="M1864 1848 L1708 1692 L1716 1692 L1872 1848 Z"/><path class="sh6" d="M1864 1848 L1708 1692 L1716 1692 L1872 1848 Z" /></g><g class="o"><path transform="translate(3,6)" class="S sfh" d="M1398 1760 L1154 1516 L1188 1516 L1432 1760 Z"/><path class="fh7" d="M1398 1760 L1154 1516 L1188 1516 L1432 1760 Z" /></g><g class="o"><path transform="translate(2,4)" class="S sfh" d="M976 1693 L823 1540 L841 1540 L994 1693 Z"/><path class="fh3" d="M976 1693 L823 1540 L841 1540 L994 1693 Z" /></g><g class="o"><path transform="translate(5,10)" class="S sfh" d="M1414 1860 L1177 1623 L1197 1623 L1434 1860 Z"/><path class="fh6" d="M1414 1860 L1177 1623 L1197 1623 L1434 1860 Z" /></g><g class="o"><path transform="translate(7,14)" class="S sfv" d="M2005 999 L1952 946 L1952 958 L2005 1011 Z"/><path class="fv4" d="M2005 999 L1952 946 L1952 958 L2005 1011 Z" /></g><g class="o"><path transform="translate(3,6)" class="S sfh" d="M1937 1558 L1859 1480 L1895 1480 L1973 1558 Z"/><path class="fh7" d="M1937 1558 L1859 1480 L1895 1480 L1973 1558 Z" /></g><g class="o"><path transform="translate(9,18)" class="S sfv" d="M1673 1300 L1490 1117 L1490 1149 L1673 1332 Z"/><path class="fv2" d="M1673 1300 L1490 1117 L1490 1149 L1673 1332 Z" /></g><g class="o"><path transform="translate(8,16)" class="S sfv" d="M2036 1746 L1909 1619 L1909 1731 L2036 1858 Z"/><path class="fv7" d="M2036 1746 L1909 1619 L1909 1731 L2036 1858 Z" /></g><g class="o"><path transform="translate(6,12)" class="S sfv" d="M1084 1163 L971 1050 L971 1088 L1084 1201 Z"/><path class="fv1" d="M1084 1163 L971 1050 L971 1088 L1084 1201 Z" /></g><g class="o"><path transform="translate(3,6)" class="S sfv" d="M1382 1936 L1208 1762 L1208 1772 L1382 1946 Z"/><path class="fv1" d="M1382 1936 L1208 1762 L1208 1772 L1382 1946 Z" /></g><g class="o"><path transform="translate(5,10)" class="S sfh" d="M1504 1666 L1361 1523 L1389 1523 L1532 1666 Z"/><path class="fh1" d="M1504 1666 L1361 1523 L1389 1523 L1532 1666 Z" /></g><g class="o"><path transform="translate(3,6)" class="S sfh" d="M1676 963 L1037 324 L1067 324 L1706 963 Z"/><path class="fh2" d="M1676 963 L1037 324 L1067 324 L1706 963 Z" /></g><g class="o"><path transform="translate(3,6)" class="S sfv" d="M1296 1132 L606 442 L606 460 L1296 1150 Z"/><path class="fv6" d="M1296 1132 L606 442 L606 460 L1296 1150 Z" /></g><g class="o"><path transform="translate(5,10)" class="S sfv" d="M1640 1046 L929 335 L929 343 L1640 1054 Z"/><path class="fv1" d="M1640 1046 L929 335 L929 343 L1640 1054 Z" /></g><g class="o"><path transform="translate(2,4)" class="S sf" d="M1959 1133 L1752 926 L1752 954 L1959 1161 Z"/><path class="f4" d="M1959 1133 L1752 926 L1752 954 L1959 1161 Z" /></g><g class="o"><path transform="translate(7,14)" class="S ss" d="M1074 1828 L833 1587 L833 1611 L1074 1852 Z"/><path class="s5" d="M1074 1828 L833 1587 L833 1611 L1074 1852 Z" /></g><g class="o"><path transform="translate(2,4)" class="S ss" d="M1082 1545 L1010 1473 L1010 1487 L1082 1559 Z"/><path class="s6" d="M1082 1545 L1010 1473 L1010 1487 L1082 1559 Z" /></g><g class="o"><path transform="translate(2,4)" class="S sfv" d="M1147 1187 L613 653 L613 667 L1147 1201 Z"/><path class="fv4" d="M1147 1187 L613 653 L613 667 L1147 1201 Z" /></g><g class="o"><path transform="translate(8,16)" class="S sfv" d="M1708 1969 L1479 1740 L1479 1774 L1708 2003 Z"/><path class="fv4" d="M1708 1969 L1479 1740 L1479 1774 L1708 2003 Z" /></g><g class="o"><path transform="translate(3,6)" class="S sfh" d="M1986 1081 L1803 898 L1839 898 L2022 1081 Z"/><path class="fh4" d="M1986 1081 L1803 898 L1839 898 L2022 1081 Z" /></g><g class="o"><path transform="translate(4,8)" class="S sfv" d="M1130 1434 L978 1282 L978 1292 L1130 1444 Z"/><path class="fv6" d="M1130 1434 L978 1282 L978 1292 L1130 1444 Z" /></g><g class="o"><path transform="translate(9,18)" class="S sfv" d="M1752 1361 L1635 1244 L1635 1364 L1752 1481 Z"/><path class="fv3" d="M1752 1361 L1635 1244 L1635 1364 L1752 1481 Z" /></g><g class="o"><path transform="translate(5,10)" class="S sf" d="M1182 1924 L995 1737 L1023 1737 L1210 1924 Z"/><path class="f5" d="M1182 1924 L995 1737 L1023 1737 L1210 1924 Z" /></g><g class="o"><path transform="translate(7,14)" class="S ss" d="M1805 1802 L1743 1740 L1743 1766 L1805 1828 Z"/><path class="s3" d="M1805 1802 L1743 1740 L1743 1766 L1805 1828 Z" /></g><g class="o"><path transform="translate(7,14)" class="S sfv" d="M1533 1675 L1477 1619 L1477 1641 L1533 1697 Z"/><path class="fv6" d="M1533 1675 L1477 1619 L1477 1641 L1533 1697 Z" /></g><g class="o"><path transform="translate(8,16)" class="S sfh" d="M2025 1680 L1938 1593 L1968 1593 L2055 1680 Z"/><path class="fh4" d="M2025 1680 L1938 1593 L1968 1593 L2055 1680 Z" /></g><g class="o"><path transform="translate(6,12)" class="S sf" d="M1493 1211 L1400 1118 L1400 1152 L1493 1245 Z"/><path class="f6" d="M1493 1211 L1400 1118 L1400 1152 L1493 1245 Z" /></g><g class="o"><path transform="translate(6,12)" class="S sfv" d="M977 1801 L904 1728 L904 1766 L977 1839 Z"/><path class="fv5" d="M977 1801 L904 1728 L904 1766 L977 1839 Z" /></g><g class="o"><path transform="translate(6,12)" class="S sfh" d="M1222 1081 L1109 968 L1125 968 L1238 1081 Z"/><path class="fh5" d="M1222 1081 L1109 968 L1125 968 L1238 1081 Z" /></g><g class="o"><path transform="translate(3,6)" class="S ssh" d="M1947 1766 L1789 1608 L1811 1608 L1969 1766 Z"/><path class="sh4" d="M1947 1766 L1789 1608 L1811 1608 L1969 1766 Z" /></g><g class="o"><path transform="translate(5,10)" class="S sfh" d="M1050 1062 L841 853 L859 853 L1068 1062 Z"/><path class="fh5" d="M1050 1062 L841 853 L859 853 L1068 1062 Z" /></g><g class="o"><path transform="translate(5,10)" class="S ss" d="M1811 1485 L1631 1305 L1631 1313 L1811 1493 Z"/><path class="s4" d="M1811 1485 L1631 1305 L1631 1313 L1811 1493 Z" /></g><g class="o"><path transform="translate(3,6)" class="S ssh" d="M1708 2047 L1474 1813 L1502 1813 L1736 2047 Z"/><path class="sh6" d="M1708 2047 L1474 1813 L1502 1813 L1736 2047 Z" /></g><g class="o"><path transform="translate(4,8)" class="S sf" d="M1149 1906 L1015 1772 L1045 1772 L1179 1906 Z"/><path class="f1" d="M1149 1906 L1015 1772 L1045 1772 L1179 1906 Z" /></g><g class="o"><path transform="translate(7,14)" class="S sfh" d="M1536 1336 L1332 1132 L1380 1132 L1584 1336 Z"/><path class="fh1" d="M1536 1336 L1332 1132 L1380 1132 L1584 1336 Z" /></g></g><use href="#slashes" transform-origin="1500 1500" transform="rotate(180) scale(2)"/></g><rect x="1080" y="1080" width="840" height="840" stroke-width="80" class="o s7" /><use href="#slashes" transform-origin="1500 1500" transform="scale(.6)"/><use href="#slashes" transform-origin="1500 1500" transform="rotate(180) scale(.6)"/></svg>