<svg xmlns="http://www.w3.org/2000/svg" viewBox="750 750 1500 1500"><style>/*<![CDATA[*/svg{background:rgb(31,29,89);max-width:100vw;max-height:100vh}path{stroke-width:4}.o{opacity:.75}.S{opacity:.4}.sf{stroke:none;fill:black}.sfh{stroke:none;fill:url(#hs)}.sfv{stroke:none;fill:url(#vs)}.ss{stroke:black;fill:none}.ssh{stroke:url(#hs);fill:none}.ssv{stroke:url(#vs);fill:none}.s1{fill:none;stroke:rgb(48,40,64)}.f1{stroke:none;fill:rgb(48,40,64)}.sh1{fill:none;stroke:url(#h1)}.fh1{stroke:none;fill:url(#h1)}.sv1{fill:none;stroke:url(#v1)}.fv1{stroke:none;fill:url(#v1)}.s2{fill:none;stroke:rgb(221,221,221)}.f2{stroke:none;fill:rgb(221,221,221)}.sh2{fill:none;stroke:url(#h2)}.fh2{stroke:none;fill:url(#h2)}.sv2{fill:none;stroke:url(#v2)}.fv2{stroke:none;fill:url(#v2)}.s3{fill:none;stroke:rgb(128,128,128)}.f3{stroke:none;fill:rgb(128,128,128)}.sh3{fill:none;stroke:url(#h3)}.fh3{stroke:none;fill:url(#h3)}.sv3{fill:none;stroke:url(#v3)}.fv3{stroke:none;fill:url(#v3)}.s4{fill:none;stroke:rgb(34,34,34)}.f4{stroke:none;fill:rgb(34,34,34)}.sh4{fill:none;stroke:url(#h4)}.fh4{stroke:none;fill:url(#h4)}.sv4{fill:none;stroke:url(#v4)}.fv4{stroke:none;fill:url(#v4)}.s5{fill:none;stroke:rgb(62,81,140)}.f5{stroke:none;fill:rgb(62,81,140)}.sh5{fill:none;stroke:url(#h5)}.fh5{stroke:none;fill:url(#h5)}.sv5{fill:none;stroke:url(#v5)}.fv5{stroke:none;fill:url(#v5)}.s6{fill:none;stroke:rgb(255,255,255)}.f6{stroke:none;fill:rgb(255,255,255)}.sh6{fill:none;stroke:url(#h6)}.fh6{stroke:none;fill:url(#h6)}.sv6{fill:none;stroke:url(#v6)}.fv6{stroke:none;fill:url(#v6)}.s7{fill:none;stroke:rgb(255,0,0)}.f7{stroke:none;fill:rgb(255,0,0)}.sh7{fill:none;stroke:url(#h7)}.fh7{stroke:none;fill:url(#h7)}.sv7{fill:none;stroke:url(#v7)}.fv7{stroke:none;fill:url(#v7)}/*]]>*/</style><defs><linearGradient gradientTransform="rotate(90)" id="hs"><stop offset="20%" stop-color="#000" /><stop offset="95%" stop-color="rgba(0, 0, 0, 0)" /></linearGradient><linearGradient id="vs"><stop offset="20%" stop-color="#000" /><stop offset="95%" stop-color="rgba(0, 0, 0, 0)" /></linearGradient><linearGradient gradientTransform="rotate(90)" id="h1"><stop offset="20%" stop-color="rgba(48,40,64,1)" /><stop offset="95%" stop-color="rgba(48,40,64,0)" /></linearGradient><linearGradient id="v1"><stop offset="20%" stop-color="rgba(48,40,64,1)" /><stop offset="95%" stop-color="rgba(48,40,64,0)" /></linearGradient><linearGradient gradientTransform="rotate(90)" id="h2"><stop offset="20%" stop-color="rgba(221,221,221,1)" /><stop offset="95%" stop-color="rgba(221,221,221,0)" /></linearGradient><linearGradient id="v2"><stop offset="20%" stop-color="rgba(221,221,221,1)" /><stop offset="95%" stop-color="rgba(221,221,221,0)" /></linearGradient><linearGradient gradientTransform="rotate(90)" id="h3"><stop offset="20%" stop-color="rgba(128,128,128,1)" /><stop offset="95%" stop-color="rgba(128,128,128,0)" /></linearGradient><linearGradient id="v3"><stop offset="20%" stop-color="rgba(128,128,128,1)" /><stop offset="95%" stop-color="rgba(128,128,128,0)" /></linearGradient><linearGradient gradientTransform="rotate(90)" id="h4"><stop offset="20%" stop-color="rgba(34,34,34,1)" /><stop offset="95%" stop-color="rgba(34,34,34,0)" /></linearGradient><linearGradient id="v4"><stop offset="20%" stop-color="rgba(34,34,34,1)" /><stop offset="95%" stop-color="rgba(34,34,34,0)" /></linearGradient><linearGradient gradientTransform="rotate(90)" id="h5"><stop offset="20%" stop-color="rgba(62,81,140,1)" /><stop offset="95%" stop-color="rgba(62,81,140,0)" /></linearGradient><linearGradient id="v5"><stop offset="20%" stop-color="rgba(62,81,140,1)" /><stop offset="95%" stop-color="rgba(62,81,140,0)" /></linearGradient><linearGradient gradientTransform="rotate(90)" id="h6"><stop offset="20%" stop-color="rgba(255,255,255,1)" /><stop offset="95%" stop-color="rgba(255,255,255,0)" /></linearGradient><linearGradient id="v6"><stop offset="20%" stop-color="rgba(255,255,255,1)" /><stop offset="95%" stop-color="rgba(255,255,255,0)" /></linearGradient><linearGradient gradientTransform="rotate(90)" id="h7"><stop offset="20%" stop-color="rgba(255,0,0,1)" /><stop offset="95%" stop-color="rgba(255,0,0,0)" /></linearGradient><linearGradient id="v7"><stop offset="20%" stop-color="rgba(255,0,0,1)" /><stop offset="95%" stop-color="rgba(255,0,0,0)" /></linearGradient></defs><g transform-origin="1500 1500" transform="scale(2)" opacity=".2"><g id="slashes"><g class="o"><path transform="translate(9,18)" class="S ssv" d="M1569 1588 L1431 1726 L1431 1744 L1569 1606 Z"/><path class="sv6" d="M1569 1588 L1431 1726 L1431 1744 L1569 1606 Z" /></g><g class="o"><path transform="translate(2,4)" class="S sfv" d="M1465 961 L2050 376 L2050 472 L1465 1057 Z"/><path class="fv6" d="M1465 961 L2050 376 L2050 472 L1465 1057 Z" /></g><g class="o"><path transform="translate(5,10)" class="S ssv" d="M2029 1948 L1888 2089 L1888 2097 L2029 1956 Z"/><path class="sv6" d="M2029 1948 L1888 2089 L1888 2097 L2029 1956 Z" /></g><g class="o"><path transform="translate(4,8)" class="S sfh" d="M1691 1817 L1746 1762 L1776 1762 L1721 1817 Z"/><path class="fh2" d="M1691 1817 L1746 1762 L1776 1762 L1721 1817 Z" /></g><g class="o"><path transform="translate(3,6)" class="S sfh" d="M1740 1679 L1962 1457 L1970 1457 L1748 1679 Z"/><path class="fh5" d="M1740 1679 L1962 1457 L1970 1457 L1748 1679 Z" /></g><g class="o"><path transform="translate(2,4)" class="S sfh" d="M1649 1909 L1714 1844 L1736 1844 L1671 1909 Z"/><path class="fh7" d="M1649 1909 L1714 1844 L1736 1844 L1671 1909 Z" /></g><g class="o"><path transform="translate(6,12)" class="S sfv" d="M1860 1274 L2077 1057 L2077 1079 L1860 1296 Z"/><path class="fv7" d="M1860 1274 L2077 1057 L2077 1079 L1860 1296 Z" /></g><g class="o"><path transform="translate(2,4)" class="S sfv" d="M1458 1168 L1668 1378 L1668 1498 L1458 1288 Z"/><path class="fv5" d="M1458 1168 L1668 1378 L1668 1498 L1458 1288 Z" /></g><g class="o"><path transform="translate(2,4)" class="S sfh" d="M1224 1944 L1413 1755 L1493 1755 L1304 1944 Z"/><path class="fh4" d="M1224 1944 L1413 1755 L1493 1755 L1304 1944 Z" /></g><g class="o"><path transform="translate(7,14)" class="S sfv" d="M1930 1610 L2174 1366 L2174 1518 L1930 1762 Z"/><path class="fv7" d="M1930 1610 L2174 1366 L2174 1518 L1930 1762 Z" /></g><g class="o"><path transform="translate(9,18)" class="S sf" d="M1629 1602 L1920 1311 L1932 1311 L1641 1602 Z"/><path class="f2" d="M1629 1602 L1920 1311 L1932 1311 L1641 1602 Z" /></g><g class="o"><path transform="translate(6,12)" class="S ssv" d="M1275 1619 L1118 1776 L1118 1896 L1275 1739 Z"/><path class="sv1" d="M1275 1619 L1118 1776 L1118 1896 L1275 1739 Z" /></g><g class="o"><path transform="translate(4,8)" class="S ssh" d="M1843 1244 L1944 1345 L1992 1345 L1891 1244 Z"/><path class="sh3" d="M1843 1244 L1944 1345 L1992 1345 L1891 1244 Z" /></g><g class="o"><path transform="translate(3,6)" class="S sfv" d="M986 1441 L1143 1284 L1143 1292 L986 1449 Z"/><path class="fv5" d="M986 1441 L1143 1284 L1143 1292 L986 1449 Z" /></g><g class="o"><path transform="translate(5,10)" class="S sfv" d="M951 1885 L1047 1981 L1047 2005 L951 1909 Z"/><path class="fv2" d="M951 1885 L1047 1981 L1047 2005 L951 1909 Z" /></g><g class="o"><path transform="translate(5,10)" class="S sfh" d="M1297 1989 L1585 2277 L1617 2277 L1329 1989 Z"/><path class="fh7" d="M1297 1989 L1585 2277 L1617 2277 L1329 1989 Z" /></g><g class="o"><path transform="translate(5,10)" class="S sfv" d="M1275 1732 L1536 1471 L1536 1575 L1275 1836 Z"/><path class="fv2" d="M1275 1732 L1536 1471 L1536 1575 L1275 1836 Z" /></g><g class="o"><path transform="translate(8,16)" class="S ssh" d="M1971 1520 L2191 1740 L2209 1740 L1989 1520 Z"/><path class="sh3" d="M1971 1520 L2191 1740 L2209 1740 L1989 1520 Z" /></g><g class="o"><path transform="translate(3,6)" class="S sfh" d="M1336 1686 L1211 1811 L1307 1811 L1432 1686 Z"/><path class="fh5" d="M1336 1686 L1211 1811 L1307 1811 L1432 1686 Z" /></g><g class="o"><path transform="translate(9,18)" class="S sfh" d="M1927 1453 L2140 1666 L2228 1666 L2015 1453 Z"/><path class="fh7" d="M1927 1453 L2140 1666 L2228 1666 L2015 1453 Z" /></g><g class="o"><path transform="translate(2,4)" class="S sf" d="M1552 1334 L1786 1100 L1804 1100 L1570 1334 Z"/><path class="f2" d="M1552 1334 L1786 1100 L1804 1100 L1570 1334 Z" /></g><g class="o"><path transform="translate(2,4)" class="S sf" d="M1844 1151 L1618 1377 L1644 1377 L1870 1151 Z"/><path class="f2" d="M1844 1151 L1618 1377 L1644 1377 L1870 1151 Z" /></g><g class="o"><path transform="translate(5,10)" class="S sfh" d="M1983 1721 L2148 1886 L2182 1886 L2017 1721 Z"/><path class="fh5" d="M1983 1721 L2148 1886 L2182 1886 L2017 1721 Z" /></g><g class="o"><path transform="translate(2,4)" class="S sfh" d="M1473 1842 L1526 1789 L1614 1789 L1561 1842 Z"/><path class="fh3" d="M1473 1842 L1526 1789 L1614 1789 L1561 1842 Z" /></g><g class="o"><path transform="translate(6,12)" class="S sfv" d="M1501 1656 L1601 1556 L1601 1592 L1501 1692 Z"/><path class="fv7" d="M1501 1656 L1601 1556 L1601 1592 L1501 1692 Z" /></g><g class="o"><path transform="translate(7,14)" class="S sfv" d="M1500 1003 L1725 1228 L1725 1250 L1500 1025 Z"/><path class="fv5" d="M1500 1003 L1725 1228 L1725 1250 L1500 1025 Z" /></g><g class="o"><path transform="translate(4,8)" class="S sf" d="M1591 2007 L1492 1908 L1528 1908 L1627 2007 Z"/><path class="f1" d="M1591 2007 L1492 1908 L1528 1908 L1627 2007 Z" /></g><g class="o"><path transform="translate(5,10)" class="S sfh" d="M1137 1012 L1602 547 L1636 547 L1171 1012 Z"/><path class="fh2" d="M1137 1012 L1602 547 L1636 547 L1171 1012 Z" /></g><g class="o"><path transform="translate(3,6)" class="S sf" d="M1702 1766 L1455 2013 L1487 2013 L1734 1766 Z"/><path class="f3" d="M1702 1766 L1455 2013 L1487 2013 L1734 1766 Z" /></g><g class="o"><path transform="translate(4,8)" class="S sfh" d="M1692 1534 L1971 1255 L2003 1255 L1724 1534 Z"/><path class="fh6" d="M1692 1534 L1971 1255 L2003 1255 L1724 1534 Z" /></g><g class="o"><path transform="translate(9,18)" class="S sf" d="M1155 1240 L1211 1296 L1211 1312 L1155 1256 Z"/><path class="f7" d="M1155 1240 L1211 1296 L1211 1312 L1155 1256 Z" /></g><g class="o"><path transform="translate(8,16)" class="S sfh" d="M1894 1689 L1961 1756 L2049 1756 L1982 1689 Z"/><path class="fh3" d="M1894 1689 L1961 1756 L2049 1756 L1982 1689 Z" /></g><g class="o"><path transform="translate(3,6)" class="S sf" d="M1084 1338 L1325 1097 L1453 1097 L1212 1338 Z"/><path class="f7" d="M1084 1338 L1325 1097 L1453 1097 L1212 1338 Z" /></g><g class="o"><path transform="translate(5,10)" class="S sfv" d="M1123 1969 L1238 2084 L1238 2112 L1123 1997 Z"/><path class="fv5" d="M1123 1969 L1238 2084 L1238 2112 L1123 1997 Z" /></g><g class="o"><path transform="translate(2,4)" class="S sf" d="M1488 1260 L1551 1197 L1551 1217 L1488 1280 Z"/><path class="f4" d="M1488 1260 L1551 1197 L1551 1217 L1488 1280 Z" /></g><g class="o"><path transform="translate(4,8)" class="S sf" d="M1636 1736 L1818 1918 L1818 2046 L1636 1864 Z"/><path class="f7" d="M1636 1736 L1818 1918 L1818 2046 L1636 1864 Z" /></g><g class="o"><path transform="translate(8,16)" class="S sfh" d="M1641 991 L1585 1047 L1599 1047 L1655 991 Z"/><path class="fh1" d="M1641 991 L1585 1047 L1599 1047 L1655 991 Z" /></g><g class="o"><path transform="translate(5,10)" class="S sfv" d="M1818 1534 L1768 1584 L1768 1672 L1818 1622 Z"/><path class="fv2" d="M1818 1534 L1768 1584 L1768 1672 L1818 1622 Z" /></g><g class="o"><path transform="translate(8,16)" class="S sfv" d="M1739 1702 L1947 1494 L1947 1520 L1739 1728 Z"/><path class="fv4" d="M1739 1702 L1947 1494 L1947 1520 L1739 1728 Z" /></g><g class="o"><path transform="translate(4,8)" class="S sfh" d="M989 1731 L1136 1584 L1152 1584 L1005 1731 Z"/><path class="fh3" d="M989 1731 L1136 1584 L1152 1584 L1005 1731 Z" /></g><g class="o"><path transform="translate(9,18)" class="S sf" d="M1535 1621 L1622 1708 L1652 1708 L1565 1621 Z"/><path class="f5" d="M1535 1621 L1622 1708 L1652 1708 L1565 1621 Z" /></g><g class="o"><path transform="translate(7,14)" class="S sf" d="M1746 1499 L2049 1196 L2049 1244 L1746 1547 Z"/><path class="f3" d="M1746 1499 L2049 1196 L2049 1244 L1746 1547 Z" /></g><g class="o"><path transform="translate(8,16)" class="S sfv" d="M2005 1402 L2145 1262 L2145 1300 L2005 1440 Z"/><path class="fv5" d="M2005 1402 L2145 1262 L2145 1300 L2005 1440 Z" /></g><g class="o"><path transform="translate(8,16)" class="S sfh" d="M1099 1930 L1150 1879 L1160 1879 L1109 1930 Z"/><path class="fh2" d="M1099 1930 L1150 1879 L1160 1879 L1109 1930 Z" /></g><g class="o"><path transform="translate(6,12)" class="S ss" d="M1347 1843 L1446 1942 L1446 1968 L1347 1869 Z"/><path class="s3" d="M1347 1843 L1446 1942 L1446 1968 L1347 1869 Z" /></g><g class="o"><path transform="translate(8,16)" class="S sfh" d="M1137 1271 L894 1028 L966 1028 L1209 1271 Z"/><path class="fh5" d="M1137 1271 L894 1028 L966 1028 L1209 1271 Z" /></g><g class="o"><path transform="translate(5,10)" class="S sfv" d="M1767 2037 L1919 1885 L1919 1903 L1767 2055 Z"/><path class="fv2" d="M1767 2037 L1919 1885 L1919 1903 L1767 2055 Z" /></g><g class="o"><path transform="translate(4,8)" class="S sfh" d="M1403 1865 L1517 1979 L1529 1979 L1415 1865 Z"/><path class="fh3" d="M1403 1865 L1517 1979 L1529 1979 L1415 1865 Z" /></g><g class="o"><path transform="translate(5,10)" class="S sfh" d="M950 1975 L1082 2107 L1210 2107 L1078 1975 Z"/><path class="fh2" d="M950 1975 L1082 2107 L1210 2107 L1078 1975 Z" /></g><g class="o"><path transform="translate(8,16)" class="S ssh" d="M1298 1308 L1709 1719 L1821 1719 L1410 1308 Z"/><path class="sh2" d="M1298 1308 L1709 1719 L1821 1719 L1410 1308 Z" /></g><g class="o"><path transform="translate(2,4)" class="S sfv" d="M1626 1235 L1802 1411 L1802 1515 L1626 1339 Z"/><path class="fv6" d="M1626 1235 L1802 1411 L1802 1515 L1626 1339 Z" /></g><g class="o"><path transform="translate(2,4)" class="S sf" d="M1091 1335 L1285 1529 L1285 1553 L1091 1359 Z"/><path class="f6" d="M1091 1335 L1285 1529 L1285 1553 L1091 1359 Z" /></g><g class="o"><path transform="translate(8,16)" class="S sf" d="M1983 1327 L2664 2008 L2664 2064 L1983 1383 Z"/><path class="f1" d="M1983 1327 L2664 2008 L2664 2064 L1983 1383 Z" /></g><g class="o"><path transform="translate(9,18)" class="S sfh" d="M1076 1605 L1189 1492 L1211 1492 L1098 1605 Z"/><path class="fh7" d="M1076 1605 L1189 1492 L1211 1492 L1098 1605 Z" /></g><g class="o"><path transform="translate(5,10)" class="S ssh" d="M1202 958 L1329 831 L1337 831 L1210 958 Z"/><path class="sh6" d="M1202 958 L1329 831 L1337 831 L1210 958 Z" /></g><g class="o"><path transform="translate(8,16)" class="S sfh" d="M1333 1038 L1490 1195 L1526 1195 L1369 1038 Z"/><path class="fh3" d="M1333 1038 L1490 1195 L1526 1195 L1369 1038 Z" /></g><g class="o"><path transform="translate(8,16)" class="S sfh" d="M1692 1390 L2178 904 L2190 904 L1704 1390 Z"/><path class="fh2" d="M1692 1390 L2178 904 L2190 904 L1704 1390 Z" /></g><g class="o"><path transform="translate(6,12)" class="S ssv" d="M1156 1350 L1302 1204 L1302 1308 L1156 1454 Z"/><path class="sv3" d="M1156 1350 L1302 1204 L1302 1308 L1156 1454 Z" /></g><g class="o"><path transform="translate(9,18)" class="S sf" d="M2022 1227 L2091 1296 L2129 1296 L2060 1227 Z"/><path class="f7" d="M2022 1227 L2091 1296 L2129 1296 L2060 1227 Z" /></g><g class="o"><path transform="translate(6,12)" class="S ss" d="M1355 1163 L1136 1382 L1144 1382 L1363 1163 Z"/><path class="s7" d="M1355 1163 L1136 1382 L1144 1382 L1363 1163 Z" /></g><g class="o"><path transform="translate(6,12)" class="S sfv" d="M1840 1865 L2030 1675 L2030 1707 L1840 1897 Z"/><path class="fv7" d="M1840 1865 L2030 1675 L2030 1707 L1840 1897 Z" /></g><g class="o"><path transform="translate(3,6)" class="S sfv" d="M1543 1644 L1491 1592 L1491 1744 L1543 1796 Z"/><path class="fv1" d="M1543 1644 L1491 1592 L1491 1744 L1543 1796 Z" /></g><g class="o"><path transform="translate(9,18)" class="S ssv" d="M1062 1674 L1135 1601 L1135 1619 L1062 1692 Z"/><path class="sv4" d="M1062 1674 L1135 1601 L1135 1619 L1062 1692 Z" /></g><g class="o"><path transform="translate(7,14)" class="S sf" d="M1952 1820 L2172 1600 L2172 1614 L1952 1834 Z"/><path class="f4" d="M1952 1820 L2172 1600 L2172 1614 L1952 1834 Z" /></g><g class="o"><path transform="translate(4,8)" class="S sfv" d="M1657 967 L1863 761 L1863 801 L1657 1007 Z"/><path class="fv1" d="M1657 967 L1863 761 L1863 801 L1657 1007 Z" /></g><g class="o"><path transform="translate(9,18)" class="S sf" d="M1002 1692 L1156 1538 L1156 1576 L1002 1730 Z"/><path class="f1" d="M1002 1692 L1156 1538 L1156 1576 L1002 1730 Z" /></g><g class="o"><path transform="translate(6,12)" class="S sfh" d="M1113 1262 L1166 1315 L1176 1315 L1123 1262 Z"/><path class="fh7" d="M1113 1262 L1166 1315 L1176 1315 L1123 1262 Z" /></g><g class="o"><path transform="translate(5,10)" class="S sfh" d="M1877 1607 L1928 1658 L1946 1658 L1895 1607 Z"/><path class="fh1" d="M1877 1607 L1928 1658 L1946 1658 L1895 1607 Z" /></g><g class="o"><path transform="translate(2,4)" class="S sfv" d="M1809 1794 L2019 2004 L2019 2018 L1809 1808 Z"/><path class="fv6" d="M1809 1794 L2019 2004 L2019 2018 L1809 1808 Z" /></g><g class="o"><path transform="translate(7,14)" class="S ssv" d="M988 1047 L841 900 L841 912 L988 1059 Z"/><path class="sv3" d="M988 1047 L841 900 L841 912 L988 1059 Z" /></g><g class="o"><path transform="translate(7,14)" class="S sf" d="M941 1165 L807 1299 L827 1299 L961 1165 Z"/><path class="f1" d="M941 1165 L807 1299 L827 1299 L961 1165 Z" /></g><g class="o"><path transform="translate(9,18)" class="S sfv" d="M1991 1937 L2543 1385 L2543 1423 L1991 1975 Z"/><path class="fv7" d="M1991 1937 L2543 1385 L2543 1423 L1991 1975 Z" /></g><g class="o"><path transform="translate(4,8)" class="S ssv" d="M994 1409 L837 1252 L837 1274 L994 1431 Z"/><path class="sv3" d="M994 1409 L837 1252 L837 1274 L994 1431 Z" /></g><g class="o"><path transform="translate(9,18)" class="S sfv" d="M1513 1872 L1716 1669 L1716 1701 L1513 1904 Z"/><path class="fv6" d="M1513 1872 L1716 1669 L1716 1701 L1513 1904 Z" /></g><g class="o"><path transform="translate(3,6)" class="S sfv" d="M1786 898 L1841 843 L1841 963 L1786 1018 Z"/><path class="fv4" d="M1786 898 L1841 843 L1841 963 L1786 1018 Z" /></g><g class="o"><path transform="translate(5,10)" class="S sfh" d="M1448 1179 L1647 1378 L1655 1378 L1456 1179 Z"/><path class="fh5" d="M1448 1179 L1647 1378 L1655 1378 L1456 1179 Z" /></g><g class="o"><path transform="translate(6,12)" class="S sfv" d="M963 1060 L1095 928 L1095 1016 L963 1148 Z"/><path class="fv4" d="M963 1060 L1095 928 L1095 1016 L963 1148 Z" /></g><g class="o"><path transform="translate(5,10)" class="S sfv" d="M1507 1651 L1650 1508 L1650 1652 L1507 1795 Z"/><path class="fv6" d="M1507 1651 L1650 1508 L1650 1652 L1507 1795 Z" /></g><g class="o"><path transform="translate(8,16)" class="S sfv" d="M1396 1014 L1640 770 L1640 906 L1396 1150 Z"/><path class="fv1" d="M1396 1014 L1640 770 L1640 906 L1396 1150 Z" /></g><g class="o"><path transform="translate(2,4)" class="S sfv" d="M1148 940 L1376 1168 L1376 1272 L1148 1044 Z"/><path class="fv4" d="M1148 940 L1376 1168 L1376 1272 L1148 1044 Z" /></g><g class="o"><path transform="translate(8,16)" class="S sfh" d="M1080 1972 L1003 2049 L1139 2049 L1216 1972 Z"/><path class="fh5" d="M1080 1972 L1003 2049 L1139 2049 L1216 1972 Z" /></g><g class="o"><path transform="translate(2,4)" class="S ssv" d="M1406 1960 L1465 2019 L1465 2067 L1406 2008 Z"/><path class="sv2" d="M1406 1960 L1465 2019 L1465 2067 L1406 2008 Z" /></g><g class="o"><path transform="translate(4,8)" class="S sf" d="M1756 1098 L1901 1243 L1901 1395 L1756 1250 Z"/><path class="f6" d="M1756 1098 L1901 1243 L1901 1395 L1756 1250 Z" /></g><g class="o"><path transform="translate(8,16)" class="S sf" d="M1720 947 L1601 1066 L1601 1086 L1720 967 Z"/><path class="f7" d="M1720 947 L1601 1066 L1601 1086 L1720 967 Z" /></g><g class="o"><path transform="translate(7,14)" class="S sfv" d="M1352 1980 L1490 1842 L1490 1938 L1352 2076 Z"/><path class="fv7" d="M1352 1980 L1490 1842 L1490 1938 L1352 2076 Z" /></g><g class="o"><path transform="translate(2,4)" class="S sfh" d="M1273 1049 L817 593 L825 593 L1281 1049 Z"/><path class="fh4" d="M1273 1049 L817 593 L825 593 L1281 1049 Z" /></g><g class="o"><path transform="translate(3,6)" class="S sfh" d="M1405 1777 L1242 1940 L1338 1940 L1501 1777 Z"/><path class="fh6" d="M1405 1777 L1242 1940 L1338 1940 L1501 1777 Z" /></g><g class="o"><path transform="translate(2,4)" class="S sf" d="M1952 1868 L2360 1460 L2360 1524 L1952 1932 Z"/><path class="f7" d="M1952 1868 L2360 1460 L2360 1524 L1952 1932 Z" /></g><g class="o"><path transform="translate(5,10)" class="S sfh" d="M1774 2035 L1707 1968 L1819 1968 L1886 2035 Z"/><path class="fh6" d="M1774 2035 L1707 1968 L1819 1968 L1886 2035 Z" /></g><g class="o"><path transform="translate(4,8)" class="S sfh" d="M1800 1488 L1987 1675 L2059 1675 L1872 1488 Z"/><path class="fh6" d="M1800 1488 L1987 1675 L2059 1675 L1872 1488 Z" /></g><g class="o"><path transform="translate(2,4)" class="S sfh" d="M926 1156 L1466 616 L1538 616 L998 1156 Z"/><path class="fh5" d="M926 1156 L1466 616 L1538 616 L998 1156 Z" /></g><g class="o"><path transform="translate(8,16)" class="S sfv" d="M1077 1498 L1278 1699 L1278 1771 L1077 1570 Z"/><path class="fv4" d="M1077 1498 L1278 1699 L1278 1771 L1077 1570 Z" /></g><g class="o"><path transform="translate(5,10)" class="S ssv" d="M1336 1758 L1876 2298 L1876 2354 L1336 1814 Z"/><path class="sv1" d="M1336 1758 L1876 2298 L1876 2354 L1336 1814 Z" /></g><g class="o"><path transform="translate(8,16)" class="S sfh" d="M1571 1249 L1701 1379 L1713 1379 L1583 1249 Z"/><path class="fh6" d="M1571 1249 L1701 1379 L1713 1379 L1583 1249 Z" /></g><g class="o"><path transform="translate(4,8)" class="S sfh" d="M1926 1139 L2153 912 L2225 912 L1998 1139 Z"/><path class="fh7" d="M1926 1139 L2153 912 L2225 912 L1998 1139 Z" /></g><g class="o"><path transform="translate(3,6)" class="S sfv" d="M1271 1876 L1784 1363 L1784 1383 L1271 1896 Z"/><path class="fv6" d="M1271 1876 L1784 1363 L1784 1383 L1271 1896 Z" /></g><g class="o"><path transform="translate(9,18)" class="S sfv" d="M1696 1403 L1450 1157 L1450 1167 L1696 1413 Z"/><path class="fv1" d="M1696 1403 L1450 1157 L1450 1167 L1696 1413 Z" /></g><g class="o"><path transform="translate(6,12)" class="S ssh" d="M1813 1166 L1873 1226 L1905 1226 L1845 1166 Z"/><path class="sh2" d="M1813 1166 L1873 1226 L1905 1226 L1845 1166 Z" /></g><g class="o"><path transform="translate(7,14)" class="S sfv" d="M1564 1495 L1752 1683 L1752 1691 L1564 1503 Z"/><path class="fv5" d="M1564 1495 L1752 1683 L1752 1691 L1564 1503 Z" /></g><g class="o"><path transform="translate(6,12)" class="S ss" d="M1945 1702 L2183 1940 L2183 1954 L1945 1716 Z"/><path class="s7" d="M1945 1702 L2183 1940 L2183 1954 L1945 1716 Z" /></g><g class="o"><path transform="translate(5,10)" class="S sfv" d="M2018 1968 L2228 1758 L2228 1766 L2018 1976 Z"/><path class="fv2" d="M2018 1968 L2228 1758 L2228 1766 L2018 1976 Z" /></g><g class="o"><path transform="translate(3,6)" class="S sfv" d="M1816 1141 L1868 1193 L1868 1205 L1816 1153 Z"/><path class="fv5" d="M1816 1141 L1868 1193 L1868 1205 L1816 1153 Z" /></g><g class="o"><path transform="translate(2,4)" class="S ssv" d="M1655 1620 L1854 1421 L1854 1433 L1655 1632 Z"/><path class="sv1" d="M1655 1620 L1854 1421 L1854 1433 L1655 1632 Z" /></g><g class="o"><path transform="translate(7,14)" class="S sf" d="M2040 1690 L2243 1893 L2243 1925 L2040 1722 Z"/><path class="f6" d="M2040 1690 L2243 1893 L2243 1925 L2040 1722 Z" /></g><g class="o"><path transform="translate(4,8)" class="S sfh" d="M1095 1384 L1269 1210 L1317 1210 L1143 1384 Z"/><path class="fh4" d="M1095 1384 L1269 1210 L1317 1210 L1143 1384 Z" /></g><g class="o"><path transform="translate(4,8)" class="S sfh" d="M998 1791 L1079 1710 L1215 1710 L1134 1791 Z"/><path class="fh5" d="M998 1791 L1079 1710 L1215 1710 L1134 1791 Z" /></g><g class="o"><path transform="translate(7,14)" class="S sfh" d="M1738 1997 L1498 2237 L1526 2237 L1766 1997 Z"/><path class="fh6" d="M1738 1997 L1498 2237 L1526 2237 L1766 1997 Z" /></g><g class="o"><path transform="translate(3,6)" class="S ssh" d="M1140 1567 L1218 1645 L1226 1645 L1148 1567 Z"/><path class="sh4" d="M1140 1567 L1218 1645 L1226 1645 L1148 1567 Z" /></g><g class="o"><path transform="translate(4,8)" class="S ssv" d="M1334 1121 L1395 1182 L1395 1202 L1334 1141 Z"/><path class="sv5" d="M1334 1121 L1395 1182 L1395 1202 L1334 1141 Z" /></g><g class="o"><path transform="translate(2,4)" class="S sfv" d="M1365 1765 L1575 1555 L1575 1683 L1365 1893 Z"/><path class="fv6" d="M1365 1765 L1575 1555 L1575 1683 L1365 1893 Z" /></g><g class="o"><path transform="translate(2,4)" class="S sfh" d="M1493 1533 L1614 1654 L1640 1654 L1519 1533 Z"/><path class="fh3" d="M1493 1533 L1614 1654 L1640 1654 L1519 1533 Z" /></g><g class="o"><path transform="translate(6,12)" class="S sfh" d="M1913 1545 L2109 1349 L2133 1349 L1937 1545 Z"/><path class="fh6" d="M1913 1545 L2109 1349 L2133 1349 L1937 1545 Z" /></g><g class="o"><path transform="translate(6,12)" class="S sfh" d="M1785 1005 L1104 1686 L1168 1686 L1849 1005 Z"/><path class="fh2" d="M1785 1005 L1104 1686 L1168 1686 L1849 1005 Z" /></g><g class="o"><path transform="translate(6,12)" class="S sf" d="M1181 1651 L1273 1559 L1305 1559 L1213 1651 Z"/><path class="f4" d="M1181 1651 L1273 1559 L1305 1559 L1213 1651 Z" /></g><g class="o"><path transform="translate(4,8)" class="S sfv" d="M1389 1261 L1209 1081 L1209 1099 L1389 1279 Z"/><path class="fv1" d="M1389 1261 L1209 1081 L1209 1099 L1389 1279 Z" /></g><g class="o"><path transform="translate(7,14)" class="S sfh" d="M1409 1014 L1570 1175 L1608 1175 L1447 1014 Z"/><path class="fh5" d="M1409 1014 L1570 1175 L1608 1175 L1447 1014 Z" /></g><g class="o"><path transform="translate(9,18)" class="S sf" d="M1336 1028 L1864 1556 L1894 1556 L1366 1028 Z"/><path class="f5" d="M1336 1028 L1864 1556 L1894 1556 L1366 1028 Z" /></g><g class="o"><path transform="translate(5,10)" class="S sf" d="M1307 1368 L1517 1158 L1529 1158 L1319 1368 Z"/><path class="f3" d="M1307 1368 L1517 1158 L1529 1158 L1319 1368 Z" /></g><g class="o"><path transform="translate(3,6)" class="S sfv" d="M1348 1110 L2014 444 L2014 476 L1348 1142 Z"/><path class="fv5" d="M1348 1110 L2014 444 L2014 476 L1348 1142 Z" /></g><g class="o"><path transform="translate(4,8)" class="S sfh" d="M1650 1249 L1810 1409 L1818 1409 L1658 1249 Z"/><path class="fh6" d="M1650 1249 L1810 1409 L1818 1409 L1658 1249 Z" /></g></g><use href="#slashes" transform-origin="1500 1500" transform="rotate(180) scale(2)"/></g><rect x="1080" y="1080" width="840" height="840" stroke-width="80" class="o s1" /><use href="#slashes" transform-origin="1500 1500" transform="scale(.9)"/><use href="#slashes" transform-origin="1500 1500" transform="rotate(180) scale(.9)"/></svg>