<svg xmlns="http://www.w3.org/2000/svg" viewBox="750 750 1500 1500"><style>/*<![CDATA[*/svg{background:rgb(222,224,230);max-width:100vw;max-height:100vh}path{stroke-width:4}.o{opacity:.75}.S{opacity:.4}.sf{stroke:none;fill:black}.sfh{stroke:none;fill:url(#hs)}.sfv{stroke:none;fill:url(#vs)}.ss{stroke:black;fill:none}.ssh{stroke:url(#hs);fill:none}.ssv{stroke:url(#vs);fill:none}.s1{fill:none;stroke:rgb(34,34,34)}.f1{stroke:none;fill:rgb(34,34,34)}.sh1{fill:none;stroke:url(#h1)}.fh1{stroke:none;fill:url(#h1)}.sv1{fill:none;stroke:url(#v1)}.fv1{stroke:none;fill:url(#v1)}.s2{fill:none;stroke:rgb(19,78,111)}.f2{stroke:none;fill:rgb(19,78,111)}.sh2{fill:none;stroke:url(#h2)}.fh2{stroke:none;fill:url(#h2)}.sv2{fill:none;stroke:url(#v2)}.fv2{stroke:none;fill:url(#v2)}.s3{fill:none;stroke:rgb(26,192,198)}.f3{stroke:none;fill:rgb(26,192,198)}.sh3{fill:none;stroke:url(#h3)}.fh3{stroke:none;fill:url(#h3)}.sv3{fill:none;stroke:url(#v3)}.fv3{stroke:none;fill:url(#v3)}.s4{fill:none;stroke:rgb(255,97,80)}.f4{stroke:none;fill:rgb(255,97,80)}.sh4{fill:none;stroke:url(#h4)}.fh4{stroke:none;fill:url(#h4)}.sv4{fill:none;stroke:url(#v4)}.fv4{stroke:none;fill:url(#v4)}.s5{fill:none;stroke:rgb(255,168,34)}.f5{stroke:none;fill:rgb(255,168,34)}.sh5{fill:none;stroke:url(#h5)}.fh5{stroke:none;fill:url(#h5)}.sv5{fill:none;stroke:url(#v5)}.fv5{stroke:none;fill:url(#v5)}.s6{fill:none;stroke:rgb(255,255,255)}.f6{stroke:none;fill:rgb(255,255,255)}.sh6{fill:none;stroke:url(#h6)}.fh6{stroke:none;fill:url(#h6)}.sv6{fill:none;stroke:url(#v6)}.fv6{stroke:none;fill:url(#v6)}.s7{fill:none;stroke:rgb(255,255,0)}.f7{stroke:none;fill:rgb(255,255,0)}.sh7{fill:none;stroke:url(#h7)}.fh7{stroke:none;fill:url(#h7)}.sv7{fill:none;stroke:url(#v7)}.fv7{stroke:none;fill:url(#v7)}/*]]>*/</style><defs><linearGradient gradientTransform="rotate(90)" id="hs"><stop offset="20%" stop-color="#000" /><stop offset="95%" stop-color="rgba(0, 0, 0, 0)" /></linearGradient><linearGradient id="vs"><stop offset="20%" stop-color="#000" /><stop offset="95%" stop-color="rgba(0, 0, 0, 0)" /></linearGradient><linearGradient gradientTransform="rotate(90)" id="h1"><stop offset="20%" stop-color="rgba(34,34,34,1)" /><stop offset="95%" stop-color="rgba(34,34,34,0)" /></linearGradient><linearGradient id="v1"><stop offset="20%" stop-color="rgba(34,34,34,1)" /><stop offset="95%" stop-color="rgba(34,34,34,0)" /></linearGradient><linearGradient gradientTransform="rotate(90)" id="h2"><stop offset="20%" stop-color="rgba(19,78,111,1)" /><stop offset="95%" stop-color="rgba(19,78,111,0)" /></linearGradient><linearGradient id="v2"><stop offset="20%" stop-color="rgba(19,78,111,1)" /><stop offset="95%" stop-color="rgba(19,78,111,0)" /></linearGradient><linearGradient gradientTransform="rotate(90)" id="h3"><stop offset="20%" stop-color="rgba(26,192,198,1)" /><stop offset="95%" stop-color="rgba(26,192,198,0)" /></linearGradient><linearGradient id="v3"><stop offset="20%" stop-color="rgba(26,192,198,1)" /><stop offset="95%" stop-color="rgba(26,192,198,0)" /></linearGradient><linearGradient gradientTransform="rotate(90)" id="h4"><stop offset="20%" stop-color="rgba(255,97,80,1)" /><stop offset="95%" stop-color="rgba(255,97,80,0)" /></linearGradient><linearGradient id="v4"><stop offset="20%" stop-color="rgba(255,97,80,1)" /><stop offset="95%" stop-color="rgba(255,97,80,0)" /></linearGradient><linearGradient gradientTransform="rotate(90)" id="h5"><stop offset="20%" stop-color="rgba(255,168,34,1)" /><stop offset="95%" stop-color="rgba(255,168,34,0)" /></linearGradient><linearGradient id="v5"><stop offset="20%" stop-color="rgba(255,168,34,1)" /><stop offset="95%" stop-color="rgba(255,168,34,0)" /></linearGradient><linearGradient gradientTransform="rotate(90)" id="h6"><stop offset="20%" stop-color="rgba(255,255,255,1)" /><stop offset="95%" stop-color="rgba(255,255,255,0)" /></linearGradient><linearGradient id="v6"><stop offset="20%" stop-color="rgba(255,255,255,1)" /><stop offset="95%" stop-color="rgba(255,255,255,0)" /></linearGradient><linearGradient gradientTransform="rotate(90)" id="h7"><stop offset="20%" stop-color="rgba(255,255,0,1)" /><stop offset="95%" stop-color="rgba(255,255,0,0)" /></linearGradient><linearGradient id="v7"><stop offset="20%" stop-color="rgba(255,255,0,1)" /><stop offset="95%" stop-color="rgba(255,255,0,0)" /></linearGradient></defs><g transform-origin="1500 1500" transform="scale(2)" opacity=".2"><g id="slashes"><g class="o"><path transform="translate(7,14)" class="S sfv" d="M1695 1697 L1479 1481 L1479 1507 L1695 1723 Z"/><path class="fv7" d="M1695 1697 L1479 1481 L1479 1507 L1695 1723 Z" /></g><g class="o"><path transform="translate(5,10)" class="S sfh" d="M1195 1911 L1096 2010 L1192 2010 L1291 1911 Z"/><path class="fh7" d="M1195 1911 L1096 2010 L1192 2010 L1291 1911 Z" /></g><g class="o"><path transform="translate(6,12)" class="S sf" d="M1657 934 L1294 571 L1294 651 L1657 1014 Z"/><path class="f6" d="M1657 934 L1294 571 L1294 651 L1657 1014 Z" /></g><g class="o"><path transform="translate(6,12)" class="S sfv" d="M1220 1870 L632 2458 L632 2538 L1220 1950 Z"/><path class="fv2" d="M1220 1870 L632 2458 L632 2538 L1220 1950 Z" /></g><g class="o"><path transform="translate(2,4)" class="S sfv" d="M1321 1142 L1166 987 L1166 997 L1321 1152 Z"/><path class="fv2" d="M1321 1142 L1166 987 L1166 997 L1321 1152 Z" /></g><g class="o"><path transform="translate(6,12)" class="S ssh" d="M1550 2025 L818 2757 L830 2757 L1562 2025 Z"/><path class="sh3" d="M1550 2025 L818 2757 L830 2757 L1562 2025 Z" /></g><g class="o"><path transform="translate(8,16)" class="S ssh" d="M984 1109 L690 1403 L714 1403 L1008 1109 Z"/><path class="sh1" d="M984 1109 L690 1403 L714 1403 L1008 1109 Z" /></g><g class="o"><path transform="translate(5,10)" class="S ss" d="M1075 1998 L922 1845 L1050 1845 L1203 1998 Z"/><path class="s1" d="M1075 1998 L922 1845 L1050 1845 L1203 1998 Z" /></g><g class="o"><path transform="translate(9,18)" class="S sf" d="M1039 1963 L826 1750 L842 1750 L1055 1963 Z"/><path class="f5" d="M1039 1963 L826 1750 L842 1750 L1055 1963 Z" /></g><g class="o"><path transform="translate(4,8)" class="S sfv" d="M1643 1119 L1492 968 L1492 998 L1643 1149 Z"/><path class="fv6" d="M1643 1119 L1492 968 L1492 998 L1643 1149 Z" /></g><g class="o"><path transform="translate(6,12)" class="S sfv" d="M1337 1475 L722 860 L722 1004 L1337 1619 Z"/><path class="fv5" d="M1337 1475 L722 860 L722 1004 L1337 1619 Z" /></g><g class="o"><path transform="translate(3,6)" class="S sfv" d="M1762 1069 L1294 601 L1294 611 L1762 1079 Z"/><path class="fv7" d="M1762 1069 L1294 601 L1294 611 L1762 1079 Z" /></g><g class="o"><path transform="translate(3,6)" class="S sfv" d="M1334 1655 L1146 1843 L1146 1881 L1334 1693 Z"/><path class="fv3" d="M1334 1655 L1146 1843 L1146 1881 L1334 1693 Z" /></g><g class="o"><path transform="translate(6,12)" class="S ssh" d="M1000 1174 L826 1348 L854 1348 L1028 1174 Z"/><path class="sh1" d="M1000 1174 L826 1348 L854 1348 L1028 1174 Z" /></g><g class="o"><path transform="translate(6,12)" class="S sf" d="M1350 1322 L753 1919 L753 1975 L1350 1378 Z"/><path class="f1" d="M1350 1322 L753 1919 L753 1975 L1350 1378 Z" /></g><g class="o"><path transform="translate(9,18)" class="S sfh" d="M1085 964 L542 421 L574 421 L1117 964 Z"/><path class="fh7" d="M1085 964 L542 421 L574 421 L1117 964 Z" /></g><g class="o"><path transform="translate(4,8)" class="S sfh" d="M1435 1464 L1087 1812 L1123 1812 L1471 1464 Z"/><path class="fh2" d="M1435 1464 L1087 1812 L1123 1812 L1471 1464 Z" /></g><g class="o"><path transform="translate(6,12)" class="S sfh" d="M1171 2008 L970 1807 L1122 1807 L1323 2008 Z"/><path class="fh2" d="M1171 2008 L970 1807 L1122 1807 L1323 2008 Z" /></g><g class="o"><path transform="translate(9,18)" class="S sf" d="M1134 1654 L672 1192 L672 1206 L1134 1668 Z"/><path class="f3" d="M1134 1654 L672 1192 L672 1206 L1134 1668 Z" /></g><g class="o"><path transform="translate(9,18)" class="S sfv" d="M1068 1013 L684 629 L684 665 L1068 1049 Z"/><path class="fv2" d="M1068 1013 L684 629 L684 665 L1068 1049 Z" /></g><g class="o"><path transform="translate(7,14)" class="S sfv" d="M1050 1313 L888 1475 L888 1495 L1050 1333 Z"/><path class="fv1" d="M1050 1313 L888 1475 L888 1495 L1050 1333 Z" /></g><g class="o"><path transform="translate(3,6)" class="S sfh" d="M1802 1598 L1265 1061 L1401 1061 L1938 1598 Z"/><path class="fh2" d="M1802 1598 L1265 1061 L1401 1061 L1938 1598 Z" /></g><g class="o"><path transform="translate(6,12)" class="S ssv" d="M1280 1051 L1038 1293 L1038 1405 L1280 1163 Z"/><path class="sv3" d="M1280 1051 L1038 1293 L1038 1405 L1280 1163 Z" /></g><g class="o"><path transform="translate(5,10)" class="S ss" d="M1150 1930 L908 1688 L940 1688 L1182 1930 Z"/><path class="s4" d="M1150 1930 L908 1688 L940 1688 L1182 1930 Z" /></g><g class="o"><path transform="translate(6,12)" class="S sfh" d="M1442 1115 L902 575 L922 575 L1462 1115 Z"/><path class="fh6" d="M1442 1115 L902 575 L922 575 L1462 1115 Z" /></g><g class="o"><path transform="translate(3,6)" class="S sf" d="M1591 1253 L1345 1499 L1345 1509 L1591 1263 Z"/><path class="f4" d="M1591 1253 L1345 1499 L1345 1509 L1591 1263 Z" /></g><g class="o"><path transform="translate(4,8)" class="S sfh" d="M1565 1215 L842 1938 L962 1938 L1685 1215 Z"/><path class="fh5" d="M1565 1215 L842 1938 L962 1938 L1685 1215 Z" /></g><g class="o"><path transform="translate(3,6)" class="S sfv" d="M1828 953 L1639 1142 L1639 1158 L1828 969 Z"/><path class="fv2" d="M1828 953 L1639 1142 L1639 1158 L1828 969 Z" /></g><g class="o"><path transform="translate(2,4)" class="S sfh" d="M953 1753 L738 1538 L842 1538 L1057 1753 Z"/><path class="fh6" d="M953 1753 L738 1538 L842 1538 L1057 1753 Z" /></g><g class="o"><path transform="translate(9,18)" class="S sf" d="M1595 1126 L1414 945 L1424 945 L1605 1126 Z"/><path class="f4" d="M1595 1126 L1414 945 L1424 945 L1605 1126 Z" /></g><g class="o"><path transform="translate(3,6)" class="S sf" d="M1551 1201 L1257 907 L1257 929 L1551 1223 Z"/><path class="f3" d="M1551 1201 L1257 907 L1257 929 L1551 1223 Z" /></g><g class="o"><path transform="translate(9,18)" class="S ssh" d="M1830 1759 L1643 1572 L1675 1572 L1862 1759 Z"/><path class="sh5" d="M1830 1759 L1643 1572 L1675 1572 L1862 1759 Z" /></g><g class="o"><path transform="translate(2,4)" class="S sfv" d="M1658 1415 L1569 1504 L1569 1552 L1658 1463 Z"/><path class="fv5" d="M1658 1415 L1569 1504 L1569 1552 L1658 1463 Z" /></g><g class="o"><path transform="translate(9,18)" class="S ssv" d="M1776 1452 L1518 1194 L1518 1228 L1776 1486 Z"/><path class="sv2" d="M1776 1452 L1518 1194 L1518 1228 L1776 1486 Z" /></g><g class="o"><path transform="translate(2,4)" class="S sfv" d="M1351 1143 L868 660 L868 674 L1351 1157 Z"/><path class="fv3" d="M1351 1143 L868 660 L868 674 L1351 1157 Z" /></g><g class="o"><path transform="translate(6,12)" class="S ss" d="M1199 1722 L521 2400 L521 2408 L1199 1730 Z"/><path class="s2" d="M1199 1722 L521 2400 L521 2408 L1199 1730 Z" /></g><g class="o"><path transform="translate(9,18)" class="S sfv" d="M1927 1142 L1807 1022 L1807 1056 L1927 1176 Z"/><path class="fv6" d="M1927 1142 L1807 1022 L1807 1056 L1927 1176 Z" /></g><g class="o"><path transform="translate(8,16)" class="S sfv" d="M1870 1472 L1384 986 L1384 1058 L1870 1544 Z"/><path class="fv2" d="M1870 1472 L1384 986 L1384 1058 L1870 1544 Z" /></g><g class="o"><path transform="translate(4,8)" class="S sfh" d="M1437 1399 L993 955 L1015 955 L1459 1399 Z"/><path class="fh1" d="M1437 1399 L993 955 L1015 955 L1459 1399 Z" /></g><g class="o"><path transform="translate(9,18)" class="S sf" d="M1149 1852 L480 1183 L480 1239 L1149 1908 Z"/><path class="f4" d="M1149 1852 L480 1183 L480 1239 L1149 1908 Z" /></g><g class="o"><path transform="translate(7,14)" class="S sfh" d="M885 1087 L792 994 L944 994 L1037 1087 Z"/><path class="fh3" d="M885 1087 L792 994 L944 994 L1037 1087 Z" /></g><g class="o"><path transform="translate(3,6)" class="S sfv" d="M1734 1384 L1683 1435 L1683 1523 L1734 1472 Z"/><path class="fv6" d="M1734 1384 L1683 1435 L1683 1523 L1734 1472 Z" /></g><g class="o"><path transform="translate(7,14)" class="S ssh" d="M1573 1598 L1411 1760 L1423 1760 L1585 1598 Z"/><path class="sh7" d="M1573 1598 L1411 1760 L1423 1760 L1585 1598 Z" /></g><g class="o"><path transform="translate(7,14)" class="S sfv" d="M2049 1878 L1335 1164 L1335 1178 L2049 1892 Z"/><path class="fv3" d="M2049 1878 L1335 1164 L1335 1178 L2049 1892 Z" /></g><g class="o"><path transform="translate(9,18)" class="S ssv" d="M1526 1322 L869 665 L869 689 L1526 1346 Z"/><path class="sv5" d="M1526 1322 L869 665 L869 689 L1526 1346 Z" /></g><g class="o"><path transform="translate(5,10)" class="S sfh" d="M1690 1281 L1102 1869 L1114 1869 L1702 1281 Z"/><path class="fh4" d="M1690 1281 L1102 1869 L1114 1869 L1702 1281 Z" /></g><g class="o"><path transform="translate(5,10)" class="S sfh" d="M1168 1987 L1045 2110 L1067 2110 L1190 1987 Z"/><path class="fh2" d="M1168 1987 L1045 2110 L1067 2110 L1190 1987 Z" /></g><g class="o"><path transform="translate(8,16)" class="S sf" d="M1998 1496 L1764 1730 L1764 1744 L1998 1510 Z"/><path class="f4" d="M1998 1496 L1764 1730 L1764 1744 L1998 1510 Z" /></g><g class="o"><path transform="translate(9,18)" class="S sfh" d="M1112 1842 L830 1560 L866 1560 L1148 1842 Z"/><path class="fh1" d="M1112 1842 L830 1560 L866 1560 L1148 1842 Z" /></g><g class="o"><path transform="translate(5,10)" class="S sfh" d="M1795 1115 L1474 794 L1512 794 L1833 1115 Z"/><path class="fh1" d="M1795 1115 L1474 794 L1512 794 L1833 1115 Z" /></g><g class="o"><path transform="translate(3,6)" class="S ssh" d="M1918 1743 L1774 1599 L1782 1599 L1926 1743 Z"/><path class="sh4" d="M1918 1743 L1774 1599 L1782 1599 L1926 1743 Z" /></g><g class="o"><path transform="translate(5,10)" class="S sfv" d="M1407 1980 L1223 1796 L1223 1832 L1407 2016 Z"/><path class="fv5" d="M1407 1980 L1223 1796 L1223 1832 L1407 2016 Z" /></g><g class="o"><path transform="translate(3,6)" class="S ssv" d="M1002 962 L903 1061 L903 1157 L1002 1058 Z"/><path class="sv2" d="M1002 962 L903 1061 L903 1157 L1002 1058 Z" /></g><g class="o"><path transform="translate(3,6)" class="S sf" d="M1561 1729 L886 1054 L886 1092 L1561 1767 Z"/><path class="f7" d="M1561 1729 L886 1054 L886 1092 L1561 1767 Z" /></g><g class="o"><path transform="translate(7,14)" class="S sfv" d="M1814 1277 L1541 1004 L1541 1024 L1814 1297 Z"/><path class="fv2" d="M1814 1277 L1541 1004 L1541 1024 L1814 1297 Z" /></g><g class="o"><path transform="translate(5,10)" class="S sf" d="M1570 1810 L1351 2029 L1351 2047 L1570 1828 Z"/><path class="f1" d="M1570 1810 L1351 2029 L1351 2047 L1570 1828 Z" /></g><g class="o"><path transform="translate(3,6)" class="S sfh" d="M1278 1766 L540 1028 L596 1028 L1334 1766 Z"/><path class="fh2" d="M1278 1766 L540 1028 L596 1028 L1334 1766 Z" /></g><g class="o"><path transform="translate(4,8)" class="S sfv" d="M1833 1926 L1566 2193 L1566 2217 L1833 1950 Z"/><path class="fv5" d="M1833 1926 L1566 2193 L1566 2217 L1833 1950 Z" /></g><g class="o"><path transform="translate(7,14)" class="S sfh" d="M1478 1104 L1259 1323 L1315 1323 L1534 1104 Z"/><path class="fh7" d="M1478 1104 L1259 1323 L1315 1323 L1534 1104 Z" /></g><g class="o"><path transform="translate(8,16)" class="S sfv" d="M1359 1885 L798 2446 L798 2478 L1359 1917 Z"/><path class="fv5" d="M1359 1885 L798 2446 L798 2478 L1359 1917 Z" /></g><g class="o"><path transform="translate(8,16)" class="S sfh" d="M1128 1365 L883 1610 L1027 1610 L1272 1365 Z"/><path class="fh6" d="M1128 1365 L883 1610 L1027 1610 L1272 1365 Z" /></g><g class="o"><path transform="translate(9,18)" class="S sfv" d="M1087 1332 L1014 1259 L1014 1297 L1087 1370 Z"/><path class="fv5" d="M1087 1332 L1014 1259 L1014 1297 L1087 1370 Z" /></g><g class="o"><path transform="translate(8,16)" class="S ssh" d="M1307 1029 L1087 1249 L1151 1249 L1371 1029 Z"/><path class="sh6" d="M1307 1029 L1087 1249 L1151 1249 L1371 1029 Z" /></g><g class="o"><path transform="translate(2,4)" class="S sfv" d="M1305 1883 L1212 1976 L1212 1984 L1305 1891 Z"/><path class="fv6" d="M1305 1883 L1212 1976 L1212 1984 L1305 1891 Z" /></g><g class="o"><path transform="translate(3,6)" class="S sfv" d="M1795 964 L1714 1045 L1714 1077 L1795 996 Z"/><path class="fv3" d="M1795 964 L1714 1045 L1714 1077 L1795 996 Z" /></g><g class="o"><path transform="translate(5,10)" class="S sfv" d="M1523 1666 L872 1015 L872 1079 L1523 1730 Z"/><path class="fv1" d="M1523 1666 L872 1015 L872 1079 L1523 1730 Z" /></g><g class="o"><path transform="translate(5,10)" class="S ssh" d="M1895 1219 L1598 922 L1654 922 L1951 1219 Z"/><path class="sh7" d="M1895 1219 L1598 922 L1654 922 L1951 1219 Z" /></g><g class="o"><path transform="translate(5,10)" class="S ssv" d="M1682 1812 L1439 1569 L1439 1607 L1682 1850 Z"/><path class="sv5" d="M1682 1812 L1439 1569 L1439 1607 L1682 1850 Z" /></g><g class="o"><path transform="translate(2,4)" class="S ssh" d="M1606 1463 L1521 1548 L1539 1548 L1624 1463 Z"/><path class="sh6" d="M1606 1463 L1521 1548 L1539 1548 L1624 1463 Z" /></g><g class="o"><path transform="translate(7,14)" class="S sfv" d="M1229 1776 L605 1152 L605 1180 L1229 1804 Z"/><path class="fv7" d="M1229 1776 L605 1152 L605 1180 L1229 1804 Z" /></g><g class="o"><path transform="translate(7,14)" class="S sfv" d="M1617 1500 L1397 1720 L1397 1758 L1617 1538 Z"/><path class="fv1" d="M1617 1500 L1397 1720 L1397 1758 L1617 1538 Z" /></g><g class="o"><path transform="translate(3,6)" class="S sfh" d="M1989 1970 L1458 2501 L1492 2501 L2023 1970 Z"/><path class="fh4" d="M1989 1970 L1458 2501 L1492 2501 L2023 1970 Z" /></g><g class="o"><path transform="translate(4,8)" class="S ss" d="M1649 1746 L1549 1646 L1549 1774 L1649 1874 Z"/><path class="s5" d="M1649 1746 L1549 1646 L1549 1774 L1649 1874 Z" /></g><g class="o"><path transform="translate(5,10)" class="S sf" d="M1066 1942 L775 2233 L775 2353 L1066 2062 Z"/><path class="f6" d="M1066 1942 L775 2233 L775 2353 L1066 2062 Z" /></g><g class="o"><path transform="translate(4,8)" class="S ss" d="M1695 1917 L1290 1512 L1290 1536 L1695 1941 Z"/><path class="s2" d="M1695 1917 L1290 1512 L1290 1536 L1695 1941 Z" /></g><g class="o"><path transform="translate(6,12)" class="S ssh" d="M1604 1977 L1541 2040 L1569 2040 L1632 1977 Z"/><path class="sh1" d="M1604 1977 L1541 2040 L1569 2040 L1632 1977 Z" /></g><g class="o"><path transform="translate(3,6)" class="S sfh" d="M1706 1839 L1355 1488 L1387 1488 L1738 1839 Z"/><path class="fh7" d="M1706 1839 L1355 1488 L1387 1488 L1738 1839 Z" /></g><g class="o"><path transform="translate(5,10)" class="S sfv" d="M1840 1957 L1138 2659 L1138 2763 L1840 2061 Z"/><path class="fv4" d="M1840 1957 L1138 2659 L1138 2763 L1840 2061 Z" /></g><g class="o"><path transform="translate(8,16)" class="S sfh" d="M1103 1428 L620 945 L740 945 L1223 1428 Z"/><path class="fh5" d="M1103 1428 L620 945 L740 945 L1223 1428 Z" /></g><g class="o"><path transform="translate(8,16)" class="S sfh" d="M1412 1252 L1241 1081 L1255 1081 L1426 1252 Z"/><path class="fh2" d="M1412 1252 L1241 1081 L1255 1081 L1426 1252 Z" /></g><g class="o"><path transform="translate(5,10)" class="S sfh" d="M1342 1136 L1199 993 L1231 993 L1374 1136 Z"/><path class="fh7" d="M1342 1136 L1199 993 L1231 993 L1374 1136 Z" /></g><g class="o"><path transform="translate(7,14)" class="S sfh" d="M1808 1083 L1568 1323 L1604 1323 L1844 1083 Z"/><path class="fh1" d="M1808 1083 L1568 1323 L1604 1323 L1844 1083 Z" /></g><g class="o"><path transform="translate(8,16)" class="S sfv" d="M1451 1758 L1268 1575 L1268 1609 L1451 1792 Z"/><path class="fv5" d="M1451 1758 L1268 1575 L1268 1609 L1451 1792 Z" /></g><g class="o"><path transform="translate(2,4)" class="S ssh" d="M1309 1134 L730 555 L850 555 L1429 1134 Z"/><path class="sh7" d="M1309 1134 L730 555 L850 555 L1429 1134 Z" /></g><g class="o"><path transform="translate(4,8)" class="S sf" d="M1850 1467 L1619 1236 L1731 1236 L1962 1467 Z"/><path class="f5" d="M1850 1467 L1619 1236 L1731 1236 L1962 1467 Z" /></g><g class="o"><path transform="translate(8,16)" class="S sfv" d="M1401 1939 L858 1396 L858 1428 L1401 1971 Z"/><path class="fv7" d="M1401 1939 L858 1396 L858 1428 L1401 1971 Z" /></g><g class="o"><path transform="translate(4,8)" class="S sf" d="M1052 1476 L865 1663 L875 1663 L1062 1476 Z"/><path class="f4" d="M1052 1476 L865 1663 L875 1663 L1062 1476 Z" /></g><g class="o"><path transform="translate(2,4)" class="S ssh" d="M1093 1729 L376 1012 L396 1012 L1113 1729 Z"/><path class="sh2" d="M1093 1729 L376 1012 L396 1012 L1113 1729 Z" /></g><g class="o"><path transform="translate(7,14)" class="S sfh" d="M1637 1575 L1262 1950 L1318 1950 L1693 1575 Z"/><path class="fh5" d="M1637 1575 L1262 1950 L1318 1950 L1693 1575 Z" /></g><g class="o"><path transform="translate(9,18)" class="S sfv" d="M1127 1685 L887 1445 L887 1525 L1127 1765 Z"/><path class="fv5" d="M1127 1685 L887 1445 L887 1525 L1127 1765 Z" /></g><g class="o"><path transform="translate(7,14)" class="S sfh" d="M1560 1924 L1008 1372 L1144 1372 L1696 1924 Z"/><path class="fh2" d="M1560 1924 L1008 1372 L1144 1372 L1696 1924 Z" /></g><g class="o"><path transform="translate(9,18)" class="S sfv" d="M1991 1869 L1424 2436 L1424 2588 L1991 2021 Z"/><path class="fv4" d="M1991 1869 L1424 2436 L1424 2588 L1991 2021 Z" /></g><g class="o"><path transform="translate(4,8)" class="S sfh" d="M1687 1998 L1599 1910 L1619 1910 L1707 1998 Z"/><path class="fh4" d="M1687 1998 L1599 1910 L1619 1910 L1707 1998 Z" /></g><g class="o"><path transform="translate(5,10)" class="S sfv" d="M2046 1797 L1809 1560 L1809 1672 L2046 1909 Z"/><path class="fv2" d="M2046 1797 L1809 1560 L1809 1672 L2046 1909 Z" /></g><g class="o"><path transform="translate(5,10)" class="S sfv" d="M1613 1352 L1421 1544 L1421 1558 L1613 1366 Z"/><path class="fv4" d="M1613 1352 L1421 1544 L1421 1558 L1613 1366 Z" /></g><g class="o"><path transform="translate(6,12)" class="S ssh" d="M1669 2000 L1162 1493 L1184 1493 L1691 2000 Z"/><path class="sh7" d="M1669 2000 L1162 1493 L1184 1493 L1691 2000 Z" /></g><g class="o"><path transform="translate(2,4)" class="S sfv" d="M1592 1589 L1004 2177 L1004 2209 L1592 1621 Z"/><path class="fv3" d="M1592 1589 L1004 2177 L1004 2209 L1592 1621 Z" /></g><g class="o"><path transform="translate(8,16)" class="S sfv" d="M1367 1403 L824 1946 L824 2098 L1367 1555 Z"/><path class="fv5" d="M1367 1403 L824 1946 L824 2098 L1367 1555 Z" /></g><g class="o"><path transform="translate(4,8)" class="S sfv" d="M1678 1754 L1504 1580 L1504 1716 L1678 1890 Z"/><path class="fv7" d="M1678 1754 L1504 1580 L1504 1716 L1678 1890 Z" /></g><g class="o"><path transform="translate(3,6)" class="S sf" d="M1918 1764 L1819 1665 L1819 1685 L1918 1784 Z"/><path class="f3" d="M1918 1764 L1819 1665 L1819 1685 L1918 1784 Z" /></g><g class="o"><path transform="translate(2,4)" class="S sfh" d="M1402 1320 L1290 1432 L1312 1432 L1424 1320 Z"/><path class="fh7" d="M1402 1320 L1290 1432 L1312 1432 L1424 1320 Z" /></g><g class="o"><path transform="translate(7,14)" class="S sfv" d="M1604 1426 L1439 1261 L1439 1277 L1604 1442 Z"/><path class="fv6" d="M1604 1426 L1439 1261 L1439 1277 L1604 1442 Z" /></g><g class="o"><path transform="translate(9,18)" class="S sfv" d="M1459 1388 L1244 1603 L1244 1635 L1459 1420 Z"/><path class="fv6" d="M1459 1388 L1244 1603 L1244 1635 L1459 1420 Z" /></g><g class="o"><path transform="translate(4,8)" class="S sfh" d="M961 1078 L782 899 L794 899 L973 1078 Z"/><path class="fh7" d="M961 1078 L782 899 L794 899 L973 1078 Z" /></g><g class="o"><path transform="translate(9,18)" class="S sfv" d="M1277 1752 L1197 1832 L1197 1848 L1277 1768 Z"/><path class="fv5" d="M1277 1752 L1197 1832 L1197 1848 L1277 1768 Z" /></g><g class="o"><path transform="translate(7,14)" class="S sf" d="M1746 2013 L1002 1269 L1024 1269 L1768 2013 Z"/><path class="f6" d="M1746 2013 L1002 1269 L1024 1269 L1768 2013 Z" /></g><g class="o"><path transform="translate(4,8)" class="S sf" d="M1935 1637 L1290 992 L1290 1010 L1935 1655 Z"/><path class="f7" d="M1935 1637 L1290 992 L1290 1010 L1935 1655 Z" /></g><g class="o"><path transform="translate(4,8)" class="S ssh" d="M1934 1898 L1409 1373 L1423 1373 L1948 1898 Z"/><path class="sh7" d="M1934 1898 L1409 1373 L1423 1373 L1948 1898 Z" /></g><g class="o"><path transform="translate(2,4)" class="S sfh" d="M1351 1221 L1093 963 L1117 963 L1375 1221 Z"/><path class="fh4" d="M1351 1221 L1093 963 L1117 963 L1375 1221 Z" /></g><g class="o"><path transform="translate(9,18)" class="S ssv" d="M989 1804 L332 2461 L332 2509 L989 1852 Z"/><path class="sv6" d="M989 1804 L332 2461 L332 2509 L989 1852 Z" /></g><g class="o"><path transform="translate(3,6)" class="S sfh" d="M1226 1559 L1061 1394 L1095 1394 L1260 1559 Z"/><path class="fh2" d="M1226 1559 L1061 1394 L1095 1394 L1260 1559 Z" /></g><g class="o"><path transform="translate(2,4)" class="S sfh" d="M961 1065 L598 702 L678 702 L1041 1065 Z"/><path class="fh6" d="M961 1065 L598 702 L678 702 L1041 1065 Z" /></g><g class="o"><path transform="translate(9,18)" class="S sfv" d="M1933 1941 L1693 1701 L1693 1813 L1933 2053 Z"/><path class="fv1" d="M1933 1941 L1693 1701 L1693 1813 L1933 2053 Z" /></g><g class="o"><path transform="translate(7,14)" class="S sfv" d="M1070 1702 L686 1318 L686 1406 L1070 1790 Z"/><path class="fv4" d="M1070 1702 L686 1318 L686 1406 L1070 1790 Z" /></g><g class="o"><path transform="translate(7,14)" class="S sfh" d="M1378 1837 L685 1144 L805 1144 L1498 1837 Z"/><path class="fh1" d="M1378 1837 L685 1144 L805 1144 L1498 1837 Z" /></g><g class="o"><path transform="translate(7,14)" class="S sfh" d="M1968 1786 L1545 1363 L1641 1363 L2064 1786 Z"/><path class="fh5" d="M1968 1786 L1545 1363 L1641 1363 L2064 1786 Z" /></g><g class="o"><path transform="translate(9,18)" class="S sfh" d="M1231 1102 L1019 890 L1053 890 L1265 1102 Z"/><path class="fh5" d="M1231 1102 L1019 890 L1053 890 L1265 1102 Z" /></g><g class="o"><path transform="translate(4,8)" class="S sfh" d="M1455 1900 L1041 2314 L1153 2314 L1567 1900 Z"/><path class="fh5" d="M1455 1900 L1041 2314 L1153 2314 L1567 1900 Z" /></g><g class="o"><path transform="translate(9,18)" class="S ss" d="M1871 1250 L1675 1446 L1675 1464 L1871 1268 Z"/><path class="s4" d="M1871 1250 L1675 1446 L1675 1464 L1871 1268 Z" /></g><g class="o"><path transform="translate(4,8)" class="S sfv" d="M1711 1177 L1213 679 L1213 707 L1711 1205 Z"/><path class="fv4" d="M1711 1177 L1213 679 L1213 707 L1711 1205 Z" /></g><g class="o"><path transform="translate(3,6)" class="S sfv" d="M2039 1884 L1502 2421 L1502 2509 L2039 1972 Z"/><path class="fv2" d="M2039 1884 L1502 2421 L1502 2509 L2039 1972 Z" /></g><g class="o"><path transform="translate(8,16)" class="S sf" d="M1035 961 L787 713 L799 713 L1047 961 Z"/><path class="f2" d="M1035 961 L787 713 L799 713 L1047 961 Z" /></g><g class="o"><path transform="translate(9,18)" class="S ssv" d="M1693 1149 L1502 1340 L1502 1388 L1693 1197 Z"/><path class="sv5" d="M1693 1149 L1502 1340 L1502 1388 L1693 1197 Z" /></g><g class="o"><path transform="translate(5,10)" class="S sfh" d="M1614 1605 L1548 1539 L1660 1539 L1726 1605 Z"/><path class="fh1" d="M1614 1605 L1548 1539 L1660 1539 L1726 1605 Z" /></g><g class="o"><path transform="translate(2,4)" class="S sfh" d="M1844 2031 L1685 2190 L1721 2190 L1880 2031 Z"/><path class="fh6" d="M1844 2031 L1685 2190 L1721 2190 L1880 2031 Z" /></g><g class="o"><path transform="translate(9,18)" class="S sfv" d="M1747 1515 L1456 1806 L1456 1822 L1747 1531 Z"/><path class="fv3" d="M1747 1515 L1456 1806 L1456 1822 L1747 1531 Z" /></g><g class="o"><path transform="translate(7,14)" class="S sfv" d="M1517 1749 L1148 1380 L1148 1402 L1517 1771 Z"/><path class="fv4" d="M1517 1749 L1148 1380 L1148 1402 L1517 1771 Z" /></g><g class="o"><path transform="translate(6,12)" class="S sfv" d="M1063 1363 L892 1534 L892 1662 L1063 1491 Z"/><path class="fv5" d="M1063 1363 L892 1534 L892 1662 L1063 1491 Z" /></g><g class="o"><path transform="translate(9,18)" class="S ssh" d="M1181 1204 L958 981 L1038 981 L1261 1204 Z"/><path class="sh5" d="M1181 1204 L958 981 L1038 981 L1261 1204 Z" /></g><g class="o"><path transform="translate(5,10)" class="S ss" d="M1189 1632 L925 1896 L925 1914 L1189 1650 Z"/><path class="s5" d="M1189 1632 L925 1896 L925 1914 L1189 1650 Z" /></g></g><use href="#slashes" transform-origin="1500 1500" transform="rotate(180) scale(2)"/></g><rect x="1080" y="1080" width="840" height="840" stroke-width="40" class="o s4" /><use href="#slashes" transform-origin="1500 1500" transform="scale(.6)"/><use href="#slashes" transform-origin="1500 1500" transform="rotate(180) scale(.6)"/></svg>