<svg xmlns="http://www.w3.org/2000/svg" viewBox="750 750 1500 1500"><style>/*<![CDATA[*/svg{background:rgb(6,214,160);max-width:100vw;max-height:100vh}path{stroke-width:4}.o{opacity:.75}.S{opacity:.4}.sf{stroke:none;fill:black}.sfh{stroke:none;fill:url(#hs)}.sfv{stroke:none;fill:url(#vs)}.ss{stroke:black;fill:none}.ssh{stroke:url(#hs);fill:none}.ssv{stroke:url(#vs);fill:none}.s1{fill:none;stroke:rgb(34,34,34)}.f1{stroke:none;fill:rgb(34,34,34)}.sh1{fill:none;stroke:url(#h1)}.fh1{stroke:none;fill:url(#h1)}.sv1{fill:none;stroke:url(#v1)}.fv1{stroke:none;fill:url(#v1)}.s2{fill:none;stroke:rgb(7,59,76)}.f2{stroke:none;fill:rgb(7,59,76)}.sh2{fill:none;stroke:url(#h2)}.fh2{stroke:none;fill:url(#h2)}.sv2{fill:none;stroke:url(#v2)}.fv2{stroke:none;fill:url(#v2)}.s3{fill:none;stroke:rgb(255,209,102)}.f3{stroke:none;fill:rgb(255,209,102)}.sh3{fill:none;stroke:url(#h3)}.fh3{stroke:none;fill:url(#h3)}.sv3{fill:none;stroke:url(#v3)}.fv3{stroke:none;fill:url(#v3)}.s4{fill:none;stroke:rgb(17,138,178)}.f4{stroke:none;fill:rgb(17,138,178)}.sh4{fill:none;stroke:url(#h4)}.fh4{stroke:none;fill:url(#h4)}.sv4{fill:none;stroke:url(#v4)}.fv4{stroke:none;fill:url(#v4)}.s5{fill:none;stroke:rgb(239,71,111)}.f5{stroke:none;fill:rgb(239,71,111)}.sh5{fill:none;stroke:url(#h5)}.fh5{stroke:none;fill:url(#h5)}.sv5{fill:none;stroke:url(#v5)}.fv5{stroke:none;fill:url(#v5)}.s6{fill:none;stroke:rgb(255,255,255)}.f6{stroke:none;fill:rgb(255,255,255)}.sh6{fill:none;stroke:url(#h6)}.fh6{stroke:none;fill:url(#h6)}.sv6{fill:none;stroke:url(#v6)}.fv6{stroke:none;fill:url(#v6)}.s7{fill:none;stroke:rgb(255,0,0)}.f7{stroke:none;fill:rgb(255,0,0)}.sh7{fill:none;stroke:url(#h7)}.fh7{stroke:none;fill:url(#h7)}.sv7{fill:none;stroke:url(#v7)}.fv7{stroke:none;fill:url(#v7)}/*]]>*/</style><defs><linearGradient gradientTransform="rotate(90)" id="hs"><stop offset="20%" stop-color="#000" /><stop offset="95%" stop-color="rgba(0, 0, 0, 0)" /></linearGradient><linearGradient id="vs"><stop offset="20%" stop-color="#000" /><stop offset="95%" stop-color="rgba(0, 0, 0, 0)" /></linearGradient><linearGradient gradientTransform="rotate(90)" id="h1"><stop offset="20%" stop-color="rgba(34,34,34,1)" /><stop offset="95%" stop-color="rgba(34,34,34,0)" /></linearGradient><linearGradient id="v1"><stop offset="20%" stop-color="rgba(34,34,34,1)" /><stop offset="95%" stop-color="rgba(34,34,34,0)" /></linearGradient><linearGradient gradientTransform="rotate(90)" id="h2"><stop offset="20%" stop-color="rgba(7,59,76,1)" /><stop offset="95%" stop-color="rgba(7,59,76,0)" /></linearGradient><linearGradient id="v2"><stop offset="20%" stop-color="rgba(7,59,76,1)" /><stop offset="95%" stop-color="rgba(7,59,76,0)" /></linearGradient><linearGradient gradientTransform="rotate(90)" id="h3"><stop offset="20%" stop-color="rgba(255,209,102,1)" /><stop offset="95%" stop-color="rgba(255,209,102,0)" /></linearGradient><linearGradient id="v3"><stop offset="20%" stop-color="rgba(255,209,102,1)" /><stop offset="95%" stop-color="rgba(255,209,102,0)" /></linearGradient><linearGradient gradientTransform="rotate(90)" id="h4"><stop offset="20%" stop-color="rgba(17,138,178,1)" /><stop offset="95%" stop-color="rgba(17,138,178,0)" /></linearGradient><linearGradient id="v4"><stop offset="20%" stop-color="rgba(17,138,178,1)" /><stop offset="95%" stop-color="rgba(17,138,178,0)" /></linearGradient><linearGradient gradientTransform="rotate(90)" id="h5"><stop offset="20%" stop-color="rgba(239,71,111,1)" /><stop offset="95%" stop-color="rgba(239,71,111,0)" /></linearGradient><linearGradient id="v5"><stop offset="20%" stop-color="rgba(239,71,111,1)" /><stop offset="95%" stop-color="rgba(239,71,111,0)" /></linearGradient><linearGradient gradientTransform="rotate(90)" id="h6"><stop offset="20%" stop-color="rgba(255,255,255,1)" /><stop offset="95%" stop-color="rgba(255,255,255,0)" /></linearGradient><linearGradient id="v6"><stop offset="20%" stop-color="rgba(255,255,255,1)" /><stop offset="95%" stop-color="rgba(255,255,255,0)" /></linearGradient><linearGradient gradientTransform="rotate(90)" id="h7"><stop offset="20%" stop-color="rgba(255,0,0,1)" /><stop offset="95%" stop-color="rgba(255,0,0,0)" /></linearGradient><linearGradient id="v7"><stop offset="20%" stop-color="rgba(255,0,0,1)" /><stop offset="95%" stop-color="rgba(255,0,0,0)" /></linearGradient></defs><g transform-origin="1500 1500" transform="scale(2)" opacity=".8"><g id="slashes"><g class="o"><path transform="translate(9,18)" class="S sf" d="M1924 1318 L2644 2038 L2708 2038 L1988 1318 Z"/><path class="f3" d="M1924 1318 L2644 2038 L2708 2038 L1988 1318 Z" /></g><g class="o"><path transform="translate(9,18)" class="S sfv" d="M1769 1702 L2033 1966 L2033 2030 L1769 1766 Z"/><path class="fv3" d="M1769 1702 L2033 1966 L2033 2030 L1769 1766 Z" /></g><g class="o"><path transform="translate(3,6)" class="S ssv" d="M1241 1590 L1360 1471 L1360 1481 L1241 1600 Z"/><path class="sv7" d="M1241 1590 L1360 1471 L1360 1481 L1241 1600 Z" /></g><g class="o"><path transform="translate(8,16)" class="S ssv" d="M1612 988 L1479 855 L1479 911 L1612 1044 Z"/><path class="sv1" d="M1612 988 L1479 855 L1479 911 L1612 1044 Z" /></g><g class="o"><path transform="translate(3,6)" class="S sfv" d="M1716 1652 L1551 1817 L1551 1865 L1716 1700 Z"/><path class="fv4" d="M1716 1652 L1551 1817 L1551 1865 L1716 1700 Z" /></g><g class="o"><path transform="translate(7,14)" class="S sfv" d="M1016 1457 L811 1252 L811 1308 L1016 1513 Z"/><path class="fv4" d="M1016 1457 L811 1252 L811 1308 L1016 1513 Z" /></g><g class="o"><path transform="translate(9,18)" class="S sfh" d="M1771 1549 L2482 2260 L2554 2260 L1843 1549 Z"/><path class="fh3" d="M1771 1549 L2482 2260 L2554 2260 L1843 1549 Z" /></g><g class="o"><path transform="translate(3,6)" class="S sfv" d="M1178 1696 L1364 1510 L1364 1524 L1178 1710 Z"/><path class="fv1" d="M1178 1696 L1364 1510 L1364 1524 L1178 1710 Z" /></g><g class="o"><path transform="translate(3,6)" class="S sfv" d="M1052 1859 L1138 1773 L1138 1821 L1052 1907 Z"/><path class="fv7" d="M1052 1859 L1138 1773 L1138 1821 L1052 1907 Z" /></g><g class="o"><path transform="translate(9,18)" class="S sfh" d="M1720 1110 L1963 867 L2115 867 L1872 1110 Z"/><path class="fh4" d="M1720 1110 L1963 867 L2115 867 L1872 1110 Z" /></g><g class="o"><path transform="translate(5,10)" class="S sfh" d="M1037 1873 L1124 1786 L1260 1786 L1173 1873 Z"/><path class="fh3" d="M1037 1873 L1124 1786 L1260 1786 L1173 1873 Z" /></g><g class="o"><path transform="translate(7,14)" class="S sfv" d="M1260 1890 L1192 1958 L1192 2078 L1260 2010 Z"/><path class="fv7" d="M1260 1890 L1192 1958 L1192 2078 L1260 2010 Z" /></g><g class="o"><path transform="translate(4,8)" class="S ssh" d="M1166 1973 L473 2666 L601 2666 L1294 1973 Z"/><path class="sh6" d="M1166 1973 L473 2666 L601 2666 L1294 1973 Z" /></g><g class="o"><path transform="translate(7,14)" class="S sf" d="M1794 1147 L1961 980 L1961 1068 L1794 1235 Z"/><path class="f7" d="M1794 1147 L1961 980 L1961 1068 L1794 1235 Z" /></g><g class="o"><path transform="translate(3,6)" class="S sf" d="M1709 995 L1762 1048 L1762 1076 L1709 1023 Z"/><path class="f2" d="M1709 995 L1762 1048 L1762 1076 L1709 1023 Z" /></g><g class="o"><path transform="translate(2,4)" class="S sfv" d="M1532 1159 L1690 1317 L1690 1381 L1532 1223 Z"/><path class="fv7" d="M1532 1159 L1690 1317 L1690 1381 L1532 1223 Z" /></g><g class="o"><path transform="translate(2,4)" class="S sfh" d="M1241 1919 L1315 1845 L1395 1845 L1321 1919 Z"/><path class="fh2" d="M1241 1919 L1315 1845 L1395 1845 L1321 1919 Z" /></g><g class="o"><path transform="translate(6,12)" class="S ssh" d="M1318 1090 L1660 748 L1804 748 L1462 1090 Z"/><path class="sh6" d="M1318 1090 L1660 748 L1804 748 L1462 1090 Z" /></g><g class="o"><path transform="translate(6,12)" class="S ssh" d="M1233 988 L1026 781 L1034 781 L1241 988 Z"/><path class="sh1" d="M1233 988 L1026 781 L1034 781 L1241 988 Z" /></g><g class="o"><path transform="translate(4,8)" class="S sfh" d="M1708 2008 L1829 2129 L1837 2129 L1716 2008 Z"/><path class="fh3" d="M1708 2008 L1829 2129 L1837 2129 L1716 2008 Z" /></g><g class="o"><path transform="translate(9,18)" class="S sfh" d="M1488 2038 L1692 2242 L1740 2242 L1536 2038 Z"/><path class="fh4" d="M1488 2038 L1692 2242 L1740 2242 L1536 2038 Z" /></g><g class="o"><path transform="translate(4,8)" class="S ssv" d="M1321 1021 L1564 778 L1564 814 L1321 1057 Z"/><path class="sv4" d="M1321 1021 L1564 778 L1564 814 L1321 1057 Z" /></g><g class="o"><path transform="translate(2,4)" class="S ssh" d="M1322 1021 L1410 1109 L1432 1109 L1344 1021 Z"/><path class="sh1" d="M1322 1021 L1410 1109 L1432 1109 L1344 1021 Z" /></g><g class="o"><path transform="translate(9,18)" class="S sfv" d="M1477 1478 L1583 1584 L1583 1640 L1477 1534 Z"/><path class="fv2" d="M1477 1478 L1583 1584 L1583 1640 L1477 1534 Z" /></g><g class="o"><path transform="translate(7,14)" class="S sfv" d="M1839 1669 L1917 1591 L1917 1655 L1839 1733 Z"/><path class="fv7" d="M1839 1669 L1917 1591 L1917 1655 L1839 1733 Z" /></g><g class="o"><path transform="translate(7,14)" class="S sf" d="M1427 1172 L1657 942 L1657 990 L1427 1220 Z"/><path class="f6" d="M1427 1172 L1657 942 L1657 990 L1427 1220 Z" /></g><g class="o"><path transform="translate(6,12)" class="S sfv" d="M1234 1030 L1449 815 L1449 847 L1234 1062 Z"/><path class="fv4" d="M1234 1030 L1449 815 L1449 847 L1234 1062 Z" /></g><g class="o"><path transform="translate(2,4)" class="S sfv" d="M1373 1869 L1745 2241 L1745 2353 L1373 1981 Z"/><path class="fv7" d="M1373 1869 L1745 2241 L1745 2353 L1373 1981 Z" /></g><g class="o"><path transform="translate(4,8)" class="S sfv" d="M1497 1162 L1694 965 L1694 1045 L1497 1242 Z"/><path class="fv4" d="M1497 1162 L1694 965 L1694 1045 L1497 1242 Z" /></g><g class="o"><path transform="translate(8,16)" class="S sf" d="M1471 1565 L1276 1370 L1276 1434 L1471 1629 Z"/><path class="f6" d="M1471 1565 L1276 1370 L1276 1434 L1471 1629 Z" /></g><g class="o"><path transform="translate(8,16)" class="S ssh" d="M1094 1254 L926 1086 L1062 1086 L1230 1254 Z"/><path class="sh3" d="M1094 1254 L926 1086 L1062 1086 L1230 1254 Z" /></g><g class="o"><path transform="translate(9,18)" class="S sfv" d="M1275 1331 L1041 1565 L1041 1717 L1275 1483 Z"/><path class="fv2" d="M1275 1331 L1041 1565 L1041 1717 L1275 1483 Z" /></g><g class="o"><path transform="translate(8,16)" class="S sfh" d="M1364 2025 L2024 1365 L2112 1365 L1452 2025 Z"/><path class="fh7" d="M1364 2025 L2024 1365 L2112 1365 L1452 2025 Z" /></g><g class="o"><path transform="translate(5,10)" class="S sf" d="M1082 1108 L1151 1039 L1151 1087 L1082 1156 Z"/><path class="f5" d="M1082 1108 L1151 1039 L1151 1087 L1082 1156 Z" /></g><g class="o"><path transform="translate(6,12)" class="S sfv" d="M1856 1031 L1949 938 L1949 1082 L1856 1175 Z"/><path class="fv3" d="M1856 1031 L1949 938 L1949 1082 L1856 1175 Z" /></g><g class="o"><path transform="translate(7,14)" class="S sfv" d="M1153 1327 L1268 1442 L1268 1464 L1153 1349 Z"/><path class="fv6" d="M1153 1327 L1268 1442 L1268 1464 L1153 1349 Z" /></g><g class="o"><path transform="translate(5,10)" class="S sf" d="M1295 1490 L1408 1377 L1504 1377 L1391 1490 Z"/><path class="f6" d="M1295 1490 L1408 1377 L1504 1377 L1391 1490 Z" /></g><g class="o"><path transform="translate(4,8)" class="S sf" d="M1641 1632 L2334 2325 L2334 2373 L1641 1680 Z"/><path class="f2" d="M1641 1632 L2334 2325 L2334 2373 L1641 1680 Z" /></g><g class="o"><path transform="translate(8,16)" class="S ssv" d="M963 1101 L1062 1200 L1062 1272 L963 1173 Z"/><path class="sv2" d="M963 1101 L1062 1200 L1062 1272 L963 1173 Z" /></g><g class="o"><path transform="translate(3,6)" class="S ssv" d="M1667 1225 L1797 1355 L1797 1491 L1667 1361 Z"/><path class="sv6" d="M1667 1225 L1797 1355 L1797 1491 L1667 1361 Z" /></g><g class="o"><path transform="translate(5,10)" class="S sf" d="M1504 1093 L1658 1247 L1746 1247 L1592 1093 Z"/><path class="f3" d="M1504 1093 L1658 1247 L1746 1247 L1592 1093 Z" /></g><g class="o"><path transform="translate(9,18)" class="S sfv" d="M1714 1841 L1917 2044 L1917 2164 L1714 1961 Z"/><path class="fv6" d="M1714 1841 L1917 2044 L1917 2164 L1714 1961 Z" /></g><g class="o"><path transform="translate(6,12)" class="S sf" d="M1022 1833 L931 1742 L931 1862 L1022 1953 Z"/><path class="f5" d="M1022 1833 L931 1742 L931 1862 L1022 1953 Z" /></g><g class="o"><path transform="translate(8,16)" class="S sfh" d="M1211 1555 L1298 1468 L1316 1468 L1229 1555 Z"/><path class="fh3" d="M1211 1555 L1298 1468 L1316 1468 L1229 1555 Z" /></g><g class="o"><path transform="translate(4,8)" class="S sfv" d="M1142 1704 L970 1532 L970 1660 L1142 1832 Z"/><path class="fv2" d="M1142 1704 L970 1532 L970 1660 L1142 1832 Z" /></g><g class="o"><path transform="translate(8,16)" class="S ssh" d="M1186 1135 L1252 1201 L1388 1201 L1322 1135 Z"/><path class="sh7" d="M1186 1135 L1252 1201 L1388 1201 L1322 1135 Z" /></g><g class="o"><path transform="translate(6,12)" class="S sfv" d="M1248 1349 L1307 1290 L1307 1330 L1248 1389 Z"/><path class="fv4" d="M1248 1349 L1307 1290 L1307 1330 L1248 1389 Z" /></g><g class="o"><path transform="translate(3,6)" class="S ss" d="M1666 1883 L2227 2444 L2227 2556 L1666 1995 Z"/><path class="s3" d="M1666 1883 L2227 2444 L2227 2556 L1666 1995 Z" /></g><g class="o"><path transform="translate(2,4)" class="S sfv" d="M1894 1892 L1960 1826 L1960 1914 L1894 1980 Z"/><path class="fv7" d="M1894 1892 L1960 1826 L1960 1914 L1894 1980 Z" /></g><g class="o"><path transform="translate(9,18)" class="S sf" d="M1243 1007 L1449 801 L1497 801 L1291 1007 Z"/><path class="f6" d="M1243 1007 L1449 801 L1497 801 L1291 1007 Z" /></g><g class="o"><path transform="translate(2,4)" class="S ssv" d="M1733 1123 L1910 1300 L1910 1452 L1733 1275 Z"/><path class="sv4" d="M1733 1123 L1910 1300 L1910 1452 L1733 1275 Z" /></g><g class="o"><path transform="translate(2,4)" class="S sfv" d="M1669 1990 L2089 2410 L2089 2498 L1669 2078 Z"/><path class="fv2" d="M1669 1990 L2089 2410 L2089 2498 L1669 2078 Z" /></g><g class="o"><path transform="translate(9,18)" class="S sf" d="M1563 1484 L1340 1261 L1348 1261 L1571 1484 Z"/><path class="f4" d="M1563 1484 L1340 1261 L1348 1261 L1571 1484 Z" /></g><g class="o"><path transform="translate(2,4)" class="S ssh" d="M1394 1253 L1817 830 L1837 830 L1414 1253 Z"/><path class="sh3" d="M1394 1253 L1817 830 L1837 830 L1414 1253 Z" /></g><g class="o"><path transform="translate(8,16)" class="S sfh" d="M1088 1153 L1174 1239 L1190 1239 L1104 1153 Z"/><path class="fh5" d="M1088 1153 L1174 1239 L1190 1239 L1104 1153 Z" /></g><g class="o"><path transform="translate(7,14)" class="S sf" d="M1884 1747 L2119 1982 L2119 2102 L1884 1867 Z"/><path class="f6" d="M1884 1747 L2119 1982 L2119 2102 L1884 1867 Z" /></g><g class="o"><path transform="translate(7,14)" class="S sfv" d="M1080 1943 L1266 1757 L1266 1821 L1080 2007 Z"/><path class="fv2" d="M1080 1943 L1266 1757 L1266 1821 L1080 2007 Z" /></g><g class="o"><path transform="translate(9,18)" class="S sfh" d="M1139 1945 L894 2190 L974 2190 L1219 1945 Z"/><path class="fh4" d="M1139 1945 L894 2190 L974 2190 L1219 1945 Z" /></g><g class="o"><path transform="translate(2,4)" class="S ssv" d="M2030 1947 L1813 2164 L1813 2268 L2030 2051 Z"/><path class="sv6" d="M2030 1947 L1813 2164 L1813 2268 L2030 2051 Z" /></g><g class="o"><path transform="translate(9,18)" class="S sfh" d="M1166 1827 L1241 1752 L1321 1752 L1246 1827 Z"/><path class="fh4" d="M1166 1827 L1241 1752 L1321 1752 L1246 1827 Z" /></g><g class="o"><path transform="translate(2,4)" class="S sfv" d="M1447 1428 L1517 1358 L1517 1406 L1447 1476 Z"/><path class="fv3" d="M1447 1428 L1517 1358 L1517 1406 L1447 1476 Z" /></g><g class="o"><path transform="translate(7,14)" class="S ssh" d="M1246 1989 L1354 1881 L1410 1881 L1302 1989 Z"/><path class="sh2" d="M1246 1989 L1354 1881 L1410 1881 L1302 1989 Z" /></g><g class="o"><path transform="translate(9,18)" class="S sfh" d="M1571 2037 L1408 2200 L1440 2200 L1603 2037 Z"/><path class="fh2" d="M1571 2037 L1408 2200 L1440 2200 L1603 2037 Z" /></g><g class="o"><path transform="translate(8,16)" class="S sf" d="M1164 984 L1265 1085 L1265 1197 L1164 1096 Z"/><path class="f5" d="M1164 984 L1265 1085 L1265 1197 L1164 1096 Z" /></g><g class="o"><path transform="translate(8,16)" class="S sfv" d="M976 1169 L1182 1375 L1182 1401 L976 1195 Z"/><path class="fv4" d="M976 1169 L1182 1375 L1182 1401 L976 1195 Z" /></g><g class="o"><path transform="translate(3,6)" class="S sfh" d="M1873 994 L1948 919 L2028 919 L1953 994 Z"/><path class="fh2" d="M1873 994 L1948 919 L2028 919 L1953 994 Z" /></g><g class="o"><path transform="translate(3,6)" class="S sfh" d="M1884 1718 L1993 1609 L2025 1609 L1916 1718 Z"/><path class="fh1" d="M1884 1718 L1993 1609 L2025 1609 L1916 1718 Z" /></g><g class="o"><path transform="translate(2,4)" class="S sf" d="M1428 1522 L1544 1406 L1576 1406 L1460 1522 Z"/><path class="f6" d="M1428 1522 L1544 1406 L1576 1406 L1460 1522 Z" /></g><g class="o"><path transform="translate(7,14)" class="S sfh" d="M1906 1786 L2116 1576 L2252 1576 L2042 1786 Z"/><path class="fh2" d="M1906 1786 L2116 1576 L2252 1576 L2042 1786 Z" /></g><g class="o"><path transform="translate(5,10)" class="S sfh" d="M1287 1236 L1428 1377 L1484 1377 L1343 1236 Z"/><path class="fh6" d="M1287 1236 L1428 1377 L1484 1377 L1343 1236 Z" /></g><g class="o"><path transform="translate(6,12)" class="S sfh" d="M1772 1366 L1849 1443 L1865 1443 L1788 1366 Z"/><path class="fh7" d="M1772 1366 L1849 1443 L1865 1443 L1788 1366 Z" /></g><g class="o"><path transform="translate(3,6)" class="S sfh" d="M1912 1209 L1357 1764 L1493 1764 L2048 1209 Z"/><path class="fh4" d="M1912 1209 L1357 1764 L1493 1764 L2048 1209 Z" /></g><g class="o"><path transform="translate(3,6)" class="S sfh" d="M1362 1309 L1563 1510 L1591 1510 L1390 1309 Z"/><path class="fh3" d="M1362 1309 L1563 1510 L1591 1510 L1390 1309 Z" /></g><g class="o"><path transform="translate(4,8)" class="S sf" d="M1247 1194 L1961 480 L2105 480 L1391 1194 Z"/><path class="f4" d="M1247 1194 L1961 480 L2105 480 L1391 1194 Z" /></g><g class="o"><path transform="translate(8,16)" class="S sfv" d="M1910 1592 L2147 1829 L2147 1869 L1910 1632 Z"/><path class="fv4" d="M1910 1592 L2147 1829 L2147 1869 L1910 1632 Z" /></g><g class="o"><path transform="translate(7,14)" class="S sfv" d="M1630 1051 L1784 897 L1784 1009 L1630 1163 Z"/><path class="fv3" d="M1630 1051 L1784 897 L1784 1009 L1630 1163 Z" /></g><g class="o"><path transform="translate(3,6)" class="S sf" d="M1811 1811 L1723 1899 L1875 1899 L1963 1811 Z"/><path class="f3" d="M1811 1811 L1723 1899 L1875 1899 L1963 1811 Z" /></g><g class="o"><path transform="translate(6,12)" class="S sfh" d="M1286 1966 L1456 2136 L1576 2136 L1406 1966 Z"/><path class="fh5" d="M1286 1966 L1456 2136 L1576 2136 L1406 1966 Z" /></g><g class="o"><path transform="translate(2,4)" class="S sf" d="M1158 1740 L1361 1537 L1449 1537 L1246 1740 Z"/><path class="f2" d="M1158 1740 L1361 1537 L1449 1537 L1246 1740 Z" /></g><g class="o"><path transform="translate(5,10)" class="S sfv" d="M1453 1040 L1529 964 L1529 992 L1453 1068 Z"/><path class="fv4" d="M1453 1040 L1529 964 L1529 992 L1453 1068 Z" /></g><g class="o"><path transform="translate(5,10)" class="S sf" d="M1641 1627 L1439 1425 L1471 1425 L1673 1627 Z"/><path class="f6" d="M1641 1627 L1439 1425 L1471 1425 L1673 1627 Z" /></g><g class="o"><path transform="translate(4,8)" class="S ssv" d="M1528 1000 L1647 1119 L1647 1215 L1528 1096 Z"/><path class="sv1" d="M1528 1000 L1647 1119 L1647 1215 L1528 1096 Z" /></g><g class="o"><path transform="translate(6,12)" class="S sfh" d="M1518 1106 L1639 1227 L1751 1227 L1630 1106 Z"/><path class="fh5" d="M1518 1106 L1639 1227 L1751 1227 L1630 1106 Z" /></g><g class="o"><path transform="translate(6,12)" class="S sf" d="M1918 1633 L1833 1718 L1969 1718 L2054 1633 Z"/><path class="f4" d="M1918 1633 L1833 1718 L1969 1718 L2054 1633 Z" /></g><g class="o"><path transform="translate(8,16)" class="S sfh" d="M1977 1683 L2700 2406 L2836 2406 L2113 1683 Z"/><path class="fh6" d="M1977 1683 L2700 2406 L2836 2406 L2113 1683 Z" /></g><g class="o"><path transform="translate(4,8)" class="S sfv" d="M1496 1099 L1694 901 L1694 1029 L1496 1227 Z"/><path class="fv1" d="M1496 1099 L1694 901 L1694 1029 L1496 1227 Z" /></g><g class="o"><path transform="translate(9,18)" class="S sfh" d="M1437 1443 L1363 1369 L1483 1369 L1557 1443 Z"/><path class="fh4" d="M1437 1443 L1363 1369 L1483 1369 L1557 1443 Z" /></g><g class="o"><path transform="translate(3,6)" class="S sfv" d="M1684 1694 L1587 1597 L1587 1709 L1684 1806 Z"/><path class="fv1" d="M1684 1694 L1587 1597 L1587 1709 L1684 1806 Z" /></g><g class="o"><path transform="translate(4,8)" class="S sfv" d="M1288 1386 L1133 1541 L1133 1629 L1288 1474 Z"/><path class="fv1" d="M1288 1386 L1133 1541 L1133 1629 L1288 1474 Z" /></g><g class="o"><path transform="translate(2,4)" class="S sf" d="M1667 1162 L1866 963 L1866 985 L1667 1184 Z"/><path class="f3" d="M1667 1162 L1866 963 L1866 985 L1667 1184 Z" /></g><g class="o"><path transform="translate(7,14)" class="S ssv" d="M1536 1099 L2061 574 L2061 588 L1536 1113 Z"/><path class="sv4" d="M1536 1099 L2061 574 L2061 588 L1536 1113 Z" /></g><g class="o"><path transform="translate(2,4)" class="S sf" d="M1570 1479 L1637 1412 L1757 1412 L1690 1479 Z"/><path class="f3" d="M1570 1479 L1637 1412 L1757 1412 L1690 1479 Z" /></g><g class="o"><path transform="translate(9,18)" class="S sfv" d="M2034 1554 L1830 1350 L1830 1478 L2034 1682 Z"/><path class="fv3" d="M2034 1554 L1830 1350 L1830 1478 L2034 1682 Z" /></g><g class="o"><path transform="translate(6,12)" class="S ssv" d="M1361 1169 L1275 1255 L1275 1295 L1361 1209 Z"/><path class="sv3" d="M1361 1169 L1275 1255 L1275 1295 L1361 1209 Z" /></g><g class="o"><path transform="translate(3,6)" class="S sfh" d="M1158 1512 L1331 1339 L1403 1339 L1230 1512 Z"/><path class="fh1" d="M1158 1512 L1331 1339 L1403 1339 L1230 1512 Z" /></g><g class="o"><path transform="translate(8,16)" class="S sfh" d="M1986 1396 L1836 1546 L1854 1546 L2004 1396 Z"/><path class="fh1" d="M1986 1396 L1836 1546 L1854 1546 L2004 1396 Z" /></g><g class="o"><path transform="translate(6,12)" class="S sfh" d="M1027 1251 L1213 1065 L1365 1065 L1179 1251 Z"/><path class="fh6" d="M1027 1251 L1213 1065 L1365 1065 L1179 1251 Z" /></g><g class="o"><path transform="translate(2,4)" class="S sfh" d="M1767 1532 L1981 1746 L2045 1746 L1831 1532 Z"/><path class="fh5" d="M1767 1532 L1981 1746 L2045 1746 L1831 1532 Z" /></g><g class="o"><path transform="translate(5,10)" class="S sfh" d="M1902 1729 L1724 1907 L1758 1907 L1936 1729 Z"/><path class="fh7" d="M1902 1729 L1724 1907 L1758 1907 L1936 1729 Z" /></g><g class="o"><path transform="translate(6,12)" class="S sfh" d="M1715 1200 L1798 1117 L1910 1117 L1827 1200 Z"/><path class="fh4" d="M1715 1200 L1798 1117 L1910 1117 L1827 1200 Z" /></g><g class="o"><path transform="translate(3,6)" class="S ssv" d="M1087 1617 L1318 1386 L1318 1450 L1087 1681 Z"/><path class="sv7" d="M1087 1617 L1318 1386 L1318 1450 L1087 1681 Z" /></g><g class="o"><path transform="translate(7,14)" class="S sfv" d="M1831 1198 L2000 1367 L2000 1431 L1831 1262 Z"/><path class="fv7" d="M1831 1198 L2000 1367 L2000 1431 L1831 1262 Z" /></g><g class="o"><path transform="translate(4,8)" class="S sf" d="M1601 1882 L1076 1357 L1076 1453 L1601 1978 Z"/><path class="f6" d="M1601 1882 L1076 1357 L1076 1453 L1601 1978 Z" /></g><g class="o"><path transform="translate(3,6)" class="S sfh" d="M1800 1345 L2041 1586 L2053 1586 L1812 1345 Z"/><path class="fh3" d="M1800 1345 L2041 1586 L2053 1586 L1812 1345 Z" /></g><g class="o"><path transform="translate(2,4)" class="S sfv" d="M1062 1958 L1201 2097 L1201 2119 L1062 1980 Z"/><path class="fv5" d="M1062 1958 L1201 2097 L1201 2119 L1062 1980 Z" /></g><g class="o"><path transform="translate(6,12)" class="S sfh" d="M1500 1232 L1591 1323 L1679 1323 L1588 1232 Z"/><path class="fh1" d="M1500 1232 L1591 1323 L1679 1323 L1588 1232 Z" /></g><g class="o"><path transform="translate(9,18)" class="S sfv" d="M987 1248 L1078 1339 L1078 1475 L987 1384 Z"/><path class="fv3" d="M987 1248 L1078 1339 L1078 1475 L987 1384 Z" /></g><g class="o"><path transform="translate(5,10)" class="S ssv" d="M1181 1810 L1349 1642 L1349 1678 L1181 1846 Z"/><path class="sv7" d="M1181 1810 L1349 1642 L1349 1678 L1181 1846 Z" /></g><g class="o"><path transform="translate(6,12)" class="S sfv" d="M1727 1433 L1886 1592 L1886 1672 L1727 1513 Z"/><path class="fv4" d="M1727 1433 L1886 1592 L1886 1672 L1727 1513 Z" /></g><g class="o"><path transform="translate(7,14)" class="S sfv" d="M1625 1233 L1706 1314 L1706 1442 L1625 1361 Z"/><path class="fv2" d="M1625 1233 L1706 1314 L1706 1442 L1625 1361 Z" /></g><g class="o"><path transform="translate(2,4)" class="S sfh" d="M1663 1918 L1906 2161 L1962 2161 L1719 1918 Z"/><path class="fh3" d="M1663 1918 L1906 2161 L1962 2161 L1719 1918 Z" /></g><g class="o"><path transform="translate(6,12)" class="S ss" d="M1763 1499 L1857 1405 L1857 1443 L1763 1537 Z"/><path class="s6" d="M1763 1499 L1857 1405 L1857 1443 L1763 1537 Z" /></g><g class="o"><path transform="translate(4,8)" class="S sfh" d="M1314 1511 L1177 1374 L1233 1374 L1370 1511 Z"/><path class="fh2" d="M1314 1511 L1177 1374 L1233 1374 L1370 1511 Z" /></g><g class="o"><path transform="translate(4,8)" class="S sfv" d="M1174 999 L1264 1089 L1264 1127 L1174 1037 Z"/><path class="fv4" d="M1174 999 L1264 1089 L1264 1127 L1174 1037 Z" /></g><g class="o"><path transform="translate(5,10)" class="S sfv" d="M1051 1513 L1411 1153 L1411 1185 L1051 1545 Z"/><path class="fv2" d="M1051 1513 L1411 1153 L1411 1185 L1051 1545 Z" /></g><g class="o"><path transform="translate(4,8)" class="S sfh" d="M1883 1708 L2618 973 L2746 973 L2011 1708 Z"/><path class="fh3" d="M1883 1708 L2618 973 L2746 973 L2011 1708 Z" /></g><g class="o"><path transform="translate(9,18)" class="S ss" d="M1443 1333 L1609 1167 L1609 1175 L1443 1341 Z"/><path class="s2" d="M1443 1333 L1609 1167 L1609 1175 L1443 1341 Z" /></g><g class="o"><path transform="translate(2,4)" class="S sf" d="M1790 1161 L2444 1815 L2444 1827 L1790 1173 Z"/><path class="f3" d="M1790 1161 L2444 1815 L2444 1827 L1790 1173 Z" /></g><g class="o"><path transform="translate(7,14)" class="S ssh" d="M1279 1267 L1189 1357 L1285 1357 L1375 1267 Z"/><path class="sh7" d="M1279 1267 L1189 1357 L1285 1357 L1375 1267 Z" /></g><g class="o"><path transform="translate(5,10)" class="S sfh" d="M1974 1359 L2201 1132 L2273 1132 L2046 1359 Z"/><path class="fh7" d="M1974 1359 L2201 1132 L2273 1132 L2046 1359 Z" /></g><g class="o"><path transform="translate(8,16)" class="S sfh" d="M1207 1016 L1451 1260 L1539 1260 L1295 1016 Z"/><path class="fh1" d="M1207 1016 L1451 1260 L1539 1260 L1295 1016 Z" /></g><g class="o"><path transform="translate(3,6)" class="S ssv" d="M1301 1519 L1434 1652 L1434 1748 L1301 1615 Z"/><path class="sv1" d="M1301 1519 L1434 1652 L1434 1748 L1301 1615 Z" /></g><g class="o"><path transform="translate(5,10)" class="S ssv" d="M1885 1406 L1947 1344 L1947 1384 L1885 1446 Z"/><path class="sv4" d="M1885 1406 L1947 1344 L1947 1384 L1885 1446 Z" /></g><g class="o"><path transform="translate(7,14)" class="S sfh" d="M1084 1160 L1153 1091 L1225 1091 L1156 1160 Z"/><path class="fh6" d="M1084 1160 L1153 1091 L1225 1091 L1156 1160 Z" /></g><g class="o"><path transform="translate(5,10)" class="S sfv" d="M1620 1200 L1745 1075 L1745 1123 L1620 1248 Z"/><path class="fv6" d="M1620 1200 L1745 1075 L1745 1123 L1620 1248 Z" /></g><g class="o"><path transform="translate(8,16)" class="S ssv" d="M957 901 L1167 1111 L1167 1231 L957 1021 Z"/><path class="sv1" d="M957 901 L1167 1111 L1167 1231 L957 1021 Z" /></g><g class="o"><path transform="translate(8,16)" class="S sf" d="M1605 1312 L1742 1175 L1778 1175 L1641 1312 Z"/><path class="f1" d="M1605 1312 L1742 1175 L1778 1175 L1641 1312 Z" /></g><g class="o"><path transform="translate(7,14)" class="S sfh" d="M1673 2027 L2294 2648 L2406 2648 L1785 2027 Z"/><path class="fh3" d="M1673 2027 L2294 2648 L2406 2648 L1785 2027 Z" /></g><g class="o"><path transform="translate(4,8)" class="S sfh" d="M1736 1381 L1640 1477 L1776 1477 L1872 1381 Z"/><path class="fh7" d="M1736 1381 L1640 1477 L1776 1477 L1872 1381 Z" /></g><g class="o"><path transform="translate(5,10)" class="S ssv" d="M1665 1932 L1811 2078 L1811 2182 L1665 2036 Z"/><path class="sv7" d="M1665 1932 L1811 2078 L1811 2182 L1665 2036 Z" /></g></g><use href="#slashes" transform-origin="1500 1500" transform="rotate(180) scale(2)"/></g><rect x="1080" y="1080" width="840" height="840" stroke-width="20" class="o f1" /><use href="#slashes" transform-origin="1500 1500" transform="scale(.7)"/><use href="#slashes" transform-origin="1500 1500" transform="rotate(180) scale(.3)"/></svg>