<svg xmlns="http://www.w3.org/2000/svg" viewBox="750 750 1500 1500"><style>/*<![CDATA[*/svg{background:rgb(255,97,80);max-width:100vw;max-height:100vh}path{stroke-width:4}.o{opacity:.75}.S{opacity:.4}.sf{stroke:none;fill:black}.sfh{stroke:none;fill:url(#hs)}.sfv{stroke:none;fill:url(#vs)}.ss{stroke:black;fill:none}.ssh{stroke:url(#hs);fill:none}.ssv{stroke:url(#vs);fill:none}.s1{fill:none;stroke:rgb(222,224,230)}.f1{stroke:none;fill:rgb(222,224,230)}.sh1{fill:none;stroke:url(#h1)}.fh1{stroke:none;fill:url(#h1)}.sv1{fill:none;stroke:url(#v1)}.fv1{stroke:none;fill:url(#v1)}.s2{fill:none;stroke:rgb(19,78,111)}.f2{stroke:none;fill:rgb(19,78,111)}.sh2{fill:none;stroke:url(#h2)}.fh2{stroke:none;fill:url(#h2)}.sv2{fill:none;stroke:url(#v2)}.fv2{stroke:none;fill:url(#v2)}.s3{fill:none;stroke:rgb(34,34,34)}.f3{stroke:none;fill:rgb(34,34,34)}.sh3{fill:none;stroke:url(#h3)}.fh3{stroke:none;fill:url(#h3)}.sv3{fill:none;stroke:url(#v3)}.fv3{stroke:none;fill:url(#v3)}.s4{fill:none;stroke:rgb(255,168,34)}.f4{stroke:none;fill:rgb(255,168,34)}.sh4{fill:none;stroke:url(#h4)}.fh4{stroke:none;fill:url(#h4)}.sv4{fill:none;stroke:url(#v4)}.fv4{stroke:none;fill:url(#v4)}.s5{fill:none;stroke:rgb(26,192,198)}.f5{stroke:none;fill:rgb(26,192,198)}.sh5{fill:none;stroke:url(#h5)}.fh5{stroke:none;fill:url(#h5)}.sv5{fill:none;stroke:url(#v5)}.fv5{stroke:none;fill:url(#v5)}.s6{fill:none;stroke:rgb(255,255,255)}.f6{stroke:none;fill:rgb(255,255,255)}.sh6{fill:none;stroke:url(#h6)}.fh6{stroke:none;fill:url(#h6)}.sv6{fill:none;stroke:url(#v6)}.fv6{stroke:none;fill:url(#v6)}.s7{fill:none;stroke:rgb(255,255,0)}.f7{stroke:none;fill:rgb(255,255,0)}.sh7{fill:none;stroke:url(#h7)}.fh7{stroke:none;fill:url(#h7)}.sv7{fill:none;stroke:url(#v7)}.fv7{stroke:none;fill:url(#v7)}/*]]>*/</style><defs><linearGradient gradientTransform="rotate(90)" id="hs"><stop offset="20%" stop-color="#000" /><stop offset="95%" stop-color="rgba(0, 0, 0, 0)" /></linearGradient><linearGradient id="vs"><stop offset="20%" stop-color="#000" /><stop offset="95%" stop-color="rgba(0, 0, 0, 0)" /></linearGradient><linearGradient gradientTransform="rotate(90)" id="h1"><stop offset="20%" stop-color="rgba(222,224,230,1)" /><stop offset="95%" stop-color="rgba(222,224,230,0)" /></linearGradient><linearGradient id="v1"><stop offset="20%" stop-color="rgba(222,224,230,1)" /><stop offset="95%" stop-color="rgba(222,224,230,0)" /></linearGradient><linearGradient gradientTransform="rotate(90)" id="h2"><stop offset="20%" stop-color="rgba(19,78,111,1)" /><stop offset="95%" stop-color="rgba(19,78,111,0)" /></linearGradient><linearGradient id="v2"><stop offset="20%" stop-color="rgba(19,78,111,1)" /><stop offset="95%" stop-color="rgba(19,78,111,0)" /></linearGradient><linearGradient gradientTransform="rotate(90)" id="h3"><stop offset="20%" stop-color="rgba(34,34,34,1)" /><stop offset="95%" stop-color="rgba(34,34,34,0)" /></linearGradient><linearGradient id="v3"><stop offset="20%" stop-color="rgba(34,34,34,1)" /><stop offset="95%" stop-color="rgba(34,34,34,0)" /></linearGradient><linearGradient gradientTransform="rotate(90)" id="h4"><stop offset="20%" stop-color="rgba(255,168,34,1)" /><stop offset="95%" stop-color="rgba(255,168,34,0)" /></linearGradient><linearGradient id="v4"><stop offset="20%" stop-color="rgba(255,168,34,1)" /><stop offset="95%" stop-color="rgba(255,168,34,0)" /></linearGradient><linearGradient gradientTransform="rotate(90)" id="h5"><stop offset="20%" stop-color="rgba(26,192,198,1)" /><stop offset="95%" stop-color="rgba(26,192,198,0)" /></linearGradient><linearGradient id="v5"><stop offset="20%" stop-color="rgba(26,192,198,1)" /><stop offset="95%" stop-color="rgba(26,192,198,0)" /></linearGradient><linearGradient gradientTransform="rotate(90)" id="h6"><stop offset="20%" stop-color="rgba(255,255,255,1)" /><stop offset="95%" stop-color="rgba(255,255,255,0)" /></linearGradient><linearGradient id="v6"><stop offset="20%" stop-color="rgba(255,255,255,1)" /><stop offset="95%" stop-color="rgba(255,255,255,0)" /></linearGradient><linearGradient gradientTransform="rotate(90)" id="h7"><stop offset="20%" stop-color="rgba(255,255,0,1)" /><stop offset="95%" stop-color="rgba(255,255,0,0)" /></linearGradient><linearGradient id="v7"><stop offset="20%" stop-color="rgba(255,255,0,1)" /><stop offset="95%" stop-color="rgba(255,255,0,0)" /></linearGradient></defs><g transform-origin="1500 1500" transform="scale(2)" opacity=".2"><g id="slashes"><g class="o"><path transform="translate(5,10)" class="S sf" d="M1938 1849 L2077 1988 L2077 2116 L1938 1977 Z"/><path class="f6" d="M1938 1849 L2077 1988 L2077 2116 L1938 1977 Z" /></g><g class="o"><path transform="translate(3,6)" class="S sf" d="M1498 1602 L1325 1775 L1469 1775 L1642 1602 Z"/><path class="f4" d="M1498 1602 L1325 1775 L1469 1775 L1642 1602 Z" /></g><g class="o"><path transform="translate(9,18)" class="S sf" d="M1044 985 L907 1122 L907 1140 L1044 1003 Z"/><path class="f2" d="M1044 985 L907 1122 L907 1140 L1044 1003 Z" /></g><g class="o"><path transform="translate(7,14)" class="S sfv" d="M1237 1120 L1366 1249 L1366 1267 L1237 1138 Z"/><path class="fv1" d="M1237 1120 L1366 1249 L1366 1267 L1237 1138 Z" /></g><g class="o"><path transform="translate(6,12)" class="S sfh" d="M1428 1637 L1339 1726 L1351 1726 L1440 1637 Z"/><path class="fh2" d="M1428 1637 L1339 1726 L1351 1726 L1440 1637 Z" /></g><g class="o"><path transform="translate(4,8)" class="S sfh" d="M1471 982 L1051 1402 L1163 1402 L1583 982 Z"/><path class="fh1" d="M1471 982 L1051 1402 L1163 1402 L1583 982 Z" /></g><g class="o"><path transform="translate(8,16)" class="S sf" d="M1277 1065 L1135 1207 L1145 1207 L1287 1065 Z"/><path class="f3" d="M1277 1065 L1135 1207 L1145 1207 L1287 1065 Z" /></g><g class="o"><path transform="translate(6,12)" class="S sfv" d="M1383 1419 L1623 1659 L1623 1685 L1383 1445 Z"/><path class="fv5" d="M1383 1419 L1623 1659 L1623 1685 L1383 1445 Z" /></g><g class="o"><path transform="translate(5,10)" class="S ssh" d="M1270 1631 L1098 1459 L1106 1459 L1278 1631 Z"/><path class="sh3" d="M1270 1631 L1098 1459 L1106 1459 L1278 1631 Z" /></g><g class="o"><path transform="translate(2,4)" class="S ssv" d="M1136 1747 L908 1519 L908 1607 L1136 1835 Z"/><path class="sv3" d="M1136 1747 L908 1519 L908 1607 L1136 1835 Z" /></g><g class="o"><path transform="translate(6,12)" class="S sfh" d="M1320 1001 L1381 1062 L1389 1062 L1328 1001 Z"/><path class="fh5" d="M1320 1001 L1381 1062 L1389 1062 L1328 1001 Z" /></g><g class="o"><path transform="translate(6,12)" class="S sfv" d="M1218 1059 L1399 1240 L1399 1278 L1218 1097 Z"/><path class="fv6" d="M1218 1059 L1399 1240 L1399 1278 L1218 1097 Z" /></g><g class="o"><path transform="translate(6,12)" class="S sfh" d="M1645 1842 L1505 1982 L1533 1982 L1673 1842 Z"/><path class="fh2" d="M1645 1842 L1505 1982 L1533 1982 L1673 1842 Z" /></g><g class="o"><path transform="translate(4,8)" class="S ssv" d="M1446 1467 L1542 1563 L1542 1587 L1446 1491 Z"/><path class="sv3" d="M1446 1467 L1542 1563 L1542 1587 L1446 1491 Z" /></g><g class="o"><path transform="translate(7,14)" class="S sfv" d="M1975 1051 L1771 1255 L1771 1277 L1975 1073 Z"/><path class="fv3" d="M1975 1051 L1771 1255 L1771 1277 L1975 1073 Z" /></g><g class="o"><path transform="translate(5,10)" class="S sfv" d="M2022 1338 L1925 1435 L1925 1445 L2022 1348 Z"/><path class="fv7" d="M2022 1338 L1925 1435 L1925 1445 L2022 1348 Z" /></g><g class="o"><path transform="translate(2,4)" class="S sf" d="M1084 1275 L975 1384 L975 1410 L1084 1301 Z"/><path class="f2" d="M1084 1275 L975 1384 L975 1410 L1084 1301 Z" /></g><g class="o"><path transform="translate(2,4)" class="S sf" d="M1166 1875 L1280 1989 L1280 2007 L1166 1893 Z"/><path class="f5" d="M1166 1875 L1280 1989 L1280 2007 L1166 1893 Z" /></g><g class="o"><path transform="translate(5,10)" class="S ss" d="M1437 1416 L1235 1214 L1235 1262 L1437 1464 Z"/><path class="s7" d="M1437 1416 L1235 1214 L1235 1262 L1437 1464 Z" /></g><g class="o"><path transform="translate(7,14)" class="S sfv" d="M1212 1193 L1002 1403 L1002 1431 L1212 1221 Z"/><path class="fv3" d="M1212 1193 L1002 1403 L1002 1431 L1212 1221 Z" /></g><g class="o"><path transform="translate(7,14)" class="S sfh" d="M1521 1664 L1312 1873 L1346 1873 L1555 1664 Z"/><path class="fh1" d="M1521 1664 L1312 1873 L1346 1873 L1555 1664 Z" /></g><g class="o"><path transform="translate(2,4)" class="S sfv" d="M2012 1222 L1463 1771 L1463 1899 L2012 1350 Z"/><path class="fv6" d="M2012 1222 L1463 1771 L1463 1899 L2012 1350 Z" /></g><g class="o"><path transform="translate(6,12)" class="S sfv" d="M1953 1387 L2010 1444 L2010 1462 L1953 1405 Z"/><path class="fv1" d="M1953 1387 L2010 1444 L2010 1462 L1953 1405 Z" /></g><g class="o"><path transform="translate(9,18)" class="S sfh" d="M999 1300 L1180 1481 L1260 1481 L1079 1300 Z"/><path class="fh7" d="M999 1300 L1180 1481 L1260 1481 L1079 1300 Z" /></g><g class="o"><path transform="translate(7,14)" class="S ssv" d="M1022 1537 L926 1633 L926 1745 L1022 1649 Z"/><path class="sv2" d="M1022 1537 L926 1633 L926 1745 L1022 1649 Z" /></g><g class="o"><path transform="translate(7,14)" class="S ssv" d="M1172 1977 L593 1398 L593 1424 L1172 2003 Z"/><path class="sv1" d="M1172 1977 L593 1398 L593 1424 L1172 2003 Z" /></g><g class="o"><path transform="translate(9,18)" class="S sfh" d="M932 1669 L838 1763 L934 1763 L1028 1669 Z"/><path class="fh5" d="M932 1669 L838 1763 L934 1763 L1028 1669 Z" /></g><g class="o"><path transform="translate(3,6)" class="S ss" d="M1191 1941 L1584 1548 L1584 1652 L1191 2045 Z"/><path class="s5" d="M1191 1941 L1584 1548 L1584 1652 L1191 2045 Z" /></g><g class="o"><path transform="translate(6,12)" class="S sfv" d="M1755 1547 L1966 1336 L1966 1464 L1755 1675 Z"/><path class="fv7" d="M1755 1547 L1966 1336 L1966 1464 L1755 1675 Z" /></g><g class="o"><path transform="translate(9,18)" class="S sfv" d="M1450 1370 L1558 1262 L1558 1274 L1450 1382 Z"/><path class="fv4" d="M1450 1370 L1558 1262 L1558 1274 L1450 1382 Z" /></g><g class="o"><path transform="translate(4,8)" class="S sfh" d="M1473 1332 L1277 1528 L1285 1528 L1481 1332 Z"/><path class="fh1" d="M1473 1332 L1277 1528 L1285 1528 L1481 1332 Z" /></g><g class="o"><path transform="translate(7,14)" class="S sfh" d="M1824 1138 L1938 1252 L2082 1252 L1968 1138 Z"/><path class="fh5" d="M1824 1138 L1938 1252 L2082 1252 L1968 1138 Z" /></g><g class="o"><path transform="translate(8,16)" class="S sfh" d="M1708 1257 L1811 1360 L1891 1360 L1788 1257 Z"/><path class="fh4" d="M1708 1257 L1811 1360 L1891 1360 L1788 1257 Z" /></g><g class="o"><path transform="translate(5,10)" class="S sfv" d="M1935 1148 L2016 1229 L2016 1245 L1935 1164 Z"/><path class="fv3" d="M1935 1148 L2016 1229 L2016 1245 L1935 1164 Z" /></g><g class="o"><path transform="translate(9,18)" class="S ssh" d="M1330 1023 L1457 1150 L1593 1150 L1466 1023 Z"/><path class="sh4" d="M1330 1023 L1457 1150 L1593 1150 L1466 1023 Z" /></g><g class="o"><path transform="translate(6,12)" class="S sfv" d="M1544 1011 L1657 1124 L1657 1150 L1544 1037 Z"/><path class="fv1" d="M1544 1011 L1657 1124 L1657 1150 L1544 1037 Z" /></g><g class="o"><path transform="translate(8,16)" class="S ssh" d="M1528 1653 L1617 1742 L1721 1742 L1632 1653 Z"/><path class="sh7" d="M1528 1653 L1617 1742 L1721 1742 L1632 1653 Z" /></g><g class="o"><path transform="translate(6,12)" class="S sfv" d="M1360 1870 L1783 2293 L1783 2301 L1360 1878 Z"/><path class="fv2" d="M1360 1870 L1783 2293 L1783 2301 L1360 1878 Z" /></g><g class="o"><path transform="translate(8,16)" class="S sfv" d="M1869 1183 L2199 1513 L2199 1529 L1869 1199 Z"/><path class="fv7" d="M1869 1183 L2199 1513 L2199 1529 L1869 1199 Z" /></g><g class="o"><path transform="translate(7,14)" class="S sfv" d="M2033 1646 L2147 1760 L2147 1782 L2033 1668 Z"/><path class="fv7" d="M2033 1646 L2147 1760 L2147 1782 L2033 1668 Z" /></g><g class="o"><path transform="translate(6,12)" class="S sfh" d="M1610 1786 L1401 1995 L1429 1995 L1638 1786 Z"/><path class="fh6" d="M1610 1786 L1401 1995 L1429 1995 L1638 1786 Z" /></g><g class="o"><path transform="translate(9,18)" class="S ss" d="M1706 1508 L1501 1713 L1501 1741 L1706 1536 Z"/><path class="s4" d="M1706 1508 L1501 1713 L1501 1741 L1706 1536 Z" /></g><g class="o"><path transform="translate(5,10)" class="S sfh" d="M1967 2011 L1800 2178 L1848 2178 L2015 2011 Z"/><path class="fh2" d="M1967 2011 L1800 2178 L1848 2178 L2015 2011 Z" /></g><g class="o"><path transform="translate(2,4)" class="S sf" d="M1789 1423 L2032 1666 L2052 1666 L1809 1423 Z"/><path class="f1" d="M1789 1423 L2032 1666 L2052 1666 L1809 1423 Z" /></g><g class="o"><path transform="translate(6,12)" class="S sfv" d="M1679 1467 L1731 1519 L1731 1527 L1679 1475 Z"/><path class="fv3" d="M1679 1467 L1731 1519 L1731 1527 L1679 1475 Z" /></g><g class="o"><path transform="translate(6,12)" class="S sfv" d="M1236 1713 L1363 1586 L1363 1706 L1236 1833 Z"/><path class="fv4" d="M1236 1713 L1363 1586 L1363 1706 L1236 1833 Z" /></g><g class="o"><path transform="translate(6,12)" class="S sfh" d="M910 963 L238 1635 L334 1635 L1006 963 Z"/><path class="fh4" d="M910 963 L238 1635 L334 1635 L1006 963 Z" /></g><g class="o"><path transform="translate(3,6)" class="S sfv" d="M1692 1480 L1472 1700 L1472 1708 L1692 1488 Z"/><path class="fv6" d="M1692 1480 L1472 1700 L1472 1708 L1692 1488 Z" /></g><g class="o"><path transform="translate(8,16)" class="S ssh" d="M1217 1063 L1445 1291 L1589 1291 L1361 1063 Z"/><path class="sh6" d="M1217 1063 L1445 1291 L1589 1291 L1361 1063 Z" /></g><g class="o"><path transform="translate(7,14)" class="S sfv" d="M1207 1241 L1612 836 L1612 844 L1207 1249 Z"/><path class="fv5" d="M1207 1241 L1612 836 L1612 844 L1207 1249 Z" /></g><g class="o"><path transform="translate(8,16)" class="S sf" d="M1235 1452 L1146 1363 L1172 1363 L1261 1452 Z"/><path class="f7" d="M1235 1452 L1146 1363 L1172 1363 L1261 1452 Z" /></g><g class="o"><path transform="translate(4,8)" class="S sfh" d="M1555 1266 L1355 1066 L1475 1066 L1675 1266 Z"/><path class="fh6" d="M1555 1266 L1355 1066 L1475 1066 L1675 1266 Z" /></g><g class="o"><path transform="translate(4,8)" class="S ssv" d="M2013 1349 L2135 1227 L2135 1241 L2013 1363 Z"/><path class="sv5" d="M2013 1349 L2135 1227 L2135 1241 L2013 1363 Z" /></g><g class="o"><path transform="translate(6,12)" class="S ssh" d="M1680 1715 L1778 1813 L1858 1813 L1760 1715 Z"/><path class="sh6" d="M1680 1715 L1778 1813 L1858 1813 L1760 1715 Z" /></g><g class="o"><path transform="translate(7,14)" class="S ssv" d="M1817 1773 L2450 2406 L2450 2440 L1817 1807 Z"/><path class="sv4" d="M1817 1773 L2450 2406 L2450 2440 L1817 1807 Z" /></g><g class="o"><path transform="translate(5,10)" class="S sf" d="M1979 999 L2363 1383 L2363 1413 L1979 1029 Z"/><path class="f7" d="M1979 999 L2363 1383 L2363 1413 L1979 1029 Z" /></g><g class="o"><path transform="translate(9,18)" class="S sfh" d="M1543 1808 L1785 2050 L1803 2050 L1561 1808 Z"/><path class="fh2" d="M1543 1808 L1785 2050 L1803 2050 L1561 1808 Z" /></g><g class="o"><path transform="translate(8,16)" class="S ssh" d="M1885 1569 L1990 1674 L2010 1674 L1905 1569 Z"/><path class="sh7" d="M1885 1569 L1990 1674 L2010 1674 L1905 1569 Z" /></g><g class="o"><path transform="translate(7,14)" class="S ss" d="M1042 1901 L1246 1697 L1246 1729 L1042 1933 Z"/><path class="s6" d="M1042 1901 L1246 1697 L1246 1729 L1042 1933 Z" /></g><g class="o"><path transform="translate(7,14)" class="S ssh" d="M1174 1168 L1423 1417 L1487 1417 L1238 1168 Z"/><path class="sh5" d="M1174 1168 L1423 1417 L1487 1417 L1238 1168 Z" /></g><g class="o"><path transform="translate(9,18)" class="S sfv" d="M1387 1100 L1627 1340 L1627 1356 L1387 1116 Z"/><path class="fv7" d="M1387 1100 L1627 1340 L1627 1356 L1387 1116 Z" /></g><g class="o"><path transform="translate(6,12)" class="S ss" d="M957 1743 L882 1818 L908 1818 L983 1743 Z"/><path class="s2" d="M957 1743 L882 1818 L908 1818 L983 1743 Z" /></g><g class="o"><path transform="translate(4,8)" class="S sf" d="M1405 1459 L1293 1571 L1293 1651 L1405 1539 Z"/><path class="f3" d="M1405 1459 L1293 1571 L1293 1651 L1405 1539 Z" /></g><g class="o"><path transform="translate(4,8)" class="S sfh" d="M1473 1233 L1390 1150 L1478 1150 L1561 1233 Z"/><path class="fh4" d="M1473 1233 L1390 1150 L1478 1150 L1561 1233 Z" /></g><g class="o"><path transform="translate(7,14)" class="S sfv" d="M1119 1537 L1287 1705 L1287 1719 L1119 1551 Z"/><path class="fv3" d="M1119 1537 L1287 1705 L1287 1719 L1119 1551 Z" /></g><g class="o"><path transform="translate(5,10)" class="S sfh" d="M1448 1403 L1518 1333 L1574 1333 L1504 1403 Z"/><path class="fh2" d="M1448 1403 L1518 1333 L1574 1333 L1504 1403 Z" /></g><g class="o"><path transform="translate(2,4)" class="S sfv" d="M1072 1001 L999 928 L999 940 L1072 1013 Z"/><path class="fv3" d="M1072 1001 L999 928 L999 940 L1072 1013 Z" /></g><g class="o"><path transform="translate(7,14)" class="S sf" d="M1342 989 L1145 792 L1281 792 L1478 989 Z"/><path class="f3" d="M1342 989 L1145 792 L1281 792 L1478 989 Z" /></g><g class="o"><path transform="translate(4,8)" class="S sfh" d="M1573 1194 L1513 1134 L1527 1134 L1587 1194 Z"/><path class="fh5" d="M1573 1194 L1513 1134 L1527 1134 L1587 1194 Z" /></g><g class="o"><path transform="translate(5,10)" class="S sfv" d="M1160 1985 L1326 2151 L1326 2165 L1160 1999 Z"/><path class="fv1" d="M1160 1985 L1326 2151 L1326 2165 L1160 1999 Z" /></g><g class="o"><path transform="translate(3,6)" class="S sfh" d="M1120 1653 L1321 1854 L1329 1854 L1128 1653 Z"/><path class="fh4" d="M1120 1653 L1321 1854 L1329 1854 L1128 1653 Z" /></g><g class="o"><path transform="translate(9,18)" class="S sfv" d="M992 1514 L1239 1761 L1239 1801 L992 1554 Z"/><path class="fv7" d="M992 1514 L1239 1761 L1239 1801 L992 1554 Z" /></g><g class="o"><path transform="translate(3,6)" class="S sfh" d="M1520 1518 L1632 1630 L1688 1630 L1576 1518 Z"/><path class="fh6" d="M1520 1518 L1632 1630 L1688 1630 L1576 1518 Z" /></g><g class="o"><path transform="translate(7,14)" class="S sfh" d="M1048 1372 L1133 1457 L1181 1457 L1096 1372 Z"/><path class="fh2" d="M1048 1372 L1133 1457 L1181 1457 L1096 1372 Z" /></g><g class="o"><path transform="translate(3,6)" class="S sf" d="M1097 1424 L1203 1530 L1241 1530 L1135 1424 Z"/><path class="f7" d="M1097 1424 L1203 1530 L1241 1530 L1135 1424 Z" /></g><g class="o"><path transform="translate(8,16)" class="S ssv" d="M1476 1634 L933 2177 L933 2187 L1476 1644 Z"/><path class="sv3" d="M1476 1634 L933 2177 L933 2187 L1476 1644 Z" /></g><g class="o"><path transform="translate(6,12)" class="S sfv" d="M1140 1184 L913 957 L913 991 L1140 1218 Z"/><path class="fv3" d="M1140 1184 L913 957 L913 991 L1140 1218 Z" /></g><g class="o"><path transform="translate(7,14)" class="S sfh" d="M1613 1790 L1828 2005 L1840 2005 L1625 1790 Z"/><path class="fh1" d="M1613 1790 L1828 2005 L1840 2005 L1625 1790 Z" /></g><g class="o"><path transform="translate(4,8)" class="S sfv" d="M1780 1697 L1699 1778 L1699 1796 L1780 1715 Z"/><path class="fv2" d="M1780 1697 L1699 1778 L1699 1796 L1780 1715 Z" /></g><g class="o"><path transform="translate(4,8)" class="S ssv" d="M1216 1503 L502 2217 L502 2297 L1216 1583 Z"/><path class="sv7" d="M1216 1503 L502 2217 L502 2297 L1216 1583 Z" /></g><g class="o"><path transform="translate(8,16)" class="S sfv" d="M1899 1838 L1704 1643 L1704 1675 L1899 1870 Z"/><path class="fv2" d="M1899 1838 L1704 1643 L1704 1675 L1899 1870 Z" /></g><g class="o"><path transform="translate(5,10)" class="S sfv" d="M1757 1878 L1573 2062 L1573 2134 L1757 1950 Z"/><path class="fv3" d="M1757 1878 L1573 2062 L1573 2134 L1757 1950 Z" /></g><g class="o"><path transform="translate(9,18)" class="S ssh" d="M1043 1242 L1108 1307 L1132 1307 L1067 1242 Z"/><path class="sh4" d="M1043 1242 L1108 1307 L1132 1307 L1067 1242 Z" /></g><g class="o"><path transform="translate(8,16)" class="S sf" d="M1686 1802 L1536 1952 L1566 1952 L1716 1802 Z"/><path class="f6" d="M1686 1802 L1536 1952 L1566 1952 L1716 1802 Z" /></g><g class="o"><path transform="translate(6,12)" class="S sfv" d="M1630 1341 L1578 1393 L1578 1431 L1630 1379 Z"/><path class="fv7" d="M1630 1341 L1578 1393 L1578 1431 L1630 1379 Z" /></g><g class="o"><path transform="translate(3,6)" class="S sfh" d="M1142 1665 L909 1432 L947 1432 L1180 1665 Z"/><path class="fh6" d="M1142 1665 L909 1432 L947 1432 L1180 1665 Z" /></g><g class="o"><path transform="translate(4,8)" class="S sf" d="M1233 1647 L1143 1737 L1143 1865 L1233 1775 Z"/><path class="f7" d="M1233 1647 L1143 1737 L1143 1865 L1233 1775 Z" /></g><g class="o"><path transform="translate(6,12)" class="S ssh" d="M1052 1636 L953 1735 L983 1735 L1082 1636 Z"/><path class="sh5" d="M1052 1636 L953 1735 L983 1735 L1082 1636 Z" /></g><g class="o"><path transform="translate(6,12)" class="S sfh" d="M1070 1439 L943 1312 L955 1312 L1082 1439 Z"/><path class="fh4" d="M1070 1439 L943 1312 L955 1312 L1082 1439 Z" /></g><g class="o"><path transform="translate(5,10)" class="S sfh" d="M1499 1484 L1347 1636 L1369 1636 L1521 1484 Z"/><path class="fh3" d="M1499 1484 L1347 1636 L1369 1636 L1521 1484 Z" /></g><g class="o"><path transform="translate(3,6)" class="S ssv" d="M2031 1692 L1822 1901 L1822 1957 L2031 1748 Z"/><path class="sv2" d="M2031 1692 L1822 1901 L1822 1957 L2031 1748 Z" /></g><g class="o"><path transform="translate(8,16)" class="S sfh" d="M1592 1855 L1482 1965 L1514 1965 L1624 1855 Z"/><path class="fh3" d="M1592 1855 L1482 1965 L1514 1965 L1624 1855 Z" /></g><g class="o"><path transform="translate(6,12)" class="S sfh" d="M1934 1026 L2074 1166 L2226 1166 L2086 1026 Z"/><path class="fh5" d="M1934 1026 L2074 1166 L2226 1166 L2086 1026 Z" /></g><g class="o"><path transform="translate(2,4)" class="S sf" d="M1302 1327 L1227 1402 L1237 1402 L1312 1327 Z"/><path class="f2" d="M1302 1327 L1227 1402 L1237 1402 L1312 1327 Z" /></g><g class="o"><path transform="translate(7,14)" class="S sfv" d="M1430 1279 L1513 1362 L1513 1388 L1430 1305 Z"/><path class="fv2" d="M1430 1279 L1513 1362 L1513 1388 L1430 1305 Z" /></g><g class="o"><path transform="translate(8,16)" class="S ss" d="M1901 1456 L2034 1589 L2034 1621 L1901 1488 Z"/><path class="s1" d="M1901 1456 L2034 1589 L2034 1621 L1901 1488 Z" /></g><g class="o"><path transform="translate(2,4)" class="S sfv" d="M1665 1790 L1603 1852 L1603 1872 L1665 1810 Z"/><path class="fv7" d="M1665 1790 L1603 1852 L1603 1872 L1665 1810 Z" /></g><g class="o"><path transform="translate(9,18)" class="S sf" d="M1440 1369 L1361 1448 L1361 1560 L1440 1481 Z"/><path class="f3" d="M1440 1369 L1361 1448 L1361 1560 L1440 1481 Z" /></g><g class="o"><path transform="translate(9,18)" class="S ss" d="M2030 1160 L1881 1309 L1913 1309 L2062 1160 Z"/><path class="s4" d="M2030 1160 L1881 1309 L1913 1309 L2062 1160 Z" /></g><g class="o"><path transform="translate(4,8)" class="S sfh" d="M1740 1508 L1534 1302 L1662 1302 L1868 1508 Z"/><path class="fh4" d="M1740 1508 L1534 1302 L1662 1302 L1868 1508 Z" /></g><g class="o"><path transform="translate(7,14)" class="S sf" d="M1354 1530 L1106 1778 L1130 1778 L1378 1530 Z"/><path class="f4" d="M1354 1530 L1106 1778 L1130 1778 L1378 1530 Z" /></g><g class="o"><path transform="translate(2,4)" class="S sfv" d="M1323 1823 L1263 1763 L1263 1795 L1323 1855 Z"/><path class="fv6" d="M1323 1823 L1263 1763 L1263 1795 L1323 1855 Z" /></g><g class="o"><path transform="translate(8,16)" class="S ssh" d="M1926 1731 L2283 2088 L2309 2088 L1952 1731 Z"/><path class="sh2" d="M1926 1731 L2283 2088 L2309 2088 L1952 1731 Z" /></g><g class="o"><path transform="translate(6,12)" class="S sfv" d="M1671 1233 L1497 1407 L1497 1527 L1671 1353 Z"/><path class="fv6" d="M1671 1233 L1497 1407 L1497 1527 L1671 1353 Z" /></g><g class="o"><path transform="translate(5,10)" class="S sf" d="M1624 1955 L1532 2047 L1556 2047 L1648 1955 Z"/><path class="f3" d="M1624 1955 L1532 2047 L1556 2047 L1648 1955 Z" /></g><g class="o"><path transform="translate(3,6)" class="S sfv" d="M1587 1312 L1467 1432 L1467 1466 L1587 1346 Z"/><path class="fv4" d="M1587 1312 L1467 1432 L1467 1466 L1587 1346 Z" /></g><g class="o"><path transform="translate(2,4)" class="S sfv" d="M1109 1170 L917 1362 L917 1390 L1109 1198 Z"/><path class="fv6" d="M1109 1170 L917 1362 L917 1390 L1109 1198 Z" /></g><g class="o"><path transform="translate(6,12)" class="S sfh" d="M1941 1580 L1724 1797 L1796 1797 L2013 1580 Z"/><path class="fh4" d="M1941 1580 L1724 1797 L1796 1797 L2013 1580 Z" /></g><g class="o"><path transform="translate(4,8)" class="S sfv" d="M962 1607 L1169 1400 L1169 1456 L962 1663 Z"/><path class="fv6" d="M962 1607 L1169 1400 L1169 1456 L962 1663 Z" /></g><g class="o"><path transform="translate(7,14)" class="S ss" d="M1690 1710 L1777 1623 L1777 1631 L1690 1718 Z"/><path class="s7" d="M1690 1710 L1777 1623 L1777 1631 L1690 1718 Z" /></g><g class="o"><path transform="translate(8,16)" class="S sfv" d="M1302 1141 L1352 1191 L1352 1211 L1302 1161 Z"/><path class="fv5" d="M1302 1141 L1352 1191 L1352 1211 L1302 1161 Z" /></g><g class="o"><path transform="translate(6,12)" class="S sfv" d="M1249 1338 L1344 1243 L1344 1269 L1249 1364 Z"/><path class="fv5" d="M1249 1338 L1344 1243 L1344 1269 L1249 1364 Z" /></g><g class="o"><path transform="translate(4,8)" class="S sf" d="M1724 1286 L2288 722 L2310 722 L1746 1286 Z"/><path class="f3" d="M1724 1286 L2288 722 L2310 722 L1746 1286 Z" /></g><g class="o"><path transform="translate(7,14)" class="S sfh" d="M1390 1448 L742 2096 L772 2096 L1420 1448 Z"/><path class="fh4" d="M1390 1448 L742 2096 L772 2096 L1420 1448 Z" /></g><g class="o"><path transform="translate(7,14)" class="S sf" d="M1849 1907 L1234 2522 L1272 2522 L1887 1907 Z"/><path class="f4" d="M1849 1907 L1234 2522 L1272 2522 L1887 1907 Z" /></g><g class="o"><path transform="translate(9,18)" class="S sf" d="M1279 1958 L1342 2021 L1364 2021 L1301 1958 Z"/><path class="f3" d="M1279 1958 L1342 2021 L1364 2021 L1301 1958 Z" /></g><g class="o"><path transform="translate(9,18)" class="S ssh" d="M1717 1651 L1527 1841 L1575 1841 L1765 1651 Z"/><path class="sh6" d="M1717 1651 L1527 1841 L1575 1841 L1765 1651 Z" /></g><g class="o"><path transform="translate(2,4)" class="S sfh" d="M1847 1155 L2017 1325 L2065 1325 L1895 1155 Z"/><path class="fh7" d="M1847 1155 L2017 1325 L2065 1325 L1895 1155 Z" /></g><g class="o"><path transform="translate(7,14)" class="S sfh" d="M1320 989 L1491 1160 L1571 1160 L1400 989 Z"/><path class="fh4" d="M1320 989 L1491 1160 L1571 1160 L1400 989 Z" /></g><g class="o"><path transform="translate(7,14)" class="S sfh" d="M959 1585 L830 1714 L910 1714 L1039 1585 Z"/><path class="fh6" d="M959 1585 L830 1714 L910 1714 L1039 1585 Z" /></g><g class="o"><path transform="translate(5,10)" class="S ssv" d="M1724 1673 L1534 1863 L1534 1897 L1724 1707 Z"/><path class="sv3" d="M1724 1673 L1534 1863 L1534 1897 L1724 1707 Z" /></g><g class="o"><path transform="translate(4,8)" class="S sfv" d="M1778 1893 L1644 2027 L1644 2055 L1778 1921 Z"/><path class="fv6" d="M1778 1893 L1644 2027 L1644 2055 L1778 1921 Z" /></g><g class="o"><path transform="translate(6,12)" class="S ssv" d="M990 1123 L822 1291 L822 1403 L990 1235 Z"/><path class="sv7" d="M990 1123 L822 1291 L822 1403 L990 1235 Z" /></g><g class="o"><path transform="translate(3,6)" class="S sfv" d="M1340 1571 L1847 2078 L1847 2086 L1340 1579 Z"/><path class="fv7" d="M1340 1571 L1847 2078 L1847 2086 L1340 1579 Z" /></g><g class="o"><path transform="translate(5,10)" class="S sfv" d="M1022 1415 L920 1517 L920 1553 L1022 1451 Z"/><path class="fv4" d="M1022 1415 L920 1517 L920 1553 L1022 1451 Z" /></g><g class="o"><path transform="translate(5,10)" class="S ssh" d="M1134 1115 L1288 1269 L1316 1269 L1162 1115 Z"/><path class="sh4" d="M1134 1115 L1288 1269 L1316 1269 L1162 1115 Z" /></g><g class="o"><path transform="translate(5,10)" class="S ssv" d="M1476 1916 L1284 1724 L1284 1734 L1476 1926 Z"/><path class="sv1" d="M1476 1916 L1284 1724 L1284 1734 L1476 1926 Z" /></g><g class="o"><path transform="translate(4,8)" class="S sfh" d="M1849 1167 L1797 1219 L1845 1219 L1897 1167 Z"/><path class="fh2" d="M1849 1167 L1797 1219 L1845 1219 L1897 1167 Z" /></g><g class="o"><path transform="translate(2,4)" class="S sfh" d="M1749 1733 L1532 1950 L1546 1950 L1763 1733 Z"/><path class="fh6" d="M1749 1733 L1532 1950 L1546 1950 L1763 1733 Z" /></g><g class="o"><path transform="translate(4,8)" class="S ssh" d="M1897 1113 L1333 1677 L1445 1677 L2009 1113 Z"/><path class="sh2" d="M1897 1113 L1333 1677 L1445 1677 L2009 1113 Z" /></g><g class="o"><path transform="translate(8,16)" class="S sfh" d="M983 1799 L787 1995 L875 1995 L1071 1799 Z"/><path class="fh1" d="M983 1799 L787 1995 L875 1995 L1071 1799 Z" /></g><g class="o"><path transform="translate(9,18)" class="S ssh" d="M1973 1273 L2420 826 L2438 826 L1991 1273 Z"/><path class="sh2" d="M1973 1273 L2420 826 L2438 826 L1991 1273 Z" /></g><g class="o"><path transform="translate(2,4)" class="S sfv" d="M1250 1312 L1096 1466 L1096 1488 L1250 1334 Z"/><path class="fv7" d="M1250 1312 L1096 1466 L1096 1488 L1250 1334 Z" /></g><g class="o"><path transform="translate(8,16)" class="S sfv" d="M1269 950 L1489 730 L1489 764 L1269 984 Z"/><path class="fv6" d="M1269 950 L1489 730 L1489 764 L1269 984 Z" /></g><g class="o"><path transform="translate(7,14)" class="S sfv" d="M1777 1617 L2521 873 L2521 881 L1777 1625 Z"/><path class="fv4" d="M1777 1617 L2521 873 L2521 881 L1777 1625 Z" /></g><g class="o"><path transform="translate(5,10)" class="S sfv" d="M998 1923 L1151 2076 L1151 2108 L998 1955 Z"/><path class="fv4" d="M998 1923 L1151 2076 L1151 2108 L998 1955 Z" /></g><g class="o"><path transform="translate(7,14)" class="S sf" d="M1929 1420 L1732 1617 L1884 1617 L2081 1420 Z"/><path class="f3" d="M1929 1420 L1732 1617 L1884 1617 L2081 1420 Z" /></g><g class="o"><path transform="translate(4,8)" class="S sfv" d="M952 1083 L767 1268 L767 1280 L952 1095 Z"/><path class="fv3" d="M952 1083 L767 1268 L767 1280 L952 1095 Z" /></g><g class="o"><path transform="translate(9,18)" class="S sfh" d="M1900 1691 L2145 1936 L2217 1936 L1972 1691 Z"/><path class="fh4" d="M1900 1691 L2145 1936 L2217 1936 L1972 1691 Z" /></g><g class="o"><path transform="translate(4,8)" class="S sfv" d="M1763 1429 L1964 1630 L1964 1664 L1763 1463 Z"/><path class="fv3" d="M1763 1429 L1964 1630 L1964 1664 L1763 1463 Z" /></g><g class="o"><path transform="translate(4,8)" class="S ssv" d="M1426 1940 L1249 2117 L1249 2137 L1426 1960 Z"/><path class="sv4" d="M1426 1940 L1249 2117 L1249 2137 L1426 1960 Z" /></g><g class="o"><path transform="translate(7,14)" class="S sf" d="M1313 1950 L1167 2096 L1191 2096 L1337 1950 Z"/><path class="f3" d="M1313 1950 L1167 2096 L1191 2096 L1337 1950 Z" /></g><g class="o"><path transform="translate(8,16)" class="S sfh" d="M1027 1703 L1705 1025 L1717 1025 L1039 1703 Z"/><path class="fh1" d="M1027 1703 L1705 1025 L1717 1025 L1039 1703 Z" /></g><g class="o"><path transform="translate(2,4)" class="S sfv" d="M1484 1132 L1427 1075 L1427 1113 L1484 1170 Z"/><path class="fv4" d="M1484 1132 L1427 1075 L1427 1113 L1484 1170 Z" /></g><g class="o"><path transform="translate(4,8)" class="S sf" d="M1040 1227 L1161 1106 L1183 1106 L1062 1227 Z"/><path class="f3" d="M1040 1227 L1161 1106 L1183 1106 L1062 1227 Z" /></g><g class="o"><path transform="translate(2,4)" class="S sfh" d="M1900 2014 L1750 2164 L1774 2164 L1924 2014 Z"/><path class="fh5" d="M1900 2014 L1750 2164 L1774 2164 L1924 2014 Z" /></g><g class="o"><path transform="translate(6,12)" class="S ssh" d="M1156 1956 L1084 2028 L1140 2028 L1212 1956 Z"/><path class="sh4" d="M1156 1956 L1084 2028 L1140 2028 L1212 1956 Z" /></g><g class="o"><path transform="translate(9,18)" class="S sfv" d="M1803 939 L1607 743 L1607 777 L1803 973 Z"/><path class="fv7" d="M1803 939 L1607 743 L1607 777 L1803 973 Z" /></g><g class="o"><path transform="translate(4,8)" class="S sfv" d="M1041 1851 L913 1979 L913 1989 L1041 1861 Z"/><path class="fv3" d="M1041 1851 L913 1979 L913 1989 L1041 1861 Z" /></g><g class="o"><path transform="translate(9,18)" class="S sfv" d="M1418 1783 L1541 1906 L1541 2026 L1418 1903 Z"/><path class="fv7" d="M1418 1783 L1541 1906 L1541 2026 L1418 1903 Z" /></g></g><use href="#slashes" transform-origin="1500 1500" transform="rotate(180) scale(2)"/></g><rect x="1080" y="1080" width="840" height="840" stroke-width="160" class="o s4" /><use href="#slashes" transform-origin="1500 1500" transform="scale(.3)"/><use href="#slashes" transform-origin="1500 1500" transform="rotate(180) scale(.7)"/></svg>