<svg xmlns="http://www.w3.org/2000/svg" viewBox="750 750 1500 1500"><style>/*<![CDATA[*/svg{background:rgb(115,115,115);max-width:100vw;max-height:100vh}path{stroke-width:4}.o{opacity:.75}.S{opacity:.4}.sf{stroke:none;fill:black}.sfh{stroke:none;fill:url(#hs)}.sfv{stroke:none;fill:url(#vs)}.ss{stroke:black;fill:none}.ssh{stroke:url(#hs);fill:none}.ssv{stroke:url(#vs);fill:none}.s1{fill:none;stroke:rgb(64,64,64)}.f1{stroke:none;fill:rgb(64,64,64)}.sh1{fill:none;stroke:url(#h1)}.fh1{stroke:none;fill:url(#h1)}.sv1{fill:none;stroke:url(#v1)}.fv1{stroke:none;fill:url(#v1)}.s2{fill:none;stroke:rgb(34,34,34)}.f2{stroke:none;fill:rgb(34,34,34)}.sh2{fill:none;stroke:url(#h2)}.fh2{stroke:none;fill:url(#h2)}.sv2{fill:none;stroke:url(#v2)}.fv2{stroke:none;fill:url(#v2)}.s3{fill:none;stroke:rgb(166,166,166)}.f3{stroke:none;fill:rgb(166,166,166)}.sh3{fill:none;stroke:url(#h3)}.fh3{stroke:none;fill:url(#h3)}.sv3{fill:none;stroke:url(#v3)}.fv3{stroke:none;fill:url(#v3)}.s4{fill:none;stroke:rgb(13,13,13)}.f4{stroke:none;fill:rgb(13,13,13)}.sh4{fill:none;stroke:url(#h4)}.fh4{stroke:none;fill:url(#h4)}.sv4{fill:none;stroke:url(#v4)}.fv4{stroke:none;fill:url(#v4)}.s5{fill:none;stroke:rgb(38,38,38)}.f5{stroke:none;fill:rgb(38,38,38)}.sh5{fill:none;stroke:url(#h5)}.fh5{stroke:none;fill:url(#h5)}.sv5{fill:none;stroke:url(#v5)}.fv5{stroke:none;fill:url(#v5)}.s6{fill:none;stroke:rgb(255,255,255)}.f6{stroke:none;fill:rgb(255,255,255)}.sh6{fill:none;stroke:url(#h6)}.fh6{stroke:none;fill:url(#h6)}.sv6{fill:none;stroke:url(#v6)}.fv6{stroke:none;fill:url(#v6)}.s7{fill:none;stroke:rgb(255,0,0)}.f7{stroke:none;fill:rgb(255,0,0)}.sh7{fill:none;stroke:url(#h7)}.fh7{stroke:none;fill:url(#h7)}.sv7{fill:none;stroke:url(#v7)}.fv7{stroke:none;fill:url(#v7)}/*]]>*/</style><defs><linearGradient gradientTransform="rotate(90)" id="hs"><stop offset="20%" stop-color="#000" /><stop offset="95%" stop-color="rgba(0, 0, 0, 0)" /></linearGradient><linearGradient id="vs"><stop offset="20%" stop-color="#000" /><stop offset="95%" stop-color="rgba(0, 0, 0, 0)" /></linearGradient><linearGradient gradientTransform="rotate(90)" id="h1"><stop offset="20%" stop-color="rgba(64,64,64,1)" /><stop offset="95%" stop-color="rgba(64,64,64,0)" /></linearGradient><linearGradient id="v1"><stop offset="20%" stop-color="rgba(64,64,64,1)" /><stop offset="95%" stop-color="rgba(64,64,64,0)" /></linearGradient><linearGradient gradientTransform="rotate(90)" id="h2"><stop offset="20%" stop-color="rgba(34,34,34,1)" /><stop offset="95%" stop-color="rgba(34,34,34,0)" /></linearGradient><linearGradient id="v2"><stop offset="20%" stop-color="rgba(34,34,34,1)" /><stop offset="95%" stop-color="rgba(34,34,34,0)" /></linearGradient><linearGradient gradientTransform="rotate(90)" id="h3"><stop offset="20%" stop-color="rgba(166,166,166,1)" /><stop offset="95%" stop-color="rgba(166,166,166,0)" /></linearGradient><linearGradient id="v3"><stop offset="20%" stop-color="rgba(166,166,166,1)" /><stop offset="95%" stop-color="rgba(166,166,166,0)" /></linearGradient><linearGradient gradientTransform="rotate(90)" id="h4"><stop offset="20%" stop-color="rgba(13,13,13,1)" /><stop offset="95%" stop-color="rgba(13,13,13,0)" /></linearGradient><linearGradient id="v4"><stop offset="20%" stop-color="rgba(13,13,13,1)" /><stop offset="95%" stop-color="rgba(13,13,13,0)" /></linearGradient><linearGradient gradientTransform="rotate(90)" id="h5"><stop offset="20%" stop-color="rgba(38,38,38,1)" /><stop offset="95%" stop-color="rgba(38,38,38,0)" /></linearGradient><linearGradient id="v5"><stop offset="20%" stop-color="rgba(38,38,38,1)" /><stop offset="95%" stop-color="rgba(38,38,38,0)" /></linearGradient><linearGradient gradientTransform="rotate(90)" id="h6"><stop offset="20%" stop-color="rgba(255,255,255,1)" /><stop offset="95%" stop-color="rgba(255,255,255,0)" /></linearGradient><linearGradient id="v6"><stop offset="20%" stop-color="rgba(255,255,255,1)" /><stop offset="95%" stop-color="rgba(255,255,255,0)" /></linearGradient><linearGradient gradientTransform="rotate(90)" id="h7"><stop offset="20%" stop-color="rgba(255,0,0,1)" /><stop offset="95%" stop-color="rgba(255,0,0,0)" /></linearGradient><linearGradient id="v7"><stop offset="20%" stop-color="rgba(255,0,0,1)" /><stop offset="95%" stop-color="rgba(255,0,0,0)" /></linearGradient></defs><g transform-origin="1500 1500" transform="scale(2)" opacity=".2"><g id="slashes"><g class="o"><path transform="translate(8,16)" class="S sfv" d="M1451 1875 L1373 1953 L1373 1989 L1451 1911 Z"/><path class="fv2" d="M1451 1875 L1373 1953 L1373 1989 L1451 1911 Z" /></g><g class="o"><path transform="translate(4,8)" class="S ssh" d="M1448 1503 L773 2178 L795 2178 L1470 1503 Z"/><path class="sh4" d="M1448 1503 L773 2178 L795 2178 L1470 1503 Z" /></g><g class="o"><path transform="translate(9,18)" class="S sfh" d="M1910 2002 L1783 2129 L1879 2129 L2006 2002 Z"/><path class="fh5" d="M1910 2002 L1783 2129 L1879 2129 L2006 2002 Z" /></g><g class="o"><path transform="translate(4,8)" class="S sfh" d="M938 1099 L762 1275 L874 1275 L1050 1099 Z"/><path class="fh1" d="M938 1099 L762 1275 L874 1275 L1050 1099 Z" /></g><g class="o"><path transform="translate(5,10)" class="S sf" d="M1140 1768 L1061 1847 L1073 1847 L1152 1768 Z"/><path class="f1" d="M1140 1768 L1061 1847 L1073 1847 L1152 1768 Z" /></g><g class="o"><path transform="translate(6,12)" class="S sf" d="M1471 1590 L853 2208 L861 2208 L1479 1590 Z"/><path class="f3" d="M1471 1590 L853 2208 L861 2208 L1479 1590 Z" /></g><g class="o"><path transform="translate(9,18)" class="S sfh" d="M1380 977 L1486 1083 L1526 1083 L1420 977 Z"/><path class="fh7" d="M1380 977 L1486 1083 L1526 1083 L1420 977 Z" /></g><g class="o"><path transform="translate(7,14)" class="S sfv" d="M1850 1811 L2222 2183 L2222 2195 L1850 1823 Z"/><path class="fv7" d="M1850 1811 L2222 2183 L2222 2195 L1850 1823 Z" /></g><g class="o"><path transform="translate(9,18)" class="S sfv" d="M1639 1705 L1752 1818 L1752 1842 L1639 1729 Z"/><path class="fv3" d="M1639 1705 L1752 1818 L1752 1842 L1639 1729 Z" /></g><g class="o"><path transform="translate(4,8)" class="S sfv" d="M2016 1506 L2174 1664 L2174 1682 L2016 1524 Z"/><path class="fv6" d="M2016 1506 L2174 1664 L2174 1682 L2016 1524 Z" /></g><g class="o"><path transform="translate(4,8)" class="S sf" d="M1715 1600 L1830 1715 L1850 1715 L1735 1600 Z"/><path class="f7" d="M1715 1600 L1830 1715 L1850 1715 L1735 1600 Z" /></g><g class="o"><path transform="translate(4,8)" class="S sfh" d="M1514 1402 L1343 1573 L1391 1573 L1562 1402 Z"/><path class="fh3" d="M1514 1402 L1343 1573 L1391 1573 L1562 1402 Z" /></g><g class="o"><path transform="translate(9,18)" class="S sfh" d="M1296 957 L1089 1164 L1129 1164 L1336 957 Z"/><path class="fh2" d="M1296 957 L1089 1164 L1129 1164 L1336 957 Z" /></g><g class="o"><path transform="translate(5,10)" class="S sf" d="M1388 1420 L1616 1648 L1760 1648 L1532 1420 Z"/><path class="f4" d="M1388 1420 L1616 1648 L1760 1648 L1532 1420 Z" /></g><g class="o"><path transform="translate(7,14)" class="S sfh" d="M982 1965 L803 2144 L835 2144 L1014 1965 Z"/><path class="fh6" d="M982 1965 L803 2144 L835 2144 L1014 1965 Z" /></g><g class="o"><path transform="translate(7,14)" class="S sfh" d="M1897 1457 L1681 1673 L1719 1673 L1935 1457 Z"/><path class="fh4" d="M1897 1457 L1681 1673 L1719 1673 L1935 1457 Z" /></g><g class="o"><path transform="translate(5,10)" class="S sfv" d="M1723 1799 L1870 1946 L1870 2010 L1723 1863 Z"/><path class="fv2" d="M1723 1799 L1870 1946 L1870 2010 L1723 1863 Z" /></g><g class="o"><path transform="translate(8,16)" class="S sfh" d="M1413 1028 L1230 1211 L1256 1211 L1439 1028 Z"/><path class="fh1" d="M1413 1028 L1230 1211 L1256 1211 L1439 1028 Z" /></g><g class="o"><path transform="translate(8,16)" class="S sfh" d="M1300 1351 L1579 1630 L1603 1630 L1324 1351 Z"/><path class="fh3" d="M1300 1351 L1579 1630 L1603 1630 L1324 1351 Z" /></g><g class="o"><path transform="translate(7,14)" class="S sfv" d="M1387 1536 L1225 1698 L1225 1718 L1387 1556 Z"/><path class="fv4" d="M1387 1536 L1225 1698 L1225 1718 L1387 1556 Z" /></g><g class="o"><path transform="translate(5,10)" class="S ssh" d="M1716 1582 L1920 1786 L2000 1786 L1796 1582 Z"/><path class="sh4" d="M1716 1582 L1920 1786 L2000 1786 L1796 1582 Z" /></g><g class="o"><path transform="translate(7,14)" class="S sfh" d="M923 1983 L1172 2232 L1316 2232 L1067 1983 Z"/><path class="fh6" d="M923 1983 L1172 2232 L1316 2232 L1067 1983 Z" /></g><g class="o"><path transform="translate(2,4)" class="S sfv" d="M1746 1073 L1574 1245 L1574 1277 L1746 1105 Z"/><path class="fv7" d="M1746 1073 L1574 1245 L1574 1277 L1746 1105 Z" /></g><g class="o"><path transform="translate(3,6)" class="S sfh" d="M1317 1191 L1516 1390 L1556 1390 L1357 1191 Z"/><path class="fh7" d="M1317 1191 L1516 1390 L1556 1390 L1357 1191 Z" /></g><g class="o"><path transform="translate(3,6)" class="S ssh" d="M1461 1390 L1325 1526 L1345 1526 L1481 1390 Z"/><path class="sh1" d="M1461 1390 L1325 1526 L1345 1526 L1481 1390 Z" /></g><g class="o"><path transform="translate(5,10)" class="S sfv" d="M1844 1490 L1617 1717 L1617 1861 L1844 1634 Z"/><path class="fv7" d="M1844 1490 L1617 1717 L1617 1861 L1844 1634 Z" /></g><g class="o"><path transform="translate(5,10)" class="S sf" d="M944 1823 L1009 1888 L1097 1888 L1032 1823 Z"/><path class="f7" d="M944 1823 L1009 1888 L1097 1888 L1032 1823 Z" /></g><g class="o"><path transform="translate(2,4)" class="S ss" d="M1131 1309 L1226 1404 L1226 1468 L1131 1373 Z"/><path class="s5" d="M1131 1309 L1226 1404 L1226 1468 L1131 1373 Z" /></g><g class="o"><path transform="translate(5,10)" class="S sf" d="M1872 930 L1677 1125 L1677 1221 L1872 1026 Z"/><path class="f1" d="M1872 930 L1677 1125 L1677 1221 L1872 1026 Z" /></g><g class="o"><path transform="translate(4,8)" class="S sfv" d="M1396 1104 L1448 1156 L1448 1292 L1396 1240 Z"/><path class="fv7" d="M1396 1104 L1448 1156 L1448 1292 L1396 1240 Z" /></g><g class="o"><path transform="translate(9,18)" class="S sfh" d="M1119 1864 L1236 1981 L1248 1981 L1131 1864 Z"/><path class="fh6" d="M1119 1864 L1236 1981 L1248 1981 L1131 1864 Z" /></g><g class="o"><path transform="translate(3,6)" class="S ss" d="M1300 1169 L1179 1290 L1179 1298 L1300 1177 Z"/><path class="s2" d="M1300 1169 L1179 1290 L1179 1298 L1300 1177 Z" /></g><g class="o"><path transform="translate(7,14)" class="S sfh" d="M1983 1384 L1756 1611 L1796 1611 L2023 1384 Z"/><path class="fh3" d="M1983 1384 L1756 1611 L1796 1611 L2023 1384 Z" /></g><g class="o"><path transform="translate(7,14)" class="S sf" d="M1085 1439 L1175 1529 L1175 1549 L1085 1459 Z"/><path class="f6" d="M1085 1439 L1175 1529 L1175 1549 L1085 1459 Z" /></g><g class="o"><path transform="translate(9,18)" class="S sfv" d="M1406 935 L1582 1111 L1582 1167 L1406 991 Z"/><path class="fv7" d="M1406 935 L1582 1111 L1582 1167 L1406 991 Z" /></g><g class="o"><path transform="translate(2,4)" class="S ssh" d="M1945 987 L2027 1069 L2041 1069 L1959 987 Z"/><path class="sh6" d="M1945 987 L2027 1069 L2041 1069 L1959 987 Z" /></g><g class="o"><path transform="translate(4,8)" class="S sf" d="M1625 1187 L1404 1408 L1440 1408 L1661 1187 Z"/><path class="f3" d="M1625 1187 L1404 1408 L1440 1408 L1661 1187 Z" /></g><g class="o"><path transform="translate(8,16)" class="S sfv" d="M1386 1213 L1289 1310 L1289 1462 L1386 1365 Z"/><path class="fv3" d="M1386 1213 L1289 1310 L1289 1462 L1386 1365 Z" /></g><g class="o"><path transform="translate(6,12)" class="S ssv" d="M1097 1018 L557 1558 L557 1588 L1097 1048 Z"/><path class="sv2" d="M1097 1018 L557 1558 L557 1588 L1097 1048 Z" /></g><g class="o"><path transform="translate(6,12)" class="S sfh" d="M998 1808 L1454 2264 L1476 2264 L1020 1808 Z"/><path class="fh7" d="M998 1808 L1454 2264 L1476 2264 L1020 1808 Z" /></g><g class="o"><path transform="translate(9,18)" class="S sfv" d="M1253 905 L1141 1017 L1141 1145 L1253 1033 Z"/><path class="fv1" d="M1253 905 L1141 1017 L1141 1145 L1253 1033 Z" /></g><g class="o"><path transform="translate(3,6)" class="S sfh" d="M1086 1001 L1166 1081 L1294 1081 L1214 1001 Z"/><path class="fh2" d="M1086 1001 L1166 1081 L1294 1081 L1214 1001 Z" /></g><g class="o"><path transform="translate(5,10)" class="S sf" d="M1778 1060 L1654 1184 L1654 1216 L1778 1092 Z"/><path class="f3" d="M1778 1060 L1654 1184 L1654 1216 L1778 1092 Z" /></g><g class="o"><path transform="translate(9,18)" class="S sfv" d="M1645 1305 L1432 1518 L1432 1556 L1645 1343 Z"/><path class="fv5" d="M1645 1305 L1432 1518 L1432 1556 L1645 1343 Z" /></g><g class="o"><path transform="translate(7,14)" class="S sfh" d="M1676 1760 L1888 1972 L1920 1972 L1708 1760 Z"/><path class="fh1" d="M1676 1760 L1888 1972 L1920 1972 L1708 1760 Z" /></g><g class="o"><path transform="translate(8,16)" class="S sfv" d="M1024 1875 L816 2083 L816 2195 L1024 1987 Z"/><path class="fv3" d="M1024 1875 L816 2083 L816 2195 L1024 1987 Z" /></g><g class="o"><path transform="translate(2,4)" class="S sfh" d="M1201 1560 L1115 1646 L1141 1646 L1227 1560 Z"/><path class="fh1" d="M1201 1560 L1115 1646 L1141 1646 L1227 1560 Z" /></g><g class="o"><path transform="translate(9,18)" class="S sfh" d="M1355 1303 L1535 1483 L1545 1483 L1365 1303 Z"/><path class="fh7" d="M1355 1303 L1535 1483 L1545 1483 L1365 1303 Z" /></g><g class="o"><path transform="translate(2,4)" class="S ssh" d="M1336 1623 L1279 1680 L1301 1680 L1358 1623 Z"/><path class="sh3" d="M1336 1623 L1279 1680 L1301 1680 L1358 1623 Z" /></g><g class="o"><path transform="translate(9,18)" class="S sf" d="M1576 1072 L1696 1192 L1724 1192 L1604 1072 Z"/><path class="f4" d="M1576 1072 L1696 1192 L1724 1192 L1604 1072 Z" /></g><g class="o"><path transform="translate(5,10)" class="S sf" d="M1380 1680 L1506 1806 L1538 1806 L1412 1680 Z"/><path class="f3" d="M1380 1680 L1506 1806 L1538 1806 L1412 1680 Z" /></g><g class="o"><path transform="translate(5,10)" class="S sfh" d="M1755 1668 L1903 1816 L1939 1816 L1791 1668 Z"/><path class="fh2" d="M1755 1668 L1903 1816 L1939 1816 L1791 1668 Z" /></g><g class="o"><path transform="translate(9,18)" class="S sf" d="M1009 1107 L851 1265 L931 1265 L1089 1107 Z"/><path class="f5" d="M1009 1107 L851 1265 L931 1265 L1089 1107 Z" /></g><g class="o"><path transform="translate(3,6)" class="S sfv" d="M1407 1257 L1608 1458 L1608 1570 L1407 1369 Z"/><path class="fv3" d="M1407 1257 L1608 1458 L1608 1570 L1407 1369 Z" /></g><g class="o"><path transform="translate(4,8)" class="S sf" d="M1174 1469 L1028 1615 L1028 1639 L1174 1493 Z"/><path class="f6" d="M1174 1469 L1028 1615 L1028 1639 L1174 1493 Z" /></g><g class="o"><path transform="translate(3,6)" class="S sfv" d="M1462 1463 L2020 2021 L2020 2057 L1462 1499 Z"/><path class="fv3" d="M1462 1463 L2020 2021 L2020 2057 L1462 1499 Z" /></g><g class="o"><path transform="translate(2,4)" class="S sfh" d="M1135 1996 L1219 2080 L1355 2080 L1271 1996 Z"/><path class="fh6" d="M1135 1996 L1219 2080 L1355 2080 L1271 1996 Z" /></g><g class="o"><path transform="translate(7,14)" class="S sfh" d="M1692 1837 L1539 1990 L1675 1990 L1828 1837 Z"/><path class="fh1" d="M1692 1837 L1539 1990 L1675 1990 L1828 1837 Z" /></g><g class="o"><path transform="translate(6,12)" class="S sf" d="M1798 1860 L1592 2066 L1592 2210 L1798 2004 Z"/><path class="f6" d="M1798 1860 L1592 2066 L1592 2210 L1798 2004 Z" /></g><g class="o"><path transform="translate(4,8)" class="S ssh" d="M997 1934 L1103 2040 L1215 2040 L1109 1934 Z"/><path class="sh4" d="M997 1934 L1103 2040 L1215 2040 L1109 1934 Z" /></g><g class="o"><path transform="translate(2,4)" class="S sfv" d="M1617 1933 L1426 2124 L1426 2158 L1617 1967 Z"/><path class="fv3" d="M1617 1933 L1426 2124 L1426 2158 L1617 1967 Z" /></g><g class="o"><path transform="translate(9,18)" class="S sfv" d="M1292 1073 L1183 1182 L1183 1206 L1292 1097 Z"/><path class="fv4" d="M1292 1073 L1183 1182 L1183 1206 L1292 1097 Z" /></g><g class="o"><path transform="translate(7,14)" class="S sfh" d="M1552 1722 L1443 1831 L1579 1831 L1688 1722 Z"/><path class="fh4" d="M1552 1722 L1443 1831 L1579 1831 L1688 1722 Z" /></g><g class="o"><path transform="translate(6,12)" class="S sfh" d="M1658 1263 L2387 1992 L2405 1992 L1676 1263 Z"/><path class="fh1" d="M1658 1263 L2387 1992 L2405 1992 L1676 1263 Z" /></g><g class="o"><path transform="translate(7,14)" class="S sfh" d="M1732 2014 L1615 2131 L1627 2131 L1744 2014 Z"/><path class="fh7" d="M1732 2014 L1615 2131 L1627 2131 L1744 2014 Z" /></g><g class="o"><path transform="translate(7,14)" class="S sfh" d="M1223 2023 L1348 2148 L1428 2148 L1303 2023 Z"/><path class="fh2" d="M1223 2023 L1348 2148 L1428 2148 L1303 2023 Z" /></g><g class="o"><path transform="translate(6,12)" class="S sfh" d="M986 1459 L790 1655 L820 1655 L1016 1459 Z"/><path class="fh6" d="M986 1459 L790 1655 L820 1655 L1016 1459 Z" /></g><g class="o"><path transform="translate(3,6)" class="S sfh" d="M1798 1101 L1991 1294 L2111 1294 L1918 1101 Z"/><path class="fh5" d="M1798 1101 L1991 1294 L2111 1294 L1918 1101 Z" /></g><g class="o"><path transform="translate(8,16)" class="S sfv" d="M1483 961 L1604 1082 L1604 1210 L1483 1089 Z"/><path class="fv1" d="M1483 961 L1604 1082 L1604 1210 L1483 1089 Z" /></g><g class="o"><path transform="translate(4,8)" class="S sfv" d="M1204 1811 L1324 1931 L1324 2083 L1204 1963 Z"/><path class="fv3" d="M1204 1811 L1324 1931 L1324 2083 L1204 1963 Z" /></g><g class="o"><path transform="translate(4,8)" class="S sf" d="M1998 1830 L1725 2103 L1743 2103 L2016 1830 Z"/><path class="f1" d="M1998 1830 L1725 2103 L1743 2103 L2016 1830 Z" /></g><g class="o"><path transform="translate(2,4)" class="S sfv" d="M2023 1377 L1803 1597 L1803 1619 L2023 1399 Z"/><path class="fv5" d="M2023 1377 L1803 1597 L1803 1619 L2023 1399 Z" /></g><g class="o"><path transform="translate(7,14)" class="S sfv" d="M1799 1299 L1906 1406 L1906 1440 L1799 1333 Z"/><path class="fv4" d="M1799 1299 L1906 1406 L1906 1440 L1799 1333 Z" /></g><g class="o"><path transform="translate(5,10)" class="S sfh" d="M1302 1429 L1434 1561 L1474 1561 L1342 1429 Z"/><path class="fh6" d="M1302 1429 L1434 1561 L1474 1561 L1342 1429 Z" /></g><g class="o"><path transform="translate(3,6)" class="S sf" d="M977 1283 L1223 1529 L1257 1529 L1011 1283 Z"/><path class="f3" d="M977 1283 L1223 1529 L1257 1529 L1011 1283 Z" /></g><g class="o"><path transform="translate(4,8)" class="S sf" d="M1559 2002 L1672 2115 L1672 2187 L1559 2074 Z"/><path class="f7" d="M1559 2002 L1672 2115 L1672 2187 L1559 2074 Z" /></g><g class="o"><path transform="translate(4,8)" class="S sfv" d="M1046 1076 L1289 1319 L1289 1357 L1046 1114 Z"/><path class="fv1" d="M1046 1076 L1289 1319 L1289 1357 L1046 1114 Z" /></g><g class="o"><path transform="translate(3,6)" class="S sfh" d="M1300 1383 L1384 1467 L1408 1467 L1324 1383 Z"/><path class="fh3" d="M1300 1383 L1384 1467 L1408 1467 L1324 1383 Z" /></g><g class="o"><path transform="translate(8,16)" class="S sfh" d="M1579 1329 L1642 1392 L1658 1392 L1595 1329 Z"/><path class="fh4" d="M1579 1329 L1642 1392 L1658 1392 L1595 1329 Z" /></g><g class="o"><path transform="translate(7,14)" class="S sfv" d="M1275 1666 L1142 1799 L1142 1813 L1275 1680 Z"/><path class="fv6" d="M1275 1666 L1142 1799 L1142 1813 L1275 1680 Z" /></g><g class="o"><path transform="translate(6,12)" class="S sfh" d="M1994 1986 L1766 2214 L1786 2214 L2014 1986 Z"/><path class="fh7" d="M1994 1986 L1766 2214 L1786 2214 L2014 1986 Z" /></g><g class="o"><path transform="translate(7,14)" class="S ssv" d="M1417 962 L1246 1133 L1246 1189 L1417 1018 Z"/><path class="sv2" d="M1417 962 L1246 1133 L1246 1189 L1417 1018 Z" /></g><g class="o"><path transform="translate(3,6)" class="S ssv" d="M1376 1997 L1599 2220 L1599 2258 L1376 2035 Z"/><path class="sv1" d="M1376 1997 L1599 2220 L1599 2258 L1376 2035 Z" /></g><g class="o"><path transform="translate(9,18)" class="S sfv" d="M1602 1192 L1415 1379 L1415 1523 L1602 1336 Z"/><path class="fv3" d="M1602 1192 L1415 1379 L1415 1523 L1602 1336 Z" /></g><g class="o"><path transform="translate(9,18)" class="S sfv" d="M1907 1144 L1732 1319 L1732 1343 L1907 1168 Z"/><path class="fv3" d="M1907 1144 L1732 1319 L1732 1343 L1907 1168 Z" /></g><g class="o"><path transform="translate(6,12)" class="S sfv" d="M1926 1559 L2150 1783 L2150 1801 L1926 1577 Z"/><path class="fv7" d="M1926 1559 L2150 1783 L2150 1801 L1926 1577 Z" /></g><g class="o"><path transform="translate(5,10)" class="S sfh" d="M987 1087 L885 1189 L981 1189 L1083 1087 Z"/><path class="fh2" d="M987 1087 L885 1189 L981 1189 L1083 1087 Z" /></g><g class="o"><path transform="translate(2,4)" class="S sfv" d="M1116 1611 L1042 1685 L1042 1717 L1116 1643 Z"/><path class="fv6" d="M1116 1611 L1042 1685 L1042 1717 L1116 1643 Z" /></g><g class="o"><path transform="translate(3,6)" class="S sfv" d="M1620 1748 L1723 1851 L1723 1873 L1620 1770 Z"/><path class="fv4" d="M1620 1748 L1723 1851 L1723 1873 L1620 1770 Z" /></g><g class="o"><path transform="translate(7,14)" class="S sfv" d="M1232 1113 L1434 1315 L1434 1347 L1232 1145 Z"/><path class="fv2" d="M1232 1113 L1434 1315 L1434 1347 L1232 1145 Z" /></g><g class="o"><path transform="translate(5,10)" class="S sfv" d="M1814 932 L1603 1143 L1603 1287 L1814 1076 Z"/><path class="fv4" d="M1814 932 L1603 1143 L1603 1287 L1814 1076 Z" /></g><g class="o"><path transform="translate(5,10)" class="S sfh" d="M1502 1434 L1298 1638 L1324 1638 L1528 1434 Z"/><path class="fh3" d="M1502 1434 L1298 1638 L1324 1638 L1528 1434 Z" /></g><g class="o"><path transform="translate(2,4)" class="S sfh" d="M1665 1682 L1471 1876 L1575 1876 L1769 1682 Z"/><path class="fh6" d="M1665 1682 L1471 1876 L1575 1876 L1769 1682 Z" /></g><g class="o"><path transform="translate(5,10)" class="S sfh" d="M1998 1476 L2050 1528 L2084 1528 L2032 1476 Z"/><path class="fh6" d="M1998 1476 L2050 1528 L2084 1528 L2032 1476 Z" /></g><g class="o"><path transform="translate(4,8)" class="S sf" d="M1160 1402 L734 1828 L772 1828 L1198 1402 Z"/><path class="f1" d="M1160 1402 L734 1828 L772 1828 L1198 1402 Z" /></g><g class="o"><path transform="translate(9,18)" class="S sfh" d="M1069 1529 L1201 1661 L1227 1661 L1095 1529 Z"/><path class="fh5" d="M1069 1529 L1201 1661 L1227 1661 L1095 1529 Z" /></g><g class="o"><path transform="translate(6,12)" class="S sfv" d="M1063 1361 L844 1580 L844 1708 L1063 1489 Z"/><path class="fv4" d="M1063 1361 L844 1580 L844 1708 L1063 1489 Z" /></g><g class="o"><path transform="translate(3,6)" class="S sf" d="M1759 1500 L1975 1716 L1975 1726 L1759 1510 Z"/><path class="f1" d="M1759 1500 L1975 1716 L1975 1726 L1759 1510 Z" /></g><g class="o"><path transform="translate(7,14)" class="S sfv" d="M1003 1326 L1145 1468 L1145 1612 L1003 1470 Z"/><path class="fv5" d="M1003 1326 L1145 1468 L1145 1612 L1003 1470 Z" /></g><g class="o"><path transform="translate(7,14)" class="S sfv" d="M1164 1031 L1004 1191 L1004 1263 L1164 1103 Z"/><path class="fv1" d="M1164 1031 L1004 1191 L1004 1263 L1164 1103 Z" /></g><g class="o"><path transform="translate(2,4)" class="S ssv" d="M1140 1043 L941 1242 L941 1258 L1140 1059 Z"/><path class="sv6" d="M1140 1043 L941 1242 L941 1258 L1140 1059 Z" /></g><g class="o"><path transform="translate(4,8)" class="S ss" d="M1609 1356 L1702 1449 L1712 1449 L1619 1356 Z"/><path class="s7" d="M1609 1356 L1702 1449 L1712 1449 L1619 1356 Z" /></g><g class="o"><path transform="translate(3,6)" class="S sfv" d="M1291 1999 L1518 2226 L1518 2262 L1291 2035 Z"/><path class="fv7" d="M1291 1999 L1518 2226 L1518 2262 L1291 2035 Z" /></g><g class="o"><path transform="translate(4,8)" class="S ss" d="M1536 1529 L1050 2015 L1194 2015 L1680 1529 Z"/><path class="s6" d="M1536 1529 L1050 2015 L1194 2015 L1680 1529 Z" /></g><g class="o"><path transform="translate(4,8)" class="S sfh" d="M1109 1043 L964 1188 L1076 1188 L1221 1043 Z"/><path class="fh7" d="M1109 1043 L964 1188 L1076 1188 L1221 1043 Z" /></g><g class="o"><path transform="translate(8,16)" class="S sfv" d="M2009 1416 L1782 1643 L1782 1691 L2009 1464 Z"/><path class="fv7" d="M2009 1416 L1782 1643 L1782 1691 L2009 1464 Z" /></g><g class="o"><path transform="translate(4,8)" class="S sfh" d="M1273 1085 L1476 1288 L1484 1288 L1281 1085 Z"/><path class="fh2" d="M1273 1085 L1476 1288 L1484 1288 L1281 1085 Z" /></g><g class="o"><path transform="translate(6,12)" class="S sf" d="M1181 1822 L1370 2011 L1406 2011 L1217 1822 Z"/><path class="f5" d="M1181 1822 L1370 2011 L1406 2011 L1217 1822 Z" /></g><g class="o"><path transform="translate(3,6)" class="S sfh" d="M1037 1680 L841 1876 L873 1876 L1069 1680 Z"/><path class="fh5" d="M1037 1680 L841 1876 L873 1876 L1069 1680 Z" /></g><g class="o"><path transform="translate(6,12)" class="S ss" d="M1487 1087 L1372 1202 L1402 1202 L1517 1087 Z"/><path class="s3" d="M1487 1087 L1372 1202 L1402 1202 L1517 1087 Z" /></g><g class="o"><path transform="translate(5,10)" class="S sfh" d="M1785 1164 L2002 1381 L2026 1381 L1809 1164 Z"/><path class="fh2" d="M1785 1164 L2002 1381 L2026 1381 L1809 1164 Z" /></g><g class="o"><path transform="translate(4,8)" class="S sfh" d="M1321 1661 L1140 1842 L1172 1842 L1353 1661 Z"/><path class="fh2" d="M1321 1661 L1140 1842 L1172 1842 L1353 1661 Z" /></g><g class="o"><path transform="translate(5,10)" class="S sf" d="M1773 1232 L1964 1423 L2004 1423 L1813 1232 Z"/><path class="f3" d="M1773 1232 L1964 1423 L2004 1423 L1813 1232 Z" /></g><g class="o"><path transform="translate(3,6)" class="S sfv" d="M1968 1559 L2102 1693 L2102 1719 L1968 1585 Z"/><path class="fv1" d="M1968 1559 L2102 1693 L2102 1719 L1968 1585 Z" /></g><g class="o"><path transform="translate(8,16)" class="S ssv" d="M1816 1008 L2023 1215 L2023 1227 L1816 1020 Z"/><path class="sv4" d="M1816 1008 L2023 1215 L2023 1227 L1816 1020 Z" /></g><g class="o"><path transform="translate(5,10)" class="S sfv" d="M1034 1779 L1240 1985 L1240 2015 L1034 1809 Z"/><path class="fv6" d="M1034 1779 L1240 1985 L1240 2015 L1034 1809 Z" /></g><g class="o"><path transform="translate(5,10)" class="S sfv" d="M1216 1681 L751 2146 L751 2160 L1216 1695 Z"/><path class="fv6" d="M1216 1681 L751 2146 L751 2160 L1216 1695 Z" /></g><g class="o"><path transform="translate(9,18)" class="S sfh" d="M1380 1971 L1246 2105 L1326 2105 L1460 1971 Z"/><path class="fh1" d="M1380 1971 L1246 2105 L1326 2105 L1460 1971 Z" /></g><g class="o"><path transform="translate(6,12)" class="S ss" d="M975 1132 L1119 1276 L1159 1276 L1015 1132 Z"/><path class="s7" d="M975 1132 L1119 1276 L1159 1276 L1015 1132 Z" /></g><g class="o"><path transform="translate(3,6)" class="S sfv" d="M951 1496 L719 1728 L719 1848 L951 1616 Z"/><path class="fv1" d="M951 1496 L719 1728 L719 1848 L951 1616 Z" /></g><g class="o"><path transform="translate(9,18)" class="S sfv" d="M1720 1992 L1647 2065 L1647 2075 L1720 2002 Z"/><path class="fv1" d="M1720 1992 L1647 2065 L1647 2075 L1720 2002 Z" /></g><g class="o"><path transform="translate(9,18)" class="S ssh" d="M1188 2040 L1012 2216 L1028 2216 L1204 2040 Z"/><path class="sh3" d="M1188 2040 L1012 2216 L1028 2216 L1204 2040 Z" /></g><g class="o"><path transform="translate(7,14)" class="S sfh" d="M1043 1979 L1217 2153 L1251 2153 L1077 1979 Z"/><path class="fh4" d="M1043 1979 L1217 2153 L1251 2153 L1077 1979 Z" /></g><g class="o"><path transform="translate(2,4)" class="S sfv" d="M1505 1647 L1408 1744 L1408 1840 L1505 1743 Z"/><path class="fv5" d="M1505 1647 L1408 1744 L1408 1840 L1505 1743 Z" /></g><g class="o"><path transform="translate(7,14)" class="S sfv" d="M1750 1451 L1923 1624 L1923 1672 L1750 1499 Z"/><path class="fv2" d="M1750 1451 L1923 1624 L1923 1672 L1750 1499 Z" /></g><g class="o"><path transform="translate(2,4)" class="S sfv" d="M1681 1235 L2167 1721 L2167 1865 L1681 1379 Z"/><path class="fv2" d="M1681 1235 L2167 1721 L2167 1865 L1681 1379 Z" /></g><g class="o"><path transform="translate(7,14)" class="S sfh" d="M961 1316 L713 1564 L743 1564 L991 1316 Z"/><path class="fh3" d="M961 1316 L713 1564 L743 1564 L991 1316 Z" /></g><g class="o"><path transform="translate(6,12)" class="S sf" d="M1034 1888 L1205 2059 L1205 2077 L1034 1906 Z"/><path class="f5" d="M1034 1888 L1205 2059 L1205 2077 L1034 1906 Z" /></g><g class="o"><path transform="translate(4,8)" class="S sfh" d="M1967 1019 L2060 1112 L2116 1112 L2023 1019 Z"/><path class="fh1" d="M1967 1019 L2060 1112 L2116 1112 L2023 1019 Z" /></g><g class="o"><path transform="translate(5,10)" class="S sfh" d="M1987 1720 L1891 1816 L2011 1816 L2107 1720 Z"/><path class="fh5" d="M1987 1720 L1891 1816 L2011 1816 L2107 1720 Z" /></g></g><use href="#slashes" transform-origin="1500 1500" transform="rotate(180) scale(2)"/></g><rect x="1080" y="1080" width="840" height="840" stroke-width="20" class="o s1" /><use href="#slashes" transform-origin="1500 1500" transform="scale(.9)"/><use href="#slashes" transform-origin="1500 1500" transform="rotate(180) scale(.9)"/></svg>