<svg xmlns="http://www.w3.org/2000/svg" viewBox="750 750 1500 1500"><style>/*<![CDATA[*/svg{background:rgb(4,178,217);max-width:100vw;max-height:100vh}path{stroke-width:4}.o{opacity:.75}.S{opacity:.4}.sf{stroke:none;fill:black}.sfh{stroke:none;fill:url(#hs)}.sfv{stroke:none;fill:url(#vs)}.ss{stroke:black;fill:none}.ssh{stroke:url(#hs);fill:none}.ssv{stroke:url(#vs);fill:none}.s1{fill:none;stroke:rgb(166,3,47)}.f1{stroke:none;fill:rgb(166,3,47)}.sh1{fill:none;stroke:url(#h1)}.fh1{stroke:none;fill:url(#h1)}.sv1{fill:none;stroke:url(#v1)}.fv1{stroke:none;fill:url(#v1)}.s2{fill:none;stroke:rgb(5,219,242)}.f2{stroke:none;fill:rgb(5,219,242)}.sh2{fill:none;stroke:url(#h2)}.fh2{stroke:none;fill:url(#h2)}.sv2{fill:none;stroke:url(#v2)}.fv2{stroke:none;fill:url(#v2)}.s3{fill:none;stroke:rgb(3,90,166)}.f3{stroke:none;fill:rgb(3,90,166)}.sh3{fill:none;stroke:url(#h3)}.fh3{stroke:none;fill:url(#h3)}.sv3{fill:none;stroke:url(#v3)}.fv3{stroke:none;fill:url(#v3)}.s4{fill:none;stroke:rgb(34,34,34)}.f4{stroke:none;fill:rgb(34,34,34)}.sh4{fill:none;stroke:url(#h4)}.fh4{stroke:none;fill:url(#h4)}.sv4{fill:none;stroke:url(#v4)}.fv4{stroke:none;fill:url(#v4)}.s5{fill:none;stroke:rgb(2,40,115)}.f5{stroke:none;fill:rgb(2,40,115)}.sh5{fill:none;stroke:url(#h5)}.fh5{stroke:none;fill:url(#h5)}.sv5{fill:none;stroke:url(#v5)}.fv5{stroke:none;fill:url(#v5)}.s6{fill:none;stroke:rgb(255,255,255)}.f6{stroke:none;fill:rgb(255,255,255)}.sh6{fill:none;stroke:url(#h6)}.fh6{stroke:none;fill:url(#h6)}.sv6{fill:none;stroke:url(#v6)}.fv6{stroke:none;fill:url(#v6)}.s7{fill:none;stroke:rgb(255,255,0)}.f7{stroke:none;fill:rgb(255,255,0)}.sh7{fill:none;stroke:url(#h7)}.fh7{stroke:none;fill:url(#h7)}.sv7{fill:none;stroke:url(#v7)}.fv7{stroke:none;fill:url(#v7)}/*]]>*/</style><defs><linearGradient gradientTransform="rotate(90)" id="hs"><stop offset="20%" stop-color="#000" /><stop offset="95%" stop-color="rgba(0, 0, 0, 0)" /></linearGradient><linearGradient id="vs"><stop offset="20%" stop-color="#000" /><stop offset="95%" stop-color="rgba(0, 0, 0, 0)" /></linearGradient><linearGradient gradientTransform="rotate(90)" id="h1"><stop offset="20%" stop-color="rgba(166,3,47,1)" /><stop offset="95%" stop-color="rgba(166,3,47,0)" /></linearGradient><linearGradient id="v1"><stop offset="20%" stop-color="rgba(166,3,47,1)" /><stop offset="95%" stop-color="rgba(166,3,47,0)" /></linearGradient><linearGradient gradientTransform="rotate(90)" id="h2"><stop offset="20%" stop-color="rgba(5,219,242,1)" /><stop offset="95%" stop-color="rgba(5,219,242,0)" /></linearGradient><linearGradient id="v2"><stop offset="20%" stop-color="rgba(5,219,242,1)" /><stop offset="95%" stop-color="rgba(5,219,242,0)" /></linearGradient><linearGradient gradientTransform="rotate(90)" id="h3"><stop offset="20%" stop-color="rgba(3,90,166,1)" /><stop offset="95%" stop-color="rgba(3,90,166,0)" /></linearGradient><linearGradient id="v3"><stop offset="20%" stop-color="rgba(3,90,166,1)" /><stop offset="95%" stop-color="rgba(3,90,166,0)" /></linearGradient><linearGradient gradientTransform="rotate(90)" id="h4"><stop offset="20%" stop-color="rgba(34,34,34,1)" /><stop offset="95%" stop-color="rgba(34,34,34,0)" /></linearGradient><linearGradient id="v4"><stop offset="20%" stop-color="rgba(34,34,34,1)" /><stop offset="95%" stop-color="rgba(34,34,34,0)" /></linearGradient><linearGradient gradientTransform="rotate(90)" id="h5"><stop offset="20%" stop-color="rgba(2,40,115,1)" /><stop offset="95%" stop-color="rgba(2,40,115,0)" /></linearGradient><linearGradient id="v5"><stop offset="20%" stop-color="rgba(2,40,115,1)" /><stop offset="95%" stop-color="rgba(2,40,115,0)" /></linearGradient><linearGradient gradientTransform="rotate(90)" id="h6"><stop offset="20%" stop-color="rgba(255,255,255,1)" /><stop offset="95%" stop-color="rgba(255,255,255,0)" /></linearGradient><linearGradient id="v6"><stop offset="20%" stop-color="rgba(255,255,255,1)" /><stop offset="95%" stop-color="rgba(255,255,255,0)" /></linearGradient><linearGradient gradientTransform="rotate(90)" id="h7"><stop offset="20%" stop-color="rgba(255,255,0,1)" /><stop offset="95%" stop-color="rgba(255,255,0,0)" /></linearGradient><linearGradient id="v7"><stop offset="20%" stop-color="rgba(255,255,0,1)" /><stop offset="95%" stop-color="rgba(255,255,0,0)" /></linearGradient></defs><g transform-origin="1500 1500" transform="scale(2)" opacity=".2"><g id="slashes"><g class="o"><path transform="translate(5,10)" class="S sfh" d="M1165 1634 L1406 1393 L1526 1393 L1285 1634 Z"/><path class="fh2" d="M1165 1634 L1406 1393 L1526 1393 L1285 1634 Z" /></g><g class="o"><path transform="translate(9,18)" class="S sfv" d="M2027 1213 L2093 1147 L2093 1175 L2027 1241 Z"/><path class="fv1" d="M2027 1213 L2093 1147 L2093 1175 L2027 1241 Z" /></g><g class="o"><path transform="translate(7,14)" class="S sfh" d="M1346 1584 L1550 1380 L1570 1380 L1366 1584 Z"/><path class="fh2" d="M1346 1584 L1550 1380 L1570 1380 L1366 1584 Z" /></g><g class="o"><path transform="translate(3,6)" class="S ssv" d="M1143 1259 L1350 1052 L1350 1084 L1143 1291 Z"/><path class="sv7" d="M1143 1259 L1350 1052 L1350 1084 L1143 1291 Z" /></g><g class="o"><path transform="translate(6,12)" class="S ssh" d="M1399 1481 L1631 1249 L1645 1249 L1413 1481 Z"/><path class="sh1" d="M1399 1481 L1631 1249 L1645 1249 L1413 1481 Z" /></g><g class="o"><path transform="translate(8,16)" class="S sfh" d="M1819 1658 L2052 1425 L2074 1425 L1841 1658 Z"/><path class="fh5" d="M1819 1658 L2052 1425 L2074 1425 L1841 1658 Z" /></g><g class="o"><path transform="translate(3,6)" class="S sfv" d="M1382 1310 L1591 1101 L1591 1139 L1382 1348 Z"/><path class="fv6" d="M1382 1310 L1591 1101 L1591 1139 L1382 1348 Z" /></g><g class="o"><path transform="translate(7,14)" class="S ssv" d="M1103 1901 L1000 1798 L1000 1810 L1103 1913 Z"/><path class="sv2" d="M1103 1901 L1000 1798 L1000 1810 L1103 1913 Z" /></g><g class="o"><path transform="translate(7,14)" class="S sfv" d="M1062 1554 L993 1485 L993 1517 L1062 1586 Z"/><path class="fv6" d="M1062 1554 L993 1485 L993 1517 L1062 1586 Z" /></g><g class="o"><path transform="translate(4,8)" class="S sfh" d="M1938 1368 L2165 1141 L2187 1141 L1960 1368 Z"/><path class="fh7" d="M1938 1368 L2165 1141 L2187 1141 L1960 1368 Z" /></g><g class="o"><path transform="translate(9,18)" class="S sfh" d="M1879 1272 L1828 1221 L1858 1221 L1909 1272 Z"/><path class="fh6" d="M1879 1272 L1828 1221 L1858 1221 L1909 1272 Z" /></g><g class="o"><path transform="translate(7,14)" class="S sfv" d="M1203 1330 L927 1054 L927 1092 L1203 1368 Z"/><path class="fv5" d="M1203 1330 L927 1054 L927 1092 L1203 1368 Z" /></g><g class="o"><path transform="translate(6,12)" class="S sfh" d="M990 1471 L780 1261 L844 1261 L1054 1471 Z"/><path class="fh5" d="M990 1471 L780 1261 L844 1261 L1054 1471 Z" /></g><g class="o"><path transform="translate(8,16)" class="S sfv" d="M1307 1206 L1413 1100 L1413 1138 L1307 1244 Z"/><path class="fv5" d="M1307 1206 L1413 1100 L1413 1138 L1307 1244 Z" /></g><g class="o"><path transform="translate(5,10)" class="S ssv" d="M1633 1261 L1794 1100 L1794 1126 L1633 1287 Z"/><path class="sv3" d="M1633 1261 L1794 1100 L1794 1126 L1633 1287 Z" /></g><g class="o"><path transform="translate(2,4)" class="S ssh" d="M1132 1645 L655 1168 L673 1168 L1150 1645 Z"/><path class="sh7" d="M1132 1645 L655 1168 L673 1168 L1150 1645 Z" /></g><g class="o"><path transform="translate(7,14)" class="S sfh" d="M1080 1576 L1176 1480 L1196 1480 L1100 1576 Z"/><path class="fh3" d="M1080 1576 L1176 1480 L1196 1480 L1100 1576 Z" /></g><g class="o"><path transform="translate(7,14)" class="S sfv" d="M1676 1589 L1468 1381 L1468 1417 L1676 1625 Z"/><path class="fv2" d="M1676 1589 L1468 1381 L1468 1417 L1676 1625 Z" /></g><g class="o"><path transform="translate(8,16)" class="S sfh" d="M1122 1842 L684 1404 L714 1404 L1152 1842 Z"/><path class="fh4" d="M1122 1842 L684 1404 L714 1404 L1152 1842 Z" /></g><g class="o"><path transform="translate(9,18)" class="S sf" d="M1106 1602 L1046 1542 L1046 1556 L1106 1616 Z"/><path class="f6" d="M1106 1602 L1046 1542 L1046 1556 L1106 1616 Z" /></g><g class="o"><path transform="translate(6,12)" class="S sfh" d="M1475 1115 L1340 980 L1368 980 L1503 1115 Z"/><path class="fh3" d="M1475 1115 L1340 980 L1368 980 L1503 1115 Z" /></g><g class="o"><path transform="translate(4,8)" class="S sf" d="M1624 1174 L1709 1089 L1719 1089 L1634 1174 Z"/><path class="f1" d="M1624 1174 L1709 1089 L1719 1089 L1634 1174 Z" /></g><g class="o"><path transform="translate(3,6)" class="S ssv" d="M1439 1777 L1619 1597 L1619 1635 L1439 1815 Z"/><path class="sv4" d="M1439 1777 L1619 1597 L1619 1635 L1439 1815 Z" /></g><g class="o"><path transform="translate(8,16)" class="S sfh" d="M1939 964 L1705 730 L1719 730 L1953 964 Z"/><path class="fh5" d="M1939 964 L1705 730 L1719 730 L1953 964 Z" /></g><g class="o"><path transform="translate(7,14)" class="S sfv" d="M1207 1463 L985 1241 L985 1249 L1207 1471 Z"/><path class="fv1" d="M1207 1463 L985 1241 L985 1249 L1207 1471 Z" /></g><g class="o"><path transform="translate(7,14)" class="S sfh" d="M1244 1225 L1442 1027 L1458 1027 L1260 1225 Z"/><path class="fh1" d="M1244 1225 L1442 1027 L1458 1027 L1260 1225 Z" /></g><g class="o"><path transform="translate(3,6)" class="S sfv" d="M1705 1794 L1915 1584 L1915 1612 L1705 1822 Z"/><path class="fv1" d="M1705 1794 L1915 1584 L1915 1612 L1705 1822 Z" /></g><g class="o"><path transform="translate(8,16)" class="S sfh" d="M1553 1959 L1853 1659 L1873 1659 L1573 1959 Z"/><path class="fh3" d="M1553 1959 L1853 1659 L1873 1659 L1573 1959 Z" /></g><g class="o"><path transform="translate(6,12)" class="S sfv" d="M1534 1041 L2017 558 L2017 570 L1534 1053 Z"/><path class="fv1" d="M1534 1041 L2017 558 L2017 570 L1534 1053 Z" /></g><g class="o"><path transform="translate(6,12)" class="S sfv" d="M1213 1226 L1340 1099 L1340 1219 L1213 1346 Z"/><path class="fv4" d="M1213 1226 L1340 1099 L1340 1219 L1213 1346 Z" /></g><g class="o"><path transform="translate(3,6)" class="S sfh" d="M1318 1338 L1426 1230 L1452 1230 L1344 1338 Z"/><path class="fh4" d="M1318 1338 L1426 1230 L1452 1230 L1344 1338 Z" /></g><g class="o"><path transform="translate(7,14)" class="S sfv" d="M1080 1946 L952 1818 L952 1838 L1080 1966 Z"/><path class="fv4" d="M1080 1946 L952 1818 L952 1838 L1080 1966 Z" /></g><g class="o"><path transform="translate(5,10)" class="S sf" d="M1061 1939 L979 1857 L979 1867 L1061 1949 Z"/><path class="f5" d="M1061 1939 L979 1857 L979 1867 L1061 1949 Z" /></g><g class="o"><path transform="translate(5,10)" class="S sf" d="M1725 1252 L1643 1170 L1675 1170 L1757 1252 Z"/><path class="f4" d="M1725 1252 L1643 1170 L1675 1170 L1757 1252 Z" /></g><g class="o"><path transform="translate(5,10)" class="S ssv" d="M1766 1920 L1923 1763 L1923 1835 L1766 1992 Z"/><path class="sv3" d="M1766 1920 L1923 1763 L1923 1835 L1766 1992 Z" /></g><g class="o"><path transform="translate(8,16)" class="S ssv" d="M1061 1654 L968 1561 L968 1577 L1061 1670 Z"/><path class="sv7" d="M1061 1654 L968 1561 L968 1577 L1061 1670 Z" /></g><g class="o"><path transform="translate(4,8)" class="S sfh" d="M1104 1205 L1250 1059 L1286 1059 L1140 1205 Z"/><path class="fh5" d="M1104 1205 L1250 1059 L1286 1059 L1140 1205 Z" /></g><g class="o"><path transform="translate(5,10)" class="S sfv" d="M1183 1784 L1061 1662 L1061 1692 L1183 1814 Z"/><path class="fv3" d="M1183 1784 L1061 1662 L1061 1692 L1183 1814 Z" /></g><g class="o"><path transform="translate(8,16)" class="S ssh" d="M1089 1560 L888 1359 L896 1359 L1097 1560 Z"/><path class="sh6" d="M1089 1560 L888 1359 L896 1359 L1097 1560 Z" /></g><g class="o"><path transform="translate(7,14)" class="S ssh" d="M1599 1219 L1308 928 L1316 928 L1607 1219 Z"/><path class="sh2" d="M1599 1219 L1308 928 L1316 928 L1607 1219 Z" /></g><g class="o"><path transform="translate(2,4)" class="S sfh" d="M1612 1258 L1688 1182 L1708 1182 L1632 1258 Z"/><path class="fh4" d="M1612 1258 L1688 1182 L1708 1182 L1632 1258 Z" /></g><g class="o"><path transform="translate(3,6)" class="S sfh" d="M1667 953 L1727 893 L1741 893 L1681 953 Z"/><path class="fh7" d="M1667 953 L1727 893 L1741 893 L1681 953 Z" /></g><g class="o"><path transform="translate(2,4)" class="S sfv" d="M1008 1364 L890 1246 L890 1284 L1008 1402 Z"/><path class="fv2" d="M1008 1364 L890 1246 L890 1284 L1008 1402 Z" /></g><g class="o"><path transform="translate(2,4)" class="S sfh" d="M1901 1048 L1664 811 L1692 811 L1929 1048 Z"/><path class="fh1" d="M1901 1048 L1664 811 L1692 811 L1929 1048 Z" /></g><g class="o"><path transform="translate(4,8)" class="S ss" d="M1314 1383 L1189 1258 L1203 1258 L1328 1383 Z"/><path class="s2" d="M1314 1383 L1189 1258 L1203 1258 L1328 1383 Z" /></g><g class="o"><path transform="translate(6,12)" class="S sfh" d="M1463 1637 L1622 1478 L1636 1478 L1477 1637 Z"/><path class="fh5" d="M1463 1637 L1622 1478 L1636 1478 L1477 1637 Z" /></g><g class="o"><path transform="translate(7,14)" class="S sf" d="M1539 1378 L1455 1294 L1455 1310 L1539 1394 Z"/><path class="f6" d="M1539 1378 L1455 1294 L1455 1310 L1539 1394 Z" /></g><g class="o"><path transform="translate(3,6)" class="S sf" d="M1796 1546 L1889 1453 L1889 1477 L1796 1570 Z"/><path class="f6" d="M1796 1546 L1889 1453 L1889 1477 L1796 1570 Z" /></g><g class="o"><path transform="translate(5,10)" class="S ssv" d="M1069 1164 L859 954 L859 980 L1069 1190 Z"/><path class="sv5" d="M1069 1164 L859 954 L859 980 L1069 1190 Z" /></g><g class="o"><path transform="translate(7,14)" class="S sfv" d="M1273 2033 L1324 1982 L1324 2004 L1273 2055 Z"/><path class="fv2" d="M1273 2033 L1324 1982 L1324 2004 L1273 2055 Z" /></g><g class="o"><path transform="translate(9,18)" class="S sfh" d="M1489 1517 L1246 1274 L1284 1274 L1527 1517 Z"/><path class="fh6" d="M1489 1517 L1246 1274 L1284 1274 L1527 1517 Z" /></g><g class="o"><path transform="translate(4,8)" class="S ssv" d="M1246 1939 L808 1501 L808 1529 L1246 1967 Z"/><path class="sv2" d="M1246 1939 L808 1501 L808 1529 L1246 1967 Z" /></g><g class="o"><path transform="translate(5,10)" class="S sfh" d="M1592 1485 L1757 1320 L1767 1320 L1602 1485 Z"/><path class="fh1" d="M1592 1485 L1757 1320 L1767 1320 L1602 1485 Z" /></g><g class="o"><path transform="translate(7,14)" class="S sf" d="M2001 1363 L2174 1190 L2246 1190 L2073 1363 Z"/><path class="f3" d="M2001 1363 L2174 1190 L2246 1190 L2073 1363 Z" /></g><g class="o"><path transform="translate(2,4)" class="S sf" d="M1707 1980 L1877 1810 L1877 1820 L1707 1990 Z"/><path class="f2" d="M1707 1980 L1877 1810 L1877 1820 L1707 1990 Z" /></g><g class="o"><path transform="translate(4,8)" class="S ssv" d="M1259 1771 L1312 1718 L1312 1742 L1259 1795 Z"/><path class="sv4" d="M1259 1771 L1312 1718 L1312 1742 L1259 1795 Z" /></g><g class="o"><path transform="translate(7,14)" class="S sfv" d="M2034 1282 L2100 1216 L2100 1238 L2034 1304 Z"/><path class="fv3" d="M2034 1282 L2100 1216 L2100 1238 L2034 1304 Z" /></g><g class="o"><path transform="translate(3,6)" class="S sf" d="M1890 1012 L1278 400 L1334 400 L1946 1012 Z"/><path class="f1" d="M1890 1012 L1278 400 L1334 400 L1946 1012 Z" /></g><g class="o"><path transform="translate(8,16)" class="S sfv" d="M1184 1698 L985 1499 L985 1587 L1184 1786 Z"/><path class="fv6" d="M1184 1698 L985 1499 L985 1587 L1184 1786 Z" /></g><g class="o"><path transform="translate(2,4)" class="S sf" d="M1986 1679 L1888 1581 L1916 1581 L2014 1679 Z"/><path class="f1" d="M1986 1679 L1888 1581 L1916 1581 L2014 1679 Z" /></g><g class="o"><path transform="translate(5,10)" class="S sfh" d="M979 1779 L619 1419 L649 1419 L1009 1779 Z"/><path class="fh3" d="M979 1779 L619 1419 L649 1419 L1009 1779 Z" /></g><g class="o"><path transform="translate(9,18)" class="S ss" d="M1954 1944 L2085 1813 L2085 1949 L1954 2080 Z"/><path class="s4" d="M1954 1944 L2085 1813 L2085 1949 L1954 2080 Z" /></g><g class="o"><path transform="translate(4,8)" class="S sfh" d="M1913 1700 L1711 1498 L1745 1498 L1947 1700 Z"/><path class="fh7" d="M1913 1700 L1711 1498 L1745 1498 L1947 1700 Z" /></g><g class="o"><path transform="translate(5,10)" class="S sfv" d="M1829 1682 L1993 1518 L1993 1552 L1829 1716 Z"/><path class="fv5" d="M1829 1682 L1993 1518 L1993 1552 L1829 1716 Z" /></g><g class="o"><path transform="translate(4,8)" class="S ssh" d="M1523 1586 L1420 1483 L1450 1483 L1553 1586 Z"/><path class="sh5" d="M1523 1586 L1420 1483 L1450 1483 L1553 1586 Z" /></g><g class="o"><path transform="translate(7,14)" class="S ss" d="M1287 1883 L1478 1692 L1478 1804 L1287 1995 Z"/><path class="s3" d="M1287 1883 L1478 1692 L1478 1804 L1287 1995 Z" /></g><g class="o"><path transform="translate(8,16)" class="S sfh" d="M1837 1463 L1708 1334 L1742 1334 L1871 1463 Z"/><path class="fh3" d="M1837 1463 L1708 1334 L1742 1334 L1871 1463 Z" /></g><g class="o"><path transform="translate(3,6)" class="S sfv" d="M1121 1996 L906 1781 L906 1797 L1121 2012 Z"/><path class="fv1" d="M1121 1996 L906 1781 L906 1797 L1121 2012 Z" /></g><g class="o"><path transform="translate(2,4)" class="S ss" d="M1745 1163 L1852 1056 L1852 1088 L1745 1195 Z"/><path class="s1" d="M1745 1163 L1852 1056 L1852 1088 L1745 1195 Z" /></g><g class="o"><path transform="translate(3,6)" class="S sfh" d="M1326 1075 L1486 915 L1502 915 L1342 1075 Z"/><path class="fh4" d="M1326 1075 L1486 915 L1502 915 L1342 1075 Z" /></g><g class="o"><path transform="translate(2,4)" class="S sfv" d="M1953 1836 L2144 1645 L2144 1681 L1953 1872 Z"/><path class="fv3" d="M1953 1836 L2144 1645 L2144 1681 L1953 1872 Z" /></g><g class="o"><path transform="translate(2,4)" class="S sfh" d="M1115 1734 L512 1131 L550 1131 L1153 1734 Z"/><path class="fh4" d="M1115 1734 L512 1131 L550 1131 L1153 1734 Z" /></g><g class="o"><path transform="translate(2,4)" class="S sfh" d="M1890 1560 L2046 1404 L2126 1404 L1970 1560 Z"/><path class="fh6" d="M1890 1560 L2046 1404 L2126 1404 L1970 1560 Z" /></g><g class="o"><path transform="translate(3,6)" class="S sfh" d="M1024 1931 L1191 1764 L1205 1764 L1038 1931 Z"/><path class="fh7" d="M1024 1931 L1191 1764 L1205 1764 L1038 1931 Z" /></g><g class="o"><path transform="translate(7,14)" class="S sfh" d="M1231 978 L1319 890 L1337 890 L1249 978 Z"/><path class="fh7" d="M1231 978 L1319 890 L1337 890 L1249 978 Z" /></g><g class="o"><path transform="translate(2,4)" class="S ss" d="M1639 1414 L1775 1278 L1805 1278 L1669 1414 Z"/><path class="s1" d="M1639 1414 L1775 1278 L1805 1278 L1669 1414 Z" /></g><g class="o"><path transform="translate(2,4)" class="S sfh" d="M955 1908 L1504 1359 L1522 1359 L973 1908 Z"/><path class="fh2" d="M955 1908 L1504 1359 L1522 1359 L973 1908 Z" /></g><g class="o"><path transform="translate(8,16)" class="S sfv" d="M1611 1082 L2337 356 L2337 364 L1611 1090 Z"/><path class="fv7" d="M1611 1082 L2337 356 L2337 364 L1611 1090 Z" /></g><g class="o"><path transform="translate(5,10)" class="S sfv" d="M1586 1188 L1673 1101 L1673 1253 L1586 1340 Z"/><path class="fv3" d="M1586 1188 L1673 1101 L1673 1253 L1586 1340 Z" /></g><g class="o"><path transform="translate(7,14)" class="S sf" d="M1368 1595 L1454 1509 L1454 1529 L1368 1615 Z"/><path class="f7" d="M1368 1595 L1454 1509 L1454 1529 L1368 1615 Z" /></g><g class="o"><path transform="translate(5,10)" class="S sfh" d="M1289 1509 L1169 1389 L1207 1389 L1327 1509 Z"/><path class="fh3" d="M1289 1509 L1169 1389 L1207 1389 L1327 1509 Z" /></g><g class="o"><path transform="translate(7,14)" class="S sfv" d="M1879 918 L1635 674 L1635 794 L1879 1038 Z"/><path class="fv3" d="M1879 918 L1635 674 L1635 794 L1879 1038 Z" /></g><g class="o"><path transform="translate(3,6)" class="S sfv" d="M1973 1167 L2214 926 L2214 940 L1973 1181 Z"/><path class="fv3" d="M1973 1167 L2214 926 L2214 940 L1973 1181 Z" /></g><g class="o"><path transform="translate(7,14)" class="S ssh" d="M1807 1225 L1691 1109 L1705 1109 L1821 1225 Z"/><path class="sh3" d="M1807 1225 L1691 1109 L1705 1109 L1821 1225 Z" /></g><g class="o"><path transform="translate(7,14)" class="S sfh" d="M1214 1015 L1059 860 L1077 860 L1232 1015 Z"/><path class="fh6" d="M1214 1015 L1059 860 L1077 860 L1232 1015 Z" /></g><g class="o"><path transform="translate(5,10)" class="S sfh" d="M1518 1626 L1597 1547 L1627 1547 L1548 1626 Z"/><path class="fh3" d="M1518 1626 L1597 1547 L1627 1547 L1548 1626 Z" /></g><g class="o"><path transform="translate(9,18)" class="S sf" d="M1411 1530 L1565 1376 L1603 1376 L1449 1530 Z"/><path class="f4" d="M1411 1530 L1565 1376 L1603 1376 L1449 1530 Z" /></g><g class="o"><path transform="translate(7,14)" class="S sfv" d="M1746 1634 L1639 1527 L1639 1537 L1746 1644 Z"/><path class="fv6" d="M1746 1634 L1639 1527 L1639 1537 L1746 1644 Z" /></g><g class="o"><path transform="translate(5,10)" class="S sfh" d="M1630 1934 L1816 1748 L1824 1748 L1638 1934 Z"/><path class="fh6" d="M1630 1934 L1816 1748 L1824 1748 L1638 1934 Z" /></g><g class="o"><path transform="translate(2,4)" class="S ss" d="M1481 1169 L1692 958 L1718 958 L1507 1169 Z"/><path class="s6" d="M1481 1169 L1692 958 L1718 958 L1507 1169 Z" /></g><g class="o"><path transform="translate(8,16)" class="S sfv" d="M1658 1665 L1454 1461 L1454 1471 L1658 1675 Z"/><path class="fv1" d="M1658 1665 L1454 1461 L1454 1471 L1658 1675 Z" /></g><g class="o"><path transform="translate(2,4)" class="S ssv" d="M1061 1776 L1190 1647 L1190 1695 L1061 1824 Z"/><path class="sv2" d="M1061 1776 L1190 1647 L1190 1695 L1061 1824 Z" /></g><g class="o"><path transform="translate(3,6)" class="S ss" d="M1596 1958 L1415 1777 L1439 1777 L1620 1958 Z"/><path class="s6" d="M1596 1958 L1415 1777 L1439 1777 L1620 1958 Z" /></g><g class="o"><path transform="translate(8,16)" class="S sf" d="M2034 1267 L2268 1033 L2276 1033 L2042 1267 Z"/><path class="f5" d="M2034 1267 L2268 1033 L2276 1033 L2042 1267 Z" /></g><g class="o"><path transform="translate(6,12)" class="S sfv" d="M1762 1653 L1944 1471 L1944 1495 L1762 1677 Z"/><path class="fv4" d="M1762 1653 L1944 1471 L1944 1495 L1762 1677 Z" /></g><g class="o"><path transform="translate(5,10)" class="S sfv" d="M1678 963 L1201 486 L1201 524 L1678 1001 Z"/><path class="fv3" d="M1678 963 L1201 486 L1201 524 L1678 1001 Z" /></g><g class="o"><path transform="translate(7,14)" class="S sf" d="M1064 1643 L707 1286 L723 1286 L1080 1643 Z"/><path class="f5" d="M1064 1643 L707 1286 L723 1286 L1080 1643 Z" /></g><g class="o"><path transform="translate(6,12)" class="S sfh" d="M1392 1791 L1206 1605 L1242 1605 L1428 1791 Z"/><path class="fh6" d="M1392 1791 L1206 1605 L1242 1605 L1428 1791 Z" /></g><g class="o"><path transform="translate(7,14)" class="S sfh" d="M1285 1390 L868 973 L900 973 L1317 1390 Z"/><path class="fh5" d="M1285 1390 L868 973 L900 973 L1317 1390 Z" /></g><g class="o"><path transform="translate(5,10)" class="S sfv" d="M1630 992 L1728 894 L1728 908 L1630 1006 Z"/><path class="fv1" d="M1630 992 L1728 894 L1728 908 L1630 1006 Z" /></g><g class="o"><path transform="translate(6,12)" class="S sfv" d="M1535 990 L1419 874 L1419 1002 L1535 1118 Z"/><path class="fv2" d="M1535 990 L1419 874 L1419 1002 L1535 1118 Z" /></g><g class="o"><path transform="translate(6,12)" class="S sfh" d="M1179 1922 L1710 1391 L1722 1391 L1191 1922 Z"/><path class="fh2" d="M1179 1922 L1710 1391 L1722 1391 L1191 1922 Z" /></g><g class="o"><path transform="translate(2,4)" class="S sf" d="M1885 1864 L1980 1769 L1980 1805 L1885 1900 Z"/><path class="f6" d="M1885 1864 L1980 1769 L1980 1805 L1885 1900 Z" /></g><g class="o"><path transform="translate(2,4)" class="S sfv" d="M1437 2027 L1649 1815 L1649 1825 L1437 2037 Z"/><path class="fv3" d="M1437 2027 L1649 1815 L1649 1825 L1437 2037 Z" /></g><g class="o"><path transform="translate(3,6)" class="S sfv" d="M1579 1422 L1475 1318 L1475 1354 L1579 1458 Z"/><path class="fv4" d="M1579 1422 L1475 1318 L1475 1354 L1579 1458 Z" /></g><g class="o"><path transform="translate(5,10)" class="S sfh" d="M954 1870 L1084 1740 L1106 1740 L976 1870 Z"/><path class="fh7" d="M954 1870 L1084 1740 L1106 1740 L976 1870 Z" /></g><g class="o"><path transform="translate(4,8)" class="S ssh" d="M1579 1603 L1822 1360 L1858 1360 L1615 1603 Z"/><path class="sh2" d="M1579 1603 L1822 1360 L1858 1360 L1615 1603 Z" /></g><g class="o"><path transform="translate(8,16)" class="S sfh" d="M2008 1841 L1901 1734 L1913 1734 L2020 1841 Z"/><path class="fh6" d="M2008 1841 L1901 1734 L1913 1734 L2020 1841 Z" /></g><g class="o"><path transform="translate(6,12)" class="S ssv" d="M1355 1023 L1460 918 L1460 932 L1355 1037 Z"/><path class="sv5" d="M1355 1023 L1460 918 L1460 932 L1355 1037 Z" /></g><g class="o"><path transform="translate(4,8)" class="S sf" d="M1793 1029 L1635 871 L1643 871 L1801 1029 Z"/><path class="f3" d="M1793 1029 L1635 871 L1643 871 L1801 1029 Z" /></g><g class="o"><path transform="translate(8,16)" class="S ss" d="M1483 1689 L1655 1517 L1663 1517 L1491 1689 Z"/><path class="s6" d="M1483 1689 L1655 1517 L1663 1517 L1491 1689 Z" /></g><g class="o"><path transform="translate(5,10)" class="S sfv" d="M1087 1473 L1280 1280 L1280 1288 L1087 1481 Z"/><path class="fv5" d="M1087 1473 L1280 1280 L1280 1288 L1087 1481 Z" /></g><g class="o"><path transform="translate(2,4)" class="S ssv" d="M1260 1783 L1115 1638 L1115 1656 L1260 1801 Z"/><path class="sv3" d="M1260 1783 L1115 1638 L1115 1656 L1260 1801 Z" /></g><g class="o"><path transform="translate(4,8)" class="S sfv" d="M1382 949 L1168 735 L1168 773 L1382 987 Z"/><path class="fv5" d="M1382 949 L1168 735 L1168 773 L1382 987 Z" /></g><g class="o"><path transform="translate(7,14)" class="S sfh" d="M1516 1066 L1614 968 L1642 968 L1544 1066 Z"/><path class="fh6" d="M1516 1066 L1614 968 L1642 968 L1544 1066 Z" /></g><g class="o"><path transform="translate(6,12)" class="S sfh" d="M1955 1552 L1808 1405 L1822 1405 L1969 1552 Z"/><path class="fh1" d="M1955 1552 L1808 1405 L1822 1405 L1969 1552 Z" /></g><g class="o"><path transform="translate(9,18)" class="S sfv" d="M1833 1796 L2060 1569 L2060 1591 L1833 1818 Z"/><path class="fv3" d="M1833 1796 L2060 1569 L2060 1591 L1833 1818 Z" /></g><g class="o"><path transform="translate(7,14)" class="S ssh" d="M1089 954 L1267 776 L1279 776 L1101 954 Z"/><path class="sh7" d="M1089 954 L1267 776 L1279 776 L1101 954 Z" /></g><g class="o"><path transform="translate(3,6)" class="S sfv" d="M1339 1265 L1214 1140 L1214 1176 L1339 1301 Z"/><path class="fv6" d="M1339 1265 L1214 1140 L1214 1176 L1339 1301 Z" /></g><g class="o"><path transform="translate(8,16)" class="S sfv" d="M1355 1526 L767 938 L767 970 L1355 1558 Z"/><path class="fv7" d="M1355 1526 L767 938 L767 970 L1355 1558 Z" /></g><g class="o"><path transform="translate(2,4)" class="S ss" d="M1875 1382 L2049 1208 L2049 1228 L1875 1402 Z"/><path class="s5" d="M1875 1382 L2049 1208 L2049 1228 L1875 1402 Z" /></g><g class="o"><path transform="translate(8,16)" class="S ss" d="M1974 1518 L2171 1321 L2171 1337 L1974 1534 Z"/><path class="s5" d="M1974 1518 L2171 1321 L2171 1337 L1974 1534 Z" /></g><g class="o"><path transform="translate(4,8)" class="S sfv" d="M1169 1913 L1118 1862 L1118 1900 L1169 1951 Z"/><path class="fv7" d="M1169 1913 L1118 1862 L1118 1900 L1169 1951 Z" /></g><g class="o"><path transform="translate(3,6)" class="S sfh" d="M1105 1523 L1333 1295 L1363 1295 L1135 1523 Z"/><path class="fh1" d="M1105 1523 L1333 1295 L1363 1295 L1135 1523 Z" /></g><g class="o"><path transform="translate(4,8)" class="S sfv" d="M983 1948 L1040 1891 L1040 1921 L983 1978 Z"/><path class="fv7" d="M983 1948 L1040 1891 L1040 1921 L983 1978 Z" /></g><g class="o"><path transform="translate(5,10)" class="S sfv" d="M1424 2025 L1673 1776 L1673 1800 L1424 2049 Z"/><path class="fv5" d="M1424 2025 L1673 1776 L1673 1800 L1424 2049 Z" /></g><g class="o"><path transform="translate(9,18)" class="S sfv" d="M1835 1295 L2000 1130 L2000 1266 L1835 1431 Z"/><path class="fv1" d="M1835 1295 L2000 1130 L2000 1266 L1835 1431 Z" /></g><g class="o"><path transform="translate(9,18)" class="S sfh" d="M1799 1027 L2036 790 L2054 790 L1817 1027 Z"/><path class="fh7" d="M1799 1027 L2036 790 L2054 790 L1817 1027 Z" /></g><g class="o"><path transform="translate(2,4)" class="S sf" d="M1703 1735 L1898 1540 L1926 1540 L1731 1735 Z"/><path class="f5" d="M1703 1735 L1898 1540 L1926 1540 L1731 1735 Z" /></g><g class="o"><path transform="translate(6,12)" class="S sfh" d="M1360 1570 L1469 1461 L1477 1461 L1368 1570 Z"/><path class="fh3" d="M1360 1570 L1469 1461 L1477 1461 L1368 1570 Z" /></g><g class="o"><path transform="translate(8,16)" class="S sfh" d="M1133 1841 L1262 1712 L1300 1712 L1171 1841 Z"/><path class="fh2" d="M1133 1841 L1262 1712 L1300 1712 L1171 1841 Z" /></g><g class="o"><path transform="translate(8,16)" class="S ssv" d="M1842 1045 L1693 896 L1693 908 L1842 1057 Z"/><path class="sv5" d="M1842 1045 L1693 896 L1693 908 L1842 1057 Z" /></g><g class="o"><path transform="translate(8,16)" class="S sfh" d="M1849 1669 L1728 1548 L1742 1548 L1863 1669 Z"/><path class="fh4" d="M1849 1669 L1728 1548 L1742 1548 L1863 1669 Z" /></g><g class="o"><path transform="translate(7,14)" class="S ss" d="M1377 1507 L1267 1397 L1289 1397 L1399 1507 Z"/><path class="s5" d="M1377 1507 L1267 1397 L1289 1397 L1399 1507 Z" /></g><g class="o"><path transform="translate(7,14)" class="S sfv" d="M1568 1354 L2099 823 L2099 837 L1568 1368 Z"/><path class="fv2" d="M1568 1354 L2099 823 L2099 837 L1568 1368 Z" /></g><g class="o"><path transform="translate(2,4)" class="S sf" d="M1406 989 L1649 746 L1677 746 L1434 989 Z"/><path class="f2" d="M1406 989 L1649 746 L1677 746 L1434 989 Z" /></g><g class="o"><path transform="translate(7,14)" class="S sf" d="M1215 1291 L1276 1230 L1276 1268 L1215 1329 Z"/><path class="f3" d="M1215 1291 L1276 1230 L1276 1268 L1215 1329 Z" /></g><g class="o"><path transform="translate(9,18)" class="S ssv" d="M1704 1726 L1797 1633 L1797 1671 L1704 1764 Z"/><path class="sv5" d="M1704 1726 L1797 1633 L1797 1671 L1704 1764 Z" /></g><g class="o"><path transform="translate(5,10)" class="S sf" d="M1772 1582 L1901 1453 L1937 1453 L1808 1582 Z"/><path class="f3" d="M1772 1582 L1901 1453 L1937 1453 L1808 1582 Z" /></g><g class="o"><path transform="translate(8,16)" class="S sfh" d="M1167 1758 L1518 1407 L1552 1407 L1201 1758 Z"/><path class="fh6" d="M1167 1758 L1518 1407 L1552 1407 L1201 1758 Z" /></g><g class="o"><path transform="translate(5,10)" class="S sfv" d="M2009 1501 L2240 1270 L2240 1300 L2009 1531 Z"/><path class="fv4" d="M2009 1501 L2240 1270 L2240 1300 L2009 1531 Z" /></g><g class="o"><path transform="translate(8,16)" class="S sfh" d="M1506 1118 L1338 950 L1348 950 L1516 1118 Z"/><path class="fh4" d="M1506 1118 L1338 950 L1348 950 L1516 1118 Z" /></g><g class="o"><path transform="translate(2,4)" class="S sfh" d="M1697 1420 L1487 1210 L1521 1210 L1731 1420 Z"/><path class="fh1" d="M1697 1420 L1487 1210 L1521 1210 L1731 1420 Z" /></g><g class="o"><path transform="translate(6,12)" class="S ssv" d="M1127 954 L1187 894 L1187 928 L1127 988 Z"/><path class="sv6" d="M1127 954 L1187 894 L1187 928 L1127 988 Z" /></g><g class="o"><path transform="translate(2,4)" class="S sf" d="M1917 1214 L1972 1159 L1972 1167 L1917 1222 Z"/><path class="f1" d="M1917 1214 L1972 1159 L1972 1167 L1917 1222 Z" /></g><g class="o"><path transform="translate(5,10)" class="S ssh" d="M1506 1981 L1399 1874 L1423 1874 L1530 1981 Z"/><path class="sh6" d="M1506 1981 L1399 1874 L1423 1874 L1530 1981 Z" /></g><g class="o"><path transform="translate(2,4)" class="S sfv" d="M1747 1921 L1600 1774 L1600 1812 L1747 1959 Z"/><path class="fv5" d="M1747 1921 L1600 1774 L1600 1812 L1747 1959 Z" /></g><g class="o"><path transform="translate(7,14)" class="S sfh" d="M1478 1187 L962 671 L996 671 L1512 1187 Z"/><path class="fh1" d="M1478 1187 L962 671 L996 671 L1512 1187 Z" /></g><g class="o"><path transform="translate(9,18)" class="S sfh" d="M1537 1161 L1304 928 L1316 928 L1549 1161 Z"/><path class="fh3" d="M1537 1161 L1304 928 L1316 928 L1549 1161 Z" /></g><g class="o"><path transform="translate(8,16)" class="S ssh" d="M1907 1335 L2084 1158 L2092 1158 L1915 1335 Z"/><path class="sh4" d="M1907 1335 L2084 1158 L2092 1158 L1915 1335 Z" /></g></g><use href="#slashes" transform-origin="1500 1500" transform="rotate(180) scale(2)"/></g><polyline points="1500,1010 1990,1500 1500,1990 1010,1500 1500,1010 1990,1500" stroke-width="160" class="o s1" /><use href="#slashes" transform-origin="1500 1500" transform="scale(1.3)"/><use href="#slashes" transform-origin="1500 1500" transform="rotate(180) scale(.7)"/></svg>