<svg xmlns="http://www.w3.org/2000/svg" viewBox="750 750 1500 1500"><style>/*<![CDATA[*/svg{background:rgb(188,231,132);max-width:100vw;max-height:100vh}path{stroke-width:4}.o{opacity:.75}.S{opacity:.4}.sf{stroke:none;fill:black}.sfh{stroke:none;fill:url(#hs)}.sfv{stroke:none;fill:url(#vs)}.ss{stroke:black;fill:none}.ssh{stroke:url(#hs);fill:none}.ssv{stroke:url(#vs);fill:none}.s1{fill:none;stroke:rgb(82,81,116)}.f1{stroke:none;fill:rgb(82,81,116)}.sh1{fill:none;stroke:url(#h1)}.fh1{stroke:none;fill:url(#h1)}.sv1{fill:none;stroke:url(#v1)}.fv1{stroke:none;fill:url(#v1)}.s2{fill:none;stroke:rgb(52,138,167)}.f2{stroke:none;fill:rgb(52,138,167)}.sh2{fill:none;stroke:url(#h2)}.fh2{stroke:none;fill:url(#h2)}.sv2{fill:none;stroke:url(#v2)}.fv2{stroke:none;fill:url(#v2)}.s3{fill:none;stroke:rgb(81,59,86)}.f3{stroke:none;fill:rgb(81,59,86)}.sh3{fill:none;stroke:url(#h3)}.fh3{stroke:none;fill:url(#h3)}.sv3{fill:none;stroke:url(#v3)}.fv3{stroke:none;fill:url(#v3)}.s4{fill:none;stroke:rgb(93,211,158)}.f4{stroke:none;fill:rgb(93,211,158)}.sh4{fill:none;stroke:url(#h4)}.fh4{stroke:none;fill:url(#h4)}.sv4{fill:none;stroke:url(#v4)}.fv4{stroke:none;fill:url(#v4)}.s5{fill:none;stroke:rgb(34,34,34)}.f5{stroke:none;fill:rgb(34,34,34)}.sh5{fill:none;stroke:url(#h5)}.fh5{stroke:none;fill:url(#h5)}.sv5{fill:none;stroke:url(#v5)}.fv5{stroke:none;fill:url(#v5)}.s6{fill:none;stroke:rgb(255,255,255)}.f6{stroke:none;fill:rgb(255,255,255)}.sh6{fill:none;stroke:url(#h6)}.fh6{stroke:none;fill:url(#h6)}.sv6{fill:none;stroke:url(#v6)}.fv6{stroke:none;fill:url(#v6)}.s7{fill:none;stroke:rgb(255,255,0)}.f7{stroke:none;fill:rgb(255,255,0)}.sh7{fill:none;stroke:url(#h7)}.fh7{stroke:none;fill:url(#h7)}.sv7{fill:none;stroke:url(#v7)}.fv7{stroke:none;fill:url(#v7)}/*]]>*/</style><defs><linearGradient gradientTransform="rotate(90)" id="hs"><stop offset="20%" stop-color="#000" /><stop offset="95%" stop-color="rgba(0, 0, 0, 0)" /></linearGradient><linearGradient id="vs"><stop offset="20%" stop-color="#000" /><stop offset="95%" stop-color="rgba(0, 0, 0, 0)" /></linearGradient><linearGradient gradientTransform="rotate(90)" id="h1"><stop offset="20%" stop-color="rgba(82,81,116,1)" /><stop offset="95%" stop-color="rgba(82,81,116,0)" /></linearGradient><linearGradient id="v1"><stop offset="20%" stop-color="rgba(82,81,116,1)" /><stop offset="95%" stop-color="rgba(82,81,116,0)" /></linearGradient><linearGradient gradientTransform="rotate(90)" id="h2"><stop offset="20%" stop-color="rgba(52,138,167,1)" /><stop offset="95%" stop-color="rgba(52,138,167,0)" /></linearGradient><linearGradient id="v2"><stop offset="20%" stop-color="rgba(52,138,167,1)" /><stop offset="95%" stop-color="rgba(52,138,167,0)" /></linearGradient><linearGradient gradientTransform="rotate(90)" id="h3"><stop offset="20%" stop-color="rgba(81,59,86,1)" /><stop offset="95%" stop-color="rgba(81,59,86,0)" /></linearGradient><linearGradient id="v3"><stop offset="20%" stop-color="rgba(81,59,86,1)" /><stop offset="95%" stop-color="rgba(81,59,86,0)" /></linearGradient><linearGradient gradientTransform="rotate(90)" id="h4"><stop offset="20%" stop-color="rgba(93,211,158,1)" /><stop offset="95%" stop-color="rgba(93,211,158,0)" /></linearGradient><linearGradient id="v4"><stop offset="20%" stop-color="rgba(93,211,158,1)" /><stop offset="95%" stop-color="rgba(93,211,158,0)" /></linearGradient><linearGradient gradientTransform="rotate(90)" id="h5"><stop offset="20%" stop-color="rgba(34,34,34,1)" /><stop offset="95%" stop-color="rgba(34,34,34,0)" /></linearGradient><linearGradient id="v5"><stop offset="20%" stop-color="rgba(34,34,34,1)" /><stop offset="95%" stop-color="rgba(34,34,34,0)" /></linearGradient><linearGradient gradientTransform="rotate(90)" id="h6"><stop offset="20%" stop-color="rgba(255,255,255,1)" /><stop offset="95%" stop-color="rgba(255,255,255,0)" /></linearGradient><linearGradient id="v6"><stop offset="20%" stop-color="rgba(255,255,255,1)" /><stop offset="95%" stop-color="rgba(255,255,255,0)" /></linearGradient><linearGradient gradientTransform="rotate(90)" id="h7"><stop offset="20%" stop-color="rgba(255,255,0,1)" /><stop offset="95%" stop-color="rgba(255,255,0,0)" /></linearGradient><linearGradient id="v7"><stop offset="20%" stop-color="rgba(255,255,0,1)" /><stop offset="95%" stop-color="rgba(255,255,0,0)" /></linearGradient></defs><g transform-origin="1500 1500" transform="scale(2)" opacity=".6"><g id="slashes"><g class="o"><path transform="translate(7,14)" class="S sfh" d="M1476 1242 L1541 1177 L1561 1177 L1496 1242 Z"/><path class="fh5" d="M1476 1242 L1541 1177 L1561 1177 L1496 1242 Z" /></g><g class="o"><path transform="translate(6,12)" class="S sf" d="M1443 1997 L1651 1789 L1671 1789 L1463 1997 Z"/><path class="f3" d="M1443 1997 L1651 1789 L1671 1789 L1463 1997 Z" /></g><g class="o"><path transform="translate(4,8)" class="S ssv" d="M1887 947 L1953 881 L1953 891 L1887 957 Z"/><path class="sv4" d="M1887 947 L1953 881 L1953 891 L1887 957 Z" /></g><g class="o"><path transform="translate(5,10)" class="S sf" d="M1369 1481 L1513 1337 L1539 1337 L1395 1481 Z"/><path class="f7" d="M1369 1481 L1513 1337 L1539 1337 L1395 1481 Z" /></g><g class="o"><path transform="translate(7,14)" class="S sf" d="M1640 2010 L1729 1921 L1745 1921 L1656 2010 Z"/><path class="f3" d="M1640 2010 L1729 1921 L1745 1921 L1656 2010 Z" /></g><g class="o"><path transform="translate(9,18)" class="S sfh" d="M1278 1271 L1472 1077 L1496 1077 L1302 1271 Z"/><path class="fh6" d="M1278 1271 L1472 1077 L1496 1077 L1302 1271 Z" /></g><g class="o"><path transform="translate(4,8)" class="S sfv" d="M1093 1753 L1241 1605 L1241 1637 L1093 1785 Z"/><path class="fv7" d="M1093 1753 L1241 1605 L1241 1637 L1093 1785 Z" /></g><g class="o"><path transform="translate(5,10)" class="S sfh" d="M1129 1459 L1367 1221 L1393 1221 L1155 1459 Z"/><path class="fh2" d="M1129 1459 L1367 1221 L1393 1221 L1155 1459 Z" /></g><g class="o"><path transform="translate(8,16)" class="S ssh" d="M1053 1490 L1290 1253 L1318 1253 L1081 1490 Z"/><path class="sh2" d="M1053 1490 L1290 1253 L1318 1253 L1081 1490 Z" /></g><g class="o"><path transform="translate(2,4)" class="S sfh" d="M987 1497 L1106 1378 L1136 1378 L1017 1497 Z"/><path class="fh5" d="M987 1497 L1106 1378 L1136 1378 L1017 1497 Z" /></g><g class="o"><path transform="translate(8,16)" class="S sfv" d="M1815 1432 L1948 1299 L1948 1325 L1815 1458 Z"/><path class="fv4" d="M1815 1432 L1948 1299 L1948 1325 L1815 1458 Z" /></g><g class="o"><path transform="translate(3,6)" class="S sfv" d="M1648 959 L1852 755 L1852 781 L1648 985 Z"/><path class="fv5" d="M1648 959 L1852 755 L1852 781 L1648 985 Z" /></g><g class="o"><path transform="translate(7,14)" class="S sf" d="M2018 1918 L2131 1805 L2131 1815 L2018 1928 Z"/><path class="f7" d="M2018 1918 L2131 1805 L2131 1815 L2018 1928 Z" /></g><g class="o"><path transform="translate(8,16)" class="S sfh" d="M972 1242 L1024 1190 L1054 1190 L1002 1242 Z"/><path class="fh4" d="M972 1242 L1024 1190 L1054 1190 L1002 1242 Z" /></g><g class="o"><path transform="translate(2,4)" class="S sfv" d="M1992 1876 L2054 1814 L2054 1822 L1992 1884 Z"/><path class="fv3" d="M1992 1876 L2054 1814 L2054 1822 L1992 1884 Z" /></g><g class="o"><path transform="translate(2,4)" class="S sfh" d="M1554 1872 L2103 1323 L2139 1323 L1590 1872 Z"/><path class="fh7" d="M1554 1872 L2103 1323 L2139 1323 L1590 1872 Z" /></g><g class="o"><path transform="translate(5,10)" class="S sf" d="M1999 1878 L2206 1671 L2244 1671 L2037 1878 Z"/><path class="f3" d="M1999 1878 L2206 1671 L2244 1671 L2037 1878 Z" /></g><g class="o"><path transform="translate(8,16)" class="S sf" d="M1819 1771 L1921 1669 L1921 1705 L1819 1807 Z"/><path class="f6" d="M1819 1771 L1921 1669 L1921 1705 L1819 1807 Z" /></g><g class="o"><path transform="translate(6,12)" class="S ssv" d="M1087 1157 L1195 1049 L1195 1073 L1087 1181 Z"/><path class="sv2" d="M1087 1157 L1195 1049 L1195 1073 L1087 1181 Z" /></g><g class="o"><path transform="translate(4,8)" class="S sfh" d="M1742 1486 L1795 1433 L1811 1433 L1758 1486 Z"/><path class="fh7" d="M1742 1486 L1795 1433 L1811 1433 L1758 1486 Z" /></g><g class="o"><path transform="translate(8,16)" class="S ssh" d="M1911 1830 L2088 1653 L2168 1653 L1991 1830 Z"/><path class="sh6" d="M1911 1830 L2088 1653 L2168 1653 L1991 1830 Z" /></g><g class="o"><path transform="translate(5,10)" class="S sfv" d="M1080 1709 L1267 1522 L1267 1534 L1080 1721 Z"/><path class="fv4" d="M1080 1709 L1267 1522 L1267 1534 L1080 1721 Z" /></g><g class="o"><path transform="translate(7,14)" class="S ssh" d="M1323 1710 L1502 1531 L1534 1531 L1355 1710 Z"/><path class="sh2" d="M1323 1710 L1502 1531 L1534 1531 L1355 1710 Z" /></g><g class="o"><path transform="translate(4,8)" class="S ssv" d="M1157 1778 L1302 1633 L1302 1663 L1157 1808 Z"/><path class="sv3" d="M1157 1778 L1302 1633 L1302 1663 L1157 1808 Z" /></g><g class="o"><path transform="translate(7,14)" class="S sfh" d="M1423 953 L1595 781 L1631 781 L1459 953 Z"/><path class="fh2" d="M1423 953 L1595 781 L1631 781 L1459 953 Z" /></g><g class="o"><path transform="translate(3,6)" class="S sfv" d="M1088 1154 L1634 608 L1634 626 L1088 1172 Z"/><path class="fv3" d="M1088 1154 L1634 608 L1634 626 L1088 1172 Z" /></g><g class="o"><path transform="translate(5,10)" class="S ssv" d="M1314 1620 L1498 1436 L1498 1474 L1314 1658 Z"/><path class="sv6" d="M1314 1620 L1498 1436 L1498 1474 L1314 1658 Z" /></g><g class="o"><path transform="translate(8,16)" class="S sfh" d="M1092 1823 L1797 1118 L1829 1118 L1124 1823 Z"/><path class="fh1" d="M1092 1823 L1797 1118 L1829 1118 L1124 1823 Z" /></g><g class="o"><path transform="translate(7,14)" class="S sfh" d="M2007 1443 L2150 1300 L2188 1300 L2045 1443 Z"/><path class="fh6" d="M2007 1443 L2150 1300 L2188 1300 L2045 1443 Z" /></g><g class="o"><path transform="translate(5,10)" class="S ssh" d="M2013 1757 L2071 1699 L2107 1699 L2049 1757 Z"/><path class="sh7" d="M2013 1757 L2071 1699 L2107 1699 L2049 1757 Z" /></g><g class="o"><path transform="translate(9,18)" class="S ss" d="M2042 1361 L2220 1183 L2220 1221 L2042 1399 Z"/><path class="s4" d="M2042 1361 L2220 1183 L2220 1221 L2042 1399 Z" /></g><g class="o"><path transform="translate(7,14)" class="S sfh" d="M1595 1757 L1723 1629 L1751 1629 L1623 1757 Z"/><path class="fh1" d="M1595 1757 L1723 1629 L1751 1629 L1623 1757 Z" /></g><g class="o"><path transform="translate(4,8)" class="S sfh" d="M1901 1277 L2114 1064 L2134 1064 L1921 1277 Z"/><path class="fh7" d="M1901 1277 L2114 1064 L2134 1064 L1921 1277 Z" /></g><g class="o"><path transform="translate(9,18)" class="S ssh" d="M1042 1862 L1107 1797 L1117 1797 L1052 1862 Z"/><path class="sh7" d="M1042 1862 L1107 1797 L1117 1797 L1052 1862 Z" /></g><g class="o"><path transform="translate(8,16)" class="S sfh" d="M1319 1909 L1586 1642 L1596 1642 L1329 1909 Z"/><path class="fh3" d="M1319 1909 L1586 1642 L1596 1642 L1329 1909 Z" /></g><g class="o"><path transform="translate(9,18)" class="S sf" d="M1168 1061 L1303 926 L1303 1046 L1168 1181 Z"/><path class="f4" d="M1168 1061 L1303 926 L1303 1046 L1168 1181 Z" /></g><g class="o"><path transform="translate(8,16)" class="S sfh" d="M1625 1536 L1811 1350 L1837 1350 L1651 1536 Z"/><path class="fh4" d="M1625 1536 L1811 1350 L1837 1350 L1651 1536 Z" /></g><g class="o"><path transform="translate(2,4)" class="S ssv" d="M954 1935 L1145 1744 L1145 1768 L954 1959 Z"/><path class="sv3" d="M954 1935 L1145 1744 L1145 1768 L954 1959 Z" /></g><g class="o"><path transform="translate(4,8)" class="S sfv" d="M1708 1281 L1860 1129 L1860 1163 L1708 1315 Z"/><path class="fv7" d="M1708 1281 L1860 1129 L1860 1163 L1708 1315 Z" /></g><g class="o"><path transform="translate(8,16)" class="S ssv" d="M1021 1872 L1178 1715 L1178 1741 L1021 1898 Z"/><path class="sv4" d="M1021 1872 L1178 1715 L1178 1741 L1021 1898 Z" /></g><g class="o"><path transform="translate(9,18)" class="S sfh" d="M1091 1417 L1228 1280 L1264 1280 L1127 1417 Z"/><path class="fh4" d="M1091 1417 L1228 1280 L1264 1280 L1127 1417 Z" /></g><g class="o"><path transform="translate(8,16)" class="S sfh" d="M1643 1579 L1855 1367 L1877 1367 L1665 1579 Z"/><path class="fh7" d="M1643 1579 L1855 1367 L1877 1367 L1665 1579 Z" /></g><g class="o"><path transform="translate(9,18)" class="S ssv" d="M1551 1630 L1706 1475 L1706 1571 L1551 1726 Z"/><path class="sv7" d="M1551 1630 L1706 1475 L1706 1571 L1551 1726 Z" /></g><g class="o"><path transform="translate(3,6)" class="S sfh" d="M1223 1818 L1748 1293 L1780 1293 L1255 1818 Z"/><path class="fh1" d="M1223 1818 L1748 1293 L1780 1293 L1255 1818 Z" /></g><g class="o"><path transform="translate(8,16)" class="S sfv" d="M2037 1654 L2162 1529 L2162 1549 L2037 1674 Z"/><path class="fv6" d="M2037 1654 L2162 1529 L2162 1549 L2037 1674 Z" /></g><g class="o"><path transform="translate(8,16)" class="S sfv" d="M1028 1320 L1574 774 L1574 810 L1028 1356 Z"/><path class="fv1" d="M1028 1320 L1574 774 L1574 810 L1028 1356 Z" /></g><g class="o"><path transform="translate(8,16)" class="S sf" d="M1591 2021 L1811 1801 L1845 1801 L1625 2021 Z"/><path class="f1" d="M1591 2021 L1811 1801 L1845 1801 L1625 2021 Z" /></g><g class="o"><path transform="translate(6,12)" class="S ssh" d="M1292 1994 L1538 1748 L1576 1748 L1330 1994 Z"/><path class="sh5" d="M1292 1994 L1538 1748 L1576 1748 L1330 1994 Z" /></g><g class="o"><path transform="translate(6,12)" class="S sf" d="M1833 1265 L2015 1083 L2015 1095 L1833 1277 Z"/><path class="f4" d="M1833 1265 L2015 1083 L2015 1095 L1833 1277 Z" /></g><g class="o"><path transform="translate(3,6)" class="S sfh" d="M1812 1936 L1962 1786 L1990 1786 L1840 1936 Z"/><path class="fh6" d="M1812 1936 L1962 1786 L1990 1786 L1840 1936 Z" /></g><g class="o"><path transform="translate(8,16)" class="S sfh" d="M1300 973 L1423 850 L1461 850 L1338 973 Z"/><path class="fh6" d="M1300 973 L1423 850 L1461 850 L1338 973 Z" /></g><g class="o"><path transform="translate(9,18)" class="S ssv" d="M1508 1981 L1610 1879 L1610 1895 L1508 1997 Z"/><path class="sv5" d="M1508 1981 L1610 1879 L1610 1895 L1508 1997 Z" /></g><g class="o"><path transform="translate(3,6)" class="S sfv" d="M1215 1946 L1304 1857 L1304 1883 L1215 1972 Z"/><path class="fv3" d="M1215 1946 L1304 1857 L1304 1883 L1215 1972 Z" /></g><g class="o"><path transform="translate(5,10)" class="S sfv" d="M1880 1904 L1969 1815 L1969 1943 L1880 2032 Z"/><path class="fv6" d="M1880 1904 L1969 1815 L1969 1943 L1880 2032 Z" /></g><g class="o"><path transform="translate(3,6)" class="S sfv" d="M989 1832 L1154 1667 L1154 1705 L989 1870 Z"/><path class="fv5" d="M989 1832 L1154 1667 L1154 1705 L989 1870 Z" /></g><g class="o"><path transform="translate(7,14)" class="S sfv" d="M1420 1753 L1635 1538 L1635 1574 L1420 1789 Z"/><path class="fv2" d="M1420 1753 L1635 1538 L1635 1574 L1420 1789 Z" /></g><g class="o"><path transform="translate(3,6)" class="S sfv" d="M1808 1490 L2014 1284 L2014 1308 L1808 1514 Z"/><path class="fv3" d="M1808 1490 L2014 1284 L2014 1308 L1808 1514 Z" /></g><g class="o"><path transform="translate(8,16)" class="S sfv" d="M1264 1014 L1885 393 L1885 403 L1264 1024 Z"/><path class="fv6" d="M1264 1014 L1885 393 L1885 403 L1264 1024 Z" /></g><g class="o"><path transform="translate(3,6)" class="S sf" d="M1690 1537 L2119 1108 L2155 1108 L1726 1537 Z"/><path class="f6" d="M1690 1537 L2119 1108 L2155 1108 L1726 1537 Z" /></g><g class="o"><path transform="translate(3,6)" class="S sf" d="M1992 1758 L2550 1200 L2566 1200 L2008 1758 Z"/><path class="f7" d="M1992 1758 L2550 1200 L2566 1200 L2008 1758 Z" /></g><g class="o"><path transform="translate(7,14)" class="S sf" d="M1241 1847 L1386 1702 L1386 1740 L1241 1885 Z"/><path class="f7" d="M1241 1847 L1386 1702 L1386 1740 L1241 1885 Z" /></g><g class="o"><path transform="translate(6,12)" class="S sf" d="M1194 1526 L1360 1360 L1360 1408 L1194 1574 Z"/><path class="f1" d="M1194 1526 L1360 1360 L1360 1408 L1194 1574 Z" /></g><g class="o"><path transform="translate(6,12)" class="S sfh" d="M1068 1608 L1166 1510 L1186 1510 L1088 1608 Z"/><path class="fh3" d="M1068 1608 L1166 1510 L1186 1510 L1088 1608 Z" /></g><g class="o"><path transform="translate(4,8)" class="S sfv" d="M1535 1941 L2192 1284 L2192 1306 L1535 1963 Z"/><path class="fv5" d="M1535 1941 L2192 1284 L2192 1306 L1535 1963 Z" /></g><g class="o"><path transform="translate(9,18)" class="S sfh" d="M1811 1788 L2039 1560 L2055 1560 L1827 1788 Z"/><path class="fh6" d="M1811 1788 L2039 1560 L2055 1560 L1827 1788 Z" /></g><g class="o"><path transform="translate(5,10)" class="S sfh" d="M1661 1235 L2408 488 L2440 488 L1693 1235 Z"/><path class="fh4" d="M1661 1235 L2408 488 L2440 488 L1693 1235 Z" /></g><g class="o"><path transform="translate(6,12)" class="S sfh" d="M1822 1809 L1961 1670 L1979 1670 L1840 1809 Z"/><path class="fh5" d="M1822 1809 L1961 1670 L1979 1670 L1840 1809 Z" /></g><g class="o"><path transform="translate(8,16)" class="S sf" d="M1978 1695 L2066 1607 L2076 1607 L1988 1695 Z"/><path class="f2" d="M1978 1695 L2066 1607 L2076 1607 L1988 1695 Z" /></g><g class="o"><path transform="translate(7,14)" class="S sfh" d="M996 1502 L1228 1270 L1244 1270 L1012 1502 Z"/><path class="fh4" d="M996 1502 L1228 1270 L1244 1270 L1012 1502 Z" /></g><g class="o"><path transform="translate(9,18)" class="S ssv" d="M1420 1452 L2158 714 L2158 746 L1420 1484 Z"/><path class="sv3" d="M1420 1452 L2158 714 L2158 746 L1420 1484 Z" /></g><g class="o"><path transform="translate(8,16)" class="S sfh" d="M1956 1548 L2204 1300 L2218 1300 L1970 1548 Z"/><path class="fh1" d="M1956 1548 L2204 1300 L2218 1300 L1970 1548 Z" /></g><g class="o"><path transform="translate(2,4)" class="S sfh" d="M1089 973 L1716 346 L1754 346 L1127 973 Z"/><path class="fh3" d="M1089 973 L1716 346 L1754 346 L1127 973 Z" /></g><g class="o"><path transform="translate(9,18)" class="S ssv" d="M1657 1051 L1714 994 L1714 1010 L1657 1067 Z"/><path class="sv5" d="M1657 1051 L1714 994 L1714 1010 L1657 1067 Z" /></g><g class="o"><path transform="translate(2,4)" class="S sf" d="M1284 1113 L1392 1005 L1392 1025 L1284 1133 Z"/><path class="f5" d="M1284 1113 L1392 1005 L1392 1025 L1284 1133 Z" /></g><g class="o"><path transform="translate(3,6)" class="S sfh" d="M1436 1761 L1626 1571 L1664 1571 L1474 1761 Z"/><path class="fh2" d="M1436 1761 L1626 1571 L1664 1571 L1474 1761 Z" /></g><g class="o"><path transform="translate(4,8)" class="S ssh" d="M1651 1644 L1878 1417 L1908 1417 L1681 1644 Z"/><path class="sh3" d="M1651 1644 L1878 1417 L1908 1417 L1681 1644 Z" /></g><g class="o"><path transform="translate(2,4)" class="S sfh" d="M1117 2033 L1271 1879 L1295 1879 L1141 2033 Z"/><path class="fh5" d="M1117 2033 L1271 1879 L1295 1879 L1141 2033 Z" /></g><g class="o"><path transform="translate(2,4)" class="S sfh" d="M1264 1043 L1798 509 L1810 509 L1276 1043 Z"/><path class="fh1" d="M1264 1043 L1798 509 L1810 509 L1276 1043 Z" /></g><g class="o"><path transform="translate(7,14)" class="S sfh" d="M1610 1576 L1692 1494 L1722 1494 L1640 1576 Z"/><path class="fh1" d="M1610 1576 L1692 1494 L1722 1494 L1640 1576 Z" /></g><g class="o"><path transform="translate(4,8)" class="S sfh" d="M1386 1407 L1577 1216 L1609 1216 L1418 1407 Z"/><path class="fh1" d="M1386 1407 L1577 1216 L1609 1216 L1418 1407 Z" /></g><g class="o"><path transform="translate(5,10)" class="S sf" d="M1589 2000 L1815 1774 L1851 1774 L1625 2000 Z"/><path class="f1" d="M1589 2000 L1815 1774 L1851 1774 L1625 2000 Z" /></g><g class="o"><path transform="translate(4,8)" class="S sfv" d="M1581 1088 L1664 1005 L1664 1021 L1581 1104 Z"/><path class="fv3" d="M1581 1088 L1664 1005 L1664 1021 L1581 1104 Z" /></g><g class="o"><path transform="translate(9,18)" class="S sfh" d="M1145 1605 L1246 1504 L1254 1504 L1153 1605 Z"/><path class="fh3" d="M1145 1605 L1246 1504 L1254 1504 L1153 1605 Z" /></g><g class="o"><path transform="translate(3,6)" class="S sf" d="M1331 1715 L1539 1507 L1539 1525 L1331 1733 Z"/><path class="f7" d="M1331 1715 L1539 1507 L1539 1525 L1331 1733 Z" /></g><g class="o"><path transform="translate(3,6)" class="S sfv" d="M1362 1183 L1527 1018 L1527 1114 L1362 1279 Z"/><path class="fv7" d="M1362 1183 L1527 1018 L1527 1114 L1362 1279 Z" /></g><g class="o"><path transform="translate(9,18)" class="S sfh" d="M1461 1934 L1557 1838 L1585 1838 L1489 1934 Z"/><path class="fh4" d="M1461 1934 L1557 1838 L1585 1838 L1489 1934 Z" /></g><g class="o"><path transform="translate(6,12)" class="S sfv" d="M1870 1484 L2593 761 L2593 787 L1870 1510 Z"/><path class="fv5" d="M1870 1484 L2593 761 L2593 787 L1870 1510 Z" /></g><g class="o"><path transform="translate(9,18)" class="S ssh" d="M1348 1507 L1843 1012 L1907 1012 L1412 1507 Z"/><path class="sh4" d="M1348 1507 L1843 1012 L1907 1012 L1412 1507 Z" /></g><g class="o"><path transform="translate(9,18)" class="S sfv" d="M1257 1628 L1349 1536 L1349 1552 L1257 1644 Z"/><path class="fv2" d="M1257 1628 L1349 1536 L1349 1552 L1257 1644 Z" /></g><g class="o"><path transform="translate(2,4)" class="S sfh" d="M1866 1717 L2036 1547 L2066 1547 L1896 1717 Z"/><path class="fh4" d="M1866 1717 L2036 1547 L2066 1547 L1896 1717 Z" /></g><g class="o"><path transform="translate(8,16)" class="S sfh" d="M1555 1952 L2140 1367 L2162 1367 L1577 1952 Z"/><path class="fh3" d="M1555 1952 L2140 1367 L2162 1367 L1577 1952 Z" /></g><g class="o"><path transform="translate(3,6)" class="S ssv" d="M1953 1469 L2160 1262 L2160 1298 L1953 1505 Z"/><path class="sv1" d="M1953 1469 L2160 1262 L2160 1298 L1953 1505 Z" /></g><g class="o"><path transform="translate(8,16)" class="S sfv" d="M1945 1560 L2106 1399 L2106 1435 L1945 1596 Z"/><path class="fv4" d="M1945 1560 L2106 1399 L2106 1435 L1945 1596 Z" /></g><g class="o"><path transform="translate(9,18)" class="S sf" d="M1341 1856 L1468 1729 L1492 1729 L1365 1856 Z"/><path class="f6" d="M1341 1856 L1468 1729 L1492 1729 L1365 1856 Z" /></g><g class="o"><path transform="translate(4,8)" class="S sfh" d="M1482 1665 L2112 1035 L2140 1035 L1510 1665 Z"/><path class="fh1" d="M1482 1665 L2112 1035 L2140 1035 L1510 1665 Z" /></g><g class="o"><path transform="translate(7,14)" class="S sf" d="M1977 1325 L2117 1185 L2149 1185 L2009 1325 Z"/><path class="f4" d="M1977 1325 L2117 1185 L2149 1185 L2009 1325 Z" /></g><g class="o"><path transform="translate(3,6)" class="S sfv" d="M1530 1279 L1639 1170 L1639 1190 L1530 1299 Z"/><path class="fv1" d="M1530 1279 L1639 1170 L1639 1190 L1530 1299 Z" /></g><g class="o"><path transform="translate(8,16)" class="S sf" d="M1682 1997 L1901 1778 L1915 1778 L1696 1997 Z"/><path class="f6" d="M1682 1997 L1901 1778 L1915 1778 L1696 1997 Z" /></g><g class="o"><path transform="translate(8,16)" class="S ssh" d="M1526 1144 L1669 1001 L1701 1001 L1558 1144 Z"/><path class="sh5" d="M1526 1144 L1669 1001 L1701 1001 L1558 1144 Z" /></g><g class="o"><path transform="translate(8,16)" class="S sfh" d="M1439 1525 L1521 1443 L1609 1443 L1527 1525 Z"/><path class="fh2" d="M1439 1525 L1521 1443 L1609 1443 L1527 1525 Z" /></g><g class="o"><path transform="translate(7,14)" class="S sfh" d="M1197 1230 L1432 995 L1456 995 L1221 1230 Z"/><path class="fh3" d="M1197 1230 L1432 995 L1456 995 L1221 1230 Z" /></g><g class="o"><path transform="translate(6,12)" class="S sfv" d="M1412 1713 L1593 1532 L1593 1542 L1412 1723 Z"/><path class="fv3" d="M1412 1713 L1593 1532 L1593 1542 L1412 1723 Z" /></g><g class="o"><path transform="translate(5,10)" class="S sfv" d="M2027 1294 L2235 1086 L2235 1114 L2027 1322 Z"/><path class="fv6" d="M2027 1294 L2235 1086 L2235 1114 L2027 1322 Z" /></g><g class="o"><path transform="translate(9,18)" class="S sfh" d="M1172 1352 L1246 1278 L1254 1278 L1180 1352 Z"/><path class="fh6" d="M1172 1352 L1246 1278 L1254 1278 L1180 1352 Z" /></g><g class="o"><path transform="translate(3,6)" class="S ssh" d="M1205 1802 L1368 1639 L1380 1639 L1217 1802 Z"/><path class="sh4" d="M1205 1802 L1368 1639 L1380 1639 L1217 1802 Z" /></g><g class="o"><path transform="translate(5,10)" class="S sfv" d="M1852 1078 L2025 905 L2025 927 L1852 1100 Z"/><path class="fv2" d="M1852 1078 L2025 905 L2025 927 L1852 1100 Z" /></g><g class="o"><path transform="translate(9,18)" class="S sfh" d="M1739 1273 L1858 1154 L1878 1154 L1759 1273 Z"/><path class="fh6" d="M1739 1273 L1858 1154 L1878 1154 L1759 1273 Z" /></g><g class="o"><path transform="translate(2,4)" class="S ssv" d="M1254 1908 L1307 1855 L1307 1887 L1254 1940 Z"/><path class="sv6" d="M1254 1908 L1307 1855 L1307 1887 L1254 1940 Z" /></g><g class="o"><path transform="translate(2,4)" class="S sfh" d="M1714 1282 L1892 1104 L1902 1104 L1724 1282 Z"/><path class="fh5" d="M1714 1282 L1892 1104 L1902 1104 L1724 1282 Z" /></g><g class="o"><path transform="translate(2,4)" class="S sf" d="M1472 1445 L2132 785 L2160 785 L1500 1445 Z"/><path class="f6" d="M1472 1445 L2132 785 L2160 785 L1500 1445 Z" /></g><g class="o"><path transform="translate(8,16)" class="S ss" d="M988 2038 L1327 1699 L1327 1719 L988 2058 Z"/><path class="s1" d="M988 2038 L1327 1699 L1327 1719 L988 2058 Z" /></g><g class="o"><path transform="translate(9,18)" class="S sfh" d="M1837 1930 L2194 1573 L2218 1573 L1861 1930 Z"/><path class="fh4" d="M1837 1930 L2194 1573 L2218 1573 L1861 1930 Z" /></g><g class="o"><path transform="translate(5,10)" class="S ssh" d="M1751 1306 L1953 1104 L1989 1104 L1787 1306 Z"/><path class="sh4" d="M1751 1306 L1953 1104 L1989 1104 L1787 1306 Z" /></g><g class="o"><path transform="translate(9,18)" class="S sfh" d="M1629 1340 L1805 1164 L1825 1164 L1649 1340 Z"/><path class="fh5" d="M1629 1340 L1805 1164 L1825 1164 L1649 1340 Z" /></g><g class="o"><path transform="translate(4,8)" class="S ssh" d="M1124 2011 L1358 1777 L1396 1777 L1162 2011 Z"/><path class="sh7" d="M1124 2011 L1358 1777 L1396 1777 L1162 2011 Z" /></g><g class="o"><path transform="translate(3,6)" class="S sfv" d="M1893 1463 L1991 1365 L1991 1387 L1893 1485 Z"/><path class="fv6" d="M1893 1463 L1991 1365 L1991 1387 L1893 1485 Z" /></g><g class="o"><path transform="translate(9,18)" class="S sfh" d="M2014 1095 L2416 693 L2444 693 L2042 1095 Z"/><path class="fh7" d="M2014 1095 L2416 693 L2444 693 L2042 1095 Z" /></g><g class="o"><path transform="translate(6,12)" class="S sfv" d="M1374 1460 L1432 1402 L1432 1430 L1374 1488 Z"/><path class="fv6" d="M1374 1460 L1432 1402 L1432 1430 L1374 1488 Z" /></g><g class="o"><path transform="translate(9,18)" class="S sfv" d="M1895 1133 L1961 1067 L1961 1077 L1895 1143 Z"/><path class="fv2" d="M1895 1133 L1961 1067 L1961 1077 L1895 1143 Z" /></g><g class="o"><path transform="translate(2,4)" class="S ssv" d="M1501 1699 L1558 1642 L1558 1664 L1501 1721 Z"/><path class="sv4" d="M1501 1699 L1558 1642 L1558 1664 L1501 1721 Z" /></g><g class="o"><path transform="translate(8,16)" class="S sf" d="M1087 1571 L1326 1332 L1326 1350 L1087 1589 Z"/><path class="f4" d="M1087 1571 L1326 1332 L1326 1350 L1087 1589 Z" /></g><g class="o"><path transform="translate(3,6)" class="S sfh" d="M1120 1032 L1507 645 L1535 645 L1148 1032 Z"/><path class="fh4" d="M1120 1032 L1507 645 L1535 645 L1148 1032 Z" /></g><g class="o"><path transform="translate(8,16)" class="S sfv" d="M1361 1066 L1483 944 L1483 982 L1361 1104 Z"/><path class="fv5" d="M1361 1066 L1483 944 L1483 982 L1361 1104 Z" /></g><g class="o"><path transform="translate(4,8)" class="S ssv" d="M1670 1221 L1901 990 L1901 1010 L1670 1241 Z"/><path class="sv5" d="M1670 1221 L1901 990 L1901 1010 L1670 1241 Z" /></g><g class="o"><path transform="translate(7,14)" class="S ssv" d="M1688 1140 L1911 917 L1911 949 L1688 1172 Z"/><path class="sv1" d="M1688 1140 L1911 917 L1911 949 L1688 1172 Z" /></g><g class="o"><path transform="translate(3,6)" class="S sfh" d="M1716 1475 L1912 1279 L1948 1279 L1752 1475 Z"/><path class="fh4" d="M1716 1475 L1912 1279 L1948 1279 L1752 1475 Z" /></g><g class="o"><path transform="translate(2,4)" class="S sfh" d="M1932 2015 L2111 1836 L2129 1836 L1950 2015 Z"/><path class="fh5" d="M1932 2015 L2111 1836 L2129 1836 L1950 2015 Z" /></g><g class="o"><path transform="translate(2,4)" class="S sfh" d="M1367 1627 L1853 1141 L1867 1141 L1381 1627 Z"/><path class="fh5" d="M1367 1627 L1853 1141 L1867 1141 L1381 1627 Z" /></g><g class="o"><path transform="translate(5,10)" class="S sfv" d="M1200 1755 L1421 1534 L1421 1542 L1200 1763 Z"/><path class="fv1" d="M1200 1755 L1421 1534 L1421 1542 L1200 1763 Z" /></g><g class="o"><path transform="translate(7,14)" class="S sfh" d="M1812 1913 L1979 1746 L2035 1746 L1868 1913 Z"/><path class="fh4" d="M1812 1913 L1979 1746 L2035 1746 L1868 1913 Z" /></g><g class="o"><path transform="translate(4,8)" class="S sfh" d="M1533 1157 L1812 878 L1840 878 L1561 1157 Z"/><path class="fh3" d="M1533 1157 L1812 878 L1840 878 L1561 1157 Z" /></g><g class="o"><path transform="translate(9,18)" class="S sfh" d="M1043 1913 L1142 1814 L1190 1814 L1091 1913 Z"/><path class="fh7" d="M1043 1913 L1142 1814 L1190 1814 L1091 1913 Z" /></g><g class="o"><path transform="translate(7,14)" class="S sfv" d="M1020 1090 L1749 361 L1749 409 L1020 1138 Z"/><path class="fv1" d="M1020 1090 L1749 361 L1749 409 L1020 1138 Z" /></g><g class="o"><path transform="translate(3,6)" class="S ssh" d="M1325 1768 L1406 1687 L1444 1687 L1363 1768 Z"/><path class="sh7" d="M1325 1768 L1406 1687 L1444 1687 L1363 1768 Z" /></g><g class="o"><path transform="translate(9,18)" class="S sfv" d="M1380 1592 L1495 1477 L1495 1515 L1380 1630 Z"/><path class="fv7" d="M1380 1592 L1495 1477 L1495 1515 L1380 1630 Z" /></g><g class="o"><path transform="translate(7,14)" class="S sfv" d="M1172 1449 L1336 1285 L1336 1301 L1172 1465 Z"/><path class="fv3" d="M1172 1449 L1336 1285 L1336 1301 L1172 1465 Z" /></g><g class="o"><path transform="translate(6,12)" class="S sfv" d="M1936 970 L2037 869 L2037 907 L1936 1008 Z"/><path class="fv4" d="M1936 970 L2037 869 L2037 907 L1936 1008 Z" /></g><g class="o"><path transform="translate(3,6)" class="S sfh" d="M1772 1452 L2399 825 L2409 825 L1782 1452 Z"/><path class="fh4" d="M1772 1452 L2399 825 L2409 825 L1782 1452 Z" /></g><g class="o"><path transform="translate(2,4)" class="S sfh" d="M1028 983 L1261 750 L1273 750 L1040 983 Z"/><path class="fh4" d="M1028 983 L1261 750 L1273 750 L1040 983 Z" /></g><g class="o"><path transform="translate(4,8)" class="S sfv" d="M1903 1852 L2094 1661 L2094 1741 L1903 1932 Z"/><path class="fv7" d="M1903 1852 L2094 1661 L2094 1741 L1903 1932 Z" /></g><g class="o"><path transform="translate(6,12)" class="S sfv" d="M1369 1269 L1594 1044 L1594 1072 L1369 1297 Z"/><path class="fv2" d="M1369 1269 L1594 1044 L1594 1072 L1369 1297 Z" /></g><g class="o"><path transform="translate(2,4)" class="S sf" d="M978 1142 L1629 491 L1629 503 L978 1154 Z"/><path class="f6" d="M978 1142 L1629 491 L1629 503 L978 1154 Z" /></g><g class="o"><path transform="translate(4,8)" class="S sfh" d="M991 1071 L1450 612 L1478 612 L1019 1071 Z"/><path class="fh5" d="M991 1071 L1450 612 L1478 612 L1019 1071 Z" /></g><g class="o"><path transform="translate(7,14)" class="S ssh" d="M1516 1179 L2134 561 L2170 561 L1552 1179 Z"/><path class="sh5" d="M1516 1179 L2134 561 L2170 561 L1552 1179 Z" /></g><g class="o"><path transform="translate(9,18)" class="S sfv" d="M1534 1631 L1915 1250 L1915 1276 L1534 1657 Z"/><path class="fv6" d="M1534 1631 L1915 1250 L1915 1276 L1534 1657 Z" /></g><g class="o"><path transform="translate(4,8)" class="S sf" d="M1077 1842 L1141 1778 L1179 1778 L1115 1842 Z"/><path class="f3" d="M1077 1842 L1141 1778 L1179 1778 L1115 1842 Z" /></g><g class="o"><path transform="translate(7,14)" class="S sfh" d="M1613 1869 L1826 1656 L1858 1656 L1645 1869 Z"/><path class="fh6" d="M1613 1869 L1826 1656 L1858 1656 L1645 1869 Z" /></g><g class="o"><path transform="translate(8,16)" class="S sf" d="M1929 1261 L2008 1182 L2008 1208 L1929 1287 Z"/><path class="f3" d="M1929 1261 L2008 1182 L2008 1208 L1929 1287 Z" /></g><g class="o"><path transform="translate(9,18)" class="S ssh" d="M1395 2006 L1476 1925 L1498 1925 L1417 2006 Z"/><path class="sh3" d="M1395 2006 L1476 1925 L1498 1925 L1417 2006 Z" /></g><g class="o"><path transform="translate(8,16)" class="S sfh" d="M1584 1155 L1783 956 L1793 956 L1594 1155 Z"/><path class="fh7" d="M1584 1155 L1783 956 L1793 956 L1594 1155 Z" /></g></g><use href="#slashes" transform-origin="1500 1500" transform="rotate(180) scale(2)"/></g><rect x="1080" y="1080" width="840" height="840" stroke-width="20" class="o f6" /><use href="#slashes" transform-origin="1500 1500" transform="scale(.9)"/><use href="#slashes" transform-origin="1500 1500" transform="rotate(180) scale(.9)"/></svg>