<svg xmlns="http://www.w3.org/2000/svg" viewBox="750 750 1500 1500"><style>/*<![CDATA[*/svg{background:rgb(26,192,198);max-width:100vw;max-height:100vh}path{stroke-width:4}.o{opacity:.75}.S{opacity:.4}.sf{stroke:none;fill:black}.sfh{stroke:none;fill:url(#hs)}.sfv{stroke:none;fill:url(#vs)}.ss{stroke:black;fill:none}.ssh{stroke:url(#hs);fill:none}.ssv{stroke:url(#vs);fill:none}.s1{fill:none;stroke:rgb(222,224,230)}.f1{stroke:none;fill:rgb(222,224,230)}.sh1{fill:none;stroke:url(#h1)}.fh1{stroke:none;fill:url(#h1)}.sv1{fill:none;stroke:url(#v1)}.fv1{stroke:none;fill:url(#v1)}.s2{fill:none;stroke:rgb(255,168,34)}.f2{stroke:none;fill:rgb(255,168,34)}.sh2{fill:none;stroke:url(#h2)}.fh2{stroke:none;fill:url(#h2)}.sv2{fill:none;stroke:url(#v2)}.fv2{stroke:none;fill:url(#v2)}.s3{fill:none;stroke:rgb(19,78,111)}.f3{stroke:none;fill:rgb(19,78,111)}.sh3{fill:none;stroke:url(#h3)}.fh3{stroke:none;fill:url(#h3)}.sv3{fill:none;stroke:url(#v3)}.fv3{stroke:none;fill:url(#v3)}.s4{fill:none;stroke:rgb(34,34,34)}.f4{stroke:none;fill:rgb(34,34,34)}.sh4{fill:none;stroke:url(#h4)}.fh4{stroke:none;fill:url(#h4)}.sv4{fill:none;stroke:url(#v4)}.fv4{stroke:none;fill:url(#v4)}.s5{fill:none;stroke:rgb(255,97,80)}.f5{stroke:none;fill:rgb(255,97,80)}.sh5{fill:none;stroke:url(#h5)}.fh5{stroke:none;fill:url(#h5)}.sv5{fill:none;stroke:url(#v5)}.fv5{stroke:none;fill:url(#v5)}.s6{fill:none;stroke:rgb(255,255,255)}.f6{stroke:none;fill:rgb(255,255,255)}.sh6{fill:none;stroke:url(#h6)}.fh6{stroke:none;fill:url(#h6)}.sv6{fill:none;stroke:url(#v6)}.fv6{stroke:none;fill:url(#v6)}.s7{fill:none;stroke:rgb(255,0,0)}.f7{stroke:none;fill:rgb(255,0,0)}.sh7{fill:none;stroke:url(#h7)}.fh7{stroke:none;fill:url(#h7)}.sv7{fill:none;stroke:url(#v7)}.fv7{stroke:none;fill:url(#v7)}/*]]>*/</style><defs><linearGradient gradientTransform="rotate(90)" id="hs"><stop offset="20%" stop-color="#000" /><stop offset="95%" stop-color="rgba(0, 0, 0, 0)" /></linearGradient><linearGradient id="vs"><stop offset="20%" stop-color="#000" /><stop offset="95%" stop-color="rgba(0, 0, 0, 0)" /></linearGradient><linearGradient gradientTransform="rotate(90)" id="h1"><stop offset="20%" stop-color="rgba(222,224,230,1)" /><stop offset="95%" stop-color="rgba(222,224,230,0)" /></linearGradient><linearGradient id="v1"><stop offset="20%" stop-color="rgba(222,224,230,1)" /><stop offset="95%" stop-color="rgba(222,224,230,0)" /></linearGradient><linearGradient gradientTransform="rotate(90)" id="h2"><stop offset="20%" stop-color="rgba(255,168,34,1)" /><stop offset="95%" stop-color="rgba(255,168,34,0)" /></linearGradient><linearGradient id="v2"><stop offset="20%" stop-color="rgba(255,168,34,1)" /><stop offset="95%" stop-color="rgba(255,168,34,0)" /></linearGradient><linearGradient gradientTransform="rotate(90)" id="h3"><stop offset="20%" stop-color="rgba(19,78,111,1)" /><stop offset="95%" stop-color="rgba(19,78,111,0)" /></linearGradient><linearGradient id="v3"><stop offset="20%" stop-color="rgba(19,78,111,1)" /><stop offset="95%" stop-color="rgba(19,78,111,0)" /></linearGradient><linearGradient gradientTransform="rotate(90)" id="h4"><stop offset="20%" stop-color="rgba(34,34,34,1)" /><stop offset="95%" stop-color="rgba(34,34,34,0)" /></linearGradient><linearGradient id="v4"><stop offset="20%" stop-color="rgba(34,34,34,1)" /><stop offset="95%" stop-color="rgba(34,34,34,0)" /></linearGradient><linearGradient gradientTransform="rotate(90)" id="h5"><stop offset="20%" stop-color="rgba(255,97,80,1)" /><stop offset="95%" stop-color="rgba(255,97,80,0)" /></linearGradient><linearGradient id="v5"><stop offset="20%" stop-color="rgba(255,97,80,1)" /><stop offset="95%" stop-color="rgba(255,97,80,0)" /></linearGradient><linearGradient gradientTransform="rotate(90)" id="h6"><stop offset="20%" stop-color="rgba(255,255,255,1)" /><stop offset="95%" stop-color="rgba(255,255,255,0)" /></linearGradient><linearGradient id="v6"><stop offset="20%" stop-color="rgba(255,255,255,1)" /><stop offset="95%" stop-color="rgba(255,255,255,0)" /></linearGradient><linearGradient gradientTransform="rotate(90)" id="h7"><stop offset="20%" stop-color="rgba(255,0,0,1)" /><stop offset="95%" stop-color="rgba(255,0,0,0)" /></linearGradient><linearGradient id="v7"><stop offset="20%" stop-color="rgba(255,0,0,1)" /><stop offset="95%" stop-color="rgba(255,0,0,0)" /></linearGradient></defs><g transform-origin="1500 1500" transform="scale(2)" opacity=".2"><g id="slashes"><g class="o"><path transform="translate(9,18)" class="S ssv" d="M1477 2007 L1568 2098 L1568 2110 L1477 2019 Z"/><path class="sv3" d="M1477 2007 L1568 2098 L1568 2110 L1477 2019 Z" /></g><g class="o"><path transform="translate(6,12)" class="S sf" d="M1430 1916 L1356 1842 L1356 1872 L1430 1946 Z"/><path class="f4" d="M1430 1916 L1356 1842 L1356 1872 L1430 1946 Z" /></g><g class="o"><path transform="translate(7,14)" class="S sfv" d="M1865 1821 L1790 1896 L1790 1910 L1865 1835 Z"/><path class="fv1" d="M1865 1821 L1790 1896 L1790 1910 L1865 1835 Z" /></g><g class="o"><path transform="translate(8,16)" class="S sfh" d="M1265 1461 L1507 1219 L1519 1219 L1277 1461 Z"/><path class="fh7" d="M1265 1461 L1507 1219 L1519 1219 L1277 1461 Z" /></g><g class="o"><path transform="translate(4,8)" class="S sfv" d="M1507 1355 L1456 1406 L1456 1424 L1507 1373 Z"/><path class="fv2" d="M1507 1355 L1456 1406 L1456 1424 L1507 1373 Z" /></g><g class="o"><path transform="translate(8,16)" class="S ssv" d="M1622 2027 L1384 2265 L1384 2297 L1622 2059 Z"/><path class="sv5" d="M1622 2027 L1384 2265 L1384 2297 L1622 2059 Z" /></g><g class="o"><path transform="translate(7,14)" class="S sfv" d="M1854 972 L1730 848 L1730 858 L1854 982 Z"/><path class="fv7" d="M1854 972 L1730 848 L1730 858 L1854 982 Z" /></g><g class="o"><path transform="translate(6,12)" class="S sfh" d="M1863 1400 L2048 1585 L2064 1585 L1879 1400 Z"/><path class="fh7" d="M1863 1400 L2048 1585 L2064 1585 L1879 1400 Z" /></g><g class="o"><path transform="translate(5,10)" class="S sf" d="M1728 1901 L1648 1981 L1648 2007 L1728 1927 Z"/><path class="f6" d="M1728 1901 L1648 1981 L1648 2007 L1728 1927 Z" /></g><g class="o"><path transform="translate(6,12)" class="S ssh" d="M1356 1211 L1444 1299 L1482 1299 L1394 1211 Z"/><path class="sh4" d="M1356 1211 L1444 1299 L1482 1299 L1394 1211 Z" /></g><g class="o"><path transform="translate(4,8)" class="S ssv" d="M1298 1002 L1365 1069 L1365 1083 L1298 1016 Z"/><path class="sv5" d="M1298 1002 L1365 1069 L1365 1083 L1298 1016 Z" /></g><g class="o"><path transform="translate(2,4)" class="S sfh" d="M1215 1239 L1078 1376 L1108 1376 L1245 1239 Z"/><path class="fh5" d="M1215 1239 L1078 1376 L1108 1376 L1245 1239 Z" /></g><g class="o"><path transform="translate(4,8)" class="S sfh" d="M1052 1231 L961 1322 L969 1322 L1060 1231 Z"/><path class="fh5" d="M1052 1231 L961 1322 L969 1322 L1060 1231 Z" /></g><g class="o"><path transform="translate(7,14)" class="S sfh" d="M1355 1936 L1215 1796 L1231 1796 L1371 1936 Z"/><path class="fh5" d="M1355 1936 L1215 1796 L1231 1796 L1371 1936 Z" /></g><g class="o"><path transform="translate(8,16)" class="S sfh" d="M1007 1433 L365 791 L401 791 L1043 1433 Z"/><path class="fh7" d="M1007 1433 L365 791 L401 791 L1043 1433 Z" /></g><g class="o"><path transform="translate(3,6)" class="S sfh" d="M1801 1948 L1672 2077 L1704 2077 L1833 1948 Z"/><path class="fh7" d="M1801 1948 L1672 2077 L1704 2077 L1833 1948 Z" /></g><g class="o"><path transform="translate(5,10)" class="S ssh" d="M1289 1089 L1537 841 L1545 841 L1297 1089 Z"/><path class="sh3" d="M1289 1089 L1537 841 L1545 841 L1297 1089 Z" /></g><g class="o"><path transform="translate(9,18)" class="S sfv" d="M1157 1616 L1259 1514 L1259 1554 L1157 1656 Z"/><path class="fv6" d="M1157 1616 L1259 1514 L1259 1554 L1157 1656 Z" /></g><g class="o"><path transform="translate(5,10)" class="S ssh" d="M1732 1945 L1783 1996 L1793 1996 L1742 1945 Z"/><path class="sh1" d="M1732 1945 L1783 1996 L1793 1996 L1742 1945 Z" /></g><g class="o"><path transform="translate(9,18)" class="S ssh" d="M1495 1712 L1274 1491 L1284 1491 L1505 1712 Z"/><path class="sh3" d="M1495 1712 L1274 1491 L1284 1491 L1505 1712 Z" /></g><g class="o"><path transform="translate(7,14)" class="S sfv" d="M1414 1077 L1358 1133 L1358 1165 L1414 1109 Z"/><path class="fv1" d="M1414 1077 L1358 1133 L1358 1165 L1414 1109 Z" /></g><g class="o"><path transform="translate(8,16)" class="S sfv" d="M1502 1749 L1740 1511 L1740 1537 L1502 1775 Z"/><path class="fv1" d="M1502 1749 L1740 1511 L1740 1537 L1502 1775 Z" /></g><g class="o"><path transform="translate(5,10)" class="S sfh" d="M1237 1821 L1498 1560 L1528 1560 L1267 1821 Z"/><path class="fh6" d="M1237 1821 L1498 1560 L1528 1560 L1267 1821 Z" /></g><g class="o"><path transform="translate(7,14)" class="S sfv" d="M1091 1124 L914 1301 L914 1333 L1091 1156 Z"/><path class="fv6" d="M1091 1124 L914 1301 L914 1333 L1091 1156 Z" /></g><g class="o"><path transform="translate(7,14)" class="S sfh" d="M1104 1449 L861 1206 L871 1206 L1114 1449 Z"/><path class="fh6" d="M1104 1449 L861 1206 L871 1206 L1114 1449 Z" /></g><g class="o"><path transform="translate(7,14)" class="S ssv" d="M1434 1548 L1521 1461 L1521 1485 L1434 1572 Z"/><path class="sv7" d="M1434 1548 L1521 1461 L1521 1485 L1434 1572 Z" /></g><g class="o"><path transform="translate(3,6)" class="S sfv" d="M1737 1316 L1490 1069 L1490 1085 L1737 1332 Z"/><path class="fv3" d="M1737 1316 L1490 1069 L1490 1085 L1737 1332 Z" /></g><g class="o"><path transform="translate(4,8)" class="S sfh" d="M985 1857 L1171 2043 L1235 2043 L1049 1857 Z"/><path class="fh3" d="M985 1857 L1171 2043 L1235 2043 L1049 1857 Z" /></g><g class="o"><path transform="translate(4,8)" class="S sfv" d="M1055 1168 L1105 1118 L1105 1130 L1055 1180 Z"/><path class="fv7" d="M1055 1168 L1105 1118 L1105 1130 L1055 1180 Z" /></g><g class="o"><path transform="translate(9,18)" class="S sfh" d="M988 1570 L1044 1514 L1062 1514 L1006 1570 Z"/><path class="fh6" d="M988 1570 L1044 1514 L1062 1514 L1006 1570 Z" /></g><g class="o"><path transform="translate(7,14)" class="S sf" d="M1023 1414 L1599 838 L1599 848 L1023 1424 Z"/><path class="f3" d="M1023 1414 L1599 838 L1599 848 L1023 1424 Z" /></g><g class="o"><path transform="translate(2,4)" class="S sfv" d="M1996 991 L1781 776 L1781 786 L1996 1001 Z"/><path class="fv6" d="M1996 991 L1781 776 L1781 786 L1996 1001 Z" /></g><g class="o"><path transform="translate(3,6)" class="S ssv" d="M981 1028 L850 1159 L850 1195 L981 1064 Z"/><path class="sv2" d="M981 1028 L850 1159 L850 1195 L981 1064 Z" /></g><g class="o"><path transform="translate(5,10)" class="S sf" d="M1000 1318 L1071 1247 L1071 1259 L1000 1330 Z"/><path class="f6" d="M1000 1318 L1071 1247 L1071 1259 L1000 1330 Z" /></g><g class="o"><path transform="translate(6,12)" class="S sfv" d="M1645 1853 L1963 1535 L1963 1567 L1645 1885 Z"/><path class="fv7" d="M1645 1853 L1963 1535 L1963 1567 L1645 1885 Z" /></g><g class="o"><path transform="translate(4,8)" class="S ss" d="M1287 1497 L1106 1316 L1106 1350 L1287 1531 Z"/><path class="s5" d="M1287 1497 L1106 1316 L1106 1350 L1287 1531 Z" /></g><g class="o"><path transform="translate(5,10)" class="S sfh" d="M1675 1541 L1601 1615 L1611 1615 L1685 1541 Z"/><path class="fh1" d="M1675 1541 L1601 1615 L1611 1615 L1685 1541 Z" /></g><g class="o"><path transform="translate(3,6)" class="S sfh" d="M1276 1506 L1130 1360 L1152 1360 L1298 1506 Z"/><path class="fh3" d="M1276 1506 L1130 1360 L1152 1360 L1298 1506 Z" /></g><g class="o"><path transform="translate(8,16)" class="S sfh" d="M1595 1875 L1676 1794 L1708 1794 L1627 1875 Z"/><path class="fh6" d="M1595 1875 L1676 1794 L1708 1794 L1627 1875 Z" /></g><g class="o"><path transform="translate(2,4)" class="S ss" d="M1754 1499 L2003 1250 L2003 1286 L1754 1535 Z"/><path class="s4" d="M1754 1499 L2003 1250 L2003 1286 L1754 1535 Z" /></g><g class="o"><path transform="translate(6,12)" class="S ssh" d="M1678 1137 L1590 1049 L1628 1049 L1716 1137 Z"/><path class="sh6" d="M1678 1137 L1590 1049 L1628 1049 L1716 1137 Z" /></g><g class="o"><path transform="translate(4,8)" class="S sfv" d="M1650 1845 L1537 1958 L1537 1994 L1650 1881 Z"/><path class="fv5" d="M1650 1845 L1537 1958 L1537 1994 L1650 1881 Z" /></g><g class="o"><path transform="translate(8,16)" class="S sf" d="M1409 1705 L1602 1898 L1602 1962 L1409 1769 Z"/><path class="f6" d="M1409 1705 L1602 1898 L1602 1962 L1409 1769 Z" /></g><g class="o"><path transform="translate(8,16)" class="S ss" d="M1452 1736 L1658 1530 L1658 1562 L1452 1768 Z"/><path class="s4" d="M1452 1736 L1658 1530 L1658 1562 L1452 1768 Z" /></g><g class="o"><path transform="translate(8,16)" class="S sfh" d="M1674 1592 L1839 1757 L1849 1757 L1684 1592 Z"/><path class="fh7" d="M1674 1592 L1839 1757 L1849 1757 L1684 1592 Z" /></g><g class="o"><path transform="translate(7,14)" class="S sfv" d="M1569 1793 L1333 2029 L1333 2063 L1569 1827 Z"/><path class="fv3" d="M1569 1793 L1333 2029 L1333 2063 L1569 1827 Z" /></g><g class="o"><path transform="translate(8,16)" class="S ssh" d="M1450 1268 L772 1946 L798 1946 L1476 1268 Z"/><path class="sh1" d="M1450 1268 L772 1946 L798 1946 L1476 1268 Z" /></g><g class="o"><path transform="translate(2,4)" class="S sfv" d="M1874 1126 L2113 887 L2113 915 L1874 1154 Z"/><path class="fv3" d="M1874 1126 L2113 887 L2113 915 L1874 1154 Z" /></g><g class="o"><path transform="translate(5,10)" class="S sfv" d="M1454 1994 L1541 1907 L1541 1941 L1454 2028 Z"/><path class="fv4" d="M1454 1994 L1541 1907 L1541 1941 L1454 2028 Z" /></g><g class="o"><path transform="translate(2,4)" class="S sfh" d="M1241 1505 L1432 1314 L1442 1314 L1251 1505 Z"/><path class="fh6" d="M1241 1505 L1432 1314 L1442 1314 L1251 1505 Z" /></g><g class="o"><path transform="translate(3,6)" class="S sfh" d="M936 1176 L1068 1044 L1196 1044 L1064 1176 Z"/><path class="fh1" d="M936 1176 L1068 1044 L1196 1044 L1064 1176 Z" /></g><g class="o"><path transform="translate(2,4)" class="S sfh" d="M1991 1208 L1295 1904 L1375 1904 L2071 1208 Z"/><path class="fh7" d="M1991 1208 L1295 1904 L1375 1904 L2071 1208 Z" /></g><g class="o"><path transform="translate(5,10)" class="S sfv" d="M1988 1880 L2050 1818 L2050 1848 L1988 1910 Z"/><path class="fv3" d="M1988 1880 L2050 1818 L2050 1848 L1988 1910 Z" /></g><g class="o"><path transform="translate(3,6)" class="S sfv" d="M2038 1794 L2282 1550 L2282 1566 L2038 1810 Z"/><path class="fv4" d="M2038 1794 L2282 1550 L2282 1566 L2038 1810 Z" /></g><g class="o"><path transform="translate(7,14)" class="S ssh" d="M1961 1696 L2165 1492 L2195 1492 L1991 1696 Z"/><path class="sh1" d="M1961 1696 L2165 1492 L2195 1492 L1991 1696 Z" /></g><g class="o"><path transform="translate(5,10)" class="S sfv" d="M1544 1288 L1629 1373 L1629 1393 L1544 1308 Z"/><path class="fv6" d="M1544 1288 L1629 1373 L1629 1393 L1544 1308 Z" /></g><g class="o"><path transform="translate(4,8)" class="S sfv" d="M2044 2032 L1810 2266 L1810 2292 L2044 2058 Z"/><path class="fv3" d="M2044 2032 L1810 2266 L1810 2292 L2044 2058 Z" /></g><g class="o"><path transform="translate(7,14)" class="S sf" d="M1067 1931 L797 1661 L807 1661 L1077 1931 Z"/><path class="f5" d="M1067 1931 L797 1661 L807 1661 L1077 1931 Z" /></g><g class="o"><path transform="translate(5,10)" class="S ssv" d="M1214 1477 L1374 1637 L1374 1675 L1214 1515 Z"/><path class="sv6" d="M1214 1477 L1374 1637 L1374 1675 L1214 1515 Z" /></g><g class="o"><path transform="translate(6,12)" class="S sfh" d="M1841 1902 L1322 1383 L1334 1383 L1853 1902 Z"/><path class="fh4" d="M1841 1902 L1322 1383 L1334 1383 L1853 1902 Z" /></g><g class="o"><path transform="translate(2,4)" class="S sfh" d="M1757 1694 L1527 1924 L1535 1924 L1765 1694 Z"/><path class="fh2" d="M1757 1694 L1527 1924 L1535 1924 L1765 1694 Z" /></g><g class="o"><path transform="translate(6,12)" class="S sfv" d="M1042 1411 L1215 1584 L1215 1616 L1042 1443 Z"/><path class="fv5" d="M1042 1411 L1215 1584 L1215 1616 L1042 1443 Z" /></g><g class="o"><path transform="translate(3,6)" class="S sfh" d="M1523 1339 L1427 1435 L1455 1435 L1551 1339 Z"/><path class="fh3" d="M1523 1339 L1427 1435 L1455 1435 L1551 1339 Z" /></g><g class="o"><path transform="translate(2,4)" class="S sf" d="M1625 1972 L1515 2082 L1535 2082 L1645 1972 Z"/><path class="f1" d="M1625 1972 L1515 2082 L1535 2082 L1645 1972 Z" /></g><g class="o"><path transform="translate(9,18)" class="S ss" d="M1801 1419 L1960 1260 L1986 1260 L1827 1419 Z"/><path class="s2" d="M1801 1419 L1960 1260 L1986 1260 L1827 1419 Z" /></g><g class="o"><path transform="translate(6,12)" class="S ssh" d="M1528 966 L1458 1036 L1472 1036 L1542 966 Z"/><path class="sh4" d="M1528 966 L1458 1036 L1472 1036 L1542 966 Z" /></g><g class="o"><path transform="translate(5,10)" class="S sfh" d="M1412 1530 L1633 1309 L1643 1309 L1422 1530 Z"/><path class="fh2" d="M1412 1530 L1633 1309 L1643 1309 L1422 1530 Z" /></g><g class="o"><path transform="translate(3,6)" class="S sfv" d="M1966 1491 L2118 1643 L2118 1671 L1966 1519 Z"/><path class="fv7" d="M1966 1491 L2118 1643 L2118 1671 L1966 1519 Z" /></g><g class="o"><path transform="translate(2,4)" class="S sfv" d="M1357 1737 L1414 1680 L1414 1718 L1357 1775 Z"/><path class="fv1" d="M1357 1737 L1414 1680 L1414 1718 L1357 1775 Z" /></g><g class="o"><path transform="translate(9,18)" class="S sfv" d="M1816 1441 L2062 1195 L2062 1211 L1816 1457 Z"/><path class="fv5" d="M1816 1441 L2062 1195 L2062 1211 L1816 1457 Z" /></g><g class="o"><path transform="translate(3,6)" class="S sfv" d="M1085 1763 L875 1553 L875 1563 L1085 1773 Z"/><path class="fv4" d="M1085 1763 L875 1553 L875 1563 L1085 1773 Z" /></g><g class="o"><path transform="translate(5,10)" class="S sfv" d="M1164 1557 L1304 1697 L1304 1801 L1164 1661 Z"/><path class="fv5" d="M1164 1557 L1304 1697 L1304 1801 L1164 1661 Z" /></g><g class="o"><path transform="translate(9,18)" class="S sfv" d="M1040 1236 L951 1147 L951 1155 L1040 1244 Z"/><path class="fv3" d="M1040 1236 L951 1147 L951 1155 L1040 1244 Z" /></g><g class="o"><path transform="translate(3,6)" class="S sfv" d="M1237 1207 L1561 1531 L1561 1541 L1237 1217 Z"/><path class="fv7" d="M1237 1207 L1561 1531 L1561 1541 L1237 1217 Z" /></g><g class="o"><path transform="translate(8,16)" class="S sfh" d="M1040 1667 L1241 1466 L1277 1466 L1076 1667 Z"/><path class="fh4" d="M1040 1667 L1241 1466 L1277 1466 L1076 1667 Z" /></g><g class="o"><path transform="translate(4,8)" class="S ssh" d="M1021 1910 L957 1974 L993 1974 L1057 1910 Z"/><path class="sh6" d="M1021 1910 L957 1974 L993 1974 L1057 1910 Z" /></g><g class="o"><path transform="translate(4,8)" class="S sfv" d="M1382 1159 L1582 1359 L1582 1397 L1382 1197 Z"/><path class="fv1" d="M1382 1159 L1582 1359 L1582 1397 L1382 1197 Z" /></g><g class="o"><path transform="translate(2,4)" class="S ssv" d="M1330 1495 L1106 1271 L1106 1291 L1330 1515 Z"/><path class="sv3" d="M1330 1495 L1106 1271 L1106 1291 L1330 1515 Z" /></g><g class="o"><path transform="translate(4,8)" class="S sfv" d="M1914 995 L1793 874 L1793 902 L1914 1023 Z"/><path class="fv4" d="M1914 995 L1793 874 L1793 902 L1914 1023 Z" /></g><g class="o"><path transform="translate(3,6)" class="S ssh" d="M1854 1025 L2073 1244 L2185 1244 L1966 1025 Z"/><path class="sh3" d="M1854 1025 L2073 1244 L2185 1244 L1966 1025 Z" /></g><g class="o"><path transform="translate(6,12)" class="S sfh" d="M1720 2037 L1819 2136 L1835 2136 L1736 2037 Z"/><path class="fh6" d="M1720 2037 L1819 2136 L1835 2136 L1736 2037 Z" /></g><g class="o"><path transform="translate(9,18)" class="S sfv" d="M1772 1522 L2011 1283 L2011 1297 L1772 1536 Z"/><path class="fv1" d="M1772 1522 L2011 1283 L2011 1297 L1772 1536 Z" /></g><g class="o"><path transform="translate(3,6)" class="S sfv" d="M1363 1104 L1436 1031 L1436 1069 L1363 1142 Z"/><path class="fv3" d="M1363 1104 L1436 1031 L1436 1069 L1363 1142 Z" /></g><g class="o"><path transform="translate(4,8)" class="S sfh" d="M1249 1732 L1032 1949 L1064 1949 L1281 1732 Z"/><path class="fh4" d="M1249 1732 L1032 1949 L1064 1949 L1281 1732 Z" /></g><g class="o"><path transform="translate(2,4)" class="S sfh" d="M1218 993 L1465 1240 L1491 1240 L1244 993 Z"/><path class="fh4" d="M1218 993 L1465 1240 L1491 1240 L1244 993 Z" /></g><g class="o"><path transform="translate(8,16)" class="S sfh" d="M1902 1238 L1812 1148 L1876 1148 L1966 1238 Z"/><path class="fh3" d="M1902 1238 L1812 1148 L1876 1148 L1966 1238 Z" /></g><g class="o"><path transform="translate(3,6)" class="S sfv" d="M1738 1061 L2485 1808 L2485 1848 L1738 1101 Z"/><path class="fv6" d="M1738 1061 L2485 1808 L2485 1848 L1738 1101 Z" /></g><g class="o"><path transform="translate(6,12)" class="S sfh" d="M986 1450 L920 1384 L938 1384 L1004 1450 Z"/><path class="fh3" d="M986 1450 L920 1384 L938 1384 L1004 1450 Z" /></g><g class="o"><path transform="translate(2,4)" class="S ssv" d="M1304 1161 L1079 936 L1079 948 L1304 1173 Z"/><path class="sv4" d="M1304 1161 L1079 936 L1079 948 L1304 1173 Z" /></g><g class="o"><path transform="translate(4,8)" class="S ssh" d="M1314 1796 L1384 1726 L1414 1726 L1344 1796 Z"/><path class="sh4" d="M1314 1796 L1384 1726 L1414 1726 L1344 1796 Z" /></g><g class="o"><path transform="translate(2,4)" class="S sfh" d="M1871 1159 L1659 947 L1697 947 L1909 1159 Z"/><path class="fh2" d="M1871 1159 L1659 947 L1697 947 L1909 1159 Z" /></g><g class="o"><path transform="translate(6,12)" class="S sfh" d="M1931 1675 L1475 1219 L1497 1219 L1953 1675 Z"/><path class="fh1" d="M1931 1675 L1475 1219 L1497 1219 L1953 1675 Z" /></g><g class="o"><path transform="translate(2,4)" class="S sfh" d="M1364 1282 L773 1873 L811 1873 L1402 1282 Z"/><path class="fh5" d="M1364 1282 L773 1873 L811 1873 L1402 1282 Z" /></g><g class="o"><path transform="translate(3,6)" class="S sfh" d="M1857 1222 L1612 1467 L1650 1467 L1895 1222 Z"/><path class="fh2" d="M1857 1222 L1612 1467 L1650 1467 L1895 1222 Z" /></g><g class="o"><path transform="translate(2,4)" class="S sfh" d="M2004 1005 L2199 1200 L2213 1200 L2018 1005 Z"/><path class="fh5" d="M2004 1005 L2199 1200 L2213 1200 L2018 1005 Z" /></g><g class="o"><path transform="translate(3,6)" class="S sfh" d="M1391 1363 L1283 1471 L1293 1471 L1401 1363 Z"/><path class="fh4" d="M1391 1363 L1283 1471 L1293 1471 L1401 1363 Z" /></g><g class="o"><path transform="translate(9,18)" class="S sfh" d="M1797 1090 L1944 943 L1972 943 L1825 1090 Z"/><path class="fh2" d="M1797 1090 L1944 943 L1972 943 L1825 1090 Z" /></g><g class="o"><path transform="translate(3,6)" class="S ssh" d="M1568 1317 L1796 1089 L1832 1089 L1604 1317 Z"/><path class="sh5" d="M1568 1317 L1796 1089 L1832 1089 L1604 1317 Z" /></g><g class="o"><path transform="translate(2,4)" class="S ssh" d="M1519 2036 L1314 1831 L1334 1831 L1539 2036 Z"/><path class="sh3" d="M1519 2036 L1314 1831 L1334 1831 L1539 2036 Z" /></g><g class="o"><path transform="translate(7,14)" class="S sfh" d="M1375 1129 L1155 909 L1251 909 L1471 1129 Z"/><path class="fh6" d="M1375 1129 L1155 909 L1251 909 L1471 1129 Z" /></g><g class="o"><path transform="translate(9,18)" class="S sfv" d="M1272 1783 L1152 1663 L1152 1691 L1272 1811 Z"/><path class="fv5" d="M1272 1783 L1152 1663 L1152 1691 L1272 1811 Z" /></g><g class="o"><path transform="translate(8,16)" class="S sfv" d="M1708 1385 L1658 1435 L1658 1457 L1708 1407 Z"/><path class="fv6" d="M1708 1385 L1658 1435 L1658 1457 L1708 1407 Z" /></g><g class="o"><path transform="translate(7,14)" class="S sf" d="M1493 1279 L1253 1039 L1253 1051 L1493 1291 Z"/><path class="f1" d="M1493 1279 L1253 1039 L1253 1051 L1493 1291 Z" /></g><g class="o"><path transform="translate(2,4)" class="S sfh" d="M1117 1723 L1281 1559 L1417 1559 L1253 1723 Z"/><path class="fh4" d="M1117 1723 L1281 1559 L1417 1559 L1253 1723 Z" /></g><g class="o"><path transform="translate(5,10)" class="S ss" d="M2048 1239 L2164 1123 L2164 1135 L2048 1251 Z"/><path class="s7" d="M2048 1239 L2164 1123 L2164 1135 L2048 1251 Z" /></g><g class="o"><path transform="translate(3,6)" class="S sfv" d="M1247 1200 L1358 1089 L1358 1117 L1247 1228 Z"/><path class="fv7" d="M1247 1200 L1358 1089 L1358 1117 L1247 1228 Z" /></g><g class="o"><path transform="translate(5,10)" class="S sfh" d="M1801 1207 L1608 1014 L1626 1014 L1819 1207 Z"/><path class="fh3" d="M1801 1207 L1608 1014 L1626 1014 L1819 1207 Z" /></g><g class="o"><path transform="translate(2,4)" class="S sfh" d="M1054 1250 L953 1351 L1049 1351 L1150 1250 Z"/><path class="fh4" d="M1054 1250 L953 1351 L1049 1351 L1150 1250 Z" /></g><g class="o"><path transform="translate(9,18)" class="S sf" d="M1401 1363 L1603 1565 L1627 1565 L1425 1363 Z"/><path class="f2" d="M1401 1363 L1603 1565 L1627 1565 L1425 1363 Z" /></g><g class="o"><path transform="translate(2,4)" class="S ssv" d="M1992 1164 L2215 1387 L2215 1419 L1992 1196 Z"/><path class="sv2" d="M1992 1164 L2215 1387 L2215 1419 L1992 1196 Z" /></g><g class="o"><path transform="translate(3,6)" class="S sfv" d="M1267 1730 L1507 1970 L1507 1992 L1267 1752 Z"/><path class="fv5" d="M1267 1730 L1507 1970 L1507 1992 L1267 1752 Z" /></g><g class="o"><path transform="translate(5,10)" class="S sf" d="M1439 1753 L1196 1996 L1196 2030 L1439 1787 Z"/><path class="f4" d="M1439 1753 L1196 1996 L1196 2030 L1439 1787 Z" /></g><g class="o"><path transform="translate(9,18)" class="S ssv" d="M1492 1266 L1645 1113 L1645 1121 L1492 1274 Z"/><path class="sv2" d="M1492 1266 L1645 1113 L1645 1121 L1492 1274 Z" /></g><g class="o"><path transform="translate(6,12)" class="S sfh" d="M1119 1005 L1836 1722 L1854 1722 L1137 1005 Z"/><path class="fh5" d="M1119 1005 L1836 1722 L1854 1722 L1137 1005 Z" /></g><g class="o"><path transform="translate(5,10)" class="S sf" d="M1465 1100 L1006 641 L1026 641 L1485 1100 Z"/><path class="f5" d="M1465 1100 L1006 641 L1026 641 L1485 1100 Z" /></g><g class="o"><path transform="translate(6,12)" class="S sfh" d="M2029 1049 L1969 1109 L1987 1109 L2047 1049 Z"/><path class="fh6" d="M2029 1049 L1969 1109 L1987 1109 L2047 1049 Z" /></g><g class="o"><path transform="translate(9,18)" class="S ss" d="M1612 1802 L1466 1656 L1496 1656 L1642 1802 Z"/><path class="s2" d="M1612 1802 L1466 1656 L1496 1656 L1642 1802 Z" /></g><g class="o"><path transform="translate(5,10)" class="S sfv" d="M1491 2012 L1257 2246 L1257 2258 L1491 2024 Z"/><path class="fv4" d="M1491 2012 L1257 2246 L1257 2258 L1491 2024 Z" /></g><g class="o"><path transform="translate(5,10)" class="S sf" d="M1273 1549 L1047 1775 L1071 1775 L1297 1549 Z"/><path class="f4" d="M1273 1549 L1047 1775 L1071 1775 L1297 1549 Z" /></g><g class="o"><path transform="translate(7,14)" class="S sf" d="M1622 1269 L1830 1477 L1830 1485 L1622 1277 Z"/><path class="f3" d="M1622 1269 L1830 1477 L1830 1485 L1622 1277 Z" /></g><g class="o"><path transform="translate(2,4)" class="S sfh" d="M1388 1367 L1176 1155 L1200 1155 L1412 1367 Z"/><path class="fh5" d="M1388 1367 L1176 1155 L1200 1155 L1412 1367 Z" /></g><g class="o"><path transform="translate(3,6)" class="S sfh" d="M1831 1752 L1725 1646 L1755 1646 L1861 1752 Z"/><path class="fh6" d="M1831 1752 L1725 1646 L1755 1646 L1861 1752 Z" /></g><g class="o"><path transform="translate(8,16)" class="S sf" d="M990 1023 L1065 1098 L1065 1128 L990 1053 Z"/><path class="f4" d="M990 1023 L1065 1098 L1065 1128 L990 1053 Z" /></g><g class="o"><path transform="translate(6,12)" class="S sfh" d="M1765 1362 L1684 1281 L1714 1281 L1795 1362 Z"/><path class="fh6" d="M1765 1362 L1684 1281 L1714 1281 L1795 1362 Z" /></g><g class="o"><path transform="translate(3,6)" class="S sfv" d="M1389 1167 L1624 1402 L1624 1436 L1389 1201 Z"/><path class="fv6" d="M1389 1167 L1624 1402 L1624 1436 L1389 1201 Z" /></g><g class="o"><path transform="translate(6,12)" class="S sf" d="M1356 1542 L1288 1610 L1288 1630 L1356 1562 Z"/><path class="f5" d="M1356 1542 L1288 1610 L1288 1630 L1356 1562 Z" /></g><g class="o"><path transform="translate(9,18)" class="S sfh" d="M1231 1296 L1148 1213 L1168 1213 L1251 1296 Z"/><path class="fh2" d="M1231 1296 L1148 1213 L1168 1213 L1251 1296 Z" /></g><g class="o"><path transform="translate(9,18)" class="S sfh" d="M1427 1747 L1488 1686 L1526 1686 L1465 1747 Z"/><path class="fh5" d="M1427 1747 L1488 1686 L1526 1686 L1465 1747 Z" /></g><g class="o"><path transform="translate(4,8)" class="S sfv" d="M1879 1370 L2084 1575 L2084 1605 L1879 1400 Z"/><path class="fv7" d="M1879 1370 L2084 1575 L2084 1605 L1879 1400 Z" /></g><g class="o"><path transform="translate(2,4)" class="S sfv" d="M1434 972 L1622 784 L1622 848 L1434 1036 Z"/><path class="fv2" d="M1434 972 L1622 784 L1622 848 L1434 1036 Z" /></g><g class="o"><path transform="translate(9,18)" class="S sfv" d="M1559 1386 L1492 1453 L1492 1479 L1559 1412 Z"/><path class="fv5" d="M1559 1386 L1492 1453 L1492 1479 L1559 1412 Z" /></g><g class="o"><path transform="translate(6,12)" class="S sfv" d="M2012 1067 L2261 818 L2261 850 L2012 1099 Z"/><path class="fv1" d="M2012 1067 L2261 818 L2261 850 L2012 1099 Z" /></g><g class="o"><path transform="translate(6,12)" class="S sfh" d="M1119 1730 L1177 1672 L1207 1672 L1149 1730 Z"/><path class="fh6" d="M1119 1730 L1177 1672 L1207 1672 L1149 1730 Z" /></g><g class="o"><path transform="translate(4,8)" class="S sfv" d="M1714 1898 L1876 1736 L1876 1764 L1714 1926 Z"/><path class="fv1" d="M1714 1898 L1876 1736 L1876 1764 L1714 1926 Z" /></g><g class="o"><path transform="translate(8,16)" class="S sfv" d="M1373 1436 L1485 1324 L1485 1334 L1373 1446 Z"/><path class="fv7" d="M1373 1436 L1485 1324 L1485 1334 L1373 1446 Z" /></g><g class="o"><path transform="translate(2,4)" class="S sfv" d="M1813 1401 L2503 711 L2503 815 L1813 1505 Z"/><path class="fv2" d="M1813 1401 L2503 711 L2503 815 L1813 1505 Z" /></g><g class="o"><path transform="translate(9,18)" class="S sf" d="M1780 1273 L1671 1164 L1709 1164 L1818 1273 Z"/><path class="f1" d="M1780 1273 L1671 1164 L1709 1164 L1818 1273 Z" /></g><g class="o"><path transform="translate(9,18)" class="S sfv" d="M1321 976 L1150 1147 L1150 1163 L1321 992 Z"/><path class="fv3" d="M1321 976 L1150 1147 L1150 1163 L1321 992 Z" /></g><g class="o"><path transform="translate(4,8)" class="S sfv" d="M1604 1449 L1846 1207 L1846 1233 L1604 1475 Z"/><path class="fv1" d="M1604 1449 L1846 1207 L1846 1233 L1604 1475 Z" /></g><g class="o"><path transform="translate(7,14)" class="S sf" d="M1735 1155 L1273 693 L1273 717 L1735 1179 Z"/><path class="f6" d="M1735 1155 L1273 693 L1273 717 L1735 1179 Z" /></g></g><use href="#slashes" transform-origin="1500 1500" transform="rotate(180) scale(2)"/></g><rect x="1080" y="1080" width="840" height="840" stroke-width="10" class="o fs" /><use href="#slashes" transform-origin="1500 1500" transform="scale(.9)"/><use href="#slashes" transform-origin="1500 1500" transform="rotate(180) scale(.9)"/></svg>