<svg xmlns="http://www.w3.org/2000/svg" viewBox="750 750 1500 1500"><style>/*<![CDATA[*/svg{background:rgb(166,3,47);max-width:100vw;max-height:100vh}path{stroke-width:4}.o{opacity:.75}.S{opacity:.4}.sf{stroke:none;fill:black}.sfh{stroke:none;fill:url(#hs)}.sfv{stroke:none;fill:url(#vs)}.ss{stroke:black;fill:none}.ssh{stroke:url(#hs);fill:none}.ssv{stroke:url(#vs);fill:none}.s1{fill:none;stroke:rgb(3,90,166)}.f1{stroke:none;fill:rgb(3,90,166)}.sh1{fill:none;stroke:url(#h1)}.fh1{stroke:none;fill:url(#h1)}.sv1{fill:none;stroke:url(#v1)}.fv1{stroke:none;fill:url(#v1)}.s2{fill:none;stroke:rgb(4,178,217)}.f2{stroke:none;fill:rgb(4,178,217)}.sh2{fill:none;stroke:url(#h2)}.fh2{stroke:none;fill:url(#h2)}.sv2{fill:none;stroke:url(#v2)}.fv2{stroke:none;fill:url(#v2)}.s3{fill:none;stroke:rgb(5,219,242)}.f3{stroke:none;fill:rgb(5,219,242)}.sh3{fill:none;stroke:url(#h3)}.fh3{stroke:none;fill:url(#h3)}.sv3{fill:none;stroke:url(#v3)}.fv3{stroke:none;fill:url(#v3)}.s4{fill:none;stroke:rgb(34,34,34)}.f4{stroke:none;fill:rgb(34,34,34)}.sh4{fill:none;stroke:url(#h4)}.fh4{stroke:none;fill:url(#h4)}.sv4{fill:none;stroke:url(#v4)}.fv4{stroke:none;fill:url(#v4)}.s5{fill:none;stroke:rgb(2,40,115)}.f5{stroke:none;fill:rgb(2,40,115)}.sh5{fill:none;stroke:url(#h5)}.fh5{stroke:none;fill:url(#h5)}.sv5{fill:none;stroke:url(#v5)}.fv5{stroke:none;fill:url(#v5)}.s6{fill:none;stroke:rgb(255,255,255)}.f6{stroke:none;fill:rgb(255,255,255)}.sh6{fill:none;stroke:url(#h6)}.fh6{stroke:none;fill:url(#h6)}.sv6{fill:none;stroke:url(#v6)}.fv6{stroke:none;fill:url(#v6)}.s7{fill:none;stroke:rgb(255,0,0)}.f7{stroke:none;fill:rgb(255,0,0)}.sh7{fill:none;stroke:url(#h7)}.fh7{stroke:none;fill:url(#h7)}.sv7{fill:none;stroke:url(#v7)}.fv7{stroke:none;fill:url(#v7)}/*]]>*/</style><defs><linearGradient gradientTransform="rotate(90)" id="hs"><stop offset="20%" stop-color="#000" /><stop offset="95%" stop-color="rgba(0, 0, 0, 0)" /></linearGradient><linearGradient id="vs"><stop offset="20%" stop-color="#000" /><stop offset="95%" stop-color="rgba(0, 0, 0, 0)" /></linearGradient><linearGradient gradientTransform="rotate(90)" id="h1"><stop offset="20%" stop-color="rgba(3,90,166,1)" /><stop offset="95%" stop-color="rgba(3,90,166,0)" /></linearGradient><linearGradient id="v1"><stop offset="20%" stop-color="rgba(3,90,166,1)" /><stop offset="95%" stop-color="rgba(3,90,166,0)" /></linearGradient><linearGradient gradientTransform="rotate(90)" id="h2"><stop offset="20%" stop-color="rgba(4,178,217,1)" /><stop offset="95%" stop-color="rgba(4,178,217,0)" /></linearGradient><linearGradient id="v2"><stop offset="20%" stop-color="rgba(4,178,217,1)" /><stop offset="95%" stop-color="rgba(4,178,217,0)" /></linearGradient><linearGradient gradientTransform="rotate(90)" id="h3"><stop offset="20%" stop-color="rgba(5,219,242,1)" /><stop offset="95%" stop-color="rgba(5,219,242,0)" /></linearGradient><linearGradient id="v3"><stop offset="20%" stop-color="rgba(5,219,242,1)" /><stop offset="95%" stop-color="rgba(5,219,242,0)" /></linearGradient><linearGradient gradientTransform="rotate(90)" id="h4"><stop offset="20%" stop-color="rgba(34,34,34,1)" /><stop offset="95%" stop-color="rgba(34,34,34,0)" /></linearGradient><linearGradient id="v4"><stop offset="20%" stop-color="rgba(34,34,34,1)" /><stop offset="95%" stop-color="rgba(34,34,34,0)" /></linearGradient><linearGradient gradientTransform="rotate(90)" id="h5"><stop offset="20%" stop-color="rgba(2,40,115,1)" /><stop offset="95%" stop-color="rgba(2,40,115,0)" /></linearGradient><linearGradient id="v5"><stop offset="20%" stop-color="rgba(2,40,115,1)" /><stop offset="95%" stop-color="rgba(2,40,115,0)" /></linearGradient><linearGradient gradientTransform="rotate(90)" id="h6"><stop offset="20%" stop-color="rgba(255,255,255,1)" /><stop offset="95%" stop-color="rgba(255,255,255,0)" /></linearGradient><linearGradient id="v6"><stop offset="20%" stop-color="rgba(255,255,255,1)" /><stop offset="95%" stop-color="rgba(255,255,255,0)" /></linearGradient><linearGradient gradientTransform="rotate(90)" id="h7"><stop offset="20%" stop-color="rgba(255,0,0,1)" /><stop offset="95%" stop-color="rgba(255,0,0,0)" /></linearGradient><linearGradient id="v7"><stop offset="20%" stop-color="rgba(255,0,0,1)" /><stop offset="95%" stop-color="rgba(255,0,0,0)" /></linearGradient></defs><g transform-origin="1500 1500" transform="scale(2)" opacity=".2"><g id="slashes"><g class="o"><path transform="translate(3,6)" class="S ssv" d="M1621 1666 L1738 1549 L1738 1585 L1621 1702 Z"/><path class="sv1" d="M1621 1666 L1738 1549 L1738 1585 L1621 1702 Z" /></g><g class="o"><path transform="translate(7,14)" class="S sfv" d="M1254 2013 L1161 1920 L1161 1930 L1254 2023 Z"/><path class="fv4" d="M1254 2013 L1161 1920 L1161 1930 L1254 2023 Z" /></g><g class="o"><path transform="translate(2,4)" class="S sfv" d="M1690 1442 L1438 1190 L1438 1208 L1690 1460 Z"/><path class="fv6" d="M1690 1442 L1438 1190 L1438 1208 L1690 1460 Z" /></g><g class="o"><path transform="translate(4,8)" class="S sfv" d="M1160 1579 L1580 1159 L1580 1189 L1160 1609 Z"/><path class="fv6" d="M1160 1579 L1580 1159 L1580 1189 L1160 1609 Z" /></g><g class="o"><path transform="translate(9,18)" class="S sfv" d="M1366 1962 L1579 1749 L1579 1767 L1366 1980 Z"/><path class="fv1" d="M1366 1962 L1579 1749 L1579 1767 L1366 1980 Z" /></g><g class="o"><path transform="translate(6,12)" class="S sfv" d="M1954 1696 L1825 1567 L1825 1605 L1954 1734 Z"/><path class="fv4" d="M1954 1696 L1825 1567 L1825 1605 L1954 1734 Z" /></g><g class="o"><path transform="translate(2,4)" class="S ssv" d="M1668 1274 L1721 1221 L1721 1243 L1668 1296 Z"/><path class="sv1" d="M1668 1274 L1721 1221 L1721 1243 L1668 1296 Z" /></g><g class="o"><path transform="translate(7,14)" class="S sfv" d="M1347 1337 L1479 1205 L1479 1213 L1347 1345 Z"/><path class="fv6" d="M1347 1337 L1479 1205 L1479 1213 L1347 1345 Z" /></g><g class="o"><path transform="translate(3,6)" class="S sfv" d="M1289 1072 L1412 949 L1412 975 L1289 1098 Z"/><path class="fv4" d="M1289 1072 L1412 949 L1412 975 L1289 1098 Z" /></g><g class="o"><path transform="translate(3,6)" class="S sfh" d="M1588 1078 L1645 1021 L1659 1021 L1602 1078 Z"/><path class="fh4" d="M1588 1078 L1645 1021 L1659 1021 L1602 1078 Z" /></g><g class="o"><path transform="translate(9,18)" class="S sfh" d="M1865 1826 L2327 1364 L2359 1364 L1897 1826 Z"/><path class="fh6" d="M1865 1826 L2327 1364 L2359 1364 L1897 1826 Z" /></g><g class="o"><path transform="translate(9,18)" class="S sfh" d="M1743 1353 L1813 1283 L1845 1283 L1775 1353 Z"/><path class="fh4" d="M1743 1353 L1813 1283 L1845 1283 L1775 1353 Z" /></g><g class="o"><path transform="translate(9,18)" class="S sfh" d="M1328 1792 L1550 1570 L1588 1570 L1366 1792 Z"/><path class="fh3" d="M1328 1792 L1550 1570 L1588 1570 L1366 1792 Z" /></g><g class="o"><path transform="translate(5,10)" class="S sfh" d="M1722 1530 L1950 1302 L1984 1302 L1756 1530 Z"/><path class="fh6" d="M1722 1530 L1950 1302 L1984 1302 L1756 1530 Z" /></g><g class="o"><path transform="translate(5,10)" class="S sfv" d="M1158 1916 L660 1418 L660 1452 L1158 1950 Z"/><path class="fv5" d="M1158 1916 L660 1418 L660 1452 L1158 1950 Z" /></g><g class="o"><path transform="translate(5,10)" class="S sfh" d="M1055 2024 L1130 1949 L1250 1949 L1175 2024 Z"/><path class="fh7" d="M1055 2024 L1130 1949 L1250 1949 L1175 2024 Z" /></g><g class="o"><path transform="translate(4,8)" class="S sfv" d="M1821 1394 L2063 1152 L2063 1164 L1821 1406 Z"/><path class="fv3" d="M1821 1394 L2063 1152 L2063 1164 L1821 1406 Z" /></g><g class="o"><path transform="translate(3,6)" class="S sfh" d="M1740 1330 L1842 1228 L1858 1228 L1756 1330 Z"/><path class="fh5" d="M1740 1330 L1842 1228 L1858 1228 L1756 1330 Z" /></g><g class="o"><path transform="translate(4,8)" class="S ssh" d="M1273 1468 L691 886 L719 886 L1301 1468 Z"/><path class="sh1" d="M1273 1468 L691 886 L719 886 L1301 1468 Z" /></g><g class="o"><path transform="translate(7,14)" class="S sfv" d="M1250 1920 L1392 1778 L1392 1814 L1250 1956 Z"/><path class="fv6" d="M1250 1920 L1392 1778 L1392 1814 L1250 1956 Z" /></g><g class="o"><path transform="translate(6,12)" class="S ssv" d="M1977 1451 L2159 1269 L2159 1279 L1977 1461 Z"/><path class="sv3" d="M1977 1451 L2159 1269 L2159 1279 L1977 1461 Z" /></g><g class="o"><path transform="translate(3,6)" class="S sfh" d="M1905 1962 L1994 1873 L2032 1873 L1943 1962 Z"/><path class="fh6" d="M1905 1962 L1994 1873 L2032 1873 L1943 1962 Z" /></g><g class="o"><path transform="translate(3,6)" class="S sfv" d="M1012 971 L427 386 L427 414 L1012 999 Z"/><path class="fv3" d="M1012 971 L427 386 L427 414 L1012 999 Z" /></g><g class="o"><path transform="translate(3,6)" class="S ssh" d="M1954 1434 L2473 915 L2509 915 L1990 1434 Z"/><path class="sh1" d="M1954 1434 L2473 915 L2509 915 L1990 1434 Z" /></g><g class="o"><path transform="translate(7,14)" class="S ssv" d="M1724 1937 L2294 1367 L2294 1383 L1724 1953 Z"/><path class="sv4" d="M1724 1937 L2294 1367 L2294 1383 L1724 1953 Z" /></g><g class="o"><path transform="translate(3,6)" class="S sfv" d="M1933 995 L1788 850 L1788 880 L1933 1025 Z"/><path class="fv5" d="M1933 995 L1788 850 L1788 880 L1933 1025 Z" /></g><g class="o"><path transform="translate(8,16)" class="S sfh" d="M1995 1162 L2184 973 L2208 973 L2019 1162 Z"/><path class="fh7" d="M1995 1162 L2184 973 L2208 973 L2019 1162 Z" /></g><g class="o"><path transform="translate(9,18)" class="S sfv" d="M2026 1831 L2115 1742 L2115 1862 L2026 1951 Z"/><path class="fv5" d="M2026 1831 L2115 1742 L2115 1862 L2026 1951 Z" /></g><g class="o"><path transform="translate(9,18)" class="S sfv" d="M1184 1843 L1341 1686 L1341 1704 L1184 1861 Z"/><path class="fv1" d="M1184 1843 L1341 1686 L1341 1704 L1184 1861 Z" /></g><g class="o"><path transform="translate(6,12)" class="S sfh" d="M1994 1536 L2297 1233 L2329 1233 L2026 1536 Z"/><path class="fh5" d="M1994 1536 L2297 1233 L2329 1233 L2026 1536 Z" /></g><g class="o"><path transform="translate(4,8)" class="S sfv" d="M1104 1434 L1051 1381 L1051 1429 L1104 1482 Z"/><path class="fv2" d="M1104 1434 L1051 1381 L1051 1429 L1104 1482 Z" /></g><g class="o"><path transform="translate(5,10)" class="S ssv" d="M1130 1323 L1185 1268 L1185 1292 L1130 1347 Z"/><path class="sv4" d="M1130 1323 L1185 1268 L1185 1292 L1130 1347 Z" /></g><g class="o"><path transform="translate(3,6)" class="S sfh" d="M1142 1762 L1046 1666 L1064 1666 L1160 1762 Z"/><path class="fh3" d="M1142 1762 L1046 1666 L1064 1666 L1160 1762 Z" /></g><g class="o"><path transform="translate(9,18)" class="S sfh" d="M1893 1886 L1662 1655 L1676 1655 L1907 1886 Z"/><path class="fh5" d="M1893 1886 L1662 1655 L1676 1655 L1907 1886 Z" /></g><g class="o"><path transform="translate(3,6)" class="S sfv" d="M1966 1810 L2136 1640 L2136 1678 L1966 1848 Z"/><path class="fv5" d="M1966 1810 L2136 1640 L2136 1678 L1966 1848 Z" /></g><g class="o"><path transform="translate(7,14)" class="S sfv" d="M1559 1889 L1019 1349 L1019 1385 L1559 1925 Z"/><path class="fv6" d="M1559 1889 L1019 1349 L1019 1385 L1559 1925 Z" /></g><g class="o"><path transform="translate(3,6)" class="S sfv" d="M1722 1643 L1837 1528 L1837 1640 L1722 1755 Z"/><path class="fv5" d="M1722 1643 L1837 1528 L1837 1640 L1722 1755 Z" /></g><g class="o"><path transform="translate(4,8)" class="S sfv" d="M1773 1054 L1874 953 L1874 975 L1773 1076 Z"/><path class="fv3" d="M1773 1054 L1874 953 L1874 975 L1773 1076 Z" /></g><g class="o"><path transform="translate(4,8)" class="S sfh" d="M1498 1352 L1708 1142 L1740 1142 L1530 1352 Z"/><path class="fh5" d="M1498 1352 L1708 1142 L1740 1142 L1530 1352 Z" /></g><g class="o"><path transform="translate(4,8)" class="S sfh" d="M1380 1149 L1568 961 L1582 961 L1394 1149 Z"/><path class="fh5" d="M1380 1149 L1568 961 L1582 961 L1394 1149 Z" /></g><g class="o"><path transform="translate(2,4)" class="S sfh" d="M1165 1957 L1357 1765 L1397 1765 L1205 1957 Z"/><path class="fh7" d="M1165 1957 L1357 1765 L1397 1765 L1205 1957 Z" /></g><g class="o"><path transform="translate(8,16)" class="S sfv" d="M1646 1037 L1004 395 L1004 415 L1646 1057 Z"/><path class="fv4" d="M1646 1037 L1004 395 L1004 415 L1646 1057 Z" /></g><g class="o"><path transform="translate(8,16)" class="S sfh" d="M1263 1796 L1494 1565 L1502 1565 L1271 1796 Z"/><path class="fh4" d="M1263 1796 L1494 1565 L1502 1565 L1271 1796 Z" /></g><g class="o"><path transform="translate(5,10)" class="S ssv" d="M1818 1669 L1902 1585 L1902 1619 L1818 1703 Z"/><path class="sv6" d="M1818 1669 L1902 1585 L1902 1619 L1818 1703 Z" /></g><g class="o"><path transform="translate(9,18)" class="S sfv" d="M1474 1352 L1632 1194 L1632 1224 L1474 1382 Z"/><path class="fv7" d="M1474 1352 L1632 1194 L1632 1224 L1474 1382 Z" /></g><g class="o"><path transform="translate(6,12)" class="S sfh" d="M994 1029 L1084 939 L1116 939 L1026 1029 Z"/><path class="fh5" d="M994 1029 L1084 939 L1116 939 L1026 1029 Z" /></g><g class="o"><path transform="translate(8,16)" class="S sfv" d="M1318 1607 L1550 1375 L1550 1391 L1318 1623 Z"/><path class="fv1" d="M1318 1607 L1550 1375 L1550 1391 L1318 1623 Z" /></g><g class="o"><path transform="translate(6,12)" class="S sfv" d="M1337 1530 L1574 1293 L1574 1311 L1337 1548 Z"/><path class="fv1" d="M1337 1530 L1574 1293 L1574 1311 L1337 1548 Z" /></g><g class="o"><path transform="translate(4,8)" class="S sfv" d="M1228 1638 L1945 921 L1945 947 L1228 1664 Z"/><path class="fv3" d="M1228 1638 L1945 921 L1945 947 L1228 1664 Z" /></g><g class="o"><path transform="translate(9,18)" class="S sfh" d="M1754 1074 L1833 995 L1857 995 L1778 1074 Z"/><path class="fh6" d="M1754 1074 L1833 995 L1857 995 L1778 1074 Z" /></g><g class="o"><path transform="translate(6,12)" class="S sfh" d="M1922 1226 L2110 1038 L2134 1038 L1946 1226 Z"/><path class="fh2" d="M1922 1226 L2110 1038 L2134 1038 L1946 1226 Z" /></g><g class="o"><path transform="translate(3,6)" class="S ssh" d="M1442 1374 L1604 1212 L1628 1212 L1466 1374 Z"/><path class="sh3" d="M1442 1374 L1604 1212 L1628 1212 L1466 1374 Z" /></g><g class="o"><path transform="translate(6,12)" class="S sfv" d="M1661 1662 L1896 1427 L1896 1459 L1661 1694 Z"/><path class="fv3" d="M1661 1662 L1896 1427 L1896 1459 L1661 1694 Z" /></g><g class="o"><path transform="translate(9,18)" class="S sfv" d="M1096 1467 L1342 1221 L1342 1253 L1096 1499 Z"/><path class="fv1" d="M1096 1467 L1342 1221 L1342 1253 L1096 1499 Z" /></g><g class="o"><path transform="translate(2,4)" class="S sfh" d="M1815 1388 L2085 1118 L2181 1118 L1911 1388 Z"/><path class="fh4" d="M1815 1388 L2085 1118 L2181 1118 L1911 1388 Z" /></g><g class="o"><path transform="translate(4,8)" class="S sfv" d="M1515 1908 L1407 1800 L1407 1834 L1515 1942 Z"/><path class="fv3" d="M1515 1908 L1407 1800 L1407 1834 L1515 1942 Z" /></g><g class="o"><path transform="translate(5,10)" class="S ssv" d="M1180 1475 L1118 1413 L1118 1439 L1180 1501 Z"/><path class="sv3" d="M1180 1475 L1118 1413 L1118 1439 L1180 1501 Z" /></g><g class="o"><path transform="translate(6,12)" class="S sfh" d="M1976 1743 L2196 1523 L2204 1523 L1984 1743 Z"/><path class="fh3" d="M1976 1743 L2196 1523 L2204 1523 L1984 1743 Z" /></g><g class="o"><path transform="translate(8,16)" class="S sfv" d="M1820 1451 L1950 1321 L1950 1329 L1820 1459 Z"/><path class="fv6" d="M1820 1451 L1950 1321 L1950 1329 L1820 1459 Z" /></g><g class="o"><path transform="translate(9,18)" class="S sfv" d="M1847 2041 L1960 1928 L1960 1938 L1847 2051 Z"/><path class="fv1" d="M1847 2041 L1960 1928 L1960 1938 L1847 2051 Z" /></g><g class="o"><path transform="translate(6,12)" class="S sfv" d="M1181 1517 L1526 1172 L1526 1182 L1181 1527 Z"/><path class="fv5" d="M1181 1517 L1526 1172 L1526 1182 L1181 1527 Z" /></g><g class="o"><path transform="translate(5,10)" class="S sfh" d="M1979 1304 L1580 905 L1602 905 L2001 1304 Z"/><path class="fh1" d="M1979 1304 L1580 905 L1602 905 L2001 1304 Z" /></g><g class="o"><path transform="translate(8,16)" class="S sfv" d="M1996 1204 L1255 463 L1255 501 L1996 1242 Z"/><path class="fv4" d="M1996 1204 L1255 463 L1255 501 L1996 1242 Z" /></g><g class="o"><path transform="translate(8,16)" class="S sfv" d="M1888 1983 L2089 1782 L2089 1800 L1888 2001 Z"/><path class="fv4" d="M1888 1983 L2089 1782 L2089 1800 L1888 2001 Z" /></g><g class="o"><path transform="translate(9,18)" class="S sfh" d="M1945 1050 L1711 816 L1745 816 L1979 1050 Z"/><path class="fh5" d="M1945 1050 L1711 816 L1745 816 L1979 1050 Z" /></g><g class="o"><path transform="translate(7,14)" class="S ssv" d="M1240 1630 L1149 1539 L1149 1567 L1240 1658 Z"/><path class="sv5" d="M1240 1630 L1149 1539 L1149 1567 L1240 1658 Z" /></g><g class="o"><path transform="translate(5,10)" class="S sfv" d="M1003 1082 L1106 979 L1106 1011 L1003 1114 Z"/><path class="fv7" d="M1003 1082 L1106 979 L1106 1011 L1003 1114 Z" /></g><g class="o"><path transform="translate(5,10)" class="S sfh" d="M1790 1162 L2006 946 L2018 946 L1802 1162 Z"/><path class="fh6" d="M1790 1162 L2006 946 L2018 946 L1802 1162 Z" /></g><g class="o"><path transform="translate(5,10)" class="S sfh" d="M1696 2010 L1778 1928 L1806 1928 L1724 2010 Z"/><path class="fh6" d="M1696 2010 L1778 1928 L1806 1928 L1724 2010 Z" /></g><g class="o"><path transform="translate(9,18)" class="S sfv" d="M1265 1261 L1147 1143 L1147 1175 L1265 1293 Z"/><path class="fv6" d="M1265 1261 L1147 1143 L1147 1175 L1265 1293 Z" /></g><g class="o"><path transform="translate(6,12)" class="S sfh" d="M1441 1835 L1269 1663 L1307 1663 L1479 1835 Z"/><path class="fh6" d="M1441 1835 L1269 1663 L1307 1663 L1479 1835 Z" /></g><g class="o"><path transform="translate(8,16)" class="S sfh" d="M1213 1298 L1284 1227 L1298 1227 L1227 1298 Z"/><path class="fh6" d="M1213 1298 L1284 1227 L1298 1227 L1227 1298 Z" /></g><g class="o"><path transform="translate(9,18)" class="S sfv" d="M1676 1405 L1844 1237 L1844 1269 L1676 1437 Z"/><path class="fv1" d="M1676 1405 L1844 1237 L1844 1269 L1676 1437 Z" /></g><g class="o"><path transform="translate(5,10)" class="S sfv" d="M1037 1133 L572 668 L572 698 L1037 1163 Z"/><path class="fv3" d="M1037 1133 L572 668 L572 698 L1037 1163 Z" /></g><g class="o"><path transform="translate(6,12)" class="S sfh" d="M1745 1573 L1957 1361 L1989 1361 L1777 1573 Z"/><path class="fh5" d="M1745 1573 L1957 1361 L1989 1361 L1777 1573 Z" /></g><g class="o"><path transform="translate(4,8)" class="S sfv" d="M1359 1071 L1460 970 L1460 980 L1359 1081 Z"/><path class="fv3" d="M1359 1071 L1460 970 L1460 980 L1359 1081 Z" /></g><g class="o"><path transform="translate(6,12)" class="S ssv" d="M1635 1413 L1728 1320 L1728 1340 L1635 1433 Z"/><path class="sv5" d="M1635 1413 L1728 1320 L1728 1340 L1635 1433 Z" /></g><g class="o"><path transform="translate(2,4)" class="S sfh" d="M1530 1967 L2199 1298 L2225 1298 L1556 1967 Z"/><path class="fh4" d="M1530 1967 L2199 1298 L2225 1298 L1556 1967 Z" /></g><g class="o"><path transform="translate(9,18)" class="S sfh" d="M1090 1389 L1711 768 L1737 768 L1116 1389 Z"/><path class="fh1" d="M1090 1389 L1711 768 L1737 768 L1116 1389 Z" /></g><g class="o"><path transform="translate(3,6)" class="S sfh" d="M1306 1896 L1506 1696 L1530 1696 L1330 1896 Z"/><path class="fh5" d="M1306 1896 L1506 1696 L1530 1696 L1330 1896 Z" /></g><g class="o"><path transform="translate(8,16)" class="S ssv" d="M1849 1112 L1677 940 L1677 970 L1849 1142 Z"/><path class="sv5" d="M1849 1112 L1677 940 L1677 970 L1849 1142 Z" /></g><g class="o"><path transform="translate(5,10)" class="S ssv" d="M1963 1956 L2111 1808 L2111 1820 L1963 1968 Z"/><path class="sv5" d="M1963 1956 L2111 1808 L2111 1820 L1963 1968 Z" /></g><g class="o"><path transform="translate(4,8)" class="S sfv" d="M1577 1570 L1822 1325 L1822 1361 L1577 1606 Z"/><path class="fv3" d="M1577 1570 L1822 1325 L1822 1361 L1577 1606 Z" /></g><g class="o"><path transform="translate(4,8)" class="S sfh" d="M1018 1893 L1244 1667 L1300 1667 L1074 1893 Z"/><path class="fh2" d="M1018 1893 L1244 1667 L1300 1667 L1074 1893 Z" /></g><g class="o"><path transform="translate(9,18)" class="S sfv" d="M2047 1841 L1871 1665 L1871 1693 L2047 1869 Z"/><path class="fv1" d="M2047 1841 L1871 1665 L1871 1693 L2047 1869 Z" /></g><g class="o"><path transform="translate(8,16)" class="S sfh" d="M1276 1489 L1407 1358 L1441 1358 L1310 1489 Z"/><path class="fh2" d="M1276 1489 L1407 1358 L1441 1358 L1310 1489 Z" /></g><g class="o"><path transform="translate(9,18)" class="S sfh" d="M1592 1765 L1649 1708 L1677 1708 L1620 1765 Z"/><path class="fh7" d="M1592 1765 L1649 1708 L1677 1708 L1620 1765 Z" /></g><g class="o"><path transform="translate(4,8)" class="S sfv" d="M1863 1536 L1696 1369 L1696 1389 L1863 1556 Z"/><path class="fv1" d="M1863 1536 L1696 1369 L1696 1389 L1863 1556 Z" /></g><g class="o"><path transform="translate(3,6)" class="S sfh" d="M1194 1798 L1305 1687 L1313 1687 L1202 1798 Z"/><path class="fh6" d="M1194 1798 L1305 1687 L1313 1687 L1202 1798 Z" /></g><g class="o"><path transform="translate(5,10)" class="S sfv" d="M1877 2013 L1754 1890 L1754 1920 L1877 2043 Z"/><path class="fv4" d="M1877 2013 L1754 1890 L1754 1920 L1877 2043 Z" /></g><g class="o"><path transform="translate(4,8)" class="S sfv" d="M961 1302 L1190 1073 L1190 1095 L961 1324 Z"/><path class="fv1" d="M961 1302 L1190 1073 L1190 1095 L961 1324 Z" /></g><g class="o"><path transform="translate(9,18)" class="S sfh" d="M1759 1710 L1809 1660 L1847 1660 L1797 1710 Z"/><path class="fh1" d="M1759 1710 L1809 1660 L1847 1660 L1797 1710 Z" /></g><g class="o"><path transform="translate(5,10)" class="S ssv" d="M1921 981 L1688 748 L1688 758 L1921 991 Z"/><path class="sv6" d="M1921 981 L1688 748 L1688 758 L1921 991 Z" /></g><g class="o"><path transform="translate(5,10)" class="S ssv" d="M1299 1830 L1415 1714 L1415 1736 L1299 1852 Z"/><path class="sv6" d="M1299 1830 L1415 1714 L1415 1736 L1299 1852 Z" /></g><g class="o"><path transform="translate(8,16)" class="S sfh" d="M1562 1598 L1489 1525 L1523 1525 L1596 1598 Z"/><path class="fh2" d="M1562 1598 L1489 1525 L1523 1525 L1596 1598 Z" /></g><g class="o"><path transform="translate(7,14)" class="S sfh" d="M1888 1554 L1765 1431 L1787 1431 L1910 1554 Z"/><path class="fh5" d="M1888 1554 L1765 1431 L1787 1431 L1910 1554 Z" /></g><g class="o"><path transform="translate(7,14)" class="S sfh" d="M1128 1838 L1313 1653 L1347 1653 L1162 1838 Z"/><path class="fh2" d="M1128 1838 L1313 1653 L1347 1653 L1162 1838 Z" /></g><g class="o"><path transform="translate(7,14)" class="S sfv" d="M1483 1878 L1567 1794 L1567 1818 L1483 1902 Z"/><path class="fv4" d="M1483 1878 L1567 1794 L1567 1818 L1483 1902 Z" /></g><g class="o"><path transform="translate(3,6)" class="S sfv" d="M1669 1656 L1736 1589 L1736 1627 L1669 1694 Z"/><path class="fv2" d="M1669 1656 L1736 1589 L1736 1627 L1669 1694 Z" /></g><g class="o"><path transform="translate(6,12)" class="S sfv" d="M1363 1781 L1568 1576 L1568 1680 L1363 1885 Z"/><path class="fv2" d="M1363 1781 L1568 1576 L1568 1680 L1363 1885 Z" /></g><g class="o"><path transform="translate(3,6)" class="S sfv" d="M1488 1043 L1540 991 L1540 1127 L1488 1179 Z"/><path class="fv6" d="M1488 1043 L1540 991 L1540 1127 L1488 1179 Z" /></g><g class="o"><path transform="translate(9,18)" class="S sfv" d="M2004 1210 L2076 1138 L2076 1172 L2004 1244 Z"/><path class="fv2" d="M2004 1210 L2076 1138 L2076 1172 L2004 1244 Z" /></g><g class="o"><path transform="translate(2,4)" class="S sfh" d="M1097 1109 L1249 957 L1279 957 L1127 1109 Z"/><path class="fh2" d="M1097 1109 L1249 957 L1279 957 L1127 1109 Z" /></g><g class="o"><path transform="translate(4,8)" class="S sfh" d="M1180 1147 L1387 940 L1415 940 L1208 1147 Z"/><path class="fh2" d="M1180 1147 L1387 940 L1415 940 L1208 1147 Z" /></g><g class="o"><path transform="translate(6,12)" class="S sfv" d="M1785 1628 L1901 1512 L1901 1526 L1785 1642 Z"/><path class="fv2" d="M1785 1628 L1901 1512 L1901 1526 L1785 1642 Z" /></g><g class="o"><path transform="translate(2,4)" class="S sfh" d="M1878 1186 L2484 580 L2518 580 L1912 1186 Z"/><path class="fh5" d="M1878 1186 L2484 580 L2518 580 L1912 1186 Z" /></g><g class="o"><path transform="translate(2,4)" class="S sfh" d="M1864 1141 L1931 1074 L1945 1074 L1878 1141 Z"/><path class="fh1" d="M1864 1141 L1931 1074 L1945 1074 L1878 1141 Z" /></g><g class="o"><path transform="translate(3,6)" class="S ssh" d="M1095 1676 L1244 1527 L1260 1527 L1111 1676 Z"/><path class="sh3" d="M1095 1676 L1244 1527 L1260 1527 L1111 1676 Z" /></g><g class="o"><path transform="translate(8,16)" class="S sfv" d="M954 1219 L276 541 L276 685 L954 1363 Z"/><path class="fv6" d="M954 1219 L276 541 L276 685 L954 1363 Z" /></g><g class="o"><path transform="translate(2,4)" class="S sfh" d="M1533 1862 L1759 1636 L1795 1636 L1569 1862 Z"/><path class="fh4" d="M1533 1862 L1759 1636 L1795 1636 L1569 1862 Z" /></g><g class="o"><path transform="translate(6,12)" class="S sfh" d="M1498 1281 L1665 1114 L1761 1114 L1594 1281 Z"/><path class="fh3" d="M1498 1281 L1665 1114 L1761 1114 L1594 1281 Z" /></g><g class="o"><path transform="translate(9,18)" class="S sfh" d="M1176 1763 L1343 1596 L1355 1596 L1188 1763 Z"/><path class="fh4" d="M1176 1763 L1343 1596 L1355 1596 L1188 1763 Z" /></g><g class="o"><path transform="translate(4,8)" class="S ssh" d="M1056 1234 L1003 1181 L1015 1181 L1068 1234 Z"/><path class="sh6" d="M1056 1234 L1003 1181 L1015 1181 L1068 1234 Z" /></g><g class="o"><path transform="translate(4,8)" class="S sfv" d="M1870 1763 L2176 1457 L2176 1471 L1870 1777 Z"/><path class="fv5" d="M1870 1763 L2176 1457 L2176 1471 L1870 1777 Z" /></g><g class="o"><path transform="translate(6,12)" class="S sfv" d="M1960 1271 L1841 1152 L1841 1188 L1960 1307 Z"/><path class="fv2" d="M1960 1271 L1841 1152 L1841 1188 L1960 1307 Z" /></g><g class="o"><path transform="translate(8,16)" class="S sfv" d="M1236 1718 L1305 1649 L1305 1661 L1236 1730 Z"/><path class="fv6" d="M1236 1718 L1305 1649 L1305 1661 L1236 1730 Z" /></g><g class="o"><path transform="translate(9,18)" class="S sfh" d="M1211 1409 L1416 1204 L1446 1204 L1241 1409 Z"/><path class="fh4" d="M1211 1409 L1416 1204 L1446 1204 L1241 1409 Z" /></g><g class="o"><path transform="translate(5,10)" class="S sfh" d="M1594 1462 L1804 1252 L1832 1252 L1622 1462 Z"/><path class="fh2" d="M1594 1462 L1804 1252 L1832 1252 L1622 1462 Z" /></g><g class="o"><path transform="translate(9,18)" class="S sfh" d="M1909 1013 L2142 780 L2180 780 L1947 1013 Z"/><path class="fh6" d="M1909 1013 L2142 780 L2180 780 L1947 1013 Z" /></g><g class="o"><path transform="translate(4,8)" class="S sfh" d="M1577 1936 L1689 1824 L1715 1824 L1603 1936 Z"/><path class="fh2" d="M1577 1936 L1689 1824 L1715 1824 L1603 1936 Z" /></g><g class="o"><path transform="translate(5,10)" class="S ssv" d="M1560 1139 L1375 954 L1375 984 L1560 1169 Z"/><path class="sv6" d="M1560 1139 L1375 954 L1375 984 L1560 1169 Z" /></g><g class="o"><path transform="translate(4,8)" class="S sfv" d="M1458 1461 L1375 1378 L1375 1506 L1458 1589 Z"/><path class="fv2" d="M1458 1461 L1375 1378 L1375 1506 L1458 1589 Z" /></g><g class="o"><path transform="translate(9,18)" class="S sfv" d="M1719 1926 L1900 1745 L1900 1769 L1719 1950 Z"/><path class="fv2" d="M1719 1926 L1900 1745 L1900 1769 L1719 1950 Z" /></g><g class="o"><path transform="translate(8,16)" class="S sfh" d="M1885 1493 L2016 1362 L2026 1362 L1895 1493 Z"/><path class="fh7" d="M1885 1493 L2016 1362 L2026 1362 L1895 1493 Z" /></g><g class="o"><path transform="translate(7,14)" class="S sfv" d="M1243 1350 L1843 750 L1843 780 L1243 1380 Z"/><path class="fv5" d="M1243 1350 L1843 750 L1843 780 L1243 1380 Z" /></g><g class="o"><path transform="translate(9,18)" class="S sfh" d="M960 1629 L1100 1489 L1136 1489 L996 1629 Z"/><path class="fh6" d="M960 1629 L1100 1489 L1136 1489 L996 1629 Z" /></g><g class="o"><path transform="translate(7,14)" class="S sfv" d="M1794 1665 L2355 1104 L2355 1128 L1794 1689 Z"/><path class="fv5" d="M1794 1665 L2355 1104 L2355 1128 L1794 1689 Z" /></g><g class="o"><path transform="translate(7,14)" class="S sfh" d="M1502 1867 L2123 1246 L2155 1246 L1534 1867 Z"/><path class="fh4" d="M1502 1867 L2123 1246 L2155 1246 L1534 1867 Z" /></g><g class="o"><path transform="translate(3,6)" class="S sfv" d="M1305 1001 L1116 812 L1116 832 L1305 1021 Z"/><path class="fv6" d="M1305 1001 L1116 812 L1116 832 L1305 1021 Z" /></g><g class="o"><path transform="translate(6,12)" class="S sfh" d="M992 1042 L365 415 L437 415 L1064 1042 Z"/><path class="fh6" d="M992 1042 L365 415 L437 415 L1064 1042 Z" /></g></g><use href="#slashes" transform-origin="1500 1500" transform="rotate(180) scale(2)"/></g><rect x="1080" y="1080" width="840" height="840" stroke-width="10" class="o s4" /><use href="#slashes" transform-origin="1500 1500" transform="scale(.6)"/><use href="#slashes" transform-origin="1500 1500" transform="rotate(180) scale(.6)"/></svg>