<svg xmlns="http://www.w3.org/2000/svg" viewBox="750 750 1500 1500"><style>/*<![CDATA[*/svg{background:rgb(0,0,0);max-width:100vw;max-height:100vh}path{stroke-width:4}.o{opacity:.75}.S{opacity:.4}.sf{stroke:none;fill:black}.sfh{stroke:none;fill:url(#hs)}.sfv{stroke:none;fill:url(#vs)}.ss{stroke:black;fill:none}.ssh{stroke:url(#hs);fill:none}.ssv{stroke:url(#vs);fill:none}.s1{fill:none;stroke:rgb(229,229,229)}.f1{stroke:none;fill:rgb(229,229,229)}.sh1{fill:none;stroke:url(#h1)}.fh1{stroke:none;fill:url(#h1)}.sv1{fill:none;stroke:url(#v1)}.fv1{stroke:none;fill:url(#v1)}.s2{fill:none;stroke:rgb(255,255,255)}.f2{stroke:none;fill:rgb(255,255,255)}.sh2{fill:none;stroke:url(#h2)}.fh2{stroke:none;fill:url(#h2)}.sv2{fill:none;stroke:url(#v2)}.fv2{stroke:none;fill:url(#v2)}.s3{fill:none;stroke:rgb(20,33,61)}.f3{stroke:none;fill:rgb(20,33,61)}.sh3{fill:none;stroke:url(#h3)}.fh3{stroke:none;fill:url(#h3)}.sv3{fill:none;stroke:url(#v3)}.fv3{stroke:none;fill:url(#v3)}.s4{fill:none;stroke:rgb(34,34,34)}.f4{stroke:none;fill:rgb(34,34,34)}.sh4{fill:none;stroke:url(#h4)}.fh4{stroke:none;fill:url(#h4)}.sv4{fill:none;stroke:url(#v4)}.fv4{stroke:none;fill:url(#v4)}.s5{fill:none;stroke:rgb(252,163,17)}.f5{stroke:none;fill:rgb(252,163,17)}.sh5{fill:none;stroke:url(#h5)}.fh5{stroke:none;fill:url(#h5)}.sv5{fill:none;stroke:url(#v5)}.fv5{stroke:none;fill:url(#v5)}.s6{fill:none;stroke:rgb(255,255,255)}.f6{stroke:none;fill:rgb(255,255,255)}.sh6{fill:none;stroke:url(#h6)}.fh6{stroke:none;fill:url(#h6)}.sv6{fill:none;stroke:url(#v6)}.fv6{stroke:none;fill:url(#v6)}.s7{fill:none;stroke:rgb(255,255,0)}.f7{stroke:none;fill:rgb(255,255,0)}.sh7{fill:none;stroke:url(#h7)}.fh7{stroke:none;fill:url(#h7)}.sv7{fill:none;stroke:url(#v7)}.fv7{stroke:none;fill:url(#v7)}/*]]>*/</style><defs><linearGradient gradientTransform="rotate(90)" id="hs"><stop offset="20%" stop-color="#000" /><stop offset="95%" stop-color="rgba(0, 0, 0, 0)" /></linearGradient><linearGradient id="vs"><stop offset="20%" stop-color="#000" /><stop offset="95%" stop-color="rgba(0, 0, 0, 0)" /></linearGradient><linearGradient gradientTransform="rotate(90)" id="h1"><stop offset="20%" stop-color="rgba(229,229,229,1)" /><stop offset="95%" stop-color="rgba(229,229,229,0)" /></linearGradient><linearGradient id="v1"><stop offset="20%" stop-color="rgba(229,229,229,1)" /><stop offset="95%" stop-color="rgba(229,229,229,0)" /></linearGradient><linearGradient gradientTransform="rotate(90)" id="h2"><stop offset="20%" stop-color="rgba(255,255,255,1)" /><stop offset="95%" stop-color="rgba(255,255,255,0)" /></linearGradient><linearGradient id="v2"><stop offset="20%" stop-color="rgba(255,255,255,1)" /><stop offset="95%" stop-color="rgba(255,255,255,0)" /></linearGradient><linearGradient gradientTransform="rotate(90)" id="h3"><stop offset="20%" stop-color="rgba(20,33,61,1)" /><stop offset="95%" stop-color="rgba(20,33,61,0)" /></linearGradient><linearGradient id="v3"><stop offset="20%" stop-color="rgba(20,33,61,1)" /><stop offset="95%" stop-color="rgba(20,33,61,0)" /></linearGradient><linearGradient gradientTransform="rotate(90)" id="h4"><stop offset="20%" stop-color="rgba(34,34,34,1)" /><stop offset="95%" stop-color="rgba(34,34,34,0)" /></linearGradient><linearGradient id="v4"><stop offset="20%" stop-color="rgba(34,34,34,1)" /><stop offset="95%" stop-color="rgba(34,34,34,0)" /></linearGradient><linearGradient gradientTransform="rotate(90)" id="h5"><stop offset="20%" stop-color="rgba(252,163,17,1)" /><stop offset="95%" stop-color="rgba(252,163,17,0)" /></linearGradient><linearGradient id="v5"><stop offset="20%" stop-color="rgba(252,163,17,1)" /><stop offset="95%" stop-color="rgba(252,163,17,0)" /></linearGradient><linearGradient gradientTransform="rotate(90)" id="h6"><stop offset="20%" stop-color="rgba(255,255,255,1)" /><stop offset="95%" stop-color="rgba(255,255,255,0)" /></linearGradient><linearGradient id="v6"><stop offset="20%" stop-color="rgba(255,255,255,1)" /><stop offset="95%" stop-color="rgba(255,255,255,0)" /></linearGradient><linearGradient gradientTransform="rotate(90)" id="h7"><stop offset="20%" stop-color="rgba(255,255,0,1)" /><stop offset="95%" stop-color="rgba(255,255,0,0)" /></linearGradient><linearGradient id="v7"><stop offset="20%" stop-color="rgba(255,255,0,1)" /><stop offset="95%" stop-color="rgba(255,255,0,0)" /></linearGradient></defs><g transform-origin="1500 1500" transform="scale(2)" opacity=".2"><g id="slashes"><g class="o"><path transform="translate(7,14)" class="S sfh" d="M1747 1179 L1963 963 L1981 963 L1765 1179 Z"/><path class="fh4" d="M1747 1179 L1963 963 L1981 963 L1765 1179 Z" /></g><g class="o"><path transform="translate(9,18)" class="S sfv" d="M1055 1870 L877 2048 L877 2080 L1055 1902 Z"/><path class="fv5" d="M1055 1870 L877 2048 L877 2080 L1055 1902 Z" /></g><g class="o"><path transform="translate(7,14)" class="S sfv" d="M1493 1936 L1328 2101 L1328 2129 L1493 1964 Z"/><path class="fv7" d="M1493 1936 L1328 2101 L1328 2129 L1493 1964 Z" /></g><g class="o"><path transform="translate(3,6)" class="S sfv" d="M1885 1537 L2068 1354 L2068 1388 L1885 1571 Z"/><path class="fv6" d="M1885 1537 L2068 1354 L2068 1388 L1885 1571 Z" /></g><g class="o"><path transform="translate(3,6)" class="S sfv" d="M1084 1923 L1221 2060 L1221 2078 L1084 1941 Z"/><path class="fv6" d="M1084 1923 L1221 2060 L1221 2078 L1084 1941 Z" /></g><g class="o"><path transform="translate(3,6)" class="S sfh" d="M1355 1059 L1547 1251 L1567 1251 L1375 1059 Z"/><path class="fh1" d="M1355 1059 L1547 1251 L1567 1251 L1375 1059 Z" /></g><g class="o"><path transform="translate(9,18)" class="S sfh" d="M1136 1901 L1751 1286 L1765 1286 L1150 1901 Z"/><path class="fh1" d="M1136 1901 L1751 1286 L1765 1286 L1150 1901 Z" /></g><g class="o"><path transform="translate(2,4)" class="S sfh" d="M1542 1070 L2220 392 L2240 392 L1562 1070 Z"/><path class="fh3" d="M1542 1070 L2220 392 L2240 392 L1562 1070 Z" /></g><g class="o"><path transform="translate(5,10)" class="S sf" d="M1499 1933 L1708 1724 L1732 1724 L1523 1933 Z"/><path class="f7" d="M1499 1933 L1708 1724 L1732 1724 L1523 1933 Z" /></g><g class="o"><path transform="translate(3,6)" class="S sfh" d="M2020 1759 L1825 1954 L1855 1954 L2050 1759 Z"/><path class="fh3" d="M2020 1759 L1825 1954 L1855 1954 L2050 1759 Z" /></g><g class="o"><path transform="translate(2,4)" class="S sf" d="M981 954 L853 826 L891 826 L1019 954 Z"/><path class="f1" d="M981 954 L853 826 L891 826 L1019 954 Z" /></g><g class="o"><path transform="translate(8,16)" class="S sf" d="M1701 1581 L1518 1398 L1550 1398 L1733 1581 Z"/><path class="f4" d="M1701 1581 L1518 1398 L1550 1398 L1733 1581 Z" /></g><g class="o"><path transform="translate(2,4)" class="S ssv" d="M1776 1643 L1954 1821 L1954 1857 L1776 1679 Z"/><path class="sv5" d="M1776 1643 L1954 1821 L1954 1857 L1776 1679 Z" /></g><g class="o"><path transform="translate(2,4)" class="S sfv" d="M1391 1799 L1548 1956 L1548 1994 L1391 1837 Z"/><path class="fv2" d="M1391 1799 L1548 1956 L1548 1994 L1391 1837 Z" /></g><g class="o"><path transform="translate(9,18)" class="S sfv" d="M1271 1973 L1388 1856 L1388 1882 L1271 1999 Z"/><path class="fv6" d="M1271 1973 L1388 1856 L1388 1882 L1271 1999 Z" /></g><g class="o"><path transform="translate(8,16)" class="S sfv" d="M1758 1064 L1972 850 L1972 874 L1758 1088 Z"/><path class="fv7" d="M1758 1064 L1972 850 L1972 874 L1758 1088 Z" /></g><g class="o"><path transform="translate(3,6)" class="S sf" d="M1462 1869 L1539 1792 L1557 1792 L1480 1869 Z"/><path class="f3" d="M1462 1869 L1539 1792 L1557 1792 L1480 1869 Z" /></g><g class="o"><path transform="translate(6,12)" class="S sfv" d="M1524 1010 L1673 1159 L1673 1187 L1524 1038 Z"/><path class="fv5" d="M1524 1010 L1673 1159 L1673 1187 L1524 1038 Z" /></g><g class="o"><path transform="translate(3,6)" class="S sfv" d="M1487 1856 L1407 1936 L1407 2064 L1487 1984 Z"/><path class="fv7" d="M1487 1856 L1407 1936 L1407 2064 L1487 1984 Z" /></g><g class="o"><path transform="translate(9,18)" class="S sfh" d="M1684 1137 L1762 1215 L1788 1215 L1710 1137 Z"/><path class="fh5" d="M1684 1137 L1762 1215 L1788 1215 L1710 1137 Z" /></g><g class="o"><path transform="translate(4,8)" class="S sfv" d="M2003 1065 L2423 645 L2423 679 L2003 1099 Z"/><path class="fv7" d="M2003 1065 L2423 645 L2423 679 L2003 1099 Z" /></g><g class="o"><path transform="translate(2,4)" class="S ssv" d="M1515 1092 L1324 901 L1324 935 L1515 1126 Z"/><path class="sv1" d="M1515 1092 L1324 901 L1324 935 L1515 1126 Z" /></g><g class="o"><path transform="translate(6,12)" class="S ssv" d="M1632 1347 L1796 1511 L1796 1537 L1632 1373 Z"/><path class="sv4" d="M1632 1347 L1796 1511 L1796 1537 L1632 1373 Z" /></g><g class="o"><path transform="translate(3,6)" class="S sf" d="M1687 1070 L1935 822 L1935 832 L1687 1080 Z"/><path class="f6" d="M1687 1070 L1935 822 L1935 832 L1687 1080 Z" /></g><g class="o"><path transform="translate(7,14)" class="S sfh" d="M1046 1990 L1207 1829 L1235 1829 L1074 1990 Z"/><path class="fh5" d="M1046 1990 L1207 1829 L1235 1829 L1074 1990 Z" /></g><g class="o"><path transform="translate(3,6)" class="S sfv" d="M1678 1798 L1786 1690 L1786 1702 L1678 1810 Z"/><path class="fv7" d="M1678 1798 L1786 1690 L1786 1702 L1678 1810 Z" /></g><g class="o"><path transform="translate(2,4)" class="S sfv" d="M1753 1769 L1611 1911 L1611 1943 L1753 1801 Z"/><path class="fv1" d="M1753 1769 L1611 1911 L1611 1943 L1753 1801 Z" /></g><g class="o"><path transform="translate(2,4)" class="S sfv" d="M1844 1791 L1748 1695 L1748 1725 L1844 1821 Z"/><path class="fv3" d="M1844 1791 L1748 1695 L1748 1725 L1844 1821 Z" /></g><g class="o"><path transform="translate(4,8)" class="S sfh" d="M1275 1314 L1493 1096 L1521 1096 L1303 1314 Z"/><path class="fh3" d="M1275 1314 L1493 1096 L1521 1096 L1303 1314 Z" /></g><g class="o"><path transform="translate(7,14)" class="S sfh" d="M1975 1315 L1831 1459 L1859 1459 L2003 1315 Z"/><path class="fh3" d="M1975 1315 L1831 1459 L1859 1459 L2003 1315 Z" /></g><g class="o"><path transform="translate(8,16)" class="S sf" d="M1419 1528 L1176 1771 L1176 1787 L1419 1544 Z"/><path class="f6" d="M1419 1528 L1176 1771 L1176 1787 L1419 1544 Z" /></g><g class="o"><path transform="translate(3,6)" class="S ss" d="M1741 1066 L1606 1201 L1626 1201 L1761 1066 Z"/><path class="s7" d="M1741 1066 L1606 1201 L1626 1201 L1761 1066 Z" /></g><g class="o"><path transform="translate(2,4)" class="S sfv" d="M1491 1139 L2028 602 L2028 618 L1491 1155 Z"/><path class="fv7" d="M1491 1139 L2028 602 L2028 618 L1491 1155 Z" /></g><g class="o"><path transform="translate(9,18)" class="S ss" d="M1644 1910 L918 1184 L936 1184 L1662 1910 Z"/><path class="s4" d="M1644 1910 L918 1184 L936 1184 L1662 1910 Z" /></g><g class="o"><path transform="translate(6,12)" class="S sfv" d="M1508 1885 L1712 1681 L1712 1715 L1508 1919 Z"/><path class="fv6" d="M1508 1885 L1712 1681 L1712 1715 L1508 1919 Z" /></g><g class="o"><path transform="translate(6,12)" class="S sfv" d="M1950 1435 L2175 1210 L2175 1220 L1950 1445 Z"/><path class="fv7" d="M1950 1435 L2175 1210 L2175 1220 L1950 1445 Z" /></g><g class="o"><path transform="translate(6,12)" class="S sfh" d="M1944 1862 L1853 1771 L1883 1771 L1974 1862 Z"/><path class="fh6" d="M1944 1862 L1853 1771 L1883 1771 L1974 1862 Z" /></g><g class="o"><path transform="translate(5,10)" class="S ssh" d="M1330 1436 L1272 1494 L1290 1494 L1348 1436 Z"/><path class="sh3" d="M1330 1436 L1272 1494 L1290 1494 L1348 1436 Z" /></g><g class="o"><path transform="translate(4,8)" class="S ssv" d="M1320 1391 L1099 1170 L1099 1200 L1320 1421 Z"/><path class="sv3" d="M1320 1391 L1099 1170 L1099 1200 L1320 1421 Z" /></g><g class="o"><path transform="translate(8,16)" class="S sfv" d="M1906 1648 L2078 1476 L2078 1512 L1906 1684 Z"/><path class="fv5" d="M1906 1648 L2078 1476 L2078 1512 L1906 1684 Z" /></g><g class="o"><path transform="translate(3,6)" class="S sfh" d="M1100 1550 L1194 1644 L1210 1644 L1116 1550 Z"/><path class="fh3" d="M1100 1550 L1194 1644 L1210 1644 L1116 1550 Z" /></g><g class="o"><path transform="translate(9,18)" class="S ssv" d="M1638 1760 L1422 1544 L1422 1560 L1638 1776 Z"/><path class="sv1" d="M1638 1760 L1422 1544 L1422 1560 L1638 1776 Z" /></g><g class="o"><path transform="translate(7,14)" class="S sfv" d="M983 1903 L1090 1796 L1090 1818 L983 1925 Z"/><path class="fv1" d="M983 1903 L1090 1796 L1090 1818 L983 1925 Z" /></g><g class="o"><path transform="translate(7,14)" class="S sfv" d="M1297 1536 L1104 1343 L1104 1379 L1297 1572 Z"/><path class="fv5" d="M1297 1536 L1104 1343 L1104 1379 L1297 1572 Z" /></g><g class="o"><path transform="translate(3,6)" class="S sfv" d="M1858 1066 L2096 1304 L2096 1312 L1858 1074 Z"/><path class="fv2" d="M1858 1066 L2096 1304 L2096 1312 L1858 1074 Z" /></g><g class="o"><path transform="translate(4,8)" class="S ss" d="M1145 1764 L1343 1962 L1343 2074 L1145 1876 Z"/><path class="s2" d="M1145 1764 L1343 1962 L1343 2074 L1145 1876 Z" /></g><g class="o"><path transform="translate(8,16)" class="S sf" d="M1960 1056 L1369 465 L1399 465 L1990 1056 Z"/><path class="f2" d="M1960 1056 L1369 465 L1399 465 L1990 1056 Z" /></g><g class="o"><path transform="translate(6,12)" class="S ss" d="M1516 2015 L1357 2174 L1357 2206 L1516 2047 Z"/><path class="s5" d="M1516 2015 L1357 2174 L1357 2206 L1516 2047 Z" /></g><g class="o"><path transform="translate(9,18)" class="S sfh" d="M1707 1878 L1956 1629 L1988 1629 L1739 1878 Z"/><path class="fh3" d="M1707 1878 L1956 1629 L1988 1629 L1739 1878 Z" /></g><g class="o"><path transform="translate(7,14)" class="S sf" d="M1696 1159 L1535 998 L1555 998 L1716 1159 Z"/><path class="f5" d="M1696 1159 L1535 998 L1555 998 L1716 1159 Z" /></g><g class="o"><path transform="translate(4,8)" class="S sfh" d="M1290 1479 L1390 1379 L1402 1379 L1302 1479 Z"/><path class="fh5" d="M1290 1479 L1390 1379 L1402 1379 L1302 1479 Z" /></g><g class="o"><path transform="translate(5,10)" class="S ssh" d="M1384 1859 L1559 1684 L1591 1684 L1416 1859 Z"/><path class="sh7" d="M1384 1859 L1559 1684 L1591 1684 L1416 1859 Z" /></g><g class="o"><path transform="translate(8,16)" class="S sfv" d="M1007 1546 L873 1412 L873 1420 L1007 1554 Z"/><path class="fv4" d="M1007 1546 L873 1412 L873 1420 L1007 1554 Z" /></g><g class="o"><path transform="translate(5,10)" class="S sf" d="M1397 1945 L1194 1742 L1224 1742 L1427 1945 Z"/><path class="f4" d="M1397 1945 L1194 1742 L1224 1742 L1427 1945 Z" /></g><g class="o"><path transform="translate(9,18)" class="S sfh" d="M1479 2025 L1647 2193 L1657 2193 L1489 2025 Z"/><path class="fh4" d="M1479 2025 L1647 2193 L1657 2193 L1489 2025 Z" /></g><g class="o"><path transform="translate(2,4)" class="S sfh" d="M1593 1132 L1392 1333 L1426 1333 L1627 1132 Z"/><path class="fh4" d="M1593 1132 L1392 1333 L1426 1333 L1627 1132 Z" /></g><g class="o"><path transform="translate(6,12)" class="S sfv" d="M1499 1307 L1381 1425 L1381 1453 L1499 1335 Z"/><path class="fv3" d="M1499 1307 L1381 1425 L1381 1453 L1499 1335 Z" /></g><g class="o"><path transform="translate(5,10)" class="S sfh" d="M1745 1367 L1978 1600 L1986 1600 L1753 1367 Z"/><path class="fh6" d="M1745 1367 L1978 1600 L1986 1600 L1753 1367 Z" /></g><g class="o"><path transform="translate(4,8)" class="S sfh" d="M1772 1373 L1655 1490 L1669 1490 L1786 1373 Z"/><path class="fh6" d="M1772 1373 L1655 1490 L1669 1490 L1786 1373 Z" /></g><g class="o"><path transform="translate(8,16)" class="S sfv" d="M1847 1368 L1760 1455 L1760 1493 L1847 1406 Z"/><path class="fv2" d="M1847 1368 L1760 1455 L1760 1493 L1847 1406 Z" /></g><g class="o"><path transform="translate(5,10)" class="S sfh" d="M961 1178 L1046 1263 L1060 1263 L975 1178 Z"/><path class="fh2" d="M961 1178 L1046 1263 L1060 1263 L975 1178 Z" /></g><g class="o"><path transform="translate(4,8)" class="S sf" d="M1686 1195 L1539 1342 L1539 1374 L1686 1227 Z"/><path class="f2" d="M1686 1195 L1539 1342 L1539 1374 L1686 1227 Z" /></g><g class="o"><path transform="translate(2,4)" class="S sfv" d="M1967 1772 L1724 1529 L1724 1555 L1967 1798 Z"/><path class="fv5" d="M1967 1772 L1724 1529 L1724 1555 L1967 1798 Z" /></g><g class="o"><path transform="translate(4,8)" class="S sfh" d="M1117 2032 L934 2215 L982 2215 L1165 2032 Z"/><path class="fh2" d="M1117 2032 L934 2215 L982 2215 L1165 2032 Z" /></g><g class="o"><path transform="translate(8,16)" class="S sf" d="M1941 1259 L2325 875 L2347 875 L1963 1259 Z"/><path class="f4" d="M1941 1259 L2325 875 L2347 875 L1963 1259 Z" /></g><g class="o"><path transform="translate(2,4)" class="S sfv" d="M956 942 L870 1028 L870 1050 L956 964 Z"/><path class="fv5" d="M956 942 L870 1028 L870 1050 L956 964 Z" /></g><g class="o"><path transform="translate(4,8)" class="S sfh" d="M1269 1487 L1202 1554 L1214 1554 L1281 1487 Z"/><path class="fh2" d="M1269 1487 L1202 1554 L1214 1554 L1281 1487 Z" /></g><g class="o"><path transform="translate(2,4)" class="S ssh" d="M1754 1729 L1898 1585 L1914 1585 L1770 1729 Z"/><path class="sh4" d="M1754 1729 L1898 1585 L1914 1585 L1770 1729 Z" /></g><g class="o"><path transform="translate(2,4)" class="S ssv" d="M1163 1414 L1031 1282 L1031 1290 L1163 1422 Z"/><path class="sv2" d="M1163 1414 L1031 1282 L1031 1290 L1163 1422 Z" /></g><g class="o"><path transform="translate(8,16)" class="S sfv" d="M957 1069 L1100 1212 L1100 1246 L957 1103 Z"/><path class="fv1" d="M957 1069 L1100 1212 L1100 1246 L957 1103 Z" /></g><g class="o"><path transform="translate(4,8)" class="S sfh" d="M1890 1175 L1602 1463 L1630 1463 L1918 1175 Z"/><path class="fh4" d="M1890 1175 L1602 1463 L1630 1463 L1918 1175 Z" /></g><g class="o"><path transform="translate(6,12)" class="S sfh" d="M1169 1623 L1302 1756 L1322 1756 L1189 1623 Z"/><path class="fh2" d="M1169 1623 L1302 1756 L1322 1756 L1189 1623 Z" /></g><g class="o"><path transform="translate(9,18)" class="S sfv" d="M1848 1594 L1769 1515 L1769 1587 L1848 1666 Z"/><path class="fv5" d="M1848 1594 L1769 1515 L1769 1587 L1848 1666 Z" /></g><g class="o"><path transform="translate(7,14)" class="S sfv" d="M1737 1307 L1939 1105 L1939 1143 L1737 1345 Z"/><path class="fv7" d="M1737 1307 L1939 1105 L1939 1143 L1737 1345 Z" /></g><g class="o"><path transform="translate(9,18)" class="S ss" d="M1900 1538 L1819 1619 L1847 1619 L1928 1538 Z"/><path class="s2" d="M1900 1538 L1819 1619 L1847 1619 L1928 1538 Z" /></g><g class="o"><path transform="translate(5,10)" class="S sf" d="M1193 1608 L1321 1736 L1345 1736 L1217 1608 Z"/><path class="f2" d="M1193 1608 L1321 1736 L1345 1736 L1217 1608 Z" /></g><g class="o"><path transform="translate(9,18)" class="S sfh" d="M1033 1913 L1265 2145 L1281 2145 L1049 1913 Z"/><path class="fh4" d="M1033 1913 L1265 2145 L1281 2145 L1049 1913 Z" /></g><g class="o"><path transform="translate(2,4)" class="S sfv" d="M1663 1786 L1548 1671 L1548 1681 L1663 1796 Z"/><path class="fv7" d="M1663 1786 L1548 1671 L1548 1681 L1663 1796 Z" /></g><g class="o"><path transform="translate(4,8)" class="S sfv" d="M1528 1344 L1613 1259 L1613 1281 L1528 1366 Z"/><path class="fv1" d="M1528 1344 L1613 1259 L1613 1281 L1528 1366 Z" /></g><g class="o"><path transform="translate(9,18)" class="S sfv" d="M1081 1430 L1567 1916 L1567 1932 L1081 1446 Z"/><path class="fv1" d="M1081 1430 L1567 1916 L1567 1932 L1081 1446 Z" /></g><g class="o"><path transform="translate(3,6)" class="S sfv" d="M1938 1190 L2103 1025 L2103 1047 L1938 1212 Z"/><path class="fv1" d="M1938 1190 L2103 1025 L2103 1047 L1938 1212 Z" /></g><g class="o"><path transform="translate(6,12)" class="S sfh" d="M1073 1728 L860 1515 L898 1515 L1111 1728 Z"/><path class="fh7" d="M1073 1728 L860 1515 L898 1515 L1111 1728 Z" /></g><g class="o"><path transform="translate(6,12)" class="S sfv" d="M1058 1554 L491 987 L491 1021 L1058 1588 Z"/><path class="fv2" d="M1058 1554 L491 987 L491 1021 L1058 1588 Z" /></g><g class="o"><path transform="translate(6,12)" class="S sfv" d="M2014 1904 L1923 1995 L1923 2005 L2014 1914 Z"/><path class="fv5" d="M2014 1904 L1923 1995 L1923 2005 L2014 1914 Z" /></g><g class="o"><path transform="translate(8,16)" class="S sfh" d="M1617 1532 L1757 1672 L1787 1672 L1647 1532 Z"/><path class="fh3" d="M1617 1532 L1757 1672 L1787 1672 L1647 1532 Z" /></g><g class="o"><path transform="translate(6,12)" class="S sfv" d="M1111 1987 L992 2106 L992 2114 L1111 1995 Z"/><path class="fv6" d="M1111 1987 L992 2106 L992 2114 L1111 1995 Z" /></g><g class="o"><path transform="translate(4,8)" class="S sfv" d="M1342 1866 L1269 1793 L1269 1821 L1342 1894 Z"/><path class="fv3" d="M1342 1866 L1269 1793 L1269 1821 L1342 1894 Z" /></g><g class="o"><path transform="translate(6,12)" class="S sf" d="M1235 1432 L1066 1263 L1088 1263 L1257 1432 Z"/><path class="f5" d="M1235 1432 L1066 1263 L1088 1263 L1257 1432 Z" /></g><g class="o"><path transform="translate(5,10)" class="S ssh" d="M971 1807 L1054 1724 L1084 1724 L1001 1807 Z"/><path class="sh3" d="M971 1807 L1054 1724 L1084 1724 L1001 1807 Z" /></g><g class="o"><path transform="translate(9,18)" class="S sfv" d="M1720 1070 L1644 994 L1644 1026 L1720 1102 Z"/><path class="fv3" d="M1720 1070 L1644 994 L1644 1026 L1720 1102 Z" /></g><g class="o"><path transform="translate(7,14)" class="S sf" d="M1456 1887 L1240 2103 L1240 2183 L1456 1967 Z"/><path class="f6" d="M1456 1887 L1240 2103 L1240 2183 L1456 1967 Z" /></g><g class="o"><path transform="translate(8,16)" class="S sfv" d="M1756 981 L1896 1121 L1896 1131 L1756 991 Z"/><path class="fv1" d="M1756 981 L1896 1121 L1896 1131 L1756 991 Z" /></g><g class="o"><path transform="translate(2,4)" class="S sfh" d="M1737 1494 L1842 1389 L1856 1389 L1751 1494 Z"/><path class="fh1" d="M1737 1494 L1842 1389 L1856 1389 L1751 1494 Z" /></g><g class="o"><path transform="translate(8,16)" class="S sfv" d="M1245 1815 L1350 1710 L1350 1732 L1245 1837 Z"/><path class="fv5" d="M1245 1815 L1350 1710 L1350 1732 L1245 1837 Z" /></g><g class="o"><path transform="translate(3,6)" class="S sfv" d="M1662 1358 L1479 1175 L1479 1215 L1662 1398 Z"/><path class="fv2" d="M1662 1358 L1479 1175 L1479 1215 L1662 1398 Z" /></g><g class="o"><path transform="translate(6,12)" class="S ssh" d="M1798 1630 L1904 1524 L1918 1524 L1812 1630 Z"/><path class="sh5" d="M1798 1630 L1904 1524 L1918 1524 L1812 1630 Z" /></g><g class="o"><path transform="translate(2,4)" class="S sfv" d="M1707 1278 L1768 1339 L1768 1357 L1707 1296 Z"/><path class="fv4" d="M1707 1278 L1768 1339 L1768 1357 L1707 1296 Z" /></g><g class="o"><path transform="translate(6,12)" class="S sfh" d="M1107 1630 L958 1481 L992 1481 L1141 1630 Z"/><path class="fh1" d="M1107 1630 L958 1481 L992 1481 L1141 1630 Z" /></g><g class="o"><path transform="translate(7,14)" class="S sfh" d="M1636 1259 L1398 1021 L1412 1021 L1650 1259 Z"/><path class="fh6" d="M1636 1259 L1398 1021 L1412 1021 L1650 1259 Z" /></g><g class="o"><path transform="translate(5,10)" class="S ssh" d="M1382 1194 L1510 1322 L1538 1322 L1410 1194 Z"/><path class="sh1" d="M1382 1194 L1510 1322 L1538 1322 L1410 1194 Z" /></g><g class="o"><path transform="translate(7,14)" class="S sf" d="M1761 992 L1554 785 L1566 785 L1773 992 Z"/><path class="f3" d="M1761 992 L1554 785 L1566 785 L1773 992 Z" /></g><g class="o"><path transform="translate(4,8)" class="S sfh" d="M1329 1683 L1492 1846 L1520 1846 L1357 1683 Z"/><path class="fh1" d="M1329 1683 L1492 1846 L1520 1846 L1357 1683 Z" /></g><g class="o"><path transform="translate(6,12)" class="S sfv" d="M1450 1994 L1546 1898 L1546 1930 L1450 2026 Z"/><path class="fv5" d="M1450 1994 L1546 1898 L1546 1930 L1450 2026 Z" /></g><g class="o"><path transform="translate(7,14)" class="S sfv" d="M1059 1088 L919 948 L919 962 L1059 1102 Z"/><path class="fv4" d="M1059 1088 L919 948 L919 962 L1059 1102 Z" /></g><g class="o"><path transform="translate(2,4)" class="S sf" d="M1106 1613 L1772 2279 L1772 2295 L1106 1629 Z"/><path class="f1" d="M1106 1613 L1772 2279 L1772 2295 L1106 1629 Z" /></g><g class="o"><path transform="translate(6,12)" class="S sf" d="M1938 1428 L2016 1506 L2016 1522 L1938 1444 Z"/><path class="f7" d="M1938 1428 L2016 1506 L2016 1522 L1938 1444 Z" /></g><g class="o"><path transform="translate(2,4)" class="S sfv" d="M1993 1005 L2497 501 L2497 509 L1993 1013 Z"/><path class="fv4" d="M1993 1005 L2497 501 L2497 509 L1993 1013 Z" /></g><g class="o"><path transform="translate(3,6)" class="S sfh" d="M1839 1581 L2433 2175 L2553 2175 L1959 1581 Z"/><path class="fh7" d="M1839 1581 L2433 2175 L2553 2175 L1959 1581 Z" /></g><g class="o"><path transform="translate(6,12)" class="S ssh" d="M1428 1453 L1655 1226 L1683 1226 L1456 1453 Z"/><path class="sh1" d="M1428 1453 L1655 1226 L1683 1226 L1456 1453 Z" /></g><g class="o"><path transform="translate(9,18)" class="S ssh" d="M1457 1179 L1225 947 L1237 947 L1469 1179 Z"/><path class="sh1" d="M1457 1179 L1225 947 L1237 947 L1469 1179 Z" /></g><g class="o"><path transform="translate(4,8)" class="S sfh" d="M989 1767 L1163 1593 L1193 1593 L1019 1767 Z"/><path class="fh5" d="M989 1767 L1163 1593 L1193 1593 L1019 1767 Z" /></g><g class="o"><path transform="translate(9,18)" class="S sfv" d="M1768 1427 L1264 1931 L1264 1963 L1768 1459 Z"/><path class="fv4" d="M1768 1427 L1264 1931 L1264 1963 L1768 1459 Z" /></g><g class="o"><path transform="translate(4,8)" class="S ssv" d="M1455 999 L1559 1103 L1559 1123 L1455 1019 Z"/><path class="sv1" d="M1455 999 L1559 1103 L1559 1123 L1455 1019 Z" /></g><g class="o"><path transform="translate(7,14)" class="S sfh" d="M985 1100 L1060 1025 L1092 1025 L1017 1100 Z"/><path class="fh6" d="M985 1100 L1060 1025 L1092 1025 L1017 1100 Z" /></g><g class="o"><path transform="translate(8,16)" class="S ssv" d="M1524 1651 L1681 1808 L1681 1840 L1524 1683 Z"/><path class="sv4" d="M1524 1651 L1681 1808 L1681 1840 L1524 1683 Z" /></g><g class="o"><path transform="translate(5,10)" class="S sfv" d="M1679 1957 L1919 2197 L1919 2231 L1679 1991 Z"/><path class="fv5" d="M1679 1957 L1919 2197 L1919 2231 L1679 1991 Z" /></g><g class="o"><path transform="translate(9,18)" class="S sfh" d="M1460 1723 L2147 1036 L2275 1036 L1588 1723 Z"/><path class="fh2" d="M1460 1723 L2147 1036 L2275 1036 L1588 1723 Z" /></g><g class="o"><path transform="translate(4,8)" class="S sfv" d="M1689 1436 L1527 1274 L1527 1302 L1689 1464 Z"/><path class="fv6" d="M1689 1436 L1527 1274 L1527 1302 L1689 1464 Z" /></g><g class="o"><path transform="translate(2,4)" class="S sfh" d="M1790 1835 L1990 1635 L2026 1635 L1826 1835 Z"/><path class="fh3" d="M1790 1835 L1990 1635 L2026 1635 L1826 1835 Z" /></g><g class="o"><path transform="translate(6,12)" class="S sfv" d="M1679 1048 L1893 834 L1893 862 L1679 1076 Z"/><path class="fv1" d="M1679 1048 L1893 834 L1893 862 L1679 1076 Z" /></g><g class="o"><path transform="translate(2,4)" class="S sfh" d="M1080 1828 L1211 1959 L1223 1959 L1092 1828 Z"/><path class="fh2" d="M1080 1828 L1211 1959 L1223 1959 L1092 1828 Z" /></g><g class="o"><path transform="translate(5,10)" class="S sfv" d="M1782 1846 L2019 1609 L2019 1647 L1782 1884 Z"/><path class="fv7" d="M1782 1846 L2019 1609 L2019 1647 L1782 1884 Z" /></g><g class="o"><path transform="translate(3,6)" class="S sfv" d="M977 1533 L1697 2253 L1697 2263 L977 1543 Z"/><path class="fv5" d="M977 1533 L1697 2253 L1697 2263 L977 1543 Z" /></g><g class="o"><path transform="translate(4,8)" class="S sfv" d="M1010 1740 L1194 1924 L1194 1954 L1010 1770 Z"/><path class="fv1" d="M1010 1740 L1194 1924 L1194 1954 L1010 1770 Z" /></g><g class="o"><path transform="translate(6,12)" class="S sf" d="M1745 1410 L1969 1634 L1969 1656 L1745 1432 Z"/><path class="f2" d="M1745 1410 L1969 1634 L1969 1656 L1745 1432 Z" /></g><g class="o"><path transform="translate(7,14)" class="S ssh" d="M1305 1783 L1221 1867 L1255 1867 L1339 1783 Z"/><path class="sh1" d="M1305 1783 L1221 1867 L1255 1867 L1339 1783 Z" /></g><g class="o"><path transform="translate(4,8)" class="S sfh" d="M1479 1186 L753 460 L783 460 L1509 1186 Z"/><path class="fh5" d="M1479 1186 L753 460 L783 460 L1509 1186 Z" /></g><g class="o"><path transform="translate(5,10)" class="S sfv" d="M1815 999 L1867 947 L1867 963 L1815 1015 Z"/><path class="fv4" d="M1815 999 L1867 947 L1867 963 L1815 1015 Z" /></g><g class="o"><path transform="translate(9,18)" class="S sfv" d="M1257 1194 L1147 1304 L1147 1336 L1257 1226 Z"/><path class="fv4" d="M1257 1194 L1147 1304 L1147 1336 L1257 1226 Z" /></g><g class="o"><path transform="translate(4,8)" class="S sfv" d="M1469 1108 L1520 1057 L1520 1077 L1469 1128 Z"/><path class="fv2" d="M1469 1108 L1520 1057 L1520 1077 L1469 1128 Z" /></g><g class="o"><path transform="translate(5,10)" class="S sfh" d="M1126 1178 L1209 1095 L1229 1095 L1146 1178 Z"/><path class="fh7" d="M1126 1178 L1209 1095 L1229 1095 L1146 1178 Z" /></g><g class="o"><path transform="translate(5,10)" class="S ssh" d="M1534 1252 L1972 814 L1998 814 L1560 1252 Z"/><path class="sh2" d="M1534 1252 L1972 814 L1998 814 L1560 1252 Z" /></g><g class="o"><path transform="translate(6,12)" class="S sfv" d="M1323 1826 L1473 1976 L1473 1998 L1323 1848 Z"/><path class="fv7" d="M1323 1826 L1473 1976 L1473 1998 L1323 1848 Z" /></g><g class="o"><path transform="translate(6,12)" class="S sfv" d="M1877 2022 L2255 1644 L2255 1676 L1877 2054 Z"/><path class="fv6" d="M1877 2022 L2255 1644 L2255 1676 L1877 2054 Z" /></g><g class="o"><path transform="translate(5,10)" class="S sf" d="M1199 1072 L1302 969 L1302 993 L1199 1096 Z"/><path class="f6" d="M1199 1072 L1302 969 L1302 993 L1199 1096 Z" /></g><g class="o"><path transform="translate(2,4)" class="S sfv" d="M1383 1083 L1155 855 L1155 959 L1383 1187 Z"/><path class="fv6" d="M1383 1083 L1155 855 L1155 959 L1383 1187 Z" /></g><g class="o"><path transform="translate(2,4)" class="S ssv" d="M1541 1312 L1721 1492 L1721 1530 L1541 1350 Z"/><path class="sv7" d="M1541 1312 L1721 1492 L1721 1530 L1541 1350 Z" /></g><g class="o"><path transform="translate(5,10)" class="S sfv" d="M1053 1704 L564 1215 L564 1367 L1053 1856 Z"/><path class="fv5" d="M1053 1704 L564 1215 L564 1367 L1053 1856 Z" /></g><g class="o"><path transform="translate(4,8)" class="S sfh" d="M943 1952 L1118 1777 L1154 1777 L979 1952 Z"/><path class="fh7" d="M943 1952 L1118 1777 L1154 1777 L979 1952 Z" /></g><g class="o"><path transform="translate(6,12)" class="S ssv" d="M1537 1480 L1686 1331 L1686 1367 L1537 1516 Z"/><path class="sv2" d="M1537 1480 L1686 1331 L1686 1367 L1537 1516 Z" /></g><g class="o"><path transform="translate(7,14)" class="S sfh" d="M1520 1066 L1118 664 L1246 664 L1648 1066 Z"/><path class="fh5" d="M1520 1066 L1118 664 L1246 664 L1648 1066 Z" /></g><g class="o"><path transform="translate(3,6)" class="S sf" d="M1621 1975 L1849 1747 L1849 1767 L1621 1995 Z"/><path class="f4" d="M1621 1975 L1849 1747 L1849 1767 L1621 1995 Z" /></g><g class="o"><path transform="translate(8,16)" class="S sfh" d="M1960 1953 L2105 2098 L2129 2098 L1984 1953 Z"/><path class="fh1" d="M1960 1953 L2105 2098 L2129 2098 L1984 1953 Z" /></g><g class="o"><path transform="translate(9,18)" class="S sfh" d="M1972 1089 L2665 1782 L2685 1782 L1992 1089 Z"/><path class="fh5" d="M1972 1089 L2665 1782 L2685 1782 L1992 1089 Z" /></g><g class="o"><path transform="translate(9,18)" class="S sfv" d="M1417 1148 L1611 1342 L1611 1378 L1417 1184 Z"/><path class="fv2" d="M1417 1148 L1611 1342 L1611 1378 L1417 1184 Z" /></g><g class="o"><path transform="translate(9,18)" class="S sfv" d="M1449 1188 L1615 1022 L1615 1044 L1449 1210 Z"/><path class="fv7" d="M1449 1188 L1615 1022 L1615 1044 L1449 1210 Z" /></g><g class="o"><path transform="translate(5,10)" class="S ssh" d="M1271 1311 L1398 1438 L1424 1438 L1297 1311 Z"/><path class="sh7" d="M1271 1311 L1398 1438 L1424 1438 L1297 1311 Z" /></g><g class="o"><path transform="translate(3,6)" class="S sfv" d="M1775 1300 L1942 1133 L1942 1159 L1775 1326 Z"/><path class="fv7" d="M1775 1300 L1942 1133 L1942 1159 L1775 1326 Z" /></g><g class="o"><path transform="translate(7,14)" class="S sfh" d="M943 1582 L786 1425 L808 1425 L965 1582 Z"/><path class="fh3" d="M943 1582 L786 1425 L808 1425 L965 1582 Z" /></g><g class="o"><path transform="translate(3,6)" class="S sfv" d="M1362 1436 L1588 1210 L1588 1240 L1362 1466 Z"/><path class="fv6" d="M1362 1436 L1588 1210 L1588 1240 L1362 1466 Z" /></g></g><use href="#slashes" transform-origin="1500 1500" transform="rotate(180) scale(2)"/></g><rect x="1080" y="1080" width="840" height="840" stroke-width="20" class="o s1" /><use href="#slashes" transform-origin="1500 1500" transform="scale(.6)"/><use href="#slashes" transform-origin="1500 1500" transform="rotate(180) scale(.6)"/></svg>