<svg xmlns="http://www.w3.org/2000/svg" viewBox="750 750 1500 1500"><style>/*<![CDATA[*/svg{background:rgb(58,80,107);max-width:100vw;max-height:100vh}path{stroke-width:4}.o{opacity:.75}.S{opacity:.4}.sf{stroke:none;fill:black}.sfh{stroke:none;fill:url(#hs)}.sfv{stroke:none;fill:url(#vs)}.ss{stroke:black;fill:none}.ssh{stroke:url(#hs);fill:none}.ssv{stroke:url(#vs);fill:none}.s1{fill:none;stroke:rgb(111,255,233)}.f1{stroke:none;fill:rgb(111,255,233)}.sh1{fill:none;stroke:url(#h1)}.fh1{stroke:none;fill:url(#h1)}.sv1{fill:none;stroke:url(#v1)}.fv1{stroke:none;fill:url(#v1)}.s2{fill:none;stroke:rgb(91,192,190)}.f2{stroke:none;fill:rgb(91,192,190)}.sh2{fill:none;stroke:url(#h2)}.fh2{stroke:none;fill:url(#h2)}.sv2{fill:none;stroke:url(#v2)}.fv2{stroke:none;fill:url(#v2)}.s3{fill:none;stroke:rgb(11,19,43)}.f3{stroke:none;fill:rgb(11,19,43)}.sh3{fill:none;stroke:url(#h3)}.fh3{stroke:none;fill:url(#h3)}.sv3{fill:none;stroke:url(#v3)}.fv3{stroke:none;fill:url(#v3)}.s4{fill:none;stroke:rgb(28,37,65)}.f4{stroke:none;fill:rgb(28,37,65)}.sh4{fill:none;stroke:url(#h4)}.fh4{stroke:none;fill:url(#h4)}.sv4{fill:none;stroke:url(#v4)}.fv4{stroke:none;fill:url(#v4)}.s5{fill:none;stroke:rgb(34,34,34)}.f5{stroke:none;fill:rgb(34,34,34)}.sh5{fill:none;stroke:url(#h5)}.fh5{stroke:none;fill:url(#h5)}.sv5{fill:none;stroke:url(#v5)}.fv5{stroke:none;fill:url(#v5)}.s6{fill:none;stroke:rgb(255,255,255)}.f6{stroke:none;fill:rgb(255,255,255)}.sh6{fill:none;stroke:url(#h6)}.fh6{stroke:none;fill:url(#h6)}.sv6{fill:none;stroke:url(#v6)}.fv6{stroke:none;fill:url(#v6)}.s7{fill:none;stroke:rgb(255,0,0)}.f7{stroke:none;fill:rgb(255,0,0)}.sh7{fill:none;stroke:url(#h7)}.fh7{stroke:none;fill:url(#h7)}.sv7{fill:none;stroke:url(#v7)}.fv7{stroke:none;fill:url(#v7)}/*]]>*/</style><defs><linearGradient gradientTransform="rotate(90)" id="hs"><stop offset="20%" stop-color="#000" /><stop offset="95%" stop-color="rgba(0, 0, 0, 0)" /></linearGradient><linearGradient id="vs"><stop offset="20%" stop-color="#000" /><stop offset="95%" stop-color="rgba(0, 0, 0, 0)" /></linearGradient><linearGradient gradientTransform="rotate(90)" id="h1"><stop offset="20%" stop-color="rgba(111,255,233,1)" /><stop offset="95%" stop-color="rgba(111,255,233,0)" /></linearGradient><linearGradient id="v1"><stop offset="20%" stop-color="rgba(111,255,233,1)" /><stop offset="95%" stop-color="rgba(111,255,233,0)" /></linearGradient><linearGradient gradientTransform="rotate(90)" id="h2"><stop offset="20%" stop-color="rgba(91,192,190,1)" /><stop offset="95%" stop-color="rgba(91,192,190,0)" /></linearGradient><linearGradient id="v2"><stop offset="20%" stop-color="rgba(91,192,190,1)" /><stop offset="95%" stop-color="rgba(91,192,190,0)" /></linearGradient><linearGradient gradientTransform="rotate(90)" id="h3"><stop offset="20%" stop-color="rgba(11,19,43,1)" /><stop offset="95%" stop-color="rgba(11,19,43,0)" /></linearGradient><linearGradient id="v3"><stop offset="20%" stop-color="rgba(11,19,43,1)" /><stop offset="95%" stop-color="rgba(11,19,43,0)" /></linearGradient><linearGradient gradientTransform="rotate(90)" id="h4"><stop offset="20%" stop-color="rgba(28,37,65,1)" /><stop offset="95%" stop-color="rgba(28,37,65,0)" /></linearGradient><linearGradient id="v4"><stop offset="20%" stop-color="rgba(28,37,65,1)" /><stop offset="95%" stop-color="rgba(28,37,65,0)" /></linearGradient><linearGradient gradientTransform="rotate(90)" id="h5"><stop offset="20%" stop-color="rgba(34,34,34,1)" /><stop offset="95%" stop-color="rgba(34,34,34,0)" /></linearGradient><linearGradient id="v5"><stop offset="20%" stop-color="rgba(34,34,34,1)" /><stop offset="95%" stop-color="rgba(34,34,34,0)" /></linearGradient><linearGradient gradientTransform="rotate(90)" id="h6"><stop offset="20%" stop-color="rgba(255,255,255,1)" /><stop offset="95%" stop-color="rgba(255,255,255,0)" /></linearGradient><linearGradient id="v6"><stop offset="20%" stop-color="rgba(255,255,255,1)" /><stop offset="95%" stop-color="rgba(255,255,255,0)" /></linearGradient><linearGradient gradientTransform="rotate(90)" id="h7"><stop offset="20%" stop-color="rgba(255,0,0,1)" /><stop offset="95%" stop-color="rgba(255,0,0,0)" /></linearGradient><linearGradient id="v7"><stop offset="20%" stop-color="rgba(255,0,0,1)" /><stop offset="95%" stop-color="rgba(255,0,0,0)" /></linearGradient></defs><g transform-origin="1500 1500" transform="scale(2)" opacity=".2"><g id="slashes"><g class="o"><path transform="translate(4,8)" class="S sfv" d="M1530 1861 L1709 1682 L1709 1694 L1530 1873 Z"/><path class="fv3" d="M1530 1861 L1709 1682 L1709 1694 L1530 1873 Z" /></g><g class="o"><path transform="translate(6,12)" class="S ssv" d="M1623 1438 L1795 1266 L1795 1304 L1623 1476 Z"/><path class="sv1" d="M1623 1438 L1795 1266 L1795 1304 L1623 1476 Z" /></g><g class="o"><path transform="translate(5,10)" class="S sfh" d="M1979 1379 L2222 1136 L2246 1136 L2003 1379 Z"/><path class="fh5" d="M1979 1379 L2222 1136 L2246 1136 L2003 1379 Z" /></g><g class="o"><path transform="translate(2,4)" class="S ssh" d="M2030 1730 L2197 1563 L2205 1563 L2038 1730 Z"/><path class="sh5" d="M2030 1730 L2197 1563 L2205 1563 L2038 1730 Z" /></g><g class="o"><path transform="translate(3,6)" class="S sfh" d="M1334 1492 L1745 1903 L1765 1903 L1354 1492 Z"/><path class="fh7" d="M1334 1492 L1745 1903 L1765 1903 L1354 1492 Z" /></g><g class="o"><path transform="translate(6,12)" class="S sfh" d="M1805 1280 L1896 1189 L2032 1189 L1941 1280 Z"/><path class="fh4" d="M1805 1280 L1896 1189 L2032 1189 L1941 1280 Z" /></g><g class="o"><path transform="translate(3,6)" class="S sfv" d="M972 1149 L1155 966 L1155 974 L972 1157 Z"/><path class="fv7" d="M972 1149 L1155 966 L1155 974 L972 1157 Z" /></g><g class="o"><path transform="translate(9,18)" class="S sf" d="M958 1150 L1163 1355 L1163 1375 L958 1170 Z"/><path class="f5" d="M958 1150 L1163 1355 L1163 1375 L958 1170 Z" /></g><g class="o"><path transform="translate(2,4)" class="S sfh" d="M1864 1939 L2029 1774 L2063 1774 L1898 1939 Z"/><path class="fh3" d="M1864 1939 L2029 1774 L2063 1774 L1898 1939 Z" /></g><g class="o"><path transform="translate(3,6)" class="S sfh" d="M1900 1459 L1964 1523 L2100 1523 L2036 1459 Z"/><path class="fh4" d="M1900 1459 L1964 1523 L2100 1523 L2036 1459 Z" /></g><g class="o"><path transform="translate(7,14)" class="S sf" d="M1137 1726 L1201 1662 L1265 1662 L1201 1726 Z"/><path class="f1" d="M1137 1726 L1201 1662 L1265 1662 L1201 1726 Z" /></g><g class="o"><path transform="translate(2,4)" class="S sfv" d="M1382 1511 L1895 2024 L1895 2058 L1382 1545 Z"/><path class="fv7" d="M1382 1511 L1895 2024 L1895 2058 L1382 1545 Z" /></g><g class="o"><path transform="translate(7,14)" class="S sf" d="M1329 1055 L1570 814 L1570 854 L1329 1095 Z"/><path class="f1" d="M1329 1055 L1570 814 L1570 854 L1329 1095 Z" /></g><g class="o"><path transform="translate(4,8)" class="S ssh" d="M1234 1623 L1469 1388 L1477 1388 L1242 1623 Z"/><path class="sh2" d="M1234 1623 L1469 1388 L1477 1388 L1242 1623 Z" /></g><g class="o"><path transform="translate(6,12)" class="S sfh" d="M1896 1448 L2042 1594 L2062 1594 L1916 1448 Z"/><path class="fh3" d="M1896 1448 L2042 1594 L2062 1594 L1916 1448 Z" /></g><g class="o"><path transform="translate(3,6)" class="S sfh" d="M1858 1417 L1968 1307 L2112 1307 L2002 1417 Z"/><path class="fh3" d="M1858 1417 L1968 1307 L2112 1307 L2002 1417 Z" /></g><g class="o"><path transform="translate(5,10)" class="S sfv" d="M1938 1602 L2164 1828 L2164 1852 L1938 1626 Z"/><path class="fv3" d="M1938 1602 L2164 1828 L2164 1852 L1938 1626 Z" /></g><g class="o"><path transform="translate(6,12)" class="S sfh" d="M1755 1450 L1851 1354 L1889 1354 L1793 1450 Z"/><path class="fh5" d="M1755 1450 L1851 1354 L1889 1354 L1793 1450 Z" /></g><g class="o"><path transform="translate(4,8)" class="S sfv" d="M1465 1139 L1598 1006 L1598 1044 L1465 1177 Z"/><path class="fv1" d="M1465 1139 L1598 1006 L1598 1044 L1465 1177 Z" /></g><g class="o"><path transform="translate(4,8)" class="S sfh" d="M1559 1353 L2087 1881 L2107 1881 L1579 1353 Z"/><path class="fh7" d="M1559 1353 L2087 1881 L2107 1881 L1579 1353 Z" /></g><g class="o"><path transform="translate(5,10)" class="S ssv" d="M1736 1710 L1960 1486 L1960 1496 L1736 1720 Z"/><path class="sv6" d="M1736 1710 L1960 1486 L1960 1496 L1736 1720 Z" /></g><g class="o"><path transform="translate(7,14)" class="S ss" d="M1049 1243 L1242 1436 L1242 1444 L1049 1251 Z"/><path class="s3" d="M1049 1243 L1242 1436 L1242 1444 L1049 1251 Z" /></g><g class="o"><path transform="translate(7,14)" class="S ssv" d="M1325 951 L1450 1076 L1450 1108 L1325 983 Z"/><path class="sv1" d="M1325 951 L1450 1076 L1450 1108 L1325 983 Z" /></g><g class="o"><path transform="translate(9,18)" class="S sfv" d="M1196 1941 L1326 2071 L1326 2085 L1196 1955 Z"/><path class="fv4" d="M1196 1941 L1326 2071 L1326 2085 L1196 1955 Z" /></g><g class="o"><path transform="translate(3,6)" class="S sfh" d="M1735 1120 L2173 1558 L2189 1558 L1751 1120 Z"/><path class="fh6" d="M1735 1120 L2173 1558 L2189 1558 L1751 1120 Z" /></g><g class="o"><path transform="translate(5,10)" class="S sfv" d="M1086 1302 L1212 1428 L1212 1452 L1086 1326 Z"/><path class="fv1" d="M1086 1302 L1212 1428 L1212 1452 L1086 1326 Z" /></g><g class="o"><path transform="translate(9,18)" class="S sfh" d="M1362 1770 L1449 1683 L1465 1683 L1378 1770 Z"/><path class="fh2" d="M1362 1770 L1449 1683 L1465 1683 L1378 1770 Z" /></g><g class="o"><path transform="translate(9,18)" class="S sfv" d="M1176 1155 L1324 1007 L1324 1039 L1176 1187 Z"/><path class="fv1" d="M1176 1155 L1324 1007 L1324 1039 L1176 1187 Z" /></g><g class="o"><path transform="translate(4,8)" class="S sfh" d="M943 1230 L1127 1046 L1143 1046 L959 1230 Z"/><path class="fh3" d="M943 1230 L1127 1046 L1143 1046 L959 1230 Z" /></g><g class="o"><path transform="translate(9,18)" class="S ssh" d="M1641 1429 L1813 1257 L1837 1257 L1665 1429 Z"/><path class="sh1" d="M1641 1429 L1813 1257 L1837 1257 L1665 1429 Z" /></g><g class="o"><path transform="translate(2,4)" class="S sfv" d="M1778 994 L1850 1066 L1850 1098 L1778 1026 Z"/><path class="fv4" d="M1778 994 L1850 1066 L1850 1098 L1778 1026 Z" /></g><g class="o"><path transform="translate(7,14)" class="S ssh" d="M1668 1849 L1810 1991 L1842 1991 L1700 1849 Z"/><path class="sh1" d="M1668 1849 L1810 1991 L1842 1991 L1700 1849 Z" /></g><g class="o"><path transform="translate(8,16)" class="S sf" d="M1488 1707 L1722 1473 L1738 1473 L1504 1707 Z"/><path class="f2" d="M1488 1707 L1722 1473 L1738 1473 L1504 1707 Z" /></g><g class="o"><path transform="translate(7,14)" class="S ss" d="M1193 1713 L1895 1011 L1927 1011 L1225 1713 Z"/><path class="s2" d="M1193 1713 L1895 1011 L1927 1011 L1225 1713 Z" /></g><g class="o"><path transform="translate(2,4)" class="S ssh" d="M1849 1642 L2034 1457 L2072 1457 L1887 1642 Z"/><path class="sh2" d="M1849 1642 L2034 1457 L2072 1457 L1887 1642 Z" /></g><g class="o"><path transform="translate(3,6)" class="S sfh" d="M1206 1015 L1914 307 L1926 307 L1218 1015 Z"/><path class="fh2" d="M1206 1015 L1914 307 L1926 307 L1218 1015 Z" /></g><g class="o"><path transform="translate(6,12)" class="S sf" d="M1423 1727 L1486 1664 L1516 1664 L1453 1727 Z"/><path class="f1" d="M1423 1727 L1486 1664 L1516 1664 L1453 1727 Z" /></g><g class="o"><path transform="translate(3,6)" class="S ssv" d="M1289 1941 L1538 2190 L1538 2200 L1289 1951 Z"/><path class="sv3" d="M1289 1941 L1538 2190 L1538 2200 L1289 1951 Z" /></g><g class="o"><path transform="translate(6,12)" class="S ssh" d="M1144 986 L1386 1228 L1424 1228 L1182 986 Z"/><path class="sh6" d="M1144 986 L1386 1228 L1424 1228 L1182 986 Z" /></g><g class="o"><path transform="translate(9,18)" class="S sfv" d="M1400 1066 L1610 1276 L1610 1298 L1400 1088 Z"/><path class="fv7" d="M1400 1066 L1610 1276 L1610 1298 L1400 1088 Z" /></g><g class="o"><path transform="translate(5,10)" class="S sf" d="M1477 1920 L1535 1862 L1535 2006 L1477 2064 Z"/><path class="f6" d="M1477 1920 L1535 1862 L1535 2006 L1477 2064 Z" /></g><g class="o"><path transform="translate(8,16)" class="S sf" d="M1200 1720 L1929 991 L1959 991 L1230 1720 Z"/><path class="f6" d="M1200 1720 L1929 991 L1959 991 L1230 1720 Z" /></g><g class="o"><path transform="translate(5,10)" class="S sfh" d="M1299 1121 L1400 1020 L1428 1020 L1327 1121 Z"/><path class="fh7" d="M1299 1121 L1400 1020 L1428 1020 L1327 1121 Z" /></g><g class="o"><path transform="translate(7,14)" class="S sfh" d="M1554 1278 L1613 1219 L1639 1219 L1580 1278 Z"/><path class="fh1" d="M1554 1278 L1613 1219 L1639 1219 L1580 1278 Z" /></g><g class="o"><path transform="translate(7,14)" class="S sf" d="M1480 1793 L1678 1991 L1692 1991 L1494 1793 Z"/><path class="f3" d="M1480 1793 L1678 1991 L1692 1991 L1494 1793 Z" /></g><g class="o"><path transform="translate(2,4)" class="S sfh" d="M1431 1526 L1533 1424 L1547 1424 L1445 1526 Z"/><path class="fh4" d="M1431 1526 L1533 1424 L1547 1424 L1445 1526 Z" /></g><g class="o"><path transform="translate(5,10)" class="S sfh" d="M1190 1035 L1385 840 L1405 840 L1210 1035 Z"/><path class="fh7" d="M1190 1035 L1385 840 L1405 840 L1210 1035 Z" /></g><g class="o"><path transform="translate(7,14)" class="S sfh" d="M1792 1186 L2017 1411 L2031 1411 L1806 1186 Z"/><path class="fh4" d="M1792 1186 L2017 1411 L2031 1411 L1806 1186 Z" /></g><g class="o"><path transform="translate(4,8)" class="S sfh" d="M1439 1432 L1641 1634 L1653 1634 L1451 1432 Z"/><path class="fh5" d="M1439 1432 L1641 1634 L1653 1634 L1451 1432 Z" /></g><g class="o"><path transform="translate(5,10)" class="S sf" d="M1382 1031 L1474 1123 L1488 1123 L1396 1031 Z"/><path class="f2" d="M1382 1031 L1474 1123 L1488 1123 L1396 1031 Z" /></g><g class="o"><path transform="translate(8,16)" class="S sf" d="M1399 1316 L2050 1967 L2068 1967 L1417 1316 Z"/><path class="f1" d="M1399 1316 L2050 1967 L2068 1967 L1417 1316 Z" /></g><g class="o"><path transform="translate(3,6)" class="S ssh" d="M1808 1044 L1934 918 L1958 918 L1832 1044 Z"/><path class="sh6" d="M1808 1044 L1934 918 L1958 918 L1832 1044 Z" /></g><g class="o"><path transform="translate(4,8)" class="S sfh" d="M1540 1775 L1822 1493 L1852 1493 L1570 1775 Z"/><path class="fh7" d="M1540 1775 L1822 1493 L1852 1493 L1570 1775 Z" /></g><g class="o"><path transform="translate(9,18)" class="S sfh" d="M2032 1995 L2207 2170 L2227 2170 L2052 1995 Z"/><path class="fh4" d="M2032 1995 L2207 2170 L2227 2170 L2052 1995 Z" /></g><g class="o"><path transform="translate(7,14)" class="S sf" d="M1056 1582 L1491 2017 L1519 2017 L1084 1582 Z"/><path class="f1" d="M1056 1582 L1491 2017 L1519 2017 L1084 1582 Z" /></g><g class="o"><path transform="translate(3,6)" class="S sf" d="M1407 1577 L1628 1356 L1628 1376 L1407 1597 Z"/><path class="f5" d="M1407 1577 L1628 1356 L1628 1376 L1407 1597 Z" /></g><g class="o"><path transform="translate(4,8)" class="S sfh" d="M1069 1718 L1369 1418 L1385 1418 L1085 1718 Z"/><path class="fh7" d="M1069 1718 L1369 1418 L1385 1418 L1085 1718 Z" /></g><g class="o"><path transform="translate(9,18)" class="S sfv" d="M1907 1633 L1991 1717 L1991 1735 L1907 1651 Z"/><path class="fv6" d="M1907 1633 L1991 1717 L1991 1735 L1907 1651 Z" /></g><g class="o"><path transform="translate(6,12)" class="S sf" d="M996 1183 L1326 853 L1358 853 L1028 1183 Z"/><path class="f5" d="M996 1183 L1326 853 L1358 853 L1028 1183 Z" /></g><g class="o"><path transform="translate(6,12)" class="S sfv" d="M1694 1056 L1931 819 L1931 971 L1694 1208 Z"/><path class="fv6" d="M1694 1056 L1931 819 L1931 971 L1694 1208 Z" /></g><g class="o"><path transform="translate(8,16)" class="S sfv" d="M1445 1003 L2087 361 L2087 369 L1445 1011 Z"/><path class="fv2" d="M1445 1003 L2087 361 L2087 369 L1445 1011 Z" /></g><g class="o"><path transform="translate(5,10)" class="S sfh" d="M1091 1038 L1260 1207 L1268 1207 L1099 1038 Z"/><path class="fh1" d="M1091 1038 L1260 1207 L1268 1207 L1099 1038 Z" /></g><g class="o"><path transform="translate(7,14)" class="S sf" d="M1177 1903 L1313 2039 L1313 2065 L1177 1929 Z"/><path class="f1" d="M1177 1903 L1313 2039 L1313 2065 L1177 1929 Z" /></g><g class="o"><path transform="translate(4,8)" class="S sfv" d="M1150 1354 L1254 1458 L1254 1486 L1150 1382 Z"/><path class="fv6" d="M1150 1354 L1254 1458 L1254 1486 L1150 1382 Z" /></g><g class="o"><path transform="translate(5,10)" class="S ss" d="M1752 980 L2094 638 L2094 646 L1752 988 Z"/><path class="s2" d="M1752 980 L2094 638 L2094 646 L1752 988 Z" /></g><g class="o"><path transform="translate(9,18)" class="S ssh" d="M964 1969 L1116 2121 L1148 2121 L996 1969 Z"/><path class="sh6" d="M964 1969 L1116 2121 L1148 2121 L996 1969 Z" /></g><g class="o"><path transform="translate(6,12)" class="S sfv" d="M1028 1483 L1628 883 L1628 899 L1028 1499 Z"/><path class="fv6" d="M1028 1483 L1628 883 L1628 899 L1028 1499 Z" /></g><g class="o"><path transform="translate(3,6)" class="S sfv" d="M1972 1460 L2138 1626 L2138 1770 L1972 1604 Z"/><path class="fv7" d="M1972 1460 L2138 1626 L2138 1770 L1972 1604 Z" /></g><g class="o"><path transform="translate(4,8)" class="S sfh" d="M1420 1572 L1538 1690 L1548 1690 L1430 1572 Z"/><path class="fh1" d="M1420 1572 L1538 1690 L1548 1690 L1430 1572 Z" /></g><g class="o"><path transform="translate(6,12)" class="S sfv" d="M1087 1369 L1270 1186 L1270 1196 L1087 1379 Z"/><path class="fv2" d="M1087 1369 L1270 1186 L1270 1196 L1087 1379 Z" /></g><g class="o"><path transform="translate(2,4)" class="S sfv" d="M1850 1038 L2046 1234 L2046 1250 L1850 1054 Z"/><path class="fv6" d="M1850 1038 L2046 1234 L2046 1250 L1850 1054 Z" /></g><g class="o"><path transform="translate(7,14)" class="S sfh" d="M1219 1969 L1333 1855 L1369 1855 L1255 1969 Z"/><path class="fh7" d="M1219 1969 L1333 1855 L1369 1855 L1255 1969 Z" /></g><g class="o"><path transform="translate(4,8)" class="S sf" d="M1808 1874 L1936 2002 L1972 2002 L1844 1874 Z"/><path class="f7" d="M1808 1874 L1936 2002 L1972 2002 L1844 1874 Z" /></g><g class="o"><path transform="translate(5,10)" class="S sfh" d="M1441 1675 L1678 1438 L1688 1438 L1451 1675 Z"/><path class="fh2" d="M1441 1675 L1678 1438 L1688 1438 L1451 1675 Z" /></g><g class="o"><path transform="translate(5,10)" class="S sfh" d="M1054 1080 L1177 1203 L1189 1203 L1066 1080 Z"/><path class="fh6" d="M1054 1080 L1177 1203 L1189 1203 L1066 1080 Z" /></g><g class="o"><path transform="translate(3,6)" class="S sf" d="M1232 1137 L1383 1288 L1519 1288 L1368 1137 Z"/><path class="f3" d="M1232 1137 L1383 1288 L1519 1288 L1368 1137 Z" /></g><g class="o"><path transform="translate(7,14)" class="S sfv" d="M959 1613 L1131 1441 L1131 1467 L959 1639 Z"/><path class="fv5" d="M959 1613 L1131 1441 L1131 1467 L959 1639 Z" /></g><g class="o"><path transform="translate(8,16)" class="S ssv" d="M1015 1481 L1088 1554 L1088 1580 L1015 1507 Z"/><path class="sv4" d="M1015 1481 L1088 1554 L1088 1580 L1015 1507 Z" /></g><g class="o"><path transform="translate(9,18)" class="S sf" d="M1521 1290 L1583 1352 L1595 1352 L1533 1290 Z"/><path class="f1" d="M1521 1290 L1583 1352 L1595 1352 L1533 1290 Z" /></g><g class="o"><path transform="translate(2,4)" class="S sfv" d="M1174 1359 L1289 1474 L1289 1496 L1174 1381 Z"/><path class="fv2" d="M1174 1359 L1289 1474 L1289 1496 L1174 1381 Z" /></g><g class="o"><path transform="translate(2,4)" class="S sfv" d="M1242 1820 L1299 1763 L1299 1771 L1242 1828 Z"/><path class="fv4" d="M1242 1820 L1299 1763 L1299 1771 L1242 1828 Z" /></g><g class="o"><path transform="translate(6,12)" class="S sfh" d="M1544 1716 L1802 1458 L1822 1458 L1564 1716 Z"/><path class="fh7" d="M1544 1716 L1802 1458 L1822 1458 L1564 1716 Z" /></g><g class="o"><path transform="translate(7,14)" class="S sfv" d="M1655 1824 L1815 1984 L1815 1994 L1655 1834 Z"/><path class="fv5" d="M1655 1824 L1815 1984 L1815 1994 L1655 1834 Z" /></g><g class="o"><path transform="translate(4,8)" class="S ssv" d="M1279 2013 L1499 1793 L1499 1813 L1279 2033 Z"/><path class="sv5" d="M1279 2013 L1499 1793 L1499 1813 L1279 2033 Z" /></g><g class="o"><path transform="translate(6,12)" class="S sfv" d="M2048 1379 L2168 1499 L2168 1523 L2048 1403 Z"/><path class="fv6" d="M2048 1379 L2168 1499 L2168 1523 L2048 1403 Z" /></g><g class="o"><path transform="translate(5,10)" class="S sf" d="M1665 1092 L1839 1266 L1839 1286 L1665 1112 Z"/><path class="f2" d="M1665 1092 L1839 1266 L1839 1286 L1665 1112 Z" /></g><g class="o"><path transform="translate(9,18)" class="S sfv" d="M1584 1218 L1709 1343 L1709 1353 L1584 1228 Z"/><path class="fv6" d="M1584 1218 L1709 1343 L1709 1353 L1584 1228 Z" /></g><g class="o"><path transform="translate(4,8)" class="S ssh" d="M1860 1444 L2062 1646 L2094 1646 L1892 1444 Z"/><path class="sh5" d="M1860 1444 L2062 1646 L2094 1646 L1892 1444 Z" /></g><g class="o"><path transform="translate(6,12)" class="S sfh" d="M1145 1982 L1387 2224 L1403 2224 L1161 1982 Z"/><path class="fh5" d="M1145 1982 L1387 2224 L1403 2224 L1161 1982 Z" /></g><g class="o"><path transform="translate(3,6)" class="S sfh" d="M1973 1279 L2058 1364 L2076 1364 L1991 1279 Z"/><path class="fh7" d="M1973 1279 L2058 1364 L2076 1364 L1991 1279 Z" /></g><g class="o"><path transform="translate(2,4)" class="S sfv" d="M1300 1480 L1509 1689 L1509 1715 L1300 1506 Z"/><path class="fv3" d="M1300 1480 L1509 1689 L1509 1715 L1300 1506 Z" /></g><g class="o"><path transform="translate(5,10)" class="S sf" d="M1288 1352 L1353 1287 L1381 1287 L1316 1352 Z"/><path class="f7" d="M1288 1352 L1353 1287 L1381 1287 L1316 1352 Z" /></g><g class="o"><path transform="translate(3,6)" class="S sfv" d="M1788 1763 L1880 1671 L1880 1685 L1788 1777 Z"/><path class="fv1" d="M1788 1763 L1880 1671 L1880 1685 L1788 1777 Z" /></g><g class="o"><path transform="translate(4,8)" class="S sfv" d="M1268 1450 L1399 1319 L1399 1347 L1268 1478 Z"/><path class="fv3" d="M1268 1450 L1399 1319 L1399 1347 L1268 1478 Z" /></g><g class="o"><path transform="translate(6,12)" class="S ssv" d="M1145 1432 L1368 1655 L1368 1767 L1145 1544 Z"/><path class="sv6" d="M1145 1432 L1368 1655 L1368 1767 L1145 1544 Z" /></g><g class="o"><path transform="translate(2,4)" class="S sfv" d="M1301 1070 L1434 937 L1434 963 L1301 1096 Z"/><path class="fv3" d="M1301 1070 L1434 937 L1434 963 L1301 1096 Z" /></g><g class="o"><path transform="translate(3,6)" class="S sfv" d="M1716 1437 L2340 813 L2340 949 L1716 1573 Z"/><path class="fv4" d="M1716 1437 L2340 813 L2340 949 L1716 1573 Z" /></g><g class="o"><path transform="translate(9,18)" class="S sfv" d="M1875 1902 L1994 1783 L1994 1811 L1875 1930 Z"/><path class="fv6" d="M1875 1902 L1994 1783 L1994 1811 L1875 1930 Z" /></g><g class="o"><path transform="translate(6,12)" class="S sfh" d="M989 1098 L1224 1333 L1234 1333 L999 1098 Z"/><path class="fh6" d="M989 1098 L1224 1333 L1234 1333 L999 1098 Z" /></g><g class="o"><path transform="translate(3,6)" class="S sfh" d="M1697 1126 L1895 928 L1919 928 L1721 1126 Z"/><path class="fh7" d="M1697 1126 L1895 928 L1919 928 L1721 1126 Z" /></g><g class="o"><path transform="translate(3,6)" class="S ss" d="M1049 995 L1188 1134 L1214 1134 L1075 995 Z"/><path class="s6" d="M1049 995 L1188 1134 L1214 1134 L1075 995 Z" /></g><g class="o"><path transform="translate(6,12)" class="S sfv" d="M2014 1135 L2261 888 L2261 916 L2014 1163 Z"/><path class="fv2" d="M2014 1135 L2261 888 L2261 916 L2014 1163 Z" /></g><g class="o"><path transform="translate(5,10)" class="S sfh" d="M2028 1875 L2192 2039 L2224 2039 L2060 1875 Z"/><path class="fh4" d="M2028 1875 L2192 2039 L2224 2039 L2060 1875 Z" /></g><g class="o"><path transform="translate(4,8)" class="S sfh" d="M1825 1598 L2395 1028 L2415 1028 L1845 1598 Z"/><path class="fh1" d="M1825 1598 L2395 1028 L2415 1028 L1845 1598 Z" /></g><g class="o"><path transform="translate(9,18)" class="S sfh" d="M1507 2018 L2050 1475 L2076 1475 L1533 2018 Z"/><path class="fh5" d="M1507 2018 L2050 1475 L2076 1475 L1533 2018 Z" /></g><g class="o"><path transform="translate(3,6)" class="S sf" d="M1994 1853 L2175 1672 L2175 1698 L1994 1879 Z"/><path class="f6" d="M1994 1853 L2175 1672 L2175 1698 L1994 1879 Z" /></g><g class="o"><path transform="translate(2,4)" class="S sfv" d="M1213 1509 L1837 885 L1837 921 L1213 1545 Z"/><path class="fv4" d="M1213 1509 L1837 885 L1837 921 L1213 1545 Z" /></g><g class="o"><path transform="translate(5,10)" class="S sf" d="M1461 1581 L1809 1929 L1809 1967 L1461 1619 Z"/><path class="f1" d="M1461 1581 L1809 1929 L1809 1967 L1461 1619 Z" /></g><g class="o"><path transform="translate(9,18)" class="S sfv" d="M1744 1745 L1880 1609 L1880 1619 L1744 1755 Z"/><path class="fv1" d="M1744 1745 L1880 1609 L1880 1619 L1744 1755 Z" /></g><g class="o"><path transform="translate(7,14)" class="S ssv" d="M1911 1073 L1986 1148 L1986 1244 L1911 1169 Z"/><path class="sv1" d="M1911 1073 L1986 1148 L1986 1244 L1911 1169 Z" /></g><g class="o"><path transform="translate(7,14)" class="S sfh" d="M1940 1039 L2022 1121 L2036 1121 L1954 1039 Z"/><path class="fh2" d="M1940 1039 L2022 1121 L2036 1121 L1954 1039 Z" /></g><g class="o"><path transform="translate(3,6)" class="S sfh" d="M1349 1259 L1529 1079 L1561 1079 L1381 1259 Z"/><path class="fh7" d="M1349 1259 L1529 1079 L1561 1079 L1381 1259 Z" /></g><g class="o"><path transform="translate(8,16)" class="S sfh" d="M2008 1569 L2219 1780 L2247 1780 L2036 1569 Z"/><path class="fh1" d="M2008 1569 L2219 1780 L2247 1780 L2036 1569 Z" /></g><g class="o"><path transform="translate(8,16)" class="S sfv" d="M1668 1586 L1823 1741 L1823 1761 L1668 1606 Z"/><path class="fv3" d="M1668 1586 L1823 1741 L1823 1761 L1668 1606 Z" /></g><g class="o"><path transform="translate(7,14)" class="S sf" d="M1238 1711 L1333 1806 L1333 1822 L1238 1727 Z"/><path class="f6" d="M1238 1711 L1333 1806 L1333 1822 L1238 1727 Z" /></g><g class="o"><path transform="translate(6,12)" class="S sfh" d="M1344 1732 L1525 1551 L1545 1551 L1364 1732 Z"/><path class="fh7" d="M1344 1732 L1525 1551 L1545 1551 L1364 1732 Z" /></g><g class="o"><path transform="translate(5,10)" class="S ssv" d="M1041 1990 L1142 2091 L1142 2101 L1041 2000 Z"/><path class="sv6" d="M1041 1990 L1142 2091 L1142 2101 L1041 2000 Z" /></g><g class="o"><path transform="translate(2,4)" class="S sfv" d="M1517 1523 L1723 1729 L1723 1749 L1517 1543 Z"/><path class="fv6" d="M1517 1523 L1723 1729 L1723 1749 L1517 1543 Z" /></g><g class="o"><path transform="translate(7,14)" class="S sfv" d="M1052 1818 L1233 1999 L1233 2029 L1052 1848 Z"/><path class="fv3" d="M1052 1818 L1233 1999 L1233 2029 L1052 1848 Z" /></g><g class="o"><path transform="translate(3,6)" class="S sfh" d="M1916 1201 L2094 1023 L2122 1023 L1944 1201 Z"/><path class="fh7" d="M1916 1201 L2094 1023 L2122 1023 L1944 1201 Z" /></g><g class="o"><path transform="translate(4,8)" class="S ssh" d="M1231 1223 L1310 1302 L1330 1302 L1251 1223 Z"/><path class="sh6" d="M1231 1223 L1310 1302 L1330 1302 L1251 1223 Z" /></g><g class="o"><path transform="translate(4,8)" class="S sfh" d="M1594 1504 L1652 1562 L1690 1562 L1632 1504 Z"/><path class="fh3" d="M1594 1504 L1652 1562 L1690 1562 L1632 1504 Z" /></g><g class="o"><path transform="translate(7,14)" class="S ssh" d="M1078 1644 L1195 1527 L1211 1527 L1094 1644 Z"/><path class="sh1" d="M1078 1644 L1195 1527 L1211 1527 L1094 1644 Z" /></g><g class="o"><path transform="translate(5,10)" class="S ssv" d="M1725 1564 L1887 1402 L1887 1440 L1725 1602 Z"/><path class="sv4" d="M1725 1564 L1887 1402 L1887 1440 L1725 1602 Z" /></g><g class="o"><path transform="translate(3,6)" class="S sfv" d="M978 1905 L1039 1966 L1039 1974 L978 1913 Z"/><path class="fv1" d="M978 1905 L1039 1966 L1039 1974 L978 1913 Z" /></g><g class="o"><path transform="translate(2,4)" class="S ssh" d="M1968 1413 L2173 1208 L2261 1208 L2056 1413 Z"/><path class="sh5" d="M1968 1413 L2173 1208 L2261 1208 L2056 1413 Z" /></g><g class="o"><path transform="translate(7,14)" class="S sf" d="M1236 1233 L1395 1074 L1429 1074 L1270 1233 Z"/><path class="f4" d="M1236 1233 L1395 1074 L1429 1074 L1270 1233 Z" /></g><g class="o"><path transform="translate(8,16)" class="S sfv" d="M1489 1228 L2110 1849 L2110 1867 L1489 1246 Z"/><path class="fv5" d="M1489 1228 L2110 1849 L2110 1867 L1489 1246 Z" /></g><g class="o"><path transform="translate(7,14)" class="S sfh" d="M972 1926 L1184 1714 L1198 1714 L986 1926 Z"/><path class="fh2" d="M972 1926 L1184 1714 L1198 1714 L986 1926 Z" /></g><g class="o"><path transform="translate(6,12)" class="S ss" d="M1871 1121 L1935 1185 L1965 1185 L1901 1121 Z"/><path class="s6" d="M1871 1121 L1935 1185 L1965 1185 L1901 1121 Z" /></g></g><use href="#slashes" transform-origin="1500 1500" transform="rotate(180) scale(2)"/></g><rect x="1080" y="1080" width="840" height="840" stroke-width="160" class="o s1" /><use href="#slashes" transform-origin="1500 1500" transform="scale(.6)"/><use href="#slashes" transform-origin="1500 1500" transform="rotate(180) scale(.6)"/></svg>