<svg xmlns="http://www.w3.org/2000/svg" viewBox="750 750 1500 1500"><style>/*<![CDATA[*/svg{background:rgb(152,193,217);max-width:100vw;max-height:100vh}path{stroke-width:4}.o{opacity:.75}.S{opacity:.4}.sf{stroke:none;fill:black}.sfh{stroke:none;fill:url(#hs)}.sfv{stroke:none;fill:url(#vs)}.ss{stroke:black;fill:none}.ssh{stroke:url(#hs);fill:none}.ssv{stroke:url(#vs);fill:none}.s1{fill:none;stroke:rgb(224,251,252)}.f1{stroke:none;fill:rgb(224,251,252)}.sh1{fill:none;stroke:url(#h1)}.fh1{stroke:none;fill:url(#h1)}.sv1{fill:none;stroke:url(#v1)}.fv1{stroke:none;fill:url(#v1)}.s2{fill:none;stroke:rgb(238,108,77)}.f2{stroke:none;fill:rgb(238,108,77)}.sh2{fill:none;stroke:url(#h2)}.fh2{stroke:none;fill:url(#h2)}.sv2{fill:none;stroke:url(#v2)}.fv2{stroke:none;fill:url(#v2)}.s3{fill:none;stroke:rgb(61,90,128)}.f3{stroke:none;fill:rgb(61,90,128)}.sh3{fill:none;stroke:url(#h3)}.fh3{stroke:none;fill:url(#h3)}.sv3{fill:none;stroke:url(#v3)}.fv3{stroke:none;fill:url(#v3)}.s4{fill:none;stroke:rgb(41,50,65)}.f4{stroke:none;fill:rgb(41,50,65)}.sh4{fill:none;stroke:url(#h4)}.fh4{stroke:none;fill:url(#h4)}.sv4{fill:none;stroke:url(#v4)}.fv4{stroke:none;fill:url(#v4)}.s5{fill:none;stroke:rgb(34,34,34)}.f5{stroke:none;fill:rgb(34,34,34)}.sh5{fill:none;stroke:url(#h5)}.fh5{stroke:none;fill:url(#h5)}.sv5{fill:none;stroke:url(#v5)}.fv5{stroke:none;fill:url(#v5)}.s6{fill:none;stroke:rgb(255,255,255)}.f6{stroke:none;fill:rgb(255,255,255)}.sh6{fill:none;stroke:url(#h6)}.fh6{stroke:none;fill:url(#h6)}.sv6{fill:none;stroke:url(#v6)}.fv6{stroke:none;fill:url(#v6)}.s7{fill:none;stroke:rgb(255,255,0)}.f7{stroke:none;fill:rgb(255,255,0)}.sh7{fill:none;stroke:url(#h7)}.fh7{stroke:none;fill:url(#h7)}.sv7{fill:none;stroke:url(#v7)}.fv7{stroke:none;fill:url(#v7)}/*]]>*/</style><defs><linearGradient gradientTransform="rotate(90)" id="hs"><stop offset="20%" stop-color="#000" /><stop offset="95%" stop-color="rgba(0, 0, 0, 0)" /></linearGradient><linearGradient id="vs"><stop offset="20%" stop-color="#000" /><stop offset="95%" stop-color="rgba(0, 0, 0, 0)" /></linearGradient><linearGradient gradientTransform="rotate(90)" id="h1"><stop offset="20%" stop-color="rgba(224,251,252,1)" /><stop offset="95%" stop-color="rgba(224,251,252,0)" /></linearGradient><linearGradient id="v1"><stop offset="20%" stop-color="rgba(224,251,252,1)" /><stop offset="95%" stop-color="rgba(224,251,252,0)" /></linearGradient><linearGradient gradientTransform="rotate(90)" id="h2"><stop offset="20%" stop-color="rgba(238,108,77,1)" /><stop offset="95%" stop-color="rgba(238,108,77,0)" /></linearGradient><linearGradient id="v2"><stop offset="20%" stop-color="rgba(238,108,77,1)" /><stop offset="95%" stop-color="rgba(238,108,77,0)" /></linearGradient><linearGradient gradientTransform="rotate(90)" id="h3"><stop offset="20%" stop-color="rgba(61,90,128,1)" /><stop offset="95%" stop-color="rgba(61,90,128,0)" /></linearGradient><linearGradient id="v3"><stop offset="20%" stop-color="rgba(61,90,128,1)" /><stop offset="95%" stop-color="rgba(61,90,128,0)" /></linearGradient><linearGradient gradientTransform="rotate(90)" id="h4"><stop offset="20%" stop-color="rgba(41,50,65,1)" /><stop offset="95%" stop-color="rgba(41,50,65,0)" /></linearGradient><linearGradient id="v4"><stop offset="20%" stop-color="rgba(41,50,65,1)" /><stop offset="95%" stop-color="rgba(41,50,65,0)" /></linearGradient><linearGradient gradientTransform="rotate(90)" id="h5"><stop offset="20%" stop-color="rgba(34,34,34,1)" /><stop offset="95%" stop-color="rgba(34,34,34,0)" /></linearGradient><linearGradient id="v5"><stop offset="20%" stop-color="rgba(34,34,34,1)" /><stop offset="95%" stop-color="rgba(34,34,34,0)" /></linearGradient><linearGradient gradientTransform="rotate(90)" id="h6"><stop offset="20%" stop-color="rgba(255,255,255,1)" /><stop offset="95%" stop-color="rgba(255,255,255,0)" /></linearGradient><linearGradient id="v6"><stop offset="20%" stop-color="rgba(255,255,255,1)" /><stop offset="95%" stop-color="rgba(255,255,255,0)" /></linearGradient><linearGradient gradientTransform="rotate(90)" id="h7"><stop offset="20%" stop-color="rgba(255,255,0,1)" /><stop offset="95%" stop-color="rgba(255,255,0,0)" /></linearGradient><linearGradient id="v7"><stop offset="20%" stop-color="rgba(255,255,0,1)" /><stop offset="95%" stop-color="rgba(255,255,0,0)" /></linearGradient></defs><g transform-origin="1500 1500" transform="scale(2)" opacity=".2"><g id="slashes"><g class="o"><path transform="translate(7,14)" class="S sfv" d="M1043 1992 L1161 1874 L1161 1890 L1043 2008 Z"/><path class="fv7" d="M1043 1992 L1161 1874 L1161 1890 L1043 2008 Z" /></g><g class="o"><path transform="translate(8,16)" class="S sf" d="M1348 1511 L1572 1287 L1594 1287 L1370 1511 Z"/><path class="f2" d="M1348 1511 L1572 1287 L1594 1287 L1370 1511 Z" /></g><g class="o"><path transform="translate(5,10)" class="S sfv" d="M1805 1425 L2504 726 L2504 756 L1805 1455 Z"/><path class="fv1" d="M1805 1425 L2504 726 L2504 756 L1805 1455 Z" /></g><g class="o"><path transform="translate(7,14)" class="S sfv" d="M1791 1844 L2005 1630 L2005 1648 L1791 1862 Z"/><path class="fv5" d="M1791 1844 L2005 1630 L2005 1648 L1791 1862 Z" /></g><g class="o"><path transform="translate(3,6)" class="S sfv" d="M1056 1765 L1136 1685 L1136 1707 L1056 1787 Z"/><path class="fv5" d="M1056 1765 L1136 1685 L1136 1707 L1056 1787 Z" /></g><g class="o"><path transform="translate(8,16)" class="S sfv" d="M1668 1882 L1825 1725 L1825 1737 L1668 1894 Z"/><path class="fv5" d="M1668 1882 L1825 1725 L1825 1737 L1668 1894 Z" /></g><g class="o"><path transform="translate(4,8)" class="S sf" d="M1090 1060 L1315 835 L1315 845 L1090 1070 Z"/><path class="f4" d="M1090 1060 L1315 835 L1315 845 L1090 1070 Z" /></g><g class="o"><path transform="translate(3,6)" class="S ssh" d="M1407 1545 L1656 1296 L1692 1296 L1443 1545 Z"/><path class="sh7" d="M1407 1545 L1656 1296 L1692 1296 L1443 1545 Z" /></g><g class="o"><path transform="translate(6,12)" class="S sfv" d="M1299 2017 L1405 1911 L1405 1927 L1299 2033 Z"/><path class="fv3" d="M1299 2017 L1405 1911 L1405 1927 L1299 2033 Z" /></g><g class="o"><path transform="translate(6,12)" class="S sfh" d="M1886 1183 L2127 942 L2157 942 L1916 1183 Z"/><path class="fh7" d="M1886 1183 L2127 942 L2157 942 L1916 1183 Z" /></g><g class="o"><path transform="translate(6,12)" class="S sf" d="M1556 1225 L1674 1107 L1702 1107 L1584 1225 Z"/><path class="f2" d="M1556 1225 L1674 1107 L1702 1107 L1584 1225 Z" /></g><g class="o"><path transform="translate(9,18)" class="S sfv" d="M1702 1848 L1796 1754 L1796 1762 L1702 1856 Z"/><path class="fv3" d="M1702 1848 L1796 1754 L1796 1762 L1702 1856 Z" /></g><g class="o"><path transform="translate(2,4)" class="S sfh" d="M1127 1290 L1235 1182 L1259 1182 L1151 1290 Z"/><path class="fh1" d="M1127 1290 L1235 1182 L1259 1182 L1151 1290 Z" /></g><g class="o"><path transform="translate(6,12)" class="S sfh" d="M1242 1564 L1409 1397 L1429 1397 L1262 1564 Z"/><path class="fh4" d="M1242 1564 L1409 1397 L1429 1397 L1262 1564 Z" /></g><g class="o"><path transform="translate(7,14)" class="S sfh" d="M2014 1251 L2135 1130 L2165 1130 L2044 1251 Z"/><path class="fh6" d="M2014 1251 L2135 1130 L2165 1130 L2044 1251 Z" /></g><g class="o"><path transform="translate(5,10)" class="S sf" d="M1824 1362 L1900 1286 L1900 1318 L1824 1394 Z"/><path class="f7" d="M1824 1362 L1900 1286 L1900 1318 L1824 1394 Z" /></g><g class="o"><path transform="translate(9,18)" class="S sfv" d="M1477 1997 L1541 1933 L1541 1947 L1477 2011 Z"/><path class="fv3" d="M1477 1997 L1541 1933 L1541 1947 L1477 2011 Z" /></g><g class="o"><path transform="translate(4,8)" class="S sfh" d="M2026 1847 L2755 1118 L2771 1118 L2042 1847 Z"/><path class="fh1" d="M2026 1847 L2755 1118 L2771 1118 L2042 1847 Z" /></g><g class="o"><path transform="translate(7,14)" class="S sf" d="M1340 1214 L1564 990 L1564 1006 L1340 1230 Z"/><path class="f4" d="M1340 1214 L1564 990 L1564 1006 L1340 1230 Z" /></g><g class="o"><path transform="translate(4,8)" class="S sfh" d="M1586 1692 L1970 1308 L1980 1308 L1596 1692 Z"/><path class="fh1" d="M1586 1692 L1970 1308 L1980 1308 L1596 1692 Z" /></g><g class="o"><path transform="translate(3,6)" class="S sfv" d="M1954 1619 L2020 1553 L2020 1581 L1954 1647 Z"/><path class="fv2" d="M1954 1619 L2020 1553 L2020 1581 L1954 1647 Z" /></g><g class="o"><path transform="translate(4,8)" class="S sfh" d="M973 1944 L1066 1851 L1078 1851 L985 1944 Z"/><path class="fh3" d="M973 1944 L1066 1851 L1078 1851 L985 1944 Z" /></g><g class="o"><path transform="translate(4,8)" class="S sfh" d="M958 1760 L1198 1520 L1212 1520 L972 1760 Z"/><path class="fh6" d="M958 1760 L1198 1520 L1212 1520 L972 1760 Z" /></g><g class="o"><path transform="translate(2,4)" class="S sfv" d="M1494 1975 L1642 1827 L1642 1861 L1494 2009 Z"/><path class="fv5" d="M1494 1975 L1642 1827 L1642 1861 L1494 2009 Z" /></g><g class="o"><path transform="translate(7,14)" class="S ssv" d="M1245 1860 L1431 1674 L1431 1682 L1245 1868 Z"/><path class="sv5" d="M1245 1860 L1431 1674 L1431 1682 L1245 1868 Z" /></g><g class="o"><path transform="translate(3,6)" class="S sfv" d="M1605 1969 L1944 1630 L1944 1664 L1605 2003 Z"/><path class="fv1" d="M1605 1969 L1944 1630 L1944 1664 L1605 2003 Z" /></g><g class="o"><path transform="translate(4,8)" class="S sfh" d="M1372 1924 L1430 1866 L1442 1866 L1384 1924 Z"/><path class="fh4" d="M1372 1924 L1430 1866 L1442 1866 L1384 1924 Z" /></g><g class="o"><path transform="translate(8,16)" class="S ss" d="M1116 1760 L1228 1648 L1228 1672 L1116 1784 Z"/><path class="s1" d="M1116 1760 L1228 1648 L1228 1672 L1116 1784 Z" /></g><g class="o"><path transform="translate(4,8)" class="S ss" d="M1068 1846 L1189 1725 L1189 1733 L1068 1854 Z"/><path class="s5" d="M1068 1846 L1189 1725 L1189 1733 L1068 1854 Z" /></g><g class="o"><path transform="translate(3,6)" class="S ssh" d="M1593 1225 L1709 1109 L1721 1109 L1605 1225 Z"/><path class="sh3" d="M1593 1225 L1709 1109 L1721 1109 L1605 1225 Z" /></g><g class="o"><path transform="translate(7,14)" class="S sfh" d="M1408 1542 L1601 1349 L1637 1349 L1444 1542 Z"/><path class="fh2" d="M1408 1542 L1601 1349 L1637 1349 L1444 1542 Z" /></g><g class="o"><path transform="translate(4,8)" class="S sfh" d="M1069 1884 L1171 1782 L1209 1782 L1107 1884 Z"/><path class="fh6" d="M1069 1884 L1171 1782 L1209 1782 L1107 1884 Z" /></g><g class="o"><path transform="translate(8,16)" class="S sfv" d="M1751 1662 L1909 1504 L1909 1542 L1751 1700 Z"/><path class="fv1" d="M1751 1662 L1909 1504 L1909 1542 L1751 1700 Z" /></g><g class="o"><path transform="translate(9,18)" class="S sfh" d="M1442 2006 L1685 1763 L1719 1763 L1476 2006 Z"/><path class="fh4" d="M1442 2006 L1685 1763 L1719 1763 L1476 2006 Z" /></g><g class="o"><path transform="translate(2,4)" class="S sfh" d="M1866 1735 L2568 1033 L2588 1033 L1886 1735 Z"/><path class="fh5" d="M1866 1735 L2568 1033 L2588 1033 L1886 1735 Z" /></g><g class="o"><path transform="translate(8,16)" class="S sfv" d="M1467 962 L1625 804 L1625 836 L1467 994 Z"/><path class="fv7" d="M1467 962 L1625 804 L1625 836 L1467 994 Z" /></g><g class="o"><path transform="translate(3,6)" class="S sfh" d="M1650 1261 L1798 1113 L1806 1113 L1658 1261 Z"/><path class="fh4" d="M1650 1261 L1798 1113 L1806 1113 L1658 1261 Z" /></g><g class="o"><path transform="translate(5,10)" class="S sfv" d="M1315 1357 L1554 1118 L1554 1126 L1315 1365 Z"/><path class="fv3" d="M1315 1357 L1554 1118 L1554 1126 L1315 1365 Z" /></g><g class="o"><path transform="translate(4,8)" class="S sfv" d="M1491 1917 L1603 1805 L1603 1827 L1491 1939 Z"/><path class="fv1" d="M1491 1917 L1603 1805 L1603 1827 L1491 1939 Z" /></g><g class="o"><path transform="translate(8,16)" class="S sfh" d="M1465 1228 L1573 1120 L1595 1120 L1487 1228 Z"/><path class="fh1" d="M1465 1228 L1573 1120 L1595 1120 L1487 1228 Z" /></g><g class="o"><path transform="translate(7,14)" class="S sfh" d="M1102 1022 L1263 861 L1271 861 L1110 1022 Z"/><path class="fh1" d="M1102 1022 L1263 861 L1271 861 L1110 1022 Z" /></g><g class="o"><path transform="translate(3,6)" class="S sfv" d="M1759 1181 L1830 1110 L1830 1146 L1759 1217 Z"/><path class="fv4" d="M1759 1181 L1830 1110 L1830 1146 L1759 1217 Z" /></g><g class="o"><path transform="translate(5,10)" class="S sfh" d="M1246 1286 L1304 1228 L1318 1228 L1260 1286 Z"/><path class="fh1" d="M1246 1286 L1304 1228 L1318 1228 L1260 1286 Z" /></g><g class="o"><path transform="translate(7,14)" class="S sf" d="M1408 1179 L1637 950 L1647 950 L1418 1179 Z"/><path class="f5" d="M1408 1179 L1637 950 L1647 950 L1418 1179 Z" /></g><g class="o"><path transform="translate(8,16)" class="S ssv" d="M1653 976 L1811 818 L1811 830 L1653 988 Z"/><path class="sv1" d="M1653 976 L1811 818 L1811 830 L1653 988 Z" /></g><g class="o"><path transform="translate(4,8)" class="S sfh" d="M1220 1684 L1403 1501 L1415 1501 L1232 1684 Z"/><path class="fh4" d="M1220 1684 L1403 1501 L1415 1501 L1232 1684 Z" /></g><g class="o"><path transform="translate(9,18)" class="S sf" d="M1456 1621 L1513 1564 L1513 1586 L1456 1643 Z"/><path class="f4" d="M1456 1621 L1513 1564 L1513 1586 L1456 1643 Z" /></g><g class="o"><path transform="translate(5,10)" class="S sfh" d="M1612 1158 L2167 603 L2183 603 L1628 1158 Z"/><path class="fh5" d="M1612 1158 L2167 603 L2183 603 L1628 1158 Z" /></g><g class="o"><path transform="translate(6,12)" class="S sf" d="M1488 1839 L1671 1656 L1701 1656 L1518 1839 Z"/><path class="f1" d="M1488 1839 L1671 1656 L1701 1656 L1518 1839 Z" /></g><g class="o"><path transform="translate(8,16)" class="S sfv" d="M1772 1941 L1849 1864 L1849 1898 L1772 1975 Z"/><path class="fv1" d="M1772 1941 L1849 1864 L1849 1898 L1772 1975 Z" /></g><g class="o"><path transform="translate(5,10)" class="S sf" d="M1544 1544 L1645 1443 L1669 1443 L1568 1544 Z"/><path class="f4" d="M1544 1544 L1645 1443 L1669 1443 L1568 1544 Z" /></g><g class="o"><path transform="translate(5,10)" class="S sfh" d="M1963 1446 L2084 1325 L2114 1325 L1993 1446 Z"/><path class="fh3" d="M1963 1446 L2084 1325 L2114 1325 L1993 1446 Z" /></g><g class="o"><path transform="translate(2,4)" class="S ssv" d="M1691 1662 L1821 1532 L1821 1566 L1691 1696 Z"/><path class="sv7" d="M1691 1662 L1821 1532 L1821 1566 L1691 1696 Z" /></g><g class="o"><path transform="translate(6,12)" class="S sfv" d="M1729 1579 L1960 1348 L1960 1376 L1729 1607 Z"/><path class="fv1" d="M1729 1579 L1960 1348 L1960 1376 L1729 1607 Z" /></g><g class="o"><path transform="translate(4,8)" class="S sfv" d="M1374 1112 L1755 731 L1755 747 L1374 1128 Z"/><path class="fv2" d="M1374 1112 L1755 731 L1755 747 L1374 1128 Z" /></g><g class="o"><path transform="translate(9,18)" class="S sfh" d="M1976 1901 L2055 1822 L2083 1822 L2004 1901 Z"/><path class="fh7" d="M1976 1901 L2055 1822 L2083 1822 L2004 1901 Z" /></g><g class="o"><path transform="translate(5,10)" class="S sfh" d="M1965 1906 L2391 1480 L2423 1480 L1997 1906 Z"/><path class="fh4" d="M1965 1906 L2391 1480 L2423 1480 L1997 1906 Z" /></g><g class="o"><path transform="translate(8,16)" class="S ssv" d="M1619 1893 L1798 1714 L1798 1748 L1619 1927 Z"/><path class="sv7" d="M1619 1893 L1798 1714 L1798 1748 L1619 1927 Z" /></g><g class="o"><path transform="translate(5,10)" class="S ssv" d="M1921 1027 L2033 915 L2033 951 L1921 1063 Z"/><path class="sv5" d="M1921 1027 L2033 915 L2033 951 L1921 1063 Z" /></g><g class="o"><path transform="translate(3,6)" class="S ssv" d="M1694 942 L1830 806 L1830 824 L1694 960 Z"/><path class="sv5" d="M1694 942 L1830 806 L1830 824 L1694 960 Z" /></g><g class="o"><path transform="translate(9,18)" class="S sf" d="M1661 1849 L1826 1684 L1854 1684 L1689 1849 Z"/><path class="f5" d="M1661 1849 L1826 1684 L1854 1684 L1689 1849 Z" /></g><g class="o"><path transform="translate(8,16)" class="S sfh" d="M1413 1480 L2022 871 L2030 871 L1421 1480 Z"/><path class="fh3" d="M1413 1480 L2022 871 L2030 871 L1421 1480 Z" /></g><g class="o"><path transform="translate(3,6)" class="S sfh" d="M1388 1986 L1474 1900 L1482 1900 L1396 1986 Z"/><path class="fh2" d="M1388 1986 L1474 1900 L1482 1900 L1396 1986 Z" /></g><g class="o"><path transform="translate(5,10)" class="S sfh" d="M1441 1398 L1505 1334 L1529 1334 L1465 1398 Z"/><path class="fh3" d="M1441 1398 L1505 1334 L1529 1334 L1465 1398 Z" /></g><g class="o"><path transform="translate(4,8)" class="S ssv" d="M1424 1435 L1552 1307 L1552 1345 L1424 1473 Z"/><path class="sv6" d="M1424 1435 L1552 1307 L1552 1345 L1424 1473 Z" /></g><g class="o"><path transform="translate(3,6)" class="S sfv" d="M1867 1471 L2074 1264 L2074 1300 L1867 1507 Z"/><path class="fv6" d="M1867 1471 L2074 1264 L2074 1300 L1867 1507 Z" /></g><g class="o"><path transform="translate(9,18)" class="S sf" d="M957 1926 L1080 1803 L1080 1837 L957 1960 Z"/><path class="f2" d="M957 1926 L1080 1803 L1080 1837 L957 1960 Z" /></g><g class="o"><path transform="translate(7,14)" class="S sf" d="M1473 1629 L1635 1467 L1635 1497 L1473 1659 Z"/><path class="f1" d="M1473 1629 L1635 1467 L1635 1497 L1473 1659 Z" /></g><g class="o"><path transform="translate(8,16)" class="S ssh" d="M1314 1403 L1710 1007 L1738 1007 L1342 1403 Z"/><path class="sh5" d="M1314 1403 L1710 1007 L1738 1007 L1342 1403 Z" /></g><g class="o"><path transform="translate(6,12)" class="S sfh" d="M1266 1116 L1403 979 L1439 979 L1302 1116 Z"/><path class="fh4" d="M1266 1116 L1403 979 L1439 979 L1302 1116 Z" /></g><g class="o"><path transform="translate(2,4)" class="S sfv" d="M1633 1363 L1719 1277 L1719 1303 L1633 1389 Z"/><path class="fv3" d="M1633 1363 L1719 1277 L1719 1303 L1633 1389 Z" /></g><g class="o"><path transform="translate(7,14)" class="S ssv" d="M1321 1815 L1408 1728 L1408 1744 L1321 1831 Z"/><path class="sv6" d="M1321 1815 L1408 1728 L1408 1744 L1321 1831 Z" /></g><g class="o"><path transform="translate(8,16)" class="S sfv" d="M1130 1507 L1499 1138 L1499 1162 L1130 1531 Z"/><path class="fv4" d="M1130 1507 L1499 1138 L1499 1162 L1130 1531 Z" /></g><g class="o"><path transform="translate(3,6)" class="S ssv" d="M1696 1880 L1780 1796 L1780 1806 L1696 1890 Z"/><path class="sv5" d="M1696 1880 L1780 1796 L1780 1806 L1696 1890 Z" /></g><g class="o"><path transform="translate(5,10)" class="S sfv" d="M2038 1088 L2101 1025 L2101 1033 L2038 1096 Z"/><path class="fv2" d="M2038 1088 L2101 1025 L2101 1033 L2038 1096 Z" /></g><g class="o"><path transform="translate(7,14)" class="S ssv" d="M1383 1530 L1466 1447 L1466 1459 L1383 1542 Z"/><path class="sv7" d="M1383 1530 L1466 1447 L1466 1459 L1383 1542 Z" /></g><g class="o"><path transform="translate(5,10)" class="S sfv" d="M1965 1504 L2153 1316 L2153 1348 L1965 1536 Z"/><path class="fv4" d="M1965 1504 L2153 1316 L2153 1348 L1965 1536 Z" /></g><g class="o"><path transform="translate(4,8)" class="S sfh" d="M1637 2034 L1922 1749 L1958 1749 L1673 2034 Z"/><path class="fh6" d="M1637 2034 L1922 1749 L1958 1749 L1673 2034 Z" /></g><g class="o"><path transform="translate(5,10)" class="S ssv" d="M1334 2008 L2066 1276 L2066 1286 L1334 2018 Z"/><path class="sv3" d="M1334 2008 L2066 1276 L2066 1286 L1334 2018 Z" /></g><g class="o"><path transform="translate(5,10)" class="S ss" d="M1225 1500 L1435 1290 L1451 1290 L1241 1500 Z"/><path class="s1" d="M1225 1500 L1435 1290 L1451 1290 L1241 1500 Z" /></g><g class="o"><path transform="translate(8,16)" class="S sfh" d="M1334 1956 L1471 1819 L1497 1819 L1360 1956 Z"/><path class="fh2" d="M1334 1956 L1471 1819 L1497 1819 L1360 1956 Z" /></g><g class="o"><path transform="translate(8,16)" class="S sfh" d="M1206 1892 L1279 1819 L1295 1819 L1222 1892 Z"/><path class="fh6" d="M1206 1892 L1279 1819 L1295 1819 L1222 1892 Z" /></g><g class="o"><path transform="translate(9,18)" class="S sfh" d="M1017 1503 L1371 1149 L1395 1149 L1041 1503 Z"/><path class="fh1" d="M1017 1503 L1371 1149 L1395 1149 L1041 1503 Z" /></g><g class="o"><path transform="translate(5,10)" class="S sf" d="M1027 1473 L1084 1416 L1084 1440 L1027 1497 Z"/><path class="f2" d="M1027 1473 L1084 1416 L1084 1440 L1027 1497 Z" /></g><g class="o"><path transform="translate(9,18)" class="S sfv" d="M1225 1182 L1468 939 L1468 949 L1225 1192 Z"/><path class="fv2" d="M1225 1182 L1468 939 L1468 949 L1225 1192 Z" /></g><g class="o"><path transform="translate(8,16)" class="S sfh" d="M1314 1005 L1479 840 L1511 840 L1346 1005 Z"/><path class="fh4" d="M1314 1005 L1479 840 L1511 840 L1346 1005 Z" /></g><g class="o"><path transform="translate(2,4)" class="S sfh" d="M1368 1699 L1505 1562 L1541 1562 L1404 1699 Z"/><path class="fh1" d="M1368 1699 L1505 1562 L1541 1562 L1404 1699 Z" /></g><g class="o"><path transform="translate(7,14)" class="S sf" d="M1908 1435 L2085 1258 L2119 1258 L1942 1435 Z"/><path class="f6" d="M1908 1435 L2085 1258 L2119 1258 L1942 1435 Z" /></g><g class="o"><path transform="translate(4,8)" class="S sfv" d="M1544 1190 L1715 1019 L1715 1043 L1544 1214 Z"/><path class="fv4" d="M1544 1190 L1715 1019 L1715 1043 L1544 1214 Z" /></g><g class="o"><path transform="translate(6,12)" class="S ss" d="M1704 2006 L1792 1918 L1792 1954 L1704 2042 Z"/><path class="s7" d="M1704 2006 L1792 1918 L1792 1954 L1704 2042 Z" /></g><g class="o"><path transform="translate(4,8)" class="S sfh" d="M1075 1877 L1286 1666 L1302 1666 L1091 1877 Z"/><path class="fh5" d="M1075 1877 L1286 1666 L1302 1666 L1091 1877 Z" /></g><g class="o"><path transform="translate(2,4)" class="S ssh" d="M1198 1084 L1357 925 L1379 925 L1220 1084 Z"/><path class="sh7" d="M1198 1084 L1357 925 L1379 925 L1220 1084 Z" /></g><g class="o"><path transform="translate(6,12)" class="S sfh" d="M1479 1326 L1917 888 L1949 888 L1511 1326 Z"/><path class="fh2" d="M1479 1326 L1917 888 L1949 888 L1511 1326 Z" /></g><g class="o"><path transform="translate(7,14)" class="S sfh" d="M1019 1766 L1080 1705 L1100 1705 L1039 1766 Z"/><path class="fh1" d="M1019 1766 L1080 1705 L1100 1705 L1039 1766 Z" /></g><g class="o"><path transform="translate(3,6)" class="S ssh" d="M1042 1751 L1124 1669 L1134 1669 L1052 1751 Z"/><path class="sh4" d="M1042 1751 L1124 1669 L1134 1669 L1052 1751 Z" /></g><g class="o"><path transform="translate(3,6)" class="S sfh" d="M1424 1140 L1556 1008 L1566 1008 L1434 1140 Z"/><path class="fh7" d="M1424 1140 L1556 1008 L1566 1008 L1434 1140 Z" /></g><g class="o"><path transform="translate(7,14)" class="S sfh" d="M1108 1130 L1273 965 L1285 965 L1120 1130 Z"/><path class="fh2" d="M1108 1130 L1273 965 L1285 965 L1120 1130 Z" /></g><g class="o"><path transform="translate(2,4)" class="S ssh" d="M1088 1049 L1144 993 L1156 993 L1100 1049 Z"/><path class="sh4" d="M1088 1049 L1144 993 L1156 993 L1100 1049 Z" /></g><g class="o"><path transform="translate(5,10)" class="S sfv" d="M1051 1317 L1279 1089 L1279 1127 L1051 1355 Z"/><path class="fv7" d="M1051 1317 L1279 1089 L1279 1127 L1051 1355 Z" /></g><g class="o"><path transform="translate(5,10)" class="S sfv" d="M1222 1780 L1395 1607 L1395 1617 L1222 1790 Z"/><path class="fv5" d="M1222 1780 L1395 1607 L1395 1617 L1222 1790 Z" /></g><g class="o"><path transform="translate(6,12)" class="S sfv" d="M1936 1607 L2026 1517 L2026 1535 L1936 1625 Z"/><path class="fv1" d="M1936 1607 L2026 1517 L2026 1535 L1936 1625 Z" /></g><g class="o"><path transform="translate(8,16)" class="S ssh" d="M1342 1766 L1422 1686 L1454 1686 L1374 1766 Z"/><path class="sh3" d="M1342 1766 L1422 1686 L1454 1686 L1374 1766 Z" /></g><g class="o"><path transform="translate(8,16)" class="S sfv" d="M1396 1056 L1468 984 L1468 994 L1396 1066 Z"/><path class="fv2" d="M1396 1056 L1468 984 L1468 994 L1396 1066 Z" /></g><g class="o"><path transform="translate(2,4)" class="S sfh" d="M1759 1834 L1937 1656 L1963 1656 L1785 1834 Z"/><path class="fh1" d="M1759 1834 L1937 1656 L1963 1656 L1785 1834 Z" /></g><g class="o"><path transform="translate(7,14)" class="S sfh" d="M1035 1106 L1269 872 L1297 872 L1063 1106 Z"/><path class="fh2" d="M1035 1106 L1269 872 L1297 872 L1063 1106 Z" /></g><g class="o"><path transform="translate(9,18)" class="S sfh" d="M1298 1977 L1386 1889 L1422 1889 L1334 1977 Z"/><path class="fh3" d="M1298 1977 L1386 1889 L1422 1889 L1334 1977 Z" /></g><g class="o"><path transform="translate(4,8)" class="S ssh" d="M1220 1428 L1439 1209 L1455 1209 L1236 1428 Z"/><path class="sh1" d="M1220 1428 L1439 1209 L1455 1209 L1236 1428 Z" /></g><g class="o"><path transform="translate(6,12)" class="S sfv" d="M1783 1677 L2047 1413 L2047 1437 L1783 1701 Z"/><path class="fv2" d="M1783 1677 L2047 1413 L2047 1437 L1783 1701 Z" /></g><g class="o"><path transform="translate(8,16)" class="S sfv" d="M1835 1934 L1960 1809 L1960 1837 L1835 1962 Z"/><path class="fv7" d="M1835 1934 L1960 1809 L1960 1837 L1835 1962 Z" /></g><g class="o"><path transform="translate(6,12)" class="S sfh" d="M1716 1747 L1819 1644 L1833 1644 L1730 1747 Z"/><path class="fh4" d="M1716 1747 L1819 1644 L1833 1644 L1730 1747 Z" /></g><g class="o"><path transform="translate(4,8)" class="S sf" d="M1342 1043 L2089 296 L2089 314 L1342 1061 Z"/><path class="f5" d="M1342 1043 L2089 296 L2089 314 L1342 1061 Z" /></g><g class="o"><path transform="translate(9,18)" class="S sf" d="M1606 1562 L1672 1496 L1672 1510 L1606 1576 Z"/><path class="f3" d="M1606 1562 L1672 1496 L1672 1510 L1606 1576 Z" /></g><g class="o"><path transform="translate(2,4)" class="S ssh" d="M972 1362 L1155 1179 L1171 1179 L988 1362 Z"/><path class="sh1" d="M972 1362 L1155 1179 L1171 1179 L988 1362 Z" /></g><g class="o"><path transform="translate(5,10)" class="S ssh" d="M971 1720 L1197 1494 L1211 1494 L985 1720 Z"/><path class="sh6" d="M971 1720 L1197 1494 L1211 1494 L985 1720 Z" /></g><g class="o"><path transform="translate(9,18)" class="S ssh" d="M1175 1926 L1272 1829 L1294 1829 L1197 1926 Z"/><path class="sh5" d="M1175 1926 L1272 1829 L1294 1829 L1197 1926 Z" /></g><g class="o"><path transform="translate(2,4)" class="S sf" d="M1098 1554 L1222 1430 L1222 1458 L1098 1582 Z"/><path class="f3" d="M1098 1554 L1222 1430 L1222 1458 L1098 1582 Z" /></g><g class="o"><path transform="translate(9,18)" class="S sfh" d="M1610 1879 L1808 1681 L1820 1681 L1622 1879 Z"/><path class="fh5" d="M1610 1879 L1808 1681 L1820 1681 L1622 1879 Z" /></g><g class="o"><path transform="translate(2,4)" class="S sfv" d="M2013 1235 L2523 725 L2523 753 L2013 1263 Z"/><path class="fv7" d="M2013 1235 L2523 725 L2523 753 L2013 1263 Z" /></g><g class="o"><path transform="translate(5,10)" class="S ssv" d="M1940 1966 L2008 1898 L2008 1918 L1940 1986 Z"/><path class="sv6" d="M1940 1966 L2008 1898 L2008 1918 L1940 1986 Z" /></g><g class="o"><path transform="translate(7,14)" class="S sf" d="M2016 1019 L2097 938 L2135 938 L2054 1019 Z"/><path class="f2" d="M2016 1019 L2097 938 L2135 938 L2054 1019 Z" /></g><g class="o"><path transform="translate(8,16)" class="S sfh" d="M1222 1530 L1337 1415 L1367 1415 L1252 1530 Z"/><path class="fh4" d="M1222 1530 L1337 1415 L1367 1415 L1252 1530 Z" /></g><g class="o"><path transform="translate(9,18)" class="S sfv" d="M1031 1471 L1131 1371 L1131 1397 L1031 1497 Z"/><path class="fv6" d="M1031 1471 L1131 1371 L1131 1397 L1031 1497 Z" /></g><g class="o"><path transform="translate(8,16)" class="S ssv" d="M1003 1333 L1126 1210 L1126 1232 L1003 1355 Z"/><path class="sv6" d="M1003 1333 L1126 1210 L1126 1232 L1003 1355 Z" /></g><g class="o"><path transform="translate(4,8)" class="S sfh" d="M1879 1856 L1969 1766 L1991 1766 L1901 1856 Z"/><path class="fh2" d="M1879 1856 L1969 1766 L1991 1766 L1901 1856 Z" /></g><g class="o"><path transform="translate(5,10)" class="S sfv" d="M1706 1943 L1838 1811 L1838 1827 L1706 1959 Z"/><path class="fv6" d="M1706 1943 L1838 1811 L1838 1827 L1706 1959 Z" /></g><g class="o"><path transform="translate(6,12)" class="S sfh" d="M1430 1605 L1643 1392 L1673 1392 L1460 1605 Z"/><path class="fh3" d="M1430 1605 L1643 1392 L1673 1392 L1460 1605 Z" /></g><g class="o"><path transform="translate(9,18)" class="S sfh" d="M1995 1728 L2210 1513 L2232 1513 L2017 1728 Z"/><path class="fh6" d="M1995 1728 L2210 1513 L2232 1513 L2017 1728 Z" /></g><g class="o"><path transform="translate(2,4)" class="S sfv" d="M1750 1956 L1987 1719 L1987 1741 L1750 1978 Z"/><path class="fv1" d="M1750 1956 L1987 1719 L1987 1741 L1750 1978 Z" /></g><g class="o"><path transform="translate(2,4)" class="S sfv" d="M1371 1205 L1459 1117 L1459 1131 L1371 1219 Z"/><path class="fv4" d="M1371 1205 L1459 1117 L1459 1131 L1371 1219 Z" /></g><g class="o"><path transform="translate(7,14)" class="S ssh" d="M1811 1728 L1983 1556 L2015 1556 L1843 1728 Z"/><path class="sh3" d="M1811 1728 L1983 1556 L2015 1556 L1843 1728 Z" /></g><g class="o"><path transform="translate(5,10)" class="S ssh" d="M1244 1373 L1460 1157 L1494 1157 L1278 1373 Z"/><path class="sh2" d="M1244 1373 L1460 1157 L1494 1157 L1278 1373 Z" /></g><g class="o"><path transform="translate(4,8)" class="S sfh" d="M1397 1030 L1543 884 L1563 884 L1417 1030 Z"/><path class="fh5" d="M1397 1030 L1543 884 L1563 884 L1417 1030 Z" /></g><g class="o"><path transform="translate(4,8)" class="S sfv" d="M1776 1229 L1893 1112 L1893 1126 L1776 1243 Z"/><path class="fv4" d="M1776 1229 L1893 1112 L1893 1126 L1776 1243 Z" /></g><g class="o"><path transform="translate(5,10)" class="S sfh" d="M1986 1631 L2202 1415 L2222 1415 L2006 1631 Z"/><path class="fh6" d="M1986 1631 L2202 1415 L2222 1415 L2006 1631 Z" /></g><g class="o"><path transform="translate(4,8)" class="S sfv" d="M990 1909 L1686 1213 L1686 1243 L990 1939 Z"/><path class="fv4" d="M990 1909 L1686 1213 L1686 1243 L990 1939 Z" /></g><g class="o"><path transform="translate(7,14)" class="S sfv" d="M1805 1279 L1914 1170 L1914 1182 L1805 1291 Z"/><path class="fv3" d="M1805 1279 L1914 1170 L1914 1182 L1805 1291 Z" /></g><g class="o"><path transform="translate(2,4)" class="S sfv" d="M2004 1202 L2248 958 L2248 996 L2004 1240 Z"/><path class="fv7" d="M2004 1202 L2248 958 L2248 996 L2004 1240 Z" /></g><g class="o"><path transform="translate(3,6)" class="S sfv" d="M1958 1167 L2076 1049 L2076 1081 L1958 1199 Z"/><path class="fv7" d="M1958 1167 L2076 1049 L2076 1081 L1958 1199 Z" /></g><g class="o"><path transform="translate(8,16)" class="S sfv" d="M1915 1832 L1974 1773 L1974 1795 L1915 1854 Z"/><path class="fv6" d="M1915 1832 L1974 1773 L1974 1795 L1915 1854 Z" /></g><g class="o"><path transform="translate(2,4)" class="S sfv" d="M958 1639 L1153 1444 L1153 1480 L958 1675 Z"/><path class="fv6" d="M958 1639 L1153 1444 L1153 1480 L958 1675 Z" /></g><g class="o"><path transform="translate(9,18)" class="S sfv" d="M1067 1880 L1523 1424 L1523 1434 L1067 1890 Z"/><path class="fv6" d="M1067 1880 L1523 1424 L1523 1434 L1067 1890 Z" /></g><g class="o"><path transform="translate(3,6)" class="S sf" d="M1807 1135 L1957 985 L1957 1021 L1807 1171 Z"/><path class="f6" d="M1807 1135 L1957 985 L1957 1021 L1807 1171 Z" /></g><g class="o"><path transform="translate(2,4)" class="S sfv" d="M1400 1663 L1482 1581 L1482 1595 L1400 1677 Z"/><path class="fv1" d="M1400 1663 L1482 1581 L1482 1595 L1400 1677 Z" /></g><g class="o"><path transform="translate(5,10)" class="S sfh" d="M1617 1856 L1851 1622 L1867 1622 L1633 1856 Z"/><path class="fh7" d="M1617 1856 L1851 1622 L1867 1622 L1633 1856 Z" /></g><g class="o"><path transform="translate(7,14)" class="S sfh" d="M1325 1310 L1453 1182 L1475 1182 L1347 1310 Z"/><path class="fh7" d="M1325 1310 L1453 1182 L1475 1182 L1347 1310 Z" /></g><g class="o"><path transform="translate(3,6)" class="S sf" d="M2002 1155 L2125 1032 L2125 1054 L2002 1177 Z"/><path class="f7" d="M2002 1155 L2125 1032 L2125 1054 L2002 1177 Z" /></g><g class="o"><path transform="translate(9,18)" class="S sfv" d="M1694 1133 L1849 978 L1849 996 L1694 1151 Z"/><path class="fv1" d="M1694 1133 L1849 978 L1849 996 L1694 1151 Z" /></g><g class="o"><path transform="translate(9,18)" class="S sfh" d="M1606 1391 L1749 1248 L1777 1248 L1634 1391 Z"/><path class="fh1" d="M1606 1391 L1749 1248 L1777 1248 L1634 1391 Z" /></g><g class="o"><path transform="translate(4,8)" class="S sfv" d="M1456 1975 L1518 1913 L1518 1937 L1456 1999 Z"/><path class="fv4" d="M1456 1975 L1518 1913 L1518 1937 L1456 1999 Z" /></g><g class="o"><path transform="translate(9,18)" class="S sf" d="M1836 2043 L2076 1803 L2114 1803 L1874 2043 Z"/><path class="f3" d="M1836 2043 L2076 1803 L2114 1803 L1874 2043 Z" /></g></g><use href="#slashes" transform-origin="1500 1500" transform="rotate(180) scale(2)"/></g><circle cx="1500" cy="1500" r="450" stroke-width="20" class="o s4" /><use href="#slashes" transform-origin="1500 1500" transform="scale(.6)"/><use href="#slashes" transform-origin="1500 1500" transform="rotate(180) scale(.6)"/></svg>