<svg xmlns="http://www.w3.org/2000/svg" viewBox="750 750 1500 1500"><style>/*<![CDATA[*/svg{background:rgb(244,91,105);max-width:100vw;max-height:100vh}path{stroke-width:4}.o{opacity:.75}.S{opacity:.4}.sf{stroke:none;fill:black}.sfh{stroke:none;fill:url(#hs)}.sfv{stroke:none;fill:url(#vs)}.ss{stroke:black;fill:none}.ssh{stroke:url(#hs);fill:none}.ssv{stroke:url(#vs);fill:none}.s1{fill:none;stroke:rgb(2,128,144)}.f1{stroke:none;fill:rgb(2,128,144)}.sh1{fill:none;stroke:url(#h1)}.fh1{stroke:none;fill:url(#h1)}.sv1{fill:none;stroke:url(#v1)}.fv1{stroke:none;fill:url(#v1)}.s2{fill:none;stroke:rgb(34,34,34)}.f2{stroke:none;fill:rgb(34,34,34)}.sh2{fill:none;stroke:url(#h2)}.fh2{stroke:none;fill:url(#h2)}.sv2{fill:none;stroke:url(#v2)}.fv2{stroke:none;fill:url(#v2)}.s3{fill:none;stroke:rgb(228,253,225)}.f3{stroke:none;fill:rgb(228,253,225)}.sh3{fill:none;stroke:url(#h3)}.fh3{stroke:none;fill:url(#h3)}.sv3{fill:none;stroke:url(#v3)}.fv3{stroke:none;fill:url(#v3)}.s4{fill:none;stroke:rgb(17,75,95)}.f4{stroke:none;fill:rgb(17,75,95)}.sh4{fill:none;stroke:url(#h4)}.fh4{stroke:none;fill:url(#h4)}.sv4{fill:none;stroke:url(#v4)}.fv4{stroke:none;fill:url(#v4)}.s5{fill:none;stroke:rgb(69,105,144)}.f5{stroke:none;fill:rgb(69,105,144)}.sh5{fill:none;stroke:url(#h5)}.fh5{stroke:none;fill:url(#h5)}.sv5{fill:none;stroke:url(#v5)}.fv5{stroke:none;fill:url(#v5)}.s6{fill:none;stroke:rgb(255,255,255)}.f6{stroke:none;fill:rgb(255,255,255)}.sh6{fill:none;stroke:url(#h6)}.fh6{stroke:none;fill:url(#h6)}.sv6{fill:none;stroke:url(#v6)}.fv6{stroke:none;fill:url(#v6)}.s7{fill:none;stroke:rgb(255,255,0)}.f7{stroke:none;fill:rgb(255,255,0)}.sh7{fill:none;stroke:url(#h7)}.fh7{stroke:none;fill:url(#h7)}.sv7{fill:none;stroke:url(#v7)}.fv7{stroke:none;fill:url(#v7)}/*]]>*/</style><defs><linearGradient gradientTransform="rotate(90)" id="hs"><stop offset="20%" stop-color="#000" /><stop offset="95%" stop-color="rgba(0, 0, 0, 0)" /></linearGradient><linearGradient id="vs"><stop offset="20%" stop-color="#000" /><stop offset="95%" stop-color="rgba(0, 0, 0, 0)" /></linearGradient><linearGradient gradientTransform="rotate(90)" id="h1"><stop offset="20%" stop-color="rgba(2,128,144,1)" /><stop offset="95%" stop-color="rgba(2,128,144,0)" /></linearGradient><linearGradient id="v1"><stop offset="20%" stop-color="rgba(2,128,144,1)" /><stop offset="95%" stop-color="rgba(2,128,144,0)" /></linearGradient><linearGradient gradientTransform="rotate(90)" id="h2"><stop offset="20%" stop-color="rgba(34,34,34,1)" /><stop offset="95%" stop-color="rgba(34,34,34,0)" /></linearGradient><linearGradient id="v2"><stop offset="20%" stop-color="rgba(34,34,34,1)" /><stop offset="95%" stop-color="rgba(34,34,34,0)" /></linearGradient><linearGradient gradientTransform="rotate(90)" id="h3"><stop offset="20%" stop-color="rgba(228,253,225,1)" /><stop offset="95%" stop-color="rgba(228,253,225,0)" /></linearGradient><linearGradient id="v3"><stop offset="20%" stop-color="rgba(228,253,225,1)" /><stop offset="95%" stop-color="rgba(228,253,225,0)" /></linearGradient><linearGradient gradientTransform="rotate(90)" id="h4"><stop offset="20%" stop-color="rgba(17,75,95,1)" /><stop offset="95%" stop-color="rgba(17,75,95,0)" /></linearGradient><linearGradient id="v4"><stop offset="20%" stop-color="rgba(17,75,95,1)" /><stop offset="95%" stop-color="rgba(17,75,95,0)" /></linearGradient><linearGradient gradientTransform="rotate(90)" id="h5"><stop offset="20%" stop-color="rgba(69,105,144,1)" /><stop offset="95%" stop-color="rgba(69,105,144,0)" /></linearGradient><linearGradient id="v5"><stop offset="20%" stop-color="rgba(69,105,144,1)" /><stop offset="95%" stop-color="rgba(69,105,144,0)" /></linearGradient><linearGradient gradientTransform="rotate(90)" id="h6"><stop offset="20%" stop-color="rgba(255,255,255,1)" /><stop offset="95%" stop-color="rgba(255,255,255,0)" /></linearGradient><linearGradient id="v6"><stop offset="20%" stop-color="rgba(255,255,255,1)" /><stop offset="95%" stop-color="rgba(255,255,255,0)" /></linearGradient><linearGradient gradientTransform="rotate(90)" id="h7"><stop offset="20%" stop-color="rgba(255,255,0,1)" /><stop offset="95%" stop-color="rgba(255,255,0,0)" /></linearGradient><linearGradient id="v7"><stop offset="20%" stop-color="rgba(255,255,0,1)" /><stop offset="95%" stop-color="rgba(255,255,0,0)" /></linearGradient></defs><g transform-origin="1500 1500" transform="scale(2)" opacity=".2"><g id="slashes"><g class="o"><path transform="translate(5,10)" class="S sfv" d="M1169 1154 L926 1397 L926 1421 L1169 1178 Z"/><path class="fv7" d="M1169 1154 L926 1397 L926 1421 L1169 1178 Z" /></g><g class="o"><path transform="translate(2,4)" class="S sfv" d="M1137 1301 L1521 917 L1521 941 L1137 1325 Z"/><path class="fv3" d="M1137 1301 L1521 917 L1521 941 L1137 1325 Z" /></g><g class="o"><path transform="translate(5,10)" class="S sfv" d="M1586 1557 L1799 1344 L1799 1354 L1586 1567 Z"/><path class="fv7" d="M1586 1557 L1799 1344 L1799 1354 L1586 1567 Z" /></g><g class="o"><path transform="translate(2,4)" class="S sfv" d="M1305 1942 L1150 1787 L1150 1795 L1305 1950 Z"/><path class="fv5" d="M1305 1942 L1150 1787 L1150 1795 L1305 1950 Z" /></g><g class="o"><path transform="translate(2,4)" class="S sfv" d="M1733 1233 L1567 1067 L1567 1089 L1733 1255 Z"/><path class="fv2" d="M1733 1233 L1567 1067 L1567 1089 L1733 1255 Z" /></g><g class="o"><path transform="translate(3,6)" class="S sfh" d="M1547 2004 L1730 2187 L1764 2187 L1581 2004 Z"/><path class="fh1" d="M1547 2004 L1730 2187 L1764 2187 L1581 2004 Z" /></g><g class="o"><path transform="translate(6,12)" class="S sfh" d="M1473 1989 L1532 2048 L1544 2048 L1485 1989 Z"/><path class="fh5" d="M1473 1989 L1532 2048 L1544 2048 L1485 1989 Z" /></g><g class="o"><path transform="translate(7,14)" class="S sfh" d="M1102 1215 L1012 1125 L1020 1125 L1110 1215 Z"/><path class="fh3" d="M1102 1215 L1012 1125 L1020 1125 L1110 1215 Z" /></g><g class="o"><path transform="translate(5,10)" class="S sfh" d="M1076 2044 L1311 1809 L1323 1809 L1088 2044 Z"/><path class="fh3" d="M1076 2044 L1311 1809 L1323 1809 L1088 2044 Z" /></g><g class="o"><path transform="translate(3,6)" class="S sfh" d="M1450 1731 L1598 1879 L1620 1879 L1472 1731 Z"/><path class="fh5" d="M1450 1731 L1598 1879 L1620 1879 L1472 1731 Z" /></g><g class="o"><path transform="translate(3,6)" class="S sfv" d="M1272 1160 L1498 934 L1498 954 L1272 1180 Z"/><path class="fv5" d="M1272 1160 L1498 934 L1498 954 L1272 1180 Z" /></g><g class="o"><path transform="translate(6,12)" class="S sfv" d="M1089 1237 L1229 1377 L1229 1397 L1089 1257 Z"/><path class="fv3" d="M1089 1237 L1229 1377 L1229 1397 L1089 1257 Z" /></g><g class="o"><path transform="translate(9,18)" class="S sfh" d="M1696 1720 L1891 1525 L1911 1525 L1716 1720 Z"/><path class="fh2" d="M1696 1720 L1891 1525 L1911 1525 L1716 1720 Z" /></g><g class="o"><path transform="translate(2,4)" class="S ssv" d="M1280 1289 L1096 1473 L1096 1481 L1280 1297 Z"/><path class="sv1" d="M1280 1289 L1096 1473 L1096 1481 L1280 1297 Z" /></g><g class="o"><path transform="translate(8,16)" class="S sfh" d="M1165 1804 L1389 1580 L1409 1580 L1185 1804 Z"/><path class="fh5" d="M1165 1804 L1389 1580 L1409 1580 L1185 1804 Z" /></g><g class="o"><path transform="translate(2,4)" class="S ssv" d="M1765 1595 L1926 1756 L1926 1778 L1765 1617 Z"/><path class="sv7" d="M1765 1595 L1926 1756 L1926 1778 L1765 1617 Z" /></g><g class="o"><path transform="translate(7,14)" class="S sfv" d="M1655 1826 L1795 1686 L1795 1708 L1655 1848 Z"/><path class="fv3" d="M1655 1826 L1795 1686 L1795 1708 L1655 1848 Z" /></g><g class="o"><path transform="translate(9,18)" class="S sfh" d="M1131 1235 L1374 992 L1408 992 L1165 1235 Z"/><path class="fh6" d="M1131 1235 L1374 992 L1408 992 L1165 1235 Z" /></g><g class="o"><path transform="translate(5,10)" class="S ssh" d="M1086 1197 L1186 1097 L1194 1097 L1094 1197 Z"/><path class="sh2" d="M1086 1197 L1186 1097 L1194 1097 L1094 1197 Z" /></g><g class="o"><path transform="translate(4,8)" class="S sfv" d="M1788 1104 L1973 919 L1973 945 L1788 1130 Z"/><path class="fv3" d="M1788 1104 L1973 919 L1973 945 L1788 1130 Z" /></g><g class="o"><path transform="translate(8,16)" class="S sfh" d="M1429 1622 L979 2072 L1007 2072 L1457 1622 Z"/><path class="fh1" d="M1429 1622 L979 2072 L1007 2072 L1457 1622 Z" /></g><g class="o"><path transform="translate(5,10)" class="S sfh" d="M982 1291 L736 1537 L756 1537 L1002 1291 Z"/><path class="fh3" d="M982 1291 L736 1537 L756 1537 L1002 1291 Z" /></g><g class="o"><path transform="translate(5,10)" class="S sfv" d="M1498 1295 L1615 1412 L1615 1420 L1498 1303 Z"/><path class="fv4" d="M1498 1295 L1615 1412 L1615 1420 L1498 1303 Z" /></g><g class="o"><path transform="translate(6,12)" class="S sfh" d="M984 1927 L847 2064 L859 2064 L996 1927 Z"/><path class="fh5" d="M984 1927 L847 2064 L859 2064 L996 1927 Z" /></g><g class="o"><path transform="translate(7,14)" class="S sfv" d="M1196 1293 L1262 1227 L1262 1251 L1196 1317 Z"/><path class="fv4" d="M1196 1293 L1262 1227 L1262 1251 L1196 1317 Z" /></g><g class="o"><path transform="translate(6,12)" class="S sfv" d="M1849 1118 L2030 937 L2030 961 L1849 1142 Z"/><path class="fv7" d="M1849 1118 L2030 937 L2030 961 L1849 1142 Z" /></g><g class="o"><path transform="translate(4,8)" class="S ssh" d="M1375 1132 L916 673 L954 673 L1413 1132 Z"/><path class="sh2" d="M1375 1132 L916 673 L954 673 L1413 1132 Z" /></g><g class="o"><path transform="translate(6,12)" class="S sfh" d="M1772 1721 L1918 1867 L1954 1867 L1808 1721 Z"/><path class="fh1" d="M1772 1721 L1918 1867 L1954 1867 L1808 1721 Z" /></g><g class="o"><path transform="translate(3,6)" class="S sfh" d="M1443 1837 L1354 1926 L1378 1926 L1467 1837 Z"/><path class="fh1" d="M1443 1837 L1354 1926 L1378 1926 L1467 1837 Z" /></g><g class="o"><path transform="translate(9,18)" class="S sfh" d="M1480 1917 L1276 2121 L1298 2121 L1502 1917 Z"/><path class="fh7" d="M1480 1917 L1276 2121 L1298 2121 L1502 1917 Z" /></g><g class="o"><path transform="translate(9,18)" class="S ssh" d="M1816 1506 L2051 1741 L2063 1741 L1828 1506 Z"/><path class="sh5" d="M1816 1506 L2051 1741 L2063 1741 L1828 1506 Z" /></g><g class="o"><path transform="translate(5,10)" class="S sfh" d="M1935 1954 L2142 1747 L2158 1747 L1951 1954 Z"/><path class="fh7" d="M1935 1954 L2142 1747 L2158 1747 L1951 1954 Z" /></g><g class="o"><path transform="translate(7,14)" class="S sfh" d="M1305 1782 L1099 1988 L1117 1988 L1323 1782 Z"/><path class="fh6" d="M1305 1782 L1099 1988 L1117 1988 L1323 1782 Z" /></g><g class="o"><path transform="translate(5,10)" class="S sfh" d="M1008 1492 L825 1675 L833 1675 L1016 1492 Z"/><path class="fh2" d="M1008 1492 L825 1675 L833 1675 L1016 1492 Z" /></g><g class="o"><path transform="translate(2,4)" class="S sfv" d="M1739 1608 L1824 1523 L1824 1537 L1739 1622 Z"/><path class="fv4" d="M1739 1608 L1824 1523 L1824 1537 L1739 1622 Z" /></g><g class="o"><path transform="translate(2,4)" class="S sfv" d="M1030 2000 L1232 1798 L1232 1806 L1030 2008 Z"/><path class="fv2" d="M1030 2000 L1232 1798 L1232 1806 L1030 2008 Z" /></g><g class="o"><path transform="translate(3,6)" class="S ssh" d="M1920 1582 L2132 1370 L2158 1370 L1946 1582 Z"/><path class="sh2" d="M1920 1582 L2132 1370 L2158 1370 L1946 1582 Z" /></g><g class="o"><path transform="translate(7,14)" class="S sfv" d="M1367 1120 L1216 969 L1216 1005 L1367 1156 Z"/><path class="fv3" d="M1367 1120 L1216 969 L1216 1005 L1367 1156 Z" /></g><g class="o"><path transform="translate(8,16)" class="S sfh" d="M1191 1459 L1139 1511 L1157 1511 L1209 1459 Z"/><path class="fh5" d="M1191 1459 L1139 1511 L1157 1511 L1209 1459 Z" /></g><g class="o"><path transform="translate(5,10)" class="S sfh" d="M1465 1224 L2158 531 L2178 531 L1485 1224 Z"/><path class="fh2" d="M1465 1224 L2158 531 L2178 531 L1485 1224 Z" /></g><g class="o"><path transform="translate(5,10)" class="S sfh" d="M1761 1588 L1401 1948 L1419 1948 L1779 1588 Z"/><path class="fh5" d="M1761 1588 L1401 1948 L1419 1948 L1779 1588 Z" /></g><g class="o"><path transform="translate(8,16)" class="S sfv" d="M1747 1097 L1968 1318 L1968 1332 L1747 1111 Z"/><path class="fv7" d="M1747 1097 L1968 1318 L1968 1332 L1747 1111 Z" /></g><g class="o"><path transform="translate(4,8)" class="S sfv" d="M1927 1453 L2146 1672 L2146 1692 L1927 1473 Z"/><path class="fv3" d="M1927 1453 L2146 1672 L2146 1692 L1927 1473 Z" /></g><g class="o"><path transform="translate(6,12)" class="S sfv" d="M1258 974 L1042 758 L1042 772 L1258 988 Z"/><path class="fv6" d="M1258 974 L1042 758 L1042 772 L1258 988 Z" /></g><g class="o"><path transform="translate(3,6)" class="S sfh" d="M1827 1560 L1596 1329 L1606 1329 L1837 1560 Z"/><path class="fh3" d="M1827 1560 L1596 1329 L1606 1329 L1837 1560 Z" /></g><g class="o"><path transform="translate(9,18)" class="S sfh" d="M1883 1694 L1981 1792 L2019 1792 L1921 1694 Z"/><path class="fh2" d="M1883 1694 L1981 1792 L2019 1792 L1921 1694 Z" /></g><g class="o"><path transform="translate(2,4)" class="S sfh" d="M1954 1420 L2638 2104 L2666 2104 L1982 1420 Z"/><path class="fh4" d="M1954 1420 L2638 2104 L2666 2104 L1982 1420 Z" /></g><g class="o"><path transform="translate(9,18)" class="S ssh" d="M1100 2049 L1042 1991 L1060 1991 L1118 2049 Z"/><path class="sh7" d="M1100 2049 L1042 1991 L1060 1991 L1118 2049 Z" /></g><g class="o"><path transform="translate(2,4)" class="S sfv" d="M1619 1689 L1184 2124 L1184 2158 L1619 1723 Z"/><path class="fv1" d="M1619 1689 L1184 2124 L1184 2158 L1619 1723 Z" /></g><g class="o"><path transform="translate(5,10)" class="S sfh" d="M1126 1765 L879 2012 L891 2012 L1138 1765 Z"/><path class="fh7" d="M1126 1765 L879 2012 L891 2012 L1138 1765 Z" /></g><g class="o"><path transform="translate(6,12)" class="S ssh" d="M1834 1847 L1612 2069 L1648 2069 L1870 1847 Z"/><path class="sh1" d="M1834 1847 L1612 2069 L1648 2069 L1870 1847 Z" /></g><g class="o"><path transform="translate(7,14)" class="S ssv" d="M1347 992 L1283 928 L1283 938 L1347 1002 Z"/><path class="sv2" d="M1347 992 L1283 928 L1283 938 L1347 1002 Z" /></g><g class="o"><path transform="translate(6,12)" class="S sfh" d="M1804 1334 L1602 1132 L1614 1132 L1816 1334 Z"/><path class="fh2" d="M1804 1334 L1602 1132 L1614 1132 L1816 1334 Z" /></g><g class="o"><path transform="translate(8,16)" class="S sfh" d="M1250 1736 L1060 1926 L1072 1926 L1262 1736 Z"/><path class="fh1" d="M1250 1736 L1060 1926 L1072 1926 L1262 1736 Z" /></g><g class="o"><path transform="translate(6,12)" class="S sfh" d="M1021 1449 L1265 1205 L1293 1205 L1049 1449 Z"/><path class="fh5" d="M1021 1449 L1265 1205 L1293 1205 L1049 1449 Z" /></g><g class="o"><path transform="translate(6,12)" class="S sfv" d="M1109 1730 L867 1488 L867 1498 L1109 1740 Z"/><path class="fv5" d="M1109 1730 L867 1488 L867 1498 L1109 1740 Z" /></g><g class="o"><path transform="translate(7,14)" class="S sfh" d="M1419 1182 L2097 504 L2131 504 L1453 1182 Z"/><path class="fh4" d="M1419 1182 L2097 504 L2131 504 L1453 1182 Z" /></g><g class="o"><path transform="translate(6,12)" class="S ssv" d="M1196 1330 L1318 1452 L1318 1484 L1196 1362 Z"/><path class="sv2" d="M1196 1330 L1318 1452 L1318 1484 L1196 1362 Z" /></g><g class="o"><path transform="translate(4,8)" class="S sfh" d="M1380 2022 L1449 1953 L1461 1953 L1392 2022 Z"/><path class="fh5" d="M1380 2022 L1449 1953 L1461 1953 L1392 2022 Z" /></g><g class="o"><path transform="translate(5,10)" class="S sfv" d="M1541 1531 L1391 1681 L1391 1691 L1541 1541 Z"/><path class="fv3" d="M1541 1531 L1391 1681 L1391 1691 L1541 1541 Z" /></g><g class="o"><path transform="translate(4,8)" class="S sfv" d="M1035 1164 L1255 944 L1255 976 L1035 1196 Z"/><path class="fv5" d="M1035 1164 L1255 944 L1255 976 L1035 1196 Z" /></g><g class="o"><path transform="translate(6,12)" class="S sfh" d="M957 1111 L1181 1335 L1189 1335 L965 1111 Z"/><path class="fh7" d="M957 1111 L1181 1335 L1189 1335 L965 1111 Z" /></g><g class="o"><path transform="translate(2,4)" class="S sfv" d="M1669 1313 L1909 1073 L1909 1111 L1669 1351 Z"/><path class="fv4" d="M1669 1313 L1909 1073 L1909 1111 L1669 1351 Z" /></g><g class="o"><path transform="translate(7,14)" class="S sfv" d="M1906 1602 L1816 1512 L1816 1530 L1906 1620 Z"/><path class="fv5" d="M1906 1602 L1816 1512 L1816 1530 L1906 1620 Z" /></g><g class="o"><path transform="translate(3,6)" class="S sfv" d="M1562 1276 L1765 1479 L1765 1515 L1562 1312 Z"/><path class="fv1" d="M1562 1276 L1765 1479 L1765 1515 L1562 1312 Z" /></g><g class="o"><path transform="translate(7,14)" class="S sfv" d="M1441 1623 L1664 1846 L1664 1858 L1441 1635 Z"/><path class="fv7" d="M1441 1623 L1664 1846 L1664 1858 L1441 1635 Z" /></g><g class="o"><path transform="translate(8,16)" class="S sfh" d="M1743 953 L2250 446 L2288 446 L1781 953 Z"/><path class="fh1" d="M1743 953 L2250 446 L2288 446 L1781 953 Z" /></g><g class="o"><path transform="translate(7,14)" class="S ssv" d="M1269 1858 L1162 1965 L1162 1985 L1269 1878 Z"/><path class="sv5" d="M1269 1858 L1162 1965 L1162 1985 L1269 1878 Z" /></g><g class="o"><path transform="translate(8,16)" class="S sfv" d="M1134 1050 L1755 1671 L1755 1701 L1134 1080 Z"/><path class="fv5" d="M1134 1050 L1755 1671 L1755 1701 L1134 1080 Z" /></g><g class="o"><path transform="translate(5,10)" class="S sfh" d="M1515 1853 L921 1259 L941 1259 L1535 1853 Z"/><path class="fh1" d="M1515 1853 L921 1259 L941 1259 L1535 1853 Z" /></g><g class="o"><path transform="translate(3,6)" class="S sfh" d="M1193 1883 L1365 2055 L1377 2055 L1205 1883 Z"/><path class="fh3" d="M1193 1883 L1365 2055 L1377 2055 L1205 1883 Z" /></g><g class="o"><path transform="translate(9,18)" class="S sfv" d="M1336 1832 L1256 1752 L1256 1762 L1336 1842 Z"/><path class="fv3" d="M1336 1832 L1256 1752 L1256 1762 L1336 1842 Z" /></g><g class="o"><path transform="translate(7,14)" class="S sfv" d="M1785 1892 L1719 1958 L1719 1992 L1785 1926 Z"/><path class="fv6" d="M1785 1892 L1719 1958 L1719 1992 L1785 1926 Z" /></g><g class="o"><path transform="translate(7,14)" class="S ssh" d="M1230 1999 L1764 1465 L1802 1465 L1268 1999 Z"/><path class="sh5" d="M1230 1999 L1764 1465 L1802 1465 L1268 1999 Z" /></g><g class="o"><path transform="translate(6,12)" class="S sfv" d="M1947 1894 L1851 1990 L1851 2022 L1947 1926 Z"/><path class="fv7" d="M1947 1894 L1851 1990 L1851 2022 L1947 1926 Z" /></g><g class="o"><path transform="translate(8,16)" class="S sfh" d="M1533 1234 L1680 1381 L1712 1381 L1565 1234 Z"/><path class="fh3" d="M1533 1234 L1680 1381 L1712 1381 L1565 1234 Z" /></g><g class="o"><path transform="translate(2,4)" class="S sfh" d="M1619 1002 L959 1662 L969 1662 L1629 1002 Z"/><path class="fh7" d="M1619 1002 L959 1662 L969 1662 L1629 1002 Z" /></g><g class="o"><path transform="translate(5,10)" class="S ssh" d="M1028 1220 L842 1406 L868 1406 L1054 1220 Z"/><path class="sh4" d="M1028 1220 L842 1406 L868 1406 L1054 1220 Z" /></g><g class="o"><path transform="translate(4,8)" class="S sfh" d="M2029 1259 L2190 1420 L2228 1420 L2067 1259 Z"/><path class="fh7" d="M2029 1259 L2190 1420 L2228 1420 L2067 1259 Z" /></g><g class="o"><path transform="translate(3,6)" class="S sfv" d="M1504 1742 L1657 1895 L1657 1931 L1504 1778 Z"/><path class="fv6" d="M1504 1742 L1657 1895 L1657 1931 L1504 1778 Z" /></g><g class="o"><path transform="translate(5,10)" class="S sfv" d="M1557 1257 L1760 1460 L1760 1492 L1557 1289 Z"/><path class="fv4" d="M1557 1257 L1760 1460 L1760 1492 L1557 1289 Z" /></g><g class="o"><path transform="translate(5,10)" class="S sfh" d="M1782 991 L1535 1238 L1545 1238 L1792 991 Z"/><path class="fh5" d="M1782 991 L1535 1238 L1545 1238 L1792 991 Z" /></g><g class="o"><path transform="translate(4,8)" class="S ssh" d="M1814 1004 L1580 770 L1600 770 L1834 1004 Z"/><path class="sh1" d="M1814 1004 L1580 770 L1600 770 L1834 1004 Z" /></g><g class="o"><path transform="translate(7,14)" class="S sfh" d="M1759 1815 L1890 1946 L1924 1946 L1793 1815 Z"/><path class="fh2" d="M1759 1815 L1890 1946 L1924 1946 L1793 1815 Z" /></g><g class="o"><path transform="translate(6,12)" class="S sfv" d="M1779 1719 L1690 1630 L1690 1644 L1779 1733 Z"/><path class="fv1" d="M1779 1719 L1690 1630 L1690 1644 L1779 1733 Z" /></g><g class="o"><path transform="translate(6,12)" class="S sfh" d="M1441 1758 L1635 1564 L1661 1564 L1467 1758 Z"/><path class="fh7" d="M1441 1758 L1635 1564 L1661 1564 L1467 1758 Z" /></g><g class="o"><path transform="translate(3,6)" class="S sfv" d="M990 1540 L782 1332 L782 1354 L990 1562 Z"/><path class="fv5" d="M990 1540 L782 1332 L782 1354 L990 1562 Z" /></g><g class="o"><path transform="translate(7,14)" class="S sfh" d="M1057 1264 L1290 1031 L1328 1031 L1095 1264 Z"/><path class="fh1" d="M1057 1264 L1290 1031 L1328 1031 L1095 1264 Z" /></g><g class="o"><path transform="translate(6,12)" class="S ssv" d="M1379 1990 L1607 2218 L1607 2228 L1379 2000 Z"/><path class="sv3" d="M1379 1990 L1607 2218 L1607 2228 L1379 2000 Z" /></g><g class="o"><path transform="translate(3,6)" class="S sfv" d="M995 1143 L854 1284 L854 1320 L995 1179 Z"/><path class="fv6" d="M995 1143 L854 1284 L854 1320 L995 1179 Z" /></g><g class="o"><path transform="translate(9,18)" class="S sfv" d="M1749 1682 L2394 1037 L2394 1069 L1749 1714 Z"/><path class="fv2" d="M1749 1682 L2394 1037 L2394 1069 L1749 1714 Z" /></g><g class="o"><path transform="translate(3,6)" class="S sfv" d="M1023 1490 L876 1637 L876 1647 L1023 1500 Z"/><path class="fv7" d="M1023 1490 L876 1637 L876 1647 L1023 1500 Z" /></g><g class="o"><path transform="translate(6,12)" class="S sfv" d="M1856 1534 L1802 1480 L1802 1488 L1856 1542 Z"/><path class="fv5" d="M1856 1534 L1802 1480 L1802 1488 L1856 1542 Z" /></g><g class="o"><path transform="translate(4,8)" class="S sfv" d="M1498 1252 L1330 1084 L1330 1120 L1498 1288 Z"/><path class="fv3" d="M1498 1252 L1330 1084 L1330 1120 L1498 1288 Z" /></g><g class="o"><path transform="translate(5,10)" class="S sfv" d="M1645 1953 L1892 1706 L1892 1742 L1645 1989 Z"/><path class="fv1" d="M1645 1953 L1892 1706 L1892 1742 L1645 1989 Z" /></g><g class="o"><path transform="translate(6,12)" class="S sfv" d="M1991 1400 L1861 1270 L1861 1284 L1991 1414 Z"/><path class="fv7" d="M1991 1400 L1861 1270 L1861 1284 L1991 1414 Z" /></g><g class="o"><path transform="translate(8,16)" class="S sfh" d="M1940 1327 L1244 631 L1278 631 L1974 1327 Z"/><path class="fh3" d="M1940 1327 L1244 631 L1278 631 L1974 1327 Z" /></g><g class="o"><path transform="translate(5,10)" class="S sfv" d="M1732 1356 L1555 1533 L1555 1545 L1732 1368 Z"/><path class="fv7" d="M1732 1356 L1555 1533 L1555 1545 L1732 1368 Z" /></g><g class="o"><path transform="translate(2,4)" class="S sfv" d="M1165 1643 L1226 1704 L1226 1736 L1165 1675 Z"/><path class="fv3" d="M1165 1643 L1226 1704 L1226 1736 L1165 1675 Z" /></g><g class="o"><path transform="translate(2,4)" class="S sfv" d="M1042 1842 L1285 1599 L1285 1615 L1042 1858 Z"/><path class="fv7" d="M1042 1842 L1285 1599 L1285 1615 L1042 1858 Z" /></g><g class="o"><path transform="translate(3,6)" class="S sfv" d="M1331 948 L1523 756 L1523 788 L1331 980 Z"/><path class="fv6" d="M1331 948 L1523 756 L1523 788 L1331 980 Z" /></g><g class="o"><path transform="translate(5,10)" class="S sfv" d="M993 1088 L1186 1281 L1186 1317 L993 1124 Z"/><path class="fv5" d="M993 1088 L1186 1281 L1186 1317 L993 1124 Z" /></g><g class="o"><path transform="translate(7,14)" class="S sfv" d="M1200 1924 L1112 1836 L1112 1866 L1200 1954 Z"/><path class="fv7" d="M1200 1924 L1112 1836 L1112 1866 L1200 1954 Z" /></g><g class="o"><path transform="translate(7,14)" class="S ssv" d="M1799 1187 L1953 1033 L1953 1071 L1799 1225 Z"/><path class="sv2" d="M1799 1187 L1953 1033 L1953 1071 L1799 1225 Z" /></g><g class="o"><path transform="translate(4,8)" class="S sfh" d="M1344 1482 L1204 1622 L1236 1622 L1376 1482 Z"/><path class="fh3" d="M1344 1482 L1204 1622 L1236 1622 L1376 1482 Z" /></g><g class="o"><path transform="translate(4,8)" class="S sfv" d="M2007 1088 L1952 1143 L1952 1165 L2007 1110 Z"/><path class="fv3" d="M2007 1088 L1952 1143 L1952 1165 L2007 1110 Z" /></g><g class="o"><path transform="translate(9,18)" class="S sfh" d="M1392 1230 L1245 1083 L1283 1083 L1430 1230 Z"/><path class="fh1" d="M1392 1230 L1245 1083 L1283 1083 L1430 1230 Z" /></g><g class="o"><path transform="translate(6,12)" class="S sfv" d="M1480 2005 L1665 1820 L1665 1850 L1480 2035 Z"/><path class="fv5" d="M1480 2005 L1665 1820 L1665 1850 L1480 2035 Z" /></g><g class="o"><path transform="translate(6,12)" class="S sfv" d="M1864 2022 L2061 1825 L2061 1857 L1864 2054 Z"/><path class="fv6" d="M1864 2022 L2061 1825 L2061 1857 L1864 2054 Z" /></g><g class="o"><path transform="translate(6,12)" class="S sfh" d="M1181 1746 L1069 1634 L1095 1634 L1207 1746 Z"/><path class="fh3" d="M1181 1746 L1069 1634 L1095 1634 L1207 1746 Z" /></g><g class="o"><path transform="translate(5,10)" class="S sfv" d="M1232 1065 L1462 1295 L1462 1321 L1232 1091 Z"/><path class="fv5" d="M1232 1065 L1462 1295 L1462 1321 L1232 1091 Z" /></g><g class="o"><path transform="translate(5,10)" class="S sfv" d="M1782 1236 L1973 1427 L1973 1439 L1782 1248 Z"/><path class="fv3" d="M1782 1236 L1973 1427 L1973 1439 L1782 1248 Z" /></g><g class="o"><path transform="translate(5,10)" class="S ssh" d="M1082 1101 L1196 1215 L1224 1215 L1110 1101 Z"/><path class="sh7" d="M1082 1101 L1196 1215 L1224 1215 L1110 1101 Z" /></g><g class="o"><path transform="translate(6,12)" class="S ssv" d="M1951 1644 L1889 1582 L1889 1618 L1951 1680 Z"/><path class="sv6" d="M1951 1644 L1889 1582 L1889 1618 L1951 1680 Z" /></g><g class="o"><path transform="translate(4,8)" class="S ssh" d="M1217 1393 L1520 1090 L1556 1090 L1253 1393 Z"/><path class="sh5" d="M1217 1393 L1520 1090 L1556 1090 L1253 1393 Z" /></g><g class="o"><path transform="translate(2,4)" class="S sfv" d="M1686 1386 L1998 1698 L1998 1712 L1686 1400 Z"/><path class="fv2" d="M1686 1386 L1998 1698 L1998 1712 L1686 1400 Z" /></g><g class="o"><path transform="translate(9,18)" class="S ssh" d="M1506 1953 L1608 1851 L1622 1851 L1520 1953 Z"/><path class="sh5" d="M1506 1953 L1608 1851 L1622 1851 L1520 1953 Z" /></g><g class="o"><path transform="translate(9,18)" class="S sfh" d="M1105 1781 L1007 1683 L1019 1683 L1117 1781 Z"/><path class="fh1" d="M1105 1781 L1007 1683 L1019 1683 L1117 1781 Z" /></g><g class="o"><path transform="translate(3,6)" class="S sfv" d="M1363 1147 L778 562 L778 592 L1363 1177 Z"/><path class="fv5" d="M1363 1147 L778 562 L778 592 L1363 1177 Z" /></g><g class="o"><path transform="translate(6,12)" class="S sfh" d="M979 961 L1066 1048 L1092 1048 L1005 961 Z"/><path class="fh7" d="M979 961 L1066 1048 L1092 1048 L1005 961 Z" /></g></g><use href="#slashes" transform-origin="1500 1500" transform="rotate(180) scale(2)"/></g><circle cx="1500" cy="1500" r="450" stroke-width="20" class="o s4" /><use href="#slashes" transform-origin="1500 1500" transform="scale(.7)"/><use href="#slashes" transform-origin="1500 1500" transform="rotate(180) scale(1.3)"/></svg>