<svg xmlns="http://www.w3.org/2000/svg" viewBox="750 750 1500 1500"><style>/*<![CDATA[*/svg{background:rgb(220,220,221);max-width:100vw;max-height:100vh}path{stroke-width:4}.o{opacity:.75}.S{opacity:.4}.sf{stroke:none;fill:black}.sfh{stroke:none;fill:url(#hs)}.sfv{stroke:none;fill:url(#vs)}.ss{stroke:black;fill:none}.ssh{stroke:url(#hs);fill:none}.ssv{stroke:url(#vs);fill:none}.s1{fill:none;stroke:rgb(25,133,161)}.f1{stroke:none;fill:rgb(25,133,161)}.sh1{fill:none;stroke:url(#h1)}.fh1{stroke:none;fill:url(#h1)}.sv1{fill:none;stroke:url(#v1)}.fv1{stroke:none;fill:url(#v1)}.s2{fill:none;stroke:rgb(34,34,34)}.f2{stroke:none;fill:rgb(34,34,34)}.sh2{fill:none;stroke:url(#h2)}.fh2{stroke:none;fill:url(#h2)}.sv2{fill:none;stroke:url(#v2)}.fv2{stroke:none;fill:url(#v2)}.s3{fill:none;stroke:rgb(70,73,76)}.f3{stroke:none;fill:rgb(70,73,76)}.sh3{fill:none;stroke:url(#h3)}.fh3{stroke:none;fill:url(#h3)}.sv3{fill:none;stroke:url(#v3)}.fv3{stroke:none;fill:url(#v3)}.s4{fill:none;stroke:rgb(76,92,104)}.f4{stroke:none;fill:rgb(76,92,104)}.sh4{fill:none;stroke:url(#h4)}.fh4{stroke:none;fill:url(#h4)}.sv4{fill:none;stroke:url(#v4)}.fv4{stroke:none;fill:url(#v4)}.s5{fill:none;stroke:rgb(197,195,198)}.f5{stroke:none;fill:rgb(197,195,198)}.sh5{fill:none;stroke:url(#h5)}.fh5{stroke:none;fill:url(#h5)}.sv5{fill:none;stroke:url(#v5)}.fv5{stroke:none;fill:url(#v5)}.s6{fill:none;stroke:rgb(255,255,255)}.f6{stroke:none;fill:rgb(255,255,255)}.sh6{fill:none;stroke:url(#h6)}.fh6{stroke:none;fill:url(#h6)}.sv6{fill:none;stroke:url(#v6)}.fv6{stroke:none;fill:url(#v6)}.s7{fill:none;stroke:rgb(255,255,0)}.f7{stroke:none;fill:rgb(255,255,0)}.sh7{fill:none;stroke:url(#h7)}.fh7{stroke:none;fill:url(#h7)}.sv7{fill:none;stroke:url(#v7)}.fv7{stroke:none;fill:url(#v7)}/*]]>*/</style><defs><linearGradient gradientTransform="rotate(90)" id="hs"><stop offset="20%" stop-color="#000" /><stop offset="95%" stop-color="rgba(0, 0, 0, 0)" /></linearGradient><linearGradient id="vs"><stop offset="20%" stop-color="#000" /><stop offset="95%" stop-color="rgba(0, 0, 0, 0)" /></linearGradient><linearGradient gradientTransform="rotate(90)" id="h1"><stop offset="20%" stop-color="rgba(25,133,161,1)" /><stop offset="95%" stop-color="rgba(25,133,161,0)" /></linearGradient><linearGradient id="v1"><stop offset="20%" stop-color="rgba(25,133,161,1)" /><stop offset="95%" stop-color="rgba(25,133,161,0)" /></linearGradient><linearGradient gradientTransform="rotate(90)" id="h2"><stop offset="20%" stop-color="rgba(34,34,34,1)" /><stop offset="95%" stop-color="rgba(34,34,34,0)" /></linearGradient><linearGradient id="v2"><stop offset="20%" stop-color="rgba(34,34,34,1)" /><stop offset="95%" stop-color="rgba(34,34,34,0)" /></linearGradient><linearGradient gradientTransform="rotate(90)" id="h3"><stop offset="20%" stop-color="rgba(70,73,76,1)" /><stop offset="95%" stop-color="rgba(70,73,76,0)" /></linearGradient><linearGradient id="v3"><stop offset="20%" stop-color="rgba(70,73,76,1)" /><stop offset="95%" stop-color="rgba(70,73,76,0)" /></linearGradient><linearGradient gradientTransform="rotate(90)" id="h4"><stop offset="20%" stop-color="rgba(76,92,104,1)" /><stop offset="95%" stop-color="rgba(76,92,104,0)" /></linearGradient><linearGradient id="v4"><stop offset="20%" stop-color="rgba(76,92,104,1)" /><stop offset="95%" stop-color="rgba(76,92,104,0)" /></linearGradient><linearGradient gradientTransform="rotate(90)" id="h5"><stop offset="20%" stop-color="rgba(197,195,198,1)" /><stop offset="95%" stop-color="rgba(197,195,198,0)" /></linearGradient><linearGradient id="v5"><stop offset="20%" stop-color="rgba(197,195,198,1)" /><stop offset="95%" stop-color="rgba(197,195,198,0)" /></linearGradient><linearGradient gradientTransform="rotate(90)" id="h6"><stop offset="20%" stop-color="rgba(255,255,255,1)" /><stop offset="95%" stop-color="rgba(255,255,255,0)" /></linearGradient><linearGradient id="v6"><stop offset="20%" stop-color="rgba(255,255,255,1)" /><stop offset="95%" stop-color="rgba(255,255,255,0)" /></linearGradient><linearGradient gradientTransform="rotate(90)" id="h7"><stop offset="20%" stop-color="rgba(255,255,0,1)" /><stop offset="95%" stop-color="rgba(255,255,0,0)" /></linearGradient><linearGradient id="v7"><stop offset="20%" stop-color="rgba(255,255,0,1)" /><stop offset="95%" stop-color="rgba(255,255,0,0)" /></linearGradient></defs><g transform-origin="1500 1500" transform="scale(2)" opacity=".8"><g id="slashes"><g class="o"><path transform="translate(6,12)" class="S sfh" d="M1620 1475 L1464 1631 L1500 1631 L1656 1475 Z"/><path class="fh6" d="M1620 1475 L1464 1631 L1500 1631 L1656 1475 Z" /></g><g class="o"><path transform="translate(2,4)" class="S sfh" d="M993 1280 L1154 1119 L1266 1119 L1105 1280 Z"/><path class="fh4" d="M993 1280 L1154 1119 L1266 1119 L1105 1280 Z" /></g><g class="o"><path transform="translate(2,4)" class="S sf" d="M1569 2000 L846 1277 L858 1277 L1581 2000 Z"/><path class="f6" d="M1569 2000 L846 1277 L858 1277 L1581 2000 Z" /></g><g class="o"><path transform="translate(4,8)" class="S ssh" d="M1109 1936 L1005 1832 L1133 1832 L1237 1936 Z"/><path class="sh5" d="M1109 1936 L1005 1832 L1133 1832 L1237 1936 Z" /></g><g class="o"><path transform="translate(4,8)" class="S sfv" d="M1739 1977 L1592 2124 L1592 2212 L1739 2065 Z"/><path class="fv2" d="M1739 1977 L1592 2124 L1592 2212 L1739 2065 Z" /></g><g class="o"><path transform="translate(7,14)" class="S sfh" d="M1104 1840 L899 2045 L1051 2045 L1256 1840 Z"/><path class="fh4" d="M1104 1840 L899 2045 L1051 2045 L1256 1840 Z" /></g><g class="o"><path transform="translate(4,8)" class="S ssv" d="M1783 1525 L1536 1772 L1536 1908 L1783 1661 Z"/><path class="sv1" d="M1783 1525 L1536 1772 L1536 1908 L1783 1661 Z" /></g><g class="o"><path transform="translate(7,14)" class="S sfh" d="M1876 1812 L1689 1999 L1825 1999 L2012 1812 Z"/><path class="fh5" d="M1876 1812 L1689 1999 L1825 1999 L2012 1812 Z" /></g><g class="o"><path transform="translate(4,8)" class="S ssv" d="M1886 1650 L1487 1251 L1487 1363 L1886 1762 Z"/><path class="sv5" d="M1886 1650 L1487 1251 L1487 1363 L1886 1762 Z" /></g><g class="o"><path transform="translate(9,18)" class="S ssv" d="M1021 1583 L865 1739 L865 1749 L1021 1593 Z"/><path class="sv2" d="M1021 1583 L865 1739 L865 1749 L1021 1593 Z" /></g><g class="o"><path transform="translate(5,10)" class="S sfh" d="M1062 952 L916 806 L972 806 L1118 952 Z"/><path class="fh6" d="M1062 952 L916 806 L972 806 L1118 952 Z" /></g><g class="o"><path transform="translate(6,12)" class="S ssv" d="M1980 1260 L1897 1343 L1897 1431 L1980 1348 Z"/><path class="sv6" d="M1980 1260 L1897 1343 L1897 1431 L1980 1348 Z" /></g><g class="o"><path transform="translate(8,16)" class="S sf" d="M1225 1306 L1141 1222 L1141 1358 L1225 1442 Z"/><path class="f4" d="M1225 1306 L1141 1222 L1141 1358 L1225 1442 Z" /></g><g class="o"><path transform="translate(5,10)" class="S sfv" d="M2018 1572 L2702 2256 L2702 2392 L2018 1708 Z"/><path class="fv1" d="M2018 1572 L2702 2256 L2702 2392 L2018 1708 Z" /></g><g class="o"><path transform="translate(3,6)" class="S sfh" d="M1250 954 L1050 1154 L1186 1154 L1386 954 Z"/><path class="fh3" d="M1250 954 L1050 1154 L1186 1154 L1386 954 Z" /></g><g class="o"><path transform="translate(3,6)" class="S sf" d="M1261 1600 L1395 1734 L1395 1822 L1261 1688 Z"/><path class="f3" d="M1261 1600 L1395 1734 L1395 1822 L1261 1688 Z" /></g><g class="o"><path transform="translate(3,6)" class="S sfv" d="M1919 953 L1735 769 L1735 801 L1919 985 Z"/><path class="fv3" d="M1919 953 L1735 769 L1735 801 L1919 985 Z" /></g><g class="o"><path transform="translate(6,12)" class="S sfv" d="M1917 1709 L1774 1852 L1774 2004 L1917 1861 Z"/><path class="fv3" d="M1917 1709 L1774 1852 L1774 2004 L1917 1861 Z" /></g><g class="o"><path transform="translate(9,18)" class="S ssh" d="M1351 1585 L1103 1337 L1231 1337 L1479 1585 Z"/><path class="sh6" d="M1351 1585 L1103 1337 L1231 1337 L1479 1585 Z" /></g><g class="o"><path transform="translate(7,14)" class="S sf" d="M1113 1186 L1282 1017 L1282 1105 L1113 1274 Z"/><path class="f1" d="M1113 1186 L1282 1017 L1282 1105 L1113 1274 Z" /></g><g class="o"><path transform="translate(7,14)" class="S sfv" d="M1098 1109 L1437 1448 L1437 1584 L1098 1245 Z"/><path class="fv2" d="M1098 1109 L1437 1448 L1437 1584 L1098 1245 Z" /></g><g class="o"><path transform="translate(7,14)" class="S sfh" d="M1580 1788 L1675 1883 L1715 1883 L1620 1788 Z"/><path class="fh5" d="M1580 1788 L1675 1883 L1715 1883 L1620 1788 Z" /></g><g class="o"><path transform="translate(3,6)" class="S ssh" d="M1366 1981 L1537 1810 L1561 1810 L1390 1981 Z"/><path class="sh6" d="M1366 1981 L1537 1810 L1561 1810 L1390 1981 Z" /></g><g class="o"><path transform="translate(4,8)" class="S sfh" d="M1447 1677 L1641 1483 L1761 1483 L1567 1677 Z"/><path class="fh3" d="M1447 1677 L1641 1483 L1761 1483 L1567 1677 Z" /></g><g class="o"><path transform="translate(3,6)" class="S sfv" d="M1030 1547 L786 1791 L786 1803 L1030 1559 Z"/><path class="fv6" d="M1030 1547 L786 1791 L786 1803 L1030 1559 Z" /></g><g class="o"><path transform="translate(8,16)" class="S sfh" d="M2009 1405 L1679 1075 L1705 1075 L2035 1405 Z"/><path class="fh3" d="M2009 1405 L1679 1075 L1705 1075 L2035 1405 Z" /></g><g class="o"><path transform="translate(3,6)" class="S ssh" d="M966 1601 L1074 1493 L1100 1493 L992 1601 Z"/><path class="sh7" d="M966 1601 L1074 1493 L1100 1493 L992 1601 Z" /></g><g class="o"><path transform="translate(8,16)" class="S sfv" d="M1821 1182 L1572 933 L1572 945 L1821 1194 Z"/><path class="fv6" d="M1821 1182 L1572 933 L1572 945 L1821 1194 Z" /></g><g class="o"><path transform="translate(6,12)" class="S ssv" d="M1443 1602 L1277 1768 L1277 1816 L1443 1650 Z"/><path class="sv1" d="M1443 1602 L1277 1768 L1277 1816 L1443 1650 Z" /></g><g class="o"><path transform="translate(7,14)" class="S sfh" d="M1464 1900 L1361 2003 L1481 2003 L1584 1900 Z"/><path class="fh4" d="M1464 1900 L1361 2003 L1481 2003 L1584 1900 Z" /></g><g class="o"><path transform="translate(8,16)" class="S ssh" d="M1212 1052 L1070 1194 L1118 1194 L1260 1052 Z"/><path class="sh4" d="M1212 1052 L1070 1194 L1118 1194 L1260 1052 Z" /></g><g class="o"><path transform="translate(7,14)" class="S sfv" d="M960 1634 L1149 1823 L1149 1855 L960 1666 Z"/><path class="fv6" d="M960 1634 L1149 1823 L1149 1855 L960 1666 Z" /></g><g class="o"><path transform="translate(7,14)" class="S sfv" d="M1399 988 L1894 1483 L1894 1587 L1399 1092 Z"/><path class="fv4" d="M1399 988 L1894 1483 L1894 1587 L1399 1092 Z" /></g><g class="o"><path transform="translate(3,6)" class="S sfh" d="M1595 1223 L1378 1440 L1418 1440 L1635 1223 Z"/><path class="fh5" d="M1595 1223 L1378 1440 L1418 1440 L1635 1223 Z" /></g><g class="o"><path transform="translate(5,10)" class="S sfh" d="M1366 1595 L1717 1244 L1837 1244 L1486 1595 Z"/><path class="fh2" d="M1366 1595 L1717 1244 L1837 1244 L1486 1595 Z" /></g><g class="o"><path transform="translate(4,8)" class="S ssh" d="M1114 1727 L989 1602 L1093 1602 L1218 1727 Z"/><path class="sh6" d="M1114 1727 L989 1602 L1093 1602 L1218 1727 Z" /></g><g class="o"><path transform="translate(2,4)" class="S sf" d="M1914 958 L1970 1014 L2050 1014 L1994 958 Z"/><path class="f1" d="M1914 958 L1970 1014 L2050 1014 L1994 958 Z" /></g><g class="o"><path transform="translate(8,16)" class="S ssv" d="M2007 922 L2112 1027 L2112 1171 L2007 1066 Z"/><path class="sv3" d="M2007 922 L2112 1027 L2112 1171 L2007 1066 Z" /></g><g class="o"><path transform="translate(2,4)" class="S sf" d="M1710 1824 L1903 2017 L2039 2017 L1846 1824 Z"/><path class="f1" d="M1710 1824 L1903 2017 L2039 2017 L1846 1824 Z" /></g><g class="o"><path transform="translate(2,4)" class="S sfv" d="M1918 1739 L1387 1208 L1387 1216 L1918 1747 Z"/><path class="fv2" d="M1918 1739 L1387 1208 L1387 1216 L1918 1747 Z" /></g><g class="o"><path transform="translate(3,6)" class="S sfh" d="M928 1998 L1047 2117 L1119 2117 L1000 1998 Z"/><path class="fh6" d="M928 1998 L1047 2117 L1119 2117 L1000 1998 Z" /></g><g class="o"><path transform="translate(6,12)" class="S sfh" d="M1176 1246 L1324 1098 L1362 1098 L1214 1246 Z"/><path class="fh6" d="M1176 1246 L1324 1098 L1362 1098 L1214 1246 Z" /></g><g class="o"><path transform="translate(4,8)" class="S sfh" d="M1828 1416 L1414 1830 L1470 1830 L1884 1416 Z"/><path class="fh5" d="M1828 1416 L1414 1830 L1470 1830 L1884 1416 Z" /></g><g class="o"><path transform="translate(8,16)" class="S sfv" d="M1838 1988 L1993 1833 L1993 1953 L1838 2108 Z"/><path class="fv1" d="M1838 1988 L1993 1833 L1993 1953 L1838 2108 Z" /></g><g class="o"><path transform="translate(3,6)" class="S ssv" d="M1103 934 L1556 1387 L1556 1467 L1103 1014 Z"/><path class="sv7" d="M1103 934 L1556 1387 L1556 1467 L1103 1014 Z" /></g><g class="o"><path transform="translate(4,8)" class="S sf" d="M924 1380 L1049 1255 L1193 1255 L1068 1380 Z"/><path class="f7" d="M924 1380 L1049 1255 L1193 1255 L1068 1380 Z" /></g><g class="o"><path transform="translate(6,12)" class="S ss" d="M1269 1594 L1138 1725 L1138 1877 L1269 1746 Z"/><path class="s1" d="M1269 1594 L1138 1725 L1138 1877 L1269 1746 Z" /></g><g class="o"><path transform="translate(3,6)" class="S sfv" d="M1467 1566 L1289 1388 L1289 1500 L1467 1678 Z"/><path class="fv2" d="M1467 1566 L1289 1388 L1289 1500 L1467 1678 Z" /></g><g class="o"><path transform="translate(5,10)" class="S sfv" d="M956 1466 L1130 1640 L1130 1760 L956 1586 Z"/><path class="fv4" d="M956 1466 L1130 1640 L1130 1760 L956 1586 Z" /></g><g class="o"><path transform="translate(8,16)" class="S sfv" d="M1942 1983 L2515 1410 L2515 1490 L1942 2063 Z"/><path class="fv7" d="M1942 1983 L2515 1410 L2515 1490 L1942 2063 Z" /></g><g class="o"><path transform="translate(7,14)" class="S ss" d="M1183 2025 L1133 2075 L1205 2075 L1255 2025 Z"/><path class="s2" d="M1183 2025 L1133 2075 L1205 2075 L1255 2025 Z" /></g><g class="o"><path transform="translate(8,16)" class="S ssv" d="M982 1056 L1111 1185 L1111 1233 L982 1104 Z"/><path class="sv3" d="M982 1056 L1111 1185 L1111 1233 L982 1104 Z" /></g><g class="o"><path transform="translate(2,4)" class="S sf" d="M1020 1274 L955 1339 L955 1395 L1020 1330 Z"/><path class="f2" d="M1020 1274 L955 1339 L955 1395 L1020 1330 Z" /></g><g class="o"><path transform="translate(7,14)" class="S sfv" d="M1885 1581 L1976 1672 L1976 1816 L1885 1725 Z"/><path class="fv7" d="M1885 1581 L1976 1672 L1976 1816 L1885 1725 Z" /></g><g class="o"><path transform="translate(8,16)" class="S sfh" d="M1404 1448 L1217 1261 L1313 1261 L1500 1448 Z"/><path class="fh3" d="M1404 1448 L1217 1261 L1313 1261 L1500 1448 Z" /></g><g class="o"><path transform="translate(5,10)" class="S sf" d="M1500 1422 L810 2112 L946 2112 L1636 1422 Z"/><path class="f4" d="M1500 1422 L810 2112 L946 2112 L1636 1422 Z" /></g><g class="o"><path transform="translate(8,16)" class="S sfh" d="M995 1927 L1715 1207 L1733 1207 L1013 1927 Z"/><path class="fh1" d="M995 1927 L1715 1207 L1733 1207 L1013 1927 Z" /></g><g class="o"><path transform="translate(6,12)" class="S ssv" d="M1100 1774 L1187 1861 L1187 1917 L1100 1830 Z"/><path class="sv5" d="M1100 1774 L1187 1861 L1187 1917 L1100 1830 Z" /></g><g class="o"><path transform="translate(9,18)" class="S sfv" d="M1689 950 L1635 1004 L1635 1060 L1689 1006 Z"/><path class="fv5" d="M1689 950 L1635 1004 L1635 1060 L1689 1006 Z" /></g><g class="o"><path transform="translate(7,14)" class="S sfh" d="M1529 1058 L1696 1225 L1720 1225 L1553 1058 Z"/><path class="fh5" d="M1529 1058 L1696 1225 L1720 1225 L1553 1058 Z" /></g><g class="o"><path transform="translate(2,4)" class="S sf" d="M1809 1094 L2048 855 L2120 855 L1881 1094 Z"/><path class="f6" d="M1809 1094 L2048 855 L2120 855 L1881 1094 Z" /></g><g class="o"><path transform="translate(2,4)" class="S sfh" d="M1426 1676 L1222 1880 L1240 1880 L1444 1676 Z"/><path class="fh5" d="M1426 1676 L1222 1880 L1240 1880 L1444 1676 Z" /></g><g class="o"><path transform="translate(9,18)" class="S sfv" d="M1425 1651 L2121 955 L2121 995 L1425 1691 Z"/><path class="fv4" d="M1425 1651 L2121 955 L2121 995 L1425 1691 Z" /></g><g class="o"><path transform="translate(2,4)" class="S sfv" d="M1009 1589 L1168 1430 L1168 1494 L1009 1653 Z"/><path class="fv6" d="M1009 1589 L1168 1430 L1168 1494 L1009 1653 Z" /></g><g class="o"><path transform="translate(2,4)" class="S sfv" d="M2033 1173 L1316 1890 L1316 1916 L2033 1199 Z"/><path class="fv2" d="M2033 1173 L1316 1890 L1316 1916 L2033 1199 Z" /></g><g class="o"><path transform="translate(8,16)" class="S ssv" d="M1370 1400 L1160 1190 L1160 1226 L1370 1436 Z"/><path class="sv7" d="M1370 1400 L1160 1190 L1160 1226 L1370 1436 Z" /></g><g class="o"><path transform="translate(4,8)" class="S sf" d="M1005 1773 L795 1563 L795 1691 L1005 1901 Z"/><path class="f7" d="M1005 1773 L795 1563 L795 1691 L1005 1901 Z" /></g><g class="o"><path transform="translate(8,16)" class="S sfh" d="M1831 1223 L1592 984 L1704 984 L1943 1223 Z"/><path class="fh1" d="M1831 1223 L1592 984 L1704 984 L1943 1223 Z" /></g><g class="o"><path transform="translate(9,18)" class="S ss" d="M1937 1729 L1694 1486 L1694 1512 L1937 1755 Z"/><path class="s4" d="M1937 1729 L1694 1486 L1694 1512 L1937 1755 Z" /></g><g class="o"><path transform="translate(5,10)" class="S ssv" d="M1173 1711 L1521 1363 L1521 1475 L1173 1823 Z"/><path class="sv1" d="M1173 1711 L1521 1363 L1521 1475 L1173 1823 Z" /></g><g class="o"><path transform="translate(8,16)" class="S sfh" d="M1808 1840 L1861 1893 L1965 1893 L1912 1840 Z"/><path class="fh5" d="M1808 1840 L1861 1893 L1965 1893 L1912 1840 Z" /></g><g class="o"><path transform="translate(6,12)" class="S sfh" d="M1292 1055 L1414 1177 L1558 1177 L1436 1055 Z"/><path class="fh7" d="M1292 1055 L1414 1177 L1558 1177 L1436 1055 Z" /></g><g class="o"><path transform="translate(3,6)" class="S sfv" d="M1553 1462 L1782 1691 L1782 1819 L1553 1590 Z"/><path class="fv5" d="M1553 1462 L1782 1691 L1782 1819 L1553 1590 Z" /></g><g class="o"><path transform="translate(4,8)" class="S ssh" d="M1667 1020 L1489 1198 L1553 1198 L1731 1020 Z"/><path class="sh7" d="M1667 1020 L1489 1198 L1553 1198 L1731 1020 Z" /></g><g class="o"><path transform="translate(9,18)" class="S sf" d="M1275 1956 L1050 1731 L1050 1851 L1275 2076 Z"/><path class="f1" d="M1275 1956 L1050 1731 L1050 1851 L1275 2076 Z" /></g><g class="o"><path transform="translate(4,8)" class="S sfv" d="M1312 1299 L1070 1057 L1070 1193 L1312 1435 Z"/><path class="fv5" d="M1312 1299 L1070 1057 L1070 1193 L1312 1435 Z" /></g><g class="o"><path transform="translate(7,14)" class="S sfv" d="M1124 1687 L1267 1830 L1267 1958 L1124 1815 Z"/><path class="fv1" d="M1124 1687 L1267 1830 L1267 1958 L1124 1815 Z" /></g><g class="o"><path transform="translate(9,18)" class="S sf" d="M1561 1451 L1770 1660 L1890 1660 L1681 1451 Z"/><path class="f5" d="M1561 1451 L1770 1660 L1890 1660 L1681 1451 Z" /></g><g class="o"><path transform="translate(3,6)" class="S sfh" d="M1701 1602 L1805 1498 L1841 1498 L1737 1602 Z"/><path class="fh5" d="M1701 1602 L1805 1498 L1841 1498 L1737 1602 Z" /></g><g class="o"><path transform="translate(7,14)" class="S sfh" d="M1140 1019 L1207 952 L1343 952 L1276 1019 Z"/><path class="fh3" d="M1140 1019 L1207 952 L1343 952 L1276 1019 Z" /></g><g class="o"><path transform="translate(2,4)" class="S ssh" d="M1618 1215 L1781 1052 L1933 1052 L1770 1215 Z"/><path class="sh3" d="M1618 1215 L1781 1052 L1933 1052 L1770 1215 Z" /></g><g class="o"><path transform="translate(3,6)" class="S sf" d="M1240 1834 L1115 1709 L1147 1709 L1272 1834 Z"/><path class="f7" d="M1240 1834 L1115 1709 L1147 1709 L1272 1834 Z" /></g><g class="o"><path transform="translate(5,10)" class="S ssh" d="M1863 1313 L1643 1093 L1779 1093 L1999 1313 Z"/><path class="sh4" d="M1863 1313 L1643 1093 L1779 1093 L1999 1313 Z" /></g><g class="o"><path transform="translate(8,16)" class="S sfh" d="M1691 1269 L1579 1157 L1683 1157 L1795 1269 Z"/><path class="fh1" d="M1691 1269 L1579 1157 L1683 1157 L1795 1269 Z" /></g><g class="o"><path transform="translate(2,4)" class="S sfh" d="M1027 1607 L897 1737 L1017 1737 L1147 1607 Z"/><path class="fh6" d="M1027 1607 L897 1737 L1017 1737 L1147 1607 Z" /></g><g class="o"><path transform="translate(2,4)" class="S sfv" d="M1760 1374 L1951 1565 L1951 1637 L1760 1446 Z"/><path class="fv3" d="M1760 1374 L1951 1565 L1951 1637 L1760 1446 Z" /></g><g class="o"><path transform="translate(6,12)" class="S sfh" d="M1964 1343 L1752 1131 L1872 1131 L2084 1343 Z"/><path class="fh6" d="M1964 1343 L1752 1131 L1872 1131 L2084 1343 Z" /></g><g class="o"><path transform="translate(5,10)" class="S sfv" d="M1357 1293 L1250 1400 L1250 1438 L1357 1331 Z"/><path class="fv3" d="M1357 1293 L1250 1400 L1250 1438 L1357 1331 Z" /></g><g class="o"><path transform="translate(3,6)" class="S sf" d="M1876 1636 L1757 1755 L1757 1851 L1876 1732 Z"/><path class="f7" d="M1876 1636 L1757 1755 L1757 1851 L1876 1732 Z" /></g><g class="o"><path transform="translate(3,6)" class="S sfv" d="M1269 1783 L1025 1539 L1025 1627 L1269 1871 Z"/><path class="fv5" d="M1269 1783 L1025 1539 L1025 1627 L1269 1871 Z" /></g><g class="o"><path transform="translate(2,4)" class="S sfh" d="M1132 1775 L885 2022 L1037 2022 L1284 1775 Z"/><path class="fh5" d="M1132 1775 L885 2022 L1037 2022 L1284 1775 Z" /></g><g class="o"><path transform="translate(5,10)" class="S sf" d="M1058 1039 L1154 943 L1226 943 L1130 1039 Z"/><path class="f7" d="M1058 1039 L1154 943 L1226 943 L1130 1039 Z" /></g><g class="o"><path transform="translate(7,14)" class="S sfv" d="M1025 1338 L1097 1410 L1097 1514 L1025 1442 Z"/><path class="fv6" d="M1025 1338 L1097 1410 L1097 1514 L1025 1442 Z" /></g><g class="o"><path transform="translate(5,10)" class="S sfv" d="M1683 929 L1910 702 L1910 750 L1683 977 Z"/><path class="fv5" d="M1683 929 L1910 702 L1910 750 L1683 977 Z" /></g><g class="o"><path transform="translate(4,8)" class="S sfv" d="M1979 1581 L1826 1428 L1826 1548 L1979 1701 Z"/><path class="fv3" d="M1979 1581 L1826 1428 L1826 1548 L1979 1701 Z" /></g><g class="o"><path transform="translate(4,8)" class="S sfh" d="M1576 1426 L1462 1312 L1542 1312 L1656 1426 Z"/><path class="fh4" d="M1576 1426 L1462 1312 L1542 1312 L1656 1426 Z" /></g><g class="o"><path transform="translate(7,14)" class="S sfh" d="M998 1151 L1149 1302 L1301 1302 L1150 1151 Z"/><path class="fh7" d="M998 1151 L1149 1302 L1301 1302 L1150 1151 Z" /></g><g class="o"><path transform="translate(3,6)" class="S sfv" d="M1054 946 L1159 1051 L1159 1203 L1054 1098 Z"/><path class="fv6" d="M1054 946 L1159 1051 L1159 1203 L1054 1098 Z" /></g><g class="o"><path transform="translate(7,14)" class="S sf" d="M1235 1000 L1427 808 L1427 818 L1235 1010 Z"/><path class="f6" d="M1235 1000 L1427 808 L1427 818 L1235 1010 Z" /></g><g class="o"><path transform="translate(6,12)" class="S sfh" d="M1651 1652 L1501 1502 L1629 1502 L1779 1652 Z"/><path class="fh2" d="M1651 1652 L1501 1502 L1629 1502 L1779 1652 Z" /></g><g class="o"><path transform="translate(4,8)" class="S sfh" d="M1796 1171 L1738 1113 L1818 1113 L1876 1171 Z"/><path class="fh7" d="M1796 1171 L1738 1113 L1818 1113 L1876 1171 Z" /></g><g class="o"><path transform="translate(6,12)" class="S sf" d="M1127 2045 L974 2198 L1002 2198 L1155 2045 Z"/><path class="f3" d="M1127 2045 L974 2198 L1002 2198 L1155 2045 Z" /></g><g class="o"><path transform="translate(8,16)" class="S ssv" d="M1086 1253 L962 1377 L962 1473 L1086 1349 Z"/><path class="sv4" d="M1086 1253 L962 1377 L962 1473 L1086 1349 Z" /></g><g class="o"><path transform="translate(4,8)" class="S sfh" d="M1687 2018 L1588 2117 L1668 2117 L1767 2018 Z"/><path class="fh4" d="M1687 2018 L1588 2117 L1668 2117 L1767 2018 Z" /></g><g class="o"><path transform="translate(9,18)" class="S sfv" d="M1152 1264 L1872 544 L1872 576 L1152 1296 Z"/><path class="fv4" d="M1152 1264 L1872 544 L1872 576 L1152 1296 Z" /></g><g class="o"><path transform="translate(3,6)" class="S sfv" d="M1781 1033 L2005 809 L2005 913 L1781 1137 Z"/><path class="fv2" d="M1781 1033 L2005 809 L2005 913 L1781 1137 Z" /></g><g class="o"><path transform="translate(7,14)" class="S sfv" d="M1365 1153 L1281 1237 L1281 1325 L1365 1241 Z"/><path class="fv7" d="M1365 1153 L1281 1237 L1281 1325 L1365 1241 Z" /></g><g class="o"><path transform="translate(7,14)" class="S sfh" d="M1941 1683 L1832 1792 L1858 1792 L1967 1683 Z"/><path class="fh1" d="M1941 1683 L1832 1792 L1858 1792 L1967 1683 Z" /></g><g class="o"><path transform="translate(5,10)" class="S sfh" d="M932 1055 L305 1682 L457 1682 L1084 1055 Z"/><path class="fh1" d="M932 1055 L305 1682 L457 1682 L1084 1055 Z" /></g><g class="o"><path transform="translate(5,10)" class="S sf" d="M1600 1666 L1189 1255 L1189 1303 L1600 1714 Z"/><path class="f4" d="M1600 1666 L1189 1255 L1189 1303 L1600 1714 Z" /></g><g class="o"><path transform="translate(6,12)" class="S sfv" d="M1295 1385 L1225 1315 L1225 1341 L1295 1411 Z"/><path class="fv4" d="M1295 1385 L1225 1315 L1225 1341 L1295 1411 Z" /></g><g class="o"><path transform="translate(7,14)" class="S ssv" d="M1027 1680 L874 1527 L874 1591 L1027 1744 Z"/><path class="sv6" d="M1027 1680 L874 1527 L874 1591 L1027 1744 Z" /></g><g class="o"><path transform="translate(3,6)" class="S ssh" d="M1403 1083 L1748 1428 L1804 1428 L1459 1083 Z"/><path class="sh2" d="M1403 1083 L1748 1428 L1804 1428 L1459 1083 Z" /></g><g class="o"><path transform="translate(5,10)" class="S sf" d="M1755 1021 L1638 904 L1672 904 L1789 1021 Z"/><path class="f3" d="M1755 1021 L1638 904 L1672 904 L1789 1021 Z" /></g><g class="o"><path transform="translate(4,8)" class="S sfv" d="M1951 1359 L2135 1543 L2135 1647 L1951 1463 Z"/><path class="fv7" d="M1951 1359 L2135 1543 L2135 1647 L1951 1463 Z" /></g><g class="o"><path transform="translate(3,6)" class="S ss" d="M1233 1654 L1318 1739 L1422 1739 L1337 1654 Z"/><path class="s6" d="M1233 1654 L1318 1739 L1422 1739 L1337 1654 Z" /></g><g class="o"><path transform="translate(5,10)" class="S sfv" d="M1236 1122 L1291 1177 L1291 1193 L1236 1138 Z"/><path class="fv3" d="M1236 1122 L1291 1177 L1291 1193 L1236 1138 Z" /></g><g class="o"><path transform="translate(9,18)" class="S sfh" d="M1625 953 L1711 1039 L1747 1039 L1661 953 Z"/><path class="fh4" d="M1625 953 L1711 1039 L1747 1039 L1661 953 Z" /></g><g class="o"><path transform="translate(5,10)" class="S ssv" d="M1608 1769 L1533 1694 L1533 1838 L1608 1913 Z"/><path class="sv6" d="M1608 1769 L1533 1694 L1533 1838 L1608 1913 Z" /></g><g class="o"><path transform="translate(5,10)" class="S ssh" d="M1089 1216 L1328 977 L1408 977 L1169 1216 Z"/><path class="sh4" d="M1089 1216 L1328 977 L1408 977 L1169 1216 Z" /></g></g><use href="#slashes" transform-origin="1500 1500" transform="rotate(180) scale(2)"/></g><rect x="1080" y="1080" width="840" height="840" stroke-width="20" class="o f4" /><use href="#slashes" transform-origin="1500 1500" transform="scale(.6)"/><use href="#slashes" transform-origin="1500 1500" transform="rotate(180) scale(.6)"/></svg>