<svg xmlns="http://www.w3.org/2000/svg" viewBox="750 750 1500 1500"><style>/*<![CDATA[*/svg{background:rgb(38,38,38);max-width:100vw;max-height:100vh}path{stroke-width:4}.o{opacity:.75}.S{opacity:.4}.sf{stroke:none;fill:black}.sfh{stroke:none;fill:url(#hs)}.sfv{stroke:none;fill:url(#vs)}.ss{stroke:black;fill:none}.ssh{stroke:url(#hs);fill:none}.ssv{stroke:url(#vs);fill:none}.s1{fill:none;stroke:rgb(64,64,64)}.f1{stroke:none;fill:rgb(64,64,64)}.sh1{fill:none;stroke:url(#h1)}.fh1{stroke:none;fill:url(#h1)}.sv1{fill:none;stroke:url(#v1)}.fv1{stroke:none;fill:url(#v1)}.s2{fill:none;stroke:rgb(34,34,34)}.f2{stroke:none;fill:rgb(34,34,34)}.sh2{fill:none;stroke:url(#h2)}.fh2{stroke:none;fill:url(#h2)}.sv2{fill:none;stroke:url(#v2)}.fv2{stroke:none;fill:url(#v2)}.s3{fill:none;stroke:rgb(115,115,115)}.f3{stroke:none;fill:rgb(115,115,115)}.sh3{fill:none;stroke:url(#h3)}.fh3{stroke:none;fill:url(#h3)}.sv3{fill:none;stroke:url(#v3)}.fv3{stroke:none;fill:url(#v3)}.s4{fill:none;stroke:rgb(13,13,13)}.f4{stroke:none;fill:rgb(13,13,13)}.sh4{fill:none;stroke:url(#h4)}.fh4{stroke:none;fill:url(#h4)}.sv4{fill:none;stroke:url(#v4)}.fv4{stroke:none;fill:url(#v4)}.s5{fill:none;stroke:rgb(166,166,166)}.f5{stroke:none;fill:rgb(166,166,166)}.sh5{fill:none;stroke:url(#h5)}.fh5{stroke:none;fill:url(#h5)}.sv5{fill:none;stroke:url(#v5)}.fv5{stroke:none;fill:url(#v5)}.s6{fill:none;stroke:rgb(255,255,255)}.f6{stroke:none;fill:rgb(255,255,255)}.sh6{fill:none;stroke:url(#h6)}.fh6{stroke:none;fill:url(#h6)}.sv6{fill:none;stroke:url(#v6)}.fv6{stroke:none;fill:url(#v6)}.s7{fill:none;stroke:rgb(255,255,0)}.f7{stroke:none;fill:rgb(255,255,0)}.sh7{fill:none;stroke:url(#h7)}.fh7{stroke:none;fill:url(#h7)}.sv7{fill:none;stroke:url(#v7)}.fv7{stroke:none;fill:url(#v7)}/*]]>*/</style><defs><linearGradient gradientTransform="rotate(90)" id="hs"><stop offset="20%" stop-color="#000" /><stop offset="95%" stop-color="rgba(0, 0, 0, 0)" /></linearGradient><linearGradient id="vs"><stop offset="20%" stop-color="#000" /><stop offset="95%" stop-color="rgba(0, 0, 0, 0)" /></linearGradient><linearGradient gradientTransform="rotate(90)" id="h1"><stop offset="20%" stop-color="rgba(64,64,64,1)" /><stop offset="95%" stop-color="rgba(64,64,64,0)" /></linearGradient><linearGradient id="v1"><stop offset="20%" stop-color="rgba(64,64,64,1)" /><stop offset="95%" stop-color="rgba(64,64,64,0)" /></linearGradient><linearGradient gradientTransform="rotate(90)" id="h2"><stop offset="20%" stop-color="rgba(34,34,34,1)" /><stop offset="95%" stop-color="rgba(34,34,34,0)" /></linearGradient><linearGradient id="v2"><stop offset="20%" stop-color="rgba(34,34,34,1)" /><stop offset="95%" stop-color="rgba(34,34,34,0)" /></linearGradient><linearGradient gradientTransform="rotate(90)" id="h3"><stop offset="20%" stop-color="rgba(115,115,115,1)" /><stop offset="95%" stop-color="rgba(115,115,115,0)" /></linearGradient><linearGradient id="v3"><stop offset="20%" stop-color="rgba(115,115,115,1)" /><stop offset="95%" stop-color="rgba(115,115,115,0)" /></linearGradient><linearGradient gradientTransform="rotate(90)" id="h4"><stop offset="20%" stop-color="rgba(13,13,13,1)" /><stop offset="95%" stop-color="rgba(13,13,13,0)" /></linearGradient><linearGradient id="v4"><stop offset="20%" stop-color="rgba(13,13,13,1)" /><stop offset="95%" stop-color="rgba(13,13,13,0)" /></linearGradient><linearGradient gradientTransform="rotate(90)" id="h5"><stop offset="20%" stop-color="rgba(166,166,166,1)" /><stop offset="95%" stop-color="rgba(166,166,166,0)" /></linearGradient><linearGradient id="v5"><stop offset="20%" stop-color="rgba(166,166,166,1)" /><stop offset="95%" stop-color="rgba(166,166,166,0)" /></linearGradient><linearGradient gradientTransform="rotate(90)" id="h6"><stop offset="20%" stop-color="rgba(255,255,255,1)" /><stop offset="95%" stop-color="rgba(255,255,255,0)" /></linearGradient><linearGradient id="v6"><stop offset="20%" stop-color="rgba(255,255,255,1)" /><stop offset="95%" stop-color="rgba(255,255,255,0)" /></linearGradient><linearGradient gradientTransform="rotate(90)" id="h7"><stop offset="20%" stop-color="rgba(255,255,0,1)" /><stop offset="95%" stop-color="rgba(255,255,0,0)" /></linearGradient><linearGradient id="v7"><stop offset="20%" stop-color="rgba(255,255,0,1)" /><stop offset="95%" stop-color="rgba(255,255,0,0)" /></linearGradient></defs><g transform-origin="1500 1500" transform="scale(2)" opacity=".6"><g id="slashes"><g class="o"><path transform="translate(8,16)" class="S sfh" d="M1768 1146 L2455 459 L2483 459 L1796 1146 Z"/><path class="fh4" d="M1768 1146 L2455 459 L2483 459 L1796 1146 Z" /></g><g class="o"><path transform="translate(3,6)" class="S sfv" d="M1026 1210 L1206 1030 L1206 1038 L1026 1218 Z"/><path class="fv4" d="M1026 1210 L1206 1030 L1206 1038 L1026 1218 Z" /></g><g class="o"><path transform="translate(5,10)" class="S sf" d="M1392 1623 L1595 1420 L1611 1420 L1408 1623 Z"/><path class="f4" d="M1392 1623 L1595 1420 L1611 1420 L1408 1623 Z" /></g><g class="o"><path transform="translate(7,14)" class="S ssv" d="M1062 1907 L1264 1705 L1264 1723 L1062 1925 Z"/><path class="sv5" d="M1062 1907 L1264 1705 L1264 1723 L1062 1925 Z" /></g><g class="o"><path transform="translate(9,18)" class="S sf" d="M1587 1375 L1914 1048 L1936 1048 L1609 1375 Z"/><path class="f1" d="M1587 1375 L1914 1048 L1936 1048 L1609 1375 Z" /></g><g class="o"><path transform="translate(5,10)" class="S sfh" d="M1506 1665 L1755 1416 L1767 1416 L1518 1665 Z"/><path class="fh3" d="M1506 1665 L1755 1416 L1767 1416 L1518 1665 Z" /></g><g class="o"><path transform="translate(7,14)" class="S sfv" d="M1597 1894 L1820 1671 L1820 1685 L1597 1908 Z"/><path class="fv2" d="M1597 1894 L1820 1671 L1820 1685 L1597 1908 Z" /></g><g class="o"><path transform="translate(9,18)" class="S sfv" d="M1573 1741 L1707 1607 L1707 1631 L1573 1765 Z"/><path class="fv4" d="M1573 1741 L1707 1607 L1707 1631 L1573 1765 Z" /></g><g class="o"><path transform="translate(9,18)" class="S sfh" d="M1433 1030 L1257 854 L1285 854 L1461 1030 Z"/><path class="fh3" d="M1433 1030 L1257 854 L1285 854 L1461 1030 Z" /></g><g class="o"><path transform="translate(5,10)" class="S sf" d="M1241 1446 L1616 1071 L1616 1089 L1241 1464 Z"/><path class="f1" d="M1241 1446 L1616 1071 L1616 1089 L1241 1464 Z" /></g><g class="o"><path transform="translate(2,4)" class="S sfh" d="M1657 1616 L1577 1536 L1609 1536 L1689 1616 Z"/><path class="fh7" d="M1657 1616 L1577 1536 L1609 1536 L1689 1616 Z" /></g><g class="o"><path transform="translate(5,10)" class="S sf" d="M1396 1418 L1612 1202 L1638 1202 L1422 1418 Z"/><path class="f6" d="M1396 1418 L1612 1202 L1638 1202 L1422 1418 Z" /></g><g class="o"><path transform="translate(5,10)" class="S sfv" d="M1516 1919 L1578 1857 L1578 1889 L1516 1951 Z"/><path class="fv2" d="M1516 1919 L1578 1857 L1578 1889 L1516 1951 Z" /></g><g class="o"><path transform="translate(3,6)" class="S ssv" d="M1294 1225 L1410 1109 L1410 1127 L1294 1243 Z"/><path class="sv2" d="M1294 1225 L1410 1109 L1410 1127 L1294 1243 Z" /></g><g class="o"><path transform="translate(9,18)" class="S sfv" d="M1298 1591 L1099 1392 L1099 1424 L1298 1623 Z"/><path class="fv1" d="M1298 1591 L1099 1392 L1099 1424 L1298 1623 Z" /></g><g class="o"><path transform="translate(4,8)" class="S ssv" d="M1659 1558 L1579 1478 L1579 1496 L1659 1576 Z"/><path class="sv3" d="M1659 1558 L1579 1478 L1579 1496 L1659 1576 Z" /></g><g class="o"><path transform="translate(3,6)" class="S sfh" d="M1188 1127 L1366 949 L1378 949 L1200 1127 Z"/><path class="fh3" d="M1188 1127 L1366 949 L1378 949 L1200 1127 Z" /></g><g class="o"><path transform="translate(8,16)" class="S sfh" d="M1402 1479 L1212 1289 L1224 1289 L1414 1479 Z"/><path class="fh2" d="M1402 1479 L1212 1289 L1224 1289 L1414 1479 Z" /></g><g class="o"><path transform="translate(8,16)" class="S ssv" d="M965 1252 L1156 1061 L1156 1079 L965 1270 Z"/><path class="sv5" d="M965 1252 L1156 1061 L1156 1079 L965 1270 Z" /></g><g class="o"><path transform="translate(4,8)" class="S ssv" d="M1963 1448 L2053 1358 L2053 1374 L1963 1464 Z"/><path class="sv4" d="M1963 1448 L2053 1358 L2053 1374 L1963 1464 Z" /></g><g class="o"><path transform="translate(6,12)" class="S ss" d="M1654 1540 L1846 1348 L1860 1348 L1668 1540 Z"/><path class="s4" d="M1654 1540 L1846 1348 L1860 1348 L1668 1540 Z" /></g><g class="o"><path transform="translate(2,4)" class="S ssv" d="M2022 1976 L2168 1830 L2168 1854 L2022 2000 Z"/><path class="sv3" d="M2022 1976 L2168 1830 L2168 1854 L2022 2000 Z" /></g><g class="o"><path transform="translate(9,18)" class="S ssv" d="M1138 981 L1834 285 L1834 307 L1138 1003 Z"/><path class="sv3" d="M1138 981 L1834 285 L1834 307 L1138 1003 Z" /></g><g class="o"><path transform="translate(8,16)" class="S sfh" d="M1272 1971 L1427 1816 L1459 1816 L1304 1971 Z"/><path class="fh5" d="M1272 1971 L1427 1816 L1459 1816 L1304 1971 Z" /></g><g class="o"><path transform="translate(3,6)" class="S sfh" d="M1636 2049 L1742 1943 L1760 1943 L1654 2049 Z"/><path class="fh4" d="M1636 2049 L1742 1943 L1760 1943 L1654 2049 Z" /></g><g class="o"><path transform="translate(4,8)" class="S sf" d="M1251 1802 L1755 1298 L1789 1298 L1285 1802 Z"/><path class="f7" d="M1251 1802 L1755 1298 L1789 1298 L1285 1802 Z" /></g><g class="o"><path transform="translate(8,16)" class="S sfh" d="M1385 1286 L1509 1162 L1543 1162 L1419 1286 Z"/><path class="fh4" d="M1385 1286 L1509 1162 L1543 1162 L1419 1286 Z" /></g><g class="o"><path transform="translate(5,10)" class="S ssh" d="M1716 1222 L1826 1112 L1854 1112 L1744 1222 Z"/><path class="sh1" d="M1716 1222 L1826 1112 L1854 1112 L1744 1222 Z" /></g><g class="o"><path transform="translate(3,6)" class="S sfh" d="M1563 1357 L1636 1284 L1654 1284 L1581 1357 Z"/><path class="fh3" d="M1563 1357 L1636 1284 L1654 1284 L1581 1357 Z" /></g><g class="o"><path transform="translate(4,8)" class="S sfv" d="M1437 1707 L1336 1606 L1336 1618 L1437 1719 Z"/><path class="fv3" d="M1437 1707 L1336 1606 L1336 1618 L1437 1719 Z" /></g><g class="o"><path transform="translate(6,12)" class="S sfh" d="M1463 1091 L1307 935 L1321 935 L1477 1091 Z"/><path class="fh3" d="M1463 1091 L1307 935 L1321 935 L1477 1091 Z" /></g><g class="o"><path transform="translate(2,4)" class="S sf" d="M1347 1978 L1576 1749 L1576 1771 L1347 2000 Z"/><path class="f4" d="M1347 1978 L1576 1749 L1576 1771 L1347 2000 Z" /></g><g class="o"><path transform="translate(6,12)" class="S sfh" d="M1564 1909 L1647 1826 L1657 1826 L1574 1909 Z"/><path class="fh6" d="M1564 1909 L1647 1826 L1657 1826 L1574 1909 Z" /></g><g class="o"><path transform="translate(7,14)" class="S sfh" d="M1409 1785 L1186 1562 L1198 1562 L1421 1785 Z"/><path class="fh4" d="M1409 1785 L1186 1562 L1198 1562 L1421 1785 Z" /></g><g class="o"><path transform="translate(3,6)" class="S sfv" d="M1747 1541 L2149 1139 L2149 1167 L1747 1569 Z"/><path class="fv7" d="M1747 1541 L2149 1139 L2149 1167 L1747 1569 Z" /></g><g class="o"><path transform="translate(7,14)" class="S sfh" d="M1424 1020 L1548 896 L1576 896 L1452 1020 Z"/><path class="fh7" d="M1424 1020 L1548 896 L1576 896 L1452 1020 Z" /></g><g class="o"><path transform="translate(8,16)" class="S sf" d="M1978 1116 L2410 684 L2446 684 L2014 1116 Z"/><path class="f5" d="M1978 1116 L2410 684 L2446 684 L2014 1116 Z" /></g><g class="o"><path transform="translate(9,18)" class="S sfv" d="M1393 1636 L1714 1315 L1714 1349 L1393 1670 Z"/><path class="fv3" d="M1393 1636 L1714 1315 L1714 1349 L1393 1670 Z" /></g><g class="o"><path transform="translate(6,12)" class="S sfv" d="M1681 1285 L1803 1163 L1803 1195 L1681 1317 Z"/><path class="fv7" d="M1681 1285 L1803 1163 L1803 1195 L1681 1317 Z" /></g><g class="o"><path transform="translate(4,8)" class="S sfv" d="M1551 1365 L1758 1158 L1758 1178 L1551 1385 Z"/><path class="fv2" d="M1551 1365 L1758 1158 L1758 1178 L1551 1385 Z" /></g><g class="o"><path transform="translate(8,16)" class="S sf" d="M1552 1860 L2221 1191 L2221 1213 L1552 1882 Z"/><path class="f1" d="M1552 1860 L2221 1191 L2221 1213 L1552 1882 Z" /></g><g class="o"><path transform="translate(2,4)" class="S sfv" d="M1191 1673 L1440 1424 L1440 1444 L1191 1693 Z"/><path class="fv5" d="M1191 1673 L1440 1424 L1440 1444 L1191 1693 Z" /></g><g class="o"><path transform="translate(3,6)" class="S sfh" d="M1695 1475 L2223 947 L2261 947 L1733 1475 Z"/><path class="fh4" d="M1695 1475 L2223 947 L2261 947 L1733 1475 Z" /></g><g class="o"><path transform="translate(5,10)" class="S sfv" d="M1104 1967 L1290 1781 L1290 1811 L1104 1997 Z"/><path class="fv3" d="M1104 1967 L1290 1781 L1290 1811 L1104 1997 Z" /></g><g class="o"><path transform="translate(4,8)" class="S ssv" d="M1845 1997 L1654 1806 L1654 1816 L1845 2007 Z"/><path class="sv1" d="M1845 1997 L1654 1806 L1654 1816 L1845 2007 Z" /></g><g class="o"><path transform="translate(3,6)" class="S sfv" d="M1690 1682 L2227 1145 L2227 1179 L1690 1716 Z"/><path class="fv2" d="M1690 1682 L2227 1145 L2227 1179 L1690 1716 Z" /></g><g class="o"><path transform="translate(6,12)" class="S sfv" d="M1124 2002 L1261 1865 L1261 1895 L1124 2032 Z"/><path class="fv1" d="M1124 2002 L1261 1865 L1261 1895 L1124 2032 Z" /></g><g class="o"><path transform="translate(7,14)" class="S sfh" d="M2021 1868 L2239 1650 L2257 1650 L2039 1868 Z"/><path class="fh1" d="M2021 1868 L2239 1650 L2257 1650 L2039 1868 Z" /></g><g class="o"><path transform="translate(4,8)" class="S ssh" d="M1820 1166 L1741 1087 L1761 1087 L1840 1166 Z"/><path class="sh4" d="M1820 1166 L1741 1087 L1761 1087 L1840 1166 Z" /></g><g class="o"><path transform="translate(8,16)" class="S ss" d="M1362 1575 L1594 1343 L1594 1377 L1362 1609 Z"/><path class="s6" d="M1362 1575 L1594 1343 L1594 1377 L1362 1609 Z" /></g><g class="o"><path transform="translate(2,4)" class="S sf" d="M2000 970 L2106 864 L2106 874 L2000 980 Z"/><path class="f4" d="M2000 970 L2106 864 L2106 874 L2000 980 Z" /></g><g class="o"><path transform="translate(9,18)" class="S sfv" d="M1505 1238 L1564 1179 L1564 1195 L1505 1254 Z"/><path class="fv5" d="M1505 1238 L1564 1179 L1564 1195 L1505 1254 Z" /></g><g class="o"><path transform="translate(3,6)" class="S sfv" d="M1793 1076 L1984 885 L1984 903 L1793 1094 Z"/><path class="fv2" d="M1793 1076 L1984 885 L1984 903 L1793 1094 Z" /></g><g class="o"><path transform="translate(5,10)" class="S ssh" d="M2033 1334 L1787 1088 L1807 1088 L2053 1334 Z"/><path class="sh5" d="M2033 1334 L1787 1088 L1807 1088 L2053 1334 Z" /></g><g class="o"><path transform="translate(3,6)" class="S ssv" d="M1339 1131 L1113 905 L1113 923 L1339 1149 Z"/><path class="sv6" d="M1339 1131 L1113 905 L1113 923 L1339 1149 Z" /></g><g class="o"><path transform="translate(4,8)" class="S sf" d="M1684 1102 L1584 1002 L1600 1002 L1700 1102 Z"/><path class="f1" d="M1684 1102 L1584 1002 L1600 1002 L1700 1102 Z" /></g><g class="o"><path transform="translate(8,16)" class="S ssv" d="M1240 1361 L1308 1293 L1308 1311 L1240 1379 Z"/><path class="sv1" d="M1240 1361 L1308 1293 L1308 1311 L1240 1379 Z" /></g><g class="o"><path transform="translate(5,10)" class="S sfv" d="M1061 1607 L1231 1437 L1231 1451 L1061 1621 Z"/><path class="fv3" d="M1061 1607 L1231 1437 L1231 1451 L1061 1621 Z" /></g><g class="o"><path transform="translate(3,6)" class="S sf" d="M1042 2029 L1113 1958 L1113 1974 L1042 2045 Z"/><path class="f5" d="M1042 2029 L1113 1958 L1113 1974 L1042 2045 Z" /></g><g class="o"><path transform="translate(2,4)" class="S sf" d="M1541 1344 L1648 1237 L1648 1259 L1541 1366 Z"/><path class="f2" d="M1541 1344 L1648 1237 L1648 1259 L1541 1366 Z" /></g><g class="o"><path transform="translate(5,10)" class="S sfv" d="M1265 2012 L1389 1888 L1389 1908 L1265 2032 Z"/><path class="fv1" d="M1265 2012 L1389 1888 L1389 1908 L1265 2032 Z" /></g><g class="o"><path transform="translate(9,18)" class="S ssh" d="M1279 1553 L1490 1342 L1498 1342 L1287 1553 Z"/><path class="sh2" d="M1279 1553 L1490 1342 L1498 1342 L1287 1553 Z" /></g><g class="o"><path transform="translate(6,12)" class="S sfh" d="M1874 1555 L2104 1325 L2124 1325 L1894 1555 Z"/><path class="fh5" d="M1874 1555 L2104 1325 L2124 1325 L1894 1555 Z" /></g><g class="o"><path transform="translate(8,16)" class="S sf" d="M1102 1641 L1152 1591 L1166 1591 L1116 1641 Z"/><path class="f2" d="M1102 1641 L1152 1591 L1166 1591 L1116 1641 Z" /></g><g class="o"><path transform="translate(2,4)" class="S sfv" d="M1081 1899 L1145 1835 L1145 1871 L1081 1935 Z"/><path class="fv5" d="M1081 1899 L1145 1835 L1145 1871 L1081 1935 Z" /></g><g class="o"><path transform="translate(9,18)" class="S ssv" d="M1228 987 L1459 756 L1459 774 L1228 1005 Z"/><path class="sv7" d="M1228 987 L1459 756 L1459 774 L1228 1005 Z" /></g><g class="o"><path transform="translate(4,8)" class="S sf" d="M1691 1546 L1783 1454 L1783 1478 L1691 1570 Z"/><path class="f5" d="M1691 1546 L1783 1454 L1783 1478 L1691 1570 Z" /></g><g class="o"><path transform="translate(2,4)" class="S ss" d="M1717 1973 L1820 1870 L1820 1884 L1717 1987 Z"/><path class="s6" d="M1717 1973 L1820 1870 L1820 1884 L1717 1987 Z" /></g><g class="o"><path transform="translate(4,8)" class="S ssh" d="M1029 1996 L1233 1792 L1249 1792 L1045 1996 Z"/><path class="sh2" d="M1029 1996 L1233 1792 L1249 1792 L1045 1996 Z" /></g><g class="o"><path transform="translate(5,10)" class="S ssv" d="M1569 1742 L1674 1637 L1674 1649 L1569 1754 Z"/><path class="sv3" d="M1569 1742 L1674 1637 L1674 1649 L1569 1754 Z" /></g><g class="o"><path transform="translate(3,6)" class="S sf" d="M971 960 L1186 745 L1208 745 L993 960 Z"/><path class="f7" d="M971 960 L1186 745 L1208 745 L993 960 Z" /></g><g class="o"><path transform="translate(2,4)" class="S ss" d="M1420 1832 L1261 1673 L1261 1697 L1420 1856 Z"/><path class="s2" d="M1420 1832 L1261 1673 L1261 1697 L1420 1856 Z" /></g><g class="o"><path transform="translate(3,6)" class="S sfv" d="M1089 1542 L1028 1481 L1028 1505 L1089 1566 Z"/><path class="fv4" d="M1089 1542 L1028 1481 L1028 1505 L1089 1566 Z" /></g><g class="o"><path transform="translate(5,10)" class="S sfv" d="M1499 937 L1677 759 L1677 797 L1499 975 Z"/><path class="fv2" d="M1499 937 L1677 759 L1677 797 L1499 975 Z" /></g><g class="o"><path transform="translate(6,12)" class="S sf" d="M1978 1908 L2214 1672 L2214 1700 L1978 1936 Z"/><path class="f3" d="M1978 1908 L2214 1672 L2214 1700 L1978 1936 Z" /></g><g class="o"><path transform="translate(4,8)" class="S sfh" d="M1780 1480 L1701 1401 L1711 1401 L1790 1480 Z"/><path class="fh1" d="M1780 1480 L1701 1401 L1711 1401 L1790 1480 Z" /></g><g class="o"><path transform="translate(9,18)" class="S ssh" d="M1370 1996 L1559 1807 L1573 1807 L1384 1996 Z"/><path class="sh5" d="M1370 1996 L1559 1807 L1573 1807 L1384 1996 Z" /></g><g class="o"><path transform="translate(9,18)" class="S sfv" d="M1681 1894 L1736 1839 L1736 1877 L1681 1932 Z"/><path class="fv6" d="M1681 1894 L1736 1839 L1736 1877 L1681 1932 Z" /></g><g class="o"><path transform="translate(8,16)" class="S sfv" d="M1855 1965 L1998 1822 L1998 1856 L1855 1999 Z"/><path class="fv2" d="M1855 1965 L1998 1822 L1998 1856 L1855 1999 Z" /></g><g class="o"><path transform="translate(6,12)" class="S ssh" d="M1701 1890 L2445 1146 L2475 1146 L1731 1890 Z"/><path class="sh5" d="M1701 1890 L2445 1146 L2475 1146 L1731 1890 Z" /></g><g class="o"><path transform="translate(3,6)" class="S ssh" d="M1652 1405 L944 697 L964 697 L1672 1405 Z"/><path class="sh1" d="M1652 1405 L944 697 L964 697 L1672 1405 Z" /></g><g class="o"><path transform="translate(7,14)" class="S sf" d="M1428 1167 L1347 1086 L1385 1086 L1466 1167 Z"/><path class="f5" d="M1428 1167 L1347 1086 L1385 1086 L1466 1167 Z" /></g><g class="o"><path transform="translate(6,12)" class="S ssv" d="M1045 1761 L469 1185 L469 1219 L1045 1795 Z"/><path class="sv4" d="M1045 1761 L469 1185 L469 1219 L1045 1795 Z" /></g><g class="o"><path transform="translate(9,18)" class="S sfv" d="M1677 1273 L1845 1105 L1845 1113 L1677 1281 Z"/><path class="fv6" d="M1677 1273 L1845 1105 L1845 1113 L1677 1281 Z" /></g><g class="o"><path transform="translate(9,18)" class="S sfv" d="M956 1506 L1592 870 L1592 902 L956 1538 Z"/><path class="fv4" d="M956 1506 L1592 870 L1592 902 L956 1538 Z" /></g><g class="o"><path transform="translate(9,18)" class="S sf" d="M1119 1642 L1351 1410 L1351 1448 L1119 1680 Z"/><path class="f2" d="M1119 1642 L1351 1410 L1351 1448 L1119 1680 Z" /></g><g class="o"><path transform="translate(3,6)" class="S sf" d="M2038 2027 L2258 1807 L2272 1807 L2052 2027 Z"/><path class="f7" d="M2038 2027 L2258 1807 L2272 1807 L2052 2027 Z" /></g><g class="o"><path transform="translate(3,6)" class="S sfv" d="M1125 1251 L1333 1043 L1333 1051 L1125 1259 Z"/><path class="fv2" d="M1125 1251 L1333 1043 L1333 1051 L1125 1259 Z" /></g><g class="o"><path transform="translate(4,8)" class="S sfh" d="M1760 1215 L1555 1010 L1575 1010 L1780 1215 Z"/><path class="fh2" d="M1760 1215 L1555 1010 L1575 1010 L1780 1215 Z" /></g><g class="o"><path transform="translate(5,10)" class="S ssh" d="M1806 1906 L1950 1762 L1972 1762 L1828 1906 Z"/><path class="sh5" d="M1806 1906 L1950 1762 L1972 1762 L1828 1906 Z" /></g><g class="o"><path transform="translate(4,8)" class="S ssh" d="M1521 982 L1738 765 L1760 765 L1543 982 Z"/><path class="sh4" d="M1521 982 L1738 765 L1760 765 L1543 982 Z" /></g><g class="o"><path transform="translate(8,16)" class="S sfv" d="M1083 1056 L1324 815 L1324 851 L1083 1092 Z"/><path class="fv6" d="M1083 1056 L1324 815 L1324 851 L1083 1092 Z" /></g><g class="o"><path transform="translate(2,4)" class="S sf" d="M1563 1080 L1671 972 L1671 1000 L1563 1108 Z"/><path class="f7" d="M1563 1080 L1671 972 L1671 1000 L1563 1108 Z" /></g><g class="o"><path transform="translate(7,14)" class="S sfh" d="M1092 1572 L1190 1474 L1218 1474 L1120 1572 Z"/><path class="fh1" d="M1092 1572 L1190 1474 L1218 1474 L1120 1572 Z" /></g><g class="o"><path transform="translate(9,18)" class="S sfh" d="M1538 981 L1644 875 L1662 875 L1556 981 Z"/><path class="fh7" d="M1538 981 L1644 875 L1662 875 L1556 981 Z" /></g><g class="o"><path transform="translate(7,14)" class="S ssv" d="M1019 1449 L1148 1320 L1148 1350 L1019 1479 Z"/><path class="sv4" d="M1019 1449 L1148 1320 L1148 1350 L1019 1479 Z" /></g><g class="o"><path transform="translate(5,10)" class="S sfh" d="M1348 952 L1537 763 L1551 763 L1362 952 Z"/><path class="fh1" d="M1348 952 L1537 763 L1551 763 L1362 952 Z" /></g><g class="o"><path transform="translate(6,12)" class="S sfh" d="M937 1442 L1420 959 L1448 959 L965 1442 Z"/><path class="fh5" d="M937 1442 L1420 959 L1448 959 L965 1442 Z" /></g><g class="o"><path transform="translate(9,18)" class="S ssh" d="M1208 1744 L1262 1690 L1290 1690 L1236 1744 Z"/><path class="sh4" d="M1208 1744 L1262 1690 L1290 1690 L1236 1744 Z" /></g><g class="o"><path transform="translate(5,10)" class="S ssh" d="M1638 1256 L1826 1068 L1860 1068 L1672 1256 Z"/><path class="sh5" d="M1638 1256 L1826 1068 L1860 1068 L1672 1256 Z" /></g><g class="o"><path transform="translate(6,12)" class="S sfv" d="M952 1726 L1522 1156 L1522 1180 L952 1750 Z"/><path class="fv1" d="M952 1726 L1522 1156 L1522 1180 L952 1750 Z" /></g><g class="o"><path transform="translate(7,14)" class="S ssh" d="M1433 1723 L1360 1650 L1368 1650 L1441 1723 Z"/><path class="sh6" d="M1433 1723 L1360 1650 L1368 1650 L1441 1723 Z" /></g><g class="o"><path transform="translate(2,4)" class="S ss" d="M1648 1125 L1844 929 L1852 929 L1656 1125 Z"/><path class="s5" d="M1648 1125 L1844 929 L1852 929 L1656 1125 Z" /></g><g class="o"><path transform="translate(5,10)" class="S sfh" d="M1730 1442 L1872 1300 L1884 1300 L1742 1442 Z"/><path class="fh2" d="M1730 1442 L1872 1300 L1884 1300 L1742 1442 Z" /></g><g class="o"><path transform="translate(3,6)" class="S sfv" d="M1989 1653 L2568 1074 L2568 1108 L1989 1687 Z"/><path class="fv7" d="M1989 1653 L2568 1074 L2568 1108 L1989 1687 Z" /></g><g class="o"><path transform="translate(9,18)" class="S sfh" d="M1313 1210 L1475 1048 L1507 1048 L1345 1210 Z"/><path class="fh7" d="M1313 1210 L1475 1048 L1507 1048 L1345 1210 Z" /></g><g class="o"><path transform="translate(3,6)" class="S sfv" d="M1426 1122 L1584 964 L1584 982 L1426 1140 Z"/><path class="fv5" d="M1426 1122 L1584 964 L1584 982 L1426 1140 Z" /></g><g class="o"><path transform="translate(7,14)" class="S sfv" d="M1802 1000 L1645 843 L1645 861 L1802 1018 Z"/><path class="fv6" d="M1802 1000 L1645 843 L1645 861 L1802 1018 Z" /></g><g class="o"><path transform="translate(4,8)" class="S sfh" d="M1793 983 L2351 425 L2369 425 L1811 983 Z"/><path class="fh5" d="M1793 983 L2351 425 L2369 425 L1811 983 Z" /></g><g class="o"><path transform="translate(5,10)" class="S sfh" d="M998 1272 L858 1132 L874 1132 L1014 1272 Z"/><path class="fh7" d="M998 1272 L858 1132 L874 1132 L1014 1272 Z" /></g><g class="o"><path transform="translate(2,4)" class="S sf" d="M1712 1091 L2303 500 L2333 500 L1742 1091 Z"/><path class="f1" d="M1712 1091 L2303 500 L2333 500 L1742 1091 Z" /></g><g class="o"><path transform="translate(3,6)" class="S sfh" d="M1857 1552 L1934 1475 L1960 1475 L1883 1552 Z"/><path class="fh6" d="M1857 1552 L1934 1475 L1960 1475 L1883 1552 Z" /></g><g class="o"><path transform="translate(7,14)" class="S ss" d="M1145 1047 L1262 930 L1280 930 L1163 1047 Z"/><path class="s6" d="M1145 1047 L1262 930 L1280 930 L1163 1047 Z" /></g><g class="o"><path transform="translate(2,4)" class="S ssh" d="M1398 1786 L1578 1606 L1610 1606 L1430 1786 Z"/><path class="sh3" d="M1398 1786 L1578 1606 L1610 1606 L1430 1786 Z" /></g><g class="o"><path transform="translate(5,10)" class="S sfh" d="M1331 1600 L1434 1497 L1444 1497 L1341 1600 Z"/><path class="fh5" d="M1331 1600 L1434 1497 L1444 1497 L1341 1600 Z" /></g><g class="o"><path transform="translate(6,12)" class="S sfh" d="M1572 1229 L1666 1135 L1688 1135 L1594 1229 Z"/><path class="fh5" d="M1572 1229 L1666 1135 L1688 1135 L1594 1229 Z" /></g><g class="o"><path transform="translate(5,10)" class="S sfh" d="M1927 1837 L1994 1770 L2010 1770 L1943 1837 Z"/><path class="fh5" d="M1927 1837 L1994 1770 L2010 1770 L1943 1837 Z" /></g><g class="o"><path transform="translate(9,18)" class="S sfv" d="M1760 1487 L1822 1425 L1822 1445 L1760 1507 Z"/><path class="fv2" d="M1760 1487 L1822 1425 L1822 1445 L1760 1507 Z" /></g><g class="o"><path transform="translate(9,18)" class="S ssv" d="M1151 1143 L1233 1061 L1233 1079 L1151 1161 Z"/><path class="sv1" d="M1151 1143 L1233 1061 L1233 1079 L1151 1161 Z" /></g><g class="o"><path transform="translate(2,4)" class="S sfh" d="M1079 2032 L1269 1842 L1305 1842 L1115 2032 Z"/><path class="fh3" d="M1079 2032 L1269 1842 L1305 1842 L1115 2032 Z" /></g><g class="o"><path transform="translate(4,8)" class="S sfh" d="M1853 1198 L1970 1081 L1996 1081 L1879 1198 Z"/><path class="fh6" d="M1853 1198 L1970 1081 L1996 1081 L1879 1198 Z" /></g><g class="o"><path transform="translate(7,14)" class="S sfh" d="M1475 1730 L1976 1229 L1996 1229 L1495 1730 Z"/><path class="fh4" d="M1475 1730 L1976 1229 L1996 1229 L1495 1730 Z" /></g><g class="o"><path transform="translate(4,8)" class="S sfv" d="M2007 1678 L2148 1537 L2148 1575 L2007 1716 Z"/><path class="fv5" d="M2007 1678 L2148 1537 L2148 1575 L2007 1716 Z" /></g><g class="o"><path transform="translate(9,18)" class="S sf" d="M1132 1403 L1300 1235 L1300 1273 L1132 1441 Z"/><path class="f2" d="M1132 1403 L1300 1235 L1300 1273 L1132 1441 Z" /></g><g class="o"><path transform="translate(2,4)" class="S ssh" d="M1378 1130 L1617 891 L1629 891 L1390 1130 Z"/><path class="sh7" d="M1378 1130 L1617 891 L1629 891 L1390 1130 Z" /></g><g class="o"><path transform="translate(3,6)" class="S sf" d="M1944 2019 L2134 1829 L2134 1847 L1944 2037 Z"/><path class="f4" d="M1944 2019 L2134 1829 L2134 1847 L1944 2037 Z" /></g><g class="o"><path transform="translate(7,14)" class="S sfv" d="M1759 1156 L1836 1079 L1836 1099 L1759 1176 Z"/><path class="fv4" d="M1759 1156 L1836 1079 L1836 1099 L1759 1176 Z" /></g><g class="o"><path transform="translate(8,16)" class="S sfh" d="M1108 1957 L1297 1768 L1335 1768 L1146 1957 Z"/><path class="fh3" d="M1108 1957 L1297 1768 L1335 1768 L1146 1957 Z" /></g><g class="o"><path transform="translate(9,18)" class="S sf" d="M980 1576 L1646 910 L1662 910 L996 1576 Z"/><path class="f4" d="M980 1576 L1646 910 L1662 910 L996 1576 Z" /></g><g class="o"><path transform="translate(2,4)" class="S sfv" d="M1956 1483 L2099 1340 L2099 1378 L1956 1521 Z"/><path class="fv5" d="M1956 1483 L2099 1340 L2099 1378 L1956 1521 Z" /></g><g class="o"><path transform="translate(7,14)" class="S sfh" d="M1248 1668 L1394 1522 L1404 1522 L1258 1668 Z"/><path class="fh7" d="M1248 1668 L1394 1522 L1404 1522 L1258 1668 Z" /></g><g class="o"><path transform="translate(3,6)" class="S ssh" d="M1322 1054 L1543 833 L1571 833 L1350 1054 Z"/><path class="sh3" d="M1322 1054 L1543 833 L1571 833 L1350 1054 Z" /></g><g class="o"><path transform="translate(7,14)" class="S ssh" d="M1569 1167 L1514 1112 L1548 1112 L1603 1167 Z"/><path class="sh6" d="M1569 1167 L1514 1112 L1548 1112 L1603 1167 Z" /></g><g class="o"><path transform="translate(8,16)" class="S ssv" d="M1767 1815 L1991 1591 L1991 1601 L1767 1825 Z"/><path class="sv6" d="M1767 1815 L1991 1591 L1991 1601 L1767 1825 Z" /></g><g class="o"><path transform="translate(3,6)" class="S sfv" d="M1982 1150 L2230 902 L2230 920 L1982 1168 Z"/><path class="fv3" d="M1982 1150 L2230 902 L2230 920 L1982 1168 Z" /></g><g class="o"><path transform="translate(6,12)" class="S sfh" d="M1704 1908 L1498 1702 L1510 1702 L1716 1908 Z"/><path class="fh2" d="M1704 1908 L1498 1702 L1510 1702 L1716 1908 Z" /></g><g class="o"><path transform="translate(3,6)" class="S sf" d="M1048 1308 L1128 1228 L1166 1228 L1086 1308 Z"/><path class="f2" d="M1048 1308 L1128 1228 L1166 1228 L1086 1308 Z" /></g><g class="o"><path transform="translate(9,18)" class="S sfv" d="M1556 1269 L1609 1216 L1609 1232 L1556 1285 Z"/><path class="fv4" d="M1556 1269 L1609 1216 L1609 1232 L1556 1285 Z" /></g><g class="o"><path transform="translate(3,6)" class="S sfh" d="M1955 1478 L1873 1396 L1911 1396 L1993 1478 Z"/><path class="fh5" d="M1955 1478 L1873 1396 L1911 1396 L1993 1478 Z" /></g><g class="o"><path transform="translate(5,10)" class="S sf" d="M1761 966 L2304 423 L2304 445 L1761 988 Z"/><path class="f7" d="M1761 966 L2304 423 L2304 445 L1761 988 Z" /></g><g class="o"><path transform="translate(6,12)" class="S sfh" d="M1865 1660 L1708 1503 L1734 1503 L1891 1660 Z"/><path class="fh3" d="M1865 1660 L1708 1503 L1734 1503 L1891 1660 Z" /></g><g class="o"><path transform="translate(9,18)" class="S sfv" d="M1709 1650 L1942 1417 L1942 1443 L1709 1676 Z"/><path class="fv2" d="M1709 1650 L1942 1417 L1942 1443 L1709 1676 Z" /></g><g class="o"><path transform="translate(9,18)" class="S sfh" d="M1524 2013 L1902 1635 L1912 1635 L1534 2013 Z"/><path class="fh2" d="M1524 2013 L1902 1635 L1912 1635 L1534 2013 Z" /></g><g class="o"><path transform="translate(7,14)" class="S sfh" d="M1414 1365 L685 636 L709 636 L1438 1365 Z"/><path class="fh3" d="M1414 1365 L685 636 L709 636 L1438 1365 Z" /></g><g class="o"><path transform="translate(2,4)" class="S sfv" d="M1636 1114 L1757 993 L1757 1027 L1636 1148 Z"/><path class="fv4" d="M1636 1114 L1757 993 L1757 1027 L1636 1148 Z" /></g><g class="o"><path transform="translate(9,18)" class="S ssv" d="M1494 1315 L1365 1186 L1365 1206 L1494 1335 Z"/><path class="sv4" d="M1494 1315 L1365 1186 L1365 1206 L1494 1335 Z" /></g><g class="o"><path transform="translate(3,6)" class="S sfh" d="M983 1454 L1175 1262 L1187 1262 L995 1454 Z"/><path class="fh6" d="M983 1454 L1175 1262 L1187 1262 L995 1454 Z" /></g><g class="o"><path transform="translate(3,6)" class="S sf" d="M1210 1442 L1702 950 L1702 974 L1210 1466 Z"/><path class="f4" d="M1210 1442 L1702 950 L1702 974 L1210 1466 Z" /></g><g class="o"><path transform="translate(3,6)" class="S sfv" d="M1238 1159 L866 787 L866 817 L1238 1189 Z"/><path class="fv7" d="M1238 1159 L866 787 L866 817 L1238 1189 Z" /></g><g class="o"><path transform="translate(7,14)" class="S sfv" d="M1107 1542 L1350 1299 L1350 1317 L1107 1560 Z"/><path class="fv4" d="M1107 1542 L1350 1299 L1350 1317 L1107 1560 Z" /></g></g><use href="#slashes" transform-origin="1500 1500" transform="rotate(180) scale(2)"/></g><rect x="1080" y="1080" width="840" height="840" stroke-width="40" class="o f4" /><use href="#slashes" transform-origin="1500 1500" transform="scale(.7)"/><use href="#slashes" transform-origin="1500 1500" transform="rotate(180) scale(.3)"/></svg>