<svg xmlns="http://www.w3.org/2000/svg" viewBox="750 750 1500 1500"><style>/*<![CDATA[*/svg{background:rgb(15,109,191);max-width:100vw;max-height:100vh}path{stroke-width:4}.o{opacity:.75}.S{opacity:.4}.sf{stroke:none;fill:black}.sfh{stroke:none;fill:url(#hs)}.sfv{stroke:none;fill:url(#vs)}.ss{stroke:black;fill:none}.ssh{stroke:url(#hs);fill:none}.ssv{stroke:url(#vs);fill:none}.s1{fill:none;stroke:rgb(7,43,89)}.f1{stroke:none;fill:rgb(7,43,89)}.sh1{fill:none;stroke:url(#h1)}.fh1{stroke:none;fill:url(#h1)}.sv1{fill:none;stroke:url(#v1)}.fv1{stroke:none;fill:url(#v1)}.s2{fill:none;stroke:rgb(34,34,34)}.f2{stroke:none;fill:rgb(34,34,34)}.sh2{fill:none;stroke:url(#h2)}.fh2{stroke:none;fill:url(#h2)}.sv2{fill:none;stroke:url(#v2)}.fv2{stroke:none;fill:url(#v2)}.s3{fill:none;stroke:rgb(114,219,242)}.f3{stroke:none;fill:rgb(114,219,242)}.sh3{fill:none;stroke:url(#h3)}.fh3{stroke:none;fill:url(#h3)}.sv3{fill:none;stroke:url(#v3)}.fv3{stroke:none;fill:url(#v3)}.s4{fill:none;stroke:rgb(4,41,64)}.f4{stroke:none;fill:rgb(4,41,64)}.sh4{fill:none;stroke:url(#h4)}.fh4{stroke:none;fill:url(#h4)}.sv4{fill:none;stroke:url(#v4)}.fv4{stroke:none;fill:url(#v4)}.s5{fill:none;stroke:rgb(15,92,191)}.f5{stroke:none;fill:rgb(15,92,191)}.sh5{fill:none;stroke:url(#h5)}.fh5{stroke:none;fill:url(#h5)}.sv5{fill:none;stroke:url(#v5)}.fv5{stroke:none;fill:url(#v5)}.s6{fill:none;stroke:rgb(255,255,255)}.f6{stroke:none;fill:rgb(255,255,255)}.sh6{fill:none;stroke:url(#h6)}.fh6{stroke:none;fill:url(#h6)}.sv6{fill:none;stroke:url(#v6)}.fv6{stroke:none;fill:url(#v6)}.s7{fill:none;stroke:rgb(255,255,0)}.f7{stroke:none;fill:rgb(255,255,0)}.sh7{fill:none;stroke:url(#h7)}.fh7{stroke:none;fill:url(#h7)}.sv7{fill:none;stroke:url(#v7)}.fv7{stroke:none;fill:url(#v7)}/*]]>*/</style><defs><linearGradient gradientTransform="rotate(90)" id="hs"><stop offset="20%" stop-color="#000" /><stop offset="95%" stop-color="rgba(0, 0, 0, 0)" /></linearGradient><linearGradient id="vs"><stop offset="20%" stop-color="#000" /><stop offset="95%" stop-color="rgba(0, 0, 0, 0)" /></linearGradient><linearGradient gradientTransform="rotate(90)" id="h1"><stop offset="20%" stop-color="rgba(7,43,89,1)" /><stop offset="95%" stop-color="rgba(7,43,89,0)" /></linearGradient><linearGradient id="v1"><stop offset="20%" stop-color="rgba(7,43,89,1)" /><stop offset="95%" stop-color="rgba(7,43,89,0)" /></linearGradient><linearGradient gradientTransform="rotate(90)" id="h2"><stop offset="20%" stop-color="rgba(34,34,34,1)" /><stop offset="95%" stop-color="rgba(34,34,34,0)" /></linearGradient><linearGradient id="v2"><stop offset="20%" stop-color="rgba(34,34,34,1)" /><stop offset="95%" stop-color="rgba(34,34,34,0)" /></linearGradient><linearGradient gradientTransform="rotate(90)" id="h3"><stop offset="20%" stop-color="rgba(114,219,242,1)" /><stop offset="95%" stop-color="rgba(114,219,242,0)" /></linearGradient><linearGradient id="v3"><stop offset="20%" stop-color="rgba(114,219,242,1)" /><stop offset="95%" stop-color="rgba(114,219,242,0)" /></linearGradient><linearGradient gradientTransform="rotate(90)" id="h4"><stop offset="20%" stop-color="rgba(4,41,64,1)" /><stop offset="95%" stop-color="rgba(4,41,64,0)" /></linearGradient><linearGradient id="v4"><stop offset="20%" stop-color="rgba(4,41,64,1)" /><stop offset="95%" stop-color="rgba(4,41,64,0)" /></linearGradient><linearGradient gradientTransform="rotate(90)" id="h5"><stop offset="20%" stop-color="rgba(15,92,191,1)" /><stop offset="95%" stop-color="rgba(15,92,191,0)" /></linearGradient><linearGradient id="v5"><stop offset="20%" stop-color="rgba(15,92,191,1)" /><stop offset="95%" stop-color="rgba(15,92,191,0)" /></linearGradient><linearGradient gradientTransform="rotate(90)" id="h6"><stop offset="20%" stop-color="rgba(255,255,255,1)" /><stop offset="95%" stop-color="rgba(255,255,255,0)" /></linearGradient><linearGradient id="v6"><stop offset="20%" stop-color="rgba(255,255,255,1)" /><stop offset="95%" stop-color="rgba(255,255,255,0)" /></linearGradient><linearGradient gradientTransform="rotate(90)" id="h7"><stop offset="20%" stop-color="rgba(255,255,0,1)" /><stop offset="95%" stop-color="rgba(255,255,0,0)" /></linearGradient><linearGradient id="v7"><stop offset="20%" stop-color="rgba(255,255,0,1)" /><stop offset="95%" stop-color="rgba(255,255,0,0)" /></linearGradient></defs><g transform-origin="1500 1500" transform="scale(2)" opacity=".2"><g id="slashes"><g class="o"><path transform="translate(7,14)" class="S ss" d="M1547 1651 L893 997 L893 1011 L1547 1665 Z"/><path class="s2" d="M1547 1651 L893 997 L893 1011 L1547 1665 Z" /></g><g class="o"><path transform="translate(2,4)" class="S ssh" d="M1405 1972 L1318 1885 L1344 1885 L1431 1972 Z"/><path class="sh1" d="M1405 1972 L1318 1885 L1344 1885 L1431 1972 Z" /></g><g class="o"><path transform="translate(6,12)" class="S sfh" d="M1867 1928 L1667 1728 L1685 1728 L1885 1928 Z"/><path class="fh6" d="M1867 1928 L1667 1728 L1685 1728 L1885 1928 Z" /></g><g class="o"><path transform="translate(2,4)" class="S sfv" d="M1100 1120 L1231 989 L1231 999 L1100 1130 Z"/><path class="fv4" d="M1100 1120 L1231 989 L1231 999 L1100 1130 Z" /></g><g class="o"><path transform="translate(7,14)" class="S sf" d="M1564 1529 L1493 1458 L1493 1484 L1564 1555 Z"/><path class="f7" d="M1564 1529 L1493 1458 L1493 1484 L1564 1555 Z" /></g><g class="o"><path transform="translate(6,12)" class="S sfh" d="M1082 1405 L915 1238 L949 1238 L1116 1405 Z"/><path class="fh4" d="M1082 1405 L915 1238 L949 1238 L1116 1405 Z" /></g><g class="o"><path transform="translate(5,10)" class="S ssv" d="M1240 1451 L1185 1396 L1185 1416 L1240 1471 Z"/><path class="sv7" d="M1240 1451 L1185 1396 L1185 1416 L1240 1471 Z" /></g><g class="o"><path transform="translate(9,18)" class="S sf" d="M1555 1624 L1615 1564 L1615 1578 L1555 1638 Z"/><path class="f4" d="M1555 1624 L1615 1564 L1615 1578 L1555 1638 Z" /></g><g class="o"><path transform="translate(4,8)" class="S sfh" d="M1513 1307 L1688 1132 L1724 1132 L1549 1307 Z"/><path class="fh4" d="M1513 1307 L1688 1132 L1724 1132 L1549 1307 Z" /></g><g class="o"><path transform="translate(2,4)" class="S ssh" d="M1532 1022 L1369 859 L1399 859 L1562 1022 Z"/><path class="sh2" d="M1532 1022 L1369 859 L1399 859 L1562 1022 Z" /></g><g class="o"><path transform="translate(3,6)" class="S sfh" d="M1464 1952 L1567 1849 L1595 1849 L1492 1952 Z"/><path class="fh7" d="M1464 1952 L1567 1849 L1595 1849 L1492 1952 Z" /></g><g class="o"><path transform="translate(7,14)" class="S sfh" d="M1591 1479 L1407 1295 L1431 1295 L1615 1479 Z"/><path class="fh2" d="M1591 1479 L1407 1295 L1431 1295 L1615 1479 Z" /></g><g class="o"><path transform="translate(6,12)" class="S ssv" d="M1360 1891 L1463 1788 L1463 1826 L1360 1929 Z"/><path class="sv3" d="M1360 1891 L1463 1788 L1463 1826 L1360 1929 Z" /></g><g class="o"><path transform="translate(4,8)" class="S sfv" d="M1364 1882 L1599 1647 L1599 1655 L1364 1890 Z"/><path class="fv4" d="M1364 1882 L1599 1647 L1599 1655 L1364 1890 Z" /></g><g class="o"><path transform="translate(4,8)" class="S sfv" d="M966 1558 L786 1378 L786 1400 L966 1580 Z"/><path class="fv1" d="M966 1558 L786 1378 L786 1400 L966 1580 Z" /></g><g class="o"><path transform="translate(9,18)" class="S sfh" d="M1115 1984 L608 1477 L636 1477 L1143 1984 Z"/><path class="fh7" d="M1115 1984 L608 1477 L636 1477 L1143 1984 Z" /></g><g class="o"><path transform="translate(4,8)" class="S sf" d="M1089 1173 L1257 1005 L1257 1025 L1089 1193 Z"/><path class="f3" d="M1089 1173 L1257 1005 L1257 1025 L1089 1193 Z" /></g><g class="o"><path transform="translate(8,16)" class="S ssh" d="M983 1905 L1167 1721 L1193 1721 L1009 1905 Z"/><path class="sh2" d="M983 1905 L1167 1721 L1193 1721 L1009 1905 Z" /></g><g class="o"><path transform="translate(8,16)" class="S sf" d="M1440 1270 L1627 1083 L1627 1093 L1440 1280 Z"/><path class="f6" d="M1440 1270 L1627 1083 L1627 1093 L1440 1280 Z" /></g><g class="o"><path transform="translate(4,8)" class="S ss" d="M1414 1745 L946 1277 L982 1277 L1450 1745 Z"/><path class="s2" d="M1414 1745 L946 1277 L982 1277 L1450 1745 Z" /></g><g class="o"><path transform="translate(6,12)" class="S sfh" d="M1787 1436 L1989 1234 L2023 1234 L1821 1436 Z"/><path class="fh5" d="M1787 1436 L1989 1234 L2023 1234 L1821 1436 Z" /></g><g class="o"><path transform="translate(3,6)" class="S sfh" d="M1973 1226 L1774 1027 L1784 1027 L1983 1226 Z"/><path class="fh3" d="M1973 1226 L1774 1027 L1784 1027 L1983 1226 Z" /></g><g class="o"><path transform="translate(8,16)" class="S ssh" d="M1677 1963 L1374 1660 L1402 1660 L1705 1963 Z"/><path class="sh3" d="M1677 1963 L1374 1660 L1402 1660 L1705 1963 Z" /></g><g class="o"><path transform="translate(9,18)" class="S ssh" d="M1674 1091 L1221 638 L1229 638 L1682 1091 Z"/><path class="sh6" d="M1674 1091 L1221 638 L1229 638 L1682 1091 Z" /></g><g class="o"><path transform="translate(7,14)" class="S sfh" d="M1991 1675 L1838 1522 L1848 1522 L2001 1675 Z"/><path class="fh1" d="M1991 1675 L1838 1522 L1848 1522 L2001 1675 Z" /></g><g class="o"><path transform="translate(2,4)" class="S sfh" d="M1165 1709 L1409 1465 L1429 1465 L1185 1709 Z"/><path class="fh6" d="M1165 1709 L1409 1465 L1429 1465 L1185 1709 Z" /></g><g class="o"><path transform="translate(4,8)" class="S sfh" d="M1280 1109 L1148 977 L1166 977 L1298 1109 Z"/><path class="fh2" d="M1280 1109 L1148 977 L1166 977 L1298 1109 Z" /></g><g class="o"><path transform="translate(8,16)" class="S sfv" d="M971 1561 L1397 1135 L1397 1149 L971 1575 Z"/><path class="fv1" d="M971 1561 L1397 1135 L1397 1149 L971 1575 Z" /></g><g class="o"><path transform="translate(9,18)" class="S sfh" d="M1358 1004 L1796 566 L1806 566 L1368 1004 Z"/><path class="fh3" d="M1358 1004 L1796 566 L1806 566 L1368 1004 Z" /></g><g class="o"><path transform="translate(2,4)" class="S sf" d="M1157 1946 L1378 1725 L1398 1725 L1177 1946 Z"/><path class="f6" d="M1157 1946 L1378 1725 L1398 1725 L1177 1946 Z" /></g><g class="o"><path transform="translate(6,12)" class="S sf" d="M1910 1687 L1749 1526 L1749 1560 L1910 1721 Z"/><path class="f7" d="M1910 1687 L1749 1526 L1749 1560 L1910 1721 Z" /></g><g class="o"><path transform="translate(9,18)" class="S sf" d="M1514 1056 L1590 980 L1590 996 L1514 1072 Z"/><path class="f3" d="M1514 1056 L1590 980 L1590 996 L1514 1072 Z" /></g><g class="o"><path transform="translate(4,8)" class="S ssh" d="M1732 985 L1629 882 L1653 882 L1756 985 Z"/><path class="sh2" d="M1732 985 L1629 882 L1653 882 L1756 985 Z" /></g><g class="o"><path transform="translate(9,18)" class="S ss" d="M1858 1050 L2079 829 L2105 829 L1884 1050 Z"/><path class="s2" d="M1858 1050 L2079 829 L2105 829 L1884 1050 Z" /></g><g class="o"><path transform="translate(4,8)" class="S sfv" d="M1328 1393 L1460 1261 L1460 1291 L1328 1423 Z"/><path class="fv7" d="M1328 1393 L1460 1261 L1460 1291 L1328 1423 Z" /></g><g class="o"><path transform="translate(8,16)" class="S ss" d="M1919 1919 L1738 1738 L1738 1770 L1919 1951 Z"/><path class="s2" d="M1919 1919 L1738 1738 L1738 1770 L1919 1951 Z" /></g><g class="o"><path transform="translate(5,10)" class="S sfv" d="M1517 1128 L1046 657 L1046 679 L1517 1150 Z"/><path class="fv4" d="M1517 1128 L1046 657 L1046 679 L1517 1150 Z" /></g><g class="o"><path transform="translate(7,14)" class="S sf" d="M1510 1875 L1597 1788 L1623 1788 L1536 1875 Z"/><path class="f3" d="M1510 1875 L1597 1788 L1623 1788 L1536 1875 Z" /></g><g class="o"><path transform="translate(4,8)" class="S sf" d="M1427 1301 L1643 1085 L1643 1093 L1427 1309 Z"/><path class="f2" d="M1427 1301 L1643 1085 L1643 1093 L1427 1309 Z" /></g><g class="o"><path transform="translate(7,14)" class="S sfh" d="M1770 1671 L1876 1565 L1892 1565 L1786 1671 Z"/><path class="fh5" d="M1770 1671 L1876 1565 L1892 1565 L1786 1671 Z" /></g><g class="o"><path transform="translate(6,12)" class="S ssh" d="M1250 1880 L1112 1742 L1124 1742 L1262 1880 Z"/><path class="sh5" d="M1250 1880 L1112 1742 L1124 1742 L1262 1880 Z" /></g><g class="o"><path transform="translate(6,12)" class="S ss" d="M1711 1911 L1534 1734 L1534 1750 L1711 1927 Z"/><path class="s2" d="M1711 1911 L1534 1734 L1534 1750 L1711 1927 Z" /></g><g class="o"><path transform="translate(9,18)" class="S ss" d="M1902 1977 L2110 1769 L2110 1803 L1902 2011 Z"/><path class="s1" d="M1902 1977 L2110 1769 L2110 1803 L1902 2011 Z" /></g><g class="o"><path transform="translate(3,6)" class="S sfv" d="M1587 1629 L1197 1239 L1197 1261 L1587 1651 Z"/><path class="fv3" d="M1587 1629 L1197 1239 L1197 1261 L1587 1651 Z" /></g><g class="o"><path transform="translate(9,18)" class="S sfv" d="M1269 1382 L1413 1238 L1413 1274 L1269 1418 Z"/><path class="fv3" d="M1269 1382 L1413 1238 L1413 1274 L1269 1418 Z" /></g><g class="o"><path transform="translate(8,16)" class="S sfh" d="M1414 1877 L1277 1740 L1297 1740 L1434 1877 Z"/><path class="fh6" d="M1414 1877 L1277 1740 L1297 1740 L1434 1877 Z" /></g><g class="o"><path transform="translate(3,6)" class="S ssv" d="M1304 1085 L1398 991 L1398 1001 L1304 1095 Z"/><path class="sv7" d="M1304 1085 L1398 991 L1398 1001 L1304 1095 Z" /></g><g class="o"><path transform="translate(4,8)" class="S sfh" d="M1917 1422 L1404 909 L1428 909 L1941 1422 Z"/><path class="fh5" d="M1917 1422 L1404 909 L1428 909 L1941 1422 Z" /></g><g class="o"><path transform="translate(6,12)" class="S ssv" d="M1173 1299 L621 747 L621 763 L1173 1315 Z"/><path class="sv6" d="M1173 1299 L621 747 L621 763 L1173 1315 Z" /></g><g class="o"><path transform="translate(5,10)" class="S sfh" d="M1713 1980 L1509 1776 L1519 1776 L1723 1980 Z"/><path class="fh3" d="M1713 1980 L1509 1776 L1519 1776 L1723 1980 Z" /></g><g class="o"><path transform="translate(9,18)" class="S sf" d="M1793 1957 L1714 1878 L1714 1888 L1793 1967 Z"/><path class="f1" d="M1793 1957 L1714 1878 L1714 1888 L1793 1967 Z" /></g><g class="o"><path transform="translate(8,16)" class="S sf" d="M1495 1850 L1915 1430 L1927 1430 L1507 1850 Z"/><path class="f7" d="M1495 1850 L1915 1430 L1927 1430 L1507 1850 Z" /></g><g class="o"><path transform="translate(8,16)" class="S sfv" d="M1067 1394 L1238 1223 L1238 1233 L1067 1404 Z"/><path class="fv5" d="M1067 1394 L1238 1223 L1238 1233 L1067 1404 Z" /></g><g class="o"><path transform="translate(7,14)" class="S sfv" d="M1731 1053 L1071 393 L1071 417 L1731 1077 Z"/><path class="fv2" d="M1731 1053 L1071 393 L1071 417 L1731 1077 Z" /></g><g class="o"><path transform="translate(5,10)" class="S sfv" d="M1759 1475 L2001 1233 L2001 1261 L1759 1503 Z"/><path class="fv6" d="M1759 1475 L2001 1233 L2001 1261 L1759 1503 Z" /></g><g class="o"><path transform="translate(4,8)" class="S sfv" d="M1460 1075 L1270 885 L1270 903 L1460 1093 Z"/><path class="fv5" d="M1460 1075 L1270 885 L1270 903 L1460 1093 Z" /></g><g class="o"><path transform="translate(6,12)" class="S sfh" d="M1050 1057 L1128 979 L1136 979 L1058 1057 Z"/><path class="fh5" d="M1050 1057 L1128 979 L1136 979 L1058 1057 Z" /></g><g class="o"><path transform="translate(9,18)" class="S ssh" d="M1015 1701 L1166 1550 L1190 1550 L1039 1701 Z"/><path class="sh1" d="M1015 1701 L1166 1550 L1190 1550 L1039 1701 Z" /></g><g class="o"><path transform="translate(8,16)" class="S sfv" d="M1981 1788 L2215 1554 L2215 1590 L1981 1824 Z"/><path class="fv5" d="M1981 1788 L2215 1554 L2215 1590 L1981 1824 Z" /></g><g class="o"><path transform="translate(3,6)" class="S sfh" d="M1378 1244 L1464 1158 L1484 1158 L1398 1244 Z"/><path class="fh4" d="M1378 1244 L1464 1158 L1484 1158 L1398 1244 Z" /></g><g class="o"><path transform="translate(4,8)" class="S sf" d="M1001 1679 L816 1494 L832 1494 L1017 1679 Z"/><path class="f3" d="M1001 1679 L816 1494 L832 1494 L1017 1679 Z" /></g><g class="o"><path transform="translate(9,18)" class="S sfh" d="M1774 1410 L2014 1170 L2052 1170 L1812 1410 Z"/><path class="fh5" d="M1774 1410 L2014 1170 L2052 1170 L1812 1410 Z" /></g><g class="o"><path transform="translate(8,16)" class="S sfh" d="M1691 1264 L1812 1143 L1842 1143 L1721 1264 Z"/><path class="fh2" d="M1691 1264 L1812 1143 L1842 1143 L1721 1264 Z" /></g><g class="o"><path transform="translate(6,12)" class="S ss" d="M1358 997 L1420 935 L1446 935 L1384 997 Z"/><path class="s2" d="M1358 997 L1420 935 L1446 935 L1384 997 Z" /></g><g class="o"><path transform="translate(6,12)" class="S sfv" d="M1976 1105 L1901 1030 L1901 1060 L1976 1135 Z"/><path class="fv6" d="M1976 1105 L1901 1030 L1901 1060 L1976 1135 Z" /></g><g class="o"><path transform="translate(2,4)" class="S ssv" d="M1110 1739 L1228 1621 L1228 1629 L1110 1747 Z"/><path class="sv1" d="M1110 1739 L1228 1621 L1228 1629 L1110 1747 Z" /></g><g class="o"><path transform="translate(5,10)" class="S sfh" d="M1174 977 L1495 656 L1513 656 L1192 977 Z"/><path class="fh7" d="M1174 977 L1495 656 L1513 656 L1192 977 Z" /></g><g class="o"><path transform="translate(6,12)" class="S sf" d="M953 1593 L764 1404 L784 1404 L973 1593 Z"/><path class="f1" d="M953 1593 L764 1404 L784 1404 L973 1593 Z" /></g><g class="o"><path transform="translate(8,16)" class="S sfv" d="M1652 1285 L1889 1048 L1889 1086 L1652 1323 Z"/><path class="fv6" d="M1652 1285 L1889 1048 L1889 1086 L1652 1323 Z" /></g><g class="o"><path transform="translate(3,6)" class="S ssv" d="M1148 1845 L1329 1664 L1329 1702 L1148 1883 Z"/><path class="sv5" d="M1148 1845 L1329 1664 L1329 1702 L1148 1883 Z" /></g><g class="o"><path transform="translate(5,10)" class="S sfh" d="M1132 1051 L1209 974 L1245 974 L1168 1051 Z"/><path class="fh5" d="M1132 1051 L1209 974 L1245 974 L1168 1051 Z" /></g><g class="o"><path transform="translate(5,10)" class="S sfv" d="M1534 1713 L1369 1548 L1369 1574 L1534 1739 Z"/><path class="fv2" d="M1534 1713 L1369 1548 L1369 1574 L1534 1739 Z" /></g><g class="o"><path transform="translate(6,12)" class="S sfv" d="M1703 1015 L1892 826 L1892 860 L1703 1049 Z"/><path class="fv4" d="M1703 1015 L1892 826 L1892 860 L1703 1049 Z" /></g><g class="o"><path transform="translate(4,8)" class="S ssh" d="M993 1547 L1206 1334 L1236 1334 L1023 1547 Z"/><path class="sh6" d="M993 1547 L1206 1334 L1236 1334 L1023 1547 Z" /></g><g class="o"><path transform="translate(8,16)" class="S sf" d="M1674 1365 L1941 1098 L1941 1108 L1674 1375 Z"/><path class="f2" d="M1674 1365 L1941 1098 L1941 1108 L1674 1375 Z" /></g><g class="o"><path transform="translate(2,4)" class="S ssh" d="M1087 1275 L670 858 L696 858 L1113 1275 Z"/><path class="sh5" d="M1087 1275 L670 858 L696 858 L1113 1275 Z" /></g><g class="o"><path transform="translate(9,18)" class="S sfh" d="M1544 1007 L1322 785 L1330 785 L1552 1007 Z"/><path class="fh2" d="M1544 1007 L1322 785 L1330 785 L1552 1007 Z" /></g><g class="o"><path transform="translate(7,14)" class="S sfh" d="M1079 978 L1020 919 L1048 919 L1107 978 Z"/><path class="fh5" d="M1079 978 L1020 919 L1048 919 L1107 978 Z" /></g><g class="o"><path transform="translate(3,6)" class="S sfh" d="M1032 1350 L826 1144 L848 1144 L1054 1350 Z"/><path class="fh5" d="M1032 1350 L826 1144 L848 1144 L1054 1350 Z" /></g><g class="o"><path transform="translate(5,10)" class="S sfv" d="M1064 1577 L882 1395 L882 1427 L1064 1609 Z"/><path class="fv7" d="M1064 1577 L882 1395 L882 1427 L1064 1609 Z" /></g><g class="o"><path transform="translate(3,6)" class="S sf" d="M1078 965 L830 717 L848 717 L1096 965 Z"/><path class="f2" d="M1078 965 L830 717 L848 717 L1096 965 Z" /></g><g class="o"><path transform="translate(3,6)" class="S ss" d="M1000 1579 L1189 1390 L1189 1408 L1000 1597 Z"/><path class="s2" d="M1000 1579 L1189 1390 L1189 1408 L1000 1597 Z" /></g><g class="o"><path transform="translate(8,16)" class="S sfh" d="M1852 1401 L1670 1219 L1678 1219 L1860 1401 Z"/><path class="fh7" d="M1852 1401 L1670 1219 L1678 1219 L1860 1401 Z" /></g><g class="o"><path transform="translate(7,14)" class="S sfh" d="M1807 1399 L1913 1293 L1945 1293 L1839 1399 Z"/><path class="fh4" d="M1807 1399 L1913 1293 L1945 1293 L1839 1399 Z" /></g><g class="o"><path transform="translate(6,12)" class="S sf" d="M1075 1143 L1149 1069 L1175 1069 L1101 1143 Z"/><path class="f4" d="M1075 1143 L1149 1069 L1175 1069 L1101 1143 Z" /></g><g class="o"><path transform="translate(7,14)" class="S sfv" d="M1032 1005 L1113 924 L1113 960 L1032 1041 Z"/><path class="fv3" d="M1032 1005 L1113 924 L1113 960 L1032 1041 Z" /></g><g class="o"><path transform="translate(6,12)" class="S sfv" d="M1055 1895 L815 1655 L815 1667 L1055 1907 Z"/><path class="fv4" d="M1055 1895 L815 1655 L815 1667 L1055 1907 Z" /></g><g class="o"><path transform="translate(6,12)" class="S sfh" d="M1514 1210 L1656 1068 L1674 1068 L1532 1210 Z"/><path class="fh7" d="M1514 1210 L1656 1068 L1674 1068 L1532 1210 Z" /></g><g class="o"><path transform="translate(6,12)" class="S sfv" d="M1831 1852 L1981 1702 L1981 1734 L1831 1884 Z"/><path class="fv7" d="M1831 1852 L1981 1702 L1981 1734 L1831 1884 Z" /></g><g class="o"><path transform="translate(9,18)" class="S sfh" d="M1369 1078 L1575 872 L1585 872 L1379 1078 Z"/><path class="fh2" d="M1369 1078 L1575 872 L1585 872 L1379 1078 Z" /></g><g class="o"><path transform="translate(8,16)" class="S ssv" d="M1547 1950 L1320 1723 L1320 1733 L1547 1960 Z"/><path class="sv7" d="M1547 1950 L1320 1723 L1320 1733 L1547 1960 Z" /></g><g class="o"><path transform="translate(9,18)" class="S sfv" d="M1718 1624 L1385 1291 L1385 1299 L1718 1632 Z"/><path class="fv6" d="M1718 1624 L1385 1291 L1385 1299 L1718 1632 Z" /></g><g class="o"><path transform="translate(5,10)" class="S ssv" d="M1992 1059 L1861 928 L1861 958 L1992 1089 Z"/><path class="sv1" d="M1992 1059 L1861 928 L1861 958 L1992 1089 Z" /></g><g class="o"><path transform="translate(4,8)" class="S sfh" d="M1643 1829 L1448 1634 L1466 1634 L1661 1829 Z"/><path class="fh3" d="M1643 1829 L1448 1634 L1466 1634 L1661 1829 Z" /></g><g class="o"><path transform="translate(2,4)" class="S sf" d="M1533 1684 L930 1081 L954 1081 L1557 1684 Z"/><path class="f7" d="M1533 1684 L930 1081 L954 1081 L1557 1684 Z" /></g><g class="o"><path transform="translate(7,14)" class="S sfv" d="M1018 944 L894 820 L894 842 L1018 966 Z"/><path class="fv3" d="M1018 944 L894 820 L894 842 L1018 966 Z" /></g><g class="o"><path transform="translate(3,6)" class="S sfh" d="M1626 971 L1452 797 L1490 797 L1664 971 Z"/><path class="fh2" d="M1626 971 L1452 797 L1490 797 L1664 971 Z" /></g><g class="o"><path transform="translate(5,10)" class="S sfv" d="M1446 1043 L1026 623 L1026 633 L1446 1053 Z"/><path class="fv2" d="M1446 1043 L1026 623 L1026 633 L1446 1053 Z" /></g><g class="o"><path transform="translate(2,4)" class="S sfv" d="M1507 1522 L1667 1362 L1667 1374 L1507 1534 Z"/><path class="fv3" d="M1507 1522 L1667 1362 L1667 1374 L1507 1534 Z" /></g><g class="o"><path transform="translate(2,4)" class="S sfv" d="M961 1877 L628 1544 L628 1574 L961 1907 Z"/><path class="fv1" d="M961 1877 L628 1544 L628 1574 L961 1907 Z" /></g><g class="o"><path transform="translate(4,8)" class="S sfv" d="M1563 1049 L1418 904 L1418 916 L1563 1061 Z"/><path class="fv6" d="M1563 1049 L1418 904 L1418 916 L1563 1061 Z" /></g><g class="o"><path transform="translate(3,6)" class="S ss" d="M1304 1957 L1125 1778 L1125 1798 L1304 1977 Z"/><path class="s4" d="M1304 1957 L1125 1778 L1125 1798 L1304 1977 Z" /></g><g class="o"><path transform="translate(3,6)" class="S ss" d="M1865 954 L2001 818 L2001 844 L1865 980 Z"/><path class="s5" d="M1865 954 L2001 818 L2001 844 L1865 980 Z" /></g><g class="o"><path transform="translate(4,8)" class="S sfv" d="M1421 1363 L1339 1281 L1339 1293 L1421 1375 Z"/><path class="fv3" d="M1421 1363 L1339 1281 L1339 1293 L1421 1375 Z" /></g><g class="o"><path transform="translate(4,8)" class="S sf" d="M1040 1657 L1355 1342 L1355 1354 L1040 1669 Z"/><path class="f7" d="M1040 1657 L1355 1342 L1355 1354 L1040 1669 Z" /></g><g class="o"><path transform="translate(4,8)" class="S ssv" d="M2033 1604 L1830 1401 L1830 1417 L2033 1620 Z"/><path class="sv4" d="M2033 1604 L1830 1401 L1830 1417 L2033 1620 Z" /></g><g class="o"><path transform="translate(7,14)" class="S ssv" d="M1807 1577 L1879 1505 L1879 1517 L1807 1589 Z"/><path class="sv3" d="M1807 1577 L1879 1505 L1879 1517 L1807 1589 Z" /></g><g class="o"><path transform="translate(9,18)" class="S sfh" d="M1357 1607 L1234 1484 L1250 1484 L1373 1607 Z"/><path class="fh6" d="M1357 1607 L1234 1484 L1250 1484 L1373 1607 Z" /></g><g class="o"><path transform="translate(6,12)" class="S sfv" d="M1798 1507 L1917 1388 L1917 1402 L1798 1521 Z"/><path class="fv2" d="M1798 1507 L1917 1388 L1917 1402 L1798 1521 Z" /></g><g class="o"><path transform="translate(3,6)" class="S sfv" d="M1960 1881 L1774 1695 L1774 1725 L1960 1911 Z"/><path class="fv2" d="M1960 1881 L1774 1695 L1774 1725 L1960 1911 Z" /></g><g class="o"><path transform="translate(8,16)" class="S ss" d="M1849 1148 L1617 916 L1617 932 L1849 1164 Z"/><path class="s3" d="M1849 1148 L1617 916 L1617 932 L1849 1164 Z" /></g><g class="o"><path transform="translate(9,18)" class="S sfv" d="M1363 1190 L1576 977 L1576 1013 L1363 1226 Z"/><path class="fv2" d="M1363 1190 L1576 977 L1576 1013 L1363 1226 Z" /></g><g class="o"><path transform="translate(7,14)" class="S sfh" d="M1277 1571 L1350 1498 L1378 1498 L1305 1571 Z"/><path class="fh4" d="M1277 1571 L1350 1498 L1378 1498 L1305 1571 Z" /></g><g class="o"><path transform="translate(9,18)" class="S ssv" d="M1570 1943 L1447 1820 L1447 1828 L1570 1951 Z"/><path class="sv7" d="M1570 1943 L1447 1820 L1447 1828 L1570 1951 Z" /></g><g class="o"><path transform="translate(5,10)" class="S sfv" d="M1382 1837 L902 1357 L902 1365 L1382 1845 Z"/><path class="fv4" d="M1382 1837 L902 1357 L902 1365 L1382 1845 Z" /></g><g class="o"><path transform="translate(2,4)" class="S sfh" d="M1386 1662 L1583 1465 L1617 1465 L1420 1662 Z"/><path class="fh7" d="M1386 1662 L1583 1465 L1617 1465 L1420 1662 Z" /></g><g class="o"><path transform="translate(9,18)" class="S sfh" d="M1191 1716 L1040 1565 L1066 1565 L1217 1716 Z"/><path class="fh4" d="M1191 1716 L1040 1565 L1066 1565 L1217 1716 Z" /></g><g class="o"><path transform="translate(6,12)" class="S sfv" d="M1552 1010 L1470 928 L1470 956 L1552 1038 Z"/><path class="fv7" d="M1552 1010 L1470 928 L1470 956 L1552 1038 Z" /></g><g class="o"><path transform="translate(2,4)" class="S sfh" d="M1971 1714 L2041 1644 L2069 1644 L1999 1714 Z"/><path class="fh2" d="M1971 1714 L2041 1644 L2069 1644 L1999 1714 Z" /></g><g class="o"><path transform="translate(4,8)" class="S sf" d="M1458 1581 L1143 1266 L1165 1266 L1480 1581 Z"/><path class="f1" d="M1458 1581 L1143 1266 L1165 1266 L1480 1581 Z" /></g></g><use href="#slashes" transform-origin="1500 1500" transform="rotate(180) scale(2)"/></g><rect x="1080" y="1080" width="840" height="840" stroke-width="160" class="o s6" /><use href="#slashes" transform-origin="1500 1500" transform="scale(.3)"/><use href="#slashes" transform-origin="1500 1500" transform="rotate(180) scale(.7)"/></svg>