<svg xmlns="http://www.w3.org/2000/svg" viewBox="750 750 1500 1500"><style>/*<![CDATA[*/svg{background:rgb(55,63,81);max-width:100vw;max-height:100vh}path{stroke-width:4}.o{opacity:.75}.S{opacity:.4}.sf{stroke:none;fill:black}.sfh{stroke:none;fill:url(#hs)}.sfv{stroke:none;fill:url(#vs)}.ss{stroke:black;fill:none}.ssh{stroke:url(#hs);fill:none}.ssv{stroke:url(#vs);fill:none}.s1{fill:none;stroke:rgb(27,27,30)}.f1{stroke:none;fill:rgb(27,27,30)}.sh1{fill:none;stroke:url(#h1)}.fh1{stroke:none;fill:url(#h1)}.sv1{fill:none;stroke:url(#v1)}.fv1{stroke:none;fill:url(#v1)}.s2{fill:none;stroke:rgb(34,34,34)}.f2{stroke:none;fill:rgb(34,34,34)}.sh2{fill:none;stroke:url(#h2)}.fh2{stroke:none;fill:url(#h2)}.sv2{fill:none;stroke:url(#v2)}.fv2{stroke:none;fill:url(#v2)}.s3{fill:none;stroke:rgb(169,188,208)}.f3{stroke:none;fill:rgb(169,188,208)}.sh3{fill:none;stroke:url(#h3)}.fh3{stroke:none;fill:url(#h3)}.sv3{fill:none;stroke:url(#v3)}.fv3{stroke:none;fill:url(#v3)}.s4{fill:none;stroke:rgb(216,219,226)}.f4{stroke:none;fill:rgb(216,219,226)}.sh4{fill:none;stroke:url(#h4)}.fh4{stroke:none;fill:url(#h4)}.sv4{fill:none;stroke:url(#v4)}.fv4{stroke:none;fill:url(#v4)}.s5{fill:none;stroke:rgb(88,164,176)}.f5{stroke:none;fill:rgb(88,164,176)}.sh5{fill:none;stroke:url(#h5)}.fh5{stroke:none;fill:url(#h5)}.sv5{fill:none;stroke:url(#v5)}.fv5{stroke:none;fill:url(#v5)}.s6{fill:none;stroke:rgb(255,255,255)}.f6{stroke:none;fill:rgb(255,255,255)}.sh6{fill:none;stroke:url(#h6)}.fh6{stroke:none;fill:url(#h6)}.sv6{fill:none;stroke:url(#v6)}.fv6{stroke:none;fill:url(#v6)}.s7{fill:none;stroke:rgb(255,0,0)}.f7{stroke:none;fill:rgb(255,0,0)}.sh7{fill:none;stroke:url(#h7)}.fh7{stroke:none;fill:url(#h7)}.sv7{fill:none;stroke:url(#v7)}.fv7{stroke:none;fill:url(#v7)}/*]]>*/</style><defs><linearGradient gradientTransform="rotate(90)" id="hs"><stop offset="20%" stop-color="#000" /><stop offset="95%" stop-color="rgba(0, 0, 0, 0)" /></linearGradient><linearGradient id="vs"><stop offset="20%" stop-color="#000" /><stop offset="95%" stop-color="rgba(0, 0, 0, 0)" /></linearGradient><linearGradient gradientTransform="rotate(90)" id="h1"><stop offset="20%" stop-color="rgba(27,27,30,1)" /><stop offset="95%" stop-color="rgba(27,27,30,0)" /></linearGradient><linearGradient id="v1"><stop offset="20%" stop-color="rgba(27,27,30,1)" /><stop offset="95%" stop-color="rgba(27,27,30,0)" /></linearGradient><linearGradient gradientTransform="rotate(90)" id="h2"><stop offset="20%" stop-color="rgba(34,34,34,1)" /><stop offset="95%" stop-color="rgba(34,34,34,0)" /></linearGradient><linearGradient id="v2"><stop offset="20%" stop-color="rgba(34,34,34,1)" /><stop offset="95%" stop-color="rgba(34,34,34,0)" /></linearGradient><linearGradient gradientTransform="rotate(90)" id="h3"><stop offset="20%" stop-color="rgba(169,188,208,1)" /><stop offset="95%" stop-color="rgba(169,188,208,0)" /></linearGradient><linearGradient id="v3"><stop offset="20%" stop-color="rgba(169,188,208,1)" /><stop offset="95%" stop-color="rgba(169,188,208,0)" /></linearGradient><linearGradient gradientTransform="rotate(90)" id="h4"><stop offset="20%" stop-color="rgba(216,219,226,1)" /><stop offset="95%" stop-color="rgba(216,219,226,0)" /></linearGradient><linearGradient id="v4"><stop offset="20%" stop-color="rgba(216,219,226,1)" /><stop offset="95%" stop-color="rgba(216,219,226,0)" /></linearGradient><linearGradient gradientTransform="rotate(90)" id="h5"><stop offset="20%" stop-color="rgba(88,164,176,1)" /><stop offset="95%" stop-color="rgba(88,164,176,0)" /></linearGradient><linearGradient id="v5"><stop offset="20%" stop-color="rgba(88,164,176,1)" /><stop offset="95%" stop-color="rgba(88,164,176,0)" /></linearGradient><linearGradient gradientTransform="rotate(90)" id="h6"><stop offset="20%" stop-color="rgba(255,255,255,1)" /><stop offset="95%" stop-color="rgba(255,255,255,0)" /></linearGradient><linearGradient id="v6"><stop offset="20%" stop-color="rgba(255,255,255,1)" /><stop offset="95%" stop-color="rgba(255,255,255,0)" /></linearGradient><linearGradient gradientTransform="rotate(90)" id="h7"><stop offset="20%" stop-color="rgba(255,0,0,1)" /><stop offset="95%" stop-color="rgba(255,0,0,0)" /></linearGradient><linearGradient id="v7"><stop offset="20%" stop-color="rgba(255,0,0,1)" /><stop offset="95%" stop-color="rgba(255,0,0,0)" /></linearGradient></defs><g transform-origin="1500 1500" transform="scale(2)" opacity=".8"><g id="slashes"><g class="o"><path transform="translate(4,8)" class="S sfv" d="M969 1961 L1626 1304 L1626 1330 L969 1987 Z"/><path class="fv1" d="M969 1961 L1626 1304 L1626 1330 L969 1987 Z" /></g><g class="o"><path transform="translate(2,4)" class="S ssv" d="M1523 1461 L2177 2115 L2177 2123 L1523 1469 Z"/><path class="sv6" d="M1523 1461 L2177 2115 L2177 2123 L1523 1469 Z" /></g><g class="o"><path transform="translate(9,18)" class="S ss" d="M1991 1903 L1544 2350 L1544 2378 L1991 1931 Z"/><path class="s1" d="M1991 1903 L1544 2350 L1544 2378 L1991 1931 Z" /></g><g class="o"><path transform="translate(5,10)" class="S sfv" d="M1731 1370 L1936 1165 L1936 1193 L1731 1398 Z"/><path class="fv3" d="M1731 1370 L1936 1165 L1936 1193 L1731 1398 Z" /></g><g class="o"><path transform="translate(9,18)" class="S sfv" d="M1254 1485 L1116 1347 L1116 1377 L1254 1515 Z"/><path class="fv4" d="M1254 1485 L1116 1347 L1116 1377 L1254 1515 Z" /></g><g class="o"><path transform="translate(8,16)" class="S sfv" d="M966 1574 L771 1769 L771 1777 L966 1582 Z"/><path class="fv6" d="M966 1574 L771 1769 L771 1777 L966 1582 Z" /></g><g class="o"><path transform="translate(6,12)" class="S sfh" d="M1758 1241 L2439 1922 L2447 1922 L1766 1241 Z"/><path class="fh3" d="M1758 1241 L2439 1922 L2447 1922 L1766 1241 Z" /></g><g class="o"><path transform="translate(5,10)" class="S ssv" d="M1480 1829 L1350 1699 L1350 1711 L1480 1841 Z"/><path class="sv5" d="M1480 1829 L1350 1699 L1350 1711 L1480 1841 Z" /></g><g class="o"><path transform="translate(7,14)" class="S sfv" d="M1388 1134 L1721 1467 L1721 1493 L1388 1160 Z"/><path class="fv2" d="M1388 1134 L1721 1467 L1721 1493 L1388 1160 Z" /></g><g class="o"><path transform="translate(5,10)" class="S ssv" d="M1853 1120 L1412 679 L1412 693 L1853 1134 Z"/><path class="sv4" d="M1853 1120 L1412 679 L1412 693 L1853 1134 Z" /></g><g class="o"><path transform="translate(8,16)" class="S ssv" d="M1167 1339 L966 1138 L966 1162 L1167 1363 Z"/><path class="sv3" d="M1167 1339 L966 1138 L966 1162 L1167 1363 Z" /></g><g class="o"><path transform="translate(7,14)" class="S sfv" d="M1546 1963 L1338 1755 L1338 1785 L1546 1993 Z"/><path class="fv7" d="M1546 1963 L1338 1755 L1338 1785 L1546 1993 Z" /></g><g class="o"><path transform="translate(8,16)" class="S sfh" d="M1141 1408 L715 982 L737 982 L1163 1408 Z"/><path class="fh1" d="M1141 1408 L715 982 L737 982 L1163 1408 Z" /></g><g class="o"><path transform="translate(5,10)" class="S sfh" d="M1965 1920 L2628 2583 L2652 2583 L1989 1920 Z"/><path class="fh2" d="M1965 1920 L2628 2583 L2652 2583 L1989 1920 Z" /></g><g class="o"><path transform="translate(6,12)" class="S sfv" d="M1837 1825 L1749 1913 L1749 1931 L1837 1843 Z"/><path class="fv2" d="M1837 1825 L1749 1913 L1749 1931 L1837 1843 Z" /></g><g class="o"><path transform="translate(9,18)" class="S sfv" d="M1838 1323 L2008 1153 L2008 1183 L1838 1353 Z"/><path class="fv7" d="M1838 1323 L2008 1153 L2008 1183 L1838 1353 Z" /></g><g class="o"><path transform="translate(9,18)" class="S sfh" d="M1834 1940 L1644 1750 L1666 1750 L1856 1940 Z"/><path class="fh4" d="M1834 1940 L1644 1750 L1666 1750 L1856 1940 Z" /></g><g class="o"><path transform="translate(2,4)" class="S sfv" d="M1282 1156 L1516 1390 L1516 1416 L1282 1182 Z"/><path class="fv5" d="M1282 1156 L1516 1390 L1516 1416 L1282 1182 Z" /></g><g class="o"><path transform="translate(2,4)" class="S sfh" d="M1324 1029 L1132 837 L1164 837 L1356 1029 Z"/><path class="fh1" d="M1324 1029 L1132 837 L1164 837 L1356 1029 Z" /></g><g class="o"><path transform="translate(9,18)" class="S sfv" d="M1773 1494 L1868 1399 L1868 1409 L1773 1504 Z"/><path class="fv5" d="M1773 1494 L1868 1399 L1868 1409 L1773 1504 Z" /></g><g class="o"><path transform="translate(3,6)" class="S sfv" d="M1781 1757 L1695 1843 L1695 1861 L1781 1775 Z"/><path class="fv4" d="M1781 1757 L1695 1843 L1695 1861 L1781 1775 Z" /></g><g class="o"><path transform="translate(3,6)" class="S ssh" d="M1025 1208 L869 1364 L885 1364 L1041 1208 Z"/><path class="sh7" d="M1025 1208 L869 1364 L885 1364 L1041 1208 Z" /></g><g class="o"><path transform="translate(8,16)" class="S ss" d="M1797 1632 L1604 1825 L1604 1837 L1797 1644 Z"/><path class="s7" d="M1797 1632 L1604 1825 L1604 1837 L1797 1644 Z" /></g><g class="o"><path transform="translate(8,16)" class="S sfv" d="M1200 1477 L1279 1398 L1279 1436 L1200 1515 Z"/><path class="fv2" d="M1200 1477 L1279 1398 L1279 1436 L1200 1515 Z" /></g><g class="o"><path transform="translate(8,16)" class="S sfv" d="M1517 1577 L1964 1130 L1964 1164 L1517 1611 Z"/><path class="fv3" d="M1517 1577 L1964 1130 L1964 1164 L1517 1611 Z" /></g><g class="o"><path transform="translate(2,4)" class="S sf" d="M1947 1726 L2583 2362 L2583 2386 L1947 1750 Z"/><path class="f2" d="M1947 1726 L2583 2362 L2583 2386 L1947 1750 Z" /></g><g class="o"><path transform="translate(8,16)" class="S sfh" d="M1741 1871 L1981 2111 L2019 2111 L1779 1871 Z"/><path class="fh6" d="M1741 1871 L1981 2111 L2019 2111 L1779 1871 Z" /></g><g class="o"><path transform="translate(6,12)" class="S sfv" d="M1161 1583 L1326 1418 L1326 1456 L1161 1621 Z"/><path class="fv4" d="M1161 1583 L1326 1418 L1326 1456 L1161 1621 Z" /></g><g class="o"><path transform="translate(3,6)" class="S sfv" d="M1247 1932 L1577 2262 L1577 2296 L1247 1966 Z"/><path class="fv7" d="M1247 1932 L1577 2262 L1577 2296 L1247 1966 Z" /></g><g class="o"><path transform="translate(8,16)" class="S sfh" d="M1992 1635 L2228 1871 L2262 1871 L2026 1635 Z"/><path class="fh5" d="M1992 1635 L2228 1871 L2262 1871 L2026 1635 Z" /></g><g class="o"><path transform="translate(9,18)" class="S sfv" d="M979 1775 L1282 1472 L1282 1498 L979 1801 Z"/><path class="fv1" d="M979 1775 L1282 1472 L1282 1498 L979 1801 Z" /></g><g class="o"><path transform="translate(8,16)" class="S sfv" d="M1472 1445 L1982 935 L1982 965 L1472 1475 Z"/><path class="fv5" d="M1472 1445 L1982 935 L1982 965 L1472 1475 Z" /></g><g class="o"><path transform="translate(9,18)" class="S sfh" d="M1238 2004 L1733 2499 L1745 2499 L1250 2004 Z"/><path class="fh6" d="M1238 2004 L1733 2499 L1745 2499 L1250 2004 Z" /></g><g class="o"><path transform="translate(8,16)" class="S sf" d="M1576 1170 L1810 936 L1824 936 L1590 1170 Z"/><path class="f1" d="M1576 1170 L1810 936 L1824 936 L1590 1170 Z" /></g><g class="o"><path transform="translate(3,6)" class="S sf" d="M1385 1314 L1628 1071 L1640 1071 L1397 1314 Z"/><path class="f7" d="M1385 1314 L1628 1071 L1640 1071 L1397 1314 Z" /></g><g class="o"><path transform="translate(9,18)" class="S sfv" d="M1827 1145 L1491 1481 L1491 1509 L1827 1173 Z"/><path class="fv3" d="M1827 1145 L1491 1481 L1491 1509 L1827 1173 Z" /></g><g class="o"><path transform="translate(5,10)" class="S sfh" d="M1432 1801 L2002 1231 L2036 1231 L1466 1801 Z"/><path class="fh3" d="M1432 1801 L2002 1231 L2036 1231 L1466 1801 Z" /></g><g class="o"><path transform="translate(8,16)" class="S sfh" d="M1059 2018 L525 2552 L537 2552 L1071 2018 Z"/><path class="fh4" d="M1059 2018 L525 2552 L537 2552 L1071 2018 Z" /></g><g class="o"><path transform="translate(4,8)" class="S sf" d="M1542 1881 L1716 1707 L1746 1707 L1572 1881 Z"/><path class="f6" d="M1542 1881 L1716 1707 L1746 1707 L1572 1881 Z" /></g><g class="o"><path transform="translate(2,4)" class="S sfv" d="M1714 1586 L1488 1812 L1488 1834 L1714 1608 Z"/><path class="fv1" d="M1714 1586 L1488 1812 L1488 1834 L1714 1608 Z" /></g><g class="o"><path transform="translate(3,6)" class="S sfh" d="M1324 2045 L1264 2105 L1276 2105 L1336 2045 Z"/><path class="fh5" d="M1324 2045 L1264 2105 L1276 2105 L1336 2045 Z" /></g><g class="o"><path transform="translate(8,16)" class="S sfv" d="M1671 955 L2373 253 L2373 285 L1671 987 Z"/><path class="fv2" d="M1671 955 L2373 253 L2373 285 L1671 987 Z" /></g><g class="o"><path transform="translate(6,12)" class="S sfv" d="M1888 1479 L2123 1244 L2123 1254 L1888 1489 Z"/><path class="fv5" d="M1888 1479 L2123 1244 L2123 1254 L1888 1489 Z" /></g><g class="o"><path transform="translate(5,10)" class="S sfv" d="M1182 1117 L1548 751 L1548 783 L1182 1149 Z"/><path class="fv2" d="M1182 1117 L1548 751 L1548 783 L1182 1149 Z" /></g><g class="o"><path transform="translate(9,18)" class="S sfv" d="M1448 1006 L1739 715 L1739 733 L1448 1024 Z"/><path class="fv3" d="M1448 1006 L1739 715 L1739 733 L1448 1024 Z" /></g><g class="o"><path transform="translate(5,10)" class="S sfv" d="M1640 1263 L1410 1493 L1410 1525 L1640 1295 Z"/><path class="fv5" d="M1640 1263 L1410 1493 L1410 1525 L1640 1295 Z" /></g><g class="o"><path transform="translate(4,8)" class="S sf" d="M1595 1099 L1429 1265 L1429 1281 L1595 1115 Z"/><path class="f2" d="M1595 1099 L1429 1265 L1429 1281 L1595 1115 Z" /></g><g class="o"><path transform="translate(4,8)" class="S sfv" d="M959 1030 L1189 1260 L1189 1282 L959 1052 Z"/><path class="fv2" d="M959 1030 L1189 1260 L1189 1282 L959 1052 Z" /></g><g class="o"><path transform="translate(9,18)" class="S sfh" d="M1438 1648 L1054 2032 L1074 2032 L1458 1648 Z"/><path class="fh4" d="M1438 1648 L1054 2032 L1074 2032 L1458 1648 Z" /></g><g class="o"><path transform="translate(3,6)" class="S sfv" d="M1571 1907 L1369 2109 L1369 2129 L1571 1927 Z"/><path class="fv6" d="M1571 1907 L1369 2109 L1369 2129 L1571 1927 Z" /></g><g class="o"><path transform="translate(8,16)" class="S sfh" d="M1410 1027 L1265 882 L1275 882 L1420 1027 Z"/><path class="fh2" d="M1410 1027 L1265 882 L1275 882 L1420 1027 Z" /></g><g class="o"><path transform="translate(2,4)" class="S sfv" d="M2025 1912 L1728 1615 L1728 1635 L2025 1932 Z"/><path class="fv7" d="M2025 1912 L1728 1615 L1728 1635 L2025 1932 Z" /></g><g class="o"><path transform="translate(5,10)" class="S sfv" d="M1097 1241 L1295 1439 L1295 1451 L1097 1253 Z"/><path class="fv2" d="M1097 1241 L1295 1439 L1295 1451 L1097 1253 Z" /></g><g class="o"><path transform="translate(4,8)" class="S sfv" d="M1264 1317 L1212 1369 L1212 1391 L1264 1339 Z"/><path class="fv2" d="M1264 1317 L1212 1369 L1212 1391 L1264 1339 Z" /></g><g class="o"><path transform="translate(7,14)" class="S sfh" d="M1412 1221 L1286 1095 L1308 1095 L1434 1221 Z"/><path class="fh4" d="M1412 1221 L1286 1095 L1308 1095 L1434 1221 Z" /></g><g class="o"><path transform="translate(9,18)" class="S ss" d="M1929 2007 L1446 1524 L1458 1524 L1941 2007 Z"/><path class="s3" d="M1929 2007 L1446 1524 L1458 1524 L1941 2007 Z" /></g><g class="o"><path transform="translate(6,12)" class="S ss" d="M1848 1628 L2463 2243 L2477 2243 L1862 1628 Z"/><path class="s5" d="M1848 1628 L2463 2243 L2477 2243 L1862 1628 Z" /></g><g class="o"><path transform="translate(3,6)" class="S sf" d="M1757 1868 L1427 1538 L1445 1538 L1775 1868 Z"/><path class="f5" d="M1757 1868 L1427 1538 L1445 1538 L1775 1868 Z" /></g><g class="o"><path transform="translate(6,12)" class="S sfv" d="M982 1380 L813 1211 L813 1243 L982 1412 Z"/><path class="fv4" d="M982 1380 L813 1211 L813 1243 L982 1412 Z" /></g><g class="o"><path transform="translate(4,8)" class="S sfv" d="M1082 1235 L1144 1173 L1144 1201 L1082 1263 Z"/><path class="fv1" d="M1082 1235 L1144 1173 L1144 1201 L1082 1263 Z" /></g><g class="o"><path transform="translate(7,14)" class="S ssv" d="M1656 1836 L951 2541 L951 2575 L1656 1870 Z"/><path class="sv4" d="M1656 1836 L951 2541 L951 2575 L1656 1870 Z" /></g><g class="o"><path transform="translate(4,8)" class="S sfv" d="M1220 1421 L1031 1232 L1031 1256 L1220 1445 Z"/><path class="fv7" d="M1220 1421 L1031 1232 L1031 1256 L1220 1445 Z" /></g><g class="o"><path transform="translate(3,6)" class="S ssh" d="M2033 1080 L2193 1240 L2225 1240 L2065 1080 Z"/><path class="sh7" d="M2033 1080 L2193 1240 L2225 1240 L2065 1080 Z" /></g><g class="o"><path transform="translate(3,6)" class="S sfh" d="M2019 1503 L2394 1128 L2428 1128 L2053 1503 Z"/><path class="fh2" d="M2019 1503 L2394 1128 L2428 1128 L2053 1503 Z" /></g><g class="o"><path transform="translate(2,4)" class="S ss" d="M1421 1524 L1046 1149 L1080 1149 L1455 1524 Z"/><path class="s1" d="M1421 1524 L1046 1149 L1080 1149 L1455 1524 Z" /></g><g class="o"><path transform="translate(6,12)" class="S sfv" d="M1737 1427 L2439 2129 L2439 2145 L1737 1443 Z"/><path class="fv3" d="M1737 1427 L2439 2129 L2439 2145 L1737 1443 Z" /></g><g class="o"><path transform="translate(2,4)" class="S sfh" d="M1127 1822 L1000 1695 L1020 1695 L1147 1822 Z"/><path class="fh2" d="M1127 1822 L1000 1695 L1020 1695 L1147 1822 Z" /></g><g class="o"><path transform="translate(7,14)" class="S ssv" d="M1587 957 L1452 1092 L1452 1128 L1587 993 Z"/><path class="sv3" d="M1587 957 L1452 1092 L1452 1128 L1587 993 Z" /></g><g class="o"><path transform="translate(3,6)" class="S ss" d="M1404 1797 L1791 1410 L1829 1410 L1442 1797 Z"/><path class="s5" d="M1404 1797 L1791 1410 L1829 1410 L1442 1797 Z" /></g><g class="o"><path transform="translate(8,16)" class="S sfv" d="M1167 1699 L567 1099 L567 1107 L1167 1707 Z"/><path class="fv3" d="M1167 1699 L567 1099 L567 1107 L1167 1707 Z" /></g><g class="o"><path transform="translate(9,18)" class="S sf" d="M1311 1539 L738 2112 L762 2112 L1335 1539 Z"/><path class="f1" d="M1311 1539 L738 2112 L762 2112 L1335 1539 Z" /></g><g class="o"><path transform="translate(5,10)" class="S sfh" d="M1621 1304 L1440 1123 L1468 1123 L1649 1304 Z"/><path class="fh1" d="M1621 1304 L1440 1123 L1468 1123 L1649 1304 Z" /></g><g class="o"><path transform="translate(5,10)" class="S sfv" d="M1157 1117 L1589 1549 L1589 1575 L1157 1143 Z"/><path class="fv1" d="M1157 1117 L1589 1549 L1589 1575 L1157 1143 Z" /></g><g class="o"><path transform="translate(2,4)" class="S sfv" d="M1667 1026 L2093 1452 L2093 1462 L1667 1036 Z"/><path class="fv2" d="M1667 1026 L2093 1452 L2093 1462 L1667 1036 Z" /></g><g class="o"><path transform="translate(7,14)" class="S sfv" d="M1004 1981 L584 1561 L584 1577 L1004 1997 Z"/><path class="fv6" d="M1004 1981 L584 1561 L584 1577 L1004 1997 Z" /></g><g class="o"><path transform="translate(5,10)" class="S sfv" d="M1124 1721 L1245 1600 L1245 1628 L1124 1749 Z"/><path class="fv2" d="M1124 1721 L1245 1600 L1245 1628 L1124 1749 Z" /></g><g class="o"><path transform="translate(8,16)" class="S sfh" d="M1868 1104 L1517 1455 L1537 1455 L1888 1104 Z"/><path class="fh1" d="M1868 1104 L1517 1455 L1537 1455 L1888 1104 Z" /></g><g class="o"><path transform="translate(9,18)" class="S ssv" d="M1358 1026 L965 1419 L965 1457 L1358 1064 Z"/><path class="sv7" d="M1358 1026 L965 1419 L965 1457 L1358 1064 Z" /></g><g class="o"><path transform="translate(6,12)" class="S sf" d="M1274 1955 L1031 1712 L1031 1750 L1274 1993 Z"/><path class="f6" d="M1274 1955 L1031 1712 L1031 1750 L1274 1993 Z" /></g><g class="o"><path transform="translate(7,14)" class="S ssv" d="M1132 1031 L1849 314 L1849 340 L1132 1057 Z"/><path class="sv3" d="M1132 1031 L1849 314 L1849 340 L1132 1057 Z" /></g><g class="o"><path transform="translate(3,6)" class="S sfh" d="M1830 1947 L2328 2445 L2344 2445 L1846 1947 Z"/><path class="fh6" d="M1830 1947 L2328 2445 L2344 2445 L1846 1947 Z" /></g><g class="o"><path transform="translate(6,12)" class="S sfv" d="M1351 1659 L1492 1518 L1492 1542 L1351 1683 Z"/><path class="fv3" d="M1351 1659 L1492 1518 L1492 1542 L1351 1683 Z" /></g><g class="o"><path transform="translate(4,8)" class="S sfh" d="M1142 1469 L1040 1367 L1066 1367 L1168 1469 Z"/><path class="fh6" d="M1142 1469 L1040 1367 L1066 1367 L1168 1469 Z" /></g><g class="o"><path transform="translate(7,14)" class="S sfh" d="M1799 991 L2210 1402 L2220 1402 L1809 991 Z"/><path class="fh4" d="M1799 991 L2210 1402 L2220 1402 L1809 991 Z" /></g><g class="o"><path transform="translate(6,12)" class="S sfh" d="M1361 1575 L1173 1763 L1183 1763 L1371 1575 Z"/><path class="fh5" d="M1361 1575 L1173 1763 L1183 1763 L1371 1575 Z" /></g><g class="o"><path transform="translate(8,16)" class="S sfv" d="M1069 1622 L954 1737 L954 1771 L1069 1656 Z"/><path class="fv5" d="M1069 1622 L954 1737 L954 1771 L1069 1656 Z" /></g><g class="o"><path transform="translate(6,12)" class="S sfh" d="M1925 1988 L1718 2195 L1738 2195 L1945 1988 Z"/><path class="fh5" d="M1925 1988 L1718 2195 L1738 2195 L1945 1988 Z" /></g><g class="o"><path transform="translate(9,18)" class="S ss" d="M1569 1099 L1254 784 L1286 784 L1601 1099 Z"/><path class="s4" d="M1569 1099 L1254 784 L1286 784 L1601 1099 Z" /></g><g class="o"><path transform="translate(7,14)" class="S sfv" d="M1077 1263 L1234 1106 L1234 1124 L1077 1281 Z"/><path class="fv5" d="M1077 1263 L1234 1106 L1234 1124 L1077 1281 Z" /></g><g class="o"><path transform="translate(2,4)" class="S sfv" d="M1201 1067 L688 1580 L688 1594 L1201 1081 Z"/><path class="fv5" d="M1201 1067 L688 1580 L688 1594 L1201 1081 Z" /></g><g class="o"><path transform="translate(9,18)" class="S sfv" d="M1516 1400 L1684 1568 L1684 1606 L1516 1438 Z"/><path class="fv4" d="M1516 1400 L1684 1568 L1684 1606 L1516 1438 Z" /></g><g class="o"><path transform="translate(9,18)" class="S sf" d="M1138 1949 L1358 1729 L1380 1729 L1160 1949 Z"/><path class="f4" d="M1138 1949 L1358 1729 L1380 1729 L1160 1949 Z" /></g><g class="o"><path transform="translate(7,14)" class="S sfv" d="M1566 1250 L1657 1341 L1657 1363 L1566 1272 Z"/><path class="fv4" d="M1566 1250 L1657 1341 L1657 1363 L1566 1272 Z" /></g><g class="o"><path transform="translate(6,12)" class="S sfv" d="M1382 1746 L962 1326 L962 1342 L1382 1762 Z"/><path class="fv5" d="M1382 1746 L962 1326 L962 1342 L1382 1762 Z" /></g><g class="o"><path transform="translate(5,10)" class="S sfv" d="M1013 1822 L1223 1612 L1223 1642 L1013 1852 Z"/><path class="fv2" d="M1013 1822 L1223 1612 L1223 1642 L1013 1852 Z" /></g><g class="o"><path transform="translate(3,6)" class="S sfv" d="M1801 1636 L2059 1378 L2059 1388 L1801 1646 Z"/><path class="fv5" d="M1801 1636 L2059 1378 L2059 1388 L1801 1646 Z" /></g><g class="o"><path transform="translate(4,8)" class="S ssh" d="M1606 1363 L1452 1517 L1468 1517 L1622 1363 Z"/><path class="sh1" d="M1606 1363 L1452 1517 L1468 1517 L1622 1363 Z" /></g><g class="o"><path transform="translate(9,18)" class="S sfh" d="M1042 1460 L883 1301 L913 1301 L1072 1460 Z"/><path class="fh3" d="M1042 1460 L883 1301 L913 1301 L1072 1460 Z" /></g><g class="o"><path transform="translate(4,8)" class="S sfv" d="M1989 1183 L1626 820 L1626 832 L1989 1195 Z"/><path class="fv2" d="M1989 1183 L1626 820 L1626 832 L1989 1195 Z" /></g><g class="o"><path transform="translate(9,18)" class="S ssv" d="M1767 1836 L2004 2073 L2004 2089 L1767 1852 Z"/><path class="sv4" d="M1767 1836 L2004 2073 L2004 2089 L1767 1852 Z" /></g><g class="o"><path transform="translate(7,14)" class="S sfh" d="M1996 1560 L2226 1790 L2256 1790 L2026 1560 Z"/><path class="fh1" d="M1996 1560 L2226 1790 L2256 1790 L2026 1560 Z" /></g><g class="o"><path transform="translate(2,4)" class="S sfh" d="M1749 1559 L1188 998 L1206 998 L1767 1559 Z"/><path class="fh5" d="M1749 1559 L1188 998 L1206 998 L1767 1559 Z" /></g><g class="o"><path transform="translate(9,18)" class="S ssh" d="M1045 2019 L1254 1810 L1262 1810 L1053 2019 Z"/><path class="sh6" d="M1045 2019 L1254 1810 L1262 1810 L1053 2019 Z" /></g><g class="o"><path transform="translate(3,6)" class="S ssh" d="M1047 956 L1100 1009 L1110 1009 L1057 956 Z"/><path class="sh3" d="M1047 956 L1100 1009 L1110 1009 L1057 956 Z" /></g><g class="o"><path transform="translate(5,10)" class="S sfh" d="M1391 1134 L1461 1204 L1487 1204 L1417 1134 Z"/><path class="fh6" d="M1391 1134 L1461 1204 L1487 1204 L1417 1134 Z" /></g><g class="o"><path transform="translate(4,8)" class="S sfv" d="M1454 1295 L728 569 L728 585 L1454 1311 Z"/><path class="fv2" d="M1454 1295 L728 569 L728 585 L1454 1311 Z" /></g><g class="o"><path transform="translate(2,4)" class="S sfv" d="M1164 1864 L940 2088 L940 2100 L1164 1876 Z"/><path class="fv2" d="M1164 1864 L940 2088 L940 2100 L1164 1876 Z" /></g><g class="o"><path transform="translate(4,8)" class="S sfv" d="M2045 1607 L2231 1793 L2231 1819 L2045 1633 Z"/><path class="fv5" d="M2045 1607 L2231 1793 L2231 1819 L2045 1633 Z" /></g><g class="o"><path transform="translate(6,12)" class="S sfv" d="M1426 2014 L1361 2079 L1361 2087 L1426 2022 Z"/><path class="fv3" d="M1426 2014 L1361 2079 L1361 2087 L1426 2022 Z" /></g><g class="o"><path transform="translate(7,14)" class="S sfh" d="M1166 1781 L977 1970 L1015 1970 L1204 1781 Z"/><path class="fh2" d="M1166 1781 L977 1970 L1015 1970 L1204 1781 Z" /></g><g class="o"><path transform="translate(6,12)" class="S sfv" d="M1645 1870 L1162 1387 L1162 1395 L1645 1878 Z"/><path class="fv6" d="M1645 1870 L1162 1387 L1162 1395 L1645 1878 Z" /></g><g class="o"><path transform="translate(8,16)" class="S sfh" d="M1615 1014 L1727 902 L1765 902 L1653 1014 Z"/><path class="fh1" d="M1615 1014 L1727 902 L1765 902 L1653 1014 Z" /></g><g class="o"><path transform="translate(5,10)" class="S sfv" d="M1209 1682 L1911 980 L1911 1014 L1209 1716 Z"/><path class="fv6" d="M1209 1682 L1911 980 L1911 1014 L1209 1716 Z" /></g><g class="o"><path transform="translate(2,4)" class="S sfv" d="M1778 1740 L1037 2481 L1037 2489 L1778 1748 Z"/><path class="fv1" d="M1778 1740 L1037 2481 L1037 2489 L1778 1748 Z" /></g><g class="o"><path transform="translate(7,14)" class="S sfv" d="M1708 1364 L1893 1549 L1893 1577 L1708 1392 Z"/><path class="fv7" d="M1708 1364 L1893 1549 L1893 1577 L1708 1392 Z" /></g><g class="o"><path transform="translate(4,8)" class="S ssh" d="M1410 1506 L1113 1209 L1129 1209 L1426 1506 Z"/><path class="sh4" d="M1410 1506 L1113 1209 L1129 1209 L1426 1506 Z" /></g><g class="o"><path transform="translate(9,18)" class="S sfh" d="M1590 1239 L2226 1875 L2234 1875 L1598 1239 Z"/><path class="fh5" d="M1590 1239 L2226 1875 L2234 1875 L1598 1239 Z" /></g><g class="o"><path transform="translate(3,6)" class="S sfv" d="M1010 1897 L1736 2623 L1736 2651 L1010 1925 Z"/><path class="fv4" d="M1010 1897 L1736 2623 L1736 2651 L1010 1925 Z" /></g><g class="o"><path transform="translate(6,12)" class="S sf" d="M1993 1577 L2308 1892 L2316 1892 L2001 1577 Z"/><path class="f1" d="M1993 1577 L2308 1892 L2316 1892 L2001 1577 Z" /></g><g class="o"><path transform="translate(7,14)" class="S sfv" d="M1914 1899 L1687 2126 L1687 2162 L1914 1935 Z"/><path class="fv1" d="M1914 1899 L1687 2126 L1687 2162 L1914 1935 Z" /></g><g class="o"><path transform="translate(2,4)" class="S sfv" d="M1858 1684 L2362 2188 L2362 2226 L1858 1722 Z"/><path class="fv1" d="M1858 1684 L2362 2188 L2362 2226 L1858 1722 Z" /></g><g class="o"><path transform="translate(4,8)" class="S ssh" d="M1441 2048 L1987 1502 L2001 1502 L1455 2048 Z"/><path class="sh6" d="M1441 2048 L1987 1502 L2001 1502 L1455 2048 Z" /></g><g class="o"><path transform="translate(9,18)" class="S sfh" d="M1165 1009 L1052 896 L1086 896 L1199 1009 Z"/><path class="fh2" d="M1165 1009 L1052 896 L1086 896 L1199 1009 Z" /></g><g class="o"><path transform="translate(7,14)" class="S sfv" d="M1957 1727 L2112 1572 L2112 1606 L1957 1761 Z"/><path class="fv7" d="M1957 1727 L2112 1572 L2112 1606 L1957 1761 Z" /></g><g class="o"><path transform="translate(9,18)" class="S ssv" d="M2034 1280 L2254 1060 L2254 1070 L2034 1290 Z"/><path class="sv5" d="M2034 1280 L2254 1060 L2254 1070 L2034 1290 Z" /></g><g class="o"><path transform="translate(6,12)" class="S ssh" d="M1768 1711 L1600 1879 L1616 1879 L1784 1711 Z"/><path class="sh6" d="M1768 1711 L1600 1879 L1616 1879 L1784 1711 Z" /></g><g class="o"><path transform="translate(9,18)" class="S sfv" d="M1030 1632 L793 1869 L793 1895 L1030 1658 Z"/><path class="fv7" d="M1030 1632 L793 1869 L793 1895 L1030 1658 Z" /></g><g class="o"><path transform="translate(4,8)" class="S sf" d="M1105 1296 L1591 810 L1591 832 L1105 1318 Z"/><path class="f7" d="M1105 1296 L1591 810 L1591 832 L1105 1318 Z" /></g><g class="o"><path transform="translate(4,8)" class="S sfv" d="M1455 1960 L2076 2581 L2076 2593 L1455 1972 Z"/><path class="fv6" d="M1455 1960 L2076 2581 L2076 2593 L1455 1972 Z" /></g><g class="o"><path transform="translate(8,16)" class="S sfv" d="M1819 1113 L2098 834 L2098 866 L1819 1145 Z"/><path class="fv4" d="M1819 1113 L2098 834 L2098 866 L1819 1145 Z" /></g><g class="o"><path transform="translate(7,14)" class="S ssh" d="M1754 1321 L1974 1541 L1996 1541 L1776 1321 Z"/><path class="sh1" d="M1754 1321 L1974 1541 L1996 1541 L1776 1321 Z" /></g><g class="o"><path transform="translate(9,18)" class="S sfh" d="M1435 1718 L1575 1578 L1605 1578 L1465 1718 Z"/><path class="fh7" d="M1435 1718 L1575 1578 L1605 1578 L1465 1718 Z" /></g><g class="o"><path transform="translate(7,14)" class="S ssv" d="M1013 1036 L1095 1118 L1095 1130 L1013 1048 Z"/><path class="sv1" d="M1013 1036 L1095 1118 L1095 1130 L1013 1048 Z" /></g><g class="o"><path transform="translate(6,12)" class="S sfv" d="M1460 1999 L1181 1720 L1181 1754 L1460 2033 Z"/><path class="fv1" d="M1460 1999 L1181 1720 L1181 1754 L1460 2033 Z" /></g><g class="o"><path transform="translate(4,8)" class="S ssv" d="M1324 1619 L1549 1394 L1549 1430 L1324 1655 Z"/><path class="sv5" d="M1324 1619 L1549 1394 L1549 1430 L1324 1655 Z" /></g><g class="o"><path transform="translate(8,16)" class="S sfv" d="M1942 2040 L1600 1698 L1600 1716 L1942 2058 Z"/><path class="fv6" d="M1942 2040 L1600 1698 L1600 1716 L1942 2058 Z" /></g><g class="o"><path transform="translate(4,8)" class="S sfv" d="M1161 1892 L960 1691 L960 1729 L1161 1930 Z"/><path class="fv5" d="M1161 1892 L960 1691 L960 1729 L1161 1930 Z" /></g><g class="o"><path transform="translate(6,12)" class="S ssh" d="M1018 1734 L806 1946 L834 1946 L1046 1734 Z"/><path class="sh2" d="M1018 1734 L806 1946 L834 1946 L1046 1734 Z" /></g><g class="o"><path transform="translate(6,12)" class="S ssh" d="M1276 1352 L856 1772 L872 1772 L1292 1352 Z"/><path class="sh3" d="M1276 1352 L856 1772 L872 1772 L1292 1352 Z" /></g><g class="o"><path transform="translate(8,16)" class="S ssv" d="M1451 1676 L1364 1763 L1364 1791 L1451 1704 Z"/><path class="sv5" d="M1451 1676 L1364 1763 L1364 1791 L1451 1704 Z" /></g><g class="o"><path transform="translate(5,10)" class="S sfh" d="M1523 1868 L1139 2252 L1157 2252 L1541 1868 Z"/><path class="fh5" d="M1523 1868 L1139 2252 L1157 2252 L1541 1868 Z" /></g><g class="o"><path transform="translate(2,4)" class="S sfh" d="M1400 1371 L1139 1110 L1173 1110 L1434 1371 Z"/><path class="fh2" d="M1400 1371 L1139 1110 L1173 1110 L1434 1371 Z" /></g><g class="o"><path transform="translate(4,8)" class="S sfh" d="M1619 1724 L1763 1868 L1785 1868 L1641 1724 Z"/><path class="fh6" d="M1619 1724 L1763 1868 L1785 1868 L1641 1724 Z" /></g><g class="o"><path transform="translate(5,10)" class="S sfh" d="M1567 2002 L1366 1801 L1398 1801 L1599 2002 Z"/><path class="fh7" d="M1567 2002 L1366 1801 L1398 1801 L1599 2002 Z" /></g><g class="o"><path transform="translate(3,6)" class="S sfv" d="M1319 1664 L1439 1544 L1439 1566 L1319 1686 Z"/><path class="fv3" d="M1319 1664 L1439 1544 L1439 1566 L1319 1686 Z" /></g><g class="o"><path transform="translate(8,16)" class="S ssh" d="M1101 1159 L958 1302 L990 1302 L1133 1159 Z"/><path class="sh7" d="M1101 1159 L958 1302 L990 1302 L1133 1159 Z" /></g><g class="o"><path transform="translate(6,12)" class="S sfh" d="M1665 1373 L1437 1145 L1459 1145 L1687 1373 Z"/><path class="fh5" d="M1665 1373 L1437 1145 L1459 1145 L1687 1373 Z" /></g><g class="o"><path transform="translate(4,8)" class="S sfv" d="M2026 1828 L1504 1306 L1504 1320 L2026 1842 Z"/><path class="fv4" d="M2026 1828 L1504 1306 L1504 1320 L2026 1842 Z" /></g><g class="o"><path transform="translate(7,14)" class="S sfh" d="M1377 1611 L1794 2028 L1810 2028 L1393 1611 Z"/><path class="fh4" d="M1377 1611 L1794 2028 L1810 2028 L1393 1611 Z" /></g><g class="o"><path transform="translate(3,6)" class="S ssv" d="M1477 1620 L862 2235 L862 2243 L1477 1628 Z"/><path class="sv5" d="M1477 1620 L862 2235 L862 2243 L1477 1628 Z" /></g></g><use href="#slashes" transform-origin="1500 1500" transform="rotate(180) scale(2)"/></g><polyline points="1500,1010 1990,1500 1500,1990 1010,1500 1500,1010 1990,1500" stroke-width="80" class="o f5" /><use href="#slashes" transform-origin="1500 1500" transform="scale(.6)"/><use href="#slashes" transform-origin="1500 1500" transform="rotate(180) scale(.6)"/></svg>