<svg xmlns="http://www.w3.org/2000/svg" viewBox="750 750 1500 1500"><style>/*<![CDATA[*/svg{background:rgb(207,219,213);max-width:100vw;max-height:100vh}path{stroke-width:4}.o{opacity:.75}.S{opacity:.4}.sf{stroke:none;fill:black}.sfh{stroke:none;fill:url(#hs)}.sfv{stroke:none;fill:url(#vs)}.ss{stroke:black;fill:none}.ssh{stroke:url(#hs);fill:none}.ssv{stroke:url(#vs);fill:none}.s1{fill:none;stroke:rgb(245,203,92)}.f1{stroke:none;fill:rgb(245,203,92)}.sh1{fill:none;stroke:url(#h1)}.fh1{stroke:none;fill:url(#h1)}.sv1{fill:none;stroke:url(#v1)}.fv1{stroke:none;fill:url(#v1)}.s2{fill:none;stroke:rgb(34,34,34)}.f2{stroke:none;fill:rgb(34,34,34)}.sh2{fill:none;stroke:url(#h2)}.fh2{stroke:none;fill:url(#h2)}.sv2{fill:none;stroke:url(#v2)}.fv2{stroke:none;fill:url(#v2)}.s3{fill:none;stroke:rgb(36,36,35)}.f3{stroke:none;fill:rgb(36,36,35)}.sh3{fill:none;stroke:url(#h3)}.fh3{stroke:none;fill:url(#h3)}.sv3{fill:none;stroke:url(#v3)}.fv3{stroke:none;fill:url(#v3)}.s4{fill:none;stroke:rgb(232,237,223)}.f4{stroke:none;fill:rgb(232,237,223)}.sh4{fill:none;stroke:url(#h4)}.fh4{stroke:none;fill:url(#h4)}.sv4{fill:none;stroke:url(#v4)}.fv4{stroke:none;fill:url(#v4)}.s5{fill:none;stroke:rgb(51,53,51)}.f5{stroke:none;fill:rgb(51,53,51)}.sh5{fill:none;stroke:url(#h5)}.fh5{stroke:none;fill:url(#h5)}.sv5{fill:none;stroke:url(#v5)}.fv5{stroke:none;fill:url(#v5)}.s6{fill:none;stroke:rgb(255,255,255)}.f6{stroke:none;fill:rgb(255,255,255)}.sh6{fill:none;stroke:url(#h6)}.fh6{stroke:none;fill:url(#h6)}.sv6{fill:none;stroke:url(#v6)}.fv6{stroke:none;fill:url(#v6)}.s7{fill:none;stroke:rgb(255,0,0)}.f7{stroke:none;fill:rgb(255,0,0)}.sh7{fill:none;stroke:url(#h7)}.fh7{stroke:none;fill:url(#h7)}.sv7{fill:none;stroke:url(#v7)}.fv7{stroke:none;fill:url(#v7)}/*]]>*/</style><defs><linearGradient gradientTransform="rotate(90)" id="hs"><stop offset="20%" stop-color="#000" /><stop offset="95%" stop-color="rgba(0, 0, 0, 0)" /></linearGradient><linearGradient id="vs"><stop offset="20%" stop-color="#000" /><stop offset="95%" stop-color="rgba(0, 0, 0, 0)" /></linearGradient><linearGradient gradientTransform="rotate(90)" id="h1"><stop offset="20%" stop-color="rgba(245,203,92,1)" /><stop offset="95%" stop-color="rgba(245,203,92,0)" /></linearGradient><linearGradient id="v1"><stop offset="20%" stop-color="rgba(245,203,92,1)" /><stop offset="95%" stop-color="rgba(245,203,92,0)" /></linearGradient><linearGradient gradientTransform="rotate(90)" id="h2"><stop offset="20%" stop-color="rgba(34,34,34,1)" /><stop offset="95%" stop-color="rgba(34,34,34,0)" /></linearGradient><linearGradient id="v2"><stop offset="20%" stop-color="rgba(34,34,34,1)" /><stop offset="95%" stop-color="rgba(34,34,34,0)" /></linearGradient><linearGradient gradientTransform="rotate(90)" id="h3"><stop offset="20%" stop-color="rgba(36,36,35,1)" /><stop offset="95%" stop-color="rgba(36,36,35,0)" /></linearGradient><linearGradient id="v3"><stop offset="20%" stop-color="rgba(36,36,35,1)" /><stop offset="95%" stop-color="rgba(36,36,35,0)" /></linearGradient><linearGradient gradientTransform="rotate(90)" id="h4"><stop offset="20%" stop-color="rgba(232,237,223,1)" /><stop offset="95%" stop-color="rgba(232,237,223,0)" /></linearGradient><linearGradient id="v4"><stop offset="20%" stop-color="rgba(232,237,223,1)" /><stop offset="95%" stop-color="rgba(232,237,223,0)" /></linearGradient><linearGradient gradientTransform="rotate(90)" id="h5"><stop offset="20%" stop-color="rgba(51,53,51,1)" /><stop offset="95%" stop-color="rgba(51,53,51,0)" /></linearGradient><linearGradient id="v5"><stop offset="20%" stop-color="rgba(51,53,51,1)" /><stop offset="95%" stop-color="rgba(51,53,51,0)" /></linearGradient><linearGradient gradientTransform="rotate(90)" id="h6"><stop offset="20%" stop-color="rgba(255,255,255,1)" /><stop offset="95%" stop-color="rgba(255,255,255,0)" /></linearGradient><linearGradient id="v6"><stop offset="20%" stop-color="rgba(255,255,255,1)" /><stop offset="95%" stop-color="rgba(255,255,255,0)" /></linearGradient><linearGradient gradientTransform="rotate(90)" id="h7"><stop offset="20%" stop-color="rgba(255,0,0,1)" /><stop offset="95%" stop-color="rgba(255,0,0,0)" /></linearGradient><linearGradient id="v7"><stop offset="20%" stop-color="rgba(255,0,0,1)" /><stop offset="95%" stop-color="rgba(255,0,0,0)" /></linearGradient></defs><g transform-origin="1500 1500" transform="scale(2)" opacity=".6"><g id="slashes"><g class="o"><path transform="translate(6,12)" class="S sf" d="M960 1636 L1695 2371 L1695 2389 L960 1654 Z"/><path class="f6" d="M960 1636 L1695 2371 L1695 2389 L960 1654 Z" /></g><g class="o"><path transform="translate(3,6)" class="S ss" d="M1464 1399 L1701 1636 L1773 1636 L1536 1399 Z"/><path class="s6" d="M1464 1399 L1701 1636 L1773 1636 L1536 1399 Z" /></g><g class="o"><path transform="translate(4,8)" class="S sf" d="M1816 1524 L1974 1366 L1974 1398 L1816 1556 Z"/><path class="f6" d="M1816 1524 L1974 1366 L1974 1398 L1816 1556 Z" /></g><g class="o"><path transform="translate(8,16)" class="S sf" d="M1460 1517 L1357 1620 L1371 1620 L1474 1517 Z"/><path class="f2" d="M1460 1517 L1357 1620 L1371 1620 L1474 1517 Z" /></g><g class="o"><path transform="translate(6,12)" class="S sf" d="M1113 1894 L1213 1794 L1213 1914 L1113 2014 Z"/><path class="f3" d="M1113 1894 L1213 1794 L1213 1914 L1113 2014 Z" /></g><g class="o"><path transform="translate(7,14)" class="S sf" d="M1291 1250 L1549 992 L1563 992 L1305 1250 Z"/><path class="f4" d="M1291 1250 L1549 992 L1563 992 L1305 1250 Z" /></g><g class="o"><path transform="translate(2,4)" class="S sf" d="M1536 1549 L2004 2017 L2084 2017 L1616 1549 Z"/><path class="f4" d="M1536 1549 L2004 2017 L2084 2017 L1616 1549 Z" /></g><g class="o"><path transform="translate(6,12)" class="S ss" d="M1109 1708 L1340 1477 L1340 1613 L1109 1844 Z"/><path class="s3" d="M1109 1708 L1340 1477 L1340 1613 L1109 1844 Z" /></g><g class="o"><path transform="translate(4,8)" class="S sf" d="M2049 1523 L2203 1677 L2203 1773 L2049 1619 Z"/><path class="f7" d="M2049 1523 L2203 1677 L2203 1773 L2049 1619 Z" /></g><g class="o"><path transform="translate(9,18)" class="S sf" d="M973 950 L1089 834 L1089 922 L973 1038 Z"/><path class="f4" d="M973 950 L1089 834 L1089 922 L973 1038 Z" /></g><g class="o"><path transform="translate(5,10)" class="S ss" d="M1750 1063 L1904 909 L1904 919 L1750 1073 Z"/><path class="s4" d="M1750 1063 L1904 909 L1904 919 L1750 1073 Z" /></g><g class="o"><path transform="translate(6,12)" class="S sf" d="M975 1128 L834 1269 L834 1303 L975 1162 Z"/><path class="f7" d="M975 1128 L834 1269 L834 1303 L975 1162 Z" /></g><g class="o"><path transform="translate(5,10)" class="S sf" d="M1279 1969 L1399 1849 L1421 1849 L1301 1969 Z"/><path class="f6" d="M1279 1969 L1399 1849 L1421 1849 L1301 1969 Z" /></g><g class="o"><path transform="translate(3,6)" class="S sf" d="M1253 1341 L1439 1155 L1439 1195 L1253 1381 Z"/><path class="f3" d="M1253 1341 L1439 1155 L1439 1195 L1253 1381 Z" /></g><g class="o"><path transform="translate(4,8)" class="S sf" d="M1962 1234 L1701 973 L1717 973 L1978 1234 Z"/><path class="f7" d="M1962 1234 L1701 973 L1717 973 L1978 1234 Z" /></g><g class="o"><path transform="translate(2,4)" class="S sf" d="M1136 1401 L1484 1053 L1484 1079 L1136 1427 Z"/><path class="f7" d="M1136 1401 L1484 1053 L1484 1079 L1136 1427 Z" /></g><g class="o"><path transform="translate(8,16)" class="S sf" d="M1120 1103 L889 1334 L889 1430 L1120 1199 Z"/><path class="f4" d="M1120 1103 L889 1334 L889 1430 L1120 1199 Z" /></g><g class="o"><path transform="translate(3,6)" class="S sf" d="M1704 1016 L1782 938 L1814 938 L1736 1016 Z"/><path class="f4" d="M1704 1016 L1782 938 L1814 938 L1736 1016 Z" /></g><g class="o"><path transform="translate(2,4)" class="S sf" d="M1990 1796 L2197 2003 L2197 2021 L1990 1814 Z"/><path class="f1" d="M1990 1796 L2197 2003 L2197 2021 L1990 1814 Z" /></g><g class="o"><path transform="translate(7,14)" class="S sf" d="M1523 1653 L1460 1590 L1460 1734 L1523 1797 Z"/><path class="f1" d="M1523 1653 L1460 1590 L1460 1734 L1523 1797 Z" /></g><g class="o"><path transform="translate(2,4)" class="S sf" d="M1244 1014 L1079 1179 L1079 1209 L1244 1044 Z"/><path class="f6" d="M1244 1014 L1079 1179 L1079 1209 L1244 1044 Z" /></g><g class="o"><path transform="translate(7,14)" class="S sf" d="M1455 1352 L1662 1145 L1662 1257 L1455 1464 Z"/><path class="f5" d="M1455 1352 L1662 1145 L1662 1257 L1455 1464 Z" /></g><g class="o"><path transform="translate(6,12)" class="S sf" d="M1551 1749 L1713 1587 L1725 1587 L1563 1749 Z"/><path class="f4" d="M1551 1749 L1713 1587 L1725 1587 L1563 1749 Z" /></g><g class="o"><path transform="translate(4,8)" class="S sf" d="M1114 1943 L1354 2183 L1394 2183 L1154 1943 Z"/><path class="f5" d="M1114 1943 L1354 2183 L1394 2183 L1154 1943 Z" /></g><g class="o"><path transform="translate(8,16)" class="S sf" d="M1028 990 L1202 816 L1210 816 L1036 990 Z"/><path class="f7" d="M1028 990 L1202 816 L1210 816 L1036 990 Z" /></g><g class="o"><path transform="translate(6,12)" class="S sf" d="M1193 975 L1310 1092 L1310 1212 L1193 1095 Z"/><path class="f6" d="M1193 975 L1310 1092 L1310 1212 L1193 1095 Z" /></g><g class="o"><path transform="translate(6,12)" class="S sf" d="M2022 1556 L2165 1699 L2181 1699 L2038 1556 Z"/><path class="f2" d="M2022 1556 L2165 1699 L2181 1699 L2038 1556 Z" /></g><g class="o"><path transform="translate(3,6)" class="S ss" d="M1070 1439 L878 1631 L878 1719 L1070 1527 Z"/><path class="s6" d="M1070 1439 L878 1631 L878 1719 L1070 1527 Z" /></g><g class="o"><path transform="translate(8,16)" class="S sf" d="M1357 1680 L1574 1897 L1612 1897 L1395 1680 Z"/><path class="f1" d="M1357 1680 L1574 1897 L1612 1897 L1395 1680 Z" /></g><g class="o"><path transform="translate(4,8)" class="S sf" d="M1914 1448 L1671 1205 L1687 1205 L1930 1448 Z"/><path class="f4" d="M1914 1448 L1671 1205 L1687 1205 L1930 1448 Z" /></g><g class="o"><path transform="translate(6,12)" class="S sf" d="M1046 1827 L931 1942 L959 1942 L1074 1827 Z"/><path class="f6" d="M1046 1827 L931 1942 L959 1942 L1074 1827 Z" /></g><g class="o"><path transform="translate(3,6)" class="S sf" d="M1700 1952 L1490 2162 L1502 2162 L1712 1952 Z"/><path class="f3" d="M1700 1952 L1490 2162 L1502 2162 L1712 1952 Z" /></g><g class="o"><path transform="translate(9,18)" class="S sf" d="M1414 1717 L1497 1800 L1497 1912 L1414 1829 Z"/><path class="f1" d="M1414 1717 L1497 1800 L1497 1912 L1414 1829 Z" /></g><g class="o"><path transform="translate(4,8)" class="S sf" d="M1375 1732 L1568 1539 L1584 1539 L1391 1732 Z"/><path class="f7" d="M1375 1732 L1568 1539 L1584 1539 L1391 1732 Z" /></g><g class="o"><path transform="translate(8,16)" class="S sf" d="M1712 1269 L1772 1329 L1772 1339 L1712 1279 Z"/><path class="f4" d="M1712 1269 L1772 1329 L1772 1339 L1712 1279 Z" /></g><g class="o"><path transform="translate(5,10)" class="S ss" d="M999 1384 L1157 1542 L1157 1572 L999 1414 Z"/><path class="s4" d="M999 1384 L1157 1542 L1157 1572 L999 1414 Z" /></g><g class="o"><path transform="translate(2,4)" class="S sf" d="M1491 1950 L1569 1872 L1569 1890 L1491 1968 Z"/><path class="f7" d="M1491 1950 L1569 1872 L1569 1890 L1491 1968 Z" /></g><g class="o"><path transform="translate(9,18)" class="S ss" d="M1551 1706 L1731 1526 L1731 1574 L1551 1754 Z"/><path class="s4" d="M1551 1706 L1731 1526 L1731 1574 L1551 1754 Z" /></g><g class="o"><path transform="translate(8,16)" class="S ss" d="M1445 1358 L1548 1255 L1578 1255 L1475 1358 Z"/><path class="s5" d="M1445 1358 L1548 1255 L1578 1255 L1475 1358 Z" /></g><g class="o"><path transform="translate(4,8)" class="S sf" d="M1347 1366 L1842 1861 L1842 1893 L1347 1398 Z"/><path class="f1" d="M1347 1366 L1842 1861 L1842 1893 L1347 1398 Z" /></g><g class="o"><path transform="translate(7,14)" class="S sf" d="M1911 1918 L2122 1707 L2136 1707 L1925 1918 Z"/><path class="f7" d="M1911 1918 L2122 1707 L2136 1707 L1925 1918 Z" /></g><g class="o"><path transform="translate(4,8)" class="S sf" d="M1667 1227 L1802 1092 L1802 1148 L1667 1283 Z"/><path class="f1" d="M1667 1227 L1802 1092 L1802 1148 L1667 1283 Z" /></g><g class="o"><path transform="translate(5,10)" class="S sf" d="M1746 1479 L1819 1406 L1819 1534 L1746 1607 Z"/><path class="f3" d="M1746 1479 L1819 1406 L1819 1534 L1746 1607 Z" /></g><g class="o"><path transform="translate(2,4)" class="S sf" d="M1484 1067 L1637 1220 L1765 1220 L1612 1067 Z"/><path class="f4" d="M1484 1067 L1637 1220 L1765 1220 L1612 1067 Z" /></g><g class="o"><path transform="translate(2,4)" class="S sf" d="M1239 1890 L1650 2301 L1658 2301 L1247 1890 Z"/><path class="f4" d="M1239 1890 L1650 2301 L1658 2301 L1247 1890 Z" /></g><g class="o"><path transform="translate(4,8)" class="S sf" d="M1081 1691 L1333 1439 L1333 1559 L1081 1811 Z"/><path class="f7" d="M1081 1691 L1333 1439 L1333 1559 L1081 1811 Z" /></g><g class="o"><path transform="translate(4,8)" class="S sf" d="M1278 1454 L1794 938 L1832 938 L1316 1454 Z"/><path class="f2" d="M1278 1454 L1794 938 L1832 938 L1316 1454 Z" /></g><g class="o"><path transform="translate(8,16)" class="S sf" d="M1516 1287 L1726 1497 L1738 1497 L1528 1287 Z"/><path class="f7" d="M1516 1287 L1726 1497 L1738 1497 L1528 1287 Z" /></g><g class="o"><path transform="translate(7,14)" class="S sf" d="M1202 1288 L1435 1055 L1475 1055 L1242 1288 Z"/><path class="f3" d="M1202 1288 L1435 1055 L1475 1055 L1242 1288 Z" /></g><g class="o"><path transform="translate(3,6)" class="S sf" d="M974 1333 L245 2062 L279 2062 L1008 1333 Z"/><path class="f5" d="M974 1333 L245 2062 L279 2062 L1008 1333 Z" /></g><g class="o"><path transform="translate(3,6)" class="S sf" d="M1249 1212 L1450 1011 L1450 1047 L1249 1248 Z"/><path class="f4" d="M1249 1212 L1450 1011 L1450 1047 L1249 1248 Z" /></g><g class="o"><path transform="translate(3,6)" class="S sf" d="M1404 988 L2091 1675 L2179 1675 L1492 988 Z"/><path class="f2" d="M1404 988 L2091 1675 L2179 1675 L1492 988 Z" /></g><g class="o"><path transform="translate(6,12)" class="S sf" d="M1862 1183 L2579 466 L2595 466 L1878 1183 Z"/><path class="f3" d="M1862 1183 L2579 466 L2595 466 L1878 1183 Z" /></g><g class="o"><path transform="translate(2,4)" class="S sf" d="M1422 990 L1629 783 L1629 821 L1422 1028 Z"/><path class="f6" d="M1422 990 L1629 783 L1629 821 L1422 1028 Z" /></g><g class="o"><path transform="translate(3,6)" class="S sf" d="M1303 2013 L1798 2508 L1812 2508 L1317 2013 Z"/><path class="f1" d="M1303 2013 L1798 2508 L1812 2508 L1317 2013 Z" /></g><g class="o"><path transform="translate(8,16)" class="S sf" d="M945 1687 L1129 1871 L1157 1871 L973 1687 Z"/><path class="f7" d="M945 1687 L1129 1871 L1157 1871 L973 1687 Z" /></g><g class="o"><path transform="translate(7,14)" class="S sf" d="M963 2018 L1662 2717 L1718 2717 L1019 2018 Z"/><path class="f5" d="M963 2018 L1662 2717 L1718 2717 L1019 2018 Z" /></g><g class="o"><path transform="translate(2,4)" class="S sf" d="M1695 1680 L1935 1920 L1999 1920 L1759 1680 Z"/><path class="f3" d="M1695 1680 L1935 1920 L1999 1920 L1759 1680 Z" /></g><g class="o"><path transform="translate(8,16)" class="S sf" d="M1588 1338 L2146 1896 L2146 1930 L1588 1372 Z"/><path class="f4" d="M1588 1338 L2146 1896 L2146 1930 L1588 1372 Z" /></g><g class="o"><path transform="translate(8,16)" class="S sf" d="M1070 1393 L821 1144 L845 1144 L1094 1393 Z"/><path class="f5" d="M1070 1393 L821 1144 L845 1144 L1094 1393 Z" /></g><g class="o"><path transform="translate(2,4)" class="S sf" d="M1059 1681 L699 1321 L733 1321 L1093 1681 Z"/><path class="f6" d="M1059 1681 L699 1321 L733 1321 L1093 1681 Z" /></g><g class="o"><path transform="translate(3,6)" class="S sf" d="M1040 1310 L1110 1240 L1166 1240 L1096 1310 Z"/><path class="f3" d="M1040 1310 L1110 1240 L1166 1240 L1096 1310 Z" /></g><g class="o"><path transform="translate(8,16)" class="S ss" d="M1408 1907 L1741 2240 L1741 2248 L1408 1915 Z"/><path class="s1" d="M1408 1907 L1741 2240 L1741 2248 L1408 1915 Z" /></g><g class="o"><path transform="translate(9,18)" class="S sf" d="M1036 1459 L1252 1675 L1252 1803 L1036 1587 Z"/><path class="f4" d="M1036 1459 L1252 1675 L1252 1803 L1036 1587 Z" /></g><g class="o"><path transform="translate(9,18)" class="S sf" d="M1562 1155 L1412 1305 L1460 1305 L1610 1155 Z"/><path class="f3" d="M1562 1155 L1412 1305 L1460 1305 L1610 1155 Z" /></g><g class="o"><path transform="translate(7,14)" class="S sf" d="M1382 1166 L1547 1001 L1667 1001 L1502 1166 Z"/><path class="f3" d="M1382 1166 L1547 1001 L1667 1001 L1502 1166 Z" /></g><g class="o"><path transform="translate(9,18)" class="S sf" d="M1650 1543 L1859 1334 L1899 1334 L1690 1543 Z"/><path class="f6" d="M1650 1543 L1859 1334 L1899 1334 L1690 1543 Z" /></g><g class="o"><path transform="translate(2,4)" class="S sf" d="M1526 1732 L2123 1135 L2211 1135 L1614 1732 Z"/><path class="f2" d="M1526 1732 L2123 1135 L2211 1135 L1614 1732 Z" /></g><g class="o"><path transform="translate(6,12)" class="S ss" d="M1623 1048 L2085 586 L2085 698 L1623 1160 Z"/><path class="s3" d="M1623 1048 L2085 586 L2085 698 L1623 1160 Z" /></g><g class="o"><path transform="translate(8,16)" class="S sf" d="M1551 1684 L1787 1448 L1811 1448 L1575 1684 Z"/><path class="f5" d="M1551 1684 L1787 1448 L1811 1448 L1575 1684 Z" /></g><g class="o"><path transform="translate(4,8)" class="S sf" d="M1688 1759 L1841 1606 L1861 1606 L1708 1759 Z"/><path class="f4" d="M1688 1759 L1841 1606 L1861 1606 L1708 1759 Z" /></g><g class="o"><path transform="translate(8,16)" class="S sf" d="M1659 1940 L1547 2052 L1611 2052 L1723 1940 Z"/><path class="f3" d="M1659 1940 L1547 2052 L1611 2052 L1723 1940 Z" /></g><g class="o"><path transform="translate(5,10)" class="S ss" d="M1640 1302 L2309 1971 L2309 1989 L1640 1320 Z"/><path class="s6" d="M1640 1302 L2309 1971 L2309 1989 L1640 1320 Z" /></g><g class="o"><path transform="translate(4,8)" class="S sf" d="M1467 1060 L1278 1249 L1278 1369 L1467 1180 Z"/><path class="f4" d="M1467 1060 L1278 1249 L1278 1369 L1467 1180 Z" /></g><g class="o"><path transform="translate(5,10)" class="S ss" d="M1707 1888 L1254 1435 L1254 1449 L1707 1902 Z"/><path class="s7" d="M1707 1888 L1254 1435 L1254 1449 L1707 1902 Z" /></g><g class="o"><path transform="translate(6,12)" class="S ss" d="M1580 2001 L1738 1843 L1772 1843 L1614 2001 Z"/><path class="s6" d="M1580 2001 L1738 1843 L1772 1843 L1614 2001 Z" /></g><g class="o"><path transform="translate(2,4)" class="S ss" d="M963 1349 L753 1559 L889 1559 L1099 1349 Z"/><path class="s5" d="M963 1349 L753 1559 L889 1559 L1099 1349 Z" /></g><g class="o"><path transform="translate(9,18)" class="S sf" d="M1412 1507 L1542 1377 L1554 1377 L1424 1507 Z"/><path class="f1" d="M1412 1507 L1542 1377 L1554 1377 L1424 1507 Z" /></g><g class="o"><path transform="translate(3,6)" class="S sf" d="M1487 1407 L1241 1653 L1393 1653 L1639 1407 Z"/><path class="f3" d="M1487 1407 L1241 1653 L1393 1653 L1639 1407 Z" /></g><g class="o"><path transform="translate(7,14)" class="S sf" d="M1640 1904 L1860 1684 L1860 1706 L1640 1926 Z"/><path class="f5" d="M1640 1904 L1860 1684 L1860 1706 L1640 1926 Z" /></g><g class="o"><path transform="translate(5,10)" class="S ss" d="M1945 1984 L2184 2223 L2212 2223 L1973 1984 Z"/><path class="s4" d="M1945 1984 L2184 2223 L2212 2223 L1973 1984 Z" /></g><g class="o"><path transform="translate(3,6)" class="S ss" d="M1542 994 L1833 703 L1833 723 L1542 1014 Z"/><path class="s1" d="M1542 994 L1833 703 L1833 723 L1542 1014 Z" /></g><g class="o"><path transform="translate(6,12)" class="S sf" d="M1522 1886 L1744 2108 L1744 2204 L1522 1982 Z"/><path class="f6" d="M1522 1886 L1744 2108 L1744 2204 L1522 1982 Z" /></g><g class="o"><path transform="translate(8,16)" class="S sf" d="M1738 1104 L1592 1250 L1592 1346 L1738 1200 Z"/><path class="f1" d="M1738 1104 L1592 1250 L1592 1346 L1738 1200 Z" /></g><g class="o"><path transform="translate(5,10)" class="S sf" d="M1077 1337 L1147 1407 L1157 1407 L1087 1337 Z"/><path class="f2" d="M1077 1337 L1147 1407 L1157 1407 L1087 1337 Z" /></g><g class="o"><path transform="translate(7,14)" class="S sf" d="M1517 1890 L1673 2046 L1695 2046 L1539 1890 Z"/><path class="f4" d="M1517 1890 L1673 2046 L1695 2046 L1539 1890 Z" /></g><g class="o"><path transform="translate(4,8)" class="S sf" d="M1731 1572 L1946 1787 L2090 1787 L1875 1572 Z"/><path class="f6" d="M1731 1572 L1946 1787 L2090 1787 L1875 1572 Z" /></g><g class="o"><path transform="translate(7,14)" class="S sf" d="M1353 1025 L1971 1643 L1971 1677 L1353 1059 Z"/><path class="f3" d="M1353 1025 L1971 1643 L1971 1677 L1353 1059 Z" /></g><g class="o"><path transform="translate(8,16)" class="S sf" d="M1117 1903 L1846 2632 L1860 2632 L1131 1903 Z"/><path class="f7" d="M1117 1903 L1846 2632 L1860 2632 L1131 1903 Z" /></g><g class="o"><path transform="translate(3,6)" class="S sf" d="M1749 1121 L1962 1334 L1962 1398 L1749 1185 Z"/><path class="f5" d="M1749 1121 L1962 1334 L1962 1398 L1749 1185 Z" /></g><g class="o"><path transform="translate(3,6)" class="S ss" d="M1840 1563 L1767 1490 L1767 1510 L1840 1583 Z"/><path class="s3" d="M1840 1563 L1767 1490 L1767 1510 L1840 1583 Z" /></g><g class="o"><path transform="translate(5,10)" class="S sf" d="M1134 1037 L639 1532 L647 1532 L1142 1037 Z"/><path class="f4" d="M1134 1037 L639 1532 L647 1532 L1142 1037 Z" /></g><g class="o"><path transform="translate(9,18)" class="S sf" d="M992 965 L1119 1092 L1143 1092 L1016 965 Z"/><path class="f5" d="M992 965 L1119 1092 L1143 1092 L1016 965 Z" /></g><g class="o"><path transform="translate(8,16)" class="S sf" d="M1889 1273 L1947 1215 L1979 1215 L1921 1273 Z"/><path class="f1" d="M1889 1273 L1947 1215 L1979 1215 L1921 1273 Z" /></g><g class="o"><path transform="translate(3,6)" class="S sf" d="M1672 1177 L1607 1242 L1625 1242 L1690 1177 Z"/><path class="f6" d="M1672 1177 L1607 1242 L1625 1242 L1690 1177 Z" /></g><g class="o"><path transform="translate(7,14)" class="S sf" d="M1204 1668 L1305 1567 L1305 1589 L1204 1690 Z"/><path class="f5" d="M1204 1668 L1305 1567 L1305 1589 L1204 1690 Z" /></g><g class="o"><path transform="translate(9,18)" class="S ss" d="M1895 967 L1703 1159 L1703 1247 L1895 1055 Z"/><path class="s2" d="M1895 967 L1703 1159 L1703 1247 L1895 1055 Z" /></g><g class="o"><path transform="translate(4,8)" class="S sf" d="M954 1840 L1169 2055 L1169 2135 L954 1920 Z"/><path class="f1" d="M954 1840 L1169 2055 L1169 2135 L954 1920 Z" /></g><g class="o"><path transform="translate(6,12)" class="S sf" d="M965 1928 L1514 1379 L1642 1379 L1093 1928 Z"/><path class="f7" d="M965 1928 L1514 1379 L1642 1379 L1093 1928 Z" /></g><g class="o"><path transform="translate(8,16)" class="S sf" d="M1698 1448 L1762 1384 L1780 1384 L1716 1448 Z"/><path class="f7" d="M1698 1448 L1762 1384 L1780 1384 L1716 1448 Z" /></g><g class="o"><path transform="translate(8,16)" class="S sf" d="M957 1974 L1302 1629 L1336 1629 L991 1974 Z"/><path class="f3" d="M957 1974 L1302 1629 L1336 1629 L991 1974 Z" /></g><g class="o"><path transform="translate(4,8)" class="S sf" d="M894 1390 L726 1222 L846 1222 L1014 1390 Z"/><path class="f1" d="M894 1390 L726 1222 L846 1222 L1014 1390 Z" /></g><g class="o"><path transform="translate(3,6)" class="S sf" d="M1602 1843 L1845 2086 L1871 2086 L1628 1843 Z"/><path class="f7" d="M1602 1843 L1845 2086 L1871 2086 L1628 1843 Z" /></g><g class="o"><path transform="translate(4,8)" class="S sf" d="M1990 1480 L2278 1768 L2314 1768 L2026 1480 Z"/><path class="f1" d="M1990 1480 L2278 1768 L2314 1768 L2026 1480 Z" /></g><g class="o"><path transform="translate(6,12)" class="S sf" d="M1127 1677 L1350 1454 L1378 1454 L1155 1677 Z"/><path class="f2" d="M1127 1677 L1350 1454 L1378 1454 L1155 1677 Z" /></g><g class="o"><path transform="translate(2,4)" class="S ss" d="M1937 1275 L2117 1455 L2141 1455 L1961 1275 Z"/><path class="s7" d="M1937 1275 L2117 1455 L2141 1455 L1961 1275 Z" /></g><g class="o"><path transform="translate(6,12)" class="S sf" d="M1225 1799 L1072 1646 L1072 1656 L1225 1809 Z"/><path class="f7" d="M1225 1799 L1072 1646 L1072 1656 L1225 1809 Z" /></g><g class="o"><path transform="translate(5,10)" class="S sf" d="M2046 2038 L2235 2227 L2235 2243 L2046 2054 Z"/><path class="f4" d="M2046 2038 L2235 2227 L2235 2243 L2046 2054 Z" /></g><g class="o"><path transform="translate(6,12)" class="S sf" d="M1120 989 L1362 1231 L1362 1251 L1120 1009 Z"/><path class="f7" d="M1120 989 L1362 1231 L1362 1251 L1120 1009 Z" /></g><g class="o"><path transform="translate(7,14)" class="S sf" d="M1691 1358 L1889 1160 L1889 1170 L1691 1368 Z"/><path class="f4" d="M1691 1358 L1889 1160 L1889 1170 L1691 1368 Z" /></g><g class="o"><path transform="translate(2,4)" class="S sf" d="M1918 1567 L2641 844 L2653 844 L1930 1567 Z"/><path class="f3" d="M1918 1567 L2641 844 L2653 844 L1930 1567 Z" /></g><g class="o"><path transform="translate(4,8)" class="S ss" d="M1377 975 L1613 739 L1613 803 L1377 1039 Z"/><path class="s1" d="M1377 975 L1613 739 L1613 803 L1377 1039 Z" /></g><g class="o"><path transform="translate(9,18)" class="S sf" d="M1960 1663 L1724 1427 L1868 1427 L2104 1663 Z"/><path class="f3" d="M1960 1663 L1724 1427 L1868 1427 L2104 1663 Z" /></g><g class="o"><path transform="translate(8,16)" class="S sf" d="M1402 1409 L1732 1739 L1768 1739 L1438 1409 Z"/><path class="f1" d="M1402 1409 L1732 1739 L1768 1739 L1438 1409 Z" /></g><g class="o"><path transform="translate(8,16)" class="S sf" d="M1093 1562 L1405 1874 L1405 1884 L1093 1572 Z"/><path class="f4" d="M1093 1562 L1405 1874 L1405 1884 L1093 1572 Z" /></g><g class="o"><path transform="translate(6,12)" class="S sf" d="M1563 1057 L1746 1240 L1746 1288 L1563 1105 Z"/><path class="f4" d="M1563 1057 L1746 1240 L1746 1288 L1563 1105 Z" /></g><g class="o"><path transform="translate(9,18)" class="S sf" d="M1177 1946 L1401 2170 L1433 2170 L1209 1946 Z"/><path class="f7" d="M1177 1946 L1401 2170 L1433 2170 L1209 1946 Z" /></g><g class="o"><path transform="translate(3,6)" class="S sf" d="M1127 1331 L909 1113 L909 1161 L1127 1379 Z"/><path class="f2" d="M1127 1331 L909 1113 L909 1161 L1127 1379 Z" /></g><g class="o"><path transform="translate(3,6)" class="S sf" d="M1376 1041 L1441 976 L1463 976 L1398 1041 Z"/><path class="f3" d="M1376 1041 L1441 976 L1463 976 L1398 1041 Z" /></g><g class="o"><path transform="translate(5,10)" class="S sf" d="M1882 1469 L2416 935 L2416 957 L1882 1491 Z"/><path class="f1" d="M1882 1469 L2416 935 L2416 957 L1882 1491 Z" /></g><g class="o"><path transform="translate(5,10)" class="S sf" d="M1071 1619 L1494 1196 L1494 1244 L1071 1667 Z"/><path class="f2" d="M1071 1619 L1494 1196 L1494 1244 L1071 1667 Z" /></g><g class="o"><path transform="translate(5,10)" class="S sf" d="M1060 1659 L1219 1818 L1219 1836 L1060 1677 Z"/><path class="f2" d="M1060 1659 L1219 1818 L1219 1836 L1060 1677 Z" /></g><g class="o"><path transform="translate(9,18)" class="S sf" d="M1911 1853 L2109 1655 L2109 1767 L1911 1965 Z"/><path class="f7" d="M1911 1853 L2109 1655 L2109 1767 L1911 1965 Z" /></g><g class="o"><path transform="translate(9,18)" class="S sf" d="M960 1875 L486 2349 L500 2349 L974 1875 Z"/><path class="f1" d="M960 1875 L486 2349 L500 2349 L974 1875 Z" /></g><g class="o"><path transform="translate(5,10)" class="S sf" d="M1659 1313 L1891 1545 L2043 1545 L1811 1313 Z"/><path class="f4" d="M1659 1313 L1891 1545 L2043 1545 L1811 1313 Z" /></g><g class="o"><path transform="translate(9,18)" class="S sf" d="M1334 1788 L1462 1916 L1590 1916 L1462 1788 Z"/><path class="f7" d="M1334 1788 L1462 1916 L1590 1916 L1462 1788 Z" /></g><g class="o"><path transform="translate(8,16)" class="S sf" d="M1583 1970 L1813 2200 L1813 2312 L1583 2082 Z"/><path class="f4" d="M1583 1970 L1813 2200 L1813 2312 L1583 2082 Z" /></g><g class="o"><path transform="translate(2,4)" class="S ss" d="M1177 1420 L1238 1481 L1238 1495 L1177 1434 Z"/><path class="s7" d="M1177 1420 L1238 1481 L1238 1495 L1177 1434 Z" /></g><g class="o"><path transform="translate(3,6)" class="S sf" d="M1981 1575 L2554 1002 L2554 1036 L1981 1609 Z"/><path class="f5" d="M1981 1575 L2554 1002 L2554 1036 L1981 1609 Z" /></g><g class="o"><path transform="translate(3,6)" class="S sf" d="M1396 1167 L1738 1509 L1772 1509 L1430 1167 Z"/><path class="f1" d="M1396 1167 L1738 1509 L1772 1509 L1430 1167 Z" /></g><g class="o"><path transform="translate(3,6)" class="S sf" d="M1624 1553 L1430 1747 L1430 1767 L1624 1573 Z"/><path class="f4" d="M1624 1553 L1430 1747 L1430 1767 L1624 1573 Z" /></g><g class="o"><path transform="translate(6,12)" class="S sf" d="M1263 1041 L993 771 L1057 771 L1327 1041 Z"/><path class="f7" d="M1263 1041 L993 771 L1057 771 L1327 1041 Z" /></g><g class="o"><path transform="translate(7,14)" class="S sf" d="M1127 1796 L1418 1505 L1418 1535 L1127 1826 Z"/><path class="f6" d="M1127 1796 L1418 1505 L1418 1535 L1127 1826 Z" /></g><g class="o"><path transform="translate(7,14)" class="S sf" d="M1983 1955 L1785 1757 L1785 1861 L1983 2059 Z"/><path class="f3" d="M1983 1955 L1785 1757 L1785 1861 L1983 2059 Z" /></g><g class="o"><path transform="translate(3,6)" class="S sf" d="M1317 1616 L1539 1394 L1539 1402 L1317 1624 Z"/><path class="f5" d="M1317 1616 L1539 1394 L1539 1402 L1317 1624 Z" /></g><g class="o"><path transform="translate(3,6)" class="S sf" d="M1330 1878 L1150 1698 L1150 1726 L1330 1906 Z"/><path class="f5" d="M1330 1878 L1150 1698 L1150 1726 L1330 1906 Z" /></g><g class="o"><path transform="translate(6,12)" class="S sf" d="M1024 1229 L1249 1454 L1249 1492 L1024 1267 Z"/><path class="f2" d="M1024 1229 L1249 1454 L1249 1492 L1024 1267 Z" /></g><g class="o"><path transform="translate(5,10)" class="S sf" d="M1676 1248 L2198 726 L2198 762 L1676 1284 Z"/><path class="f7" d="M1676 1248 L2198 726 L2198 762 L1676 1284 Z" /></g><g class="o"><path transform="translate(9,18)" class="S sf" d="M1854 1816 L1956 1714 L1956 1744 L1854 1846 Z"/><path class="f7" d="M1854 1816 L1956 1714 L1956 1744 L1854 1846 Z" /></g><g class="o"><path transform="translate(2,4)" class="S sf" d="M1436 1054 L1586 904 L1586 1032 L1436 1182 Z"/><path class="f4" d="M1436 1054 L1586 904 L1586 1032 L1436 1182 Z" /></g></g><use href="#slashes" transform-origin="1500 1500" transform="rotate(180) scale(2)"/></g><rect x="1080" y="1080" width="840" height="840" stroke-width="40" class="o s1" /><use href="#slashes" transform-origin="1500 1500" transform="scale(.6)"/><use href="#slashes" transform-origin="1500 1500" transform="rotate(180) scale(.6)"/></svg>