<svg xmlns="http://www.w3.org/2000/svg" viewBox="750 750 1500 1500"><style>/*<![CDATA[*/svg{background:rgb(255,241,208);max-width:100vw;max-height:100vh}path{stroke-width:4}.o{opacity:.75}.S{opacity:.4}.sf{stroke:none;fill:black}.sfh{stroke:none;fill:url(#hs)}.sfv{stroke:none;fill:url(#vs)}.ss{stroke:black;fill:none}.ssh{stroke:url(#hs);fill:none}.ssv{stroke:url(#vs);fill:none}.s1{fill:none;stroke:rgb(8,103,136)}.f1{stroke:none;fill:rgb(8,103,136)}.sh1{fill:none;stroke:url(#h1)}.fh1{stroke:none;fill:url(#h1)}.sv1{fill:none;stroke:url(#v1)}.fv1{stroke:none;fill:url(#v1)}.s2{fill:none;stroke:rgb(6,174,213)}.f2{stroke:none;fill:rgb(6,174,213)}.sh2{fill:none;stroke:url(#h2)}.fh2{stroke:none;fill:url(#h2)}.sv2{fill:none;stroke:url(#v2)}.fv2{stroke:none;fill:url(#v2)}.s3{fill:none;stroke:rgb(240,200,8)}.f3{stroke:none;fill:rgb(240,200,8)}.sh3{fill:none;stroke:url(#h3)}.fh3{stroke:none;fill:url(#h3)}.sv3{fill:none;stroke:url(#v3)}.fv3{stroke:none;fill:url(#v3)}.s4{fill:none;stroke:rgb(34,34,34)}.f4{stroke:none;fill:rgb(34,34,34)}.sh4{fill:none;stroke:url(#h4)}.fh4{stroke:none;fill:url(#h4)}.sv4{fill:none;stroke:url(#v4)}.fv4{stroke:none;fill:url(#v4)}.s5{fill:none;stroke:rgb(221,28,26)}.f5{stroke:none;fill:rgb(221,28,26)}.sh5{fill:none;stroke:url(#h5)}.fh5{stroke:none;fill:url(#h5)}.sv5{fill:none;stroke:url(#v5)}.fv5{stroke:none;fill:url(#v5)}.s6{fill:none;stroke:rgb(255,255,255)}.f6{stroke:none;fill:rgb(255,255,255)}.sh6{fill:none;stroke:url(#h6)}.fh6{stroke:none;fill:url(#h6)}.sv6{fill:none;stroke:url(#v6)}.fv6{stroke:none;fill:url(#v6)}.s7{fill:none;stroke:rgb(255,0,0)}.f7{stroke:none;fill:rgb(255,0,0)}.sh7{fill:none;stroke:url(#h7)}.fh7{stroke:none;fill:url(#h7)}.sv7{fill:none;stroke:url(#v7)}.fv7{stroke:none;fill:url(#v7)}/*]]>*/</style><defs><linearGradient gradientTransform="rotate(90)" id="hs"><stop offset="20%" stop-color="#000" /><stop offset="95%" stop-color="rgba(0, 0, 0, 0)" /></linearGradient><linearGradient id="vs"><stop offset="20%" stop-color="#000" /><stop offset="95%" stop-color="rgba(0, 0, 0, 0)" /></linearGradient><linearGradient gradientTransform="rotate(90)" id="h1"><stop offset="20%" stop-color="rgba(8,103,136,1)" /><stop offset="95%" stop-color="rgba(8,103,136,0)" /></linearGradient><linearGradient id="v1"><stop offset="20%" stop-color="rgba(8,103,136,1)" /><stop offset="95%" stop-color="rgba(8,103,136,0)" /></linearGradient><linearGradient gradientTransform="rotate(90)" id="h2"><stop offset="20%" stop-color="rgba(6,174,213,1)" /><stop offset="95%" stop-color="rgba(6,174,213,0)" /></linearGradient><linearGradient id="v2"><stop offset="20%" stop-color="rgba(6,174,213,1)" /><stop offset="95%" stop-color="rgba(6,174,213,0)" /></linearGradient><linearGradient gradientTransform="rotate(90)" id="h3"><stop offset="20%" stop-color="rgba(240,200,8,1)" /><stop offset="95%" stop-color="rgba(240,200,8,0)" /></linearGradient><linearGradient id="v3"><stop offset="20%" stop-color="rgba(240,200,8,1)" /><stop offset="95%" stop-color="rgba(240,200,8,0)" /></linearGradient><linearGradient gradientTransform="rotate(90)" id="h4"><stop offset="20%" stop-color="rgba(34,34,34,1)" /><stop offset="95%" stop-color="rgba(34,34,34,0)" /></linearGradient><linearGradient id="v4"><stop offset="20%" stop-color="rgba(34,34,34,1)" /><stop offset="95%" stop-color="rgba(34,34,34,0)" /></linearGradient><linearGradient gradientTransform="rotate(90)" id="h5"><stop offset="20%" stop-color="rgba(221,28,26,1)" /><stop offset="95%" stop-color="rgba(221,28,26,0)" /></linearGradient><linearGradient id="v5"><stop offset="20%" stop-color="rgba(221,28,26,1)" /><stop offset="95%" stop-color="rgba(221,28,26,0)" /></linearGradient><linearGradient gradientTransform="rotate(90)" id="h6"><stop offset="20%" stop-color="rgba(255,255,255,1)" /><stop offset="95%" stop-color="rgba(255,255,255,0)" /></linearGradient><linearGradient id="v6"><stop offset="20%" stop-color="rgba(255,255,255,1)" /><stop offset="95%" stop-color="rgba(255,255,255,0)" /></linearGradient><linearGradient gradientTransform="rotate(90)" id="h7"><stop offset="20%" stop-color="rgba(255,0,0,1)" /><stop offset="95%" stop-color="rgba(255,0,0,0)" /></linearGradient><linearGradient id="v7"><stop offset="20%" stop-color="rgba(255,0,0,1)" /><stop offset="95%" stop-color="rgba(255,0,0,0)" /></linearGradient></defs><g transform-origin="1500 1500" transform="scale(2)" opacity=".2"><g id="slashes"><g class="o"><path transform="translate(4,8)" class="S sfv" d="M1086 1898 L916 2068 L916 2094 L1086 1924 Z"/><path class="fv6" d="M1086 1898 L916 2068 L916 2094 L1086 1924 Z" /></g><g class="o"><path transform="translate(5,10)" class="S ssh" d="M1115 1201 L974 1342 L994 1342 L1135 1201 Z"/><path class="sh1" d="M1115 1201 L974 1342 L994 1342 L1135 1201 Z" /></g><g class="o"><path transform="translate(4,8)" class="S sfh" d="M1590 1662 L1452 1524 L1466 1524 L1604 1662 Z"/><path class="fh5" d="M1590 1662 L1452 1524 L1466 1524 L1604 1662 Z" /></g><g class="o"><path transform="translate(3,6)" class="S ssv" d="M1134 1592 L890 1836 L890 1872 L1134 1628 Z"/><path class="sv2" d="M1134 1592 L890 1836 L890 1872 L1134 1628 Z" /></g><g class="o"><path transform="translate(5,10)" class="S sfv" d="M1790 1407 L1557 1174 L1557 1204 L1790 1437 Z"/><path class="fv7" d="M1790 1407 L1557 1174 L1557 1204 L1790 1437 Z" /></g><g class="o"><path transform="translate(2,4)" class="S sfv" d="M1041 1501 L976 1566 L976 1602 L1041 1537 Z"/><path class="fv1" d="M1041 1501 L976 1566 L976 1602 L1041 1537 Z" /></g><g class="o"><path transform="translate(4,8)" class="S sf" d="M1812 1362 L1575 1599 L1575 1621 L1812 1384 Z"/><path class="f4" d="M1812 1362 L1575 1599 L1575 1621 L1812 1384 Z" /></g><g class="o"><path transform="translate(2,4)" class="S sfv" d="M2043 1581 L1878 1746 L1878 1782 L2043 1617 Z"/><path class="fv6" d="M2043 1581 L1878 1746 L1878 1782 L2043 1617 Z" /></g><g class="o"><path transform="translate(4,8)" class="S sfv" d="M1832 1579 L1749 1662 L1749 1684 L1832 1601 Z"/><path class="fv7" d="M1832 1579 L1749 1662 L1749 1684 L1832 1601 Z" /></g><g class="o"><path transform="translate(6,12)" class="S sfh" d="M1626 1389 L1403 1612 L1417 1612 L1640 1389 Z"/><path class="fh3" d="M1626 1389 L1403 1612 L1417 1612 L1640 1389 Z" /></g><g class="o"><path transform="translate(2,4)" class="S sf" d="M1435 1013 L1373 951 L1407 951 L1469 1013 Z"/><path class="f7" d="M1435 1013 L1373 951 L1407 951 L1469 1013 Z" /></g><g class="o"><path transform="translate(3,6)" class="S sfh" d="M1608 1487 L1421 1300 L1435 1300 L1622 1487 Z"/><path class="fh7" d="M1608 1487 L1421 1300 L1435 1300 L1622 1487 Z" /></g><g class="o"><path transform="translate(4,8)" class="S sfv" d="M1857 1291 L1650 1084 L1650 1100 L1857 1307 Z"/><path class="fv6" d="M1857 1291 L1650 1084 L1650 1100 L1857 1307 Z" /></g><g class="o"><path transform="translate(7,14)" class="S sfv" d="M1281 1227 L1155 1101 L1155 1133 L1281 1259 Z"/><path class="fv7" d="M1281 1227 L1155 1101 L1155 1133 L1281 1259 Z" /></g><g class="o"><path transform="translate(5,10)" class="S sfv" d="M1116 1922 L926 2112 L926 2148 L1116 1958 Z"/><path class="fv5" d="M1116 1922 L926 2112 L926 2148 L1116 1958 Z" /></g><g class="o"><path transform="translate(7,14)" class="S sf" d="M2015 1642 L1814 1441 L1832 1441 L2033 1642 Z"/><path class="f7" d="M2015 1642 L1814 1441 L1832 1441 L2033 1642 Z" /></g><g class="o"><path transform="translate(7,14)" class="S ss" d="M1281 1931 L1174 2038 L1208 2038 L1315 1931 Z"/><path class="s4" d="M1281 1931 L1174 2038 L1208 2038 L1315 1931 Z" /></g><g class="o"><path transform="translate(8,16)" class="S sfh" d="M977 1504 L852 1629 L872 1629 L997 1504 Z"/><path class="fh3" d="M977 1504 L852 1629 L872 1629 L997 1504 Z" /></g><g class="o"><path transform="translate(8,16)" class="S sfh" d="M1889 1780 L1653 1544 L1661 1544 L1897 1780 Z"/><path class="fh7" d="M1889 1780 L1653 1544 L1661 1544 L1897 1780 Z" /></g><g class="o"><path transform="translate(7,14)" class="S sfv" d="M1720 1140 L1600 1020 L1600 1040 L1720 1160 Z"/><path class="fv3" d="M1720 1140 L1600 1020 L1600 1040 L1720 1160 Z" /></g><g class="o"><path transform="translate(6,12)" class="S sfh" d="M1773 1965 L1524 1716 L1644 1716 L1893 1965 Z"/><path class="fh5" d="M1773 1965 L1524 1716 L1644 1716 L1893 1965 Z" /></g><g class="o"><path transform="translate(8,16)" class="S sfh" d="M1297 1702 L1090 1495 L1126 1495 L1333 1702 Z"/><path class="fh5" d="M1297 1702 L1090 1495 L1126 1495 L1333 1702 Z" /></g><g class="o"><path transform="translate(7,14)" class="S ss" d="M990 1269 L859 1400 L859 1438 L990 1307 Z"/><path class="s1" d="M990 1269 L859 1400 L859 1438 L990 1307 Z" /></g><g class="o"><path transform="translate(8,16)" class="S sfh" d="M1720 2031 L1491 1802 L1511 1802 L1740 2031 Z"/><path class="fh5" d="M1720 2031 L1491 1802 L1511 1802 L1740 2031 Z" /></g><g class="o"><path transform="translate(8,16)" class="S sfh" d="M970 1531 L785 1346 L811 1346 L996 1531 Z"/><path class="fh6" d="M970 1531 L785 1346 L811 1346 L996 1531 Z" /></g><g class="o"><path transform="translate(2,4)" class="S sfv" d="M1437 1269 L1299 1131 L1299 1151 L1437 1289 Z"/><path class="fv6" d="M1437 1269 L1299 1131 L1299 1151 L1437 1289 Z" /></g><g class="o"><path transform="translate(5,10)" class="S ssh" d="M2042 1864 L1804 1626 L1812 1626 L2050 1864 Z"/><path class="sh7" d="M2042 1864 L1804 1626 L1812 1626 L2050 1864 Z" /></g><g class="o"><path transform="translate(9,18)" class="S ssh" d="M1879 1432 L1806 1505 L1842 1505 L1915 1432 Z"/><path class="sh7" d="M1879 1432 L1806 1505 L1842 1505 L1915 1432 Z" /></g><g class="o"><path transform="translate(8,16)" class="S ssv" d="M1763 1655 L1578 1470 L1578 1494 L1763 1679 Z"/><path class="sv4" d="M1763 1655 L1578 1470 L1578 1494 L1763 1679 Z" /></g><g class="o"><path transform="translate(2,4)" class="S sfv" d="M1814 1027 L1692 1149 L1692 1175 L1814 1053 Z"/><path class="fv1" d="M1814 1027 L1692 1149 L1692 1175 L1814 1053 Z" /></g><g class="o"><path transform="translate(8,16)" class="S sf" d="M1439 1791 L1282 1634 L1316 1634 L1473 1791 Z"/><path class="f2" d="M1439 1791 L1282 1634 L1316 1634 L1473 1791 Z" /></g><g class="o"><path transform="translate(4,8)" class="S sfv" d="M1614 2011 L1437 1834 L1437 1856 L1614 2033 Z"/><path class="fv4" d="M1614 2011 L1437 1834 L1437 1856 L1614 2033 Z" /></g><g class="o"><path transform="translate(8,16)" class="S sfv" d="M977 1870 L846 2001 L846 2009 L977 1878 Z"/><path class="fv7" d="M977 1870 L846 2001 L846 2009 L977 1878 Z" /></g><g class="o"><path transform="translate(8,16)" class="S ss" d="M2036 1207 L1825 996 L1825 1018 L2036 1229 Z"/><path class="s4" d="M2036 1207 L1825 996 L1825 1018 L2036 1229 Z" /></g><g class="o"><path transform="translate(9,18)" class="S sfv" d="M1575 1136 L1464 1247 L1464 1283 L1575 1172 Z"/><path class="fv3" d="M1575 1136 L1464 1247 L1464 1283 L1575 1172 Z" /></g><g class="o"><path transform="translate(7,14)" class="S sfv" d="M1662 1459 L1460 1661 L1460 1699 L1662 1497 Z"/><path class="fv6" d="M1662 1459 L1460 1661 L1460 1699 L1662 1497 Z" /></g><g class="o"><path transform="translate(3,6)" class="S ssv" d="M1770 1008 L1628 866 L1628 904 L1770 1046 Z"/><path class="sv5" d="M1770 1008 L1628 866 L1628 904 L1770 1046 Z" /></g><g class="o"><path transform="translate(4,8)" class="S sfv" d="M1603 1503 L1511 1595 L1511 1603 L1603 1511 Z"/><path class="fv4" d="M1603 1503 L1511 1595 L1511 1603 L1603 1511 Z" /></g><g class="o"><path transform="translate(4,8)" class="S sfv" d="M1169 990 L926 1233 L926 1337 L1169 1094 Z"/><path class="fv1" d="M1169 990 L926 1233 L926 1337 L1169 1094 Z" /></g><g class="o"><path transform="translate(2,4)" class="S sf" d="M1499 1363 L1258 1604 L1258 1634 L1499 1393 Z"/><path class="f2" d="M1499 1363 L1258 1604 L1258 1634 L1499 1393 Z" /></g><g class="o"><path transform="translate(5,10)" class="S sfv" d="M1329 1219 L1159 1389 L1159 1413 L1329 1243 Z"/><path class="fv4" d="M1329 1219 L1159 1389 L1159 1413 L1329 1243 Z" /></g><g class="o"><path transform="translate(9,18)" class="S sfh" d="M1642 1160 L1557 1075 L1583 1075 L1668 1160 Z"/><path class="fh3" d="M1642 1160 L1557 1075 L1583 1075 L1668 1160 Z" /></g><g class="o"><path transform="translate(4,8)" class="S sfh" d="M1454 1720 L1220 1954 L1258 1954 L1492 1720 Z"/><path class="fh5" d="M1454 1720 L1220 1954 L1258 1954 L1492 1720 Z" /></g><g class="o"><path transform="translate(9,18)" class="S sfv" d="M1240 1952 L1100 1812 L1100 1846 L1240 1986 Z"/><path class="fv5" d="M1240 1952 L1100 1812 L1100 1846 L1240 1986 Z" /></g><g class="o"><path transform="translate(4,8)" class="S sfv" d="M1422 1502 L1365 1559 L1365 1597 L1422 1540 Z"/><path class="fv6" d="M1422 1502 L1365 1559 L1365 1597 L1422 1540 Z" /></g><g class="o"><path transform="translate(9,18)" class="S sfv" d="M1757 1749 L1511 1503 L1511 1527 L1757 1773 Z"/><path class="fv6" d="M1757 1749 L1511 1503 L1511 1527 L1757 1773 Z" /></g><g class="o"><path transform="translate(5,10)" class="S sfv" d="M1809 1389 L1666 1532 L1666 1544 L1809 1401 Z"/><path class="fv3" d="M1809 1389 L1666 1532 L1666 1544 L1809 1401 Z" /></g><g class="o"><path transform="translate(4,8)" class="S sf" d="M1011 1071 L821 881 L821 895 L1011 1085 Z"/><path class="f2" d="M1011 1071 L821 881 L821 895 L1011 1085 Z" /></g><g class="o"><path transform="translate(3,6)" class="S sfv" d="M1338 1148 L1143 953 L1143 967 L1338 1162 Z"/><path class="fv3" d="M1338 1148 L1143 953 L1143 967 L1338 1162 Z" /></g><g class="o"><path transform="translate(8,16)" class="S sfh" d="M1598 1140 L1538 1080 L1550 1080 L1610 1140 Z"/><path class="fh4" d="M1598 1140 L1538 1080 L1550 1080 L1610 1140 Z" /></g><g class="o"><path transform="translate(4,8)" class="S ssh" d="M1537 1533 L1415 1655 L1431 1655 L1553 1533 Z"/><path class="sh2" d="M1537 1533 L1415 1655 L1431 1655 L1553 1533 Z" /></g><g class="o"><path transform="translate(6,12)" class="S sfh" d="M1900 1639 L1728 1467 L1762 1467 L1934 1639 Z"/><path class="fh1" d="M1900 1639 L1728 1467 L1762 1467 L1934 1639 Z" /></g><g class="o"><path transform="translate(9,18)" class="S sfv" d="M1989 1925 L1925 1861 L1925 1887 L1989 1951 Z"/><path class="fv4" d="M1989 1925 L1925 1861 L1925 1887 L1989 1951 Z" /></g><g class="o"><path transform="translate(4,8)" class="S sfh" d="M1885 1152 L1719 986 L1741 986 L1907 1152 Z"/><path class="fh7" d="M1885 1152 L1719 986 L1741 986 L1907 1152 Z" /></g><g class="o"><path transform="translate(5,10)" class="S sfv" d="M1918 1382 L1836 1300 L1836 1326 L1918 1408 Z"/><path class="fv3" d="M1918 1382 L1836 1300 L1836 1326 L1918 1408 Z" /></g><g class="o"><path transform="translate(4,8)" class="S sf" d="M1025 1363 L925 1263 L925 1273 L1025 1373 Z"/><path class="f4" d="M1025 1363 L925 1263 L925 1273 L1025 1373 Z" /></g><g class="o"><path transform="translate(2,4)" class="S sfh" d="M1538 1294 L1421 1411 L1437 1411 L1554 1294 Z"/><path class="fh5" d="M1538 1294 L1421 1411 L1437 1411 L1554 1294 Z" /></g><g class="o"><path transform="translate(8,16)" class="S sfh" d="M1297 963 L1114 780 L1128 780 L1311 963 Z"/><path class="fh5" d="M1297 963 L1114 780 L1128 780 L1311 963 Z" /></g><g class="o"><path transform="translate(6,12)" class="S sf" d="M1053 1212 L910 1355 L910 1395 L1053 1252 Z"/><path class="f4" d="M1053 1212 L910 1355 L910 1395 L1053 1252 Z" /></g><g class="o"><path transform="translate(2,4)" class="S sf" d="M1073 1978 L910 1815 L928 1815 L1091 1978 Z"/><path class="f3" d="M1073 1978 L910 1815 L928 1815 L1091 1978 Z" /></g><g class="o"><path transform="translate(5,10)" class="S sf" d="M1383 1149 L1208 1324 L1208 1356 L1383 1181 Z"/><path class="f5" d="M1383 1149 L1208 1324 L1208 1356 L1383 1181 Z" /></g><g class="o"><path transform="translate(9,18)" class="S ssh" d="M1706 1094 L1615 1003 L1627 1003 L1718 1094 Z"/><path class="sh7" d="M1706 1094 L1615 1003 L1627 1003 L1718 1094 Z" /></g><g class="o"><path transform="translate(7,14)" class="S sfh" d="M1819 1257 L1714 1362 L1752 1362 L1857 1257 Z"/><path class="fh2" d="M1819 1257 L1714 1362 L1752 1362 L1857 1257 Z" /></g><g class="o"><path transform="translate(4,8)" class="S sfv" d="M1642 1724 L1553 1635 L1553 1659 L1642 1748 Z"/><path class="fv6" d="M1642 1724 L1553 1635 L1553 1659 L1642 1748 Z" /></g><g class="o"><path transform="translate(8,16)" class="S sfh" d="M1719 995 L1494 1220 L1504 1220 L1729 995 Z"/><path class="fh5" d="M1719 995 L1494 1220 L1504 1220 L1729 995 Z" /></g><g class="o"><path transform="translate(3,6)" class="S sfv" d="M1016 1134 L945 1205 L945 1243 L1016 1172 Z"/><path class="fv3" d="M1016 1134 L945 1205 L945 1243 L1016 1172 Z" /></g><g class="o"><path transform="translate(8,16)" class="S sf" d="M1528 1493 L1473 1438 L1473 1452 L1528 1507 Z"/><path class="f6" d="M1528 1493 L1473 1438 L1473 1452 L1528 1507 Z" /></g><g class="o"><path transform="translate(9,18)" class="S sf" d="M1366 1003 L1222 859 L1222 871 L1366 1015 Z"/><path class="f5" d="M1366 1003 L1222 859 L1222 871 L1366 1015 Z" /></g><g class="o"><path transform="translate(6,12)" class="S sfh" d="M1414 1866 L1185 1637 L1215 1637 L1444 1866 Z"/><path class="fh3" d="M1414 1866 L1185 1637 L1215 1637 L1444 1866 Z" /></g><g class="o"><path transform="translate(7,14)" class="S sfh" d="M1799 1321 L1702 1224 L1712 1224 L1809 1321 Z"/><path class="fh1" d="M1799 1321 L1702 1224 L1712 1224 L1809 1321 Z" /></g><g class="o"><path transform="translate(5,10)" class="S sfv" d="M1264 1147 L1178 1061 L1178 1099 L1264 1185 Z"/><path class="fv4" d="M1264 1147 L1178 1061 L1178 1099 L1264 1185 Z" /></g><g class="o"><path transform="translate(9,18)" class="S sfv" d="M1706 1949 L1601 2054 L1601 2064 L1706 1959 Z"/><path class="fv7" d="M1706 1949 L1601 2054 L1601 2064 L1706 1959 Z" /></g><g class="o"><path transform="translate(5,10)" class="S ss" d="M1334 1701 L1168 1867 L1196 1867 L1362 1701 Z"/><path class="s1" d="M1334 1701 L1168 1867 L1196 1867 L1362 1701 Z" /></g><g class="o"><path transform="translate(8,16)" class="S sfh" d="M1006 1234 L770 998 L798 998 L1034 1234 Z"/><path class="fh4" d="M1006 1234 L770 998 L798 998 L1034 1234 Z" /></g><g class="o"><path transform="translate(5,10)" class="S sf" d="M1616 1747 L1385 1978 L1385 2016 L1616 1785 Z"/><path class="f6" d="M1616 1747 L1385 1978 L1385 2016 L1616 1785 Z" /></g><g class="o"><path transform="translate(6,12)" class="S ssh" d="M1752 1546 L1530 1324 L1552 1324 L1774 1546 Z"/><path class="sh2" d="M1752 1546 L1530 1324 L1552 1324 L1774 1546 Z" /></g><g class="o"><path transform="translate(7,14)" class="S ssv" d="M1790 1925 L1595 2120 L1595 2132 L1790 1937 Z"/><path class="sv1" d="M1790 1925 L1595 2120 L1595 2132 L1790 1937 Z" /></g><g class="o"><path transform="translate(2,4)" class="S sfh" d="M1887 1793 L1666 2014 L1700 2014 L1921 1793 Z"/><path class="fh6" d="M1887 1793 L1666 2014 L1700 2014 L1921 1793 Z" /></g><g class="o"><path transform="translate(3,6)" class="S ssv" d="M1177 1737 L931 1491 L931 1523 L1177 1769 Z"/><path class="sv7" d="M1177 1737 L931 1491 L931 1523 L1177 1769 Z" /></g><g class="o"><path transform="translate(5,10)" class="S sf" d="M1911 1070 L1748 1233 L1748 1243 L1911 1080 Z"/><path class="f3" d="M1911 1070 L1748 1233 L1748 1243 L1911 1080 Z" /></g><g class="o"><path transform="translate(2,4)" class="S sfv" d="M1069 1131 L964 1026 L964 1060 L1069 1165 Z"/><path class="fv6" d="M1069 1131 L964 1026 L964 1060 L1069 1165 Z" /></g><g class="o"><path transform="translate(7,14)" class="S ssh" d="M1956 1203 L1885 1132 L1897 1132 L1968 1203 Z"/><path class="sh7" d="M1956 1203 L1885 1132 L1897 1132 L1968 1203 Z" /></g><g class="o"><path transform="translate(2,4)" class="S sfv" d="M1217 1425 L1027 1235 L1027 1255 L1217 1445 Z"/><path class="fv5" d="M1217 1425 L1027 1235 L1027 1255 L1217 1445 Z" /></g><g class="o"><path transform="translate(2,4)" class="S sf" d="M1370 1329 L1150 1549 L1184 1549 L1404 1329 Z"/><path class="f2" d="M1370 1329 L1150 1549 L1184 1549 L1404 1329 Z" /></g><g class="o"><path transform="translate(2,4)" class="S sfv" d="M1636 1869 L1520 1985 L1520 1999 L1636 1883 Z"/><path class="fv1" d="M1636 1869 L1520 1985 L1520 1999 L1636 1883 Z" /></g><g class="o"><path transform="translate(5,10)" class="S ssv" d="M1805 1689 L1667 1827 L1667 1841 L1805 1703 Z"/><path class="sv7" d="M1805 1689 L1667 1827 L1667 1841 L1805 1703 Z" /></g><g class="o"><path transform="translate(5,10)" class="S sf" d="M1395 1271 L1156 1032 L1180 1032 L1419 1271 Z"/><path class="f3" d="M1395 1271 L1156 1032 L1180 1032 L1419 1271 Z" /></g><g class="o"><path transform="translate(6,12)" class="S sfh" d="M1432 1024 L1323 1133 L1361 1133 L1470 1024 Z"/><path class="fh5" d="M1432 1024 L1323 1133 L1361 1133 L1470 1024 Z" /></g><g class="o"><path transform="translate(3,6)" class="S sfv" d="M1906 1580 L1805 1681 L1805 1713 L1906 1612 Z"/><path class="fv6" d="M1906 1580 L1805 1681 L1805 1713 L1906 1612 Z" /></g><g class="o"><path transform="translate(8,16)" class="S ssh" d="M1161 1543 L1084 1466 L1148 1466 L1225 1543 Z"/><path class="sh4" d="M1161 1543 L1084 1466 L1148 1466 L1225 1543 Z" /></g><g class="o"><path transform="translate(8,16)" class="S sfh" d="M1388 1394 L1311 1471 L1347 1471 L1424 1394 Z"/><path class="fh7" d="M1388 1394 L1311 1471 L1347 1471 L1424 1394 Z" /></g><g class="o"><path transform="translate(6,12)" class="S sf" d="M938 1448 L785 1601 L813 1601 L966 1448 Z"/><path class="f4" d="M938 1448 L785 1601 L813 1601 L966 1448 Z" /></g><g class="o"><path transform="translate(9,18)" class="S sfv" d="M1365 1162 L1177 1350 L1177 1380 L1365 1192 Z"/><path class="fv1" d="M1365 1162 L1177 1350 L1177 1380 L1365 1192 Z" /></g><g class="o"><path transform="translate(5,10)" class="S sf" d="M1266 1724 L1101 1559 L1117 1559 L1282 1724 Z"/><path class="f3" d="M1266 1724 L1101 1559 L1117 1559 L1282 1724 Z" /></g><g class="o"><path transform="translate(5,10)" class="S sfv" d="M1179 1390 L996 1207 L996 1221 L1179 1404 Z"/><path class="fv3" d="M1179 1390 L996 1207 L996 1221 L1179 1404 Z" /></g><g class="o"><path transform="translate(2,4)" class="S sfh" d="M1601 1946 L1502 1847 L1526 1847 L1625 1946 Z"/><path class="fh6" d="M1601 1946 L1502 1847 L1526 1847 L1625 1946 Z" /></g><g class="o"><path transform="translate(2,4)" class="S ssv" d="M1791 1201 L1732 1260 L1732 1274 L1791 1215 Z"/><path class="sv4" d="M1791 1201 L1732 1260 L1732 1274 L1791 1215 Z" /></g><g class="o"><path transform="translate(7,14)" class="S sf" d="M1592 1057 L1456 921 L1456 993 L1592 1129 Z"/><path class="f4" d="M1592 1057 L1456 921 L1456 993 L1592 1129 Z" /></g><g class="o"><path transform="translate(3,6)" class="S sfh" d="M1131 1151 L915 935 L939 935 L1155 1151 Z"/><path class="fh3" d="M1131 1151 L915 935 L939 935 L1155 1151 Z" /></g><g class="o"><path transform="translate(5,10)" class="S ssh" d="M1636 1513 L1511 1638 L1599 1638 L1724 1513 Z"/><path class="sh2" d="M1636 1513 L1511 1638 L1599 1638 L1724 1513 Z" /></g><g class="o"><path transform="translate(6,12)" class="S sfv" d="M1469 1314 L1252 1531 L1252 1547 L1469 1330 Z"/><path class="fv7" d="M1469 1314 L1252 1531 L1252 1547 L1469 1330 Z" /></g><g class="o"><path transform="translate(8,16)" class="S ssv" d="M1689 1605 L1520 1436 L1520 1580 L1689 1749 Z"/><path class="sv3" d="M1689 1605 L1520 1436 L1520 1580 L1689 1749 Z" /></g><g class="o"><path transform="translate(2,4)" class="S sfh" d="M1565 1621 L1468 1718 L1482 1718 L1579 1621 Z"/><path class="fh4" d="M1565 1621 L1468 1718 L1482 1718 L1579 1621 Z" /></g><g class="o"><path transform="translate(8,16)" class="S sf" d="M1882 1791 L1810 1863 L1810 1879 L1882 1807 Z"/><path class="f1" d="M1882 1791 L1810 1863 L1810 1879 L1882 1807 Z" /></g><g class="o"><path transform="translate(3,6)" class="S ssh" d="M1436 953 L1307 1082 L1339 1082 L1468 953 Z"/><path class="sh3" d="M1436 953 L1307 1082 L1339 1082 L1468 953 Z" /></g><g class="o"><path transform="translate(5,10)" class="S sfv" d="M1540 1477 L1393 1330 L1393 1370 L1540 1517 Z"/><path class="fv7" d="M1540 1477 L1393 1330 L1393 1370 L1540 1517 Z" /></g><g class="o"><path transform="translate(3,6)" class="S sfh" d="M1392 1606 L1166 1380 L1198 1380 L1424 1606 Z"/><path class="fh7" d="M1392 1606 L1166 1380 L1198 1380 L1424 1606 Z" /></g><g class="o"><path transform="translate(6,12)" class="S sf" d="M1590 1266 L1383 1473 L1383 1495 L1590 1288 Z"/><path class="f7" d="M1590 1266 L1383 1473 L1383 1495 L1590 1288 Z" /></g><g class="o"><path transform="translate(3,6)" class="S sfh" d="M1137 1089 L1023 975 L1047 975 L1161 1089 Z"/><path class="fh6" d="M1137 1089 L1023 975 L1047 975 L1161 1089 Z" /></g><g class="o"><path transform="translate(6,12)" class="S sf" d="M1315 1504 L1193 1626 L1193 1648 L1315 1526 Z"/><path class="f3" d="M1315 1504 L1193 1626 L1193 1648 L1315 1526 Z" /></g><g class="o"><path transform="translate(3,6)" class="S ssh" d="M1805 1593 L1630 1768 L1648 1768 L1823 1593 Z"/><path class="sh3" d="M1805 1593 L1630 1768 L1648 1768 L1823 1593 Z" /></g><g class="o"><path transform="translate(8,16)" class="S sfv" d="M1553 1621 L1392 1460 L1392 1472 L1553 1633 Z"/><path class="fv1" d="M1553 1621 L1392 1460 L1392 1472 L1553 1633 Z" /></g><g class="o"><path transform="translate(4,8)" class="S sf" d="M1048 1394 L912 1530 L912 1546 L1048 1410 Z"/><path class="f2" d="M1048 1394 L912 1530 L912 1546 L1048 1410 Z" /></g><g class="o"><path transform="translate(9,18)" class="S ss" d="M1280 1504 L1181 1405 L1207 1405 L1306 1504 Z"/><path class="s1" d="M1280 1504 L1181 1405 L1207 1405 L1306 1504 Z" /></g><g class="o"><path transform="translate(3,6)" class="S sfv" d="M989 1023 L881 1131 L881 1153 L989 1045 Z"/><path class="fv4" d="M989 1023 L881 1131 L881 1153 L989 1045 Z" /></g><g class="o"><path transform="translate(6,12)" class="S ssv" d="M1051 1838 L810 2079 L810 2109 L1051 1868 Z"/><path class="sv3" d="M1051 1838 L810 2079 L810 2109 L1051 1868 Z" /></g><g class="o"><path transform="translate(9,18)" class="S sf" d="M1090 1861 L983 1968 L983 1980 L1090 1873 Z"/><path class="f7" d="M1090 1861 L983 1968 L983 1980 L1090 1873 Z" /></g><g class="o"><path transform="translate(2,4)" class="S ssv" d="M1325 1873 L1179 2019 L1179 2047 L1325 1901 Z"/><path class="sv4" d="M1325 1873 L1179 2019 L1179 2047 L1325 1901 Z" /></g><g class="o"><path transform="translate(8,16)" class="S sf" d="M1894 1174 L1655 935 L1687 935 L1926 1174 Z"/><path class="f2" d="M1894 1174 L1655 935 L1687 935 L1926 1174 Z" /></g><g class="o"><path transform="translate(4,8)" class="S sfv" d="M992 1264 L808 1448 L808 1458 L992 1274 Z"/><path class="fv6" d="M992 1264 L808 1448 L808 1458 L992 1274 Z" /></g><g class="o"><path transform="translate(5,10)" class="S sf" d="M1842 1004 L1782 1064 L1812 1064 L1872 1004 Z"/><path class="f6" d="M1842 1004 L1782 1064 L1812 1064 L1872 1004 Z" /></g><g class="o"><path transform="translate(6,12)" class="S sfv" d="M996 1769 L906 1859 L906 1883 L996 1793 Z"/><path class="fv2" d="M996 1769 L906 1859 L906 1883 L996 1793 Z" /></g><g class="o"><path transform="translate(4,8)" class="S ssh" d="M1726 1462 L1648 1384 L1686 1384 L1764 1462 Z"/><path class="sh2" d="M1726 1462 L1648 1384 L1686 1384 L1764 1462 Z" /></g><g class="o"><path transform="translate(6,12)" class="S sf" d="M1297 1314 L1189 1206 L1189 1220 L1297 1328 Z"/><path class="f3" d="M1297 1314 L1189 1206 L1189 1220 L1297 1328 Z" /></g><g class="o"><path transform="translate(9,18)" class="S sfh" d="M1926 1550 L1705 1329 L1729 1329 L1950 1550 Z"/><path class="fh7" d="M1926 1550 L1705 1329 L1729 1329 L1950 1550 Z" /></g><g class="o"><path transform="translate(2,4)" class="S sfh" d="M1357 1072 L1213 928 L1227 928 L1371 1072 Z"/><path class="fh4" d="M1357 1072 L1213 928 L1227 928 L1371 1072 Z" /></g><g class="o"><path transform="translate(4,8)" class="S sf" d="M1817 1916 L1628 2105 L1666 2105 L1855 1916 Z"/><path class="f7" d="M1817 1916 L1628 2105 L1666 2105 L1855 1916 Z" /></g><g class="o"><path transform="translate(6,12)" class="S sfh" d="M1534 1787 L1482 1839 L1506 1839 L1558 1787 Z"/><path class="fh6" d="M1534 1787 L1482 1839 L1506 1839 L1558 1787 Z" /></g><g class="o"><path transform="translate(9,18)" class="S sf" d="M1359 1399 L1263 1303 L1263 1339 L1359 1435 Z"/><path class="f2" d="M1359 1399 L1263 1303 L1263 1339 L1359 1435 Z" /></g><g class="o"><path transform="translate(5,10)" class="S sfh" d="M1429 1434 L1252 1257 L1290 1257 L1467 1434 Z"/><path class="fh1" d="M1429 1434 L1252 1257 L1290 1257 L1467 1434 Z" /></g><g class="o"><path transform="translate(7,14)" class="S ssv" d="M1201 1335 L1038 1498 L1038 1512 L1201 1349 Z"/><path class="sv5" d="M1201 1335 L1038 1498 L1038 1512 L1201 1349 Z" /></g><g class="o"><path transform="translate(5,10)" class="S sf" d="M1930 1037 L1790 1177 L1790 1217 L1930 1077 Z"/><path class="f1" d="M1930 1037 L1790 1177 L1790 1217 L1930 1077 Z" /></g><g class="o"><path transform="translate(6,12)" class="S sfh" d="M1304 1918 L1162 2060 L1186 2060 L1328 1918 Z"/><path class="fh7" d="M1304 1918 L1162 2060 L1186 2060 L1328 1918 Z" /></g><g class="o"><path transform="translate(2,4)" class="S sfv" d="M1046 1172 L908 1034 L908 1062 L1046 1200 Z"/><path class="fv1" d="M1046 1172 L908 1034 L908 1062 L1046 1200 Z" /></g><g class="o"><path transform="translate(8,16)" class="S sfv" d="M1143 1099 L977 933 L977 955 L1143 1121 Z"/><path class="fv4" d="M1143 1099 L977 933 L977 955 L1143 1121 Z" /></g><g class="o"><path transform="translate(3,6)" class="S sfv" d="M1053 1561 L922 1430 L922 1456 L1053 1587 Z"/><path class="fv1" d="M1053 1561 L922 1430 L922 1456 L1053 1587 Z" /></g><g class="o"><path transform="translate(7,14)" class="S sfv" d="M1866 1287 L1767 1386 L1767 1424 L1866 1325 Z"/><path class="fv1" d="M1866 1287 L1767 1386 L1767 1424 L1866 1325 Z" /></g><g class="o"><path transform="translate(9,18)" class="S sfv" d="M1408 1896 L1242 2062 L1242 2088 L1408 1922 Z"/><path class="fv3" d="M1408 1896 L1242 2062 L1242 2088 L1408 1922 Z" /></g><g class="o"><path transform="translate(8,16)" class="S sfh" d="M1207 1374 L1125 1456 L1133 1456 L1215 1374 Z"/><path class="fh6" d="M1207 1374 L1125 1456 L1133 1456 L1215 1374 Z" /></g><g class="o"><path transform="translate(2,4)" class="S sfv" d="M1238 1290 L993 1045 L993 1057 L1238 1302 Z"/><path class="fv7" d="M1238 1290 L993 1045 L993 1057 L1238 1302 Z" /></g><g class="o"><path transform="translate(6,12)" class="S sfh" d="M1735 1804 L1498 1567 L1522 1567 L1759 1804 Z"/><path class="fh1" d="M1735 1804 L1498 1567 L1522 1567 L1759 1804 Z" /></g><g class="o"><path transform="translate(2,4)" class="S ss" d="M955 955 L857 1053 L867 1053 L965 955 Z"/><path class="s7" d="M955 955 L857 1053 L867 1053 L965 955 Z" /></g><g class="o"><path transform="translate(9,18)" class="S sfh" d="M1489 1506 L1400 1417 L1416 1417 L1505 1506 Z"/><path class="fh3" d="M1489 1506 L1400 1417 L1416 1417 L1505 1506 Z" /></g><g class="o"><path transform="translate(8,16)" class="S sf" d="M1846 1912 L1667 2091 L1731 2091 L1910 1912 Z"/><path class="f1" d="M1846 1912 L1667 2091 L1731 2091 L1910 1912 Z" /></g><g class="o"><path transform="translate(3,6)" class="S ss" d="M1355 1029 L1168 842 L1168 872 L1355 1059 Z"/><path class="s6" d="M1355 1029 L1168 842 L1168 872 L1355 1059 Z" /></g><g class="o"><path transform="translate(6,12)" class="S sfh" d="M1462 1616 L1264 1814 L1280 1814 L1478 1616 Z"/><path class="fh3" d="M1462 1616 L1264 1814 L1280 1814 L1478 1616 Z" /></g><g class="o"><path transform="translate(4,8)" class="S sfh" d="M1475 1915 L1285 2105 L1303 2105 L1493 1915 Z"/><path class="fh6" d="M1475 1915 L1285 2105 L1303 2105 L1493 1915 Z" /></g><g class="o"><path transform="translate(6,12)" class="S sf" d="M1865 1874 L1756 1765 L1770 1765 L1879 1874 Z"/><path class="f7" d="M1865 1874 L1756 1765 L1770 1765 L1879 1874 Z" /></g><g class="o"><path transform="translate(5,10)" class="S sfv" d="M1086 1332 L871 1117 L871 1133 L1086 1348 Z"/><path class="fv5" d="M1086 1332 L871 1117 L871 1133 L1086 1348 Z" /></g><g class="o"><path transform="translate(7,14)" class="S sf" d="M1250 1864 L1065 1679 L1065 1791 L1250 1976 Z"/><path class="f3" d="M1250 1864 L1065 1679 L1065 1791 L1250 1976 Z" /></g></g><use href="#slashes" transform-origin="1500 1500" transform="rotate(180) scale(2)"/></g><rect x="1080" y="1080" width="840" height="840" stroke-width="80" class="o s7" /><use href="#slashes" transform-origin="1500 1500" transform="scale(.6)"/><use href="#slashes" transform-origin="1500 1500" transform="rotate(180) scale(.6)"/></svg>