<svg xmlns="http://www.w3.org/2000/svg" viewBox="750 750 1500 1500"><style>/*<![CDATA[*/svg{background:rgb(152,193,217);max-width:100vw;max-height:100vh}path{stroke-width:4}.o{opacity:.75}.S{opacity:.4}.sf{stroke:none;fill:black}.sfh{stroke:none;fill:url(#hs)}.sfv{stroke:none;fill:url(#vs)}.ss{stroke:black;fill:none}.ssh{stroke:url(#hs);fill:none}.ssv{stroke:url(#vs);fill:none}.s1{fill:none;stroke:rgb(61,90,128)}.f1{stroke:none;fill:rgb(61,90,128)}.sh1{fill:none;stroke:url(#h1)}.fh1{stroke:none;fill:url(#h1)}.sv1{fill:none;stroke:url(#v1)}.fv1{stroke:none;fill:url(#v1)}.s2{fill:none;stroke:rgb(238,108,77)}.f2{stroke:none;fill:rgb(238,108,77)}.sh2{fill:none;stroke:url(#h2)}.fh2{stroke:none;fill:url(#h2)}.sv2{fill:none;stroke:url(#v2)}.fv2{stroke:none;fill:url(#v2)}.s3{fill:none;stroke:rgb(34,34,34)}.f3{stroke:none;fill:rgb(34,34,34)}.sh3{fill:none;stroke:url(#h3)}.fh3{stroke:none;fill:url(#h3)}.sv3{fill:none;stroke:url(#v3)}.fv3{stroke:none;fill:url(#v3)}.s4{fill:none;stroke:rgb(41,50,65)}.f4{stroke:none;fill:rgb(41,50,65)}.sh4{fill:none;stroke:url(#h4)}.fh4{stroke:none;fill:url(#h4)}.sv4{fill:none;stroke:url(#v4)}.fv4{stroke:none;fill:url(#v4)}.s5{fill:none;stroke:rgb(224,251,252)}.f5{stroke:none;fill:rgb(224,251,252)}.sh5{fill:none;stroke:url(#h5)}.fh5{stroke:none;fill:url(#h5)}.sv5{fill:none;stroke:url(#v5)}.fv5{stroke:none;fill:url(#v5)}.s6{fill:none;stroke:rgb(255,255,255)}.f6{stroke:none;fill:rgb(255,255,255)}.sh6{fill:none;stroke:url(#h6)}.fh6{stroke:none;fill:url(#h6)}.sv6{fill:none;stroke:url(#v6)}.fv6{stroke:none;fill:url(#v6)}.s7{fill:none;stroke:rgb(255,0,0)}.f7{stroke:none;fill:rgb(255,0,0)}.sh7{fill:none;stroke:url(#h7)}.fh7{stroke:none;fill:url(#h7)}.sv7{fill:none;stroke:url(#v7)}.fv7{stroke:none;fill:url(#v7)}/*]]>*/</style><defs><linearGradient gradientTransform="rotate(90)" id="hs"><stop offset="20%" stop-color="#000" /><stop offset="95%" stop-color="rgba(0, 0, 0, 0)" /></linearGradient><linearGradient id="vs"><stop offset="20%" stop-color="#000" /><stop offset="95%" stop-color="rgba(0, 0, 0, 0)" /></linearGradient><linearGradient gradientTransform="rotate(90)" id="h1"><stop offset="20%" stop-color="rgba(61,90,128,1)" /><stop offset="95%" stop-color="rgba(61,90,128,0)" /></linearGradient><linearGradient id="v1"><stop offset="20%" stop-color="rgba(61,90,128,1)" /><stop offset="95%" stop-color="rgba(61,90,128,0)" /></linearGradient><linearGradient gradientTransform="rotate(90)" id="h2"><stop offset="20%" stop-color="rgba(238,108,77,1)" /><stop offset="95%" stop-color="rgba(238,108,77,0)" /></linearGradient><linearGradient id="v2"><stop offset="20%" stop-color="rgba(238,108,77,1)" /><stop offset="95%" stop-color="rgba(238,108,77,0)" /></linearGradient><linearGradient gradientTransform="rotate(90)" id="h3"><stop offset="20%" stop-color="rgba(34,34,34,1)" /><stop offset="95%" stop-color="rgba(34,34,34,0)" /></linearGradient><linearGradient id="v3"><stop offset="20%" stop-color="rgba(34,34,34,1)" /><stop offset="95%" stop-color="rgba(34,34,34,0)" /></linearGradient><linearGradient gradientTransform="rotate(90)" id="h4"><stop offset="20%" stop-color="rgba(41,50,65,1)" /><stop offset="95%" stop-color="rgba(41,50,65,0)" /></linearGradient><linearGradient id="v4"><stop offset="20%" stop-color="rgba(41,50,65,1)" /><stop offset="95%" stop-color="rgba(41,50,65,0)" /></linearGradient><linearGradient gradientTransform="rotate(90)" id="h5"><stop offset="20%" stop-color="rgba(224,251,252,1)" /><stop offset="95%" stop-color="rgba(224,251,252,0)" /></linearGradient><linearGradient id="v5"><stop offset="20%" stop-color="rgba(224,251,252,1)" /><stop offset="95%" stop-color="rgba(224,251,252,0)" /></linearGradient><linearGradient gradientTransform="rotate(90)" id="h6"><stop offset="20%" stop-color="rgba(255,255,255,1)" /><stop offset="95%" stop-color="rgba(255,255,255,0)" /></linearGradient><linearGradient id="v6"><stop offset="20%" stop-color="rgba(255,255,255,1)" /><stop offset="95%" stop-color="rgba(255,255,255,0)" /></linearGradient><linearGradient gradientTransform="rotate(90)" id="h7"><stop offset="20%" stop-color="rgba(255,0,0,1)" /><stop offset="95%" stop-color="rgba(255,0,0,0)" /></linearGradient><linearGradient id="v7"><stop offset="20%" stop-color="rgba(255,0,0,1)" /><stop offset="95%" stop-color="rgba(255,0,0,0)" /></linearGradient></defs><g transform-origin="1500 1500" transform="scale(2)" opacity=".6"><g id="slashes"><g class="o"><path transform="translate(6,12)" class="S ss" d="M1610 1303 L1465 1448 L1479 1448 L1624 1303 Z"/><path class="s1" d="M1610 1303 L1465 1448 L1479 1448 L1624 1303 Z" /></g><g class="o"><path transform="translate(5,10)" class="S sfv" d="M1406 1849 L1247 2008 L1247 2030 L1406 1871 Z"/><path class="fv5" d="M1406 1849 L1247 2008 L1247 2030 L1406 1871 Z" /></g><g class="o"><path transform="translate(4,8)" class="S sfh" d="M1724 2028 L1599 1903 L1619 1903 L1744 2028 Z"/><path class="fh3" d="M1724 2028 L1599 1903 L1619 1903 L1744 2028 Z" /></g><g class="o"><path transform="translate(3,6)" class="S sfh" d="M1857 1889 L1684 2062 L1722 2062 L1895 1889 Z"/><path class="fh1" d="M1857 1889 L1684 2062 L1722 2062 L1895 1889 Z" /></g><g class="o"><path transform="translate(2,4)" class="S sfh" d="M1604 1873 L1190 2287 L1224 2287 L1638 1873 Z"/><path class="fh5" d="M1604 1873 L1190 2287 L1224 2287 L1638 1873 Z" /></g><g class="o"><path transform="translate(5,10)" class="S sfh" d="M1658 2020 L911 2767 L947 2767 L1694 2020 Z"/><path class="fh3" d="M1658 2020 L911 2767 L947 2767 L1694 2020 Z" /></g><g class="o"><path transform="translate(2,4)" class="S ssh" d="M1558 1945 L1372 1759 L1402 1759 L1588 1945 Z"/><path class="sh7" d="M1558 1945 L1372 1759 L1402 1759 L1588 1945 Z" /></g><g class="o"><path transform="translate(5,10)" class="S sfh" d="M1233 1862 L1145 1950 L1157 1950 L1245 1862 Z"/><path class="fh1" d="M1233 1862 L1145 1950 L1157 1950 L1245 1862 Z" /></g><g class="o"><path transform="translate(2,4)" class="S ssh" d="M1175 1953 L952 1730 L964 1730 L1187 1953 Z"/><path class="sh1" d="M1175 1953 L952 1730 L964 1730 L1187 1953 Z" /></g><g class="o"><path transform="translate(5,10)" class="S sf" d="M1708 1780 L1470 2018 L1492 2018 L1730 1780 Z"/><path class="f6" d="M1708 1780 L1470 2018 L1492 2018 L1730 1780 Z" /></g><g class="o"><path transform="translate(2,4)" class="S sf" d="M1658 1790 L1519 1651 L1519 1661 L1658 1800 Z"/><path class="f2" d="M1658 1790 L1519 1651 L1519 1661 L1658 1800 Z" /></g><g class="o"><path transform="translate(4,8)" class="S ss" d="M1029 1836 L795 2070 L795 2142 L1029 1908 Z"/><path class="s6" d="M1029 1836 L795 2070 L795 2142 L1029 1908 Z" /></g><g class="o"><path transform="translate(8,16)" class="S sfv" d="M1511 1471 L1396 1356 L1396 1392 L1511 1507 Z"/><path class="fv7" d="M1511 1471 L1396 1356 L1396 1392 L1511 1507 Z" /></g><g class="o"><path transform="translate(9,18)" class="S ssv" d="M1518 1668 L1341 1845 L1341 1875 L1518 1698 Z"/><path class="sv3" d="M1518 1668 L1341 1845 L1341 1875 L1518 1698 Z" /></g><g class="o"><path transform="translate(9,18)" class="S sfh" d="M1988 1552 L1842 1698 L1880 1698 L2026 1552 Z"/><path class="fh2" d="M1988 1552 L1842 1698 L1880 1698 L2026 1552 Z" /></g><g class="o"><path transform="translate(6,12)" class="S sfv" d="M1388 2009 L1332 1953 L1332 1975 L1388 2031 Z"/><path class="fv6" d="M1388 2009 L1332 1953 L1332 1975 L1388 2031 Z" /></g><g class="o"><path transform="translate(4,8)" class="S ssv" d="M1832 1261 L1744 1349 L1744 1381 L1832 1293 Z"/><path class="sv4" d="M1832 1261 L1744 1349 L1744 1381 L1832 1293 Z" /></g><g class="o"><path transform="translate(8,16)" class="S sfh" d="M1929 1074 L1710 855 L1722 855 L1941 1074 Z"/><path class="fh6" d="M1929 1074 L1710 855 L1722 855 L1941 1074 Z" /></g><g class="o"><path transform="translate(3,6)" class="S sfv" d="M1143 1853 L973 1683 L973 1693 L1143 1863 Z"/><path class="fv3" d="M1143 1853 L973 1683 L973 1693 L1143 1863 Z" /></g><g class="o"><path transform="translate(7,14)" class="S sf" d="M1304 1778 L1166 1916 L1286 1916 L1424 1778 Z"/><path class="f2" d="M1304 1778 L1166 1916 L1286 1916 L1424 1778 Z" /></g><g class="o"><path transform="translate(4,8)" class="S sfh" d="M1229 1932 L1128 2033 L1164 2033 L1265 1932 Z"/><path class="fh2" d="M1229 1932 L1128 2033 L1164 2033 L1265 1932 Z" /></g><g class="o"><path transform="translate(6,12)" class="S sf" d="M1187 1637 L1074 1750 L1102 1750 L1215 1637 Z"/><path class="f5" d="M1187 1637 L1074 1750 L1102 1750 L1215 1637 Z" /></g><g class="o"><path transform="translate(2,4)" class="S ssv" d="M1183 1939 L838 2284 L838 2310 L1183 1965 Z"/><path class="sv1" d="M1183 1939 L838 2284 L838 2310 L1183 1965 Z" /></g><g class="o"><path transform="translate(3,6)" class="S sfh" d="M1310 1042 L581 1771 L597 1771 L1326 1042 Z"/><path class="fh6" d="M1310 1042 L581 1771 L597 1771 L1326 1042 Z" /></g><g class="o"><path transform="translate(8,16)" class="S sfv" d="M1936 948 L1864 876 L1864 888 L1936 960 Z"/><path class="fv3" d="M1936 948 L1864 876 L1864 888 L1936 960 Z" /></g><g class="o"><path transform="translate(6,12)" class="S sfh" d="M1855 2011 L1607 1763 L1623 1763 L1871 2011 Z"/><path class="fh4" d="M1855 2011 L1607 1763 L1623 1763 L1871 2011 Z" /></g><g class="o"><path transform="translate(5,10)" class="S sfh" d="M983 1841 L766 2058 L788 2058 L1005 1841 Z"/><path class="fh7" d="M983 1841 L766 2058 L788 2058 L1005 1841 Z" /></g><g class="o"><path transform="translate(3,6)" class="S sf" d="M2019 1432 L1950 1501 L1962 1501 L2031 1432 Z"/><path class="f7" d="M2019 1432 L1950 1501 L1962 1501 L2031 1432 Z" /></g><g class="o"><path transform="translate(5,10)" class="S sf" d="M1514 1934 L1272 2176 L1280 2176 L1522 1934 Z"/><path class="f6" d="M1514 1934 L1272 2176 L1280 2176 L1522 1934 Z" /></g><g class="o"><path transform="translate(3,6)" class="S sfh" d="M1442 1069 L1303 1208 L1399 1208 L1538 1069 Z"/><path class="fh7" d="M1442 1069 L1303 1208 L1399 1208 L1538 1069 Z" /></g><g class="o"><path transform="translate(5,10)" class="S sfh" d="M1532 1836 L1402 1706 L1426 1706 L1556 1836 Z"/><path class="fh4" d="M1532 1836 L1402 1706 L1426 1706 L1556 1836 Z" /></g><g class="o"><path transform="translate(8,16)" class="S sfv" d="M1185 968 L1001 784 L1001 806 L1185 990 Z"/><path class="fv1" d="M1185 968 L1001 784 L1001 806 L1185 990 Z" /></g><g class="o"><path transform="translate(5,10)" class="S ssh" d="M1400 1077 L1172 1305 L1186 1305 L1414 1077 Z"/><path class="sh2" d="M1400 1077 L1172 1305 L1186 1305 L1414 1077 Z" /></g><g class="o"><path transform="translate(4,8)" class="S ssv" d="M1795 1872 L1282 1359 L1282 1367 L1795 1880 Z"/><path class="sv4" d="M1795 1872 L1282 1359 L1282 1367 L1795 1880 Z" /></g><g class="o"><path transform="translate(2,4)" class="S sf" d="M1164 2037 L1006 1879 L1006 1899 L1164 2057 Z"/><path class="f6" d="M1164 2037 L1006 1879 L1006 1899 L1164 2057 Z" /></g><g class="o"><path transform="translate(5,10)" class="S sfv" d="M1298 1240 L896 1642 L896 1674 L1298 1272 Z"/><path class="fv6" d="M1298 1240 L896 1642 L896 1674 L1298 1272 Z" /></g><g class="o"><path transform="translate(5,10)" class="S sf" d="M1491 1684 L1230 1945 L1262 1945 L1523 1684 Z"/><path class="f7" d="M1491 1684 L1230 1945 L1262 1945 L1523 1684 Z" /></g><g class="o"><path transform="translate(4,8)" class="S sfv" d="M1759 935 L1531 1163 L1531 1275 L1759 1047 Z"/><path class="fv4" d="M1759 935 L1531 1163 L1531 1275 L1759 1047 Z" /></g><g class="o"><path transform="translate(8,16)" class="S sf" d="M1388 1988 L1325 1925 L1341 1925 L1404 1988 Z"/><path class="f6" d="M1388 1988 L1325 1925 L1341 1925 L1404 1988 Z" /></g><g class="o"><path transform="translate(4,8)" class="S sf" d="M1802 1812 L1686 1696 L1686 1722 L1802 1838 Z"/><path class="f5" d="M1802 1812 L1686 1696 L1686 1722 L1802 1838 Z" /></g><g class="o"><path transform="translate(5,10)" class="S ssh" d="M1879 1676 L1691 1864 L1763 1864 L1951 1676 Z"/><path class="sh3" d="M1879 1676 L1691 1864 L1763 1864 L1951 1676 Z" /></g><g class="o"><path transform="translate(7,14)" class="S sfh" d="M1605 1975 L1364 1734 L1392 1734 L1633 1975 Z"/><path class="fh5" d="M1605 1975 L1364 1734 L1392 1734 L1633 1975 Z" /></g><g class="o"><path transform="translate(9,18)" class="S ssh" d="M1437 998 L1214 775 L1236 775 L1459 998 Z"/><path class="sh4" d="M1437 998 L1214 775 L1236 775 L1459 998 Z" /></g><g class="o"><path transform="translate(6,12)" class="S sfh" d="M1716 1528 L1662 1582 L1674 1582 L1728 1528 Z"/><path class="fh2" d="M1716 1528 L1662 1582 L1674 1582 L1728 1528 Z" /></g><g class="o"><path transform="translate(2,4)" class="S sfh" d="M1944 1208 L1774 1038 L1804 1038 L1974 1208 Z"/><path class="fh6" d="M1944 1208 L1774 1038 L1804 1038 L1974 1208 Z" /></g><g class="o"><path transform="translate(8,16)" class="S sfv" d="M1432 1925 L1347 1840 L1347 1878 L1432 1963 Z"/><path class="fv2" d="M1432 1925 L1347 1840 L1347 1878 L1432 1963 Z" /></g><g class="o"><path transform="translate(6,12)" class="S sfh" d="M1132 1065 L923 1274 L949 1274 L1158 1065 Z"/><path class="fh6" d="M1132 1065 L923 1274 L949 1274 L1158 1065 Z" /></g><g class="o"><path transform="translate(7,14)" class="S ssv" d="M1831 1541 L1663 1709 L1663 1729 L1831 1561 Z"/><path class="sv7" d="M1831 1541 L1663 1709 L1663 1729 L1831 1561 Z" /></g><g class="o"><path transform="translate(7,14)" class="S sfh" d="M1978 1856 L1744 1622 L1772 1622 L2006 1856 Z"/><path class="fh1" d="M1978 1856 L1744 1622 L1772 1622 L2006 1856 Z" /></g><g class="o"><path transform="translate(7,14)" class="S sfv" d="M2037 1351 L1867 1521 L1867 1529 L2037 1359 Z"/><path class="fv7" d="M2037 1351 L1867 1521 L1867 1529 L2037 1359 Z" /></g><g class="o"><path transform="translate(8,16)" class="S sfv" d="M1486 1637 L1307 1458 L1307 1480 L1486 1659 Z"/><path class="fv1" d="M1486 1637 L1307 1458 L1307 1480 L1486 1659 Z" /></g><g class="o"><path transform="translate(7,14)" class="S sf" d="M1899 1545 L1651 1793 L1689 1793 L1937 1545 Z"/><path class="f6" d="M1899 1545 L1651 1793 L1689 1793 L1937 1545 Z" /></g><g class="o"><path transform="translate(4,8)" class="S sfh" d="M1234 2003 L1001 2236 L1025 2236 L1258 2003 Z"/><path class="fh7" d="M1234 2003 L1001 2236 L1025 2236 L1258 2003 Z" /></g><g class="o"><path transform="translate(3,6)" class="S sfv" d="M1271 1564 L1075 1368 L1075 1402 L1271 1598 Z"/><path class="fv1" d="M1271 1564 L1075 1368 L1075 1402 L1271 1598 Z" /></g><g class="o"><path transform="translate(4,8)" class="S sfv" d="M1695 1269 L1455 1029 L1455 1055 L1695 1295 Z"/><path class="fv5" d="M1695 1269 L1455 1029 L1455 1055 L1695 1295 Z" /></g><g class="o"><path transform="translate(2,4)" class="S sf" d="M1520 1817 L1272 2065 L1290 2065 L1538 1817 Z"/><path class="f5" d="M1520 1817 L1272 2065 L1290 2065 L1538 1817 Z" /></g><g class="o"><path transform="translate(9,18)" class="S sfh" d="M1154 1322 L985 1153 L1005 1153 L1174 1322 Z"/><path class="fh6" d="M1154 1322 L985 1153 L1005 1153 L1174 1322 Z" /></g><g class="o"><path transform="translate(2,4)" class="S sfh" d="M1131 1318 L919 1106 L927 1106 L1139 1318 Z"/><path class="fh4" d="M1131 1318 L919 1106 L927 1106 L1139 1318 Z" /></g><g class="o"><path transform="translate(2,4)" class="S sfh" d="M1784 1016 L1676 908 L1710 908 L1818 1016 Z"/><path class="fh4" d="M1784 1016 L1676 908 L1710 908 L1818 1016 Z" /></g><g class="o"><path transform="translate(8,16)" class="S sfv" d="M1876 1673 L1677 1872 L1677 1898 L1876 1699 Z"/><path class="fv3" d="M1876 1673 L1677 1872 L1677 1898 L1876 1699 Z" /></g><g class="o"><path transform="translate(5,10)" class="S sfv" d="M1510 1652 L1417 1745 L1417 1769 L1510 1676 Z"/><path class="fv4" d="M1510 1652 L1417 1745 L1417 1769 L1510 1676 Z" /></g><g class="o"><path transform="translate(4,8)" class="S sfh" d="M1286 1240 L824 778 L834 778 L1296 1240 Z"/><path class="fh5" d="M1286 1240 L824 778 L834 778 L1296 1240 Z" /></g><g class="o"><path transform="translate(5,10)" class="S sf" d="M1722 1327 L1576 1181 L1576 1211 L1722 1357 Z"/><path class="f7" d="M1722 1327 L1576 1181 L1576 1211 L1722 1357 Z" /></g><g class="o"><path transform="translate(3,6)" class="S ssv" d="M954 1105 L893 1044 L893 1078 L954 1139 Z"/><path class="sv3" d="M954 1105 L893 1044 L893 1078 L954 1139 Z" /></g><g class="o"><path transform="translate(4,8)" class="S ssh" d="M1021 1768 L924 1671 L958 1671 L1055 1768 Z"/><path class="sh4" d="M1021 1768 L924 1671 L958 1671 L1055 1768 Z" /></g><g class="o"><path transform="translate(6,12)" class="S sfv" d="M1785 1403 L1572 1616 L1572 1650 L1785 1437 Z"/><path class="fv5" d="M1785 1403 L1572 1616 L1572 1650 L1785 1437 Z" /></g><g class="o"><path transform="translate(5,10)" class="S sfv" d="M1896 1665 L1703 1472 L1703 1496 L1896 1689 Z"/><path class="fv4" d="M1896 1665 L1703 1472 L1703 1496 L1896 1689 Z" /></g><g class="o"><path transform="translate(8,16)" class="S sfv" d="M1060 1675 L834 1901 L834 1913 L1060 1687 Z"/><path class="fv1" d="M1060 1675 L834 1901 L834 1913 L1060 1687 Z" /></g><g class="o"><path transform="translate(6,12)" class="S sf" d="M1947 1001 L1893 947 L1893 955 L1947 1009 Z"/><path class="f4" d="M1947 1001 L1893 947 L1893 955 L1947 1009 Z" /></g><g class="o"><path transform="translate(4,8)" class="S sfh" d="M1413 1179 L1333 1259 L1361 1259 L1441 1179 Z"/><path class="fh6" d="M1413 1179 L1333 1259 L1361 1259 L1441 1179 Z" /></g><g class="o"><path transform="translate(6,12)" class="S sfh" d="M1199 1587 L1008 1396 L1040 1396 L1231 1587 Z"/><path class="fh5" d="M1199 1587 L1008 1396 L1040 1396 L1231 1587 Z" /></g><g class="o"><path transform="translate(6,12)" class="S sfv" d="M1751 1830 L1561 1640 L1561 1666 L1751 1856 Z"/><path class="fv5" d="M1751 1830 L1561 1640 L1561 1666 L1751 1856 Z" /></g><g class="o"><path transform="translate(4,8)" class="S ssv" d="M1113 1757 L1024 1668 L1024 1696 L1113 1785 Z"/><path class="sv6" d="M1113 1757 L1024 1668 L1024 1696 L1113 1785 Z" /></g><g class="o"><path transform="translate(5,10)" class="S sf" d="M1870 1882 L1752 2000 L1770 2000 L1888 1882 Z"/><path class="f4" d="M1870 1882 L1752 2000 L1770 2000 L1888 1882 Z" /></g><g class="o"><path transform="translate(7,14)" class="S sfh" d="M1182 1226 L510 554 L526 554 L1198 1226 Z"/><path class="fh1" d="M1182 1226 L510 554 L526 554 L1198 1226 Z" /></g><g class="o"><path transform="translate(9,18)" class="S sf" d="M1306 1740 L805 1239 L821 1239 L1322 1740 Z"/><path class="f3" d="M1306 1740 L805 1239 L821 1239 L1322 1740 Z" /></g><g class="o"><path transform="translate(5,10)" class="S sfv" d="M1867 1778 L1623 1534 L1623 1544 L1867 1788 Z"/><path class="fv4" d="M1867 1778 L1623 1534 L1623 1544 L1867 1788 Z" /></g><g class="o"><path transform="translate(4,8)" class="S sfv" d="M1956 1326 L1862 1232 L1862 1376 L1956 1470 Z"/><path class="fv6" d="M1956 1326 L1862 1232 L1862 1376 L1956 1470 Z" /></g><g class="o"><path transform="translate(9,18)" class="S sfv" d="M1272 1835 L1028 1591 L1028 1609 L1272 1853 Z"/><path class="fv5" d="M1272 1835 L1028 1591 L1028 1609 L1272 1853 Z" /></g><g class="o"><path transform="translate(7,14)" class="S sfv" d="M1471 1989 L1279 2181 L1279 2219 L1471 2027 Z"/><path class="fv4" d="M1471 1989 L1279 2181 L1279 2219 L1471 2027 Z" /></g><g class="o"><path transform="translate(8,16)" class="S sfh" d="M1689 993 L1239 543 L1259 543 L1709 993 Z"/><path class="fh5" d="M1689 993 L1239 543 L1259 543 L1709 993 Z" /></g><g class="o"><path transform="translate(6,12)" class="S sfh" d="M1164 1800 L903 1539 L925 1539 L1186 1800 Z"/><path class="fh4" d="M1164 1800 L903 1539 L925 1539 L1186 1800 Z" /></g><g class="o"><path transform="translate(5,10)" class="S sfh" d="M1398 1832 L984 2246 L992 2246 L1406 1832 Z"/><path class="fh4" d="M1398 1832 L984 2246 L992 2246 L1406 1832 Z" /></g><g class="o"><path transform="translate(2,4)" class="S sfh" d="M1419 2013 L1224 2208 L1254 2208 L1449 2013 Z"/><path class="fh4" d="M1419 2013 L1224 2208 L1254 2208 L1449 2013 Z" /></g><g class="o"><path transform="translate(2,4)" class="S sfh" d="M2031 1446 L1883 1594 L1911 1594 L2059 1446 Z"/><path class="fh4" d="M2031 1446 L1883 1594 L1911 1594 L2059 1446 Z" /></g><g class="o"><path transform="translate(6,12)" class="S sfv" d="M1383 1895 L1158 2120 L1158 2146 L1383 1921 Z"/><path class="fv3" d="M1383 1895 L1158 2120 L1158 2146 L1383 1921 Z" /></g><g class="o"><path transform="translate(8,16)" class="S ssv" d="M1472 1767 L1314 1925 L1314 1939 L1472 1781 Z"/><path class="sv2" d="M1472 1767 L1314 1925 L1314 1939 L1472 1781 Z" /></g><g class="o"><path transform="translate(5,10)" class="S sfv" d="M1898 961 L1727 790 L1727 808 L1898 979 Z"/><path class="fv4" d="M1898 961 L1727 790 L1727 808 L1898 979 Z" /></g><g class="o"><path transform="translate(3,6)" class="S sfv" d="M1258 1458 L1136 1336 L1136 1358 L1258 1480 Z"/><path class="fv2" d="M1258 1458 L1136 1336 L1136 1358 L1258 1480 Z" /></g><g class="o"><path transform="translate(7,14)" class="S sfh" d="M1408 1307 L1219 1496 L1241 1496 L1430 1307 Z"/><path class="fh7" d="M1408 1307 L1219 1496 L1241 1496 L1430 1307 Z" /></g><g class="o"><path transform="translate(7,14)" class="S sf" d="M1204 1644 L1115 1733 L1115 1747 L1204 1658 Z"/><path class="f5" d="M1204 1644 L1115 1733 L1115 1747 L1204 1658 Z" /></g><g class="o"><path transform="translate(4,8)" class="S sf" d="M1494 1568 L1377 1685 L1377 1711 L1494 1594 Z"/><path class="f3" d="M1494 1568 L1377 1685 L1377 1711 L1494 1594 Z" /></g><g class="o"><path transform="translate(8,16)" class="S sfh" d="M1644 1813 L1308 1477 L1328 1477 L1664 1813 Z"/><path class="fh3" d="M1644 1813 L1308 1477 L1328 1477 L1664 1813 Z" /></g><g class="o"><path transform="translate(5,10)" class="S sfh" d="M1368 1183 L1176 991 L1296 991 L1488 1183 Z"/><path class="fh3" d="M1368 1183 L1176 991 L1296 991 L1488 1183 Z" /></g><g class="o"><path transform="translate(2,4)" class="S sfh" d="M1063 1110 L879 926 L911 926 L1095 1110 Z"/><path class="fh1" d="M1063 1110 L879 926 L911 926 L1095 1110 Z" /></g><g class="o"><path transform="translate(3,6)" class="S sfh" d="M1723 1494 L1630 1587 L1664 1587 L1757 1494 Z"/><path class="fh1" d="M1723 1494 L1630 1587 L1664 1587 L1757 1494 Z" /></g><g class="o"><path transform="translate(5,10)" class="S ssh" d="M1471 1952 L1270 1751 L1286 1751 L1487 1952 Z"/><path class="sh2" d="M1471 1952 L1270 1751 L1286 1751 L1487 1952 Z" /></g><g class="o"><path transform="translate(7,14)" class="S sfh" d="M1297 2032 L1198 1933 L1216 1933 L1315 2032 Z"/><path class="fh6" d="M1297 2032 L1198 1933 L1216 1933 L1315 2032 Z" /></g><g class="o"><path transform="translate(3,6)" class="S sf" d="M1638 1001 L1523 1116 L1523 1154 L1638 1039 Z"/><path class="f3" d="M1638 1001 L1523 1116 L1523 1154 L1638 1039 Z" /></g><g class="o"><path transform="translate(4,8)" class="S sfh" d="M1427 1708 L962 1243 L1000 1243 L1465 1708 Z"/><path class="fh3" d="M1427 1708 L962 1243 L1000 1243 L1465 1708 Z" /></g><g class="o"><path transform="translate(7,14)" class="S ss" d="M1687 1260 L1517 1430 L1545 1430 L1715 1260 Z"/><path class="s1" d="M1687 1260 L1517 1430 L1545 1430 L1715 1260 Z" /></g><g class="o"><path transform="translate(6,12)" class="S sfh" d="M1990 1438 L1835 1283 L1855 1283 L2010 1438 Z"/><path class="fh2" d="M1990 1438 L1835 1283 L1855 1283 L2010 1438 Z" /></g><g class="o"><path transform="translate(6,12)" class="S sfv" d="M1137 1591 L702 1156 L702 1166 L1137 1601 Z"/><path class="fv3" d="M1137 1591 L702 1156 L702 1166 L1137 1601 Z" /></g><g class="o"><path transform="translate(6,12)" class="S sfv" d="M1657 1952 L1504 2105 L1504 2125 L1657 1972 Z"/><path class="fv3" d="M1657 1952 L1504 2105 L1504 2125 L1657 1972 Z" /></g><g class="o"><path transform="translate(2,4)" class="S ssh" d="M1108 981 L1014 887 L1062 887 L1156 981 Z"/><path class="sh7" d="M1108 981 L1014 887 L1062 887 L1156 981 Z" /></g><g class="o"><path transform="translate(6,12)" class="S sf" d="M1566 1045 L1471 950 L1471 986 L1566 1081 Z"/><path class="f1" d="M1566 1045 L1471 950 L1471 986 L1566 1081 Z" /></g><g class="o"><path transform="translate(9,18)" class="S ssv" d="M1804 1941 L1653 1790 L1653 1826 L1804 1977 Z"/><path class="sv2" d="M1804 1941 L1653 1790 L1653 1826 L1804 1977 Z" /></g><g class="o"><path transform="translate(8,16)" class="S sfh" d="M1471 1964 L1373 1866 L1381 1866 L1479 1964 Z"/><path class="fh1" d="M1471 1964 L1373 1866 L1381 1866 L1479 1964 Z" /></g><g class="o"><path transform="translate(4,8)" class="S sfh" d="M1218 1665 L982 1429 L1018 1429 L1254 1665 Z"/><path class="fh2" d="M1218 1665 L982 1429 L1018 1429 L1254 1665 Z" /></g><g class="o"><path transform="translate(3,6)" class="S ssh" d="M968 1665 L819 1516 L845 1516 L994 1665 Z"/><path class="sh2" d="M968 1665 L819 1516 L845 1516 L994 1665 Z" /></g><g class="o"><path transform="translate(6,12)" class="S sfh" d="M1326 1671 L654 2343 L664 2343 L1336 1671 Z"/><path class="fh1" d="M1326 1671 L654 2343 L664 2343 L1336 1671 Z" /></g><g class="o"><path transform="translate(4,8)" class="S sfh" d="M1062 1593 L654 1185 L798 1185 L1206 1593 Z"/><path class="fh7" d="M1062 1593 L654 1185 L798 1185 L1206 1593 Z" /></g><g class="o"><path transform="translate(6,12)" class="S sfh" d="M1235 1719 L1140 1814 L1156 1814 L1251 1719 Z"/><path class="fh7" d="M1235 1719 L1140 1814 L1156 1814 L1251 1719 Z" /></g><g class="o"><path transform="translate(4,8)" class="S sfh" d="M1844 1636 L1684 1476 L1714 1476 L1874 1636 Z"/><path class="fh1" d="M1844 1636 L1684 1476 L1714 1476 L1874 1636 Z" /></g><g class="o"><path transform="translate(5,10)" class="S sfh" d="M1122 1482 L621 981 L649 981 L1150 1482 Z"/><path class="fh3" d="M1122 1482 L621 981 L649 981 L1150 1482 Z" /></g><g class="o"><path transform="translate(6,12)" class="S sfh" d="M1859 1175 L1725 1309 L1743 1309 L1877 1175 Z"/><path class="fh1" d="M1859 1175 L1725 1309 L1743 1309 L1877 1175 Z" /></g><g class="o"><path transform="translate(9,18)" class="S sfh" d="M1716 1630 L1560 1786 L1584 1786 L1740 1630 Z"/><path class="fh5" d="M1716 1630 L1560 1786 L1584 1786 L1740 1630 Z" /></g><g class="o"><path transform="translate(7,14)" class="S sfh" d="M1760 1130 L1630 1000 L1642 1000 L1772 1130 Z"/><path class="fh3" d="M1760 1130 L1630 1000 L1642 1000 L1772 1130 Z" /></g><g class="o"><path transform="translate(7,14)" class="S sfv" d="M1432 1662 L1231 1461 L1231 1589 L1432 1790 Z"/><path class="fv6" d="M1432 1662 L1231 1461 L1231 1589 L1432 1790 Z" /></g><g class="o"><path transform="translate(2,4)" class="S ss" d="M1297 1889 L1142 2044 L1180 2044 L1335 1889 Z"/><path class="s6" d="M1297 1889 L1142 2044 L1180 2044 L1335 1889 Z" /></g><g class="o"><path transform="translate(5,10)" class="S sfv" d="M1221 1582 L1004 1365 L1004 1387 L1221 1604 Z"/><path class="fv2" d="M1221 1582 L1004 1365 L1004 1387 L1221 1604 Z" /></g><g class="o"><path transform="translate(3,6)" class="S sfh" d="M1897 1020 L1720 843 L1734 843 L1911 1020 Z"/><path class="fh4" d="M1897 1020 L1720 843 L1734 843 L1911 1020 Z" /></g><g class="o"><path transform="translate(2,4)" class="S ssv" d="M1553 1063 L1486 1130 L1486 1140 L1553 1073 Z"/><path class="sv7" d="M1553 1063 L1486 1130 L1486 1140 L1553 1073 Z" /></g><g class="o"><path transform="translate(8,16)" class="S sfv" d="M1187 1545 L970 1762 L970 1778 L1187 1561 Z"/><path class="fv4" d="M1187 1545 L970 1762 L970 1778 L1187 1561 Z" /></g><g class="o"><path transform="translate(3,6)" class="S sfh" d="M1593 1008 L1452 1149 L1466 1149 L1607 1008 Z"/><path class="fh2" d="M1593 1008 L1452 1149 L1466 1149 L1607 1008 Z" /></g><g class="o"><path transform="translate(4,8)" class="S sfv" d="M1109 959 L964 814 L964 838 L1109 983 Z"/><path class="fv7" d="M1109 959 L964 814 L964 838 L1109 983 Z" /></g><g class="o"><path transform="translate(7,14)" class="S sf" d="M1479 1739 L1413 1673 L1445 1673 L1511 1739 Z"/><path class="f4" d="M1479 1739 L1413 1673 L1445 1673 L1511 1739 Z" /></g><g class="o"><path transform="translate(2,4)" class="S sfh" d="M1542 1767 L1317 1992 L1339 1992 L1564 1767 Z"/><path class="fh3" d="M1542 1767 L1317 1992 L1339 1992 L1564 1767 Z" /></g><g class="o"><path transform="translate(8,16)" class="S sfh" d="M1995 1045 L1784 1256 L1792 1256 L2003 1045 Z"/><path class="fh1" d="M1995 1045 L1784 1256 L1792 1256 L2003 1045 Z" /></g><g class="o"><path transform="translate(3,6)" class="S sfv" d="M1553 973 L1434 854 L1434 872 L1553 991 Z"/><path class="fv6" d="M1553 973 L1434 854 L1434 872 L1553 991 Z" /></g><g class="o"><path transform="translate(3,6)" class="S sfv" d="M1185 1766 L1115 1836 L1115 1862 L1185 1792 Z"/><path class="fv3" d="M1185 1766 L1115 1836 L1115 1862 L1185 1792 Z" /></g><g class="o"><path transform="translate(9,18)" class="S sfh" d="M1623 1258 L1353 1528 L1377 1528 L1647 1258 Z"/><path class="fh5" d="M1623 1258 L1353 1528 L1377 1528 L1647 1258 Z" /></g><g class="o"><path transform="translate(4,8)" class="S sfv" d="M1883 1917 L1712 2088 L1712 2120 L1883 1949 Z"/><path class="fv3" d="M1883 1917 L1712 2088 L1712 2120 L1883 1949 Z" /></g><g class="o"><path transform="translate(9,18)" class="S sf" d="M1516 1870 L1315 1669 L1353 1669 L1554 1870 Z"/><path class="f2" d="M1516 1870 L1315 1669 L1353 1669 L1554 1870 Z" /></g><g class="o"><path transform="translate(6,12)" class="S sfv" d="M1874 1764 L1782 1856 L1782 1888 L1874 1796 Z"/><path class="fv1" d="M1874 1764 L1782 1856 L1782 1888 L1874 1796 Z" /></g><g class="o"><path transform="translate(2,4)" class="S sfv" d="M1016 1708 L891 1833 L891 1857 L1016 1732 Z"/><path class="fv5" d="M1016 1708 L891 1833 L891 1857 L1016 1732 Z" /></g><g class="o"><path transform="translate(2,4)" class="S sfh" d="M1073 1327 L419 673 L457 673 L1111 1327 Z"/><path class="fh6" d="M1073 1327 L419 673 L457 673 L1111 1327 Z" /></g><g class="o"><path transform="translate(6,12)" class="S sfv" d="M1857 945 L1774 1028 L1774 1132 L1857 1049 Z"/><path class="fv3" d="M1857 945 L1774 1028 L1774 1132 L1857 1049 Z" /></g><g class="o"><path transform="translate(7,14)" class="S ssh" d="M1478 1744 L1350 1872 L1358 1872 L1486 1744 Z"/><path class="sh3" d="M1478 1744 L1350 1872 L1358 1872 L1486 1744 Z" /></g><g class="o"><path transform="translate(8,16)" class="S sfv" d="M1591 1028 L1514 951 L1514 967 L1591 1044 Z"/><path class="fv3" d="M1591 1028 L1514 951 L1514 967 L1591 1044 Z" /></g></g><use href="#slashes" transform-origin="1500 1500" transform="rotate(180) scale(2)"/></g><polyline points="1500,1010 1990,1500 1500,1990 1010,1500 1500,1010 1990,1500" stroke-width="40" class="o s5" /><use href="#slashes" transform-origin="1500 1500" transform="scale(.9)"/><use href="#slashes" transform-origin="1500 1500" transform="rotate(180) scale(.9)"/></svg>