<svg xmlns="http://www.w3.org/2000/svg" viewBox="750 750 1500 1500"><style>/*<![CDATA[*/svg{background:rgb(36,36,35);max-width:100vw;max-height:100vh}path{stroke-width:4}.o{opacity:.75}.S{opacity:.4}.sf{stroke:none;fill:black}.sfh{stroke:none;fill:url(#hs)}.sfv{stroke:none;fill:url(#vs)}.ss{stroke:black;fill:none}.ssh{stroke:url(#hs);fill:none}.ssv{stroke:url(#vs);fill:none}.s1{fill:none;stroke:rgb(51,53,51)}.f1{stroke:none;fill:rgb(51,53,51)}.sh1{fill:none;stroke:url(#h1)}.fh1{stroke:none;fill:url(#h1)}.sv1{fill:none;stroke:url(#v1)}.fv1{stroke:none;fill:url(#v1)}.s2{fill:none;stroke:rgb(245,203,92)}.f2{stroke:none;fill:rgb(245,203,92)}.sh2{fill:none;stroke:url(#h2)}.fh2{stroke:none;fill:url(#h2)}.sv2{fill:none;stroke:url(#v2)}.fv2{stroke:none;fill:url(#v2)}.s3{fill:none;stroke:rgb(34,34,34)}.f3{stroke:none;fill:rgb(34,34,34)}.sh3{fill:none;stroke:url(#h3)}.fh3{stroke:none;fill:url(#h3)}.sv3{fill:none;stroke:url(#v3)}.fv3{stroke:none;fill:url(#v3)}.s4{fill:none;stroke:rgb(232,237,223)}.f4{stroke:none;fill:rgb(232,237,223)}.sh4{fill:none;stroke:url(#h4)}.fh4{stroke:none;fill:url(#h4)}.sv4{fill:none;stroke:url(#v4)}.fv4{stroke:none;fill:url(#v4)}.s5{fill:none;stroke:rgb(207,219,213)}.f5{stroke:none;fill:rgb(207,219,213)}.sh5{fill:none;stroke:url(#h5)}.fh5{stroke:none;fill:url(#h5)}.sv5{fill:none;stroke:url(#v5)}.fv5{stroke:none;fill:url(#v5)}.s6{fill:none;stroke:rgb(255,255,255)}.f6{stroke:none;fill:rgb(255,255,255)}.sh6{fill:none;stroke:url(#h6)}.fh6{stroke:none;fill:url(#h6)}.sv6{fill:none;stroke:url(#v6)}.fv6{stroke:none;fill:url(#v6)}.s7{fill:none;stroke:rgb(255,255,0)}.f7{stroke:none;fill:rgb(255,255,0)}.sh7{fill:none;stroke:url(#h7)}.fh7{stroke:none;fill:url(#h7)}.sv7{fill:none;stroke:url(#v7)}.fv7{stroke:none;fill:url(#v7)}/*]]>*/</style><defs><linearGradient gradientTransform="rotate(90)" id="hs"><stop offset="20%" stop-color="#000" /><stop offset="95%" stop-color="rgba(0, 0, 0, 0)" /></linearGradient><linearGradient id="vs"><stop offset="20%" stop-color="#000" /><stop offset="95%" stop-color="rgba(0, 0, 0, 0)" /></linearGradient><linearGradient gradientTransform="rotate(90)" id="h1"><stop offset="20%" stop-color="rgba(51,53,51,1)" /><stop offset="95%" stop-color="rgba(51,53,51,0)" /></linearGradient><linearGradient id="v1"><stop offset="20%" stop-color="rgba(51,53,51,1)" /><stop offset="95%" stop-color="rgba(51,53,51,0)" /></linearGradient><linearGradient gradientTransform="rotate(90)" id="h2"><stop offset="20%" stop-color="rgba(245,203,92,1)" /><stop offset="95%" stop-color="rgba(245,203,92,0)" /></linearGradient><linearGradient id="v2"><stop offset="20%" stop-color="rgba(245,203,92,1)" /><stop offset="95%" stop-color="rgba(245,203,92,0)" /></linearGradient><linearGradient gradientTransform="rotate(90)" id="h3"><stop offset="20%" stop-color="rgba(34,34,34,1)" /><stop offset="95%" stop-color="rgba(34,34,34,0)" /></linearGradient><linearGradient id="v3"><stop offset="20%" stop-color="rgba(34,34,34,1)" /><stop offset="95%" stop-color="rgba(34,34,34,0)" /></linearGradient><linearGradient gradientTransform="rotate(90)" id="h4"><stop offset="20%" stop-color="rgba(232,237,223,1)" /><stop offset="95%" stop-color="rgba(232,237,223,0)" /></linearGradient><linearGradient id="v4"><stop offset="20%" stop-color="rgba(232,237,223,1)" /><stop offset="95%" stop-color="rgba(232,237,223,0)" /></linearGradient><linearGradient gradientTransform="rotate(90)" id="h5"><stop offset="20%" stop-color="rgba(207,219,213,1)" /><stop offset="95%" stop-color="rgba(207,219,213,0)" /></linearGradient><linearGradient id="v5"><stop offset="20%" stop-color="rgba(207,219,213,1)" /><stop offset="95%" stop-color="rgba(207,219,213,0)" /></linearGradient><linearGradient gradientTransform="rotate(90)" id="h6"><stop offset="20%" stop-color="rgba(255,255,255,1)" /><stop offset="95%" stop-color="rgba(255,255,255,0)" /></linearGradient><linearGradient id="v6"><stop offset="20%" stop-color="rgba(255,255,255,1)" /><stop offset="95%" stop-color="rgba(255,255,255,0)" /></linearGradient><linearGradient gradientTransform="rotate(90)" id="h7"><stop offset="20%" stop-color="rgba(255,255,0,1)" /><stop offset="95%" stop-color="rgba(255,255,0,0)" /></linearGradient><linearGradient id="v7"><stop offset="20%" stop-color="rgba(255,255,0,1)" /><stop offset="95%" stop-color="rgba(255,255,0,0)" /></linearGradient></defs><g transform-origin="1500 1500" transform="scale(2)" opacity=".2"><g id="slashes"><g class="o"><path transform="translate(3,6)" class="S ssh" d="M1375 1044 L1267 1152 L1299 1152 L1407 1044 Z"/><path class="sh7" d="M1375 1044 L1267 1152 L1299 1152 L1407 1044 Z" /></g><g class="o"><path transform="translate(2,4)" class="S ssh" d="M1765 1431 L1859 1525 L1971 1525 L1877 1431 Z"/><path class="sh1" d="M1765 1431 L1859 1525 L1971 1525 L1877 1431 Z" /></g><g class="o"><path transform="translate(2,4)" class="S sfv" d="M1132 1425 L1245 1538 L1245 1602 L1132 1489 Z"/><path class="fv7" d="M1132 1425 L1245 1538 L1245 1602 L1132 1489 Z" /></g><g class="o"><path transform="translate(2,4)" class="S sfh" d="M2005 965 L2209 1169 L2249 1169 L2045 965 Z"/><path class="fh7" d="M2005 965 L2209 1169 L2249 1169 L2045 965 Z" /></g><g class="o"><path transform="translate(3,6)" class="S ss" d="M1656 1433 L1747 1524 L1891 1524 L1800 1433 Z"/><path class="s6" d="M1656 1433 L1747 1524 L1891 1524 L1800 1433 Z" /></g><g class="o"><path transform="translate(8,16)" class="S sfh" d="M2022 988 L1946 1064 L1964 1064 L2040 988 Z"/><path class="fh6" d="M2022 988 L1946 1064 L1964 1064 L2040 988 Z" /></g><g class="o"><path transform="translate(4,8)" class="S sfv" d="M1555 1145 L1644 1234 L1644 1338 L1555 1249 Z"/><path class="fv6" d="M1555 1145 L1644 1234 L1644 1338 L1555 1249 Z" /></g><g class="o"><path transform="translate(4,8)" class="S sf" d="M1721 1799 L1788 1866 L1836 1866 L1769 1799 Z"/><path class="f3" d="M1721 1799 L1788 1866 L1836 1866 L1769 1799 Z" /></g><g class="o"><path transform="translate(8,16)" class="S sfv" d="M1704 1915 L1883 2094 L1883 2182 L1704 2003 Z"/><path class="fv4" d="M1704 1915 L1883 2094 L1883 2182 L1704 2003 Z" /></g><g class="o"><path transform="translate(5,10)" class="S sfh" d="M1600 1633 L1660 1693 L1764 1693 L1704 1633 Z"/><path class="fh7" d="M1600 1633 L1660 1693 L1764 1693 L1704 1633 Z" /></g><g class="o"><path transform="translate(7,14)" class="S sfv" d="M1827 1457 L1752 1532 L1752 1552 L1827 1477 Z"/><path class="fv2" d="M1827 1457 L1752 1532 L1752 1552 L1827 1477 Z" /></g><g class="o"><path transform="translate(7,14)" class="S ssv" d="M1794 1795 L1860 1861 L1860 1909 L1794 1843 Z"/><path class="sv1" d="M1794 1795 L1860 1861 L1860 1909 L1794 1843 Z" /></g><g class="o"><path transform="translate(5,10)" class="S ssh" d="M1044 2003 L1222 2181 L1262 2181 L1084 2003 Z"/><path class="sh3" d="M1044 2003 L1222 2181 L1262 2181 L1084 2003 Z" /></g><g class="o"><path transform="translate(4,8)" class="S sfh" d="M1144 1641 L1199 1696 L1335 1696 L1280 1641 Z"/><path class="fh4" d="M1144 1641 L1199 1696 L1335 1696 L1280 1641 Z" /></g><g class="o"><path transform="translate(7,14)" class="S sfv" d="M1389 950 L1564 1125 L1564 1253 L1389 1078 Z"/><path class="fv6" d="M1389 950 L1564 1125 L1564 1253 L1389 1078 Z" /></g><g class="o"><path transform="translate(8,16)" class="S sf" d="M1641 1261 L1489 1413 L1633 1413 L1785 1261 Z"/><path class="f3" d="M1641 1261 L1489 1413 L1633 1413 L1785 1261 Z" /></g><g class="o"><path transform="translate(5,10)" class="S sfv" d="M1199 1003 L962 1240 L962 1278 L1199 1041 Z"/><path class="fv4" d="M1199 1003 L962 1240 L962 1278 L1199 1041 Z" /></g><g class="o"><path transform="translate(7,14)" class="S sfv" d="M1085 1460 L1298 1673 L1298 1753 L1085 1540 Z"/><path class="fv6" d="M1085 1460 L1298 1673 L1298 1753 L1085 1540 Z" /></g><g class="o"><path transform="translate(3,6)" class="S sfv" d="M968 1217 L745 1440 L745 1504 L968 1281 Z"/><path class="fv4" d="M968 1217 L745 1440 L745 1504 L968 1281 Z" /></g><g class="o"><path transform="translate(9,18)" class="S sfh" d="M1071 1994 L1307 2230 L1331 2230 L1095 1994 Z"/><path class="fh4" d="M1071 1994 L1307 2230 L1331 2230 L1095 1994 Z" /></g><g class="o"><path transform="translate(5,10)" class="S sfv" d="M1927 1441 L2112 1626 L2112 1674 L1927 1489 Z"/><path class="fv1" d="M1927 1441 L2112 1626 L2112 1674 L1927 1489 Z" /></g><g class="o"><path transform="translate(3,6)" class="S sfh" d="M1767 1928 L1882 2043 L2018 2043 L1903 1928 Z"/><path class="fh7" d="M1767 1928 L1882 2043 L2018 2043 L1903 1928 Z" /></g><g class="o"><path transform="translate(3,6)" class="S sfh" d="M1960 1559 L2036 1635 L2068 1635 L1992 1559 Z"/><path class="fh5" d="M1960 1559 L2036 1635 L2068 1635 L1992 1559 Z" /></g><g class="o"><path transform="translate(8,16)" class="S sfh" d="M1887 1762 L2012 1887 L2092 1887 L1967 1762 Z"/><path class="fh4" d="M1887 1762 L2012 1887 L2092 1887 L1967 1762 Z" /></g><g class="o"><path transform="translate(4,8)" class="S sfv" d="M1672 967 L1882 1177 L1882 1305 L1672 1095 Z"/><path class="fv3" d="M1672 967 L1882 1177 L1882 1305 L1672 1095 Z" /></g><g class="o"><path transform="translate(8,16)" class="S sfh" d="M1215 1521 L1434 1740 L1546 1740 L1327 1521 Z"/><path class="fh5" d="M1215 1521 L1434 1740 L1546 1740 L1327 1521 Z" /></g><g class="o"><path transform="translate(3,6)" class="S ssv" d="M1711 1770 L1873 1932 L1873 2044 L1711 1882 Z"/><path class="sv1" d="M1711 1770 L1873 1932 L1873 2044 L1711 1882 Z" /></g><g class="o"><path transform="translate(9,18)" class="S sfv" d="M1510 1865 L1584 1939 L1584 2003 L1510 1929 Z"/><path class="fv5" d="M1510 1865 L1584 1939 L1584 2003 L1510 1929 Z" /></g><g class="o"><path transform="translate(6,12)" class="S sfh" d="M1166 1850 L1374 2058 L1402 2058 L1194 1850 Z"/><path class="fh6" d="M1166 1850 L1374 2058 L1402 2058 L1194 1850 Z" /></g><g class="o"><path transform="translate(5,10)" class="S sfh" d="M1297 1183 L1511 1397 L1531 1397 L1317 1183 Z"/><path class="fh5" d="M1297 1183 L1511 1397 L1531 1397 L1317 1183 Z" /></g><g class="o"><path transform="translate(7,14)" class="S sfv" d="M1903 1306 L2024 1427 L2024 1435 L1903 1314 Z"/><path class="fv3" d="M1903 1306 L2024 1427 L2024 1435 L1903 1314 Z" /></g><g class="o"><path transform="translate(4,8)" class="S ssv" d="M965 1847 L1156 2038 L1156 2174 L965 1983 Z"/><path class="sv2" d="M965 1847 L1156 2038 L1156 2174 L965 1983 Z" /></g><g class="o"><path transform="translate(3,6)" class="S sfv" d="M1412 1609 L1495 1692 L1495 1748 L1412 1665 Z"/><path class="fv3" d="M1412 1609 L1495 1692 L1495 1748 L1412 1665 Z" /></g><g class="o"><path transform="translate(2,4)" class="S sfv" d="M1504 1669 L1667 1832 L1667 1852 L1504 1689 Z"/><path class="fv2" d="M1504 1669 L1667 1832 L1667 1852 L1504 1689 Z" /></g><g class="o"><path transform="translate(6,12)" class="S sfv" d="M1677 1892 L1816 2031 L1816 2127 L1677 1988 Z"/><path class="fv2" d="M1677 1892 L1816 2031 L1816 2127 L1677 1988 Z" /></g><g class="o"><path transform="translate(2,4)" class="S sfh" d="M1592 1931 L1737 2076 L1873 2076 L1728 1931 Z"/><path class="fh1" d="M1592 1931 L1737 2076 L1873 2076 L1728 1931 Z" /></g><g class="o"><path transform="translate(5,10)" class="S sfv" d="M986 1485 L1198 1697 L1198 1825 L986 1613 Z"/><path class="fv2" d="M986 1485 L1198 1697 L1198 1825 L986 1613 Z" /></g><g class="o"><path transform="translate(2,4)" class="S sfv" d="M1556 1614 L1762 1820 L1762 1900 L1556 1694 Z"/><path class="fv4" d="M1556 1614 L1762 1820 L1762 1900 L1556 1694 Z" /></g><g class="o"><path transform="translate(2,4)" class="S sfv" d="M1239 1363 L1323 1447 L1323 1551 L1239 1467 Z"/><path class="fv2" d="M1239 1363 L1323 1447 L1323 1551 L1239 1467 Z" /></g><g class="o"><path transform="translate(4,8)" class="S sfv" d="M1296 1230 L1510 1444 L1510 1456 L1296 1242 Z"/><path class="fv7" d="M1296 1230 L1510 1444 L1510 1456 L1296 1242 Z" /></g><g class="o"><path transform="translate(7,14)" class="S sfh" d="M1108 1965 L956 2117 L1108 2117 L1260 1965 Z"/><path class="fh6" d="M1108 1965 L956 2117 L1108 2117 L1260 1965 Z" /></g><g class="o"><path transform="translate(6,12)" class="S sf" d="M1027 980 L806 1201 L838 1201 L1059 980 Z"/><path class="f3" d="M1027 980 L806 1201 L838 1201 L1059 980 Z" /></g><g class="o"><path transform="translate(7,14)" class="S sfh" d="M1722 1458 L1939 1675 L2051 1675 L1834 1458 Z"/><path class="fh3" d="M1722 1458 L1939 1675 L2051 1675 L1834 1458 Z" /></g><g class="o"><path transform="translate(6,12)" class="S sf" d="M1992 1031 L2112 1151 L2112 1287 L1992 1167 Z"/><path class="f5" d="M1992 1031 L2112 1151 L2112 1287 L1992 1167 Z" /></g><g class="o"><path transform="translate(7,14)" class="S sfh" d="M1512 1931 L1382 2061 L1534 2061 L1664 1931 Z"/><path class="fh7" d="M1512 1931 L1382 2061 L1534 2061 L1664 1931 Z" /></g><g class="o"><path transform="translate(5,10)" class="S ssh" d="M1677 1650 L1866 1839 L1962 1839 L1773 1650 Z"/><path class="sh4" d="M1677 1650 L1866 1839 L1962 1839 L1773 1650 Z" /></g><g class="o"><path transform="translate(3,6)" class="S sfh" d="M1462 1044 L1255 1251 L1271 1251 L1478 1044 Z"/><path class="fh4" d="M1462 1044 L1255 1251 L1271 1251 L1478 1044 Z" /></g><g class="o"><path transform="translate(8,16)" class="S sfv" d="M1167 1734 L1289 1856 L1289 2000 L1167 1878 Z"/><path class="fv6" d="M1167 1734 L1289 1856 L1289 2000 L1167 1878 Z" /></g><g class="o"><path transform="translate(2,4)" class="S sfv" d="M1714 1346 L1901 1533 L1901 1661 L1714 1474 Z"/><path class="fv3" d="M1714 1346 L1901 1533 L1901 1661 L1714 1474 Z" /></g><g class="o"><path transform="translate(6,12)" class="S sfv" d="M1720 1155 L1821 1256 L1821 1400 L1720 1299 Z"/><path class="fv4" d="M1720 1155 L1821 1256 L1821 1400 L1720 1299 Z" /></g><g class="o"><path transform="translate(3,6)" class="S sfv" d="M1445 1429 L1541 1525 L1541 1637 L1445 1541 Z"/><path class="fv4" d="M1445 1429 L1541 1525 L1541 1637 L1445 1541 Z" /></g><g class="o"><path transform="translate(5,10)" class="S sfv" d="M1391 1815 L1590 2014 L1590 2044 L1391 1845 Z"/><path class="fv6" d="M1391 1815 L1590 2014 L1590 2044 L1391 1845 Z" /></g><g class="o"><path transform="translate(8,16)" class="S sfv" d="M1947 1104 L2187 1344 L2187 1392 L1947 1152 Z"/><path class="fv3" d="M1947 1104 L2187 1344 L2187 1392 L1947 1152 Z" /></g><g class="o"><path transform="translate(7,14)" class="S sfv" d="M1901 1736 L1733 1904 L1733 2000 L1901 1832 Z"/><path class="fv1" d="M1901 1736 L1733 1904 L1733 2000 L1901 1832 Z" /></g><g class="o"><path transform="translate(2,4)" class="S sf" d="M1257 1939 L1361 2043 L1409 2043 L1305 1939 Z"/><path class="f2" d="M1257 1939 L1361 2043 L1409 2043 L1305 1939 Z" /></g><g class="o"><path transform="translate(3,6)" class="S sfh" d="M1307 1019 L1422 1134 L1460 1134 L1345 1019 Z"/><path class="fh6" d="M1307 1019 L1422 1134 L1460 1134 L1345 1019 Z" /></g><g class="o"><path transform="translate(6,12)" class="S sfv" d="M1842 1715 L1691 1866 L1691 1874 L1842 1723 Z"/><path class="fv3" d="M1842 1715 L1691 1866 L1691 1874 L1842 1723 Z" /></g><g class="o"><path transform="translate(6,12)" class="S sfv" d="M1293 1706 L1356 1769 L1356 1849 L1293 1786 Z"/><path class="fv3" d="M1293 1706 L1356 1769 L1356 1849 L1293 1786 Z" /></g><g class="o"><path transform="translate(4,8)" class="S sfh" d="M994 1773 L940 1827 L1020 1827 L1074 1773 Z"/><path class="fh3" d="M994 1773 L940 1827 L1020 1827 L1074 1773 Z" /></g><g class="o"><path transform="translate(6,12)" class="S sfv" d="M1723 1418 L1867 1562 L1867 1588 L1723 1444 Z"/><path class="fv1" d="M1723 1418 L1867 1562 L1867 1588 L1723 1444 Z" /></g><g class="o"><path transform="translate(8,16)" class="S sf" d="M1978 1493 L2047 1562 L2065 1562 L1996 1493 Z"/><path class="f4" d="M1978 1493 L2047 1562 L2065 1562 L1996 1493 Z" /></g><g class="o"><path transform="translate(5,10)" class="S sf" d="M1953 1027 L2129 1203 L2129 1283 L1953 1107 Z"/><path class="f5" d="M1953 1027 L2129 1203 L2129 1283 L1953 1107 Z" /></g><g class="o"><path transform="translate(2,4)" class="S sfh" d="M1972 1320 L2211 1559 L2331 1559 L2092 1320 Z"/><path class="fh4" d="M1972 1320 L2211 1559 L2331 1559 L2092 1320 Z" /></g><g class="o"><path transform="translate(2,4)" class="S ssh" d="M927 1405 L1156 1634 L1228 1634 L999 1405 Z"/><path class="sh7" d="M927 1405 L1156 1634 L1228 1634 L999 1405 Z" /></g><g class="o"><path transform="translate(9,18)" class="S sfv" d="M1938 1453 L2174 1689 L2174 1769 L1938 1533 Z"/><path class="fv2" d="M1938 1453 L2174 1689 L2174 1769 L1938 1533 Z" /></g><g class="o"><path transform="translate(6,12)" class="S sfh" d="M1789 1336 L1868 1415 L1908 1415 L1829 1336 Z"/><path class="fh6" d="M1789 1336 L1868 1415 L1908 1415 L1829 1336 Z" /></g><g class="o"><path transform="translate(7,14)" class="S ssv" d="M1802 1472 L1928 1598 L1928 1710 L1802 1584 Z"/><path class="sv1" d="M1802 1472 L1928 1598 L1928 1710 L1802 1584 Z" /></g><g class="o"><path transform="translate(9,18)" class="S sfv" d="M1270 1424 L1365 1519 L1365 1639 L1270 1544 Z"/><path class="fv4" d="M1270 1424 L1365 1519 L1365 1639 L1270 1544 Z" /></g><g class="o"><path transform="translate(7,14)" class="S ssh" d="M1246 1159 L1486 1399 L1518 1399 L1278 1159 Z"/><path class="sh3" d="M1246 1159 L1486 1399 L1518 1399 L1278 1159 Z" /></g><g class="o"><path transform="translate(3,6)" class="S sfh" d="M1485 1467 L1605 1587 L1749 1587 L1629 1467 Z"/><path class="fh7" d="M1485 1467 L1605 1587 L1749 1587 L1629 1467 Z" /></g><g class="o"><path transform="translate(5,10)" class="S sf" d="M1125 1458 L1216 1549 L1288 1549 L1197 1458 Z"/><path class="f7" d="M1125 1458 L1216 1549 L1288 1549 L1197 1458 Z" /></g><g class="o"><path transform="translate(6,12)" class="S sfh" d="M1793 2036 L2011 2254 L2043 2254 L1825 2036 Z"/><path class="fh4" d="M1793 2036 L2011 2254 L2043 2254 L1825 2036 Z" /></g><g class="o"><path transform="translate(7,14)" class="S sfh" d="M1220 2015 L1358 2153 L1406 2153 L1268 2015 Z"/><path class="fh1" d="M1220 2015 L1358 2153 L1406 2153 L1268 2015 Z" /></g><g class="o"><path transform="translate(2,4)" class="S sfh" d="M1387 1131 L1540 1284 L1636 1284 L1483 1131 Z"/><path class="fh6" d="M1387 1131 L1540 1284 L1636 1284 L1483 1131 Z" /></g><g class="o"><path transform="translate(3,6)" class="S sf" d="M1420 1868 L1354 1934 L1386 1934 L1452 1868 Z"/><path class="f5" d="M1420 1868 L1354 1934 L1386 1934 L1452 1868 Z" /></g><g class="o"><path transform="translate(7,14)" class="S sfv" d="M1562 1256 L1799 1493 L1799 1519 L1562 1282 Z"/><path class="fv3" d="M1562 1256 L1799 1493 L1799 1519 L1562 1282 Z" /></g><g class="o"><path transform="translate(3,6)" class="S sfv" d="M1785 1639 L1969 1823 L1969 1843 L1785 1659 Z"/><path class="fv5" d="M1785 1639 L1969 1823 L1969 1843 L1785 1659 Z" /></g><g class="o"><path transform="translate(9,18)" class="S sf" d="M1115 2048 L1063 2100 L1143 2100 L1195 2048 Z"/><path class="f3" d="M1115 2048 L1063 2100 L1143 2100 L1195 2048 Z" /></g><g class="o"><path transform="translate(7,14)" class="S sfv" d="M1271 1763 L1492 1984 L1492 2016 L1271 1795 Z"/><path class="fv4" d="M1271 1763 L1492 1984 L1492 2016 L1271 1795 Z" /></g><g class="o"><path transform="translate(8,16)" class="S sfh" d="M1540 1940 L1348 2132 L1396 2132 L1588 1940 Z"/><path class="fh5" d="M1540 1940 L1348 2132 L1396 2132 L1588 1940 Z" /></g><g class="o"><path transform="translate(6,12)" class="S sfh" d="M931 1616 L1173 1858 L1317 1858 L1075 1616 Z"/><path class="fh1" d="M931 1616 L1173 1858 L1317 1858 L1075 1616 Z" /></g><g class="o"><path transform="translate(6,12)" class="S sfv" d="M1637 1869 L1750 1982 L1750 2126 L1637 2013 Z"/><path class="fv4" d="M1637 1869 L1750 1982 L1750 2126 L1637 2013 Z" /></g><g class="o"><path transform="translate(5,10)" class="S ss" d="M1999 958 L2108 1067 L2108 1131 L1999 1022 Z"/><path class="s7" d="M1999 958 L2108 1067 L2108 1131 L1999 1022 Z" /></g><g class="o"><path transform="translate(7,14)" class="S sfv" d="M1799 1970 L1923 2094 L1923 2102 L1799 1978 Z"/><path class="fv4" d="M1799 1970 L1923 2094 L1923 2102 L1799 1978 Z" /></g><g class="o"><path transform="translate(9,18)" class="S sfv" d="M1361 1265 L1442 1346 L1442 1426 L1361 1345 Z"/><path class="fv7" d="M1361 1265 L1442 1346 L1442 1426 L1361 1345 Z" /></g><g class="o"><path transform="translate(5,10)" class="S sfv" d="M990 947 L1070 1027 L1070 1171 L990 1091 Z"/><path class="fv6" d="M990 947 L1070 1027 L1070 1171 L990 1091 Z" /></g><g class="o"><path transform="translate(5,10)" class="S ssv" d="M1714 1061 L1924 1271 L1924 1383 L1714 1173 Z"/><path class="sv5" d="M1714 1061 L1924 1271 L1924 1383 L1714 1173 Z" /></g><g class="o"><path transform="translate(2,4)" class="S ssv" d="M1581 1873 L1785 2077 L1785 2189 L1581 1985 Z"/><path class="sv4" d="M1581 1873 L1785 2077 L1785 2189 L1581 1985 Z" /></g><g class="o"><path transform="translate(4,8)" class="S sfv" d="M1425 1628 L1344 1709 L1344 1741 L1425 1660 Z"/><path class="fv4" d="M1425 1628 L1344 1709 L1344 1741 L1425 1660 Z" /></g><g class="o"><path transform="translate(2,4)" class="S sf" d="M1681 1484 L1879 1682 L1879 1714 L1681 1516 Z"/><path class="f4" d="M1681 1484 L1879 1682 L1879 1714 L1681 1516 Z" /></g><g class="o"><path transform="translate(2,4)" class="S ssh" d="M1985 1217 L2067 1299 L2087 1299 L2005 1217 Z"/><path class="sh2" d="M1985 1217 L2067 1299 L2087 1299 L2005 1217 Z" /></g><g class="o"><path transform="translate(9,18)" class="S sfv" d="M1193 994 L1435 1236 L1435 1248 L1193 1006 Z"/><path class="fv2" d="M1193 994 L1435 1236 L1435 1248 L1193 1006 Z" /></g><g class="o"><path transform="translate(9,18)" class="S sfh" d="M1505 989 L1406 1088 L1486 1088 L1585 989 Z"/><path class="fh3" d="M1505 989 L1406 1088 L1486 1088 L1585 989 Z" /></g><g class="o"><path transform="translate(9,18)" class="S ssh" d="M1586 974 L1804 1192 L1840 1192 L1622 974 Z"/><path class="sh1" d="M1586 974 L1804 1192 L1840 1192 L1622 974 Z" /></g><g class="o"><path transform="translate(5,10)" class="S ssh" d="M1783 1373 L1559 1597 L1623 1597 L1847 1373 Z"/><path class="sh5" d="M1783 1373 L1559 1597 L1623 1597 L1847 1373 Z" /></g><g class="o"><path transform="translate(6,12)" class="S sf" d="M1212 2047 L1285 2120 L1333 2120 L1260 2047 Z"/><path class="f6" d="M1212 2047 L1285 2120 L1333 2120 L1260 2047 Z" /></g><g class="o"><path transform="translate(6,12)" class="S sf" d="M1335 1207 L1483 1355 L1483 1387 L1335 1239 Z"/><path class="f3" d="M1335 1207 L1483 1355 L1483 1387 L1335 1239 Z" /></g><g class="o"><path transform="translate(2,4)" class="S sfv" d="M957 1198 L1179 1420 L1179 1460 L957 1238 Z"/><path class="fv4" d="M957 1198 L1179 1420 L1179 1460 L957 1238 Z" /></g><g class="o"><path transform="translate(3,6)" class="S sfv" d="M1936 995 L2048 1107 L2048 1141 L1936 1029 Z"/><path class="fv3" d="M1936 995 L2048 1107 L2048 1141 L1936 1029 Z" /></g><g class="o"><path transform="translate(2,4)" class="S sfh" d="M1848 1640 L1755 1733 L1883 1733 L1976 1640 Z"/><path class="fh2" d="M1848 1640 L1755 1733 L1883 1733 L1976 1640 Z" /></g><g class="o"><path transform="translate(3,6)" class="S sfh" d="M1143 1263 L1230 1350 L1242 1350 L1155 1263 Z"/><path class="fh4" d="M1143 1263 L1230 1350 L1242 1350 L1155 1263 Z" /></g><g class="o"><path transform="translate(8,16)" class="S ssv" d="M1418 1994 L1657 2233 L1657 2253 L1418 2014 Z"/><path class="sv4" d="M1418 1994 L1657 2233 L1657 2253 L1418 2014 Z" /></g><g class="o"><path transform="translate(4,8)" class="S sf" d="M1731 1456 L1897 1622 L1897 1632 L1731 1466 Z"/><path class="f2" d="M1731 1456 L1897 1622 L1897 1632 L1731 1466 Z" /></g><g class="o"><path transform="translate(3,6)" class="S sfh" d="M1320 1365 L1370 1415 L1396 1415 L1346 1365 Z"/><path class="fh7" d="M1320 1365 L1370 1415 L1396 1415 L1346 1365 Z" /></g><g class="o"><path transform="translate(9,18)" class="S sfv" d="M1393 1520 L1446 1573 L1446 1595 L1393 1542 Z"/><path class="fv4" d="M1393 1520 L1446 1573 L1446 1595 L1393 1542 Z" /></g><g class="o"><path transform="translate(3,6)" class="S sfh" d="M1594 1493 L1396 1691 L1452 1691 L1650 1493 Z"/><path class="fh7" d="M1594 1493 L1396 1691 L1452 1691 L1650 1493 Z" /></g><g class="o"><path transform="translate(9,18)" class="S sfv" d="M1024 1466 L1215 1657 L1215 1785 L1024 1594 Z"/><path class="fv2" d="M1024 1466 L1215 1657 L1215 1785 L1024 1594 Z" /></g><g class="o"><path transform="translate(2,4)" class="S sf" d="M1029 1983 L1245 2199 L1261 2199 L1045 1983 Z"/><path class="f2" d="M1029 1983 L1245 2199 L1261 2199 L1045 1983 Z" /></g><g class="o"><path transform="translate(7,14)" class="S sfh" d="M1498 1962 L1596 2060 L1676 2060 L1578 1962 Z"/><path class="fh2" d="M1498 1962 L1596 2060 L1676 2060 L1578 1962 Z" /></g><g class="o"><path transform="translate(9,18)" class="S sf" d="M1276 1535 L1515 1774 L1515 1918 L1276 1679 Z"/><path class="f2" d="M1276 1535 L1515 1774 L1515 1918 L1276 1679 Z" /></g><g class="o"><path transform="translate(2,4)" class="S sfh" d="M1122 2043 L1254 2175 L1358 2175 L1226 2043 Z"/><path class="fh6" d="M1122 2043 L1254 2175 L1358 2175 L1226 2043 Z" /></g><g class="o"><path transform="translate(6,12)" class="S sfh" d="M1912 1409 L2107 1604 L2251 1604 L2056 1409 Z"/><path class="fh3" d="M1912 1409 L2107 1604 L2251 1604 L2056 1409 Z" /></g><g class="o"><path transform="translate(3,6)" class="S sfh" d="M1762 1179 L1560 1381 L1656 1381 L1858 1179 Z"/><path class="fh7" d="M1762 1179 L1560 1381 L1656 1381 L1858 1179 Z" /></g><g class="o"><path transform="translate(5,10)" class="S sfv" d="M1426 1016 L1186 1256 L1186 1288 L1426 1048 Z"/><path class="fv5" d="M1426 1016 L1186 1256 L1186 1288 L1426 1048 Z" /></g><g class="o"><path transform="translate(4,8)" class="S sfv" d="M1950 1510 L2055 1615 L2055 1663 L1950 1558 Z"/><path class="fv4" d="M1950 1510 L2055 1615 L2055 1663 L1950 1558 Z" /></g><g class="o"><path transform="translate(6,12)" class="S sfh" d="M1679 2033 L1754 2108 L1788 2108 L1713 2033 Z"/><path class="fh3" d="M1679 2033 L1754 2108 L1788 2108 L1713 2033 Z" /></g><g class="o"><path transform="translate(5,10)" class="S sf" d="M1398 1838 L1579 2019 L1579 2147 L1398 1966 Z"/><path class="f2" d="M1398 1838 L1579 2019 L1579 2147 L1398 1966 Z" /></g><g class="o"><path transform="translate(5,10)" class="S sfh" d="M1576 1366 L1750 1540 L1786 1540 L1612 1366 Z"/><path class="fh2" d="M1576 1366 L1750 1540 L1786 1540 L1612 1366 Z" /></g><g class="o"><path transform="translate(4,8)" class="S ssh" d="M1571 1877 L1666 1972 L1770 1972 L1675 1877 Z"/><path class="sh5" d="M1571 1877 L1666 1972 L1770 1972 L1675 1877 Z" /></g><g class="o"><path transform="translate(7,14)" class="S ssh" d="M1548 2028 L1667 2147 L1705 2147 L1586 2028 Z"/><path class="sh5" d="M1548 2028 L1667 2147 L1705 2147 L1586 2028 Z" /></g></g><use href="#slashes" transform-origin="1500 1500" transform="rotate(180) scale(2)"/></g><rect x="1080" y="1080" width="840" height="840" stroke-width="160" class="o s6" /><use href="#slashes" transform-origin="1500 1500" transform="scale(.7)"/><use href="#slashes" transform-origin="1500 1500" transform="rotate(180) scale(.3)"/></svg>