<svg xmlns="http://www.w3.org/2000/svg" viewBox="750 750 1500 1500"><style>/*<![CDATA[*/svg{background:rgb(34,34,34);max-width:100vw;max-height:100vh}path{stroke-width:4}.o{opacity:.75}.S{opacity:.4}.sf{stroke:none;fill:black}.sfh{stroke:none;fill:url(#hs)}.sfv{stroke:none;fill:url(#vs)}.ss{stroke:black;fill:none}.ssh{stroke:url(#hs);fill:none}.ssv{stroke:url(#vs);fill:none}.s1{fill:none;stroke:rgb(36,36,35)}.f1{stroke:none;fill:rgb(36,36,35)}.sh1{fill:none;stroke:url(#h1)}.fh1{stroke:none;fill:url(#h1)}.sv1{fill:none;stroke:url(#v1)}.fv1{stroke:none;fill:url(#v1)}.s2{fill:none;stroke:rgb(232,237,223)}.f2{stroke:none;fill:rgb(232,237,223)}.sh2{fill:none;stroke:url(#h2)}.fh2{stroke:none;fill:url(#h2)}.sv2{fill:none;stroke:url(#v2)}.fv2{stroke:none;fill:url(#v2)}.s3{fill:none;stroke:rgb(51,53,51)}.f3{stroke:none;fill:rgb(51,53,51)}.sh3{fill:none;stroke:url(#h3)}.fh3{stroke:none;fill:url(#h3)}.sv3{fill:none;stroke:url(#v3)}.fv3{stroke:none;fill:url(#v3)}.s4{fill:none;stroke:rgb(245,203,92)}.f4{stroke:none;fill:rgb(245,203,92)}.sh4{fill:none;stroke:url(#h4)}.fh4{stroke:none;fill:url(#h4)}.sv4{fill:none;stroke:url(#v4)}.fv4{stroke:none;fill:url(#v4)}.s5{fill:none;stroke:rgb(207,219,213)}.f5{stroke:none;fill:rgb(207,219,213)}.sh5{fill:none;stroke:url(#h5)}.fh5{stroke:none;fill:url(#h5)}.sv5{fill:none;stroke:url(#v5)}.fv5{stroke:none;fill:url(#v5)}.s6{fill:none;stroke:rgb(255,255,255)}.f6{stroke:none;fill:rgb(255,255,255)}.sh6{fill:none;stroke:url(#h6)}.fh6{stroke:none;fill:url(#h6)}.sv6{fill:none;stroke:url(#v6)}.fv6{stroke:none;fill:url(#v6)}.s7{fill:none;stroke:rgb(255,255,0)}.f7{stroke:none;fill:rgb(255,255,0)}.sh7{fill:none;stroke:url(#h7)}.fh7{stroke:none;fill:url(#h7)}.sv7{fill:none;stroke:url(#v7)}.fv7{stroke:none;fill:url(#v7)}/*]]>*/</style><defs><linearGradient gradientTransform="rotate(90)" id="hs"><stop offset="20%" stop-color="#000" /><stop offset="95%" stop-color="rgba(0, 0, 0, 0)" /></linearGradient><linearGradient id="vs"><stop offset="20%" stop-color="#000" /><stop offset="95%" stop-color="rgba(0, 0, 0, 0)" /></linearGradient><linearGradient gradientTransform="rotate(90)" id="h1"><stop offset="20%" stop-color="rgba(36,36,35,1)" /><stop offset="95%" stop-color="rgba(36,36,35,0)" /></linearGradient><linearGradient id="v1"><stop offset="20%" stop-color="rgba(36,36,35,1)" /><stop offset="95%" stop-color="rgba(36,36,35,0)" /></linearGradient><linearGradient gradientTransform="rotate(90)" id="h2"><stop offset="20%" stop-color="rgba(232,237,223,1)" /><stop offset="95%" stop-color="rgba(232,237,223,0)" /></linearGradient><linearGradient id="v2"><stop offset="20%" stop-color="rgba(232,237,223,1)" /><stop offset="95%" stop-color="rgba(232,237,223,0)" /></linearGradient><linearGradient gradientTransform="rotate(90)" id="h3"><stop offset="20%" stop-color="rgba(51,53,51,1)" /><stop offset="95%" stop-color="rgba(51,53,51,0)" /></linearGradient><linearGradient id="v3"><stop offset="20%" stop-color="rgba(51,53,51,1)" /><stop offset="95%" stop-color="rgba(51,53,51,0)" /></linearGradient><linearGradient gradientTransform="rotate(90)" id="h4"><stop offset="20%" stop-color="rgba(245,203,92,1)" /><stop offset="95%" stop-color="rgba(245,203,92,0)" /></linearGradient><linearGradient id="v4"><stop offset="20%" stop-color="rgba(245,203,92,1)" /><stop offset="95%" stop-color="rgba(245,203,92,0)" /></linearGradient><linearGradient gradientTransform="rotate(90)" id="h5"><stop offset="20%" stop-color="rgba(207,219,213,1)" /><stop offset="95%" stop-color="rgba(207,219,213,0)" /></linearGradient><linearGradient id="v5"><stop offset="20%" stop-color="rgba(207,219,213,1)" /><stop offset="95%" stop-color="rgba(207,219,213,0)" /></linearGradient><linearGradient gradientTransform="rotate(90)" id="h6"><stop offset="20%" stop-color="rgba(255,255,255,1)" /><stop offset="95%" stop-color="rgba(255,255,255,0)" /></linearGradient><linearGradient id="v6"><stop offset="20%" stop-color="rgba(255,255,255,1)" /><stop offset="95%" stop-color="rgba(255,255,255,0)" /></linearGradient><linearGradient gradientTransform="rotate(90)" id="h7"><stop offset="20%" stop-color="rgba(255,255,0,1)" /><stop offset="95%" stop-color="rgba(255,255,0,0)" /></linearGradient><linearGradient id="v7"><stop offset="20%" stop-color="rgba(255,255,0,1)" /><stop offset="95%" stop-color="rgba(255,255,0,0)" /></linearGradient></defs><g transform-origin="1500 1500" transform="scale(2)" opacity=".2"><g id="slashes"><g class="o"><path transform="translate(8,16)" class="S ss" d="M1977 1948 L2337 2308 L2373 2308 L2013 1948 Z"/><path class="s2" d="M1977 1948 L2337 2308 L2373 2308 L2013 1948 Z" /></g><g class="o"><path transform="translate(4,8)" class="S sf" d="M1687 1371 L2323 2007 L2323 2103 L1687 1467 Z"/><path class="f2" d="M1687 1371 L2323 2007 L2323 2103 L1687 1467 Z" /></g><g class="o"><path transform="translate(5,10)" class="S ss" d="M2024 1128 L2219 1323 L2219 1349 L2024 1154 Z"/><path class="s1" d="M2024 1128 L2219 1323 L2219 1349 L2024 1154 Z" /></g><g class="o"><path transform="translate(3,6)" class="S sf" d="M1667 1068 L1518 1217 L1526 1217 L1675 1068 Z"/><path class="f7" d="M1667 1068 L1518 1217 L1526 1217 L1675 1068 Z" /></g><g class="o"><path transform="translate(7,14)" class="S sf" d="M1452 1052 L2181 1781 L2181 1819 L1452 1090 Z"/><path class="f3" d="M1452 1052 L2181 1781 L2181 1819 L1452 1090 Z" /></g><g class="o"><path transform="translate(8,16)" class="S sf" d="M1211 1353 L512 2052 L512 2188 L1211 1489 Z"/><path class="f6" d="M1211 1353 L512 2052 L512 2188 L1211 1489 Z" /></g><g class="o"><path transform="translate(9,18)" class="S sf" d="M1334 1398 L1516 1580 L1516 1618 L1334 1436 Z"/><path class="f3" d="M1334 1398 L1516 1580 L1516 1618 L1334 1436 Z" /></g><g class="o"><path transform="translate(7,14)" class="S sf" d="M1688 1168 L1746 1226 L1746 1246 L1688 1188 Z"/><path class="f3" d="M1688 1168 L1746 1226 L1746 1246 L1688 1188 Z" /></g><g class="o"><path transform="translate(8,16)" class="S sf" d="M1630 1351 L1793 1514 L1793 1550 L1630 1387 Z"/><path class="f2" d="M1630 1351 L1793 1514 L1793 1550 L1630 1387 Z" /></g><g class="o"><path transform="translate(4,8)" class="S sf" d="M1745 1071 L1539 1277 L1659 1277 L1865 1071 Z"/><path class="f2" d="M1745 1071 L1539 1277 L1659 1277 L1865 1071 Z" /></g><g class="o"><path transform="translate(3,6)" class="S sf" d="M1864 1620 L2080 1836 L2080 1856 L1864 1640 Z"/><path class="f4" d="M1864 1620 L2080 1836 L2080 1856 L1864 1640 Z" /></g><g class="o"><path transform="translate(5,10)" class="S ss" d="M1543 1146 L1177 1512 L1177 1534 L1543 1168 Z"/><path class="s4" d="M1543 1146 L1177 1512 L1177 1534 L1543 1168 Z" /></g><g class="o"><path transform="translate(5,10)" class="S ss" d="M1001 1526 L1224 1749 L1246 1749 L1023 1526 Z"/><path class="s1" d="M1001 1526 L1224 1749 L1246 1749 L1023 1526 Z" /></g><g class="o"><path transform="translate(4,8)" class="S sf" d="M1602 1008 L1830 1236 L1830 1266 L1602 1038 Z"/><path class="f7" d="M1602 1008 L1830 1236 L1830 1266 L1602 1038 Z" /></g><g class="o"><path transform="translate(5,10)" class="S sf" d="M1645 1298 L1951 1604 L1951 1642 L1645 1336 Z"/><path class="f6" d="M1645 1298 L1951 1604 L1951 1642 L1645 1336 Z" /></g><g class="o"><path transform="translate(4,8)" class="S ss" d="M1852 1284 L1788 1348 L1788 1376 L1852 1312 Z"/><path class="s6" d="M1852 1284 L1788 1348 L1788 1376 L1852 1312 Z" /></g><g class="o"><path transform="translate(9,18)" class="S sf" d="M1113 1663 L765 2011 L765 2131 L1113 1783 Z"/><path class="f4" d="M1113 1663 L765 2011 L765 2131 L1113 1783 Z" /></g><g class="o"><path transform="translate(7,14)" class="S sf" d="M1783 1573 L1896 1686 L1896 1722 L1783 1609 Z"/><path class="f2" d="M1783 1573 L1896 1686 L1896 1722 L1783 1609 Z" /></g><g class="o"><path transform="translate(6,12)" class="S sf" d="M1493 1929 L1597 2033 L1597 2047 L1493 1943 Z"/><path class="f6" d="M1493 1929 L1597 2033 L1597 2047 L1493 1943 Z" /></g><g class="o"><path transform="translate(7,14)" class="S sf" d="M1950 1306 L2059 1415 L2069 1415 L1960 1306 Z"/><path class="f1" d="M1950 1306 L2059 1415 L2069 1415 L1960 1306 Z" /></g><g class="o"><path transform="translate(2,4)" class="S sf" d="M1756 1746 L1862 1852 L1872 1852 L1766 1746 Z"/><path class="f6" d="M1756 1746 L1862 1852 L1872 1852 L1766 1746 Z" /></g><g class="o"><path transform="translate(3,6)" class="S sf" d="M1077 1572 L1143 1638 L1163 1638 L1097 1572 Z"/><path class="f4" d="M1077 1572 L1143 1638 L1163 1638 L1097 1572 Z" /></g><g class="o"><path transform="translate(5,10)" class="S sf" d="M1529 1339 L1628 1438 L1628 1486 L1529 1387 Z"/><path class="f7" d="M1529 1339 L1628 1438 L1628 1486 L1529 1387 Z" /></g><g class="o"><path transform="translate(6,12)" class="S sf" d="M1059 1147 L1116 1204 L1116 1216 L1059 1159 Z"/><path class="f7" d="M1059 1147 L1116 1204 L1116 1216 L1059 1159 Z" /></g><g class="o"><path transform="translate(8,16)" class="S ss" d="M1789 1309 L1948 1468 L1948 1498 L1789 1339 Z"/><path class="s7" d="M1789 1309 L1948 1468 L1948 1498 L1789 1339 Z" /></g><g class="o"><path transform="translate(9,18)" class="S sf" d="M1182 1490 L1071 1601 L1085 1601 L1196 1490 Z"/><path class="f3" d="M1182 1490 L1071 1601 L1085 1601 L1196 1490 Z" /></g><g class="o"><path transform="translate(4,8)" class="S sf" d="M1042 1597 L1191 1746 L1191 1882 L1042 1733 Z"/><path class="f7" d="M1042 1597 L1191 1746 L1191 1882 L1042 1733 Z" /></g><g class="o"><path transform="translate(5,10)" class="S ss" d="M1206 1268 L1271 1333 L1271 1355 L1206 1290 Z"/><path class="s7" d="M1206 1268 L1271 1333 L1271 1355 L1206 1290 Z" /></g><g class="o"><path transform="translate(3,6)" class="S sf" d="M1413 2048 L1116 2345 L1142 2345 L1439 2048 Z"/><path class="f2" d="M1413 2048 L1116 2345 L1142 2345 L1439 2048 Z" /></g><g class="o"><path transform="translate(4,8)" class="S sf" d="M1155 2045 L1311 2201 L1333 2201 L1177 2045 Z"/><path class="f6" d="M1155 2045 L1311 2201 L1333 2201 L1177 2045 Z" /></g><g class="o"><path transform="translate(2,4)" class="S sf" d="M1632 1874 L1688 1930 L1688 1944 L1632 1888 Z"/><path class="f6" d="M1632 1874 L1688 1930 L1688 1944 L1632 1888 Z" /></g><g class="o"><path transform="translate(3,6)" class="S sf" d="M1845 1189 L2083 1427 L2105 1427 L1867 1189 Z"/><path class="f4" d="M1845 1189 L2083 1427 L2105 1427 L1867 1189 Z" /></g><g class="o"><path transform="translate(2,4)" class="S ss" d="M1837 1218 L1321 1734 L1321 1752 L1837 1236 Z"/><path class="s5" d="M1837 1218 L1321 1734 L1321 1752 L1837 1236 Z" /></g><g class="o"><path transform="translate(8,16)" class="S sf" d="M1554 1421 L2088 1955 L2088 1981 L1554 1447 Z"/><path class="f4" d="M1554 1421 L2088 1955 L2088 1981 L1554 1447 Z" /></g><g class="o"><path transform="translate(4,8)" class="S sf" d="M2006 1975 L1801 2180 L1801 2216 L2006 2011 Z"/><path class="f2" d="M2006 1975 L1801 2180 L1801 2216 L2006 2011 Z" /></g><g class="o"><path transform="translate(2,4)" class="S ss" d="M1087 1175 L1200 1288 L1200 1312 L1087 1199 Z"/><path class="s7" d="M1087 1175 L1200 1288 L1200 1312 L1087 1199 Z" /></g><g class="o"><path transform="translate(7,14)" class="S ss" d="M1230 1241 L1462 1473 L1490 1473 L1258 1241 Z"/><path class="s2" d="M1230 1241 L1462 1473 L1490 1473 L1258 1241 Z" /></g><g class="o"><path transform="translate(4,8)" class="S sf" d="M960 1728 L1124 1892 L1140 1892 L976 1728 Z"/><path class="f4" d="M960 1728 L1124 1892 L1140 1892 L976 1728 Z" /></g><g class="o"><path transform="translate(4,8)" class="S sf" d="M1470 1830 L1706 2066 L1706 2074 L1470 1838 Z"/><path class="f3" d="M1470 1830 L1706 2066 L1706 2074 L1470 1838 Z" /></g><g class="o"><path transform="translate(5,10)" class="S sf" d="M961 1019 L1105 1163 L1193 1163 L1049 1019 Z"/><path class="f1" d="M961 1019 L1105 1163 L1193 1163 L1049 1019 Z" /></g><g class="o"><path transform="translate(6,12)" class="S sf" d="M1401 1961 L1560 2120 L1560 2134 L1401 1975 Z"/><path class="f3" d="M1401 1961 L1560 2120 L1560 2134 L1401 1975 Z" /></g><g class="o"><path transform="translate(5,10)" class="S sf" d="M1583 1676 L1780 1873 L1780 1901 L1583 1704 Z"/><path class="f7" d="M1583 1676 L1780 1873 L1780 1901 L1583 1704 Z" /></g><g class="o"><path transform="translate(6,12)" class="S sf" d="M1576 1510 L1788 1722 L1788 1760 L1576 1548 Z"/><path class="f2" d="M1576 1510 L1788 1722 L1788 1760 L1576 1548 Z" /></g><g class="o"><path transform="translate(3,6)" class="S sf" d="M1094 2034 L1598 2538 L1618 2538 L1114 2034 Z"/><path class="f5" d="M1094 2034 L1598 2538 L1618 2538 L1114 2034 Z" /></g><g class="o"><path transform="translate(9,18)" class="S sf" d="M1396 1036 L1479 1119 L1479 1143 L1396 1060 Z"/><path class="f6" d="M1396 1036 L1479 1119 L1479 1143 L1396 1060 Z" /></g><g class="o"><path transform="translate(7,14)" class="S ss" d="M944 1027 L1068 1151 L1088 1151 L964 1027 Z"/><path class="s6" d="M944 1027 L1068 1151 L1088 1151 L964 1027 Z" /></g><g class="o"><path transform="translate(7,14)" class="S sf" d="M1581 1831 L1506 1906 L1506 1914 L1581 1839 Z"/><path class="f1" d="M1581 1831 L1506 1906 L1506 1914 L1581 1839 Z" /></g><g class="o"><path transform="translate(2,4)" class="S sf" d="M1385 2024 L1507 2146 L1533 2146 L1411 2024 Z"/><path class="f5" d="M1385 2024 L1507 2146 L1533 2146 L1411 2024 Z" /></g><g class="o"><path transform="translate(3,6)" class="S sf" d="M1542 1457 L1615 1530 L1623 1530 L1550 1457 Z"/><path class="f6" d="M1542 1457 L1615 1530 L1623 1530 L1550 1457 Z" /></g><g class="o"><path transform="translate(7,14)" class="S sf" d="M1504 1723 L1631 1850 L1669 1850 L1542 1723 Z"/><path class="f3" d="M1504 1723 L1631 1850 L1669 1850 L1542 1723 Z" /></g><g class="o"><path transform="translate(3,6)" class="S sf" d="M1274 1749 L1982 2457 L1982 2485 L1274 1777 Z"/><path class="f1" d="M1274 1749 L1982 2457 L1982 2485 L1274 1777 Z" /></g><g class="o"><path transform="translate(8,16)" class="S ss" d="M972 1294 L895 1371 L895 1379 L972 1302 Z"/><path class="s4" d="M972 1294 L895 1371 L895 1379 L972 1302 Z" /></g><g class="o"><path transform="translate(7,14)" class="S sf" d="M1756 957 L1958 1159 L1958 1181 L1756 979 Z"/><path class="f4" d="M1756 957 L1958 1159 L1958 1181 L1756 979 Z" /></g><g class="o"><path transform="translate(2,4)" class="S sf" d="M1891 1063 L1213 1741 L1229 1741 L1907 1063 Z"/><path class="f3" d="M1891 1063 L1213 1741 L1229 1741 L1907 1063 Z" /></g><g class="o"><path transform="translate(2,4)" class="S sf" d="M1472 1309 L1550 1387 L1550 1413 L1472 1335 Z"/><path class="f6" d="M1472 1309 L1550 1387 L1550 1413 L1472 1335 Z" /></g><g class="o"><path transform="translate(8,16)" class="S sf" d="M1866 1013 L2062 1209 L2090 1209 L1894 1013 Z"/><path class="f5" d="M1866 1013 L2062 1209 L2090 1209 L1894 1013 Z" /></g><g class="o"><path transform="translate(8,16)" class="S sf" d="M1729 1184 L1950 1405 L1950 1431 L1729 1210 Z"/><path class="f7" d="M1729 1184 L1950 1405 L1950 1431 L1729 1210 Z" /></g><g class="o"><path transform="translate(5,10)" class="S sf" d="M1913 1656 L2636 2379 L2636 2413 L1913 1690 Z"/><path class="f3" d="M1913 1656 L2636 2379 L2636 2413 L1913 1690 Z" /></g><g class="o"><path transform="translate(6,12)" class="S sf" d="M1283 1747 L1356 1820 L1382 1820 L1309 1747 Z"/><path class="f3" d="M1283 1747 L1356 1820 L1382 1820 L1309 1747 Z" /></g><g class="o"><path transform="translate(6,12)" class="S ss" d="M1651 1394 L1463 1582 L1607 1582 L1795 1394 Z"/><path class="s4" d="M1651 1394 L1463 1582 L1607 1582 L1795 1394 Z" /></g><g class="o"><path transform="translate(4,8)" class="S sf" d="M1633 2010 L1691 2068 L1699 2068 L1641 2010 Z"/><path class="f2" d="M1633 2010 L1691 2068 L1699 2068 L1641 2010 Z" /></g><g class="o"><path transform="translate(7,14)" class="S sf" d="M1019 1386 L849 1556 L857 1556 L1027 1386 Z"/><path class="f3" d="M1019 1386 L849 1556 L857 1556 L1027 1386 Z" /></g><g class="o"><path transform="translate(3,6)" class="S sf" d="M1595 1274 L2156 1835 L2178 1835 L1617 1274 Z"/><path class="f5" d="M1595 1274 L2156 1835 L2178 1835 L1617 1274 Z" /></g><g class="o"><path transform="translate(2,4)" class="S sf" d="M1366 1602 L1599 1835 L1599 1847 L1366 1614 Z"/><path class="f7" d="M1366 1602 L1599 1835 L1599 1847 L1366 1614 Z" /></g><g class="o"><path transform="translate(8,16)" class="S sf" d="M1605 1580 L1483 1702 L1483 1730 L1605 1608 Z"/><path class="f2" d="M1605 1580 L1483 1702 L1483 1730 L1605 1608 Z" /></g><g class="o"><path transform="translate(9,18)" class="S sf" d="M1454 1520 L1562 1628 L1562 1656 L1454 1548 Z"/><path class="f6" d="M1454 1520 L1562 1628 L1562 1656 L1454 1548 Z" /></g><g class="o"><path transform="translate(2,4)" class="S sf" d="M1164 1683 L1295 1814 L1295 1850 L1164 1719 Z"/><path class="f2" d="M1164 1683 L1295 1814 L1295 1850 L1164 1719 Z" /></g><g class="o"><path transform="translate(7,14)" class="S ss" d="M1695 1406 L1371 1730 L1383 1730 L1707 1406 Z"/><path class="s4" d="M1695 1406 L1371 1730 L1383 1730 L1707 1406 Z" /></g><g class="o"><path transform="translate(6,12)" class="S sf" d="M1357 1244 L1436 1323 L1452 1323 L1373 1244 Z"/><path class="f5" d="M1357 1244 L1436 1323 L1452 1323 L1373 1244 Z" /></g><g class="o"><path transform="translate(2,4)" class="S ss" d="M1050 1183 L1160 1293 L1160 1307 L1050 1197 Z"/><path class="s3" d="M1050 1183 L1160 1293 L1160 1307 L1050 1197 Z" /></g><g class="o"><path transform="translate(8,16)" class="S sf" d="M1166 1843 L1595 2272 L1595 2296 L1166 1867 Z"/><path class="f6" d="M1166 1843 L1595 2272 L1595 2296 L1166 1867 Z" /></g><g class="o"><path transform="translate(2,4)" class="S sf" d="M1944 1732 L2066 1854 L2076 1854 L1954 1732 Z"/><path class="f4" d="M1944 1732 L2066 1854 L2076 1854 L1954 1732 Z" /></g><g class="o"><path transform="translate(3,6)" class="S sf" d="M1031 1828 L819 2040 L819 2066 L1031 1854 Z"/><path class="f4" d="M1031 1828 L819 2040 L819 2066 L1031 1854 Z" /></g><g class="o"><path transform="translate(9,18)" class="S sf" d="M1633 1277 L1833 1477 L1843 1477 L1643 1277 Z"/><path class="f5" d="M1633 1277 L1833 1477 L1843 1477 L1643 1277 Z" /></g><g class="o"><path transform="translate(9,18)" class="S sf" d="M2017 1734 L2234 1951 L2234 2055 L2017 1838 Z"/><path class="f2" d="M2017 1734 L2234 1951 L2234 2055 L2017 1838 Z" /></g><g class="o"><path transform="translate(4,8)" class="S ss" d="M1013 1934 L1172 2093 L1182 2093 L1023 1934 Z"/><path class="s5" d="M1013 1934 L1172 2093 L1182 2093 L1023 1934 Z" /></g><g class="o"><path transform="translate(3,6)" class="S sf" d="M1791 1631 L2070 1910 L2070 1918 L1791 1639 Z"/><path class="f6" d="M1791 1631 L2070 1910 L2070 1918 L1791 1639 Z" /></g><g class="o"><path transform="translate(6,12)" class="S sf" d="M1989 1003 L2109 1123 L2147 1123 L2027 1003 Z"/><path class="f7" d="M1989 1003 L2109 1123 L2147 1123 L2027 1003 Z" /></g><g class="o"><path transform="translate(7,14)" class="S sf" d="M1196 1935 L1438 2177 L1474 2177 L1232 1935 Z"/><path class="f3" d="M1196 1935 L1438 2177 L1474 2177 L1232 1935 Z" /></g><g class="o"><path transform="translate(2,4)" class="S sf" d="M1031 1824 L1235 2028 L1235 2062 L1031 1858 Z"/><path class="f6" d="M1031 1824 L1235 2028 L1235 2062 L1031 1858 Z" /></g><g class="o"><path transform="translate(6,12)" class="S sf" d="M1229 1713 L644 2298 L644 2442 L1229 1857 Z"/><path class="f4" d="M1229 1713 L644 2298 L644 2442 L1229 1857 Z" /></g><g class="o"><path transform="translate(5,10)" class="S sf" d="M1488 1282 L1432 1338 L1432 1368 L1488 1312 Z"/><path class="f1" d="M1488 1282 L1432 1338 L1432 1368 L1488 1312 Z" /></g><g class="o"><path transform="translate(8,16)" class="S sf" d="M1420 1282 L1659 1521 L1687 1521 L1448 1282 Z"/><path class="f3" d="M1420 1282 L1659 1521 L1687 1521 L1448 1282 Z" /></g><g class="o"><path transform="translate(9,18)" class="S sf" d="M1481 1737 L1651 1907 L1651 1933 L1481 1763 Z"/><path class="f5" d="M1481 1737 L1651 1907 L1651 1933 L1481 1763 Z" /></g><g class="o"><path transform="translate(2,4)" class="S sf" d="M1491 1963 L1358 2096 L1390 2096 L1523 1963 Z"/><path class="f7" d="M1491 1963 L1358 2096 L1390 2096 L1523 1963 Z" /></g><g class="o"><path transform="translate(7,14)" class="S sf" d="M961 1155 L1156 1350 L1156 1386 L961 1191 Z"/><path class="f6" d="M961 1155 L1156 1350 L1156 1386 L961 1191 Z" /></g><g class="o"><path transform="translate(3,6)" class="S sf" d="M1384 948 L1154 1178 L1154 1330 L1384 1100 Z"/><path class="f1" d="M1384 948 L1154 1178 L1154 1330 L1384 1100 Z" /></g><g class="o"><path transform="translate(3,6)" class="S sf" d="M1398 1848 L1478 1928 L1478 1958 L1398 1878 Z"/><path class="f3" d="M1398 1848 L1478 1928 L1478 1958 L1398 1878 Z" /></g><g class="o"><path transform="translate(3,6)" class="S sf" d="M1710 1471 L1853 1614 L1853 1662 L1710 1519 Z"/><path class="f6" d="M1710 1471 L1853 1614 L1853 1662 L1710 1519 Z" /></g><g class="o"><path transform="translate(6,12)" class="S sf" d="M1798 1211 L1852 1265 L1852 1291 L1798 1237 Z"/><path class="f3" d="M1798 1211 L1852 1265 L1852 1291 L1798 1237 Z" /></g><g class="o"><path transform="translate(6,12)" class="S sf" d="M1002 1895 L1305 2198 L1305 2224 L1002 1921 Z"/><path class="f3" d="M1002 1895 L1305 2198 L1305 2224 L1002 1921 Z" /></g><g class="o"><path transform="translate(9,18)" class="S sf" d="M2025 1867 L2106 1948 L2128 1948 L2047 1867 Z"/><path class="f2" d="M2025 1867 L2106 1948 L2128 1948 L2047 1867 Z" /></g><g class="o"><path transform="translate(7,14)" class="S sf" d="M1770 1349 L1959 1538 L1999 1538 L1810 1349 Z"/><path class="f5" d="M1770 1349 L1959 1538 L1999 1538 L1810 1349 Z" /></g><g class="o"><path transform="translate(6,12)" class="S sf" d="M1735 1736 L1933 1934 L1933 1946 L1735 1748 Z"/><path class="f2" d="M1735 1736 L1933 1934 L1933 1946 L1735 1748 Z" /></g><g class="o"><path transform="translate(7,14)" class="S sf" d="M1132 1914 L1270 2052 L1270 2070 L1132 1932 Z"/><path class="f7" d="M1132 1914 L1270 2052 L1270 2070 L1132 1932 Z" /></g><g class="o"><path transform="translate(4,8)" class="S sf" d="M2020 1037 L2107 1124 L2107 1134 L2020 1047 Z"/><path class="f3" d="M2020 1037 L2107 1124 L2107 1134 L2020 1047 Z" /></g><g class="o"><path transform="translate(8,16)" class="S sf" d="M1167 1587 L738 2016 L738 2034 L1167 1605 Z"/><path class="f1" d="M1167 1587 L738 2016 L738 2034 L1167 1605 Z" /></g><g class="o"><path transform="translate(7,14)" class="S sf" d="M1165 1871 L1351 2057 L1367 2057 L1181 1871 Z"/><path class="f1" d="M1165 1871 L1351 2057 L1367 2057 L1181 1871 Z" /></g><g class="o"><path transform="translate(3,6)" class="S sf" d="M1980 1953 L2147 2120 L2147 2192 L1980 2025 Z"/><path class="f3" d="M1980 1953 L2147 2120 L2147 2192 L1980 2025 Z" /></g><g class="o"><path transform="translate(4,8)" class="S sf" d="M1212 1893 L657 2448 L657 2468 L1212 1913 Z"/><path class="f3" d="M1212 1893 L657 2448 L657 2468 L1212 1913 Z" /></g><g class="o"><path transform="translate(7,14)" class="S sf" d="M982 1351 L1105 1474 L1113 1474 L990 1351 Z"/><path class="f1" d="M982 1351 L1105 1474 L1113 1474 L990 1351 Z" /></g><g class="o"><path transform="translate(4,8)" class="S ss" d="M1040 1352 L1181 1493 L1217 1493 L1076 1352 Z"/><path class="s1" d="M1040 1352 L1181 1493 L1217 1493 L1076 1352 Z" /></g><g class="o"><path transform="translate(2,4)" class="S sf" d="M1649 1705 L1795 1851 L1795 1889 L1649 1743 Z"/><path class="f2" d="M1649 1705 L1795 1851 L1795 1889 L1649 1743 Z" /></g><g class="o"><path transform="translate(3,6)" class="S sf" d="M1266 1025 L1347 1106 L1373 1106 L1292 1025 Z"/><path class="f5" d="M1266 1025 L1347 1106 L1373 1106 L1292 1025 Z" /></g><g class="o"><path transform="translate(2,4)" class="S ss" d="M1899 1009 L1958 1068 L1984 1068 L1925 1009 Z"/><path class="s4" d="M1899 1009 L1958 1068 L1984 1068 L1925 1009 Z" /></g><g class="o"><path transform="translate(7,14)" class="S sf" d="M1439 1561 L1682 1804 L1682 1834 L1439 1591 Z"/><path class="f1" d="M1439 1561 L1682 1804 L1682 1834 L1439 1591 Z" /></g><g class="o"><path transform="translate(7,14)" class="S sf" d="M1233 1365 L1462 1594 L1502 1594 L1273 1365 Z"/><path class="f4" d="M1233 1365 L1462 1594 L1502 1594 L1273 1365 Z" /></g><g class="o"><path transform="translate(3,6)" class="S sf" d="M1207 1538 L1443 1774 L1443 1800 L1207 1564 Z"/><path class="f1" d="M1207 1538 L1443 1774 L1443 1800 L1207 1564 Z" /></g><g class="o"><path transform="translate(5,10)" class="S sf" d="M1161 988 L687 1462 L705 1462 L1179 988 Z"/><path class="f6" d="M1161 988 L687 1462 L705 1462 L1179 988 Z" /></g><g class="o"><path transform="translate(8,16)" class="S ss" d="M1732 1815 L1955 2038 L1985 2038 L1762 1815 Z"/><path class="s7" d="M1732 1815 L1955 2038 L1985 2038 L1762 1815 Z" /></g><g class="o"><path transform="translate(9,18)" class="S sf" d="M1948 1733 L2174 1959 L2174 1991 L1948 1765 Z"/><path class="f7" d="M1948 1733 L2174 1959 L2174 1991 L1948 1765 Z" /></g><g class="o"><path transform="translate(8,16)" class="S sf" d="M1800 1712 L2274 2186 L2304 2186 L1830 1712 Z"/><path class="f6" d="M1800 1712 L2274 2186 L2304 2186 L1830 1712 Z" /></g><g class="o"><path transform="translate(8,16)" class="S sf" d="M1591 2027 L1645 2081 L1645 2099 L1591 2045 Z"/><path class="f4" d="M1591 2027 L1645 2081 L1645 2099 L1591 2045 Z" /></g><g class="o"><path transform="translate(7,14)" class="S sf" d="M1478 1905 L1257 2126 L1257 2158 L1478 1937 Z"/><path class="f2" d="M1478 1905 L1257 2126 L1257 2158 L1478 1937 Z" /></g><g class="o"><path transform="translate(6,12)" class="S ss" d="M1114 1930 L1792 2608 L1824 2608 L1146 1930 Z"/><path class="s1" d="M1114 1930 L1792 2608 L1824 2608 L1146 1930 Z" /></g><g class="o"><path transform="translate(5,10)" class="S sf" d="M1585 1425 L1812 1652 L1812 1690 L1585 1463 Z"/><path class="f5" d="M1585 1425 L1812 1652 L1812 1690 L1585 1463 Z" /></g><g class="o"><path transform="translate(9,18)" class="S sf" d="M1419 1528 L1577 1686 L1577 1722 L1419 1564 Z"/><path class="f4" d="M1419 1528 L1577 1686 L1577 1722 L1419 1564 Z" /></g><g class="o"><path transform="translate(5,10)" class="S sf" d="M1107 1612 L1221 1726 L1221 1754 L1107 1640 Z"/><path class="f2" d="M1107 1612 L1221 1726 L1221 1754 L1107 1640 Z" /></g><g class="o"><path transform="translate(7,14)" class="S sf" d="M1901 1316 L1759 1458 L1759 1488 L1901 1346 Z"/><path class="f3" d="M1901 1316 L1759 1458 L1759 1488 L1901 1346 Z" /></g><g class="o"><path transform="translate(8,16)" class="S sf" d="M1776 1562 L1257 2081 L1291 2081 L1810 1562 Z"/><path class="f7" d="M1776 1562 L1257 2081 L1291 2081 L1810 1562 Z" /></g><g class="o"><path transform="translate(5,10)" class="S ss" d="M1532 2022 L1358 2196 L1358 2210 L1532 2036 Z"/><path class="s5" d="M1532 2022 L1358 2196 L1358 2210 L1532 2036 Z" /></g><g class="o"><path transform="translate(7,14)" class="S sf" d="M1865 1287 L1214 1938 L1214 2082 L1865 1431 Z"/><path class="f6" d="M1865 1287 L1214 1938 L1214 2082 L1865 1431 Z" /></g><g class="o"><path transform="translate(9,18)" class="S sf" d="M1201 1774 L1304 1877 L1318 1877 L1215 1774 Z"/><path class="f6" d="M1201 1774 L1304 1877 L1318 1877 L1215 1774 Z" /></g><g class="o"><path transform="translate(2,4)" class="S sf" d="M1077 1624 L1250 1797 L1250 1813 L1077 1640 Z"/><path class="f5" d="M1077 1624 L1250 1797 L1250 1813 L1077 1640 Z" /></g><g class="o"><path transform="translate(6,12)" class="S sf" d="M1262 1547 L1370 1655 L1370 1693 L1262 1585 Z"/><path class="f4" d="M1262 1547 L1370 1655 L1370 1693 L1262 1585 Z" /></g><g class="o"><path transform="translate(7,14)" class="S sf" d="M989 1970 L1088 2069 L1124 2069 L1025 1970 Z"/><path class="f2" d="M989 1970 L1088 2069 L1124 2069 L1025 1970 Z" /></g><g class="o"><path transform="translate(2,4)" class="S sf" d="M1293 1562 L1722 1991 L1750 1991 L1321 1562 Z"/><path class="f1" d="M1293 1562 L1722 1991 L1750 1991 L1321 1562 Z" /></g><g class="o"><path transform="translate(5,10)" class="S sf" d="M1549 1747 L1747 1945 L1769 1945 L1571 1747 Z"/><path class="f7" d="M1549 1747 L1747 1945 L1769 1945 L1571 1747 Z" /></g><g class="o"><path transform="translate(7,14)" class="S sf" d="M1533 1773 L1360 1946 L1372 1946 L1545 1773 Z"/><path class="f1" d="M1533 1773 L1360 1946 L1372 1946 L1545 1773 Z" /></g><g class="o"><path transform="translate(9,18)" class="S sf" d="M1642 1630 L1581 1691 L1613 1691 L1674 1630 Z"/><path class="f5" d="M1642 1630 L1581 1691 L1613 1691 L1674 1630 Z" /></g><g class="o"><path transform="translate(8,16)" class="S ss" d="M1169 1112 L1393 1336 L1393 1344 L1169 1120 Z"/><path class="s7" d="M1169 1112 L1393 1336 L1393 1344 L1169 1120 Z" /></g><g class="o"><path transform="translate(6,12)" class="S sf" d="M1340 1440 L1427 1527 L1427 1565 L1340 1478 Z"/><path class="f1" d="M1340 1440 L1427 1527 L1427 1565 L1340 1478 Z" /></g><g class="o"><path transform="translate(2,4)" class="S sf" d="M1345 1001 L1145 1201 L1155 1201 L1355 1001 Z"/><path class="f5" d="M1345 1001 L1145 1201 L1155 1201 L1355 1001 Z" /></g><g class="o"><path transform="translate(8,16)" class="S ss" d="M1077 1292 L1728 1943 L1728 1961 L1077 1310 Z"/><path class="s3" d="M1077 1292 L1728 1943 L1728 1961 L1077 1310 Z" /></g><g class="o"><path transform="translate(4,8)" class="S sf" d="M1653 1503 L1435 1721 L1445 1721 L1663 1503 Z"/><path class="f6" d="M1653 1503 L1435 1721 L1445 1721 L1663 1503 Z" /></g><g class="o"><path transform="translate(2,4)" class="S sf" d="M1926 1702 L1854 1774 L1854 1796 L1926 1724 Z"/><path class="f2" d="M1926 1702 L1854 1774 L1854 1796 L1926 1724 Z" /></g><g class="o"><path transform="translate(5,10)" class="S sf" d="M1399 1501 L1489 1591 L1527 1591 L1437 1501 Z"/><path class="f3" d="M1399 1501 L1489 1591 L1527 1591 L1437 1501 Z" /></g><g class="o"><path transform="translate(2,4)" class="S sf" d="M1206 1019 L1665 1478 L1665 1504 L1206 1045 Z"/><path class="f4" d="M1206 1019 L1665 1478 L1665 1504 L1206 1045 Z" /></g><g class="o"><path transform="translate(5,10)" class="S sf" d="M1902 1014 L1728 1188 L1736 1188 L1910 1014 Z"/><path class="f6" d="M1902 1014 L1728 1188 L1736 1188 L1910 1014 Z" /></g><g class="o"><path transform="translate(6,12)" class="S sf" d="M1944 1713 L2100 1869 L2100 1889 L1944 1733 Z"/><path class="f5" d="M1944 1713 L2100 1869 L2100 1889 L1944 1733 Z" /></g></g><use href="#slashes" transform-origin="1500 1500" transform="rotate(180) scale(2)"/></g><polyline points="1500,1010 1990,1500 1500,1990 1010,1500 1500,1010 1990,1500" stroke-width="20" class="o f2" /><use href="#slashes" transform-origin="1500 1500" transform="scale(.3)"/><use href="#slashes" transform-origin="1500 1500" transform="rotate(180) scale(.7)"/></svg>