<svg xmlns="http://www.w3.org/2000/svg" viewBox="750 750 1500 1500"><style>/*<![CDATA[*/svg{background:rgb(240,200,8);max-width:100vw;max-height:100vh}path{stroke-width:4}.o{opacity:.75}.S{opacity:.4}.sf{stroke:none;fill:black}.sfh{stroke:none;fill:url(#hs)}.sfv{stroke:none;fill:url(#vs)}.ss{stroke:black;fill:none}.ssh{stroke:url(#hs);fill:none}.ssv{stroke:url(#vs);fill:none}.s1{fill:none;stroke:rgb(6,174,213)}.f1{stroke:none;fill:rgb(6,174,213)}.sh1{fill:none;stroke:url(#h1)}.fh1{stroke:none;fill:url(#h1)}.sv1{fill:none;stroke:url(#v1)}.fv1{stroke:none;fill:url(#v1)}.s2{fill:none;stroke:rgb(221,28,26)}.f2{stroke:none;fill:rgb(221,28,26)}.sh2{fill:none;stroke:url(#h2)}.fh2{stroke:none;fill:url(#h2)}.sv2{fill:none;stroke:url(#v2)}.fv2{stroke:none;fill:url(#v2)}.s3{fill:none;stroke:rgb(8,103,136)}.f3{stroke:none;fill:rgb(8,103,136)}.sh3{fill:none;stroke:url(#h3)}.fh3{stroke:none;fill:url(#h3)}.sv3{fill:none;stroke:url(#v3)}.fv3{stroke:none;fill:url(#v3)}.s4{fill:none;stroke:rgb(255,241,208)}.f4{stroke:none;fill:rgb(255,241,208)}.sh4{fill:none;stroke:url(#h4)}.fh4{stroke:none;fill:url(#h4)}.sv4{fill:none;stroke:url(#v4)}.fv4{stroke:none;fill:url(#v4)}.s5{fill:none;stroke:rgb(34,34,34)}.f5{stroke:none;fill:rgb(34,34,34)}.sh5{fill:none;stroke:url(#h5)}.fh5{stroke:none;fill:url(#h5)}.sv5{fill:none;stroke:url(#v5)}.fv5{stroke:none;fill:url(#v5)}.s6{fill:none;stroke:rgb(255,255,255)}.f6{stroke:none;fill:rgb(255,255,255)}.sh6{fill:none;stroke:url(#h6)}.fh6{stroke:none;fill:url(#h6)}.sv6{fill:none;stroke:url(#v6)}.fv6{stroke:none;fill:url(#v6)}.s7{fill:none;stroke:rgb(255,0,0)}.f7{stroke:none;fill:rgb(255,0,0)}.sh7{fill:none;stroke:url(#h7)}.fh7{stroke:none;fill:url(#h7)}.sv7{fill:none;stroke:url(#v7)}.fv7{stroke:none;fill:url(#v7)}/*]]>*/</style><defs><linearGradient gradientTransform="rotate(90)" id="hs"><stop offset="20%" stop-color="#000" /><stop offset="95%" stop-color="rgba(0, 0, 0, 0)" /></linearGradient><linearGradient id="vs"><stop offset="20%" stop-color="#000" /><stop offset="95%" stop-color="rgba(0, 0, 0, 0)" /></linearGradient><linearGradient gradientTransform="rotate(90)" id="h1"><stop offset="20%" stop-color="rgba(6,174,213,1)" /><stop offset="95%" stop-color="rgba(6,174,213,0)" /></linearGradient><linearGradient id="v1"><stop offset="20%" stop-color="rgba(6,174,213,1)" /><stop offset="95%" stop-color="rgba(6,174,213,0)" /></linearGradient><linearGradient gradientTransform="rotate(90)" id="h2"><stop offset="20%" stop-color="rgba(221,28,26,1)" /><stop offset="95%" stop-color="rgba(221,28,26,0)" /></linearGradient><linearGradient id="v2"><stop offset="20%" stop-color="rgba(221,28,26,1)" /><stop offset="95%" stop-color="rgba(221,28,26,0)" /></linearGradient><linearGradient gradientTransform="rotate(90)" id="h3"><stop offset="20%" stop-color="rgba(8,103,136,1)" /><stop offset="95%" stop-color="rgba(8,103,136,0)" /></linearGradient><linearGradient id="v3"><stop offset="20%" stop-color="rgba(8,103,136,1)" /><stop offset="95%" stop-color="rgba(8,103,136,0)" /></linearGradient><linearGradient gradientTransform="rotate(90)" id="h4"><stop offset="20%" stop-color="rgba(255,241,208,1)" /><stop offset="95%" stop-color="rgba(255,241,208,0)" /></linearGradient><linearGradient id="v4"><stop offset="20%" stop-color="rgba(255,241,208,1)" /><stop offset="95%" stop-color="rgba(255,241,208,0)" /></linearGradient><linearGradient gradientTransform="rotate(90)" id="h5"><stop offset="20%" stop-color="rgba(34,34,34,1)" /><stop offset="95%" stop-color="rgba(34,34,34,0)" /></linearGradient><linearGradient id="v5"><stop offset="20%" stop-color="rgba(34,34,34,1)" /><stop offset="95%" stop-color="rgba(34,34,34,0)" /></linearGradient><linearGradient gradientTransform="rotate(90)" id="h6"><stop offset="20%" stop-color="rgba(255,255,255,1)" /><stop offset="95%" stop-color="rgba(255,255,255,0)" /></linearGradient><linearGradient id="v6"><stop offset="20%" stop-color="rgba(255,255,255,1)" /><stop offset="95%" stop-color="rgba(255,255,255,0)" /></linearGradient><linearGradient gradientTransform="rotate(90)" id="h7"><stop offset="20%" stop-color="rgba(255,0,0,1)" /><stop offset="95%" stop-color="rgba(255,0,0,0)" /></linearGradient><linearGradient id="v7"><stop offset="20%" stop-color="rgba(255,0,0,1)" /><stop offset="95%" stop-color="rgba(255,0,0,0)" /></linearGradient></defs><g transform-origin="1500 1500" transform="scale(2)" opacity=".2"><g id="slashes"><g class="o"><path transform="translate(6,12)" class="S sfh" d="M997 961 L262 226 L310 226 L1045 961 Z"/><path class="fh2" d="M997 961 L262 226 L310 226 L1045 961 Z" /></g><g class="o"><path transform="translate(7,14)" class="S sfv" d="M1312 1173 L1196 1057 L1196 1153 L1312 1269 Z"/><path class="fv4" d="M1312 1173 L1196 1057 L1196 1153 L1312 1269 Z" /></g><g class="o"><path transform="translate(5,10)" class="S sfv" d="M1652 1247 L1560 1339 L1560 1371 L1652 1279 Z"/><path class="fv7" d="M1652 1247 L1560 1339 L1560 1371 L1652 1279 Z" /></g><g class="o"><path transform="translate(5,10)" class="S sfv" d="M1185 1101 L1095 1191 L1095 1311 L1185 1221 Z"/><path class="fv6" d="M1185 1101 L1095 1191 L1095 1311 L1185 1221 Z" /></g><g class="o"><path transform="translate(6,12)" class="S sfv" d="M1029 1563 L900 1434 L900 1586 L1029 1715 Z"/><path class="fv7" d="M1029 1563 L900 1434 L900 1586 L1029 1715 Z" /></g><g class="o"><path transform="translate(4,8)" class="S sfv" d="M1107 1489 L1048 1548 L1048 1644 L1107 1585 Z"/><path class="fv2" d="M1107 1489 L1048 1548 L1048 1644 L1107 1585 Z" /></g><g class="o"><path transform="translate(3,6)" class="S sfh" d="M1718 1241 L1529 1052 L1539 1052 L1728 1241 Z"/><path class="fh4" d="M1718 1241 L1529 1052 L1539 1052 L1728 1241 Z" /></g><g class="o"><path transform="translate(3,6)" class="S sfh" d="M1478 1948 L1379 2047 L1467 2047 L1566 1948 Z"/><path class="fh6" d="M1478 1948 L1379 2047 L1467 2047 L1566 1948 Z" /></g><g class="o"><path transform="translate(8,16)" class="S sfh" d="M1349 1388 L1257 1480 L1385 1480 L1477 1388 Z"/><path class="fh2" d="M1349 1388 L1257 1480 L1385 1480 L1477 1388 Z" /></g><g class="o"><path transform="translate(9,18)" class="S sfv" d="M1365 1575 L885 2055 L885 2143 L1365 1663 Z"/><path class="fv1" d="M1365 1575 L885 2055 L885 2143 L1365 1663 Z" /></g><g class="o"><path transform="translate(8,16)" class="S sfh" d="M1560 1575 L1188 1203 L1200 1203 L1572 1575 Z"/><path class="fh7" d="M1560 1575 L1188 1203 L1200 1203 L1572 1575 Z" /></g><g class="o"><path transform="translate(2,4)" class="S sf" d="M2030 1584 L1862 1752 L1862 1888 L2030 1720 Z"/><path class="f4" d="M2030 1584 L1862 1752 L1862 1888 L2030 1720 Z" /></g><g class="o"><path transform="translate(4,8)" class="S sfh" d="M1696 1956 L1586 1846 L1658 1846 L1768 1956 Z"/><path class="fh1" d="M1696 1956 L1586 1846 L1658 1846 L1768 1956 Z" /></g><g class="o"><path transform="translate(7,14)" class="S sf" d="M1590 2005 L1498 2097 L1578 2097 L1670 2005 Z"/><path class="f3" d="M1590 2005 L1498 2097 L1578 2097 L1670 2005 Z" /></g><g class="o"><path transform="translate(6,12)" class="S sfh" d="M1835 1870 L1630 2075 L1742 2075 L1947 1870 Z"/><path class="fh5" d="M1835 1870 L1630 2075 L1742 2075 L1947 1870 Z" /></g><g class="o"><path transform="translate(9,18)" class="S sfv" d="M1640 1517 L1491 1666 L1491 1684 L1640 1535 Z"/><path class="fv6" d="M1640 1517 L1491 1666 L1491 1684 L1640 1535 Z" /></g><g class="o"><path transform="translate(7,14)" class="S sfh" d="M1275 1556 L1083 1748 L1115 1748 L1307 1556 Z"/><path class="fh4" d="M1275 1556 L1083 1748 L1115 1748 L1307 1556 Z" /></g><g class="o"><path transform="translate(4,8)" class="S sfv" d="M1997 1120 L1837 960 L1837 984 L1997 1144 Z"/><path class="fv7" d="M1997 1120 L1837 960 L1837 984 L1997 1144 Z" /></g><g class="o"><path transform="translate(4,8)" class="S sfv" d="M1243 1893 L1110 2026 L1110 2062 L1243 1929 Z"/><path class="fv5" d="M1243 1893 L1110 2026 L1110 2062 L1243 1929 Z" /></g><g class="o"><path transform="translate(7,14)" class="S ss" d="M1193 1831 L1027 1665 L1051 1665 L1217 1831 Z"/><path class="s3" d="M1193 1831 L1027 1665 L1051 1665 L1217 1831 Z" /></g><g class="o"><path transform="translate(7,14)" class="S sf" d="M1097 1715 L527 1145 L527 1185 L1097 1755 Z"/><path class="f5" d="M1097 1715 L527 1145 L527 1185 L1097 1755 Z" /></g><g class="o"><path transform="translate(5,10)" class="S sf" d="M1044 2019 L825 1800 L937 1800 L1156 2019 Z"/><path class="f4" d="M1044 2019 L825 1800 L937 1800 L1156 2019 Z" /></g><g class="o"><path transform="translate(6,12)" class="S sfh" d="M1905 2002 L1377 1474 L1385 1474 L1913 2002 Z"/><path class="fh5" d="M1905 2002 L1377 1474 L1385 1474 L1913 2002 Z" /></g><g class="o"><path transform="translate(2,4)" class="S sfv" d="M1655 1048 L1409 1294 L1409 1374 L1655 1128 Z"/><path class="fv7" d="M1655 1048 L1409 1294 L1409 1374 L1655 1128 Z" /></g><g class="o"><path transform="translate(8,16)" class="S sf" d="M1712 1865 L1473 1626 L1529 1626 L1768 1865 Z"/><path class="f6" d="M1712 1865 L1473 1626 L1529 1626 L1768 1865 Z" /></g><g class="o"><path transform="translate(5,10)" class="S sfh" d="M1263 1734 L1084 1555 L1118 1555 L1297 1734 Z"/><path class="fh2" d="M1263 1734 L1084 1555 L1118 1555 L1297 1734 Z" /></g><g class="o"><path transform="translate(4,8)" class="S sfh" d="M1006 1026 L762 1270 L866 1270 L1110 1026 Z"/><path class="fh5" d="M1006 1026 L762 1270 L866 1270 L1110 1026 Z" /></g><g class="o"><path transform="translate(3,6)" class="S sfh" d="M1961 1381 L1862 1480 L2006 1480 L2105 1381 Z"/><path class="fh7" d="M1961 1381 L1862 1480 L2006 1480 L2105 1381 Z" /></g><g class="o"><path transform="translate(2,4)" class="S ssv" d="M1813 1083 L1593 863 L1593 873 L1813 1093 Z"/><path class="sv5" d="M1813 1083 L1593 863 L1593 873 L1813 1093 Z" /></g><g class="o"><path transform="translate(2,4)" class="S sfv" d="M1211 1573 L967 1817 L967 1945 L1211 1701 Z"/><path class="fv3" d="M1211 1573 L967 1817 L967 1945 L1211 1701 Z" /></g><g class="o"><path transform="translate(4,8)" class="S sfv" d="M2028 1954 L1930 1856 L1930 1944 L2028 2042 Z"/><path class="fv2" d="M2028 1954 L1930 1856 L1930 1944 L2028 2042 Z" /></g><g class="o"><path transform="translate(5,10)" class="S sfv" d="M1611 1195 L1453 1037 L1453 1165 L1611 1323 Z"/><path class="fv5" d="M1611 1195 L1453 1037 L1453 1165 L1611 1323 Z" /></g><g class="o"><path transform="translate(9,18)" class="S sfv" d="M1400 1264 L1227 1091 L1227 1219 L1400 1392 Z"/><path class="fv3" d="M1400 1264 L1227 1091 L1227 1219 L1400 1392 Z" /></g><g class="o"><path transform="translate(4,8)" class="S sfv" d="M1107 1956 L911 2152 L911 2280 L1107 2084 Z"/><path class="fv1" d="M1107 1956 L911 2152 L911 2280 L1107 2084 Z" /></g><g class="o"><path transform="translate(4,8)" class="S sf" d="M1809 1873 L1706 1770 L1826 1770 L1929 1873 Z"/><path class="f1" d="M1809 1873 L1706 1770 L1826 1770 L1929 1873 Z" /></g><g class="o"><path transform="translate(4,8)" class="S sfv" d="M1750 1049 L1593 1206 L1593 1334 L1750 1177 Z"/><path class="fv2" d="M1750 1049 L1593 1206 L1593 1334 L1750 1177 Z" /></g><g class="o"><path transform="translate(7,14)" class="S sf" d="M1491 1409 L1395 1313 L1459 1313 L1555 1409 Z"/><path class="f7" d="M1491 1409 L1395 1313 L1459 1313 L1555 1409 Z" /></g><g class="o"><path transform="translate(7,14)" class="S sfv" d="M1020 1499 L792 1271 L792 1283 L1020 1511 Z"/><path class="fv4" d="M1020 1499 L792 1271 L792 1283 L1020 1511 Z" /></g><g class="o"><path transform="translate(8,16)" class="S sfh" d="M1161 1518 L633 2046 L669 2046 L1197 1518 Z"/><path class="fh7" d="M1161 1518 L633 2046 L669 2046 L1197 1518 Z" /></g><g class="o"><path transform="translate(3,6)" class="S sf" d="M1157 1157 L956 956 L956 978 L1157 1179 Z"/><path class="f2" d="M1157 1157 L956 956 L956 978 L1157 1179 Z" /></g><g class="o"><path transform="translate(4,8)" class="S sfv" d="M965 1233 L800 1398 L800 1494 L965 1329 Z"/><path class="fv7" d="M965 1233 L800 1398 L800 1494 L965 1329 Z" /></g><g class="o"><path transform="translate(2,4)" class="S sfh" d="M1555 1748 L1408 1895 L1440 1895 L1587 1748 Z"/><path class="fh3" d="M1555 1748 L1408 1895 L1440 1895 L1587 1748 Z" /></g><g class="o"><path transform="translate(5,10)" class="S sf" d="M1150 1686 L1024 1812 L1024 1852 L1150 1726 Z"/><path class="f4" d="M1150 1686 L1024 1812 L1024 1852 L1150 1726 Z" /></g><g class="o"><path transform="translate(2,4)" class="S sfv" d="M1896 1825 L1431 2290 L1431 2312 L1896 1847 Z"/><path class="fv6" d="M1896 1825 L1431 2290 L1431 2312 L1896 1847 Z" /></g><g class="o"><path transform="translate(3,6)" class="S sf" d="M1575 1582 L1372 1379 L1372 1467 L1575 1670 Z"/><path class="f1" d="M1575 1582 L1372 1379 L1372 1467 L1575 1670 Z" /></g><g class="o"><path transform="translate(4,8)" class="S sfv" d="M1630 1009 L1544 923 L1544 979 L1630 1065 Z"/><path class="fv5" d="M1630 1009 L1544 923 L1544 979 L1630 1065 Z" /></g><g class="o"><path transform="translate(7,14)" class="S ss" d="M993 1616 L747 1370 L747 1384 L993 1630 Z"/><path class="s2" d="M993 1616 L747 1370 L747 1384 L993 1630 Z" /></g><g class="o"><path transform="translate(6,12)" class="S sfv" d="M1987 1759 L1792 1564 L1792 1676 L1987 1871 Z"/><path class="fv7" d="M1987 1759 L1792 1564 L1792 1676 L1987 1871 Z" /></g><g class="o"><path transform="translate(7,14)" class="S sf" d="M1662 1296 L1474 1108 L1474 1164 L1662 1352 Z"/><path class="f5" d="M1662 1296 L1474 1108 L1474 1164 L1662 1352 Z" /></g><g class="o"><path transform="translate(4,8)" class="S sf" d="M1983 1498 L1839 1642 L1839 1706 L1983 1562 Z"/><path class="f2" d="M1983 1498 L1839 1642 L1839 1706 L1983 1562 Z" /></g><g class="o"><path transform="translate(4,8)" class="S ssv" d="M1723 950 L1566 1107 L1566 1139 L1723 982 Z"/><path class="sv6" d="M1723 950 L1566 1107 L1566 1139 L1723 982 Z" /></g><g class="o"><path transform="translate(3,6)" class="S sf" d="M1288 1909 L628 2569 L628 2649 L1288 1989 Z"/><path class="f4" d="M1288 1909 L628 2569 L628 2649 L1288 1989 Z" /></g><g class="o"><path transform="translate(3,6)" class="S ssv" d="M1875 1659 L1801 1733 L1801 1861 L1875 1787 Z"/><path class="sv5" d="M1875 1659 L1801 1733 L1801 1861 L1875 1787 Z" /></g><g class="o"><path transform="translate(4,8)" class="S ssv" d="M1273 1142 L1088 1327 L1088 1455 L1273 1270 Z"/><path class="sv3" d="M1273 1142 L1088 1327 L1088 1455 L1273 1270 Z" /></g><g class="o"><path transform="translate(5,10)" class="S sfh" d="M908 1651 L666 1409 L810 1409 L1052 1651 Z"/><path class="fh2" d="M908 1651 L666 1409 L810 1409 L1052 1651 Z" /></g><g class="o"><path transform="translate(5,10)" class="S sfv" d="M999 1927 L840 2086 L840 2126 L999 1967 Z"/><path class="fv3" d="M999 1927 L840 2086 L840 2126 L999 1967 Z" /></g><g class="o"><path transform="translate(3,6)" class="S sfv" d="M1337 1517 L1022 1832 L1022 1944 L1337 1629 Z"/><path class="fv7" d="M1337 1517 L1022 1832 L1022 1944 L1337 1629 Z" /></g><g class="o"><path transform="translate(3,6)" class="S sfv" d="M1490 1045 L938 1597 L938 1725 L1490 1173 Z"/><path class="fv5" d="M1490 1045 L938 1597 L938 1725 L1490 1173 Z" /></g><g class="o"><path transform="translate(5,10)" class="S sfh" d="M1844 1624 L1614 1854 L1648 1854 L1878 1624 Z"/><path class="fh3" d="M1844 1624 L1614 1854 L1648 1854 L1878 1624 Z" /></g><g class="o"><path transform="translate(8,16)" class="S sfh" d="M1510 1032 L1361 1181 L1481 1181 L1630 1032 Z"/><path class="fh2" d="M1510 1032 L1361 1181 L1481 1181 L1630 1032 Z" /></g><g class="o"><path transform="translate(7,14)" class="S sfh" d="M1920 1494 L1807 1607 L1855 1607 L1968 1494 Z"/><path class="fh2" d="M1920 1494 L1807 1607 L1855 1607 L1968 1494 Z" /></g><g class="o"><path transform="translate(6,12)" class="S sfh" d="M1663 1170 L1472 1361 L1480 1361 L1671 1170 Z"/><path class="fh7" d="M1663 1170 L1472 1361 L1480 1361 L1671 1170 Z" /></g><g class="o"><path transform="translate(3,6)" class="S sfv" d="M2036 1680 L1902 1546 L1902 1626 L2036 1760 Z"/><path class="fv7" d="M2036 1680 L1902 1546 L1902 1626 L2036 1760 Z" /></g><g class="o"><path transform="translate(4,8)" class="S sfh" d="M1900 1668 L1582 1350 L1726 1350 L2044 1668 Z"/><path class="fh1" d="M1900 1668 L1582 1350 L1726 1350 L2044 1668 Z" /></g><g class="o"><path transform="translate(7,14)" class="S sfv" d="M1743 1421 L1546 1618 L1546 1644 L1743 1447 Z"/><path class="fv4" d="M1743 1421 L1546 1618 L1546 1644 L1743 1447 Z" /></g><g class="o"><path transform="translate(4,8)" class="S ssv" d="M1975 1445 L1851 1321 L1851 1473 L1975 1597 Z"/><path class="sv7" d="M1975 1445 L1851 1321 L1851 1473 L1975 1597 Z" /></g><g class="o"><path transform="translate(9,18)" class="S sf" d="M1006 1811 L876 1681 L908 1681 L1038 1811 Z"/><path class="f1" d="M1006 1811 L876 1681 L908 1681 L1038 1811 Z" /></g><g class="o"><path transform="translate(7,14)" class="S sfv" d="M1650 1614 L1350 1914 L1350 1946 L1650 1646 Z"/><path class="fv1" d="M1650 1614 L1350 1914 L1350 1946 L1650 1646 Z" /></g><g class="o"><path transform="translate(6,12)" class="S ssh" d="M1162 2006 L961 2207 L979 2207 L1180 2006 Z"/><path class="sh5" d="M1162 2006 L961 2207 L979 2207 L1180 2006 Z" /></g><g class="o"><path transform="translate(9,18)" class="S sfv" d="M1291 1867 L1120 2038 L1120 2158 L1291 1987 Z"/><path class="fv6" d="M1291 1867 L1120 2038 L1120 2158 L1291 1987 Z" /></g><g class="o"><path transform="translate(8,16)" class="S sfh" d="M1812 1262 L1583 1491 L1623 1491 L1852 1262 Z"/><path class="fh7" d="M1812 1262 L1583 1491 L1623 1491 L1852 1262 Z" /></g><g class="o"><path transform="translate(3,6)" class="S sfv" d="M1964 1674 L1896 1606 L1896 1750 L1964 1818 Z"/><path class="fv1" d="M1964 1674 L1896 1606 L1896 1750 L1964 1818 Z" /></g><g class="o"><path transform="translate(2,4)" class="S sfv" d="M1839 1113 L1684 958 L1684 994 L1839 1149 Z"/><path class="fv6" d="M1839 1113 L1684 958 L1684 994 L1839 1149 Z" /></g><g class="o"><path transform="translate(6,12)" class="S sfh" d="M1175 1544 L1081 1450 L1113 1450 L1207 1544 Z"/><path class="fh5" d="M1175 1544 L1081 1450 L1113 1450 L1207 1544 Z" /></g><g class="o"><path transform="translate(2,4)" class="S sfh" d="M1917 1504 L1820 1407 L1838 1407 L1935 1504 Z"/><path class="fh1" d="M1917 1504 L1820 1407 L1838 1407 L1935 1504 Z" /></g><g class="o"><path transform="translate(4,8)" class="S sfh" d="M1124 1479 L901 1702 L1021 1702 L1244 1479 Z"/><path class="fh7" d="M1124 1479 L901 1702 L1021 1702 L1244 1479 Z" /></g><g class="o"><path transform="translate(8,16)" class="S sfh" d="M1414 1270 L1180 1036 L1252 1036 L1486 1270 Z"/><path class="fh2" d="M1414 1270 L1180 1036 L1252 1036 L1486 1270 Z" /></g><g class="o"><path transform="translate(7,14)" class="S ssh" d="M1338 1289 L705 1922 L817 1922 L1450 1289 Z"/><path class="sh5" d="M1338 1289 L705 1922 L817 1922 L1450 1289 Z" /></g><g class="o"><path transform="translate(7,14)" class="S sfh" d="M966 1181 L348 563 L378 563 L996 1181 Z"/><path class="fh7" d="M966 1181 L348 563 L378 563 L996 1181 Z" /></g><g class="o"><path transform="translate(8,16)" class="S sfv" d="M1302 957 L1091 746 L1091 834 L1302 1045 Z"/><path class="fv4" d="M1302 957 L1091 746 L1091 834 L1302 1045 Z" /></g><g class="o"><path transform="translate(3,6)" class="S sfv" d="M1439 1097 L1378 1036 L1378 1046 L1439 1107 Z"/><path class="fv5" d="M1439 1097 L1378 1036 L1378 1046 L1439 1107 Z" /></g><g class="o"><path transform="translate(2,4)" class="S sfh" d="M1864 1649 L1174 2339 L1262 2339 L1952 1649 Z"/><path class="fh7" d="M1864 1649 L1174 2339 L1262 2339 L1952 1649 Z" /></g><g class="o"><path transform="translate(4,8)" class="S sfh" d="M1117 1730 L962 1575 L986 1575 L1141 1730 Z"/><path class="fh3" d="M1117 1730 L962 1575 L986 1575 L1141 1730 Z" /></g><g class="o"><path transform="translate(4,8)" class="S sfh" d="M1112 1927 L868 1683 L904 1683 L1148 1927 Z"/><path class="fh6" d="M1112 1927 L868 1683 L904 1683 L1148 1927 Z" /></g><g class="o"><path transform="translate(8,16)" class="S sfv" d="M961 1378 L782 1199 L782 1247 L961 1426 Z"/><path class="fv6" d="M961 1378 L782 1199 L782 1247 L961 1426 Z" /></g><g class="o"><path transform="translate(5,10)" class="S sfh" d="M1178 979 L1084 1073 L1204 1073 L1298 979 Z"/><path class="fh3" d="M1178 979 L1084 1073 L1204 1073 L1298 979 Z" /></g><g class="o"><path transform="translate(4,8)" class="S sfh" d="M940 1976 L886 1922 L982 1922 L1036 1976 Z"/><path class="fh6" d="M940 1976 L886 1922 L982 1922 L1036 1976 Z" /></g><g class="o"><path transform="translate(3,6)" class="S ssv" d="M1496 1773 L1360 1909 L1360 2053 L1496 1917 Z"/><path class="sv5" d="M1496 1773 L1360 1909 L1360 2053 L1496 1917 Z" /></g><g class="o"><path transform="translate(5,10)" class="S sfh" d="M1485 1035 L1284 1236 L1404 1236 L1605 1035 Z"/><path class="fh5" d="M1485 1035 L1284 1236 L1404 1236 L1605 1035 Z" /></g><g class="o"><path transform="translate(3,6)" class="S sfv" d="M1242 1558 L1135 1451 L1135 1563 L1242 1670 Z"/><path class="fv2" d="M1242 1558 L1135 1451 L1135 1563 L1242 1670 Z" /></g><g class="o"><path transform="translate(3,6)" class="S ssh" d="M1652 1576 L1547 1681 L1579 1681 L1684 1576 Z"/><path class="sh7" d="M1652 1576 L1547 1681 L1579 1681 L1684 1576 Z" /></g><g class="o"><path transform="translate(3,6)" class="S sfh" d="M1826 1178 L1619 1385 L1667 1385 L1874 1178 Z"/><path class="fh1" d="M1826 1178 L1619 1385 L1667 1385 L1874 1178 Z" /></g><g class="o"><path transform="translate(7,14)" class="S sfv" d="M1051 1529 L954 1432 L954 1496 L1051 1593 Z"/><path class="fv1" d="M1051 1529 L954 1432 L954 1496 L1051 1593 Z" /></g><g class="o"><path transform="translate(3,6)" class="S sfv" d="M1104 1194 L978 1320 L978 1424 L1104 1298 Z"/><path class="fv4" d="M1104 1194 L978 1320 L978 1424 L1104 1298 Z" /></g><g class="o"><path transform="translate(9,18)" class="S ssh" d="M1702 1043 L1646 1099 L1702 1099 L1758 1043 Z"/><path class="sh4" d="M1702 1043 L1646 1099 L1702 1099 L1758 1043 Z" /></g><g class="o"><path transform="translate(7,14)" class="S sf" d="M1305 1309 L1220 1394 L1268 1394 L1353 1309 Z"/><path class="f3" d="M1305 1309 L1220 1394 L1268 1394 L1353 1309 Z" /></g><g class="o"><path transform="translate(9,18)" class="S sfv" d="M2010 1777 L1800 1567 L1800 1599 L2010 1809 Z"/><path class="fv3" d="M2010 1777 L1800 1567 L1800 1599 L2010 1809 Z" /></g><g class="o"><path transform="translate(2,4)" class="S sfv" d="M1811 1999 L1628 1816 L1628 1880 L1811 2063 Z"/><path class="fv4" d="M1811 1999 L1628 1816 L1628 1880 L1811 2063 Z" /></g><g class="o"><path transform="translate(8,16)" class="S ssv" d="M994 1188 L794 1388 L794 1436 L994 1236 Z"/><path class="sv6" d="M994 1188 L794 1388 L794 1436 L994 1236 Z" /></g><g class="o"><path transform="translate(9,18)" class="S sfv" d="M1185 1916 L1092 2009 L1092 2113 L1185 2020 Z"/><path class="fv5" d="M1185 1916 L1092 2009 L1092 2113 L1185 2020 Z" /></g><g class="o"><path transform="translate(5,10)" class="S sfv" d="M1328 1755 L1256 1827 L1256 1915 L1328 1843 Z"/><path class="fv6" d="M1328 1755 L1256 1827 L1256 1915 L1328 1843 Z" /></g><g class="o"><path transform="translate(8,16)" class="S sfh" d="M1789 1639 L1735 1585 L1743 1585 L1797 1639 Z"/><path class="fh3" d="M1789 1639 L1735 1585 L1743 1585 L1797 1639 Z" /></g><g class="o"><path transform="translate(9,18)" class="S ssv" d="M1606 1450 L1120 1936 L1120 2040 L1606 1554 Z"/><path class="sv7" d="M1606 1450 L1120 1936 L1120 2040 L1606 1554 Z" /></g><g class="o"><path transform="translate(7,14)" class="S sfv" d="M1153 1421 L1096 1478 L1096 1630 L1153 1573 Z"/><path class="fv5" d="M1153 1421 L1096 1478 L1096 1630 L1153 1573 Z" /></g><g class="o"><path transform="translate(7,14)" class="S sf" d="M970 1325 L475 830 L475 950 L970 1445 Z"/><path class="f5" d="M970 1325 L475 830 L475 950 L970 1445 Z" /></g><g class="o"><path transform="translate(9,18)" class="S sf" d="M1030 1762 L820 1552 L820 1624 L1030 1834 Z"/><path class="f2" d="M1030 1762 L820 1552 L820 1624 L1030 1834 Z" /></g><g class="o"><path transform="translate(4,8)" class="S sfh" d="M1219 1167 L1015 1371 L1143 1371 L1347 1167 Z"/><path class="fh4" d="M1219 1167 L1015 1371 L1143 1371 L1347 1167 Z" /></g><g class="o"><path transform="translate(4,8)" class="S sfv" d="M2004 1665 L1605 1266 L1605 1394 L2004 1793 Z"/><path class="fv4" d="M2004 1665 L1605 1266 L1605 1394 L2004 1793 Z" /></g><g class="o"><path transform="translate(2,4)" class="S ssv" d="M1199 1187 L1016 1370 L1016 1458 L1199 1275 Z"/><path class="sv5" d="M1199 1187 L1016 1370 L1016 1458 L1199 1275 Z" /></g><g class="o"><path transform="translate(7,14)" class="S sfv" d="M1218 1794 L1139 1873 L1139 1913 L1218 1834 Z"/><path class="fv6" d="M1218 1794 L1139 1873 L1139 1913 L1218 1834 Z" /></g><g class="o"><path transform="translate(2,4)" class="S sfv" d="M1685 1759 L1525 1599 L1525 1631 L1685 1791 Z"/><path class="fv6" d="M1685 1759 L1525 1599 L1525 1631 L1685 1791 Z" /></g><g class="o"><path transform="translate(4,8)" class="S sfh" d="M1939 1232 L1856 1315 L1960 1315 L2043 1232 Z"/><path class="fh6" d="M1939 1232 L1856 1315 L1960 1315 L2043 1232 Z" /></g><g class="o"><path transform="translate(3,6)" class="S sfv" d="M1554 1719 L1447 1612 L1447 1724 L1554 1831 Z"/><path class="fv3" d="M1554 1719 L1447 1612 L1447 1724 L1554 1831 Z" /></g><g class="o"><path transform="translate(8,16)" class="S sf" d="M1351 1972 L1180 2143 L1180 2231 L1351 2060 Z"/><path class="f2" d="M1351 1972 L1180 2143 L1180 2231 L1351 2060 Z" /></g><g class="o"><path transform="translate(9,18)" class="S sfv" d="M1179 1373 L1102 1450 L1102 1498 L1179 1421 Z"/><path class="fv1" d="M1179 1373 L1102 1450 L1102 1498 L1179 1421 Z" /></g><g class="o"><path transform="translate(5,10)" class="S sfh" d="M1178 1269 L971 1476 L1067 1476 L1274 1269 Z"/><path class="fh5" d="M1178 1269 L971 1476 L1067 1476 L1274 1269 Z" /></g><g class="o"><path transform="translate(9,18)" class="S sfv" d="M1316 1391 L593 668 L593 820 L1316 1543 Z"/><path class="fv4" d="M1316 1391 L593 668 L593 820 L1316 1543 Z" /></g><g class="o"><path transform="translate(4,8)" class="S sfh" d="M1281 1058 L1039 816 L1087 816 L1329 1058 Z"/><path class="fh4" d="M1281 1058 L1039 816 L1087 816 L1329 1058 Z" /></g><g class="o"><path transform="translate(4,8)" class="S sfv" d="M1477 1448 L1408 1379 L1408 1411 L1477 1480 Z"/><path class="fv3" d="M1477 1448 L1408 1379 L1408 1411 L1477 1480 Z" /></g><g class="o"><path transform="translate(7,14)" class="S sfv" d="M1850 1340 L1671 1161 L1671 1183 L1850 1362 Z"/><path class="fv5" d="M1850 1340 L1671 1161 L1671 1183 L1850 1362 Z" /></g><g class="o"><path transform="translate(5,10)" class="S ss" d="M1150 1543 L1057 1450 L1193 1450 L1286 1543 Z"/><path class="s2" d="M1150 1543 L1057 1450 L1193 1450 L1286 1543 Z" /></g><g class="o"><path transform="translate(9,18)" class="S sfv" d="M1801 1448 L1606 1643 L1606 1691 L1801 1496 Z"/><path class="fv7" d="M1801 1448 L1606 1643 L1606 1691 L1801 1496 Z" /></g><g class="o"><path transform="translate(3,6)" class="S sfh" d="M1143 1174 L1028 1059 L1132 1059 L1247 1174 Z"/><path class="fh1" d="M1143 1174 L1028 1059 L1132 1059 L1247 1174 Z" /></g><g class="o"><path transform="translate(7,14)" class="S sfv" d="M1407 1046 L1331 970 L1331 1034 L1407 1110 Z"/><path class="fv1" d="M1407 1046 L1331 970 L1331 1034 L1407 1110 Z" /></g><g class="o"><path transform="translate(9,18)" class="S ssv" d="M1465 1755 L1174 1464 L1174 1560 L1465 1851 Z"/><path class="sv7" d="M1465 1755 L1174 1464 L1174 1560 L1465 1851 Z" /></g><g class="o"><path transform="translate(7,14)" class="S sf" d="M937 1101 L592 1446 L664 1446 L1009 1101 Z"/><path class="f6" d="M937 1101 L592 1446 L664 1446 L1009 1101 Z" /></g><g class="o"><path transform="translate(5,10)" class="S ssv" d="M1560 1529 L1411 1678 L1411 1830 L1560 1681 Z"/><path class="sv5" d="M1560 1529 L1411 1678 L1411 1830 L1560 1681 Z" /></g><g class="o"><path transform="translate(9,18)" class="S ssv" d="M1929 991 L1740 802 L1740 834 L1929 1023 Z"/><path class="sv6" d="M1929 991 L1740 802 L1740 834 L1929 1023 Z" /></g><g class="o"><path transform="translate(4,8)" class="S ssh" d="M1989 1598 L1911 1520 L1967 1520 L2045 1598 Z"/><path class="sh5" d="M1989 1598 L1911 1520 L1967 1520 L2045 1598 Z" /></g><g class="o"><path transform="translate(3,6)" class="S sfv" d="M1693 1672 L1462 1903 L1462 2047 L1693 1816 Z"/><path class="fv5" d="M1693 1672 L1462 1903 L1462 2047 L1693 1816 Z" /></g><g class="o"><path transform="translate(4,8)" class="S sfv" d="M1846 1927 L1653 2120 L1653 2256 L1846 2063 Z"/><path class="fv2" d="M1846 1927 L1653 2120 L1653 2256 L1846 2063 Z" /></g><g class="o"><path transform="translate(5,10)" class="S sfv" d="M1975 1411 L1838 1548 L1838 1676 L1975 1539 Z"/><path class="fv3" d="M1975 1411 L1838 1548 L1838 1676 L1975 1539 Z" /></g><g class="o"><path transform="translate(2,4)" class="S sfv" d="M1539 938 L1294 1183 L1294 1217 L1539 972 Z"/><path class="fv6" d="M1539 938 L1294 1183 L1294 1217 L1539 972 Z" /></g><g class="o"><path transform="translate(2,4)" class="S sfv" d="M1240 1570 L1151 1481 L1151 1501 L1240 1590 Z"/><path class="fv1" d="M1240 1570 L1151 1481 L1151 1501 L1240 1590 Z" /></g><g class="o"><path transform="translate(9,18)" class="S sfh" d="M1436 993 L1274 1155 L1370 1155 L1532 993 Z"/><path class="fh5" d="M1436 993 L1274 1155 L1370 1155 L1532 993 Z" /></g><g class="o"><path transform="translate(2,4)" class="S sfh" d="M1605 1395 L1535 1325 L1623 1325 L1693 1395 Z"/><path class="fh5" d="M1605 1395 L1535 1325 L1623 1325 L1693 1395 Z" /></g><g class="o"><path transform="translate(6,12)" class="S sfh" d="M1084 1559 L923 1720 L1075 1720 L1236 1559 Z"/><path class="fh2" d="M1084 1559 L923 1720 L1075 1720 L1236 1559 Z" /></g><g class="o"><path transform="translate(6,12)" class="S sfv" d="M2038 1821 L1893 1676 L1893 1690 L2038 1835 Z"/><path class="fv6" d="M2038 1821 L1893 1676 L1893 1690 L2038 1835 Z" /></g><g class="o"><path transform="translate(4,8)" class="S sfv" d="M1263 1468 L801 1930 L801 2002 L1263 1540 Z"/><path class="fv5" d="M1263 1468 L801 1930 L801 2002 L1263 1540 Z" /></g><g class="o"><path transform="translate(6,12)" class="S sfh" d="M1686 954 L1535 1105 L1655 1105 L1806 954 Z"/><path class="fh1" d="M1686 954 L1535 1105 L1655 1105 L1806 954 Z" /></g><g class="o"><path transform="translate(2,4)" class="S sf" d="M1020 1787 L357 1124 L357 1156 L1020 1819 Z"/><path class="f6" d="M1020 1787 L357 1124 L357 1156 L1020 1819 Z" /></g><g class="o"><path transform="translate(7,14)" class="S sf" d="M1746 1646 L1602 1502 L1602 1558 L1746 1702 Z"/><path class="f6" d="M1746 1646 L1602 1502 L1602 1558 L1746 1702 Z" /></g><g class="o"><path transform="translate(6,12)" class="S sfh" d="M1949 1538 L1796 1385 L1892 1385 L2045 1538 Z"/><path class="fh7" d="M1949 1538 L1796 1385 L1892 1385 L2045 1538 Z" /></g><g class="o"><path transform="translate(9,18)" class="S sfh" d="M1718 1607 L1184 1073 L1196 1073 L1730 1607 Z"/><path class="fh3" d="M1718 1607 L1184 1073 L1196 1073 L1730 1607 Z" /></g><g class="o"><path transform="translate(7,14)" class="S sf" d="M1604 1595 L1477 1468 L1477 1488 L1604 1615 Z"/><path class="f7" d="M1604 1595 L1477 1468 L1477 1488 L1604 1615 Z" /></g><g class="o"><path transform="translate(9,18)" class="S sfv" d="M1207 1198 L859 1546 L859 1666 L1207 1318 Z"/><path class="fv1" d="M1207 1198 L859 1546 L859 1666 L1207 1318 Z" /></g><g class="o"><path transform="translate(9,18)" class="S sf" d="M1187 1659 L1028 1500 L1132 1500 L1291 1659 Z"/><path class="f3" d="M1187 1659 L1028 1500 L1132 1500 L1291 1659 Z" /></g><g class="o"><path transform="translate(3,6)" class="S sfv" d="M1843 1154 L1675 986 L1675 1018 L1843 1186 Z"/><path class="fv4" d="M1843 1154 L1675 986 L1675 1018 L1843 1186 Z" /></g><g class="o"><path transform="translate(7,14)" class="S sfv" d="M1953 1682 L1833 1562 L1833 1682 L1953 1802 Z"/><path class="fv5" d="M1953 1682 L1833 1562 L1833 1682 L1953 1802 Z" /></g><g class="o"><path transform="translate(4,8)" class="S sfh" d="M935 1824 L820 1939 L884 1939 L999 1824 Z"/><path class="fh7" d="M935 1824 L820 1939 L884 1939 L999 1824 Z" /></g></g><use href="#slashes" transform-origin="1500 1500" transform="rotate(180) scale(2)"/></g><rect x="1080" y="1080" width="840" height="840" stroke-width="10" class="o s5" /><use href="#slashes" transform-origin="1500 1500" transform="scale(.6)"/><use href="#slashes" transform-origin="1500 1500" transform="rotate(180) scale(.6)"/></svg>