<svg xmlns="http://www.w3.org/2000/svg" viewBox="750 750 1500 1500"><style>/*<![CDATA[*/svg{background:rgb(34,34,34);max-width:100vw;max-height:100vh}path{stroke-width:4}.o{opacity:.75}.S{opacity:.4}.sf{stroke:none;fill:black}.sfh{stroke:none;fill:url(#hs)}.sfv{stroke:none;fill:url(#vs)}.ss{stroke:black;fill:none}.ssh{stroke:url(#hs);fill:none}.ssv{stroke:url(#vs);fill:none}.s1{fill:none;stroke:rgb(19,41,61)}.f1{stroke:none;fill:rgb(19,41,61)}.sh1{fill:none;stroke:url(#h1)}.fh1{stroke:none;fill:url(#h1)}.sv1{fill:none;stroke:url(#v1)}.fv1{stroke:none;fill:url(#v1)}.s2{fill:none;stroke:rgb(232,241,242)}.f2{stroke:none;fill:rgb(232,241,242)}.sh2{fill:none;stroke:url(#h2)}.fh2{stroke:none;fill:url(#h2)}.sv2{fill:none;stroke:url(#v2)}.fv2{stroke:none;fill:url(#v2)}.s3{fill:none;stroke:rgb(36,123,160)}.f3{stroke:none;fill:rgb(36,123,160)}.sh3{fill:none;stroke:url(#h3)}.fh3{stroke:none;fill:url(#h3)}.sv3{fill:none;stroke:url(#v3)}.fv3{stroke:none;fill:url(#v3)}.s4{fill:none;stroke:rgb(0,100,148)}.f4{stroke:none;fill:rgb(0,100,148)}.sh4{fill:none;stroke:url(#h4)}.fh4{stroke:none;fill:url(#h4)}.sv4{fill:none;stroke:url(#v4)}.fv4{stroke:none;fill:url(#v4)}.s5{fill:none;stroke:rgb(27,152,224)}.f5{stroke:none;fill:rgb(27,152,224)}.sh5{fill:none;stroke:url(#h5)}.fh5{stroke:none;fill:url(#h5)}.sv5{fill:none;stroke:url(#v5)}.fv5{stroke:none;fill:url(#v5)}.s6{fill:none;stroke:rgb(255,255,255)}.f6{stroke:none;fill:rgb(255,255,255)}.sh6{fill:none;stroke:url(#h6)}.fh6{stroke:none;fill:url(#h6)}.sv6{fill:none;stroke:url(#v6)}.fv6{stroke:none;fill:url(#v6)}.s7{fill:none;stroke:rgb(255,255,0)}.f7{stroke:none;fill:rgb(255,255,0)}.sh7{fill:none;stroke:url(#h7)}.fh7{stroke:none;fill:url(#h7)}.sv7{fill:none;stroke:url(#v7)}.fv7{stroke:none;fill:url(#v7)}/*]]>*/</style><defs><linearGradient gradientTransform="rotate(90)" id="hs"><stop offset="20%" stop-color="#000" /><stop offset="95%" stop-color="rgba(0, 0, 0, 0)" /></linearGradient><linearGradient id="vs"><stop offset="20%" stop-color="#000" /><stop offset="95%" stop-color="rgba(0, 0, 0, 0)" /></linearGradient><linearGradient gradientTransform="rotate(90)" id="h1"><stop offset="20%" stop-color="rgba(19,41,61,1)" /><stop offset="95%" stop-color="rgba(19,41,61,0)" /></linearGradient><linearGradient id="v1"><stop offset="20%" stop-color="rgba(19,41,61,1)" /><stop offset="95%" stop-color="rgba(19,41,61,0)" /></linearGradient><linearGradient gradientTransform="rotate(90)" id="h2"><stop offset="20%" stop-color="rgba(232,241,242,1)" /><stop offset="95%" stop-color="rgba(232,241,242,0)" /></linearGradient><linearGradient id="v2"><stop offset="20%" stop-color="rgba(232,241,242,1)" /><stop offset="95%" stop-color="rgba(232,241,242,0)" /></linearGradient><linearGradient gradientTransform="rotate(90)" id="h3"><stop offset="20%" stop-color="rgba(36,123,160,1)" /><stop offset="95%" stop-color="rgba(36,123,160,0)" /></linearGradient><linearGradient id="v3"><stop offset="20%" stop-color="rgba(36,123,160,1)" /><stop offset="95%" stop-color="rgba(36,123,160,0)" /></linearGradient><linearGradient gradientTransform="rotate(90)" id="h4"><stop offset="20%" stop-color="rgba(0,100,148,1)" /><stop offset="95%" stop-color="rgba(0,100,148,0)" /></linearGradient><linearGradient id="v4"><stop offset="20%" stop-color="rgba(0,100,148,1)" /><stop offset="95%" stop-color="rgba(0,100,148,0)" /></linearGradient><linearGradient gradientTransform="rotate(90)" id="h5"><stop offset="20%" stop-color="rgba(27,152,224,1)" /><stop offset="95%" stop-color="rgba(27,152,224,0)" /></linearGradient><linearGradient id="v5"><stop offset="20%" stop-color="rgba(27,152,224,1)" /><stop offset="95%" stop-color="rgba(27,152,224,0)" /></linearGradient><linearGradient gradientTransform="rotate(90)" id="h6"><stop offset="20%" stop-color="rgba(255,255,255,1)" /><stop offset="95%" stop-color="rgba(255,255,255,0)" /></linearGradient><linearGradient id="v6"><stop offset="20%" stop-color="rgba(255,255,255,1)" /><stop offset="95%" stop-color="rgba(255,255,255,0)" /></linearGradient><linearGradient gradientTransform="rotate(90)" id="h7"><stop offset="20%" stop-color="rgba(255,255,0,1)" /><stop offset="95%" stop-color="rgba(255,255,0,0)" /></linearGradient><linearGradient id="v7"><stop offset="20%" stop-color="rgba(255,255,0,1)" /><stop offset="95%" stop-color="rgba(255,255,0,0)" /></linearGradient></defs><g transform-origin="1500 1500" transform="scale(2)" opacity=".8"><g id="slashes"><g class="o"><path transform="translate(8,16)" class="S sfv" d="M1165 1867 L1378 1654 L1378 1690 L1165 1903 Z"/><path class="fv7" d="M1165 1867 L1378 1654 L1378 1690 L1165 1903 Z" /></g><g class="o"><path transform="translate(8,16)" class="S sfv" d="M1289 1137 L1154 1002 L1154 1038 L1289 1173 Z"/><path class="fv4" d="M1289 1137 L1154 1002 L1154 1038 L1289 1173 Z" /></g><g class="o"><path transform="translate(8,16)" class="S sfv" d="M1630 1033 L1576 979 L1576 991 L1630 1045 Z"/><path class="fv5" d="M1630 1033 L1576 979 L1576 991 L1630 1045 Z" /></g><g class="o"><path transform="translate(9,18)" class="S sfv" d="M2021 1133 L1833 945 L1833 961 L2021 1149 Z"/><path class="fv6" d="M2021 1133 L1833 945 L1833 961 L2021 1149 Z" /></g><g class="o"><path transform="translate(3,6)" class="S sfv" d="M1988 974 L1897 883 L1897 921 L1988 1012 Z"/><path class="fv6" d="M1988 974 L1897 883 L1897 921 L1988 1012 Z" /></g><g class="o"><path transform="translate(2,4)" class="S ss" d="M1439 1193 L1542 1090 L1542 1122 L1439 1225 Z"/><path class="s1" d="M1439 1193 L1542 1090 L1542 1122 L1439 1225 Z" /></g><g class="o"><path transform="translate(6,12)" class="S sfh" d="M1374 1549 L1566 1357 L1586 1357 L1394 1549 Z"/><path class="fh4" d="M1374 1549 L1566 1357 L1586 1357 L1394 1549 Z" /></g><g class="o"><path transform="translate(4,8)" class="S ssv" d="M998 1883 L1244 1637 L1244 1649 L998 1895 Z"/><path class="sv4" d="M998 1883 L1244 1637 L1244 1649 L998 1895 Z" /></g><g class="o"><path transform="translate(5,10)" class="S ssh" d="M958 1812 L1093 1677 L1125 1677 L990 1812 Z"/><path class="sh7" d="M958 1812 L1093 1677 L1125 1677 L990 1812 Z" /></g><g class="o"><path transform="translate(5,10)" class="S ssv" d="M1585 1471 L1456 1342 L1456 1372 L1585 1501 Z"/><path class="sv1" d="M1585 1471 L1456 1342 L1456 1372 L1585 1501 Z" /></g><g class="o"><path transform="translate(5,10)" class="S sf" d="M1049 1124 L1260 913 L1260 943 L1049 1154 Z"/><path class="f1" d="M1049 1124 L1260 913 L1260 943 L1049 1154 Z" /></g><g class="o"><path transform="translate(9,18)" class="S ssh" d="M1440 1766 L1541 1665 L1579 1665 L1478 1766 Z"/><path class="sh4" d="M1440 1766 L1541 1665 L1579 1665 L1478 1766 Z" /></g><g class="o"><path transform="translate(9,18)" class="S sfv" d="M1870 1409 L1958 1321 L1958 1337 L1870 1425 Z"/><path class="fv6" d="M1870 1409 L1958 1321 L1958 1337 L1870 1425 Z" /></g><g class="o"><path transform="translate(6,12)" class="S sfh" d="M1987 1599 L2120 1466 L2158 1466 L2025 1599 Z"/><path class="fh5" d="M1987 1599 L2120 1466 L2158 1466 L2025 1599 Z" /></g><g class="o"><path transform="translate(4,8)" class="S sf" d="M2024 1411 L2636 799 L2636 823 L2024 1435 Z"/><path class="f2" d="M2024 1411 L2636 799 L2636 823 L2024 1435 Z" /></g><g class="o"><path transform="translate(3,6)" class="S ssh" d="M2030 1602 L1935 1507 L1951 1507 L2046 1602 Z"/><path class="sh6" d="M2030 1602 L1935 1507 L1951 1507 L2046 1602 Z" /></g><g class="o"><path transform="translate(7,14)" class="S sf" d="M1666 1861 L2224 1303 L2224 1315 L1666 1873 Z"/><path class="f4" d="M1666 1861 L2224 1303 L2224 1315 L1666 1873 Z" /></g><g class="o"><path transform="translate(6,12)" class="S sfh" d="M1473 1926 L1633 1766 L1663 1766 L1503 1926 Z"/><path class="fh7" d="M1473 1926 L1633 1766 L1663 1766 L1503 1926 Z" /></g><g class="o"><path transform="translate(3,6)" class="S sfv" d="M1893 1576 L1969 1500 L1969 1522 L1893 1598 Z"/><path class="fv4" d="M1893 1576 L1969 1500 L1969 1522 L1893 1598 Z" /></g><g class="o"><path transform="translate(4,8)" class="S sf" d="M1892 957 L2026 823 L2046 823 L1912 957 Z"/><path class="f6" d="M1892 957 L2026 823 L2046 823 L1912 957 Z" /></g><g class="o"><path transform="translate(6,12)" class="S ssv" d="M1660 987 L1591 918 L1591 940 L1660 1009 Z"/><path class="sv7" d="M1660 987 L1591 918 L1591 940 L1660 1009 Z" /></g><g class="o"><path transform="translate(8,16)" class="S sfh" d="M1365 966 L1295 896 L1303 896 L1373 966 Z"/><path class="fh2" d="M1365 966 L1295 896 L1303 896 L1373 966 Z" /></g><g class="o"><path transform="translate(4,8)" class="S sfh" d="M1650 1166 L1566 1082 L1604 1082 L1688 1166 Z"/><path class="fh2" d="M1650 1166 L1566 1082 L1604 1082 L1688 1166 Z" /></g><g class="o"><path transform="translate(6,12)" class="S ssh" d="M1424 1535 L1264 1375 L1288 1375 L1448 1535 Z"/><path class="sh3" d="M1424 1535 L1264 1375 L1288 1375 L1448 1535 Z" /></g><g class="o"><path transform="translate(8,16)" class="S sf" d="M1245 1261 L1097 1113 L1117 1113 L1265 1261 Z"/><path class="f4" d="M1245 1261 L1097 1113 L1117 1113 L1265 1261 Z" /></g><g class="o"><path transform="translate(9,18)" class="S ssh" d="M1622 1031 L1859 794 L1867 794 L1630 1031 Z"/><path class="sh7" d="M1622 1031 L1859 794 L1867 794 L1630 1031 Z" /></g><g class="o"><path transform="translate(9,18)" class="S ss" d="M1310 1811 L989 1490 L1025 1490 L1346 1811 Z"/><path class="s2" d="M1310 1811 L989 1490 L1025 1490 L1346 1811 Z" /></g><g class="o"><path transform="translate(7,14)" class="S sfh" d="M1932 1262 L2058 1136 L2078 1136 L1952 1262 Z"/><path class="fh3" d="M1932 1262 L2058 1136 L2078 1136 L1952 1262 Z" /></g><g class="o"><path transform="translate(7,14)" class="S sfv" d="M1942 1911 L1420 1389 L1420 1405 L1942 1927 Z"/><path class="fv6" d="M1942 1911 L1420 1389 L1420 1405 L1942 1927 Z" /></g><g class="o"><path transform="translate(6,12)" class="S sfh" d="M1117 1450 L1359 1208 L1373 1208 L1131 1450 Z"/><path class="fh2" d="M1117 1450 L1359 1208 L1373 1208 L1131 1450 Z" /></g><g class="o"><path transform="translate(9,18)" class="S sfv" d="M1009 2025 L897 1913 L897 1937 L1009 2049 Z"/><path class="fv1" d="M1009 2025 L897 1913 L897 1937 L1009 2049 Z" /></g><g class="o"><path transform="translate(8,16)" class="S ssv" d="M1998 1591 L2196 1393 L2196 1407 L1998 1605 Z"/><path class="sv3" d="M1998 1591 L2196 1393 L2196 1407 L1998 1605 Z" /></g><g class="o"><path transform="translate(9,18)" class="S sfh" d="M1563 1097 L1701 959 L1715 959 L1577 1097 Z"/><path class="fh5" d="M1563 1097 L1701 959 L1715 959 L1577 1097 Z" /></g><g class="o"><path transform="translate(8,16)" class="S sfv" d="M1060 1465 L1525 1000 L1525 1034 L1060 1499 Z"/><path class="fv1" d="M1060 1465 L1525 1000 L1525 1034 L1060 1499 Z" /></g><g class="o"><path transform="translate(2,4)" class="S ssh" d="M1076 1833 L956 1713 L984 1713 L1104 1833 Z"/><path class="sh5" d="M1076 1833 L956 1713 L984 1713 L1104 1833 Z" /></g><g class="o"><path transform="translate(8,16)" class="S ssv" d="M2022 1488 L1866 1332 L1866 1368 L2022 1524 Z"/><path class="sv3" d="M2022 1488 L1866 1332 L1866 1368 L2022 1524 Z" /></g><g class="o"><path transform="translate(5,10)" class="S sfv" d="M1565 1551 L1381 1367 L1381 1399 L1565 1583 Z"/><path class="fv4" d="M1565 1551 L1381 1367 L1381 1399 L1565 1583 Z" /></g><g class="o"><path transform="translate(7,14)" class="S sfv" d="M1353 1058 L1584 827 L1584 839 L1353 1070 Z"/><path class="fv4" d="M1353 1058 L1584 827 L1584 839 L1353 1070 Z" /></g><g class="o"><path transform="translate(4,8)" class="S sfh" d="M1064 995 L1379 680 L1415 680 L1100 995 Z"/><path class="fh6" d="M1064 995 L1379 680 L1415 680 L1100 995 Z" /></g><g class="o"><path transform="translate(5,10)" class="S sfv" d="M1890 1884 L2049 1725 L2049 1757 L1890 1916 Z"/><path class="fv2" d="M1890 1884 L2049 1725 L2049 1757 L1890 1916 Z" /></g><g class="o"><path transform="translate(8,16)" class="S sfh" d="M1540 1154 L1424 1038 L1450 1038 L1566 1154 Z"/><path class="fh2" d="M1540 1154 L1424 1038 L1450 1038 L1566 1154 Z" /></g><g class="o"><path transform="translate(6,12)" class="S sfh" d="M1556 2032 L1308 1784 L1330 1784 L1578 2032 Z"/><path class="fh1" d="M1556 2032 L1308 1784 L1330 1784 L1578 2032 Z" /></g><g class="o"><path transform="translate(5,10)" class="S sfh" d="M991 1765 L1155 1601 L1189 1601 L1025 1765 Z"/><path class="fh2" d="M991 1765 L1155 1601 L1189 1601 L1025 1765 Z" /></g><g class="o"><path transform="translate(7,14)" class="S sfv" d="M1162 1759 L1348 1573 L1348 1595 L1162 1781 Z"/><path class="fv2" d="M1162 1759 L1348 1573 L1348 1595 L1162 1781 Z" /></g><g class="o"><path transform="translate(4,8)" class="S sf" d="M1217 1395 L1946 666 L1946 678 L1217 1407 Z"/><path class="f2" d="M1217 1395 L1946 666 L1946 678 L1217 1407 Z" /></g><g class="o"><path transform="translate(2,4)" class="S sf" d="M1065 1509 L1205 1369 L1217 1369 L1077 1509 Z"/><path class="f7" d="M1065 1509 L1205 1369 L1217 1369 L1077 1509 Z" /></g><g class="o"><path transform="translate(8,16)" class="S sfh" d="M1930 1970 L1878 1918 L1914 1918 L1966 1970 Z"/><path class="fh2" d="M1930 1970 L1878 1918 L1914 1918 L1966 1970 Z" /></g><g class="o"><path transform="translate(2,4)" class="S sf" d="M1440 961 L1205 726 L1225 726 L1460 961 Z"/><path class="f6" d="M1440 961 L1205 726 L1225 726 L1460 961 Z" /></g><g class="o"><path transform="translate(6,12)" class="S sfh" d="M1418 964 L1278 824 L1314 824 L1454 964 Z"/><path class="fh5" d="M1418 964 L1278 824 L1314 824 L1454 964 Z" /></g><g class="o"><path transform="translate(4,8)" class="S sfh" d="M1541 2046 L1356 1861 L1386 1861 L1571 2046 Z"/><path class="fh1" d="M1541 2046 L1356 1861 L1386 1861 L1571 2046 Z" /></g><g class="o"><path transform="translate(7,14)" class="S sfv" d="M1404 1152 L1191 939 L1191 973 L1404 1186 Z"/><path class="fv7" d="M1404 1152 L1191 939 L1191 973 L1404 1186 Z" /></g><g class="o"><path transform="translate(4,8)" class="S sfv" d="M1811 1156 L1961 1006 L1961 1030 L1811 1180 Z"/><path class="fv6" d="M1811 1156 L1961 1006 L1961 1030 L1811 1180 Z" /></g><g class="o"><path transform="translate(4,8)" class="S sfv" d="M1548 1489 L1748 1289 L1748 1323 L1548 1523 Z"/><path class="fv5" d="M1548 1489 L1748 1289 L1748 1323 L1548 1523 Z" /></g><g class="o"><path transform="translate(2,4)" class="S ssh" d="M1424 1987 L1284 1847 L1298 1847 L1438 1987 Z"/><path class="sh1" d="M1424 1987 L1284 1847 L1298 1847 L1438 1987 Z" /></g><g class="o"><path transform="translate(8,16)" class="S ssh" d="M1952 1343 L1709 1100 L1739 1100 L1982 1343 Z"/><path class="sh5" d="M1952 1343 L1709 1100 L1739 1100 L1982 1343 Z" /></g><g class="o"><path transform="translate(4,8)" class="S sfv" d="M970 1461 L1152 1279 L1152 1305 L970 1487 Z"/><path class="fv7" d="M970 1461 L1152 1279 L1152 1305 L970 1487 Z" /></g><g class="o"><path transform="translate(3,6)" class="S sfv" d="M1420 1002 L1021 603 L1021 631 L1420 1030 Z"/><path class="fv7" d="M1420 1002 L1021 603 L1021 631 L1420 1030 Z" /></g><g class="o"><path transform="translate(2,4)" class="S ssv" d="M1451 2005 L1337 1891 L1337 1923 L1451 2037 Z"/><path class="sv3" d="M1451 2005 L1337 1891 L1337 1923 L1451 2037 Z" /></g><g class="o"><path transform="translate(7,14)" class="S sfv" d="M1367 1564 L1120 1317 L1120 1355 L1367 1602 Z"/><path class="fv3" d="M1367 1564 L1120 1317 L1120 1355 L1367 1602 Z" /></g><g class="o"><path transform="translate(3,6)" class="S sfv" d="M1570 1163 L1659 1074 L1659 1100 L1570 1189 Z"/><path class="fv6" d="M1570 1163 L1659 1074 L1659 1100 L1570 1189 Z" /></g><g class="o"><path transform="translate(2,4)" class="S sfv" d="M1364 1315 L1562 1117 L1562 1131 L1364 1329 Z"/><path class="fv4" d="M1364 1315 L1562 1117 L1562 1131 L1364 1329 Z" /></g><g class="o"><path transform="translate(5,10)" class="S ssv" d="M1515 1033 L2109 439 L2109 467 L1515 1061 Z"/><path class="sv4" d="M1515 1033 L2109 439 L2109 467 L1515 1061 Z" /></g><g class="o"><path transform="translate(8,16)" class="S ssh" d="M1380 1451 L1512 1319 L1542 1319 L1410 1451 Z"/><path class="sh7" d="M1380 1451 L1512 1319 L1542 1319 L1410 1451 Z" /></g><g class="o"><path transform="translate(2,4)" class="S ssv" d="M972 1671 L775 1474 L775 1508 L972 1705 Z"/><path class="sv4" d="M972 1671 L775 1474 L775 1508 L972 1705 Z" /></g><g class="o"><path transform="translate(6,12)" class="S sfv" d="M1738 1047 L1960 825 L1960 861 L1738 1083 Z"/><path class="fv7" d="M1738 1047 L1960 825 L1960 861 L1738 1083 Z" /></g><g class="o"><path transform="translate(5,10)" class="S ss" d="M1833 1242 L1688 1097 L1688 1117 L1833 1262 Z"/><path class="s7" d="M1833 1242 L1688 1097 L1688 1117 L1833 1262 Z" /></g><g class="o"><path transform="translate(8,16)" class="S sfh" d="M1540 1379 L2176 743 L2206 743 L1570 1379 Z"/><path class="fh6" d="M1540 1379 L2176 743 L2206 743 L1570 1379 Z" /></g><g class="o"><path transform="translate(2,4)" class="S sf" d="M1624 1440 L1273 1089 L1291 1089 L1642 1440 Z"/><path class="f7" d="M1624 1440 L1273 1089 L1291 1089 L1642 1440 Z" /></g><g class="o"><path transform="translate(9,18)" class="S sfh" d="M1519 1160 L1745 934 L1755 934 L1529 1160 Z"/><path class="fh3" d="M1519 1160 L1745 934 L1755 934 L1529 1160 Z" /></g><g class="o"><path transform="translate(9,18)" class="S sfv" d="M1687 1901 L1847 1741 L1847 1755 L1687 1915 Z"/><path class="fv1" d="M1687 1901 L1847 1741 L1847 1755 L1687 1915 Z" /></g><g class="o"><path transform="translate(3,6)" class="S sfh" d="M1088 1482 L1279 1291 L1317 1291 L1126 1482 Z"/><path class="fh2" d="M1088 1482 L1279 1291 L1317 1291 L1126 1482 Z" /></g><g class="o"><path transform="translate(6,12)" class="S sf" d="M2008 1282 L1809 1083 L1833 1083 L2032 1282 Z"/><path class="f2" d="M2008 1282 L1809 1083 L1833 1083 L2032 1282 Z" /></g><g class="o"><path transform="translate(2,4)" class="S sfv" d="M1222 1298 L1456 1064 L1456 1092 L1222 1326 Z"/><path class="fv4" d="M1222 1298 L1456 1064 L1456 1092 L1222 1326 Z" /></g><g class="o"><path transform="translate(7,14)" class="S sfh" d="M1130 1633 L989 1492 L1017 1492 L1158 1633 Z"/><path class="fh7" d="M1130 1633 L989 1492 L1017 1492 L1158 1633 Z" /></g><g class="o"><path transform="translate(7,14)" class="S sfv" d="M1529 1555 L1421 1447 L1421 1463 L1529 1571 Z"/><path class="fv2" d="M1529 1555 L1421 1447 L1421 1463 L1529 1571 Z" /></g><g class="o"><path transform="translate(5,10)" class="S sfh" d="M1639 1745 L1459 1565 L1495 1565 L1675 1745 Z"/><path class="fh4" d="M1639 1745 L1459 1565 L1495 1565 L1675 1745 Z" /></g><g class="o"><path transform="translate(2,4)" class="S ssh" d="M1687 1515 L2200 1002 L2232 1002 L1719 1515 Z"/><path class="sh6" d="M1687 1515 L2200 1002 L2232 1002 L1719 1515 Z" /></g><g class="o"><path transform="translate(7,14)" class="S sfh" d="M1436 1751 L1226 1541 L1262 1541 L1472 1751 Z"/><path class="fh6" d="M1436 1751 L1226 1541 L1262 1541 L1472 1751 Z" /></g><g class="o"><path transform="translate(4,8)" class="S sfh" d="M1102 1714 L1347 1469 L1377 1469 L1132 1714 Z"/><path class="fh3" d="M1102 1714 L1347 1469 L1377 1469 L1132 1714 Z" /></g><g class="o"><path transform="translate(8,16)" class="S sfh" d="M1801 1872 L2377 1296 L2395 1296 L1819 1872 Z"/><path class="fh6" d="M1801 1872 L2377 1296 L2395 1296 L1819 1872 Z" /></g><g class="o"><path transform="translate(5,10)" class="S sfv" d="M1560 1128 L1741 947 L1741 969 L1560 1150 Z"/><path class="fv4" d="M1560 1128 L1741 947 L1741 969 L1560 1150 Z" /></g><g class="o"><path transform="translate(6,12)" class="S ss" d="M989 982 L1175 796 L1195 796 L1009 982 Z"/><path class="s4" d="M989 982 L1175 796 L1195 796 L1009 982 Z" /></g><g class="o"><path transform="translate(5,10)" class="S sfv" d="M1496 1237 L1623 1110 L1623 1132 L1496 1259 Z"/><path class="fv3" d="M1496 1237 L1623 1110 L1623 1132 L1496 1259 Z" /></g><g class="o"><path transform="translate(5,10)" class="S sfv" d="M1064 1926 L1117 1873 L1117 1891 L1064 1944 Z"/><path class="fv4" d="M1064 1926 L1117 1873 L1117 1891 L1064 1944 Z" /></g><g class="o"><path transform="translate(7,14)" class="S sfh" d="M1770 1164 L1831 1103 L1845 1103 L1784 1164 Z"/><path class="fh3" d="M1770 1164 L1831 1103 L1845 1103 L1784 1164 Z" /></g><g class="o"><path transform="translate(4,8)" class="S sf" d="M1536 1230 L1448 1142 L1464 1142 L1552 1230 Z"/><path class="f1" d="M1536 1230 L1448 1142 L1464 1142 L1552 1230 Z" /></g><g class="o"><path transform="translate(2,4)" class="S sfv" d="M1956 1556 L1847 1447 L1847 1455 L1956 1564 Z"/><path class="fv7" d="M1956 1556 L1847 1447 L1847 1455 L1956 1564 Z" /></g><g class="o"><path transform="translate(8,16)" class="S sfv" d="M1111 1770 L1348 1533 L1348 1569 L1111 1806 Z"/><path class="fv4" d="M1111 1770 L1348 1533 L1348 1569 L1111 1806 Z" /></g><g class="o"><path transform="translate(6,12)" class="S ss" d="M1439 1653 L1352 1566 L1352 1592 L1439 1679 Z"/><path class="s7" d="M1439 1653 L1352 1566 L1352 1592 L1439 1679 Z" /></g><g class="o"><path transform="translate(4,8)" class="S sfh" d="M1776 1693 L1296 1213 L1324 1213 L1804 1693 Z"/><path class="fh2" d="M1776 1693 L1296 1213 L1324 1213 L1804 1693 Z" /></g><g class="o"><path transform="translate(5,10)" class="S sfh" d="M1827 1883 L1752 1808 L1776 1808 L1851 1883 Z"/><path class="fh6" d="M1827 1883 L1752 1808 L1776 1808 L1851 1883 Z" /></g><g class="o"><path transform="translate(6,12)" class="S sfv" d="M1839 1352 L2340 851 L2340 879 L1839 1380 Z"/><path class="fv1" d="M1839 1352 L2340 851 L2340 879 L1839 1380 Z" /></g><g class="o"><path transform="translate(9,18)" class="S sfh" d="M1579 1265 L1446 1132 L1466 1132 L1599 1265 Z"/><path class="fh2" d="M1579 1265 L1446 1132 L1466 1132 L1599 1265 Z" /></g><g class="o"><path transform="translate(5,10)" class="S sfh" d="M1622 1712 L1866 1468 L1876 1468 L1632 1712 Z"/><path class="fh7" d="M1622 1712 L1866 1468 L1876 1468 L1632 1712 Z" /></g><g class="o"><path transform="translate(7,14)" class="S ssv" d="M1298 1466 L1409 1355 L1409 1389 L1298 1500 Z"/><path class="sv1" d="M1298 1466 L1409 1355 L1409 1389 L1298 1500 Z" /></g><g class="o"><path transform="translate(2,4)" class="S sfv" d="M1832 1335 L1932 1235 L1932 1259 L1832 1359 Z"/><path class="fv4" d="M1832 1335 L1932 1235 L1932 1259 L1832 1359 Z" /></g><g class="o"><path transform="translate(7,14)" class="S sfh" d="M1336 1441 L1584 1193 L1600 1193 L1352 1441 Z"/><path class="fh4" d="M1336 1441 L1584 1193 L1600 1193 L1352 1441 Z" /></g><g class="o"><path transform="translate(5,10)" class="S sfh" d="M1690 1504 L2266 928 L2302 928 L1726 1504 Z"/><path class="fh3" d="M1690 1504 L2266 928 L2302 928 L1726 1504 Z" /></g><g class="o"><path transform="translate(2,4)" class="S sf" d="M1134 989 L1461 662 L1461 692 L1134 1019 Z"/><path class="f4" d="M1134 989 L1461 662 L1461 692 L1134 1019 Z" /></g><g class="o"><path transform="translate(8,16)" class="S sf" d="M1111 1572 L1804 879 L1832 879 L1139 1572 Z"/><path class="f1" d="M1111 1572 L1804 879 L1832 879 L1139 1572 Z" /></g><g class="o"><path transform="translate(7,14)" class="S sfh" d="M1530 1113 L1687 956 L1715 956 L1558 1113 Z"/><path class="fh7" d="M1530 1113 L1687 956 L1715 956 L1558 1113 Z" /></g><g class="o"><path transform="translate(2,4)" class="S sf" d="M978 1317 L750 1089 L772 1089 L1000 1317 Z"/><path class="f5" d="M978 1317 L750 1089 L772 1089 L1000 1317 Z" /></g><g class="o"><path transform="translate(3,6)" class="S ssh" d="M1220 1326 L1454 1092 L1464 1092 L1230 1326 Z"/><path class="sh1" d="M1220 1326 L1454 1092 L1464 1092 L1230 1326 Z" /></g><g class="o"><path transform="translate(9,18)" class="S sfv" d="M1009 2005 L1109 1905 L1109 1937 L1009 2037 Z"/><path class="fv3" d="M1009 2005 L1109 1905 L1109 1937 L1009 2037 Z" /></g><g class="o"><path transform="translate(8,16)" class="S sfh" d="M1792 1928 L1627 1763 L1657 1763 L1822 1928 Z"/><path class="fh1" d="M1792 1928 L1627 1763 L1657 1763 L1822 1928 Z" /></g><g class="o"><path transform="translate(8,16)" class="S sfv" d="M1678 1911 L1530 1763 L1530 1787 L1678 1935 Z"/><path class="fv6" d="M1678 1911 L1530 1763 L1530 1787 L1678 1935 Z" /></g><g class="o"><path transform="translate(8,16)" class="S sfv" d="M1344 2034 L1578 1800 L1578 1828 L1344 2062 Z"/><path class="fv2" d="M1344 2034 L1578 1800 L1578 1828 L1344 2062 Z" /></g><g class="o"><path transform="translate(4,8)" class="S sf" d="M1852 1043 L2254 641 L2254 665 L1852 1067 Z"/><path class="f3" d="M1852 1043 L2254 641 L2254 665 L1852 1067 Z" /></g><g class="o"><path transform="translate(2,4)" class="S sfh" d="M1976 1159 L2183 952 L2217 952 L2010 1159 Z"/><path class="fh2" d="M1976 1159 L2183 952 L2217 952 L2010 1159 Z" /></g><g class="o"><path transform="translate(7,14)" class="S ssv" d="M1724 1542 L1642 1460 L1642 1474 L1724 1556 Z"/><path class="sv1" d="M1724 1542 L1642 1460 L1642 1474 L1724 1556 Z" /></g><g class="o"><path transform="translate(5,10)" class="S sfh" d="M1012 1468 L1273 1207 L1283 1207 L1022 1468 Z"/><path class="fh4" d="M1012 1468 L1273 1207 L1283 1207 L1022 1468 Z" /></g><g class="o"><path transform="translate(8,16)" class="S sfv" d="M1734 1207 L1113 586 L1113 622 L1734 1243 Z"/><path class="fv6" d="M1734 1207 L1113 586 L1113 622 L1734 1243 Z" /></g><g class="o"><path transform="translate(7,14)" class="S sfh" d="M1261 1739 L1370 1630 L1402 1630 L1293 1739 Z"/><path class="fh1" d="M1261 1739 L1370 1630 L1402 1630 L1293 1739 Z" /></g><g class="o"><path transform="translate(5,10)" class="S sfv" d="M993 1671 L873 1551 L873 1571 L993 1691 Z"/><path class="fv2" d="M993 1671 L873 1551 L873 1571 L993 1691 Z" /></g><g class="o"><path transform="translate(2,4)" class="S sfv" d="M1664 1572 L1468 1376 L1468 1404 L1664 1600 Z"/><path class="fv5" d="M1664 1572 L1468 1376 L1468 1404 L1664 1600 Z" /></g><g class="o"><path transform="translate(7,14)" class="S sfh" d="M1362 1791 L1531 1622 L1549 1622 L1380 1791 Z"/><path class="fh4" d="M1362 1791 L1531 1622 L1549 1622 L1380 1791 Z" /></g><g class="o"><path transform="translate(9,18)" class="S ssh" d="M2011 1074 L1958 1021 L1966 1021 L2019 1074 Z"/><path class="sh6" d="M2011 1074 L1958 1021 L1966 1021 L2019 1074 Z" /></g><g class="o"><path transform="translate(3,6)" class="S ssv" d="M1269 1435 L1487 1217 L1487 1245 L1269 1463 Z"/><path class="sv2" d="M1269 1435 L1487 1217 L1487 1245 L1269 1463 Z" /></g><g class="o"><path transform="translate(8,16)" class="S sf" d="M1967 1864 L2043 1788 L2043 1810 L1967 1886 Z"/><path class="f5" d="M1967 1864 L2043 1788 L2043 1810 L1967 1886 Z" /></g><g class="o"><path transform="translate(4,8)" class="S sfh" d="M1952 2014 L2342 1624 L2380 1624 L1990 2014 Z"/><path class="fh4" d="M1952 2014 L2342 1624 L2380 1624 L1990 2014 Z" /></g><g class="o"><path transform="translate(8,16)" class="S sfh" d="M1527 1330 L1593 1264 L1601 1264 L1535 1330 Z"/><path class="fh3" d="M1527 1330 L1593 1264 L1601 1264 L1535 1330 Z" /></g><g class="o"><path transform="translate(9,18)" class="S sf" d="M1406 1092 L1234 920 L1248 920 L1420 1092 Z"/><path class="f2" d="M1406 1092 L1234 920 L1248 920 L1420 1092 Z" /></g><g class="o"><path transform="translate(4,8)" class="S sfh" d="M1761 1127 L1693 1059 L1713 1059 L1781 1127 Z"/><path class="fh6" d="M1761 1127 L1693 1059 L1713 1059 L1781 1127 Z" /></g><g class="o"><path transform="translate(9,18)" class="S ssh" d="M1503 1209 L1377 1083 L1405 1083 L1531 1209 Z"/><path class="sh2" d="M1503 1209 L1377 1083 L1405 1083 L1531 1209 Z" /></g><g class="o"><path transform="translate(5,10)" class="S sfv" d="M1166 1822 L1228 1760 L1228 1778 L1166 1840 Z"/><path class="fv6" d="M1166 1822 L1228 1760 L1228 1778 L1166 1840 Z" /></g><g class="o"><path transform="translate(2,4)" class="S sfv" d="M1542 1161 L1729 974 L1729 1008 L1542 1195 Z"/><path class="fv7" d="M1542 1161 L1729 974 L1729 1008 L1542 1195 Z" /></g><g class="o"><path transform="translate(4,8)" class="S sfv" d="M1013 1829 L960 1776 L960 1784 L1013 1837 Z"/><path class="fv2" d="M1013 1829 L960 1776 L960 1784 L1013 1837 Z" /></g><g class="o"><path transform="translate(8,16)" class="S sfv" d="M2001 1115 L2089 1027 L2089 1051 L2001 1139 Z"/><path class="fv6" d="M2001 1115 L2089 1027 L2089 1051 L2001 1139 Z" /></g><g class="o"><path transform="translate(3,6)" class="S sfv" d="M1596 1206 L1534 1144 L1534 1180 L1596 1242 Z"/><path class="fv4" d="M1596 1206 L1534 1144 L1534 1180 L1596 1242 Z" /></g><g class="o"><path transform="translate(6,12)" class="S sf" d="M1287 1763 L1385 1665 L1385 1703 L1287 1801 Z"/><path class="f2" d="M1287 1763 L1385 1665 L1385 1703 L1287 1801 Z" /></g><g class="o"><path transform="translate(8,16)" class="S ssv" d="M1705 1274 L1538 1107 L1538 1139 L1705 1306 Z"/><path class="sv5" d="M1705 1274 L1538 1107 L1538 1139 L1705 1306 Z" /></g><g class="o"><path transform="translate(2,4)" class="S ss" d="M1820 1888 L1907 1801 L1907 1821 L1820 1908 Z"/><path class="s3" d="M1820 1888 L1907 1801 L1907 1821 L1820 1908 Z" /></g><g class="o"><path transform="translate(2,4)" class="S sfv" d="M1653 1713 L1713 1653 L1713 1675 L1653 1735 Z"/><path class="fv4" d="M1653 1713 L1713 1653 L1713 1675 L1653 1735 Z" /></g><g class="o"><path transform="translate(3,6)" class="S sfh" d="M1604 1571 L1542 1509 L1554 1509 L1616 1571 Z"/><path class="fh3" d="M1604 1571 L1542 1509 L1554 1509 L1616 1571 Z" /></g><g class="o"><path transform="translate(8,16)" class="S sfv" d="M1477 1908 L1000 1431 L1000 1461 L1477 1938 Z"/><path class="fv5" d="M1477 1908 L1000 1431 L1000 1461 L1477 1938 Z" /></g><g class="o"><path transform="translate(4,8)" class="S ssv" d="M1037 1222 L629 814 L629 846 L1037 1254 Z"/><path class="sv4" d="M1037 1222 L629 814 L629 846 L1037 1254 Z" /></g><g class="o"><path transform="translate(9,18)" class="S sfh" d="M1004 1996 L835 1827 L873 1827 L1042 1996 Z"/><path class="fh6" d="M1004 1996 L835 1827 L873 1827 L1042 1996 Z" /></g><g class="o"><path transform="translate(5,10)" class="S sfh" d="M1571 1360 L1250 1039 L1272 1039 L1593 1360 Z"/><path class="fh5" d="M1571 1360 L1250 1039 L1272 1039 L1593 1360 Z" /></g><g class="o"><path transform="translate(7,14)" class="S sfv" d="M1680 1966 L1796 1850 L1796 1884 L1680 2000 Z"/><path class="fv2" d="M1680 1966 L1796 1850 L1796 1884 L1680 2000 Z" /></g><g class="o"><path transform="translate(8,16)" class="S sfv" d="M1731 1312 L1617 1198 L1617 1232 L1731 1346 Z"/><path class="fv7" d="M1731 1312 L1617 1198 L1617 1232 L1731 1346 Z" /></g></g><use href="#slashes" transform-origin="1500 1500" transform="rotate(180) scale(2)"/></g><polyline points="1500,1010 1990,1500 1500,1990 1010,1500 1500,1010 1990,1500" stroke-width="10" class="o s1" /><use href="#slashes" transform-origin="1500 1500" transform="scale(.6)"/><use href="#slashes" transform-origin="1500 1500" transform="rotate(180) scale(.6)"/></svg>