<svg xmlns="http://www.w3.org/2000/svg" viewBox="750 750 1500 1500"><style>/*<![CDATA[*/svg{background:rgb(245,203,92);max-width:100vw;max-height:100vh}path{stroke-width:4}.o{opacity:.75}.S{opacity:.4}.sf{stroke:none;fill:black}.sfh{stroke:none;fill:url(#hs)}.sfv{stroke:none;fill:url(#vs)}.ss{stroke:black;fill:none}.ssh{stroke:url(#hs);fill:none}.ssv{stroke:url(#vs);fill:none}.s1{fill:none;stroke:rgb(207,219,213)}.f1{stroke:none;fill:rgb(207,219,213)}.sh1{fill:none;stroke:url(#h1)}.fh1{stroke:none;fill:url(#h1)}.sv1{fill:none;stroke:url(#v1)}.fv1{stroke:none;fill:url(#v1)}.s2{fill:none;stroke:rgb(232,237,223)}.f2{stroke:none;fill:rgb(232,237,223)}.sh2{fill:none;stroke:url(#h2)}.fh2{stroke:none;fill:url(#h2)}.sv2{fill:none;stroke:url(#v2)}.fv2{stroke:none;fill:url(#v2)}.s3{fill:none;stroke:rgb(51,53,51)}.f3{stroke:none;fill:rgb(51,53,51)}.sh3{fill:none;stroke:url(#h3)}.fh3{stroke:none;fill:url(#h3)}.sv3{fill:none;stroke:url(#v3)}.fv3{stroke:none;fill:url(#v3)}.s4{fill:none;stroke:rgb(34,34,34)}.f4{stroke:none;fill:rgb(34,34,34)}.sh4{fill:none;stroke:url(#h4)}.fh4{stroke:none;fill:url(#h4)}.sv4{fill:none;stroke:url(#v4)}.fv4{stroke:none;fill:url(#v4)}.s5{fill:none;stroke:rgb(36,36,35)}.f5{stroke:none;fill:rgb(36,36,35)}.sh5{fill:none;stroke:url(#h5)}.fh5{stroke:none;fill:url(#h5)}.sv5{fill:none;stroke:url(#v5)}.fv5{stroke:none;fill:url(#v5)}.s6{fill:none;stroke:rgb(255,255,255)}.f6{stroke:none;fill:rgb(255,255,255)}.sh6{fill:none;stroke:url(#h6)}.fh6{stroke:none;fill:url(#h6)}.sv6{fill:none;stroke:url(#v6)}.fv6{stroke:none;fill:url(#v6)}.s7{fill:none;stroke:rgb(255,0,0)}.f7{stroke:none;fill:rgb(255,0,0)}.sh7{fill:none;stroke:url(#h7)}.fh7{stroke:none;fill:url(#h7)}.sv7{fill:none;stroke:url(#v7)}.fv7{stroke:none;fill:url(#v7)}/*]]>*/</style><defs><linearGradient gradientTransform="rotate(90)" id="hs"><stop offset="20%" stop-color="#000" /><stop offset="95%" stop-color="rgba(0, 0, 0, 0)" /></linearGradient><linearGradient id="vs"><stop offset="20%" stop-color="#000" /><stop offset="95%" stop-color="rgba(0, 0, 0, 0)" /></linearGradient><linearGradient gradientTransform="rotate(90)" id="h1"><stop offset="20%" stop-color="rgba(207,219,213,1)" /><stop offset="95%" stop-color="rgba(207,219,213,0)" /></linearGradient><linearGradient id="v1"><stop offset="20%" stop-color="rgba(207,219,213,1)" /><stop offset="95%" stop-color="rgba(207,219,213,0)" /></linearGradient><linearGradient gradientTransform="rotate(90)" id="h2"><stop offset="20%" stop-color="rgba(232,237,223,1)" /><stop offset="95%" stop-color="rgba(232,237,223,0)" /></linearGradient><linearGradient id="v2"><stop offset="20%" stop-color="rgba(232,237,223,1)" /><stop offset="95%" stop-color="rgba(232,237,223,0)" /></linearGradient><linearGradient gradientTransform="rotate(90)" id="h3"><stop offset="20%" stop-color="rgba(51,53,51,1)" /><stop offset="95%" stop-color="rgba(51,53,51,0)" /></linearGradient><linearGradient id="v3"><stop offset="20%" stop-color="rgba(51,53,51,1)" /><stop offset="95%" stop-color="rgba(51,53,51,0)" /></linearGradient><linearGradient gradientTransform="rotate(90)" id="h4"><stop offset="20%" stop-color="rgba(34,34,34,1)" /><stop offset="95%" stop-color="rgba(34,34,34,0)" /></linearGradient><linearGradient id="v4"><stop offset="20%" stop-color="rgba(34,34,34,1)" /><stop offset="95%" stop-color="rgba(34,34,34,0)" /></linearGradient><linearGradient gradientTransform="rotate(90)" id="h5"><stop offset="20%" stop-color="rgba(36,36,35,1)" /><stop offset="95%" stop-color="rgba(36,36,35,0)" /></linearGradient><linearGradient id="v5"><stop offset="20%" stop-color="rgba(36,36,35,1)" /><stop offset="95%" stop-color="rgba(36,36,35,0)" /></linearGradient><linearGradient gradientTransform="rotate(90)" id="h6"><stop offset="20%" stop-color="rgba(255,255,255,1)" /><stop offset="95%" stop-color="rgba(255,255,255,0)" /></linearGradient><linearGradient id="v6"><stop offset="20%" stop-color="rgba(255,255,255,1)" /><stop offset="95%" stop-color="rgba(255,255,255,0)" /></linearGradient><linearGradient gradientTransform="rotate(90)" id="h7"><stop offset="20%" stop-color="rgba(255,0,0,1)" /><stop offset="95%" stop-color="rgba(255,0,0,0)" /></linearGradient><linearGradient id="v7"><stop offset="20%" stop-color="rgba(255,0,0,1)" /><stop offset="95%" stop-color="rgba(255,0,0,0)" /></linearGradient></defs><g transform-origin="1500 1500" transform="scale(2)" opacity=".2"><g id="slashes"><g class="o"><path transform="translate(6,12)" class="S sfh" d="M1286 1998 L1482 2194 L1492 2194 L1296 1998 Z"/><path class="fh1" d="M1286 1998 L1482 2194 L1492 2194 L1296 1998 Z" /></g><g class="o"><path transform="translate(2,4)" class="S sfv" d="M2014 939 L1775 1178 L1775 1214 L2014 975 Z"/><path class="fv6" d="M2014 939 L1775 1178 L1775 1214 L2014 975 Z" /></g><g class="o"><path transform="translate(8,16)" class="S ss" d="M1246 1161 L1327 1242 L1351 1242 L1270 1161 Z"/><path class="s4" d="M1246 1161 L1327 1242 L1351 1242 L1270 1161 Z" /></g><g class="o"><path transform="translate(3,6)" class="S sfh" d="M1669 1234 L1540 1363 L1578 1363 L1707 1234 Z"/><path class="fh6" d="M1669 1234 L1540 1363 L1578 1363 L1707 1234 Z" /></g><g class="o"><path transform="translate(2,4)" class="S sf" d="M1565 1557 L1388 1734 L1388 1742 L1565 1565 Z"/><path class="f3" d="M1565 1557 L1388 1734 L1388 1742 L1565 1565 Z" /></g><g class="o"><path transform="translate(6,12)" class="S sfh" d="M1172 1325 L1043 1454 L1063 1454 L1192 1325 Z"/><path class="fh4" d="M1172 1325 L1043 1454 L1063 1454 L1192 1325 Z" /></g><g class="o"><path transform="translate(8,16)" class="S sfv" d="M1620 1361 L1547 1434 L1547 1458 L1620 1385 Z"/><path class="fv5" d="M1620 1361 L1547 1434 L1547 1458 L1620 1385 Z" /></g><g class="o"><path transform="translate(7,14)" class="S sfv" d="M1932 1552 L1845 1639 L1845 1653 L1932 1566 Z"/><path class="fv7" d="M1932 1552 L1845 1639 L1845 1653 L1932 1566 Z" /></g><g class="o"><path transform="translate(4,8)" class="S sfh" d="M1843 1984 L2060 2201 L2088 2201 L1871 1984 Z"/><path class="fh7" d="M1843 1984 L2060 2201 L2088 2201 L1871 1984 Z" /></g><g class="o"><path transform="translate(2,4)" class="S sfh" d="M1287 1881 L1370 1964 L1392 1964 L1309 1881 Z"/><path class="fh6" d="M1287 1881 L1370 1964 L1392 1964 L1309 1881 Z" /></g><g class="o"><path transform="translate(2,4)" class="S ssh" d="M1840 1084 L1721 1203 L1743 1203 L1862 1084 Z"/><path class="sh4" d="M1840 1084 L1721 1203 L1743 1203 L1862 1084 Z" /></g><g class="o"><path transform="translate(7,14)" class="S sfh" d="M991 1161 L1091 1261 L1107 1261 L1007 1161 Z"/><path class="fh3" d="M991 1161 L1091 1261 L1107 1261 L1007 1161 Z" /></g><g class="o"><path transform="translate(8,16)" class="S sf" d="M1337 1841 L1162 2016 L1162 2028 L1337 1853 Z"/><path class="f6" d="M1337 1841 L1162 2016 L1162 2028 L1337 1853 Z" /></g><g class="o"><path transform="translate(9,18)" class="S sfv" d="M1087 1315 L937 1465 L937 1491 L1087 1341 Z"/><path class="fv1" d="M1087 1315 L937 1465 L937 1491 L1087 1341 Z" /></g><g class="o"><path transform="translate(5,10)" class="S sfv" d="M1170 1969 L1063 2076 L1063 2090 L1170 1983 Z"/><path class="fv1" d="M1170 1969 L1063 2076 L1063 2090 L1170 1983 Z" /></g><g class="o"><path transform="translate(8,16)" class="S sfh" d="M1807 1677 L1627 1857 L1665 1857 L1845 1677 Z"/><path class="fh6" d="M1807 1677 L1627 1857 L1665 1857 L1845 1677 Z" /></g><g class="o"><path transform="translate(6,12)" class="S sfv" d="M1844 1536 L1906 1598 L1906 1620 L1844 1558 Z"/><path class="fv4" d="M1844 1536 L1906 1598 L1906 1620 L1844 1558 Z" /></g><g class="o"><path transform="translate(3,6)" class="S ssh" d="M1694 1467 L1901 1674 L1917 1674 L1710 1467 Z"/><path class="sh5" d="M1694 1467 L1901 1674 L1917 1674 L1710 1467 Z" /></g><g class="o"><path transform="translate(2,4)" class="S sf" d="M1796 1556 L1901 1661 L1901 1673 L1796 1568 Z"/><path class="f3" d="M1796 1556 L1901 1661 L1901 1673 L1796 1568 Z" /></g><g class="o"><path transform="translate(4,8)" class="S sfh" d="M1135 1482 L1326 1673 L1360 1673 L1169 1482 Z"/><path class="fh1" d="M1135 1482 L1326 1673 L1360 1673 L1169 1482 Z" /></g><g class="o"><path transform="translate(3,6)" class="S sfv" d="M1149 975 L1302 1128 L1302 1152 L1149 999 Z"/><path class="fv6" d="M1149 975 L1302 1128 L1302 1152 L1149 999 Z" /></g><g class="o"><path transform="translate(2,4)" class="S sfh" d="M1374 1413 L1444 1483 L1460 1483 L1390 1413 Z"/><path class="fh2" d="M1374 1413 L1444 1483 L1460 1483 L1390 1413 Z" /></g><g class="o"><path transform="translate(5,10)" class="S sfv" d="M1102 1635 L988 1749 L988 1783 L1102 1669 Z"/><path class="fv6" d="M1102 1635 L988 1749 L988 1783 L1102 1669 Z" /></g><g class="o"><path transform="translate(2,4)" class="S ssh" d="M2016 1623 L1820 1819 L1852 1819 L2048 1623 Z"/><path class="sh3" d="M2016 1623 L1820 1819 L1852 1819 L2048 1623 Z" /></g><g class="o"><path transform="translate(8,16)" class="S sfh" d="M1187 1802 L1262 1877 L1300 1877 L1225 1802 Z"/><path class="fh3" d="M1187 1802 L1262 1877 L1300 1877 L1225 1802 Z" /></g><g class="o"><path transform="translate(5,10)" class="S ssv" d="M1870 1261 L1928 1319 L1928 1347 L1870 1289 Z"/><path class="sv6" d="M1870 1261 L1928 1319 L1928 1347 L1870 1289 Z" /></g><g class="o"><path transform="translate(9,18)" class="S sfv" d="M1344 1005 L1546 1207 L1546 1235 L1344 1033 Z"/><path class="fv6" d="M1344 1005 L1546 1207 L1546 1235 L1344 1033 Z" /></g><g class="o"><path transform="translate(5,10)" class="S ssv" d="M1669 1347 L1876 1554 L1876 1588 L1669 1381 Z"/><path class="sv3" d="M1669 1347 L1876 1554 L1876 1588 L1669 1381 Z" /></g><g class="o"><path transform="translate(6,12)" class="S ssh" d="M1060 1906 L1155 2001 L1187 2001 L1092 1906 Z"/><path class="sh2" d="M1060 1906 L1155 2001 L1187 2001 L1092 1906 Z" /></g><g class="o"><path transform="translate(4,8)" class="S sf" d="M1016 1029 L1146 1159 L1146 1185 L1016 1055 Z"/><path class="f7" d="M1016 1029 L1146 1159 L1146 1185 L1016 1055 Z" /></g><g class="o"><path transform="translate(3,6)" class="S sfh" d="M1389 2001 L1235 2155 L1267 2155 L1421 2001 Z"/><path class="fh4" d="M1389 2001 L1235 2155 L1267 2155 L1421 2001 Z" /></g><g class="o"><path transform="translate(9,18)" class="S sfh" d="M1893 1668 L1728 1833 L1754 1833 L1919 1668 Z"/><path class="fh5" d="M1893 1668 L1728 1833 L1754 1833 L1919 1668 Z" /></g><g class="o"><path transform="translate(8,16)" class="S sfh" d="M967 1198 L1153 1384 L1179 1384 L993 1198 Z"/><path class="fh3" d="M967 1198 L1153 1384 L1179 1384 L993 1198 Z" /></g><g class="o"><path transform="translate(4,8)" class="S sfv" d="M1713 964 L1540 1137 L1540 1145 L1713 972 Z"/><path class="fv5" d="M1713 964 L1540 1137 L1540 1145 L1713 972 Z" /></g><g class="o"><path transform="translate(2,4)" class="S ss" d="M942 1713 L724 1931 L746 1931 L964 1713 Z"/><path class="s4" d="M942 1713 L724 1931 L746 1931 L964 1713 Z" /></g><g class="o"><path transform="translate(2,4)" class="S sfv" d="M1432 1426 L1632 1626 L1632 1638 L1432 1438 Z"/><path class="fv5" d="M1432 1426 L1632 1626 L1632 1638 L1432 1438 Z" /></g><g class="o"><path transform="translate(6,12)" class="S sfv" d="M1844 1725 L1643 1926 L1643 1946 L1844 1745 Z"/><path class="fv2" d="M1844 1725 L1643 1926 L1643 1946 L1844 1745 Z" /></g><g class="o"><path transform="translate(2,4)" class="S sfh" d="M1554 994 L1411 1137 L1419 1137 L1562 994 Z"/><path class="fh4" d="M1554 994 L1411 1137 L1419 1137 L1562 994 Z" /></g><g class="o"><path transform="translate(8,16)" class="S ssv" d="M1891 1610 L2136 1855 L2136 1887 L1891 1642 Z"/><path class="sv3" d="M1891 1610 L2136 1855 L2136 1887 L1891 1642 Z" /></g><g class="o"><path transform="translate(3,6)" class="S sfv" d="M1889 2034 L2124 2269 L2124 2299 L1889 2064 Z"/><path class="fv3" d="M1889 2034 L2124 2269 L2124 2299 L1889 2064 Z" /></g><g class="o"><path transform="translate(6,12)" class="S sfv" d="M964 1549 L1086 1671 L1086 1707 L964 1585 Z"/><path class="fv6" d="M964 1549 L1086 1671 L1086 1707 L964 1585 Z" /></g><g class="o"><path transform="translate(3,6)" class="S sfv" d="M1555 1920 L1404 2071 L1404 2105 L1555 1954 Z"/><path class="fv4" d="M1555 1920 L1404 2071 L1404 2105 L1555 1954 Z" /></g><g class="o"><path transform="translate(4,8)" class="S sfv" d="M1835 1923 L1960 2048 L1960 2086 L1835 1961 Z"/><path class="fv4" d="M1835 1923 L1960 2048 L1960 2086 L1835 1961 Z" /></g><g class="o"><path transform="translate(6,12)" class="S sfh" d="M1941 1725 L1768 1898 L1794 1898 L1967 1725 Z"/><path class="fh3" d="M1941 1725 L1768 1898 L1794 1898 L1967 1725 Z" /></g><g class="o"><path transform="translate(6,12)" class="S ssv" d="M1396 1027 L1559 1190 L1559 1200 L1396 1037 Z"/><path class="sv4" d="M1396 1027 L1559 1190 L1559 1200 L1396 1037 Z" /></g><g class="o"><path transform="translate(7,14)" class="S ssv" d="M1747 1500 L1692 1555 L1692 1593 L1747 1538 Z"/><path class="sv6" d="M1747 1500 L1692 1555 L1692 1593 L1747 1538 Z" /></g><g class="o"><path transform="translate(8,16)" class="S sfv" d="M1360 1906 L1536 2082 L1536 2092 L1360 1916 Z"/><path class="fv3" d="M1360 1906 L1536 2082 L1536 2092 L1360 1916 Z" /></g><g class="o"><path transform="translate(6,12)" class="S sfh" d="M1081 1852 L1189 1960 L1211 1960 L1103 1852 Z"/><path class="fh7" d="M1081 1852 L1189 1960 L1211 1960 L1103 1852 Z" /></g><g class="o"><path transform="translate(2,4)" class="S sfh" d="M1548 1931 L1493 1986 L1501 1986 L1556 1931 Z"/><path class="fh4" d="M1548 1931 L1493 1986 L1501 1986 L1556 1931 Z" /></g><g class="o"><path transform="translate(9,18)" class="S sfv" d="M2016 1834 L1861 1989 L1861 2027 L2016 1872 Z"/><path class="fv7" d="M2016 1834 L1861 1989 L1861 2027 L2016 1872 Z" /></g><g class="o"><path transform="translate(8,16)" class="S ssv" d="M1700 1618 L1566 1752 L1566 1766 L1700 1632 Z"/><path class="sv5" d="M1700 1618 L1566 1752 L1566 1766 L1700 1632 Z" /></g><g class="o"><path transform="translate(7,14)" class="S ssv" d="M1180 1802 L1087 1895 L1087 1929 L1180 1836 Z"/><path class="sv5" d="M1180 1802 L1087 1895 L1087 1929 L1180 1836 Z" /></g><g class="o"><path transform="translate(8,16)" class="S ssv" d="M1667 1155 L1595 1227 L1595 1239 L1667 1167 Z"/><path class="sv7" d="M1667 1155 L1595 1227 L1595 1239 L1667 1167 Z" /></g><g class="o"><path transform="translate(5,10)" class="S sf" d="M1905 1015 L2004 1114 L2004 1144 L1905 1045 Z"/><path class="f1" d="M1905 1015 L2004 1114 L2004 1144 L1905 1045 Z" /></g><g class="o"><path transform="translate(2,4)" class="S ssv" d="M1475 1821 L1277 2019 L1277 2027 L1475 1829 Z"/><path class="sv1" d="M1475 1821 L1277 2019 L1277 2027 L1475 1829 Z" /></g><g class="o"><path transform="translate(9,18)" class="S sfh" d="M1185 1308 L1283 1406 L1291 1406 L1193 1308 Z"/><path class="fh5" d="M1185 1308 L1283 1406 L1291 1406 L1193 1308 Z" /></g><g class="o"><path transform="translate(6,12)" class="S ssv" d="M1028 1377 L1245 1594 L1245 1624 L1028 1407 Z"/><path class="sv7" d="M1028 1377 L1245 1594 L1245 1624 L1028 1407 Z" /></g><g class="o"><path transform="translate(9,18)" class="S ssv" d="M1028 1290 L1085 1347 L1085 1375 L1028 1318 Z"/><path class="sv5" d="M1028 1290 L1085 1347 L1085 1375 L1028 1318 Z" /></g><g class="o"><path transform="translate(5,10)" class="S sfv" d="M1932 1453 L2136 1657 L2136 1671 L1932 1467 Z"/><path class="fv3" d="M1932 1453 L2136 1657 L2136 1671 L1932 1467 Z" /></g><g class="o"><path transform="translate(5,10)" class="S sf" d="M1570 1751 L1520 1801 L1520 1821 L1570 1771 Z"/><path class="f4" d="M1570 1751 L1520 1801 L1520 1821 L1570 1771 Z" /></g><g class="o"><path transform="translate(5,10)" class="S sfh" d="M1814 1753 L1761 1806 L1781 1806 L1834 1753 Z"/><path class="fh3" d="M1814 1753 L1761 1806 L1781 1806 L1834 1753 Z" /></g><g class="o"><path transform="translate(4,8)" class="S sfv" d="M1059 1764 L1278 1983 L1278 2011 L1059 1792 Z"/><path class="fv1" d="M1059 1764 L1278 1983 L1278 2011 L1059 1792 Z" /></g><g class="o"><path transform="translate(7,14)" class="S ssv" d="M1672 1731 L1593 1810 L1593 1836 L1672 1757 Z"/><path class="sv2" d="M1672 1731 L1593 1810 L1593 1836 L1672 1757 Z" /></g><g class="o"><path transform="translate(4,8)" class="S sfv" d="M1578 1888 L1355 2111 L1355 2137 L1578 1914 Z"/><path class="fv5" d="M1578 1888 L1355 2111 L1355 2137 L1578 1914 Z" /></g><g class="o"><path transform="translate(5,10)" class="S sfv" d="M2029 1988 L1932 2085 L1932 2119 L2029 2022 Z"/><path class="fv2" d="M2029 1988 L1932 2085 L1932 2119 L2029 2022 Z" /></g><g class="o"><path transform="translate(9,18)" class="S sfh" d="M1393 1239 L1601 1447 L1629 1447 L1421 1239 Z"/><path class="fh7" d="M1393 1239 L1601 1447 L1629 1447 L1421 1239 Z" /></g><g class="o"><path transform="translate(7,14)" class="S sfh" d="M1396 1489 L1454 1547 L1488 1547 L1430 1489 Z"/><path class="fh5" d="M1396 1489 L1454 1547 L1488 1547 L1430 1489 Z" /></g><g class="o"><path transform="translate(9,18)" class="S sf" d="M1429 1660 L1320 1769 L1320 1777 L1429 1668 Z"/><path class="f3" d="M1429 1660 L1320 1769 L1320 1777 L1429 1668 Z" /></g><g class="o"><path transform="translate(9,18)" class="S sfh" d="M1324 975 L1425 1076 L1437 1076 L1336 975 Z"/><path class="fh3" d="M1324 975 L1425 1076 L1437 1076 L1336 975 Z" /></g><g class="o"><path transform="translate(8,16)" class="S sfv" d="M1928 1376 L2149 1597 L2149 1629 L1928 1408 Z"/><path class="fv4" d="M1928 1376 L2149 1597 L2149 1629 L1928 1408 Z" /></g><g class="o"><path transform="translate(4,8)" class="S sfh" d="M1761 1989 L1637 2113 L1661 2113 L1785 1989 Z"/><path class="fh2" d="M1761 1989 L1637 2113 L1661 2113 L1785 1989 Z" /></g><g class="o"><path transform="translate(8,16)" class="S sfh" d="M2026 1296 L2171 1441 L2189 1441 L2044 1296 Z"/><path class="fh6" d="M2026 1296 L2171 1441 L2189 1441 L2044 1296 Z" /></g><g class="o"><path transform="translate(2,4)" class="S sfh" d="M2026 1702 L2203 1879 L2211 1879 L2034 1702 Z"/><path class="fh6" d="M2026 1702 L2203 1879 L2211 1879 L2034 1702 Z" /></g><g class="o"><path transform="translate(3,6)" class="S sfv" d="M1644 1734 L1879 1969 L1879 1995 L1644 1760 Z"/><path class="fv7" d="M1644 1734 L1879 1969 L1879 1995 L1644 1760 Z" /></g><g class="o"><path transform="translate(8,16)" class="S sfh" d="M1434 1281 L1622 1469 L1630 1469 L1442 1281 Z"/><path class="fh1" d="M1434 1281 L1622 1469 L1630 1469 L1442 1281 Z" /></g><g class="o"><path transform="translate(6,12)" class="S sfh" d="M1811 1443 L1935 1567 L1959 1567 L1835 1443 Z"/><path class="fh6" d="M1811 1443 L1935 1567 L1959 1567 L1835 1443 Z" /></g><g class="o"><path transform="translate(6,12)" class="S sf" d="M1357 1150 L1513 1306 L1523 1306 L1367 1150 Z"/><path class="f2" d="M1357 1150 L1513 1306 L1523 1306 L1367 1150 Z" /></g><g class="o"><path transform="translate(7,14)" class="S sfh" d="M1927 2037 L2028 2138 L2054 2138 L1953 2037 Z"/><path class="fh4" d="M1927 2037 L2028 2138 L2054 2138 L1953 2037 Z" /></g><g class="o"><path transform="translate(3,6)" class="S sfh" d="M1972 960 L2134 1122 L2158 1122 L1996 960 Z"/><path class="fh7" d="M1972 960 L2134 1122 L2158 1122 L1996 960 Z" /></g><g class="o"><path transform="translate(6,12)" class="S sfh" d="M1909 1032 L1774 1167 L1812 1167 L1947 1032 Z"/><path class="fh4" d="M1909 1032 L1774 1167 L1812 1167 L1947 1032 Z" /></g><g class="o"><path transform="translate(9,18)" class="S sfh" d="M1756 1403 L2003 1650 L2031 1650 L1784 1403 Z"/><path class="fh6" d="M1756 1403 L2003 1650 L2031 1650 L1784 1403 Z" /></g><g class="o"><path transform="translate(3,6)" class="S ssv" d="M1419 1175 L1259 1335 L1259 1347 L1419 1187 Z"/><path class="sv3" d="M1419 1175 L1259 1335 L1259 1347 L1419 1187 Z" /></g><g class="o"><path transform="translate(9,18)" class="S sf" d="M1191 1687 L1434 1930 L1434 1948 L1191 1705 Z"/><path class="f2" d="M1191 1687 L1434 1930 L1434 1948 L1191 1705 Z" /></g><g class="o"><path transform="translate(7,14)" class="S sfh" d="M1799 1165 L1926 1292 L1954 1292 L1827 1165 Z"/><path class="fh4" d="M1799 1165 L1926 1292 L1954 1292 L1827 1165 Z" /></g><g class="o"><path transform="translate(4,8)" class="S sfh" d="M1222 1856 L1376 2010 L1394 2010 L1240 1856 Z"/><path class="fh2" d="M1222 1856 L1376 2010 L1394 2010 L1240 1856 Z" /></g><g class="o"><path transform="translate(2,4)" class="S ssh" d="M1817 1036 L1934 1153 L1942 1153 L1825 1036 Z"/><path class="sh5" d="M1817 1036 L1934 1153 L1942 1153 L1825 1036 Z" /></g><g class="o"><path transform="translate(3,6)" class="S sfh" d="M1547 1259 L1680 1392 L1706 1392 L1573 1259 Z"/><path class="fh4" d="M1547 1259 L1680 1392 L1706 1392 L1573 1259 Z" /></g><g class="o"><path transform="translate(8,16)" class="S sfv" d="M1362 1766 L1222 1906 L1222 1914 L1362 1774 Z"/><path class="fv6" d="M1362 1766 L1222 1906 L1222 1914 L1362 1774 Z" /></g><g class="o"><path transform="translate(9,18)" class="S sfv" d="M1274 1200 L1419 1345 L1419 1357 L1274 1212 Z"/><path class="fv5" d="M1274 1200 L1419 1345 L1419 1357 L1274 1212 Z" /></g><g class="o"><path transform="translate(9,18)" class="S sfh" d="M1219 1930 L1432 2143 L1462 2143 L1249 1930 Z"/><path class="fh1" d="M1219 1930 L1432 2143 L1462 2143 L1249 1930 Z" /></g><g class="o"><path transform="translate(2,4)" class="S sf" d="M1405 1532 L1484 1611 L1484 1649 L1405 1570 Z"/><path class="f3" d="M1405 1532 L1484 1611 L1484 1649 L1405 1570 Z" /></g><g class="o"><path transform="translate(8,16)" class="S sfh" d="M1644 1777 L1846 1979 L1864 1979 L1662 1777 Z"/><path class="fh1" d="M1644 1777 L1846 1979 L1864 1979 L1662 1777 Z" /></g><g class="o"><path transform="translate(9,18)" class="S sfv" d="M1950 1464 L2191 1705 L2191 1731 L1950 1490 Z"/><path class="fv6" d="M1950 1464 L2191 1705 L2191 1731 L1950 1490 Z" /></g><g class="o"><path transform="translate(2,4)" class="S sf" d="M996 1203 L1100 1307 L1100 1333 L996 1229 Z"/><path class="f2" d="M996 1203 L1100 1307 L1100 1333 L996 1229 Z" /></g><g class="o"><path transform="translate(9,18)" class="S sfh" d="M1881 1856 L1652 2085 L1682 2085 L1911 1856 Z"/><path class="fh5" d="M1881 1856 L1652 2085 L1682 2085 L1911 1856 Z" /></g><g class="o"><path transform="translate(5,10)" class="S sfh" d="M1128 1614 L1226 1712 L1252 1712 L1154 1614 Z"/><path class="fh4" d="M1128 1614 L1226 1712 L1252 1712 L1154 1614 Z" /></g><g class="o"><path transform="translate(8,16)" class="S sfh" d="M1221 1791 L1059 1953 L1097 1953 L1259 1791 Z"/><path class="fh5" d="M1221 1791 L1059 1953 L1097 1953 L1259 1791 Z" /></g><g class="o"><path transform="translate(8,16)" class="S sfh" d="M1228 1817 L1341 1930 L1377 1930 L1264 1817 Z"/><path class="fh6" d="M1228 1817 L1341 1930 L1377 1930 L1264 1817 Z" /></g><g class="o"><path transform="translate(8,16)" class="S ssv" d="M1248 1315 L1390 1457 L1390 1481 L1248 1339 Z"/><path class="sv6" d="M1248 1315 L1390 1457 L1390 1481 L1248 1339 Z" /></g><g class="o"><path transform="translate(6,12)" class="S sf" d="M1082 1637 L943 1776 L975 1776 L1114 1637 Z"/><path class="f4" d="M1082 1637 L943 1776 L975 1776 L1114 1637 Z" /></g><g class="o"><path transform="translate(4,8)" class="S sf" d="M2034 1561 L2093 1620 L2103 1620 L2044 1561 Z"/><path class="f5" d="M2034 1561 L2093 1620 L2103 1620 L2044 1561 Z" /></g><g class="o"><path transform="translate(6,12)" class="S sf" d="M1877 1744 L2113 1980 L2113 2006 L1877 1770 Z"/><path class="f7" d="M1877 1744 L2113 1980 L2113 2006 L1877 1770 Z" /></g><g class="o"><path transform="translate(2,4)" class="S sfh" d="M1014 951 L964 1001 L994 1001 L1044 951 Z"/><path class="fh5" d="M1014 951 L964 1001 L994 1001 L1044 951 Z" /></g><g class="o"><path transform="translate(5,10)" class="S ssh" d="M1030 1240 L954 1316 L966 1316 L1042 1240 Z"/><path class="sh4" d="M1030 1240 L954 1316 L966 1316 L1042 1240 Z" /></g><g class="o"><path transform="translate(5,10)" class="S sfh" d="M1000 1204 L1071 1275 L1107 1275 L1036 1204 Z"/><path class="fh2" d="M1000 1204 L1071 1275 L1107 1275 L1036 1204 Z" /></g><g class="o"><path transform="translate(3,6)" class="S sfh" d="M1263 1045 L1378 1160 L1390 1160 L1275 1045 Z"/><path class="fh6" d="M1263 1045 L1378 1160 L1390 1160 L1275 1045 Z" /></g><g class="o"><path transform="translate(5,10)" class="S ssh" d="M1517 1850 L1723 2056 L1743 2056 L1537 1850 Z"/><path class="sh2" d="M1517 1850 L1723 2056 L1743 2056 L1537 1850 Z" /></g><g class="o"><path transform="translate(5,10)" class="S sfh" d="M1381 1386 L1303 1464 L1333 1464 L1411 1386 Z"/><path class="fh5" d="M1381 1386 L1303 1464 L1333 1464 L1411 1386 Z" /></g><g class="o"><path transform="translate(7,14)" class="S ss" d="M2022 1383 L2254 1615 L2254 1653 L2022 1421 Z"/><path class="s1" d="M2022 1383 L2254 1615 L2254 1653 L2022 1421 Z" /></g><g class="o"><path transform="translate(6,12)" class="S sfv" d="M1348 1535 L1257 1626 L1257 1652 L1348 1561 Z"/><path class="fv1" d="M1348 1535 L1257 1626 L1257 1652 L1348 1561 Z" /></g><g class="o"><path transform="translate(6,12)" class="S sfh" d="M1845 1494 L1624 1715 L1642 1715 L1863 1494 Z"/><path class="fh3" d="M1845 1494 L1624 1715 L1642 1715 L1863 1494 Z" /></g><g class="o"><path transform="translate(4,8)" class="S sfv" d="M1910 1828 L2042 1960 L2042 1994 L1910 1862 Z"/><path class="fv6" d="M1910 1828 L2042 1960 L2042 1994 L1910 1862 Z" /></g><g class="o"><path transform="translate(2,4)" class="S sf" d="M1393 1473 L1231 1635 L1231 1645 L1393 1483 Z"/><path class="f7" d="M1393 1473 L1231 1635 L1231 1645 L1393 1483 Z" /></g><g class="o"><path transform="translate(7,14)" class="S sfv" d="M1813 1618 L1922 1727 L1922 1737 L1813 1628 Z"/><path class="fv2" d="M1813 1618 L1922 1727 L1922 1737 L1813 1628 Z" /></g><g class="o"><path transform="translate(5,10)" class="S sfh" d="M1556 1053 L1756 1253 L1764 1253 L1564 1053 Z"/><path class="fh5" d="M1556 1053 L1756 1253 L1764 1253 L1564 1053 Z" /></g><g class="o"><path transform="translate(7,14)" class="S ssv" d="M1959 1598 L1810 1747 L1810 1783 L1959 1634 Z"/><path class="sv4" d="M1959 1598 L1810 1747 L1810 1783 L1959 1634 Z" /></g><g class="o"><path transform="translate(9,18)" class="S sfv" d="M1912 989 L1776 1125 L1776 1137 L1912 1001 Z"/><path class="fv6" d="M1912 989 L1776 1125 L1776 1137 L1912 1001 Z" /></g><g class="o"><path transform="translate(2,4)" class="S sfh" d="M1461 1981 L1315 2127 L1327 2127 L1473 1981 Z"/><path class="fh4" d="M1461 1981 L1315 2127 L1327 2127 L1473 1981 Z" /></g><g class="o"><path transform="translate(6,12)" class="S sf" d="M1390 1045 L1187 1248 L1187 1280 L1390 1077 Z"/><path class="f4" d="M1390 1045 L1187 1248 L1187 1280 L1390 1077 Z" /></g><g class="o"><path transform="translate(4,8)" class="S sfv" d="M2028 1943 L1892 2079 L1892 2105 L2028 1969 Z"/><path class="fv2" d="M2028 1943 L1892 2079 L1892 2105 L2028 1969 Z" /></g><g class="o"><path transform="translate(8,16)" class="S sfv" d="M1370 1778 L1185 1963 L1185 1989 L1370 1804 Z"/><path class="fv7" d="M1370 1778 L1185 1963 L1185 1989 L1370 1804 Z" /></g><g class="o"><path transform="translate(3,6)" class="S ssh" d="M1338 1358 L1441 1461 L1463 1461 L1360 1358 Z"/><path class="sh3" d="M1338 1358 L1441 1461 L1463 1461 L1360 1358 Z" /></g><g class="o"><path transform="translate(6,12)" class="S ssh" d="M1742 1627 L1662 1707 L1694 1707 L1774 1627 Z"/><path class="sh1" d="M1742 1627 L1662 1707 L1694 1707 L1774 1627 Z" /></g><g class="o"><path transform="translate(7,14)" class="S sfv" d="M1847 1588 L2076 1817 L2076 1845 L1847 1616 Z"/><path class="fv4" d="M1847 1588 L2076 1817 L2076 1845 L1847 1616 Z" /></g><g class="o"><path transform="translate(9,18)" class="S sf" d="M1522 950 L1471 1001 L1471 1037 L1522 986 Z"/><path class="f2" d="M1522 950 L1471 1001 L1471 1037 L1522 986 Z" /></g><g class="o"><path transform="translate(3,6)" class="S ss" d="M1508 1554 L1711 1757 L1711 1773 L1508 1570 Z"/><path class="s3" d="M1508 1554 L1711 1757 L1711 1773 L1508 1570 Z" /></g><g class="o"><path transform="translate(8,16)" class="S sfh" d="M1257 1876 L1045 2088 L1063 2088 L1275 1876 Z"/><path class="fh5" d="M1257 1876 L1045 2088 L1063 2088 L1275 1876 Z" /></g><g class="o"><path transform="translate(4,8)" class="S sfh" d="M1253 1487 L1332 1566 L1366 1566 L1287 1487 Z"/><path class="fh5" d="M1253 1487 L1332 1566 L1366 1566 L1287 1487 Z" /></g><g class="o"><path transform="translate(8,16)" class="S sfv" d="M974 1031 L1141 1198 L1141 1234 L974 1067 Z"/><path class="fv1" d="M974 1031 L1141 1198 L1141 1234 L974 1067 Z" /></g><g class="o"><path transform="translate(8,16)" class="S sfv" d="M1322 2044 L1483 2205 L1483 2215 L1322 2054 Z"/><path class="fv2" d="M1322 2044 L1483 2205 L1483 2215 L1322 2054 Z" /></g><g class="o"><path transform="translate(4,8)" class="S sfv" d="M1282 1056 L1418 1192 L1418 1218 L1282 1082 Z"/><path class="fv6" d="M1282 1056 L1418 1192 L1418 1218 L1282 1082 Z" /></g><g class="o"><path transform="translate(8,16)" class="S sfv" d="M1355 960 L1171 1144 L1171 1158 L1355 974 Z"/><path class="fv4" d="M1355 960 L1171 1144 L1171 1158 L1355 974 Z" /></g><g class="o"><path transform="translate(9,18)" class="S ssv" d="M1842 1824 L1994 1976 L1994 1990 L1842 1838 Z"/><path class="sv5" d="M1842 1824 L1994 1976 L1994 1990 L1842 1838 Z" /></g><g class="o"><path transform="translate(6,12)" class="S sfv" d="M1773 1843 L1907 1977 L1907 1991 L1773 1857 Z"/><path class="fv1" d="M1773 1843 L1907 1977 L1907 1991 L1773 1857 Z" /></g><g class="o"><path transform="translate(5,10)" class="S sfv" d="M1456 1407 L1306 1557 L1306 1569 L1456 1419 Z"/><path class="fv4" d="M1456 1407 L1306 1557 L1306 1569 L1456 1419 Z" /></g><g class="o"><path transform="translate(4,8)" class="S ss" d="M1844 2020 L1931 2107 L1963 2107 L1876 2020 Z"/><path class="s7" d="M1844 2020 L1931 2107 L1963 2107 L1876 2020 Z" /></g><g class="o"><path transform="translate(2,4)" class="S ssh" d="M1846 954 L2039 1147 L2077 1147 L1884 954 Z"/><path class="sh6" d="M1846 954 L2039 1147 L2077 1147 L1884 954 Z" /></g><g class="o"><path transform="translate(9,18)" class="S sf" d="M1314 1997 L1413 2096 L1413 2108 L1314 2009 Z"/><path class="f7" d="M1314 1997 L1413 2096 L1413 2108 L1314 2009 Z" /></g><g class="o"><path transform="translate(6,12)" class="S ssh" d="M1184 1373 L1280 1469 L1292 1469 L1196 1373 Z"/><path class="sh1" d="M1184 1373 L1280 1469 L1292 1469 L1196 1373 Z" /></g><g class="o"><path transform="translate(8,16)" class="S sfh" d="M1526 1507 L1635 1616 L1649 1616 L1540 1507 Z"/><path class="fh3" d="M1526 1507 L1635 1616 L1649 1616 L1540 1507 Z" /></g><g class="o"><path transform="translate(3,6)" class="S ssh" d="M1382 1586 L1252 1716 L1264 1716 L1394 1586 Z"/><path class="sh3" d="M1382 1586 L1252 1716 L1264 1716 L1394 1586 Z" /></g><g class="o"><path transform="translate(7,14)" class="S ssv" d="M1289 1400 L1134 1555 L1134 1577 L1289 1422 Z"/><path class="sv3" d="M1289 1400 L1134 1555 L1134 1577 L1289 1422 Z" /></g><g class="o"><path transform="translate(3,6)" class="S sfh" d="M1701 1320 L1556 1465 L1576 1465 L1721 1320 Z"/><path class="fh3" d="M1701 1320 L1556 1465 L1576 1465 L1721 1320 Z" /></g><g class="o"><path transform="translate(3,6)" class="S sfh" d="M2006 1364 L1803 1567 L1829 1567 L2032 1364 Z"/><path class="fh4" d="M2006 1364 L1803 1567 L1829 1567 L2032 1364 Z" /></g><g class="o"><path transform="translate(6,12)" class="S sfv" d="M1640 1113 L1834 1307 L1834 1335 L1640 1141 Z"/><path class="fv3" d="M1640 1113 L1834 1307 L1834 1335 L1640 1141 Z" /></g><g class="o"><path transform="translate(7,14)" class="S ssv" d="M1560 1861 L1389 2032 L1389 2046 L1560 1875 Z"/><path class="sv5" d="M1560 1861 L1389 2032 L1389 2046 L1560 1875 Z" /></g><g class="o"><path transform="translate(7,14)" class="S sfv" d="M1994 1091 L2114 1211 L2114 1231 L1994 1111 Z"/><path class="fv4" d="M1994 1091 L2114 1211 L2114 1231 L1994 1111 Z" /></g><g class="o"><path transform="translate(6,12)" class="S sfv" d="M1689 1205 L1633 1261 L1633 1269 L1689 1213 Z"/><path class="fv1" d="M1689 1205 L1633 1261 L1633 1269 L1689 1213 Z" /></g><g class="o"><path transform="translate(5,10)" class="S sf" d="M1501 1455 L1650 1604 L1650 1636 L1501 1487 Z"/><path class="f6" d="M1501 1455 L1650 1604 L1650 1636 L1501 1487 Z" /></g><g class="o"><path transform="translate(7,14)" class="S ssh" d="M1822 1020 L1964 1162 L2000 1162 L1858 1020 Z"/><path class="sh6" d="M1822 1020 L1964 1162 L2000 1162 L1858 1020 Z" /></g></g><use href="#slashes" transform-origin="1500 1500" transform="rotate(180) scale(2)"/></g><rect x="1080" y="1080" width="840" height="840" stroke-width="10" class="o s6" /><use href="#slashes" transform-origin="1500 1500" transform="scale(.6)"/><use href="#slashes" transform-origin="1500 1500" transform="rotate(180) scale(.6)"/></svg>