<svg xmlns="http://www.w3.org/2000/svg" viewBox="750 750 1500 1500"><style>/*<![CDATA[*/svg{background:rgb(28,130,235);max-width:100vw;max-height:100vh}path{stroke-width:4}.o{opacity:.75}.S{opacity:.4}.sf{stroke:none;fill:black}.sfh{stroke:none;fill:url(#hs)}.sfv{stroke:none;fill:url(#vs)}.ss{stroke:black;fill:none}.ssh{stroke:url(#hs);fill:none}.ssv{stroke:url(#vs);fill:none}.s1{fill:none;stroke:rgb(254,240,0)}.f1{stroke:none;fill:rgb(254,240,0)}.sh1{fill:none;stroke:url(#h1)}.fh1{stroke:none;fill:url(#h1)}.sv1{fill:none;stroke:url(#v1)}.fv1{stroke:none;fill:url(#v1)}.s2{fill:none;stroke:rgb(34,34,34)}.f2{stroke:none;fill:rgb(34,34,34)}.sh2{fill:none;stroke:url(#h2)}.fh2{stroke:none;fill:url(#h2)}.sv2{fill:none;stroke:url(#v2)}.fv2{stroke:none;fill:url(#v2)}.s3{fill:none;stroke:rgb(254,247,238)}.f3{stroke:none;fill:rgb(254,247,238)}.sh3{fill:none;stroke:url(#h3)}.fh3{stroke:none;fill:url(#h3)}.sv3{fill:none;stroke:url(#v3)}.fv3{stroke:none;fill:url(#v3)}.s4{fill:none;stroke:rgb(25,12,40)}.f4{stroke:none;fill:rgb(25,12,40)}.sh4{fill:none;stroke:url(#h4)}.fh4{stroke:none;fill:url(#h4)}.sv4{fill:none;stroke:url(#v4)}.fv4{stroke:none;fill:url(#v4)}.s5{fill:none;stroke:rgb(251,0,2)}.f5{stroke:none;fill:rgb(251,0,2)}.sh5{fill:none;stroke:url(#h5)}.fh5{stroke:none;fill:url(#h5)}.sv5{fill:none;stroke:url(#v5)}.fv5{stroke:none;fill:url(#v5)}.s6{fill:none;stroke:rgb(255,255,255)}.f6{stroke:none;fill:rgb(255,255,255)}.sh6{fill:none;stroke:url(#h6)}.fh6{stroke:none;fill:url(#h6)}.sv6{fill:none;stroke:url(#v6)}.fv6{stroke:none;fill:url(#v6)}.s7{fill:none;stroke:rgb(255,0,0)}.f7{stroke:none;fill:rgb(255,0,0)}.sh7{fill:none;stroke:url(#h7)}.fh7{stroke:none;fill:url(#h7)}.sv7{fill:none;stroke:url(#v7)}.fv7{stroke:none;fill:url(#v7)}/*]]>*/</style><defs><linearGradient gradientTransform="rotate(90)" id="hs"><stop offset="20%" stop-color="#000" /><stop offset="95%" stop-color="rgba(0, 0, 0, 0)" /></linearGradient><linearGradient id="vs"><stop offset="20%" stop-color="#000" /><stop offset="95%" stop-color="rgba(0, 0, 0, 0)" /></linearGradient><linearGradient gradientTransform="rotate(90)" id="h1"><stop offset="20%" stop-color="rgba(254,240,0,1)" /><stop offset="95%" stop-color="rgba(254,240,0,0)" /></linearGradient><linearGradient id="v1"><stop offset="20%" stop-color="rgba(254,240,0,1)" /><stop offset="95%" stop-color="rgba(254,240,0,0)" /></linearGradient><linearGradient gradientTransform="rotate(90)" id="h2"><stop offset="20%" stop-color="rgba(34,34,34,1)" /><stop offset="95%" stop-color="rgba(34,34,34,0)" /></linearGradient><linearGradient id="v2"><stop offset="20%" stop-color="rgba(34,34,34,1)" /><stop offset="95%" stop-color="rgba(34,34,34,0)" /></linearGradient><linearGradient gradientTransform="rotate(90)" id="h3"><stop offset="20%" stop-color="rgba(254,247,238,1)" /><stop offset="95%" stop-color="rgba(254,247,238,0)" /></linearGradient><linearGradient id="v3"><stop offset="20%" stop-color="rgba(254,247,238,1)" /><stop offset="95%" stop-color="rgba(254,247,238,0)" /></linearGradient><linearGradient gradientTransform="rotate(90)" id="h4"><stop offset="20%" stop-color="rgba(25,12,40,1)" /><stop offset="95%" stop-color="rgba(25,12,40,0)" /></linearGradient><linearGradient id="v4"><stop offset="20%" stop-color="rgba(25,12,40,1)" /><stop offset="95%" stop-color="rgba(25,12,40,0)" /></linearGradient><linearGradient gradientTransform="rotate(90)" id="h5"><stop offset="20%" stop-color="rgba(251,0,2,1)" /><stop offset="95%" stop-color="rgba(251,0,2,0)" /></linearGradient><linearGradient id="v5"><stop offset="20%" stop-color="rgba(251,0,2,1)" /><stop offset="95%" stop-color="rgba(251,0,2,0)" /></linearGradient><linearGradient gradientTransform="rotate(90)" id="h6"><stop offset="20%" stop-color="rgba(255,255,255,1)" /><stop offset="95%" stop-color="rgba(255,255,255,0)" /></linearGradient><linearGradient id="v6"><stop offset="20%" stop-color="rgba(255,255,255,1)" /><stop offset="95%" stop-color="rgba(255,255,255,0)" /></linearGradient><linearGradient gradientTransform="rotate(90)" id="h7"><stop offset="20%" stop-color="rgba(255,0,0,1)" /><stop offset="95%" stop-color="rgba(255,0,0,0)" /></linearGradient><linearGradient id="v7"><stop offset="20%" stop-color="rgba(255,0,0,1)" /><stop offset="95%" stop-color="rgba(255,0,0,0)" /></linearGradient></defs><g transform-origin="1500 1500" transform="scale(2)" opacity=".2"><g id="slashes"><g class="o"><path transform="translate(6,12)" class="S ssv" d="M1678 1868 L1384 1574 L1384 1582 L1678 1876 Z"/><path class="sv4" d="M1678 1868 L1384 1574 L1384 1582 L1678 1876 Z" /></g><g class="o"><path transform="translate(9,18)" class="S ssv" d="M1218 1626 L1086 1494 L1086 1606 L1218 1738 Z"/><path class="sv3" d="M1218 1626 L1086 1494 L1086 1606 L1218 1738 Z" /></g><g class="o"><path transform="translate(6,12)" class="S sfh" d="M1518 1751 L1306 1539 L1410 1539 L1622 1751 Z"/><path class="fh5" d="M1518 1751 L1306 1539 L1410 1539 L1622 1751 Z" /></g><g class="o"><path transform="translate(8,16)" class="S sfv" d="M1441 1523 L1281 1683 L1281 1703 L1441 1543 Z"/><path class="fv5" d="M1441 1523 L1281 1683 L1281 1703 L1441 1543 Z" /></g><g class="o"><path transform="translate(2,4)" class="S sfv" d="M1537 1400 L1417 1280 L1417 1290 L1537 1410 Z"/><path class="fv2" d="M1537 1400 L1417 1280 L1417 1290 L1537 1410 Z" /></g><g class="o"><path transform="translate(3,6)" class="S sfh" d="M1479 1054 L1257 832 L1269 832 L1491 1054 Z"/><path class="fh1" d="M1479 1054 L1257 832 L1269 832 L1491 1054 Z" /></g><g class="o"><path transform="translate(3,6)" class="S sfh" d="M1680 1637 L1587 1544 L1667 1544 L1760 1637 Z"/><path class="fh7" d="M1680 1637 L1587 1544 L1667 1544 L1760 1637 Z" /></g><g class="o"><path transform="translate(9,18)" class="S sfv" d="M1652 2018 L1542 1908 L1542 1940 L1652 2050 Z"/><path class="fv4" d="M1652 2018 L1542 1908 L1542 1940 L1652 2050 Z" /></g><g class="o"><path transform="translate(6,12)" class="S sfv" d="M1645 1883 L1531 1769 L1531 1849 L1645 1963 Z"/><path class="fv3" d="M1645 1883 L1531 1769 L1531 1849 L1645 1963 Z" /></g><g class="o"><path transform="translate(5,10)" class="S ssv" d="M1011 1447 L929 1365 L929 1387 L1011 1469 Z"/><path class="sv3" d="M1011 1447 L929 1365 L929 1387 L1011 1469 Z" /></g><g class="o"><path transform="translate(6,12)" class="S sfh" d="M1297 1202 L1188 1311 L1236 1311 L1345 1202 Z"/><path class="fh5" d="M1297 1202 L1188 1311 L1236 1311 L1345 1202 Z" /></g><g class="o"><path transform="translate(8,16)" class="S sfh" d="M1899 1279 L1725 1105 L1789 1105 L1963 1279 Z"/><path class="fh2" d="M1899 1279 L1725 1105 L1789 1105 L1963 1279 Z" /></g><g class="o"><path transform="translate(8,16)" class="S sfv" d="M1800 1460 L1695 1355 L1695 1387 L1800 1492 Z"/><path class="fv2" d="M1800 1460 L1695 1355 L1695 1387 L1800 1492 Z" /></g><g class="o"><path transform="translate(5,10)" class="S sf" d="M1879 1074 L1719 1234 L1751 1234 L1911 1074 Z"/><path class="f4" d="M1879 1074 L1719 1234 L1751 1234 L1911 1074 Z" /></g><g class="o"><path transform="translate(4,8)" class="S sfv" d="M1928 1079 L1864 1015 L1864 1033 L1928 1097 Z"/><path class="fv7" d="M1928 1079 L1864 1015 L1864 1033 L1928 1097 Z" /></g><g class="o"><path transform="translate(5,10)" class="S sfv" d="M2045 1004 L1319 278 L1319 334 L2045 1060 Z"/><path class="fv6" d="M2045 1004 L1319 278 L1319 334 L2045 1060 Z" /></g><g class="o"><path transform="translate(3,6)" class="S sfv" d="M1850 1674 L1601 1923 L1601 1939 L1850 1690 Z"/><path class="fv5" d="M1850 1674 L1601 1923 L1601 1939 L1850 1690 Z" /></g><g class="o"><path transform="translate(9,18)" class="S ssh" d="M1040 1190 L939 1291 L1083 1291 L1184 1190 Z"/><path class="sh2" d="M1040 1190 L939 1291 L1083 1291 L1184 1190 Z" /></g><g class="o"><path transform="translate(5,10)" class="S sfv" d="M1496 961 L1208 673 L1208 785 L1496 1073 Z"/><path class="fv7" d="M1496 961 L1208 673 L1208 785 L1496 1073 Z" /></g><g class="o"><path transform="translate(7,14)" class="S sfh" d="M1984 2037 L1261 2760 L1279 2760 L2002 2037 Z"/><path class="fh4" d="M1984 2037 L1261 2760 L1279 2760 L2002 2037 Z" /></g><g class="o"><path transform="translate(2,4)" class="S sf" d="M1091 1538 L1012 1617 L1030 1617 L1109 1538 Z"/><path class="f1" d="M1091 1538 L1012 1617 L1030 1617 L1109 1538 Z" /></g><g class="o"><path transform="translate(4,8)" class="S sfv" d="M1946 1096 L1821 971 L1821 1075 L1946 1200 Z"/><path class="fv4" d="M1946 1096 L1821 971 L1821 1075 L1946 1200 Z" /></g><g class="o"><path transform="translate(2,4)" class="S ssv" d="M1535 941 L824 230 L824 252 L1535 963 Z"/><path class="sv2" d="M1535 941 L824 230 L824 252 L1535 963 Z" /></g><g class="o"><path transform="translate(9,18)" class="S ssv" d="M1992 1274 L1743 1523 L1743 1549 L1992 1300 Z"/><path class="sv1" d="M1992 1274 L1743 1523 L1743 1549 L1992 1300 Z" /></g><g class="o"><path transform="translate(8,16)" class="S sfv" d="M1391 1667 L1338 1720 L1338 1738 L1391 1685 Z"/><path class="fv2" d="M1391 1667 L1338 1720 L1338 1738 L1391 1685 Z" /></g><g class="o"><path transform="translate(5,10)" class="S sfh" d="M1788 1457 L1678 1567 L1696 1567 L1806 1457 Z"/><path class="fh7" d="M1788 1457 L1678 1567 L1696 1567 L1806 1457 Z" /></g><g class="o"><path transform="translate(3,6)" class="S ssv" d="M969 1094 L851 976 L851 1104 L969 1222 Z"/><path class="sv3" d="M969 1094 L851 976 L851 1104 L969 1222 Z" /></g><g class="o"><path transform="translate(3,6)" class="S sfh" d="M2027 1177 L1851 1001 L1879 1001 L2055 1177 Z"/><path class="fh1" d="M2027 1177 L1851 1001 L1879 1001 L2055 1177 Z" /></g><g class="o"><path transform="translate(6,12)" class="S sfv" d="M1955 1336 L1710 1581 L1710 1593 L1955 1348 Z"/><path class="fv4" d="M1955 1336 L1710 1581 L1710 1593 L1955 1348 Z" /></g><g class="o"><path transform="translate(8,16)" class="S sfh" d="M1874 1105 L1568 799 L1578 799 L1884 1105 Z"/><path class="fh7" d="M1874 1105 L1568 799 L1578 799 L1884 1105 Z" /></g><g class="o"><path transform="translate(2,4)" class="S sfh" d="M1403 2007 L1337 1941 L1355 1941 L1421 2007 Z"/><path class="fh7" d="M1403 2007 L1337 1941 L1355 1941 L1421 2007 Z" /></g><g class="o"><path transform="translate(2,4)" class="S sfh" d="M1085 1386 L953 1518 L963 1518 L1095 1386 Z"/><path class="fh3" d="M1085 1386 L953 1518 L963 1518 L1095 1386 Z" /></g><g class="o"><path transform="translate(5,10)" class="S sfv" d="M1240 1696 L886 1342 L886 1414 L1240 1768 Z"/><path class="fv4" d="M1240 1696 L886 1342 L886 1414 L1240 1768 Z" /></g><g class="o"><path transform="translate(4,8)" class="S ss" d="M1672 1016 L1498 1190 L1498 1286 L1672 1112 Z"/><path class="s6" d="M1672 1016 L1498 1190 L1498 1286 L1672 1112 Z" /></g><g class="o"><path transform="translate(6,12)" class="S sfv" d="M1321 1695 L1073 1447 L1073 1455 L1321 1703 Z"/><path class="fv2" d="M1321 1695 L1073 1447 L1073 1455 L1321 1703 Z" /></g><g class="o"><path transform="translate(4,8)" class="S sfv" d="M2049 902 L1650 503 L1650 639 L2049 1038 Z"/><path class="fv4" d="M2049 902 L1650 503 L1650 639 L2049 1038 Z" /></g><g class="o"><path transform="translate(2,4)" class="S sfv" d="M1539 1272 L1481 1330 L1481 1360 L1539 1302 Z"/><path class="fv7" d="M1539 1272 L1481 1330 L1481 1360 L1539 1302 Z" /></g><g class="o"><path transform="translate(9,18)" class="S sfh" d="M1321 2019 L949 1647 L1069 1647 L1441 2019 Z"/><path class="fh5" d="M1321 2019 L949 1647 L1069 1647 L1441 2019 Z" /></g><g class="o"><path transform="translate(8,16)" class="S sfv" d="M1115 1036 L979 900 L979 924 L1115 1060 Z"/><path class="fv1" d="M1115 1036 L979 900 L979 924 L1115 1060 Z" /></g><g class="o"><path transform="translate(3,6)" class="S ssv" d="M1459 1579 L1241 1797 L1241 1861 L1459 1643 Z"/><path class="sv6" d="M1459 1579 L1241 1797 L1241 1861 L1459 1643 Z" /></g><g class="o"><path transform="translate(2,4)" class="S sfv" d="M962 1025 L773 836 L773 864 L962 1053 Z"/><path class="fv4" d="M962 1025 L773 836 L773 864 L962 1053 Z" /></g><g class="o"><path transform="translate(5,10)" class="S sfv" d="M1523 1328 L1317 1534 L1317 1614 L1523 1408 Z"/><path class="fv7" d="M1523 1328 L1317 1534 L1317 1614 L1523 1408 Z" /></g><g class="o"><path transform="translate(2,4)" class="S ssh" d="M1936 1314 L1860 1238 L1892 1238 L1968 1314 Z"/><path class="sh4" d="M1936 1314 L1860 1238 L1892 1238 L1968 1314 Z" /></g><g class="o"><path transform="translate(6,12)" class="S sfv" d="M970 1180 L761 971 L761 1005 L970 1214 Z"/><path class="fv3" d="M970 1180 L761 971 L761 1005 L970 1214 Z" /></g><g class="o"><path transform="translate(4,8)" class="S ssh" d="M1184 2044 L476 1336 L490 1336 L1198 2044 Z"/><path class="sh3" d="M1184 2044 L476 1336 L490 1336 L1198 2044 Z" /></g><g class="o"><path transform="translate(7,14)" class="S sfh" d="M1784 1383 L1544 1623 L1632 1623 L1872 1383 Z"/><path class="fh7" d="M1784 1383 L1544 1623 L1632 1623 L1872 1383 Z" /></g><g class="o"><path transform="translate(9,18)" class="S sf" d="M1941 1166 L1858 1083 L1858 1219 L1941 1302 Z"/><path class="f5" d="M1941 1166 L1858 1083 L1858 1219 L1941 1302 Z" /></g><g class="o"><path transform="translate(5,10)" class="S sf" d="M1177 979 L996 798 L1034 798 L1215 979 Z"/><path class="f7" d="M1177 979 L996 798 L1034 798 L1215 979 Z" /></g><g class="o"><path transform="translate(7,14)" class="S sfh" d="M1272 1892 L1083 1703 L1203 1703 L1392 1892 Z"/><path class="fh3" d="M1272 1892 L1083 1703 L1203 1703 L1392 1892 Z" /></g><g class="o"><path transform="translate(9,18)" class="S sfv" d="M1929 1508 L1716 1721 L1716 1809 L1929 1596 Z"/><path class="fv4" d="M1929 1508 L1716 1721 L1716 1809 L1929 1596 Z" /></g><g class="o"><path transform="translate(9,18)" class="S sfv" d="M1960 1485 L1555 1890 L1555 1994 L1960 1589 Z"/><path class="fv3" d="M1960 1485 L1555 1890 L1555 1994 L1960 1589 Z" /></g><g class="o"><path transform="translate(7,14)" class="S sfv" d="M1911 1389 L1672 1628 L1672 1662 L1911 1423 Z"/><path class="fv1" d="M1911 1389 L1672 1628 L1672 1662 L1911 1423 Z" /></g><g class="o"><path transform="translate(9,18)" class="S ssv" d="M1251 1286 L1047 1082 L1047 1090 L1251 1294 Z"/><path class="sv3" d="M1251 1286 L1047 1082 L1047 1090 L1251 1294 Z" /></g><g class="o"><path transform="translate(5,10)" class="S sfv" d="M1122 1764 L995 1637 L995 1665 L1122 1792 Z"/><path class="fv5" d="M1122 1764 L995 1637 L995 1665 L1122 1792 Z" /></g><g class="o"><path transform="translate(5,10)" class="S sf" d="M1357 2020 L1200 2177 L1216 2177 L1373 2020 Z"/><path class="f7" d="M1357 2020 L1200 2177 L1216 2177 L1373 2020 Z" /></g><g class="o"><path transform="translate(8,16)" class="S sfh" d="M1501 977 L1278 1200 L1414 1200 L1637 977 Z"/><path class="fh1" d="M1501 977 L1278 1200 L1414 1200 L1637 977 Z" /></g><g class="o"><path transform="translate(4,8)" class="S sfh" d="M1285 1977 L1044 1736 L1188 1736 L1429 1977 Z"/><path class="fh1" d="M1285 1977 L1044 1736 L1188 1736 L1429 1977 Z" /></g><g class="o"><path transform="translate(4,8)" class="S sf" d="M1986 2000 L1783 1797 L1807 1797 L2010 2000 Z"/><path class="f5" d="M1986 2000 L1783 1797 L1807 1797 L2010 2000 Z" /></g><g class="o"><path transform="translate(7,14)" class="S sf" d="M957 1132 L758 933 L792 933 L991 1132 Z"/><path class="f3" d="M957 1132 L758 933 L792 933 L991 1132 Z" /></g><g class="o"><path transform="translate(8,16)" class="S sfv" d="M1264 1309 L1165 1210 L1165 1242 L1264 1341 Z"/><path class="fv7" d="M1264 1309 L1165 1210 L1165 1242 L1264 1341 Z" /></g><g class="o"><path transform="translate(9,18)" class="S sfh" d="M1262 1324 L863 1723 L895 1723 L1294 1324 Z"/><path class="fh7" d="M1262 1324 L863 1723 L895 1723 L1294 1324 Z" /></g><g class="o"><path transform="translate(7,14)" class="S ssh" d="M1818 1100 L1590 1328 L1734 1328 L1962 1100 Z"/><path class="sh2" d="M1818 1100 L1590 1328 L1734 1328 L1962 1100 Z" /></g><g class="o"><path transform="translate(8,16)" class="S sfh" d="M1093 998 L924 1167 L932 1167 L1101 998 Z"/><path class="fh6" d="M1093 998 L924 1167 L932 1167 L1101 998 Z" /></g><g class="o"><path transform="translate(5,10)" class="S sf" d="M1890 1248 L1739 1097 L1739 1135 L1890 1286 Z"/><path class="f6" d="M1890 1248 L1739 1097 L1739 1135 L1890 1286 Z" /></g><g class="o"><path transform="translate(9,18)" class="S sfh" d="M1312 1100 L1168 1244 L1240 1244 L1384 1100 Z"/><path class="fh4" d="M1312 1100 L1168 1244 L1240 1244 L1384 1100 Z" /></g><g class="o"><path transform="translate(3,6)" class="S sf" d="M1218 1755 L1136 1837 L1136 1877 L1218 1795 Z"/><path class="f2" d="M1218 1755 L1136 1837 L1136 1877 L1218 1795 Z" /></g><g class="o"><path transform="translate(4,8)" class="S sfh" d="M1047 1945 L933 2059 L1029 2059 L1143 1945 Z"/><path class="fh6" d="M1047 1945 L933 2059 L1029 2059 L1143 1945 Z" /></g><g class="o"><path transform="translate(6,12)" class="S sfh" d="M1096 1579 L715 1960 L803 1960 L1184 1579 Z"/><path class="fh7" d="M1096 1579 L715 1960 L803 1960 L1184 1579 Z" /></g><g class="o"><path transform="translate(6,12)" class="S sf" d="M1495 945 L1394 1046 L1394 1076 L1495 975 Z"/><path class="f6" d="M1495 945 L1394 1046 L1394 1076 L1495 975 Z" /></g><g class="o"><path transform="translate(6,12)" class="S sfh" d="M1139 1575 L924 1790 L956 1790 L1171 1575 Z"/><path class="fh7" d="M1139 1575 L924 1790 L956 1790 L1171 1575 Z" /></g><g class="o"><path transform="translate(3,6)" class="S sfh" d="M1458 1090 L1391 1023 L1479 1023 L1546 1090 Z"/><path class="fh1" d="M1458 1090 L1391 1023 L1479 1023 L1546 1090 Z" /></g><g class="o"><path transform="translate(9,18)" class="S sfv" d="M1077 1468 L931 1614 L931 1670 L1077 1524 Z"/><path class="fv3" d="M1077 1468 L931 1614 L931 1670 L1077 1524 Z" /></g><g class="o"><path transform="translate(9,18)" class="S sfh" d="M1284 1591 L1063 1370 L1119 1370 L1340 1591 Z"/><path class="fh6" d="M1284 1591 L1063 1370 L1119 1370 L1340 1591 Z" /></g><g class="o"><path transform="translate(7,14)" class="S ssh" d="M1547 1206 L1477 1136 L1589 1136 L1659 1206 Z"/><path class="sh5" d="M1547 1206 L1477 1136 L1589 1136 L1659 1206 Z" /></g><g class="o"><path transform="translate(4,8)" class="S sfv" d="M1562 1895 L1439 2018 L1439 2098 L1562 1975 Z"/><path class="fv1" d="M1562 1895 L1439 2018 L1439 2098 L1562 1975 Z" /></g><g class="o"><path transform="translate(8,16)" class="S sfh" d="M1995 1371 L1916 1450 L1928 1450 L2007 1371 Z"/><path class="fh5" d="M1995 1371 L1916 1450 L1928 1450 L2007 1371 Z" /></g><g class="o"><path transform="translate(3,6)" class="S sfv" d="M1186 1805 L1027 1964 L1027 2068 L1186 1909 Z"/><path class="fv1" d="M1186 1805 L1027 1964 L1027 2068 L1186 1909 Z" /></g><g class="o"><path transform="translate(9,18)" class="S ssh" d="M1739 1180 L1355 796 L1435 796 L1819 1180 Z"/><path class="sh3" d="M1739 1180 L1355 796 L1435 796 L1819 1180 Z" /></g><g class="o"><path transform="translate(5,10)" class="S ssh" d="M1784 1618 L1663 1497 L1675 1497 L1796 1618 Z"/><path class="sh2" d="M1784 1618 L1663 1497 L1675 1497 L1796 1618 Z" /></g><g class="o"><path transform="translate(9,18)" class="S sfh" d="M1114 1094 L931 911 L969 911 L1152 1094 Z"/><path class="fh3" d="M1114 1094 L931 911 L969 911 L1152 1094 Z" /></g><g class="o"><path transform="translate(6,12)" class="S sfv" d="M1179 990 L663 474 L663 610 L1179 1126 Z"/><path class="fv6" d="M1179 990 L663 474 L663 610 L1179 1126 Z" /></g><g class="o"><path transform="translate(5,10)" class="S ssv" d="M1541 1301 L1321 1521 L1321 1609 L1541 1389 Z"/><path class="sv3" d="M1541 1301 L1321 1521 L1321 1609 L1541 1389 Z" /></g><g class="o"><path transform="translate(3,6)" class="S ss" d="M1005 1628 L348 971 L356 971 L1013 1628 Z"/><path class="s1" d="M1005 1628 L348 971 L356 971 L1013 1628 Z" /></g><g class="o"><path transform="translate(6,12)" class="S sfh" d="M1906 1841 L1813 1748 L1853 1748 L1946 1841 Z"/><path class="fh1" d="M1906 1841 L1813 1748 L1853 1748 L1946 1841 Z" /></g><g class="o"><path transform="translate(5,10)" class="S sfh" d="M1909 1358 L1852 1301 L1882 1301 L1939 1358 Z"/><path class="fh1" d="M1909 1358 L1852 1301 L1882 1301 L1939 1358 Z" /></g><g class="o"><path transform="translate(4,8)" class="S sfv" d="M2040 933 L1877 1096 L1877 1224 L2040 1061 Z"/><path class="fv2" d="M2040 933 L1877 1096 L1877 1224 L2040 1061 Z" /></g><g class="o"><path transform="translate(8,16)" class="S ssv" d="M1757 1061 L1560 1258 L1560 1292 L1757 1095 Z"/><path class="sv2" d="M1757 1061 L1560 1258 L1560 1292 L1757 1095 Z" /></g><g class="o"><path transform="translate(9,18)" class="S sfh" d="M1084 1620 L781 1923 L801 1923 L1104 1620 Z"/><path class="fh7" d="M1084 1620 L781 1923 L801 1923 L1104 1620 Z" /></g><g class="o"><path transform="translate(8,16)" class="S sfv" d="M1832 1625 L1752 1545 L1752 1697 L1832 1777 Z"/><path class="fv7" d="M1832 1625 L1752 1545 L1752 1697 L1832 1777 Z" /></g><g class="o"><path transform="translate(6,12)" class="S sfh" d="M1048 1768 L823 1993 L857 1993 L1082 1768 Z"/><path class="fh5" d="M1048 1768 L823 1993 L857 1993 L1082 1768 Z" /></g><g class="o"><path transform="translate(7,14)" class="S sfh" d="M1015 1501 L652 1138 L686 1138 L1049 1501 Z"/><path class="fh2" d="M1015 1501 L652 1138 L686 1138 L1049 1501 Z" /></g><g class="o"><path transform="translate(2,4)" class="S sfv" d="M1259 1708 L1038 1929 L1038 1957 L1259 1736 Z"/><path class="fv7" d="M1259 1708 L1038 1929 L1038 1957 L1259 1736 Z" /></g><g class="o"><path transform="translate(5,10)" class="S ss" d="M1694 1309 L1612 1391 L1626 1391 L1708 1309 Z"/><path class="s7" d="M1694 1309 L1612 1391 L1626 1391 L1708 1309 Z" /></g><g class="o"><path transform="translate(8,16)" class="S sf" d="M1868 1156 L1808 1216 L1832 1216 L1892 1156 Z"/><path class="f6" d="M1868 1156 L1808 1216 L1832 1216 L1892 1156 Z" /></g><g class="o"><path transform="translate(8,16)" class="S sfh" d="M1225 976 L1050 1151 L1162 1151 L1337 976 Z"/><path class="fh7" d="M1225 976 L1050 1151 L1162 1151 L1337 976 Z" /></g><g class="o"><path transform="translate(2,4)" class="S sfv" d="M2018 1112 L1941 1035 L1941 1059 L2018 1136 Z"/><path class="fv6" d="M2018 1112 L1941 1035 L1941 1059 L2018 1136 Z" /></g><g class="o"><path transform="translate(5,10)" class="S sf" d="M1594 1566 L1396 1368 L1396 1504 L1594 1702 Z"/><path class="f3" d="M1594 1566 L1396 1368 L1396 1504 L1594 1702 Z" /></g><g class="o"><path transform="translate(4,8)" class="S sfv" d="M1063 1055 L843 1275 L843 1331 L1063 1111 Z"/><path class="fv2" d="M1063 1055 L843 1275 L843 1331 L1063 1111 Z" /></g><g class="o"><path transform="translate(6,12)" class="S sf" d="M1594 1404 L1462 1272 L1480 1272 L1612 1404 Z"/><path class="f1" d="M1594 1404 L1462 1272 L1480 1272 L1612 1404 Z" /></g><g class="o"><path transform="translate(6,12)" class="S sfv" d="M2024 1121 L1840 937 L1840 951 L2024 1135 Z"/><path class="fv1" d="M2024 1121 L1840 937 L1840 951 L2024 1135 Z" /></g><g class="o"><path transform="translate(3,6)" class="S sfv" d="M955 1077 L828 950 L828 966 L955 1093 Z"/><path class="fv4" d="M955 1077 L828 950 L828 966 L955 1093 Z" /></g><g class="o"><path transform="translate(3,6)" class="S sf" d="M1679 1840 L1526 1687 L1646 1687 L1799 1840 Z"/><path class="f3" d="M1679 1840 L1526 1687 L1646 1687 L1799 1840 Z" /></g><g class="o"><path transform="translate(3,6)" class="S sf" d="M975 1250 L749 1024 L749 1034 L975 1260 Z"/><path class="f3" d="M975 1250 L749 1024 L749 1034 L975 1260 Z" /></g><g class="o"><path transform="translate(9,18)" class="S sf" d="M1737 1979 L1623 1865 L1647 1865 L1761 1979 Z"/><path class="f1" d="M1737 1979 L1623 1865 L1647 1865 L1761 1979 Z" /></g><g class="o"><path transform="translate(3,6)" class="S sfv" d="M961 1935 L878 1852 L878 1866 L961 1949 Z"/><path class="fv3" d="M961 1935 L878 1852 L878 1866 L961 1949 Z" /></g><g class="o"><path transform="translate(5,10)" class="S sfh" d="M1732 1586 L1607 1461 L1637 1461 L1762 1586 Z"/><path class="fh2" d="M1732 1586 L1607 1461 L1637 1461 L1762 1586 Z" /></g><g class="o"><path transform="translate(7,14)" class="S sf" d="M1848 1322 L1791 1379 L1819 1379 L1876 1322 Z"/><path class="f6" d="M1848 1322 L1791 1379 L1819 1379 L1876 1322 Z" /></g><g class="o"><path transform="translate(8,16)" class="S sfv" d="M1433 1635 L1312 1514 L1312 1538 L1433 1659 Z"/><path class="fv1" d="M1433 1635 L1312 1514 L1312 1538 L1433 1659 Z" /></g><g class="o"><path transform="translate(9,18)" class="S sfv" d="M1315 1740 L1138 1563 L1138 1571 L1315 1748 Z"/><path class="fv7" d="M1315 1740 L1138 1563 L1138 1571 L1315 1748 Z" /></g><g class="o"><path transform="translate(3,6)" class="S sfv" d="M1455 1003 L1293 1165 L1293 1191 L1455 1029 Z"/><path class="fv4" d="M1455 1003 L1293 1165 L1293 1191 L1455 1029 Z" /></g><g class="o"><path transform="translate(6,12)" class="S sf" d="M1092 1860 L996 1956 L996 1994 L1092 1898 Z"/><path class="f4" d="M1092 1860 L996 1956 L996 1994 L1092 1898 Z" /></g><g class="o"><path transform="translate(4,8)" class="S ssv" d="M1748 1963 L1518 2193 L1518 2209 L1748 1979 Z"/><path class="sv5" d="M1748 1963 L1518 2193 L1518 2209 L1748 1979 Z" /></g><g class="o"><path transform="translate(9,18)" class="S sfv" d="M2018 1968 L1899 2087 L1899 2119 L2018 2000 Z"/><path class="fv7" d="M2018 1968 L1899 2087 L1899 2119 L2018 2000 Z" /></g><g class="o"><path transform="translate(4,8)" class="S sf" d="M1782 1143 L1675 1036 L1691 1036 L1798 1143 Z"/><path class="f3" d="M1782 1143 L1675 1036 L1691 1036 L1798 1143 Z" /></g><g class="o"><path transform="translate(6,12)" class="S sf" d="M1375 1297 L1235 1437 L1235 1467 L1375 1327 Z"/><path class="f6" d="M1375 1297 L1235 1437 L1235 1467 L1375 1327 Z" /></g><g class="o"><path transform="translate(4,8)" class="S ss" d="M1531 1195 L832 496 L832 526 L1531 1225 Z"/><path class="s1" d="M1531 1195 L832 496 L832 526 L1531 1225 Z" /></g><g class="o"><path transform="translate(9,18)" class="S sfv" d="M2004 1293 L1878 1167 L1878 1189 L2004 1315 Z"/><path class="fv2" d="M2004 1293 L1878 1167 L1878 1189 L2004 1315 Z" /></g><g class="o"><path transform="translate(8,16)" class="S sfv" d="M1944 1927 L1790 2081 L1790 2093 L1944 1939 Z"/><path class="fv4" d="M1944 1927 L1790 2081 L1790 2093 L1944 1939 Z" /></g><g class="o"><path transform="translate(9,18)" class="S sfh" d="M1337 1202 L1266 1131 L1330 1131 L1401 1202 Z"/><path class="fh6" d="M1337 1202 L1266 1131 L1330 1131 L1401 1202 Z" /></g><g class="o"><path transform="translate(4,8)" class="S ss" d="M1284 1894 L675 2503 L675 2541 L1284 1932 Z"/><path class="s4" d="M1284 1894 L675 2503 L675 2541 L1284 1932 Z" /></g></g><use href="#slashes" transform-origin="1500 1500" transform="rotate(180) scale(2)"/></g><circle cx="1500" cy="1500" r="450" stroke-width="20" class="o s4" /><use href="#slashes" transform-origin="1500 1500" transform="scale(.9)"/><use href="#slashes" transform-origin="1500 1500" transform="rotate(180) scale(.9)"/></svg>