<svg xmlns="http://www.w3.org/2000/svg" viewBox="750 750 1500 1500"><style>/*<![CDATA[*/svg{background:rgb(34,34,34);max-width:100vw;max-height:100vh}path{stroke-width:4}.o{opacity:.75}.S{opacity:.4}.sf{stroke:none;fill:black}.sfh{stroke:none;fill:url(#hs)}.sfv{stroke:none;fill:url(#vs)}.ss{stroke:black;fill:none}.ssh{stroke:url(#hs);fill:none}.ssv{stroke:url(#vs);fill:none}.s1{fill:none;stroke:rgb(1,22,39)}.f1{stroke:none;fill:rgb(1,22,39)}.sh1{fill:none;stroke:url(#h1)}.fh1{stroke:none;fill:url(#h1)}.sv1{fill:none;stroke:url(#v1)}.fv1{stroke:none;fill:url(#v1)}.s2{fill:none;stroke:rgb(65,234,212)}.f2{stroke:none;fill:rgb(65,234,212)}.sh2{fill:none;stroke:url(#h2)}.fh2{stroke:none;fill:url(#h2)}.sv2{fill:none;stroke:url(#v2)}.fv2{stroke:none;fill:url(#v2)}.s3{fill:none;stroke:rgb(253,255,252)}.f3{stroke:none;fill:rgb(253,255,252)}.sh3{fill:none;stroke:url(#h3)}.fh3{stroke:none;fill:url(#h3)}.sv3{fill:none;stroke:url(#v3)}.fv3{stroke:none;fill:url(#v3)}.s4{fill:none;stroke:rgb(255,159,28)}.f4{stroke:none;fill:rgb(255,159,28)}.sh4{fill:none;stroke:url(#h4)}.fh4{stroke:none;fill:url(#h4)}.sv4{fill:none;stroke:url(#v4)}.fv4{stroke:none;fill:url(#v4)}.s5{fill:none;stroke:rgb(247,23,53)}.f5{stroke:none;fill:rgb(247,23,53)}.sh5{fill:none;stroke:url(#h5)}.fh5{stroke:none;fill:url(#h5)}.sv5{fill:none;stroke:url(#v5)}.fv5{stroke:none;fill:url(#v5)}.s6{fill:none;stroke:rgb(255,255,255)}.f6{stroke:none;fill:rgb(255,255,255)}.sh6{fill:none;stroke:url(#h6)}.fh6{stroke:none;fill:url(#h6)}.sv6{fill:none;stroke:url(#v6)}.fv6{stroke:none;fill:url(#v6)}.s7{fill:none;stroke:rgb(255,255,0)}.f7{stroke:none;fill:rgb(255,255,0)}.sh7{fill:none;stroke:url(#h7)}.fh7{stroke:none;fill:url(#h7)}.sv7{fill:none;stroke:url(#v7)}.fv7{stroke:none;fill:url(#v7)}/*]]>*/</style><defs><linearGradient gradientTransform="rotate(90)" id="hs"><stop offset="20%" stop-color="#000" /><stop offset="95%" stop-color="rgba(0, 0, 0, 0)" /></linearGradient><linearGradient id="vs"><stop offset="20%" stop-color="#000" /><stop offset="95%" stop-color="rgba(0, 0, 0, 0)" /></linearGradient><linearGradient gradientTransform="rotate(90)" id="h1"><stop offset="20%" stop-color="rgba(1,22,39,1)" /><stop offset="95%" stop-color="rgba(1,22,39,0)" /></linearGradient><linearGradient id="v1"><stop offset="20%" stop-color="rgba(1,22,39,1)" /><stop offset="95%" stop-color="rgba(1,22,39,0)" /></linearGradient><linearGradient gradientTransform="rotate(90)" id="h2"><stop offset="20%" stop-color="rgba(65,234,212,1)" /><stop offset="95%" stop-color="rgba(65,234,212,0)" /></linearGradient><linearGradient id="v2"><stop offset="20%" stop-color="rgba(65,234,212,1)" /><stop offset="95%" stop-color="rgba(65,234,212,0)" /></linearGradient><linearGradient gradientTransform="rotate(90)" id="h3"><stop offset="20%" stop-color="rgba(253,255,252,1)" /><stop offset="95%" stop-color="rgba(253,255,252,0)" /></linearGradient><linearGradient id="v3"><stop offset="20%" stop-color="rgba(253,255,252,1)" /><stop offset="95%" stop-color="rgba(253,255,252,0)" /></linearGradient><linearGradient gradientTransform="rotate(90)" id="h4"><stop offset="20%" stop-color="rgba(255,159,28,1)" /><stop offset="95%" stop-color="rgba(255,159,28,0)" /></linearGradient><linearGradient id="v4"><stop offset="20%" stop-color="rgba(255,159,28,1)" /><stop offset="95%" stop-color="rgba(255,159,28,0)" /></linearGradient><linearGradient gradientTransform="rotate(90)" id="h5"><stop offset="20%" stop-color="rgba(247,23,53,1)" /><stop offset="95%" stop-color="rgba(247,23,53,0)" /></linearGradient><linearGradient id="v5"><stop offset="20%" stop-color="rgba(247,23,53,1)" /><stop offset="95%" stop-color="rgba(247,23,53,0)" /></linearGradient><linearGradient gradientTransform="rotate(90)" id="h6"><stop offset="20%" stop-color="rgba(255,255,255,1)" /><stop offset="95%" stop-color="rgba(255,255,255,0)" /></linearGradient><linearGradient id="v6"><stop offset="20%" stop-color="rgba(255,255,255,1)" /><stop offset="95%" stop-color="rgba(255,255,255,0)" /></linearGradient><linearGradient gradientTransform="rotate(90)" id="h7"><stop offset="20%" stop-color="rgba(255,255,0,1)" /><stop offset="95%" stop-color="rgba(255,255,0,0)" /></linearGradient><linearGradient id="v7"><stop offset="20%" stop-color="rgba(255,255,0,1)" /><stop offset="95%" stop-color="rgba(255,255,0,0)" /></linearGradient></defs><g transform-origin="1500 1500" transform="scale(2)" opacity=".2"><g id="slashes"><g class="o"><path transform="translate(3,6)" class="S sfv" d="M1182 1658 L1072 1768 L1072 1804 L1182 1694 Z"/><path class="fv6" d="M1182 1658 L1072 1768 L1072 1804 L1182 1694 Z" /></g><g class="o"><path transform="translate(3,6)" class="S sfv" d="M1084 1505 L881 1708 L881 1732 L1084 1529 Z"/><path class="fv4" d="M1084 1505 L881 1708 L881 1732 L1084 1529 Z" /></g><g class="o"><path transform="translate(9,18)" class="S sf" d="M1343 1435 L1132 1646 L1170 1646 L1381 1435 Z"/><path class="f6" d="M1343 1435 L1132 1646 L1170 1646 L1381 1435 Z" /></g><g class="o"><path transform="translate(8,16)" class="S sfv" d="M1087 1474 L935 1322 L935 1340 L1087 1492 Z"/><path class="fv5" d="M1087 1474 L935 1322 L935 1340 L1087 1492 Z" /></g><g class="o"><path transform="translate(7,14)" class="S sfv" d="M1108 1190 L433 1865 L433 1877 L1108 1202 Z"/><path class="fv7" d="M1108 1190 L433 1865 L433 1877 L1108 1202 Z" /></g><g class="o"><path transform="translate(3,6)" class="S ssh" d="M1750 1334 L1213 1871 L1243 1871 L1780 1334 Z"/><path class="sh2" d="M1750 1334 L1213 1871 L1243 1871 L1780 1334 Z" /></g><g class="o"><path transform="translate(8,16)" class="S sfh" d="M1636 1857 L1450 2043 L1482 2043 L1668 1857 Z"/><path class="fh4" d="M1636 1857 L1450 2043 L1482 2043 L1668 1857 Z" /></g><g class="o"><path transform="translate(4,8)" class="S sfh" d="M1729 1260 L1675 1314 L1713 1314 L1767 1260 Z"/><path class="fh4" d="M1729 1260 L1675 1314 L1713 1314 L1767 1260 Z" /></g><g class="o"><path transform="translate(6,12)" class="S sf" d="M1724 1316 L1289 881 L1289 915 L1724 1350 Z"/><path class="f1" d="M1724 1316 L1289 881 L1289 915 L1724 1350 Z" /></g><g class="o"><path transform="translate(4,8)" class="S sfv" d="M1164 1983 L936 1755 L936 1781 L1164 2009 Z"/><path class="fv5" d="M1164 1983 L936 1755 L936 1781 L1164 2009 Z" /></g><g class="o"><path transform="translate(9,18)" class="S sfv" d="M1358 1359 L1308 1309 L1308 1321 L1358 1371 Z"/><path class="fv1" d="M1358 1359 L1308 1309 L1308 1321 L1358 1371 Z" /></g><g class="o"><path transform="translate(6,12)" class="S sfh" d="M1628 1717 L1514 1603 L1618 1603 L1732 1717 Z"/><path class="fh6" d="M1628 1717 L1514 1603 L1618 1603 L1732 1717 Z" /></g><g class="o"><path transform="translate(8,16)" class="S ssv" d="M1748 1128 L1645 1231 L1645 1279 L1748 1176 Z"/><path class="sv7" d="M1748 1128 L1645 1231 L1645 1279 L1748 1176 Z" /></g><g class="o"><path transform="translate(6,12)" class="S ssv" d="M1185 1691 L786 1292 L786 1328 L1185 1727 Z"/><path class="sv7" d="M1185 1691 L786 1292 L786 1328 L1185 1727 Z" /></g><g class="o"><path transform="translate(2,4)" class="S sfh" d="M1071 1544 L880 1735 L906 1735 L1097 1544 Z"/><path class="fh1" d="M1071 1544 L880 1735 L906 1735 L1097 1544 Z" /></g><g class="o"><path transform="translate(9,18)" class="S sf" d="M1080 1069 L926 1223 L934 1223 L1088 1069 Z"/><path class="f3" d="M1080 1069 L926 1223 L934 1223 L1088 1069 Z" /></g><g class="o"><path transform="translate(6,12)" class="S sf" d="M1760 1283 L1376 899 L1384 899 L1768 1283 Z"/><path class="f5" d="M1760 1283 L1376 899 L1384 899 L1768 1283 Z" /></g><g class="o"><path transform="translate(9,18)" class="S sfh" d="M1648 1281 L1400 1529 L1418 1529 L1666 1281 Z"/><path class="fh4" d="M1648 1281 L1400 1529 L1418 1529 L1666 1281 Z" /></g><g class="o"><path transform="translate(8,16)" class="S sf" d="M2021 1691 L1631 1301 L1631 1327 L2021 1717 Z"/><path class="f2" d="M2021 1691 L1631 1301 L1631 1327 L2021 1717 Z" /></g><g class="o"><path transform="translate(4,8)" class="S sfh" d="M1900 1349 L1786 1235 L1822 1235 L1936 1349 Z"/><path class="fh1" d="M1900 1349 L1786 1235 L1822 1235 L1936 1349 Z" /></g><g class="o"><path transform="translate(7,14)" class="S sfv" d="M1881 1965 L1681 1765 L1681 1779 L1881 1979 Z"/><path class="fv6" d="M1881 1965 L1681 1765 L1681 1779 L1881 1979 Z" /></g><g class="o"><path transform="translate(4,8)" class="S sf" d="M1198 2039 L1122 2115 L1122 2127 L1198 2051 Z"/><path class="f2" d="M1198 2039 L1122 2115 L1122 2127 L1198 2051 Z" /></g><g class="o"><path transform="translate(4,8)" class="S ssh" d="M2018 2009 L1958 1949 L1992 1949 L2052 2009 Z"/><path class="sh4" d="M2018 2009 L1958 1949 L1992 1949 L2052 2009 Z" /></g><g class="o"><path transform="translate(6,12)" class="S sfh" d="M935 1778 L754 1597 L826 1597 L1007 1778 Z"/><path class="fh4" d="M935 1778 L754 1597 L826 1597 L1007 1778 Z" /></g><g class="o"><path transform="translate(5,10)" class="S sfh" d="M1653 1969 L1451 1767 L1467 1767 L1669 1969 Z"/><path class="fh6" d="M1653 1969 L1451 1767 L1467 1767 L1669 1969 Z" /></g><g class="o"><path transform="translate(7,14)" class="S sfv" d="M1715 1408 L1513 1206 L1513 1242 L1715 1444 Z"/><path class="fv4" d="M1715 1408 L1513 1206 L1513 1242 L1715 1444 Z" /></g><g class="o"><path transform="translate(4,8)" class="S sfv" d="M1400 1131 L1295 1026 L1295 1064 L1400 1169 Z"/><path class="fv2" d="M1400 1131 L1295 1026 L1295 1064 L1400 1169 Z" /></g><g class="o"><path transform="translate(6,12)" class="S sfh" d="M1720 1812 L1600 1932 L1634 1932 L1754 1812 Z"/><path class="fh3" d="M1720 1812 L1600 1932 L1634 1932 L1754 1812 Z" /></g><g class="o"><path transform="translate(3,6)" class="S sfv" d="M1101 1535 L965 1671 L965 1681 L1101 1545 Z"/><path class="fv6" d="M1101 1535 L965 1671 L965 1681 L1101 1545 Z" /></g><g class="o"><path transform="translate(8,16)" class="S sfv" d="M1738 1808 L1006 1076 L1006 1088 L1738 1820 Z"/><path class="fv1" d="M1738 1808 L1006 1076 L1006 1088 L1738 1820 Z" /></g><g class="o"><path transform="translate(5,10)" class="S ssh" d="M1129 1478 L928 1277 L952 1277 L1153 1478 Z"/><path class="sh4" d="M1129 1478 L928 1277 L952 1277 L1153 1478 Z" /></g><g class="o"><path transform="translate(9,18)" class="S sfh" d="M1813 1760 L1634 1939 L1664 1939 L1843 1760 Z"/><path class="fh5" d="M1813 1760 L1634 1939 L1664 1939 L1843 1760 Z" /></g><g class="o"><path transform="translate(5,10)" class="S sfh" d="M1654 1475 L1033 854 L1055 854 L1676 1475 Z"/><path class="fh5" d="M1654 1475 L1033 854 L1055 854 L1676 1475 Z" /></g><g class="o"><path transform="translate(2,4)" class="S sfv" d="M1722 1905 L1580 2047 L1580 2075 L1722 1933 Z"/><path class="fv7" d="M1722 1905 L1580 2047 L1580 2075 L1722 1933 Z" /></g><g class="o"><path transform="translate(4,8)" class="S sfv" d="M1650 1589 L1536 1475 L1536 1495 L1650 1609 Z"/><path class="fv3" d="M1650 1589 L1536 1475 L1536 1495 L1650 1609 Z" /></g><g class="o"><path transform="translate(5,10)" class="S sfh" d="M1617 1326 L1314 1023 L1338 1023 L1641 1326 Z"/><path class="fh3" d="M1617 1326 L1314 1023 L1338 1023 L1641 1326 Z" /></g><g class="o"><path transform="translate(4,8)" class="S sfh" d="M1632 1926 L1398 1692 L1422 1692 L1656 1926 Z"/><path class="fh7" d="M1632 1926 L1398 1692 L1422 1692 L1656 1926 Z" /></g><g class="o"><path transform="translate(4,8)" class="S sfv" d="M1740 980 L1505 745 L1505 771 L1740 1006 Z"/><path class="fv5" d="M1740 980 L1505 745 L1505 771 L1740 1006 Z" /></g><g class="o"><path transform="translate(2,4)" class="S ssv" d="M1499 1448 L1364 1313 L1364 1351 L1499 1486 Z"/><path class="sv2" d="M1499 1448 L1364 1313 L1364 1351 L1499 1486 Z" /></g><g class="o"><path transform="translate(3,6)" class="S sfv" d="M1168 1228 L724 1672 L724 1698 L1168 1254 Z"/><path class="fv7" d="M1168 1228 L724 1672 L724 1698 L1168 1254 Z" /></g><g class="o"><path transform="translate(9,18)" class="S sfh" d="M1314 1042 L726 454 L762 454 L1350 1042 Z"/><path class="fh1" d="M1314 1042 L726 454 L762 454 L1350 1042 Z" /></g><g class="o"><path transform="translate(3,6)" class="S sfh" d="M959 1131 L777 1313 L785 1313 L967 1131 Z"/><path class="fh4" d="M959 1131 L777 1313 L785 1313 L967 1131 Z" /></g><g class="o"><path transform="translate(9,18)" class="S sf" d="M1577 1538 L1506 1467 L1546 1467 L1617 1538 Z"/><path class="f4" d="M1577 1538 L1506 1467 L1546 1467 L1617 1538 Z" /></g><g class="o"><path transform="translate(2,4)" class="S sfv" d="M1182 1022 L1125 1079 L1125 1099 L1182 1042 Z"/><path class="fv3" d="M1182 1022 L1125 1079 L1125 1099 L1182 1042 Z" /></g><g class="o"><path transform="translate(6,12)" class="S sfh" d="M1929 1161 L1693 925 L1727 925 L1963 1161 Z"/><path class="fh1" d="M1929 1161 L1693 925 L1727 925 L1963 1161 Z" /></g><g class="o"><path transform="translate(9,18)" class="S sf" d="M1049 1707 L874 1532 L890 1532 L1065 1707 Z"/><path class="f2" d="M1049 1707 L874 1532 L890 1532 L1065 1707 Z" /></g><g class="o"><path transform="translate(5,10)" class="S sfv" d="M952 2012 L801 1861 L801 1887 L952 2038 Z"/><path class="fv2" d="M952 2012 L801 1861 L801 1887 L952 2038 Z" /></g><g class="o"><path transform="translate(7,14)" class="S sfv" d="M1580 1029 L1446 895 L1446 925 L1580 1059 Z"/><path class="fv7" d="M1580 1029 L1446 895 L1446 925 L1580 1059 Z" /></g><g class="o"><path transform="translate(7,14)" class="S sf" d="M1164 1935 L939 1710 L939 1718 L1164 1943 Z"/><path class="f6" d="M1164 1935 L939 1710 L939 1718 L1164 1943 Z" /></g><g class="o"><path transform="translate(3,6)" class="S sfv" d="M1732 2036 L1635 2133 L1635 2157 L1732 2060 Z"/><path class="fv3" d="M1732 2036 L1635 2133 L1635 2157 L1732 2060 Z" /></g><g class="o"><path transform="translate(8,16)" class="S sfh" d="M1776 1815 L1701 1740 L1727 1740 L1802 1815 Z"/><path class="fh7" d="M1776 1815 L1701 1740 L1727 1740 L1802 1815 Z" /></g><g class="o"><path transform="translate(9,18)" class="S sf" d="M1492 1968 L1328 2132 L1328 2144 L1492 1980 Z"/><path class="f6" d="M1492 1968 L1328 2132 L1328 2144 L1492 1980 Z" /></g><g class="o"><path transform="translate(8,16)" class="S sfv" d="M2007 969 L1930 1046 L1930 1062 L2007 985 Z"/><path class="fv4" d="M2007 969 L1930 1046 L1930 1062 L2007 985 Z" /></g><g class="o"><path transform="translate(9,18)" class="S sfv" d="M1120 1048 L935 1233 L935 1251 L1120 1066 Z"/><path class="fv7" d="M1120 1048 L935 1233 L935 1251 L1120 1066 Z" /></g><g class="o"><path transform="translate(6,12)" class="S sf" d="M1541 1403 L1363 1225 L1393 1225 L1571 1403 Z"/><path class="f4" d="M1541 1403 L1363 1225 L1393 1225 L1571 1403 Z" /></g><g class="o"><path transform="translate(5,10)" class="S sf" d="M1164 971 L1060 867 L1084 867 L1188 971 Z"/><path class="f7" d="M1164 971 L1060 867 L1084 867 L1188 971 Z" /></g><g class="o"><path transform="translate(6,12)" class="S ssh" d="M1357 1455 L1246 1344 L1326 1344 L1437 1455 Z"/><path class="sh4" d="M1357 1455 L1246 1344 L1326 1344 L1437 1455 Z" /></g><g class="o"><path transform="translate(2,4)" class="S sfv" d="M1671 1908 L1490 1727 L1490 1765 L1671 1946 Z"/><path class="fv5" d="M1671 1908 L1490 1727 L1490 1765 L1671 1946 Z" /></g><g class="o"><path transform="translate(8,16)" class="S sfv" d="M1236 1086 L1065 1257 L1065 1297 L1236 1126 Z"/><path class="fv2" d="M1236 1086 L1065 1257 L1065 1297 L1236 1126 Z" /></g><g class="o"><path transform="translate(8,16)" class="S sfh" d="M1259 1288 L830 1717 L840 1717 L1269 1288 Z"/><path class="fh3" d="M1259 1288 L830 1717 L840 1717 L1269 1288 Z" /></g><g class="o"><path transform="translate(6,12)" class="S sfv" d="M2028 1983 L1521 1476 L1521 1498 L2028 2005 Z"/><path class="fv5" d="M2028 1983 L1521 1476 L1521 1498 L2028 2005 Z" /></g><g class="o"><path transform="translate(2,4)" class="S ssv" d="M960 1253 L738 1031 L738 1057 L960 1279 Z"/><path class="sv1" d="M960 1253 L738 1031 L738 1057 L960 1279 Z" /></g><g class="o"><path transform="translate(8,16)" class="S sfh" d="M1755 952 L1638 835 L1670 835 L1787 952 Z"/><path class="fh7" d="M1755 952 L1638 835 L1670 835 L1787 952 Z" /></g><g class="o"><path transform="translate(4,8)" class="S sfh" d="M1177 1317 L712 1782 L744 1782 L1209 1317 Z"/><path class="fh6" d="M1177 1317 L712 1782 L744 1782 L1209 1317 Z" /></g><g class="o"><path transform="translate(8,16)" class="S sf" d="M1962 1188 L1779 1005 L1779 1031 L1962 1214 Z"/><path class="f4" d="M1962 1188 L1779 1005 L1779 1031 L1962 1214 Z" /></g><g class="o"><path transform="translate(6,12)" class="S ssv" d="M1963 1959 L1630 2292 L1630 2320 L1963 1987 Z"/><path class="sv2" d="M1963 1959 L1630 2292 L1630 2320 L1963 1987 Z" /></g><g class="o"><path transform="translate(7,14)" class="S sfh" d="M1694 1018 L1337 661 L1369 661 L1726 1018 Z"/><path class="fh6" d="M1694 1018 L1337 661 L1369 661 L1726 1018 Z" /></g><g class="o"><path transform="translate(4,8)" class="S ssh" d="M1554 1501 L1367 1688 L1401 1688 L1588 1501 Z"/><path class="sh1" d="M1554 1501 L1367 1688 L1401 1688 L1588 1501 Z" /></g><g class="o"><path transform="translate(5,10)" class="S sf" d="M1732 1045 L1312 625 L1350 625 L1770 1045 Z"/><path class="f1" d="M1732 1045 L1312 625 L1350 625 L1770 1045 Z" /></g><g class="o"><path transform="translate(5,10)" class="S sfh" d="M1728 1298 L1570 1456 L1610 1456 L1768 1298 Z"/><path class="fh3" d="M1728 1298 L1570 1456 L1610 1456 L1768 1298 Z" /></g><g class="o"><path transform="translate(6,12)" class="S sf" d="M1507 1474 L1435 1546 L1435 1572 L1507 1500 Z"/><path class="f7" d="M1507 1474 L1435 1546 L1435 1572 L1507 1500 Z" /></g><g class="o"><path transform="translate(5,10)" class="S sf" d="M1064 1185 L1014 1135 L1014 1149 L1064 1199 Z"/><path class="f3" d="M1064 1185 L1014 1135 L1014 1149 L1064 1199 Z" /></g><g class="o"><path transform="translate(4,8)" class="S sfv" d="M1099 1403 L1004 1308 L1004 1336 L1099 1431 Z"/><path class="fv1" d="M1099 1403 L1004 1308 L1004 1336 L1099 1431 Z" /></g><g class="o"><path transform="translate(6,12)" class="S sfv" d="M1806 1344 L1314 1836 L1314 1852 L1806 1360 Z"/><path class="fv4" d="M1806 1344 L1314 1836 L1314 1852 L1806 1360 Z" /></g><g class="o"><path transform="translate(2,4)" class="S sf" d="M1043 1846 L922 1967 L922 1981 L1043 1860 Z"/><path class="f5" d="M1043 1846 L922 1967 L922 1981 L1043 1860 Z" /></g><g class="o"><path transform="translate(5,10)" class="S sfv" d="M1457 2022 L1256 1821 L1256 1849 L1457 2050 Z"/><path class="fv6" d="M1457 2022 L1256 1821 L1256 1849 L1457 2050 Z" /></g><g class="o"><path transform="translate(3,6)" class="S sfv" d="M1192 1837 L529 2500 L529 2512 L1192 1849 Z"/><path class="fv3" d="M1192 1837 L529 2500 L529 2512 L1192 1849 Z" /></g><g class="o"><path transform="translate(6,12)" class="S sfv" d="M1685 1231 L1489 1427 L1489 1435 L1685 1239 Z"/><path class="fv7" d="M1685 1231 L1489 1427 L1489 1435 L1685 1239 Z" /></g><g class="o"><path transform="translate(6,12)" class="S sfh" d="M1729 1774 L1587 1916 L1595 1916 L1737 1774 Z"/><path class="fh7" d="M1729 1774 L1587 1916 L1595 1916 L1737 1774 Z" /></g><g class="o"><path transform="translate(3,6)" class="S sfh" d="M1686 995 L1509 1172 L1537 1172 L1714 995 Z"/><path class="fh4" d="M1686 995 L1509 1172 L1537 1172 L1714 995 Z" /></g><g class="o"><path transform="translate(6,12)" class="S sf" d="M1389 1380 L1264 1505 L1296 1505 L1421 1380 Z"/><path class="f2" d="M1389 1380 L1264 1505 L1296 1505 L1421 1380 Z" /></g><g class="o"><path transform="translate(4,8)" class="S ssv" d="M1392 1793 L1229 1630 L1229 1646 L1392 1809 Z"/><path class="sv7" d="M1392 1793 L1229 1630 L1229 1646 L1392 1809 Z" /></g><g class="o"><path transform="translate(7,14)" class="S sfv" d="M1697 1910 L1250 1463 L1250 1483 L1697 1930 Z"/><path class="fv4" d="M1697 1910 L1250 1463 L1250 1483 L1697 1930 Z" /></g><g class="o"><path transform="translate(8,16)" class="S sfh" d="M1746 1464 L1329 1881 L1359 1881 L1776 1464 Z"/><path class="fh3" d="M1746 1464 L1329 1881 L1359 1881 L1776 1464 Z" /></g><g class="o"><path transform="translate(7,14)" class="S sfv" d="M1917 2007 L1855 2069 L1855 2087 L1917 2025 Z"/><path class="fv1" d="M1917 2007 L1855 2069 L1855 2087 L1917 2025 Z" /></g><g class="o"><path transform="translate(6,12)" class="S ssv" d="M2011 1135 L1426 550 L1426 582 L2011 1167 Z"/><path class="sv3" d="M2011 1135 L1426 550 L1426 582 L2011 1167 Z" /></g><g class="o"><path transform="translate(6,12)" class="S sfh" d="M1422 1138 L1205 1355 L1215 1355 L1432 1138 Z"/><path class="fh6" d="M1422 1138 L1205 1355 L1215 1355 L1432 1138 Z" /></g><g class="o"><path transform="translate(2,4)" class="S ss" d="M1858 1659 L1327 1128 L1327 1224 L1858 1755 Z"/><path class="s6" d="M1858 1659 L1327 1128 L1327 1224 L1858 1755 Z" /></g><g class="o"><path transform="translate(6,12)" class="S sf" d="M1165 1552 L1070 1457 L1080 1457 L1175 1552 Z"/><path class="f1" d="M1165 1552 L1070 1457 L1080 1457 L1175 1552 Z" /></g><g class="o"><path transform="translate(2,4)" class="S sfh" d="M1173 1492 L1045 1364 L1063 1364 L1191 1492 Z"/><path class="fh4" d="M1173 1492 L1045 1364 L1063 1364 L1191 1492 Z" /></g><g class="o"><path transform="translate(3,6)" class="S sfh" d="M970 1092 L877 1185 L909 1185 L1002 1092 Z"/><path class="fh3" d="M970 1092 L877 1185 L909 1185 L1002 1092 Z" /></g><g class="o"><path transform="translate(2,4)" class="S sfv" d="M1155 1638 L1095 1578 L1095 1586 L1155 1646 Z"/><path class="fv7" d="M1155 1638 L1095 1578 L1095 1586 L1155 1646 Z" /></g><g class="o"><path transform="translate(4,8)" class="S sfv" d="M1793 1651 L1621 1479 L1621 1515 L1793 1687 Z"/><path class="fv2" d="M1793 1651 L1621 1479 L1621 1515 L1793 1687 Z" /></g><g class="o"><path transform="translate(5,10)" class="S sf" d="M1995 977 L1887 869 L1919 869 L2027 977 Z"/><path class="f6" d="M1995 977 L1887 869 L1919 869 L2027 977 Z" /></g><g class="o"><path transform="translate(3,6)" class="S sfh" d="M1683 1679 L1594 1768 L1624 1768 L1713 1679 Z"/><path class="fh2" d="M1683 1679 L1594 1768 L1624 1768 L1713 1679 Z" /></g><g class="o"><path transform="translate(7,14)" class="S sfv" d="M1549 1362 L817 630 L817 650 L1549 1382 Z"/><path class="fv3" d="M1549 1362 L817 630 L817 650 L1549 1382 Z" /></g><g class="o"><path transform="translate(7,14)" class="S sfv" d="M1273 1997 L1212 1936 L1212 1956 L1273 2017 Z"/><path class="fv2" d="M1273 1997 L1212 1936 L1212 1956 L1273 2017 Z" /></g><g class="o"><path transform="translate(9,18)" class="S sfh" d="M1243 1736 L1183 1796 L1255 1796 L1315 1736 Z"/><path class="fh6" d="M1243 1736 L1183 1796 L1255 1796 L1315 1736 Z" /></g><g class="o"><path transform="translate(6,12)" class="S ssh" d="M1783 1281 L1549 1515 L1583 1515 L1817 1281 Z"/><path class="sh1" d="M1783 1281 L1549 1515 L1583 1515 L1817 1281 Z" /></g><g class="o"><path transform="translate(8,16)" class="S sfh" d="M1460 1391 L1384 1467 L1418 1467 L1494 1391 Z"/><path class="fh2" d="M1460 1391 L1384 1467 L1418 1467 L1494 1391 Z" /></g><g class="o"><path transform="translate(8,16)" class="S sf" d="M1892 1167 L1729 1330 L1729 1342 L1892 1179 Z"/><path class="f1" d="M1892 1167 L1729 1330 L1729 1342 L1892 1179 Z" /></g><g class="o"><path transform="translate(6,12)" class="S ssh" d="M1372 1188 L1317 1133 L1331 1133 L1386 1188 Z"/><path class="sh7" d="M1372 1188 L1317 1133 L1331 1133 L1386 1188 Z" /></g><g class="o"><path transform="translate(9,18)" class="S sfv" d="M1046 1500 L840 1706 L840 1742 L1046 1536 Z"/><path class="fv3" d="M1046 1500 L840 1706 L840 1742 L1046 1536 Z" /></g><g class="o"><path transform="translate(8,16)" class="S sfh" d="M1683 1639 L1491 1831 L1515 1831 L1707 1639 Z"/><path class="fh6" d="M1683 1639 L1491 1831 L1515 1831 L1707 1639 Z" /></g><g class="o"><path transform="translate(3,6)" class="S sf" d="M1318 1573 L1229 1484 L1247 1484 L1336 1573 Z"/><path class="f3" d="M1318 1573 L1229 1484 L1247 1484 L1336 1573 Z" /></g><g class="o"><path transform="translate(9,18)" class="S sf" d="M1564 1662 L1441 1785 L1441 1799 L1564 1676 Z"/><path class="f4" d="M1564 1662 L1441 1785 L1441 1799 L1564 1676 Z" /></g><g class="o"><path transform="translate(6,12)" class="S ssv" d="M991 986 L896 891 L896 927 L991 1022 Z"/><path class="sv1" d="M991 986 L896 891 L896 927 L991 1022 Z" /></g><g class="o"><path transform="translate(8,16)" class="S sfh" d="M1586 1062 L1445 921 L1479 921 L1620 1062 Z"/><path class="fh7" d="M1586 1062 L1445 921 L1479 921 L1620 1062 Z" /></g><g class="o"><path transform="translate(7,14)" class="S ssh" d="M2028 2023 L1838 1833 L1876 1833 L2066 2023 Z"/><path class="sh4" d="M2028 2023 L1838 1833 L1876 1833 L2066 2023 Z" /></g><g class="o"><path transform="translate(2,4)" class="S sfh" d="M1763 1224 L1570 1031 L1590 1031 L1783 1224 Z"/><path class="fh2" d="M1763 1224 L1570 1031 L1590 1031 L1783 1224 Z" /></g><g class="o"><path transform="translate(6,12)" class="S sfv" d="M1866 1579 L1676 1389 L1676 1401 L1866 1591 Z"/><path class="fv5" d="M1866 1579 L1676 1389 L1676 1401 L1866 1591 Z" /></g><g class="o"><path transform="translate(5,10)" class="S sfv" d="M1579 1170 L1386 977 L1386 985 L1579 1178 Z"/><path class="fv1" d="M1579 1170 L1386 977 L1386 985 L1579 1178 Z" /></g><g class="o"><path transform="translate(6,12)" class="S sfh" d="M1629 1741 L1458 1570 L1492 1570 L1663 1741 Z"/><path class="fh4" d="M1629 1741 L1458 1570 L1492 1570 L1663 1741 Z" /></g><g class="o"><path transform="translate(6,12)" class="S sfh" d="M1991 1879 L1903 1967 L1911 1967 L1999 1879 Z"/><path class="fh7" d="M1991 1879 L1903 1967 L1911 1967 L1999 1879 Z" /></g><g class="o"><path transform="translate(8,16)" class="S sfv" d="M1655 1699 L1547 1807 L1547 1825 L1655 1717 Z"/><path class="fv3" d="M1655 1699 L1547 1807 L1547 1825 L1655 1717 Z" /></g><g class="o"><path transform="translate(3,6)" class="S sfh" d="M1356 1721 L1124 1489 L1252 1489 L1484 1721 Z"/><path class="fh4" d="M1356 1721 L1124 1489 L1252 1489 L1484 1721 Z" /></g><g class="o"><path transform="translate(5,10)" class="S sfv" d="M2025 2035 L1922 1932 L1922 1958 L2025 2061 Z"/><path class="fv4" d="M2025 2035 L1922 1932 L1922 1958 L2025 2061 Z" /></g><g class="o"><path transform="translate(7,14)" class="S ssv" d="M1457 2022 L1363 2116 L1363 2152 L1457 2058 Z"/><path class="sv3" d="M1457 2022 L1363 2116 L1363 2152 L1457 2058 Z" /></g><g class="o"><path transform="translate(4,8)" class="S sf" d="M1647 1746 L1152 2241 L1152 2261 L1647 1766 Z"/><path class="f4" d="M1647 1746 L1152 2241 L1152 2261 L1647 1766 Z" /></g><g class="o"><path transform="translate(5,10)" class="S sfh" d="M1341 1447 L1131 1237 L1163 1237 L1373 1447 Z"/><path class="fh6" d="M1341 1447 L1131 1237 L1163 1237 L1373 1447 Z" /></g><g class="o"><path transform="translate(4,8)" class="S ssh" d="M1510 1587 L1285 1362 L1313 1362 L1538 1587 Z"/><path class="sh1" d="M1510 1587 L1285 1362 L1313 1362 L1538 1587 Z" /></g><g class="o"><path transform="translate(4,8)" class="S sfv" d="M1828 1661 L1596 1429 L1596 1461 L1828 1693 Z"/><path class="fv2" d="M1828 1661 L1596 1429 L1596 1461 L1828 1693 Z" /></g><g class="o"><path transform="translate(5,10)" class="S sfv" d="M1483 1066 L1408 991 L1408 1031 L1483 1106 Z"/><path class="fv3" d="M1483 1066 L1408 991 L1408 1031 L1483 1106 Z" /></g><g class="o"><path transform="translate(8,16)" class="S sfh" d="M1895 1007 L1735 1167 L1749 1167 L1909 1007 Z"/><path class="fh3" d="M1895 1007 L1735 1167 L1749 1167 L1909 1007 Z" /></g><g class="o"><path transform="translate(5,10)" class="S sfv" d="M1759 1550 L1670 1461 L1670 1497 L1759 1586 Z"/><path class="fv2" d="M1759 1550 L1670 1461 L1670 1497 L1759 1586 Z" /></g><g class="o"><path transform="translate(2,4)" class="S sfh" d="M1922 1500 L1427 1005 L1461 1005 L1956 1500 Z"/><path class="fh4" d="M1922 1500 L1427 1005 L1461 1005 L1956 1500 Z" /></g><g class="o"><path transform="translate(5,10)" class="S sfh" d="M1661 1094 L1469 1286 L1503 1286 L1695 1094 Z"/><path class="fh4" d="M1661 1094 L1469 1286 L1503 1286 L1695 1094 Z" /></g><g class="o"><path transform="translate(9,18)" class="S sfh" d="M1519 1097 L1348 1268 L1386 1268 L1557 1097 Z"/><path class="fh5" d="M1519 1097 L1348 1268 L1386 1268 L1557 1097 Z" /></g><g class="o"><path transform="translate(2,4)" class="S sfv" d="M1853 1058 L1695 900 L1695 910 L1853 1068 Z"/><path class="fv3" d="M1853 1058 L1695 900 L1695 910 L1853 1068 Z" /></g><g class="o"><path transform="translate(7,14)" class="S ss" d="M1521 1091 L1310 1302 L1310 1328 L1521 1117 Z"/><path class="s3" d="M1521 1091 L1310 1302 L1310 1328 L1521 1117 Z" /></g></g><use href="#slashes" transform-origin="1500 1500" transform="rotate(180) scale(2)"/></g><rect x="1080" y="1080" width="840" height="840" stroke-width="10" class="o f5" /><use href="#slashes" transform-origin="1500 1500" transform="scale(.6)"/><use href="#slashes" transform-origin="1500 1500" transform="rotate(180) scale(.6)"/></svg>