<svg xmlns="http://www.w3.org/2000/svg" viewBox="750 750 1500 1500"><style>/*<![CDATA[*/svg{background:rgb(255,168,34);max-width:100vw;max-height:100vh}path{stroke-width:4}.o{opacity:.75}.S{opacity:.4}.sf{stroke:none;fill:black}.sfh{stroke:none;fill:url(#hs)}.sfv{stroke:none;fill:url(#vs)}.ss{stroke:black;fill:none}.ssh{stroke:url(#hs);fill:none}.ssv{stroke:url(#vs);fill:none}.s1{fill:none;stroke:rgb(34,34,34)}.f1{stroke:none;fill:rgb(34,34,34)}.sh1{fill:none;stroke:url(#h1)}.fh1{stroke:none;fill:url(#h1)}.sv1{fill:none;stroke:url(#v1)}.fv1{stroke:none;fill:url(#v1)}.s2{fill:none;stroke:rgb(26,27,75)}.f2{stroke:none;fill:rgb(26,27,75)}.sh2{fill:none;stroke:url(#h2)}.fh2{stroke:none;fill:url(#h2)}.sv2{fill:none;stroke:url(#v2)}.fv2{stroke:none;fill:url(#v2)}.s3{fill:none;stroke:rgb(62,68,145)}.f3{stroke:none;fill:rgb(62,68,145)}.sh3{fill:none;stroke:url(#h3)}.fh3{stroke:none;fill:url(#h3)}.sv3{fill:none;stroke:url(#v3)}.fv3{stroke:none;fill:url(#v3)}.s4{fill:none;stroke:rgb(58,158,253)}.f4{stroke:none;fill:rgb(58,158,253)}.sh4{fill:none;stroke:url(#h4)}.fh4{stroke:none;fill:url(#h4)}.sv4{fill:none;stroke:url(#v4)}.fv4{stroke:none;fill:url(#v4)}.s5{fill:none;stroke:rgb(41,42,115)}.f5{stroke:none;fill:rgb(41,42,115)}.sh5{fill:none;stroke:url(#h5)}.fh5{stroke:none;fill:url(#h5)}.sv5{fill:none;stroke:url(#v5)}.fv5{stroke:none;fill:url(#v5)}.s6{fill:none;stroke:rgb(255,255,255)}.f6{stroke:none;fill:rgb(255,255,255)}.sh6{fill:none;stroke:url(#h6)}.fh6{stroke:none;fill:url(#h6)}.sv6{fill:none;stroke:url(#v6)}.fv6{stroke:none;fill:url(#v6)}.s7{fill:none;stroke:rgb(255,0,0)}.f7{stroke:none;fill:rgb(255,0,0)}.sh7{fill:none;stroke:url(#h7)}.fh7{stroke:none;fill:url(#h7)}.sv7{fill:none;stroke:url(#v7)}.fv7{stroke:none;fill:url(#v7)}/*]]>*/</style><defs><linearGradient gradientTransform="rotate(90)" id="hs"><stop offset="20%" stop-color="#000" /><stop offset="95%" stop-color="rgba(0, 0, 0, 0)" /></linearGradient><linearGradient id="vs"><stop offset="20%" stop-color="#000" /><stop offset="95%" stop-color="rgba(0, 0, 0, 0)" /></linearGradient><linearGradient gradientTransform="rotate(90)" id="h1"><stop offset="20%" stop-color="rgba(34,34,34,1)" /><stop offset="95%" stop-color="rgba(34,34,34,0)" /></linearGradient><linearGradient id="v1"><stop offset="20%" stop-color="rgba(34,34,34,1)" /><stop offset="95%" stop-color="rgba(34,34,34,0)" /></linearGradient><linearGradient gradientTransform="rotate(90)" id="h2"><stop offset="20%" stop-color="rgba(26,27,75,1)" /><stop offset="95%" stop-color="rgba(26,27,75,0)" /></linearGradient><linearGradient id="v2"><stop offset="20%" stop-color="rgba(26,27,75,1)" /><stop offset="95%" stop-color="rgba(26,27,75,0)" /></linearGradient><linearGradient gradientTransform="rotate(90)" id="h3"><stop offset="20%" stop-color="rgba(62,68,145,1)" /><stop offset="95%" stop-color="rgba(62,68,145,0)" /></linearGradient><linearGradient id="v3"><stop offset="20%" stop-color="rgba(62,68,145,1)" /><stop offset="95%" stop-color="rgba(62,68,145,0)" /></linearGradient><linearGradient gradientTransform="rotate(90)" id="h4"><stop offset="20%" stop-color="rgba(58,158,253,1)" /><stop offset="95%" stop-color="rgba(58,158,253,0)" /></linearGradient><linearGradient id="v4"><stop offset="20%" stop-color="rgba(58,158,253,1)" /><stop offset="95%" stop-color="rgba(58,158,253,0)" /></linearGradient><linearGradient gradientTransform="rotate(90)" id="h5"><stop offset="20%" stop-color="rgba(41,42,115,1)" /><stop offset="95%" stop-color="rgba(41,42,115,0)" /></linearGradient><linearGradient id="v5"><stop offset="20%" stop-color="rgba(41,42,115,1)" /><stop offset="95%" stop-color="rgba(41,42,115,0)" /></linearGradient><linearGradient gradientTransform="rotate(90)" id="h6"><stop offset="20%" stop-color="rgba(255,255,255,1)" /><stop offset="95%" stop-color="rgba(255,255,255,0)" /></linearGradient><linearGradient id="v6"><stop offset="20%" stop-color="rgba(255,255,255,1)" /><stop offset="95%" stop-color="rgba(255,255,255,0)" /></linearGradient><linearGradient gradientTransform="rotate(90)" id="h7"><stop offset="20%" stop-color="rgba(255,0,0,1)" /><stop offset="95%" stop-color="rgba(255,0,0,0)" /></linearGradient><linearGradient id="v7"><stop offset="20%" stop-color="rgba(255,0,0,1)" /><stop offset="95%" stop-color="rgba(255,0,0,0)" /></linearGradient></defs><g transform-origin="1500 1500" transform="scale(2)" opacity=".2"><g id="slashes"><g class="o"><path transform="translate(7,14)" class="S sf" d="M1813 1776 L1486 2103 L1502 2103 L1829 1776 Z"/><path class="f3" d="M1813 1776 L1486 2103 L1502 2103 L1829 1776 Z" /></g><g class="o"><path transform="translate(6,12)" class="S sf" d="M1891 1991 L1787 1887 L1787 1903 L1891 2007 Z"/><path class="f4" d="M1891 1991 L1787 1887 L1787 1903 L1891 2007 Z" /></g><g class="o"><path transform="translate(7,14)" class="S sfv" d="M1083 1152 L1671 1740 L1671 1774 L1083 1186 Z"/><path class="fv5" d="M1083 1152 L1671 1740 L1671 1774 L1083 1186 Z" /></g><g class="o"><path transform="translate(2,4)" class="S sf" d="M1115 1968 L1180 1903 L1192 1903 L1127 1968 Z"/><path class="f3" d="M1115 1968 L1180 1903 L1192 1903 L1127 1968 Z" /></g><g class="o"><path transform="translate(5,10)" class="S sfh" d="M1326 2023 L1513 2210 L1529 2210 L1342 2023 Z"/><path class="fh7" d="M1326 2023 L1513 2210 L1529 2210 L1342 2023 Z" /></g><g class="o"><path transform="translate(7,14)" class="S sfv" d="M1707 1432 L1831 1556 L1831 1588 L1707 1464 Z"/><path class="fv5" d="M1707 1432 L1831 1556 L1831 1588 L1707 1464 Z" /></g><g class="o"><path transform="translate(7,14)" class="S sfv" d="M1124 1752 L956 1920 L956 1954 L1124 1786 Z"/><path class="fv2" d="M1124 1752 L956 1920 L956 1954 L1124 1786 Z" /></g><g class="o"><path transform="translate(4,8)" class="S sf" d="M969 1228 L810 1387 L838 1387 L997 1228 Z"/><path class="f6" d="M969 1228 L810 1387 L838 1387 L997 1228 Z" /></g><g class="o"><path transform="translate(6,12)" class="S sfh" d="M1068 1616 L1121 1669 L1141 1669 L1088 1616 Z"/><path class="fh4" d="M1068 1616 L1121 1669 L1141 1669 L1088 1616 Z" /></g><g class="o"><path transform="translate(8,16)" class="S sfh" d="M1245 1416 L1509 1152 L1519 1152 L1255 1416 Z"/><path class="fh7" d="M1245 1416 L1509 1152 L1519 1152 L1255 1416 Z" /></g><g class="o"><path transform="translate(8,16)" class="S sfv" d="M1332 1364 L1123 1573 L1123 1591 L1332 1382 Z"/><path class="fv1" d="M1332 1364 L1123 1573 L1123 1591 L1332 1382 Z" /></g><g class="o"><path transform="translate(3,6)" class="S ssh" d="M1683 1725 L1893 1935 L1911 1935 L1701 1725 Z"/><path class="sh4" d="M1683 1725 L1893 1935 L1911 1935 L1701 1725 Z" /></g><g class="o"><path transform="translate(6,12)" class="S sfh" d="M1286 1488 L1340 1434 L1364 1434 L1310 1488 Z"/><path class="fh4" d="M1286 1488 L1340 1434 L1364 1434 L1310 1488 Z" /></g><g class="o"><path transform="translate(8,16)" class="S sfv" d="M1102 1052 L571 521 L571 549 L1102 1080 Z"/><path class="fv2" d="M1102 1052 L571 521 L571 549 L1102 1080 Z" /></g><g class="o"><path transform="translate(3,6)" class="S sfv" d="M1234 1910 L1033 2111 L1033 2121 L1234 1920 Z"/><path class="fv5" d="M1234 1910 L1033 2111 L1033 2121 L1234 1920 Z" /></g><g class="o"><path transform="translate(7,14)" class="S sfv" d="M1979 1812 L2165 1626 L2165 1656 L1979 1842 Z"/><path class="fv2" d="M1979 1812 L2165 1626 L2165 1656 L1979 1842 Z" /></g><g class="o"><path transform="translate(9,18)" class="S ssv" d="M1026 1073 L806 853 L806 875 L1026 1095 Z"/><path class="sv5" d="M1026 1073 L806 853 L806 875 L1026 1095 Z" /></g><g class="o"><path transform="translate(9,18)" class="S ssh" d="M1642 1980 L1453 2169 L1465 2169 L1654 1980 Z"/><path class="sh5" d="M1642 1980 L1453 2169 L1465 2169 L1654 1980 Z" /></g><g class="o"><path transform="translate(8,16)" class="S sfh" d="M1209 1109 L1388 930 L1412 930 L1233 1109 Z"/><path class="fh3" d="M1209 1109 L1388 930 L1412 930 L1233 1109 Z" /></g><g class="o"><path transform="translate(7,14)" class="S sfv" d="M1106 1845 L731 2220 L731 2238 L1106 1863 Z"/><path class="fv2" d="M1106 1845 L731 2220 L731 2238 L1106 1863 Z" /></g><g class="o"><path transform="translate(7,14)" class="S sfh" d="M1752 1401 L1846 1495 L1856 1495 L1762 1401 Z"/><path class="fh6" d="M1752 1401 L1846 1495 L1856 1495 L1762 1401 Z" /></g><g class="o"><path transform="translate(2,4)" class="S sfv" d="M1788 1402 L1872 1486 L1872 1524 L1788 1440 Z"/><path class="fv3" d="M1788 1402 L1872 1486 L1872 1524 L1788 1440 Z" /></g><g class="o"><path transform="translate(4,8)" class="S sfh" d="M1327 1487 L1417 1577 L1431 1577 L1341 1487 Z"/><path class="fh2" d="M1327 1487 L1417 1577 L1431 1577 L1341 1487 Z" /></g><g class="o"><path transform="translate(5,10)" class="S sfv" d="M1970 1603 L1911 1544 L1911 1574 L1970 1633 Z"/><path class="fv3" d="M1970 1603 L1911 1544 L1911 1574 L1970 1633 Z" /></g><g class="o"><path transform="translate(5,10)" class="S ssh" d="M1733 1825 L2294 2386 L2324 2386 L1763 1825 Z"/><path class="sh4" d="M1733 1825 L2294 2386 L2324 2386 L1763 1825 Z" /></g><g class="o"><path transform="translate(7,14)" class="S sfh" d="M1960 996 L1711 747 L1745 747 L1994 996 Z"/><path class="fh4" d="M1960 996 L1711 747 L1745 747 L1994 996 Z" /></g><g class="o"><path transform="translate(6,12)" class="S sf" d="M1043 1905 L1101 1963 L1129 1963 L1071 1905 Z"/><path class="f7" d="M1043 1905 L1101 1963 L1129 1963 L1071 1905 Z" /></g><g class="o"><path transform="translate(7,14)" class="S sfv" d="M1563 1665 L1767 1869 L1767 1891 L1563 1687 Z"/><path class="fv1" d="M1563 1665 L1767 1869 L1767 1891 L1563 1687 Z" /></g><g class="o"><path transform="translate(2,4)" class="S sfv" d="M1501 1245 L976 720 L976 742 L1501 1267 Z"/><path class="fv7" d="M1501 1245 L976 720 L976 742 L1501 1267 Z" /></g><g class="o"><path transform="translate(8,16)" class="S ssh" d="M1276 1061 L1084 869 L1102 869 L1294 1061 Z"/><path class="sh2" d="M1276 1061 L1084 869 L1102 869 L1294 1061 Z" /></g><g class="o"><path transform="translate(7,14)" class="S sfv" d="M1940 1705 L2184 1949 L2184 1975 L1940 1731 Z"/><path class="fv6" d="M1940 1705 L2184 1949 L2184 1975 L1940 1731 Z" /></g><g class="o"><path transform="translate(5,10)" class="S sfh" d="M1910 1618 L2609 2317 L2645 2317 L1946 1618 Z"/><path class="fh6" d="M1910 1618 L2609 2317 L2645 2317 L1946 1618 Z" /></g><g class="o"><path transform="translate(8,16)" class="S sfv" d="M1998 1245 L2233 1480 L2233 1518 L1998 1283 Z"/><path class="fv3" d="M1998 1245 L2233 1480 L2233 1518 L1998 1283 Z" /></g><g class="o"><path transform="translate(2,4)" class="S sf" d="M1887 975 L1755 843 L1755 867 L1887 999 Z"/><path class="f3" d="M1887 975 L1755 843 L1755 867 L1887 999 Z" /></g><g class="o"><path transform="translate(9,18)" class="S sf" d="M1744 1332 L1837 1425 L1837 1451 L1744 1358 Z"/><path class="f6" d="M1744 1332 L1837 1425 L1837 1451 L1744 1358 Z" /></g><g class="o"><path transform="translate(3,6)" class="S sfh" d="M1204 1816 L1326 1694 L1356 1694 L1234 1816 Z"/><path class="fh7" d="M1204 1816 L1326 1694 L1356 1694 L1234 1816 Z" /></g><g class="o"><path transform="translate(2,4)" class="S ssh" d="M1892 1967 L1955 1904 L1965 1904 L1902 1967 Z"/><path class="sh1" d="M1892 1967 L1955 1904 L1965 1904 L1902 1967 Z" /></g><g class="o"><path transform="translate(8,16)" class="S ssh" d="M1816 1725 L2056 1485 L2064 1485 L1824 1725 Z"/><path class="sh5" d="M1816 1725 L2056 1485 L2064 1485 L1824 1725 Z" /></g><g class="o"><path transform="translate(3,6)" class="S ss" d="M1088 1040 L1147 1099 L1147 1121 L1088 1062 Z"/><path class="s1" d="M1088 1040 L1147 1099 L1147 1121 L1088 1062 Z" /></g><g class="o"><path transform="translate(7,14)" class="S sf" d="M1989 1097 L2072 1014 L2072 1022 L1989 1105 Z"/><path class="f4" d="M1989 1097 L2072 1014 L2072 1022 L1989 1105 Z" /></g><g class="o"><path transform="translate(8,16)" class="S sfh" d="M1398 1493 L1473 1418 L1487 1418 L1412 1493 Z"/><path class="fh7" d="M1398 1493 L1473 1418 L1487 1418 L1412 1493 Z" /></g><g class="o"><path transform="translate(6,12)" class="S sfh" d="M1998 1472 L1908 1382 L1926 1382 L2016 1472 Z"/><path class="fh5" d="M1998 1472 L1908 1382 L1926 1382 L2016 1472 Z" /></g><g class="o"><path transform="translate(4,8)" class="S sf" d="M1162 1264 L1065 1361 L1077 1361 L1174 1264 Z"/><path class="f7" d="M1162 1264 L1065 1361 L1077 1361 L1174 1264 Z" /></g><g class="o"><path transform="translate(8,16)" class="S sfh" d="M1919 1361 L1986 1294 L2018 1294 L1951 1361 Z"/><path class="fh6" d="M1919 1361 L1986 1294 L2018 1294 L1951 1361 Z" /></g><g class="o"><path transform="translate(9,18)" class="S sfh" d="M982 1129 L1084 1231 L1118 1231 L1016 1129 Z"/><path class="fh5" d="M982 1129 L1084 1231 L1118 1231 L1016 1129 Z" /></g><g class="o"><path transform="translate(2,4)" class="S sfh" d="M1380 1744 L1632 1492 L1652 1492 L1400 1744 Z"/><path class="fh1" d="M1380 1744 L1632 1492 L1652 1492 L1400 1744 Z" /></g><g class="o"><path transform="translate(7,14)" class="S sfv" d="M1457 1216 L1304 1063 L1304 1091 L1457 1244 Z"/><path class="fv5" d="M1457 1216 L1304 1063 L1304 1091 L1457 1244 Z" /></g><g class="o"><path transform="translate(6,12)" class="S sfv" d="M1762 1944 L1915 1791 L1915 1809 L1762 1962 Z"/><path class="fv3" d="M1762 1944 L1915 1791 L1915 1809 L1762 1962 Z" /></g><g class="o"><path transform="translate(5,10)" class="S ss" d="M1329 1768 L1415 1682 L1415 1720 L1329 1806 Z"/><path class="s3" d="M1329 1768 L1415 1682 L1415 1720 L1329 1806 Z" /></g><g class="o"><path transform="translate(6,12)" class="S sfh" d="M1604 1208 L2063 1667 L2091 1667 L1632 1208 Z"/><path class="fh4" d="M1604 1208 L2063 1667 L2091 1667 L1632 1208 Z" /></g><g class="o"><path transform="translate(3,6)" class="S sfh" d="M1525 1386 L1879 1032 L1911 1032 L1557 1386 Z"/><path class="fh1" d="M1525 1386 L1879 1032 L1911 1032 L1557 1386 Z" /></g><g class="o"><path transform="translate(7,14)" class="S sf" d="M1908 1746 L2104 1550 L2104 1584 L1908 1780 Z"/><path class="f1" d="M1908 1746 L2104 1550 L2104 1584 L1908 1780 Z" /></g><g class="o"><path transform="translate(9,18)" class="S ssv" d="M1982 1654 L1812 1824 L1812 1854 L1982 1684 Z"/><path class="sv2" d="M1982 1654 L1812 1824 L1812 1854 L1982 1684 Z" /></g><g class="o"><path transform="translate(6,12)" class="S sfh" d="M1278 991 L1409 1122 L1423 1122 L1292 991 Z"/><path class="fh4" d="M1278 991 L1409 1122 L1423 1122 L1292 991 Z" /></g><g class="o"><path transform="translate(6,12)" class="S sf" d="M1562 1295 L1780 1513 L1780 1541 L1562 1323 Z"/><path class="f1" d="M1562 1295 L1780 1513 L1780 1541 L1562 1323 Z" /></g><g class="o"><path transform="translate(5,10)" class="S ssv" d="M1841 1401 L1780 1462 L1780 1476 L1841 1415 Z"/><path class="sv6" d="M1841 1401 L1780 1462 L1780 1476 L1841 1415 Z" /></g><g class="o"><path transform="translate(2,4)" class="S ss" d="M1875 1692 L1978 1795 L2006 1795 L1903 1692 Z"/><path class="s5" d="M1875 1692 L1978 1795 L2006 1795 L1903 1692 Z" /></g><g class="o"><path transform="translate(9,18)" class="S sfh" d="M1781 1342 L1615 1508 L1643 1508 L1809 1342 Z"/><path class="fh2" d="M1781 1342 L1615 1508 L1643 1508 L1809 1342 Z" /></g><g class="o"><path transform="translate(7,14)" class="S sf" d="M1400 1632 L1480 1552 L1496 1552 L1416 1632 Z"/><path class="f2" d="M1400 1632 L1480 1552 L1496 1552 L1416 1632 Z" /></g><g class="o"><path transform="translate(7,14)" class="S sfv" d="M958 2003 L1178 1783 L1178 1821 L958 2041 Z"/><path class="fv2" d="M958 2003 L1178 1783 L1178 1821 L958 2041 Z" /></g><g class="o"><path transform="translate(7,14)" class="S sf" d="M1295 1480 L1183 1368 L1197 1368 L1309 1480 Z"/><path class="f7" d="M1295 1480 L1183 1368 L1197 1368 L1309 1480 Z" /></g><g class="o"><path transform="translate(2,4)" class="S sf" d="M1016 950 L896 830 L928 830 L1048 950 Z"/><path class="f3" d="M1016 950 L896 830 L928 830 L1048 950 Z" /></g><g class="o"><path transform="translate(8,16)" class="S sfh" d="M1898 1892 L1999 1993 L2009 1993 L1908 1892 Z"/><path class="fh1" d="M1898 1892 L1999 1993 L2009 1993 L1908 1892 Z" /></g><g class="o"><path transform="translate(2,4)" class="S sfh" d="M1449 956 L1314 821 L1344 821 L1479 956 Z"/><path class="fh3" d="M1449 956 L1314 821 L1344 821 L1479 956 Z" /></g><g class="o"><path transform="translate(2,4)" class="S sfv" d="M1710 1057 L1530 877 L1530 915 L1710 1095 Z"/><path class="fv3" d="M1710 1057 L1530 877 L1530 915 L1710 1095 Z" /></g><g class="o"><path transform="translate(7,14)" class="S sf" d="M1856 1536 L1792 1472 L1818 1472 L1882 1536 Z"/><path class="f4" d="M1856 1536 L1792 1472 L1818 1472 L1882 1536 Z" /></g><g class="o"><path transform="translate(2,4)" class="S ssv" d="M955 1527 L1022 1594 L1022 1622 L955 1555 Z"/><path class="sv6" d="M955 1527 L1022 1594 L1022 1622 L955 1555 Z" /></g><g class="o"><path transform="translate(8,16)" class="S sfv" d="M1027 1851 L601 1425 L601 1451 L1027 1877 Z"/><path class="fv5" d="M1027 1851 L601 1425 L601 1451 L1027 1877 Z" /></g><g class="o"><path transform="translate(3,6)" class="S sfv" d="M1528 1439 L1939 1850 L1939 1880 L1528 1469 Z"/><path class="fv5" d="M1528 1439 L1939 1850 L1939 1880 L1528 1469 Z" /></g><g class="o"><path transform="translate(9,18)" class="S sfh" d="M1298 1702 L1520 1480 L1532 1480 L1310 1702 Z"/><path class="fh7" d="M1298 1702 L1520 1480 L1532 1480 L1310 1702 Z" /></g><g class="o"><path transform="translate(5,10)" class="S sfh" d="M1607 1602 L1364 1359 L1392 1359 L1635 1602 Z"/><path class="fh7" d="M1607 1602 L1364 1359 L1392 1359 L1635 1602 Z" /></g><g class="o"><path transform="translate(9,18)" class="S sf" d="M1236 1251 L1426 1441 L1426 1473 L1236 1283 Z"/><path class="f1" d="M1236 1251 L1426 1441 L1426 1473 L1236 1283 Z" /></g><g class="o"><path transform="translate(3,6)" class="S sfv" d="M1844 975 L2060 1191 L2060 1213 L1844 997 Z"/><path class="fv5" d="M1844 975 L2060 1191 L2060 1213 L1844 997 Z" /></g><g class="o"><path transform="translate(2,4)" class="S sfh" d="M1812 1192 L1999 1005 L2011 1005 L1824 1192 Z"/><path class="fh3" d="M1812 1192 L1999 1005 L2011 1005 L1824 1192 Z" /></g><g class="o"><path transform="translate(7,14)" class="S sfv" d="M985 990 L1201 1206 L1201 1218 L985 1002 Z"/><path class="fv2" d="M985 990 L1201 1206 L1201 1218 L985 1002 Z" /></g><g class="o"><path transform="translate(9,18)" class="S sfv" d="M1020 1195 L1104 1279 L1104 1303 L1020 1219 Z"/><path class="fv3" d="M1020 1195 L1104 1279 L1104 1303 L1020 1219 Z" /></g><g class="o"><path transform="translate(9,18)" class="S sfv" d="M1434 1812 L1628 2006 L1628 2022 L1434 1828 Z"/><path class="fv1" d="M1434 1812 L1628 2006 L1628 2022 L1434 1828 Z" /></g><g class="o"><path transform="translate(9,18)" class="S sfv" d="M1243 943 L628 1558 L628 1572 L1243 957 Z"/><path class="fv2" d="M1243 943 L628 1558 L628 1572 L1243 957 Z" /></g><g class="o"><path transform="translate(6,12)" class="S sf" d="M2020 1068 L2202 1250 L2202 1268 L2020 1086 Z"/><path class="f2" d="M2020 1068 L2202 1250 L2202 1268 L2020 1086 Z" /></g><g class="o"><path transform="translate(3,6)" class="S ss" d="M1275 1577 L1035 1817 L1073 1817 L1313 1577 Z"/><path class="s7" d="M1275 1577 L1035 1817 L1073 1817 L1313 1577 Z" /></g><g class="o"><path transform="translate(5,10)" class="S sfv" d="M1234 1555 L1463 1784 L1463 1800 L1234 1571 Z"/><path class="fv6" d="M1234 1555 L1463 1784 L1463 1800 L1234 1571 Z" /></g><g class="o"><path transform="translate(8,16)" class="S sfh" d="M1401 1416 L1230 1587 L1242 1587 L1413 1416 Z"/><path class="fh4" d="M1401 1416 L1230 1587 L1242 1587 L1413 1416 Z" /></g><g class="o"><path transform="translate(8,16)" class="S sfh" d="M1988 1801 L2459 2272 L2493 2272 L2022 1801 Z"/><path class="fh3" d="M1988 1801 L2459 2272 L2493 2272 L2022 1801 Z" /></g><g class="o"><path transform="translate(4,8)" class="S sf" d="M1156 1394 L1209 1447 L1241 1447 L1188 1394 Z"/><path class="f1" d="M1156 1394 L1209 1447 L1241 1447 L1188 1394 Z" /></g><g class="o"><path transform="translate(3,6)" class="S sfh" d="M1346 1649 L1450 1545 L1488 1545 L1384 1649 Z"/><path class="fh5" d="M1346 1649 L1450 1545 L1488 1545 L1384 1649 Z" /></g><g class="o"><path transform="translate(4,8)" class="S sf" d="M1684 1819 L1783 1720 L1783 1730 L1684 1829 Z"/><path class="f7" d="M1684 1819 L1783 1720 L1783 1730 L1684 1829 Z" /></g><g class="o"><path transform="translate(6,12)" class="S ssh" d="M1768 1455 L2296 1983 L2318 1983 L1790 1455 Z"/><path class="sh5" d="M1768 1455 L2296 1983 L2318 1983 L1790 1455 Z" /></g><g class="o"><path transform="translate(3,6)" class="S sfh" d="M1934 1521 L2078 1377 L2088 1377 L1944 1521 Z"/><path class="fh4" d="M1934 1521 L2078 1377 L2088 1377 L1944 1521 Z" /></g><g class="o"><path transform="translate(3,6)" class="S sfh" d="M1240 1280 L1386 1134 L1396 1134 L1250 1280 Z"/><path class="fh1" d="M1240 1280 L1386 1134 L1396 1134 L1250 1280 Z" /></g><g class="o"><path transform="translate(9,18)" class="S sfv" d="M1001 1944 L1200 1745 L1200 1771 L1001 1970 Z"/><path class="fv5" d="M1001 1944 L1200 1745 L1200 1771 L1001 1970 Z" /></g><g class="o"><path transform="translate(3,6)" class="S sf" d="M1928 1631 L2071 1774 L2105 1774 L1962 1631 Z"/><path class="f3" d="M1928 1631 L2071 1774 L2105 1774 L1962 1631 Z" /></g><g class="o"><path transform="translate(8,16)" class="S sfv" d="M1336 1447 L1281 1502 L1281 1532 L1336 1477 Z"/><path class="fv5" d="M1336 1447 L1281 1502 L1281 1532 L1336 1477 Z" /></g><g class="o"><path transform="translate(8,16)" class="S sfh" d="M1148 1925 L1835 1238 L1871 1238 L1184 1925 Z"/><path class="fh3" d="M1148 1925 L1835 1238 L1871 1238 L1184 1925 Z" /></g><g class="o"><path transform="translate(6,12)" class="S sfv" d="M1633 1958 L940 2651 L940 2679 L1633 1986 Z"/><path class="fv7" d="M1633 1958 L940 2651 L940 2679 L1633 1986 Z" /></g><g class="o"><path transform="translate(6,12)" class="S sfv" d="M1332 1382 L1403 1311 L1403 1331 L1332 1402 Z"/><path class="fv5" d="M1332 1382 L1403 1311 L1403 1331 L1332 1402 Z" /></g><g class="o"><path transform="translate(3,6)" class="S sfh" d="M1032 1263 L966 1329 L990 1329 L1056 1263 Z"/><path class="fh6" d="M1032 1263 L966 1329 L990 1329 L1056 1263 Z" /></g><g class="o"><path transform="translate(7,14)" class="S sfh" d="M1405 1144 L1259 998 L1287 998 L1433 1144 Z"/><path class="fh3" d="M1405 1144 L1259 998 L1287 998 L1433 1144 Z" /></g><g class="o"><path transform="translate(3,6)" class="S sfh" d="M1412 1628 L1203 1419 L1229 1419 L1438 1628 Z"/><path class="fh1" d="M1412 1628 L1203 1419 L1229 1419 L1438 1628 Z" /></g><g class="o"><path transform="translate(7,14)" class="S ssv" d="M1283 1050 L1373 960 L1373 974 L1283 1064 Z"/><path class="sv7" d="M1283 1050 L1373 960 L1373 974 L1283 1064 Z" /></g><g class="o"><path transform="translate(3,6)" class="S sfv" d="M1096 1946 L1233 2083 L1233 2109 L1096 1972 Z"/><path class="fv3" d="M1096 1946 L1233 2083 L1233 2109 L1096 1972 Z" /></g><g class="o"><path transform="translate(2,4)" class="S ssh" d="M1943 1440 L1708 1205 L1724 1205 L1959 1440 Z"/><path class="sh2" d="M1943 1440 L1708 1205 L1724 1205 L1959 1440 Z" /></g><g class="o"><path transform="translate(4,8)" class="S ssh" d="M1750 1845 L1995 2090 L2023 2090 L1778 1845 Z"/><path class="sh6" d="M1750 1845 L1995 2090 L2023 2090 L1778 1845 Z" /></g><g class="o"><path transform="translate(8,16)" class="S ss" d="M1853 1061 L2020 894 L2020 916 L1853 1083 Z"/><path class="s2" d="M1853 1061 L2020 894 L2020 916 L1853 1083 Z" /></g><g class="o"><path transform="translate(5,10)" class="S sfh" d="M1042 969 L1224 787 L1252 787 L1070 969 Z"/><path class="fh4" d="M1042 969 L1224 787 L1252 787 L1070 969 Z" /></g><g class="o"><path transform="translate(3,6)" class="S sf" d="M1720 1963 L1833 2076 L1871 2076 L1758 1963 Z"/><path class="f6" d="M1720 1963 L1833 2076 L1871 2076 L1758 1963 Z" /></g><g class="o"><path transform="translate(9,18)" class="S sf" d="M1224 1550 L882 1208 L882 1216 L1224 1558 Z"/><path class="f7" d="M1224 1550 L882 1208 L882 1216 L1224 1558 Z" /></g><g class="o"><path transform="translate(9,18)" class="S sfh" d="M1680 1027 L1776 1123 L1800 1123 L1704 1027 Z"/><path class="fh5" d="M1680 1027 L1776 1123 L1800 1123 L1704 1027 Z" /></g><g class="o"><path transform="translate(5,10)" class="S sfv" d="M1828 1827 L2053 1602 L2053 1612 L1828 1837 Z"/><path class="fv1" d="M1828 1827 L2053 1602 L2053 1612 L1828 1837 Z" /></g><g class="o"><path transform="translate(3,6)" class="S sfv" d="M1245 1590 L1060 1405 L1060 1421 L1245 1606 Z"/><path class="fv7" d="M1245 1590 L1060 1405 L1060 1421 L1245 1606 Z" /></g><g class="o"><path transform="translate(5,10)" class="S sfv" d="M1128 1784 L1210 1702 L1210 1714 L1128 1796 Z"/><path class="fv4" d="M1128 1784 L1210 1702 L1210 1714 L1128 1796 Z" /></g><g class="o"><path transform="translate(8,16)" class="S sf" d="M1824 2022 L2004 1842 L2018 1842 L1838 2022 Z"/><path class="f4" d="M1824 2022 L2004 1842 L2018 1842 L1838 2022 Z" /></g><g class="o"><path transform="translate(5,10)" class="S sf" d="M1769 1584 L1910 1725 L1910 1743 L1769 1602 Z"/><path class="f7" d="M1769 1584 L1910 1725 L1910 1743 L1769 1602 Z" /></g><g class="o"><path transform="translate(3,6)" class="S sfv" d="M1250 1562 L1952 2264 L1952 2284 L1250 1582 Z"/><path class="fv2" d="M1250 1562 L1952 2264 L1952 2284 L1250 1582 Z" /></g><g class="o"><path transform="translate(6,12)" class="S sfv" d="M1565 1423 L1676 1534 L1676 1560 L1565 1449 Z"/><path class="fv1" d="M1565 1423 L1676 1534 L1676 1560 L1565 1449 Z" /></g><g class="o"><path transform="translate(7,14)" class="S sfv" d="M1415 1985 L1471 1929 L1471 1961 L1415 2017 Z"/><path class="fv4" d="M1415 1985 L1471 1929 L1471 1961 L1415 2017 Z" /></g><g class="o"><path transform="translate(7,14)" class="S ssv" d="M1068 951 L381 1638 L381 1666 L1068 979 Z"/><path class="sv1" d="M1068 951 L381 1638 L381 1666 L1068 979 Z" /></g><g class="o"><path transform="translate(5,10)" class="S sf" d="M1905 2046 L1846 1987 L1858 1987 L1917 2046 Z"/><path class="f7" d="M1905 2046 L1846 1987 L1858 1987 L1917 2046 Z" /></g><g class="o"><path transform="translate(3,6)" class="S ssv" d="M1230 1785 L1388 1943 L1388 1979 L1230 1821 Z"/><path class="sv1" d="M1230 1785 L1388 1943 L1388 1979 L1230 1821 Z" /></g><g class="o"><path transform="translate(9,18)" class="S sfh" d="M1713 1216 L1847 1350 L1871 1350 L1737 1216 Z"/><path class="fh4" d="M1713 1216 L1847 1350 L1871 1350 L1737 1216 Z" /></g><g class="o"><path transform="translate(5,10)" class="S sfv" d="M1980 1125 L2069 1214 L2069 1234 L1980 1145 Z"/><path class="fv3" d="M1980 1125 L2069 1214 L2069 1234 L1980 1145 Z" /></g></g><use href="#slashes" transform-origin="1500 1500" transform="rotate(180) scale(2)"/></g><rect x="1080" y="1080" width="840" height="840" stroke-width="10" class="o f1" /><use href="#slashes" transform-origin="1500 1500" transform="scale(.9)"/><use href="#slashes" transform-origin="1500 1500" transform="rotate(180) scale(.9)"/></svg>