<svg xmlns="http://www.w3.org/2000/svg" viewBox="750 750 1500 1500"><style>/*<![CDATA[*/svg{background:rgb(84,13,110);max-width:100vw;max-height:100vh}path{stroke-width:4}.o{opacity:.75}.S{opacity:.4}.sf{stroke:none;fill:black}.sfh{stroke:none;fill:url(#hs)}.sfv{stroke:none;fill:url(#vs)}.ss{stroke:black;fill:none}.ssh{stroke:url(#hs);fill:none}.ssv{stroke:url(#vs);fill:none}.s1{fill:none;stroke:rgb(238,66,102)}.f1{stroke:none;fill:rgb(238,66,102)}.sh1{fill:none;stroke:url(#h1)}.fh1{stroke:none;fill:url(#h1)}.sv1{fill:none;stroke:url(#v1)}.fv1{stroke:none;fill:url(#v1)}.s2{fill:none;stroke:rgb(34,34,34)}.f2{stroke:none;fill:rgb(34,34,34)}.sh2{fill:none;stroke:url(#h2)}.fh2{stroke:none;fill:url(#h2)}.sv2{fill:none;stroke:url(#v2)}.fv2{stroke:none;fill:url(#v2)}.s3{fill:none;stroke:rgb(14,173,105)}.f3{stroke:none;fill:rgb(14,173,105)}.sh3{fill:none;stroke:url(#h3)}.fh3{stroke:none;fill:url(#h3)}.sv3{fill:none;stroke:url(#v3)}.fv3{stroke:none;fill:url(#v3)}.s4{fill:none;stroke:rgb(255,210,63)}.f4{stroke:none;fill:rgb(255,210,63)}.sh4{fill:none;stroke:url(#h4)}.fh4{stroke:none;fill:url(#h4)}.sv4{fill:none;stroke:url(#v4)}.fv4{stroke:none;fill:url(#v4)}.s5{fill:none;stroke:rgb(59,206,172)}.f5{stroke:none;fill:rgb(59,206,172)}.sh5{fill:none;stroke:url(#h5)}.fh5{stroke:none;fill:url(#h5)}.sv5{fill:none;stroke:url(#v5)}.fv5{stroke:none;fill:url(#v5)}.s6{fill:none;stroke:rgb(255,255,255)}.f6{stroke:none;fill:rgb(255,255,255)}.sh6{fill:none;stroke:url(#h6)}.fh6{stroke:none;fill:url(#h6)}.sv6{fill:none;stroke:url(#v6)}.fv6{stroke:none;fill:url(#v6)}.s7{fill:none;stroke:rgb(255,255,0)}.f7{stroke:none;fill:rgb(255,255,0)}.sh7{fill:none;stroke:url(#h7)}.fh7{stroke:none;fill:url(#h7)}.sv7{fill:none;stroke:url(#v7)}.fv7{stroke:none;fill:url(#v7)}/*]]>*/</style><defs><linearGradient gradientTransform="rotate(90)" id="hs"><stop offset="20%" stop-color="#000" /><stop offset="95%" stop-color="rgba(0, 0, 0, 0)" /></linearGradient><linearGradient id="vs"><stop offset="20%" stop-color="#000" /><stop offset="95%" stop-color="rgba(0, 0, 0, 0)" /></linearGradient><linearGradient gradientTransform="rotate(90)" id="h1"><stop offset="20%" stop-color="rgba(238,66,102,1)" /><stop offset="95%" stop-color="rgba(238,66,102,0)" /></linearGradient><linearGradient id="v1"><stop offset="20%" stop-color="rgba(238,66,102,1)" /><stop offset="95%" stop-color="rgba(238,66,102,0)" /></linearGradient><linearGradient gradientTransform="rotate(90)" id="h2"><stop offset="20%" stop-color="rgba(34,34,34,1)" /><stop offset="95%" stop-color="rgba(34,34,34,0)" /></linearGradient><linearGradient id="v2"><stop offset="20%" stop-color="rgba(34,34,34,1)" /><stop offset="95%" stop-color="rgba(34,34,34,0)" /></linearGradient><linearGradient gradientTransform="rotate(90)" id="h3"><stop offset="20%" stop-color="rgba(14,173,105,1)" /><stop offset="95%" stop-color="rgba(14,173,105,0)" /></linearGradient><linearGradient id="v3"><stop offset="20%" stop-color="rgba(14,173,105,1)" /><stop offset="95%" stop-color="rgba(14,173,105,0)" /></linearGradient><linearGradient gradientTransform="rotate(90)" id="h4"><stop offset="20%" stop-color="rgba(255,210,63,1)" /><stop offset="95%" stop-color="rgba(255,210,63,0)" /></linearGradient><linearGradient id="v4"><stop offset="20%" stop-color="rgba(255,210,63,1)" /><stop offset="95%" stop-color="rgba(255,210,63,0)" /></linearGradient><linearGradient gradientTransform="rotate(90)" id="h5"><stop offset="20%" stop-color="rgba(59,206,172,1)" /><stop offset="95%" stop-color="rgba(59,206,172,0)" /></linearGradient><linearGradient id="v5"><stop offset="20%" stop-color="rgba(59,206,172,1)" /><stop offset="95%" stop-color="rgba(59,206,172,0)" /></linearGradient><linearGradient gradientTransform="rotate(90)" id="h6"><stop offset="20%" stop-color="rgba(255,255,255,1)" /><stop offset="95%" stop-color="rgba(255,255,255,0)" /></linearGradient><linearGradient id="v6"><stop offset="20%" stop-color="rgba(255,255,255,1)" /><stop offset="95%" stop-color="rgba(255,255,255,0)" /></linearGradient><linearGradient gradientTransform="rotate(90)" id="h7"><stop offset="20%" stop-color="rgba(255,255,0,1)" /><stop offset="95%" stop-color="rgba(255,255,0,0)" /></linearGradient><linearGradient id="v7"><stop offset="20%" stop-color="rgba(255,255,0,1)" /><stop offset="95%" stop-color="rgba(255,255,0,0)" /></linearGradient></defs><g transform-origin="1500 1500" transform="scale(2)" opacity=".2"><g id="slashes"><g class="o"><path transform="translate(3,6)" class="S sf" d="M1896 1118 L2057 1279 L2177 1279 L2016 1118 Z"/><path class="f6" d="M1896 1118 L2057 1279 L2177 1279 L2016 1118 Z" /></g><g class="o"><path transform="translate(8,16)" class="S sfv" d="M1692 1791 L1881 1980 L1881 2132 L1692 1943 Z"/><path class="fv5" d="M1692 1791 L1881 1980 L1881 2132 L1692 1943 Z" /></g><g class="o"><path transform="translate(5,10)" class="S ssh" d="M1981 1668 L2482 1167 L2492 1167 L1991 1668 Z"/><path class="sh7" d="M1981 1668 L2482 1167 L2492 1167 L1991 1668 Z" /></g><g class="o"><path transform="translate(9,18)" class="S sfh" d="M1991 981 L2052 920 L2068 920 L2007 981 Z"/><path class="fh3" d="M1991 981 L2052 920 L2068 920 L2007 981 Z" /></g><g class="o"><path transform="translate(7,14)" class="S sfv" d="M1052 1948 L1385 2281 L1385 2353 L1052 2020 Z"/><path class="fv5" d="M1052 1948 L1385 2281 L1385 2353 L1052 2020 Z" /></g><g class="o"><path transform="translate(4,8)" class="S sfv" d="M1271 1884 L1448 1707 L1448 1723 L1271 1900 Z"/><path class="fv3" d="M1271 1884 L1448 1707 L1448 1723 L1271 1900 Z" /></g><g class="o"><path transform="translate(6,12)" class="S ssv" d="M1699 1233 L1772 1306 L1772 1410 L1699 1337 Z"/><path class="sv2" d="M1699 1233 L1772 1306 L1772 1410 L1699 1337 Z" /></g><g class="o"><path transform="translate(7,14)" class="S ssv" d="M1188 937 L1241 884 L1241 924 L1188 977 Z"/><path class="sv3" d="M1188 937 L1241 884 L1241 924 L1188 977 Z" /></g><g class="o"><path transform="translate(9,18)" class="S sf" d="M1264 1364 L1403 1503 L1475 1503 L1336 1364 Z"/><path class="f7" d="M1264 1364 L1403 1503 L1475 1503 L1336 1364 Z" /></g><g class="o"><path transform="translate(9,18)" class="S sfv" d="M1843 984 L1916 911 L1916 937 L1843 1010 Z"/><path class="fv6" d="M1843 984 L1916 911 L1916 937 L1843 1010 Z" /></g><g class="o"><path transform="translate(9,18)" class="S sfh" d="M1354 1754 L1537 1571 L1625 1571 L1442 1754 Z"/><path class="fh3" d="M1354 1754 L1537 1571 L1625 1571 L1442 1754 Z" /></g><g class="o"><path transform="translate(9,18)" class="S sf" d="M1650 954 L1833 771 L1833 875 L1650 1058 Z"/><path class="f4" d="M1650 954 L1833 771 L1833 875 L1650 1058 Z" /></g><g class="o"><path transform="translate(8,16)" class="S sfv" d="M1727 1470 L2216 1959 L2216 2039 L1727 1550 Z"/><path class="fv6" d="M1727 1470 L2216 1959 L2216 2039 L1727 1550 Z" /></g><g class="o"><path transform="translate(5,10)" class="S sf" d="M1838 1354 L1991 1201 L2023 1201 L1870 1354 Z"/><path class="f4" d="M1838 1354 L1991 1201 L2023 1201 L1870 1354 Z" /></g><g class="o"><path transform="translate(6,12)" class="S sfh" d="M1432 1968 L1584 1816 L1720 1816 L1568 1968 Z"/><path class="fh6" d="M1432 1968 L1584 1816 L1720 1816 L1568 1968 Z" /></g><g class="o"><path transform="translate(3,6)" class="S ssv" d="M1522 1778 L1756 2012 L1756 2108 L1522 1874 Z"/><path class="sv2" d="M1522 1778 L1756 2012 L1756 2108 L1522 1874 Z" /></g><g class="o"><path transform="translate(8,16)" class="S sfv" d="M1776 1650 L1878 1752 L1878 1864 L1776 1762 Z"/><path class="fv5" d="M1776 1650 L1878 1752 L1878 1864 L1776 1762 Z" /></g><g class="o"><path transform="translate(4,8)" class="S ss" d="M1577 1662 L1813 1898 L1813 1922 L1577 1686 Z"/><path class="s4" d="M1577 1662 L1813 1898 L1813 1922 L1577 1686 Z" /></g><g class="o"><path transform="translate(7,14)" class="S sf" d="M1518 1408 L1630 1296 L1742 1296 L1630 1408 Z"/><path class="f2" d="M1518 1408 L1630 1296 L1742 1296 L1630 1408 Z" /></g><g class="o"><path transform="translate(9,18)" class="S sfh" d="M1537 1206 L1751 1420 L1783 1420 L1569 1206 Z"/><path class="fh1" d="M1537 1206 L1751 1420 L1783 1420 L1569 1206 Z" /></g><g class="o"><path transform="translate(5,10)" class="S sfh" d="M1766 1027 L1865 1126 L1899 1126 L1800 1027 Z"/><path class="fh3" d="M1766 1027 L1865 1126 L1899 1126 L1800 1027 Z" /></g><g class="o"><path transform="translate(8,16)" class="S ssv" d="M1379 1604 L2078 905 L2078 1033 L1379 1732 Z"/><path class="sv6" d="M1379 1604 L2078 905 L2078 1033 L1379 1732 Z" /></g><g class="o"><path transform="translate(7,14)" class="S sf" d="M1949 1862 L2126 2039 L2136 2039 L1959 1862 Z"/><path class="f3" d="M1949 1862 L2126 2039 L2136 2039 L1959 1862 Z" /></g><g class="o"><path transform="translate(5,10)" class="S sf" d="M1613 1259 L1747 1125 L1891 1125 L1757 1259 Z"/><path class="f1" d="M1613 1259 L1747 1125 L1891 1125 L1757 1259 Z" /></g><g class="o"><path transform="translate(5,10)" class="S ssv" d="M2031 1697 L2236 1902 L2236 1942 L2031 1737 Z"/><path class="sv6" d="M2031 1697 L2236 1902 L2236 1942 L2031 1737 Z" /></g><g class="o"><path transform="translate(7,14)" class="S sfh" d="M1690 1943 L1902 1731 L1966 1731 L1754 1943 Z"/><path class="fh6" d="M1690 1943 L1902 1731 L1966 1731 L1754 1943 Z" /></g><g class="o"><path transform="translate(9,18)" class="S sfv" d="M1750 1400 L2161 989 L2161 1045 L1750 1456 Z"/><path class="fv1" d="M1750 1400 L2161 989 L2161 1045 L1750 1456 Z" /></g><g class="o"><path transform="translate(9,18)" class="S sfh" d="M1370 1591 L1428 1533 L1450 1533 L1392 1591 Z"/><path class="fh6" d="M1370 1591 L1428 1533 L1450 1533 L1392 1591 Z" /></g><g class="o"><path transform="translate(4,8)" class="S sf" d="M1691 1665 L1880 1476 L2016 1476 L1827 1665 Z"/><path class="f2" d="M1691 1665 L1880 1476 L2016 1476 L1827 1665 Z" /></g><g class="o"><path transform="translate(9,18)" class="S sfh" d="M1104 1940 L1339 1705 L1353 1705 L1118 1940 Z"/><path class="fh1" d="M1104 1940 L1339 1705 L1353 1705 L1118 1940 Z" /></g><g class="o"><path transform="translate(3,6)" class="S sfh" d="M938 1643 L1010 1571 L1138 1571 L1066 1643 Z"/><path class="fh3" d="M938 1643 L1010 1571 L1138 1571 L1066 1643 Z" /></g><g class="o"><path transform="translate(3,6)" class="S sfv" d="M1449 1281 L1562 1168 L1562 1304 L1449 1417 Z"/><path class="fv2" d="M1449 1281 L1562 1168 L1562 1304 L1449 1417 Z" /></g><g class="o"><path transform="translate(8,16)" class="S ssv" d="M1238 1524 L1356 1642 L1356 1786 L1238 1668 Z"/><path class="sv7" d="M1238 1524 L1356 1642 L1356 1786 L1238 1668 Z" /></g><g class="o"><path transform="translate(2,4)" class="S sfv" d="M1640 955 L1784 1099 L1784 1211 L1640 1067 Z"/><path class="fv1" d="M1640 955 L1784 1099 L1784 1211 L1640 1067 Z" /></g><g class="o"><path transform="translate(4,8)" class="S ssv" d="M1286 1221 L1413 1094 L1413 1182 L1286 1309 Z"/><path class="sv7" d="M1286 1221 L1413 1094 L1413 1182 L1286 1309 Z" /></g><g class="o"><path transform="translate(2,4)" class="S ss" d="M1691 1502 L1858 1335 L2002 1335 L1835 1502 Z"/><path class="s2" d="M1691 1502 L1858 1335 L2002 1335 L1835 1502 Z" /></g><g class="o"><path transform="translate(5,10)" class="S sfv" d="M1981 1953 L2698 2670 L2698 2718 L1981 2001 Z"/><path class="fv2" d="M1981 1953 L2698 2670 L2698 2718 L1981 2001 Z" /></g><g class="o"><path transform="translate(2,4)" class="S sf" d="M1310 1943 L1460 1793 L1612 1793 L1462 1943 Z"/><path class="f5" d="M1310 1943 L1460 1793 L1612 1793 L1462 1943 Z" /></g><g class="o"><path transform="translate(3,6)" class="S sfh" d="M1954 1105 L2071 1222 L2151 1222 L2034 1105 Z"/><path class="fh6" d="M1954 1105 L2071 1222 L2151 1222 L2034 1105 Z" /></g><g class="o"><path transform="translate(3,6)" class="S sfh" d="M1352 1465 L1466 1579 L1578 1579 L1464 1465 Z"/><path class="fh5" d="M1352 1465 L1466 1579 L1578 1579 L1464 1465 Z" /></g><g class="o"><path transform="translate(9,18)" class="S sfv" d="M1481 1046 L1611 916 L1611 996 L1481 1126 Z"/><path class="fv3" d="M1481 1046 L1611 916 L1611 996 L1481 1126 Z" /></g><g class="o"><path transform="translate(7,14)" class="S sfh" d="M1044 2040 L1136 1948 L1152 1948 L1060 2040 Z"/><path class="fh3" d="M1044 2040 L1136 1948 L1152 1948 L1060 2040 Z" /></g><g class="o"><path transform="translate(3,6)" class="S ss" d="M1932 1382 L2105 1209 L2209 1209 L2036 1382 Z"/><path class="s4" d="M1932 1382 L2105 1209 L2209 1209 L2036 1382 Z" /></g><g class="o"><path transform="translate(2,4)" class="S sfh" d="M1346 1382 L1522 1558 L1658 1558 L1482 1382 Z"/><path class="fh4" d="M1346 1382 L1522 1558 L1658 1558 L1482 1382 Z" /></g><g class="o"><path transform="translate(2,4)" class="S sfh" d="M1512 1932 L1694 2114 L1742 2114 L1560 1932 Z"/><path class="fh6" d="M1512 1932 L1694 2114 L1742 2114 L1560 1932 Z" /></g><g class="o"><path transform="translate(8,16)" class="S ssh" d="M1340 1282 L1485 1137 L1549 1137 L1404 1282 Z"/><path class="sh5" d="M1340 1282 L1485 1137 L1549 1137 L1404 1282 Z" /></g><g class="o"><path transform="translate(7,14)" class="S sfh" d="M994 1924 L1489 1429 L1529 1429 L1034 1924 Z"/><path class="fh6" d="M994 1924 L1489 1429 L1529 1429 L1034 1924 Z" /></g><g class="o"><path transform="translate(6,12)" class="S sfh" d="M1881 1498 L2114 1265 L2234 1265 L2001 1498 Z"/><path class="fh7" d="M1881 1498 L2114 1265 L2234 1265 L2001 1498 Z" /></g><g class="o"><path transform="translate(2,4)" class="S sfv" d="M1824 1974 L1967 2117 L1967 2197 L1824 2054 Z"/><path class="fv2" d="M1824 1974 L1967 2117 L1967 2197 L1824 2054 Z" /></g><g class="o"><path transform="translate(4,8)" class="S sfh" d="M1510 1293 L1592 1375 L1688 1375 L1606 1293 Z"/><path class="fh3" d="M1510 1293 L1592 1375 L1688 1375 L1606 1293 Z" /></g><g class="o"><path transform="translate(9,18)" class="S sfh" d="M1020 1792 L1710 2482 L1782 2482 L1092 1792 Z"/><path class="fh4" d="M1020 1792 L1710 2482 L1782 2482 L1092 1792 Z" /></g><g class="o"><path transform="translate(9,18)" class="S sf" d="M1696 1148 L1905 1357 L1915 1357 L1706 1148 Z"/><path class="f5" d="M1696 1148 L1905 1357 L1915 1357 L1706 1148 Z" /></g><g class="o"><path transform="translate(4,8)" class="S sfh" d="M1256 1388 L1325 1319 L1469 1319 L1400 1388 Z"/><path class="fh3" d="M1256 1388 L1325 1319 L1469 1319 L1400 1388 Z" /></g><g class="o"><path transform="translate(2,4)" class="S sfh" d="M1747 1453 L2011 1189 L2025 1189 L1761 1453 Z"/><path class="fh7" d="M1747 1453 L2011 1189 L2025 1189 L1761 1453 Z" /></g><g class="o"><path transform="translate(5,10)" class="S ss" d="M1308 1793 L1404 1889 L1460 1889 L1364 1793 Z"/><path class="s1" d="M1308 1793 L1404 1889 L1460 1889 L1364 1793 Z" /></g><g class="o"><path transform="translate(3,6)" class="S sfh" d="M1912 1562 L2019 1455 L2067 1455 L1960 1562 Z"/><path class="fh7" d="M1912 1562 L2019 1455 L2067 1455 L1960 1562 Z" /></g><g class="o"><path transform="translate(3,6)" class="S sfh" d="M1201 1525 L1360 1684 L1480 1684 L1321 1525 Z"/><path class="fh5" d="M1201 1525 L1360 1684 L1480 1684 L1321 1525 Z" /></g><g class="o"><path transform="translate(8,16)" class="S sfh" d="M1512 966 L1738 1192 L1842 1192 L1616 966 Z"/><path class="fh6" d="M1512 966 L1738 1192 L1842 1192 L1616 966 Z" /></g><g class="o"><path transform="translate(3,6)" class="S sfh" d="M1327 1550 L1394 1617 L1474 1617 L1407 1550 Z"/><path class="fh2" d="M1327 1550 L1394 1617 L1474 1617 L1407 1550 Z" /></g><g class="o"><path transform="translate(6,12)" class="S ss" d="M1837 1363 L2031 1169 L2167 1169 L1973 1363 Z"/><path class="s3" d="M1837 1363 L2031 1169 L2167 1169 L1973 1363 Z" /></g><g class="o"><path transform="translate(6,12)" class="S sfh" d="M1210 1136 L1456 890 L1520 890 L1274 1136 Z"/><path class="fh5" d="M1210 1136 L1456 890 L1520 890 L1274 1136 Z" /></g><g class="o"><path transform="translate(9,18)" class="S sfh" d="M1669 1957 L1756 2044 L1768 2044 L1681 1957 Z"/><path class="fh4" d="M1669 1957 L1756 2044 L1768 2044 L1681 1957 Z" /></g><g class="o"><path transform="translate(2,4)" class="S sfv" d="M1721 1447 L1771 1397 L1771 1517 L1721 1567 Z"/><path class="fv2" d="M1721 1447 L1771 1397 L1771 1517 L1721 1567 Z" /></g><g class="o"><path transform="translate(6,12)" class="S ssh" d="M1804 1149 L1921 1266 L1947 1266 L1830 1149 Z"/><path class="sh2" d="M1804 1149 L1921 1266 L1947 1266 L1830 1149 Z" /></g><g class="o"><path transform="translate(9,18)" class="S sfv" d="M1853 1386 L2083 1616 L2083 1720 L1853 1490 Z"/><path class="fv2" d="M1853 1386 L2083 1616 L2083 1720 L1853 1490 Z" /></g><g class="o"><path transform="translate(9,18)" class="S sf" d="M1585 1934 L1691 1828 L1691 1850 L1585 1956 Z"/><path class="f4" d="M1585 1934 L1691 1828 L1691 1850 L1585 1956 Z" /></g><g class="o"><path transform="translate(2,4)" class="S sfh" d="M1069 1930 L1762 1237 L1772 1237 L1079 1930 Z"/><path class="fh7" d="M1069 1930 L1762 1237 L1772 1237 L1079 1930 Z" /></g><g class="o"><path transform="translate(5,10)" class="S ssv" d="M1940 1271 L2163 1048 L2163 1168 L1940 1391 Z"/><path class="sv3" d="M1940 1271 L2163 1048 L2163 1168 L1940 1391 Z" /></g><g class="o"><path transform="translate(8,16)" class="S sf" d="M1134 995 L1695 434 L1695 474 L1134 1035 Z"/><path class="f7" d="M1134 995 L1695 434 L1695 474 L1134 1035 Z" /></g><g class="o"><path transform="translate(9,18)" class="S sfv" d="M1149 1483 L1295 1337 L1295 1393 L1149 1539 Z"/><path class="fv2" d="M1149 1483 L1295 1337 L1295 1393 L1149 1539 Z" /></g><g class="o"><path transform="translate(3,6)" class="S sfh" d="M955 1889 L1570 2504 L1590 2504 L975 1889 Z"/><path class="fh5" d="M955 1889 L1570 2504 L1590 2504 L975 1889 Z" /></g><g class="o"><path transform="translate(7,14)" class="S sfv" d="M1195 1516 L1400 1311 L1400 1463 L1195 1668 Z"/><path class="fv4" d="M1195 1516 L1400 1311 L1400 1463 L1195 1668 Z" /></g><g class="o"><path transform="translate(3,6)" class="S sf" d="M1847 1348 L2030 1531 L2062 1531 L1879 1348 Z"/><path class="f1" d="M1847 1348 L2030 1531 L2062 1531 L1879 1348 Z" /></g><g class="o"><path transform="translate(5,10)" class="S sfv" d="M1571 1206 L1805 1440 L1805 1462 L1571 1228 Z"/><path class="fv7" d="M1571 1206 L1805 1440 L1805 1462 L1571 1228 Z" /></g><g class="o"><path transform="translate(3,6)" class="S sf" d="M1215 1908 L1453 1670 L1605 1670 L1367 1908 Z"/><path class="f5" d="M1215 1908 L1453 1670 L1605 1670 L1367 1908 Z" /></g><g class="o"><path transform="translate(9,18)" class="S sfh" d="M1948 1739 L2059 1850 L2095 1850 L1984 1739 Z"/><path class="fh2" d="M1948 1739 L2059 1850 L2095 1850 L1984 1739 Z" /></g><g class="o"><path transform="translate(5,10)" class="S sfv" d="M1940 1186 L2073 1319 L2073 1367 L1940 1234 Z"/><path class="fv1" d="M1940 1186 L2073 1319 L2073 1367 L1940 1234 Z" /></g><g class="o"><path transform="translate(9,18)" class="S ssh" d="M1502 1874 L1552 1824 L1580 1824 L1530 1874 Z"/><path class="sh5" d="M1502 1874 L1552 1824 L1580 1824 L1530 1874 Z" /></g><g class="o"><path transform="translate(8,16)" class="S sfh" d="M1317 1990 L1497 1810 L1553 1810 L1373 1990 Z"/><path class="fh3" d="M1317 1990 L1497 1810 L1553 1810 L1373 1990 Z" /></g><g class="o"><path transform="translate(2,4)" class="S sfh" d="M997 1119 L1603 513 L1723 513 L1117 1119 Z"/><path class="fh3" d="M997 1119 L1603 513 L1723 513 L1117 1119 Z" /></g><g class="o"><path transform="translate(8,16)" class="S sfh" d="M1318 1790 L1493 1965 L1503 1965 L1328 1790 Z"/><path class="fh2" d="M1318 1790 L1493 1965 L1503 1965 L1328 1790 Z" /></g><g class="o"><path transform="translate(8,16)" class="S ssv" d="M1789 1163 L2025 927 L2025 965 L1789 1201 Z"/><path class="sv6" d="M1789 1163 L2025 927 L2025 965 L1789 1201 Z" /></g><g class="o"><path transform="translate(3,6)" class="S sfh" d="M1470 1784 L1571 1885 L1603 1885 L1502 1784 Z"/><path class="fh2" d="M1470 1784 L1571 1885 L1603 1885 L1502 1784 Z" /></g><g class="o"><path transform="translate(5,10)" class="S ssh" d="M1027 1563 L1098 1634 L1124 1634 L1053 1563 Z"/><path class="sh3" d="M1027 1563 L1098 1634 L1124 1634 L1053 1563 Z" /></g><g class="o"><path transform="translate(9,18)" class="S sfv" d="M950 1310 L1018 1242 L1018 1274 L950 1342 Z"/><path class="fv7" d="M950 1310 L1018 1242 L1018 1274 L950 1342 Z" /></g><g class="o"><path transform="translate(3,6)" class="S sfh" d="M1470 1226 L1557 1313 L1621 1313 L1534 1226 Z"/><path class="fh4" d="M1470 1226 L1557 1313 L1621 1313 L1534 1226 Z" /></g><g class="o"><path transform="translate(9,18)" class="S sfv" d="M1515 1675 L2091 1099 L2091 1195 L1515 1771 Z"/><path class="fv1" d="M1515 1675 L2091 1099 L2091 1195 L1515 1771 Z" /></g><g class="o"><path transform="translate(5,10)" class="S ssv" d="M1322 1400 L1760 962 L1760 976 L1322 1414 Z"/><path class="sv1" d="M1322 1400 L1760 962 L1760 976 L1322 1414 Z" /></g><g class="o"><path transform="translate(4,8)" class="S sf" d="M1033 1225 L1151 1343 L1151 1471 L1033 1353 Z"/><path class="f5" d="M1033 1225 L1151 1343 L1151 1471 L1033 1353 Z" /></g><g class="o"><path transform="translate(4,8)" class="S sfh" d="M1931 1015 L2387 559 L2413 559 L1957 1015 Z"/><path class="fh4" d="M1931 1015 L2387 559 L2413 559 L1957 1015 Z" /></g><g class="o"><path transform="translate(6,12)" class="S sfv" d="M1340 1129 L1470 999 L1470 1031 L1340 1161 Z"/><path class="fv1" d="M1340 1129 L1470 999 L1470 1031 L1340 1161 Z" /></g><g class="o"><path transform="translate(6,12)" class="S sfv" d="M1314 1669 L1412 1767 L1412 1799 L1314 1701 Z"/><path class="fv5" d="M1314 1669 L1412 1767 L1412 1799 L1314 1701 Z" /></g><g class="o"><path transform="translate(5,10)" class="S ss" d="M1122 1333 L1223 1434 L1263 1434 L1162 1333 Z"/><path class="s5" d="M1122 1333 L1223 1434 L1263 1434 L1162 1333 Z" /></g><g class="o"><path transform="translate(2,4)" class="S sfh" d="M1370 1957 L2030 1297 L2142 1297 L1482 1957 Z"/><path class="fh6" d="M1370 1957 L2030 1297 L2142 1297 L1482 1957 Z" /></g><g class="o"><path transform="translate(2,4)" class="S sfv" d="M1415 1159 L1549 1293 L1549 1319 L1415 1185 Z"/><path class="fv6" d="M1415 1159 L1549 1293 L1549 1319 L1415 1185 Z" /></g><g class="o"><path transform="translate(2,4)" class="S sf" d="M950 1332 L1199 1083 L1199 1097 L950 1346 Z"/><path class="f7" d="M950 1332 L1199 1083 L1199 1097 L950 1346 Z" /></g><g class="o"><path transform="translate(2,4)" class="S ssv" d="M1034 1673 L1256 1895 L1256 1935 L1034 1713 Z"/><path class="sv4" d="M1034 1673 L1256 1895 L1256 1935 L1034 1713 Z" /></g><g class="o"><path transform="translate(2,4)" class="S sfv" d="M1066 1449 L1140 1523 L1140 1667 L1066 1593 Z"/><path class="fv5" d="M1066 1449 L1140 1523 L1140 1667 L1066 1593 Z" /></g><g class="o"><path transform="translate(3,6)" class="S sfh" d="M1370 1588 L1431 1649 L1511 1649 L1450 1588 Z"/><path class="fh4" d="M1370 1588 L1431 1649 L1511 1649 L1450 1588 Z" /></g><g class="o"><path transform="translate(9,18)" class="S sfh" d="M1069 1320 L1129 1380 L1249 1380 L1189 1320 Z"/><path class="fh3" d="M1069 1320 L1129 1380 L1249 1380 L1189 1320 Z" /></g><g class="o"><path transform="translate(6,12)" class="S sf" d="M1130 1308 L1182 1256 L1182 1282 L1130 1334 Z"/><path class="f5" d="M1130 1308 L1182 1256 L1182 1282 L1130 1334 Z" /></g><g class="o"><path transform="translate(7,14)" class="S sfh" d="M1216 1354 L1352 1490 L1432 1490 L1296 1354 Z"/><path class="fh5" d="M1216 1354 L1352 1490 L1432 1490 L1296 1354 Z" /></g><g class="o"><path transform="translate(5,10)" class="S sf" d="M1986 1973 L2097 2084 L2201 2084 L2090 1973 Z"/><path class="f5" d="M1986 1973 L2097 2084 L2201 2084 L2090 1973 Z" /></g><g class="o"><path transform="translate(8,16)" class="S ssv" d="M1074 2010 L1142 2078 L1142 2092 L1074 2024 Z"/><path class="sv6" d="M1074 2010 L1142 2078 L1142 2092 L1074 2024 Z" /></g><g class="o"><path transform="translate(6,12)" class="S sfh" d="M1197 1796 L1263 1730 L1295 1730 L1229 1796 Z"/><path class="fh5" d="M1197 1796 L1263 1730 L1295 1730 L1229 1796 Z" /></g><g class="o"><path transform="translate(6,12)" class="S ssh" d="M1223 1651 L1366 1508 L1454 1508 L1311 1651 Z"/><path class="sh2" d="M1223 1651 L1366 1508 L1454 1508 L1311 1651 Z" /></g><g class="o"><path transform="translate(2,4)" class="S sf" d="M1625 1995 L1822 2192 L1894 2192 L1697 1995 Z"/><path class="f1" d="M1625 1995 L1822 2192 L1894 2192 L1697 1995 Z" /></g><g class="o"><path transform="translate(5,10)" class="S ssv" d="M1677 1536 L1899 1314 L1899 1410 L1677 1632 Z"/><path class="sv5" d="M1677 1536 L1899 1314 L1899 1410 L1677 1632 Z" /></g><g class="o"><path transform="translate(2,4)" class="S sfv" d="M1733 1744 L1966 1977 L1966 2009 L1733 1776 Z"/><path class="fv2" d="M1733 1744 L1966 1977 L1966 2009 L1733 1776 Z" /></g><g class="o"><path transform="translate(5,10)" class="S sfv" d="M1040 1097 L1304 1361 L1304 1381 L1040 1117 Z"/><path class="fv1" d="M1040 1097 L1304 1361 L1304 1381 L1040 1117 Z" /></g><g class="o"><path transform="translate(6,12)" class="S sf" d="M1442 1215 L1629 1402 L1629 1482 L1442 1295 Z"/><path class="f6" d="M1442 1215 L1629 1402 L1629 1482 L1442 1295 Z" /></g><g class="o"><path transform="translate(5,10)" class="S sfh" d="M1179 1426 L1368 1615 L1520 1615 L1331 1426 Z"/><path class="fh7" d="M1179 1426 L1368 1615 L1520 1615 L1331 1426 Z" /></g><g class="o"><path transform="translate(2,4)" class="S sfv" d="M1796 1486 L2034 1248 L2034 1276 L1796 1514 Z"/><path class="fv4" d="M1796 1486 L2034 1248 L2034 1276 L1796 1514 Z" /></g><g class="o"><path transform="translate(9,18)" class="S sfh" d="M1909 1866 L2146 2103 L2226 2103 L1989 1866 Z"/><path class="fh1" d="M1909 1866 L2146 2103 L2226 2103 L1989 1866 Z" /></g><g class="o"><path transform="translate(9,18)" class="S sfh" d="M1117 1279 L1258 1420 L1288 1420 L1147 1279 Z"/><path class="fh6" d="M1117 1279 L1258 1420 L1288 1420 L1147 1279 Z" /></g><g class="o"><path transform="translate(4,8)" class="S ssh" d="M1471 1062 L2071 1662 L2151 1662 L1551 1062 Z"/><path class="sh7" d="M1471 1062 L2071 1662 L2151 1662 L1551 1062 Z" /></g><g class="o"><path transform="translate(5,10)" class="S sfv" d="M1109 1232 L1239 1362 L1239 1418 L1109 1288 Z"/><path class="fv5" d="M1109 1232 L1239 1362 L1239 1418 L1109 1288 Z" /></g><g class="o"><path transform="translate(2,4)" class="S sfh" d="M1239 1791 L1349 1901 L1493 1901 L1383 1791 Z"/><path class="fh4" d="M1239 1791 L1349 1901 L1493 1901 L1383 1791 Z" /></g><g class="o"><path transform="translate(2,4)" class="S ssh" d="M1718 2038 L2021 2341 L2101 2341 L1798 2038 Z"/><path class="sh1" d="M1718 2038 L2021 2341 L2101 2341 L1798 2038 Z" /></g><g class="o"><path transform="translate(7,14)" class="S ssh" d="M925 1361 L1116 1552 L1204 1552 L1013 1361 Z"/><path class="sh2" d="M925 1361 L1116 1552 L1204 1552 L1013 1361 Z" /></g><g class="o"><path transform="translate(6,12)" class="S sfh" d="M1609 1785 L1802 1592 L1930 1592 L1737 1785 Z"/><path class="fh6" d="M1609 1785 L1802 1592 L1930 1592 L1737 1785 Z" /></g><g class="o"><path transform="translate(4,8)" class="S sf" d="M1254 2015 L1869 2630 L1907 2630 L1292 2015 Z"/><path class="f7" d="M1254 2015 L1869 2630 L1907 2630 L1292 2015 Z" /></g><g class="o"><path transform="translate(9,18)" class="S sfv" d="M1688 1585 L1929 1826 L1929 1946 L1688 1705 Z"/><path class="fv3" d="M1688 1585 L1929 1826 L1929 1946 L1688 1705 Z" /></g><g class="o"><path transform="translate(7,14)" class="S sf" d="M1296 1056 L1421 1181 L1447 1181 L1322 1056 Z"/><path class="f3" d="M1296 1056 L1421 1181 L1447 1181 L1322 1056 Z" /></g><g class="o"><path transform="translate(2,4)" class="S sfv" d="M1681 1476 L1880 1675 L1880 1779 L1681 1580 Z"/><path class="fv2" d="M1681 1476 L1880 1675 L1880 1779 L1681 1580 Z" /></g><g class="o"><path transform="translate(8,16)" class="S sfv" d="M1238 1096 L1461 1319 L1461 1415 L1238 1192 Z"/><path class="fv1" d="M1238 1096 L1461 1319 L1461 1415 L1238 1192 Z" /></g><g class="o"><path transform="translate(6,12)" class="S sf" d="M1260 1078 L1674 1492 L1746 1492 L1332 1078 Z"/><path class="f5" d="M1260 1078 L1674 1492 L1746 1492 L1332 1078 Z" /></g><g class="o"><path transform="translate(3,6)" class="S sfv" d="M1255 1885 L1480 2110 L1480 2174 L1255 1949 Z"/><path class="fv6" d="M1255 1885 L1480 2110 L1480 2174 L1255 1949 Z" /></g><g class="o"><path transform="translate(3,6)" class="S sf" d="M1852 1067 L2053 866 L2205 866 L2004 1067 Z"/><path class="f2" d="M1852 1067 L2053 866 L2205 866 L2004 1067 Z" /></g><g class="o"><path transform="translate(4,8)" class="S sfv" d="M1290 1216 L1343 1269 L1343 1285 L1290 1232 Z"/><path class="fv6" d="M1290 1216 L1343 1269 L1343 1285 L1290 1232 Z" /></g><g class="o"><path transform="translate(8,16)" class="S sfv" d="M1778 1119 L1895 1236 L1895 1316 L1778 1199 Z"/><path class="fv4" d="M1778 1119 L1895 1236 L1895 1316 L1778 1199 Z" /></g><g class="o"><path transform="translate(3,6)" class="S ss" d="M1327 1772 L1533 1566 L1533 1686 L1327 1892 Z"/><path class="s4" d="M1327 1772 L1533 1566 L1533 1686 L1327 1892 Z" /></g><g class="o"><path transform="translate(7,14)" class="S ssh" d="M1921 1721 L2545 2345 L2681 2345 L2057 1721 Z"/><path class="sh3" d="M1921 1721 L2545 2345 L2681 2345 L2057 1721 Z" /></g><g class="o"><path transform="translate(3,6)" class="S ss" d="M972 1477 L1038 1543 L1110 1543 L1044 1477 Z"/><path class="s4" d="M972 1477 L1038 1543 L1110 1543 L1044 1477 Z" /></g><g class="o"><path transform="translate(4,8)" class="S sfv" d="M1529 1598 L2147 980 L2147 1012 L1529 1630 Z"/><path class="fv3" d="M1529 1598 L2147 980 L2147 1012 L1529 1630 Z" /></g><g class="o"><path transform="translate(6,12)" class="S ssh" d="M1830 1207 L1972 1065 L2116 1065 L1974 1207 Z"/><path class="sh1" d="M1830 1207 L1972 1065 L2116 1065 L1974 1207 Z" /></g><g class="o"><path transform="translate(5,10)" class="S sfv" d="M1185 1715 L1237 1767 L1237 1799 L1185 1747 Z"/><path class="fv6" d="M1185 1715 L1237 1767 L1237 1799 L1185 1747 Z" /></g><g class="o"><path transform="translate(2,4)" class="S sfv" d="M1086 1383 L1261 1208 L1261 1232 L1086 1407 Z"/><path class="fv6" d="M1086 1383 L1261 1208 L1261 1232 L1086 1407 Z" /></g><g class="o"><path transform="translate(8,16)" class="S sfv" d="M1871 1730 L2024 1577 L2024 1657 L1871 1810 Z"/><path class="fv3" d="M1871 1730 L2024 1577 L2024 1657 L1871 1810 Z" /></g><g class="o"><path transform="translate(9,18)" class="S sfh" d="M1528 1960 L1775 1713 L1871 1713 L1624 1960 Z"/><path class="fh4" d="M1528 1960 L1775 1713 L1871 1713 L1624 1960 Z" /></g></g><use href="#slashes" transform-origin="1500 1500" transform="rotate(180) scale(2)"/></g><polyline points="1500,1010 1990,1500 1500,1990 1010,1500 1500,1010 1990,1500" stroke-width="20" class="o f4" /><use href="#slashes" transform-origin="1500 1500" transform="scale(.6)"/><use href="#slashes" transform-origin="1500 1500" transform="rotate(180) scale(.6)"/></svg>