<svg xmlns="http://www.w3.org/2000/svg" viewBox="750 750 1500 1500"><style>/*<![CDATA[*/svg{background:rgb(34,34,34);max-width:100vw;max-height:100vh}path{stroke-width:4}.o{opacity:.75}.S{opacity:.4}.sf{stroke:none;fill:black}.sfh{stroke:none;fill:url(#hs)}.sfv{stroke:none;fill:url(#vs)}.ss{stroke:black;fill:none}.ssh{stroke:url(#hs);fill:none}.ssv{stroke:url(#vs);fill:none}.s1{fill:none;stroke:rgb(251,251,255)}.f1{stroke:none;fill:rgb(251,251,255)}.sh1{fill:none;stroke:url(#h1)}.fh1{stroke:none;fill:url(#h1)}.sv1{fill:none;stroke:url(#v1)}.fv1{stroke:none;fill:url(#v1)}.s2{fill:none;stroke:rgb(11,79,108)}.f2{stroke:none;fill:rgb(11,79,108)}.sh2{fill:none;stroke:url(#h2)}.fh2{stroke:none;fill:url(#h2)}.sv2{fill:none;stroke:url(#v2)}.fv2{stroke:none;fill:url(#v2)}.s3{fill:none;stroke:rgb(117,117,117)}.f3{stroke:none;fill:rgb(117,117,117)}.sh3{fill:none;stroke:url(#h3)}.fh3{stroke:none;fill:url(#h3)}.sv3{fill:none;stroke:url(#v3)}.fv3{stroke:none;fill:url(#v3)}.s4{fill:none;stroke:rgb(41,42,115)}.f4{stroke:none;fill:rgb(41,42,115)}.sh4{fill:none;stroke:url(#h4)}.fh4{stroke:none;fill:url(#h4)}.sv4{fill:none;stroke:url(#v4)}.fv4{stroke:none;fill:url(#v4)}.s5{fill:none;stroke:rgb(32,191,85)}.f5{stroke:none;fill:rgb(32,191,85)}.sh5{fill:none;stroke:url(#h5)}.fh5{stroke:none;fill:url(#h5)}.sv5{fill:none;stroke:url(#v5)}.fv5{stroke:none;fill:url(#v5)}.s6{fill:none;stroke:rgb(255,255,255)}.f6{stroke:none;fill:rgb(255,255,255)}.sh6{fill:none;stroke:url(#h6)}.fh6{stroke:none;fill:url(#h6)}.sv6{fill:none;stroke:url(#v6)}.fv6{stroke:none;fill:url(#v6)}.s7{fill:none;stroke:rgb(255,255,0)}.f7{stroke:none;fill:rgb(255,255,0)}.sh7{fill:none;stroke:url(#h7)}.fh7{stroke:none;fill:url(#h7)}.sv7{fill:none;stroke:url(#v7)}.fv7{stroke:none;fill:url(#v7)}/*]]>*/</style><defs><linearGradient gradientTransform="rotate(90)" id="hs"><stop offset="20%" stop-color="#000" /><stop offset="95%" stop-color="rgba(0, 0, 0, 0)" /></linearGradient><linearGradient id="vs"><stop offset="20%" stop-color="#000" /><stop offset="95%" stop-color="rgba(0, 0, 0, 0)" /></linearGradient><linearGradient gradientTransform="rotate(90)" id="h1"><stop offset="20%" stop-color="rgba(251,251,255,1)" /><stop offset="95%" stop-color="rgba(251,251,255,0)" /></linearGradient><linearGradient id="v1"><stop offset="20%" stop-color="rgba(251,251,255,1)" /><stop offset="95%" stop-color="rgba(251,251,255,0)" /></linearGradient><linearGradient gradientTransform="rotate(90)" id="h2"><stop offset="20%" stop-color="rgba(11,79,108,1)" /><stop offset="95%" stop-color="rgba(11,79,108,0)" /></linearGradient><linearGradient id="v2"><stop offset="20%" stop-color="rgba(11,79,108,1)" /><stop offset="95%" stop-color="rgba(11,79,108,0)" /></linearGradient><linearGradient gradientTransform="rotate(90)" id="h3"><stop offset="20%" stop-color="rgba(117,117,117,1)" /><stop offset="95%" stop-color="rgba(117,117,117,0)" /></linearGradient><linearGradient id="v3"><stop offset="20%" stop-color="rgba(117,117,117,1)" /><stop offset="95%" stop-color="rgba(117,117,117,0)" /></linearGradient><linearGradient gradientTransform="rotate(90)" id="h4"><stop offset="20%" stop-color="rgba(41,42,115,1)" /><stop offset="95%" stop-color="rgba(41,42,115,0)" /></linearGradient><linearGradient id="v4"><stop offset="20%" stop-color="rgba(41,42,115,1)" /><stop offset="95%" stop-color="rgba(41,42,115,0)" /></linearGradient><linearGradient gradientTransform="rotate(90)" id="h5"><stop offset="20%" stop-color="rgba(32,191,85,1)" /><stop offset="95%" stop-color="rgba(32,191,85,0)" /></linearGradient><linearGradient id="v5"><stop offset="20%" stop-color="rgba(32,191,85,1)" /><stop offset="95%" stop-color="rgba(32,191,85,0)" /></linearGradient><linearGradient gradientTransform="rotate(90)" id="h6"><stop offset="20%" stop-color="rgba(255,255,255,1)" /><stop offset="95%" stop-color="rgba(255,255,255,0)" /></linearGradient><linearGradient id="v6"><stop offset="20%" stop-color="rgba(255,255,255,1)" /><stop offset="95%" stop-color="rgba(255,255,255,0)" /></linearGradient><linearGradient gradientTransform="rotate(90)" id="h7"><stop offset="20%" stop-color="rgba(255,255,0,1)" /><stop offset="95%" stop-color="rgba(255,255,0,0)" /></linearGradient><linearGradient id="v7"><stop offset="20%" stop-color="rgba(255,255,0,1)" /><stop offset="95%" stop-color="rgba(255,255,0,0)" /></linearGradient></defs><g transform-origin="1500 1500" transform="scale(2)" opacity=".8"><g id="slashes"><g class="o"><path transform="translate(3,6)" class="S sfv" d="M1604 1837 L1803 2036 L1803 2054 L1604 1855 Z"/><path class="fv5" d="M1604 1837 L1803 2036 L1803 2054 L1604 1855 Z" /></g><g class="o"><path transform="translate(3,6)" class="S ssh" d="M1375 1636 L1296 1715 L1310 1715 L1389 1636 Z"/><path class="sh6" d="M1375 1636 L1296 1715 L1310 1715 L1389 1636 Z" /></g><g class="o"><path transform="translate(2,4)" class="S sfh" d="M1590 1128 L1765 1303 L1791 1303 L1616 1128 Z"/><path class="fh5" d="M1590 1128 L1765 1303 L1791 1303 L1616 1128 Z" /></g><g class="o"><path transform="translate(5,10)" class="S sfh" d="M1365 1064 L1214 1215 L1246 1215 L1397 1064 Z"/><path class="fh2" d="M1365 1064 L1214 1215 L1246 1215 L1397 1064 Z" /></g><g class="o"><path transform="translate(8,16)" class="S ss" d="M1582 1120 L1760 942 L1760 960 L1582 1138 Z"/><path class="s1" d="M1582 1120 L1760 942 L1760 960 L1582 1138 Z" /></g><g class="o"><path transform="translate(3,6)" class="S sf" d="M1879 1844 L1819 1904 L1827 1904 L1887 1844 Z"/><path class="f2" d="M1879 1844 L1819 1904 L1827 1904 L1887 1844 Z" /></g><g class="o"><path transform="translate(6,12)" class="S sfh" d="M1283 1813 L1188 1908 L1206 1908 L1301 1813 Z"/><path class="fh7" d="M1283 1813 L1188 1908 L1206 1908 L1301 1813 Z" /></g><g class="o"><path transform="translate(3,6)" class="S sfv" d="M1860 1205 L2051 1014 L2051 1052 L1860 1243 Z"/><path class="fv2" d="M1860 1205 L2051 1014 L2051 1052 L1860 1243 Z" /></g><g class="o"><path transform="translate(7,14)" class="S sf" d="M1887 1030 L1721 1196 L1721 1226 L1887 1060 Z"/><path class="f3" d="M1887 1030 L1721 1196 L1721 1226 L1887 1060 Z" /></g><g class="o"><path transform="translate(4,8)" class="S ssh" d="M887 1402 L699 1590 L851 1590 L1039 1402 Z"/><path class="sh1" d="M887 1402 L699 1590 L851 1590 L1039 1402 Z" /></g><g class="o"><path transform="translate(8,16)" class="S sfv" d="M2018 1477 L2076 1419 L2076 1427 L2018 1485 Z"/><path class="fv6" d="M2018 1477 L2076 1419 L2076 1427 L2018 1485 Z" /></g><g class="o"><path transform="translate(6,12)" class="S sfh" d="M1909 1558 L1737 1730 L1775 1730 L1947 1558 Z"/><path class="fh7" d="M1909 1558 L1737 1730 L1775 1730 L1947 1558 Z" /></g><g class="o"><path transform="translate(5,10)" class="S sfv" d="M1813 1578 L1952 1717 L1952 1749 L1813 1610 Z"/><path class="fv2" d="M1813 1578 L1952 1717 L1952 1749 L1813 1610 Z" /></g><g class="o"><path transform="translate(4,8)" class="S sfh" d="M1513 1430 L1299 1644 L1313 1644 L1527 1430 Z"/><path class="fh2" d="M1513 1430 L1299 1644 L1313 1644 L1527 1430 Z" /></g><g class="o"><path transform="translate(3,6)" class="S sf" d="M1736 1805 L1814 1883 L1814 1921 L1736 1843 Z"/><path class="f4" d="M1736 1805 L1814 1883 L1814 1921 L1736 1843 Z" /></g><g class="o"><path transform="translate(8,16)" class="S sfv" d="M959 986 L1095 1122 L1095 1134 L959 998 Z"/><path class="fv6" d="M959 986 L1095 1122 L1095 1134 L959 998 Z" /></g><g class="o"><path transform="translate(3,6)" class="S sf" d="M1106 1618 L931 1793 L955 1793 L1130 1618 Z"/><path class="f5" d="M1106 1618 L931 1793 L955 1793 L1130 1618 Z" /></g><g class="o"><path transform="translate(6,12)" class="S sfh" d="M1453 1612 L1270 1795 L1284 1795 L1467 1612 Z"/><path class="fh6" d="M1453 1612 L1270 1795 L1284 1795 L1467 1612 Z" /></g><g class="o"><path transform="translate(9,18)" class="S sfh" d="M1644 1924 L1733 1835 L1743 1835 L1654 1924 Z"/><path class="fh4" d="M1644 1924 L1733 1835 L1743 1835 L1654 1924 Z" /></g><g class="o"><path transform="translate(4,8)" class="S sfv" d="M1228 1835 L1173 1780 L1173 1798 L1228 1853 Z"/><path class="fv1" d="M1228 1835 L1173 1780 L1173 1798 L1228 1853 Z" /></g><g class="o"><path transform="translate(9,18)" class="S sfv" d="M2027 1667 L1928 1766 L1928 1774 L2027 1675 Z"/><path class="fv3" d="M2027 1667 L1928 1766 L1928 1774 L2027 1675 Z" /></g><g class="o"><path transform="translate(4,8)" class="S ssv" d="M2000 1497 L1765 1732 L1765 1762 L2000 1527 Z"/><path class="sv1" d="M2000 1497 L1765 1732 L1765 1762 L2000 1527 Z" /></g><g class="o"><path transform="translate(7,14)" class="S sfv" d="M1267 1919 L1457 2109 L1457 2131 L1267 1941 Z"/><path class="fv2" d="M1267 1919 L1457 2109 L1457 2131 L1267 1941 Z" /></g><g class="o"><path transform="translate(7,14)" class="S sfv" d="M1698 2029 L1471 2256 L1471 2286 L1698 2059 Z"/><path class="fv6" d="M1698 2029 L1471 2256 L1471 2286 L1698 2059 Z" /></g><g class="o"><path transform="translate(9,18)" class="S sfv" d="M1816 1400 L1600 1184 L1600 1196 L1816 1412 Z"/><path class="fv7" d="M1816 1400 L1600 1184 L1600 1196 L1816 1412 Z" /></g><g class="o"><path transform="translate(5,10)" class="S ssh" d="M1035 1209 L1244 1000 L1252 1000 L1043 1209 Z"/><path class="sh1" d="M1035 1209 L1244 1000 L1252 1000 L1043 1209 Z" /></g><g class="o"><path transform="translate(7,14)" class="S ssh" d="M1338 1105 L1198 1245 L1224 1245 L1364 1105 Z"/><path class="sh4" d="M1338 1105 L1198 1245 L1224 1245 L1364 1105 Z" /></g><g class="o"><path transform="translate(9,18)" class="S sfv" d="M986 1002 L757 1231 L757 1241 L986 1012 Z"/><path class="fv4" d="M986 1002 L757 1231 L757 1241 L986 1012 Z" /></g><g class="o"><path transform="translate(6,12)" class="S ssh" d="M1016 1594 L1250 1828 L1286 1828 L1052 1594 Z"/><path class="sh6" d="M1016 1594 L1250 1828 L1286 1828 L1052 1594 Z" /></g><g class="o"><path transform="translate(5,10)" class="S sfv" d="M1036 1500 L814 1722 L814 1752 L1036 1530 Z"/><path class="fv1" d="M1036 1500 L814 1722 L814 1752 L1036 1530 Z" /></g><g class="o"><path transform="translate(4,8)" class="S sfh" d="M961 1153 L740 932 L748 932 L969 1153 Z"/><path class="fh6" d="M961 1153 L740 932 L748 932 L969 1153 Z" /></g><g class="o"><path transform="translate(6,12)" class="S sfv" d="M1474 945 L1674 1145 L1674 1179 L1474 979 Z"/><path class="fv2" d="M1474 945 L1674 1145 L1674 1179 L1474 979 Z" /></g><g class="o"><path transform="translate(7,14)" class="S sfv" d="M1833 943 L1958 818 L1958 842 L1833 967 Z"/><path class="fv2" d="M1833 943 L1958 818 L1958 842 L1833 967 Z" /></g><g class="o"><path transform="translate(3,6)" class="S sfv" d="M1643 1311 L1761 1429 L1761 1463 L1643 1345 Z"/><path class="fv2" d="M1643 1311 L1761 1429 L1761 1463 L1643 1345 Z" /></g><g class="o"><path transform="translate(7,14)" class="S sfh" d="M1872 1125 L1815 1068 L1943 1068 L2000 1125 Z"/><path class="fh4" d="M1872 1125 L1815 1068 L1943 1068 L2000 1125 Z" /></g><g class="o"><path transform="translate(5,10)" class="S sf" d="M1309 983 L1175 849 L1175 879 L1309 1013 Z"/><path class="f1" d="M1309 983 L1175 849 L1175 879 L1309 1013 Z" /></g><g class="o"><path transform="translate(4,8)" class="S sf" d="M1334 1815 L1434 1915 L1434 1939 L1334 1839 Z"/><path class="f6" d="M1334 1815 L1434 1915 L1434 1939 L1334 1839 Z" /></g><g class="o"><path transform="translate(5,10)" class="S sfv" d="M1131 1712 L1068 1775 L1068 1809 L1131 1746 Z"/><path class="fv5" d="M1131 1712 L1068 1775 L1068 1809 L1131 1746 Z" /></g><g class="o"><path transform="translate(9,18)" class="S sfh" d="M1165 1001 L967 1199 L999 1199 L1197 1001 Z"/><path class="fh6" d="M1165 1001 L967 1199 L999 1199 L1197 1001 Z" /></g><g class="o"><path transform="translate(5,10)" class="S sf" d="M1850 1972 L1714 2108 L1714 2124 L1850 1988 Z"/><path class="f6" d="M1850 1972 L1714 2108 L1714 2124 L1850 1988 Z" /></g><g class="o"><path transform="translate(5,10)" class="S sf" d="M1186 947 L1098 1035 L1098 1065 L1186 977 Z"/><path class="f1" d="M1186 947 L1098 1035 L1098 1065 L1186 977 Z" /></g><g class="o"><path transform="translate(2,4)" class="S sfv" d="M1588 978 L1757 1147 L1757 1165 L1588 996 Z"/><path class="fv5" d="M1588 978 L1757 1147 L1757 1165 L1588 996 Z" /></g><g class="o"><path transform="translate(2,4)" class="S sf" d="M1640 1498 L1587 1551 L1587 1579 L1640 1526 Z"/><path class="f2" d="M1640 1498 L1587 1551 L1587 1579 L1640 1526 Z" /></g><g class="o"><path transform="translate(4,8)" class="S ssh" d="M1981 1151 L2083 1253 L2105 1253 L2003 1151 Z"/><path class="sh7" d="M1981 1151 L2083 1253 L2105 1253 L2003 1151 Z" /></g><g class="o"><path transform="translate(5,10)" class="S sfv" d="M986 967 L1208 1189 L1208 1209 L986 987 Z"/><path class="fv6" d="M986 967 L1208 1189 L1208 1209 L986 987 Z" /></g><g class="o"><path transform="translate(8,16)" class="S sfv" d="M1142 974 L1008 1108 L1008 1116 L1142 982 Z"/><path class="fv1" d="M1142 974 L1008 1108 L1008 1116 L1142 982 Z" /></g><g class="o"><path transform="translate(4,8)" class="S sf" d="M1914 1962 L2106 2154 L2132 2154 L1940 1962 Z"/><path class="f3" d="M1914 1962 L2106 2154 L2132 2154 L1940 1962 Z" /></g><g class="o"><path transform="translate(4,8)" class="S sfv" d="M1635 1956 L1409 1730 L1409 1742 L1635 1968 Z"/><path class="fv4" d="M1635 1956 L1409 1730 L1409 1742 L1635 1968 Z" /></g><g class="o"><path transform="translate(9,18)" class="S sfh" d="M1420 1701 L1554 1835 L1574 1835 L1440 1701 Z"/><path class="fh5" d="M1420 1701 L1554 1835 L1574 1835 L1440 1701 Z" /></g><g class="o"><path transform="translate(5,10)" class="S sfh" d="M1877 1358 L2073 1554 L2081 1554 L1885 1358 Z"/><path class="fh1" d="M1877 1358 L2073 1554 L2081 1554 L1885 1358 Z" /></g><g class="o"><path transform="translate(4,8)" class="S sfh" d="M1813 1020 L2039 1246 L2051 1246 L1825 1020 Z"/><path class="fh2" d="M1813 1020 L2039 1246 L2051 1246 L1825 1020 Z" /></g><g class="o"><path transform="translate(4,8)" class="S sfv" d="M1805 1871 L2022 2088 L2022 2110 L1805 1893 Z"/><path class="fv5" d="M1805 1871 L2022 2088 L2022 2110 L1805 1893 Z" /></g><g class="o"><path transform="translate(4,8)" class="S sfv" d="M1757 1003 L1961 799 L1961 815 L1757 1019 Z"/><path class="fv4" d="M1757 1003 L1961 799 L1961 815 L1757 1019 Z" /></g><g class="o"><path transform="translate(3,6)" class="S sf" d="M1757 1502 L1905 1650 L1905 1672 L1757 1524 Z"/><path class="f6" d="M1757 1502 L1905 1650 L1905 1672 L1757 1524 Z" /></g><g class="o"><path transform="translate(9,18)" class="S sf" d="M1414 1011 L1258 855 L1258 875 L1414 1031 Z"/><path class="f2" d="M1414 1011 L1258 855 L1258 875 L1414 1031 Z" /></g><g class="o"><path transform="translate(7,14)" class="S sf" d="M1505 1083 L1447 1025 L1465 1025 L1523 1083 Z"/><path class="f3" d="M1505 1083 L1447 1025 L1465 1025 L1523 1083 Z" /></g><g class="o"><path transform="translate(6,12)" class="S sf" d="M1376 1546 L1433 1603 L1449 1603 L1392 1546 Z"/><path class="f2" d="M1376 1546 L1433 1603 L1449 1603 L1392 1546 Z" /></g><g class="o"><path transform="translate(6,12)" class="S sfh" d="M1029 1805 L895 1671 L927 1671 L1061 1805 Z"/><path class="fh3" d="M1029 1805 L895 1671 L927 1671 L1061 1805 Z" /></g><g class="o"><path transform="translate(7,14)" class="S ssv" d="M1135 1468 L1079 1412 L1079 1442 L1135 1498 Z"/><path class="sv2" d="M1135 1468 L1079 1412 L1079 1442 L1135 1498 Z" /></g><g class="o"><path transform="translate(2,4)" class="S sfh" d="M1901 1623 L2126 1848 L2134 1848 L1909 1623 Z"/><path class="fh3" d="M1901 1623 L2126 1848 L2134 1848 L1909 1623 Z" /></g><g class="o"><path transform="translate(7,14)" class="S sfh" d="M1240 1481 L1037 1684 L1075 1684 L1278 1481 Z"/><path class="fh5" d="M1240 1481 L1037 1684 L1075 1684 L1278 1481 Z" /></g><g class="o"><path transform="translate(3,6)" class="S ss" d="M1693 1043 L1558 1178 L1558 1198 L1693 1063 Z"/><path class="s6" d="M1693 1043 L1558 1178 L1558 1198 L1693 1063 Z" /></g><g class="o"><path transform="translate(8,16)" class="S sfh" d="M1738 1192 L1542 1388 L1574 1388 L1770 1192 Z"/><path class="fh4" d="M1738 1192 L1542 1388 L1574 1388 L1770 1192 Z" /></g><g class="o"><path transform="translate(3,6)" class="S sfv" d="M1373 1364 L1161 1576 L1161 1592 L1373 1380 Z"/><path class="fv4" d="M1373 1364 L1161 1576 L1161 1592 L1373 1380 Z" /></g><g class="o"><path transform="translate(7,14)" class="S ssh" d="M1356 1170 L1215 1311 L1227 1311 L1368 1170 Z"/><path class="sh5" d="M1356 1170 L1215 1311 L1227 1311 L1368 1170 Z" /></g><g class="o"><path transform="translate(5,10)" class="S sf" d="M2035 1710 L2191 1866 L2191 1888 L2035 1732 Z"/><path class="f5" d="M2035 1710 L2191 1866 L2191 1888 L2035 1732 Z" /></g><g class="o"><path transform="translate(4,8)" class="S sfv" d="M1275 1820 L1393 1938 L1393 1946 L1275 1828 Z"/><path class="fv6" d="M1275 1820 L1393 1938 L1393 1946 L1275 1828 Z" /></g><g class="o"><path transform="translate(6,12)" class="S sfh" d="M1240 2010 L1340 2110 L1368 2110 L1268 2010 Z"/><path class="fh2" d="M1240 2010 L1340 2110 L1368 2110 L1268 2010 Z" /></g><g class="o"><path transform="translate(2,4)" class="S sf" d="M1590 1350 L1492 1448 L1492 1456 L1590 1358 Z"/><path class="f6" d="M1590 1350 L1492 1448 L1492 1456 L1590 1358 Z" /></g><g class="o"><path transform="translate(8,16)" class="S sfh" d="M1019 1062 L1144 1187 L1182 1187 L1057 1062 Z"/><path class="fh6" d="M1019 1062 L1144 1187 L1182 1187 L1057 1062 Z" /></g><g class="o"><path transform="translate(9,18)" class="S sfh" d="M1335 1406 L1554 1625 L1574 1625 L1355 1406 Z"/><path class="fh6" d="M1335 1406 L1554 1625 L1574 1625 L1355 1406 Z" /></g><g class="o"><path transform="translate(6,12)" class="S ss" d="M1225 1924 L1465 2164 L1491 2164 L1251 1924 Z"/><path class="s5" d="M1225 1924 L1465 2164 L1491 2164 L1251 1924 Z" /></g><g class="o"><path transform="translate(6,12)" class="S sfh" d="M1332 1202 L1243 1291 L1257 1291 L1346 1202 Z"/><path class="fh2" d="M1332 1202 L1243 1291 L1257 1291 L1346 1202 Z" /></g><g class="o"><path transform="translate(6,12)" class="S sfh" d="M1560 1452 L1432 1324 L1460 1324 L1588 1452 Z"/><path class="fh2" d="M1560 1452 L1432 1324 L1460 1324 L1588 1452 Z" /></g><g class="o"><path transform="translate(6,12)" class="S sfh" d="M1460 1732 L1707 1979 L1737 1979 L1490 1732 Z"/><path class="fh4" d="M1460 1732 L1707 1979 L1737 1979 L1490 1732 Z" /></g><g class="o"><path transform="translate(6,12)" class="S sf" d="M1742 1556 L1859 1673 L1859 1701 L1742 1584 Z"/><path class="f7" d="M1742 1556 L1859 1673 L1859 1701 L1742 1584 Z" /></g><g class="o"><path transform="translate(6,12)" class="S ssh" d="M1092 1441 L1180 1529 L1194 1529 L1106 1441 Z"/><path class="sh6" d="M1092 1441 L1180 1529 L1194 1529 L1106 1441 Z" /></g><g class="o"><path transform="translate(6,12)" class="S sf" d="M1438 1291 L1321 1408 L1409 1408 L1526 1291 Z"/><path class="f3" d="M1438 1291 L1321 1408 L1409 1408 L1526 1291 Z" /></g><g class="o"><path transform="translate(6,12)" class="S sfh" d="M1726 1579 L1606 1699 L1614 1699 L1734 1579 Z"/><path class="fh5" d="M1726 1579 L1606 1699 L1614 1699 L1734 1579 Z" /></g><g class="o"><path transform="translate(4,8)" class="S sfh" d="M1024 1738 L1236 1950 L1252 1950 L1040 1738 Z"/><path class="fh6" d="M1024 1738 L1236 1950 L1252 1950 L1040 1738 Z" /></g><g class="o"><path transform="translate(9,18)" class="S sfv" d="M1670 1038 L1871 1239 L1871 1261 L1670 1060 Z"/><path class="fv3" d="M1670 1038 L1871 1239 L1871 1261 L1670 1060 Z" /></g><g class="o"><path transform="translate(3,6)" class="S sfh" d="M1664 1124 L1752 1212 L1780 1212 L1692 1124 Z"/><path class="fh7" d="M1664 1124 L1752 1212 L1780 1212 L1692 1124 Z" /></g><g class="o"><path transform="translate(7,14)" class="S sfh" d="M1283 1594 L1080 1797 L1090 1797 L1293 1594 Z"/><path class="fh6" d="M1283 1594 L1080 1797 L1090 1797 L1293 1594 Z" /></g><g class="o"><path transform="translate(8,16)" class="S sfv" d="M1756 1333 L1882 1207 L1882 1235 L1756 1361 Z"/><path class="fv3" d="M1756 1333 L1882 1207 L1882 1235 L1756 1361 Z" /></g><g class="o"><path transform="translate(2,4)" class="S sfv" d="M1912 1731 L2114 1933 L2114 1963 L1912 1761 Z"/><path class="fv4" d="M1912 1731 L2114 1933 L2114 1963 L1912 1761 Z" /></g><g class="o"><path transform="translate(4,8)" class="S ssh" d="M1915 1631 L2028 1744 L2062 1744 L1949 1631 Z"/><path class="sh4" d="M1915 1631 L2028 1744 L2062 1744 L1949 1631 Z" /></g><g class="o"><path transform="translate(5,10)" class="S sfh" d="M1044 1367 L1111 1434 L1129 1434 L1062 1367 Z"/><path class="fh6" d="M1044 1367 L1111 1434 L1129 1434 L1062 1367 Z" /></g><g class="o"><path transform="translate(3,6)" class="S ssv" d="M1854 1428 L1778 1504 L1778 1522 L1854 1446 Z"/><path class="sv5" d="M1854 1428 L1778 1504 L1778 1522 L1854 1446 Z" /></g><g class="o"><path transform="translate(3,6)" class="S sfv" d="M1365 1755 L1146 1536 L1146 1568 L1365 1787 Z"/><path class="fv1" d="M1365 1755 L1146 1536 L1146 1568 L1365 1787 Z" /></g><g class="o"><path transform="translate(2,4)" class="S sfh" d="M1656 1918 L1764 1810 L1776 1810 L1668 1918 Z"/><path class="fh3" d="M1656 1918 L1764 1810 L1776 1810 L1668 1918 Z" /></g><g class="o"><path transform="translate(4,8)" class="S sfh" d="M1454 1043 L1573 1162 L1595 1162 L1476 1043 Z"/><path class="fh1" d="M1454 1043 L1573 1162 L1595 1162 L1476 1043 Z" /></g><g class="o"><path transform="translate(2,4)" class="S sf" d="M1046 1625 L1128 1707 L1128 1737 L1046 1655 Z"/><path class="f4" d="M1046 1625 L1128 1707 L1128 1737 L1046 1655 Z" /></g><g class="o"><path transform="translate(6,12)" class="S ss" d="M1772 1380 L1545 1153 L1545 1187 L1772 1414 Z"/><path class="s1" d="M1772 1380 L1545 1153 L1545 1187 L1772 1414 Z" /></g><g class="o"><path transform="translate(8,16)" class="S ssv" d="M1133 1134 L1319 1320 L1319 1340 L1133 1154 Z"/><path class="sv3" d="M1133 1134 L1319 1320 L1319 1340 L1133 1154 Z" /></g><g class="o"><path transform="translate(3,6)" class="S ssh" d="M1239 1215 L1136 1318 L1152 1318 L1255 1215 Z"/><path class="sh5" d="M1239 1215 L1136 1318 L1152 1318 L1255 1215 Z" /></g><g class="o"><path transform="translate(3,6)" class="S sfh" d="M1125 1625 L894 1394 L918 1394 L1149 1625 Z"/><path class="fh4" d="M1125 1625 L894 1394 L918 1394 L1149 1625 Z" /></g><g class="o"><path transform="translate(2,4)" class="S sfh" d="M1075 1867 L1130 1922 L1274 1922 L1219 1867 Z"/><path class="fh3" d="M1075 1867 L1130 1922 L1274 1922 L1219 1867 Z" /></g><g class="o"><path transform="translate(3,6)" class="S ssh" d="M1164 1494 L1287 1371 L1317 1371 L1194 1494 Z"/><path class="sh7" d="M1164 1494 L1287 1371 L1317 1371 L1194 1494 Z" /></g><g class="o"><path transform="translate(5,10)" class="S sfh" d="M1582 1257 L1357 1032 L1381 1032 L1606 1257 Z"/><path class="fh3" d="M1582 1257 L1357 1032 L1381 1032 L1606 1257 Z" /></g><g class="o"><path transform="translate(2,4)" class="S sf" d="M1469 1177 L1559 1087 L1559 1107 L1469 1197 Z"/><path class="f7" d="M1469 1177 L1559 1087 L1559 1107 L1469 1197 Z" /></g><g class="o"><path transform="translate(4,8)" class="S sfh" d="M1016 1976 L1236 2196 L1264 2196 L1044 1976 Z"/><path class="fh4" d="M1016 1976 L1236 2196 L1264 2196 L1044 1976 Z" /></g><g class="o"><path transform="translate(4,8)" class="S sfh" d="M1031 1633 L971 1693 L987 1693 L1047 1633 Z"/><path class="fh5" d="M1031 1633 L971 1693 L987 1693 L1047 1633 Z" /></g><g class="o"><path transform="translate(4,8)" class="S sfh" d="M1709 960 L1546 1123 L1584 1123 L1747 960 Z"/><path class="fh6" d="M1709 960 L1546 1123 L1584 1123 L1747 960 Z" /></g><g class="o"><path transform="translate(9,18)" class="S ssv" d="M1976 1097 L2165 1286 L2165 1294 L1976 1105 Z"/><path class="sv2" d="M1976 1097 L2165 1286 L2165 1294 L1976 1105 Z" /></g><g class="o"><path transform="translate(8,16)" class="S sf" d="M1316 1789 L1244 1717 L1244 1773 L1316 1845 Z"/><path class="f7" d="M1316 1789 L1244 1717 L1244 1773 L1316 1845 Z" /></g><g class="o"><path transform="translate(8,16)" class="S sfh" d="M1708 2012 L1834 2138 L1882 2138 L1756 2012 Z"/><path class="fh1" d="M1708 2012 L1834 2138 L1882 2138 L1756 2012 Z" /></g><g class="o"><path transform="translate(5,10)" class="S sfv" d="M1951 1752 L1842 1861 L1842 1885 L1951 1776 Z"/><path class="fv7" d="M1951 1752 L1842 1861 L1842 1885 L1951 1776 Z" /></g><g class="o"><path transform="translate(6,12)" class="S sf" d="M1695 1412 L1600 1317 L1600 1343 L1695 1438 Z"/><path class="f4" d="M1695 1412 L1600 1317 L1600 1343 L1695 1438 Z" /></g><g class="o"><path transform="translate(7,14)" class="S sfv" d="M2006 1958 L1936 2028 L1936 2046 L2006 1976 Z"/><path class="fv3" d="M2006 1958 L1936 2028 L1936 2046 L2006 1976 Z" /></g><g class="o"><path transform="translate(4,8)" class="S sfh" d="M1981 1050 L1859 1172 L1931 1172 L2053 1050 Z"/><path class="fh2" d="M1981 1050 L1859 1172 L1931 1172 L2053 1050 Z" /></g><g class="o"><path transform="translate(9,18)" class="S sfv" d="M1395 1698 L1234 1859 L1234 1971 L1395 1810 Z"/><path class="fv4" d="M1395 1698 L1234 1859 L1234 1971 L1395 1810 Z" /></g><g class="o"><path transform="translate(3,6)" class="S sf" d="M1925 1569 L2001 1645 L2009 1645 L1933 1569 Z"/><path class="f3" d="M1925 1569 L2001 1645 L2009 1645 L1933 1569 Z" /></g><g class="o"><path transform="translate(4,8)" class="S sf" d="M1147 1209 L1239 1301 L1239 1325 L1147 1233 Z"/><path class="f5" d="M1147 1209 L1239 1301 L1239 1325 L1147 1233 Z" /></g><g class="o"><path transform="translate(9,18)" class="S sfh" d="M1486 1167 L1405 1248 L1413 1248 L1494 1167 Z"/><path class="fh4" d="M1486 1167 L1405 1248 L1413 1248 L1494 1167 Z" /></g><g class="o"><path transform="translate(4,8)" class="S ssv" d="M1897 1847 L1669 1619 L1669 1653 L1897 1881 Z"/><path class="sv1" d="M1897 1847 L1669 1619 L1669 1653 L1897 1881 Z" /></g><g class="o"><path transform="translate(5,10)" class="S sfh" d="M1689 1148 L1528 1309 L1546 1309 L1707 1148 Z"/><path class="fh3" d="M1689 1148 L1528 1309 L1546 1309 L1707 1148 Z" /></g><g class="o"><path transform="translate(9,18)" class="S ssh" d="M1973 1611 L2092 1730 L2110 1730 L1991 1611 Z"/><path class="sh2" d="M1973 1611 L2092 1730 L2110 1730 L1991 1611 Z" /></g><g class="o"><path transform="translate(9,18)" class="S sfv" d="M2041 1489 L2267 1715 L2267 1727 L2041 1501 Z"/><path class="fv2" d="M2041 1489 L2267 1715 L2267 1727 L2041 1501 Z" /></g><g class="o"><path transform="translate(2,4)" class="S sf" d="M1426 1884 L1271 2039 L1271 2077 L1426 1922 Z"/><path class="f1" d="M1426 1884 L1271 2039 L1271 2077 L1426 1922 Z" /></g><g class="o"><path transform="translate(5,10)" class="S sfh" d="M1146 1558 L997 1707 L1031 1707 L1180 1558 Z"/><path class="fh3" d="M1146 1558 L997 1707 L1031 1707 L1180 1558 Z" /></g><g class="o"><path transform="translate(8,16)" class="S sfh" d="M1031 1666 L1206 1491 L1228 1491 L1053 1666 Z"/><path class="fh6" d="M1031 1666 L1206 1491 L1228 1491 L1053 1666 Z" /></g><g class="o"><path transform="translate(2,4)" class="S sfh" d="M999 1388 L751 1140 L783 1140 L1031 1388 Z"/><path class="fh2" d="M999 1388 L751 1140 L783 1140 L1031 1388 Z" /></g><g class="o"><path transform="translate(4,8)" class="S sf" d="M1919 1098 L1813 1204 L1901 1204 L2007 1098 Z"/><path class="f4" d="M1919 1098 L1813 1204 L1901 1204 L2007 1098 Z" /></g><g class="o"><path transform="translate(2,4)" class="S ssv" d="M1694 1575 L1494 1775 L1494 1807 L1694 1607 Z"/><path class="sv3" d="M1694 1575 L1494 1775 L1494 1807 L1694 1607 Z" /></g><g class="o"><path transform="translate(4,8)" class="S ssv" d="M1811 1766 L1717 1672 L1717 1698 L1811 1792 Z"/><path class="sv5" d="M1811 1766 L1717 1672 L1717 1698 L1811 1792 Z" /></g><g class="o"><path transform="translate(2,4)" class="S ssh" d="M1000 1490 L1175 1315 L1205 1315 L1030 1490 Z"/><path class="sh1" d="M1000 1490 L1175 1315 L1205 1315 L1030 1490 Z" /></g><g class="o"><path transform="translate(5,10)" class="S ssh" d="M1896 1235 L2145 986 L2157 986 L1908 1235 Z"/><path class="sh7" d="M1896 1235 L2145 986 L2157 986 L1908 1235 Z" /></g><g class="o"><path transform="translate(3,6)" class="S sf" d="M1644 1787 L1455 1976 L1487 1976 L1676 1787 Z"/><path class="f2" d="M1644 1787 L1455 1976 L1487 1976 L1676 1787 Z" /></g><g class="o"><path transform="translate(3,6)" class="S sfh" d="M1163 1805 L1227 1869 L1245 1869 L1181 1805 Z"/><path class="fh3" d="M1163 1805 L1227 1869 L1245 1869 L1181 1805 Z" /></g><g class="o"><path transform="translate(4,8)" class="S sf" d="M1661 960 L1458 757 L1480 757 L1683 960 Z"/><path class="f4" d="M1661 960 L1458 757 L1480 757 L1683 960 Z" /></g><g class="o"><path transform="translate(6,12)" class="S sfv" d="M1911 1045 L1791 1165 L1791 1193 L1911 1073 Z"/><path class="fv7" d="M1911 1045 L1791 1165 L1791 1193 L1911 1073 Z" /></g><g class="o"><path transform="translate(5,10)" class="S sfv" d="M1258 1425 L1436 1247 L1436 1263 L1258 1441 Z"/><path class="fv2" d="M1258 1425 L1436 1247 L1436 1263 L1258 1441 Z" /></g><g class="o"><path transform="translate(2,4)" class="S sfv" d="M1532 1018 L1448 1102 L1448 1138 L1532 1054 Z"/><path class="fv6" d="M1532 1018 L1448 1102 L1448 1138 L1532 1054 Z" /></g><g class="o"><path transform="translate(6,12)" class="S sf" d="M1347 1675 L1246 1776 L1264 1776 L1365 1675 Z"/><path class="f3" d="M1347 1675 L1246 1776 L1264 1776 L1365 1675 Z" /></g><g class="o"><path transform="translate(4,8)" class="S sfh" d="M1416 1019 L1488 1091 L1512 1091 L1440 1019 Z"/><path class="fh2" d="M1416 1019 L1488 1091 L1512 1091 L1440 1019 Z" /></g><g class="o"><path transform="translate(3,6)" class="S ssh" d="M1154 1987 L1327 2160 L1351 2160 L1178 1987 Z"/><path class="sh1" d="M1154 1987 L1327 2160 L1351 2160 L1178 1987 Z" /></g><g class="o"><path transform="translate(3,6)" class="S sfv" d="M1485 1377 L1405 1457 L1405 1465 L1485 1385 Z"/><path class="fv3" d="M1485 1377 L1405 1457 L1405 1465 L1485 1385 Z" /></g><g class="o"><path transform="translate(2,4)" class="S sfv" d="M1293 1940 L1145 1792 L1145 1826 L1293 1974 Z"/><path class="fv4" d="M1293 1940 L1145 1792 L1145 1826 L1293 1974 Z" /></g><g class="o"><path transform="translate(9,18)" class="S sfv" d="M1513 1862 L1299 2076 L1299 2098 L1513 1884 Z"/><path class="fv4" d="M1513 1862 L1299 2076 L1299 2098 L1513 1884 Z" /></g><g class="o"><path transform="translate(2,4)" class="S sfh" d="M1218 1852 L971 2099 L1123 2099 L1370 1852 Z"/><path class="fh7" d="M1218 1852 L971 2099 L1123 2099 L1370 1852 Z" /></g><g class="o"><path transform="translate(9,18)" class="S sfh" d="M1320 1288 L1196 1164 L1228 1164 L1352 1288 Z"/><path class="fh2" d="M1320 1288 L1196 1164 L1228 1164 L1352 1288 Z" /></g><g class="o"><path transform="translate(6,12)" class="S sf" d="M1085 1726 L1024 1787 L1024 1823 L1085 1762 Z"/><path class="f2" d="M1085 1726 L1024 1787 L1024 1823 L1085 1762 Z" /></g><g class="o"><path transform="translate(7,14)" class="S ssv" d="M1522 1059 L1619 1156 L1619 1220 L1522 1123 Z"/><path class="sv1" d="M1522 1059 L1619 1156 L1619 1220 L1522 1123 Z" /></g><g class="o"><path transform="translate(7,14)" class="S sfv" d="M1620 1326 L1746 1452 L1746 1460 L1620 1334 Z"/><path class="fv6" d="M1620 1326 L1746 1452 L1746 1460 L1620 1334 Z" /></g><g class="o"><path transform="translate(9,18)" class="S sfv" d="M1542 1629 L1662 1749 L1662 1763 L1542 1643 Z"/><path class="fv4" d="M1542 1629 L1662 1749 L1662 1763 L1542 1643 Z" /></g><g class="o"><path transform="translate(6,12)" class="S sfv" d="M1381 1815 L1529 1963 L1529 1989 L1381 1841 Z"/><path class="fv5" d="M1381 1815 L1529 1963 L1529 1989 L1381 1841 Z" /></g><g class="o"><path transform="translate(8,16)" class="S ssv" d="M1286 1308 L1217 1377 L1217 1393 L1286 1324 Z"/><path class="sv2" d="M1286 1308 L1217 1377 L1217 1393 L1286 1324 Z" /></g><g class="o"><path transform="translate(6,12)" class="S sfh" d="M1927 1884 L1990 1821 L2016 1821 L1953 1884 Z"/><path class="fh4" d="M1927 1884 L1990 1821 L2016 1821 L1953 1884 Z" /></g><g class="o"><path transform="translate(5,10)" class="S sfv" d="M1932 1335 L1754 1513 L1754 1537 L1932 1359 Z"/><path class="fv7" d="M1932 1335 L1754 1513 L1754 1537 L1932 1359 Z" /></g><g class="o"><path transform="translate(8,16)" class="S sfh" d="M1948 1193 L1827 1072 L1841 1072 L1962 1193 Z"/><path class="fh5" d="M1948 1193 L1827 1072 L1841 1072 L1962 1193 Z" /></g></g><use href="#slashes" transform-origin="1500 1500" transform="rotate(180) scale(2)"/></g><rect x="1080" y="1080" width="840" height="840" stroke-width="40" class="o s4" /><use href="#slashes" transform-origin="1500 1500" transform="scale(1.3)"/><use href="#slashes" transform-origin="1500 1500" transform="rotate(180) scale(.7)"/></svg>