<svg xmlns="http://www.w3.org/2000/svg" viewBox="750 750 1500 1500"><style>/*<![CDATA[*/svg{background:rgb(6,174,213);max-width:100vw;max-height:100vh}path{stroke-width:4}.o{opacity:.75}.S{opacity:.4}.sf{stroke:none;fill:black}.sfh{stroke:none;fill:url(#hs)}.sfv{stroke:none;fill:url(#vs)}.ss{stroke:black;fill:none}.ssh{stroke:url(#hs);fill:none}.ssv{stroke:url(#vs);fill:none}.s1{fill:none;stroke:rgb(204,204,204)}.f1{stroke:none;fill:rgb(204,204,204)}.sh1{fill:none;stroke:url(#h1)}.fh1{stroke:none;fill:url(#h1)}.sv1{fill:none;stroke:url(#v1)}.fv1{stroke:none;fill:url(#v1)}.s2{fill:none;stroke:rgb(8,103,136)}.f2{stroke:none;fill:rgb(8,103,136)}.sh2{fill:none;stroke:url(#h2)}.fh2{stroke:none;fill:url(#h2)}.sv2{fill:none;stroke:url(#v2)}.fv2{stroke:none;fill:url(#v2)}.s3{fill:none;stroke:rgb(221,28,26)}.f3{stroke:none;fill:rgb(221,28,26)}.sh3{fill:none;stroke:url(#h3)}.fh3{stroke:none;fill:url(#h3)}.sv3{fill:none;stroke:url(#v3)}.fv3{stroke:none;fill:url(#v3)}.s4{fill:none;stroke:rgb(34,34,34)}.f4{stroke:none;fill:rgb(34,34,34)}.sh4{fill:none;stroke:url(#h4)}.fh4{stroke:none;fill:url(#h4)}.sv4{fill:none;stroke:url(#v4)}.fv4{stroke:none;fill:url(#v4)}.s5{fill:none;stroke:rgb(48,48,48)}.f5{stroke:none;fill:rgb(48,48,48)}.sh5{fill:none;stroke:url(#h5)}.fh5{stroke:none;fill:url(#h5)}.sv5{fill:none;stroke:url(#v5)}.fv5{stroke:none;fill:url(#v5)}.s6{fill:none;stroke:rgb(255,255,255)}.f6{stroke:none;fill:rgb(255,255,255)}.sh6{fill:none;stroke:url(#h6)}.fh6{stroke:none;fill:url(#h6)}.sv6{fill:none;stroke:url(#v6)}.fv6{stroke:none;fill:url(#v6)}.s7{fill:none;stroke:rgb(255,255,0)}.f7{stroke:none;fill:rgb(255,255,0)}.sh7{fill:none;stroke:url(#h7)}.fh7{stroke:none;fill:url(#h7)}.sv7{fill:none;stroke:url(#v7)}.fv7{stroke:none;fill:url(#v7)}/*]]>*/</style><defs><linearGradient gradientTransform="rotate(90)" id="hs"><stop offset="20%" stop-color="#000" /><stop offset="95%" stop-color="rgba(0, 0, 0, 0)" /></linearGradient><linearGradient id="vs"><stop offset="20%" stop-color="#000" /><stop offset="95%" stop-color="rgba(0, 0, 0, 0)" /></linearGradient><linearGradient gradientTransform="rotate(90)" id="h1"><stop offset="20%" stop-color="rgba(204,204,204,1)" /><stop offset="95%" stop-color="rgba(204,204,204,0)" /></linearGradient><linearGradient id="v1"><stop offset="20%" stop-color="rgba(204,204,204,1)" /><stop offset="95%" stop-color="rgba(204,204,204,0)" /></linearGradient><linearGradient gradientTransform="rotate(90)" id="h2"><stop offset="20%" stop-color="rgba(8,103,136,1)" /><stop offset="95%" stop-color="rgba(8,103,136,0)" /></linearGradient><linearGradient id="v2"><stop offset="20%" stop-color="rgba(8,103,136,1)" /><stop offset="95%" stop-color="rgba(8,103,136,0)" /></linearGradient><linearGradient gradientTransform="rotate(90)" id="h3"><stop offset="20%" stop-color="rgba(221,28,26,1)" /><stop offset="95%" stop-color="rgba(221,28,26,0)" /></linearGradient><linearGradient id="v3"><stop offset="20%" stop-color="rgba(221,28,26,1)" /><stop offset="95%" stop-color="rgba(221,28,26,0)" /></linearGradient><linearGradient gradientTransform="rotate(90)" id="h4"><stop offset="20%" stop-color="rgba(34,34,34,1)" /><stop offset="95%" stop-color="rgba(34,34,34,0)" /></linearGradient><linearGradient id="v4"><stop offset="20%" stop-color="rgba(34,34,34,1)" /><stop offset="95%" stop-color="rgba(34,34,34,0)" /></linearGradient><linearGradient gradientTransform="rotate(90)" id="h5"><stop offset="20%" stop-color="rgba(48,48,48,1)" /><stop offset="95%" stop-color="rgba(48,48,48,0)" /></linearGradient><linearGradient id="v5"><stop offset="20%" stop-color="rgba(48,48,48,1)" /><stop offset="95%" stop-color="rgba(48,48,48,0)" /></linearGradient><linearGradient gradientTransform="rotate(90)" id="h6"><stop offset="20%" stop-color="rgba(255,255,255,1)" /><stop offset="95%" stop-color="rgba(255,255,255,0)" /></linearGradient><linearGradient id="v6"><stop offset="20%" stop-color="rgba(255,255,255,1)" /><stop offset="95%" stop-color="rgba(255,255,255,0)" /></linearGradient><linearGradient gradientTransform="rotate(90)" id="h7"><stop offset="20%" stop-color="rgba(255,255,0,1)" /><stop offset="95%" stop-color="rgba(255,255,0,0)" /></linearGradient><linearGradient id="v7"><stop offset="20%" stop-color="rgba(255,255,0,1)" /><stop offset="95%" stop-color="rgba(255,255,0,0)" /></linearGradient></defs><g transform-origin="1500 1500" transform="scale(2)" opacity=".2"><g id="slashes"><g class="o"><path transform="translate(4,8)" class="S sfh" d="M1111 1055 L1223 943 L1253 943 L1141 1055 Z"/><path class="fh4" d="M1111 1055 L1223 943 L1253 943 L1141 1055 Z" /></g><g class="o"><path transform="translate(3,6)" class="S sf" d="M1294 1594 L1406 1482 L1406 1500 L1294 1612 Z"/><path class="f7" d="M1294 1594 L1406 1482 L1406 1500 L1294 1612 Z" /></g><g class="o"><path transform="translate(7,14)" class="S sfh" d="M1578 1413 L1734 1257 L1762 1257 L1606 1413 Z"/><path class="fh4" d="M1578 1413 L1734 1257 L1762 1257 L1606 1413 Z" /></g><g class="o"><path transform="translate(7,14)" class="S sf" d="M1402 1042 L1502 942 L1502 966 L1402 1066 Z"/><path class="f2" d="M1402 1042 L1502 942 L1502 966 L1402 1066 Z" /></g><g class="o"><path transform="translate(3,6)" class="S ssh" d="M1579 1906 L1738 1747 L1756 1747 L1597 1906 Z"/><path class="sh1" d="M1579 1906 L1738 1747 L1756 1747 L1597 1906 Z" /></g><g class="o"><path transform="translate(6,12)" class="S sfh" d="M1493 1680 L1622 1551 L1634 1551 L1505 1680 Z"/><path class="fh5" d="M1493 1680 L1622 1551 L1634 1551 L1505 1680 Z" /></g><g class="o"><path transform="translate(3,6)" class="S sfv" d="M1749 1413 L1832 1330 L1832 1338 L1749 1421 Z"/><path class="fv3" d="M1749 1413 L1832 1330 L1832 1338 L1749 1421 Z" /></g><g class="o"><path transform="translate(4,8)" class="S sfh" d="M1734 1821 L1998 1557 L2032 1557 L1768 1821 Z"/><path class="fh5" d="M1734 1821 L1998 1557 L2032 1557 L1768 1821 Z" /></g><g class="o"><path transform="translate(5,10)" class="S sfh" d="M1737 1807 L1929 1615 L1943 1615 L1751 1807 Z"/><path class="fh5" d="M1737 1807 L1929 1615 L1943 1615 L1751 1807 Z" /></g><g class="o"><path transform="translate(2,4)" class="S sfv" d="M1623 1246 L1772 1097 L1772 1123 L1623 1272 Z"/><path class="fv4" d="M1623 1246 L1772 1097 L1772 1123 L1623 1272 Z" /></g><g class="o"><path transform="translate(3,6)" class="S ssv" d="M1836 1246 L2014 1068 L2014 1102 L1836 1280 Z"/><path class="sv7" d="M1836 1246 L2014 1068 L2014 1102 L1836 1280 Z" /></g><g class="o"><path transform="translate(6,12)" class="S sfh" d="M1562 1615 L1677 1500 L1685 1500 L1570 1615 Z"/><path class="fh3" d="M1562 1615 L1677 1500 L1685 1500 L1570 1615 Z" /></g><g class="o"><path transform="translate(4,8)" class="S sfh" d="M1325 1248 L1553 1020 L1567 1020 L1339 1248 Z"/><path class="fh4" d="M1325 1248 L1553 1020 L1567 1020 L1339 1248 Z" /></g><g class="o"><path transform="translate(7,14)" class="S sfh" d="M1139 1777 L1197 1719 L1235 1719 L1177 1777 Z"/><path class="fh2" d="M1139 1777 L1197 1719 L1235 1719 L1177 1777 Z" /></g><g class="o"><path transform="translate(5,10)" class="S sfh" d="M1869 974 L1923 920 L1943 920 L1889 974 Z"/><path class="fh3" d="M1869 974 L1923 920 L1943 920 L1889 974 Z" /></g><g class="o"><path transform="translate(9,18)" class="S sfh" d="M1549 1977 L1705 1821 L1717 1821 L1561 1977 Z"/><path class="fh2" d="M1549 1977 L1705 1821 L1717 1821 L1561 1977 Z" /></g><g class="o"><path transform="translate(7,14)" class="S sf" d="M1224 1697 L1396 1525 L1406 1525 L1234 1697 Z"/><path class="f5" d="M1224 1697 L1396 1525 L1406 1525 L1234 1697 Z" /></g><g class="o"><path transform="translate(3,6)" class="S ssh" d="M1120 2009 L1203 1926 L1221 1926 L1138 2009 Z"/><path class="sh2" d="M1120 2009 L1203 1926 L1221 1926 L1138 2009 Z" /></g><g class="o"><path transform="translate(4,8)" class="S sfv" d="M1974 1041 L2058 957 L2058 993 L1974 1077 Z"/><path class="fv7" d="M1974 1041 L2058 957 L2058 993 L1974 1077 Z" /></g><g class="o"><path transform="translate(7,14)" class="S ssh" d="M1492 1957 L1731 1718 L1747 1718 L1508 1957 Z"/><path class="sh6" d="M1492 1957 L1731 1718 L1747 1718 L1508 1957 Z" /></g><g class="o"><path transform="translate(9,18)" class="S sfv" d="M1835 1219 L1897 1157 L1897 1171 L1835 1233 Z"/><path class="fv4" d="M1835 1219 L1897 1157 L1897 1171 L1835 1233 Z" /></g><g class="o"><path transform="translate(5,10)" class="S sf" d="M1661 1051 L1898 814 L1898 836 L1661 1073 Z"/><path class="f3" d="M1661 1051 L1898 814 L1898 836 L1661 1073 Z" /></g><g class="o"><path transform="translate(6,12)" class="S ssh" d="M1129 1512 L1720 921 L1756 921 L1165 1512 Z"/><path class="sh4" d="M1129 1512 L1720 921 L1756 921 L1165 1512 Z" /></g><g class="o"><path transform="translate(5,10)" class="S sf" d="M1107 1641 L1191 1557 L1207 1557 L1123 1641 Z"/><path class="f4" d="M1107 1641 L1191 1557 L1207 1557 L1123 1641 Z" /></g><g class="o"><path transform="translate(5,10)" class="S sfh" d="M1481 1654 L2063 1072 L2095 1072 L1513 1654 Z"/><path class="fh2" d="M1481 1654 L2063 1072 L2095 1072 L1513 1654 Z" /></g><g class="o"><path transform="translate(7,14)" class="S sfv" d="M1212 1478 L1350 1340 L1350 1352 L1212 1490 Z"/><path class="fv3" d="M1212 1478 L1350 1340 L1350 1352 L1212 1490 Z" /></g><g class="o"><path transform="translate(6,12)" class="S ssh" d="M1082 1574 L1177 1479 L1191 1479 L1096 1574 Z"/><path class="sh3" d="M1082 1574 L1177 1479 L1191 1479 L1096 1574 Z" /></g><g class="o"><path transform="translate(3,6)" class="S sfh" d="M1008 1574 L1174 1408 L1192 1408 L1026 1574 Z"/><path class="fh1" d="M1008 1574 L1174 1408 L1192 1408 L1026 1574 Z" /></g><g class="o"><path transform="translate(8,16)" class="S sfv" d="M1022 1371 L1086 1307 L1086 1331 L1022 1395 Z"/><path class="fv6" d="M1022 1371 L1086 1307 L1086 1331 L1022 1395 Z" /></g><g class="o"><path transform="translate(3,6)" class="S sfv" d="M1069 1479 L1190 1358 L1190 1396 L1069 1517 Z"/><path class="fv4" d="M1069 1479 L1190 1358 L1190 1396 L1069 1517 Z" /></g><g class="o"><path transform="translate(2,4)" class="S sfh" d="M1459 1799 L1587 1671 L1627 1671 L1499 1799 Z"/><path class="fh5" d="M1459 1799 L1587 1671 L1627 1671 L1499 1799 Z" /></g><g class="o"><path transform="translate(7,14)" class="S sfh" d="M1578 1758 L1698 1638 L1724 1638 L1604 1758 Z"/><path class="fh1" d="M1578 1758 L1698 1638 L1724 1638 L1604 1758 Z" /></g><g class="o"><path transform="translate(6,12)" class="S ssv" d="M1918 1451 L2002 1367 L2002 1397 L1918 1481 Z"/><path class="sv7" d="M1918 1451 L2002 1367 L2002 1397 L1918 1481 Z" /></g><g class="o"><path transform="translate(9,18)" class="S ssh" d="M975 1059 L1096 938 L1132 938 L1011 1059 Z"/><path class="sh5" d="M975 1059 L1096 938 L1132 938 L1011 1059 Z" /></g><g class="o"><path transform="translate(2,4)" class="S sfh" d="M1463 1258 L1705 1016 L1719 1016 L1477 1258 Z"/><path class="fh3" d="M1463 1258 L1705 1016 L1719 1016 L1477 1258 Z" /></g><g class="o"><path transform="translate(7,14)" class="S sfh" d="M1413 1821 L1623 1611 L1687 1611 L1477 1821 Z"/><path class="fh5" d="M1413 1821 L1623 1611 L1687 1611 L1477 1821 Z" /></g><g class="o"><path transform="translate(3,6)" class="S ssh" d="M1347 1203 L1491 1059 L1507 1059 L1363 1203 Z"/><path class="sh5" d="M1347 1203 L1491 1059 L1507 1059 L1363 1203 Z" /></g><g class="o"><path transform="translate(5,10)" class="S sfv" d="M1924 1416 L1988 1352 L1988 1384 L1924 1448 Z"/><path class="fv5" d="M1924 1416 L1988 1352 L1988 1384 L1924 1448 Z" /></g><g class="o"><path transform="translate(3,6)" class="S ssv" d="M1606 1358 L2023 941 L2023 957 L1606 1374 Z"/><path class="sv1" d="M1606 1358 L2023 941 L2023 957 L1606 1374 Z" /></g><g class="o"><path transform="translate(2,4)" class="S sfh" d="M1174 1246 L1256 1164 L1294 1164 L1212 1246 Z"/><path class="fh6" d="M1174 1246 L1256 1164 L1294 1164 L1212 1246 Z" /></g><g class="o"><path transform="translate(4,8)" class="S ssh" d="M1464 1372 L1704 1132 L1736 1132 L1496 1372 Z"/><path class="sh2" d="M1464 1372 L1704 1132 L1736 1132 L1496 1372 Z" /></g><g class="o"><path transform="translate(8,16)" class="S sf" d="M1036 1278 L1179 1135 L1179 1143 L1036 1286 Z"/><path class="f4" d="M1036 1278 L1179 1135 L1179 1143 L1036 1286 Z" /></g><g class="o"><path transform="translate(2,4)" class="S sfh" d="M1558 1465 L1730 1293 L1752 1293 L1580 1465 Z"/><path class="fh4" d="M1558 1465 L1730 1293 L1752 1293 L1580 1465 Z" /></g><g class="o"><path transform="translate(6,12)" class="S sfv" d="M1472 1099 L1666 905 L1666 943 L1472 1137 Z"/><path class="fv1" d="M1472 1099 L1666 905 L1666 943 L1472 1137 Z" /></g><g class="o"><path transform="translate(5,10)" class="S sf" d="M1357 1323 L1499 1181 L1499 1211 L1357 1353 Z"/><path class="f2" d="M1357 1323 L1499 1181 L1499 1211 L1357 1353 Z" /></g><g class="o"><path transform="translate(4,8)" class="S ssv" d="M1489 1760 L1650 1599 L1650 1607 L1489 1768 Z"/><path class="sv6" d="M1489 1760 L1650 1599 L1650 1607 L1489 1768 Z" /></g><g class="o"><path transform="translate(8,16)" class="S sfh" d="M1362 959 L1457 864 L1495 864 L1400 959 Z"/><path class="fh7" d="M1362 959 L1457 864 L1495 864 L1400 959 Z" /></g><g class="o"><path transform="translate(6,12)" class="S sf" d="M1982 1535 L2128 1389 L2150 1389 L2004 1535 Z"/><path class="f7" d="M1982 1535 L2128 1389 L2150 1389 L2004 1535 Z" /></g><g class="o"><path transform="translate(4,8)" class="S ssv" d="M1867 1489 L2030 1326 L2030 1390 L1867 1553 Z"/><path class="sv1" d="M1867 1489 L2030 1326 L2030 1390 L1867 1553 Z" /></g><g class="o"><path transform="translate(9,18)" class="S sfv" d="M1591 1741 L2011 1321 L2011 1377 L1591 1797 Z"/><path class="fv1" d="M1591 1741 L2011 1321 L2011 1377 L1591 1797 Z" /></g><g class="o"><path transform="translate(6,12)" class="S sfh" d="M1174 1198 L1381 991 L1405 991 L1198 1198 Z"/><path class="fh3" d="M1174 1198 L1381 991 L1405 991 L1198 1198 Z" /></g><g class="o"><path transform="translate(5,10)" class="S sfh" d="M1581 1965 L1827 1719 L1851 1719 L1605 1965 Z"/><path class="fh6" d="M1581 1965 L1827 1719 L1851 1719 L1605 1965 Z" /></g><g class="o"><path transform="translate(9,18)" class="S sfv" d="M1120 1917 L1234 1803 L1234 1821 L1120 1935 Z"/><path class="fv5" d="M1120 1917 L1234 1803 L1234 1821 L1120 1935 Z" /></g><g class="o"><path transform="translate(2,4)" class="S sfh" d="M1279 1430 L1481 1228 L1495 1228 L1293 1430 Z"/><path class="fh5" d="M1279 1430 L1481 1228 L1495 1228 L1293 1430 Z" /></g><g class="o"><path transform="translate(2,4)" class="S sfv" d="M1831 1959 L1930 1860 L1930 1876 L1831 1975 Z"/><path class="fv7" d="M1831 1959 L1930 1860 L1930 1876 L1831 1975 Z" /></g><g class="o"><path transform="translate(7,14)" class="S ssv" d="M1026 2018 L1119 1925 L1119 1935 L1026 2028 Z"/><path class="sv2" d="M1026 2018 L1119 1925 L1119 1935 L1026 2028 Z" /></g><g class="o"><path transform="translate(6,12)" class="S ss" d="M1883 1344 L2096 1131 L2128 1131 L1915 1344 Z"/><path class="s5" d="M1883 1344 L2096 1131 L2128 1131 L1915 1344 Z" /></g><g class="o"><path transform="translate(6,12)" class="S sfh" d="M2001 1161 L2100 1062 L2196 1062 L2097 1161 Z"/><path class="fh6" d="M2001 1161 L2100 1062 L2196 1062 L2097 1161 Z" /></g><g class="o"><path transform="translate(4,8)" class="S ssh" d="M1422 1539 L1663 1298 L1695 1298 L1454 1539 Z"/><path class="sh2" d="M1422 1539 L1663 1298 L1695 1298 L1454 1539 Z" /></g><g class="o"><path transform="translate(3,6)" class="S sfv" d="M1905 1133 L2000 1038 L2000 1062 L1905 1157 Z"/><path class="fv5" d="M1905 1133 L2000 1038 L2000 1062 L1905 1157 Z" /></g><g class="o"><path transform="translate(5,10)" class="S sfh" d="M957 1395 L1623 729 L1647 729 L981 1395 Z"/><path class="fh6" d="M957 1395 L1623 729 L1647 729 L981 1395 Z" /></g><g class="o"><path transform="translate(7,14)" class="S sfh" d="M1051 1465 L1166 1350 L1198 1350 L1083 1465 Z"/><path class="fh4" d="M1051 1465 L1166 1350 L1198 1350 L1083 1465 Z" /></g><g class="o"><path transform="translate(6,12)" class="S sfh" d="M1438 1531 L1633 1336 L1777 1336 L1582 1531 Z"/><path class="fh4" d="M1438 1531 L1633 1336 L1777 1336 L1582 1531 Z" /></g><g class="o"><path transform="translate(6,12)" class="S sfv" d="M1423 1374 L1504 1293 L1504 1309 L1423 1390 Z"/><path class="fv6" d="M1423 1374 L1504 1293 L1504 1309 L1423 1390 Z" /></g><g class="o"><path transform="translate(7,14)" class="S sf" d="M1986 1992 L2376 1602 L2376 1636 L1986 2026 Z"/><path class="f7" d="M1986 1992 L2376 1602 L2376 1636 L1986 2026 Z" /></g><g class="o"><path transform="translate(6,12)" class="S sfh" d="M1958 1510 L2101 1367 L2113 1367 L1970 1510 Z"/><path class="fh5" d="M1958 1510 L2101 1367 L2113 1367 L1970 1510 Z" /></g><g class="o"><path transform="translate(8,16)" class="S sfh" d="M1546 1608 L1705 1449 L1849 1449 L1690 1608 Z"/><path class="fh4" d="M1546 1608 L1705 1449 L1849 1449 L1690 1608 Z" /></g><g class="o"><path transform="translate(7,14)" class="S sfv" d="M1872 1347 L2104 1115 L2104 1151 L1872 1383 Z"/><path class="fv5" d="M1872 1347 L2104 1115 L2104 1151 L1872 1383 Z" /></g><g class="o"><path transform="translate(3,6)" class="S sfh" d="M1122 2031 L1209 1944 L1245 1944 L1158 2031 Z"/><path class="fh5" d="M1122 2031 L1209 1944 L1245 1944 L1158 2031 Z" /></g><g class="o"><path transform="translate(8,16)" class="S sfv" d="M1786 969 L1982 773 L1982 787 L1786 983 Z"/><path class="fv7" d="M1786 969 L1982 773 L1982 787 L1786 983 Z" /></g><g class="o"><path transform="translate(7,14)" class="S sfv" d="M2006 1346 L2306 1046 L2306 1080 L2006 1380 Z"/><path class="fv7" d="M2006 1346 L2306 1046 L2306 1080 L2006 1380 Z" /></g><g class="o"><path transform="translate(4,8)" class="S sfh" d="M1256 1295 L1643 908 L1663 908 L1276 1295 Z"/><path class="fh3" d="M1256 1295 L1643 908 L1663 908 L1276 1295 Z" /></g><g class="o"><path transform="translate(2,4)" class="S sfh" d="M949 1919 L1154 1714 L1164 1714 L959 1919 Z"/><path class="fh1" d="M949 1919 L1154 1714 L1164 1714 L959 1919 Z" /></g><g class="o"><path transform="translate(3,6)" class="S sfh" d="M2005 1573 L2180 1398 L2218 1398 L2043 1573 Z"/><path class="fh3" d="M2005 1573 L2180 1398 L2218 1398 L2043 1573 Z" /></g><g class="o"><path transform="translate(9,18)" class="S ssh" d="M1889 1685 L2018 1556 L2046 1556 L1917 1685 Z"/><path class="sh5" d="M1889 1685 L2018 1556 L2046 1556 L1917 1685 Z" /></g><g class="o"><path transform="translate(2,4)" class="S sfh" d="M1490 1703 L2126 1067 L2156 1067 L1520 1703 Z"/><path class="fh1" d="M1490 1703 L2126 1067 L2156 1067 L1520 1703 Z" /></g><g class="o"><path transform="translate(3,6)" class="S sf" d="M1852 2019 L2063 1808 L2063 1844 L1852 2055 Z"/><path class="f1" d="M1852 2019 L2063 1808 L2063 1844 L1852 2055 Z" /></g><g class="o"><path transform="translate(2,4)" class="S sfv" d="M962 1356 L1102 1216 L1102 1242 L962 1382 Z"/><path class="fv4" d="M962 1356 L1102 1216 L1102 1242 L962 1382 Z" /></g><g class="o"><path transform="translate(5,10)" class="S sfv" d="M1248 1765 L1437 1576 L1437 1584 L1248 1773 Z"/><path class="fv3" d="M1248 1765 L1437 1576 L1437 1584 L1248 1773 Z" /></g><g class="o"><path transform="translate(7,14)" class="S sfv" d="M1836 1143 L1962 1017 L1962 1031 L1836 1157 Z"/><path class="fv3" d="M1836 1143 L1962 1017 L1962 1031 L1836 1157 Z" /></g><g class="o"><path transform="translate(6,12)" class="S sfh" d="M1640 991 L1801 830 L1829 830 L1668 991 Z"/><path class="fh2" d="M1640 991 L1801 830 L1829 830 L1668 991 Z" /></g><g class="o"><path transform="translate(9,18)" class="S sfh" d="M1286 1814 L1452 1648 L1480 1648 L1314 1814 Z"/><path class="fh2" d="M1286 1814 L1452 1648 L1480 1648 L1314 1814 Z" /></g><g class="o"><path transform="translate(8,16)" class="S sfv" d="M1395 1890 L1584 1701 L1584 1727 L1395 1916 Z"/><path class="fv2" d="M1395 1890 L1584 1701 L1584 1727 L1395 1916 Z" /></g><g class="o"><path transform="translate(9,18)" class="S sfv" d="M1570 1892 L1724 1738 L1724 1756 L1570 1910 Z"/><path class="fv2" d="M1570 1892 L1724 1738 L1724 1756 L1570 1910 Z" /></g><g class="o"><path transform="translate(6,12)" class="S sfh" d="M1366 1780 L1609 1537 L1623 1537 L1380 1780 Z"/><path class="fh3" d="M1366 1780 L1609 1537 L1623 1537 L1380 1780 Z" /></g><g class="o"><path transform="translate(8,16)" class="S sf" d="M971 1283 L1128 1126 L1156 1126 L999 1283 Z"/><path class="f6" d="M971 1283 L1128 1126 L1156 1126 L999 1283 Z" /></g><g class="o"><path transform="translate(8,16)" class="S sfv" d="M987 993 L1058 922 L1058 948 L987 1019 Z"/><path class="fv6" d="M987 993 L1058 922 L1058 948 L987 1019 Z" /></g><g class="o"><path transform="translate(2,4)" class="S sfv" d="M1035 1322 L1138 1219 L1138 1239 L1035 1342 Z"/><path class="fv1" d="M1035 1322 L1138 1219 L1138 1239 L1035 1342 Z" /></g><g class="o"><path transform="translate(8,16)" class="S sf" d="M1862 1606 L1924 1544 L1924 1558 L1862 1620 Z"/><path class="f5" d="M1862 1606 L1924 1544 L1924 1558 L1862 1620 Z" /></g><g class="o"><path transform="translate(3,6)" class="S sfv" d="M1936 1470 L1994 1412 L1994 1440 L1936 1498 Z"/><path class="fv3" d="M1936 1470 L1994 1412 L1994 1440 L1936 1498 Z" /></g><g class="o"><path transform="translate(5,10)" class="S ssh" d="M1062 1120 L1515 667 L1545 667 L1092 1120 Z"/><path class="sh4" d="M1062 1120 L1515 667 L1545 667 L1092 1120 Z" /></g><g class="o"><path transform="translate(3,6)" class="S ss" d="M1098 1184 L1329 953 L1367 953 L1136 1184 Z"/><path class="s4" d="M1098 1184 L1329 953 L1367 953 L1136 1184 Z" /></g><g class="o"><path transform="translate(7,14)" class="S ssh" d="M2032 1249 L2277 1004 L2295 1004 L2050 1249 Z"/><path class="sh2" d="M2032 1249 L2277 1004 L2295 1004 L2050 1249 Z" /></g><g class="o"><path transform="translate(9,18)" class="S sfv" d="M1318 966 L1912 372 L1912 400 L1318 994 Z"/><path class="fv4" d="M1318 966 L1912 372 L1912 400 L1318 994 Z" /></g><g class="o"><path transform="translate(2,4)" class="S sfh" d="M1576 1985 L1683 1878 L1693 1878 L1586 1985 Z"/><path class="fh7" d="M1576 1985 L1683 1878 L1693 1878 L1586 1985 Z" /></g><g class="o"><path transform="translate(8,16)" class="S sf" d="M1862 1630 L1924 1568 L1924 1596 L1862 1658 Z"/><path class="f1" d="M1862 1630 L1924 1568 L1924 1596 L1862 1658 Z" /></g><g class="o"><path transform="translate(9,18)" class="S ssv" d="M1211 1687 L1385 1513 L1385 1521 L1211 1695 Z"/><path class="sv7" d="M1211 1687 L1385 1513 L1385 1521 L1211 1695 Z" /></g><g class="o"><path transform="translate(8,16)" class="S sfh" d="M1549 1154 L1600 1103 L1704 1103 L1653 1154 Z"/><path class="fh7" d="M1549 1154 L1600 1103 L1704 1103 L1653 1154 Z" /></g><g class="o"><path transform="translate(2,4)" class="S sfv" d="M1664 1687 L2132 1219 L2132 1251 L1664 1719 Z"/><path class="fv5" d="M1664 1687 L2132 1219 L2132 1251 L1664 1719 Z" /></g><g class="o"><path transform="translate(5,10)" class="S sfv" d="M1042 971 L1101 912 L1101 948 L1042 1007 Z"/><path class="fv1" d="M1042 971 L1101 912 L1101 948 L1042 1007 Z" /></g><g class="o"><path transform="translate(5,10)" class="S sf" d="M1688 1076 L1946 818 L1946 832 L1688 1090 Z"/><path class="f4" d="M1688 1076 L1946 818 L1946 832 L1688 1090 Z" /></g><g class="o"><path transform="translate(5,10)" class="S ssv" d="M1187 1453 L1400 1240 L1400 1278 L1187 1491 Z"/><path class="sv3" d="M1187 1453 L1400 1240 L1400 1278 L1187 1491 Z" /></g><g class="o"><path transform="translate(6,12)" class="S sfv" d="M1461 1407 L1660 1208 L1660 1238 L1461 1437 Z"/><path class="fv3" d="M1461 1407 L1660 1208 L1660 1238 L1461 1437 Z" /></g><g class="o"><path transform="translate(5,10)" class="S sfh" d="M1894 1913 L2028 1779 L2048 1779 L1914 1913 Z"/><path class="fh5" d="M1894 1913 L2028 1779 L2048 1779 L1914 1913 Z" /></g><g class="o"><path transform="translate(5,10)" class="S sf" d="M1080 1615 L1252 1443 L1308 1443 L1136 1615 Z"/><path class="f2" d="M1080 1615 L1252 1443 L1308 1443 L1136 1615 Z" /></g><g class="o"><path transform="translate(7,14)" class="S sfv" d="M1506 1990 L1754 1742 L1754 1758 L1506 2006 Z"/><path class="fv7" d="M1506 1990 L1754 1742 L1754 1758 L1506 2006 Z" /></g><g class="o"><path transform="translate(3,6)" class="S sfh" d="M1886 1731 L2085 1532 L2123 1532 L1924 1731 Z"/><path class="fh6" d="M1886 1731 L2085 1532 L2123 1532 L1924 1731 Z" /></g><g class="o"><path transform="translate(6,12)" class="S sfv" d="M1069 1077 L1288 858 L1288 880 L1069 1099 Z"/><path class="fv6" d="M1069 1077 L1288 858 L1288 880 L1069 1099 Z" /></g><g class="o"><path transform="translate(7,14)" class="S sf" d="M1291 1931 L1373 1849 L1397 1849 L1315 1931 Z"/><path class="f5" d="M1291 1931 L1373 1849 L1397 1849 L1315 1931 Z" /></g><g class="o"><path transform="translate(3,6)" class="S sfv" d="M1170 1923 L1317 1776 L1317 1812 L1170 1959 Z"/><path class="fv3" d="M1170 1923 L1317 1776 L1317 1812 L1170 1959 Z" /></g><g class="o"><path transform="translate(3,6)" class="S sfv" d="M1611 959 L1859 711 L1859 741 L1611 989 Z"/><path class="fv3" d="M1611 959 L1859 711 L1859 741 L1611 989 Z" /></g><g class="o"><path transform="translate(5,10)" class="S sfv" d="M1174 2033 L1412 1795 L1412 1807 L1174 2045 Z"/><path class="fv7" d="M1174 2033 L1412 1795 L1412 1807 L1174 2045 Z" /></g><g class="o"><path transform="translate(2,4)" class="S sfh" d="M1477 1203 L1617 1063 L1627 1063 L1487 1203 Z"/><path class="fh7" d="M1477 1203 L1617 1063 L1627 1063 L1487 1203 Z" /></g><g class="o"><path transform="translate(8,16)" class="S sf" d="M1307 1626 L1443 1490 L1451 1490 L1315 1626 Z"/><path class="f1" d="M1307 1626 L1443 1490 L1451 1490 L1315 1626 Z" /></g><g class="o"><path transform="translate(5,10)" class="S sfh" d="M1500 2035 L1564 1971 L1590 1971 L1526 2035 Z"/><path class="fh3" d="M1500 2035 L1564 1971 L1590 1971 L1526 2035 Z" /></g><g class="o"><path transform="translate(7,14)" class="S sf" d="M1297 1546 L1486 1357 L1486 1389 L1297 1578 Z"/><path class="f6" d="M1297 1546 L1486 1357 L1486 1389 L1297 1578 Z" /></g><g class="o"><path transform="translate(5,10)" class="S sfv" d="M1705 2032 L1930 1807 L1930 1825 L1705 2050 Z"/><path class="fv6" d="M1705 2032 L1930 1807 L1930 1825 L1705 2050 Z" /></g><g class="o"><path transform="translate(9,18)" class="S ssh" d="M1455 1767 L1669 1553 L1705 1553 L1491 1767 Z"/><path class="sh4" d="M1455 1767 L1669 1553 L1705 1553 L1491 1767 Z" /></g><g class="o"><path transform="translate(4,8)" class="S sfv" d="M1824 1629 L2059 1394 L2059 1406 L1824 1641 Z"/><path class="fv2" d="M1824 1629 L2059 1394 L2059 1406 L1824 1641 Z" /></g><g class="o"><path transform="translate(3,6)" class="S sfh" d="M1133 1966 L1436 1663 L1464 1663 L1161 1966 Z"/><path class="fh6" d="M1133 1966 L1436 1663 L1464 1663 L1161 1966 Z" /></g><g class="o"><path transform="translate(9,18)" class="S sfv" d="M1672 1074 L1757 989 L1757 1013 L1672 1098 Z"/><path class="fv3" d="M1672 1074 L1757 989 L1757 1013 L1672 1098 Z" /></g><g class="o"><path transform="translate(6,12)" class="S sfv" d="M1921 1740 L2034 1627 L2034 1643 L1921 1756 Z"/><path class="fv3" d="M1921 1740 L2034 1627 L2034 1643 L1921 1756 Z" /></g><g class="o"><path transform="translate(4,8)" class="S sf" d="M1151 926 L1769 308 L1769 452 L1151 1070 Z"/><path class="f3" d="M1151 926 L1769 308 L1769 452 L1151 1070 Z" /></g><g class="o"><path transform="translate(7,14)" class="S sfv" d="M1749 1714 L1827 1636 L1827 1674 L1749 1752 Z"/><path class="fv7" d="M1749 1714 L1827 1636 L1827 1674 L1749 1752 Z" /></g><g class="o"><path transform="translate(2,4)" class="S sf" d="M1585 1777 L1738 1624 L1738 1656 L1585 1809 Z"/><path class="f4" d="M1585 1777 L1738 1624 L1738 1656 L1585 1809 Z" /></g><g class="o"><path transform="translate(4,8)" class="S sfh" d="M1915 1452 L2026 1341 L2048 1341 L1937 1452 Z"/><path class="fh5" d="M1915 1452 L2026 1341 L2048 1341 L1937 1452 Z" /></g><g class="o"><path transform="translate(8,16)" class="S ssv" d="M1002 1334 L1203 1133 L1203 1163 L1002 1364 Z"/><path class="sv5" d="M1002 1334 L1203 1133 L1203 1163 L1002 1364 Z" /></g><g class="o"><path transform="translate(6,12)" class="S sfh" d="M1839 1297 L1954 1182 L1974 1182 L1859 1297 Z"/><path class="fh5" d="M1839 1297 L1954 1182 L1974 1182 L1859 1297 Z" /></g><g class="o"><path transform="translate(7,14)" class="S sfh" d="M1971 1618 L2439 1150 L2467 1150 L1999 1618 Z"/><path class="fh6" d="M1971 1618 L2439 1150 L2467 1150 L1999 1618 Z" /></g><g class="o"><path transform="translate(2,4)" class="S ssv" d="M2019 1518 L2289 1248 L2289 1270 L2019 1540 Z"/><path class="sv3" d="M2019 1518 L2289 1248 L2289 1270 L2019 1540 Z" /></g><g class="o"><path transform="translate(8,16)" class="S sf" d="M1367 1174 L1688 853 L1688 865 L1367 1186 Z"/><path class="f2" d="M1367 1174 L1688 853 L1688 865 L1367 1186 Z" /></g><g class="o"><path transform="translate(7,14)" class="S ssh" d="M1802 1171 L1855 1118 L1865 1118 L1812 1171 Z"/><path class="sh6" d="M1802 1171 L1855 1118 L1865 1118 L1812 1171 Z" /></g><g class="o"><path transform="translate(6,12)" class="S sfh" d="M1033 1497 L1101 1429 L1113 1429 L1045 1497 Z"/><path class="fh2" d="M1033 1497 L1101 1429 L1113 1429 L1045 1497 Z" /></g><g class="o"><path transform="translate(6,12)" class="S ssh" d="M1535 1747 L1646 1636 L1658 1636 L1547 1747 Z"/><path class="sh4" d="M1535 1747 L1646 1636 L1658 1636 L1547 1747 Z" /></g><g class="o"><path transform="translate(7,14)" class="S ssv" d="M1501 2021 L1648 1874 L1648 1900 L1501 2047 Z"/><path class="sv2" d="M1501 2021 L1648 1874 L1648 1900 L1501 2047 Z" /></g><g class="o"><path transform="translate(8,16)" class="S sfh" d="M1007 1832 L1213 1626 L1225 1626 L1019 1832 Z"/><path class="fh4" d="M1007 1832 L1213 1626 L1225 1626 L1019 1832 Z" /></g><g class="o"><path transform="translate(9,18)" class="S sfh" d="M1886 1126 L1970 1042 L1978 1042 L1894 1126 Z"/><path class="fh2" d="M1886 1126 L1970 1042 L1978 1042 L1894 1126 Z" /></g><g class="o"><path transform="translate(5,10)" class="S sfh" d="M1604 1723 L1733 1594 L1755 1594 L1626 1723 Z"/><path class="fh6" d="M1604 1723 L1733 1594 L1755 1594 L1626 1723 Z" /></g><g class="o"><path transform="translate(2,4)" class="S sfv" d="M1798 1632 L1893 1537 L1893 1551 L1798 1646 Z"/><path class="fv6" d="M1798 1632 L1893 1537 L1893 1551 L1798 1646 Z" /></g><g class="o"><path transform="translate(3,6)" class="S sfh" d="M1359 1566 L1974 951 L1982 951 L1367 1566 Z"/><path class="fh6" d="M1359 1566 L1974 951 L1982 951 L1367 1566 Z" /></g><g class="o"><path transform="translate(5,10)" class="S sfh" d="M1926 1280 L2146 1060 L2158 1060 L1938 1280 Z"/><path class="fh3" d="M1926 1280 L2146 1060 L2158 1060 L1938 1280 Z" /></g><g class="o"><path transform="translate(3,6)" class="S ssh" d="M1588 1417 L1821 1184 L1839 1184 L1606 1417 Z"/><path class="sh7" d="M1588 1417 L1821 1184 L1839 1184 L1606 1417 Z" /></g><g class="o"><path transform="translate(9,18)" class="S sf" d="M1929 1499 L2517 911 L2533 911 L1945 1499 Z"/><path class="f5" d="M1929 1499 L2517 911 L2533 911 L1945 1499 Z" /></g><g class="o"><path transform="translate(6,12)" class="S sfv" d="M1126 2012 L1236 1902 L1236 1936 L1126 2046 Z"/><path class="fv2" d="M1126 2012 L1236 1902 L1236 1936 L1126 2046 Z" /></g><g class="o"><path transform="translate(5,10)" class="S ss" d="M1959 978 L2556 381 L2556 401 L1959 998 Z"/><path class="s5" d="M1959 978 L2556 381 L2556 401 L1959 998 Z" /></g><g class="o"><path transform="translate(7,14)" class="S sfv" d="M1467 1373 L1566 1274 L1566 1282 L1467 1381 Z"/><path class="fv5" d="M1467 1373 L1566 1274 L1566 1282 L1467 1381 Z" /></g><g class="o"><path transform="translate(4,8)" class="S sfv" d="M2026 2025 L2171 1880 L2171 1896 L2026 2041 Z"/><path class="fv6" d="M2026 2025 L2171 1880 L2171 1896 L2026 2041 Z" /></g><g class="o"><path transform="translate(5,10)" class="S ssv" d="M1531 1744 L1680 1595 L1680 1617 L1531 1766 Z"/><path class="sv4" d="M1531 1744 L1680 1595 L1680 1617 L1531 1766 Z" /></g><g class="o"><path transform="translate(6,12)" class="S ssh" d="M1999 958 L2491 466 L2519 466 L2027 958 Z"/><path class="sh3" d="M1999 958 L2491 466 L2519 466 L2027 958 Z" /></g><g class="o"><path transform="translate(2,4)" class="S sf" d="M1415 1505 L1510 1410 L1548 1410 L1453 1505 Z"/><path class="f7" d="M1415 1505 L1510 1410 L1548 1410 L1453 1505 Z" /></g></g><use href="#slashes" transform-origin="1500 1500" transform="rotate(180) scale(2)"/></g><polyline points="1500,1010 1990,1500 1500,1990 1010,1500 1500,1010 1990,1500" stroke-width="80" class="o s2" /><use href="#slashes" transform-origin="1500 1500" transform="scale(.6)"/><use href="#slashes" transform-origin="1500 1500" transform="rotate(180) scale(.6)"/></svg>