<svg xmlns="http://www.w3.org/2000/svg" viewBox="750 750 1500 1500"><style>/*<![CDATA[*/svg{background:rgb(25,12,40);max-width:100vw;max-height:100vh}path{stroke-width:4}.o{opacity:.75}.S{opacity:.4}.sf{stroke:none;fill:black}.sfh{stroke:none;fill:url(#hs)}.sfv{stroke:none;fill:url(#vs)}.ss{stroke:black;fill:none}.ssh{stroke:url(#hs);fill:none}.ssv{stroke:url(#vs);fill:none}.s1{fill:none;stroke:rgb(28,130,235)}.f1{stroke:none;fill:rgb(28,130,235)}.sh1{fill:none;stroke:url(#h1)}.fh1{stroke:none;fill:url(#h1)}.sv1{fill:none;stroke:url(#v1)}.fv1{stroke:none;fill:url(#v1)}.s2{fill:none;stroke:rgb(34,34,34)}.f2{stroke:none;fill:rgb(34,34,34)}.sh2{fill:none;stroke:url(#h2)}.fh2{stroke:none;fill:url(#h2)}.sv2{fill:none;stroke:url(#v2)}.fv2{stroke:none;fill:url(#v2)}.s3{fill:none;stroke:rgb(251,0,2)}.f3{stroke:none;fill:rgb(251,0,2)}.sh3{fill:none;stroke:url(#h3)}.fh3{stroke:none;fill:url(#h3)}.sv3{fill:none;stroke:url(#v3)}.fv3{stroke:none;fill:url(#v3)}.s4{fill:none;stroke:rgb(254,247,238)}.f4{stroke:none;fill:rgb(254,247,238)}.sh4{fill:none;stroke:url(#h4)}.fh4{stroke:none;fill:url(#h4)}.sv4{fill:none;stroke:url(#v4)}.fv4{stroke:none;fill:url(#v4)}.s5{fill:none;stroke:rgb(254,240,0)}.f5{stroke:none;fill:rgb(254,240,0)}.sh5{fill:none;stroke:url(#h5)}.fh5{stroke:none;fill:url(#h5)}.sv5{fill:none;stroke:url(#v5)}.fv5{stroke:none;fill:url(#v5)}.s6{fill:none;stroke:rgb(255,255,255)}.f6{stroke:none;fill:rgb(255,255,255)}.sh6{fill:none;stroke:url(#h6)}.fh6{stroke:none;fill:url(#h6)}.sv6{fill:none;stroke:url(#v6)}.fv6{stroke:none;fill:url(#v6)}.s7{fill:none;stroke:rgb(255,0,0)}.f7{stroke:none;fill:rgb(255,0,0)}.sh7{fill:none;stroke:url(#h7)}.fh7{stroke:none;fill:url(#h7)}.sv7{fill:none;stroke:url(#v7)}.fv7{stroke:none;fill:url(#v7)}/*]]>*/</style><defs><linearGradient gradientTransform="rotate(90)" id="hs"><stop offset="20%" stop-color="#000" /><stop offset="95%" stop-color="rgba(0, 0, 0, 0)" /></linearGradient><linearGradient id="vs"><stop offset="20%" stop-color="#000" /><stop offset="95%" stop-color="rgba(0, 0, 0, 0)" /></linearGradient><linearGradient gradientTransform="rotate(90)" id="h1"><stop offset="20%" stop-color="rgba(28,130,235,1)" /><stop offset="95%" stop-color="rgba(28,130,235,0)" /></linearGradient><linearGradient id="v1"><stop offset="20%" stop-color="rgba(28,130,235,1)" /><stop offset="95%" stop-color="rgba(28,130,235,0)" /></linearGradient><linearGradient gradientTransform="rotate(90)" id="h2"><stop offset="20%" stop-color="rgba(34,34,34,1)" /><stop offset="95%" stop-color="rgba(34,34,34,0)" /></linearGradient><linearGradient id="v2"><stop offset="20%" stop-color="rgba(34,34,34,1)" /><stop offset="95%" stop-color="rgba(34,34,34,0)" /></linearGradient><linearGradient gradientTransform="rotate(90)" id="h3"><stop offset="20%" stop-color="rgba(251,0,2,1)" /><stop offset="95%" stop-color="rgba(251,0,2,0)" /></linearGradient><linearGradient id="v3"><stop offset="20%" stop-color="rgba(251,0,2,1)" /><stop offset="95%" stop-color="rgba(251,0,2,0)" /></linearGradient><linearGradient gradientTransform="rotate(90)" id="h4"><stop offset="20%" stop-color="rgba(254,247,238,1)" /><stop offset="95%" stop-color="rgba(254,247,238,0)" /></linearGradient><linearGradient id="v4"><stop offset="20%" stop-color="rgba(254,247,238,1)" /><stop offset="95%" stop-color="rgba(254,247,238,0)" /></linearGradient><linearGradient gradientTransform="rotate(90)" id="h5"><stop offset="20%" stop-color="rgba(254,240,0,1)" /><stop offset="95%" stop-color="rgba(254,240,0,0)" /></linearGradient><linearGradient id="v5"><stop offset="20%" stop-color="rgba(254,240,0,1)" /><stop offset="95%" stop-color="rgba(254,240,0,0)" /></linearGradient><linearGradient gradientTransform="rotate(90)" id="h6"><stop offset="20%" stop-color="rgba(255,255,255,1)" /><stop offset="95%" stop-color="rgba(255,255,255,0)" /></linearGradient><linearGradient id="v6"><stop offset="20%" stop-color="rgba(255,255,255,1)" /><stop offset="95%" stop-color="rgba(255,255,255,0)" /></linearGradient><linearGradient gradientTransform="rotate(90)" id="h7"><stop offset="20%" stop-color="rgba(255,0,0,1)" /><stop offset="95%" stop-color="rgba(255,0,0,0)" /></linearGradient><linearGradient id="v7"><stop offset="20%" stop-color="rgba(255,0,0,1)" /><stop offset="95%" stop-color="rgba(255,0,0,0)" /></linearGradient></defs><g transform-origin="1500 1500" transform="scale(2)" opacity=".2"><g id="slashes"><g class="o"><path transform="translate(3,6)" class="S ssh" d="M1965 1023 L2112 1170 L2134 1170 L1987 1023 Z"/><path class="sh4" d="M1965 1023 L2112 1170 L2134 1170 L1987 1023 Z" /></g><g class="o"><path transform="translate(6,12)" class="S sfh" d="M1307 1271 L1501 1465 L1517 1465 L1323 1271 Z"/><path class="fh5" d="M1307 1271 L1501 1465 L1517 1465 L1323 1271 Z" /></g><g class="o"><path transform="translate(5,10)" class="S ss" d="M1102 1216 L901 1417 L1045 1417 L1246 1216 Z"/><path class="s6" d="M1102 1216 L901 1417 L1045 1417 L1246 1216 Z" /></g><g class="o"><path transform="translate(5,10)" class="S sfh" d="M1022 1741 L901 1862 L909 1862 L1030 1741 Z"/><path class="fh1" d="M1022 1741 L901 1862 L909 1862 L1030 1741 Z" /></g><g class="o"><path transform="translate(4,8)" class="S sfv" d="M1847 1053 L2549 1755 L2549 1781 L1847 1079 Z"/><path class="fv6" d="M1847 1053 L2549 1755 L2549 1781 L1847 1079 Z" /></g><g class="o"><path transform="translate(4,8)" class="S sfv" d="M1794 1504 L1143 2155 L1143 2185 L1794 1534 Z"/><path class="fv5" d="M1794 1504 L1143 2155 L1143 2185 L1794 1534 Z" /></g><g class="o"><path transform="translate(9,18)" class="S sfv" d="M1029 1544 L857 1716 L857 1726 L1029 1554 Z"/><path class="fv6" d="M1029 1544 L857 1716 L857 1726 L1029 1554 Z" /></g><g class="o"><path transform="translate(9,18)" class="S ssv" d="M1565 980 L1512 1033 L1512 1057 L1565 1004 Z"/><path class="sv5" d="M1565 980 L1512 1033 L1512 1057 L1565 1004 Z" /></g><g class="o"><path transform="translate(6,12)" class="S ssv" d="M1927 1936 L1788 2075 L1788 2089 L1927 1950 Z"/><path class="sv3" d="M1927 1936 L1788 2075 L1788 2089 L1927 1950 Z" /></g><g class="o"><path transform="translate(5,10)" class="S ss" d="M1023 1528 L1255 1760 L1255 1786 L1023 1554 Z"/><path class="s7" d="M1023 1528 L1255 1760 L1255 1786 L1023 1554 Z" /></g><g class="o"><path transform="translate(5,10)" class="S ss" d="M1420 1569 L1488 1637 L1500 1637 L1432 1569 Z"/><path class="s2" d="M1420 1569 L1488 1637 L1500 1637 L1432 1569 Z" /></g><g class="o"><path transform="translate(9,18)" class="S sfh" d="M1452 1249 L1668 1465 L1678 1465 L1462 1249 Z"/><path class="fh1" d="M1452 1249 L1668 1465 L1678 1465 L1462 1249 Z" /></g><g class="o"><path transform="translate(4,8)" class="S ssh" d="M1482 1441 L1662 1621 L1718 1621 L1538 1441 Z"/><path class="sh7" d="M1482 1441 L1662 1621 L1718 1621 L1538 1441 Z" /></g><g class="o"><path transform="translate(9,18)" class="S ssh" d="M986 1526 L1114 1654 L1152 1654 L1024 1526 Z"/><path class="sh1" d="M986 1526 L1114 1654 L1152 1654 L1024 1526 Z" /></g><g class="o"><path transform="translate(9,18)" class="S ssv" d="M2017 1948 L1770 2195 L1770 2233 L2017 1986 Z"/><path class="sv7" d="M2017 1948 L1770 2195 L1770 2233 L2017 1986 Z" /></g><g class="o"><path transform="translate(6,12)" class="S sfh" d="M1104 1364 L1298 1558 L1318 1558 L1124 1364 Z"/><path class="fh3" d="M1104 1364 L1298 1558 L1318 1558 L1124 1364 Z" /></g><g class="o"><path transform="translate(5,10)" class="S sfh" d="M1219 975 L1463 1219 L1477 1219 L1233 975 Z"/><path class="fh4" d="M1219 975 L1463 1219 L1477 1219 L1233 975 Z" /></g><g class="o"><path transform="translate(7,14)" class="S ssv" d="M1402 1869 L1320 1951 L1320 1977 L1402 1895 Z"/><path class="sv5" d="M1402 1869 L1320 1951 L1320 1977 L1402 1895 Z" /></g><g class="o"><path transform="translate(6,12)" class="S ssh" d="M946 1391 L804 1533 L932 1533 L1074 1391 Z"/><path class="sh6" d="M946 1391 L804 1533 L932 1533 L1074 1391 Z" /></g><g class="o"><path transform="translate(3,6)" class="S sf" d="M1295 1536 L1377 1618 L1377 1656 L1295 1574 Z"/><path class="f3" d="M1295 1536 L1377 1618 L1377 1656 L1295 1574 Z" /></g><g class="o"><path transform="translate(2,4)" class="S ssv" d="M1068 1698 L906 1860 L906 1874 L1068 1712 Z"/><path class="sv2" d="M1068 1698 L906 1860 L906 1874 L1068 1712 Z" /></g><g class="o"><path transform="translate(6,12)" class="S sfv" d="M1177 1245 L1244 1312 L1244 1338 L1177 1271 Z"/><path class="fv3" d="M1177 1245 L1244 1312 L1244 1338 L1177 1271 Z" /></g><g class="o"><path transform="translate(6,12)" class="S sf" d="M1272 1822 L1172 1922 L1172 1956 L1272 1856 Z"/><path class="f5" d="M1272 1822 L1172 1922 L1172 1956 L1272 1856 Z" /></g><g class="o"><path transform="translate(2,4)" class="S sfv" d="M1141 1715 L1044 1812 L1044 1832 L1141 1735 Z"/><path class="fv7" d="M1141 1715 L1044 1812 L1044 1832 L1141 1735 Z" /></g><g class="o"><path transform="translate(9,18)" class="S sf" d="M2032 1596 L1917 1711 L1917 1749 L2032 1634 Z"/><path class="f3" d="M2032 1596 L1917 1711 L1917 1749 L2032 1634 Z" /></g><g class="o"><path transform="translate(9,18)" class="S ssv" d="M983 1527 L1039 1583 L1039 1605 L983 1549 Z"/><path class="sv2" d="M983 1527 L1039 1583 L1039 1605 L983 1549 Z" /></g><g class="o"><path transform="translate(5,10)" class="S sf" d="M1094 951 L908 1137 L930 1137 L1116 951 Z"/><path class="f3" d="M1094 951 L908 1137 L930 1137 L1116 951 Z" /></g><g class="o"><path transform="translate(2,4)" class="S sfv" d="M2019 1704 L2691 2376 L2691 2396 L2019 1724 Z"/><path class="fv6" d="M2019 1704 L2691 2376 L2691 2396 L2019 1724 Z" /></g><g class="o"><path transform="translate(2,4)" class="S sfv" d="M1415 1233 L1634 1452 L1634 1488 L1415 1269 Z"/><path class="fv7" d="M1415 1233 L1634 1452 L1634 1488 L1415 1269 Z" /></g><g class="o"><path transform="translate(7,14)" class="S sfh" d="M1554 1732 L1735 1913 L1757 1913 L1576 1732 Z"/><path class="fh3" d="M1554 1732 L1735 1913 L1757 1913 L1576 1732 Z" /></g><g class="o"><path transform="translate(5,10)" class="S ssh" d="M1451 1564 L1315 1700 L1349 1700 L1485 1564 Z"/><path class="sh4" d="M1451 1564 L1315 1700 L1349 1700 L1485 1564 Z" /></g><g class="o"><path transform="translate(3,6)" class="S sfv" d="M1153 1132 L1248 1227 L1248 1243 L1153 1148 Z"/><path class="fv4" d="M1153 1132 L1248 1227 L1248 1243 L1153 1148 Z" /></g><g class="o"><path transform="translate(7,14)" class="S sfv" d="M1228 1349 L1115 1462 L1115 1476 L1228 1363 Z"/><path class="fv7" d="M1228 1349 L1115 1462 L1115 1476 L1228 1363 Z" /></g><g class="o"><path transform="translate(5,10)" class="S sfh" d="M1294 1976 L1083 2187 L1097 2187 L1308 1976 Z"/><path class="fh5" d="M1294 1976 L1083 2187 L1097 2187 L1308 1976 Z" /></g><g class="o"><path transform="translate(2,4)" class="S sf" d="M1007 1097 L889 1215 L889 1247 L1007 1129 Z"/><path class="f3" d="M1007 1097 L889 1215 L889 1247 L1007 1129 Z" /></g><g class="o"><path transform="translate(4,8)" class="S ssv" d="M1052 981 L954 1079 L954 1091 L1052 993 Z"/><path class="sv3" d="M1052 981 L954 1079 L954 1091 L1052 993 Z" /></g><g class="o"><path transform="translate(4,8)" class="S sfv" d="M1777 1551 L1583 1745 L1583 1773 L1777 1579 Z"/><path class="fv3" d="M1777 1551 L1583 1745 L1583 1773 L1777 1579 Z" /></g><g class="o"><path transform="translate(4,8)" class="S ss" d="M1252 2021 L700 2573 L700 2583 L1252 2031 Z"/><path class="s4" d="M1252 2021 L700 2573 L700 2583 L1252 2031 Z" /></g><g class="o"><path transform="translate(3,6)" class="S sfh" d="M1539 1257 L1305 1491 L1333 1491 L1567 1257 Z"/><path class="fh5" d="M1539 1257 L1305 1491 L1333 1491 L1567 1257 Z" /></g><g class="o"><path transform="translate(5,10)" class="S ss" d="M1945 1668 L1216 2397 L1216 2405 L1945 1676 Z"/><path class="s3" d="M1945 1668 L1216 2397 L1216 2405 L1945 1676 Z" /></g><g class="o"><path transform="translate(5,10)" class="S sfv" d="M1686 1058 L1571 1173 L1571 1183 L1686 1068 Z"/><path class="fv1" d="M1686 1058 L1571 1173 L1571 1183 L1686 1068 Z" /></g><g class="o"><path transform="translate(8,16)" class="S sfh" d="M1196 1814 L1417 2035 L1441 2035 L1220 1814 Z"/><path class="fh1" d="M1196 1814 L1417 2035 L1441 2035 L1220 1814 Z" /></g><g class="o"><path transform="translate(7,14)" class="S sf" d="M1064 1133 L933 1264 L933 1352 L1064 1221 Z"/><path class="f7" d="M1064 1133 L933 1264 L933 1352 L1064 1221 Z" /></g><g class="o"><path transform="translate(3,6)" class="S sfh" d="M1683 1857 L1920 2094 L1954 2094 L1717 1857 Z"/><path class="fh5" d="M1683 1857 L1920 2094 L1954 2094 L1717 1857 Z" /></g><g class="o"><path transform="translate(5,10)" class="S sfv" d="M2017 1449 L1811 1655 L1811 1683 L2017 1477 Z"/><path class="fv1" d="M2017 1449 L1811 1655 L1811 1683 L2017 1477 Z" /></g><g class="o"><path transform="translate(8,16)" class="S sfh" d="M1799 960 L1555 1204 L1563 1204 L1807 960 Z"/><path class="fh6" d="M1799 960 L1555 1204 L1563 1204 L1807 960 Z" /></g><g class="o"><path transform="translate(8,16)" class="S sfv" d="M1654 1907 L1887 2140 L1887 2164 L1654 1931 Z"/><path class="fv2" d="M1654 1907 L1887 2140 L1887 2164 L1654 1931 Z" /></g><g class="o"><path transform="translate(7,14)" class="S sf" d="M1844 1573 L1648 1769 L1670 1769 L1866 1573 Z"/><path class="f2" d="M1844 1573 L1648 1769 L1670 1769 L1866 1573 Z" /></g><g class="o"><path transform="translate(9,18)" class="S sfv" d="M1221 1852 L1130 1943 L1130 1955 L1221 1864 Z"/><path class="fv5" d="M1221 1852 L1130 1943 L1130 1955 L1221 1864 Z" /></g><g class="o"><path transform="translate(8,16)" class="S sf" d="M1806 1179 L1643 1342 L1643 1364 L1806 1201 Z"/><path class="f5" d="M1806 1179 L1643 1342 L1643 1364 L1806 1201 Z" /></g><g class="o"><path transform="translate(3,6)" class="S sfh" d="M1762 1595 L1555 1802 L1577 1802 L1784 1595 Z"/><path class="fh2" d="M1762 1595 L1555 1802 L1577 1802 L1784 1595 Z" /></g><g class="o"><path transform="translate(5,10)" class="S sfv" d="M1396 1322 L1239 1479 L1239 1499 L1396 1342 Z"/><path class="fv3" d="M1396 1322 L1239 1479 L1239 1499 L1396 1342 Z" /></g><g class="o"><path transform="translate(9,18)" class="S sfv" d="M1930 1558 L1838 1650 L1838 1676 L1930 1584 Z"/><path class="fv6" d="M1930 1558 L1838 1650 L1838 1676 L1930 1584 Z" /></g><g class="o"><path transform="translate(7,14)" class="S sf" d="M1152 1251 L1296 1395 L1332 1395 L1188 1251 Z"/><path class="f3" d="M1152 1251 L1296 1395 L1332 1395 L1188 1251 Z" /></g><g class="o"><path transform="translate(8,16)" class="S sfv" d="M1936 1664 L2131 1859 L2131 1897 L1936 1702 Z"/><path class="fv2" d="M1936 1664 L2131 1859 L2131 1897 L1936 1702 Z" /></g><g class="o"><path transform="translate(9,18)" class="S sfv" d="M1967 1852 L1879 1940 L1879 1954 L1967 1866 Z"/><path class="fv5" d="M1967 1852 L1879 1940 L1879 1954 L1967 1866 Z" /></g><g class="o"><path transform="translate(9,18)" class="S sfv" d="M1160 1700 L1399 1939 L1399 1949 L1160 1710 Z"/><path class="fv2" d="M1160 1700 L1399 1939 L1399 1949 L1160 1710 Z" /></g><g class="o"><path transform="translate(4,8)" class="S sfh" d="M1452 1870 L1537 1955 L1559 1955 L1474 1870 Z"/><path class="fh5" d="M1452 1870 L1537 1955 L1559 1955 L1474 1870 Z" /></g><g class="o"><path transform="translate(5,10)" class="S sf" d="M1025 1297 L1246 1518 L1246 1630 L1025 1409 Z"/><path class="f3" d="M1025 1297 L1246 1518 L1246 1630 L1025 1409 Z" /></g><g class="o"><path transform="translate(9,18)" class="S sfh" d="M1044 1427 L1277 1660 L1311 1660 L1078 1427 Z"/><path class="fh5" d="M1044 1427 L1277 1660 L1311 1660 L1078 1427 Z" /></g><g class="o"><path transform="translate(9,18)" class="S sfv" d="M1849 1043 L2107 1301 L2107 1311 L1849 1053 Z"/><path class="fv6" d="M1849 1043 L2107 1301 L2107 1311 L1849 1053 Z" /></g><g class="o"><path transform="translate(3,6)" class="S ssh" d="M1939 1362 L2130 1553 L2166 1553 L1975 1362 Z"/><path class="sh3" d="M1939 1362 L2130 1553 L2166 1553 L1975 1362 Z" /></g><g class="o"><path transform="translate(6,12)" class="S sfv" d="M1216 1436 L1425 1645 L1425 1657 L1216 1448 Z"/><path class="fv7" d="M1216 1436 L1425 1645 L1425 1657 L1216 1448 Z" /></g><g class="o"><path transform="translate(3,6)" class="S sfv" d="M1281 1277 L1435 1431 L1435 1469 L1281 1315 Z"/><path class="fv3" d="M1281 1277 L1435 1431 L1435 1469 L1281 1315 Z" /></g><g class="o"><path transform="translate(7,14)" class="S sfh" d="M1670 1533 L1828 1691 L1856 1691 L1698 1533 Z"/><path class="fh2" d="M1670 1533 L1828 1691 L1856 1691 L1698 1533 Z" /></g><g class="o"><path transform="translate(2,4)" class="S sfh" d="M1684 1626 L1466 1844 L1486 1844 L1704 1626 Z"/><path class="fh1" d="M1684 1626 L1466 1844 L1486 1844 L1704 1626 Z" /></g><g class="o"><path transform="translate(4,8)" class="S sfv" d="M1988 1312 L1835 1465 L1835 1499 L1988 1346 Z"/><path class="fv1" d="M1988 1312 L1835 1465 L1835 1499 L1988 1346 Z" /></g><g class="o"><path transform="translate(2,4)" class="S sfh" d="M1164 974 L1336 1146 L1374 1146 L1202 974 Z"/><path class="fh3" d="M1164 974 L1336 1146 L1374 1146 L1202 974 Z" /></g><g class="o"><path transform="translate(2,4)" class="S sfh" d="M1425 1311 L1322 1414 L1332 1414 L1435 1311 Z"/><path class="fh7" d="M1425 1311 L1322 1414 L1332 1414 L1435 1311 Z" /></g><g class="o"><path transform="translate(2,4)" class="S ss" d="M1141 1420 L1711 1990 L1721 1990 L1151 1420 Z"/><path class="s7" d="M1141 1420 L1711 1990 L1721 1990 L1151 1420 Z" /></g><g class="o"><path transform="translate(5,10)" class="S ssh" d="M1438 1965 L1573 2100 L1589 2100 L1454 1965 Z"/><path class="sh6" d="M1438 1965 L1573 2100 L1589 2100 L1454 1965 Z" /></g><g class="o"><path transform="translate(7,14)" class="S sfh" d="M1201 1784 L1344 1927 L1380 1927 L1237 1784 Z"/><path class="fh2" d="M1201 1784 L1344 1927 L1380 1927 L1237 1784 Z" /></g><g class="o"><path transform="translate(6,12)" class="S sfv" d="M1838 1440 L1689 1589 L1689 1615 L1838 1466 Z"/><path class="fv7" d="M1838 1440 L1689 1589 L1689 1615 L1838 1466 Z" /></g><g class="o"><path transform="translate(5,10)" class="S ssh" d="M1155 1283 L1331 1459 L1427 1459 L1251 1283 Z"/><path class="sh2" d="M1155 1283 L1331 1459 L1427 1459 L1251 1283 Z" /></g><g class="o"><path transform="translate(2,4)" class="S ssh" d="M1939 1759 L2152 1972 L2180 1972 L1967 1759 Z"/><path class="sh7" d="M1939 1759 L2152 1972 L2180 1972 L1967 1759 Z" /></g><g class="o"><path transform="translate(7,14)" class="S sfh" d="M1685 1240 L1449 1476 L1483 1476 L1719 1240 Z"/><path class="fh1" d="M1685 1240 L1449 1476 L1483 1476 L1719 1240 Z" /></g><g class="o"><path transform="translate(5,10)" class="S sf" d="M1033 1893 L794 2132 L794 2156 L1033 1917 Z"/><path class="f1" d="M1033 1893 L794 2132 L794 2156 L1033 1917 Z" /></g><g class="o"><path transform="translate(5,10)" class="S ssv" d="M1175 1811 L972 2014 L972 2026 L1175 1823 Z"/><path class="sv7" d="M1175 1811 L972 2014 L972 2026 L1175 1823 Z" /></g><g class="o"><path transform="translate(3,6)" class="S sf" d="M1290 1024 L1166 1148 L1194 1148 L1318 1024 Z"/><path class="f4" d="M1290 1024 L1166 1148 L1194 1148 L1318 1024 Z" /></g><g class="o"><path transform="translate(5,10)" class="S ssv" d="M1482 1736 L1866 2120 L1866 2142 L1482 1758 Z"/><path class="sv5" d="M1482 1736 L1866 2120 L1866 2142 L1482 1758 Z" /></g><g class="o"><path transform="translate(5,10)" class="S sfv" d="M1307 1943 L1101 2149 L1101 2245 L1307 2039 Z"/><path class="fv5" d="M1307 1943 L1101 2149 L1101 2245 L1307 2039 Z" /></g><g class="o"><path transform="translate(7,14)" class="S ssv" d="M1862 1476 L1226 2112 L1226 2264 L1862 1628 Z"/><path class="sv6" d="M1862 1476 L1226 2112 L1226 2264 L1862 1628 Z" /></g><g class="o"><path transform="translate(9,18)" class="S sf" d="M1014 982 L1070 1038 L1070 1046 L1014 990 Z"/><path class="f4" d="M1014 982 L1070 1038 L1070 1046 L1014 990 Z" /></g><g class="o"><path transform="translate(3,6)" class="S ssh" d="M1289 1368 L1108 1549 L1128 1549 L1309 1368 Z"/><path class="sh4" d="M1289 1368 L1108 1549 L1128 1549 L1309 1368 Z" /></g><g class="o"><path transform="translate(3,6)" class="S sfv" d="M1749 1023 L1977 1251 L1977 1285 L1749 1057 Z"/><path class="fv6" d="M1749 1023 L1977 1251 L1977 1285 L1749 1057 Z" /></g><g class="o"><path transform="translate(4,8)" class="S sfv" d="M1993 1749 L1912 1830 L1912 1844 L1993 1763 Z"/><path class="fv7" d="M1993 1749 L1912 1830 L1912 1844 L1993 1763 Z" /></g><g class="o"><path transform="translate(6,12)" class="S sfv" d="M1373 1536 L1204 1705 L1204 1735 L1373 1566 Z"/><path class="fv1" d="M1373 1536 L1204 1705 L1204 1735 L1373 1566 Z" /></g><g class="o"><path transform="translate(6,12)" class="S sfv" d="M1997 1313 L1873 1437 L1873 1471 L1997 1347 Z"/><path class="fv1" d="M1997 1313 L1873 1437 L1873 1471 L1997 1347 Z" /></g><g class="o"><path transform="translate(5,10)" class="S sfh" d="M1622 1516 L1004 2134 L1018 2134 L1636 1516 Z"/><path class="fh3" d="M1622 1516 L1004 2134 L1018 2134 L1636 1516 Z" /></g><g class="o"><path transform="translate(9,18)" class="S sfh" d="M1127 1019 L1290 1182 L1326 1182 L1163 1019 Z"/><path class="fh1" d="M1127 1019 L1290 1182 L1326 1182 L1163 1019 Z" /></g><g class="o"><path transform="translate(7,14)" class="S sfh" d="M1871 1128 L1749 1250 L1767 1250 L1889 1128 Z"/><path class="fh5" d="M1871 1128 L1749 1250 L1767 1250 L1889 1128 Z" /></g><g class="o"><path transform="translate(5,10)" class="S sfv" d="M1156 1161 L930 1387 L930 1419 L1156 1193 Z"/><path class="fv2" d="M1156 1161 L930 1387 L930 1419 L1156 1193 Z" /></g><g class="o"><path transform="translate(9,18)" class="S ss" d="M1475 1725 L1402 1798 L1402 1808 L1475 1735 Z"/><path class="s3" d="M1475 1725 L1402 1798 L1402 1808 L1475 1735 Z" /></g><g class="o"><path transform="translate(3,6)" class="S ssh" d="M1505 1973 L1823 2291 L1833 2291 L1515 1973 Z"/><path class="sh3" d="M1505 1973 L1823 2291 L1833 2291 L1515 1973 Z" /></g><g class="o"><path transform="translate(6,12)" class="S sfh" d="M1171 1293 L1377 1499 L1411 1499 L1205 1293 Z"/><path class="fh3" d="M1171 1293 L1377 1499 L1411 1499 L1205 1293 Z" /></g><g class="o"><path transform="translate(3,6)" class="S sfv" d="M1384 1070 L1531 1217 L1531 1245 L1384 1098 Z"/><path class="fv6" d="M1384 1070 L1531 1217 L1531 1245 L1384 1098 Z" /></g><g class="o"><path transform="translate(4,8)" class="S sfh" d="M1308 1781 L1414 1887 L1452 1887 L1346 1781 Z"/><path class="fh5" d="M1308 1781 L1414 1887 L1452 1887 L1346 1781 Z" /></g><g class="o"><path transform="translate(9,18)" class="S ssv" d="M1125 1758 L1311 1944 L1311 1966 L1125 1780 Z"/><path class="sv6" d="M1125 1758 L1311 1944 L1311 1966 L1125 1780 Z" /></g><g class="o"><path transform="translate(6,12)" class="S sfv" d="M974 1535 L742 1767 L742 1799 L974 1567 Z"/><path class="fv1" d="M974 1535 L742 1767 L742 1799 L974 1567 Z" /></g><g class="o"><path transform="translate(8,16)" class="S sf" d="M1356 1963 L1117 2202 L1117 2232 L1356 1993 Z"/><path class="f7" d="M1356 1963 L1117 2202 L1117 2232 L1356 1993 Z" /></g><g class="o"><path transform="translate(9,18)" class="S sf" d="M1916 1846 L1616 2146 L1616 2156 L1916 1856 Z"/><path class="f1" d="M1916 1846 L1616 2146 L1616 2156 L1916 1856 Z" /></g><g class="o"><path transform="translate(7,14)" class="S sfv" d="M2004 1749 L1803 1950 L1803 1978 L2004 1777 Z"/><path class="fv5" d="M2004 1749 L1803 1950 L1803 1978 L2004 1777 Z" /></g><g class="o"><path transform="translate(6,12)" class="S sf" d="M1879 1389 L1426 1842 L1538 1842 L1991 1389 Z"/><path class="f6" d="M1879 1389 L1426 1842 L1538 1842 L1991 1389 Z" /></g><g class="o"><path transform="translate(3,6)" class="S sfh" d="M1684 1823 L1901 2040 L1915 2040 L1698 1823 Z"/><path class="fh2" d="M1684 1823 L1901 2040 L1915 2040 L1698 1823 Z" /></g><g class="o"><path transform="translate(6,12)" class="S sf" d="M1960 1145 L2284 1469 L2312 1469 L1988 1145 Z"/><path class="f2" d="M1960 1145 L2284 1469 L2312 1469 L1988 1145 Z" /></g><g class="o"><path transform="translate(9,18)" class="S sfv" d="M989 1199 L916 1272 L916 1286 L989 1213 Z"/><path class="fv7" d="M989 1199 L916 1272 L916 1286 L989 1213 Z" /></g><g class="o"><path transform="translate(5,10)" class="S sf" d="M1159 1167 L487 1839 L507 1839 L1179 1167 Z"/><path class="f7" d="M1159 1167 L487 1839 L507 1839 L1179 1167 Z" /></g><g class="o"><path transform="translate(9,18)" class="S sfv" d="M1521 1875 L1392 2004 L1392 2148 L1521 2019 Z"/><path class="fv5" d="M1521 1875 L1392 2004 L1392 2148 L1521 2019 Z" /></g><g class="o"><path transform="translate(2,4)" class="S ss" d="M2023 1315 L1961 1377 L1973 1377 L2035 1315 Z"/><path class="s3" d="M2023 1315 L1961 1377 L1973 1377 L2035 1315 Z" /></g><g class="o"><path transform="translate(2,4)" class="S sfh" d="M1161 1488 L1036 1613 L1064 1613 L1189 1488 Z"/><path class="fh5" d="M1161 1488 L1036 1613 L1064 1613 L1189 1488 Z" /></g><g class="o"><path transform="translate(9,18)" class="S ssh" d="M1805 1221 L1694 1332 L1722 1332 L1833 1221 Z"/><path class="sh3" d="M1805 1221 L1694 1332 L1722 1332 L1833 1221 Z" /></g><g class="o"><path transform="translate(8,16)" class="S sfh" d="M1051 1756 L1234 1939 L1244 1939 L1061 1756 Z"/><path class="fh4" d="M1051 1756 L1234 1939 L1244 1939 L1061 1756 Z" /></g><g class="o"><path transform="translate(3,6)" class="S sfv" d="M1537 1762 L1469 1830 L1469 1854 L1537 1786 Z"/><path class="fv5" d="M1537 1762 L1469 1830 L1469 1854 L1537 1786 Z" /></g><g class="o"><path transform="translate(6,12)" class="S sfv" d="M2023 1674 L1776 1921 L1776 1949 L2023 1702 Z"/><path class="fv4" d="M2023 1674 L1776 1921 L1776 1949 L2023 1702 Z" /></g><g class="o"><path transform="translate(4,8)" class="S ssh" d="M1533 1511 L1625 1603 L1689 1603 L1597 1511 Z"/><path class="sh7" d="M1533 1511 L1625 1603 L1689 1603 L1597 1511 Z" /></g><g class="o"><path transform="translate(9,18)" class="S ssh" d="M1610 1306 L1730 1426 L1766 1426 L1646 1306 Z"/><path class="sh7" d="M1610 1306 L1730 1426 L1766 1426 L1646 1306 Z" /></g><g class="o"><path transform="translate(9,18)" class="S sfh" d="M960 1820 L902 1878 L942 1878 L1000 1820 Z"/><path class="fh4" d="M960 1820 L902 1878 L942 1878 L1000 1820 Z" /></g><g class="o"><path transform="translate(7,14)" class="S sfv" d="M1794 1212 L1965 1383 L1965 1495 L1794 1324 Z"/><path class="fv1" d="M1794 1212 L1965 1383 L1965 1495 L1794 1324 Z" /></g><g class="o"><path transform="translate(9,18)" class="S sf" d="M1454 1475 L1633 1654 L1633 1684 L1454 1505 Z"/><path class="f7" d="M1454 1475 L1633 1654 L1633 1684 L1454 1505 Z" /></g><g class="o"><path transform="translate(7,14)" class="S ssh" d="M983 1135 L1160 1312 L1248 1312 L1071 1135 Z"/><path class="sh1" d="M983 1135 L1160 1312 L1248 1312 L1071 1135 Z" /></g></g><use href="#slashes" transform-origin="1500 1500" transform="rotate(180) scale(2)"/></g><rect x="1080" y="1080" width="840" height="840" stroke-width="80" class="o s4" /><use href="#slashes" transform-origin="1500 1500" transform="scale(.7)"/><use href="#slashes" transform-origin="1500 1500" transform="rotate(180) scale(1.3)"/></svg>