<svg xmlns="http://www.w3.org/2000/svg" viewBox="750 750 1500 1500"><style>/*<![CDATA[*/svg{background:rgb(58,158,253);max-width:100vw;max-height:100vh}path{stroke-width:4}.o{opacity:.75}.S{opacity:.4}.sf{stroke:none;fill:black}.sfh{stroke:none;fill:url(#hs)}.sfv{stroke:none;fill:url(#vs)}.ss{stroke:black;fill:none}.ssh{stroke:url(#hs);fill:none}.ssv{stroke:url(#vs);fill:none}.s1{fill:none;stroke:rgb(34,34,34)}.f1{stroke:none;fill:rgb(34,34,34)}.sh1{fill:none;stroke:url(#h1)}.fh1{stroke:none;fill:url(#h1)}.sv1{fill:none;stroke:url(#v1)}.fv1{stroke:none;fill:url(#v1)}.s2{fill:none;stroke:rgb(41,42,115)}.f2{stroke:none;fill:rgb(41,42,115)}.sh2{fill:none;stroke:url(#h2)}.fh2{stroke:none;fill:url(#h2)}.sv2{fill:none;stroke:url(#v2)}.fv2{stroke:none;fill:url(#v2)}.s3{fill:none;stroke:rgb(62,68,145)}.f3{stroke:none;fill:rgb(62,68,145)}.sh3{fill:none;stroke:url(#h3)}.fh3{stroke:none;fill:url(#h3)}.sv3{fill:none;stroke:url(#v3)}.fv3{stroke:none;fill:url(#v3)}.s4{fill:none;stroke:rgb(26,27,75)}.f4{stroke:none;fill:rgb(26,27,75)}.sh4{fill:none;stroke:url(#h4)}.fh4{stroke:none;fill:url(#h4)}.sv4{fill:none;stroke:url(#v4)}.fv4{stroke:none;fill:url(#v4)}.s5{fill:none;stroke:rgb(255,168,34)}.f5{stroke:none;fill:rgb(255,168,34)}.sh5{fill:none;stroke:url(#h5)}.fh5{stroke:none;fill:url(#h5)}.sv5{fill:none;stroke:url(#v5)}.fv5{stroke:none;fill:url(#v5)}.s6{fill:none;stroke:rgb(255,255,255)}.f6{stroke:none;fill:rgb(255,255,255)}.sh6{fill:none;stroke:url(#h6)}.fh6{stroke:none;fill:url(#h6)}.sv6{fill:none;stroke:url(#v6)}.fv6{stroke:none;fill:url(#v6)}.s7{fill:none;stroke:rgb(255,255,0)}.f7{stroke:none;fill:rgb(255,255,0)}.sh7{fill:none;stroke:url(#h7)}.fh7{stroke:none;fill:url(#h7)}.sv7{fill:none;stroke:url(#v7)}.fv7{stroke:none;fill:url(#v7)}/*]]>*/</style><defs><linearGradient gradientTransform="rotate(90)" id="hs"><stop offset="20%" stop-color="#000" /><stop offset="95%" stop-color="rgba(0, 0, 0, 0)" /></linearGradient><linearGradient id="vs"><stop offset="20%" stop-color="#000" /><stop offset="95%" stop-color="rgba(0, 0, 0, 0)" /></linearGradient><linearGradient gradientTransform="rotate(90)" id="h1"><stop offset="20%" stop-color="rgba(34,34,34,1)" /><stop offset="95%" stop-color="rgba(34,34,34,0)" /></linearGradient><linearGradient id="v1"><stop offset="20%" stop-color="rgba(34,34,34,1)" /><stop offset="95%" stop-color="rgba(34,34,34,0)" /></linearGradient><linearGradient gradientTransform="rotate(90)" id="h2"><stop offset="20%" stop-color="rgba(41,42,115,1)" /><stop offset="95%" stop-color="rgba(41,42,115,0)" /></linearGradient><linearGradient id="v2"><stop offset="20%" stop-color="rgba(41,42,115,1)" /><stop offset="95%" stop-color="rgba(41,42,115,0)" /></linearGradient><linearGradient gradientTransform="rotate(90)" id="h3"><stop offset="20%" stop-color="rgba(62,68,145,1)" /><stop offset="95%" stop-color="rgba(62,68,145,0)" /></linearGradient><linearGradient id="v3"><stop offset="20%" stop-color="rgba(62,68,145,1)" /><stop offset="95%" stop-color="rgba(62,68,145,0)" /></linearGradient><linearGradient gradientTransform="rotate(90)" id="h4"><stop offset="20%" stop-color="rgba(26,27,75,1)" /><stop offset="95%" stop-color="rgba(26,27,75,0)" /></linearGradient><linearGradient id="v4"><stop offset="20%" stop-color="rgba(26,27,75,1)" /><stop offset="95%" stop-color="rgba(26,27,75,0)" /></linearGradient><linearGradient gradientTransform="rotate(90)" id="h5"><stop offset="20%" stop-color="rgba(255,168,34,1)" /><stop offset="95%" stop-color="rgba(255,168,34,0)" /></linearGradient><linearGradient id="v5"><stop offset="20%" stop-color="rgba(255,168,34,1)" /><stop offset="95%" stop-color="rgba(255,168,34,0)" /></linearGradient><linearGradient gradientTransform="rotate(90)" id="h6"><stop offset="20%" stop-color="rgba(255,255,255,1)" /><stop offset="95%" stop-color="rgba(255,255,255,0)" /></linearGradient><linearGradient id="v6"><stop offset="20%" stop-color="rgba(255,255,255,1)" /><stop offset="95%" stop-color="rgba(255,255,255,0)" /></linearGradient><linearGradient gradientTransform="rotate(90)" id="h7"><stop offset="20%" stop-color="rgba(255,255,0,1)" /><stop offset="95%" stop-color="rgba(255,255,0,0)" /></linearGradient><linearGradient id="v7"><stop offset="20%" stop-color="rgba(255,255,0,1)" /><stop offset="95%" stop-color="rgba(255,255,0,0)" /></linearGradient></defs><g transform-origin="1500 1500" transform="scale(2)" opacity=".2"><g id="slashes"><g class="o"><path transform="translate(4,8)" class="S sfh" d="M1499 2029 L1560 1968 L1588 1968 L1527 2029 Z"/><path class="fh1" d="M1499 2029 L1560 1968 L1588 1968 L1527 2029 Z" /></g><g class="o"><path transform="translate(2,4)" class="S sfh" d="M1593 1228 L1798 1433 L1808 1433 L1603 1228 Z"/><path class="fh4" d="M1593 1228 L1798 1433 L1808 1433 L1603 1228 Z" /></g><g class="o"><path transform="translate(5,10)" class="S sfh" d="M1889 1056 L2023 922 L2053 922 L1919 1056 Z"/><path class="fh4" d="M1889 1056 L2023 922 L2053 922 L1919 1056 Z" /></g><g class="o"><path transform="translate(3,6)" class="S sfh" d="M1139 1353 L1317 1175 L1349 1175 L1171 1353 Z"/><path class="fh1" d="M1139 1353 L1317 1175 L1349 1175 L1171 1353 Z" /></g><g class="o"><path transform="translate(3,6)" class="S ssh" d="M1549 1903 L1651 1801 L1673 1801 L1571 1903 Z"/><path class="sh7" d="M1549 1903 L1651 1801 L1673 1801 L1571 1903 Z" /></g><g class="o"><path transform="translate(2,4)" class="S sf" d="M1784 1409 L1562 1187 L1598 1187 L1820 1409 Z"/><path class="f2" d="M1784 1409 L1562 1187 L1598 1187 L1820 1409 Z" /></g><g class="o"><path transform="translate(6,12)" class="S sfv" d="M1696 1663 L2005 1972 L2005 2008 L1696 1699 Z"/><path class="fv6" d="M1696 1663 L2005 1972 L2005 2008 L1696 1699 Z" /></g><g class="o"><path transform="translate(5,10)" class="S sfh" d="M1462 1043 L1526 1107 L1544 1107 L1480 1043 Z"/><path class="fh1" d="M1462 1043 L1526 1107 L1544 1107 L1480 1043 Z" /></g><g class="o"><path transform="translate(6,12)" class="S sfv" d="M1532 1880 L1324 1672 L1324 1710 L1532 1918 Z"/><path class="fv1" d="M1532 1880 L1324 1672 L1324 1710 L1532 1918 Z" /></g><g class="o"><path transform="translate(5,10)" class="S sfh" d="M1476 1783 L2061 1198 L2087 1198 L1502 1783 Z"/><path class="fh1" d="M1476 1783 L2061 1198 L2087 1198 L1502 1783 Z" /></g><g class="o"><path transform="translate(7,14)" class="S sfv" d="M1306 1522 L1138 1690 L1138 1714 L1306 1546 Z"/><path class="fv1" d="M1306 1522 L1138 1690 L1138 1714 L1306 1546 Z" /></g><g class="o"><path transform="translate(7,14)" class="S sfv" d="M1551 1729 L1332 1948 L1332 1956 L1551 1737 Z"/><path class="fv2" d="M1551 1729 L1332 1948 L1332 1956 L1551 1737 Z" /></g><g class="o"><path transform="translate(4,8)" class="S sfh" d="M1931 1977 L1457 2451 L1491 2451 L1965 1977 Z"/><path class="fh7" d="M1931 1977 L1457 2451 L1491 2451 L1965 1977 Z" /></g><g class="o"><path transform="translate(3,6)" class="S sfh" d="M1009 1523 L346 860 L366 860 L1029 1523 Z"/><path class="fh5" d="M1009 1523 L346 860 L366 860 L1029 1523 Z" /></g><g class="o"><path transform="translate(4,8)" class="S ss" d="M1371 1186 L1429 1128 L1455 1128 L1397 1186 Z"/><path class="s2" d="M1371 1186 L1429 1128 L1455 1128 L1397 1186 Z" /></g><g class="o"><path transform="translate(6,12)" class="S sfv" d="M1774 1322 L1120 668 L1120 688 L1774 1342 Z"/><path class="fv2" d="M1774 1322 L1120 668 L1120 688 L1774 1342 Z" /></g><g class="o"><path transform="translate(4,8)" class="S sfh" d="M1370 1832 L1529 1673 L1565 1673 L1406 1832 Z"/><path class="fh5" d="M1370 1832 L1529 1673 L1565 1673 L1406 1832 Z" /></g><g class="o"><path transform="translate(8,16)" class="S sf" d="M1621 1732 L1444 1555 L1480 1555 L1657 1732 Z"/><path class="f5" d="M1621 1732 L1444 1555 L1480 1555 L1657 1732 Z" /></g><g class="o"><path transform="translate(8,16)" class="S sf" d="M1664 1614 L1436 1842 L1456 1842 L1684 1614 Z"/><path class="f4" d="M1664 1614 L1436 1842 L1456 1842 L1684 1614 Z" /></g><g class="o"><path transform="translate(9,18)" class="S sfh" d="M1377 1259 L1644 1526 L1678 1526 L1411 1259 Z"/><path class="fh2" d="M1377 1259 L1644 1526 L1678 1526 L1411 1259 Z" /></g><g class="o"><path transform="translate(8,16)" class="S sfv" d="M1786 1926 L1974 1738 L1974 1746 L1786 1934 Z"/><path class="fv7" d="M1786 1926 L1974 1738 L1974 1746 L1786 1934 Z" /></g><g class="o"><path transform="translate(8,16)" class="S sfh" d="M1109 950 L692 1367 L724 1367 L1141 950 Z"/><path class="fh5" d="M1109 950 L692 1367 L724 1367 L1141 950 Z" /></g><g class="o"><path transform="translate(3,6)" class="S sf" d="M1568 1912 L1928 1552 L1952 1552 L1592 1912 Z"/><path class="f7" d="M1568 1912 L1928 1552 L1952 1552 L1592 1912 Z" /></g><g class="o"><path transform="translate(4,8)" class="S sfh" d="M2018 1458 L1881 1321 L1889 1321 L2026 1458 Z"/><path class="fh2" d="M2018 1458 L1881 1321 L1889 1321 L2026 1458 Z" /></g><g class="o"><path transform="translate(5,10)" class="S ssv" d="M1835 1504 L1663 1676 L1663 1724 L1835 1552 Z"/><path class="sv2" d="M1835 1504 L1663 1676 L1663 1724 L1835 1552 Z" /></g><g class="o"><path transform="translate(6,12)" class="S sfh" d="M1275 1666 L1418 1809 L1452 1809 L1309 1666 Z"/><path class="fh4" d="M1275 1666 L1418 1809 L1452 1809 L1309 1666 Z" /></g><g class="o"><path transform="translate(8,16)" class="S ssh" d="M1805 1713 L1969 1549 L1987 1549 L1823 1713 Z"/><path class="sh6" d="M1805 1713 L1969 1549 L1987 1549 L1823 1713 Z" /></g><g class="o"><path transform="translate(9,18)" class="S sfh" d="M1230 1540 L1365 1405 L1377 1405 L1242 1540 Z"/><path class="fh6" d="M1230 1540 L1365 1405 L1377 1405 L1242 1540 Z" /></g><g class="o"><path transform="translate(9,18)" class="S sf" d="M1883 1919 L2097 2133 L2133 2133 L1919 1919 Z"/><path class="f1" d="M1883 1919 L2097 2133 L2133 2133 L1919 1919 Z" /></g><g class="o"><path transform="translate(7,14)" class="S sf" d="M1921 1408 L2061 1268 L2083 1268 L1943 1408 Z"/><path class="f4" d="M1921 1408 L2061 1268 L2083 1268 L1943 1408 Z" /></g><g class="o"><path transform="translate(2,4)" class="S sf" d="M1486 1749 L766 2469 L766 2581 L1486 1861 Z"/><path class="f1" d="M1486 1749 L766 2469 L766 2581 L1486 1861 Z" /></g><g class="o"><path transform="translate(8,16)" class="S sf" d="M2022 1476 L1935 1563 L1947 1563 L2034 1476 Z"/><path class="f7" d="M2022 1476 L1935 1563 L1947 1563 L2034 1476 Z" /></g><g class="o"><path transform="translate(4,8)" class="S sfh" d="M1067 2000 L878 2189 L900 2189 L1089 2000 Z"/><path class="fh1" d="M1067 2000 L878 2189 L900 2189 L1089 2000 Z" /></g><g class="o"><path transform="translate(9,18)" class="S sfv" d="M952 1145 L1318 1511 L1318 1531 L952 1165 Z"/><path class="fv6" d="M952 1145 L1318 1511 L1318 1531 L952 1165 Z" /></g><g class="o"><path transform="translate(6,12)" class="S sfv" d="M1991 1075 L1919 1147 L1919 1179 L1991 1107 Z"/><path class="fv2" d="M1991 1075 L1919 1147 L1919 1179 L1991 1107 Z" /></g><g class="o"><path transform="translate(9,18)" class="S sfh" d="M943 1359 L800 1502 L838 1502 L981 1359 Z"/><path class="fh4" d="M943 1359 L800 1502 L838 1502 L981 1359 Z" /></g><g class="o"><path transform="translate(7,14)" class="S sfh" d="M1984 1855 L2185 1654 L2211 1654 L2010 1855 Z"/><path class="fh2" d="M1984 1855 L2185 1654 L2211 1654 L2010 1855 Z" /></g><g class="o"><path transform="translate(5,10)" class="S ss" d="M1747 1346 L1549 1544 L1549 1566 L1747 1368 Z"/><path class="s5" d="M1747 1346 L1549 1544 L1549 1566 L1747 1368 Z" /></g><g class="o"><path transform="translate(3,6)" class="S ssv" d="M1930 1731 L1700 1501 L1700 1509 L1930 1739 Z"/><path class="sv7" d="M1930 1731 L1700 1501 L1700 1509 L1930 1739 Z" /></g><g class="o"><path transform="translate(2,4)" class="S sfh" d="M1666 1908 L1861 1713 L1949 1713 L1754 1908 Z"/><path class="fh2" d="M1666 1908 L1861 1713 L1949 1713 L1754 1908 Z" /></g><g class="o"><path transform="translate(8,16)" class="S ssh" d="M1466 1944 L1573 1837 L1597 1837 L1490 1944 Z"/><path class="sh7" d="M1466 1944 L1573 1837 L1597 1837 L1490 1944 Z" /></g><g class="o"><path transform="translate(2,4)" class="S sf" d="M990 1660 L1188 1462 L1216 1462 L1018 1660 Z"/><path class="f7" d="M990 1660 L1188 1462 L1216 1462 L1018 1660 Z" /></g><g class="o"><path transform="translate(8,16)" class="S sfh" d="M1678 1937 L1801 2060 L1817 2060 L1694 1937 Z"/><path class="fh4" d="M1678 1937 L1801 2060 L1817 2060 L1694 1937 Z" /></g><g class="o"><path transform="translate(6,12)" class="S sfh" d="M1734 1690 L1657 1613 L1671 1613 L1748 1690 Z"/><path class="fh1" d="M1734 1690 L1657 1613 L1671 1613 L1748 1690 Z" /></g><g class="o"><path transform="translate(3,6)" class="S ssv" d="M1152 1232 L937 1447 L937 1483 L1152 1268 Z"/><path class="sv1" d="M1152 1232 L937 1447 L937 1483 L1152 1268 Z" /></g><g class="o"><path transform="translate(4,8)" class="S sf" d="M1522 1628 L1376 1482 L1472 1482 L1618 1628 Z"/><path class="f1" d="M1522 1628 L1376 1482 L1472 1482 L1618 1628 Z" /></g><g class="o"><path transform="translate(9,18)" class="S ss" d="M1962 1367 L1760 1569 L1760 1599 L1962 1397 Z"/><path class="s2" d="M1962 1367 L1760 1569 L1760 1599 L1962 1397 Z" /></g><g class="o"><path transform="translate(5,10)" class="S sfh" d="M993 1609 L1165 1437 L1173 1437 L1001 1609 Z"/><path class="fh7" d="M993 1609 L1165 1437 L1173 1437 L1001 1609 Z" /></g><g class="o"><path transform="translate(2,4)" class="S sf" d="M1647 1406 L1550 1309 L1550 1461 L1647 1558 Z"/><path class="f7" d="M1647 1406 L1550 1309 L1550 1461 L1647 1558 Z" /></g><g class="o"><path transform="translate(9,18)" class="S sfh" d="M1489 1315 L1280 1106 L1310 1106 L1519 1315 Z"/><path class="fh4" d="M1489 1315 L1280 1106 L1310 1106 L1519 1315 Z" /></g><g class="o"><path transform="translate(6,12)" class="S sfh" d="M1274 1110 L1066 1318 L1104 1318 L1312 1110 Z"/><path class="fh1" d="M1274 1110 L1066 1318 L1104 1318 L1312 1110 Z" /></g><g class="o"><path transform="translate(4,8)" class="S sfh" d="M1212 1552 L1440 1780 L1464 1780 L1236 1552 Z"/><path class="fh2" d="M1212 1552 L1440 1780 L1464 1780 L1236 1552 Z" /></g><g class="o"><path transform="translate(2,4)" class="S sfh" d="M1797 1108 L1907 1218 L1921 1218 L1811 1108 Z"/><path class="fh1" d="M1797 1108 L1907 1218 L1921 1218 L1811 1108 Z" /></g><g class="o"><path transform="translate(3,6)" class="S sfh" d="M1597 1078 L1674 1155 L1686 1155 L1609 1078 Z"/><path class="fh2" d="M1597 1078 L1674 1155 L1686 1155 L1609 1078 Z" /></g><g class="o"><path transform="translate(6,12)" class="S ssv" d="M1721 1050 L1663 1108 L1663 1132 L1721 1074 Z"/><path class="sv5" d="M1721 1050 L1663 1108 L1663 1132 L1721 1074 Z" /></g><g class="o"><path transform="translate(6,12)" class="S sfh" d="M1334 1692 L1163 1521 L1307 1521 L1478 1692 Z"/><path class="fh5" d="M1334 1692 L1163 1521 L1307 1521 L1478 1692 Z" /></g><g class="o"><path transform="translate(5,10)" class="S sf" d="M1281 1910 L1186 2005 L1186 2043 L1281 1948 Z"/><path class="f6" d="M1281 1910 L1186 2005 L1186 2043 L1281 1948 Z" /></g><g class="o"><path transform="translate(9,18)" class="S ssv" d="M972 1695 L1170 1497 L1170 1515 L972 1713 Z"/><path class="sv6" d="M972 1695 L1170 1497 L1170 1515 L972 1713 Z" /></g><g class="o"><path transform="translate(6,12)" class="S sfh" d="M1536 1211 L2244 1919 L2332 1919 L1624 1211 Z"/><path class="fh1" d="M1536 1211 L2244 1919 L2332 1919 L1624 1211 Z" /></g><g class="o"><path transform="translate(6,12)" class="S ssv" d="M1752 1791 L1896 1935 L1896 1971 L1752 1827 Z"/><path class="sv2" d="M1752 1791 L1896 1935 L1896 1971 L1752 1827 Z" /></g><g class="o"><path transform="translate(9,18)" class="S sfh" d="M1657 966 L1759 1068 L1797 1068 L1695 966 Z"/><path class="fh3" d="M1657 966 L1759 1068 L1797 1068 L1695 966 Z" /></g><g class="o"><path transform="translate(2,4)" class="S sf" d="M951 1883 L1464 1370 L1464 1378 L951 1891 Z"/><path class="f6" d="M951 1883 L1464 1370 L1464 1378 L951 1891 Z" /></g><g class="o"><path transform="translate(7,14)" class="S sfv" d="M2035 1876 L1797 1638 L1797 1656 L2035 1894 Z"/><path class="fv1" d="M2035 1876 L1797 1638 L1797 1656 L2035 1894 Z" /></g><g class="o"><path transform="translate(7,14)" class="S sfv" d="M1735 1681 L1573 1843 L1573 1871 L1735 1709 Z"/><path class="fv7" d="M1735 1681 L1573 1843 L1573 1871 L1735 1709 Z" /></g><g class="o"><path transform="translate(3,6)" class="S sfv" d="M1305 1096 L1175 1226 L1175 1242 L1305 1112 Z"/><path class="fv2" d="M1305 1096 L1175 1226 L1175 1242 L1305 1112 Z" /></g><g class="o"><path transform="translate(8,16)" class="S sfv" d="M1775 2033 L1967 2225 L1967 2251 L1775 2059 Z"/><path class="fv6" d="M1775 2033 L1967 2225 L1967 2251 L1775 2059 Z" /></g><g class="o"><path transform="translate(5,10)" class="S sf" d="M1300 952 L1515 1167 L1515 1191 L1300 976 Z"/><path class="f5" d="M1300 952 L1515 1167 L1515 1191 L1300 976 Z" /></g><g class="o"><path transform="translate(4,8)" class="S sfv" d="M1430 1271 L1480 1221 L1480 1239 L1430 1289 Z"/><path class="fv2" d="M1430 1271 L1480 1221 L1480 1239 L1430 1289 Z" /></g><g class="o"><path transform="translate(8,16)" class="S sfv" d="M1305 2005 L1218 1918 L1218 1940 L1305 2027 Z"/><path class="fv1" d="M1305 2005 L1218 1918 L1218 1940 L1305 2027 Z" /></g><g class="o"><path transform="translate(6,12)" class="S sfh" d="M1005 1159 L1575 1729 L1591 1729 L1021 1159 Z"/><path class="fh3" d="M1005 1159 L1575 1729 L1591 1729 L1021 1159 Z" /></g><g class="o"><path transform="translate(5,10)" class="S sf" d="M1735 1549 L2464 2278 L2464 2308 L1735 1579 Z"/><path class="f6" d="M1735 1549 L2464 2278 L2464 2308 L1735 1579 Z" /></g><g class="o"><path transform="translate(5,10)" class="S sf" d="M1408 1463 L1325 1380 L1325 1444 L1408 1527 Z"/><path class="f7" d="M1408 1463 L1325 1380 L1325 1444 L1408 1527 Z" /></g><g class="o"><path transform="translate(9,18)" class="S sf" d="M1328 1808 L1079 1559 L1095 1559 L1344 1808 Z"/><path class="f1" d="M1328 1808 L1079 1559 L1095 1559 L1344 1808 Z" /></g><g class="o"><path transform="translate(6,12)" class="S sfv" d="M1983 1974 L2193 2184 L2193 2194 L1983 1984 Z"/><path class="fv1" d="M1983 1974 L2193 2184 L2193 2194 L1983 1984 Z" /></g><g class="o"><path transform="translate(5,10)" class="S ssh" d="M1870 1239 L1981 1128 L1989 1128 L1878 1239 Z"/><path class="sh5" d="M1870 1239 L1981 1128 L1989 1128 L1878 1239 Z" /></g><g class="o"><path transform="translate(5,10)" class="S sfh" d="M1674 1478 L1507 1645 L1525 1645 L1692 1478 Z"/><path class="fh7" d="M1674 1478 L1507 1645 L1525 1645 L1692 1478 Z" /></g><g class="o"><path transform="translate(8,16)" class="S ssh" d="M1513 1644 L1680 1477 L1700 1477 L1533 1644 Z"/><path class="sh7" d="M1513 1644 L1680 1477 L1700 1477 L1533 1644 Z" /></g><g class="o"><path transform="translate(4,8)" class="S ssh" d="M944 1765 L443 1264 L463 1264 L964 1765 Z"/><path class="sh3" d="M944 1765 L443 1264 L463 1264 L964 1765 Z" /></g><g class="o"><path transform="translate(6,12)" class="S sfv" d="M1054 1314 L832 1092 L832 1118 L1054 1340 Z"/><path class="fv5" d="M1054 1314 L832 1092 L832 1118 L1054 1340 Z" /></g><g class="o"><path transform="translate(3,6)" class="S sfv" d="M1988 1184 L2162 1358 L2162 1414 L1988 1240 Z"/><path class="fv3" d="M1988 1184 L2162 1358 L2162 1414 L1988 1240 Z" /></g><g class="o"><path transform="translate(3,6)" class="S sf" d="M1047 1899 L1305 1641 L1337 1641 L1079 1899 Z"/><path class="f3" d="M1047 1899 L1305 1641 L1337 1641 L1079 1899 Z" /></g><g class="o"><path transform="translate(4,8)" class="S sf" d="M1403 1978 L1629 1752 L1667 1752 L1441 1978 Z"/><path class="f2" d="M1403 1978 L1629 1752 L1667 1752 L1441 1978 Z" /></g><g class="o"><path transform="translate(2,4)" class="S sfh" d="M1358 1835 L1476 1953 L1492 1953 L1374 1835 Z"/><path class="fh1" d="M1358 1835 L1476 1953 L1492 1953 L1374 1835 Z" /></g><g class="o"><path transform="translate(7,14)" class="S sfh" d="M1819 1477 L2179 1117 L2213 1117 L1853 1477 Z"/><path class="fh6" d="M1819 1477 L2179 1117 L2213 1117 L1853 1477 Z" /></g><g class="o"><path transform="translate(7,14)" class="S sfv" d="M1913 1269 L1767 1415 L1767 1441 L1913 1295 Z"/><path class="fv2" d="M1913 1269 L1767 1415 L1767 1441 L1913 1295 Z" /></g><g class="o"><path transform="translate(2,4)" class="S sf" d="M1204 1234 L1001 1031 L1001 1051 L1204 1254 Z"/><path class="f4" d="M1204 1234 L1001 1031 L1001 1051 L1204 1254 Z" /></g><g class="o"><path transform="translate(5,10)" class="S sf" d="M1168 1925 L1033 1790 L1065 1790 L1200 1925 Z"/><path class="f4" d="M1168 1925 L1033 1790 L1065 1790 L1200 1925 Z" /></g><g class="o"><path transform="translate(3,6)" class="S sfh" d="M1852 1335 L1963 1446 L1993 1446 L1882 1335 Z"/><path class="fh2" d="M1852 1335 L1963 1446 L1993 1446 L1882 1335 Z" /></g><g class="o"><path transform="translate(7,14)" class="S sf" d="M1320 1951 L1123 2148 L1123 2156 L1320 1959 Z"/><path class="f7" d="M1320 1951 L1123 2148 L1123 2156 L1320 1959 Z" /></g><g class="o"><path transform="translate(8,16)" class="S sfh" d="M1751 1169 L1541 1379 L1573 1379 L1783 1169 Z"/><path class="fh7" d="M1751 1169 L1541 1379 L1573 1379 L1783 1169 Z" /></g><g class="o"><path transform="translate(2,4)" class="S ssv" d="M1804 1057 L2242 619 L2242 645 L1804 1083 Z"/><path class="sv3" d="M1804 1057 L2242 619 L2242 645 L1804 1083 Z" /></g><g class="o"><path transform="translate(5,10)" class="S sfv" d="M1670 1273 L1573 1176 L1573 1194 L1670 1291 Z"/><path class="fv3" d="M1670 1273 L1573 1176 L1573 1194 L1670 1291 Z" /></g><g class="o"><path transform="translate(3,6)" class="S sfv" d="M1639 2009 L1553 2095 L1553 2133 L1639 2047 Z"/><path class="fv3" d="M1639 2009 L1553 2095 L1553 2133 L1639 2047 Z" /></g><g class="o"><path transform="translate(7,14)" class="S sfh" d="M1089 2020 L888 1819 L914 1819 L1115 2020 Z"/><path class="fh1" d="M1089 2020 L888 1819 L914 1819 L1115 2020 Z" /></g><g class="o"><path transform="translate(9,18)" class="S sfv" d="M966 1254 L1125 1413 L1125 1421 L966 1262 Z"/><path class="fv2" d="M966 1254 L1125 1413 L1125 1421 L966 1262 Z" /></g><g class="o"><path transform="translate(6,12)" class="S ssh" d="M1587 1154 L1346 1395 L1450 1395 L1691 1154 Z"/><path class="sh3" d="M1587 1154 L1346 1395 L1450 1395 L1691 1154 Z" /></g><g class="o"><path transform="translate(6,12)" class="S ss" d="M1701 1534 L1935 1768 L1969 1768 L1735 1534 Z"/><path class="s5" d="M1701 1534 L1935 1768 L1969 1768 L1735 1534 Z" /></g><g class="o"><path transform="translate(5,10)" class="S sfh" d="M1554 1673 L1080 2147 L1114 2147 L1588 1673 Z"/><path class="fh3" d="M1554 1673 L1080 2147 L1114 2147 L1588 1673 Z" /></g><g class="o"><path transform="translate(8,16)" class="S sfh" d="M2006 1780 L1860 1634 L1886 1634 L2032 1780 Z"/><path class="fh7" d="M2006 1780 L1860 1634 L1886 1634 L2032 1780 Z" /></g><g class="o"><path transform="translate(6,12)" class="S sfh" d="M1959 1580 L1808 1429 L1826 1429 L1977 1580 Z"/><path class="fh5" d="M1959 1580 L1808 1429 L1826 1429 L1977 1580 Z" /></g><g class="o"><path transform="translate(4,8)" class="S ssh" d="M1847 1860 L2001 1706 L2021 1706 L1867 1860 Z"/><path class="sh3" d="M1847 1860 L2001 1706 L2021 1706 L1867 1860 Z" /></g><g class="o"><path transform="translate(9,18)" class="S sfh" d="M1044 1555 L809 1320 L819 1320 L1054 1555 Z"/><path class="fh6" d="M1044 1555 L809 1320 L819 1320 L1054 1555 Z" /></g><g class="o"><path transform="translate(7,14)" class="S sfh" d="M1402 1726 L1577 1551 L1587 1551 L1412 1726 Z"/><path class="fh1" d="M1402 1726 L1577 1551 L1587 1551 L1412 1726 Z" /></g><g class="o"><path transform="translate(9,18)" class="S sfh" d="M1654 1552 L1138 1036 L1170 1036 L1686 1552 Z"/><path class="fh2" d="M1654 1552 L1138 1036 L1170 1036 L1686 1552 Z" /></g><g class="o"><path transform="translate(2,4)" class="S sfv" d="M1051 1088 L867 904 L867 928 L1051 1112 Z"/><path class="fv3" d="M1051 1088 L867 904 L867 928 L1051 1112 Z" /></g><g class="o"><path transform="translate(2,4)" class="S sfv" d="M1984 1422 L1810 1596 L1810 1630 L1984 1456 Z"/><path class="fv3" d="M1984 1422 L1810 1596 L1810 1630 L1984 1456 Z" /></g><g class="o"><path transform="translate(5,10)" class="S sfh" d="M1133 1050 L1183 1100 L1197 1100 L1147 1050 Z"/><path class="fh3" d="M1133 1050 L1183 1100 L1197 1100 L1147 1050 Z" /></g><g class="o"><path transform="translate(9,18)" class="S sfh" d="M1098 1349 L1207 1458 L1223 1458 L1114 1349 Z"/><path class="fh2" d="M1098 1349 L1207 1458 L1223 1458 L1114 1349 Z" /></g><g class="o"><path transform="translate(8,16)" class="S sfh" d="M1683 1326 L1863 1146 L1889 1146 L1709 1326 Z"/><path class="fh4" d="M1683 1326 L1863 1146 L1889 1146 L1709 1326 Z" /></g><g class="o"><path transform="translate(9,18)" class="S sfv" d="M1430 1391 L1212 1609 L1212 1645 L1430 1427 Z"/><path class="fv6" d="M1430 1391 L1212 1609 L1212 1645 L1430 1427 Z" /></g><g class="o"><path transform="translate(3,6)" class="S sf" d="M1796 1350 L1673 1227 L1673 1245 L1796 1368 Z"/><path class="f4" d="M1796 1350 L1673 1227 L1673 1245 L1796 1368 Z" /></g><g class="o"><path transform="translate(5,10)" class="S ss" d="M1012 1013 L923 1102 L923 1206 L1012 1117 Z"/><path class="s6" d="M1012 1013 L923 1102 L923 1206 L1012 1117 Z" /></g><g class="o"><path transform="translate(8,16)" class="S sfh" d="M1003 1556 L953 1506 L961 1506 L1011 1556 Z"/><path class="fh7" d="M1003 1556 L953 1506 L961 1506 L1011 1556 Z" /></g><g class="o"><path transform="translate(5,10)" class="S sfv" d="M1288 986 L1027 725 L1027 739 L1288 1000 Z"/><path class="fv2" d="M1288 986 L1027 725 L1027 739 L1288 1000 Z" /></g><g class="o"><path transform="translate(5,10)" class="S sfv" d="M1175 1186 L563 574 L563 590 L1175 1202 Z"/><path class="fv4" d="M1175 1186 L563 574 L563 590 L1175 1202 Z" /></g><g class="o"><path transform="translate(4,8)" class="S sfv" d="M1969 1144 L1896 1217 L1896 1241 L1969 1168 Z"/><path class="fv4" d="M1969 1144 L1896 1217 L1896 1241 L1969 1168 Z" /></g><g class="o"><path transform="translate(5,10)" class="S sfv" d="M1797 1082 L1582 1297 L1582 1327 L1797 1112 Z"/><path class="fv3" d="M1797 1082 L1582 1297 L1582 1327 L1797 1112 Z" /></g><g class="o"><path transform="translate(7,14)" class="S sfh" d="M1932 1566 L1710 1788 L1746 1788 L1968 1566 Z"/><path class="fh5" d="M1932 1566 L1710 1788 L1746 1788 L1968 1566 Z" /></g><g class="o"><path transform="translate(7,14)" class="S sf" d="M1743 1776 L1640 1879 L1760 1879 L1863 1776 Z"/><path class="f4" d="M1743 1776 L1640 1879 L1760 1879 L1863 1776 Z" /></g><g class="o"><path transform="translate(4,8)" class="S sfv" d="M1503 1904 L1335 2072 L1335 2110 L1503 1942 Z"/><path class="fv7" d="M1503 1904 L1335 2072 L1335 2110 L1503 1942 Z" /></g><g class="o"><path transform="translate(6,12)" class="S sfv" d="M1823 1730 L1754 1799 L1754 1809 L1823 1740 Z"/><path class="fv5" d="M1823 1730 L1754 1799 L1754 1809 L1823 1740 Z" /></g><g class="o"><path transform="translate(3,6)" class="S sf" d="M1017 1349 L794 1126 L794 1162 L1017 1385 Z"/><path class="f3" d="M1017 1349 L794 1126 L794 1162 L1017 1385 Z" /></g><g class="o"><path transform="translate(2,4)" class="S sfv" d="M1330 1897 L1419 1986 L1419 2000 L1330 1911 Z"/><path class="fv3" d="M1330 1897 L1419 1986 L1419 2000 L1330 1911 Z" /></g><g class="o"><path transform="translate(6,12)" class="S sfh" d="M1515 1681 L1699 1497 L1727 1497 L1543 1681 Z"/><path class="fh7" d="M1515 1681 L1699 1497 L1727 1497 L1543 1681 Z" /></g><g class="o"><path transform="translate(8,16)" class="S ssh" d="M1528 1223 L1852 899 L1888 899 L1564 1223 Z"/><path class="sh7" d="M1528 1223 L1852 899 L1888 899 L1564 1223 Z" /></g><g class="o"><path transform="translate(3,6)" class="S sfh" d="M2041 1274 L2281 1034 L2297 1034 L2057 1274 Z"/><path class="fh7" d="M2041 1274 L2281 1034 L2297 1034 L2057 1274 Z" /></g><g class="o"><path transform="translate(4,8)" class="S sf" d="M1361 1880 L839 2402 L839 2424 L1361 1902 Z"/><path class="f6" d="M1361 1880 L839 2402 L839 2424 L1361 1902 Z" /></g><g class="o"><path transform="translate(3,6)" class="S sfh" d="M1618 1310 L1807 1499 L1833 1499 L1644 1310 Z"/><path class="fh2" d="M1618 1310 L1807 1499 L1833 1499 L1644 1310 Z" /></g><g class="o"><path transform="translate(7,14)" class="S ssv" d="M1946 1596 L1859 1509 L1859 1557 L1946 1644 Z"/><path class="sv6" d="M1946 1596 L1859 1509 L1859 1557 L1946 1644 Z" /></g><g class="o"><path transform="translate(4,8)" class="S sfv" d="M1430 971 L1641 760 L1641 896 L1430 1107 Z"/><path class="fv4" d="M1430 971 L1641 760 L1641 896 L1430 1107 Z" /></g><g class="o"><path transform="translate(9,18)" class="S sf" d="M1492 1361 L772 2081 L772 2109 L1492 1389 Z"/><path class="f3" d="M1492 1361 L772 2081 L772 2109 L1492 1389 Z" /></g><g class="o"><path transform="translate(7,14)" class="S sfv" d="M1667 1973 L1614 1920 L1614 2072 L1667 2125 Z"/><path class="fv2" d="M1667 1973 L1614 1920 L1614 2072 L1667 2125 Z" /></g><g class="o"><path transform="translate(4,8)" class="S sf" d="M1627 1843 L1709 1925 L1745 1925 L1663 1843 Z"/><path class="f6" d="M1627 1843 L1709 1925 L1745 1925 L1663 1843 Z" /></g><g class="o"><path transform="translate(5,10)" class="S sfv" d="M1660 1171 L1506 1325 L1506 1357 L1660 1203 Z"/><path class="fv3" d="M1660 1171 L1506 1325 L1506 1357 L1660 1203 Z" /></g><g class="o"><path transform="translate(7,14)" class="S sfv" d="M1139 1911 L1063 1835 L1063 1867 L1139 1943 Z"/><path class="fv7" d="M1139 1911 L1063 1835 L1063 1867 L1139 1943 Z" /></g><g class="o"><path transform="translate(5,10)" class="S ssh" d="M1419 1035 L1553 1169 L1585 1169 L1451 1035 Z"/><path class="sh1" d="M1419 1035 L1553 1169 L1585 1169 L1451 1035 Z" /></g><g class="o"><path transform="translate(9,18)" class="S ssh" d="M1249 1963 L1054 2158 L1062 2158 L1257 1963 Z"/><path class="sh2" d="M1249 1963 L1054 2158 L1062 2158 L1257 1963 Z" /></g><g class="o"><path transform="translate(3,6)" class="S ssv" d="M1267 1098 L1504 1335 L1504 1391 L1267 1154 Z"/><path class="sv1" d="M1267 1098 L1504 1335 L1504 1391 L1267 1154 Z" /></g><g class="o"><path transform="translate(6,12)" class="S sfh" d="M1435 1530 L1256 1709 L1384 1709 L1563 1530 Z"/><path class="fh6" d="M1435 1530 L1256 1709 L1384 1709 L1563 1530 Z" /></g><g class="o"><path transform="translate(7,14)" class="S ssh" d="M1880 1878 L1759 1757 L1767 1757 L1888 1878 Z"/><path class="sh3" d="M1880 1878 L1759 1757 L1767 1757 L1888 1878 Z" /></g><g class="o"><path transform="translate(7,14)" class="S sfh" d="M1371 999 L1609 761 L1697 761 L1459 999 Z"/><path class="fh3" d="M1371 999 L1609 761 L1697 761 L1459 999 Z" /></g><g class="o"><path transform="translate(4,8)" class="S ssh" d="M1715 1838 L1770 1783 L1906 1783 L1851 1838 Z"/><path class="sh2" d="M1715 1838 L1770 1783 L1906 1783 L1851 1838 Z" /></g><g class="o"><path transform="translate(3,6)" class="S sfv" d="M1365 1197 L1545 1017 L1545 1055 L1365 1235 Z"/><path class="fv4" d="M1365 1197 L1545 1017 L1545 1055 L1365 1235 Z" /></g><g class="o"><path transform="translate(3,6)" class="S ssv" d="M1869 1681 L1530 2020 L1530 2050 L1869 1711 Z"/><path class="sv3" d="M1869 1681 L1530 2020 L1530 2050 L1869 1711 Z" /></g><g class="o"><path transform="translate(3,6)" class="S sfv" d="M1725 960 L1592 1093 L1592 1131 L1725 998 Z"/><path class="fv3" d="M1725 960 L1592 1093 L1592 1131 L1725 998 Z" /></g><g class="o"><path transform="translate(9,18)" class="S sfh" d="M1069 1344 L1013 1288 L1021 1288 L1077 1344 Z"/><path class="fh5" d="M1069 1344 L1013 1288 L1021 1288 L1077 1344 Z" /></g><g class="o"><path transform="translate(7,14)" class="S sf" d="M1317 2017 L1144 2190 L1182 2190 L1355 2017 Z"/><path class="f7" d="M1317 2017 L1144 2190 L1182 2190 L1355 2017 Z" /></g><g class="o"><path transform="translate(3,6)" class="S ssv" d="M1376 1974 L1204 1802 L1204 1826 L1376 1998 Z"/><path class="sv4" d="M1376 1974 L1204 1802 L1204 1826 L1376 1998 Z" /></g><g class="o"><path transform="translate(3,6)" class="S sfh" d="M1399 1363 L1468 1432 L1500 1432 L1431 1363 Z"/><path class="fh4" d="M1399 1363 L1468 1432 L1500 1432 L1431 1363 Z" /></g><g class="o"><path transform="translate(9,18)" class="S sfv" d="M1927 990 L2076 1139 L2076 1153 L1927 1004 Z"/><path class="fv4" d="M1927 990 L2076 1139 L2076 1153 L1927 1004 Z" /></g></g><use href="#slashes" transform-origin="1500 1500" transform="rotate(180) scale(2)"/></g><rect x="1080" y="1080" width="840" height="840" stroke-width="80" class="o s6" /><use href="#slashes" transform-origin="1500 1500" transform="scale(.6)"/><use href="#slashes" transform-origin="1500 1500" transform="rotate(180) scale(.6)"/></svg>