<svg xmlns="http://www.w3.org/2000/svg" viewBox="750 750 1500 1500"><style>/*<![CDATA[*/svg{background:rgb(174,217,224);max-width:100vw;max-height:100vh}path{stroke-width:4}.o{opacity:.75}.S{opacity:.4}.sf{stroke:none;fill:black}.sfh{stroke:none;fill:url(#hs)}.sfv{stroke:none;fill:url(#vs)}.ss{stroke:black;fill:none}.ssh{stroke:url(#hs);fill:none}.ssv{stroke:url(#vs);fill:none}.s1{fill:none;stroke:rgb(250,243,221)}.f1{stroke:none;fill:rgb(250,243,221)}.sh1{fill:none;stroke:url(#h1)}.fh1{stroke:none;fill:url(#h1)}.sv1{fill:none;stroke:url(#v1)}.fv1{stroke:none;fill:url(#v1)}.s2{fill:none;stroke:rgb(94,100,114)}.f2{stroke:none;fill:rgb(94,100,114)}.sh2{fill:none;stroke:url(#h2)}.fh2{stroke:none;fill:url(#h2)}.sv2{fill:none;stroke:url(#v2)}.fv2{stroke:none;fill:url(#v2)}.s3{fill:none;stroke:rgb(255,166,158)}.f3{stroke:none;fill:rgb(255,166,158)}.sh3{fill:none;stroke:url(#h3)}.fh3{stroke:none;fill:url(#h3)}.sv3{fill:none;stroke:url(#v3)}.fv3{stroke:none;fill:url(#v3)}.s4{fill:none;stroke:rgb(34,34,34)}.f4{stroke:none;fill:rgb(34,34,34)}.sh4{fill:none;stroke:url(#h4)}.fh4{stroke:none;fill:url(#h4)}.sv4{fill:none;stroke:url(#v4)}.fv4{stroke:none;fill:url(#v4)}.s5{fill:none;stroke:rgb(184,242,230)}.f5{stroke:none;fill:rgb(184,242,230)}.sh5{fill:none;stroke:url(#h5)}.fh5{stroke:none;fill:url(#h5)}.sv5{fill:none;stroke:url(#v5)}.fv5{stroke:none;fill:url(#v5)}.s6{fill:none;stroke:rgb(255,255,255)}.f6{stroke:none;fill:rgb(255,255,255)}.sh6{fill:none;stroke:url(#h6)}.fh6{stroke:none;fill:url(#h6)}.sv6{fill:none;stroke:url(#v6)}.fv6{stroke:none;fill:url(#v6)}.s7{fill:none;stroke:rgb(255,0,0)}.f7{stroke:none;fill:rgb(255,0,0)}.sh7{fill:none;stroke:url(#h7)}.fh7{stroke:none;fill:url(#h7)}.sv7{fill:none;stroke:url(#v7)}.fv7{stroke:none;fill:url(#v7)}/*]]>*/</style><defs><linearGradient gradientTransform="rotate(90)" id="hs"><stop offset="20%" stop-color="#000" /><stop offset="95%" stop-color="rgba(0, 0, 0, 0)" /></linearGradient><linearGradient id="vs"><stop offset="20%" stop-color="#000" /><stop offset="95%" stop-color="rgba(0, 0, 0, 0)" /></linearGradient><linearGradient gradientTransform="rotate(90)" id="h1"><stop offset="20%" stop-color="rgba(250,243,221,1)" /><stop offset="95%" stop-color="rgba(250,243,221,0)" /></linearGradient><linearGradient id="v1"><stop offset="20%" stop-color="rgba(250,243,221,1)" /><stop offset="95%" stop-color="rgba(250,243,221,0)" /></linearGradient><linearGradient gradientTransform="rotate(90)" id="h2"><stop offset="20%" stop-color="rgba(94,100,114,1)" /><stop offset="95%" stop-color="rgba(94,100,114,0)" /></linearGradient><linearGradient id="v2"><stop offset="20%" stop-color="rgba(94,100,114,1)" /><stop offset="95%" stop-color="rgba(94,100,114,0)" /></linearGradient><linearGradient gradientTransform="rotate(90)" id="h3"><stop offset="20%" stop-color="rgba(255,166,158,1)" /><stop offset="95%" stop-color="rgba(255,166,158,0)" /></linearGradient><linearGradient id="v3"><stop offset="20%" stop-color="rgba(255,166,158,1)" /><stop offset="95%" stop-color="rgba(255,166,158,0)" /></linearGradient><linearGradient gradientTransform="rotate(90)" id="h4"><stop offset="20%" stop-color="rgba(34,34,34,1)" /><stop offset="95%" stop-color="rgba(34,34,34,0)" /></linearGradient><linearGradient id="v4"><stop offset="20%" stop-color="rgba(34,34,34,1)" /><stop offset="95%" stop-color="rgba(34,34,34,0)" /></linearGradient><linearGradient gradientTransform="rotate(90)" id="h5"><stop offset="20%" stop-color="rgba(184,242,230,1)" /><stop offset="95%" stop-color="rgba(184,242,230,0)" /></linearGradient><linearGradient id="v5"><stop offset="20%" stop-color="rgba(184,242,230,1)" /><stop offset="95%" stop-color="rgba(184,242,230,0)" /></linearGradient><linearGradient gradientTransform="rotate(90)" id="h6"><stop offset="20%" stop-color="rgba(255,255,255,1)" /><stop offset="95%" stop-color="rgba(255,255,255,0)" /></linearGradient><linearGradient id="v6"><stop offset="20%" stop-color="rgba(255,255,255,1)" /><stop offset="95%" stop-color="rgba(255,255,255,0)" /></linearGradient><linearGradient gradientTransform="rotate(90)" id="h7"><stop offset="20%" stop-color="rgba(255,0,0,1)" /><stop offset="95%" stop-color="rgba(255,0,0,0)" /></linearGradient><linearGradient id="v7"><stop offset="20%" stop-color="rgba(255,0,0,1)" /><stop offset="95%" stop-color="rgba(255,0,0,0)" /></linearGradient></defs><g transform-origin="1500 1500" transform="scale(2)" opacity=".2"><g id="slashes"><g class="o"><path transform="translate(9,18)" class="S ssh" d="M1006 1680 L1225 1899 L1247 1899 L1028 1680 Z"/><path class="sh2" d="M1006 1680 L1225 1899 L1247 1899 L1028 1680 Z" /></g><g class="o"><path transform="translate(4,8)" class="S sfh" d="M1445 1063 L1673 1291 L1711 1291 L1483 1063 Z"/><path class="fh5" d="M1445 1063 L1673 1291 L1711 1291 L1483 1063 Z" /></g><g class="o"><path transform="translate(8,16)" class="S ssh" d="M1692 1840 L2091 2239 L2099 2239 L1700 1840 Z"/><path class="sh5" d="M1692 1840 L2091 2239 L2099 2239 L1700 1840 Z" /></g><g class="o"><path transform="translate(4,8)" class="S sfh" d="M1883 1456 L2006 1579 L2042 1579 L1919 1456 Z"/><path class="fh1" d="M1883 1456 L2006 1579 L2042 1579 L1919 1456 Z" /></g><g class="o"><path transform="translate(8,16)" class="S ssh" d="M1120 1541 L1282 1703 L1304 1703 L1142 1541 Z"/><path class="sh4" d="M1120 1541 L1282 1703 L1304 1703 L1142 1541 Z" /></g><g class="o"><path transform="translate(3,6)" class="S sfv" d="M1929 1678 L2108 1499 L2108 1521 L1929 1700 Z"/><path class="fv2" d="M1929 1678 L2108 1499 L2108 1521 L1929 1700 Z" /></g><g class="o"><path transform="translate(3,6)" class="S sfv" d="M1628 1892 L2216 2480 L2216 2498 L1628 1910 Z"/><path class="fv3" d="M1628 1892 L2216 2480 L2216 2498 L1628 1910 Z" /></g><g class="o"><path transform="translate(8,16)" class="S sfv" d="M1414 1356 L1579 1191 L1579 1217 L1414 1382 Z"/><path class="fv1" d="M1414 1356 L1579 1191 L1579 1217 L1414 1382 Z" /></g><g class="o"><path transform="translate(7,14)" class="S sfv" d="M1458 1146 L1650 1338 L1650 1358 L1458 1166 Z"/><path class="fv6" d="M1458 1146 L1650 1338 L1650 1358 L1458 1166 Z" /></g><g class="o"><path transform="translate(3,6)" class="S sf" d="M1474 1374 L1615 1515 L1645 1515 L1504 1374 Z"/><path class="f3" d="M1474 1374 L1615 1515 L1645 1515 L1504 1374 Z" /></g><g class="o"><path transform="translate(2,4)" class="S sfh" d="M1179 1544 L1506 1871 L1528 1871 L1201 1544 Z"/><path class="fh3" d="M1179 1544 L1506 1871 L1528 1871 L1201 1544 Z" /></g><g class="o"><path transform="translate(5,10)" class="S sf" d="M1300 1062 L1429 933 L1429 951 L1300 1080 Z"/><path class="f5" d="M1300 1062 L1429 933 L1429 951 L1300 1080 Z" /></g><g class="o"><path transform="translate(4,8)" class="S ssh" d="M1888 1653 L2091 1450 L2107 1450 L1904 1653 Z"/><path class="sh5" d="M1888 1653 L2091 1450 L2107 1450 L1904 1653 Z" /></g><g class="o"><path transform="translate(4,8)" class="S ssv" d="M1409 1050 L2132 1773 L2132 1789 L1409 1066 Z"/><path class="sv1" d="M1409 1050 L2132 1773 L2132 1789 L1409 1066 Z" /></g><g class="o"><path transform="translate(2,4)" class="S sfv" d="M1640 1473 L2195 2028 L2195 2060 L1640 1505 Z"/><path class="fv2" d="M1640 1473 L2195 2028 L2195 2060 L1640 1505 Z" /></g><g class="o"><path transform="translate(2,4)" class="S ssv" d="M1913 1516 L2162 1765 L2162 1777 L1913 1528 Z"/><path class="sv6" d="M1913 1516 L2162 1765 L2162 1777 L1913 1528 Z" /></g><g class="o"><path transform="translate(7,14)" class="S sfh" d="M1288 1433 L1526 1671 L1554 1671 L1316 1433 Z"/><path class="fh5" d="M1288 1433 L1526 1671 L1554 1671 L1316 1433 Z" /></g><g class="o"><path transform="translate(9,18)" class="S sfv" d="M1237 1783 L1468 1552 L1468 1632 L1237 1863 Z"/><path class="fv1" d="M1237 1783 L1468 1552 L1468 1632 L1237 1863 Z" /></g><g class="o"><path transform="translate(2,4)" class="S sfh" d="M1090 1201 L1199 1310 L1217 1310 L1108 1201 Z"/><path class="fh6" d="M1090 1201 L1199 1310 L1217 1310 L1108 1201 Z" /></g><g class="o"><path transform="translate(7,14)" class="S sfv" d="M1319 1662 L1805 2148 L1805 2166 L1319 1680 Z"/><path class="fv6" d="M1319 1662 L1805 2148 L1805 2166 L1319 1680 Z" /></g><g class="o"><path transform="translate(5,10)" class="S sfv" d="M1467 1093 L1794 766 L1794 802 L1467 1129 Z"/><path class="fv5" d="M1467 1093 L1794 766 L1794 802 L1467 1129 Z" /></g><g class="o"><path transform="translate(8,16)" class="S sfh" d="M1469 1694 L1739 1424 L1755 1424 L1485 1694 Z"/><path class="fh3" d="M1469 1694 L1739 1424 L1755 1424 L1485 1694 Z" /></g><g class="o"><path transform="translate(5,10)" class="S sfh" d="M961 1869 L1104 1726 L1142 1726 L999 1869 Z"/><path class="fh2" d="M961 1869 L1104 1726 L1142 1726 L999 1869 Z" /></g><g class="o"><path transform="translate(2,4)" class="S ssh" d="M985 1796 L1101 1680 L1133 1680 L1017 1796 Z"/><path class="sh5" d="M985 1796 L1101 1680 L1133 1680 L1017 1796 Z" /></g><g class="o"><path transform="translate(9,18)" class="S sfh" d="M1932 1821 L2053 1700 L2093 1700 L1972 1821 Z"/><path class="fh6" d="M1932 1821 L2053 1700 L2093 1700 L1972 1821 Z" /></g><g class="o"><path transform="translate(8,16)" class="S sfv" d="M1210 1626 L1445 1391 L1445 1409 L1210 1644 Z"/><path class="fv1" d="M1210 1626 L1445 1391 L1445 1409 L1210 1644 Z" /></g><g class="o"><path transform="translate(9,18)" class="S sf" d="M992 1693 L1586 1099 L1586 1123 L992 1717 Z"/><path class="f5" d="M992 1693 L1586 1099 L1586 1123 L992 1717 Z" /></g><g class="o"><path transform="translate(4,8)" class="S sfv" d="M1085 2013 L1322 2250 L1322 2268 L1085 2031 Z"/><path class="fv2" d="M1085 2013 L1322 2250 L1322 2268 L1085 2031 Z" /></g><g class="o"><path transform="translate(5,10)" class="S ssh" d="M1031 1017 L1136 1122 L1168 1122 L1063 1017 Z"/><path class="sh3" d="M1031 1017 L1136 1122 L1168 1122 L1063 1017 Z" /></g><g class="o"><path transform="translate(7,14)" class="S sfv" d="M1791 1157 L2037 911 L2037 937 L1791 1183 Z"/><path class="fv5" d="M1791 1157 L2037 911 L2037 937 L1791 1183 Z" /></g><g class="o"><path transform="translate(4,8)" class="S sfv" d="M1215 1259 L1390 1434 L1390 1468 L1215 1293 Z"/><path class="fv5" d="M1215 1259 L1390 1434 L1390 1468 L1215 1293 Z" /></g><g class="o"><path transform="translate(7,14)" class="S sf" d="M1651 1850 L1785 1716 L1815 1716 L1681 1850 Z"/><path class="f2" d="M1651 1850 L1785 1716 L1815 1716 L1681 1850 Z" /></g><g class="o"><path transform="translate(3,6)" class="S ssh" d="M1643 1743 L2099 2199 L2125 2199 L1669 1743 Z"/><path class="sh2" d="M1643 1743 L2099 2199 L2125 2199 L1669 1743 Z" /></g><g class="o"><path transform="translate(7,14)" class="S sfh" d="M1107 1063 L1377 793 L1473 793 L1203 1063 Z"/><path class="fh7" d="M1107 1063 L1377 793 L1473 793 L1203 1063 Z" /></g><g class="o"><path transform="translate(3,6)" class="S sf" d="M1061 991 L1199 853 L1211 853 L1073 991 Z"/><path class="f2" d="M1061 991 L1199 853 L1211 853 L1073 991 Z" /></g><g class="o"><path transform="translate(2,4)" class="S sfv" d="M1489 1701 L1600 1812 L1600 1840 L1489 1729 Z"/><path class="fv3" d="M1489 1701 L1600 1812 L1600 1840 L1489 1729 Z" /></g><g class="o"><path transform="translate(9,18)" class="S sfv" d="M1155 1384 L1376 1163 L1376 1183 L1155 1404 Z"/><path class="fv2" d="M1155 1384 L1376 1163 L1376 1183 L1155 1404 Z" /></g><g class="o"><path transform="translate(7,14)" class="S sf" d="M1149 1431 L1305 1275 L1325 1275 L1169 1431 Z"/><path class="f6" d="M1149 1431 L1305 1275 L1325 1275 L1169 1431 Z" /></g><g class="o"><path transform="translate(5,10)" class="S ssv" d="M1061 1043 L1290 814 L1290 836 L1061 1065 Z"/><path class="sv1" d="M1061 1043 L1290 814 L1290 836 L1061 1065 Z" /></g><g class="o"><path transform="translate(3,6)" class="S sfh" d="M1403 1691 L1598 1496 L1630 1496 L1435 1691 Z"/><path class="fh3" d="M1403 1691 L1598 1496 L1630 1496 L1435 1691 Z" /></g><g class="o"><path transform="translate(7,14)" class="S sf" d="M1848 1931 L2009 2092 L2009 2124 L1848 1963 Z"/><path class="f3" d="M1848 1931 L2009 2092 L2009 2124 L1848 1963 Z" /></g><g class="o"><path transform="translate(8,16)" class="S sfh" d="M1512 1423 L1686 1249 L1750 1249 L1576 1423 Z"/><path class="fh4" d="M1512 1423 L1686 1249 L1750 1249 L1576 1423 Z" /></g><g class="o"><path transform="translate(7,14)" class="S sfv" d="M1331 1048 L1685 1402 L1685 1428 L1331 1074 Z"/><path class="fv4" d="M1331 1048 L1685 1402 L1685 1428 L1331 1074 Z" /></g><g class="o"><path transform="translate(3,6)" class="S ssv" d="M1800 1662 L1925 1787 L1925 1819 L1800 1694 Z"/><path class="sv1" d="M1800 1662 L1925 1787 L1925 1819 L1800 1694 Z" /></g><g class="o"><path transform="translate(5,10)" class="S ssh" d="M948 1467 L1593 822 L1617 822 L972 1467 Z"/><path class="sh7" d="M948 1467 L1593 822 L1617 822 L972 1467 Z" /></g><g class="o"><path transform="translate(5,10)" class="S sfv" d="M1899 1943 L2142 2186 L2142 2204 L1899 1961 Z"/><path class="fv2" d="M1899 1943 L2142 2186 L2142 2204 L1899 1961 Z" /></g><g class="o"><path transform="translate(5,10)" class="S sfh" d="M961 1226 L1171 1016 L1195 1016 L985 1226 Z"/><path class="fh6" d="M961 1226 L1171 1016 L1195 1016 L985 1226 Z" /></g><g class="o"><path transform="translate(7,14)" class="S sf" d="M1381 1812 L1897 2328 L1897 2358 L1381 1842 Z"/><path class="f6" d="M1381 1812 L1897 2328 L1897 2358 L1381 1842 Z" /></g><g class="o"><path transform="translate(2,4)" class="S sfv" d="M1326 1521 L1509 1338 L1509 1354 L1326 1537 Z"/><path class="fv3" d="M1326 1521 L1509 1338 L1509 1354 L1326 1537 Z" /></g><g class="o"><path transform="translate(3,6)" class="S sfv" d="M1307 1900 L2012 1195 L2012 1323 L1307 2028 Z"/><path class="fv3" d="M1307 1900 L2012 1195 L2012 1323 L1307 2028 Z" /></g><g class="o"><path transform="translate(6,12)" class="S sfh" d="M1257 1388 L1405 1240 L1441 1240 L1293 1388 Z"/><path class="fh5" d="M1257 1388 L1405 1240 L1441 1240 L1293 1388 Z" /></g><g class="o"><path transform="translate(7,14)" class="S sf" d="M1905 1004 L2223 686 L2223 718 L1905 1036 Z"/><path class="f1" d="M1905 1004 L2223 686 L2223 718 L1905 1036 Z" /></g><g class="o"><path transform="translate(9,18)" class="S sfh" d="M1602 1895 L1674 1823 L1696 1823 L1624 1895 Z"/><path class="fh2" d="M1602 1895 L1674 1823 L1696 1823 L1624 1895 Z" /></g><g class="o"><path transform="translate(6,12)" class="S sfv" d="M1601 1287 L1736 1422 L1736 1456 L1601 1321 Z"/><path class="fv3" d="M1601 1287 L1736 1422 L1736 1456 L1601 1321 Z" /></g><g class="o"><path transform="translate(6,12)" class="S sfh" d="M1893 1545 L2130 1782 L2168 1782 L1931 1545 Z"/><path class="fh3" d="M1893 1545 L2130 1782 L2168 1782 L1931 1545 Z" /></g><g class="o"><path transform="translate(3,6)" class="S sf" d="M1013 1673 L1310 1376 L1310 1402 L1013 1699 Z"/><path class="f5" d="M1013 1673 L1310 1376 L1310 1402 L1013 1699 Z" /></g><g class="o"><path transform="translate(7,14)" class="S sfv" d="M1321 1396 L1816 901 L1816 923 L1321 1418 Z"/><path class="fv3" d="M1321 1396 L1816 901 L1816 923 L1321 1418 Z" /></g><g class="o"><path transform="translate(7,14)" class="S sf" d="M1745 1768 L1921 1592 L1921 1624 L1745 1800 Z"/><path class="f6" d="M1745 1768 L1921 1592 L1921 1624 L1745 1800 Z" /></g><g class="o"><path transform="translate(7,14)" class="S ss" d="M1842 1018 L2050 810 L2050 838 L1842 1046 Z"/><path class="s1" d="M1842 1018 L2050 810 L2050 838 L1842 1046 Z" /></g><g class="o"><path transform="translate(6,12)" class="S sfv" d="M1599 1765 L2163 1201 L2163 1215 L1599 1779 Z"/><path class="fv4" d="M1599 1765 L2163 1201 L2163 1215 L1599 1779 Z" /></g><g class="o"><path transform="translate(6,12)" class="S ssv" d="M1173 1623 L1587 1209 L1587 1235 L1173 1649 Z"/><path class="sv1" d="M1173 1623 L1587 1209 L1587 1235 L1173 1649 Z" /></g><g class="o"><path transform="translate(5,10)" class="S sfh" d="M1107 953 L1602 1448 L1630 1448 L1135 953 Z"/><path class="fh4" d="M1107 953 L1602 1448 L1630 1448 L1135 953 Z" /></g><g class="o"><path transform="translate(8,16)" class="S sfh" d="M1604 1839 L1837 2072 L1847 2072 L1614 1839 Z"/><path class="fh3" d="M1604 1839 L1837 2072 L1847 2072 L1614 1839 Z" /></g><g class="o"><path transform="translate(6,12)" class="S sfh" d="M1027 1898 L1193 1732 L1215 1732 L1049 1898 Z"/><path class="fh7" d="M1027 1898 L1193 1732 L1215 1732 L1049 1898 Z" /></g><g class="o"><path transform="translate(2,4)" class="S sfv" d="M972 1192 L1620 1840 L1620 1866 L972 1218 Z"/><path class="fv3" d="M972 1192 L1620 1840 L1620 1866 L972 1218 Z" /></g><g class="o"><path transform="translate(3,6)" class="S sf" d="M1420 1138 L1699 1417 L1699 1429 L1420 1150 Z"/><path class="f7" d="M1420 1138 L1699 1417 L1699 1429 L1420 1150 Z" /></g><g class="o"><path transform="translate(9,18)" class="S ssv" d="M1915 1222 L2135 1002 L2135 1138 L1915 1358 Z"/><path class="sv5" d="M1915 1222 L2135 1002 L2135 1138 L1915 1358 Z" /></g><g class="o"><path transform="translate(2,4)" class="S sf" d="M1846 1049 L2176 719 L2206 719 L1876 1049 Z"/><path class="f3" d="M1846 1049 L2176 719 L2206 719 L1876 1049 Z" /></g><g class="o"><path transform="translate(7,14)" class="S sfh" d="M1546 1001 L2065 1520 L2095 1520 L1576 1001 Z"/><path class="fh3" d="M1546 1001 L2065 1520 L2095 1520 L1576 1001 Z" /></g><g class="o"><path transform="translate(5,10)" class="S sfv" d="M1606 1970 L2005 1571 L2005 1595 L1606 1994 Z"/><path class="fv6" d="M1606 1970 L2005 1571 L2005 1595 L1606 1994 Z" /></g><g class="o"><path transform="translate(8,16)" class="S sfh" d="M1722 1961 L1970 2209 L2006 2209 L1758 1961 Z"/><path class="fh5" d="M1722 1961 L1970 2209 L2006 2209 L1758 1961 Z" /></g><g class="o"><path transform="translate(9,18)" class="S sfv" d="M1395 1030 L1582 1217 L1582 1233 L1395 1046 Z"/><path class="fv7" d="M1395 1030 L1582 1217 L1582 1233 L1395 1046 Z" /></g><g class="o"><path transform="translate(5,10)" class="S sfv" d="M1276 1619 L1352 1695 L1352 1725 L1276 1649 Z"/><path class="fv4" d="M1276 1619 L1352 1695 L1352 1725 L1276 1649 Z" /></g><g class="o"><path transform="translate(6,12)" class="S ssh" d="M1072 1025 L1129 1082 L1157 1082 L1100 1025 Z"/><path class="sh7" d="M1072 1025 L1129 1082 L1157 1082 L1100 1025 Z" /></g><g class="o"><path transform="translate(3,6)" class="S sfh" d="M1491 1157 L1677 971 L1711 971 L1525 1157 Z"/><path class="fh3" d="M1491 1157 L1677 971 L1711 971 L1525 1157 Z" /></g><g class="o"><path transform="translate(9,18)" class="S sfv" d="M1139 1025 L1547 617 L1547 653 L1139 1061 Z"/><path class="fv1" d="M1139 1025 L1547 617 L1547 653 L1139 1061 Z" /></g><g class="o"><path transform="translate(8,16)" class="S sfh" d="M1678 1783 L1754 1707 L1762 1707 L1686 1783 Z"/><path class="fh1" d="M1678 1783 L1754 1707 L1762 1707 L1686 1783 Z" /></g><g class="o"><path transform="translate(8,16)" class="S sfh" d="M1803 1820 L2038 2055 L2046 2055 L1811 1820 Z"/><path class="fh7" d="M1803 1820 L2038 2055 L2046 2055 L1811 1820 Z" /></g><g class="o"><path transform="translate(7,14)" class="S sfh" d="M1139 1483 L1382 1240 L1404 1240 L1161 1483 Z"/><path class="fh3" d="M1139 1483 L1382 1240 L1404 1240 L1161 1483 Z" /></g><g class="o"><path transform="translate(5,10)" class="S sf" d="M1383 1113 L1433 1163 L1577 1163 L1527 1113 Z"/><path class="f4" d="M1383 1113 L1433 1163 L1577 1163 L1527 1113 Z" /></g><g class="o"><path transform="translate(3,6)" class="S sfv" d="M1289 952 L2006 1669 L2006 1701 L1289 984 Z"/><path class="fv5" d="M1289 952 L2006 1669 L2006 1701 L1289 984 Z" /></g><g class="o"><path transform="translate(2,4)" class="S sfv" d="M1273 1471 L1395 1593 L1395 1625 L1273 1503 Z"/><path class="fv6" d="M1273 1471 L1395 1593 L1395 1625 L1273 1503 Z" /></g><g class="o"><path transform="translate(5,10)" class="S sfv" d="M1901 1960 L2645 1216 L2645 1244 L1901 1988 Z"/><path class="fv4" d="M1901 1960 L2645 1216 L2645 1244 L1901 1988 Z" /></g><g class="o"><path transform="translate(9,18)" class="S sfv" d="M1518 1090 L1684 924 L1684 944 L1518 1110 Z"/><path class="fv7" d="M1518 1090 L1684 924 L1684 944 L1518 1110 Z" /></g><g class="o"><path transform="translate(9,18)" class="S sfv" d="M959 1933 L1412 1480 L1412 1494 L959 1947 Z"/><path class="fv2" d="M959 1933 L1412 1480 L1412 1494 L959 1947 Z" /></g><g class="o"><path transform="translate(4,8)" class="S ssv" d="M1328 1388 L1516 1200 L1516 1220 L1328 1408 Z"/><path class="sv4" d="M1328 1388 L1516 1200 L1516 1220 L1328 1408 Z" /></g><g class="o"><path transform="translate(3,6)" class="S sfh" d="M1934 1985 L2089 2140 L2129 2140 L1974 1985 Z"/><path class="fh1" d="M1934 1985 L2089 2140 L2129 2140 L1974 1985 Z" /></g><g class="o"><path transform="translate(4,8)" class="S ssh" d="M1667 1269 L2087 1689 L2121 1689 L1701 1269 Z"/><path class="sh1" d="M1667 1269 L2087 1689 L2121 1689 L1701 1269 Z" /></g><g class="o"><path transform="translate(5,10)" class="S sfh" d="M1752 1959 L1964 1747 L1976 1747 L1764 1959 Z"/><path class="fh1" d="M1752 1959 L1964 1747 L1976 1747 L1764 1959 Z" /></g><g class="o"><path transform="translate(4,8)" class="S sf" d="M2037 1984 L2556 2503 L2556 2521 L2037 2002 Z"/><path class="f6" d="M2037 1984 L2556 2503 L2556 2521 L2037 2002 Z" /></g><g class="o"><path transform="translate(6,12)" class="S sfv" d="M1758 1744 L2253 1249 L2253 1283 L1758 1778 Z"/><path class="fv4" d="M1758 1744 L2253 1249 L2253 1283 L1758 1778 Z" /></g><g class="o"><path transform="translate(5,10)" class="S sfv" d="M1566 1034 L1655 1123 L1655 1153 L1566 1064 Z"/><path class="fv3" d="M1566 1034 L1655 1123 L1655 1153 L1566 1064 Z" /></g><g class="o"><path transform="translate(2,4)" class="S sfh" d="M1870 1288 L2046 1464 L2074 1464 L1898 1288 Z"/><path class="fh6" d="M1870 1288 L2046 1464 L2074 1464 L1898 1288 Z" /></g><g class="o"><path transform="translate(4,8)" class="S ssh" d="M1216 1688 L1418 1486 L1452 1486 L1250 1688 Z"/><path class="sh1" d="M1216 1688 L1418 1486 L1452 1486 L1250 1688 Z" /></g><g class="o"><path transform="translate(4,8)" class="S sf" d="M1378 1808 L1498 1688 L1508 1688 L1388 1808 Z"/><path class="f4" d="M1378 1808 L1498 1688 L1508 1688 L1388 1808 Z" /></g><g class="o"><path transform="translate(3,6)" class="S ssh" d="M1159 1402 L1214 1457 L1236 1457 L1181 1402 Z"/><path class="sh7" d="M1159 1402 L1214 1457 L1236 1457 L1181 1402 Z" /></g><g class="o"><path transform="translate(8,16)" class="S ssv" d="M1397 1896 L1623 2122 L1623 2144 L1397 1918 Z"/><path class="sv3" d="M1397 1896 L1623 2122 L1623 2144 L1397 1918 Z" /></g><g class="o"><path transform="translate(2,4)" class="S sfh" d="M1618 1226 L2071 1679 L2103 1679 L1650 1226 Z"/><path class="fh7" d="M1618 1226 L2071 1679 L2103 1679 L1650 1226 Z" /></g><g class="o"><path transform="translate(8,16)" class="S ss" d="M963 1652 L1707 908 L1707 918 L963 1662 Z"/><path class="s7" d="M963 1652 L1707 908 L1707 918 L963 1662 Z" /></g><g class="o"><path transform="translate(7,14)" class="S sfh" d="M1192 1843 L1921 2572 L2073 2572 L1344 1843 Z"/><path class="fh6" d="M1192 1843 L1921 2572 L2073 2572 L1344 1843 Z" /></g><g class="o"><path transform="translate(9,18)" class="S sfh" d="M1685 1948 L2255 1378 L2273 1378 L1703 1948 Z"/><path class="fh7" d="M1685 1948 L2255 1378 L2273 1378 L1703 1948 Z" /></g><g class="o"><path transform="translate(5,10)" class="S sfh" d="M1776 2003 L2187 1592 L2213 1592 L1802 2003 Z"/><path class="fh3" d="M1776 2003 L2187 1592 L2213 1592 L1802 2003 Z" /></g><g class="o"><path transform="translate(5,10)" class="S ssh" d="M1460 1989 L1615 1834 L1651 1834 L1496 1989 Z"/><path class="sh1" d="M1460 1989 L1615 1834 L1651 1834 L1496 1989 Z" /></g><g class="o"><path transform="translate(9,18)" class="S sfv" d="M1616 1196 L1819 993 L1819 1025 L1616 1228 Z"/><path class="fv7" d="M1616 1196 L1819 993 L1819 1025 L1616 1228 Z" /></g><g class="o"><path transform="translate(3,6)" class="S ss" d="M1403 1831 L1593 1641 L1621 1641 L1431 1831 Z"/><path class="s3" d="M1403 1831 L1593 1641 L1621 1641 L1431 1831 Z" /></g><g class="o"><path transform="translate(6,12)" class="S ssh" d="M1791 1675 L1894 1572 L1914 1572 L1811 1675 Z"/><path class="sh5" d="M1791 1675 L1894 1572 L1914 1572 L1811 1675 Z" /></g><g class="o"><path transform="translate(3,6)" class="S sf" d="M1369 1974 L1457 1886 L1457 1908 L1369 1996 Z"/><path class="f5" d="M1369 1974 L1457 1886 L1457 1908 L1369 1996 Z" /></g><g class="o"><path transform="translate(2,4)" class="S sfv" d="M1276 1965 L1358 1883 L1358 1987 L1276 2069 Z"/><path class="fv2" d="M1276 1965 L1358 1883 L1358 1987 L1276 2069 Z" /></g><g class="o"><path transform="translate(6,12)" class="S sfh" d="M1316 1452 L1509 1259 L1533 1259 L1340 1452 Z"/><path class="fh1" d="M1316 1452 L1509 1259 L1533 1259 L1340 1452 Z" /></g><g class="o"><path transform="translate(8,16)" class="S sf" d="M1748 1557 L2354 951 L2354 1071 L1748 1677 Z"/><path class="f4" d="M1748 1557 L2354 951 L2354 1071 L1748 1677 Z" /></g><g class="o"><path transform="translate(2,4)" class="S sf" d="M1458 1065 L1675 1282 L1699 1282 L1482 1065 Z"/><path class="f5" d="M1458 1065 L1675 1282 L1699 1282 L1482 1065 Z" /></g><g class="o"><path transform="translate(7,14)" class="S sfh" d="M1933 1215 L2230 918 L2250 918 L1953 1215 Z"/><path class="fh2" d="M1933 1215 L2230 918 L2250 918 L1953 1215 Z" /></g><g class="o"><path transform="translate(5,10)" class="S sfv" d="M1735 1297 L2041 1603 L2041 1635 L1735 1329 Z"/><path class="fv4" d="M1735 1297 L2041 1603 L2041 1635 L1735 1329 Z" /></g><g class="o"><path transform="translate(7,14)" class="S sfv" d="M1340 1863 L1544 2067 L1544 2105 L1340 1901 Z"/><path class="fv5" d="M1340 1863 L1544 2067 L1544 2105 L1340 1901 Z" /></g><g class="o"><path transform="translate(8,16)" class="S sfv" d="M1608 1572 L1780 1400 L1780 1436 L1608 1608 Z"/><path class="fv1" d="M1608 1572 L1780 1400 L1780 1436 L1608 1608 Z" /></g><g class="o"><path transform="translate(2,4)" class="S ssh" d="M1844 1667 L1916 1739 L1944 1739 L1872 1667 Z"/><path class="sh7" d="M1844 1667 L1916 1739 L1944 1739 L1872 1667 Z" /></g><g class="o"><path transform="translate(9,18)" class="S sf" d="M1818 1777 L2394 2353 L2394 2481 L1818 1905 Z"/><path class="f5" d="M1818 1777 L2394 2353 L2394 2481 L1818 1905 Z" /></g><g class="o"><path transform="translate(6,12)" class="S sf" d="M1463 1812 L1625 1974 L1625 2002 L1463 1840 Z"/><path class="f4" d="M1463 1812 L1625 1974 L1625 2002 L1463 1840 Z" /></g><g class="o"><path transform="translate(2,4)" class="S sfh" d="M965 1230 L1415 1680 L1447 1680 L997 1230 Z"/><path class="fh2" d="M965 1230 L1415 1680 L1447 1680 L997 1230 Z" /></g><g class="o"><path transform="translate(5,10)" class="S sfv" d="M1576 1440 L2242 774 L2242 808 L1576 1474 Z"/><path class="fv2" d="M1576 1440 L2242 774 L2242 808 L1576 1474 Z" /></g><g class="o"><path transform="translate(5,10)" class="S sfh" d="M1927 1829 L2052 1704 L2156 1704 L2031 1829 Z"/><path class="fh5" d="M1927 1829 L2052 1704 L2156 1704 L2031 1829 Z" /></g><g class="o"><path transform="translate(8,16)" class="S sfv" d="M1147 1068 L1873 1794 L1873 1898 L1147 1172 Z"/><path class="fv2" d="M1147 1068 L1873 1794 L1873 1898 L1147 1172 Z" /></g><g class="o"><path transform="translate(4,8)" class="S sfh" d="M1970 1404 L2171 1203 L2183 1203 L1982 1404 Z"/><path class="fh6" d="M1970 1404 L2171 1203 L2183 1203 L1982 1404 Z" /></g><g class="o"><path transform="translate(7,14)" class="S sf" d="M1804 974 L2431 347 L2431 369 L1804 996 Z"/><path class="f6" d="M1804 974 L2431 347 L2431 369 L1804 996 Z" /></g><g class="o"><path transform="translate(6,12)" class="S sfv" d="M1975 1442 L2166 1251 L2166 1259 L1975 1450 Z"/><path class="fv4" d="M1975 1442 L2166 1251 L2166 1259 L1975 1450 Z" /></g><g class="o"><path transform="translate(2,4)" class="S sfv" d="M1104 1527 L1323 1746 L1323 1778 L1104 1559 Z"/><path class="fv6" d="M1104 1527 L1323 1746 L1323 1778 L1104 1559 Z" /></g><g class="o"><path transform="translate(5,10)" class="S ssv" d="M1414 1660 L1595 1841 L1595 1855 L1414 1674 Z"/><path class="sv4" d="M1414 1660 L1595 1841 L1595 1855 L1414 1674 Z" /></g><g class="o"><path transform="translate(3,6)" class="S ss" d="M1953 1060 L2574 1681 L2596 1681 L1975 1060 Z"/><path class="s5" d="M1953 1060 L2574 1681 L2596 1681 L1975 1060 Z" /></g><g class="o"><path transform="translate(9,18)" class="S ssh" d="M1747 1632 L2188 1191 L2222 1191 L1781 1632 Z"/><path class="sh7" d="M1747 1632 L2188 1191 L2222 1191 L1781 1632 Z" /></g><g class="o"><path transform="translate(9,18)" class="S sf" d="M1099 1684 L1286 1871 L1324 1871 L1137 1684 Z"/><path class="f4" d="M1099 1684 L1286 1871 L1324 1871 L1137 1684 Z" /></g></g><use href="#slashes" transform-origin="1500 1500" transform="rotate(180) scale(2)"/></g><rect x="1080" y="1080" width="840" height="840" stroke-width="40" class="o fs" /><use href="#slashes" transform-origin="1500 1500" transform="scale(.6)"/><use href="#slashes" transform-origin="1500 1500" transform="rotate(180) scale(.6)"/></svg>