<svg xmlns="http://www.w3.org/2000/svg" viewBox="750 750 1500 1500"><style>/*<![CDATA[*/svg{background:rgb(38,1,1);max-width:100vw;max-height:100vh}path{stroke-width:4}.o{opacity:.75}.S{opacity:.4}.sf{stroke:none;fill:black}.sfh{stroke:none;fill:url(#hs)}.sfv{stroke:none;fill:url(#vs)}.ss{stroke:black;fill:none}.ssh{stroke:url(#hs);fill:none}.ssv{stroke:url(#vs);fill:none}.s1{fill:none;stroke:rgb(242,220,155)}.f1{stroke:none;fill:rgb(242,220,155)}.sh1{fill:none;stroke:url(#h1)}.fh1{stroke:none;fill:url(#h1)}.sv1{fill:none;stroke:url(#v1)}.fv1{stroke:none;fill:url(#v1)}.s2{fill:none;stroke:rgb(34,34,34)}.f2{stroke:none;fill:rgb(34,34,34)}.sh2{fill:none;stroke:url(#h2)}.fh2{stroke:none;fill:url(#h2)}.sv2{fill:none;stroke:url(#v2)}.fv2{stroke:none;fill:url(#v2)}.s3{fill:none;stroke:rgb(144,144,144)}.f3{stroke:none;fill:rgb(144,144,144)}.sh3{fill:none;stroke:url(#h3)}.fh3{stroke:none;fill:url(#h3)}.sv3{fill:none;stroke:url(#v3)}.fv3{stroke:none;fill:url(#v3)}.s4{fill:none;stroke:rgb(13,13,13)}.f4{stroke:none;fill:rgb(13,13,13)}.sh4{fill:none;stroke:url(#h4)}.fh4{stroke:none;fill:url(#h4)}.sv4{fill:none;stroke:url(#v4)}.fv4{stroke:none;fill:url(#v4)}.s5{fill:none;stroke:rgb(107,107,107)}.f5{stroke:none;fill:rgb(107,107,107)}.sh5{fill:none;stroke:url(#h5)}.fh5{stroke:none;fill:url(#h5)}.sv5{fill:none;stroke:url(#v5)}.fv5{stroke:none;fill:url(#v5)}.s6{fill:none;stroke:rgb(255,255,255)}.f6{stroke:none;fill:rgb(255,255,255)}.sh6{fill:none;stroke:url(#h6)}.fh6{stroke:none;fill:url(#h6)}.sv6{fill:none;stroke:url(#v6)}.fv6{stroke:none;fill:url(#v6)}.s7{fill:none;stroke:rgb(255,0,0)}.f7{stroke:none;fill:rgb(255,0,0)}.sh7{fill:none;stroke:url(#h7)}.fh7{stroke:none;fill:url(#h7)}.sv7{fill:none;stroke:url(#v7)}.fv7{stroke:none;fill:url(#v7)}/*]]>*/</style><defs><linearGradient gradientTransform="rotate(90)" id="hs"><stop offset="20%" stop-color="#000" /><stop offset="95%" stop-color="rgba(0, 0, 0, 0)" /></linearGradient><linearGradient id="vs"><stop offset="20%" stop-color="#000" /><stop offset="95%" stop-color="rgba(0, 0, 0, 0)" /></linearGradient><linearGradient gradientTransform="rotate(90)" id="h1"><stop offset="20%" stop-color="rgba(242,220,155,1)" /><stop offset="95%" stop-color="rgba(242,220,155,0)" /></linearGradient><linearGradient id="v1"><stop offset="20%" stop-color="rgba(242,220,155,1)" /><stop offset="95%" stop-color="rgba(242,220,155,0)" /></linearGradient><linearGradient gradientTransform="rotate(90)" id="h2"><stop offset="20%" stop-color="rgba(34,34,34,1)" /><stop offset="95%" stop-color="rgba(34,34,34,0)" /></linearGradient><linearGradient id="v2"><stop offset="20%" stop-color="rgba(34,34,34,1)" /><stop offset="95%" stop-color="rgba(34,34,34,0)" /></linearGradient><linearGradient gradientTransform="rotate(90)" id="h3"><stop offset="20%" stop-color="rgba(144,144,144,1)" /><stop offset="95%" stop-color="rgba(144,144,144,0)" /></linearGradient><linearGradient id="v3"><stop offset="20%" stop-color="rgba(144,144,144,1)" /><stop offset="95%" stop-color="rgba(144,144,144,0)" /></linearGradient><linearGradient gradientTransform="rotate(90)" id="h4"><stop offset="20%" stop-color="rgba(13,13,13,1)" /><stop offset="95%" stop-color="rgba(13,13,13,0)" /></linearGradient><linearGradient id="v4"><stop offset="20%" stop-color="rgba(13,13,13,1)" /><stop offset="95%" stop-color="rgba(13,13,13,0)" /></linearGradient><linearGradient gradientTransform="rotate(90)" id="h5"><stop offset="20%" stop-color="rgba(107,107,107,1)" /><stop offset="95%" stop-color="rgba(107,107,107,0)" /></linearGradient><linearGradient id="v5"><stop offset="20%" stop-color="rgba(107,107,107,1)" /><stop offset="95%" stop-color="rgba(107,107,107,0)" /></linearGradient><linearGradient gradientTransform="rotate(90)" id="h6"><stop offset="20%" stop-color="rgba(255,255,255,1)" /><stop offset="95%" stop-color="rgba(255,255,255,0)" /></linearGradient><linearGradient id="v6"><stop offset="20%" stop-color="rgba(255,255,255,1)" /><stop offset="95%" stop-color="rgba(255,255,255,0)" /></linearGradient><linearGradient gradientTransform="rotate(90)" id="h7"><stop offset="20%" stop-color="rgba(255,0,0,1)" /><stop offset="95%" stop-color="rgba(255,0,0,0)" /></linearGradient><linearGradient id="v7"><stop offset="20%" stop-color="rgba(255,0,0,1)" /><stop offset="95%" stop-color="rgba(255,0,0,0)" /></linearGradient></defs><g transform-origin="1500 1500" transform="scale(2)" opacity=".6"><g id="slashes"><g class="o"><path transform="translate(9,18)" class="S sf" d="M1134 1606 L1358 1382 L1358 1404 L1134 1628 Z"/><path class="f7" d="M1134 1606 L1358 1382 L1358 1404 L1134 1628 Z" /></g><g class="o"><path transform="translate(7,14)" class="S sf" d="M1066 943 L1265 744 L1265 762 L1066 961 Z"/><path class="f7" d="M1066 943 L1265 744 L1265 762 L1066 961 Z" /></g><g class="o"><path transform="translate(3,6)" class="S sf" d="M1302 1572 L1424 1450 L1424 1476 L1302 1598 Z"/><path class="f2" d="M1302 1572 L1424 1450 L1424 1476 L1302 1598 Z" /></g><g class="o"><path transform="translate(2,4)" class="S sf" d="M1304 1523 L1466 1361 L1466 1373 L1304 1535 Z"/><path class="f1" d="M1304 1523 L1466 1361 L1466 1373 L1304 1535 Z" /></g><g class="o"><path transform="translate(4,8)" class="S sf" d="M1655 1463 L1757 1361 L1781 1361 L1679 1463 Z"/><path class="f7" d="M1655 1463 L1757 1361 L1781 1361 L1679 1463 Z" /></g><g class="o"><path transform="translate(5,10)" class="S sf" d="M1057 1621 L1306 1372 L1306 1390 L1057 1639 Z"/><path class="f4" d="M1057 1621 L1306 1372 L1306 1390 L1057 1639 Z" /></g><g class="o"><path transform="translate(8,16)" class="S sf" d="M1678 2017 L1884 1811 L1884 1843 L1678 2049 Z"/><path class="f4" d="M1678 2017 L1884 1811 L1884 1843 L1678 2049 Z" /></g><g class="o"><path transform="translate(5,10)" class="S sf" d="M1815 1133 L2058 890 L2076 890 L1833 1133 Z"/><path class="f2" d="M1815 1133 L2058 890 L2076 890 L1833 1133 Z" /></g><g class="o"><path transform="translate(4,8)" class="S sf" d="M1894 1752 L2011 1635 L2027 1635 L1910 1752 Z"/><path class="f4" d="M1894 1752 L2011 1635 L2027 1635 L1910 1752 Z" /></g><g class="o"><path transform="translate(5,10)" class="S sf" d="M1406 1636 L1623 1419 L1655 1419 L1438 1636 Z"/><path class="f1" d="M1406 1636 L1623 1419 L1655 1419 L1438 1636 Z" /></g><g class="o"><path transform="translate(4,8)" class="S sf" d="M1628 1189 L1732 1085 L1732 1119 L1628 1223 Z"/><path class="f7" d="M1628 1189 L1732 1085 L1732 1119 L1628 1223 Z" /></g><g class="o"><path transform="translate(2,4)" class="S sf" d="M1352 1680 L1676 1356 L1710 1356 L1386 1680 Z"/><path class="f5" d="M1352 1680 L1676 1356 L1710 1356 L1386 1680 Z" /></g><g class="o"><path transform="translate(8,16)" class="S sf" d="M1501 1539 L1569 1471 L1569 1481 L1501 1549 Z"/><path class="f3" d="M1501 1539 L1569 1471 L1569 1481 L1501 1549 Z" /></g><g class="o"><path transform="translate(6,12)" class="S ss" d="M1813 1470 L1959 1324 L1959 1346 L1813 1492 Z"/><path class="s5" d="M1813 1470 L1959 1324 L1959 1346 L1813 1492 Z" /></g><g class="o"><path transform="translate(9,18)" class="S sf" d="M2010 1595 L2250 1355 L2268 1355 L2028 1595 Z"/><path class="f6" d="M2010 1595 L2250 1355 L2268 1355 L2028 1595 Z" /></g><g class="o"><path transform="translate(9,18)" class="S sf" d="M983 1673 L1144 1512 L1176 1512 L1015 1673 Z"/><path class="f6" d="M983 1673 L1144 1512 L1176 1512 L1015 1673 Z" /></g><g class="o"><path transform="translate(6,12)" class="S sf" d="M1850 1577 L1958 1469 L1968 1469 L1860 1577 Z"/><path class="f5" d="M1850 1577 L1958 1469 L1968 1469 L1860 1577 Z" /></g><g class="o"><path transform="translate(8,16)" class="S ss" d="M1889 1052 L2013 928 L2013 940 L1889 1064 Z"/><path class="s6" d="M1889 1052 L2013 928 L2013 940 L1889 1064 Z" /></g><g class="o"><path transform="translate(8,16)" class="S sf" d="M1486 1952 L1729 1709 L1755 1709 L1512 1952 Z"/><path class="f5" d="M1486 1952 L1729 1709 L1755 1709 L1512 1952 Z" /></g><g class="o"><path transform="translate(4,8)" class="S sf" d="M1113 1461 L1300 1274 L1300 1302 L1113 1489 Z"/><path class="f4" d="M1113 1461 L1300 1274 L1300 1302 L1113 1489 Z" /></g><g class="o"><path transform="translate(9,18)" class="S sf" d="M1358 1463 L1430 1391 L1446 1391 L1374 1463 Z"/><path class="f6" d="M1358 1463 L1430 1391 L1446 1391 L1374 1463 Z" /></g><g class="o"><path transform="translate(5,10)" class="S sf" d="M1740 1088 L1834 994 L1872 994 L1778 1088 Z"/><path class="f1" d="M1740 1088 L1834 994 L1872 994 L1778 1088 Z" /></g><g class="o"><path transform="translate(4,8)" class="S sf" d="M1257 1519 L1338 1438 L1370 1438 L1289 1519 Z"/><path class="f4" d="M1257 1519 L1338 1438 L1370 1438 L1289 1519 Z" /></g><g class="o"><path transform="translate(9,18)" class="S sf" d="M1531 1072 L1750 853 L1750 865 L1531 1084 Z"/><path class="f7" d="M1531 1072 L1750 853 L1750 865 L1531 1084 Z" /></g><g class="o"><path transform="translate(9,18)" class="S sf" d="M1402 1758 L1512 1648 L1544 1648 L1434 1758 Z"/><path class="f2" d="M1402 1758 L1512 1648 L1544 1648 L1434 1758 Z" /></g><g class="o"><path transform="translate(8,16)" class="S sf" d="M1640 1176 L1801 1015 L1815 1015 L1654 1176 Z"/><path class="f5" d="M1640 1176 L1801 1015 L1815 1015 L1654 1176 Z" /></g><g class="o"><path transform="translate(6,12)" class="S sf" d="M1431 1685 L1587 1529 L1587 1555 L1431 1711 Z"/><path class="f7" d="M1431 1685 L1587 1529 L1587 1555 L1431 1711 Z" /></g><g class="o"><path transform="translate(7,14)" class="S sf" d="M1813 2005 L2000 1818 L2016 1818 L1829 2005 Z"/><path class="f4" d="M1813 2005 L2000 1818 L2016 1818 L1829 2005 Z" /></g><g class="o"><path transform="translate(2,4)" class="S ss" d="M1552 1835 L1732 1655 L1754 1655 L1574 1835 Z"/><path class="s7" d="M1552 1835 L1732 1655 L1754 1655 L1574 1835 Z" /></g><g class="o"><path transform="translate(9,18)" class="S sf" d="M1596 1666 L1764 1498 L1764 1516 L1596 1684 Z"/><path class="f2" d="M1596 1666 L1764 1498 L1764 1516 L1596 1684 Z" /></g><g class="o"><path transform="translate(4,8)" class="S sf" d="M1845 1273 L2076 1042 L2076 1054 L1845 1285 Z"/><path class="f7" d="M1845 1273 L2076 1042 L2076 1054 L1845 1285 Z" /></g><g class="o"><path transform="translate(4,8)" class="S sf" d="M1796 1312 L1890 1218 L1914 1218 L1820 1312 Z"/><path class="f1" d="M1796 1312 L1890 1218 L1914 1218 L1820 1312 Z" /></g><g class="o"><path transform="translate(2,4)" class="S sf" d="M1225 1460 L1343 1342 L1365 1342 L1247 1460 Z"/><path class="f2" d="M1225 1460 L1343 1342 L1365 1342 L1247 1460 Z" /></g><g class="o"><path transform="translate(7,14)" class="S sf" d="M1592 1111 L1934 769 L1966 769 L1624 1111 Z"/><path class="f4" d="M1592 1111 L1934 769 L1966 769 L1624 1111 Z" /></g><g class="o"><path transform="translate(9,18)" class="S ss" d="M1251 1913 L1304 1860 L1304 1896 L1251 1949 Z"/><path class="s5" d="M1251 1913 L1304 1860 L1304 1896 L1251 1949 Z" /></g><g class="o"><path transform="translate(7,14)" class="S sf" d="M1324 2015 L1478 1861 L1478 1899 L1324 2053 Z"/><path class="f6" d="M1324 2015 L1478 1861 L1478 1899 L1324 2053 Z" /></g><g class="o"><path transform="translate(8,16)" class="S sf" d="M1463 1720 L1636 1547 L1662 1547 L1489 1720 Z"/><path class="f4" d="M1463 1720 L1636 1547 L1662 1547 L1489 1720 Z" /></g><g class="o"><path transform="translate(2,4)" class="S sf" d="M1537 2020 L2206 1351 L2220 1351 L1551 2020 Z"/><path class="f6" d="M1537 2020 L2206 1351 L2220 1351 L1551 2020 Z" /></g><g class="o"><path transform="translate(5,10)" class="S sf" d="M1773 1153 L1871 1055 L1871 1073 L1773 1171 Z"/><path class="f3" d="M1773 1153 L1871 1055 L1871 1073 L1773 1171 Z" /></g><g class="o"><path transform="translate(3,6)" class="S sf" d="M1199 1472 L1362 1309 L1372 1309 L1209 1472 Z"/><path class="f4" d="M1199 1472 L1362 1309 L1372 1309 L1209 1472 Z" /></g><g class="o"><path transform="translate(9,18)" class="S sf" d="M1847 1127 L1918 1056 L1918 1068 L1847 1139 Z"/><path class="f2" d="M1847 1127 L1918 1056 L1918 1068 L1847 1139 Z" /></g><g class="o"><path transform="translate(9,18)" class="S sf" d="M1528 1760 L2062 1226 L2062 1236 L1528 1770 Z"/><path class="f5" d="M1528 1760 L2062 1226 L2062 1236 L1528 1770 Z" /></g><g class="o"><path transform="translate(5,10)" class="S sf" d="M2016 1286 L2133 1169 L2133 1191 L2016 1308 Z"/><path class="f4" d="M2016 1286 L2133 1169 L2133 1191 L2016 1308 Z" /></g><g class="o"><path transform="translate(7,14)" class="S sf" d="M1858 1396 L2001 1253 L2001 1289 L1858 1432 Z"/><path class="f5" d="M1858 1396 L2001 1253 L2001 1289 L1858 1432 Z" /></g><g class="o"><path transform="translate(8,16)" class="S sf" d="M1876 1973 L2004 1845 L2014 1845 L1886 1973 Z"/><path class="f3" d="M1876 1973 L2004 1845 L2014 1845 L1886 1973 Z" /></g><g class="o"><path transform="translate(9,18)" class="S ss" d="M2016 1329 L2166 1179 L2166 1189 L2016 1339 Z"/><path class="s3" d="M2016 1329 L2166 1179 L2166 1189 L2016 1339 Z" /></g><g class="o"><path transform="translate(6,12)" class="S sf" d="M1177 1361 L1377 1161 L1397 1161 L1197 1361 Z"/><path class="f7" d="M1177 1361 L1377 1161 L1397 1161 L1197 1361 Z" /></g><g class="o"><path transform="translate(7,14)" class="S sf" d="M1433 1853 L1518 1768 L1518 1790 L1433 1875 Z"/><path class="f6" d="M1433 1853 L1518 1768 L1518 1790 L1433 1875 Z" /></g><g class="o"><path transform="translate(5,10)" class="S sf" d="M1364 1036 L1414 986 L1424 986 L1374 1036 Z"/><path class="f2" d="M1364 1036 L1414 986 L1424 986 L1374 1036 Z" /></g><g class="o"><path transform="translate(7,14)" class="S sf" d="M1340 1175 L1433 1082 L1433 1106 L1340 1199 Z"/><path class="f2" d="M1340 1175 L1433 1082 L1433 1106 L1340 1199 Z" /></g><g class="o"><path transform="translate(2,4)" class="S sf" d="M1252 1888 L1377 1763 L1377 1775 L1252 1900 Z"/><path class="f4" d="M1252 1888 L1377 1763 L1377 1775 L1252 1900 Z" /></g><g class="o"><path transform="translate(3,6)" class="S sf" d="M1644 1982 L1823 1803 L1823 1819 L1644 1998 Z"/><path class="f2" d="M1644 1982 L1823 1803 L1823 1819 L1644 1998 Z" /></g><g class="o"><path transform="translate(6,12)" class="S ss" d="M1405 1316 L1522 1199 L1522 1233 L1405 1350 Z"/><path class="s3" d="M1405 1316 L1522 1199 L1522 1233 L1405 1350 Z" /></g><g class="o"><path transform="translate(7,14)" class="S sf" d="M1133 1264 L1382 1015 L1382 1049 L1133 1298 Z"/><path class="f1" d="M1133 1264 L1382 1015 L1382 1049 L1133 1298 Z" /></g><g class="o"><path transform="translate(4,8)" class="S sf" d="M1302 1719 L1537 1484 L1547 1484 L1312 1719 Z"/><path class="f2" d="M1302 1719 L1537 1484 L1547 1484 L1312 1719 Z" /></g><g class="o"><path transform="translate(7,14)" class="S sf" d="M1191 1047 L1905 333 L1929 333 L1215 1047 Z"/><path class="f6" d="M1191 1047 L1905 333 L1929 333 L1215 1047 Z" /></g><g class="o"><path transform="translate(2,4)" class="S sf" d="M999 1226 L1076 1149 L1102 1149 L1025 1226 Z"/><path class="f3" d="M999 1226 L1076 1149 L1102 1149 L1025 1226 Z" /></g><g class="o"><path transform="translate(5,10)" class="S sf" d="M1130 1018 L1379 769 L1379 797 L1130 1046 Z"/><path class="f6" d="M1130 1018 L1379 769 L1379 797 L1130 1046 Z" /></g><g class="o"><path transform="translate(8,16)" class="S sf" d="M1894 1021 L2440 475 L2478 475 L1932 1021 Z"/><path class="f1" d="M1894 1021 L2440 475 L2478 475 L1932 1021 Z" /></g><g class="o"><path transform="translate(4,8)" class="S sf" d="M1599 1383 L1688 1294 L1688 1330 L1599 1419 Z"/><path class="f6" d="M1599 1383 L1688 1294 L1688 1330 L1599 1419 Z" /></g><g class="o"><path transform="translate(4,8)" class="S sf" d="M1053 1879 L1131 1801 L1131 1833 L1053 1911 Z"/><path class="f3" d="M1053 1879 L1131 1801 L1131 1833 L1053 1911 Z" /></g><g class="o"><path transform="translate(3,6)" class="S sf" d="M1613 1705 L2192 1126 L2192 1144 L1613 1723 Z"/><path class="f5" d="M1613 1705 L2192 1126 L2192 1144 L1613 1723 Z" /></g><g class="o"><path transform="translate(4,8)" class="S sf" d="M1398 1854 L1529 1723 L1529 1741 L1398 1872 Z"/><path class="f5" d="M1398 1854 L1529 1723 L1529 1741 L1398 1872 Z" /></g><g class="o"><path transform="translate(7,14)" class="S sf" d="M1744 1025 L1874 895 L1874 907 L1744 1037 Z"/><path class="f4" d="M1744 1025 L1874 895 L1874 907 L1744 1037 Z" /></g><g class="o"><path transform="translate(8,16)" class="S sf" d="M1088 1776 L1204 1660 L1238 1660 L1122 1776 Z"/><path class="f7" d="M1088 1776 L1204 1660 L1238 1660 L1122 1776 Z" /></g><g class="o"><path transform="translate(8,16)" class="S sf" d="M1782 1962 L1912 1832 L1946 1832 L1816 1962 Z"/><path class="f7" d="M1782 1962 L1912 1832 L1946 1832 L1816 1962 Z" /></g><g class="o"><path transform="translate(7,14)" class="S ss" d="M1206 954 L1354 806 L1354 834 L1206 982 Z"/><path class="s2" d="M1206 954 L1354 806 L1354 834 L1206 982 Z" /></g><g class="o"><path transform="translate(4,8)" class="S ss" d="M1774 1083 L1893 964 L1931 964 L1812 1083 Z"/><path class="s5" d="M1774 1083 L1893 964 L1931 964 L1812 1083 Z" /></g><g class="o"><path transform="translate(2,4)" class="S sf" d="M1708 1070 L1781 997 L1805 997 L1732 1070 Z"/><path class="f1" d="M1708 1070 L1781 997 L1805 997 L1732 1070 Z" /></g><g class="o"><path transform="translate(4,8)" class="S sf" d="M1143 1434 L1373 1204 L1373 1230 L1143 1460 Z"/><path class="f4" d="M1143 1434 L1373 1204 L1373 1230 L1143 1460 Z" /></g><g class="o"><path transform="translate(4,8)" class="S sf" d="M1519 1588 L1662 1445 L1680 1445 L1537 1588 Z"/><path class="f1" d="M1519 1588 L1662 1445 L1680 1445 L1537 1588 Z" /></g><g class="o"><path transform="translate(5,10)" class="S ss" d="M1466 1826 L1577 1715 L1577 1745 L1466 1856 Z"/><path class="s5" d="M1466 1826 L1577 1715 L1577 1745 L1466 1856 Z" /></g><g class="o"><path transform="translate(4,8)" class="S sf" d="M1467 935 L1565 837 L1565 871 L1467 969 Z"/><path class="f4" d="M1467 935 L1565 837 L1565 871 L1467 969 Z" /></g><g class="o"><path transform="translate(3,6)" class="S sf" d="M1539 1374 L2133 780 L2133 794 L1539 1388 Z"/><path class="f2" d="M1539 1374 L2133 780 L2133 794 L1539 1388 Z" /></g><g class="o"><path transform="translate(9,18)" class="S sf" d="M1008 1881 L1161 1728 L1185 1728 L1032 1881 Z"/><path class="f3" d="M1008 1881 L1161 1728 L1185 1728 L1032 1881 Z" /></g><g class="o"><path transform="translate(2,4)" class="S sf" d="M1778 992 L2348 422 L2348 452 L1778 1022 Z"/><path class="f7" d="M1778 992 L2348 422 L2348 452 L1778 1022 Z" /></g><g class="o"><path transform="translate(6,12)" class="S sf" d="M1578 1510 L1732 1356 L1764 1356 L1610 1510 Z"/><path class="f1" d="M1578 1510 L1732 1356 L1764 1356 L1610 1510 Z" /></g><g class="o"><path transform="translate(9,18)" class="S sf" d="M1235 1315 L1360 1190 L1396 1190 L1271 1315 Z"/><path class="f7" d="M1235 1315 L1360 1190 L1396 1190 L1271 1315 Z" /></g><g class="o"><path transform="translate(3,6)" class="S sf" d="M1045 1262 L1642 665 L1658 665 L1061 1262 Z"/><path class="f4" d="M1045 1262 L1642 665 L1658 665 L1061 1262 Z" /></g><g class="o"><path transform="translate(3,6)" class="S sf" d="M1134 1134 L1308 960 L1308 980 L1134 1154 Z"/><path class="f4" d="M1134 1134 L1308 960 L1308 980 L1134 1154 Z" /></g><g class="o"><path transform="translate(9,18)" class="S sf" d="M1611 1422 L1836 1197 L1854 1197 L1629 1422 Z"/><path class="f6" d="M1611 1422 L1836 1197 L1854 1197 L1629 1422 Z" /></g><g class="o"><path transform="translate(4,8)" class="S sf" d="M1873 1019 L1925 967 L1947 967 L1895 1019 Z"/><path class="f2" d="M1873 1019 L1925 967 L1947 967 L1895 1019 Z" /></g><g class="o"><path transform="translate(2,4)" class="S ss" d="M1952 1940 L2088 1804 L2110 1804 L1974 1940 Z"/><path class="s4" d="M1952 1940 L2088 1804 L2110 1804 L1974 1940 Z" /></g><g class="o"><path transform="translate(5,10)" class="S sf" d="M1095 1438 L1842 691 L1854 691 L1107 1438 Z"/><path class="f6" d="M1095 1438 L1842 691 L1854 691 L1107 1438 Z" /></g><g class="o"><path transform="translate(5,10)" class="S sf" d="M1220 1294 L1346 1168 L1364 1168 L1238 1294 Z"/><path class="f5" d="M1220 1294 L1346 1168 L1364 1168 L1238 1294 Z" /></g><g class="o"><path transform="translate(9,18)" class="S sf" d="M1895 1455 L1953 1397 L1985 1397 L1927 1455 Z"/><path class="f6" d="M1895 1455 L1953 1397 L1985 1397 L1927 1455 Z" /></g><g class="o"><path transform="translate(2,4)" class="S sf" d="M1419 1268 L1653 1034 L1667 1034 L1433 1268 Z"/><path class="f6" d="M1419 1268 L1653 1034 L1667 1034 L1433 1268 Z" /></g><g class="o"><path transform="translate(9,18)" class="S sf" d="M1550 1190 L1694 1046 L1694 1054 L1550 1198 Z"/><path class="f2" d="M1550 1190 L1694 1046 L1694 1054 L1550 1198 Z" /></g><g class="o"><path transform="translate(9,18)" class="S sf" d="M1487 1017 L1690 814 L1690 840 L1487 1043 Z"/><path class="f2" d="M1487 1017 L1690 814 L1690 840 L1487 1043 Z" /></g><g class="o"><path transform="translate(3,6)" class="S sf" d="M1866 1362 L1945 1283 L1965 1283 L1886 1362 Z"/><path class="f4" d="M1866 1362 L1945 1283 L1965 1283 L1886 1362 Z" /></g><g class="o"><path transform="translate(5,10)" class="S sf" d="M1632 1736 L1771 1597 L1803 1597 L1664 1736 Z"/><path class="f7" d="M1632 1736 L1771 1597 L1803 1597 L1664 1736 Z" /></g><g class="o"><path transform="translate(2,4)" class="S ss" d="M1351 1648 L2017 982 L2053 982 L1387 1648 Z"/><path class="s2" d="M1351 1648 L2017 982 L2053 982 L1387 1648 Z" /></g><g class="o"><path transform="translate(4,8)" class="S sf" d="M1683 1185 L1803 1065 L1803 1103 L1683 1223 Z"/><path class="f3" d="M1683 1185 L1803 1065 L1803 1103 L1683 1223 Z" /></g><g class="o"><path transform="translate(3,6)" class="S sf" d="M1109 1658 L1289 1478 L1321 1478 L1141 1658 Z"/><path class="f6" d="M1109 1658 L1289 1478 L1321 1478 L1141 1658 Z" /></g><g class="o"><path transform="translate(3,6)" class="S sf" d="M1536 1368 L1629 1275 L1655 1275 L1562 1368 Z"/><path class="f5" d="M1536 1368 L1629 1275 L1655 1275 L1562 1368 Z" /></g><g class="o"><path transform="translate(9,18)" class="S ss" d="M1135 1688 L1798 1025 L1798 1063 L1135 1726 Z"/><path class="s1" d="M1135 1688 L1798 1025 L1798 1063 L1135 1726 Z" /></g><g class="o"><path transform="translate(7,14)" class="S ss" d="M1574 1896 L2108 1362 L2108 1380 L1574 1914 Z"/><path class="s6" d="M1574 1896 L2108 1362 L2108 1380 L1574 1914 Z" /></g><g class="o"><path transform="translate(8,16)" class="S sf" d="M1069 1945 L1197 1817 L1197 1845 L1069 1973 Z"/><path class="f1" d="M1069 1945 L1197 1817 L1197 1845 L1069 1973 Z" /></g><g class="o"><path transform="translate(7,14)" class="S ss" d="M1206 1772 L1635 1343 L1657 1343 L1228 1772 Z"/><path class="s1" d="M1206 1772 L1635 1343 L1657 1343 L1228 1772 Z" /></g><g class="o"><path transform="translate(4,8)" class="S sf" d="M1174 1512 L1263 1423 L1277 1423 L1188 1512 Z"/><path class="f5" d="M1174 1512 L1263 1423 L1277 1423 L1188 1512 Z" /></g><g class="o"><path transform="translate(8,16)" class="S sf" d="M1152 1692 L1376 1468 L1376 1504 L1152 1728 Z"/><path class="f6" d="M1152 1692 L1376 1468 L1376 1504 L1152 1728 Z" /></g><g class="o"><path transform="translate(3,6)" class="S sf" d="M1714 1968 L1786 1896 L1798 1896 L1726 1968 Z"/><path class="f1" d="M1714 1968 L1786 1896 L1798 1896 L1726 1968 Z" /></g><g class="o"><path transform="translate(6,12)" class="S sf" d="M2001 1586 L2244 1343 L2244 1353 L2001 1596 Z"/><path class="f7" d="M2001 1586 L2244 1343 L2244 1353 L2001 1596 Z" /></g><g class="o"><path transform="translate(7,14)" class="S ss" d="M1346 936 L1568 714 L1568 752 L1346 974 Z"/><path class="s5" d="M1346 936 L1568 714 L1568 752 L1346 974 Z" /></g><g class="o"><path transform="translate(9,18)" class="S sf" d="M1448 1650 L1736 1362 L1770 1362 L1482 1650 Z"/><path class="f7" d="M1448 1650 L1736 1362 L1770 1362 L1482 1650 Z" /></g><g class="o"><path transform="translate(7,14)" class="S sf" d="M2034 1869 L2242 1661 L2254 1661 L2046 1869 Z"/><path class="f2" d="M2034 1869 L2242 1661 L2254 1661 L2046 1869 Z" /></g><g class="o"><path transform="translate(4,8)" class="S sf" d="M1460 1716 L1597 1579 L1597 1589 L1460 1726 Z"/><path class="f3" d="M1460 1716 L1597 1579 L1597 1589 L1460 1726 Z" /></g><g class="o"><path transform="translate(3,6)" class="S sf" d="M1756 1521 L1983 1294 L2007 1294 L1780 1521 Z"/><path class="f3" d="M1756 1521 L1983 1294 L2007 1294 L1780 1521 Z" /></g><g class="o"><path transform="translate(3,6)" class="S sf" d="M1047 1623 L1136 1534 L1144 1534 L1055 1623 Z"/><path class="f4" d="M1047 1623 L1136 1534 L1144 1534 L1055 1623 Z" /></g><g class="o"><path transform="translate(7,14)" class="S sf" d="M1878 1344 L2061 1161 L2061 1175 L1878 1358 Z"/><path class="f6" d="M1878 1344 L2061 1161 L2061 1175 L1878 1358 Z" /></g><g class="o"><path transform="translate(6,12)" class="S sf" d="M1639 1867 L1717 1789 L1717 1823 L1639 1901 Z"/><path class="f2" d="M1639 1867 L1717 1789 L1717 1823 L1639 1901 Z" /></g><g class="o"><path transform="translate(7,14)" class="S ss" d="M1862 1815 L2306 1371 L2306 1397 L1862 1841 Z"/><path class="s2" d="M1862 1815 L2306 1371 L2306 1397 L1862 1841 Z" /></g><g class="o"><path transform="translate(4,8)" class="S sf" d="M1574 1008 L1778 804 L1778 820 L1574 1024 Z"/><path class="f1" d="M1574 1008 L1778 804 L1778 820 L1574 1024 Z" /></g><g class="o"><path transform="translate(6,12)" class="S sf" d="M1955 1477 L2456 976 L2456 1000 L1955 1501 Z"/><path class="f5" d="M1955 1477 L2456 976 L2456 1000 L1955 1501 Z" /></g><g class="o"><path transform="translate(4,8)" class="S sf" d="M1973 1246 L2068 1151 L2100 1151 L2005 1246 Z"/><path class="f5" d="M1973 1246 L2068 1151 L2100 1151 L2005 1246 Z" /></g><g class="o"><path transform="translate(5,10)" class="S ss" d="M1639 1067 L1853 853 L1863 853 L1649 1067 Z"/><path class="s6" d="M1639 1067 L1853 853 L1863 853 L1649 1067 Z" /></g><g class="o"><path transform="translate(9,18)" class="S sf" d="M1295 1369 L1382 1282 L1420 1282 L1333 1369 Z"/><path class="f7" d="M1295 1369 L1382 1282 L1420 1282 L1333 1369 Z" /></g><g class="o"><path transform="translate(5,10)" class="S sf" d="M1778 1788 L1844 1722 L1844 1750 L1778 1816 Z"/><path class="f4" d="M1778 1788 L1844 1722 L1844 1750 L1778 1816 Z" /></g><g class="o"><path transform="translate(4,8)" class="S sf" d="M1994 1915 L2246 1663 L2246 1687 L1994 1939 Z"/><path class="f4" d="M1994 1915 L2246 1663 L2246 1687 L1994 1939 Z" /></g><g class="o"><path transform="translate(2,4)" class="S sf" d="M1754 1890 L1886 1758 L1886 1796 L1754 1928 Z"/><path class="f6" d="M1754 1890 L1886 1758 L1886 1796 L1754 1928 Z" /></g><g class="o"><path transform="translate(8,16)" class="S sf" d="M1978 1121 L2195 904 L2195 922 L1978 1139 Z"/><path class="f2" d="M1978 1121 L2195 904 L2195 922 L1978 1139 Z" /></g><g class="o"><path transform="translate(2,4)" class="S sf" d="M1777 1953 L1974 1756 L2010 1756 L1813 1953 Z"/><path class="f5" d="M1777 1953 L1974 1756 L2010 1756 L1813 1953 Z" /></g><g class="o"><path transform="translate(7,14)" class="S sf" d="M1583 1857 L2081 1359 L2099 1359 L1601 1857 Z"/><path class="f6" d="M1583 1857 L2081 1359 L2099 1359 L1601 1857 Z" /></g><g class="o"><path transform="translate(7,14)" class="S sf" d="M1127 1662 L1289 1500 L1323 1500 L1161 1662 Z"/><path class="f2" d="M1127 1662 L1289 1500 L1323 1500 L1161 1662 Z" /></g><g class="o"><path transform="translate(5,10)" class="S sf" d="M1879 1700 L2071 1508 L2071 1530 L1879 1722 Z"/><path class="f6" d="M1879 1700 L2071 1508 L2071 1530 L1879 1722 Z" /></g><g class="o"><path transform="translate(6,12)" class="S sf" d="M1774 2004 L1935 1843 L1971 1843 L1810 2004 Z"/><path class="f4" d="M1774 2004 L1935 1843 L1971 1843 L1810 2004 Z" /></g><g class="o"><path transform="translate(7,14)" class="S sf" d="M1120 1925 L1211 1834 L1211 1860 L1120 1951 Z"/><path class="f4" d="M1120 1925 L1211 1834 L1211 1860 L1120 1951 Z" /></g><g class="o"><path transform="translate(6,12)" class="S sf" d="M1292 1540 L1389 1443 L1415 1443 L1318 1540 Z"/><path class="f4" d="M1292 1540 L1389 1443 L1415 1443 L1318 1540 Z" /></g><g class="o"><path transform="translate(5,10)" class="S ss" d="M1821 1071 L2010 882 L2010 906 L1821 1095 Z"/><path class="s4" d="M1821 1071 L2010 882 L2010 906 L1821 1095 Z" /></g><g class="o"><path transform="translate(6,12)" class="S sf" d="M1847 1984 L2071 1760 L2071 1770 L1847 1994 Z"/><path class="f1" d="M1847 1984 L2071 1760 L2071 1770 L1847 1994 Z" /></g></g><use href="#slashes" transform-origin="1500 1500" transform="rotate(180) scale(2)"/></g><rect x="1080" y="1080" width="840" height="840" stroke-width="40" class="o s7" /><use href="#slashes" transform-origin="1500 1500" transform="scale(.6)"/><use href="#slashes" transform-origin="1500 1500" transform="rotate(180) scale(.6)"/></svg>