<svg xmlns="http://www.w3.org/2000/svg" viewBox="750 750 1500 1500"><style>/*<![CDATA[*/svg{background:rgb(62,68,145);max-width:100vw;max-height:100vh}path{stroke-width:4}.o{opacity:.75}.S{opacity:.4}.sf{stroke:none;fill:black}.sfh{stroke:none;fill:url(#hs)}.sfv{stroke:none;fill:url(#vs)}.ss{stroke:black;fill:none}.ssh{stroke:url(#hs);fill:none}.ssv{stroke:url(#vs);fill:none}.s1{fill:none;stroke:rgb(34,34,34)}.f1{stroke:none;fill:rgb(34,34,34)}.sh1{fill:none;stroke:url(#h1)}.fh1{stroke:none;fill:url(#h1)}.sv1{fill:none;stroke:url(#v1)}.fv1{stroke:none;fill:url(#v1)}.s2{fill:none;stroke:rgb(58,158,253)}.f2{stroke:none;fill:rgb(58,158,253)}.sh2{fill:none;stroke:url(#h2)}.fh2{stroke:none;fill:url(#h2)}.sv2{fill:none;stroke:url(#v2)}.fv2{stroke:none;fill:url(#v2)}.s3{fill:none;stroke:rgb(255,168,34)}.f3{stroke:none;fill:rgb(255,168,34)}.sh3{fill:none;stroke:url(#h3)}.fh3{stroke:none;fill:url(#h3)}.sv3{fill:none;stroke:url(#v3)}.fv3{stroke:none;fill:url(#v3)}.s4{fill:none;stroke:rgb(41,42,115)}.f4{stroke:none;fill:rgb(41,42,115)}.sh4{fill:none;stroke:url(#h4)}.fh4{stroke:none;fill:url(#h4)}.sv4{fill:none;stroke:url(#v4)}.fv4{stroke:none;fill:url(#v4)}.s5{fill:none;stroke:rgb(26,27,75)}.f5{stroke:none;fill:rgb(26,27,75)}.sh5{fill:none;stroke:url(#h5)}.fh5{stroke:none;fill:url(#h5)}.sv5{fill:none;stroke:url(#v5)}.fv5{stroke:none;fill:url(#v5)}.s6{fill:none;stroke:rgb(255,255,255)}.f6{stroke:none;fill:rgb(255,255,255)}.sh6{fill:none;stroke:url(#h6)}.fh6{stroke:none;fill:url(#h6)}.sv6{fill:none;stroke:url(#v6)}.fv6{stroke:none;fill:url(#v6)}.s7{fill:none;stroke:rgb(255,0,0)}.f7{stroke:none;fill:rgb(255,0,0)}.sh7{fill:none;stroke:url(#h7)}.fh7{stroke:none;fill:url(#h7)}.sv7{fill:none;stroke:url(#v7)}.fv7{stroke:none;fill:url(#v7)}/*]]>*/</style><defs><linearGradient gradientTransform="rotate(90)" id="hs"><stop offset="20%" stop-color="#000" /><stop offset="95%" stop-color="rgba(0, 0, 0, 0)" /></linearGradient><linearGradient id="vs"><stop offset="20%" stop-color="#000" /><stop offset="95%" stop-color="rgba(0, 0, 0, 0)" /></linearGradient><linearGradient gradientTransform="rotate(90)" id="h1"><stop offset="20%" stop-color="rgba(34,34,34,1)" /><stop offset="95%" stop-color="rgba(34,34,34,0)" /></linearGradient><linearGradient id="v1"><stop offset="20%" stop-color="rgba(34,34,34,1)" /><stop offset="95%" stop-color="rgba(34,34,34,0)" /></linearGradient><linearGradient gradientTransform="rotate(90)" id="h2"><stop offset="20%" stop-color="rgba(58,158,253,1)" /><stop offset="95%" stop-color="rgba(58,158,253,0)" /></linearGradient><linearGradient id="v2"><stop offset="20%" stop-color="rgba(58,158,253,1)" /><stop offset="95%" stop-color="rgba(58,158,253,0)" /></linearGradient><linearGradient gradientTransform="rotate(90)" id="h3"><stop offset="20%" stop-color="rgba(255,168,34,1)" /><stop offset="95%" stop-color="rgba(255,168,34,0)" /></linearGradient><linearGradient id="v3"><stop offset="20%" stop-color="rgba(255,168,34,1)" /><stop offset="95%" stop-color="rgba(255,168,34,0)" /></linearGradient><linearGradient gradientTransform="rotate(90)" id="h4"><stop offset="20%" stop-color="rgba(41,42,115,1)" /><stop offset="95%" stop-color="rgba(41,42,115,0)" /></linearGradient><linearGradient id="v4"><stop offset="20%" stop-color="rgba(41,42,115,1)" /><stop offset="95%" stop-color="rgba(41,42,115,0)" /></linearGradient><linearGradient gradientTransform="rotate(90)" id="h5"><stop offset="20%" stop-color="rgba(26,27,75,1)" /><stop offset="95%" stop-color="rgba(26,27,75,0)" /></linearGradient><linearGradient id="v5"><stop offset="20%" stop-color="rgba(26,27,75,1)" /><stop offset="95%" stop-color="rgba(26,27,75,0)" /></linearGradient><linearGradient gradientTransform="rotate(90)" id="h6"><stop offset="20%" stop-color="rgba(255,255,255,1)" /><stop offset="95%" stop-color="rgba(255,255,255,0)" /></linearGradient><linearGradient id="v6"><stop offset="20%" stop-color="rgba(255,255,255,1)" /><stop offset="95%" stop-color="rgba(255,255,255,0)" /></linearGradient><linearGradient gradientTransform="rotate(90)" id="h7"><stop offset="20%" stop-color="rgba(255,0,0,1)" /><stop offset="95%" stop-color="rgba(255,0,0,0)" /></linearGradient><linearGradient id="v7"><stop offset="20%" stop-color="rgba(255,0,0,1)" /><stop offset="95%" stop-color="rgba(255,0,0,0)" /></linearGradient></defs><g transform-origin="1500 1500" transform="scale(2)" opacity=".2"><g id="slashes"><g class="o"><path transform="translate(8,16)" class="S sfh" d="M1036 1029 L397 1668 L429 1668 L1068 1029 Z"/><path class="fh5" d="M1036 1029 L397 1668 L429 1668 L1068 1029 Z" /></g><g class="o"><path transform="translate(6,12)" class="S sfv" d="M1458 1485 L1517 1544 L1517 1688 L1458 1629 Z"/><path class="fv3" d="M1458 1485 L1517 1544 L1517 1688 L1458 1629 Z" /></g><g class="o"><path transform="translate(4,8)" class="S sfv" d="M1625 1838 L1697 1766 L1697 1870 L1625 1942 Z"/><path class="fv4" d="M1625 1838 L1697 1766 L1697 1870 L1625 1942 Z" /></g><g class="o"><path transform="translate(5,10)" class="S sfh" d="M1117 1685 L1361 1441 L1505 1441 L1261 1685 Z"/><path class="fh7" d="M1117 1685 L1361 1441 L1505 1441 L1261 1685 Z" /></g><g class="o"><path transform="translate(9,18)" class="S ssh" d="M1734 1630 L1926 1438 L2030 1438 L1838 1630 Z"/><path class="sh7" d="M1734 1630 L1926 1438 L2030 1438 L1838 1630 Z" /></g><g class="o"><path transform="translate(6,12)" class="S sfv" d="M1744 1294 L1911 1127 L1911 1279 L1744 1446 Z"/><path class="fv5" d="M1744 1294 L1911 1127 L1911 1279 L1744 1446 Z" /></g><g class="o"><path transform="translate(6,12)" class="S sfh" d="M1302 1593 L1557 1338 L1595 1338 L1340 1593 Z"/><path class="fh3" d="M1302 1593 L1557 1338 L1595 1338 L1340 1593 Z" /></g><g class="o"><path transform="translate(6,12)" class="S ssh" d="M1786 1011 L1955 1180 L1995 1180 L1826 1011 Z"/><path class="sh3" d="M1786 1011 L1955 1180 L1995 1180 L1826 1011 Z" /></g><g class="o"><path transform="translate(6,12)" class="S sfh" d="M1938 2029 L1590 1681 L1686 1681 L2034 2029 Z"/><path class="fh4" d="M1938 2029 L1590 1681 L1686 1681 L2034 2029 Z" /></g><g class="o"><path transform="translate(9,18)" class="S ss" d="M1575 1179 L1520 1124 L1520 1172 L1575 1227 Z"/><path class="s2" d="M1575 1179 L1520 1124 L1520 1172 L1575 1227 Z" /></g><g class="o"><path transform="translate(5,10)" class="S sfv" d="M1280 1482 L899 1101 L899 1221 L1280 1602 Z"/><path class="fv1" d="M1280 1482 L899 1101 L899 1221 L1280 1602 Z" /></g><g class="o"><path transform="translate(4,8)" class="S sfh" d="M1499 1741 L1271 1513 L1399 1513 L1627 1741 Z"/><path class="fh7" d="M1499 1741 L1271 1513 L1399 1513 L1627 1741 Z" /></g><g class="o"><path transform="translate(9,18)" class="S sfv" d="M1345 1338 L1672 1011 L1672 1067 L1345 1394 Z"/><path class="fv4" d="M1345 1338 L1672 1011 L1672 1067 L1345 1394 Z" /></g><g class="o"><path transform="translate(6,12)" class="S sfv" d="M2036 1009 L2231 814 L2231 862 L2036 1057 Z"/><path class="fv7" d="M2036 1009 L2231 814 L2231 862 L2036 1057 Z" /></g><g class="o"><path transform="translate(4,8)" class="S sfh" d="M1683 1557 L1887 1761 L1895 1761 L1691 1557 Z"/><path class="fh6" d="M1683 1557 L1887 1761 L1895 1761 L1691 1557 Z" /></g><g class="o"><path transform="translate(5,10)" class="S sfh" d="M1549 1937 L1399 1787 L1439 1787 L1589 1937 Z"/><path class="fh2" d="M1549 1937 L1399 1787 L1439 1787 L1589 1937 Z" /></g><g class="o"><path transform="translate(7,14)" class="S sf" d="M1597 1444 L1891 1150 L1891 1222 L1597 1516 Z"/><path class="f6" d="M1597 1444 L1891 1150 L1891 1222 L1597 1516 Z" /></g><g class="o"><path transform="translate(8,16)" class="S sfh" d="M1574 1331 L1692 1213 L1804 1213 L1686 1331 Z"/><path class="fh6" d="M1574 1331 L1692 1213 L1804 1213 L1686 1331 Z" /></g><g class="o"><path transform="translate(8,16)" class="S sfv" d="M1027 1957 L1399 1585 L1399 1603 L1027 1975 Z"/><path class="fv5" d="M1027 1957 L1399 1585 L1399 1603 L1027 1975 Z" /></g><g class="o"><path transform="translate(4,8)" class="S sfh" d="M1650 1764 L1491 1923 L1555 1923 L1714 1764 Z"/><path class="fh2" d="M1650 1764 L1491 1923 L1555 1923 L1714 1764 Z" /></g><g class="o"><path transform="translate(8,16)" class="S sf" d="M1643 1359 L1397 1113 L1435 1113 L1681 1359 Z"/><path class="f7" d="M1643 1359 L1397 1113 L1435 1113 L1681 1359 Z" /></g><g class="o"><path transform="translate(5,10)" class="S sf" d="M1715 1374 L1274 1815 L1274 1919 L1715 1478 Z"/><path class="f7" d="M1715 1374 L1274 1815 L1274 1919 L1715 1478 Z" /></g><g class="o"><path transform="translate(3,6)" class="S sfv" d="M1826 1165 L1676 1015 L1676 1159 L1826 1309 Z"/><path class="fv5" d="M1826 1165 L1676 1015 L1676 1159 L1826 1309 Z" /></g><g class="o"><path transform="translate(2,4)" class="S sf" d="M1921 1258 L2136 1043 L2136 1123 L1921 1338 Z"/><path class="f1" d="M1921 1258 L2136 1043 L2136 1123 L1921 1338 Z" /></g><g class="o"><path transform="translate(5,10)" class="S sf" d="M1769 1332 L2240 1803 L2240 1907 L1769 1436 Z"/><path class="f7" d="M1769 1332 L2240 1803 L2240 1907 L1769 1436 Z" /></g><g class="o"><path transform="translate(6,12)" class="S sfv" d="M1554 1220 L843 509 L843 541 L1554 1252 Z"/><path class="fv4" d="M1554 1220 L843 509 L843 541 L1554 1252 Z" /></g><g class="o"><path transform="translate(2,4)" class="S sfv" d="M1471 1516 L1822 1867 L1822 1877 L1471 1526 Z"/><path class="fv4" d="M1471 1516 L1822 1867 L1822 1877 L1471 1526 Z" /></g><g class="o"><path transform="translate(2,4)" class="S sfh" d="M994 1404 L1213 1623 L1349 1623 L1130 1404 Z"/><path class="fh5" d="M994 1404 L1213 1623 L1349 1623 L1130 1404 Z" /></g><g class="o"><path transform="translate(7,14)" class="S ssv" d="M1201 1450 L1042 1609 L1042 1673 L1201 1514 Z"/><path class="sv1" d="M1201 1450 L1042 1609 L1042 1673 L1201 1514 Z" /></g><g class="o"><path transform="translate(7,14)" class="S ssh" d="M1312 1755 L1553 1514 L1581 1514 L1340 1755 Z"/><path class="sh6" d="M1312 1755 L1553 1514 L1581 1514 L1340 1755 Z" /></g><g class="o"><path transform="translate(4,8)" class="S sfh" d="M1125 1892 L1042 1809 L1162 1809 L1245 1892 Z"/><path class="fh3" d="M1125 1892 L1042 1809 L1162 1809 L1245 1892 Z" /></g><g class="o"><path transform="translate(3,6)" class="S sfv" d="M1975 1298 L2116 1157 L2116 1229 L1975 1370 Z"/><path class="fv1" d="M1975 1298 L2116 1157 L2116 1229 L1975 1370 Z" /></g><g class="o"><path transform="translate(8,16)" class="S sfh" d="M1335 1789 L1062 2062 L1214 2062 L1487 1789 Z"/><path class="fh5" d="M1335 1789 L1062 2062 L1214 2062 L1487 1789 Z" /></g><g class="o"><path transform="translate(9,18)" class="S sfv" d="M1117 1444 L1182 1379 L1182 1443 L1117 1508 Z"/><path class="fv1" d="M1117 1444 L1182 1379 L1182 1443 L1117 1508 Z" /></g><g class="o"><path transform="translate(3,6)" class="S ssv" d="M985 1708 L832 1555 L832 1707 L985 1860 Z"/><path class="sv5" d="M985 1708 L832 1555 L832 1707 L985 1860 Z" /></g><g class="o"><path transform="translate(8,16)" class="S sf" d="M1781 1849 L1992 2060 L2040 2060 L1829 1849 Z"/><path class="f1" d="M1781 1849 L1992 2060 L2040 2060 L1829 1849 Z" /></g><g class="o"><path transform="translate(5,10)" class="S sfh" d="M1145 1743 L959 1557 L969 1557 L1155 1743 Z"/><path class="fh3" d="M1145 1743 L959 1557 L969 1557 L1155 1743 Z" /></g><g class="o"><path transform="translate(9,18)" class="S sf" d="M1755 1142 L1958 939 L2102 939 L1899 1142 Z"/><path class="f6" d="M1755 1142 L1958 939 L2102 939 L1899 1142 Z" /></g><g class="o"><path transform="translate(3,6)" class="S ssh" d="M1659 1319 L2262 1922 L2288 1922 L1685 1319 Z"/><path class="sh6" d="M1659 1319 L2262 1922 L2288 1922 L1685 1319 Z" /></g><g class="o"><path transform="translate(5,10)" class="S sfv" d="M1431 1692 L2031 1092 L2031 1244 L1431 1844 Z"/><path class="fv6" d="M1431 1692 L2031 1092 L2031 1244 L1431 1844 Z" /></g><g class="o"><path transform="translate(7,14)" class="S sfh" d="M1479 1295 L1665 1481 L1809 1481 L1623 1295 Z"/><path class="fh6" d="M1479 1295 L1665 1481 L1809 1481 L1623 1295 Z" /></g><g class="o"><path transform="translate(5,10)" class="S sfh" d="M1972 2001 L2078 1895 L2230 1895 L2124 2001 Z"/><path class="fh2" d="M1972 2001 L2078 1895 L2230 1895 L2124 2001 Z" /></g><g class="o"><path transform="translate(3,6)" class="S sf" d="M1104 1627 L657 2074 L657 2146 L1104 1699 Z"/><path class="f1" d="M1104 1627 L657 2074 L657 2146 L1104 1699 Z" /></g><g class="o"><path transform="translate(4,8)" class="S ssh" d="M1381 2019 L1120 2280 L1146 2280 L1407 2019 Z"/><path class="sh4" d="M1381 2019 L1120 2280 L1146 2280 L1407 2019 Z" /></g><g class="o"><path transform="translate(5,10)" class="S sfv" d="M1152 1353 L768 969 L768 1005 L1152 1389 Z"/><path class="fv5" d="M1152 1353 L768 969 L768 1005 L1152 1389 Z" /></g><g class="o"><path transform="translate(5,10)" class="S sfh" d="M1847 1512 L1682 1347 L1794 1347 L1959 1512 Z"/><path class="fh7" d="M1847 1512 L1682 1347 L1794 1347 L1959 1512 Z" /></g><g class="o"><path transform="translate(3,6)" class="S sfh" d="M1303 1687 L691 2299 L819 2299 L1431 1687 Z"/><path class="fh5" d="M1303 1687 L691 2299 L819 2299 L1431 1687 Z" /></g><g class="o"><path transform="translate(4,8)" class="S sfv" d="M1332 1362 L1141 1553 L1141 1665 L1332 1474 Z"/><path class="fv4" d="M1332 1362 L1141 1553 L1141 1665 L1332 1474 Z" /></g><g class="o"><path transform="translate(7,14)" class="S sfh" d="M1736 1177 L1844 1069 L1996 1069 L1888 1177 Z"/><path class="fh4" d="M1736 1177 L1844 1069 L1996 1069 L1888 1177 Z" /></g><g class="o"><path transform="translate(4,8)" class="S sfv" d="M1543 1559 L1738 1754 L1738 1786 L1543 1591 Z"/><path class="fv5" d="M1543 1559 L1738 1754 L1738 1786 L1543 1591 Z" /></g><g class="o"><path transform="translate(9,18)" class="S sfv" d="M1045 1761 L751 2055 L751 2095 L1045 1801 Z"/><path class="fv2" d="M1045 1761 L751 2055 L751 2095 L1045 1801 Z" /></g><g class="o"><path transform="translate(2,4)" class="S sfh" d="M1459 1341 L1639 1521 L1695 1521 L1515 1341 Z"/><path class="fh4" d="M1459 1341 L1639 1521 L1695 1521 L1515 1341 Z" /></g><g class="o"><path transform="translate(3,6)" class="S ss" d="M1626 1633 L1676 1683 L1676 1711 L1626 1661 Z"/><path class="s6" d="M1626 1633 L1676 1683 L1676 1711 L1626 1661 Z" /></g><g class="o"><path transform="translate(8,16)" class="S sf" d="M1905 1012 L1682 1235 L1714 1235 L1937 1012 Z"/><path class="f6" d="M1905 1012 L1682 1235 L1714 1235 L1937 1012 Z" /></g><g class="o"><path transform="translate(5,10)" class="S sfh" d="M1836 968 L1542 674 L1630 674 L1924 968 Z"/><path class="fh2" d="M1836 968 L1542 674 L1630 674 L1924 968 Z" /></g><g class="o"><path transform="translate(6,12)" class="S sfv" d="M971 977 L587 1361 L587 1465 L971 1081 Z"/><path class="fv4" d="M971 977 L587 1361 L587 1465 L971 1081 Z" /></g><g class="o"><path transform="translate(8,16)" class="S sfv" d="M1926 1985 L2013 1898 L2013 1954 L1926 2041 Z"/><path class="fv7" d="M1926 1985 L2013 1898 L2013 1954 L1926 2041 Z" /></g><g class="o"><path transform="translate(8,16)" class="S sfv" d="M1096 1103 L866 873 L866 905 L1096 1135 Z"/><path class="fv4" d="M1096 1103 L866 873 L866 905 L1096 1135 Z" /></g><g class="o"><path transform="translate(4,8)" class="S sf" d="M1696 1737 L2131 1302 L2243 1302 L1808 1737 Z"/><path class="f1" d="M1696 1737 L2131 1302 L2243 1302 L1808 1737 Z" /></g><g class="o"><path transform="translate(5,10)" class="S sfv" d="M1293 1379 L1956 716 L1956 844 L1293 1507 Z"/><path class="fv1" d="M1293 1379 L1956 716 L1956 844 L1293 1507 Z" /></g><g class="o"><path transform="translate(2,4)" class="S sfv" d="M950 1492 L1226 1216 L1226 1336 L950 1612 Z"/><path class="fv5" d="M950 1492 L1226 1216 L1226 1336 L950 1612 Z" /></g><g class="o"><path transform="translate(3,6)" class="S sfv" d="M1970 1563 L1304 897 L1304 913 L1970 1579 Z"/><path class="fv1" d="M1970 1563 L1304 897 L1304 913 L1970 1579 Z" /></g><g class="o"><path transform="translate(7,14)" class="S sfh" d="M1011 1725 L789 1947 L901 1947 L1123 1725 Z"/><path class="fh2" d="M1011 1725 L789 1947 L901 1947 L1123 1725 Z" /></g><g class="o"><path transform="translate(5,10)" class="S sfh" d="M1954 1334 L1812 1192 L1916 1192 L2058 1334 Z"/><path class="fh4" d="M1954 1334 L1812 1192 L1916 1192 L2058 1334 Z" /></g><g class="o"><path transform="translate(5,10)" class="S sfv" d="M1053 923 L672 1304 L672 1416 L1053 1035 Z"/><path class="fv1" d="M1053 923 L672 1304 L672 1416 L1053 1035 Z" /></g><g class="o"><path transform="translate(9,18)" class="S sfh" d="M1629 1609 L2280 2260 L2384 2260 L1733 1609 Z"/><path class="fh2" d="M1629 1609 L2280 2260 L2384 2260 L1733 1609 Z" /></g><g class="o"><path transform="translate(8,16)" class="S sfv" d="M1645 1443 L1156 954 L1156 1042 L1645 1531 Z"/><path class="fv4" d="M1645 1443 L1156 954 L1156 1042 L1645 1531 Z" /></g><g class="o"><path transform="translate(8,16)" class="S sfh" d="M1962 1796 L1347 1181 L1395 1181 L2010 1796 Z"/><path class="fh7" d="M1962 1796 L1347 1181 L1395 1181 L2010 1796 Z" /></g><g class="o"><path transform="translate(6,12)" class="S sfh" d="M1207 1325 L1459 1577 L1515 1577 L1263 1325 Z"/><path class="fh5" d="M1207 1325 L1459 1577 L1515 1577 L1263 1325 Z" /></g><g class="o"><path transform="translate(2,4)" class="S sfv" d="M1669 1523 L1987 1841 L1987 1921 L1669 1603 Z"/><path class="fv6" d="M1669 1523 L1987 1841 L1987 1921 L1669 1603 Z" /></g><g class="o"><path transform="translate(5,10)" class="S sfh" d="M1628 1679 L1013 2294 L1149 2294 L1764 1679 Z"/><path class="fh6" d="M1628 1679 L1013 2294 L1149 2294 L1764 1679 Z" /></g><g class="o"><path transform="translate(9,18)" class="S ss" d="M1580 1707 L1357 1930 L1357 1962 L1580 1739 Z"/><path class="s5" d="M1580 1707 L1357 1930 L1357 1962 L1580 1739 Z" /></g><g class="o"><path transform="translate(7,14)" class="S sf" d="M981 1357 L1207 1131 L1207 1171 L981 1397 Z"/><path class="f4" d="M981 1357 L1207 1131 L1207 1171 L981 1397 Z" /></g><g class="o"><path transform="translate(2,4)" class="S sfv" d="M1995 1803 L1296 2502 L1296 2534 L1995 1835 Z"/><path class="fv6" d="M1995 1803 L1296 2502 L1296 2534 L1995 1835 Z" /></g><g class="o"><path transform="translate(3,6)" class="S sfh" d="M1740 1482 L1946 1688 L2098 1688 L1892 1482 Z"/><path class="fh2" d="M1740 1482 L1946 1688 L2098 1688 L1892 1482 Z" /></g><g class="o"><path transform="translate(9,18)" class="S sfh" d="M1218 1902 L1168 1852 L1224 1852 L1274 1902 Z"/><path class="fh3" d="M1218 1902 L1168 1852 L1224 1852 L1274 1902 Z" /></g><g class="o"><path transform="translate(6,12)" class="S sf" d="M1717 1621 L1156 1060 L1252 1060 L1813 1621 Z"/><path class="f5" d="M1717 1621 L1156 1060 L1252 1060 L1813 1621 Z" /></g><g class="o"><path transform="translate(7,14)" class="S ssv" d="M1765 1424 L2152 1037 L2152 1149 L1765 1536 Z"/><path class="sv5" d="M1765 1424 L2152 1037 L2152 1149 L1765 1536 Z" /></g><g class="o"><path transform="translate(6,12)" class="S sfv" d="M1188 1658 L1002 1844 L1002 1988 L1188 1802 Z"/><path class="fv7" d="M1188 1658 L1002 1844 L1002 1988 L1188 1802 Z" /></g><g class="o"><path transform="translate(2,4)" class="S sfv" d="M1735 1750 L2200 1285 L2200 1373 L1735 1838 Z"/><path class="fv6" d="M1735 1750 L2200 1285 L2200 1373 L1735 1838 Z" /></g><g class="o"><path transform="translate(9,18)" class="S ssv" d="M1045 974 L855 1164 L855 1180 L1045 990 Z"/><path class="sv7" d="M1045 974 L855 1164 L855 1180 L1045 990 Z" /></g><g class="o"><path transform="translate(8,16)" class="S sf" d="M1284 1525 L1986 2227 L1986 2363 L1284 1661 Z"/><path class="f7" d="M1284 1525 L1986 2227 L1986 2363 L1284 1661 Z" /></g><g class="o"><path transform="translate(4,8)" class="S sfv" d="M1674 1660 L2052 1282 L2052 1394 L1674 1772 Z"/><path class="fv6" d="M1674 1660 L2052 1282 L2052 1394 L1674 1772 Z" /></g><g class="o"><path transform="translate(3,6)" class="S sf" d="M1247 1389 L545 687 L545 723 L1247 1425 Z"/><path class="f3" d="M1247 1389 L545 687 L545 723 L1247 1425 Z" /></g><g class="o"><path transform="translate(3,6)" class="S sf" d="M1514 1061 L2078 1625 L2078 1639 L1514 1075 Z"/><path class="f5" d="M1514 1061 L2078 1625 L2078 1639 L1514 1075 Z" /></g><g class="o"><path transform="translate(7,14)" class="S sfh" d="M1962 1917 L1641 2238 L1671 2238 L1992 1917 Z"/><path class="fh1" d="M1962 1917 L1641 2238 L1671 2238 L1992 1917 Z" /></g><g class="o"><path transform="translate(4,8)" class="S ssh" d="M1512 1295 L1606 1201 L1654 1201 L1560 1295 Z"/><path class="sh3" d="M1512 1295 L1606 1201 L1654 1201 L1560 1295 Z" /></g><g class="o"><path transform="translate(4,8)" class="S sf" d="M1948 1140 L1714 906 L1714 924 L1948 1158 Z"/><path class="f7" d="M1948 1140 L1714 906 L1714 924 L1948 1158 Z" /></g><g class="o"><path transform="translate(3,6)" class="S sfv" d="M1395 1664 L1643 1416 L1643 1454 L1395 1702 Z"/><path class="fv6" d="M1395 1664 L1643 1416 L1643 1454 L1395 1702 Z" /></g><g class="o"><path transform="translate(7,14)" class="S ssv" d="M1433 1630 L1856 2053 L1856 2061 L1433 1638 Z"/><path class="sv1" d="M1433 1630 L1856 2053 L1856 2061 L1433 1638 Z" /></g><g class="o"><path transform="translate(9,18)" class="S sf" d="M1623 1609 L2070 1162 L2150 1162 L1703 1609 Z"/><path class="f3" d="M1623 1609 L2070 1162 L2150 1162 L1703 1609 Z" /></g><g class="o"><path transform="translate(3,6)" class="S sfh" d="M1928 1102 L2020 1010 L2172 1010 L2080 1102 Z"/><path class="fh2" d="M1928 1102 L2020 1010 L2172 1010 L2080 1102 Z" /></g><g class="o"><path transform="translate(7,14)" class="S sfv" d="M1012 1108 L583 1537 L583 1689 L1012 1260 Z"/><path class="fv3" d="M1012 1108 L583 1537 L583 1689 L1012 1260 Z" /></g><g class="o"><path transform="translate(8,16)" class="S ssh" d="M1627 968 L1751 844 L1839 844 L1715 968 Z"/><path class="sh1" d="M1627 968 L1751 844 L1839 844 L1715 968 Z" /></g><g class="o"><path transform="translate(4,8)" class="S sfh" d="M1685 971 L2390 266 L2420 266 L1715 971 Z"/><path class="fh5" d="M1685 971 L2390 266 L2420 266 L1715 971 Z" /></g><g class="o"><path transform="translate(9,18)" class="S sf" d="M981 1142 L1629 494 L1629 606 L981 1254 Z"/><path class="f6" d="M981 1142 L1629 494 L1629 606 L981 1254 Z" /></g><g class="o"><path transform="translate(5,10)" class="S sfv" d="M1864 1904 L1701 1741 L1701 1781 L1864 1944 Z"/><path class="fv7" d="M1864 1904 L1701 1741 L1701 1781 L1864 1944 Z" /></g><g class="o"><path transform="translate(7,14)" class="S sfv" d="M1717 1541 L1824 1434 L1824 1482 L1717 1589 Z"/><path class="fv5" d="M1717 1541 L1824 1434 L1824 1482 L1717 1589 Z" /></g><g class="o"><path transform="translate(9,18)" class="S sfh" d="M1426 1556 L2032 950 L2184 950 L1578 1556 Z"/><path class="fh7" d="M1426 1556 L2032 950 L2184 950 L1578 1556 Z" /></g><g class="o"><path transform="translate(9,18)" class="S sfv" d="M1587 1181 L1752 1016 L1752 1056 L1587 1221 Z"/><path class="fv7" d="M1587 1181 L1752 1016 L1752 1056 L1587 1221 Z" /></g><g class="o"><path transform="translate(6,12)" class="S sfv" d="M1763 979 L2441 1657 L2441 1753 L1763 1075 Z"/><path class="fv4" d="M1763 979 L2441 1657 L2441 1753 L1763 1075 Z" /></g><g class="o"><path transform="translate(7,14)" class="S sf" d="M1575 1112 L1753 934 L1777 934 L1599 1112 Z"/><path class="f5" d="M1575 1112 L1753 934 L1777 934 L1599 1112 Z" /></g><g class="o"><path transform="translate(7,14)" class="S sfh" d="M1058 1280 L1466 1688 L1578 1688 L1170 1280 Z"/><path class="fh7" d="M1058 1280 L1466 1688 L1578 1688 L1170 1280 Z" /></g><g class="o"><path transform="translate(6,12)" class="S sfh" d="M1112 1982 L950 2144 L1094 2144 L1256 1982 Z"/><path class="fh7" d="M1112 1982 L950 2144 L1094 2144 L1256 1982 Z" /></g><g class="o"><path transform="translate(2,4)" class="S sfh" d="M1439 1490 L1231 1698 L1279 1698 L1487 1490 Z"/><path class="fh6" d="M1439 1490 L1231 1698 L1279 1698 L1487 1490 Z" /></g><g class="o"><path transform="translate(2,4)" class="S ssv" d="M1644 1264 L1395 1015 L1395 1135 L1644 1384 Z"/><path class="sv6" d="M1644 1264 L1395 1015 L1395 1135 L1644 1384 Z" /></g><g class="o"><path transform="translate(8,16)" class="S sfv" d="M1841 1001 L1994 1154 L1994 1298 L1841 1145 Z"/><path class="fv1" d="M1841 1001 L1994 1154 L1994 1298 L1841 1145 Z" /></g><g class="o"><path transform="translate(5,10)" class="S sfh" d="M1320 1019 L741 1598 L763 1598 L1342 1019 Z"/><path class="fh2" d="M1320 1019 L741 1598 L763 1598 L1342 1019 Z" /></g><g class="o"><path transform="translate(5,10)" class="S sfv" d="M1047 1983 L1572 1458 L1572 1494 L1047 2019 Z"/><path class="fv1" d="M1047 1983 L1572 1458 L1572 1494 L1047 2019 Z" /></g><g class="o"><path transform="translate(4,8)" class="S sf" d="M1732 1919 L1839 2026 L1839 2138 L1732 2031 Z"/><path class="f1" d="M1732 1919 L1839 2026 L1839 2138 L1732 2031 Z" /></g><g class="o"><path transform="translate(5,10)" class="S ssh" d="M1721 1949 L1382 2288 L1462 2288 L1801 1949 Z"/><path class="sh4" d="M1721 1949 L1382 2288 L1462 2288 L1801 1949 Z" /></g><g class="o"><path transform="translate(4,8)" class="S sfh" d="M1337 1484 L1589 1736 L1625 1736 L1373 1484 Z"/><path class="fh5" d="M1337 1484 L1589 1736 L1625 1736 L1373 1484 Z" /></g><g class="o"><path transform="translate(5,10)" class="S sfv" d="M1711 1488 L1372 1827 L1372 1931 L1711 1592 Z"/><path class="fv5" d="M1711 1488 L1372 1827 L1372 1931 L1711 1592 Z" /></g><g class="o"><path transform="translate(5,10)" class="S sfh" d="M947 1650 L617 1980 L745 1980 L1075 1650 Z"/><path class="fh2" d="M947 1650 L617 1980 L745 1980 L1075 1650 Z" /></g><g class="o"><path transform="translate(4,8)" class="S sf" d="M2035 1427 L1579 1883 L1579 2003 L2035 1547 Z"/><path class="f4" d="M2035 1427 L1579 1883 L1579 2003 L2035 1547 Z" /></g><g class="o"><path transform="translate(8,16)" class="S sf" d="M1617 1460 L1266 1811 L1266 1891 L1617 1540 Z"/><path class="f7" d="M1617 1460 L1266 1811 L1266 1891 L1617 1540 Z" /></g><g class="o"><path transform="translate(5,10)" class="S sfh" d="M1655 1248 L1142 1761 L1198 1761 L1711 1248 Z"/><path class="fh6" d="M1655 1248 L1142 1761 L1198 1761 L1711 1248 Z" /></g><g class="o"><path transform="translate(2,4)" class="S ssh" d="M1498 1329 L1756 1071 L1900 1071 L1642 1329 Z"/><path class="sh2" d="M1498 1329 L1756 1071 L1900 1071 L1642 1329 Z" /></g><g class="o"><path transform="translate(5,10)" class="S sfh" d="M1660 1236 L1732 1308 L1868 1308 L1796 1236 Z"/><path class="fh5" d="M1660 1236 L1732 1308 L1868 1308 L1796 1236 Z" /></g><g class="o"><path transform="translate(4,8)" class="S sfh" d="M978 1611 L237 870 L333 870 L1074 1611 Z"/><path class="fh5" d="M978 1611 L237 870 L333 870 L1074 1611 Z" /></g><g class="o"><path transform="translate(4,8)" class="S sf" d="M1329 1412 L1056 1139 L1090 1139 L1363 1412 Z"/><path class="f7" d="M1329 1412 L1056 1139 L1090 1139 L1363 1412 Z" /></g><g class="o"><path transform="translate(2,4)" class="S sfh" d="M1162 1212 L577 627 L729 627 L1314 1212 Z"/><path class="fh3" d="M1162 1212 L577 627 L729 627 L1314 1212 Z" /></g><g class="o"><path transform="translate(4,8)" class="S sfv" d="M1330 1731 L1918 2319 L1918 2383 L1330 1795 Z"/><path class="fv7" d="M1330 1731 L1918 2319 L1918 2383 L1330 1795 Z" /></g><g class="o"><path transform="translate(2,4)" class="S ssv" d="M1969 1585 L1540 1156 L1540 1228 L1969 1657 Z"/><path class="sv5" d="M1969 1585 L1540 1156 L1540 1228 L1969 1657 Z" /></g><g class="o"><path transform="translate(6,12)" class="S sfh" d="M1845 1127 L2086 886 L2222 886 L1981 1127 Z"/><path class="fh3" d="M1845 1127 L2086 886 L2222 886 L1981 1127 Z" /></g><g class="o"><path transform="translate(4,8)" class="S ssv" d="M1004 1707 L850 1553 L850 1561 L1004 1715 Z"/><path class="sv2" d="M1004 1707 L850 1553 L850 1561 L1004 1715 Z" /></g><g class="o"><path transform="translate(8,16)" class="S sfv" d="M1279 1202 L1167 1314 L1167 1442 L1279 1330 Z"/><path class="fv7" d="M1279 1202 L1167 1314 L1167 1442 L1279 1330 Z" /></g><g class="o"><path transform="translate(8,16)" class="S sfv" d="M1204 1850 L1006 2048 L1006 2128 L1204 1930 Z"/><path class="fv5" d="M1204 1850 L1006 2048 L1006 2128 L1204 1930 Z" /></g><g class="o"><path transform="translate(2,4)" class="S sfh" d="M913 1272 L838 1347 L950 1347 L1025 1272 Z"/><path class="fh7" d="M913 1272 L838 1347 L950 1347 L1025 1272 Z" /></g><g class="o"><path transform="translate(3,6)" class="S sfh" d="M2000 2030 L1826 2204 L1848 2204 L2022 2030 Z"/><path class="fh4" d="M2000 2030 L1826 2204 L1848 2204 L2022 2030 Z" /></g><g class="o"><path transform="translate(9,18)" class="S sfh" d="M1811 1128 L2144 1461 L2264 1461 L1931 1128 Z"/><path class="fh1" d="M1811 1128 L2144 1461 L2264 1461 L1931 1128 Z" /></g><g class="o"><path transform="translate(4,8)" class="S sfh" d="M1687 1859 L1487 1659 L1507 1659 L1707 1859 Z"/><path class="fh1" d="M1687 1859 L1487 1659 L1507 1659 L1707 1859 Z" /></g><g class="o"><path transform="translate(9,18)" class="S sfv" d="M1376 1298 L1190 1112 L1190 1122 L1376 1308 Z"/><path class="fv6" d="M1376 1298 L1190 1112 L1190 1122 L1376 1308 Z" /></g><g class="o"><path transform="translate(8,16)" class="S sfh" d="M1106 1032 L1294 844 L1398 844 L1210 1032 Z"/><path class="fh6" d="M1106 1032 L1294 844 L1398 844 L1210 1032 Z" /></g><g class="o"><path transform="translate(7,14)" class="S sfv" d="M1835 1884 L2396 2445 L2396 2477 L1835 1916 Z"/><path class="fv3" d="M1835 1884 L2396 2445 L2396 2477 L1835 1916 Z" /></g><g class="o"><path transform="translate(2,4)" class="S sfh" d="M1114 1649 L1747 1016 L1819 1016 L1186 1649 Z"/><path class="fh6" d="M1114 1649 L1747 1016 L1819 1016 L1186 1649 Z" /></g><g class="o"><path transform="translate(3,6)" class="S ssv" d="M1047 1800 L1509 2262 L1509 2294 L1047 1832 Z"/><path class="sv7" d="M1047 1800 L1509 2262 L1509 2294 L1047 1832 Z" /></g><g class="o"><path transform="translate(8,16)" class="S ssh" d="M1753 1021 L1976 1244 L2048 1244 L1825 1021 Z"/><path class="sh1" d="M1753 1021 L1976 1244 L2048 1244 L1825 1021 Z" /></g><g class="o"><path transform="translate(9,18)" class="S ss" d="M1167 1129 L991 953 L991 991 L1167 1167 Z"/><path class="s3" d="M1167 1129 L991 953 L991 991 L1167 1167 Z" /></g><g class="o"><path transform="translate(9,18)" class="S sfh" d="M1840 1599 L2067 1826 L2099 1826 L1872 1599 Z"/><path class="fh6" d="M1840 1599 L2067 1826 L2099 1826 L1872 1599 Z" /></g></g><use href="#slashes" transform-origin="1500 1500" transform="rotate(180) scale(2)"/></g><rect x="1080" y="1080" width="840" height="840" stroke-width="20" class="o ss" /><use href="#slashes" transform-origin="1500 1500" transform="scale(.3)"/><use href="#slashes" transform-origin="1500 1500" transform="rotate(180) scale(.7)"/></svg>