<svg xmlns="http://www.w3.org/2000/svg" viewBox="750 750 1500 1500"><style>/*<![CDATA[*/svg{background:rgb(255,180,0);max-width:100vw;max-height:100vh}path{stroke-width:4}.o{opacity:.75}.S{opacity:.4}.sf{stroke:none;fill:black}.sfh{stroke:none;fill:url(#hs)}.sfv{stroke:none;fill:url(#vs)}.ss{stroke:black;fill:none}.ssh{stroke:url(#hs);fill:none}.ssv{stroke:url(#vs);fill:none}.s1{fill:none;stroke:rgb(41,42,115)}.f1{stroke:none;fill:rgb(41,42,115)}.sh1{fill:none;stroke:url(#h1)}.fh1{stroke:none;fill:url(#h1)}.sv1{fill:none;stroke:url(#v1)}.fv1{stroke:none;fill:url(#v1)}.s2{fill:none;stroke:rgb(34,34,34)}.f2{stroke:none;fill:rgb(34,34,34)}.sh2{fill:none;stroke:url(#h2)}.fh2{stroke:none;fill:url(#h2)}.sv2{fill:none;stroke:url(#v2)}.fv2{stroke:none;fill:url(#v2)}.s3{fill:none;stroke:rgb(0,166,237)}.f3{stroke:none;fill:rgb(0,166,237)}.sh3{fill:none;stroke:url(#h3)}.fh3{stroke:none;fill:url(#h3)}.sv3{fill:none;stroke:url(#v3)}.fv3{stroke:none;fill:url(#v3)}.s4{fill:none;stroke:rgb(246,81,29)}.f4{stroke:none;fill:rgb(246,81,29)}.sh4{fill:none;stroke:url(#h4)}.fh4{stroke:none;fill:url(#h4)}.sv4{fill:none;stroke:url(#v4)}.fv4{stroke:none;fill:url(#v4)}.s5{fill:none;stroke:rgb(13,44,84)}.f5{stroke:none;fill:rgb(13,44,84)}.sh5{fill:none;stroke:url(#h5)}.fh5{stroke:none;fill:url(#h5)}.sv5{fill:none;stroke:url(#v5)}.fv5{stroke:none;fill:url(#v5)}.s6{fill:none;stroke:rgb(255,255,255)}.f6{stroke:none;fill:rgb(255,255,255)}.sh6{fill:none;stroke:url(#h6)}.fh6{stroke:none;fill:url(#h6)}.sv6{fill:none;stroke:url(#v6)}.fv6{stroke:none;fill:url(#v6)}.s7{fill:none;stroke:rgb(255,0,0)}.f7{stroke:none;fill:rgb(255,0,0)}.sh7{fill:none;stroke:url(#h7)}.fh7{stroke:none;fill:url(#h7)}.sv7{fill:none;stroke:url(#v7)}.fv7{stroke:none;fill:url(#v7)}/*]]>*/</style><defs><linearGradient gradientTransform="rotate(90)" id="hs"><stop offset="20%" stop-color="#000" /><stop offset="95%" stop-color="rgba(0, 0, 0, 0)" /></linearGradient><linearGradient id="vs"><stop offset="20%" stop-color="#000" /><stop offset="95%" stop-color="rgba(0, 0, 0, 0)" /></linearGradient><linearGradient gradientTransform="rotate(90)" id="h1"><stop offset="20%" stop-color="rgba(41,42,115,1)" /><stop offset="95%" stop-color="rgba(41,42,115,0)" /></linearGradient><linearGradient id="v1"><stop offset="20%" stop-color="rgba(41,42,115,1)" /><stop offset="95%" stop-color="rgba(41,42,115,0)" /></linearGradient><linearGradient gradientTransform="rotate(90)" id="h2"><stop offset="20%" stop-color="rgba(34,34,34,1)" /><stop offset="95%" stop-color="rgba(34,34,34,0)" /></linearGradient><linearGradient id="v2"><stop offset="20%" stop-color="rgba(34,34,34,1)" /><stop offset="95%" stop-color="rgba(34,34,34,0)" /></linearGradient><linearGradient gradientTransform="rotate(90)" id="h3"><stop offset="20%" stop-color="rgba(0,166,237,1)" /><stop offset="95%" stop-color="rgba(0,166,237,0)" /></linearGradient><linearGradient id="v3"><stop offset="20%" stop-color="rgba(0,166,237,1)" /><stop offset="95%" stop-color="rgba(0,166,237,0)" /></linearGradient><linearGradient gradientTransform="rotate(90)" id="h4"><stop offset="20%" stop-color="rgba(246,81,29,1)" /><stop offset="95%" stop-color="rgba(246,81,29,0)" /></linearGradient><linearGradient id="v4"><stop offset="20%" stop-color="rgba(246,81,29,1)" /><stop offset="95%" stop-color="rgba(246,81,29,0)" /></linearGradient><linearGradient gradientTransform="rotate(90)" id="h5"><stop offset="20%" stop-color="rgba(13,44,84,1)" /><stop offset="95%" stop-color="rgba(13,44,84,0)" /></linearGradient><linearGradient id="v5"><stop offset="20%" stop-color="rgba(13,44,84,1)" /><stop offset="95%" stop-color="rgba(13,44,84,0)" /></linearGradient><linearGradient gradientTransform="rotate(90)" id="h6"><stop offset="20%" stop-color="rgba(255,255,255,1)" /><stop offset="95%" stop-color="rgba(255,255,255,0)" /></linearGradient><linearGradient id="v6"><stop offset="20%" stop-color="rgba(255,255,255,1)" /><stop offset="95%" stop-color="rgba(255,255,255,0)" /></linearGradient><linearGradient gradientTransform="rotate(90)" id="h7"><stop offset="20%" stop-color="rgba(255,0,0,1)" /><stop offset="95%" stop-color="rgba(255,0,0,0)" /></linearGradient><linearGradient id="v7"><stop offset="20%" stop-color="rgba(255,0,0,1)" /><stop offset="95%" stop-color="rgba(255,0,0,0)" /></linearGradient></defs><g transform-origin="1500 1500" transform="scale(2)" opacity=".2"><g id="slashes"><g class="o"><path transform="translate(3,6)" class="S ssv" d="M1665 1138 L1466 1337 L1466 1385 L1665 1186 Z"/><path class="sv2" d="M1665 1138 L1466 1337 L1466 1385 L1665 1186 Z" /></g><g class="o"><path transform="translate(7,14)" class="S sfv" d="M1347 1418 L1236 1529 L1236 1609 L1347 1498 Z"/><path class="fv4" d="M1347 1418 L1236 1529 L1236 1609 L1347 1498 Z" /></g><g class="o"><path transform="translate(4,8)" class="S sf" d="M1528 1951 L1466 2013 L1594 2013 L1656 1951 Z"/><path class="f7" d="M1528 1951 L1466 2013 L1594 2013 L1656 1951 Z" /></g><g class="o"><path transform="translate(2,4)" class="S sf" d="M2046 1780 L1908 1918 L1908 1974 L2046 1836 Z"/><path class="f6" d="M2046 1780 L1908 1918 L1908 1974 L2046 1836 Z" /></g><g class="o"><path transform="translate(9,18)" class="S sf" d="M1498 1858 L1291 2065 L1291 2177 L1498 1970 Z"/><path class="f5" d="M1498 1858 L1291 2065 L1291 2177 L1498 1970 Z" /></g><g class="o"><path transform="translate(8,16)" class="S ssv" d="M1692 999 L1459 1232 L1459 1296 L1692 1063 Z"/><path class="sv7" d="M1692 999 L1459 1232 L1459 1296 L1692 1063 Z" /></g><g class="o"><path transform="translate(7,14)" class="S ssv" d="M1439 1489 L1237 1691 L1237 1723 L1439 1521 Z"/><path class="sv7" d="M1439 1489 L1237 1691 L1237 1723 L1439 1521 Z" /></g><g class="o"><path transform="translate(7,14)" class="S sf" d="M1121 1396 L908 1183 L1012 1183 L1225 1396 Z"/><path class="f4" d="M1121 1396 L908 1183 L1012 1183 L1225 1396 Z" /></g><g class="o"><path transform="translate(2,4)" class="S sfh" d="M1175 1015 L1118 1072 L1270 1072 L1327 1015 Z"/><path class="fh5" d="M1175 1015 L1118 1072 L1270 1072 L1327 1015 Z" /></g><g class="o"><path transform="translate(3,6)" class="S sfh" d="M1504 2027 L1272 2259 L1280 2259 L1512 2027 Z"/><path class="fh5" d="M1504 2027 L1272 2259 L1280 2259 L1512 2027 Z" /></g><g class="o"><path transform="translate(4,8)" class="S sfh" d="M1661 1988 L1480 2169 L1520 2169 L1701 1988 Z"/><path class="fh2" d="M1661 1988 L1480 2169 L1520 2169 L1701 1988 Z" /></g><g class="o"><path transform="translate(2,4)" class="S sfh" d="M1864 965 L1712 1117 L1750 1117 L1902 965 Z"/><path class="fh3" d="M1864 965 L1712 1117 L1750 1117 L1902 965 Z" /></g><g class="o"><path transform="translate(5,10)" class="S sf" d="M1155 1567 L1026 1696 L1026 1724 L1155 1595 Z"/><path class="f4" d="M1155 1567 L1026 1696 L1026 1724 L1155 1595 Z" /></g><g class="o"><path transform="translate(8,16)" class="S sf" d="M950 1877 L753 1680 L753 1768 L950 1965 Z"/><path class="f2" d="M950 1877 L753 1680 L753 1768 L950 1965 Z" /></g><g class="o"><path transform="translate(5,10)" class="S sfv" d="M1810 1320 L1614 1516 L1614 1596 L1810 1400 Z"/><path class="fv2" d="M1810 1320 L1614 1516 L1614 1596 L1810 1400 Z" /></g><g class="o"><path transform="translate(7,14)" class="S sfv" d="M1463 879 L1294 710 L1294 854 L1463 1023 Z"/><path class="fv6" d="M1463 879 L1294 710 L1294 854 L1463 1023 Z" /></g><g class="o"><path transform="translate(2,4)" class="S sfh" d="M1120 2023 L984 2159 L1016 2159 L1152 2023 Z"/><path class="fh6" d="M1120 2023 L984 2159 L1016 2159 L1152 2023 Z" /></g><g class="o"><path transform="translate(7,14)" class="S sfv" d="M1737 1652 L1672 1587 L1672 1739 L1737 1804 Z"/><path class="fv2" d="M1737 1652 L1672 1587 L1672 1739 L1737 1804 Z" /></g><g class="o"><path transform="translate(3,6)" class="S ss" d="M2002 1970 L1787 2185 L1787 2305 L2002 2090 Z"/><path class="s1" d="M2002 1970 L1787 2185 L1787 2305 L2002 2090 Z" /></g><g class="o"><path transform="translate(4,8)" class="S sfv" d="M1857 987 L1699 829 L1699 861 L1857 1019 Z"/><path class="fv3" d="M1857 987 L1699 829 L1699 861 L1857 1019 Z" /></g><g class="o"><path transform="translate(7,14)" class="S ss" d="M1836 1277 L1712 1401 L1800 1401 L1924 1277 Z"/><path class="s3" d="M1836 1277 L1712 1401 L1800 1401 L1924 1277 Z" /></g><g class="o"><path transform="translate(2,4)" class="S sfh" d="M1585 1023 L1338 1270 L1458 1270 L1705 1023 Z"/><path class="fh7" d="M1585 1023 L1338 1270 L1458 1270 L1705 1023 Z" /></g><g class="o"><path transform="translate(7,14)" class="S sfh" d="M1583 1083 L1518 1148 L1590 1148 L1655 1083 Z"/><path class="fh3" d="M1583 1083 L1518 1148 L1590 1148 L1655 1083 Z" /></g><g class="o"><path transform="translate(4,8)" class="S sfv" d="M1119 1173 L886 1406 L886 1438 L1119 1205 Z"/><path class="fv1" d="M1119 1173 L886 1406 L886 1438 L1119 1205 Z" /></g><g class="o"><path transform="translate(2,4)" class="S sf" d="M1271 1141 L1027 1385 L1027 1465 L1271 1221 Z"/><path class="f6" d="M1271 1141 L1027 1385 L1027 1465 L1271 1221 Z" /></g><g class="o"><path transform="translate(4,8)" class="S ss" d="M973 1735 L902 1806 L902 1846 L973 1775 Z"/><path class="s4" d="M973 1735 L902 1806 L902 1846 L973 1775 Z" /></g><g class="o"><path transform="translate(5,10)" class="S ssv" d="M1479 1599 L1391 1687 L1391 1839 L1479 1751 Z"/><path class="sv7" d="M1479 1599 L1391 1687 L1391 1839 L1479 1751 Z" /></g><g class="o"><path transform="translate(9,18)" class="S sfh" d="M1901 1852 L1718 2035 L1814 2035 L1997 1852 Z"/><path class="fh5" d="M1901 1852 L1718 2035 L1814 2035 L1997 1852 Z" /></g><g class="o"><path transform="translate(7,14)" class="S sfv" d="M1471 986 L1234 1223 L1234 1255 L1471 1018 Z"/><path class="fv3" d="M1471 986 L1234 1223 L1234 1255 L1471 1018 Z" /></g><g class="o"><path transform="translate(2,4)" class="S ssv" d="M1272 1519 L1087 1704 L1087 1768 L1272 1583 Z"/><path class="sv1" d="M1272 1519 L1087 1704 L1087 1768 L1272 1583 Z" /></g><g class="o"><path transform="translate(9,18)" class="S sfh" d="M1916 1324 L1712 1528 L1746 1528 L1950 1324 Z"/><path class="fh1" d="M1916 1324 L1712 1528 L1746 1528 L1950 1324 Z" /></g><g class="o"><path transform="translate(8,16)" class="S sf" d="M1379 1321 L1231 1469 L1231 1565 L1379 1417 Z"/><path class="f5" d="M1379 1321 L1231 1469 L1231 1565 L1379 1417 Z" /></g><g class="o"><path transform="translate(7,14)" class="S sf" d="M1610 1763 L1395 1978 L1507 1978 L1722 1763 Z"/><path class="f4" d="M1610 1763 L1395 1978 L1507 1978 L1722 1763 Z" /></g><g class="o"><path transform="translate(3,6)" class="S ssh" d="M1331 1769 L1257 1843 L1329 1843 L1403 1769 Z"/><path class="sh4" d="M1331 1769 L1257 1843 L1329 1843 L1403 1769 Z" /></g><g class="o"><path transform="translate(3,6)" class="S sfv" d="M993 1837 L893 1937 L893 2017 L993 1917 Z"/><path class="fv1" d="M993 1837 L893 1937 L893 2017 L993 1917 Z" /></g><g class="o"><path transform="translate(5,10)" class="S sf" d="M1113 1748 L980 1881 L980 2009 L1113 1876 Z"/><path class="f6" d="M1113 1748 L980 1881 L980 2009 L1113 1876 Z" /></g><g class="o"><path transform="translate(9,18)" class="S sfh" d="M1173 1277 L1055 1395 L1135 1395 L1253 1277 Z"/><path class="fh6" d="M1173 1277 L1055 1395 L1135 1395 L1253 1277 Z" /></g><g class="o"><path transform="translate(2,4)" class="S sf" d="M1853 1436 L1694 1595 L1694 1731 L1853 1572 Z"/><path class="f6" d="M1853 1436 L1694 1595 L1694 1731 L1853 1572 Z" /></g><g class="o"><path transform="translate(9,18)" class="S ss" d="M1984 1161 L1913 1232 L1945 1232 L2016 1161 Z"/><path class="s1" d="M1984 1161 L1913 1232 L1945 1232 L2016 1161 Z" /></g><g class="o"><path transform="translate(4,8)" class="S sfv" d="M1507 1690 L1269 1928 L1269 2080 L1507 1842 Z"/><path class="fv7" d="M1507 1690 L1269 1928 L1269 2080 L1507 1842 Z" /></g><g class="o"><path transform="translate(2,4)" class="S sfv" d="M1333 1574 L1244 1485 L1244 1493 L1333 1582 Z"/><path class="fv2" d="M1333 1574 L1244 1485 L1244 1493 L1333 1582 Z" /></g><g class="o"><path transform="translate(7,14)" class="S sf" d="M1492 1460 L1311 1641 L1311 1681 L1492 1500 Z"/><path class="f7" d="M1492 1460 L1311 1641 L1311 1681 L1492 1500 Z" /></g><g class="o"><path transform="translate(2,4)" class="S sfv" d="M1991 1752 L1885 1858 L1885 2010 L1991 1904 Z"/><path class="fv2" d="M1991 1752 L1885 1858 L1885 2010 L1991 1904 Z" /></g><g class="o"><path transform="translate(4,8)" class="S sfh" d="M1216 973 L1159 1030 L1207 1030 L1264 973 Z"/><path class="fh1" d="M1216 973 L1159 1030 L1207 1030 L1264 973 Z" /></g><g class="o"><path transform="translate(6,12)" class="S sfv" d="M1318 1588 L1230 1676 L1230 1820 L1318 1732 Z"/><path class="fv3" d="M1318 1588 L1230 1676 L1230 1820 L1318 1732 Z" /></g><g class="o"><path transform="translate(8,16)" class="S sfh" d="M1679 1517 L1590 1606 L1614 1606 L1703 1517 Z"/><path class="fh7" d="M1679 1517 L1590 1606 L1614 1606 L1703 1517 Z" /></g><g class="o"><path transform="translate(7,14)" class="S sf" d="M1623 963 L1557 897 L1557 1033 L1623 1099 Z"/><path class="f2" d="M1623 963 L1557 897 L1557 1033 L1623 1099 Z" /></g><g class="o"><path transform="translate(2,4)" class="S sf" d="M1000 1177 L849 1026 L849 1146 L1000 1297 Z"/><path class="f5" d="M1000 1177 L849 1026 L849 1146 L1000 1297 Z" /></g><g class="o"><path transform="translate(9,18)" class="S sfv" d="M1870 1689 L1781 1778 L1781 1874 L1870 1785 Z"/><path class="fv7" d="M1870 1689 L1781 1778 L1781 1874 L1870 1785 Z" /></g><g class="o"><path transform="translate(7,14)" class="S sf" d="M1729 1555 L1679 1605 L1767 1605 L1817 1555 Z"/><path class="f5" d="M1729 1555 L1679 1605 L1767 1605 L1817 1555 Z" /></g><g class="o"><path transform="translate(5,10)" class="S sfv" d="M1193 1977 L1011 1795 L1011 1859 L1193 2041 Z"/><path class="fv4" d="M1193 1977 L1011 1795 L1011 1859 L1193 2041 Z" /></g><g class="o"><path transform="translate(4,8)" class="S sfh" d="M1758 1743 L1703 1798 L1783 1798 L1838 1743 Z"/><path class="fh7" d="M1758 1743 L1703 1798 L1783 1798 L1838 1743 Z" /></g><g class="o"><path transform="translate(9,18)" class="S sfh" d="M1698 1398 L1459 1637 L1587 1637 L1826 1398 Z"/><path class="fh7" d="M1698 1398 L1459 1637 L1587 1637 L1826 1398 Z" /></g><g class="o"><path transform="translate(6,12)" class="S ss" d="M1580 1710 L1501 1789 L1557 1789 L1636 1710 Z"/><path class="s3" d="M1580 1710 L1501 1789 L1557 1789 L1636 1710 Z" /></g><g class="o"><path transform="translate(2,4)" class="S sfh" d="M1064 1606 L831 1839 L871 1839 L1104 1606 Z"/><path class="fh3" d="M1064 1606 L831 1839 L871 1839 L1104 1606 Z" /></g><g class="o"><path transform="translate(5,10)" class="S sfv" d="M1554 1428 L1368 1614 L1368 1750 L1554 1564 Z"/><path class="fv7" d="M1554 1428 L1368 1614 L1368 1750 L1554 1564 Z" /></g><g class="o"><path transform="translate(9,18)" class="S sfv" d="M1577 1041 L1448 1170 L1448 1290 L1577 1161 Z"/><path class="fv3" d="M1577 1041 L1448 1170 L1448 1290 L1577 1161 Z" /></g><g class="o"><path transform="translate(7,14)" class="S sfv" d="M961 1343 L883 1421 L883 1509 L961 1431 Z"/><path class="fv5" d="M961 1343 L883 1421 L883 1509 L961 1431 Z" /></g><g class="o"><path transform="translate(4,8)" class="S sf" d="M1561 1688 L1414 1541 L1414 1669 L1561 1816 Z"/><path class="f7" d="M1561 1688 L1414 1541 L1414 1669 L1561 1816 Z" /></g><g class="o"><path transform="translate(2,4)" class="S sfh" d="M1286 1109 L1161 984 L1175 984 L1300 1109 Z"/><path class="fh7" d="M1286 1109 L1161 984 L1175 984 L1300 1109 Z" /></g><g class="o"><path transform="translate(3,6)" class="S sfv" d="M1180 1286 L937 1529 L937 1545 L1180 1302 Z"/><path class="fv1" d="M1180 1286 L937 1529 L937 1545 L1180 1302 Z" /></g><g class="o"><path transform="translate(6,12)" class="S ssv" d="M1192 1828 L983 1619 L983 1683 L1192 1892 Z"/><path class="sv3" d="M1192 1828 L983 1619 L983 1683 L1192 1892 Z" /></g><g class="o"><path transform="translate(2,4)" class="S sfh" d="M1262 1948 L1043 2167 L1083 2167 L1302 1948 Z"/><path class="fh3" d="M1262 1948 L1043 2167 L1083 2167 L1302 1948 Z" /></g><g class="o"><path transform="translate(6,12)" class="S sfh" d="M1012 1517 L910 1619 L998 1619 L1100 1517 Z"/><path class="fh1" d="M1012 1517 L910 1619 L998 1619 L1100 1517 Z" /></g><g class="o"><path transform="translate(4,8)" class="S sf" d="M1620 1602 L1479 1743 L1583 1743 L1724 1602 Z"/><path class="f6" d="M1620 1602 L1479 1743 L1583 1743 L1724 1602 Z" /></g><g class="o"><path transform="translate(2,4)" class="S sfh" d="M1453 1129 L1228 1354 L1258 1354 L1483 1129 Z"/><path class="fh2" d="M1453 1129 L1228 1354 L1258 1354 L1483 1129 Z" /></g><g class="o"><path transform="translate(4,8)" class="S sfh" d="M1558 992 L1472 906 L1504 906 L1590 992 Z"/><path class="fh7" d="M1558 992 L1472 906 L1504 906 L1590 992 Z" /></g><g class="o"><path transform="translate(3,6)" class="S sfv" d="M1334 1889 L1133 2090 L1133 2128 L1334 1927 Z"/><path class="fv1" d="M1334 1889 L1133 2090 L1133 2128 L1334 1927 Z" /></g><g class="o"><path transform="translate(2,4)" class="S sfh" d="M1074 1309 L976 1407 L1104 1407 L1202 1309 Z"/><path class="fh2" d="M1074 1309 L976 1407 L1104 1407 L1202 1309 Z" /></g><g class="o"><path transform="translate(9,18)" class="S sf" d="M1842 1458 L1629 1671 L1677 1671 L1890 1458 Z"/><path class="f1" d="M1842 1458 L1629 1671 L1677 1671 L1890 1458 Z" /></g><g class="o"><path transform="translate(6,12)" class="S sfh" d="M1459 2009 L1211 1761 L1251 1761 L1499 2009 Z"/><path class="fh2" d="M1459 2009 L1211 1761 L1251 1761 L1499 2009 Z" /></g><g class="o"><path transform="translate(2,4)" class="S sfh" d="M1657 1730 L1461 1926 L1475 1926 L1671 1730 Z"/><path class="fh3" d="M1657 1730 L1461 1926 L1475 1926 L1671 1730 Z" /></g><g class="o"><path transform="translate(3,6)" class="S ssh" d="M1369 1022 L1148 1243 L1180 1243 L1401 1022 Z"/><path class="sh2" d="M1369 1022 L1148 1243 L1180 1243 L1401 1022 Z" /></g><g class="o"><path transform="translate(8,16)" class="S ssh" d="M1222 1876 L1142 1956 L1294 1956 L1374 1876 Z"/><path class="sh3" d="M1222 1876 L1142 1956 L1294 1956 L1374 1876 Z" /></g><g class="o"><path transform="translate(3,6)" class="S ssh" d="M1626 1341 L1480 1487 L1616 1487 L1762 1341 Z"/><path class="sh4" d="M1626 1341 L1480 1487 L1616 1487 L1762 1341 Z" /></g><g class="o"><path transform="translate(5,10)" class="S sfh" d="M1281 1201 L1099 1383 L1195 1383 L1377 1201 Z"/><path class="fh1" d="M1281 1201 L1099 1383 L1195 1383 L1377 1201 Z" /></g><g class="o"><path transform="translate(4,8)" class="S sfh" d="M1458 1362 L1302 1206 L1422 1206 L1578 1362 Z"/><path class="fh3" d="M1458 1362 L1302 1206 L1422 1206 L1578 1362 Z" /></g><g class="o"><path transform="translate(3,6)" class="S sf" d="M1229 1073 L1031 1271 L1183 1271 L1381 1073 Z"/><path class="f7" d="M1229 1073 L1031 1271 L1183 1271 L1381 1073 Z" /></g><g class="o"><path transform="translate(2,4)" class="S sfh" d="M927 1353 L683 1109 L819 1109 L1063 1353 Z"/><path class="fh2" d="M927 1353 L683 1109 L819 1109 L1063 1353 Z" /></g><g class="o"><path transform="translate(5,10)" class="S sf" d="M1794 1892 L1591 2095 L1591 2159 L1794 1956 Z"/><path class="f5" d="M1794 1892 L1591 2095 L1591 2159 L1794 1956 Z" /></g><g class="o"><path transform="translate(8,16)" class="S sfv" d="M1150 1042 L927 1265 L927 1409 L1150 1186 Z"/><path class="fv4" d="M1150 1042 L927 1265 L927 1409 L1150 1186 Z" /></g><g class="o"><path transform="translate(2,4)" class="S sf" d="M1082 1616 L1014 1684 L1044 1684 L1112 1616 Z"/><path class="f6" d="M1082 1616 L1014 1684 L1044 1684 L1112 1616 Z" /></g><g class="o"><path transform="translate(6,12)" class="S sfh" d="M1990 1390 L1906 1306 L1916 1306 L2000 1390 Z"/><path class="fh3" d="M1990 1390 L1906 1306 L1916 1306 L2000 1390 Z" /></g><g class="o"><path transform="translate(4,8)" class="S sfv" d="M1148 1006 L1077 1077 L1077 1109 L1148 1038 Z"/><path class="fv7" d="M1148 1006 L1077 1077 L1077 1109 L1148 1038 Z" /></g><g class="o"><path transform="translate(6,12)" class="S sfv" d="M1791 1795 L1680 1684 L1680 1716 L1791 1827 Z"/><path class="fv1" d="M1791 1795 L1680 1684 L1680 1716 L1791 1827 Z" /></g><g class="o"><path transform="translate(2,4)" class="S sfh" d="M1484 1820 L1386 1918 L1396 1918 L1494 1820 Z"/><path class="fh3" d="M1484 1820 L1386 1918 L1396 1918 L1494 1820 Z" /></g><g class="o"><path transform="translate(5,10)" class="S sfv" d="M1338 1699 L1232 1805 L1232 1949 L1338 1843 Z"/><path class="fv5" d="M1338 1699 L1232 1805 L1232 1949 L1338 1843 Z" /></g><g class="o"><path transform="translate(7,14)" class="S sf" d="M1997 1100 L1791 894 L1791 974 L1997 1180 Z"/><path class="f1" d="M1997 1100 L1791 894 L1791 974 L1997 1180 Z" /></g><g class="o"><path transform="translate(9,18)" class="S sfv" d="M1939 1995 L1762 2172 L1762 2188 L1939 2011 Z"/><path class="fv6" d="M1939 1995 L1762 2172 L1762 2188 L1939 2011 Z" /></g><g class="o"><path transform="translate(9,18)" class="S sfh" d="M1107 1279 L963 1135 L1059 1135 L1203 1279 Z"/><path class="fh1" d="M1107 1279 L963 1135 L1059 1135 L1203 1279 Z" /></g><g class="o"><path transform="translate(4,8)" class="S sfv" d="M1446 1026 L1295 875 L1295 915 L1446 1066 Z"/><path class="fv5" d="M1446 1026 L1295 875 L1295 915 L1446 1066 Z" /></g><g class="o"><path transform="translate(8,16)" class="S sfh" d="M1894 1781 L1708 1967 L1742 1967 L1928 1781 Z"/><path class="fh1" d="M1894 1781 L1708 1967 L1742 1967 L1928 1781 Z" /></g><g class="o"><path transform="translate(3,6)" class="S sfh" d="M1767 1840 L1570 1643 L1674 1643 L1871 1840 Z"/><path class="fh5" d="M1767 1840 L1570 1643 L1674 1643 L1871 1840 Z" /></g><g class="o"><path transform="translate(3,6)" class="S sf" d="M1432 1089 L1378 1035 L1378 1091 L1432 1145 Z"/><path class="f6" d="M1432 1089 L1378 1035 L1378 1091 L1432 1145 Z" /></g><g class="o"><path transform="translate(9,18)" class="S ss" d="M1425 1081 L1331 987 L1379 987 L1473 1081 Z"/><path class="s3" d="M1425 1081 L1331 987 L1379 987 L1473 1081 Z" /></g><g class="o"><path transform="translate(2,4)" class="S sfv" d="M1262 1227 L1047 1012 L1047 1068 L1262 1283 Z"/><path class="fv3" d="M1262 1227 L1047 1012 L1047 1068 L1262 1283 Z" /></g><g class="o"><path transform="translate(2,4)" class="S sf" d="M1262 1385 L1142 1505 L1142 1527 L1262 1407 Z"/><path class="f4" d="M1262 1385 L1142 1505 L1142 1527 L1262 1407 Z" /></g><g class="o"><path transform="translate(8,16)" class="S sfh" d="M2023 1798 L1932 1889 L1958 1889 L2049 1798 Z"/><path class="fh3" d="M2023 1798 L1932 1889 L1958 1889 L2049 1798 Z" /></g><g class="o"><path transform="translate(7,14)" class="S sf" d="M1712 1569 L1470 1811 L1470 1955 L1712 1713 Z"/><path class="f1" d="M1712 1569 L1470 1811 L1470 1955 L1712 1713 Z" /></g><g class="o"><path transform="translate(3,6)" class="S sfh" d="M1991 1707 L1872 1588 L1984 1588 L2103 1707 Z"/><path class="fh5" d="M1991 1707 L1872 1588 L1984 1588 L2103 1707 Z" /></g><g class="o"><path transform="translate(9,18)" class="S sfh" d="M1376 1648 L1199 1825 L1215 1825 L1392 1648 Z"/><path class="fh7" d="M1376 1648 L1199 1825 L1215 1825 L1392 1648 Z" /></g><g class="o"><path transform="translate(9,18)" class="S ssh" d="M1975 1882 L1917 1940 L2029 1940 L2087 1882 Z"/><path class="sh6" d="M1975 1882 L1917 1940 L2029 1940 L2087 1882 Z" /></g><g class="o"><path transform="translate(2,4)" class="S sfv" d="M1566 1643 L1322 1887 L1322 2039 L1566 1795 Z"/><path class="fv5" d="M1566 1643 L1322 1887 L1322 2039 L1566 1795 Z" /></g><g class="o"><path transform="translate(4,8)" class="S ss" d="M1121 1098 L971 1248 L971 1288 L1121 1138 Z"/><path class="s7" d="M1121 1098 L971 1248 L971 1288 L1121 1138 Z" /></g><g class="o"><path transform="translate(9,18)" class="S sfh" d="M1117 1678 L1056 1617 L1112 1617 L1173 1678 Z"/><path class="fh3" d="M1117 1678 L1056 1617 L1112 1617 L1173 1678 Z" /></g><g class="o"><path transform="translate(8,16)" class="S sfh" d="M1894 1435 L1738 1591 L1776 1591 L1932 1435 Z"/><path class="fh3" d="M1894 1435 L1738 1591 L1776 1591 L1932 1435 Z" /></g><g class="o"><path transform="translate(3,6)" class="S sf" d="M2009 967 L1794 1182 L1794 1196 L2009 981 Z"/><path class="f5" d="M2009 967 L1794 1182 L1794 1196 L2009 981 Z" /></g><g class="o"><path transform="translate(6,12)" class="S sfv" d="M1653 1088 L1535 1206 L1535 1246 L1653 1128 Z"/><path class="fv4" d="M1653 1088 L1535 1206 L1535 1246 L1653 1128 Z" /></g><g class="o"><path transform="translate(4,8)" class="S sfh" d="M941 1099 L730 1310 L818 1310 L1029 1099 Z"/><path class="fh7" d="M941 1099 L730 1310 L818 1310 L1029 1099 Z" /></g><g class="o"><path transform="translate(4,8)" class="S sfh" d="M1508 1501 L1373 1636 L1445 1636 L1580 1501 Z"/><path class="fh4" d="M1508 1501 L1373 1636 L1445 1636 L1580 1501 Z" /></g><g class="o"><path transform="translate(2,4)" class="S sfv" d="M1156 1761 L1076 1841 L1076 1937 L1156 1857 Z"/><path class="fv7" d="M1156 1761 L1076 1841 L1076 1937 L1156 1857 Z" /></g><g class="o"><path transform="translate(2,4)" class="S sfh" d="M1407 1794 L1284 1917 L1356 1917 L1479 1794 Z"/><path class="fh1" d="M1407 1794 L1284 1917 L1356 1917 L1479 1794 Z" /></g><g class="o"><path transform="translate(6,12)" class="S sfv" d="M1769 1301 L1606 1464 L1606 1528 L1769 1365 Z"/><path class="fv5" d="M1769 1301 L1606 1464 L1606 1528 L1769 1365 Z" /></g><g class="o"><path transform="translate(9,18)" class="S sfv" d="M1574 1718 L1346 1946 L1346 2058 L1574 1830 Z"/><path class="fv6" d="M1574 1718 L1346 1946 L1346 2058 L1574 1830 Z" /></g><g class="o"><path transform="translate(5,10)" class="S sfv" d="M1983 1622 L1829 1776 L1829 1920 L1983 1766 Z"/><path class="fv4" d="M1983 1622 L1829 1776 L1829 1920 L1983 1766 Z" /></g><g class="o"><path transform="translate(4,8)" class="S sfv" d="M1361 1321 L1254 1428 L1254 1458 L1361 1351 Z"/><path class="fv3" d="M1361 1321 L1254 1428 L1254 1458 L1361 1351 Z" /></g><g class="o"><path transform="translate(9,18)" class="S sfv" d="M1005 1253 L916 1342 L916 1406 L1005 1317 Z"/><path class="fv6" d="M1005 1253 L916 1342 L916 1406 L1005 1317 Z" /></g><g class="o"><path transform="translate(2,4)" class="S sfh" d="M1095 1045 L1045 1095 L1093 1095 L1143 1045 Z"/><path class="fh3" d="M1095 1045 L1045 1095 L1093 1095 L1143 1045 Z" /></g><g class="o"><path transform="translate(3,6)" class="S sfh" d="M1468 1379 L1309 1538 L1405 1538 L1564 1379 Z"/><path class="fh1" d="M1468 1379 L1309 1538 L1405 1538 L1564 1379 Z" /></g><g class="o"><path transform="translate(8,16)" class="S sfv" d="M1131 1361 L981 1511 L981 1647 L1131 1497 Z"/><path class="fv7" d="M1131 1361 L981 1511 L981 1647 L1131 1497 Z" /></g></g><use href="#slashes" transform-origin="1500 1500" transform="rotate(180) scale(2)"/></g><polyline points="1500,1010 1990,1500 1500,1990 1010,1500 1500,1010 1990,1500" stroke-width="160" class="o s1" /><use href="#slashes" transform-origin="1500 1500" transform="scale(.7)"/><use href="#slashes" transform-origin="1500 1500" transform="rotate(180) scale(.3)"/></svg>