<svg xmlns="http://www.w3.org/2000/svg" viewBox="750 750 1500 1500"><style>/*<![CDATA[*/svg{background:rgb(34,34,34);max-width:100vw;max-height:100vh}path{stroke-width:4}.o{opacity:.75}.S{opacity:.4}.sf{stroke:none;fill:black}.sfh{stroke:none;fill:url(#hs)}.sfv{stroke:none;fill:url(#vs)}.ss{stroke:black;fill:none}.ssh{stroke:url(#hs);fill:none}.ssv{stroke:url(#vs);fill:none}.s1{fill:none;stroke:rgb(242,226,5)}.f1{stroke:none;fill:rgb(242,226,5)}.sh1{fill:none;stroke:url(#h1)}.fh1{stroke:none;fill:url(#h1)}.sv1{fill:none;stroke:url(#v1)}.fv1{stroke:none;fill:url(#v1)}.s2{fill:none;stroke:rgb(246,81,29)}.f2{stroke:none;fill:rgb(246,81,29)}.sh2{fill:none;stroke:url(#h2)}.fh2{stroke:none;fill:url(#h2)}.sv2{fill:none;stroke:url(#v2)}.fv2{stroke:none;fill:url(#v2)}.s3{fill:none;stroke:rgb(242,235,220)}.f3{stroke:none;fill:rgb(242,235,220)}.sh3{fill:none;stroke:url(#h3)}.fh3{stroke:none;fill:url(#h3)}.sv3{fill:none;stroke:url(#v3)}.fv3{stroke:none;fill:url(#v3)}.s4{fill:none;stroke:rgb(63,2,89)}.f4{stroke:none;fill:rgb(63,2,89)}.sh4{fill:none;stroke:url(#h4)}.fh4{stroke:none;fill:url(#h4)}.sv4{fill:none;stroke:url(#v4)}.fv4{stroke:none;fill:url(#v4)}.s5{fill:none;stroke:rgb(96,96,96)}.f5{stroke:none;fill:rgb(96,96,96)}.sh5{fill:none;stroke:url(#h5)}.fh5{stroke:none;fill:url(#h5)}.sv5{fill:none;stroke:url(#v5)}.fv5{stroke:none;fill:url(#v5)}.s6{fill:none;stroke:rgb(255,255,255)}.f6{stroke:none;fill:rgb(255,255,255)}.sh6{fill:none;stroke:url(#h6)}.fh6{stroke:none;fill:url(#h6)}.sv6{fill:none;stroke:url(#v6)}.fv6{stroke:none;fill:url(#v6)}.s7{fill:none;stroke:rgb(255,0,0)}.f7{stroke:none;fill:rgb(255,0,0)}.sh7{fill:none;stroke:url(#h7)}.fh7{stroke:none;fill:url(#h7)}.sv7{fill:none;stroke:url(#v7)}.fv7{stroke:none;fill:url(#v7)}/*]]>*/</style><defs><linearGradient gradientTransform="rotate(90)" id="hs"><stop offset="20%" stop-color="#000" /><stop offset="95%" stop-color="rgba(0, 0, 0, 0)" /></linearGradient><linearGradient id="vs"><stop offset="20%" stop-color="#000" /><stop offset="95%" stop-color="rgba(0, 0, 0, 0)" /></linearGradient><linearGradient gradientTransform="rotate(90)" id="h1"><stop offset="20%" stop-color="rgba(242,226,5,1)" /><stop offset="95%" stop-color="rgba(242,226,5,0)" /></linearGradient><linearGradient id="v1"><stop offset="20%" stop-color="rgba(242,226,5,1)" /><stop offset="95%" stop-color="rgba(242,226,5,0)" /></linearGradient><linearGradient gradientTransform="rotate(90)" id="h2"><stop offset="20%" stop-color="rgba(246,81,29,1)" /><stop offset="95%" stop-color="rgba(246,81,29,0)" /></linearGradient><linearGradient id="v2"><stop offset="20%" stop-color="rgba(246,81,29,1)" /><stop offset="95%" stop-color="rgba(246,81,29,0)" /></linearGradient><linearGradient gradientTransform="rotate(90)" id="h3"><stop offset="20%" stop-color="rgba(242,235,220,1)" /><stop offset="95%" stop-color="rgba(242,235,220,0)" /></linearGradient><linearGradient id="v3"><stop offset="20%" stop-color="rgba(242,235,220,1)" /><stop offset="95%" stop-color="rgba(242,235,220,0)" /></linearGradient><linearGradient gradientTransform="rotate(90)" id="h4"><stop offset="20%" stop-color="rgba(63,2,89,1)" /><stop offset="95%" stop-color="rgba(63,2,89,0)" /></linearGradient><linearGradient id="v4"><stop offset="20%" stop-color="rgba(63,2,89,1)" /><stop offset="95%" stop-color="rgba(63,2,89,0)" /></linearGradient><linearGradient gradientTransform="rotate(90)" id="h5"><stop offset="20%" stop-color="rgba(96,96,96,1)" /><stop offset="95%" stop-color="rgba(96,96,96,0)" /></linearGradient><linearGradient id="v5"><stop offset="20%" stop-color="rgba(96,96,96,1)" /><stop offset="95%" stop-color="rgba(96,96,96,0)" /></linearGradient><linearGradient gradientTransform="rotate(90)" id="h6"><stop offset="20%" stop-color="rgba(255,255,255,1)" /><stop offset="95%" stop-color="rgba(255,255,255,0)" /></linearGradient><linearGradient id="v6"><stop offset="20%" stop-color="rgba(255,255,255,1)" /><stop offset="95%" stop-color="rgba(255,255,255,0)" /></linearGradient><linearGradient gradientTransform="rotate(90)" id="h7"><stop offset="20%" stop-color="rgba(255,0,0,1)" /><stop offset="95%" stop-color="rgba(255,0,0,0)" /></linearGradient><linearGradient id="v7"><stop offset="20%" stop-color="rgba(255,0,0,1)" /><stop offset="95%" stop-color="rgba(255,0,0,0)" /></linearGradient></defs><g transform-origin="1500 1500" transform="scale(2)" opacity=".2"><g id="slashes"><g class="o"><path transform="translate(9,18)" class="S sfh" d="M1187 2033 L1010 1856 L1026 1856 L1203 2033 Z"/><path class="fh4" d="M1187 2033 L1010 1856 L1026 1856 L1203 2033 Z" /></g><g class="o"><path transform="translate(3,6)" class="S sfv" d="M1978 1862 L1744 1628 L1744 1652 L1978 1886 Z"/><path class="fv4" d="M1978 1862 L1744 1628 L1744 1652 L1978 1886 Z" /></g><g class="o"><path transform="translate(5,10)" class="S sfh" d="M1122 1308 L913 1517 L945 1517 L1154 1308 Z"/><path class="fh4" d="M1122 1308 L913 1517 L945 1517 L1154 1308 Z" /></g><g class="o"><path transform="translate(7,14)" class="S sfv" d="M1969 1159 L2118 1308 L2118 1336 L1969 1187 Z"/><path class="fv5" d="M1969 1159 L2118 1308 L2118 1336 L1969 1187 Z" /></g><g class="o"><path transform="translate(4,8)" class="S sfh" d="M1567 1148 L1436 1017 L1468 1017 L1599 1148 Z"/><path class="fh4" d="M1567 1148 L1436 1017 L1468 1017 L1599 1148 Z" /></g><g class="o"><path transform="translate(2,4)" class="S sfh" d="M1953 1764 L1287 2430 L1313 2430 L1979 1764 Z"/><path class="fh2" d="M1953 1764 L1287 2430 L1313 2430 L1979 1764 Z" /></g><g class="o"><path transform="translate(9,18)" class="S sfv" d="M1672 1715 L1559 1602 L1559 1622 L1672 1735 Z"/><path class="fv4" d="M1672 1715 L1559 1602 L1559 1622 L1672 1735 Z" /></g><g class="o"><path transform="translate(9,18)" class="S sfv" d="M1137 1229 L1202 1294 L1202 1446 L1137 1381 Z"/><path class="fv5" d="M1137 1229 L1202 1294 L1202 1446 L1137 1381 Z" /></g><g class="o"><path transform="translate(7,14)" class="S sf" d="M1266 1710 L1211 1655 L1211 1679 L1266 1734 Z"/><path class="f6" d="M1266 1710 L1211 1655 L1211 1679 L1266 1734 Z" /></g><g class="o"><path transform="translate(4,8)" class="S sfv" d="M1814 1145 L1875 1206 L1875 1238 L1814 1177 Z"/><path class="fv5" d="M1814 1145 L1875 1206 L1875 1238 L1814 1177 Z" /></g><g class="o"><path transform="translate(7,14)" class="S sf" d="M1291 1696 L1972 1015 L1972 1049 L1291 1730 Z"/><path class="f3" d="M1291 1696 L1972 1015 L1972 1049 L1291 1730 Z" /></g><g class="o"><path transform="translate(6,12)" class="S sf" d="M1155 1087 L891 823 L923 823 L1187 1087 Z"/><path class="f2" d="M1155 1087 L891 823 L923 823 L1187 1087 Z" /></g><g class="o"><path transform="translate(8,16)" class="S sf" d="M1943 1512 L1732 1301 L1732 1339 L1943 1550 Z"/><path class="f5" d="M1943 1512 L1732 1301 L1732 1339 L1943 1550 Z" /></g><g class="o"><path transform="translate(2,4)" class="S sfh" d="M1074 1972 L1203 2101 L1235 2101 L1106 1972 Z"/><path class="fh6" d="M1074 1972 L1203 2101 L1235 2101 L1106 1972 Z" /></g><g class="o"><path transform="translate(4,8)" class="S sfh" d="M977 1131 L772 926 L804 926 L1009 1131 Z"/><path class="fh4" d="M977 1131 L772 926 L804 926 L1009 1131 Z" /></g><g class="o"><path transform="translate(7,14)" class="S sfh" d="M1608 1632 L1461 1485 L1557 1485 L1704 1632 Z"/><path class="fh5" d="M1608 1632 L1461 1485 L1557 1485 L1704 1632 Z" /></g><g class="o"><path transform="translate(5,10)" class="S ssh" d="M1861 1982 L1930 1913 L1954 1913 L1885 1982 Z"/><path class="sh6" d="M1861 1982 L1930 1913 L1954 1913 L1885 1982 Z" /></g><g class="o"><path transform="translate(8,16)" class="S sf" d="M1048 1174 L1254 1380 L1290 1380 L1084 1174 Z"/><path class="f2" d="M1048 1174 L1254 1380 L1290 1380 L1084 1174 Z" /></g><g class="o"><path transform="translate(2,4)" class="S ssh" d="M1846 1111 L1639 1318 L1651 1318 L1858 1111 Z"/><path class="sh2" d="M1846 1111 L1639 1318 L1651 1318 L1858 1111 Z" /></g><g class="o"><path transform="translate(4,8)" class="S sfv" d="M1895 1573 L1985 1483 L1985 1499 L1895 1589 Z"/><path class="fv7" d="M1895 1573 L1985 1483 L1985 1499 L1895 1589 Z" /></g><g class="o"><path transform="translate(6,12)" class="S sfv" d="M1219 1054 L1122 957 L1122 987 L1219 1084 Z"/><path class="fv5" d="M1219 1054 L1122 957 L1122 987 L1219 1084 Z" /></g><g class="o"><path transform="translate(3,6)" class="S sf" d="M1557 1681 L1239 1999 L1239 2035 L1557 1717 Z"/><path class="f7" d="M1557 1681 L1239 1999 L1239 2035 L1557 1717 Z" /></g><g class="o"><path transform="translate(4,8)" class="S sfv" d="M1625 1758 L1422 1961 L1422 1989 L1625 1786 Z"/><path class="fv5" d="M1625 1758 L1422 1961 L1422 1989 L1625 1786 Z" /></g><g class="o"><path transform="translate(7,14)" class="S sfh" d="M904 1476 L976 1404 L1072 1404 L1000 1476 Z"/><path class="fh3" d="M904 1476 L976 1404 L1072 1404 L1000 1476 Z" /></g><g class="o"><path transform="translate(2,4)" class="S sfh" d="M1007 1533 L1145 1671 L1183 1671 L1045 1533 Z"/><path class="fh1" d="M1007 1533 L1145 1671 L1183 1671 L1045 1533 Z" /></g><g class="o"><path transform="translate(8,16)" class="S sfv" d="M1734 1843 L1957 2066 L1957 2130 L1734 1907 Z"/><path class="fv1" d="M1734 1843 L1957 2066 L1957 2130 L1734 1907 Z" /></g><g class="o"><path transform="translate(4,8)" class="S sfv" d="M1406 1149 L1349 1092 L1349 1130 L1406 1187 Z"/><path class="fv2" d="M1406 1149 L1349 1092 L1349 1130 L1406 1187 Z" /></g><g class="o"><path transform="translate(7,14)" class="S ssv" d="M1684 1735 L1778 1641 L1778 1671 L1684 1765 Z"/><path class="sv5" d="M1684 1735 L1778 1641 L1778 1671 L1684 1765 Z" /></g><g class="o"><path transform="translate(3,6)" class="S sfv" d="M2000 1383 L2183 1566 L2183 1592 L2000 1409 Z"/><path class="fv5" d="M2000 1383 L2183 1566 L2183 1592 L2000 1409 Z" /></g><g class="o"><path transform="translate(6,12)" class="S sfh" d="M1968 1864 L2361 1471 L2395 1471 L2002 1864 Z"/><path class="fh1" d="M1968 1864 L2361 1471 L2395 1471 L2002 1864 Z" /></g><g class="o"><path transform="translate(9,18)" class="S ssv" d="M1560 1527 L1774 1741 L1774 1893 L1560 1679 Z"/><path class="sv2" d="M1560 1527 L1774 1741 L1774 1893 L1560 1679 Z" /></g><g class="o"><path transform="translate(6,12)" class="S sfh" d="M1707 1566 L2433 840 L2445 840 L1719 1566 Z"/><path class="fh4" d="M1707 1566 L2433 840 L2445 840 L1719 1566 Z" /></g><g class="o"><path transform="translate(2,4)" class="S ssv" d="M1069 1155 L861 1363 L861 1389 L1069 1181 Z"/><path class="sv4" d="M1069 1155 L861 1363 L861 1389 L1069 1181 Z" /></g><g class="o"><path transform="translate(7,14)" class="S sfh" d="M1324 1399 L1254 1469 L1270 1469 L1340 1399 Z"/><path class="fh6" d="M1324 1399 L1254 1469 L1270 1469 L1340 1399 Z" /></g><g class="o"><path transform="translate(5,10)" class="S sf" d="M1396 1583 L1108 1871 L1132 1871 L1420 1583 Z"/><path class="f1" d="M1396 1583 L1108 1871 L1132 1871 L1420 1583 Z" /></g><g class="o"><path transform="translate(7,14)" class="S sfv" d="M975 1591 L775 1391 L775 1399 L975 1599 Z"/><path class="fv4" d="M975 1591 L775 1391 L775 1399 L975 1599 Z" /></g><g class="o"><path transform="translate(5,10)" class="S sfv" d="M1508 1312 L1652 1456 L1652 1478 L1508 1334 Z"/><path class="fv4" d="M1508 1312 L1652 1456 L1652 1478 L1508 1334 Z" /></g><g class="o"><path transform="translate(8,16)" class="S sfh" d="M1158 1948 L1039 2067 L1055 2067 L1174 1948 Z"/><path class="fh6" d="M1158 1948 L1039 2067 L1055 2067 L1174 1948 Z" /></g><g class="o"><path transform="translate(5,10)" class="S ssh" d="M1633 1322 L2146 1835 L2170 1835 L1657 1322 Z"/><path class="sh6" d="M1633 1322 L2146 1835 L2170 1835 L1657 1322 Z" /></g><g class="o"><path transform="translate(9,18)" class="S sfv" d="M1961 1198 L1766 1393 L1766 1513 L1961 1318 Z"/><path class="fv5" d="M1961 1198 L1766 1393 L1766 1513 L1961 1318 Z" /></g><g class="o"><path transform="translate(5,10)" class="S sfv" d="M1994 1738 L1922 1666 L1922 1688 L1994 1760 Z"/><path class="fv3" d="M1994 1738 L1922 1666 L1922 1688 L1994 1760 Z" /></g><g class="o"><path transform="translate(7,14)" class="S sfh" d="M1415 1005 L1605 1195 L1639 1195 L1449 1005 Z"/><path class="fh7" d="M1415 1005 L1605 1195 L1639 1195 L1449 1005 Z" /></g><g class="o"><path transform="translate(6,12)" class="S ssv" d="M1420 1597 L1590 1427 L1590 1459 L1420 1629 Z"/><path class="sv4" d="M1420 1597 L1590 1427 L1590 1459 L1420 1629 Z" /></g><g class="o"><path transform="translate(7,14)" class="S sfv" d="M1259 1223 L1357 1321 L1357 1347 L1259 1249 Z"/><path class="fv7" d="M1259 1223 L1357 1321 L1357 1347 L1259 1249 Z" /></g><g class="o"><path transform="translate(2,4)" class="S sfv" d="M1113 1696 L1307 1890 L1307 1916 L1113 1722 Z"/><path class="fv7" d="M1113 1696 L1307 1890 L1307 1916 L1113 1722 Z" /></g><g class="o"><path transform="translate(8,16)" class="S sfh" d="M1452 1873 L1400 1925 L1426 1925 L1478 1873 Z"/><path class="fh1" d="M1452 1873 L1400 1925 L1426 1925 L1478 1873 Z" /></g><g class="o"><path transform="translate(9,18)" class="S sfh" d="M1970 1683 L2044 1757 L2070 1757 L1996 1683 Z"/><path class="fh6" d="M1970 1683 L2044 1757 L2070 1757 L1996 1683 Z" /></g><g class="o"><path transform="translate(5,10)" class="S sfv" d="M1898 1288 L1688 1498 L1688 1506 L1898 1296 Z"/><path class="fv6" d="M1898 1288 L1688 1498 L1688 1506 L1898 1296 Z" /></g><g class="o"><path transform="translate(5,10)" class="S ss" d="M1809 1065 L1757 1117 L1757 1131 L1809 1079 Z"/><path class="s4" d="M1809 1065 L1757 1117 L1757 1131 L1809 1079 Z" /></g><g class="o"><path transform="translate(9,18)" class="S ssh" d="M1213 1231 L1066 1378 L1104 1378 L1251 1231 Z"/><path class="sh5" d="M1213 1231 L1066 1378 L1104 1378 L1251 1231 Z" /></g><g class="o"><path transform="translate(3,6)" class="S sfv" d="M1879 1775 L2122 2018 L2122 2034 L1879 1791 Z"/><path class="fv6" d="M1879 1775 L2122 2018 L2122 2034 L1879 1791 Z" /></g><g class="o"><path transform="translate(2,4)" class="S sfh" d="M1478 1851 L827 1200 L839 1200 L1490 1851 Z"/><path class="fh4" d="M1478 1851 L827 1200 L839 1200 L1490 1851 Z" /></g><g class="o"><path transform="translate(3,6)" class="S sfv" d="M1257 1864 L1105 1712 L1105 1730 L1257 1882 Z"/><path class="fv6" d="M1257 1864 L1105 1712 L1105 1730 L1257 1882 Z" /></g><g class="o"><path transform="translate(9,18)" class="S sfv" d="M984 1465 L804 1645 L804 1671 L984 1491 Z"/><path class="fv5" d="M984 1465 L804 1645 L804 1671 L984 1491 Z" /></g><g class="o"><path transform="translate(6,12)" class="S sfv" d="M977 1188 L1089 1076 L1089 1108 L977 1220 Z"/><path class="fv3" d="M977 1188 L1089 1076 L1089 1108 L977 1220 Z" /></g><g class="o"><path transform="translate(4,8)" class="S sfv" d="M1243 1288 L745 790 L745 828 L1243 1326 Z"/><path class="fv3" d="M1243 1288 L745 790 L745 828 L1243 1326 Z" /></g><g class="o"><path transform="translate(6,12)" class="S sfh" d="M1201 1881 L1648 2328 L1656 2328 L1209 1881 Z"/><path class="fh4" d="M1201 1881 L1648 2328 L1656 2328 L1209 1881 Z" /></g><g class="o"><path transform="translate(6,12)" class="S sfh" d="M1040 1561 L1280 1321 L1292 1321 L1052 1561 Z"/><path class="fh7" d="M1040 1561 L1280 1321 L1292 1321 L1052 1561 Z" /></g><g class="o"><path transform="translate(5,10)" class="S sfh" d="M1082 1137 L863 918 L871 918 L1090 1137 Z"/><path class="fh7" d="M1082 1137 L863 918 L871 918 L1090 1137 Z" /></g><g class="o"><path transform="translate(4,8)" class="S sfv" d="M987 1024 L1176 835 L1176 867 L987 1056 Z"/><path class="fv3" d="M987 1024 L1176 835 L1176 867 L987 1056 Z" /></g><g class="o"><path transform="translate(8,16)" class="S ssv" d="M1921 1688 L1992 1617 L1992 1657 L1921 1728 Z"/><path class="sv6" d="M1921 1688 L1992 1617 L1992 1657 L1921 1728 Z" /></g><g class="o"><path transform="translate(5,10)" class="S sf" d="M953 1574 L1020 1641 L1032 1641 L965 1574 Z"/><path class="f2" d="M953 1574 L1020 1641 L1032 1641 L965 1574 Z" /></g><g class="o"><path transform="translate(7,14)" class="S sfh" d="M1859 1672 L2013 1826 L2041 1826 L1887 1672 Z"/><path class="fh4" d="M1859 1672 L2013 1826 L2041 1826 L1887 1672 Z" /></g><g class="o"><path transform="translate(9,18)" class="S sfh" d="M1572 1176 L1745 1003 L1761 1003 L1588 1176 Z"/><path class="fh1" d="M1572 1176 L1745 1003 L1761 1003 L1588 1176 Z" /></g><g class="o"><path transform="translate(5,10)" class="S ssh" d="M1383 1108 L1546 945 L1610 945 L1447 1108 Z"/><path class="sh1" d="M1383 1108 L1546 945 L1610 945 L1447 1108 Z" /></g><g class="o"><path transform="translate(5,10)" class="S ssh" d="M1227 1370 L1426 1569 L1436 1569 L1237 1370 Z"/><path class="sh4" d="M1227 1370 L1426 1569 L1436 1569 L1237 1370 Z" /></g><g class="o"><path transform="translate(7,14)" class="S ssv" d="M1505 1223 L1621 1107 L1621 1133 L1505 1249 Z"/><path class="sv4" d="M1505 1223 L1621 1107 L1621 1133 L1505 1249 Z" /></g><g class="o"><path transform="translate(2,4)" class="S sfv" d="M1873 973 L1213 1633 L1213 1649 L1873 989 Z"/><path class="fv4" d="M1873 973 L1213 1633 L1213 1649 L1873 989 Z" /></g><g class="o"><path transform="translate(2,4)" class="S sfh" d="M1261 1972 L1381 1852 L1395 1852 L1275 1972 Z"/><path class="fh3" d="M1261 1972 L1381 1852 L1395 1852 L1275 1972 Z" /></g><g class="o"><path transform="translate(5,10)" class="S sfv" d="M1971 1828 L1806 1663 L1806 1693 L1971 1858 Z"/><path class="fv6" d="M1971 1828 L1806 1663 L1806 1693 L1971 1858 Z" /></g><g class="o"><path transform="translate(8,16)" class="S sfh" d="M1799 1091 L1580 1310 L1612 1310 L1831 1091 Z"/><path class="fh4" d="M1799 1091 L1580 1310 L1612 1310 L1831 1091 Z" /></g><g class="o"><path transform="translate(9,18)" class="S sfv" d="M1892 1458 L2112 1238 L2112 1310 L1892 1530 Z"/><path class="fv3" d="M1892 1458 L2112 1238 L2112 1310 L1892 1530 Z" /></g><g class="o"><path transform="translate(9,18)" class="S sf" d="M1513 2015 L1282 2246 L1282 2266 L1513 2035 Z"/><path class="f3" d="M1513 2015 L1282 2246 L1282 2266 L1513 2035 Z" /></g><g class="o"><path transform="translate(5,10)" class="S sfv" d="M1263 1793 L1713 1343 L1713 1367 L1263 1817 Z"/><path class="fv3" d="M1263 1793 L1713 1343 L1713 1367 L1263 1817 Z" /></g><g class="o"><path transform="translate(6,12)" class="S sf" d="M1239 1629 L1536 1926 L1536 1954 L1239 1657 Z"/><path class="f3" d="M1239 1629 L1536 1926 L1536 1954 L1239 1657 Z" /></g><g class="o"><path transform="translate(9,18)" class="S sfv" d="M1365 1725 L1263 1623 L1263 1649 L1365 1751 Z"/><path class="fv1" d="M1365 1725 L1263 1623 L1263 1649 L1365 1751 Z" /></g><g class="o"><path transform="translate(4,8)" class="S sf" d="M2013 1576 L1347 2242 L1347 2258 L2013 1592 Z"/><path class="f5" d="M2013 1576 L1347 2242 L1347 2258 L2013 1592 Z" /></g><g class="o"><path transform="translate(7,14)" class="S sfv" d="M1229 1240 L1847 622 L1847 642 L1229 1260 Z"/><path class="fv3" d="M1229 1240 L1847 622 L1847 642 L1229 1260 Z" /></g><g class="o"><path transform="translate(7,14)" class="S sfv" d="M1418 1169 L1295 1046 L1295 1086 L1418 1209 Z"/><path class="fv1" d="M1418 1169 L1295 1046 L1295 1086 L1418 1209 Z" /></g><g class="o"><path transform="translate(4,8)" class="S sfh" d="M1886 1330 L1721 1495 L1741 1495 L1906 1330 Z"/><path class="fh3" d="M1886 1330 L1721 1495 L1741 1495 L1906 1330 Z" /></g><g class="o"><path transform="translate(8,16)" class="S sfv" d="M1100 1471 L853 1224 L853 1256 L1100 1503 Z"/><path class="fv7" d="M1100 1471 L853 1224 L853 1256 L1100 1503 Z" /></g><g class="o"><path transform="translate(3,6)" class="S sfh" d="M1139 1664 L443 2360 L465 2360 L1161 1664 Z"/><path class="fh1" d="M1139 1664 L443 2360 L465 2360 L1161 1664 Z" /></g><g class="o"><path transform="translate(9,18)" class="S sfv" d="M1570 1878 L1506 1942 L1506 1964 L1570 1900 Z"/><path class="fv1" d="M1570 1878 L1506 1942 L1506 1964 L1570 1900 Z" /></g><g class="o"><path transform="translate(9,18)" class="S sfh" d="M1581 1113 L1728 966 L1752 966 L1605 1113 Z"/><path class="fh3" d="M1581 1113 L1728 966 L1752 966 L1605 1113 Z" /></g><g class="o"><path transform="translate(8,16)" class="S sfv" d="M955 1348 L1190 1583 L1190 1605 L955 1370 Z"/><path class="fv2" d="M955 1348 L1190 1583 L1190 1605 L955 1370 Z" /></g><g class="o"><path transform="translate(7,14)" class="S sfv" d="M1468 1640 L1664 1444 L1664 1452 L1468 1648 Z"/><path class="fv5" d="M1468 1640 L1664 1444 L1664 1452 L1468 1648 Z" /></g><g class="o"><path transform="translate(2,4)" class="S ssv" d="M1711 1656 L1784 1583 L1784 1615 L1711 1688 Z"/><path class="sv6" d="M1711 1656 L1784 1583 L1784 1615 L1711 1688 Z" /></g><g class="o"><path transform="translate(5,10)" class="S sfh" d="M1688 1997 L1762 2071 L1772 2071 L1698 1997 Z"/><path class="fh4" d="M1688 1997 L1762 2071 L1772 2071 L1698 1997 Z" /></g><g class="o"><path transform="translate(6,12)" class="S sfh" d="M1888 1262 L1774 1376 L1814 1376 L1928 1262 Z"/><path class="fh7" d="M1888 1262 L1774 1376 L1814 1376 L1928 1262 Z" /></g><g class="o"><path transform="translate(2,4)" class="S sf" d="M1522 1807 L1407 1692 L1407 1724 L1522 1839 Z"/><path class="f2" d="M1522 1807 L1407 1692 L1407 1724 L1522 1839 Z" /></g><g class="o"><path transform="translate(5,10)" class="S sf" d="M1476 1730 L1989 2243 L1989 2261 L1476 1748 Z"/><path class="f4" d="M1476 1730 L1989 2243 L1989 2261 L1476 1748 Z" /></g><g class="o"><path transform="translate(9,18)" class="S sfh" d="M1130 1789 L1004 1663 L1012 1663 L1138 1789 Z"/><path class="fh7" d="M1130 1789 L1004 1663 L1012 1663 L1138 1789 Z" /></g><g class="o"><path transform="translate(9,18)" class="S sfh" d="M1670 1800 L1760 1710 L1880 1710 L1790 1800 Z"/><path class="fh6" d="M1670 1800 L1760 1710 L1880 1710 L1790 1800 Z" /></g><g class="o"><path transform="translate(6,12)" class="S sfh" d="M1410 1784 L1315 1879 L1343 1879 L1438 1784 Z"/><path class="fh3" d="M1410 1784 L1315 1879 L1343 1879 L1438 1784 Z" /></g><g class="o"><path transform="translate(2,4)" class="S sfv" d="M1598 1343 L1205 1736 L1205 1824 L1598 1431 Z"/><path class="fv3" d="M1598 1343 L1205 1736 L1205 1824 L1598 1431 Z" /></g><g class="o"><path transform="translate(9,18)" class="S ssv" d="M1260 1170 L1875 1785 L1875 1813 L1260 1198 Z"/><path class="sv6" d="M1260 1170 L1875 1785 L1875 1813 L1260 1198 Z" /></g><g class="o"><path transform="translate(7,14)" class="S sfh" d="M1671 1434 L1428 1677 L1464 1677 L1707 1434 Z"/><path class="fh7" d="M1671 1434 L1428 1677 L1464 1677 L1707 1434 Z" /></g><g class="o"><path transform="translate(5,10)" class="S sfv" d="M1926 998 L1830 902 L1830 926 L1926 1022 Z"/><path class="fv4" d="M1926 998 L1830 902 L1830 926 L1926 1022 Z" /></g><g class="o"><path transform="translate(2,4)" class="S sf" d="M1335 1039 L1815 1519 L1815 1553 L1335 1073 Z"/><path class="f6" d="M1335 1039 L1815 1519 L1815 1553 L1335 1073 Z" /></g><g class="o"><path transform="translate(5,10)" class="S sf" d="M1759 2021 L2113 1667 L2113 1689 L1759 2043 Z"/><path class="f3" d="M1759 2021 L2113 1667 L2113 1689 L1759 2043 Z" /></g><g class="o"><path transform="translate(5,10)" class="S sfv" d="M1506 1334 L1640 1468 L1640 1564 L1506 1430 Z"/><path class="fv2" d="M1506 1334 L1640 1468 L1640 1564 L1506 1430 Z" /></g><g class="o"><path transform="translate(8,16)" class="S sfh" d="M1601 1270 L1671 1200 L1693 1200 L1623 1270 Z"/><path class="fh2" d="M1601 1270 L1671 1200 L1693 1200 L1623 1270 Z" /></g><g class="o"><path transform="translate(3,6)" class="S sfv" d="M1992 1092 L1868 1216 L1868 1226 L1992 1102 Z"/><path class="fv6" d="M1992 1092 L1868 1216 L1868 1226 L1992 1102 Z" /></g><g class="o"><path transform="translate(2,4)" class="S ssh" d="M1587 972 L1817 742 L1825 742 L1595 972 Z"/><path class="sh3" d="M1587 972 L1817 742 L1825 742 L1595 972 Z" /></g><g class="o"><path transform="translate(2,4)" class="S sfh" d="M1276 1511 L1038 1749 L1074 1749 L1312 1511 Z"/><path class="fh2" d="M1276 1511 L1038 1749 L1074 1749 L1312 1511 Z" /></g><g class="o"><path transform="translate(6,12)" class="S ss" d="M1121 1276 L883 1038 L883 1070 L1121 1308 Z"/><path class="s4" d="M1121 1276 L883 1038 L883 1070 L1121 1308 Z" /></g><g class="o"><path transform="translate(2,4)" class="S sfh" d="M1502 2031 L1745 2274 L1777 2274 L1534 2031 Z"/><path class="fh7" d="M1502 2031 L1745 2274 L1777 2274 L1534 2031 Z" /></g><g class="o"><path transform="translate(2,4)" class="S sfh" d="M1707 1204 L1757 1254 L1795 1254 L1745 1204 Z"/><path class="fh3" d="M1707 1204 L1757 1254 L1795 1254 L1745 1204 Z" /></g><g class="o"><path transform="translate(8,16)" class="S ssh" d="M1124 1855 L941 1672 L953 1672 L1136 1855 Z"/><path class="sh1" d="M1124 1855 L941 1672 L953 1672 L1136 1855 Z" /></g><g class="o"><path transform="translate(7,14)" class="S sfh" d="M1224 1802 L997 1575 L1053 1575 L1280 1802 Z"/><path class="fh1" d="M1224 1802 L997 1575 L1053 1575 L1280 1802 Z" /></g><g class="o"><path transform="translate(7,14)" class="S sfv" d="M1400 1924 L1550 2074 L1550 2104 L1400 1954 Z"/><path class="fv4" d="M1400 1924 L1550 2074 L1550 2104 L1400 1954 Z" /></g><g class="o"><path transform="translate(6,12)" class="S sfh" d="M1357 1106 L1162 1301 L1200 1301 L1395 1106 Z"/><path class="fh7" d="M1357 1106 L1162 1301 L1200 1301 L1395 1106 Z" /></g><g class="o"><path transform="translate(7,14)" class="S sfv" d="M1096 1109 L1324 1337 L1324 1375 L1096 1147 Z"/><path class="fv7" d="M1096 1109 L1324 1337 L1324 1375 L1096 1147 Z" /></g><g class="o"><path transform="translate(6,12)" class="S ssh" d="M1880 996 L1538 654 L1550 654 L1892 996 Z"/><path class="sh7" d="M1880 996 L1538 654 L1550 654 L1892 996 Z" /></g><g class="o"><path transform="translate(5,10)" class="S sfh" d="M958 1076 L1026 1008 L1060 1008 L992 1076 Z"/><path class="fh2" d="M958 1076 L1026 1008 L1060 1008 L992 1076 Z" /></g><g class="o"><path transform="translate(3,6)" class="S sfv" d="M1154 1092 L815 1431 L815 1451 L1154 1112 Z"/><path class="fv6" d="M1154 1092 L815 1431 L815 1451 L1154 1112 Z" /></g><g class="o"><path transform="translate(9,18)" class="S sfh" d="M1572 1043 L1468 939 L1504 939 L1608 1043 Z"/><path class="fh4" d="M1572 1043 L1468 939 L1504 939 L1608 1043 Z" /></g><g class="o"><path transform="translate(5,10)" class="S sfv" d="M1956 1338 L2046 1428 L2046 1456 L1956 1366 Z"/><path class="fv6" d="M1956 1338 L2046 1428 L2046 1456 L1956 1366 Z" /></g><g class="o"><path transform="translate(5,10)" class="S sfh" d="M979 1250 L891 1162 L901 1162 L989 1250 Z"/><path class="fh3" d="M979 1250 L891 1162 L901 1162 L989 1250 Z" /></g><g class="o"><path transform="translate(4,8)" class="S sfh" d="M1703 1933 L2243 1393 L2281 1393 L1741 1933 Z"/><path class="fh4" d="M1703 1933 L2243 1393 L2281 1393 L1741 1933 Z" /></g><g class="o"><path transform="translate(7,14)" class="S sfv" d="M1025 1026 L1194 1195 L1194 1203 L1025 1034 Z"/><path class="fv2" d="M1025 1026 L1194 1195 L1194 1203 L1025 1034 Z" /></g><g class="o"><path transform="translate(6,12)" class="S sfv" d="M1589 1742 L1356 1509 L1356 1539 L1589 1772 Z"/><path class="fv3" d="M1589 1742 L1356 1509 L1356 1539 L1589 1772 Z" /></g><g class="o"><path transform="translate(8,16)" class="S sfv" d="M1976 1266 L1761 1481 L1761 1499 L1976 1284 Z"/><path class="fv6" d="M1976 1266 L1761 1481 L1761 1499 L1976 1284 Z" /></g><g class="o"><path transform="translate(6,12)" class="S sfh" d="M1566 1812 L1486 1892 L1522 1892 L1602 1812 Z"/><path class="fh2" d="M1566 1812 L1486 1892 L1522 1892 L1602 1812 Z" /></g><g class="o"><path transform="translate(9,18)" class="S sfh" d="M1590 1101 L1761 1272 L1799 1272 L1628 1101 Z"/><path class="fh2" d="M1590 1101 L1761 1272 L1799 1272 L1628 1101 Z" /></g><g class="o"><path transform="translate(4,8)" class="S sfv" d="M1367 1153 L1219 1301 L1219 1323 L1367 1175 Z"/><path class="fv2" d="M1367 1153 L1219 1301 L1219 1323 L1367 1175 Z" /></g><g class="o"><path transform="translate(5,10)" class="S sf" d="M1080 1517 L870 1727 L904 1727 L1114 1517 Z"/><path class="f6" d="M1080 1517 L870 1727 L904 1727 L1114 1517 Z" /></g><g class="o"><path transform="translate(5,10)" class="S sfh" d="M952 1120 L727 1345 L737 1345 L962 1120 Z"/><path class="fh2" d="M952 1120 L727 1345 L737 1345 L962 1120 Z" /></g><g class="o"><path transform="translate(6,12)" class="S sf" d="M1839 1089 L1763 1013 L1799 1013 L1875 1089 Z"/><path class="f3" d="M1839 1089 L1763 1013 L1799 1013 L1875 1089 Z" /></g><g class="o"><path transform="translate(6,12)" class="S sf" d="M1020 1466 L1207 1279 L1221 1279 L1034 1466 Z"/><path class="f5" d="M1020 1466 L1207 1279 L1221 1279 L1034 1466 Z" /></g><g class="o"><path transform="translate(4,8)" class="S ssv" d="M1424 1633 L1260 1469 L1260 1481 L1424 1645 Z"/><path class="sv6" d="M1424 1633 L1260 1469 L1260 1481 L1424 1645 Z" /></g><g class="o"><path transform="translate(6,12)" class="S sfh" d="M1949 1153 L1827 1275 L1861 1275 L1983 1153 Z"/><path class="fh4" d="M1949 1153 L1827 1275 L1861 1275 L1983 1153 Z" /></g><g class="o"><path transform="translate(2,4)" class="S sfv" d="M1942 1492 L2536 2086 L2536 2120 L1942 1526 Z"/><path class="fv3" d="M1942 1492 L2536 2086 L2536 2120 L1942 1526 Z" /></g><g class="o"><path transform="translate(5,10)" class="S sfv" d="M1581 1069 L1712 1200 L1712 1230 L1581 1099 Z"/><path class="fv6" d="M1581 1069 L1712 1200 L1712 1230 L1581 1099 Z" /></g><g class="o"><path transform="translate(9,18)" class="S sfh" d="M1177 1448 L1297 1328 L1311 1328 L1191 1448 Z"/><path class="fh5" d="M1177 1448 L1297 1328 L1311 1328 L1191 1448 Z" /></g><g class="o"><path transform="translate(9,18)" class="S sfv" d="M1688 1940 L1482 2146 L1482 2160 L1688 1954 Z"/><path class="fv5" d="M1688 1940 L1482 2146 L1482 2160 L1688 1954 Z" /></g><g class="o"><path transform="translate(8,16)" class="S sfh" d="M1262 1035 L1661 636 L1693 636 L1294 1035 Z"/><path class="fh6" d="M1262 1035 L1661 636 L1693 636 L1294 1035 Z" /></g><g class="o"><path transform="translate(7,14)" class="S ssh" d="M1556 1946 L1623 2013 L1647 2013 L1580 1946 Z"/><path class="sh1" d="M1556 1946 L1623 2013 L1647 2013 L1580 1946 Z" /></g><g class="o"><path transform="translate(2,4)" class="S sfh" d="M990 1796 L315 1121 L349 1121 L1024 1796 Z"/><path class="fh3" d="M990 1796 L315 1121 L349 1121 L1024 1796 Z" /></g><g class="o"><path transform="translate(2,4)" class="S sfv" d="M1714 1768 L2365 2419 L2365 2451 L1714 1800 Z"/><path class="fv6" d="M1714 1768 L2365 2419 L2365 2451 L1714 1800 Z" /></g></g><use href="#slashes" transform-origin="1500 1500" transform="rotate(180) scale(2)"/></g><polyline points="1500,1010 1990,1500 1500,1990 1010,1500 1500,1010 1990,1500" stroke-width="40" class="o fs" /><use href="#slashes" transform-origin="1500 1500" transform="scale(.9)"/><use href="#slashes" transform-origin="1500 1500" transform="rotate(180) scale(.9)"/></svg>