<svg xmlns="http://www.w3.org/2000/svg" viewBox="750 750 1500 1500"><style>/*<![CDATA[*/svg{background:rgb(36,36,35);max-width:100vw;max-height:100vh}path{stroke-width:4}.o{opacity:.75}.S{opacity:.4}.sf{stroke:none;fill:black}.sfh{stroke:none;fill:url(#hs)}.sfv{stroke:none;fill:url(#vs)}.ss{stroke:black;fill:none}.ssh{stroke:url(#hs);fill:none}.ssv{stroke:url(#vs);fill:none}.s1{fill:none;stroke:rgb(245,203,92)}.f1{stroke:none;fill:rgb(245,203,92)}.sh1{fill:none;stroke:url(#h1)}.fh1{stroke:none;fill:url(#h1)}.sv1{fill:none;stroke:url(#v1)}.fv1{stroke:none;fill:url(#v1)}.s2{fill:none;stroke:rgb(207,219,213)}.f2{stroke:none;fill:rgb(207,219,213)}.sh2{fill:none;stroke:url(#h2)}.fh2{stroke:none;fill:url(#h2)}.sv2{fill:none;stroke:url(#v2)}.fv2{stroke:none;fill:url(#v2)}.s3{fill:none;stroke:rgb(34,34,34)}.f3{stroke:none;fill:rgb(34,34,34)}.sh3{fill:none;stroke:url(#h3)}.fh3{stroke:none;fill:url(#h3)}.sv3{fill:none;stroke:url(#v3)}.fv3{stroke:none;fill:url(#v3)}.s4{fill:none;stroke:rgb(232,237,223)}.f4{stroke:none;fill:rgb(232,237,223)}.sh4{fill:none;stroke:url(#h4)}.fh4{stroke:none;fill:url(#h4)}.sv4{fill:none;stroke:url(#v4)}.fv4{stroke:none;fill:url(#v4)}.s5{fill:none;stroke:rgb(51,53,51)}.f5{stroke:none;fill:rgb(51,53,51)}.sh5{fill:none;stroke:url(#h5)}.fh5{stroke:none;fill:url(#h5)}.sv5{fill:none;stroke:url(#v5)}.fv5{stroke:none;fill:url(#v5)}.s6{fill:none;stroke:rgb(255,255,255)}.f6{stroke:none;fill:rgb(255,255,255)}.sh6{fill:none;stroke:url(#h6)}.fh6{stroke:none;fill:url(#h6)}.sv6{fill:none;stroke:url(#v6)}.fv6{stroke:none;fill:url(#v6)}.s7{fill:none;stroke:rgb(255,0,0)}.f7{stroke:none;fill:rgb(255,0,0)}.sh7{fill:none;stroke:url(#h7)}.fh7{stroke:none;fill:url(#h7)}.sv7{fill:none;stroke:url(#v7)}.fv7{stroke:none;fill:url(#v7)}/*]]>*/</style><defs><linearGradient gradientTransform="rotate(90)" id="hs"><stop offset="20%" stop-color="#000" /><stop offset="95%" stop-color="rgba(0, 0, 0, 0)" /></linearGradient><linearGradient id="vs"><stop offset="20%" stop-color="#000" /><stop offset="95%" stop-color="rgba(0, 0, 0, 0)" /></linearGradient><linearGradient gradientTransform="rotate(90)" id="h1"><stop offset="20%" stop-color="rgba(245,203,92,1)" /><stop offset="95%" stop-color="rgba(245,203,92,0)" /></linearGradient><linearGradient id="v1"><stop offset="20%" stop-color="rgba(245,203,92,1)" /><stop offset="95%" stop-color="rgba(245,203,92,0)" /></linearGradient><linearGradient gradientTransform="rotate(90)" id="h2"><stop offset="20%" stop-color="rgba(207,219,213,1)" /><stop offset="95%" stop-color="rgba(207,219,213,0)" /></linearGradient><linearGradient id="v2"><stop offset="20%" stop-color="rgba(207,219,213,1)" /><stop offset="95%" stop-color="rgba(207,219,213,0)" /></linearGradient><linearGradient gradientTransform="rotate(90)" id="h3"><stop offset="20%" stop-color="rgba(34,34,34,1)" /><stop offset="95%" stop-color="rgba(34,34,34,0)" /></linearGradient><linearGradient id="v3"><stop offset="20%" stop-color="rgba(34,34,34,1)" /><stop offset="95%" stop-color="rgba(34,34,34,0)" /></linearGradient><linearGradient gradientTransform="rotate(90)" id="h4"><stop offset="20%" stop-color="rgba(232,237,223,1)" /><stop offset="95%" stop-color="rgba(232,237,223,0)" /></linearGradient><linearGradient id="v4"><stop offset="20%" stop-color="rgba(232,237,223,1)" /><stop offset="95%" stop-color="rgba(232,237,223,0)" /></linearGradient><linearGradient gradientTransform="rotate(90)" id="h5"><stop offset="20%" stop-color="rgba(51,53,51,1)" /><stop offset="95%" stop-color="rgba(51,53,51,0)" /></linearGradient><linearGradient id="v5"><stop offset="20%" stop-color="rgba(51,53,51,1)" /><stop offset="95%" stop-color="rgba(51,53,51,0)" /></linearGradient><linearGradient gradientTransform="rotate(90)" id="h6"><stop offset="20%" stop-color="rgba(255,255,255,1)" /><stop offset="95%" stop-color="rgba(255,255,255,0)" /></linearGradient><linearGradient id="v6"><stop offset="20%" stop-color="rgba(255,255,255,1)" /><stop offset="95%" stop-color="rgba(255,255,255,0)" /></linearGradient><linearGradient gradientTransform="rotate(90)" id="h7"><stop offset="20%" stop-color="rgba(255,0,0,1)" /><stop offset="95%" stop-color="rgba(255,0,0,0)" /></linearGradient><linearGradient id="v7"><stop offset="20%" stop-color="rgba(255,0,0,1)" /><stop offset="95%" stop-color="rgba(255,0,0,0)" /></linearGradient></defs><g transform-origin="1500 1500" transform="scale(2)" opacity=".2"><g id="slashes"><g class="o"><path transform="translate(2,4)" class="S ssv" d="M1624 1593 L1809 1408 L1809 1418 L1624 1603 Z"/><path class="sv4" d="M1624 1593 L1809 1408 L1809 1418 L1624 1603 Z" /></g><g class="o"><path transform="translate(9,18)" class="S sfh" d="M961 1040 L568 1433 L656 1433 L1049 1040 Z"/><path class="fh7" d="M961 1040 L568 1433 L656 1433 L1049 1040 Z" /></g><g class="o"><path transform="translate(2,4)" class="S sfv" d="M1891 1613 L1666 1838 L1666 1858 L1891 1633 Z"/><path class="fv4" d="M1891 1613 L1666 1838 L1666 1858 L1891 1633 Z" /></g><g class="o"><path transform="translate(9,18)" class="S sfh" d="M1497 1824 L1661 1988 L1683 1988 L1519 1824 Z"/><path class="fh7" d="M1497 1824 L1661 1988 L1683 1988 L1519 1824 Z" /></g><g class="o"><path transform="translate(6,12)" class="S sf" d="M1430 1298 L1329 1197 L1329 1223 L1430 1324 Z"/><path class="f2" d="M1430 1298 L1329 1197 L1329 1223 L1430 1324 Z" /></g><g class="o"><path transform="translate(3,6)" class="S sf" d="M1295 1471 L1230 1406 L1252 1406 L1317 1471 Z"/><path class="f4" d="M1295 1471 L1230 1406 L1252 1406 L1317 1471 Z" /></g><g class="o"><path transform="translate(9,18)" class="S ssh" d="M1654 977 L2377 1700 L2513 1700 L1790 977 Z"/><path class="sh3" d="M1654 977 L2377 1700 L2513 1700 L1790 977 Z" /></g><g class="o"><path transform="translate(5,10)" class="S sfv" d="M1137 1249 L1281 1393 L1281 1413 L1137 1269 Z"/><path class="fv4" d="M1137 1249 L1281 1393 L1281 1413 L1137 1269 Z" /></g><g class="o"><path transform="translate(4,8)" class="S sfv" d="M1567 1764 L1780 1551 L1780 1577 L1567 1790 Z"/><path class="fv5" d="M1567 1764 L1780 1551 L1780 1577 L1567 1790 Z" /></g><g class="o"><path transform="translate(9,18)" class="S sfh" d="M1224 1946 L1371 2093 L1409 2093 L1262 1946 Z"/><path class="fh2" d="M1224 1946 L1371 2093 L1409 2093 L1262 1946 Z" /></g><g class="o"><path transform="translate(4,8)" class="S ssv" d="M1893 1281 L2036 1424 L2036 1454 L1893 1311 Z"/><path class="sv6" d="M1893 1281 L2036 1424 L2036 1454 L1893 1311 Z" /></g><g class="o"><path transform="translate(6,12)" class="S sf" d="M1724 1801 L1929 2006 L1951 2006 L1746 1801 Z"/><path class="f4" d="M1724 1801 L1929 2006 L1951 2006 L1746 1801 Z" /></g><g class="o"><path transform="translate(2,4)" class="S sf" d="M1749 1630 L1985 1866 L1985 1962 L1749 1726 Z"/><path class="f2" d="M1749 1630 L1985 1866 L1985 1962 L1749 1726 Z" /></g><g class="o"><path transform="translate(8,16)" class="S ssv" d="M1924 1592 L2113 1781 L2113 1801 L1924 1612 Z"/><path class="sv5" d="M1924 1592 L2113 1781 L2113 1801 L1924 1612 Z" /></g><g class="o"><path transform="translate(5,10)" class="S ssh" d="M1148 1823 L1321 1996 L1331 1996 L1158 1823 Z"/><path class="sh4" d="M1148 1823 L1321 1996 L1331 1996 L1158 1823 Z" /></g><g class="o"><path transform="translate(3,6)" class="S sfv" d="M1651 1626 L1703 1574 L1703 1582 L1651 1634 Z"/><path class="fv6" d="M1651 1626 L1703 1574 L1703 1582 L1651 1634 Z" /></g><g class="o"><path transform="translate(7,14)" class="S sfh" d="M1663 1987 L2014 1636 L2024 1636 L1673 1987 Z"/><path class="fh4" d="M1663 1987 L2014 1636 L2024 1636 L1673 1987 Z" /></g><g class="o"><path transform="translate(9,18)" class="S sfv" d="M1285 1812 L1056 2041 L1056 2057 L1285 1828 Z"/><path class="fv7" d="M1285 1812 L1056 2041 L1056 2057 L1285 1828 Z" /></g><g class="o"><path transform="translate(8,16)" class="S sfv" d="M1085 1899 L919 2065 L919 2081 L1085 1915 Z"/><path class="fv1" d="M1085 1899 L919 2065 L919 2081 L1085 1915 Z" /></g><g class="o"><path transform="translate(6,12)" class="S sfv" d="M1917 1057 L1794 934 L1794 1006 L1917 1129 Z"/><path class="fv3" d="M1917 1057 L1794 934 L1794 1006 L1917 1129 Z" /></g><g class="o"><path transform="translate(6,12)" class="S sfh" d="M1301 1402 L1092 1193 L1114 1193 L1323 1402 Z"/><path class="fh2" d="M1301 1402 L1092 1193 L1114 1193 L1323 1402 Z" /></g><g class="o"><path transform="translate(9,18)" class="S sfv" d="M1951 1090 L1882 1021 L1882 1045 L1951 1114 Z"/><path class="fv5" d="M1951 1090 L1882 1021 L1882 1045 L1951 1114 Z" /></g><g class="o"><path transform="translate(6,12)" class="S sfh" d="M1678 1907 L1447 1676 L1461 1676 L1692 1907 Z"/><path class="fh5" d="M1678 1907 L1447 1676 L1461 1676 L1692 1907 Z" /></g><g class="o"><path transform="translate(4,8)" class="S sfv" d="M1154 1403 L1011 1260 L1011 1274 L1154 1417 Z"/><path class="fv5" d="M1154 1403 L1011 1260 L1011 1274 L1154 1417 Z" /></g><g class="o"><path transform="translate(6,12)" class="S ssh" d="M1659 1304 L1832 1131 L1842 1131 L1669 1304 Z"/><path class="sh4" d="M1659 1304 L1832 1131 L1842 1131 L1669 1304 Z" /></g><g class="o"><path transform="translate(7,14)" class="S sfh" d="M1241 957 L1859 1575 L1871 1575 L1253 957 Z"/><path class="fh4" d="M1241 957 L1859 1575 L1871 1575 L1253 957 Z" /></g><g class="o"><path transform="translate(4,8)" class="S sfv" d="M1806 1710 L1570 1946 L1570 1982 L1806 1746 Z"/><path class="fv6" d="M1806 1710 L1570 1946 L1570 1982 L1806 1746 Z" /></g><g class="o"><path transform="translate(2,4)" class="S sfh" d="M1620 1130 L1425 935 L1433 935 L1628 1130 Z"/><path class="fh4" d="M1620 1130 L1425 935 L1433 935 L1628 1130 Z" /></g><g class="o"><path transform="translate(3,6)" class="S sf" d="M1790 1161 L1726 1097 L1726 1135 L1790 1199 Z"/><path class="f3" d="M1790 1161 L1726 1097 L1726 1135 L1790 1199 Z" /></g><g class="o"><path transform="translate(3,6)" class="S sfv" d="M1337 1303 L833 1807 L833 1815 L1337 1311 Z"/><path class="fv4" d="M1337 1303 L833 1807 L833 1815 L1337 1311 Z" /></g><g class="o"><path transform="translate(6,12)" class="S ssh" d="M1426 2021 L1511 1936 L1521 1936 L1436 2021 Z"/><path class="sh6" d="M1426 2021 L1511 1936 L1521 1936 L1436 2021 Z" /></g><g class="o"><path transform="translate(6,12)" class="S ssv" d="M1178 1997 L1360 2179 L1360 2197 L1178 2015 Z"/><path class="sv5" d="M1178 1997 L1360 2179 L1360 2197 L1178 2015 Z" /></g><g class="o"><path transform="translate(5,10)" class="S sfh" d="M1959 1815 L1839 1935 L1873 1935 L1993 1815 Z"/><path class="fh3" d="M1959 1815 L1839 1935 L1873 1935 L1993 1815 Z" /></g><g class="o"><path transform="translate(7,14)" class="S sfh" d="M1293 1193 L1525 1425 L1547 1425 L1315 1193 Z"/><path class="fh5" d="M1293 1193 L1525 1425 L1547 1425 L1315 1193 Z" /></g><g class="o"><path transform="translate(5,10)" class="S sfh" d="M1488 973 L1287 1174 L1319 1174 L1520 973 Z"/><path class="fh1" d="M1488 973 L1287 1174 L1319 1174 L1520 973 Z" /></g><g class="o"><path transform="translate(8,16)" class="S sfv" d="M1851 1564 L2046 1759 L2046 1797 L1851 1602 Z"/><path class="fv2" d="M1851 1564 L2046 1759 L2046 1797 L1851 1602 Z" /></g><g class="o"><path transform="translate(3,6)" class="S sf" d="M977 1258 L875 1360 L875 1368 L977 1266 Z"/><path class="f7" d="M977 1258 L875 1360 L875 1368 L977 1266 Z" /></g><g class="o"><path transform="translate(7,14)" class="S sfh" d="M978 1659 L928 1709 L966 1709 L1016 1659 Z"/><path class="fh4" d="M978 1659 L928 1709 L966 1709 L1016 1659 Z" /></g><g class="o"><path transform="translate(9,18)" class="S sfh" d="M1683 1153 L1845 991 L1853 991 L1691 1153 Z"/><path class="fh5" d="M1683 1153 L1845 991 L1853 991 L1691 1153 Z" /></g><g class="o"><path transform="translate(8,16)" class="S sfv" d="M1440 1073 L1552 961 L1552 989 L1440 1101 Z"/><path class="fv4" d="M1440 1073 L1552 961 L1552 989 L1440 1101 Z" /></g><g class="o"><path transform="translate(9,18)" class="S sfh" d="M1381 2039 L1308 2112 L1328 2112 L1401 2039 Z"/><path class="fh6" d="M1381 2039 L1308 2112 L1328 2112 L1401 2039 Z" /></g><g class="o"><path transform="translate(3,6)" class="S sfv" d="M1744 1848 L1646 1946 L1646 1972 L1744 1874 Z"/><path class="fv3" d="M1744 1848 L1646 1946 L1646 1972 L1744 1874 Z" /></g><g class="o"><path transform="translate(6,12)" class="S sf" d="M1820 1295 L1656 1131 L1656 1155 L1820 1319 Z"/><path class="f5" d="M1820 1295 L1656 1131 L1656 1155 L1820 1319 Z" /></g><g class="o"><path transform="translate(4,8)" class="S sfh" d="M1014 1626 L851 1463 L873 1463 L1036 1626 Z"/><path class="fh1" d="M1014 1626 L851 1463 L873 1463 L1036 1626 Z" /></g><g class="o"><path transform="translate(8,16)" class="S sfh" d="M1602 1455 L2199 2052 L2235 2052 L1638 1455 Z"/><path class="fh7" d="M1602 1455 L2199 2052 L2235 2052 L1638 1455 Z" /></g><g class="o"><path transform="translate(8,16)" class="S ssh" d="M1557 1756 L2115 1198 L2147 1198 L1589 1756 Z"/><path class="sh3" d="M1557 1756 L2115 1198 L2147 1198 L1589 1756 Z" /></g><g class="o"><path transform="translate(5,10)" class="S ss" d="M1620 1952 L1440 2132 L1440 2142 L1620 1962 Z"/><path class="s7" d="M1620 1952 L1440 2132 L1440 2142 L1620 1962 Z" /></g><g class="o"><path transform="translate(5,10)" class="S sfh" d="M1531 2037 L1720 1848 L1756 1848 L1567 2037 Z"/><path class="fh6" d="M1531 2037 L1720 1848 L1756 1848 L1567 2037 Z" /></g><g class="o"><path transform="translate(9,18)" class="S sfh" d="M1768 1545 L1850 1627 L1862 1627 L1780 1545 Z"/><path class="fh1" d="M1768 1545 L1850 1627 L1862 1627 L1780 1545 Z" /></g><g class="o"><path transform="translate(9,18)" class="S sfv" d="M1976 1086 L2053 1009 L2053 1041 L1976 1118 Z"/><path class="fv4" d="M1976 1086 L2053 1009 L2053 1041 L1976 1118 Z" /></g><g class="o"><path transform="translate(5,10)" class="S sfh" d="M1428 976 L1493 911 L1509 911 L1444 976 Z"/><path class="fh7" d="M1428 976 L1493 911 L1509 911 L1444 976 Z" /></g><g class="o"><path transform="translate(8,16)" class="S sfh" d="M1484 966 L1319 801 L1351 801 L1516 966 Z"/><path class="fh4" d="M1484 966 L1319 801 L1351 801 L1516 966 Z" /></g><g class="o"><path transform="translate(9,18)" class="S sfv" d="M1259 1023 L1032 796 L1032 832 L1259 1059 Z"/><path class="fv7" d="M1259 1023 L1032 796 L1032 832 L1259 1059 Z" /></g><g class="o"><path transform="translate(9,18)" class="S sf" d="M1168 1311 L1372 1107 L1382 1107 L1178 1311 Z"/><path class="f3" d="M1168 1311 L1372 1107 L1382 1107 L1178 1311 Z" /></g><g class="o"><path transform="translate(4,8)" class="S sfv" d="M1861 2004 L1916 1949 L1916 1963 L1861 2018 Z"/><path class="fv3" d="M1861 2004 L1916 1949 L1916 1963 L1861 2018 Z" /></g><g class="o"><path transform="translate(5,10)" class="S sf" d="M1545 1340 L969 1916 L969 1996 L1545 1420 Z"/><path class="f1" d="M1545 1340 L969 1916 L969 1996 L1545 1420 Z" /></g><g class="o"><path transform="translate(4,8)" class="S sfv" d="M1283 1712 L1146 1575 L1146 1603 L1283 1740 Z"/><path class="fv5" d="M1283 1712 L1146 1575 L1146 1603 L1283 1740 Z" /></g><g class="o"><path transform="translate(2,4)" class="S ssh" d="M2027 1609 L2220 1802 L2254 1802 L2061 1609 Z"/><path class="sh3" d="M2027 1609 L2220 1802 L2254 1802 L2061 1609 Z" /></g><g class="o"><path transform="translate(8,16)" class="S sf" d="M1874 1133 L2084 923 L2122 923 L1912 1133 Z"/><path class="f3" d="M1874 1133 L2084 923 L2122 923 L1912 1133 Z" /></g><g class="o"><path transform="translate(4,8)" class="S ssv" d="M1061 1682 L997 1618 L997 1628 L1061 1692 Z"/><path class="sv4" d="M1061 1682 L997 1618 L997 1628 L1061 1692 Z" /></g><g class="o"><path transform="translate(9,18)" class="S sfv" d="M1866 1377 L2026 1537 L2026 1569 L1866 1409 Z"/><path class="fv7" d="M1866 1377 L2026 1537 L2026 1569 L1866 1409 Z" /></g><g class="o"><path transform="translate(5,10)" class="S sfv" d="M1975 1551 L1783 1743 L1783 1757 L1975 1565 Z"/><path class="fv6" d="M1975 1551 L1783 1743 L1783 1757 L1975 1565 Z" /></g><g class="o"><path transform="translate(4,8)" class="S sfv" d="M1249 1099 L1404 944 L1404 1000 L1249 1155 Z"/><path class="fv2" d="M1249 1099 L1404 944 L1404 1000 L1249 1155 Z" /></g><g class="o"><path transform="translate(8,16)" class="S sfv" d="M1937 1504 L2186 1255 L2186 1285 L1937 1534 Z"/><path class="fv6" d="M1937 1504 L2186 1255 L2186 1285 L1937 1534 Z" /></g><g class="o"><path transform="translate(5,10)" class="S sfv" d="M1346 1105 L1415 1174 L1415 1188 L1346 1119 Z"/><path class="fv6" d="M1346 1105 L1415 1174 L1415 1188 L1346 1119 Z" /></g><g class="o"><path transform="translate(6,12)" class="S sf" d="M1197 1546 L993 1342 L993 1360 L1197 1564 Z"/><path class="f1" d="M1197 1546 L993 1342 L993 1360 L1197 1564 Z" /></g><g class="o"><path transform="translate(6,12)" class="S sf" d="M2036 1054 L1796 1294 L1796 1326 L2036 1086 Z"/><path class="f6" d="M2036 1054 L1796 1294 L1796 1326 L2036 1086 Z" /></g><g class="o"><path transform="translate(3,6)" class="S sfv" d="M1597 1635 L1846 1386 L1846 1422 L1597 1671 Z"/><path class="fv2" d="M1597 1635 L1846 1386 L1846 1422 L1597 1671 Z" /></g><g class="o"><path transform="translate(3,6)" class="S sfh" d="M1882 1650 L1715 1817 L1723 1817 L1890 1650 Z"/><path class="fh6" d="M1882 1650 L1715 1817 L1723 1817 L1890 1650 Z" /></g><g class="o"><path transform="translate(9,18)" class="S sfv" d="M1035 903 L1204 1072 L1204 1208 L1035 1039 Z"/><path class="fv4" d="M1035 903 L1204 1072 L1204 1208 L1035 1039 Z" /></g><g class="o"><path transform="translate(3,6)" class="S sfh" d="M1817 1482 L1919 1584 L1937 1584 L1835 1482 Z"/><path class="fh1" d="M1817 1482 L1919 1584 L1937 1584 L1835 1482 Z" /></g><g class="o"><path transform="translate(6,12)" class="S sfh" d="M1250 1016 L1428 1194 L1452 1194 L1274 1016 Z"/><path class="fh4" d="M1250 1016 L1428 1194 L1452 1194 L1274 1016 Z" /></g><g class="o"><path transform="translate(2,4)" class="S sfv" d="M1161 1291 L1106 1346 L1106 1378 L1161 1323 Z"/><path class="fv7" d="M1161 1291 L1106 1346 L1106 1378 L1161 1323 Z" /></g><g class="o"><path transform="translate(6,12)" class="S sfv" d="M1206 1502 L1136 1572 L1136 1604 L1206 1534 Z"/><path class="fv3" d="M1206 1502 L1136 1572 L1136 1604 L1206 1534 Z" /></g><g class="o"><path transform="translate(5,10)" class="S ssv" d="M1037 1574 L1277 1334 L1277 1352 L1037 1592 Z"/><path class="sv7" d="M1037 1574 L1277 1334 L1277 1352 L1037 1592 Z" /></g><g class="o"><path transform="translate(4,8)" class="S sfv" d="M1631 1059 L1389 817 L1389 841 L1631 1083 Z"/><path class="fv6" d="M1631 1059 L1389 817 L1389 841 L1631 1083 Z" /></g><g class="o"><path transform="translate(7,14)" class="S sfh" d="M1279 1036 L1085 842 L1111 842 L1305 1036 Z"/><path class="fh6" d="M1279 1036 L1085 842 L1111 842 L1305 1036 Z" /></g><g class="o"><path transform="translate(2,4)" class="S sfh" d="M1122 1234 L1005 1351 L1043 1351 L1160 1234 Z"/><path class="fh6" d="M1122 1234 L1005 1351 L1043 1351 L1160 1234 Z" /></g><g class="o"><path transform="translate(9,18)" class="S sfv" d="M1689 1701 L1505 1885 L1505 1909 L1689 1725 Z"/><path class="fv7" d="M1689 1701 L1505 1885 L1505 1909 L1689 1725 Z" /></g><g class="o"><path transform="translate(7,14)" class="S sfh" d="M1300 1419 L1162 1281 L1170 1281 L1308 1419 Z"/><path class="fh7" d="M1300 1419 L1162 1281 L1170 1281 L1308 1419 Z" /></g><g class="o"><path transform="translate(7,14)" class="S sfh" d="M1483 1250 L1298 1065 L1334 1065 L1519 1250 Z"/><path class="fh6" d="M1483 1250 L1298 1065 L1334 1065 L1519 1250 Z" /></g><g class="o"><path transform="translate(2,4)" class="S sfv" d="M1904 1327 L1840 1263 L1840 1291 L1904 1355 Z"/><path class="fv7" d="M1904 1327 L1840 1263 L1840 1291 L1904 1355 Z" /></g><g class="o"><path transform="translate(5,10)" class="S sf" d="M1916 1886 L1758 1728 L1758 1748 L1916 1906 Z"/><path class="f7" d="M1916 1886 L1758 1728 L1758 1748 L1916 1906 Z" /></g><g class="o"><path transform="translate(6,12)" class="S sfh" d="M2005 1152 L1922 1235 L1942 1235 L2025 1152 Z"/><path class="fh3" d="M2005 1152 L1922 1235 L1942 1235 L2025 1152 Z" /></g><g class="o"><path transform="translate(4,8)" class="S ssv" d="M1611 1449 L1496 1334 L1496 1356 L1611 1471 Z"/><path class="sv3" d="M1611 1449 L1496 1334 L1496 1356 L1611 1471 Z" /></g><g class="o"><path transform="translate(5,10)" class="S ssh" d="M1412 1214 L1519 1107 L1647 1107 L1540 1214 Z"/><path class="sh7" d="M1412 1214 L1519 1107 L1647 1107 L1540 1214 Z" /></g><g class="o"><path transform="translate(2,4)" class="S sfv" d="M2011 1029 L1814 1226 L1814 1252 L2011 1055 Z"/><path class="fv6" d="M2011 1029 L1814 1226 L1814 1252 L2011 1055 Z" /></g><g class="o"><path transform="translate(4,8)" class="S sfh" d="M1353 1360 L1407 1414 L1559 1414 L1505 1360 Z"/><path class="fh5" d="M1353 1360 L1407 1414 L1559 1414 L1505 1360 Z" /></g><g class="o"><path transform="translate(4,8)" class="S sfh" d="M1954 1998 L2108 2152 L2122 2152 L1968 1998 Z"/><path class="fh7" d="M1954 1998 L2108 2152 L2122 2152 L1968 1998 Z" /></g><g class="o"><path transform="translate(7,14)" class="S ssh" d="M1952 1922 L2071 2041 L2093 2041 L1974 1922 Z"/><path class="sh6" d="M1952 1922 L2071 2041 L2093 2041 L1974 1922 Z" /></g><g class="o"><path transform="translate(5,10)" class="S sfv" d="M1058 1022 L947 1133 L947 1141 L1058 1030 Z"/><path class="fv5" d="M1058 1022 L947 1133 L947 1141 L1058 1030 Z" /></g><g class="o"><path transform="translate(8,16)" class="S ssv" d="M1041 1118 L1671 1748 L1671 1776 L1041 1146 Z"/><path class="sv2" d="M1041 1118 L1671 1748 L1671 1776 L1041 1146 Z" /></g><g class="o"><path transform="translate(2,4)" class="S ssh" d="M988 1794 L1140 1642 L1174 1642 L1022 1794 Z"/><path class="sh6" d="M988 1794 L1140 1642 L1174 1642 L1022 1794 Z" /></g><g class="o"><path transform="translate(2,4)" class="S sfv" d="M1064 1143 L848 927 L848 961 L1064 1177 Z"/><path class="fv7" d="M1064 1143 L848 927 L848 961 L1064 1177 Z" /></g><g class="o"><path transform="translate(7,14)" class="S ssh" d="M1162 1336 L1034 1464 L1056 1464 L1184 1336 Z"/><path class="sh2" d="M1162 1336 L1034 1464 L1056 1464 L1184 1336 Z" /></g><g class="o"><path transform="translate(4,8)" class="S sfv" d="M1571 1352 L1442 1481 L1442 1517 L1571 1388 Z"/><path class="fv3" d="M1571 1352 L1442 1481 L1442 1517 L1571 1388 Z" /></g><g class="o"><path transform="translate(4,8)" class="S ssv" d="M1287 1786 L1426 1925 L1426 1957 L1287 1818 Z"/><path class="sv4" d="M1287 1786 L1426 1925 L1426 1957 L1287 1818 Z" /></g><g class="o"><path transform="translate(2,4)" class="S sfv" d="M1085 1887 L1273 2075 L1273 2091 L1085 1903 Z"/><path class="fv2" d="M1085 1887 L1273 2075 L1273 2091 L1085 1903 Z" /></g><g class="o"><path transform="translate(9,18)" class="S sfv" d="M1158 1214 L1354 1410 L1354 1422 L1158 1226 Z"/><path class="fv6" d="M1158 1214 L1354 1410 L1354 1422 L1158 1226 Z" /></g><g class="o"><path transform="translate(9,18)" class="S ssh" d="M1839 1845 L1723 1729 L1743 1729 L1859 1845 Z"/><path class="sh4" d="M1839 1845 L1723 1729 L1743 1729 L1859 1845 Z" /></g><g class="o"><path transform="translate(8,16)" class="S ss" d="M1945 1253 L2013 1321 L2061 1321 L1993 1253 Z"/><path class="s7" d="M1945 1253 L2013 1321 L2061 1321 L1993 1253 Z" /></g><g class="o"><path transform="translate(5,10)" class="S sf" d="M1940 1877 L2065 2002 L2065 2026 L1940 1901 Z"/><path class="f5" d="M1940 1877 L2065 2002 L2065 2026 L1940 1901 Z" /></g><g class="o"><path transform="translate(6,12)" class="S sfv" d="M1625 1609 L1422 1812 L1422 1852 L1625 1649 Z"/><path class="fv1" d="M1625 1609 L1422 1812 L1422 1852 L1625 1649 Z" /></g><g class="o"><path transform="translate(4,8)" class="S sfh" d="M1627 2007 L1213 1593 L1251 1593 L1665 2007 Z"/><path class="fh5" d="M1627 2007 L1213 1593 L1251 1593 L1665 2007 Z" /></g><g class="o"><path transform="translate(8,16)" class="S sfv" d="M977 1150 L863 1036 L863 1068 L977 1182 Z"/><path class="fv5" d="M977 1150 L863 1036 L863 1068 L977 1182 Z" /></g><g class="o"><path transform="translate(3,6)" class="S sfv" d="M1454 1396 L1510 1452 L1510 1488 L1454 1432 Z"/><path class="fv6" d="M1454 1396 L1510 1452 L1510 1488 L1454 1432 Z" /></g><g class="o"><path transform="translate(8,16)" class="S ssv" d="M1306 1871 L1442 1735 L1442 1759 L1306 1895 Z"/><path class="sv6" d="M1306 1871 L1442 1735 L1442 1759 L1306 1895 Z" /></g><g class="o"><path transform="translate(2,4)" class="S sfv" d="M1539 1922 L1389 2072 L1389 2110 L1539 1960 Z"/><path class="fv3" d="M1539 1922 L1389 2072 L1389 2110 L1539 1960 Z" /></g><g class="o"><path transform="translate(7,14)" class="S sfv" d="M1355 1511 L1256 1610 L1256 1632 L1355 1533 Z"/><path class="fv4" d="M1355 1511 L1256 1610 L1256 1632 L1355 1533 Z" /></g><g class="o"><path transform="translate(9,18)" class="S sfv" d="M1999 1418 L1887 1530 L1887 1556 L1999 1444 Z"/><path class="fv6" d="M1999 1418 L1887 1530 L1887 1556 L1999 1444 Z" /></g><g class="o"><path transform="translate(4,8)" class="S ssh" d="M1753 1567 L2008 1312 L2046 1312 L1791 1567 Z"/><path class="sh1" d="M1753 1567 L2008 1312 L2046 1312 L1791 1567 Z" /></g><g class="o"><path transform="translate(5,10)" class="S ssh" d="M1571 1899 L1376 2094 L1388 2094 L1583 1899 Z"/><path class="sh7" d="M1571 1899 L1376 2094 L1388 2094 L1583 1899 Z" /></g><g class="o"><path transform="translate(4,8)" class="S sfv" d="M1041 1484 L919 1606 L919 1628 L1041 1506 Z"/><path class="fv6" d="M1041 1484 L919 1606 L919 1628 L1041 1506 Z" /></g><g class="o"><path transform="translate(5,10)" class="S sfh" d="M1709 989 L1618 898 L1634 898 L1725 989 Z"/><path class="fh7" d="M1709 989 L1618 898 L1634 898 L1725 989 Z" /></g><g class="o"><path transform="translate(7,14)" class="S ssh" d="M1220 996 L1399 817 L1419 817 L1240 996 Z"/><path class="sh2" d="M1220 996 L1399 817 L1419 817 L1240 996 Z" /></g><g class="o"><path transform="translate(2,4)" class="S sfh" d="M1797 1392 L1878 1473 L1914 1473 L1833 1392 Z"/><path class="fh3" d="M1797 1392 L1878 1473 L1914 1473 L1833 1392 Z" /></g><g class="o"><path transform="translate(5,10)" class="S sf" d="M1693 1071 L1446 824 L1460 824 L1707 1071 Z"/><path class="f1" d="M1693 1071 L1446 824 L1460 824 L1707 1071 Z" /></g><g class="o"><path transform="translate(6,12)" class="S sfh" d="M1406 972 L1493 1059 L1529 1059 L1442 972 Z"/><path class="fh5" d="M1406 972 L1493 1059 L1529 1059 L1442 972 Z" /></g><g class="o"><path transform="translate(8,16)" class="S ssv" d="M1122 1348 L1308 1162 L1308 1176 L1122 1362 Z"/><path class="sv7" d="M1122 1348 L1308 1162 L1308 1176 L1122 1362 Z" /></g><g class="o"><path transform="translate(5,10)" class="S ss" d="M1204 1332 L1421 1115 L1455 1115 L1238 1332 Z"/><path class="s2" d="M1204 1332 L1421 1115 L1455 1115 L1238 1332 Z" /></g><g class="o"><path transform="translate(2,4)" class="S ssh" d="M1665 1208 L1458 1415 L1476 1415 L1683 1208 Z"/><path class="sh2" d="M1665 1208 L1458 1415 L1476 1415 L1683 1208 Z" /></g><g class="o"><path transform="translate(5,10)" class="S ssh" d="M1008 959 L549 500 L559 500 L1018 959 Z"/><path class="sh5" d="M1008 959 L549 500 L559 500 L1018 959 Z" /></g><g class="o"><path transform="translate(3,6)" class="S ss" d="M2024 1929 L2074 1979 L2112 1979 L2062 1929 Z"/><path class="s5" d="M2024 1929 L2074 1979 L2112 1979 L2062 1929 Z" /></g><g class="o"><path transform="translate(3,6)" class="S sf" d="M1401 1854 L1527 1728 L1553 1728 L1427 1854 Z"/><path class="f3" d="M1401 1854 L1527 1728 L1553 1728 L1427 1854 Z" /></g><g class="o"><path transform="translate(8,16)" class="S sf" d="M1859 1994 L1744 1879 L1744 1905 L1859 2020 Z"/><path class="f3" d="M1859 1994 L1744 1879 L1744 1905 L1859 2020 Z" /></g><g class="o"><path transform="translate(2,4)" class="S sfv" d="M1820 1438 L2054 1204 L2054 1228 L1820 1462 Z"/><path class="fv6" d="M1820 1438 L2054 1204 L2054 1228 L1820 1462 Z" /></g><g class="o"><path transform="translate(2,4)" class="S sfv" d="M1859 1637 L2006 1490 L2006 1510 L1859 1657 Z"/><path class="fv1" d="M1859 1637 L2006 1490 L2006 1510 L1859 1657 Z" /></g><g class="o"><path transform="translate(3,6)" class="S sfh" d="M1946 991 L1865 1072 L1891 1072 L1972 991 Z"/><path class="fh4" d="M1946 991 L1865 1072 L1891 1072 L1972 991 Z" /></g><g class="o"><path transform="translate(5,10)" class="S sfv" d="M1519 1791 L934 2376 L934 2386 L1519 1801 Z"/><path class="fv4" d="M1519 1791 L934 2376 L934 2386 L1519 1801 Z" /></g><g class="o"><path transform="translate(9,18)" class="S sfh" d="M1609 1073 L1522 1160 L1548 1160 L1635 1073 Z"/><path class="fh6" d="M1609 1073 L1522 1160 L1548 1160 L1635 1073 Z" /></g></g><use href="#slashes" transform-origin="1500 1500" transform="rotate(180) scale(2)"/></g><circle cx="1500" cy="1500" r="450" stroke-width="20" class="o s4" /><use href="#slashes" transform-origin="1500 1500" transform="scale(.7)"/><use href="#slashes" transform-origin="1500 1500" transform="rotate(180) scale(.3)"/></svg>