<svg xmlns="http://www.w3.org/2000/svg" viewBox="750 750 1500 1500"><style>/*<![CDATA[*/svg{background:rgb(87,79,125);max-width:100vw;max-height:100vh}path{stroke-width:4}.o{opacity:.75}.S{opacity:.4}.sf{stroke:none;fill:black}.sfh{stroke:none;fill:url(#hs)}.sfv{stroke:none;fill:url(#vs)}.ss{stroke:black;fill:none}.ssh{stroke:url(#hs);fill:none}.ssv{stroke:url(#vs);fill:none}.s1{fill:none;stroke:rgb(34,34,34)}.f1{stroke:none;fill:rgb(34,34,34)}.sh1{fill:none;stroke:url(#h1)}.fh1{stroke:none;fill:url(#h1)}.sv1{fill:none;stroke:url(#v1)}.fv1{stroke:none;fill:url(#v1)}.s2{fill:none;stroke:rgb(149,173,190)}.f2{stroke:none;fill:rgb(149,173,190)}.sh2{fill:none;stroke:url(#h2)}.fh2{stroke:none;fill:url(#h2)}.sv2{fill:none;stroke:url(#v2)}.fv2{stroke:none;fill:url(#v2)}.s3{fill:none;stroke:rgb(80,58,101)}.f3{stroke:none;fill:rgb(80,58,101)}.sh3{fill:none;stroke:url(#h3)}.fh3{stroke:none;fill:url(#h3)}.sv3{fill:none;stroke:url(#v3)}.fv3{stroke:none;fill:url(#v3)}.s4{fill:none;stroke:rgb(224,240,234)}.f4{stroke:none;fill:rgb(224,240,234)}.sh4{fill:none;stroke:url(#h4)}.fh4{stroke:none;fill:url(#h4)}.sv4{fill:none;stroke:url(#v4)}.fv4{stroke:none;fill:url(#v4)}.s5{fill:none;stroke:rgb(60,42,77)}.f5{stroke:none;fill:rgb(60,42,77)}.sh5{fill:none;stroke:url(#h5)}.fh5{stroke:none;fill:url(#h5)}.sv5{fill:none;stroke:url(#v5)}.fv5{stroke:none;fill:url(#v5)}.s6{fill:none;stroke:rgb(255,255,255)}.f6{stroke:none;fill:rgb(255,255,255)}.sh6{fill:none;stroke:url(#h6)}.fh6{stroke:none;fill:url(#h6)}.sv6{fill:none;stroke:url(#v6)}.fv6{stroke:none;fill:url(#v6)}.s7{fill:none;stroke:rgb(255,255,0)}.f7{stroke:none;fill:rgb(255,255,0)}.sh7{fill:none;stroke:url(#h7)}.fh7{stroke:none;fill:url(#h7)}.sv7{fill:none;stroke:url(#v7)}.fv7{stroke:none;fill:url(#v7)}/*]]>*/</style><defs><linearGradient gradientTransform="rotate(90)" id="hs"><stop offset="20%" stop-color="#000" /><stop offset="95%" stop-color="rgba(0, 0, 0, 0)" /></linearGradient><linearGradient id="vs"><stop offset="20%" stop-color="#000" /><stop offset="95%" stop-color="rgba(0, 0, 0, 0)" /></linearGradient><linearGradient gradientTransform="rotate(90)" id="h1"><stop offset="20%" stop-color="rgba(34,34,34,1)" /><stop offset="95%" stop-color="rgba(34,34,34,0)" /></linearGradient><linearGradient id="v1"><stop offset="20%" stop-color="rgba(34,34,34,1)" /><stop offset="95%" stop-color="rgba(34,34,34,0)" /></linearGradient><linearGradient gradientTransform="rotate(90)" id="h2"><stop offset="20%" stop-color="rgba(149,173,190,1)" /><stop offset="95%" stop-color="rgba(149,173,190,0)" /></linearGradient><linearGradient id="v2"><stop offset="20%" stop-color="rgba(149,173,190,1)" /><stop offset="95%" stop-color="rgba(149,173,190,0)" /></linearGradient><linearGradient gradientTransform="rotate(90)" id="h3"><stop offset="20%" stop-color="rgba(80,58,101,1)" /><stop offset="95%" stop-color="rgba(80,58,101,0)" /></linearGradient><linearGradient id="v3"><stop offset="20%" stop-color="rgba(80,58,101,1)" /><stop offset="95%" stop-color="rgba(80,58,101,0)" /></linearGradient><linearGradient gradientTransform="rotate(90)" id="h4"><stop offset="20%" stop-color="rgba(224,240,234,1)" /><stop offset="95%" stop-color="rgba(224,240,234,0)" /></linearGradient><linearGradient id="v4"><stop offset="20%" stop-color="rgba(224,240,234,1)" /><stop offset="95%" stop-color="rgba(224,240,234,0)" /></linearGradient><linearGradient gradientTransform="rotate(90)" id="h5"><stop offset="20%" stop-color="rgba(60,42,77,1)" /><stop offset="95%" stop-color="rgba(60,42,77,0)" /></linearGradient><linearGradient id="v5"><stop offset="20%" stop-color="rgba(60,42,77,1)" /><stop offset="95%" stop-color="rgba(60,42,77,0)" /></linearGradient><linearGradient gradientTransform="rotate(90)" id="h6"><stop offset="20%" stop-color="rgba(255,255,255,1)" /><stop offset="95%" stop-color="rgba(255,255,255,0)" /></linearGradient><linearGradient id="v6"><stop offset="20%" stop-color="rgba(255,255,255,1)" /><stop offset="95%" stop-color="rgba(255,255,255,0)" /></linearGradient><linearGradient gradientTransform="rotate(90)" id="h7"><stop offset="20%" stop-color="rgba(255,255,0,1)" /><stop offset="95%" stop-color="rgba(255,255,0,0)" /></linearGradient><linearGradient id="v7"><stop offset="20%" stop-color="rgba(255,255,0,1)" /><stop offset="95%" stop-color="rgba(255,255,0,0)" /></linearGradient></defs><g transform-origin="1500 1500" transform="scale(2)" opacity=".8"><g id="slashes"><g class="o"><path transform="translate(7,14)" class="S sfh" d="M1463 1199 L1565 1301 L1587 1301 L1485 1199 Z"/><path class="fh4" d="M1463 1199 L1565 1301 L1587 1301 L1485 1199 Z" /></g><g class="o"><path transform="translate(6,12)" class="S sfh" d="M1744 1676 L1926 1858 L1950 1858 L1768 1676 Z"/><path class="fh6" d="M1744 1676 L1926 1858 L1950 1858 L1768 1676 Z" /></g><g class="o"><path transform="translate(5,10)" class="S sf" d="M2019 1402 L2255 1638 L2255 1694 L2019 1458 Z"/><path class="f3" d="M2019 1402 L2255 1638 L2255 1694 L2019 1458 Z" /></g><g class="o"><path transform="translate(2,4)" class="S sfv" d="M1483 1230 L1726 1473 L1726 1545 L1483 1302 Z"/><path class="fv4" d="M1483 1230 L1726 1473 L1726 1545 L1483 1302 Z" /></g><g class="o"><path transform="translate(3,6)" class="S sfh" d="M1143 1563 L1360 1780 L1394 1780 L1177 1563 Z"/><path class="fh1" d="M1143 1563 L1360 1780 L1394 1780 L1177 1563 Z" /></g><g class="o"><path transform="translate(6,12)" class="S sfh" d="M1854 1880 L2102 2128 L2118 2128 L1870 1880 Z"/><path class="fh5" d="M1854 1880 L2102 2128 L2118 2128 L1870 1880 Z" /></g><g class="o"><path transform="translate(3,6)" class="S sfv" d="M961 1537 L1108 1684 L1108 1708 L961 1561 Z"/><path class="fv5" d="M961 1537 L1108 1684 L1108 1708 L961 1561 Z" /></g><g class="o"><path transform="translate(5,10)" class="S sf" d="M971 959 L1077 1065 L1077 1097 L971 991 Z"/><path class="f1" d="M971 959 L1077 1065 L1077 1097 L971 991 Z" /></g><g class="o"><path transform="translate(7,14)" class="S sfh" d="M1039 1894 L902 2031 L922 2031 L1059 1894 Z"/><path class="fh6" d="M1039 1894 L902 2031 L922 2031 L1059 1894 Z" /></g><g class="o"><path transform="translate(9,18)" class="S sfv" d="M1527 1661 L1742 1876 L1742 1972 L1527 1757 Z"/><path class="fv4" d="M1527 1661 L1742 1876 L1742 1972 L1527 1757 Z" /></g><g class="o"><path transform="translate(5,10)" class="S ssv" d="M993 1645 L858 1780 L858 1806 L993 1671 Z"/><path class="sv6" d="M993 1645 L858 1780 L858 1806 L993 1671 Z" /></g><g class="o"><path transform="translate(3,6)" class="S sfh" d="M1805 1582 L1939 1716 L1951 1716 L1817 1582 Z"/><path class="fh1" d="M1805 1582 L1939 1716 L1951 1716 L1817 1582 Z" /></g><g class="o"><path transform="translate(6,12)" class="S ssh" d="M1393 1961 L1538 2106 L1572 2106 L1427 1961 Z"/><path class="sh6" d="M1393 1961 L1538 2106 L1572 2106 L1427 1961 Z" /></g><g class="o"><path transform="translate(5,10)" class="S ssv" d="M1271 1843 L1417 1989 L1417 2011 L1271 1865 Z"/><path class="sv2" d="M1271 1843 L1417 1989 L1417 2011 L1271 1865 Z" /></g><g class="o"><path transform="translate(5,10)" class="S ssh" d="M1195 1837 L1303 1945 L1391 1945 L1283 1837 Z"/><path class="sh3" d="M1195 1837 L1303 1945 L1391 1945 L1283 1837 Z" /></g><g class="o"><path transform="translate(4,8)" class="S sfh" d="M1416 1860 L1648 2092 L1704 2092 L1472 1860 Z"/><path class="fh5" d="M1416 1860 L1648 2092 L1704 2092 L1472 1860 Z" /></g><g class="o"><path transform="translate(4,8)" class="S sfh" d="M934 1815 L1079 1960 L1113 1960 L968 1815 Z"/><path class="fh6" d="M934 1815 L1079 1960 L1113 1960 L968 1815 Z" /></g><g class="o"><path transform="translate(5,10)" class="S sfh" d="M1422 1815 L1475 1868 L1497 1868 L1444 1815 Z"/><path class="fh7" d="M1422 1815 L1475 1868 L1497 1868 L1444 1815 Z" /></g><g class="o"><path transform="translate(9,18)" class="S sf" d="M1602 1014 L1838 1250 L1838 1394 L1602 1158 Z"/><path class="f7" d="M1602 1014 L1838 1250 L1838 1394 L1602 1158 Z" /></g><g class="o"><path transform="translate(4,8)" class="S ssh" d="M977 1159 L830 1306 L860 1306 L1007 1159 Z"/><path class="sh2" d="M977 1159 L830 1306 L860 1306 L1007 1159 Z" /></g><g class="o"><path transform="translate(3,6)" class="S sfv" d="M1808 1042 L1942 1176 L1942 1208 L1808 1074 Z"/><path class="fv4" d="M1808 1042 L1942 1176 L1942 1208 L1808 1074 Z" /></g><g class="o"><path transform="translate(5,10)" class="S sfv" d="M1417 1987 L1523 2093 L1523 2105 L1417 1999 Z"/><path class="fv7" d="M1417 1987 L1523 2093 L1523 2105 L1417 1999 Z" /></g><g class="o"><path transform="translate(5,10)" class="S sf" d="M1993 1158 L2073 1238 L2097 1238 L2017 1158 Z"/><path class="f2" d="M1993 1158 L2073 1238 L2097 1238 L2017 1158 Z" /></g><g class="o"><path transform="translate(3,6)" class="S sfv" d="M1548 1500 L1609 1561 L1609 1689 L1548 1628 Z"/><path class="fv3" d="M1548 1500 L1609 1561 L1609 1689 L1548 1628 Z" /></g><g class="o"><path transform="translate(2,4)" class="S ssh" d="M1912 974 L1694 1192 L1718 1192 L1936 974 Z"/><path class="sh7" d="M1912 974 L1694 1192 L1718 1192 L1936 974 Z" /></g><g class="o"><path transform="translate(4,8)" class="S sf" d="M1825 1947 L2069 2191 L2069 2229 L1825 1985 Z"/><path class="f1" d="M1825 1947 L2069 2191 L2069 2229 L1825 1985 Z" /></g><g class="o"><path transform="translate(4,8)" class="S ssv" d="M1422 1416 L1574 1568 L1574 1688 L1422 1536 Z"/><path class="sv7" d="M1422 1416 L1574 1568 L1574 1688 L1422 1536 Z" /></g><g class="o"><path transform="translate(5,10)" class="S ssh" d="M1405 1699 L1580 1874 L1592 1874 L1417 1699 Z"/><path class="sh5" d="M1405 1699 L1580 1874 L1592 1874 L1417 1699 Z" /></g><g class="o"><path transform="translate(2,4)" class="S sfh" d="M1114 1383 L963 1534 L1003 1534 L1154 1383 Z"/><path class="fh1" d="M1114 1383 L963 1534 L1003 1534 L1154 1383 Z" /></g><g class="o"><path transform="translate(4,8)" class="S ssh" d="M1849 1456 L2068 1675 L2124 1675 L1905 1456 Z"/><path class="sh6" d="M1849 1456 L2068 1675 L2124 1675 L1905 1456 Z" /></g><g class="o"><path transform="translate(2,4)" class="S sfv" d="M1956 1560 L2012 1616 L2012 1630 L1956 1574 Z"/><path class="fv5" d="M1956 1560 L2012 1616 L2012 1630 L1956 1574 Z" /></g><g class="o"><path transform="translate(7,14)" class="S ssv" d="M1621 1592 L1830 1801 L1830 1889 L1621 1680 Z"/><path class="sv5" d="M1621 1592 L1830 1801 L1830 1889 L1621 1680 Z" /></g><g class="o"><path transform="translate(9,18)" class="S sfv" d="M1579 1250 L1635 1306 L1635 1344 L1579 1288 Z"/><path class="fv3" d="M1579 1250 L1635 1306 L1635 1344 L1579 1288 Z" /></g><g class="o"><path transform="translate(3,6)" class="S sfh" d="M1974 1985 L2215 2226 L2237 2226 L1996 1985 Z"/><path class="fh3" d="M1974 1985 L2215 2226 L2237 2226 L1996 1985 Z" /></g><g class="o"><path transform="translate(6,12)" class="S sfh" d="M1231 1463 L1425 1657 L1505 1657 L1311 1463 Z"/><path class="fh7" d="M1231 1463 L1425 1657 L1505 1657 L1311 1463 Z" /></g><g class="o"><path transform="translate(9,18)" class="S sfv" d="M1638 1665 L1394 1909 L1394 1927 L1638 1683 Z"/><path class="fv6" d="M1638 1665 L1394 1909 L1394 1927 L1638 1683 Z" /></g><g class="o"><path transform="translate(5,10)" class="S sf" d="M1787 1486 L1579 1694 L1579 1704 L1787 1496 Z"/><path class="f3" d="M1787 1486 L1579 1694 L1579 1704 L1787 1496 Z" /></g><g class="o"><path transform="translate(2,4)" class="S ss" d="M1218 1701 L987 1932 L987 1980 L1218 1749 Z"/><path class="s6" d="M1218 1701 L987 1932 L987 1980 L1218 1749 Z" /></g><g class="o"><path transform="translate(9,18)" class="S sfv" d="M1354 1913 L1465 2024 L1465 2104 L1354 1993 Z"/><path class="fv3" d="M1354 1913 L1465 2024 L1465 2104 L1354 1993 Z" /></g><g class="o"><path transform="translate(7,14)" class="S ss" d="M1013 1392 L825 1580 L825 1610 L1013 1422 Z"/><path class="s6" d="M1013 1392 L825 1580 L825 1610 L1013 1422 Z" /></g><g class="o"><path transform="translate(3,6)" class="S sfv" d="M1405 1200 L1483 1278 L1483 1308 L1405 1230 Z"/><path class="fv7" d="M1405 1200 L1483 1278 L1483 1308 L1405 1230 Z" /></g><g class="o"><path transform="translate(3,6)" class="S sfh" d="M1413 2010 L1320 2103 L1334 2103 L1427 2010 Z"/><path class="fh3" d="M1413 2010 L1320 2103 L1334 2103 L1427 2010 Z" /></g><g class="o"><path transform="translate(5,10)" class="S ssh" d="M976 1637 L1060 1721 L1096 1721 L1012 1637 Z"/><path class="sh6" d="M976 1637 L1060 1721 L1096 1721 L1012 1637 Z" /></g><g class="o"><path transform="translate(6,12)" class="S sfh" d="M937 1038 L1022 1123 L1050 1123 L965 1038 Z"/><path class="fh1" d="M937 1038 L1022 1123 L1050 1123 L965 1038 Z" /></g><g class="o"><path transform="translate(4,8)" class="S sfv" d="M1292 1139 L1406 1253 L1406 1349 L1292 1235 Z"/><path class="fv2" d="M1292 1139 L1406 1253 L1406 1349 L1292 1235 Z" /></g><g class="o"><path transform="translate(5,10)" class="S sfv" d="M1988 1843 L2202 2057 L2202 2137 L1988 1923 Z"/><path class="fv7" d="M1988 1843 L2202 2057 L2202 2137 L1988 1923 Z" /></g><g class="o"><path transform="translate(9,18)" class="S sfv" d="M1395 1407 L1640 1652 L1640 1780 L1395 1535 Z"/><path class="fv7" d="M1395 1407 L1640 1652 L1640 1780 L1395 1535 Z" /></g><g class="o"><path transform="translate(9,18)" class="S sfv" d="M1387 1063 L1470 1146 L1470 1186 L1387 1103 Z"/><path class="fv1" d="M1387 1063 L1470 1146 L1470 1186 L1387 1103 Z" /></g><g class="o"><path transform="translate(9,18)" class="S sfh" d="M1889 2039 L1722 2206 L1794 2206 L1961 2039 Z"/><path class="fh3" d="M1889 2039 L1722 2206 L1794 2206 L1961 2039 Z" /></g><g class="o"><path transform="translate(6,12)" class="S sfh" d="M1684 1038 L1567 1155 L1583 1155 L1700 1038 Z"/><path class="fh4" d="M1684 1038 L1567 1155 L1583 1155 L1700 1038 Z" /></g><g class="o"><path transform="translate(4,8)" class="S ssv" d="M1075 1083 L1324 1332 L1324 1444 L1075 1195 Z"/><path class="sv3" d="M1075 1083 L1324 1332 L1324 1444 L1075 1195 Z" /></g><g class="o"><path transform="translate(5,10)" class="S ssv" d="M1953 1354 L2113 1514 L2113 1610 L1953 1450 Z"/><path class="sv3" d="M1953 1354 L2113 1514 L2113 1610 L1953 1450 Z" /></g><g class="o"><path transform="translate(7,14)" class="S ssv" d="M1376 1514 L1553 1691 L1553 1719 L1376 1542 Z"/><path class="sv7" d="M1376 1514 L1553 1691 L1553 1719 L1376 1542 Z" /></g><g class="o"><path transform="translate(3,6)" class="S sfh" d="M1453 1621 L1592 1760 L1602 1760 L1463 1621 Z"/><path class="fh6" d="M1453 1621 L1592 1760 L1602 1760 L1463 1621 Z" /></g><g class="o"><path transform="translate(8,16)" class="S sfv" d="M1585 1662 L1661 1738 L1661 1786 L1585 1710 Z"/><path class="fv6" d="M1585 1662 L1661 1738 L1661 1786 L1585 1710 Z" /></g><g class="o"><path transform="translate(9,18)" class="S sfh" d="M1299 1141 L1381 1223 L1401 1223 L1319 1141 Z"/><path class="fh7" d="M1299 1141 L1381 1223 L1401 1223 L1319 1141 Z" /></g><g class="o"><path transform="translate(8,16)" class="S sf" d="M1755 1157 L1988 1390 L1998 1390 L1765 1157 Z"/><path class="f5" d="M1755 1157 L1988 1390 L1998 1390 L1765 1157 Z" /></g><g class="o"><path transform="translate(4,8)" class="S sfh" d="M1718 997 L1901 1180 L1911 1180 L1728 997 Z"/><path class="fh2" d="M1718 997 L1901 1180 L1911 1180 L1728 997 Z" /></g><g class="o"><path transform="translate(3,6)" class="S sf" d="M1643 1014 L1873 1244 L1889 1244 L1659 1014 Z"/><path class="f7" d="M1643 1014 L1873 1244 L1889 1244 L1659 1014 Z" /></g><g class="o"><path transform="translate(6,12)" class="S ssv" d="M1934 1561 L2084 1711 L2084 1839 L1934 1689 Z"/><path class="sv1" d="M1934 1561 L2084 1711 L2084 1839 L1934 1689 Z" /></g><g class="o"><path transform="translate(3,6)" class="S sfh" d="M1273 1039 L1399 1165 L1415 1165 L1289 1039 Z"/><path class="fh5" d="M1273 1039 L1399 1165 L1415 1165 L1289 1039 Z" /></g><g class="o"><path transform="translate(4,8)" class="S sfv" d="M1603 1200 L1691 1288 L1691 1298 L1603 1210 Z"/><path class="fv6" d="M1603 1200 L1691 1288 L1691 1298 L1603 1210 Z" /></g><g class="o"><path transform="translate(6,12)" class="S sfv" d="M1050 1952 L949 2053 L949 2079 L1050 1978 Z"/><path class="fv5" d="M1050 1952 L949 2053 L949 2079 L1050 1978 Z" /></g><g class="o"><path transform="translate(4,8)" class="S ss" d="M2029 1389 L2275 1635 L2283 1635 L2037 1389 Z"/><path class="s2" d="M2029 1389 L2275 1635 L2283 1635 L2037 1389 Z" /></g><g class="o"><path transform="translate(4,8)" class="S sfh" d="M1525 2048 L1763 2286 L1819 2286 L1581 2048 Z"/><path class="fh3" d="M1525 2048 L1763 2286 L1819 2286 L1581 2048 Z" /></g><g class="o"><path transform="translate(8,16)" class="S sfv" d="M1906 1347 L1968 1409 L1968 1429 L1906 1367 Z"/><path class="fv5" d="M1906 1347 L1968 1409 L1968 1429 L1906 1367 Z" /></g><g class="o"><path transform="translate(5,10)" class="S sfh" d="M1195 1193 L1033 1355 L1063 1355 L1225 1193 Z"/><path class="fh3" d="M1195 1193 L1033 1355 L1063 1355 L1225 1193 Z" /></g><g class="o"><path transform="translate(9,18)" class="S sf" d="M1650 1205 L1815 1370 L1853 1370 L1688 1205 Z"/><path class="f1" d="M1650 1205 L1815 1370 L1853 1370 L1688 1205 Z" /></g><g class="o"><path transform="translate(2,4)" class="S sfh" d="M1038 1787 L1233 1982 L1305 1982 L1110 1787 Z"/><path class="fh4" d="M1038 1787 L1233 1982 L1305 1982 L1110 1787 Z" /></g><g class="o"><path transform="translate(5,10)" class="S ssv" d="M1112 1319 L1338 1545 L1338 1561 L1112 1335 Z"/><path class="sv3" d="M1112 1319 L1338 1545 L1338 1561 L1112 1335 Z" /></g><g class="o"><path transform="translate(9,18)" class="S sf" d="M1478 1598 L1583 1703 L1695 1703 L1590 1598 Z"/><path class="f5" d="M1478 1598 L1583 1703 L1695 1703 L1590 1598 Z" /></g><g class="o"><path transform="translate(2,4)" class="S sfh" d="M1901 1508 L2114 1721 L2126 1721 L1913 1508 Z"/><path class="fh7" d="M1901 1508 L2114 1721 L2126 1721 L1913 1508 Z" /></g><g class="o"><path transform="translate(9,18)" class="S sfv" d="M1221 1255 L1441 1475 L1441 1595 L1221 1375 Z"/><path class="fv5" d="M1221 1255 L1441 1475 L1441 1595 L1221 1375 Z" /></g><g class="o"><path transform="translate(2,4)" class="S ssh" d="M1876 1919 L2120 2163 L2200 2163 L1956 1919 Z"/><path class="sh3" d="M1876 1919 L2120 2163 L2200 2163 L1956 1919 Z" /></g><g class="o"><path transform="translate(7,14)" class="S sfv" d="M1148 1503 L1280 1635 L1280 1657 L1148 1525 Z"/><path class="fv1" d="M1148 1503 L1280 1635 L1280 1657 L1148 1525 Z" /></g><g class="o"><path transform="translate(2,4)" class="S sfh" d="M1524 1436 L1643 1555 L1657 1555 L1538 1436 Z"/><path class="fh4" d="M1524 1436 L1643 1555 L1657 1555 L1538 1436 Z" /></g><g class="o"><path transform="translate(9,18)" class="S sf" d="M1672 1167 L1618 1221 L1618 1325 L1672 1271 Z"/><path class="f2" d="M1672 1167 L1618 1221 L1618 1325 L1672 1271 Z" /></g><g class="o"><path transform="translate(7,14)" class="S sfh" d="M1557 1383 L1654 1480 L1664 1480 L1567 1383 Z"/><path class="fh1" d="M1557 1383 L1654 1480 L1664 1480 L1567 1383 Z" /></g><g class="o"><path transform="translate(6,12)" class="S sfv" d="M1185 1516 L1425 1756 L1425 1794 L1185 1554 Z"/><path class="fv5" d="M1185 1516 L1425 1756 L1425 1794 L1185 1554 Z" /></g><g class="o"><path transform="translate(2,4)" class="S ssh" d="M1063 1590 L955 1698 L963 1698 L1071 1590 Z"/><path class="sh1" d="M1063 1590 L955 1698 L963 1698 L1071 1590 Z" /></g><g class="o"><path transform="translate(5,10)" class="S sf" d="M1291 1751 L1404 1864 L1442 1864 L1329 1751 Z"/><path class="f2" d="M1291 1751 L1404 1864 L1442 1864 L1329 1751 Z" /></g><g class="o"><path transform="translate(7,14)" class="S sf" d="M1570 1856 L1776 2062 L1776 2076 L1570 1870 Z"/><path class="f7" d="M1570 1856 L1776 2062 L1776 2076 L1570 1870 Z" /></g><g class="o"><path transform="translate(5,10)" class="S sfh" d="M1229 1237 L1049 1417 L1121 1417 L1301 1237 Z"/><path class="fh7" d="M1229 1237 L1049 1417 L1121 1417 L1301 1237 Z" /></g><g class="o"><path transform="translate(3,6)" class="S sfv" d="M1242 1273 L1463 1494 L1463 1528 L1242 1307 Z"/><path class="fv4" d="M1242 1273 L1463 1494 L1463 1528 L1242 1307 Z" /></g><g class="o"><path transform="translate(6,12)" class="S sfv" d="M1509 1846 L1590 1927 L1590 2031 L1509 1950 Z"/><path class="fv1" d="M1509 1846 L1590 1927 L1590 2031 L1509 1950 Z" /></g><g class="o"><path transform="translate(5,10)" class="S sfh" d="M1729 1297 L1504 1522 L1536 1522 L1761 1297 Z"/><path class="fh2" d="M1729 1297 L1504 1522 L1536 1522 L1761 1297 Z" /></g><g class="o"><path transform="translate(3,6)" class="S sfv" d="M1315 1515 L1412 1612 L1412 1630 L1315 1533 Z"/><path class="fv3" d="M1315 1515 L1412 1612 L1412 1630 L1315 1533 Z" /></g><g class="o"><path transform="translate(5,10)" class="S sfh" d="M1763 1979 L1940 2156 L1996 2156 L1819 1979 Z"/><path class="fh6" d="M1763 1979 L1940 2156 L1996 2156 L1819 1979 Z" /></g><g class="o"><path transform="translate(9,18)" class="S sf" d="M1743 1888 L1962 2107 L1962 2135 L1743 1916 Z"/><path class="f6" d="M1743 1888 L1962 2107 L1962 2135 L1743 1916 Z" /></g><g class="o"><path transform="translate(7,14)" class="S sfh" d="M1896 960 L1775 1081 L1809 1081 L1930 960 Z"/><path class="fh7" d="M1896 960 L1775 1081 L1809 1081 L1930 960 Z" /></g><g class="o"><path transform="translate(2,4)" class="S sfv" d="M1042 1543 L1217 1718 L1217 1752 L1042 1577 Z"/><path class="fv1" d="M1042 1543 L1217 1718 L1217 1752 L1042 1577 Z" /></g><g class="o"><path transform="translate(2,4)" class="S sfh" d="M2034 1100 L1920 1214 L1948 1214 L2062 1100 Z"/><path class="fh6" d="M2034 1100 L1920 1214 L1948 1214 L2062 1100 Z" /></g><g class="o"><path transform="translate(9,18)" class="S sfv" d="M991 1993 L1189 2191 L1189 2229 L991 2031 Z"/><path class="fv2" d="M991 1993 L1189 2191 L1189 2229 L991 2031 Z" /></g><g class="o"><path transform="translate(3,6)" class="S sfv" d="M1893 1115 L2048 1270 L2048 1310 L1893 1155 Z"/><path class="fv5" d="M1893 1115 L2048 1270 L2048 1310 L1893 1155 Z" /></g><g class="o"><path transform="translate(3,6)" class="S ssh" d="M1213 1607 L1462 1856 L1534 1856 L1285 1607 Z"/><path class="sh7" d="M1213 1607 L1462 1856 L1534 1856 L1285 1607 Z" /></g><g class="o"><path transform="translate(4,8)" class="S sfh" d="M1609 1451 L1812 1654 L1932 1654 L1729 1451 Z"/><path class="fh7" d="M1609 1451 L1812 1654 L1932 1654 L1729 1451 Z" /></g><g class="o"><path transform="translate(8,16)" class="S sfh" d="M1572 1784 L1729 1941 L1755 1941 L1598 1784 Z"/><path class="fh1" d="M1572 1784 L1729 1941 L1755 1941 L1598 1784 Z" /></g><g class="o"><path transform="translate(8,16)" class="S ssv" d="M1464 1275 L1681 1492 L1681 1588 L1464 1371 Z"/><path class="sv7" d="M1464 1275 L1681 1492 L1681 1588 L1464 1371 Z" /></g><g class="o"><path transform="translate(7,14)" class="S sfv" d="M1449 1365 L1642 1558 L1642 1586 L1449 1393 Z"/><path class="fv1" d="M1449 1365 L1642 1558 L1642 1586 L1449 1393 Z" /></g><g class="o"><path transform="translate(2,4)" class="S sfv" d="M1732 983 L1911 1162 L1911 1190 L1732 1011 Z"/><path class="fv5" d="M1732 983 L1911 1162 L1911 1190 L1732 1011 Z" /></g><g class="o"><path transform="translate(2,4)" class="S sfv" d="M2001 1826 L2084 1909 L2084 1917 L2001 1834 Z"/><path class="fv7" d="M2001 1826 L2084 1909 L2084 1917 L2001 1834 Z" /></g><g class="o"><path transform="translate(4,8)" class="S ssh" d="M1233 1557 L1463 1787 L1491 1787 L1261 1557 Z"/><path class="sh4" d="M1233 1557 L1463 1787 L1491 1787 L1261 1557 Z" /></g><g class="o"><path transform="translate(2,4)" class="S sfv" d="M1796 1807 L1936 1947 L1936 1977 L1796 1837 Z"/><path class="fv3" d="M1796 1807 L1936 1947 L1936 1977 L1796 1837 Z" /></g><g class="o"><path transform="translate(6,12)" class="S sfv" d="M1465 1434 L1306 1593 L1306 1613 L1465 1454 Z"/><path class="fv3" d="M1465 1434 L1306 1593 L1306 1613 L1465 1454 Z" /></g><g class="o"><path transform="translate(7,14)" class="S sfv" d="M1452 1871 L1261 2062 L1261 2094 L1452 1903 Z"/><path class="fv4" d="M1452 1871 L1261 2062 L1261 2094 L1452 1903 Z" /></g><g class="o"><path transform="translate(9,18)" class="S sf" d="M1760 1514 L1555 1719 L1659 1719 L1864 1514 Z"/><path class="f4" d="M1760 1514 L1555 1719 L1659 1719 L1864 1514 Z" /></g><g class="o"><path transform="translate(7,14)" class="S sfv" d="M1701 1785 L1919 2003 L1919 2099 L1701 1881 Z"/><path class="fv1" d="M1701 1785 L1919 2003 L1919 2099 L1701 1881 Z" /></g><g class="o"><path transform="translate(3,6)" class="S sfh" d="M1417 1382 L1564 1529 L1576 1529 L1429 1382 Z"/><path class="fh5" d="M1417 1382 L1564 1529 L1576 1529 L1429 1382 Z" /></g><g class="o"><path transform="translate(5,10)" class="S sf" d="M1151 1945 L1096 2000 L1112 2000 L1167 1945 Z"/><path class="f7" d="M1151 1945 L1096 2000 L1112 2000 L1167 1945 Z" /></g><g class="o"><path transform="translate(6,12)" class="S sfv" d="M1976 1788 L1893 1871 L1893 1897 L1976 1814 Z"/><path class="fv7" d="M1976 1788 L1893 1871 L1893 1897 L1976 1814 Z" /></g><g class="o"><path transform="translate(8,16)" class="S ssh" d="M1272 1965 L1141 2096 L1177 2096 L1308 1965 Z"/><path class="sh4" d="M1272 1965 L1141 2096 L1177 2096 L1308 1965 Z" /></g><g class="o"><path transform="translate(2,4)" class="S sfh" d="M1484 1879 L1604 1999 L1740 1999 L1620 1879 Z"/><path class="fh7" d="M1484 1879 L1604 1999 L1740 1999 L1620 1879 Z" /></g><g class="o"><path transform="translate(2,4)" class="S sfh" d="M1176 1967 L1257 2048 L1329 2048 L1248 1967 Z"/><path class="fh7" d="M1176 1967 L1257 2048 L1329 2048 L1248 1967 Z" /></g><g class="o"><path transform="translate(7,14)" class="S ssh" d="M1691 1091 L1541 1241 L1677 1241 L1827 1091 Z"/><path class="sh7" d="M1691 1091 L1541 1241 L1677 1241 L1827 1091 Z" /></g><g class="o"><path transform="translate(8,16)" class="S sf" d="M1024 1636 L1096 1708 L1096 1722 L1024 1650 Z"/><path class="f1" d="M1024 1636 L1096 1708 L1096 1722 L1024 1650 Z" /></g><g class="o"><path transform="translate(3,6)" class="S sfv" d="M1895 1951 L1988 2044 L1988 2196 L1895 2103 Z"/><path class="fv5" d="M1895 1951 L1988 2044 L1988 2196 L1895 2103 Z" /></g><g class="o"><path transform="translate(9,18)" class="S sfh" d="M1471 964 L1284 1151 L1316 1151 L1503 964 Z"/><path class="fh3" d="M1471 964 L1284 1151 L1316 1151 L1503 964 Z" /></g><g class="o"><path transform="translate(4,8)" class="S sfh" d="M1977 1884 L2195 2102 L2243 2102 L2025 1884 Z"/><path class="fh7" d="M1977 1884 L2195 2102 L2243 2102 L2025 1884 Z" /></g><g class="o"><path transform="translate(2,4)" class="S sfh" d="M1467 1536 L1529 1598 L1609 1598 L1547 1536 Z"/><path class="fh2" d="M1467 1536 L1529 1598 L1609 1598 L1547 1536 Z" /></g><g class="o"><path transform="translate(3,6)" class="S sfh" d="M1880 1722 L1694 1908 L1798 1908 L1984 1722 Z"/><path class="fh2" d="M1880 1722 L1694 1908 L1798 1908 L1984 1722 Z" /></g></g><use href="#slashes" transform-origin="1500 1500" transform="rotate(180) scale(2)"/></g><rect x="1080" y="1080" width="840" height="840" stroke-width="160" class="o s5" /><use href="#slashes" transform-origin="1500 1500" transform="scale(.9)"/><use href="#slashes" transform-origin="1500 1500" transform="rotate(180) scale(.9)"/></svg>