<svg xmlns="http://www.w3.org/2000/svg" viewBox="750 750 1500 1500"><style>/*<![CDATA[*/svg{background:rgb(34,34,34);max-width:100vw;max-height:100vh}path{stroke-width:4}.o{opacity:.75}.S{opacity:.4}.sf{stroke:none;fill:black}.sfh{stroke:none;fill:url(#hs)}.sfv{stroke:none;fill:url(#vs)}.ss{stroke:black;fill:none}.ssh{stroke:url(#hs);fill:none}.ssv{stroke:url(#vs);fill:none}.s1{fill:none;stroke:rgb(0,166,237)}.f1{stroke:none;fill:rgb(0,166,237)}.sh1{fill:none;stroke:url(#h1)}.fh1{stroke:none;fill:url(#h1)}.sv1{fill:none;stroke:url(#v1)}.fv1{stroke:none;fill:url(#v1)}.s2{fill:none;stroke:rgb(41,42,115)}.f2{stroke:none;fill:rgb(41,42,115)}.sh2{fill:none;stroke:url(#h2)}.fh2{stroke:none;fill:url(#h2)}.sv2{fill:none;stroke:url(#v2)}.fv2{stroke:none;fill:url(#v2)}.s3{fill:none;stroke:rgb(255,180,0)}.f3{stroke:none;fill:rgb(255,180,0)}.sh3{fill:none;stroke:url(#h3)}.fh3{stroke:none;fill:url(#h3)}.sv3{fill:none;stroke:url(#v3)}.fv3{stroke:none;fill:url(#v3)}.s4{fill:none;stroke:rgb(246,81,29)}.f4{stroke:none;fill:rgb(246,81,29)}.sh4{fill:none;stroke:url(#h4)}.fh4{stroke:none;fill:url(#h4)}.sv4{fill:none;stroke:url(#v4)}.fv4{stroke:none;fill:url(#v4)}.s5{fill:none;stroke:rgb(13,44,84)}.f5{stroke:none;fill:rgb(13,44,84)}.sh5{fill:none;stroke:url(#h5)}.fh5{stroke:none;fill:url(#h5)}.sv5{fill:none;stroke:url(#v5)}.fv5{stroke:none;fill:url(#v5)}.s6{fill:none;stroke:rgb(255,255,255)}.f6{stroke:none;fill:rgb(255,255,255)}.sh6{fill:none;stroke:url(#h6)}.fh6{stroke:none;fill:url(#h6)}.sv6{fill:none;stroke:url(#v6)}.fv6{stroke:none;fill:url(#v6)}.s7{fill:none;stroke:rgb(255,255,0)}.f7{stroke:none;fill:rgb(255,255,0)}.sh7{fill:none;stroke:url(#h7)}.fh7{stroke:none;fill:url(#h7)}.sv7{fill:none;stroke:url(#v7)}.fv7{stroke:none;fill:url(#v7)}/*]]>*/</style><defs><linearGradient gradientTransform="rotate(90)" id="hs"><stop offset="20%" stop-color="#000" /><stop offset="95%" stop-color="rgba(0, 0, 0, 0)" /></linearGradient><linearGradient id="vs"><stop offset="20%" stop-color="#000" /><stop offset="95%" stop-color="rgba(0, 0, 0, 0)" /></linearGradient><linearGradient gradientTransform="rotate(90)" id="h1"><stop offset="20%" stop-color="rgba(0,166,237,1)" /><stop offset="95%" stop-color="rgba(0,166,237,0)" /></linearGradient><linearGradient id="v1"><stop offset="20%" stop-color="rgba(0,166,237,1)" /><stop offset="95%" stop-color="rgba(0,166,237,0)" /></linearGradient><linearGradient gradientTransform="rotate(90)" id="h2"><stop offset="20%" stop-color="rgba(41,42,115,1)" /><stop offset="95%" stop-color="rgba(41,42,115,0)" /></linearGradient><linearGradient id="v2"><stop offset="20%" stop-color="rgba(41,42,115,1)" /><stop offset="95%" stop-color="rgba(41,42,115,0)" /></linearGradient><linearGradient gradientTransform="rotate(90)" id="h3"><stop offset="20%" stop-color="rgba(255,180,0,1)" /><stop offset="95%" stop-color="rgba(255,180,0,0)" /></linearGradient><linearGradient id="v3"><stop offset="20%" stop-color="rgba(255,180,0,1)" /><stop offset="95%" stop-color="rgba(255,180,0,0)" /></linearGradient><linearGradient gradientTransform="rotate(90)" id="h4"><stop offset="20%" stop-color="rgba(246,81,29,1)" /><stop offset="95%" stop-color="rgba(246,81,29,0)" /></linearGradient><linearGradient id="v4"><stop offset="20%" stop-color="rgba(246,81,29,1)" /><stop offset="95%" stop-color="rgba(246,81,29,0)" /></linearGradient><linearGradient gradientTransform="rotate(90)" id="h5"><stop offset="20%" stop-color="rgba(13,44,84,1)" /><stop offset="95%" stop-color="rgba(13,44,84,0)" /></linearGradient><linearGradient id="v5"><stop offset="20%" stop-color="rgba(13,44,84,1)" /><stop offset="95%" stop-color="rgba(13,44,84,0)" /></linearGradient><linearGradient gradientTransform="rotate(90)" id="h6"><stop offset="20%" stop-color="rgba(255,255,255,1)" /><stop offset="95%" stop-color="rgba(255,255,255,0)" /></linearGradient><linearGradient id="v6"><stop offset="20%" stop-color="rgba(255,255,255,1)" /><stop offset="95%" stop-color="rgba(255,255,255,0)" /></linearGradient><linearGradient gradientTransform="rotate(90)" id="h7"><stop offset="20%" stop-color="rgba(255,255,0,1)" /><stop offset="95%" stop-color="rgba(255,255,0,0)" /></linearGradient><linearGradient id="v7"><stop offset="20%" stop-color="rgba(255,255,0,1)" /><stop offset="95%" stop-color="rgba(255,255,0,0)" /></linearGradient></defs><g transform-origin="1500 1500" transform="scale(2)" opacity=".2"><g id="slashes"><g class="o"><path transform="translate(5,10)" class="S sfv" d="M1600 1450 L1373 1677 L1373 1707 L1600 1480 Z"/><path class="fv5" d="M1600 1450 L1373 1677 L1373 1707 L1600 1480 Z" /></g><g class="o"><path transform="translate(8,16)" class="S ssv" d="M1534 1465 L1448 1379 L1448 1405 L1534 1491 Z"/><path class="sv7" d="M1534 1465 L1448 1379 L1448 1405 L1534 1491 Z" /></g><g class="o"><path transform="translate(5,10)" class="S ss" d="M1647 1539 L1431 1323 L1431 1349 L1647 1565 Z"/><path class="s2" d="M1647 1539 L1431 1323 L1431 1349 L1647 1565 Z" /></g><g class="o"><path transform="translate(4,8)" class="S sfh" d="M993 1359 L809 1543 L817 1543 L1001 1359 Z"/><path class="fh4" d="M993 1359 L809 1543 L817 1543 L1001 1359 Z" /></g><g class="o"><path transform="translate(2,4)" class="S ssh" d="M1820 1031 L1717 928 L1751 928 L1854 1031 Z"/><path class="sh5" d="M1820 1031 L1717 928 L1751 928 L1854 1031 Z" /></g><g class="o"><path transform="translate(2,4)" class="S sfh" d="M1587 1049 L1360 822 L1396 822 L1623 1049 Z"/><path class="fh2" d="M1587 1049 L1360 822 L1396 822 L1623 1049 Z" /></g><g class="o"><path transform="translate(6,12)" class="S sfh" d="M1184 1373 L956 1601 L982 1601 L1210 1373 Z"/><path class="fh6" d="M1184 1373 L956 1601 L982 1601 L1210 1373 Z" /></g><g class="o"><path transform="translate(8,16)" class="S sfh" d="M1746 1898 L1599 2045 L1611 2045 L1758 1898 Z"/><path class="fh4" d="M1746 1898 L1599 2045 L1611 2045 L1758 1898 Z" /></g><g class="o"><path transform="translate(6,12)" class="S sfv" d="M1932 1905 L1866 1971 L1866 1987 L1932 1921 Z"/><path class="fv6" d="M1932 1905 L1866 1971 L1866 1987 L1932 1921 Z" /></g><g class="o"><path transform="translate(6,12)" class="S sfv" d="M1087 996 L965 874 L965 890 L1087 1012 Z"/><path class="fv3" d="M1087 996 L965 874 L965 890 L1087 1012 Z" /></g><g class="o"><path transform="translate(2,4)" class="S sfh" d="M1786 1603 L1543 1846 L1561 1846 L1804 1603 Z"/><path class="fh2" d="M1786 1603 L1543 1846 L1561 1846 L1804 1603 Z" /></g><g class="o"><path transform="translate(9,18)" class="S sfv" d="M1198 965 L1065 1098 L1065 1122 L1198 989 Z"/><path class="fv1" d="M1198 965 L1065 1098 L1065 1122 L1198 989 Z" /></g><g class="o"><path transform="translate(5,10)" class="S sfh" d="M1963 1291 L1731 1523 L1759 1523 L1991 1291 Z"/><path class="fh6" d="M1963 1291 L1731 1523 L1759 1523 L1991 1291 Z" /></g><g class="o"><path transform="translate(9,18)" class="S sfv" d="M1299 1578 L1136 1741 L1136 1751 L1299 1588 Z"/><path class="fv6" d="M1299 1578 L1136 1741 L1136 1751 L1299 1588 Z" /></g><g class="o"><path transform="translate(6,12)" class="S sfv" d="M1485 1285 L1274 1074 L1274 1084 L1485 1295 Z"/><path class="fv2" d="M1485 1285 L1274 1074 L1274 1084 L1485 1295 Z" /></g><g class="o"><path transform="translate(9,18)" class="S sfv" d="M1232 1916 L1115 2033 L1115 2071 L1232 1954 Z"/><path class="fv5" d="M1232 1916 L1115 2033 L1115 2071 L1232 1954 Z" /></g><g class="o"><path transform="translate(3,6)" class="S sfh" d="M1123 1495 L902 1274 L914 1274 L1135 1495 Z"/><path class="fh6" d="M1123 1495 L902 1274 L914 1274 L1135 1495 Z" /></g><g class="o"><path transform="translate(3,6)" class="S sfh" d="M1795 1203 L1695 1103 L1705 1103 L1805 1203 Z"/><path class="fh6" d="M1795 1203 L1695 1103 L1705 1103 L1805 1203 Z" /></g><g class="o"><path transform="translate(7,14)" class="S sfv" d="M1352 1048 L1240 1160 L1240 1186 L1352 1074 Z"/><path class="fv6" d="M1352 1048 L1240 1160 L1240 1186 L1352 1074 Z" /></g><g class="o"><path transform="translate(4,8)" class="S sfh" d="M1183 1684 L979 1888 L991 1888 L1195 1684 Z"/><path class="fh4" d="M1183 1684 L979 1888 L991 1888 L1195 1684 Z" /></g><g class="o"><path transform="translate(7,14)" class="S sfh" d="M1280 1047 L1062 829 L1096 829 L1314 1047 Z"/><path class="fh3" d="M1280 1047 L1062 829 L1096 829 L1314 1047 Z" /></g><g class="o"><path transform="translate(7,14)" class="S sfv" d="M1430 1330 L1371 1271 L1371 1291 L1430 1350 Z"/><path class="fv7" d="M1430 1330 L1371 1271 L1371 1291 L1430 1350 Z" /></g><g class="o"><path transform="translate(6,12)" class="S sf" d="M1438 1788 L1328 1678 L1328 1696 L1438 1806 Z"/><path class="f7" d="M1438 1788 L1328 1678 L1328 1696 L1438 1806 Z" /></g><g class="o"><path transform="translate(6,12)" class="S sfv" d="M1044 1494 L994 1444 L994 1454 L1044 1504 Z"/><path class="fv4" d="M1044 1494 L994 1444 L994 1454 L1044 1504 Z" /></g><g class="o"><path transform="translate(2,4)" class="S sf" d="M1859 1362 L1761 1460 L1793 1460 L1891 1362 Z"/><path class="f6" d="M1859 1362 L1761 1460 L1793 1460 L1891 1362 Z" /></g><g class="o"><path transform="translate(7,14)" class="S sfv" d="M969 1097 L904 1162 L904 1188 L969 1123 Z"/><path class="fv7" d="M969 1097 L904 1162 L904 1188 L969 1123 Z" /></g><g class="o"><path transform="translate(4,8)" class="S sfh" d="M1390 1784 L1296 1878 L1392 1878 L1486 1784 Z"/><path class="fh4" d="M1390 1784 L1296 1878 L1392 1878 L1486 1784 Z" /></g><g class="o"><path transform="translate(3,6)" class="S sfv" d="M1138 1788 L929 1997 L929 2023 L1138 1814 Z"/><path class="fv5" d="M1138 1788 L929 1997 L929 2023 L1138 1814 Z" /></g><g class="o"><path transform="translate(9,18)" class="S sf" d="M1521 1509 L1449 1437 L1449 1465 L1521 1537 Z"/><path class="f4" d="M1521 1509 L1449 1437 L1449 1465 L1521 1537 Z" /></g><g class="o"><path transform="translate(2,4)" class="S ssv" d="M1769 1000 L1709 1060 L1709 1156 L1769 1096 Z"/><path class="sv3" d="M1769 1000 L1709 1060 L1709 1156 L1769 1096 Z" /></g><g class="o"><path transform="translate(4,8)" class="S sfh" d="M1241 1531 L1143 1433 L1165 1433 L1263 1531 Z"/><path class="fh1" d="M1241 1531 L1143 1433 L1165 1433 L1263 1531 Z" /></g><g class="o"><path transform="translate(8,16)" class="S sfv" d="M1529 1638 L1400 1767 L1400 1903 L1529 1774 Z"/><path class="fv6" d="M1529 1638 L1400 1767 L1400 1903 L1529 1774 Z" /></g><g class="o"><path transform="translate(9,18)" class="S sf" d="M953 1370 L896 1427 L968 1427 L1025 1370 Z"/><path class="f1" d="M953 1370 L896 1427 L968 1427 L1025 1370 Z" /></g><g class="o"><path transform="translate(7,14)" class="S sfh" d="M1524 1471 L1465 1530 L1493 1530 L1552 1471 Z"/><path class="fh1" d="M1524 1471 L1465 1530 L1493 1530 L1552 1471 Z" /></g><g class="o"><path transform="translate(6,12)" class="S sfh" d="M1280 1343 L1188 1435 L1202 1435 L1294 1343 Z"/><path class="fh6" d="M1280 1343 L1188 1435 L1202 1435 L1294 1343 Z" /></g><g class="o"><path transform="translate(3,6)" class="S sf" d="M1201 1587 L1113 1499 L1113 1525 L1201 1613 Z"/><path class="f2" d="M1201 1587 L1113 1499 L1113 1525 L1201 1613 Z" /></g><g class="o"><path transform="translate(6,12)" class="S ssv" d="M966 1797 L894 1869 L894 1899 L966 1827 Z"/><path class="sv1" d="M966 1797 L894 1869 L894 1899 L966 1827 Z" /></g><g class="o"><path transform="translate(5,10)" class="S sfv" d="M1270 1651 L1127 1794 L1127 1802 L1270 1659 Z"/><path class="fv6" d="M1270 1651 L1127 1794 L1127 1802 L1270 1659 Z" /></g><g class="o"><path transform="translate(5,10)" class="S sfh" d="M1054 1637 L1003 1688 L1021 1688 L1072 1637 Z"/><path class="fh6" d="M1054 1637 L1003 1688 L1021 1688 L1072 1637 Z" /></g><g class="o"><path transform="translate(5,10)" class="S sfh" d="M1151 1403 L1087 1467 L1115 1467 L1179 1403 Z"/><path class="fh7" d="M1151 1403 L1087 1467 L1115 1467 L1179 1403 Z" /></g><g class="o"><path transform="translate(9,18)" class="S sfv" d="M969 1624 L732 1387 L732 1395 L969 1632 Z"/><path class="fv5" d="M969 1624 L732 1387 L732 1395 L969 1632 Z" /></g><g class="o"><path transform="translate(8,16)" class="S sf" d="M1395 1915 L1199 1719 L1225 1719 L1421 1915 Z"/><path class="f6" d="M1395 1915 L1199 1719 L1225 1719 L1421 1915 Z" /></g><g class="o"><path transform="translate(4,8)" class="S sfh" d="M1816 1814 L1571 1569 L1581 1569 L1826 1814 Z"/><path class="fh1" d="M1816 1814 L1571 1569 L1581 1569 L1826 1814 Z" /></g><g class="o"><path transform="translate(5,10)" class="S ssh" d="M1881 1940 L1809 2012 L1839 2012 L1911 1940 Z"/><path class="sh2" d="M1881 1940 L1809 2012 L1839 2012 L1911 1940 Z" /></g><g class="o"><path transform="translate(6,12)" class="S ssv" d="M1471 1907 L1237 1673 L1237 1695 L1471 1929 Z"/><path class="sv4" d="M1471 1907 L1237 1673 L1237 1695 L1471 1929 Z" /></g><g class="o"><path transform="translate(2,4)" class="S sfv" d="M1564 1886 L1435 1757 L1435 1771 L1564 1900 Z"/><path class="fv6" d="M1564 1886 L1435 1757 L1435 1771 L1564 1900 Z" /></g><g class="o"><path transform="translate(2,4)" class="S ssv" d="M1907 1394 L1691 1178 L1691 1214 L1907 1430 Z"/><path class="sv1" d="M1907 1394 L1691 1178 L1691 1214 L1907 1430 Z" /></g><g class="o"><path transform="translate(4,8)" class="S sf" d="M1029 1968 L826 1765 L826 1777 L1029 1980 Z"/><path class="f3" d="M1029 1968 L826 1765 L826 1777 L1029 1980 Z" /></g><g class="o"><path transform="translate(5,10)" class="S sfv" d="M1094 1895 L965 2024 L965 2046 L1094 1917 Z"/><path class="fv3" d="M1094 1895 L965 2024 L965 2046 L1094 1917 Z" /></g><g class="o"><path transform="translate(4,8)" class="S sfh" d="M1193 1792 L1059 1658 L1083 1658 L1217 1792 Z"/><path class="fh3" d="M1193 1792 L1059 1658 L1083 1658 L1217 1792 Z" /></g><g class="o"><path transform="translate(6,12)" class="S sfv" d="M1371 1437 L1201 1267 L1201 1277 L1371 1447 Z"/><path class="fv1" d="M1371 1437 L1201 1267 L1201 1277 L1371 1447 Z" /></g><g class="o"><path transform="translate(8,16)" class="S ssv" d="M1322 935 L1219 832 L1219 868 L1322 971 Z"/><path class="sv2" d="M1322 935 L1219 832 L1219 868 L1322 971 Z" /></g><g class="o"><path transform="translate(3,6)" class="S sfv" d="M1495 1164 L1246 915 L1246 953 L1495 1202 Z"/><path class="fv1" d="M1495 1164 L1246 915 L1246 953 L1495 1202 Z" /></g><g class="o"><path transform="translate(5,10)" class="S sfv" d="M985 1752 L887 1654 L887 1678 L985 1776 Z"/><path class="fv6" d="M985 1752 L887 1654 L887 1678 L985 1776 Z" /></g><g class="o"><path transform="translate(2,4)" class="S sfv" d="M1246 2004 L1053 1811 L1053 1833 L1246 2026 Z"/><path class="fv2" d="M1246 2004 L1053 1811 L1053 1833 L1246 2026 Z" /></g><g class="o"><path transform="translate(5,10)" class="S sfv" d="M1528 1905 L1330 2103 L1330 2137 L1528 1939 Z"/><path class="fv5" d="M1528 1905 L1330 2103 L1330 2137 L1528 1939 Z" /></g><g class="o"><path transform="translate(2,4)" class="S sfv" d="M1368 1375 L1251 1258 L1251 1268 L1368 1385 Z"/><path class="fv5" d="M1368 1375 L1251 1258 L1251 1268 L1368 1385 Z" /></g><g class="o"><path transform="translate(2,4)" class="S ssh" d="M1143 1380 L1017 1506 L1025 1506 L1151 1380 Z"/><path class="sh4" d="M1143 1380 L1017 1506 L1025 1506 L1151 1380 Z" /></g><g class="o"><path transform="translate(2,4)" class="S sfh" d="M1257 1044 L1023 1278 L1047 1278 L1281 1044 Z"/><path class="fh7" d="M1257 1044 L1023 1278 L1047 1278 L1281 1044 Z" /></g><g class="o"><path transform="translate(8,16)" class="S sfv" d="M1934 1250 L1870 1314 L1870 1340 L1934 1276 Z"/><path class="fv6" d="M1934 1250 L1870 1314 L1870 1340 L1934 1276 Z" /></g><g class="o"><path transform="translate(5,10)" class="S sfv" d="M1588 1613 L1407 1794 L1407 1814 L1588 1633 Z"/><path class="fv5" d="M1588 1613 L1407 1794 L1407 1814 L1588 1633 Z" /></g><g class="o"><path transform="translate(2,4)" class="S sfv" d="M1147 1931 L1038 2040 L1038 2050 L1147 1941 Z"/><path class="fv3" d="M1147 1931 L1038 2040 L1038 2050 L1147 1941 Z" /></g><g class="o"><path transform="translate(5,10)" class="S ssh" d="M1469 1311 L1221 1063 L1243 1063 L1491 1311 Z"/><path class="sh7" d="M1469 1311 L1221 1063 L1243 1063 L1491 1311 Z" /></g><g class="o"><path transform="translate(6,12)" class="S sfv" d="M1539 1432 L1420 1313 L1420 1347 L1539 1466 Z"/><path class="fv3" d="M1539 1432 L1420 1313 L1420 1347 L1539 1466 Z" /></g><g class="o"><path transform="translate(3,6)" class="S sfh" d="M1685 2041 L1572 2154 L1584 2154 L1697 2041 Z"/><path class="fh4" d="M1685 2041 L1572 2154 L1584 2154 L1697 2041 Z" /></g><g class="o"><path transform="translate(4,8)" class="S sfv" d="M1480 1330 L1402 1252 L1402 1280 L1480 1358 Z"/><path class="fv5" d="M1480 1330 L1402 1252 L1402 1280 L1480 1358 Z" /></g><g class="o"><path transform="translate(4,8)" class="S ss" d="M1068 1286 L860 1494 L860 1528 L1068 1320 Z"/><path class="s3" d="M1068 1286 L860 1494 L860 1528 L1068 1320 Z" /></g><g class="o"><path transform="translate(9,18)" class="S sf" d="M1618 1416 L1461 1259 L1461 1285 L1618 1442 Z"/><path class="f4" d="M1618 1416 L1461 1259 L1461 1285 L1618 1442 Z" /></g><g class="o"><path transform="translate(3,6)" class="S sf" d="M1970 1449 L1900 1379 L1920 1379 L1990 1449 Z"/><path class="f4" d="M1970 1449 L1900 1379 L1920 1379 L1990 1449 Z" /></g><g class="o"><path transform="translate(4,8)" class="S sfv" d="M1353 948 L1266 861 L1266 893 L1353 980 Z"/><path class="fv6" d="M1353 948 L1266 861 L1266 893 L1353 980 Z" /></g><g class="o"><path transform="translate(9,18)" class="S sfv" d="M1100 977 L862 739 L862 795 L1100 1033 Z"/><path class="fv5" d="M1100 977 L862 739 L862 795 L1100 1033 Z" /></g><g class="o"><path transform="translate(4,8)" class="S sfh" d="M1903 1369 L1744 1210 L1782 1210 L1941 1369 Z"/><path class="fh4" d="M1903 1369 L1744 1210 L1782 1210 L1941 1369 Z" /></g><g class="o"><path transform="translate(9,18)" class="S sfh" d="M1872 1705 L1662 1495 L1670 1495 L1880 1705 Z"/><path class="fh7" d="M1872 1705 L1662 1495 L1670 1495 L1880 1705 Z" /></g><g class="o"><path transform="translate(6,12)" class="S ssv" d="M1469 1050 L1331 912 L1331 984 L1469 1122 Z"/><path class="sv3" d="M1469 1050 L1331 912 L1331 984 L1469 1122 Z" /></g><g class="o"><path transform="translate(7,14)" class="S sfh" d="M1050 1232 L838 1020 L852 1020 L1064 1232 Z"/><path class="fh6" d="M1050 1232 L838 1020 L852 1020 L1064 1232 Z" /></g><g class="o"><path transform="translate(3,6)" class="S sfh" d="M1834 1134 L1651 951 L1683 951 L1866 1134 Z"/><path class="fh7" d="M1834 1134 L1651 951 L1683 951 L1866 1134 Z" /></g><g class="o"><path transform="translate(6,12)" class="S sfh" d="M1313 1801 L1074 1562 L1110 1562 L1349 1801 Z"/><path class="fh5" d="M1313 1801 L1074 1562 L1110 1562 L1349 1801 Z" /></g><g class="o"><path transform="translate(8,16)" class="S ss" d="M1879 1669 L1691 1481 L1723 1481 L1911 1669 Z"/><path class="s6" d="M1879 1669 L1691 1481 L1723 1481 L1911 1669 Z" /></g><g class="o"><path transform="translate(6,12)" class="S ssv" d="M1899 1865 L1695 2069 L1695 2101 L1899 1897 Z"/><path class="sv2" d="M1899 1865 L1695 2069 L1695 2101 L1899 1897 Z" /></g><g class="o"><path transform="translate(9,18)" class="S sfv" d="M1185 1835 L1134 1784 L1134 1814 L1185 1865 Z"/><path class="fv6" d="M1185 1835 L1134 1784 L1134 1814 L1185 1865 Z" /></g><g class="o"><path transform="translate(9,18)" class="S sfh" d="M1514 2015 L1335 2194 L1347 2194 L1526 2015 Z"/><path class="fh3" d="M1514 2015 L1335 2194 L1347 2194 L1526 2015 Z" /></g><g class="o"><path transform="translate(4,8)" class="S sfh" d="M1024 962 L844 1142 L882 1142 L1062 962 Z"/><path class="fh6" d="M1024 962 L844 1142 L882 1142 L1062 962 Z" /></g><g class="o"><path transform="translate(8,16)" class="S ssh" d="M953 1838 L857 1934 L871 1934 L967 1838 Z"/><path class="sh7" d="M953 1838 L857 1934 L871 1934 L967 1838 Z" /></g><g class="o"><path transform="translate(6,12)" class="S sfh" d="M1967 1620 L1872 1525 L1920 1525 L2015 1620 Z"/><path class="fh4" d="M1967 1620 L1872 1525 L1920 1525 L2015 1620 Z" /></g><g class="o"><path transform="translate(3,6)" class="S sfv" d="M963 1322 L836 1449 L836 1479 L963 1352 Z"/><path class="fv7" d="M963 1322 L836 1449 L836 1479 L963 1352 Z" /></g><g class="o"><path transform="translate(2,4)" class="S sfv" d="M2022 1090 L1968 1036 L1968 1062 L2022 1116 Z"/><path class="fv5" d="M2022 1090 L1968 1036 L1968 1062 L2022 1116 Z" /></g><g class="o"><path transform="translate(4,8)" class="S sfv" d="M2019 1204 L1851 1372 L1851 1410 L2019 1242 Z"/><path class="fv1" d="M2019 1204 L1851 1372 L1851 1410 L2019 1242 Z" /></g><g class="o"><path transform="translate(4,8)" class="S sf" d="M1889 1952 L1809 1872 L1809 1890 L1889 1970 Z"/><path class="f1" d="M1889 1952 L1809 1872 L1809 1890 L1889 1970 Z" /></g><g class="o"><path transform="translate(3,6)" class="S sfv" d="M1578 1588 L1501 1665 L1501 1679 L1578 1602 Z"/><path class="fv5" d="M1578 1588 L1501 1665 L1501 1679 L1578 1602 Z" /></g><g class="o"><path transform="translate(4,8)" class="S sfh" d="M1340 1350 L1166 1524 L1200 1524 L1374 1350 Z"/><path class="fh6" d="M1340 1350 L1166 1524 L1200 1524 L1374 1350 Z" /></g><g class="o"><path transform="translate(7,14)" class="S sfv" d="M1708 1220 L1529 1041 L1529 1057 L1708 1236 Z"/><path class="fv5" d="M1708 1220 L1529 1041 L1529 1057 L1708 1236 Z" /></g><g class="o"><path transform="translate(4,8)" class="S sfv" d="M1862 1503 L1760 1605 L1760 1621 L1862 1519 Z"/><path class="fv6" d="M1862 1503 L1760 1605 L1760 1621 L1862 1519 Z" /></g><g class="o"><path transform="translate(9,18)" class="S sf" d="M1499 1124 L1393 1230 L1405 1230 L1511 1124 Z"/><path class="f5" d="M1499 1124 L1393 1230 L1405 1230 L1511 1124 Z" /></g><g class="o"><path transform="translate(9,18)" class="S sfh" d="M1249 1739 L1187 1801 L1213 1801 L1275 1739 Z"/><path class="fh7" d="M1249 1739 L1187 1801 L1213 1801 L1275 1739 Z" /></g><g class="o"><path transform="translate(5,10)" class="S sfh" d="M1993 1827 L1826 1994 L1840 1994 L2007 1827 Z"/><path class="fh5" d="M1993 1827 L1826 1994 L1840 1994 L2007 1827 Z" /></g><g class="o"><path transform="translate(7,14)" class="S sf" d="M978 1701 L777 1902 L777 1936 L978 1735 Z"/><path class="f7" d="M978 1701 L777 1902 L777 1936 L978 1735 Z" /></g><g class="o"><path transform="translate(9,18)" class="S sf" d="M1473 1981 L1402 2052 L1418 2052 L1489 1981 Z"/><path class="f3" d="M1473 1981 L1402 2052 L1418 2052 L1489 1981 Z" /></g><g class="o"><path transform="translate(3,6)" class="S sfv" d="M1002 1624 L864 1762 L864 1786 L1002 1648 Z"/><path class="fv3" d="M1002 1624 L864 1762 L864 1786 L1002 1648 Z" /></g><g class="o"><path transform="translate(5,10)" class="S sfv" d="M1563 1691 L1337 1465 L1337 1487 L1563 1713 Z"/><path class="fv4" d="M1563 1691 L1337 1465 L1337 1487 L1563 1713 Z" /></g><g class="o"><path transform="translate(8,16)" class="S sfv" d="M1552 1046 L1465 959 L1465 991 L1552 1078 Z"/><path class="fv1" d="M1552 1046 L1465 959 L1465 991 L1552 1078 Z" /></g><g class="o"><path transform="translate(8,16)" class="S ssv" d="M1396 1014 L1211 829 L1211 851 L1396 1036 Z"/><path class="sv5" d="M1396 1014 L1211 829 L1211 851 L1396 1036 Z" /></g><g class="o"><path transform="translate(9,18)" class="S sfv" d="M1035 1827 L892 1684 L892 1718 L1035 1861 Z"/><path class="fv6" d="M1035 1827 L892 1684 L892 1718 L1035 1861 Z" /></g><g class="o"><path transform="translate(9,18)" class="S sfv" d="M1600 1591 L1491 1700 L1491 1718 L1600 1609 Z"/><path class="fv7" d="M1600 1591 L1491 1700 L1491 1718 L1600 1609 Z" /></g><g class="o"><path transform="translate(2,4)" class="S sfh" d="M1323 1916 L1188 1781 L1220 1781 L1355 1916 Z"/><path class="fh4" d="M1323 1916 L1188 1781 L1220 1781 L1355 1916 Z" /></g><g class="o"><path transform="translate(4,8)" class="S ssv" d="M1763 1157 L1666 1060 L1666 1072 L1763 1169 Z"/><path class="sv5" d="M1763 1157 L1666 1060 L1666 1072 L1763 1169 Z" /></g><g class="o"><path transform="translate(4,8)" class="S ssv" d="M1403 1729 L1231 1557 L1231 1571 L1403 1743 Z"/><path class="sv4" d="M1403 1729 L1231 1557 L1231 1571 L1403 1743 Z" /></g><g class="o"><path transform="translate(4,8)" class="S sfh" d="M1877 1635 L1684 1442 L1698 1442 L1891 1635 Z"/><path class="fh1" d="M1877 1635 L1684 1442 L1698 1442 L1891 1635 Z" /></g><g class="o"><path transform="translate(4,8)" class="S sf" d="M967 1704 L723 1948 L723 1966 L967 1722 Z"/><path class="f1" d="M967 1704 L723 1948 L723 1966 L967 1722 Z" /></g><g class="o"><path transform="translate(3,6)" class="S sfv" d="M1035 1078 L955 998 L955 1018 L1035 1098 Z"/><path class="fv6" d="M1035 1078 L955 998 L955 1018 L1035 1098 Z" /></g><g class="o"><path transform="translate(5,10)" class="S sfh" d="M1428 1800 L1336 1708 L1374 1708 L1466 1800 Z"/><path class="fh7" d="M1428 1800 L1336 1708 L1374 1708 L1466 1800 Z" /></g><g class="o"><path transform="translate(9,18)" class="S sfh" d="M1174 1991 L1109 1926 L1121 1926 L1186 1991 Z"/><path class="fh3" d="M1174 1991 L1109 1926 L1121 1926 L1186 1991 Z" /></g><g class="o"><path transform="translate(6,12)" class="S sfv" d="M1881 1383 L1636 1138 L1636 1170 L1881 1415 Z"/><path class="fv6" d="M1881 1383 L1636 1138 L1636 1170 L1881 1415 Z" /></g><g class="o"><path transform="translate(5,10)" class="S sfh" d="M1314 1706 L1180 1572 L1208 1572 L1342 1706 Z"/><path class="fh6" d="M1314 1706 L1180 1572 L1208 1572 L1342 1706 Z" /></g><g class="o"><path transform="translate(9,18)" class="S sfh" d="M1620 1186 L1481 1325 L1505 1325 L1644 1186 Z"/><path class="fh7" d="M1620 1186 L1481 1325 L1505 1325 L1644 1186 Z" /></g><g class="o"><path transform="translate(3,6)" class="S sfh" d="M1060 957 L937 1080 L963 1080 L1086 957 Z"/><path class="fh1" d="M1060 957 L937 1080 L963 1080 L1086 957 Z" /></g><g class="o"><path transform="translate(3,6)" class="S sf" d="M1383 1687 L1157 1461 L1157 1485 L1383 1711 Z"/><path class="f5" d="M1383 1687 L1157 1461 L1157 1485 L1383 1711 Z" /></g><g class="o"><path transform="translate(9,18)" class="S ss" d="M1378 1985 L1155 1762 L1167 1762 L1390 1985 Z"/><path class="s3" d="M1378 1985 L1155 1762 L1167 1762 L1390 1985 Z" /></g><g class="o"><path transform="translate(3,6)" class="S sfv" d="M1099 1302 L953 1448 L953 1476 L1099 1330 Z"/><path class="fv2" d="M1099 1302 L953 1448 L953 1476 L1099 1330 Z" /></g><g class="o"><path transform="translate(8,16)" class="S sfh" d="M2015 1669 L1826 1858 L1856 1858 L2045 1669 Z"/><path class="fh1" d="M2015 1669 L1826 1858 L1856 1858 L2045 1669 Z" /></g><g class="o"><path transform="translate(3,6)" class="S sfv" d="M1989 1504 L1797 1696 L1797 1710 L1989 1518 Z"/><path class="fv7" d="M1989 1504 L1797 1696 L1797 1710 L1989 1518 Z" /></g><g class="o"><path transform="translate(7,14)" class="S ssh" d="M1643 1005 L1436 798 L1450 798 L1657 1005 Z"/><path class="sh2" d="M1643 1005 L1436 798 L1450 798 L1657 1005 Z" /></g><g class="o"><path transform="translate(9,18)" class="S sfv" d="M1461 1976 L1319 1834 L1319 1848 L1461 1990 Z"/><path class="fv4" d="M1461 1976 L1319 1834 L1319 1848 L1461 1990 Z" /></g><g class="o"><path transform="translate(5,10)" class="S sfv" d="M1797 1323 L1558 1084 L1558 1094 L1797 1333 Z"/><path class="fv3" d="M1797 1323 L1558 1084 L1558 1094 L1797 1333 Z" /></g><g class="o"><path transform="translate(9,18)" class="S sfv" d="M1144 1632 L1058 1718 L1058 1756 L1144 1670 Z"/><path class="fv1" d="M1144 1632 L1058 1718 L1058 1756 L1144 1670 Z" /></g><g class="o"><path transform="translate(8,16)" class="S sf" d="M1063 1422 L828 1657 L838 1657 L1073 1422 Z"/><path class="f2" d="M1063 1422 L828 1657 L838 1657 L1073 1422 Z" /></g><g class="o"><path transform="translate(6,12)" class="S sfv" d="M1146 1922 L1013 1789 L1013 1809 L1146 1942 Z"/><path class="fv2" d="M1146 1922 L1013 1789 L1013 1809 L1146 1942 Z" /></g><g class="o"><path transform="translate(4,8)" class="S ssv" d="M1756 1287 L1628 1159 L1628 1179 L1756 1307 Z"/><path class="sv6" d="M1756 1287 L1628 1159 L1628 1179 L1756 1307 Z" /></g><g class="o"><path transform="translate(5,10)" class="S ss" d="M1695 1825 L1488 1618 L1488 1648 L1695 1855 Z"/><path class="s7" d="M1695 1825 L1488 1618 L1488 1648 L1695 1855 Z" /></g><g class="o"><path transform="translate(8,16)" class="S sfv" d="M1866 1973 L1733 1840 L1733 1878 L1866 2011 Z"/><path class="fv5" d="M1866 1973 L1733 1840 L1733 1878 L1866 2011 Z" /></g><g class="o"><path transform="translate(9,18)" class="S sf" d="M1097 1836 L1031 1902 L1031 1924 L1097 1858 Z"/><path class="f4" d="M1097 1836 L1031 1902 L1031 1924 L1097 1858 Z" /></g></g><use href="#slashes" transform-origin="1500 1500" transform="rotate(180) scale(2)"/></g><rect x="1080" y="1080" width="840" height="840" stroke-width="40" class="o s7" /><use href="#slashes" transform-origin="1500 1500" transform="scale(.9)"/><use href="#slashes" transform-origin="1500 1500" transform="rotate(180) scale(.9)"/></svg>