<svg xmlns="http://www.w3.org/2000/svg" viewBox="750 750 1500 1500"><style>/*<![CDATA[*/svg{background:rgb(84,13,110);max-width:100vw;max-height:100vh}path{stroke-width:4}.o{opacity:.75}.S{opacity:.4}.sf{stroke:none;fill:black}.sfh{stroke:none;fill:url(#hs)}.sfv{stroke:none;fill:url(#vs)}.ss{stroke:black;fill:none}.ssh{stroke:url(#hs);fill:none}.ssv{stroke:url(#vs);fill:none}.s1{fill:none;stroke:rgb(59,206,172)}.f1{stroke:none;fill:rgb(59,206,172)}.sh1{fill:none;stroke:url(#h1)}.fh1{stroke:none;fill:url(#h1)}.sv1{fill:none;stroke:url(#v1)}.fv1{stroke:none;fill:url(#v1)}.s2{fill:none;stroke:rgb(238,66,102)}.f2{stroke:none;fill:rgb(238,66,102)}.sh2{fill:none;stroke:url(#h2)}.fh2{stroke:none;fill:url(#h2)}.sv2{fill:none;stroke:url(#v2)}.fv2{stroke:none;fill:url(#v2)}.s3{fill:none;stroke:rgb(34,34,34)}.f3{stroke:none;fill:rgb(34,34,34)}.sh3{fill:none;stroke:url(#h3)}.fh3{stroke:none;fill:url(#h3)}.sv3{fill:none;stroke:url(#v3)}.fv3{stroke:none;fill:url(#v3)}.s4{fill:none;stroke:rgb(14,173,105)}.f4{stroke:none;fill:rgb(14,173,105)}.sh4{fill:none;stroke:url(#h4)}.fh4{stroke:none;fill:url(#h4)}.sv4{fill:none;stroke:url(#v4)}.fv4{stroke:none;fill:url(#v4)}.s5{fill:none;stroke:rgb(255,210,63)}.f5{stroke:none;fill:rgb(255,210,63)}.sh5{fill:none;stroke:url(#h5)}.fh5{stroke:none;fill:url(#h5)}.sv5{fill:none;stroke:url(#v5)}.fv5{stroke:none;fill:url(#v5)}.s6{fill:none;stroke:rgb(255,255,255)}.f6{stroke:none;fill:rgb(255,255,255)}.sh6{fill:none;stroke:url(#h6)}.fh6{stroke:none;fill:url(#h6)}.sv6{fill:none;stroke:url(#v6)}.fv6{stroke:none;fill:url(#v6)}.s7{fill:none;stroke:rgb(255,0,0)}.f7{stroke:none;fill:rgb(255,0,0)}.sh7{fill:none;stroke:url(#h7)}.fh7{stroke:none;fill:url(#h7)}.sv7{fill:none;stroke:url(#v7)}.fv7{stroke:none;fill:url(#v7)}/*]]>*/</style><defs><linearGradient gradientTransform="rotate(90)" id="hs"><stop offset="20%" stop-color="#000" /><stop offset="95%" stop-color="rgba(0, 0, 0, 0)" /></linearGradient><linearGradient id="vs"><stop offset="20%" stop-color="#000" /><stop offset="95%" stop-color="rgba(0, 0, 0, 0)" /></linearGradient><linearGradient gradientTransform="rotate(90)" id="h1"><stop offset="20%" stop-color="rgba(59,206,172,1)" /><stop offset="95%" stop-color="rgba(59,206,172,0)" /></linearGradient><linearGradient id="v1"><stop offset="20%" stop-color="rgba(59,206,172,1)" /><stop offset="95%" stop-color="rgba(59,206,172,0)" /></linearGradient><linearGradient gradientTransform="rotate(90)" id="h2"><stop offset="20%" stop-color="rgba(238,66,102,1)" /><stop offset="95%" stop-color="rgba(238,66,102,0)" /></linearGradient><linearGradient id="v2"><stop offset="20%" stop-color="rgba(238,66,102,1)" /><stop offset="95%" stop-color="rgba(238,66,102,0)" /></linearGradient><linearGradient gradientTransform="rotate(90)" id="h3"><stop offset="20%" stop-color="rgba(34,34,34,1)" /><stop offset="95%" stop-color="rgba(34,34,34,0)" /></linearGradient><linearGradient id="v3"><stop offset="20%" stop-color="rgba(34,34,34,1)" /><stop offset="95%" stop-color="rgba(34,34,34,0)" /></linearGradient><linearGradient gradientTransform="rotate(90)" id="h4"><stop offset="20%" stop-color="rgba(14,173,105,1)" /><stop offset="95%" stop-color="rgba(14,173,105,0)" /></linearGradient><linearGradient id="v4"><stop offset="20%" stop-color="rgba(14,173,105,1)" /><stop offset="95%" stop-color="rgba(14,173,105,0)" /></linearGradient><linearGradient gradientTransform="rotate(90)" id="h5"><stop offset="20%" stop-color="rgba(255,210,63,1)" /><stop offset="95%" stop-color="rgba(255,210,63,0)" /></linearGradient><linearGradient id="v5"><stop offset="20%" stop-color="rgba(255,210,63,1)" /><stop offset="95%" stop-color="rgba(255,210,63,0)" /></linearGradient><linearGradient gradientTransform="rotate(90)" id="h6"><stop offset="20%" stop-color="rgba(255,255,255,1)" /><stop offset="95%" stop-color="rgba(255,255,255,0)" /></linearGradient><linearGradient id="v6"><stop offset="20%" stop-color="rgba(255,255,255,1)" /><stop offset="95%" stop-color="rgba(255,255,255,0)" /></linearGradient><linearGradient gradientTransform="rotate(90)" id="h7"><stop offset="20%" stop-color="rgba(255,0,0,1)" /><stop offset="95%" stop-color="rgba(255,0,0,0)" /></linearGradient><linearGradient id="v7"><stop offset="20%" stop-color="rgba(255,0,0,1)" /><stop offset="95%" stop-color="rgba(255,0,0,0)" /></linearGradient></defs><g transform-origin="1500 1500" transform="scale(2)" opacity=".8"><g id="slashes"><g class="o"><path transform="translate(4,8)" class="S ssv" d="M1768 1405 L1979 1616 L1979 1650 L1768 1439 Z"/><path class="sv2" d="M1768 1405 L1979 1616 L1979 1650 L1768 1439 Z" /></g><g class="o"><path transform="translate(2,4)" class="S ssh" d="M965 974 L1115 1124 L1149 1124 L999 974 Z"/><path class="sh7" d="M965 974 L1115 1124 L1149 1124 L999 974 Z" /></g><g class="o"><path transform="translate(5,10)" class="S sfv" d="M1869 1351 L1953 1435 L1953 1531 L1869 1447 Z"/><path class="fv1" d="M1869 1351 L1953 1435 L1953 1531 L1869 1447 Z" /></g><g class="o"><path transform="translate(5,10)" class="S sfh" d="M1393 1804 L1502 1913 L1510 1913 L1401 1804 Z"/><path class="fh7" d="M1393 1804 L1502 1913 L1510 1913 L1401 1804 Z" /></g><g class="o"><path transform="translate(3,6)" class="S ssh" d="M1233 1765 L1296 1828 L1408 1828 L1345 1765 Z"/><path class="sh1" d="M1233 1765 L1296 1828 L1408 1828 L1345 1765 Z" /></g><g class="o"><path transform="translate(2,4)" class="S ssh" d="M1623 1143 L1732 1252 L1762 1252 L1653 1143 Z"/><path class="sh3" d="M1623 1143 L1732 1252 L1762 1252 L1653 1143 Z" /></g><g class="o"><path transform="translate(4,8)" class="S sfv" d="M1383 1278 L1553 1448 L1553 1462 L1383 1292 Z"/><path class="fv3" d="M1383 1278 L1553 1448 L1553 1462 L1383 1292 Z" /></g><g class="o"><path transform="translate(7,14)" class="S sfv" d="M1713 1042 L1804 1133 L1804 1143 L1713 1052 Z"/><path class="fv3" d="M1713 1042 L1804 1133 L1804 1143 L1713 1052 Z" /></g><g class="o"><path transform="translate(9,18)" class="S ssh" d="M1115 1101 L1324 1310 L1350 1310 L1141 1101 Z"/><path class="sh3" d="M1115 1101 L1324 1310 L1350 1310 L1141 1101 Z" /></g><g class="o"><path transform="translate(5,10)" class="S sfv" d="M1463 1632 L1579 1748 L1579 1804 L1463 1688 Z"/><path class="fv2" d="M1463 1632 L1579 1748 L1579 1804 L1463 1688 Z" /></g><g class="o"><path transform="translate(9,18)" class="S sfv" d="M1529 1951 L2219 2641 L2219 2659 L1529 1969 Z"/><path class="fv7" d="M1529 1951 L2219 2641 L2219 2659 L1529 1969 Z" /></g><g class="o"><path transform="translate(5,10)" class="S sfv" d="M1317 1902 L1455 2040 L1455 2066 L1317 1928 Z"/><path class="fv4" d="M1317 1902 L1455 2040 L1455 2066 L1317 1928 Z" /></g><g class="o"><path transform="translate(6,12)" class="S sfv" d="M1887 975 L2101 1189 L2101 1211 L1887 997 Z"/><path class="fv7" d="M1887 975 L2101 1189 L2101 1211 L1887 997 Z" /></g><g class="o"><path transform="translate(6,12)" class="S sfv" d="M1200 1178 L1277 1255 L1277 1291 L1200 1214 Z"/><path class="fv6" d="M1200 1178 L1277 1255 L1277 1291 L1200 1214 Z" /></g><g class="o"><path transform="translate(3,6)" class="S sfv" d="M1286 1207 L1411 1332 L1411 1364 L1286 1239 Z"/><path class="fv2" d="M1286 1207 L1411 1332 L1411 1364 L1286 1239 Z" /></g><g class="o"><path transform="translate(5,10)" class="S sfv" d="M1896 1534 L2094 1732 L2094 1770 L1896 1572 Z"/><path class="fv6" d="M1896 1534 L2094 1732 L2094 1770 L1896 1572 Z" /></g><g class="o"><path transform="translate(7,14)" class="S sfv" d="M2043 1192 L2154 1303 L2154 1315 L2043 1204 Z"/><path class="fv4" d="M2043 1192 L2154 1303 L2154 1315 L2043 1204 Z" /></g><g class="o"><path transform="translate(3,6)" class="S sfv" d="M1723 1656 L1799 1732 L1799 1754 L1723 1678 Z"/><path class="fv6" d="M1723 1656 L1799 1732 L1799 1754 L1723 1678 Z" /></g><g class="o"><path transform="translate(7,14)" class="S sfv" d="M1735 1413 L1844 1522 L1844 1556 L1735 1447 Z"/><path class="fv1" d="M1735 1413 L1844 1522 L1844 1556 L1735 1447 Z" /></g><g class="o"><path transform="translate(3,6)" class="S sfv" d="M1667 1313 L1911 1557 L1911 1569 L1667 1325 Z"/><path class="fv6" d="M1667 1313 L1911 1557 L1911 1569 L1667 1325 Z" /></g><g class="o"><path transform="translate(5,10)" class="S sfh" d="M1859 1765 L2123 2029 L2155 2029 L1891 1765 Z"/><path class="fh4" d="M1859 1765 L2123 2029 L2155 2029 L1891 1765 Z" /></g><g class="o"><path transform="translate(5,10)" class="S sfh" d="M1101 1149 L1221 1269 L1259 1269 L1139 1149 Z"/><path class="fh3" d="M1101 1149 L1221 1269 L1259 1269 L1139 1149 Z" /></g><g class="o"><path transform="translate(3,6)" class="S ssh" d="M1439 1071 L1531 1163 L1543 1163 L1451 1071 Z"/><path class="sh1" d="M1439 1071 L1531 1163 L1543 1163 L1451 1071 Z" /></g><g class="o"><path transform="translate(8,16)" class="S sfv" d="M2035 1695 L2347 2007 L2347 2025 L2035 1713 Z"/><path class="fv7" d="M2035 1695 L2347 2007 L2347 2025 L2035 1713 Z" /></g><g class="o"><path transform="translate(6,12)" class="S ssh" d="M1324 1953 L1559 2188 L1575 2188 L1340 1953 Z"/><path class="sh1" d="M1324 1953 L1559 2188 L1575 2188 L1340 1953 Z" /></g><g class="o"><path transform="translate(2,4)" class="S ssh" d="M1736 1354 L1847 1465 L1867 1465 L1756 1354 Z"/><path class="sh2" d="M1736 1354 L1847 1465 L1867 1465 L1756 1354 Z" /></g><g class="o"><path transform="translate(9,18)" class="S sfv" d="M1129 1407 L1181 1459 L1181 1471 L1129 1419 Z"/><path class="fv3" d="M1129 1407 L1181 1459 L1181 1471 L1129 1419 Z" /></g><g class="o"><path transform="translate(6,12)" class="S sfh" d="M1521 1164 L1743 1386 L1767 1386 L1545 1164 Z"/><path class="fh6" d="M1521 1164 L1743 1386 L1767 1386 L1545 1164 Z" /></g><g class="o"><path transform="translate(8,16)" class="S ssv" d="M1919 2005 L2090 2176 L2090 2188 L1919 2017 Z"/><path class="sv4" d="M1919 2005 L2090 2176 L2090 2188 L1919 2017 Z" /></g><g class="o"><path transform="translate(7,14)" class="S sfv" d="M1403 1262 L1616 1475 L1616 1497 L1403 1284 Z"/><path class="fv3" d="M1403 1262 L1616 1475 L1616 1497 L1403 1284 Z" /></g><g class="o"><path transform="translate(4,8)" class="S sfh" d="M1506 960 L1605 1059 L1617 1059 L1518 960 Z"/><path class="fh5" d="M1506 960 L1605 1059 L1617 1059 L1518 960 Z" /></g><g class="o"><path transform="translate(9,18)" class="S sfh" d="M1501 1245 L2167 1911 L2295 1911 L1629 1245 Z"/><path class="fh3" d="M1501 1245 L2167 1911 L2295 1911 L1629 1245 Z" /></g><g class="o"><path transform="translate(5,10)" class="S sfv" d="M1046 1576 L1284 1814 L1284 1830 L1046 1592 Z"/><path class="fv5" d="M1046 1576 L1284 1814 L1284 1830 L1046 1592 Z" /></g><g class="o"><path transform="translate(3,6)" class="S sfh" d="M1245 1755 L1959 2469 L1983 2469 L1269 1755 Z"/><path class="fh4" d="M1245 1755 L1959 2469 L1983 2469 L1269 1755 Z" /></g><g class="o"><path transform="translate(2,4)" class="S ssv" d="M1825 1082 L1890 1147 L1890 1155 L1825 1090 Z"/><path class="sv5" d="M1825 1082 L1890 1147 L1890 1155 L1825 1090 Z" /></g><g class="o"><path transform="translate(3,6)" class="S ss" d="M1966 1976 L2077 2087 L2085 2087 L1974 1976 Z"/><path class="s3" d="M1966 1976 L2077 2087 L2085 2087 L1974 1976 Z" /></g><g class="o"><path transform="translate(8,16)" class="S sfh" d="M1006 1267 L1149 1410 L1175 1410 L1032 1267 Z"/><path class="fh4" d="M1006 1267 L1149 1410 L1175 1410 L1032 1267 Z" /></g><g class="o"><path transform="translate(8,16)" class="S sfv" d="M1330 1200 L1382 1252 L1382 1288 L1330 1236 Z"/><path class="fv4" d="M1330 1200 L1382 1252 L1382 1288 L1330 1236 Z" /></g><g class="o"><path transform="translate(5,10)" class="S ssh" d="M1574 1730 L1818 1974 L1850 1974 L1606 1730 Z"/><path class="sh4" d="M1574 1730 L1818 1974 L1850 1974 L1606 1730 Z" /></g><g class="o"><path transform="translate(2,4)" class="S sf" d="M1073 1800 L1277 2004 L1277 2042 L1073 1838 Z"/><path class="f5" d="M1073 1800 L1277 2004 L1277 2042 L1073 1838 Z" /></g><g class="o"><path transform="translate(5,10)" class="S sf" d="M1967 1759 L2191 1983 L2215 1983 L1991 1759 Z"/><path class="f7" d="M1967 1759 L2191 1983 L2215 1983 L1991 1759 Z" /></g><g class="o"><path transform="translate(7,14)" class="S sf" d="M1736 1198 L2333 1795 L2341 1795 L1744 1198 Z"/><path class="f2" d="M1736 1198 L2333 1795 L2341 1795 L1744 1198 Z" /></g><g class="o"><path transform="translate(6,12)" class="S ssv" d="M1678 1359 L1880 1561 L1880 1575 L1678 1373 Z"/><path class="sv3" d="M1678 1359 L1880 1561 L1880 1575 L1678 1373 Z" /></g><g class="o"><path transform="translate(9,18)" class="S sf" d="M1227 1560 L1809 2142 L1831 2142 L1249 1560 Z"/><path class="f3" d="M1227 1560 L1809 2142 L1831 2142 L1249 1560 Z" /></g><g class="o"><path transform="translate(9,18)" class="S sfv" d="M1262 1371 L1501 1610 L1501 1634 L1262 1395 Z"/><path class="fv1" d="M1262 1371 L1501 1610 L1501 1634 L1262 1395 Z" /></g><g class="o"><path transform="translate(7,14)" class="S sfv" d="M1014 960 L1254 1200 L1254 1230 L1014 990 Z"/><path class="fv5" d="M1014 960 L1254 1200 L1254 1230 L1014 990 Z" /></g><g class="o"><path transform="translate(5,10)" class="S sfh" d="M1258 1204 L1324 1270 L1452 1270 L1386 1204 Z"/><path class="fh7" d="M1258 1204 L1324 1270 L1452 1270 L1386 1204 Z" /></g><g class="o"><path transform="translate(9,18)" class="S sfv" d="M1012 1170 L1241 1399 L1241 1425 L1012 1196 Z"/><path class="fv4" d="M1012 1170 L1241 1399 L1241 1425 L1012 1196 Z" /></g><g class="o"><path transform="translate(7,14)" class="S sf" d="M1531 1032 L2092 1593 L2126 1593 L1565 1032 Z"/><path class="f1" d="M1531 1032 L2092 1593 L2126 1593 L1565 1032 Z" /></g><g class="o"><path transform="translate(8,16)" class="S sf" d="M1396 1761 L1514 1879 L1514 1899 L1396 1781 Z"/><path class="f3" d="M1396 1761 L1514 1879 L1514 1899 L1396 1781 Z" /></g><g class="o"><path transform="translate(9,18)" class="S sfh" d="M1265 1026 L1386 1147 L1396 1147 L1275 1026 Z"/><path class="fh2" d="M1265 1026 L1386 1147 L1396 1147 L1275 1026 Z" /></g><g class="o"><path transform="translate(9,18)" class="S sfh" d="M2005 1132 L2253 1380 L2289 1380 L2041 1132 Z"/><path class="fh6" d="M2005 1132 L2253 1380 L2289 1380 L2041 1132 Z" /></g><g class="o"><path transform="translate(2,4)" class="S sfv" d="M2032 973 L2232 1173 L2232 1181 L2032 981 Z"/><path class="fv7" d="M2032 973 L2232 1173 L2232 1181 L2032 981 Z" /></g><g class="o"><path transform="translate(7,14)" class="S sfv" d="M1484 979 L1643 1138 L1643 1164 L1484 1005 Z"/><path class="fv1" d="M1484 979 L1643 1138 L1643 1164 L1484 1005 Z" /></g><g class="o"><path transform="translate(7,14)" class="S ssh" d="M1729 1703 L2011 1985 L2049 1985 L1767 1703 Z"/><path class="sh6" d="M1729 1703 L2011 1985 L2049 1985 L1767 1703 Z" /></g><g class="o"><path transform="translate(4,8)" class="S sf" d="M1499 2007 L1561 2069 L1595 2069 L1533 2007 Z"/><path class="f5" d="M1499 2007 L1561 2069 L1595 2069 L1533 2007 Z" /></g><g class="o"><path transform="translate(5,10)" class="S ssv" d="M1519 1154 L1684 1319 L1684 1349 L1519 1184 Z"/><path class="sv5" d="M1519 1154 L1684 1319 L1684 1349 L1519 1184 Z" /></g><g class="o"><path transform="translate(9,18)" class="S ssh" d="M1988 1421 L2357 1790 L2391 1790 L2022 1421 Z"/><path class="sh1" d="M1988 1421 L2357 1790 L2391 1790 L2022 1421 Z" /></g><g class="o"><path transform="translate(3,6)" class="S sfh" d="M1242 1092 L1923 1773 L1931 1773 L1250 1092 Z"/><path class="fh3" d="M1242 1092 L1923 1773 L1931 1773 L1250 1092 Z" /></g><g class="o"><path transform="translate(8,16)" class="S ssh" d="M1057 1831 L1108 1882 L1116 1882 L1065 1831 Z"/><path class="sh1" d="M1057 1831 L1108 1882 L1116 1882 L1065 1831 Z" /></g><g class="o"><path transform="translate(5,10)" class="S sf" d="M1269 1221 L1514 1466 L1548 1466 L1303 1221 Z"/><path class="f2" d="M1269 1221 L1514 1466 L1548 1466 L1303 1221 Z" /></g><g class="o"><path transform="translate(4,8)" class="S sfh" d="M1805 1435 L2004 1634 L2040 1634 L1841 1435 Z"/><path class="fh2" d="M1805 1435 L2004 1634 L2040 1634 L1841 1435 Z" /></g><g class="o"><path transform="translate(9,18)" class="S sfv" d="M1708 1946 L1814 2052 L1814 2076 L1708 1970 Z"/><path class="fv2" d="M1708 1946 L1814 2052 L1814 2076 L1708 1970 Z" /></g><g class="o"><path transform="translate(6,12)" class="S sfv" d="M2037 1483 L2177 1623 L2177 1735 L2037 1595 Z"/><path class="fv2" d="M2037 1483 L2177 1623 L2177 1735 L2037 1595 Z" /></g><g class="o"><path transform="translate(5,10)" class="S sf" d="M1494 1831 L1588 1925 L1588 1949 L1494 1855 Z"/><path class="f1" d="M1494 1831 L1588 1925 L1588 1949 L1494 1855 Z" /></g><g class="o"><path transform="translate(8,16)" class="S sfh" d="M1039 1286 L1281 1528 L1313 1528 L1071 1286 Z"/><path class="fh2" d="M1039 1286 L1281 1528 L1313 1528 L1071 1286 Z" /></g><g class="o"><path transform="translate(6,12)" class="S ssv" d="M1622 1880 L1744 2002 L1744 2024 L1622 1902 Z"/><path class="sv3" d="M1622 1880 L1744 2002 L1744 2024 L1622 1902 Z" /></g><g class="o"><path transform="translate(6,12)" class="S ssh" d="M1569 1310 L1682 1423 L1704 1423 L1591 1310 Z"/><path class="sh1" d="M1569 1310 L1682 1423 L1704 1423 L1591 1310 Z" /></g><g class="o"><path transform="translate(6,12)" class="S sfv" d="M1139 1889 L1331 2081 L1331 2111 L1139 1919 Z"/><path class="fv4" d="M1139 1889 L1331 2081 L1331 2111 L1139 1919 Z" /></g><g class="o"><path transform="translate(9,18)" class="S sfv" d="M1584 1890 L1789 2095 L1789 2113 L1584 1908 Z"/><path class="fv6" d="M1584 1890 L1789 2095 L1789 2113 L1584 1908 Z" /></g><g class="o"><path transform="translate(6,12)" class="S sfh" d="M2042 1549 L2153 1660 L2165 1660 L2054 1549 Z"/><path class="fh3" d="M2042 1549 L2153 1660 L2165 1660 L2054 1549 Z" /></g><g class="o"><path transform="translate(9,18)" class="S sf" d="M1141 1652 L1468 1979 L1516 1979 L1189 1652 Z"/><path class="f5" d="M1141 1652 L1468 1979 L1516 1979 L1189 1652 Z" /></g><g class="o"><path transform="translate(2,4)" class="S sfv" d="M1797 1476 L1931 1610 L1931 1634 L1797 1500 Z"/><path class="fv6" d="M1797 1476 L1931 1610 L1931 1634 L1797 1500 Z" /></g><g class="o"><path transform="translate(7,14)" class="S sfh" d="M996 1454 L1113 1571 L1133 1571 L1016 1454 Z"/><path class="fh6" d="M996 1454 L1113 1571 L1133 1571 L1016 1454 Z" /></g><g class="o"><path transform="translate(2,4)" class="S sfh" d="M1732 1489 L2005 1762 L2021 1762 L1748 1489 Z"/><path class="fh1" d="M1732 1489 L2005 1762 L2021 1762 L1748 1489 Z" /></g><g class="o"><path transform="translate(4,8)" class="S sfv" d="M1004 1321 L1236 1553 L1236 1585 L1004 1353 Z"/><path class="fv2" d="M1004 1321 L1236 1553 L1236 1585 L1004 1353 Z" /></g><g class="o"><path transform="translate(8,16)" class="S ss" d="M1541 1281 L1628 1368 L1636 1368 L1549 1281 Z"/><path class="s2" d="M1541 1281 L1628 1368 L1636 1368 L1549 1281 Z" /></g><g class="o"><path transform="translate(2,4)" class="S ssv" d="M1201 1689 L1364 1852 L1364 1866 L1201 1703 Z"/><path class="sv7" d="M1201 1689 L1364 1852 L1364 1866 L1201 1703 Z" /></g><g class="o"><path transform="translate(6,12)" class="S sf" d="M1967 1146 L2037 1216 L2059 1216 L1989 1146 Z"/><path class="f3" d="M1967 1146 L2037 1216 L2059 1216 L1989 1146 Z" /></g><g class="o"><path transform="translate(6,12)" class="S ssh" d="M1794 1037 L1913 1156 L1949 1156 L1830 1037 Z"/><path class="sh2" d="M1794 1037 L1913 1156 L1949 1156 L1830 1037 Z" /></g><g class="o"><path transform="translate(8,16)" class="S sf" d="M1622 1278 L1727 1383 L1727 1401 L1622 1296 Z"/><path class="f5" d="M1622 1278 L1727 1383 L1727 1401 L1622 1296 Z" /></g><g class="o"><path transform="translate(7,14)" class="S sf" d="M1942 1761 L2162 1981 L2162 2007 L1942 1787 Z"/><path class="f5" d="M1942 1761 L2162 1981 L2162 2007 L1942 1787 Z" /></g><g class="o"><path transform="translate(6,12)" class="S sfv" d="M1030 1252 L1160 1382 L1160 1400 L1030 1270 Z"/><path class="fv7" d="M1030 1252 L1160 1382 L1160 1400 L1030 1270 Z" /></g><g class="o"><path transform="translate(7,14)" class="S sfh" d="M1728 1160 L1820 1252 L1956 1252 L1864 1160 Z"/><path class="fh1" d="M1728 1160 L1820 1252 L1956 1252 L1864 1160 Z" /></g><g class="o"><path transform="translate(3,6)" class="S sfv" d="M1480 1210 L1677 1407 L1677 1431 L1480 1234 Z"/><path class="fv1" d="M1480 1210 L1677 1407 L1677 1431 L1480 1234 Z" /></g><g class="o"><path transform="translate(4,8)" class="S ssv" d="M1935 1455 L2036 1556 L2036 1576 L1935 1475 Z"/><path class="sv5" d="M1935 1455 L2036 1556 L2036 1576 L1935 1475 Z" /></g><g class="o"><path transform="translate(7,14)" class="S sfh" d="M1859 1726 L2064 1931 L2104 1931 L1899 1726 Z"/><path class="fh1" d="M1859 1726 L2064 1931 L2104 1931 L1899 1726 Z" /></g><g class="o"><path transform="translate(9,18)" class="S sfh" d="M1193 1303 L1348 1458 L1356 1458 L1201 1303 Z"/><path class="fh4" d="M1193 1303 L1348 1458 L1356 1458 L1201 1303 Z" /></g><g class="o"><path transform="translate(5,10)" class="S sfv" d="M1855 1525 L2095 1765 L2095 1773 L1855 1533 Z"/><path class="fv2" d="M1855 1525 L2095 1765 L2095 1773 L1855 1533 Z" /></g><g class="o"><path transform="translate(9,18)" class="S sf" d="M1400 2001 L1916 2517 L1938 2517 L1422 2001 Z"/><path class="f6" d="M1400 2001 L1916 2517 L1938 2517 L1422 2001 Z" /></g><g class="o"><path transform="translate(7,14)" class="S ssh" d="M1217 1180 L1345 1308 L1369 1308 L1241 1180 Z"/><path class="sh4" d="M1217 1180 L1345 1308 L1369 1308 L1241 1180 Z" /></g><g class="o"><path transform="translate(3,6)" class="S sfh" d="M1970 1167 L2078 1275 L2092 1275 L1984 1167 Z"/><path class="fh2" d="M1970 1167 L2078 1275 L2092 1275 L1984 1167 Z" /></g><g class="o"><path transform="translate(5,10)" class="S sfv" d="M1543 1480 L1731 1668 L1731 1704 L1543 1516 Z"/><path class="fv7" d="M1543 1480 L1731 1668 L1731 1704 L1543 1516 Z" /></g><g class="o"><path transform="translate(3,6)" class="S ss" d="M1579 1626 L1722 1769 L1738 1769 L1595 1626 Z"/><path class="s3" d="M1579 1626 L1722 1769 L1738 1769 L1595 1626 Z" /></g><g class="o"><path transform="translate(5,10)" class="S ss" d="M1683 1776 L1866 1959 L1876 1959 L1693 1776 Z"/><path class="s6" d="M1683 1776 L1866 1959 L1876 1959 L1693 1776 Z" /></g><g class="o"><path transform="translate(8,16)" class="S sfh" d="M966 1408 L1110 1552 L1126 1552 L982 1408 Z"/><path class="fh3" d="M966 1408 L1110 1552 L1126 1552 L982 1408 Z" /></g><g class="o"><path transform="translate(2,4)" class="S ssv" d="M1721 1431 L1898 1608 L1898 1646 L1721 1469 Z"/><path class="sv5" d="M1721 1431 L1898 1608 L1898 1646 L1721 1469 Z" /></g><g class="o"><path transform="translate(5,10)" class="S ssh" d="M906 1215 L1150 1459 L1302 1459 L1058 1215 Z"/><path class="sh7" d="M906 1215 L1150 1459 L1302 1459 L1058 1215 Z" /></g><g class="o"><path transform="translate(2,4)" class="S sfh" d="M1130 1012 L1304 1186 L1334 1186 L1160 1012 Z"/><path class="fh4" d="M1130 1012 L1304 1186 L1334 1186 L1160 1012 Z" /></g><g class="o"><path transform="translate(8,16)" class="S sfh" d="M1778 1449 L1832 1503 L1854 1503 L1800 1449 Z"/><path class="fh7" d="M1778 1449 L1832 1503 L1854 1503 L1800 1449 Z" /></g><g class="o"><path transform="translate(2,4)" class="S sfv" d="M2032 1812 L2232 2012 L2232 2028 L2032 1828 Z"/><path class="fv1" d="M2032 1812 L2232 2012 L2232 2028 L2032 1828 Z" /></g><g class="o"><path transform="translate(6,12)" class="S sfv" d="M1136 1702 L1330 1896 L1330 1932 L1136 1738 Z"/><path class="fv1" d="M1136 1702 L1330 1896 L1330 1932 L1136 1738 Z" /></g><g class="o"><path transform="translate(8,16)" class="S sfv" d="M1244 1440 L1319 1515 L1319 1541 L1244 1466 Z"/><path class="fv2" d="M1244 1440 L1319 1515 L1319 1541 L1244 1466 Z" /></g><g class="o"><path transform="translate(5,10)" class="S ssh" d="M1486 1431 L1667 1612 L1699 1612 L1518 1431 Z"/><path class="sh3" d="M1486 1431 L1667 1612 L1699 1612 L1518 1431 Z" /></g><g class="o"><path transform="translate(9,18)" class="S sfv" d="M1814 1692 L1881 1759 L1881 1793 L1814 1726 Z"/><path class="fv1" d="M1814 1692 L1881 1759 L1881 1793 L1814 1726 Z" /></g><g class="o"><path transform="translate(2,4)" class="S sfv" d="M1002 1534 L1149 1681 L1149 1691 L1002 1544 Z"/><path class="fv4" d="M1002 1534 L1149 1681 L1149 1691 L1002 1544 Z" /></g><g class="o"><path transform="translate(4,8)" class="S ss" d="M1367 1806 L1530 1969 L1530 1991 L1367 1828 Z"/><path class="s4" d="M1367 1806 L1530 1969 L1530 1991 L1367 1828 Z" /></g><g class="o"><path transform="translate(2,4)" class="S ssv" d="M1387 1252 L1585 1450 L1585 1480 L1387 1282 Z"/><path class="sv2" d="M1387 1252 L1585 1450 L1585 1480 L1387 1282 Z" /></g><g class="o"><path transform="translate(6,12)" class="S sfh" d="M1032 1603 L1155 1726 L1189 1726 L1066 1603 Z"/><path class="fh1" d="M1032 1603 L1155 1726 L1189 1726 L1066 1603 Z" /></g><g class="o"><path transform="translate(8,16)" class="S sfv" d="M1558 998 L1720 1160 L1720 1190 L1558 1028 Z"/><path class="fv1" d="M1558 998 L1720 1160 L1720 1190 L1558 1028 Z" /></g><g class="o"><path transform="translate(7,14)" class="S sfv" d="M951 1256 L1163 1468 L1163 1476 L951 1264 Z"/><path class="fv6" d="M951 1256 L1163 1468 L1163 1476 L951 1264 Z" /></g><g class="o"><path transform="translate(9,18)" class="S sf" d="M1320 1728 L1536 1944 L1536 1966 L1320 1750 Z"/><path class="f7" d="M1320 1728 L1536 1944 L1536 1966 L1320 1750 Z" /></g><g class="o"><path transform="translate(8,16)" class="S sfh" d="M1699 1459 L1823 1583 L1847 1583 L1723 1459 Z"/><path class="fh3" d="M1699 1459 L1823 1583 L1847 1583 L1723 1459 Z" /></g><g class="o"><path transform="translate(3,6)" class="S sfh" d="M1200 1754 L1354 1908 L1366 1908 L1212 1754 Z"/><path class="fh7" d="M1200 1754 L1354 1908 L1366 1908 L1212 1754 Z" /></g><g class="o"><path transform="translate(8,16)" class="S sfv" d="M1715 1168 L1813 1266 L1813 1300 L1715 1202 Z"/><path class="fv7" d="M1715 1168 L1813 1266 L1813 1300 L1715 1202 Z" /></g><g class="o"><path transform="translate(5,10)" class="S sfh" d="M998 967 L1268 1237 L1298 1237 L1028 967 Z"/><path class="fh2" d="M998 967 L1268 1237 L1298 1237 L1028 967 Z" /></g><g class="o"><path transform="translate(5,10)" class="S sfv" d="M1299 1770 L1358 1829 L1358 1845 L1299 1786 Z"/><path class="fv3" d="M1299 1770 L1358 1829 L1358 1845 L1299 1786 Z" /></g><g class="o"><path transform="translate(6,12)" class="S sf" d="M1541 1506 L1604 1569 L1604 1589 L1541 1526 Z"/><path class="f4" d="M1541 1506 L1604 1569 L1604 1589 L1541 1526 Z" /></g><g class="o"><path transform="translate(5,10)" class="S ssv" d="M1765 1752 L1958 1945 L1958 1973 L1765 1780 Z"/><path class="sv2" d="M1765 1752 L1958 1945 L1958 1973 L1765 1780 Z" /></g><g class="o"><path transform="translate(2,4)" class="S sf" d="M1189 1985 L1357 2153 L1357 2173 L1189 2005 Z"/><path class="f2" d="M1189 1985 L1357 2153 L1357 2173 L1189 2005 Z" /></g></g><use href="#slashes" transform-origin="1500 1500" transform="rotate(180) scale(2)"/></g><rect x="1080" y="1080" width="840" height="840" stroke-width="10" class="o s5" /><use href="#slashes" transform-origin="1500 1500" transform="scale(.7)"/><use href="#slashes" transform-origin="1500 1500" transform="rotate(180) scale(.3)"/></svg>