<svg xmlns="http://www.w3.org/2000/svg" viewBox="750 750 1500 1500"><style>/*<![CDATA[*/svg{background:rgb(63,2,89);max-width:100vw;max-height:100vh}path{stroke-width:4}.o{opacity:.75}.S{opacity:.4}.sf{stroke:none;fill:black}.sfh{stroke:none;fill:url(#hs)}.sfv{stroke:none;fill:url(#vs)}.ss{stroke:black;fill:none}.ssh{stroke:url(#hs);fill:none}.ssv{stroke:url(#vs);fill:none}.s1{fill:none;stroke:rgb(242,226,5)}.f1{stroke:none;fill:rgb(242,226,5)}.sh1{fill:none;stroke:url(#h1)}.fh1{stroke:none;fill:url(#h1)}.sv1{fill:none;stroke:url(#v1)}.fv1{stroke:none;fill:url(#v1)}.s2{fill:none;stroke:rgb(96,96,96)}.f2{stroke:none;fill:rgb(96,96,96)}.sh2{fill:none;stroke:url(#h2)}.fh2{stroke:none;fill:url(#h2)}.sv2{fill:none;stroke:url(#v2)}.fv2{stroke:none;fill:url(#v2)}.s3{fill:none;stroke:rgb(34,34,34)}.f3{stroke:none;fill:rgb(34,34,34)}.sh3{fill:none;stroke:url(#h3)}.fh3{stroke:none;fill:url(#h3)}.sv3{fill:none;stroke:url(#v3)}.fv3{stroke:none;fill:url(#v3)}.s4{fill:none;stroke:rgb(246,81,29)}.f4{stroke:none;fill:rgb(246,81,29)}.sh4{fill:none;stroke:url(#h4)}.fh4{stroke:none;fill:url(#h4)}.sv4{fill:none;stroke:url(#v4)}.fv4{stroke:none;fill:url(#v4)}.s5{fill:none;stroke:rgb(242,235,220)}.f5{stroke:none;fill:rgb(242,235,220)}.sh5{fill:none;stroke:url(#h5)}.fh5{stroke:none;fill:url(#h5)}.sv5{fill:none;stroke:url(#v5)}.fv5{stroke:none;fill:url(#v5)}.s6{fill:none;stroke:rgb(255,255,255)}.f6{stroke:none;fill:rgb(255,255,255)}.sh6{fill:none;stroke:url(#h6)}.fh6{stroke:none;fill:url(#h6)}.sv6{fill:none;stroke:url(#v6)}.fv6{stroke:none;fill:url(#v6)}.s7{fill:none;stroke:rgb(255,255,0)}.f7{stroke:none;fill:rgb(255,255,0)}.sh7{fill:none;stroke:url(#h7)}.fh7{stroke:none;fill:url(#h7)}.sv7{fill:none;stroke:url(#v7)}.fv7{stroke:none;fill:url(#v7)}/*]]>*/</style><defs><linearGradient gradientTransform="rotate(90)" id="hs"><stop offset="20%" stop-color="#000" /><stop offset="95%" stop-color="rgba(0, 0, 0, 0)" /></linearGradient><linearGradient id="vs"><stop offset="20%" stop-color="#000" /><stop offset="95%" stop-color="rgba(0, 0, 0, 0)" /></linearGradient><linearGradient gradientTransform="rotate(90)" id="h1"><stop offset="20%" stop-color="rgba(242,226,5,1)" /><stop offset="95%" stop-color="rgba(242,226,5,0)" /></linearGradient><linearGradient id="v1"><stop offset="20%" stop-color="rgba(242,226,5,1)" /><stop offset="95%" stop-color="rgba(242,226,5,0)" /></linearGradient><linearGradient gradientTransform="rotate(90)" id="h2"><stop offset="20%" stop-color="rgba(96,96,96,1)" /><stop offset="95%" stop-color="rgba(96,96,96,0)" /></linearGradient><linearGradient id="v2"><stop offset="20%" stop-color="rgba(96,96,96,1)" /><stop offset="95%" stop-color="rgba(96,96,96,0)" /></linearGradient><linearGradient gradientTransform="rotate(90)" id="h3"><stop offset="20%" stop-color="rgba(34,34,34,1)" /><stop offset="95%" stop-color="rgba(34,34,34,0)" /></linearGradient><linearGradient id="v3"><stop offset="20%" stop-color="rgba(34,34,34,1)" /><stop offset="95%" stop-color="rgba(34,34,34,0)" /></linearGradient><linearGradient gradientTransform="rotate(90)" id="h4"><stop offset="20%" stop-color="rgba(246,81,29,1)" /><stop offset="95%" stop-color="rgba(246,81,29,0)" /></linearGradient><linearGradient id="v4"><stop offset="20%" stop-color="rgba(246,81,29,1)" /><stop offset="95%" stop-color="rgba(246,81,29,0)" /></linearGradient><linearGradient gradientTransform="rotate(90)" id="h5"><stop offset="20%" stop-color="rgba(242,235,220,1)" /><stop offset="95%" stop-color="rgba(242,235,220,0)" /></linearGradient><linearGradient id="v5"><stop offset="20%" stop-color="rgba(242,235,220,1)" /><stop offset="95%" stop-color="rgba(242,235,220,0)" /></linearGradient><linearGradient gradientTransform="rotate(90)" id="h6"><stop offset="20%" stop-color="rgba(255,255,255,1)" /><stop offset="95%" stop-color="rgba(255,255,255,0)" /></linearGradient><linearGradient id="v6"><stop offset="20%" stop-color="rgba(255,255,255,1)" /><stop offset="95%" stop-color="rgba(255,255,255,0)" /></linearGradient><linearGradient gradientTransform="rotate(90)" id="h7"><stop offset="20%" stop-color="rgba(255,255,0,1)" /><stop offset="95%" stop-color="rgba(255,255,0,0)" /></linearGradient><linearGradient id="v7"><stop offset="20%" stop-color="rgba(255,255,0,1)" /><stop offset="95%" stop-color="rgba(255,255,0,0)" /></linearGradient></defs><g transform-origin="1500 1500" transform="scale(2)" opacity=".2"><g id="slashes"><g class="o"><path transform="translate(5,10)" class="S sfv" d="M1987 1172 L2163 996 L2163 1024 L1987 1200 Z"/><path class="fv1" d="M1987 1172 L2163 996 L2163 1024 L1987 1200 Z" /></g><g class="o"><path transform="translate(7,14)" class="S sfh" d="M1829 1103 L1433 707 L1451 707 L1847 1103 Z"/><path class="fh4" d="M1829 1103 L1433 707 L1451 707 L1847 1103 Z" /></g><g class="o"><path transform="translate(3,6)" class="S ss" d="M1945 1195 L2139 1389 L2167 1389 L1973 1195 Z"/><path class="s3" d="M1945 1195 L2139 1389 L2167 1389 L1973 1195 Z" /></g><g class="o"><path transform="translate(9,18)" class="S sfv" d="M2003 1494 L1941 1556 L1941 1578 L2003 1516 Z"/><path class="fv3" d="M2003 1494 L1941 1556 L1941 1578 L2003 1516 Z" /></g><g class="o"><path transform="translate(2,4)" class="S sfh" d="M1790 1975 L1544 2221 L1582 2221 L1828 1975 Z"/><path class="fh4" d="M1790 1975 L1544 2221 L1582 2221 L1828 1975 Z" /></g><g class="o"><path transform="translate(6,12)" class="S ssv" d="M961 1863 L1462 2364 L1462 2394 L961 1893 Z"/><path class="sv6" d="M961 1863 L1462 2364 L1462 2394 L961 1893 Z" /></g><g class="o"><path transform="translate(9,18)" class="S sfv" d="M1297 1593 L553 849 L553 937 L1297 1681 Z"/><path class="fv2" d="M1297 1593 L553 849 L553 937 L1297 1681 Z" /></g><g class="o"><path transform="translate(2,4)" class="S sfv" d="M1625 1106 L1748 1229 L1748 1257 L1625 1134 Z"/><path class="fv7" d="M1625 1106 L1748 1229 L1748 1257 L1625 1134 Z" /></g><g class="o"><path transform="translate(7,14)" class="S sfh" d="M1716 2005 L1879 2168 L1887 2168 L1724 2005 Z"/><path class="fh2" d="M1716 2005 L1879 2168 L1887 2168 L1724 2005 Z" /></g><g class="o"><path transform="translate(9,18)" class="S sfv" d="M953 1673 L1121 1505 L1121 1521 L953 1689 Z"/><path class="fv6" d="M953 1673 L1121 1505 L1121 1521 L953 1689 Z" /></g><g class="o"><path transform="translate(6,12)" class="S sf" d="M1265 1717 L1964 2416 L1964 2424 L1265 1725 Z"/><path class="f3" d="M1265 1717 L1964 2416 L1964 2424 L1265 1725 Z" /></g><g class="o"><path transform="translate(2,4)" class="S sfv" d="M1183 1083 L910 1356 L910 1380 L1183 1107 Z"/><path class="fv7" d="M1183 1083 L910 1356 L910 1380 L1183 1107 Z" /></g><g class="o"><path transform="translate(5,10)" class="S sfh" d="M1332 2020 L1494 2182 L1510 2182 L1348 2020 Z"/><path class="fh2" d="M1332 2020 L1494 2182 L1510 2182 L1348 2020 Z" /></g><g class="o"><path transform="translate(4,8)" class="S sfv" d="M1007 1470 L834 1643 L834 1667 L1007 1494 Z"/><path class="fv1" d="M1007 1470 L834 1643 L834 1667 L1007 1494 Z" /></g><g class="o"><path transform="translate(4,8)" class="S ss" d="M1143 1494 L928 1279 L928 1295 L1143 1510 Z"/><path class="s1" d="M1143 1494 L928 1279 L928 1295 L1143 1510 Z" /></g><g class="o"><path transform="translate(6,12)" class="S sfh" d="M1444 1290 L1623 1111 L1637 1111 L1458 1290 Z"/><path class="fh5" d="M1444 1290 L1623 1111 L1637 1111 L1458 1290 Z" /></g><g class="o"><path transform="translate(8,16)" class="S sfh" d="M1131 1630 L1339 1838 L1347 1838 L1139 1630 Z"/><path class="fh6" d="M1131 1630 L1339 1838 L1347 1838 L1139 1630 Z" /></g><g class="o"><path transform="translate(8,16)" class="S sfh" d="M1043 2026 L849 2220 L877 2220 L1071 2026 Z"/><path class="fh2" d="M1043 2026 L849 2220 L877 2220 L1071 2026 Z" /></g><g class="o"><path transform="translate(2,4)" class="S ss" d="M1205 1458 L1373 1290 L1373 1300 L1205 1468 Z"/><path class="s3" d="M1205 1458 L1373 1290 L1373 1300 L1205 1468 Z" /></g><g class="o"><path transform="translate(7,14)" class="S sfh" d="M1068 986 L906 824 L936 824 L1098 986 Z"/><path class="fh7" d="M1068 986 L906 824 L936 824 L1098 986 Z" /></g><g class="o"><path transform="translate(7,14)" class="S sfv" d="M1248 1542 L816 1974 L816 2086 L1248 1654 Z"/><path class="fv5" d="M1248 1542 L816 1974 L816 2086 L1248 1654 Z" /></g><g class="o"><path transform="translate(9,18)" class="S sfh" d="M1979 1075 L2140 1236 L2170 1236 L2009 1075 Z"/><path class="fh2" d="M1979 1075 L2140 1236 L2170 1236 L2009 1075 Z" /></g><g class="o"><path transform="translate(4,8)" class="S sfh" d="M1795 1097 L2028 864 L2180 864 L1947 1097 Z"/><path class="fh3" d="M1795 1097 L2028 864 L2180 864 L1947 1097 Z" /></g><g class="o"><path transform="translate(6,12)" class="S sf" d="M1951 1299 L1501 849 L1501 883 L1951 1333 Z"/><path class="f2" d="M1951 1299 L1501 849 L1501 883 L1951 1333 Z" /></g><g class="o"><path transform="translate(2,4)" class="S ss" d="M949 1389 L580 1758 L602 1758 L971 1389 Z"/><path class="s6" d="M949 1389 L580 1758 L602 1758 L971 1389 Z" /></g><g class="o"><path transform="translate(7,14)" class="S sfv" d="M1996 1284 L1786 1074 L1786 1090 L1996 1300 Z"/><path class="fv1" d="M1996 1284 L1786 1074 L1786 1090 L1996 1300 Z" /></g><g class="o"><path transform="translate(6,12)" class="S sf" d="M1063 1909 L853 2119 L853 2147 L1063 1937 Z"/><path class="f7" d="M1063 1909 L853 2119 L853 2147 L1063 1937 Z" /></g><g class="o"><path transform="translate(8,16)" class="S sfh" d="M1500 1614 L1322 1792 L1342 1792 L1520 1614 Z"/><path class="fh3" d="M1500 1614 L1322 1792 L1342 1792 L1520 1614 Z" /></g><g class="o"><path transform="translate(2,4)" class="S sf" d="M1281 959 L1059 1181 L1097 1181 L1319 959 Z"/><path class="f5" d="M1281 959 L1059 1181 L1097 1181 L1319 959 Z" /></g><g class="o"><path transform="translate(6,12)" class="S sf" d="M1375 1111 L1612 874 L1620 874 L1383 1111 Z"/><path class="f3" d="M1375 1111 L1612 874 L1620 874 L1383 1111 Z" /></g><g class="o"><path transform="translate(3,6)" class="S sf" d="M1255 1690 L1465 1480 L1473 1480 L1263 1690 Z"/><path class="f5" d="M1255 1690 L1465 1480 L1473 1480 L1263 1690 Z" /></g><g class="o"><path transform="translate(9,18)" class="S sfh" d="M1804 1424 L1516 1136 L1534 1136 L1822 1424 Z"/><path class="fh5" d="M1804 1424 L1516 1136 L1534 1136 L1822 1424 Z" /></g><g class="o"><path transform="translate(6,12)" class="S sfh" d="M1244 1904 L1952 1196 L1962 1196 L1254 1904 Z"/><path class="fh2" d="M1244 1904 L1952 1196 L1962 1196 L1254 1904 Z" /></g><g class="o"><path transform="translate(7,14)" class="S sfh" d="M1491 1567 L1431 1627 L1443 1627 L1503 1567 Z"/><path class="fh1" d="M1491 1567 L1431 1627 L1443 1627 L1503 1567 Z" /></g><g class="o"><path transform="translate(2,4)" class="S sfh" d="M1639 1329 L1414 1554 L1446 1554 L1671 1329 Z"/><path class="fh5" d="M1639 1329 L1414 1554 L1446 1554 L1671 1329 Z" /></g><g class="o"><path transform="translate(5,10)" class="S sfv" d="M1818 1130 L2039 909 L2039 925 L1818 1146 Z"/><path class="fv1" d="M1818 1130 L2039 909 L2039 925 L1818 1146 Z" /></g><g class="o"><path transform="translate(2,4)" class="S sfh" d="M1742 1211 L1871 1082 L1909 1082 L1780 1211 Z"/><path class="fh6" d="M1742 1211 L1871 1082 L1909 1082 L1780 1211 Z" /></g><g class="o"><path transform="translate(4,8)" class="S sfv" d="M1093 1565 L1217 1441 L1217 1471 L1093 1595 Z"/><path class="fv7" d="M1093 1565 L1217 1441 L1217 1471 L1093 1595 Z" /></g><g class="o"><path transform="translate(5,10)" class="S ssh" d="M1382 2006 L1524 1864 L1534 1864 L1392 2006 Z"/><path class="sh5" d="M1382 2006 L1524 1864 L1534 1864 L1392 2006 Z" /></g><g class="o"><path transform="translate(5,10)" class="S sfh" d="M1675 965 L1428 1212 L1442 1212 L1689 965 Z"/><path class="fh2" d="M1675 965 L1428 1212 L1442 1212 L1689 965 Z" /></g><g class="o"><path transform="translate(5,10)" class="S sfv" d="M967 1084 L863 1188 L863 1220 L967 1116 Z"/><path class="fv2" d="M967 1084 L863 1188 L863 1220 L967 1116 Z" /></g><g class="o"><path transform="translate(2,4)" class="S sfh" d="M1370 1346 L1664 1640 L1676 1640 L1382 1346 Z"/><path class="fh2" d="M1370 1346 L1664 1640 L1676 1640 L1382 1346 Z" /></g><g class="o"><path transform="translate(9,18)" class="S sf" d="M1921 1186 L1725 990 L1759 990 L1955 1186 Z"/><path class="f1" d="M1921 1186 L1725 990 L1759 990 L1955 1186 Z" /></g><g class="o"><path transform="translate(5,10)" class="S ssv" d="M2012 1546 L2336 1870 L2336 1908 L2012 1584 Z"/><path class="sv2" d="M2012 1546 L2336 1870 L2336 1908 L2012 1584 Z" /></g><g class="o"><path transform="translate(4,8)" class="S sf" d="M1100 1677 L993 1784 L1019 1784 L1126 1677 Z"/><path class="f3" d="M1100 1677 L993 1784 L1019 1784 L1126 1677 Z" /></g><g class="o"><path transform="translate(2,4)" class="S ssh" d="M1630 1757 L1288 2099 L1318 2099 L1660 1757 Z"/><path class="sh7" d="M1630 1757 L1288 2099 L1318 2099 L1660 1757 Z" /></g><g class="o"><path transform="translate(3,6)" class="S sfh" d="M1374 1835 L1146 1607 L1174 1607 L1402 1835 Z"/><path class="fh3" d="M1374 1835 L1146 1607 L1174 1607 L1402 1835 Z" /></g><g class="o"><path transform="translate(4,8)" class="S ssh" d="M1118 1101 L889 872 L919 872 L1148 1101 Z"/><path class="sh3" d="M1118 1101 L889 872 L919 872 L1148 1101 Z" /></g><g class="o"><path transform="translate(2,4)" class="S sf" d="M1974 2014 L2037 2077 L2037 2089 L1974 2026 Z"/><path class="f1" d="M1974 2014 L2037 2077 L2037 2089 L1974 2026 Z" /></g><g class="o"><path transform="translate(4,8)" class="S sfv" d="M1118 1487 L1727 2096 L1727 2104 L1118 1495 Z"/><path class="fv6" d="M1118 1487 L1727 2096 L1727 2104 L1118 1495 Z" /></g><g class="o"><path transform="translate(6,12)" class="S sfv" d="M1478 1343 L1307 1172 L1307 1194 L1478 1365 Z"/><path class="fv6" d="M1478 1343 L1307 1172 L1307 1194 L1478 1365 Z" /></g><g class="o"><path transform="translate(8,16)" class="S sfv" d="M1900 1623 L2149 1872 L2149 1906 L1900 1657 Z"/><path class="fv5" d="M1900 1623 L2149 1872 L2149 1906 L1900 1657 Z" /></g><g class="o"><path transform="translate(4,8)" class="S sfh" d="M1062 1312 L817 1067 L851 1067 L1096 1312 Z"/><path class="fh4" d="M1062 1312 L817 1067 L851 1067 L1096 1312 Z" /></g><g class="o"><path transform="translate(6,12)" class="S ssv" d="M1302 1401 L924 1023 L924 1045 L1302 1423 Z"/><path class="sv3" d="M1302 1401 L924 1023 L924 1045 L1302 1423 Z" /></g><g class="o"><path transform="translate(5,10)" class="S ssv" d="M1136 1095 L1288 943 L1288 973 L1136 1125 Z"/><path class="sv7" d="M1136 1095 L1288 943 L1288 973 L1136 1125 Z" /></g><g class="o"><path transform="translate(4,8)" class="S sfh" d="M1894 1744 L2017 1867 L2045 1867 L1922 1744 Z"/><path class="fh2" d="M1894 1744 L2017 1867 L2045 1867 L1922 1744 Z" /></g><g class="o"><path transform="translate(9,18)" class="S sfh" d="M1842 1965 L2265 1542 L2281 1542 L1858 1965 Z"/><path class="fh5" d="M1842 1965 L2265 1542 L2281 1542 L1858 1965 Z" /></g><g class="o"><path transform="translate(5,10)" class="S sf" d="M1153 1923 L1378 1698 L1412 1698 L1187 1923 Z"/><path class="f5" d="M1153 1923 L1378 1698 L1412 1698 L1187 1923 Z" /></g><g class="o"><path transform="translate(3,6)" class="S sfh" d="M1251 1816 L705 2362 L719 2362 L1265 1816 Z"/><path class="fh6" d="M1251 1816 L705 2362 L719 2362 L1265 1816 Z" /></g><g class="o"><path transform="translate(3,6)" class="S sfv" d="M1781 1755 L2120 2094 L2120 2132 L1781 1793 Z"/><path class="fv2" d="M1781 1755 L2120 2094 L2120 2132 L1781 1793 Z" /></g><g class="o"><path transform="translate(2,4)" class="S sfh" d="M1178 1194 L1117 1133 L1151 1133 L1212 1194 Z"/><path class="fh1" d="M1178 1194 L1117 1133 L1151 1133 L1212 1194 Z" /></g><g class="o"><path transform="translate(6,12)" class="S sfh" d="M1022 1258 L668 1612 L686 1612 L1040 1258 Z"/><path class="fh4" d="M1022 1258 L668 1612 L686 1612 L1040 1258 Z" /></g><g class="o"><path transform="translate(6,12)" class="S ssv" d="M2005 1494 L1591 1908 L1591 1944 L2005 1530 Z"/><path class="sv4" d="M2005 1494 L1591 1908 L1591 1944 L2005 1530 Z" /></g><g class="o"><path transform="translate(7,14)" class="S sfv" d="M1851 1908 L2451 2508 L2451 2522 L1851 1922 Z"/><path class="fv5" d="M1851 1908 L2451 2508 L2451 2522 L1851 1922 Z" /></g><g class="o"><path transform="translate(7,14)" class="S sfv" d="M1010 969 L1170 1129 L1170 1157 L1010 997 Z"/><path class="fv7" d="M1010 969 L1170 1129 L1170 1157 L1010 997 Z" /></g><g class="o"><path transform="translate(6,12)" class="S sfh" d="M1286 1880 L1438 1728 L1448 1728 L1296 1880 Z"/><path class="fh6" d="M1286 1880 L1438 1728 L1448 1728 L1296 1880 Z" /></g><g class="o"><path transform="translate(2,4)" class="S sfh" d="M1839 1759 L1647 1567 L1669 1567 L1861 1759 Z"/><path class="fh3" d="M1839 1759 L1647 1567 L1669 1567 L1861 1759 Z" /></g><g class="o"><path transform="translate(6,12)" class="S sfh" d="M1160 1344 L1335 1169 L1367 1169 L1192 1344 Z"/><path class="fh1" d="M1160 1344 L1335 1169 L1367 1169 L1192 1344 Z" /></g><g class="o"><path transform="translate(8,16)" class="S sfh" d="M1026 1434 L1236 1644 L1274 1644 L1064 1434 Z"/><path class="fh7" d="M1026 1434 L1236 1644 L1274 1644 L1064 1434 Z" /></g><g class="o"><path transform="translate(2,4)" class="S sfh" d="M1510 1147 L1267 1390 L1301 1390 L1544 1147 Z"/><path class="fh2" d="M1510 1147 L1267 1390 L1301 1390 L1544 1147 Z" /></g><g class="o"><path transform="translate(8,16)" class="S sfv" d="M1929 1201 L1748 1020 L1748 1030 L1929 1211 Z"/><path class="fv4" d="M1929 1201 L1748 1020 L1748 1030 L1929 1211 Z" /></g><g class="o"><path transform="translate(5,10)" class="S ssv" d="M964 1705 L1444 2185 L1444 2219 L964 1739 Z"/><path class="sv1" d="M964 1705 L1444 2185 L1444 2219 L964 1739 Z" /></g><g class="o"><path transform="translate(8,16)" class="S sfh" d="M1151 1594 L989 1756 L1003 1756 L1165 1594 Z"/><path class="fh7" d="M1151 1594 L989 1756 L1003 1756 L1165 1594 Z" /></g><g class="o"><path transform="translate(9,18)" class="S sfh" d="M1264 1492 L1091 1319 L1113 1319 L1286 1492 Z"/><path class="fh1" d="M1264 1492 L1091 1319 L1113 1319 L1286 1492 Z" /></g><g class="o"><path transform="translate(4,8)" class="S sf" d="M1181 1873 L599 1291 L599 1317 L1181 1899 Z"/><path class="f6" d="M1181 1873 L599 1291 L599 1317 L1181 1899 Z" /></g><g class="o"><path transform="translate(5,10)" class="S sfh" d="M2018 2009 L1463 1454 L1483 1454 L2038 2009 Z"/><path class="fh5" d="M2018 2009 L1463 1454 L1483 1454 L2038 2009 Z" /></g><g class="o"><path transform="translate(2,4)" class="S sfv" d="M1002 1551 L1197 1746 L1197 1766 L1002 1571 Z"/><path class="fv4" d="M1002 1551 L1197 1746 L1197 1766 L1002 1571 Z" /></g><g class="o"><path transform="translate(2,4)" class="S sfh" d="M1873 965 L2377 461 L2405 461 L1901 965 Z"/><path class="fh5" d="M1873 965 L2377 461 L2405 461 L1901 965 Z" /></g><g class="o"><path transform="translate(7,14)" class="S sf" d="M1705 1429 L1542 1592 L1542 1612 L1705 1449 Z"/><path class="f3" d="M1705 1429 L1542 1592 L1542 1612 L1705 1449 Z" /></g><g class="o"><path transform="translate(4,8)" class="S sf" d="M1475 1912 L1772 1615 L1802 1615 L1505 1912 Z"/><path class="f5" d="M1475 1912 L1772 1615 L1802 1615 L1505 1912 Z" /></g><g class="o"><path transform="translate(6,12)" class="S sfh" d="M2021 1670 L2125 1774 L2141 1774 L2037 1670 Z"/><path class="fh4" d="M2021 1670 L2125 1774 L2141 1774 L2037 1670 Z" /></g><g class="o"><path transform="translate(7,14)" class="S sfh" d="M1156 1126 L916 886 L934 886 L1174 1126 Z"/><path class="fh6" d="M1156 1126 L916 886 L934 886 L1174 1126 Z" /></g><g class="o"><path transform="translate(3,6)" class="S ssv" d="M1878 1752 L2103 1977 L2103 2013 L1878 1788 Z"/><path class="sv6" d="M1878 1752 L2103 1977 L2103 2013 L1878 1788 Z" /></g><g class="o"><path transform="translate(4,8)" class="S sfh" d="M1144 1043 L961 860 L987 860 L1170 1043 Z"/><path class="fh1" d="M1144 1043 L961 860 L987 860 L1170 1043 Z" /></g><g class="o"><path transform="translate(4,8)" class="S ssv" d="M1656 987 L1579 1064 L1579 1074 L1656 997 Z"/><path class="sv6" d="M1656 987 L1579 1064 L1579 1074 L1656 997 Z" /></g><g class="o"><path transform="translate(4,8)" class="S sfh" d="M1132 1064 L1232 964 L1250 964 L1150 1064 Z"/><path class="fh2" d="M1132 1064 L1232 964 L1250 964 L1150 1064 Z" /></g><g class="o"><path transform="translate(9,18)" class="S sfv" d="M963 1036 L267 1732 L267 1744 L963 1048 Z"/><path class="fv5" d="M963 1036 L267 1732 L267 1744 L963 1048 Z" /></g><g class="o"><path transform="translate(6,12)" class="S sf" d="M1621 1797 L898 2520 L898 2548 L1621 1825 Z"/><path class="f2" d="M1621 1797 L898 2520 L898 2548 L1621 1825 Z" /></g><g class="o"><path transform="translate(2,4)" class="S sf" d="M1032 990 L1197 1155 L1205 1155 L1040 990 Z"/><path class="f6" d="M1032 990 L1197 1155 L1205 1155 L1040 990 Z" /></g><g class="o"><path transform="translate(9,18)" class="S ssv" d="M1188 1031 L1746 473 L1746 481 L1188 1039 Z"/><path class="sv3" d="M1188 1031 L1746 473 L1746 481 L1188 1039 Z" /></g><g class="o"><path transform="translate(4,8)" class="S sfv" d="M1335 1172 L1998 1835 L1998 1847 L1335 1184 Z"/><path class="fv4" d="M1335 1172 L1998 1835 L1998 1847 L1335 1184 Z" /></g><g class="o"><path transform="translate(6,12)" class="S sf" d="M1454 1609 L1286 1777 L1314 1777 L1482 1609 Z"/><path class="f5" d="M1454 1609 L1286 1777 L1314 1777 L1482 1609 Z" /></g><g class="o"><path transform="translate(5,10)" class="S sfv" d="M1103 940 L1250 793 L1250 825 L1103 972 Z"/><path class="fv7" d="M1103 940 L1250 793 L1250 825 L1103 972 Z" /></g><g class="o"><path transform="translate(7,14)" class="S sfv" d="M1046 1631 L1700 2285 L1700 2381 L1046 1727 Z"/><path class="fv3" d="M1046 1631 L1700 2285 L1700 2381 L1046 1727 Z" /></g><g class="o"><path transform="translate(4,8)" class="S sfh" d="M1226 1100 L887 1439 L899 1439 L1238 1100 Z"/><path class="fh6" d="M1226 1100 L887 1439 L899 1439 L1238 1100 Z" /></g><g class="o"><path transform="translate(4,8)" class="S sfh" d="M1840 1228 L1613 1001 L1643 1001 L1870 1228 Z"/><path class="fh2" d="M1840 1228 L1613 1001 L1643 1001 L1870 1228 Z" /></g><g class="o"><path transform="translate(6,12)" class="S sfv" d="M1835 1800 L2010 1975 L2010 2023 L1835 1848 Z"/><path class="fv1" d="M1835 1800 L2010 1975 L2010 2023 L1835 1848 Z" /></g><g class="o"><path transform="translate(7,14)" class="S sfv" d="M972 1039 L727 1284 L727 1316 L972 1071 Z"/><path class="fv6" d="M972 1039 L727 1284 L727 1316 L972 1071 Z" /></g><g class="o"><path transform="translate(3,6)" class="S sfv" d="M1918 1747 L1729 1558 L1729 1622 L1918 1811 Z"/><path class="fv5" d="M1918 1747 L1729 1558 L1729 1622 L1918 1811 Z" /></g><g class="o"><path transform="translate(8,16)" class="S sfh" d="M1371 1653 L1767 1257 L1781 1257 L1385 1653 Z"/><path class="fh5" d="M1371 1653 L1767 1257 L1781 1257 L1385 1653 Z" /></g><g class="o"><path transform="translate(7,14)" class="S sf" d="M1398 1649 L1604 1443 L1632 1443 L1426 1649 Z"/><path class="f3" d="M1398 1649 L1604 1443 L1632 1443 L1426 1649 Z" /></g><g class="o"><path transform="translate(5,10)" class="S sfh" d="M1979 980 L1799 800 L1835 800 L2015 980 Z"/><path class="fh1" d="M1979 980 L1799 800 L1835 800 L2015 980 Z" /></g><g class="o"><path transform="translate(3,6)" class="S sfh" d="M1532 1751 L1277 2006 L1305 2006 L1560 1751 Z"/><path class="fh5" d="M1532 1751 L1277 2006 L1305 2006 L1560 1751 Z" /></g><g class="o"><path transform="translate(6,12)" class="S ss" d="M1081 1555 L1301 1775 L1349 1775 L1129 1555 Z"/><path class="s1" d="M1081 1555 L1301 1775 L1349 1775 L1129 1555 Z" /></g><g class="o"><path transform="translate(2,4)" class="S sfh" d="M1694 1901 L1756 1839 L1780 1839 L1718 1901 Z"/><path class="fh6" d="M1694 1901 L1756 1839 L1780 1839 L1718 1901 Z" /></g><g class="o"><path transform="translate(7,14)" class="S sf" d="M1881 1160 L2427 1706 L2427 1740 L1881 1194 Z"/><path class="f7" d="M1881 1160 L2427 1706 L2427 1740 L1881 1194 Z" /></g><g class="o"><path transform="translate(6,12)" class="S sf" d="M1119 943 L387 1675 L387 1697 L1119 965 Z"/><path class="f5" d="M1119 943 L387 1675 L387 1697 L1119 965 Z" /></g><g class="o"><path transform="translate(6,12)" class="S sfv" d="M1004 1967 L1406 1565 L1406 1579 L1004 1981 Z"/><path class="fv3" d="M1004 1967 L1406 1565 L1406 1579 L1004 1981 Z" /></g><g class="o"><path transform="translate(5,10)" class="S sfh" d="M1417 1583 L883 1049 L905 1049 L1439 1583 Z"/><path class="fh5" d="M1417 1583 L883 1049 L905 1049 L1439 1583 Z" /></g><g class="o"><path transform="translate(2,4)" class="S sfv" d="M1707 1192 L1218 1681 L1218 1833 L1707 1344 Z"/><path class="fv3" d="M1707 1192 L1218 1681 L1218 1833 L1707 1344 Z" /></g><g class="o"><path transform="translate(2,4)" class="S sfh" d="M1502 1429 L1922 1009 L1954 1009 L1534 1429 Z"/><path class="fh4" d="M1502 1429 L1922 1009 L1954 1009 L1534 1429 Z" /></g><g class="o"><path transform="translate(6,12)" class="S sfh" d="M1712 1525 L1283 1954 L1297 1954 L1726 1525 Z"/><path class="fh6" d="M1712 1525 L1283 1954 L1297 1954 L1726 1525 Z" /></g><g class="o"><path transform="translate(4,8)" class="S ssh" d="M1787 1112 L1878 1203 L1904 1203 L1813 1112 Z"/><path class="sh6" d="M1787 1112 L1878 1203 L1904 1203 L1813 1112 Z" /></g><g class="o"><path transform="translate(6,12)" class="S sf" d="M1609 1638 L2020 2049 L2020 2079 L1609 1668 Z"/><path class="f1" d="M1609 1638 L2020 2049 L2020 2079 L1609 1668 Z" /></g><g class="o"><path transform="translate(3,6)" class="S sfh" d="M1827 1369 L2043 1153 L2059 1153 L1843 1369 Z"/><path class="fh2" d="M1827 1369 L2043 1153 L2059 1153 L1843 1369 Z" /></g><g class="o"><path transform="translate(8,16)" class="S ssv" d="M1902 1438 L2059 1595 L2059 1611 L1902 1454 Z"/><path class="sv2" d="M1902 1438 L2059 1595 L2059 1611 L1902 1454 Z" /></g><g class="o"><path transform="translate(9,18)" class="S sf" d="M1465 1041 L1525 1101 L1547 1101 L1487 1041 Z"/><path class="f6" d="M1465 1041 L1525 1101 L1547 1101 L1487 1041 Z" /></g><g class="o"><path transform="translate(9,18)" class="S sfh" d="M1562 1115 L1100 653 L1128 653 L1590 1115 Z"/><path class="fh3" d="M1562 1115 L1100 653 L1128 653 L1590 1115 Z" /></g><g class="o"><path transform="translate(3,6)" class="S sfh" d="M1055 1810 L884 1639 L898 1639 L1069 1810 Z"/><path class="fh3" d="M1055 1810 L884 1639 L898 1639 L1069 1810 Z" /></g><g class="o"><path transform="translate(4,8)" class="S ss" d="M1245 1608 L1068 1431 L1068 1457 L1245 1634 Z"/><path class="s1" d="M1245 1608 L1068 1431 L1068 1457 L1245 1634 Z" /></g><g class="o"><path transform="translate(5,10)" class="S sfh" d="M1633 1807 L1060 1234 L1090 1234 L1663 1807 Z"/><path class="fh4" d="M1633 1807 L1060 1234 L1090 1234 L1663 1807 Z" /></g><g class="o"><path transform="translate(5,10)" class="S ss" d="M1657 1586 L1042 971 L1042 1003 L1657 1618 Z"/><path class="s4" d="M1657 1586 L1042 971 L1042 1003 L1657 1618 Z" /></g><g class="o"><path transform="translate(2,4)" class="S ssh" d="M1783 1134 L2149 1500 L2229 1500 L1863 1134 Z"/><path class="sh3" d="M1783 1134 L2149 1500 L2229 1500 L1863 1134 Z" /></g><g class="o"><path transform="translate(9,18)" class="S sfv" d="M1871 1585 L2447 1009 L2447 1037 L1871 1613 Z"/><path class="fv1" d="M1871 1585 L2447 1009 L2447 1037 L1871 1613 Z" /></g><g class="o"><path transform="translate(7,14)" class="S sfh" d="M1010 1952 L1200 1762 L1238 1762 L1048 1952 Z"/><path class="fh5" d="M1010 1952 L1200 1762 L1238 1762 L1048 1952 Z" /></g><g class="o"><path transform="translate(5,10)" class="S sfh" d="M1394 1601 L1580 1415 L1636 1415 L1450 1601 Z"/><path class="fh4" d="M1394 1601 L1580 1415 L1636 1415 L1450 1601 Z" /></g><g class="o"><path transform="translate(9,18)" class="S sfv" d="M1015 1985 L712 2288 L712 2302 L1015 1999 Z"/><path class="fv7" d="M1015 1985 L712 2288 L712 2302 L1015 1999 Z" /></g><g class="o"><path transform="translate(2,4)" class="S sfv" d="M1630 1682 L1396 1916 L1396 1952 L1630 1718 Z"/><path class="fv5" d="M1630 1682 L1396 1916 L1396 1952 L1630 1718 Z" /></g><g class="o"><path transform="translate(8,16)" class="S sfv" d="M1980 1801 L2172 1609 L2172 1689 L1980 1881 Z"/><path class="fv5" d="M1980 1801 L2172 1609 L2172 1689 L1980 1881 Z" /></g><g class="o"><path transform="translate(4,8)" class="S sfv" d="M1608 1340 L1421 1527 L1421 1561 L1608 1374 Z"/><path class="fv5" d="M1608 1340 L1421 1527 L1421 1561 L1608 1374 Z" /></g></g><use href="#slashes" transform-origin="1500 1500" transform="rotate(180) scale(2)"/></g><polyline points="1500,1010 1990,1500 1500,1990 1010,1500 1500,1010 1990,1500" stroke-width="40" class="o s1" /><use href="#slashes" transform-origin="1500 1500" transform="scale(.6)"/><use href="#slashes" transform-origin="1500 1500" transform="rotate(180) scale(.6)"/></svg>