<svg xmlns="http://www.w3.org/2000/svg" viewBox="750 750 1500 1500"><style>/*<![CDATA[*/svg{background:rgb(34,34,34);max-width:100vw;max-height:100vh}path{stroke-width:4}.o{opacity:.75}.S{opacity:.4}.sf{stroke:none;fill:black}.sfh{stroke:none;fill:url(#hs)}.sfv{stroke:none;fill:url(#vs)}.ss{stroke:black;fill:none}.ssh{stroke:url(#hs);fill:none}.ssv{stroke:url(#vs);fill:none}.s1{fill:none;stroke:rgb(26,192,198)}.f1{stroke:none;fill:rgb(26,192,198)}.sh1{fill:none;stroke:url(#h1)}.fh1{stroke:none;fill:url(#h1)}.sv1{fill:none;stroke:url(#v1)}.fv1{stroke:none;fill:url(#v1)}.s2{fill:none;stroke:rgb(222,224,230)}.f2{stroke:none;fill:rgb(222,224,230)}.sh2{fill:none;stroke:url(#h2)}.fh2{stroke:none;fill:url(#h2)}.sv2{fill:none;stroke:url(#v2)}.fv2{stroke:none;fill:url(#v2)}.s3{fill:none;stroke:rgb(255,168,34)}.f3{stroke:none;fill:rgb(255,168,34)}.sh3{fill:none;stroke:url(#h3)}.fh3{stroke:none;fill:url(#h3)}.sv3{fill:none;stroke:url(#v3)}.fv3{stroke:none;fill:url(#v3)}.s4{fill:none;stroke:rgb(19,78,111)}.f4{stroke:none;fill:rgb(19,78,111)}.sh4{fill:none;stroke:url(#h4)}.fh4{stroke:none;fill:url(#h4)}.sv4{fill:none;stroke:url(#v4)}.fv4{stroke:none;fill:url(#v4)}.s5{fill:none;stroke:rgb(255,97,80)}.f5{stroke:none;fill:rgb(255,97,80)}.sh5{fill:none;stroke:url(#h5)}.fh5{stroke:none;fill:url(#h5)}.sv5{fill:none;stroke:url(#v5)}.fv5{stroke:none;fill:url(#v5)}.s6{fill:none;stroke:rgb(255,255,255)}.f6{stroke:none;fill:rgb(255,255,255)}.sh6{fill:none;stroke:url(#h6)}.fh6{stroke:none;fill:url(#h6)}.sv6{fill:none;stroke:url(#v6)}.fv6{stroke:none;fill:url(#v6)}.s7{fill:none;stroke:rgb(255,0,0)}.f7{stroke:none;fill:rgb(255,0,0)}.sh7{fill:none;stroke:url(#h7)}.fh7{stroke:none;fill:url(#h7)}.sv7{fill:none;stroke:url(#v7)}.fv7{stroke:none;fill:url(#v7)}/*]]>*/</style><defs><linearGradient gradientTransform="rotate(90)" id="hs"><stop offset="20%" stop-color="#000" /><stop offset="95%" stop-color="rgba(0, 0, 0, 0)" /></linearGradient><linearGradient id="vs"><stop offset="20%" stop-color="#000" /><stop offset="95%" stop-color="rgba(0, 0, 0, 0)" /></linearGradient><linearGradient gradientTransform="rotate(90)" id="h1"><stop offset="20%" stop-color="rgba(26,192,198,1)" /><stop offset="95%" stop-color="rgba(26,192,198,0)" /></linearGradient><linearGradient id="v1"><stop offset="20%" stop-color="rgba(26,192,198,1)" /><stop offset="95%" stop-color="rgba(26,192,198,0)" /></linearGradient><linearGradient gradientTransform="rotate(90)" id="h2"><stop offset="20%" stop-color="rgba(222,224,230,1)" /><stop offset="95%" stop-color="rgba(222,224,230,0)" /></linearGradient><linearGradient id="v2"><stop offset="20%" stop-color="rgba(222,224,230,1)" /><stop offset="95%" stop-color="rgba(222,224,230,0)" /></linearGradient><linearGradient gradientTransform="rotate(90)" id="h3"><stop offset="20%" stop-color="rgba(255,168,34,1)" /><stop offset="95%" stop-color="rgba(255,168,34,0)" /></linearGradient><linearGradient id="v3"><stop offset="20%" stop-color="rgba(255,168,34,1)" /><stop offset="95%" stop-color="rgba(255,168,34,0)" /></linearGradient><linearGradient gradientTransform="rotate(90)" id="h4"><stop offset="20%" stop-color="rgba(19,78,111,1)" /><stop offset="95%" stop-color="rgba(19,78,111,0)" /></linearGradient><linearGradient id="v4"><stop offset="20%" stop-color="rgba(19,78,111,1)" /><stop offset="95%" stop-color="rgba(19,78,111,0)" /></linearGradient><linearGradient gradientTransform="rotate(90)" id="h5"><stop offset="20%" stop-color="rgba(255,97,80,1)" /><stop offset="95%" stop-color="rgba(255,97,80,0)" /></linearGradient><linearGradient id="v5"><stop offset="20%" stop-color="rgba(255,97,80,1)" /><stop offset="95%" stop-color="rgba(255,97,80,0)" /></linearGradient><linearGradient gradientTransform="rotate(90)" id="h6"><stop offset="20%" stop-color="rgba(255,255,255,1)" /><stop offset="95%" stop-color="rgba(255,255,255,0)" /></linearGradient><linearGradient id="v6"><stop offset="20%" stop-color="rgba(255,255,255,1)" /><stop offset="95%" stop-color="rgba(255,255,255,0)" /></linearGradient><linearGradient gradientTransform="rotate(90)" id="h7"><stop offset="20%" stop-color="rgba(255,0,0,1)" /><stop offset="95%" stop-color="rgba(255,0,0,0)" /></linearGradient><linearGradient id="v7"><stop offset="20%" stop-color="rgba(255,0,0,1)" /><stop offset="95%" stop-color="rgba(255,0,0,0)" /></linearGradient></defs><g transform-origin="1500 1500" transform="scale(2)" opacity=".2"><g id="slashes"><g class="o"><path transform="translate(4,8)" class="S sfv" d="M1482 1754 L1696 1968 L1696 1982 L1482 1768 Z"/><path class="fv1" d="M1482 1754 L1696 1968 L1696 1982 L1482 1768 Z" /></g><g class="o"><path transform="translate(2,4)" class="S sf" d="M1516 1025 L1447 1094 L1471 1094 L1540 1025 Z"/><path class="f6" d="M1516 1025 L1447 1094 L1471 1094 L1540 1025 Z" /></g><g class="o"><path transform="translate(8,16)" class="S sfh" d="M1723 1602 L1568 1757 L1580 1757 L1735 1602 Z"/><path class="fh1" d="M1723 1602 L1568 1757 L1580 1757 L1735 1602 Z" /></g><g class="o"><path transform="translate(5,10)" class="S ssv" d="M1538 1722 L1643 1827 L1643 1865 L1538 1760 Z"/><path class="sv3" d="M1538 1722 L1643 1827 L1643 1865 L1538 1760 Z" /></g><g class="o"><path transform="translate(3,6)" class="S ssv" d="M1239 1116 L1352 1229 L1352 1237 L1239 1124 Z"/><path class="sv7" d="M1239 1116 L1352 1229 L1352 1237 L1239 1124 Z" /></g><g class="o"><path transform="translate(5,10)" class="S sfh" d="M1409 1830 L905 2334 L927 2334 L1431 1830 Z"/><path class="fh5" d="M1409 1830 L905 2334 L927 2334 L1431 1830 Z" /></g><g class="o"><path transform="translate(8,16)" class="S sfv" d="M1990 1058 L2107 1175 L2107 1189 L1990 1072 Z"/><path class="fv6" d="M1990 1058 L2107 1175 L2107 1189 L1990 1072 Z" /></g><g class="o"><path transform="translate(6,12)" class="S sfv" d="M1197 1374 L1258 1435 L1258 1461 L1197 1400 Z"/><path class="fv6" d="M1197 1374 L1258 1435 L1258 1461 L1197 1400 Z" /></g><g class="o"><path transform="translate(5,10)" class="S sf" d="M1360 1675 L1550 1865 L1550 1887 L1360 1697 Z"/><path class="f5" d="M1360 1675 L1550 1865 L1550 1887 L1360 1697 Z" /></g><g class="o"><path transform="translate(4,8)" class="S sfh" d="M1312 986 L1561 1235 L1589 1235 L1340 986 Z"/><path class="fh1" d="M1312 986 L1561 1235 L1589 1235 L1340 986 Z" /></g><g class="o"><path transform="translate(6,12)" class="S sfh" d="M1872 1448 L1933 1509 L1959 1509 L1898 1448 Z"/><path class="fh7" d="M1872 1448 L1933 1509 L1959 1509 L1898 1448 Z" /></g><g class="o"><path transform="translate(7,14)" class="S sfh" d="M1442 1800 L1522 1880 L1560 1880 L1480 1800 Z"/><path class="fh3" d="M1442 1800 L1522 1880 L1560 1880 L1480 1800 Z" /></g><g class="o"><path transform="translate(3,6)" class="S sfh" d="M1565 1004 L1979 1418 L2007 1418 L1593 1004 Z"/><path class="fh5" d="M1565 1004 L1979 1418 L2007 1418 L1593 1004 Z" /></g><g class="o"><path transform="translate(3,6)" class="S sf" d="M1773 1539 L1539 1773 L1539 1811 L1773 1577 Z"/><path class="f5" d="M1773 1539 L1539 1773 L1539 1811 L1773 1577 Z" /></g><g class="o"><path transform="translate(9,18)" class="S ss" d="M1369 1358 L1463 1452 L1483 1452 L1389 1358 Z"/><path class="s6" d="M1369 1358 L1463 1452 L1483 1452 L1389 1358 Z" /></g><g class="o"><path transform="translate(4,8)" class="S sfv" d="M1835 1385 L2072 1622 L2072 1658 L1835 1421 Z"/><path class="fv2" d="M1835 1385 L2072 1622 L2072 1658 L1835 1421 Z" /></g><g class="o"><path transform="translate(2,4)" class="S sfv" d="M1424 1525 L1505 1606 L1505 1640 L1424 1559 Z"/><path class="fv7" d="M1424 1525 L1505 1606 L1505 1640 L1424 1559 Z" /></g><g class="o"><path transform="translate(2,4)" class="S ss" d="M1084 1964 L1225 2105 L1243 2105 L1102 1964 Z"/><path class="s4" d="M1084 1964 L1225 2105 L1243 2105 L1102 1964 Z" /></g><g class="o"><path transform="translate(4,8)" class="S sfh" d="M1267 1979 L1507 2219 L1533 2219 L1293 1979 Z"/><path class="fh5" d="M1267 1979 L1507 2219 L1533 2219 L1293 1979 Z" /></g><g class="o"><path transform="translate(2,4)" class="S sfh" d="M1700 1624 L1795 1719 L1805 1719 L1710 1624 Z"/><path class="fh7" d="M1700 1624 L1795 1719 L1805 1719 L1710 1624 Z" /></g><g class="o"><path transform="translate(3,6)" class="S sf" d="M1475 1295 L1666 1486 L1700 1486 L1509 1295 Z"/><path class="f5" d="M1475 1295 L1666 1486 L1700 1486 L1509 1295 Z" /></g><g class="o"><path transform="translate(4,8)" class="S sfh" d="M1612 2019 L1449 2182 L1561 2182 L1724 2019 Z"/><path class="fh4" d="M1612 2019 L1449 2182 L1561 2182 L1724 2019 Z" /></g><g class="o"><path transform="translate(4,8)" class="S sfh" d="M1175 1165 L1058 1282 L1076 1282 L1193 1165 Z"/><path class="fh2" d="M1175 1165 L1058 1282 L1076 1282 L1193 1165 Z" /></g><g class="o"><path transform="translate(7,14)" class="S ssv" d="M1964 986 L2160 1182 L2160 1212 L1964 1016 Z"/><path class="sv7" d="M1964 986 L2160 1182 L2160 1212 L1964 1016 Z" /></g><g class="o"><path transform="translate(6,12)" class="S sfh" d="M1833 1078 L1290 1621 L1314 1621 L1857 1078 Z"/><path class="fh7" d="M1833 1078 L1290 1621 L1314 1621 L1857 1078 Z" /></g><g class="o"><path transform="translate(5,10)" class="S ssh" d="M1309 1811 L1242 1878 L1250 1878 L1317 1811 Z"/><path class="sh3" d="M1309 1811 L1242 1878 L1250 1878 L1317 1811 Z" /></g><g class="o"><path transform="translate(5,10)" class="S ssh" d="M1759 1600 L2398 2239 L2408 2239 L1769 1600 Z"/><path class="sh4" d="M1759 1600 L2398 2239 L2408 2239 L1769 1600 Z" /></g><g class="o"><path transform="translate(8,16)" class="S sfv" d="M1115 1026 L1264 1175 L1264 1183 L1115 1034 Z"/><path class="fv1" d="M1115 1026 L1264 1175 L1264 1183 L1115 1034 Z" /></g><g class="o"><path transform="translate(3,6)" class="S ss" d="M1670 1988 L2330 2648 L2340 2648 L1680 1988 Z"/><path class="s2" d="M1670 1988 L2330 2648 L2340 2648 L1680 1988 Z" /></g><g class="o"><path transform="translate(2,4)" class="S sf" d="M1304 1621 L1502 1819 L1502 1843 L1304 1645 Z"/><path class="f3" d="M1304 1621 L1502 1819 L1502 1843 L1304 1645 Z" /></g><g class="o"><path transform="translate(4,8)" class="S sfh" d="M1213 1200 L1372 1359 L1390 1359 L1231 1200 Z"/><path class="fh7" d="M1213 1200 L1372 1359 L1390 1359 L1231 1200 Z" /></g><g class="o"><path transform="translate(4,8)" class="S sf" d="M1828 1190 L2011 1373 L2031 1373 L1848 1190 Z"/><path class="f5" d="M1828 1190 L2011 1373 L2031 1373 L1848 1190 Z" /></g><g class="o"><path transform="translate(5,10)" class="S ssh" d="M1982 1416 L1739 1659 L1769 1659 L2012 1416 Z"/><path class="sh5" d="M1982 1416 L1739 1659 L1769 1659 L2012 1416 Z" /></g><g class="o"><path transform="translate(8,16)" class="S sfh" d="M1491 1884 L1725 2118 L1743 2118 L1509 1884 Z"/><path class="fh2" d="M1491 1884 L1725 2118 L1743 2118 L1509 1884 Z" /></g><g class="o"><path transform="translate(5,10)" class="S sfh" d="M1201 1189 L1406 1394 L1414 1394 L1209 1189 Z"/><path class="fh2" d="M1201 1189 L1406 1394 L1414 1394 L1209 1189 Z" /></g><g class="o"><path transform="translate(9,18)" class="S sfh" d="M1513 1734 L1701 1922 L1709 1922 L1521 1734 Z"/><path class="fh7" d="M1513 1734 L1701 1922 L1709 1922 L1521 1734 Z" /></g><g class="o"><path transform="translate(2,4)" class="S sfv" d="M961 1999 L1198 2236 L1198 2254 L961 2017 Z"/><path class="fv2" d="M961 1999 L1198 2236 L1198 2254 L961 2017 Z" /></g><g class="o"><path transform="translate(7,14)" class="S sfv" d="M1938 1200 L2649 1911 L2649 1937 L1938 1226 Z"/><path class="fv7" d="M1938 1200 L2649 1911 L2649 1937 L1938 1226 Z" /></g><g class="o"><path transform="translate(3,6)" class="S sfv" d="M1521 1891 L852 2560 L852 2582 L1521 1913 Z"/><path class="fv5" d="M1521 1891 L852 2560 L852 2582 L1521 1913 Z" /></g><g class="o"><path transform="translate(7,14)" class="S sfv" d="M1177 1463 L1246 1532 L1246 1566 L1177 1497 Z"/><path class="fv3" d="M1177 1463 L1246 1532 L1246 1566 L1177 1497 Z" /></g><g class="o"><path transform="translate(9,18)" class="S ssh" d="M1767 976 L1658 1085 L1668 1085 L1777 976 Z"/><path class="sh7" d="M1767 976 L1658 1085 L1668 1085 L1777 976 Z" /></g><g class="o"><path transform="translate(5,10)" class="S sfv" d="M1912 1386 L1784 1514 L1784 1528 L1912 1400 Z"/><path class="fv4" d="M1912 1386 L1784 1514 L1784 1528 L1912 1400 Z" /></g><g class="o"><path transform="translate(8,16)" class="S sf" d="M1594 1397 L907 2084 L907 2228 L1594 1541 Z"/><path class="f6" d="M1594 1397 L907 2084 L907 2228 L1594 1541 Z" /></g><g class="o"><path transform="translate(6,12)" class="S sfh" d="M1324 1334 L1511 1521 L1537 1521 L1350 1334 Z"/><path class="fh5" d="M1324 1334 L1511 1521 L1537 1521 L1350 1334 Z" /></g><g class="o"><path transform="translate(7,14)" class="S sfv" d="M1816 1805 L1716 1905 L1716 1939 L1816 1839 Z"/><path class="fv2" d="M1816 1805 L1716 1905 L1716 1939 L1816 1839 Z" /></g><g class="o"><path transform="translate(2,4)" class="S sfv" d="M1415 1441 L1724 1750 L1724 1774 L1415 1465 Z"/><path class="fv4" d="M1415 1441 L1724 1750 L1724 1774 L1415 1465 Z" /></g><g class="o"><path transform="translate(7,14)" class="S sfh" d="M1348 1873 L1198 2023 L1210 2023 L1360 1873 Z"/><path class="fh7" d="M1348 1873 L1198 2023 L1210 2023 L1360 1873 Z" /></g><g class="o"><path transform="translate(2,4)" class="S ssv" d="M980 1545 L1202 1767 L1202 1807 L980 1585 Z"/><path class="sv1" d="M980 1545 L1202 1767 L1202 1807 L980 1585 Z" /></g><g class="o"><path transform="translate(9,18)" class="S sfh" d="M1421 1554 L1475 1608 L1487 1608 L1433 1554 Z"/><path class="fh4" d="M1421 1554 L1475 1608 L1487 1608 L1433 1554 Z" /></g><g class="o"><path transform="translate(5,10)" class="S ss" d="M1276 1556 L1627 1907 L1651 1907 L1300 1556 Z"/><path class="s5" d="M1276 1556 L1627 1907 L1651 1907 L1300 1556 Z" /></g><g class="o"><path transform="translate(9,18)" class="S sfh" d="M1134 1835 L774 2195 L788 2195 L1148 1835 Z"/><path class="fh5" d="M1134 1835 L774 2195 L788 2195 L1148 1835 Z" /></g><g class="o"><path transform="translate(4,8)" class="S sfh" d="M1996 1274 L2053 1331 L2069 1331 L2012 1274 Z"/><path class="fh5" d="M1996 1274 L2053 1331 L2069 1331 L2012 1274 Z" /></g><g class="o"><path transform="translate(5,10)" class="S sfh" d="M1654 2035 L1474 2215 L1488 2215 L1668 2035 Z"/><path class="fh6" d="M1654 2035 L1474 2215 L1488 2215 L1668 2035 Z" /></g><g class="o"><path transform="translate(8,16)" class="S sfv" d="M1305 1457 L1491 1643 L1491 1673 L1305 1487 Z"/><path class="fv2" d="M1305 1457 L1491 1643 L1491 1673 L1305 1487 Z" /></g><g class="o"><path transform="translate(9,18)" class="S sfv" d="M1061 1267 L849 1479 L849 1515 L1061 1303 Z"/><path class="fv1" d="M1061 1267 L849 1479 L849 1515 L1061 1303 Z" /></g><g class="o"><path transform="translate(8,16)" class="S sfh" d="M1469 1265 L1543 1339 L1577 1339 L1503 1265 Z"/><path class="fh5" d="M1469 1265 L1543 1339 L1577 1339 L1503 1265 Z" /></g><g class="o"><path transform="translate(4,8)" class="S sf" d="M1956 1039 L2195 1278 L2229 1278 L1990 1039 Z"/><path class="f2" d="M1956 1039 L2195 1278 L2229 1278 L1990 1039 Z" /></g><g class="o"><path transform="translate(3,6)" class="S ssv" d="M1751 1807 L1884 1940 L1884 1956 L1751 1823 Z"/><path class="sv2" d="M1751 1807 L1884 1940 L1884 1956 L1751 1823 Z" /></g><g class="o"><path transform="translate(7,14)" class="S sfv" d="M1026 1585 L1197 1756 L1197 1778 L1026 1607 Z"/><path class="fv6" d="M1026 1585 L1197 1756 L1197 1778 L1026 1607 Z" /></g><g class="o"><path transform="translate(6,12)" class="S sfv" d="M1628 2028 L1772 2172 L1772 2184 L1628 2040 Z"/><path class="fv2" d="M1628 2028 L1772 2172 L1772 2184 L1628 2040 Z" /></g><g class="o"><path transform="translate(2,4)" class="S sfv" d="M1365 1527 L1911 2073 L1911 2097 L1365 1551 Z"/><path class="fv1" d="M1365 1527 L1911 2073 L1911 2097 L1365 1551 Z" /></g><g class="o"><path transform="translate(8,16)" class="S sfv" d="M1049 1440 L1547 1938 L1547 1966 L1049 1468 Z"/><path class="fv7" d="M1049 1440 L1547 1938 L1547 1966 L1049 1468 Z" /></g><g class="o"><path transform="translate(4,8)" class="S sfv" d="M2038 1181 L2122 1265 L2122 1297 L2038 1213 Z"/><path class="fv6" d="M2038 1181 L2122 1265 L2122 1297 L2038 1213 Z" /></g><g class="o"><path transform="translate(4,8)" class="S ss" d="M1235 1038 L1140 1133 L1178 1133 L1273 1038 Z"/><path class="s7" d="M1235 1038 L1140 1133 L1178 1133 L1273 1038 Z" /></g><g class="o"><path transform="translate(5,10)" class="S sfv" d="M1772 1808 L1996 2032 L1996 2046 L1772 1822 Z"/><path class="fv3" d="M1772 1808 L1996 2032 L1996 2046 L1772 1822 Z" /></g><g class="o"><path transform="translate(2,4)" class="S sfv" d="M1741 1804 L2347 2410 L2347 2420 L1741 1814 Z"/><path class="fv7" d="M1741 1804 L2347 2410 L2347 2420 L1741 1814 Z" /></g><g class="o"><path transform="translate(4,8)" class="S sfv" d="M1898 1489 L2351 1942 L2351 1964 L1898 1511 Z"/><path class="fv1" d="M1898 1489 L2351 1942 L2351 1964 L1898 1511 Z" /></g><g class="o"><path transform="translate(7,14)" class="S sfv" d="M1590 2004 L1642 2056 L1642 2094 L1590 2042 Z"/><path class="fv1" d="M1590 2004 L1642 2056 L1642 2094 L1590 2042 Z" /></g><g class="o"><path transform="translate(9,18)" class="S sfh" d="M1483 1773 L1664 1954 L1700 1954 L1519 1773 Z"/><path class="fh6" d="M1483 1773 L1664 1954 L1700 1954 L1519 1773 Z" /></g><g class="o"><path transform="translate(9,18)" class="S sfh" d="M1402 1798 L1342 1858 L1370 1858 L1430 1798 Z"/><path class="fh6" d="M1402 1798 L1342 1858 L1370 1858 L1430 1798 Z" /></g><g class="o"><path transform="translate(6,12)" class="S sfv" d="M1056 1817 L1251 2012 L1251 2024 L1056 1829 Z"/><path class="fv5" d="M1056 1817 L1251 2012 L1251 2024 L1056 1829 Z" /></g><g class="o"><path transform="translate(4,8)" class="S sfh" d="M996 954 L1581 1539 L1603 1539 L1018 954 Z"/><path class="fh3" d="M996 954 L1581 1539 L1603 1539 L1018 954 Z" /></g><g class="o"><path transform="translate(3,6)" class="S ssh" d="M1571 1448 L1411 1608 L1431 1608 L1591 1448 Z"/><path class="sh1" d="M1571 1448 L1411 1608 L1431 1608 L1591 1448 Z" /></g><g class="o"><path transform="translate(2,4)" class="S sfh" d="M1264 1727 L1331 1794 L1359 1794 L1292 1727 Z"/><path class="fh3" d="M1264 1727 L1331 1794 L1359 1794 L1292 1727 Z" /></g><g class="o"><path transform="translate(7,14)" class="S sfv" d="M1365 1701 L1209 1857 L1209 1875 L1365 1719 Z"/><path class="fv6" d="M1365 1701 L1209 1857 L1209 1875 L1365 1719 Z" /></g><g class="o"><path transform="translate(2,4)" class="S ssv" d="M1957 1834 L2101 1978 L2101 1990 L1957 1846 Z"/><path class="sv3" d="M1957 1834 L2101 1978 L2101 1990 L1957 1846 Z" /></g><g class="o"><path transform="translate(4,8)" class="S sf" d="M1404 1792 L1254 1942 L1274 1942 L1424 1792 Z"/><path class="f2" d="M1404 1792 L1254 1942 L1274 1942 L1424 1792 Z" /></g><g class="o"><path transform="translate(6,12)" class="S sfh" d="M1843 1329 L1925 1411 L1945 1411 L1863 1329 Z"/><path class="fh3" d="M1843 1329 L1925 1411 L1945 1411 L1863 1329 Z" /></g><g class="o"><path transform="translate(5,10)" class="S sfh" d="M1930 1028 L1261 1697 L1275 1697 L1944 1028 Z"/><path class="fh5" d="M1930 1028 L1261 1697 L1275 1697 L1944 1028 Z" /></g><g class="o"><path transform="translate(6,12)" class="S sfh" d="M1457 1584 L1613 1740 L1629 1740 L1473 1584 Z"/><path class="fh1" d="M1457 1584 L1613 1740 L1629 1740 L1473 1584 Z" /></g><g class="o"><path transform="translate(8,16)" class="S ss" d="M1109 2029 L1499 2419 L1527 2419 L1137 2029 Z"/><path class="s5" d="M1109 2029 L1499 2419 L1527 2419 L1137 2029 Z" /></g><g class="o"><path transform="translate(2,4)" class="S sf" d="M1038 1068 L1130 1160 L1162 1160 L1070 1068 Z"/><path class="f7" d="M1038 1068 L1130 1160 L1162 1160 L1070 1068 Z" /></g><g class="o"><path transform="translate(7,14)" class="S sf" d="M1680 1419 L1807 1546 L1807 1562 L1680 1435 Z"/><path class="f2" d="M1680 1419 L1807 1546 L1807 1562 L1680 1435 Z" /></g><g class="o"><path transform="translate(7,14)" class="S ssh" d="M1821 1927 L1937 2043 L2041 2043 L1925 1927 Z"/><path class="sh7" d="M1821 1927 L1937 2043 L2041 2043 L1925 1927 Z" /></g><g class="o"><path transform="translate(5,10)" class="S sfv" d="M1518 1397 L1682 1561 L1682 1591 L1518 1427 Z"/><path class="fv3" d="M1518 1397 L1682 1561 L1682 1591 L1518 1427 Z" /></g><g class="o"><path transform="translate(6,12)" class="S sfv" d="M1571 1604 L1697 1730 L1697 1766 L1571 1640 Z"/><path class="fv2" d="M1571 1604 L1697 1730 L1697 1766 L1571 1640 Z" /></g><g class="o"><path transform="translate(5,10)" class="S sfv" d="M1754 1767 L1814 1827 L1814 1865 L1754 1805 Z"/><path class="fv3" d="M1754 1767 L1814 1827 L1814 1865 L1754 1805 Z" /></g><g class="o"><path transform="translate(4,8)" class="S sfh" d="M1036 1688 L1254 1906 L1288 1906 L1070 1688 Z"/><path class="fh7" d="M1036 1688 L1254 1906 L1288 1906 L1070 1688 Z" /></g><g class="o"><path transform="translate(9,18)" class="S ssv" d="M1215 1315 L1102 1428 L1102 1436 L1215 1323 Z"/><path class="sv2" d="M1215 1315 L1102 1428 L1102 1436 L1215 1323 Z" /></g><g class="o"><path transform="translate(7,14)" class="S sf" d="M1841 991 L1983 1133 L2007 1133 L1865 991 Z"/><path class="f2" d="M1841 991 L1983 1133 L2007 1133 L1865 991 Z" /></g><g class="o"><path transform="translate(2,4)" class="S sfv" d="M1460 1059 L1670 1269 L1670 1303 L1460 1093 Z"/><path class="fv4" d="M1460 1059 L1670 1269 L1670 1303 L1460 1093 Z" /></g><g class="o"><path transform="translate(2,4)" class="S sfh" d="M1187 1564 L1082 1669 L1108 1669 L1213 1564 Z"/><path class="fh4" d="M1187 1564 L1082 1669 L1108 1669 L1213 1564 Z" /></g><g class="o"><path transform="translate(6,12)" class="S sfv" d="M1886 1008 L1813 1081 L1813 1105 L1886 1032 Z"/><path class="fv3" d="M1886 1008 L1813 1081 L1813 1105 L1886 1032 Z" /></g><g class="o"><path transform="translate(5,10)" class="S ss" d="M1668 1966 L1805 2103 L1869 2103 L1732 1966 Z"/><path class="s7" d="M1668 1966 L1805 2103 L1869 2103 L1732 1966 Z" /></g><g class="o"><path transform="translate(5,10)" class="S sfh" d="M1149 990 L1384 1225 L1520 1225 L1285 990 Z"/><path class="fh5" d="M1149 990 L1384 1225 L1520 1225 L1285 990 Z" /></g><g class="o"><path transform="translate(5,10)" class="S sfv" d="M1889 1510 L2098 1719 L2098 1727 L1889 1518 Z"/><path class="fv6" d="M1889 1510 L2098 1719 L2098 1727 L1889 1518 Z" /></g><g class="o"><path transform="translate(6,12)" class="S sfh" d="M1929 1845 L2090 2006 L2128 2006 L1967 1845 Z"/><path class="fh7" d="M1929 1845 L2090 2006 L2128 2006 L1967 1845 Z" /></g><g class="o"><path transform="translate(8,16)" class="S sfh" d="M2019 1028 L1925 1122 L1951 1122 L2045 1028 Z"/><path class="fh1" d="M2019 1028 L1925 1122 L1951 1122 L2045 1028 Z" /></g><g class="o"><path transform="translate(5,10)" class="S sfh" d="M993 1448 L1220 1675 L1238 1675 L1011 1448 Z"/><path class="fh4" d="M993 1448 L1220 1675 L1238 1675 L1011 1448 Z" /></g><g class="o"><path transform="translate(9,18)" class="S sfh" d="M1853 1520 L1226 2147 L1262 2147 L1889 1520 Z"/><path class="fh2" d="M1853 1520 L1226 2147 L1262 2147 L1889 1520 Z" /></g><g class="o"><path transform="translate(5,10)" class="S sf" d="M1465 1189 L1639 1363 L1639 1393 L1465 1219 Z"/><path class="f2" d="M1465 1189 L1639 1363 L1639 1393 L1465 1219 Z" /></g><g class="o"><path transform="translate(3,6)" class="S sfh" d="M1917 1106 L2148 1337 L2180 1337 L1949 1106 Z"/><path class="fh1" d="M1917 1106 L2148 1337 L2180 1337 L1949 1106 Z" /></g><g class="o"><path transform="translate(2,4)" class="S ssv" d="M1236 1986 L1373 2123 L1373 2133 L1236 1996 Z"/><path class="sv6" d="M1236 1986 L1373 2123 L1373 2133 L1236 1996 Z" /></g><g class="o"><path transform="translate(7,14)" class="S sfv" d="M2007 1567 L2289 1849 L2289 1887 L2007 1605 Z"/><path class="fv4" d="M2007 1567 L2289 1849 L2289 1887 L2007 1605 Z" /></g><g class="o"><path transform="translate(4,8)" class="S sfh" d="M1795 1922 L2140 2267 L2168 2267 L1823 1922 Z"/><path class="fh2" d="M1795 1922 L2140 2267 L2168 2267 L1823 1922 Z" /></g><g class="o"><path transform="translate(9,18)" class="S ss" d="M1234 1385 L1588 1739 L1612 1739 L1258 1385 Z"/><path class="s6" d="M1234 1385 L1588 1739 L1612 1739 L1258 1385 Z" /></g><g class="o"><path transform="translate(9,18)" class="S sfh" d="M1243 1823 L1352 1932 L1378 1932 L1269 1823 Z"/><path class="fh4" d="M1243 1823 L1352 1932 L1378 1932 L1269 1823 Z" /></g><g class="o"><path transform="translate(8,16)" class="S sfv" d="M1022 1807 L1177 1962 L1177 1978 L1022 1823 Z"/><path class="fv2" d="M1022 1807 L1177 1962 L1177 1978 L1022 1823 Z" /></g><g class="o"><path transform="translate(2,4)" class="S sfh" d="M1838 1637 L2024 1823 L2056 1823 L1870 1637 Z"/><path class="fh6" d="M1838 1637 L2024 1823 L2056 1823 L1870 1637 Z" /></g><g class="o"><path transform="translate(9,18)" class="S sfh" d="M1413 1211 L1610 1408 L1646 1408 L1449 1211 Z"/><path class="fh3" d="M1413 1211 L1610 1408 L1646 1408 L1449 1211 Z" /></g><g class="o"><path transform="translate(4,8)" class="S sfh" d="M1466 1775 L1305 1936 L1315 1936 L1476 1775 Z"/><path class="fh2" d="M1466 1775 L1305 1936 L1315 1936 L1476 1775 Z" /></g><g class="o"><path transform="translate(3,6)" class="S sfv" d="M1140 1660 L1830 2350 L1830 2366 L1140 1676 Z"/><path class="fv2" d="M1140 1660 L1830 2350 L1830 2366 L1140 1676 Z" /></g><g class="o"><path transform="translate(5,10)" class="S sfv" d="M1304 1922 L1449 2067 L1449 2089 L1304 1944 Z"/><path class="fv7" d="M1304 1922 L1449 2067 L1449 2089 L1304 1944 Z" /></g><g class="o"><path transform="translate(6,12)" class="S ssv" d="M1303 945 L1484 1126 L1484 1144 L1303 963 Z"/><path class="sv5" d="M1303 945 L1484 1126 L1484 1144 L1303 963 Z" /></g><g class="o"><path transform="translate(7,14)" class="S sfh" d="M1490 1954 L1387 2057 L1407 2057 L1510 1954 Z"/><path class="fh4" d="M1490 1954 L1387 2057 L1407 2057 L1510 1954 Z" /></g><g class="o"><path transform="translate(9,18)" class="S sfv" d="M989 1500 L1107 1618 L1107 1682 L989 1564 Z"/><path class="fv5" d="M989 1500 L1107 1618 L1107 1682 L989 1564 Z" /></g><g class="o"><path transform="translate(5,10)" class="S ssv" d="M1096 1379 L1345 1628 L1345 1654 L1096 1405 Z"/><path class="sv4" d="M1096 1379 L1345 1628 L1345 1654 L1096 1405 Z" /></g><g class="o"><path transform="translate(8,16)" class="S sf" d="M1188 1919 L1258 1989 L1294 1989 L1224 1919 Z"/><path class="f7" d="M1188 1919 L1258 1989 L1294 1989 L1224 1919 Z" /></g><g class="o"><path transform="translate(2,4)" class="S sfh" d="M1814 1675 L2147 2008 L2179 2008 L1846 1675 Z"/><path class="fh3" d="M1814 1675 L2147 2008 L2179 2008 L1846 1675 Z" /></g><g class="o"><path transform="translate(2,4)" class="S sf" d="M1439 1799 L1656 2016 L1656 2054 L1439 1837 Z"/><path class="f2" d="M1439 1799 L1656 2016 L1656 2054 L1439 1837 Z" /></g><g class="o"><path transform="translate(6,12)" class="S sfh" d="M1007 1688 L1227 1908 L1247 1908 L1027 1688 Z"/><path class="fh5" d="M1007 1688 L1227 1908 L1247 1908 L1027 1688 Z" /></g><g class="o"><path transform="translate(3,6)" class="S sfh" d="M1386 975 L1634 1223 L1660 1223 L1412 975 Z"/><path class="fh6" d="M1386 975 L1634 1223 L1660 1223 L1412 975 Z" /></g><g class="o"><path transform="translate(5,10)" class="S sfh" d="M992 1687 L1179 1874 L1191 1874 L1004 1687 Z"/><path class="fh4" d="M992 1687 L1179 1874 L1191 1874 L1004 1687 Z" /></g><g class="o"><path transform="translate(4,8)" class="S sfv" d="M1156 1017 L936 1237 L936 1271 L1156 1051 Z"/><path class="fv7" d="M1156 1017 L936 1237 L936 1271 L1156 1051 Z" /></g><g class="o"><path transform="translate(9,18)" class="S sf" d="M1140 1103 L1854 1817 L1892 1817 L1178 1103 Z"/><path class="f7" d="M1140 1103 L1854 1817 L1892 1817 L1178 1103 Z" /></g><g class="o"><path transform="translate(7,14)" class="S sfv" d="M1199 1937 L1841 2579 L1841 2599 L1199 1957 Z"/><path class="fv4" d="M1199 1937 L1841 2579 L1841 2599 L1199 1957 Z" /></g><g class="o"><path transform="translate(8,16)" class="S sfv" d="M1468 1992 L1256 2204 L1256 2212 L1468 2000 Z"/><path class="fv1" d="M1468 1992 L1256 2204 L1256 2212 L1468 2000 Z" /></g><g class="o"><path transform="translate(9,18)" class="S sfh" d="M2021 1570 L2172 1721 L2200 1721 L2049 1570 Z"/><path class="fh7" d="M2021 1570 L2172 1721 L2200 1721 L2049 1570 Z" /></g><g class="o"><path transform="translate(9,18)" class="S sfv" d="M1071 1616 L1010 1677 L1010 1709 L1071 1648 Z"/><path class="fv5" d="M1071 1616 L1010 1677 L1010 1709 L1071 1648 Z" /></g><g class="o"><path transform="translate(4,8)" class="S ss" d="M1990 1074 L1806 1258 L1806 1296 L1990 1112 Z"/><path class="s3" d="M1990 1074 L1806 1258 L1806 1296 L1990 1112 Z" /></g><g class="o"><path transform="translate(3,6)" class="S sf" d="M1924 1292 L2162 1530 L2186 1530 L1948 1292 Z"/><path class="f6" d="M1924 1292 L2162 1530 L2186 1530 L1948 1292 Z" /></g><g class="o"><path transform="translate(4,8)" class="S sf" d="M980 1799 L1174 1993 L1174 2029 L980 1835 Z"/><path class="f7" d="M980 1799 L1174 1993 L1174 2029 L980 1835 Z" /></g><g class="o"><path transform="translate(2,4)" class="S ss" d="M1363 1384 L688 2059 L700 2059 L1375 1384 Z"/><path class="s6" d="M1363 1384 L688 2059 L700 2059 L1375 1384 Z" /></g><g class="o"><path transform="translate(4,8)" class="S sfv" d="M1274 1268 L1474 1468 L1474 1492 L1274 1292 Z"/><path class="fv7" d="M1274 1268 L1474 1468 L1474 1492 L1274 1292 Z" /></g><g class="o"><path transform="translate(2,4)" class="S sfv" d="M1626 1910 L1676 1960 L1676 1992 L1626 1942 Z"/><path class="fv7" d="M1626 1910 L1676 1960 L1676 1992 L1626 1942 Z" /></g><g class="o"><path transform="translate(3,6)" class="S sfh" d="M1727 988 L1613 1102 L1693 1102 L1807 988 Z"/><path class="fh2" d="M1727 988 L1613 1102 L1693 1102 L1807 988 Z" /></g><g class="o"><path transform="translate(8,16)" class="S sfv" d="M1372 1634 L1492 1754 L1492 1762 L1372 1642 Z"/><path class="fv1" d="M1372 1634 L1492 1754 L1492 1762 L1372 1642 Z" /></g><g class="o"><path transform="translate(4,8)" class="S ssv" d="M1991 1284 L1765 1510 L1765 1548 L1991 1322 Z"/><path class="sv6" d="M1991 1284 L1765 1510 L1765 1548 L1991 1322 Z" /></g><g class="o"><path transform="translate(5,10)" class="S sfv" d="M1417 1665 L1500 1748 L1500 1758 L1417 1675 Z"/><path class="fv2" d="M1417 1665 L1500 1748 L1500 1758 L1417 1675 Z" /></g><g class="o"><path transform="translate(5,10)" class="S ss" d="M1404 1378 L1527 1501 L1527 1539 L1404 1416 Z"/><path class="s4" d="M1404 1378 L1527 1501 L1527 1539 L1404 1416 Z" /></g></g><use href="#slashes" transform-origin="1500 1500" transform="rotate(180) scale(2)"/></g><polyline points="1500,1010 1990,1500 1500,1990 1010,1500 1500,1010 1990,1500" stroke-width="40" class="o s7" /><use href="#slashes" transform-origin="1500 1500" transform="scale(1.3)"/><use href="#slashes" transform-origin="1500 1500" transform="rotate(180) scale(.7)"/></svg>