<svg xmlns="http://www.w3.org/2000/svg" viewBox="750 750 1500 1500"><style>/*<![CDATA[*/svg{background:rgb(28,37,65);max-width:100vw;max-height:100vh}path{stroke-width:4}.o{opacity:.75}.S{opacity:.4}.sf{stroke:none;fill:black}.sfh{stroke:none;fill:url(#hs)}.sfv{stroke:none;fill:url(#vs)}.ss{stroke:black;fill:none}.ssh{stroke:url(#hs);fill:none}.ssv{stroke:url(#vs);fill:none}.s1{fill:none;stroke:rgb(111,255,233)}.f1{stroke:none;fill:rgb(111,255,233)}.sh1{fill:none;stroke:url(#h1)}.fh1{stroke:none;fill:url(#h1)}.sv1{fill:none;stroke:url(#v1)}.fv1{stroke:none;fill:url(#v1)}.s2{fill:none;stroke:rgb(34,34,34)}.f2{stroke:none;fill:rgb(34,34,34)}.sh2{fill:none;stroke:url(#h2)}.fh2{stroke:none;fill:url(#h2)}.sv2{fill:none;stroke:url(#v2)}.fv2{stroke:none;fill:url(#v2)}.s3{fill:none;stroke:rgb(11,19,43)}.f3{stroke:none;fill:rgb(11,19,43)}.sh3{fill:none;stroke:url(#h3)}.fh3{stroke:none;fill:url(#h3)}.sv3{fill:none;stroke:url(#v3)}.fv3{stroke:none;fill:url(#v3)}.s4{fill:none;stroke:rgb(91,192,190)}.f4{stroke:none;fill:rgb(91,192,190)}.sh4{fill:none;stroke:url(#h4)}.fh4{stroke:none;fill:url(#h4)}.sv4{fill:none;stroke:url(#v4)}.fv4{stroke:none;fill:url(#v4)}.s5{fill:none;stroke:rgb(58,80,107)}.f5{stroke:none;fill:rgb(58,80,107)}.sh5{fill:none;stroke:url(#h5)}.fh5{stroke:none;fill:url(#h5)}.sv5{fill:none;stroke:url(#v5)}.fv5{stroke:none;fill:url(#v5)}.s6{fill:none;stroke:rgb(255,255,255)}.f6{stroke:none;fill:rgb(255,255,255)}.sh6{fill:none;stroke:url(#h6)}.fh6{stroke:none;fill:url(#h6)}.sv6{fill:none;stroke:url(#v6)}.fv6{stroke:none;fill:url(#v6)}.s7{fill:none;stroke:rgb(255,0,0)}.f7{stroke:none;fill:rgb(255,0,0)}.sh7{fill:none;stroke:url(#h7)}.fh7{stroke:none;fill:url(#h7)}.sv7{fill:none;stroke:url(#v7)}.fv7{stroke:none;fill:url(#v7)}/*]]>*/</style><defs><linearGradient gradientTransform="rotate(90)" id="hs"><stop offset="20%" stop-color="#000" /><stop offset="95%" stop-color="rgba(0, 0, 0, 0)" /></linearGradient><linearGradient id="vs"><stop offset="20%" stop-color="#000" /><stop offset="95%" stop-color="rgba(0, 0, 0, 0)" /></linearGradient><linearGradient gradientTransform="rotate(90)" id="h1"><stop offset="20%" stop-color="rgba(111,255,233,1)" /><stop offset="95%" stop-color="rgba(111,255,233,0)" /></linearGradient><linearGradient id="v1"><stop offset="20%" stop-color="rgba(111,255,233,1)" /><stop offset="95%" stop-color="rgba(111,255,233,0)" /></linearGradient><linearGradient gradientTransform="rotate(90)" id="h2"><stop offset="20%" stop-color="rgba(34,34,34,1)" /><stop offset="95%" stop-color="rgba(34,34,34,0)" /></linearGradient><linearGradient id="v2"><stop offset="20%" stop-color="rgba(34,34,34,1)" /><stop offset="95%" stop-color="rgba(34,34,34,0)" /></linearGradient><linearGradient gradientTransform="rotate(90)" id="h3"><stop offset="20%" stop-color="rgba(11,19,43,1)" /><stop offset="95%" stop-color="rgba(11,19,43,0)" /></linearGradient><linearGradient id="v3"><stop offset="20%" stop-color="rgba(11,19,43,1)" /><stop offset="95%" stop-color="rgba(11,19,43,0)" /></linearGradient><linearGradient gradientTransform="rotate(90)" id="h4"><stop offset="20%" stop-color="rgba(91,192,190,1)" /><stop offset="95%" stop-color="rgba(91,192,190,0)" /></linearGradient><linearGradient id="v4"><stop offset="20%" stop-color="rgba(91,192,190,1)" /><stop offset="95%" stop-color="rgba(91,192,190,0)" /></linearGradient><linearGradient gradientTransform="rotate(90)" id="h5"><stop offset="20%" stop-color="rgba(58,80,107,1)" /><stop offset="95%" stop-color="rgba(58,80,107,0)" /></linearGradient><linearGradient id="v5"><stop offset="20%" stop-color="rgba(58,80,107,1)" /><stop offset="95%" stop-color="rgba(58,80,107,0)" /></linearGradient><linearGradient gradientTransform="rotate(90)" id="h6"><stop offset="20%" stop-color="rgba(255,255,255,1)" /><stop offset="95%" stop-color="rgba(255,255,255,0)" /></linearGradient><linearGradient id="v6"><stop offset="20%" stop-color="rgba(255,255,255,1)" /><stop offset="95%" stop-color="rgba(255,255,255,0)" /></linearGradient><linearGradient gradientTransform="rotate(90)" id="h7"><stop offset="20%" stop-color="rgba(255,0,0,1)" /><stop offset="95%" stop-color="rgba(255,0,0,0)" /></linearGradient><linearGradient id="v7"><stop offset="20%" stop-color="rgba(255,0,0,1)" /><stop offset="95%" stop-color="rgba(255,0,0,0)" /></linearGradient></defs><g transform-origin="1500 1500" transform="scale(2)" opacity=".2"><g id="slashes"><g class="o"><path transform="translate(9,18)" class="S ssv" d="M1139 1560 L1676 2097 L1676 2107 L1139 1570 Z"/><path class="sv2" d="M1139 1560 L1676 2097 L1676 2107 L1139 1570 Z" /></g><g class="o"><path transform="translate(4,8)" class="S ss" d="M1232 1960 L1419 2147 L1437 2147 L1250 1960 Z"/><path class="s7" d="M1232 1960 L1419 2147 L1437 2147 L1250 1960 Z" /></g><g class="o"><path transform="translate(3,6)" class="S sfh" d="M1357 1439 L1511 1593 L1533 1593 L1379 1439 Z"/><path class="fh2" d="M1357 1439 L1511 1593 L1533 1593 L1379 1439 Z" /></g><g class="o"><path transform="translate(6,12)" class="S sfh" d="M1167 1691 L1264 1788 L1298 1788 L1201 1691 Z"/><path class="fh2" d="M1167 1691 L1264 1788 L1298 1788 L1201 1691 Z" /></g><g class="o"><path transform="translate(8,16)" class="S ssh" d="M959 1858 L1024 1923 L1032 1923 L967 1858 Z"/><path class="sh5" d="M959 1858 L1024 1923 L1032 1923 L967 1858 Z" /></g><g class="o"><path transform="translate(5,10)" class="S sfh" d="M1696 1010 L1524 1182 L1532 1182 L1704 1010 Z"/><path class="fh5" d="M1696 1010 L1524 1182 L1532 1182 L1704 1010 Z" /></g><g class="o"><path transform="translate(5,10)" class="S sfv" d="M1769 1271 L1606 1434 L1606 1462 L1769 1299 Z"/><path class="fv3" d="M1769 1271 L1606 1434 L1606 1462 L1769 1299 Z" /></g><g class="o"><path transform="translate(9,18)" class="S sfh" d="M1123 1713 L1175 1765 L1209 1765 L1157 1713 Z"/><path class="fh6" d="M1123 1713 L1175 1765 L1209 1765 L1157 1713 Z" /></g><g class="o"><path transform="translate(6,12)" class="S sfh" d="M1269 1096 L1490 1317 L1524 1317 L1303 1096 Z"/><path class="fh3" d="M1269 1096 L1490 1317 L1524 1317 L1303 1096 Z" /></g><g class="o"><path transform="translate(3,6)" class="S sfv" d="M1326 1508 L1555 1737 L1555 1769 L1326 1540 Z"/><path class="fv4" d="M1326 1508 L1555 1737 L1555 1769 L1326 1540 Z" /></g><g class="o"><path transform="translate(9,18)" class="S ssh" d="M1756 1611 L2362 2217 L2388 2217 L1782 1611 Z"/><path class="sh2" d="M1756 1611 L2362 2217 L2388 2217 L1782 1611 Z" /></g><g class="o"><path transform="translate(5,10)" class="S sf" d="M1203 985 L1339 1121 L1353 1121 L1217 985 Z"/><path class="f6" d="M1203 985 L1339 1121 L1353 1121 L1217 985 Z" /></g><g class="o"><path transform="translate(3,6)" class="S sfh" d="M1523 1780 L1659 1916 L1667 1916 L1531 1780 Z"/><path class="fh2" d="M1523 1780 L1659 1916 L1667 1916 L1531 1780 Z" /></g><g class="o"><path transform="translate(3,6)" class="S sfh" d="M1199 2040 L1406 2247 L1440 2247 L1233 2040 Z"/><path class="fh1" d="M1199 2040 L1406 2247 L1440 2247 L1233 2040 Z" /></g><g class="o"><path transform="translate(7,14)" class="S sfh" d="M1622 1661 L1401 1882 L1427 1882 L1648 1661 Z"/><path class="fh6" d="M1622 1661 L1401 1882 L1427 1882 L1648 1661 Z" /></g><g class="o"><path transform="translate(8,16)" class="S sfh" d="M1013 1593 L1162 1742 L1190 1742 L1041 1593 Z"/><path class="fh5" d="M1013 1593 L1162 1742 L1190 1742 L1041 1593 Z" /></g><g class="o"><path transform="translate(5,10)" class="S ssv" d="M1491 1130 L1604 1243 L1604 1269 L1491 1156 Z"/><path class="sv7" d="M1491 1130 L1604 1243 L1604 1269 L1491 1156 Z" /></g><g class="o"><path transform="translate(2,4)" class="S sfh" d="M1774 955 L2497 1678 L2531 1678 L1808 955 Z"/><path class="fh7" d="M1774 955 L2497 1678 L2531 1678 L1808 955 Z" /></g><g class="o"><path transform="translate(7,14)" class="S sfh" d="M1794 1566 L1955 1727 L1977 1727 L1816 1566 Z"/><path class="fh7" d="M1794 1566 L1955 1727 L1977 1727 L1816 1566 Z" /></g><g class="o"><path transform="translate(7,14)" class="S sfv" d="M1630 1075 L1845 1290 L1845 1318 L1630 1103 Z"/><path class="fv4" d="M1630 1075 L1845 1290 L1845 1318 L1630 1103 Z" /></g><g class="o"><path transform="translate(8,16)" class="S sfv" d="M1173 1561 L1061 1673 L1061 1703 L1173 1591 Z"/><path class="fv3" d="M1173 1561 L1061 1673 L1061 1703 L1173 1591 Z" /></g><g class="o"><path transform="translate(4,8)" class="S sfh" d="M2013 1816 L2127 1930 L2141 1930 L2027 1816 Z"/><path class="fh2" d="M2013 1816 L2127 1930 L2141 1930 L2027 1816 Z" /></g><g class="o"><path transform="translate(6,12)" class="S sfv" d="M1684 1107 L1824 1247 L1824 1277 L1684 1137 Z"/><path class="fv5" d="M1684 1107 L1824 1247 L1824 1277 L1684 1137 Z" /></g><g class="o"><path transform="translate(5,10)" class="S sfh" d="M1085 1339 L1213 1467 L1235 1467 L1107 1339 Z"/><path class="fh3" d="M1085 1339 L1213 1467 L1235 1467 L1107 1339 Z" /></g><g class="o"><path transform="translate(2,4)" class="S sfv" d="M1962 1207 L2352 1597 L2352 1619 L1962 1229 Z"/><path class="fv4" d="M1962 1207 L2352 1597 L2352 1619 L1962 1229 Z" /></g><g class="o"><path transform="translate(7,14)" class="S ssv" d="M1231 1768 L1390 1927 L1390 1951 L1231 1792 Z"/><path class="sv7" d="M1231 1768 L1390 1927 L1390 1951 L1231 1792 Z" /></g><g class="o"><path transform="translate(6,12)" class="S sfv" d="M1095 1585 L1295 1785 L1295 1799 L1095 1599 Z"/><path class="fv3" d="M1095 1585 L1295 1785 L1295 1799 L1095 1599 Z" /></g><g class="o"><path transform="translate(4,8)" class="S sfh" d="M1904 1665 L1764 1805 L1778 1805 L1918 1665 Z"/><path class="fh4" d="M1904 1665 L1764 1805 L1778 1805 L1918 1665 Z" /></g><g class="o"><path transform="translate(8,16)" class="S sf" d="M1917 1086 L2028 1197 L2036 1197 L1925 1086 Z"/><path class="f5" d="M1917 1086 L2028 1197 L2036 1197 L1925 1086 Z" /></g><g class="o"><path transform="translate(2,4)" class="S sfv" d="M1163 1381 L1787 2005 L1787 2033 L1163 1409 Z"/><path class="fv5" d="M1163 1381 L1787 2005 L1787 2033 L1163 1409 Z" /></g><g class="o"><path transform="translate(6,12)" class="S sfv" d="M951 1759 L1092 1900 L1092 1924 L951 1783 Z"/><path class="fv4" d="M951 1759 L1092 1900 L1092 1924 L951 1783 Z" /></g><g class="o"><path transform="translate(4,8)" class="S sfv" d="M1476 1548 L1293 1731 L1293 1763 L1476 1580 Z"/><path class="fv7" d="M1476 1548 L1293 1731 L1293 1763 L1476 1580 Z" /></g><g class="o"><path transform="translate(4,8)" class="S sfv" d="M1322 989 L1718 1385 L1718 1419 L1322 1023 Z"/><path class="fv6" d="M1322 989 L1718 1385 L1718 1419 L1322 1023 Z" /></g><g class="o"><path transform="translate(6,12)" class="S sfh" d="M1691 1639 L1940 1888 L1964 1888 L1715 1639 Z"/><path class="fh3" d="M1691 1639 L1940 1888 L1964 1888 L1715 1639 Z" /></g><g class="o"><path transform="translate(3,6)" class="S ssh" d="M1371 1089 L1442 1160 L1462 1160 L1391 1089 Z"/><path class="sh2" d="M1371 1089 L1442 1160 L1462 1160 L1391 1089 Z" /></g><g class="o"><path transform="translate(9,18)" class="S sfv" d="M2044 926 L1935 1035 L1935 1163 L2044 1054 Z"/><path class="fv6" d="M2044 926 L1935 1035 L1935 1163 L2044 1054 Z" /></g><g class="o"><path transform="translate(4,8)" class="S sfh" d="M1059 1700 L1689 2330 L1703 2330 L1073 1700 Z"/><path class="fh2" d="M1059 1700 L1689 2330 L1703 2330 L1073 1700 Z" /></g><g class="o"><path transform="translate(2,4)" class="S sfh" d="M1186 1287 L1334 1435 L1356 1435 L1208 1287 Z"/><path class="fh7" d="M1186 1287 L1334 1435 L1356 1435 L1208 1287 Z" /></g><g class="o"><path transform="translate(5,10)" class="S sfh" d="M1734 1221 L2400 1887 L2436 1887 L1770 1221 Z"/><path class="fh5" d="M1734 1221 L2400 1887 L2436 1887 L1770 1221 Z" /></g><g class="o"><path transform="translate(8,16)" class="S sfv" d="M1986 1258 L1389 1855 L1389 1865 L1986 1268 Z"/><path class="fv4" d="M1986 1258 L1389 1855 L1389 1865 L1986 1268 Z" /></g><g class="o"><path transform="translate(8,16)" class="S sfv" d="M1042 970 L1390 1318 L1390 1336 L1042 988 Z"/><path class="fv4" d="M1042 970 L1390 1318 L1390 1336 L1042 988 Z" /></g><g class="o"><path transform="translate(3,6)" class="S sfh" d="M1335 1156 L1439 1260 L1473 1260 L1369 1156 Z"/><path class="fh1" d="M1335 1156 L1439 1260 L1473 1260 L1369 1156 Z" /></g><g class="o"><path transform="translate(7,14)" class="S sfv" d="M1239 1516 L1168 1587 L1168 1635 L1239 1564 Z"/><path class="fv5" d="M1239 1516 L1168 1587 L1168 1635 L1239 1564 Z" /></g><g class="o"><path transform="translate(3,6)" class="S sfh" d="M1543 1169 L1778 1404 L1790 1404 L1555 1169 Z"/><path class="fh5" d="M1543 1169 L1778 1404 L1790 1404 L1555 1169 Z" /></g><g class="o"><path transform="translate(8,16)" class="S sfv" d="M1471 1875 L1571 1975 L1571 1997 L1471 1897 Z"/><path class="fv1" d="M1471 1875 L1571 1975 L1571 1997 L1471 1897 Z" /></g><g class="o"><path transform="translate(4,8)" class="S sfv" d="M1744 1921 L1030 2635 L1030 2653 L1744 1939 Z"/><path class="fv5" d="M1744 1921 L1030 2635 L1030 2653 L1744 1939 Z" /></g><g class="o"><path transform="translate(4,8)" class="S sfv" d="M1312 1545 L1966 2199 L1966 2237 L1312 1583 Z"/><path class="fv4" d="M1312 1545 L1966 2199 L1966 2237 L1312 1583 Z" /></g><g class="o"><path transform="translate(3,6)" class="S sf" d="M1143 1783 L921 2005 L1057 2005 L1279 1783 Z"/><path class="f7" d="M1143 1783 L921 2005 L1057 2005 L1279 1783 Z" /></g><g class="o"><path transform="translate(2,4)" class="S sfh" d="M1248 1754 L1388 1894 L1410 1894 L1270 1754 Z"/><path class="fh7" d="M1248 1754 L1388 1894 L1410 1894 L1270 1754 Z" /></g><g class="o"><path transform="translate(7,14)" class="S ssh" d="M1077 952 L507 1522 L535 1522 L1105 952 Z"/><path class="sh4" d="M1077 952 L507 1522 L535 1522 L1105 952 Z" /></g><g class="o"><path transform="translate(8,16)" class="S sfh" d="M1116 1013 L1176 1073 L1190 1073 L1130 1013 Z"/><path class="fh2" d="M1116 1013 L1176 1073 L1190 1073 L1130 1013 Z" /></g><g class="o"><path transform="translate(6,12)" class="S sfh" d="M1572 1842 L1754 2024 L1780 2024 L1598 1842 Z"/><path class="fh4" d="M1572 1842 L1754 2024 L1780 2024 L1598 1842 Z" /></g><g class="o"><path transform="translate(4,8)" class="S ss" d="M1317 1711 L1506 1900 L1506 1922 L1317 1733 Z"/><path class="s7" d="M1317 1711 L1506 1900 L1506 1922 L1317 1733 Z" /></g><g class="o"><path transform="translate(3,6)" class="S sfv" d="M1150 1688 L1882 2420 L1882 2440 L1150 1708 Z"/><path class="fv4" d="M1150 1688 L1882 2420 L1882 2440 L1150 1708 Z" /></g><g class="o"><path transform="translate(2,4)" class="S sfh" d="M1242 1768 L1941 2467 L1961 2467 L1262 1768 Z"/><path class="fh6" d="M1242 1768 L1941 2467 L1961 2467 L1262 1768 Z" /></g><g class="o"><path transform="translate(6,12)" class="S sf" d="M1081 1259 L1546 1724 L1570 1724 L1105 1259 Z"/><path class="f4" d="M1081 1259 L1546 1724 L1570 1724 L1105 1259 Z" /></g><g class="o"><path transform="translate(6,12)" class="S sfh" d="M1850 1617 L1741 1726 L1761 1726 L1870 1617 Z"/><path class="fh6" d="M1850 1617 L1741 1726 L1761 1726 L1870 1617 Z" /></g><g class="o"><path transform="translate(2,4)" class="S sf" d="M1424 1880 L1535 1991 L1535 2021 L1424 1910 Z"/><path class="f2" d="M1424 1880 L1535 1991 L1535 2021 L1424 1910 Z" /></g><g class="o"><path transform="translate(9,18)" class="S sfv" d="M1441 1555 L1584 1698 L1584 1728 L1441 1585 Z"/><path class="fv6" d="M1441 1555 L1584 1698 L1584 1728 L1441 1585 Z" /></g><g class="o"><path transform="translate(7,14)" class="S sf" d="M1617 1997 L1805 2185 L1827 2185 L1639 1997 Z"/><path class="f5" d="M1617 1997 L1805 2185 L1827 2185 L1639 1997 Z" /></g><g class="o"><path transform="translate(7,14)" class="S sfh" d="M1956 1109 L2127 1280 L2139 1280 L1968 1109 Z"/><path class="fh7" d="M1956 1109 L2127 1280 L2139 1280 L1968 1109 Z" /></g><g class="o"><path transform="translate(2,4)" class="S sfh" d="M1057 1773 L1217 1933 L1235 1933 L1075 1773 Z"/><path class="fh5" d="M1057 1773 L1217 1933 L1235 1933 L1075 1773 Z" /></g><g class="o"><path transform="translate(5,10)" class="S sfv" d="M1612 1135 L1380 1367 L1380 1399 L1612 1167 Z"/><path class="fv1" d="M1612 1135 L1380 1367 L1380 1399 L1612 1167 Z" /></g><g class="o"><path transform="translate(3,6)" class="S sfh" d="M1642 1088 L1741 1187 L1771 1187 L1672 1088 Z"/><path class="fh7" d="M1642 1088 L1741 1187 L1771 1187 L1672 1088 Z" /></g><g class="o"><path transform="translate(4,8)" class="S sfh" d="M1427 1916 L1537 2026 L1561 2026 L1451 1916 Z"/><path class="fh3" d="M1427 1916 L1537 2026 L1561 2026 L1451 1916 Z" /></g><g class="o"><path transform="translate(5,10)" class="S sfh" d="M1372 2007 L1603 2238 L1631 2238 L1400 2007 Z"/><path class="fh7" d="M1372 2007 L1603 2238 L1631 2238 L1400 2007 Z" /></g><g class="o"><path transform="translate(7,14)" class="S sfv" d="M1413 1811 L1569 1967 L1569 1997 L1413 1841 Z"/><path class="fv2" d="M1413 1811 L1569 1967 L1569 1997 L1413 1841 Z" /></g><g class="o"><path transform="translate(5,10)" class="S sf" d="M2012 1945 L2124 2057 L2142 2057 L2030 1945 Z"/><path class="f1" d="M2012 1945 L2124 2057 L2142 2057 L2030 1945 Z" /></g><g class="o"><path transform="translate(8,16)" class="S sfv" d="M1757 2005 L2417 2665 L2417 2677 L1757 2017 Z"/><path class="fv1" d="M1757 2005 L2417 2665 L2417 2677 L1757 2017 Z" /></g><g class="o"><path transform="translate(8,16)" class="S sfv" d="M2009 1503 L2618 2112 L2618 2148 L2009 1539 Z"/><path class="fv3" d="M2009 1503 L2618 2112 L2618 2148 L2009 1539 Z" /></g><g class="o"><path transform="translate(9,18)" class="S ssh" d="M1206 1120 L1406 1320 L1422 1320 L1222 1120 Z"/><path class="sh4" d="M1206 1120 L1406 1320 L1422 1320 L1222 1120 Z" /></g><g class="o"><path transform="translate(8,16)" class="S sfh" d="M982 1597 L1081 1696 L1105 1696 L1006 1597 Z"/><path class="fh3" d="M982 1597 L1081 1696 L1105 1696 L1006 1597 Z" /></g><g class="o"><path transform="translate(7,14)" class="S ssv" d="M1368 1206 L1929 1767 L1929 1903 L1368 1342 Z"/><path class="sv3" d="M1368 1206 L1929 1767 L1929 1903 L1368 1342 Z" /></g><g class="o"><path transform="translate(2,4)" class="S sfh" d="M1473 1873 L1634 2034 L1650 2034 L1489 1873 Z"/><path class="fh2" d="M1473 1873 L1634 2034 L1650 2034 L1489 1873 Z" /></g><g class="o"><path transform="translate(5,10)" class="S ssh" d="M1922 1475 L2029 1582 L2077 1582 L1970 1475 Z"/><path class="sh3" d="M1922 1475 L2029 1582 L2077 1582 L1970 1475 Z" /></g><g class="o"><path transform="translate(7,14)" class="S sfv" d="M1413 1391 L1479 1457 L1479 1485 L1413 1419 Z"/><path class="fv4" d="M1413 1391 L1479 1457 L1479 1485 L1413 1419 Z" /></g><g class="o"><path transform="translate(4,8)" class="S sfh" d="M1416 1778 L1475 1837 L1483 1837 L1424 1778 Z"/><path class="fh3" d="M1416 1778 L1475 1837 L1483 1837 L1424 1778 Z" /></g><g class="o"><path transform="translate(3,6)" class="S ss" d="M1606 1380 L1456 1530 L1456 1538 L1606 1388 Z"/><path class="s7" d="M1606 1380 L1456 1530 L1456 1538 L1606 1388 Z" /></g><g class="o"><path transform="translate(6,12)" class="S sfh" d="M2028 1184 L2272 1428 L2282 1428 L2038 1184 Z"/><path class="fh4" d="M2028 1184 L2272 1428 L2282 1428 L2038 1184 Z" /></g><g class="o"><path transform="translate(8,16)" class="S ssh" d="M2013 1332 L2245 1564 L2283 1564 L2051 1332 Z"/><path class="sh2" d="M2013 1332 L2245 1564 L2283 1564 L2051 1332 Z" /></g><g class="o"><path transform="translate(8,16)" class="S sfv" d="M1349 1237 L1432 1320 L1432 1348 L1349 1265 Z"/><path class="fv7" d="M1349 1237 L1432 1320 L1432 1348 L1349 1265 Z" /></g><g class="o"><path transform="translate(8,16)" class="S sfh" d="M1988 1677 L2693 2382 L2727 2382 L2022 1677 Z"/><path class="fh4" d="M1988 1677 L2693 2382 L2727 2382 L2022 1677 Z" /></g><g class="o"><path transform="translate(2,4)" class="S sfh" d="M1254 1719 L1311 1776 L1339 1776 L1282 1719 Z"/><path class="fh5" d="M1254 1719 L1311 1776 L1339 1776 L1282 1719 Z" /></g><g class="o"><path transform="translate(9,18)" class="S ssh" d="M1548 1550 L1710 1712 L1724 1712 L1562 1550 Z"/><path class="sh2" d="M1548 1550 L1710 1712 L1724 1712 L1562 1550 Z" /></g><g class="o"><path transform="translate(7,14)" class="S sfh" d="M1502 970 L1671 1139 L1689 1139 L1520 970 Z"/><path class="fh4" d="M1502 970 L1671 1139 L1689 1139 L1520 970 Z" /></g><g class="o"><path transform="translate(8,16)" class="S sf" d="M1542 1758 L1653 1869 L1653 1905 L1542 1794 Z"/><path class="f2" d="M1542 1758 L1653 1869 L1653 1905 L1542 1794 Z" /></g><g class="o"><path transform="translate(3,6)" class="S ssv" d="M1424 1685 L1504 1765 L1504 1781 L1424 1701 Z"/><path class="sv7" d="M1424 1685 L1504 1765 L1504 1781 L1424 1701 Z" /></g><g class="o"><path transform="translate(5,10)" class="S sfh" d="M1951 1775 L2198 2022 L2236 2022 L1989 1775 Z"/><path class="fh6" d="M1951 1775 L2198 2022 L2236 2022 L1989 1775 Z" /></g><g class="o"><path transform="translate(8,16)" class="S sfv" d="M1653 1164 L1781 1292 L1781 1304 L1653 1176 Z"/><path class="fv4" d="M1653 1164 L1781 1292 L1781 1304 L1653 1176 Z" /></g><g class="o"><path transform="translate(3,6)" class="S ssh" d="M1018 1815 L773 2060 L783 2060 L1028 1815 Z"/><path class="sh1" d="M1018 1815 L773 2060 L783 2060 L1028 1815 Z" /></g><g class="o"><path transform="translate(7,14)" class="S sfv" d="M1567 1763 L1796 1992 L1796 2000 L1567 1771 Z"/><path class="fv5" d="M1567 1763 L1796 1992 L1796 2000 L1567 1771 Z" /></g><g class="o"><path transform="translate(2,4)" class="S sfh" d="M1077 1331 L1221 1475 L1259 1475 L1115 1331 Z"/><path class="fh4" d="M1077 1331 L1221 1475 L1259 1475 L1115 1331 Z" /></g><g class="o"><path transform="translate(5,10)" class="S sfv" d="M1978 1373 L2141 1536 L2141 1550 L1978 1387 Z"/><path class="fv6" d="M1978 1373 L2141 1536 L2141 1550 L1978 1387 Z" /></g><g class="o"><path transform="translate(2,4)" class="S sf" d="M1972 1634 L2527 2189 L2551 2189 L1996 1634 Z"/><path class="f7" d="M1972 1634 L2527 2189 L2551 2189 L1996 1634 Z" /></g><g class="o"><path transform="translate(8,16)" class="S sfv" d="M1634 1676 L1485 1825 L1485 1859 L1634 1710 Z"/><path class="fv1" d="M1634 1676 L1485 1825 L1485 1859 L1634 1710 Z" /></g><g class="o"><path transform="translate(2,4)" class="S sf" d="M1555 1609 L1379 1785 L1415 1785 L1591 1609 Z"/><path class="f4" d="M1555 1609 L1379 1785 L1415 1785 L1591 1609 Z" /></g><g class="o"><path transform="translate(8,16)" class="S sfv" d="M1627 1106 L1471 1262 L1471 1286 L1627 1130 Z"/><path class="fv5" d="M1627 1106 L1471 1262 L1471 1286 L1627 1130 Z" /></g><g class="o"><path transform="translate(5,10)" class="S sfv" d="M1148 1665 L1061 1752 L1061 1784 L1148 1697 Z"/><path class="fv5" d="M1148 1665 L1061 1752 L1061 1784 L1148 1697 Z" /></g><g class="o"><path transform="translate(5,10)" class="S sf" d="M1199 1308 L1281 1390 L1281 1424 L1199 1342 Z"/><path class="f3" d="M1199 1308 L1281 1390 L1281 1424 L1199 1342 Z" /></g><g class="o"><path transform="translate(3,6)" class="S sfh" d="M1312 1783 L1211 1884 L1235 1884 L1336 1783 Z"/><path class="fh3" d="M1312 1783 L1211 1884 L1235 1884 L1336 1783 Z" /></g><g class="o"><path transform="translate(2,4)" class="S ss" d="M1302 1432 L1473 1603 L1473 1629 L1302 1458 Z"/><path class="s6" d="M1302 1432 L1473 1603 L1473 1629 L1302 1458 Z" /></g><g class="o"><path transform="translate(6,12)" class="S sf" d="M1420 1546 L1553 1679 L1553 1695 L1420 1562 Z"/><path class="f5" d="M1420 1546 L1553 1679 L1553 1695 L1420 1562 Z" /></g><g class="o"><path transform="translate(8,16)" class="S sfh" d="M1289 1154 L1640 1505 L1676 1505 L1325 1154 Z"/><path class="fh6" d="M1289 1154 L1640 1505 L1676 1505 L1325 1154 Z" /></g><g class="o"><path transform="translate(7,14)" class="S sfv" d="M1953 1227 L2078 1352 L2078 1390 L1953 1265 Z"/><path class="fv2" d="M1953 1227 L2078 1352 L2078 1390 L1953 1265 Z" /></g><g class="o"><path transform="translate(4,8)" class="S sfh" d="M1011 1553 L890 1674 L1018 1674 L1139 1553 Z"/><path class="fh1" d="M1011 1553 L890 1674 L1018 1674 L1139 1553 Z" /></g><g class="o"><path transform="translate(5,10)" class="S sfv" d="M1063 1605 L1226 1768 L1226 1800 L1063 1637 Z"/><path class="fv1" d="M1063 1605 L1226 1768 L1226 1800 L1063 1637 Z" /></g><g class="o"><path transform="translate(8,16)" class="S sfv" d="M1485 1640 L1632 1787 L1632 1823 L1485 1676 Z"/><path class="fv6" d="M1485 1640 L1632 1787 L1632 1823 L1485 1676 Z" /></g><g class="o"><path transform="translate(8,16)" class="S sfh" d="M1179 1230 L1051 1358 L1077 1358 L1205 1230 Z"/><path class="fh2" d="M1179 1230 L1051 1358 L1077 1358 L1205 1230 Z" /></g><g class="o"><path transform="translate(8,16)" class="S sfh" d="M1471 1763 L1546 1838 L1576 1838 L1501 1763 Z"/><path class="fh2" d="M1471 1763 L1546 1838 L1576 1838 L1501 1763 Z" /></g><g class="o"><path transform="translate(8,16)" class="S sfv" d="M1749 1404 L1930 1585 L1930 1615 L1749 1434 Z"/><path class="fv2" d="M1749 1404 L1930 1585 L1930 1615 L1749 1434 Z" /></g><g class="o"><path transform="translate(4,8)" class="S sfv" d="M1145 1473 L1769 2097 L1769 2113 L1145 1489 Z"/><path class="fv3" d="M1145 1473 L1769 2097 L1769 2113 L1145 1489 Z" /></g><g class="o"><path transform="translate(5,10)" class="S sf" d="M966 1971 L1206 2211 L1216 2211 L976 1971 Z"/><path class="f5" d="M966 1971 L1206 2211 L1216 2211 L976 1971 Z" /></g><g class="o"><path transform="translate(2,4)" class="S ss" d="M2000 1690 L1803 1887 L1867 1887 L2064 1690 Z"/><path class="s4" d="M2000 1690 L1803 1887 L1867 1887 L2064 1690 Z" /></g><g class="o"><path transform="translate(8,16)" class="S sfh" d="M1335 1843 L1173 2005 L1213 2005 L1375 1843 Z"/><path class="fh1" d="M1335 1843 L1173 2005 L1213 2005 L1375 1843 Z" /></g><g class="o"><path transform="translate(9,18)" class="S ssh" d="M1929 1250 L2142 1463 L2150 1463 L1937 1250 Z"/><path class="sh1" d="M1929 1250 L2142 1463 L2150 1463 L1937 1250 Z" /></g><g class="o"><path transform="translate(7,14)" class="S ssh" d="M1021 2043 L1091 2113 L1111 2113 L1041 2043 Z"/><path class="sh1" d="M1021 2043 L1091 2113 L1111 2113 L1041 2043 Z" /></g><g class="o"><path transform="translate(9,18)" class="S ssv" d="M1270 1021 L1449 1200 L1449 1230 L1270 1051 Z"/><path class="sv6" d="M1270 1021 L1449 1200 L1449 1230 L1270 1051 Z" /></g><g class="o"><path transform="translate(7,14)" class="S sfh" d="M1763 2026 L1973 2236 L2085 2236 L1875 2026 Z"/><path class="fh7" d="M1763 2026 L1973 2236 L2085 2236 L1875 2026 Z" /></g><g class="o"><path transform="translate(5,10)" class="S sfh" d="M990 1129 L1464 1603 L1500 1603 L1026 1129 Z"/><path class="fh1" d="M990 1129 L1464 1603 L1500 1603 L1026 1129 Z" /></g><g class="o"><path transform="translate(2,4)" class="S ss" d="M1495 1199 L1566 1270 L1600 1270 L1529 1199 Z"/><path class="s4" d="M1495 1199 L1566 1270 L1600 1270 L1529 1199 Z" /></g></g><use href="#slashes" transform-origin="1500 1500" transform="rotate(180) scale(2)"/></g><rect x="1080" y="1080" width="840" height="840" stroke-width="20" class="o ss" /><use href="#slashes" transform-origin="1500 1500" transform="scale(.6)"/><use href="#slashes" transform-origin="1500 1500" transform="rotate(180) scale(.6)"/></svg>