<svg xmlns="http://www.w3.org/2000/svg" viewBox="750 750 1500 1500"><style>/*<![CDATA[*/svg{background:rgb(151,21,31);max-width:100vw;max-height:100vh}path{stroke-width:4}.o{opacity:.75}.S{opacity:.4}.sf{stroke:none;fill:black}.sfh{stroke:none;fill:url(#hs)}.sfv{stroke:none;fill:url(#vs)}.ss{stroke:black;fill:none}.ssh{stroke:url(#hs);fill:none}.ssv{stroke:url(#vs);fill:none}.s1{fill:none;stroke:rgb(33,34,32)}.f1{stroke:none;fill:rgb(33,34,32)}.sh1{fill:none;stroke:url(#h1)}.fh1{stroke:none;fill:url(#h1)}.sv1{fill:none;stroke:url(#v1)}.fv1{stroke:none;fill:url(#v1)}.s2{fill:none;stroke:rgb(223,229,229)}.f2{stroke:none;fill:rgb(223,229,229)}.sh2{fill:none;stroke:url(#h2)}.fh2{stroke:none;fill:url(#h2)}.sv2{fill:none;stroke:url(#v2)}.fv2{stroke:none;fill:url(#v2)}.s3{fill:none;stroke:rgb(34,34,34)}.f3{stroke:none;fill:rgb(34,34,34)}.sh3{fill:none;stroke:url(#h3)}.fh3{stroke:none;fill:url(#h3)}.sv3{fill:none;stroke:url(#v3)}.fv3{stroke:none;fill:url(#v3)}.s4{fill:none;stroke:rgb(1,59,68)}.f4{stroke:none;fill:rgb(1,59,68)}.sh4{fill:none;stroke:url(#h4)}.fh4{stroke:none;fill:url(#h4)}.sv4{fill:none;stroke:url(#v4)}.fv4{stroke:none;fill:url(#v4)}.s5{fill:none;stroke:rgb(23,108,106)}.f5{stroke:none;fill:rgb(23,108,106)}.sh5{fill:none;stroke:url(#h5)}.fh5{stroke:none;fill:url(#h5)}.sv5{fill:none;stroke:url(#v5)}.fv5{stroke:none;fill:url(#v5)}.s6{fill:none;stroke:rgb(255,255,255)}.f6{stroke:none;fill:rgb(255,255,255)}.sh6{fill:none;stroke:url(#h6)}.fh6{stroke:none;fill:url(#h6)}.sv6{fill:none;stroke:url(#v6)}.fv6{stroke:none;fill:url(#v6)}.s7{fill:none;stroke:rgb(255,255,0)}.f7{stroke:none;fill:rgb(255,255,0)}.sh7{fill:none;stroke:url(#h7)}.fh7{stroke:none;fill:url(#h7)}.sv7{fill:none;stroke:url(#v7)}.fv7{stroke:none;fill:url(#v7)}/*]]>*/</style><defs><linearGradient gradientTransform="rotate(90)" id="hs"><stop offset="20%" stop-color="#000" /><stop offset="95%" stop-color="rgba(0, 0, 0, 0)" /></linearGradient><linearGradient id="vs"><stop offset="20%" stop-color="#000" /><stop offset="95%" stop-color="rgba(0, 0, 0, 0)" /></linearGradient><linearGradient gradientTransform="rotate(90)" id="h1"><stop offset="20%" stop-color="rgba(33,34,32,1)" /><stop offset="95%" stop-color="rgba(33,34,32,0)" /></linearGradient><linearGradient id="v1"><stop offset="20%" stop-color="rgba(33,34,32,1)" /><stop offset="95%" stop-color="rgba(33,34,32,0)" /></linearGradient><linearGradient gradientTransform="rotate(90)" id="h2"><stop offset="20%" stop-color="rgba(223,229,229,1)" /><stop offset="95%" stop-color="rgba(223,229,229,0)" /></linearGradient><linearGradient id="v2"><stop offset="20%" stop-color="rgba(223,229,229,1)" /><stop offset="95%" stop-color="rgba(223,229,229,0)" /></linearGradient><linearGradient gradientTransform="rotate(90)" id="h3"><stop offset="20%" stop-color="rgba(34,34,34,1)" /><stop offset="95%" stop-color="rgba(34,34,34,0)" /></linearGradient><linearGradient id="v3"><stop offset="20%" stop-color="rgba(34,34,34,1)" /><stop offset="95%" stop-color="rgba(34,34,34,0)" /></linearGradient><linearGradient gradientTransform="rotate(90)" id="h4"><stop offset="20%" stop-color="rgba(1,59,68,1)" /><stop offset="95%" stop-color="rgba(1,59,68,0)" /></linearGradient><linearGradient id="v4"><stop offset="20%" stop-color="rgba(1,59,68,1)" /><stop offset="95%" stop-color="rgba(1,59,68,0)" /></linearGradient><linearGradient gradientTransform="rotate(90)" id="h5"><stop offset="20%" stop-color="rgba(23,108,106,1)" /><stop offset="95%" stop-color="rgba(23,108,106,0)" /></linearGradient><linearGradient id="v5"><stop offset="20%" stop-color="rgba(23,108,106,1)" /><stop offset="95%" stop-color="rgba(23,108,106,0)" /></linearGradient><linearGradient gradientTransform="rotate(90)" id="h6"><stop offset="20%" stop-color="rgba(255,255,255,1)" /><stop offset="95%" stop-color="rgba(255,255,255,0)" /></linearGradient><linearGradient id="v6"><stop offset="20%" stop-color="rgba(255,255,255,1)" /><stop offset="95%" stop-color="rgba(255,255,255,0)" /></linearGradient><linearGradient gradientTransform="rotate(90)" id="h7"><stop offset="20%" stop-color="rgba(255,255,0,1)" /><stop offset="95%" stop-color="rgba(255,255,0,0)" /></linearGradient><linearGradient id="v7"><stop offset="20%" stop-color="rgba(255,255,0,1)" /><stop offset="95%" stop-color="rgba(255,255,0,0)" /></linearGradient></defs><g transform-origin="1500 1500" transform="scale(2)" opacity=".8"><g id="slashes"><g class="o"><path transform="translate(8,16)" class="S sf" d="M1742 1864 L1852 1754 L1868 1754 L1758 1864 Z"/><path class="f4" d="M1742 1864 L1852 1754 L1868 1754 L1758 1864 Z" /></g><g class="o"><path transform="translate(3,6)" class="S sf" d="M1883 1930 L2118 1695 L2118 1719 L1883 1954 Z"/><path class="f1" d="M1883 1930 L2118 1695 L2118 1719 L1883 1954 Z" /></g><g class="o"><path transform="translate(3,6)" class="S ss" d="M1672 1681 L1617 1626 L1617 1754 L1672 1809 Z"/><path class="s3" d="M1672 1681 L1617 1626 L1617 1754 L1672 1809 Z" /></g><g class="o"><path transform="translate(4,8)" class="S sf" d="M1175 1911 L1280 1806 L1280 1818 L1175 1923 Z"/><path class="f7" d="M1175 1911 L1280 1806 L1280 1818 L1175 1923 Z" /></g><g class="o"><path transform="translate(5,10)" class="S sf" d="M1007 1712 L820 1525 L820 1553 L1007 1740 Z"/><path class="f6" d="M1007 1712 L820 1525 L820 1553 L1007 1740 Z" /></g><g class="o"><path transform="translate(7,14)" class="S sf" d="M1043 1740 L1287 1496 L1299 1496 L1055 1740 Z"/><path class="f1" d="M1043 1740 L1287 1496 L1299 1496 L1055 1740 Z" /></g><g class="o"><path transform="translate(3,6)" class="S sf" d="M1939 1901 L2014 1826 L2052 1826 L1977 1901 Z"/><path class="f4" d="M1939 1901 L2014 1826 L2052 1826 L1977 1901 Z" /></g><g class="o"><path transform="translate(9,18)" class="S ss" d="M1874 2029 L2106 1797 L2194 1797 L1962 2029 Z"/><path class="s7" d="M1874 2029 L2106 1797 L2194 1797 L1962 2029 Z" /></g><g class="o"><path transform="translate(3,6)" class="S sf" d="M1350 1784 L1255 1689 L1255 1713 L1350 1808 Z"/><path class="f6" d="M1350 1784 L1255 1689 L1255 1713 L1350 1808 Z" /></g><g class="o"><path transform="translate(5,10)" class="S sf" d="M956 1226 L1010 1172 L1010 1202 L956 1256 Z"/><path class="f1" d="M956 1226 L1010 1172 L1010 1202 L956 1256 Z" /></g><g class="o"><path transform="translate(2,4)" class="S sf" d="M1584 1241 L1380 1037 L1402 1037 L1606 1241 Z"/><path class="f2" d="M1584 1241 L1380 1037 L1402 1037 L1606 1241 Z" /></g><g class="o"><path transform="translate(4,8)" class="S sf" d="M1275 1179 L1326 1128 L1326 1162 L1275 1213 Z"/><path class="f3" d="M1275 1179 L1326 1128 L1326 1162 L1275 1213 Z" /></g><g class="o"><path transform="translate(8,16)" class="S sf" d="M1206 1008 L1329 885 L1349 885 L1226 1008 Z"/><path class="f3" d="M1206 1008 L1329 885 L1349 885 L1226 1008 Z" /></g><g class="o"><path transform="translate(3,6)" class="S sf" d="M1936 1331 L1989 1278 L2021 1278 L1968 1331 Z"/><path class="f2" d="M1936 1331 L1989 1278 L2021 1278 L1968 1331 Z" /></g><g class="o"><path transform="translate(6,12)" class="S sf" d="M1536 1276 L1460 1200 L1492 1200 L1568 1276 Z"/><path class="f3" d="M1536 1276 L1460 1200 L1492 1200 L1568 1276 Z" /></g><g class="o"><path transform="translate(8,16)" class="S sf" d="M1439 1689 L1576 1552 L1576 1584 L1439 1721 Z"/><path class="f6" d="M1439 1689 L1576 1552 L1576 1584 L1439 1721 Z" /></g><g class="o"><path transform="translate(6,12)" class="S sf" d="M1846 1810 L2039 1617 L2039 1637 L1846 1830 Z"/><path class="f4" d="M1846 1810 L2039 1617 L2039 1637 L1846 1830 Z" /></g><g class="o"><path transform="translate(6,12)" class="S sf" d="M1584 1208 L1508 1132 L1644 1132 L1720 1208 Z"/><path class="f5" d="M1584 1208 L1508 1132 L1644 1132 L1720 1208 Z" /></g><g class="o"><path transform="translate(6,12)" class="S sf" d="M1916 1882 L2111 1687 L2149 1687 L1954 1882 Z"/><path class="f7" d="M1916 1882 L2111 1687 L2149 1687 L1954 1882 Z" /></g><g class="o"><path transform="translate(6,12)" class="S sf" d="M1014 1755 L1194 1575 L1194 1607 L1014 1787 Z"/><path class="f5" d="M1014 1755 L1194 1575 L1194 1607 L1014 1787 Z" /></g><g class="o"><path transform="translate(3,6)" class="S sf" d="M1901 1380 L1994 1287 L1994 1309 L1901 1402 Z"/><path class="f1" d="M1901 1380 L1994 1287 L1994 1309 L1901 1402 Z" /></g><g class="o"><path transform="translate(3,6)" class="S sf" d="M1811 1332 L1880 1263 L1880 1391 L1811 1460 Z"/><path class="f5" d="M1811 1332 L1880 1263 L1880 1391 L1811 1460 Z" /></g><g class="o"><path transform="translate(7,14)" class="S sf" d="M965 1441 L904 1380 L904 1390 L965 1451 Z"/><path class="f2" d="M965 1441 L904 1380 L904 1390 L965 1451 Z" /></g><g class="o"><path transform="translate(8,16)" class="S sf" d="M1738 1345 L1917 1166 L1941 1166 L1762 1345 Z"/><path class="f5" d="M1738 1345 L1917 1166 L1941 1166 L1762 1345 Z" /></g><g class="o"><path transform="translate(6,12)" class="S sf" d="M1615 1793 L1668 1740 L1668 1844 L1615 1897 Z"/><path class="f3" d="M1615 1793 L1668 1740 L1668 1844 L1615 1897 Z" /></g><g class="o"><path transform="translate(2,4)" class="S sf" d="M1474 1201 L1548 1127 L1582 1127 L1508 1201 Z"/><path class="f4" d="M1474 1201 L1548 1127 L1582 1127 L1508 1201 Z" /></g><g class="o"><path transform="translate(3,6)" class="S sf" d="M1822 1976 L1953 1845 L1953 1965 L1822 2096 Z"/><path class="f4" d="M1822 1976 L1953 1845 L1953 1965 L1822 2096 Z" /></g><g class="o"><path transform="translate(8,16)" class="S sf" d="M1351 1035 L1427 959 L1427 1047 L1351 1123 Z"/><path class="f4" d="M1351 1035 L1427 959 L1427 1047 L1351 1123 Z" /></g><g class="o"><path transform="translate(3,6)" class="S sf" d="M1066 1320 L1251 1135 L1273 1135 L1088 1320 Z"/><path class="f6" d="M1066 1320 L1251 1135 L1273 1135 L1088 1320 Z" /></g><g class="o"><path transform="translate(8,16)" class="S sf" d="M1382 1990 L1326 1934 L1326 1952 L1382 2008 Z"/><path class="f1" d="M1382 1990 L1326 1934 L1326 1952 L1382 2008 Z" /></g><g class="o"><path transform="translate(8,16)" class="S ss" d="M1827 1029 L1700 902 L1700 920 L1827 1047 Z"/><path class="s2" d="M1827 1029 L1700 902 L1700 920 L1827 1047 Z" /></g><g class="o"><path transform="translate(7,14)" class="S sf" d="M1086 1909 L1188 1807 L1188 1835 L1086 1937 Z"/><path class="f6" d="M1086 1909 L1188 1807 L1188 1835 L1086 1937 Z" /></g><g class="o"><path transform="translate(4,8)" class="S sf" d="M1379 1916 L1500 1795 L1514 1795 L1393 1916 Z"/><path class="f2" d="M1379 1916 L1500 1795 L1514 1795 L1393 1916 Z" /></g><g class="o"><path transform="translate(3,6)" class="S sf" d="M1901 1779 L1698 1576 L1810 1576 L2013 1779 Z"/><path class="f3" d="M1901 1779 L1698 1576 L1810 1576 L2013 1779 Z" /></g><g class="o"><path transform="translate(5,10)" class="S sf" d="M1367 988 L1466 889 L1466 925 L1367 1024 Z"/><path class="f6" d="M1367 988 L1466 889 L1466 925 L1367 1024 Z" /></g><g class="o"><path transform="translate(2,4)" class="S ss" d="M1407 1662 L1516 1553 L1530 1553 L1421 1662 Z"/><path class="s5" d="M1407 1662 L1516 1553 L1530 1553 L1421 1662 Z" /></g><g class="o"><path transform="translate(4,8)" class="S sf" d="M1256 1374 L1375 1255 L1375 1367 L1256 1486 Z"/><path class="f5" d="M1256 1374 L1375 1255 L1375 1367 L1256 1486 Z" /></g><g class="o"><path transform="translate(9,18)" class="S sf" d="M981 1436 L819 1274 L955 1274 L1117 1436 Z"/><path class="f4" d="M981 1436 L819 1274 L955 1274 L1117 1436 Z" /></g><g class="o"><path transform="translate(5,10)" class="S sf" d="M1396 1861 L1498 1759 L1498 1911 L1396 2013 Z"/><path class="f2" d="M1396 1861 L1498 1759 L1498 1911 L1396 2013 Z" /></g><g class="o"><path transform="translate(6,12)" class="S ss" d="M1439 1223 L1627 1035 L1627 1061 L1439 1249 Z"/><path class="s5" d="M1439 1223 L1627 1035 L1627 1061 L1439 1249 Z" /></g><g class="o"><path transform="translate(6,12)" class="S sf" d="M955 1337 L1034 1258 L1034 1288 L955 1367 Z"/><path class="f3" d="M955 1337 L1034 1258 L1034 1288 L955 1367 Z" /></g><g class="o"><path transform="translate(8,16)" class="S sf" d="M1714 1919 L1915 1718 L1951 1718 L1750 1919 Z"/><path class="f6" d="M1714 1919 L1915 1718 L1951 1718 L1750 1919 Z" /></g><g class="o"><path transform="translate(5,10)" class="S sf" d="M1338 1484 L1463 1359 L1575 1359 L1450 1484 Z"/><path class="f6" d="M1338 1484 L1463 1359 L1575 1359 L1450 1484 Z" /></g><g class="o"><path transform="translate(3,6)" class="S sf" d="M1769 1428 L1666 1325 L1762 1325 L1865 1428 Z"/><path class="f2" d="M1769 1428 L1666 1325 L1762 1325 L1865 1428 Z" /></g><g class="o"><path transform="translate(2,4)" class="S sf" d="M1799 1018 L1918 899 L1918 1035 L1799 1154 Z"/><path class="f2" d="M1799 1018 L1918 899 L1918 1035 L1799 1154 Z" /></g><g class="o"><path transform="translate(5,10)" class="S sf" d="M1149 1714 L1297 1566 L1297 1670 L1149 1818 Z"/><path class="f1" d="M1149 1714 L1297 1566 L1297 1670 L1149 1818 Z" /></g><g class="o"><path transform="translate(5,10)" class="S ss" d="M1032 1891 L1263 1660 L1263 1674 L1032 1905 Z"/><path class="s1" d="M1032 1891 L1263 1660 L1263 1674 L1032 1905 Z" /></g><g class="o"><path transform="translate(9,18)" class="S ss" d="M1191 1752 L1082 1643 L1082 1795 L1191 1904 Z"/><path class="s1" d="M1191 1752 L1082 1643 L1082 1795 L1191 1904 Z" /></g><g class="o"><path transform="translate(4,8)" class="S sf" d="M2043 1404 L1799 1160 L1799 1176 L2043 1420 Z"/><path class="f1" d="M2043 1404 L1799 1160 L1799 1176 L2043 1420 Z" /></g><g class="o"><path transform="translate(6,12)" class="S ss" d="M1489 1977 L1242 1730 L1242 1794 L1489 2041 Z"/><path class="s2" d="M1489 1977 L1242 1730 L1242 1794 L1489 2041 Z" /></g><g class="o"><path transform="translate(7,14)" class="S ss" d="M1718 1279 L1904 1093 L1932 1093 L1746 1279 Z"/><path class="s5" d="M1718 1279 L1904 1093 L1932 1093 L1746 1279 Z" /></g><g class="o"><path transform="translate(3,6)" class="S sf" d="M1969 1593 L2077 1485 L2077 1533 L1969 1641 Z"/><path class="f3" d="M1969 1593 L2077 1485 L2077 1533 L1969 1641 Z" /></g><g class="o"><path transform="translate(4,8)" class="S ss" d="M1531 1768 L1630 1669 L1630 1725 L1531 1824 Z"/><path class="s1" d="M1531 1768 L1630 1669 L1630 1725 L1531 1824 Z" /></g><g class="o"><path transform="translate(3,6)" class="S ss" d="M1800 1441 L1637 1278 L1637 1304 L1800 1467 Z"/><path class="s3" d="M1800 1441 L1637 1278 L1637 1304 L1800 1467 Z" /></g><g class="o"><path transform="translate(6,12)" class="S sf" d="M1474 1240 L1302 1068 L1398 1068 L1570 1240 Z"/><path class="f6" d="M1474 1240 L1302 1068 L1398 1068 L1570 1240 Z" /></g><g class="o"><path transform="translate(2,4)" class="S sf" d="M1543 1214 L1435 1106 L1571 1106 L1679 1214 Z"/><path class="f6" d="M1543 1214 L1435 1106 L1571 1106 L1679 1214 Z" /></g><g class="o"><path transform="translate(7,14)" class="S sf" d="M1838 987 L2059 766 L2059 796 L1838 1017 Z"/><path class="f6" d="M1838 987 L2059 766 L2059 796 L1838 1017 Z" /></g><g class="o"><path transform="translate(8,16)" class="S sf" d="M1557 1045 L1693 909 L1821 909 L1685 1045 Z"/><path class="f5" d="M1557 1045 L1693 909 L1821 909 L1685 1045 Z" /></g><g class="o"><path transform="translate(7,14)" class="S sf" d="M1358 1135 L1572 921 L1572 977 L1358 1191 Z"/><path class="f2" d="M1358 1135 L1572 921 L1572 977 L1358 1191 Z" /></g><g class="o"><path transform="translate(6,12)" class="S sf" d="M2008 1155 L1830 977 L1830 1011 L2008 1189 Z"/><path class="f2" d="M2008 1155 L1830 977 L1830 1011 L2008 1189 Z" /></g><g class="o"><path transform="translate(4,8)" class="S sf" d="M1154 1977 L1369 1762 L1513 1762 L1298 1977 Z"/><path class="f7" d="M1154 1977 L1369 1762 L1513 1762 L1298 1977 Z" /></g><g class="o"><path transform="translate(3,6)" class="S sf" d="M1519 1314 L1732 1101 L1732 1157 L1519 1370 Z"/><path class="f3" d="M1519 1314 L1732 1101 L1732 1157 L1519 1370 Z" /></g><g class="o"><path transform="translate(4,8)" class="S sf" d="M1506 1420 L1608 1318 L1648 1318 L1546 1420 Z"/><path class="f3" d="M1506 1420 L1608 1318 L1648 1318 L1546 1420 Z" /></g><g class="o"><path transform="translate(3,6)" class="S ss" d="M1290 1721 L1412 1599 L1412 1621 L1290 1743 Z"/><path class="s7" d="M1290 1721 L1412 1599 L1412 1621 L1290 1743 Z" /></g><g class="o"><path transform="translate(4,8)" class="S sf" d="M1484 1099 L1340 955 L1340 967 L1484 1111 Z"/><path class="f7" d="M1484 1099 L1340 955 L1340 967 L1484 1111 Z" /></g><g class="o"><path transform="translate(2,4)" class="S sf" d="M1871 1681 L1787 1597 L1787 1625 L1871 1709 Z"/><path class="f2" d="M1871 1681 L1787 1597 L1787 1625 L1871 1709 Z" /></g><g class="o"><path transform="translate(5,10)" class="S sf" d="M1723 1180 L1637 1094 L1673 1094 L1759 1180 Z"/><path class="f5" d="M1723 1180 L1637 1094 L1673 1094 L1759 1180 Z" /></g><g class="o"><path transform="translate(3,6)" class="S sf" d="M1393 1864 L1152 1623 L1152 1649 L1393 1890 Z"/><path class="f5" d="M1393 1864 L1152 1623 L1152 1649 L1393 1890 Z" /></g><g class="o"><path transform="translate(4,8)" class="S sf" d="M1692 1445 L1450 1203 L1450 1243 L1692 1485 Z"/><path class="f6" d="M1692 1445 L1450 1203 L1450 1243 L1692 1485 Z" /></g><g class="o"><path transform="translate(8,16)" class="S ss" d="M1276 1672 L1506 1442 L1506 1514 L1276 1744 Z"/><path class="s1" d="M1276 1672 L1506 1442 L1506 1514 L1276 1744 Z" /></g><g class="o"><path transform="translate(3,6)" class="S sf" d="M1392 1971 L1627 1736 L1627 1772 L1392 2007 Z"/><path class="f1" d="M1392 1971 L1627 1736 L1627 1772 L1392 2007 Z" /></g><g class="o"><path transform="translate(7,14)" class="S ss" d="M1277 1941 L1401 1817 L1401 1889 L1277 2013 Z"/><path class="s1" d="M1277 1941 L1401 1817 L1401 1889 L1277 2013 Z" /></g><g class="o"><path transform="translate(9,18)" class="S sf" d="M1811 1697 L2056 1452 L2066 1452 L1821 1697 Z"/><path class="f2" d="M1811 1697 L2056 1452 L2066 1452 L1821 1697 Z" /></g><g class="o"><path transform="translate(2,4)" class="S sf" d="M1803 1632 L1967 1468 L2079 1468 L1915 1632 Z"/><path class="f4" d="M1803 1632 L1967 1468 L2079 1468 L1915 1632 Z" /></g><g class="o"><path transform="translate(6,12)" class="S sf" d="M2041 1301 L2154 1188 L2164 1188 L2051 1301 Z"/><path class="f5" d="M2041 1301 L2154 1188 L2164 1188 L2051 1301 Z" /></g><g class="o"><path transform="translate(5,10)" class="S sf" d="M1797 1863 L1903 1757 L1903 1769 L1797 1875 Z"/><path class="f1" d="M1797 1863 L1903 1757 L1903 1769 L1797 1875 Z" /></g><g class="o"><path transform="translate(3,6)" class="S sf" d="M951 1546 L1177 1320 L1177 1464 L951 1690 Z"/><path class="f2" d="M951 1546 L1177 1320 L1177 1464 L951 1690 Z" /></g><g class="o"><path transform="translate(2,4)" class="S sf" d="M1460 1520 L1668 1312 L1696 1312 L1488 1520 Z"/><path class="f4" d="M1460 1520 L1668 1312 L1696 1312 L1488 1520 Z" /></g><g class="o"><path transform="translate(8,16)" class="S sf" d="M1303 950 L1451 802 L1451 820 L1303 968 Z"/><path class="f4" d="M1303 950 L1451 802 L1451 820 L1303 968 Z" /></g><g class="o"><path transform="translate(5,10)" class="S sf" d="M1575 1623 L1703 1495 L1703 1607 L1575 1735 Z"/><path class="f5" d="M1575 1623 L1703 1495 L1703 1607 L1575 1735 Z" /></g><g class="o"><path transform="translate(4,8)" class="S ss" d="M1706 1514 L1804 1416 L1814 1416 L1716 1514 Z"/><path class="s1" d="M1706 1514 L1804 1416 L1814 1416 L1716 1514 Z" /></g><g class="o"><path transform="translate(7,14)" class="S sf" d="M1214 1540 L1129 1455 L1149 1455 L1234 1540 Z"/><path class="f6" d="M1214 1540 L1129 1455 L1149 1455 L1234 1540 Z" /></g><g class="o"><path transform="translate(9,18)" class="S sf" d="M1611 1212 L1685 1138 L1685 1202 L1611 1276 Z"/><path class="f7" d="M1611 1212 L1685 1138 L1685 1202 L1611 1276 Z" /></g><g class="o"><path transform="translate(9,18)" class="S sf" d="M1664 1314 L1554 1204 L1554 1234 L1664 1344 Z"/><path class="f4" d="M1664 1314 L1554 1204 L1554 1234 L1664 1344 Z" /></g><g class="o"><path transform="translate(2,4)" class="S sf" d="M1065 1947 L1273 1739 L1273 1843 L1065 2051 Z"/><path class="f2" d="M1065 1947 L1273 1739 L1273 1843 L1065 2051 Z" /></g><g class="o"><path transform="translate(3,6)" class="S sf" d="M1600 1954 L1736 1818 L1736 1844 L1600 1980 Z"/><path class="f3" d="M1600 1954 L1736 1818 L1736 1844 L1600 1980 Z" /></g><g class="o"><path transform="translate(3,6)" class="S sf" d="M1615 1970 L1683 1902 L1683 1950 L1615 2018 Z"/><path class="f4" d="M1615 1970 L1683 1902 L1683 1950 L1615 2018 Z" /></g><g class="o"><path transform="translate(3,6)" class="S sf" d="M1675 1342 L1832 1185 L1842 1185 L1685 1342 Z"/><path class="f7" d="M1675 1342 L1832 1185 L1842 1185 L1685 1342 Z" /></g><g class="o"><path transform="translate(7,14)" class="S sf" d="M1732 1691 L1520 1479 L1648 1479 L1860 1691 Z"/><path class="f6" d="M1732 1691 L1520 1479 L1648 1479 L1860 1691 Z" /></g><g class="o"><path transform="translate(4,8)" class="S sf" d="M1254 1200 L1379 1075 L1379 1099 L1254 1224 Z"/><path class="f5" d="M1254 1200 L1379 1075 L1379 1099 L1254 1224 Z" /></g><g class="o"><path transform="translate(2,4)" class="S sf" d="M1676 1794 L1561 1679 L1657 1679 L1772 1794 Z"/><path class="f2" d="M1676 1794 L1561 1679 L1657 1679 L1772 1794 Z" /></g><g class="o"><path transform="translate(2,4)" class="S ss" d="M1955 1507 L2153 1309 L2153 1381 L1955 1579 Z"/><path class="s1" d="M1955 1507 L2153 1309 L2153 1381 L1955 1579 Z" /></g><g class="o"><path transform="translate(2,4)" class="S sf" d="M1346 2006 L1406 1946 L1446 1946 L1386 2006 Z"/><path class="f2" d="M1346 2006 L1406 1946 L1446 1946 L1386 2006 Z" /></g><g class="o"><path transform="translate(7,14)" class="S sf" d="M1501 1611 L1633 1479 L1697 1479 L1565 1611 Z"/><path class="f2" d="M1501 1611 L1633 1479 L1697 1479 L1565 1611 Z" /></g><g class="o"><path transform="translate(9,18)" class="S sf" d="M1771 1547 L2017 1301 L2017 1319 L1771 1565 Z"/><path class="f6" d="M1771 1547 L2017 1301 L2017 1319 L1771 1565 Z" /></g><g class="o"><path transform="translate(7,14)" class="S sf" d="M1976 1637 L2103 1510 L2111 1510 L1984 1637 Z"/><path class="f4" d="M1976 1637 L2103 1510 L2111 1510 L1984 1637 Z" /></g><g class="o"><path transform="translate(5,10)" class="S sf" d="M1183 1988 L1236 1935 L1236 1957 L1183 2010 Z"/><path class="f6" d="M1183 1988 L1236 1935 L1236 1957 L1183 2010 Z" /></g><g class="o"><path transform="translate(4,8)" class="S ss" d="M1723 1100 L1832 991 L1832 1007 L1723 1116 Z"/><path class="s5" d="M1723 1100 L1832 991 L1832 1007 L1723 1116 Z" /></g><g class="o"><path transform="translate(6,12)" class="S sf" d="M1272 1471 L1501 1242 L1501 1386 L1272 1615 Z"/><path class="f1" d="M1272 1471 L1501 1242 L1501 1386 L1272 1615 Z" /></g><g class="o"><path transform="translate(6,12)" class="S sf" d="M1774 1910 L1951 1733 L2047 1733 L1870 1910 Z"/><path class="f6" d="M1774 1910 L1951 1733 L2047 1733 L1870 1910 Z" /></g><g class="o"><path transform="translate(5,10)" class="S sf" d="M1312 1701 L1095 1484 L1199 1484 L1416 1701 Z"/><path class="f4" d="M1312 1701 L1095 1484 L1199 1484 L1416 1701 Z" /></g><g class="o"><path transform="translate(9,18)" class="S sf" d="M1575 1061 L1660 976 L1660 1006 L1575 1091 Z"/><path class="f7" d="M1575 1061 L1660 976 L1660 1006 L1575 1091 Z" /></g><g class="o"><path transform="translate(5,10)" class="S ss" d="M1429 1194 L1648 975 L1648 1095 L1429 1314 Z"/><path class="s5" d="M1429 1194 L1648 975 L1648 1095 L1429 1314 Z" /></g><g class="o"><path transform="translate(8,16)" class="S sf" d="M1520 1343 L1634 1229 L1634 1301 L1520 1415 Z"/><path class="f6" d="M1520 1343 L1634 1229 L1634 1301 L1520 1415 Z" /></g><g class="o"><path transform="translate(5,10)" class="S ss" d="M1288 1523 L1508 1303 L1508 1341 L1288 1561 Z"/><path class="s6" d="M1288 1523 L1508 1303 L1508 1341 L1288 1561 Z" /></g><g class="o"><path transform="translate(6,12)" class="S sf" d="M1045 1624 L1268 1401 L1268 1425 L1045 1648 Z"/><path class="f6" d="M1045 1624 L1268 1401 L1268 1425 L1045 1648 Z" /></g><g class="o"><path transform="translate(4,8)" class="S sf" d="M1481 1685 L1592 1574 L1608 1574 L1497 1685 Z"/><path class="f7" d="M1481 1685 L1592 1574 L1608 1574 L1497 1685 Z" /></g><g class="o"><path transform="translate(3,6)" class="S sf" d="M1083 995 L1330 748 L1330 796 L1083 1043 Z"/><path class="f6" d="M1083 995 L1330 748 L1330 796 L1083 1043 Z" /></g><g class="o"><path transform="translate(5,10)" class="S ss" d="M1328 1765 L1204 1641 L1316 1641 L1440 1765 Z"/><path class="s3" d="M1328 1765 L1204 1641 L1316 1641 L1440 1765 Z" /></g><g class="o"><path transform="translate(8,16)" class="S ss" d="M1623 1354 L1455 1186 L1455 1338 L1623 1506 Z"/><path class="s5" d="M1623 1354 L1455 1186 L1455 1338 L1623 1506 Z" /></g><g class="o"><path transform="translate(5,10)" class="S sf" d="M1655 1593 L1874 1374 L1888 1374 L1669 1593 Z"/><path class="f1" d="M1655 1593 L1874 1374 L1888 1374 L1669 1593 Z" /></g><g class="o"><path transform="translate(9,18)" class="S sf" d="M1753 1556 L1873 1436 L1873 1468 L1753 1588 Z"/><path class="f7" d="M1753 1556 L1873 1436 L1873 1468 L1753 1588 Z" /></g><g class="o"><path transform="translate(8,16)" class="S sf" d="M988 1234 L813 1059 L845 1059 L1020 1234 Z"/><path class="f5" d="M988 1234 L813 1059 L845 1059 L1020 1234 Z" /></g><g class="o"><path transform="translate(7,14)" class="S sf" d="M1514 1084 L1594 1004 L1746 1004 L1666 1084 Z"/><path class="f1" d="M1514 1084 L1594 1004 L1746 1004 L1666 1084 Z" /></g><g class="o"><path transform="translate(2,4)" class="S ss" d="M1279 1547 L1462 1364 L1462 1396 L1279 1579 Z"/><path class="s2" d="M1279 1547 L1462 1364 L1462 1396 L1279 1579 Z" /></g><g class="o"><path transform="translate(2,4)" class="S sf" d="M1416 1217 L1477 1156 L1557 1156 L1496 1217 Z"/><path class="f2" d="M1416 1217 L1477 1156 L1557 1156 L1496 1217 Z" /></g><g class="o"><path transform="translate(5,10)" class="S sf" d="M1597 983 L1467 853 L1467 871 L1597 1001 Z"/><path class="f7" d="M1597 983 L1467 853 L1467 871 L1597 1001 Z" /></g><g class="o"><path transform="translate(5,10)" class="S sf" d="M1612 1504 L1827 1289 L1847 1289 L1632 1504 Z"/><path class="f7" d="M1612 1504 L1827 1289 L1847 1289 L1632 1504 Z" /></g><g class="o"><path transform="translate(6,12)" class="S sf" d="M1798 1593 L1638 1433 L1638 1529 L1798 1689 Z"/><path class="f6" d="M1798 1593 L1638 1433 L1638 1529 L1798 1689 Z" /></g><g class="o"><path transform="translate(5,10)" class="S ss" d="M1267 1274 L1490 1051 L1512 1051 L1289 1274 Z"/><path class="s7" d="M1267 1274 L1490 1051 L1512 1051 L1289 1274 Z" /></g><g class="o"><path transform="translate(2,4)" class="S ss" d="M1494 1669 L1620 1543 L1658 1543 L1532 1669 Z"/><path class="s5" d="M1494 1669 L1620 1543 L1658 1543 L1532 1669 Z" /></g><g class="o"><path transform="translate(7,14)" class="S sf" d="M2049 1063 L2180 932 L2180 950 L2049 1081 Z"/><path class="f6" d="M2049 1063 L2180 932 L2180 950 L2049 1081 Z" /></g><g class="o"><path transform="translate(5,10)" class="S sf" d="M1994 1482 L2056 1420 L2128 1420 L2066 1482 Z"/><path class="f7" d="M1994 1482 L2056 1420 L2128 1420 L2066 1482 Z" /></g><g class="o"><path transform="translate(9,18)" class="S sf" d="M1688 1147 L1764 1071 L1876 1071 L1800 1147 Z"/><path class="f6" d="M1688 1147 L1764 1071 L1876 1071 L1800 1147 Z" /></g><g class="o"><path transform="translate(3,6)" class="S sf" d="M934 1144 L1038 1040 L1094 1040 L990 1144 Z"/><path class="f6" d="M934 1144 L1038 1040 L1094 1040 L990 1144 Z" /></g><g class="o"><path transform="translate(3,6)" class="S sf" d="M1633 1605 L1727 1511 L1727 1663 L1633 1757 Z"/><path class="f2" d="M1633 1605 L1727 1511 L1727 1663 L1633 1757 Z" /></g><g class="o"><path transform="translate(5,10)" class="S sf" d="M956 1690 L1062 1584 L1174 1584 L1068 1690 Z"/><path class="f4" d="M956 1690 L1062 1584 L1174 1584 L1068 1690 Z" /></g><g class="o"><path transform="translate(7,14)" class="S ss" d="M1210 1351 L1282 1279 L1318 1279 L1246 1351 Z"/><path class="s3" d="M1210 1351 L1282 1279 L1318 1279 L1246 1351 Z" /></g><g class="o"><path transform="translate(3,6)" class="S sf" d="M1030 1621 L1130 1521 L1170 1521 L1070 1621 Z"/><path class="f1" d="M1030 1621 L1130 1521 L1170 1521 L1070 1621 Z" /></g><g class="o"><path transform="translate(3,6)" class="S ss" d="M1597 1187 L1700 1084 L1820 1084 L1717 1187 Z"/><path class="s5" d="M1597 1187 L1700 1084 L1820 1084 L1717 1187 Z" /></g><g class="o"><path transform="translate(8,16)" class="S sf" d="M2011 1557 L2086 1482 L2126 1482 L2051 1557 Z"/><path class="f6" d="M2011 1557 L2086 1482 L2126 1482 L2051 1557 Z" /></g><g class="o"><path transform="translate(7,14)" class="S sf" d="M1615 1220 L1784 1051 L1784 1179 L1615 1348 Z"/><path class="f2" d="M1615 1220 L1784 1051 L1784 1179 L1615 1348 Z" /></g><g class="o"><path transform="translate(6,12)" class="S sf" d="M1811 1884 L1715 1788 L1745 1788 L1841 1884 Z"/><path class="f7" d="M1811 1884 L1715 1788 L1745 1788 L1841 1884 Z" /></g><g class="o"><path transform="translate(6,12)" class="S sf" d="M1728 986 L1933 781 L1953 781 L1748 986 Z"/><path class="f4" d="M1728 986 L1933 781 L1953 781 L1748 986 Z" /></g><g class="o"><path transform="translate(4,8)" class="S sf" d="M1745 1764 L1894 1615 L2038 1615 L1889 1764 Z"/><path class="f3" d="M1745 1764 L1894 1615 L2038 1615 L1889 1764 Z" /></g><g class="o"><path transform="translate(8,16)" class="S ss" d="M1477 1695 L1676 1496 L1708 1496 L1509 1695 Z"/><path class="s4" d="M1477 1695 L1676 1496 L1708 1496 L1509 1695 Z" /></g><g class="o"><path transform="translate(2,4)" class="S sf" d="M1005 1069 L1074 1000 L1218 1000 L1149 1069 Z"/><path class="f3" d="M1005 1069 L1074 1000 L1218 1000 L1149 1069 Z" /></g><g class="o"><path transform="translate(7,14)" class="S sf" d="M1243 1426 L1366 1303 L1366 1325 L1243 1448 Z"/><path class="f3" d="M1243 1426 L1366 1303 L1366 1325 L1243 1448 Z" /></g><g class="o"><path transform="translate(5,10)" class="S sf" d="M1785 1670 L1880 1575 L2008 1575 L1913 1670 Z"/><path class="f2" d="M1785 1670 L1880 1575 L2008 1575 L1913 1670 Z" /></g><g class="o"><path transform="translate(4,8)" class="S sf" d="M1011 1664 L1093 1582 L1093 1670 L1011 1752 Z"/><path class="f6" d="M1011 1664 L1093 1582 L1093 1670 L1011 1752 Z" /></g></g><use href="#slashes" transform-origin="1500 1500" transform="rotate(180) scale(2)"/></g><polyline points="1500,1010 1990,1500 1500,1990 1010,1500 1500,1010 1990,1500" stroke-width="20" class="o s4" /><use href="#slashes" transform-origin="1500 1500" transform="scale(.9)"/><use href="#slashes" transform-origin="1500 1500" transform="rotate(180) scale(.9)"/></svg>