<svg xmlns="http://www.w3.org/2000/svg" viewBox="750 750 1500 1500"><style>/*<![CDATA[*/svg{background:rgb(34,34,34);max-width:100vw;max-height:100vh}path{stroke-width:4}.o{opacity:.75}.S{opacity:.4}.sf{stroke:none;fill:black}.sfh{stroke:none;fill:url(#hs)}.sfv{stroke:none;fill:url(#vs)}.ss{stroke:black;fill:none}.ssh{stroke:url(#hs);fill:none}.ssv{stroke:url(#vs);fill:none}.s1{fill:none;stroke:rgb(115,115,115)}.f1{stroke:none;fill:rgb(115,115,115)}.sh1{fill:none;stroke:url(#h1)}.fh1{stroke:none;fill:url(#h1)}.sv1{fill:none;stroke:url(#v1)}.fv1{stroke:none;fill:url(#v1)}.s2{fill:none;stroke:rgb(64,64,64)}.f2{stroke:none;fill:rgb(64,64,64)}.sh2{fill:none;stroke:url(#h2)}.fh2{stroke:none;fill:url(#h2)}.sv2{fill:none;stroke:url(#v2)}.fv2{stroke:none;fill:url(#v2)}.s3{fill:none;stroke:rgb(38,38,38)}.f3{stroke:none;fill:rgb(38,38,38)}.sh3{fill:none;stroke:url(#h3)}.fh3{stroke:none;fill:url(#h3)}.sv3{fill:none;stroke:url(#v3)}.fv3{stroke:none;fill:url(#v3)}.s4{fill:none;stroke:rgb(13,13,13)}.f4{stroke:none;fill:rgb(13,13,13)}.sh4{fill:none;stroke:url(#h4)}.fh4{stroke:none;fill:url(#h4)}.sv4{fill:none;stroke:url(#v4)}.fv4{stroke:none;fill:url(#v4)}.s5{fill:none;stroke:rgb(166,166,166)}.f5{stroke:none;fill:rgb(166,166,166)}.sh5{fill:none;stroke:url(#h5)}.fh5{stroke:none;fill:url(#h5)}.sv5{fill:none;stroke:url(#v5)}.fv5{stroke:none;fill:url(#v5)}.s6{fill:none;stroke:rgb(255,255,255)}.f6{stroke:none;fill:rgb(255,255,255)}.sh6{fill:none;stroke:url(#h6)}.fh6{stroke:none;fill:url(#h6)}.sv6{fill:none;stroke:url(#v6)}.fv6{stroke:none;fill:url(#v6)}.s7{fill:none;stroke:rgb(255,0,0)}.f7{stroke:none;fill:rgb(255,0,0)}.sh7{fill:none;stroke:url(#h7)}.fh7{stroke:none;fill:url(#h7)}.sv7{fill:none;stroke:url(#v7)}.fv7{stroke:none;fill:url(#v7)}/*]]>*/</style><defs><linearGradient gradientTransform="rotate(90)" id="hs"><stop offset="20%" stop-color="#000" /><stop offset="95%" stop-color="rgba(0, 0, 0, 0)" /></linearGradient><linearGradient id="vs"><stop offset="20%" stop-color="#000" /><stop offset="95%" stop-color="rgba(0, 0, 0, 0)" /></linearGradient><linearGradient gradientTransform="rotate(90)" id="h1"><stop offset="20%" stop-color="rgba(115,115,115,1)" /><stop offset="95%" stop-color="rgba(115,115,115,0)" /></linearGradient><linearGradient id="v1"><stop offset="20%" stop-color="rgba(115,115,115,1)" /><stop offset="95%" stop-color="rgba(115,115,115,0)" /></linearGradient><linearGradient gradientTransform="rotate(90)" id="h2"><stop offset="20%" stop-color="rgba(64,64,64,1)" /><stop offset="95%" stop-color="rgba(64,64,64,0)" /></linearGradient><linearGradient id="v2"><stop offset="20%" stop-color="rgba(64,64,64,1)" /><stop offset="95%" stop-color="rgba(64,64,64,0)" /></linearGradient><linearGradient gradientTransform="rotate(90)" id="h3"><stop offset="20%" stop-color="rgba(38,38,38,1)" /><stop offset="95%" stop-color="rgba(38,38,38,0)" /></linearGradient><linearGradient id="v3"><stop offset="20%" stop-color="rgba(38,38,38,1)" /><stop offset="95%" stop-color="rgba(38,38,38,0)" /></linearGradient><linearGradient gradientTransform="rotate(90)" id="h4"><stop offset="20%" stop-color="rgba(13,13,13,1)" /><stop offset="95%" stop-color="rgba(13,13,13,0)" /></linearGradient><linearGradient id="v4"><stop offset="20%" stop-color="rgba(13,13,13,1)" /><stop offset="95%" stop-color="rgba(13,13,13,0)" /></linearGradient><linearGradient gradientTransform="rotate(90)" id="h5"><stop offset="20%" stop-color="rgba(166,166,166,1)" /><stop offset="95%" stop-color="rgba(166,166,166,0)" /></linearGradient><linearGradient id="v5"><stop offset="20%" stop-color="rgba(166,166,166,1)" /><stop offset="95%" stop-color="rgba(166,166,166,0)" /></linearGradient><linearGradient gradientTransform="rotate(90)" id="h6"><stop offset="20%" stop-color="rgba(255,255,255,1)" /><stop offset="95%" stop-color="rgba(255,255,255,0)" /></linearGradient><linearGradient id="v6"><stop offset="20%" stop-color="rgba(255,255,255,1)" /><stop offset="95%" stop-color="rgba(255,255,255,0)" /></linearGradient><linearGradient gradientTransform="rotate(90)" id="h7"><stop offset="20%" stop-color="rgba(255,0,0,1)" /><stop offset="95%" stop-color="rgba(255,0,0,0)" /></linearGradient><linearGradient id="v7"><stop offset="20%" stop-color="rgba(255,0,0,1)" /><stop offset="95%" stop-color="rgba(255,0,0,0)" /></linearGradient></defs><g transform-origin="1500 1500" transform="scale(2)" opacity=".2"><g id="slashes"><g class="o"><path transform="translate(4,8)" class="S ss" d="M1727 1994 L1622 2099 L1742 2099 L1847 1994 Z"/><path class="s2" d="M1727 1994 L1622 2099 L1742 2099 L1847 1994 Z" /></g><g class="o"><path transform="translate(7,14)" class="S sfh" d="M1056 1255 L1278 1477 L1414 1477 L1192 1255 Z"/><path class="fh6" d="M1056 1255 L1278 1477 L1414 1477 L1192 1255 Z" /></g><g class="o"><path transform="translate(7,14)" class="S sfv" d="M1264 1369 L1654 1759 L1654 1815 L1264 1425 Z"/><path class="fv4" d="M1264 1369 L1654 1759 L1654 1815 L1264 1425 Z" /></g><g class="o"><path transform="translate(4,8)" class="S ss" d="M1329 1072 L1665 1408 L1665 1456 L1329 1120 Z"/><path class="s1" d="M1329 1072 L1665 1408 L1665 1456 L1329 1120 Z" /></g><g class="o"><path transform="translate(9,18)" class="S sf" d="M1153 1131 L1371 1349 L1419 1349 L1201 1131 Z"/><path class="f6" d="M1153 1131 L1371 1349 L1419 1349 L1201 1131 Z" /></g><g class="o"><path transform="translate(3,6)" class="S sfv" d="M1310 1231 L1536 1457 L1536 1593 L1310 1367 Z"/><path class="fv3" d="M1310 1231 L1536 1457 L1536 1593 L1310 1367 Z" /></g><g class="o"><path transform="translate(9,18)" class="S sf" d="M1580 1953 L1411 2122 L1411 2194 L1580 2025 Z"/><path class="f7" d="M1580 1953 L1411 2122 L1411 2194 L1580 2025 Z" /></g><g class="o"><path transform="translate(8,16)" class="S sf" d="M1999 1723 L2209 1933 L2209 1967 L1999 1757 Z"/><path class="f2" d="M1999 1723 L2209 1933 L2209 1967 L1999 1757 Z" /></g><g class="o"><path transform="translate(9,18)" class="S sfv" d="M1079 911 L1165 997 L1165 1085 L1079 999 Z"/><path class="fv2" d="M1079 911 L1165 997 L1165 1085 L1079 999 Z" /></g><g class="o"><path transform="translate(3,6)" class="S ssh" d="M1188 1077 L1068 957 L1076 957 L1196 1077 Z"/><path class="sh5" d="M1188 1077 L1068 957 L1076 957 L1196 1077 Z" /></g><g class="o"><path transform="translate(3,6)" class="S sfh" d="M1136 955 L1210 1029 L1258 1029 L1184 955 Z"/><path class="fh1" d="M1136 955 L1210 1029 L1258 1029 L1184 955 Z" /></g><g class="o"><path transform="translate(3,6)" class="S sfh" d="M1572 1979 L1731 1820 L1867 1820 L1708 1979 Z"/><path class="fh4" d="M1572 1979 L1731 1820 L1867 1820 L1708 1979 Z" /></g><g class="o"><path transform="translate(4,8)" class="S sfv" d="M1886 1668 L1777 1777 L1777 1857 L1886 1748 Z"/><path class="fv1" d="M1886 1668 L1777 1777 L1777 1857 L1886 1748 Z" /></g><g class="o"><path transform="translate(8,16)" class="S sfh" d="M1688 1956 L1525 2119 L1557 2119 L1720 1956 Z"/><path class="fh2" d="M1688 1956 L1525 2119 L1557 2119 L1720 1956 Z" /></g><g class="o"><path transform="translate(2,4)" class="S sfv" d="M1805 1504 L1726 1583 L1726 1639 L1805 1560 Z"/><path class="fv6" d="M1805 1504 L1726 1583 L1726 1639 L1805 1560 Z" /></g><g class="o"><path transform="translate(5,10)" class="S sfv" d="M1524 1012 L1712 1200 L1712 1220 L1524 1032 Z"/><path class="fv5" d="M1524 1012 L1712 1200 L1712 1220 L1524 1032 Z" /></g><g class="o"><path transform="translate(9,18)" class="S sfh" d="M1249 1733 L1307 1675 L1459 1675 L1401 1733 Z"/><path class="fh7" d="M1249 1733 L1307 1675 L1459 1675 L1401 1733 Z" /></g><g class="o"><path transform="translate(9,18)" class="S sfh" d="M1151 1807 L1333 1625 L1413 1625 L1231 1807 Z"/><path class="fh1" d="M1151 1807 L1333 1625 L1413 1625 L1231 1807 Z" /></g><g class="o"><path transform="translate(8,16)" class="S sfh" d="M1387 1295 L1454 1228 L1590 1228 L1523 1295 Z"/><path class="fh1" d="M1387 1295 L1454 1228 L1590 1228 L1523 1295 Z" /></g><g class="o"><path transform="translate(4,8)" class="S sf" d="M1068 1360 L857 1571 L857 1587 L1068 1376 Z"/><path class="f1" d="M1068 1360 L857 1571 L857 1587 L1068 1376 Z" /></g><g class="o"><path transform="translate(2,4)" class="S sfh" d="M1578 1742 L1451 1615 L1467 1615 L1594 1742 Z"/><path class="fh1" d="M1578 1742 L1451 1615 L1467 1615 L1594 1742 Z" /></g><g class="o"><path transform="translate(7,14)" class="S sfh" d="M1036 1145 L1107 1216 L1211 1216 L1140 1145 Z"/><path class="fh6" d="M1036 1145 L1107 1216 L1211 1216 L1140 1145 Z" /></g><g class="o"><path transform="translate(7,14)" class="S sf" d="M1070 1416 L1179 1307 L1179 1347 L1070 1456 Z"/><path class="f6" d="M1070 1416 L1179 1307 L1179 1347 L1070 1456 Z" /></g><g class="o"><path transform="translate(8,16)" class="S sfh" d="M1199 1985 L1291 2077 L1321 2077 L1229 1985 Z"/><path class="fh6" d="M1199 1985 L1291 2077 L1321 2077 L1229 1985 Z" /></g><g class="o"><path transform="translate(3,6)" class="S sfv" d="M1434 1614 L1228 1820 L1228 1948 L1434 1742 Z"/><path class="fv5" d="M1434 1614 L1228 1820 L1228 1948 L1434 1742 Z" /></g><g class="o"><path transform="translate(3,6)" class="S sfv" d="M994 1868 L1142 1720 L1142 1784 L994 1932 Z"/><path class="fv2" d="M994 1868 L1142 1720 L1142 1784 L994 1932 Z" /></g><g class="o"><path transform="translate(2,4)" class="S ssv" d="M1429 1506 L1018 1095 L1018 1207 L1429 1618 Z"/><path class="sv4" d="M1429 1506 L1018 1095 L1018 1207 L1429 1618 Z" /></g><g class="o"><path transform="translate(9,18)" class="S sfv" d="M1828 1455 L2025 1652 L2025 1732 L1828 1535 Z"/><path class="fv6" d="M1828 1455 L2025 1652 L2025 1732 L1828 1535 Z" /></g><g class="o"><path transform="translate(2,4)" class="S sfv" d="M1092 1039 L1335 1282 L1335 1346 L1092 1103 Z"/><path class="fv4" d="M1092 1039 L1335 1282 L1335 1346 L1092 1103 Z" /></g><g class="o"><path transform="translate(5,10)" class="S sfh" d="M1861 1776 L2194 2109 L2266 2109 L1933 1776 Z"/><path class="fh7" d="M1861 1776 L2194 2109 L2266 2109 L1933 1776 Z" /></g><g class="o"><path transform="translate(3,6)" class="S sf" d="M1505 1819 L1628 1696 L1650 1696 L1527 1819 Z"/><path class="f7" d="M1505 1819 L1628 1696 L1650 1696 L1527 1819 Z" /></g><g class="o"><path transform="translate(4,8)" class="S sfv" d="M1189 1067 L457 1799 L457 1831 L1189 1099 Z"/><path class="fv3" d="M1189 1067 L457 1799 L457 1831 L1189 1099 Z" /></g><g class="o"><path transform="translate(8,16)" class="S sf" d="M1260 1179 L1455 984 L1599 984 L1404 1179 Z"/><path class="f2" d="M1260 1179 L1455 984 L1599 984 L1404 1179 Z" /></g><g class="o"><path transform="translate(2,4)" class="S ssv" d="M968 1209 L1201 976 L1201 1048 L968 1281 Z"/><path class="sv7" d="M968 1209 L1201 976 L1201 1048 L968 1281 Z" /></g><g class="o"><path transform="translate(2,4)" class="S sfh" d="M1251 1975 L693 2533 L805 2533 L1363 1975 Z"/><path class="fh1" d="M1251 1975 L693 2533 L805 2533 L1363 1975 Z" /></g><g class="o"><path transform="translate(4,8)" class="S sfv" d="M1515 1168 L1384 1299 L1384 1443 L1515 1312 Z"/><path class="fv2" d="M1515 1168 L1384 1299 L1384 1443 L1515 1312 Z" /></g><g class="o"><path transform="translate(4,8)" class="S sfv" d="M1277 1555 L1384 1448 L1384 1504 L1277 1611 Z"/><path class="fv6" d="M1277 1555 L1384 1448 L1384 1504 L1277 1611 Z" /></g><g class="o"><path transform="translate(5,10)" class="S sfh" d="M1872 1360 L1721 1511 L1759 1511 L1910 1360 Z"/><path class="fh7" d="M1872 1360 L1721 1511 L1759 1511 L1910 1360 Z" /></g><g class="o"><path transform="translate(9,18)" class="S sfh" d="M1547 1328 L1355 1136 L1443 1136 L1635 1328 Z"/><path class="fh5" d="M1547 1328 L1355 1136 L1443 1136 L1635 1328 Z" /></g><g class="o"><path transform="translate(2,4)" class="S sfv" d="M1921 1306 L1679 1548 L1679 1612 L1921 1370 Z"/><path class="fv1" d="M1921 1306 L1679 1548 L1679 1612 L1921 1370 Z" /></g><g class="o"><path transform="translate(3,6)" class="S sfh" d="M1614 1557 L882 2289 L908 2289 L1640 1557 Z"/><path class="fh2" d="M1614 1557 L882 2289 L908 2289 L1640 1557 Z" /></g><g class="o"><path transform="translate(2,4)" class="S sf" d="M1300 1153 L1411 1042 L1411 1162 L1300 1273 Z"/><path class="f4" d="M1300 1153 L1411 1042 L1411 1162 L1300 1273 Z" /></g><g class="o"><path transform="translate(3,6)" class="S sfh" d="M1851 1207 L1639 995 L1735 995 L1947 1207 Z"/><path class="fh4" d="M1851 1207 L1639 995 L1735 995 L1947 1207 Z" /></g><g class="o"><path transform="translate(4,8)" class="S ss" d="M989 1552 L1203 1766 L1203 1790 L989 1576 Z"/><path class="s5" d="M989 1552 L1203 1766 L1203 1790 L989 1576 Z" /></g><g class="o"><path transform="translate(2,4)" class="S sfh" d="M1965 1132 L1792 1305 L1826 1305 L1999 1132 Z"/><path class="fh4" d="M1965 1132 L1792 1305 L1826 1305 L1999 1132 Z" /></g><g class="o"><path transform="translate(6,12)" class="S sfh" d="M1488 1342 L1734 1588 L1830 1588 L1584 1342 Z"/><path class="fh3" d="M1488 1342 L1734 1588 L1830 1588 L1584 1342 Z" /></g><g class="o"><path transform="translate(5,10)" class="S sfv" d="M1015 1513 L954 1452 L954 1470 L1015 1531 Z"/><path class="fv1" d="M1015 1513 L954 1452 L954 1470 L1015 1531 Z" /></g><g class="o"><path transform="translate(7,14)" class="S sfv" d="M983 1177 L1184 976 L1184 1008 L983 1209 Z"/><path class="fv5" d="M983 1177 L1184 976 L1184 1008 L983 1209 Z" /></g><g class="o"><path transform="translate(8,16)" class="S ss" d="M1743 1809 L2481 2547 L2601 2547 L1863 1809 Z"/><path class="s4" d="M1743 1809 L2481 2547 L2601 2547 L1863 1809 Z" /></g><g class="o"><path transform="translate(3,6)" class="S sf" d="M1557 1611 L1715 1453 L1715 1517 L1557 1675 Z"/><path class="f5" d="M1557 1611 L1715 1453 L1715 1517 L1557 1675 Z" /></g><g class="o"><path transform="translate(8,16)" class="S ss" d="M1142 1634 L1236 1728 L1340 1728 L1246 1634 Z"/><path class="s7" d="M1142 1634 L1236 1728 L1340 1728 L1246 1634 Z" /></g><g class="o"><path transform="translate(3,6)" class="S sf" d="M1631 1441 L1715 1357 L1715 1405 L1631 1489 Z"/><path class="f3" d="M1631 1441 L1715 1357 L1715 1405 L1631 1489 Z" /></g><g class="o"><path transform="translate(3,6)" class="S sfv" d="M1619 1362 L1463 1206 L1463 1238 L1619 1394 Z"/><path class="fv5" d="M1619 1362 L1463 1206 L1463 1238 L1619 1394 Z" /></g><g class="o"><path transform="translate(2,4)" class="S sfh" d="M1242 1004 L1054 1192 L1190 1192 L1378 1004 Z"/><path class="fh3" d="M1242 1004 L1054 1192 L1190 1192 L1378 1004 Z" /></g><g class="o"><path transform="translate(6,12)" class="S ssh" d="M1476 1982 L1289 2169 L1385 2169 L1572 1982 Z"/><path class="sh7" d="M1476 1982 L1289 2169 L1385 2169 L1572 1982 Z" /></g><g class="o"><path transform="translate(7,14)" class="S sfh" d="M1723 2016 L1990 1749 L2118 1749 L1851 2016 Z"/><path class="fh6" d="M1723 2016 L1990 1749 L2118 1749 L1851 2016 Z" /></g><g class="o"><path transform="translate(8,16)" class="S ssv" d="M1169 1259 L1388 1040 L1388 1144 L1169 1363 Z"/><path class="sv7" d="M1169 1259 L1388 1040 L1388 1144 L1169 1363 Z" /></g><g class="o"><path transform="translate(9,18)" class="S sfv" d="M1740 1305 L1527 1092 L1527 1172 L1740 1385 Z"/><path class="fv1" d="M1740 1305 L1527 1092 L1527 1172 L1740 1385 Z" /></g><g class="o"><path transform="translate(5,10)" class="S sfh" d="M943 1037 L1025 1119 L1153 1119 L1071 1037 Z"/><path class="fh5" d="M943 1037 L1025 1119 L1153 1119 L1071 1037 Z" /></g><g class="o"><path transform="translate(2,4)" class="S sfv" d="M1322 1476 L1400 1398 L1400 1420 L1322 1498 Z"/><path class="fv7" d="M1322 1476 L1400 1398 L1400 1420 L1322 1498 Z" /></g><g class="o"><path transform="translate(5,10)" class="S sfh" d="M1748 1867 L1672 1943 L1808 1943 L1884 1867 Z"/><path class="fh7" d="M1748 1867 L1672 1943 L1808 1943 L1884 1867 Z" /></g><g class="o"><path transform="translate(3,6)" class="S ssv" d="M1290 1355 L1494 1559 L1494 1703 L1290 1499 Z"/><path class="sv4" d="M1290 1355 L1494 1559 L1494 1703 L1290 1499 Z" /></g><g class="o"><path transform="translate(7,14)" class="S sfv" d="M1285 1398 L1503 1180 L1503 1210 L1285 1428 Z"/><path class="fv7" d="M1285 1398 L1503 1180 L1503 1210 L1285 1428 Z" /></g><g class="o"><path transform="translate(3,6)" class="S sf" d="M1768 1807 L2473 2512 L2593 2512 L1888 1807 Z"/><path class="f1" d="M1768 1807 L2473 2512 L2593 2512 L1888 1807 Z" /></g><g class="o"><path transform="translate(6,12)" class="S ssh" d="M991 1213 L756 978 L852 978 L1087 1213 Z"/><path class="sh7" d="M991 1213 L756 978 L852 978 L1087 1213 Z" /></g><g class="o"><path transform="translate(5,10)" class="S sfh" d="M1427 1839 L1217 2049 L1231 2049 L1441 1839 Z"/><path class="fh3" d="M1427 1839 L1217 2049 L1231 2049 L1441 1839 Z" /></g><g class="o"><path transform="translate(3,6)" class="S sf" d="M1000 1528 L1525 2053 L1669 2053 L1144 1528 Z"/><path class="f4" d="M1000 1528 L1525 2053 L1669 2053 L1144 1528 Z" /></g><g class="o"><path transform="translate(6,12)" class="S ssv" d="M1494 1538 L1291 1741 L1291 1767 L1494 1564 Z"/><path class="sv7" d="M1494 1538 L1291 1741 L1291 1767 L1494 1564 Z" /></g><g class="o"><path transform="translate(3,6)" class="S sfv" d="M1181 1038 L605 462 L605 518 L1181 1094 Z"/><path class="fv7" d="M1181 1038 L605 462 L605 518 L1181 1094 Z" /></g><g class="o"><path transform="translate(4,8)" class="S sfh" d="M1125 997 L1208 1080 L1296 1080 L1213 997 Z"/><path class="fh5" d="M1125 997 L1208 1080 L1296 1080 L1213 997 Z" /></g><g class="o"><path transform="translate(6,12)" class="S sfh" d="M909 1015 L1109 815 L1197 815 L997 1015 Z"/><path class="fh1" d="M909 1015 L1109 815 L1197 815 L997 1015 Z" /></g><g class="o"><path transform="translate(9,18)" class="S sfv" d="M1263 996 L1155 888 L1155 968 L1263 1076 Z"/><path class="fv7" d="M1263 996 L1155 888 L1155 968 L1263 1076 Z" /></g><g class="o"><path transform="translate(5,10)" class="S sfv" d="M1477 1843 L1609 1711 L1609 1855 L1477 1987 Z"/><path class="fv1" d="M1477 1843 L1609 1711 L1609 1855 L1477 1987 Z" /></g><g class="o"><path transform="translate(4,8)" class="S sf" d="M1681 1624 L1544 1761 L1568 1761 L1705 1624 Z"/><path class="f5" d="M1681 1624 L1544 1761 L1568 1761 L1705 1624 Z" /></g><g class="o"><path transform="translate(5,10)" class="S sfh" d="M1180 1812 L1418 1574 L1428 1574 L1190 1812 Z"/><path class="fh5" d="M1180 1812 L1418 1574 L1428 1574 L1190 1812 Z" /></g><g class="o"><path transform="translate(3,6)" class="S sfv" d="M1603 1378 L1762 1537 L1762 1601 L1603 1442 Z"/><path class="fv5" d="M1603 1378 L1762 1537 L1762 1601 L1603 1442 Z" /></g><g class="o"><path transform="translate(9,18)" class="S sfv" d="M1409 1450 L1270 1311 L1270 1431 L1409 1570 Z"/><path class="fv6" d="M1409 1450 L1270 1311 L1270 1431 L1409 1570 Z" /></g><g class="o"><path transform="translate(6,12)" class="S sfv" d="M1104 1718 L1217 1831 L1217 1869 L1104 1756 Z"/><path class="fv7" d="M1104 1718 L1217 1831 L1217 1869 L1104 1756 Z" /></g><g class="o"><path transform="translate(9,18)" class="S ssv" d="M2031 1043 L1786 798 L1786 820 L2031 1065 Z"/><path class="sv3" d="M2031 1043 L1786 798 L1786 820 L2031 1065 Z" /></g><g class="o"><path transform="translate(8,16)" class="S sfh" d="M1109 1196 L924 1011 L942 1011 L1127 1196 Z"/><path class="fh3" d="M1109 1196 L924 1011 L942 1011 L1127 1196 Z" /></g><g class="o"><path transform="translate(4,8)" class="S sfh" d="M1194 1397 L993 1598 L1025 1598 L1226 1397 Z"/><path class="fh6" d="M1194 1397 L993 1598 L1025 1598 L1226 1397 Z" /></g><g class="o"><path transform="translate(8,16)" class="S sfv" d="M1829 1742 L1963 1608 L1963 1736 L1829 1870 Z"/><path class="fv4" d="M1829 1742 L1963 1608 L1963 1736 L1829 1870 Z" /></g><g class="o"><path transform="translate(3,6)" class="S ss" d="M1362 1115 L1269 1208 L1269 1248 L1362 1155 Z"/><path class="s4" d="M1362 1115 L1269 1208 L1269 1248 L1362 1155 Z" /></g><g class="o"><path transform="translate(4,8)" class="S sfv" d="M1185 1455 L1118 1522 L1118 1556 L1185 1489 Z"/><path class="fv2" d="M1185 1455 L1118 1522 L1118 1556 L1185 1489 Z" /></g><g class="o"><path transform="translate(4,8)" class="S sfh" d="M1225 1788 L1096 1659 L1132 1659 L1261 1788 Z"/><path class="fh3" d="M1225 1788 L1096 1659 L1132 1659 L1261 1788 Z" /></g><g class="o"><path transform="translate(6,12)" class="S sfv" d="M1856 2032 L2077 1811 L2077 1837 L1856 2058 Z"/><path class="fv1" d="M1856 2032 L2077 1811 L2077 1837 L1856 2058 Z" /></g><g class="o"><path transform="translate(5,10)" class="S sfh" d="M1888 1479 L1657 1248 L1697 1248 L1928 1479 Z"/><path class="fh5" d="M1888 1479 L1657 1248 L1697 1248 L1928 1479 Z" /></g><g class="o"><path transform="translate(8,16)" class="S sfh" d="M1171 1493 L1284 1606 L1308 1606 L1195 1493 Z"/><path class="fh6" d="M1171 1493 L1284 1606 L1308 1606 L1195 1493 Z" /></g><g class="o"><path transform="translate(3,6)" class="S sfh" d="M1802 1367 L1523 1088 L1587 1088 L1866 1367 Z"/><path class="fh1" d="M1802 1367 L1523 1088 L1587 1088 L1866 1367 Z" /></g><g class="o"><path transform="translate(8,16)" class="S sfh" d="M1386 2048 L1323 1985 L1339 1985 L1402 2048 Z"/><path class="fh3" d="M1386 2048 L1323 1985 L1339 1985 L1402 2048 Z" /></g><g class="o"><path transform="translate(4,8)" class="S sf" d="M1102 1963 L1317 1748 L1317 1820 L1102 2035 Z"/><path class="f6" d="M1102 1963 L1317 1748 L1317 1820 L1102 2035 Z" /></g><g class="o"><path transform="translate(4,8)" class="S sfv" d="M1441 947 L1682 706 L1682 738 L1441 979 Z"/><path class="fv3" d="M1441 947 L1682 706 L1682 738 L1441 979 Z" /></g><g class="o"><path transform="translate(6,12)" class="S ssv" d="M1913 1755 L1729 1571 L1729 1619 L1913 1803 Z"/><path class="sv5" d="M1913 1755 L1729 1571 L1729 1619 L1913 1803 Z" /></g><g class="o"><path transform="translate(9,18)" class="S sf" d="M2030 1144 L2220 1334 L2220 1478 L2030 1288 Z"/><path class="f5" d="M2030 1144 L2220 1334 L2220 1478 L2030 1288 Z" /></g><g class="o"><path transform="translate(5,10)" class="S sfh" d="M1628 966 L1552 890 L1696 890 L1772 966 Z"/><path class="fh7" d="M1628 966 L1552 890 L1696 890 L1772 966 Z" /></g><g class="o"><path transform="translate(9,18)" class="S sf" d="M1665 1406 L1116 1955 L1116 2067 L1665 1518 Z"/><path class="f6" d="M1665 1406 L1116 1955 L1116 2067 L1665 1518 Z" /></g><g class="o"><path transform="translate(2,4)" class="S ss" d="M1444 1860 L1594 1710 L1690 1710 L1540 1860 Z"/><path class="s6" d="M1444 1860 L1594 1710 L1690 1710 L1540 1860 Z" /></g><g class="o"><path transform="translate(3,6)" class="S sfv" d="M1397 1113 L1624 886 L1624 966 L1397 1193 Z"/><path class="fv2" d="M1397 1113 L1624 886 L1624 966 L1397 1193 Z" /></g><g class="o"><path transform="translate(4,8)" class="S ssv" d="M1795 1253 L1719 1177 L1719 1289 L1795 1365 Z"/><path class="sv4" d="M1795 1253 L1719 1177 L1719 1289 L1795 1365 Z" /></g><g class="o"><path transform="translate(6,12)" class="S sf" d="M975 1647 L1152 1824 L1208 1824 L1031 1647 Z"/><path class="f1" d="M975 1647 L1152 1824 L1208 1824 L1031 1647 Z" /></g><g class="o"><path transform="translate(2,4)" class="S sfv" d="M992 1093 L1236 1337 L1236 1441 L992 1197 Z"/><path class="fv6" d="M992 1093 L1236 1337 L1236 1441 L992 1197 Z" /></g><g class="o"><path transform="translate(2,4)" class="S sfv" d="M1662 1424 L1716 1370 L1716 1388 L1662 1442 Z"/><path class="fv2" d="M1662 1424 L1716 1370 L1716 1388 L1662 1442 Z" /></g><g class="o"><path transform="translate(5,10)" class="S sfv" d="M1395 1755 L1601 1961 L1601 2113 L1395 1907 Z"/><path class="fv4" d="M1395 1755 L1601 1961 L1601 2113 L1395 1907 Z" /></g><g class="o"><path transform="translate(2,4)" class="S sfv" d="M1458 1144 L1386 1072 L1386 1088 L1458 1160 Z"/><path class="fv2" d="M1458 1144 L1386 1072 L1386 1088 L1458 1160 Z" /></g><g class="o"><path transform="translate(2,4)" class="S sfh" d="M1867 1400 L1675 1592 L1747 1592 L1939 1400 Z"/><path class="fh2" d="M1867 1400 L1675 1592 L1747 1592 L1939 1400 Z" /></g><g class="o"><path transform="translate(7,14)" class="S sfv" d="M1328 1325 L1159 1494 L1159 1606 L1328 1437 Z"/><path class="fv6" d="M1328 1325 L1159 1494 L1159 1606 L1328 1437 Z" /></g><g class="o"><path transform="translate(7,14)" class="S sfv" d="M1025 1691 L951 1765 L951 1877 L1025 1803 Z"/><path class="fv6" d="M1025 1691 L951 1765 L951 1877 L1025 1803 Z" /></g><g class="o"><path transform="translate(4,8)" class="S ssv" d="M1569 1558 L1780 1769 L1780 1801 L1569 1590 Z"/><path class="sv4" d="M1569 1558 L1780 1769 L1780 1801 L1569 1590 Z" /></g><g class="o"><path transform="translate(5,10)" class="S ssh" d="M1087 1410 L1333 1164 L1445 1164 L1199 1410 Z"/><path class="sh2" d="M1087 1410 L1333 1164 L1445 1164 L1199 1410 Z" /></g><g class="o"><path transform="translate(4,8)" class="S sfh" d="M1509 1303 L1623 1189 L1695 1189 L1581 1303 Z"/><path class="fh2" d="M1509 1303 L1623 1189 L1695 1189 L1581 1303 Z" /></g><g class="o"><path transform="translate(3,6)" class="S sfv" d="M1931 1093 L2144 1306 L2144 1370 L1931 1157 Z"/><path class="fv5" d="M1931 1093 L2144 1306 L2144 1370 L1931 1157 Z" /></g><g class="o"><path transform="translate(9,18)" class="S ss" d="M1571 1434 L1635 1370 L1635 1402 L1571 1466 Z"/><path class="s4" d="M1571 1434 L1635 1370 L1635 1402 L1571 1466 Z" /></g><g class="o"><path transform="translate(3,6)" class="S ssh" d="M950 1710 L1583 2343 L1615 2343 L982 1710 Z"/><path class="sh5" d="M950 1710 L1583 2343 L1615 2343 L982 1710 Z" /></g><g class="o"><path transform="translate(2,4)" class="S sfv" d="M1436 1719 L1511 1644 L1511 1676 L1436 1751 Z"/><path class="fv2" d="M1436 1719 L1511 1644 L1511 1676 L1436 1751 Z" /></g><g class="o"><path transform="translate(7,14)" class="S sfv" d="M1208 1350 L1108 1250 L1108 1258 L1208 1358 Z"/><path class="fv4" d="M1208 1350 L1108 1250 L1108 1258 L1208 1358 Z" /></g><g class="o"><path transform="translate(9,18)" class="S sf" d="M1594 1559 L1909 1244 L1989 1244 L1674 1559 Z"/><path class="f4" d="M1594 1559 L1909 1244 L1989 1244 L1674 1559 Z" /></g><g class="o"><path transform="translate(9,18)" class="S sfh" d="M1529 1427 L1652 1304 L1708 1304 L1585 1427 Z"/><path class="fh6" d="M1529 1427 L1652 1304 L1708 1304 L1585 1427 Z" /></g><g class="o"><path transform="translate(3,6)" class="S ssv" d="M1475 1221 L1573 1319 L1573 1367 L1475 1269 Z"/><path class="sv5" d="M1475 1221 L1573 1319 L1573 1367 L1475 1269 Z" /></g><g class="o"><path transform="translate(6,12)" class="S sfh" d="M1491 1278 L1324 1111 L1428 1111 L1595 1278 Z"/><path class="fh7" d="M1491 1278 L1324 1111 L1428 1111 L1595 1278 Z" /></g><g class="o"><path transform="translate(5,10)" class="S ss" d="M1942 1324 L2141 1125 L2285 1125 L2086 1324 Z"/><path class="s2" d="M1942 1324 L2141 1125 L2285 1125 L2086 1324 Z" /></g><g class="o"><path transform="translate(7,14)" class="S sfv" d="M1636 1475 L1558 1397 L1558 1485 L1636 1563 Z"/><path class="fv5" d="M1636 1475 L1558 1397 L1558 1485 L1636 1563 Z" /></g><g class="o"><path transform="translate(7,14)" class="S sfv" d="M1038 1868 L929 1759 L929 1823 L1038 1932 Z"/><path class="fv3" d="M1038 1868 L929 1759 L929 1823 L1038 1932 Z" /></g><g class="o"><path transform="translate(8,16)" class="S sfv" d="M2015 1206 L1715 1506 L1715 1586 L2015 1286 Z"/><path class="fv5" d="M2015 1206 L1715 1506 L1715 1586 L2015 1286 Z" /></g><g class="o"><path transform="translate(6,12)" class="S sfv" d="M1761 1078 L1654 1185 L1654 1217 L1761 1110 Z"/><path class="fv3" d="M1761 1078 L1654 1185 L1654 1217 L1761 1110 Z" /></g><g class="o"><path transform="translate(8,16)" class="S sfv" d="M1154 1021 L428 295 L428 351 L1154 1077 Z"/><path class="fv1" d="M1154 1021 L428 295 L428 351 L1154 1077 Z" /></g><g class="o"><path transform="translate(4,8)" class="S sfh" d="M1747 1476 L1611 1612 L1691 1612 L1827 1476 Z"/><path class="fh4" d="M1747 1476 L1611 1612 L1691 1612 L1827 1476 Z" /></g><g class="o"><path transform="translate(5,10)" class="S sfh" d="M1967 1866 L1761 2072 L1799 2072 L2005 1866 Z"/><path class="fh4" d="M1967 1866 L1761 2072 L1799 2072 L2005 1866 Z" /></g><g class="o"><path transform="translate(8,16)" class="S ssh" d="M1664 1780 L1427 1543 L1531 1543 L1768 1780 Z"/><path class="sh5" d="M1664 1780 L1427 1543 L1531 1543 L1768 1780 Z" /></g><g class="o"><path transform="translate(6,12)" class="S sfh" d="M1397 1823 L1272 1698 L1344 1698 L1469 1823 Z"/><path class="fh2" d="M1397 1823 L1272 1698 L1344 1698 L1469 1823 Z" /></g><g class="o"><path transform="translate(3,6)" class="S sfh" d="M1397 1591 L1489 1683 L1519 1683 L1427 1591 Z"/><path class="fh6" d="M1397 1591 L1489 1683 L1519 1683 L1427 1591 Z" /></g><g class="o"><path transform="translate(2,4)" class="S sfh" d="M1614 1408 L1684 1478 L1716 1478 L1646 1408 Z"/><path class="fh1" d="M1614 1408 L1684 1478 L1716 1478 L1646 1408 Z" /></g><g class="o"><path transform="translate(9,18)" class="S ssh" d="M1340 1788 L1838 2286 L1966 2286 L1468 1788 Z"/><path class="sh3" d="M1340 1788 L1838 2286 L1966 2286 L1468 1788 Z" /></g><g class="o"><path transform="translate(3,6)" class="S sfv" d="M1821 1889 L1996 2064 L1996 2128 L1821 1953 Z"/><path class="fv6" d="M1821 1889 L1996 2064 L1996 2128 L1821 1953 Z" /></g><g class="o"><path transform="translate(8,16)" class="S sfv" d="M1327 1116 L1157 1286 L1157 1430 L1327 1260 Z"/><path class="fv6" d="M1327 1116 L1157 1286 L1157 1430 L1327 1260 Z" /></g><g class="o"><path transform="translate(5,10)" class="S ss" d="M1135 1628 L902 1861 L902 1893 L1135 1660 Z"/><path class="s3" d="M1135 1628 L902 1861 L902 1893 L1135 1660 Z" /></g><g class="o"><path transform="translate(7,14)" class="S sfv" d="M1817 1371 L1727 1461 L1727 1605 L1817 1515 Z"/><path class="fv2" d="M1817 1371 L1727 1461 L1727 1605 L1817 1515 Z" /></g><g class="o"><path transform="translate(2,4)" class="S sf" d="M1587 1504 L1343 1260 L1343 1292 L1587 1536 Z"/><path class="f3" d="M1587 1504 L1343 1260 L1343 1292 L1587 1536 Z" /></g><g class="o"><path transform="translate(4,8)" class="S sfv" d="M1279 1371 L1434 1216 L1434 1360 L1279 1515 Z"/><path class="fv7" d="M1279 1371 L1434 1216 L1434 1360 L1279 1515 Z" /></g><g class="o"><path transform="translate(4,8)" class="S sfh" d="M1775 1686 L1898 1809 L1922 1809 L1799 1686 Z"/><path class="fh5" d="M1775 1686 L1898 1809 L1922 1809 L1799 1686 Z" /></g><g class="o"><path transform="translate(3,6)" class="S sf" d="M1412 1360 L1609 1557 L1645 1557 L1448 1360 Z"/><path class="f5" d="M1412 1360 L1609 1557 L1645 1557 L1448 1360 Z" /></g><g class="o"><path transform="translate(8,16)" class="S sfh" d="M2020 1294 L2737 577 L2757 577 L2040 1294 Z"/><path class="fh5" d="M2020 1294 L2737 577 L2757 577 L2040 1294 Z" /></g><g class="o"><path transform="translate(6,12)" class="S sfh" d="M1607 1621 L1548 1680 L1652 1680 L1711 1621 Z"/><path class="fh5" d="M1607 1621 L1548 1680 L1652 1680 L1711 1621 Z" /></g><g class="o"><path transform="translate(5,10)" class="S sfv" d="M1386 1970 L1162 1746 L1162 1858 L1386 2082 Z"/><path class="fv6" d="M1386 1970 L1162 1746 L1162 1858 L1386 2082 Z" /></g><g class="o"><path transform="translate(6,12)" class="S sfh" d="M1832 1633 L1926 1539 L1982 1539 L1888 1633 Z"/><path class="fh5" d="M1832 1633 L1926 1539 L1982 1539 L1888 1633 Z" /></g><g class="o"><path transform="translate(4,8)" class="S sfv" d="M1148 1990 L770 2368 L770 2416 L1148 2038 Z"/><path class="fv1" d="M1148 1990 L770 2368 L770 2416 L1148 2038 Z" /></g><g class="o"><path transform="translate(5,10)" class="S sfh" d="M1712 1072 L1598 958 L1726 958 L1840 1072 Z"/><path class="fh1" d="M1712 1072 L1598 958 L1726 958 L1840 1072 Z" /></g><g class="o"><path transform="translate(3,6)" class="S ssv" d="M1341 967 L1185 811 L1185 915 L1341 1071 Z"/><path class="sv2" d="M1341 967 L1185 811 L1185 915 L1341 1071 Z" /></g><g class="o"><path transform="translate(8,16)" class="S sfh" d="M1964 1945 L2669 1240 L2701 1240 L1996 1945 Z"/><path class="fh1" d="M1964 1945 L2669 1240 L2701 1240 L1996 1945 Z" /></g><g class="o"><path transform="translate(8,16)" class="S sfh" d="M1737 1386 L1907 1216 L1921 1216 L1751 1386 Z"/><path class="fh2" d="M1737 1386 L1907 1216 L1921 1216 L1751 1386 Z" /></g><g class="o"><path transform="translate(2,4)" class="S sfv" d="M1504 1263 L1165 924 L1165 1052 L1504 1391 Z"/><path class="fv6" d="M1504 1263 L1165 924 L1165 1052 L1504 1391 Z" /></g></g><use href="#slashes" transform-origin="1500 1500" transform="rotate(180) scale(2)"/></g><rect x="1080" y="1080" width="840" height="840" stroke-width="160" class="o s4" /><use href="#slashes" transform-origin="1500 1500" transform="scale(.6)"/><use href="#slashes" transform-origin="1500 1500" transform="rotate(180) scale(.6)"/></svg>