<svg xmlns="http://www.w3.org/2000/svg" viewBox="750 750 1500 1500"><style>/*<![CDATA[*/svg{background:rgb(251,0,2);max-width:100vw;max-height:100vh}path{stroke-width:4}.o{opacity:.75}.S{opacity:.4}.sf{stroke:none;fill:black}.sfh{stroke:none;fill:url(#hs)}.sfv{stroke:none;fill:url(#vs)}.ss{stroke:black;fill:none}.ssh{stroke:url(#hs);fill:none}.ssv{stroke:url(#vs);fill:none}.s1{fill:none;stroke:rgb(25,12,40)}.f1{stroke:none;fill:rgb(25,12,40)}.sh1{fill:none;stroke:url(#h1)}.fh1{stroke:none;fill:url(#h1)}.sv1{fill:none;stroke:url(#v1)}.fv1{stroke:none;fill:url(#v1)}.s2{fill:none;stroke:rgb(254,240,0)}.f2{stroke:none;fill:rgb(254,240,0)}.sh2{fill:none;stroke:url(#h2)}.fh2{stroke:none;fill:url(#h2)}.sv2{fill:none;stroke:url(#v2)}.fv2{stroke:none;fill:url(#v2)}.s3{fill:none;stroke:rgb(34,34,34)}.f3{stroke:none;fill:rgb(34,34,34)}.sh3{fill:none;stroke:url(#h3)}.fh3{stroke:none;fill:url(#h3)}.sv3{fill:none;stroke:url(#v3)}.fv3{stroke:none;fill:url(#v3)}.s4{fill:none;stroke:rgb(28,130,235)}.f4{stroke:none;fill:rgb(28,130,235)}.sh4{fill:none;stroke:url(#h4)}.fh4{stroke:none;fill:url(#h4)}.sv4{fill:none;stroke:url(#v4)}.fv4{stroke:none;fill:url(#v4)}.s5{fill:none;stroke:rgb(254,247,238)}.f5{stroke:none;fill:rgb(254,247,238)}.sh5{fill:none;stroke:url(#h5)}.fh5{stroke:none;fill:url(#h5)}.sv5{fill:none;stroke:url(#v5)}.fv5{stroke:none;fill:url(#v5)}.s6{fill:none;stroke:rgb(255,255,255)}.f6{stroke:none;fill:rgb(255,255,255)}.sh6{fill:none;stroke:url(#h6)}.fh6{stroke:none;fill:url(#h6)}.sv6{fill:none;stroke:url(#v6)}.fv6{stroke:none;fill:url(#v6)}.s7{fill:none;stroke:rgb(255,255,0)}.f7{stroke:none;fill:rgb(255,255,0)}.sh7{fill:none;stroke:url(#h7)}.fh7{stroke:none;fill:url(#h7)}.sv7{fill:none;stroke:url(#v7)}.fv7{stroke:none;fill:url(#v7)}/*]]>*/</style><defs><linearGradient gradientTransform="rotate(90)" id="hs"><stop offset="20%" stop-color="#000" /><stop offset="95%" stop-color="rgba(0, 0, 0, 0)" /></linearGradient><linearGradient id="vs"><stop offset="20%" stop-color="#000" /><stop offset="95%" stop-color="rgba(0, 0, 0, 0)" /></linearGradient><linearGradient gradientTransform="rotate(90)" id="h1"><stop offset="20%" stop-color="rgba(25,12,40,1)" /><stop offset="95%" stop-color="rgba(25,12,40,0)" /></linearGradient><linearGradient id="v1"><stop offset="20%" stop-color="rgba(25,12,40,1)" /><stop offset="95%" stop-color="rgba(25,12,40,0)" /></linearGradient><linearGradient gradientTransform="rotate(90)" id="h2"><stop offset="20%" stop-color="rgba(254,240,0,1)" /><stop offset="95%" stop-color="rgba(254,240,0,0)" /></linearGradient><linearGradient id="v2"><stop offset="20%" stop-color="rgba(254,240,0,1)" /><stop offset="95%" stop-color="rgba(254,240,0,0)" /></linearGradient><linearGradient gradientTransform="rotate(90)" id="h3"><stop offset="20%" stop-color="rgba(34,34,34,1)" /><stop offset="95%" stop-color="rgba(34,34,34,0)" /></linearGradient><linearGradient id="v3"><stop offset="20%" stop-color="rgba(34,34,34,1)" /><stop offset="95%" stop-color="rgba(34,34,34,0)" /></linearGradient><linearGradient gradientTransform="rotate(90)" id="h4"><stop offset="20%" stop-color="rgba(28,130,235,1)" /><stop offset="95%" stop-color="rgba(28,130,235,0)" /></linearGradient><linearGradient id="v4"><stop offset="20%" stop-color="rgba(28,130,235,1)" /><stop offset="95%" stop-color="rgba(28,130,235,0)" /></linearGradient><linearGradient gradientTransform="rotate(90)" id="h5"><stop offset="20%" stop-color="rgba(254,247,238,1)" /><stop offset="95%" stop-color="rgba(254,247,238,0)" /></linearGradient><linearGradient id="v5"><stop offset="20%" stop-color="rgba(254,247,238,1)" /><stop offset="95%" stop-color="rgba(254,247,238,0)" /></linearGradient><linearGradient gradientTransform="rotate(90)" id="h6"><stop offset="20%" stop-color="rgba(255,255,255,1)" /><stop offset="95%" stop-color="rgba(255,255,255,0)" /></linearGradient><linearGradient id="v6"><stop offset="20%" stop-color="rgba(255,255,255,1)" /><stop offset="95%" stop-color="rgba(255,255,255,0)" /></linearGradient><linearGradient gradientTransform="rotate(90)" id="h7"><stop offset="20%" stop-color="rgba(255,255,0,1)" /><stop offset="95%" stop-color="rgba(255,255,0,0)" /></linearGradient><linearGradient id="v7"><stop offset="20%" stop-color="rgba(255,255,0,1)" /><stop offset="95%" stop-color="rgba(255,255,0,0)" /></linearGradient></defs><g transform-origin="1500 1500" transform="scale(2)" opacity=".2"><g id="slashes"><g class="o"><path transform="translate(2,4)" class="S sfv" d="M1272 1212 L1049 1435 L1049 1463 L1272 1240 Z"/><path class="fv3" d="M1272 1212 L1049 1435 L1049 1463 L1272 1240 Z" /></g><g class="o"><path transform="translate(4,8)" class="S sfh" d="M1780 1909 L1559 2130 L1589 2130 L1810 1909 Z"/><path class="fh2" d="M1780 1909 L1559 2130 L1589 2130 L1810 1909 Z" /></g><g class="o"><path transform="translate(8,16)" class="S ss" d="M1508 1066 L1757 1315 L1757 1349 L1508 1100 Z"/><path class="s2" d="M1508 1066 L1757 1315 L1757 1349 L1508 1100 Z" /></g><g class="o"><path transform="translate(6,12)" class="S ss" d="M1043 1888 L881 2050 L881 2088 L1043 1926 Z"/><path class="s7" d="M1043 1888 L881 2050 L881 2088 L1043 1926 Z" /></g><g class="o"><path transform="translate(8,16)" class="S sf" d="M1960 1500 L1456 2004 L1456 2116 L1960 1612 Z"/><path class="f5" d="M1960 1500 L1456 2004 L1456 2116 L1960 1612 Z" /></g><g class="o"><path transform="translate(2,4)" class="S sfh" d="M1737 1576 L1398 1915 L1454 1915 L1793 1576 Z"/><path class="fh4" d="M1737 1576 L1398 1915 L1454 1915 L1793 1576 Z" /></g><g class="o"><path transform="translate(9,18)" class="S sfv" d="M1315 1491 L1126 1680 L1126 1708 L1315 1519 Z"/><path class="fv1" d="M1315 1491 L1126 1680 L1126 1708 L1315 1519 Z" /></g><g class="o"><path transform="translate(2,4)" class="S sfv" d="M1809 1364 L1891 1446 L1891 1464 L1809 1382 Z"/><path class="fv3" d="M1809 1364 L1891 1446 L1891 1464 L1809 1382 Z" /></g><g class="o"><path transform="translate(2,4)" class="S sfh" d="M1035 1458 L315 2178 L353 2178 L1073 1458 Z"/><path class="fh1" d="M1035 1458 L315 2178 L353 2178 L1073 1458 Z" /></g><g class="o"><path transform="translate(4,8)" class="S ssv" d="M1616 1215 L1430 1401 L1430 1473 L1616 1287 Z"/><path class="sv4" d="M1616 1215 L1430 1401 L1430 1473 L1616 1287 Z" /></g><g class="o"><path transform="translate(4,8)" class="S sf" d="M1405 1023 L1576 1194 L1592 1194 L1421 1023 Z"/><path class="f2" d="M1405 1023 L1576 1194 L1592 1194 L1421 1023 Z" /></g><g class="o"><path transform="translate(3,6)" class="S ssv" d="M2013 1235 L1431 1817 L1431 1853 L2013 1271 Z"/><path class="sv7" d="M2013 1235 L1431 1817 L1431 1853 L2013 1271 Z" /></g><g class="o"><path transform="translate(7,14)" class="S sfv" d="M1835 1694 L2047 1906 L2047 2042 L1835 1830 Z"/><path class="fv5" d="M1835 1694 L2047 1906 L2047 2042 L1835 1830 Z" /></g><g class="o"><path transform="translate(7,14)" class="S sf" d="M1590 1661 L1740 1811 L1740 1845 L1590 1695 Z"/><path class="f2" d="M1590 1661 L1740 1811 L1740 1845 L1590 1695 Z" /></g><g class="o"><path transform="translate(9,18)" class="S sfv" d="M1542 1672 L1839 1969 L1839 1983 L1542 1686 Z"/><path class="fv2" d="M1542 1672 L1839 1969 L1839 1983 L1542 1686 Z" /></g><g class="o"><path transform="translate(9,18)" class="S sfv" d="M2035 1728 L2145 1838 L2145 1868 L2035 1758 Z"/><path class="fv3" d="M2035 1728 L2145 1838 L2145 1868 L2035 1758 Z" /></g><g class="o"><path transform="translate(2,4)" class="S sfh" d="M1939 1899 L1749 2089 L1785 2089 L1975 1899 Z"/><path class="fh4" d="M1939 1899 L1749 2089 L1785 2089 L1975 1899 Z" /></g><g class="o"><path transform="translate(3,6)" class="S sfh" d="M1302 1758 L1126 1934 L1164 1934 L1340 1758 Z"/><path class="fh1" d="M1302 1758 L1126 1934 L1164 1934 L1340 1758 Z" /></g><g class="o"><path transform="translate(2,4)" class="S sfv" d="M1160 1155 L1303 1298 L1303 1328 L1160 1185 Z"/><path class="fv3" d="M1160 1155 L1303 1298 L1303 1328 L1160 1185 Z" /></g><g class="o"><path transform="translate(9,18)" class="S sfh" d="M1424 1884 L1260 2048 L1290 2048 L1454 1884 Z"/><path class="fh3" d="M1424 1884 L1260 2048 L1290 2048 L1454 1884 Z" /></g><g class="o"><path transform="translate(3,6)" class="S sf" d="M1556 2032 L1347 2241 L1347 2269 L1556 2060 Z"/><path class="f2" d="M1556 2032 L1347 2241 L1347 2269 L1556 2060 Z" /></g><g class="o"><path transform="translate(5,10)" class="S sfv" d="M1472 2035 L1543 2106 L1543 2128 L1472 2057 Z"/><path class="fv1" d="M1472 2035 L1543 2106 L1543 2128 L1472 2057 Z" /></g><g class="o"><path transform="translate(6,12)" class="S ssv" d="M1945 1016 L2290 1361 L2290 1385 L1945 1040 Z"/><path class="sv4" d="M1945 1016 L2290 1361 L2290 1385 L1945 1040 Z" /></g><g class="o"><path transform="translate(6,12)" class="S sfh" d="M1162 1095 L926 1331 L936 1331 L1172 1095 Z"/><path class="fh3" d="M1162 1095 L926 1331 L936 1331 L1172 1095 Z" /></g><g class="o"><path transform="translate(2,4)" class="S sfh" d="M1442 993 L1626 1177 L1640 1177 L1456 993 Z"/><path class="fh5" d="M1442 993 L1626 1177 L1640 1177 L1456 993 Z" /></g><g class="o"><path transform="translate(4,8)" class="S sfh" d="M1592 1323 L2201 1932 L2345 1932 L1736 1323 Z"/><path class="fh6" d="M1592 1323 L2201 1932 L2345 1932 L1736 1323 Z" /></g><g class="o"><path transform="translate(2,4)" class="S sf" d="M1524 1405 L1266 1663 L1338 1663 L1596 1405 Z"/><path class="f2" d="M1524 1405 L1266 1663 L1338 1663 L1596 1405 Z" /></g><g class="o"><path transform="translate(2,4)" class="S sf" d="M1367 1646 L869 2144 L899 2144 L1397 1646 Z"/><path class="f2" d="M1367 1646 L869 2144 L899 2144 L1397 1646 Z" /></g><g class="o"><path transform="translate(5,10)" class="S sfv" d="M1065 1104 L1251 1290 L1251 1300 L1065 1114 Z"/><path class="fv7" d="M1065 1104 L1251 1290 L1251 1300 L1065 1114 Z" /></g><g class="o"><path transform="translate(7,14)" class="S sfh" d="M1250 1982 L1405 2137 L1429 2137 L1274 1982 Z"/><path class="fh4" d="M1250 1982 L1405 2137 L1429 2137 L1274 1982 Z" /></g><g class="o"><path transform="translate(7,14)" class="S ssh" d="M1385 1531 L2087 2233 L2105 2233 L1403 1531 Z"/><path class="sh2" d="M1385 1531 L2087 2233 L2105 2233 L1403 1531 Z" /></g><g class="o"><path transform="translate(8,16)" class="S sfv" d="M1203 1610 L981 1832 L981 1850 L1203 1628 Z"/><path class="fv5" d="M1203 1610 L981 1832 L981 1850 L1203 1628 Z" /></g><g class="o"><path transform="translate(4,8)" class="S sfv" d="M1471 1316 L1852 1697 L1852 1719 L1471 1338 Z"/><path class="fv6" d="M1471 1316 L1852 1697 L1852 1719 L1471 1338 Z" /></g><g class="o"><path transform="translate(9,18)" class="S sfh" d="M1293 1510 L1087 1716 L1115 1716 L1321 1510 Z"/><path class="fh6" d="M1293 1510 L1087 1716 L1115 1716 L1321 1510 Z" /></g><g class="o"><path transform="translate(8,16)" class="S ssh" d="M1045 986 L652 1379 L670 1379 L1063 986 Z"/><path class="sh5" d="M1045 986 L652 1379 L670 1379 L1063 986 Z" /></g><g class="o"><path transform="translate(4,8)" class="S sf" d="M1397 1216 L1165 1448 L1165 1480 L1397 1248 Z"/><path class="f2" d="M1397 1216 L1165 1448 L1165 1480 L1397 1248 Z" /></g><g class="o"><path transform="translate(2,4)" class="S sfv" d="M1277 949 L1440 1112 L1440 1132 L1277 969 Z"/><path class="fv4" d="M1277 949 L1440 1112 L1440 1132 L1277 969 Z" /></g><g class="o"><path transform="translate(2,4)" class="S sfh" d="M1774 1292 L2263 1781 L2399 1781 L1910 1292 Z"/><path class="fh4" d="M1774 1292 L2263 1781 L2399 1781 L1910 1292 Z" /></g><g class="o"><path transform="translate(7,14)" class="S sfh" d="M1810 1049 L1567 1292 L1589 1292 L1832 1049 Z"/><path class="fh5" d="M1810 1049 L1567 1292 L1589 1292 L1832 1049 Z" /></g><g class="o"><path transform="translate(3,6)" class="S sfh" d="M1874 1602 L2276 2004 L2292 2004 L1890 1602 Z"/><path class="fh5" d="M1874 1602 L2276 2004 L2292 2004 L1890 1602 Z" /></g><g class="o"><path transform="translate(4,8)" class="S sfv" d="M1096 1900 L865 2131 L865 2161 L1096 1930 Z"/><path class="fv4" d="M1096 1900 L865 2131 L865 2161 L1096 1930 Z" /></g><g class="o"><path transform="translate(6,12)" class="S sfv" d="M1180 947 L1005 1122 L1005 1150 L1180 975 Z"/><path class="fv5" d="M1180 947 L1005 1122 L1005 1150 L1180 975 Z" /></g><g class="o"><path transform="translate(5,10)" class="S sfv" d="M1323 1578 L1567 1822 L1567 1846 L1323 1602 Z"/><path class="fv2" d="M1323 1578 L1567 1822 L1567 1846 L1323 1602 Z" /></g><g class="o"><path transform="translate(6,12)" class="S sfh" d="M1446 1395 L720 2121 L728 2121 L1454 1395 Z"/><path class="fh3" d="M1446 1395 L720 2121 L728 2121 L1454 1395 Z" /></g><g class="o"><path transform="translate(2,4)" class="S ssh" d="M1064 1447 L825 1686 L837 1686 L1076 1447 Z"/><path class="sh6" d="M1064 1447 L825 1686 L837 1686 L1076 1447 Z" /></g><g class="o"><path transform="translate(9,18)" class="S sfv" d="M1343 1439 L1168 1614 L1168 1640 L1343 1465 Z"/><path class="fv6" d="M1343 1439 L1168 1614 L1168 1640 L1343 1465 Z" /></g><g class="o"><path transform="translate(9,18)" class="S sfv" d="M1433 1982 L1031 2384 L1031 2410 L1433 2008 Z"/><path class="fv4" d="M1433 1982 L1031 2384 L1031 2410 L1433 2008 Z" /></g><g class="o"><path transform="translate(3,6)" class="S sfv" d="M1396 1393 L1625 1622 L1625 1638 L1396 1409 Z"/><path class="fv3" d="M1396 1393 L1625 1622 L1625 1638 L1396 1409 Z" /></g><g class="o"><path transform="translate(8,16)" class="S sfv" d="M1227 1073 L1347 1193 L1347 1205 L1227 1085 Z"/><path class="fv4" d="M1227 1073 L1347 1193 L1347 1205 L1227 1085 Z" /></g><g class="o"><path transform="translate(9,18)" class="S sfh" d="M1187 1167 L1378 1358 L1402 1358 L1211 1167 Z"/><path class="fh2" d="M1187 1167 L1378 1358 L1402 1358 L1211 1167 Z" /></g><g class="o"><path transform="translate(8,16)" class="S sfh" d="M1095 1304 L881 1518 L889 1518 L1103 1304 Z"/><path class="fh6" d="M1095 1304 L881 1518 L889 1518 L1103 1304 Z" /></g><g class="o"><path transform="translate(4,8)" class="S sf" d="M1597 1700 L2116 2219 L2130 2219 L1611 1700 Z"/><path class="f4" d="M1597 1700 L2116 2219 L2130 2219 L1611 1700 Z" /></g><g class="o"><path transform="translate(9,18)" class="S sfv" d="M1841 1756 L2327 2242 L2327 2258 L1841 1772 Z"/><path class="fv1" d="M1841 1756 L2327 2242 L2327 2258 L1841 1772 Z" /></g><g class="o"><path transform="translate(2,4)" class="S sfv" d="M1329 1209 L1112 1426 L1112 1444 L1329 1227 Z"/><path class="fv2" d="M1329 1209 L1112 1426 L1112 1444 L1329 1227 Z" /></g><g class="o"><path transform="translate(8,16)" class="S sfh" d="M1928 1086 L1583 1431 L1605 1431 L1950 1086 Z"/><path class="fh4" d="M1928 1086 L1583 1431 L1605 1431 L1950 1086 Z" /></g><g class="o"><path transform="translate(9,18)" class="S sfv" d="M1123 1988 L694 2417 L694 2443 L1123 2014 Z"/><path class="fv4" d="M1123 1988 L694 2417 L694 2443 L1123 2014 Z" /></g><g class="o"><path transform="translate(7,14)" class="S sf" d="M1406 1740 L1171 1975 L1171 1989 L1406 1754 Z"/><path class="f2" d="M1406 1740 L1171 1975 L1171 1989 L1406 1754 Z" /></g><g class="o"><path transform="translate(8,16)" class="S sfh" d="M1493 1501 L1796 1804 L1860 1804 L1557 1501 Z"/><path class="fh7" d="M1493 1501 L1796 1804 L1860 1804 L1557 1501 Z" /></g><g class="o"><path transform="translate(4,8)" class="S sfh" d="M1654 1066 L1455 1265 L1469 1265 L1668 1066 Z"/><path class="fh2" d="M1654 1066 L1455 1265 L1469 1265 L1668 1066 Z" /></g><g class="o"><path transform="translate(8,16)" class="S sfv" d="M2008 1785 L2293 2070 L2293 2088 L2008 1803 Z"/><path class="fv4" d="M2008 1785 L2293 2070 L2293 2088 L2008 1803 Z" /></g><g class="o"><path transform="translate(2,4)" class="S sfh" d="M2025 1891 L1782 2134 L1804 2134 L2047 1891 Z"/><path class="fh1" d="M2025 1891 L1782 2134 L1804 2134 L2047 1891 Z" /></g><g class="o"><path transform="translate(7,14)" class="S sfh" d="M1981 1754 L2560 2333 L2584 2333 L2005 1754 Z"/><path class="fh1" d="M1981 1754 L2560 2333 L2584 2333 L2005 1754 Z" /></g><g class="o"><path transform="translate(2,4)" class="S sfh" d="M1274 1912 L1577 2215 L1593 2215 L1290 1912 Z"/><path class="fh4" d="M1274 1912 L1577 2215 L1593 2215 L1290 1912 Z" /></g><g class="o"><path transform="translate(6,12)" class="S ss" d="M1493 1731 L1637 1875 L1637 1897 L1493 1753 Z"/><path class="s2" d="M1493 1731 L1637 1875 L1637 1897 L1493 1753 Z" /></g><g class="o"><path transform="translate(4,8)" class="S sfv" d="M1008 1927 L1141 2060 L1141 2094 L1008 1961 Z"/><path class="fv2" d="M1008 1927 L1141 2060 L1141 2094 L1008 1961 Z" /></g><g class="o"><path transform="translate(3,6)" class="S sf" d="M1638 1484 L1567 1555 L1585 1555 L1656 1484 Z"/><path class="f2" d="M1638 1484 L1567 1555 L1585 1555 L1656 1484 Z" /></g><g class="o"><path transform="translate(9,18)" class="S sfh" d="M968 964 L1095 1091 L1127 1091 L1000 964 Z"/><path class="fh4" d="M968 964 L1095 1091 L1127 1091 L1000 964 Z" /></g><g class="o"><path transform="translate(4,8)" class="S sfv" d="M2011 1215 L1838 1388 L1838 1422 L2011 1249 Z"/><path class="fv1" d="M2011 1215 L1838 1388 L1838 1422 L2011 1249 Z" /></g><g class="o"><path transform="translate(5,10)" class="S sfv" d="M1242 1023 L1008 1257 L1008 1295 L1242 1061 Z"/><path class="fv5" d="M1242 1023 L1008 1257 L1008 1295 L1242 1061 Z" /></g><g class="o"><path transform="translate(8,16)" class="S sf" d="M2024 1609 L1876 1757 L1876 1783 L2024 1635 Z"/><path class="f2" d="M2024 1609 L1876 1757 L1876 1783 L2024 1635 Z" /></g><g class="o"><path transform="translate(9,18)" class="S sf" d="M953 990 L1301 1338 L1301 1356 L953 1008 Z"/><path class="f2" d="M953 990 L1301 1338 L1301 1356 L953 1008 Z" /></g><g class="o"><path transform="translate(5,10)" class="S sfh" d="M1299 1348 L1086 1561 L1098 1561 L1311 1348 Z"/><path class="fh5" d="M1299 1348 L1086 1561 L1098 1561 L1311 1348 Z" /></g><g class="o"><path transform="translate(5,10)" class="S ss" d="M1508 1314 L1347 1475 L1499 1475 L1660 1314 Z"/><path class="s1" d="M1508 1314 L1347 1475 L1499 1475 L1660 1314 Z" /></g><g class="o"><path transform="translate(7,14)" class="S sfv" d="M1209 1581 L717 2073 L717 2111 L1209 1619 Z"/><path class="fv5" d="M1209 1581 L717 2073 L717 2111 L1209 1619 Z" /></g><g class="o"><path transform="translate(8,16)" class="S sfv" d="M1374 1249 L648 1975 L648 1985 L1374 1259 Z"/><path class="fv6" d="M1374 1249 L648 1975 L648 1985 L1374 1259 Z" /></g><g class="o"><path transform="translate(9,18)" class="S sfv" d="M1560 1817 L1359 2018 L1359 2082 L1560 1881 Z"/><path class="fv3" d="M1560 1817 L1359 2018 L1359 2082 L1560 1881 Z" /></g><g class="o"><path transform="translate(8,16)" class="S sfh" d="M1691 1267 L1244 1714 L1270 1714 L1717 1267 Z"/><path class="fh4" d="M1691 1267 L1244 1714 L1270 1714 L1717 1267 Z" /></g><g class="o"><path transform="translate(6,12)" class="S ssh" d="M938 1751 L1631 2444 L1663 2444 L970 1751 Z"/><path class="sh4" d="M938 1751 L1631 2444 L1663 2444 L970 1751 Z" /></g><g class="o"><path transform="translate(7,14)" class="S ssh" d="M965 1302 L1209 1546 L1227 1546 L983 1302 Z"/><path class="sh2" d="M965 1302 L1209 1546 L1227 1546 L983 1302 Z" /></g><g class="o"><path transform="translate(9,18)" class="S sf" d="M1266 2038 L1461 2233 L1487 2233 L1292 2038 Z"/><path class="f2" d="M1266 2038 L1461 2233 L1487 2233 L1292 2038 Z" /></g><g class="o"><path transform="translate(8,16)" class="S ssv" d="M1848 1601 L2059 1812 L2059 1828 L1848 1617 Z"/><path class="sv7" d="M1848 1601 L2059 1812 L2059 1828 L1848 1617 Z" /></g><g class="o"><path transform="translate(5,10)" class="S sfv" d="M1793 1273 L1445 1621 L1445 1641 L1793 1293 Z"/><path class="fv2" d="M1793 1273 L1445 1621 L1445 1641 L1793 1293 Z" /></g><g class="o"><path transform="translate(2,4)" class="S sfh" d="M1703 1553 L1763 1613 L1793 1613 L1733 1553 Z"/><path class="fh3" d="M1703 1553 L1763 1613 L1793 1613 L1733 1553 Z" /></g><g class="o"><path transform="translate(9,18)" class="S sfh" d="M1620 2036 L1206 2450 L1228 2450 L1642 2036 Z"/><path class="fh3" d="M1620 2036 L1206 2450 L1228 2450 L1642 2036 Z" /></g><g class="o"><path transform="translate(5,10)" class="S ss" d="M1467 1880 L1716 2129 L1728 2129 L1479 1880 Z"/><path class="s1" d="M1467 1880 L1716 2129 L1728 2129 L1479 1880 Z" /></g><g class="o"><path transform="translate(7,14)" class="S ssv" d="M1906 1610 L1507 2009 L1507 2027 L1906 1628 Z"/><path class="sv6" d="M1906 1610 L1507 2009 L1507 2027 L1906 1628 Z" /></g><g class="o"><path transform="translate(5,10)" class="S ssv" d="M1549 1776 L1621 1848 L1621 1868 L1549 1796 Z"/><path class="sv4" d="M1549 1776 L1621 1848 L1621 1868 L1549 1796 Z" /></g><g class="o"><path transform="translate(2,4)" class="S sfv" d="M1961 1232 L2192 1463 L2192 1473 L1961 1242 Z"/><path class="fv3" d="M1961 1232 L2192 1463 L2192 1473 L1961 1242 Z" /></g><g class="o"><path transform="translate(3,6)" class="S sfv" d="M1193 1374 L1028 1539 L1028 1551 L1193 1386 Z"/><path class="fv3" d="M1193 1374 L1028 1539 L1028 1551 L1193 1386 Z" /></g><g class="o"><path transform="translate(5,10)" class="S sfv" d="M1528 1721 L1303 1946 L1303 1954 L1528 1729 Z"/><path class="fv5" d="M1528 1721 L1303 1946 L1303 1954 L1528 1729 Z" /></g><g class="o"><path transform="translate(3,6)" class="S sfv" d="M1336 1811 L1436 1911 L1436 2031 L1336 1931 Z"/><path class="fv5" d="M1336 1811 L1436 1911 L1436 2031 L1336 1931 Z" /></g><g class="o"><path transform="translate(4,8)" class="S ss" d="M1873 1074 L2314 1515 L2314 1541 L1873 1100 Z"/><path class="s1" d="M1873 1074 L2314 1515 L2314 1541 L1873 1100 Z" /></g><g class="o"><path transform="translate(3,6)" class="S sfh" d="M1622 1705 L1700 1783 L1726 1783 L1648 1705 Z"/><path class="fh3" d="M1622 1705 L1700 1783 L1726 1783 L1648 1705 Z" /></g><g class="o"><path transform="translate(8,16)" class="S sfv" d="M1871 1435 L2444 2008 L2444 2032 L1871 1459 Z"/><path class="fv4" d="M1871 1435 L2444 2008 L2444 2032 L1871 1459 Z" /></g><g class="o"><path transform="translate(8,16)" class="S sfv" d="M1005 1220 L908 1317 L908 1329 L1005 1232 Z"/><path class="fv1" d="M1005 1220 L908 1317 L908 1329 L1005 1232 Z" /></g><g class="o"><path transform="translate(5,10)" class="S sf" d="M1605 1649 L1763 1807 L1763 1821 L1605 1663 Z"/><path class="f7" d="M1605 1649 L1763 1807 L1763 1821 L1605 1663 Z" /></g><g class="o"><path transform="translate(4,8)" class="S sfh" d="M1387 1823 L1215 1995 L1241 1995 L1413 1823 Z"/><path class="fh3" d="M1387 1823 L1215 1995 L1241 1995 L1413 1823 Z" /></g><g class="o"><path transform="translate(2,4)" class="S ssh" d="M1193 1868 L1904 2579 L1914 2579 L1203 1868 Z"/><path class="sh4" d="M1193 1868 L1904 2579 L1914 2579 L1203 1868 Z" /></g><g class="o"><path transform="translate(3,6)" class="S ssv" d="M1342 1982 L862 2462 L862 2476 L1342 1996 Z"/><path class="sv4" d="M1342 1982 L862 2462 L862 2476 L1342 1996 Z" /></g><g class="o"><path transform="translate(2,4)" class="S sf" d="M1237 1712 L799 2150 L809 2150 L1247 1712 Z"/><path class="f1" d="M1237 1712 L799 2150 L809 2150 L1247 1712 Z" /></g><g class="o"><path transform="translate(6,12)" class="S ss" d="M1869 1902 L2105 2138 L2105 2150 L1869 1914 Z"/><path class="s5" d="M1869 1902 L2105 2138 L2105 2150 L1869 1914 Z" /></g><g class="o"><path transform="translate(2,4)" class="S ssh" d="M1683 1068 L1395 1356 L1475 1356 L1763 1068 Z"/><path class="sh5" d="M1683 1068 L1395 1356 L1475 1356 L1763 1068 Z" /></g><g class="o"><path transform="translate(6,12)" class="S sf" d="M1162 1705 L1327 1870 L1327 1892 L1162 1727 Z"/><path class="f2" d="M1162 1705 L1327 1870 L1327 1892 L1162 1727 Z" /></g><g class="o"><path transform="translate(5,10)" class="S ss" d="M1432 1091 L1373 1150 L1405 1150 L1464 1091 Z"/><path class="s1" d="M1432 1091 L1373 1150 L1405 1150 L1464 1091 Z" /></g><g class="o"><path transform="translate(2,4)" class="S ssh" d="M1061 1340 L941 1460 L979 1460 L1099 1340 Z"/><path class="sh1" d="M1061 1340 L941 1460 L979 1460 L1099 1340 Z" /></g><g class="o"><path transform="translate(5,10)" class="S sfh" d="M1906 1775 L2098 1967 L2124 1967 L1932 1775 Z"/><path class="fh5" d="M1906 1775 L2098 1967 L2124 1967 L1932 1775 Z" /></g><g class="o"><path transform="translate(2,4)" class="S sfh" d="M1428 1652 L1227 1853 L1257 1853 L1458 1652 Z"/><path class="fh6" d="M1428 1652 L1227 1853 L1257 1853 L1458 1652 Z" /></g><g class="o"><path transform="translate(3,6)" class="S sfh" d="M1553 1782 L1724 1953 L1732 1953 L1561 1782 Z"/><path class="fh2" d="M1553 1782 L1724 1953 L1732 1953 L1561 1782 Z" /></g><g class="o"><path transform="translate(4,8)" class="S sfv" d="M1781 1712 L1917 1848 L1917 1882 L1781 1746 Z"/><path class="fv5" d="M1781 1712 L1917 1848 L1917 1882 L1781 1746 Z" /></g><g class="o"><path transform="translate(8,16)" class="S sfv" d="M1876 1209 L1730 1355 L1730 1379 L1876 1233 Z"/><path class="fv6" d="M1876 1209 L1730 1355 L1730 1379 L1876 1233 Z" /></g><g class="o"><path transform="translate(6,12)" class="S sfv" d="M1878 1906 L2196 2224 L2196 2238 L1878 1920 Z"/><path class="fv6" d="M1878 1906 L2196 2224 L2196 2238 L1878 1920 Z" /></g><g class="o"><path transform="translate(3,6)" class="S sfh" d="M1123 2042 L1041 2124 L1097 2124 L1179 2042 Z"/><path class="fh3" d="M1123 2042 L1041 2124 L1097 2124 L1179 2042 Z" /></g><g class="o"><path transform="translate(6,12)" class="S sf" d="M1492 1180 L1668 1356 L1668 1428 L1492 1252 Z"/><path class="f7" d="M1492 1180 L1668 1356 L1668 1428 L1492 1252 Z" /></g><g class="o"><path transform="translate(5,10)" class="S sfv" d="M1411 1372 L1006 1777 L1006 1813 L1411 1408 Z"/><path class="fv4" d="M1411 1372 L1006 1777 L1006 1813 L1411 1408 Z" /></g><g class="o"><path transform="translate(3,6)" class="S sfh" d="M1983 1581 L1785 1779 L1809 1779 L2007 1581 Z"/><path class="fh4" d="M1983 1581 L1785 1779 L1809 1779 L2007 1581 Z" /></g><g class="o"><path transform="translate(3,6)" class="S sfv" d="M2002 1461 L2244 1703 L2244 1737 L2002 1495 Z"/><path class="fv5" d="M2002 1461 L2244 1703 L2244 1737 L2002 1495 Z" /></g><g class="o"><path transform="translate(9,18)" class="S sfv" d="M1473 1413 L1237 1649 L1237 1667 L1473 1431 Z"/><path class="fv5" d="M1473 1413 L1237 1649 L1237 1667 L1473 1431 Z" /></g><g class="o"><path transform="translate(5,10)" class="S sfv" d="M1054 1770 L1663 2379 L1663 2391 L1054 1782 Z"/><path class="fv3" d="M1054 1770 L1663 2379 L1663 2391 L1054 1782 Z" /></g><g class="o"><path transform="translate(8,16)" class="S sfv" d="M2043 1204 L1803 1444 L1803 1476 L2043 1236 Z"/><path class="fv7" d="M2043 1204 L1803 1444 L1803 1476 L2043 1236 Z" /></g><g class="o"><path transform="translate(3,6)" class="S sf" d="M1255 1529 L1780 2054 L1794 2054 L1269 1529 Z"/><path class="f3" d="M1255 1529 L1780 2054 L1794 2054 L1269 1529 Z" /></g><g class="o"><path transform="translate(3,6)" class="S sfv" d="M1043 1085 L1279 1321 L1279 1329 L1043 1093 Z"/><path class="fv2" d="M1043 1085 L1279 1321 L1279 1329 L1043 1093 Z" /></g><g class="o"><path transform="translate(3,6)" class="S ssv" d="M1855 1415 L2051 1611 L2051 1645 L1855 1449 Z"/><path class="sv7" d="M1855 1415 L2051 1611 L2051 1645 L1855 1449 Z" /></g><g class="o"><path transform="translate(5,10)" class="S sfv" d="M1218 1367 L1563 1712 L1563 1742 L1218 1397 Z"/><path class="fv6" d="M1218 1367 L1563 1712 L1563 1742 L1218 1397 Z" /></g><g class="o"><path transform="translate(6,12)" class="S ssv" d="M1799 1273 L2402 1876 L2402 1908 L1799 1305 Z"/><path class="sv3" d="M1799 1273 L2402 1876 L2402 1908 L1799 1305 Z" /></g><g class="o"><path transform="translate(9,18)" class="S sfh" d="M1823 1158 L2033 1368 L2059 1368 L1849 1158 Z"/><path class="fh6" d="M1823 1158 L2033 1368 L2059 1368 L1849 1158 Z" /></g><g class="o"><path transform="translate(4,8)" class="S sfh" d="M1429 1796 L739 2486 L769 2486 L1459 1796 Z"/><path class="fh6" d="M1429 1796 L739 2486 L769 2486 L1459 1796 Z" /></g><g class="o"><path transform="translate(9,18)" class="S ssv" d="M1212 1797 L1038 1971 L1038 1985 L1212 1811 Z"/><path class="sv3" d="M1212 1797 L1038 1971 L1038 1985 L1212 1811 Z" /></g><g class="o"><path transform="translate(2,4)" class="S sfv" d="M1264 1952 L529 2687 L529 2705 L1264 1970 Z"/><path class="fv6" d="M1264 1952 L529 2687 L529 2705 L1264 1970 Z" /></g><g class="o"><path transform="translate(6,12)" class="S sf" d="M1852 1434 L2428 2010 L2450 2010 L1874 1434 Z"/><path class="f4" d="M1852 1434 L2428 2010 L2450 2010 L1874 1434 Z" /></g><g class="o"><path transform="translate(9,18)" class="S sfh" d="M1944 1909 L1707 2146 L1827 2146 L2064 1909 Z"/><path class="fh4" d="M1944 1909 L1707 2146 L1827 2146 L2064 1909 Z" /></g><g class="o"><path transform="translate(2,4)" class="S ssh" d="M1321 1831 L994 2158 L1020 2158 L1347 1831 Z"/><path class="sh7" d="M1321 1831 L994 2158 L1020 2158 L1347 1831 Z" /></g><g class="o"><path transform="translate(9,18)" class="S sfh" d="M1052 1969 L320 2701 L344 2701 L1076 1969 Z"/><path class="fh6" d="M1052 1969 L320 2701 L344 2701 L1076 1969 Z" /></g><g class="o"><path transform="translate(2,4)" class="S sfh" d="M1329 1092 L1089 1332 L1097 1332 L1337 1092 Z"/><path class="fh3" d="M1329 1092 L1089 1332 L1097 1332 L1337 1092 Z" /></g><g class="o"><path transform="translate(7,14)" class="S sfh" d="M968 1058 L1136 1226 L1152 1226 L984 1058 Z"/><path class="fh4" d="M968 1058 L1136 1226 L1152 1226 L984 1058 Z" /></g><g class="o"><path transform="translate(7,14)" class="S ssh" d="M1718 1679 L1494 1903 L1532 1903 L1756 1679 Z"/><path class="sh3" d="M1718 1679 L1494 1903 L1532 1903 L1756 1679 Z" /></g><g class="o"><path transform="translate(5,10)" class="S ssh" d="M1176 1693 L1408 1925 L1430 1925 L1198 1693 Z"/><path class="sh7" d="M1176 1693 L1408 1925 L1430 1925 L1198 1693 Z" /></g><g class="o"><path transform="translate(7,14)" class="S sf" d="M1617 1761 L1836 1980 L1872 1980 L1653 1761 Z"/><path class="f2" d="M1617 1761 L1836 1980 L1872 1980 L1653 1761 Z" /></g><g class="o"><path transform="translate(2,4)" class="S sfv" d="M1565 1198 L1669 1302 L1669 1312 L1565 1208 Z"/><path class="fv6" d="M1565 1198 L1669 1302 L1669 1312 L1565 1208 Z" /></g><g class="o"><path transform="translate(7,14)" class="S ss" d="M1981 1424 L1805 1600 L1805 1624 L1981 1448 Z"/><path class="s4" d="M1981 1424 L1805 1600 L1805 1624 L1981 1448 Z" /></g><g class="o"><path transform="translate(5,10)" class="S ssv" d="M2027 1410 L1940 1497 L1940 1521 L2027 1434 Z"/><path class="sv5" d="M2027 1410 L1940 1497 L1940 1521 L2027 1434 Z" /></g></g><use href="#slashes" transform-origin="1500 1500" transform="rotate(180) scale(2)"/></g><rect x="1080" y="1080" width="840" height="840" stroke-width="20" class="o s6" /><use href="#slashes" transform-origin="1500 1500" transform="scale(.9)"/><use href="#slashes" transform-origin="1500 1500" transform="rotate(180) scale(.9)"/></svg>