<svg xmlns="http://www.w3.org/2000/svg" viewBox="750 750 1500 1500"><style>/*<![CDATA[*/svg{background:rgb(17,138,178);max-width:100vw;max-height:100vh}path{stroke-width:4}.o{opacity:.75}.S{opacity:.4}.sf{stroke:none;fill:black}.sfh{stroke:none;fill:url(#hs)}.sfv{stroke:none;fill:url(#vs)}.ss{stroke:black;fill:none}.ssh{stroke:url(#hs);fill:none}.ssv{stroke:url(#vs);fill:none}.s1{fill:none;stroke:rgb(239,71,111)}.f1{stroke:none;fill:rgb(239,71,111)}.sh1{fill:none;stroke:url(#h1)}.fh1{stroke:none;fill:url(#h1)}.sv1{fill:none;stroke:url(#v1)}.fv1{stroke:none;fill:url(#v1)}.s2{fill:none;stroke:rgb(7,59,76)}.f2{stroke:none;fill:rgb(7,59,76)}.sh2{fill:none;stroke:url(#h2)}.fh2{stroke:none;fill:url(#h2)}.sv2{fill:none;stroke:url(#v2)}.fv2{stroke:none;fill:url(#v2)}.s3{fill:none;stroke:rgb(255,209,102)}.f3{stroke:none;fill:rgb(255,209,102)}.sh3{fill:none;stroke:url(#h3)}.fh3{stroke:none;fill:url(#h3)}.sv3{fill:none;stroke:url(#v3)}.fv3{stroke:none;fill:url(#v3)}.s4{fill:none;stroke:rgb(34,34,34)}.f4{stroke:none;fill:rgb(34,34,34)}.sh4{fill:none;stroke:url(#h4)}.fh4{stroke:none;fill:url(#h4)}.sv4{fill:none;stroke:url(#v4)}.fv4{stroke:none;fill:url(#v4)}.s5{fill:none;stroke:rgb(6,214,160)}.f5{stroke:none;fill:rgb(6,214,160)}.sh5{fill:none;stroke:url(#h5)}.fh5{stroke:none;fill:url(#h5)}.sv5{fill:none;stroke:url(#v5)}.fv5{stroke:none;fill:url(#v5)}.s6{fill:none;stroke:rgb(255,255,255)}.f6{stroke:none;fill:rgb(255,255,255)}.sh6{fill:none;stroke:url(#h6)}.fh6{stroke:none;fill:url(#h6)}.sv6{fill:none;stroke:url(#v6)}.fv6{stroke:none;fill:url(#v6)}.s7{fill:none;stroke:rgb(255,0,0)}.f7{stroke:none;fill:rgb(255,0,0)}.sh7{fill:none;stroke:url(#h7)}.fh7{stroke:none;fill:url(#h7)}.sv7{fill:none;stroke:url(#v7)}.fv7{stroke:none;fill:url(#v7)}/*]]>*/</style><defs><linearGradient gradientTransform="rotate(90)" id="hs"><stop offset="20%" stop-color="#000" /><stop offset="95%" stop-color="rgba(0, 0, 0, 0)" /></linearGradient><linearGradient id="vs"><stop offset="20%" stop-color="#000" /><stop offset="95%" stop-color="rgba(0, 0, 0, 0)" /></linearGradient><linearGradient gradientTransform="rotate(90)" id="h1"><stop offset="20%" stop-color="rgba(239,71,111,1)" /><stop offset="95%" stop-color="rgba(239,71,111,0)" /></linearGradient><linearGradient id="v1"><stop offset="20%" stop-color="rgba(239,71,111,1)" /><stop offset="95%" stop-color="rgba(239,71,111,0)" /></linearGradient><linearGradient gradientTransform="rotate(90)" id="h2"><stop offset="20%" stop-color="rgba(7,59,76,1)" /><stop offset="95%" stop-color="rgba(7,59,76,0)" /></linearGradient><linearGradient id="v2"><stop offset="20%" stop-color="rgba(7,59,76,1)" /><stop offset="95%" stop-color="rgba(7,59,76,0)" /></linearGradient><linearGradient gradientTransform="rotate(90)" id="h3"><stop offset="20%" stop-color="rgba(255,209,102,1)" /><stop offset="95%" stop-color="rgba(255,209,102,0)" /></linearGradient><linearGradient id="v3"><stop offset="20%" stop-color="rgba(255,209,102,1)" /><stop offset="95%" stop-color="rgba(255,209,102,0)" /></linearGradient><linearGradient gradientTransform="rotate(90)" id="h4"><stop offset="20%" stop-color="rgba(34,34,34,1)" /><stop offset="95%" stop-color="rgba(34,34,34,0)" /></linearGradient><linearGradient id="v4"><stop offset="20%" stop-color="rgba(34,34,34,1)" /><stop offset="95%" stop-color="rgba(34,34,34,0)" /></linearGradient><linearGradient gradientTransform="rotate(90)" id="h5"><stop offset="20%" stop-color="rgba(6,214,160,1)" /><stop offset="95%" stop-color="rgba(6,214,160,0)" /></linearGradient><linearGradient id="v5"><stop offset="20%" stop-color="rgba(6,214,160,1)" /><stop offset="95%" stop-color="rgba(6,214,160,0)" /></linearGradient><linearGradient gradientTransform="rotate(90)" id="h6"><stop offset="20%" stop-color="rgba(255,255,255,1)" /><stop offset="95%" stop-color="rgba(255,255,255,0)" /></linearGradient><linearGradient id="v6"><stop offset="20%" stop-color="rgba(255,255,255,1)" /><stop offset="95%" stop-color="rgba(255,255,255,0)" /></linearGradient><linearGradient gradientTransform="rotate(90)" id="h7"><stop offset="20%" stop-color="rgba(255,0,0,1)" /><stop offset="95%" stop-color="rgba(255,0,0,0)" /></linearGradient><linearGradient id="v7"><stop offset="20%" stop-color="rgba(255,0,0,1)" /><stop offset="95%" stop-color="rgba(255,0,0,0)" /></linearGradient></defs><g transform-origin="1500 1500" transform="scale(2)" opacity=".2"><g id="slashes"><g class="o"><path transform="translate(3,6)" class="S ss" d="M1427 1469 L1570 1612 L1586 1612 L1443 1469 Z"/><path class="s1" d="M1427 1469 L1570 1612 L1586 1612 L1443 1469 Z" /></g><g class="o"><path transform="translate(2,4)" class="S ssh" d="M1910 1024 L2069 1183 L2077 1183 L1918 1024 Z"/><path class="sh1" d="M1910 1024 L2069 1183 L2077 1183 L1918 1024 Z" /></g><g class="o"><path transform="translate(4,8)" class="S ssv" d="M1981 1942 L2072 2033 L2072 2063 L1981 1972 Z"/><path class="sv2" d="M1981 1942 L2072 2033 L2072 2063 L1981 1972 Z" /></g><g class="o"><path transform="translate(8,16)" class="S sfv" d="M1811 1166 L1966 1011 L1966 1037 L1811 1192 Z"/><path class="fv7" d="M1811 1166 L1966 1011 L1966 1037 L1811 1192 Z" /></g><g class="o"><path transform="translate(3,6)" class="S sfv" d="M1860 1369 L2115 1114 L2115 1128 L1860 1383 Z"/><path class="fv2" d="M1860 1369 L2115 1114 L2115 1128 L1860 1383 Z" /></g><g class="o"><path transform="translate(2,4)" class="S ssh" d="M1908 1404 L2135 1177 L2163 1177 L1936 1404 Z"/><path class="sh2" d="M1908 1404 L2135 1177 L2163 1177 L1936 1404 Z" /></g><g class="o"><path transform="translate(9,18)" class="S sfh" d="M1168 1417 L1882 2131 L1892 2131 L1178 1417 Z"/><path class="fh5" d="M1168 1417 L1882 2131 L1892 2131 L1178 1417 Z" /></g><g class="o"><path transform="translate(4,8)" class="S ss" d="M1571 1992 L1672 1891 L1672 1921 L1571 2022 Z"/><path class="s1" d="M1571 1992 L1672 1891 L1672 1921 L1571 2022 Z" /></g><g class="o"><path transform="translate(7,14)" class="S sfv" d="M1819 1872 L2158 1533 L2158 1567 L1819 1906 Z"/><path class="fv4" d="M1819 1872 L2158 1533 L2158 1567 L1819 1906 Z" /></g><g class="o"><path transform="translate(6,12)" class="S sfv" d="M1565 1442 L1800 1677 L1800 1757 L1565 1522 Z"/><path class="fv1" d="M1565 1442 L1800 1677 L1800 1757 L1565 1522 Z" /></g><g class="o"><path transform="translate(3,6)" class="S sf" d="M1627 1767 L1933 2073 L1933 2103 L1627 1797 Z"/><path class="f5" d="M1627 1767 L1933 2073 L1933 2103 L1627 1797 Z" /></g><g class="o"><path transform="translate(8,16)" class="S sfv" d="M1918 1399 L2066 1251 L2066 1315 L1918 1463 Z"/><path class="fv7" d="M1918 1399 L2066 1251 L2066 1315 L1918 1463 Z" /></g><g class="o"><path transform="translate(9,18)" class="S sfv" d="M1972 1776 L2057 1691 L2057 1723 L1972 1808 Z"/><path class="fv4" d="M1972 1776 L2057 1691 L2057 1723 L1972 1808 Z" /></g><g class="o"><path transform="translate(7,14)" class="S sfh" d="M1512 2032 L1736 1808 L1758 1808 L1534 2032 Z"/><path class="fh7" d="M1512 2032 L1736 1808 L1758 1808 L1534 2032 Z" /></g><g class="o"><path transform="translate(6,12)" class="S sfh" d="M2032 1388 L2237 1183 L2255 1183 L2050 1388 Z"/><path class="fh3" d="M2032 1388 L2237 1183 L2255 1183 L2050 1388 Z" /></g><g class="o"><path transform="translate(2,4)" class="S sfh" d="M956 1288 L1202 1534 L1212 1534 L966 1288 Z"/><path class="fh1" d="M956 1288 L1202 1534 L1212 1534 L966 1288 Z" /></g><g class="o"><path transform="translate(3,6)" class="S sfv" d="M1614 1628 L1745 1497 L1745 1531 L1614 1662 Z"/><path class="fv7" d="M1614 1628 L1745 1497 L1745 1531 L1614 1662 Z" /></g><g class="o"><path transform="translate(3,6)" class="S sf" d="M1222 1745 L1351 1874 L1361 1874 L1232 1745 Z"/><path class="f2" d="M1222 1745 L1351 1874 L1361 1874 L1232 1745 Z" /></g><g class="o"><path transform="translate(2,4)" class="S sfv" d="M1683 1649 L2415 917 L2415 935 L1683 1667 Z"/><path class="fv3" d="M1683 1649 L2415 917 L2415 935 L1683 1667 Z" /></g><g class="o"><path transform="translate(7,14)" class="S ssh" d="M1676 2006 L1728 2058 L1756 2058 L1704 2006 Z"/><path class="sh1" d="M1676 2006 L1728 2058 L1756 2058 L1704 2006 Z" /></g><g class="o"><path transform="translate(6,12)" class="S sfh" d="M1971 1286 L2098 1159 L2122 1159 L1995 1286 Z"/><path class="fh1" d="M1971 1286 L2098 1159 L2122 1159 L1995 1286 Z" /></g><g class="o"><path transform="translate(2,4)" class="S sf" d="M1709 976 L1782 1049 L1782 1075 L1709 1002 Z"/><path class="f1" d="M1709 976 L1782 1049 L1782 1075 L1709 1002 Z" /></g><g class="o"><path transform="translate(7,14)" class="S sfh" d="M1472 1504 L1665 1697 L1687 1697 L1494 1504 Z"/><path class="fh5" d="M1472 1504 L1665 1697 L1687 1697 L1494 1504 Z" /></g><g class="o"><path transform="translate(9,18)" class="S ssv" d="M1227 1622 L1365 1760 L1365 1856 L1227 1718 Z"/><path class="sv4" d="M1227 1622 L1365 1760 L1365 1856 L1227 1718 Z" /></g><g class="o"><path transform="translate(7,14)" class="S ssv" d="M1066 1349 L1130 1285 L1130 1321 L1066 1385 Z"/><path class="sv6" d="M1066 1349 L1130 1285 L1130 1321 L1066 1385 Z" /></g><g class="o"><path transform="translate(9,18)" class="S ssh" d="M1407 1319 L1552 1174 L1560 1174 L1415 1319 Z"/><path class="sh4" d="M1407 1319 L1552 1174 L1560 1174 L1415 1319 Z" /></g><g class="o"><path transform="translate(9,18)" class="S sf" d="M1025 1239 L1165 1099 L1175 1099 L1035 1239 Z"/><path class="f1" d="M1025 1239 L1165 1099 L1175 1099 L1035 1239 Z" /></g><g class="o"><path transform="translate(9,18)" class="S sf" d="M1433 2006 L1601 1838 L1601 1848 L1433 2016 Z"/><path class="f4" d="M1433 2006 L1601 1838 L1601 1848 L1433 2016 Z" /></g><g class="o"><path transform="translate(3,6)" class="S sfh" d="M1458 1000 L1699 759 L1717 759 L1476 1000 Z"/><path class="fh1" d="M1458 1000 L1699 759 L1717 759 L1476 1000 Z" /></g><g class="o"><path transform="translate(9,18)" class="S sfv" d="M1822 1333 L1920 1431 L1920 1467 L1822 1369 Z"/><path class="fv7" d="M1822 1333 L1920 1431 L1920 1467 L1822 1369 Z" /></g><g class="o"><path transform="translate(3,6)" class="S sfh" d="M1463 1329 L1535 1257 L1567 1257 L1495 1329 Z"/><path class="fh2" d="M1463 1329 L1535 1257 L1567 1257 L1495 1329 Z" /></g><g class="o"><path transform="translate(6,12)" class="S sfv" d="M1214 1779 L1298 1863 L1298 1897 L1214 1813 Z"/><path class="fv3" d="M1214 1779 L1298 1863 L1298 1897 L1214 1813 Z" /></g><g class="o"><path transform="translate(7,14)" class="S sfh" d="M1915 1638 L2117 1840 L2141 1840 L1939 1638 Z"/><path class="fh4" d="M1915 1638 L2117 1840 L2141 1840 L1939 1638 Z" /></g><g class="o"><path transform="translate(4,8)" class="S sfv" d="M971 1550 L1592 929 L1592 953 L971 1574 Z"/><path class="fv1" d="M971 1550 L1592 929 L1592 953 L971 1574 Z" /></g><g class="o"><path transform="translate(6,12)" class="S sfv" d="M1804 1969 L1920 2085 L1920 2123 L1804 2007 Z"/><path class="fv5" d="M1804 1969 L1920 2085 L1920 2123 L1804 2007 Z" /></g><g class="o"><path transform="translate(8,16)" class="S sfh" d="M1158 1989 L1256 2087 L1368 2087 L1270 1989 Z"/><path class="fh1" d="M1158 1989 L1256 2087 L1368 2087 L1270 1989 Z" /></g><g class="o"><path transform="translate(3,6)" class="S sfv" d="M1577 1267 L1792 1052 L1792 1078 L1577 1293 Z"/><path class="fv3" d="M1577 1267 L1792 1052 L1792 1078 L1577 1293 Z" /></g><g class="o"><path transform="translate(8,16)" class="S ss" d="M1620 993 L1684 1057 L1716 1057 L1652 993 Z"/><path class="s7" d="M1620 993 L1684 1057 L1716 1057 L1652 993 Z" /></g><g class="o"><path transform="translate(7,14)" class="S sfv" d="M1878 1207 L2023 1062 L2023 1096 L1878 1241 Z"/><path class="fv5" d="M1878 1207 L2023 1062 L2023 1096 L1878 1241 Z" /></g><g class="o"><path transform="translate(4,8)" class="S sfh" d="M1398 1853 L1509 1964 L1545 1964 L1434 1853 Z"/><path class="fh2" d="M1398 1853 L1509 1964 L1545 1964 L1434 1853 Z" /></g><g class="o"><path transform="translate(6,12)" class="S sfh" d="M1467 1433 L1669 1635 L1705 1635 L1503 1433 Z"/><path class="fh7" d="M1467 1433 L1669 1635 L1705 1635 L1503 1433 Z" /></g><g class="o"><path transform="translate(5,10)" class="S sfv" d="M1836 1244 L2024 1432 L2024 1464 L1836 1276 Z"/><path class="fv6" d="M1836 1244 L2024 1432 L2024 1464 L1836 1276 Z" /></g><g class="o"><path transform="translate(2,4)" class="S sfv" d="M1555 1477 L1647 1385 L1647 1411 L1555 1503 Z"/><path class="fv1" d="M1555 1477 L1647 1385 L1647 1411 L1555 1503 Z" /></g><g class="o"><path transform="translate(5,10)" class="S sfv" d="M1414 1327 L1693 1606 L1693 1618 L1414 1339 Z"/><path class="fv7" d="M1414 1327 L1693 1606 L1693 1618 L1414 1339 Z" /></g><g class="o"><path transform="translate(5,10)" class="S ssv" d="M1432 1119 L1645 906 L1645 916 L1432 1129 Z"/><path class="sv3" d="M1432 1119 L1645 906 L1645 916 L1432 1129 Z" /></g><g class="o"><path transform="translate(7,14)" class="S sfv" d="M1306 1030 L2011 1735 L2011 1751 L1306 1046 Z"/><path class="fv6" d="M1306 1030 L2011 1735 L2011 1751 L1306 1046 Z" /></g><g class="o"><path transform="translate(2,4)" class="S sfh" d="M1911 1560 L2175 1296 L2209 1296 L1945 1560 Z"/><path class="fh5" d="M1911 1560 L2175 1296 L2209 1296 L1945 1560 Z" /></g><g class="o"><path transform="translate(4,8)" class="S sfh" d="M1923 1657 L2505 1075 L2519 1075 L1937 1657 Z"/><path class="fh3" d="M1923 1657 L2505 1075 L2519 1075 L1937 1657 Z" /></g><g class="o"><path transform="translate(8,16)" class="S ssv" d="M1256 1481 L1493 1244 L1493 1274 L1256 1511 Z"/><path class="sv7" d="M1256 1481 L1493 1244 L1493 1274 L1256 1511 Z" /></g><g class="o"><path transform="translate(4,8)" class="S sfh" d="M1864 1708 L1936 1780 L1968 1780 L1896 1708 Z"/><path class="fh3" d="M1864 1708 L1936 1780 L1968 1780 L1896 1708 Z" /></g><g class="o"><path transform="translate(3,6)" class="S sfh" d="M1947 1015 L2676 286 L2696 286 L1967 1015 Z"/><path class="fh6" d="M1947 1015 L2676 286 L2696 286 L1967 1015 Z" /></g><g class="o"><path transform="translate(6,12)" class="S sfh" d="M1722 1099 L1814 1007 L1840 1007 L1748 1099 Z"/><path class="fh3" d="M1722 1099 L1814 1007 L1840 1007 L1748 1099 Z" /></g><g class="o"><path transform="translate(4,8)" class="S sfh" d="M2042 1948 L2133 2039 L2145 2039 L2054 1948 Z"/><path class="fh6" d="M2042 1948 L2133 2039 L2145 2039 L2054 1948 Z" /></g><g class="o"><path transform="translate(3,6)" class="S sfh" d="M1309 2011 L1510 2212 L1518 2212 L1317 2011 Z"/><path class="fh3" d="M1309 2011 L1510 2212 L1518 2212 L1317 2011 Z" /></g><g class="o"><path transform="translate(2,4)" class="S sfv" d="M1602 1042 L1849 1289 L1849 1319 L1602 1072 Z"/><path class="fv1" d="M1602 1042 L1849 1289 L1849 1319 L1602 1072 Z" /></g><g class="o"><path transform="translate(3,6)" class="S sfh" d="M1347 1537 L1540 1344 L1576 1344 L1383 1537 Z"/><path class="fh2" d="M1347 1537 L1540 1344 L1576 1344 L1383 1537 Z" /></g><g class="o"><path transform="translate(3,6)" class="S sfh" d="M1286 1332 L1799 819 L1811 819 L1298 1332 Z"/><path class="fh3" d="M1286 1332 L1799 819 L1811 819 L1298 1332 Z" /></g><g class="o"><path transform="translate(7,14)" class="S sfv" d="M1221 1220 L1342 1341 L1342 1375 L1221 1254 Z"/><path class="fv5" d="M1221 1220 L1342 1341 L1342 1375 L1221 1254 Z" /></g><g class="o"><path transform="translate(9,18)" class="S sfh" d="M1870 970 L1941 899 L1951 899 L1880 970 Z"/><path class="fh5" d="M1870 970 L1941 899 L1951 899 L1880 970 Z" /></g><g class="o"><path transform="translate(6,12)" class="S ssv" d="M1169 1579 L1278 1470 L1278 1500 L1169 1609 Z"/><path class="sv7" d="M1169 1579 L1278 1470 L1278 1500 L1169 1609 Z" /></g><g class="o"><path transform="translate(5,10)" class="S sf" d="M1974 1265 L2124 1115 L2148 1115 L1998 1265 Z"/><path class="f7" d="M1974 1265 L2124 1115 L2148 1115 L1998 1265 Z" /></g><g class="o"><path transform="translate(5,10)" class="S sfh" d="M1301 1776 L1506 1571 L1520 1571 L1315 1776 Z"/><path class="fh6" d="M1301 1776 L1506 1571 L1520 1571 L1315 1776 Z" /></g><g class="o"><path transform="translate(5,10)" class="S sfv" d="M1318 1082 L1482 1246 L1482 1278 L1318 1114 Z"/><path class="fv2" d="M1318 1082 L1482 1246 L1482 1278 L1318 1114 Z" /></g><g class="o"><path transform="translate(8,16)" class="S sfv" d="M1384 2019 L1514 1889 L1514 1911 L1384 2041 Z"/><path class="fv4" d="M1384 2019 L1514 1889 L1514 1911 L1384 2041 Z" /></g><g class="o"><path transform="translate(5,10)" class="S sf" d="M1795 1892 L1941 2038 L1953 2038 L1807 1892 Z"/><path class="f3" d="M1795 1892 L1941 2038 L1953 2038 L1807 1892 Z" /></g><g class="o"><path transform="translate(9,18)" class="S ssv" d="M2037 1762 L2097 1702 L2097 1714 L2037 1774 Z"/><path class="sv3" d="M2037 1762 L2097 1702 L2097 1714 L2037 1774 Z" /></g><g class="o"><path transform="translate(5,10)" class="S sfh" d="M1255 1422 L1317 1484 L1353 1484 L1291 1422 Z"/><path class="fh2" d="M1255 1422 L1317 1484 L1353 1484 L1291 1422 Z" /></g><g class="o"><path transform="translate(7,14)" class="S sfv" d="M1908 1082 L1988 1162 L1988 1258 L1908 1178 Z"/><path class="fv6" d="M1908 1082 L1988 1162 L1988 1258 L1908 1178 Z" /></g><g class="o"><path transform="translate(5,10)" class="S sfv" d="M1790 1399 L1846 1455 L1846 1467 L1790 1411 Z"/><path class="fv6" d="M1790 1399 L1846 1455 L1846 1467 L1790 1411 Z" /></g><g class="o"><path transform="translate(4,8)" class="S sf" d="M1211 1640 L1273 1578 L1273 1594 L1211 1656 Z"/><path class="f2" d="M1211 1640 L1273 1578 L1273 1594 L1211 1656 Z" /></g><g class="o"><path transform="translate(4,8)" class="S sfv" d="M1333 1620 L1547 1406 L1547 1430 L1333 1644 Z"/><path class="fv3" d="M1333 1620 L1547 1406 L1547 1430 L1333 1644 Z" /></g><g class="o"><path transform="translate(8,16)" class="S ssh" d="M1302 1368 L1445 1511 L1453 1511 L1310 1368 Z"/><path class="sh1" d="M1302 1368 L1445 1511 L1453 1511 L1310 1368 Z" /></g><g class="o"><path transform="translate(9,18)" class="S ssh" d="M947 1769 L1138 1578 L1150 1578 L959 1769 Z"/><path class="sh2" d="M947 1769 L1138 1578 L1150 1578 L959 1769 Z" /></g><g class="o"><path transform="translate(5,10)" class="S ssv" d="M1696 1843 L1927 2074 L1927 2106 L1696 1875 Z"/><path class="sv6" d="M1696 1843 L1927 2074 L1927 2106 L1696 1875 Z" /></g><g class="o"><path transform="translate(8,16)" class="S sf" d="M1454 1636 L1654 1436 L1790 1436 L1590 1636 Z"/><path class="f4" d="M1454 1636 L1654 1436 L1790 1436 L1590 1636 Z" /></g><g class="o"><path transform="translate(8,16)" class="S sfh" d="M1363 1241 L1481 1123 L1513 1123 L1395 1241 Z"/><path class="fh2" d="M1363 1241 L1481 1123 L1513 1123 L1395 1241 Z" /></g><g class="o"><path transform="translate(2,4)" class="S sfv" d="M1668 1726 L1762 1820 L1762 1850 L1668 1756 Z"/><path class="fv4" d="M1668 1726 L1762 1820 L1762 1850 L1668 1756 Z" /></g><g class="o"><path transform="translate(3,6)" class="S ssv" d="M1070 1138 L1250 958 L1250 990 L1070 1170 Z"/><path class="sv6" d="M1070 1138 L1250 958 L1250 990 L1070 1170 Z" /></g><g class="o"><path transform="translate(7,14)" class="S ss" d="M1155 1743 L1470 1428 L1486 1428 L1171 1743 Z"/><path class="s5" d="M1155 1743 L1470 1428 L1486 1428 L1171 1743 Z" /></g><g class="o"><path transform="translate(2,4)" class="S sfh" d="M1075 1968 L1317 1726 L1353 1726 L1111 1968 Z"/><path class="fh5" d="M1075 1968 L1317 1726 L1353 1726 L1111 1968 Z" /></g><g class="o"><path transform="translate(6,12)" class="S sf" d="M1404 1597 L1497 1690 L1497 1702 L1404 1609 Z"/><path class="f7" d="M1404 1597 L1497 1690 L1497 1702 L1404 1609 Z" /></g><g class="o"><path transform="translate(3,6)" class="S sfv" d="M1871 1737 L2057 1923 L2057 1945 L1871 1759 Z"/><path class="fv5" d="M1871 1737 L2057 1923 L2057 1945 L1871 1759 Z" /></g><g class="o"><path transform="translate(7,14)" class="S sfv" d="M1164 1848 L1749 2433 L1749 2521 L1164 1936 Z"/><path class="fv7" d="M1164 1848 L1749 2433 L1749 2521 L1164 1936 Z" /></g><g class="o"><path transform="translate(7,14)" class="S ss" d="M1901 1188 L2023 1066 L2023 1202 L1901 1324 Z"/><path class="s2" d="M1901 1188 L2023 1066 L2023 1202 L1901 1324 Z" /></g><g class="o"><path transform="translate(5,10)" class="S ssh" d="M1092 1261 L1155 1324 L1181 1324 L1118 1261 Z"/><path class="sh7" d="M1092 1261 L1155 1324 L1181 1324 L1118 1261 Z" /></g><g class="o"><path transform="translate(8,16)" class="S sfh" d="M1180 1350 L1427 1597 L1439 1597 L1192 1350 Z"/><path class="fh7" d="M1180 1350 L1427 1597 L1439 1597 L1192 1350 Z" /></g><g class="o"><path transform="translate(9,18)" class="S ssh" d="M1428 1123 L1534 1229 L1570 1229 L1464 1123 Z"/><path class="sh3" d="M1428 1123 L1534 1229 L1570 1229 L1464 1123 Z" /></g><g class="o"><path transform="translate(6,12)" class="S sf" d="M1715 1509 L2444 780 L2444 808 L1715 1537 Z"/><path class="f3" d="M1715 1509 L2444 780 L2444 808 L1715 1537 Z" /></g><g class="o"><path transform="translate(2,4)" class="S sfh" d="M1058 1849 L1640 2431 L1656 2431 L1074 1849 Z"/><path class="fh4" d="M1058 1849 L1640 2431 L1656 2431 L1074 1849 Z" /></g><g class="o"><path transform="translate(6,12)" class="S sf" d="M942 1851 L1161 2070 L1195 2070 L976 1851 Z"/><path class="f1" d="M942 1851 L1161 2070 L1195 2070 L976 1851 Z" /></g><g class="o"><path transform="translate(2,4)" class="S sfh" d="M1376 1897 L1580 2101 L1588 2101 L1384 1897 Z"/><path class="fh6" d="M1376 1897 L1580 2101 L1588 2101 L1384 1897 Z" /></g><g class="o"><path transform="translate(8,16)" class="S sfv" d="M1173 1999 L1707 1465 L1707 1503 L1173 2037 Z"/><path class="fv2" d="M1173 1999 L1707 1465 L1707 1503 L1173 2037 Z" /></g><g class="o"><path transform="translate(7,14)" class="S ssh" d="M1524 1843 L1854 2173 L1998 2173 L1668 1843 Z"/><path class="sh2" d="M1524 1843 L1854 2173 L1998 2173 L1668 1843 Z" /></g><g class="o"><path transform="translate(7,14)" class="S sf" d="M1723 1350 L1879 1194 L1907 1194 L1751 1350 Z"/><path class="f2" d="M1723 1350 L1879 1194 L1907 1194 L1751 1350 Z" /></g><g class="o"><path transform="translate(6,12)" class="S sf" d="M1672 1956 L1917 2201 L1943 2201 L1698 1956 Z"/><path class="f6" d="M1672 1956 L1917 2201 L1943 2201 L1698 1956 Z" /></g><g class="o"><path transform="translate(2,4)" class="S sfh" d="M1681 1748 L1846 1913 L1882 1913 L1717 1748 Z"/><path class="fh4" d="M1681 1748 L1846 1913 L1882 1913 L1717 1748 Z" /></g><g class="o"><path transform="translate(9,18)" class="S sfh" d="M1443 1881 L1526 1964 L1544 1964 L1461 1881 Z"/><path class="fh5" d="M1443 1881 L1526 1964 L1544 1964 L1461 1881 Z" /></g><g class="o"><path transform="translate(3,6)" class="S sfv" d="M1510 1119 L1586 1195 L1586 1209 L1510 1133 Z"/><path class="fv4" d="M1510 1119 L1586 1195 L1586 1209 L1510 1133 Z" /></g><g class="o"><path transform="translate(7,14)" class="S sfh" d="M1964 978 L2204 1218 L2234 1218 L1994 978 Z"/><path class="fh3" d="M1964 978 L2204 1218 L2234 1218 L1994 978 Z" /></g><g class="o"><path transform="translate(7,14)" class="S ssh" d="M1478 1514 L2099 2135 L2135 2135 L1514 1514 Z"/><path class="sh5" d="M1478 1514 L2099 2135 L2135 2135 L1514 1514 Z" /></g><g class="o"><path transform="translate(9,18)" class="S sfh" d="M1032 1800 L1244 1588 L1270 1588 L1058 1800 Z"/><path class="fh4" d="M1032 1800 L1244 1588 L1270 1588 L1058 1800 Z" /></g><g class="o"><path transform="translate(8,16)" class="S sfh" d="M1439 1559 L1664 1784 L1676 1784 L1451 1559 Z"/><path class="fh2" d="M1439 1559 L1664 1784 L1676 1784 L1451 1559 Z" /></g><g class="o"><path transform="translate(5,10)" class="S ss" d="M1085 962 L1143 1020 L1143 1038 L1085 980 Z"/><path class="s5" d="M1085 962 L1143 1020 L1143 1038 L1085 980 Z" /></g><g class="o"><path transform="translate(3,6)" class="S sfv" d="M1260 1332 L1839 1911 L1839 1919 L1260 1340 Z"/><path class="fv5" d="M1260 1332 L1839 1911 L1839 1919 L1260 1340 Z" /></g><g class="o"><path transform="translate(4,8)" class="S sfh" d="M1995 1574 L2193 1772 L2215 1772 L2017 1574 Z"/><path class="fh5" d="M1995 1574 L2193 1772 L2215 1772 L2017 1574 Z" /></g><g class="o"><path transform="translate(9,18)" class="S sfv" d="M1793 1553 L1945 1705 L1945 1777 L1793 1625 Z"/><path class="fv5" d="M1793 1553 L1945 1705 L1945 1777 L1793 1625 Z" /></g><g class="o"><path transform="translate(2,4)" class="S sfh" d="M1146 1363 L1332 1177 L1364 1177 L1178 1363 Z"/><path class="fh5" d="M1146 1363 L1332 1177 L1364 1177 L1178 1363 Z" /></g><g class="o"><path transform="translate(5,10)" class="S sfv" d="M1740 1410 L1972 1178 L1972 1188 L1740 1420 Z"/><path class="fv2" d="M1740 1410 L1972 1178 L1972 1188 L1740 1420 Z" /></g><g class="o"><path transform="translate(3,6)" class="S ssh" d="M1550 1617 L1680 1487 L1718 1487 L1588 1617 Z"/><path class="sh3" d="M1550 1617 L1680 1487 L1718 1487 L1588 1617 Z" /></g><g class="o"><path transform="translate(3,6)" class="S sfv" d="M1422 1085 L1570 937 L1570 953 L1422 1101 Z"/><path class="fv2" d="M1422 1085 L1570 937 L1570 953 L1422 1101 Z" /></g><g class="o"><path transform="translate(6,12)" class="S sfh" d="M1872 1624 L1964 1716 L1988 1716 L1896 1624 Z"/><path class="fh3" d="M1872 1624 L1964 1716 L1988 1716 L1896 1624 Z" /></g><g class="o"><path transform="translate(7,14)" class="S sfh" d="M1121 1593 L1272 1442 L1320 1442 L1169 1593 Z"/><path class="fh7" d="M1121 1593 L1272 1442 L1320 1442 L1169 1593 Z" /></g><g class="o"><path transform="translate(5,10)" class="S ssh" d="M1403 1431 L1468 1366 L1496 1366 L1431 1431 Z"/><path class="sh6" d="M1403 1431 L1468 1366 L1496 1366 L1431 1431 Z" /></g><g class="o"><path transform="translate(2,4)" class="S sfv" d="M1130 992 L1296 826 L1296 914 L1130 1080 Z"/><path class="fv6" d="M1130 992 L1296 826 L1296 914 L1130 1080 Z" /></g><g class="o"><path transform="translate(3,6)" class="S sfh" d="M1967 1939 L2154 1752 L2166 1752 L1979 1939 Z"/><path class="fh6" d="M1967 1939 L2154 1752 L2166 1752 L1979 1939 Z" /></g><g class="o"><path transform="translate(2,4)" class="S ss" d="M1811 1645 L1877 1579 L1897 1579 L1831 1645 Z"/><path class="s7" d="M1811 1645 L1877 1579 L1897 1579 L1831 1645 Z" /></g><g class="o"><path transform="translate(5,10)" class="S sfv" d="M1177 1742 L1289 1630 L1289 1702 L1177 1814 Z"/><path class="fv3" d="M1177 1742 L1289 1630 L1289 1702 L1177 1814 Z" /></g><g class="o"><path transform="translate(2,4)" class="S sfh" d="M1095 2049 L1309 2263 L1329 2263 L1115 2049 Z"/><path class="fh3" d="M1095 2049 L1309 2263 L1329 2263 L1115 2049 Z" /></g><g class="o"><path transform="translate(6,12)" class="S sfh" d="M1358 1143 L1579 922 L1591 922 L1370 1143 Z"/><path class="fh7" d="M1358 1143 L1579 922 L1591 922 L1370 1143 Z" /></g><g class="o"><path transform="translate(3,6)" class="S sfh" d="M1100 1521 L1257 1678 L1273 1678 L1116 1521 Z"/><path class="fh3" d="M1100 1521 L1257 1678 L1273 1678 L1116 1521 Z" /></g></g><use href="#slashes" transform-origin="1500 1500" transform="rotate(180) scale(2)"/></g><polyline points="1500,1010 1990,1500 1500,1990 1010,1500 1500,1010 1990,1500" stroke-width="40" class="o s7" /><use href="#slashes" transform-origin="1500 1500" transform="scale(.9)"/><use href="#slashes" transform-origin="1500 1500" transform="rotate(180) scale(.9)"/></svg>