<svg xmlns="http://www.w3.org/2000/svg" viewBox="750 750 1500 1500"><style>/*<![CDATA[*/svg{background:rgb(74,78,105);max-width:100vw;max-height:100vh}path{stroke-width:4}.o{opacity:.75}.S{opacity:.4}.sf{stroke:none;fill:black}.sfh{stroke:none;fill:url(#hs)}.sfv{stroke:none;fill:url(#vs)}.ss{stroke:black;fill:none}.ssh{stroke:url(#hs);fill:none}.ssv{stroke:url(#vs);fill:none}.s1{fill:none;stroke:rgb(154,140,152)}.f1{stroke:none;fill:rgb(154,140,152)}.sh1{fill:none;stroke:url(#h1)}.fh1{stroke:none;fill:url(#h1)}.sv1{fill:none;stroke:url(#v1)}.fv1{stroke:none;fill:url(#v1)}.s2{fill:none;stroke:rgb(34,34,34)}.f2{stroke:none;fill:rgb(34,34,34)}.sh2{fill:none;stroke:url(#h2)}.fh2{stroke:none;fill:url(#h2)}.sv2{fill:none;stroke:url(#v2)}.fv2{stroke:none;fill:url(#v2)}.s3{fill:none;stroke:rgb(201,173,167)}.f3{stroke:none;fill:rgb(201,173,167)}.sh3{fill:none;stroke:url(#h3)}.fh3{stroke:none;fill:url(#h3)}.sv3{fill:none;stroke:url(#v3)}.fv3{stroke:none;fill:url(#v3)}.s4{fill:none;stroke:rgb(34,34,59)}.f4{stroke:none;fill:rgb(34,34,59)}.sh4{fill:none;stroke:url(#h4)}.fh4{stroke:none;fill:url(#h4)}.sv4{fill:none;stroke:url(#v4)}.fv4{stroke:none;fill:url(#v4)}.s5{fill:none;stroke:rgb(242,233,228)}.f5{stroke:none;fill:rgb(242,233,228)}.sh5{fill:none;stroke:url(#h5)}.fh5{stroke:none;fill:url(#h5)}.sv5{fill:none;stroke:url(#v5)}.fv5{stroke:none;fill:url(#v5)}.s6{fill:none;stroke:rgb(255,255,255)}.f6{stroke:none;fill:rgb(255,255,255)}.sh6{fill:none;stroke:url(#h6)}.fh6{stroke:none;fill:url(#h6)}.sv6{fill:none;stroke:url(#v6)}.fv6{stroke:none;fill:url(#v6)}.s7{fill:none;stroke:rgb(255,255,0)}.f7{stroke:none;fill:rgb(255,255,0)}.sh7{fill:none;stroke:url(#h7)}.fh7{stroke:none;fill:url(#h7)}.sv7{fill:none;stroke:url(#v7)}.fv7{stroke:none;fill:url(#v7)}/*]]>*/</style><defs><linearGradient gradientTransform="rotate(90)" id="hs"><stop offset="20%" stop-color="#000" /><stop offset="95%" stop-color="rgba(0, 0, 0, 0)" /></linearGradient><linearGradient id="vs"><stop offset="20%" stop-color="#000" /><stop offset="95%" stop-color="rgba(0, 0, 0, 0)" /></linearGradient><linearGradient gradientTransform="rotate(90)" id="h1"><stop offset="20%" stop-color="rgba(154,140,152,1)" /><stop offset="95%" stop-color="rgba(154,140,152,0)" /></linearGradient><linearGradient id="v1"><stop offset="20%" stop-color="rgba(154,140,152,1)" /><stop offset="95%" stop-color="rgba(154,140,152,0)" /></linearGradient><linearGradient gradientTransform="rotate(90)" id="h2"><stop offset="20%" stop-color="rgba(34,34,34,1)" /><stop offset="95%" stop-color="rgba(34,34,34,0)" /></linearGradient><linearGradient id="v2"><stop offset="20%" stop-color="rgba(34,34,34,1)" /><stop offset="95%" stop-color="rgba(34,34,34,0)" /></linearGradient><linearGradient gradientTransform="rotate(90)" id="h3"><stop offset="20%" stop-color="rgba(201,173,167,1)" /><stop offset="95%" stop-color="rgba(201,173,167,0)" /></linearGradient><linearGradient id="v3"><stop offset="20%" stop-color="rgba(201,173,167,1)" /><stop offset="95%" stop-color="rgba(201,173,167,0)" /></linearGradient><linearGradient gradientTransform="rotate(90)" id="h4"><stop offset="20%" stop-color="rgba(34,34,59,1)" /><stop offset="95%" stop-color="rgba(34,34,59,0)" /></linearGradient><linearGradient id="v4"><stop offset="20%" stop-color="rgba(34,34,59,1)" /><stop offset="95%" stop-color="rgba(34,34,59,0)" /></linearGradient><linearGradient gradientTransform="rotate(90)" id="h5"><stop offset="20%" stop-color="rgba(242,233,228,1)" /><stop offset="95%" stop-color="rgba(242,233,228,0)" /></linearGradient><linearGradient id="v5"><stop offset="20%" stop-color="rgba(242,233,228,1)" /><stop offset="95%" stop-color="rgba(242,233,228,0)" /></linearGradient><linearGradient gradientTransform="rotate(90)" id="h6"><stop offset="20%" stop-color="rgba(255,255,255,1)" /><stop offset="95%" stop-color="rgba(255,255,255,0)" /></linearGradient><linearGradient id="v6"><stop offset="20%" stop-color="rgba(255,255,255,1)" /><stop offset="95%" stop-color="rgba(255,255,255,0)" /></linearGradient><linearGradient gradientTransform="rotate(90)" id="h7"><stop offset="20%" stop-color="rgba(255,255,0,1)" /><stop offset="95%" stop-color="rgba(255,255,0,0)" /></linearGradient><linearGradient id="v7"><stop offset="20%" stop-color="rgba(255,255,0,1)" /><stop offset="95%" stop-color="rgba(255,255,0,0)" /></linearGradient></defs><g transform-origin="1500 1500" transform="scale(2)" opacity=".6"><g id="slashes"><g class="o"><path transform="translate(9,18)" class="S sfh" d="M1549 1735 L1617 1803 L1641 1803 L1573 1735 Z"/><path class="fh2" d="M1549 1735 L1617 1803 L1641 1803 L1573 1735 Z" /></g><g class="o"><path transform="translate(4,8)" class="S ssv" d="M1539 975 L1476 1038 L1476 1046 L1539 983 Z"/><path class="sv3" d="M1539 975 L1476 1038 L1476 1046 L1539 983 Z" /></g><g class="o"><path transform="translate(4,8)" class="S sfh" d="M1757 979 L1639 1097 L1649 1097 L1767 979 Z"/><path class="fh1" d="M1757 979 L1639 1097 L1649 1097 L1767 979 Z" /></g><g class="o"><path transform="translate(3,6)" class="S sfh" d="M1470 1272 L1566 1368 L1582 1368 L1486 1272 Z"/><path class="fh7" d="M1470 1272 L1566 1368 L1582 1368 L1486 1272 Z" /></g><g class="o"><path transform="translate(2,4)" class="S sfv" d="M1437 1936 L783 2590 L783 2606 L1437 1952 Z"/><path class="fv6" d="M1437 1936 L783 2590 L783 2606 L1437 1952 Z" /></g><g class="o"><path transform="translate(5,10)" class="S sf" d="M1810 1520 L1757 1573 L1773 1573 L1826 1520 Z"/><path class="f5" d="M1810 1520 L1757 1573 L1773 1573 L1826 1520 Z" /></g><g class="o"><path transform="translate(3,6)" class="S ssv" d="M1562 1235 L1346 1451 L1346 1463 L1562 1247 Z"/><path class="sv6" d="M1562 1235 L1346 1451 L1346 1463 L1562 1247 Z" /></g><g class="o"><path transform="translate(8,16)" class="S sfv" d="M1405 1660 L1594 1849 L1594 1883 L1405 1694 Z"/><path class="fv4" d="M1405 1660 L1594 1849 L1594 1883 L1405 1694 Z" /></g><g class="o"><path transform="translate(6,12)" class="S sfh" d="M1586 1908 L1344 2150 L1376 2150 L1618 1908 Z"/><path class="fh4" d="M1586 1908 L1344 2150 L1376 2150 L1618 1908 Z" /></g><g class="o"><path transform="translate(3,6)" class="S sf" d="M1272 2030 L1461 2219 L1473 2219 L1284 2030 Z"/><path class="f6" d="M1272 2030 L1461 2219 L1473 2219 L1284 2030 Z" /></g><g class="o"><path transform="translate(8,16)" class="S sfh" d="M1318 1727 L1108 1937 L1130 1937 L1340 1727 Z"/><path class="fh1" d="M1318 1727 L1108 1937 L1130 1937 L1340 1727 Z" /></g><g class="o"><path transform="translate(5,10)" class="S sfv" d="M1305 1912 L1499 2106 L1499 2134 L1305 1940 Z"/><path class="fv7" d="M1305 1912 L1499 2106 L1499 2134 L1305 1940 Z" /></g><g class="o"><path transform="translate(8,16)" class="S sfh" d="M1578 1122 L1750 1294 L1778 1294 L1606 1122 Z"/><path class="fh4" d="M1578 1122 L1750 1294 L1778 1294 L1606 1122 Z" /></g><g class="o"><path transform="translate(2,4)" class="S ssh" d="M1545 1914 L1281 2178 L1293 2178 L1557 1914 Z"/><path class="sh3" d="M1545 1914 L1281 2178 L1293 2178 L1557 1914 Z" /></g><g class="o"><path transform="translate(8,16)" class="S ssh" d="M1336 1941 L1444 2049 L1452 2049 L1344 1941 Z"/><path class="sh2" d="M1336 1941 L1444 2049 L1452 2049 L1344 1941 Z" /></g><g class="o"><path transform="translate(7,14)" class="S sfv" d="M1849 1346 L1980 1477 L1980 1511 L1849 1380 Z"/><path class="fv1" d="M1849 1346 L1980 1477 L1980 1511 L1849 1380 Z" /></g><g class="o"><path transform="translate(2,4)" class="S sfh" d="M1786 1478 L1993 1685 L2005 1685 L1798 1478 Z"/><path class="fh7" d="M1786 1478 L1993 1685 L2005 1685 L1798 1478 Z" /></g><g class="o"><path transform="translate(8,16)" class="S sfh" d="M1579 1286 L1403 1462 L1433 1462 L1609 1286 Z"/><path class="fh1" d="M1579 1286 L1403 1462 L1433 1462 L1609 1286 Z" /></g><g class="o"><path transform="translate(8,16)" class="S sfv" d="M1433 1782 L1313 1902 L1313 1910 L1433 1790 Z"/><path class="fv2" d="M1433 1782 L1313 1902 L1313 1910 L1433 1790 Z" /></g><g class="o"><path transform="translate(7,14)" class="S sfh" d="M1882 1584 L1773 1693 L1783 1693 L1892 1584 Z"/><path class="fh3" d="M1882 1584 L1773 1693 L1783 1693 L1892 1584 Z" /></g><g class="o"><path transform="translate(2,4)" class="S sfv" d="M1319 1262 L1530 1473 L1530 1499 L1319 1288 Z"/><path class="fv7" d="M1319 1262 L1530 1473 L1530 1499 L1319 1288 Z" /></g><g class="o"><path transform="translate(4,8)" class="S sfv" d="M1722 1266 L1496 1492 L1496 1526 L1722 1300 Z"/><path class="fv1" d="M1722 1266 L1496 1492 L1496 1526 L1722 1300 Z" /></g><g class="o"><path transform="translate(8,16)" class="S sf" d="M1863 1035 L1933 1105 L1933 1121 L1863 1051 Z"/><path class="f2" d="M1863 1035 L1933 1105 L1933 1121 L1863 1051 Z" /></g><g class="o"><path transform="translate(5,10)" class="S ssv" d="M1823 1588 L1997 1762 L1997 1796 L1823 1622 Z"/><path class="sv5" d="M1823 1588 L1997 1762 L1997 1796 L1823 1622 Z" /></g><g class="o"><path transform="translate(7,14)" class="S sfv" d="M1017 1898 L1161 2042 L1161 2062 L1017 1918 Z"/><path class="fv5" d="M1017 1898 L1161 2042 L1161 2062 L1017 1918 Z" /></g><g class="o"><path transform="translate(5,10)" class="S ssv" d="M1502 1549 L1668 1715 L1668 1743 L1502 1577 Z"/><path class="sv4" d="M1502 1549 L1668 1715 L1668 1743 L1502 1577 Z" /></g><g class="o"><path transform="translate(9,18)" class="S sfh" d="M1028 1547 L946 1629 L982 1629 L1064 1547 Z"/><path class="fh5" d="M1028 1547 L946 1629 L982 1629 L1064 1547 Z" /></g><g class="o"><path transform="translate(7,14)" class="S sf" d="M1148 1960 L1397 2209 L1421 2209 L1172 1960 Z"/><path class="f4" d="M1148 1960 L1397 2209 L1421 2209 L1172 1960 Z" /></g><g class="o"><path transform="translate(3,6)" class="S sfv" d="M1854 970 L2063 1179 L2063 1213 L1854 1004 Z"/><path class="fv4" d="M1854 970 L2063 1179 L2063 1213 L1854 1004 Z" /></g><g class="o"><path transform="translate(6,12)" class="S sfv" d="M1714 2036 L1528 2222 L1528 2236 L1714 2050 Z"/><path class="fv5" d="M1714 2036 L1528 2222 L1528 2236 L1714 2050 Z" /></g><g class="o"><path transform="translate(5,10)" class="S sfh" d="M1856 1293 L1742 1407 L1780 1407 L1894 1293 Z"/><path class="fh5" d="M1856 1293 L1742 1407 L1780 1407 L1894 1293 Z" /></g><g class="o"><path transform="translate(8,16)" class="S sfv" d="M1122 1860 L969 2013 L969 2025 L1122 1872 Z"/><path class="fv4" d="M1122 1860 L969 2013 L969 2025 L1122 1872 Z" /></g><g class="o"><path transform="translate(6,12)" class="S sfv" d="M1490 1721 L1540 1771 L1540 1807 L1490 1757 Z"/><path class="fv3" d="M1490 1721 L1540 1771 L1540 1807 L1490 1757 Z" /></g><g class="o"><path transform="translate(8,16)" class="S ssv" d="M1624 1033 L1399 1258 L1399 1288 L1624 1063 Z"/><path class="sv5" d="M1624 1033 L1399 1258 L1399 1288 L1624 1063 Z" /></g><g class="o"><path transform="translate(6,12)" class="S sfv" d="M1667 1852 L1834 2019 L1834 2051 L1667 1884 Z"/><path class="fv4" d="M1667 1852 L1834 2019 L1834 2051 L1667 1884 Z" /></g><g class="o"><path transform="translate(2,4)" class="S sfh" d="M1705 1915 L1847 2057 L1885 2057 L1743 1915 Z"/><path class="fh4" d="M1705 1915 L1847 2057 L1885 2057 L1743 1915 Z" /></g><g class="o"><path transform="translate(4,8)" class="S sfv" d="M1856 1442 L2088 1674 L2088 1686 L1856 1454 Z"/><path class="fv1" d="M1856 1442 L2088 1674 L2088 1686 L1856 1454 Z" /></g><g class="o"><path transform="translate(3,6)" class="S sfv" d="M1841 1855 L2017 2031 L2017 2061 L1841 1885 Z"/><path class="fv7" d="M1841 1855 L2017 2031 L2017 2061 L1841 1885 Z" /></g><g class="o"><path transform="translate(3,6)" class="S sfv" d="M1587 1840 L1502 1925 L1502 1955 L1587 1870 Z"/><path class="fv2" d="M1587 1840 L1502 1925 L1502 1955 L1587 1870 Z" /></g><g class="o"><path transform="translate(2,4)" class="S sfv" d="M1415 1985 L1602 2172 L1602 2206 L1415 2019 Z"/><path class="fv3" d="M1415 1985 L1602 2172 L1602 2206 L1415 2019 Z" /></g><g class="o"><path transform="translate(4,8)" class="S sfh" d="M1989 1846 L1781 2054 L1795 2054 L2003 1846 Z"/><path class="fh5" d="M1989 1846 L1781 2054 L1795 2054 L2003 1846 Z" /></g><g class="o"><path transform="translate(2,4)" class="S sfv" d="M1977 1159 L1886 1250 L1886 1262 L1977 1171 Z"/><path class="fv2" d="M1977 1159 L1886 1250 L1886 1262 L1977 1171 Z" /></g><g class="o"><path transform="translate(9,18)" class="S sfh" d="M1114 1667 L1320 1873 L1350 1873 L1144 1667 Z"/><path class="fh3" d="M1114 1667 L1320 1873 L1350 1873 L1144 1667 Z" /></g><g class="o"><path transform="translate(4,8)" class="S sfh" d="M1099 1288 L1339 1528 L1353 1528 L1113 1288 Z"/><path class="fh1" d="M1099 1288 L1339 1528 L1353 1528 L1113 1288 Z" /></g><g class="o"><path transform="translate(7,14)" class="S sfv" d="M1611 1698 L1525 1784 L1525 1792 L1611 1706 Z"/><path class="fv5" d="M1611 1698 L1525 1784 L1525 1792 L1611 1706 Z" /></g><g class="o"><path transform="translate(3,6)" class="S ssv" d="M1982 1196 L1391 1787 L1391 1797 L1982 1206 Z"/><path class="sv5" d="M1982 1196 L1391 1787 L1391 1797 L1982 1206 Z" /></g><g class="o"><path transform="translate(2,4)" class="S ssh" d="M1321 1501 L1144 1678 L1182 1678 L1359 1501 Z"/><path class="sh6" d="M1321 1501 L1144 1678 L1182 1678 L1359 1501 Z" /></g><g class="o"><path transform="translate(8,16)" class="S sf" d="M1411 1448 L1525 1562 L1541 1562 L1427 1448 Z"/><path class="f4" d="M1411 1448 L1525 1562 L1541 1562 L1427 1448 Z" /></g><g class="o"><path transform="translate(4,8)" class="S sf" d="M1508 1363 L2105 1960 L2139 1960 L1542 1363 Z"/><path class="f6" d="M1508 1363 L2105 1960 L2139 1960 L1542 1363 Z" /></g><g class="o"><path transform="translate(9,18)" class="S ss" d="M1240 1357 L1482 1599 L1482 1609 L1240 1367 Z"/><path class="s2" d="M1240 1357 L1482 1599 L1482 1609 L1240 1367 Z" /></g><g class="o"><path transform="translate(4,8)" class="S ssh" d="M1137 1471 L1348 1682 L1380 1682 L1169 1471 Z"/><path class="sh3" d="M1137 1471 L1348 1682 L1380 1682 L1169 1471 Z" /></g><g class="o"><path transform="translate(9,18)" class="S sfh" d="M932 1750 L697 1985 L735 1985 L970 1750 Z"/><path class="fh3" d="M932 1750 L697 1985 L735 1985 L970 1750 Z" /></g><g class="o"><path transform="translate(7,14)" class="S sf" d="M1056 1603 L1172 1719 L1194 1719 L1078 1603 Z"/><path class="f1" d="M1056 1603 L1172 1719 L1194 1719 L1078 1603 Z" /></g><g class="o"><path transform="translate(6,12)" class="S sfv" d="M1940 1195 L1780 1355 L1780 1379 L1940 1219 Z"/><path class="fv3" d="M1940 1195 L1780 1355 L1780 1379 L1940 1219 Z" /></g><g class="o"><path transform="translate(4,8)" class="S sfh" d="M1105 1386 L1316 1597 L1326 1597 L1115 1386 Z"/><path class="fh3" d="M1105 1386 L1316 1597 L1326 1597 L1115 1386 Z" /></g><g class="o"><path transform="translate(8,16)" class="S sfh" d="M1422 1371 L1313 1480 L1331 1480 L1440 1371 Z"/><path class="fh7" d="M1422 1371 L1313 1480 L1331 1480 L1440 1371 Z" /></g><g class="o"><path transform="translate(5,10)" class="S sfv" d="M1847 1701 L1792 1756 L1792 1770 L1847 1715 Z"/><path class="fv3" d="M1847 1701 L1792 1756 L1792 1770 L1847 1715 Z" /></g><g class="o"><path transform="translate(5,10)" class="S sf" d="M1882 1773 L1946 1837 L1978 1837 L1914 1773 Z"/><path class="f7" d="M1882 1773 L1946 1837 L1978 1837 L1914 1773 Z" /></g><g class="o"><path transform="translate(7,14)" class="S ssv" d="M1340 1938 L1112 2166 L1112 2184 L1340 1956 Z"/><path class="sv5" d="M1340 1938 L1112 2166 L1112 2184 L1340 1956 Z" /></g><g class="o"><path transform="translate(8,16)" class="S sfv" d="M1169 1221 L1099 1291 L1099 1313 L1169 1243 Z"/><path class="fv5" d="M1169 1221 L1099 1291 L1099 1313 L1169 1243 Z" /></g><g class="o"><path transform="translate(7,14)" class="S sf" d="M1193 1681 L988 1886 L988 1916 L1193 1711 Z"/><path class="f7" d="M1193 1681 L988 1886 L988 1916 L1193 1711 Z" /></g><g class="o"><path transform="translate(4,8)" class="S sfh" d="M1946 1407 L2172 1633 L2184 1633 L1958 1407 Z"/><path class="fh3" d="M1946 1407 L2172 1633 L2184 1633 L1958 1407 Z" /></g><g class="o"><path transform="translate(4,8)" class="S ssh" d="M1580 1391 L1913 1724 L1943 1724 L1610 1391 Z"/><path class="sh4" d="M1580 1391 L1913 1724 L1943 1724 L1610 1391 Z" /></g><g class="o"><path transform="translate(2,4)" class="S sfv" d="M1837 983 L2040 1186 L2040 1200 L1837 997 Z"/><path class="fv5" d="M1837 983 L2040 1186 L2040 1200 L1837 997 Z" /></g><g class="o"><path transform="translate(3,6)" class="S sf" d="M1939 1880 L1718 2101 L1718 2111 L1939 1890 Z"/><path class="f5" d="M1939 1880 L1718 2101 L1718 2111 L1939 1890 Z" /></g><g class="o"><path transform="translate(4,8)" class="S sfv" d="M1611 1744 L1687 1820 L1687 1842 L1611 1766 Z"/><path class="fv4" d="M1611 1744 L1687 1820 L1687 1842 L1611 1766 Z" /></g><g class="o"><path transform="translate(4,8)" class="S ssh" d="M974 1379 L1082 1487 L1090 1487 L982 1379 Z"/><path class="sh1" d="M974 1379 L1082 1487 L1090 1487 L982 1379 Z" /></g><g class="o"><path transform="translate(7,14)" class="S ssh" d="M1851 1354 L1626 1579 L1638 1579 L1863 1354 Z"/><path class="sh2" d="M1851 1354 L1626 1579 L1638 1579 L1863 1354 Z" /></g><g class="o"><path transform="translate(5,10)" class="S ss" d="M1589 1220 L1720 1351 L1734 1351 L1603 1220 Z"/><path class="s6" d="M1589 1220 L1720 1351 L1734 1351 L1603 1220 Z" /></g><g class="o"><path transform="translate(3,6)" class="S sfv" d="M1452 1269 L1821 1638 L1821 1670 L1452 1301 Z"/><path class="fv6" d="M1452 1269 L1821 1638 L1821 1670 L1452 1301 Z" /></g><g class="o"><path transform="translate(5,10)" class="S sfh" d="M1994 1986 L1894 2086 L1904 2086 L2004 1986 Z"/><path class="fh3" d="M1994 1986 L1894 2086 L1904 2086 L2004 1986 Z" /></g><g class="o"><path transform="translate(9,18)" class="S sfv" d="M1321 1364 L1232 1453 L1232 1489 L1321 1400 Z"/><path class="fv5" d="M1321 1364 L1232 1453 L1232 1489 L1321 1400 Z" /></g><g class="o"><path transform="translate(9,18)" class="S sfv" d="M1608 1048 L1427 1229 L1427 1251 L1608 1070 Z"/><path class="fv4" d="M1608 1048 L1427 1229 L1427 1251 L1608 1070 Z" /></g><g class="o"><path transform="translate(9,18)" class="S sfh" d="M1234 1026 L859 1401 L889 1401 L1264 1026 Z"/><path class="fh6" d="M1234 1026 L859 1401 L889 1401 L1264 1026 Z" /></g><g class="o"><path transform="translate(9,18)" class="S sfv" d="M1278 1494 L1358 1574 L1358 1600 L1278 1520 Z"/><path class="fv2" d="M1278 1494 L1358 1574 L1358 1600 L1278 1520 Z" /></g><g class="o"><path transform="translate(9,18)" class="S ssv" d="M1698 2025 L1516 2207 L1516 2235 L1698 2053 Z"/><path class="sv5" d="M1698 2025 L1516 2207 L1516 2235 L1698 2053 Z" /></g><g class="o"><path transform="translate(7,14)" class="S sf" d="M1327 1372 L1453 1498 L1453 1506 L1327 1380 Z"/><path class="f7" d="M1327 1372 L1453 1498 L1453 1506 L1327 1380 Z" /></g><g class="o"><path transform="translate(3,6)" class="S sfv" d="M1403 1429 L1332 1500 L1332 1522 L1403 1451 Z"/><path class="fv4" d="M1403 1429 L1332 1500 L1332 1522 L1403 1451 Z" /></g><g class="o"><path transform="translate(6,12)" class="S sfh" d="M2025 989 L1803 1211 L1813 1211 L2035 989 Z"/><path class="fh2" d="M2025 989 L1803 1211 L1813 1211 L2035 989 Z" /></g><g class="o"><path transform="translate(8,16)" class="S sfh" d="M1199 1128 L1754 1683 L1778 1683 L1223 1128 Z"/><path class="fh3" d="M1199 1128 L1754 1683 L1778 1683 L1223 1128 Z" /></g><g class="o"><path transform="translate(3,6)" class="S ss" d="M1614 2011 L1408 2217 L1408 2235 L1614 2029 Z"/><path class="s2" d="M1614 2011 L1408 2217 L1408 2235 L1614 2029 Z" /></g><g class="o"><path transform="translate(8,16)" class="S sfh" d="M1184 1947 L977 2154 L991 2154 L1198 1947 Z"/><path class="fh4" d="M1184 1947 L977 2154 L991 2154 L1198 1947 Z" /></g><g class="o"><path transform="translate(3,6)" class="S ssv" d="M1959 1231 L1848 1342 L1848 1360 L1959 1249 Z"/><path class="sv6" d="M1959 1231 L1848 1342 L1848 1360 L1959 1249 Z" /></g><g class="o"><path transform="translate(9,18)" class="S sfh" d="M1544 1433 L1348 1629 L1360 1629 L1556 1433 Z"/><path class="fh2" d="M1544 1433 L1348 1629 L1360 1629 L1556 1433 Z" /></g><g class="o"><path transform="translate(2,4)" class="S sfh" d="M1491 1800 L1382 1909 L1412 1909 L1521 1800 Z"/><path class="fh6" d="M1491 1800 L1382 1909 L1412 1909 L1521 1800 Z" /></g><g class="o"><path transform="translate(5,10)" class="S sfh" d="M1444 1156 L1520 1232 L1558 1232 L1482 1156 Z"/><path class="fh3" d="M1444 1156 L1520 1232 L1558 1232 L1482 1156 Z" /></g><g class="o"><path transform="translate(2,4)" class="S sf" d="M1038 1922 L1168 2052 L1192 2052 L1062 1922 Z"/><path class="f7" d="M1038 1922 L1168 2052 L1192 2052 L1062 1922 Z" /></g><g class="o"><path transform="translate(6,12)" class="S sfv" d="M1813 1489 L1667 1635 L1667 1667 L1813 1521 Z"/><path class="fv6" d="M1813 1489 L1667 1635 L1667 1667 L1813 1521 Z" /></g><g class="o"><path transform="translate(5,10)" class="S sfh" d="M1984 1542 L2036 1594 L2070 1594 L2018 1542 Z"/><path class="fh3" d="M1984 1542 L2036 1594 L2070 1594 L2018 1542 Z" /></g><g class="o"><path transform="translate(3,6)" class="S ssh" d="M1485 1141 L1260 1366 L1296 1366 L1521 1141 Z"/><path class="sh7" d="M1485 1141 L1260 1366 L1296 1366 L1521 1141 Z" /></g><g class="o"><path transform="translate(7,14)" class="S sfv" d="M2046 1554 L2254 1762 L2254 1784 L2046 1576 Z"/><path class="fv3" d="M2046 1554 L2254 1762 L2254 1784 L2046 1576 Z" /></g><g class="o"><path transform="translate(9,18)" class="S sf" d="M974 1329 L1140 1495 L1166 1495 L1000 1329 Z"/><path class="f2" d="M974 1329 L1140 1495 L1166 1495 L1000 1329 Z" /></g><g class="o"><path transform="translate(7,14)" class="S sfv" d="M1957 949 L2175 1167 L2175 1179 L1957 961 Z"/><path class="fv5" d="M1957 949 L2175 1167 L2175 1179 L1957 961 Z" /></g><g class="o"><path transform="translate(5,10)" class="S sfv" d="M953 1949 L737 2165 L737 2175 L953 1959 Z"/><path class="fv4" d="M953 1949 L737 2165 L737 2175 L953 1959 Z" /></g><g class="o"><path transform="translate(8,16)" class="S ssv" d="M1183 1218 L1020 1381 L1020 1403 L1183 1240 Z"/><path class="sv3" d="M1183 1218 L1020 1381 L1020 1403 L1183 1240 Z" /></g><g class="o"><path transform="translate(5,10)" class="S sfv" d="M1008 1996 L1171 2159 L1171 2197 L1008 2034 Z"/><path class="fv4" d="M1008 1996 L1171 2159 L1171 2197 L1008 2034 Z" /></g><g class="o"><path transform="translate(2,4)" class="S ssh" d="M1344 978 L1794 1428 L1802 1428 L1352 978 Z"/><path class="sh7" d="M1344 978 L1794 1428 L1802 1428 L1352 978 Z" /></g><g class="o"><path transform="translate(6,12)" class="S sfh" d="M1042 1439 L892 1589 L904 1589 L1054 1439 Z"/><path class="fh7" d="M1042 1439 L892 1589 L904 1589 L1054 1439 Z" /></g><g class="o"><path transform="translate(4,8)" class="S sf" d="M981 1301 L1054 1374 L1078 1374 L1005 1301 Z"/><path class="f5" d="M981 1301 L1054 1374 L1078 1374 L1005 1301 Z" /></g><g class="o"><path transform="translate(4,8)" class="S sfh" d="M1464 1579 L1579 1694 L1589 1694 L1474 1579 Z"/><path class="fh1" d="M1464 1579 L1579 1694 L1589 1694 L1474 1579 Z" /></g><g class="o"><path transform="translate(6,12)" class="S ssv" d="M1540 1144 L1654 1258 L1654 1266 L1540 1152 Z"/><path class="sv2" d="M1540 1144 L1654 1258 L1654 1266 L1540 1152 Z" /></g><g class="o"><path transform="translate(4,8)" class="S sfv" d="M1233 1990 L1371 2128 L1371 2146 L1233 2008 Z"/><path class="fv3" d="M1233 1990 L1371 2128 L1371 2146 L1233 2008 Z" /></g><g class="o"><path transform="translate(3,6)" class="S sfh" d="M1970 1696 L2044 1770 L2082 1770 L2008 1696 Z"/><path class="fh3" d="M1970 1696 L2044 1770 L2082 1770 L2008 1696 Z" /></g><g class="o"><path transform="translate(7,14)" class="S sfh" d="M1123 1808 L1292 1977 L1314 1977 L1145 1808 Z"/><path class="fh6" d="M1123 1808 L1292 1977 L1314 1977 L1145 1808 Z" /></g><g class="o"><path transform="translate(9,18)" class="S sfh" d="M1051 1950 L1155 2054 L1181 2054 L1077 1950 Z"/><path class="fh6" d="M1051 1950 L1155 2054 L1181 2054 L1077 1950 Z" /></g><g class="o"><path transform="translate(4,8)" class="S sf" d="M1365 1811 L1484 1930 L1522 1930 L1403 1811 Z"/><path class="f6" d="M1365 1811 L1484 1930 L1522 1930 L1403 1811 Z" /></g><g class="o"><path transform="translate(6,12)" class="S sfv" d="M1345 1153 L1184 1314 L1184 1338 L1345 1177 Z"/><path class="fv6" d="M1345 1153 L1184 1314 L1184 1338 L1345 1177 Z" /></g><g class="o"><path transform="translate(6,12)" class="S sfv" d="M1284 1738 L1413 1867 L1413 1883 L1284 1754 Z"/><path class="fv5" d="M1284 1738 L1413 1867 L1413 1883 L1284 1754 Z" /></g><g class="o"><path transform="translate(8,16)" class="S sfh" d="M1593 1860 L1748 2015 L1758 2015 L1603 1860 Z"/><path class="fh2" d="M1593 1860 L1748 2015 L1758 2015 L1603 1860 Z" /></g><g class="o"><path transform="translate(2,4)" class="S sfv" d="M1993 1231 L2150 1388 L2150 1416 L1993 1259 Z"/><path class="fv1" d="M1993 1231 L2150 1388 L2150 1416 L1993 1259 Z" /></g><g class="o"><path transform="translate(7,14)" class="S sfh" d="M1758 1650 L1532 1876 L1564 1876 L1790 1650 Z"/><path class="fh3" d="M1758 1650 L1532 1876 L1564 1876 L1790 1650 Z" /></g><g class="o"><path transform="translate(3,6)" class="S sfh" d="M1317 1113 L1393 1189 L1401 1189 L1325 1113 Z"/><path class="fh7" d="M1317 1113 L1393 1189 L1401 1189 L1325 1113 Z" /></g><g class="o"><path transform="translate(8,16)" class="S ssh" d="M1529 1170 L1175 1524 L1183 1524 L1537 1170 Z"/><path class="sh5" d="M1529 1170 L1175 1524 L1183 1524 L1537 1170 Z" /></g><g class="o"><path transform="translate(3,6)" class="S sf" d="M1950 1125 L2105 1280 L2105 1292 L1950 1137 Z"/><path class="f6" d="M1950 1125 L2105 1280 L2105 1292 L1950 1137 Z" /></g><g class="o"><path transform="translate(6,12)" class="S sfh" d="M2010 1406 L1819 1597 L1843 1597 L2034 1406 Z"/><path class="fh5" d="M2010 1406 L1819 1597 L1843 1597 L2034 1406 Z" /></g><g class="o"><path transform="translate(2,4)" class="S sfv" d="M1309 1452 L571 2190 L571 2226 L1309 1488 Z"/><path class="fv6" d="M1309 1452 L571 2190 L571 2226 L1309 1488 Z" /></g><g class="o"><path transform="translate(5,10)" class="S sfh" d="M1063 1699 L868 1894 L890 1894 L1085 1699 Z"/><path class="fh3" d="M1063 1699 L868 1894 L890 1894 L1085 1699 Z" /></g><g class="o"><path transform="translate(9,18)" class="S sfh" d="M1285 1481 L1143 1623 L1179 1623 L1321 1481 Z"/><path class="fh5" d="M1285 1481 L1143 1623 L1179 1623 L1321 1481 Z" /></g><g class="o"><path transform="translate(3,6)" class="S sfh" d="M1876 1429 L1432 1873 L1454 1873 L1898 1429 Z"/><path class="fh6" d="M1876 1429 L1432 1873 L1454 1873 L1898 1429 Z" /></g><g class="o"><path transform="translate(2,4)" class="S sfv" d="M1318 1445 L1481 1608 L1481 1644 L1318 1481 Z"/><path class="fv1" d="M1318 1445 L1481 1608 L1481 1644 L1318 1481 Z" /></g><g class="o"><path transform="translate(9,18)" class="S sfh" d="M1776 1861 L1550 2087 L1580 2087 L1806 1861 Z"/><path class="fh2" d="M1776 1861 L1550 2087 L1580 2087 L1806 1861 Z" /></g><g class="o"><path transform="translate(6,12)" class="S ss" d="M1962 1539 L1879 1622 L1893 1622 L1976 1539 Z"/><path class="s5" d="M1962 1539 L1879 1622 L1893 1622 L1976 1539 Z" /></g><g class="o"><path transform="translate(5,10)" class="S ssh" d="M1165 1199 L988 1376 L1012 1376 L1189 1199 Z"/><path class="sh7" d="M1165 1199 L988 1376 L1012 1376 L1189 1199 Z" /></g><g class="o"><path transform="translate(7,14)" class="S sfv" d="M1376 2014 L1291 2099 L1291 2115 L1376 2030 Z"/><path class="fv6" d="M1376 2014 L1291 2099 L1291 2115 L1376 2030 Z" /></g><g class="o"><path transform="translate(5,10)" class="S sf" d="M1487 1521 L1109 1899 L1109 1931 L1487 1553 Z"/><path class="f7" d="M1487 1521 L1109 1899 L1109 1931 L1487 1553 Z" /></g><g class="o"><path transform="translate(7,14)" class="S sfh" d="M1373 1106 L1316 1163 L1324 1163 L1381 1106 Z"/><path class="fh7" d="M1373 1106 L1316 1163 L1324 1163 L1381 1106 Z" /></g><g class="o"><path transform="translate(8,16)" class="S sfv" d="M1745 1908 L1821 1984 L1821 1994 L1745 1918 Z"/><path class="fv3" d="M1745 1908 L1821 1984 L1821 1994 L1745 1918 Z" /></g><g class="o"><path transform="translate(3,6)" class="S sfh" d="M1377 2010 L1611 2244 L1637 2244 L1403 2010 Z"/><path class="fh7" d="M1377 2010 L1611 2244 L1637 2244 L1403 2010 Z" /></g><g class="o"><path transform="translate(4,8)" class="S sfh" d="M1292 1286 L1065 1513 L1097 1513 L1324 1286 Z"/><path class="fh7" d="M1292 1286 L1065 1513 L1097 1513 L1324 1286 Z" /></g><g class="o"><path transform="translate(5,10)" class="S sfh" d="M1810 1594 L1705 1699 L1743 1699 L1848 1594 Z"/><path class="fh4" d="M1810 1594 L1705 1699 L1743 1699 L1848 1594 Z" /></g></g><use href="#slashes" transform-origin="1500 1500" transform="rotate(180) scale(2)"/></g><polyline points="1500,1010 1990,1500 1500,1990 1010,1500 1500,1010 1990,1500" stroke-width="20" class="o s1" /><use href="#slashes" transform-origin="1500 1500" transform="scale(.9)"/><use href="#slashes" transform-origin="1500 1500" transform="rotate(180) scale(.9)"/></svg>