<svg xmlns="http://www.w3.org/2000/svg" viewBox="750 750 1500 1500"><style>/*<![CDATA[*/svg{background:rgb(64,64,64);max-width:100vw;max-height:100vh}path{stroke-width:4}.o{opacity:.75}.S{opacity:.4}.sf{stroke:none;fill:black}.sfh{stroke:none;fill:url(#hs)}.sfv{stroke:none;fill:url(#vs)}.ss{stroke:black;fill:none}.ssh{stroke:url(#hs);fill:none}.ssv{stroke:url(#vs);fill:none}.s1{fill:none;stroke:rgb(34,34,34)}.f1{stroke:none;fill:rgb(34,34,34)}.sh1{fill:none;stroke:url(#h1)}.fh1{stroke:none;fill:url(#h1)}.sv1{fill:none;stroke:url(#v1)}.fv1{stroke:none;fill:url(#v1)}.s2{fill:none;stroke:rgb(115,115,115)}.f2{stroke:none;fill:rgb(115,115,115)}.sh2{fill:none;stroke:url(#h2)}.fh2{stroke:none;fill:url(#h2)}.sv2{fill:none;stroke:url(#v2)}.fv2{stroke:none;fill:url(#v2)}.s3{fill:none;stroke:rgb(38,38,38)}.f3{stroke:none;fill:rgb(38,38,38)}.sh3{fill:none;stroke:url(#h3)}.fh3{stroke:none;fill:url(#h3)}.sv3{fill:none;stroke:url(#v3)}.fv3{stroke:none;fill:url(#v3)}.s4{fill:none;stroke:rgb(166,166,166)}.f4{stroke:none;fill:rgb(166,166,166)}.sh4{fill:none;stroke:url(#h4)}.fh4{stroke:none;fill:url(#h4)}.sv4{fill:none;stroke:url(#v4)}.fv4{stroke:none;fill:url(#v4)}.s5{fill:none;stroke:rgb(13,13,13)}.f5{stroke:none;fill:rgb(13,13,13)}.sh5{fill:none;stroke:url(#h5)}.fh5{stroke:none;fill:url(#h5)}.sv5{fill:none;stroke:url(#v5)}.fv5{stroke:none;fill:url(#v5)}.s6{fill:none;stroke:rgb(255,255,255)}.f6{stroke:none;fill:rgb(255,255,255)}.sh6{fill:none;stroke:url(#h6)}.fh6{stroke:none;fill:url(#h6)}.sv6{fill:none;stroke:url(#v6)}.fv6{stroke:none;fill:url(#v6)}.s7{fill:none;stroke:rgb(255,255,0)}.f7{stroke:none;fill:rgb(255,255,0)}.sh7{fill:none;stroke:url(#h7)}.fh7{stroke:none;fill:url(#h7)}.sv7{fill:none;stroke:url(#v7)}.fv7{stroke:none;fill:url(#v7)}/*]]>*/</style><defs><linearGradient gradientTransform="rotate(90)" id="hs"><stop offset="20%" stop-color="#000" /><stop offset="95%" stop-color="rgba(0, 0, 0, 0)" /></linearGradient><linearGradient id="vs"><stop offset="20%" stop-color="#000" /><stop offset="95%" stop-color="rgba(0, 0, 0, 0)" /></linearGradient><linearGradient gradientTransform="rotate(90)" id="h1"><stop offset="20%" stop-color="rgba(34,34,34,1)" /><stop offset="95%" stop-color="rgba(34,34,34,0)" /></linearGradient><linearGradient id="v1"><stop offset="20%" stop-color="rgba(34,34,34,1)" /><stop offset="95%" stop-color="rgba(34,34,34,0)" /></linearGradient><linearGradient gradientTransform="rotate(90)" id="h2"><stop offset="20%" stop-color="rgba(115,115,115,1)" /><stop offset="95%" stop-color="rgba(115,115,115,0)" /></linearGradient><linearGradient id="v2"><stop offset="20%" stop-color="rgba(115,115,115,1)" /><stop offset="95%" stop-color="rgba(115,115,115,0)" /></linearGradient><linearGradient gradientTransform="rotate(90)" id="h3"><stop offset="20%" stop-color="rgba(38,38,38,1)" /><stop offset="95%" stop-color="rgba(38,38,38,0)" /></linearGradient><linearGradient id="v3"><stop offset="20%" stop-color="rgba(38,38,38,1)" /><stop offset="95%" stop-color="rgba(38,38,38,0)" /></linearGradient><linearGradient gradientTransform="rotate(90)" id="h4"><stop offset="20%" stop-color="rgba(166,166,166,1)" /><stop offset="95%" stop-color="rgba(166,166,166,0)" /></linearGradient><linearGradient id="v4"><stop offset="20%" stop-color="rgba(166,166,166,1)" /><stop offset="95%" stop-color="rgba(166,166,166,0)" /></linearGradient><linearGradient gradientTransform="rotate(90)" id="h5"><stop offset="20%" stop-color="rgba(13,13,13,1)" /><stop offset="95%" stop-color="rgba(13,13,13,0)" /></linearGradient><linearGradient id="v5"><stop offset="20%" stop-color="rgba(13,13,13,1)" /><stop offset="95%" stop-color="rgba(13,13,13,0)" /></linearGradient><linearGradient gradientTransform="rotate(90)" id="h6"><stop offset="20%" stop-color="rgba(255,255,255,1)" /><stop offset="95%" stop-color="rgba(255,255,255,0)" /></linearGradient><linearGradient id="v6"><stop offset="20%" stop-color="rgba(255,255,255,1)" /><stop offset="95%" stop-color="rgba(255,255,255,0)" /></linearGradient><linearGradient gradientTransform="rotate(90)" id="h7"><stop offset="20%" stop-color="rgba(255,255,0,1)" /><stop offset="95%" stop-color="rgba(255,255,0,0)" /></linearGradient><linearGradient id="v7"><stop offset="20%" stop-color="rgba(255,255,0,1)" /><stop offset="95%" stop-color="rgba(255,255,0,0)" /></linearGradient></defs><g transform-origin="1500 1500" transform="scale(2)" opacity=".2"><g id="slashes"><g class="o"><path transform="translate(2,4)" class="S sf" d="M2012 1097 L2696 1781 L2732 1781 L2048 1097 Z"/><path class="f1" d="M2012 1097 L2696 1781 L2732 1781 L2048 1097 Z" /></g><g class="o"><path transform="translate(5,10)" class="S sfh" d="M1423 2046 L676 2793 L732 2793 L1479 2046 Z"/><path class="fh3" d="M1423 2046 L676 2793 L732 2793 L1479 2046 Z" /></g><g class="o"><path transform="translate(2,4)" class="S sfh" d="M1574 1417 L1673 1516 L1721 1516 L1622 1417 Z"/><path class="fh7" d="M1574 1417 L1673 1516 L1721 1516 L1622 1417 Z" /></g><g class="o"><path transform="translate(4,8)" class="S ssv" d="M1346 1257 L1591 1502 L1591 1512 L1346 1267 Z"/><path class="sv7" d="M1346 1257 L1591 1502 L1591 1512 L1346 1267 Z" /></g><g class="o"><path transform="translate(4,8)" class="S sfv" d="M1290 1589 L1091 1390 L1091 1454 L1290 1653 Z"/><path class="fv6" d="M1290 1589 L1091 1390 L1091 1454 L1290 1653 Z" /></g><g class="o"><path transform="translate(8,16)" class="S ssv" d="M1281 1316 L1356 1241 L1356 1321 L1281 1396 Z"/><path class="sv1" d="M1281 1316 L1356 1241 L1356 1321 L1281 1396 Z" /></g><g class="o"><path transform="translate(8,16)" class="S sfv" d="M2019 1928 L1959 1868 L1959 1902 L2019 1962 Z"/><path class="fv2" d="M2019 1928 L1959 1868 L1959 1902 L2019 1962 Z" /></g><g class="o"><path transform="translate(8,16)" class="S sfv" d="M1143 1118 L904 879 L904 991 L1143 1230 Z"/><path class="fv7" d="M1143 1118 L904 879 L904 991 L1143 1230 Z" /></g><g class="o"><path transform="translate(5,10)" class="S sfh" d="M1299 1570 L1439 1710 L1453 1710 L1313 1570 Z"/><path class="fh7" d="M1299 1570 L1439 1710 L1453 1710 L1313 1570 Z" /></g><g class="o"><path transform="translate(9,18)" class="S sfh" d="M1874 1887 L1424 1437 L1552 1437 L2002 1887 Z"/><path class="fh3" d="M1874 1887 L1424 1437 L1552 1437 L2002 1887 Z" /></g><g class="o"><path transform="translate(2,4)" class="S sfh" d="M1139 1509 L608 978 L624 978 L1155 1509 Z"/><path class="fh1" d="M1139 1509 L608 978 L624 978 L1155 1509 Z" /></g><g class="o"><path transform="translate(5,10)" class="S ss" d="M1081 1983 L944 2120 L974 2120 L1111 1983 Z"/><path class="s3" d="M1081 1983 L944 2120 L974 2120 L1111 1983 Z" /></g><g class="o"><path transform="translate(7,14)" class="S sfv" d="M1111 1856 L1050 1795 L1050 1835 L1111 1896 Z"/><path class="fv7" d="M1111 1856 L1050 1795 L1050 1835 L1111 1896 Z" /></g><g class="o"><path transform="translate(5,10)" class="S sf" d="M1171 1008 L1256 923 L1292 923 L1207 1008 Z"/><path class="f4" d="M1171 1008 L1256 923 L1292 923 L1207 1008 Z" /></g><g class="o"><path transform="translate(2,4)" class="S sfv" d="M1330 1200 L1414 1284 L1414 1372 L1330 1288 Z"/><path class="fv1" d="M1330 1200 L1414 1284 L1414 1372 L1330 1288 Z" /></g><g class="o"><path transform="translate(8,16)" class="S sfh" d="M1482 1401 L1378 1505 L1410 1505 L1514 1401 Z"/><path class="fh5" d="M1482 1401 L1378 1505 L1410 1505 L1514 1401 Z" /></g><g class="o"><path transform="translate(6,12)" class="S sfv" d="M956 1501 L344 889 L344 1001 L956 1613 Z"/><path class="fv7" d="M956 1501 L344 889 L344 1001 L956 1613 Z" /></g><g class="o"><path transform="translate(4,8)" class="S sfv" d="M1263 1667 L1187 1591 L1187 1623 L1263 1699 Z"/><path class="fv4" d="M1263 1667 L1187 1591 L1187 1623 L1263 1699 Z" /></g><g class="o"><path transform="translate(4,8)" class="S sfh" d="M1742 1074 L1810 1006 L1842 1006 L1774 1074 Z"/><path class="fh5" d="M1742 1074 L1810 1006 L1842 1006 L1774 1074 Z" /></g><g class="o"><path transform="translate(2,4)" class="S sfv" d="M1212 1468 L1305 1561 L1305 1713 L1212 1620 Z"/><path class="fv1" d="M1212 1468 L1305 1561 L1305 1713 L1212 1620 Z" /></g><g class="o"><path transform="translate(2,4)" class="S sfh" d="M1063 983 L682 602 L810 602 L1191 983 Z"/><path class="fh1" d="M1063 983 L682 602 L810 602 L1191 983 Z" /></g><g class="o"><path transform="translate(5,10)" class="S sfv" d="M1230 1885 L1305 1960 L1305 2056 L1230 1981 Z"/><path class="fv3" d="M1230 1885 L1305 1960 L1305 2056 L1230 1981 Z" /></g><g class="o"><path transform="translate(7,14)" class="S sfv" d="M1896 1661 L2020 1537 L2020 1665 L1896 1789 Z"/><path class="fv4" d="M1896 1661 L2020 1537 L2020 1665 L1896 1789 Z" /></g><g class="o"><path transform="translate(3,6)" class="S sf" d="M1087 1315 L856 1084 L856 1164 L1087 1395 Z"/><path class="f2" d="M1087 1315 L856 1084 L856 1164 L1087 1395 Z" /></g><g class="o"><path transform="translate(3,6)" class="S sfv" d="M1951 1037 L2073 1159 L2073 1197 L1951 1075 Z"/><path class="fv7" d="M1951 1037 L2073 1159 L2073 1197 L1951 1075 Z" /></g><g class="o"><path transform="translate(7,14)" class="S sfh" d="M1764 1685 L2049 1970 L2177 1970 L1892 1685 Z"/><path class="fh6" d="M1764 1685 L2049 1970 L2177 1970 L1892 1685 Z" /></g><g class="o"><path transform="translate(7,14)" class="S ssh" d="M1872 2016 L2442 2586 L2466 2586 L1896 2016 Z"/><path class="sh4" d="M1872 2016 L2442 2586 L2466 2586 L1896 2016 Z" /></g><g class="o"><path transform="translate(9,18)" class="S sfh" d="M1127 1427 L988 1288 L1116 1288 L1255 1427 Z"/><path class="fh2" d="M1127 1427 L988 1288 L1116 1288 L1255 1427 Z" /></g><g class="o"><path transform="translate(5,10)" class="S sfh" d="M1798 1876 L1884 1962 L1972 1962 L1886 1876 Z"/><path class="fh5" d="M1798 1876 L1884 1962 L1972 1962 L1886 1876 Z" /></g><g class="o"><path transform="translate(5,10)" class="S sfv" d="M1594 1982 L1679 2067 L1679 2155 L1594 2070 Z"/><path class="fv1" d="M1594 1982 L1679 2067 L1679 2155 L1594 2070 Z" /></g><g class="o"><path transform="translate(4,8)" class="S sfh" d="M1273 1939 L610 1276 L642 1276 L1305 1939 Z"/><path class="fh5" d="M1273 1939 L610 1276 L642 1276 L1305 1939 Z" /></g><g class="o"><path transform="translate(9,18)" class="S sfv" d="M1239 1490 L1410 1319 L1410 1463 L1239 1634 Z"/><path class="fv3" d="M1239 1490 L1410 1319 L1410 1463 L1239 1634 Z" /></g><g class="o"><path transform="translate(6,12)" class="S sfh" d="M1555 997 L1764 788 L1804 788 L1595 997 Z"/><path class="fh7" d="M1555 997 L1764 788 L1804 788 L1595 997 Z" /></g><g class="o"><path transform="translate(6,12)" class="S sfv" d="M974 1815 L1155 1634 L1155 1762 L974 1943 Z"/><path class="fv1" d="M974 1815 L1155 1634 L1155 1762 L974 1943 Z" /></g><g class="o"><path transform="translate(9,18)" class="S sfv" d="M1354 1816 L1155 1617 L1155 1681 L1354 1880 Z"/><path class="fv3" d="M1354 1816 L1155 1617 L1155 1681 L1354 1880 Z" /></g><g class="o"><path transform="translate(3,6)" class="S sfv" d="M1860 1441 L1665 1636 L1665 1724 L1860 1529 Z"/><path class="fv1" d="M1860 1441 L1665 1636 L1665 1724 L1860 1529 Z" /></g><g class="o"><path transform="translate(3,6)" class="S sfh" d="M1858 977 L1934 901 L1972 901 L1896 977 Z"/><path class="fh7" d="M1858 977 L1934 901 L1972 901 L1896 977 Z" /></g><g class="o"><path transform="translate(3,6)" class="S sfh" d="M1367 1726 L1190 1903 L1218 1903 L1395 1726 Z"/><path class="fh7" d="M1367 1726 L1190 1903 L1218 1903 L1395 1726 Z" /></g><g class="o"><path transform="translate(5,10)" class="S sfh" d="M1984 1120 L1911 1047 L1967 1047 L2040 1120 Z"/><path class="fh5" d="M1984 1120 L1911 1047 L1967 1047 L2040 1120 Z" /></g><g class="o"><path transform="translate(7,14)" class="S ssv" d="M1858 1224 L1991 1091 L1991 1179 L1858 1312 Z"/><path class="sv4" d="M1858 1224 L1991 1091 L1991 1179 L1858 1312 Z" /></g><g class="o"><path transform="translate(2,4)" class="S sfv" d="M1190 1277 L1030 1117 L1030 1181 L1190 1341 Z"/><path class="fv6" d="M1190 1277 L1030 1117 L1030 1181 L1190 1341 Z" /></g><g class="o"><path transform="translate(8,16)" class="S sfv" d="M1425 1239 L1360 1174 L1360 1310 L1425 1375 Z"/><path class="fv1" d="M1425 1239 L1360 1174 L1360 1310 L1425 1375 Z" /></g><g class="o"><path transform="translate(8,16)" class="S sfh" d="M1006 1620 L881 1495 L985 1495 L1110 1620 Z"/><path class="fh6" d="M1006 1620 L881 1495 L985 1495 L1110 1620 Z" /></g><g class="o"><path transform="translate(7,14)" class="S ssh" d="M1824 1255 L1652 1427 L1682 1427 L1854 1255 Z"/><path class="sh2" d="M1824 1255 L1652 1427 L1682 1427 L1854 1255 Z" /></g><g class="o"><path transform="translate(7,14)" class="S ssv" d="M1982 1080 L2188 1286 L2188 1358 L1982 1152 Z"/><path class="sv2" d="M1982 1080 L2188 1286 L2188 1358 L1982 1152 Z" /></g><g class="o"><path transform="translate(7,14)" class="S sfv" d="M1076 1967 L1300 1743 L1300 1783 L1076 2007 Z"/><path class="fv2" d="M1076 1967 L1300 1743 L1300 1783 L1076 2007 Z" /></g><g class="o"><path transform="translate(6,12)" class="S sfh" d="M1705 1598 L1219 2084 L1291 2084 L1777 1598 Z"/><path class="fh2" d="M1705 1598 L1219 2084 L1291 2084 L1777 1598 Z" /></g><g class="o"><path transform="translate(2,4)" class="S ssv" d="M1624 965 L1437 1152 L1437 1264 L1624 1077 Z"/><path class="sv7" d="M1624 965 L1437 1152 L1437 1264 L1624 1077 Z" /></g><g class="o"><path transform="translate(7,14)" class="S sf" d="M1947 1183 L1719 1411 L1749 1411 L1977 1183 Z"/><path class="f2" d="M1947 1183 L1719 1411 L1749 1411 L1977 1183 Z" /></g><g class="o"><path transform="translate(4,8)" class="S sfh" d="M918 1773 L360 1215 L424 1215 L982 1773 Z"/><path class="fh2" d="M918 1773 L360 1215 L424 1215 L982 1773 Z" /></g><g class="o"><path transform="translate(5,10)" class="S sf" d="M1439 1496 L1200 1257 L1256 1257 L1495 1496 Z"/><path class="f4" d="M1439 1496 L1200 1257 L1256 1257 L1495 1496 Z" /></g><g class="o"><path transform="translate(2,4)" class="S sfv" d="M1839 1910 L1939 1810 L1939 1962 L1839 2062 Z"/><path class="fv4" d="M1839 1910 L1939 1810 L1939 1962 L1839 2062 Z" /></g><g class="o"><path transform="translate(4,8)" class="S ssv" d="M1530 1559 L1304 1785 L1304 1809 L1530 1583 Z"/><path class="sv1" d="M1530 1559 L1304 1785 L1304 1809 L1530 1583 Z" /></g><g class="o"><path transform="translate(5,10)" class="S sfv" d="M1469 963 L1530 902 L1530 918 L1469 979 Z"/><path class="fv2" d="M1469 963 L1530 902 L1530 918 L1469 979 Z" /></g><g class="o"><path transform="translate(6,12)" class="S ssh" d="M1508 1232 L1401 1125 L1439 1125 L1546 1232 Z"/><path class="sh2" d="M1508 1232 L1401 1125 L1439 1125 L1546 1232 Z" /></g><g class="o"><path transform="translate(7,14)" class="S sfh" d="M2038 1211 L1606 779 L1616 779 L2048 1211 Z"/><path class="fh6" d="M2038 1211 L1606 779 L1616 779 L2048 1211 Z" /></g><g class="o"><path transform="translate(6,12)" class="S sf" d="M1415 1490 L1484 1421 L1484 1453 L1415 1522 Z"/><path class="f7" d="M1415 1490 L1484 1421 L1484 1453 L1415 1522 Z" /></g><g class="o"><path transform="translate(5,10)" class="S sfv" d="M1802 1097 L2031 868 L2031 932 L1802 1161 Z"/><path class="fv3" d="M1802 1097 L2031 868 L2031 932 L1802 1161 Z" /></g><g class="o"><path transform="translate(4,8)" class="S ssh" d="M1633 2003 L1573 1943 L1593 1943 L1653 2003 Z"/><path class="sh5" d="M1633 2003 L1573 1943 L1593 1943 L1653 2003 Z" /></g><g class="o"><path transform="translate(2,4)" class="S sfv" d="M1016 1836 L1156 1976 L1156 2012 L1016 1872 Z"/><path class="fv7" d="M1016 1836 L1156 1976 L1156 2012 L1016 1872 Z" /></g><g class="o"><path transform="translate(5,10)" class="S sf" d="M1975 1610 L1904 1539 L1960 1539 L2031 1610 Z"/><path class="f1" d="M1975 1610 L1904 1539 L1960 1539 L2031 1610 Z" /></g><g class="o"><path transform="translate(7,14)" class="S sfh" d="M1278 1972 L1225 2025 L1321 2025 L1374 1972 Z"/><path class="fh2" d="M1278 1972 L1225 2025 L1321 2025 L1374 1972 Z" /></g><g class="o"><path transform="translate(3,6)" class="S sf" d="M1351 1866 L1241 1976 L1241 2010 L1351 1900 Z"/><path class="f4" d="M1351 1866 L1241 1976 L1241 2010 L1351 1900 Z" /></g><g class="o"><path transform="translate(5,10)" class="S sf" d="M1880 1000 L1655 775 L1669 775 L1894 1000 Z"/><path class="f7" d="M1880 1000 L1655 775 L1669 775 L1894 1000 Z" /></g><g class="o"><path transform="translate(3,6)" class="S sf" d="M1403 1624 L1346 1681 L1466 1681 L1523 1624 Z"/><path class="f6" d="M1403 1624 L1346 1681 L1466 1681 L1523 1624 Z" /></g><g class="o"><path transform="translate(5,10)" class="S sfv" d="M1387 1538 L1324 1601 L1324 1613 L1387 1550 Z"/><path class="fv4" d="M1387 1538 L1324 1601 L1324 1613 L1387 1550 Z" /></g><g class="o"><path transform="translate(8,16)" class="S sfv" d="M1321 1248 L1172 1397 L1172 1533 L1321 1384 Z"/><path class="fv7" d="M1321 1248 L1172 1397 L1172 1533 L1321 1384 Z" /></g><g class="o"><path transform="translate(8,16)" class="S sfh" d="M1178 1809 L1021 1652 L1109 1652 L1266 1809 Z"/><path class="fh5" d="M1178 1809 L1021 1652 L1109 1652 L1266 1809 Z" /></g><g class="o"><path transform="translate(6,12)" class="S sfv" d="M1146 1877 L979 1710 L979 1750 L1146 1917 Z"/><path class="fv5" d="M1146 1877 L979 1710 L979 1750 L1146 1917 Z" /></g><g class="o"><path transform="translate(3,6)" class="S sfh" d="M1084 1199 L843 958 L875 958 L1116 1199 Z"/><path class="fh6" d="M1084 1199 L843 958 L875 958 L1116 1199 Z" /></g><g class="o"><path transform="translate(2,4)" class="S ss" d="M1560 948 L1379 767 L1379 863 L1560 1044 Z"/><path class="s5" d="M1560 948 L1379 767 L1379 863 L1560 1044 Z" /></g><g class="o"><path transform="translate(7,14)" class="S sf" d="M1349 1644 L1171 1466 L1171 1578 L1349 1756 Z"/><path class="f2" d="M1349 1644 L1171 1466 L1171 1578 L1349 1756 Z" /></g><g class="o"><path transform="translate(5,10)" class="S ssh" d="M1340 1776 L1243 1873 L1315 1873 L1412 1776 Z"/><path class="sh3" d="M1340 1776 L1243 1873 L1315 1873 L1412 1776 Z" /></g><g class="o"><path transform="translate(6,12)" class="S ssv" d="M1852 990 L2024 818 L2024 826 L1852 998 Z"/><path class="sv7" d="M1852 990 L2024 818 L2024 826 L1852 998 Z" /></g><g class="o"><path transform="translate(4,8)" class="S sfv" d="M1706 1408 L1544 1570 L1544 1674 L1706 1512 Z"/><path class="fv3" d="M1706 1408 L1544 1570 L1544 1674 L1706 1512 Z" /></g><g class="o"><path transform="translate(5,10)" class="S sf" d="M1308 1012 L1385 935 L1385 1055 L1308 1132 Z"/><path class="f6" d="M1308 1012 L1385 935 L1385 1055 L1308 1132 Z" /></g><g class="o"><path transform="translate(4,8)" class="S ssh" d="M916 1972 L667 2221 L795 2221 L1044 1972 Z"/><path class="sh1" d="M916 1972 L667 2221 L795 2221 L1044 1972 Z" /></g><g class="o"><path transform="translate(7,14)" class="S sfv" d="M1036 1619 L1130 1525 L1130 1629 L1036 1723 Z"/><path class="fv4" d="M1036 1619 L1130 1525 L1130 1629 L1036 1723 Z" /></g><g class="o"><path transform="translate(5,10)" class="S sfv" d="M1548 1159 L1713 1324 L1713 1364 L1548 1199 Z"/><path class="fv7" d="M1548 1159 L1713 1324 L1713 1364 L1548 1199 Z" /></g><g class="o"><path transform="translate(4,8)" class="S sfv" d="M2015 1476 L1963 1528 L1963 1550 L2015 1498 Z"/><path class="fv1" d="M2015 1476 L1963 1528 L1963 1550 L2015 1498 Z" /></g><g class="o"><path transform="translate(8,16)" class="S sfv" d="M1598 1914 L1479 2033 L1479 2129 L1598 2010 Z"/><path class="fv1" d="M1598 1914 L1479 2033 L1479 2129 L1598 2010 Z" /></g><g class="o"><path transform="translate(6,12)" class="S ssv" d="M1913 1509 L2627 795 L2627 851 L1913 1565 Z"/><path class="sv6" d="M1913 1509 L2627 795 L2627 851 L1913 1565 Z" /></g><g class="o"><path transform="translate(4,8)" class="S ss" d="M898 1549 L801 1452 L937 1452 L1034 1549 Z"/><path class="s3" d="M898 1549 L801 1452 L937 1452 L1034 1549 Z" /></g><g class="o"><path transform="translate(2,4)" class="S sfv" d="M1517 1919 L1694 1742 L1694 1878 L1517 2055 Z"/><path class="fv1" d="M1517 1919 L1694 1742 L1694 1878 L1517 2055 Z" /></g><g class="o"><path transform="translate(6,12)" class="S ss" d="M967 1653 L1417 2103 L1417 2159 L967 1709 Z"/><path class="s5" d="M967 1653 L1417 2103 L1417 2159 L967 1709 Z" /></g><g class="o"><path transform="translate(9,18)" class="S sfv" d="M1616 1739 L1689 1666 L1689 1698 L1616 1771 Z"/><path class="fv6" d="M1616 1739 L1689 1666 L1689 1698 L1616 1771 Z" /></g><g class="o"><path transform="translate(4,8)" class="S sfh" d="M920 1714 L1054 1580 L1182 1580 L1048 1714 Z"/><path class="fh1" d="M920 1714 L1054 1580 L1182 1580 L1048 1714 Z" /></g><g class="o"><path transform="translate(4,8)" class="S sfh" d="M1130 1400 L957 1573 L991 1573 L1164 1400 Z"/><path class="fh1" d="M1130 1400 L957 1573 L991 1573 L1164 1400 Z" /></g><g class="o"><path transform="translate(9,18)" class="S sf" d="M1366 1231 L1461 1136 L1525 1136 L1430 1231 Z"/><path class="f1" d="M1366 1231 L1461 1136 L1525 1136 L1430 1231 Z" /></g><g class="o"><path transform="translate(3,6)" class="S sf" d="M1777 1767 L1602 1942 L1602 2022 L1777 1847 Z"/><path class="f7" d="M1777 1767 L1602 1942 L1602 2022 L1777 1847 Z" /></g><g class="o"><path transform="translate(8,16)" class="S sfv" d="M1658 1735 L1418 1495 L1418 1615 L1658 1855 Z"/><path class="fv6" d="M1658 1735 L1418 1495 L1418 1615 L1658 1855 Z" /></g><g class="o"><path transform="translate(3,6)" class="S ssh" d="M1041 1973 L926 1858 L960 1858 L1075 1973 Z"/><path class="sh2" d="M1041 1973 L926 1858 L960 1858 L1075 1973 Z" /></g><g class="o"><path transform="translate(8,16)" class="S sfh" d="M1066 1907 L830 1671 L950 1671 L1186 1907 Z"/><path class="fh5" d="M1066 1907 L830 1671 L950 1671 L1186 1907 Z" /></g><g class="o"><path transform="translate(5,10)" class="S ssv" d="M1291 1601 L1516 1376 L1516 1448 L1291 1673 Z"/><path class="sv5" d="M1291 1601 L1516 1376 L1516 1448 L1291 1673 Z" /></g><g class="o"><path transform="translate(6,12)" class="S sfv" d="M1517 1967 L1684 1800 L1684 1864 L1517 2031 Z"/><path class="fv5" d="M1517 1967 L1684 1800 L1684 1864 L1517 2031 Z" /></g><g class="o"><path transform="translate(3,6)" class="S sfh" d="M1862 2034 L1668 2228 L1716 2228 L1910 2034 Z"/><path class="fh1" d="M1862 2034 L1668 2228 L1716 2228 L1910 2034 Z" /></g><g class="o"><path transform="translate(9,18)" class="S ssv" d="M1565 1878 L1634 1809 L1634 1857 L1565 1926 Z"/><path class="sv3" d="M1565 1878 L1634 1809 L1634 1857 L1565 1926 Z" /></g><g class="o"><path transform="translate(4,8)" class="S sfh" d="M1466 1099 L1388 1177 L1396 1177 L1474 1099 Z"/><path class="fh6" d="M1466 1099 L1388 1177 L1396 1177 L1474 1099 Z" /></g><g class="o"><path transform="translate(9,18)" class="S sf" d="M995 1747 L1199 1951 L1335 1951 L1131 1747 Z"/><path class="f1" d="M995 1747 L1199 1951 L1335 1951 L1131 1747 Z" /></g><g class="o"><path transform="translate(8,16)" class="S sf" d="M1989 1368 L2073 1284 L2073 1310 L1989 1394 Z"/><path class="f2" d="M1989 1368 L2073 1284 L2073 1310 L1989 1394 Z" /></g><g class="o"><path transform="translate(7,14)" class="S sfv" d="M1098 1299 L918 1119 L918 1231 L1098 1411 Z"/><path class="fv3" d="M1098 1299 L918 1119 L918 1231 L1098 1411 Z" /></g><g class="o"><path transform="translate(5,10)" class="S sf" d="M1224 1838 L1373 1987 L1381 1987 L1232 1838 Z"/><path class="f1" d="M1224 1838 L1373 1987 L1381 1987 L1232 1838 Z" /></g><g class="o"><path transform="translate(5,10)" class="S sfh" d="M1707 1058 L1817 1168 L1847 1168 L1737 1058 Z"/><path class="fh7" d="M1707 1058 L1817 1168 L1847 1168 L1737 1058 Z" /></g><g class="o"><path transform="translate(4,8)" class="S sfv" d="M1062 1452 L1129 1519 L1129 1655 L1062 1588 Z"/><path class="fv1" d="M1062 1452 L1129 1519 L1129 1655 L1062 1588 Z" /></g><g class="o"><path transform="translate(6,12)" class="S sfv" d="M1009 1539 L397 2151 L397 2263 L1009 1651 Z"/><path class="fv7" d="M1009 1539 L397 2151 L397 2263 L1009 1651 Z" /></g><g class="o"><path transform="translate(3,6)" class="S sfh" d="M989 1797 L901 1885 L933 1885 L1021 1797 Z"/><path class="fh4" d="M989 1797 L901 1885 L933 1885 L1021 1797 Z" /></g><g class="o"><path transform="translate(5,10)" class="S sfv" d="M1299 1113 L1248 1062 L1248 1100 L1299 1151 Z"/><path class="fv5" d="M1299 1113 L1248 1062 L1248 1100 L1299 1151 Z" /></g><g class="o"><path transform="translate(6,12)" class="S sfh" d="M1734 1409 L1681 1462 L1729 1462 L1782 1409 Z"/><path class="fh1" d="M1734 1409 L1681 1462 L1729 1462 L1782 1409 Z" /></g><g class="o"><path transform="translate(8,16)" class="S sfv" d="M1995 1816 L1828 1649 L1828 1665 L1995 1832 Z"/><path class="fv4" d="M1995 1816 L1828 1649 L1828 1665 L1995 1832 Z" /></g><g class="o"><path transform="translate(9,18)" class="S sfh" d="M1118 1036 L1300 854 L1356 854 L1174 1036 Z"/><path class="fh2" d="M1118 1036 L1300 854 L1356 854 L1174 1036 Z" /></g><g class="o"><path transform="translate(8,16)" class="S sfh" d="M1769 1970 L1703 2036 L1839 2036 L1905 1970 Z"/><path class="fh1" d="M1769 1970 L1703 2036 L1839 2036 L1905 1970 Z" /></g><g class="o"><path transform="translate(5,10)" class="S sf" d="M1638 1736 L1876 1498 L1932 1498 L1694 1736 Z"/><path class="f4" d="M1638 1736 L1876 1498 L1932 1498 L1694 1736 Z" /></g><g class="o"><path transform="translate(6,12)" class="S sfv" d="M1868 1100 L1702 1266 L1702 1370 L1868 1204 Z"/><path class="fv7" d="M1868 1100 L1702 1266 L1702 1370 L1868 1204 Z" /></g><g class="o"><path transform="translate(2,4)" class="S sfv" d="M1771 1432 L1981 1222 L1981 1232 L1771 1442 Z"/><path class="fv3" d="M1771 1432 L1981 1222 L1981 1232 L1771 1442 Z" /></g><g class="o"><path transform="translate(6,12)" class="S sfv" d="M1638 1545 L1712 1619 L1712 1683 L1638 1609 Z"/><path class="fv1" d="M1638 1545 L1712 1619 L1712 1683 L1638 1609 Z" /></g><g class="o"><path transform="translate(3,6)" class="S sfh" d="M1999 1731 L2226 1504 L2244 1504 L2017 1731 Z"/><path class="fh3" d="M1999 1731 L2226 1504 L2244 1504 L2017 1731 Z" /></g><g class="o"><path transform="translate(9,18)" class="S sf" d="M1897 985 L1594 682 L1594 770 L1897 1073 Z"/><path class="f1" d="M1897 985 L1594 682 L1594 770 L1897 1073 Z" /></g><g class="o"><path transform="translate(9,18)" class="S sf" d="M1835 1697 L1705 1827 L1705 1939 L1835 1809 Z"/><path class="f1" d="M1835 1697 L1705 1827 L1705 1939 L1835 1809 Z" /></g><g class="o"><path transform="translate(5,10)" class="S sfv" d="M1032 952 L804 724 L804 836 L1032 1064 Z"/><path class="fv7" d="M1032 952 L804 724 L804 836 L1032 1064 Z" /></g><g class="o"><path transform="translate(9,18)" class="S sfh" d="M1246 1718 L760 2204 L872 2204 L1358 1718 Z"/><path class="fh4" d="M1246 1718 L760 2204 L872 2204 L1358 1718 Z" /></g><g class="o"><path transform="translate(2,4)" class="S sfh" d="M1305 1281 L1216 1192 L1248 1192 L1337 1281 Z"/><path class="fh6" d="M1305 1281 L1216 1192 L1248 1192 L1337 1281 Z" /></g><g class="o"><path transform="translate(3,6)" class="S sfh" d="M1759 1899 L1954 1704 L1986 1704 L1791 1899 Z"/><path class="fh7" d="M1759 1899 L1954 1704 L1986 1704 L1791 1899 Z" /></g><g class="o"><path transform="translate(6,12)" class="S sfv" d="M1465 1233 L1695 1463 L1695 1501 L1465 1271 Z"/><path class="fv7" d="M1465 1233 L1695 1463 L1695 1501 L1465 1271 Z" /></g><g class="o"><path transform="translate(4,8)" class="S sfh" d="M1391 1064 L1554 901 L1634 901 L1471 1064 Z"/><path class="fh3" d="M1391 1064 L1554 901 L1634 901 L1471 1064 Z" /></g><g class="o"><path transform="translate(3,6)" class="S sfv" d="M1261 1523 L1493 1755 L1493 1811 L1261 1579 Z"/><path class="fv6" d="M1261 1523 L1493 1755 L1493 1811 L1261 1579 Z" /></g><g class="o"><path transform="translate(9,18)" class="S sfv" d="M1188 1008 L995 815 L995 935 L1188 1128 Z"/><path class="fv4" d="M1188 1008 L995 815 L995 935 L1188 1128 Z" /></g><g class="o"><path transform="translate(3,6)" class="S ssv" d="M1945 1024 L2020 1099 L2020 1211 L1945 1136 Z"/><path class="sv1" d="M1945 1024 L2020 1099 L2020 1211 L1945 1136 Z" /></g><g class="o"><path transform="translate(6,12)" class="S sfh" d="M1503 1520 L1343 1360 L1495 1360 L1655 1520 Z"/><path class="fh3" d="M1503 1520 L1343 1360 L1495 1360 L1655 1520 Z" /></g><g class="o"><path transform="translate(7,14)" class="S sfv" d="M1021 1094 L805 1310 L805 1320 L1021 1104 Z"/><path class="fv3" d="M1021 1094 L805 1310 L805 1320 L1021 1104 Z" /></g><g class="o"><path transform="translate(2,4)" class="S sfh" d="M1060 1063 L1636 1639 L1668 1639 L1092 1063 Z"/><path class="fh3" d="M1060 1063 L1636 1639 L1668 1639 L1092 1063 Z" /></g></g><use href="#slashes" transform-origin="1500 1500" transform="rotate(180) scale(2)"/></g><rect x="1080" y="1080" width="840" height="840" stroke-width="10" class="o s4" /><use href="#slashes" transform-origin="1500 1500" transform="scale(.6)"/><use href="#slashes" transform-origin="1500 1500" transform="rotate(180) scale(.6)"/></svg>