<svg xmlns="http://www.w3.org/2000/svg" viewBox="750 750 1500 1500"><style>/*<![CDATA[*/svg{background:rgb(252,163,17);max-width:100vw;max-height:100vh}path{stroke-width:4}.o{opacity:.75}.S{opacity:.4}.sf{stroke:none;fill:black}.sfh{stroke:none;fill:url(#hs)}.sfv{stroke:none;fill:url(#vs)}.ss{stroke:black;fill:none}.ssh{stroke:url(#hs);fill:none}.ssv{stroke:url(#vs);fill:none}.s1{fill:none;stroke:rgb(229,229,229)}.f1{stroke:none;fill:rgb(229,229,229)}.sh1{fill:none;stroke:url(#h1)}.fh1{stroke:none;fill:url(#h1)}.sv1{fill:none;stroke:url(#v1)}.fv1{stroke:none;fill:url(#v1)}.s2{fill:none;stroke:rgb(255,255,255)}.f2{stroke:none;fill:rgb(255,255,255)}.sh2{fill:none;stroke:url(#h2)}.fh2{stroke:none;fill:url(#h2)}.sv2{fill:none;stroke:url(#v2)}.fv2{stroke:none;fill:url(#v2)}.s3{fill:none;stroke:rgb(0,0,0)}.f3{stroke:none;fill:rgb(0,0,0)}.sh3{fill:none;stroke:url(#h3)}.fh3{stroke:none;fill:url(#h3)}.sv3{fill:none;stroke:url(#v3)}.fv3{stroke:none;fill:url(#v3)}.s4{fill:none;stroke:rgb(20,33,61)}.f4{stroke:none;fill:rgb(20,33,61)}.sh4{fill:none;stroke:url(#h4)}.fh4{stroke:none;fill:url(#h4)}.sv4{fill:none;stroke:url(#v4)}.fv4{stroke:none;fill:url(#v4)}.s5{fill:none;stroke:rgb(34,34,34)}.f5{stroke:none;fill:rgb(34,34,34)}.sh5{fill:none;stroke:url(#h5)}.fh5{stroke:none;fill:url(#h5)}.sv5{fill:none;stroke:url(#v5)}.fv5{stroke:none;fill:url(#v5)}.s6{fill:none;stroke:rgb(255,255,255)}.f6{stroke:none;fill:rgb(255,255,255)}.sh6{fill:none;stroke:url(#h6)}.fh6{stroke:none;fill:url(#h6)}.sv6{fill:none;stroke:url(#v6)}.fv6{stroke:none;fill:url(#v6)}.s7{fill:none;stroke:rgb(255,255,0)}.f7{stroke:none;fill:rgb(255,255,0)}.sh7{fill:none;stroke:url(#h7)}.fh7{stroke:none;fill:url(#h7)}.sv7{fill:none;stroke:url(#v7)}.fv7{stroke:none;fill:url(#v7)}/*]]>*/</style><defs><linearGradient gradientTransform="rotate(90)" id="hs"><stop offset="20%" stop-color="#000" /><stop offset="95%" stop-color="rgba(0, 0, 0, 0)" /></linearGradient><linearGradient id="vs"><stop offset="20%" stop-color="#000" /><stop offset="95%" stop-color="rgba(0, 0, 0, 0)" /></linearGradient><linearGradient gradientTransform="rotate(90)" id="h1"><stop offset="20%" stop-color="rgba(229,229,229,1)" /><stop offset="95%" stop-color="rgba(229,229,229,0)" /></linearGradient><linearGradient id="v1"><stop offset="20%" stop-color="rgba(229,229,229,1)" /><stop offset="95%" stop-color="rgba(229,229,229,0)" /></linearGradient><linearGradient gradientTransform="rotate(90)" id="h2"><stop offset="20%" stop-color="rgba(255,255,255,1)" /><stop offset="95%" stop-color="rgba(255,255,255,0)" /></linearGradient><linearGradient id="v2"><stop offset="20%" stop-color="rgba(255,255,255,1)" /><stop offset="95%" stop-color="rgba(255,255,255,0)" /></linearGradient><linearGradient gradientTransform="rotate(90)" id="h3"><stop offset="20%" stop-color="rgba(0,0,0,1)" /><stop offset="95%" stop-color="rgba(0,0,0,0)" /></linearGradient><linearGradient id="v3"><stop offset="20%" stop-color="rgba(0,0,0,1)" /><stop offset="95%" stop-color="rgba(0,0,0,0)" /></linearGradient><linearGradient gradientTransform="rotate(90)" id="h4"><stop offset="20%" stop-color="rgba(20,33,61,1)" /><stop offset="95%" stop-color="rgba(20,33,61,0)" /></linearGradient><linearGradient id="v4"><stop offset="20%" stop-color="rgba(20,33,61,1)" /><stop offset="95%" stop-color="rgba(20,33,61,0)" /></linearGradient><linearGradient gradientTransform="rotate(90)" id="h5"><stop offset="20%" stop-color="rgba(34,34,34,1)" /><stop offset="95%" stop-color="rgba(34,34,34,0)" /></linearGradient><linearGradient id="v5"><stop offset="20%" stop-color="rgba(34,34,34,1)" /><stop offset="95%" stop-color="rgba(34,34,34,0)" /></linearGradient><linearGradient gradientTransform="rotate(90)" id="h6"><stop offset="20%" stop-color="rgba(255,255,255,1)" /><stop offset="95%" stop-color="rgba(255,255,255,0)" /></linearGradient><linearGradient id="v6"><stop offset="20%" stop-color="rgba(255,255,255,1)" /><stop offset="95%" stop-color="rgba(255,255,255,0)" /></linearGradient><linearGradient gradientTransform="rotate(90)" id="h7"><stop offset="20%" stop-color="rgba(255,255,0,1)" /><stop offset="95%" stop-color="rgba(255,255,0,0)" /></linearGradient><linearGradient id="v7"><stop offset="20%" stop-color="rgba(255,255,0,1)" /><stop offset="95%" stop-color="rgba(255,255,0,0)" /></linearGradient></defs><g transform-origin="1500 1500" transform="scale(2)" opacity=".6"><g id="slashes"><g class="o"><path transform="translate(9,18)" class="S sfv" d="M1235 1320 L878 1677 L878 1697 L1235 1340 Z"/><path class="fv2" d="M1235 1320 L878 1677 L878 1697 L1235 1340 Z" /></g><g class="o"><path transform="translate(2,4)" class="S sfh" d="M1188 1176 L1794 1782 L1818 1782 L1212 1176 Z"/><path class="fh3" d="M1188 1176 L1794 1782 L1818 1782 L1212 1176 Z" /></g><g class="o"><path transform="translate(8,16)" class="S ssh" d="M1279 1212 L1506 985 L1520 985 L1293 1212 Z"/><path class="sh2" d="M1279 1212 L1506 985 L1520 985 L1293 1212 Z" /></g><g class="o"><path transform="translate(3,6)" class="S sfv" d="M1137 1685 L522 1070 L522 1134 L1137 1749 Z"/><path class="fv5" d="M1137 1685 L522 1070 L522 1134 L1137 1749 Z" /></g><g class="o"><path transform="translate(2,4)" class="S sf" d="M1381 1622 L1552 1451 L1552 1471 L1381 1642 Z"/><path class="f4" d="M1381 1622 L1552 1451 L1552 1471 L1381 1642 Z" /></g><g class="o"><path transform="translate(6,12)" class="S sfh" d="M1307 978 L1049 720 L1083 720 L1341 978 Z"/><path class="fh6" d="M1307 978 L1049 720 L1083 720 L1341 978 Z" /></g><g class="o"><path transform="translate(9,18)" class="S sfh" d="M1590 1769 L1749 1928 L1787 1928 L1628 1769 Z"/><path class="fh3" d="M1590 1769 L1749 1928 L1787 1928 L1628 1769 Z" /></g><g class="o"><path transform="translate(3,6)" class="S sfv" d="M1945 1509 L2133 1697 L2133 1733 L1945 1545 Z"/><path class="fv3" d="M1945 1509 L2133 1697 L2133 1733 L1945 1545 Z" /></g><g class="o"><path transform="translate(9,18)" class="S sf" d="M1170 1939 L1406 2175 L1422 2175 L1186 1939 Z"/><path class="f3" d="M1170 1939 L1406 2175 L1422 2175 L1186 1939 Z" /></g><g class="o"><path transform="translate(8,16)" class="S sfh" d="M1798 1031 L1985 1218 L1997 1218 L1810 1031 Z"/><path class="fh7" d="M1798 1031 L1985 1218 L1997 1218 L1810 1031 Z" /></g><g class="o"><path transform="translate(8,16)" class="S sfv" d="M1522 1946 L952 2516 L952 2550 L1522 1980 Z"/><path class="fv3" d="M1522 1946 L952 2516 L952 2550 L1522 1980 Z" /></g><g class="o"><path transform="translate(8,16)" class="S sfv" d="M1275 1202 L1338 1265 L1338 1291 L1275 1228 Z"/><path class="fv5" d="M1275 1202 L1338 1265 L1338 1291 L1275 1228 Z" /></g><g class="o"><path transform="translate(8,16)" class="S sf" d="M1400 1480 L1168 1248 L1204 1248 L1436 1480 Z"/><path class="f3" d="M1400 1480 L1168 1248 L1204 1248 L1436 1480 Z" /></g><g class="o"><path transform="translate(2,4)" class="S sf" d="M1120 1387 L1181 1326 L1181 1364 L1120 1425 Z"/><path class="f1" d="M1120 1387 L1181 1326 L1181 1364 L1120 1425 Z" /></g><g class="o"><path transform="translate(4,8)" class="S sf" d="M1603 1257 L1534 1326 L1534 1342 L1603 1273 Z"/><path class="f1" d="M1603 1257 L1534 1326 L1534 1342 L1603 1273 Z" /></g><g class="o"><path transform="translate(9,18)" class="S ssv" d="M1187 984 L1289 882 L1289 954 L1187 1056 Z"/><path class="sv1" d="M1187 984 L1289 882 L1289 954 L1187 1056 Z" /></g><g class="o"><path transform="translate(5,10)" class="S sfh" d="M1788 1748 L1245 2291 L1277 2291 L1820 1748 Z"/><path class="fh7" d="M1788 1748 L1245 2291 L1277 2291 L1820 1748 Z" /></g><g class="o"><path transform="translate(3,6)" class="S sfh" d="M1344 1679 L1508 1515 L1542 1515 L1378 1679 Z"/><path class="fh1" d="M1344 1679 L1508 1515 L1542 1515 L1378 1679 Z" /></g><g class="o"><path transform="translate(7,14)" class="S sfv" d="M1933 1485 L2098 1650 L2098 1660 L1933 1495 Z"/><path class="fv2" d="M1933 1485 L2098 1650 L2098 1660 L1933 1495 Z" /></g><g class="o"><path transform="translate(4,8)" class="S ssh" d="M1669 1288 L1460 1497 L1472 1497 L1681 1288 Z"/><path class="sh3" d="M1669 1288 L1460 1497 L1472 1497 L1681 1288 Z" /></g><g class="o"><path transform="translate(9,18)" class="S sfv" d="M1221 1423 L1158 1360 L1158 1374 L1221 1437 Z"/><path class="fv4" d="M1221 1423 L1158 1360 L1158 1374 L1221 1437 Z" /></g><g class="o"><path transform="translate(8,16)" class="S sfv" d="M1750 1048 L1567 1231 L1567 1253 L1750 1070 Z"/><path class="fv5" d="M1750 1048 L1567 1231 L1567 1253 L1750 1070 Z" /></g><g class="o"><path transform="translate(3,6)" class="S sfh" d="M1769 1843 L1976 2050 L2002 2050 L1795 1843 Z"/><path class="fh1" d="M1769 1843 L1976 2050 L2002 2050 L1795 1843 Z" /></g><g class="o"><path transform="translate(4,8)" class="S ssh" d="M1427 1086 L1300 1213 L1320 1213 L1447 1086 Z"/><path class="sh2" d="M1427 1086 L1300 1213 L1320 1213 L1447 1086 Z" /></g><g class="o"><path transform="translate(7,14)" class="S sfh" d="M1380 1656 L939 1215 L953 1215 L1394 1656 Z"/><path class="fh4" d="M1380 1656 L939 1215 L953 1215 L1394 1656 Z" /></g><g class="o"><path transform="translate(4,8)" class="S ssh" d="M1504 1927 L2032 2455 L2042 2455 L1514 1927 Z"/><path class="sh6" d="M1504 1927 L2032 2455 L2042 2455 L1514 1927 Z" /></g><g class="o"><path transform="translate(5,10)" class="S ss" d="M1543 1825 L1342 2026 L1354 2026 L1555 1825 Z"/><path class="s5" d="M1543 1825 L1342 2026 L1354 2026 L1555 1825 Z" /></g><g class="o"><path transform="translate(9,18)" class="S ssv" d="M1904 1886 L2465 1325 L2465 1337 L1904 1898 Z"/><path class="sv7" d="M1904 1886 L2465 1325 L2465 1337 L1904 1898 Z" /></g><g class="o"><path transform="translate(4,8)" class="S sfv" d="M1259 1099 L1073 913 L1073 939 L1259 1125 Z"/><path class="fv7" d="M1259 1099 L1073 913 L1073 939 L1259 1125 Z" /></g><g class="o"><path transform="translate(7,14)" class="S sf" d="M1079 1069 L1469 679 L1485 679 L1095 1069 Z"/><path class="f5" d="M1079 1069 L1469 679 L1485 679 L1095 1069 Z" /></g><g class="o"><path transform="translate(3,6)" class="S ssv" d="M1736 1451 L1551 1636 L1551 1650 L1736 1465 Z"/><path class="sv5" d="M1736 1451 L1551 1636 L1551 1650 L1736 1465 Z" /></g><g class="o"><path transform="translate(9,18)" class="S sfh" d="M1835 1455 L1650 1270 L1666 1270 L1851 1455 Z"/><path class="fh1" d="M1835 1455 L1650 1270 L1666 1270 L1851 1455 Z" /></g><g class="o"><path transform="translate(9,18)" class="S sfh" d="M2002 1860 L2163 1699 L2179 1699 L2018 1860 Z"/><path class="fh4" d="M2002 1860 L2163 1699 L2179 1699 L2018 1860 Z" /></g><g class="o"><path transform="translate(8,16)" class="S ssv" d="M1389 1225 L1569 1045 L1569 1075 L1389 1255 Z"/><path class="sv6" d="M1389 1225 L1569 1045 L1569 1075 L1389 1255 Z" /></g><g class="o"><path transform="translate(6,12)" class="S sfh" d="M1438 1534 L1211 1307 L1247 1307 L1474 1534 Z"/><path class="fh2" d="M1438 1534 L1211 1307 L1247 1307 L1474 1534 Z" /></g><g class="o"><path transform="translate(7,14)" class="S sf" d="M2002 991 L2210 783 L2228 783 L2020 991 Z"/><path class="f2" d="M2002 991 L2210 783 L2228 783 L2020 991 Z" /></g><g class="o"><path transform="translate(5,10)" class="S sfh" d="M1077 1499 L1270 1692 L1302 1692 L1109 1499 Z"/><path class="fh4" d="M1077 1499 L1270 1692 L1302 1692 L1109 1499 Z" /></g><g class="o"><path transform="translate(9,18)" class="S ssv" d="M1487 1869 L1349 1731 L1349 1739 L1487 1877 Z"/><path class="sv1" d="M1487 1869 L1349 1731 L1349 1739 L1487 1877 Z" /></g><g class="o"><path transform="translate(3,6)" class="S sfh" d="M975 1646 L1317 1988 L1331 1988 L989 1646 Z"/><path class="fh6" d="M975 1646 L1317 1988 L1331 1988 L989 1646 Z" /></g><g class="o"><path transform="translate(9,18)" class="S sfv" d="M1655 1107 L1808 954 L1808 992 L1655 1145 Z"/><path class="fv2" d="M1655 1107 L1808 954 L1808 992 L1655 1145 Z" /></g><g class="o"><path transform="translate(4,8)" class="S sfv" d="M1045 1875 L619 2301 L619 2331 L1045 1905 Z"/><path class="fv7" d="M1045 1875 L619 2301 L619 2331 L1045 1905 Z" /></g><g class="o"><path transform="translate(6,12)" class="S ssv" d="M1913 1118 L1665 870 L1665 888 L1913 1136 Z"/><path class="sv1" d="M1913 1118 L1665 870 L1665 888 L1913 1136 Z" /></g><g class="o"><path transform="translate(3,6)" class="S ssh" d="M1508 1358 L1400 1466 L1416 1466 L1524 1358 Z"/><path class="sh4" d="M1508 1358 L1400 1466 L1416 1466 L1524 1358 Z" /></g><g class="o"><path transform="translate(4,8)" class="S ssh" d="M1477 1485 L1278 1684 L1306 1684 L1505 1485 Z"/><path class="sh2" d="M1477 1485 L1278 1684 L1306 1684 L1505 1485 Z" /></g><g class="o"><path transform="translate(3,6)" class="S sfh" d="M1039 1526 L802 1289 L820 1289 L1057 1526 Z"/><path class="fh3" d="M1039 1526 L802 1289 L820 1289 L1057 1526 Z" /></g><g class="o"><path transform="translate(3,6)" class="S sf" d="M1024 1876 L1525 1375 L1565 1375 L1064 1876 Z"/><path class="f1" d="M1024 1876 L1525 1375 L1565 1375 L1064 1876 Z" /></g><g class="o"><path transform="translate(4,8)" class="S sfv" d="M1555 1236 L1781 1010 L1781 1032 L1555 1258 Z"/><path class="fv3" d="M1555 1236 L1781 1010 L1781 1032 L1555 1258 Z" /></g><g class="o"><path transform="translate(7,14)" class="S sfv" d="M1780 1740 L1946 1906 L1946 1924 L1780 1758 Z"/><path class="fv5" d="M1780 1740 L1946 1906 L1946 1924 L1780 1758 Z" /></g><g class="o"><path transform="translate(6,12)" class="S sfh" d="M1078 1438 L1298 1218 L1312 1218 L1092 1438 Z"/><path class="fh3" d="M1078 1438 L1298 1218 L1312 1218 L1092 1438 Z" /></g><g class="o"><path transform="translate(2,4)" class="S sfv" d="M1219 1856 L1900 2537 L1900 2545 L1219 1864 Z"/><path class="fv2" d="M1219 1856 L1900 2537 L1900 2545 L1219 1864 Z" /></g><g class="o"><path transform="translate(5,10)" class="S sfh" d="M1508 1295 L2006 1793 L2030 1793 L1532 1295 Z"/><path class="fh7" d="M1508 1295 L2006 1793 L2030 1793 L1532 1295 Z" /></g><g class="o"><path transform="translate(9,18)" class="S ssv" d="M1313 2007 L932 1626 L932 1660 L1313 2041 Z"/><path class="sv2" d="M1313 2007 L932 1626 L932 1660 L1313 2041 Z" /></g><g class="o"><path transform="translate(3,6)" class="S ssv" d="M1488 2008 L1953 2473 L1953 2485 L1488 2020 Z"/><path class="sv7" d="M1488 2008 L1953 2473 L1953 2485 L1488 2020 Z" /></g><g class="o"><path transform="translate(7,14)" class="S sf" d="M1474 1594 L1663 1405 L1663 1423 L1474 1612 Z"/><path class="f3" d="M1474 1594 L1663 1405 L1663 1423 L1474 1612 Z" /></g><g class="o"><path transform="translate(3,6)" class="S sf" d="M1990 1917 L2119 2046 L2119 2070 L1990 1941 Z"/><path class="f7" d="M1990 1917 L2119 2046 L2119 2070 L1990 1941 Z" /></g><g class="o"><path transform="translate(6,12)" class="S sfv" d="M1244 1958 L1085 1799 L1085 1807 L1244 1966 Z"/><path class="fv7" d="M1244 1958 L1085 1799 L1085 1807 L1244 1966 Z" /></g><g class="o"><path transform="translate(2,4)" class="S sfv" d="M1711 1766 L1608 1869 L1608 1893 L1711 1790 Z"/><path class="fv4" d="M1711 1766 L1608 1869 L1608 1893 L1711 1790 Z" /></g><g class="o"><path transform="translate(4,8)" class="S ssh" d="M1751 1759 L1642 1868 L1722 1868 L1831 1759 Z"/><path class="sh1" d="M1751 1759 L1642 1868 L1722 1868 L1831 1759 Z" /></g><g class="o"><path transform="translate(2,4)" class="S ssv" d="M1471 1429 L1300 1600 L1300 1630 L1471 1459 Z"/><path class="sv4" d="M1471 1429 L1300 1600 L1300 1630 L1471 1459 Z" /></g><g class="o"><path transform="translate(5,10)" class="S ssv" d="M1810 1300 L1931 1421 L1931 1435 L1810 1314 Z"/><path class="sv5" d="M1810 1300 L1931 1421 L1931 1435 L1810 1314 Z" /></g><g class="o"><path transform="translate(8,16)" class="S sf" d="M1494 1938 L999 1443 L1025 1443 L1520 1938 Z"/><path class="f7" d="M1494 1938 L999 1443 L1025 1443 L1520 1938 Z" /></g><g class="o"><path transform="translate(3,6)" class="S sfv" d="M1567 1930 L1840 1657 L1840 1687 L1567 1960 Z"/><path class="fv6" d="M1567 1930 L1840 1657 L1840 1687 L1567 1960 Z" /></g><g class="o"><path transform="translate(6,12)" class="S sf" d="M1545 1933 L813 1201 L813 1227 L1545 1959 Z"/><path class="f6" d="M1545 1933 L813 1201 L813 1227 L1545 1959 Z" /></g><g class="o"><path transform="translate(4,8)" class="S ssh" d="M1357 1922 L1852 2417 L1860 2417 L1365 1922 Z"/><path class="sh1" d="M1357 1922 L1852 2417 L1860 2417 L1365 1922 Z" /></g><g class="o"><path transform="translate(4,8)" class="S sfv" d="M1677 1018 L1881 814 L1881 822 L1677 1026 Z"/><path class="fv3" d="M1677 1018 L1881 814 L1881 822 L1677 1026 Z" /></g><g class="o"><path transform="translate(8,16)" class="S sfh" d="M1225 1727 L1438 1514 L1454 1514 L1241 1727 Z"/><path class="fh6" d="M1225 1727 L1438 1514 L1454 1514 L1241 1727 Z" /></g><g class="o"><path transform="translate(7,14)" class="S sf" d="M1586 1344 L1366 1124 L1384 1124 L1604 1344 Z"/><path class="f2" d="M1586 1344 L1366 1124 L1384 1124 L1604 1344 Z" /></g><g class="o"><path transform="translate(8,16)" class="S ssv" d="M1126 1333 L802 1657 L802 1665 L1126 1341 Z"/><path class="sv4" d="M1126 1333 L802 1657 L802 1665 L1126 1341 Z" /></g><g class="o"><path transform="translate(8,16)" class="S ssv" d="M1926 1150 L2104 1328 L2104 1408 L1926 1230 Z"/><path class="sv6" d="M1926 1150 L2104 1328 L2104 1408 L1926 1230 Z" /></g><g class="o"><path transform="translate(6,12)" class="S sf" d="M1953 1480 L1761 1288 L1761 1324 L1953 1516 Z"/><path class="f5" d="M1953 1480 L1761 1288 L1761 1324 L1953 1516 Z" /></g><g class="o"><path transform="translate(2,4)" class="S sfh" d="M1439 1288 L1672 1521 L1708 1521 L1475 1288 Z"/><path class="fh1" d="M1439 1288 L1672 1521 L1708 1521 L1475 1288 Z" /></g><g class="o"><path transform="translate(3,6)" class="S sfh" d="M1439 1935 L707 2667 L733 2667 L1465 1935 Z"/><path class="fh6" d="M1439 1935 L707 2667 L733 2667 L1465 1935 Z" /></g><g class="o"><path transform="translate(7,14)" class="S sfv" d="M1272 922 L1065 715 L1065 851 L1272 1058 Z"/><path class="fv4" d="M1272 922 L1065 715 L1065 851 L1272 1058 Z" /></g><g class="o"><path transform="translate(8,16)" class="S sf" d="M1167 1973 L1409 1731 L1409 1767 L1167 2009 Z"/><path class="f2" d="M1167 1973 L1409 1731 L1409 1767 L1167 2009 Z" /></g><g class="o"><path transform="translate(9,18)" class="S sfh" d="M1490 1562 L1687 1759 L1759 1759 L1562 1562 Z"/><path class="fh2" d="M1490 1562 L1687 1759 L1759 1759 L1562 1562 Z" /></g><g class="o"><path transform="translate(5,10)" class="S sf" d="M954 1724 L862 1816 L862 1852 L954 1760 Z"/><path class="f1" d="M954 1724 L862 1816 L862 1852 L954 1760 Z" /></g><g class="o"><path transform="translate(8,16)" class="S sfv" d="M975 1686 L261 2400 L261 2408 L975 1694 Z"/><path class="fv5" d="M975 1686 L261 2400 L261 2408 L975 1694 Z" /></g><g class="o"><path transform="translate(7,14)" class="S sfv" d="M1387 973 L1512 1098 L1512 1110 L1387 985 Z"/><path class="fv1" d="M1387 973 L1512 1098 L1512 1110 L1387 985 Z" /></g><g class="o"><path transform="translate(9,18)" class="S sf" d="M1489 1196 L1909 776 L1909 794 L1489 1214 Z"/><path class="f4" d="M1489 1196 L1909 776 L1909 794 L1489 1214 Z" /></g><g class="o"><path transform="translate(7,14)" class="S ssh" d="M1809 1252 L2193 1636 L2217 1636 L1833 1252 Z"/><path class="sh3" d="M1809 1252 L2193 1636 L2217 1636 L1833 1252 Z" /></g><g class="o"><path transform="translate(4,8)" class="S sfv" d="M1685 1317 L1741 1261 L1741 1287 L1685 1343 Z"/><path class="fv3" d="M1685 1317 L1741 1261 L1741 1287 L1685 1343 Z" /></g><g class="o"><path transform="translate(5,10)" class="S sfh" d="M1417 1175 L1337 1255 L1373 1255 L1453 1175 Z"/><path class="fh4" d="M1417 1175 L1337 1255 L1373 1255 L1453 1175 Z" /></g><g class="o"><path transform="translate(7,14)" class="S sfv" d="M1748 1243 L2396 595 L2396 623 L1748 1271 Z"/><path class="fv5" d="M1748 1243 L2396 595 L2396 623 L1748 1271 Z" /></g><g class="o"><path transform="translate(7,14)" class="S ssh" d="M1924 1685 L1540 1301 L1550 1301 L1934 1685 Z"/><path class="sh3" d="M1924 1685 L1540 1301 L1550 1301 L1934 1685 Z" /></g><g class="o"><path transform="translate(4,8)" class="S sfh" d="M1782 1110 L1437 765 L1457 765 L1802 1110 Z"/><path class="fh4" d="M1782 1110 L1437 765 L1457 765 L1802 1110 Z" /></g><g class="o"><path transform="translate(2,4)" class="S sfv" d="M1901 1220 L1397 1724 L1397 1746 L1901 1242 Z"/><path class="fv5" d="M1901 1220 L1397 1724 L1397 1746 L1901 1242 Z" /></g><g class="o"><path transform="translate(4,8)" class="S sf" d="M1291 1542 L1606 1857 L1606 1893 L1291 1578 Z"/><path class="f2" d="M1291 1542 L1606 1857 L1606 1893 L1291 1578 Z" /></g><g class="o"><path transform="translate(9,18)" class="S sfh" d="M1266 1205 L1611 860 L1633 860 L1288 1205 Z"/><path class="fh7" d="M1266 1205 L1611 860 L1633 860 L1288 1205 Z" /></g><g class="o"><path transform="translate(3,6)" class="S sf" d="M1852 1279 L1927 1204 L1951 1204 L1876 1279 Z"/><path class="f6" d="M1852 1279 L1927 1204 L1951 1204 L1876 1279 Z" /></g><g class="o"><path transform="translate(5,10)" class="S sfh" d="M1159 1764 L910 2013 L922 2013 L1171 1764 Z"/><path class="fh1" d="M1159 1764 L910 2013 L922 2013 L1171 1764 Z" /></g><g class="o"><path transform="translate(2,4)" class="S sfh" d="M1140 1618 L1875 883 L1889 883 L1154 1618 Z"/><path class="fh1" d="M1140 1618 L1875 883 L1889 883 L1154 1618 Z" /></g><g class="o"><path transform="translate(5,10)" class="S ss" d="M1299 1489 L1146 1642 L1146 1714 L1299 1561 Z"/><path class="s7" d="M1299 1489 L1146 1642 L1146 1714 L1299 1561 Z" /></g><g class="o"><path transform="translate(7,14)" class="S ssv" d="M1306 1710 L1606 1410 L1606 1428 L1306 1728 Z"/><path class="sv7" d="M1306 1710 L1606 1410 L1606 1428 L1306 1728 Z" /></g><g class="o"><path transform="translate(9,18)" class="S sfh" d="M1617 1987 L1233 1603 L1241 1603 L1625 1987 Z"/><path class="fh4" d="M1617 1987 L1233 1603 L1241 1603 L1625 1987 Z" /></g><g class="o"><path transform="translate(6,12)" class="S sfv" d="M2000 1812 L1376 2436 L1376 2456 L2000 1832 Z"/><path class="fv7" d="M2000 1812 L1376 2436 L1376 2456 L2000 1832 Z" /></g><g class="o"><path transform="translate(7,14)" class="S ss" d="M1509 1019 L2013 515 L2013 547 L1509 1051 Z"/><path class="s1" d="M1509 1019 L2013 515 L2013 547 L1509 1051 Z" /></g><g class="o"><path transform="translate(5,10)" class="S ssh" d="M1094 1917 L1252 2075 L1282 2075 L1124 1917 Z"/><path class="sh3" d="M1094 1917 L1252 2075 L1282 2075 L1124 1917 Z" /></g><g class="o"><path transform="translate(7,14)" class="S ssh" d="M1919 1224 L2130 1013 L2162 1013 L1951 1224 Z"/><path class="sh6" d="M1919 1224 L2130 1013 L2162 1013 L1951 1224 Z" /></g><g class="o"><path transform="translate(8,16)" class="S sf" d="M1698 1608 L1998 1308 L2008 1308 L1708 1608 Z"/><path class="f1" d="M1698 1608 L1998 1308 L2008 1308 L1708 1608 Z" /></g><g class="o"><path transform="translate(5,10)" class="S ss" d="M1121 1490 L1069 1438 L1069 1474 L1121 1526 Z"/><path class="s2" d="M1121 1490 L1069 1438 L1069 1474 L1121 1526 Z" /></g><g class="o"><path transform="translate(4,8)" class="S sfv" d="M1725 1285 L1928 1488 L1928 1510 L1725 1307 Z"/><path class="fv6" d="M1725 1285 L1928 1488 L1928 1510 L1725 1307 Z" /></g><g class="o"><path transform="translate(5,10)" class="S sfv" d="M1110 1013 L891 1232 L891 1336 L1110 1117 Z"/><path class="fv2" d="M1110 1013 L891 1232 L891 1336 L1110 1117 Z" /></g><g class="o"><path transform="translate(7,14)" class="S sfv" d="M1881 1037 L2559 359 L2559 387 L1881 1065 Z"/><path class="fv5" d="M1881 1037 L2559 359 L2559 387 L1881 1065 Z" /></g><g class="o"><path transform="translate(7,14)" class="S sfv" d="M1613 1080 L1368 835 L1368 847 L1613 1092 Z"/><path class="fv6" d="M1613 1080 L1368 835 L1368 847 L1613 1092 Z" /></g><g class="o"><path transform="translate(4,8)" class="S sfh" d="M942 1073 L861 992 L877 992 L958 1073 Z"/><path class="fh1" d="M942 1073 L861 992 L877 992 L958 1073 Z" /></g><g class="o"><path transform="translate(9,18)" class="S sfv" d="M1087 1787 L1226 1648 L1226 1660 L1087 1799 Z"/><path class="fv4" d="M1087 1787 L1226 1648 L1226 1660 L1087 1799 Z" /></g><g class="o"><path transform="translate(2,4)" class="S sf" d="M1996 1056 L2212 1272 L2250 1272 L2034 1056 Z"/><path class="f6" d="M1996 1056 L2212 1272 L2250 1272 L2034 1056 Z" /></g><g class="o"><path transform="translate(3,6)" class="S sfh" d="M1186 1168 L1000 1354 L1038 1354 L1224 1168 Z"/><path class="fh3" d="M1186 1168 L1000 1354 L1038 1354 L1224 1168 Z" /></g><g class="o"><path transform="translate(3,6)" class="S ssh" d="M1278 1597 L1127 1748 L1139 1748 L1290 1597 Z"/><path class="sh7" d="M1278 1597 L1127 1748 L1139 1748 L1290 1597 Z" /></g><g class="o"><path transform="translate(4,8)" class="S sfh" d="M1246 1128 L1147 1227 L1175 1227 L1274 1128 Z"/><path class="fh1" d="M1246 1128 L1147 1227 L1175 1227 L1274 1128 Z" /></g><g class="o"><path transform="translate(7,14)" class="S sfh" d="M1193 1320 L1862 651 L1870 651 L1201 1320 Z"/><path class="fh4" d="M1193 1320 L1862 651 L1870 651 L1201 1320 Z" /></g><g class="o"><path transform="translate(2,4)" class="S sfv" d="M997 1289 L1069 1217 L1069 1369 L997 1441 Z"/><path class="fv6" d="M997 1289 L1069 1217 L1069 1369 L997 1441 Z" /></g><g class="o"><path transform="translate(4,8)" class="S ssh" d="M1513 2029 L817 2725 L851 2725 L1547 2029 Z"/><path class="sh5" d="M1513 2029 L817 2725 L851 2725 L1547 2029 Z" /></g><g class="o"><path transform="translate(6,12)" class="S sfv" d="M957 1106 L1269 794 L1269 818 L957 1130 Z"/><path class="fv7" d="M957 1106 L1269 794 L1269 818 L957 1130 Z" /></g><g class="o"><path transform="translate(6,12)" class="S sfh" d="M1328 977 L1552 1201 L1588 1201 L1364 977 Z"/><path class="fh1" d="M1328 977 L1552 1201 L1588 1201 L1364 977 Z" /></g><g class="o"><path transform="translate(4,8)" class="S sfv" d="M1400 1900 L1461 1961 L1461 1983 L1400 1922 Z"/><path class="fv2" d="M1400 1900 L1461 1961 L1461 1983 L1400 1922 Z" /></g><g class="o"><path transform="translate(5,10)" class="S ssv" d="M1258 1059 L1783 534 L1783 544 L1258 1069 Z"/><path class="sv3" d="M1258 1059 L1783 534 L1783 544 L1258 1069 Z" /></g><g class="o"><path transform="translate(4,8)" class="S sfv" d="M1004 1214 L1478 740 L1478 776 L1004 1250 Z"/><path class="fv6" d="M1004 1214 L1478 740 L1478 776 L1004 1250 Z" /></g><g class="o"><path transform="translate(9,18)" class="S sfv" d="M1845 1700 L1593 1448 L1593 1470 L1845 1722 Z"/><path class="fv3" d="M1845 1700 L1593 1448 L1593 1470 L1845 1722 Z" /></g><g class="o"><path transform="translate(4,8)" class="S sfv" d="M1877 1364 L1733 1508 L1733 1534 L1877 1390 Z"/><path class="fv4" d="M1877 1364 L1733 1508 L1733 1534 L1877 1390 Z" /></g><g class="o"><path transform="translate(3,6)" class="S sfh" d="M1923 1112 L2505 530 L2539 530 L1957 1112 Z"/><path class="fh6" d="M1923 1112 L2505 530 L2539 530 L1957 1112 Z" /></g><g class="o"><path transform="translate(7,14)" class="S sf" d="M1250 1724 L1082 1556 L1104 1556 L1272 1724 Z"/><path class="f4" d="M1250 1724 L1082 1556 L1104 1556 L1272 1724 Z" /></g><g class="o"><path transform="translate(9,18)" class="S ssh" d="M1375 1911 L946 2340 L960 2340 L1389 1911 Z"/><path class="sh7" d="M1375 1911 L946 2340 L960 2340 L1389 1911 Z" /></g><g class="o"><path transform="translate(6,12)" class="S ss" d="M2036 1110 L1886 960 L1886 988 L2036 1138 Z"/><path class="s6" d="M2036 1110 L1886 960 L1886 988 L2036 1138 Z" /></g><g class="o"><path transform="translate(2,4)" class="S sfh" d="M1245 1497 L1481 1261 L1503 1261 L1267 1497 Z"/><path class="fh7" d="M1245 1497 L1481 1261 L1503 1261 L1267 1497 Z" /></g><g class="o"><path transform="translate(6,12)" class="S sfh" d="M1869 1697 L1984 1812 L2104 1812 L1989 1697 Z"/><path class="fh4" d="M1869 1697 L1984 1812 L2104 1812 L1989 1697 Z" /></g><g class="o"><path transform="translate(9,18)" class="S sfv" d="M1363 936 L697 270 L697 298 L1363 964 Z"/><path class="fv4" d="M1363 936 L697 270 L697 298 L1363 964 Z" /></g><g class="o"><path transform="translate(5,10)" class="S sfh" d="M1241 1730 L1329 1642 L1367 1642 L1279 1730 Z"/><path class="fh1" d="M1241 1730 L1329 1642 L1367 1642 L1279 1730 Z" /></g><g class="o"><path transform="translate(4,8)" class="S ssv" d="M1230 1276 L822 1684 L822 1712 L1230 1304 Z"/><path class="sv7" d="M1230 1276 L822 1684 L822 1712 L1230 1304 Z" /></g><g class="o"><path transform="translate(2,4)" class="S ssv" d="M1751 1501 L2192 1942 L2192 2062 L1751 1621 Z"/><path class="sv6" d="M1751 1501 L2192 1942 L2192 2062 L1751 1621 Z" /></g><g class="o"><path transform="translate(6,12)" class="S sfh" d="M1585 1477 L1261 1153 L1271 1153 L1595 1477 Z"/><path class="fh2" d="M1585 1477 L1261 1153 L1271 1153 L1595 1477 Z" /></g><g class="o"><path transform="translate(8,16)" class="S ss" d="M1843 1097 L2078 1332 L2078 1366 L1843 1131 Z"/><path class="s1" d="M1843 1097 L2078 1332 L2078 1366 L1843 1131 Z" /></g><g class="o"><path transform="translate(2,4)" class="S sf" d="M1665 1044 L2037 1416 L2037 1504 L1665 1132 Z"/><path class="f5" d="M1665 1044 L2037 1416 L2037 1504 L1665 1132 Z" /></g><g class="o"><path transform="translate(2,4)" class="S sfv" d="M976 1638 L919 1695 L919 1709 L976 1652 Z"/><path class="fv2" d="M976 1638 L919 1695 L919 1709 L976 1652 Z" /></g><g class="o"><path transform="translate(9,18)" class="S ssh" d="M1381 1272 L1078 969 L1094 969 L1397 1272 Z"/><path class="sh4" d="M1381 1272 L1078 969 L1094 969 L1397 1272 Z" /></g><g class="o"><path transform="translate(6,12)" class="S sfh" d="M1584 1105 L1341 1348 L1469 1348 L1712 1105 Z"/><path class="fh7" d="M1584 1105 L1341 1348 L1469 1348 L1712 1105 Z" /></g><g class="o"><path transform="translate(9,18)" class="S sfv" d="M1302 1951 L1656 1597 L1656 1605 L1302 1959 Z"/><path class="fv6" d="M1302 1951 L1656 1597 L1656 1605 L1302 1959 Z" /></g><g class="o"><path transform="translate(3,6)" class="S sfv" d="M1775 1750 L1545 1520 L1545 1540 L1775 1770 Z"/><path class="fv5" d="M1775 1750 L1545 1520 L1545 1540 L1775 1770 Z" /></g><g class="o"><path transform="translate(4,8)" class="S sf" d="M1594 957 L1849 1212 L1849 1220 L1594 965 Z"/><path class="f4" d="M1594 957 L1849 1212 L1849 1220 L1594 965 Z" /></g><g class="o"><path transform="translate(3,6)" class="S sfh" d="M1825 954 L1294 1485 L1322 1485 L1853 954 Z"/><path class="fh4" d="M1825 954 L1294 1485 L1322 1485 L1853 954 Z" /></g></g><use href="#slashes" transform-origin="1500 1500" transform="rotate(180) scale(2)"/></g><circle cx="1500" cy="1500" r="450" stroke-width="40" class="o s4" /><use href="#slashes" transform-origin="1500 1500" transform="scale(1.3)"/><use href="#slashes" transform-origin="1500 1500" transform="rotate(180) scale(.7)"/></svg>