<svg xmlns="http://www.w3.org/2000/svg" viewBox="750 750 1500 1500"><style>/*<![CDATA[*/svg{background:rgb(34,34,34);max-width:100vw;max-height:100vh}path{stroke-width:4}.o{opacity:.75}.S{opacity:.4}.sf{stroke:none;fill:black}.sfh{stroke:none;fill:url(#hs)}.sfv{stroke:none;fill:url(#vs)}.ss{stroke:black;fill:none}.ssh{stroke:url(#hs);fill:none}.ssv{stroke:url(#vs);fill:none}.s1{fill:none;stroke:rgb(152,193,217)}.f1{stroke:none;fill:rgb(152,193,217)}.sh1{fill:none;stroke:url(#h1)}.fh1{stroke:none;fill:url(#h1)}.sv1{fill:none;stroke:url(#v1)}.fv1{stroke:none;fill:url(#v1)}.s2{fill:none;stroke:rgb(61,90,128)}.f2{stroke:none;fill:rgb(61,90,128)}.sh2{fill:none;stroke:url(#h2)}.fh2{stroke:none;fill:url(#h2)}.sv2{fill:none;stroke:url(#v2)}.fv2{stroke:none;fill:url(#v2)}.s3{fill:none;stroke:rgb(41,50,65)}.f3{stroke:none;fill:rgb(41,50,65)}.sh3{fill:none;stroke:url(#h3)}.fh3{stroke:none;fill:url(#h3)}.sv3{fill:none;stroke:url(#v3)}.fv3{stroke:none;fill:url(#v3)}.s4{fill:none;stroke:rgb(238,108,77)}.f4{stroke:none;fill:rgb(238,108,77)}.sh4{fill:none;stroke:url(#h4)}.fh4{stroke:none;fill:url(#h4)}.sv4{fill:none;stroke:url(#v4)}.fv4{stroke:none;fill:url(#v4)}.s5{fill:none;stroke:rgb(224,251,252)}.f5{stroke:none;fill:rgb(224,251,252)}.sh5{fill:none;stroke:url(#h5)}.fh5{stroke:none;fill:url(#h5)}.sv5{fill:none;stroke:url(#v5)}.fv5{stroke:none;fill:url(#v5)}.s6{fill:none;stroke:rgb(255,255,255)}.f6{stroke:none;fill:rgb(255,255,255)}.sh6{fill:none;stroke:url(#h6)}.fh6{stroke:none;fill:url(#h6)}.sv6{fill:none;stroke:url(#v6)}.fv6{stroke:none;fill:url(#v6)}.s7{fill:none;stroke:rgb(255,255,0)}.f7{stroke:none;fill:rgb(255,255,0)}.sh7{fill:none;stroke:url(#h7)}.fh7{stroke:none;fill:url(#h7)}.sv7{fill:none;stroke:url(#v7)}.fv7{stroke:none;fill:url(#v7)}/*]]>*/</style><defs><linearGradient gradientTransform="rotate(90)" id="hs"><stop offset="20%" stop-color="#000" /><stop offset="95%" stop-color="rgba(0, 0, 0, 0)" /></linearGradient><linearGradient id="vs"><stop offset="20%" stop-color="#000" /><stop offset="95%" stop-color="rgba(0, 0, 0, 0)" /></linearGradient><linearGradient gradientTransform="rotate(90)" id="h1"><stop offset="20%" stop-color="rgba(152,193,217,1)" /><stop offset="95%" stop-color="rgba(152,193,217,0)" /></linearGradient><linearGradient id="v1"><stop offset="20%" stop-color="rgba(152,193,217,1)" /><stop offset="95%" stop-color="rgba(152,193,217,0)" /></linearGradient><linearGradient gradientTransform="rotate(90)" id="h2"><stop offset="20%" stop-color="rgba(61,90,128,1)" /><stop offset="95%" stop-color="rgba(61,90,128,0)" /></linearGradient><linearGradient id="v2"><stop offset="20%" stop-color="rgba(61,90,128,1)" /><stop offset="95%" stop-color="rgba(61,90,128,0)" /></linearGradient><linearGradient gradientTransform="rotate(90)" id="h3"><stop offset="20%" stop-color="rgba(41,50,65,1)" /><stop offset="95%" stop-color="rgba(41,50,65,0)" /></linearGradient><linearGradient id="v3"><stop offset="20%" stop-color="rgba(41,50,65,1)" /><stop offset="95%" stop-color="rgba(41,50,65,0)" /></linearGradient><linearGradient gradientTransform="rotate(90)" id="h4"><stop offset="20%" stop-color="rgba(238,108,77,1)" /><stop offset="95%" stop-color="rgba(238,108,77,0)" /></linearGradient><linearGradient id="v4"><stop offset="20%" stop-color="rgba(238,108,77,1)" /><stop offset="95%" stop-color="rgba(238,108,77,0)" /></linearGradient><linearGradient gradientTransform="rotate(90)" id="h5"><stop offset="20%" stop-color="rgba(224,251,252,1)" /><stop offset="95%" stop-color="rgba(224,251,252,0)" /></linearGradient><linearGradient id="v5"><stop offset="20%" stop-color="rgba(224,251,252,1)" /><stop offset="95%" stop-color="rgba(224,251,252,0)" /></linearGradient><linearGradient gradientTransform="rotate(90)" id="h6"><stop offset="20%" stop-color="rgba(255,255,255,1)" /><stop offset="95%" stop-color="rgba(255,255,255,0)" /></linearGradient><linearGradient id="v6"><stop offset="20%" stop-color="rgba(255,255,255,1)" /><stop offset="95%" stop-color="rgba(255,255,255,0)" /></linearGradient><linearGradient gradientTransform="rotate(90)" id="h7"><stop offset="20%" stop-color="rgba(255,255,0,1)" /><stop offset="95%" stop-color="rgba(255,255,0,0)" /></linearGradient><linearGradient id="v7"><stop offset="20%" stop-color="rgba(255,255,0,1)" /><stop offset="95%" stop-color="rgba(255,255,0,0)" /></linearGradient></defs><g transform-origin="1500 1500" transform="scale(2)" opacity=".2"><g id="slashes"><g class="o"><path transform="translate(3,6)" class="S sfh" d="M1220 1001 L1028 1193 L1040 1193 L1232 1001 Z"/><path class="fh7" d="M1220 1001 L1028 1193 L1040 1193 L1232 1001 Z" /></g><g class="o"><path transform="translate(2,4)" class="S sfh" d="M1007 1110 L1075 1042 L1109 1042 L1041 1110 Z"/><path class="fh4" d="M1007 1110 L1075 1042 L1109 1042 L1041 1110 Z" /></g><g class="o"><path transform="translate(3,6)" class="S sfv" d="M1111 1899 L1819 2607 L1819 2679 L1111 1971 Z"/><path class="fv7" d="M1111 1899 L1819 2607 L1819 2679 L1111 1971 Z" /></g><g class="o"><path transform="translate(7,14)" class="S sfh" d="M1009 1850 L1318 1541 L1352 1541 L1043 1850 Z"/><path class="fh5" d="M1009 1850 L1318 1541 L1352 1541 L1043 1850 Z" /></g><g class="o"><path transform="translate(7,14)" class="S ssv" d="M1240 1095 L1459 876 L1459 964 L1240 1183 Z"/><path class="sv3" d="M1240 1095 L1459 876 L1459 964 L1240 1183 Z" /></g><g class="o"><path transform="translate(5,10)" class="S sfh" d="M1652 1750 L1262 2140 L1270 2140 L1660 1750 Z"/><path class="fh5" d="M1652 1750 L1262 2140 L1270 2140 L1660 1750 Z" /></g><g class="o"><path transform="translate(4,8)" class="S sfh" d="M1234 977 L970 1241 L1042 1241 L1306 977 Z"/><path class="fh4" d="M1234 977 L970 1241 L1042 1241 L1306 977 Z" /></g><g class="o"><path transform="translate(4,8)" class="S sfv" d="M1574 1416 L1709 1551 L1709 1655 L1574 1520 Z"/><path class="fv2" d="M1574 1416 L1709 1551 L1709 1655 L1574 1520 Z" /></g><g class="o"><path transform="translate(6,12)" class="S ssv" d="M1839 1256 L1918 1177 L1918 1191 L1839 1270 Z"/><path class="sv1" d="M1839 1256 L1918 1177 L1918 1191 L1839 1270 Z" /></g><g class="o"><path transform="translate(4,8)" class="S sfv" d="M1077 1835 L874 1632 L874 1652 L1077 1855 Z"/><path class="fv6" d="M1077 1835 L874 1632 L874 1652 L1077 1855 Z" /></g><g class="o"><path transform="translate(4,8)" class="S sfv" d="M1158 1670 L927 1901 L927 1921 L1158 1690 Z"/><path class="fv4" d="M1158 1670 L927 1901 L927 1921 L1158 1690 Z" /></g><g class="o"><path transform="translate(7,14)" class="S sfv" d="M1804 1314 L1608 1118 L1608 1148 L1804 1344 Z"/><path class="fv5" d="M1804 1314 L1608 1118 L1608 1148 L1804 1344 Z" /></g><g class="o"><path transform="translate(5,10)" class="S sfh" d="M1539 2041 L909 1411 L943 1411 L1573 2041 Z"/><path class="fh1" d="M1539 2041 L909 1411 L943 1411 L1573 2041 Z" /></g><g class="o"><path transform="translate(9,18)" class="S sfv" d="M1496 952 L1943 1399 L1943 1495 L1496 1048 Z"/><path class="fv2" d="M1496 952 L1943 1399 L1943 1495 L1496 1048 Z" /></g><g class="o"><path transform="translate(2,4)" class="S sfh" d="M1712 1918 L1491 2139 L1539 2139 L1760 1918 Z"/><path class="fh5" d="M1712 1918 L1491 2139 L1539 2139 L1760 1918 Z" /></g><g class="o"><path transform="translate(3,6)" class="S sfh" d="M1404 1096 L660 1840 L716 1840 L1460 1096 Z"/><path class="fh1" d="M1404 1096 L660 1840 L716 1840 L1460 1096 Z" /></g><g class="o"><path transform="translate(4,8)" class="S ssv" d="M1232 941 L707 1466 L707 1502 L1232 977 Z"/><path class="sv1" d="M1232 941 L707 1466 L707 1502 L1232 977 Z" /></g><g class="o"><path transform="translate(5,10)" class="S sfv" d="M1799 1522 L1963 1686 L1963 1694 L1799 1530 Z"/><path class="fv7" d="M1799 1522 L1963 1686 L1963 1694 L1799 1530 Z" /></g><g class="o"><path transform="translate(6,12)" class="S sfh" d="M1469 1166 L875 1760 L903 1760 L1497 1166 Z"/><path class="fh2" d="M1469 1166 L875 1760 L903 1760 L1497 1166 Z" /></g><g class="o"><path transform="translate(2,4)" class="S sfh" d="M1349 1514 L1739 1904 L1891 1904 L1501 1514 Z"/><path class="fh6" d="M1349 1514 L1739 1904 L1891 1904 L1501 1514 Z" /></g><g class="o"><path transform="translate(8,16)" class="S ssh" d="M1736 1793 L1310 1367 L1406 1367 L1832 1793 Z"/><path class="sh6" d="M1736 1793 L1310 1367 L1406 1367 L1832 1793 Z" /></g><g class="o"><path transform="translate(3,6)" class="S ssh" d="M1055 1106 L821 1340 L855 1340 L1089 1106 Z"/><path class="sh3" d="M1055 1106 L821 1340 L855 1340 L1089 1106 Z" /></g><g class="o"><path transform="translate(9,18)" class="S sfv" d="M1542 959 L1719 782 L1719 878 L1542 1055 Z"/><path class="fv5" d="M1542 959 L1719 782 L1719 878 L1542 1055 Z" /></g><g class="o"><path transform="translate(7,14)" class="S sfh" d="M1207 1533 L966 1774 L988 1774 L1229 1533 Z"/><path class="fh4" d="M1207 1533 L966 1774 L988 1774 L1229 1533 Z" /></g><g class="o"><path transform="translate(7,14)" class="S ssv" d="M1055 1043 L1223 875 L1223 893 L1055 1061 Z"/><path class="sv2" d="M1055 1043 L1223 875 L1223 893 L1055 1061 Z" /></g><g class="o"><path transform="translate(8,16)" class="S sfv" d="M2008 1192 L2251 949 L2251 1013 L2008 1256 Z"/><path class="fv3" d="M2008 1192 L2251 949 L2251 1013 L2008 1256 Z" /></g><g class="o"><path transform="translate(2,4)" class="S sfv" d="M1819 1653 L2209 2043 L2209 2063 L1819 1673 Z"/><path class="fv1" d="M1819 1653 L2209 2043 L2209 2063 L1819 1673 Z" /></g><g class="o"><path transform="translate(6,12)" class="S sfv" d="M1813 1759 L1171 2401 L1171 2429 L1813 1787 Z"/><path class="fv2" d="M1813 1759 L1171 2401 L1171 2429 L1813 1787 Z" /></g><g class="o"><path transform="translate(9,18)" class="S sfv" d="M1388 1774 L2036 1126 L2036 1158 L1388 1806 Z"/><path class="fv1" d="M1388 1774 L2036 1126 L2036 1158 L1388 1806 Z" /></g><g class="o"><path transform="translate(4,8)" class="S ss" d="M985 1982 L1160 2157 L1190 2157 L1015 1982 Z"/><path class="s4" d="M985 1982 L1160 2157 L1190 2157 L1015 1982 Z" /></g><g class="o"><path transform="translate(9,18)" class="S sfv" d="M1817 1465 L1220 2062 L1220 2126 L1817 1529 Z"/><path class="fv4" d="M1817 1465 L1220 2062 L1220 2126 L1817 1529 Z" /></g><g class="o"><path transform="translate(4,8)" class="S sfv" d="M977 1779 L1652 1104 L1652 1134 L977 1809 Z"/><path class="fv6" d="M977 1779 L1652 1104 L1652 1134 L977 1809 Z" /></g><g class="o"><path transform="translate(9,18)" class="S sf" d="M1080 1460 L1458 1082 L1458 1114 L1080 1492 Z"/><path class="f6" d="M1080 1460 L1458 1082 L1458 1114 L1080 1492 Z" /></g><g class="o"><path transform="translate(4,8)" class="S sfv" d="M1342 1786 L1900 2344 L1900 2376 L1342 1818 Z"/><path class="fv5" d="M1342 1786 L1900 2344 L1900 2376 L1342 1818 Z" /></g><g class="o"><path transform="translate(4,8)" class="S sfv" d="M1777 1477 L2021 1721 L2021 1755 L1777 1511 Z"/><path class="fv6" d="M1777 1477 L2021 1721 L2021 1755 L1777 1511 Z" /></g><g class="o"><path transform="translate(2,4)" class="S sf" d="M1020 1384 L813 1177 L833 1177 L1040 1384 Z"/><path class="f3" d="M1020 1384 L813 1177 L833 1177 L1040 1384 Z" /></g><g class="o"><path transform="translate(2,4)" class="S sfv" d="M1135 1648 L1378 1405 L1378 1423 L1135 1666 Z"/><path class="fv1" d="M1135 1648 L1378 1405 L1378 1423 L1135 1666 Z" /></g><g class="o"><path transform="translate(2,4)" class="S sfv" d="M1820 1416 L1727 1509 L1727 1541 L1820 1448 Z"/><path class="fv1" d="M1820 1416 L1727 1509 L1727 1541 L1820 1448 Z" /></g><g class="o"><path transform="translate(7,14)" class="S sfh" d="M1978 1123 L1390 1711 L1404 1711 L1992 1123 Z"/><path class="fh5" d="M1978 1123 L1390 1711 L1404 1711 L1992 1123 Z" /></g><g class="o"><path transform="translate(3,6)" class="S sfv" d="M1288 1850 L1533 2095 L1533 2111 L1288 1866 Z"/><path class="fv2" d="M1288 1850 L1533 2095 L1533 2111 L1288 1866 Z" /></g><g class="o"><path transform="translate(9,18)" class="S sf" d="M1463 1763 L2201 1025 L2235 1025 L1497 1763 Z"/><path class="f2" d="M1463 1763 L2201 1025 L2235 1025 L1497 1763 Z" /></g><g class="o"><path transform="translate(2,4)" class="S sfh" d="M1893 1411 L1446 964 L1478 964 L1925 1411 Z"/><path class="fh7" d="M1893 1411 L1446 964 L1478 964 L1925 1411 Z" /></g><g class="o"><path transform="translate(3,6)" class="S sfv" d="M1374 1413 L1520 1559 L1520 1567 L1374 1421 Z"/><path class="fv2" d="M1374 1413 L1520 1559 L1520 1567 L1374 1421 Z" /></g><g class="o"><path transform="translate(9,18)" class="S sfv" d="M1704 1359 L1474 1589 L1474 1709 L1704 1479 Z"/><path class="fv5" d="M1704 1359 L1474 1589 L1474 1709 L1704 1479 Z" /></g><g class="o"><path transform="translate(4,8)" class="S sfv" d="M1943 1450 L1586 1093 L1586 1101 L1943 1458 Z"/><path class="fv4" d="M1943 1450 L1586 1093 L1586 1101 L1943 1458 Z" /></g><g class="o"><path transform="translate(2,4)" class="S sf" d="M1734 1095 L1955 1316 L1963 1316 L1742 1095 Z"/><path class="f3" d="M1734 1095 L1955 1316 L1963 1316 L1742 1095 Z" /></g><g class="o"><path transform="translate(4,8)" class="S sfh" d="M1251 1594 L1019 1826 L1031 1826 L1263 1594 Z"/><path class="fh3" d="M1251 1594 L1019 1826 L1031 1826 L1263 1594 Z" /></g><g class="o"><path transform="translate(3,6)" class="S sfv" d="M1243 1991 L625 1373 L625 1381 L1243 1999 Z"/><path class="fv3" d="M1243 1991 L625 1373 L625 1381 L1243 1999 Z" /></g><g class="o"><path transform="translate(5,10)" class="S sfh" d="M1883 1078 L2055 1250 L2207 1250 L2035 1078 Z"/><path class="fh2" d="M1883 1078 L2055 1250 L2207 1250 L2035 1078 Z" /></g><g class="o"><path transform="translate(9,18)" class="S sfv" d="M1739 1418 L1943 1214 L1943 1236 L1739 1440 Z"/><path class="fv2" d="M1739 1418 L1943 1214 L1943 1236 L1739 1440 Z" /></g><g class="o"><path transform="translate(8,16)" class="S sf" d="M1201 1489 L535 2155 L535 2173 L1201 1507 Z"/><path class="f2" d="M1201 1489 L535 2155 L535 2173 L1201 1507 Z" /></g><g class="o"><path transform="translate(2,4)" class="S sfv" d="M1836 1224 L1665 1053 L1665 1091 L1836 1262 Z"/><path class="fv4" d="M1836 1224 L1665 1053 L1665 1091 L1836 1262 Z" /></g><g class="o"><path transform="translate(4,8)" class="S sfh" d="M1129 1797 L1257 1925 L1321 1925 L1193 1797 Z"/><path class="fh7" d="M1129 1797 L1257 1925 L1321 1925 L1193 1797 Z" /></g><g class="o"><path transform="translate(5,10)" class="S sfh" d="M1615 1284 L1833 1502 L1867 1502 L1649 1284 Z"/><path class="fh1" d="M1615 1284 L1833 1502 L1867 1502 L1649 1284 Z" /></g><g class="o"><path transform="translate(6,12)" class="S sf" d="M1868 1621 L2372 1117 L2390 1117 L1886 1621 Z"/><path class="f3" d="M1868 1621 L2372 1117 L2390 1117 L1886 1621 Z" /></g><g class="o"><path transform="translate(5,10)" class="S sfv" d="M1215 1478 L1033 1296 L1033 1318 L1215 1500 Z"/><path class="fv4" d="M1215 1478 L1033 1296 L1033 1318 L1215 1500 Z" /></g><g class="o"><path transform="translate(3,6)" class="S sfv" d="M1794 1209 L1663 1340 L1663 1364 L1794 1233 Z"/><path class="fv5" d="M1794 1209 L1663 1340 L1663 1364 L1794 1233 Z" /></g><g class="o"><path transform="translate(3,6)" class="S ssh" d="M1712 1571 L995 2288 L1075 2288 L1792 1571 Z"/><path class="sh7" d="M1712 1571 L995 2288 L1075 2288 L1792 1571 Z" /></g><g class="o"><path transform="translate(5,10)" class="S ssv" d="M977 1339 L554 916 L554 1044 L977 1467 Z"/><path class="sv4" d="M977 1339 L554 916 L554 1044 L977 1467 Z" /></g><g class="o"><path transform="translate(9,18)" class="S ssh" d="M1804 1451 L1912 1559 L1924 1559 L1816 1451 Z"/><path class="sh2" d="M1804 1451 L1912 1559 L1924 1559 L1816 1451 Z" /></g><g class="o"><path transform="translate(3,6)" class="S sfv" d="M2027 1710 L1977 1660 L1977 1772 L2027 1822 Z"/><path class="fv2" d="M2027 1710 L1977 1660 L1977 1772 L2027 1822 Z" /></g><g class="o"><path transform="translate(2,4)" class="S sfh" d="M1405 1822 L1111 1528 L1131 1528 L1425 1822 Z"/><path class="fh3" d="M1405 1822 L1111 1528 L1131 1528 L1425 1822 Z" /></g><g class="o"><path transform="translate(3,6)" class="S ss" d="M1057 1605 L815 1847 L815 1991 L1057 1749 Z"/><path class="s6" d="M1057 1605 L815 1847 L815 1991 L1057 1749 Z" /></g><g class="o"><path transform="translate(2,4)" class="S sfv" d="M1461 1924 L1405 1868 L1405 1904 L1461 1960 Z"/><path class="fv4" d="M1461 1924 L1405 1868 L1405 1904 L1461 1960 Z" /></g><g class="o"><path transform="translate(3,6)" class="S sfv" d="M1825 1717 L1546 1996 L1546 2068 L1825 1789 Z"/><path class="fv5" d="M1825 1717 L1546 1996 L1546 2068 L1825 1789 Z" /></g><g class="o"><path transform="translate(9,18)" class="S sfh" d="M2023 1305 L2299 1581 L2329 1581 L2053 1305 Z"/><path class="fh6" d="M2023 1305 L2299 1581 L2329 1581 L2053 1305 Z" /></g><g class="o"><path transform="translate(6,12)" class="S ss" d="M1181 1996 L1079 2098 L1079 2130 L1181 2028 Z"/><path class="s7" d="M1181 1996 L1079 2098 L1079 2130 L1181 2028 Z" /></g><g class="o"><path transform="translate(2,4)" class="S sfh" d="M1057 994 L885 822 L989 822 L1161 994 Z"/><path class="fh3" d="M1057 994 L885 822 L989 822 L1161 994 Z" /></g><g class="o"><path transform="translate(2,4)" class="S ssv" d="M1179 1424 L976 1627 L976 1667 L1179 1464 Z"/><path class="sv3" d="M1179 1424 L976 1627 L976 1667 L1179 1464 Z" /></g><g class="o"><path transform="translate(6,12)" class="S sfh" d="M1239 1479 L1539 1779 L1559 1779 L1259 1479 Z"/><path class="fh6" d="M1239 1479 L1539 1779 L1559 1779 L1259 1479 Z" /></g><g class="o"><path transform="translate(5,10)" class="S ssv" d="M1679 1492 L1094 907 L1094 939 L1679 1524 Z"/><path class="sv3" d="M1679 1492 L1094 907 L1094 939 L1679 1524 Z" /></g><g class="o"><path transform="translate(7,14)" class="S sfh" d="M1501 1471 L1676 1646 L1690 1646 L1515 1471 Z"/><path class="fh7" d="M1501 1471 L1676 1646 L1690 1646 L1515 1471 Z" /></g><g class="o"><path transform="translate(7,14)" class="S ssh" d="M1856 1171 L1412 727 L1516 727 L1960 1171 Z"/><path class="sh2" d="M1856 1171 L1412 727 L1516 727 L1960 1171 Z" /></g><g class="o"><path transform="translate(2,4)" class="S sf" d="M967 968 L1209 1210 L1209 1234 L967 992 Z"/><path class="f4" d="M967 968 L1209 1210 L1209 1234 L967 992 Z" /></g><g class="o"><path transform="translate(7,14)" class="S sfv" d="M1129 1589 L1294 1754 L1294 1818 L1129 1653 Z"/><path class="fv4" d="M1129 1589 L1294 1754 L1294 1818 L1129 1653 Z" /></g><g class="o"><path transform="translate(6,12)" class="S sf" d="M1427 1988 L1556 2117 L1556 2157 L1427 2028 Z"/><path class="f5" d="M1427 1988 L1556 2117 L1556 2157 L1427 2028 Z" /></g><g class="o"><path transform="translate(2,4)" class="S sfv" d="M1075 1891 L991 1975 L991 2063 L1075 1979 Z"/><path class="fv2" d="M1075 1891 L991 1975 L991 2063 L1075 1979 Z" /></g><g class="o"><path transform="translate(7,14)" class="S sfh" d="M1438 1288 L1267 1459 L1285 1459 L1456 1288 Z"/><path class="fh3" d="M1438 1288 L1267 1459 L1285 1459 L1456 1288 Z" /></g><g class="o"><path transform="translate(6,12)" class="S sfh" d="M1746 1738 L2283 1201 L2347 1201 L1810 1738 Z"/><path class="fh1" d="M1746 1738 L2283 1201 L2347 1201 L1810 1738 Z" /></g><g class="o"><path transform="translate(6,12)" class="S sfh" d="M1066 1023 L739 696 L759 696 L1086 1023 Z"/><path class="fh4" d="M1066 1023 L739 696 L759 696 L1086 1023 Z" /></g><g class="o"><path transform="translate(6,12)" class="S sfv" d="M1653 1351 L1477 1175 L1477 1207 L1653 1383 Z"/><path class="fv1" d="M1653 1351 L1477 1175 L1477 1207 L1653 1383 Z" /></g><g class="o"><path transform="translate(9,18)" class="S sfh" d="M1558 1608 L850 900 L986 900 L1694 1608 Z"/><path class="fh1" d="M1558 1608 L850 900 L986 900 L1694 1608 Z" /></g><g class="o"><path transform="translate(9,18)" class="S sfh" d="M1001 1722 L813 1910 L841 1910 L1029 1722 Z"/><path class="fh4" d="M1001 1722 L813 1910 L841 1910 L1029 1722 Z" /></g><g class="o"><path transform="translate(7,14)" class="S sf" d="M1698 1693 L1835 1556 L1859 1556 L1722 1693 Z"/><path class="f1" d="M1698 1693 L1835 1556 L1859 1556 L1722 1693 Z" /></g><g class="o"><path transform="translate(3,6)" class="S sfv" d="M1508 1961 L1705 2158 L1705 2180 L1508 1983 Z"/><path class="fv2" d="M1508 1961 L1705 2158 L1705 2180 L1508 1983 Z" /></g><g class="o"><path transform="translate(9,18)" class="S sfv" d="M1260 1466 L1098 1628 L1098 1660 L1260 1498 Z"/><path class="fv4" d="M1260 1466 L1098 1628 L1098 1660 L1260 1498 Z" /></g><g class="o"><path transform="translate(2,4)" class="S sfv" d="M1159 1104 L820 1443 L820 1523 L1159 1184 Z"/><path class="fv3" d="M1159 1104 L820 1443 L820 1523 L1159 1184 Z" /></g><g class="o"><path transform="translate(6,12)" class="S sfv" d="M1992 1289 L1776 1505 L1776 1529 L1992 1313 Z"/><path class="fv6" d="M1992 1289 L1776 1505 L1776 1529 L1992 1313 Z" /></g><g class="o"><path transform="translate(4,8)" class="S sfv" d="M1911 1874 L1287 2498 L1287 2570 L1911 1946 Z"/><path class="fv1" d="M1911 1874 L1287 2498 L1287 2570 L1911 1946 Z" /></g><g class="o"><path transform="translate(6,12)" class="S sfv" d="M1713 1819 L1266 2266 L1266 2314 L1713 1867 Z"/><path class="fv7" d="M1713 1819 L1266 2266 L1266 2314 L1713 1867 Z" /></g><g class="o"><path transform="translate(4,8)" class="S sf" d="M1471 1865 L1657 1679 L1657 1799 L1471 1985 Z"/><path class="f7" d="M1471 1865 L1657 1679 L1657 1799 L1471 1985 Z" /></g><g class="o"><path transform="translate(9,18)" class="S sfv" d="M1135 1488 L1582 1041 L1582 1185 L1135 1632 Z"/><path class="fv7" d="M1135 1488 L1582 1041 L1582 1185 L1135 1632 Z" /></g><g class="o"><path transform="translate(2,4)" class="S sfv" d="M1691 1413 L2099 1821 L2099 1841 L1691 1433 Z"/><path class="fv1" d="M1691 1413 L2099 1821 L2099 1841 L1691 1433 Z" /></g><g class="o"><path transform="translate(3,6)" class="S ssv" d="M1044 1305 L1290 1059 L1290 1155 L1044 1401 Z"/><path class="sv7" d="M1044 1305 L1290 1059 L1290 1155 L1044 1401 Z" /></g><g class="o"><path transform="translate(4,8)" class="S sfh" d="M1492 1162 L1681 973 L1833 973 L1644 1162 Z"/><path class="fh4" d="M1492 1162 L1681 973 L1833 973 L1644 1162 Z" /></g><g class="o"><path transform="translate(3,6)" class="S sfh" d="M1988 1073 L1439 524 L1487 524 L2036 1073 Z"/><path class="fh1" d="M1988 1073 L1439 524 L1487 524 L2036 1073 Z" /></g><g class="o"><path transform="translate(3,6)" class="S sfh" d="M1314 1565 L1118 1761 L1270 1761 L1466 1565 Z"/><path class="fh3" d="M1314 1565 L1118 1761 L1270 1761 L1466 1565 Z" /></g><g class="o"><path transform="translate(2,4)" class="S sfh" d="M1792 1644 L1725 1577 L1805 1577 L1872 1644 Z"/><path class="fh5" d="M1792 1644 L1725 1577 L1805 1577 L1872 1644 Z" /></g><g class="o"><path transform="translate(2,4)" class="S ssh" d="M1828 1247 L2314 1733 L2344 1733 L1858 1247 Z"/><path class="sh7" d="M1828 1247 L2314 1733 L2344 1733 L1858 1247 Z" /></g><g class="o"><path transform="translate(4,8)" class="S sfh" d="M985 1265 L274 554 L426 554 L1137 1265 Z"/><path class="fh5" d="M985 1265 L274 554 L426 554 L1137 1265 Z" /></g><g class="o"><path transform="translate(6,12)" class="S sf" d="M1941 1654 L1853 1566 L1853 1678 L1941 1766 Z"/><path class="f1" d="M1941 1654 L1853 1566 L1853 1678 L1941 1766 Z" /></g><g class="o"><path transform="translate(6,12)" class="S sf" d="M1234 1843 L1475 1602 L1513 1602 L1272 1843 Z"/><path class="f5" d="M1234 1843 L1475 1602 L1513 1602 L1272 1843 Z" /></g><g class="o"><path transform="translate(9,18)" class="S sfv" d="M1500 1969 L1598 2067 L1598 2079 L1500 1981 Z"/><path class="fv6" d="M1500 1969 L1598 2067 L1598 2079 L1500 1981 Z" /></g><g class="o"><path transform="translate(8,16)" class="S ssv" d="M1622 1534 L1757 1669 L1757 1821 L1622 1686 Z"/><path class="sv4" d="M1622 1534 L1757 1669 L1757 1821 L1622 1686 Z" /></g><g class="o"><path transform="translate(5,10)" class="S sfh" d="M1778 1616 L1535 1373 L1553 1373 L1796 1616 Z"/><path class="fh4" d="M1778 1616 L1535 1373 L1553 1373 L1796 1616 Z" /></g><g class="o"><path transform="translate(7,14)" class="S sfh" d="M1699 1918 L1469 2148 L1541 2148 L1771 1918 Z"/><path class="fh2" d="M1699 1918 L1469 2148 L1541 2148 L1771 1918 Z" /></g><g class="o"><path transform="translate(7,14)" class="S sfv" d="M976 972 L706 702 L706 738 L976 1008 Z"/><path class="fv4" d="M976 972 L706 702 L706 738 L976 1008 Z" /></g><g class="o"><path transform="translate(3,6)" class="S sfh" d="M1192 1594 L862 1924 L890 1924 L1220 1594 Z"/><path class="fh1" d="M1192 1594 L862 1924 L890 1924 L1220 1594 Z" /></g><g class="o"><path transform="translate(3,6)" class="S sfh" d="M1877 1678 L2052 1853 L2148 1853 L1973 1678 Z"/><path class="fh4" d="M1877 1678 L2052 1853 L2148 1853 L1973 1678 Z" /></g><g class="o"><path transform="translate(4,8)" class="S sfh" d="M1855 1810 L1753 1708 L1881 1708 L1983 1810 Z"/><path class="fh3" d="M1855 1810 L1753 1708 L1881 1708 L1983 1810 Z" /></g><g class="o"><path transform="translate(2,4)" class="S sfv" d="M1476 1008 L1326 858 L1326 868 L1476 1018 Z"/><path class="fv2" d="M1476 1008 L1326 858 L1326 868 L1476 1018 Z" /></g><g class="o"><path transform="translate(6,12)" class="S ssv" d="M1840 1326 L2287 879 L2287 943 L1840 1390 Z"/><path class="sv6" d="M1840 1326 L2287 879 L2287 943 L1840 1390 Z" /></g><g class="o"><path transform="translate(8,16)" class="S ssv" d="M1253 1821 L1487 1587 L1487 1625 L1253 1859 Z"/><path class="sv3" d="M1253 1821 L1487 1587 L1487 1625 L1253 1859 Z" /></g><g class="o"><path transform="translate(3,6)" class="S sfv" d="M1546 1873 L1760 1659 L1760 1679 L1546 1893 Z"/><path class="fv7" d="M1546 1873 L1760 1659 L1760 1679 L1546 1893 Z" /></g><g class="o"><path transform="translate(7,14)" class="S sfv" d="M1831 1156 L2260 727 L2260 747 L1831 1176 Z"/><path class="fv5" d="M1831 1156 L2260 727 L2260 747 L1831 1176 Z" /></g><g class="o"><path transform="translate(7,14)" class="S sfh" d="M1536 1333 L1313 1110 L1331 1110 L1554 1333 Z"/><path class="fh2" d="M1536 1333 L1313 1110 L1331 1110 L1554 1333 Z" /></g><g class="o"><path transform="translate(5,10)" class="S sf" d="M1957 1747 L2659 2449 L2659 2497 L1957 1795 Z"/><path class="f6" d="M1957 1747 L2659 2449 L2659 2497 L1957 1795 Z" /></g><g class="o"><path transform="translate(4,8)" class="S sfv" d="M1121 1766 L719 2168 L719 2188 L1121 1786 Z"/><path class="fv4" d="M1121 1766 L719 2168 L719 2188 L1121 1786 Z" /></g><g class="o"><path transform="translate(6,12)" class="S sfv" d="M1388 1004 L1115 1277 L1115 1313 L1388 1040 Z"/><path class="fv5" d="M1388 1004 L1115 1277 L1115 1313 L1388 1040 Z" /></g><g class="o"><path transform="translate(9,18)" class="S sfh" d="M1993 2040 L2737 2784 L2747 2784 L2003 2040 Z"/><path class="fh3" d="M1993 2040 L2737 2784 L2747 2784 L2003 2040 Z" /></g><g class="o"><path transform="translate(6,12)" class="S sfv" d="M1153 1995 L1654 2496 L1654 2504 L1153 2003 Z"/><path class="fv7" d="M1153 1995 L1654 2496 L1654 2504 L1153 2003 Z" /></g><g class="o"><path transform="translate(7,14)" class="S sfv" d="M1973 1485 L2672 2184 L2672 2208 L1973 1509 Z"/><path class="fv7" d="M1973 1485 L2672 2184 L2672 2208 L1973 1509 Z" /></g><g class="o"><path transform="translate(2,4)" class="S sfh" d="M992 1711 L1280 1999 L1318 1999 L1030 1711 Z"/><path class="fh6" d="M992 1711 L1280 1999 L1318 1999 L1030 1711 Z" /></g><g class="o"><path transform="translate(8,16)" class="S sfh" d="M1027 1255 L1127 1355 L1165 1355 L1065 1255 Z"/><path class="fh7" d="M1027 1255 L1127 1355 L1165 1355 L1065 1255 Z" /></g><g class="o"><path transform="translate(6,12)" class="S sfv" d="M957 1516 L756 1315 L756 1333 L957 1534 Z"/><path class="fv5" d="M957 1516 L756 1315 L756 1333 L957 1534 Z" /></g><g class="o"><path transform="translate(9,18)" class="S sfv" d="M1551 1746 L2112 1185 L2112 1241 L1551 1802 Z"/><path class="fv5" d="M1551 1746 L2112 1185 L2112 1241 L1551 1802 Z" /></g><g class="o"><path transform="translate(8,16)" class="S ssv" d="M1916 1163 L2089 1336 L2089 1366 L1916 1193 Z"/><path class="sv7" d="M1916 1163 L2089 1336 L2089 1366 L1916 1193 Z" /></g><g class="o"><path transform="translate(4,8)" class="S sfh" d="M1272 1850 L1506 1616 L1626 1616 L1392 1850 Z"/><path class="fh1" d="M1272 1850 L1506 1616 L1626 1616 L1392 1850 Z" /></g><g class="o"><path transform="translate(3,6)" class="S sfv" d="M1909 1854 L1549 1494 L1549 1512 L1909 1872 Z"/><path class="fv6" d="M1909 1854 L1549 1494 L1549 1512 L1909 1872 Z" /></g><g class="o"><path transform="translate(5,10)" class="S sf" d="M1345 1535 L1177 1367 L1177 1495 L1345 1663 Z"/><path class="f4" d="M1345 1535 L1177 1367 L1177 1495 L1345 1663 Z" /></g></g><use href="#slashes" transform-origin="1500 1500" transform="rotate(180) scale(2)"/></g><rect x="1080" y="1080" width="840" height="840" stroke-width="160" class="o fs" /><use href="#slashes" transform-origin="1500 1500" transform="scale(.6)"/><use href="#slashes" transform-origin="1500 1500" transform="rotate(180) scale(.6)"/></svg>