<svg xmlns="http://www.w3.org/2000/svg" viewBox="750 750 1500 1500"><style>/*<![CDATA[*/svg{background:rgb(34,34,34);max-width:100vw;max-height:100vh}path{stroke-width:4}.o{opacity:.75}.S{opacity:.4}.sf{stroke:none;fill:black}.sfh{stroke:none;fill:url(#hs)}.sfv{stroke:none;fill:url(#vs)}.ss{stroke:black;fill:none}.ssh{stroke:url(#hs);fill:none}.ssv{stroke:url(#vs);fill:none}.s1{fill:none;stroke:rgb(74,78,105)}.f1{stroke:none;fill:rgb(74,78,105)}.sh1{fill:none;stroke:url(#h1)}.fh1{stroke:none;fill:url(#h1)}.sv1{fill:none;stroke:url(#v1)}.fv1{stroke:none;fill:url(#v1)}.s2{fill:none;stroke:rgb(154,140,152)}.f2{stroke:none;fill:rgb(154,140,152)}.sh2{fill:none;stroke:url(#h2)}.fh2{stroke:none;fill:url(#h2)}.sv2{fill:none;stroke:url(#v2)}.fv2{stroke:none;fill:url(#v2)}.s3{fill:none;stroke:rgb(242,233,228)}.f3{stroke:none;fill:rgb(242,233,228)}.sh3{fill:none;stroke:url(#h3)}.fh3{stroke:none;fill:url(#h3)}.sv3{fill:none;stroke:url(#v3)}.fv3{stroke:none;fill:url(#v3)}.s4{fill:none;stroke:rgb(34,34,59)}.f4{stroke:none;fill:rgb(34,34,59)}.sh4{fill:none;stroke:url(#h4)}.fh4{stroke:none;fill:url(#h4)}.sv4{fill:none;stroke:url(#v4)}.fv4{stroke:none;fill:url(#v4)}.s5{fill:none;stroke:rgb(201,173,167)}.f5{stroke:none;fill:rgb(201,173,167)}.sh5{fill:none;stroke:url(#h5)}.fh5{stroke:none;fill:url(#h5)}.sv5{fill:none;stroke:url(#v5)}.fv5{stroke:none;fill:url(#v5)}.s6{fill:none;stroke:rgb(255,255,255)}.f6{stroke:none;fill:rgb(255,255,255)}.sh6{fill:none;stroke:url(#h6)}.fh6{stroke:none;fill:url(#h6)}.sv6{fill:none;stroke:url(#v6)}.fv6{stroke:none;fill:url(#v6)}.s7{fill:none;stroke:rgb(255,255,0)}.f7{stroke:none;fill:rgb(255,255,0)}.sh7{fill:none;stroke:url(#h7)}.fh7{stroke:none;fill:url(#h7)}.sv7{fill:none;stroke:url(#v7)}.fv7{stroke:none;fill:url(#v7)}/*]]>*/</style><defs><linearGradient gradientTransform="rotate(90)" id="hs"><stop offset="20%" stop-color="#000" /><stop offset="95%" stop-color="rgba(0, 0, 0, 0)" /></linearGradient><linearGradient id="vs"><stop offset="20%" stop-color="#000" /><stop offset="95%" stop-color="rgba(0, 0, 0, 0)" /></linearGradient><linearGradient gradientTransform="rotate(90)" id="h1"><stop offset="20%" stop-color="rgba(74,78,105,1)" /><stop offset="95%" stop-color="rgba(74,78,105,0)" /></linearGradient><linearGradient id="v1"><stop offset="20%" stop-color="rgba(74,78,105,1)" /><stop offset="95%" stop-color="rgba(74,78,105,0)" /></linearGradient><linearGradient gradientTransform="rotate(90)" id="h2"><stop offset="20%" stop-color="rgba(154,140,152,1)" /><stop offset="95%" stop-color="rgba(154,140,152,0)" /></linearGradient><linearGradient id="v2"><stop offset="20%" stop-color="rgba(154,140,152,1)" /><stop offset="95%" stop-color="rgba(154,140,152,0)" /></linearGradient><linearGradient gradientTransform="rotate(90)" id="h3"><stop offset="20%" stop-color="rgba(242,233,228,1)" /><stop offset="95%" stop-color="rgba(242,233,228,0)" /></linearGradient><linearGradient id="v3"><stop offset="20%" stop-color="rgba(242,233,228,1)" /><stop offset="95%" stop-color="rgba(242,233,228,0)" /></linearGradient><linearGradient gradientTransform="rotate(90)" id="h4"><stop offset="20%" stop-color="rgba(34,34,59,1)" /><stop offset="95%" stop-color="rgba(34,34,59,0)" /></linearGradient><linearGradient id="v4"><stop offset="20%" stop-color="rgba(34,34,59,1)" /><stop offset="95%" stop-color="rgba(34,34,59,0)" /></linearGradient><linearGradient gradientTransform="rotate(90)" id="h5"><stop offset="20%" stop-color="rgba(201,173,167,1)" /><stop offset="95%" stop-color="rgba(201,173,167,0)" /></linearGradient><linearGradient id="v5"><stop offset="20%" stop-color="rgba(201,173,167,1)" /><stop offset="95%" stop-color="rgba(201,173,167,0)" /></linearGradient><linearGradient gradientTransform="rotate(90)" id="h6"><stop offset="20%" stop-color="rgba(255,255,255,1)" /><stop offset="95%" stop-color="rgba(255,255,255,0)" /></linearGradient><linearGradient id="v6"><stop offset="20%" stop-color="rgba(255,255,255,1)" /><stop offset="95%" stop-color="rgba(255,255,255,0)" /></linearGradient><linearGradient gradientTransform="rotate(90)" id="h7"><stop offset="20%" stop-color="rgba(255,255,0,1)" /><stop offset="95%" stop-color="rgba(255,255,0,0)" /></linearGradient><linearGradient id="v7"><stop offset="20%" stop-color="rgba(255,255,0,1)" /><stop offset="95%" stop-color="rgba(255,255,0,0)" /></linearGradient></defs><g transform-origin="1500 1500" transform="scale(2)" opacity=".6"><g id="slashes"><g class="o"><path transform="translate(3,6)" class="S ss" d="M1496 2033 L1639 1890 L1639 1900 L1496 2043 Z"/><path class="s5" d="M1496 2033 L1639 1890 L1639 1900 L1496 2043 Z" /></g><g class="o"><path transform="translate(6,12)" class="S sfh" d="M1719 999 L1910 808 L1924 808 L1733 999 Z"/><path class="fh6" d="M1719 999 L1910 808 L1924 808 L1733 999 Z" /></g><g class="o"><path transform="translate(6,12)" class="S sf" d="M1817 1662 L1592 1437 L1592 1473 L1817 1698 Z"/><path class="f4" d="M1817 1662 L1592 1437 L1592 1473 L1817 1698 Z" /></g><g class="o"><path transform="translate(5,10)" class="S ssv" d="M1529 1903 L1671 1761 L1671 1801 L1529 1943 Z"/><path class="sv4" d="M1529 1903 L1671 1761 L1671 1801 L1529 1943 Z" /></g><g class="o"><path transform="translate(3,6)" class="S sfh" d="M1765 1061 L1879 947 L1901 947 L1787 1061 Z"/><path class="fh6" d="M1765 1061 L1879 947 L1901 947 L1787 1061 Z" /></g><g class="o"><path transform="translate(7,14)" class="S sf" d="M1713 1538 L1513 1338 L1549 1338 L1749 1538 Z"/><path class="f7" d="M1713 1538 L1513 1338 L1549 1338 L1749 1538 Z" /></g><g class="o"><path transform="translate(2,4)" class="S sfv" d="M1320 1045 L885 610 L885 738 L1320 1173 Z"/><path class="fv5" d="M1320 1045 L885 610 L885 738 L1320 1173 Z" /></g><g class="o"><path transform="translate(9,18)" class="S sfh" d="M1975 1079 L1852 956 L1870 956 L1993 1079 Z"/><path class="fh3" d="M1975 1079 L1852 956 L1870 956 L1993 1079 Z" /></g><g class="o"><path transform="translate(2,4)" class="S sfh" d="M1025 1706 L1178 1553 L1188 1553 L1035 1706 Z"/><path class="fh6" d="M1025 1706 L1178 1553 L1188 1553 L1035 1706 Z" /></g><g class="o"><path transform="translate(6,12)" class="S sf" d="M1957 997 L2036 918 L2036 938 L1957 1017 Z"/><path class="f4" d="M1957 997 L2036 918 L2036 938 L1957 1017 Z" /></g><g class="o"><path transform="translate(6,12)" class="S ssh" d="M1427 1189 L1499 1117 L1531 1117 L1459 1189 Z"/><path class="sh1" d="M1427 1189 L1499 1117 L1531 1117 L1459 1189 Z" /></g><g class="o"><path transform="translate(4,8)" class="S sf" d="M1873 1931 L2048 1756 L2048 1770 L1873 1945 Z"/><path class="f4" d="M1873 1931 L2048 1756 L2048 1770 L1873 1945 Z" /></g><g class="o"><path transform="translate(9,18)" class="S sfv" d="M1314 1876 L1389 1801 L1389 1913 L1314 1988 Z"/><path class="fv6" d="M1314 1876 L1389 1801 L1389 1913 L1314 1988 Z" /></g><g class="o"><path transform="translate(3,6)" class="S sf" d="M1884 1423 L1938 1369 L1970 1369 L1916 1423 Z"/><path class="f7" d="M1884 1423 L1938 1369 L1970 1369 L1916 1423 Z" /></g><g class="o"><path transform="translate(9,18)" class="S sf" d="M1015 2009 L892 1886 L892 1916 L1015 2039 Z"/><path class="f1" d="M1015 2009 L892 1886 L892 1916 L1015 2039 Z" /></g><g class="o"><path transform="translate(9,18)" class="S sfv" d="M1618 1230 L1855 993 L1855 1027 L1618 1264 Z"/><path class="fv1" d="M1618 1230 L1855 993 L1855 1027 L1618 1264 Z" /></g><g class="o"><path transform="translate(3,6)" class="S sfh" d="M1777 950 L2053 674 L2069 674 L1793 950 Z"/><path class="fh1" d="M1777 950 L2053 674 L2069 674 L1793 950 Z" /></g><g class="o"><path transform="translate(3,6)" class="S sf" d="M1487 1861 L1698 1650 L1732 1650 L1521 1861 Z"/><path class="f5" d="M1487 1861 L1698 1650 L1732 1650 L1521 1861 Z" /></g><g class="o"><path transform="translate(4,8)" class="S sfv" d="M1883 1899 L2053 1729 L2053 1765 L1883 1935 Z"/><path class="fv7" d="M1883 1899 L2053 1729 L2053 1765 L1883 1935 Z" /></g><g class="o"><path transform="translate(7,14)" class="S sfh" d="M1364 1165 L1209 1010 L1225 1010 L1380 1165 Z"/><path class="fh4" d="M1364 1165 L1209 1010 L1225 1010 L1380 1165 Z" /></g><g class="o"><path transform="translate(3,6)" class="S ssh" d="M1817 1045 L1712 940 L1750 940 L1855 1045 Z"/><path class="sh7" d="M1817 1045 L1712 940 L1750 940 L1855 1045 Z" /></g><g class="o"><path transform="translate(8,16)" class="S sfh" d="M1342 1600 L1427 1515 L1451 1515 L1366 1600 Z"/><path class="fh1" d="M1342 1600 L1427 1515 L1451 1515 L1366 1600 Z" /></g><g class="o"><path transform="translate(7,14)" class="S sfh" d="M1826 1757 L1711 1642 L1729 1642 L1844 1757 Z"/><path class="fh6" d="M1826 1757 L1711 1642 L1729 1642 L1844 1757 Z" /></g><g class="o"><path transform="translate(7,14)" class="S sf" d="M1748 1897 L1557 1706 L1557 1742 L1748 1933 Z"/><path class="f7" d="M1748 1897 L1557 1706 L1557 1742 L1748 1933 Z" /></g><g class="o"><path transform="translate(7,14)" class="S ssv" d="M1774 984 L1529 739 L1529 749 L1774 994 Z"/><path class="sv5" d="M1774 984 L1529 739 L1529 749 L1774 994 Z" /></g><g class="o"><path transform="translate(8,16)" class="S ssv" d="M1498 1859 L1658 1699 L1658 1711 L1498 1871 Z"/><path class="sv7" d="M1498 1859 L1658 1699 L1658 1711 L1498 1871 Z" /></g><g class="o"><path transform="translate(7,14)" class="S sfv" d="M1158 1645 L1246 1557 L1246 1579 L1158 1667 Z"/><path class="fv3" d="M1158 1645 L1246 1557 L1246 1579 L1158 1667 Z" /></g><g class="o"><path transform="translate(9,18)" class="S sfh" d="M1437 1756 L1315 1634 L1339 1634 L1461 1756 Z"/><path class="fh5" d="M1437 1756 L1315 1634 L1339 1634 L1461 1756 Z" /></g><g class="o"><path transform="translate(5,10)" class="S sf" d="M1904 1497 L1660 1253 L1660 1275 L1904 1519 Z"/><path class="f5" d="M1904 1497 L1660 1253 L1660 1275 L1904 1519 Z" /></g><g class="o"><path transform="translate(6,12)" class="S sfv" d="M958 1376 L1019 1315 L1019 1337 L958 1398 Z"/><path class="fv7" d="M958 1376 L1019 1315 L1019 1337 L958 1398 Z" /></g><g class="o"><path transform="translate(9,18)" class="S sfh" d="M1181 1500 L1236 1445 L1262 1445 L1207 1500 Z"/><path class="fh5" d="M1181 1500 L1236 1445 L1262 1445 L1207 1500 Z" /></g><g class="o"><path transform="translate(8,16)" class="S ssv" d="M1272 1092 L1040 860 L1040 882 L1272 1114 Z"/><path class="sv5" d="M1272 1092 L1040 860 L1040 882 L1272 1114 Z" /></g><g class="o"><path transform="translate(8,16)" class="S sfv" d="M1760 1180 L1668 1088 L1668 1114 L1760 1206 Z"/><path class="fv7" d="M1760 1180 L1668 1088 L1668 1114 L1760 1206 Z" /></g><g class="o"><path transform="translate(4,8)" class="S sfv" d="M1795 1846 L1632 1683 L1632 1691 L1795 1854 Z"/><path class="fv2" d="M1795 1846 L1632 1683 L1632 1691 L1795 1854 Z" /></g><g class="o"><path transform="translate(2,4)" class="S sfh" d="M1948 1487 L2107 1328 L2133 1328 L1974 1487 Z"/><path class="fh2" d="M1948 1487 L2107 1328 L2133 1328 L1974 1487 Z" /></g><g class="o"><path transform="translate(7,14)" class="S sfh" d="M1950 1550 L1853 1453 L1883 1453 L1980 1550 Z"/><path class="fh6" d="M1950 1550 L1853 1453 L1883 1453 L1980 1550 Z" /></g><g class="o"><path transform="translate(9,18)" class="S sf" d="M1445 1983 L1631 1797 L1653 1797 L1467 1983 Z"/><path class="f3" d="M1445 1983 L1631 1797 L1653 1797 L1467 1983 Z" /></g><g class="o"><path transform="translate(6,12)" class="S sfh" d="M1241 2021 L1081 1861 L1115 1861 L1275 2021 Z"/><path class="fh1" d="M1241 2021 L1081 1861 L1115 1861 L1275 2021 Z" /></g><g class="o"><path transform="translate(7,14)" class="S ssv" d="M1597 1380 L1662 1315 L1662 1323 L1597 1388 Z"/><path class="sv7" d="M1597 1380 L1662 1315 L1662 1323 L1597 1388 Z" /></g><g class="o"><path transform="translate(3,6)" class="S sfh" d="M1061 1639 L848 1426 L872 1426 L1085 1639 Z"/><path class="fh3" d="M1061 1639 L848 1426 L872 1426 L1085 1639 Z" /></g><g class="o"><path transform="translate(3,6)" class="S sfv" d="M1632 2042 L1429 1839 L1429 1853 L1632 2056 Z"/><path class="fv1" d="M1632 2042 L1429 1839 L1429 1853 L1632 2056 Z" /></g><g class="o"><path transform="translate(3,6)" class="S sfv" d="M1893 1587 L1740 1434 L1740 1460 L1893 1613 Z"/><path class="fv1" d="M1893 1587 L1740 1434 L1740 1460 L1893 1613 Z" /></g><g class="o"><path transform="translate(2,4)" class="S sfv" d="M959 1635 L814 1490 L814 1526 L959 1671 Z"/><path class="fv2" d="M959 1635 L814 1490 L814 1526 L959 1671 Z" /></g><g class="o"><path transform="translate(5,10)" class="S sf" d="M1745 1155 L1497 907 L1531 907 L1779 1155 Z"/><path class="f2" d="M1745 1155 L1497 907 L1531 907 L1779 1155 Z" /></g><g class="o"><path transform="translate(7,14)" class="S ss" d="M1764 1947 L1532 1715 L1532 1741 L1764 1973 Z"/><path class="s7" d="M1764 1947 L1532 1715 L1532 1741 L1764 1973 Z" /></g><g class="o"><path transform="translate(6,12)" class="S sfv" d="M1702 1561 L1892 1371 L1892 1403 L1702 1593 Z"/><path class="fv4" d="M1702 1561 L1892 1371 L1892 1403 L1702 1593 Z" /></g><g class="o"><path transform="translate(5,10)" class="S sfh" d="M1620 1882 L1458 1720 L1466 1720 L1628 1882 Z"/><path class="fh4" d="M1620 1882 L1458 1720 L1466 1720 L1628 1882 Z" /></g><g class="o"><path transform="translate(3,6)" class="S sfv" d="M1295 1069 L1176 950 L1176 982 L1295 1101 Z"/><path class="fv3" d="M1295 1069 L1176 950 L1176 982 L1295 1101 Z" /></g><g class="o"><path transform="translate(7,14)" class="S ssh" d="M1833 1532 L2409 956 L2441 956 L1865 1532 Z"/><path class="sh2" d="M1833 1532 L2409 956 L2441 956 L1865 1532 Z" /></g><g class="o"><path transform="translate(5,10)" class="S sfv" d="M1772 1724 L1646 1598 L1646 1654 L1772 1780 Z"/><path class="fv7" d="M1772 1724 L1646 1598 L1646 1654 L1772 1780 Z" /></g><g class="o"><path transform="translate(4,8)" class="S sfv" d="M1331 1992 L1530 1793 L1530 1817 L1331 2016 Z"/><path class="fv1" d="M1331 1992 L1530 1793 L1530 1817 L1331 2016 Z" /></g><g class="o"><path transform="translate(6,12)" class="S ssv" d="M1575 949 L1705 819 L1705 841 L1575 971 Z"/><path class="sv5" d="M1575 949 L1705 819 L1705 841 L1575 971 Z" /></g><g class="o"><path transform="translate(9,18)" class="S ss" d="M939 1388 L1065 1262 L1093 1262 L967 1388 Z"/><path class="s2" d="M939 1388 L1065 1262 L1093 1262 L967 1388 Z" /></g><g class="o"><path transform="translate(5,10)" class="S sfh" d="M1147 1108 L1684 571 L1718 571 L1181 1108 Z"/><path class="fh6" d="M1147 1108 L1684 571 L1718 571 L1181 1108 Z" /></g><g class="o"><path transform="translate(4,8)" class="S sfv" d="M1272 1785 L1396 1661 L1396 1681 L1272 1805 Z"/><path class="fv2" d="M1272 1785 L1396 1661 L1396 1681 L1272 1805 Z" /></g><g class="o"><path transform="translate(9,18)" class="S sfh" d="M1395 1950 L1227 1782 L1247 1782 L1415 1950 Z"/><path class="fh6" d="M1395 1950 L1227 1782 L1247 1782 L1415 1950 Z" /></g><g class="o"><path transform="translate(6,12)" class="S sfh" d="M1429 1987 L1672 1744 L1784 1744 L1541 1987 Z"/><path class="fh5" d="M1429 1987 L1672 1744 L1784 1744 L1541 1987 Z" /></g><g class="o"><path transform="translate(8,16)" class="S sfh" d="M1129 1766 L1241 1654 L1257 1654 L1145 1766 Z"/><path class="fh7" d="M1129 1766 L1241 1654 L1257 1654 L1145 1766 Z" /></g><g class="o"><path transform="translate(5,10)" class="S sfh" d="M1043 1239 L928 1124 L938 1124 L1053 1239 Z"/><path class="fh4" d="M1043 1239 L928 1124 L938 1124 L1053 1239 Z" /></g><g class="o"><path transform="translate(6,12)" class="S sfv" d="M1657 1216 L1448 1007 L1448 1041 L1657 1250 Z"/><path class="fv4" d="M1657 1216 L1448 1007 L1448 1041 L1657 1250 Z" /></g><g class="o"><path transform="translate(9,18)" class="S sfv" d="M1754 2008 L1944 1818 L1944 1852 L1754 2042 Z"/><path class="fv3" d="M1754 2008 L1944 1818 L1944 1852 L1754 2042 Z" /></g><g class="o"><path transform="translate(8,16)" class="S sfh" d="M1903 1483 L2281 1105 L2289 1105 L1911 1483 Z"/><path class="fh3" d="M1903 1483 L2281 1105 L2289 1105 L1911 1483 Z" /></g><g class="o"><path transform="translate(7,14)" class="S sf" d="M1788 1854 L1975 1667 L1985 1667 L1798 1854 Z"/><path class="f1" d="M1788 1854 L1975 1667 L1985 1667 L1798 1854 Z" /></g><g class="o"><path transform="translate(3,6)" class="S sfh" d="M1054 1075 L1227 902 L1253 902 L1080 1075 Z"/><path class="fh1" d="M1054 1075 L1227 902 L1253 902 L1080 1075 Z" /></g><g class="o"><path transform="translate(2,4)" class="S sf" d="M1958 1211 L1379 632 L1379 658 L1958 1237 Z"/><path class="f3" d="M1958 1211 L1379 632 L1379 658 L1958 1237 Z" /></g><g class="o"><path transform="translate(6,12)" class="S sf" d="M1470 1013 L1341 884 L1341 904 L1470 1033 Z"/><path class="f7" d="M1470 1013 L1341 884 L1341 904 L1470 1033 Z" /></g><g class="o"><path transform="translate(5,10)" class="S sfh" d="M1555 1690 L1785 1460 L1819 1460 L1589 1690 Z"/><path class="fh4" d="M1555 1690 L1785 1460 L1819 1460 L1589 1690 Z" /></g><g class="o"><path transform="translate(5,10)" class="S ssh" d="M1971 1028 L1790 847 L1824 847 L2005 1028 Z"/><path class="sh5" d="M1971 1028 L1790 847 L1824 847 L2005 1028 Z" /></g><g class="o"><path transform="translate(5,10)" class="S sf" d="M1320 1360 L1423 1257 L1459 1257 L1356 1360 Z"/><path class="f2" d="M1320 1360 L1423 1257 L1459 1257 L1356 1360 Z" /></g><g class="o"><path transform="translate(5,10)" class="S sfv" d="M1886 2034 L1689 1837 L1689 1857 L1886 2054 Z"/><path class="fv4" d="M1886 2034 L1689 1837 L1689 1857 L1886 2054 Z" /></g><g class="o"><path transform="translate(9,18)" class="S sf" d="M1467 1128 L1197 858 L1197 872 L1467 1142 Z"/><path class="f6" d="M1467 1128 L1197 858 L1197 872 L1467 1142 Z" /></g><g class="o"><path transform="translate(3,6)" class="S sfv" d="M1579 1160 L1631 1108 L1631 1136 L1579 1188 Z"/><path class="fv6" d="M1579 1160 L1631 1108 L1631 1136 L1579 1188 Z" /></g><g class="o"><path transform="translate(6,12)" class="S sfv" d="M999 1574 L1169 1404 L1169 1434 L999 1604 Z"/><path class="fv2" d="M999 1574 L1169 1404 L1169 1434 L999 1604 Z" /></g><g class="o"><path transform="translate(7,14)" class="S sfh" d="M1415 1183 L1598 1000 L1608 1000 L1425 1183 Z"/><path class="fh7" d="M1415 1183 L1598 1000 L1608 1000 L1425 1183 Z" /></g><g class="o"><path transform="translate(5,10)" class="S sfv" d="M1741 1379 L1642 1280 L1642 1318 L1741 1417 Z"/><path class="fv4" d="M1741 1379 L1642 1280 L1642 1318 L1741 1417 Z" /></g><g class="o"><path transform="translate(7,14)" class="S ssh" d="M894 1972 L1077 1789 L1221 1789 L1038 1972 Z"/><path class="sh4" d="M894 1972 L1077 1789 L1221 1789 L1038 1972 Z" /></g><g class="o"><path transform="translate(8,16)" class="S sf" d="M987 1655 L778 1446 L778 1460 L987 1669 Z"/><path class="f1" d="M987 1655 L778 1446 L778 1460 L987 1669 Z" /></g><g class="o"><path transform="translate(8,16)" class="S sfv" d="M1993 2028 L1932 1967 L1932 1983 L1993 2044 Z"/><path class="fv2" d="M1993 2028 L1932 1967 L1932 1983 L1993 2044 Z" /></g><g class="o"><path transform="translate(3,6)" class="S sfh" d="M1676 1517 L2222 971 L2232 971 L1686 1517 Z"/><path class="fh2" d="M1676 1517 L2222 971 L2232 971 L1686 1517 Z" /></g><g class="o"><path transform="translate(4,8)" class="S ss" d="M1836 1054 L2535 355 L2573 355 L1874 1054 Z"/><path class="s4" d="M1836 1054 L2535 355 L2573 355 L1874 1054 Z" /></g><g class="o"><path transform="translate(4,8)" class="S sfv" d="M1984 1808 L1869 1693 L1869 1719 L1984 1834 Z"/><path class="fv1" d="M1984 1808 L1869 1693 L1869 1719 L1984 1834 Z" /></g><g class="o"><path transform="translate(2,4)" class="S sf" d="M1137 1128 L1635 630 L1635 654 L1137 1152 Z"/><path class="f4" d="M1137 1128 L1635 630 L1635 654 L1137 1152 Z" /></g><g class="o"><path transform="translate(6,12)" class="S ssh" d="M2013 1688 L1937 1612 L1959 1612 L2035 1688 Z"/><path class="sh4" d="M2013 1688 L1937 1612 L1959 1612 L2035 1688 Z" /></g><g class="o"><path transform="translate(3,6)" class="S ssh" d="M1286 2031 L626 1371 L640 1371 L1300 2031 Z"/><path class="sh6" d="M1286 2031 L626 1371 L640 1371 L1300 2031 Z" /></g><g class="o"><path transform="translate(8,16)" class="S ssv" d="M1931 1159 L2103 987 L2103 1015 L1931 1187 Z"/><path class="sv5" d="M1931 1159 L2103 987 L2103 1015 L1931 1187 Z" /></g><g class="o"><path transform="translate(6,12)" class="S sfv" d="M1843 1529 L2028 1344 L2028 1364 L1843 1549 Z"/><path class="fv6" d="M1843 1529 L2028 1344 L2028 1364 L1843 1549 Z" /></g><g class="o"><path transform="translate(9,18)" class="S ssh" d="M1719 1527 L1864 1382 L1888 1382 L1743 1527 Z"/><path class="sh2" d="M1719 1527 L1864 1382 L1888 1382 L1743 1527 Z" /></g><g class="o"><path transform="translate(3,6)" class="S sfv" d="M1858 1166 L1638 946 L1638 1066 L1858 1286 Z"/><path class="fv6" d="M1858 1166 L1638 946 L1638 1066 L1858 1286 Z" /></g><g class="o"><path transform="translate(7,14)" class="S sfh" d="M1471 981 L1319 829 L1351 829 L1503 981 Z"/><path class="fh2" d="M1471 981 L1319 829 L1351 829 L1503 981 Z" /></g><g class="o"><path transform="translate(5,10)" class="S sfh" d="M1545 1212 L1490 1157 L1504 1157 L1559 1212 Z"/><path class="fh6" d="M1545 1212 L1490 1157 L1504 1157 L1559 1212 Z" /></g><g class="o"><path transform="translate(2,4)" class="S sfv" d="M1208 1886 L1916 1178 L1916 1206 L1208 1914 Z"/><path class="fv3" d="M1208 1886 L1916 1178 L1916 1206 L1208 1914 Z" /></g><g class="o"><path transform="translate(6,12)" class="S sf" d="M2038 1054 L1956 972 L1956 982 L2038 1064 Z"/><path class="f6" d="M2038 1054 L1956 972 L1956 982 L2038 1064 Z" /></g><g class="o"><path transform="translate(4,8)" class="S sfh" d="M1628 1339 L1548 1259 L1578 1259 L1658 1339 Z"/><path class="fh5" d="M1628 1339 L1548 1259 L1578 1259 L1658 1339 Z" /></g><g class="o"><path transform="translate(2,4)" class="S sfh" d="M2025 1476 L1801 1252 L1823 1252 L2047 1476 Z"/><path class="fh5" d="M2025 1476 L1801 1252 L1823 1252 L2047 1476 Z" /></g><g class="o"><path transform="translate(4,8)" class="S sf" d="M1723 1975 L1959 1739 L1981 1739 L1745 1975 Z"/><path class="f5" d="M1723 1975 L1959 1739 L1981 1739 L1745 1975 Z" /></g><g class="o"><path transform="translate(2,4)" class="S sfv" d="M1977 1365 L2126 1216 L2126 1242 L1977 1391 Z"/><path class="fv2" d="M1977 1365 L2126 1216 L2126 1242 L1977 1391 Z" /></g><g class="o"><path transform="translate(9,18)" class="S sfh" d="M1702 1563 L1803 1462 L1839 1462 L1738 1563 Z"/><path class="fh6" d="M1702 1563 L1803 1462 L1839 1462 L1738 1563 Z" /></g><g class="o"><path transform="translate(9,18)" class="S ssv" d="M1267 1272 L1464 1075 L1464 1085 L1267 1282 Z"/><path class="sv7" d="M1267 1272 L1464 1075 L1464 1085 L1267 1282 Z" /></g><g class="o"><path transform="translate(9,18)" class="S ssv" d="M1944 1357 L1840 1253 L1840 1263 L1944 1367 Z"/><path class="sv1" d="M1944 1357 L1840 1253 L1840 1263 L1944 1367 Z" /></g><g class="o"><path transform="translate(9,18)" class="S sfh" d="M968 2034 L1204 1798 L1216 1798 L980 2034 Z"/><path class="fh3" d="M968 2034 L1204 1798 L1216 1798 L980 2034 Z" /></g><g class="o"><path transform="translate(5,10)" class="S ss" d="M1399 1465 L1521 1343 L1521 1357 L1399 1479 Z"/><path class="s7" d="M1399 1465 L1521 1343 L1521 1357 L1399 1479 Z" /></g><g class="o"><path transform="translate(4,8)" class="S sf" d="M1337 1949 L2006 1280 L2006 1304 L1337 1973 Z"/><path class="f3" d="M1337 1949 L2006 1280 L2006 1304 L1337 1973 Z" /></g><g class="o"><path transform="translate(2,4)" class="S sfh" d="M1987 1577 L1801 1391 L1873 1391 L2059 1577 Z"/><path class="fh5" d="M1987 1577 L1801 1391 L1873 1391 L2059 1577 Z" /></g><g class="o"><path transform="translate(6,12)" class="S sf" d="M1346 1353 L1808 891 L1820 891 L1358 1353 Z"/><path class="f3" d="M1346 1353 L1808 891 L1820 891 L1358 1353 Z" /></g><g class="o"><path transform="translate(4,8)" class="S sfv" d="M1682 1423 L1822 1283 L1822 1307 L1682 1447 Z"/><path class="fv1" d="M1682 1423 L1822 1283 L1822 1307 L1682 1447 Z" /></g><g class="o"><path transform="translate(9,18)" class="S ss" d="M1968 1012 L2373 607 L2385 607 L1980 1012 Z"/><path class="s7" d="M1968 1012 L2373 607 L2385 607 L1980 1012 Z" /></g><g class="o"><path transform="translate(8,16)" class="S sfh" d="M1208 1826 L1484 1550 L1508 1550 L1232 1826 Z"/><path class="fh2" d="M1208 1826 L1484 1550 L1508 1550 L1232 1826 Z" /></g><g class="o"><path transform="translate(5,10)" class="S sfv" d="M1698 1085 L1863 920 L1863 946 L1698 1111 Z"/><path class="fv2" d="M1698 1085 L1863 920 L1863 946 L1698 1111 Z" /></g><g class="o"><path transform="translate(7,14)" class="S ssv" d="M1648 1844 L1424 1620 L1424 1630 L1648 1854 Z"/><path class="sv7" d="M1648 1844 L1424 1620 L1424 1630 L1648 1854 Z" /></g><g class="o"><path transform="translate(3,6)" class="S sfh" d="M1888 1544 L1774 1430 L1790 1430 L1904 1544 Z"/><path class="fh4" d="M1888 1544 L1774 1430 L1790 1430 L1904 1544 Z" /></g><g class="o"><path transform="translate(6,12)" class="S sfh" d="M1635 1832 L1471 1668 L1491 1668 L1655 1832 Z"/><path class="fh6" d="M1635 1832 L1471 1668 L1491 1668 L1655 1832 Z" /></g><g class="o"><path transform="translate(6,12)" class="S sfv" d="M1759 1960 L2353 1366 L2353 1388 L1759 1982 Z"/><path class="fv5" d="M1759 1960 L2353 1366 L2353 1388 L1759 1982 Z" /></g><g class="o"><path transform="translate(7,14)" class="S sfv" d="M2039 1533 L2175 1397 L2175 1417 L2039 1553 Z"/><path class="fv6" d="M2039 1533 L2175 1397 L2175 1417 L2039 1553 Z" /></g><g class="o"><path transform="translate(2,4)" class="S sf" d="M1057 1643 L991 1577 L999 1577 L1065 1643 Z"/><path class="f7" d="M1057 1643 L991 1577 L999 1577 L1065 1643 Z" /></g><g class="o"><path transform="translate(3,6)" class="S sfh" d="M1105 1769 L992 1656 L1006 1656 L1119 1769 Z"/><path class="fh2" d="M1105 1769 L992 1656 L1006 1656 L1119 1769 Z" /></g><g class="o"><path transform="translate(9,18)" class="S sfh" d="M1316 1833 L1528 1621 L1558 1621 L1346 1833 Z"/><path class="fh1" d="M1316 1833 L1528 1621 L1558 1621 L1346 1833 Z" /></g><g class="o"><path transform="translate(5,10)" class="S sfh" d="M1444 1452 L1315 1323 L1333 1323 L1462 1452 Z"/><path class="fh7" d="M1444 1452 L1315 1323 L1333 1323 L1462 1452 Z" /></g><g class="o"><path transform="translate(3,6)" class="S sfv" d="M1283 1589 L1997 875 L1997 895 L1283 1609 Z"/><path class="fv4" d="M1283 1589 L1997 875 L1997 895 L1283 1609 Z" /></g><g class="o"><path transform="translate(7,14)" class="S sfv" d="M1301 1705 L1076 1480 L1076 1508 L1301 1733 Z"/><path class="fv6" d="M1301 1705 L1076 1480 L1076 1508 L1301 1733 Z" /></g><g class="o"><path transform="translate(5,10)" class="S sfh" d="M1044 1545 L839 1340 L903 1340 L1108 1545 Z"/><path class="fh1" d="M1044 1545 L839 1340 L903 1340 L1108 1545 Z" /></g><g class="o"><path transform="translate(9,18)" class="S sfh" d="M1136 1300 L1313 1123 L1345 1123 L1168 1300 Z"/><path class="fh5" d="M1136 1300 L1313 1123 L1345 1123 L1168 1300 Z" /></g><g class="o"><path transform="translate(9,18)" class="S sfh" d="M1606 1230 L2029 807 L2165 807 L1742 1230 Z"/><path class="fh3" d="M1606 1230 L2029 807 L2165 807 L1742 1230 Z" /></g><g class="o"><path transform="translate(4,8)" class="S sf" d="M1568 1064 L1354 850 L1366 850 L1580 1064 Z"/><path class="f6" d="M1568 1064 L1354 850 L1366 850 L1580 1064 Z" /></g><g class="o"><path transform="translate(8,16)" class="S sf" d="M1477 1779 L1530 1726 L1548 1726 L1495 1779 Z"/><path class="f3" d="M1477 1779 L1530 1726 L1548 1726 L1495 1779 Z" /></g><g class="o"><path transform="translate(5,10)" class="S sfv" d="M1014 1726 L812 1524 L812 1652 L1014 1854 Z"/><path class="fv7" d="M1014 1726 L812 1524 L812 1652 L1014 1854 Z" /></g><g class="o"><path transform="translate(4,8)" class="S sfv" d="M986 1130 L758 902 L758 912 L986 1140 Z"/><path class="fv2" d="M986 1130 L758 902 L758 912 L986 1140 Z" /></g><g class="o"><path transform="translate(2,4)" class="S sfh" d="M1464 1449 L2172 741 L2182 741 L1474 1449 Z"/><path class="fh7" d="M1464 1449 L2172 741 L2182 741 L1474 1449 Z" /></g><g class="o"><path transform="translate(6,12)" class="S ss" d="M1773 1213 L1401 841 L1401 875 L1773 1247 Z"/><path class="s7" d="M1773 1213 L1401 841 L1401 875 L1773 1247 Z" /></g><g class="o"><path transform="translate(7,14)" class="S sfh" d="M1808 1314 L1646 1152 L1656 1152 L1818 1314 Z"/><path class="fh2" d="M1808 1314 L1646 1152 L1656 1152 L1818 1314 Z" /></g><g class="o"><path transform="translate(2,4)" class="S sf" d="M974 1885 L1179 1680 L1179 1718 L974 1923 Z"/><path class="f1" d="M974 1885 L1179 1680 L1179 1718 L974 1923 Z" /></g></g><use href="#slashes" transform-origin="1500 1500" transform="rotate(180) scale(2)"/></g><rect x="1080" y="1080" width="840" height="840" stroke-width="160" class="o s7" /><use href="#slashes" transform-origin="1500 1500" transform="scale(.3)"/><use href="#slashes" transform-origin="1500 1500" transform="rotate(180) scale(.7)"/></svg>