<svg xmlns="http://www.w3.org/2000/svg" viewBox="750 750 1500 1500"><style>/*<![CDATA[*/svg{background:rgb(34,34,34);max-width:100vw;max-height:100vh}path{stroke-width:4}.o{opacity:.75}.S{opacity:.4}.sf{stroke:none;fill:black}.sfh{stroke:none;fill:url(#hs)}.sfv{stroke:none;fill:url(#vs)}.ss{stroke:black;fill:none}.ssh{stroke:url(#hs);fill:none}.ssv{stroke:url(#vs);fill:none}.s1{fill:none;stroke:rgb(27,152,224)}.f1{stroke:none;fill:rgb(27,152,224)}.sh1{fill:none;stroke:url(#h1)}.fh1{stroke:none;fill:url(#h1)}.sv1{fill:none;stroke:url(#v1)}.fv1{stroke:none;fill:url(#v1)}.s2{fill:none;stroke:rgb(19,41,61)}.f2{stroke:none;fill:rgb(19,41,61)}.sh2{fill:none;stroke:url(#h2)}.fh2{stroke:none;fill:url(#h2)}.sv2{fill:none;stroke:url(#v2)}.fv2{stroke:none;fill:url(#v2)}.s3{fill:none;stroke:rgb(232,241,242)}.f3{stroke:none;fill:rgb(232,241,242)}.sh3{fill:none;stroke:url(#h3)}.fh3{stroke:none;fill:url(#h3)}.sv3{fill:none;stroke:url(#v3)}.fv3{stroke:none;fill:url(#v3)}.s4{fill:none;stroke:rgb(0,100,148)}.f4{stroke:none;fill:rgb(0,100,148)}.sh4{fill:none;stroke:url(#h4)}.fh4{stroke:none;fill:url(#h4)}.sv4{fill:none;stroke:url(#v4)}.fv4{stroke:none;fill:url(#v4)}.s5{fill:none;stroke:rgb(36,123,160)}.f5{stroke:none;fill:rgb(36,123,160)}.sh5{fill:none;stroke:url(#h5)}.fh5{stroke:none;fill:url(#h5)}.sv5{fill:none;stroke:url(#v5)}.fv5{stroke:none;fill:url(#v5)}.s6{fill:none;stroke:rgb(255,255,255)}.f6{stroke:none;fill:rgb(255,255,255)}.sh6{fill:none;stroke:url(#h6)}.fh6{stroke:none;fill:url(#h6)}.sv6{fill:none;stroke:url(#v6)}.fv6{stroke:none;fill:url(#v6)}.s7{fill:none;stroke:rgb(255,255,0)}.f7{stroke:none;fill:rgb(255,255,0)}.sh7{fill:none;stroke:url(#h7)}.fh7{stroke:none;fill:url(#h7)}.sv7{fill:none;stroke:url(#v7)}.fv7{stroke:none;fill:url(#v7)}/*]]>*/</style><defs><linearGradient gradientTransform="rotate(90)" id="hs"><stop offset="20%" stop-color="#000" /><stop offset="95%" stop-color="rgba(0, 0, 0, 0)" /></linearGradient><linearGradient id="vs"><stop offset="20%" stop-color="#000" /><stop offset="95%" stop-color="rgba(0, 0, 0, 0)" /></linearGradient><linearGradient gradientTransform="rotate(90)" id="h1"><stop offset="20%" stop-color="rgba(27,152,224,1)" /><stop offset="95%" stop-color="rgba(27,152,224,0)" /></linearGradient><linearGradient id="v1"><stop offset="20%" stop-color="rgba(27,152,224,1)" /><stop offset="95%" stop-color="rgba(27,152,224,0)" /></linearGradient><linearGradient gradientTransform="rotate(90)" id="h2"><stop offset="20%" stop-color="rgba(19,41,61,1)" /><stop offset="95%" stop-color="rgba(19,41,61,0)" /></linearGradient><linearGradient id="v2"><stop offset="20%" stop-color="rgba(19,41,61,1)" /><stop offset="95%" stop-color="rgba(19,41,61,0)" /></linearGradient><linearGradient gradientTransform="rotate(90)" id="h3"><stop offset="20%" stop-color="rgba(232,241,242,1)" /><stop offset="95%" stop-color="rgba(232,241,242,0)" /></linearGradient><linearGradient id="v3"><stop offset="20%" stop-color="rgba(232,241,242,1)" /><stop offset="95%" stop-color="rgba(232,241,242,0)" /></linearGradient><linearGradient gradientTransform="rotate(90)" id="h4"><stop offset="20%" stop-color="rgba(0,100,148,1)" /><stop offset="95%" stop-color="rgba(0,100,148,0)" /></linearGradient><linearGradient id="v4"><stop offset="20%" stop-color="rgba(0,100,148,1)" /><stop offset="95%" stop-color="rgba(0,100,148,0)" /></linearGradient><linearGradient gradientTransform="rotate(90)" id="h5"><stop offset="20%" stop-color="rgba(36,123,160,1)" /><stop offset="95%" stop-color="rgba(36,123,160,0)" /></linearGradient><linearGradient id="v5"><stop offset="20%" stop-color="rgba(36,123,160,1)" /><stop offset="95%" stop-color="rgba(36,123,160,0)" /></linearGradient><linearGradient gradientTransform="rotate(90)" id="h6"><stop offset="20%" stop-color="rgba(255,255,255,1)" /><stop offset="95%" stop-color="rgba(255,255,255,0)" /></linearGradient><linearGradient id="v6"><stop offset="20%" stop-color="rgba(255,255,255,1)" /><stop offset="95%" stop-color="rgba(255,255,255,0)" /></linearGradient><linearGradient gradientTransform="rotate(90)" id="h7"><stop offset="20%" stop-color="rgba(255,255,0,1)" /><stop offset="95%" stop-color="rgba(255,255,0,0)" /></linearGradient><linearGradient id="v7"><stop offset="20%" stop-color="rgba(255,255,0,1)" /><stop offset="95%" stop-color="rgba(255,255,0,0)" /></linearGradient></defs><g transform-origin="1500 1500" transform="scale(2)" opacity=".6"><g id="slashes"><g class="o"><path transform="translate(8,16)" class="S sfh" d="M1380 1339 L1528 1487 L1564 1487 L1416 1339 Z"/><path class="fh4" d="M1380 1339 L1528 1487 L1564 1487 L1416 1339 Z" /></g><g class="o"><path transform="translate(6,12)" class="S sfv" d="M1420 1804 L1795 1429 L1795 1549 L1420 1924 Z"/><path class="fv3" d="M1420 1804 L1795 1429 L1795 1549 L1420 1924 Z" /></g><g class="o"><path transform="translate(8,16)" class="S sfv" d="M1289 1197 L1226 1260 L1226 1276 L1289 1213 Z"/><path class="fv1" d="M1289 1197 L1226 1260 L1226 1276 L1289 1213 Z" /></g><g class="o"><path transform="translate(8,16)" class="S sfh" d="M1643 2000 L1838 2195 L1866 2195 L1671 2000 Z"/><path class="fh6" d="M1643 2000 L1838 2195 L1866 2195 L1671 2000 Z" /></g><g class="o"><path transform="translate(7,14)" class="S sfv" d="M1537 1956 L1840 2259 L1840 2289 L1537 1986 Z"/><path class="fv2" d="M1537 1956 L1840 2259 L1840 2289 L1537 1986 Z" /></g><g class="o"><path transform="translate(6,12)" class="S sfv" d="M1661 1674 L1569 1766 L1569 1802 L1661 1710 Z"/><path class="fv7" d="M1661 1674 L1569 1766 L1569 1802 L1661 1710 Z" /></g><g class="o"><path transform="translate(3,6)" class="S sfh" d="M1536 1329 L1680 1473 L1710 1473 L1566 1329 Z"/><path class="fh2" d="M1536 1329 L1680 1473 L1710 1473 L1566 1329 Z" /></g><g class="o"><path transform="translate(5,10)" class="S sfh" d="M1480 1196 L1849 1565 L1869 1565 L1500 1196 Z"/><path class="fh6" d="M1480 1196 L1849 1565 L1869 1565 L1500 1196 Z" /></g><g class="o"><path transform="translate(9,18)" class="S sfv" d="M1937 1558 L2303 1192 L2303 1336 L1937 1702 Z"/><path class="fv1" d="M1937 1558 L2303 1192 L2303 1336 L1937 1702 Z" /></g><g class="o"><path transform="translate(9,18)" class="S sfh" d="M1171 1646 L1678 2153 L1688 2153 L1181 1646 Z"/><path class="fh3" d="M1171 1646 L1678 2153 L1688 2153 L1181 1646 Z" /></g><g class="o"><path transform="translate(9,18)" class="S sfv" d="M1115 964 L878 727 L878 735 L1115 972 Z"/><path class="fv5" d="M1115 964 L878 727 L878 735 L1115 972 Z" /></g><g class="o"><path transform="translate(9,18)" class="S sfv" d="M1553 1740 L1793 1500 L1793 1516 L1553 1756 Z"/><path class="fv7" d="M1553 1740 L1793 1500 L1793 1516 L1553 1756 Z" /></g><g class="o"><path transform="translate(6,12)" class="S sfh" d="M1287 1092 L1386 993 L1416 993 L1317 1092 Z"/><path class="fh5" d="M1287 1092 L1386 993 L1416 993 L1317 1092 Z" /></g><g class="o"><path transform="translate(2,4)" class="S sfh" d="M1607 1560 L1949 1218 L1971 1218 L1629 1560 Z"/><path class="fh6" d="M1607 1560 L1949 1218 L1971 1218 L1629 1560 Z" /></g><g class="o"><path transform="translate(2,4)" class="S sfv" d="M1788 1114 L1586 912 L1586 948 L1788 1150 Z"/><path class="fv1" d="M1788 1114 L1586 912 L1586 948 L1788 1150 Z" /></g><g class="o"><path transform="translate(6,12)" class="S sfv" d="M1976 1774 L2561 2359 L2561 2447 L1976 1862 Z"/><path class="fv3" d="M1976 1774 L2561 2359 L2561 2447 L1976 1862 Z" /></g><g class="o"><path transform="translate(9,18)" class="S sfh" d="M1028 1732 L1226 1534 L1240 1534 L1042 1732 Z"/><path class="fh4" d="M1028 1732 L1226 1534 L1240 1534 L1042 1732 Z" /></g><g class="o"><path transform="translate(8,16)" class="S sfh" d="M1676 1146 L1453 923 L1477 923 L1700 1146 Z"/><path class="fh7" d="M1676 1146 L1453 923 L1477 923 L1700 1146 Z" /></g><g class="o"><path transform="translate(8,16)" class="S sfv" d="M2010 1135 L2229 916 L2229 936 L2010 1155 Z"/><path class="fv2" d="M2010 1135 L2229 916 L2229 936 L2010 1155 Z" /></g><g class="o"><path transform="translate(9,18)" class="S sfh" d="M1630 1309 L2293 646 L2305 646 L1642 1309 Z"/><path class="fh5" d="M1630 1309 L2293 646 L2305 646 L1642 1309 Z" /></g><g class="o"><path transform="translate(7,14)" class="S sfv" d="M1045 2020 L1324 1741 L1324 1771 L1045 2050 Z"/><path class="fv1" d="M1045 2020 L1324 1741 L1324 1771 L1045 2050 Z" /></g><g class="o"><path transform="translate(6,12)" class="S sfv" d="M1485 1225 L1698 1012 L1698 1042 L1485 1255 Z"/><path class="fv1" d="M1485 1225 L1698 1012 L1698 1042 L1485 1255 Z" /></g><g class="o"><path transform="translate(7,14)" class="S sfh" d="M1368 1514 L1944 938 L1964 938 L1388 1514 Z"/><path class="fh2" d="M1368 1514 L1944 938 L1964 938 L1388 1514 Z" /></g><g class="o"><path transform="translate(2,4)" class="S sfv" d="M1763 1021 L1988 1246 L1988 1264 L1763 1039 Z"/><path class="fv3" d="M1763 1021 L1988 1246 L1988 1264 L1763 1039 Z" /></g><g class="o"><path transform="translate(2,4)" class="S sfv" d="M1400 1519 L1067 1852 L1067 1882 L1400 1549 Z"/><path class="fv4" d="M1400 1519 L1067 1852 L1067 1882 L1400 1549 Z" /></g><g class="o"><path transform="translate(8,16)" class="S sfh" d="M1743 1567 L1967 1343 L1991 1343 L1767 1567 Z"/><path class="fh5" d="M1743 1567 L1967 1343 L1991 1343 L1767 1567 Z" /></g><g class="o"><path transform="translate(2,4)" class="S sfh" d="M1418 1713 L875 2256 L885 2256 L1428 1713 Z"/><path class="fh7" d="M1418 1713 L875 2256 L885 2256 L1428 1713 Z" /></g><g class="o"><path transform="translate(8,16)" class="S sfv" d="M1109 1589 L1356 1342 L1356 1354 L1109 1601 Z"/><path class="fv2" d="M1109 1589 L1356 1342 L1356 1354 L1109 1601 Z" /></g><g class="o"><path transform="translate(4,8)" class="S sfh" d="M1439 1096 L1209 866 L1235 866 L1465 1096 Z"/><path class="fh3" d="M1439 1096 L1209 866 L1235 866 L1465 1096 Z" /></g><g class="o"><path transform="translate(4,8)" class="S sfh" d="M1137 1574 L1866 845 L1900 845 L1171 1574 Z"/><path class="fh1" d="M1137 1574 L1866 845 L1900 845 L1171 1574 Z" /></g><g class="o"><path transform="translate(8,16)" class="S sfv" d="M1790 1635 L1866 1711 L1866 1737 L1790 1661 Z"/><path class="fv5" d="M1790 1635 L1866 1711 L1866 1737 L1790 1661 Z" /></g><g class="o"><path transform="translate(2,4)" class="S sfv" d="M1111 1674 L1678 2241 L1678 2271 L1111 1704 Z"/><path class="fv6" d="M1111 1674 L1678 2241 L1678 2271 L1111 1704 Z" /></g><g class="o"><path transform="translate(3,6)" class="S sfv" d="M1981 1411 L1597 1027 L1597 1061 L1981 1445 Z"/><path class="fv5" d="M1981 1411 L1597 1027 L1597 1061 L1981 1445 Z" /></g><g class="o"><path transform="translate(5,10)" class="S ssh" d="M1943 996 L1719 1220 L1753 1220 L1977 996 Z"/><path class="sh4" d="M1943 996 L1719 1220 L1753 1220 L1977 996 Z" /></g><g class="o"><path transform="translate(9,18)" class="S sfh" d="M2010 1966 L1464 1420 L1478 1420 L2024 1966 Z"/><path class="fh4" d="M2010 1966 L1464 1420 L1478 1420 L2024 1966 Z" /></g><g class="o"><path transform="translate(5,10)" class="S sfh" d="M956 1158 L880 1234 L888 1234 L964 1158 Z"/><path class="fh4" d="M956 1158 L880 1234 L888 1234 L964 1158 Z" /></g><g class="o"><path transform="translate(3,6)" class="S sfh" d="M1552 1127 L1779 1354 L1787 1354 L1560 1127 Z"/><path class="fh2" d="M1552 1127 L1779 1354 L1787 1354 L1560 1127 Z" /></g><g class="o"><path transform="translate(4,8)" class="S ssh" d="M1879 1069 L1954 994 L1984 994 L1909 1069 Z"/><path class="sh4" d="M1879 1069 L1954 994 L1984 994 L1909 1069 Z" /></g><g class="o"><path transform="translate(3,6)" class="S sfv" d="M1530 1824 L1713 2007 L1713 2025 L1530 1842 Z"/><path class="fv2" d="M1530 1824 L1713 2007 L1713 2025 L1530 1842 Z" /></g><g class="o"><path transform="translate(9,18)" class="S sfh" d="M1874 1751 L2084 1961 L2098 1961 L1888 1751 Z"/><path class="fh6" d="M1874 1751 L2084 1961 L2098 1961 L1888 1751 Z" /></g><g class="o"><path transform="translate(2,4)" class="S sfh" d="M1756 1228 L2467 517 L2475 517 L1764 1228 Z"/><path class="fh2" d="M1756 1228 L2467 517 L2475 517 L1764 1228 Z" /></g><g class="o"><path transform="translate(2,4)" class="S sfh" d="M1164 1966 L1086 2044 L1094 2044 L1172 1966 Z"/><path class="fh1" d="M1164 1966 L1086 2044 L1094 2044 L1172 1966 Z" /></g><g class="o"><path transform="translate(4,8)" class="S sfv" d="M1050 1752 L892 1910 L892 1940 L1050 1782 Z"/><path class="fv4" d="M1050 1752 L892 1910 L892 1940 L1050 1782 Z" /></g><g class="o"><path transform="translate(5,10)" class="S sfv" d="M1295 1191 L1982 1878 L1982 1890 L1295 1203 Z"/><path class="fv4" d="M1295 1191 L1982 1878 L1982 1890 L1295 1203 Z" /></g><g class="o"><path transform="translate(5,10)" class="S sfh" d="M1244 1078 L1085 1237 L1095 1237 L1254 1078 Z"/><path class="fh1" d="M1244 1078 L1085 1237 L1095 1237 L1254 1078 Z" /></g><g class="o"><path transform="translate(6,12)" class="S sfv" d="M2019 1452 L2156 1589 L2156 1609 L2019 1472 Z"/><path class="fv5" d="M2019 1452 L2156 1589 L2156 1609 L2019 1472 Z" /></g><g class="o"><path transform="translate(2,4)" class="S sfv" d="M1945 1921 L2260 1606 L2260 1636 L1945 1951 Z"/><path class="fv5" d="M1945 1921 L2260 1606 L2260 1636 L1945 1951 Z" /></g><g class="o"><path transform="translate(6,12)" class="S ssv" d="M1985 1183 L1883 1081 L1883 1099 L1985 1201 Z"/><path class="sv5" d="M1985 1183 L1883 1081 L1883 1099 L1985 1201 Z" /></g><g class="o"><path transform="translate(4,8)" class="S sfh" d="M1464 2046 L1699 2281 L1763 2281 L1528 2046 Z"/><path class="fh3" d="M1464 2046 L1699 2281 L1763 2281 L1528 2046 Z" /></g><g class="o"><path transform="translate(7,14)" class="S sfh" d="M1642 974 L1481 813 L1515 813 L1676 974 Z"/><path class="fh1" d="M1642 974 L1481 813 L1515 813 L1676 974 Z" /></g><g class="o"><path transform="translate(9,18)" class="S sfh" d="M1384 1760 L1202 1942 L1224 1942 L1406 1760 Z"/><path class="fh3" d="M1384 1760 L1202 1942 L1224 1942 L1406 1760 Z" /></g><g class="o"><path transform="translate(7,14)" class="S sfh" d="M960 1251 L844 1135 L870 1135 L986 1251 Z"/><path class="fh3" d="M960 1251 L844 1135 L870 1135 L986 1251 Z" /></g><g class="o"><path transform="translate(5,10)" class="S sfv" d="M1960 1406 L1726 1172 L1726 1198 L1960 1432 Z"/><path class="fv3" d="M1960 1406 L1726 1172 L1726 1198 L1960 1432 Z" /></g><g class="o"><path transform="translate(4,8)" class="S sfh" d="M1787 1514 L2315 986 L2347 986 L1819 1514 Z"/><path class="fh3" d="M1787 1514 L2315 986 L2347 986 L1819 1514 Z" /></g><g class="o"><path transform="translate(2,4)" class="S ssh" d="M1431 1415 L1199 1183 L1231 1183 L1463 1415 Z"/><path class="sh7" d="M1431 1415 L1199 1183 L1231 1183 L1463 1415 Z" /></g><g class="o"><path transform="translate(6,12)" class="S sfh" d="M1266 1835 L1207 1776 L1359 1776 L1418 1835 Z"/><path class="fh2" d="M1266 1835 L1207 1776 L1359 1776 L1418 1835 Z" /></g><g class="o"><path transform="translate(9,18)" class="S sfh" d="M1953 1023 L2072 904 L2088 904 L1969 1023 Z"/><path class="fh2" d="M1953 1023 L2072 904 L2088 904 L1969 1023 Z" /></g><g class="o"><path transform="translate(6,12)" class="S sfh" d="M1095 2037 L1827 2769 L1841 2769 L1109 2037 Z"/><path class="fh2" d="M1095 2037 L1827 2769 L1841 2769 L1109 2037 Z" /></g><g class="o"><path transform="translate(3,6)" class="S ssh" d="M1115 2043 L1271 2199 L1293 2199 L1137 2043 Z"/><path class="sh2" d="M1115 2043 L1271 2199 L1293 2199 L1137 2043 Z" /></g><g class="o"><path transform="translate(2,4)" class="S sfv" d="M2008 1427 L1381 2054 L1381 2064 L2008 1437 Z"/><path class="fv2" d="M2008 1427 L1381 2054 L1381 2064 L2008 1437 Z" /></g><g class="o"><path transform="translate(4,8)" class="S sfh" d="M1230 1375 L1366 1239 L1392 1239 L1256 1375 Z"/><path class="fh7" d="M1230 1375 L1366 1239 L1392 1239 L1256 1375 Z" /></g><g class="o"><path transform="translate(5,10)" class="S sfv" d="M1537 1526 L1323 1740 L1323 1764 L1537 1550 Z"/><path class="fv5" d="M1537 1526 L1323 1740 L1323 1764 L1537 1550 Z" /></g><g class="o"><path transform="translate(9,18)" class="S sfv" d="M1559 1077 L2303 1821 L2303 1877 L1559 1133 Z"/><path class="fv5" d="M1559 1077 L2303 1821 L2303 1877 L1559 1133 Z" /></g><g class="o"><path transform="translate(8,16)" class="S sfh" d="M1939 1802 L1722 2019 L1736 2019 L1953 1802 Z"/><path class="fh3" d="M1939 1802 L1722 2019 L1736 2019 L1953 1802 Z" /></g><g class="o"><path transform="translate(2,4)" class="S sfv" d="M1146 1921 L938 1713 L938 1745 L1146 1953 Z"/><path class="fv4" d="M1146 1921 L938 1713 L938 1745 L1146 1953 Z" /></g><g class="o"><path transform="translate(6,12)" class="S sfh" d="M1207 1471 L805 1873 L833 1873 L1235 1471 Z"/><path class="fh3" d="M1207 1471 L805 1873 L833 1873 L1235 1471 Z" /></g><g class="o"><path transform="translate(8,16)" class="S ssv" d="M1942 1056 L1423 1575 L1423 1611 L1942 1092 Z"/><path class="sv3" d="M1942 1056 L1423 1575 L1423 1611 L1942 1092 Z" /></g><g class="o"><path transform="translate(4,8)" class="S sfv" d="M1807 1444 L1453 1090 L1453 1114 L1807 1468 Z"/><path class="fv5" d="M1807 1444 L1453 1090 L1453 1114 L1807 1468 Z" /></g><g class="o"><path transform="translate(5,10)" class="S sfv" d="M1048 1800 L1201 1647 L1201 1655 L1048 1808 Z"/><path class="fv5" d="M1048 1800 L1201 1647 L1201 1655 L1048 1808 Z" /></g><g class="o"><path transform="translate(7,14)" class="S sfv" d="M1165 1253 L956 1462 L956 1474 L1165 1265 Z"/><path class="fv5" d="M1165 1253 L956 1462 L956 1474 L1165 1265 Z" /></g><g class="o"><path transform="translate(9,18)" class="S sfh" d="M1754 1353 L1505 1602 L1541 1602 L1790 1353 Z"/><path class="fh3" d="M1754 1353 L1505 1602 L1541 1602 L1790 1353 Z" /></g><g class="o"><path transform="translate(6,12)" class="S sfh" d="M1301 1209 L1460 1368 L1498 1368 L1339 1209 Z"/><path class="fh2" d="M1301 1209 L1460 1368 L1498 1368 L1339 1209 Z" /></g><g class="o"><path transform="translate(5,10)" class="S sfv" d="M1292 1695 L1443 1846 L1443 1864 L1292 1713 Z"/><path class="fv3" d="M1292 1695 L1443 1846 L1443 1864 L1292 1713 Z" /></g><g class="o"><path transform="translate(3,6)" class="S sfh" d="M1844 1867 L1786 1925 L1822 1925 L1880 1867 Z"/><path class="fh5" d="M1844 1867 L1786 1925 L1822 1925 L1880 1867 Z" /></g><g class="o"><path transform="translate(9,18)" class="S sfh" d="M1266 1125 L1632 759 L1666 759 L1300 1125 Z"/><path class="fh4" d="M1266 1125 L1632 759 L1666 759 L1300 1125 Z" /></g><g class="o"><path transform="translate(2,4)" class="S ssh" d="M1708 1547 L1513 1742 L1549 1742 L1744 1547 Z"/><path class="sh6" d="M1708 1547 L1513 1742 L1549 1742 L1744 1547 Z" /></g><g class="o"><path transform="translate(5,10)" class="S sfv" d="M1210 1984 L1612 2386 L1612 2422 L1210 2020 Z"/><path class="fv7" d="M1210 1984 L1612 2386 L1612 2422 L1210 2020 Z" /></g><g class="o"><path transform="translate(7,14)" class="S sfh" d="M1429 1884 L1654 1659 L1676 1659 L1451 1884 Z"/><path class="fh2" d="M1429 1884 L1654 1659 L1676 1659 L1451 1884 Z" /></g><g class="o"><path transform="translate(6,12)" class="S sfh" d="M1681 1648 L1057 1024 L1071 1024 L1695 1648 Z"/><path class="fh6" d="M1681 1648 L1057 1024 L1071 1024 L1695 1648 Z" /></g><g class="o"><path transform="translate(7,14)" class="S sfh" d="M1390 1351 L1528 1213 L1542 1213 L1404 1351 Z"/><path class="fh1" d="M1390 1351 L1528 1213 L1542 1213 L1404 1351 Z" /></g><g class="o"><path transform="translate(5,10)" class="S sfh" d="M947 1873 L575 2245 L597 2245 L969 1873 Z"/><path class="fh2" d="M947 1873 L575 2245 L597 2245 L969 1873 Z" /></g><g class="o"><path transform="translate(2,4)" class="S sfh" d="M1242 1482 L831 1893 L879 1893 L1290 1482 Z"/><path class="fh1" d="M1242 1482 L831 1893 L879 1893 L1290 1482 Z" /></g><g class="o"><path transform="translate(5,10)" class="S sfv" d="M1413 1988 L1589 2164 L1589 2190 L1413 2014 Z"/><path class="fv3" d="M1413 1988 L1589 2164 L1589 2190 L1413 2014 Z" /></g><g class="o"><path transform="translate(4,8)" class="S sfv" d="M1280 1098 L1068 886 L1068 916 L1280 1128 Z"/><path class="fv4" d="M1280 1098 L1068 886 L1068 916 L1280 1128 Z" /></g><g class="o"><path transform="translate(3,6)" class="S sfh" d="M2019 1319 L1734 1604 L1750 1604 L2035 1319 Z"/><path class="fh6" d="M2019 1319 L1734 1604 L1750 1604 L2035 1319 Z" /></g><g class="o"><path transform="translate(4,8)" class="S sfh" d="M2024 1272 L1862 1110 L1874 1110 L2036 1272 Z"/><path class="fh2" d="M2024 1272 L1862 1110 L1874 1110 L2036 1272 Z" /></g><g class="o"><path transform="translate(6,12)" class="S ssh" d="M1134 1485 L1230 1581 L1268 1581 L1172 1485 Z"/><path class="sh2" d="M1134 1485 L1230 1581 L1268 1581 L1172 1485 Z" /></g><g class="o"><path transform="translate(2,4)" class="S sfh" d="M1080 1219 L1341 958 L1405 958 L1144 1219 Z"/><path class="fh5" d="M1080 1219 L1341 958 L1405 958 L1144 1219 Z" /></g><g class="o"><path transform="translate(6,12)" class="S sfh" d="M1960 1073 L2073 1186 L2103 1186 L1990 1073 Z"/><path class="fh2" d="M1960 1073 L2073 1186 L2103 1186 L1990 1073 Z" /></g><g class="o"><path transform="translate(2,4)" class="S sfh" d="M967 1015 L583 1399 L593 1399 L977 1015 Z"/><path class="fh4" d="M967 1015 L583 1399 L593 1399 L977 1015 Z" /></g><g class="o"><path transform="translate(8,16)" class="S ssh" d="M1995 1692 L2307 2004 L2321 2004 L2009 1692 Z"/><path class="sh2" d="M1995 1692 L2307 2004 L2321 2004 L2009 1692 Z" /></g><g class="o"><path transform="translate(5,10)" class="S ssh" d="M1659 1498 L1524 1363 L1580 1363 L1715 1498 Z"/><path class="sh1" d="M1659 1498 L1524 1363 L1580 1363 L1715 1498 Z" /></g><g class="o"><path transform="translate(3,6)" class="S sfv" d="M1996 1900 L2554 1342 L2554 1376 L1996 1934 Z"/><path class="fv6" d="M1996 1900 L2554 1342 L2554 1376 L1996 1934 Z" /></g><g class="o"><path transform="translate(5,10)" class="S sfv" d="M1240 1894 L1087 2047 L1087 2055 L1240 1902 Z"/><path class="fv6" d="M1240 1894 L1087 2047 L1087 2055 L1240 1902 Z" /></g><g class="o"><path transform="translate(9,18)" class="S sfv" d="M1756 1442 L1971 1657 L1971 1665 L1756 1450 Z"/><path class="fv5" d="M1756 1442 L1971 1657 L1971 1665 L1756 1450 Z" /></g><g class="o"><path transform="translate(8,16)" class="S ssv" d="M1067 1891 L1223 2047 L1223 2111 L1067 1955 Z"/><path class="sv1" d="M1067 1891 L1223 2047 L1223 2111 L1067 1955 Z" /></g><g class="o"><path transform="translate(5,10)" class="S ssv" d="M1296 1065 L1210 1151 L1210 1167 L1296 1081 Z"/><path class="sv5" d="M1296 1065 L1210 1151 L1210 1167 L1296 1081 Z" /></g><g class="o"><path transform="translate(5,10)" class="S sfh" d="M1831 1081 L2305 607 L2315 607 L1841 1081 Z"/><path class="fh7" d="M1831 1081 L2305 607 L2315 607 L1841 1081 Z" /></g><g class="o"><path transform="translate(8,16)" class="S ssv" d="M1456 1208 L877 629 L877 637 L1456 1216 Z"/><path class="sv6" d="M1456 1208 L877 629 L877 637 L1456 1216 Z" /></g><g class="o"><path transform="translate(7,14)" class="S sfh" d="M1208 1777 L1370 1939 L1384 1939 L1222 1777 Z"/><path class="fh3" d="M1208 1777 L1370 1939 L1384 1939 L1222 1777 Z" /></g><g class="o"><path transform="translate(4,8)" class="S sfh" d="M1250 1256 L1805 701 L1833 701 L1278 1256 Z"/><path class="fh3" d="M1250 1256 L1805 701 L1833 701 L1278 1256 Z" /></g><g class="o"><path transform="translate(7,14)" class="S sfh" d="M1498 1355 L2125 728 L2151 728 L1524 1355 Z"/><path class="fh7" d="M1498 1355 L2125 728 L2151 728 L1524 1355 Z" /></g><g class="o"><path transform="translate(4,8)" class="S sfv" d="M1119 1321 L1048 1392 L1048 1432 L1119 1361 Z"/><path class="fv7" d="M1119 1321 L1048 1392 L1048 1432 L1119 1361 Z" /></g><g class="o"><path transform="translate(9,18)" class="S sfv" d="M1322 1386 L1510 1198 L1510 1246 L1322 1434 Z"/><path class="fv2" d="M1322 1386 L1510 1198 L1510 1246 L1322 1434 Z" /></g><g class="o"><path transform="translate(7,14)" class="S sfh" d="M1386 1716 L708 1038 L718 1038 L1396 1716 Z"/><path class="fh2" d="M1386 1716 L708 1038 L718 1038 L1396 1716 Z" /></g><g class="o"><path transform="translate(8,16)" class="S sfv" d="M1510 1837 L1351 1996 L1351 2010 L1510 1851 Z"/><path class="fv6" d="M1510 1837 L1351 1996 L1351 2010 L1510 1851 Z" /></g><g class="o"><path transform="translate(7,14)" class="S ssv" d="M1626 1444 L2154 1972 L2154 1992 L1626 1464 Z"/><path class="sv6" d="M1626 1444 L2154 1972 L2154 1992 L1626 1464 Z" /></g><g class="o"><path transform="translate(4,8)" class="S ssv" d="M1101 1953 L897 1749 L897 1763 L1101 1967 Z"/><path class="sv5" d="M1101 1953 L897 1749 L897 1763 L1101 1967 Z" /></g><g class="o"><path transform="translate(2,4)" class="S ssh" d="M1791 1972 L1999 1764 L2037 1764 L1829 1972 Z"/><path class="sh4" d="M1791 1972 L1999 1764 L2037 1764 L1829 1972 Z" /></g><g class="o"><path transform="translate(7,14)" class="S sfh" d="M1329 1373 L1127 1171 L1163 1171 L1365 1373 Z"/><path class="fh6" d="M1329 1373 L1127 1171 L1163 1171 L1365 1373 Z" /></g><g class="o"><path transform="translate(7,14)" class="S sfh" d="M1604 1939 L1844 1699 L1866 1699 L1626 1939 Z"/><path class="fh6" d="M1604 1939 L1844 1699 L1866 1699 L1626 1939 Z" /></g><g class="o"><path transform="translate(7,14)" class="S sfv" d="M1327 1709 L1120 1916 L1120 1928 L1327 1721 Z"/><path class="fv3" d="M1327 1709 L1120 1916 L1120 1928 L1327 1721 Z" /></g><g class="o"><path transform="translate(9,18)" class="S sfh" d="M1441 955 L2128 1642 L2156 1642 L1469 955 Z"/><path class="fh6" d="M1441 955 L2128 1642 L2156 1642 L1469 955 Z" /></g><g class="o"><path transform="translate(6,12)" class="S sfv" d="M1131 1472 L960 1301 L960 1327 L1131 1498 Z"/><path class="fv4" d="M1131 1472 L960 1301 L960 1327 L1131 1498 Z" /></g><g class="o"><path transform="translate(6,12)" class="S sfv" d="M2044 1030 L2254 820 L2254 856 L2044 1066 Z"/><path class="fv4" d="M2044 1030 L2254 820 L2254 856 L2044 1066 Z" /></g><g class="o"><path transform="translate(3,6)" class="S ssh" d="M1633 1150 L967 484 L987 484 L1653 1150 Z"/><path class="sh4" d="M1633 1150 L967 484 L987 484 L1653 1150 Z" /></g><g class="o"><path transform="translate(9,18)" class="S ssh" d="M1359 1343 L1716 1700 L1738 1700 L1381 1343 Z"/><path class="sh5" d="M1359 1343 L1716 1700 L1738 1700 L1381 1343 Z" /></g><g class="o"><path transform="translate(4,8)" class="S sfv" d="M1252 1194 L1383 1063 L1383 1091 L1252 1222 Z"/><path class="fv5" d="M1252 1194 L1383 1063 L1383 1091 L1252 1222 Z" /></g><g class="o"><path transform="translate(5,10)" class="S sfh" d="M1461 1506 L2103 864 L2113 864 L1471 1506 Z"/><path class="fh7" d="M1461 1506 L2103 864 L2113 864 L1471 1506 Z" /></g><g class="o"><path transform="translate(3,6)" class="S sfh" d="M1455 1471 L1636 1290 L1670 1290 L1489 1471 Z"/><path class="fh1" d="M1455 1471 L1636 1290 L1670 1290 L1489 1471 Z" /></g><g class="o"><path transform="translate(3,6)" class="S sfh" d="M1968 1703 L1813 1548 L1841 1548 L1996 1703 Z"/><path class="fh6" d="M1968 1703 L1813 1548 L1841 1548 L1996 1703 Z" /></g><g class="o"><path transform="translate(5,10)" class="S sfv" d="M1791 1540 L1617 1366 L1617 1376 L1791 1550 Z"/><path class="fv1" d="M1791 1540 L1617 1366 L1617 1376 L1791 1550 Z" /></g><g class="o"><path transform="translate(8,16)" class="S sfv" d="M1205 1877 L1586 2258 L1586 2268 L1205 1887 Z"/><path class="fv7" d="M1205 1877 L1586 2258 L1586 2268 L1205 1887 Z" /></g><g class="o"><path transform="translate(4,8)" class="S ssh" d="M1012 1682 L700 1370 L734 1370 L1046 1682 Z"/><path class="sh5" d="M1012 1682 L700 1370 L734 1370 L1046 1682 Z" /></g><g class="o"><path transform="translate(5,10)" class="S ssh" d="M1086 1395 L1683 798 L1695 798 L1098 1395 Z"/><path class="sh2" d="M1086 1395 L1683 798 L1695 798 L1098 1395 Z" /></g><g class="o"><path transform="translate(5,10)" class="S sfv" d="M1410 2021 L1609 2220 L1609 2232 L1410 2033 Z"/><path class="fv3" d="M1410 2021 L1609 2220 L1609 2232 L1410 2033 Z" /></g><g class="o"><path transform="translate(4,8)" class="S ssh" d="M1453 1694 L802 2345 L826 2345 L1477 1694 Z"/><path class="sh6" d="M1453 1694 L802 2345 L826 2345 L1477 1694 Z" /></g><g class="o"><path transform="translate(6,12)" class="S sfv" d="M1633 1207 L1869 971 L1869 999 L1633 1235 Z"/><path class="fv5" d="M1633 1207 L1869 971 L1869 999 L1633 1235 Z" /></g><g class="o"><path transform="translate(3,6)" class="S sfh" d="M1197 1259 L1488 968 L1576 968 L1285 1259 Z"/><path class="fh1" d="M1197 1259 L1488 968 L1576 968 L1285 1259 Z" /></g><g class="o"><path transform="translate(3,6)" class="S sfh" d="M2022 2023 L1863 1864 L1897 1864 L2056 2023 Z"/><path class="fh3" d="M2022 2023 L1863 1864 L1897 1864 L2056 2023 Z" /></g><g class="o"><path transform="translate(7,14)" class="S sfh" d="M1054 1610 L1288 1376 L1308 1376 L1074 1610 Z"/><path class="fh2" d="M1054 1610 L1288 1376 L1308 1376 L1074 1610 Z" /></g><g class="o"><path transform="translate(8,16)" class="S sfv" d="M1699 1029 L1417 1311 L1417 1329 L1699 1047 Z"/><path class="fv7" d="M1699 1029 L1417 1311 L1417 1329 L1699 1047 Z" /></g><g class="o"><path transform="translate(9,18)" class="S ssv" d="M1522 1183 L1350 1011 L1350 1043 L1522 1215 Z"/><path class="sv4" d="M1522 1183 L1350 1011 L1350 1043 L1522 1215 Z" /></g><g class="o"><path transform="translate(9,18)" class="S sfh" d="M1129 1184 L1369 1424 L1389 1424 L1149 1184 Z"/><path class="fh3" d="M1129 1184 L1369 1424 L1389 1424 L1149 1184 Z" /></g><g class="o"><path transform="translate(4,8)" class="S ssh" d="M1706 1169 L1491 954 L1511 954 L1726 1169 Z"/><path class="sh2" d="M1706 1169 L1491 954 L1511 954 L1726 1169 Z" /></g><g class="o"><path transform="translate(5,10)" class="S ssv" d="M1857 1211 L1167 521 L1167 543 L1857 1233 Z"/><path class="sv3" d="M1857 1211 L1167 521 L1167 543 L1857 1233 Z" /></g><g class="o"><path transform="translate(8,16)" class="S ssh" d="M1359 1819 L1068 2110 L1104 2110 L1395 1819 Z"/><path class="sh1" d="M1359 1819 L1068 2110 L1104 2110 L1395 1819 Z" /></g><g class="o"><path transform="translate(6,12)" class="S sfh" d="M1434 1846 L1577 1989 L1609 1989 L1466 1846 Z"/><path class="fh1" d="M1434 1846 L1577 1989 L1609 1989 L1466 1846 Z" /></g><g class="o"><path transform="translate(6,12)" class="S ssh" d="M1321 1926 L1477 1770 L1511 1770 L1355 1926 Z"/><path class="sh3" d="M1321 1926 L1477 1770 L1511 1770 L1355 1926 Z" /></g><g class="o"><path transform="translate(4,8)" class="S ssv" d="M1829 1735 L2075 1489 L2075 1525 L1829 1771 Z"/><path class="sv1" d="M1829 1735 L2075 1489 L2075 1525 L1829 1771 Z" /></g><g class="o"><path transform="translate(7,14)" class="S sfh" d="M1388 1154 L1616 1382 L1744 1382 L1516 1154 Z"/><path class="fh2" d="M1388 1154 L1616 1382 L1744 1382 L1516 1154 Z" /></g><g class="o"><path transform="translate(5,10)" class="S sfh" d="M1223 2026 L1062 1865 L1092 1865 L1253 2026 Z"/><path class="fh2" d="M1223 2026 L1062 1865 L1092 1865 L1253 2026 Z" /></g><g class="o"><path transform="translate(9,18)" class="S sfh" d="M1859 1229 L2282 1652 L2292 1652 L1869 1229 Z"/><path class="fh4" d="M1859 1229 L2282 1652 L2292 1652 L1869 1229 Z" /></g><g class="o"><path transform="translate(7,14)" class="S sfv" d="M1752 1823 L1673 1744 L1673 1774 L1752 1853 Z"/><path class="fv1" d="M1752 1823 L1673 1744 L1673 1774 L1752 1853 Z" /></g><g class="o"><path transform="translate(2,4)" class="S sfv" d="M1399 1227 L1195 1023 L1195 1041 L1399 1245 Z"/><path class="fv3" d="M1399 1227 L1195 1023 L1195 1041 L1399 1245 Z" /></g><g class="o"><path transform="translate(5,10)" class="S ssh" d="M1344 1731 L1447 1834 L1457 1834 L1354 1731 Z"/><path class="sh3" d="M1344 1731 L1447 1834 L1457 1834 L1354 1731 Z" /></g><g class="o"><path transform="translate(4,8)" class="S sfh" d="M1089 1260 L1148 1201 L1166 1201 L1107 1260 Z"/><path class="fh5" d="M1089 1260 L1148 1201 L1166 1201 L1107 1260 Z" /></g><g class="o"><path transform="translate(6,12)" class="S sfv" d="M1095 1508 L630 1043 L630 1065 L1095 1530 Z"/><path class="fv3" d="M1095 1508 L630 1043 L630 1065 L1095 1530 Z" /></g><g class="o"><path transform="translate(3,6)" class="S sfh" d="M1426 1723 L1293 1590 L1327 1590 L1460 1723 Z"/><path class="fh2" d="M1426 1723 L1293 1590 L1327 1590 L1460 1723 Z" /></g><g class="o"><path transform="translate(4,8)" class="S sfv" d="M1766 955 L2081 640 L2081 670 L1766 985 Z"/><path class="fv7" d="M1766 955 L2081 640 L2081 670 L1766 985 Z" /></g></g><use href="#slashes" transform-origin="1500 1500" transform="rotate(180) scale(2)"/></g><circle cx="1500" cy="1500" r="450" stroke-width="20" class="o s7" /><use href="#slashes" transform-origin="1500 1500" transform="scale(.9)"/><use href="#slashes" transform-origin="1500 1500" transform="rotate(180) scale(.9)"/></svg>