<svg xmlns="http://www.w3.org/2000/svg" viewBox="750 750 1500 1500"><style>/*<![CDATA[*/svg{background:rgb(201,173,167);max-width:100vw;max-height:100vh}path{stroke-width:4}.o{opacity:.75}.S{opacity:.4}.sf{stroke:none;fill:black}.sfh{stroke:none;fill:url(#hs)}.sfv{stroke:none;fill:url(#vs)}.ss{stroke:black;fill:none}.ssh{stroke:url(#hs);fill:none}.ssv{stroke:url(#vs);fill:none}.s1{fill:none;stroke:rgb(154,140,152)}.f1{stroke:none;fill:rgb(154,140,152)}.sh1{fill:none;stroke:url(#h1)}.fh1{stroke:none;fill:url(#h1)}.sv1{fill:none;stroke:url(#v1)}.fv1{stroke:none;fill:url(#v1)}.s2{fill:none;stroke:rgb(34,34,34)}.f2{stroke:none;fill:rgb(34,34,34)}.sh2{fill:none;stroke:url(#h2)}.fh2{stroke:none;fill:url(#h2)}.sv2{fill:none;stroke:url(#v2)}.fv2{stroke:none;fill:url(#v2)}.s3{fill:none;stroke:rgb(34,34,59)}.f3{stroke:none;fill:rgb(34,34,59)}.sh3{fill:none;stroke:url(#h3)}.fh3{stroke:none;fill:url(#h3)}.sv3{fill:none;stroke:url(#v3)}.fv3{stroke:none;fill:url(#v3)}.s4{fill:none;stroke:rgb(74,78,105)}.f4{stroke:none;fill:rgb(74,78,105)}.sh4{fill:none;stroke:url(#h4)}.fh4{stroke:none;fill:url(#h4)}.sv4{fill:none;stroke:url(#v4)}.fv4{stroke:none;fill:url(#v4)}.s5{fill:none;stroke:rgb(242,233,228)}.f5{stroke:none;fill:rgb(242,233,228)}.sh5{fill:none;stroke:url(#h5)}.fh5{stroke:none;fill:url(#h5)}.sv5{fill:none;stroke:url(#v5)}.fv5{stroke:none;fill:url(#v5)}.s6{fill:none;stroke:rgb(255,255,255)}.f6{stroke:none;fill:rgb(255,255,255)}.sh6{fill:none;stroke:url(#h6)}.fh6{stroke:none;fill:url(#h6)}.sv6{fill:none;stroke:url(#v6)}.fv6{stroke:none;fill:url(#v6)}.s7{fill:none;stroke:rgb(255,255,0)}.f7{stroke:none;fill:rgb(255,255,0)}.sh7{fill:none;stroke:url(#h7)}.fh7{stroke:none;fill:url(#h7)}.sv7{fill:none;stroke:url(#v7)}.fv7{stroke:none;fill:url(#v7)}/*]]>*/</style><defs><linearGradient gradientTransform="rotate(90)" id="hs"><stop offset="20%" stop-color="#000" /><stop offset="95%" stop-color="rgba(0, 0, 0, 0)" /></linearGradient><linearGradient id="vs"><stop offset="20%" stop-color="#000" /><stop offset="95%" stop-color="rgba(0, 0, 0, 0)" /></linearGradient><linearGradient gradientTransform="rotate(90)" id="h1"><stop offset="20%" stop-color="rgba(154,140,152,1)" /><stop offset="95%" stop-color="rgba(154,140,152,0)" /></linearGradient><linearGradient id="v1"><stop offset="20%" stop-color="rgba(154,140,152,1)" /><stop offset="95%" stop-color="rgba(154,140,152,0)" /></linearGradient><linearGradient gradientTransform="rotate(90)" id="h2"><stop offset="20%" stop-color="rgba(34,34,34,1)" /><stop offset="95%" stop-color="rgba(34,34,34,0)" /></linearGradient><linearGradient id="v2"><stop offset="20%" stop-color="rgba(34,34,34,1)" /><stop offset="95%" stop-color="rgba(34,34,34,0)" /></linearGradient><linearGradient gradientTransform="rotate(90)" id="h3"><stop offset="20%" stop-color="rgba(34,34,59,1)" /><stop offset="95%" stop-color="rgba(34,34,59,0)" /></linearGradient><linearGradient id="v3"><stop offset="20%" stop-color="rgba(34,34,59,1)" /><stop offset="95%" stop-color="rgba(34,34,59,0)" /></linearGradient><linearGradient gradientTransform="rotate(90)" id="h4"><stop offset="20%" stop-color="rgba(74,78,105,1)" /><stop offset="95%" stop-color="rgba(74,78,105,0)" /></linearGradient><linearGradient id="v4"><stop offset="20%" stop-color="rgba(74,78,105,1)" /><stop offset="95%" stop-color="rgba(74,78,105,0)" /></linearGradient><linearGradient gradientTransform="rotate(90)" id="h5"><stop offset="20%" stop-color="rgba(242,233,228,1)" /><stop offset="95%" stop-color="rgba(242,233,228,0)" /></linearGradient><linearGradient id="v5"><stop offset="20%" stop-color="rgba(242,233,228,1)" /><stop offset="95%" stop-color="rgba(242,233,228,0)" /></linearGradient><linearGradient gradientTransform="rotate(90)" id="h6"><stop offset="20%" stop-color="rgba(255,255,255,1)" /><stop offset="95%" stop-color="rgba(255,255,255,0)" /></linearGradient><linearGradient id="v6"><stop offset="20%" stop-color="rgba(255,255,255,1)" /><stop offset="95%" stop-color="rgba(255,255,255,0)" /></linearGradient><linearGradient gradientTransform="rotate(90)" id="h7"><stop offset="20%" stop-color="rgba(255,255,0,1)" /><stop offset="95%" stop-color="rgba(255,255,0,0)" /></linearGradient><linearGradient id="v7"><stop offset="20%" stop-color="rgba(255,255,0,1)" /><stop offset="95%" stop-color="rgba(255,255,0,0)" /></linearGradient></defs><g transform-origin="1500 1500" transform="scale(2)" opacity=".6"><g id="slashes"><g class="o"><path transform="translate(9,18)" class="S sfv" d="M1739 956 L1958 1175 L1958 1239 L1739 1020 Z"/><path class="fv4" d="M1739 956 L1958 1175 L1958 1239 L1739 1020 Z" /></g><g class="o"><path transform="translate(4,8)" class="S sfh" d="M1093 1637 L875 1855 L901 1855 L1119 1637 Z"/><path class="fh2" d="M1093 1637 L875 1855 L901 1855 L1119 1637 Z" /></g><g class="o"><path transform="translate(9,18)" class="S sf" d="M1136 1547 L1330 1741 L1466 1741 L1272 1547 Z"/><path class="f7" d="M1136 1547 L1330 1741 L1466 1741 L1272 1547 Z" /></g><g class="o"><path transform="translate(6,12)" class="S sfh" d="M1527 989 L1649 1111 L1687 1111 L1565 989 Z"/><path class="fh3" d="M1527 989 L1649 1111 L1687 1111 L1565 989 Z" /></g><g class="o"><path transform="translate(6,12)" class="S ssv" d="M1889 1538 L1984 1633 L1984 1659 L1889 1564 Z"/><path class="sv6" d="M1889 1538 L1984 1633 L1984 1659 L1889 1564 Z" /></g><g class="o"><path transform="translate(5,10)" class="S sfh" d="M1658 1595 L1409 1844 L1497 1844 L1746 1595 Z"/><path class="fh5" d="M1658 1595 L1409 1844 L1497 1844 L1746 1595 Z" /></g><g class="o"><path transform="translate(9,18)" class="S sf" d="M1574 1065 L1385 1254 L1449 1254 L1638 1065 Z"/><path class="f7" d="M1574 1065 L1385 1254 L1449 1254 L1638 1065 Z" /></g><g class="o"><path transform="translate(9,18)" class="S ssh" d="M1100 1613 L1252 1461 L1308 1461 L1156 1613 Z"/><path class="sh1" d="M1100 1613 L1252 1461 L1308 1461 L1156 1613 Z" /></g><g class="o"><path transform="translate(6,12)" class="S sf" d="M1185 1374 L1290 1269 L1434 1269 L1329 1374 Z"/><path class="f4" d="M1185 1374 L1290 1269 L1434 1269 L1329 1374 Z" /></g><g class="o"><path transform="translate(4,8)" class="S sfv" d="M1603 1811 L1712 1702 L1712 1714 L1603 1823 Z"/><path class="fv2" d="M1603 1811 L1712 1702 L1712 1714 L1603 1823 Z" /></g><g class="o"><path transform="translate(6,12)" class="S sfv" d="M1430 1726 L1558 1854 L1558 1888 L1430 1760 Z"/><path class="fv1" d="M1430 1726 L1558 1854 L1558 1888 L1430 1760 Z" /></g><g class="o"><path transform="translate(6,12)" class="S ssh" d="M1171 1942 L1018 2095 L1028 2095 L1181 1942 Z"/><path class="sh3" d="M1171 1942 L1018 2095 L1028 2095 L1181 1942 Z" /></g><g class="o"><path transform="translate(3,6)" class="S ssv" d="M1639 964 L1866 737 L1866 809 L1639 1036 Z"/><path class="sv4" d="M1639 964 L1866 737 L1866 809 L1639 1036 Z" /></g><g class="o"><path transform="translate(8,16)" class="S ssv" d="M1232 1672 L1056 1848 L1056 1960 L1232 1784 Z"/><path class="sv1" d="M1232 1672 L1056 1848 L1056 1960 L1232 1784 Z" /></g><g class="o"><path transform="translate(9,18)" class="S sfv" d="M1640 1507 L1768 1635 L1768 1787 L1640 1659 Z"/><path class="fv4" d="M1640 1507 L1768 1635 L1768 1787 L1640 1659 Z" /></g><g class="o"><path transform="translate(5,10)" class="S sfv" d="M1439 1598 L1634 1793 L1634 1849 L1439 1654 Z"/><path class="fv1" d="M1439 1598 L1634 1793 L1634 1849 L1439 1654 Z" /></g><g class="o"><path transform="translate(8,16)" class="S sf" d="M1400 1874 L1638 1636 L1670 1636 L1432 1874 Z"/><path class="f1" d="M1400 1874 L1638 1636 L1670 1636 L1432 1874 Z" /></g><g class="o"><path transform="translate(7,14)" class="S sfv" d="M1423 1709 L1528 1814 L1528 1870 L1423 1765 Z"/><path class="fv2" d="M1423 1709 L1528 1814 L1528 1870 L1423 1765 Z" /></g><g class="o"><path transform="translate(8,16)" class="S sfv" d="M1086 1526 L1304 1308 L1304 1342 L1086 1560 Z"/><path class="fv4" d="M1086 1526 L1304 1308 L1304 1342 L1086 1560 Z" /></g><g class="o"><path transform="translate(4,8)" class="S sfh" d="M1440 1341 L1677 1104 L1829 1104 L1592 1341 Z"/><path class="fh4" d="M1440 1341 L1677 1104 L1829 1104 L1592 1341 Z" /></g><g class="o"><path transform="translate(3,6)" class="S sfh" d="M1184 1233 L1336 1081 L1416 1081 L1264 1233 Z"/><path class="fh7" d="M1184 1233 L1336 1081 L1416 1081 L1264 1233 Z" /></g><g class="o"><path transform="translate(7,14)" class="S sfh" d="M1609 1288 L1698 1377 L1778 1377 L1689 1288 Z"/><path class="fh5" d="M1609 1288 L1698 1377 L1778 1377 L1689 1288 Z" /></g><g class="o"><path transform="translate(7,14)" class="S sfh" d="M1404 2046 L1534 1916 L1542 1916 L1412 2046 Z"/><path class="fh5" d="M1404 2046 L1534 1916 L1542 1916 L1412 2046 Z" /></g><g class="o"><path transform="translate(2,4)" class="S sfh" d="M1569 1285 L1699 1415 L1803 1415 L1673 1285 Z"/><path class="fh3" d="M1569 1285 L1699 1415 L1803 1415 L1673 1285 Z" /></g><g class="o"><path transform="translate(7,14)" class="S sfv" d="M1191 1435 L1305 1321 L1305 1385 L1191 1499 Z"/><path class="fv1" d="M1191 1435 L1305 1321 L1305 1385 L1191 1499 Z" /></g><g class="o"><path transform="translate(4,8)" class="S sf" d="M1027 1650 L920 1757 L1024 1757 L1131 1650 Z"/><path class="f4" d="M1027 1650 L920 1757 L1024 1757 L1131 1650 Z" /></g><g class="o"><path transform="translate(4,8)" class="S sfh" d="M1428 1010 L1569 869 L1633 869 L1492 1010 Z"/><path class="fh2" d="M1428 1010 L1569 869 L1633 869 L1492 1010 Z" /></g><g class="o"><path transform="translate(9,18)" class="S ssv" d="M1912 1616 L1976 1680 L1976 1824 L1912 1760 Z"/><path class="sv1" d="M1912 1616 L1976 1680 L1976 1824 L1912 1760 Z" /></g><g class="o"><path transform="translate(8,16)" class="S sfv" d="M1554 1352 L1641 1265 L1641 1293 L1554 1380 Z"/><path class="fv5" d="M1554 1352 L1641 1265 L1641 1293 L1554 1380 Z" /></g><g class="o"><path transform="translate(6,12)" class="S sfh" d="M1743 1637 L1978 1402 L2002 1402 L1767 1637 Z"/><path class="fh1" d="M1743 1637 L1978 1402 L2002 1402 L1767 1637 Z" /></g><g class="o"><path transform="translate(2,4)" class="S ssh" d="M1100 1620 L1253 1773 L1293 1773 L1140 1620 Z"/><path class="sh3" d="M1100 1620 L1253 1773 L1293 1773 L1140 1620 Z" /></g><g class="o"><path transform="translate(6,12)" class="S ssv" d="M1169 1530 L1328 1689 L1328 1793 L1169 1634 Z"/><path class="sv6" d="M1169 1530 L1328 1689 L1328 1793 L1169 1634 Z" /></g><g class="o"><path transform="translate(5,10)" class="S sfv" d="M2003 1096 L2109 1202 L2109 1338 L2003 1232 Z"/><path class="fv5" d="M2003 1096 L2109 1202 L2109 1338 L2003 1232 Z" /></g><g class="o"><path transform="translate(8,16)" class="S sfh" d="M1910 1384 L2068 1226 L2156 1226 L1998 1384 Z"/><path class="fh4" d="M1910 1384 L2068 1226 L2156 1226 L1998 1384 Z" /></g><g class="o"><path transform="translate(8,16)" class="S ssv" d="M2008 1332 L2180 1160 L2180 1216 L2008 1388 Z"/><path class="sv3" d="M2008 1332 L2180 1160 L2180 1216 L2008 1388 Z" /></g><g class="o"><path transform="translate(7,14)" class="S ssh" d="M1174 1948 L943 1717 L1015 1717 L1246 1948 Z"/><path class="sh5" d="M1174 1948 L943 1717 L1015 1717 L1246 1948 Z" /></g><g class="o"><path transform="translate(8,16)" class="S sfv" d="M1109 1349 L954 1194 L954 1250 L1109 1405 Z"/><path class="fv4" d="M1109 1349 L954 1194 L954 1250 L1109 1405 Z" /></g><g class="o"><path transform="translate(4,8)" class="S ss" d="M1695 1235 L1881 1049 L1881 1153 L1695 1339 Z"/><path class="s1" d="M1695 1235 L1881 1049 L1881 1153 L1695 1339 Z" /></g><g class="o"><path transform="translate(3,6)" class="S sfh" d="M1950 1176 L2177 949 L2313 949 L2086 1176 Z"/><path class="fh7" d="M1950 1176 L2177 949 L2313 949 L2086 1176 Z" /></g><g class="o"><path transform="translate(9,18)" class="S sfv" d="M1957 1553 L2061 1449 L2061 1481 L1957 1585 Z"/><path class="fv5" d="M1957 1553 L2061 1449 L2061 1481 L1957 1585 Z" /></g><g class="o"><path transform="translate(2,4)" class="S sf" d="M1042 1631 L1161 1512 L1161 1546 L1042 1665 Z"/><path class="f4" d="M1042 1631 L1161 1512 L1161 1546 L1042 1665 Z" /></g><g class="o"><path transform="translate(9,18)" class="S sf" d="M1865 1787 L1972 1680 L1972 1800 L1865 1907 Z"/><path class="f5" d="M1865 1787 L1972 1680 L1972 1800 L1865 1907 Z" /></g><g class="o"><path transform="translate(7,14)" class="S sfh" d="M1200 966 L1258 908 L1294 908 L1236 966 Z"/><path class="fh4" d="M1200 966 L1258 908 L1294 908 L1236 966 Z" /></g><g class="o"><path transform="translate(8,16)" class="S ssv" d="M1665 1930 L1718 1983 L1718 2015 L1665 1962 Z"/><path class="sv7" d="M1665 1930 L1718 1983 L1718 2015 L1665 1962 Z" /></g><g class="o"><path transform="translate(4,8)" class="S sfh" d="M1759 1944 L1871 2056 L1881 2056 L1769 1944 Z"/><path class="fh5" d="M1759 1944 L1871 2056 L1881 2056 L1769 1944 Z" /></g><g class="o"><path transform="translate(7,14)" class="S ssv" d="M1395 960 L1563 792 L1563 810 L1395 978 Z"/><path class="sv4" d="M1395 960 L1563 792 L1563 810 L1395 978 Z" /></g><g class="o"><path transform="translate(6,12)" class="S sfv" d="M1403 1938 L1466 2001 L1466 2041 L1403 1978 Z"/><path class="fv6" d="M1403 1938 L1466 2001 L1466 2041 L1403 1978 Z" /></g><g class="o"><path transform="translate(6,12)" class="S sfh" d="M1884 2013 L2036 2165 L2140 2165 L1988 2013 Z"/><path class="fh5" d="M1884 2013 L2036 2165 L2140 2165 L1988 2013 Z" /></g><g class="o"><path transform="translate(6,12)" class="S sfh" d="M1791 2006 L2012 1785 L2140 1785 L1919 2006 Z"/><path class="fh7" d="M1791 2006 L2012 1785 L2140 1785 L1919 2006 Z" /></g><g class="o"><path transform="translate(7,14)" class="S sfv" d="M1165 1854 L1319 2008 L1319 2064 L1165 1910 Z"/><path class="fv4" d="M1165 1854 L1319 2008 L1319 2064 L1165 1910 Z" /></g><g class="o"><path transform="translate(9,18)" class="S sfv" d="M1757 1842 L1613 1986 L1613 2034 L1757 1890 Z"/><path class="fv4" d="M1757 1842 L1613 1986 L1613 2034 L1757 1890 Z" /></g><g class="o"><path transform="translate(5,10)" class="S ssv" d="M1783 1473 L1929 1327 L1929 1343 L1783 1489 Z"/><path class="sv6" d="M1783 1473 L1929 1327 L1929 1343 L1783 1489 Z" /></g><g class="o"><path transform="translate(9,18)" class="S ssv" d="M1964 1694 L2160 1498 L2160 1578 L1964 1774 Z"/><path class="sv5" d="M1964 1694 L2160 1498 L2160 1578 L1964 1774 Z" /></g><g class="o"><path transform="translate(8,16)" class="S ssv" d="M1323 1196 L1375 1248 L1375 1312 L1323 1260 Z"/><path class="sv5" d="M1323 1196 L1375 1248 L1375 1312 L1323 1260 Z" /></g><g class="o"><path transform="translate(4,8)" class="S ssv" d="M1275 973 L1519 1217 L1519 1361 L1275 1117 Z"/><path class="sv4" d="M1275 973 L1519 1217 L1519 1361 L1275 1117 Z" /></g><g class="o"><path transform="translate(9,18)" class="S sfh" d="M1754 992 L1977 769 L2097 769 L1874 992 Z"/><path class="fh5" d="M1754 992 L1977 769 L2097 769 L1874 992 Z" /></g><g class="o"><path transform="translate(4,8)" class="S sfv" d="M1731 1018 L1492 1257 L1492 1385 L1731 1146 Z"/><path class="fv5" d="M1731 1018 L1492 1257 L1492 1385 L1731 1146 Z" /></g><g class="o"><path transform="translate(4,8)" class="S ssh" d="M1175 1550 L1303 1678 L1351 1678 L1223 1550 Z"/><path class="sh2" d="M1175 1550 L1303 1678 L1351 1678 L1223 1550 Z" /></g><g class="o"><path transform="translate(5,10)" class="S ssv" d="M1684 892 L1777 799 L1777 919 L1684 1012 Z"/><path class="sv4" d="M1684 892 L1777 799 L1777 919 L1684 1012 Z" /></g><g class="o"><path transform="translate(6,12)" class="S sfv" d="M1504 1592 L1575 1521 L1575 1537 L1504 1608 Z"/><path class="fv3" d="M1504 1592 L1575 1521 L1575 1537 L1504 1608 Z" /></g><g class="o"><path transform="translate(2,4)" class="S ssh" d="M1913 1768 L2098 1953 L2154 1953 L1969 1768 Z"/><path class="sh4" d="M1913 1768 L2098 1953 L2154 1953 L1969 1768 Z" /></g><g class="o"><path transform="translate(4,8)" class="S sfv" d="M1790 1819 L1615 1644 L1615 1756 L1790 1931 Z"/><path class="fv1" d="M1790 1819 L1615 1644 L1615 1756 L1790 1931 Z" /></g><g class="o"><path transform="translate(3,6)" class="S sf" d="M1859 1216 L1938 1295 L1938 1311 L1859 1232 Z"/><path class="f5" d="M1859 1216 L1938 1295 L1938 1311 L1859 1232 Z" /></g><g class="o"><path transform="translate(5,10)" class="S sfv" d="M1279 1348 L1489 1558 L1489 1598 L1279 1388 Z"/><path class="fv6" d="M1279 1348 L1489 1558 L1489 1598 L1279 1388 Z" /></g><g class="o"><path transform="translate(6,12)" class="S sfh" d="M1218 1788 L1386 1620 L1514 1620 L1346 1788 Z"/><path class="fh3" d="M1218 1788 L1386 1620 L1514 1620 L1346 1788 Z" /></g><g class="o"><path transform="translate(6,12)" class="S sf" d="M1423 1818 L1194 1589 L1194 1609 L1423 1838 Z"/><path class="f1" d="M1423 1818 L1194 1589 L1194 1609 L1423 1838 Z" /></g><g class="o"><path transform="translate(2,4)" class="S ssh" d="M1604 1478 L1808 1682 L1936 1682 L1732 1478 Z"/><path class="sh7" d="M1604 1478 L1808 1682 L1936 1682 L1732 1478 Z" /></g><g class="o"><path transform="translate(6,12)" class="S sfv" d="M1716 1271 L1851 1406 L1851 1436 L1716 1301 Z"/><path class="fv4" d="M1716 1271 L1851 1406 L1851 1436 L1716 1301 Z" /></g><g class="o"><path transform="translate(8,16)" class="S sf" d="M1086 1091 L1164 1169 L1292 1169 L1214 1091 Z"/><path class="f7" d="M1086 1091 L1164 1169 L1292 1169 L1214 1091 Z" /></g><g class="o"><path transform="translate(3,6)" class="S ssh" d="M1741 1146 L1896 991 L2048 991 L1893 1146 Z"/><path class="sh5" d="M1741 1146 L1896 991 L2048 991 L1893 1146 Z" /></g><g class="o"><path transform="translate(5,10)" class="S sf" d="M974 1088 L1045 1159 L1045 1215 L974 1144 Z"/><path class="f2" d="M974 1088 L1045 1159 L1045 1215 L974 1144 Z" /></g><g class="o"><path transform="translate(9,18)" class="S ss" d="M1665 1667 L1787 1789 L1787 1825 L1665 1703 Z"/><path class="s2" d="M1665 1667 L1787 1789 L1787 1825 L1665 1703 Z" /></g><g class="o"><path transform="translate(5,10)" class="S sfh" d="M1825 1450 L1960 1585 L2000 1585 L1865 1450 Z"/><path class="fh4" d="M1825 1450 L1960 1585 L2000 1585 L1865 1450 Z" /></g><g class="o"><path transform="translate(9,18)" class="S sfv" d="M1426 1605 L1644 1387 L1644 1483 L1426 1701 Z"/><path class="fv2" d="M1426 1605 L1644 1387 L1644 1483 L1426 1701 Z" /></g><g class="o"><path transform="translate(4,8)" class="S sfv" d="M1162 1953 L1232 2023 L1232 2103 L1162 2033 Z"/><path class="fv2" d="M1162 1953 L1232 2023 L1232 2103 L1162 2033 Z" /></g><g class="o"><path transform="translate(9,18)" class="S sfv" d="M1924 1625 L2072 1773 L2072 1791 L1924 1643 Z"/><path class="fv6" d="M1924 1625 L2072 1773 L2072 1791 L1924 1643 Z" /></g><g class="o"><path transform="translate(3,6)" class="S ssh" d="M1650 1177 L1578 1105 L1594 1105 L1666 1177 Z"/><path class="sh4" d="M1650 1177 L1578 1105 L1594 1105 L1666 1177 Z" /></g><g class="o"><path transform="translate(9,18)" class="S sfh" d="M1853 1970 L2095 1728 L2239 1728 L1997 1970 Z"/><path class="fh7" d="M1853 1970 L2095 1728 L2239 1728 L1997 1970 Z" /></g><g class="o"><path transform="translate(7,14)" class="S sf" d="M1138 1642 L1240 1540 L1360 1540 L1258 1642 Z"/><path class="f6" d="M1138 1642 L1240 1540 L1360 1540 L1258 1642 Z" /></g><g class="o"><path transform="translate(7,14)" class="S sfh" d="M1632 1345 L1732 1445 L1772 1445 L1672 1345 Z"/><path class="fh2" d="M1632 1345 L1732 1445 L1772 1445 L1672 1345 Z" /></g><g class="o"><path transform="translate(8,16)" class="S sf" d="M1425 1250 L1592 1083 L1592 1155 L1425 1322 Z"/><path class="f3" d="M1425 1250 L1592 1083 L1592 1155 L1425 1322 Z" /></g><g class="o"><path transform="translate(8,16)" class="S ssv" d="M1221 948 L1151 878 L1151 1030 L1221 1100 Z"/><path class="sv7" d="M1221 948 L1151 878 L1151 1030 L1221 1100 Z" /></g><g class="o"><path transform="translate(7,14)" class="S ssv" d="M1628 1131 L1708 1051 L1708 1099 L1628 1179 Z"/><path class="sv3" d="M1628 1131 L1708 1051 L1708 1099 L1628 1179 Z" /></g><g class="o"><path transform="translate(9,18)" class="S sfh" d="M1593 1446 L1770 1623 L1834 1623 L1657 1446 Z"/><path class="fh5" d="M1593 1446 L1770 1623 L1834 1623 L1657 1446 Z" /></g><g class="o"><path transform="translate(2,4)" class="S sfv" d="M1655 1047 L1848 854 L1848 892 L1655 1085 Z"/><path class="fv6" d="M1655 1047 L1848 854 L1848 892 L1655 1085 Z" /></g><g class="o"><path transform="translate(9,18)" class="S sfh" d="M1704 1249 L1941 1012 L2045 1012 L1808 1249 Z"/><path class="fh4" d="M1704 1249 L1941 1012 L2045 1012 L1808 1249 Z" /></g><g class="o"><path transform="translate(8,16)" class="S ssh" d="M1879 1762 L2127 2010 L2183 2010 L1935 1762 Z"/><path class="sh5" d="M1879 1762 L2127 2010 L2183 2010 L1935 1762 Z" /></g><g class="o"><path transform="translate(7,14)" class="S sfh" d="M1818 1133 L1898 1213 L1906 1213 L1826 1133 Z"/><path class="fh1" d="M1818 1133 L1898 1213 L1906 1213 L1826 1133 Z" /></g><g class="o"><path transform="translate(6,12)" class="S sf" d="M1051 1881 L1205 1727 L1205 1855 L1051 2009 Z"/><path class="f2" d="M1051 1881 L1205 1727 L1205 1855 L1051 2009 Z" /></g><g class="o"><path transform="translate(8,16)" class="S sf" d="M988 1909 L1202 1695 L1202 1713 L988 1927 Z"/><path class="f3" d="M988 1909 L1202 1695 L1202 1713 L988 1927 Z" /></g><g class="o"><path transform="translate(6,12)" class="S sfv" d="M1611 1527 L1550 1466 L1550 1498 L1611 1559 Z"/><path class="fv3" d="M1611 1527 L1550 1466 L1550 1498 L1611 1559 Z" /></g><g class="o"><path transform="translate(5,10)" class="S sfv" d="M1655 951 L1858 748 L1858 784 L1655 987 Z"/><path class="fv5" d="M1655 951 L1858 748 L1858 784 L1655 987 Z" /></g><g class="o"><path transform="translate(6,12)" class="S sfh" d="M1775 1467 L1907 1335 L1963 1335 L1831 1467 Z"/><path class="fh6" d="M1775 1467 L1907 1335 L1963 1335 L1831 1467 Z" /></g><g class="o"><path transform="translate(7,14)" class="S ssv" d="M1144 1879 L1253 1770 L1253 1806 L1144 1915 Z"/><path class="sv5" d="M1144 1879 L1253 1770 L1253 1806 L1144 1915 Z" /></g><g class="o"><path transform="translate(5,10)" class="S ss" d="M1483 1755 L1610 1882 L1746 1882 L1619 1755 Z"/><path class="s3" d="M1483 1755 L1610 1882 L1746 1882 L1619 1755 Z" /></g><g class="o"><path transform="translate(3,6)" class="S sfh" d="M1074 1797 L1234 1637 L1282 1637 L1122 1797 Z"/><path class="fh4" d="M1074 1797 L1234 1637 L1282 1637 L1122 1797 Z" /></g><g class="o"><path transform="translate(9,18)" class="S sfv" d="M1793 1593 L1960 1760 L1960 1784 L1793 1617 Z"/><path class="fv3" d="M1793 1593 L1960 1760 L1960 1784 L1793 1617 Z" /></g><g class="o"><path transform="translate(2,4)" class="S ssh" d="M1280 1376 L1375 1471 L1495 1471 L1400 1376 Z"/><path class="sh4" d="M1280 1376 L1375 1471 L1495 1471 L1400 1376 Z" /></g><g class="o"><path transform="translate(6,12)" class="S sfh" d="M1180 1800 L1412 2032 L1476 2032 L1244 1800 Z"/><path class="fh4" d="M1180 1800 L1412 2032 L1476 2032 L1244 1800 Z" /></g><g class="o"><path transform="translate(2,4)" class="S sfv" d="M1960 1720 L1817 1863 L1817 1959 L1960 1816 Z"/><path class="fv4" d="M1960 1720 L1817 1863 L1817 1959 L1960 1816 Z" /></g><g class="o"><path transform="translate(2,4)" class="S ssh" d="M1320 1682 L1262 1624 L1326 1624 L1384 1682 Z"/><path class="sh4" d="M1320 1682 L1262 1624 L1326 1624 L1384 1682 Z" /></g><g class="o"><path transform="translate(7,14)" class="S sfh" d="M1971 1266 L1853 1148 L1917 1148 L2035 1266 Z"/><path class="fh2" d="M1971 1266 L1853 1148 L1917 1148 L2035 1266 Z" /></g><g class="o"><path transform="translate(2,4)" class="S sf" d="M1250 1880 L1493 2123 L1493 2171 L1250 1928 Z"/><path class="f1" d="M1250 1880 L1493 2123 L1493 2171 L1250 1928 Z" /></g><g class="o"><path transform="translate(8,16)" class="S sf" d="M1094 1568 L945 1717 L975 1717 L1124 1568 Z"/><path class="f2" d="M1094 1568 L945 1717 L975 1717 L1124 1568 Z" /></g><g class="o"><path transform="translate(8,16)" class="S ssv" d="M2041 1460 L2193 1308 L2193 1342 L2041 1494 Z"/><path class="sv6" d="M2041 1460 L2193 1308 L2193 1342 L2041 1494 Z" /></g><g class="o"><path transform="translate(5,10)" class="S sfh" d="M1599 1581 L1653 1635 L1757 1635 L1703 1581 Z"/><path class="fh5" d="M1599 1581 L1653 1635 L1757 1635 L1703 1581 Z" /></g><g class="o"><path transform="translate(6,12)" class="S sfh" d="M1426 1211 L1495 1280 L1631 1280 L1562 1211 Z"/><path class="fh1" d="M1426 1211 L1495 1280 L1631 1280 L1562 1211 Z" /></g><g class="o"><path transform="translate(7,14)" class="S sfh" d="M1831 2033 L1928 1936 L2040 1936 L1943 2033 Z"/><path class="fh6" d="M1831 2033 L1928 1936 L2040 1936 L1943 2033 Z" /></g><g class="o"><path transform="translate(2,4)" class="S sfh" d="M1187 1163 L1332 1308 L1452 1308 L1307 1163 Z"/><path class="fh2" d="M1187 1163 L1332 1308 L1452 1308 L1307 1163 Z" /></g><g class="o"><path transform="translate(8,16)" class="S sf" d="M1473 1277 L1655 1095 L1703 1095 L1521 1277 Z"/><path class="f5" d="M1473 1277 L1655 1095 L1703 1095 L1521 1277 Z" /></g><g class="o"><path transform="translate(3,6)" class="S sfh" d="M1628 1424 L1787 1583 L1939 1583 L1780 1424 Z"/><path class="fh2" d="M1628 1424 L1787 1583 L1939 1583 L1780 1424 Z" /></g><g class="o"><path transform="translate(2,4)" class="S sf" d="M1841 1004 L2013 832 L2039 832 L1867 1004 Z"/><path class="f5" d="M1841 1004 L2013 832 L2039 832 L1867 1004 Z" /></g><g class="o"><path transform="translate(2,4)" class="S sfh" d="M1813 985 L2057 741 L2113 741 L1869 985 Z"/><path class="fh2" d="M1813 985 L2057 741 L2113 741 L1869 985 Z" /></g><g class="o"><path transform="translate(2,4)" class="S sfh" d="M1360 1345 L1561 1546 L1633 1546 L1432 1345 Z"/><path class="fh1" d="M1360 1345 L1561 1546 L1633 1546 L1432 1345 Z" /></g><g class="o"><path transform="translate(3,6)" class="S sfh" d="M1498 1992 L1585 2079 L1673 2079 L1586 1992 Z"/><path class="fh6" d="M1498 1992 L1585 2079 L1673 2079 L1586 1992 Z" /></g><g class="o"><path transform="translate(3,6)" class="S ssh" d="M1649 1852 L1515 1986 L1627 1986 L1761 1852 Z"/><path class="sh6" d="M1649 1852 L1515 1986 L1627 1986 L1761 1852 Z" /></g><g class="o"><path transform="translate(5,10)" class="S sfv" d="M1946 1949 L1839 2056 L1839 2160 L1946 2053 Z"/><path class="fv2" d="M1946 1949 L1839 2056 L1839 2160 L1946 2053 Z" /></g><g class="o"><path transform="translate(8,16)" class="S sfv" d="M1643 935 L1573 1005 L1573 1149 L1643 1079 Z"/><path class="fv6" d="M1643 935 L1573 1005 L1573 1149 L1643 1079 Z" /></g><g class="o"><path transform="translate(6,12)" class="S sfh" d="M1830 1449 L1744 1535 L1864 1535 L1950 1449 Z"/><path class="fh6" d="M1830 1449 L1744 1535 L1864 1535 L1950 1449 Z" /></g><g class="o"><path transform="translate(9,18)" class="S sfv" d="M1311 1919 L1432 1798 L1432 1838 L1311 1959 Z"/><path class="fv3" d="M1311 1919 L1432 1798 L1432 1838 L1311 1959 Z" /></g><g class="o"><path transform="translate(3,6)" class="S sfh" d="M966 1062 L896 992 L944 992 L1014 1062 Z"/><path class="fh6" d="M966 1062 L896 992 L944 992 L1014 1062 Z" /></g><g class="o"><path transform="translate(5,10)" class="S ssh" d="M1118 1076 L1345 849 L1425 849 L1198 1076 Z"/><path class="sh6" d="M1118 1076 L1345 849 L1425 849 L1198 1076 Z" /></g><g class="o"><path transform="translate(2,4)" class="S sf" d="M1009 1070 L1153 1214 L1183 1214 L1039 1070 Z"/><path class="f1" d="M1009 1070 L1153 1214 L1183 1214 L1039 1070 Z" /></g><g class="o"><path transform="translate(5,10)" class="S sfv" d="M1156 1689 L1265 1580 L1265 1700 L1156 1809 Z"/><path class="fv2" d="M1156 1689 L1265 1580 L1265 1700 L1156 1809 Z" /></g><g class="o"><path transform="translate(8,16)" class="S sfh" d="M1259 1192 L1114 1047 L1144 1047 L1289 1192 Z"/><path class="fh5" d="M1259 1192 L1114 1047 L1144 1047 L1289 1192 Z" /></g><g class="o"><path transform="translate(9,18)" class="S sfv" d="M1640 1783 L1725 1698 L1725 1786 L1640 1871 Z"/><path class="fv3" d="M1640 1783 L1725 1698 L1725 1786 L1640 1871 Z" /></g><g class="o"><path transform="translate(8,16)" class="S ssh" d="M1364 1763 L1259 1658 L1387 1658 L1492 1763 Z"/><path class="sh4" d="M1364 1763 L1259 1658 L1387 1658 L1492 1763 Z" /></g><g class="o"><path transform="translate(4,8)" class="S ssv" d="M1636 942 L1688 890 L1688 946 L1636 998 Z"/><path class="sv4" d="M1636 942 L1688 890 L1688 946 L1636 998 Z" /></g><g class="o"><path transform="translate(9,18)" class="S sfh" d="M1333 1843 L1489 1999 L1625 1999 L1469 1843 Z"/><path class="fh3" d="M1333 1843 L1489 1999 L1625 1999 L1469 1843 Z" /></g><g class="o"><path transform="translate(2,4)" class="S sf" d="M1859 1376 L1754 1271 L1818 1271 L1923 1376 Z"/><path class="f5" d="M1859 1376 L1754 1271 L1818 1271 L1923 1376 Z" /></g><g class="o"><path transform="translate(6,12)" class="S sf" d="M1115 1693 L1299 1509 L1371 1509 L1187 1693 Z"/><path class="f1" d="M1115 1693 L1299 1509 L1371 1509 L1187 1693 Z" /></g><g class="o"><path transform="translate(3,6)" class="S sfv" d="M1236 1326 L1318 1408 L1318 1418 L1236 1336 Z"/><path class="fv6" d="M1236 1326 L1318 1408 L1318 1418 L1236 1336 Z" /></g><g class="o"><path transform="translate(7,14)" class="S ssv" d="M1321 1162 L1519 1360 L1519 1456 L1321 1258 Z"/><path class="sv1" d="M1321 1162 L1519 1360 L1519 1456 L1321 1258 Z" /></g><g class="o"><path transform="translate(4,8)" class="S ssv" d="M1781 1299 L1973 1491 L1973 1603 L1781 1411 Z"/><path class="sv1" d="M1781 1299 L1973 1491 L1973 1603 L1781 1411 Z" /></g><g class="o"><path transform="translate(4,8)" class="S sf" d="M999 1581 L1217 1363 L1217 1371 L999 1589 Z"/><path class="f7" d="M999 1581 L1217 1363 L1217 1371 L999 1589 Z" /></g><g class="o"><path transform="translate(6,12)" class="S sfh" d="M1125 1880 L899 1654 L1011 1654 L1237 1880 Z"/><path class="fh7" d="M1125 1880 L899 1654 L1011 1654 L1237 1880 Z" /></g><g class="o"><path transform="translate(5,10)" class="S sf" d="M1370 1071 L1584 1285 L1584 1317 L1370 1103 Z"/><path class="f3" d="M1370 1071 L1584 1285 L1584 1317 L1370 1103 Z" /></g><g class="o"><path transform="translate(3,6)" class="S ssv" d="M1956 1486 L2048 1578 L2048 1588 L1956 1496 Z"/><path class="sv1" d="M1956 1486 L2048 1578 L2048 1588 L1956 1496 Z" /></g><g class="o"><path transform="translate(2,4)" class="S ssh" d="M1186 1821 L1075 1932 L1147 1932 L1258 1821 Z"/><path class="sh6" d="M1186 1821 L1075 1932 L1147 1932 L1258 1821 Z" /></g><g class="o"><path transform="translate(8,16)" class="S sfv" d="M1994 1948 L2045 1999 L2045 2047 L1994 1996 Z"/><path class="fv3" d="M1994 1948 L2045 1999 L2045 2047 L1994 1996 Z" /></g><g class="o"><path transform="translate(3,6)" class="S sf" d="M1689 1823 L1774 1908 L1774 2004 L1689 1919 Z"/><path class="f2" d="M1689 1823 L1774 1908 L1774 2004 L1689 1919 Z" /></g><g class="o"><path transform="translate(3,6)" class="S ssv" d="M1510 1304 L1658 1156 L1658 1276 L1510 1424 Z"/><path class="sv6" d="M1510 1304 L1658 1156 L1658 1276 L1510 1424 Z" /></g><g class="o"><path transform="translate(8,16)" class="S sf" d="M1173 1947 L1240 2014 L1240 2094 L1173 2027 Z"/><path class="f4" d="M1173 1947 L1240 2014 L1240 2094 L1173 2027 Z" /></g><g class="o"><path transform="translate(4,8)" class="S sfv" d="M1262 1036 L1488 1262 L1488 1406 L1262 1180 Z"/><path class="fv4" d="M1262 1036 L1488 1262 L1488 1406 L1262 1180 Z" /></g><g class="o"><path transform="translate(2,4)" class="S sfh" d="M1326 1244 L1524 1046 L1572 1046 L1374 1244 Z"/><path class="fh6" d="M1326 1244 L1524 1046 L1572 1046 L1374 1244 Z" /></g><g class="o"><path transform="translate(3,6)" class="S sfv" d="M2036 1175 L2180 1031 L2180 1063 L2036 1207 Z"/><path class="fv4" d="M2036 1175 L2180 1031 L2180 1063 L2036 1207 Z" /></g><g class="o"><path transform="translate(6,12)" class="S ss" d="M1028 1384 L933 1479 L933 1497 L1028 1402 Z"/><path class="s5" d="M1028 1384 L933 1479 L933 1497 L1028 1402 Z" /></g><g class="o"><path transform="translate(2,4)" class="S sfh" d="M1636 1583 L1573 1520 L1637 1520 L1700 1583 Z"/><path class="fh1" d="M1636 1583 L1573 1520 L1637 1520 L1700 1583 Z" /></g><g class="o"><path transform="translate(7,14)" class="S sfv" d="M1804 1696 L2018 1482 L2018 1494 L1804 1708 Z"/><path class="fv7" d="M1804 1696 L2018 1482 L2018 1494 L1804 1708 Z" /></g><g class="o"><path transform="translate(9,18)" class="S sfv" d="M1971 1911 L2064 1818 L2064 1906 L1971 1999 Z"/><path class="fv6" d="M1971 1911 L2064 1818 L2064 1906 L1971 1999 Z" /></g></g><use href="#slashes" transform-origin="1500 1500" transform="rotate(180) scale(2)"/></g><rect x="1080" y="1080" width="840" height="840" stroke-width="40" class="o s2" /><use href="#slashes" transform-origin="1500 1500" transform="scale(.6)"/><use href="#slashes" transform-origin="1500 1500" transform="rotate(180) scale(.6)"/></svg>