<svg xmlns="http://www.w3.org/2000/svg" viewBox="750 750 1500 1500"><style>/*<![CDATA[*/svg{background:rgb(207,219,213);max-width:100vw;max-height:100vh}path{stroke-width:4}.o{opacity:.75}.S{opacity:.4}.sf{stroke:none;fill:black}.sfh{stroke:none;fill:url(#hs)}.sfv{stroke:none;fill:url(#vs)}.ss{stroke:black;fill:none}.ssh{stroke:url(#hs);fill:none}.ssv{stroke:url(#vs);fill:none}.s1{fill:none;stroke:rgb(232,237,223)}.f1{stroke:none;fill:rgb(232,237,223)}.sh1{fill:none;stroke:url(#h1)}.fh1{stroke:none;fill:url(#h1)}.sv1{fill:none;stroke:url(#v1)}.fv1{stroke:none;fill:url(#v1)}.s2{fill:none;stroke:rgb(245,203,92)}.f2{stroke:none;fill:rgb(245,203,92)}.sh2{fill:none;stroke:url(#h2)}.fh2{stroke:none;fill:url(#h2)}.sv2{fill:none;stroke:url(#v2)}.fv2{stroke:none;fill:url(#v2)}.s3{fill:none;stroke:rgb(51,53,51)}.f3{stroke:none;fill:rgb(51,53,51)}.sh3{fill:none;stroke:url(#h3)}.fh3{stroke:none;fill:url(#h3)}.sv3{fill:none;stroke:url(#v3)}.fv3{stroke:none;fill:url(#v3)}.s4{fill:none;stroke:rgb(36,36,35)}.f4{stroke:none;fill:rgb(36,36,35)}.sh4{fill:none;stroke:url(#h4)}.fh4{stroke:none;fill:url(#h4)}.sv4{fill:none;stroke:url(#v4)}.fv4{stroke:none;fill:url(#v4)}.s5{fill:none;stroke:rgb(34,34,34)}.f5{stroke:none;fill:rgb(34,34,34)}.sh5{fill:none;stroke:url(#h5)}.fh5{stroke:none;fill:url(#h5)}.sv5{fill:none;stroke:url(#v5)}.fv5{stroke:none;fill:url(#v5)}.s6{fill:none;stroke:rgb(255,255,255)}.f6{stroke:none;fill:rgb(255,255,255)}.sh6{fill:none;stroke:url(#h6)}.fh6{stroke:none;fill:url(#h6)}.sv6{fill:none;stroke:url(#v6)}.fv6{stroke:none;fill:url(#v6)}.s7{fill:none;stroke:rgb(255,255,0)}.f7{stroke:none;fill:rgb(255,255,0)}.sh7{fill:none;stroke:url(#h7)}.fh7{stroke:none;fill:url(#h7)}.sv7{fill:none;stroke:url(#v7)}.fv7{stroke:none;fill:url(#v7)}/*]]>*/</style><defs><linearGradient gradientTransform="rotate(90)" id="hs"><stop offset="20%" stop-color="#000" /><stop offset="95%" stop-color="rgba(0, 0, 0, 0)" /></linearGradient><linearGradient id="vs"><stop offset="20%" stop-color="#000" /><stop offset="95%" stop-color="rgba(0, 0, 0, 0)" /></linearGradient><linearGradient gradientTransform="rotate(90)" id="h1"><stop offset="20%" stop-color="rgba(232,237,223,1)" /><stop offset="95%" stop-color="rgba(232,237,223,0)" /></linearGradient><linearGradient id="v1"><stop offset="20%" stop-color="rgba(232,237,223,1)" /><stop offset="95%" stop-color="rgba(232,237,223,0)" /></linearGradient><linearGradient gradientTransform="rotate(90)" id="h2"><stop offset="20%" stop-color="rgba(245,203,92,1)" /><stop offset="95%" stop-color="rgba(245,203,92,0)" /></linearGradient><linearGradient id="v2"><stop offset="20%" stop-color="rgba(245,203,92,1)" /><stop offset="95%" stop-color="rgba(245,203,92,0)" /></linearGradient><linearGradient gradientTransform="rotate(90)" id="h3"><stop offset="20%" stop-color="rgba(51,53,51,1)" /><stop offset="95%" stop-color="rgba(51,53,51,0)" /></linearGradient><linearGradient id="v3"><stop offset="20%" stop-color="rgba(51,53,51,1)" /><stop offset="95%" stop-color="rgba(51,53,51,0)" /></linearGradient><linearGradient gradientTransform="rotate(90)" id="h4"><stop offset="20%" stop-color="rgba(36,36,35,1)" /><stop offset="95%" stop-color="rgba(36,36,35,0)" /></linearGradient><linearGradient id="v4"><stop offset="20%" stop-color="rgba(36,36,35,1)" /><stop offset="95%" stop-color="rgba(36,36,35,0)" /></linearGradient><linearGradient gradientTransform="rotate(90)" id="h5"><stop offset="20%" stop-color="rgba(34,34,34,1)" /><stop offset="95%" stop-color="rgba(34,34,34,0)" /></linearGradient><linearGradient id="v5"><stop offset="20%" stop-color="rgba(34,34,34,1)" /><stop offset="95%" stop-color="rgba(34,34,34,0)" /></linearGradient><linearGradient gradientTransform="rotate(90)" id="h6"><stop offset="20%" stop-color="rgba(255,255,255,1)" /><stop offset="95%" stop-color="rgba(255,255,255,0)" /></linearGradient><linearGradient id="v6"><stop offset="20%" stop-color="rgba(255,255,255,1)" /><stop offset="95%" stop-color="rgba(255,255,255,0)" /></linearGradient><linearGradient gradientTransform="rotate(90)" id="h7"><stop offset="20%" stop-color="rgba(255,255,0,1)" /><stop offset="95%" stop-color="rgba(255,255,0,0)" /></linearGradient><linearGradient id="v7"><stop offset="20%" stop-color="rgba(255,255,0,1)" /><stop offset="95%" stop-color="rgba(255,255,0,0)" /></linearGradient></defs><g transform-origin="1500 1500" transform="scale(2)" opacity=".2"><g id="slashes"><g class="o"><path transform="translate(9,18)" class="S sfv" d="M2020 1769 L2081 1708 L2081 1772 L2020 1833 Z"/><path class="fv2" d="M2020 1769 L2081 1708 L2081 1772 L2020 1833 Z" /></g><g class="o"><path transform="translate(7,14)" class="S sfh" d="M1467 1831 L1625 1989 L1661 1989 L1503 1831 Z"/><path class="fh3" d="M1467 1831 L1625 1989 L1661 1989 L1503 1831 Z" /></g><g class="o"><path transform="translate(5,10)" class="S sfv" d="M1278 1481 L1522 1725 L1522 1743 L1278 1499 Z"/><path class="fv7" d="M1278 1481 L1522 1725 L1522 1743 L1278 1499 Z" /></g><g class="o"><path transform="translate(2,4)" class="S sfh" d="M1515 1990 L1659 2134 L1679 2134 L1535 1990 Z"/><path class="fh6" d="M1515 1990 L1659 2134 L1679 2134 L1535 1990 Z" /></g><g class="o"><path transform="translate(9,18)" class="S sfv" d="M1543 1633 L1625 1551 L1625 1581 L1543 1663 Z"/><path class="fv2" d="M1543 1633 L1625 1551 L1625 1581 L1543 1663 Z" /></g><g class="o"><path transform="translate(9,18)" class="S sfv" d="M1277 1524 L1391 1638 L1391 1646 L1277 1532 Z"/><path class="fv3" d="M1277 1524 L1391 1638 L1391 1646 L1277 1532 Z" /></g><g class="o"><path transform="translate(9,18)" class="S sfh" d="M1998 2033 L2083 1948 L2103 1948 L2018 2033 Z"/><path class="fh5" d="M1998 2033 L2083 1948 L2103 1948 L2018 2033 Z" /></g><g class="o"><path transform="translate(6,12)" class="S sfv" d="M1381 1632 L1601 1852 L1601 1868 L1381 1648 Z"/><path class="fv2" d="M1381 1632 L1601 1852 L1601 1868 L1381 1648 Z" /></g><g class="o"><path transform="translate(8,16)" class="S sfh" d="M1785 1292 L1718 1359 L1736 1359 L1803 1292 Z"/><path class="fh4" d="M1785 1292 L1718 1359 L1736 1359 L1803 1292 Z" /></g><g class="o"><path transform="translate(7,14)" class="S sf" d="M1974 1656 L2151 1833 L2181 1833 L2004 1656 Z"/><path class="f7" d="M1974 1656 L2151 1833 L2181 1833 L2004 1656 Z" /></g><g class="o"><path transform="translate(4,8)" class="S sfv" d="M1880 1833 L2079 1634 L2079 1668 L1880 1867 Z"/><path class="fv6" d="M1880 1833 L2079 1634 L2079 1668 L1880 1867 Z" /></g><g class="o"><path transform="translate(8,16)" class="S sfh" d="M1182 1805 L952 1575 L970 1575 L1200 1805 Z"/><path class="fh3" d="M1182 1805 L952 1575 L970 1575 L1200 1805 Z" /></g><g class="o"><path transform="translate(4,8)" class="S sfv" d="M1921 1839 L1733 1651 L1733 1665 L1921 1853 Z"/><path class="fv1" d="M1921 1839 L1733 1651 L1733 1665 L1921 1853 Z" /></g><g class="o"><path transform="translate(5,10)" class="S sf" d="M1256 1746 L1145 1635 L1145 1651 L1256 1762 Z"/><path class="f6" d="M1256 1746 L1145 1635 L1145 1651 L1256 1762 Z" /></g><g class="o"><path transform="translate(5,10)" class="S sf" d="M1922 1382 L1744 1560 L1762 1560 L1940 1382 Z"/><path class="f6" d="M1922 1382 L1744 1560 L1762 1560 L1940 1382 Z" /></g><g class="o"><path transform="translate(6,12)" class="S ssh" d="M1462 1856 L1630 1688 L1650 1688 L1482 1856 Z"/><path class="sh6" d="M1462 1856 L1630 1688 L1650 1688 L1482 1856 Z" /></g><g class="o"><path transform="translate(5,10)" class="S sfv" d="M1299 1795 L1236 1858 L1236 1890 L1299 1827 Z"/><path class="fv4" d="M1299 1795 L1236 1858 L1236 1890 L1299 1827 Z" /></g><g class="o"><path transform="translate(5,10)" class="S sf" d="M1357 1682 L1480 1805 L1480 1833 L1357 1710 Z"/><path class="f3" d="M1357 1682 L1480 1805 L1480 1833 L1357 1710 Z" /></g><g class="o"><path transform="translate(4,8)" class="S sf" d="M1228 1533 L1061 1366 L1075 1366 L1242 1533 Z"/><path class="f5" d="M1228 1533 L1061 1366 L1075 1366 L1242 1533 Z" /></g><g class="o"><path transform="translate(3,6)" class="S sf" d="M961 1417 L1166 1212 L1166 1222 L961 1427 Z"/><path class="f3" d="M961 1417 L1166 1212 L1166 1222 L961 1427 Z" /></g><g class="o"><path transform="translate(7,14)" class="S sf" d="M1935 1590 L1991 1534 L2027 1534 L1971 1590 Z"/><path class="f2" d="M1935 1590 L1991 1534 L2027 1534 L1971 1590 Z" /></g><g class="o"><path transform="translate(8,16)" class="S sfv" d="M993 1879 L1066 1952 L1066 1974 L993 1901 Z"/><path class="fv3" d="M993 1879 L1066 1952 L1066 1974 L993 1901 Z" /></g><g class="o"><path transform="translate(6,12)" class="S sf" d="M1240 1096 L1486 1342 L1522 1342 L1276 1096 Z"/><path class="f3" d="M1240 1096 L1486 1342 L1522 1342 L1276 1096 Z" /></g><g class="o"><path transform="translate(7,14)" class="S sfv" d="M1180 1862 L1262 1944 L1262 1980 L1180 1898 Z"/><path class="fv1" d="M1180 1862 L1262 1944 L1262 1980 L1180 1898 Z" /></g><g class="o"><path transform="translate(6,12)" class="S sfh" d="M1225 1782 L1467 1540 L1485 1540 L1243 1782 Z"/><path class="fh6" d="M1225 1782 L1467 1540 L1485 1540 L1243 1782 Z" /></g><g class="o"><path transform="translate(2,4)" class="S sfv" d="M1928 1828 L2081 1675 L2081 1703 L1928 1856 Z"/><path class="fv1" d="M1928 1828 L2081 1675 L2081 1703 L1928 1856 Z" /></g><g class="o"><path transform="translate(9,18)" class="S sfv" d="M1161 1066 L1250 1155 L1250 1187 L1161 1098 Z"/><path class="fv5" d="M1161 1066 L1250 1155 L1250 1187 L1161 1098 Z" /></g><g class="o"><path transform="translate(2,4)" class="S sfh" d="M977 1062 L1161 878 L1181 878 L997 1062 Z"/><path class="fh7" d="M977 1062 L1161 878 L1181 878 L997 1062 Z" /></g><g class="o"><path transform="translate(7,14)" class="S ssh" d="M1434 1038 L1494 1098 L1506 1098 L1446 1038 Z"/><path class="sh4" d="M1434 1038 L1494 1098 L1506 1098 L1446 1038 Z" /></g><g class="o"><path transform="translate(2,4)" class="S sfh" d="M1182 1557 L1040 1415 L1050 1415 L1192 1557 Z"/><path class="fh4" d="M1182 1557 L1040 1415 L1050 1415 L1192 1557 Z" /></g><g class="o"><path transform="translate(7,14)" class="S sfv" d="M1204 1028 L1021 1211 L1021 1237 L1204 1054 Z"/><path class="fv4" d="M1204 1028 L1021 1211 L1021 1237 L1204 1054 Z" /></g><g class="o"><path transform="translate(3,6)" class="S ssv" d="M1228 1375 L1119 1266 L1119 1286 L1228 1395 Z"/><path class="sv5" d="M1228 1375 L1119 1266 L1119 1286 L1228 1395 Z" /></g><g class="o"><path transform="translate(3,6)" class="S sfh" d="M961 1786 L1095 1652 L1105 1652 L971 1786 Z"/><path class="fh2" d="M961 1786 L1095 1652 L1105 1652 L971 1786 Z" /></g><g class="o"><path transform="translate(3,6)" class="S sfh" d="M1445 1827 L1672 1600 L1708 1600 L1481 1827 Z"/><path class="fh7" d="M1445 1827 L1672 1600 L1708 1600 L1481 1827 Z" /></g><g class="o"><path transform="translate(3,6)" class="S sfv" d="M1704 1932 L1918 1718 L1918 1746 L1704 1960 Z"/><path class="fv2" d="M1704 1932 L1918 1718 L1918 1746 L1704 1960 Z" /></g><g class="o"><path transform="translate(7,14)" class="S ssh" d="M1084 1981 L1283 2180 L1307 2180 L1108 1981 Z"/><path class="sh1" d="M1084 1981 L1283 2180 L1307 2180 L1108 1981 Z" /></g><g class="o"><path transform="translate(2,4)" class="S sfh" d="M1561 1756 L1632 1827 L1664 1827 L1593 1756 Z"/><path class="fh1" d="M1561 1756 L1632 1827 L1664 1827 L1593 1756 Z" /></g><g class="o"><path transform="translate(5,10)" class="S sfh" d="M1573 2025 L1649 2101 L1677 2101 L1601 2025 Z"/><path class="fh4" d="M1573 2025 L1649 2101 L1677 2101 L1601 2025 Z" /></g><g class="o"><path transform="translate(5,10)" class="S sfh" d="M991 2045 L867 2169 L901 2169 L1025 2045 Z"/><path class="fh4" d="M991 2045 L867 2169 L901 2169 L1025 2045 Z" /></g><g class="o"><path transform="translate(6,12)" class="S sfh" d="M1206 1017 L1050 861 L1086 861 L1242 1017 Z"/><path class="fh7" d="M1206 1017 L1050 861 L1086 861 L1242 1017 Z" /></g><g class="o"><path transform="translate(8,16)" class="S sf" d="M949 1638 L1138 1827 L1148 1827 L959 1638 Z"/><path class="f2" d="M949 1638 L1138 1827 L1148 1827 L959 1638 Z" /></g><g class="o"><path transform="translate(9,18)" class="S sfv" d="M1716 993 L1768 1045 L1768 1075 L1716 1023 Z"/><path class="fv7" d="M1716 993 L1768 1045 L1768 1075 L1716 1023 Z" /></g><g class="o"><path transform="translate(4,8)" class="S ssh" d="M967 1720 L890 1643 L914 1643 L991 1720 Z"/><path class="sh7" d="M967 1720 L890 1643 L914 1643 L991 1720 Z" /></g><g class="o"><path transform="translate(7,14)" class="S sfv" d="M2028 1150 L2149 1271 L2149 1299 L2028 1178 Z"/><path class="fv6" d="M2028 1150 L2149 1271 L2149 1299 L2028 1178 Z" /></g><g class="o"><path transform="translate(5,10)" class="S ssv" d="M1620 1582 L1541 1661 L1541 1681 L1620 1602 Z"/><path class="sv5" d="M1620 1582 L1541 1661 L1541 1681 L1620 1602 Z" /></g><g class="o"><path transform="translate(9,18)" class="S ssv" d="M1113 1139 L1277 975 L1277 993 L1113 1157 Z"/><path class="sv2" d="M1113 1139 L1277 975 L1277 993 L1113 1157 Z" /></g><g class="o"><path transform="translate(6,12)" class="S ssv" d="M1246 2028 L1454 1820 L1454 1830 L1246 2038 Z"/><path class="sv2" d="M1246 2028 L1454 1820 L1454 1830 L1246 2038 Z" /></g><g class="o"><path transform="translate(8,16)" class="S sf" d="M1243 1850 L1021 1628 L1021 1658 L1243 1880 Z"/><path class="f1" d="M1243 1850 L1021 1628 L1021 1658 L1243 1880 Z" /></g><g class="o"><path transform="translate(7,14)" class="S sfh" d="M1927 1866 L2038 1755 L2050 1755 L1939 1866 Z"/><path class="fh7" d="M1927 1866 L2038 1755 L2050 1755 L1939 1866 Z" /></g><g class="o"><path transform="translate(2,4)" class="S sf" d="M1365 1232 L1470 1127 L1478 1127 L1373 1232 Z"/><path class="f1" d="M1365 1232 L1470 1127 L1478 1127 L1373 1232 Z" /></g><g class="o"><path transform="translate(3,6)" class="S sfv" d="M1862 1768 L2072 1978 L2072 2012 L1862 1802 Z"/><path class="fv4" d="M1862 1768 L2072 1978 L2072 2012 L1862 1802 Z" /></g><g class="o"><path transform="translate(7,14)" class="S sfv" d="M1708 1473 L1527 1654 L1527 1682 L1708 1501 Z"/><path class="fv5" d="M1708 1473 L1527 1654 L1527 1682 L1708 1501 Z" /></g><g class="o"><path transform="translate(9,18)" class="S sfh" d="M1309 1387 L1212 1484 L1240 1484 L1337 1387 Z"/><path class="fh3" d="M1309 1387 L1212 1484 L1240 1484 L1337 1387 Z" /></g><g class="o"><path transform="translate(3,6)" class="S ssv" d="M1332 1266 L1255 1343 L1255 1367 L1332 1290 Z"/><path class="sv2" d="M1332 1266 L1255 1343 L1255 1367 L1332 1290 Z" /></g><g class="o"><path transform="translate(4,8)" class="S sfv" d="M2017 1247 L2145 1375 L2145 1403 L2017 1275 Z"/><path class="fv5" d="M2017 1247 L2145 1375 L2145 1403 L2017 1275 Z" /></g><g class="o"><path transform="translate(5,10)" class="S ssv" d="M1801 1660 L1707 1754 L1707 1784 L1801 1690 Z"/><path class="sv1" d="M1801 1660 L1707 1754 L1707 1784 L1801 1690 Z" /></g><g class="o"><path transform="translate(2,4)" class="S sfh" d="M1513 1768 L1646 1901 L1678 1901 L1545 1768 Z"/><path class="fh6" d="M1513 1768 L1646 1901 L1678 1901 L1545 1768 Z" /></g><g class="o"><path transform="translate(5,10)" class="S sfh" d="M991 1240 L782 1449 L812 1449 L1021 1240 Z"/><path class="fh5" d="M991 1240 L782 1449 L812 1449 L1021 1240 Z" /></g><g class="o"><path transform="translate(8,16)" class="S ss" d="M1429 987 L1617 1175 L1617 1199 L1429 1011 Z"/><path class="s2" d="M1429 987 L1617 1175 L1617 1199 L1429 1011 Z" /></g><g class="o"><path transform="translate(4,8)" class="S sfv" d="M2008 942 L2134 1068 L2134 1092 L2008 966 Z"/><path class="fv4" d="M2008 942 L2134 1068 L2134 1092 L2008 966 Z" /></g><g class="o"><path transform="translate(2,4)" class="S ssh" d="M947 1136 L1102 981 L1114 981 L959 1136 Z"/><path class="sh1" d="M947 1136 L1102 981 L1114 981 L959 1136 Z" /></g><g class="o"><path transform="translate(9,18)" class="S sfh" d="M1994 1950 L2188 2144 L2222 2144 L2028 1950 Z"/><path class="fh3" d="M1994 1950 L2188 2144 L2222 2144 L2028 1950 Z" /></g><g class="o"><path transform="translate(8,16)" class="S sfv" d="M1315 1588 L1515 1388 L1515 1406 L1315 1606 Z"/><path class="fv6" d="M1315 1588 L1515 1388 L1515 1406 L1315 1606 Z" /></g><g class="o"><path transform="translate(3,6)" class="S sfh" d="M1990 1812 L1751 1573 L1763 1573 L2002 1812 Z"/><path class="fh5" d="M1990 1812 L1751 1573 L1763 1573 L2002 1812 Z" /></g><g class="o"><path transform="translate(2,4)" class="S sf" d="M1770 1666 L2014 1422 L2014 1442 L1770 1686 Z"/><path class="f5" d="M1770 1666 L2014 1422 L2014 1442 L1770 1686 Z" /></g><g class="o"><path transform="translate(7,14)" class="S sf" d="M1150 1251 L1271 1372 L1271 1390 L1150 1269 Z"/><path class="f3" d="M1150 1251 L1271 1372 L1271 1390 L1150 1269 Z" /></g><g class="o"><path transform="translate(4,8)" class="S sfh" d="M1170 1958 L1384 2172 L1414 2172 L1200 1958 Z"/><path class="fh2" d="M1170 1958 L1384 2172 L1414 2172 L1200 1958 Z" /></g><g class="o"><path transform="translate(5,10)" class="S sfv" d="M1325 1895 L1275 1945 L1275 1977 L1325 1927 Z"/><path class="fv7" d="M1325 1895 L1275 1945 L1275 1977 L1325 1927 Z" /></g><g class="o"><path transform="translate(6,12)" class="S sfh" d="M1833 1381 L2022 1570 L2058 1570 L1869 1381 Z"/><path class="fh4" d="M1833 1381 L2022 1570 L2058 1570 L1869 1381 Z" /></g><g class="o"><path transform="translate(7,14)" class="S sf" d="M1913 1133 L2040 1260 L2040 1340 L1913 1213 Z"/><path class="f6" d="M1913 1133 L2040 1260 L2040 1340 L1913 1213 Z" /></g><g class="o"><path transform="translate(7,14)" class="S ssv" d="M1333 1454 L1203 1324 L1203 1342 L1333 1472 Z"/><path class="sv4" d="M1333 1454 L1203 1324 L1203 1342 L1333 1472 Z" /></g><g class="o"><path transform="translate(4,8)" class="S sf" d="M1332 1680 L1580 1928 L1612 1928 L1364 1680 Z"/><path class="f6" d="M1332 1680 L1580 1928 L1612 1928 L1364 1680 Z" /></g><g class="o"><path transform="translate(9,18)" class="S sfh" d="M2000 1168 L1933 1235 L1947 1235 L2014 1168 Z"/><path class="fh2" d="M2000 1168 L1933 1235 L1947 1235 L2014 1168 Z" /></g><g class="o"><path transform="translate(8,16)" class="S sfv" d="M1212 1828 L1270 1886 L1270 1900 L1212 1842 Z"/><path class="fv6" d="M1212 1828 L1270 1886 L1270 1900 L1212 1842 Z" /></g><g class="o"><path transform="translate(4,8)" class="S sfh" d="M1541 1078 L1745 1282 L1779 1282 L1575 1078 Z"/><path class="fh5" d="M1541 1078 L1745 1282 L1779 1282 L1575 1078 Z" /></g><g class="o"><path transform="translate(6,12)" class="S sfh" d="M1317 1680 L1477 1840 L1515 1840 L1355 1680 Z"/><path class="fh7" d="M1317 1680 L1477 1840 L1515 1840 L1355 1680 Z" /></g><g class="o"><path transform="translate(2,4)" class="S ssv" d="M1963 1484 L2067 1588 L2067 1616 L1963 1512 Z"/><path class="sv1" d="M1963 1484 L2067 1588 L2067 1616 L1963 1512 Z" /></g><g class="o"><path transform="translate(3,6)" class="S sfh" d="M2007 1015 L1909 917 L1935 917 L2033 1015 Z"/><path class="fh3" d="M2007 1015 L1909 917 L1935 917 L2033 1015 Z" /></g><g class="o"><path transform="translate(5,10)" class="S ssh" d="M1182 1838 L1286 1942 L1334 1942 L1230 1838 Z"/><path class="sh4" d="M1182 1838 L1286 1942 L1334 1942 L1230 1838 Z" /></g><g class="o"><path transform="translate(2,4)" class="S sf" d="M1101 1704 L1049 1756 L1049 1768 L1101 1716 Z"/><path class="f5" d="M1101 1704 L1049 1756 L1049 1768 L1101 1716 Z" /></g><g class="o"><path transform="translate(2,4)" class="S sfv" d="M2042 1801 L2279 1564 L2279 1592 L2042 1829 Z"/><path class="fv1" d="M2042 1801 L2279 1564 L2279 1592 L2042 1829 Z" /></g><g class="o"><path transform="translate(8,16)" class="S ssv" d="M1835 1067 L2050 1282 L2050 1292 L1835 1077 Z"/><path class="sv3" d="M1835 1067 L2050 1282 L2050 1292 L1835 1077 Z" /></g><g class="o"><path transform="translate(6,12)" class="S sf" d="M1515 1210 L1353 1372 L1363 1372 L1525 1210 Z"/><path class="f6" d="M1515 1210 L1353 1372 L1363 1372 L1525 1210 Z" /></g><g class="o"><path transform="translate(4,8)" class="S sfv" d="M1094 1656 L1287 1463 L1287 1485 L1094 1678 Z"/><path class="fv2" d="M1094 1656 L1287 1463 L1287 1485 L1094 1678 Z" /></g><g class="o"><path transform="translate(6,12)" class="S sfh" d="M1319 1353 L1183 1217 L1215 1217 L1351 1353 Z"/><path class="fh5" d="M1319 1353 L1183 1217 L1215 1217 L1351 1353 Z" /></g><g class="o"><path transform="translate(8,16)" class="S sfh" d="M1217 2024 L1376 2183 L1414 2183 L1255 2024 Z"/><path class="fh5" d="M1217 2024 L1376 2183 L1414 2183 L1255 2024 Z" /></g><g class="o"><path transform="translate(9,18)" class="S sf" d="M1087 1269 L987 1169 L987 1185 L1087 1285 Z"/><path class="f2" d="M1087 1269 L987 1169 L987 1185 L1087 1285 Z" /></g><g class="o"><path transform="translate(8,16)" class="S sf" d="M1538 1267 L1699 1106 L1715 1106 L1554 1267 Z"/><path class="f1" d="M1538 1267 L1699 1106 L1715 1106 L1554 1267 Z" /></g><g class="o"><path transform="translate(2,4)" class="S sf" d="M1525 1856 L1681 2012 L1681 2024 L1525 1868 Z"/><path class="f6" d="M1525 1856 L1681 2012 L1681 2024 L1525 1868 Z" /></g><g class="o"><path transform="translate(3,6)" class="S sfh" d="M1233 1528 L1464 1297 L1490 1297 L1259 1528 Z"/><path class="fh3" d="M1233 1528 L1464 1297 L1490 1297 L1259 1528 Z" /></g><g class="o"><path transform="translate(9,18)" class="S sfv" d="M1461 1759 L1597 1895 L1597 1915 L1461 1779 Z"/><path class="fv5" d="M1461 1759 L1597 1895 L1597 1915 L1461 1779 Z" /></g><g class="o"><path transform="translate(7,14)" class="S sfv" d="M1758 1030 L1842 946 L1842 970 L1758 1054 Z"/><path class="fv1" d="M1758 1030 L1842 946 L1842 970 L1758 1054 Z" /></g><g class="o"><path transform="translate(4,8)" class="S sfv" d="M1165 1760 L1369 1964 L1369 1982 L1165 1778 Z"/><path class="fv7" d="M1165 1760 L1369 1964 L1369 1982 L1165 1778 Z" /></g><g class="o"><path transform="translate(6,12)" class="S ss" d="M1417 1734 L1307 1624 L1323 1624 L1433 1734 Z"/><path class="s7" d="M1417 1734 L1307 1624 L1323 1624 L1433 1734 Z" /></g><g class="o"><path transform="translate(8,16)" class="S sf" d="M973 1116 L1192 1335 L1226 1335 L1007 1116 Z"/><path class="f7" d="M973 1116 L1192 1335 L1226 1335 L1007 1116 Z" /></g><g class="o"><path transform="translate(6,12)" class="S sf" d="M1781 1942 L1921 1802 L1943 1802 L1803 1942 Z"/><path class="f5" d="M1781 1942 L1921 1802 L1943 1802 L1803 1942 Z" /></g><g class="o"><path transform="translate(4,8)" class="S sfv" d="M1513 1988 L1671 2146 L1671 2164 L1513 2006 Z"/><path class="fv1" d="M1513 1988 L1671 2146 L1671 2164 L1513 2006 Z" /></g><g class="o"><path transform="translate(3,6)" class="S sfh" d="M1140 1841 L1054 1927 L1090 1927 L1176 1841 Z"/><path class="fh6" d="M1140 1841 L1054 1927 L1090 1927 L1176 1841 Z" /></g><g class="o"><path transform="translate(5,10)" class="S sfv" d="M1526 1649 L1402 1773 L1402 1791 L1526 1667 Z"/><path class="fv2" d="M1526 1649 L1402 1773 L1402 1791 L1526 1667 Z" /></g><g class="o"><path transform="translate(2,4)" class="S sfh" d="M1671 1579 L1894 1356 L2022 1356 L1799 1579 Z"/><path class="fh5" d="M1671 1579 L1894 1356 L2022 1356 L1799 1579 Z" /></g><g class="o"><path transform="translate(5,10)" class="S ssh" d="M1915 1463 L1966 1514 L1980 1514 L1929 1463 Z"/><path class="sh4" d="M1915 1463 L1966 1514 L1980 1514 L1929 1463 Z" /></g><g class="o"><path transform="translate(7,14)" class="S sfh" d="M1498 1194 L1718 974 L1734 974 L1514 1194 Z"/><path class="fh5" d="M1498 1194 L1718 974 L1734 974 L1514 1194 Z" /></g><g class="o"><path transform="translate(6,12)" class="S sfh" d="M1935 1956 L1828 2063 L1862 2063 L1969 1956 Z"/><path class="fh4" d="M1935 1956 L1828 2063 L1862 2063 L1969 1956 Z" /></g><g class="o"><path transform="translate(6,12)" class="S sfh" d="M1391 1122 L1524 1255 L1548 1255 L1415 1122 Z"/><path class="fh4" d="M1391 1122 L1524 1255 L1548 1255 L1415 1122 Z" /></g><g class="o"><path transform="translate(4,8)" class="S sfv" d="M1183 1356 L1309 1482 L1309 1492 L1183 1366 Z"/><path class="fv3" d="M1183 1356 L1309 1482 L1309 1492 L1183 1366 Z" /></g><g class="o"><path transform="translate(8,16)" class="S ssv" d="M1284 1974 L1412 1846 L1412 1864 L1284 1992 Z"/><path class="sv4" d="M1284 1974 L1412 1846 L1412 1864 L1284 1992 Z" /></g><g class="o"><path transform="translate(5,10)" class="S sfv" d="M1733 1403 L1846 1516 L1846 1552 L1733 1439 Z"/><path class="fv5" d="M1733 1403 L1846 1516 L1846 1552 L1733 1439 Z" /></g><g class="o"><path transform="translate(4,8)" class="S sfv" d="M1575 1618 L1767 1426 L1767 1436 L1575 1628 Z"/><path class="fv7" d="M1575 1618 L1767 1426 L1767 1436 L1575 1628 Z" /></g><g class="o"><path transform="translate(2,4)" class="S ss" d="M954 1930 L1174 2150 L1174 2162 L954 1942 Z"/><path class="s6" d="M954 1930 L1174 2150 L1174 2162 L954 1942 Z" /></g><g class="o"><path transform="translate(6,12)" class="S ssh" d="M1742 1164 L1922 984 L1944 984 L1764 1164 Z"/><path class="sh7" d="M1742 1164 L1922 984 L1944 984 L1764 1164 Z" /></g><g class="o"><path transform="translate(9,18)" class="S sfv" d="M1831 1300 L1751 1380 L1751 1404 L1831 1324 Z"/><path class="fv5" d="M1831 1300 L1751 1380 L1751 1404 L1831 1324 Z" /></g><g class="o"><path transform="translate(9,18)" class="S sfv" d="M1672 1077 L1841 908 L1841 924 L1672 1093 Z"/><path class="fv6" d="M1672 1077 L1841 908 L1841 924 L1672 1093 Z" /></g><g class="o"><path transform="translate(7,14)" class="S sfv" d="M1943 2030 L2173 2260 L2173 2274 L1943 2044 Z"/><path class="fv1" d="M1943 2030 L2173 2260 L2173 2274 L1943 2044 Z" /></g><g class="o"><path transform="translate(5,10)" class="S sfv" d="M952 1778 L1131 1599 L1131 1625 L952 1804 Z"/><path class="fv1" d="M952 1778 L1131 1599 L1131 1625 L952 1804 Z" /></g><g class="o"><path transform="translate(7,14)" class="S ssv" d="M1660 1052 L1507 1205 L1507 1233 L1660 1080 Z"/><path class="sv6" d="M1660 1052 L1507 1205 L1507 1233 L1660 1080 Z" /></g><g class="o"><path transform="translate(4,8)" class="S sfh" d="M1072 1564 L1275 1361 L1309 1361 L1106 1564 Z"/><path class="fh1" d="M1072 1564 L1275 1361 L1309 1361 L1106 1564 Z" /></g><g class="o"><path transform="translate(5,10)" class="S sfh" d="M1081 1773 L1306 1548 L1330 1548 L1105 1773 Z"/><path class="fh2" d="M1081 1773 L1306 1548 L1330 1548 L1105 1773 Z" /></g><g class="o"><path transform="translate(4,8)" class="S sfh" d="M1774 1480 L1893 1361 L1913 1361 L1794 1480 Z"/><path class="fh7" d="M1774 1480 L1893 1361 L1913 1361 L1794 1480 Z" /></g><g class="o"><path transform="translate(7,14)" class="S sfv" d="M1711 1076 L1805 982 L1805 1000 L1711 1094 Z"/><path class="fv1" d="M1711 1076 L1805 982 L1805 1000 L1711 1094 Z" /></g><g class="o"><path transform="translate(9,18)" class="S sf" d="M1442 1726 L1622 1906 L1650 1906 L1470 1726 Z"/><path class="f4" d="M1442 1726 L1622 1906 L1650 1906 L1470 1726 Z" /></g><g class="o"><path transform="translate(4,8)" class="S sfv" d="M1512 955 L1730 737 L1730 767 L1512 985 Z"/><path class="fv3" d="M1512 955 L1730 737 L1730 767 L1512 985 Z" /></g><g class="o"><path transform="translate(9,18)" class="S sfh" d="M1541 1905 L1780 2144 L1892 2144 L1653 1905 Z"/><path class="fh2" d="M1541 1905 L1780 2144 L1892 2144 L1653 1905 Z" /></g><g class="o"><path transform="translate(8,16)" class="S ssh" d="M1482 1935 L1662 2115 L1684 2115 L1504 1935 Z"/><path class="sh7" d="M1482 1935 L1662 2115 L1684 2115 L1504 1935 Z" /></g><g class="o"><path transform="translate(9,18)" class="S sfv" d="M1084 1805 L1313 2034 L1313 2072 L1084 1843 Z"/><path class="fv2" d="M1084 1805 L1313 2034 L1313 2072 L1084 1843 Z" /></g><g class="o"><path transform="translate(3,6)" class="S ssh" d="M1914 1409 L1972 1351 L2076 1351 L2018 1409 Z"/><path class="sh1" d="M1914 1409 L1972 1351 L2076 1351 L2018 1409 Z" /></g><g class="o"><path transform="translate(6,12)" class="S ss" d="M1203 1042 L1338 907 L1374 907 L1239 1042 Z"/><path class="s7" d="M1203 1042 L1338 907 L1374 907 L1239 1042 Z" /></g><g class="o"><path transform="translate(8,16)" class="S sfv" d="M1818 1957 L1649 2126 L1649 2134 L1818 1965 Z"/><path class="fv4" d="M1818 1957 L1649 2126 L1649 2134 L1818 1965 Z" /></g><g class="o"><path transform="translate(9,18)" class="S sfv" d="M1669 1827 L1831 1989 L1831 1997 L1669 1835 Z"/><path class="fv2" d="M1669 1827 L1831 1989 L1831 1997 L1669 1835 Z" /></g><g class="o"><path transform="translate(7,14)" class="S sfh" d="M937 1072 L1126 883 L1160 883 L971 1072 Z"/><path class="fh4" d="M937 1072 L1126 883 L1160 883 L971 1072 Z" /></g><g class="o"><path transform="translate(9,18)" class="S sfv" d="M1439 1474 L1252 1287 L1252 1323 L1439 1510 Z"/><path class="fv2" d="M1439 1474 L1252 1287 L1252 1323 L1439 1510 Z" /></g><g class="o"><path transform="translate(9,18)" class="S sf" d="M1450 1731 L1515 1796 L1549 1796 L1484 1731 Z"/><path class="f3" d="M1450 1731 L1515 1796 L1549 1796 L1484 1731 Z" /></g><g class="o"><path transform="translate(2,4)" class="S sfh" d="M989 1723 L1158 1554 L1170 1554 L1001 1723 Z"/><path class="fh3" d="M989 1723 L1158 1554 L1170 1554 L1001 1723 Z" /></g><g class="o"><path transform="translate(5,10)" class="S ss" d="M1024 1507 L868 1663 L878 1663 L1034 1507 Z"/><path class="s6" d="M1024 1507 L868 1663 L878 1663 L1034 1507 Z" /></g><g class="o"><path transform="translate(2,4)" class="S sf" d="M1324 1249 L1374 1199 L1374 1213 L1324 1263 Z"/><path class="f3" d="M1324 1249 L1374 1199 L1374 1213 L1324 1263 Z" /></g><g class="o"><path transform="translate(7,14)" class="S sfv" d="M1636 1073 L1726 983 L1726 1005 L1636 1095 Z"/><path class="fv2" d="M1636 1073 L1726 983 L1726 1005 L1636 1095 Z" /></g><g class="o"><path transform="translate(2,4)" class="S sfh" d="M1699 1220 L1762 1157 L1772 1157 L1709 1220 Z"/><path class="fh6" d="M1699 1220 L1762 1157 L1772 1157 L1709 1220 Z" /></g><g class="o"><path transform="translate(6,12)" class="S sfh" d="M1917 1411 L2018 1310 L2054 1310 L1953 1411 Z"/><path class="fh7" d="M1917 1411 L2018 1310 L2054 1310 L1953 1411 Z" /></g><g class="o"><path transform="translate(9,18)" class="S sfh" d="M1763 1612 L1840 1535 L1858 1535 L1781 1612 Z"/><path class="fh4" d="M1763 1612 L1840 1535 L1858 1535 L1781 1612 Z" /></g><g class="o"><path transform="translate(7,14)" class="S ssv" d="M1623 1679 L1860 1916 L1860 1942 L1623 1705 Z"/><path class="sv5" d="M1623 1679 L1860 1916 L1860 1942 L1623 1705 Z" /></g><g class="o"><path transform="translate(6,12)" class="S sfh" d="M1726 1314 L1966 1554 L2004 1554 L1764 1314 Z"/><path class="fh1" d="M1726 1314 L1966 1554 L2004 1554 L1764 1314 Z" /></g></g><use href="#slashes" transform-origin="1500 1500" transform="rotate(180) scale(2)"/></g><polyline points="1500,1010 1990,1500 1500,1990 1010,1500 1500,1010 1990,1500" stroke-width="10" class="o fs" /><use href="#slashes" transform-origin="1500 1500" transform="scale(.9)"/><use href="#slashes" transform-origin="1500 1500" transform="rotate(180) scale(.9)"/></svg>