<svg xmlns="http://www.w3.org/2000/svg" viewBox="750 750 1500 1500"><style>/*<![CDATA[*/svg{background:rgb(34,116,165);max-width:100vw;max-height:100vh}path{stroke-width:4}.o{opacity:.75}.S{opacity:.4}.sf{stroke:none;fill:black}.sfh{stroke:none;fill:url(#hs)}.sfv{stroke:none;fill:url(#vs)}.ss{stroke:black;fill:none}.ssh{stroke:url(#hs);fill:none}.ssv{stroke:url(#vs);fill:none}.s1{fill:none;stroke:rgb(232,63,111)}.f1{stroke:none;fill:rgb(232,63,111)}.sh1{fill:none;stroke:url(#h1)}.fh1{stroke:none;fill:url(#h1)}.sv1{fill:none;stroke:url(#v1)}.fv1{stroke:none;fill:url(#v1)}.s2{fill:none;stroke:rgb(255,191,0)}.f2{stroke:none;fill:rgb(255,191,0)}.sh2{fill:none;stroke:url(#h2)}.fh2{stroke:none;fill:url(#h2)}.sv2{fill:none;stroke:url(#v2)}.fv2{stroke:none;fill:url(#v2)}.s3{fill:none;stroke:rgb(255,255,255)}.f3{stroke:none;fill:rgb(255,255,255)}.sh3{fill:none;stroke:url(#h3)}.fh3{stroke:none;fill:url(#h3)}.sv3{fill:none;stroke:url(#v3)}.fv3{stroke:none;fill:url(#v3)}.s4{fill:none;stroke:rgb(34,34,34)}.f4{stroke:none;fill:rgb(34,34,34)}.sh4{fill:none;stroke:url(#h4)}.fh4{stroke:none;fill:url(#h4)}.sv4{fill:none;stroke:url(#v4)}.fv4{stroke:none;fill:url(#v4)}.s5{fill:none;stroke:rgb(50,147,111)}.f5{stroke:none;fill:rgb(50,147,111)}.sh5{fill:none;stroke:url(#h5)}.fh5{stroke:none;fill:url(#h5)}.sv5{fill:none;stroke:url(#v5)}.fv5{stroke:none;fill:url(#v5)}.s6{fill:none;stroke:rgb(255,255,255)}.f6{stroke:none;fill:rgb(255,255,255)}.sh6{fill:none;stroke:url(#h6)}.fh6{stroke:none;fill:url(#h6)}.sv6{fill:none;stroke:url(#v6)}.fv6{stroke:none;fill:url(#v6)}.s7{fill:none;stroke:rgb(255,255,0)}.f7{stroke:none;fill:rgb(255,255,0)}.sh7{fill:none;stroke:url(#h7)}.fh7{stroke:none;fill:url(#h7)}.sv7{fill:none;stroke:url(#v7)}.fv7{stroke:none;fill:url(#v7)}/*]]>*/</style><defs><linearGradient gradientTransform="rotate(90)" id="hs"><stop offset="20%" stop-color="#000" /><stop offset="95%" stop-color="rgba(0, 0, 0, 0)" /></linearGradient><linearGradient id="vs"><stop offset="20%" stop-color="#000" /><stop offset="95%" stop-color="rgba(0, 0, 0, 0)" /></linearGradient><linearGradient gradientTransform="rotate(90)" id="h1"><stop offset="20%" stop-color="rgba(232,63,111,1)" /><stop offset="95%" stop-color="rgba(232,63,111,0)" /></linearGradient><linearGradient id="v1"><stop offset="20%" stop-color="rgba(232,63,111,1)" /><stop offset="95%" stop-color="rgba(232,63,111,0)" /></linearGradient><linearGradient gradientTransform="rotate(90)" id="h2"><stop offset="20%" stop-color="rgba(255,191,0,1)" /><stop offset="95%" stop-color="rgba(255,191,0,0)" /></linearGradient><linearGradient id="v2"><stop offset="20%" stop-color="rgba(255,191,0,1)" /><stop offset="95%" stop-color="rgba(255,191,0,0)" /></linearGradient><linearGradient gradientTransform="rotate(90)" id="h3"><stop offset="20%" stop-color="rgba(255,255,255,1)" /><stop offset="95%" stop-color="rgba(255,255,255,0)" /></linearGradient><linearGradient id="v3"><stop offset="20%" stop-color="rgba(255,255,255,1)" /><stop offset="95%" stop-color="rgba(255,255,255,0)" /></linearGradient><linearGradient gradientTransform="rotate(90)" id="h4"><stop offset="20%" stop-color="rgba(34,34,34,1)" /><stop offset="95%" stop-color="rgba(34,34,34,0)" /></linearGradient><linearGradient id="v4"><stop offset="20%" stop-color="rgba(34,34,34,1)" /><stop offset="95%" stop-color="rgba(34,34,34,0)" /></linearGradient><linearGradient gradientTransform="rotate(90)" id="h5"><stop offset="20%" stop-color="rgba(50,147,111,1)" /><stop offset="95%" stop-color="rgba(50,147,111,0)" /></linearGradient><linearGradient id="v5"><stop offset="20%" stop-color="rgba(50,147,111,1)" /><stop offset="95%" stop-color="rgba(50,147,111,0)" /></linearGradient><linearGradient gradientTransform="rotate(90)" id="h6"><stop offset="20%" stop-color="rgba(255,255,255,1)" /><stop offset="95%" stop-color="rgba(255,255,255,0)" /></linearGradient><linearGradient id="v6"><stop offset="20%" stop-color="rgba(255,255,255,1)" /><stop offset="95%" stop-color="rgba(255,255,255,0)" /></linearGradient><linearGradient gradientTransform="rotate(90)" id="h7"><stop offset="20%" stop-color="rgba(255,255,0,1)" /><stop offset="95%" stop-color="rgba(255,255,0,0)" /></linearGradient><linearGradient id="v7"><stop offset="20%" stop-color="rgba(255,255,0,1)" /><stop offset="95%" stop-color="rgba(255,255,0,0)" /></linearGradient></defs><g transform-origin="1500 1500" transform="scale(2)" opacity=".2"><g id="slashes"><g class="o"><path transform="translate(2,4)" class="S sfh" d="M1528 1010 L1702 836 L1730 836 L1556 1010 Z"/><path class="fh1" d="M1528 1010 L1702 836 L1730 836 L1556 1010 Z" /></g><g class="o"><path transform="translate(7,14)" class="S sfh" d="M1381 1798 L1954 1225 L1986 1225 L1413 1798 Z"/><path class="fh3" d="M1381 1798 L1954 1225 L1986 1225 L1413 1798 Z" /></g><g class="o"><path transform="translate(3,6)" class="S sfv" d="M1114 1918 L1339 1693 L1339 1713 L1114 1938 Z"/><path class="fv6" d="M1114 1918 L1339 1693 L1339 1713 L1114 1938 Z" /></g><g class="o"><path transform="translate(4,8)" class="S sfh" d="M1540 1033 L1819 754 L1831 754 L1552 1033 Z"/><path class="fh6" d="M1540 1033 L1819 754 L1831 754 L1552 1033 Z" /></g><g class="o"><path transform="translate(4,8)" class="S sfv" d="M1396 1463 L1459 1526 L1459 1556 L1396 1493 Z"/><path class="fv1" d="M1396 1463 L1459 1526 L1459 1556 L1396 1493 Z" /></g><g class="o"><path transform="translate(4,8)" class="S sfv" d="M1993 1359 L2129 1495 L2129 1505 L1993 1369 Z"/><path class="fv6" d="M1993 1359 L2129 1495 L2129 1505 L1993 1369 Z" /></g><g class="o"><path transform="translate(6,12)" class="S sfv" d="M1365 1632 L1584 1851 L1584 1861 L1365 1642 Z"/><path class="fv2" d="M1365 1632 L1584 1851 L1584 1861 L1365 1642 Z" /></g><g class="o"><path transform="translate(6,12)" class="S sfv" d="M1119 1132 L1329 1342 L1329 1352 L1119 1142 Z"/><path class="fv5" d="M1119 1132 L1329 1342 L1329 1352 L1119 1142 Z" /></g><g class="o"><path transform="translate(7,14)" class="S sfv" d="M1498 937 L1993 1432 L1993 1466 L1498 971 Z"/><path class="fv6" d="M1498 937 L1993 1432 L1993 1466 L1498 971 Z" /></g><g class="o"><path transform="translate(5,10)" class="S sfv" d="M1549 1504 L2104 2059 L2104 2077 L1549 1522 Z"/><path class="fv3" d="M1549 1504 L2104 2059 L2104 2077 L1549 1522 Z" /></g><g class="o"><path transform="translate(6,12)" class="S sfv" d="M1698 1619 L1864 1453 L1864 1479 L1698 1645 Z"/><path class="fv6" d="M1698 1619 L1864 1453 L1864 1479 L1698 1645 Z" /></g><g class="o"><path transform="translate(8,16)" class="S sfh" d="M972 1862 L1145 1689 L1165 1689 L992 1862 Z"/><path class="fh6" d="M972 1862 L1145 1689 L1165 1689 L992 1862 Z" /></g><g class="o"><path transform="translate(3,6)" class="S sfh" d="M1579 1500 L1810 1731 L1838 1731 L1607 1500 Z"/><path class="fh3" d="M1579 1500 L1810 1731 L1838 1731 L1607 1500 Z" /></g><g class="o"><path transform="translate(9,18)" class="S sfh" d="M1990 1001 L2455 1466 L2463 1466 L1998 1001 Z"/><path class="fh7" d="M1990 1001 L2455 1466 L2463 1466 L1998 1001 Z" /></g><g class="o"><path transform="translate(8,16)" class="S ssh" d="M1905 1785 L2059 1631 L2091 1631 L1937 1785 Z"/><path class="sh5" d="M1905 1785 L2059 1631 L2091 1631 L1937 1785 Z" /></g><g class="o"><path transform="translate(7,14)" class="S sfv" d="M1121 1885 L1262 1744 L1262 1762 L1121 1903 Z"/><path class="fv3" d="M1121 1885 L1262 1744 L1262 1762 L1121 1903 Z" /></g><g class="o"><path transform="translate(8,16)" class="S sfv" d="M1410 2034 L1470 2094 L1470 2112 L1410 2052 Z"/><path class="fv4" d="M1410 2034 L1470 2094 L1470 2112 L1410 2052 Z" /></g><g class="o"><path transform="translate(2,4)" class="S sfv" d="M1026 977 L1249 1200 L1249 1232 L1026 1009 Z"/><path class="fv7" d="M1026 977 L1249 1200 L1249 1232 L1026 1009 Z" /></g><g class="o"><path transform="translate(8,16)" class="S sfh" d="M1484 1921 L1646 2083 L1798 2083 L1636 1921 Z"/><path class="fh2" d="M1484 1921 L1646 2083 L1798 2083 L1636 1921 Z" /></g><g class="o"><path transform="translate(6,12)" class="S sfh" d="M1367 1535 L1934 2102 L1972 2102 L1405 1535 Z"/><path class="fh1" d="M1367 1535 L1934 2102 L1972 2102 L1405 1535 Z" /></g><g class="o"><path transform="translate(6,12)" class="S sfv" d="M1608 1278 L2124 1794 L2124 1834 L1608 1318 Z"/><path class="fv3" d="M1608 1278 L2124 1794 L2124 1834 L1608 1318 Z" /></g><g class="o"><path transform="translate(2,4)" class="S sf" d="M1748 1440 L2114 1806 L2126 1806 L1760 1440 Z"/><path class="f5" d="M1748 1440 L2114 1806 L2126 1806 L1760 1440 Z" /></g><g class="o"><path transform="translate(4,8)" class="S sfh" d="M1129 1778 L1182 1725 L1200 1725 L1147 1778 Z"/><path class="fh5" d="M1129 1778 L1182 1725 L1200 1725 L1147 1778 Z" /></g><g class="o"><path transform="translate(5,10)" class="S sfh" d="M1533 1477 L1719 1663 L1741 1663 L1555 1477 Z"/><path class="fh6" d="M1533 1477 L1719 1663 L1741 1663 L1555 1477 Z" /></g><g class="o"><path transform="translate(2,4)" class="S sfh" d="M1050 2030 L1710 2690 L1746 2690 L1086 2030 Z"/><path class="fh1" d="M1050 2030 L1710 2690 L1746 2690 L1086 2030 Z" /></g><g class="o"><path transform="translate(4,8)" class="S sf" d="M1138 1964 L1384 2210 L1416 2210 L1170 1964 Z"/><path class="f3" d="M1138 1964 L1384 2210 L1416 2210 L1170 1964 Z" /></g><g class="o"><path transform="translate(7,14)" class="S sfh" d="M1836 1398 L2080 1154 L2100 1154 L1856 1398 Z"/><path class="fh4" d="M1836 1398 L2080 1154 L2100 1154 L1856 1398 Z" /></g><g class="o"><path transform="translate(5,10)" class="S sfh" d="M1004 1629 L1078 1703 L1106 1703 L1032 1629 Z"/><path class="fh4" d="M1004 1629 L1078 1703 L1106 1703 L1032 1629 Z" /></g><g class="o"><path transform="translate(9,18)" class="S sf" d="M1581 1911 L1992 1500 L1992 1532 L1581 1943 Z"/><path class="f4" d="M1581 1911 L1992 1500 L1992 1532 L1581 1943 Z" /></g><g class="o"><path transform="translate(9,18)" class="S sfh" d="M1212 1387 L1935 664 L1951 664 L1228 1387 Z"/><path class="fh1" d="M1212 1387 L1935 664 L1951 664 L1228 1387 Z" /></g><g class="o"><path transform="translate(6,12)" class="S sfv" d="M1871 1520 L2141 1250 L2141 1278 L1871 1548 Z"/><path class="fv3" d="M1871 1520 L2141 1250 L2141 1278 L1871 1548 Z" /></g><g class="o"><path transform="translate(5,10)" class="S sfh" d="M1339 2028 L1568 2257 L1580 2257 L1351 2028 Z"/><path class="fh4" d="M1339 2028 L1568 2257 L1580 2257 L1351 2028 Z" /></g><g class="o"><path transform="translate(3,6)" class="S ssh" d="M1042 1044 L1321 765 L1339 765 L1060 1044 Z"/><path class="sh7" d="M1042 1044 L1321 765 L1339 765 L1060 1044 Z" /></g><g class="o"><path transform="translate(9,18)" class="S sfh" d="M1895 1558 L2585 868 L2621 868 L1931 1558 Z"/><path class="fh3" d="M1895 1558 L2585 868 L2621 868 L1931 1558 Z" /></g><g class="o"><path transform="translate(6,12)" class="S sfv" d="M1238 1920 L1484 2166 L1484 2178 L1238 1932 Z"/><path class="fv1" d="M1238 1920 L1484 2166 L1484 2178 L1238 1932 Z" /></g><g class="o"><path transform="translate(9,18)" class="S ssv" d="M1232 1546 L1307 1621 L1307 1631 L1232 1556 Z"/><path class="sv5" d="M1232 1546 L1307 1621 L1307 1631 L1232 1556 Z" /></g><g class="o"><path transform="translate(9,18)" class="S sfv" d="M1598 1119 L1943 1464 L1943 1490 L1598 1145 Z"/><path class="fv6" d="M1598 1119 L1943 1464 L1943 1490 L1598 1145 Z" /></g><g class="o"><path transform="translate(5,10)" class="S sfv" d="M1127 1714 L1357 1484 L1357 1512 L1127 1742 Z"/><path class="fv4" d="M1127 1714 L1357 1484 L1357 1512 L1127 1742 Z" /></g><g class="o"><path transform="translate(7,14)" class="S ssv" d="M1433 1302 L1545 1414 L1545 1430 L1433 1318 Z"/><path class="sv7" d="M1433 1302 L1545 1414 L1545 1430 L1433 1318 Z" /></g><g class="o"><path transform="translate(3,6)" class="S sfh" d="M1655 1383 L1757 1281 L1781 1281 L1679 1383 Z"/><path class="fh7" d="M1655 1383 L1757 1281 L1781 1281 L1679 1383 Z" /></g><g class="o"><path transform="translate(6,12)" class="S sfh" d="M1242 2048 L1806 2612 L1818 2612 L1254 2048 Z"/><path class="fh3" d="M1242 2048 L1806 2612 L1818 2612 L1254 2048 Z" /></g><g class="o"><path transform="translate(7,14)" class="S sfh" d="M1153 1150 L1332 971 L1354 971 L1175 1150 Z"/><path class="fh7" d="M1153 1150 L1332 971 L1354 971 L1175 1150 Z" /></g><g class="o"><path transform="translate(4,8)" class="S sf" d="M2008 1816 L2204 2012 L2204 2032 L2008 1836 Z"/><path class="f2" d="M2008 1816 L2204 2012 L2204 2032 L2008 1836 Z" /></g><g class="o"><path transform="translate(2,4)" class="S sfv" d="M1508 1125 L1688 945 L1688 957 L1508 1137 Z"/><path class="fv7" d="M1508 1125 L1688 945 L1688 957 L1508 1137 Z" /></g><g class="o"><path transform="translate(5,10)" class="S sfh" d="M1931 1953 L2387 2409 L2507 2409 L2051 1953 Z"/><path class="fh2" d="M1931 1953 L2387 2409 L2507 2409 L2051 1953 Z" /></g><g class="o"><path transform="translate(5,10)" class="S sf" d="M1451 1934 L1642 1743 L1660 1743 L1469 1934 Z"/><path class="f7" d="M1451 1934 L1642 1743 L1660 1743 L1469 1934 Z" /></g><g class="o"><path transform="translate(2,4)" class="S sfh" d="M1789 1183 L1853 1247 L1875 1247 L1811 1183 Z"/><path class="fh5" d="M1789 1183 L1853 1247 L1875 1247 L1811 1183 Z" /></g><g class="o"><path transform="translate(2,4)" class="S sf" d="M1444 1591 L1870 1165 L1878 1165 L1452 1591 Z"/><path class="f4" d="M1444 1591 L1870 1165 L1878 1165 L1452 1591 Z" /></g><g class="o"><path transform="translate(2,4)" class="S sfh" d="M1098 1686 L1518 1266 L1556 1266 L1136 1686 Z"/><path class="fh3" d="M1098 1686 L1518 1266 L1556 1266 L1136 1686 Z" /></g><g class="o"><path transform="translate(6,12)" class="S ss" d="M1224 1643 L1426 1441 L1442 1441 L1240 1643 Z"/><path class="s7" d="M1224 1643 L1426 1441 L1442 1441 L1240 1643 Z" /></g><g class="o"><path transform="translate(4,8)" class="S sfh" d="M1221 1963 L1459 2201 L1475 2201 L1237 1963 Z"/><path class="fh5" d="M1221 1963 L1459 2201 L1475 2201 L1237 1963 Z" /></g><g class="o"><path transform="translate(8,16)" class="S sf" d="M1481 1570 L2219 832 L2249 832 L1511 1570 Z"/><path class="f6" d="M1481 1570 L2219 832 L2249 832 L1511 1570 Z" /></g><g class="o"><path transform="translate(6,12)" class="S sfv" d="M1633 1340 L2113 860 L2113 890 L1633 1370 Z"/><path class="fv3" d="M1633 1340 L2113 860 L2113 890 L1633 1370 Z" /></g><g class="o"><path transform="translate(2,4)" class="S sf" d="M1953 1195 L2487 661 L2503 661 L1969 1195 Z"/><path class="f7" d="M1953 1195 L2487 661 L2503 661 L1969 1195 Z" /></g><g class="o"><path transform="translate(6,12)" class="S sfv" d="M1334 1248 L1547 1035 L1547 1059 L1334 1272 Z"/><path class="fv3" d="M1334 1248 L1547 1035 L1547 1059 L1334 1272 Z" /></g><g class="o"><path transform="translate(5,10)" class="S sfh" d="M1302 1362 L1548 1608 L1570 1608 L1324 1362 Z"/><path class="fh6" d="M1302 1362 L1548 1608 L1570 1608 L1324 1362 Z" /></g><g class="o"><path transform="translate(2,4)" class="S ssh" d="M1088 1566 L1235 1419 L1253 1419 L1106 1566 Z"/><path class="sh2" d="M1088 1566 L1235 1419 L1253 1419 L1106 1566 Z" /></g><g class="o"><path transform="translate(5,10)" class="S sfv" d="M1063 1689 L1237 1515 L1237 1529 L1063 1703 Z"/><path class="fv1" d="M1063 1689 L1237 1515 L1237 1529 L1063 1703 Z" /></g><g class="o"><path transform="translate(5,10)" class="S ssv" d="M1732 1989 L2251 1470 L2251 1496 L1732 2015 Z"/><path class="sv2" d="M1732 1989 L2251 1470 L2251 1496 L1732 2015 Z" /></g><g class="o"><path transform="translate(5,10)" class="S sf" d="M2004 1576 L2592 2164 L2600 2164 L2012 1576 Z"/><path class="f6" d="M2004 1576 L2592 2164 L2600 2164 L2012 1576 Z" /></g><g class="o"><path transform="translate(8,16)" class="S sfv" d="M1763 1036 L2426 373 L2426 401 L1763 1064 Z"/><path class="fv2" d="M1763 1036 L2426 373 L2426 401 L1763 1064 Z" /></g><g class="o"><path transform="translate(5,10)" class="S sfv" d="M1385 1409 L1606 1188 L1606 1200 L1385 1421 Z"/><path class="fv2" d="M1385 1409 L1606 1188 L1606 1200 L1385 1421 Z" /></g><g class="o"><path transform="translate(6,12)" class="S ssv" d="M2018 978 L2615 1575 L2615 1597 L2018 1000 Z"/><path class="sv6" d="M2018 978 L2615 1575 L2615 1597 L2018 1000 Z" /></g><g class="o"><path transform="translate(6,12)" class="S sfv" d="M1099 1816 L1423 2140 L1423 2152 L1099 1828 Z"/><path class="fv6" d="M1099 1816 L1423 2140 L1423 2152 L1099 1828 Z" /></g><g class="o"><path transform="translate(2,4)" class="S sfv" d="M1294 1410 L1527 1177 L1527 1187 L1294 1420 Z"/><path class="fv7" d="M1294 1410 L1527 1177 L1527 1187 L1294 1420 Z" /></g><g class="o"><path transform="translate(7,14)" class="S ssv" d="M1079 1182 L1234 1027 L1234 1067 L1079 1222 Z"/><path class="sv3" d="M1079 1182 L1234 1027 L1234 1067 L1079 1222 Z" /></g><g class="o"><path transform="translate(8,16)" class="S sfv" d="M1375 1729 L1540 1894 L1540 1920 L1375 1755 Z"/><path class="fv1" d="M1375 1729 L1540 1894 L1540 1920 L1375 1755 Z" /></g><g class="o"><path transform="translate(6,12)" class="S sfh" d="M1785 1266 L1967 1084 L1977 1084 L1795 1266 Z"/><path class="fh3" d="M1785 1266 L1967 1084 L1977 1084 L1795 1266 Z" /></g><g class="o"><path transform="translate(8,16)" class="S sf" d="M1386 958 L1564 780 L1594 780 L1416 958 Z"/><path class="f3" d="M1386 958 L1564 780 L1594 780 L1416 958 Z" /></g><g class="o"><path transform="translate(7,14)" class="S sf" d="M1714 1031 L2449 296 L2449 408 L1714 1143 Z"/><path class="f7" d="M1714 1031 L2449 296 L2449 408 L1714 1143 Z" /></g><g class="o"><path transform="translate(4,8)" class="S sfh" d="M1978 1573 L2611 2206 L2643 2206 L2010 1573 Z"/><path class="fh5" d="M1978 1573 L2611 2206 L2643 2206 L2010 1573 Z" /></g><g class="o"><path transform="translate(2,4)" class="S ssv" d="M1376 1985 L1646 1715 L1646 1741 L1376 2011 Z"/><path class="sv3" d="M1376 1985 L1646 1715 L1646 1741 L1376 2011 Z" /></g><g class="o"><path transform="translate(5,10)" class="S sfv" d="M1775 1727 L1958 1910 L1958 1920 L1775 1737 Z"/><path class="fv1" d="M1775 1727 L1958 1910 L1958 1920 L1775 1737 Z" /></g><g class="o"><path transform="translate(5,10)" class="S sfh" d="M1614 1956 L1719 2061 L1815 2061 L1710 1956 Z"/><path class="fh7" d="M1614 1956 L1719 2061 L1815 2061 L1710 1956 Z" /></g><g class="o"><path transform="translate(6,12)" class="S ss" d="M1970 1031 L2369 1430 L2401 1430 L2002 1031 Z"/><path class="s6" d="M1970 1031 L2369 1430 L2401 1430 L2002 1031 Z" /></g><g class="o"><path transform="translate(2,4)" class="S ssv" d="M1099 1808 L1154 1863 L1154 1873 L1099 1818 Z"/><path class="sv2" d="M1099 1808 L1154 1863 L1154 1873 L1099 1818 Z" /></g><g class="o"><path transform="translate(7,14)" class="S sfh" d="M1454 1147 L2135 466 L2153 466 L1472 1147 Z"/><path class="fh3" d="M1454 1147 L2135 466 L2153 466 L1472 1147 Z" /></g><g class="o"><path transform="translate(7,14)" class="S sfv" d="M1500 1232 L1863 869 L1863 897 L1500 1260 Z"/><path class="fv4" d="M1500 1232 L1863 869 L1863 897 L1500 1260 Z" /></g><g class="o"><path transform="translate(3,6)" class="S ssh" d="M1971 1081 L2218 834 L2230 834 L1983 1081 Z"/><path class="sh3" d="M1971 1081 L2218 834 L2230 834 L1983 1081 Z" /></g><g class="o"><path transform="translate(6,12)" class="S sfh" d="M1885 969 L2004 1088 L2044 1088 L1925 969 Z"/><path class="fh2" d="M1885 969 L2004 1088 L2044 1088 L1925 969 Z" /></g><g class="o"><path transform="translate(7,14)" class="S sfh" d="M2008 1910 L2599 2501 L2635 2501 L2044 1910 Z"/><path class="fh7" d="M2008 1910 L2599 2501 L2635 2501 L2044 1910 Z" /></g><g class="o"><path transform="translate(6,12)" class="S sf" d="M1300 1915 L2038 2653 L2046 2653 L1308 1915 Z"/><path class="f5" d="M1300 1915 L2038 2653 L2046 2653 L1308 1915 Z" /></g><g class="o"><path transform="translate(7,14)" class="S sf" d="M1614 1519 L2058 1075 L2084 1075 L1640 1519 Z"/><path class="f3" d="M1614 1519 L2058 1075 L2084 1075 L1640 1519 Z" /></g><g class="o"><path transform="translate(4,8)" class="S sfv" d="M1061 1115 L1724 1778 L1724 1790 L1061 1127 Z"/><path class="fv1" d="M1061 1115 L1724 1778 L1724 1790 L1061 1127 Z" /></g><g class="o"><path transform="translate(2,4)" class="S ssv" d="M1896 1226 L2073 1049 L2073 1065 L1896 1242 Z"/><path class="sv4" d="M1896 1226 L2073 1049 L2073 1065 L1896 1242 Z" /></g><g class="o"><path transform="translate(4,8)" class="S sfh" d="M1374 1523 L1530 1367 L1560 1367 L1404 1523 Z"/><path class="fh1" d="M1374 1523 L1530 1367 L1560 1367 L1404 1523 Z" /></g><g class="o"><path transform="translate(4,8)" class="S sfv" d="M1021 1021 L1125 917 L1125 1013 L1021 1117 Z"/><path class="fv3" d="M1021 1021 L1125 917 L1125 1013 L1021 1117 Z" /></g><g class="o"><path transform="translate(7,14)" class="S sf" d="M1819 1315 L2383 1879 L2399 1879 L1835 1315 Z"/><path class="f4" d="M1819 1315 L2383 1879 L2399 1879 L1835 1315 Z" /></g><g class="o"><path transform="translate(7,14)" class="S ssv" d="M2022 1691 L2221 1890 L2221 1916 L2022 1717 Z"/><path class="sv4" d="M2022 1691 L2221 1890 L2221 1916 L2022 1717 Z" /></g><g class="o"><path transform="translate(3,6)" class="S sfh" d="M1500 1094 L1681 913 L1721 913 L1540 1094 Z"/><path class="fh3" d="M1500 1094 L1681 913 L1721 913 L1540 1094 Z" /></g><g class="o"><path transform="translate(9,18)" class="S sfh" d="M1059 1999 L1180 1878 L1208 1878 L1087 1999 Z"/><path class="fh1" d="M1059 1999 L1180 1878 L1208 1878 L1087 1999 Z" /></g><g class="o"><path transform="translate(9,18)" class="S sfh" d="M1660 1533 L1740 1613 L1772 1613 L1692 1533 Z"/><path class="fh1" d="M1660 1533 L1740 1613 L1772 1613 L1692 1533 Z" /></g><g class="o"><path transform="translate(6,12)" class="S sfv" d="M1434 1603 L1656 1825 L1656 1861 L1434 1639 Z"/><path class="fv7" d="M1434 1603 L1656 1825 L1656 1861 L1434 1639 Z" /></g><g class="o"><path transform="translate(7,14)" class="S ssh" d="M1751 1417 L2258 910 L2282 910 L1775 1417 Z"/><path class="sh2" d="M1751 1417 L2258 910 L2282 910 L1775 1417 Z" /></g><g class="o"><path transform="translate(7,14)" class="S ssh" d="M1310 1886 L1520 2096 L1548 2096 L1338 1886 Z"/><path class="sh2" d="M1310 1886 L1520 2096 L1548 2096 L1338 1886 Z" /></g><g class="o"><path transform="translate(4,8)" class="S sf" d="M1570 1947 L1942 2319 L1942 2347 L1570 1975 Z"/><path class="f1" d="M1570 1947 L1942 2319 L1942 2347 L1570 1975 Z" /></g><g class="o"><path transform="translate(3,6)" class="S sf" d="M1577 1810 L1808 1579 L1808 1601 L1577 1832 Z"/><path class="f5" d="M1577 1810 L1808 1579 L1808 1601 L1577 1832 Z" /></g><g class="o"><path transform="translate(8,16)" class="S sfh" d="M1718 1501 L2360 859 L2390 859 L1748 1501 Z"/><path class="fh6" d="M1718 1501 L2360 859 L2390 859 L1748 1501 Z" /></g><g class="o"><path transform="translate(2,4)" class="S ssh" d="M1429 1004 L1594 1169 L1622 1169 L1457 1004 Z"/><path class="sh5" d="M1429 1004 L1594 1169 L1622 1169 L1457 1004 Z" /></g><g class="o"><path transform="translate(6,12)" class="S sf" d="M1147 1381 L1723 1957 L1739 1957 L1163 1381 Z"/><path class="f6" d="M1147 1381 L1723 1957 L1739 1957 L1163 1381 Z" /></g><g class="o"><path transform="translate(6,12)" class="S sfv" d="M1480 1654 L1690 1864 L1690 1896 L1480 1686 Z"/><path class="fv5" d="M1480 1654 L1690 1864 L1690 1896 L1480 1686 Z" /></g><g class="o"><path transform="translate(8,16)" class="S ssh" d="M1635 1033 L1869 799 L1907 799 L1673 1033 Z"/><path class="sh3" d="M1635 1033 L1869 799 L1907 799 L1673 1033 Z" /></g><g class="o"><path transform="translate(7,14)" class="S sfh" d="M1824 1318 L2253 889 L2281 889 L1852 1318 Z"/><path class="fh1" d="M1824 1318 L2253 889 L2281 889 L1852 1318 Z" /></g><g class="o"><path transform="translate(3,6)" class="S sfv" d="M1331 1915 L1565 2149 L1565 2187 L1331 1953 Z"/><path class="fv7" d="M1331 1915 L1565 2149 L1565 2187 L1331 1953 Z" /></g><g class="o"><path transform="translate(8,16)" class="S ssv" d="M975 1135 L1201 909 L1201 957 L975 1183 Z"/><path class="sv5" d="M975 1135 L1201 909 L1201 957 L975 1183 Z" /></g><g class="o"><path transform="translate(7,14)" class="S ssh" d="M1048 1969 L1339 2260 L1359 2260 L1068 1969 Z"/><path class="sh3" d="M1048 1969 L1339 2260 L1359 2260 L1068 1969 Z" /></g><g class="o"><path transform="translate(4,8)" class="S sfv" d="M1687 1379 L1837 1229 L1837 1247 L1687 1397 Z"/><path class="fv4" d="M1687 1379 L1837 1229 L1837 1247 L1687 1397 Z" /></g><g class="o"><path transform="translate(4,8)" class="S sfh" d="M1084 1286 L1200 1170 L1236 1170 L1120 1286 Z"/><path class="fh3" d="M1084 1286 L1200 1170 L1236 1170 L1120 1286 Z" /></g><g class="o"><path transform="translate(9,18)" class="S sfv" d="M1351 1891 L1536 1706 L1536 1724 L1351 1909 Z"/><path class="fv1" d="M1351 1891 L1536 1706 L1536 1724 L1351 1909 Z" /></g><g class="o"><path transform="translate(6,12)" class="S sfv" d="M2006 951 L2211 1156 L2211 1164 L2006 959 Z"/><path class="fv1" d="M2006 951 L2211 1156 L2211 1164 L2006 959 Z" /></g><g class="o"><path transform="translate(2,4)" class="S sfv" d="M1894 1620 L2061 1787 L2061 1811 L1894 1644 Z"/><path class="fv3" d="M1894 1620 L2061 1787 L2061 1811 L1894 1644 Z" /></g><g class="o"><path transform="translate(3,6)" class="S sfv" d="M1070 1544 L1322 1796 L1322 1818 L1070 1566 Z"/><path class="fv3" d="M1070 1544 L1322 1796 L1322 1818 L1070 1566 Z" /></g><g class="o"><path transform="translate(5,10)" class="S sf" d="M1162 2019 L1396 1785 L1428 1785 L1194 2019 Z"/><path class="f4" d="M1162 2019 L1396 1785 L1428 1785 L1194 2019 Z" /></g><g class="o"><path transform="translate(4,8)" class="S sfv" d="M1873 1138 L2107 1372 L2107 1396 L1873 1162 Z"/><path class="fv4" d="M1873 1138 L2107 1372 L2107 1396 L1873 1162 Z" /></g><g class="o"><path transform="translate(7,14)" class="S sfh" d="M1267 1237 L1456 1048 L1474 1048 L1285 1237 Z"/><path class="fh1" d="M1267 1237 L1456 1048 L1474 1048 L1285 1237 Z" /></g><g class="o"><path transform="translate(6,12)" class="S sfv" d="M1788 1817 L2481 2510 L2481 2526 L1788 1833 Z"/><path class="fv4" d="M1788 1817 L2481 2510 L2481 2526 L1788 1833 Z" /></g><g class="o"><path transform="translate(9,18)" class="S sfh" d="M957 950 L1088 1081 L1112 1081 L981 950 Z"/><path class="fh7" d="M957 950 L1088 1081 L1112 1081 L981 950 Z" /></g><g class="o"><path transform="translate(4,8)" class="S sfv" d="M1216 1593 L1537 1914 L1537 1926 L1216 1605 Z"/><path class="fv3" d="M1216 1593 L1537 1914 L1537 1926 L1216 1605 Z" /></g><g class="o"><path transform="translate(9,18)" class="S sfh" d="M997 1917 L1171 2091 L1195 2091 L1021 1917 Z"/><path class="fh2" d="M997 1917 L1171 2091 L1195 2091 L1021 1917 Z" /></g><g class="o"><path transform="translate(8,16)" class="S sfh" d="M1430 1034 L1826 1430 L1846 1430 L1450 1034 Z"/><path class="fh1" d="M1430 1034 L1826 1430 L1846 1430 L1450 1034 Z" /></g><g class="o"><path transform="translate(6,12)" class="S sfh" d="M1025 1490 L1153 1618 L1187 1618 L1059 1490 Z"/><path class="fh7" d="M1025 1490 L1153 1618 L1187 1618 L1059 1490 Z" /></g><g class="o"><path transform="translate(5,10)" class="S sfh" d="M1397 1165 L1548 1316 L1560 1316 L1409 1165 Z"/><path class="fh3" d="M1397 1165 L1548 1316 L1560 1316 L1409 1165 Z" /></g><g class="o"><path transform="translate(8,16)" class="S ss" d="M1934 1817 L2014 1897 L2014 1933 L1934 1853 Z"/><path class="s6" d="M1934 1817 L2014 1897 L2014 1933 L1934 1853 Z" /></g><g class="o"><path transform="translate(6,12)" class="S sf" d="M1133 1813 L1240 1706 L1252 1706 L1145 1813 Z"/><path class="f6" d="M1133 1813 L1240 1706 L1252 1706 L1145 1813 Z" /></g><g class="o"><path transform="translate(9,18)" class="S sfh" d="M1889 1423 L2053 1259 L2061 1259 L1897 1423 Z"/><path class="fh7" d="M1889 1423 L2053 1259 L2061 1259 L1897 1423 Z" /></g><g class="o"><path transform="translate(8,16)" class="S sfv" d="M1032 1143 L1245 930 L1245 958 L1032 1171 Z"/><path class="fv4" d="M1032 1143 L1245 930 L1245 958 L1032 1171 Z" /></g><g class="o"><path transform="translate(3,6)" class="S sf" d="M2018 962 L2186 794 L2186 820 L2018 988 Z"/><path class="f3" d="M2018 962 L2186 794 L2186 820 L2018 988 Z" /></g><g class="o"><path transform="translate(4,8)" class="S sfv" d="M1858 1331 L2263 1736 L2263 1756 L1858 1351 Z"/><path class="fv5" d="M1858 1331 L2263 1736 L2263 1756 L1858 1351 Z" /></g><g class="o"><path transform="translate(2,4)" class="S sfh" d="M1761 1985 L2004 2228 L2016 2228 L1773 1985 Z"/><path class="fh7" d="M1761 1985 L2004 2228 L2016 2228 L1773 1985 Z" /></g><g class="o"><path transform="translate(6,12)" class="S sfv" d="M1786 943 L1860 869 L1860 905 L1786 979 Z"/><path class="fv1" d="M1786 943 L1860 869 L1860 905 L1786 979 Z" /></g><g class="o"><path transform="translate(3,6)" class="S ssh" d="M2014 1852 L2066 1800 L2084 1800 L2032 1852 Z"/><path class="sh5" d="M2014 1852 L2066 1800 L2084 1800 L2032 1852 Z" /></g><g class="o"><path transform="translate(5,10)" class="S sfh" d="M1525 1308 L1769 1064 L1807 1064 L1563 1308 Z"/><path class="fh7" d="M1525 1308 L1769 1064 L1807 1064 L1563 1308 Z" /></g><g class="o"><path transform="translate(9,18)" class="S sfv" d="M1636 1959 L2197 2520 L2197 2538 L1636 1977 Z"/><path class="fv2" d="M1636 1959 L2197 2520 L2197 2538 L1636 1977 Z" /></g><g class="o"><path transform="translate(2,4)" class="S sfv" d="M1509 1323 L1722 1110 L1722 1120 L1509 1333 Z"/><path class="fv4" d="M1509 1323 L1722 1110 L1722 1120 L1509 1333 Z" /></g><g class="o"><path transform="translate(3,6)" class="S sfv" d="M1709 987 L1921 775 L1921 799 L1709 1011 Z"/><path class="fv2" d="M1709 987 L1921 775 L1921 799 L1709 1011 Z" /></g><g class="o"><path transform="translate(8,16)" class="S ssv" d="M1398 1202 L1647 1451 L1647 1483 L1398 1234 Z"/><path class="sv2" d="M1398 1202 L1647 1451 L1647 1483 L1398 1234 Z" /></g><g class="o"><path transform="translate(3,6)" class="S ssh" d="M1222 1156 L1537 841 L1573 841 L1258 1156 Z"/><path class="sh5" d="M1222 1156 L1537 841 L1573 841 L1258 1156 Z" /></g><g class="o"><path transform="translate(5,10)" class="S ss" d="M994 1359 L1052 1417 L1052 1455 L994 1397 Z"/><path class="s7" d="M994 1359 L1052 1417 L1052 1455 L994 1397 Z" /></g><g class="o"><path transform="translate(8,16)" class="S sfv" d="M1908 1297 L2262 943 L2262 959 L1908 1313 Z"/><path class="fv1" d="M1908 1297 L2262 943 L2262 959 L1908 1313 Z" /></g><g class="o"><path transform="translate(7,14)" class="S sfv" d="M1814 1024 L2012 1222 L2012 1230 L1814 1032 Z"/><path class="fv7" d="M1814 1024 L2012 1222 L2012 1230 L1814 1032 Z" /></g></g><use href="#slashes" transform-origin="1500 1500" transform="rotate(180) scale(2)"/></g><rect x="1080" y="1080" width="840" height="840" stroke-width="10" class="o s5" /><use href="#slashes" transform-origin="1500 1500" transform="scale(.6)"/><use href="#slashes" transform-origin="1500 1500" transform="rotate(180) scale(.6)"/></svg>