<svg xmlns="http://www.w3.org/2000/svg" viewBox="750 750 1500 1500"><style>/*<![CDATA[*/svg{background:rgb(221,28,26);max-width:100vw;max-height:100vh}path{stroke-width:4}.o{opacity:.75}.S{opacity:.4}.sf{stroke:none;fill:black}.sfh{stroke:none;fill:url(#hs)}.sfv{stroke:none;fill:url(#vs)}.ss{stroke:black;fill:none}.ssh{stroke:url(#hs);fill:none}.ssv{stroke:url(#vs);fill:none}.s1{fill:none;stroke:rgb(6,174,213)}.f1{stroke:none;fill:rgb(6,174,213)}.sh1{fill:none;stroke:url(#h1)}.fh1{stroke:none;fill:url(#h1)}.sv1{fill:none;stroke:url(#v1)}.fv1{stroke:none;fill:url(#v1)}.s2{fill:none;stroke:rgb(34,34,34)}.f2{stroke:none;fill:rgb(34,34,34)}.sh2{fill:none;stroke:url(#h2)}.fh2{stroke:none;fill:url(#h2)}.sv2{fill:none;stroke:url(#v2)}.fv2{stroke:none;fill:url(#v2)}.s3{fill:none;stroke:rgb(240,200,8)}.f3{stroke:none;fill:rgb(240,200,8)}.sh3{fill:none;stroke:url(#h3)}.fh3{stroke:none;fill:url(#h3)}.sv3{fill:none;stroke:url(#v3)}.fv3{stroke:none;fill:url(#v3)}.s4{fill:none;stroke:rgb(8,103,136)}.f4{stroke:none;fill:rgb(8,103,136)}.sh4{fill:none;stroke:url(#h4)}.fh4{stroke:none;fill:url(#h4)}.sv4{fill:none;stroke:url(#v4)}.fv4{stroke:none;fill:url(#v4)}.s5{fill:none;stroke:rgb(255,241,208)}.f5{stroke:none;fill:rgb(255,241,208)}.sh5{fill:none;stroke:url(#h5)}.fh5{stroke:none;fill:url(#h5)}.sv5{fill:none;stroke:url(#v5)}.fv5{stroke:none;fill:url(#v5)}.s6{fill:none;stroke:rgb(255,255,255)}.f6{stroke:none;fill:rgb(255,255,255)}.sh6{fill:none;stroke:url(#h6)}.fh6{stroke:none;fill:url(#h6)}.sv6{fill:none;stroke:url(#v6)}.fv6{stroke:none;fill:url(#v6)}.s7{fill:none;stroke:rgb(255,255,0)}.f7{stroke:none;fill:rgb(255,255,0)}.sh7{fill:none;stroke:url(#h7)}.fh7{stroke:none;fill:url(#h7)}.sv7{fill:none;stroke:url(#v7)}.fv7{stroke:none;fill:url(#v7)}/*]]>*/</style><defs><linearGradient gradientTransform="rotate(90)" id="hs"><stop offset="20%" stop-color="#000" /><stop offset="95%" stop-color="rgba(0, 0, 0, 0)" /></linearGradient><linearGradient id="vs"><stop offset="20%" stop-color="#000" /><stop offset="95%" stop-color="rgba(0, 0, 0, 0)" /></linearGradient><linearGradient gradientTransform="rotate(90)" id="h1"><stop offset="20%" stop-color="rgba(6,174,213,1)" /><stop offset="95%" stop-color="rgba(6,174,213,0)" /></linearGradient><linearGradient id="v1"><stop offset="20%" stop-color="rgba(6,174,213,1)" /><stop offset="95%" stop-color="rgba(6,174,213,0)" /></linearGradient><linearGradient gradientTransform="rotate(90)" id="h2"><stop offset="20%" stop-color="rgba(34,34,34,1)" /><stop offset="95%" stop-color="rgba(34,34,34,0)" /></linearGradient><linearGradient id="v2"><stop offset="20%" stop-color="rgba(34,34,34,1)" /><stop offset="95%" stop-color="rgba(34,34,34,0)" /></linearGradient><linearGradient gradientTransform="rotate(90)" id="h3"><stop offset="20%" stop-color="rgba(240,200,8,1)" /><stop offset="95%" stop-color="rgba(240,200,8,0)" /></linearGradient><linearGradient id="v3"><stop offset="20%" stop-color="rgba(240,200,8,1)" /><stop offset="95%" stop-color="rgba(240,200,8,0)" /></linearGradient><linearGradient gradientTransform="rotate(90)" id="h4"><stop offset="20%" stop-color="rgba(8,103,136,1)" /><stop offset="95%" stop-color="rgba(8,103,136,0)" /></linearGradient><linearGradient id="v4"><stop offset="20%" stop-color="rgba(8,103,136,1)" /><stop offset="95%" stop-color="rgba(8,103,136,0)" /></linearGradient><linearGradient gradientTransform="rotate(90)" id="h5"><stop offset="20%" stop-color="rgba(255,241,208,1)" /><stop offset="95%" stop-color="rgba(255,241,208,0)" /></linearGradient><linearGradient id="v5"><stop offset="20%" stop-color="rgba(255,241,208,1)" /><stop offset="95%" stop-color="rgba(255,241,208,0)" /></linearGradient><linearGradient gradientTransform="rotate(90)" id="h6"><stop offset="20%" stop-color="rgba(255,255,255,1)" /><stop offset="95%" stop-color="rgba(255,255,255,0)" /></linearGradient><linearGradient id="v6"><stop offset="20%" stop-color="rgba(255,255,255,1)" /><stop offset="95%" stop-color="rgba(255,255,255,0)" /></linearGradient><linearGradient gradientTransform="rotate(90)" id="h7"><stop offset="20%" stop-color="rgba(255,255,0,1)" /><stop offset="95%" stop-color="rgba(255,255,0,0)" /></linearGradient><linearGradient id="v7"><stop offset="20%" stop-color="rgba(255,255,0,1)" /><stop offset="95%" stop-color="rgba(255,255,0,0)" /></linearGradient></defs><g transform-origin="1500 1500" transform="scale(2)" opacity=".2"><g id="slashes"><g class="o"><path transform="translate(9,18)" class="S sf" d="M1026 1781 L1389 2144 L1389 2200 L1026 1837 Z"/><path class="f7" d="M1026 1781 L1389 2144 L1389 2200 L1026 1837 Z" /></g><g class="o"><path transform="translate(2,4)" class="S sfv" d="M1410 1226 L1743 1559 L1743 1631 L1410 1298 Z"/><path class="fv6" d="M1410 1226 L1743 1559 L1743 1631 L1410 1298 Z" /></g><g class="o"><path transform="translate(7,14)" class="S sfh" d="M1498 1190 L1326 1362 L1362 1362 L1534 1190 Z"/><path class="fh7" d="M1498 1190 L1326 1362 L1362 1362 L1534 1190 Z" /></g><g class="o"><path transform="translate(2,4)" class="S sfh" d="M1288 1288 L1441 1441 L1463 1441 L1310 1288 Z"/><path class="fh2" d="M1288 1288 L1441 1441 L1463 1441 L1310 1288 Z" /></g><g class="o"><path transform="translate(6,12)" class="S sfh" d="M1694 1395 L1885 1586 L1913 1586 L1722 1395 Z"/><path class="fh5" d="M1694 1395 L1885 1586 L1913 1586 L1722 1395 Z" /></g><g class="o"><path transform="translate(9,18)" class="S sfh" d="M1977 1324 L2544 1891 L2600 1891 L2033 1324 Z"/><path class="fh2" d="M1977 1324 L2544 1891 L2600 1891 L2033 1324 Z" /></g><g class="o"><path transform="translate(4,8)" class="S sfv" d="M1706 1305 L1874 1473 L1874 1521 L1706 1353 Z"/><path class="fv2" d="M1706 1305 L1874 1473 L1874 1521 L1706 1353 Z" /></g><g class="o"><path transform="translate(2,4)" class="S sfv" d="M1948 1875 L1423 2400 L1423 2520 L1948 1995 Z"/><path class="fv4" d="M1948 1875 L1423 2400 L1423 2520 L1948 1995 Z" /></g><g class="o"><path transform="translate(8,16)" class="S sfh" d="M993 1313 L387 1919 L491 1919 L1097 1313 Z"/><path class="fh7" d="M993 1313 L387 1919 L491 1919 L1097 1313 Z" /></g><g class="o"><path transform="translate(6,12)" class="S sfh" d="M1310 1394 L1465 1549 L1477 1549 L1322 1394 Z"/><path class="fh5" d="M1310 1394 L1465 1549 L1477 1549 L1322 1394 Z" /></g><g class="o"><path transform="translate(9,18)" class="S sfv" d="M2000 1813 L2354 2167 L2354 2263 L2000 1909 Z"/><path class="fv2" d="M2000 1813 L2354 2167 L2354 2263 L2000 1909 Z" /></g><g class="o"><path transform="translate(8,16)" class="S sfv" d="M1161 1093 L969 1285 L969 1325 L1161 1133 Z"/><path class="fv2" d="M1161 1093 L969 1285 L969 1325 L1161 1133 Z" /></g><g class="o"><path transform="translate(3,6)" class="S sfv" d="M1002 1710 L1159 1867 L1159 1905 L1002 1748 Z"/><path class="fv7" d="M1002 1710 L1159 1867 L1159 1905 L1002 1748 Z" /></g><g class="o"><path transform="translate(4,8)" class="S sf" d="M1093 1611 L954 1750 L954 1782 L1093 1643 Z"/><path class="f4" d="M1093 1611 L954 1750 L954 1782 L1093 1643 Z" /></g><g class="o"><path transform="translate(7,14)" class="S sf" d="M1298 1790 L1694 2186 L1694 2196 L1298 1800 Z"/><path class="f3" d="M1298 1790 L1694 2186 L1694 2196 L1298 1800 Z" /></g><g class="o"><path transform="translate(2,4)" class="S ssh" d="M1647 981 L1704 1038 L1726 1038 L1669 981 Z"/><path class="sh1" d="M1647 981 L1704 1038 L1726 1038 L1669 981 Z" /></g><g class="o"><path transform="translate(5,10)" class="S sfh" d="M1354 2009 L1579 2234 L1715 2234 L1490 2009 Z"/><path class="fh1" d="M1354 2009 L1579 2234 L1715 2234 L1490 2009 Z" /></g><g class="o"><path transform="translate(5,10)" class="S sfv" d="M1933 1444 L2530 2041 L2530 2073 L1933 1476 Z"/><path class="fv6" d="M1933 1444 L2530 2041 L2530 2073 L1933 1476 Z" /></g><g class="o"><path transform="translate(4,8)" class="S sfv" d="M1886 1935 L2048 2097 L2048 2117 L1886 1955 Z"/><path class="fv1" d="M1886 1935 L2048 2097 L2048 2117 L1886 1955 Z" /></g><g class="o"><path transform="translate(7,14)" class="S sfh" d="M1362 1896 L1623 2157 L1719 2157 L1458 1896 Z"/><path class="fh7" d="M1362 1896 L1623 2157 L1719 2157 L1458 1896 Z" /></g><g class="o"><path transform="translate(2,4)" class="S sf" d="M1147 1937 L1225 2015 L1281 2015 L1203 1937 Z"/><path class="f2" d="M1147 1937 L1225 2015 L1281 2015 L1203 1937 Z" /></g><g class="o"><path transform="translate(9,18)" class="S sfv" d="M1113 1161 L1545 1593 L1545 1623 L1113 1191 Z"/><path class="fv7" d="M1113 1161 L1545 1593 L1545 1623 L1113 1191 Z" /></g><g class="o"><path transform="translate(5,10)" class="S sfh" d="M1785 1346 L1626 1505 L1738 1505 L1897 1346 Z"/><path class="fh1" d="M1785 1346 L1626 1505 L1738 1505 L1897 1346 Z" /></g><g class="o"><path transform="translate(2,4)" class="S sf" d="M1545 1102 L2094 1651 L2166 1651 L1617 1102 Z"/><path class="f1" d="M1545 1102 L2094 1651 L2166 1651 L1617 1102 Z" /></g><g class="o"><path transform="translate(8,16)" class="S sfv" d="M1376 1326 L1515 1465 L1515 1495 L1376 1356 Z"/><path class="fv7" d="M1376 1326 L1515 1465 L1515 1495 L1376 1356 Z" /></g><g class="o"><path transform="translate(4,8)" class="S sf" d="M974 1832 L1451 2309 L1515 2309 L1038 1832 Z"/><path class="f4" d="M974 1832 L1451 2309 L1515 2309 L1038 1832 Z" /></g><g class="o"><path transform="translate(6,12)" class="S sfh" d="M1075 1149 L1246 1320 L1266 1320 L1095 1149 Z"/><path class="fh5" d="M1075 1149 L1246 1320 L1266 1320 L1095 1149 Z" /></g><g class="o"><path transform="translate(7,14)" class="S sfh" d="M1016 1654 L1249 1887 L1279 1887 L1046 1654 Z"/><path class="fh5" d="M1016 1654 L1249 1887 L1279 1887 L1046 1654 Z" /></g><g class="o"><path transform="translate(9,18)" class="S ssv" d="M1333 1898 L1570 2135 L1570 2143 L1333 1906 Z"/><path class="sv7" d="M1333 1898 L1570 2135 L1570 2143 L1333 1906 Z" /></g><g class="o"><path transform="translate(3,6)" class="S sfv" d="M1518 1696 L2139 2317 L2139 2325 L1518 1704 Z"/><path class="fv1" d="M1518 1696 L2139 2317 L2139 2325 L1518 1704 Z" /></g><g class="o"><path transform="translate(9,18)" class="S sfv" d="M974 1611 L1169 1806 L1169 1836 L974 1641 Z"/><path class="fv6" d="M974 1611 L1169 1806 L1169 1836 L974 1641 Z" /></g><g class="o"><path transform="translate(7,14)" class="S sfv" d="M1606 1429 L1779 1602 L1779 1650 L1606 1477 Z"/><path class="fv4" d="M1606 1429 L1779 1602 L1779 1650 L1606 1477 Z" /></g><g class="o"><path transform="translate(3,6)" class="S ss" d="M1163 1685 L1418 1940 L1418 1966 L1163 1711 Z"/><path class="s6" d="M1163 1685 L1418 1940 L1418 1966 L1163 1711 Z" /></g><g class="o"><path transform="translate(8,16)" class="S sfv" d="M1760 1461 L2237 1938 L2237 1976 L1760 1499 Z"/><path class="fv4" d="M1760 1461 L2237 1938 L2237 1976 L1760 1499 Z" /></g><g class="o"><path transform="translate(4,8)" class="S sfv" d="M1429 1177 L1584 1332 L1584 1364 L1429 1209 Z"/><path class="fv2" d="M1429 1177 L1584 1332 L1584 1364 L1429 1209 Z" /></g><g class="o"><path transform="translate(9,18)" class="S sfh" d="M1811 1486 L2303 1978 L2335 1978 L1843 1486 Z"/><path class="fh4" d="M1811 1486 L2303 1978 L2335 1978 L1843 1486 Z" /></g><g class="o"><path transform="translate(4,8)" class="S sfv" d="M1751 1828 L1928 2005 L1928 2101 L1751 1924 Z"/><path class="fv1" d="M1751 1828 L1928 2005 L1928 2101 L1751 1924 Z" /></g><g class="o"><path transform="translate(3,6)" class="S sf" d="M1671 1180 L1551 1300 L1551 1364 L1671 1244 Z"/><path class="f1" d="M1671 1180 L1551 1300 L1551 1364 L1671 1244 Z" /></g><g class="o"><path transform="translate(3,6)" class="S sf" d="M1190 1545 L1544 1899 L1648 1899 L1294 1545 Z"/><path class="f5" d="M1190 1545 L1544 1899 L1648 1899 L1294 1545 Z" /></g><g class="o"><path transform="translate(8,16)" class="S sfh" d="M1518 1131 L2238 1851 L2256 1851 L1536 1131 Z"/><path class="fh1" d="M1518 1131 L2238 1851 L2256 1851 L1536 1131 Z" /></g><g class="o"><path transform="translate(7,14)" class="S sfv" d="M1193 1106 L1379 1292 L1379 1320 L1193 1134 Z"/><path class="fv2" d="M1193 1106 L1379 1292 L1379 1320 L1193 1134 Z" /></g><g class="o"><path transform="translate(2,4)" class="S ssv" d="M1833 1242 L2319 1728 L2319 1800 L1833 1314 Z"/><path class="sv1" d="M1833 1242 L2319 1728 L2319 1800 L1833 1314 Z" /></g><g class="o"><path transform="translate(5,10)" class="S ssh" d="M1320 1438 L1529 1647 L1559 1647 L1350 1438 Z"/><path class="sh4" d="M1320 1438 L1529 1647 L1559 1647 L1350 1438 Z" /></g><g class="o"><path transform="translate(8,16)" class="S sfh" d="M1773 1418 L2181 1826 L2197 1826 L1789 1418 Z"/><path class="fh7" d="M1773 1418 L2181 1826 L2197 1826 L1789 1418 Z" /></g><g class="o"><path transform="translate(2,4)" class="S sfh" d="M1551 1856 L1366 2041 L1382 2041 L1567 1856 Z"/><path class="fh4" d="M1551 1856 L1366 2041 L1382 2041 L1567 1856 Z" /></g><g class="o"><path transform="translate(6,12)" class="S ssh" d="M1408 1933 L1867 2392 L2003 2392 L1544 1933 Z"/><path class="sh6" d="M1408 1933 L1867 2392 L2003 2392 L1544 1933 Z" /></g><g class="o"><path transform="translate(7,14)" class="S sfh" d="M1916 1281 L2086 1451 L2222 1451 L2052 1281 Z"/><path class="fh1" d="M1916 1281 L2086 1451 L2222 1451 L2052 1281 Z" /></g><g class="o"><path transform="translate(6,12)" class="S sfv" d="M1093 982 L559 1516 L559 1526 L1093 992 Z"/><path class="fv5" d="M1093 982 L559 1516 L559 1526 L1093 992 Z" /></g><g class="o"><path transform="translate(3,6)" class="S sf" d="M1635 1956 L2100 2421 L2100 2443 L1635 1978 Z"/><path class="f5" d="M1635 1956 L2100 2421 L2100 2443 L1635 1978 Z" /></g><g class="o"><path transform="translate(8,16)" class="S ss" d="M1078 1521 L1747 2190 L1747 2310 L1078 1641 Z"/><path class="s1" d="M1078 1521 L1747 2190 L1747 2310 L1078 1641 Z" /></g><g class="o"><path transform="translate(2,4)" class="S sfv" d="M1864 1766 L2299 2201 L2299 2225 L1864 1790 Z"/><path class="fv3" d="M1864 1766 L2299 2201 L2299 2225 L1864 1790 Z" /></g><g class="o"><path transform="translate(5,10)" class="S sfv" d="M1414 1036 L1506 1128 L1506 1192 L1414 1100 Z"/><path class="fv2" d="M1414 1036 L1506 1128 L1506 1192 L1414 1100 Z" /></g><g class="o"><path transform="translate(3,6)" class="S sfh" d="M1520 1863 L1328 2055 L1384 2055 L1576 1863 Z"/><path class="fh1" d="M1520 1863 L1328 2055 L1384 2055 L1576 1863 Z" /></g><g class="o"><path transform="translate(9,18)" class="S sf" d="M1640 1952 L1560 2032 L1560 2080 L1640 2000 Z"/><path class="f2" d="M1640 1952 L1560 2032 L1560 2080 L1640 2000 Z" /></g><g class="o"><path transform="translate(7,14)" class="S sf" d="M1145 1393 L1348 1596 L1388 1596 L1185 1393 Z"/><path class="f2" d="M1145 1393 L1348 1596 L1388 1596 L1185 1393 Z" /></g><g class="o"><path transform="translate(8,16)" class="S ss" d="M1082 1914 L1230 2062 L1254 2062 L1106 1914 Z"/><path class="s2" d="M1082 1914 L1230 2062 L1254 2062 L1106 1914 Z" /></g><g class="o"><path transform="translate(3,6)" class="S ssh" d="M1095 1667 L1284 1856 L1320 1856 L1131 1667 Z"/><path class="sh6" d="M1095 1667 L1284 1856 L1320 1856 L1131 1667 Z" /></g><g class="o"><path transform="translate(7,14)" class="S sfv" d="M1222 974 L1449 1201 L1449 1239 L1222 1012 Z"/><path class="fv3" d="M1222 974 L1449 1201 L1449 1239 L1222 1012 Z" /></g><g class="o"><path transform="translate(6,12)" class="S sfh" d="M1816 1724 L2539 2447 L2559 2447 L1836 1724 Z"/><path class="fh3" d="M1816 1724 L2539 2447 L2559 2447 L1836 1724 Z" /></g><g class="o"><path transform="translate(8,16)" class="S sfv" d="M1351 1150 L991 1510 L991 1538 L1351 1178 Z"/><path class="fv7" d="M1351 1150 L991 1510 L991 1538 L1351 1178 Z" /></g><g class="o"><path transform="translate(6,12)" class="S sfv" d="M1548 1325 L1743 1520 L1743 1548 L1548 1353 Z"/><path class="fv1" d="M1548 1325 L1743 1520 L1743 1548 L1548 1353 Z" /></g><g class="o"><path transform="translate(8,16)" class="S sf" d="M1656 1044 L1840 1228 L1876 1228 L1692 1044 Z"/><path class="f2" d="M1656 1044 L1840 1228 L1876 1228 L1692 1044 Z" /></g><g class="o"><path transform="translate(4,8)" class="S sf" d="M1224 1578 L1590 1944 L1710 1944 L1344 1578 Z"/><path class="f2" d="M1224 1578 L1590 1944 L1710 1944 L1344 1578 Z" /></g><g class="o"><path transform="translate(6,12)" class="S sfh" d="M1580 1834 L1489 1925 L1511 1925 L1602 1834 Z"/><path class="fh7" d="M1580 1834 L1489 1925 L1511 1925 L1602 1834 Z" /></g><g class="o"><path transform="translate(3,6)" class="S sfh" d="M1669 1830 L2314 2475 L2378 2475 L1733 1830 Z"/><path class="fh5" d="M1669 1830 L2314 2475 L2378 2475 L1733 1830 Z" /></g><g class="o"><path transform="translate(8,16)" class="S sfh" d="M1217 1264 L1114 1367 L1148 1367 L1251 1264 Z"/><path class="fh2" d="M1217 1264 L1114 1367 L1148 1367 L1251 1264 Z" /></g><g class="o"><path transform="translate(8,16)" class="S sf" d="M1492 1934 L1552 1994 L1574 1994 L1514 1934 Z"/><path class="f7" d="M1492 1934 L1552 1994 L1574 1994 L1514 1934 Z" /></g><g class="o"><path transform="translate(3,6)" class="S sfv" d="M1427 1177 L1627 1377 L1627 1425 L1427 1225 Z"/><path class="fv1" d="M1427 1177 L1627 1377 L1627 1425 L1427 1225 Z" /></g><g class="o"><path transform="translate(5,10)" class="S sfv" d="M1468 1067 L1234 1301 L1234 1319 L1468 1085 Z"/><path class="fv3" d="M1468 1067 L1234 1301 L1234 1319 L1468 1085 Z" /></g><g class="o"><path transform="translate(9,18)" class="S ssh" d="M1975 1329 L2281 1635 L2313 1635 L2007 1329 Z"/><path class="sh1" d="M1975 1329 L2281 1635 L2313 1635 L2007 1329 Z" /></g><g class="o"><path transform="translate(3,6)" class="S sf" d="M1803 1293 L2017 1507 L2017 1555 L1803 1341 Z"/><path class="f1" d="M1803 1293 L2017 1507 L2017 1555 L1803 1341 Z" /></g><g class="o"><path transform="translate(2,4)" class="S sfh" d="M1791 2038 L1914 2161 L1946 2161 L1823 2038 Z"/><path class="fh6" d="M1791 2038 L1914 2161 L1946 2161 L1823 2038 Z" /></g><g class="o"><path transform="translate(4,8)" class="S ssv" d="M1127 1460 L1664 1997 L1664 2061 L1127 1524 Z"/><path class="sv4" d="M1127 1460 L1664 1997 L1664 2061 L1127 1524 Z" /></g><g class="o"><path transform="translate(4,8)" class="S sfh" d="M1372 1112 L1531 1271 L1557 1271 L1398 1112 Z"/><path class="fh7" d="M1372 1112 L1531 1271 L1557 1271 L1398 1112 Z" /></g><g class="o"><path transform="translate(8,16)" class="S sfv" d="M1133 1483 L1289 1639 L1289 1767 L1133 1611 Z"/><path class="fv2" d="M1133 1483 L1289 1639 L1289 1767 L1133 1611 Z" /></g><g class="o"><path transform="translate(3,6)" class="S sfh" d="M926 1409 L1029 1512 L1181 1512 L1078 1409 Z"/><path class="fh4" d="M926 1409 L1029 1512 L1181 1512 L1078 1409 Z" /></g><g class="o"><path transform="translate(8,16)" class="S sfv" d="M1482 1868 L1710 2096 L1710 2128 L1482 1900 Z"/><path class="fv3" d="M1482 1868 L1710 2096 L1710 2128 L1482 1900 Z" /></g><g class="o"><path transform="translate(3,6)" class="S sfv" d="M1917 1098 L1986 1167 L1986 1197 L1917 1128 Z"/><path class="fv5" d="M1917 1098 L1986 1167 L1986 1197 L1917 1128 Z" /></g><g class="o"><path transform="translate(8,16)" class="S ssh" d="M995 1200 L1178 1383 L1196 1383 L1013 1200 Z"/><path class="sh1" d="M995 1200 L1178 1383 L1196 1383 L1013 1200 Z" /></g><g class="o"><path transform="translate(3,6)" class="S sfh" d="M1952 1407 L2100 1555 L2110 1555 L1962 1407 Z"/><path class="fh2" d="M1952 1407 L2100 1555 L2110 1555 L1962 1407 Z" /></g><g class="o"><path transform="translate(4,8)" class="S sfv" d="M1934 1083 L2351 1500 L2351 1522 L1934 1105 Z"/><path class="fv4" d="M1934 1083 L2351 1500 L2351 1522 L1934 1105 Z" /></g><g class="o"><path transform="translate(2,4)" class="S ssv" d="M1343 1180 L1733 1570 L1733 1586 L1343 1196 Z"/><path class="sv6" d="M1343 1180 L1733 1570 L1733 1586 L1343 1196 Z" /></g><g class="o"><path transform="translate(9,18)" class="S sfh" d="M1582 1087 L1526 1143 L1560 1143 L1616 1087 Z"/><path class="fh2" d="M1582 1087 L1526 1143 L1560 1143 L1616 1087 Z" /></g><g class="o"><path transform="translate(7,14)" class="S sfh" d="M1678 1022 L1821 1165 L1941 1165 L1798 1022 Z"/><path class="fh2" d="M1678 1022 L1821 1165 L1941 1165 L1798 1022 Z" /></g><g class="o"><path transform="translate(3,6)" class="S ssh" d="M1239 1821 L1335 1917 L1353 1917 L1257 1821 Z"/><path class="sh6" d="M1239 1821 L1335 1917 L1353 1917 L1257 1821 Z" /></g><g class="o"><path transform="translate(3,6)" class="S sfv" d="M1975 1354 L2365 1744 L2365 1762 L1975 1372 Z"/><path class="fv2" d="M1975 1354 L2365 1744 L2365 1762 L1975 1372 Z" /></g><g class="o"><path transform="translate(6,12)" class="S sfh" d="M964 1581 L1300 1917 L1380 1917 L1044 1581 Z"/><path class="fh3" d="M964 1581 L1300 1917 L1380 1917 L1044 1581 Z" /></g><g class="o"><path transform="translate(8,16)" class="S ssh" d="M1545 983 L2268 1706 L2286 1706 L1563 983 Z"/><path class="sh2" d="M1545 983 L2268 1706 L2286 1706 L1563 983 Z" /></g><g class="o"><path transform="translate(5,10)" class="S sf" d="M1557 1340 L1646 1429 L1750 1429 L1661 1340 Z"/><path class="f3" d="M1557 1340 L1646 1429 L1750 1429 L1661 1340 Z" /></g><g class="o"><path transform="translate(6,12)" class="S sfv" d="M1919 1745 L2145 1971 L2145 1993 L1919 1767 Z"/><path class="fv7" d="M1919 1745 L2145 1971 L2145 1993 L1919 1767 Z" /></g><g class="o"><path transform="translate(3,6)" class="S ssv" d="M1238 1475 L1070 1643 L1070 1679 L1238 1511 Z"/><path class="sv2" d="M1238 1475 L1070 1643 L1070 1679 L1238 1511 Z" /></g><g class="o"><path transform="translate(7,14)" class="S sfh" d="M1229 1067 L1451 1289 L1515 1289 L1293 1067 Z"/><path class="fh4" d="M1229 1067 L1451 1289 L1515 1289 L1293 1067 Z" /></g><g class="o"><path transform="translate(3,6)" class="S sf" d="M1537 1299 L2056 1818 L2090 1818 L1571 1299 Z"/><path class="f7" d="M1537 1299 L2056 1818 L2090 1818 L1571 1299 Z" /></g><g class="o"><path transform="translate(5,10)" class="S sfv" d="M2028 1972 L2093 2037 L2093 2073 L2028 2008 Z"/><path class="fv1" d="M2028 1972 L2093 2037 L2093 2073 L2028 2008 Z" /></g><g class="o"><path transform="translate(5,10)" class="S sfh" d="M2020 1028 L2239 1247 L2271 1247 L2052 1028 Z"/><path class="fh4" d="M2020 1028 L2239 1247 L2271 1247 L2052 1028 Z" /></g><g class="o"><path transform="translate(8,16)" class="S sfv" d="M1822 1303 L1683 1442 L1683 1450 L1822 1311 Z"/><path class="fv6" d="M1822 1303 L1683 1442 L1683 1450 L1822 1311 Z" /></g><g class="o"><path transform="translate(6,12)" class="S sfh" d="M1011 1601 L940 1672 L1012 1672 L1083 1601 Z"/><path class="fh1" d="M1011 1601 L940 1672 L1012 1672 L1083 1601 Z" /></g><g class="o"><path transform="translate(6,12)" class="S sfh" d="M1138 1742 L1340 1944 L1378 1944 L1176 1742 Z"/><path class="fh1" d="M1138 1742 L1340 1944 L1378 1944 L1176 1742 Z" /></g><g class="o"><path transform="translate(4,8)" class="S sfh" d="M1547 1877 L2213 2543 L2253 2543 L1587 1877 Z"/><path class="fh6" d="M1547 1877 L2213 2543 L2253 2543 L1587 1877 Z" /></g><g class="o"><path transform="translate(3,6)" class="S sfh" d="M1614 1259 L909 1964 L947 1964 L1652 1259 Z"/><path class="fh1" d="M1614 1259 L909 1964 L947 1964 L1652 1259 Z" /></g><g class="o"><path transform="translate(9,18)" class="S ssh" d="M1473 1206 L1095 1584 L1191 1584 L1569 1206 Z"/><path class="sh3" d="M1473 1206 L1095 1584 L1191 1584 L1569 1206 Z" /></g><g class="o"><path transform="translate(3,6)" class="S sfv" d="M2018 1340 L2723 2045 L2723 2063 L2018 1358 Z"/><path class="fv5" d="M2018 1340 L2723 2045 L2723 2063 L2018 1358 Z" /></g><g class="o"><path transform="translate(4,8)" class="S sf" d="M1185 955 L966 1174 L988 1174 L1207 955 Z"/><path class="f5" d="M1185 955 L966 1174 L988 1174 L1207 955 Z" /></g><g class="o"><path transform="translate(4,8)" class="S ssh" d="M1955 1360 L2516 1921 L2556 1921 L1995 1360 Z"/><path class="sh5" d="M1955 1360 L2516 1921 L2556 1921 L1995 1360 Z" /></g><g class="o"><path transform="translate(5,10)" class="S ss" d="M1984 1109 L2148 1273 L2148 1285 L1984 1121 Z"/><path class="s7" d="M1984 1109 L2148 1273 L2148 1285 L1984 1121 Z" /></g><g class="o"><path transform="translate(7,14)" class="S ssh" d="M1023 1022 L1215 1214 L1227 1214 L1035 1022 Z"/><path class="sh1" d="M1023 1022 L1215 1214 L1227 1214 L1035 1022 Z" /></g><g class="o"><path transform="translate(8,16)" class="S sf" d="M1982 1778 L2342 2138 L2342 2148 L1982 1788 Z"/><path class="f5" d="M1982 1778 L2342 2138 L2342 2148 L1982 1788 Z" /></g><g class="o"><path transform="translate(9,18)" class="S sfh" d="M1723 1194 L2284 1755 L2380 1755 L1819 1194 Z"/><path class="fh1" d="M1723 1194 L2284 1755 L2380 1755 L1819 1194 Z" /></g><g class="o"><path transform="translate(3,6)" class="S sfh" d="M1576 1505 L1819 1748 L1947 1748 L1704 1505 Z"/><path class="fh1" d="M1576 1505 L1819 1748 L1947 1748 L1704 1505 Z" /></g><g class="o"><path transform="translate(6,12)" class="S ssh" d="M1751 1845 L1592 2004 L1604 2004 L1763 1845 Z"/><path class="sh1" d="M1751 1845 L1592 2004 L1604 2004 L1763 1845 Z" /></g><g class="o"><path transform="translate(4,8)" class="S ssv" d="M1889 1949 L1970 2030 L1970 2056 L1889 1975 Z"/><path class="sv3" d="M1889 1949 L1970 2030 L1970 2056 L1889 1975 Z" /></g><g class="o"><path transform="translate(2,4)" class="S sfh" d="M1672 1130 L1882 1340 L1922 1340 L1712 1130 Z"/><path class="fh4" d="M1672 1130 L1882 1340 L1922 1340 L1712 1130 Z" /></g><g class="o"><path transform="translate(8,16)" class="S sfv" d="M1366 1333 L1567 1534 L1567 1544 L1366 1343 Z"/><path class="fv2" d="M1366 1333 L1567 1534 L1567 1544 L1366 1343 Z" /></g><g class="o"><path transform="translate(7,14)" class="S sfv" d="M1373 1953 L1829 2409 L1829 2433 L1373 1977 Z"/><path class="fv1" d="M1373 1953 L1829 2409 L1829 2433 L1373 1977 Z" /></g><g class="o"><path transform="translate(3,6)" class="S ssh" d="M1180 1151 L1407 1378 L1455 1378 L1228 1151 Z"/><path class="sh7" d="M1180 1151 L1407 1378 L1455 1378 L1228 1151 Z" /></g><g class="o"><path transform="translate(8,16)" class="S sf" d="M1266 1599 L1048 1817 L1070 1817 L1288 1599 Z"/><path class="f4" d="M1266 1599 L1048 1817 L1070 1817 L1288 1599 Z" /></g><g class="o"><path transform="translate(5,10)" class="S sfh" d="M1867 1057 L2158 1348 L2194 1348 L1903 1057 Z"/><path class="fh5" d="M1867 1057 L2158 1348 L2194 1348 L1903 1057 Z" /></g><g class="o"><path transform="translate(6,12)" class="S sfv" d="M1020 1834 L1098 1912 L1098 2056 L1020 1978 Z"/><path class="fv7" d="M1020 1834 L1098 1912 L1098 2056 L1020 1978 Z" /></g><g class="o"><path transform="translate(9,18)" class="S sfv" d="M2022 1582 L1868 1736 L1868 1752 L2022 1598 Z"/><path class="fv2" d="M2022 1582 L1868 1736 L1868 1752 L2022 1598 Z" /></g><g class="o"><path transform="translate(2,4)" class="S sf" d="M1667 1856 L1855 2044 L1855 2124 L1667 1936 Z"/><path class="f4" d="M1667 1856 L1855 2044 L1855 2124 L1667 1936 Z" /></g><g class="o"><path transform="translate(9,18)" class="S sfh" d="M928 1711 L982 1765 L1102 1765 L1048 1711 Z"/><path class="fh1" d="M928 1711 L982 1765 L1102 1765 L1048 1711 Z" /></g><g class="o"><path transform="translate(9,18)" class="S sf" d="M1278 1795 L1415 1932 L1567 1932 L1430 1795 Z"/><path class="f6" d="M1278 1795 L1415 1932 L1567 1932 L1430 1795 Z" /></g><g class="o"><path transform="translate(7,14)" class="S sfh" d="M1199 1823 L1421 2045 L1429 2045 L1207 1823 Z"/><path class="fh1" d="M1199 1823 L1421 2045 L1429 2045 L1207 1823 Z" /></g><g class="o"><path transform="translate(5,10)" class="S sfh" d="M1873 1850 L2088 2065 L2108 2065 L1893 1850 Z"/><path class="fh2" d="M1873 1850 L2088 2065 L2108 2065 L1893 1850 Z" /></g><g class="o"><path transform="translate(7,14)" class="S sf" d="M1069 1722 L1169 1822 L1195 1822 L1095 1722 Z"/><path class="f1" d="M1069 1722 L1169 1822 L1195 1822 L1095 1722 Z" /></g><g class="o"><path transform="translate(8,16)" class="S sfh" d="M1880 1649 L2522 2291 L2594 2291 L1952 1649 Z"/><path class="fh5" d="M1880 1649 L2522 2291 L2594 2291 L1952 1649 Z" /></g><g class="o"><path transform="translate(4,8)" class="S sfh" d="M1775 1205 L1853 1283 L1877 1283 L1799 1205 Z"/><path class="fh5" d="M1775 1205 L1853 1283 L1877 1283 L1799 1205 Z" /></g><g class="o"><path transform="translate(9,18)" class="S sfv" d="M1418 1920 L1655 2157 L1655 2177 L1418 1940 Z"/><path class="fv2" d="M1418 1920 L1655 2157 L1655 2177 L1418 1940 Z" /></g><g class="o"><path transform="translate(9,18)" class="S ss" d="M1362 1813 L960 2215 L960 2279 L1362 1877 Z"/><path class="s3" d="M1362 1813 L960 2215 L960 2279 L1362 1877 Z" /></g><g class="o"><path transform="translate(4,8)" class="S ssh" d="M1097 1986 L1323 2212 L1427 2212 L1201 1986 Z"/><path class="sh6" d="M1097 1986 L1323 2212 L1427 2212 L1201 1986 Z" /></g><g class="o"><path transform="translate(7,14)" class="S sfh" d="M1259 1888 L1610 2239 L1644 2239 L1293 1888 Z"/><path class="fh3" d="M1259 1888 L1610 2239 L1644 2239 L1293 1888 Z" /></g><g class="o"><path transform="translate(3,6)" class="S ssv" d="M1096 1091 L850 1337 L850 1373 L1096 1127 Z"/><path class="sv2" d="M1096 1091 L850 1337 L850 1373 L1096 1127 Z" /></g><g class="o"><path transform="translate(5,10)" class="S ssh" d="M1919 1709 L1283 2345 L1299 2345 L1935 1709 Z"/><path class="sh6" d="M1919 1709 L1283 2345 L1299 2345 L1935 1709 Z" /></g><g class="o"><path transform="translate(2,4)" class="S sfh" d="M1868 1895 L1950 1977 L2014 1977 L1932 1895 Z"/><path class="fh1" d="M1868 1895 L1950 1977 L2014 1977 L1932 1895 Z" /></g><g class="o"><path transform="translate(3,6)" class="S ss" d="M1862 1325 L2009 1472 L2065 1472 L1918 1325 Z"/><path class="s5" d="M1862 1325 L2009 1472 L2065 1472 L1918 1325 Z" /></g><g class="o"><path transform="translate(3,6)" class="S sf" d="M1603 1075 L1757 1229 L1757 1245 L1603 1091 Z"/><path class="f5" d="M1603 1075 L1757 1229 L1757 1245 L1603 1091 Z" /></g><g class="o"><path transform="translate(5,10)" class="S sfv" d="M1680 1908 L1305 2283 L1305 2315 L1680 1940 Z"/><path class="fv3" d="M1680 1908 L1305 2283 L1305 2315 L1680 1940 Z" /></g><g class="o"><path transform="translate(9,18)" class="S sfh" d="M1590 1994 L2331 2735 L2367 2735 L1626 1994 Z"/><path class="fh2" d="M1590 1994 L2331 2735 L2367 2735 L1626 1994 Z" /></g><g class="o"><path transform="translate(6,12)" class="S sfv" d="M1076 1640 L881 1835 L881 1979 L1076 1784 Z"/><path class="fv6" d="M1076 1640 L881 1835 L881 1979 L1076 1784 Z" /></g><g class="o"><path transform="translate(4,8)" class="S sfh" d="M1391 1184 L1751 1544 L1799 1544 L1439 1184 Z"/><path class="fh7" d="M1391 1184 L1751 1544 L1799 1544 L1439 1184 Z" /></g><g class="o"><path transform="translate(5,10)" class="S sf" d="M1172 1421 L1481 1730 L1481 1762 L1172 1453 Z"/><path class="f2" d="M1172 1421 L1481 1730 L1481 1762 L1172 1453 Z" /></g><g class="o"><path transform="translate(4,8)" class="S ssh" d="M1668 1785 L2178 2295 L2234 2295 L1724 1785 Z"/><path class="sh1" d="M1668 1785 L2178 2295 L2234 2295 L1724 1785 Z" /></g><g class="o"><path transform="translate(9,18)" class="S sfh" d="M1834 1551 L1885 1602 L1925 1602 L1874 1551 Z"/><path class="fh4" d="M1834 1551 L1885 1602 L1925 1602 L1874 1551 Z" /></g><g class="o"><path transform="translate(8,16)" class="S ssv" d="M2005 1858 L2234 2087 L2234 2121 L2005 1892 Z"/><path class="sv5" d="M2005 1858 L2234 2087 L2234 2121 L2005 1892 Z" /></g><g class="o"><path transform="translate(8,16)" class="S sfv" d="M1269 1328 L1665 1724 L1665 1844 L1269 1448 Z"/><path class="fv4" d="M1269 1328 L1665 1724 L1665 1844 L1269 1448 Z" /></g><g class="o"><path transform="translate(5,10)" class="S sfv" d="M1642 1000 L1804 1162 L1804 1172 L1642 1010 Z"/><path class="fv5" d="M1642 1000 L1804 1162 L1804 1172 L1642 1010 Z" /></g><g class="o"><path transform="translate(2,4)" class="S sf" d="M1422 1377 L1932 1887 L1964 1887 L1454 1377 Z"/><path class="f6" d="M1422 1377 L1932 1887 L1964 1887 L1454 1377 Z" /></g><g class="o"><path transform="translate(8,16)" class="S ssv" d="M1513 1653 L1752 1892 L1752 1908 L1513 1669 Z"/><path class="sv1" d="M1513 1653 L1752 1892 L1752 1908 L1513 1669 Z" /></g><g class="o"><path transform="translate(3,6)" class="S sfv" d="M1206 1947 L1325 2066 L1325 2080 L1206 1961 Z"/><path class="fv7" d="M1206 1947 L1325 2066 L1325 2080 L1206 1961 Z" /></g><g class="o"><path transform="translate(7,14)" class="S sfh" d="M1349 1600 L1790 2041 L1820 2041 L1379 1600 Z"/><path class="fh2" d="M1349 1600 L1790 2041 L1820 2041 L1379 1600 Z" /></g></g><use href="#slashes" transform-origin="1500 1500" transform="rotate(180) scale(2)"/></g><rect x="1080" y="1080" width="840" height="840" stroke-width="40" class="o f5" /><use href="#slashes" transform-origin="1500 1500" transform="scale(.6)"/><use href="#slashes" transform-origin="1500 1500" transform="rotate(180) scale(.6)"/></svg>