<svg xmlns="http://www.w3.org/2000/svg" viewBox="750 750 1500 1500"><style>/*<![CDATA[*/svg{background:rgb(14,173,105);max-width:100vw;max-height:100vh}path{stroke-width:4}.o{opacity:.75}.S{opacity:.4}.sf{stroke:none;fill:black}.sfh{stroke:none;fill:url(#hs)}.sfv{stroke:none;fill:url(#vs)}.ss{stroke:black;fill:none}.ssh{stroke:url(#hs);fill:none}.ssv{stroke:url(#vs);fill:none}.s1{fill:none;stroke:rgb(84,13,110)}.f1{stroke:none;fill:rgb(84,13,110)}.sh1{fill:none;stroke:url(#h1)}.fh1{stroke:none;fill:url(#h1)}.sv1{fill:none;stroke:url(#v1)}.fv1{stroke:none;fill:url(#v1)}.s2{fill:none;stroke:rgb(255,210,63)}.f2{stroke:none;fill:rgb(255,210,63)}.sh2{fill:none;stroke:url(#h2)}.fh2{stroke:none;fill:url(#h2)}.sv2{fill:none;stroke:url(#v2)}.fv2{stroke:none;fill:url(#v2)}.s3{fill:none;stroke:rgb(238,66,102)}.f3{stroke:none;fill:rgb(238,66,102)}.sh3{fill:none;stroke:url(#h3)}.fh3{stroke:none;fill:url(#h3)}.sv3{fill:none;stroke:url(#v3)}.fv3{stroke:none;fill:url(#v3)}.s4{fill:none;stroke:rgb(59,206,172)}.f4{stroke:none;fill:rgb(59,206,172)}.sh4{fill:none;stroke:url(#h4)}.fh4{stroke:none;fill:url(#h4)}.sv4{fill:none;stroke:url(#v4)}.fv4{stroke:none;fill:url(#v4)}.s5{fill:none;stroke:rgb(34,34,34)}.f5{stroke:none;fill:rgb(34,34,34)}.sh5{fill:none;stroke:url(#h5)}.fh5{stroke:none;fill:url(#h5)}.sv5{fill:none;stroke:url(#v5)}.fv5{stroke:none;fill:url(#v5)}.s6{fill:none;stroke:rgb(255,255,255)}.f6{stroke:none;fill:rgb(255,255,255)}.sh6{fill:none;stroke:url(#h6)}.fh6{stroke:none;fill:url(#h6)}.sv6{fill:none;stroke:url(#v6)}.fv6{stroke:none;fill:url(#v6)}.s7{fill:none;stroke:rgb(255,0,0)}.f7{stroke:none;fill:rgb(255,0,0)}.sh7{fill:none;stroke:url(#h7)}.fh7{stroke:none;fill:url(#h7)}.sv7{fill:none;stroke:url(#v7)}.fv7{stroke:none;fill:url(#v7)}/*]]>*/</style><defs><linearGradient gradientTransform="rotate(90)" id="hs"><stop offset="20%" stop-color="#000" /><stop offset="95%" stop-color="rgba(0, 0, 0, 0)" /></linearGradient><linearGradient id="vs"><stop offset="20%" stop-color="#000" /><stop offset="95%" stop-color="rgba(0, 0, 0, 0)" /></linearGradient><linearGradient gradientTransform="rotate(90)" id="h1"><stop offset="20%" stop-color="rgba(84,13,110,1)" /><stop offset="95%" stop-color="rgba(84,13,110,0)" /></linearGradient><linearGradient id="v1"><stop offset="20%" stop-color="rgba(84,13,110,1)" /><stop offset="95%" stop-color="rgba(84,13,110,0)" /></linearGradient><linearGradient gradientTransform="rotate(90)" id="h2"><stop offset="20%" stop-color="rgba(255,210,63,1)" /><stop offset="95%" stop-color="rgba(255,210,63,0)" /></linearGradient><linearGradient id="v2"><stop offset="20%" stop-color="rgba(255,210,63,1)" /><stop offset="95%" stop-color="rgba(255,210,63,0)" /></linearGradient><linearGradient gradientTransform="rotate(90)" id="h3"><stop offset="20%" stop-color="rgba(238,66,102,1)" /><stop offset="95%" stop-color="rgba(238,66,102,0)" /></linearGradient><linearGradient id="v3"><stop offset="20%" stop-color="rgba(238,66,102,1)" /><stop offset="95%" stop-color="rgba(238,66,102,0)" /></linearGradient><linearGradient gradientTransform="rotate(90)" id="h4"><stop offset="20%" stop-color="rgba(59,206,172,1)" /><stop offset="95%" stop-color="rgba(59,206,172,0)" /></linearGradient><linearGradient id="v4"><stop offset="20%" stop-color="rgba(59,206,172,1)" /><stop offset="95%" stop-color="rgba(59,206,172,0)" /></linearGradient><linearGradient gradientTransform="rotate(90)" id="h5"><stop offset="20%" stop-color="rgba(34,34,34,1)" /><stop offset="95%" stop-color="rgba(34,34,34,0)" /></linearGradient><linearGradient id="v5"><stop offset="20%" stop-color="rgba(34,34,34,1)" /><stop offset="95%" stop-color="rgba(34,34,34,0)" /></linearGradient><linearGradient gradientTransform="rotate(90)" id="h6"><stop offset="20%" stop-color="rgba(255,255,255,1)" /><stop offset="95%" stop-color="rgba(255,255,255,0)" /></linearGradient><linearGradient id="v6"><stop offset="20%" stop-color="rgba(255,255,255,1)" /><stop offset="95%" stop-color="rgba(255,255,255,0)" /></linearGradient><linearGradient gradientTransform="rotate(90)" id="h7"><stop offset="20%" stop-color="rgba(255,0,0,1)" /><stop offset="95%" stop-color="rgba(255,0,0,0)" /></linearGradient><linearGradient id="v7"><stop offset="20%" stop-color="rgba(255,0,0,1)" /><stop offset="95%" stop-color="rgba(255,0,0,0)" /></linearGradient></defs><g transform-origin="1500 1500" transform="scale(2)" opacity=".8"><g id="slashes"><g class="o"><path transform="translate(3,6)" class="S sfv" d="M2011 1456 L1924 1543 L1924 1575 L2011 1488 Z"/><path class="fv7" d="M2011 1456 L1924 1543 L1924 1575 L2011 1488 Z" /></g><g class="o"><path transform="translate(7,14)" class="S ssv" d="M1309 1758 L1132 1935 L1132 1949 L1309 1772 Z"/><path class="sv4" d="M1309 1758 L1132 1935 L1132 1949 L1309 1772 Z" /></g><g class="o"><path transform="translate(8,16)" class="S sfv" d="M1103 1255 L1050 1308 L1050 1330 L1103 1277 Z"/><path class="fv4" d="M1103 1255 L1050 1308 L1050 1330 L1103 1277 Z" /></g><g class="o"><path transform="translate(6,12)" class="S sfv" d="M1414 1004 L1172 1246 L1172 1284 L1414 1042 Z"/><path class="fv6" d="M1414 1004 L1172 1246 L1172 1284 L1414 1042 Z" /></g><g class="o"><path transform="translate(6,12)" class="S sfv" d="M1402 1095 L1158 1339 L1158 1459 L1402 1215 Z"/><path class="fv1" d="M1402 1095 L1158 1339 L1158 1459 L1402 1215 Z" /></g><g class="o"><path transform="translate(8,16)" class="S sfv" d="M1609 1193 L1814 1398 L1814 1412 L1609 1207 Z"/><path class="fv1" d="M1609 1193 L1814 1398 L1814 1412 L1609 1207 Z" /></g><g class="o"><path transform="translate(4,8)" class="S sf" d="M1605 1241 L1544 1302 L1672 1302 L1733 1241 Z"/><path class="f6" d="M1605 1241 L1544 1302 L1672 1302 L1733 1241 Z" /></g><g class="o"><path transform="translate(7,14)" class="S sfv" d="M1957 1562 L2124 1729 L2124 1767 L1957 1600 Z"/><path class="fv7" d="M1957 1562 L2124 1729 L2124 1767 L1957 1600 Z" /></g><g class="o"><path transform="translate(5,10)" class="S sf" d="M1355 1707 L1245 1817 L1245 1835 L1355 1725 Z"/><path class="f1" d="M1355 1707 L1245 1817 L1245 1835 L1355 1725 Z" /></g><g class="o"><path transform="translate(3,6)" class="S sfh" d="M1090 1370 L1236 1516 L1274 1516 L1128 1370 Z"/><path class="fh6" d="M1090 1370 L1236 1516 L1274 1516 L1128 1370 Z" /></g><g class="o"><path transform="translate(8,16)" class="S ssh" d="M1506 1414 L1639 1547 L1659 1547 L1526 1414 Z"/><path class="sh7" d="M1506 1414 L1639 1547 L1659 1547 L1526 1414 Z" /></g><g class="o"><path transform="translate(8,16)" class="S sf" d="M1709 972 L1872 1135 L1894 1135 L1731 972 Z"/><path class="f3" d="M1709 972 L1872 1135 L1894 1135 L1731 972 Z" /></g><g class="o"><path transform="translate(9,18)" class="S ss" d="M1112 1301 L1278 1467 L1278 1479 L1112 1313 Z"/><path class="s5" d="M1112 1301 L1278 1467 L1278 1479 L1112 1313 Z" /></g><g class="o"><path transform="translate(4,8)" class="S sfv" d="M1632 1332 L1831 1531 L1831 1563 L1632 1364 Z"/><path class="fv7" d="M1632 1332 L1831 1531 L1831 1563 L1632 1364 Z" /></g><g class="o"><path transform="translate(3,6)" class="S sfv" d="M1911 2028 L2041 2158 L2041 2172 L1911 2042 Z"/><path class="fv4" d="M1911 2028 L2041 2158 L2041 2172 L1911 2042 Z" /></g><g class="o"><path transform="translate(8,16)" class="S sfh" d="M1862 1932 L1748 2046 L1764 2046 L1878 1932 Z"/><path class="fh6" d="M1862 1932 L1748 2046 L1764 2046 L1878 1932 Z" /></g><g class="o"><path transform="translate(4,8)" class="S sfh" d="M1656 1022 L1552 1126 L1588 1126 L1692 1022 Z"/><path class="fh4" d="M1656 1022 L1552 1126 L1588 1126 L1692 1022 Z" /></g><g class="o"><path transform="translate(7,14)" class="S sfv" d="M1795 1526 L1918 1649 L1918 1683 L1795 1560 Z"/><path class="fv3" d="M1795 1526 L1918 1649 L1918 1683 L1795 1560 Z" /></g><g class="o"><path transform="translate(3,6)" class="S sf" d="M1869 1209 L1759 1319 L1791 1319 L1901 1209 Z"/><path class="f5" d="M1869 1209 L1759 1319 L1791 1319 L1901 1209 Z" /></g><g class="o"><path transform="translate(9,18)" class="S sfv" d="M1811 1630 L1937 1756 L1937 1792 L1811 1666 Z"/><path class="fv6" d="M1811 1630 L1937 1756 L1937 1792 L1811 1666 Z" /></g><g class="o"><path transform="translate(6,12)" class="S ssh" d="M1255 1953 L1390 2088 L1406 2088 L1271 1953 Z"/><path class="sh4" d="M1255 1953 L1390 2088 L1406 2088 L1271 1953 Z" /></g><g class="o"><path transform="translate(3,6)" class="S sfh" d="M1398 1937 L1274 2061 L1308 2061 L1432 1937 Z"/><path class="fh1" d="M1398 1937 L1274 2061 L1308 2061 L1432 1937 Z" /></g><g class="o"><path transform="translate(3,6)" class="S sfh" d="M1001 1360 L1108 1467 L1142 1467 L1035 1360 Z"/><path class="fh7" d="M1001 1360 L1108 1467 L1142 1467 L1035 1360 Z" /></g><g class="o"><path transform="translate(3,6)" class="S sfv" d="M961 1070 L1204 1313 L1204 1321 L961 1078 Z"/><path class="fv3" d="M961 1070 L1204 1313 L1204 1321 L961 1078 Z" /></g><g class="o"><path transform="translate(6,12)" class="S sfh" d="M1838 1178 L1989 1329 L2011 1329 L1860 1178 Z"/><path class="fh4" d="M1838 1178 L1989 1329 L2011 1329 L1860 1178 Z" /></g><g class="o"><path transform="translate(6,12)" class="S sfv" d="M1327 1121 L1385 1179 L1385 1215 L1327 1157 Z"/><path class="fv5" d="M1327 1121 L1385 1179 L1385 1215 L1327 1157 Z" /></g><g class="o"><path transform="translate(6,12)" class="S sfh" d="M1427 1867 L1275 2019 L1283 2019 L1435 1867 Z"/><path class="fh2" d="M1427 1867 L1275 2019 L1283 2019 L1435 1867 Z" /></g><g class="o"><path transform="translate(7,14)" class="S ssv" d="M1996 1079 L2160 1243 L2160 1277 L1996 1113 Z"/><path class="sv2" d="M1996 1079 L2160 1243 L2160 1277 L1996 1113 Z" /></g><g class="o"><path transform="translate(4,8)" class="S sfh" d="M1560 1716 L1727 1883 L1745 1883 L1578 1716 Z"/><path class="fh5" d="M1560 1716 L1727 1883 L1745 1883 L1578 1716 Z" /></g><g class="o"><path transform="translate(7,14)" class="S sfh" d="M1088 1370 L948 1510 L972 1510 L1112 1370 Z"/><path class="fh4" d="M1088 1370 L948 1510 L972 1510 L1112 1370 Z" /></g><g class="o"><path transform="translate(5,10)" class="S sf" d="M1438 1065 L1241 1262 L1241 1292 L1438 1095 Z"/><path class="f2" d="M1438 1065 L1241 1262 L1241 1292 L1438 1095 Z" /></g><g class="o"><path transform="translate(6,12)" class="S sfh" d="M1598 1724 L1449 1873 L1483 1873 L1632 1724 Z"/><path class="fh3" d="M1598 1724 L1449 1873 L1483 1873 L1632 1724 Z" /></g><g class="o"><path transform="translate(3,6)" class="S sf" d="M1136 1390 L1084 1442 L1084 1466 L1136 1414 Z"/><path class="f4" d="M1136 1390 L1084 1442 L1084 1466 L1136 1414 Z" /></g><g class="o"><path transform="translate(7,14)" class="S sfh" d="M1244 1289 L1058 1475 L1096 1475 L1282 1289 Z"/><path class="fh6" d="M1244 1289 L1058 1475 L1096 1475 L1282 1289 Z" /></g><g class="o"><path transform="translate(9,18)" class="S sfh" d="M2012 1906 L1781 2137 L1807 2137 L2038 1906 Z"/><path class="fh7" d="M2012 1906 L1781 2137 L1807 2137 L2038 1906 Z" /></g><g class="o"><path transform="translate(2,4)" class="S sfh" d="M1354 1121 L1156 1319 L1184 1319 L1382 1121 Z"/><path class="fh2" d="M1354 1121 L1156 1319 L1184 1319 L1382 1121 Z" /></g><g class="o"><path transform="translate(7,14)" class="S sfh" d="M1763 1761 L1604 1920 L1622 1920 L1781 1761 Z"/><path class="fh5" d="M1763 1761 L1604 1920 L1622 1920 L1781 1761 Z" /></g><g class="o"><path transform="translate(6,12)" class="S ssh" d="M1864 1584 L2095 1815 L2207 1815 L1976 1584 Z"/><path class="sh4" d="M1864 1584 L2095 1815 L2207 1815 L1976 1584 Z" /></g><g class="o"><path transform="translate(9,18)" class="S sfv" d="M2011 1659 L2064 1712 L2064 1744 L2011 1691 Z"/><path class="fv3" d="M2011 1659 L2064 1712 L2064 1744 L2011 1691 Z" /></g><g class="o"><path transform="translate(7,14)" class="S sfv" d="M1957 1742 L2205 1990 L2205 2004 L1957 1756 Z"/><path class="fv7" d="M1957 1742 L2205 1990 L2205 2004 L1957 1756 Z" /></g><g class="o"><path transform="translate(5,10)" class="S sf" d="M1536 1511 L1676 1651 L1688 1651 L1548 1511 Z"/><path class="f4" d="M1536 1511 L1676 1651 L1688 1651 L1548 1511 Z" /></g><g class="o"><path transform="translate(5,10)" class="S ssv" d="M1712 1286 L1865 1439 L1865 1451 L1712 1298 Z"/><path class="sv6" d="M1712 1286 L1865 1439 L1865 1451 L1712 1298 Z" /></g><g class="o"><path transform="translate(4,8)" class="S sfh" d="M1929 1779 L2044 1894 L2060 1894 L1945 1779 Z"/><path class="fh5" d="M1929 1779 L2044 1894 L2060 1894 L1945 1779 Z" /></g><g class="o"><path transform="translate(4,8)" class="S sfv" d="M1141 1084 L942 1283 L942 1311 L1141 1112 Z"/><path class="fv1" d="M1141 1084 L942 1283 L942 1311 L1141 1112 Z" /></g><g class="o"><path transform="translate(6,12)" class="S ss" d="M1246 1367 L1174 1439 L1206 1439 L1278 1367 Z"/><path class="s6" d="M1246 1367 L1174 1439 L1206 1439 L1278 1367 Z" /></g><g class="o"><path transform="translate(8,16)" class="S sfh" d="M1799 1467 L2017 1685 L2033 1685 L1815 1467 Z"/><path class="fh4" d="M1799 1467 L2017 1685 L2033 1685 L1815 1467 Z" /></g><g class="o"><path transform="translate(6,12)" class="S sfh" d="M1084 1280 L917 1447 L951 1447 L1118 1280 Z"/><path class="fh2" d="M1084 1280 L917 1447 L951 1447 L1118 1280 Z" /></g><g class="o"><path transform="translate(4,8)" class="S sf" d="M1806 1154 L1868 1216 L1868 1236 L1806 1174 Z"/><path class="f6" d="M1806 1154 L1868 1216 L1868 1236 L1806 1174 Z" /></g><g class="o"><path transform="translate(6,12)" class="S sf" d="M1537 1506 L1753 1722 L1787 1722 L1571 1506 Z"/><path class="f6" d="M1537 1506 L1753 1722 L1787 1722 L1571 1506 Z" /></g><g class="o"><path transform="translate(9,18)" class="S sfh" d="M2031 1901 L2177 2047 L2199 2047 L2053 1901 Z"/><path class="fh7" d="M2031 1901 L2177 2047 L2199 2047 L2053 1901 Z" /></g><g class="o"><path transform="translate(6,12)" class="S sfh" d="M1682 1988 L1748 2054 L1776 2054 L1710 1988 Z"/><path class="fh6" d="M1682 1988 L1748 2054 L1776 2054 L1710 1988 Z" /></g><g class="o"><path transform="translate(8,16)" class="S sfh" d="M1067 1653 L956 1764 L1084 1764 L1195 1653 Z"/><path class="fh7" d="M1067 1653 L956 1764 L1084 1764 L1195 1653 Z" /></g><g class="o"><path transform="translate(2,4)" class="S sfv" d="M996 1307 L1219 1530 L1219 1562 L996 1339 Z"/><path class="fv3" d="M996 1307 L1219 1530 L1219 1562 L996 1339 Z" /></g><g class="o"><path transform="translate(9,18)" class="S ssh" d="M1486 959 L1254 1191 L1262 1191 L1494 959 Z"/><path class="sh6" d="M1486 959 L1254 1191 L1262 1191 L1494 959 Z" /></g><g class="o"><path transform="translate(7,14)" class="S sfv" d="M1751 1095 L1965 1309 L1965 1331 L1751 1117 Z"/><path class="fv1" d="M1751 1095 L1965 1309 L1965 1331 L1751 1117 Z" /></g><g class="o"><path transform="translate(4,8)" class="S sfv" d="M1925 1195 L1808 1312 L1808 1326 L1925 1209 Z"/><path class="fv4" d="M1925 1195 L1808 1312 L1808 1326 L1925 1209 Z" /></g><g class="o"><path transform="translate(3,6)" class="S sfh" d="M1748 1211 L1909 1372 L1943 1372 L1782 1211 Z"/><path class="fh6" d="M1748 1211 L1909 1372 L1943 1372 L1782 1211 Z" /></g><g class="o"><path transform="translate(5,10)" class="S sfh" d="M907 1052 L768 1191 L888 1191 L1027 1052 Z"/><path class="fh3" d="M907 1052 L768 1191 L888 1191 L1027 1052 Z" /></g><g class="o"><path transform="translate(2,4)" class="S sf" d="M1869 958 L2027 1116 L2053 1116 L1895 958 Z"/><path class="f2" d="M1869 958 L2027 1116 L2053 1116 L1895 958 Z" /></g><g class="o"><path transform="translate(7,14)" class="S sf" d="M2008 1087 L2121 1200 L2121 1222 L2008 1109 Z"/><path class="f1" d="M2008 1087 L2121 1200 L2121 1222 L2008 1109 Z" /></g><g class="o"><path transform="translate(6,12)" class="S sfv" d="M1473 957 L1713 1197 L1713 1211 L1473 971 Z"/><path class="fv3" d="M1473 957 L1713 1197 L1713 1211 L1473 971 Z" /></g><g class="o"><path transform="translate(9,18)" class="S sfh" d="M1811 1827 L2012 2028 L2108 2028 L1907 1827 Z"/><path class="fh7" d="M1811 1827 L2012 2028 L2108 2028 L1907 1827 Z" /></g><g class="o"><path transform="translate(5,10)" class="S sfh" d="M1760 1328 L1958 1526 L1986 1526 L1788 1328 Z"/><path class="fh6" d="M1760 1328 L1958 1526 L1986 1526 L1788 1328 Z" /></g><g class="o"><path transform="translate(9,18)" class="S sfv" d="M1149 1980 L1279 2110 L1279 2120 L1149 1990 Z"/><path class="fv7" d="M1149 1980 L1279 2110 L1279 2120 L1149 1990 Z" /></g><g class="o"><path transform="translate(2,4)" class="S sfv" d="M1765 1292 L1834 1361 L1834 1391 L1765 1322 Z"/><path class="fv1" d="M1765 1292 L1834 1361 L1834 1391 L1765 1322 Z" /></g><g class="o"><path transform="translate(8,16)" class="S sfh" d="M992 991 L850 1133 L882 1133 L1024 991 Z"/><path class="fh3" d="M992 991 L850 1133 L882 1133 L1024 991 Z" /></g><g class="o"><path transform="translate(3,6)" class="S sfv" d="M1718 1516 L1814 1612 L1814 1632 L1718 1536 Z"/><path class="fv7" d="M1718 1516 L1814 1612 L1814 1632 L1718 1536 Z" /></g><g class="o"><path transform="translate(8,16)" class="S sf" d="M1146 1568 L1032 1682 L1050 1682 L1164 1568 Z"/><path class="f6" d="M1146 1568 L1032 1682 L1050 1682 L1164 1568 Z" /></g><g class="o"><path transform="translate(9,18)" class="S sfh" d="M938 1635 L724 1849 L750 1849 L964 1635 Z"/><path class="fh2" d="M938 1635 L724 1849 L750 1849 L964 1635 Z" /></g><g class="o"><path transform="translate(7,14)" class="S sfh" d="M1344 1001 L1507 1164 L1543 1164 L1380 1001 Z"/><path class="fh7" d="M1344 1001 L1507 1164 L1543 1164 L1380 1001 Z" /></g><g class="o"><path transform="translate(9,18)" class="S sfh" d="M1548 1683 L1640 1775 L1654 1775 L1562 1683 Z"/><path class="fh6" d="M1548 1683 L1640 1775 L1654 1775 L1562 1683 Z" /></g><g class="o"><path transform="translate(7,14)" class="S sfh" d="M1241 1216 L1420 1395 L1440 1395 L1261 1216 Z"/><path class="fh1" d="M1241 1216 L1420 1395 L1440 1395 L1261 1216 Z" /></g><g class="o"><path transform="translate(9,18)" class="S sfh" d="M1524 1349 L1623 1448 L1661 1448 L1562 1349 Z"/><path class="fh7" d="M1524 1349 L1623 1448 L1661 1448 L1562 1349 Z" /></g><g class="o"><path transform="translate(9,18)" class="S sfv" d="M1165 1907 L1270 2012 L1270 2046 L1165 1941 Z"/><path class="fv1" d="M1165 1907 L1270 2012 L1270 2046 L1165 1941 Z" /></g><g class="o"><path transform="translate(9,18)" class="S ss" d="M1161 969 L1099 1031 L1099 1061 L1161 999 Z"/><path class="s7" d="M1161 969 L1099 1031 L1099 1061 L1161 999 Z" /></g><g class="o"><path transform="translate(6,12)" class="S sfh" d="M1802 1946 L1605 2143 L1619 2143 L1816 1946 Z"/><path class="fh4" d="M1802 1946 L1605 2143 L1619 2143 L1816 1946 Z" /></g><g class="o"><path transform="translate(3,6)" class="S sfv" d="M1116 1738 L1266 1888 L1266 1898 L1116 1748 Z"/><path class="fv5" d="M1116 1738 L1266 1888 L1266 1898 L1116 1748 Z" /></g><g class="o"><path transform="translate(3,6)" class="S ssv" d="M1133 1461 L1277 1605 L1277 1637 L1133 1493 Z"/><path class="sv5" d="M1133 1461 L1277 1605 L1277 1637 L1133 1493 Z" /></g><g class="o"><path transform="translate(2,4)" class="S sfv" d="M1495 1266 L1305 1456 L1305 1466 L1495 1276 Z"/><path class="fv1" d="M1495 1266 L1305 1456 L1305 1466 L1495 1276 Z" /></g><g class="o"><path transform="translate(2,4)" class="S sf" d="M1605 1481 L1838 1714 L1846 1714 L1613 1481 Z"/><path class="f7" d="M1605 1481 L1838 1714 L1846 1714 L1613 1481 Z" /></g><g class="o"><path transform="translate(4,8)" class="S sfh" d="M1058 2005 L901 2162 L911 2162 L1068 2005 Z"/><path class="fh7" d="M1058 2005 L901 2162 L911 2162 L1068 2005 Z" /></g><g class="o"><path transform="translate(5,10)" class="S sf" d="M2026 1654 L2150 1778 L2150 1786 L2026 1662 Z"/><path class="f7" d="M2026 1654 L2150 1778 L2150 1786 L2026 1662 Z" /></g><g class="o"><path transform="translate(7,14)" class="S sf" d="M1883 1828 L2017 1962 L2025 1962 L1891 1828 Z"/><path class="f6" d="M1883 1828 L2017 1962 L2025 1962 L1891 1828 Z" /></g><g class="o"><path transform="translate(5,10)" class="S ssh" d="M1010 1828 L761 2077 L797 2077 L1046 1828 Z"/><path class="sh7" d="M1010 1828 L761 2077 L797 2077 L1046 1828 Z" /></g><g class="o"><path transform="translate(5,10)" class="S sfv" d="M1204 1098 L986 1316 L986 1350 L1204 1132 Z"/><path class="fv2" d="M1204 1098 L986 1316 L986 1350 L1204 1132 Z" /></g><g class="o"><path transform="translate(7,14)" class="S sfv" d="M1695 1163 L1848 1316 L1848 1340 L1695 1187 Z"/><path class="fv4" d="M1695 1163 L1848 1316 L1848 1340 L1695 1187 Z" /></g><g class="o"><path transform="translate(7,14)" class="S sfv" d="M955 1945 L1063 2053 L1063 2085 L955 1977 Z"/><path class="fv4" d="M955 1945 L1063 2053 L1063 2085 L955 1977 Z" /></g><g class="o"><path transform="translate(5,10)" class="S sfh" d="M1152 1210 L1214 1272 L1232 1272 L1170 1210 Z"/><path class="fh6" d="M1152 1210 L1214 1272 L1232 1272 L1170 1210 Z" /></g><g class="o"><path transform="translate(3,6)" class="S ssv" d="M1419 1389 L1177 1631 L1177 1639 L1419 1397 Z"/><path class="sv1" d="M1419 1389 L1177 1631 L1177 1639 L1419 1397 Z" /></g><g class="o"><path transform="translate(4,8)" class="S sfv" d="M1794 1747 L1925 1878 L1925 1904 L1794 1773 Z"/><path class="fv3" d="M1794 1747 L1925 1878 L1925 1904 L1794 1773 Z" /></g><g class="o"><path transform="translate(2,4)" class="S sf" d="M1785 958 L1891 1064 L1891 1100 L1785 994 Z"/><path class="f4" d="M1785 958 L1891 1064 L1891 1100 L1785 994 Z" /></g><g class="o"><path transform="translate(2,4)" class="S sf" d="M1590 1077 L1361 1306 L1369 1306 L1598 1077 Z"/><path class="f1" d="M1590 1077 L1361 1306 L1369 1306 L1598 1077 Z" /></g><g class="o"><path transform="translate(7,14)" class="S sfh" d="M1692 1473 L1452 1713 L1474 1713 L1714 1473 Z"/><path class="fh1" d="M1692 1473 L1452 1713 L1474 1713 L1714 1473 Z" /></g><g class="o"><path transform="translate(8,16)" class="S sfh" d="M1932 1100 L2160 1328 L2192 1328 L1964 1100 Z"/><path class="fh3" d="M1932 1100 L2160 1328 L2192 1328 L1964 1100 Z" /></g><g class="o"><path transform="translate(6,12)" class="S sfh" d="M1494 1556 L1420 1630 L1442 1630 L1516 1556 Z"/><path class="fh4" d="M1494 1556 L1420 1630 L1442 1630 L1516 1556 Z" /></g><g class="o"><path transform="translate(9,18)" class="S sfv" d="M1195 1963 L1040 2118 L1040 2152 L1195 1997 Z"/><path class="fv5" d="M1195 1963 L1040 2118 L1040 2152 L1195 1997 Z" /></g><g class="o"><path transform="translate(2,4)" class="S sfh" d="M1781 1645 L1585 1841 L1611 1841 L1807 1645 Z"/><path class="fh2" d="M1781 1645 L1585 1841 L1611 1841 L1807 1645 Z" /></g><g class="o"><path transform="translate(6,12)" class="S ssv" d="M1055 1148 L1197 1290 L1197 1316 L1055 1174 Z"/><path class="sv5" d="M1055 1148 L1197 1290 L1197 1316 L1055 1174 Z" /></g><g class="o"><path transform="translate(7,14)" class="S sfh" d="M1495 1450 L1262 1683 L1298 1683 L1531 1450 Z"/><path class="fh1" d="M1495 1450 L1262 1683 L1298 1683 L1531 1450 Z" /></g><g class="o"><path transform="translate(9,18)" class="S sfv" d="M1675 1166 L1514 1327 L1514 1361 L1675 1200 Z"/><path class="fv1" d="M1675 1166 L1514 1327 L1514 1361 L1675 1200 Z" /></g><g class="o"><path transform="translate(7,14)" class="S sfh" d="M1976 2030 L2112 2166 L2130 2166 L1994 2030 Z"/><path class="fh5" d="M1976 2030 L2112 2166 L2130 2166 L1994 2030 Z" /></g><g class="o"><path transform="translate(9,18)" class="S sf" d="M1802 1958 L1891 2047 L1891 2075 L1802 1986 Z"/><path class="f1" d="M1802 1958 L1891 2047 L1891 2075 L1802 1986 Z" /></g><g class="o"><path transform="translate(8,16)" class="S sfh" d="M1561 1780 L1429 1912 L1449 1912 L1581 1780 Z"/><path class="fh5" d="M1561 1780 L1429 1912 L1449 1912 L1581 1780 Z" /></g><g class="o"><path transform="translate(7,14)" class="S sfh" d="M1250 1646 L1074 1822 L1092 1822 L1268 1646 Z"/><path class="fh2" d="M1250 1646 L1074 1822 L1092 1822 L1268 1646 Z" /></g><g class="o"><path transform="translate(5,10)" class="S sfh" d="M2014 1904 L2093 1983 L2105 1983 L2026 1904 Z"/><path class="fh6" d="M2014 1904 L2093 1983 L2105 1983 L2026 1904 Z" /></g><g class="o"><path transform="translate(6,12)" class="S ssh" d="M1920 1955 L1854 2021 L1878 2021 L1944 1955 Z"/><path class="sh2" d="M1920 1955 L1854 2021 L1878 2021 L1944 1955 Z" /></g><g class="o"><path transform="translate(2,4)" class="S sfh" d="M1778 1355 L1591 1542 L1623 1542 L1810 1355 Z"/><path class="fh3" d="M1778 1355 L1591 1542 L1623 1542 L1810 1355 Z" /></g><g class="o"><path transform="translate(4,8)" class="S sfv" d="M1576 2033 L1816 2273 L1816 2305 L1576 2065 Z"/><path class="fv6" d="M1576 2033 L1816 2273 L1816 2305 L1576 2065 Z" /></g><g class="o"><path transform="translate(9,18)" class="S sfv" d="M1748 2005 L1945 2202 L1945 2226 L1748 2029 Z"/><path class="fv3" d="M1748 2005 L1945 2202 L1945 2226 L1748 2029 Z" /></g><g class="o"><path transform="translate(6,12)" class="S sfv" d="M1159 1833 L976 2016 L976 2042 L1159 1859 Z"/><path class="fv2" d="M1159 1833 L976 2016 L976 2042 L1159 1859 Z" /></g><g class="o"><path transform="translate(4,8)" class="S sfh" d="M997 1952 L1204 2159 L1230 2159 L1023 1952 Z"/><path class="fh2" d="M997 1952 L1204 2159 L1230 2159 L1023 1952 Z" /></g><g class="o"><path transform="translate(5,10)" class="S sfh" d="M1402 2025 L1156 2271 L1182 2271 L1428 2025 Z"/><path class="fh6" d="M1402 2025 L1156 2271 L1182 2271 L1428 2025 Z" /></g><g class="o"><path transform="translate(3,6)" class="S sfh" d="M1504 2001 L1583 2080 L1601 2080 L1522 2001 Z"/><path class="fh6" d="M1504 2001 L1583 2080 L1601 2080 L1522 2001 Z" /></g><g class="o"><path transform="translate(3,6)" class="S sfh" d="M1683 1456 L1925 1698 L1947 1698 L1705 1456 Z"/><path class="fh1" d="M1683 1456 L1925 1698 L1947 1698 L1705 1456 Z" /></g><g class="o"><path transform="translate(8,16)" class="S ssh" d="M1972 1255 L1900 1327 L1940 1327 L2012 1255 Z"/><path class="sh3" d="M1972 1255 L1900 1327 L1940 1327 L2012 1255 Z" /></g><g class="o"><path transform="translate(7,14)" class="S sf" d="M1373 1139 L1585 1351 L1613 1351 L1401 1139 Z"/><path class="f1" d="M1373 1139 L1585 1351 L1613 1351 L1401 1139 Z" /></g><g class="o"><path transform="translate(5,10)" class="S sf" d="M1792 1368 L2029 1605 L2029 1629 L1792 1392 Z"/><path class="f4" d="M1792 1368 L2029 1605 L2029 1629 L1792 1392 Z" /></g><g class="o"><path transform="translate(4,8)" class="S sfv" d="M1901 1853 L1996 1948 L1996 1984 L1901 1889 Z"/><path class="fv6" d="M1901 1853 L1996 1948 L1996 1984 L1901 1889 Z" /></g><g class="o"><path transform="translate(4,8)" class="S sfh" d="M1238 1496 L1184 1550 L1216 1550 L1270 1496 Z"/><path class="fh3" d="M1238 1496 L1184 1550 L1216 1550 L1270 1496 Z" /></g><g class="o"><path transform="translate(6,12)" class="S sfh" d="M1571 1289 L1655 1373 L1667 1373 L1583 1289 Z"/><path class="fh4" d="M1571 1289 L1655 1373 L1667 1373 L1583 1289 Z" /></g><g class="o"><path transform="translate(7,14)" class="S ss" d="M1807 1857 L1998 2048 L2034 2048 L1843 1857 Z"/><path class="s4" d="M1807 1857 L1998 2048 L2034 2048 L1843 1857 Z" /></g><g class="o"><path transform="translate(9,18)" class="S sfh" d="M1194 1678 L978 1894 L1008 1894 L1224 1678 Z"/><path class="fh5" d="M1194 1678 L978 1894 L1008 1894 L1224 1678 Z" /></g><g class="o"><path transform="translate(9,18)" class="S sfh" d="M1114 1735 L1247 1868 L1263 1868 L1130 1735 Z"/><path class="fh5" d="M1114 1735 L1247 1868 L1263 1868 L1130 1735 Z" /></g><g class="o"><path transform="translate(3,6)" class="S sfh" d="M1185 1955 L953 2187 L971 2187 L1203 1955 Z"/><path class="fh3" d="M1185 1955 L953 2187 L971 2187 L1203 1955 Z" /></g><g class="o"><path transform="translate(7,14)" class="S sfv" d="M1667 1426 L1737 1496 L1737 1518 L1667 1448 Z"/><path class="fv7" d="M1667 1426 L1737 1496 L1737 1518 L1667 1448 Z" /></g><g class="o"><path transform="translate(9,18)" class="S sfv" d="M1943 1109 L2150 1316 L2150 1336 L1943 1129 Z"/><path class="fv1" d="M1943 1109 L2150 1316 L2150 1336 L1943 1129 Z" /></g><g class="o"><path transform="translate(6,12)" class="S sfv" d="M1118 1083 L998 1203 L998 1215 L1118 1095 Z"/><path class="fv1" d="M1118 1083 L998 1203 L998 1215 L1118 1095 Z" /></g><g class="o"><path transform="translate(8,16)" class="S ss" d="M1878 1951 L1770 2059 L1802 2059 L1910 1951 Z"/><path class="s1" d="M1878 1951 L1770 2059 L1802 2059 L1910 1951 Z" /></g><g class="o"><path transform="translate(6,12)" class="S sfh" d="M1621 1798 L1794 1971 L1818 1971 L1645 1798 Z"/><path class="fh4" d="M1621 1798 L1794 1971 L1818 1971 L1645 1798 Z" /></g><g class="o"><path transform="translate(4,8)" class="S ss" d="M1015 1683 L1223 1891 L1259 1891 L1051 1683 Z"/><path class="s7" d="M1015 1683 L1223 1891 L1259 1891 L1051 1683 Z" /></g></g><use href="#slashes" transform-origin="1500 1500" transform="rotate(180) scale(2)"/></g><rect x="1080" y="1080" width="840" height="840" stroke-width="20" class="o s5" /><use href="#slashes" transform-origin="1500 1500" transform="scale(1)"/><use href="#slashes" transform-origin="1500 1500" transform="rotate(180) scale(1,-1)"/></svg>