<svg xmlns="http://www.w3.org/2000/svg" viewBox="750 750 1500 1500"><style>/*<![CDATA[*/svg{background:rgb(8,103,136);max-width:100vw;max-height:100vh}path{stroke-width:4}.o{opacity:.75}.S{opacity:.4}.sf{stroke:none;fill:black}.sfh{stroke:none;fill:url(#hs)}.sfv{stroke:none;fill:url(#vs)}.ss{stroke:black;fill:none}.ssh{stroke:url(#hs);fill:none}.ssv{stroke:url(#vs);fill:none}.s1{fill:none;stroke:rgb(34,34,34)}.f1{stroke:none;fill:rgb(34,34,34)}.sh1{fill:none;stroke:url(#h1)}.fh1{stroke:none;fill:url(#h1)}.sv1{fill:none;stroke:url(#v1)}.fv1{stroke:none;fill:url(#v1)}.s2{fill:none;stroke:rgb(221,28,26)}.f2{stroke:none;fill:rgb(221,28,26)}.sh2{fill:none;stroke:url(#h2)}.fh2{stroke:none;fill:url(#h2)}.sv2{fill:none;stroke:url(#v2)}.fv2{stroke:none;fill:url(#v2)}.s3{fill:none;stroke:rgb(6,174,213)}.f3{stroke:none;fill:rgb(6,174,213)}.sh3{fill:none;stroke:url(#h3)}.fh3{stroke:none;fill:url(#h3)}.sv3{fill:none;stroke:url(#v3)}.fv3{stroke:none;fill:url(#v3)}.s4{fill:none;stroke:rgb(255,241,208)}.f4{stroke:none;fill:rgb(255,241,208)}.sh4{fill:none;stroke:url(#h4)}.fh4{stroke:none;fill:url(#h4)}.sv4{fill:none;stroke:url(#v4)}.fv4{stroke:none;fill:url(#v4)}.s5{fill:none;stroke:rgb(240,200,8)}.f5{stroke:none;fill:rgb(240,200,8)}.sh5{fill:none;stroke:url(#h5)}.fh5{stroke:none;fill:url(#h5)}.sv5{fill:none;stroke:url(#v5)}.fv5{stroke:none;fill:url(#v5)}.s6{fill:none;stroke:rgb(255,255,255)}.f6{stroke:none;fill:rgb(255,255,255)}.sh6{fill:none;stroke:url(#h6)}.fh6{stroke:none;fill:url(#h6)}.sv6{fill:none;stroke:url(#v6)}.fv6{stroke:none;fill:url(#v6)}.s7{fill:none;stroke:rgb(255,0,0)}.f7{stroke:none;fill:rgb(255,0,0)}.sh7{fill:none;stroke:url(#h7)}.fh7{stroke:none;fill:url(#h7)}.sv7{fill:none;stroke:url(#v7)}.fv7{stroke:none;fill:url(#v7)}/*]]>*/</style><defs><linearGradient gradientTransform="rotate(90)" id="hs"><stop offset="20%" stop-color="#000" /><stop offset="95%" stop-color="rgba(0, 0, 0, 0)" /></linearGradient><linearGradient id="vs"><stop offset="20%" stop-color="#000" /><stop offset="95%" stop-color="rgba(0, 0, 0, 0)" /></linearGradient><linearGradient gradientTransform="rotate(90)" id="h1"><stop offset="20%" stop-color="rgba(34,34,34,1)" /><stop offset="95%" stop-color="rgba(34,34,34,0)" /></linearGradient><linearGradient id="v1"><stop offset="20%" stop-color="rgba(34,34,34,1)" /><stop offset="95%" stop-color="rgba(34,34,34,0)" /></linearGradient><linearGradient gradientTransform="rotate(90)" id="h2"><stop offset="20%" stop-color="rgba(221,28,26,1)" /><stop offset="95%" stop-color="rgba(221,28,26,0)" /></linearGradient><linearGradient id="v2"><stop offset="20%" stop-color="rgba(221,28,26,1)" /><stop offset="95%" stop-color="rgba(221,28,26,0)" /></linearGradient><linearGradient gradientTransform="rotate(90)" id="h3"><stop offset="20%" stop-color="rgba(6,174,213,1)" /><stop offset="95%" stop-color="rgba(6,174,213,0)" /></linearGradient><linearGradient id="v3"><stop offset="20%" stop-color="rgba(6,174,213,1)" /><stop offset="95%" stop-color="rgba(6,174,213,0)" /></linearGradient><linearGradient gradientTransform="rotate(90)" id="h4"><stop offset="20%" stop-color="rgba(255,241,208,1)" /><stop offset="95%" stop-color="rgba(255,241,208,0)" /></linearGradient><linearGradient id="v4"><stop offset="20%" stop-color="rgba(255,241,208,1)" /><stop offset="95%" stop-color="rgba(255,241,208,0)" /></linearGradient><linearGradient gradientTransform="rotate(90)" id="h5"><stop offset="20%" stop-color="rgba(240,200,8,1)" /><stop offset="95%" stop-color="rgba(240,200,8,0)" /></linearGradient><linearGradient id="v5"><stop offset="20%" stop-color="rgba(240,200,8,1)" /><stop offset="95%" stop-color="rgba(240,200,8,0)" /></linearGradient><linearGradient gradientTransform="rotate(90)" id="h6"><stop offset="20%" stop-color="rgba(255,255,255,1)" /><stop offset="95%" stop-color="rgba(255,255,255,0)" /></linearGradient><linearGradient id="v6"><stop offset="20%" stop-color="rgba(255,255,255,1)" /><stop offset="95%" stop-color="rgba(255,255,255,0)" /></linearGradient><linearGradient gradientTransform="rotate(90)" id="h7"><stop offset="20%" stop-color="rgba(255,0,0,1)" /><stop offset="95%" stop-color="rgba(255,0,0,0)" /></linearGradient><linearGradient id="v7"><stop offset="20%" stop-color="rgba(255,0,0,1)" /><stop offset="95%" stop-color="rgba(255,0,0,0)" /></linearGradient></defs><g transform-origin="1500 1500" transform="scale(2)" opacity=".2"><g id="slashes"><g class="o"><path transform="translate(7,14)" class="S sfv" d="M1422 1972 L2154 2704 L2154 2784 L1422 2052 Z"/><path class="fv6" d="M1422 1972 L2154 2704 L2154 2784 L1422 2052 Z" /></g><g class="o"><path transform="translate(8,16)" class="S sf" d="M1890 893 L1752 1031 L1752 1151 L1890 1013 Z"/><path class="f3" d="M1890 893 L1752 1031 L1752 1151 L1890 1013 Z" /></g><g class="o"><path transform="translate(2,4)" class="S sfh" d="M1986 1057 L2127 1198 L2161 1198 L2020 1057 Z"/><path class="fh4" d="M1986 1057 L2127 1198 L2161 1198 L2020 1057 Z" /></g><g class="o"><path transform="translate(3,6)" class="S sf" d="M1306 1454 L1173 1587 L1193 1587 L1326 1454 Z"/><path class="f2" d="M1306 1454 L1173 1587 L1193 1587 L1326 1454 Z" /></g><g class="o"><path transform="translate(9,18)" class="S sfh" d="M1806 1885 L1978 2057 L2008 2057 L1836 1885 Z"/><path class="fh5" d="M1806 1885 L1978 2057 L2008 2057 L1836 1885 Z" /></g><g class="o"><path transform="translate(7,14)" class="S sfh" d="M1960 1228 L1722 1466 L1754 1466 L1992 1228 Z"/><path class="fh7" d="M1960 1228 L1722 1466 L1754 1466 L1992 1228 Z" /></g><g class="o"><path transform="translate(4,8)" class="S sfv" d="M1992 1270 L1892 1370 L1892 1400 L1992 1300 Z"/><path class="fv5" d="M1992 1270 L1892 1370 L1892 1400 L1992 1300 Z" /></g><g class="o"><path transform="translate(3,6)" class="S sfv" d="M1092 1317 L888 1521 L888 1625 L1092 1421 Z"/><path class="fv1" d="M1092 1317 L888 1521 L888 1625 L1092 1421 Z" /></g><g class="o"><path transform="translate(4,8)" class="S ssh" d="M1262 1928 L1318 1984 L1338 1984 L1282 1928 Z"/><path class="sh6" d="M1262 1928 L1318 1984 L1338 1984 L1282 1928 Z" /></g><g class="o"><path transform="translate(5,10)" class="S sf" d="M1891 951 L1336 1506 L1372 1506 L1927 951 Z"/><path class="f2" d="M1891 951 L1336 1506 L1372 1506 L1927 951 Z" /></g><g class="o"><path transform="translate(9,18)" class="S sfv" d="M1987 1454 L2208 1675 L2208 1703 L1987 1482 Z"/><path class="fv2" d="M1987 1454 L2208 1675 L2208 1703 L1987 1482 Z" /></g><g class="o"><path transform="translate(2,4)" class="S sf" d="M1699 1117 L1432 1384 L1468 1384 L1735 1117 Z"/><path class="f1" d="M1699 1117 L1432 1384 L1468 1384 L1735 1117 Z" /></g><g class="o"><path transform="translate(6,12)" class="S sfh" d="M1313 950 L1469 1106 L1497 1106 L1341 950 Z"/><path class="fh6" d="M1313 950 L1469 1106 L1497 1106 L1341 950 Z" /></g><g class="o"><path transform="translate(9,18)" class="S sfv" d="M1525 1761 L1464 1822 L1464 1858 L1525 1797 Z"/><path class="fv5" d="M1525 1761 L1464 1822 L1464 1858 L1525 1797 Z" /></g><g class="o"><path transform="translate(8,16)" class="S sfv" d="M1923 1498 L2334 1909 L2334 1927 L1923 1516 Z"/><path class="fv5" d="M1923 1498 L2334 1909 L2334 1927 L1923 1516 Z" /></g><g class="o"><path transform="translate(5,10)" class="S sfh" d="M1616 1207 L1443 1380 L1475 1380 L1648 1207 Z"/><path class="fh1" d="M1616 1207 L1443 1380 L1475 1380 L1648 1207 Z" /></g><g class="o"><path transform="translate(3,6)" class="S sfh" d="M1040 1833 L1211 2004 L1237 2004 L1066 1833 Z"/><path class="fh1" d="M1040 1833 L1211 2004 L1237 2004 L1066 1833 Z" /></g><g class="o"><path transform="translate(9,18)" class="S sfv" d="M2005 1159 L2284 1438 L2284 1486 L2005 1207 Z"/><path class="fv2" d="M2005 1159 L2284 1438 L2284 1486 L2005 1207 Z" /></g><g class="o"><path transform="translate(8,16)" class="S sfh" d="M2027 1724 L2237 1934 L2255 1934 L2045 1724 Z"/><path class="fh5" d="M2027 1724 L2237 1934 L2255 1934 L2045 1724 Z" /></g><g class="o"><path transform="translate(4,8)" class="S sfv" d="M1554 964 L1385 1133 L1385 1149 L1554 980 Z"/><path class="fv7" d="M1554 964 L1385 1133 L1385 1149 L1554 980 Z" /></g><g class="o"><path transform="translate(3,6)" class="S sfv" d="M1663 1011 L1538 1136 L1538 1164 L1663 1039 Z"/><path class="fv2" d="M1663 1011 L1538 1136 L1538 1164 L1663 1039 Z" /></g><g class="o"><path transform="translate(8,16)" class="S sfh" d="M1394 1964 L1246 2112 L1274 2112 L1422 1964 Z"/><path class="fh5" d="M1394 1964 L1246 2112 L1274 2112 L1422 1964 Z" /></g><g class="o"><path transform="translate(4,8)" class="S sfh" d="M1405 1635 L1337 1703 L1355 1703 L1423 1635 Z"/><path class="fh7" d="M1405 1635 L1337 1703 L1355 1703 L1423 1635 Z" /></g><g class="o"><path transform="translate(5,10)" class="S sf" d="M1454 1568 L1576 1690 L1576 1698 L1454 1576 Z"/><path class="f4" d="M1454 1568 L1576 1690 L1576 1698 L1454 1576 Z" /></g><g class="o"><path transform="translate(8,16)" class="S sf" d="M2028 1819 L1404 2443 L1440 2443 L2064 1819 Z"/><path class="f3" d="M2028 1819 L1404 2443 L1440 2443 L2064 1819 Z" /></g><g class="o"><path transform="translate(8,16)" class="S sfh" d="M1671 1617 L1565 1723 L1597 1723 L1703 1617 Z"/><path class="fh1" d="M1671 1617 L1565 1723 L1597 1723 L1703 1617 Z" /></g><g class="o"><path transform="translate(3,6)" class="S sfv" d="M1540 1595 L1650 1705 L1650 1721 L1540 1611 Z"/><path class="fv5" d="M1540 1595 L1650 1705 L1650 1721 L1540 1611 Z" /></g><g class="o"><path transform="translate(7,14)" class="S sf" d="M1494 1582 L1669 1757 L1669 1765 L1494 1590 Z"/><path class="f1" d="M1494 1582 L1669 1757 L1669 1765 L1494 1590 Z" /></g><g class="o"><path transform="translate(4,8)" class="S sfv" d="M983 1600 L1682 2299 L1682 2313 L983 1614 Z"/><path class="fv7" d="M983 1600 L1682 2299 L1682 2313 L983 1614 Z" /></g><g class="o"><path transform="translate(2,4)" class="S sfv" d="M1215 1792 L1034 1973 L1034 1983 L1215 1802 Z"/><path class="fv2" d="M1215 1792 L1034 1973 L1034 1983 L1215 1802 Z" /></g><g class="o"><path transform="translate(2,4)" class="S sfv" d="M1847 1739 L2010 1902 L2010 1916 L1847 1753 Z"/><path class="fv4" d="M1847 1739 L2010 1902 L2010 1916 L1847 1753 Z" /></g><g class="o"><path transform="translate(4,8)" class="S sf" d="M1649 1932 L1349 2232 L1363 2232 L1663 1932 Z"/><path class="f5" d="M1649 1932 L1349 2232 L1363 2232 L1663 1932 Z" /></g><g class="o"><path transform="translate(9,18)" class="S sfv" d="M1253 1499 L1352 1598 L1352 1632 L1253 1533 Z"/><path class="fv5" d="M1253 1499 L1352 1598 L1352 1632 L1253 1533 Z" /></g><g class="o"><path transform="translate(3,6)" class="S sfv" d="M1919 1004 L1765 1158 L1765 1178 L1919 1024 Z"/><path class="fv5" d="M1919 1004 L1765 1158 L1765 1178 L1919 1024 Z" /></g><g class="o"><path transform="translate(2,4)" class="S sf" d="M1476 1057 L1308 1225 L1308 1243 L1476 1075 Z"/><path class="f4" d="M1476 1057 L1308 1225 L1308 1243 L1476 1075 Z" /></g><g class="o"><path transform="translate(8,16)" class="S ssh" d="M1211 1731 L1364 1884 L1392 1884 L1239 1731 Z"/><path class="sh3" d="M1211 1731 L1364 1884 L1392 1884 L1239 1731 Z" /></g><g class="o"><path transform="translate(3,6)" class="S sf" d="M1396 1270 L1168 1498 L1184 1498 L1412 1270 Z"/><path class="f2" d="M1396 1270 L1168 1498 L1184 1498 L1412 1270 Z" /></g><g class="o"><path transform="translate(9,18)" class="S sfv" d="M1008 1559 L862 1705 L862 1743 L1008 1597 Z"/><path class="fv1" d="M1008 1559 L862 1705 L862 1743 L1008 1597 Z" /></g><g class="o"><path transform="translate(7,14)" class="S sfh" d="M1654 1337 L1527 1464 L1545 1464 L1672 1337 Z"/><path class="fh5" d="M1654 1337 L1527 1464 L1545 1464 L1672 1337 Z" /></g><g class="o"><path transform="translate(6,12)" class="S sfh" d="M1452 1061 L1321 1192 L1345 1192 L1476 1061 Z"/><path class="fh3" d="M1452 1061 L1321 1192 L1345 1192 L1476 1061 Z" /></g><g class="o"><path transform="translate(6,12)" class="S sfv" d="M1703 1787 L1601 1889 L1601 1953 L1703 1851 Z"/><path class="fv5" d="M1703 1787 L1601 1889 L1601 1953 L1703 1851 Z" /></g><g class="o"><path transform="translate(8,16)" class="S sfv" d="M1805 1361 L2153 1709 L2153 1731 L1805 1383 Z"/><path class="fv6" d="M1805 1361 L2153 1709 L2153 1731 L1805 1383 Z" /></g><g class="o"><path transform="translate(3,6)" class="S sfh" d="M1578 1851 L1700 1973 L1732 1973 L1610 1851 Z"/><path class="fh6" d="M1578 1851 L1700 1973 L1732 1973 L1610 1851 Z" /></g><g class="o"><path transform="translate(3,6)" class="S ssv" d="M1684 1098 L1825 1239 L1825 1261 L1684 1120 Z"/><path class="sv5" d="M1684 1098 L1825 1239 L1825 1261 L1684 1120 Z" /></g><g class="o"><path transform="translate(7,14)" class="S sfv" d="M1559 1776 L1777 1994 L1777 2122 L1559 1904 Z"/><path class="fv2" d="M1559 1776 L1777 1994 L1777 2122 L1559 1904 Z" /></g><g class="o"><path transform="translate(7,14)" class="S sfv" d="M1169 1315 L917 1567 L917 1587 L1169 1335 Z"/><path class="fv5" d="M1169 1315 L917 1567 L917 1587 L1169 1335 Z" /></g><g class="o"><path transform="translate(8,16)" class="S sfh" d="M1542 1357 L1471 1428 L1607 1428 L1678 1357 Z"/><path class="fh3" d="M1542 1357 L1471 1428 L1607 1428 L1678 1357 Z" /></g><g class="o"><path transform="translate(9,18)" class="S sfh" d="M1715 968 L1551 1132 L1589 1132 L1753 968 Z"/><path class="fh7" d="M1715 968 L1551 1132 L1589 1132 L1753 968 Z" /></g><g class="o"><path transform="translate(2,4)" class="S sf" d="M1794 1330 L1383 1741 L1383 1763 L1794 1352 Z"/><path class="f4" d="M1794 1330 L1383 1741 L1383 1763 L1794 1352 Z" /></g><g class="o"><path transform="translate(9,18)" class="S sfv" d="M1571 1695 L1622 1746 L1622 1778 L1571 1727 Z"/><path class="fv5" d="M1571 1695 L1622 1746 L1622 1778 L1571 1727 Z" /></g><g class="o"><path transform="translate(7,14)" class="S sfv" d="M1190 1482 L1100 1572 L1100 1582 L1190 1492 Z"/><path class="fv6" d="M1190 1482 L1100 1572 L1100 1582 L1190 1492 Z" /></g><g class="o"><path transform="translate(4,8)" class="S sf" d="M1622 1431 L1730 1539 L1730 1549 L1622 1441 Z"/><path class="f2" d="M1622 1431 L1730 1539 L1730 1549 L1622 1441 Z" /></g><g class="o"><path transform="translate(3,6)" class="S sfv" d="M1459 937 L1521 999 L1521 1037 L1459 975 Z"/><path class="fv4" d="M1459 937 L1521 999 L1521 1037 L1459 975 Z" /></g><g class="o"><path transform="translate(3,6)" class="S sfh" d="M1785 1943 L1938 2096 L1966 2096 L1813 1943 Z"/><path class="fh1" d="M1785 1943 L1938 2096 L1966 2096 L1813 1943 Z" /></g><g class="o"><path transform="translate(7,14)" class="S sfh" d="M1308 1743 L1431 1866 L1457 1866 L1334 1743 Z"/><path class="fh4" d="M1308 1743 L1431 1866 L1457 1866 L1334 1743 Z" /></g><g class="o"><path transform="translate(8,16)" class="S sfh" d="M1332 956 L1535 1159 L1571 1159 L1368 956 Z"/><path class="fh1" d="M1332 956 L1535 1159 L1571 1159 L1368 956 Z" /></g><g class="o"><path transform="translate(8,16)" class="S ss" d="M1355 1709 L1414 1768 L1422 1768 L1363 1709 Z"/><path class="s6" d="M1355 1709 L1414 1768 L1422 1768 L1363 1709 Z" /></g><g class="o"><path transform="translate(3,6)" class="S sfv" d="M1284 1708 L1527 1951 L1527 1983 L1284 1740 Z"/><path class="fv5" d="M1284 1708 L1527 1951 L1527 1983 L1284 1740 Z" /></g><g class="o"><path transform="translate(6,12)" class="S ssv" d="M1362 1571 L1143 1790 L1143 1828 L1362 1609 Z"/><path class="sv3" d="M1362 1571 L1143 1790 L1143 1828 L1362 1609 Z" /></g><g class="o"><path transform="translate(8,16)" class="S sfh" d="M1192 1531 L1597 1936 L1609 1936 L1204 1531 Z"/><path class="fh7" d="M1192 1531 L1597 1936 L1609 1936 L1204 1531 Z" /></g><g class="o"><path transform="translate(7,14)" class="S ssh" d="M1731 1082 L1911 1262 L1919 1262 L1739 1082 Z"/><path class="sh2" d="M1731 1082 L1911 1262 L1919 1262 L1739 1082 Z" /></g><g class="o"><path transform="translate(4,8)" class="S sfv" d="M1557 1388 L1790 1621 L1790 1717 L1557 1484 Z"/><path class="fv7" d="M1557 1388 L1790 1621 L1790 1717 L1557 1484 Z" /></g><g class="o"><path transform="translate(7,14)" class="S sf" d="M1350 2031 L1136 2245 L1136 2279 L1350 2065 Z"/><path class="f6" d="M1350 2031 L1136 2245 L1136 2279 L1350 2065 Z" /></g><g class="o"><path transform="translate(9,18)" class="S sfh" d="M1632 1180 L1713 1261 L1749 1261 L1668 1180 Z"/><path class="fh6" d="M1632 1180 L1713 1261 L1749 1261 L1668 1180 Z" /></g><g class="o"><path transform="translate(8,16)" class="S sfv" d="M1025 1284 L1215 1474 L1215 1494 L1025 1304 Z"/><path class="fv5" d="M1025 1284 L1215 1474 L1215 1494 L1025 1304 Z" /></g><g class="o"><path transform="translate(9,18)" class="S sf" d="M1187 953 L984 1156 L984 1188 L1187 985 Z"/><path class="f3" d="M1187 953 L984 1156 L984 1188 L1187 985 Z" /></g><g class="o"><path transform="translate(5,10)" class="S sfh" d="M1589 1569 L1823 1803 L1843 1803 L1609 1569 Z"/><path class="fh4" d="M1589 1569 L1823 1803 L1843 1803 L1609 1569 Z" /></g><g class="o"><path transform="translate(5,10)" class="S sfv" d="M1002 1455 L1156 1609 L1156 1617 L1002 1463 Z"/><path class="fv7" d="M1002 1455 L1156 1609 L1156 1617 L1002 1463 Z" /></g><g class="o"><path transform="translate(8,16)" class="S sf" d="M1273 1907 L1173 2007 L1187 2007 L1287 1907 Z"/><path class="f2" d="M1273 1907 L1173 2007 L1187 2007 L1287 1907 Z" /></g><g class="o"><path transform="translate(7,14)" class="S sfv" d="M1922 1479 L1862 1539 L1862 1643 L1922 1583 Z"/><path class="fv3" d="M1922 1479 L1862 1539 L1862 1643 L1922 1583 Z" /></g><g class="o"><path transform="translate(7,14)" class="S sfv" d="M1310 1292 L1505 1487 L1505 1499 L1310 1304 Z"/><path class="fv4" d="M1310 1292 L1505 1487 L1505 1499 L1310 1304 Z" /></g><g class="o"><path transform="translate(8,16)" class="S sfh" d="M1877 1602 L2070 1795 L2102 1795 L1909 1602 Z"/><path class="fh1" d="M1877 1602 L2070 1795 L2102 1795 L1909 1602 Z" /></g><g class="o"><path transform="translate(3,6)" class="S sfv" d="M1026 1185 L835 1376 L835 1406 L1026 1215 Z"/><path class="fv5" d="M1026 1185 L835 1376 L835 1406 L1026 1215 Z" /></g><g class="o"><path transform="translate(6,12)" class="S ssh" d="M1386 1582 L1145 1823 L1155 1823 L1396 1582 Z"/><path class="sh3" d="M1386 1582 L1145 1823 L1155 1823 L1396 1582 Z" /></g><g class="o"><path transform="translate(7,14)" class="S sfh" d="M1646 1195 L1869 1418 L1885 1418 L1662 1195 Z"/><path class="fh1" d="M1646 1195 L1869 1418 L1885 1418 L1662 1195 Z" /></g><g class="o"><path transform="translate(5,10)" class="S sfv" d="M1807 1061 L1144 1724 L1144 1744 L1807 1081 Z"/><path class="fv6" d="M1807 1061 L1144 1724 L1144 1744 L1807 1081 Z" /></g><g class="o"><path transform="translate(3,6)" class="S sf" d="M1036 1246 L1174 1384 L1208 1384 L1070 1246 Z"/><path class="f6" d="M1036 1246 L1174 1384 L1208 1384 L1070 1246 Z" /></g><g class="o"><path transform="translate(5,10)" class="S sfh" d="M1687 1047 L1637 1097 L1655 1097 L1705 1047 Z"/><path class="fh3" d="M1687 1047 L1637 1097 L1655 1097 L1705 1047 Z" /></g><g class="o"><path transform="translate(4,8)" class="S sfh" d="M1545 1478 L1726 1659 L1878 1659 L1697 1478 Z"/><path class="fh5" d="M1545 1478 L1726 1659 L1878 1659 L1697 1478 Z" /></g><g class="o"><path transform="translate(6,12)" class="S ssv" d="M1754 1691 L1940 1877 L1940 1891 L1754 1705 Z"/><path class="sv7" d="M1754 1691 L1940 1877 L1940 1891 L1754 1705 Z" /></g><g class="o"><path transform="translate(8,16)" class="S sf" d="M1375 1652 L1184 1843 L1184 1857 L1375 1666 Z"/><path class="f6" d="M1375 1652 L1184 1843 L1184 1857 L1375 1666 Z" /></g><g class="o"><path transform="translate(8,16)" class="S sfh" d="M1259 2019 L1025 2253 L1055 2253 L1289 2019 Z"/><path class="fh2" d="M1259 2019 L1025 2253 L1055 2253 L1289 2019 Z" /></g><g class="o"><path transform="translate(2,4)" class="S sfv" d="M1203 1489 L1143 1549 L1143 1573 L1203 1513 Z"/><path class="fv1" d="M1203 1489 L1143 1549 L1143 1573 L1203 1513 Z" /></g><g class="o"><path transform="translate(5,10)" class="S sfv" d="M970 1473 L670 1773 L670 1901 L970 1601 Z"/><path class="fv1" d="M970 1473 L670 1773 L670 1901 L970 1601 Z" /></g><g class="o"><path transform="translate(5,10)" class="S sf" d="M972 1547 L855 1664 L855 1692 L972 1575 Z"/><path class="f7" d="M972 1547 L855 1664 L855 1692 L972 1575 Z" /></g><g class="o"><path transform="translate(5,10)" class="S sf" d="M1724 1073 L1319 1478 L1341 1478 L1746 1073 Z"/><path class="f7" d="M1724 1073 L1319 1478 L1341 1478 L1746 1073 Z" /></g><g class="o"><path transform="translate(5,10)" class="S sf" d="M1176 1663 L1008 1831 L1016 1831 L1184 1663 Z"/><path class="f6" d="M1176 1663 L1008 1831 L1016 1831 L1184 1663 Z" /></g><g class="o"><path transform="translate(4,8)" class="S sfh" d="M1504 1990 L1652 2138 L1680 2138 L1532 1990 Z"/><path class="fh5" d="M1504 1990 L1652 2138 L1680 2138 L1532 1990 Z" /></g><g class="o"><path transform="translate(3,6)" class="S sfh" d="M1160 1051 L1298 1189 L1324 1189 L1186 1051 Z"/><path class="fh3" d="M1160 1051 L1298 1189 L1324 1189 L1186 1051 Z" /></g><g class="o"><path transform="translate(9,18)" class="S sfh" d="M1189 1362 L1327 1500 L1353 1500 L1215 1362 Z"/><path class="fh4" d="M1189 1362 L1327 1500 L1353 1500 L1215 1362 Z" /></g><g class="o"><path transform="translate(7,14)" class="S sfh" d="M1786 1289 L1867 1370 L1883 1370 L1802 1289 Z"/><path class="fh2" d="M1786 1289 L1867 1370 L1883 1370 L1802 1289 Z" /></g><g class="o"><path transform="translate(5,10)" class="S ssv" d="M1978 972 L2121 1115 L2121 1125 L1978 982 Z"/><path class="sv4" d="M1978 972 L2121 1115 L2121 1125 L1978 982 Z" /></g><g class="o"><path transform="translate(5,10)" class="S sf" d="M1714 1418 L1939 1643 L1939 1661 L1714 1436 Z"/><path class="f7" d="M1714 1418 L1939 1643 L1939 1661 L1714 1436 Z" /></g><g class="o"><path transform="translate(2,4)" class="S sf" d="M1289 1302 L1392 1405 L1392 1423 L1289 1320 Z"/><path class="f2" d="M1289 1302 L1392 1405 L1392 1423 L1289 1320 Z" /></g><g class="o"><path transform="translate(6,12)" class="S sfh" d="M1848 961 L1684 1125 L1694 1125 L1858 961 Z"/><path class="fh3" d="M1848 961 L1684 1125 L1694 1125 L1858 961 Z" /></g><g class="o"><path transform="translate(2,4)" class="S sfv" d="M1096 1866 L646 2316 L646 2342 L1096 1892 Z"/><path class="fv7" d="M1096 1866 L646 2316 L646 2342 L1096 1892 Z" /></g><g class="o"><path transform="translate(6,12)" class="S sfh" d="M1101 1796 L1011 1886 L1049 1886 L1139 1796 Z"/><path class="fh5" d="M1101 1796 L1011 1886 L1049 1886 L1139 1796 Z" /></g><g class="o"><path transform="translate(7,14)" class="S sfv" d="M1230 1675 L1330 1775 L1330 1801 L1230 1701 Z"/><path class="fv5" d="M1230 1675 L1330 1775 L1330 1801 L1230 1701 Z" /></g><g class="o"><path transform="translate(8,16)" class="S sfh" d="M1903 1215 L2053 1365 L2117 1365 L1967 1215 Z"/><path class="fh2" d="M1903 1215 L2053 1365 L2117 1365 L1967 1215 Z" /></g><g class="o"><path transform="translate(4,8)" class="S sfh" d="M1510 993 L1368 1135 L1386 1135 L1528 993 Z"/><path class="fh2" d="M1510 993 L1368 1135 L1386 1135 L1528 993 Z" /></g><g class="o"><path transform="translate(6,12)" class="S sfv" d="M1474 1403 L1412 1465 L1412 1491 L1474 1429 Z"/><path class="fv7" d="M1474 1403 L1412 1465 L1412 1491 L1474 1429 Z" /></g><g class="o"><path transform="translate(6,12)" class="S sfh" d="M1732 1754 L1862 1884 L1872 1884 L1742 1754 Z"/><path class="fh5" d="M1732 1754 L1862 1884 L1872 1884 L1742 1754 Z" /></g><g class="o"><path transform="translate(3,6)" class="S sfv" d="M1676 1274 L1799 1397 L1799 1413 L1676 1290 Z"/><path class="fv1" d="M1676 1274 L1799 1397 L1799 1413 L1676 1290 Z" /></g><g class="o"><path transform="translate(6,12)" class="S sfh" d="M1718 1575 L2264 2121 L2292 2121 L1746 1575 Z"/><path class="fh4" d="M1718 1575 L2264 2121 L2292 2121 L1746 1575 Z" /></g><g class="o"><path transform="translate(9,18)" class="S sfv" d="M1090 1299 L1618 1827 L1618 1849 L1090 1321 Z"/><path class="fv5" d="M1090 1299 L1618 1827 L1618 1849 L1090 1321 Z" /></g><g class="o"><path transform="translate(3,6)" class="S sf" d="M1959 1386 L2095 1522 L2095 1626 L1959 1490 Z"/><path class="f6" d="M1959 1386 L2095 1522 L2095 1626 L1959 1490 Z" /></g><g class="o"><path transform="translate(5,10)" class="S ss" d="M1156 1158 L1012 1302 L1012 1322 L1156 1178 Z"/><path class="s4" d="M1156 1158 L1012 1302 L1012 1322 L1156 1178 Z" /></g><g class="o"><path transform="translate(3,6)" class="S sfv" d="M1960 1016 L2189 1245 L2189 1271 L1960 1042 Z"/><path class="fv5" d="M1960 1016 L2189 1245 L2189 1271 L1960 1042 Z" /></g><g class="o"><path transform="translate(6,12)" class="S ssh" d="M1382 1919 L1546 2083 L1566 2083 L1402 1919 Z"/><path class="sh3" d="M1382 1919 L1546 2083 L1566 2083 L1402 1919 Z" /></g><g class="o"><path transform="translate(3,6)" class="S sfv" d="M1358 1562 L1432 1636 L1432 1668 L1358 1594 Z"/><path class="fv2" d="M1358 1562 L1432 1636 L1432 1668 L1358 1594 Z" /></g><g class="o"><path transform="translate(9,18)" class="S sfv" d="M1948 1548 L1872 1624 L1872 1636 L1948 1560 Z"/><path class="fv6" d="M1948 1548 L1872 1624 L1872 1636 L1948 1560 Z" /></g><g class="o"><path transform="translate(6,12)" class="S sfv" d="M1787 1409 L2031 1653 L2031 1667 L1787 1423 Z"/><path class="fv3" d="M1787 1409 L2031 1653 L2031 1667 L1787 1423 Z" /></g><g class="o"><path transform="translate(2,4)" class="S sfh" d="M1150 1880 L823 2207 L859 2207 L1186 1880 Z"/><path class="fh4" d="M1150 1880 L823 2207 L859 2207 L1186 1880 Z" /></g><g class="o"><path transform="translate(7,14)" class="S sfh" d="M1844 1667 L1757 1754 L1791 1754 L1878 1667 Z"/><path class="fh2" d="M1844 1667 L1757 1754 L1791 1754 L1878 1667 Z" /></g><g class="o"><path transform="translate(2,4)" class="S ss" d="M1634 1364 L1835 1565 L1835 1585 L1634 1384 Z"/><path class="s4" d="M1634 1364 L1835 1565 L1835 1585 L1634 1384 Z" /></g><g class="o"><path transform="translate(2,4)" class="S sfh" d="M1641 1771 L1501 1911 L1521 1911 L1661 1771 Z"/><path class="fh2" d="M1641 1771 L1501 1911 L1521 1911 L1661 1771 Z" /></g><g class="o"><path transform="translate(5,10)" class="S sf" d="M1278 1752 L1203 1827 L1203 1841 L1278 1766 Z"/><path class="f7" d="M1278 1752 L1203 1827 L1203 1841 L1278 1766 Z" /></g><g class="o"><path transform="translate(4,8)" class="S sfv" d="M1380 1304 L1270 1414 L1270 1434 L1380 1324 Z"/><path class="fv2" d="M1380 1304 L1270 1414 L1270 1434 L1380 1324 Z" /></g><g class="o"><path transform="translate(8,16)" class="S sfv" d="M1358 1311 L1296 1373 L1296 1391 L1358 1329 Z"/><path class="fv2" d="M1358 1311 L1296 1373 L1296 1391 L1358 1329 Z" /></g><g class="o"><path transform="translate(6,12)" class="S ssv" d="M955 1183 L1106 1334 L1106 1348 L955 1197 Z"/><path class="sv6" d="M955 1183 L1106 1334 L1106 1348 L955 1197 Z" /></g><g class="o"><path transform="translate(3,6)" class="S ssv" d="M1926 1621 L1861 1686 L1861 1696 L1926 1631 Z"/><path class="sv2" d="M1926 1621 L1861 1686 L1861 1696 L1926 1631 Z" /></g><g class="o"><path transform="translate(5,10)" class="S sfv" d="M991 1629 L768 1852 L768 1876 L991 1653 Z"/><path class="fv3" d="M991 1629 L768 1852 L768 1876 L991 1653 Z" /></g><g class="o"><path transform="translate(5,10)" class="S sfh" d="M1741 1829 L1945 2033 L1969 2033 L1765 1829 Z"/><path class="fh2" d="M1741 1829 L1945 2033 L1969 2033 L1765 1829 Z" /></g><g class="o"><path transform="translate(2,4)" class="S sf" d="M1489 1820 L1607 1938 L1735 1938 L1617 1820 Z"/><path class="f1" d="M1489 1820 L1607 1938 L1735 1938 L1617 1820 Z" /></g><g class="o"><path transform="translate(2,4)" class="S sfh" d="M1290 971 L1533 1214 L1637 1214 L1394 971 Z"/><path class="fh6" d="M1290 971 L1533 1214 L1637 1214 L1394 971 Z" /></g><g class="o"><path transform="translate(5,10)" class="S ssv" d="M1317 1226 L1104 1439 L1104 1469 L1317 1256 Z"/><path class="sv6" d="M1317 1226 L1104 1439 L1104 1469 L1317 1256 Z" /></g><g class="o"><path transform="translate(2,4)" class="S sfv" d="M1746 1359 L1846 1459 L1846 1473 L1746 1373 Z"/><path class="fv2" d="M1746 1359 L1846 1459 L1846 1473 L1746 1373 Z" /></g><g class="o"><path transform="translate(8,16)" class="S ssh" d="M1265 1670 L1105 1830 L1137 1830 L1297 1670 Z"/><path class="sh6" d="M1265 1670 L1105 1830 L1137 1830 L1297 1670 Z" /></g><g class="o"><path transform="translate(2,4)" class="S ss" d="M950 1117 L1334 1501 L1334 1509 L950 1125 Z"/><path class="s4" d="M950 1117 L1334 1501 L1334 1509 L950 1125 Z" /></g><g class="o"><path transform="translate(4,8)" class="S sfh" d="M1895 1305 L2414 1824 L2450 1824 L1931 1305 Z"/><path class="fh2" d="M1895 1305 L2414 1824 L2450 1824 L1931 1305 Z" /></g></g><use href="#slashes" transform-origin="1500 1500" transform="rotate(180) scale(2)"/></g><rect x="1080" y="1080" width="840" height="840" stroke-width="40" class="o s6" /><use href="#slashes" transform-origin="1500 1500" transform="scale(.9)"/><use href="#slashes" transform-origin="1500 1500" transform="rotate(180) scale(.9)"/></svg>