<svg xmlns="http://www.w3.org/2000/svg" viewBox="750 750 1500 1500"><style>/*<![CDATA[*/svg{background:rgb(232,63,111);max-width:100vw;max-height:100vh}path{stroke-width:4}.o{opacity:.75}.S{opacity:.4}.sf{stroke:none;fill:black}.sfh{stroke:none;fill:url(#hs)}.sfv{stroke:none;fill:url(#vs)}.ss{stroke:black;fill:none}.ssh{stroke:url(#hs);fill:none}.ssv{stroke:url(#vs);fill:none}.s1{fill:none;stroke:rgb(255,191,0)}.f1{stroke:none;fill:rgb(255,191,0)}.sh1{fill:none;stroke:url(#h1)}.fh1{stroke:none;fill:url(#h1)}.sv1{fill:none;stroke:url(#v1)}.fv1{stroke:none;fill:url(#v1)}.s2{fill:none;stroke:rgb(34,34,34)}.f2{stroke:none;fill:rgb(34,34,34)}.sh2{fill:none;stroke:url(#h2)}.fh2{stroke:none;fill:url(#h2)}.sv2{fill:none;stroke:url(#v2)}.fv2{stroke:none;fill:url(#v2)}.s3{fill:none;stroke:rgb(255,255,255)}.f3{stroke:none;fill:rgb(255,255,255)}.sh3{fill:none;stroke:url(#h3)}.fh3{stroke:none;fill:url(#h3)}.sv3{fill:none;stroke:url(#v3)}.fv3{stroke:none;fill:url(#v3)}.s4{fill:none;stroke:rgb(50,147,111)}.f4{stroke:none;fill:rgb(50,147,111)}.sh4{fill:none;stroke:url(#h4)}.fh4{stroke:none;fill:url(#h4)}.sv4{fill:none;stroke:url(#v4)}.fv4{stroke:none;fill:url(#v4)}.s5{fill:none;stroke:rgb(34,116,165)}.f5{stroke:none;fill:rgb(34,116,165)}.sh5{fill:none;stroke:url(#h5)}.fh5{stroke:none;fill:url(#h5)}.sv5{fill:none;stroke:url(#v5)}.fv5{stroke:none;fill:url(#v5)}.s6{fill:none;stroke:rgb(255,255,255)}.f6{stroke:none;fill:rgb(255,255,255)}.sh6{fill:none;stroke:url(#h6)}.fh6{stroke:none;fill:url(#h6)}.sv6{fill:none;stroke:url(#v6)}.fv6{stroke:none;fill:url(#v6)}.s7{fill:none;stroke:rgb(255,255,0)}.f7{stroke:none;fill:rgb(255,255,0)}.sh7{fill:none;stroke:url(#h7)}.fh7{stroke:none;fill:url(#h7)}.sv7{fill:none;stroke:url(#v7)}.fv7{stroke:none;fill:url(#v7)}/*]]>*/</style><defs><linearGradient gradientTransform="rotate(90)" id="hs"><stop offset="20%" stop-color="#000" /><stop offset="95%" stop-color="rgba(0, 0, 0, 0)" /></linearGradient><linearGradient id="vs"><stop offset="20%" stop-color="#000" /><stop offset="95%" stop-color="rgba(0, 0, 0, 0)" /></linearGradient><linearGradient gradientTransform="rotate(90)" id="h1"><stop offset="20%" stop-color="rgba(255,191,0,1)" /><stop offset="95%" stop-color="rgba(255,191,0,0)" /></linearGradient><linearGradient id="v1"><stop offset="20%" stop-color="rgba(255,191,0,1)" /><stop offset="95%" stop-color="rgba(255,191,0,0)" /></linearGradient><linearGradient gradientTransform="rotate(90)" id="h2"><stop offset="20%" stop-color="rgba(34,34,34,1)" /><stop offset="95%" stop-color="rgba(34,34,34,0)" /></linearGradient><linearGradient id="v2"><stop offset="20%" stop-color="rgba(34,34,34,1)" /><stop offset="95%" stop-color="rgba(34,34,34,0)" /></linearGradient><linearGradient gradientTransform="rotate(90)" id="h3"><stop offset="20%" stop-color="rgba(255,255,255,1)" /><stop offset="95%" stop-color="rgba(255,255,255,0)" /></linearGradient><linearGradient id="v3"><stop offset="20%" stop-color="rgba(255,255,255,1)" /><stop offset="95%" stop-color="rgba(255,255,255,0)" /></linearGradient><linearGradient gradientTransform="rotate(90)" id="h4"><stop offset="20%" stop-color="rgba(50,147,111,1)" /><stop offset="95%" stop-color="rgba(50,147,111,0)" /></linearGradient><linearGradient id="v4"><stop offset="20%" stop-color="rgba(50,147,111,1)" /><stop offset="95%" stop-color="rgba(50,147,111,0)" /></linearGradient><linearGradient gradientTransform="rotate(90)" id="h5"><stop offset="20%" stop-color="rgba(34,116,165,1)" /><stop offset="95%" stop-color="rgba(34,116,165,0)" /></linearGradient><linearGradient id="v5"><stop offset="20%" stop-color="rgba(34,116,165,1)" /><stop offset="95%" stop-color="rgba(34,116,165,0)" /></linearGradient><linearGradient gradientTransform="rotate(90)" id="h6"><stop offset="20%" stop-color="rgba(255,255,255,1)" /><stop offset="95%" stop-color="rgba(255,255,255,0)" /></linearGradient><linearGradient id="v6"><stop offset="20%" stop-color="rgba(255,255,255,1)" /><stop offset="95%" stop-color="rgba(255,255,255,0)" /></linearGradient><linearGradient gradientTransform="rotate(90)" id="h7"><stop offset="20%" stop-color="rgba(255,255,0,1)" /><stop offset="95%" stop-color="rgba(255,255,0,0)" /></linearGradient><linearGradient id="v7"><stop offset="20%" stop-color="rgba(255,255,0,1)" /><stop offset="95%" stop-color="rgba(255,255,0,0)" /></linearGradient></defs><g transform-origin="1500 1500" transform="scale(2)" opacity=".2"><g id="slashes"><g class="o"><path transform="translate(3,6)" class="S ssh" d="M1386 1354 L1482 1258 L1518 1258 L1422 1354 Z"/><path class="sh1" d="M1386 1354 L1482 1258 L1518 1258 L1422 1354 Z" /></g><g class="o"><path transform="translate(2,4)" class="S ss" d="M1681 1921 L1458 1698 L1478 1698 L1701 1921 Z"/><path class="s4" d="M1681 1921 L1458 1698 L1478 1698 L1701 1921 Z" /></g><g class="o"><path transform="translate(7,14)" class="S ssv" d="M1806 1550 L1965 1391 L1965 1403 L1806 1562 Z"/><path class="sv6" d="M1806 1550 L1965 1391 L1965 1403 L1806 1562 Z" /></g><g class="o"><path transform="translate(2,4)" class="S sfh" d="M1082 1567 L953 1438 L977 1438 L1106 1567 Z"/><path class="fh1" d="M1082 1567 L953 1438 L977 1438 L1106 1567 Z" /></g><g class="o"><path transform="translate(3,6)" class="S sfv" d="M1539 1830 L1443 1734 L1443 1766 L1539 1862 Z"/><path class="fv3" d="M1539 1830 L1443 1734 L1443 1766 L1539 1862 Z" /></g><g class="o"><path transform="translate(4,8)" class="S sf" d="M1533 1825 L1706 1652 L1720 1652 L1547 1825 Z"/><path class="f5" d="M1533 1825 L1706 1652 L1720 1652 L1547 1825 Z" /></g><g class="o"><path transform="translate(3,6)" class="S sfv" d="M1467 1891 L1262 1686 L1262 1706 L1467 1911 Z"/><path class="fv5" d="M1467 1891 L1262 1686 L1262 1706 L1467 1911 Z" /></g><g class="o"><path transform="translate(5,10)" class="S ss" d="M1297 1232 L1395 1134 L1395 1172 L1297 1270 Z"/><path class="s6" d="M1297 1232 L1395 1134 L1395 1172 L1297 1270 Z" /></g><g class="o"><path transform="translate(6,12)" class="S sfv" d="M1494 1667 L1636 1525 L1636 1543 L1494 1685 Z"/><path class="fv1" d="M1494 1667 L1636 1525 L1636 1543 L1494 1685 Z" /></g><g class="o"><path transform="translate(5,10)" class="S sfh" d="M1392 1632 L1515 1509 L1535 1509 L1412 1632 Z"/><path class="fh1" d="M1392 1632 L1515 1509 L1535 1509 L1412 1632 Z" /></g><g class="o"><path transform="translate(2,4)" class="S sfv" d="M1106 1680 L911 1485 L911 1517 L1106 1712 Z"/><path class="fv4" d="M1106 1680 L911 1485 L911 1517 L1106 1712 Z" /></g><g class="o"><path transform="translate(8,16)" class="S ssh" d="M1669 1345 L1824 1190 L1836 1190 L1681 1345 Z"/><path class="sh1" d="M1669 1345 L1824 1190 L1836 1190 L1681 1345 Z" /></g><g class="o"><path transform="translate(8,16)" class="S sfv" d="M1756 1907 L1691 1842 L1691 1866 L1756 1931 Z"/><path class="fv1" d="M1756 1907 L1691 1842 L1691 1866 L1756 1931 Z" /></g><g class="o"><path transform="translate(6,12)" class="S sfv" d="M1177 963 L1414 726 L1414 734 L1177 971 Z"/><path class="fv7" d="M1177 963 L1414 726 L1414 734 L1177 971 Z" /></g><g class="o"><path transform="translate(3,6)" class="S sfv" d="M2036 1554 L1795 1313 L1795 1325 L2036 1566 Z"/><path class="fv7" d="M2036 1554 L1795 1313 L1795 1325 L2036 1566 Z" /></g><g class="o"><path transform="translate(8,16)" class="S sf" d="M1022 1346 L1134 1234 L1134 1260 L1022 1372 Z"/><path class="f1" d="M1022 1346 L1134 1234 L1134 1260 L1022 1372 Z" /></g><g class="o"><path transform="translate(2,4)" class="S sfv" d="M1803 1339 L1750 1286 L1750 1318 L1803 1371 Z"/><path class="fv1" d="M1803 1339 L1750 1286 L1750 1318 L1803 1371 Z" /></g><g class="o"><path transform="translate(4,8)" class="S ss" d="M1781 1965 L1874 1872 L1874 1896 L1781 1989 Z"/><path class="s1" d="M1781 1965 L1874 1872 L1874 1896 L1781 1989 Z" /></g><g class="o"><path transform="translate(6,12)" class="S sfv" d="M1136 2012 L1232 1916 L1232 1938 L1136 2034 Z"/><path class="fv4" d="M1136 2012 L1232 1916 L1232 1938 L1136 2034 Z" /></g><g class="o"><path transform="translate(7,14)" class="S sfh" d="M1983 1424 L2088 1319 L2124 1319 L2019 1424 Z"/><path class="fh6" d="M1983 1424 L2088 1319 L2124 1319 L2019 1424 Z" /></g><g class="o"><path transform="translate(8,16)" class="S sfh" d="M1680 1751 L1810 1621 L1828 1621 L1698 1751 Z"/><path class="fh6" d="M1680 1751 L1810 1621 L1828 1621 L1698 1751 Z" /></g><g class="o"><path transform="translate(7,14)" class="S sf" d="M999 1100 L1096 1003 L1096 1025 L999 1122 Z"/><path class="f7" d="M999 1100 L1096 1003 L1096 1025 L999 1122 Z" /></g><g class="o"><path transform="translate(8,16)" class="S sf" d="M1087 2003 L850 1766 L850 1780 L1087 2017 Z"/><path class="f7" d="M1087 2003 L850 1766 L850 1780 L1087 2017 Z" /></g><g class="o"><path transform="translate(5,10)" class="S sfh" d="M1162 1213 L1359 1016 L1373 1016 L1176 1213 Z"/><path class="fh2" d="M1162 1213 L1359 1016 L1373 1016 L1176 1213 Z" /></g><g class="o"><path transform="translate(8,16)" class="S sfv" d="M1229 1856 L1003 1630 L1003 1646 L1229 1872 Z"/><path class="fv4" d="M1229 1856 L1003 1630 L1003 1646 L1229 1872 Z" /></g><g class="o"><path transform="translate(8,16)" class="S sfh" d="M1425 1464 L1647 1242 L1661 1242 L1439 1464 Z"/><path class="fh3" d="M1425 1464 L1647 1242 L1661 1242 L1439 1464 Z" /></g><g class="o"><path transform="translate(6,12)" class="S sfh" d="M1117 1126 L1306 937 L1338 937 L1149 1126 Z"/><path class="fh5" d="M1117 1126 L1306 937 L1338 937 L1149 1126 Z" /></g><g class="o"><path transform="translate(8,16)" class="S sfv" d="M1312 1635 L1541 1406 L1541 1444 L1312 1673 Z"/><path class="fv6" d="M1312 1635 L1541 1406 L1541 1444 L1312 1673 Z" /></g><g class="o"><path transform="translate(6,12)" class="S ssh" d="M1075 1069 L981 975 L1007 975 L1101 1069 Z"/><path class="sh2" d="M1075 1069 L981 975 L1007 975 L1101 1069 Z" /></g><g class="o"><path transform="translate(4,8)" class="S sfv" d="M1194 1557 L1418 1333 L1418 1371 L1194 1595 Z"/><path class="fv7" d="M1194 1557 L1418 1333 L1418 1371 L1194 1595 Z" /></g><g class="o"><path transform="translate(6,12)" class="S sfh" d="M1052 1671 L1243 1480 L1263 1480 L1072 1671 Z"/><path class="fh1" d="M1052 1671 L1243 1480 L1263 1480 L1072 1671 Z" /></g><g class="o"><path transform="translate(2,4)" class="S sfv" d="M1177 1505 L1357 1325 L1357 1335 L1177 1515 Z"/><path class="fv1" d="M1177 1505 L1357 1325 L1357 1335 L1177 1515 Z" /></g><g class="o"><path transform="translate(8,16)" class="S sfv" d="M1746 1986 L1564 1804 L1564 1834 L1746 2016 Z"/><path class="fv2" d="M1746 1986 L1564 1804 L1564 1834 L1746 2016 Z" /></g><g class="o"><path transform="translate(3,6)" class="S sfh" d="M1507 1038 L1388 919 L1412 919 L1531 1038 Z"/><path class="fh4" d="M1507 1038 L1388 919 L1412 919 L1531 1038 Z" /></g><g class="o"><path transform="translate(5,10)" class="S sfv" d="M1018 979 L1220 777 L1220 791 L1018 993 Z"/><path class="fv5" d="M1018 979 L1220 777 L1220 791 L1018 993 Z" /></g><g class="o"><path transform="translate(7,14)" class="S sfh" d="M1600 1264 L1696 1168 L1728 1168 L1632 1264 Z"/><path class="fh4" d="M1600 1264 L1696 1168 L1728 1168 L1632 1264 Z" /></g><g class="o"><path transform="translate(6,12)" class="S sfh" d="M1479 1433 L1683 1229 L1701 1229 L1497 1433 Z"/><path class="fh3" d="M1479 1433 L1683 1229 L1701 1229 L1497 1433 Z" /></g><g class="o"><path transform="translate(3,6)" class="S sf" d="M1827 1778 L1771 1722 L1771 1758 L1827 1814 Z"/><path class="f1" d="M1827 1778 L1771 1722 L1771 1758 L1827 1814 Z" /></g><g class="o"><path transform="translate(7,14)" class="S sfv" d="M1469 1383 L1607 1245 L1607 1261 L1469 1399 Z"/><path class="fv3" d="M1469 1383 L1607 1245 L1607 1261 L1469 1399 Z" /></g><g class="o"><path transform="translate(2,4)" class="S sfv" d="M1830 1418 L1945 1303 L1945 1317 L1830 1432 Z"/><path class="fv4" d="M1830 1418 L1945 1303 L1945 1317 L1830 1432 Z" /></g><g class="o"><path transform="translate(7,14)" class="S ssv" d="M1779 1401 L1936 1244 L1936 1266 L1779 1423 Z"/><path class="sv1" d="M1779 1401 L1936 1244 L1936 1266 L1779 1423 Z" /></g><g class="o"><path transform="translate(9,18)" class="S sfh" d="M1787 993 L1952 828 L1972 828 L1807 993 Z"/><path class="fh3" d="M1787 993 L1952 828 L1972 828 L1807 993 Z" /></g><g class="o"><path transform="translate(2,4)" class="S sf" d="M1310 1962 L1508 1764 L1508 1778 L1310 1976 Z"/><path class="f3" d="M1310 1962 L1508 1764 L1508 1778 L1310 1976 Z" /></g><g class="o"><path transform="translate(5,10)" class="S sfv" d="M1163 965 L1213 915 L1213 939 L1163 989 Z"/><path class="fv3" d="M1163 965 L1213 915 L1213 939 L1163 989 Z" /></g><g class="o"><path transform="translate(8,16)" class="S sfv" d="M996 1538 L1094 1440 L1094 1450 L996 1548 Z"/><path class="fv4" d="M996 1538 L1094 1440 L1094 1450 L996 1548 Z" /></g><g class="o"><path transform="translate(5,10)" class="S ss" d="M1143 1016 L1335 824 L1351 824 L1159 1016 Z"/><path class="s2" d="M1143 1016 L1335 824 L1351 824 L1159 1016 Z" /></g><g class="o"><path transform="translate(8,16)" class="S sfv" d="M1320 943 L1556 707 L1556 723 L1320 959 Z"/><path class="fv3" d="M1320 943 L1556 707 L1556 723 L1320 959 Z" /></g><g class="o"><path transform="translate(9,18)" class="S ssh" d="M1751 1460 L1995 1216 L2013 1216 L1769 1460 Z"/><path class="sh3" d="M1751 1460 L1995 1216 L2013 1216 L1769 1460 Z" /></g><g class="o"><path transform="translate(7,14)" class="S sfh" d="M1171 1568 L1365 1374 L1401 1374 L1207 1568 Z"/><path class="fh4" d="M1171 1568 L1365 1374 L1401 1374 L1207 1568 Z" /></g><g class="o"><path transform="translate(7,14)" class="S sfv" d="M1664 1782 L1844 1602 L1844 1630 L1664 1810 Z"/><path class="fv4" d="M1664 1782 L1844 1602 L1844 1630 L1664 1810 Z" /></g><g class="o"><path transform="translate(5,10)" class="S sfv" d="M1805 1878 L2007 1676 L2007 1706 L1805 1908 Z"/><path class="fv2" d="M1805 1878 L2007 1676 L2007 1706 L1805 1908 Z" /></g><g class="o"><path transform="translate(6,12)" class="S sf" d="M1406 1921 L1527 1800 L1545 1800 L1424 1921 Z"/><path class="f7" d="M1406 1921 L1527 1800 L1545 1800 L1424 1921 Z" /></g><g class="o"><path transform="translate(6,12)" class="S ssv" d="M1905 1922 L2066 1761 L2066 1773 L1905 1934 Z"/><path class="sv4" d="M1905 1922 L2066 1761 L2066 1773 L1905 1934 Z" /></g><g class="o"><path transform="translate(8,16)" class="S sfh" d="M1002 1305 L1112 1195 L1138 1195 L1028 1305 Z"/><path class="fh3" d="M1002 1305 L1112 1195 L1138 1195 L1028 1305 Z" /></g><g class="o"><path transform="translate(6,12)" class="S ssh" d="M2036 1280 L2237 1079 L2249 1079 L2048 1280 Z"/><path class="sh4" d="M2036 1280 L2237 1079 L2249 1079 L2048 1280 Z" /></g><g class="o"><path transform="translate(6,12)" class="S sfv" d="M1445 1093 L1541 997 L1541 1031 L1445 1127 Z"/><path class="fv2" d="M1445 1093 L1541 997 L1541 1031 L1445 1127 Z" /></g><g class="o"><path transform="translate(2,4)" class="S sfh" d="M1826 1542 L1941 1427 L1951 1427 L1836 1542 Z"/><path class="fh6" d="M1826 1542 L1941 1427 L1951 1427 L1836 1542 Z" /></g><g class="o"><path transform="translate(2,4)" class="S sf" d="M1984 1348 L2040 1292 L2072 1292 L2016 1348 Z"/><path class="f1" d="M1984 1348 L2040 1292 L2072 1292 L2016 1348 Z" /></g><g class="o"><path transform="translate(2,4)" class="S sfv" d="M1321 1502 L1527 1296 L1527 1308 L1321 1514 Z"/><path class="fv3" d="M1321 1502 L1527 1296 L1527 1308 L1321 1514 Z" /></g><g class="o"><path transform="translate(6,12)" class="S sfv" d="M1045 1800 L1154 1691 L1154 1729 L1045 1838 Z"/><path class="fv1" d="M1045 1800 L1154 1691 L1154 1729 L1045 1838 Z" /></g><g class="o"><path transform="translate(6,12)" class="S sf" d="M1675 1832 L1905 1602 L1905 1614 L1675 1844 Z"/><path class="f6" d="M1675 1832 L1905 1602 L1905 1614 L1675 1844 Z" /></g><g class="o"><path transform="translate(3,6)" class="S sfh" d="M1236 1343 L1436 1143 L1470 1143 L1270 1343 Z"/><path class="fh7" d="M1236 1343 L1436 1143 L1470 1143 L1270 1343 Z" /></g><g class="o"><path transform="translate(9,18)" class="S sfv" d="M1321 1499 L1531 1289 L1531 1311 L1321 1521 Z"/><path class="fv7" d="M1321 1499 L1531 1289 L1531 1311 L1321 1521 Z" /></g><g class="o"><path transform="translate(5,10)" class="S sfv" d="M2003 1204 L2066 1141 L2066 1173 L2003 1236 Z"/><path class="fv4" d="M2003 1204 L2066 1141 L2066 1173 L2003 1236 Z" /></g><g class="o"><path transform="translate(7,14)" class="S sfv" d="M1168 1652 L1408 1412 L1408 1420 L1168 1660 Z"/><path class="fv4" d="M1168 1652 L1408 1412 L1408 1420 L1168 1660 Z" /></g><g class="o"><path transform="translate(3,6)" class="S sf" d="M1989 1378 L2187 1180 L2215 1180 L2017 1378 Z"/><path class="f4" d="M1989 1378 L2187 1180 L2215 1180 L2017 1378 Z" /></g><g class="o"><path transform="translate(4,8)" class="S ssv" d="M1871 1942 L2069 1744 L2069 1776 L1871 1974 Z"/><path class="sv6" d="M1871 1942 L2069 1744 L2069 1776 L1871 1974 Z" /></g><g class="o"><path transform="translate(2,4)" class="S ssv" d="M968 1867 L886 1785 L886 1797 L968 1879 Z"/><path class="sv4" d="M968 1867 L886 1785 L886 1797 L968 1879 Z" /></g><g class="o"><path transform="translate(6,12)" class="S ssv" d="M1986 1302 L2136 1152 L2136 1178 L1986 1328 Z"/><path class="sv4" d="M1986 1302 L2136 1152 L2136 1178 L1986 1328 Z" /></g><g class="o"><path transform="translate(7,14)" class="S sfv" d="M1614 1174 L1746 1042 L1746 1068 L1614 1200 Z"/><path class="fv5" d="M1614 1174 L1746 1042 L1746 1068 L1614 1200 Z" /></g><g class="o"><path transform="translate(5,10)" class="S sfv" d="M1754 1720 L1635 1601 L1635 1637 L1754 1756 Z"/><path class="fv2" d="M1754 1720 L1635 1601 L1635 1637 L1754 1756 Z" /></g><g class="o"><path transform="translate(7,14)" class="S sfh" d="M1844 1927 L2052 1719 L2068 1719 L1860 1927 Z"/><path class="fh4" d="M1844 1927 L2052 1719 L2068 1719 L1860 1927 Z" /></g><g class="o"><path transform="translate(3,6)" class="S ssv" d="M1045 1554 L1147 1452 L1147 1468 L1045 1570 Z"/><path class="sv2" d="M1045 1554 L1147 1452 L1147 1468 L1045 1570 Z" /></g><g class="o"><path transform="translate(9,18)" class="S sfh" d="M1135 1607 L1270 1472 L1288 1472 L1153 1607 Z"/><path class="fh1" d="M1135 1607 L1270 1472 L1288 1472 L1153 1607 Z" /></g><g class="o"><path transform="translate(2,4)" class="S sfv" d="M1960 1002 L2205 757 L2205 767 L1960 1012 Z"/><path class="fv4" d="M1960 1002 L2205 757 L2205 767 L1960 1012 Z" /></g><g class="o"><path transform="translate(6,12)" class="S sfv" d="M1653 1587 L1901 1339 L1901 1371 L1653 1619 Z"/><path class="fv5" d="M1653 1587 L1901 1339 L1901 1371 L1653 1619 Z" /></g><g class="o"><path transform="translate(6,12)" class="S sfv" d="M1559 1721 L1482 1644 L1482 1674 L1559 1751 Z"/><path class="fv6" d="M1559 1721 L1482 1644 L1482 1674 L1559 1751 Z" /></g><g class="o"><path transform="translate(5,10)" class="S sfv" d="M1969 1802 L2064 1707 L2064 1739 L1969 1834 Z"/><path class="fv6" d="M1969 1802 L2064 1707 L2064 1739 L1969 1834 Z" /></g><g class="o"><path transform="translate(6,12)" class="S sfv" d="M1099 1274 L1158 1215 L1158 1249 L1099 1308 Z"/><path class="fv6" d="M1099 1274 L1158 1215 L1158 1249 L1099 1308 Z" /></g><g class="o"><path transform="translate(5,10)" class="S sfh" d="M1498 1240 L1274 1016 L1312 1016 L1536 1240 Z"/><path class="fh3" d="M1498 1240 L1274 1016 L1312 1016 L1536 1240 Z" /></g><g class="o"><path transform="translate(3,6)" class="S sfv" d="M1464 1882 L1601 1745 L1601 1753 L1464 1890 Z"/><path class="fv2" d="M1464 1882 L1601 1745 L1601 1753 L1464 1890 Z" /></g><g class="o"><path transform="translate(9,18)" class="S sfv" d="M1656 1773 L1755 1674 L1755 1698 L1656 1797 Z"/><path class="fv3" d="M1656 1773 L1755 1674 L1755 1698 L1656 1797 Z" /></g><g class="o"><path transform="translate(4,8)" class="S sfh" d="M1620 1484 L1824 1280 L1846 1280 L1642 1484 Z"/><path class="fh1" d="M1620 1484 L1824 1280 L1846 1280 L1642 1484 Z" /></g><g class="o"><path transform="translate(7,14)" class="S sf" d="M1924 1706 L1806 1588 L1834 1588 L1952 1706 Z"/><path class="f4" d="M1924 1706 L1806 1588 L1834 1588 L1952 1706 Z" /></g><g class="o"><path transform="translate(3,6)" class="S sfv" d="M1657 1223 L1738 1142 L1738 1172 L1657 1253 Z"/><path class="fv2" d="M1657 1223 L1738 1142 L1738 1172 L1657 1253 Z" /></g><g class="o"><path transform="translate(4,8)" class="S ss" d="M1539 1575 L1709 1405 L1737 1405 L1567 1575 Z"/><path class="s5" d="M1539 1575 L1709 1405 L1737 1405 L1567 1575 Z" /></g><g class="o"><path transform="translate(9,18)" class="S sfv" d="M2016 1926 L2247 1695 L2247 1705 L2016 1936 Z"/><path class="fv2" d="M2016 1926 L2247 1695 L2247 1705 L2016 1936 Z" /></g><g class="o"><path transform="translate(7,14)" class="S ssh" d="M1985 2029 L2135 1879 L2167 1879 L2017 2029 Z"/><path class="sh1" d="M1985 2029 L2135 1879 L2167 1879 L2017 2029 Z" /></g><g class="o"><path transform="translate(5,10)" class="S sf" d="M953 1213 L1063 1103 L1079 1103 L969 1213 Z"/><path class="f7" d="M953 1213 L1063 1103 L1079 1103 L969 1213 Z" /></g><g class="o"><path transform="translate(4,8)" class="S ssh" d="M1185 1673 L1094 1582 L1120 1582 L1211 1673 Z"/><path class="sh3" d="M1185 1673 L1094 1582 L1120 1582 L1211 1673 Z" /></g><g class="o"><path transform="translate(2,4)" class="S sfh" d="M1028 1750 L1096 1682 L1112 1682 L1044 1750 Z"/><path class="fh7" d="M1028 1750 L1096 1682 L1112 1682 L1044 1750 Z" /></g><g class="o"><path transform="translate(4,8)" class="S sfh" d="M1797 1200 L1983 1014 L1995 1014 L1809 1200 Z"/><path class="fh3" d="M1797 1200 L1983 1014 L1995 1014 L1809 1200 Z" /></g><g class="o"><path transform="translate(2,4)" class="S ssh" d="M1679 1935 L1776 1838 L1798 1838 L1701 1935 Z"/><path class="sh2" d="M1679 1935 L1776 1838 L1798 1838 L1701 1935 Z" /></g><g class="o"><path transform="translate(5,10)" class="S sf" d="M1226 1449 L1318 1357 L1336 1357 L1244 1449 Z"/><path class="f1" d="M1226 1449 L1318 1357 L1336 1357 L1244 1449 Z" /></g><g class="o"><path transform="translate(2,4)" class="S sfv" d="M1936 1832 L2163 1605 L2163 1623 L1936 1850 Z"/><path class="fv3" d="M1936 1832 L2163 1605 L2163 1623 L1936 1850 Z" /></g><g class="o"><path transform="translate(9,18)" class="S ssh" d="M993 1955 L1126 1822 L1144 1822 L1011 1955 Z"/><path class="sh1" d="M993 1955 L1126 1822 L1144 1822 L1011 1955 Z" /></g><g class="o"><path transform="translate(9,18)" class="S sfv" d="M1835 1081 L1669 915 L1669 937 L1835 1103 Z"/><path class="fv7" d="M1835 1081 L1669 915 L1669 937 L1835 1103 Z" /></g><g class="o"><path transform="translate(6,12)" class="S sfv" d="M1024 1562 L859 1397 L859 1435 L1024 1600 Z"/><path class="fv3" d="M1024 1562 L859 1397 L859 1435 L1024 1600 Z" /></g><g class="o"><path transform="translate(4,8)" class="S sfh" d="M951 1746 L1072 1625 L1094 1625 L973 1746 Z"/><path class="fh6" d="M951 1746 L1072 1625 L1094 1625 L973 1746 Z" /></g><g class="o"><path transform="translate(2,4)" class="S sfv" d="M1552 1443 L1617 1378 L1617 1400 L1552 1465 Z"/><path class="fv2" d="M1552 1443 L1617 1378 L1617 1400 L1552 1465 Z" /></g><g class="o"><path transform="translate(2,4)" class="S sfh" d="M1735 1297 L1814 1218 L1850 1218 L1771 1297 Z"/><path class="fh3" d="M1735 1297 L1814 1218 L1850 1218 L1771 1297 Z" /></g><g class="o"><path transform="translate(9,18)" class="S sf" d="M1059 1110 L1280 889 L1314 889 L1093 1110 Z"/><path class="f4" d="M1059 1110 L1280 889 L1314 889 L1093 1110 Z" /></g><g class="o"><path transform="translate(8,16)" class="S sfv" d="M1861 1074 L1928 1007 L1928 1025 L1861 1092 Z"/><path class="fv4" d="M1861 1074 L1928 1007 L1928 1025 L1861 1092 Z" /></g><g class="o"><path transform="translate(9,18)" class="S sfv" d="M1597 1516 L1712 1401 L1712 1415 L1597 1530 Z"/><path class="fv7" d="M1597 1516 L1712 1401 L1712 1415 L1597 1530 Z" /></g><g class="o"><path transform="translate(5,10)" class="S sfh" d="M1498 1143 L1627 1014 L1653 1014 L1524 1143 Z"/><path class="fh4" d="M1498 1143 L1627 1014 L1653 1014 L1524 1143 Z" /></g><g class="o"><path transform="translate(8,16)" class="S sfv" d="M1055 1516 L1220 1351 L1220 1389 L1055 1554 Z"/><path class="fv2" d="M1055 1516 L1220 1351 L1220 1389 L1055 1554 Z" /></g><g class="o"><path transform="translate(6,12)" class="S sfh" d="M1271 1036 L1516 791 L1530 791 L1285 1036 Z"/><path class="fh6" d="M1271 1036 L1516 791 L1530 791 L1285 1036 Z" /></g><g class="o"><path transform="translate(4,8)" class="S sf" d="M1656 1876 L1734 1798 L1734 1808 L1656 1886 Z"/><path class="f2" d="M1656 1876 L1734 1798 L1734 1808 L1656 1886 Z" /></g><g class="o"><path transform="translate(4,8)" class="S sfh" d="M1721 981 L1886 816 L1898 816 L1733 981 Z"/><path class="fh5" d="M1721 981 L1886 816 L1898 816 L1733 981 Z" /></g><g class="o"><path transform="translate(3,6)" class="S sfv" d="M1423 1987 L1296 1860 L1296 1876 L1423 2003 Z"/><path class="fv6" d="M1423 1987 L1296 1860 L1296 1876 L1423 2003 Z" /></g><g class="o"><path transform="translate(7,14)" class="S ssv" d="M1406 2032 L1323 1949 L1323 1965 L1406 2048 Z"/><path class="sv1" d="M1406 2032 L1323 1949 L1323 1965 L1406 2048 Z" /></g><g class="o"><path transform="translate(6,12)" class="S sfh" d="M1256 1096 L1348 1004 L1382 1004 L1290 1096 Z"/><path class="fh3" d="M1256 1096 L1348 1004 L1382 1004 L1290 1096 Z" /></g><g class="o"><path transform="translate(2,4)" class="S sfh" d="M1708 1808 L1868 1648 L1880 1648 L1720 1808 Z"/><path class="fh6" d="M1708 1808 L1868 1648 L1880 1648 L1720 1808 Z" /></g><g class="o"><path transform="translate(2,4)" class="S sfv" d="M992 984 L1205 771 L1205 797 L992 1010 Z"/><path class="fv2" d="M992 984 L1205 771 L1205 797 L992 1010 Z" /></g><g class="o"><path transform="translate(4,8)" class="S sfv" d="M1198 1591 L1284 1505 L1284 1521 L1198 1607 Z"/><path class="fv6" d="M1198 1591 L1284 1505 L1284 1521 L1198 1607 Z" /></g><g class="o"><path transform="translate(8,16)" class="S sfv" d="M994 1863 L1105 1752 L1105 1762 L994 1873 Z"/><path class="fv1" d="M994 1863 L1105 1752 L1105 1762 L994 1873 Z" /></g><g class="o"><path transform="translate(5,10)" class="S sfh" d="M1568 973 L1422 827 L1438 827 L1584 973 Z"/><path class="fh4" d="M1568 973 L1422 827 L1438 827 L1584 973 Z" /></g><g class="o"><path transform="translate(3,6)" class="S sf" d="M1451 1302 L1513 1240 L1533 1240 L1471 1302 Z"/><path class="f5" d="M1451 1302 L1513 1240 L1533 1240 L1471 1302 Z" /></g><g class="o"><path transform="translate(9,18)" class="S sfh" d="M1384 1195 L1613 966 L1627 966 L1398 1195 Z"/><path class="fh6" d="M1384 1195 L1613 966 L1627 966 L1398 1195 Z" /></g><g class="o"><path transform="translate(8,16)" class="S sfv" d="M1044 1408 L838 1202 L838 1218 L1044 1424 Z"/><path class="fv5" d="M1044 1408 L838 1202 L838 1218 L1044 1424 Z" /></g><g class="o"><path transform="translate(9,18)" class="S sfv" d="M1299 1189 L1510 978 L1510 1000 L1299 1211 Z"/><path class="fv5" d="M1299 1189 L1510 978 L1510 1000 L1299 1211 Z" /></g><g class="o"><path transform="translate(6,12)" class="S ssv" d="M1315 1020 L1138 843 L1138 871 L1315 1048 Z"/><path class="sv1" d="M1315 1020 L1138 843 L1138 871 L1315 1048 Z" /></g><g class="o"><path transform="translate(6,12)" class="S sfh" d="M1952 1429 L2015 1366 L2027 1366 L1964 1429 Z"/><path class="fh6" d="M1952 1429 L2015 1366 L2027 1366 L1964 1429 Z" /></g><g class="o"><path transform="translate(6,12)" class="S sfv" d="M1773 972 L1944 801 L1944 821 L1773 992 Z"/><path class="fv3" d="M1773 972 L1944 801 L1944 821 L1773 992 Z" /></g><g class="o"><path transform="translate(2,4)" class="S sfh" d="M1836 1180 L1903 1113 L1919 1113 L1852 1180 Z"/><path class="fh4" d="M1836 1180 L1903 1113 L1919 1113 L1852 1180 Z" /></g><g class="o"><path transform="translate(2,4)" class="S sfv" d="M1661 1381 L1446 1166 L1446 1194 L1661 1409 Z"/><path class="fv1" d="M1661 1381 L1446 1166 L1446 1194 L1661 1409 Z" /></g><g class="o"><path transform="translate(7,14)" class="S sfh" d="M1589 1028 L1744 873 L1764 873 L1609 1028 Z"/><path class="fh2" d="M1589 1028 L1744 873 L1764 873 L1609 1028 Z" /></g><g class="o"><path transform="translate(5,10)" class="S sf" d="M1425 1901 L1477 1849 L1477 1867 L1425 1919 Z"/><path class="f6" d="M1425 1901 L1477 1849 L1477 1867 L1425 1919 Z" /></g><g class="o"><path transform="translate(8,16)" class="S ssv" d="M2002 1310 L2251 1061 L2251 1081 L2002 1330 Z"/><path class="sv2" d="M2002 1310 L2251 1061 L2251 1081 L2002 1330 Z" /></g><g class="o"><path transform="translate(2,4)" class="S sfv" d="M1254 1530 L1086 1362 L1086 1370 L1254 1538 Z"/><path class="fv4" d="M1254 1530 L1086 1362 L1086 1370 L1254 1538 Z" /></g><g class="o"><path transform="translate(4,8)" class="S ssh" d="M1252 1225 L1476 1001 L1492 1001 L1268 1225 Z"/><path class="sh7" d="M1252 1225 L1476 1001 L1492 1001 L1268 1225 Z" /></g><g class="o"><path transform="translate(7,14)" class="S sfh" d="M1892 1310 L1971 1231 L1989 1231 L1910 1310 Z"/><path class="fh6" d="M1892 1310 L1971 1231 L1989 1231 L1910 1310 Z" /></g><g class="o"><path transform="translate(3,6)" class="S ss" d="M1394 1864 L1200 1670 L1200 1696 L1394 1890 Z"/><path class="s1" d="M1394 1864 L1200 1670 L1200 1696 L1394 1890 Z" /></g><g class="o"><path transform="translate(2,4)" class="S sfv" d="M1289 1466 L1387 1368 L1387 1394 L1289 1492 Z"/><path class="fv2" d="M1289 1466 L1387 1368 L1387 1394 L1289 1492 Z" /></g><g class="o"><path transform="translate(9,18)" class="S ssh" d="M1509 1048 L1735 822 L1759 822 L1533 1048 Z"/><path class="sh3" d="M1509 1048 L1735 822 L1759 822 L1533 1048 Z" /></g><g class="o"><path transform="translate(2,4)" class="S sfh" d="M1560 1076 L1661 975 L1673 975 L1572 1076 Z"/><path class="fh1" d="M1560 1076 L1661 975 L1673 975 L1572 1076 Z" /></g><g class="o"><path transform="translate(8,16)" class="S ssh" d="M2002 998 L2199 801 L2207 801 L2010 998 Z"/><path class="sh7" d="M2002 998 L2199 801 L2207 801 L2010 998 Z" /></g><g class="o"><path transform="translate(5,10)" class="S sfh" d="M939 2029 L1056 1912 L1092 1912 L975 2029 Z"/><path class="fh3" d="M939 2029 L1056 1912 L1092 1912 L975 2029 Z" /></g><g class="o"><path transform="translate(4,8)" class="S sfv" d="M1347 964 L1106 723 L1106 759 L1347 1000 Z"/><path class="fv2" d="M1347 964 L1106 723 L1106 759 L1347 1000 Z" /></g><g class="o"><path transform="translate(2,4)" class="S sfh" d="M1760 1871 L1959 1672 L1975 1672 L1776 1871 Z"/><path class="fh2" d="M1760 1871 L1959 1672 L1975 1672 L1776 1871 Z" /></g><g class="o"><path transform="translate(7,14)" class="S ssh" d="M1829 987 L1669 827 L1705 827 L1865 987 Z"/><path class="sh3" d="M1829 987 L1669 827 L1705 827 L1865 987 Z" /></g><g class="o"><path transform="translate(7,14)" class="S sfh" d="M1641 1399 L1824 1216 L1848 1216 L1665 1399 Z"/><path class="fh1" d="M1641 1399 L1824 1216 L1848 1216 L1665 1399 Z" /></g><g class="o"><path transform="translate(8,16)" class="S sf" d="M1012 1121 L1198 935 L1198 967 L1012 1153 Z"/><path class="f5" d="M1012 1121 L1198 935 L1198 967 L1012 1153 Z" /></g><g class="o"><path transform="translate(3,6)" class="S sfv" d="M1760 1984 L1960 1784 L1960 1802 L1760 2002 Z"/><path class="fv5" d="M1760 1984 L1960 1784 L1960 1802 L1760 2002 Z" /></g><g class="o"><path transform="translate(7,14)" class="S sf" d="M1869 1170 L1798 1099 L1798 1125 L1869 1196 Z"/><path class="f5" d="M1869 1170 L1798 1099 L1798 1125 L1869 1196 Z" /></g><g class="o"><path transform="translate(9,18)" class="S sfv" d="M1420 1304 L1580 1144 L1580 1182 L1420 1342 Z"/><path class="fv6" d="M1420 1304 L1580 1144 L1580 1182 L1420 1342 Z" /></g><g class="o"><path transform="translate(5,10)" class="S sfv" d="M1128 1680 L1278 1530 L1278 1560 L1128 1710 Z"/><path class="fv1" d="M1128 1680 L1278 1530 L1278 1560 L1128 1710 Z" /></g><g class="o"><path transform="translate(4,8)" class="S sfv" d="M1793 1782 L2027 1548 L2027 1558 L1793 1792 Z"/><path class="fv1" d="M1793 1782 L2027 1548 L2027 1558 L1793 1792 Z" /></g><g class="o"><path transform="translate(2,4)" class="S sfh" d="M1858 1428 L2101 1185 L2125 1185 L1882 1428 Z"/><path class="fh1" d="M1858 1428 L2101 1185 L2125 1185 L1882 1428 Z" /></g><g class="o"><path transform="translate(3,6)" class="S sfv" d="M1915 1706 L2111 1510 L2111 1530 L1915 1726 Z"/><path class="fv4" d="M1915 1706 L2111 1510 L2111 1530 L1915 1726 Z" /></g></g><use href="#slashes" transform-origin="1500 1500" transform="rotate(180) scale(2)"/></g><rect x="1080" y="1080" width="840" height="840" stroke-width="160" class="o s5" /><use href="#slashes" transform-origin="1500 1500" transform="scale(.7)"/><use href="#slashes" transform-origin="1500 1500" transform="rotate(180) scale(1.3)"/></svg>