<svg xmlns="http://www.w3.org/2000/svg" viewBox="750 750 1500 1500"><style>/*<![CDATA[*/svg{background:rgb(1,59,68);max-width:100vw;max-height:100vh}path{stroke-width:4}.o{opacity:.75}.S{opacity:.4}.sf{stroke:none;fill:black}.sfh{stroke:none;fill:url(#hs)}.sfv{stroke:none;fill:url(#vs)}.ss{stroke:black;fill:none}.ssh{stroke:url(#hs);fill:none}.ssv{stroke:url(#vs);fill:none}.s1{fill:none;stroke:rgb(34,34,34)}.f1{stroke:none;fill:rgb(34,34,34)}.sh1{fill:none;stroke:url(#h1)}.fh1{stroke:none;fill:url(#h1)}.sv1{fill:none;stroke:url(#v1)}.fv1{stroke:none;fill:url(#v1)}.s2{fill:none;stroke:rgb(23,108,106)}.f2{stroke:none;fill:rgb(23,108,106)}.sh2{fill:none;stroke:url(#h2)}.fh2{stroke:none;fill:url(#h2)}.sv2{fill:none;stroke:url(#v2)}.fv2{stroke:none;fill:url(#v2)}.s3{fill:none;stroke:rgb(33,34,32)}.f3{stroke:none;fill:rgb(33,34,32)}.sh3{fill:none;stroke:url(#h3)}.fh3{stroke:none;fill:url(#h3)}.sv3{fill:none;stroke:url(#v3)}.fv3{stroke:none;fill:url(#v3)}.s4{fill:none;stroke:rgb(223,229,229)}.f4{stroke:none;fill:rgb(223,229,229)}.sh4{fill:none;stroke:url(#h4)}.fh4{stroke:none;fill:url(#h4)}.sv4{fill:none;stroke:url(#v4)}.fv4{stroke:none;fill:url(#v4)}.s5{fill:none;stroke:rgb(151,21,31)}.f5{stroke:none;fill:rgb(151,21,31)}.sh5{fill:none;stroke:url(#h5)}.fh5{stroke:none;fill:url(#h5)}.sv5{fill:none;stroke:url(#v5)}.fv5{stroke:none;fill:url(#v5)}.s6{fill:none;stroke:rgb(255,255,255)}.f6{stroke:none;fill:rgb(255,255,255)}.sh6{fill:none;stroke:url(#h6)}.fh6{stroke:none;fill:url(#h6)}.sv6{fill:none;stroke:url(#v6)}.fv6{stroke:none;fill:url(#v6)}.s7{fill:none;stroke:rgb(255,0,0)}.f7{stroke:none;fill:rgb(255,0,0)}.sh7{fill:none;stroke:url(#h7)}.fh7{stroke:none;fill:url(#h7)}.sv7{fill:none;stroke:url(#v7)}.fv7{stroke:none;fill:url(#v7)}/*]]>*/</style><defs><linearGradient gradientTransform="rotate(90)" id="hs"><stop offset="20%" stop-color="#000" /><stop offset="95%" stop-color="rgba(0, 0, 0, 0)" /></linearGradient><linearGradient id="vs"><stop offset="20%" stop-color="#000" /><stop offset="95%" stop-color="rgba(0, 0, 0, 0)" /></linearGradient><linearGradient gradientTransform="rotate(90)" id="h1"><stop offset="20%" stop-color="rgba(34,34,34,1)" /><stop offset="95%" stop-color="rgba(34,34,34,0)" /></linearGradient><linearGradient id="v1"><stop offset="20%" stop-color="rgba(34,34,34,1)" /><stop offset="95%" stop-color="rgba(34,34,34,0)" /></linearGradient><linearGradient gradientTransform="rotate(90)" id="h2"><stop offset="20%" stop-color="rgba(23,108,106,1)" /><stop offset="95%" stop-color="rgba(23,108,106,0)" /></linearGradient><linearGradient id="v2"><stop offset="20%" stop-color="rgba(23,108,106,1)" /><stop offset="95%" stop-color="rgba(23,108,106,0)" /></linearGradient><linearGradient gradientTransform="rotate(90)" id="h3"><stop offset="20%" stop-color="rgba(33,34,32,1)" /><stop offset="95%" stop-color="rgba(33,34,32,0)" /></linearGradient><linearGradient id="v3"><stop offset="20%" stop-color="rgba(33,34,32,1)" /><stop offset="95%" stop-color="rgba(33,34,32,0)" /></linearGradient><linearGradient gradientTransform="rotate(90)" id="h4"><stop offset="20%" stop-color="rgba(223,229,229,1)" /><stop offset="95%" stop-color="rgba(223,229,229,0)" /></linearGradient><linearGradient id="v4"><stop offset="20%" stop-color="rgba(223,229,229,1)" /><stop offset="95%" stop-color="rgba(223,229,229,0)" /></linearGradient><linearGradient gradientTransform="rotate(90)" id="h5"><stop offset="20%" stop-color="rgba(151,21,31,1)" /><stop offset="95%" stop-color="rgba(151,21,31,0)" /></linearGradient><linearGradient id="v5"><stop offset="20%" stop-color="rgba(151,21,31,1)" /><stop offset="95%" stop-color="rgba(151,21,31,0)" /></linearGradient><linearGradient gradientTransform="rotate(90)" id="h6"><stop offset="20%" stop-color="rgba(255,255,255,1)" /><stop offset="95%" stop-color="rgba(255,255,255,0)" /></linearGradient><linearGradient id="v6"><stop offset="20%" stop-color="rgba(255,255,255,1)" /><stop offset="95%" stop-color="rgba(255,255,255,0)" /></linearGradient><linearGradient gradientTransform="rotate(90)" id="h7"><stop offset="20%" stop-color="rgba(255,0,0,1)" /><stop offset="95%" stop-color="rgba(255,0,0,0)" /></linearGradient><linearGradient id="v7"><stop offset="20%" stop-color="rgba(255,0,0,1)" /><stop offset="95%" stop-color="rgba(255,0,0,0)" /></linearGradient></defs><g transform-origin="1500 1500" transform="scale(2)" opacity=".2"><g id="slashes"><g class="o"><path transform="translate(8,16)" class="S sfv" d="M1061 1098 L1385 774 L1385 894 L1061 1218 Z"/><path class="fv3" d="M1061 1098 L1385 774 L1385 894 L1061 1218 Z" /></g><g class="o"><path transform="translate(4,8)" class="S sfh" d="M1396 1756 L973 1333 L989 1333 L1412 1756 Z"/><path class="fh5" d="M1396 1756 L973 1333 L989 1333 L1412 1756 Z" /></g><g class="o"><path transform="translate(2,4)" class="S sfv" d="M1445 1229 L1287 1071 L1287 1093 L1445 1251 Z"/><path class="fv6" d="M1445 1229 L1287 1071 L1287 1093 L1445 1251 Z" /></g><g class="o"><path transform="translate(3,6)" class="S sfv" d="M1840 1660 L2203 1297 L2203 1317 L1840 1680 Z"/><path class="fv1" d="M1840 1660 L2203 1297 L2203 1317 L1840 1680 Z" /></g><g class="o"><path transform="translate(8,16)" class="S sfh" d="M1247 1484 L999 1236 L1031 1236 L1279 1484 Z"/><path class="fh1" d="M1247 1484 L999 1236 L1031 1236 L1279 1484 Z" /></g><g class="o"><path transform="translate(5,10)" class="S ssh" d="M1804 1005 L1674 875 L1706 875 L1836 1005 Z"/><path class="sh5" d="M1804 1005 L1674 875 L1706 875 L1836 1005 Z" /></g><g class="o"><path transform="translate(7,14)" class="S sf" d="M1399 1004 L1301 906 L1301 940 L1399 1038 Z"/><path class="f2" d="M1399 1004 L1301 906 L1301 940 L1399 1038 Z" /></g><g class="o"><path transform="translate(8,16)" class="S sfv" d="M1240 1549 L1329 1460 L1329 1516 L1240 1605 Z"/><path class="fv6" d="M1240 1549 L1329 1460 L1329 1516 L1240 1605 Z" /></g><g class="o"><path transform="translate(7,14)" class="S sfv" d="M1573 1070 L1195 692 L1195 724 L1573 1102 Z"/><path class="fv6" d="M1573 1070 L1195 692 L1195 724 L1573 1102 Z" /></g><g class="o"><path transform="translate(4,8)" class="S sf" d="M1402 1175 L1471 1106 L1471 1202 L1402 1271 Z"/><path class="f4" d="M1402 1175 L1471 1106 L1471 1202 L1402 1271 Z" /></g><g class="o"><path transform="translate(5,10)" class="S sf" d="M974 1859 L566 1451 L598 1451 L1006 1859 Z"/><path class="f6" d="M974 1859 L566 1451 L598 1451 L1006 1859 Z" /></g><g class="o"><path transform="translate(6,12)" class="S ssh" d="M1380 1783 L1169 1572 L1257 1572 L1468 1783 Z"/><path class="sh4" d="M1380 1783 L1169 1572 L1257 1572 L1468 1783 Z" /></g><g class="o"><path transform="translate(9,18)" class="S sfh" d="M1686 1442 L1749 1379 L1785 1379 L1722 1442 Z"/><path class="fh6" d="M1686 1442 L1749 1379 L1785 1379 L1722 1442 Z" /></g><g class="o"><path transform="translate(7,14)" class="S sfv" d="M1567 1431 L2197 801 L2197 837 L1567 1467 Z"/><path class="fv3" d="M1567 1431 L2197 801 L2197 837 L1567 1467 Z" /></g><g class="o"><path transform="translate(2,4)" class="S sf" d="M1192 1854 L1837 1209 L1837 1227 L1192 1872 Z"/><path class="f7" d="M1192 1854 L1837 1209 L1837 1227 L1192 1872 Z" /></g><g class="o"><path transform="translate(4,8)" class="S sfh" d="M1305 1549 L1128 1372 L1146 1372 L1323 1549 Z"/><path class="fh4" d="M1305 1549 L1128 1372 L1146 1372 L1323 1549 Z" /></g><g class="o"><path transform="translate(5,10)" class="S ssh" d="M1705 956 L1450 701 L1474 701 L1729 956 Z"/><path class="sh1" d="M1705 956 L1450 701 L1474 701 L1729 956 Z" /></g><g class="o"><path transform="translate(4,8)" class="S sfv" d="M1226 964 L986 724 L986 732 L1226 972 Z"/><path class="fv4" d="M1226 964 L986 724 L986 732 L1226 972 Z" /></g><g class="o"><path transform="translate(9,18)" class="S sfh" d="M1774 1763 L1597 1586 L1677 1586 L1854 1763 Z"/><path class="fh6" d="M1774 1763 L1597 1586 L1677 1586 L1854 1763 Z" /></g><g class="o"><path transform="translate(4,8)" class="S sf" d="M1926 1825 L2104 1647 L2104 1669 L1926 1847 Z"/><path class="f3" d="M1926 1825 L2104 1647 L2104 1669 L1926 1847 Z" /></g><g class="o"><path transform="translate(6,12)" class="S sfh" d="M1342 1085 L1393 1034 L1449 1034 L1398 1085 Z"/><path class="fh4" d="M1342 1085 L1393 1034 L1449 1034 L1398 1085 Z" /></g><g class="o"><path transform="translate(7,14)" class="S ssv" d="M1351 1839 L607 1095 L607 1127 L1351 1871 Z"/><path class="sv4" d="M1351 1839 L607 1095 L607 1127 L1351 1871 Z" /></g><g class="o"><path transform="translate(2,4)" class="S sfh" d="M1535 1814 L1355 1634 L1459 1634 L1639 1814 Z"/><path class="fh3" d="M1535 1814 L1355 1634 L1459 1634 L1639 1814 Z" /></g><g class="o"><path transform="translate(3,6)" class="S sfv" d="M1248 1532 L1119 1403 L1119 1441 L1248 1570 Z"/><path class="fv5" d="M1248 1532 L1119 1403 L1119 1441 L1248 1570 Z" /></g><g class="o"><path transform="translate(4,8)" class="S sfh" d="M1339 1057 L814 532 L828 532 L1353 1057 Z"/><path class="fh1" d="M1339 1057 L814 532 L828 532 L1353 1057 Z" /></g><g class="o"><path transform="translate(2,4)" class="S sfv" d="M1350 1418 L1692 1076 L1692 1106 L1350 1448 Z"/><path class="fv7" d="M1350 1418 L1692 1076 L1692 1106 L1350 1448 Z" /></g><g class="o"><path transform="translate(7,14)" class="S sfv" d="M1564 889 L2092 361 L2092 513 L1564 1041 Z"/><path class="fv5" d="M1564 889 L2092 361 L2092 513 L1564 1041 Z" /></g><g class="o"><path transform="translate(4,8)" class="S sf" d="M1008 1012 L489 493 L489 541 L1008 1060 Z"/><path class="f1" d="M1008 1012 L489 493 L489 541 L1008 1060 Z" /></g><g class="o"><path transform="translate(3,6)" class="S sfh" d="M1439 1267 L884 712 L980 712 L1535 1267 Z"/><path class="fh5" d="M1439 1267 L884 712 L980 712 L1535 1267 Z" /></g><g class="o"><path transform="translate(3,6)" class="S sfh" d="M1033 1185 L1199 1019 L1239 1019 L1073 1185 Z"/><path class="fh1" d="M1033 1185 L1199 1019 L1239 1019 L1073 1185 Z" /></g><g class="o"><path transform="translate(8,16)" class="S sfh" d="M1839 1142 L2217 764 L2321 764 L1943 1142 Z"/><path class="fh5" d="M1839 1142 L2217 764 L2321 764 L1943 1142 Z" /></g><g class="o"><path transform="translate(2,4)" class="S sf" d="M1855 1884 L2035 1704 L2155 1704 L1975 1884 Z"/><path class="f3" d="M1855 1884 L2035 1704 L2155 1704 L1975 1884 Z" /></g><g class="o"><path transform="translate(7,14)" class="S ssh" d="M1053 1744 L1266 1531 L1302 1531 L1089 1744 Z"/><path class="sh3" d="M1053 1744 L1266 1531 L1302 1531 L1089 1744 Z" /></g><g class="o"><path transform="translate(9,18)" class="S sf" d="M1708 1893 L1306 1491 L1334 1491 L1736 1893 Z"/><path class="f5" d="M1708 1893 L1306 1491 L1334 1491 L1736 1893 Z" /></g><g class="o"><path transform="translate(3,6)" class="S sfh" d="M1334 1986 L1266 1918 L1292 1918 L1360 1986 Z"/><path class="fh5" d="M1334 1986 L1266 1918 L1292 1918 L1360 1986 Z" /></g><g class="o"><path transform="translate(7,14)" class="S ssv" d="M1043 1608 L1235 1416 L1235 1440 L1043 1632 Z"/><path class="sv3" d="M1043 1608 L1235 1416 L1235 1440 L1043 1632 Z" /></g><g class="o"><path transform="translate(8,16)" class="S sfv" d="M1746 1097 L2277 566 L2277 622 L1746 1153 Z"/><path class="fv3" d="M1746 1097 L2277 566 L2277 622 L1746 1153 Z" /></g><g class="o"><path transform="translate(5,10)" class="S sfh" d="M1175 1870 L961 1656 L1089 1656 L1303 1870 Z"/><path class="fh2" d="M1175 1870 L961 1656 L1089 1656 L1303 1870 Z" /></g><g class="o"><path transform="translate(9,18)" class="S ss" d="M1700 1750 L1563 1613 L1563 1733 L1700 1870 Z"/><path class="s4" d="M1700 1750 L1563 1613 L1563 1733 L1700 1870 Z" /></g><g class="o"><path transform="translate(3,6)" class="S sf" d="M1539 1164 L1294 919 L1294 1007 L1539 1252 Z"/><path class="f5" d="M1539 1164 L1294 919 L1294 1007 L1539 1252 Z" /></g><g class="o"><path transform="translate(7,14)" class="S sfv" d="M1996 1508 L1785 1297 L1785 1417 L1996 1628 Z"/><path class="fv5" d="M1996 1508 L1785 1297 L1785 1417 L1996 1628 Z" /></g><g class="o"><path transform="translate(7,14)" class="S sfv" d="M1237 1840 L955 1558 L955 1590 L1237 1872 Z"/><path class="fv7" d="M1237 1840 L955 1558 L955 1590 L1237 1872 Z" /></g><g class="o"><path transform="translate(9,18)" class="S sfh" d="M1097 1093 L518 514 L540 514 L1119 1093 Z"/><path class="fh2" d="M1097 1093 L518 514 L540 514 L1119 1093 Z" /></g><g class="o"><path transform="translate(2,4)" class="S sfh" d="M1217 1912 L1315 1814 L1325 1814 L1227 1912 Z"/><path class="fh3" d="M1217 1912 L1315 1814 L1325 1814 L1227 1912 Z" /></g><g class="o"><path transform="translate(2,4)" class="S sfh" d="M1890 1760 L1792 1662 L1820 1662 L1918 1760 Z"/><path class="fh2" d="M1890 1760 L1792 1662 L1820 1662 L1918 1760 Z" /></g><g class="o"><path transform="translate(6,12)" class="S sfh" d="M1456 1340 L1837 959 L1885 959 L1504 1340 Z"/><path class="fh4" d="M1456 1340 L1837 959 L1885 959 L1504 1340 Z" /></g><g class="o"><path transform="translate(4,8)" class="S sf" d="M1273 1742 L1169 1638 L1179 1638 L1283 1742 Z"/><path class="f7" d="M1273 1742 L1169 1638 L1179 1638 L1283 1742 Z" /></g><g class="o"><path transform="translate(3,6)" class="S sfv" d="M1044 1662 L312 930 L312 962 L1044 1694 Z"/><path class="fv2" d="M1044 1662 L312 930 L312 962 L1044 1694 Z" /></g><g class="o"><path transform="translate(8,16)" class="S sf" d="M1021 1762 L1261 1522 L1261 1534 L1021 1774 Z"/><path class="f6" d="M1021 1762 L1261 1522 L1261 1534 L1021 1774 Z" /></g><g class="o"><path transform="translate(9,18)" class="S sfv" d="M1314 1285 L1367 1232 L1367 1352 L1314 1405 Z"/><path class="fv3" d="M1314 1285 L1367 1232 L1367 1352 L1314 1405 Z" /></g><g class="o"><path transform="translate(5,10)" class="S sfv" d="M1634 1011 L1729 916 L1729 1036 L1634 1131 Z"/><path class="fv6" d="M1634 1011 L1729 916 L1729 1036 L1634 1131 Z" /></g><g class="o"><path transform="translate(8,16)" class="S sfv" d="M996 1333 L750 1087 L750 1199 L996 1445 Z"/><path class="fv5" d="M996 1333 L750 1087 L750 1199 L996 1445 Z" /></g><g class="o"><path transform="translate(5,10)" class="S sfv" d="M1714 1604 L1345 1235 L1345 1257 L1714 1626 Z"/><path class="fv5" d="M1714 1604 L1345 1235 L1345 1257 L1714 1626 Z" /></g><g class="o"><path transform="translate(3,6)" class="S ssv" d="M1013 1675 L1181 1507 L1181 1525 L1013 1693 Z"/><path class="sv5" d="M1013 1675 L1181 1507 L1181 1525 L1013 1693 Z" /></g><g class="o"><path transform="translate(7,14)" class="S sfh" d="M1081 1763 L859 1541 L963 1541 L1185 1763 Z"/><path class="fh2" d="M1081 1763 L859 1541 L963 1541 L1185 1763 Z" /></g><g class="o"><path transform="translate(3,6)" class="S sfv" d="M1052 1056 L1583 525 L1583 621 L1052 1152 Z"/><path class="fv1" d="M1052 1056 L1583 525 L1583 621 L1052 1152 Z" /></g><g class="o"><path transform="translate(4,8)" class="S sfh" d="M1666 1173 L1481 988 L1585 988 L1770 1173 Z"/><path class="fh3" d="M1666 1173 L1481 988 L1585 988 L1770 1173 Z" /></g><g class="o"><path transform="translate(8,16)" class="S sf" d="M1673 1247 L1430 1004 L1430 1060 L1673 1303 Z"/><path class="f1" d="M1673 1247 L1430 1004 L1430 1060 L1673 1303 Z" /></g><g class="o"><path transform="translate(3,6)" class="S sfv" d="M1583 1293 L2117 759 L2117 831 L1583 1365 Z"/><path class="fv3" d="M1583 1293 L2117 759 L2117 831 L1583 1365 Z" /></g><g class="o"><path transform="translate(7,14)" class="S sf" d="M1013 1935 L1166 1782 L1230 1782 L1077 1935 Z"/><path class="f3" d="M1013 1935 L1166 1782 L1230 1782 L1077 1935 Z" /></g><g class="o"><path transform="translate(3,6)" class="S sfv" d="M1172 1191 L1391 972 L1391 1100 L1172 1319 Z"/><path class="fv5" d="M1172 1191 L1391 972 L1391 1100 L1172 1319 Z" /></g><g class="o"><path transform="translate(5,10)" class="S sfv" d="M1423 1651 L1182 1410 L1182 1432 L1423 1673 Z"/><path class="fv6" d="M1423 1651 L1182 1410 L1182 1432 L1423 1673 Z" /></g><g class="o"><path transform="translate(2,4)" class="S sfh" d="M1835 1464 L1993 1306 L2007 1306 L1849 1464 Z"/><path class="fh2" d="M1835 1464 L1993 1306 L2007 1306 L1849 1464 Z" /></g><g class="o"><path transform="translate(4,8)" class="S sfv" d="M1306 1371 L1373 1304 L1373 1408 L1306 1475 Z"/><path class="fv4" d="M1306 1371 L1373 1304 L1373 1408 L1306 1475 Z" /></g><g class="o"><path transform="translate(6,12)" class="S sfv" d="M1782 1748 L2160 1370 L2160 1388 L1782 1766 Z"/><path class="fv4" d="M1782 1748 L2160 1370 L2160 1388 L1782 1766 Z" /></g><g class="o"><path transform="translate(6,12)" class="S ssh" d="M1620 1729 L1393 1502 L1449 1502 L1676 1729 Z"/><path class="sh4" d="M1620 1729 L1393 1502 L1449 1502 L1676 1729 Z" /></g><g class="o"><path transform="translate(7,14)" class="S sfv" d="M1233 1026 L1030 823 L1030 833 L1233 1036 Z"/><path class="fv6" d="M1233 1026 L1030 823 L1030 833 L1233 1036 Z" /></g><g class="o"><path transform="translate(8,16)" class="S sfh" d="M1387 1795 L1482 1700 L1506 1700 L1411 1795 Z"/><path class="fh5" d="M1387 1795 L1482 1700 L1506 1700 L1411 1795 Z" /></g><g class="o"><path transform="translate(4,8)" class="S sfv" d="M989 1332 L1556 765 L1556 901 L989 1468 Z"/><path class="fv5" d="M989 1332 L1556 765 L1556 901 L989 1468 Z" /></g><g class="o"><path transform="translate(6,12)" class="S sfh" d="M1089 2010 L864 1785 L900 1785 L1125 2010 Z"/><path class="fh2" d="M1089 2010 L864 1785 L900 1785 L1125 2010 Z" /></g><g class="o"><path transform="translate(8,16)" class="S sf" d="M1908 1035 L2079 864 L2087 864 L1916 1035 Z"/><path class="f1" d="M1908 1035 L2079 864 L2087 864 L1916 1035 Z" /></g><g class="o"><path transform="translate(2,4)" class="S sf" d="M1984 1470 L1648 1134 L1664 1134 L2000 1470 Z"/><path class="f4" d="M1984 1470 L1648 1134 L1664 1134 L2000 1470 Z" /></g><g class="o"><path transform="translate(7,14)" class="S sfh" d="M1872 1235 L1485 848 L1605 848 L1992 1235 Z"/><path class="fh4" d="M1872 1235 L1485 848 L1605 848 L1992 1235 Z" /></g><g class="o"><path transform="translate(9,18)" class="S sfh" d="M1328 1753 L1874 1207 L1912 1207 L1366 1753 Z"/><path class="fh7" d="M1328 1753 L1874 1207 L1912 1207 L1366 1753 Z" /></g><g class="o"><path transform="translate(8,16)" class="S sfh" d="M1576 2025 L1772 1829 L1808 1829 L1612 2025 Z"/><path class="fh2" d="M1576 2025 L1772 1829 L1808 1829 L1612 2025 Z" /></g><g class="o"><path transform="translate(2,4)" class="S sfv" d="M1109 1160 L458 509 L458 525 L1109 1176 Z"/><path class="fv6" d="M1109 1160 L458 509 L458 525 L1109 1176 Z" /></g><g class="o"><path transform="translate(6,12)" class="S sfv" d="M1565 1713 L1148 1296 L1148 1314 L1565 1731 Z"/><path class="fv7" d="M1565 1713 L1148 1296 L1148 1314 L1565 1731 Z" /></g><g class="o"><path transform="translate(2,4)" class="S sfv" d="M1722 1837 L1233 1348 L1233 1420 L1722 1909 Z"/><path class="fv3" d="M1722 1837 L1233 1348 L1233 1420 L1722 1909 Z" /></g><g class="o"><path transform="translate(7,14)" class="S sfv" d="M1195 1387 L1275 1307 L1275 1427 L1195 1507 Z"/><path class="fv4" d="M1195 1387 L1275 1307 L1275 1427 L1195 1507 Z" /></g><g class="o"><path transform="translate(8,16)" class="S ssv" d="M984 1127 L1143 968 L1143 996 L984 1155 Z"/><path class="sv4" d="M984 1127 L1143 968 L1143 996 L984 1155 Z" /></g><g class="o"><path transform="translate(3,6)" class="S sfv" d="M1690 1089 L1780 999 L1780 1037 L1690 1127 Z"/><path class="fv5" d="M1690 1089 L1780 999 L1780 1037 L1690 1127 Z" /></g><g class="o"><path transform="translate(8,16)" class="S sfh" d="M1498 1294 L1740 1052 L1758 1052 L1516 1294 Z"/><path class="fh7" d="M1498 1294 L1740 1052 L1758 1052 L1516 1294 Z" /></g><g class="o"><path transform="translate(7,14)" class="S sfh" d="M1151 1776 L1285 1642 L1421 1642 L1287 1776 Z"/><path class="fh4" d="M1151 1776 L1285 1642 L1421 1642 L1287 1776 Z" /></g><g class="o"><path transform="translate(9,18)" class="S sfh" d="M1613 1329 L1777 1165 L1791 1165 L1627 1329 Z"/><path class="fh5" d="M1613 1329 L1777 1165 L1791 1165 L1627 1329 Z" /></g><g class="o"><path transform="translate(5,10)" class="S ssh" d="M1614 1896 L1356 1638 L1428 1638 L1686 1896 Z"/><path class="sh2" d="M1614 1896 L1356 1638 L1428 1638 L1686 1896 Z" /></g><g class="o"><path transform="translate(6,12)" class="S sfh" d="M1510 1729 L1712 1527 L1740 1527 L1538 1729 Z"/><path class="fh5" d="M1510 1729 L1712 1527 L1740 1527 L1538 1729 Z" /></g><g class="o"><path transform="translate(7,14)" class="S sfv" d="M1686 1951 L1533 1798 L1533 1878 L1686 2031 Z"/><path class="fv5" d="M1686 1951 L1533 1798 L1533 1878 L1686 2031 Z" /></g><g class="o"><path transform="translate(8,16)" class="S sfh" d="M1750 1963 L1929 1784 L2065 1784 L1886 1963 Z"/><path class="fh1" d="M1750 1963 L1929 1784 L2065 1784 L1886 1963 Z" /></g><g class="o"><path transform="translate(3,6)" class="S sfh" d="M1355 1064 L1730 689 L1818 689 L1443 1064 Z"/><path class="fh1" d="M1355 1064 L1730 689 L1818 689 L1443 1064 Z" /></g><g class="o"><path transform="translate(8,16)" class="S ssh" d="M1309 1397 L1503 1203 L1515 1203 L1321 1397 Z"/><path class="sh3" d="M1309 1397 L1503 1203 L1515 1203 L1321 1397 Z" /></g><g class="o"><path transform="translate(7,14)" class="S sfh" d="M1099 1341 L1360 1080 L1448 1080 L1187 1341 Z"/><path class="fh1" d="M1099 1341 L1360 1080 L1448 1080 L1187 1341 Z" /></g><g class="o"><path transform="translate(4,8)" class="S ssh" d="M1687 1120 L1462 895 L1486 895 L1711 1120 Z"/><path class="sh3" d="M1687 1120 L1462 895 L1486 895 L1711 1120 Z" /></g><g class="o"><path transform="translate(8,16)" class="S ssv" d="M1782 1171 L1642 1031 L1642 1079 L1782 1219 Z"/><path class="sv4" d="M1782 1171 L1642 1031 L1642 1079 L1782 1219 Z" /></g><g class="o"><path transform="translate(2,4)" class="S sfv" d="M1366 1105 L1786 685 L1786 709 L1366 1129 Z"/><path class="fv2" d="M1366 1105 L1786 685 L1786 709 L1366 1129 Z" /></g><g class="o"><path transform="translate(5,10)" class="S sfh" d="M1243 1291 L820 868 L840 868 L1263 1291 Z"/><path class="fh5" d="M1243 1291 L820 868 L840 868 L1263 1291 Z" /></g><g class="o"><path transform="translate(6,12)" class="S sfv" d="M1633 1096 L1192 655 L1192 669 L1633 1110 Z"/><path class="fv5" d="M1633 1096 L1192 655 L1192 669 L1633 1110 Z" /></g><g class="o"><path transform="translate(3,6)" class="S sf" d="M1514 1461 L1031 978 L1031 986 L1514 1469 Z"/><path class="f5" d="M1514 1461 L1031 978 L1031 986 L1514 1469 Z" /></g><g class="o"><path transform="translate(3,6)" class="S sfh" d="M1067 1134 L593 660 L633 660 L1107 1134 Z"/><path class="fh6" d="M1067 1134 L593 660 L633 660 L1107 1134 Z" /></g><g class="o"><path transform="translate(4,8)" class="S ssv" d="M1006 1604 L783 1381 L783 1419 L1006 1642 Z"/><path class="sv6" d="M1006 1604 L783 1381 L783 1419 L1006 1642 Z" /></g><g class="o"><path transform="translate(4,8)" class="S sf" d="M1952 1697 L1795 1540 L1795 1580 L1952 1737 Z"/><path class="f2" d="M1952 1697 L1795 1540 L1795 1580 L1952 1737 Z" /></g><g class="o"><path transform="translate(6,12)" class="S sf" d="M1590 1369 L1245 1024 L1245 1056 L1590 1401 Z"/><path class="f7" d="M1590 1369 L1245 1024 L1245 1056 L1590 1401 Z" /></g><g class="o"><path transform="translate(5,10)" class="S sfh" d="M1780 1558 L1657 1435 L1729 1435 L1852 1558 Z"/><path class="fh1" d="M1780 1558 L1657 1435 L1729 1435 L1852 1558 Z" /></g><g class="o"><path transform="translate(5,10)" class="S sfh" d="M1904 1346 L2645 605 L2701 605 L1960 1346 Z"/><path class="fh4" d="M1904 1346 L2645 605 L2701 605 L1960 1346 Z" /></g><g class="o"><path transform="translate(9,18)" class="S sfh" d="M1515 1030 L1077 592 L1133 592 L1571 1030 Z"/><path class="fh5" d="M1515 1030 L1077 592 L1133 592 L1571 1030 Z" /></g><g class="o"><path transform="translate(5,10)" class="S sfv" d="M2030 1860 L2165 1725 L2165 1753 L2030 1888 Z"/><path class="fv4" d="M2030 1860 L2165 1725 L2165 1753 L2030 1888 Z" /></g><g class="o"><path transform="translate(4,8)" class="S ssv" d="M1972 1727 L2182 1517 L2182 1605 L1972 1815 Z"/><path class="sv3" d="M1972 1727 L2182 1517 L2182 1605 L1972 1815 Z" /></g><g class="o"><path transform="translate(4,8)" class="S sfv" d="M1354 1927 L1603 1678 L1603 1766 L1354 2015 Z"/><path class="fv1" d="M1354 1927 L1603 1678 L1603 1766 L1354 2015 Z" /></g><g class="o"><path transform="translate(5,10)" class="S sfh" d="M1786 1296 L1688 1198 L1768 1198 L1866 1296 Z"/><path class="fh2" d="M1786 1296 L1688 1198 L1768 1198 L1866 1296 Z" /></g><g class="o"><path transform="translate(2,4)" class="S sfv" d="M1359 1087 L2034 412 L2034 452 L1359 1127 Z"/><path class="fv1" d="M1359 1087 L2034 412 L2034 452 L1359 1127 Z" /></g><g class="o"><path transform="translate(2,4)" class="S sfh" d="M1736 1103 L1403 770 L1413 770 L1746 1103 Z"/><path class="fh5" d="M1736 1103 L1403 770 L1413 770 L1746 1103 Z" /></g><g class="o"><path transform="translate(6,12)" class="S sfh" d="M1036 1593 L859 1416 L947 1416 L1124 1593 Z"/><path class="fh2" d="M1036 1593 L859 1416 L947 1416 L1124 1593 Z" /></g><g class="o"><path transform="translate(8,16)" class="S sfh" d="M1091 1399 L1146 1344 L1172 1344 L1117 1399 Z"/><path class="fh7" d="M1091 1399 L1146 1344 L1172 1344 L1117 1399 Z" /></g><g class="o"><path transform="translate(7,14)" class="S sf" d="M1342 1547 L706 911 L706 947 L1342 1583 Z"/><path class="f3" d="M1342 1547 L706 911 L706 947 L1342 1583 Z" /></g><g class="o"><path transform="translate(5,10)" class="S sfh" d="M1035 1733 L1617 1151 L1635 1151 L1053 1733 Z"/><path class="fh6" d="M1035 1733 L1617 1151 L1635 1151 L1053 1733 Z" /></g><g class="o"><path transform="translate(7,14)" class="S sf" d="M1555 1048 L1762 841 L1914 841 L1707 1048 Z"/><path class="f3" d="M1555 1048 L1762 841 L1914 841 L1707 1048 Z" /></g><g class="o"><path transform="translate(6,12)" class="S sfh" d="M1976 1279 L2165 1090 L2179 1090 L1990 1279 Z"/><path class="fh4" d="M1976 1279 L2165 1090 L2179 1090 L1990 1279 Z" /></g><g class="o"><path transform="translate(9,18)" class="S sfv" d="M1750 1708 L1978 1480 L1978 1498 L1750 1726 Z"/><path class="fv6" d="M1750 1708 L1978 1480 L1978 1498 L1750 1726 Z" /></g><g class="o"><path transform="translate(2,4)" class="S sfv" d="M974 1403 L1176 1201 L1176 1213 L974 1415 Z"/><path class="fv5" d="M974 1403 L1176 1201 L1176 1213 L974 1415 Z" /></g><g class="o"><path transform="translate(4,8)" class="S ssv" d="M1669 1564 L1441 1336 L1441 1400 L1669 1628 Z"/><path class="sv4" d="M1669 1564 L1441 1336 L1441 1400 L1669 1628 Z" /></g><g class="o"><path transform="translate(9,18)" class="S sfv" d="M1117 944 L1297 764 L1297 776 L1117 956 Z"/><path class="fv7" d="M1117 944 L1297 764 L1297 776 L1117 956 Z" /></g><g class="o"><path transform="translate(7,14)" class="S sf" d="M1379 1294 L1178 1093 L1330 1093 L1531 1294 Z"/><path class="f4" d="M1379 1294 L1178 1093 L1330 1093 L1531 1294 Z" /></g><g class="o"><path transform="translate(3,6)" class="S sfv" d="M1445 1851 L716 1122 L716 1194 L1445 1923 Z"/><path class="fv7" d="M1445 1851 L716 1122 L716 1194 L1445 1923 Z" /></g><g class="o"><path transform="translate(8,16)" class="S sf" d="M1499 1082 L1721 860 L1731 860 L1509 1082 Z"/><path class="f2" d="M1499 1082 L1721 860 L1731 860 L1509 1082 Z" /></g><g class="o"><path transform="translate(7,14)" class="S ssh" d="M2016 1386 L1867 1237 L1931 1237 L2080 1386 Z"/><path class="sh2" d="M2016 1386 L1867 1237 L1931 1237 L2080 1386 Z" /></g><g class="o"><path transform="translate(7,14)" class="S sfh" d="M1133 1403 L983 1253 L1063 1253 L1213 1403 Z"/><path class="fh7" d="M1133 1403 L983 1253 L1063 1253 L1213 1403 Z" /></g><g class="o"><path transform="translate(2,4)" class="S ssh" d="M1776 1664 L1681 1569 L1761 1569 L1856 1664 Z"/><path class="sh7" d="M1776 1664 L1681 1569 L1761 1569 L1856 1664 Z" /></g><g class="o"><path transform="translate(8,16)" class="S sfh" d="M1647 1904 L2133 1418 L2143 1418 L1657 1904 Z"/><path class="fh7" d="M1647 1904 L2133 1418 L2143 1418 L1657 1904 Z" /></g><g class="o"><path transform="translate(6,12)" class="S ssh" d="M1726 1660 L1936 1450 L2000 1450 L1790 1660 Z"/><path class="sh1" d="M1726 1660 L1936 1450 L2000 1450 L1790 1660 Z" /></g><g class="o"><path transform="translate(2,4)" class="S sfv" d="M1667 1480 L1994 1153 L1994 1163 L1667 1490 Z"/><path class="fv3" d="M1667 1480 L1994 1153 L1994 1163 L1667 1490 Z" /></g><g class="o"><path transform="translate(7,14)" class="S sf" d="M2036 1079 L2468 647 L2480 647 L2048 1079 Z"/><path class="f5" d="M2036 1079 L2468 647 L2480 647 L2048 1079 Z" /></g></g><use href="#slashes" transform-origin="1500 1500" transform="rotate(180) scale(2)"/></g><rect x="1080" y="1080" width="840" height="840" stroke-width="20" class="o f7" /><use href="#slashes" transform-origin="1500 1500" transform="scale(.7)"/><use href="#slashes" transform-origin="1500 1500" transform="rotate(180) scale(.3)"/></svg>